<?xml version="1.0" encoding="utf-8" ?>
<svg xmlns="http://www.w3.org/2000/svg" xmlns:xlink="http://www.w3.org/1999/xlink" width="88" height="88">
	<path fill="white" d="M5.8132 44C5.8132 22.8519 22.8519 5.8132 44 5.8132C65.1481 5.8132 82.1868 22.8519 82.1868 44C82.1868 65.1481 65.1481 82.1868 44 82.1868C22.8519 82.1868 5.8132 64.7471 5.8132 44"/>
	<path fill="white" d="M88 44C88 68.3005 68.3005 88 44 88C19.6995 88 0 68.3005 0 44C0 19.6995 19.6995 0 44 0C68.3005 0 88 19.6995 88 44"/>
	<path fill="#2D1B0A" d="M42.6471 2.23245C19.4945 3.06 1.4535 22.3038 2.2296 45.3561C3.05715 68.4086 22.5013 86.4496 45.3533 85.7678C68.2052 85.0464 86.5469 65.7023 85.7704 42.6499C85.0435 19.4974 65.7997 1.45635 42.6471 2.23245"/>
	<path fill="#AD6331" d="M4.51035 44C4.51035 22.1504 22.1505 4.5103 44 4.5103C65.8498 4.5103 83.4899 22.1504 83.4899 44C83.4899 65.8497 65.6494 83.2893 43.7996 83.2893C21.95 83.2893 4.51035 65.7495 4.51035 44"/>
	<path fill="white" d="M55.5261 6.27755C55.5261 6.27755 66.2505 10.7878 61.1389 40.756C55.2254 69.3209 44.1002 81.3482 35.681 82.0498C35.681 82.0498 43.3986 84.756 52.2187 70.9244C52.2187 70.9244 62.1412 53.6852 63.7449 34.5418C65.7494 15.7992 61.4395 8.38233 55.5261 6.27755"/>
	<path fill="white" d="M37.3849 82.4073C36.3826 82.4073 35.681 82.2069 35.681 82.2069C43.4988 81.3048 54.9248 70.0794 60.9384 40.7127C63.5443 25.2775 61.8405 16.7582 60.0364 12.3482C58.0318 7.53724 55.4259 6.43473 55.3256 6.43473C62.6423 8.73997 65.549 18.2617 63.845 34.699C62.2414 53.6421 52.3188 70.8812 52.2187 71.0816C46.0045 81.1044 40.1913 82.4073 37.3849 82.4073M36.6833 82.1068C38.9886 82.3072 45.3029 81.7058 52.2187 70.8812C52.3188 70.6807 62.1412 53.4416 63.7449 34.5988C65.2482 19.4644 62.943 10.2434 56.9294 6.93587C57.9316 7.73769 59.2346 9.34134 60.4373 12.1477C62.3417 16.658 63.9453 25.1774 61.3393 40.7127C55.4259 69.2775 44.6013 80.7036 36.6833 82.1068"/>
	<path fill="white" d="M72.7683 17.151C72.7683 17.151 70.2626 16.6544 71.1646 26.0759C71.1646 33.9939 73.4699 41.9118 74.2717 46.9233C74.9733 51.7341 77.8799 60.9552 70.6635 72.3811C70.6635 72.3811 79.0826 65.5657 76.0758 48.5269C76.0758 48.5269 72.4676 33.4928 72.4676 28.0805C72.4676 28.0805 71.766 18.1579 74.0712 18.5588L72.7683 17.151"/>
	<path fill="white" d="M70.7607 72.4846C76.8746 62.3616 75.3712 53.9426 74.4692 48.9312C74.369 48.2295 74.2687 47.528 74.1685 46.9266C73.968 45.6236 73.6674 44.1201 73.2664 42.5165C72.2642 37.8059 70.9612 31.8923 70.9612 26.0792C70.4601 20.1658 71.1617 18.061 71.9635 17.3594C72.3644 17.0476 72.7653 17.0476 72.7653 17.0476L74.4692 18.7626C73.8678 18.6623 73.6674 18.6623 73.5671 18.8628C72.0637 20.1658 72.5649 28.0837 72.5649 28.0837C72.5649 33.496 76.1731 48.3298 76.1731 48.5303C79.1799 65.4688 70.861 72.3844 70.7607 72.4846M72.6651 17.3594C72.5649 17.3594 72.3644 17.3594 72.1639 17.5598C71.5626 18.061 70.6605 19.9653 71.2619 26.0792C71.2619 31.9926 72.5649 37.8059 73.5671 42.5165C73.8678 44.1201 74.2687 45.6236 74.4692 46.9266C74.5694 47.528 74.6696 48.2295 74.7699 48.9312C75.6719 53.8423 77.0751 61.8605 71.4623 71.4823C73.4669 69.1772 78.3781 62.061 75.9726 48.6304C75.9726 48.5303 72.3644 33.5963 72.3644 28.184C72.3644 27.8833 71.8633 20.1658 73.3667 18.7626C73.4669 18.6623 73.6674 18.5621 73.7676 18.5621L72.6651 17.3594"/>
	<path fill="white" d="M24.6561 9.58846C24.6561 9.58846 38.688 4.57707 48.7107 12.9962C48.7107 12.9962 59.6356 23.2194 44.4009 37.4518C44.4009 37.4518 26.7609 52.4859 22.5513 57.1967C22.5513 57.1967 13.631 64.9142 13.2301 68.1215L14.3326 69.224C14.3326 69.224 19.7449 61.8071 29.3668 53.388C29.3668 53.388 44.1003 40.4586 45.2028 39.8572C45.2028 39.8572 54.5239 32.5406 54.9328 23.019C54.9328 23.019 55.6265 12.5953 43.7996 8.98709C43.7996 8.88686 34.0814 5.27866 24.6561 9.58846"/>
	<path fill="white" d="M14.5331 69.478L13.2301 68.1749C13.631 64.8674 22.151 57.4506 22.5519 57.0497C26.5613 52.4392 44.2027 37.5052 44.4031 37.3049C49.7156 32.2934 52.4219 27.2821 52.4219 22.3708C52.4219 16.6579 48.7132 13.1499 48.7132 13.0497C38.8903 4.831 24.8573 9.5417 24.757 9.64193C30.1698 6.83555 36.9857 6.53487 43.8018 8.53943C43.902 8.53943 44.1025 8.63965 44.1025 8.63965C55.8299 12.2479 55.3318 22.7718 55.3318 22.872C54.8275 32.3937 45.6059 39.7103 45.5057 39.8105C44.4031 40.5121 29.7688 53.2411 29.6685 53.3413C20.2465 61.6602 14.7336 69.077 14.6333 69.1772M13.5308 67.9745L14.5331 68.9767C15.335 67.9745 20.6474 60.9585 29.4682 53.2411C30.0695 52.7399 44.2027 40.3116 45.4055 39.6101C45.5057 39.5098 54.6271 32.2934 55.1283 22.872C55.1283 22.7718 55.6294 12.5485 44.1025 8.94034C44.1025 8.94034 44.0023 8.94034 43.7015 8.84011C37.8879 7.22375 32.0742 7.03601 27.1628 8.63965C31.6734 7.63738 41.3961 6.53487 48.8134 12.749C48.8134 12.749 52.6224 16.4574 52.6224 22.2706C52.6224 27.2821 49.916 32.3937 44.5033 37.5052C44.303 37.7057 26.7617 52.5395 22.7524 57.15C22.6521 57.3503 14.0319 64.8674 13.5308 67.9745"/>
	<path fill="white" d="M4.9613 41.3139C4.9613 41.3139 5.66289 26.9814 32.9249 21.5691C32.9249 21.5691 55.3759 17.7605 70.1094 25.3778C70.1094 25.3778 81.836 30.7901 83.0387 38.9086C83.0387 38.9086 80.3326 30.4894 68.5057 25.9791C68.5057 25.9791 54.4738 20.3664 39.4397 22.3709C39.4397 22.3709 26.0091 22.8721 13.7814 30.2889C13.4807 30.5896 6.7654 34.699 4.9613 41.3139"/>
	<path fill="white" d="M5.11163 41.3139C4.81095 41.3139 5.01141 37.6055 8.61961 33.396C11.9271 29.4871 18.7426 24.2752 32.8748 21.4689C33.0751 21.4689 55.5263 17.7604 70.1595 25.2775C70.2597 25.3777 81.9864 30.8902 83.189 39.0088C82.8884 39.0088 80.0821 30.6898 68.4556 26.2798C68.3553 26.1796 54.2233 20.667 39.4897 22.6716C39.3896 22.6716 25.959 23.2729 13.9317 30.5896C13.9317 30.5896 13.9317 30.5896 13.7312 30.7901C9.22097 33.6966 6.11391 37.5053 5.11163 41.3139M45.9044 20.7673C38.5877 20.7673 32.9749 21.6693 32.8748 21.6693C18.8428 24.3755 12.0274 29.5873 8.82006 33.4962C6.91573 35.7012 6.01368 37.806 5.51255 39.2092C6.91573 36.0019 9.72211 32.995 13.4305 30.3891C13.5308 30.2889 13.631 30.2889 13.631 30.2889C25.7585 22.872 39.1891 22.2707 39.3896 22.2707C54.2233 20.2661 68.3553 25.8789 68.5558 25.8789C77.4761 29.2866 81.2848 34.9996 82.5878 37.5053C80.3828 30.2889 70.1595 25.478 70.0592 25.478C62.7427 21.7695 53.4215 20.7673 45.9044 20.7673"/>
</svg>
