<?xml version="1.0" encoding="utf-8" ?>
<svg xmlns="http://www.w3.org/2000/svg" xmlns:xlink="http://www.w3.org/1999/xlink" width="88" height="88">
	<path fill="white" d="M88 44C88 68.3005 68.3005 88 44 88C19.6995 88 0 68.3005 0 44C0 19.6995 19.6995 0 44 0C68.3005 0 88 19.6995 88 44"/>
	<path fill="#99CC62" d="M63.9593 17.4396C62.0679 12.4282 57.5883 9.02043 51.914 4.51018C31.0091 -0.30075 6.12219 14.3326 3.6335 39.0887C17.3711 24.7561 31.8054 13.8314 63.9593 17.4396"/>
	<path fill="#2D1B0A" d="M2.2896 41.6946L2.58824 38.8882C3.68327 27.5625 9.55657 17.4395 19.0136 10.624C28.7692 3.60804 41.0136 0.90189 51.9638 3.50781L53.1584 4.40986C58.5339 8.71966 62.8145 12.1274 64.7059 17.1388L65.3032 18.6422L63.7104 18.4418C31.2579 14.8336 17.0226 26.46 4.28055 39.69L2.2896 41.6946M43.7014 4.51009C35.5385 4.51009 27.1765 7.21624 20.2082 12.2276C12.0453 18.1411 6.66969 26.5602 4.97738 36.0818C17.4208 23.6536 31.8552 13.3301 62.2172 16.2367C60.2263 12.5283 56.543 9.52148 51.9638 5.81305C48.8778 4.81077 46.2896 4.51009 43.7014 4.51009"/>
	<path fill="#FDFEFF" d="M65.9999 29.0659C67.0949 28.8655 63.7104 16.9384 63.9094 17.3393C31.2579 13.8313 17.2216 25.558 3.48412 39.6901C3.08593 44.2003 3.31785 49.2118 4.57914 54.3233C8.36195 49.5124 26.0814 27.3621 65.9999 29.0659"/>
	<path fill="#2D1B0A" d="M4.08144 56.6285L3.5837 54.624C2.38913 49.5124 1.99094 44.4008 2.48867 39.69C16.724 24.6559 30.9593 12.9292 63.6108 16.337L65.5022 18.6422C65.0045 18.542 65.0045 18.6422 65.0045 18.6422C67.095 26.8609 67.2941 28.7652 66.7964 29.567C66.5973 29.8677 66.3982 30.0682 66 30.0682C40.3167 28.9657 18.8145 37.7857 5.17646 55.0249L4.08144 56.6285M4.38008 40.1912C4.08144 43.9998 4.28053 48.009 5.07691 52.1183C18.914 35.6809 40.1176 27.1616 65.1041 27.9634C65.0045 26.6604 64.4072 23.6536 63.2127 19.0431C63.1131 18.7424 63.0136 18.4418 63.0136 18.2413C31.7556 15.1342 17.9185 26.3598 4.38008 40.1912"/>
	<path fill="#99CC62" d="M4.52715 54.4237C4.52715 54.524 4.52715 54.3235 4.52715 54.4237C8.50905 58.6333 11.1968 61.2393 16.0746 64.7472C18.1651 62.1413 35.6856 45.8041 60.4729 48.7107C61.7669 46.606 66.6448 35.3805 65.8484 29.0661C53.8032 29.5673 38.871 29.9682 25.034 36.9841C14.0837 42.4967 8.30996 49.5126 4.52715 54.4237"/>
	<path fill="#2D1B0A" d="M16.3257 66.1503C10.8506 62.0409 8.06323 59.435 4.28043 55.5261L3.48405 54.123C7.66504 48.9111 13.5383 41.5945 24.7872 35.9817C38.4252 29.1662 53.0587 28.5649 64.8053 27.9635L66.8958 27.9635C67.7917 35.7813 62.6153 47.3075 61.4207 49.2118C37.3302 46.9066 20.0089 61.4396 16.923 65.2482M5.87319 54.3234C9.35735 57.9316 11.846 60.3371 15.9275 63.4441C20.4071 58.7334 37.4297 45.4031 59.9275 47.7084C61.4207 44.902 65.104 35.7813 65.0044 30.1685C53.1583 30.6696 38.7239 31.271 25.5836 37.886C15.1311 43.0979 9.35735 49.9134 5.87319 54.3234"/>
	<path fill="#99CC62" d="M29.0679 55.1253C22.9955 58.3326 18.7149 62.8429 16.1267 64.7472C19.4118 71.8633 21.7014 75.5718 28.1719 81.9863C33.1493 83.8907 40.914 84.1914 45.3937 84.3918C36.4344 76.8747 30.0634 62.1413 29.0679 55.1253"/>
	<path fill="#2D1B0A" d="M48.2805 85.4943L45.095 85.3941C40.5158 85.1937 32.8507 84.893 27.7737 82.8884C20.8054 76.0729 18.3167 72.0638 15.2307 65.1481L15.6289 63.9454C16.3258 63.4442 17.2217 62.6424 18.2172 61.8406C20.8054 59.6356 24.2896 56.6287 28.6697 54.3235L29.9638 53.6219L30.1629 55.0251C31.2579 62.2415 37.828 76.6743 46.0905 83.59L48.2805 85.4943M28.6697 81.1845C32.6516 82.688 38.3258 83.0889 42.6063 83.2893C35.1402 75.8725 29.7647 63.8451 28.2715 56.729C24.5882 58.8337 21.6018 61.4397 19.3122 63.344C18.5158 63.9454 17.9185 64.5467 17.2217 65.0479C20.3077 71.5627 22.6968 75.0706 28.6697 81.1845"/>
	<path fill="#99CC62" d="M75.3573 70.0878C69.484 65.2769 62.2171 52.9488 60.6243 48.8395C53.4569 48.3383 46.8868 48.7393 41.113 50.4431C43.0044 57.6595 50.0723 72.1926 63.9094 79.8099C68.6877 77.0035 72.6696 73.3953 75.3573 70.0878"/>
	<path fill="#2D1B0A" d="M63.9095 80.8838C49.1764 72.8656 42.1085 58.1321 40.1176 50.615L40.8144 49.4123C46.4886 47.7084 52.9592 47.2073 60.7239 47.8086C63.1131 52.5193 70.2805 64.6469 75.9547 69.2574L76.1538 70.6606C73.9637 73.3667 70.1809 77.2756 64.4072 80.5831M42.3076 51.1161C44.3981 58.0319 51.1674 71.4624 63.9095 78.5785C68.6877 75.7722 71.9728 72.5649 73.9637 70.1594C68.19 65.0478 61.819 54.123 59.9275 49.713C53.1583 49.312 47.3846 49.713 42.3076 51.1161"/>
	<path fill="#FDFEFF" d="M41.0136 50.4146C36.534 51.7175 32.5521 53.3212 29.0679 55.1253C30.0634 62.041 40.8145 84.893 46.3892 84.5952C54.4525 84.1913 57.9367 82.8884 63.9095 79.4807C49.9729 71.9635 42.905 57.5307 41.0136 50.4146"/>
	<path fill="#2D1B0A" d="M46.2896 85.5945C39.62 85.5945 28.9684 61.6401 28.0724 55.2255L28.5702 54.2232C32.1539 52.3189 36.2353 50.7152 40.715 49.4123L42.0091 50.1139C43.801 56.7289 50.6697 71.2619 64.3077 78.5786L65.9005 79.4806L64.3077 80.3827C58.2353 83.8906 54.6516 85.1936 46.3892 85.5945C46.3892 85.5945 46.3892 85.5945 46.2896 85.5945M30.163 55.7266C31.7557 63.9453 42.1086 83.8906 46.2896 83.6902C53.4571 83.2893 56.8417 82.287 61.8191 79.5808C49.1765 72.0638 42.6064 59.1344 40.3168 51.7175C36.6335 52.82 33.1494 54.123 30.163 55.7266"/>
	<path fill="#FDFEFF" d="M73.8642 17.7402C78.6425 29.9681 78.4434 49.9133 70.4796 64.7471C72.0724 66.5511 73.6651 68.2551 75.457 69.8587C87.5022 56.4282 89.095 34.0773 74.6606 17.7402"/>
	<path fill="#2D1B0A" d="M75.457 71.3622C72.9683 69.0569 71.276 67.2528 69.7828 65.4487L69.6832 64.3462C77.8461 49.2118 77.5475 29.6674 73.0679 18.1412L72.4706 16.6378L75.2579 16.9385C89.3936 32.7745 89.6923 55.8269 76.3529 70.6606M71.6742 64.6469C72.8688 65.9499 74.0633 67.2528 75.3574 68.4556C85.0136 56.9294 88.1991 37.1845 76.0543 21.1481C79.4389 33.0752 78.9412 50.615 71.6742 64.6469"/>
	<path fill="#99CC62" d="M74.9593 17.9408C69.5837 11.2255 61.819 6.2141 51.8643 4.41C54.4525 7.31661 72.9684 16.0364 60.6244 48.7107C60.8235 49.1116 67.2942 60.9385 70.4797 64.7471C78.4435 49.9134 79.7375 30.1685 74.9593 17.9408"/>
	<path fill="#2D1B0A" d="M70.6787 66.5514L69.7828 65.4489C66.3982 61.54 59.9276 49.6129 59.7285 49.212C70.181 20.3464 58.0362 10.7245 52.7602 6.51493C52.0633 5.91356 51.466 5.51265 51.0679 5.01151L49.0769 2.8065L51.9638 3.30764C61.5203 5.01151 69.7828 9.82245 75.6561 17.1391C81.0317 30.5696 79.1402 50.6152 71.3755 65.1482L70.6787 66.5514M61.6199 48.7108C62.6154 50.5149 67.1945 58.8338 70.2805 62.9432C77.1493 49.1117 78.7602 30.6698 74.0633 18.442C69.285 12.5286 63.0136 8.41926 55.647 6.31447C61.4208 11.2256 71.4751 22.4511 61.6199 48.7108"/>
	<path fill="#FDFEFF" d="M5.37563 54.0228C7.46613 56.6287 13.1403 62.7426 16.1268 64.7471C17.819 69.1572 23.8915 79.2802 28.1721 81.9864C12.8417 75.1709 6.66975 62.943 4.57925 54.4237"/>
	<path fill="#2D1B0A" d="M27.7738 82.8884C10.9503 75.4716 5.47515 61.9408 3.6833 54.6242L5.77379 52.8201C8.36203 56.0274 13.9367 62.0411 16.724 63.9454C18.8145 68.8565 24.7874 78.6789 28.7693 81.1846L27.7738 82.8884M6.27153 56.5285C8.26248 62.7426 12.7421 71.5627 22.896 77.9773C19.7104 73.8679 16.6245 68.4556 15.3304 65.3486C12.8417 63.6447 8.76022 59.4351 6.27153 56.5285"/>
</svg>
