<?xml version="1.0" encoding="utf-8" ?>
<svg xmlns="http://www.w3.org/2000/svg" xmlns:xlink="http://www.w3.org/1999/xlink" width="82" height="82">
	<path fill="white" d="M41 0C18.4247 0 0 18.4247 0 41C0 63.5753 18.4247 82 41 82C63.5753 82 82 63.5753 82 41C82 18.4247 63.5753 0 41 0"/>
	<path fill="#2D1B0A" d="M40.5951 80.1778C30.3703 80.1778 20.9556 76.2296 13.5653 69.042C6.07403 61.7531 2.02465 51.6296 2.02465 41C2.02465 19.437 19.437 1.8222 40.8988 1.8222C62.4617 1.8222 79.7728 19.3358 79.7728 41C79.7728 62.5629 62.3605 80.1778 40.8988 80.1778C40.7975 80.1778 40.7975 80.1778 40.5951 80.1778M41 3.94813C20.753 3.94813 4.15058 20.4494 4.15058 41C4.15058 51.0222 8.09872 60.437 14.9827 67.5234C21.8666 74.2049 30.8766 78.0518 40.5951 78.0518C40.7975 78.0518 40.7975 78.0518 41 78.0518C61.2468 78.0518 77.8493 61.5506 77.8493 41C77.8493 20.5506 61.2468 3.94813 41 3.94813"/>
	<path fill="#99CC62" d="M25.1062 41.6073C25.1062 39.4813 25.1062 37.153 24.9038 35.1283L26.726 36.1406C27.1309 36.3432 27.3334 36.3432 27.5359 36.1406C27.7383 36.1406 27.7383 35.9381 27.7383 35.7356C27.9408 35.3307 27.7383 34.9258 27.7383 34.9258L24.6 33.1035C24.3976 31.2813 23.9926 29.1554 23.5877 27.3333C23.5877 27.1307 23.5877 27.1307 23.3852 26.9282L25.5112 27.5356C25.9161 27.5356 26.321 27.3333 26.5235 26.9282C26.726 26.5233 26.5235 26.1185 26.321 25.916L22.9803 24.7011C22.3729 22.5752 21.7655 20.5505 20.8544 19.032L22.9803 19.4369C23.3852 19.4369 23.9926 19.2345 23.9926 18.8295C23.9926 18.2221 23.5877 18.0196 23.3852 17.8172L19.842 17.0073C18.3235 14.5777 17.1087 13.0591 17.1087 13.0591L16.0963 14.0715C16.0963 14.0715 17.1087 15.2863 18.4247 17.4122L16.0963 20.1456C16.0963 20.348 15.8939 20.753 16.0963 21.1579C16.2988 21.3604 16.5013 21.5629 16.7038 21.5629C17.1087 21.5629 17.3112 21.3604 17.3112 21.1579L19.1334 19.032C19.9433 20.753 20.8544 22.5752 21.4618 24.8023L18.7284 27.1307C18.526 27.3333 18.3235 27.7381 18.526 28.3456C18.7284 28.7505 18.9309 28.7505 19.1334 28.7505C19.3358 28.7505 19.7408 28.548 19.7408 28.548L21.8667 26.7258C21.8667 27.1307 22.0692 27.3333 22.0692 27.5356C22.4741 29.3579 22.6766 31.0789 22.8791 33.0023L19.7408 34.8246C19.7408 34.8246 19.5383 35.2295 19.5383 36.0393C19.5383 36.4444 19.7408 36.4444 19.9433 36.4444C20.3482 36.4444 20.7531 36.2418 20.7531 36.2418L23.1828 34.7234C23.3852 36.8493 23.3852 38.874 23.3852 41.2024L20.0445 42.7208C19.842 42.7208 19.6395 43.1259 19.6395 43.7332C19.6395 43.9356 19.6395 43.9356 19.842 44.1381C20.0445 44.4418 20.6519 44.3406 20.6519 44.1381L23.0815 43.1259C22.8791 45.2518 22.6766 47.5802 22.2716 49.8073L18.7284 50.6171C18.526 50.6171 18.3235 51.0222 18.3235 51.6296C18.3235 51.832 18.526 52.0345 18.526 52.0345C18.7284 52.2369 19.3358 52.2369 19.3358 52.2369L21.7655 51.6296C21.563 52.6418 21.3605 53.7555 20.9556 54.9702C20.9556 54.9702 20.5507 56.1851 19.9433 58.1086L16.4 58.5135C16.4 58.5135 16.1976 58.716 16.1976 58.9184C16.1976 59.1208 16.1976 59.3233 16.4 59.5259C16.4 59.9308 17.0075 60.1333 17.4124 60.1333L19.2346 59.9308C18.6272 61.6518 17.7161 63.2715 16.805 64.9924L13.4642 64.5875C13.4642 64.5875 12.6544 64.5875 12.4519 65.3974C12.8568 66.0049 13.0593 66.4098 13.0593 66.4098L15.4889 66.8148C15.2865 67.0172 15.2865 67.2197 15.084 67.4221L16.0963 68.4344C16.2988 68.2319 16.5013 68.0295 16.7038 67.6245L17.9186 70.3579C18.121 70.5603 18.3235 70.7628 18.526 70.7628C18.7284 70.7628 18.7284 70.7628 18.9309 70.5603C19.3358 70.3579 19.3358 69.7505 19.3358 69.7505L17.6149 66.2073C18.8297 64.385 19.7408 62.2592 20.5507 60.5382L22.3729 62.9678C22.5754 63.1702 22.7778 63.1702 22.9803 63.1702C23.1828 63.1702 23.3852 63.1702 23.5877 62.9678C23.7902 62.5629 23.5877 62.158 23.5877 61.9555L21.2593 58.8172C21.8667 56.9949 22.2716 55.679 22.2716 55.4765C22.4741 54.4641 22.6766 53.3506 22.8791 52.5406L24.6 54.3629C24.8025 54.5653 25.005 54.5653 25.2075 54.5653C25.4099 54.5653 25.6124 54.5653 25.8149 54.3629C26.0173 53.958 25.8149 53.553 25.8149 53.3506L23.3852 50.6171C23.7902 48.2887 24.1951 46.0616 24.1951 43.7332L26.0173 45.2518C26.2198 45.4543 26.4223 45.4543 26.6247 45.4543C26.8272 45.4543 26.8272 45.4543 26.8272 45.4543C27.0297 45.4543 27.0297 45.2518 27.0297 45.2518C27.2321 44.8469 27.0297 44.4418 27.0297 44.4418L25.1062 41.6073"/>
	<path fill="#99CC62" d="M57.5012 41.6074C57.5012 39.4815 57.5012 37.4568 57.7037 35.3309L55.8815 36.3432C55.4765 36.5457 55.2741 36.3432 55.0716 36.3432C54.7791 36.3432 54.7791 36.1407 54.7791 35.9383C54.6667 35.5333 54.7791 35.1284 54.7791 35.1284L58.0074 33.3062C58.2099 31.484 58.6148 29.5605 59.0197 27.5358C59.0197 27.3333 59.0197 27.3333 59.2222 27.1309L57.0963 27.7383C56.6914 27.7383 56.2864 27.5358 56.0839 27.1309C55.8815 26.7259 56.0839 26.321 56.2864 26.1185L59.6272 25.1062C60.2346 22.9803 60.842 21.158 61.7531 19.437L59.9309 19.842C59.5259 19.842 58.9185 19.6395 58.9185 19.2346C58.9185 18.6272 59.3235 18.4247 59.5259 18.2222L62.8667 17.4123C64.3852 14.9827 65.6001 13.4642 65.6001 13.4642L66.6124 14.4766C66.6124 14.4766 65.6001 15.6914 64.284 17.8173L66.6124 20.5506C66.6124 20.7531 66.8148 21.158 66.6124 21.563C66.4099 21.7654 66.2075 21.9679 66.0049 21.9679C65.6001 21.9679 65.3975 21.7654 65.3975 21.563L63.5753 19.437C62.7654 20.9556 61.8543 22.9803 61.2469 25.1062L63.9802 27.4346C64.1827 27.637 64.3852 28.042 64.1827 28.6494C63.9802 29.0543 63.7778 29.0543 63.5753 29.0543C63.3728 29.0543 63.1704 28.8519 62.9679 28.8519L60.842 27.0296C60.842 27.2321 60.6395 27.637 60.6395 27.8395C60.2346 29.5605 60.0321 31.3827 59.8296 33.0025L62.9679 34.8247C62.9679 34.8247 63.1704 35.2296 63.1704 36.0395C63.1704 36.4444 62.9679 36.4444 62.7654 36.4444C62.3605 36.4444 61.9556 36.242 61.9556 36.242L59.5259 34.7235C59.3235 36.8494 59.3235 38.8741 59.3235 41.2025L62.6642 42.4173C62.8667 42.4173 63.0691 42.8222 63.0691 43.4296C63.0691 43.6321 63.0691 43.6321 62.8667 43.8346C62.6642 44.1383 62.2593 44.037 62.0568 43.8346L59.6272 42.8222C59.8296 44.9482 60.0321 46.9728 60.437 49.5037L63.9802 50.3136C64.1827 50.3136 64.3852 50.7185 64.3852 51.3259C64.3852 51.5284 64.1827 51.7309 64.1827 51.7309C63.9802 51.9333 63.5753 51.9333 63.3728 51.9333L60.9432 51.3259C61.1457 52.3383 61.3481 53.4519 61.5506 54.6667C61.5506 54.6667 61.9556 55.8815 62.563 57.8049L65.9037 58.2099C65.9037 58.2099 66.1061 58.4123 66.1061 58.6148C66.1061 58.8173 66.1061 59.0198 65.9037 59.2222C65.9037 59.6272 65.2962 59.8296 64.8913 59.8296L63.0691 59.6272C63.6765 61.3482 64.5876 62.9679 65.4987 64.6889L68.8395 64.284C68.8395 64.284 69.6493 64.284 69.8518 65.0938C69.4469 65.7012 69.2444 66.1062 69.2444 66.1062L66.8148 66.5111C67.0173 66.7136 67.0173 66.9161 67.2197 67.1185L66.2075 68.1309C66.0049 67.9284 65.8024 67.7259 65.6001 67.5235L64.3852 69.9531C64.1827 70.1556 63.9802 70.358 63.7778 70.358C63.5753 70.358 63.5753 70.358 63.3728 70.1556C62.9679 69.9531 62.9679 69.3457 62.9679 69.3457L64.6889 65.8025C63.4741 63.9802 62.563 62.0568 61.7531 60.1333L59.9309 62.563C59.7284 62.7654 59.5259 62.7654 59.3235 62.7654C59.121 62.7654 58.9185 62.7654 58.716 62.563C58.5136 62.158 58.716 61.7531 58.716 61.5506L61.0444 58.4123C60.437 56.5901 60.0321 55.2741 60.0321 55.0716C59.8296 54.0593 59.6272 53.2494 59.4247 52.1358L57.7037 53.958C57.5012 54.1605 57.2988 54.1605 57.0963 54.1605C56.8938 54.1605 56.6914 54.1605 56.4889 53.958C56.2864 53.5531 56.4889 53.1482 56.4889 52.9457L58.9185 50.5161C58.5136 48.1877 58.1086 45.9605 58.1086 43.8346L56.3876 45.0494C56.1852 45.2519 55.9827 45.2519 55.7802 45.2519C55.5778 45.2519 55.5778 45.2519 55.5778 45.2519C55.3753 45.2519 55.3753 45.0494 55.3753 45.0494C55.1728 44.6444 55.3753 44.2395 55.3753 44.2395L57.5012 41.6074"/>
</svg>
