<?xml version="1.0" encoding="utf-8" ?>
<svg xmlns="http://www.w3.org/2000/svg" xmlns:xlink="http://www.w3.org/1999/xlink" width="84" height="84">
	<path fill="white" d="M42.1002 0C18.8449 0 0 18.8 0 42C0 65.2 18.8449 84 42.1002 84C65.1551 84 84 65.3 84 42.3C84 19.1 65.2554 0 42.1002 0"/>
	<path fill="#FFCF48" d="M42 3.2C20.4487 3.2 3.1074 20.5 3.1074 42C3.1074 63.5 20.6492 80.8 42 80.8C63.3508 80.8 80.8926 63.5 80.8926 42C80.8926 20.5 63.3508 3.2 42 3.2"/>
	<path fill="#2D1B0A" d="M42 81.8C20.0477 81.8 2.105 63.9 2.105 42C2.105 20.1 20.0477 2.2 42 2.2C63.9523 2.2 81.895 20.1 81.895 42C81.895 63.9 63.9523 81.8 42 81.8M42 4.2C21.1503 4.2 4.10977 21.2 4.10977 42C4.10977 62.8 21.1503 79.8 42 79.8C62.8496 79.8 79.8902 62.8 79.8902 42C79.8902 21.2 62.8496 4.2 42 4.2"/>
	<path fill="#FFEAC5" d="M49.0168 26.5C49.0168 21.4 53.1265 17 58.5394 17C63.6516 17 68.062 21.1 68.062 26.5C68.062 31.9 63.9524 36 58.5394 36C53.4272 35.8 49.0168 31.7 49.0168 26.5"/>
</svg>
