<?xml version="1.0" encoding="utf-8" ?>
<svg xmlns="http://www.w3.org/2000/svg" xmlns:xlink="http://www.w3.org/1999/xlink" width="82" height="82">
	<path fill="white" d="M41 0C18.3447 0 0 18.445 0 41C0 63.6553 18.445 82 41 82C63.6553 82 82 63.3545 82 40.7995C82 18.2445 63.555 0 41 0"/>
	<path fill="#2D1B0A" d="M2.60645 40.7995C2.60645 19.6481 19.8485 2.40595 41 2.40595C62.1516 2.40595 79.3938 19.6481 79.3938 40.7995C79.3938 61.9511 62.1516 79.1933 41 79.1933C19.8485 79.1933 2.60645 62.3521 2.60645 40.7995"/>
	<path fill="#F9DA9B" d="M28.7701 41.2005C28.7701 39.3961 30.2738 37.8924 32.0782 37.8924C33.8826 37.8924 35.3863 39.3961 35.3863 41.2005C35.3863 43.0049 33.8826 44.5086 32.0782 44.5086C30.374 44.5086 28.7701 43.1051 28.7701 41.2005"/>
	<path fill="#F9DA9B" d="M45.9119 41.2005C45.9119 39.3961 47.4156 37.8924 49.22 37.8924C51.0244 37.8924 52.5281 39.3961 52.5281 41.2005C52.5281 43.0049 51.0244 44.5086 49.22 44.5086C47.4156 44.5086 45.9119 43.1051 45.9119 41.2005"/>
</svg>
