<?xml version="1.0" encoding="utf-8" ?>
<svg xmlns="http://www.w3.org/2000/svg" xmlns:xlink="http://www.w3.org/1999/xlink" width="98" height="74">
	<path fill="white" d="M66.9317 0.30163L65.633 0L31.4679 0.402174L0 16.288L10.3894 35.894L23.8756 29.2582C24.475 29.0571 24.6748 29.3587 24.6748 29.7609L24.6748 74L74.2243 73.7989L73.525 29.4592C73.525 29.0571 73.8247 28.7554 74.2243 28.7554C74.2243 28.7554 74.3242 28.7554 74.4241 28.856L87.3109 35.9946L98 14.981L66.9317 0.30163"/>
	<path fill="#3BA7FF" d="M65.633 2.9158L93.9042 16.1875L86.0122 31.6712L76.2222 26.2419C75.3231 25.5381 74.5239 25.5381 74.1243 25.5381C72.0265 25.5381 70.4281 27.2473 70.4281 29.2582L71.1274 70.5816L27.6717 70.7826L27.6717 29.6604C27.6717 27.549 25.9735 25.9403 23.9755 25.9403C23.7757 25.9403 22.7767 25.9403 22.0775 26.6441L11.688 31.7718L4.0958 17.4946L31.8675 3.51906C32.0673 3.51906 32.0673 3.51906 32.367 3.31797L65.633 2.9158"/>
	<path fill="#2D1B0A" d="M26.7227 71.8886L26.7227 29.6603C26.7227 28.1522 25.524 26.9457 24.0255 26.9457C23.7258 26.9457 23.2263 27.0462 22.9266 27.3478L11.3384 33.0788L2.7472 16.9919L31.7176 2.41306L65.5831 1.8098L65.5831 2.81523L65.9827 1.8098L95.2528 15.6848L86.3619 32.9783L75.5729 26.9457C74.9735 26.443 74.474 26.443 74.1743 26.443C72.6758 26.443 71.4771 27.6495 71.4771 29.1576L72.1764 71.4864L26.7227 71.8886M24.0255 24.9348C26.6228 24.9348 28.7207 27.0462 28.7207 29.6603L28.7207 69.7772L70.1784 69.5761L69.4791 29.2582C69.4791 26.644 71.577 24.5326 74.1743 24.5326C74.5739 24.5326 75.6728 24.5326 76.7717 25.337L85.5627 30.2636L92.5556 16.6902L65.3833 3.92121L32.6167 4.32339C32.4169 4.42393 32.317 4.52447 32.1172 4.52447L5.44445 17.9973L12.1376 30.4647L21.528 25.8397C22.2273 25.2364 23.0265 24.9348 24.0255 24.9348"/>
	<path fill="#89C5E5" d="M34.2463 3.11683L63.6163 2.91574C64.0159 2.91574 64.2157 3.31791 64.0159 3.61954L49.3309 20.6114C49.1311 20.8124 48.7315 20.8124 48.5317 20.6114L33.7683 3.82063C33.6469 3.61954 33.7683 3.11683 34.2463 3.11683"/>
	<path fill="#2D1B0A" d="M48.9354 21.8179C48.5359 21.8179 48.0365 21.6168 47.8367 21.3152L33.1545 4.52443C32.7805 4.12226 32.6551 3.519 32.9547 3.01628C33.1545 2.51356 33.7538 2.11139 34.353 2.11139L63.7176 1.9103C64.3168 1.9103 64.8162 2.21193 65.1159 2.81519C65.3156 3.31791 65.2198 3.92117 64.9161 4.32334L50.2338 21.3152C49.8343 21.7174 49.3349 21.8179 48.9354 21.8179M35.4517 4.12226L48.9354 19.606L62.4191 4.02171L35.4517 4.12226"/>
	<path fill="white" d="M45.5535 42.5299C46.053 44.2391 46.7523 44.8424 47.6513 45.0435C48.5504 45.2446 49.5494 45.0435 49.949 44.8424C50.4485 44.6413 51.0479 44.1386 51.3476 43.4348C52.0468 41.7255 51.3476 40.0163 50.8481 39.5136C50.3486 39.0109 49.1498 38.3071 47.6513 38.6087C46.952 38.7092 46.2528 39.1114 45.7533 39.8152L44.3547 39.6141C44.3547 39.413 45.054 36.8994 46.053 32.1739L52.9459 32.1739L52.9459 33.8831L47.3516 33.8831C47.0519 35.3913 46.6524 36.4973 46.4526 37.6032C48.3506 36.6984 50.1488 37.2011 50.8481 37.5027C51.5474 37.7038 52.1468 38.2065 52.6462 38.9103C54.0448 41.2228 53.2456 43.8369 52.9459 44.3397C52.7461 45.0435 51.6473 46.4511 50.4485 46.8532C47.951 47.5571 46.3527 46.7527 45.5535 46.1494C44.8542 45.6467 44.1549 44.4402 43.8552 43.1331L45.5535 42.5299"/>
</svg>
