<?xml version="1.0" encoding="utf-8" ?>
<svg xmlns="http://www.w3.org/2000/svg" xmlns:xlink="http://www.w3.org/1999/xlink" width="86" height="86">
	<path fill="white" d="M0 43C0 19.2793 19.2793 0 43 0C66.7207 0 86 19.2793 86 43C86 66.7207 66.7207 86 43 86C19.2793 86 0 66.7207 0 43"/>
	<path fill="#FFCF48" d="M3.331 43C3.331 20.9953 20.9953 3.331 43 3.331C65.0047 3.331 82.669 20.9953 82.669 43C82.669 65.0047 65.0047 82.669 43 82.669C20.9953 82.669 3.331 65.1056 3.331 43"/>
	<path fill="#2D1B0A" d="M43 83.6784C20.5916 83.6784 2.3216 65.4084 2.3216 43C2.3216 20.5916 20.5916 2.3216 43 2.3216C65.4084 2.3216 83.6784 20.5916 83.6784 43C83.6784 65.4084 65.4084 83.6784 43 83.6784M43 4.34038C21.7018 4.34038 4.34038 21.7018 4.34038 43C4.34038 64.2981 21.7018 81.6596 43 81.6596C64.2981 81.6596 81.6596 64.2981 81.6596 43C81.6596 21.7018 64.2981 4.34038 43 4.34038"/>
	<path fill="#FCFCFC" d="M26.1432 43.0001C26.1432 33.7117 33.6127 26.1413 43 26.1413C52.3873 26.1413 59.8568 33.6107 59.8568 43.0001C59.8568 52.3854 52.3873 59.8587 43 59.8587C33.6127 60.0567 26.1432 52.3854 26.1432 43.0001"/>
	<path fill="#FCFCFC" d="M42.6972 60.3615C38.2559 60.3615 34.1174 58.6455 30.8873 55.5164C27.5563 52.1855 25.6385 47.7441 25.6385 43C25.6385 33.4108 33.4108 25.6385 43 25.6385C52.6902 25.6385 60.3615 33.2089 60.3615 43C60.3615 52.6902 52.7911 60.3615 43 60.3615C42.8991 60.3615 42.7981 60.3615 42.6972 60.3615M43 26.6479C34.0164 26.6479 26.6479 34.0164 26.6479 43C26.6479 47.5423 28.3638 51.6808 31.5939 54.8099C34.6221 57.8381 38.7606 59.4531 43 59.3521C52.1855 59.3521 59.3521 52.1855 59.3521 43C59.3521 33.8146 52.1855 26.6479 43 26.6479"/>
	<path fill="#303030" d="M44.4695 52.6397L42.1479 52.6397L42.1479 37.3979C41.4413 38.1044 40.8357 38.5082 39.8263 39.0129C38.9178 39.7195 38.0094 39.9214 37.3028 40.1232L37.3028 38.1044C38.615 37.3979 39.8263 36.7922 40.7347 36.0857C41.6432 35.1772 42.5516 34.2688 42.7535 33.3603L44.3685 33.3603L44.4695 52.6397"/>
	<path fill="#303030" d="M44.8732 52.9425L41.8451 52.9425L41.8451 38.2054C41.3404 38.6092 40.7347 39.0129 40.0282 39.3157C39.4225 39.8204 38.7159 40.0223 38.1103 40.2242C37.9084 40.3251 37.7066 40.3251 37.5047 40.426L37 37.9026C38.5141 37.0951 39.6244 36.4894 40.6338 35.7829C41.4413 34.9753 42.3497 34.0669 42.4507 33.3603L44.7723 33.0575L44.8732 52.9425M42.5516 52.2359L44.1666 52.2359L44.1666 33.865L43.1573 33.865C42.8544 34.7735 41.946 35.6819 41.1385 36.3885C40.1291 37.0951 39.0188 37.7007 37.8075 38.4073L37.8075 39.7195C37.8075 39.7195 37.9084 39.7195 37.9084 39.7195C38.5141 39.5176 39.1197 39.3157 39.7253 38.811C40.7347 38.3063 41.3404 37.9026 41.946 37.196L42.5516 52.2359"/>
</svg>
