<?xml version="1.0" encoding="utf-8" ?>
<svg xmlns="http://www.w3.org/2000/svg" xmlns:xlink="http://www.w3.org/1999/xlink" width="88" height="70">
	<path fill="#FCFCFC" d="M87.5977 13.3596L87.5977 12.3571C87.3965 10.9536 86.6923 9.75062 85.6863 9.04888C86.8935 7.8459 87.5977 6.64292 87.5977 5.43993C87.5977 4.73819 87.3965 4.23695 86.8935 3.53521C87.0947 3.33471 88 2.13173 88 1.93123L87.0947 0.227009L84.9822 0C84.781 0 82.3667 -0.173985 77.3369 0.527755C72.3071 1.42999 55.1051 5.74068 54.7027 6.04143L25.8317 11.9561L22.512 38.6222L44.2408 50.7523C44.2408 50.7523 46.6551 51.9553 56.9159 58.1707C67.6796 64.5866 74.6208 67.6943 74.822 67.8948L79.3488 70L78.6446 66.3911L81.2601 66.3911L79.8518 62.5816C79.6506 61.8799 79.1476 61.1781 78.4434 60.4764C80.1536 59.7746 80.8577 58.7722 81.0589 58.7722L81.5619 56.6669C81.3607 54.9627 80.3547 53.5592 79.4494 52.3563C81.5619 51.1533 82.7691 49.7498 83.4732 48.5468L83.6744 47.1433C83.4732 44.7374 82.2661 42.8326 81.2601 41.4292C84.0768 39.5244 85.284 36.918 85.284 36.7175L85.4851 35.314C85.284 32.908 84.0768 30.8028 82.8696 29.3993C85.284 27.4946 86.4911 25.3894 86.6923 23.8857L86.6923 22.8832C86.4911 20.9785 85.4851 19.2742 84.278 18.1715C86.8935 15.966 87.5977 13.7606 87.5977 13.3596"/>
	<path fill="#FCFCFC" d="M15.772 9.1545C10.6416 8.96529 0.582091 11.3706 0.03725 22.5954C-0.625062 33.5195 7.72441 38.3301 12.3518 39.0316L26.2341 41.2365L30.3586 10.6691L15.772 9.1545"/>
	<path fill="#2D1B0A" d="M16.5767 10.6644C16.476 10.6644 2.6944 10.0678 1.84115 22.4952C0.98427 34.9226 13.0559 37.3279 13.257 37.4281L22.4113 38.731L26.2339 11.972L16.5767 10.6644M20.7012 36.5261L13.5588 35.5239C13.1564 35.4237 3.19738 33.4193 3.90156 22.6956C4.50513 13.1746 13.8605 12.6735 15.9731 12.6735C16.1742 12.6735 16.3755 12.6735 16.3755 12.6735L23.9202 13.7759L20.7012 36.5261"/>
	<path fill="#2D1B0A" d="M85.5858 5.65807C85.5858 5.35741 85.5858 4.65586 84.3786 3.95431C84.3786 3.75387 84.5798 3.75387 84.5798 3.75387L87.3966 2.05011L84.0769 1.5225C83.775 1.5225 81.6626 1.34856 76.6328 2.05011C71.7036 3.05232 54.7029 7.36183 53.9986 7.56228L26.0329 13.0744L22.9144 37.328L43.939 48.7532C44.1403 48.7532 46.3533 49.7554 56.8154 56.1695C67.5791 62.5837 74.7215 65.6906 74.7215 65.6906L76.8339 66.5925L75.7273 63.7864C76.2303 63.5859 76.4315 63.5859 76.4315 63.5859L78.1416 63.5859L77.4376 61.8822C77.2364 60.9802 76.0292 59.7775 74.8221 58.5749C77.6387 58.0737 78.8458 56.6707 78.8458 56.6707L79.0471 55.6684C78.5441 53.7642 77.1357 51.86 75.9286 50.6574C79.55 49.6552 80.9584 47.0494 80.9584 46.849C80.8577 43.8423 79.2483 41.6375 78.0412 40.2344C81.3607 38.8313 83.071 35.7244 83.071 35.524C83.071 32.3169 81.3607 30.112 79.9524 28.7089C83.775 26.5041 84.6805 23.3972 84.6805 23.1968C84.3786 20.591 82.7691 18.6868 81.562 17.7848C84.8817 15.8806 85.5858 13.4753 85.5858 13.2749C85.0828 11.1702 83.8756 9.96758 82.9704 9.26604C84.6805 8.06338 85.5858 6.56006 85.5858 5.65807M78.5441 16.7826L76.4315 17.6846L78.3428 18.8873C78.3428 18.8873 81.4613 20.591 81.9643 23.1968C81.7632 23.8983 80.8577 26.3036 77.2364 27.5063L75.1238 28.2078L77.0351 29.6109C77.0351 29.6109 80.3549 32.0162 80.8577 35.3235C80.3549 36.2255 78.4435 38.6308 75.6267 39.3324L73.2124 39.8335L75.1238 41.2366C75.1238 41.2366 78.2422 43.6419 78.7452 46.9492C78.2422 47.6507 76.8339 49.5549 73.5143 49.5549L70.1946 49.5549L72.8102 51.6596C73.7154 52.3611 76.1298 54.4658 76.8339 56.37C76.1298 56.8711 74.7215 57.5726 72.1059 57.0715L67.7803 56.37L71.1 58.9757C72.1059 59.6773 73.313 60.6795 74.2185 61.5815C73.7154 61.5815 73.0113 61.5815 72.8102 61.381C69.4904 60.6795 64.4606 58.0737 58.0225 54.2653C47.5604 47.5505 45.1461 46.6485 45.1461 46.6485L25.1276 36.5262L27.7431 15.3795L53.9986 10.168C54.1999 9.86736 71.9047 5.55785 76.6328 4.65586C77.1357 4.45542 77.337 4.45542 77.84 4.45542L80.4555 5.15697C81.3607 5.35741 82.0649 5.65807 82.5679 5.85852C82.3668 6.2594 81.4613 7.26161 79.7513 7.96316L76.6328 9.16581L79.7513 10.3685C79.7513 10.3685 82.1656 11.2705 82.8698 13.1747C82.5679 13.6758 81.6626 15.58 78.5441 16.7826"/>
	<path fill="#E7E7F2" d="M60.6379 11.6713L50.3771 11.8717L25.5299 16.1812L50.5783 14.0766"/>
	<path fill="#E7E7F2" d="M27.2399 18.787L27.0387 20.1901L50.4776 18.9874C53.0931 18.787 59.833 17.2837 59.833 17.2837C58.1229 17.0832 50.4776 16.7826 50.4776 16.7826L27.2399 18.787"/>
	<path fill="#E7E7F2" d="M26.7369 22.4952L26.5358 23.5976L50.6789 25.3013C50.6789 25.3013 55.9099 25.5018 59.7325 25.3013L50.8801 23.3972L26.7369 22.4952"/>
	<path fill="#E7E7F2" d="M26.5359 26.2034L26.033 27.8069L49.4719 33.0184C49.4719 33.0184 54.7029 34.221 59.5315 34.221C59.5315 34.221 51.182 31.6153 50.1761 30.9138L26.5359 26.2034"/>
	<path fill="#E7E7F2" d="M25.6303 30.8135L25.3286 31.9159L47.5602 39.5327C47.5602 39.5327 55.4067 41.4369 58.0222 41.9381C58.0222 41.9381 51.7854 39.5327 48.2645 37.4281L25.6303 30.8135"/>
	<path fill="#E7E7F2" d="M24.8256 33.5195L24.3227 35.0228L48.2645 46.3478L53.6968 47.5505L48.2645 44.0427"/>
	<path fill="#5AC7D5" d="M23.6185 10.9697L28.8495 11.6712L25.0269 39.2321L19.7959 38.5305L23.6185 10.9697"/>
</svg>
