<?xml version="1.0" encoding="utf-8" ?>
<svg xmlns="http://www.w3.org/2000/svg" xmlns:xlink="http://www.w3.org/1999/xlink" width="88" height="88">
	<path fill="#FCFCFC" d="M19.5724 88C14.3262 88 9.38263 85.8856 5.64976 82.0595C2.01777 78.4348 0 73.4005 0 68.1648C0 62.8284 2.01777 57.8947 5.75064 54.1693L9.98796 49.9405C7.76842 47.7254 7.76842 44.8055 9.6853 42.9931L15.4359 37.254C16.3439 36.3478 17.5546 35.8444 18.7653 35.8444C19.9759 35.8444 21.1866 36.3478 22.0946 37.254L36.5216 23.46C35.311 22.2517 34.8065 21.0435 34.8065 19.8352C34.8065 18.627 35.311 17.4188 36.219 16.5126L41.7678 10.9748C42.6758 10.0686 43.8865 9.56522 45.0972 9.56522C46.3078 9.56522 47.5185 10.0686 48.4265 10.9748L54.278 5.73913C58.0109 2.01373 62.9544 0 68.3015 0C73.6486 0 78.5921 2.01373 82.325 5.73913C89.8917 13.2906 89.8917 26.0778 82.325 33.6293L77.4824 38.4622L79.3993 40.3753C80.4081 41.3822 81.0135 42.8924 80.8117 44.2014C80.7108 45.3089 80.1055 46.2151 79.1975 46.9199L73.8504 52.2563C73.0433 53.2632 71.9335 53.8673 70.5211 53.8673C69.3104 53.8673 68.0997 53.3638 67.1917 52.4577L65.2749 50.5446L50.0407 65.7483L51.554 67.2586C53.2691 68.9703 53.2691 71.5881 51.554 73.1991L45.1981 79.5423C44.2901 80.3478 43.2812 80.7506 42.2723 80.7506C41.1625 80.7506 40.0527 80.2471 39.2456 79.4416L37.7323 77.9314L33.495 82.1602C29.863 85.8856 24.8186 88 19.5724 88"/>
	<path fill="#7C7E7F" d="M7.8315 80.1214C1.37463 73.6774 1.37463 62.9039 7.8315 56.4599L56.4598 7.9291C62.9166 1.48517 73.7117 1.48517 80.1686 7.9291C86.6255 14.3731 86.6255 25.1465 80.1686 31.5905L31.5402 80.1214C24.7808 86.7667 14.2884 86.7667 7.8315 80.1214"/>
	<path fill="#2D1B0A" d="M19.5977 86.0869C19.4968 86.0869 19.4968 86.0869 19.3959 86.0869C14.7551 85.9863 10.4169 84.1739 7.08755 80.8512C0.32802 74.0046 0.32802 62.5263 7.08755 55.7803L55.7158 7.24941C62.5762 0.40273 74.0775 0.40273 80.837 7.24941C87.6975 14.0961 87.6975 25.5744 80.837 32.3203L32.2088 80.8512C28.7786 84.2746 24.3395 86.0869 19.5977 86.0869M68.3269 4.12813C64.2913 4.12813 60.2558 5.63843 57.2291 8.65902L8.60088 57.1899C2.54756 63.2311 2.54756 73.4004 8.60088 79.4416C11.5266 82.3615 15.3604 84.0732 19.3959 84.0732C23.6333 84.0732 27.6688 82.4622 30.7963 79.3409L79.4246 30.8101C85.4779 24.7689 85.4779 14.5995 79.4246 8.55834C76.4988 5.63843 72.3624 4.12813 68.3269 4.12813"/>
	<path fill="white" d="M43.3887 19.8082L45.1009 18.0996L71.1394 44.0858L69.4272 45.7945L43.3887 19.8082"/>
	<path fill="#2D1B0A" d="M41.2487 19.8081L45.101 15.9636L73.2796 44.0858L69.4273 47.9303L41.2487 19.8081"/>
	<path fill="white" d="M14.7661 44.5125L16.4783 42.8038L45.5843 71.8515L43.8722 73.5602L14.7661 44.5125"/>
	<path fill="#2D1B0A" d="M12.6261 44.5126L16.4784 40.668L47.7245 71.8516L43.8723 75.6961L12.6261 44.5126"/>
	<path fill="white" d="M59.8696 18.2941L71.2124 27.9055L59.8696 18.2941"/>
	<path fill="#2D1B0A" d="M57.7295 18.2941L60.7257 15.3039L73.3526 27.9055L70.3564 30.8957L57.7295 18.2941"/>
	<path fill="white" d="M15.7752 62.2828L27.118 71.8942L15.7752 62.2828"/>
	<path fill="#2D1B0A" d="M13.635 62.2828L16.6313 59.2926L29.2582 71.8942L26.2619 74.8844L13.635 62.2828"/>
	<path fill="white" d="M40.8598 23.5606L38.4385 21.1442C37.7323 20.4394 37.7323 19.4325 38.4385 18.7277L43.9874 13.1899C44.6936 12.4851 45.7025 12.4851 46.4087 13.1899L48.8301 15.6064C49.5363 16.3112 49.5363 17.3181 48.8301 18.0229L43.2812 23.5606C42.5749 24.2654 41.3643 24.2654 40.8598 23.5606"/>
	<path fill="#2D1B0A" d="M41.9696 25.5744C41.8687 25.5744 41.7678 25.5744 41.6669 25.5744C40.8598 25.4737 40.1536 25.1716 39.6492 24.5675L37.3287 22.2517C36.7234 21.6476 36.3199 20.8421 36.3199 19.9359C36.3199 19.0298 36.6225 18.3249 37.3287 17.6201L42.8776 12.0824C44.0883 10.8741 46.2069 10.8741 47.4175 12.0824L49.839 14.4988C51.1505 15.8078 51.1505 17.7208 49.839 19.0298L44.29 24.5675C43.6847 25.1716 42.8776 25.5744 41.9696 25.5744M45.198 14.1968C45.0972 14.1968 45.0972 14.1968 45.0972 14.1968L39.5483 19.7346C39.4474 19.8352 39.4474 19.9359 39.5483 20.0366L42.0705 22.5538C42.1714 22.5538 42.1714 22.5538 42.2723 22.4531L47.8212 16.9153C47.9221 16.8146 47.9221 16.714 47.8212 16.6133L45.3998 14.1968C45.2989 14.1968 45.2989 14.1968 45.198 14.1968"/>
	<path fill="white" d="M14.5279 50.3559L11.9048 47.738C11.1986 47.0332 11.1986 46.0263 11.9048 45.3215L17.6554 39.5824C18.3617 38.8776 19.3705 38.8776 20.0767 39.5824L22.6998 42.2002C23.4061 42.905 23.4061 43.9119 22.6998 44.6167L16.9492 50.3559C16.243 50.7586 15.335 50.7586 14.5279 50.3559"/>
	<path fill="#2D1B0A" d="M15.7386 52.1555C15.1332 52.1555 14.427 51.9543 13.8217 51.6521L10.795 48.7323C9.48346 47.4233 9.48346 45.5103 10.795 44.2014L16.5457 38.4622C17.7563 37.254 19.875 37.254 21.0856 38.4622L23.7087 41.0801C25.0203 42.389 25.0203 44.302 23.7087 45.611L17.8572 51.4507C17.151 51.9543 16.4448 52.1555 15.7386 52.1555M15.4359 49.0343C15.6377 49.1349 15.9403 49.1349 16.1421 49.0343L21.6909 43.4965C21.7919 43.3959 21.7919 43.2952 21.6909 43.1945L19.0679 40.5766C18.967 40.476 18.8661 40.476 18.7652 40.5766L13.0146 46.3158C12.9137 46.4165 12.9137 46.5172 13.0146 46.6178L15.4359 49.0343"/>
	<path fill="white" d="M69.5121 50.4439L66.889 47.826C66.1828 47.1213 66.1828 46.1144 66.889 45.7116L72.6397 39.9725C73.3459 39.2677 74.3548 39.2677 74.7583 39.9725L77.3815 42.5904C78.0877 43.2952 78.0877 44.302 77.3815 44.7048L71.6308 50.4439C71.2272 51.1487 70.2184 51.1487 69.5121 50.4439"/>
	<path fill="#2D1B0A" d="M70.6219 52.5583C69.8148 52.5583 69.0077 52.2562 68.4024 51.5514L65.7793 48.9336C65.0731 48.2288 64.6695 47.2219 64.8193 46.3158C64.9722 45.6109 65.3757 45.0068 65.981 44.6041L71.6308 38.9656C72.337 38.2608 73.3459 37.8581 74.2539 38.0076C74.9601 38.1601 75.5654 38.5629 75.969 39.167L78.4912 41.6842C79.1974 42.389 79.601 43.3958 79.3992 44.302C79.2983 45.0068 78.8947 45.6109 78.2894 46.0137L72.7406 51.5514C72.337 52.1555 71.7317 52.5583 71.0255 52.659C70.9246 52.5583 70.8237 52.5583 70.6219 52.5583M67.8979 46.8192L70.521 49.437L76.2716 43.6979L73.6486 41.0801L67.8979 46.8192"/>
	<path fill="white" d="M41.6291 77.5286L38.5015 74.4073C37.9971 73.9039 37.9971 73.1991 38.5015 72.6956L44.7566 66.4531C45.2611 65.9496 45.9673 65.9496 46.4717 66.4531L49.5993 69.5743C50.1037 70.0778 50.1037 70.7826 49.5993 71.286L43.3442 77.5286C42.7389 78.032 42.0326 78.032 41.6291 77.5286"/>
	<path fill="#2D1B0A" d="M42.4362 79.341C42.3353 79.341 42.2344 79.341 42.1335 79.341C41.5282 79.2402 40.9229 78.9381 40.5193 78.5354L37.3918 75.4141C36.282 74.3066 36.282 72.6956 37.3918 71.5881L43.6469 65.3455C44.7566 64.238 46.3709 64.238 47.4806 65.3455L50.6081 68.4668C51.7179 69.5743 51.7179 71.1853 50.6081 72.2929L44.2522 78.6361C43.7478 79.1395 43.0415 79.341 42.4362 79.341M39.8131 73.5011L42.5371 76.2197L48.3886 70.3798L45.6646 67.6613L39.8131 73.5011"/>
</svg>
