<?xml version="1.0" encoding="utf-8" ?>
<svg xmlns="http://www.w3.org/2000/svg" xmlns:xlink="http://www.w3.org/1999/xlink" width="78" height="108">
	<path fill="white" d="M77.3263 27.6585C75.3957 13.3734 64.6249 6.38274 60.154 4.05253C57.4105 2.53283 51.8218 0 44.8107 0C40.6446 0 36.4785 0.91182 32.7189 2.73546C20.7287 8.51032 13.7175 16.4128 8.73859 30.1914C3.14996 46.0976 12.0918 57.0394 12.3966 57.4447L15.3433 59.2683C16.4611 61.2946 17.5788 63.5235 17.3756 65.955C17.1723 68.0826 15.953 72.5403 11.1773 81.7598C11.0756 82.0638 10.8724 82.2664 10.7708 82.469C10.1611 83.4822 8.63697 85.7111 7.21441 88.0413C4.06446 92.803 1.82901 96.349 1.11773 97.666L0 99.591L1.62578 101.212C2.33706 102.023 3.65801 103.34 6.90958 105.062C10.1611 106.784 12.9047 107.595 14.9369 107.595L17.0707 107.595L17.782 105.67C18.8997 102.732 22.761 93.2083 24.59 89.257C26.3174 85.2045 31.1947 76.6942 34.2431 74.9719C36.2753 73.3508 38.0027 72.5403 40.543 72.3377L43.0833 73.6548C44.4042 73.6548 44.9123 73.6548 45.5219 73.6548C56.0895 73.6548 64.4217 68.4878 71.0264 57.7486C77.3263 46.8068 79.1553 40.6266 77.3263 27.6585"/>
	<path fill="white" d="M59.2395 85.7112C57.3088 85.7112 55.4798 86.2178 53.8541 87.0283C51.8218 85.002 48.9767 83.7862 45.9284 83.7862C39.7301 83.7862 34.7511 88.7506 34.7511 94.9307C34.7511 101.111 39.7301 106.075 45.9284 106.075C47.7574 106.075 49.5864 105.569 51.2122 104.758C53.2444 106.784 56.0895 108 59.1379 108C65.3362 108 70.3151 103.036 70.3151 96.8556C70.3151 90.6756 65.4378 85.7112 59.2395 85.7112"/>
	<path fill="#F5FCFF" d="M32.5156 72.5403C28.3495 74.9717 23.0657 85.0018 21.6431 88.3451C19.8141 92.3976 15.7497 102.124 14.7336 104.961C13.9207 104.961 11.8884 104.758 8.0272 102.732C4.67403 100.908 3.86113 99.6922 3.5563 99.4897C4.77564 97.2607 11.6852 87.028 13.311 84.2926C13.5142 83.6848 19.6109 72.6415 20.2206 66.5628C20.5254 63.2194 19.2045 60.3827 17.7819 57.9511L40.238 69.6021C36.8849 69.7034 34.6494 70.9193 32.5156 72.5403"/>
	<path fill="#2D1B0A" d="M15.3434 105.872C13.4127 105.872 11.2789 105.467 7.51928 103.542C4.36933 101.82 3.2516 100.604 2.84516 100.199L2.64193 98.9831C3.35321 97.5648 6.19834 93.3096 8.73862 89.4597C10.2628 87.1295 11.787 84.7993 12.3966 83.7861C12.4982 83.6848 12.5999 83.3809 12.8031 82.9756C16.7659 75.2758 18.8998 69.7036 19.2046 66.3603C19.5094 63.2195 18.1885 60.6867 16.8675 58.3565L15.1401 55.3171L43.8962 70.2102L40.3398 70.5141C37.2914 70.7167 35.2592 71.8312 33.1254 73.3509C29.0609 75.6811 23.8787 85.6098 22.5578 88.7505C20.7288 92.7017 16.7659 102.326 15.6482 105.265M4.77578 99.1858C5.28383 99.6923 6.40156 100.604 8.43379 101.719C11.1773 103.137 12.9047 103.644 13.9208 103.745C15.3434 100.199 18.8998 91.486 20.6272 87.8387C21.7449 85.3058 27.1303 74.4653 31.906 71.6285C33.3286 70.6154 34.9544 69.6023 37.0882 68.9944L20.1191 60.1801C20.932 62.1051 21.4401 64.1314 21.2368 66.5629C20.7288 71.9325 16.1563 80.9494 14.6321 83.8875C14.4289 84.2927 14.3273 84.4953 14.2256 84.5966C13.5144 85.8124 12.0918 87.94 10.3644 90.4728C8.33218 93.6135 5.8935 97.4634 4.77578 99.1858"/>
	<path fill="#4C4C4C" d="M67.6732 56.7355C61.6781 66.7655 53.9556 71.3246 43.7945 71.1284L13.9207 55.5197C12.5998 53.4935 7.01115 44.6792 11.2788 31.9137C16.7659 17.0207 24.0819 11.0432 33.9382 5.97751C41.6607 2.43154 49.8912 2.8368 58.3249 7.19327C62.3894 9.42216 72.2457 15.9062 73.9731 28.3678C75.3957 40.1201 74.1763 45.895 67.6732 56.7355"/>
	<path fill="#FF6F64" d="M14.5305 55.7222C14.5305 55.7222 6.29995 45.8948 11.3805 31.407C16.6643 17.0205 23.6756 10.5365 33.8367 5.6735C43.6929 0.91177 53.1428 3.95117 58.4267 6.88926C63.5071 9.5234 72.4491 16.0075 74.0748 28.2663C75.8021 40.5252 74.0748 46.0975 68.0798 56.4314C61.7799 66.7654 54.0574 71.3245 43.6929 70.8559L14.5305 55.7222"/>
	<path fill="#2D1B0A" d="M45.2171 71.831C44.7091 71.831 44.201 71.831 43.5914 71.831L13.8192 56.5327C13.4128 55.9248 5.18222 45.8948 10.3644 31.0018C16.0546 15.6021 23.6755 9.32071 33.3286 4.6603C44.6075 -0.81062 54.9718 3.74848 58.8331 5.87606C63.1008 8.10495 73.2619 14.6903 74.9893 27.9624C76.7167 40.4239 74.8877 46.3001 68.8926 56.7353C62.7959 67.0693 55.1751 71.831 45.2171 71.831M43.9978 69.8048C53.8541 70.21 61.1701 65.7522 67.2668 55.9248C73.1603 45.7935 74.7861 40.4239 73.1603 28.4689C71.5345 16.1087 62.0846 9.92859 58.0202 7.80101C54.3622 5.77474 44.7091 1.6209 34.3447 6.58525C25.0981 11.043 17.782 17.0205 12.3966 31.711C7.92573 44.4764 14.3272 53.5946 15.2417 54.9117L43.9978 69.8048"/>
	<path fill="#FAFDFF" d="M46.03 103.036C41.5591 103.036 37.9011 99.3884 37.9011 94.9306C37.9011 90.4728 41.5591 86.8255 46.03 86.8255C48.9767 86.8255 51.6186 88.4465 53.0412 90.7767C51.8219 92.4991 51.009 94.5253 51.009 96.8555C51.009 98.1726 51.3138 99.4897 51.7203 100.705C50.1961 102.124 48.2655 103.036 46.03 103.036"/>
	<path fill="#2D1B0A" d="M46.03 104.049C40.9494 104.049 36.8849 99.9963 36.8849 94.9306C36.8849 89.8649 40.9494 85.8124 46.03 85.8124C49.2815 85.8124 52.2282 87.5347 53.854 90.2702L53.7524 91.3846C52.5331 93.0057 51.9234 94.8293 51.9234 96.8556C51.9234 98.0713 52.1266 99.1858 52.6348 100.3L52.3298 101.415C50.7041 103.137 48.3671 104.049 46.03 104.049M46.03 87.8387C42.0671 87.8387 38.9172 90.9794 38.9172 94.9306C38.9172 98.8818 42.0671 102.022 46.03 102.022C47.6557 102.022 49.2815 101.415 50.6024 100.402C50.196 99.2871 49.9928 98.0713 49.9928 96.8556C49.9928 94.728 50.6024 92.6004 51.8218 90.7767C50.3993 88.9531 48.2654 87.8387 46.03 87.8387"/>
	<path fill="#FFCF48" d="M59.2395 104.961C56.1911 104.961 53.5492 103.441 52.2283 101.009C51.8218 100.3 51.517 99.4897 51.3138 98.6792C51.1106 98.0713 51.1106 97.4634 51.1106 96.8555C51.1106 95.5385 51.4154 94.2214 52.0251 93.1069C52.4315 92.3978 52.9396 91.6886 53.5492 91.0807C54.9718 89.6623 57.004 88.7505 59.2395 88.7505C63.7104 88.7505 67.3684 92.3978 67.3684 96.8555C67.3684 101.313 63.7104 104.961 59.2395 104.961"/>
	<path fill="#2D1B0A" d="M59.2395 105.974C55.8863 105.974 52.9396 104.353 51.3138 101.516C50.8057 100.705 50.5009 99.7937 50.2977 98.8819C50.0945 98.1727 50.0945 97.5647 50.0945 96.8555C50.0945 95.4372 50.3993 94.0188 51.1106 92.7017C51.517 91.8912 52.1267 91.0807 52.7364 90.4728C54.4637 88.7505 56.8008 87.8387 59.1379 87.8387C64.2185 87.8387 68.283 91.8912 68.283 96.9569C68.283 102.023 64.3201 105.974 59.2395 105.974M59.2395 89.7636C57.3089 89.7636 55.5815 90.4728 54.2605 91.7899C53.7525 92.2964 53.346 92.9043 52.9396 93.6135C52.4315 94.6266 52.1267 95.7411 52.1267 96.8555C52.1267 97.3621 52.2283 97.97 52.3299 98.4766C52.5331 99.1858 52.7364 99.895 53.1428 100.503C54.3621 102.63 56.6992 103.947 59.3411 103.947C63.304 103.947 66.4538 100.807 66.4538 96.8555C66.4538 92.9043 63.2024 89.7636 59.2395 89.7636"/>
</svg>
