<?xml version="1.0" encoding="utf-8" ?>
<svg xmlns="http://www.w3.org/2000/svg" xmlns:xlink="http://www.w3.org/1999/xlink" width="90" height="90">
	<path fill="#FCFCFC" d="M45 0C20.1794 0 0 20.1568 0 45C0 57.2452 4.64126 68.6338 13.2175 76.9989C21.491 85.2632 32.6906 90 44.4955 90C44.6973 90 44.6973 90 45 90C69.8206 90 90 69.8432 90 45C90 20.1568 69.7197 0 45 0"/>
	<path fill="#131411" d="M44.6973 87.8332C33.4977 87.8332 22.9037 83.3988 14.9327 75.5375C6.861 67.4748 2.11885 56.4895 2.11885 45C2.11885 21.3159 21.3902 2.06615 45.101 2.06615C68.8117 2.06615 88.083 21.3159 88.083 45C88.083 68.6842 68.8117 87.934 45.101 87.934C45 87.8332 44.6973 87.8332 44.6973 87.8332M45 4.58575C22.7019 4.58575 4.43948 22.6261 4.43948 45.1008C4.43948 56.0863 8.67715 66.3662 16.4463 74.1266C24.1144 81.7861 34.1031 85.7167 45 85.7167C67.2982 85.7167 85.5606 67.6764 85.5606 45.2017C85.5606 22.7269 67.5001 4.58575 45 4.58575"/>
	<path fill="#EEE" d="M40.9137 8.57329C40.9137 6.55095 42.7298 4.3337 44.8487 4.3337C47.1693 4.3337 49.0863 6.14781 49.0863 8.57329C49.0863 10.8846 47.2702 12.7995 44.8487 12.7995C42.7298 13.0011 40.9137 10.8846 40.9137 8.57329"/>
	<path fill="#EEE" d="M40.9137 17.8387C40.9137 15.823 42.7298 13.6058 44.8487 13.6058C47.1693 13.6058 49.0863 15.4199 49.0863 17.8387C49.0863 20.2575 47.2702 22.0716 44.8487 22.0716C42.7298 21.7693 40.9137 20.1567 40.9137 17.8387"/>
	<path fill="#EEE" d="M40.9137 26.9093C40.9137 24.8936 42.7298 22.6764 44.8487 22.6764C47.1693 22.6764 49.0863 24.4905 49.0863 26.9093C49.0863 29.2273 47.2702 31.1422 44.8487 31.1422C42.7298 31.0414 40.9137 28.925 40.9137 26.9093"/>
	<path fill="#EEE" d="M40.9137 35.9798C40.9137 33.9641 42.7298 31.7469 44.8487 31.7469C47.1693 31.7469 49.0863 33.561 49.0863 35.9798C49.0863 38.2978 47.2702 40.2127 44.8487 40.2127C42.7298 40.0112 40.9137 38.197 40.9137 35.9798"/>
	<path fill="#EEE" d="M40.9137 45.252C40.9137 43.2363 42.7298 41.0191 44.8487 41.0191C47.1693 41.0191 49.0863 42.8332 49.0863 45.252C49.0863 47.57 47.2702 49.4849 44.8487 49.4849C42.7298 49.1826 40.9137 47.2677 40.9137 45.252"/>
	<path fill="#EEE" d="M40.9137 54.0268C40.9137 52.0045 42.7298 49.7872 44.8487 49.7872C47.1693 49.7872 49.0863 51.6013 49.0863 54.0268C49.0863 56.3382 47.2702 58.2531 44.8487 58.2531C42.7298 58.4546 40.9137 56.3382 40.9137 54.0268"/>
	<path fill="#EEE" d="M40.9137 62.9969C40.9137 60.9743 42.7298 58.757 44.8487 58.757C47.1693 58.757 49.0863 60.5711 49.0863 62.9969C49.0863 65.4088 47.2702 67.2229 44.8487 67.2229C42.7298 67.4244 40.9137 65.4088 40.9137 62.9969"/>
	<path fill="#EEE" d="M40.9137 72.5644C40.9137 70.5487 42.7298 68.3315 44.8487 68.3315C47.1693 68.3315 49.0863 70.1456 49.0863 72.5644C49.0863 74.8824 47.2702 76.7973 44.8487 76.7973C42.7298 76.495 40.9137 74.8824 40.9137 72.5644"/>
	<path fill="#EEE" d="M40.9137 81.4334C40.9137 79.4177 42.7298 77.2005 44.8487 77.2005C47.1693 77.2005 49.0863 79.0146 49.0863 81.4334C49.0863 83.7514 47.2702 85.6663 44.8487 85.6663C42.7298 85.5655 40.9137 83.7514 40.9137 81.4334"/>
	<path fill="#EEE" d="M30.2691 12.6988C30.2691 10.6831 32.0852 8.46584 34.2041 8.46584C36.5247 8.46584 38.4417 10.2799 38.4417 12.6988C38.4417 15.1176 36.6256 16.9317 34.2041 16.9317C32.1861 16.9317 30.2691 15.0168 30.2691 12.6988"/>
	<path fill="#EEE" d="M30.2691 21.7693C30.2691 19.7536 32.0852 17.5364 34.2041 17.5364C36.5247 17.5364 38.4417 19.3505 38.4417 21.7693C38.4417 24.0873 36.6256 26.0022 34.2041 26.0022C32.1861 26.0022 30.2691 24.0873 30.2691 21.7693"/>
	<path fill="#EEE" d="M30.2691 31.0414C30.2691 29.0257 32.0852 26.8085 34.2041 26.8085C36.5247 26.8085 38.4417 28.6226 38.4417 31.0414C38.4417 33.3594 36.6256 35.2743 34.2041 35.2743C32.1861 34.972 30.2691 33.1579 30.2691 31.0414"/>
	<path fill="#EEE" d="M30.2691 40.0112C30.2691 37.9955 32.0852 35.7783 34.2041 35.7783C36.5247 35.7783 38.4417 37.5924 38.4417 40.0112C38.4417 42.3292 36.6256 44.2441 34.2041 44.2441C32.1861 44.0426 30.2691 42.2284 30.2691 40.0112"/>
	<path fill="#EEE" d="M30.2691 49.1825C30.2691 47.1668 32.0852 44.9496 34.2041 44.9496C36.5247 44.9496 38.4417 46.7637 38.4417 49.1825C38.4417 51.5005 36.6256 53.4154 34.2041 53.4154C32.1861 53.3146 30.2691 51.1982 30.2691 49.1825"/>
	<path fill="#EEE" d="M30.2691 58.2531C30.2691 56.2374 32.0852 54.0202 34.2041 54.0202C36.5247 54.0202 38.4417 55.8343 38.4417 58.2531C38.4417 60.5711 36.6256 62.486 34.2041 62.486C32.1861 62.3852 30.2691 60.4703 30.2691 58.2531"/>
	<path fill="#EEE" d="M30.2691 67.2228C30.2691 65.2071 32.0852 62.9899 34.2041 62.9899C36.5247 62.9899 38.4417 64.804 38.4417 67.2228C38.4417 69.6416 36.6256 71.4557 34.2041 71.4557C32.1861 71.4557 30.2691 69.5408 30.2691 67.2228"/>
	<path fill="#EEE" d="M30.2691 76.5016C30.2691 74.4793 32.0852 72.262 34.2041 72.262C36.5247 72.262 38.4417 74.0761 38.4417 76.5016C38.4417 78.813 36.6256 80.7279 34.2041 80.7279C32.1861 80.9294 30.2691 78.813 30.2691 76.5016"/>
	<path fill="#EEE" d="M31.1771 82.9451C31.8833 82.0381 33.195 81.3326 34.4058 81.3326C36.4237 81.3326 38.1389 82.9451 38.3407 84.86C34.0022 84.1545 31.1771 82.9451 31.1771 82.9451"/>
	<path fill="#EEE" d="M27.7466 8.56662C27.7466 11.0862 25.9305 12.7995 23.8116 12.7995C23.1054 12.7995 22.1973 12.598 21.792 12.0941C21.792 11.9933 26.0314 9.27211 27.7466 8.56662"/>
	<path fill="#EEE" d="M19.4731 17.8387C19.4731 15.823 21.2892 13.6058 23.4081 13.6058C25.7287 13.6058 27.6457 15.4199 27.6457 17.8387C27.6457 20.2575 25.8296 22.0716 23.4081 22.0716C21.3901 21.7693 19.4731 20.1567 19.4731 17.8387"/>
	<path fill="#EEE" d="M19.4731 26.9093C19.4731 24.8936 21.2892 22.6764 23.4081 22.6764C25.7287 22.6764 27.6457 24.4905 27.6457 26.9093C27.6457 29.2273 25.8296 31.1422 23.4081 31.1422C21.3901 31.0414 19.4731 28.925 19.4731 26.9093"/>
	<path fill="#EEE" d="M19.4731 35.9798C19.4731 33.9641 21.2892 31.7469 23.4081 31.7469C25.7287 31.7469 27.6457 33.561 27.6457 35.9798C27.6457 38.2978 25.8296 40.2127 23.4081 40.2127C21.3901 40.0112 19.4731 38.197 19.4731 35.9798"/>
	<path fill="#EEE" d="M19.4731 45.252C19.4731 43.2363 21.2892 41.0191 23.4081 41.0191C25.7287 41.0191 27.6457 42.8332 27.6457 45.252C27.6457 47.57 25.8296 49.4849 23.4081 49.4849C21.3901 49.1826 19.4731 47.2677 19.4731 45.252"/>
	<path fill="#EEE" d="M19.4731 54.0268C19.4731 52.0045 21.2892 49.7872 23.4081 49.7872C25.7287 49.7872 27.6457 51.6013 27.6457 54.0268C27.6457 56.3382 25.8296 58.2531 23.4081 58.2531C21.3901 58.4546 19.4731 56.3382 19.4731 54.0268"/>
	<path fill="#EEE" d="M19.4731 62.9969C19.4731 60.9743 21.2892 58.757 23.4081 58.757C25.7287 58.757 27.6457 60.5711 27.6457 62.9969C27.6457 65.4088 25.8296 67.2229 23.4081 67.2229C21.3901 67.4244 19.4731 65.4088 19.4731 62.9969"/>
	<path fill="#EEE" d="M19.4731 72.5644C19.4731 70.5487 21.2892 68.3315 23.4081 68.3315C25.7287 68.3315 27.6457 70.1456 27.6457 72.5644C27.6457 74.8824 25.8296 76.7973 23.4081 76.7973C21.3901 76.495 19.4731 74.8824 19.4731 72.5644"/>
	<path fill="#EEE" d="M21.3901 78.2083C22.0964 77.7044 22.8027 77.5028 23.4081 77.5028C25.426 77.5028 27.3431 79.3169 27.3431 81.7357C27.3431 81.9373 27.3431 82.2396 27.3431 82.2396C24.4171 80.2239 21.3901 78.2083 21.3901 78.2083"/>
	<path fill="#EEE" d="M14.2264 18.7458C15.8408 19.4512 16.9507 20.7614 16.9507 22.6763C16.9507 24.9944 15.1345 26.9092 12.713 26.9092C11.3004 26.9092 10.3924 26.2038 9.48429 25.2967C11.4013 21.9708 14.2264 18.7458 14.2264 18.7458"/>
	<path fill="#EEE" d="M8.8789 31.7469C8.8789 29.7312 10.695 27.514 12.8139 27.514C15.1345 27.514 17.0516 29.3281 17.0516 31.7469C17.0516 34.0649 15.2354 35.9798 12.8139 35.9798C10.695 35.6775 8.8789 33.7626 8.8789 31.7469"/>
	<path fill="#EEE" d="M8.8789 40.8175C8.8789 38.8018 10.695 36.5846 12.8139 36.5846C15.1345 36.5846 17.0516 38.3987 17.0516 40.8175C17.0516 43.1355 15.2354 45.0504 12.8139 45.0504C10.695 44.9496 8.8789 42.934 8.8789 40.8175"/>
	<path fill="#EEE" d="M8.8789 49.7872C8.8789 47.7715 10.695 45.5543 12.8139 45.5543C15.1345 45.5543 17.0516 47.3684 17.0516 49.7872C17.0516 52.206 15.2354 54.0201 12.8139 54.0201C10.695 54.0201 8.8789 52.206 8.8789 49.7872"/>
	<path fill="#EEE" d="M8.8789 58.9586C8.8789 56.9429 10.695 54.7257 12.8139 54.7257C15.1345 54.7257 17.0516 56.5398 17.0516 58.9586C17.0516 61.3774 15.2354 63.1915 12.8139 63.1915C10.695 62.99 8.8789 61.1758 8.8789 58.9586"/>
	<path fill="#EEE" d="M9.98875 65.4087C10.695 64.7032 11.8049 63.9978 13.0157 63.9978C15.0336 63.9978 17.2533 65.8119 17.2533 68.2307C17.2533 70.0448 16.3453 71.2542 14.7309 72.1612C11.9058 69.0369 9.98875 65.4087 9.98875 65.4087"/>
	<path fill="#EEE" d="M51.5583 12.6988C51.5583 10.6831 53.3744 8.46584 55.4933 8.46584C57.8139 8.46584 59.7309 10.2799 59.7309 12.6988C59.7309 15.1176 57.9148 16.9317 55.4933 16.9317C53.4753 16.9317 51.5583 15.0168 51.5583 12.6988"/>
	<path fill="#EEE" d="M51.5583 21.7693C51.5583 19.7536 53.3744 17.5364 55.4933 17.5364C57.8139 17.5364 59.7309 19.3505 59.7309 21.7693C59.7309 24.0873 57.9148 26.0022 55.4933 26.0022C53.4753 26.0022 51.5583 24.0873 51.5583 21.7693"/>
	<path fill="#EEE" d="M51.5583 31.0414C51.5583 29.0257 53.3744 26.8085 55.4933 26.8085C57.8139 26.8085 59.7309 28.6226 59.7309 31.0414C59.7309 33.3594 57.9148 35.2743 55.4933 35.2743C53.4753 34.972 51.5583 33.1579 51.5583 31.0414"/>
	<path fill="#EEE" d="M51.5583 40.0112C51.5583 37.9955 53.3744 35.7783 55.4933 35.7783C57.8139 35.7783 59.7309 37.5924 59.7309 40.0112C59.7309 42.3292 57.9148 44.2441 55.4933 44.2441C53.4753 44.0426 51.5583 42.2284 51.5583 40.0112"/>
	<path fill="#EEE" d="M51.5583 49.1825C51.5583 47.1668 53.3744 44.9496 55.4933 44.9496C57.8139 44.9496 59.7309 46.7637 59.7309 49.1825C59.7309 51.5005 57.9148 53.4154 55.4933 53.4154C53.4753 53.3146 51.5583 51.1982 51.5583 49.1825"/>
	<path fill="#EEE" d="M51.5583 58.2531C51.5583 56.2374 53.3744 54.0202 55.4933 54.0202C57.8139 54.0202 59.7309 55.8343 59.7309 58.2531C59.7309 60.5711 57.9148 62.486 55.4933 62.486C53.4753 62.3852 51.5583 60.4703 51.5583 58.2531"/>
	<path fill="#EEE" d="M51.5583 67.2228C51.5583 65.2071 53.3744 62.9899 55.4933 62.9899C57.8139 62.9899 59.7309 64.804 59.7309 67.2228C59.7309 69.6416 57.9148 71.4557 55.4933 71.4557C53.4753 71.4557 51.5583 69.5408 51.5583 67.2228"/>
	<path fill="#EEE" d="M51.5583 76.5016C51.5583 74.4793 53.3744 72.262 55.4933 72.262C57.8139 72.262 59.7309 74.0761 59.7309 76.5016C59.7309 78.813 57.9148 80.7279 55.4933 80.7279C53.4753 80.9294 51.5583 78.813 51.5583 76.5016"/>
	<path fill="#EEE" d="M51.5583 84.86C51.7601 83.0459 53.5762 81.3326 55.4932 81.3326C56.9058 81.3326 58.0157 82.0381 58.7219 82.9451C57.0067 83.953 51.7601 84.86 51.5583 84.86"/>
	<path fill="#EEE" d="M62.2533 8.55522C62.7578 8.36506 66.6927 10.8847 68.3071 12.0941C67.6008 12.598 66.8946 12.7995 66.2892 12.7995C64.1703 12.6988 62.2533 10.8847 62.2533 8.55522"/>
	<path fill="#EEE" d="M62.2534 17.8387C62.2534 15.823 64.0695 13.6058 66.1884 13.6058C68.509 13.6058 70.426 15.4199 70.426 17.8387C70.426 20.2575 68.6099 22.0716 66.1884 22.0716C64.1704 21.7693 62.2534 20.1567 62.2534 17.8387"/>
	<path fill="#EEE" d="M62.2534 26.9093C62.2534 24.8936 64.0695 22.6764 66.1884 22.6764C68.509 22.6764 70.426 24.4905 70.426 26.9093C70.426 29.2273 68.6099 31.1422 66.1884 31.1422C64.1704 31.0414 62.2534 28.925 62.2534 26.9093"/>
	<path fill="#EEE" d="M62.2534 35.9798C62.2534 33.9641 64.0695 31.7469 66.1884 31.7469C68.509 31.7469 70.426 33.561 70.426 35.9798C70.426 38.2978 68.6099 40.2127 66.1884 40.2127C64.1704 40.0112 62.2534 38.197 62.2534 35.9798"/>
	<path fill="#EEE" d="M62.2534 45.252C62.2534 43.2363 64.0695 41.0191 66.1884 41.0191C68.509 41.0191 70.426 42.8332 70.426 45.252C70.426 47.57 68.6099 49.4849 66.1884 49.4849C64.1704 49.1826 62.2534 47.2677 62.2534 45.252"/>
	<path fill="#EEE" d="M62.2534 54.0268C62.2534 52.0045 64.0695 49.7872 66.1884 49.7872C68.509 49.7872 70.426 51.6013 70.426 54.0268C70.426 56.3382 68.6099 58.2531 66.1884 58.2531C64.1704 58.4546 62.2534 56.3382 62.2534 54.0268"/>
	<path fill="#EEE" d="M62.2534 62.9969C62.2534 60.9743 64.0695 58.757 66.1884 58.757C68.509 58.757 70.426 60.5711 70.426 62.9969C70.426 65.4088 68.6099 67.2229 66.1884 67.2229C64.1704 67.4244 62.2534 65.4088 62.2534 62.9969"/>
	<path fill="#EEE" d="M62.2534 72.5644C62.2534 70.5487 64.0695 68.3315 66.1884 68.3315C68.509 68.3315 70.426 70.1456 70.426 72.5644C70.426 74.8824 68.6099 76.7973 66.1884 76.7973C64.1704 76.495 62.2534 74.8824 62.2534 72.5644"/>
	<path fill="#EEE" d="M62.2533 81.635C62.2533 79.1154 64.2712 77.402 66.491 77.402C67.1972 77.402 68.1053 77.6036 68.5089 78.1075C66.6927 79.5185 64.1703 80.9295 62.2533 81.635"/>
	<path fill="#EEE" d="M72.9484 22.6785C72.9484 20.8623 74.1591 19.4513 75.6726 18.7458C75.6726 18.7458 78.9013 22.6785 80.3138 25.196C79.6076 26.103 78.2959 26.6112 77.0851 26.6112C74.7645 26.7077 72.9484 24.9944 72.9484 22.6785"/>
	<path fill="#EEE" d="M72.9484 31.7469C72.9484 29.7312 74.7645 27.514 76.8834 27.514C79.204 27.514 81.121 29.3281 81.121 31.7469C81.121 34.0649 79.3049 35.9798 76.8834 35.9798C74.7645 35.6775 72.9484 33.7626 72.9484 31.7469"/>
	<path fill="#EEE" d="M72.9484 40.8175C72.9484 38.8018 74.7645 36.5846 76.8834 36.5846C79.204 36.5846 81.121 38.3987 81.121 40.8175C81.121 43.1355 79.3049 45.0504 76.8834 45.0504C74.7645 44.9496 72.9484 42.934 72.9484 40.8175"/>
	<path fill="#EEE" d="M72.9484 49.7872C72.9484 47.7715 74.7645 45.5543 76.8834 45.5543C79.204 45.5543 81.121 47.3684 81.121 49.7872C81.121 52.206 79.3049 54.0201 76.8834 54.0201C74.7645 54.0201 72.9484 52.206 72.9484 49.7872"/>
	<path fill="#EEE" d="M72.9484 58.9586C72.9484 56.9429 74.7645 54.7257 76.8834 54.7257C79.204 54.7257 81.121 56.5398 81.121 58.9586C81.121 61.3774 79.3049 63.1915 76.8834 63.1915C74.7645 62.99 72.9484 61.1758 72.9484 58.9586"/>
	<path fill="#EEE" d="M72.9484 67.9283C72.9484 65.9127 74.7645 63.6954 76.8833 63.6954C78.0941 63.6954 79.204 64.4009 79.9102 65.1064C79.204 66.5174 76.1771 70.6495 75.269 71.5566C74.0582 71.1534 72.9484 69.7425 72.9484 67.9283"/>
</svg>
