<?xml version="1.0" encoding="utf-8" ?>
<svg xmlns="http://www.w3.org/2000/svg" xmlns:xlink="http://www.w3.org/1999/xlink" width="102" height="92">
	<path fill="white" d="M43.1476 0C42.2445 0 41.2411 0.508287 40.037 1.21989C38.8329 1.62652 38.4315 1.93149 37.9298 2.33812C37.4281 2.54144 36.7257 3.04972 36.0232 3.25304C33.4143 4.98122 32.0095 6.40442 31.3071 7.62431C26.2899 10.2674 20.5704 12.1989 19.3663 12.4022C18.1621 12.6055 15.0515 13.3171 15.0515 16.2652C14.5498 26.8376 11.9409 34.3602 9.13124 42.0862C8.93055 42.7978 8.62953 43.3061 8.42884 44.0177C8.22815 44.526 8.22815 44.9326 7.92712 45.4409C4.81648 53.8785 7.22472 59.6729 8.42884 61.6044C8.62953 61.8077 8.62953 62.1127 8.62953 62.5193C8.83021 65.1624 9.13124 70.9569 9.13124 71.1602L9.13124 72.3801L9.33193 73.3967C9.83364 74.1083 10.235 74.6166 11.2385 74.8199C10.536 74.8199 9.83364 74.8199 8.83021 75.0232C1.70584 75.7348 0 79.3945 0 84.6807L0.200687 86.5105L0.401373 88.6453L2.3079 88.6453C8.93055 89.5602 26.2899 91.7967 50.573 91.7967C56.4933 91.7967 61.8115 91.7967 66.3269 92C69.9393 92 72.9496 92 75.8595 92C86.5963 92 92.8176 91.2884 97.7344 87.6287C98.4368 87.1204 99.4402 86.2055 100.143 84.9856C103.755 77.768 101.347 73.3967 99.2395 71.2619C99.7413 70.042 99.9419 68.8221 99.7413 67.9072C99.7413 67.1956 99.5406 66.6873 99.0389 66.179C99.2395 63.7392 98.5371 61.6044 98.3364 60.5878C95.7275 54.2851 89.8073 53.5735 86.8973 53.3702C86.1949 53.1669 85.6932 53.1669 85.1915 53.1669C83.9874 52.9635 83.0843 52.6586 82.5825 52.6586C81.6795 51.7436 79.9736 51.4387 78.7695 51.4387C78.5688 51.4387 78.2678 51.4387 78.2678 51.4387C76.1606 50.9304 73.953 50.2188 71.1434 48.9989L69.4376 48.2873C68.2335 47.779 67.5311 47.3724 67.0293 46.8641C66.5276 46.6608 66.3269 46.3558 66.3269 46.1525C65.4238 44.4243 64.4204 43.5094 63.5173 43.0011C63.3166 42.7978 63.3166 42.7978 63.3166 42.2895C62.8149 40.5613 61.6108 39.4431 60.7077 38.6298C60.7077 37.2066 59.8046 35.7834 57.8981 33.8519C57.8981 32.4287 56.995 31.4122 55.7909 29.989C55.7909 29.7856 55.5902 29.2773 55.5902 29.074C56.0919 27.6508 56.0919 26.2276 55.5902 24.7028C55.0885 23.7878 54.6871 23.2796 54.1854 22.7713C54.6871 21.5514 54.6871 20.1282 54.1854 18.705C54.6871 16.5702 54.1854 14.6387 53.483 13.1138C54.6871 12.6055 56.0919 11.1823 55.5902 8.53923C55.3895 6.50608 54.1854 5.28619 52.9813 4.7779C52.7806 4.26961 52.4796 4.0663 52.2789 3.55801C51.3758 2.94807 50.6734 2.64309 49.4693 2.64309C48.9675 2.64309 48.2651 2.64309 47.5627 2.84641C47.061 1.93149 46.6596 1.11823 45.8569 0.914917C44.3517 0.203315 43.6493 0 43.1476 0"/>
	<path fill="#4C4C4C" d="M49.8706 17.1801C49.3689 17.1801 49.1682 17.6884 49.1682 17.8917C49.1682 18.4 49.3689 18.6033 49.8706 18.6033C50.3723 18.6033 50.573 18.4 50.573 17.8917C50.7737 17.6884 50.3723 17.1801 49.8706 17.1801"/>
	<path fill="#4C4C4C" d="M49.1682 9.6575C48.9675 9.6575 48.4658 9.6575 48.4658 10.3691C48.4658 10.8774 48.6665 11.0807 49.1682 11.0807C49.6699 11.0807 49.8706 10.8774 49.8706 10.3691C49.8706 9.96247 49.6699 9.6575 49.1682 9.6575"/>
	<path fill="#D4EDF9" d="M17.9621 72.3801L26.0899 73.0917C25.1867 74.8199 25.5881 77.463 25.5881 77.463C26.9929 81.5293 32.7125 81.5293 44.6534 82.2409C56.7948 82.9525 61.6114 81.326 61.6114 81.326C65.4244 79.3945 63.5178 75.7348 63.5178 75.7348C62.6147 75.5315 61.1096 74.8199 61.1096 74.8199C81.7803 74.8199 94.4237 72.6851 94.4237 72.6851C96.1294 73.1934 98.0359 76.0398 98.2868 77.768C98.4373 79.4961 98.2868 83.5624 93.7213 85.6972C89.2057 87.832 80.8773 88.137 51.577 88.137C22.076 88.137 3.71325 84.9856 3.71325 84.9856C3.71325 81.1227 4.61634 78.9879 10.6369 78.6829C16.3566 78.4796 17.2596 78.1746 18.4637 76.7514C19.1661 75.0232 17.9621 72.3801 17.9621 72.3801M70.5418 75.8365C70.5418 75.8365 68.8361 80.4111 73.6525 81.4276C78.3687 82.3426 90.1088 82.6475 91.7143 80.9194C93.3198 79.1912 93.1191 76.1415 90.8112 74.21L89.1054 74.4133C89.1054 74.4133 88.9047 75.3282 87.9013 75.3282C86.6972 75.3282 86.1954 75.1249 86.1954 75.1249C86.1954 75.1249 81.1782 75.6332 78.5694 75.6332C78.5694 75.6332 78.3687 76.5481 76.8635 76.5481C75.6594 76.5481 75.6594 75.6332 75.6594 75.6332C75.6594 75.6332 71.746 75.8365 70.5418 75.8365"/>
	<path fill="#2D1B0A" d="M51.6667 89.6618C22.3512 89.6618 3.67754 86.5105 3.47675 86.5105L2.272 86.3071L2.272 84.9856C2.272 80.4111 3.67754 77.463 10.6049 77.158C15.8254 76.9547 16.5282 76.6497 17.1306 75.9381C17.3314 75.0232 16.8294 73.6 16.6286 72.9901L15.5242 70.6519L28.4753 71.7702L27.3709 73.8033C26.869 74.7182 26.9694 76.3448 26.9694 77.0564C27.9733 79.5978 32.0895 80.0044 42.0287 80.5127L44.639 80.6144C55.4818 81.2243 60.2004 80.0044 60.9031 79.8011C61.6059 79.3945 62.1079 78.9879 62.2083 78.3779C62.4091 77.8696 62.3087 77.2597 62.2083 76.8531C61.3047 76.5481 60.4012 76.1414 60.3008 76.0398L54.1766 73.0917L61.0035 73.0917C81.2835 73.0917 93.9333 70.9569 94.1341 70.9569C97.0456 71.6685 99.3547 75.0232 99.728 77.3613C100.058 80.5127 98.8527 84.6806 94.2345 86.8154C89.6163 89.3569 81.4843 89.6618 51.6667 89.6618M5.28387 83.6641C9.90208 84.3757 26.9694 86.6121 51.6667 86.6121C80.4803 86.6121 88.9136 86.3071 93.2306 84.274C96.9452 82.5458 97.0456 79.1912 96.8448 77.8696C96.7444 76.7514 95.3389 74.7182 94.3349 74.21C94.0337 74.21 93.6322 74.3116 93.1302 74.4133C93.8329 75.4298 94.2345 76.5481 94.3349 77.768C94.4353 79.3945 93.9333 80.8176 92.9294 81.9359C90.4195 84.6806 76.5649 83.4607 73.4526 82.8508C71.0431 82.3425 69.9387 81.1227 69.4368 80.1061C68.6336 78.6829 68.734 77.0564 68.9348 76.1414C67.73 76.1414 66.6257 76.2431 65.4209 76.2431C65.6217 77.0564 65.7221 78.1746 65.3205 79.2928C65.0194 80.2077 64.2162 81.631 62.3087 82.5458C61.9071 82.7491 56.8873 84.3757 44.5386 83.6641L41.9283 83.5624C31.186 82.9525 25.7646 82.6475 24.1583 77.8696C24.0579 77.3613 23.8571 75.9381 24.0579 74.3116L20.0421 74.0066C20.2428 75.0232 20.2428 76.2431 19.8413 77.2597C17.8333 79.6995 16.227 79.9028 10.6049 80.1061C6.28783 80.4111 5.48466 81.5293 5.28387 83.6641M71.8463 77.3613C71.8463 77.8696 71.8463 78.3779 72.0471 78.7845C72.3482 79.3945 73.051 79.6995 73.9546 79.9028C79.0748 80.9193 89.2147 80.8176 90.6203 79.8011C91.0219 79.3945 91.2227 78.6829 91.2227 77.9713C91.2227 77.158 90.8211 76.4464 90.2187 75.8365C89.5159 76.4464 88.8132 76.8531 87.9096 76.8531C87.006 76.8531 86.4037 76.7514 86.1025 76.6497C85.0985 76.7514 81.7855 77.0564 79.376 77.158C78.874 77.6663 78.0708 78.0729 76.8661 78.0729C75.8621 78.0729 75.1593 77.6663 74.7577 77.158C74.055 77.2597 72.8502 77.3613 71.8463 77.3613"/>
	<path fill="#131411" d="M11.7402 61.282C11.7402 61.282 12.2419 67.0939 12.4426 71.4652C12.4426 71.4652 13.6467 73.1934 32.712 73.905L32.712 66.179C32.712 66.179 38.6321 65.9757 46.7599 69.5337C54.8877 73.3967 57.9985 76.0398 73.953 75.3282C89.7069 74.8199 96.1289 72.1768 96.8313 71.4652C97.7344 70.9569 97.3534 69.0254 96.6306 69.0254C96.6306 69.0254 83.9874 72.3801 72.3475 72.1768C60.4067 71.9735 58.5001 71.4652 49.4692 67.0939C40.639 62.7227 33.7154 63.4343 29.9023 63.231C25.5876 62.7227 11.7402 61.0961 11.7402 61.282"/>
	<path fill="#2D1B0A" d="M69.161 76.4464C58.5202 76.4464 54.6051 74.5149 48.8832 71.6685C48.0801 71.2619 47.1766 70.8553 46.2732 70.4486C40.3504 67.9072 35.6323 67.2973 33.6246 67.1956L33.6246 74.9216L32.6208 74.9216C25.2926 74.6166 12.8449 73.905 11.5399 72.0752C11.1383 67.2973 10.6364 61.5028 10.6364 61.4011C11.4395 60.1812 11.4395 60.0796 29.9104 62.316C30.4123 62.316 31.115 62.316 31.8177 62.316C35.9335 62.4177 42.1574 62.4177 49.7866 66.2807C58.5202 70.5503 60.3271 71.0586 72.2729 71.2619C83.6165 71.4652 96.1646 68.2122 96.265 68.1105C97.3693 68.1105 97.9716 68.7205 98.2592 69.6354C98.3731 70.5503 98.2592 71.7702 97.3693 72.3801C95.8635 73.6 88.6357 75.9381 73.8791 76.4464C72.2729 76.4464 70.6668 76.4464 69.161 76.4464M32.9219 65.1625C34.1265 65.1625 39.7481 65.3658 47.1766 68.6188C48.1805 69.1271 48.9836 69.5337 49.887 69.9404C56.2113 73.0917 60.1263 75.0232 73.9795 74.3116C89.3384 73.8033 95.4619 71.3636 96.265 70.7536C96.4658 70.5503 96.4658 70.347 96.4658 70.2453C93.8558 70.8553 82.713 73.4984 72.4737 73.295C60.6283 73.0917 58.4198 72.5834 49.1843 68.1105C41.9566 64.5525 36.0339 64.4509 32.1188 64.3492C31.3158 64.3492 30.6131 64.3492 30.0108 64.2475C18.9684 62.926 14.6518 62.5193 12.9453 62.316C13.0457 64.1459 13.3468 67.7039 13.5476 70.8553C14.5514 71.2619 18.4664 72.2785 31.8177 72.8884L31.8177 65.2641L32.8215 65.2641C32.7212 65.1625 32.8215 65.1625 32.9219 65.1625"/>
	<path fill="#FFCF48" d="M34.302 10.8773C34.302 10.8773 34.302 8.43753 38.3157 6.30272C42.3294 4.16792 43.5336 3.15134 44.0353 3.40321C44.537 3.65963 45.7411 7.52261 45.9527 8.53918C46.2429 8.43753 40.2222 7.52261 34.302 10.8773"/>
	<path fill="#2D1B0A" d="M33.3039 12.6055L33.3039 10.8773C33.3039 10.5723 33.4043 7.72593 37.8194 5.38781C39.2242 4.67621 40.328 4.06627 41.0304 3.55798C42.8366 2.5414 43.6393 2.03312 44.442 2.5414C45.4454 3.25301 46.4489 6.6077 46.7499 7.82759L46.7499 9.14914L45.0441 9.75908C43.3382 9.14914 38.9232 9.14914 34.6084 11.5889L33.3039 12.6055M43.6393 4.57455C43.3382 4.77787 42.7362 5.08284 42.1342 5.38781C41.3314 5.8961 40.2276 6.50604 38.8228 7.21765C37.9197 7.72593 37.2173 8.23422 36.7156 8.64085C39.8263 7.52262 42.7362 7.21765 44.6427 7.3193C44.3417 6.40439 43.9403 5.1845 43.6393 4.57455"/>
	<path fill="#FFCF48" d="M11.8612 61.3294C11.8612 61.3294 7.84751 56.2465 11.1588 47.0973C14.4702 37.9482 18.2832 29.7139 18.5842 16.9051C18.5842 16.9051 18.5842 16.7018 20.2901 16.1935C22.1966 15.9902 28.8193 13.3471 33.6357 10.9073C38.6529 8.46751 45.5766 7.7559 46.9814 9.17911C46.9814 9.17911 46.0783 7.45093 47.4831 6.73933C49.189 6.23104 49.8914 6.73933 49.8914 6.94265C49.8914 7.14596 50.092 8.36585 50.092 8.36585C50.092 8.36585 51.7979 8.16253 51.9986 9.28077C52.1993 10.5007 52.1993 11.0089 51.4968 11.0089C50.7944 11.2123 49.5903 11.2123 49.5903 11.9239C49.5903 12.6355 49.3896 14.0587 49.791 15.0752C50.1924 16.0918 50.6941 18.2266 49.9917 19.6498C49.9917 19.6498 51.3965 21.7846 49.791 23.5128C49.791 23.5128 50.2927 25.241 50.6941 25.9526C50.6941 25.9526 51.5972 25.7493 52.0989 26.8675C52.6006 28.0874 51.8982 29.3073 51.8982 29.3073C51.8982 29.3073 52.3999 31.4421 53.1023 32.662C53.1023 32.662 54.5071 33.8819 54.5071 34.5935C54.5071 34.5935 54.3065 35.5084 55.0089 36.3217C55.0089 36.3217 57.6178 38.7614 57.4171 39.473C57.2164 39.9813 57.6178 40.6929 58.1195 41.4045C58.1195 41.4045 59.8253 42.1161 60.026 43.8443C60.5277 45.5725 60.9291 45.5725 61.2301 46.2841C61.5312 46.9957 62.936 46.4874 63.6384 49.4355C63.6384 49.4355 68.1538 53.5018 78.1882 55.9415C78.1882 55.9415 80.0947 55.9415 80.5964 56.4498C81.0981 56.9581 83.0046 57.3647 84.9112 57.6697C86.617 57.873 93.039 57.873 95.1462 62.2443C95.1462 62.2443 96.852 66.6156 95.3469 68.7504C95.3469 68.7504 92.0355 71.5968 69.659 72.6329C69.659 72.6329 58.2198 73.1217 51.0955 68.9537C43.9711 64.8874 36.8467 63.6675 29.4213 63.6675C23.0997 63.4642 13.266 61.3294 11.8612 61.3294M68.5552 55.0266C68.5552 55.9415 69.2576 56.7548 70.261 56.7548C71.1641 56.7548 71.9669 56.0432 71.9669 55.0266C71.9669 54.1117 71.2645 53.2984 70.261 53.2984C69.2576 53.4001 68.5552 54.315 68.5552 55.0266M62.3339 51.6719C62.3339 52.5868 63.0363 53.4001 64.0398 53.4001C64.9429 53.4001 65.7456 52.6885 65.7456 51.6719C65.7456 50.757 65.0432 49.9437 64.0398 49.9437C63.0363 50.2487 62.3339 50.9603 62.3339 51.6719M57.8185 46.894C57.8185 47.8089 58.5209 48.6222 59.5243 48.6222C60.4274 48.6222 61.2301 47.9106 61.2301 46.894C61.2301 45.9791 60.5277 45.1658 59.5243 45.1658C58.5209 45.3692 57.8185 46.1824 57.8185 46.894M54.2061 41.6078C54.2061 42.5228 54.9085 43.336 55.912 43.336C56.9154 43.336 57.6178 42.6244 57.6178 41.6078C57.6178 40.6929 56.9154 39.8797 55.912 39.8797C55.0089 40.083 54.2061 40.7946 54.2061 41.6078M50.8948 36.0167C50.8948 36.9316 51.5972 37.7449 52.6006 37.7449C53.5037 37.7449 54.3065 37.0333 54.3065 36.0167C54.3065 35.0001 53.6041 34.2885 52.6006 34.2885C51.8982 34.2885 50.8948 35.0001 50.8948 36.0167M48.2859 29.5106C48.2859 30.4255 48.9883 31.2388 49.9917 31.2388C50.8948 31.2388 51.6975 30.5272 51.6975 29.5106C51.6975 28.5957 50.9951 27.7824 49.9917 27.7824C48.9883 28.0874 48.2859 28.799 48.2859 29.5106M46.6804 22.4962C46.6804 23.4112 47.3828 24.2244 48.3862 24.2244C49.2893 24.2244 50.092 23.5128 50.092 22.4962C50.092 21.5813 49.3896 20.7681 48.3862 20.7681C47.3828 20.7681 46.6804 21.7846 46.6804 22.4962M45.8776 15.2786C45.8776 16.1935 46.58 17.0067 47.5835 17.0067C48.4865 17.0067 49.2893 16.2951 49.2893 15.2786C49.2893 14.262 48.5869 13.5504 47.5835 13.5504C46.3793 13.5504 45.8776 14.262 45.8776 15.2786"/>
	<path fill="#2D1B0A" d="M68.4241 73.5999C65.1128 73.5999 56.5836 73.1933 50.6634 69.7369C44.4421 66.1789 37.9198 64.5524 29.4909 64.5524C25.2765 64.4507 19.5569 63.4342 15.7439 62.8242C14.0381 62.5193 12.3322 62.2143 11.9309 62.2143C10.9274 61.6043 6.81334 56.2165 10.225 46.559C10.7267 45.2375 11.1281 44.0176 11.6298 42.7977C14.5398 34.9701 17.3494 27.5491 17.5501 16.7734C17.5501 15.9601 18.2525 15.6552 19.9583 15.1469C21.7645 14.9436 28.0861 12.5038 33.2036 9.96235C37.0167 8.13251 42.6359 7.01428 45.7465 7.52257C45.7465 7.42091 45.7465 7.31925 45.8469 7.21759C46.0476 6.60765 46.4489 6.09936 47.051 5.79439C49.0579 5.18445 50.0613 5.59107 50.4627 5.89605C50.7637 6.20102 50.9644 6.50599 50.9644 6.91262C50.9644 6.91262 50.9644 7.11594 51.0647 7.31925C52.0682 7.42091 52.9085 8.03085 53.0716 9.04743C53.2723 10.064 53.3726 10.8773 52.9085 11.4872C52.6702 11.6905 52.3692 11.9955 51.7671 11.9955C51.5665 11.9955 51.4661 12.0971 51.2654 12.0971C51.1651 12.0971 50.8641 12.1988 50.7637 12.1988C50.7637 12.3005 50.7637 12.4021 50.7637 12.5038C50.7637 13.0121 50.6634 13.5204 50.7637 14.1303C50.7637 14.4353 50.8641 14.6386 50.8641 14.7402C50.9644 15.0452 51.9678 17.5867 51.2654 19.6198C51.7671 20.6364 52.0682 22.2629 51.0647 23.7878C51.1651 24.1944 51.3658 24.7027 51.4661 25.0077C52.0682 25.1093 52.6702 25.5159 53.172 26.4309C53.6737 27.6507 53.3726 28.769 53.0716 29.3789C53.2723 30.0905 53.5733 31.2088 53.9747 32.022C54.6771 32.632 55.5802 33.6485 55.5802 34.5635C55.5802 34.7668 55.4798 35.1734 55.7809 35.58C58.7912 38.4264 58.4901 39.3414 58.3898 39.748C58.3898 39.8496 58.3898 40.053 58.7912 40.5612C59.3932 40.8662 60.798 41.7811 60.9987 43.611C61.2998 44.5259 61.5004 44.8309 61.7011 45.0342C61.8015 45.2375 62.0022 45.4408 62.1025 45.7458C62.1025 45.7458 62.2028 45.7458 62.2028 45.8474C63.0056 46.2541 63.9087 46.864 64.5107 48.8972C64.6111 48.8972 64.6111 48.9988 64.7114 49.1005C65.3135 49.3038 65.9156 49.6088 66.2166 50.117C67.22 50.727 68.6248 51.5402 70.5313 52.3535C71.1334 52.4552 71.6351 52.6585 72.0365 52.9635C73.8427 53.6751 75.9499 54.3867 78.3581 54.9966C79.2612 54.9966 80.666 55.0983 81.3684 55.8099C81.4688 55.9115 82.0708 56.2165 85.0811 56.7248C85.1815 56.7248 85.4825 56.7248 85.6832 56.8264C88.0914 57.0297 93.9113 57.538 96.0185 61.9093C96.2192 62.5193 97.9251 66.8905 96.1189 69.432C95.5168 69.9402 91.7038 72.685 69.6283 73.7016C69.7286 73.5999 69.2269 73.5999 68.4241 73.5999M29.5913 62.6209C38.2208 62.6209 45.2448 64.3491 51.7671 68.0088C58.5905 71.9734 69.7286 71.5668 69.8289 71.5668C89.3959 70.6518 94.112 68.4154 94.8144 68.0088C95.6172 66.5856 94.8144 63.5358 94.4131 62.6209C92.8076 59.3679 87.8907 58.9612 85.7835 58.7579C85.4825 58.7579 85.1815 58.7579 84.9808 58.6563C81.3684 58.0463 80.4653 57.6397 80.064 57.1314C79.8633 57.0297 79.0605 56.9281 78.3581 56.9281C76.3513 56.5215 74.6454 56.0132 73.1403 55.4032C72.9396 56.7248 71.8358 57.7414 70.431 57.7414C68.9259 57.7414 67.7217 56.5215 67.7217 54.9966C67.7217 54.4883 67.9224 53.8784 68.3238 53.3701C67.7217 53.0651 67.22 52.8618 66.8186 52.5568C66.4173 53.5734 65.4138 54.3867 64.3101 54.3867C62.8049 54.3867 61.6008 53.1668 61.6008 51.6419C61.6008 50.8286 62.1025 50.0154 62.9053 49.5071C62.7046 48.7955 62.5039 48.3889 62.3032 48.0839C61.9018 48.9988 60.9987 49.6088 59.895 49.6088C58.3898 49.6088 57.1857 48.3889 57.1857 46.864C57.1857 45.6441 58.1891 44.5259 59.4936 44.2209C59.4936 44.2209 59.4936 44.1193 59.4936 44.1193C59.3932 43.4077 59.0922 43.001 58.8915 42.696C58.4901 43.611 57.5871 44.2209 56.3829 44.2209C54.8778 44.2209 53.6737 43.001 53.6737 41.4762C53.6737 40.2563 54.6771 39.0364 56.1822 38.7314C56.3829 38.7314 56.4833 38.7314 56.4833 38.7314C56.1822 38.3248 55.7809 37.9181 55.2792 37.4099C54.7774 38.1215 53.9747 38.6297 53.0716 38.6297C51.5665 38.6297 50.3623 37.4099 50.3623 35.885C50.3623 34.4618 51.5665 33.3436 52.7706 33.1402C52.4695 32.632 52.1685 32.1237 52.0682 31.6154C51.6668 31.9204 51.0647 32.1237 50.4627 32.1237C48.9575 32.1237 47.7534 30.9038 47.7534 29.3789C47.7534 28.159 48.7568 27.1425 50.1617 26.6342C50.1617 26.0242 49.961 25.4143 49.7603 25.0077C49.4592 25.1093 49.1582 25.1093 48.8572 25.1093C47.352 25.1093 46.1479 23.8894 46.1479 22.3646C46.1479 21.043 47.352 19.6198 48.8572 19.6198C49.0579 19.6198 49.1582 19.6198 49.3589 19.6198C49.8606 18.5016 49.961 17.8916 49.8606 17.18C49.3589 17.5867 48.7568 17.79 48.1548 17.79C46.6496 17.79 45.4455 16.5701 45.4455 15.0452C45.4455 13.317 46.4489 12.3005 48.1548 12.3005C48.4558 12.3005 48.8572 12.4021 49.1582 12.5038C49.1582 12.4021 49.1582 12.3005 49.1582 12.1988C49.1582 12.0971 49.1582 12.0971 49.1582 11.9955L46.8503 9.65737C45.9472 8.74246 39.6256 9.14909 34.6084 11.5889C30.1933 13.8253 23.2696 16.6717 21.0621 16.9767C20.6607 17.0784 20.3597 17.18 20.159 17.2817C19.7576 28.159 16.948 35.9867 14.0381 43.4077C13.5363 44.6275 13.135 45.9491 12.6333 47.169C10.0243 54.3867 12.2319 58.8596 12.9343 60.0795C13.6367 60.1811 14.7405 60.3844 16.4463 60.6894C19.858 61.5027 25.4772 62.5193 29.5913 62.6209M70.2303 54.3867C69.9293 54.4883 69.6283 54.8949 69.6283 55.0983C69.6283 55.4032 69.8289 55.8099 70.3307 55.8099C70.6317 55.8099 71.0331 55.6065 71.0331 55.0983C71.0331 54.9966 71.0331 54.8949 70.9327 54.6916C70.732 54.59 70.431 54.4883 70.2303 54.3867M64.1094 51.032C63.6077 51.2353 63.407 51.5402 63.407 51.6419C63.407 51.9469 63.6077 52.3535 64.1094 52.3535C64.4104 52.3535 64.8118 52.1502 64.8118 51.6419C64.8118 51.5402 64.8118 51.5402 64.8118 51.4386C64.6111 51.3369 64.3101 51.1336 64.1094 51.032M59.6943 46.1524C59.1925 46.2541 58.8915 46.6607 58.8915 46.864C58.8915 47.169 59.0922 47.5756 59.5939 47.5756C59.895 47.5756 60.2963 47.3723 60.2963 46.864C60.2963 46.559 60.0956 46.2541 59.6943 46.1524M56.0819 40.8662C55.5802 40.9679 55.2792 41.3745 55.2792 41.5778C55.2792 41.8828 55.4798 42.2894 55.9816 42.2894C56.3829 42.2894 56.684 41.9844 56.684 41.5778C56.684 41.2728 56.4833 40.9679 56.0819 40.8662M52.6702 35.2751C52.4695 35.2751 51.9678 35.58 51.9678 35.9867C51.9678 36.2916 52.1685 36.6983 52.6702 36.6983C52.9085 36.6983 53.3726 36.4949 53.3726 35.9867C53.3726 35.58 53.172 35.2751 52.6702 35.2751M50.262 28.769C49.6599 28.9723 49.4592 29.3789 49.4592 29.4806C49.4592 29.7856 49.6599 30.1922 50.1617 30.1922C50.4627 30.1922 50.8641 29.9889 50.8641 29.4806C50.7637 29.1756 50.563 28.8706 50.262 28.769M48.4558 21.7546C48.0544 21.7546 47.7534 22.2629 47.7534 22.4662C47.7534 22.7712 47.9541 23.1778 48.4558 23.1778C48.6565 23.1778 48.7568 23.0762 48.9575 22.9745C49.1582 22.7712 49.1582 22.5679 49.1582 22.4662C49.1582 22.1612 48.9575 21.7546 48.4558 21.7546M47.6531 14.5369C47.1514 14.5369 46.9507 14.7402 46.9507 15.2485C46.9507 15.5535 47.1514 15.9601 47.6531 15.9601C47.9541 15.9601 48.3555 15.7568 48.3555 15.2485C48.3555 14.8419 48.1548 14.5369 47.6531 14.5369M47.9541 7.62422C47.8538 7.72588 47.8538 7.72588 47.8538 7.82754C47.7534 8.03085 47.8538 8.43748 47.9541 8.6408L49.0579 10.8773C49.5596 10.369 50.3623 10.1657 50.8641 10.064C50.9644 10.064 51.0647 10.064 51.2654 9.96235C51.2654 9.86069 51.2654 9.65737 51.1651 9.3524C51.0647 9.25074 50.6634 9.25074 50.3623 9.25074L49.2586 8.43748C49.1582 8.03085 49.1582 7.72588 49.0579 7.42091C48.8572 7.52257 48.4558 7.52257 47.9541 7.62422"/>
	<path fill="#4C4C4C" d="M64.8218 51.642C64.8218 52.1473 64.4175 52.5569 63.9187 52.5569C63.4199 52.5569 63.0156 52.1473 63.0156 51.642C63.0156 51.1367 63.4199 50.7271 63.9187 50.7271C64.4175 50.7271 64.8218 51.1367 64.8218 51.642"/>
	<path fill="#4C4C4C" d="M63.9187 53.0652C63.116 53.0652 62.5139 52.4553 62.5139 51.642C62.5139 50.8287 63.116 50.2188 63.9187 50.2188C64.7215 50.2188 65.3235 50.8287 65.3235 51.642C65.3235 52.4553 64.6211 53.0652 63.9187 53.0652M63.9187 51.2354C63.718 51.2354 63.5173 51.4387 63.5173 51.642C63.5173 51.8453 63.718 52.0486 63.9187 52.0486C64.1194 52.0486 64.3201 51.8453 64.3201 51.642C64.3201 51.4387 64.1194 51.2354 63.9187 51.2354"/>
	<path fill="#4C4C4C" d="M60.3063 46.8641C60.3063 47.3694 59.902 47.779 59.4032 47.779C58.9044 47.779 58.5001 47.3694 58.5001 46.8641C58.5001 46.3588 58.9044 45.9492 59.4032 45.9492C59.902 45.9492 60.3063 46.3588 60.3063 46.8641"/>
	<path fill="#4C4C4C" d="M59.4032 48.2873C58.6005 48.2873 57.9984 47.6774 57.9984 46.8641C57.9984 46.0508 58.6005 45.4409 59.4032 45.4409C60.2059 45.4409 60.808 46.0508 60.808 46.8641C60.808 47.6774 60.1056 48.2873 59.4032 48.2873M59.4032 46.4575C59.2025 46.4575 59.0018 46.6608 59.0018 46.8641C59.0018 47.0674 59.2025 47.2707 59.4032 47.2707C59.6039 47.2707 59.8046 47.0674 59.8046 46.8641C59.8046 46.6608 59.6039 46.4575 59.4032 46.4575"/>
	<path fill="#4C4C4C" d="M56.694 41.5779C56.694 42.0832 56.2897 42.4928 55.7909 42.4928C55.2921 42.4928 54.8878 42.0832 54.8878 41.5779C54.8878 41.0726 55.2921 40.663 55.7909 40.663C56.2897 40.663 56.694 41.0726 56.694 41.5779"/>
	<path fill="#4C4C4C" d="M55.7909 43.0011C54.9882 43.0011 54.3861 42.3912 54.3861 41.5779C54.3861 40.7646 54.9882 40.1547 55.7909 40.1547C56.5936 40.1547 57.1957 40.7646 57.1957 41.5779C57.1957 42.3912 56.4933 43.0011 55.7909 43.0011M55.7909 41.1713C55.5902 41.1713 55.3895 41.3746 55.3895 41.5779C55.3895 41.7812 55.5902 41.9845 55.7909 41.9845C55.9916 41.9845 56.1923 41.7812 56.1923 41.5779C56.1923 41.3746 55.9916 41.1713 55.7909 41.1713"/>
	<path fill="#4C4C4C" d="M53.3827 35.9867C53.3827 36.492 52.9784 36.9016 52.4796 36.9016C51.9808 36.9016 51.5765 36.492 51.5765 35.9867C51.5765 35.4814 51.9808 35.0718 52.4796 35.0718C52.9784 35.0718 53.3827 35.4814 53.3827 35.9867"/>
	<path fill="#4C4C4C" d="M52.4796 37.4099C51.6769 37.4099 51.0748 36.8 51.0748 35.9867C51.0748 35.1734 51.6769 34.5635 52.4796 34.5635C53.2823 34.5635 53.8844 35.1734 53.8844 35.9867C53.8844 36.8 53.182 37.4099 52.4796 37.4099M52.4796 35.5801C52.2789 35.5801 52.0782 35.7834 52.0782 35.9867C52.0782 36.19 52.2789 36.3933 52.4796 36.3933C52.6803 36.3933 52.881 36.19 52.881 35.9867C52.881 35.7834 52.6803 35.5801 52.4796 35.5801"/>
	<path fill="#4C4C4C" d="M50.7737 29.4807C50.7737 29.986 50.3694 30.3956 49.8706 30.3956C49.3718 30.3956 48.9675 29.986 48.9675 29.4807C48.9675 28.9754 49.3718 28.5658 49.8706 28.5658C50.3694 28.5658 50.7737 28.9754 50.7737 29.4807"/>
	<path fill="#4C4C4C" d="M49.8706 30.9039C49.0679 30.9039 48.4658 30.294 48.4658 29.4807C48.4658 28.6674 49.0679 28.0575 49.8706 28.0575C50.6733 28.0575 51.2754 28.6674 51.2754 29.4807C51.2754 30.294 50.573 30.9039 49.8706 30.9039M49.8706 29.0741C49.6699 29.0741 49.4692 29.2774 49.4692 29.4807C49.4692 29.684 49.6699 29.8873 49.8706 29.8873C50.0713 29.8873 50.272 29.684 50.272 29.4807C50.272 29.2774 50.0713 29.0741 49.8706 29.0741"/>
	<path fill="#4C4C4C" d="M48.8672 22.4663C48.8672 22.9716 48.4629 23.3812 47.9641 23.3812C47.4653 23.3812 47.061 22.9716 47.061 22.4663C47.061 21.961 47.4653 21.5514 47.9641 21.5514C48.4629 21.5514 48.8672 21.961 48.8672 22.4663"/>
	<path fill="#4C4C4C" d="M47.9641 23.8895C47.1614 23.8895 46.5593 23.2796 46.5593 22.4663C46.5593 21.653 47.1614 21.0431 47.9641 21.0431C48.7668 21.0431 49.3689 21.653 49.3689 22.4663C49.3689 23.2796 48.6665 23.8895 47.9641 23.8895M47.9641 22.0597C47.7634 22.0597 47.5627 22.263 47.5627 22.4663C47.5627 22.6696 47.7634 22.8729 47.9641 22.8729C48.1648 22.8729 48.3655 22.6696 48.3655 22.4663C48.3655 22.263 48.1648 22.0597 47.9641 22.0597"/>
	<path fill="#4C4C4C" d="M48.1648 15.2486C48.1648 15.7539 47.7605 16.1635 47.2617 16.1635C46.7629 16.1635 46.3586 15.7539 46.3586 15.2486C46.3586 14.7433 46.7629 14.3337 47.2617 14.3337C47.7605 14.3337 48.1648 14.7433 48.1648 15.2486"/>
	<path fill="#4C4C4C" d="M47.2617 16.6718C46.459 16.6718 45.8569 16.0619 45.8569 15.2486C45.8569 14.4353 46.459 13.8254 47.2617 13.8254C48.0644 13.8254 48.6665 14.4353 48.6665 15.2486C48.6665 16.0619 47.9641 16.6718 47.2617 16.6718M47.2617 14.842C47.061 14.842 46.8603 15.0453 46.8603 15.2486C46.8603 15.4519 47.061 15.6552 47.2617 15.6552C47.4624 15.6552 47.6631 15.4519 47.6631 15.2486C47.6631 15.0453 47.4624 14.842 47.2617 14.842"/>
</svg>
