<?xml version="1.0" encoding="utf-8" ?>
<svg xmlns="http://www.w3.org/2000/svg" xmlns:xlink="http://www.w3.org/1999/xlink" width="88" height="88">
	<path fill="white" d="M21.9239 75.9632C21.9239 81.6613 17.2887 86.2805 11.5708 86.2805C5.85312 86.2805 1.21795 81.6613 1.21795 75.9632C1.21795 70.2652 5.85312 65.646 11.5708 65.646C17.2887 65.646 21.9239 70.2652 21.9239 75.9632"/>
	<path fill="white" d="M11.5709 66.8598C16.6459 66.8598 20.7059 70.9058 20.7059 75.9632C20.7059 81.0208 16.6459 85.0667 11.5709 85.0667C6.49591 85.0667 2.43594 81.0208 2.43594 75.9632C2.43594 70.9058 6.59741 66.8598 11.5709 66.8598M11.5709 64.5333C5.27792 64.5333 -5e-05 69.5908 -5e-05 76.0643C-5e-05 82.5379 5.07492 87.5954 11.5709 87.5954C18.0669 87.5954 23.1418 82.5379 23.1418 76.0643C23.1418 69.5908 18.1684 64.5333 11.5709 64.5333"/>
	<path fill="white" d="M86.7821 76.4689C86.7821 82.1671 82.1469 86.7862 76.429 86.7862C70.7113 86.7862 66.0761 82.1671 66.0761 76.4689C66.0761 70.7709 70.7113 66.1517 76.429 66.1517C82.1469 66.1517 86.7821 70.7709 86.7821 76.4689"/>
	<path fill="white" d="M76.4292 67.3655C81.5042 67.3655 85.5642 71.4115 85.5642 76.4689C85.5642 81.5265 81.5042 85.5724 76.4292 85.5724C71.3542 85.5724 67.2942 81.5265 67.2942 76.4689C67.2942 71.4115 71.3542 67.3655 76.4292 67.3655M76.4292 64.938C70.1362 64.938 64.8583 69.9954 64.8583 76.4689C64.8583 82.9426 69.9332 88 76.4292 88C82.7222 88 88.0002 82.9426 88.0002 76.4689C88.0002 69.9954 82.7222 64.938 76.4292 64.938"/>
	<path fill="white" d="M43.3402 76.2667C43.3402 81.6854 38.9323 86.0782 33.4948 86.0782C28.0573 86.0782 23.6493 81.6854 23.6493 76.2667C23.6493 70.848 28.0573 66.4552 33.4948 66.4552C38.9323 66.4552 43.3402 70.848 43.3402 76.2667"/>
	<path fill="white" d="M33.4956 67.5678C38.2653 67.5678 42.1223 71.4115 42.1223 76.1655C42.1223 80.9196 38.2653 84.7632 33.4956 84.7632C28.7244 84.7632 24.8674 80.9196 24.8674 76.1655C24.8674 71.4115 28.7244 67.5678 33.4956 67.5678M33.4956 65.2414C27.5064 65.2414 22.4314 70.2989 22.4314 76.2667C22.4314 82.2345 27.5064 87.292 33.4956 87.292C39.4833 87.292 44.5598 82.2345 44.5598 76.2667C44.6598 70.1977 39.5848 65.2414 33.4956 65.2414"/>
	<path fill="white" d="M64.5536 76.469C64.5536 81.8877 60.1457 86.2805 54.7082 86.2805C49.2707 86.2805 44.8628 81.8877 44.8628 76.469C44.8628 71.0503 49.2707 66.6575 54.7082 66.6575C60.1457 66.6575 64.5536 71.0503 64.5536 76.469"/>
	<path fill="white" d="M54.7081 67.8713C59.4786 67.8713 63.3356 71.715 63.3356 76.469C63.3356 81.223 59.4786 85.0667 54.7081 85.0667C49.9377 85.0667 46.0807 81.223 46.0807 76.469C46.0807 71.715 49.9377 67.8713 54.7081 67.8713M54.7081 65.4437C48.7197 65.4437 43.6447 70.5012 43.6447 76.469C43.6447 82.4368 48.7197 87.4943 54.7081 87.4943C60.6966 87.4943 65.7717 82.4368 65.7717 76.469C65.7717 70.5012 60.7981 65.4437 54.7081 65.4437"/>
	<path fill="#89C5E5" d="M28.5213 65.2415C20.6044 65.2415 16.0369 65.2415 14.5144 65.0392C8.01843 64.3311 5.37944 57.8575 3.95845 52.5977C2.74046 48.5518 4.16145 41.5724 6.08994 33.7333C7.00343 29.1311 8.01843 24.2759 8.52592 20.2299C9.74392 10.115 12.5859 5.86673 17.9654 5.86673C20.6044 5.86673 21.8223 7.28282 22.5328 7.99087C23.2433 8.69891 23.2433 8.69891 23.9538 8.69891C24.3598 8.49661 24.6643 7.78857 24.8673 7.28282C25.5778 5.36098 26.7958 2.22535 31.3633 2.22535C31.8708 2.22535 32.2768 2.22535 32.7843 2.22535C36.1338 2.7311 38.5698 3.64144 39.7877 5.36098C41.0333 6.77707 41.0333 8.19317 40.7012 8.69891L40.7012 14.2621C42.6297 15.1724 46.9942 17.9035 46.9942 22.1517C47.1972 26.5012 43.3402 30.0414 41.2087 31.761C41.9192 32.4691 43.1372 33.7333 45.2687 36.1105C48.9227 39.4483 52.4752 39.7518 56.6366 39.954C59.0726 40.1563 61.4071 40.1563 64.1476 41.1679C71.6586 43.5954 78.5605 51.2828 78.5605 56.5425C78.5605 62.3082 71.5571 64.7356 71.0496 64.7356C70.6436 64.7356 45.0657 65.2415 28.5213 65.2415"/>
	<path fill="white" d="M31.1604 3.74253C31.3634 3.74253 31.8709 3.74253 32.3784 3.74253C39.5848 4.65287 38.8743 8.49655 38.8743 8.49655L38.8743 15.1724C38.8743 15.1724 45.1673 17.2966 45.1673 22.1517C45.3703 26.7034 38.8743 31.0529 38.8743 31.0529C38.8743 31.0529 37.9608 31.2552 44.1523 37.0207C50.4453 42.7862 56.9412 40.3586 63.6402 42.2805C70.3391 44.4046 76.9366 51.6874 76.9366 55.9356C76.9366 60.2851 70.6436 62.6115 70.6436 62.6115C70.6436 62.6115 45.0658 63.1172 28.2169 63.1172C21.5179 63.1172 15.9355 63.1172 14.5145 62.9149C9.43949 62.2069 7.0035 57.6552 5.37951 51.5862C3.65402 45.6184 8.72899 31.154 9.94698 19.9264C11.165 8.90115 14.3115 6.97931 17.6609 6.97931C21.2134 6.97931 20.7059 10.1149 23.6494 10.1149C23.8524 10.1149 23.8524 10.1149 24.1569 10.1149C27.3034 10.0138 25.3749 3.74253 31.1604 3.74253M31.1604 0.404598C25.5779 0.404598 23.9539 4.24828 23.2434 6.17011C22.3299 5.25977 20.8074 4.04598 17.9654 3.74253C9.54099 3.74253 7.6125 12.1379 6.699 19.623C6.19151 23.669 5.27801 28.5241 4.26302 32.8736C2.53753 41.0667 0.913536 48.046 2.33453 52.5977C4.06002 58.3632 6.902 65.3425 14.413 66.2529C15.3265 66.4552 17.7624 66.4552 28.4199 66.4552C45.0658 66.4552 70.5421 65.9494 70.8466 65.9494L71.8616 65.7471C75.0081 64.8368 80.2861 61.3977 80.2861 55.9356C80.2861 49.6644 72.7751 41.269 64.6552 38.8414C61.8132 37.931 59.0727 37.931 56.7382 37.6276C52.6782 37.4253 49.5318 37.1218 46.3853 34.2897C45.1673 33.0759 44.2538 32.1655 43.5433 31.4575C45.9793 29.3333 48.8213 25.8943 48.6183 21.646C48.4153 17.2966 45.2688 14.4644 42.3253 12.7448L42.3253 8.3954C42.3253 7.18161 42.1223 5.56322 40.9043 3.84368C39.1788 1.71954 36.5398 0.505747 32.6829 0C32.3784 0.404598 31.8709 0.404598 31.1604 0.404598"/>
	<path fill="#131411" d="M40.752 22.4551C40.752 21.4436 39.737 20.5333 38.8235 20.5333L25.1211 20.5333C24.1061 20.5333 23.1926 21.5448 23.1926 22.4551C23.1926 23.4666 24.2076 24.3769 25.1211 24.3769L38.8235 24.3769C39.94 24.3769 40.752 23.6689 40.752 22.4551"/>
	<path fill="#2D1B0A" d="M38.8235 24.4781L25.1211 24.4781C24.2076 24.4781 23.0911 23.5677 23.0911 22.4551C23.0911 21.5448 24.0046 20.4321 25.1211 20.4321L38.8235 20.4321C39.737 20.4321 40.8535 21.3425 40.8535 22.4551C40.8535 23.6689 40.0415 24.4781 38.8235 24.4781M25.1211 20.6344C24.1061 20.6344 23.2941 21.6459 23.2941 22.4551C23.2941 23.4666 24.3091 24.2758 25.1211 24.2758L38.8235 24.2758C39.94 24.2758 40.6506 23.5677 40.6506 22.4551C40.6506 21.4436 39.6355 20.6344 38.8235 20.6344L25.1211 20.6344"/>
	<path fill="#131411" d="M37.3055 41.6735L30.8095 46.2253C30.3407 46.5287 30.099 47.4391 30.6065 47.9448C30.911 48.3494 31.8245 48.6529 32.332 48.1471L38.828 43.5954C39.5385 43.0896 39.5385 42.3816 39.031 41.8758C38.7265 41.4086 37.813 41.1678 37.3055 41.6735"/>
	<path fill="#2D1B0A" d="M31.6171 48.5517C31.6171 48.5517 31.5156 48.5517 31.5156 48.5517C31.1096 48.5517 30.7036 48.3494 30.5006 48.046C30.1961 47.8437 30.1961 47.5402 30.1961 47.2368C30.1961 46.8322 30.3991 46.4276 30.7036 46.2253L37.1995 41.6735C37.4025 41.3701 37.707 41.3701 38.113 41.3701C38.519 41.3701 38.925 41.5724 39.128 41.8758C39.4325 42.1793 39.534 42.4827 39.534 42.7862C39.534 43.1908 39.331 43.4942 38.925 43.6965L32.4291 48.2483C32.2261 48.4506 31.9216 48.5517 31.6171 48.5517M38.0115 41.5724C37.8085 41.5724 37.6055 41.5724 37.4025 41.7747L30.9066 46.3264C30.7036 46.5287 30.5006 46.8322 30.5006 47.1356C30.5006 47.3379 30.5006 47.6414 30.7036 47.8437C30.9066 48.046 31.2111 48.2483 31.6171 48.2483C31.8201 48.2483 32.1246 48.2483 32.3276 48.046L38.8235 43.4942C39.128 43.2919 39.331 42.9885 39.331 42.685C39.331 42.3816 39.2295 42.1793 39.0265 41.8758C38.722 41.7747 38.4175 41.5724 38.0115 41.5724"/>
	<path fill="#131411" d="M48.6689 45.2137L43.391 50.4735C42.8835 50.9793 42.8835 51.6873 43.391 52.193C43.8985 52.6988 44.609 52.6988 45.1165 52.193L50.3944 46.9333C50.5974 46.5287 50.5974 45.7195 50.3944 45.2137C49.8869 44.708 49.1764 44.708 48.6689 45.2137"/>
	<path fill="#2D1B0A" d="M44.3045 52.6988C44 52.6988 43.594 52.5976 43.391 52.2942C42.782 51.6873 42.782 50.9792 43.391 50.3723L48.6689 45.1126C49.2779 44.5057 49.9884 44.5057 50.5974 45.1126C50.8004 45.6183 50.8004 46.5287 50.5974 46.9333L45.3195 52.193C44.9135 52.5976 44.609 52.6988 44.3045 52.6988M48.6689 45.2137L43.4925 50.5746C43.0865 50.9792 43.0865 51.6873 43.4925 52.0919C43.8985 52.4965 44.609 52.4965 45.015 52.0919L50.2929 46.8321C50.4959 46.4275 50.4959 45.7195 50.2929 45.2137C49.7854 44.8091 49.1764 44.9103 48.6689 45.2137"/>
	<path fill="#131411" d="M76.3784 66.3034C75.2619 66.3034 74.1454 66.5057 73.1304 66.8092L70.4914 64.4827C70.5929 64.4827 70.6944 64.4827 70.6944 64.4827C71.3034 64.4827 78.3069 61.8529 78.6114 56.2896C78.6114 50.7264 71.6079 43.0391 64.1984 40.9149C61.5595 40.2069 59.1235 40.0046 56.6875 39.701C52.6275 39.4988 48.9735 39.1954 45.3195 35.8575C42.8836 33.7332 41.6656 32.216 41.2596 31.5079C43.3911 29.7884 47.248 26.2482 47.045 21.8987C46.842 17.5493 42.6806 14.9194 40.7521 14.0092L40.7521 8.44591C40.7521 7.94017 40.7521 6.52407 39.8386 5.10798C38.4176 3.38844 36.1846 2.2758 32.8351 1.97235C32.0231 1.97235 31.5156 1.97235 31.1096 1.97235C26.5422 1.97235 25.3242 5.10798 24.6137 7.02982C24.4107 7.53557 24.1062 8.44591 23.9032 8.44591C23.1927 8.44591 22.9897 8.24361 22.2792 7.73787C21.5687 6.82752 20.3507 5.61373 17.9147 5.61373C12.4337 5.61373 9.49025 9.96315 8.27226 19.9769C7.76476 24.0229 6.85127 28.878 5.83627 33.4299C4.11078 41.3195 2.68979 48.2988 3.70479 52.3447C4.51678 55.3792 5.83627 58.8184 7.96776 61.347L5.32878 67.9218C2.89279 69.7425 1.2688 72.6758 1.2688 76.0137C1.2688 81.577 5.83627 86.1287 11.4187 86.1287C17.0012 86.1287 21.5687 81.577 21.5687 76.0137C21.5687 75.0023 21.3657 73.8895 21.0612 72.9792L24.3092 72.9792C23.9032 73.9908 23.7002 75.1033 23.7002 76.3172C23.7002 81.577 28.0646 85.9264 33.3426 85.9264C38.6206 85.9264 42.9851 81.577 42.9851 76.3172C42.9851 75.1033 42.7821 73.9908 42.3761 72.9792L45.624 72.9792C45.2181 74.0919 44.9136 75.3056 44.9136 76.5194C44.9136 81.7793 49.278 86.1287 54.556 86.1287C59.834 86.1287 64.1984 81.7793 64.1984 76.5194C64.1984 75.3056 63.9954 74.0919 63.4879 72.9792L66.7359 72.9792C66.3299 74.0919 66.1269 75.3056 66.1269 76.5194C66.1269 82.0826 70.6944 86.6345 76.2769 86.6345C81.8593 86.6345 86.4268 82.0826 86.4268 76.5194C86.4268 70.9563 81.9608 66.3034 76.3784 66.3034M11.5202 84.0046C7.05427 84.0046 3.40029 80.3632 3.40029 75.9126C3.40029 74.7999 3.60329 73.7885 4.00928 72.8781L19.0312 72.8781C19.4372 73.7885 19.6402 74.7999 19.6402 75.9126C19.6402 80.3632 15.9862 84.0046 11.5202 84.0046M33.4441 83.8023C29.2826 83.8023 25.8317 80.3632 25.8317 76.216C25.8317 75.0023 26.1362 73.8895 26.6437 72.8781L40.2446 72.8781C40.7521 73.8895 41.0566 75.0023 41.0566 76.216C41.0566 80.3632 37.6056 83.8023 33.4441 83.8023M54.6575 84.0046C50.496 84.0046 47.045 80.5655 47.045 76.4184C47.045 75.1033 47.3495 73.8895 47.9585 72.8781L61.458 72.8781C62.067 73.8895 62.3715 75.1033 62.3715 76.4184C62.27 80.5655 58.819 84.0046 54.6575 84.0046M61.052 62.7631L11.3172 59.4253L9.18576 59.931C7.46026 57.908 6.24227 54.9747 5.32878 51.5356C3.60329 45.5678 8.67826 31.1033 9.89625 19.8757C11.1142 8.85051 14.2607 6.92867 17.6102 6.92867C21.1627 6.92867 20.6552 10.0643 23.5987 10.0643C23.8017 10.0643 23.8017 10.0643 24.1062 10.0643C27.2527 9.96315 25.3242 3.69189 31.1096 3.69189C31.3126 3.69189 31.8201 3.69189 32.3276 3.69189C39.5341 4.60224 38.8236 8.44591 38.8236 8.44591L38.8236 15.1217C38.8236 15.1217 45.1166 17.2459 45.1166 22.101C45.3195 26.6528 38.8236 31.0022 38.8236 31.0022C38.8236 31.0022 37.9101 31.2045 44.1016 36.9701C50.3945 42.7355 56.8905 40.308 63.5894 42.2299C70.2884 44.3034 76.8859 51.6367 76.8859 55.885C76.8859 60.2345 70.5929 62.5609 70.5929 62.5609C70.5929 62.5609 66.7359 62.6621 61.052 62.7631M76.3784 84.5103C71.9124 84.5103 68.2584 80.8689 68.2584 76.4184C68.2584 75.1033 68.5629 73.9908 69.0704 72.8781L74.9574 72.8781C74.9574 72.8781 76.8859 71.0574 74.8559 68.4276C75.3634 68.3263 75.8709 68.3263 76.3784 68.3263C80.8443 68.3263 84.4983 71.9678 84.4983 76.4184C84.4983 80.8689 80.8443 84.5103 76.3784 84.5103"/>
	<path fill="#2D1B0A" d="M76.3784 86.685C70.6945 86.685 66.127 82.1333 66.127 76.4689C66.127 75.3563 66.3299 74.1425 66.736 73.0298L63.7924 73.0298C64.1984 74.1425 64.4015 75.2551 64.4015 76.4689C64.4015 81.8298 60.037 86.1793 54.6575 86.1793C49.278 86.1793 44.9136 81.8298 44.9136 76.4689C44.9136 75.2551 45.1166 74.1425 45.5225 73.0298L42.6806 73.0298C43.0866 74.0413 43.1881 75.154 43.1881 76.2666C43.1881 81.6275 38.8236 85.977 33.4441 85.977C28.0646 85.977 23.7003 81.6275 23.7003 76.2666C23.7003 75.154 23.9032 74.1425 24.2078 73.0298L21.3658 73.0298C21.6702 73.9402 21.7717 74.9517 21.7717 75.9632C21.7717 81.6275 17.2043 86.1793 11.5203 86.1793C5.83632 86.1793 1.26885 81.6275 1.26885 75.9632C1.26885 72.7264 2.79134 69.7931 5.32883 67.8712L7.86631 61.4988C6.03932 59.4758 4.71983 56.5425 3.60334 52.4965C2.58834 48.5517 3.90784 41.8758 5.73482 33.4804C6.85132 28.5241 7.66331 23.7701 8.17081 20.0275C9.3888 10.0138 12.3323 5.56318 17.7118 5.56318C20.3507 5.56318 21.6702 6.77697 22.3808 7.68732C23.0912 8.29421 23.2943 8.39536 23.7003 8.39536C24.0048 8.29421 24.2078 7.68732 24.4107 7.38387C24.4107 7.28272 24.5123 7.18157 24.5123 7.08042C25.2227 5.25973 26.4408 1.9218 31.1096 1.9218L32.8351 1.9218C36.0831 2.22525 38.4176 3.23674 39.9401 5.05743C40.8536 6.47352 40.8536 7.88962 40.8536 8.49651L40.8536 13.9586C42.0716 14.5655 46.9436 17.1954 47.1465 21.9494C47.248 25.085 45.3195 28.4229 41.3611 31.5586C41.8686 32.3678 43.0866 33.885 45.3195 35.8069C48.7705 39.0436 52.2215 39.4482 56.586 39.6505C56.9921 39.7517 57.398 39.7517 57.9055 39.8528C59.9355 40.0551 61.9655 40.3586 64.1984 40.9655C71.5065 43.0896 78.713 50.777 78.713 56.4413C78.4085 62.0046 71.5065 64.7356 71.1004 64.7356L73.2319 66.8597C74.247 66.5563 75.3634 66.354 76.4799 66.354C82.1638 66.354 86.7314 70.9057 86.7314 76.5701C86.7314 82.2344 82.0624 86.685 76.3784 86.685M63.3864 72.8275L67.0405 72.8275C66.533 74.1425 66.3299 75.3563 66.3299 76.5701C66.3299 82.0321 70.796 86.5839 76.3784 86.5839C81.9609 86.5839 86.4268 82.1333 86.4268 76.5701C86.4268 71.0069 81.9609 66.5563 76.3784 66.5563C75.262 66.5563 74.247 66.7586 73.2319 67.062L70.187 64.4321C71.7094 64.331 78.2055 61.6 78.5099 56.3402C78.5099 50.6758 71.405 43.1908 64.1984 41.0666C62.067 40.4597 59.9355 40.2574 58.007 40.0551C57.601 40.0551 57.195 39.954 56.6875 39.8528C52.2215 39.6505 48.7705 39.2459 45.2181 36.0092C42.8836 33.9862 41.5641 32.4689 41.1581 31.6597C45.1166 28.2207 47.045 25.085 46.9436 21.9494C46.7405 17.1954 41.7671 14.6666 40.7521 14.1609L40.6507 8.49651C40.6507 7.99077 40.6507 6.57467 39.7371 5.25973C38.2146 3.43904 35.9816 2.42755 32.8351 2.22525L31.1096 2.22525C26.5422 2.22525 25.4258 5.36088 24.7153 7.18157C24.7153 7.28272 24.6138 7.38387 24.6138 7.48502C24.3092 8.29421 24.1063 8.69881 23.9032 8.69881C23.1928 8.69881 22.9897 8.49651 22.4823 8.19306C21.4673 7.08042 20.2493 5.86663 17.9148 5.86663C12.4338 5.86663 9.5918 10.216 8.37381 20.1287C7.86631 23.8712 7.05432 28.6252 5.93782 33.5816C4.11083 41.8758 2.79134 48.5517 3.80634 52.3954C4.92283 56.3402 6.24232 59.2735 8.06931 61.2965L5.53183 68.0735C2.99434 69.9954 1.57335 72.9287 1.57335 76.0643C1.57335 81.5264 6.03932 86.0781 11.6217 86.0781C17.2043 86.0781 21.6702 81.6275 21.6702 76.0643C21.6702 75.0528 21.4673 74.0413 21.1628 73.0298L24.6138 72.8275C24.1063 74.1425 23.9032 75.2551 23.9032 76.3678C23.9032 81.6275 28.1662 85.8758 33.4441 85.8758C38.7221 85.8758 42.9851 81.6275 42.9851 76.3678C42.9851 75.2551 42.7822 74.1425 42.3761 73.0298L45.827 72.8275C45.3195 74.1425 45.0151 75.3563 45.0151 76.5701C45.0151 81.8298 49.278 86.0781 54.556 86.0781C59.834 86.0781 64.0969 81.8298 64.0969 76.5701C64.0969 75.3563 63.8939 74.2436 63.3864 73.0298M76.3784 84.662C71.811 84.662 68.157 81.0207 68.157 76.4689C68.157 75.2551 68.4614 74.0413 68.969 72.8275L74.8559 72.7264C75.1605 72.4229 76.5815 70.8046 74.7545 68.4781C75.3634 68.1747 75.8709 68.1747 76.3784 68.1747C80.9459 68.1747 84.5999 71.8161 84.5999 76.3678C84.5999 80.9195 80.9459 84.662 76.3784 84.662M69.172 73.0298C68.6645 74.1425 68.36 75.2551 68.36 76.4689C68.36 80.8184 71.9125 84.4597 76.3784 84.4597C80.8444 84.4597 84.3969 80.9195 84.3969 76.4689C84.3969 72.0184 80.8444 68.4781 76.3784 68.4781C75.9725 68.4781 75.5665 68.4781 75.1605 68.5793C76.9874 71.108 75.059 72.9287 75.059 73.0298L69.172 73.0298M54.6575 84.1563C50.3946 84.1563 46.9436 80.7172 46.9436 76.4689C46.9436 75.2551 47.248 73.9402 47.857 72.8275L61.458 72.7264C62.067 73.9402 62.3715 75.154 62.3715 76.4689C62.3715 80.7172 58.9205 84.1563 54.6575 84.1563M47.9585 73.0298C47.451 74.0413 47.1465 75.2551 47.1465 76.4689C47.1465 80.6161 50.496 83.954 54.6575 83.954C58.819 83.954 62.1685 80.6161 62.1685 76.4689C62.1685 75.2551 61.864 74.1425 61.3565 73.0298L47.9585 73.0298M11.5203 84.1563C6.95282 84.1563 3.29884 80.5149 3.29884 75.9632C3.29884 74.9517 3.50184 73.839 3.90784 72.9287L19.1327 72.8275C19.5387 73.9402 19.7418 74.9517 19.7418 75.9632C19.7418 80.5149 16.0877 84.1563 11.5203 84.1563M4.11083 73.0298C3.70484 73.9402 3.60334 74.9517 3.60334 75.9632C3.60334 80.3126 7.15582 83.954 11.6217 83.954C16.0877 83.954 19.6403 80.4138 19.6403 75.9632C19.6403 74.9517 19.4373 73.9402 19.1327 73.0298L4.11083 73.0298M33.4441 83.954C29.1812 83.954 25.7302 80.5149 25.7302 76.2666C25.7302 75.0528 26.0347 73.9402 26.5422 72.8275L40.3461 72.7264C40.8536 73.9402 41.1581 75.0528 41.1581 76.2666C41.1581 80.5149 37.7071 83.954 33.4441 83.954M26.7453 73.0298C26.2378 74.0413 26.0347 75.154 26.0347 76.2666C26.0347 80.4138 29.3841 83.7517 33.5456 83.7517C37.7071 83.7517 41.0566 80.4138 41.0566 76.2666C41.0566 75.154 40.8536 74.0413 40.3461 73.0298L26.7453 73.0298M61.052 62.9149L11.3173 59.577L9.18581 60.0827C7.46031 58.1609 6.24232 55.4298 5.22733 51.485C4.21233 47.8436 5.63333 40.9655 7.25732 33.6827C8.27231 29.0298 9.2873 24.1747 9.7948 19.8252C11.1143 8.29421 14.4637 6.77697 17.6103 6.77697C19.6403 6.77697 20.3507 7.58617 21.0613 8.49651C21.6702 9.20456 22.2793 9.9126 23.5988 9.9126C25.3243 9.9126 25.7302 8.79996 26.2378 7.48502C26.8468 5.76548 27.6588 3.54019 31.1096 3.54019L32.3276 3.54019C35.2711 3.94479 37.3011 4.75398 38.3161 6.17008C39.1281 7.28272 39.0266 8.39536 38.9251 8.39536L38.9251 14.9701C39.7371 15.2735 45.2181 17.4988 45.2181 22.0505C45.421 26.6023 39.2296 30.8505 38.9251 31.0528C38.9251 31.154 39.1281 32.1655 44.2031 36.8184C48.2631 40.5609 52.4245 40.8643 56.6875 41.0666C58.9205 41.1678 61.255 41.3701 63.5894 41.977C70.4915 44.2023 76.9874 51.5862 76.9874 55.7333C76.9874 60.0827 70.8975 62.4092 70.5929 62.5103C70.5929 62.7126 66.736 62.8138 61.052 62.9149M11.3173 59.3747L61.052 62.7126C66.533 62.6115 70.2885 62.5103 70.5929 62.5103C70.999 62.4092 76.7845 60.0827 76.7845 55.9356C76.7845 51.8896 70.39 44.6069 63.5894 42.3816C61.255 41.6735 59.022 41.5724 56.789 41.4712C52.4245 41.1678 48.2631 40.9655 44.1017 37.1218C41.5641 34.7954 38.5191 31.7609 38.7221 31.0528C38.7221 30.9517 38.8236 30.9517 38.8236 30.9517C39.1281 30.7494 45.2181 26.5011 45.0151 22.1517C45.0151 17.3977 38.8236 15.2735 38.8236 15.2735L38.7221 8.49651C38.7221 8.49651 38.9251 7.48502 38.1131 6.37237C37.1996 5.05743 35.1696 4.14709 32.3276 3.84364L31.1096 3.84364C27.8617 3.84364 27.1513 5.86663 26.4408 7.58617C25.9333 8.90111 25.5273 10.1149 24.1063 10.216C22.0763 10.216 21.4673 9.40686 20.8582 8.69881C20.2493 7.88962 19.5387 7.08042 17.8132 7.08042C14.5653 7.08042 11.3173 8.59766 9.9978 19.9264C9.4903 24.2758 8.47531 29.131 7.46031 33.7839C5.83632 41.0666 4.41533 47.8436 5.43033 51.485C6.44532 55.3287 7.66331 57.9586 9.18581 59.7793L11.3173 59.3747"/>
</svg>
