<?xml version="1.0" encoding="utf-8" ?>
<svg xmlns="http://www.w3.org/2000/svg" xmlns:xlink="http://www.w3.org/1999/xlink" width="102" height="60">
	<path fill="white" d="M95.3082 10.9831L93.8887 10.9831L93.8887 6.61017C93.6859 2.94915 90.8469 0 87.1968 0L84.7634 0C81.1133 0 78.0716 2.84746 78.0716 6.71186L78.0716 22.3729L23.9284 22.3729L23.9284 6.71186C23.9284 3.05085 21.0895 0 17.2366 0L14.8032 0C11.1531 0 8.11133 2.84746 8.11133 6.71186L8.11133 11.0847L6.69185 11.0847C3.04175 11.0847 0 13.9322 0 17.7966L0 42.2034C0 45.8644 2.83897 48.9153 6.69185 48.9153L8.11133 48.9153L8.11133 53.2881C8.11133 56.9492 10.9503 60 14.8032 60L17.2366 60C20.8867 60 23.9284 57.1525 23.9284 53.2881L23.9284 36.6102L78.0716 36.6102L78.0716 53.2881C78.0716 56.9492 80.9105 60 84.7634 60L87.1968 60C90.8469 60 93.8887 57.1525 93.8887 53.2881L93.8887 48.9153L95.3082 48.9153C98.9583 48.9153 102 46.0678 102 42.2034L102 17.6949C102 14.0339 99.161 10.9831 95.3082 10.9831"/>
	<path fill="#3F414C" d="M9.12525 46.2712L6.69185 46.2712C4.96819 46.2712 3.54871 44.7458 3.54871 43.0171L3.54871 17.5933C3.54871 15.7628 4.96819 14.3391 6.69185 14.3391L9.12525 14.3391C10.8489 14.3391 12.2684 15.8645 12.2684 17.5933L12.2684 43.0171C12.2684 44.8475 10.7475 46.2712 9.12525 46.2712"/>
	<path fill="#2D1B0A" d="M9.12525 47.7968L6.69185 47.7968C4.15705 47.7968 2.02783 45.6612 2.02783 43.0171L2.02783 17.5934C2.02783 14.9493 4.15705 12.8137 6.69185 12.8137L9.12525 12.8137C11.66 12.8137 13.7892 14.9493 13.7892 17.5934L13.7892 43.0171C13.7892 45.6612 11.66 47.7968 9.12525 47.7968M6.69185 15.8645C5.77932 15.8645 5.06958 16.6781 5.06958 17.5934L5.06958 43.0171C5.06958 43.9323 5.77932 44.7459 6.69185 44.7459L9.12525 44.7459C9.83499 44.7459 10.7475 43.9323 10.7475 43.0171L10.7475 17.5934C10.7475 16.6781 10.0378 15.8645 9.12525 15.8645L6.69185 15.8645"/>
	<path fill="#3F414C" d="M17.2369 56.8983L14.6007 56.8983C12.7757 56.8983 11.2548 55.4745 11.2548 53.6441L11.2548 6.35589C11.2548 4.62707 12.7757 3.10165 14.6007 3.10165L17.2369 3.10165C19.062 3.10165 20.5828 4.52538 20.5828 6.35589L20.5828 53.6441C20.7856 55.4745 19.2647 56.8983 17.2369 56.8983"/>
	<path fill="#2D1B0A" d="M17.2366 58.4237L14.6004 58.4237C11.8628 58.4237 9.7336 56.2881 9.7336 53.644L9.7336 6.35586C9.7336 3.71179 11.9642 1.5762 14.6004 1.5762L17.2366 1.5762C19.9742 1.5762 22.1034 3.71179 22.1034 6.35586L22.1034 53.644C22.2048 54.7626 21.9006 55.983 21.0895 56.7965C20.1769 57.8135 18.7575 58.4237 17.2366 58.4237M14.6004 4.62705C13.5865 4.62705 12.7753 5.44061 12.7753 6.35586L12.7753 53.644C12.7753 54.5593 13.5865 55.3728 14.6004 55.3728L17.2366 55.3728C17.8449 55.3728 18.4533 55.1694 18.8588 54.7626C19.0616 54.4576 19.163 54.2542 19.163 53.8474L19.163 6.35586C19.163 5.44061 18.3519 4.62705 17.338 4.62705L14.6004 4.62705"/>
	<path fill="#F2F2F2" d="M20.5826 25.6271L80.8092 25.6271L80.8092 33.3559L20.5826 33.3559L20.5826 25.6271"/>
	<path fill="#2D1B0A" d="M81.8232 34.3729L19.5687 34.3729L19.5687 24.6102L81.8232 24.6102L81.8232 34.3729M21.5965 32.339L79.7953 32.339L79.7953 26.6441L21.5965 26.6441L21.5965 32.339"/>
	<path fill="#3F414C" d="M92.8762 46.1695L95.3096 46.1695C97.0333 46.1695 98.4527 44.6441 98.4527 42.8136L98.4527 17.1864C98.4527 15.3559 97.0333 13.8305 95.3096 13.8305L92.8762 13.8305C91.1526 13.8305 89.7149 15.3559 89.7149 17.1864L89.7149 42.8136C89.5303 44.6441 91.0512 46.1695 92.8762 46.1695"/>
	<path fill="#2D1B0A" d="M95.3082 47.6949L92.8748 47.6949C91.5567 47.6949 90.2386 47.0848 89.3261 46.0678C88.5149 45.1526 88.1954 43.9322 88.1954 42.7119L88.1954 17.1865C88.1954 14.5424 90.34 12.3051 92.8748 12.3051L95.3082 12.3051C97.843 12.3051 99.9722 14.4407 99.9722 17.1865L99.9722 42.8136C99.9722 45.5593 97.9444 47.6949 95.3082 47.6949M92.8748 15.4576C91.9622 15.4576 91.2525 16.2712 91.2525 17.2882L91.2525 43.1187C91.1511 43.6271 91.4553 43.9322 91.5567 44.1356C91.8609 44.5424 92.3678 44.7458 92.8748 44.7458L95.3082 44.7458C96.2207 44.7458 96.9304 43.9322 96.9304 42.9153L96.9304 17.2882C96.9304 16.2712 96.2207 15.4576 95.3082 15.4576L92.8748 15.4576"/>
	<path fill="#3F414C" d="M84.2565 56.644L86.8927 56.644C88.8191 56.644 90.34 55.2202 90.34 53.4915L90.34 6.71179C90.34 4.98298 88.8191 3.55925 86.8927 3.55925L84.2565 3.55925C82.33 3.55925 80.8092 4.98298 80.8092 6.71179L80.8092 53.4915C80.8092 55.2202 82.5328 56.644 84.2565 56.644"/>
	<path fill="#2D1B0A" d="M86.8927 58.1695L84.2565 58.1695C81.6203 58.1695 79.2883 56.0339 79.2883 53.4915L79.2883 6.71187C79.2883 4.0678 81.5189 2.0339 84.2565 2.0339L86.8927 2.0339C89.6302 2.0339 91.8609 4.16949 91.8609 6.71187L91.8609 53.4915C91.8609 56.0339 89.6302 58.1695 86.8927 58.1695M84.2565 4.98305C83.2426 4.98305 82.33 5.69492 82.33 6.61017L82.33 53.3898C82.33 54.2034 83.2426 55.017 84.2565 55.017L86.8927 55.017C87.9066 55.017 88.8191 54.3051 88.8191 53.3898L88.8191 6.61017C88.8191 5.69492 87.9066 4.98305 86.8927 4.98305L84.2565 4.98305"/>
</svg>
