<?xml version="1.0" encoding="utf-8" ?>
<svg xmlns="http://www.w3.org/2000/svg" xmlns:xlink="http://www.w3.org/1999/xlink" width="126" height="70">
	<path fill="white" d="M63.629 15.7776C64.6286 12.207 67.3277 7.82025 70.2267 5.06578C73.0257 2.51534 76.5245 0.883056 80.7231 0.168932C84.3218 -0.341156 90.6196 0.883056 93.9184 2.3113C97.1172 3.4335 102.116 6.18797 108.213 12.6151C113.811 18.7361 117.61 25.5713 118.61 28.4278C119.31 30.1621 119.21 31.9984 119.01 33.2226C119.21 33.6307 119.409 34.0388 119.609 34.4469C120.109 35 120.409 35.365 120.509 35.467L125.107 46.893C125.107 46.893 125.107 47.9132 125.008 48.2192C125.207 48.7293 125.907 52.1979 125.907 53.0141C126.307 55.5645 125.407 58.1149 123.308 60.8694C123.308 60.8694 116.91 67.1945 110.213 69.3369C109.113 69.7449 108.013 69.949 106.914 69.949C103.815 69.949 101.716 68.1127 101.516 67.9086C101.516 67.9086 98.9167 64.7461 98.6168 64.236C97.9171 64.134 97.3173 63.9299 96.8174 63.5219C95.118 62.3997 89.0201 53.6262 89.0201 53.6262C88.8202 53.2181 88.1205 51.6878 87.9205 51.2798C87.2207 49.4434 88.2204 47.5051 90.6196 45.7708C90.5196 45.5668 90.4196 45.3627 90.4196 45.0567C89.3201 44.7506 87.6207 44.1385 85.1215 43.3224C81.9226 42.4042 79.6234 41.18 78.124 40.1598C76.8243 40.5679 75.4249 40.3639 74.5252 39.9558C70.5266 38.3235 67.0278 34.7529 64.3287 29.754C61.6297 24.4491 62.9292 18.2261 63.629 15.7776"/>
	<path fill="#5DDEE2" d="M102.016 63.8789C100.616 62.3487 100.516 61.0225 100.516 61.0225C99.4166 61.8386 98.6168 61.2265 98.6168 61.2265C96.9174 60.1043 94.5183 56.1256 93.9185 55.3095C93.3187 54.1873 92.419 53.0651 91.7193 52.2489C91.2194 51.4328 91.5193 51.1267 91.2194 50.9227C90.9195 50.7187 90.7196 50.3106 90.7196 50.3106C90.2198 48.9844 94.3184 46.842 94.3184 46.842C93.4187 45.3117 92.8189 42.8633 92.8189 42.8633C92.8189 42.8633 90.8196 42.2512 86.1212 40.6189C81.123 39.0887 78.6238 36.9463 78.6238 36.9463C77.5242 38.0685 75.8248 37.4564 75.8248 37.4564C72.2261 35.9261 69.2271 32.6616 67.0279 28.4788C64.8287 24.5001 65.5656 19.5013 66.4281 16.6448C67.2278 13.5843 69.7269 9.60558 72.2261 7.25917C75.0251 4.70873 78.3239 3.58654 81.3229 3.07645C84.4218 2.56636 90.2198 3.68856 93.2187 5.01478C96.0178 6.03496 100.716 8.48338 106.514 14.6044C112.112 20.7255 115.611 27.2546 116.411 29.499C117.21 31.6414 116.411 33.8858 116.411 33.8858C117.31 34.8039 117.51 36.1302 117.51 36.1302C118.11 36.6402 118.61 37.2524 118.61 37.2524C118.61 37.2524 122.508 47.1481 122.708 47.6581C122.708 48.2703 122.508 48.4743 122.508 48.4743C122.508 48.4743 122.908 49.4945 123.308 51.0247C123.708 52.555 123.508 53.2691 123.508 53.2691C124.008 55.2075 123.108 57.2478 121.609 59.1861C119.909 60.9204 112.812 65.6132 109.513 66.8375C106.114 68.2657 103.715 66.0213 103.715 66.0213C103.615 65.6132 102.815 64.8991 102.016 63.8789M91.8192 15.5226C91.0195 17.0529 90.3197 17.2569 89.9199 17.4609C89.52 17.665 87.5207 18.073 87.4208 18.073C87.4208 18.073 82.9223 18.2771 80.7231 18.6851C78.6238 19.1952 76.0247 19.8073 74.7252 21.5416C73.2257 23.2759 72.6259 26.3365 73.4256 28.5809C74.3253 30.7232 76.4246 34.7019 78.6238 36.4362C78.6238 36.4362 73.8255 30.7232 73.6256 28.0708C73.1258 25.6223 73.4256 22.5618 76.0247 20.6235C76.0247 20.6235 79.0237 18.8892 82.3225 18.6851C85.6214 18.3791 86.721 18.1751 87.5207 18.1751C88.3204 17.971 91.0195 16.8488 92.0192 17.0529C96.3177 18.073 97.4173 16.5428 99.8164 17.2569C99.8164 17.2569 97.7172 15.3186 95.218 15.8287C95.218 15.8287 97.2173 14.9105 98.5169 14.5024C98.5169 14.5024 97.4173 13.4822 94.5183 15.9307C94.5183 15.9307 93.9185 16.2367 93.7186 15.8287C93.7186 15.8287 95.318 15.6246 95.318 11.6459C95.318 11.6459 94.4183 12.7681 93.1188 15.0125C93.1188 15.0125 92.7189 13.8903 92.519 10.3197C92.3191 10.4217 92.7189 13.7883 91.8192 15.5226"/>
	<path fill="#2D1B0A" d="M107.214 68.0617C104.715 68.0617 103.115 66.5314 103.015 66.5314C102.616 66.0213 102.516 65.9193 102.416 65.7153C102.116 65.4092 101.716 65.0012 101.316 64.4911C100.616 63.6749 100.216 62.9608 99.9164 62.3487C99.1167 62.5527 98.317 62.2467 98.0171 61.9406C96.7175 61.1245 95.2181 58.8801 93.7186 56.7377C93.4187 56.3297 93.2188 56.0236 93.1188 55.8196C92.519 54.9014 91.8193 53.9833 91.3194 53.2691C90.6197 52.1469 90.5197 51.7389 90.5197 51.5348C90.2198 51.2288 90.0199 50.8207 89.9199 50.6167C89.4201 49.0864 91.2195 47.4541 93.1188 46.3319C92.619 45.3118 92.3191 44.1896 92.1192 43.5775C91.2195 43.2714 89.3201 42.6593 85.9213 41.5371C82.2226 40.4149 79.7235 38.8847 78.7238 38.1705C77.6242 38.7826 76.3247 38.5786 75.6249 38.2726C71.9262 36.7423 68.7273 33.4777 66.3282 28.7849C63.7291 24.0921 65.0286 18.3791 65.6284 16.1347C66.5281 12.9722 69.0272 8.78946 71.7263 6.23902C74.3254 3.89262 77.4243 2.46437 81.3229 1.85227C84.6218 1.34218 90.6197 2.46437 93.7186 3.89262C96.7175 4.91279 101.516 7.56525 107.414 13.7883C113.512 20.4195 116.811 27.1526 117.51 28.989C118.21 30.7233 117.91 32.5596 117.71 33.4777C118.21 34.1918 118.51 34.8944 118.61 35.4161C119.21 35.9261 119.609 36.4362 119.609 36.5383C119.71 36.7423 123.608 46.638 123.808 47.1481C123.908 47.9642 123.908 48.1683 123.808 48.4743C123.908 48.8824 124.208 49.6985 124.508 50.7187C124.817 52.0449 124.817 52.7591 124.708 53.1671C125.108 55.2075 124.408 57.4519 122.609 59.7983C120.709 61.7366 113.512 66.4294 110.113 67.8577C108.813 67.9597 108.014 68.0617 107.214 68.0617M104.415 65.1032C104.915 65.5113 106.614 66.6335 109.013 65.6133C112.112 64.3891 119.01 59.9003 120.709 58.166C122.209 56.3297 122.708 54.5954 122.409 53.1671C122.409 52.555 122.508 52.0449 122.209 50.8207C121.809 49.3925 121.409 48.3723 121.409 48.3723C121.509 47.4541 121.509 47.4541 121.509 47.3521C121.009 45.9239 118.01 38.3746 117.61 37.3544C117.51 37.1504 117.21 36.8443 116.811 36.5383C116.411 35.9261 116.211 34.8944 115.611 34.2939L115.311 33.1717C115.311 33.1717 116.011 31.2333 115.311 29.6011C114.511 27.3567 111.113 20.9296 105.614 15.0125C100.016 9.09552 95.518 6.64709 92.7189 5.62692C89.9199 4.40271 84.2219 3.28051 81.3229 3.68858C77.8242 4.19867 75.0251 5.5249 72.8259 7.56525C70.4267 9.80964 68.1275 13.6863 67.3278 16.5428C66.728 18.5832 65.7284 23.582 67.8277 27.6627C70.0269 31.9475 72.9259 34.8944 76.1247 36.2322C76.1247 36.2322 76.5246 36.3342 77.0244 36.3342C74.6253 33.7838 72.7259 29.499 72.526 28.989C71.6263 26.4385 72.2261 22.9699 73.9255 20.9296C75.425 18.7872 78.6239 18.1751 80.4232 17.767C82.6225 17.2569 87.1209 17.1549 87.3208 17.0529C87.5208 17.0529 88.4204 16.8489 89.0202 16.6448C89.2202 16.6448 89.3201 16.5428 89.5201 16.5428C89.9199 16.3388 90.3198 16.2367 90.9196 15.0125C91.3194 14.0944 91.4194 12.5641 91.3194 11.4419C91.3194 11.1359 91.3194 10.7278 91.2195 10.4217L93.2188 10.2177C93.2188 10.3197 93.3187 10.7278 93.3187 11.3399C93.3187 11.646 93.3187 11.85 93.4187 12.156C93.9185 11.4419 94.2184 11.0339 94.3184 11.0339L96.1178 8.9935L96.1178 11.646C96.1178 12.4621 96.0178 13.0742 95.9178 13.6863C97.8172 12.8702 98.7169 13.5843 98.9168 13.7883L100.116 14.9105L98.6169 15.4206C99.6165 15.9307 100.216 16.4408 100.316 16.5428L103.615 19.6033L99.3166 18.2771C98.5169 17.971 97.9171 18.0731 97.0174 18.2771C95.8179 18.4811 94.2184 18.6852 91.7193 18.0731C91.4194 17.971 90.8196 18.1751 90.2198 18.3791C90.1199 18.3791 89.9199 18.4811 89.72 18.4811C89.4201 18.5832 89.1202 18.6852 88.9203 18.7872C88.4204 18.9912 88.0206 19.0932 87.7207 19.1953C87.1209 19.1953 86.6211 19.2973 85.7214 19.2973C84.9217 19.3993 83.922 19.5013 82.4225 19.6033C79.6235 19.8074 77.0244 21.1336 76.6246 21.3376C74.1255 23.276 74.4253 26.4385 74.7252 27.7647C74.8252 29.499 77.7242 33.4777 79.4236 35.6201C79.3236 35.7221 81.8228 37.8645 86.5211 39.1907C91.2195 40.721 93.2188 41.4351 93.2188 41.4351C93.8186 42.1492 94.4184 44.3936 95.2181 45.9239L94.7927 47.3521C93.4187 48.1683 92.0192 49.1884 91.7193 49.6985C91.7193 49.6985 91.7193 49.8005 91.8193 49.8005C92.3191 50.1066 92.3191 50.6167 92.3191 50.8207C92.3191 50.9227 92.3191 51.1268 92.4191 51.3308C93.3187 52.453 94.0185 53.4732 94.6183 54.3913C94.7927 54.5954 95.0181 54.9014 95.318 55.3095C96.2177 56.6357 97.9171 59.1862 99.1167 60.0023C99.2167 60.1043 99.5166 60.2063 99.9164 59.9003L101.316 58.8801L101.516 60.6144C101.516 60.6144 101.716 61.6346 102.815 62.9608C103.215 63.3689 103.515 63.777 103.815 64.083C104.115 64.6951 104.315 64.8992 104.415 65.1032"/>
	<path fill="#131411" d="M121.809 47.7603C121.809 47.7603 120.509 53.8813 110.213 58.2681L104.915 46.434C104.915 46.434 118.51 39.9049 117.011 35.7222C117.011 35.7222 117.611 35.7222 118.31 36.8443L122.409 46.9441C121.909 46.9441 122.409 47.3522 121.809 47.7603"/>
	<path fill="#2D1B0A" d="M110.113 58.472L104.615 46.4339C104.815 46.2298 118.21 39.8027 116.711 35.722C116.811 35.518 117.511 35.518 118.21 36.6402L122.409 46.944C122.209 47.148 122.209 47.4541 121.809 47.6581C121.609 48.2702 119.91 54.0852 110.113 58.2679M105.015 46.5359L110.213 58.1659C120.21 53.7792 121.609 47.8621 121.609 47.7601C121.909 47.4541 121.909 47.25 121.909 47.148C121.909 47.046 121.909 46.944 122.009 46.944L118.01 36.9463C117.611 36.3341 117.211 36.0281 117.011 35.9261C118.11 40.0068 106.315 45.8218 105.015 46.5359"/>
	<path fill="white" d="M62.4296 15.7776C61.4299 12.207 58.7309 7.82025 55.8319 5.06578C53.0329 2.51534 49.534 0.883056 45.3356 0.168932C41.7368 -0.341156 35.4389 0.883056 32.1402 2.3113C28.9412 3.4335 23.9429 6.18797 17.8451 12.6151C12.2471 18.7361 8.44839 25.5713 7.44874 28.4278C6.74899 30.1621 6.84895 31.9984 7.04888 33.2226C6.84895 33.6307 6.64902 34.0388 6.44909 34.4469C5.94927 35 5.64937 35.365 5.54941 35.467L0.951013 46.893C0.951013 46.893 0.951013 47.9132 1.05098 48.2192C0.851048 48.7293 0.05865 52.1979 0.05865 53.0141C-0.248568 55.5645 0.651118 58.1149 2.75038 60.8694C2.75038 60.8694 9.14815 67.1945 15.8458 69.3369C16.9454 69.7449 18.045 69.949 19.1446 69.949C22.2435 69.949 24.3428 68.1127 24.5427 67.9086C24.5427 67.9086 27.1418 64.7461 27.4417 64.236C28.1415 64.134 28.7413 63.9299 29.2411 63.5219C30.9405 62.3997 37.0385 53.6262 37.0385 53.6262C37.2383 53.2181 37.938 51.6878 38.1381 51.2798C38.8377 49.4434 37.8382 47.5051 35.4389 45.7708C35.539 45.5668 35.6389 45.3627 35.6389 45.0567C36.7386 44.7506 38.438 44.1385 40.937 43.3224C44.136 42.4042 46.4352 41.18 47.9346 40.1598C49.2341 40.5679 50.6337 40.3639 51.5334 39.9558C55.532 38.3235 59.0308 34.7529 61.7298 29.754C64.3288 24.4491 63.0294 18.2261 62.4296 15.7776"/>
	<path fill="#5DDEE2" d="M22.4435 65.9193C22.4435 65.9193 20.0443 68.1637 16.6455 66.7355C13.3467 65.4091 6.34908 60.8184 4.54971 59.084C3.05024 57.1458 2.15055 55.1054 2.65037 53.167C2.65037 53.167 2.51155 52.555 2.85031 50.9226C3.35013 49.3925 3.65003 48.3722 3.65003 48.3722C3.65003 48.3722 3.45009 48.1683 3.45009 47.556C3.65003 47.0461 7.54866 37.1504 7.54866 37.1504C7.54866 37.1504 8.04849 36.5382 8.64828 36.0282C8.64828 36.0282 8.84821 34.7019 9.74789 33.7837C9.74789 33.7837 8.94817 31.5393 9.74789 29.3969C10.5476 27.1525 14.0463 20.6235 19.6445 14.5023C25.4425 8.38133 30.1408 5.93291 32.9398 4.91273C35.9388 3.58651 41.7368 2.46431 44.8357 2.9744C47.8346 3.48449 51.1334 4.50466 53.9324 7.15712C56.4315 9.60555 58.9308 13.5843 59.7304 16.5428C60.518 19.3993 61.2299 24.398 59.1306 28.3768C56.9314 32.5596 53.9324 35.8241 50.3338 37.3544C50.3338 37.3544 48.6343 37.9664 47.5347 36.8442C47.5347 36.8442 45.0355 39.0886 40.0373 40.5168C35.339 42.0471 33.3396 42.7612 33.3396 42.7612C33.3396 42.7612 32.7398 45.2097 31.8401 46.74C31.8401 46.74 35.9388 48.9844 35.4389 50.2085C35.4389 50.2085 35.239 50.7187 34.9391 50.8207C34.6392 51.0247 34.9391 51.3307 34.4393 52.1469C33.8395 52.9631 32.9398 54.0853 32.2401 55.2075C31.6403 56.0236 29.2411 60.0023 27.5416 61.1245C27.5416 61.1245 26.742 61.7365 25.6423 60.9205C25.6423 60.9205 25.4425 62.2467 24.1428 63.7769C23.3432 65.0012 22.4435 65.7152 22.4435 65.9193M32.9398 8.99344C32.7398 12.462 34.7392 16.9509 34.7392 16.9509C32.0401 11.952 28.7412 11.0338 28.7412 11.0338C30.2407 13.9924 34.2393 16.7467 34.2393 16.7467C33.4397 16.5428 31.8401 16.1347 31.8401 16.1347C28.8413 13.6862 27.2417 14.6045 27.2417 14.6045C28.5414 15.1145 32.14 16.7467 32.14 16.7467C29.6409 16.2367 24.6427 17.563 24.6427 17.563C27.1418 16.7467 33.7396 16.4408 34.5392 17.0528C35.339 17.665 37.8381 18.175 38.6378 18.3791C39.4375 18.3791 40.5372 18.583 43.836 18.8891C47.1348 19.0932 50.1338 20.8274 50.1338 20.8274C52.6329 22.7659 52.9328 25.9283 52.533 28.2747C52.333 30.8252 47.5347 36.6403 47.5347 36.6403C49.734 34.906 51.8332 30.9272 52.7328 28.7849C53.5326 26.5405 52.9328 23.4799 51.4333 21.7457C50.1338 20.0113 47.5347 19.2972 45.4355 18.8891C43.2362 18.3791 38.7378 18.2771 38.7378 18.2771C38.5378 18.2771 36.5386 17.7669 36.2387 17.665C35.7388 17.4609 35.139 17.1549 34.3392 15.7267C33.4397 13.8903 32.9398 8.99344 32.9398 8.99344"/>
	<path fill="#2D1B0A" d="M18.9446 68.1637C18.1449 68.1637 17.2452 68.0616 16.3456 67.6532C12.9467 66.3259 5.74926 61.6291 3.94988 59.7913C2.05055 57.3408 1.35079 55.1966 1.75065 53.0524C1.75065 52.644 1.6416 51.8272 1.95058 50.6019C2.25048 49.5809 2.55037 48.7641 2.65034 48.2536C2.55037 48.0494 2.55037 47.743 2.55037 47.3346L6.84887 36.4095C6.84887 36.3074 7.24873 35.7969 7.84852 35.2864C7.94849 34.8865 8.24838 34.0612 8.74821 33.3464C8.54828 32.4275 8.24838 30.6917 8.94814 28.8539C9.64789 27.016 12.9467 20.2772 19.0446 13.6405C24.9425 7.41214 29.7409 4.85955 32.7398 3.73641C35.8387 2.40906 41.8366 1.28592 45.1355 1.6092C49.0341 2.30696 52.133 3.73641 54.7321 6.08479C57.4312 8.63738 59.9303 12.8236 60.83 15.9888C61.4298 18.2351 62.6294 23.9529 60.1302 28.6497C57.7311 33.3464 54.4322 36.6138 50.8335 38.0432C50.1337 38.3495 48.8342 38.5537 47.6346 37.9411C46.535 38.7579 44.1358 40.2895 40.3372 41.3105C37.0383 42.4337 35.039 43.0463 34.1393 43.3526C33.9394 43.9652 33.6395 45.0883 33.1397 46.1094C35.039 47.2325 36.9384 48.8662 36.3386 50.3977C36.2386 50.6019 36.0387 51.0104 35.7388 51.3167C35.7388 51.623 35.6388 52.0314 35.3389 52.4398C34.2393 53.7671 33.5395 54.6861 33.1397 55.5029C32.9398 55.8092 32.7398 56.1155 32.4399 56.5239C31.0404 58.6681 29.441 60.9144 28.1414 61.7312C27.8415 61.9354 27.1418 62.2417 26.3421 62.0375C26.0422 62.6502 25.6423 63.3649 24.9425 64.1817C24.5427 64.5901 24.2428 65.1006 23.9429 65.407C23.8429 65.5091 23.743 65.7133 23.643 65.8154C23.0432 66.7343 21.4438 68.1637 18.9446 68.1637M5.3494 58.3618C7.0488 60.0976 13.9464 64.5901 17.0453 65.8154C19.4445 66.8364 21.1439 65.6112 21.6437 65.3049C21.7437 65.1006 22.0436 64.7943 22.3435 64.488C22.6434 64.1817 22.9432 63.7733 23.3431 63.3649C24.4427 62.0375 24.6427 61.0165 24.6427 61.0165L24.9425 59.3828L26.2421 60.4039C26.642 60.7102 26.8419 60.6081 26.9418 60.6081C28.1414 59.7913 29.8408 57.2387 30.7405 55.9113C31.0404 55.5029 31.2403 55.1966 31.4403 54.9924C32.0401 54.0735 32.7398 53.0524 33.3396 52.3377C33.7395 51.7251 33.7395 51.5209 33.7395 51.4188C33.7395 51.2146 33.8394 50.704 34.3393 50.2956C34.0394 49.7851 32.6399 48.662 31.2403 47.9472L30.8405 46.5178C31.6456 45.0883 32.24 42.8421 32.24 42.74C32.8398 42.0252 34.8391 41.4126 39.5374 39.779C44.2358 38.3495 46.7349 36.3074 46.7349 36.3074C48.4343 34.0612 51.2334 30.0791 51.3333 28.4455C51.5333 27.016 51.8331 23.8508 49.434 21.9108C49.0341 21.7066 46.435 20.2772 43.636 20.1751C42.1365 20.073 41.0369 19.9709 40.2372 19.8688C39.3375 19.7667 38.8377 19.7667 38.4378 19.7667C36.4385 19.3583 35.039 19.0519 34.0394 18.5414L31.8401 18.133C30.4406 18.133 28.3414 18.2351 26.7419 18.5414C25.8422 18.7456 25.1425 18.8477 24.7426 18.9498L24.1428 17.0099C24.5427 16.9078 25.2424 16.7036 25.9422 16.6015C26.442 16.4994 27.0418 16.3972 27.6416 16.2951C27.3417 16.193 27.0418 15.9888 26.8419 15.9888L24.8426 15.2741L26.7419 14.151C26.8419 14.0489 27.6416 13.6405 29.0411 13.9468C28.5413 13.3341 28.0415 12.6194 27.6416 11.9047L26.642 9.86262C24.7426 11.2921 22.5434 13.1299 20.2442 15.5804C14.8461 21.5024 11.3473 27.935 10.5476 30.1812C9.84782 31.917 10.5476 33.7549 10.5476 33.857L10.2477 34.9801C9.64789 35.5927 9.44796 36.6138 9.44796 36.6138C8.64824 37.6348 8.34835 37.9411 8.24838 38.1453L4.34974 48.1515C4.34974 48.1515 4.34974 48.1515 4.34974 48.2536C4.44971 49.1725 4.04985 50.1935 3.64999 51.7251C3.35009 52.8482 3.45006 53.4608 3.45006 53.4608C3.35009 54.7882 3.94988 56.5239 5.3494 58.3618M49.0341 36.5116C49.534 36.5116 49.9338 36.4095 49.9338 36.4095C53.1327 35.0822 55.9317 32.2233 58.2309 27.935C60.4301 23.9529 59.3305 18.8477 58.8307 16.8057C58.031 13.9468 55.7318 10.0668 53.3326 7.82055C51.0334 5.77848 48.2344 4.45113 44.8356 3.94062C41.9366 3.5322 36.2386 4.65534 33.5395 5.77848C31.8401 6.3911 29.6409 7.41214 27.0418 9.45421L29.1411 10.0668C29.241 10.0668 30.6406 10.4752 32.34 12.0068C32.14 10.9858 32.0401 9.96473 32.14 8.94369L34.1393 8.84159C34.2393 10.1689 34.7391 13.8447 35.4389 15.172C36.0387 16.2951 36.5385 16.4994 36.8384 16.6015C37.2382 16.8057 38.7377 17.112 39.0376 17.2141C39.1376 17.2141 43.636 17.4183 45.8352 17.9288C47.7346 18.3372 50.8335 19.0519 52.4329 21.1961C54.1323 23.2382 54.7321 26.7097 53.8324 29.1602C53.3326 29.6707 51.5333 33.9591 49.0341 36.5116"/>
	<path fill="#131411" d="M4.04996 45.7198C4.04996 45.7198 5.34951 51.8408 15.6459 56.2276L20.9441 44.3935C20.9441 44.3935 7.34881 37.8644 8.84828 33.6817C8.84828 33.6817 8.24849 33.6817 7.54874 34.8039L3.45017 44.9036C3.85003 44.9036 3.3502 45.3117 4.04996 45.7198"/>
	<path fill="#2D1B0A" d="M15.6459 56.4316C5.74936 52.2489 4.04995 46.4339 3.85002 45.8218C3.3502 45.5158 3.3502 45.2097 3.3502 45.1077L7.54873 34.8039C8.24849 33.5797 8.94824 33.5797 8.94824 33.5797C7.54873 37.7624 20.9441 44.2915 21.044 44.3936L15.6459 56.4316M3.75006 44.8016C3.85002 44.9037 3.85002 45.0057 3.85002 45.1077C3.85002 45.3117 3.85002 45.4137 4.14992 45.6178C4.14992 45.8218 5.54943 51.7388 15.5459 56.1256L20.7441 44.4956C19.3446 43.7815 7.6487 37.9665 8.64835 33.8858C8.44842 33.9878 8.04856 34.1918 7.6487 34.9059L3.75006 44.8016"/>
</svg>
