<?xml version="1.0" encoding="utf-8" ?>
<svg xmlns="http://www.w3.org/2000/svg" xmlns:xlink="http://www.w3.org/1999/xlink" width="72" height="86">
	<path fill="white" d="M30.3988 46.2983C30.195 45.9983 29.6854 44.0984 29.6854 44.0984C29.1758 42.3984 27.9527 39.0986 26.5259 36.6986C25.3028 34.2987 24.5894 31.4988 24.5894 29.0989C24.5894 25.999 24.997 21.2992 25.5066 19.3993C26.0163 16.7994 26.2201 14.1995 26.2201 12.9995C26.424 8.49969 25.2009 5.19981 23.0606 2.7999C21.3279 0.899967 18.8818 0 16.0236 0C13.1742 0 10.5243 0.899967 8.79171 2.7999C5.22449 6.59976 5.93793 12.4995 5.93793 12.9995C5.93793 13.6995 6.14177 16.7994 6.65138 19.1993C7.05906 21.0992 7.56866 29.3989 7.56866 29.3989C7.36482 31.5988 7.05906 33.6988 5.63217 36.2987C3.18607 41.0985 1.96303 45.2983 1.96303 45.2983C-0.686912 53.798 -0.177309 60.1978 0.739977 63.9976C2.67647 72.2973 5.12257 78.6971 7.7725 83.1969C7.7725 83.1969 8.58787 85.7968 16.2319 86C23.0606 86.0968 24.5894 83.7969 24.5894 83.7969C24.8951 83.2969 29.6854 74.2973 31.622 64.2976C32.8449 55.598 31.1124 48.6982 30.3988 46.2983"/>
	<path fill="#131411" d="M28.4482 46.6466C28.4482 46.2467 27.8367 44.7468 27.8367 44.7468C27.1233 43.1469 25.9002 40.0471 24.6772 37.6473C23.2503 35.0475 22.5368 31.9477 22.5368 29.1479C22.5368 25.7481 22.9445 21.2485 23.4541 19.1486C23.9637 16.7488 24.1676 14.149 24.1676 12.949C24.3714 9.14931 23.658 6.34951 21.7215 4.44965C20.1926 3.04975 18.2562 2.3498 16.1158 2.3498C13.6697 2.3498 11.9371 3.04975 10.5102 4.44965C7.55449 7.74941 8.06409 13.049 8.06409 13.249C8.06409 13.949 8.26793 16.7488 8.77754 19.1486C9.18522 21.0485 9.89866 26.2481 9.69482 28.8479C9.69482 28.8479 9.28714 34.7475 7.55449 37.5473C4.80263 42.247 3.88534 45.6467 3.88534 45.8467C3.88534 45.8467 0.52196 56.046 2.6623 63.8454C4.90455 71.7448 6.73912 78.0444 9.38906 82.5441C9.38906 82.5441 10.816 83.944 15.6062 83.944C20.7023 83.944 22.9445 82.6441 22.9445 82.6441C23.1483 82.2441 27.9386 73.4447 29.6713 63.9454C30.8943 55.446 28.9578 48.7465 28.4482 46.6466"/>
	<path fill="#2D1B0A" d="M15.6204 83.994C10.8301 83.994 9.40322 82.5941 9.3013 82.5941C6.65136 77.9944 4.71487 71.6948 2.57453 63.8954C0.4342 56.2959 3.69566 46.2967 3.79758 45.7967C3.79758 45.3967 4.91871 41.897 7.46673 37.4973C9.19938 34.7975 9.60706 28.8979 9.60706 28.8979C9.8109 26.2981 9.09746 21.1985 8.68977 19.1986C8.18017 16.7988 7.97633 13.999 7.97633 13.299C7.97633 13.299 7.97633 13.299 7.97633 13.199C7.87441 11.4991 7.87441 7.19945 10.4224 4.39965C11.9512 2.89976 13.6839 2.2998 16.13 2.2998C18.3722 2.2998 20.3087 2.99975 21.8375 4.39965C23.774 6.29951 24.4875 8.99932 24.2836 12.999C24.2836 14.099 24.0798 16.6988 23.5702 19.1986C23.0606 21.2984 22.6529 25.7981 22.6529 29.1979C22.6529 32.0977 23.4683 35.1975 24.7932 37.5973C25.6086 39.2972 26.5259 41.297 27.2393 42.8969C27.5451 43.5969 27.7489 44.1968 27.9528 44.6968C28.0547 44.8968 28.5643 46.1967 28.5643 46.5966C28.5643 46.6966 28.6662 46.8966 28.6662 47.0966C29.2777 49.4964 30.9085 55.996 29.7873 63.8954C28.2585 72.3948 24.2836 80.2942 23.0606 82.4941C22.9587 82.7941 20.7164 83.994 15.6204 83.994M9.50514 82.3941C9.60706 82.4941 11.2378 83.794 15.6204 83.794C20.3087 83.794 22.551 82.6941 22.8567 82.4941C24.0798 80.1942 27.9528 72.1948 29.4816 63.7954C30.6027 55.896 28.972 49.4964 28.3605 47.0966C28.3605 46.8966 28.2585 46.6966 28.2585 46.5966C28.2585 46.2967 27.8509 45.1967 27.647 44.6968C27.4432 44.1968 27.1374 43.5969 26.9336 42.8969C26.2201 41.297 25.4048 39.2972 24.4875 37.5973C23.1625 35.0975 22.3471 31.9977 22.3471 28.9979C22.3471 25.5981 22.7548 21.0985 23.2644 18.9986C23.774 16.4988 23.9779 13.999 23.9779 12.7991C24.1817 8.89933 23.4683 6.19952 21.5318 4.39965C20.1049 3.09974 18.1684 2.2998 16.0097 2.2998C13.6839 2.2998 11.9512 2.89976 10.5243 4.39965C8.07825 7.19945 7.97633 11.2992 8.07825 12.999C8.07825 12.999 8.07825 13.099 8.07825 13.099C8.07825 13.799 8.28209 16.5988 8.79169 18.9986C9.19938 20.8985 9.91282 26.1981 9.70898 28.6979C9.70898 28.8979 9.3013 34.6975 7.56865 37.4973C4.81679 42.097 3.8995 45.4967 3.8995 45.6967C3.8995 45.7967 0.53612 55.896 2.67645 63.5954C5.02063 71.5949 6.8552 77.8944 9.50514 82.3941"/>
	<path fill="#FCFCFC" d="M11.5435 81.0942C11.5435 81.0942 12.257 81.7941 16.13 81.7941C20.003 81.7941 20.7164 81.0942 20.7164 81.0942C20.7164 81.0942 25.5067 72.2948 27.2393 63.0955C28.6662 53.5962 26.0163 46.4967 26.0163 45.9967C25.8124 45.4967 24.2836 40.9971 22.6529 38.1973C21.226 35.3975 20.2068 31.9977 20.2068 28.6979C20.2068 25.3982 20.7164 20.5985 21.1241 18.2987C21.6337 15.8989 21.8375 13.299 21.8375 12.7991C21.8375 12.0991 22.7548 3.9997 16.028 3.9997C9.30128 3.9997 10.2186 12.7991 10.2186 12.7991C10.2186 12.7991 10.4224 16.0988 10.932 18.2987C11.4416 20.3985 12.1551 25.8981 11.8493 28.6979C11.6455 31.2978 11.6455 34.3975 9.40321 38.1973C7.26287 42.197 6.24366 45.0968 6.03982 45.9967C5.83598 46.8966 2.88028 55.296 4.81678 63.0955C6.95711 70.8949 9.09744 77.0945 11.5435 81.0942"/>
	<path fill="#FF6F64" d="M11.4416 22.1985L20.5126 22.1985C20.5126 22.1985 20.1049 25.4982 20.1049 26.4981L11.8493 26.4981C11.7474 26.4981 11.4416 22.6984 11.4416 22.1985"/>
	<path fill="#FF6F64" d="M11.5436 31.1977L20.2068 31.1977C20.2068 31.1977 20.7164 33.5976 21.226 35.1975L10.7282 35.1975C10.7282 34.9975 11.5436 32.1977 11.5436 31.1977"/>
	<path fill="white" d="M70.3515 46.2983C70.1478 45.9983 69.6382 44.0984 69.6382 44.0984C69.1286 42.3984 67.9054 39.0986 66.4787 36.6986C65.2556 34.2987 64.5422 31.4988 64.5422 29.0989C64.5422 25.999 64.9498 21.2992 65.4594 19.3993C65.9691 16.7994 66.1729 14.1995 66.1729 12.9995C66.3766 8.49969 65.1536 5.19981 63.0134 2.7999C61.2807 0.899967 58.8345 0 55.9763 0C53.127 0 50.4771 0.899967 48.7444 2.7999C45.1772 6.59976 45.8906 12.4995 45.8906 12.9995C45.8906 13.6995 46.0945 16.7994 46.6041 19.1993C47.0118 21.0992 47.5214 29.3989 47.5214 29.3989C47.3175 31.5988 47.0118 33.6988 45.5849 36.2987C43.1388 41.0985 41.9157 45.2983 41.9157 45.2983C39.2658 53.798 39.7754 60.1978 40.6927 63.9976C42.6292 72.2973 45.0753 78.6971 47.7252 83.1969C47.7252 83.1969 48.5406 85.7968 56.1847 86C63.0134 86.0968 64.5422 83.7969 64.5422 83.7969C64.8479 83.2969 69.6382 74.2973 71.5747 64.2976C72.7977 55.598 71.065 48.6982 70.3515 46.2983"/>
	<path fill="#131411" d="M68.4012 46.6466C68.4012 46.2467 67.7897 44.7468 67.7897 44.7468C67.0763 43.1469 65.8532 40.0471 64.6302 37.6473C63.2033 35.0475 62.4898 31.9477 62.4898 29.1479C62.4898 25.7481 62.8975 21.2485 63.4071 19.1486C63.9167 16.7488 64.1206 14.149 64.1206 12.949C64.3244 9.14931 63.611 6.34951 61.6745 4.44965C60.1456 3.04975 58.2092 2.3498 56.0688 2.3498C53.6227 2.3498 51.8901 3.04975 50.4632 4.44965C47.5075 7.74941 48.0171 13.049 48.0171 13.249C48.0171 13.949 48.2209 16.7488 48.7305 19.1486C49.1382 21.0485 49.8517 26.2481 49.6478 28.8479C49.6478 28.8479 49.2401 34.7475 47.5075 37.5473C44.7556 42.247 43.8383 45.6467 43.8383 45.8467C43.8383 45.8467 40.475 56.046 42.6153 63.8454C44.8576 71.7448 46.6921 78.0444 49.3421 82.5441C49.3421 82.5441 50.769 83.944 55.5592 83.944C60.6553 83.944 62.8975 82.6441 62.8975 82.6441C63.1013 82.2441 67.8916 73.4447 69.6243 63.9454C70.8473 55.446 68.9108 48.7465 68.4012 46.6466"/>
	<path fill="#2D1B0A" d="M55.5734 83.994C50.7831 83.994 49.3562 82.5941 49.2543 82.5941C46.6044 77.9944 44.6679 71.6948 42.5275 63.8954C40.3872 56.2959 43.6487 46.2967 43.7506 45.7967C43.7506 45.3967 44.8717 41.897 47.4197 37.4973C49.1524 34.7975 49.5601 28.8979 49.5601 28.8979C49.7639 26.2981 49.0505 21.1985 48.6428 19.1986C48.1332 16.7988 47.9293 13.999 47.9293 13.299C47.9293 13.299 47.9293 13.299 47.9293 13.199C47.8274 11.4991 47.8274 7.19945 50.3754 4.39965C51.9042 2.89976 53.6369 2.2998 56.083 2.2998C58.3252 2.2998 60.2617 2.99975 61.7905 4.39965C63.727 6.29951 64.4405 8.99932 64.2366 12.999C64.2366 14.099 64.0328 16.6988 63.5232 19.1986C63.0136 21.2984 62.6059 25.7981 62.6059 29.1979C62.6059 32.0977 63.4213 35.1975 64.7462 37.5973C65.5616 39.2972 66.4789 41.297 67.1923 42.8969C67.4981 43.5969 67.7019 44.1968 67.9058 44.6968C68.0077 44.8968 68.5173 46.1967 68.5173 46.5966C68.5173 46.6966 68.6192 46.8966 68.6192 47.0966C69.2307 49.4964 70.8615 55.996 69.7403 63.8954C68.2115 72.3948 64.2366 80.2942 63.0136 82.4941C62.8097 82.7941 60.5675 83.994 55.5734 83.994M49.4581 82.3941C49.5601 82.4941 51.1908 83.794 55.5734 83.794C60.2617 83.794 62.504 82.6941 62.8097 82.4941C64.0328 80.1942 67.9058 72.1948 69.4346 63.7954C70.5557 55.896 68.925 49.4964 68.3135 47.0966C68.3135 46.8966 68.2115 46.6966 68.2115 46.5966C68.2115 46.2967 67.8039 45.1967 67.6 44.6968C67.3962 44.1968 67.0904 43.5969 66.8866 42.8969C66.1731 41.297 65.3578 39.2972 64.4405 37.5973C63.1155 35.0975 62.3001 31.9977 62.3001 28.9979C62.3001 25.5981 62.7078 21.0985 63.2174 18.9986C63.727 16.4988 63.9309 13.999 63.9309 12.7991C64.1347 8.89933 63.4213 6.19952 61.4848 4.39965C60.0579 3.09974 58.1214 2.2998 55.9627 2.2998C53.6369 2.2998 51.9042 2.89976 50.4773 4.39965C48.0313 7.19945 47.9293 11.2992 48.0313 12.999C48.0313 12.999 48.0313 13.099 48.0313 13.099C48.0313 13.799 48.2351 16.5988 48.7447 18.9986C49.1524 20.8985 49.8658 26.1981 49.662 28.6979C49.662 28.8979 49.2543 34.6975 47.5217 37.4973C44.7698 42.097 43.8525 45.4967 43.8525 45.6967C43.8525 45.7967 40.4891 55.896 42.6295 63.5954C44.8717 71.5949 46.7063 77.8944 49.4581 82.3941"/>
	<path fill="#FCFCFC" d="M51.5983 81.5942C51.5983 81.5942 52.3118 82.2941 56.1848 82.2941C60.0578 82.2941 60.7712 81.5942 60.7712 81.5942C60.7712 81.5942 65.5615 72.7948 67.2941 63.5955C68.721 54.0962 66.0711 46.9967 66.0711 46.4967C65.8672 45.9967 64.3384 41.4971 62.7077 38.6973C61.2808 35.8975 60.2616 32.4977 60.2616 29.1979C60.2616 25.8982 60.7712 21.0985 61.1789 18.7987C61.6885 16.3989 61.8923 13.799 61.8923 13.2991C61.8923 12.5991 62.8096 4.4997 56.0828 4.4997C49.3561 4.4997 50.2734 13.2991 50.2734 13.2991C50.2734 13.2991 50.4772 16.5988 50.9868 18.7987C51.4964 20.8985 52.2099 26.3981 51.9041 29.1979C51.7003 31.7978 51.7003 34.8975 49.458 38.6973C47.3177 42.697 46.2985 45.5968 46.0946 46.4967C45.8908 47.3966 42.9351 55.796 44.8716 63.5955C47.0119 71.3949 49.1522 77.5945 51.5983 81.5942"/>
	<path fill="#FF6F64" d="M51.5984 22.1985L60.7712 22.1985C60.7712 22.1985 60.3635 25.4982 60.3635 26.4981L52.0061 26.4981C51.9041 26.4981 51.5984 22.6984 51.5984 22.1985"/>
	<path fill="#FF6F64" d="M51.7003 31.2977L60.3635 31.2977C60.3635 31.2977 60.8731 33.6976 61.3827 35.2975L50.8849 35.2975C50.8849 35.0975 51.7003 32.2977 51.7003 31.2977"/>
</svg>
