<?xml version="1.0" encoding="utf-8" ?>
<svg xmlns="http://www.w3.org/2000/svg" xmlns:xlink="http://www.w3.org/1999/xlink" width="92" height="92">
	<path fill="white" d="M46.1011 92C20.781 92.1005 0 71.5217 0 46.1009C0 20.7809 20.4784 0 45.8993 0C71.2194 0 92 20.4783 92 45.8991C92 71.2191 71.4211 91.8988 46.1011 92M45.8993 19.066C31.0704 19.066 19.0661 31.1712 19.167 46C19.167 60.8288 31.2722 72.8331 46.1011 72.7322C60.8291 72.7322 72.8334 60.6271 72.8334 45.7982C72.7325 31.0703 60.7282 19.066 45.8993 19.066"/>
	<path fill="#F9F9F9" d="M45.8993 3.0268C22.1933 3.0268 2.9258 22.2941 2.9258 46C2.9258 69.7058 22.1933 88.9731 45.8993 88.9731C69.6054 88.9731 88.8728 69.7058 88.8728 46C88.8728 22.2941 69.6054 3.0268 45.8993 3.0268M75.7588 45.8991C75.658 62.3419 62.2414 75.7584 45.8993 75.7584C29.4564 75.7584 16.0398 62.3419 16.0398 45.8991C16.0398 29.4563 29.4564 16.0398 45.8993 16.0398C62.3422 16.0398 75.7588 29.4563 75.7588 45.8991"/>
	<path fill="#2D1B0A" d="M45.8993 89.9819C21.6889 89.9819 1.917 70.2102 1.917 45.9999C1.917 21.7897 21.6889 2.018 45.8993 2.018C70.1097 2.018 89.8816 21.7897 89.8816 45.9999C89.8816 70.2102 70.1097 89.9819 45.8993 89.9819M45.8993 4.03552C22.7985 4.03552 3.93454 22.8993 3.93454 45.9999C3.93454 69.1005 22.7985 87.9643 45.8993 87.9643C69.0001 87.9643 87.864 69.1005 87.864 45.9999C87.864 22.8993 69.0001 4.03552 45.8993 4.03552M45.8993 76.7671C28.8511 76.7671 15.031 62.9471 15.031 45.8991C15.031 28.851 28.8511 15.031 45.8993 15.031C62.9475 15.031 76.7676 28.851 76.7676 45.8991C76.6667 62.9471 62.8466 76.7671 45.8993 76.7671M45.8993 17.0485C29.9607 17.0485 17.0485 29.9606 17.0485 45.8991C17.0485 61.8375 29.9607 74.7496 45.8993 74.7496C61.7369 74.7496 74.6492 61.8375 74.75 45.8991C74.75 29.9606 61.8378 17.0485 45.8993 17.0485"/>
	<path fill="#0061EF" d="M67.1843 11.9037C69.3027 13.1142 71.3202 14.8291 73.2369 16.544C75.1536 18.2589 76.9693 20.2764 78.3816 22.1931L73.5395 27.3377C72.1273 25.4211 70.3115 23.2018 68.6974 21.4869C66.7808 19.772 64.5615 18.0571 62.3422 17.0484L67.1843 11.9037"/>
	<path fill="#0061EF" d="M29.7591 74.7494C27.5397 73.5389 25.5222 71.9249 23.3029 70.21C21.2854 68.3942 19.5705 66.5785 18.4608 64.3592L13.6187 69.6048C15.031 71.6223 16.8468 73.5389 18.8643 75.3547C20.8819 77.1704 22.7985 78.7845 25.0178 79.995L29.7591 74.7494"/>
	<path fill="#5DDEE2" d="M79.3904 68.2934C77.8773 70.3109 76.1624 72.5302 74.4474 74.2451C72.4299 76.0608 70.4124 77.6749 68.4957 79.188L63.5527 73.9425C65.772 72.7319 67.7896 71.0171 69.7062 69.2013C71.7238 67.1838 73.136 65.4689 74.6491 63.2496L79.3904 68.2934"/>
	<path fill="#5DDEE2" d="M17.9565 27.7412C19.3687 25.6229 21.0836 23.7062 22.6977 21.9914C24.6143 20.2765 26.531 18.6625 28.6494 17.452L23.9082 12.4081C21.9915 13.8204 19.8731 15.5353 18.1582 17.1493C16.2416 19.066 14.8293 20.7809 13.417 22.8993L17.9565 27.7412"/>
	<path fill="#FF6F64" d="M38.9388 6.65818C41.3598 6.1538 43.68 5.95204 46.4037 5.95204C49.1274 5.95204 51.4475 6.1538 53.8686 6.65818L53.8686 13.6186C51.4475 13.1142 49.1274 12.7107 46.4037 12.7107C43.68 12.7107 41.3598 12.9125 38.9388 13.6186L38.9388 6.65818"/>
	<path fill="#FF6F64" d="M53.6668 78.1792C51.2457 78.6836 48.9256 79.0871 46.2019 79.0871C43.4782 79.0871 41.158 78.8853 38.737 78.1792L38.737 85.1397C41.158 85.644 43.4782 85.8458 46.2019 85.8458C48.9256 85.8458 51.2457 85.644 53.6668 85.1397L53.6668 78.1792"/>
	<path fill="#FF6F64" d="M78.3817 38.6359C78.8861 41.0569 79.2896 43.3771 79.2896 46.1007C79.2896 48.7235 79.0878 51.1445 78.3817 53.5655L85.3422 53.5655C85.8466 51.1445 86.0483 48.8244 86.0483 46.1007C86.0483 43.4779 85.8466 41.0569 85.3422 38.6359L78.3817 38.6359"/>
	<path fill="#FF6F64" d="M13.7196 53.4648C13.2152 51.0438 12.8117 48.7237 12.8117 46C12.8117 43.3772 13.0135 40.9562 13.7196 38.5352L6.75911 38.5352C6.25472 40.9562 6.05297 43.2764 6.05297 46C6.05297 48.6228 6.25472 51.0438 6.75911 53.4648L13.7196 53.4648"/>
</svg>
