<?xml version="1.0" encoding="utf-8" ?>
<svg xmlns="http://www.w3.org/2000/svg" xmlns:xlink="http://www.w3.org/1999/xlink" width="82" height="102">
	<path fill="white" d="M54.401 71.0663L54.401 43.5698L24.2114 43.5698L24.2114 62.6758L0 62.6758L0 102L24.3111 102L29.791 102L48.6221 102L54.401 102L82 102L82 71.0663"/>
	<path fill="white" d="M40.3523 33.9664L27.1008 40.6384L29.8906 26.1824L18.8311 15.669L33.7764 13.5461L40.452 5e-05L46.5298 13.5461L61.3754 15.669L50.7145 26.0814L53.6039 40.6384"/>
	<path fill="#FFCF48" d="M40.2528 30.4282L31.0863 34.9773L33.079 24.8683L25.4071 17.5898L35.6696 16.1745L40.2528 6.8742L44.4375 16.1745L54.7996 17.5898L47.3269 24.8683L49.4193 34.9773"/>
	<path fill="#2D1B0A" d="M50.8142 36.8981L40.2529 31.5403L29.7911 36.8981L31.9831 25.3738L23.2152 16.9833L35.0718 15.2648L40.3525 4.5492L45.2346 15.2648L57.0913 16.9833L48.6222 25.3738L50.8142 36.8981M27.5992 18.2975L34.1751 24.5651L32.5809 33.2588L40.3525 29.3163L48.1241 33.2588L46.4303 24.6661L52.8069 18.3986L43.9394 17.1855L40.3525 9.30044L36.4667 17.1855L27.5992 18.2975"/>
	<path fill="#FFCF48" d="M2.88945 65.8097L26.802 65.8097L26.802 99.0684L2.88945 99.0684L2.88945 65.8097"/>
	<path fill="#2D1B0A" d="M27.7983 100.079L1.8931 100.079L1.8931 64.7989L27.7983 64.7989L27.7983 100.079M3.88581 98.0576L25.8056 98.0576L25.8056 66.8207L3.88581 66.8207L3.88581 98.0576"/>
	<path fill="#FF6F64" d="M51.4119 99.0682L27.2005 99.0682L27.1008 46.7035L51.4119 46.7035"/>
	<path fill="#2D1B0A" d="M52.4083 100.079L26.2041 100.079L26.1045 45.6926L52.3086 45.6926L52.3086 100.079M28.1968 98.0573L50.4156 98.0573L50.4156 47.7144L28.1968 47.7144L28.1968 98.0573"/>
	<path fill="#3BA7FF" d="M51.5114 74.2002L78.9112 74.2002L78.9112 99.0684L51.5114 99.0684L51.5114 74.2002"/>
	<path fill="#2D1B0A" d="M79.9076 100.079L50.5151 100.079L50.5151 73.1893L79.9076 73.1893L79.9076 100.079M52.5078 98.0575L77.9149 98.0575L77.9149 75.2111L52.5078 75.2111L52.5078 98.0575"/>
	<path fill="white" d="M10.4618 89.0605C10.5614 88.1507 10.9599 87.3419 11.757 86.6344C12.5541 85.9267 13.5505 84.8147 14.7461 83.1973C15.9417 81.6809 16.7388 80.4678 17.0377 79.558C17.4362 78.7493 17.5359 77.9406 17.4362 77.334C17.3366 76.7275 17.0377 76.222 16.5395 75.8177C16.0413 75.4133 15.5432 75.2111 14.8457 75.3122C14.2479 75.4133 13.6501 75.6155 13.0523 76.0198C12.4545 76.4242 12.0559 77.0308 11.757 77.9406L10.0632 77.6373C10.5614 76.222 11.1592 75.2111 11.8567 74.6046C12.5541 73.998 13.4508 73.5488 14.5468 73.5488C15.1446 73.5488 15.6428 73.5488 16.141 73.5488C16.6392 73.6948 17.1373 73.8969 17.6355 74.2002C18.1337 74.5035 18.5322 75.0089 18.9308 75.7166C19.2297 76.4242 19.429 77.2329 19.3293 78.1427C19.2297 79.0526 18.7315 80.1645 17.9344 81.4787C17.1373 82.7929 15.4435 84.8147 13.0523 87.6452L19.5286 87.6452L19.5286 89.2626L10.4618 89.2626"/>
	<path fill="white" d="M60.0802 91.0823L61.6744 90.7789C61.8736 91.5878 62.2722 92.1943 62.87 92.6996C63.3682 93.2051 64.0656 93.5085 64.8627 93.4073C65.6598 93.4073 66.3572 93.003 66.7558 92.3964C67.254 91.7898 67.4532 91.0823 67.3536 90.1724C67.254 89.3637 66.955 88.7572 66.4569 88.2517C65.8591 87.8474 64.9623 87.443 63.7667 87.3419L63.7667 86.1288C65.062 86.0277 65.9587 85.7245 66.4569 85.1179C67.0547 84.6125 67.254 83.9048 67.254 82.995C67.1543 82.0852 66.8554 81.4787 66.0583 81.0743C65.3609 80.67 64.5638 80.67 63.7667 80.9732C62.9696 81.2765 62.2722 82.0852 61.8736 83.5005L60.2795 83.1972C60.678 82.0852 61.1762 81.1754 61.774 80.4678C62.3718 79.7602 63.2685 79.3558 64.3645 79.1171C65.4605 79.1171 66.3572 79.1171 67.1543 79.558C67.9514 79.9623 68.5492 80.5689 68.8481 81.3776C69.147 82.1863 69.2467 83.0961 68.9478 84.107C68.7485 85.1179 68.051 85.9267 66.8554 86.6343C67.6525 87.0281 68.3499 87.5441 68.7485 88.2517C69.147 88.9594 69.3463 89.9702 69.147 91.0823C68.9478 92.2953 68.4496 93.2051 67.5529 93.9128C66.6561 94.6205 65.6598 95.0247 64.4642 94.939C63.3682 94.939 62.3718 94.5193 61.4751 93.8116C60.8773 93.4073 60.3791 92.3964 60.0802 91.0823"/>
	<path fill="white" d="M38.0607 57.6214C37.2636 58.4301 36.2673 59.1377 35.0717 59.8454L35.0717 58.1269C36.5662 57.1159 37.7618 55.9029 38.7582 54.4876L39.8542 54.4876L39.8542 70.1566L38.0607 70.1566L38.0607 57.6214"/>
</svg>
