<?xml version="1.0" encoding="utf-8" ?>
<svg xmlns="http://www.w3.org/2000/svg" xmlns:xlink="http://www.w3.org/1999/xlink" width="92" height="92">
	<path fill="white" d="M45.4934 92C20.467 92 0 71.3304 0 46C0 20.6696 20.6696 0 46 0C71.3304 0 92 20.6696 92 46C92 71.3304 71.3304 92 46 92M46 20.6696C31.4097 20.6696 19.9604 32.1189 19.9604 46.7093C20.0617 61.0969 31.7137 72.7489 46 72.7489C60.5903 72.7489 72.0396 61.2996 72.0396 46.7093C72.0396 32.1189 60.5903 20.6696 46 20.6696"/>
	<path fill="#65DFE5" d="M3.2422 46C3.2422 22.0865 22.5946 3.03795 46.2026 3.03795C70.1144 3.03795 89.1629 22.3904 89.1629 46C89.1629 69.6062 69.8105 88.9622 46.2026 88.9622C22.4933 89.2626 3.2422 69.9101 3.2422 46M46.3039 75.8881C62.414 75.8881 75.3832 63.0203 75.3832 46.8088C75.3832 30.6988 62.5153 17.7295 46.3039 17.7295C30.0924 17.7295 17.2246 30.5975 17.2246 46.8088C17.2246 63.0203 30.3964 75.8881 46.3039 75.8881"/>
	<path fill="#2D1B0A" d="M45.6961 89.9736C34.2468 89.9736 23.5067 85.5155 15.401 77.5111C6.99129 69.2027 2.3305 57.956 2.3305 46.0001C2.3305 21.7842 22.0882 2.0265 46.3041 2.0265C70.5199 2.0265 90.2776 21.7842 90.2776 46.0001C90.2776 70.2159 70.5199 89.9736 46.3041 89.9736C46.1014 89.9736 45.8988 89.9736 45.6961 89.9736M46.3041 4.05293C23.2027 4.05293 4.35693 22.8987 4.35693 46.0001C4.35693 57.4494 8.81508 68.0882 16.8195 76.0926C24.7226 83.8943 35.1587 88.1498 46.3041 87.9472C69.4054 87.9472 88.2512 69.1014 88.2512 46.0001C88.2512 22.8987 69.4054 4.05293 46.3041 4.05293M46.3041 76.9032C29.7886 76.9032 16.3129 63.4274 16.2116 46.8106C16.2116 29.8899 29.4847 16.6168 46.3041 16.6168C62.9208 16.6168 76.3966 30.0926 76.3966 46.7093C76.3966 63.3261 62.9208 76.9032 46.3041 76.9032M46.3041 18.6432C30.4979 18.6432 18.238 31.0045 18.238 46.7093C18.3393 62.2115 30.9032 74.7754 46.3041 74.7754C61.8063 74.7754 74.3701 62.2115 74.3701 46.7093C74.3701 31.2071 61.8063 18.6432 46.3041 18.6432"/>
	<path fill="white" d="M70.7225 11.8547L61.5022 20.8724C66.2643 23.5068 70.0132 27.4583 72.4449 31.9165L81.3612 22.8988C78.5242 18.4406 75.0793 14.6917 70.7225 11.8547"/>
	<path fill="white" d="M21.8855 28.7754C24.7225 24.3172 29.0793 21.3788 34.1454 19.2511L25.6344 9.52425C20.9736 12.1586 16.5154 15.5022 13.4758 19.9604L21.8855 28.7754"/>
	<path fill="white" d="M71.9383 62.718C69.7093 66.5683 66.467 70.2159 62.1101 72.3436L71.0265 79.1321C74.978 76.5992 77.9164 72.9515 80.3481 69.4053L71.9383 62.718"/>
	<path fill="white" d="M25.8371 82.6785L32.8283 73.6608C28.5728 71.837 24.4186 68.2908 21.7842 64.4406L13.2732 72.2423C16.4141 76.3965 20.771 80.5507 25.8371 82.6785"/>
</svg>
