<?xml version="1.0" encoding="utf-8" ?>
<svg xmlns="http://www.w3.org/2000/svg" xmlns:xlink="http://www.w3.org/1999/xlink" width="74" height="86">
	<path fill="white" d="M8.81191 0.915976L0 0L0 86L8.81191 86L8.81191 46.8166L74 23.9172"/>
	<path fill="#2D1B0A" d="M6.5088 83.5574L2.50339 83.5574L2.50339 2.4426L6.5088 2.4426L6.5088 6.71716L6.5088 23.9172L6.5088 40.8118L6.5088 47.529"/>
	<path fill="#FF6F64" d="M34.1461 32.0592L9.9134 40.5065L9.9134 23.6119L9.9134 6.51365L34.1461 14.961L58.3789 23.6119"/>
	<path fill="#2D1B0A" d="M8.9121 41.9314L8.9121 5.0888L34.4466 14.045L61.383 23.7137L34.4466 33.077L8.9121 41.9314M10.9148 7.9385L10.9148 39.0817L55.3749 23.6119L33.8458 15.9787L10.9148 7.9385"/>
</svg>
