<?xml version="1.0" encoding="utf-8" ?>
<svg xmlns="http://www.w3.org/2000/svg" xmlns:xlink="http://www.w3.org/1999/xlink" width="94" height="82">
	<path fill="white" d="M38.7762 81.6978C33.3934 81.6978 29.6055 79.1794 27.0138 77.4668C25.1198 76.258 22.2291 74.6462 20.0361 74.6462L18.9396 74.7469C18.1421 75.0491 17.1453 75.3514 16.0488 75.7543C15.052 76.0565 14.0551 76.3587 13.158 76.7617C9.46978 78.0713 7.77519 78.6757 6.37964 78.6757C4.08696 78.6757 3.68823 76.8624 3.58855 76.258L3.58855 66.285C4.98409 64.9754 5.98091 63.6658 5.38282 61.4496C4.78473 60.2408 0 52.2826 0 44.0221C0 34.9558 0 19.4423 18.7402 6.34644C24.6214 2.21622 31.7985 0 39.6734 0C53.4295 0 66.8865 7.0516 73.1665 17.5283L75.6585 18.0319C76.1569 18.0319 78.649 18.2334 78.649 22.6658L78.649 35.258C78.649 36.9705 77.5525 38.9853 74.9608 38.9853L65.0923 38.9853C64.3945 38.9853 62.6999 38.9853 61.3043 37.5749C60.8059 36.9705 60.4072 36.0639 60.4072 35.1572L60.4072 33.344L56.6193 35.0565L59.4104 41.2015L88.6172 41.2015C92.3054 41.2015 93.8006 43.8206 94 45.6339L94 74.5455C94 75.4521 94 77.8698 92.8038 79.5823C91.3086 82 87.72 82 86.2248 82C83.5334 82 80.7423 81.6978 77.4528 81.0934C70.6744 79.8845 67.1856 78.0713 65.5907 77.1646C64.1951 76.5602 63.3977 74.9484 63.1983 74.4447L57.9152 63.2629L57.3171 66.1843C56.0212 72.5307 51.6352 78.172 46.053 80.4889C43.7603 81.0934 41.368 81.6978 38.7762 81.6978"/>
	<path fill="#41A2F9" d="M6.97773 74.3458L6.97773 65.7832C6.97773 65.7832 9.76883 63.1641 8.37328 58.8324C8.37328 58.8324 3.1863 51.1763 3.1863 43.3189C3.1863 35.1591 2.49205 21.056 20.7338 8.86678C38.6766 -3.32241 64.6935 5.54246 72.7678 22.4662L72.7678 27.5032L66.5875 27.5032C66.5875 27.5032 45.754 30.8274 48.8441 42.8152L50.0403 46.8447C50.0403 46.8447 51.9343 51.8815 54.3266 57.3214C56.9183 63.0634 54.1273 72.8348 46.053 76.1591C38.2778 79.4834 32.596 76.1591 29.0074 74.0436C29.0074 74.0436 23.5249 70.0142 19.5377 71.223C15.7497 71.7267 7.1771 75.5547 6.97773 74.3458"/>
	<path fill="#2D1B0A" d="M39.4741 78.5749C34.6894 78.5749 31.0012 76.3587 28.4094 74.9483C28.3097 74.8476 23.226 71.2211 19.7371 72.2284C17.9428 72.4299 15.4508 73.3366 13.1581 74.0417C8.7721 75.452 7.37655 75.9557 6.47941 75.3513C6.18037 75.1498 5.981 74.8476 5.88132 74.5454L5.88132 65.3783C6.28005 64.9754 8.47305 62.8599 7.37655 59.3341C6.67878 58.226 2.0934 50.9729 2.0934 43.4176C2.0934 34.1498 2.0934 20.1474 20.0361 8.05891C28.4094 2.3169 39.3744 0.7051 50.0404 3.62648C60.6067 6.54785 69.3787 13.398 73.4656 22.0614L73.5653 28.5085L66.4879 28.5085C65.4911 28.71 54.227 30.7248 50.5388 36.5675C49.3426 38.3808 49.0436 40.3878 49.6417 42.6117L50.8378 46.6412C50.8378 46.6412 52.7318 51.6781 55.1242 57.0171C56.5197 60.14 56.5197 64.3709 54.9248 68.199C53.3299 72.3292 50.2398 75.5528 46.2525 77.1646C43.9598 78.1719 41.6671 78.5749 39.4741 78.5749M29.5059 73.2358C32.9948 75.3513 38.2779 78.3734 45.6544 75.2506C49.1433 73.8402 51.735 71.0196 53.2302 67.3931C54.5261 64.0687 54.6258 60.4422 53.4296 57.823C51.0372 52.3832 49.1433 47.3464 49.1433 47.2456L47.9471 43.1154C47.2493 40.2948 47.648 37.7764 49.1433 35.4594C53.5293 28.71 65.9895 26.5945 66.4879 26.5945L71.8707 26.5945L71.8707 22.7665C67.9831 14.8083 59.7095 8.36112 49.841 5.64122C39.7732 2.82058 29.4062 4.33164 21.4317 9.77144C4.28641 21.2555 4.28641 34.5528 4.28641 42.511C4.28641 50.8722 9.27051 58.3267 9.27051 58.3267C10.666 62.6584 8.7721 65.3783 7.97464 66.285L7.97464 73.6388C8.97146 73.4373 11.0648 72.7321 12.6597 72.2284C15.0521 71.4225 17.6438 70.6166 19.3384 70.3144C23.6247 69.0049 29.0075 72.7321 29.5059 73.2358"/>
	<path fill="#86D8F6" d="M26.4156 55.204C26.4156 59.032 29.5058 62.1548 32.9946 62.1548C36.7826 62.1548 39.8727 59.032 39.8727 55.204C39.8727 51.376 36.7826 48.5458 32.9946 48.5458C29.2067 48.3538 26.4156 51.376 26.4156 55.204"/>
	<path fill="#EEE" d="M49.0435 37.7764C50.2397 40.1941 52.8314 44.7273 52.8314 44.7273C47.648 41.9066 47.1495 40.3956 47.1495 40.3956C47.648 38.9853 49.0435 37.7764 49.0435 37.7764"/>
	<path fill="#EEE" d="M55.4231 47.3465L52.333 45.6339C47.2492 42.8133 46.3521 41.2015 46.0531 40.6978C46.7508 38.4816 48.1464 37.172 48.3457 37.0712L49.9406 37.3735C51.1368 39.6904 53.6289 44.2236 53.7285 44.2236L55.4231 47.3465M48.2461 40.2948C48.4454 40.597 49.0435 41.1007 50.0403 41.8059C49.6416 41 49.1432 40.1941 48.7445 39.4889C48.6448 39.7911 48.4454 39.9926 48.2461 40.2948"/>
	<path fill="#F2F2F2" d="M89.1155 44.739L57.6161 44.739L53.3298 34.9675C53.3298 34.9675 55.8218 30.5351 63.3977 30.4344L63.3977 34.6653C63.3977 35.169 63.5969 35.3705 64.0954 35.3705L72.07 35.3705C72.07 35.9749 72.2692 36.1764 72.7678 36.1764L75.3595 36.1764C75.8578 36.1764 76.0573 35.9749 76.0573 35.4712L76.0573 21.9725C76.0573 21.4688 75.8578 21.2673 75.3595 21.2673L72.7678 21.2673C72.2692 21.2673 72.07 21.771 72.07 21.9725L72.07 22.9798L64.0954 22.9798C63.7963 22.9798 63.5969 23.1813 63.3977 23.3828L63.3977 24.9946C61.4039 25.4983 51.2365 28.1174 45.754 34.9675C41.5672 40.6088 37.8791 47.056 35.9851 50.2796L30.9013 50.2796C30.6023 50.2796 30.4029 50.4811 30.2036 50.9847L30.2036 62.6702C30.2036 63.1739 30.4029 63.3754 30.9013 63.3754L39.3743 63.3754C39.8727 63.3754 40.0721 63.1739 40.0721 62.6702L40.0721 61.1592L60.9055 61.1592L66.0891 72.1395C66.0891 72.1395 67.2852 75.4639 76.4559 77.1764C85.7263 78.5867 89.9129 78.5867 90.4114 77.3779C90.9099 76.169 90.9099 75.2624 90.9099 75.2624L90.9099 46.8545C90.9099 46.2501 90.511 44.6383 89.1155 44.739M40.0721 56.8275L40.0721 51.3877L45.0562 43.1273C45.0562 43.1273 48.3456 47.4589 55.0244 48.6678L59.0117 56.8275L40.0721 56.8275M59.51 49.4737L76.0573 49.4737L76.0573 57.3312L63.298 57.3312L59.51 49.4737M76.2566 73.4491C76.2566 73.4491 70.774 72.2403 70.0762 71.0314L65.5907 61.6629L76.2566 61.6629L76.2566 73.4491M80.0444 49.4737L87.1218 49.4737L87.1218 57.3312L80.0444 57.3312L80.0444 49.4737M87.421 74.3558L80.3436 74.3558L80.3436 61.4614L87.421 61.4614L87.421 74.3558"/>
	<path fill="#2D1B0A" d="M86.9345 79.28C84.6414 79.28 81.3512 78.9778 76.2664 78.1719C66.7946 76.3587 65.2991 72.8329 65.0997 72.5307L60.2143 62.2555L40.9717 62.2555C40.9717 63.7665 40.2738 64.4717 39.2767 64.4717L30.802 64.4717C29.805 64.4717 29.1071 63.7665 29.1071 62.7592L29.1071 50.7714C29.6056 49.6633 30.1041 49.2604 30.802 49.2604L35.3884 49.2604C37.2827 45.8353 40.872 39.6904 44.8601 34.3513C50.0446 27.8034 59.1175 24.9827 62.2083 24.1768L62.2083 22.968C62.8065 22.3636 63.2053 21.9606 63.9033 21.9606L70.8824 21.9606C70.8824 21.2555 71.4806 20.2481 72.5774 20.2481L75.1696 20.2481C76.1667 20.2481 76.8646 20.9533 76.8646 21.9606L76.8646 35.4594C76.8646 36.5675 76.1667 37.1719 75.1696 37.1719L72.5774 37.1719C71.8794 37.1719 71.3809 36.8697 71.0818 36.366L63.9033 36.366C62.8065 36.366 62.2083 35.6609 62.2083 34.6535L62.2083 31.5307C57.3229 31.9336 55.0297 34.1498 54.3318 35.1572L58.1205 43.8206L88.9286 43.8206C89.6265 43.8206 90.3244 44.0221 90.8229 44.5257C91.5208 45.2309 91.8199 46.2383 91.7389 46.9434L91.7389 75.2506C91.7389 75.3513 91.7389 76.3587 91.122 77.769C90.9226 78.6756 89.9256 79.28 86.9345 79.28M39.0773 60.14L61.5104 60.14L66.994 71.7248C66.994 71.8255 68.3899 74.6461 76.6652 76.1572C87.2336 77.769 89.2277 77.1646 89.5268 76.8624C89.9256 75.9557 89.9256 75.1498 89.9256 75.1498L89.9256 46.742C89.9256 46.5405 89.8259 46.0368 89.6265 45.7346C89.5268 45.6338 89.4271 45.5331 89.2277 45.6338L56.9241 45.6338L52.1384 34.7542C52.5372 34.1498 55.3288 29.5159 63.305 29.3144L64.3021 34.2506L73.0759 34.2506L75.0699 35.0565L75.0699 22.1621L73.0759 22.1621L73.0759 23.8746L64.3021 23.8746L64.3021 25.6879C61.6101 26.2923 51.7396 28.9115 46.4553 35.5601C42.3675 41.1007 38.6785 47.4471 36.7842 50.7714L31.1012 51.2751L31.1012 62.3562L38.9776 62.3562L39.0773 60.14M88.4301 75.3513L79.3571 75.3513L79.3571 60.4422L88.4301 60.4422L88.4301 75.3513M81.3512 73.3366L86.436 73.3366L86.436 62.4569L81.3512 62.4569L81.3512 73.3366M77.2634 74.6461L76.0669 74.3439C73.8735 73.8402 70.0848 72.8329 69.1875 71.4225L64.003 60.5429L77.2634 60.5429L77.2634 74.6461M70.9821 70.5159C71.3809 70.9189 73.1756 71.624 75.2693 72.1277L75.2693 62.6584L67.1934 62.6584L70.9821 70.5159M88.1309 58.3267L79.058 58.3267L79.058 48.4545L88.1309 48.4545L88.1309 58.3267M81.0521 56.312L86.1369 56.312L86.1369 50.4692L81.0521 50.4692L81.0521 56.312M77.064 58.3267L62.7068 58.3267L57.9211 48.4545L77.064 48.4545L77.064 58.3267M63.9033 56.312L75.0699 56.312L75.0699 50.4692L61.1116 50.4692L63.9033 56.312M60.6131 57.823L39.0773 57.823L39.0773 51.0737L44.9598 41.3022L45.8571 42.511C45.8571 42.511 49.0476 46.5405 55.2291 47.6486L60.6131 57.823M41.0714 55.8083L57.4226 55.8083L54.3318 49.5626C49.6458 48.5552 46.6547 46.1375 45.1592 44.828L40.9717 51.6781L40.9717 55.8083"/>
</svg>
