<?xml version="1.0" encoding="utf-8" ?>
<svg xmlns="http://www.w3.org/2000/svg" xmlns:xlink="http://www.w3.org/1999/xlink" width="94" height="84">
	<path fill="white" d="M49.9228 0C48.0285 0 46.3336 1.72769 46.3336 3.65863L46.3336 14.0247C46.3336 15.9557 48.0285 17.6834 49.9228 17.6834C51.8171 17.6834 53.512 15.9557 53.512 14.0247L53.512 3.65863C53.512 1.62606 51.8171 0 49.9228 0"/>
	<path fill="white" d="M91.6976 23.9843C90.3018 22.5615 88.1083 21.5452 86.1143 21.5452L54.9078 21.7484C52.3156 21.7484 49.8231 22.6631 48.4273 24.594L46.5329 26.525L43.9407 26.525C42.6446 22.7647 39.5539 20.7321 35.8649 20.7321L26.0942 20.7321C22.3056 21.2403 3.56174 24.3908 0.371301 47.4604C-0.825113 55.0826 0.869807 63.2129 5.45606 69.9203C9.74321 76.1198 17.6196 83.3354 30.6805 83.973C30.6805 83.973 54.7084 85.7744 60.6905 59.8591L88.7065 48.1718C91.7973 46.9523 93.7913 43.8018 93.7913 40.5498L94 29.7771C94 27.5413 93.3925 25.4071 91.6976 23.9843"/>
	<path fill="#FFCF48" d="M35.2578 25.5088C36.9527 25.5088 38.5479 26.7283 39.2458 28.3544C39.9437 30.0821 41.3395 31.2 43.2338 31.2L46.524 31.2C47.7204 31.2 48.6177 30.6919 49.6147 29.7772L51.7084 27.643C52.4064 26.7283 53.6028 26.2202 54.7992 26.2202L86.3048 26.0169C88.1991 26.0169 89.5949 27.4397 89.5949 29.3707L89.3955 40.2449C89.3955 41.6677 88.4982 42.8873 87.3018 43.5987L58.8869 55.8957C57.4911 56.4039 56.4941 57.8267 56.2947 59.2495C53.9019 76.1198 37.85 79.4736 33.5628 79.9817C33.0643 79.9817 32.6655 79.9817 32.167 79.9817C20.1032 79.7784 13.0244 73.4775 9.23575 67.6846C5.4471 62.0951 4.05129 55.1843 4.9486 48.3752C7.74023 28.3544 24.3903 25.9153 26.4841 25.7121C26.6835 25.7121 26.6835 25.7121 26.9826 25.7121L35.2578 25.5088"/>
	<path fill="#2D1B0A" d="M33.5628 80.9979L31.8679 80.9979C18.5079 80.7946 11.3294 72.8676 8.3384 68.2943C4.54976 62.7047 2.95454 55.5907 3.85185 48.2735C6.74318 27.2364 24.2906 24.8989 26.2846 24.6957L35.158 24.4924C37.2517 24.4924 39.1461 25.9152 40.0434 27.9478C40.6416 29.3706 41.7383 30.1836 43.1341 30.1836L46.4242 30.1836C47.2219 30.1836 47.9198 29.8787 48.8171 29.0657L50.8111 27.0331C51.7084 25.9152 53.1042 25.3054 54.5997 25.3054L86.1053 25.1022C88.5978 25.1022 90.3925 26.9315 90.3925 29.4722L90.1931 40.3465C90.1931 41.9725 89.1961 43.5986 87.6008 44.5132L59.0863 56.9119C58.0893 57.3184 57.2917 58.3347 57.0923 59.4526C54.6994 77.6441 37.152 80.5914 33.5628 80.9979M35.2577 26.525L26.484 26.7282C24.7891 26.9315 8.6375 29.0657 5.94557 48.4767C5.04826 55.1842 6.54378 61.7901 10.0333 67.0748C13.5229 72.3594 20.1031 78.762 31.9676 78.9653L33.4631 78.9653C36.8529 78.5588 52.9048 75.7132 55.2977 59.1477C55.5968 57.2168 56.8929 55.5907 58.5878 54.981L86.9029 42.6839C87.8999 42.0741 88.4981 41.1595 88.4981 40.2448L88.6975 29.3706C88.6975 28.0494 87.8002 27.0331 86.4044 27.0331L54.8988 27.2364C54.0015 27.2364 53.1042 27.6429 52.6057 28.2527L50.4123 30.4885C49.515 31.4031 48.3186 32.2162 46.6236 32.2162L43.3335 32.2162C41.1401 32.2162 39.3455 30.9966 38.4482 28.7608C37.7502 27.4396 36.4541 26.525 35.2577 26.525"/>
	<path fill="white" d="M33.9706 6.4026C33.0733 6.4026 31.8769 6.91074 31.179 7.62214C30.4811 8.33354 30.2817 9.34983 30.2817 10.2645C30.2817 11.1791 30.7802 12.1954 31.4781 12.7036L39.2548 19.7159C39.9527 20.2241 40.6506 20.6306 41.6476 20.6306C42.5448 20.6306 43.7413 20.1225 44.4393 19.4111C45.6357 17.9883 45.6357 15.5492 43.9408 14.3296L36.164 7.31726C35.6655 6.70749 34.6685 6.4026 33.9706 6.4026"/>
	<path fill="#2D1B0A" d="M49.9228 2.43908C50.6207 2.43908 51.1192 2.94722 51.1192 3.65862L51.1192 14.0248C51.1192 14.7362 50.6207 15.2443 49.9228 15.2443C49.2249 15.2443 48.7264 14.7362 48.7264 14.0248L48.7264 3.65862C48.8261 3.15048 49.2249 2.43908 49.9228 2.43908"/>
	<path fill="#2D1B0A" d="M33.8709 8.84167C34.0703 8.84167 34.3694 8.84167 34.5688 9.04493L42.3455 16.0573C42.8439 16.5654 42.8439 17.2768 42.5449 17.785C42.3455 17.9882 42.0463 18.2931 41.6476 18.2931C41.4482 18.2931 41.149 18.2931 40.9496 18.0899L33.1729 11.0775C32.7694 10.5694 32.7694 9.85796 32.9735 9.34982C33.1729 8.84167 33.3723 8.84167 33.8709 8.84167"/>
</svg>
