<?xml version="1.0" encoding="utf-8" ?>
<svg xmlns="http://www.w3.org/2000/svg" xmlns:xlink="http://www.w3.org/1999/xlink" width="80" height="90">
	<path fill="white" d="M19.6829 0L4.26126 0L0 0L0 4.18605L0 22.9236L0 24.6179L1.11604 25.814L4.76855 29.402L5.07292 85.814L5.07292 90L9.33418 90L13.5954 90L17.8567 90L17.8567 85.814L17.8567 29.701L22.1179 26.2126L23.6398 25.0166L23.6398 22.9236L23.6398 4.18605L23.6398 0"/>
	<path fill="white" d="M63.268 0.795792L56.3131 0.0997L49.1566 0.298584L31.9206 18.0987L31.9206 79.0565C32.5254 82.9347 35.2468 87.2107 40.2866 87.6085L70.5252 87.8073L71.634 87.8073C71.634 87.8073 79.1936 86.614 80 78.6587L80 18.8942L63.268 0.795792"/>
	<path fill="#131411" d="M70.5253 85.4207L40.2867 85.2218C36.1541 85.0229 34.6422 81.1447 34.4406 79.0564L34.4406 19.5903L50.5679 2.78455L56.1116 2.78455L62.0585 2.98343L77.581 20.1868L77.581 78.4598C76.9762 82.2386 71.9365 84.9235 71.3317 85.2218"/>
	<path fill="#5DDEE2" d="M37.3637 79.6034C37.3637 79.6034 37.9685 82.885 40.4883 83.1833L70.7269 83.4816C72.2389 82.5866 74.7588 80.3989 74.9603 78.9073L74.9603 20.535L60.6474 4.4254L56.3132 4.4254L51.5758 4.4254L37.0613 19.8389L37.3637 79.6034"/>
	<path fill="#131411" d="M15.3902 87.3101L8.03218 87.3101L7.7298 28.341L2.89162 23.5679L2.89162 2.78455L21.1356 2.78455L21.1356 23.5679L15.3902 28.341L15.3902 87.3101M11.1568 84.2274L12.2656 84.2274L12.2656 27.0483L18.0109 22.2752L18.0109 5.66836L5.81468 5.66836L5.81468 22.2752L10.6529 27.0483L11.1568 84.2274"/>
	<path fill="#325D70" d="M45.6287 24.1647L56.3131 13.5245L66.0902 23.0709L66.4934 75.1784L45.4272 74.9795"/>
	<path fill="#2D1B0A" d="M68.0053 76.7693L43.9152 76.471L44.2176 23.568L56.4138 11.4361L67.7029 22.5736L68.0053 76.7693M46.9391 73.4878L64.9814 73.6866L64.5782 23.6674L56.313 15.5132L47.1407 24.6619L46.9391 73.4878"/>
	<path fill="#131411" d="M35.65 32.9155L76.2704 32.9155L76.2704 36.1971L35.65 36.1971L35.65 32.9155"/>
	<path fill="#131411" d="M35.65 51.3122L76.2704 51.3122L76.2704 54.5938L35.65 54.5938L35.65 51.3122"/>
</svg>
