<?xml version="1.0" encoding="utf-8" ?>
<svg xmlns="http://www.w3.org/2000/svg" xmlns:xlink="http://www.w3.org/1999/xlink" width="98" height="66">
	<path fill="white" d="M0 0L98 0L98 66L0 66L0 0"/>
	<path fill="#99CC62" d="M3.87365 3.7005L94.1263 3.7005L94.1263 62.2996L3.87365 62.2996L3.87365 3.7005"/>
	<path fill="#2D1B0A" d="M95.1826 63.3132L2.8171 63.3132L2.8171 2.6865L95.082 2.6865L95.082 63.3132M4.82942 61.2856L93.0697 61.2856L93.0697 4.71415L4.82942 4.71415L4.82942 61.2856"/>
	<path fill="white" d="M49.1006 45.6222C42.158 45.6222 36.7248 40.0462 36.7248 33.1521C36.7248 26.2581 42.2586 20.6821 49.1006 20.6821C56.0431 20.6821 61.4762 26.2581 61.4762 33.1521C61.4762 40.0462 56.0431 45.6222 49.1006 45.6222M49.1006 22C43.1642 22 38.1334 26.765 38.1334 33.0508C38.1334 39.3364 42.8623 44.1014 49.1006 44.1014C55.3388 44.1014 60.0676 39.3364 60.0676 33.0508C60.0676 26.8664 55.1375 22 49.1006 22"/>
	<path fill="white" d="M48.195 3.64985L50.1068 3.64985L50.1068 62.1475L48.195 62.1475L48.195 3.64985"/>
	<path fill="white" d="M77.2731 28.083L94.2773 28.083L94.2773 26.3596L78.0781 26.3596C80.8953 20.3779 86.9323 16.0185 94.076 16.0185L94.076 14.5991C83.612 14.5991 74.7578 23.2167 74.7578 34.0646C74.7578 44.6083 83.3101 53.5301 94.076 53.5301L94.076 52.1106C87.1336 52.1106 80.8953 48.0554 78.0781 41.9725L94.076 41.9725L94.076 40.2489L77.3738 40.2489C76.6694 38.3226 76.1664 36.3963 76.1664 34.2673C76.0658 31.9355 76.5688 30.0093 77.2731 28.083"/>
	<path fill="white" d="M4.02463 13.8895L4.02463 15.3088C11.1684 15.3088 17.2053 19.3641 20.0226 25.6498L3.8234 25.6498L3.8234 27.3734L20.8275 27.3734C21.5318 29.2995 21.7331 31.2258 21.7331 33.1521C21.7331 35.2812 21.23 37.2075 20.5257 39.1337L3.8234 39.1337L3.8234 40.8571L19.8213 40.8571C17.0041 46.8387 10.9671 50.9954 3.8234 50.9954L3.8234 52.4147C14.2875 52.4147 23.1452 43.7972 23.1452 32.9493C23.3429 22.6083 14.7905 13.8895 4.02463 13.8895"/>
</svg>
