<?xml version="1.0" encoding="utf-8" ?>
<svg xmlns="http://www.w3.org/2000/svg" xmlns:xlink="http://www.w3.org/1999/xlink" width="80" height="90">
	<path fill="white" d="M44.1334 22.2506C44.1334 22.2506 21.2633 22.2506 20.0543 22.2506C16.9312 22.2506 8.7705 24.3459 3.83381 29.6342C1.21434 32.428 -5e-05 36.2196 -5e-05 40.0111C0.408347 62.6608 16.5282 60.3659 16.7297 60.3659C23.3791 60.3659 28.4165 54.8781 31.3383 50.1885C34.1593 54.6785 38.9952 59.867 46.1483 60.3659C46.3498 60.3659 60.1525 63.0599 61.7033 42.4058C62.6712 28.2373 44.1334 22.2506 44.1334 22.2506"/>
	<path fill="#131411" d="M20.0546 24.1463C17.2336 24.1463 9.5767 26.0421 4.94226 31.031C2.52428 33.6252 1.3153 36.7184 1.5719 40.3104C2.12129 49.0909 4.23701 58.2705 15.9239 58.9689C16.1254 58.9689 16.4276 58.9689 16.6291 58.9689C23.7823 58.9689 28.8197 51.5853 31.2377 47.0953C33.3534 51.3858 38.3909 58.47 46.35 58.9689C46.5515 58.9689 47.0553 58.9689 47.2568 58.9689C50.5815 58.9689 58.7421 57.2727 60.1526 42.4057C61.3616 29.6341 45.0403 24.4456 44.3351 24.1463C44.3351 24.1463 21.2636 24.1463 20.0546 24.1463"/>
	<path fill="#2D1B0A" d="M47.2489 59.1685C37.672 58.6696 32.6316 50.2882 31.2202 47.3946C28.8008 51.8847 23.7603 59.1685 16.6028 59.1685C4.10245 58.47 1.98545 49.2904 1.4328 40.4102C1.17898 36.9179 2.28788 33.725 4.80812 31.031C9.34455 26.1419 17.0061 24.1463 20.0304 24.1463L44.3255 24.1463C44.3255 24.1463 44.4263 24.1463 44.5271 24.1463C49.5676 26.0421 61.2615 31.5299 60.1526 42.5055C58.7412 57.9711 49.87 59.1685 47.2489 59.1685M31.2202 46.8957C32.6316 49.6895 37.5712 58.3702 46.3417 58.8691C49.87 58.8691 58.5396 57.6718 60.0518 42.4057C61.0599 31.6297 49.5676 26.1419 44.5271 24.3459C44.4263 24.3459 44.3255 24.2461 44.3255 24.2461L20.0304 24.2461C17.0061 24.2461 9.54617 26.2416 5.00974 31.1308C2.4895 33.8248 1.4328 36.9179 1.68302 40.3104C2.18707 49.0909 4.30407 58.1707 15.8972 58.8691C23.6595 58.8691 28.7 51.4855 31.1194 47.0953"/>
	<path fill="white" d="M68.5147 -5e-05L68.5147 3.29263L68.7162 67.4501C68.2124 69.3458 66.8019 72.6385 64.8877 73.1374L47.4581 73.6363L44.3349 73.6363L44.1334 76.7294L43.6297 81.2194L43.4282 84.8114L47.0552 84.8114L66.1974 84.8114C70.9326 84.3125 79.2948 80.3214 80 67.5498L79.4963 3.39241L79.4963 -5e-05L76.1716 -5e-05L72.1416 -5e-05L68.5147 -5e-05"/>
	<path fill="white" d="M34.26 66.4525L24.4874 66.4525C18.2409 66.4525 13.2035 71.4414 13.2035 77.6277L13.2035 78.825C13.2035 85.0113 18.2409 90.0002 24.4874 90.0002L34.26 90.0002C40.5064 90.0002 45.5439 85.0113 45.5439 78.825L45.5439 77.6277C45.5439 71.4414 40.5064 66.4525 34.26 66.4525"/>
	<path fill="#131411" d="M77.179 18.4592L77.179 2.1953L72.1416 2.1953L71.1341 2.1953L71.1341 9.37934L71.1341 20.7541L71.2349 67.6498C71.0334 68.5478 69.4214 74.9337 65.1899 75.5323L46.6521 76.0312L45.9469 82.5168L47.0551 82.5168L66.2982 82.5168C66.3989 82.5168 76.7761 81.4192 77.4813 67.3505L77.179 18.4592M74.9626 4.19087L75.0633 18.4592L73.0483 18.7585L73.0483 9.57889L73.0483 4.19087L74.9626 4.19087M66.1974 80.5212L48.1634 80.5212L48.4656 78.0268L65.2907 77.5279C71.2349 76.7297 73.1491 68.3483 73.1491 67.9492L73.0483 20.7541L75.0633 20.7541L75.4663 67.2507C74.8618 79.5235 66.4997 80.5212 66.1974 80.5212"/>
	<path fill="#2D1B0A" d="M47.0551 82.6166L45.7454 82.6166L46.4506 75.9314L65.0892 75.4326C69.2199 74.8339 70.8319 68.3483 71.0334 67.6498L70.9326 20.9536L70.9326 9.47911L70.9326 3.0933L77.2798 2.1953L77.2798 18.5589L77.6828 67.4503C76.9775 81.6188 66.4997 82.7164 66.3989 82.7164L47.0551 82.6166M46.1484 82.417L66.3989 82.417C66.4997 82.417 76.6753 81.3195 77.4813 67.3505L77.0783 18.4592L77.0783 2.29508L71.3356 2.29508L71.3356 9.37934L71.3356 20.6543L71.4364 67.6498C71.2349 68.4481 69.5221 75.0334 65.2907 75.6321L46.8536 76.131L46.1484 82.417M66.1974 80.621L48.0626 80.621L48.3649 77.8272L65.3914 77.3283C71.1341 76.5301 73.0483 68.2485 73.0483 67.8494L72.9476 20.5545L75.1641 20.5545L75.5671 67.2507C74.9626 79.4237 66.6004 80.621 66.1974 80.621M48.3649 80.4215L66.1974 80.4215C66.6004 80.3217 74.7611 79.2241 75.3656 67.3505L74.9626 20.9536L73.2498 20.9536L73.3506 67.9492C73.2498 68.4481 71.4364 76.9292 65.3914 77.7275L48.5664 78.2263L48.3649 80.4215M75.2648 18.8583L73.0483 18.8583L73.0483 9.47911L73.0483 3.99131L75.1641 3.99131L75.2648 18.8583M73.2498 18.6587L74.9626 18.6587L74.8618 4.29064L73.2498 4.29064L73.2498 9.47911L73.2498 18.6587"/>
	<path fill="#FFCF48" d="M33.6554 69.8448L25.0918 69.8448C20.4574 69.8448 16.7297 73.4368 16.7297 77.827C16.7297 83.2151 20.5581 86.8071 25.0918 86.8071L33.6554 86.8071C38.29 86.8071 42.0177 83.2151 42.0177 78.8248C42.0177 73.5366 38.3906 69.8448 33.6554 69.8448"/>
	<path fill="#2D1B0A" d="M33.6555 87.9046L25.0918 87.9046C19.9536 87.9046 15.7222 83.8137 15.7222 78.9246C15.7222 72.9379 19.9536 68.9467 25.0918 68.9467L33.6555 68.9467C38.7937 68.9467 43.0251 73.0377 43.0251 77.9268C43.0251 83.9134 38.7937 87.9046 33.6555 87.9046M25.0918 70.8425C21.0619 70.8425 17.7372 74.0354 17.7372 77.827C17.7372 82.6163 21.0619 85.8092 25.0918 85.8092L33.6555 85.8092C37.6855 85.8092 41.0102 82.6163 41.0102 78.8248C41.0102 73.9357 37.6855 70.8425 33.6555 70.8425L25.0918 70.8425"/>
	<path fill="#2D1B0A" d="M47.1782 58.7692C38.3041 58.2703 33.4637 51.0863 31.346 46.7958C29.0266 51.1861 23.9845 58.7692 16.7238 58.7692C4.62274 57.8712 2.40421 49.2903 1.774 40.1107C1.59747 36.7182 2.60589 33.7249 4.92527 31.1306C9.26149 26.3413 16.9255 24.3457 19.9508 24.3457C21.3626 24.3457 24.4887 24.3457 28.0182 24.3457L44.0521 24.3457C44.9597 24.7448 60.8928 29.7337 60.0225 42.4056C58.7751 57.1728 50.6069 58.7692 47.1782 58.7692M46.4723 55.7759C52.7245 55.7759 56.1532 50.9865 56.8591 42.206C57.565 32.5275 45.2622 28.0375 43.5479 27.4388L27.9173 27.4388C24.287 27.4388 21.3626 27.4388 19.9508 27.3391C17.3289 27.5386 10.6733 29.1351 7.1438 33.1262C5.42948 35.022 4.62274 37.3169 4.72358 39.9111C5.42948 50.8867 8.55559 55.1772 16.2196 55.7759C24.5895 55.7759 29.7325 42.7049 29.8333 42.6051L31.346 38.8135L32.6569 42.7049C32.7578 42.8047 37.1948 55.1772 46.4723 55.7759"/>
	<path fill="#D4EDF9" d="M28.0213 25.8425C35.1745 25.8425 43.8389 25.8425 43.8389 25.8425C43.8389 25.8425 59.3542 30.6318 58.4857 42.3059C57.5407 53.481 52.5033 57.2727 47.1636 57.2727C46.9621 57.2727 46.6598 57.2727 46.4583 57.2727C35.9805 56.5742 31.346 43.104 31.346 43.104C31.346 43.104 25.8048 57.2727 16.7374 57.2727C16.5359 57.2727 16.2337 57.2727 16.2337 57.2727C6.86404 56.5742 4.04307 50.388 3.311 40.011C2.63258 29.634 16.0322 26.042 20.0621 25.8425C21.3719 25.8425 24.3943 25.8425 28.0213 25.8425"/>
</svg>
