<?xml version="1.0" encoding="utf-8" ?>
<svg xmlns="http://www.w3.org/2000/svg" xmlns:xlink="http://www.w3.org/1999/xlink" width="76" height="84">
	<path fill="white" d="M70.5 60.8629L70.5 21.9686C70.7 20.2733 70.8 10.799 65.8 5.31393C62.3 1.82342 57.9 -0.270889 52.3 0C46.2 0.327484 40.9 2.42179 37.5 6.21149C32.8 11.9958 33.4 20.2733 33.7 23.2651L33.7 54.8792C33.9 57.4721 33.7 65.1512 30.5 68.9409C29 70.4369 27.5 71.3344 25.2 71.3344C25 71.3344 19 71.9328 16.8 69.2401C14.7 66.7469 14.4 61.9599 14.4 57.7713C14.4 57.7713 14.4 39.9198 14.2 29.6478L19.8 29.6478L19.8 21.0711L18.3 21.0711L18.3 12.2949C18.3 7.80715 14.2 3.71827 9.7 3.71827C5 3.71827 1.1 7.50796 1.1 12.2949L1.1 21.0711L0 21.0711L0 29.6478L5.6 29.6478C5.6 39.9198 5.8 57.7713 5.8 57.7713C5.8 63.0569 5.8 70.6363 10.8 75.7225C14 78.9138 18.5 80.4098 24.3 80.4098C24.9 80.4098 25.2 80.4098 25.8 80.4098C30.5 80.2103 34.4 78.3155 37.6 75.1241C43.8 68.0434 43.2 56.3751 43.2 54.8792L43.2 22.3676C43 20.6722 42.6 15.0874 44.9 11.896C46.4 10.2006 48.7 8.90417 52 8.90417C52.2 8.90417 52.2 8.90417 52.6 8.90417C55.8 8.90417 57.9 9.80173 59.4 11.2977C61.8 13.8906 62 18.3784 61.8 21.5697L61.8 61.0624L56.2 61.0624L56.2 68.3426L57.3 68.3426L57.3 75.4233C57.3 80.1106 61.1 84 65.9 84C70.6 84 74.5 80.2103 74.5 75.4233L74.5 68.3426L76 68.3426L76 61.0624L70.5 61.0624"/>
	<path fill="#FFCF48" d="M3.4 24.8773L16.1 24.8773L3.4 25.7773"/>
	<path fill="#2D1B0A" d="M2.4 23.8802L17.1 23.8802L17.1 26.7716L2.4 26.7716L2.4 23.8802"/>
	<path fill="#131411" d="M24.2948 76.4228C19.1949 76.4228 15.3948 75.2262 12.8948 72.7337C8.69485 68.646 8.69485 62.3648 8.69485 57.2802C8.69485 49.3041 8.49485 11.4176 8.49485 11.0188L10.9949 11.0188C10.9949 11.4176 11.1948 49.3041 11.1948 56.4825C11.1948 61.8664 11.1948 67.649 14.5949 71.0388C16.8948 73.2323 20.4949 74.2292 25.4949 74.0299C28.5949 73.9302 31.1949 72.7337 33.0948 70.6401C38.0948 65.0567 37.2948 54.3888 37.1949 54.2891L37.1949 22.6839C36.9949 21.4875 35.7948 13.2122 40.2948 7.629C42.7948 4.43856 46.6949 2.74365 51.6949 2.52555C56.7948 2.34484 60.7948 3.74066 63.4949 6.73169C68.2948 12.0158 67.5051 20.1914 67.3949 21.0887L67.3949 73.2323L64.8949 73.2323L64.8949 20.8893C64.8949 20.7896 65.8949 13.0128 61.5948 8.4266C59.3949 6.03378 56.0948 4.83737 51.6949 5.03677C47.3949 5.23617 44.1949 6.53228 42.1949 9.12451C38.1949 14.2092 39.5948 22.2851 39.5948 22.2851L39.5948 54.0896C39.5948 54.4884 40.4949 65.7546 34.7948 72.2353C32.3949 74.9272 29.2948 76.3231 25.4949 76.5225C25.0949 76.4228 24.6949 76.4228 24.2948 76.4228"/>
	<path fill="#2D1B0A" d="M24.2938 76.5224C19.1934 76.5224 15.3931 75.3257 12.7929 72.733C8.59262 68.6444 8.59262 62.2623 8.59262 57.1765C8.59262 49.498 8.3926 14.8949 8.3926 10.906L11.0928 10.7066C11.0928 14.7952 11.2928 49.498 11.2928 56.3788C11.2928 61.7637 11.2928 67.5475 14.6931 70.8383C16.9932 73.0322 20.4935 74.0294 25.4939 73.8299C28.5941 73.7302 31.0943 72.5336 32.9945 70.4394C37.8948 64.9548 37.0948 54.5838 37.0948 54.1849L37.0948 22.5734C36.8948 21.6759 35.5947 13.0999 40.195 7.41581C42.7952 4.22474 46.5955 2.52948 51.6959 2.3124C56.7963 2.1306 60.7966 3.62641 63.5968 6.61804C68.3972 11.9032 67.6074 20.1801 67.4971 21.0776L67.4971 73.3313L64.7969 73.3313L64.7969 20.8781C64.7969 20.7784 65.697 13.0002 61.5966 8.41301C59.3965 6.01971 56.0962 4.92278 51.7959 5.0225C47.5956 5.22195 44.3953 6.51832 42.3952 9.11106C38.4949 13.9974 39.795 21.8753 39.895 22.1745L39.895 54.0852C39.895 54.1849 40.8951 65.7525 35.0946 72.2344C32.6944 74.9269 29.4942 76.4227 25.6939 76.5224C25.0939 76.5224 24.6938 76.5224 24.2938 76.5224M8.49261 11.0058C8.49261 15.2938 8.69262 49.498 8.69262 56.3788C8.69262 62.2623 8.69262 68.5447 12.7929 72.6333C15.3931 75.1263 19.0934 76.323 24.1938 76.323C24.5938 76.323 25.0939 76.323 25.4939 76.323C29.2942 76.1235 32.3944 74.7274 34.6946 72.1347C40.395 65.7525 39.395 54.1849 39.395 54.0852L39.395 22.3739C39.2949 21.8753 38 13.8977 41.9952 8.91162C44.0953 6.31888 47.2956 4.92278 51.5959 4.72334C55.9962 4.5239 59.2965 5.72055 61.5966 8.21357C65.797 12.8007 64.8969 20.4792 64.8969 20.7784L64.8969 72.9324L67.0971 72.9324L67.0971 20.9778C67.1971 20.0804 67.9971 11.9032 63.1968 6.61804C60.4966 3.62641 56.5963 2.3124 51.4959 2.42976C46.4955 2.6292 42.6952 4.32446 40.195 7.41581C35.6947 13.0999 36.9948 21.4765 37.1948 22.3739L37.1948 54.0852C37.1948 54.4841 38 64.9548 32.9945 70.5391C31.0943 72.733 28.4941 73.8299 25.3939 74.0294C20.2935 74.2288 16.6932 73.2316 14.3931 71.0377C10.8928 67.6472 10.8928 61.8634 10.9928 57.2763C10.9928 49.5978 10.7928 15.2938 10.7928 11.1055L8.49261 11.0058"/>
	<path fill="#FFCF48" d="M9.8 6.632C12.5 6.632 14.9 9.02482 14.9 11.6171L14.9 24.8773L4.4 24.8773L4.4 11.6171C4.4 8.92512 6.8 6.632 9.8 6.632"/>
	<path fill="#2D1B0A" d="M15.9 25.8743L3.4 25.8743L3.4 11.6171C3.4 8.32693 6.3 5.635 9.8 5.635C13.1 5.635 15.9 8.42663 15.9 11.6171L15.9 25.8743M5.4 23.8803L13.9 23.8803L13.9 11.6171C13.9 9.52334 11.9 7.62902 9.8 7.62902C7.5 7.62902 5.4 9.52334 5.4 11.6171L5.4 23.8803"/>
	<path fill="#FFCF48" d="M65.7 80.012C63 80.012 60.6 77.9182 60.6 75.5254L60.6 63.7607L71.1 63.7607L71.1 75.5254C71.1 77.9182 68.7 80.012 65.7 80.012"/>
	<path fill="#2D1B0A" d="M65.7 81.0089C62.4 81.0089 59.6 78.4167 59.6 75.5253L59.6 62.7636L72.1 62.7636L72.1 75.5253C72.1 76.9212 71.4 78.317 70.2 79.4137C69 80.5105 67.4 81.0089 65.7 81.0089M61.6 64.8574L61.6 75.625C61.6 77.4197 63.6 79.1146 65.7 79.1146C66.9 79.1146 68 78.7159 68.9 78.018C69.7 77.3199 70.1 76.5223 70.1 75.7247L70.1 64.9571L61.6 64.9571"/>
	<path fill="#FFCF48" d="M58.8 63.8604L72.9 63.8604L58.8 64.7604"/>
	<path fill="#2D1B0A" d="M57.8 62.8633L73.9 62.8633L73.9 65.7547L57.8 65.7547L57.8 62.8633"/>
</svg>
