<?xml version="1.0" encoding="utf-8" ?>
<svg xmlns="http://www.w3.org/2000/svg" xmlns:xlink="http://www.w3.org/1999/xlink" width="74" height="70">
	<path fill="white" d="M73.7935 1.11594C73.287 0.507246 72.3753 0 71.3623 0C70.6533 0 70.1468 0.202899 69.6403 0.710145L36.4147 28.6087L4.40471 1.62319C3.89822 1.11594 3.49303 0.913043 2.68265 0.913043C1.77097 0.913043 0.757996 1.62319 0.251509 2.33333C-0.254979 3.24638 0 4.26087 0.757996 5.17391L27.9057 35.5072L19.2954 42.7101C18.5864 42.7101 17.8773 42.5072 17.1682 42.5072C14.3319 42.5072 11.3942 43.4203 9.26699 45.1449C8.7605 45.6522 8.35531 46.3623 8.35531 47.0725C8.35531 47.7826 8.5579 48.4928 9.06439 49L13.1163 53.5652L3.69562 62.1884C2.78395 63.1014 2.48005 64.8261 3.49303 65.8406L5.92417 68.4783C6.43066 68.9855 7.13974 69.3913 7.84882 69.3913C8.5579 69.3913 9.06439 69.1884 9.57088 68.6812L19.1941 60.2609L22.0305 63.6087C22.537 64.1159 23.246 64.5217 23.9551 64.5217C24.6642 64.5217 25.3733 64.3188 25.8798 63.8116C28.7161 60.971 30.2356 56.6087 29.5265 52.7536L36.516 45.0435L44.2146 53.6667C43.5055 57.7246 44.9237 61.8841 47.8613 64.7246C48.3678 65.2319 49.0769 65.4348 49.786 65.4348C50.4951 65.4348 51.2041 65.2319 51.7106 64.5217L54.8509 60.8696L64.2715 69.2899C64.778 69.7971 65.4871 70 65.9936 70C66.7027 70 67.4117 69.7971 67.9182 69.087L70.7546 65.942C71.6662 65.029 71.4636 63.3043 70.552 62.2899L61.1313 53.8696L64.9806 49.5072C65.4871 49 65.6897 48.2899 65.6897 47.5797C65.6897 46.8696 65.1832 46.1594 64.778 45.6522C62.6508 43.9275 59.7131 43.0145 56.8768 43.0145C56.1677 43.0145 55.4586 43.0145 54.7496 43.2174L45.1263 35.3043L73.287 3.95652C74 3.24638 74.1987 2.02899 73.7935 1.11594"/>
	<path fill="#131411" d="M4.79561 63.7921L15.8814 53.8376L18.9236 57.2369L7.83782 67.1913L4.79561 63.7921"/>
	<path fill="#2D1B0A" d="M7.85902 67.3624L4.61805 63.8116L15.8601 53.6666L19.1012 57.2174L7.85902 67.3624M5.02317 63.8116L7.85902 67.058L18.7973 57.3188L15.9615 54.0724L5.02317 63.8116"/>
	<path fill="white" d="M26.3009 52.4493L70.054 3.55071C70.2566 3.34781 70.054 3.04346 69.8515 3.34781L19.6164 45.4493L26.3009 52.4493C26.0984 52.6522 26.0984 52.6522 26.3009 52.4493"/>
	<path fill="#2D1B0A" d="M26.191 52.6521L19.5065 45.6521L69.7416 3.2463C69.8429 3.0434 69.9441 3.0434 70.0454 3.0434C70.1467 3.0434 70.248 3.0434 70.248 3.2463C70.248 3.34775 70.248 3.55065 70.1467 3.6521L26.4949 52.4492M19.7091 45.5506L26.2923 52.2463L69.9441 3.4492C69.9441 3.4492 70.0454 3.34775 69.9441 3.34775C69.9441 3.34775 69.9441 3.34775 69.8429 3.4492L19.7091 45.5506"/>
	<path fill="#131411" d="M26.2414 53.9203L18.0377 45.7029L69.083 2.68844C69.3869 2.38409 69.6907 2.25625 70.0958 2.25625C70.5009 2.38409 70.9061 2.58699 71.0074 3.09423C71.2099 3.50003 71.0074 4.00728 70.7035 4.41307L26.2414 53.9203M20.9748 45.6014L26.2414 50.9782L61.1832 11.9203L20.9748 45.6014"/>
	<path fill="#2D1B0A" d="M26.2921 54.0725L17.8858 45.6522L69.0324 2.53629C69.3362 2.23194 69.7414 2.1041 70.1465 2.1041C70.6529 2.23194 71.058 2.53629 71.1593 2.94208C71.3619 3.44933 71.1593 3.95658 70.8555 4.36237L26.2921 54.0725M18.2909 45.6522L26.2921 53.6667L70.6529 4.15948C70.9567 3.85513 71.058 3.34788 70.9567 3.04353C70.8555 2.63774 70.5516 2.43484 70.1465 2.33339C69.8426 2.33339 69.4375 2.43484 69.235 2.73919L18.2909 45.6522M26.2921 51.1305L20.8229 45.5508L61.1325 11.7682L26.2921 51.1305M21.1268 45.6522L26.1908 50.8261L59.9172 13.1885L21.1268 45.6522"/>
	<path fill="#AFAFAF" d="M10.9988 47.8841L23.4562 62.087C23.6588 62.2898 24.1652 62.2898 24.3678 62.087C28.014 58.2318 28.014 52.2464 24.5704 48.3913C21.2281 44.5362 14.9487 44.029 10.8975 46.971C10.7563 46.971 10.7563 47.4783 10.9988 47.8841"/>
	<path fill="#131411" d="M23.8614 63.2029C23.4563 63.2029 22.9499 63.1015 22.7473 62.7971L10.1885 48.4928C9.7384 47.8841 9.58085 47.1739 9.88469 46.5652C9.98597 46.3623 10.1885 46.1594 10.3911 46.058C14.9487 42.9131 21.7345 43.6232 25.2793 47.6812C29.128 51.9421 29.0267 58.5362 25.0768 62.6957C24.7729 63.1015 24.3678 63.2029 23.8614 63.2029M12.0116 47.4783L23.9627 61.0725C26.8998 57.6232 26.8998 52.4493 23.8614 49.1015C21.0255 45.7536 15.6577 45.1449 12.0116 47.4783"/>
	<path fill="#2D1B0A" d="M23.8633 63.3044C23.3572 63.3044 22.9523 63.1014 22.6484 62.7971L10.0952 48.4928C9.62065 47.8841 9.48778 47.0725 9.79149 46.4638C9.89272 46.1594 10.0952 45.9565 10.3989 45.8551C14.9545 42.6087 21.8386 43.4203 25.4832 47.5797C29.3301 51.942 29.2289 58.6377 25.2807 62.7971C24.8757 63.2029 24.3696 63.3044 23.8633 63.3044M16.878 44.2319C14.6508 44.2319 12.3224 44.8406 10.5001 46.1594C10.2977 46.2609 10.0952 46.4638 9.99396 46.6667C9.79149 47.1739 9.89272 47.8841 10.2977 48.3913L22.851 62.6956C23.1547 63 23.4584 63.1014 23.9646 63.1014C24.3696 63.1014 24.7745 62.8986 25.0782 62.6956C28.9252 58.5362 29.0264 52.0435 25.2807 47.7826C23.1547 45.4493 20.0163 44.2319 16.878 44.2319M23.9646 61.2753L11.8162 47.4783C11.9174 47.2754 11.9174 47.2754 11.9174 47.3768C15.6632 45.145 21.13 45.8551 23.8633 49.1015C26.9005 52.5508 27.0017 57.8261 23.9646 61.2753M12.2212 47.4783L23.9646 60.8695C26.7991 57.5218 26.6979 52.4493 23.7621 49.1015C21.0288 45.9565 15.8657 45.2464 12.2212 47.4783"/>
	<path fill="#131411" d="M55.132 57.9135L58.1742 54.5142L69.26 64.4687L66.2178 67.8679L55.132 57.9135"/>
	<path fill="#2D1B0A" d="M66.1965 68.0724L54.9544 57.9275L58.1954 54.3768L69.4375 64.5217L66.1965 68.0724M55.2583 57.9275L66.1965 67.6666L69.0324 64.4202L58.0941 54.6811L55.2583 57.9275"/>
	<path fill="white" d="M53.4489 45.6435L3.2138 3.45795C3.01124 3.3391 2.7074 3.45795 3.01124 3.74489L46.7644 52.6435L53.4489 45.6435"/>
	<path fill="#2D1B0A" d="M46.9533 52.7536L2.89636 3.85505C2.6938 3.7536 2.6938 3.65215 2.6938 3.5507C2.6938 3.44925 2.6938 3.3478 2.89636 3.3478C2.99764 3.3478 3.2002 3.3478 3.30148 3.3478L53.6378 45.6521L46.9533 52.7536M46.7508 52.4492L53.2327 45.5507L3.09892 3.5507C2.99764 3.44925 2.99764 3.44925 2.99764 3.44925C2.99764 3.44925 2.99764 3.44925 3.09892 3.5507L46.7508 52.4492"/>
	<path fill="#131411" d="M47.3715 53.644L46.2575 53.644L2.30177 4.44111C1.99793 4.13676 1.8703 3.73096 1.8703 3.42662C1.99793 3.02082 2.20049 2.61502 2.70689 2.4319C3.11201 2.31067 3.61841 2.4319 4.02353 2.81792L54.9676 45.5281L47.3715 53.644M11.8221 12.0498L46.8651 51.2092L51.9292 45.731L11.8221 12.0498"/>
	<path fill="#2D1B0A" d="M47.4597 53.768L46.2443 53.768L2.2886 4.52195C1.98476 4.21733 1.7822 3.81118 1.7822 3.40503C1.7822 2.89734 2.18732 2.49118 2.59244 2.3079C3.09885 2.18657 3.60525 2.3079 4.01037 2.69426L55.0557 45.5434L47.4597 53.768M46.3456 53.4634L47.3584 53.4634L54.7519 45.4419L3.90909 2.7958C3.60525 2.49118 3.09885 2.3079 2.69372 2.49118C2.2886 2.59272 2.08604 2.89734 1.98476 3.30349C1.98476 3.70964 2.08604 4.01426 2.38988 4.21733L46.3456 53.4634M46.852 51.4326L11.7077 12.1373L52.1186 45.645L46.852 51.4326M13.0243 13.2542L46.7507 51.0265L51.7134 45.7465L13.0243 13.2542"/>
	<path fill="#AFAFAF" d="M48.6751 48.8986C45.3328 52.7537 45.3328 58.5363 48.8776 62.5943C49.0802 62.7972 49.5866 62.7972 50.093 62.5943L62.3479 48.5943C62.5504 48.3914 62.5504 47.6812 62.3479 47.3769C58.0942 44.7392 52.1186 45.0435 48.6751 48.8986"/>
	<path fill="#131411" d="M49.3841 63.7101C48.8777 63.7101 48.4725 63.5072 48.1687 63.3043C44.32 58.8405 44.2188 52.5507 47.9661 48.1884C51.6122 44.1304 57.9929 43.4203 62.9557 46.4638C63.6646 47.3768 63.7659 48.6957 63.1582 49.3043L50.802 63.4058C50.093 63.7101 49.6879 63.7101 49.3841 63.7101M49.4853 49.5072C46.4469 52.9565 46.5482 58.0289 49.4853 61.6811L61.4365 47.9855C57.3852 45.6522 52.3212 46.3623 49.4853 49.5072"/>
	<path fill="#2D1B0A" d="M49.3841 63.9131C48.8777 63.9131 48.3713 63.7102 48.0674 63.4058C44.1175 58.9421 44.0162 52.5507 47.7636 48.1884C51.4097 44.1304 57.8916 43.3188 62.8543 46.4638C63.6646 47.5797 63.6646 48.8985 63.0569 49.5072L50.5994 63.7102C50.093 63.8116 49.7892 63.9131 49.3841 63.9131M56.2711 44.7391C53.1314 44.7391 50.093 45.9565 47.9661 48.2899C44.2188 52.5507 44.4213 58.8406 48.1687 63.2029C48.4725 63.5073 48.7764 63.6087 49.2828 63.6087C49.5866 63.6087 49.9917 63.5073 50.2956 63.4058L62.8543 49.2029C63.3608 48.6957 63.3608 47.4783 62.9556 46.8696C60.8287 45.3478 58.4993 44.7391 56.2711 44.7391M49.3841 61.7827C46.3456 58.029 46.3456 52.8551 49.2828 49.4058C52.2199 46.1594 57.3852 45.4493 61.5377 47.8841L49.5866 61.7827C49.4853 61.7827 49.4853 61.7827 49.3841 61.7827M49.4853 49.6087C46.5482 52.9565 46.5482 57.9276 49.4853 61.4783L61.2339 47.9855C57.2839 45.8551 52.3212 46.4638 49.4853 49.6087"/>
</svg>
