<?xml version="1.0" encoding="utf-8" ?>
<svg xmlns="http://www.w3.org/2000/svg" xmlns:xlink="http://www.w3.org/1999/xlink" width="92" height="78">
	<path fill="white" d="M92 41.2471L72.9793 4.19462L62.2677 0L29.432 0.399488L18.7203 3.69526L0 38.7503L17.2187 48.7375L20.8226 42.8451L21.0229 78L73.2797 78L73.0794 48.7375"/>
	<path fill="#131411" d="M22.8749 76.0025L22.8749 68.612L22.6747 51.7336L22.8749 34.8553L16.2677 45.7413L2.753 37.9513L20.0718 5.49292L31.284 2.19714L61.7171 1.9974L71.728 5.09343L89.0468 39.4494L74.531 45.8412L70.7269 36.8527L70.9271 53.7311L71.1273 75.8028"/>
	<path fill="#2D1B0A" d="M22.7748 76.1024L22.7748 68.612L22.5746 51.7336L22.7748 35.3546L16.3678 45.9411L2.6529 38.0512L20.0718 5.49292L31.3841 2.19714L61.8172 1.9974L71.9282 5.09343L89.3471 39.6491L74.6311 46.2407L71.0272 37.7516L71.2274 54.0307L71.4277 76.2023L22.7748 76.1024M23.0751 34.3559L22.8749 51.7336L23.0751 68.612L23.0751 75.9026L71.0272 75.7029L70.827 53.7311L70.6268 36.2535L74.6311 45.7413L88.9467 39.4494L71.728 5.29317L61.8172 2.19714L31.3841 2.39689L20.2721 5.69266L3.05333 37.9513L16.3678 45.6414L23.0751 34.3559"/>
	<path fill="white" d="M70.1763 6.49164L61.0664 3.7951L31.234 3.89497L21.6235 6.991L5.506 37.3521L15.3167 42.845L24.827 28.3636L25.3275 73.7055L69.0751 73.7055L68.8749 29.8617L75.6823 43.0448L86.494 38.5505"/>
	<path fill="#131411" d="M23.1064 43.0057L61.6258 2.78615L63.0734 4.16598L24.554 44.3856L23.1064 43.0057"/>
	<path fill="#2D1B0A" d="M24.7089 44.543L23.1064 42.945L61.8665 2.4969L63.469 4.09485L24.7089 44.543M23.4069 42.945L24.7089 44.1435L63.0684 4.09485L61.7664 2.89639L23.4069 42.945"/>
	<path fill="#131411" d="M28.4675 4.98201L30.0092 3.70744L45.0208 21.7792L43.4792 23.0538L28.4675 4.98201"/>
	<path fill="#2D1B0A" d="M43.4472 23.1703L28.2307 4.89371L29.9326 3.4955L45.1491 21.7721L43.4472 23.1703M28.6311 4.89371L43.4472 22.7708L44.7487 21.6722L29.9326 3.79512L28.6311 4.89371"/>
	<path fill="#131411" d="M70.5766 75.3035L23.4254 75.3035L23.4254 44.3432L70.5766 44.3432L70.5766 75.3035M25.4275 73.3061L68.5744 73.3061L68.5744 46.3406L25.4275 46.3406L25.4275 73.3061"/>
	<path fill="#2D1B0A" d="M70.7769 75.4033L23.3253 75.4033L23.3253 44.1434L70.7769 44.1434L70.7769 75.4033M23.6256 75.2036L70.5767 75.2036L70.5767 44.443L23.6256 44.443L23.6256 75.2036M68.7747 73.4059L25.3275 73.4059L25.3275 46.1408L68.7747 46.1408L68.7747 73.4059M25.6278 73.2061L68.5745 73.2061L68.5745 46.4405L25.6278 46.4405L25.6278 73.2061"/>
	<path fill="#131411" d="M53.1578 51.6338L48.3526 47.1395L44.3482 51.6338L42.8466 50.2356L48.2524 44.3431L54.4592 50.2356"/>
	<path fill="#2D1B0A" d="M53.1578 51.8335L48.3526 47.3393L44.3482 51.7336L42.6464 50.2355L48.2524 44.0435L54.6595 50.1357L53.1578 51.8335M48.3526 47.0396L53.1578 51.5339L54.3591 50.2355L48.2524 44.5429L43.0468 50.3354L44.3482 51.5339L48.3526 47.0396"/>
</svg>
