<?xml version="1.0" encoding="utf-8" ?>
<svg xmlns="http://www.w3.org/2000/svg" xmlns:xlink="http://www.w3.org/1999/xlink" width="68" height="90">
	<path fill="white" d="M15.0831 42.9C7.83 42.9 2.0071 48.6 2.0071 55.7C2.0071 62.8 7.83 68.5 15.0831 68.5C22.3362 68.5 28.1591 62.8 28.1591 55.7C28.1591 48.6 22.4383 42.9 15.0831 42.9"/>
	<path fill="#131411" d="M15.0832 66.4C9.05595 66.4 4.15245 61.7 4.15245 55.7C4.15245 49.7 8.95379 45 15.0832 45C21.1103 45 26.0139 49.7 26.0139 55.7C26.0139 61.7 20.906 66.4 15.0832 66.4M15.0832 47.4C10.4861 47.4 6.6042 51.2 6.6042 55.7C6.6042 60.2 10.4861 64 15.0832 64C19.6802 64 23.5622 60.2 23.5622 55.7C23.5622 51.2 19.7824 47.4 15.0832 47.4"/>
	<path fill="#2D1B0A" d="M15.0831 66.5C8.9537 66.5 4.0502 61.6 4.0502 55.7C4.0502 49.6 8.9537 44.9 15.0831 44.9C21.2124 44.9 26.1159 49.8 26.1159 55.7C26.1159 61.6 21.2124 66.5 15.0831 66.5M15.0831 45.1C9.05585 45.1 4.25451 49.7 4.25451 55.7C4.25451 61.7 8.9537 66.3 15.0831 66.3C21.0081 66.3 25.9116 61.6 25.9116 55.7C25.9116 49.7 21.1103 45.1 15.0831 45.1M15.0831 64.1C10.3839 64.1 6.50195 60.2 6.50195 55.7C6.50195 51.2 10.486 47.3 15.0831 47.3C19.7823 47.3 23.6642 51.1 23.6642 55.7C23.6642 60.2 19.7823 64.1 15.0831 64.1M15.0831 47.5C10.5882 47.5 6.70626 51.2 6.70626 55.7C6.70626 60.2 10.486 63.9 15.0831 63.9C19.5779 63.9 23.4599 60.2 23.4599 55.7C23.4599 51.2 19.6801 47.5 15.0831 47.5"/>
	<path fill="#FFFAFA" d="M64.5948 3.7L56.3201 1.1L53.1533 0L51.9274 3.1L26.4905 70.7L5.65066 71.4L4.22047 71.9C4.01616 72.1 0.849318 73.8 0.0341 77.6C-0.376556 80.9 1.05363 84.7 4.73125 88.8L5.65066 90L7.08085 90L31.2919 89.8C33.0285 89.8 38.3406 89.1 40.9967 78.9C43.142 70.6 66.4336 8.9 66.7401 8.2L67.9659 4.9L64.5948 3.7"/>
	<path fill="#FFCF48" d="M7.21709 87.5C3.84594 83.7 2.41575 80.4 2.82525 77.7C3.43731 74.9 5.78691 73.7 5.78691 73.4L28.7721 72.5L54.924 2.5L65.3439 5.8L64.8332 7C64.6289 7.7 41.3372 69.4 39.0898 77.7C36.6381 87 32.041 87 31.5303 87L7.21709 87.5"/>
	<path fill="#2D1B0A" d="M6.50199 88.5L6.09336 87.5C2.82437 84 1.29202 80.5 1.90496 77.5C2.31359 75.1 3.94808 73.7 4.66318 73.1C4.66318 73.1 4.66318 73.1 4.76533 73L28.0569 71.5L54.3111 1.2L66.672 5.1L65.7526 7.3C65.6504 7.7 65.0375 9.3 63.0965 14.5C56.7628 31.5 41.848 71.4 40.0092 78C37.5575 87.3 32.8583 88 31.4281 88L6.50199 88.5M6.50199 74.1C6.39983 74.2 6.19552 74.4 6.09336 74.5C5.48043 75 4.25455 76.1 3.94808 77.8C3.53946 80.2 4.86749 83.2 7.72786 86.2L31.4281 85.9C32.1432 85.9 35.923 85.5 38.0683 77.3C39.9071 70.7 54.8219 30.7 61.1556 13.7C62.6879 9.7 63.7095 6.8 63.8116 6.6L55.4348 3.6L29.385 73.3L6.50199 74.1"/>
</svg>
