<?xml version="1.0" encoding="utf-8" ?>
<svg xmlns="http://www.w3.org/2000/svg" xmlns:xlink="http://www.w3.org/1999/xlink" width="68" height="74">
	<path fill="#4C4C4C" d="M19.9051 29.9835L24.6135 10.7517L26.5561 11.2274L21.8477 30.459L19.9051 29.9835"/>
	<path fill="#5DDEE2" d="M39.0011 31.4049L56.3169 27.2824L65.9283 67.6536L48.6125 71.7761L39.0011 31.4049"/>
	<path fill="white" d="M57.7 25.3L50.6 26.9L47.6 14.7C47.7 14.1 47.8 13.4 47.8 12.8C47.8 5.7 42.1 0 35 0C28.5 0 23.3 4.7 22.4 10.9L18.3 27.2L10.2 25.4L0 69.3L20.6 74L30.8 30.1L24.7 28.7L26.3 22.2C28.6 24.3 31.6 25.6 35 25.6C38 25.6 40.7 24.6 42.9 22.9L44.3 28.4L37.2 30L47.4 73.9L68 69.2L57.7 25.3"/>
	<path fill="#2D1B0A" d="M65.9 66L57.1 28.8L56.6 26.9L54.7 27.4L49 28.7L45.5 14.4C45.6 13.8 45.6 13.3 45.6 12.7C45.6 6.7 40.8 2 34.9 2C29.1 2 24.5 6.4 24.2 12.1L20 29L13.2 27.4L11.3 26.9L10.8 28.8L2 66L1.5 67.9L3.4 68.4L17.5 71.8L19.4 72.3L19.9 70.4L28.7 33.2L29.2 31.3L27.3 30.8L22.4 29.6L25.4 17.5C27.2 21 30.8 23.4 35 23.4C38.8 23.4 42.2 21.4 44.1 18.4L46.8 29.3L40.7 30.8L38.8 31.3L39.3 33.2L48.1 70.4L48.6 72.3L50.5 71.8L64.6 68.4L66.5 67.9L65.9 66M43 14.5C42.2 18.2 38.8 21.1 34.9 21.1C30.4 21.1 26.6 17.3 26.6 12.8C26.6 8.3 30.4 4.5 34.9 4.5C39.3 4.5 43 8.1 43.2 12.5L43 14.5"/>
	<path fill="#2D1B0A" d="M49.1 71.1L39.8 32L55.9 28.2L65.2 67.3L49.1 71.1M42.2 33.4L50.6 68.6L62.8 65.7L54.4 30.5L42.2 33.4"/>
	<path fill="#FF6F64" d="M55.1 29.3L64 66.5L49.8 69.9L41 32.7L55.1 29.3"/>
	<path fill="#2D1B0A" d="M18.7 71.1L2.6 67.3L11.9 28.2L28 32L18.7 71.1M5 65.8L17.2 68.7L25.6 33.5L13.4 30.6L5 65.8"/>
	<path fill="#FF6F64" d="M12.7 29.3L26.8 32.7L17.9 69.9L3.8 66.5L12.7 29.3"/>
</svg>
