<?xml version="1.0" encoding="utf-8" ?>
<svg xmlns="http://www.w3.org/2000/svg" xmlns:xlink="http://www.w3.org/1999/xlink" width="66" height="72">
	<path fill="white" d="M55.0835 4.56982L55.0835 0.507757L11.3171 0L11.3171 4.56982L0 4.56982L0.200303 23.8646C0.901366 27.7236 4.20637 34.1213 12.2185 34.2228C13.4203 37.8787 16.3247 43.3625 22.9347 46.3075L22.9347 51.0804L17.7269 51.0804L12.519 72L55.7845 72L48.3733 50.8773L41.9636 51.0804L41.9636 46.3075C46.5706 45.0889 52.4795 41.433 54.4825 34.426C63.1958 32.9027 65.7997 24.7786 65.7997 24.3724L66 4.56982L55.0835 4.56982M10.3156 26.708C8.21244 25.7941 7.21093 23.5599 7.01062 22.646L6.81032 11.9831L10.5159 11.9831L10.3156 26.708M58.5888 22.646C58.088 23.5599 56.8862 25.3879 55.0835 26.6065L55.0835 11.78L58.5888 11.78L58.5888 22.646"/>
	<path fill="#FFCF48" d="M51.2779 3.96061L14.7225 3.45285L14.7225 29.9578C14.7225 29.9578 15.9243 40.5191 26.34 43.6673L26.34 54.5332L20.4311 54.5332L16.8256 68.5473L50.7771 68.5473L45.7695 54.5332L38.3582 54.7364L38.3582 43.3625C38.3582 43.3625 49.9758 41.6362 51.4781 30.8717L51.2779 3.96061"/>
	<path fill="white" d="M33 15.0296L35.1032 18.8886L39.2094 19.5995L36.305 22.7476L37.0061 27.3173L33 24.8801L28.9939 27.3173L29.695 22.7476L26.7906 19.5995L31.0971 18.8886"/>
	<path fill="#2D1B0A" d="M52.2792 7.00697L52.2792 2.94491L13.7206 2.43715L13.7206 7.00697L3.00445 7.00697L3.00445 23.2552C3.00445 23.6614 5.40809 31.6839 14.1213 32.1917C15.0226 35.5429 17.827 41.8391 25.2381 44.3779L25.2381 53.5175L19.5294 53.5175L15.4233 69.5627L52.0789 69.5627L46.3702 53.5175L39.2594 53.7206L39.2594 44.1749C41.9635 43.5654 50.2761 40.8237 52.179 32.1917C61.393 31.7855 63.7966 23.6614 63.7966 23.5598L63.7966 7.00697L52.2792 7.00697M13.4202 30.0592C7.21082 29.2467 5.30794 23.966 5.00748 23.0522L5.00748 9.038L13.7206 9.038L13.4202 30.0592M38.2579 42.3468L37.3565 55.7516L45.0682 55.5485L49.3748 67.5316L18.1273 67.5316L21.232 55.5485L27.3414 55.5485L27.3414 42.9562C17.226 39.9096 15.8238 30.8716 15.7238 29.9576L15.7238 8.12403L15.7238 7.10852L15.7238 4.56973L50.2761 5.07749L50.4764 30.8716C49.0743 40.6205 38.6585 42.2453 38.2579 42.3468M61.8937 23.1536C61.5933 24.0676 58.6889 29.2467 52.5796 30.1608L52.2792 9.13955L61.8937 9.13955L61.8937 23.1536"/>
</svg>
