<svg width="40" height="32" viewBox="0 0 40 32" fill="none" xmlns="http://www.w3.org/2000/svg" id="panel-layout-8"><title>思维导图</title><path d="M9 6.50098H12.6667C14.5076 6.50098 16 7.99336 16 9.83431V22.1676C16 24.0086 14.5076 25.501 12.6667 25.501H9" stroke="#667085" stroke-width="0.8"></path><path d="M31 6.50098H27.3333C25.4924 6.50098 24 7.99336 24 9.83431V22.1676C24 24.0086 25.4924 25.501 27.3333 25.501H31" stroke="#667085" stroke-width="0.8"></path><rect x="13" y="11" width="14" height="10" rx="2.5" fill="url(#paint0_linear_50902_102346)"></rect><rect x="30" y="4" width="8" height="5" rx="1.66667" fill="#8F99A8"></rect><rect x="30" y="23" width="8" height="5" rx="1.66667" fill="#8F99A8"></rect><rect x="2" y="4" width="8" height="5" rx="1.66667" fill="#8F99A8"></rect><rect x="2" y="23" width="8" height="5" rx="1.66667" fill="#8F99A8"></rect><path d="M36.4348 16.4746H34.3372V12.7754H33.3372V16.4746H31.2385L33.8362 20.2246L36.4348 16.4746Z" fill="#475467"></path><path d="M8.76489 16.5254H6.66724V20.2246H5.66724V16.5254H3.5686L6.16626 12.7754L8.76489 16.5254Z" fill="#475467"></path><defs><linearGradient id="paint0_linear_50902_102346" x1="20.4118" y1="11" x2="20.4118" y2="21" gradientUnits="userSpaceOnUse"><stop stop-color="#16C784"></stop><stop offset="1" stop-color="#43D89C"></stop></linearGradient></defs></svg>