<svg width="40" height="32" viewBox="0 0 40 32" fill="none" xmlns="http://www.w3.org/2000/svg" id="panel-layout-9"><title>逆向导图</title><path d="M9.5415 7.50098H13.7082C15.5491 7.50098 17.0415 8.99336 17.0415 10.8343V21.6676C17.0415 23.5086 15.5491 25.001 13.7082 25.001H9.5415" stroke="#667085" stroke-width="0.833333"></path><path d="M32.0415 7.50098H27.8748C26.0339 7.50098 24.5415 8.99336 24.5415 10.8343V21.6676C24.5415 23.5086 26.0339 25.001 27.8748 25.001H34.5415" stroke="#667085" stroke-width="0.833333" stroke-linecap="round"></path><rect x="13.292" y="10.833" width="14.1667" height="10" rx="2.5" fill="url(#paint0_linear_38275_258095)"></rect><rect x="29.5449" y="4.5" width="8.33333" height="5" rx="1.66667" fill="#8F99A8"></rect><rect x="29.5449" y="22.5" width="8.33333" height="5" rx="1.66667" fill="#8F99A8"></rect><rect x="2.875" y="4.5" width="8.33333" height="5" rx="1.66667" fill="#8F99A8"></rect><rect x="2.875" y="22.5" width="8.33333" height="5" rx="1.66667" fill="#8F99A8"></rect><path fill-rule="evenodd" clip-rule="evenodd" d="M36.3094 16.0254L33.7114 12.2754L31.1133 16.0254H33.2114V19.7247H34.2114V16.0254H36.3094Z" fill="#475467"></path><path fill-rule="evenodd" clip-rule="evenodd" d="M9.63951 15.9746L7.04144 19.7246L4.44336 15.9746H6.5415V12.2753H7.5415V15.9746H9.63951Z" fill="#475467"></path><defs><linearGradient id="paint0_linear_38275_258095" x1="20.792" y1="10.833" x2="20.792" y2="20.833" gradientUnits="userSpaceOnUse"><stop stop-color="#16C784"></stop><stop offset="1" stop-color="#43D89C"></stop></linearGradient></defs></svg>