<svg width="40" height="32" viewBox="0 0 40 32" fill="none" xmlns="http://www.w3.org/2000/svg" id="panel-layout-7"><title>左向导图</title><path d="M11.666 6.00098H16.666C17.5865 6.00098 18.3327 6.74717 18.3327 7.66764V24.3343C18.3327 25.2548 17.5865 26.001 16.666 26.001H11.666" stroke="#667085" stroke-width="0.833333" stroke-linecap="round"></path><rect width="12.5" height="0.833333" transform="matrix(-1 0 0 1 23.333 15.584)" fill="#667085"></rect><rect width="8.33333" height="5" rx="1.66667" transform="matrix(-1 0 0 1 12.5 3.50098)" fill="#8F99A8"></rect><rect width="8.33333" height="5" rx="1.66667" transform="matrix(-1 0 0 1 12.5 13.501)" fill="#8F99A8"></rect><rect width="8.33333" height="5" rx="1.66667" transform="matrix(-1 0 0 1 12.5 23.501)" fill="#8F99A8"></rect><rect width="14.1667" height="10" rx="2.5" transform="matrix(-1 0 0 1 36.666 11.001)" fill="url(#paint0_linear_38275_258137)"></rect><defs><linearGradient id="paint0_linear_38275_258137" x1="7.5" y1="-1.57777e-07" x2="7.5" y2="10" gradientUnits="userSpaceOnUse"><stop stop-color="#16C784"></stop><stop offset="1" stop-color="#43D89C"></stop></linearGradient></defs></svg>