<?xml version="1.0" encoding="utf-8" ?>
<svg xmlns="http://www.w3.org/2000/svg" xmlns:xlink="http://www.w3.org/1999/xlink" width="108" height="64">
	<path fill="white" d="M18.6345 63.8984C8.21521 63.3905 0 55.0603 0 44.9016C0 37.4857 4.20779 30.8825 10.82 27.6317C12.6234 21.4349 18.4341 16.8635 25.0464 16.8635C26.5492 16.8635 28.0519 17.1683 29.4545 17.5746C34.0631 10.9714 41.7774 6.90794 50.1929 6.90794C50.9944 6.90794 51.7959 6.90794 52.6976 7.00952C57.3061 2.53968 63.718 0 70.4304 0C83.154 0 93.8738 9.65079 95.2764 22.0444C102.79 24.4825 108 31.2889 108 39.2127C108 48.6603 100.085 56.6857 90.2672 57.0921L83.7551 57.0921C80.449 61.1556 75.4397 63.7968 70.0297 64L18.6345 63.8984"/>
	<path fill="#C0F9FF" d="M38.6716 53.7905C29.7551 53.3841 22.9425 46.273 22.9425 37.8413C22.9425 31.1365 27.0501 25.2444 33.3618 22.8063C34.2635 17.1174 39.3729 12.9524 44.9833 12.9524C46.8867 12.9524 48.9907 13.5619 50.5937 14.4762C54.3006 7.36507 61.8145 3.0984 70.1299 3.0984C82.1521 3.0984 91.9703 12.6476 92.1707 24.5333C99.5844 25.854 104.794 32.0508 104.794 39.2635C104.794 47.0857 98.1818 53.6889 89.9666 54.0952L38.6716 53.7905"/>
	<path fill="#2D1B0A" d="M90.0668 55.0603L38.6716 54.8571C29.2541 54.4508 21.9406 46.9333 21.9406 37.892C21.9406 30.9841 26.0482 24.7873 32.4601 22.146C33.7625 16.3555 38.9721 11.9873 44.9833 11.9873C46.6864 11.9873 48.59 12.3936 50.1929 13.2063C54.2003 6.29838 61.8144 2.1333 70.1298 2.1333C82.3525 2.1333 92.4712 11.7841 93.1725 23.6698C100.686 25.3968 105.796 31.6952 105.796 39.2127C105.796 47.5428 98.7829 54.6539 90.0668 55.0603M38.7718 52.8254L90.0668 53.0285C97.6809 52.6222 103.892 46.4254 103.892 39.2127C103.892 32.4063 99.0835 26.819 92.0705 25.4984C91.0686 13.3079 81.6512 4.16505 70.23 4.16505C62.2152 4.16505 55.102 8.33013 51.4953 15.0349L50.0927 15.4412C48.59 14.527 46.6864 14.019 44.9833 14.019C39.7736 14.019 35.1651 17.8793 34.3636 23.0603C27.8516 26.1079 24.0445 31.6952 24.0445 37.9936C23.9443 45.9174 30.4564 52.5206 38.7718 52.8254"/>
	<path fill="#2D1B0A" d="M49.8924 22.4508L47.8887 22.2476C48.2895 19.2 48.6902 15.4412 50.7941 12.4952L52.3971 13.7143C50.5937 16.0508 50.193 19.4032 49.8924 22.4508"/>
	<path fill="#2D1B0A" d="M76.9425 30.7809L75.0389 30.273C76.141 26.1079 81.3506 23.6698 85.9592 23.0603C89.7663 22.5524 92.7717 23.3651 96.5788 24.7873L95.8775 26.7174C92.2708 25.3968 89.666 24.6857 86.2598 25.092C82.3525 25.6 77.8441 27.6317 76.9425 30.7809"/>
	<path fill="#9FF1FF" d="M18.5342 60.6985C9.61772 60.2921 2.8051 53.181 2.8051 44.7493C2.8051 38.0445 6.91271 32.1524 13.2244 29.7143C14.1261 24.0254 19.2355 19.8604 24.8459 19.8604C26.7494 19.8604 28.8533 20.4699 30.4563 21.3842C34.1632 14.2731 41.6771 10.0064 49.9925 10.0064C62.0147 10.0064 71.8329 19.5556 72.0333 31.4413C79.447 32.762 84.6567 38.9588 84.6567 46.1715C84.6567 53.9937 78.0444 60.5969 69.8292 61.0032L18.5342 60.6985"/>
	<path fill="#2D1B0A" d="M69.8301 61.9683L18.4343 61.7651C9.01673 61.3588 1.7031 53.8413 1.7031 44.8C1.7031 37.8921 5.81076 31.6953 12.2227 29.054C13.5251 23.2635 18.7348 18.8953 24.7461 18.8953C26.4492 18.8953 28.3528 19.3016 29.9558 20.1143C33.9632 13.2064 41.5774 9.0413 49.8929 9.0413C62.1157 9.0413 72.2346 18.6921 72.9359 30.5778C80.4499 32.3048 85.5605 38.6032 85.5605 46.1207C85.6596 54.4508 78.5463 61.5619 69.8301 61.9683M18.5345 59.7334L69.8301 59.9365C77.4443 59.5302 83.6559 53.3334 83.6559 46.1207C83.6559 39.3143 78.8469 33.727 71.8338 32.4064C70.832 20.2159 61.4144 11.073 49.9931 11.073C41.9782 11.073 34.8649 15.2381 31.2582 21.9429L29.8556 22.3492C28.3528 21.435 26.4492 20.927 24.7461 20.927C19.5363 20.927 14.9278 24.7873 14.1263 29.9683C7.61412 33.0159 3.80702 38.6032 3.80702 44.9016C3.70684 52.8254 10.219 59.327 18.5345 59.7334"/>
	<path fill="#2D1B0A" d="M29.6549 29.2572L27.6512 29.054C28.052 26.0064 28.4527 22.2477 30.5566 19.3016L32.1596 20.5207C30.3562 22.9588 30.0557 26.3111 29.6549 29.2572"/>
	<path fill="#2D1B0A" d="M56.8052 37.6889L54.9016 37.181C56.0037 33.0159 61.2133 30.5778 65.8219 29.9683C69.629 29.4604 72.6344 30.2731 76.4416 31.6953L75.7402 33.6254C72.1335 32.3048 69.5287 31.5937 66.1225 32C62.115 32.508 57.6067 34.5397 56.8052 37.6889"/>
</svg>
