<?xml version="1.0" encoding="utf-8" ?>
<svg xmlns="http://www.w3.org/2000/svg" xmlns:xlink="http://www.w3.org/1999/xlink" width="106" height="78">
	<path fill="white" d="M64.5217 78C62.8185 78 61.5161 76.7017 61.5161 75.0038L61.5161 67.0141L40.1758 66.9142L40.1758 75.0038C40.1758 76.7017 38.8733 78 37.1701 78C35.4669 78 34.1645 76.7017 34.1645 75.0038L34.1645 66.9142L22.0416 66.9142C9.71834 66.315 0 56.6274 0 44.7426C0 36.1536 4.90926 28.5634 12.724 24.7682C15.4291 16.9782 22.242 11.8848 29.9565 11.8848C31.5595 11.8848 33.2628 12.1844 34.966 12.6837L36.0681 12.2843C41.5784 4.59411 50.7958 0 60.7146 0C75.8431 0 88.5671 10.9859 90.3705 25.5672C99.9887 29.2625 106 37.1524 106 46.2407C106 57.2266 96.5822 66.5147 85.0605 67.114L67.5274 67.0141L67.5274 75.0038C67.5274 76.7017 66.1248 78 64.5217 78"/>
	<path fill="#9FF1FF" d="M22.4925 63.9179C11.6721 63.4185 3.2562 54.9294 3.2562 44.7425C3.2562 36.7528 8.26565 29.562 15.9802 26.6657C17.1825 19.7746 23.294 14.781 30.2071 14.781C32.5114 14.781 35.0161 15.4801 37.1201 16.5786C41.6286 8.08949 50.846 2.89615 61.0653 2.89615C75.7931 2.89615 87.7156 14.3815 88.0161 28.5633C97.0331 30.1611 103.445 37.5518 103.445 46.2405C103.445 55.6285 95.4301 63.6183 85.311 64.1177L22.4925 63.9179"/>
	<path fill="#2D1B0A" d="M85.2609 65.1165L22.5426 64.9167C11.2212 64.4173 2.3044 55.5287 2.3044 44.7426C2.3044 36.4532 7.31385 29.1625 15.1286 25.9666C16.6314 18.9756 22.9433 13.7823 30.2571 13.7823C32.4613 13.7823 34.7656 14.2816 36.7694 15.2803C41.5785 6.99097 50.7959 1.8975 61.1154 1.8975C75.9433 1.8975 88.2666 13.3828 88.9679 27.7643C98.0851 29.7618 104.397 37.2522 104.397 46.2406C104.397 56.128 95.7808 64.6171 85.2609 65.1165M22.6428 62.9193L85.2609 63.119C94.6787 62.6197 102.393 55.1293 102.393 46.2406C102.393 37.9513 96.3819 31.16 87.8658 29.562C86.7638 15.0806 75.1418 3.99481 61.1154 3.99481C51.2968 3.99481 42.4802 9.08828 38.0719 17.1779L36.6692 17.5774C34.7656 16.4788 32.4613 15.8796 30.2571 15.8796C23.7449 15.8796 18.1343 20.5736 17.0322 26.8655C9.11725 30.4609 4.40837 37.1523 4.40837 44.7426C4.30818 54.53 12.3233 62.5198 22.6428 62.9193"/>
	<path fill="#2D1B0A" d="M35.9679 26.1665L33.9641 25.9667C34.3648 22.3713 34.966 17.7772 37.4707 14.2817L39.0737 15.4802C36.8696 18.4763 36.4688 22.5711 35.9679 26.1665"/>
	<path fill="#2D1B0A" d="M69.1304 36.2535L67.2269 35.7542C68.5293 30.8605 74.741 27.9642 80.4519 27.2651C85.0605 26.6658 88.6674 27.5647 93.276 29.2625L92.5747 31.1601C88.1664 29.5621 84.9604 28.7631 80.7523 29.2625C75.7429 29.8617 70.1323 32.2587 69.1304 36.2535"/>
	<path fill="#2D1B0A" d="M37.4707 76.0025C36.8696 76.0025 36.4688 75.6031 36.4688 75.0038L36.4688 67.7132C36.4688 67.1139 36.8696 66.7145 37.4707 66.7145C38.0718 66.7145 38.4726 67.1139 38.4726 67.7132L38.4726 75.0038C38.4726 75.6031 38.0718 76.0025 37.4707 76.0025"/>
	<path fill="#2D1B0A" d="M64.8223 76.0025C64.2212 76.0025 63.8204 75.6031 63.8204 75.0038L63.8204 67.7132C63.8204 67.1139 64.2212 66.7145 64.8223 66.7145C65.4234 66.7145 65.8242 67.1139 65.8242 67.7132L65.8242 75.0038C65.8242 75.6031 65.4234 76.0025 64.8223 76.0025"/>
</svg>
