<?xml version="1.0" encoding="utf-8" ?>
<svg xmlns="http://www.w3.org/2000/svg" xmlns:xlink="http://www.w3.org/1999/xlink" width="106" height="86">
	<path fill="white" d="M90.4707 26.5781C88.9679 11.5206 76.1437 0 60.7146 0C50.4953 0 40.9773 4.95182 35.6673 13.0364C33.8639 12.329 31.8601 12.0259 29.9565 12.0259C22.1418 12.0259 15.2287 17.3819 13.1248 24.8602C5.10964 28.5993 0 36.4818 0 45.2738C0 57.2996 9.71834 67.2033 22.242 67.7086L33.6635 67.7086C33.5633 67.9107 33.5633 68.2139 33.5633 68.517L33.5633 75.8942C33.5633 77.6122 34.8658 78.926 36.569 78.926C38.2722 78.926 39.5747 77.6122 39.5747 75.8942L39.5747 68.517C39.5747 68.2139 39.5747 68.0118 39.4745 67.8096L61.0151 67.9107C60.9149 68.1128 60.9149 68.3149 60.9149 68.6181L60.9149 75.9953C60.9149 77.7133 62.2174 79.027 63.9206 79.027C65.6238 79.027 66.9263 77.7133 66.9263 75.9953L66.9263 68.6181C66.9263 68.416 66.9263 68.2139 66.8261 67.9107L84.9603 68.0118C96.5822 67.4054 106 58.0071 106 46.8907C106 37.3913 99.6881 29.3067 90.4707 26.5781"/>
	<path fill="white" d="M50.1947 71.9529C48.4915 71.9529 47.189 73.2667 47.189 74.9847L47.189 82.3618C47.189 84.0798 48.4915 85.3936 50.1947 85.3936C51.8979 85.3936 53.2004 84.0798 53.2004 82.3618L53.2004 74.9847C53.2004 73.2667 51.8979 71.9529 50.1947 71.9529"/>
	<path fill="white" d="M77.5463 71.9529C75.8431 71.9529 74.5406 73.2667 74.5406 74.9847L74.5406 82.3618C74.5406 84.0798 75.8431 85.3936 77.5463 85.3936C79.2495 85.3936 80.552 84.0798 80.552 82.3618L80.552 74.9847C80.552 73.2667 79.1493 71.9529 77.5463 71.9529"/>
	<path fill="white" d="M22.8431 72.5593C21.1399 72.5593 19.8374 73.8731 19.8374 75.5911L19.8374 82.9682C19.8374 84.6862 21.1399 86 22.8431 86C24.5463 86 25.8488 84.6862 25.8488 82.9682L25.8488 75.5911C25.8488 73.9742 24.5463 72.5593 22.8431 72.5593"/>
	<path fill="#9FF1FF" d="M22.0416 64.6769C11.2212 64.1716 2.8053 55.5817 2.8053 45.2738C2.8053 37.1892 7.81475 29.9132 15.5293 26.9825C16.7316 20.0094 22.8431 14.9566 29.7562 14.9566C32.0605 14.9566 34.5652 15.6641 36.6692 16.7757C41.1777 8.18574 50.3951 2.93075 60.6144 2.93075C75.3422 2.93075 87.2647 14.5524 87.5652 28.9025C96.5822 30.5194 102.994 37.9977 102.994 46.7897C102.994 56.2891 94.9792 64.3737 84.8601 64.8791L22.0416 64.6769"/>
	<path fill="#2D1B0A" d="M84.6597 65.8895L21.9414 65.6874C10.62 65.1821 1.7032 56.188 1.7032 45.2738C1.7032 36.886 6.71265 29.5088 14.5274 26.275C16.0302 19.2009 22.3421 13.946 29.6559 13.946C31.8601 13.946 34.1644 14.4512 36.1682 15.4618C40.9773 7.07404 50.1947 1.9201 60.5142 1.9201C75.3421 1.9201 87.6654 13.5417 88.3667 28.094C97.4839 30.1152 103.796 37.6945 103.796 46.7897C103.796 56.7944 95.1796 65.3843 84.6597 65.8895M22.0416 63.6663L84.6597 63.8684C94.0775 63.3631 101.792 55.7838 101.792 46.7897C101.792 38.4019 95.7807 31.53 87.2646 29.913C86.1626 15.2597 74.5406 4.04231 60.5142 4.04231C50.6956 4.04231 41.879 9.19625 37.4707 17.3819L36.068 17.7861C34.1644 16.6745 31.8601 16.0682 29.6559 16.0682C23.1437 16.0682 17.5331 20.8179 16.431 27.1845C8.51605 30.8226 3.80717 37.5934 3.80717 45.2738C3.80717 55.1774 11.8223 63.2621 22.0416 63.6663"/>
	<path fill="#2D1B0A" d="M35.467 26.4771L33.4632 26.275C33.8639 22.6369 34.4651 17.9883 36.9698 14.4513L38.5728 15.6639C36.3687 18.6957 35.8677 22.839 35.467 26.4771"/>
	<path fill="#2D1B0A" d="M68.5292 36.6839L66.6256 36.1786C67.9281 31.2268 74.1398 28.2961 79.8506 27.5887C84.4592 26.9824 88.0661 27.8919 92.6748 29.6099L91.9734 31.53C87.5651 29.913 84.3591 29.1046 80.1511 29.6099C75.2419 30.2162 69.5311 32.6416 68.5292 36.6839"/>
	<path fill="#2D1B0A" d="M36.3686 76.9048C35.7675 76.9048 35.3667 76.5005 35.3667 75.8942L35.3667 68.517C35.3667 67.9107 35.7675 67.5064 36.3686 67.5064C36.9697 67.5064 37.3705 67.9107 37.3705 68.517L37.3705 75.8942C37.3705 76.5005 36.8696 76.9048 36.3686 76.9048"/>
	<path fill="#2D1B0A" d="M49.9943 83.2715C49.3932 83.2715 48.9924 82.8672 48.9924 82.2609L48.9924 74.8837C48.9924 74.2774 49.3932 73.8731 49.9943 73.8731C50.5954 73.8731 50.9962 74.2774 50.9962 74.8837L50.9962 82.2609C50.9962 82.8672 50.4952 83.2715 49.9943 83.2715"/>
	<path fill="#2D1B0A" d="M63.62 76.9048C63.0189 76.9048 62.6181 76.5005 62.6181 75.8942L62.6181 68.517C62.6181 67.9107 63.0189 67.5064 63.62 67.5064C64.2211 67.5064 64.6219 67.9107 64.6219 68.517L64.6219 75.8942C64.6219 76.5005 64.2211 76.9048 63.62 76.9048"/>
	<path fill="#2D1B0A" d="M77.3459 83.2715C76.7448 83.2715 76.344 82.8672 76.344 82.2609L76.344 74.8837C76.344 74.2774 76.7448 73.8731 77.3459 73.8731C77.947 73.8731 78.3478 74.2774 78.3478 74.8837L78.3478 82.2609C78.3478 82.8672 77.8468 83.2715 77.3459 83.2715"/>
	<path fill="#2D1B0A" d="M22.6427 83.9789C22.0416 83.9789 21.6408 83.5746 21.6408 82.9683L21.6408 75.5911C21.6408 74.9848 22.0416 74.5805 22.6427 74.5805C23.2438 74.5805 23.6446 74.9848 23.6446 75.5911L23.6446 82.9683C23.6446 83.5746 23.2438 83.9789 22.6427 83.9789"/>
</svg>
