<?xml version="1.0" encoding="utf-8" ?>
<svg xmlns="http://www.w3.org/2000/svg" xmlns:xlink="http://www.w3.org/1999/xlink" width="122" height="78">
	<path fill="white" d="M119.67 33.4864L113.445 31.7665C113.144 31.6654 112.843 31.6654 112.542 31.6654C111.839 31.6654 111.136 31.8677 110.634 32.2724C110.734 31.3619 110.835 30.5525 110.835 29.642C110.835 28.7315 110.734 27.821 110.634 27.0117C111.136 27.4163 111.839 27.6187 112.542 27.6187C112.843 27.6187 113.144 27.6187 113.345 27.5175L119.569 25.7977C121.276 25.2918 122.38 23.4708 122 21.751C121.477 20.3346 120.172 19.323 118.666 19.323C118.364 19.323 118.063 19.323 117.862 19.4241L111.638 21.144C110.634 21.4475 109.931 22.1556 109.53 22.965C108.827 21.2451 107.923 19.7276 106.819 18.3113C106.92 18.3113 107.02 18.3113 107.12 18.3113C108.024 18.3113 108.827 18.0078 109.429 17.2996L114.047 12.6459C114.65 12.0389 115.051 11.2296 115.051 10.3191C115.051 9.40856 114.75 8.59922 114.047 7.99222C113.445 7.38521 112.642 6.98054 111.738 6.98054C110.835 6.98054 110.032 7.28405 109.429 7.99222L104.811 12.6459C104.209 13.2529 103.807 14.0623 103.807 14.9728C103.807 15.0739 103.807 15.1751 103.807 15.2763C102.402 14.1634 100.896 13.2529 99.1892 12.5447C100.093 12.1401 100.795 11.3307 100.996 10.4202L102.703 4.14786C102.904 3.33852 102.803 2.42802 102.402 1.61868C102 0.809339 101.297 0.303502 100.394 0C100.093 0 99.7915 0 99.4904 0C97.9845 0 96.6793 1.01167 96.2778 2.42802L94.5711 8.70039C94.2699 9.71206 94.5711 10.7237 95.073 11.5331C94.1695 11.4319 93.3663 11.3307 92.3624 11.3307C91.4589 11.3307 90.5553 11.4319 89.6518 11.5331C90.2541 10.7237 90.4549 9.71206 90.1537 8.70039L88.447 2.42802C88.0455 1.01167 86.7403 0 85.2344 0C84.9332 0 84.6321 0 84.3309 0C82.6242 0.607004 81.5199 2.42802 82.0218 4.14786L83.7285 10.4202C84.0297 11.4319 84.6321 12.1401 85.5356 12.5447C83.8289 13.2529 82.323 14.1634 80.9175 15.2763C80.9175 15.1751 80.9175 15.0739 80.9175 14.9728C80.9175 14.0623 80.6163 13.2529 79.9136 12.6459L75.2954 7.99222C74.6931 7.38521 73.8899 6.98054 72.9864 6.98054C72.0828 6.98054 71.2797 7.28405 70.6773 7.99222C70.075 8.59922 69.6734 9.40856 69.6734 10.3191C69.6734 10.7237 69.7738 11.1284 69.8742 11.4319C67.0631 10.5214 63.9509 10.0156 60.8387 10.0156C50.5985 10.0156 41.0611 14.9728 35.7402 23.0661C33.9331 22.358 31.9253 22.0545 30.0178 22.0545C22.1871 22.0545 15.2599 27.4163 13.1516 34.9027C5.12009 38.6459 0 46.537 0 55.3385C0 67.3774 9.73821 77.2918 22.2874 77.7977L85.134 78C96.7797 77.393 106.217 67.9844 106.217 56.856C106.217 52.3035 104.711 48.0545 102.201 44.6148C102.603 44.3113 102.904 44.1089 103.305 43.8054C103.305 43.9066 103.305 44.0078 103.305 44.1089C103.305 45.0195 103.607 45.8288 104.309 46.4358L108.927 51.0895C109.53 51.6965 110.333 52.1012 111.236 52.1012C112.14 52.1012 112.943 51.7977 113.546 51.0895C114.148 50.4825 114.549 49.6732 114.549 48.7626C114.549 47.8521 114.248 47.0428 113.546 46.4358L108.927 41.7821C108.325 41.1751 107.522 40.7704 106.618 40.7704C106.518 40.7704 106.418 40.7704 106.317 40.7704C107.421 39.3541 108.325 37.8366 109.028 36.1167C109.429 37.0272 110.132 37.7354 111.136 37.9377L117.36 39.6576C117.662 39.7588 117.963 39.7588 118.264 39.7588C119.77 39.7588 121.075 38.7471 121.477 37.3307C122.481 35.8132 121.477 33.9922 119.67 33.4864"/>
	<path fill="#FFD071" d="M77.5567 29.4396C77.5567 37.8365 84.279 44.7158 92.7069 44.7158C101.034 44.7158 107.857 37.9376 107.857 29.4396C107.857 21.0427 101.135 14.1633 92.7069 14.1633C84.3793 14.1633 77.5567 20.9415 77.5567 29.4396"/>
	<path fill="#2D1B0A" d="M92.707 45.6264C83.7774 45.6264 76.5535 38.3423 76.5535 29.3384C76.5535 20.3346 83.7774 13.0505 92.707 13.0505C101.637 13.0505 108.86 20.3346 108.86 29.3384C108.86 38.3423 101.637 45.6264 92.707 45.6264M92.707 15.175C84.8811 15.175 78.5601 21.5485 78.5601 29.4396C78.5601 37.3307 84.8811 43.7042 92.707 43.7042C100.533 43.7042 106.854 37.3307 106.854 29.4396C106.854 21.5485 100.533 15.175 92.707 15.175"/>
	<path fill="#3F1E01" d="M87.3894 10.7237C86.7874 10.7237 86.2857 10.3191 86.1854 9.81323L84.4281 3.54085C84.2791 2.83268 84.6804 2.12451 85.3827 1.87009C86.085 1.71984 86.7874 2.12451 86.988 2.83268L88.6937 9.10505C88.8943 9.81323 88.493 10.5214 87.7907 10.7237C87.59 10.7237 87.4897 10.7237 87.3894 10.7237"/>
	<path fill="#3F1E01" d="M78.1588 16.0856C77.8578 16.0856 77.5569 15.9844 77.2559 15.6809L72.6406 11.0272C72.1389 10.5214 72.1389 9.71204 72.6406 9.2062C73.1422 8.70037 73.9449 8.70037 74.4465 9.2062L79.0618 13.8599C79.5635 14.3657 79.5635 15.1751 79.0618 15.6809C78.8612 15.8832 78.5602 16.0856 78.1588 16.0856"/>
	<path fill="#3F1E01" d="M72.8412 25.2919C72.7409 25.2919 72.6406 25.2919 72.5402 25.2919L66.3196 23.572C65.6173 23.3697 65.216 22.6615 65.365 21.9533C65.6173 21.2452 66.3196 20.8405 67.022 20.9907L73.2426 22.7627C73.9449 22.965 74.3462 23.6732 74.1456 24.3814C73.9449 24.9884 73.4432 25.2919 72.8412 25.2919"/>
	<path fill="#3F1E01" d="M66.6206 37.7355C66.0186 37.7355 65.517 37.3308 65.365 36.825C65.216 36.1168 65.6173 35.4086 66.3196 35.2063L72.5402 33.4343C73.2426 33.2841 73.9449 33.6888 74.1456 34.3969C74.3462 35.1051 73.9449 35.8133 73.2426 36.0156L67.022 37.7355C66.8213 37.7355 66.721 37.7355 66.6206 37.7355"/>
	<path fill="#3F1E01" d="M73.6439 49.9767C73.3429 49.9767 73.0419 49.8755 72.7409 49.572C72.2392 49.0662 72.2392 48.2568 72.7409 47.751L77.3561 43.0973C77.8578 42.5915 78.6605 42.5915 79.1621 43.0973C79.6638 43.6031 79.6638 44.4125 79.1621 44.9183L74.5468 49.572C74.2458 49.7743 73.9448 49.9767 73.6439 49.9767"/>
	<path fill="#3F1E01" d="M85.6837 56.9572C85.5834 56.9572 85.483 56.9572 85.3827 56.9572C84.6804 56.7549 84.2791 56.0467 84.4281 55.3385L86.1854 49.0662C86.386 48.358 87.0884 47.9533 87.7907 48.1036C88.493 48.358 88.8943 49.0662 88.6937 49.7743L86.988 56.0467C86.7874 56.6537 86.2857 56.9572 85.6837 56.9572"/>
	<path fill="#3F1E01" d="M99.7303 56.9572C99.1283 56.9572 98.6266 56.5526 98.5263 56.0467L96.769 49.7743C96.62 49.0662 97.0213 48.358 97.7236 48.1036C98.4259 47.9533 99.1283 48.358 99.3289 49.0662L101.035 55.3385C101.235 56.0467 100.834 56.7549 100.132 56.9572C99.9309 56.9572 99.8306 56.9572 99.7303 56.9572"/>
	<path fill="#3F1E01" d="M111.77 49.9767C111.469 49.9767 111.168 49.8755 110.867 49.572L106.251 44.9183C105.75 44.4125 105.75 43.6031 106.251 43.0973C106.753 42.5915 107.556 42.5915 108.057 43.0973L112.673 47.751C113.174 48.2568 113.174 49.0662 112.673 49.572C112.472 49.7743 112.171 49.9767 111.77 49.9767"/>
	<path fill="#3F1E01" d="M118.793 37.7355C118.693 37.7355 118.592 37.7355 118.492 37.7355L112.272 36.0156C111.569 35.8133 111.168 35.1051 111.317 34.3969C111.569 33.6888 112.272 33.2841 112.974 33.4343L119.194 35.2063C119.897 35.4086 120.298 36.1168 120.097 36.825C119.897 37.3308 119.395 37.7355 118.793 37.7355"/>
	<path fill="#3F1E01" d="M112.573 25.2919C111.971 25.2919 111.469 24.8872 111.317 24.3814C111.168 23.6732 111.569 22.965 112.272 22.7627L118.492 20.9907C119.194 20.8405 119.897 21.2452 120.097 21.9533C120.298 22.6615 119.897 23.3697 119.194 23.572L112.974 25.2919C112.773 25.2919 112.673 25.2919 112.573 25.2919"/>
	<path fill="#3F1E01" d="M107.255 16.0856C106.954 16.0856 106.653 15.9844 106.352 15.6809C105.851 15.1751 105.851 14.3657 106.352 13.8599L110.968 9.2062C111.469 8.70037 112.272 8.70037 112.774 9.2062C113.275 9.71204 113.275 10.5214 112.774 11.0272L108.158 15.6809C107.857 15.8832 107.556 16.0856 107.255 16.0856"/>
	<path fill="#3F1E01" d="M98.0246 10.7237C97.9243 10.7237 97.8239 10.7237 97.7236 10.7237C97.0213 10.5214 96.62 9.81323 96.769 9.10505L98.5263 2.83268C98.7269 2.12451 99.4293 1.71984 100.132 1.87009C100.834 2.12451 101.235 2.83268 101.035 3.54085L99.3289 9.81323C99.1283 10.3191 98.6266 10.7237 98.0246 10.7237"/>
	<path fill="#9FF1FF" d="M23.0764 74.6614C12.2405 74.1555 3.8126 65.5564 3.8126 55.2372C3.8126 47.1438 8.82921 39.8598 16.5548 36.9259C17.7588 29.9454 23.879 24.8871 30.802 24.8871C33.1096 24.8871 35.6179 25.5952 37.7249 26.708C42.2398 18.1088 51.4704 12.8481 61.7043 12.8481C76.4531 12.8481 88.3927 24.4823 88.6937 38.8481C97.7236 40.4669 104.145 47.9532 104.145 56.7547C104.145 66.2645 96.1183 74.3578 85.9847 74.8637L23.0764 74.6614"/>
	<path fill="#2D1B0A" d="M85.784 75.8753L22.976 75.673C11.6385 75.1671 2.7089 66.1632 2.7089 55.2372C2.7089 46.8403 7.72551 39.4551 15.5514 36.2177C17.0564 29.136 23.3773 23.8753 30.7016 23.8753C32.9089 23.8753 35.2165 24.3811 37.2232 25.3928C42.0391 16.9959 51.2697 11.8364 61.6039 11.8364C76.4531 11.8364 88.794 23.4706 89.4963 38.0387C98.6265 40.0621 104.948 47.6496 104.948 56.7547C104.948 66.7703 96.3189 75.3695 85.784 75.8753M23.0763 73.6496L85.784 73.852C95.2152 73.3461 102.941 65.7586 102.941 56.7547C102.941 48.3578 96.9209 41.4784 88.3926 39.8597C87.289 25.1905 75.6504 13.9609 61.6039 13.9609C51.7714 13.9609 42.9421 19.1204 38.5275 27.315L37.1229 27.7197C35.2165 26.6068 32.9089 25.9998 30.7016 25.9998C24.18 25.9998 18.5614 30.7547 17.4577 37.1282C9.53149 40.7703 4.81588 47.5485 4.81588 55.2372C4.71554 65.1516 12.8425 73.245 23.0763 73.6496"/>
	<path fill="#2D1B0A" d="M36.4206 36.4202L34.4139 36.2179C34.8153 32.5759 35.4172 27.9222 37.9256 24.3813L39.5309 25.5954C37.4239 28.6304 36.9222 32.7782 36.4206 36.4202"/>
	<path fill="#2D1B0A" d="M69.6306 46.6381L67.7243 46.1323C69.0286 41.1751 75.2492 38.2412 80.9682 37.5331C85.5834 36.9261 89.1954 37.8366 93.8107 39.5564L93.1084 41.4786C88.6937 39.8599 85.4831 39.0506 81.2692 39.5564C76.2525 40.1634 70.6339 42.5914 69.6306 46.6381"/>
</svg>
