<?xml version="1.0" encoding="utf-8" ?>
<svg xmlns="http://www.w3.org/2000/svg" xmlns:xlink="http://www.w3.org/1999/xlink" width="106" height="82">
	<path fill="white" d="M90.4707 26.5919C88.9679 11.5265 76.1437 0 60.7146 0C50.4953 0 40.9773 4.95438 35.6673 13.0432C33.8639 12.3354 31.8601 12.0321 29.9565 12.0321C22.1418 12.0321 15.2287 17.3909 13.1248 24.873C5.10964 28.6141 0 36.5006 0 45.2972C0 57.3292 9.71834 67.238 22.242 67.7435L34.3648 67.7435C34.2647 67.9457 34.2647 68.2491 34.2647 68.5524L34.2647 75.9334C34.2647 77.6523 35.5671 78.9667 37.2703 78.9667C38.9735 78.9667 40.276 77.6523 40.276 75.9334L40.276 68.5524C40.276 68.2491 40.276 68.0469 40.1758 67.8446L46.3875 67.8446L42.9811 71.0801L42.8809 76.8434L46.8885 81.6967L53.2004 82L57.2079 77.4501L57.7089 71.3835L54.2023 67.8446L61.6163 67.8446C61.5161 68.0469 61.5161 68.2491 61.5161 68.5524L61.5161 75.9334C61.5161 77.6523 62.8185 78.9667 64.5217 78.9667C66.225 78.9667 67.5274 77.6523 67.5274 75.9334L67.5274 68.5524C67.5274 68.3502 67.5274 68.148 67.4272 67.8446L84.9603 67.9457C96.5822 67.3391 106 57.9359 106 46.8138C106 37.5117 99.6881 29.3218 90.4707 26.5919"/>
	<path fill="#323333" d="M49.3932 79.169L49.3932 76.4389L47.1891 78.5623L45.7864 76.9445L47.7902 75.2256L45.4858 75.2256L45.4858 73.1023L47.7902 73.1023L45.8866 71.0801L47.4896 69.5635L49.3932 71.6868L49.3932 69.159L51.4972 69.159L51.4972 71.6868L53.6012 69.7657L55.0038 71.2823L53.2004 73.1023L55.4046 73.1023L55.4046 75.2256L53 75.2256L54.8034 77.1467L53.4008 78.7645L51.4972 76.6412L51.4972 79.169"/>
	<path fill="#9FF1FF" d="M22.3923 64.6091C11.5719 64.1035 3.156 55.5092 3.156 45.196C3.156 37.1072 8.16545 29.8273 15.88 26.8951C17.0823 19.9185 23.1938 14.8631 30.1069 14.8631C32.4112 14.8631 34.9159 15.5708 37.0199 16.683C41.5284 8.08871 50.7458 2.831 60.9651 2.831C75.6929 2.831 87.6154 14.4586 87.9159 28.8162C96.9329 30.434 103.345 37.9161 103.345 46.7126C103.345 56.2169 95.3299 64.3057 85.2108 64.8113L22.3923 64.6091"/>
	<path fill="#2D1B0A" d="M85.1607 65.8224L22.4424 65.6201C11.121 65.1146 2.2042 56.1158 2.2042 45.196C2.2042 36.8039 7.21365 29.4229 15.0284 26.1873C16.5312 19.1097 22.8431 13.852 30.1569 13.852C32.3611 13.852 34.6654 14.3575 36.6692 15.3686C41.4783 6.9765 50.6957 1.8199 61.0152 1.8199C75.8431 1.8199 88.1664 13.4475 88.8677 28.0073C97.9849 30.0295 104.297 37.6127 104.297 46.7126C104.297 56.7225 95.5804 65.3168 85.1607 65.8224M22.4424 63.598L85.0605 63.8002C94.4783 63.2946 102.193 55.7114 102.193 46.7126C102.193 38.3205 96.1815 31.4451 87.6654 29.8273C86.5634 15.1664 74.9414 3.9432 60.915 3.9432C51.0964 3.9432 42.2798 9.0998 37.8715 17.2897L36.4689 17.6941C34.5653 16.5819 32.2609 15.9753 30.0568 15.9753C23.5445 15.9753 17.9339 20.7274 16.8318 27.0973C8.91687 30.7373 4.20798 37.5116 4.20798 45.196C4.20798 55.1047 12.2231 63.1935 22.4424 63.598"/>
	<path fill="#2D1B0A" d="M35.8677 26.3896L33.8639 26.1873C34.2646 22.5474 34.8658 17.8964 37.3705 14.3575L38.9735 15.5709C36.7694 18.6042 36.2684 22.7497 35.8677 26.3896"/>
	<path fill="#2D1B0A" d="M68.93 36.6017L67.0265 36.0961C68.3289 31.1418 74.5406 28.2096 80.2514 27.5018C84.86 26.8952 88.4669 27.8051 93.0756 29.524L92.3743 31.4451C87.966 29.8273 84.7599 29.0185 80.5519 29.524C75.6427 30.1307 70.0321 32.5573 68.93 36.6017"/>
	<path fill="#2D1B0A" d="M37.3705 76.8434C36.7694 76.8434 36.3686 76.439 36.3686 75.8323L36.3686 68.4513C36.3686 67.8446 36.7694 67.4402 37.3705 67.4402C37.9716 67.4402 38.3724 67.8446 38.3724 68.4513L38.3724 75.8323C38.3724 76.439 37.9716 76.8434 37.3705 76.8434"/>
	<path fill="#2D1B0A" d="M64.7221 76.8434C64.121 76.8434 63.7202 76.439 63.7202 75.8323L63.7202 68.4513C63.7202 67.8446 64.121 67.4402 64.7221 67.4402C65.3232 67.4402 65.724 67.8446 65.724 68.4513L65.724 75.8323C65.724 76.439 65.3232 76.8434 64.7221 76.8434"/>
</svg>
