<?xml version="1.0" encoding="utf-8" ?>
<svg xmlns="http://www.w3.org/2000/svg" xmlns:xlink="http://www.w3.org/1999/xlink" width="106" height="86">
	<path fill="white" d="M32.3611 75.313L28.1531 71.0785L22.1418 70.8768L17.5331 75.0105L17.5331 80.7573L21.5407 85.5966L27.9528 85.8991L31.9603 81.3621"/>
	<path fill="white" d="M59.5123 75.0106L55.3043 70.7761L49.1928 70.4736L44.7845 74.7081L44.6843 80.3541L48.6919 85.2943L55.0038 85.5967L59.2117 80.7573"/>
	<path fill="white" d="M86.1626 75.4139L81.9546 71.1794L75.9433 70.9778L71.3346 75.1114L71.3346 80.8582L75.3422 85.6976L81.7543 86.0001L85.6616 81.4631"/>
	<path fill="white" d="M90.4707 26.5159C88.9679 11.4936 76.1437 5e-05 60.7146 5e-05C50.4953 5e-05 40.9773 4.94026 35.6673 13.0059C33.8639 12.3001 31.8601 11.9977 29.9565 11.9977C22.1418 11.9977 15.2287 17.3412 13.1248 24.802C5.10964 28.5322 0 36.3962 0 45.1676C0 57.1653 9.71834 67.0458 22.242 67.5499L33.6635 67.5499C33.5633 67.7516 33.5633 68.054 33.5633 68.3565L33.5633 75.7164C33.5633 77.4303 34.8658 78.741 36.569 78.741C38.2722 78.741 39.5747 77.4303 39.5747 75.7164L39.5747 68.3565C39.5747 68.054 39.5747 67.8524 39.4745 67.6507L61.0151 67.7516C60.9149 67.9532 60.9149 68.1548 60.9149 68.4573L60.9149 75.8172C60.9149 77.5312 62.2174 78.8418 63.9206 78.8418C65.6238 78.8418 66.9263 77.5312 66.9263 75.8172L66.9263 68.4573C66.9263 68.2557 66.9263 68.054 66.8261 67.7516L84.9603 67.8524C96.5822 67.2475 106 57.871 106 46.7808C106 37.3036 99.6881 29.2381 90.4707 26.5159"/>
	<path fill="#323333" d="M23.6446 82.8745L23.6446 80.1524L21.4405 82.2696L20.0378 80.6565L21.9414 78.9425L19.7372 78.9425L19.7372 76.8253L21.9414 76.8253L20.138 74.8089L21.6408 73.2966L23.6446 75.4138L23.6446 72.8933L25.7486 72.8933L25.7486 75.4138L27.7524 73.4982L29.2552 75.0105L27.3516 76.8253L29.656 76.8253L29.656 78.9425L27.2514 78.9425L29.0548 80.8581L27.552 82.4712L25.7486 80.354L25.7486 82.8745"/>
	<path fill="#323333" d="M50.7958 82.5721L50.7958 79.85L48.4915 81.9672L47.189 80.3541L49.0926 78.6401L46.8884 78.6401L46.8884 76.5229L49.0926 76.5229L47.2892 74.5065L48.792 72.9942L50.7958 75.0106L50.7958 72.5909L52.8998 72.5909L52.8998 75.0106L54.9036 73.1958L56.4064 74.7081L54.5028 76.5229L56.707 76.5229L56.707 78.6401L54.3024 78.6401L56.206 80.4549L54.7032 82.1688L52.8998 80.0516L52.8998 82.5721"/>
	<path fill="#323333" d="M77.4461 82.9754L77.4461 80.2533L75.242 82.3705L73.8393 80.7574L75.7429 79.1442L73.5387 79.1442L73.5387 76.9262L75.7429 76.9262L73.9395 74.9098L75.4423 73.4983L77.4461 75.5147L77.4461 73.095L79.5501 73.095L79.5501 75.5147L81.5539 73.6999L83.0567 75.1114L81.1531 76.9262L83.4575 76.9262L83.4575 79.1442L81.0529 79.1442L82.8563 80.959L81.3535 82.5721L79.5501 80.4549L79.5501 82.9754"/>
	<path fill="#9FF1FF" d="M21.9414 64.2227C11.121 63.7187 2.7051 55.1488 2.7051 44.8652C2.7051 36.7995 7.71455 29.5404 15.4291 26.6166C16.6314 19.66 22.7429 14.6191 29.656 14.6191C31.9603 14.6191 34.465 15.3247 36.569 16.4338C41.0775 7.86402 50.2949 2.62135 60.5142 2.62135C75.242 2.62135 87.1645 14.2158 87.465 28.5322C96.482 30.1453 102.894 37.6061 102.894 46.3775C102.894 55.8546 94.879 63.9202 84.7599 64.4244L21.9414 64.2227"/>
	<path fill="#2D1B0A" d="M84.5595 65.4326L21.8412 65.2309C10.5198 64.7268 1.603 55.7538 1.603 44.8652C1.603 36.497 6.61245 29.1371 14.4272 25.9109C15.93 18.8534 22.2419 13.6108 29.5557 13.6108C31.7599 13.6108 34.0642 14.1149 36.068 15.1231C40.8771 6.75495 50.0945 1.6131 60.414 1.6131C75.2419 1.6131 87.5652 13.2075 88.2665 27.7256C97.3837 29.7421 103.696 37.3036 103.696 46.3775C103.696 56.3587 95.0794 64.9285 84.5595 65.4326M21.9414 63.2145L84.5595 63.4161C93.9773 62.912 101.692 55.3505 101.692 46.3775C101.692 38.0093 95.6805 31.1535 87.1644 29.5404C86.0624 14.9214 74.4404 3.73033 60.414 3.73033C50.5954 3.73033 41.7788 8.87219 37.3705 17.0387L35.9678 17.4419C34.0642 16.3329 31.7599 15.728 29.5557 15.728C23.0435 15.728 17.4329 20.4666 16.3308 26.8183C8.41585 30.4478 3.70697 37.2028 3.70697 44.8652C3.70697 54.7456 11.7221 62.8112 21.9414 63.2145"/>
	<path fill="#2D1B0A" d="M35.3668 26.1125L33.363 25.9109C33.7637 22.2813 34.3649 17.6436 36.8696 14.1149L38.4726 15.3247C36.2685 18.3493 35.7675 22.483 35.3668 26.1125"/>
	<path fill="#2D1B0A" d="M68.429 36.2954L66.5255 35.7913C67.8279 30.8511 74.0396 27.9273 79.7505 27.2215C84.3591 26.6166 87.966 27.524 92.5746 29.238L91.8733 31.1536C87.465 29.5404 84.2589 28.7339 80.0509 29.238C75.1417 29.8429 69.4309 32.2626 68.429 36.2954"/>
	<path fill="#2D1B0A" d="M36.1682 76.4221C35.5671 76.4221 35.1663 76.0188 35.1663 75.4138L35.1663 68.0539C35.1663 67.449 35.5671 67.0457 36.1682 67.0457C36.7693 67.0457 37.1701 67.449 37.1701 68.0539L37.1701 75.4138C37.1701 76.0188 36.7693 76.4221 36.1682 76.4221"/>
	<path fill="#2D1B0A" d="M63.5198 76.4221C62.9187 76.4221 62.5179 76.0188 62.5179 75.4138L62.5179 68.0539C62.5179 67.449 62.9187 67.0457 63.5198 67.0457C64.1209 67.0457 64.5217 67.449 64.5217 68.0539L64.5217 75.4138C64.5217 76.0188 64.1209 76.4221 63.5198 76.4221"/>
</svg>
