<?xml version="1.0" encoding="utf-8" ?>
<svg xmlns="http://www.w3.org/2000/svg" xmlns:xlink="http://www.w3.org/1999/xlink" width="84" height="102">
	<path fill="white" d="M78.4604 66.9375L84 56.0801L54.6906 41.5371L51.8705 40.2422C51.3669 38.3496 50.259 36.6563 48.8489 35.2617L55.4964 35.2617L46.1295 0L33.9424 0L33.9424 35.4609C32.4317 36.9551 31.3237 38.8477 30.9209 40.8398L27.0935 33.7676L0 58.6699L5.94245 69.2285L31.9281 55.084L35.9568 52.8926L32.8345 89.9473L26.8921 89.9473L26.8921 102L56.3022 102L56.3022 89.9473L49.9568 89.9473L47.5396 60.1641L78.4604 66.9375"/>
	<path fill="#65DFE5" d="M29.6115 93.1347L52.9784 93.1347L52.9784 99.2109L29.6115 99.2109L29.6115 93.1347"/>
	<path fill="#2D1B0A" d="M53.9857 100.207L28.6044 100.207L28.6044 92.1386L53.9857 92.1386L53.9857 100.207M30.6188 98.2148L51.9713 98.2148L51.9713 94.1308L30.6188 94.1308L30.6188 98.2148"/>
	<path fill="#65DFE5" d="M76.4964 63.5507L79.6187 57.4745L53.0288 44.3261L48.8993 42.334C48.5971 39.246 46.482 36.8554 43.6619 35.959L43.6619 32.3731L51.2158 32.3731L43.4604 3.08785L36.6115 3.08785L36.6115 32.2733L36.6115 36.955C34.7986 38.25 33.4892 40.3417 33.3885 42.8319L29.3597 45.123L25.8345 38.8476L3.3741 59.5663L6.69784 65.4434L32.5827 51.3983L36.4101 49.2069C37.1151 49.705 37.9209 50.1034 38.8273 50.4023L35.2014 93.1348L46.6835 93.1348L43.259 50.4023C44.2662 50.1034 45.1727 49.6054 45.9784 49.0077L49.6043 50.8007L46.3813 57.2753L76.4964 63.5507"/>
	<path fill="#2D1B0A" d="M47.8417 94.0312L34.1439 94.0312L37.7698 51C37.2662 50.8008 36.8633 50.6016 36.3597 50.3027L32.2302 52.6934L6.34532 66.8379L2.1151 59.3672L26.0863 37.2539L29.7122 43.8281L32.3309 42.334C32.5324 40.043 33.741 38.0508 35.5539 36.5566L35.5539 2.1914L44.2158 2.1914L52.4748 33.4687L44.6187 33.4687L44.6187 35.3613C47.3381 36.457 49.2518 38.8477 49.7554 41.7363L53.3813 43.5293L80.8777 57.1758L76.9496 64.8457L44.9209 58.0723L48.2446 51.2988L46.0288 50.2031C45.4245 50.6016 44.9209 50.9004 44.3165 51.0996L47.8417 94.0312M36.3597 92.0391L45.6259 92.0391L42.2014 49.6055C43.8129 49.207 44.6187 48.709 45.4245 48.2109L50.964 50.3027L47.8417 56.4785L75.8417 62.4551L78.1583 57.9727L52.4748 45.3223L47.8417 43.1309C47.4388 39.9434 45.7266 37.8516 43.2086 37.0547L42.5036 31.5762L49.7554 31.5762L42.5036 4.2832L37.4676 4.2832L37.4676 37.6523C35.3525 39.1465 34.3453 41.0391 34.2446 43.0312L28.9065 46.6172L25.5827 40.541L4.63309 59.8652L7.05035 64.1484L32.9352 50.1035L36.4604 48.1113C37.5683 48.9082 38.2734 49.3066 39.0791 49.6055L36.3597 92.0391"/>
	<path fill="white" d="M41.1942 46.3183C39.3813 46.3183 37.8705 44.9238 37.8705 43.1308C37.8705 41.3378 39.3813 39.8437 41.1942 39.8437C43.0072 39.8437 44.5179 41.3378 44.5179 43.1308C44.5179 45.0234 42.9064 46.3183 41.1942 46.3183"/>
	<path fill="#2D1B0A" d="M41.1942 47.3144C38.7769 47.3144 36.8633 45.4218 36.8633 43.1308C36.8633 40.8398 38.8777 38.8476 41.1942 38.8476C43.5107 38.8476 45.5251 40.8398 45.5251 43.1308C45.5251 45.5214 43.5107 47.3144 41.1942 47.3144M41.1942 40.9394C39.9856 40.9394 38.8777 42.0351 38.8777 43.2304C38.8777 44.4257 39.8848 45.4218 41.1942 45.4218C42.5036 45.4218 43.5107 44.4257 43.5107 43.2304C43.5107 42.0351 42.4028 40.9394 41.1942 40.9394"/>
</svg>
