<?xml version="1.0" encoding="utf-8" ?>
<svg xmlns="http://www.w3.org/2000/svg" xmlns:xlink="http://www.w3.org/1999/xlink" width="106" height="82">
	<path fill="white" d="M85.0569 67.3C96.5781 66.7 105.795 60 106 46.4C106.196 37.1 99.6839 29 90.4669 26.3C88.9641 11.4 76.1404 0 60.712 0C50.4931 0 40.9756 4.9 35.6658 12.9C33.8625 12.2 31.8588 11.9 29.9553 11.9C22.1408 11.9 15.2281 17.2 13.1242 24.6C5.10942 28.3 0 36.1 0 44.8C0 56.7 9.71792 66.5 22.241 67L24.4451 67L20.037 71.1L19.9368 76.8L23.9442 81.6L30.2558 81.9L34.4636 77.1L34.7641 71.4L30.5564 67.2L24.5453 67L50.9941 67.1L47.3874 70.5L47.2872 76.2L51.2946 81L57.6063 81.3L61.6136 76.7L62.1146 70.8L58.4077 67.1L78.8454 67.2L74.6377 71.2L74.5375 76.9L78.5449 81.7L84.8565 82L88.8639 77.4L89.3648 71.5L85.0569 67.3"/>
	<path fill="#323333" d="M26.3475 79.7L26.3475 77L24.1435 79.1L22.741 77.5L24.7446 75.8L22.4405 75.8L22.4405 73.7L24.7446 73.7L22.8412 71.7L24.4441 70.2L26.3475 72.2L26.3475 69.8L28.4513 69.8L28.4513 72.2L30.5551 70.4L31.9576 71.9L30.1544 73.7L32.3583 73.7L32.3583 75.8L29.954 75.8L31.7573 77.7L30.3547 79.3L28.4513 77.2L28.4513 79.7"/>
	<path fill="#323333" d="M80.8458 79.7L80.8458 77L78.6418 79.1L77.2393 77.5L79.2429 75.8L76.9388 75.8L76.9388 73.7L79.2429 73.7L77.3395 71.7L78.9424 70.2L80.8458 72.2L80.8458 69.8L82.9496 69.8L82.9496 72.2L85.0534 70.4L86.4559 71.9L84.6527 73.7L86.8566 73.7L86.8566 75.8L84.4523 75.8L86.2556 77.7L84.853 79.3L82.9496 77.2L82.9496 79.7"/>
	<path fill="#323333" d="M53.5967 79L53.5967 76.3L51.3927 78.5L49.9902 76.8L51.9938 75.2L49.6897 75.2L49.6897 73L51.9938 73L50.0904 71L51.6933 69.6L53.5967 71.6L53.5967 69.2L55.7005 69.2L55.7005 71.6L57.8043 69.8L59.2068 71.2L57.4036 73L59.6075 73L59.6075 75.2L57.2032 75.2L59.0065 77L57.6039 78.6L55.7005 76.5L55.7005 79"/>
	<path fill="#9FF1FF" d="M22.2902 64.4C11.4707 63.9 3.0555 55.4 3.0555 45.2C3.0555 37.2 8.06454 30 15.7785 27.1C16.9806 20.2 23.0916 15.2 30.0041 15.2C32.3083 15.2 34.8128 15.9 36.9166 17C41.4247 8.5 50.6413 3.3 60.8598 3.3C75.5863 3.3 87.5078 14.8 87.8084 29C96.8247 30.6 103.236 38 103.236 46.7C103.236 56.1 95.2218 64.1 85.1035 64.6L22.2902 64.4"/>
	<path fill="#2D1B0A" d="M85.0534 65.6L22.3403 65.4C11.0199 64.9 2.1038 56 2.1038 45.2C2.1038 36.9 7.11284 29.6 14.9269 26.4C16.4296 19.4 22.741 14.2 30.0542 14.2C32.2582 14.2 34.5624 14.7 36.566 15.7C41.3746 7.4 50.5913 2.3 60.9099 2.3C75.7366 2.3 88.0589 13.8 88.7601 28.2C97.8766 30.2 104.188 37.7 104.188 46.7C104.188 56.6 95.4722 65.1 85.0534 65.6M22.3403 63.4L84.9533 63.6C94.3702 63.1 102.084 55.6 102.084 46.7C102.084 38.4 96.0733 31.6 87.558 30C86.456 15.5 74.835 4.4 60.8097 4.4C50.992 4.4 42.1761 9.5 37.7681 17.6L36.3656 18C34.4622 16.9 32.158 16.3 29.954 16.3C23.4423 16.3 17.8322 21 16.7302 27.3C8.81591 30.9 4.10741 37.6 4.10741 45.2C4.10741 55 12.1219 63 22.3403 63.4"/>
	<path fill="#2D1B0A" d="M35.7645 26.6L33.7609 26.4C34.1616 22.8 34.7627 18.2 37.2672 14.7L38.8701 15.9C36.6661 18.9 36.1652 23 35.7645 26.6"/>
	<path fill="#2D1B0A" d="M68.8241 36.7L66.9207 36.2C68.2231 31.3 74.4342 28.4 80.1446 27.7C84.7529 27.1 88.3594 28 92.9677 29.7L92.2664 31.6C87.9587 30 84.6527 29.2 80.4451 29.7C75.5362 30.3 69.9261 32.7 68.8241 36.7"/>
</svg>
