<?xml version="1.0" encoding="utf-8" ?>
<svg xmlns="http://www.w3.org/2000/svg" xmlns:xlink="http://www.w3.org/1999/xlink" width="106" height="90">
	<path fill="white" d="M30.1567 74.3695L24.0452 74.0708L19.136 78.6505L19.136 84.4248L23.5442 89.7013L29.7558 90L34.5648 85.4204L34.7653 80.1438L31.5592 74.3695"/>
	<path fill="white" d="M78.7477 73.6726L75.8422 75.2655L73.1372 79.9447L72.8366 84.3253L77.4453 89.6018L84.759 89.7014L89.568 84.6239L89.8686 78.9491L84.8592 73.9712"/>
	<path fill="white" d="M90.5699 26.1836C89.0671 11.5487 76.1428 5e-05 60.8141 5e-05C50.4947 5e-05 41.0771 4.87837 35.6669 12.8429C33.8635 12.146 31.8598 11.8473 29.9562 11.8473C22.1415 11.8473 15.2286 17.2235 13.1246 24.4912C5.10959 28.1749 0 35.9403 0 44.6018C0 56.4492 9.71823 66.2059 22.1415 66.7036L34.5648 66.7036L32.4609 68.9935L32.0601 74.4691L35.5667 80.0443L43.2812 80.6417L45.9863 78.2523L48.3908 74.7678L48.3908 70.6859L48.3908 68.9935L46.1866 66.8032L62.5173 66.9028L59.8122 70.0886L59.8122 75.0665L57.8084 73.7722L51.697 73.4736L48.6913 75.8629L46.4872 79.447L46.4872 83.0311L46.387 84.1262L50.5949 88.5067L58.0088 88.5067L61.9161 83.0311L61.7158 79.1483L64.2205 81.6373L70.6325 82.0355L73.2374 79.7457L75.7421 75.4647L75.7421 70.0886L72.8366 67.2014L84.9594 67.2014C96.5812 66.604 106 57.3451 106 46.3938C106 36.8363 99.687 28.7722 90.5699 26.1836"/>
	<path fill="#323333" d="M66.4246 78.2522L66.4246 75.5642L64.2205 77.7544L62.9181 76.062L64.8216 74.469L62.6175 74.469L62.6175 72.2788L64.8216 72.2788L63.0182 70.2876L64.5211 68.8938L66.4246 70.885L66.4246 68.4956L68.6288 68.4956L68.6288 70.885L70.6325 69.0929L72.0352 70.4867L70.2318 72.2788L72.4359 72.2788L72.4359 74.469L70.0314 74.469L71.8348 76.2611L70.4322 77.854L68.6288 75.7633L68.6288 78.2522"/>
	<path fill="#323333" d="M39.1735 77.6549L39.1735 74.9668L36.9694 77.0576L35.667 75.4646L37.5705 73.7722L35.3664 73.7722L35.3664 71.6814L37.5705 71.6814L35.7671 69.6903L37.27 68.1969L39.1735 70.2876L39.1735 67.7987L41.3777 67.7987L41.3777 70.2876L43.3814 68.396L44.7841 69.8894L42.9807 71.6814L45.1848 71.6814L45.1848 73.7722L42.7803 73.7722L44.5837 75.6637L43.181 77.2567L41.3777 75.166L41.3777 77.6549"/>
	<path fill="#323333" d="M25.8485 86.9137L25.8485 84.2257L23.5442 86.3164L22.2418 84.7234L24.1453 83.1305L21.9412 83.1305L21.9412 80.9403L24.1453 80.9403L22.3419 78.9491L23.8448 77.5553L25.8485 79.5465L25.8485 77.1571L27.9525 77.1571L27.9525 79.5465L29.9562 77.7544L31.459 79.1482L29.5555 80.9403L31.8598 80.9403L31.8598 83.1305L29.3551 83.1305L31.2587 84.9226L29.7559 86.5155L27.9525 84.4248L27.9525 86.9137"/>
	<path fill="#323333" d="M80.3507 86.9137L80.3507 84.2257L78.1466 86.3164L76.744 84.7234L78.6475 83.1305L76.4434 83.1305L76.4434 80.9403L78.6475 80.9403L76.8441 78.9491L78.347 77.5553L80.3507 79.5465L80.3507 77.1571L82.4547 77.1571L82.4547 79.5465L84.4584 77.7544L85.9613 79.1482L84.0577 80.9403L86.362 80.9403L86.362 83.1305L83.9575 83.1305L85.7609 84.9226L84.2581 86.5155L82.4547 84.4248L82.4547 86.9137"/>
	<path fill="#323333" d="M53.0996 86.3164L53.0996 83.6283L50.8955 85.7191L49.4929 84.1261L51.3964 82.4337L49.1923 82.4337L49.1923 80.3429L51.3964 80.3429L49.593 78.3518L51.0959 76.8584L53.0996 78.8496L53.0996 76.4602L55.2036 76.4602L55.2036 78.8496L57.2073 77.0575L58.7101 78.5509L56.8066 80.3429L59.1109 80.3429L59.1109 82.4337L56.6062 82.4337L58.5098 84.3252L57.007 85.9182L55.2036 83.8275L55.2036 86.3164"/>
	<path fill="#9FF1FF" d="M22.1414 63.7167C11.3211 63.219 2.9053 54.7565 2.9053 44.6017C2.9053 36.6371 7.9147 29.469 15.6292 26.5818C16.8314 19.7122 22.9429 14.7344 29.8559 14.7344C32.1602 14.7344 34.6649 15.4312 36.7688 16.5264C41.2773 8.06404 50.4946 2.88705 60.7137 2.88705C75.4414 2.88705 87.3637 14.3361 87.6643 28.4734C96.6812 30.0662 103.093 37.4336 103.093 46.0951C103.093 55.4534 95.0782 63.418 84.9592 63.9159L22.1414 63.7167"/>
	<path fill="#2D1B0A" d="M84.7589 64.9113L22.0413 64.7122C10.72 64.2144 1.8033 55.3538 1.8033 44.6016C1.8033 36.3383 6.8127 29.0706 14.6274 25.8848C16.1302 18.9157 22.442 13.7387 29.7557 13.7387C31.9599 13.7387 34.2642 14.2365 36.268 15.2321C41.077 6.96883 50.2943 1.8914 60.6136 1.8914C75.4414 1.8914 87.7646 13.3405 88.4659 27.6768C97.583 29.6679 103.895 37.1348 103.895 46.0949C103.895 55.9511 95.2786 64.4135 84.7589 64.9113M22.1415 62.721L84.7589 62.9202C94.1766 62.4224 101.891 54.9556 101.891 46.0949C101.891 37.8317 95.8798 31.0618 87.3638 29.4688C86.2617 15.033 74.6399 3.98211 60.6136 3.98211C50.7952 3.98211 41.9787 9.05954 37.5704 17.1237L36.1678 17.5219C34.2642 16.4268 31.9599 15.8295 29.7557 15.8295C23.2435 15.8295 17.633 20.5087 16.5309 26.7808C8.61608 30.3649 3.90725 37.0352 3.90725 44.6016C3.90725 54.3582 11.9223 62.3228 22.1415 62.721"/>
	<path fill="#2D1B0A" d="M35.5668 26.084L33.563 25.8849C33.9638 22.3009 34.5649 17.7213 37.0696 14.2367L38.6726 15.4314C36.4685 18.4182 35.9675 22.5 35.5668 26.084"/>
	<path fill="#2D1B0A" d="M68.6288 36.1394L66.7253 35.6416C68.0277 30.7633 74.2393 27.8761 79.9501 27.1792C84.5587 26.5819 88.1655 27.4779 92.7742 29.1704L92.0728 31.062C87.6646 29.469 84.4585 28.6726 80.2506 29.1704C75.3414 29.7677 69.6307 32.1571 68.6288 36.1394"/>
</svg>
