<?xml version="1.0" encoding="utf-8" ?>
<svg xmlns="http://www.w3.org/2000/svg" xmlns:xlink="http://www.w3.org/1999/xlink" width="120" height="108">
	<path fill="white" d="M119.547 66.0563C118.547 63.7261 116.648 62.3077 114.249 62.3077L112.95 62.409C110.951 62.9156 108.752 63.2195 106.053 63.2195C105.253 63.2195 104.554 63.2195 103.754 63.1182C101.155 57.6473 96.2574 53.3921 90.26 51.6698C89.2605 42.4503 83.8629 34.0413 75.7664 29.1782C76.5661 18.9456 82.8633 11.8537 84.7625 9.82739C86.5617 7.80113 87.0614 5.16698 85.9619 3.34334C84.9624 1.21576 82.9632 0 80.7642 0L79.6647 0C66.5705 4.05253 56.6749 13.6773 52.3768 26.0375C45.3799 27.9625 39.3826 32.2176 35.5842 37.9925C33.785 37.2833 31.7859 36.9794 29.8868 36.9794C22.0902 36.9794 15.1933 42.349 13.0942 49.8462C5.09774 53.5947 0 61.4972 0 70.3114C0 82.3677 9.69571 92.2964 22.1902 92.803L24.3892 92.803L19.9911 96.9568L19.8912 102.732L23.8894 107.595L30.1866 108L34.3848 103.036L34.6846 97.2608L30.4865 93.0056L24.4892 92.803L50.8775 92.9043L47.2791 96.349L47.1791 102.124L51.1773 106.987L57.4745 107.291L61.6727 102.428L61.9725 96.6529L58.2742 92.9043L78.6652 93.0056L74.467 97.0582L74.3671 102.833L78.3653 107.696L84.6625 108L88.8606 103.137L89.1605 97.3621L84.9624 93.1069L79.065 93.0056L84.9624 93.0056C93.4586 92.6004 100.855 87.5347 104.154 80.1388C109.152 78.5178 113.95 75.985 118.148 72.5403C119.547 71.122 120.647 68.6904 119.547 66.0563"/>
	<path fill="#FFC257" d="M91.0509 79.227C70.2601 79.0244 53.1677 61.5984 53.1677 40.2213C53.1677 22.9981 63.863 8.10502 80.0558 3.03935C82.2548 3.03935 83.0546 3.74854 83.5542 4.66036C84.054 5.57218 83.7542 6.68663 82.8545 7.69976C80.1557 10.4352 71.4596 20.5666 73.0589 34.953C74.2584 52.5815 87.6525 60.484 88.3521 60.9905C88.552 61.1931 95.8488 66.2589 106.344 66.2589C108.843 66.2589 111.342 66.0563 113.841 65.3471C115.74 65.3471 116.54 66.0563 117.039 67.1707C117.539 68.2851 117.039 69.5009 116.34 70.2101C109.143 75.985 100.347 79.227 91.0509 79.227"/>
	<path fill="#2D1B0A" d="M91.0596 80.2401C69.6691 80.0375 52.1768 62.105 52.1768 40.2213C52.1768 22.5928 63.2719 7.29449 79.7646 2.0262L81.064 2.0262C82.5633 2.0262 83.7628 2.83671 84.4625 4.25509C85.2047 5.47085 84.8623 7.09187 83.6629 8.40894C80.964 11.1444 72.5678 20.8705 74.1671 34.8517C75.1666 49.5421 84.6624 57.3433 88.7606 59.9774C88.8605 60.0787 88.9605 60.0787 88.9605 60.18C89.9601 60.8892 96.857 65.2457 106.253 65.2457C109.052 65.2457 111.451 64.9418 113.55 64.4352C116.049 64.4352 117.348 65.347 117.948 66.968C118.647 68.6904 117.948 70.2101 117.048 71.1219C109.451 77.0994 100.455 80.2401 91.0596 80.2401M80.2644 4.05247C64.6713 9.01682 54.2759 23.5046 54.2759 40.2213C54.2759 60.9906 70.7686 78.0112 91.1595 78.2138C100.056 78.2138 108.552 75.1744 115.749 69.5009C116.148 69.0956 116.448 68.3864 116.148 67.5759C115.849 66.7654 115.249 66.3602 114.549 66.3602C111.75 66.968 109.352 67.272 106.353 67.272C95.7575 67.272 88.3608 62.2063 88.0609 62.0037C83.363 58.863 73.1675 50.5553 72.1679 35.0543C70.4687 20.2626 79.4647 9.92864 82.1635 7.09187C82.7633 6.48399 82.9632 5.77479 82.6633 5.26823C82.3634 4.76166 81.8636 4.15378 81.064 4.15378"/>
	<path fill="#323333" d="M26.4883 105.366L26.4883 102.631L24.2892 104.758L22.8899 103.137L24.789 101.415L22.59 101.415L22.59 99.2872L24.789 99.2872L22.9898 97.2609L24.5891 95.7412L26.4883 97.7675L26.4883 95.336L28.5873 95.336L28.5873 97.7675L30.5865 95.9439L32.0858 97.4636L30.2866 99.2872L32.4856 99.2872L32.4856 101.415L30.0867 101.415L31.8859 103.34L30.4865 104.961L28.5873 102.833L28.5873 105.366"/>
	<path fill="#323333" d="M80.8642 105.366L80.8642 102.631L78.6651 104.758L77.2658 103.137L79.2649 101.415L76.9659 101.415L76.9659 99.2872L79.2649 99.2872L77.3657 97.2609L78.965 95.7412L80.8642 97.7675L80.8642 95.336L82.9632 95.336L82.9632 97.7675L85.0623 95.9439L86.4617 97.4636L84.6625 99.2872L86.8615 99.2872L86.8615 101.415L84.4626 101.415L86.2618 103.34L84.8624 104.961L82.9632 102.833L82.9632 105.366"/>
	<path fill="#323333" d="M53.6763 104.657L53.6763 101.921L51.4772 104.15L50.0779 102.428L52.077 100.807L49.778 100.807L49.778 98.5779L52.077 98.5779L50.1778 96.5516L51.7771 95.1332L53.6763 97.1595L53.6763 94.7279L55.7753 94.7279L55.7753 97.1595L57.7744 95.3358L59.2738 96.7542L57.4746 98.5779L59.6736 98.5779L59.6736 100.807L57.2747 100.807L59.0739 102.63L57.6745 104.251L55.7753 102.124L55.7753 104.657"/>
	<path fill="#9FF1FF" d="M22.49 89.8649C11.6948 89.3584 3.29855 80.7467 3.29855 70.4128C3.29855 62.3077 8.29634 55.0132 15.993 52.0751C17.1924 45.0845 23.2896 40.0188 30.1866 40.0188C32.4856 40.0188 34.9846 40.728 37.0835 41.8424C41.5816 33.2308 50.7775 27.9625 60.973 27.9625C75.6665 27.9625 87.5613 39.6135 87.8611 54C96.8572 55.621 103.254 63.1182 103.254 71.9325C103.254 81.4559 95.2579 89.561 85.1623 90.0676L22.49 89.8649"/>
	<path fill="#2D1B0A" d="M84.9624 91.0805L22.3902 90.8779C11.0952 90.3713 2.1991 81.3545 2.1991 70.4126C2.1991 62.0036 7.19689 54.6077 14.9934 51.3657C16.4928 44.2738 22.79 39.0055 30.0867 39.0055C32.2858 39.0055 34.5848 39.5121 36.5839 40.5252C41.3817 32.1162 50.5777 26.9492 60.8731 26.9492C75.6666 26.9492 87.9611 38.6002 88.6608 53.1894C97.7568 55.2156 104.054 62.8141 104.054 71.9323C104.054 81.9623 95.4578 90.574 84.9624 91.0805M22.4901 88.8516L84.9624 89.0543C94.3583 88.5477 102.055 80.9492 102.055 71.9323C102.055 63.5233 96.0575 56.634 87.5613 55.013C86.4618 40.3226 74.8669 29.0768 60.8731 29.0768C51.0774 29.0768 42.2813 34.2438 37.8833 42.4501L36.4839 42.8554C34.5848 41.7409 32.2858 41.1331 30.0867 41.1331C23.5896 41.1331 17.9921 45.8948 16.8926 52.2775C8.99609 55.9248 4.29817 62.7128 4.29817 70.4126C4.29817 80.3413 12.2946 88.4464 22.4901 88.8516"/>
	<path fill="#2D1B0A" d="M35.8841 51.5685L33.885 51.3658C34.2849 47.7185 34.8846 43.0581 37.3835 39.5121L38.9828 40.7279C36.7837 43.7673 36.284 47.9212 35.8841 51.5685"/>
	<path fill="#2D1B0A" d="M68.8696 61.8011L66.9705 61.2946C68.2699 56.3302 74.4671 53.3921 80.1646 52.6829C84.7626 52.0751 88.3609 52.9869 92.959 54.7092L92.2592 56.6342C87.9612 55.0131 84.6627 54.2026 80.4645 54.7092C75.5666 55.3171 69.8692 57.7486 68.8696 61.8011"/>
</svg>
