<?xml version="1.0" encoding="utf-8" ?>
<svg xmlns="http://www.w3.org/2000/svg" xmlns:xlink="http://www.w3.org/1999/xlink" width="132" height="108">
	<path fill="white" d="M131.611 65.8315C130.61 63.5056 128.707 62.0899 126.303 62.0899L125.001 62.191C122.997 62.6966 120.794 63 118.09 63C111.779 63 106.671 60.9775 103.867 59.5618C101.563 54.9101 97.6567 51.3708 92.6487 49.3483C89.744 45 88.0413 39.9438 87.7408 34.4831C86.2384 21.4382 94.2513 12.3371 96.6551 9.80899C98.458 7.78652 98.9588 5.1573 97.8571 3.33708C96.8555 1.21348 94.8522 0 92.6487 0L91.5469 0C79.6278 3.64045 70.5132 11.7303 65.6053 22.4494C64.0027 22.1461 62.3 22.0449 60.6974 22.0449C50.481 22.0449 40.9658 27 35.6572 35.0899C33.8543 34.382 31.8511 34.0787 29.9481 34.0787C22.1355 34.0787 15.2244 39.4382 13.1211 46.9213C5.1082 50.5618 0 58.5506 0 67.3483C0 79.382 9.71559 89.2921 22.2357 89.7978L33.654 89.7978C33.5539 90 33.5539 90.3034 33.5539 90.6067L33.5539 97.9888C33.5539 99.7079 34.8559 101.124 36.5587 101.124C38.2614 101.124 39.5635 99.7079 39.5635 97.9888L39.5635 90.6067C39.5635 90.3034 39.5635 90.1011 39.4633 89.8989L60.9979 90C60.8977 90.2022 60.8977 90.4045 60.8977 90.7079L60.8977 98.0899C60.8977 99.809 62.1998 101.124 63.9026 101.124C65.6053 101.124 66.9074 99.809 66.9074 98.0899L66.9074 90.7079C66.9074 90.5056 66.9074 90.3034 66.8072 90L84.9363 90.1011C91.2465 89.7978 97.0558 86.9663 101.062 82.1124C101.663 82.1124 102.164 82.1124 102.765 82.2135C112.581 82.2135 121.996 78.8764 130.009 72.6067C131.511 70.8876 132.613 68.4607 131.611 65.8315"/>
	<path fill="white" d="M50.2807 93.9443C48.578 93.9443 47.2759 95.2589 47.2759 96.978L47.2759 104.36C47.2759 106.079 48.578 107.394 50.2807 107.394C51.9834 107.394 53.2855 106.079 53.2855 104.36L53.2855 96.978C53.2855 95.2589 51.9834 93.9443 50.2807 93.9443"/>
	<path fill="white" d="M77.6246 93.9443C75.9219 93.9443 74.6198 95.2589 74.6198 96.978L74.6198 104.36C74.6198 106.079 75.9219 107.394 77.6246 107.394C79.3273 107.394 80.6294 106.079 80.6294 104.36L80.6294 96.978C80.6294 95.2589 79.3273 93.9443 77.6246 93.9443"/>
	<path fill="white" d="M22.9368 94.5503C21.2341 94.5503 19.932 95.8649 19.932 97.584L19.932 104.966C19.932 106.685 21.2341 108 22.9368 108C24.6395 108 25.9416 106.685 25.9416 104.966L25.9416 97.584C25.9416 95.966 24.6395 94.5503 22.9368 94.5503"/>
	<path fill="#FFC257" d="M102.656 79.0787C81.8227 78.8764 64.6952 61.4832 64.6952 40.1461C64.6952 22.9551 75.4124 8.08993 91.6384 3.03375L92.6401 3.03375C93.842 3.03375 94.6433 3.74162 95.1441 4.65173C95.6449 5.56184 95.3444 6.6742 94.4429 7.68544C91.7386 10.4158 83.0246 20.5282 84.6272 34.8876C85.8291 52.4832 99.2507 60.3708 99.9518 60.8764C100.152 61.0786 107.464 66.1348 117.981 66.1348C120.485 66.1348 122.989 65.9326 125.493 65.2248C127.396 65.2248 128.197 65.9326 128.698 67.045C129.199 68.1573 128.698 69.3708 127.997 70.0787C120.785 75.8428 111.971 79.0787 102.656 79.0787"/>
	<path fill="#2D1B0A" d="M102.665 80.0899C81.2303 79.8877 63.7022 61.9888 63.7022 40.1461C63.7022 22.5506 74.82 7.28093 91.3466 2.0225L92.6487 2.0225C94.1511 2.0225 95.353 2.83149 96.0541 4.24722C96.7979 5.4607 96.4548 7.07868 95.2528 8.39329C92.5485 11.1236 84.135 20.8315 85.7376 34.7865C86.7392 49.4495 96.2544 57.236 100.361 59.8652C100.461 59.9663 100.561 59.9663 100.561 60.0674C101.563 60.7753 108.474 65.1236 117.889 65.1236C120.694 65.1236 123.098 64.8203 125.201 64.3146L126.202 64.3146C127.705 64.3146 129.007 65.2247 129.608 66.8427C130.309 68.5618 129.608 70.0787 128.707 70.9888C121.094 76.9551 112.08 80.0899 102.665 80.0899M91.8474 4.04497C76.2223 9.00003 65.8056 23.4607 65.8056 40.1461C65.8056 60.8764 82.3321 77.8652 102.765 78.0674C111.679 78.0674 120.193 75.0337 127.404 69.3708C127.805 68.9663 128.106 68.2585 127.805 67.4495C127.304 66.236 126.503 66.236 126.202 66.236C123.398 66.8427 120.994 67.1461 117.989 67.1461C107.372 67.1461 99.9604 62.0899 99.6599 61.8877C94.9524 58.7528 84.736 50.4607 83.7344 34.9888C82.0316 20.2247 91.0461 9.91014 93.7504 7.07868C94.3514 6.47194 94.5517 5.76407 94.2512 5.25846C93.9507 4.75284 93.4499 4.1461 92.6487 4.1461"/>
	<path fill="#9FF1FF" d="M22.1856 86.764C11.3682 86.2584 2.9547 77.6629 2.9547 67.3483C2.9547 59.2584 7.96274 51.9775 15.6751 49.0449C16.877 42.0674 22.9869 37.0112 29.8979 37.0112C32.2016 37.0112 34.7057 37.7191 36.809 38.8314C41.3163 30.2359 50.5311 24.9775 60.7475 24.9775C75.4711 24.9775 87.3902 36.6067 87.6907 50.9663C96.7052 52.5842 103.116 60.0674 103.116 68.8651C103.116 78.3708 95.1026 86.4606 84.9864 86.9663L22.1856 86.764"/>
	<path fill="#2D1B0A" d="M84.9363 87.9775L22.2357 87.7753C10.9175 87.2697 2.0032 78.2697 2.0032 67.3483C2.0032 58.9551 7.01124 51.573 14.8238 48.3371C16.3262 41.2584 22.6363 36 29.9481 36C32.1516 36 34.4553 36.5056 36.4585 37.5169C41.2662 29.1236 50.481 23.9663 60.7976 23.9663C75.6214 23.9663 87.9411 35.5955 88.6423 50.1573C97.7569 52.1798 104.067 59.7641 104.067 68.8652C104.067 78.8764 95.4532 87.4719 84.9363 87.9775M22.3358 85.7528L84.9363 85.9551C94.3514 85.4494 102.064 77.8652 102.064 68.8652C102.064 60.4719 96.0542 53.5955 87.5405 51.9775C86.4387 37.3146 74.8201 26.0899 60.7976 26.0899C50.9818 26.0899 42.1677 31.2472 37.7606 39.4382L36.3583 39.8427C34.4553 38.7303 32.1516 38.1236 29.9481 38.1236C23.4376 38.1236 17.8286 42.8764 16.7268 49.2472C8.81413 52.8876 4.10658 59.6629 4.10658 67.3483C4.00642 77.2584 12.0193 85.3483 22.3358 85.7528"/>
	<path fill="#2D1B0A" d="M35.6572 48.5393L33.654 48.3372C34.0546 44.6967 34.6556 40.045 37.1596 36.5056L38.7622 37.7191C36.5587 40.7528 36.0579 44.8989 35.6572 48.5393"/>
	<path fill="#2D1B0A" d="M68.7103 58.7528L66.8072 58.2472C68.1093 53.2921 74.3193 50.3596 80.0284 49.6517C84.6358 49.045 88.2416 49.9551 92.849 51.6742L92.1479 53.5955C87.7408 51.9775 84.5357 51.1686 80.3289 51.6742C75.421 52.2809 69.812 54.7079 68.7103 58.7528"/>
	<path fill="#2D1B0A" d="M36.5587 99C35.9577 99 35.5571 98.5956 35.5571 97.9888L35.5571 90.6068C35.5571 90.0001 35.9577 89.5956 36.5587 89.5956C37.1597 89.5956 37.5603 90.0001 37.5603 90.6068L37.5603 97.9888C37.5603 98.5956 37.0595 99 36.5587 99"/>
	<path fill="#2D1B0A" d="M50.1805 105.371C49.5795 105.371 49.1789 104.967 49.1789 104.36L49.1789 96.978C49.1789 96.3713 49.5795 95.9668 50.1805 95.9668C50.7815 95.9668 51.1821 96.3713 51.1821 96.978L51.1821 104.36C51.1821 104.967 50.7815 105.371 50.1805 105.371"/>
	<path fill="#2D1B0A" d="M63.9026 99C63.3016 99 62.901 98.5956 62.901 97.9888L62.901 90.6068C62.901 90.0001 63.3016 89.5956 63.9026 89.5956C64.5036 89.5956 64.9042 90.0001 64.9042 90.6068L64.9042 97.9888C64.9042 98.5956 64.4034 99 63.9026 99"/>
	<path fill="#2D1B0A" d="M77.5244 105.371C76.9234 105.371 76.5228 104.967 76.5228 104.36L76.5228 96.978C76.5228 96.3713 76.9234 95.9668 77.5244 95.9668C78.1254 95.9668 78.526 96.3713 78.526 96.978L78.526 104.36C78.526 104.967 78.1254 105.371 77.5244 105.371"/>
	<path fill="#2D1B0A" d="M22.8367 106.078C22.2357 106.078 21.8351 105.674 21.8351 105.067L21.8351 97.685C21.8351 97.0782 22.2357 96.6738 22.8367 96.6738C23.4377 96.6738 23.8383 97.0782 23.8383 97.685L23.8383 105.067C23.8383 105.674 23.4377 106.078 22.8367 106.078"/>
</svg>
