<?xml version="1.0" encoding="utf-8" ?>
<svg xmlns="http://www.w3.org/2000/svg" xmlns:xlink="http://www.w3.org/1999/xlink" width="104" height="88">
	<path fill="white" d="M76.5121 69.5955L26.1833 69.5955C24.4618 69.5955 23.1453 70.9029 23.1453 72.6126C23.1453 74.3223 24.4618 75.6297 26.1833 75.6297L76.5121 75.6297C78.2336 75.6297 79.5501 74.3223 79.5501 72.6126C79.5501 70.9029 78.2336 69.5955 76.5121 69.5955"/>
	<path fill="white" d="M64.664 81.9658L37.93 81.9658C36.2084 81.9658 34.892 83.2732 34.892 84.9829C34.892 86.6926 36.2084 88 37.93 88L64.664 88C66.3855 88 67.702 86.6926 67.702 84.9829C67.702 83.2732 66.3855 81.9658 64.664 81.9658"/>
	<path fill="white" d="M88.3601 58.2309L14.4365 58.2309C12.715 58.2309 11.3985 59.5383 11.3985 61.248C11.3985 62.9577 12.715 64.2651 14.4365 64.2651L88.3601 64.2651C90.0816 64.2651 91.3981 62.9577 91.3981 61.248C91.3981 59.5383 89.9804 58.2309 88.3601 58.2309"/>
	<path fill="white" d="M100.81 49.2801L82.2784 49.2801C81.4682 40.8321 77.1138 32.9874 70.2278 27.7577C69.6202 27.2549 69.0126 26.8526 68.405 26.4503C63.3418 23.1314 57.3671 21.3211 51.2912 21.3211C35.0887 21.3211 21.823 33.3897 20.304 49.2801L3.19016 49.2801C1.46865 49.2801 0.1522 50.5874 0.1522 52.2971C0.1522 54.0069 1.46865 55.3142 3.19016 55.3142L100.81 55.3142C102.531 55.3142 103.848 54.0069 103.848 52.2971C103.848 50.5874 102.531 49.2801 100.81 49.2801"/>
	<path fill="white" d="M40.3604 15.9909C40.7655 17.4994 42.1832 18.6057 43.8034 18.6057C44.1072 18.6057 44.411 18.6057 44.7148 18.5051C45.6262 18.304 46.4363 17.7006 46.8414 16.896C47.3478 16.0914 47.449 15.0857 47.1451 14.1806L44.006 2.61486C43.6009 1.10629 42.1832 0 40.5629 0C40.2591 0 39.9553 0 39.6515 0C37.7275 0.603429 36.6136 2.51429 37.1199 4.42514L40.3604 15.9909"/>
	<path fill="white" d="M23.5503 26.3497C24.2592 27.0537 25.0694 27.3554 26.082 27.3554C27.0947 27.3554 27.9048 26.9531 28.6136 26.3497C29.3224 25.6457 29.6263 24.8411 29.6263 23.8354C29.6263 22.8297 29.2211 22.0251 28.6136 21.3211L20.1073 12.8731C19.3984 12.1691 18.5883 11.8674 17.5757 11.8674C16.563 11.8674 15.7529 12.2697 15.044 12.8731C13.6263 14.2811 13.6263 16.4937 15.044 17.8011L23.5503 26.3497"/>
	<path fill="white" d="M85.7273 42.944C85.2526 43.7486 85.1197 44.7543 85.4235 45.6594C85.8285 47.168 87.2463 48.2743 88.8665 48.2743C89.1703 48.2743 89.4741 48.2743 89.7779 48.1737L101.423 45.056C102.335 44.8548 103.145 44.2514 103.55 43.4468C103.955 42.6423 104.158 41.6366 103.854 40.7314C103.449 39.2228 102.031 38.1166 100.411 38.1166C100.107 38.1166 99.8032 38.1166 99.4994 38.1166L87.8539 41.3348C86.9425 41.536 86.1323 42.1394 85.7273 42.944"/>
	<path fill="white" d="M79.9551 30.6743C80.8665 30.6743 81.7779 30.272 82.4868 29.6686L90.993 21.2206C91.702 20.5166 92.0058 19.712 92.0058 18.7063C92.0058 17.8012 91.6006 16.896 90.993 16.192C90.2841 15.488 89.4741 15.1863 88.4614 15.1863C87.4488 15.1863 86.6386 15.5886 85.9298 16.192L77.4235 24.64C76.7146 25.344 76.4109 26.1486 76.4109 27.1543C76.4109 28.0594 76.8159 28.9646 77.4235 29.6686C78.1324 30.272 79.0437 30.6743 79.9551 30.6743"/>
	<path fill="white" d="M62.5375 19.712C62.8413 19.8125 63.1451 19.8125 63.4489 19.8125C65.0691 19.8125 66.4868 18.7062 66.8919 17.1978L70.0312 5.63199C70.2337 4.72685 70.1324 3.82171 69.7273 2.91656C69.221 2.11199 68.5121 1.50856 67.6008 1.20685C67.297 1.20685 66.9932 1.20685 66.6894 1.20685C65.0691 1.20685 63.6514 2.31314 63.2463 3.82171L60.1071 15.3875C59.9046 16.2925 60.0059 17.1978 60.4109 18.1028C60.9172 18.9074 61.6261 19.4102 62.5375 19.712"/>
	<path fill="white" d="M2.58842 40.5303L14.2339 43.6479C14.5377 43.7486 14.8415 43.7486 15.1453 43.7486C16.7656 43.7486 18.1833 42.6423 18.5883 41.1337C18.7909 40.2286 18.6896 39.3234 18.2845 38.4183C17.7782 37.6137 17.0694 37.0103 16.158 36.8091L4.51246 33.5909C4.20866 33.5909 3.90487 33.5909 3.60107 33.5909C1.98083 33.5909 0.563114 34.6971 0.158053 36.2057C-0.449539 38.016 0.765644 40.0274 2.58842 40.5303"/>
	<path fill="#FFC257" d="M30.5883 52.2971L22.8921 52.2971C22.8921 36.9097 35.449 24.4388 50.9426 24.4388C56.6134 24.4388 61.9805 26.1485 66.4362 29.0651C67.0438 29.4674 67.5501 29.8697 68.0564 30.2719C74.7399 35.4011 78.9931 43.3462 78.9931 52.3977L35.2465 52.3977L30.5883 52.3977"/>
	<path fill="#2D1B0A" d="M80.0564 53.3029L21.8288 53.3029L21.8288 52.2972C21.8288 36.4069 34.892 23.4332 50.9426 23.4332C56.6641 23.4332 62.1324 25.0423 66.8919 28.1601C67.4995 28.5623 68.0058 28.9646 68.6134 29.3669C75.8032 34.8983 79.9551 43.2458 79.9551 52.2972L79.9551 53.3029M23.9554 51.2915L78.031 51.2915C77.7272 43.2458 73.8792 35.9041 67.4995 30.9761C66.9931 30.5738 66.4868 30.1715 65.8792 29.8698C61.4235 26.9532 56.3603 25.4446 50.9426 25.4446C36.411 25.3441 24.4617 36.9098 23.9554 51.2915"/>
	<path fill="#3F1E01" d="M64.3602 85.9885L37.6262 85.9885C37.0186 85.9885 36.6135 85.5863 36.6135 84.9828C36.6135 84.3793 37.0186 83.9771 37.6262 83.9771L64.3602 83.9771C64.9678 83.9771 65.3729 84.3793 65.3729 84.9828C65.3729 85.5863 64.8665 85.9885 64.3602 85.9885M76.2083 73.6182L25.8794 73.6182C25.2718 73.6182 24.8667 73.216 24.8667 72.6125C24.8667 72.0091 25.2718 71.6068 25.8794 71.6068L76.2083 71.6068C76.8158 71.6068 77.2209 72.0091 77.2209 72.6125C77.2209 73.216 76.7146 73.6182 76.2083 73.6182M87.955 62.2537L14.0313 62.2537C13.4238 62.2537 13.0187 61.8514 13.0187 61.248C13.0187 60.6445 13.4238 60.2422 14.0313 60.2422L87.955 60.2422C88.5626 60.2422 88.9677 60.6445 88.9677 61.248C88.9677 61.8514 88.5626 62.2537 87.955 62.2537"/>
	<path fill="#3F1E01" d="M100.512 53.3028L2.8923 53.3028C2.28471 53.3028 1.87965 52.9005 1.87965 52.2971C1.87965 51.6937 2.28471 51.2914 2.8923 51.2914L100.512 51.2914C101.12 51.2914 101.525 51.6937 101.525 52.2971C101.525 52.9005 101.12 53.3028 100.512 53.3028"/>
	<path fill="#3F1E01" d="M43.3984 15.0995L40.2592 3.53382"/>
	<path fill="#3F1E01" d="M43.3984 16.58C42.6895 16.58 42.0819 16.1778 41.9807 15.4738L38.7968 3.908C38.6389 3.10343 39.1452 2.29886 39.9554 2.05336C40.7655 1.89657 41.5756 2.39943 41.7781 3.204L44.9174 14.7698C45.1199 15.5743 44.6136 16.3789 43.8034 16.58C43.7022 16.58 43.6009 16.58 43.3984 16.58"/>
	<path fill="#3F1E01" d="M25.7782 23.8354L17.2719 15.3874"/>
	<path fill="#3F1E01" d="M25.7782 25.344C25.3731 25.344 24.9681 25.2435 24.6643 24.9417L16.158 16.4937C15.5504 15.8903 15.5504 14.9851 16.158 14.3817C16.7656 13.7783 17.677 13.7783 18.2846 14.3817L26.7909 22.8297C27.3984 23.4331 27.3984 24.3382 26.7909 24.9417C26.4871 25.1428 26.082 25.344 25.7782 25.344"/>
	<path fill="#3F1E01" d="M14.8417 40.1921L3.19615 37.0743M88.4616 44.7178L100.107 41.6M79.6515 27.1178L88.1578 18.6698M63.1453 16.2561L66.2844 4.69035"/>
	<path fill="#3F1E01" d="M88.4826 46.2627C87.7733 46.2627 87.1654 45.8602 87.0641 45.1557C86.8614 44.3506 87.368 43.5455 88.1786 43.3442L99.8308 40.2244C100.641 40.0231 101.452 40.5263 101.7 41.3314C101.858 42.1365 101.351 42.9416 100.54 43.1429L88.8879 46.2627C88.6852 46.1621 88.5839 46.2627 88.4826 46.2627M14.8203 41.734C14.719 41.734 14.5164 41.734 14.4151 41.6334L2.76284 38.5136C1.95226 38.3123 1.44564 37.5072 1.6036 36.7021C1.85093 35.897 2.66152 35.3938 3.47211 35.5951L15.1243 38.7148C15.9349 38.9161 16.4415 39.7212 16.2389 40.5263C16.0362 41.2308 15.4283 41.734 14.8203 41.734M79.6674 28.651C79.2621 28.651 78.8568 28.5504 78.5529 28.2485C77.9449 27.6447 77.9449 26.7389 78.5529 26.1351L87.0641 17.6815C87.672 17.0776 88.5839 17.0776 89.1919 17.6815C89.7998 18.2853 89.7998 19.191 89.1919 19.7949L80.6807 28.2485C80.3767 28.4498 80.0727 28.651 79.6674 28.651M63.1517 17.7821C63.0504 17.7821 62.8477 17.7821 62.7464 17.6815C61.9358 17.4802 61.4292 16.6751 61.6318 15.87L64.7729 4.2966C64.9755 3.4915 65.7861 2.98831 66.5967 3.1452C67.4073 3.39086 67.9139 4.19596 67.7113 5.00107L64.5702 16.5745C64.4689 17.3796 63.861 17.7821 63.1517 17.7821"/>
</svg>
