<?xml version="1.0" encoding="utf-8" ?>
<svg xmlns="http://www.w3.org/2000/svg" xmlns:xlink="http://www.w3.org/1999/xlink" width="70" height="82">
	<path fill="white" d="M40.7181 82C18.2633 81.798 0 63.0148 0 40.0911C0 21.6108 11.5767 5.55419 28.9418 0L30.7382 0C32.9338 0 34.8299 1.21182 35.9277 3.23153C37.0255 5.25123 36.5265 7.77586 34.8299 9.69458C32.2352 12.3202 24.351 21.4089 25.848 34.436C26.7462 48.2709 35.7281 55.5419 39.5205 57.9655C39.6203 58.0665 39.8199 58.1675 39.8199 58.1675C41.3169 59.0764 47.6042 62.8128 55.9874 62.8128C58.682 62.8128 60.7777 62.6108 62.7737 62.0049L64.2707 61.9039C66.5661 61.9039 68.5621 63.3177 69.5601 65.6404C70.4583 67.7611 70 70.2857 68.2627 72.0025C59.9793 78.6675 50.5982 82 40.7181 82"/>
	<path fill="#FFC257" d="M40.4049 78.6675C19.6493 78.4655 2.58585 61.0961 2.58585 39.7882C2.58585 22.6208 13.2629 7.77591 29.4284 2.72665C31.6238 2.72665 32.422 3.43355 32.921 4.34241C33.4198 5.25128 33.1206 6.36212 32.2225 7.37197C29.5282 10.0986 20.8468 20.1971 22.4433 34.5369C23.6407 52.1085 37.0121 59.9852 37.7107 60.4902C37.9103 60.6922 45.1946 65.7414 55.6722 65.7414C58.1669 65.7414 60.6615 65.5395 63.1563 64.8326C65.0522 64.8326 65.8504 65.5395 66.3493 66.6502C66.8484 67.7611 66.3493 68.9729 65.6508 69.6798C58.4663 75.436 49.6851 78.6675 40.4049 78.6675"/>
	<path fill="#2D1B0A" d="M40.4135 79.6773C19.0592 79.4753 1.5966 61.6009 1.5966 39.7881C1.5966 22.2167 12.6729 6.96793 29.1377 1.7167L30.4349 1.7167C31.9317 1.7167 33.1291 2.52458 33.8276 3.93837C34.5686 5.1502 34.2268 6.76596 33.0293 8.07877C30.3351 10.8054 21.953 20.5 23.5496 34.4359C24.5475 49.0788 34.0272 56.8546 38.1184 59.4802C38.2182 59.5812 38.318 59.5812 38.318 59.6822C39.3159 60.3891 46.2011 64.7315 55.5811 64.7315C58.3751 64.7315 60.77 64.4285 62.8655 63.9236C65.3601 63.9236 66.6574 64.8325 67.2561 66.4482C67.9546 68.165 67.2561 69.6798 66.358 70.5886C58.6744 76.5467 49.7934 79.6773 40.4135 79.6773M29.5368 3.7364C13.9701 8.68468 3.59233 23.1256 3.59233 39.7881C3.59233 60.4901 20.0571 77.4556 40.4135 77.6576C49.2945 77.6576 57.7764 74.628 64.961 68.9729C65.3601 68.5689 65.6595 67.862 65.3601 67.0541C64.8612 65.8423 64.0629 65.8423 63.7636 65.8423C60.9695 66.4482 58.5747 66.7512 55.5811 66.7512C45.0037 66.7512 37.6195 61.7019 37.3201 61.5C32.6302 58.3694 22.452 50.0886 21.4541 34.6379C19.7577 19.894 28.7385 9.59355 31.4327 6.76596C32.0315 6.16005 32.231 5.45315 31.9317 4.94823C31.6323 4.4433 31.1334 3.83739 30.3351 3.83739"/>
</svg>
