<?xml version="1.0" encoding="utf-8" ?>
<svg xmlns="http://www.w3.org/2000/svg" xmlns:xlink="http://www.w3.org/1999/xlink" width="136" height="76">
	<path fill="white" d="M93.0052 76C86.7915 75.1989 82.0811 69.892 82.0811 63.8841C82.0811 58.8775 85.2881 54.3715 89.7981 52.6693C89.7981 52.469 89.8983 52.1686 89.8983 51.9684C89.5976 50.0659 89.0965 48.2635 88.395 46.5613C85.689 40.4532 80.3773 36.2477 73.5623 34.8458C72.059 34.5455 70.5556 34.4453 68.9521 34.4453C59.7318 34.4453 49.2085 39.8524 46.1017 51.7681C46.1017 52.0685 46.2019 52.3689 46.2019 52.6693C50.6116 54.3715 53.8187 58.7773 53.8187 63.7839C53.8187 69.892 49.1083 75.1989 43.0951 75.6996L11.9263 75.6996C5.2115 75.3992 0 69.9921 0 63.2833C0 58.5771 2.50553 54.3715 6.51437 52.1686C7.21592 49.4651 9.12012 47.2622 11.5254 46.0606C12.8283 39.0514 15.0332 33.2437 18.3405 27.8366C28.9639 10.1133 46.5026 0 66.2461 0C90.3994 0 117.559 15.7207 123.673 45.8603C126.479 46.9618 128.584 49.365 129.385 52.2688C133.494 54.4717 136 58.6772 136 63.4835C136 70.0922 130.588 75.6996 123.973 76L93.0052 76"/>
	<path fill="#FF3B73" d="M13.4797 56.2266L13.4797 54.8249C14.3817 45.813 16.1857 37.6021 20.9963 29.7918C49.7597 -17.9709 120.215 3.85774 122.019 56.4269L93.5563 56.4269C91.9528 23.1831 45.0493 23.9842 42.0427 56.4269L13.4797 56.2266"/>
	<path d="M42.9948 57.3755L12.4274 57.1753L12.4274 54.8722C13.5298 43.9579 15.7347 36.3479 20.1444 29.3386C35.7789 3.40446 61.6359 -0.70094 80.678 4.20551C101.023 9.51249 122.069 27.6364 123.071 56.3741L123.071 57.3755L92.6043 57.3755L92.6043 56.3741C91.8025 40.3531 80.2771 32.9433 69.1525 32.743C57.7273 32.5427 44.5984 39.8525 43.095 56.4743M94.5085 55.2728L120.966 55.2728C119.563 28.1371 99.5195 11.0145 80.0766 6.00788C61.8364 1.30169 36.8813 5.1067 21.8482 30.2397C17.6389 37.0488 15.434 44.3583 14.4318 54.8722L41.1908 55.3728C43.1953 38.1502 57.0258 30.5401 69.2528 30.7404C80.9786 30.9407 93.2056 38.6508 94.5085 55.2728"/>
	<path fill="#FF9327" d="M19.1924 56.1899L19.1924 54.9883C19.8939 46.9778 21.6979 39.568 25.9072 32.4587C51.3634 -10.1975 114.402 9.2281 116.407 56.3902L93.4562 56.3902C91.8527 23.1464 44.9492 23.9475 41.9426 56.3902L19.1924 56.1899"/>
	<path d="M42.8947 57.3755L18.2403 57.1753L18.2403 54.9724C19.0421 45.9605 21.1467 38.6508 25.0553 31.9421C38.8858 8.81163 61.8365 5.10675 78.7738 9.41242C97.2145 14.0185 116.257 30.34 117.359 56.2741L117.359 57.2753L92.4039 57.2753L92.4039 56.2741C91.6021 40.2529 80.0767 32.8433 68.9522 32.6135C57.527 32.4427 44.398 39.7523 42.8947 56.3742L42.8947 57.3755M94.4083 55.2728L115.354 55.2728C113.851 30.9408 95.7112 15.7207 78.2727 11.3149C62.0369 7.20952 39.9883 10.7141 26.7591 32.9434C23.0509 39.3519 20.9463 46.361 20.2447 55.0724L41.0907 55.3728C43.0951 38.1502 56.9256 30.5403 69.1526 30.7404C80.8785 30.9408 93.1054 38.6508 94.4083 55.2728"/>
	<path fill="#FFDE52" d="M24.7546 56.1507L24.7546 54.9492C30.0663 0.978149 107.938 2.58025 110.444 56.1507L93.2056 56.1507C92.3036 22.907 44.6986 24.2087 41.692 56.1507L24.7546 56.1507"/>
	<path d="M111.446 57.1753L92.2034 57.1753L92.2034 56.1736C91.8025 40.448 80.5778 33.0359 69.5534 32.7354C57.3265 32.3347 44.1975 40.2476 42.6942 56.2738L23.7524 57.1753L23.7524 54.9717C26.5586 26.2247 49.2086 13.7043 69.0523 14.1907C88.4952 14.7059 110.143 28.0277 111.446 56.0735L111.446 57.1753M94.1076 55.172L109.341 55.172C107.637 29.1295 87.2926 16.8094 68.9521 16.3086C50.0103 15.8077 28.3626 27.7272 25.6566 55.172L40.6898 55.2722C42.6942 38.645 56.6249 30.4316 69.5534 30.8323C81.2793 31.0326 93.2056 38.8453 94.1076 55.172"/>
	<path fill="#55C979" d="M30.4671 56.1845L30.4671 54.983C34.9771 8.622 102.626 9.5231 104.931 56.1845L93.7066 56.1845C92.1031 22.9408 45.1996 23.7419 42.1931 56.1845L30.4671 56.1845"/>
	<path d="M105.934 57.1753L92.7045 57.1753L92.7045 56.1738C91.9026 40.1483 80.3773 32.7365 69.2527 32.5363C57.7272 32.3358 44.6986 39.6475 43.1953 56.2738L29.465 57.1753L29.465 54.9718C31.8703 30.1324 51.6138 19.3152 68.952 19.7052C85.8895 20.1165 104.731 31.6348 105.934 56.0736L105.934 57.1753M94.6087 55.1721L103.829 55.1721C102.225 32.6364 85.1879 22.1197 68.8519 21.719C52.4156 21.3184 33.7745 31.6348 31.4694 55.0719L41.291 55.1721C43.2954 37.8447 57.1259 30.3328 69.353 30.5331C81.0788 30.7334 93.3058 38.4403 94.6087 55.1721"/>
	<path fill="#4DCDFF" d="M36.5306 56.1739C40.2388 16.2213 97.2646 16.722 99.4694 56.1739L93.7568 56.1739C92.1533 23.1304 45.2498 24.2318 42.2432 56.1739L36.5306 56.1739"/>
	<path d="M100.522 57.1752L92.8047 57.1752L92.8047 56.1736C92.0029 40.3496 80.4775 33.0384 69.4531 32.738C57.9277 32.4375 44.7988 39.7486 43.2955 56.1736L35.4782 57.075L35.4782 55.9733C37.5829 34.5407 54.3198 25.0262 69.0524 25.3198C83.3839 25.6271 99.319 35.3419 100.522 56.0735L100.522 57.1752M94.709 55.1721L98.4171 55.1721C96.8136 36.3435 82.6824 27.6302 69.0524 27.4299C55.4222 27.2296 39.9882 35.7425 37.6831 55.1721L41.3913 55.1721C43.3957 38.8473 56.9255 30.5346 69.5535 30.8351C81.179 31.0354 93.4061 38.647 94.709 55.1721"/>
	<path fill="#DEFDFF" d="M50.7119 64.0842C50.7119 59.5783 47.2041 55.8734 43.1953 55.3727C43.1953 55.3727 43.1953 55.1725 43.1953 54.8721C43.1953 47.7627 37.4827 42.0552 30.7679 42.0552C25.4561 42.0552 21.0464 45.0592 19.5431 49.5651C18.3404 48.8642 17.238 48.3635 15.8349 48.3635C12.3272 48.3635 9.42077 51.0671 9.12011 54.5717C5.41193 55.9735 2.9064 59.378 2.9064 63.5835C2.9064 68.5901 6.81502 72.7956 11.9263 72.9959L42.6942 72.9959C47.2041 72.5954 50.7119 68.5901 50.7119 64.0842"/>
	<path fill="#2D1B0A" d="M11.9262 73.9973C6.31383 73.7971 1.9041 69.191 1.9041 63.5836C1.9041 59.278 4.30941 55.5731 8.21803 53.8709C8.81935 50.166 12.0264 47.3623 15.8348 47.3623C17.0375 47.3623 18.1399 47.6627 19.0419 48.1634C21.0463 43.7576 25.5563 41.054 30.7678 41.054C38.0839 41.054 43.997 47.0619 44.1974 54.5718C48.5069 55.5731 51.714 59.5784 51.714 64.0843C51.714 69.191 47.8054 73.5968 42.8945 73.9973L11.9262 73.9973M15.8348 49.3649C12.9284 49.3649 10.4229 51.668 10.1222 54.6719C6.01316 56.6746 3.90852 59.8788 3.90852 63.4835C3.90852 67.9894 7.41626 71.6943 11.9262 71.8946L42.6941 71.8946C46.5025 71.5942 49.6093 68.0896 49.6093 63.9842C49.6093 60.079 46.7029 56.6746 42.8945 56.274L41.9925 54.7721C41.9925 48.2635 36.8813 42.9565 30.5673 42.9565C25.7567 42.9565 21.7479 45.6601 20.2446 49.8656L19.8437 51.0672L18.7412 50.4664C17.739 49.6653 16.837 49.3649 15.8348 49.3649"/>
	<path fill="#DEFDFF" d="M84.9877 64.1845C84.9877 59.6786 88.4954 55.8736 92.6045 55.373C92.6045 55.373 92.6045 55.1727 92.6045 54.8723C92.6045 47.6628 98.4173 41.9553 105.132 41.9553C110.143 41.9553 114.653 44.9593 116.457 49.5653C117.359 48.8644 118.762 48.3637 120.165 48.3637C123.673 48.3637 126.68 51.0673 126.98 54.672C130.688 56.0739 133.294 59.4784 133.294 63.784C133.294 68.7906 129.085 73.0963 124.174 73.2965L93.2058 73.2965C88.6959 72.6957 84.9877 68.6905 84.9877 64.1845"/>
	<path fill="#2D1B0A" d="M93.1056 74.1977C87.9943 73.4968 83.9855 68.9908 83.9855 64.0844C83.9855 59.4783 87.2928 55.3729 91.6023 54.4717C91.8027 46.9618 97.816 40.8538 105.132 40.8538C110.143 40.8538 114.653 43.6575 116.958 48.0633C117.96 47.5626 119.063 47.3624 120.165 47.3624C123.974 47.3624 127.281 50.1661 127.882 53.9711C131.791 55.6733 134.296 59.4783 134.296 63.784C134.296 69.3913 129.786 73.9974 124.274 74.2978L93.1056 74.1977M93.1056 72.195L123.974 72.195C128.383 71.9948 132.092 68.1898 132.092 63.6838C132.092 59.979 129.887 56.7747 126.479 55.5732C125.577 51.7682 122.971 49.365 119.965 49.365C118.862 49.365 117.66 49.7655 116.858 50.2662L115.756 51.0672L115.254 49.8657C113.551 45.56 109.442 42.8564 104.831 42.8564C98.5176 42.8564 93.3061 48.2635 93.3061 54.7721L93.3061 56.174C88.5957 56.6746 85.6893 60.1792 85.6893 64.0844C85.9899 68.0896 89.197 71.6944 93.1056 72.195"/>
</svg>
