<?xml version="1.0" encoding="utf-8" ?>
<svg xmlns="http://www.w3.org/2000/svg" xmlns:xlink="http://www.w3.org/1999/xlink" width="86" height="98">
	<path fill="white" d="M9.12736 98C6.18632 98 3.75236 95.5778 3.75236 92.6509L3.75236 16.6529C1.41981 14.9372 0 12.2122 0 9.28527C0 4.138 4.15802 0 9.33019 0C14.5024 0 18.6604 4.138 18.6604 9.28527C18.6604 9.58805 18.6604 9.78991 18.6604 10.0927L27.9906 13.7261L32.1486 15.24L34.7854 16.3502L79.7123 33.7096C83.566 35.2235 86 38.8568 86 42.8939C86 46.931 83.4646 50.6653 79.6108 52.0783L16.9363 76.4016C16.4292 76.6035 15.8208 76.8054 15.3137 76.8054L15.3137 92.6509C15.3137 95.5778 12.8797 98 9.93868 98"/>
	<path fill="#FFD071" d="M9.63443 94.9722C7.50471 94.9722 6.49056 93.9629 6.49056 92.6509L6.49056 13.1205C6.49056 11.8085 7.50471 10.7992 8.82311 10.7992C10.9528 10.7992 11.967 11.8085 11.967 13.1205L11.967 92.6509C11.967 93.9629 10.9528 94.9722 9.63443 94.9722"/>
	<path fill="#2D1B0A" d="M9.63443 95.9815C6.99764 95.9815 5.47641 94.4676 5.47641 92.6509L5.47641 13.1205C5.47641 11.3038 6.99764 9.7899 8.82311 9.7899C11.4599 9.7899 12.9811 11.3038 12.9811 13.1205L12.9811 92.6509C12.9811 94.4676 11.4599 95.9815 9.63443 95.9815M8.82311 11.8084C8.1132 11.8084 7.50471 12.414 7.50471 13.1205L7.50471 92.6509C7.50471 93.3574 8.1132 93.9629 8.82311 93.9629C10.3443 93.9629 10.9528 93.3574 10.9528 92.6509L10.9528 13.1205C10.9528 12.414 10.3443 11.8084 9.63443 11.8084"/>
	<path fill="#97EBFF" d="M12.2712 14.2089L12.2712 71.4344C12.2712 73.1502 13.9953 74.2604 15.5165 73.5538L78.191 49.2305C84.0731 47.0102 84.0731 38.7341 78.191 36.4128L15.5165 12.0894C13.9953 11.4839 12.2712 12.594 12.2712 14.2089"/>
	<path fill="#2D1B0A" d="M14.5023 74.7868C13.8938 74.7868 13.2853 74.585 12.6768 74.2824C11.7641 73.6771 11.1556 72.6682 11.1556 71.4575L11.1556 14.2542C11.1556 13.1445 11.7641 12.0347 12.6768 11.4294C13.5896 10.9046 14.8065 10.7231 15.8207 11.2276L78.4952 35.4406C81.6391 36.6513 83.566 39.4761 83.566 42.8457C83.566 46.1347 81.6391 48.9596 78.4952 50.1702L15.8207 74.4842C15.415 74.6859 15.0094 74.7868 14.5023 74.7868M14.5023 12.9427C14.2995 12.9427 13.9952 13.0436 13.7924 13.1445C13.3867 13.3462 13.1839 13.7498 13.1839 14.2542L13.1839 71.4575C13.1839 71.8611 13.3867 72.2646 13.7924 72.5673C14.198 72.7691 14.6037 72.87 15.0094 72.6682L77.7853 48.3543C80.5235 47.2445 81.5377 44.8232 81.5377 42.8457C81.5377 40.9894 80.5235 38.5681 77.7853 37.4584L15.1108 13.1445C14.908 13.0436 14.7051 12.9427 14.5023 12.9427"/>
	<path fill="#FFD071" d="M2.7382 9.18435C2.7382 12.6159 5.57782 15.4418 9.02594 15.4418C12.4741 15.4418 15.3137 12.6159 15.3137 9.18435C15.3137 5.75283 12.4741 2.92688 9.02594 2.92688C5.57782 2.92688 2.7382 5.75283 2.7382 9.18435"/>
	<path fill="#2D1B0A" d="M9.02594 16.4511C4.96933 16.4511 1.72405 13.2214 1.72405 9.18435C1.72405 5.14727 4.96933 1.91761 9.02594 1.91761C13.0826 1.91761 16.3279 5.14727 16.3279 9.18435C16.3279 13.2214 13.0826 16.4511 9.02594 16.4511M9.02594 4.03707C6.0849 4.03707 3.75235 6.35839 3.75235 9.28527C3.75235 12.2121 6.0849 14.5335 9.02594 14.5335C11.9669 14.5335 14.2995 12.2121 14.2995 9.28527C14.2995 6.35839 11.9669 4.03707 9.02594 4.03707"/>
	<path fill="#07DBFF" d="M46.4481 24.4243L46.4481 61.0608L30.6273 67.621L30.6273 17.965"/>
	<path fill="#2D1B0A" d="M29.6131 69.1349L29.6131 16.4511L47.4622 23.7178L47.4622 61.7673L29.6131 69.1349M31.6414 19.4789L31.6414 66.1071L45.4339 60.3543L45.4339 25.0299L31.6414 19.4789"/>
	<path fill="#07DBFF" d="M79.3065 37.0403L79.3065 48.6469L63.6886 54.7025L63.6886 31.0856"/>
	<path fill="#2D1B0A" d="M62.6745 56.2164L62.6745 29.5717L80.2193 36.3338L80.2193 49.3534L62.6745 56.2164M64.8042 32.4986L64.7028 53.1886L78.191 47.9404L78.191 37.7468L64.8042 32.4986"/>
</svg>
