<?xml version="1.0" encoding="utf-8" ?>
<svg xmlns="http://www.w3.org/2000/svg" xmlns:xlink="http://www.w3.org/1999/xlink" width="106" height="96">
	<path fill="white" d="M21.9414 73.2392C20.2382 73.2392 18.9357 74.5543 18.9357 76.274L18.9357 83.6586C18.9357 85.3783 20.2382 86.6934 21.9414 86.6934C23.6446 86.6934 24.9471 85.3783 24.9471 83.6586L24.9471 76.274C24.9471 74.6554 23.5444 73.2392 21.9414 73.2392"/>
	<path fill="white" d="M76.4442 72.2276C74.741 72.2276 73.4385 73.5427 73.4385 75.2624L73.4385 82.647C73.4385 84.3667 74.741 85.6818 76.4442 85.6818C78.1474 85.6818 79.4499 84.3667 79.4499 82.647L79.4499 75.2624C79.4499 73.6438 78.1474 72.2276 76.4442 72.2276"/>
	<path fill="white" d="M90.4707 26.6048C88.9679 11.5321 76.1437 0 60.7146 0C50.4953 0 40.9773 4.9568 35.6673 13.0495C33.8639 12.3414 31.8601 12.0379 29.9565 12.0379C22.1418 12.0379 15.2287 17.3994 13.1248 24.8851C5.10964 28.628 0 36.5184 0 45.3193C0 57.3572 9.71834 67.2708 22.242 67.7766L48.9924 67.8778C48.5917 68.3836 48.0907 68.9905 47.4896 69.7998L40.5766 78.4995C39.9754 79.6122 39.775 80.4215 40.1758 82.1412L40.5766 83.7597L44.6843 85.2771L42.9811 88.2107L41.4783 96L49.5936 93.471L56.8072 83.5574C57.9093 82.1412 57.7089 80.118 56.3062 78.7018L53 77.1844L54.4026 73.4415L55.4045 67.8778L84.9603 67.9789C96.5822 67.372 106 57.9642 106 46.8367C106 37.4289 99.6881 29.235 90.4707 26.6048"/>
	<path fill="#FFD071" d="M45.7864 89.8294L49.0927 84.1645L43.0813 82.0401C43.0813 82.0401 42.9531 81.1297 42.9531 80.8261L49.794 72.2276C49.794 72.2276 51.898 69.3952 52.0983 69.5872L51.4972 73.1381L49.293 79.5111L54.2023 81.5342C54.2023 81.5342 54.7033 82.0401 54.5029 82.2423L47.7902 91.4479L45.3857 92.156L45.7864 89.8294"/>
	<path fill="#2D1B0A" d="M44.0832 93.5722L44.8847 89.4246L47.5898 84.6702L42.1796 82.7481C41.7789 81.0284 41.9138 80.6238 41.9138 80.4215L48.8923 71.5195C50.9962 68.687 51.4972 68.4847 51.7978 68.4847L53 69.1928L52.1985 73.4415L50.2949 78.9041L54.5029 80.6238C55.3044 81.4331 55.4046 82.2423 55.0038 82.8493L48.0908 92.2571L44.0832 93.5722M46.7883 90.2339L53.3006 82.2423L48.0908 80.118L50.4953 73.0369L43.983 81.2307C43.983 81.2307 43.983 81.2307 43.983 81.3319L50.5955 83.6586L46.7883 90.2339M53.7013 81.6354C53.7013 81.6354 53.6012 81.6354 53.7013 81.6354"/>
	<path fill="#2D1B0A" d="M21.9414 85.176C21.3403 85.176 20.9395 84.7714 20.9395 84.1644L20.9395 76.7798C20.9395 76.1728 21.3403 75.7682 21.9414 75.7682C22.5425 75.7682 22.9433 76.1728 22.9433 76.7798L22.9433 84.1644C22.9433 84.7714 22.4424 85.176 21.9414 85.176"/>
	<path fill="#2D1B0A" d="M76.4442 84.2655C75.8431 84.2655 75.4423 83.8609 75.4423 83.2539L75.4423 75.8693C75.4423 75.2623 75.8431 74.8577 76.4442 74.8577C77.0453 74.8577 77.4461 75.2623 77.4461 75.8693L77.4461 83.2539C77.4461 83.7597 77.0453 84.2655 76.4442 84.2655"/>
	<path fill="#9FF1FF" d="M22.1418 65.2476C11.3214 64.7418 2.9055 56.1433 2.9055 45.8251C2.9055 37.7323 7.91495 30.4489 15.6295 27.5153C16.8318 20.5353 22.9433 15.4773 29.8564 15.4773C32.1607 15.4773 34.6654 16.1854 36.7694 17.2982C41.2779 8.69967 50.4953 3.4394 60.7146 3.4394C75.4424 3.4394 87.3649 15.0727 87.6654 29.4373C96.6824 31.0558 103.095 38.5416 103.095 47.3425C103.095 56.8514 95.0794 64.9441 84.9603 65.4499L22.1418 65.2476"/>
	<path fill="#2D1B0A" d="M84.9102 66.4614L22.1919 66.2591C10.8705 65.7533 1.9537 56.7501 1.9537 45.825C1.9537 37.4288 6.96315 30.0441 14.7779 26.807C16.2807 19.7259 22.5926 14.4656 29.9064 14.4656C32.1106 14.4656 34.4149 14.9714 36.4187 15.983C41.2278 7.58681 50.4452 2.4277 60.7647 2.4277C75.5926 2.4277 87.9159 14.061 88.6172 28.6279C97.7344 30.6511 104.047 38.238 104.047 47.3423C104.047 57.3571 95.3299 65.9556 84.9102 66.4614M22.1919 64.2359L84.81 64.4382C94.2278 63.9324 101.942 56.3455 101.942 47.3423C101.942 38.9461 95.931 32.0673 87.4149 30.4488C86.3129 15.7807 74.6909 4.55204 60.6645 4.55204C50.8459 4.55204 42.0293 9.71116 37.621 17.905L36.2184 18.3097C34.3148 17.1969 32.0104 16.59 29.8063 16.59C23.294 16.59 17.6834 21.3445 16.5813 27.7175C8.66637 31.3592 3.95748 38.1369 3.95748 45.825C3.95748 55.7386 11.9726 63.8313 22.1919 64.2359"/>
	<path fill="#2D1B0A" d="M35.6673 27.0094L33.6635 26.8071C34.0642 23.1654 34.6654 18.5121 37.1701 14.9715L38.7731 16.1855C36.569 19.2202 36.068 23.3678 35.6673 27.0094"/>
	<path fill="#2D1B0A" d="M68.7297 37.2266L66.8261 36.7208C68.1286 31.764 74.3403 28.8303 80.0511 28.1222C84.6597 27.5153 88.2666 28.4257 92.8753 30.1454L92.174 32.0674C87.8658 30.4489 84.5596 29.6396 80.3516 30.1454C75.4424 30.7524 69.8318 33.1802 68.7297 37.2266"/>
</svg>
