<?xml version="1.0" encoding="utf-8" ?>
<svg xmlns="http://www.w3.org/2000/svg" xmlns:xlink="http://www.w3.org/1999/xlink" width="106" height="82">
	<path fill="white" d="M90.3853 26.6247C88.8839 11.5407 76.0718 0 60.6572 0C50.4476 0 40.9386 4.96049 35.6336 13.0593C33.8319 12.3506 31.83 12.0469 29.9282 12.0469C22.1209 12.0469 15.2144 17.4123 13.1124 24.9037C5.10482 28.6494 0 36.5457 0 45.3531C0 57.4 9.70916 67.321 22.221 67.8272L35.2332 67.8272C35.2332 67.9284 35.2332 68.1309 35.2332 68.2321L35.2332 75.6222C35.2332 77.3432 36.5345 78.6593 38.2361 78.6593C39.9377 78.6593 41.2389 77.3432 41.2389 75.6222L41.2389 68.2321C41.2389 68.1309 41.2389 67.9284 41.2389 67.8272L45.3428 67.8272C43.9415 69.3457 43.1407 71.3704 43.1407 73.5975C43.1407 78.1531 46.9443 82 51.4485 82C55.9528 82 59.6563 78.3556 59.7564 73.5975C59.7564 71.3704 58.9556 69.3457 57.6544 67.9284L62.559 67.9284C62.559 68.0296 62.559 68.1309 62.559 68.3333L62.559 75.7235C62.559 77.4444 63.8602 78.7605 65.5619 78.7605C67.2635 78.7605 68.5647 77.4444 68.5647 75.7235L68.5647 68.3333C68.5647 68.2321 68.5647 68.1309 68.5647 68.0296L84.9802 68.1309C96.5911 67.5235 106 58.1086 106 46.9728C106 37.4568 99.594 29.358 90.3853 26.6247"/>
	<path fill="#E3FCFF" d="M51.6487 79.0643C48.8461 79.0643 46.3437 76.6346 46.3437 73.6988C46.3437 70.763 48.746 68.3334 51.6487 68.3334C54.7516 68.3334 56.9537 70.5605 56.9537 73.6988C56.9537 76.8371 54.5514 79.0643 51.6487 79.0643"/>
	<path fill="#2D1B0A" d="M51.6487 80.0766C48.2455 80.0766 45.3428 77.1407 45.3428 73.6988C45.3428 70.1556 48.1454 67.321 51.6487 67.321C55.3521 67.321 57.9547 70.0543 57.9547 73.6988C57.9547 77.3432 55.152 80.0766 51.6487 80.0766M51.6487 69.3457C49.2464 69.3457 47.3446 71.2691 47.3446 73.6988C47.3446 76.1284 49.3465 78.0519 51.6487 78.0519C54.051 78.0519 55.9528 76.1284 55.9528 73.5975C56.0528 71.0667 54.2512 69.3457 51.6487 69.3457"/>
	<path fill="#9FF1FF" d="M22.4712 64.7901C11.661 64.2839 3.2531 55.6789 3.2531 45.3531C3.2531 37.2542 8.25782 29.9654 15.9651 27.0295C17.1662 20.0443 23.272 14.9826 30.1785 14.9826C32.4807 14.9826 34.983 15.6913 37.085 16.8048C41.5893 8.19995 50.798 2.93575 61.0076 2.93575C75.7215 2.93575 87.6327 14.5778 87.933 28.953C96.9415 30.5728 103.347 38.0641 103.347 46.8715C103.347 56.3876 95.34 64.4864 85.2304 64.9926L22.4712 64.7901"/>
	<path fill="#2D1B0A" d="M85.1804 66.005L22.5213 65.8025C11.2106 65.2963 2.3022 56.2865 2.3022 45.3531C2.3022 36.9507 7.30692 29.5605 15.1143 26.321C16.6157 19.2346 22.9217 13.9704 30.2285 13.9704C32.4306 13.9704 34.7328 14.4766 36.7347 15.4889C41.5392 7.08646 50.7479 1.9235 61.0576 1.9235C75.8716 1.9235 88.1832 13.5655 88.8839 28.1433C97.9925 30.1679 104.298 37.7605 104.298 46.8716C104.298 56.9951 95.5902 65.4988 85.1804 66.005M22.5213 63.7778L85.0803 63.9803C94.4892 63.4741 102.196 55.8815 102.196 46.8716C102.196 38.4692 96.1908 31.5852 87.6827 29.9655C86.5817 15.2865 74.9708 4.04943 60.9575 4.04943C51.1483 4.04943 42.34 9.21239 37.9358 17.4124L36.5345 17.8173C34.6327 16.7037 32.3305 16.0963 30.1285 16.0963C23.6223 16.0963 18.017 20.8544 16.916 27.2321C9.00853 30.8766 4.30409 37.6593 4.30409 45.3531C4.30409 55.2741 12.3116 63.3729 22.5213 63.7778"/>
	<path fill="#2D1B0A" d="M35.9339 26.5234L33.932 26.3209C34.3324 22.6765 34.9329 18.0198 37.4353 14.4766L39.0368 15.6914C36.8347 18.7284 36.3343 22.879 35.9339 26.5234"/>
	<path fill="#2D1B0A" d="M68.965 36.7481L67.0632 36.242C68.3644 31.2815 74.5703 28.3457 80.2757 27.637C84.88 27.0296 88.4834 27.9407 93.0878 29.6617L92.3871 31.5852C88.083 29.9654 84.7799 29.1555 80.5759 29.6617C75.6713 30.2691 70.066 32.6987 68.965 36.7481"/>
	<path fill="#2D1B0A" d="M38.4363 76.7358C37.8357 76.7358 37.4354 76.3309 37.4354 75.7235L37.4354 68.3333C37.4354 67.7259 37.8357 67.321 38.4363 67.321C39.0369 67.321 39.4372 67.7259 39.4372 68.3333L39.4372 75.7235C39.4372 76.3309 39.0369 76.7358 38.4363 76.7358"/>
	<path fill="#2D1B0A" d="M65.762 76.7358C65.1614 76.7358 64.7611 76.3309 64.7611 75.7235L64.7611 68.3333C64.7611 67.7259 65.1614 67.321 65.762 67.321C66.3626 67.321 66.7629 67.7259 66.7629 68.3333L66.7629 75.7235C66.7629 76.3309 66.3626 76.7358 65.762 76.7358"/>
</svg>
