<?xml version="1.0" encoding="utf-8" ?>
<svg xmlns="http://www.w3.org/2000/svg" xmlns:xlink="http://www.w3.org/1999/xlink" width="130" height="82">
	<path fill="white" d="M22.0591 81.8C9.68207 81.2 0 71.5 0 59.6C0 50.8 5.09057 43.1 13.0758 39.4C15.0721 32 22.0591 26.7 29.8447 26.7C31.7412 26.7 33.6377 27.1 35.5342 27.7C40.9242 19.7 50.207 14.8 60.5878 14.8C62.9833 14.8 65.2791 15.1 67.5748 15.6C72.7652 8.3 80.2513 2.8 88.9353 0L90.7319 0C92.9279 0 94.8243 1.2 95.9223 3.2C97.0203 5.2 96.5212 7.7 94.8243 9.6C92.828 11.6 86.7393 18.4 85.7412 28.3C88.2366 32.2 89.7338 36.5 90.2329 41C99.1164 43.6 105.405 51.4 105.704 60.5C108.399 61.4 111.893 62.3 115.985 62.3C118.68 62.3 120.776 62.1 122.773 61.5L124.27 61.4C126.566 61.4 128.562 62.8 129.56 65.1C130.458 67.2 130 69.7 128.262 71.4C120.177 77.8 110.795 81.1 100.913 81.1C98.1182 81.1 95.4232 80.8 92.6284 80.2C90.133 81.2 87.6377 81.8 84.9427 82L22.0591 81.8"/>
	<path fill="#FFC257" d="M100.598 78.2C79.838 78 62.7708 60.8 62.7708 39.7C62.7708 22.7 73.4503 8 89.6192 3C91.815 3 92.6135 3.7 93.1125 4.6C93.6115 5.5 93.3121 6.6 92.4138 7.6C89.719 10.3 81.0357 20.3 82.6326 34.5C83.8303 51.9 97.2046 59.7 97.9033 60.2C98.1029 60.4 105.389 65.4 115.869 65.4C118.364 65.4 120.859 65.2 123.354 64.5C125.251 64.5 126.049 65.2 126.548 66.3C127.047 67.5 126.548 68.6 125.85 69.3C118.663 75 109.88 78.2 100.598 78.2"/>
	<path fill="#2D1B0A" d="M100.607 79.2C79.2477 79 61.7813 61.3 61.7813 39.7C61.7813 22.3 72.86 7.2 89.3284 2L90.6259 2C92.123 2 93.3207 2.8 94.0194 4.2C94.7605 5.4 94.4186 7 93.2209 8.3C90.5261 11 82.1422 20.6 83.7391 34.4C84.7372 48.9 94.219 56.6 98.3111 59.2C98.4109 59.3 98.5107 59.3 98.5107 59.4C99.5088 60.1 106.396 64.4 115.777 64.4C118.572 64.4 120.968 64.1 123.063 63.6C125.559 63.6 126.856 64.5 127.455 66.1C128.154 67.8 127.455 69.3 126.557 70.2C118.971 76.1 109.989 79.2 100.607 79.2M89.7276 4C74.1575 8.9 63.7775 23.2 63.7775 39.7C63.7775 60.2 80.2458 77 100.607 77.2C109.49 77.2 117.973 74.2 125.16 68.6C125.559 68.2 125.858 67.5 125.559 66.7C125.259 65.9 124.66 65.5 123.962 65.5C121.167 66.1 118.772 66.4 115.777 66.4C105.198 66.4 97.8121 61.4 97.5126 61.2C92.8217 58.1 82.6412 49.9 81.6431 34.6C79.9464 20 88.9291 9.8 91.624 7C92.2228 6.4 92.4224 5.7 92.123 5.2C91.8236 4.7 91.3245 4.1 90.5261 4.1"/>
	<path fill="#9FF1FF" d="M22.1574 78.8C11.3781 78.3 2.9942 69.8 2.9942 59.6C2.9942 51.6 7.98461 44.4 15.6698 41.5C16.8675 34.6 22.9558 29.6 29.8426 29.6C32.1382 29.6 34.6334 30.3 36.7294 31.4C41.2207 22.9 50.4031 17.7 60.5835 17.7C75.2553 17.7 87.1325 29.2 87.4319 43.4C96.4147 45 102.802 52.4 102.802 61.1C102.802 70.5 94.8177 78.5 84.7371 79L22.1574 78.8"/>
	<path fill="#2D1B0A" d="M84.5375 80L22.0576 79.8C10.7792 79.3 1.8963 70.4 1.8963 59.6C1.8963 51.3 6.88671 44 14.6718 40.8C16.1689 33.8 22.4568 28.6 29.7428 28.6C31.9386 28.6 34.2342 29.1 36.2303 30.1C41.0211 21.8 50.2035 16.7 60.4837 16.7C75.2553 16.7 87.5317 28.2 88.2304 42.6C97.3129 44.6 103.601 52.1 103.601 61.1C103.601 71.1 95.0174 79.5 84.5375 80M22.1574 77.8L84.5375 78C93.9195 77.5 101.605 70 101.605 61.1C101.605 52.8 95.6162 46 87.1325 44.4C86.0346 29.9 74.4569 18.8 60.4837 18.8C50.7025 18.8 41.9194 23.9 37.5278 32L36.1305 32.4C34.2342 31.3 31.9386 30.7 29.7428 30.7C23.2553 30.7 17.666 35.4 16.5681 41.7C8.68326 45.3 3.99227 52 3.99227 59.6C3.99227 69.4 11.9769 77.4 22.1574 77.8"/>
	<path fill="#2D1B0A" d="M35.5317 41L33.5356 40.8C33.9348 37.2 34.5337 32.6 37.0289 29.1L38.6258 30.3C36.43 33.3 35.931 37.4 35.5317 41"/>
	<path fill="#2D1B0A" d="M68.4683 51.1L66.572 50.6C67.8695 45.7 74.0576 42.8 79.7467 42.1C84.3379 41.5 87.931 42.4 92.522 44.1L91.8235 46C87.4319 44.4 84.2381 43.6 80.0461 44.1C75.1555 44.7 69.4664 47.1 68.4683 51.1"/>
</svg>
