<?xml version="1.0" encoding="utf-8" ?>
<svg xmlns="http://www.w3.org/2000/svg" xmlns:xlink="http://www.w3.org/1999/xlink" width="64" height="90">
	<path fill="white" d="M33.4846 49.8891L33.4846 19.5565L39.0489 19.5565C40.7379 19.5565 42.0297 18.2594 42.0297 16.5632C42.0297 14.867 40.7379 13.5698 39.0489 13.5698L33.4846 13.5698L33.4846 11.7738C33.4846 5.28825 28.2185 0 21.76 0C15.3016 0 10.0354 5.28825 10.0354 11.7738L10.0354 49.7894C3.77567 53.7805 -5e-05 60.765 -5e-05 68.1486C-5e-05 80.2217 9.73732 90 21.76 90C33.7826 90 43.5201 80.2217 43.5201 68.1486C43.5201 60.765 39.645 53.8803 33.4846 49.8891"/>
	<path fill="white" d="M62.2001 40.3103C63.5911 39.5121 64.2867 37.9156 63.8893 36.3191C63.4918 34.8225 62.1007 33.7249 60.5109 33.7249C61.3059 32.4278 61.107 30.6318 60.0142 29.4345C59.3186 28.736 58.5238 28.4367 57.5301 28.4367C56.934 28.4367 56.3378 28.6362 55.7417 28.9356C55.7417 28.3369 55.6423 27.7383 55.2448 27.1396C54.748 26.3414 54.0525 25.7427 53.1582 25.4433C52.8602 25.4433 52.562 25.4433 52.264 25.4433C50.9723 25.4433 49.8793 26.1418 49.1838 27.2394C48.5877 26.1418 47.3952 25.4433 46.1035 25.4433C45.8055 25.4433 45.5075 25.4433 45.2094 25.4433C43.6196 25.9422 42.626 27.4389 42.626 28.9356C42.1292 28.6362 41.533 28.4367 40.8375 28.4367C39.9432 28.4367 39.049 28.8358 38.3534 29.4345C37.6579 30.1329 37.3598 30.9312 37.3598 31.9289C37.3598 32.5276 37.5586 33.1263 37.8566 33.7249C36.2669 33.7249 34.8758 34.8225 34.4784 36.3191C34.0809 37.9156 34.7764 39.5121 36.1675 40.3103C34.7764 41.1086 34.0809 42.7049 34.4784 44.3015C34.8758 45.7981 36.2669 46.8956 37.8566 46.8956C37.0617 48.2925 37.2605 49.9888 38.3534 51.1861C39.049 51.8846 39.8438 52.184 40.8375 52.184C41.4336 52.184 42.0298 51.9844 42.626 51.6851C42.626 53.2814 43.6196 54.6784 45.2094 55.0774C45.5075 55.1772 45.8055 55.1772 46.1035 55.1772C47.3952 55.1772 48.5877 54.4789 49.1838 53.3812C49.78 54.4789 50.9723 55.1772 52.264 55.1772C52.562 55.1772 52.9594 55.1772 53.1582 55.0774C54.0525 54.878 54.8474 54.2793 55.2448 53.481C55.5429 52.8823 55.7417 52.2838 55.7417 51.6851C56.2384 51.9844 56.8345 52.184 57.5301 52.184C58.4244 52.184 59.3186 51.7849 60.0142 51.1861C61.2065 49.9888 61.3059 48.2925 60.5109 46.8956C62.1007 46.8956 63.4918 45.7981 63.8893 44.3015C64.088 43.4035 64.0002 42.4056 63.4918 41.6075C63.1936 41.0088 62.6968 40.6096 62.2001 40.3103"/>
	<path fill="#3F1E01" d="M60.4115 44.8005C60.3121 44.8005 60.1134 44.8005 60.014 44.7007L57.3313 44.0023C56.5364 43.8027 56.0396 42.9047 56.1945 42.1065C56.437 41.3082 57.2319 40.8094 58.1262 40.9649L60.8089 41.7074C61.6038 41.9069 62.1006 42.7051 61.9019 43.6031C61.7032 44.3016 61.107 44.8005 60.4115 44.8005"/>
	<path fill="#3F1E01" d="M57.6293 39.4124C56.9338 39.4124 56.3376 39.0133 56.0951 38.3148C55.9402 37.5166 56.437 36.7184 57.2319 36.4191L59.9146 35.6766C60.7095 35.521 61.5044 36.0199 61.8025 36.8182C62.0012 37.6164 61.5044 38.4146 60.7095 38.714L58.0268 39.4124C57.9274 39.3126 57.8281 39.4124 57.6293 39.4124"/>
	<path fill="#FFE0AE" d="M30.4044 51.5354L30.4044 11.7239C30.4044 6.93458 26.5293 2.94345 21.6606 2.94345C16.8913 2.94345 12.9169 6.8348 12.9169 11.7239L12.9169 51.5354C6.9552 54.7284 2.8814 61.0145 2.8814 68.1984C2.8814 78.5753 11.2277 87.0565 21.6606 87.0565C31.9942 87.0565 40.4398 78.5753 40.4398 68.1984C40.4398 61.0145 36.366 54.7284 30.4044 51.5354"/>
	<path fill="#2D1B0A" d="M21.7598 88.0543C10.8302 88.0543 1.98705 79.1741 1.98705 68.1985C1.98705 61.0144 5.86213 54.4291 12.0225 50.9368L12.0225 11.724C12.0225 6.33594 16.3944 1.9457 21.7598 1.9457C27.1253 1.9457 31.4972 6.33594 31.4972 11.724L31.4972 50.9368C37.6576 54.4291 41.5327 61.0144 41.5327 68.1985C41.4333 79.1741 32.5903 88.0543 21.7598 88.0543M21.7598 4.04104C17.4874 4.04104 14.0098 7.53328 14.0098 11.8237L14.0098 52.2339C7.65062 55.6264 3.97427 61.7129 3.97427 68.2982C3.97427 78.1763 11.9231 86.1586 21.7598 86.1586C31.5966 86.1586 39.5454 78.1763 39.5454 68.2982C39.5454 61.6131 35.8691 55.6264 30.0068 52.5333L29.51 11.8237C29.4106 7.53328 25.933 4.04104 21.7598 4.04104"/>
	<path fill="#FFC257" d="M24.244 57.6222L24.244 12.3228C24.244 10.9259 23.1511 9.82835 21.76 9.82835C20.369 9.82835 19.276 10.9259 19.276 12.3228L19.276 57.6222C14.4073 58.7197 10.8303 63.11 10.8303 68.2984C10.8303 74.3849 15.699 79.274 21.76 79.274C27.821 79.274 32.6898 74.3849 32.6898 68.2984C32.5904 63.11 29.0135 58.7197 24.244 57.6222"/>
	<path fill="#2D1B0A" d="M21.6606 80.1719C15.1028 80.1719 9.73735 74.7839 9.73735 68.1985C9.73735 62.9103 13.1156 58.3205 18.183 56.724L18.183 12.2229C18.183 10.3271 19.7729 8.7307 21.6606 8.7307C23.5485 8.7307 25.1382 10.3271 25.1382 12.2229L25.1382 56.724C30.1063 58.2207 33.584 62.8105 33.584 68.1985C33.584 74.8837 28.2184 80.1719 21.6606 80.1719M21.6606 10.7263C20.8657 10.7263 20.1702 11.4247 20.1702 12.2229L20.1702 58.3205C14.9041 59.5178 11.7246 63.509 11.7246 68.1985C11.7246 73.6864 16.1958 78.1764 21.6606 78.1764C27.1255 78.1764 31.5967 73.6864 31.5967 68.1985C31.5967 63.509 28.4172 59.5178 23.9459 58.5201L23.1511 12.2229C23.2505 11.4247 22.555 10.7263 21.6606 10.7263"/>
	<path fill="#FFC257" d="M43.8181 40.2606C43.8181 43.3537 46.3021 45.7484 49.2829 45.7484C52.3631 45.7484 54.7478 43.2539 54.7478 40.2606C54.7478 38.265 53.6548 36.469 51.9657 35.4712C50.2765 34.4734 48.1899 34.4734 46.5008 35.4712C44.911 36.469 43.8181 38.265 43.8181 40.2606"/>
	<path fill="#2D1B0A" d="M49.3823 46.7462C45.8053 46.7462 42.9238 43.8526 42.9238 40.2606C42.9238 37.9657 44.2155 35.7705 46.2027 34.5732C48.1899 33.3759 50.6739 33.3759 52.6612 34.5732C54.6484 35.7705 55.9401 37.8659 55.9401 40.2606C55.8407 43.8526 52.9593 46.7462 49.3823 46.7462M49.3823 35.6708C48.5874 35.6708 47.7925 35.8703 47.097 36.2694C45.7059 37.0677 44.8117 38.5643 44.8117 40.1608C44.8117 42.6552 46.7989 44.6508 49.2829 44.6508C51.7669 44.6508 53.7541 42.6552 53.7541 40.1608C53.7541 38.5643 52.8599 37.0677 51.4688 36.2694C50.8727 35.8703 50.0778 35.6708 49.3823 35.6708"/>
	<path fill="#3F1E01" d="M46.6996 33.0766C46.0041 33.0766 45.4079 32.6775 45.2092 31.979L44.4699 29.285C44.3149 28.4868 44.8118 27.6886 45.6066 27.3452C46.4015 27.1897 47.1964 27.6886 47.4945 28.4868L48.19 31.1808C48.3888 31.979 47.8919 32.7773 47.0971 33.0766C46.9977 33.0766 46.8983 33.0766 46.6996 33.0766"/>
	<path fill="#3F1E01" d="M42.7252 35.4712C42.3277 35.4712 41.9303 35.2716 41.6322 35.0721L39.645 33.0765C39.0488 32.4778 39.0488 31.4801 39.645 30.8814C40.2411 30.2827 41.2347 30.2827 41.8309 30.8814L43.8181 32.877C44.4143 33.4756 44.4143 34.4734 43.8181 35.0721C43.52 35.2716 43.1226 35.4712 42.7252 35.4712"/>
	<path fill="#3F1E01" d="M40.4398 39.4624C40.3405 39.4624 40.1417 39.4624 40.0424 39.3626L37.3596 38.6642C36.5647 38.4646 36.0679 37.6664 36.2228 36.7684C36.4654 35.9701 37.2603 35.4713 38.1545 35.6268L40.8373 36.3693C41.6322 36.5688 42.129 37.367 41.9302 38.2651C41.7315 38.9635 41.1354 39.4624 40.4398 39.4624"/>
	<path fill="#3F1E01" d="M37.7571 44.8504C37.0616 44.8504 36.4654 44.4513 36.2228 43.7528C36.0679 42.9546 36.5647 42.1564 37.3596 41.8571L40.0424 41.1146C40.8373 40.959 41.6322 41.4579 41.9302 42.2562C42.129 43.0544 41.6322 43.8526 40.8373 44.152L38.1545 44.8504C37.9558 44.7506 37.8564 44.8504 37.7571 44.8504"/>
	<path fill="#3F1E01" d="M40.7379 50.0388C40.3405 50.0388 39.9431 49.939 39.645 49.6397C39.0488 49.041 39.0488 48.0432 39.645 47.4446L41.6322 45.449C42.2284 44.8503 43.222 44.8503 43.8181 45.449C44.4143 46.0477 44.4143 47.0454 43.8181 47.6441L41.8309 49.6397C41.5328 49.939 41.1354 50.0388 40.7379 50.0388"/>
	<path fill="#3F1E01" d="M46.0041 53.132C45.9047 53.132 45.706 53.132 45.6066 53.0322C44.8118 52.8326 44.3149 51.9346 44.4699 51.1364L45.2092 48.4424C45.4079 47.6442 46.2028 47.1453 47.0971 47.3008C47.8919 47.5444 48.3888 48.3426 48.19 49.2406L47.4945 51.9346C47.2958 52.7329 46.6996 53.132 46.0041 53.132"/>
	<path fill="#3F1E01" d="M52.0651 53.132C51.3696 53.132 50.7734 52.7329 50.5747 52.0344L49.8354 49.3404C49.6805 48.5422 50.1773 47.744 50.9721 47.4006C51.767 47.2451 52.5619 47.744 52.86 48.5422L53.5555 51.2362C53.7543 52.0344 53.2574 52.8327 52.4626 53.132C52.3632 53.132 52.2638 53.132 52.0651 53.132"/>
	<path fill="#3F1E01" d="M57.3313 50.0388C56.9338 50.0388 56.5364 49.8392 56.2383 49.6397L54.2511 47.6441C53.6549 47.0454 53.6549 46.0477 54.2511 45.449C54.8472 44.8503 55.8408 44.8503 56.437 45.449L58.4242 47.4446C59.0204 48.0432 59.0204 49.041 58.4242 49.6397C58.1261 49.939 57.7287 50.0388 57.3313 50.0388"/>
	<path fill="#3F1E01" d="M55.344 35.4712C54.9466 35.4712 54.5492 35.2716 54.2511 35.0721C53.6549 34.4734 53.6549 33.4756 54.2511 32.877L56.2383 30.8814C56.8345 30.2827 57.8281 30.2827 58.4242 30.8814C59.0204 31.4801 59.0204 32.4778 58.4242 33.0765L56.437 35.0721C56.1389 35.2716 55.7415 35.4712 55.344 35.4712"/>
	<path fill="#3F1E01" d="M51.3696 33.0765C51.2702 33.0765 51.0715 33.0765 50.9721 32.9767C50.1773 32.7771 49.6805 31.9789 49.8354 31.0809L50.5747 28.3869C50.7734 27.5887 51.6677 27.0898 52.4626 27.2453C53.2574 27.4889 53.7543 28.3869 53.5555 29.1851L52.86 31.8791C52.6613 32.6774 52.0651 33.0765 51.3696 33.0765"/>
	<path fill="#2D1B0A" d="M38.9494 17.5111L24.4427 17.5111C23.8465 17.5111 23.4491 17.112 23.4491 16.5133C23.4491 15.9146 23.8465 15.5155 24.4427 15.5155L38.9494 15.5155C39.5456 15.5155 39.943 15.9146 39.943 16.5133C39.943 17.112 39.4462 17.5111 38.9494 17.5111"/>
</svg>
