<?xml version="1.0" encoding="utf-8" ?>
<svg xmlns="http://www.w3.org/2000/svg" xmlns:xlink="http://www.w3.org/1999/xlink" width="64" height="92">
	<path fill="white" d="M62.157 43.3658C62.157 43.1631 62.157 43.0618 62.0562 42.8591C62.0562 42.7578 62.157 42.5552 62.157 42.4538C62.9629 41.9473 63.5674 41.238 63.8696 40.2248C64.3733 38.5023 63.3659 36.6785 61.754 35.9692C61.9555 34.2468 60.8474 32.423 59.1348 32.0177C58.8325 31.9164 58.5303 31.9164 58.2281 31.9164C57.5229 31.9164 56.9185 32.119 56.4148 32.423C56.314 32.3217 56.1126 32.3217 56.0118 32.3217C55.9111 32.2204 55.8103 32.119 55.6088 32.0177C55.6088 31.0045 55.2059 30.0926 54.5007 29.4847C53.8963 28.8767 52.9896 28.4715 51.9822 28.4715C51.1763 28.4715 50.4711 28.7754 49.7659 29.1807C49.1615 28.6741 48.3555 28.4715 47.5496 28.4715C46.6429 28.4715 45.7363 28.8767 45.0311 29.4847C44.3259 30.1939 43.9229 31.1058 43.9229 32.0177C43.8222 32.119 43.7215 32.2204 43.52 32.3217C43.4192 32.3217 43.2178 32.423 43.117 32.423C42.6133 32.119 41.9081 31.9164 41.3037 31.9164C41.0015 31.9164 40.6992 31.9164 40.397 32.0177C39.4904 32.2204 38.6844 32.8283 38.1807 33.7402C37.7778 34.4494 37.5763 35.26 37.677 36.0706C36.0652 36.7798 35.1585 38.6037 35.5615 40.326C35.8637 41.238 36.4681 42.0485 37.2741 42.5552C37.2741 42.6565 37.2741 42.8591 37.3748 42.9604C37.3748 43.1631 37.2741 43.2645 37.2741 43.467C36.4681 43.9737 35.8637 44.683 35.5615 45.6962C35.0578 47.4185 36.0652 49.2424 37.677 49.9517C37.4755 51.674 38.5837 53.3966 40.397 53.9032C40.6992 54.0045 41.0015 54.0045 41.2029 54.0045C41.9081 54.0045 42.5126 53.8018 43.0163 53.4978C43.117 53.5993 43.3185 53.5993 43.4192 53.7006C43.52 53.8018 43.6207 53.9032 43.7215 54.0045C43.7215 55.0178 44.1244 55.9296 44.8296 56.5376C45.5348 57.2467 46.4415 57.5508 47.3481 57.5508C48.154 57.5508 48.96 57.2467 49.5644 56.8415C50.1689 57.3482 50.9748 57.5508 51.7807 57.5508C52.6874 57.5508 53.6948 57.1455 54.2992 56.4362C55.0044 55.727 55.4074 54.815 55.4074 53.9032C55.5081 53.8018 55.6088 53.7006 55.8103 53.5993C56.0118 53.5993 56.1126 53.4978 56.2133 53.3966C56.717 53.7006 57.4222 53.9032 58.0266 53.9032C58.3288 53.9032 58.6311 53.9032 58.9333 53.8018C59.84 53.5993 60.6459 52.9912 61.1496 52.0794C61.5525 51.3702 61.754 50.5596 61.6533 49.749C63.2651 49.0397 64.1718 47.216 63.7688 45.3922C63.6681 44.683 62.9629 43.8724 62.157 43.3658"/>
	<path fill="white" d="M34.0503 50.9648L34.0503 19.859L40.6992 19.859C42.4118 19.859 43.7214 18.5419 43.7214 16.8194C43.7214 15.0969 42.4118 13.7797 40.6992 13.7797L34.0503 13.7797L34.0503 11.9559C34.0503 5.37004 28.7111 0 22.1629 0C15.6148 0 10.2755 5.37004 10.2755 11.9559L10.2755 50.8634C3.92883 54.9163 -5e-05 62.0088 -5e-05 69.7093C-5e-05 81.9692 9.97327 92 22.1629 92C34.3525 92 44.3259 81.9692 44.3259 69.7093C44.2251 62.1101 40.3969 55.0176 34.0503 50.9648"/>
	<path fill="#12C2FF" d="M60.1422 45.2907L58.1273 45.7973C57.9258 45.7973 57.8251 45.8987 57.7244 46L56.5156 45.2907L58.9333 44.5816C59.5378 44.3788 59.84 43.771 59.7393 43.2644C59.6385 43.0616 59.5378 42.859 59.3363 42.6563C59.5378 42.555 59.6385 42.3524 59.7393 42.0484C59.9408 41.4405 59.5378 40.8326 58.9333 40.7312L56.5156 40.1234L57.7244 39.4141C57.8251 39.5154 58.0266 39.6167 58.1273 39.6167L60.1422 40.1234C60.243 40.1234 60.3437 40.1234 60.4445 40.1234C60.9482 40.1234 61.3511 39.8194 61.5526 39.3128C61.7541 38.7049 61.3511 38.0969 60.7467 37.9956L58.8326 37.489L59.3363 35.5639C59.5378 34.956 59.1348 34.348 58.5303 34.2467C57.9258 34.0441 57.3214 34.4493 57.2207 35.0573L56.7171 37.0837C56.7171 37.2864 56.7171 37.3877 56.7171 37.5903L55.5082 38.2996L56.1125 35.8678C56.314 35.2599 55.911 34.652 55.3067 34.5507C55.1052 34.4493 54.803 34.5507 54.6015 34.5507C54.6015 34.348 54.5008 34.1454 54.2993 33.9427C53.8963 33.5374 53.1911 33.5374 52.7882 33.9427L50.9748 35.7665L50.9748 34.348C51.1763 34.2467 51.2771 34.2467 51.3778 34.0441L52.7882 32.5242C53.1911 32.1189 53.1911 31.4097 52.7882 31.0044C52.3852 30.7004 51.68 30.7004 51.2771 31.0044L49.8667 32.4229L48.4563 31.0044C48.0533 30.7004 47.3481 30.7004 46.9452 31.0044C46.5422 31.4097 46.5422 32.1189 46.9452 32.5242L48.3556 34.0441C48.4563 34.1454 48.6578 34.2467 48.7586 34.348L48.7586 35.7665L46.9452 33.9427C46.5422 33.5374 45.837 33.5374 45.4341 33.9427C45.2326 34.1454 45.1318 34.348 45.1318 34.5507C44.9304 34.4493 44.7289 34.4493 44.4267 34.5507C43.8222 34.7533 43.52 35.3612 43.6207 35.8678L44.2252 38.2996L43.0163 37.5903C43.0163 37.3877 43.0163 37.2864 43.0163 37.0837L42.5126 35.0573C42.3111 34.4493 41.7067 34.1454 41.203 34.2467C40.5985 34.4493 40.2963 35.0573 40.397 35.5639L40.9007 37.489L38.9867 37.9956C38.3822 38.1982 38.1617 38.8062 38.1617 39.3128C38.2815 39.8194 38.7852 40.1234 39.2889 40.1234C39.3896 40.1234 39.4904 40.1234 39.5911 40.1234L41.6059 39.6167C41.8074 39.6167 41.9081 39.5154 42.0089 39.4141L43.2178 40.1234L40.8 40.7312C40.1956 40.9339 39.8933 41.5418 39.9941 42.0484C40.0948 42.2511 40.1956 42.4538 40.397 42.6563C40.1956 42.7577 40.0948 42.9604 39.9941 43.2644C39.7926 43.8722 40.1956 44.4801 40.8 44.5816L43.2178 45.2907L42.0089 46C41.9081 45.8987 41.7067 45.7973 41.6059 45.7973L39.5911 45.2907C38.9867 45.0882 38.3822 45.4935 38.2815 46.1013C38.1617 46.7093 38.483 47.3171 39.0874 47.4185L41.0015 47.9251L40.4978 49.8503C40.2963 50.4581 40.6993 51.066 41.3037 51.1674C41.4044 51.1674 41.5052 51.1674 41.6059 51.1674C42.1096 51.1674 42.5126 50.8634 42.7141 50.3568L43.2178 48.3304C43.2178 48.1277 43.2178 48.0265 43.2178 47.8237L44.4267 47.1145L43.8222 49.5462C43.6207 50.1541 44.0237 50.7621 44.6281 50.8634C44.7289 50.8634 44.8296 50.8634 44.9304 50.8634C45.0311 50.8634 45.2326 50.8634 45.3333 50.7621C45.3333 50.9647 45.4341 51.1674 45.6355 51.37C45.837 51.5726 46.1393 51.674 46.4415 51.674C46.7437 51.674 47.0459 51.5726 47.2474 51.37L49.0608 49.5462L49.0608 50.9647C48.8593 51.066 48.7586 51.066 48.6578 51.2687L47.2474 52.6872C46.8444 53.0925 46.8444 53.8018 47.2474 54.207C47.4489 54.4097 47.7511 54.511 48.0533 54.511C48.3556 54.511 48.6578 54.4097 48.8593 54.207L50.2697 52.7886L51.68 54.207C51.8815 54.4097 52.1837 54.511 52.486 54.511C52.7882 54.511 53.0904 54.4097 53.2919 54.207C53.6948 53.8018 53.6948 53.0925 53.2919 52.6872L51.8815 51.2687C51.7808 51.1674 51.5793 51.066 51.4785 50.9647L51.4785 49.5462L53.2919 51.37C53.4934 51.5726 53.7956 51.674 54.0978 51.674C54.4 51.674 54.7022 51.5726 54.9037 51.37C55.1052 51.1674 55.2059 50.9647 55.2059 50.7621C55.3067 50.8634 55.5082 50.8634 55.6089 50.8634C55.7097 50.8634 55.8104 50.8634 55.911 50.8634C56.5156 50.6609 56.8177 50.0528 56.7171 49.5462L56.1125 47.1145L57.3214 47.8237C57.3214 48.0265 57.3214 48.1277 57.3214 48.3304L57.8251 50.3568C57.9258 50.8634 58.4296 51.1674 58.9333 51.1674C59.034 51.1674 59.1348 51.1674 59.2355 51.1674C59.84 50.9647 60.1422 50.3568 60.0415 49.8503L59.5378 47.9251L61.4519 47.4185C62.0563 47.2159 62.3585 46.6079 62.2769 46.1013C61.3511 45.392 60.7467 45.0882 60.1422 45.2907M51.9822 42.6563L53.8963 41.5418C53.9971 41.6432 54.1985 41.7445 54.2993 41.7445L57.5229 42.6563L54.2993 43.5682C54.0978 43.5682 53.9971 43.6696 53.8963 43.771L51.9822 42.6563M45.7363 43.771C45.6355 43.6696 45.4341 43.5682 45.3333 43.5682L42.1096 42.6563L45.3333 41.7445C45.5348 41.7445 45.6355 41.6432 45.7363 41.5418L47.6504 42.6563L45.7363 43.771M51.2771 38.2996L53.5941 35.9692L52.6874 39.2115C52.6874 39.4141 52.6874 39.5154 52.6874 39.7181L50.7734 40.8326L50.7734 38.6035C51.0756 38.5022 51.1763 38.4009 51.2771 38.2996M48.2548 38.2996C48.3556 38.4009 48.5571 38.5022 48.6578 38.6035L48.6578 40.8326L46.7437 39.7181C46.7437 39.5154 46.7437 39.4141 46.7437 39.2115L45.837 35.9692L48.2548 38.2996M48.2548 47.1145L45.9378 49.4449L46.7437 46.2026C46.7437 46 46.7437 45.8987 46.7437 45.696L48.6578 44.5816L48.6578 46.8105C48.5571 46.9119 48.4563 46.9119 48.2548 47.1145M51.2771 47.1145C51.1763 47.0132 50.9748 46.9119 50.8741 46.8105L50.8741 44.5816L52.7882 45.696C52.7882 45.8987 52.7882 46 52.7882 46.2026L53.6948 49.4449L51.2771 47.1145"/>
	<path fill="#2D1B0A" d="M51.9822 55.3217C51.5792 55.3217 51.1763 55.119 50.8741 54.8151L49.8667 53.8018L48.8593 54.8151C48.2548 55.423 47.1467 55.423 46.643 54.8151C46.3407 54.5111 46.1393 54.1058 46.1393 53.7005C46.1393 53.2952 46.3407 52.8899 46.643 52.586C46.3407 52.586 45.6355 52.3833 45.1318 51.9781C45.0311 51.8767 44.9304 51.7754 44.8296 51.5728C44.7289 51.5728 44.5274 51.5728 44.3259 51.5728C43.6207 51.3701 43.2178 50.7622 43.117 50.1543C42.8148 51.3701 42.2104 51.8767 41.5052 51.8767C41.4044 51.8767 41.203 51.8767 41.1022 51.8767C40.1956 51.6741 39.6919 50.7622 39.9941 49.9516L40.397 48.5331L38.9867 48.1278C38.1807 47.9252 37.677 47.0133 37.8341 46.2027C38.08 45.3922 38.9867 44.8855 39.7926 45.0882C40.0948 45.0882 39.8933 44.8855 39.7926 44.6829C39.5911 44.2776 39.4904 43.8723 39.5911 43.467C39.5911 43.2644 39.6919 43.1631 39.7926 43.0618C39.6919 42.9604 39.6919 42.7578 39.5911 42.6565C39.4904 42.2512 39.4904 41.8459 39.7926 41.4406C39.8933 41.238 40.0948 41.0353 40.1956 40.934C39.5911 41.0353 39.4904 41.1366 39.3896 41.1366C38.6845 41.1366 38.08 40.63 37.8341 39.9208C37.677 39.0089 38.1807 38.1983 38.9867 37.9957L40.397 37.5904L39.9941 36.1719C39.8933 35.7666 39.8933 35.3613 40.1956 34.956C40.397 34.5507 40.8 34.3481 41.203 34.2468C41.6059 34.1455 42.0089 34.1455 42.4118 34.4494C42.8148 34.6521 43.0163 35.0574 43.117 35.4626C43.2178 35.7666 43.3185 35.4626 43.4193 35.26C43.6207 34.8547 44.0237 34.6521 44.4267 34.5507C44.6282 34.5507 44.7289 34.4494 44.9304 34.4494C45.0311 34.3481 45.1318 34.1455 45.2326 34.0441C45.5348 33.7402 45.9378 33.5375 46.3407 33.5375C46.643 33.5375 46.8444 33.5375 47.0459 33.6388C46.4415 33.0309 46.24 32.6256 46.24 32.2203C46.24 31.8151 46.4415 31.4098 46.7437 31.1058C47.3481 30.4979 48.3555 30.4979 48.96 31.1058L49.9674 32.2203L50.9748 31.1058C51.277 30.8018 51.68 30.5992 52.0829 30.5992C52.4859 30.5992 52.8889 30.8018 53.1911 31.1058C53.4933 31.4098 53.6948 31.8151 53.6948 32.2203C53.6948 32.6256 53.4933 33.0309 53.1911 33.3349C53.0904 33.5375 53.2918 33.5375 53.5941 33.5375C53.997 33.5375 54.4 33.7402 54.7022 34.0441C54.8029 34.1455 54.9037 34.2468 55.0044 34.4494C55.2059 34.4494 55.3066 34.4494 55.5081 34.5507C56.2133 34.7534 56.6163 35.3613 56.717 35.9692C57.0192 34.6521 57.9259 34.1455 58.7318 34.3481C59.5378 34.5507 60.0415 35.4626 59.84 36.2732L59.437 37.793L60.8474 38.1983C61.6533 38.401 62.157 39.3129 61.9555 40.1234C61.754 40.8327 61.1496 41.3393 60.4444 41.3393C60.3437 41.3393 60.1422 41.3393 60.0415 41.3393C60.0415 41.6433 60.3437 42.2512 60.1422 42.9604C60.1422 43.1631 60.0415 43.2644 59.9407 43.3657C60.0415 43.467 60.0415 43.6697 60.1422 43.771C60.3437 44.4803 60.0415 45.1895 59.5378 45.4935C60.8474 45.1895 61.754 45.6961 61.9555 46.5067C62.157 47.4186 61.6533 48.2292 60.8474 48.5331L59.437 48.9384L59.84 50.3569C59.9407 50.7622 59.9407 51.1675 59.6385 51.5728C59.3363 51.9781 59.034 52.1807 58.6311 52.282C58.4296 52.282 58.3289 52.3833 58.2281 52.3833C57.5229 52.3833 56.9185 51.8767 56.717 51.1675C56.6163 50.8635 56.5155 51.1675 56.4148 51.3701C56.2133 51.7754 55.8104 51.9781 55.4074 52.0794C55.2059 52.0794 55.1052 52.1807 54.9037 52.1807C54.8029 52.282 54.7022 52.4847 54.6015 52.586C54.0978 53.0926 53.3926 53.1939 52.7881 52.8899C53.4933 53.5992 53.6948 54.0045 53.6948 54.4098C53.6948 54.8151 53.4933 55.2203 53.1911 55.5243C52.7881 55.2203 52.3852 55.3217 51.9822 55.3217M49.7659 52.3833L51.5792 54.2071C51.7807 54.4098 52.1837 54.4098 52.3852 54.2071C52.4859 54.1058 52.5867 53.9032 52.5867 53.8018C52.5867 53.5992 52.4859 53.4979 52.3852 53.3966L50.9748 51.9781C50.8741 51.8767 50.8741 51.8767 50.7733 51.8767L50.4711 48.7358L53.0904 51.3701C53.2918 51.5728 53.6948 51.5728 53.8963 51.3701C53.997 51.2688 54.0978 51.1675 54.0978 51.0662L51.0755 47.6212C50.9748 47.5199 50.9748 47.5199 50.8741 47.5199L50.5718 43.771L53.4933 45.4935C53.3926 45.8988 53.3926 46.0001 53.3926 46.1014L54.5007 50.3569C54.9037 50.4582 55.0044 50.5596 55.2059 50.4582C55.3066 50.4582 55.5081 50.3569 55.5081 50.1543C55.6089 50.0529 55.6089 49.8503 55.6089 49.749L54.6015 46.1014L57.0192 47.5199C57.12 48.1278 57.12 48.2292 57.12 48.3305L57.6237 50.3569C57.7244 50.6609 57.9259 50.7622 58.2281 50.7622C58.2281 50.7622 58.3289 50.7622 58.4296 50.7622C58.5303 50.7622 58.7318 50.6609 58.7318 50.4582C58.8326 50.3569 58.8326 50.1543 58.8326 50.0529L58.2281 47.6212L60.6459 47.0133C60.9481 46.912 61.1496 46.608 61.0489 46.304C60.9481 46.0001 60.6459 45.7974 60.3437 45.8988L58.3289 46.4054C58.2281 46.4054 58.1274 46.5067 58.1274 46.5067L55.3066 45.1895L58.9333 44.1763C59.2355 44.075 59.437 43.771 59.3363 43.467C59.3363 43.3657 59.2355 43.2644 59.1348 43.1631L54.6015 44.075C54.5007 44.075 54.4 44.1763 54.4 44.1763L51.1763 42.6565L54.0978 40.934C54.5007 41.238 54.6015 41.238 54.6015 41.238L58.8326 42.3525C59.1348 42.0485 59.2355 41.9472 59.2355 41.8459C59.3363 41.5419 59.1348 41.238 58.8326 41.1366L55.2059 40.1234L57.2207 38.9076C58.1274 38.9076 58.2281 38.9076 58.2281 38.9076L60.2429 39.4142C60.5452 39.5155 60.8474 39.3129 60.9481 39.0089C61.0489 38.7049 60.8474 38.401 60.5452 38.2996L58.1274 37.6917L58.7318 35.26C58.8326 34.956 58.6311 34.6521 58.3289 34.5507C58.0266 34.4494 57.7244 34.6521 57.6237 34.956L57.12 36.9825C57.12 37.0838 57.12 37.1851 57.12 37.2864L54.6015 39.1102L55.6089 35.4626C55.7096 35.1587 55.5081 34.8547 55.2059 34.7534C55.1052 34.7534 55.0044 34.7534 54.8029 34.7534L53.3926 39.2115C53.3926 39.3129 53.3926 39.4142 53.3926 39.5155L50.4711 41.5419L50.4711 38.097C50.8741 37.9957 50.9748 37.8943 50.9748 37.8943L54.0978 34.7534C54.0978 34.3481 53.997 34.2468 53.8963 34.1455C53.7955 34.0441 53.5941 33.9428 53.4933 33.9428C53.3926 33.9428 53.1911 34.0441 53.0904 34.1455L50.4711 36.7798L50.4711 33.7402C50.8741 33.6388 50.8741 33.5375 50.9748 33.5375L52.3852 32.0177C52.4859 31.9164 52.5867 31.7137 52.5867 31.6124C52.5867 31.4098 52.4859 31.3085 52.3852 31.2071C52.2844 31.1058 52.0829 31.0045 51.9822 31.0045C51.7807 31.0045 51.68 31.1058 51.5792 31.2071L49.7659 33.0309L47.9526 31.2071C47.7511 31.0045 47.3481 31.0045 47.1467 31.2071C47.0459 31.3085 46.9452 31.5111 46.9452 31.6124C46.9452 31.8151 47.0459 31.9164 47.1467 32.0177L48.557 33.5375C48.6578 33.6388 48.6578 33.6388 48.7585 33.6388L49.0607 36.7798L46.4415 34.1455C46.3407 34.0441 46.24 33.9428 46.0385 33.9428C45.837 33.9428 45.7363 34.0441 45.6355 34.1455C45.5348 34.2468 45.5348 34.3481 45.4341 34.4494L48.557 37.8943C48.6578 37.9957 48.6578 37.9957 48.7585 37.9957L49.0607 41.5419L46.1393 39.8195C46.24 39.3129 46.24 39.2115 46.24 39.1102L45.1318 34.7534C44.7289 34.6521 44.6282 34.6521 44.4267 34.6521C44.3259 34.6521 44.1244 34.7534 44.0237 34.956C43.923 35.0574 43.923 35.26 43.923 35.3613L44.9304 39.0089L42.7141 37.793C42.3111 37.0838 42.3111 36.9825 42.3111 36.9825L41.8074 34.956C41.8074 34.7534 41.7067 34.6521 41.5052 34.5507C41.4044 34.4494 41.203 34.4494 41.1022 34.4494C40.9007 34.4494 40.8 34.5507 40.6993 34.7534C40.5985 34.8547 40.5985 35.0574 40.5985 35.1587L41.203 37.5904L38.7852 38.1983C38.483 38.2996 38.2815 38.6036 38.3822 38.9076C38.483 39.2115 38.6845 39.3129 38.9867 39.3129C38.9867 39.3129 39.0874 39.3129 39.1882 39.3129L41.203 38.8063C41.3037 38.8063 41.4044 38.7049 41.4044 38.7049L44.4267 39.9208L40.8 40.934C40.5985 40.934 40.4978 41.0353 40.397 41.238C40.2963 41.3393 40.2963 41.5419 40.2963 41.6433C40.2963 41.7446 40.397 41.8459 40.4978 41.9472L45.0311 41.0353C45.1318 41.0353 45.2326 40.934 45.2326 40.934L48.4563 42.4538L45.5348 44.1763C45.1318 43.8723 45.1318 43.8723 45.0311 43.8723L40.8 42.7578C40.4978 43.0618 40.397 43.1631 40.397 43.2644C40.397 43.467 40.397 43.5684 40.4978 43.771C40.5985 43.8723 40.6993 43.9736 40.9007 44.075L44.5274 45.0882L42.3111 46.4054C41.5052 46.304 41.4044 46.304 41.4044 46.304L39.3896 45.7974C39.0874 45.6961 38.7852 45.8988 38.6845 46.2027C38.5837 46.5067 38.7852 46.8107 39.0874 46.912L41.5052 47.5199L40.9007 49.9516C40.8 50.2556 41.0015 50.5596 41.3037 50.6609C41.6059 50.7622 41.9081 50.5596 42.0089 50.2556L42.5126 48.2292C42.5126 48.1278 42.5126 48.0265 42.5126 47.9252L45.1318 46.0001L44.1244 49.6477C44.0237 49.9516 44.2252 50.2556 44.5274 50.3569C44.6282 50.3569 44.7289 50.3569 44.9304 50.3569L46.3407 45.8988C46.3407 45.7974 46.3407 45.6961 46.3407 45.5948L49.1615 43.467L49.1615 46.912C48.7585 47.0133 48.6578 47.1146 48.6578 47.1146L45.5348 50.2556C45.6355 50.6609 45.7363 50.7622 45.837 50.8635C46.0385 51.0662 46.4415 51.0662 46.643 50.8635L49.2622 48.2292L49.2622 51.2688C48.8593 51.3701 48.7585 51.4714 48.7585 51.4714L47.2474 52.9913C47.1467 53.0926 47.0459 53.2952 47.0459 53.3966C47.0459 53.5992 47.1467 53.7005 47.2474 53.8018C47.4489 54.0045 47.8518 54.0045 48.0533 53.8018L49.7659 52.3833M51.68 46.7093L52.6874 47.7225L52.2844 46.304C52.2844 46.2027 52.2844 46.1014 52.2844 46.0001C51.4785 46.608 51.5792 46.608 51.68 46.7093M47.3481 46.0001C47.3481 46.1014 47.3481 46.2027 47.2474 46.304L46.8444 47.7225L47.8518 46.7093C47.9526 46.608 48.0533 46.5067 48.1541 46.5067L48.1541 45.4935M52.9896 42.6565C53.997 43.0618 54.0978 43.0618 54.1985 43.0618L55.6089 42.6565L54.1985 42.2512C54.0978 42.2512 53.997 42.1499 53.8963 42.1499M44.0237 42.6565L45.4341 43.0618C45.5348 43.0618 45.6355 43.1631 45.7363 43.1631L45.7363 42.1499C45.6355 42.2512 45.5348 42.2512 45.4341 42.2512L44.0237 42.6565M47.3481 39.4142C48.1541 38.8063 48.0533 38.8063 47.9526 38.7049L46.9452 37.6917L47.3481 39.1102C47.3481 39.2115 47.3481 39.3129 47.3481 39.4142M51.3778 38.9076L51.3778 39.9208C52.2844 39.3129 52.2844 39.2115 52.3852 39.1102L52.7881 37.6917L51.7807 38.7049C51.5792 38.8063 51.4785 38.8063 51.3778 38.9076"/>
	<path fill="#9FF1FF" d="M31.0282 52.3832L31.0282 11.6519C31.0282 6.68714 26.9986 2.7356 22.163 2.7356C17.2267 2.7356 13.2978 6.78846 13.2978 11.6519L13.2978 52.3832C7.2534 55.6255 3.0223 62.0087 3.0223 69.4052C3.0223 80.044 11.5852 88.6563 22.163 88.6563C32.7408 88.6563 41.3037 80.044 41.3037 69.4052C41.203 62.11 37.0726 55.6255 31.0282 52.3832"/>
	<path fill="#2D1B0A" d="M22.0622 89.771C10.9808 89.771 1.9141 80.6521 1.9141 69.5067C1.9141 62.1102 5.84298 55.423 12.1896 51.8768L12.1896 11.7534C12.1896 6.28205 16.6222 1.8239 22.0622 1.8239C27.5022 1.8239 31.9348 6.28205 31.9348 11.7534L31.9348 51.8768C38.2814 55.423 42.2103 62.1102 42.2103 69.5067C42.2103 80.6521 33.2444 89.771 22.0622 89.771M22.0622 3.74901C17.7304 3.74901 14.2045 7.29527 14.2045 11.6521L14.2045 52.9913C7.65631 56.4362 3.92891 62.6169 3.92891 69.5067C3.92891 79.5376 12.0889 87.7446 22.0622 87.7446C32.0355 87.7446 40.1955 79.5376 40.1955 69.5067C40.1955 62.7182 36.4681 56.5376 30.4237 53.3966L29.92 11.7534C30.0207 7.29527 26.3941 3.74901 22.0622 3.74901"/>
	<path fill="#12C2FF" d="M24.5809 58.5132L24.5809 12.1079C24.5809 10.6894 23.4727 9.57485 22.0624 9.57485C20.652 9.57485 19.5438 10.6894 19.5438 12.1079L19.5438 58.5132C14.6075 59.6277 10.9809 64.0859 10.9809 69.4559C10.9809 75.6366 16.0179 80.7027 22.1631 80.7027C28.3083 80.7027 33.3453 75.6366 33.3453 69.4559C33.2446 64.0859 29.5172 59.6277 24.5809 58.5132"/>
	<path fill="#2D1B0A" d="M22.0649 81.6652C15.4146 81.6652 9.8727 76.1938 9.8727 69.4053C9.8727 63.9339 13.3994 59.2731 18.4375 57.7533L18.4375 12.1586C18.4375 10.2335 20.0497 8.6123 21.9668 8.6123C23.8786 8.6123 25.4908 10.2335 25.4908 12.1586L25.4908 57.7533C30.6297 59.2731 34.061 64.0352 34.061 69.4053C34.2571 76.1938 28.816 81.6652 22.0649 81.6652M22.0649 10.6387C21.2588 10.6387 20.5535 11.348 20.5535 12.1586L20.5535 59.3744C15.1123 60.6916 11.8879 64.7445 11.8879 69.5066C11.8879 75.0793 16.4222 79.7401 22.0649 79.7401C27.6068 79.7401 32.2419 75.1806 32.2419 69.5066C32.2419 64.7445 29.0175 60.6916 24.3824 59.5771L23.5763 12.1586C23.5763 11.348 22.9718 10.6387 22.0649 10.6387"/>
	<path fill="#2D1B0A" d="M40.6992 17.6299L25.8904 17.6299C25.2859 17.6299 24.8829 17.2246 24.8829 16.6167C24.8829 16.0088 25.2859 15.6035 25.8904 15.6035L40.6992 15.6035C41.3036 15.6035 41.7066 16.0088 41.7066 16.6167C41.7066 17.2246 41.2029 17.6299 40.6992 17.6299"/>
</svg>
