<?xml version="1.0" encoding="utf-8" ?>
<svg xmlns="http://www.w3.org/2000/svg" xmlns:xlink="http://www.w3.org/1999/xlink" width="92" height="72">
	<path fill="white" d="M92 37.6225C92 35.6958 91.4934 33.8704 90.5815 32.2479C91.1894 30.8282 91.4934 29.307 91.4934 27.6845C91.4934 23.6282 89.3656 20.0789 85.5154 17.2394C88.1498 16.3268 90.1762 13.893 90.1762 10.9521C90.1762 7.30141 87.1366 4.36056 83.489 4.36056C80.0441 4.36056 77.1057 6.99718 76.8018 10.3437C69.304 2.83944 53.4978 0 40.5286 0C20.9736 0 0 6.28732 0 19.9775C0 23.9324 1.82379 27.4817 5.1674 30.4225C2.43172 31.1324 0.405286 33.5662 0.405286 36.507C0.405286 39.9549 3.24229 42.7944 6.68722 42.7944C10.1322 42.7944 12.9692 39.9549 12.9692 36.507C12.9692 36 12.8678 35.493 12.7665 34.9859C14.5903 35.7972 16.7181 36.507 18.8458 37.1155C14.489 40.1577 13.3744 43.707 13.3744 46.3437C13.3744 48.8789 14.2863 52.3268 18.4405 55.369C18.1366 56.0789 18.0352 56.8901 17.9339 57.7014C17.022 57.2958 16.1101 57.1944 15.0969 57.1944C11.0441 57.1944 7.70044 60.5408 7.70044 64.5972C7.70044 68.6535 11.0441 72 15.0969 72C18.7445 72 21.7841 69.3634 22.3921 65.9155C26.8502 68.9577 34.1454 70.4789 41.3392 70.4789C52.9912 70.4789 64.7445 66.7268 64.8458 58.4113C68.1894 57.093 70.8238 55.369 72.6476 53.3408C72.7489 53.3408 72.7489 53.3408 72.8502 53.3408C72.2423 54.3549 71.9383 55.4704 71.9383 56.7887C71.9383 60.5408 74.978 63.4817 78.6256 63.4817C82.3744 63.4817 85.3128 60.4394 85.3128 56.7887C85.3128 54.0507 83.6916 51.7183 81.2599 50.6028C88.2511 47.3577 92 42.8958 92 37.6225M31.4097 14.1972C26.4449 16.3268 22.696 19.369 21.0749 23.3239C17.2247 22.107 14.9956 20.6873 14.0837 19.8761C15.7048 18.3549 21.1762 15.4141 31.4097 14.1972M25.3304 45.938C26.0396 46.6479 26.9515 47.3577 27.8634 48.0676C27.8634 48.0676 27.7621 48.0676 27.7621 48.0676C26.2423 47.4592 25.2291 46.7493 24.7225 46.3437C24.9251 46.2423 25.1278 46.1408 25.3304 45.938"/>
	<path fill="#FFC257" d="M75.0793 56.586C75.0793 58.6163 76.7004 60.2389 78.7269 60.2389C80.7533 60.2389 82.3744 58.6163 82.3744 56.586C82.3744 54.56 80.7533 52.9332 78.7269 52.9332C76.7004 52.9332 75.0793 54.56 75.0793 56.586"/>
	<path fill="#2D1B0A" d="M78.7269 61.2508C76.0925 61.2508 74.0661 59.1213 74.0661 56.5861C74.0661 53.9494 76.1938 51.9213 78.7269 51.9213C81.2599 51.9213 83.3876 54.0508 83.3876 56.5861C83.3876 59.1213 81.3612 61.2508 78.7269 61.2508M78.7269 53.848C77.207 53.848 76.0925 55.0649 76.0925 56.4846C76.0925 58.0058 77.3083 59.1213 78.7269 59.1213C80.2467 59.1213 81.3612 57.9044 81.3612 56.4846C81.3612 55.0649 80.2467 53.848 78.7269 53.848"/>
	<path fill="#FFC257" d="M10.8414 64.4958C10.8414 66.9297 12.7665 68.8564 15.1982 68.8564C17.6299 68.8564 19.555 66.9297 19.555 64.4958C19.555 62.062 17.6299 60.1353 15.1982 60.1353C12.8678 60.1353 10.8414 62.062 10.8414 64.4958"/>
	<path fill="#2D1B0A" d="M15.2995 69.8705C12.3612 69.8705 9.9295 67.4367 9.9295 64.4958C9.9295 61.555 12.3612 59.1212 15.2995 59.1212C18.2379 59.1212 20.6696 61.555 20.6696 64.4958C20.6696 67.5381 18.2379 69.8705 15.2995 69.8705M15.2995 61.1494C13.4758 61.1494 11.9559 62.6705 11.9559 64.4958C11.9559 66.3212 13.4758 67.8423 15.2995 67.8423C17.1233 67.8423 18.6432 66.3212 18.6432 64.4958C18.6432 62.6705 17.1233 61.1494 15.2995 61.1494"/>
	<path fill="#FFC257" d="M3.44864 36.4057C3.44864 38.2311 4.86714 39.6508 6.69093 39.6508C8.51472 39.6508 9.93322 38.2311 9.93322 36.4057C9.93322 34.5804 8.51472 33.1607 6.69093 33.1607C4.96846 33.1607 3.44864 34.6818 3.44864 36.4057"/>
	<path fill="#2D1B0A" d="M6.69093 40.6649C4.35765 40.6649 2.43174 38.7381 2.43174 36.4057C2.43174 34.0734 4.35765 32.1466 6.69093 32.1466C9.02039 32.1466 10.9501 34.0734 10.9501 36.4057C11.0477 38.8396 9.12175 40.6649 6.69093 40.6649M6.69093 34.1748C5.47265 34.1748 4.45902 35.1888 4.45902 36.4057C4.45902 37.6227 5.47265 38.6367 6.69093 38.6367C7.90538 38.6367 8.91902 37.6227 8.91902 36.4057C9.02039 35.1888 8.00675 34.1748 6.69093 34.1748"/>
	<path fill="#FFC257" d="M79.7401 10.9522C79.7401 12.8812 81.3613 14.5037 83.3877 14.5037C85.4142 14.5037 87.0353 12.8812 87.0353 10.9522C87.0353 9.02769 85.4142 7.40065 83.3877 7.40065C81.4626 7.40065 79.7401 8.92628 79.7401 10.9522"/>
	<path fill="#2D1B0A" d="M83.4891 15.5156C80.8547 15.5156 78.8283 13.4874 78.8283 10.9522C78.8283 8.41699 80.956 6.38882 83.4891 6.38882C86.0221 6.38882 88.1499 8.41699 88.1499 10.9522C88.1499 13.386 86.0221 15.5156 83.4891 15.5156M83.4891 8.31558C81.9692 8.31558 80.8547 9.43107 80.8547 10.8508C80.8547 12.2705 82.0705 13.386 83.4891 13.386C85.0089 13.386 86.1234 12.2705 86.1234 10.8508C86.1234 9.53248 84.9076 8.31558 83.4891 8.31558"/>
	<path fill="#9FF1FF" d="M41.5419 67.3353C31.4097 67.3353 21.0749 64.1917 21.0749 58.2086C21.0749 52.2255 31.4097 49.0818 41.5419 49.0818C51.674 49.0818 62.0089 52.2255 62.0089 58.2086C62.0089 64.1917 51.674 67.3353 41.5419 67.3353M41.5419 52.9353C31.511 52.9353 24.9252 56.079 24.9252 58.2086C24.9252 60.3381 31.511 63.4818 41.5419 63.4818C51.5728 63.4818 58.1586 60.3381 58.1586 58.2086C58.1586 56.079 51.4715 52.9353 41.5419 52.9353"/>
	<path fill="#2D1B0A" d="M41.5419 68.3495C31.2071 68.3495 20.0617 65.2058 20.0617 58.2086C20.0617 51.2115 31.2071 48.0678 41.5419 48.0678C51.8767 48.0678 63.0221 51.2115 63.0221 58.2086C63.0221 65.2058 51.8767 68.3495 41.5419 68.3495M41.5419 50.096C32.119 50.096 22.0881 52.9354 22.0881 58.2086C22.0881 63.4819 32.119 66.3213 41.5419 66.3213C50.9648 66.3213 60.9956 63.4819 60.9956 58.2086C60.9956 52.9354 50.9648 50.096 41.5419 50.096M41.5419 64.496C32.119 64.496 23.9119 61.5551 23.9119 58.2086C23.9119 54.8622 32.119 51.9213 41.5419 51.9213C50.9648 51.9213 59.1718 54.8622 59.1718 58.2086C59.1718 61.5551 50.8635 64.496 41.5419 64.496M41.5419 53.9495C31.511 53.9495 25.9383 57.1946 25.9383 58.2086C25.9383 59.2227 31.511 62.4678 41.5419 62.4678C51.5727 62.4678 57.1454 59.2227 57.1454 58.2086C57.0441 57.1946 51.4714 53.9495 41.5419 53.9495"/>
	<path fill="#9FF1FF" d="M44.4801 58.7155C30.599 58.7155 16.5153 54.4564 16.5153 46.4451C16.5153 38.3325 30.599 34.1747 44.4801 34.1747C58.3611 34.1747 72.4448 38.4339 72.4448 46.4451C72.4448 54.4564 58.3611 58.7155 44.4801 58.7155M44.4801 38.8395C30.3964 38.8395 21.3787 43.3015 21.3787 46.3437C21.3787 49.386 30.3964 53.8479 44.4801 53.8479C58.5638 53.8479 67.5814 49.386 67.5814 46.3437C67.5814 43.3015 58.6651 38.8395 44.4801 38.8395"/>
	<path fill="#2D1B0A" d="M44.4801 59.7296C30.4977 59.7296 15.5021 55.5719 15.5021 46.4451C15.5021 37.3184 30.4977 33.1606 44.4801 33.1606C58.4625 33.1606 73.458 37.3184 73.458 46.4451C73.458 55.5719 58.4625 59.7296 44.4801 59.7296M44.4801 35.0874C31.4096 35.0874 17.5285 39.0423 17.5285 46.3437C17.5285 53.6451 31.4096 57.6 44.4801 57.6C57.5506 57.6 71.4316 53.6451 71.4316 46.3437C71.4316 39.0423 57.5506 35.0874 44.4801 35.0874M44.4801 54.862C30.2951 54.862 20.3655 50.4 20.3655 46.3437C20.3655 42.2874 30.2951 37.8254 44.4801 37.8254C58.6651 37.8254 68.5946 42.2874 68.5946 46.3437C68.5946 50.4 58.7664 54.862 44.4801 54.862M44.4801 39.8536C30.0924 39.8536 22.392 44.5183 22.392 46.3437C22.392 48.2705 30.1937 52.8338 44.4801 52.8338C58.8677 52.8338 66.5682 48.1691 66.5682 46.3437C66.5682 44.5183 58.8677 39.8536 44.4801 39.8536"/>
	<path fill="#9FF1FF" d="M56.8415 51.8198C40.8327 51.8198 24.7226 46.9522 24.7226 37.5212C24.7226 28.1916 40.9341 23.2226 56.8415 23.2226C72.749 23.2226 88.9605 28.0902 88.9605 37.5212C88.9605 46.9522 72.8504 51.8198 56.8415 51.8198M56.8415 29.1043C40.7314 29.1043 30.3966 34.1747 30.3966 37.6226C30.3966 41.0705 40.7314 46.1409 56.8415 46.1409C72.9517 46.1409 83.2865 41.0705 83.2865 37.6226C83.2865 34.0733 72.9517 29.1043 56.8415 29.1043"/>
	<path fill="#2D1B0A" d="M56.8416 52.8339C40.8327 52.8339 23.7094 48.0677 23.7094 37.5212C23.7094 27.0761 40.9341 22.2085 56.8416 22.2085C72.749 22.2085 89.9737 26.9747 89.9737 37.5212C89.9737 48.0677 72.8504 52.8339 56.8416 52.8339M56.8416 24.3381C41.7446 24.3381 25.7358 29.0029 25.7358 37.6226C25.7358 46.2423 41.7446 50.9071 56.8416 50.9071C71.9385 50.9071 87.9473 46.2423 87.9473 37.6226C87.9473 29.0029 71.9385 24.3381 56.8416 24.3381M56.8416 47.0536C40.7314 47.0536 29.3834 42.0846 29.3834 37.5212C29.3834 33.0592 40.6301 27.9888 56.8416 27.9888C72.9517 27.9888 84.2997 32.9578 84.2997 37.5212C84.2997 42.0846 73.053 47.0536 56.8416 47.0536M56.8416 30.1184C40.1235 30.1184 31.4098 35.3916 31.4098 37.6226C31.4098 39.8536 40.0222 45.1268 56.8416 45.1268C73.5596 45.1268 82.2733 39.8536 82.2733 37.6226C82.2733 35.2902 73.5596 30.1184 56.8416 30.1184"/>
	<path fill="#9FF1FF" d="M55.9297 42.3888C39.7182 42.3888 23.3041 37.3182 23.3041 27.6845C23.3041 18.0507 39.7182 12.9803 55.9297 12.9803C72.1411 12.9803 88.5552 18.0507 88.5552 27.6845C88.5552 37.3182 72.1411 42.3888 55.9297 42.3888M55.9297 19.6732C39.1103 19.6732 29.9913 24.9464 29.9913 27.6845C29.9913 30.4226 39.1103 35.6958 55.9297 35.6958C72.749 35.6958 81.868 30.4226 81.868 27.6845C81.7667 24.9464 72.6477 19.6732 55.9297 19.6732"/>
	<path fill="#2D1B0A" d="M55.9297 43.4028C39.7182 43.4028 22.2909 38.4338 22.2909 27.6845C22.2909 16.8338 39.7182 11.9662 55.9297 11.9662C72.1411 11.9662 89.5684 16.9352 89.5684 27.6845C89.5684 38.4338 72.1411 43.4028 55.9297 43.4028M55.9297 13.893C40.6301 13.893 24.3173 18.6592 24.3173 27.5831C24.3173 36.507 40.6301 41.2732 55.9297 41.2732C71.2292 41.2732 87.542 36.507 87.542 27.5831C87.542 18.7606 71.2292 13.893 55.9297 13.893M55.9297 36.7099C39.2116 36.7099 28.9781 31.4366 28.9781 27.6845C28.9781 23.9324 39.2116 18.6592 55.9297 18.6592C72.6477 18.6592 82.8812 23.9324 82.8812 27.6845C82.7799 31.4366 72.5464 36.7099 55.9297 36.7099M55.9297 20.6873C39.6169 20.6873 31.0046 25.8592 31.0046 27.6845C31.0046 29.5099 39.6169 34.6817 55.9297 34.6817C72.2424 34.6817 80.8548 29.5099 80.8548 27.6845C80.8548 25.8592 72.2424 20.6873 55.9297 20.6873"/>
	<path fill="#9FF1FF" d="M40.5287 36.8113C21.8855 36.8113 3.0397 31.031 3.0397 19.8761C3.0397 8.72118 21.8855 2.9409 40.5287 2.9409C59.1719 2.9409 78.0177 8.72118 78.0177 19.8761C78.0177 31.031 59.1719 36.8113 40.5287 36.8113M40.5287 10.6479C21.2776 10.6479 10.7401 16.7324 10.7401 19.8761C10.7401 23.0198 21.2776 29.1043 40.5287 29.1043C59.7798 29.1043 70.3172 23.0198 70.3172 19.8761C70.3172 16.7324 59.7798 10.6479 40.5287 10.6479"/>
	<path fill="#2D1B0A" d="M40.5287 37.8254C21.3789 37.8254 2.0265 31.6395 2.0265 19.8761C2.0265 8.11272 21.3789 1.9268 40.5287 1.9268C59.6785 1.9268 79.0309 8.11272 79.0309 19.8761C79.0309 31.6395 59.6785 37.8254 40.5287 37.8254M40.5287 3.95497C22.8987 3.95497 4.05293 9.53243 4.05293 19.8761C4.05293 30.2198 22.7974 35.7972 40.5287 35.7972C58.26 35.7972 77.0045 30.2198 77.0045 19.8761C77.0045 9.53243 58.1587 3.95497 40.5287 3.95497M40.5287 30.1183C21.4802 30.1183 9.72694 24.1353 9.72694 19.8761C9.72694 15.6169 21.4802 9.63384 40.5287 9.63384C59.5772 9.63384 71.3305 15.6169 71.3305 19.8761C71.3305 24.1353 59.5772 30.1183 40.5287 30.1183M40.5287 11.662C20.6697 11.662 11.7534 17.9493 11.7534 19.8761C11.7534 21.8029 20.771 28.0902 40.5287 28.0902C60.3877 28.0902 69.304 21.8029 69.304 19.8761C69.304 17.9493 60.3877 11.662 40.5287 11.662"/>
</svg>
