<?xml version="1.0" encoding="utf-8" ?>
<svg xmlns="http://www.w3.org/2000/svg" xmlns:xlink="http://www.w3.org/1999/xlink" width="90" height="82">
	<path fill="white" d="M39.7118 32.9608C41.408 32.4583 45.0998 31.4534 45.0998 27.3333C45.0998 25.7255 44.4014 22.8113 39.8116 21.9069C38.1153 21.5049 36.5189 21.103 34.6231 19.0932C32.7273 16.9829 32.1286 15.174 31.6297 13.5662C31.2306 12.0588 30.3326 8.3407 26.3415 8.3407C22.6497 8.3407 21.6519 11.4559 21.2528 12.6618C20.7539 14.4706 20.0555 16.8824 17.9601 19.1936C16.5632 20.8015 14.9668 21.2034 13.3703 21.6054C10.9756 22.4093 7.4834 23.5147 7.4834 27.4338C7.4834 29.0417 8.18185 31.9559 12.7717 32.8603C14.4679 33.3628 16.2639 33.9657 17.6608 35.674C19.7561 37.7843 20.4546 39.7941 20.9535 41.402C21.2528 42.2059 21.2528 42.5074 21.3526 42.7083C21.9512 44.7182 23.0488 48.4363 26.541 48.4363C30.2328 48.4363 31.2306 44.4167 31.8293 42.0049C31.9291 41.603 32.0289 41.3015 32.1286 41C32.7273 38.7892 33.6253 37.0809 34.7229 35.875C36.02 34.5686 37.7162 33.9657 39.4124 33.3628"/>
	<path fill="white" d="M17.1618 61.6005C17.062 61.6005 16.8624 61.5 16.7626 61.5C16.2639 61.3995 15.9645 61.299 15.5654 60.9975C15.2661 60.6961 15.1663 60.4951 15.0665 59.9926C14.7672 58.0833 13.071 56.174 10.6763 56.174C9.37911 56.174 7.68288 56.6765 6.68509 59.1887C6.48554 59.4902 6.38576 59.7916 6.28598 60.0931C6.08642 60.4951 6.08642 60.5956 5.98665 60.6961C5.38798 61.1985 4.78931 61.3995 4.48997 61.5C1.89574 61.6005 -5e-05 63.4093 -5e-05 65.9215C-5e-05 67.9314 1.19729 69.3382 3.59197 70.1421C3.59197 70.1421 4.09086 70.2426 4.19064 70.3431C4.68953 70.4436 5.08864 70.6446 5.38798 70.8456C5.68731 71.147 5.78709 71.4485 5.98665 71.951C6.28598 73.8603 7.98221 75.7696 10.3769 75.7696C11.6741 75.7696 12.4722 75.2671 13.071 74.6642L14.3681 73.4583C14.6674 72.9559 14.867 72.5539 15.0665 72.1519C15.2661 71.75 15.2661 71.6495 15.3659 71.549C16.1641 70.8456 16.5632 70.7451 17.062 70.6446C17.2616 70.6446 17.6608 70.4436 17.6608 70.4436C20.1551 69.4387 21.3525 67.9314 21.3525 65.9215C20.8537 63.1078 18.9578 61.8014 17.1618 61.6005"/>
	<path fill="white" d="M61.8625 12.5613C62.2616 12.8627 62.6607 12.9632 62.9601 13.1642C63.0598 13.2647 63.2594 13.2647 63.3592 13.3652C63.459 13.4657 63.5587 13.6667 63.6585 13.9681C64.0576 15.777 65.6541 17.4853 67.949 17.4853C70.643 17.4853 71.7405 15.174 72.0398 14.4706C72.0398 14.3701 72.1396 14.2696 72.1396 14.2696C72.2394 13.9681 72.3392 13.7672 72.5387 13.4657C72.5387 13.3652 72.6385 13.2647 72.6385 13.1642C72.9379 13.0637 73.1375 12.9632 73.4368 12.8627C75.7317 12.5613 77.4279 10.7525 77.4279 8.44118C77.4279 7.03431 76.8293 5.125 73.7362 4.32108C72.8382 4.22059 72.7383 4.22059 72.7383 4.1201C72.5387 3.91912 72.439 3.81863 72.3392 3.51716C71.9401 1.70833 70.3437 0 68.0488 0C65.8536 0 64.357 1.60784 63.9579 3.31618C63.9579 3.41667 63.8581 3.51716 63.8581 3.61765C63.7583 3.91912 63.6585 4.01961 63.6585 4.01961C63.5587 4.01961 63.459 4.01961 63.459 4.1201C63.3592 4.1201 63.2594 4.1201 63.1596 4.22059C60.3658 4.42157 59.0527 6.43137 59.0527 8.44118C59.0527 9.54657 59.2683 11.4559 61.8625 12.5613"/>
	<path fill="white" d="M85.2107 34.6691C85.1109 34.6691 84.9115 34.5686 84.8116 34.5686C83.6143 34.2671 82.2175 33.9657 80.9202 32.7598C79.3239 31.1519 79.0246 29.6446 78.9248 29.1421C78.7252 28.4387 78.6254 28.3382 78.6254 28.2377C78.326 27.3333 77.2284 24.4191 74.0356 24.4191C71.8404 24.4191 70.3438 25.826 69.5455 28.6397C69.4457 29.4436 69.0466 31.0514 67.4502 32.4583C66.4524 33.3627 65.0555 33.9657 63.4591 34.2671C61.6631 34.6691 58.1708 35.5735 58.1708 39.1912C58.1708 40.8995 58.9691 43.2108 62.8604 44.1152C64.2573 44.5171 65.754 44.9191 66.9513 46.125C68.5477 47.7328 68.8472 49.2402 68.9469 49.7426C69.1464 50.4461 69.2462 50.5466 69.2462 50.647C69.5455 51.5515 70.6432 54.4657 73.8361 54.4657C75.7318 54.4657 77.1287 53.4608 78.1265 51.3505L78.6254 50.3456C78.7252 49.7426 79.1243 48.1348 80.8205 46.6274C81.8183 45.723 83.0156 45.2206 84.213 44.8186C84.612 44.6176 85.0112 44.5171 85.4103 44.4166C85.6098 44.3162 85.8094 44.2157 86.0089 44.2157C87.2063 43.7132 90.0002 42.7083 90.0002 39.3921C89.8006 36.6789 87.9047 34.8701 85.2107 34.6691"/>
	<path fill="white" d="M65.6541 67.027C65.5544 67.027 64.8559 67.027 64.1575 66.2231C63.5588 65.7206 63.2595 65.3187 63.2595 64.9167C62.1619 61.3995 60.1663 60.7966 58.771 60.7966C56.7739 60.7966 55.1774 62.103 54.5788 64.2133C54.5788 64.3138 54.479 64.4143 54.479 64.5147C54.2794 65.0172 54.1796 65.4192 53.7805 65.8211C53.1819 66.2231 52.3836 66.424 51.8847 66.5245C48.1929 67.6299 47.4945 69.5393 47.4945 71.0466C47.4945 72.4535 48.0932 74.3628 50.9867 75.4682L52.1841 75.7696C52.2839 75.7696 52.8825 75.9706 53.4812 76.5736C54.0799 77.076 54.3792 77.478 54.3792 77.8799C55.4768 81.3971 57.4723 82 58.8692 82C59.6674 82 62.1619 81.6986 63.0599 78.5834C63.0599 78.4829 63.1597 78.3824 63.1597 78.2819C63.3592 77.7794 63.459 77.277 63.8581 76.875C64.357 76.4731 65.1553 76.1716 66.0533 75.8701C68.6475 75.1667 70.0475 73.6593 70.0475 71.3481C70.1442 68.5343 67.8493 67.027 65.6541 67.027"/>
	<path fill="white" d="M48.143 59.5907L48.9413 58.5858C49.041 58.3849 49.1408 58.1839 49.2406 57.9829C49.4401 57.5809 49.4401 57.38 49.6397 57.2795C50.2384 56.6765 50.6375 56.4755 51.0366 56.3751C54.6286 54.9682 55.0277 52.9584 55.0277 51.853C55.0277 49.6422 53.4313 47.9339 51.2362 47.7329C51.1364 47.7329 50.9368 47.6324 50.837 47.6324C50.3382 47.5319 50.1386 47.4314 49.8393 47.2304C49.6397 46.929 49.5399 46.728 49.4401 46.527C49.2406 44.6177 47.5444 42.6079 45.1497 42.6079C43.2539 42.6079 41.6574 43.9143 41.0588 45.9241C41.0588 46.0246 40.959 46.1251 40.959 46.2255C40.7594 46.6275 40.7594 46.8285 40.5599 46.929C40.1608 47.2304 39.6619 47.4314 39.3625 47.5319C39.2628 47.5319 39.2628 47.5319 39.163 47.6324C36.7683 47.8334 34.9723 49.6422 34.9723 51.9535C34.9723 54.1643 36.5688 55.7721 39.0632 56.1741C39.3625 56.1741 39.7617 56.3751 39.9612 56.576C40.2606 56.8775 40.3603 57.179 40.3603 57.2795C40.5599 59.1888 42.2561 61.1986 44.6508 61.1986C46.6464 61.3996 47.7439 60.1937 48.143 59.5907"/>
	<path fill="#FFC257" d="M42.1066 27.0317C42.1066 25.2229 40.51 24.821 39.213 24.5195C37.2175 24.017 34.9226 23.4141 32.4281 20.8013C29.9335 18.0881 29.2352 15.7768 28.7362 13.968C28.3372 12.5611 28.0379 11.0538 26.2418 11.0538C24.4458 11.0538 24.2463 12.4606 23.7474 13.767C23.2485 15.5758 22.4503 18.1886 20.0555 20.9018C17.8604 23.4141 15.2662 23.8161 13.57 24.3185C12.1731 24.821 10.3771 25.2229 10.3771 27.0317C10.3771 28.8406 11.9735 29.2425 13.2706 29.544C15.0666 30.0464 17.6609 30.8504 19.7562 33.2621C22.4503 35.9753 23.1487 38.6886 23.7474 40.3969C24.2463 41.7033 24.8449 44.8185 26.3416 44.8185C27.9381 44.8185 28.437 41.6028 29.0356 39.4925C29.5345 37.6837 30.4325 35.071 32.4281 33.0611C34.4237 31.0513 36.8183 30.3479 38.8139 29.6445C40.6098 29.2425 42.1066 28.7401 42.1066 27.0317"/>
	<path fill="#2D1B0A" d="M26.4413 45.8235C24.4457 45.8235 23.7473 43.3112 23.2484 41.5024C23.1486 41.201 23.0488 40.8995 22.9491 40.6985C22.2506 38.4877 21.4524 36.1764 19.1575 33.8652C17.3615 31.7549 15.1664 30.951 13.071 30.348C12.2728 30.147 9.37925 29.6446 9.37925 26.9313C9.37925 24.5196 11.5744 23.8161 12.9713 23.3137C15.4657 22.7108 17.4613 22.1078 19.2573 20.098C21.652 17.3848 22.4502 14.6715 22.7495 13.3652C22.8493 13.1642 22.8493 12.9632 22.9491 12.8627C23.3482 11.6568 23.9468 9.9485 26.1419 9.9485C28.6364 9.9485 29.1353 12.1593 29.5344 13.5661C30.233 15.4755 30.8315 17.5858 33.0267 19.9975C35.3216 22.5098 37.417 23.0122 39.3128 23.4142C40.2107 23.6152 43.0046 24.1176 43.0046 26.8309C43.0046 29.4436 40.7096 30.0465 39.0134 30.549C36.7184 31.3529 34.7229 32.0563 33.1264 33.6642C31.7295 35.071 30.7318 37.0809 30.0333 39.6936C29.9335 39.9951 29.8337 40.397 29.734 40.799C29.2351 43.1103 28.5366 45.8235 26.4413 45.8235M26.2417 12.0588C25.5434 12.0588 25.3438 12.3603 24.9446 13.5661C24.8448 13.7671 24.8448 13.8676 24.7451 14.0686C24.1465 16.2794 23.2484 18.8921 20.8537 21.6054C18.6586 24.0171 16.1642 24.7206 14.3682 25.223C12.173 25.9264 11.4746 26.2279 11.4746 27.1323C11.4746 27.8358 11.8737 28.3382 13.5699 28.6397C15.1664 29.0416 18.2595 29.946 20.6542 32.7598C23.2484 35.3725 24.0466 37.9853 24.6453 39.7941C24.9446 40.4975 25.0444 40.8995 25.1442 41.201C25.8426 43.5122 26.2417 44.0147 26.4413 44.0147C27.0401 44.0147 27.6386 41.6029 27.8382 40.598C27.938 40.196 28.0378 39.7941 28.1376 39.4926C28.9357 36.5784 30.1332 34.2671 31.7295 32.5588C33.7252 30.6495 36.0201 29.7451 37.9158 29.1421C40.6098 28.3382 41.1087 28.0367 41.1087 27.2328C41.1087 26.5294 40.7096 26.0269 39.0134 25.7255C37.0178 25.223 34.4235 24.6201 31.7295 21.7059C29.2351 18.9926 28.4368 16.5808 27.8382 14.772C27.3393 12.5612 27.1397 12.0588 26.2417 12.0588"/>
	<path fill="#FFC257" d="M16.5632 64.2132C15.8647 64.0122 14.6674 64.0122 13.3703 62.8064C12.4722 61.902 12.1729 60.897 11.9733 60.1936C11.9733 59.6912 11.4745 58.7868 10.5765 58.7868C9.67845 58.7868 9.37911 59.6912 9.17956 60.1936C8.78044 60.6961 8.68067 62.0024 7.38355 62.8064C6.48554 63.5098 5.28821 63.9118 4.58976 64.0122C3.89131 64.0122 2.69397 64.2132 2.69397 65.4191C2.69397 66.3235 3.79153 66.625 4.48998 66.826C5.18843 67.027 6.38577 67.3284 7.28377 68.2328C8.18177 69.1373 8.48111 70.1422 8.68067 70.8456C8.68067 71.3481 9.17956 72.2525 10.0776 72.2525C10.9756 72.2525 11.1751 71.1471 11.674 71.1471C12.0731 70.6446 12.1729 69.3383 13.4701 68.5343C14.3681 67.6299 15.5654 67.3284 16.2638 67.1274C17.0621 66.7255 18.0599 66.3235 18.0599 65.3186C17.9601 64.4142 17.0621 64.2132 16.5632 64.2132"/>
	<path fill="#2D1B0A" d="M10.1774 73.2573C8.78045 73.2573 7.88245 72.0515 7.78267 71.0465C7.58311 70.3431 7.38355 69.6396 6.68511 68.9362C6.08644 68.3334 5.28821 68.1323 4.68954 67.9314C4.58976 67.9314 4.39021 67.8308 4.29043 67.8308C3.39242 67.5294 1.89575 67.0269 1.89575 65.4191C1.89575 64.0122 2.99331 63.0073 4.68954 63.0073C5.28821 62.9068 6.28599 62.6054 6.98444 62.0024C7.68289 61.6005 7.88245 60.9975 8.082 60.3946C8.18178 60.0931 8.28156 59.8921 8.38134 59.6912C8.38134 59.6912 8.38134 59.5907 8.48112 59.5907C8.68067 59.0882 9.27934 57.7818 10.6762 57.7818C12.0731 57.7818 12.9712 58.9877 13.071 59.9926C13.2704 60.6961 13.47 61.3995 14.1685 62.1029C14.9668 62.8064 15.6651 63.0073 16.2639 63.1078C16.4634 63.1078 16.5632 63.2083 16.7627 63.2083C17.7605 63.3088 18.9578 63.9118 19.0576 65.2181C19.0576 67.0269 17.4612 67.6299 16.663 68.0318C16.4634 68.1323 16.3636 68.1323 16.1641 68.1323C15.5653 68.3334 14.7671 68.5343 14.1685 69.1373C13.3702 69.6396 13.071 70.2426 12.8714 70.745C12.7716 71.0465 12.6719 71.3481 12.4722 71.549C11.8736 71.951 11.8736 71.951 11.7738 72.0515C11.674 72.5539 11.1751 73.2573 10.1774 73.2573M4.68954 65.0171C4.39021 65.0171 3.79154 65.0171 3.79154 65.4191C3.89132 65.5196 4.39021 65.7206 4.58976 65.8211C5.98666 66.223 7.08422 66.625 8.082 67.5294C9.07979 68.5343 9.37912 69.5392 9.67846 70.3431C9.77823 70.946 9.87801 71.3481 10.1774 71.3481C10.2771 71.3481 10.3769 71.147 10.3769 71.147C10.5765 70.946 10.776 70.6445 11.0753 70.5442C11.0753 70.5442 11.0753 70.4436 11.1751 70.4436C11.3747 69.8407 11.8736 68.8357 12.9712 68.0318C13.969 67.1274 15.0665 66.826 15.7649 66.5245C16.4634 66.223 17.062 65.9216 17.1618 65.7206C17.062 65.5196 16.663 65.5196 16.663 65.5196C16.1641 65.4191 15.9644 65.3186 15.7649 65.3186C15.0665 65.1176 13.8692 64.9166 12.6719 63.8113C11.674 62.8064 11.2749 61.701 11.0753 60.9975C10.9756 60.3946 10.8758 59.9926 10.5765 59.9926C10.4767 59.9926 10.3769 60.0931 10.1774 60.5956C10.1774 60.6961 10.0776 60.7966 10.0776 60.897C9.87801 61.1985 9.87801 61.299 9.77823 61.5C9.4789 62.1029 9.07979 63.2083 7.88245 64.0122C6.68511 64.9166 5.18843 65.2181 4.68954 65.3186"/>
	<path fill="#FFC257" d="M63.3592 9.64701C63.7583 10.049 64.7561 10.1495 65.4545 10.8529C66.153 11.5563 66.3525 12.2598 66.6519 12.7622C66.6519 13.2647 67.1507 14.1691 68.0487 14.1691C68.9468 14.1691 69.2461 13.2647 69.5454 12.5612C69.9445 11.8578 70.0443 11.1544 70.7428 10.4509C71.4412 10.049 72.1397 9.7475 72.8381 9.54652C73.6363 9.54652 74.4346 9.04407 74.4346 8.13966C74.4346 7.43623 73.9357 7.23525 73.0377 6.93378C72.3392 6.93378 71.4412 6.7328 70.7428 6.02937C70.0443 5.32594 69.8447 4.6225 69.5454 4.12005C69.5454 3.6176 69.0465 2.71319 68.1485 2.71319C67.2505 2.71319 66.9512 3.6176 66.9512 3.91907C66.5521 4.6225 66.4523 5.32594 65.7538 6.02937C65.0554 6.7328 64.3569 6.7328 63.6585 6.93378C62.8603 6.93378 62.0544 7.13476 62.0544 8.34064C62.0544 9.14456 62.8603 9.44603 63.3592 9.64701"/>
	<path fill="#2D1B0A" d="M68.0403 15.0735C66.6434 15.0735 65.8452 13.8676 65.6457 12.9632C65.6457 12.9632 65.6457 12.8627 65.5459 12.8627C65.3463 12.4607 65.1468 11.9583 64.7477 11.5563C64.4483 11.2549 64.0492 11.1544 63.7499 10.9534C63.4505 10.8529 63.1512 10.6519 62.8519 10.4509C62.8519 10.4509 62.7521 10.4509 62.7521 10.4509C62.2532 10.25 60.9561 9.64702 61.1349 8.13966C61.1349 7.53672 61.455 5.82839 63.6501 5.82839C63.7499 5.82839 63.9494 5.7279 64.0492 5.7279C64.5481 5.62741 64.8474 5.52692 65.1468 5.22545C65.5459 4.82349 65.6457 4.52202 65.8452 4.01956C65.945 3.81858 65.945 3.71809 66.0448 3.51711C66.1446 2.71319 66.843 1.6078 68.1401 1.6078C69.537 1.6078 70.3352 2.81368 70.5348 3.71809C70.5348 3.71809 70.5348 3.81858 70.6346 3.81858C70.8341 4.22055 71.0337 4.723 71.4328 5.12496C72.0314 5.7279 72.8298 5.7279 73.0293 5.7279C73.9272 5.92888 75.424 6.23035 75.424 7.83819C75.424 9.14456 74.4261 10.1495 72.9295 10.25C72.4305 10.4509 71.8319 10.7524 71.2332 11.0539C70.9339 11.3554 70.8341 11.7573 70.6346 12.1593C70.5348 12.3603 70.435 12.5612 70.3352 12.8627C70.2355 12.9632 70.2355 13.0637 70.2355 13.1642C69.9361 13.9681 69.4372 15.0735 68.0403 15.0735M64.0492 8.94358C64.149 8.94358 64.3485 9.04407 64.4483 9.14456C64.9472 9.34555 65.6457 9.64702 66.1446 10.1495C66.843 10.8529 67.1423 11.5563 67.3419 12.0588C67.5415 12.7622 67.6412 13.1642 67.9406 13.1642C68.0403 13.1642 68.1401 12.9632 68.3397 12.4607C68.4395 12.3603 68.4395 12.1593 68.5392 12.0588C68.639 11.8578 68.7388 11.6568 68.7388 11.5563C68.9383 11.0539 69.2377 10.3505 69.8363 9.74751C70.7344 9.14456 71.5325 8.84309 72.231 8.54162C72.7299 8.44113 73.2289 8.44113 73.2289 8.03917C73.1291 8.03917 73.0293 7.93868 72.7299 7.83819C72.1312 7.83819 70.8341 7.63721 69.8363 6.63231C69.1379 5.92888 68.8386 5.22545 68.639 4.723C68.4395 4.01956 68.3397 3.6176 68.0403 3.6176C67.9406 3.6176 67.8408 3.81858 67.8408 3.81858C67.6412 4.42153 67.5415 4.62251 67.5415 4.723C67.3419 5.22545 67.0426 5.92888 66.4439 6.53182C65.7454 7.23525 64.9472 7.43623 64.4483 7.63721C64.2488 7.63721 64.149 7.7377 63.9494 7.7377C62.9516 7.83819 62.9516 7.93868 62.9516 8.24015C62.9516 8.44113 63.251 8.54162 63.4505 8.64211C63.5503 8.64211 63.6501 8.7426 63.7499 8.7426"/>
	<path fill="#FFC257" d="M84.8114 37.3822C83.4145 36.9803 80.9201 36.7793 78.725 34.5685C76.7294 32.5587 76.1307 30.5489 75.9312 29.544C75.532 28.7401 75.3325 27.3332 73.9356 27.3332C72.838 27.3332 72.5387 28.5391 72.3391 29.343C72.1396 30.4484 71.5409 32.6592 69.3458 34.669C67.45 36.2768 65.2549 36.8798 63.858 37.1812C62.4611 37.5832 61.0642 37.7842 61.0642 39.191C61.0642 40.5979 62.4611 40.9999 63.5587 41.2008C64.8558 41.6028 67.0509 42.0048 69.0465 44.0146C71.042 46.0244 71.6407 48.0342 71.8403 49.0391C72.2394 49.843 72.4389 51.2499 73.8358 51.2499C75.0332 51.2499 75.2327 50.044 75.6318 49.441C75.8314 48.3357 76.4301 46.1249 78.6252 44.1151C80.521 42.3062 82.7161 41.9043 84.113 41.3013C85.5099 40.6984 86.9068 40.4974 86.9068 39.0906C86.807 37.5832 85.6097 37.3822 84.8114 37.3822"/>
	<path fill="#2D1B0A" d="M73.7361 52.0539C71.8403 52.0539 71.3414 50.446 70.9423 49.6421C70.9423 49.5416 70.8426 49.3406 70.8426 49.2401C70.3437 47.3308 69.5454 45.8235 68.2483 44.5171C66.6518 42.9093 64.756 42.4068 63.5587 42.0049C62.3614 41.7034 60.0665 41.2009 60.0665 38.8897C60.0665 36.7794 62.062 36.2769 63.3591 35.9754C65.7538 35.473 67.45 34.7696 68.7472 33.6642C70.643 31.9558 71.1419 30.147 71.4412 28.9411C71.6408 28.0367 72.2393 26.1274 74.0355 26.1274C75.9312 26.1274 76.4301 27.7352 76.8291 28.5392C76.8291 28.6396 76.929 28.8406 76.929 28.9411C77.4279 30.8504 78.2261 32.3578 79.5233 33.6642C81.2195 35.3725 83.1152 35.7745 84.4124 36.0759C84.612 36.0759 84.8115 36.1764 85.011 36.1764C86.8071 36.1764 87.9046 37.1813 87.9046 38.7892C87.9046 40.6985 86.3082 41.2009 85.2106 41.7034C85.011 41.8039 84.7117 41.9044 84.5122 42.0049C84.2128 42.1053 83.8137 42.3063 83.4146 42.4068C82.1175 42.9093 80.6208 43.4117 79.3237 44.6176C77.4279 46.3259 76.8291 48.1348 76.6297 49.3406C76.4301 49.7426 76.4301 49.8431 76.3304 49.9436C75.8315 50.7475 75.2327 52.0539 73.7361 52.0539M72.6385 48.5367C72.7383 48.6372 72.7383 48.8382 72.8381 48.9387C73.2372 49.9436 73.337 50.0441 73.7361 50.0441C73.9357 50.0441 74.0355 49.9436 74.3348 49.3406C74.4346 49.2401 74.4346 49.0392 74.5343 48.9387C74.7339 47.9338 75.4324 45.4215 77.827 43.3112C79.4235 41.8039 81.2195 41.2009 82.6163 40.6985C83.0154 40.598 83.3148 40.4975 83.6142 40.2965C83.9135 40.196 84.1131 40.0955 84.3126 39.995C85.6096 39.4926 85.7094 39.3921 85.7094 38.9901C85.7094 38.6887 85.7094 38.3872 84.7117 38.3872C84.3126 38.3872 84.1131 38.2867 83.9135 38.2867C82.4167 37.9852 80.1219 37.4828 78.0266 35.3725C76.4301 33.7646 75.4324 31.9558 74.9334 29.946C74.8336 29.8455 74.8336 29.6446 74.7339 29.5441C74.3348 28.5392 74.235 28.4387 73.8359 28.4387C73.5366 28.4387 73.2372 29.3431 73.1375 29.745C72.9379 30.549 72.3391 33.1617 69.8447 35.473C68.2483 36.8799 66.2527 37.7843 63.858 38.1862C62.1618 38.6887 61.9622 38.7892 61.9622 39.1911C61.9622 39.5931 62.2616 39.8946 63.6585 40.196C65.2549 40.6985 67.5498 41.3014 69.5454 43.3112C71.1419 44.6176 72.2393 46.5269 72.6385 48.5367"/>
	<path fill="#FFC257" d="M65.6541 69.7402C64.9556 69.7402 63.459 69.5392 62.0621 68.1323C60.7649 66.9265 60.4656 65.9215 60.266 65.2181C60.0665 64.5147 59.7671 63.6103 58.6696 63.6103C57.8713 63.6103 57.4722 64.4142 57.3725 64.9166C57.1729 65.6201 56.8736 66.9265 55.5764 68.1323C54.3791 68.9363 52.9822 69.3382 52.184 69.4387C51.4855 69.6397 50.388 69.9412 50.388 71.0465C50.388 72.1519 51.5853 72.4534 52.184 72.6544C53.082 72.6544 54.3791 73.1568 55.5764 74.2623C56.8736 75.4681 57.1729 76.473 57.3725 77.1765C57.572 77.8799 57.8713 78.7843 58.9689 78.7843C59.8669 78.7843 60.1662 77.9804 60.266 77.4779C60.4656 76.7745 60.7649 75.4681 62.0621 74.2623C63.2594 73.3578 64.6563 72.8554 65.4545 72.6544C66.3525 72.4534 67.2505 72.1519 67.2505 71.0465C67.1507 69.9412 66.153 69.7402 65.6541 69.7402"/>
	<path fill="#2D1B0A" d="M59.0687 79.7892C57.2727 79.7892 56.7738 78.2819 56.5742 77.5784C56.3747 76.473 55.8758 75.6691 55.0776 74.9657C54.0798 73.9608 52.9822 73.5588 52.3835 73.5588C51.1862 73.1569 49.5898 72.5539 49.5898 70.8456C49.5898 69.0368 51.0864 68.5343 51.8847 68.3333C52.5831 68.1323 53.98 67.9314 55.0776 67.1274C55.9756 66.3235 56.1751 65.4191 56.3747 64.8162C56.3747 64.7157 56.4745 64.6152 56.4745 64.4142C56.7738 63.2083 57.6718 62.4044 58.6696 62.4044C60.4656 62.4044 60.9645 63.9118 61.1641 64.6152C61.3636 65.7206 61.8625 66.5245 62.6608 67.2279C63.9579 68.5343 65.255 68.6348 65.5543 68.6348C66.8513 68.6348 68.0488 69.4387 68.0488 70.9461C68.0488 72.9559 66.4523 73.3578 65.5543 73.5588C64.3569 73.9608 63.3592 74.3627 62.561 74.9657C61.663 75.7696 61.4634 76.5735 61.2639 77.2769C61.2639 77.3774 61.1641 77.4779 61.1641 77.6789C60.8647 79.3872 59.867 79.7892 59.0687 79.7892M58.3702 76.875C58.6696 77.6789 58.7694 77.7794 59.0687 77.7794C59.1685 77.7794 59.2682 77.7794 59.368 77.2769C59.6674 76.0711 60.0665 74.7647 61.3636 73.5588C62.3614 72.7549 63.5588 72.1519 65.1552 71.6495C66.153 71.348 66.153 71.348 66.153 70.9461C66.153 70.6446 65.6541 70.6446 65.6541 70.6446C64.9557 70.6446 63.0599 70.4436 61.3636 68.7353C60.2661 67.7304 59.5676 66.625 59.368 65.3186C59.0687 64.4142 59.0687 64.4142 58.7694 64.4142C58.6696 64.4142 58.47 64.7157 58.47 64.9166C58.1707 66.1225 57.7716 67.4289 56.4745 68.6348C54.9778 69.7402 53.3813 70.0416 52.6829 70.1422C51.7849 70.4436 51.6851 70.5441 51.6851 70.7451C51.6851 70.9461 51.7849 71.0466 52.4833 71.348C52.4833 71.348 52.5831 71.348 52.5831 71.348C53.8802 71.4485 55.2771 72.1519 56.4745 73.2573C57.4722 74.4632 58.1707 75.6691 58.3702 76.875"/>
	<path fill="#FFC257" d="M52.0842 51.6519C52.0842 50.7475 51.286 50.4461 50.7871 50.4461C50.0887 50.2451 48.9911 50.2451 47.8935 49.1397C47.0953 48.3358 46.6962 47.3309 46.5964 46.6274C46.5964 46.125 46.0975 45.3211 45.2993 45.3211C44.5011 45.3211 44.102 46.125 44.0022 46.6274C43.8026 47.1299 43.5033 48.2353 42.4057 49.1397C41.6075 49.8431 40.4102 50.0441 39.8115 50.3456C39.113 50.3456 38.0155 50.5466 38.0155 51.6519C38.0155 52.4559 38.9135 52.8578 39.6119 52.9583C40.3104 53.0588 41.4079 53.4608 42.2062 54.2647C43.0044 55.0686 43.4035 56.0736 43.5033 56.777C43.5033 57.2794 44.0022 58.0834 44.8004 58.0834C45.5986 58.0834 45.9977 57.2794 46.2971 56.978C46.4966 56.4755 46.796 55.3701 47.8935 54.4657C48.6918 53.6618 49.8891 53.2598 50.4878 53.1593C51.0865 52.9583 52.0842 52.4559 52.0842 51.6519"/>
	<path fill="#2D1B0A" d="M44.8004 58.9877C43.4035 58.9877 42.6053 57.7818 42.5055 56.7769C42.4057 56.3749 42.2062 55.571 41.5077 54.8676C40.8093 54.1642 39.8115 53.9632 39.5122 53.8627C38.0155 53.5613 37.0177 52.7573 37.0177 51.5514C37.0177 50.2451 38.0155 49.3407 39.6119 49.2402C39.7117 49.2402 39.9113 49.1397 40.0111 49.1397C40.6097 48.9387 41.2084 48.7377 41.7073 48.3358C42.5055 47.8333 42.7051 47.1299 42.9046 46.6274C42.9046 46.5269 43.0044 46.4264 43.0044 46.326C43.3037 45.1201 44.2017 44.4166 45.1995 44.4166C46.5964 44.4166 47.3946 45.6225 47.4944 46.6274C47.5942 47.0294 47.7938 47.8333 48.4922 48.5368C49.1906 49.1397 49.7893 49.2402 50.388 49.4412C50.5875 49.4412 50.6873 49.5416 50.8869 49.5416C51.9844 49.6421 52.9822 50.3456 52.9822 51.7524C52.9822 52.4559 52.5831 53.4608 50.8869 54.1642C50.0887 54.3652 49.1906 54.7672 48.592 55.2695C47.7938 55.8726 47.5942 56.4754 47.3946 56.978C47.2949 57.1789 47.2949 57.2794 47.1951 57.3798C46.8958 57.6814 46.796 57.7818 46.796 57.7818C46.3969 58.2842 45.7982 58.9877 44.8004 58.9877M39.8115 51.3505C39.7117 51.3505 39.0133 51.3505 39.0133 51.6519C39.0133 51.6519 39.3126 51.8529 39.8115 51.9534C40.4102 52.0539 41.8071 52.3554 42.9046 53.5613C44.0022 54.6666 44.4013 55.973 44.5011 56.576C44.5011 56.8774 44.6008 57.0784 44.8004 57.0784C44.9002 57.0784 45 56.8774 45.1995 56.6764C45.2993 56.576 45.3991 56.4754 45.4988 56.3749C45.4988 56.3749 45.4988 56.2744 45.4988 56.2744C45.6984 55.6715 46.0975 54.5661 47.2949 53.7622C48.2926 52.7573 49.5898 52.4559 50.1884 52.2549C50.9867 51.9534 50.9867 51.6519 50.9867 51.6519C50.9867 51.5514 50.9867 51.5514 50.9867 51.5514C50.9867 51.5514 50.8869 51.451 50.6873 51.451C50.1884 51.3505 49.9889 51.25 49.7893 51.25C49.0909 51.049 48.0931 50.848 46.9955 49.8431C45.7982 48.7377 45.4988 47.4314 45.3991 46.8284C45.3991 46.5269 45.2993 46.326 45.0997 46.326C45 46.326 44.8004 46.6274 44.8004 46.8284C44.7006 47.1299 44.6008 47.2304 44.6008 47.3309C44.4013 47.9338 43.9024 49.0392 42.8048 49.9436C42.1064 50.5465 41.2084 50.848 40.5099 51.049C40.3104 51.1495 40.2106 51.1495 40.0111 51.25"/>
</svg>
