<?xml version="1.0" encoding="utf-8" ?>
<svg xmlns="http://www.w3.org/2000/svg" xmlns:xlink="http://www.w3.org/1999/xlink" width="82" height="64">
	<path fill="white" d="M76.2153 52.3636L5.78465 52.3636C2.63861 52.3636 0 54.9154 0 58.1818C0 61.4481 2.53713 64 5.78465 64L76.2153 64C79.3614 64 82 61.4481 82 58.1818C82 54.9154 79.3614 52.3636 76.2153 52.3636"/>
	<path fill="white" d="M47.0891 42.1563C47.0891 45.5387 44.3629 48.2807 41 48.2807C37.6371 48.2807 34.9109 45.5387 34.9109 42.1563C34.9109 38.7739 37.6371 36.0319 41 36.0319C44.3629 36.0319 47.0891 38.7739 47.0891 42.1563"/>
	<path fill="white" d="M48.8144 20.7209C48.8144 25.0616 45.3158 28.5806 41 28.5806C36.6843 28.5806 33.1856 25.0616 33.1856 20.7209C33.1856 16.3801 36.6843 12.8612 41 12.8612C45.3158 12.8612 48.8144 16.3801 48.8144 20.7209"/>
	<path fill="white" d="M24.458 32.9697C24.458 37.3105 20.9594 40.8293 16.6436 40.8293C12.3279 40.8293 8.82925 37.3105 8.82925 32.9697C8.82925 28.6289 12.3279 25.1101 16.6436 25.1101C20.9594 25.1101 24.458 28.6289 24.458 32.9697"/>
	<path fill="white" d="M22.7327 11.5343C22.7327 14.9167 20.0065 17.6587 16.6436 17.6587C13.2807 17.6587 10.5545 14.9167 10.5545 11.5343C10.5545 8.15189 13.2807 5.4099 16.6436 5.4099C20.0065 5.4099 22.7327 8.15189 22.7327 11.5343"/>
	<path fill="white" d="M71.4455 6.1244C71.4455 9.50682 68.7193 12.2488 65.3564 12.2488C61.9935 12.2488 59.2673 9.50682 59.2673 6.1244C59.2673 2.74199 61.9935 0 65.3564 0C68.7193 0 71.4455 2.74199 71.4455 6.1244"/>
	<path fill="white" d="M73.1707 27.5598C73.1707 31.9006 69.6721 35.4194 65.3564 35.4194C61.0407 35.4194 57.542 31.9006 57.542 27.5598C57.542 23.219 61.0407 19.7001 65.3564 19.7001C69.6721 19.7001 73.1707 23.219 73.1707 27.5598"/>
	<path fill="#FFC257" d="M76.2154 60.5295L5.78475 60.5295C4.26247 60.5295 3.04465 59.3046 3.04465 57.7735C3.04465 56.2424 4.26247 55.0175 5.78475 55.0175L76.2154 55.0175C77.7377 55.0175 78.9555 56.2424 78.9555 57.7735C78.854 59.3046 77.6362 60.5295 76.2154 60.5295"/>
	<path fill="#2D1B0A" d="M76.2153 61.5502L5.78465 61.5502C3.75495 61.5502 2.0297 59.917 2.0297 57.7735C2.0297 55.732 3.65346 53.9968 5.78465 53.9968L76.2153 53.9968C78.245 53.9968 79.9703 55.63 79.9703 57.7735C79.8688 59.917 78.245 61.5502 76.2153 61.5502M5.78465 56.1403C4.87128 56.1403 4.0594 56.8548 4.0594 57.8756C4.0594 58.7942 4.7698 59.6108 5.78465 59.6108L76.2153 59.6108C77.1287 59.6108 77.9406 58.8963 77.9406 57.8756C77.9406 56.9569 77.2302 56.1403 76.2153 56.1403L5.78465 56.1403"/>
	<path fill="#FFC257" d="M37.9554 41.8501C37.9554 43.5853 39.2748 44.9123 41 44.9123C42.7253 44.9123 44.0446 43.5853 44.0446 41.8501C44.0446 40.1148 42.7253 38.7879 41 38.7879C39.2748 38.7879 37.9554 40.1148 37.9554 41.8501"/>
	<path fill="#2D1B0A" d="M41 45.933C38.7673 45.933 36.9406 44.0957 36.9406 41.8501C36.9406 39.6045 38.7673 37.7672 41 37.7672C43.2327 37.7672 45.0594 39.6045 45.0594 41.8501C45.0594 44.0957 43.2327 45.933 41 45.933M41 39.8086C39.8837 39.8086 38.9703 40.7273 38.9703 41.8501C38.9703 42.9729 39.8837 43.8916 41 43.8916C42.1163 43.8916 43.0297 42.9729 43.0297 41.8501C43.0297 40.7273 42.1163 39.8086 41 39.8086"/>
	<path fill="#FFC257" d="M36.2302 20.4147C36.2302 23.0686 38.3614 25.2121 41 25.2121C43.6386 25.2121 45.7698 23.0686 45.7698 20.4147C45.7698 17.7607 43.6386 15.6172 41 15.6172C38.3614 15.6172 36.2302 17.7607 36.2302 20.4147"/>
	<path fill="#2D1B0A" d="M41 26.1308C37.854 26.1308 35.2154 23.5789 35.2154 20.3126C35.2154 17.1483 37.7525 14.4944 41 14.4944C44.146 14.4944 46.7847 17.0462 46.7847 20.3126C46.7847 23.5789 44.146 26.1308 41 26.1308M41 16.6379C38.9703 16.6379 37.2451 18.2711 37.2451 20.4147C37.2451 22.4561 38.8688 24.1914 41 24.1914C43.1312 24.1914 44.755 22.5582 44.755 20.4147C44.755 18.2711 43.0297 16.6379 41 16.6379"/>
	<path fill="#FFC257" d="M11.8738 32.6635C11.8738 35.3174 14.005 37.4609 16.6436 37.4609C19.2822 37.4609 21.4134 35.3174 21.4134 32.6635C21.4134 30.0096 19.2822 27.866 16.6436 27.866C14.005 27.866 11.8738 30.0096 11.8738 32.6635"/>
	<path fill="#2D1B0A" d="M16.6436 38.3796C13.4976 38.3796 10.8589 35.8277 10.8589 32.5614C10.8589 29.3971 13.3961 26.7432 16.6436 26.7432C19.8911 26.7432 22.4282 29.295 22.4282 32.5614C22.4282 35.8277 19.7896 38.3796 16.6436 38.3796M16.6436 28.8867C14.6139 28.8867 12.8886 30.5199 12.8886 32.6635C12.8886 34.7049 14.5124 36.4402 16.6436 36.4402C18.7748 36.4402 20.3986 34.807 20.3986 32.6635C20.3986 30.622 18.6733 28.8867 16.6436 28.8867"/>
	<path fill="#FFC257" d="M13.5991 11.2281C13.5991 12.9633 14.9184 14.2903 16.6436 14.2903C18.3689 14.2903 19.6882 12.9633 19.6882 11.2281C19.6882 9.49285 18.3689 8.1659 16.6436 8.1659C14.9184 8.1659 13.5991 9.49285 13.5991 11.2281"/>
	<path fill="#2D1B0A" d="M16.6436 15.311C14.4109 15.311 12.5842 13.4737 12.5842 11.2281C12.5842 8.98248 14.4109 7.14516 16.6436 7.14516C18.8763 7.14516 20.703 8.98248 20.703 11.2281C20.703 13.4737 18.8763 15.311 16.6436 15.311M16.6436 9.18663C15.5273 9.18663 14.6139 10.1053 14.6139 11.2281C14.6139 12.3509 15.5273 13.2696 16.6436 13.2696C17.7599 13.2696 18.6733 12.3509 18.6733 11.2281C18.6733 10.1053 17.7599 9.18663 16.6436 9.18663"/>
	<path fill="#FFC257" d="M62.3118 5.7161C62.3118 7.45135 63.6312 8.77831 65.3564 8.77831C67.0816 8.77831 68.401 7.45135 68.401 5.7161C68.401 3.98085 67.0816 2.6539 65.3564 2.6539C63.6312 2.6539 62.3118 4.08293 62.3118 5.7161"/>
	<path fill="#2D1B0A" d="M65.3564 9.79904C63.1237 9.79904 61.297 7.96172 61.297 5.7161C61.297 3.47049 63.1237 1.63317 65.3564 1.63317C67.5891 1.63317 69.4158 3.47049 69.4158 5.7161C69.4158 7.96172 67.5891 9.79904 65.3564 9.79904M65.3564 3.67464C64.2401 3.67464 63.3267 4.5933 63.3267 5.7161C63.3267 6.83891 64.2401 7.75757 65.3564 7.75757C66.4727 7.75757 67.3861 6.83891 67.3861 5.7161C67.3861 4.5933 66.4727 3.67464 65.3564 3.67464"/>
	<path fill="#FFC257" d="M60.5866 27.1515C60.5866 29.8054 62.7178 31.9489 65.3564 31.9489C67.995 31.9489 70.1262 29.8054 70.1262 27.1515C70.1262 24.4976 67.995 22.354 65.3564 22.354C62.7178 22.354 60.5866 24.5996 60.5866 27.1515"/>
	<path fill="#2D1B0A" d="M65.3564 32.9697C62.2104 32.9697 59.5718 30.4178 59.5718 27.1515C59.5718 23.9872 62.1089 21.3333 65.3564 21.3333C68.6039 21.3333 71.1411 23.8851 71.1411 27.1515C71.1411 30.4178 68.5024 32.9697 65.3564 32.9697M65.3564 23.4768C63.3267 23.4768 61.6015 25.11 61.6015 27.2536C61.6015 29.295 63.2252 31.0303 65.3564 31.0303C67.4876 31.0303 69.1114 29.3971 69.1114 27.2536C69.1114 25.11 67.3861 23.4768 65.3564 23.4768"/>
</svg>
