<?xml version="1.0" encoding="utf-8" ?>
<svg xmlns="http://www.w3.org/2000/svg" xmlns:xlink="http://www.w3.org/1999/xlink" width="80" height="98">
	<path fill="white" d="M0 98L0.302267 94.7603C0.302267 94.5579 1.10831 81.5992 5.34005 72.6901C7.45592 68.1343 10.2771 65.4008 13.5013 64.2872L16.4232 64.186L15.2141 61.3512C11.2846 52.2397 9.97481 42.9256 11.2846 33.1054C12.6952 25.1074 18.6398 0 38.0856 0C58.2368 0 67.0025 20.1467 67.9093 33.6116C68.2116 39.8884 68.2116 51.8347 64.0806 61.5537L62.8715 64.3884L65.7935 64.3884C65.7935 64.3884 65.8942 64.3884 65.8942 64.3884C66.0957 64.4897 66.2972 64.4897 66.4987 64.4897C69.7229 65.6033 72.3426 68.3368 74.4584 72.7913C78.3879 80.7893 79.7985 93.343 79.7985 94.7603L80 97.2913L0 97.8988"/>
	<path fill="#684B2A" d="M21.6625 67.4763C21.6625 67.4763 11.184 55.0238 14.0051 34.0672C14.0051 34.0672 18.0353 3.2903 37.8842 3.2903C57.5316 3.2903 64.1814 23.437 64.8867 34.0672C65.592 44.3936 64.3829 59.0734 57.2293 67.4763L21.6625 67.4763"/>
	<path fill="#2D1B0A" d="M57.7331 68.5393L21.2596 68.5393C20.5543 67.6281 10.1764 55.0744 13.0984 33.9153C13.2999 32.5992 17.4309 2.2273 37.985 2.2273C58.4384 2.2273 65.2898 22.9814 65.9951 33.9153C66.3981 39.281 66.9019 57.7066 58.1361 68.0331M22.1664 66.5145L56.7256 66.5145C64.6853 56.6942 64.1815 39.281 63.8792 34.219C63.1739 23.8926 56.9271 4.35333 37.8843 4.35333C19.1437 4.35333 15.0127 33.9153 15.0127 34.219C12.5805 52.6447 20.5543 64.3885 22.1664 66.5145"/>
	<path fill="#FAD1B6" d="M31.2712 59.8326L31.2712 54.5681C31.2712 54.5681 26.9388 51.4296 24.8229 48.7974C24.8229 48.7974 22.4047 49.3036 20.0874 43.7355C20.0874 43.7355 16.9639 35.8387 20.9942 35.3326C20.9942 35.3326 40.6415 35.8387 51.1201 24.8036C51.1201 24.8036 55.8556 35.3326 58.7775 35.3326C58.7775 35.3326 60.4903 34.6239 60.9189 37.4586C61.0949 40.597 60.1881 46.3676 55.1503 47.785C55.1503 47.785 53.7397 51.4296 48.702 54.7705L48.702 60.035L31.2712 59.8326"/>
	<path fill="#2D1B0A" d="M49.7232 61.0474L30.269 60.8449L30.269 55.0743C29.1602 54.2644 26.2371 51.9358 24.3219 49.8098C23.2131 49.7086 21.0963 48.7974 19.1811 44.1404C18.9796 43.533 16.9636 38.471 18.5764 35.8387C19.0803 35.0288 19.8867 34.4214 20.8947 34.3201C21.2979 34.3201 40.4497 34.7251 50.5296 24.0949L51.5376 22.9813L52.1424 24.3987C54.1583 28.9544 57.3839 34.0164 58.7951 34.3201C59.1983 34.2189 59.8031 34.1177 60.5087 34.5226C61.3151 35.0288 61.8191 35.94 62.0443 37.2561C62.2223 40.6982 61.2143 46.7726 55.9727 48.5949C55.4687 49.7086 53.7552 52.5433 49.824 55.2768L49.824 61.0474M32.285 58.8201L47.7072 59.0226L47.7072 54.2644C52.7472 50.8222 54.1583 47.4813 54.1583 47.4813C59.1983 45.659 60.1055 40.4958 59.9039 37.5598C59.8031 36.8511 59.6015 36.4462 59.3999 36.3449C59.2991 36.2437 59.1983 36.3449 59.1983 36.3449C55.8719 36.4462 52.4448 30.0681 50.832 26.6259C40.2481 36.5474 22.6083 36.4462 21.0963 36.4462C20.5923 36.5474 20.3907 36.7499 20.2899 36.9524C19.4835 38.2685 20.3907 41.6094 21.0963 43.4317C23.0115 47.9875 24.7251 47.8863 24.7251 47.8863C27.6483 50.8222 31.8818 53.8594 31.8818 53.8594L32.285 58.8201"/>
	<path fill="white" d="M3.0729 95.6715C3.0729 95.6715 4.98726 70.4629 14.3575 67.5269C23.9293 64.6922 28.4633 66.312 30.3777 63.1736C30.3777 63.1736 29.8739 59.8327 31.2845 59.8327L48.7152 59.8327C50.1258 59.8327 49.219 62.6674 49.4205 63.1736C51.1334 66.312 58.287 65.0972 65.4407 67.5269C75.0124 70.1591 76.9268 95.6715 76.9268 95.6715L48.7152 95.6715L3.0729 95.6715"/>
	<path fill="#2D1B0A" d="M78.0351 96.6839L1.9646 96.6839L2.06536 95.5703C2.16611 94.5579 4.18122 69.6529 14.0553 66.5145C18.287 65.2996 21.5112 64.8947 23.9293 64.591C26.952 64.186 28.4633 63.9835 29.2694 62.8699C29.1686 61.9587 29.1686 60.2377 29.8739 59.4277C30.1762 59.0228 30.68 58.8203 31.1837 58.8203L48.6145 58.8203C49.1183 58.8203 49.622 59.0228 49.9243 59.3265C50.6296 60.1364 50.5288 61.3513 50.3273 62.2625C50.3273 62.4649 50.3273 62.6674 50.3273 62.7687C51.2341 63.9835 53.8538 64.3885 56.8764 64.6922C59.5968 64.9959 62.6195 65.4009 65.6422 66.4133C75.7177 69.1467 77.7329 94.3554 77.8336 95.4691L78.0351 96.6839M4.18122 94.6591L75.8185 94.6591C75.1132 87.0662 72.0905 70.3616 65.1384 68.5393C62.2165 67.5269 59.2946 67.1219 56.6749 66.8182C52.8462 66.312 49.7228 65.9071 48.5137 63.6798C48.2115 63.1736 48.3122 62.7687 48.413 62.1612C48.413 61.8575 48.5137 61.25 48.5137 60.8451L31.3853 60.8451C31.2845 61.25 31.1837 62.1612 31.2845 63.0724C29.8739 66.0083 27.5565 66.312 24.1308 66.717C21.612 67.0207 18.5893 67.4257 14.5591 68.6405C7.80843 70.6653 4.88651 87.1674 4.18122 94.6591"/>
	<path fill="#F7F5EC" d="M3.0227 95.3678C3.0227 95.3678 4.93706 70.3615 14.3073 67.5268C20.5542 65.6033 24.7859 65.6033 27.5063 65.0971C30.8313 79.4732 40.1008 91.0145 40.1008 91.0145C40.1008 91.0145 48.4635 81.5992 52.0907 64.7934C54.9119 65.7045 60.2519 65.502 65.4912 67.4256C75.063 70.0578 76.9774 95.2664 76.9774 95.2664L48.7658 95.2664L3.0227 95.2664"/>
	<path fill="#2D1B0A" d="M78.0351 96.2789L2.97216 96.2789L1.9646 95.3678L1.9646 94.2541C2.56913 89.3946 5.08803 69.2479 13.9545 66.5145C18.4885 65.0971 22.015 64.6922 24.6346 64.3884C25.6422 64.2872 26.549 64.186 27.2543 63.9835L28.3626 64.6922C31.083 76.3347 37.7329 86.0537 39.9999 89.1922C42.0654 86.4587 48.1107 77.7521 50.9319 64.3884L51.1334 63.2748L52.1409 63.5785C53.1485 63.8822 54.6598 64.0847 56.3727 64.2872C58.9923 64.5909 62.3172 64.9959 65.5414 66.2107C75.617 68.9442 77.6321 93.8492 77.7329 94.9628L78.0351 96.2789M4.08047 94.2541L75.8185 94.2541C75.1132 86.7624 72.0905 70.2603 65.1384 68.438C62.015 67.3244 58.9923 66.9194 56.2719 66.6157C54.9621 66.4132 53.753 66.312 52.7455 66.1095C49.0175 82.3079 41.0578 91.3182 40.7555 91.7231L39.2442 91.7231C38.8412 91.2169 30.1762 80.3843 26.7505 66.312C26.146 66.4132 25.5414 66.4132 24.9369 66.5145C22.418 66.8182 18.9923 67.2232 14.6598 68.5393C7.80843 70.5641 4.78576 86.7624 4.08047 94.2541"/>
	<path fill="#EFA873" d="M31.2846 59.8327L31.2846 54.5682C31.2846 54.5682 36.5239 57.9091 40.1511 57.9091C43.7784 57.9091 48.7153 54.5682 48.7153 54.5682L48.7153 59.8327L31.2846 59.8327"/>
	<path fill="#2D1B0A" d="M49.7229 60.8451L30.2771 60.8451L30.2771 52.7459L31.7884 53.7583C31.7884 53.7583 36.8262 56.8967 40.1512 56.8967C43.3753 56.8967 48.1109 53.7583 48.1109 53.7583L49.7229 52.7459L49.7229 60.8451M41.3602 58.8203L47.7078 58.8203L47.7078 56.3905C46.1965 57.2005 43.6776 58.4153 41.3602 58.8203M32.2922 58.8203L38.9421 58.8203C36.5239 58.4153 33.9043 57.2005 32.2922 56.2893L32.2922 58.8203"/>
	<path fill="#86561A" d="M24.131 40.3947L21.3098 35.1302L24.131 37.2562L24.131 40.3947M37.2292 39.3823L42.4685 39.3823L37.2292 39.3823M55.869 40.3947L58.6902 35.1302C58.6902 35.1302 57.9849 35.3327 57.4811 34.9277L55.5667 37.3575L55.869 40.3947"/>
	<path fill="#86561A" d="M42.2166 38.9773C42.2166 35.1302 45.3401 31.9918 49.1688 31.9918C52.9975 31.9918 56.1209 35.1302 56.1209 38.9773C56.1209 42.8243 52.9975 45.9629 49.1688 45.9629C45.3401 45.9629 42.2166 42.8243 42.2166 38.9773M42.9219 38.9773C42.9219 42.3181 45.7431 45.2542 49.1688 45.2542C52.4937 45.2542 55.1133 42.4194 55.1133 38.9773C55.1133 35.5351 52.4937 32.7004 49.1688 32.7004C45.8438 32.7004 42.9219 35.5351 42.9219 38.9773"/>
	<path fill="#86561A" d="M23.7784 38.9773C23.7784 35.1302 26.9018 31.9918 30.7305 31.9918C34.5592 31.9918 37.6827 35.1302 37.6827 38.9773C37.6827 42.8243 34.5592 45.9629 30.7305 45.9629C26.9018 45.8615 23.7784 42.8243 23.7784 38.9773M24.4836 38.9773C24.4836 42.3181 27.3048 45.2542 30.7305 45.2542C34.1562 45.2542 36.675 42.4194 36.675 38.9773C36.675 35.5351 34.0555 32.7004 30.7305 32.7004C27.4056 32.7004 24.4836 35.5351 24.4836 38.9773"/>
	<path fill="#FF4646" d="M35.5667 49.6075C35.5667 49.6075 40.6045 52.0372 45.6423 49.6075C45.6423 49.6075 44.2317 52.7459 40.9067 52.7459C37.5818 52.7459 35.5667 49.6075 35.5667 49.6075"/>
	<path fill="#351F21" d="M33.5517 38.876C33.5517 40.0909 32.6449 41.002 31.6373 41.002C30.529 41.002 29.7229 40.0909 29.7229 38.876C29.7229 37.6611 30.6297 36.75 31.6373 36.75C32.6449 36.75 33.5517 37.7624 33.5517 38.876"/>
	<path fill="#351F21" d="M50.8817 38.9773C50.8817 40.1922 49.9748 41.1033 48.9673 41.1033C47.859 41.1033 47.0529 40.1922 47.0529 38.9773C47.0529 37.7624 47.9597 36.8513 48.9673 36.8513C49.9748 36.8513 50.8817 37.8637 50.8817 38.9773"/>
	<path fill="#79CC9C" d="M43.4257 90.7108C43.4257 92.2763 42.1626 93.5455 40.6045 93.5455C39.0464 93.5455 37.7833 92.2763 37.7833 90.7108C37.7833 89.1452 39.0464 87.8761 40.6045 87.8761C42.1626 87.8761 43.4257 89.1452 43.4257 90.7108"/>
	<path fill="#2D1B0A" d="M40.6045 94.6591C38.4886 94.6591 36.7758 92.938 36.7758 90.812C36.7758 88.686 38.4886 86.9649 40.6045 86.9649C42.7204 86.9649 44.4332 88.686 44.4332 90.812C44.4332 92.938 42.8211 94.6591 40.6045 94.6591M40.6045 88.8884C39.5969 88.8884 38.7909 89.6984 38.7909 90.7108C38.7909 91.7232 39.5969 92.5331 40.6045 92.5331C41.612 92.5331 42.4181 91.7232 42.4181 90.7108C42.4181 89.6984 41.7128 88.8884 40.6045 88.8884"/>
</svg>
