<?xml version="1.0" encoding="utf-8" ?>
<svg xmlns="http://www.w3.org/2000/svg" xmlns:xlink="http://www.w3.org/1999/xlink" width="74" height="98">
	<path fill="white" d="M0 97.6985L0 72.5703C0.3 69.2533 1.3 65.4338 5.6 62.519C6.4 62.0164 9.2 60.4082 22.6 59.1015L24.4 58.9005L24.4 55.3826C22.3 52.9703 20.8 50.96 19.7 49L18.6 48.1456C16.3 47.3415 14.5 44.9292 13.4 41.1097C13.2 40.3056 12.5 37.4913 13.9 35.7826L15.3 34.3754L15.1 33.2697C14.8 31.8626 14.7 30.4554 14.7 29.0482C14.9 24.5251 15.4 19.801 19.3 15.1774C20.8 13.6697 22.3 12.1621 23.8 11.4585L25 10.8554L24.9 9.54872C24.7 7.53846 25.2 5.62872 26.2 4.02051C28 1.20615 32.6 0 36.4 0C40.4 0 43.8 1.30667 45.2 3.41744C46.6 5.12615 47.1 6.73436 46.9 8.54359L46.9 10.5538L48.3 10.9559C48.5 10.9559 48.9 11.1569 49.5 11.8605C54 15.7805 55.7 18.9969 56.9 25.5303C57.3 28.3446 57.4 30.8574 56.9 32.9682L56.7 34.0738C58.3 35.6821 58.8 36.6872 59 37.7928C59 43.9241 56.2 46.839 53.9 48.2462C53 49.1508 52.7 49.6533 52.4 50.1559C51.6 51.4626 50.5 52.9703 49.3 54.3774L48.8 58.4985L50.6 58.6995C60.8 59.7046 64.5 60.7097 65.9 61.5138C70.6 63.9262 73.8 68.4492 74 72.7713L74 98L0 98"/>
	<path fill="#FAD1B6" d="M2.55 81.1139L12.35 81.1139L12.35 94.8842L2.55 94.8842L2.55 81.1139M61.15 94.8842L71.15 94.8842L71.15 81.3149L61.15 81.3149L61.15 94.8842"/>
	<path fill="#2D1B0A" d="M72.1 95.8893L60.1 95.8893L60.1 80.3098L72.1 80.3098L72.1 95.8893M62.2 93.8791L70.2 93.8791L70.2 82.32L62.2 82.32L62.2 93.8791M13.4 95.8893L1.6 95.8893L1.6 80.1087L13.4 80.1087L13.4 95.8893M3.6 93.8791L11.4 93.8791L11.4 82.119L3.6 82.119L3.6 93.8791"/>
	<path fill="#2876B5" d="M44.2 60.5087C44.2 60.5087 61.1 61.7149 64.7 63.5241C68.2 65.4338 71 68.9518 71.2 72.6708C71.2 76.3897 71.2 81.3149 71.2 81.3149L61.2 81.3149L61.2 94.8841L12.4 94.8841L12.4 81.1138L2.6 81.1138C2.6 81.1138 2.6 76.1887 2.6 72.7713C3.1 69.2533 4 66.439 7.2 64.4287C10.2 62.0164 29 60.9108 29 60.9108L44.2 60.5087"/>
	<path fill="#2D1B0A" d="M62.2 95.9898L11.4 95.9898L11.4 82.2195L1.6 82.2195L1.6 72.6708C2.1 68.8513 3.2 65.8359 6.7 63.6246C9.8 61.2123 27.1 60.0062 29 59.9057L44.3 59.5036C46.1 59.6041 61.6 60.7098 65.2 62.72C69.2 64.8308 72 68.7508 72.2 72.6708L72.2 82.4205L62.2 82.4205L62.2 95.9898M13.4 93.9795L60.2 93.9795L60.2 80.4103L70.2 80.4103L70.2 72.7713C70 69.6554 67.6 66.3385 64.3 64.5292C61.6 63.1221 49 61.9159 44.3 61.6144L29.2 62.0164C22.1 62.4185 10 63.7251 7.9 65.3333C5 67.1426 4.2 69.5549 3.7 72.9723L3.7 80.3098L13.5 80.3098L13.5 93.9795"/>
	<path fill="#EAC3AA" d="M28.3 53.5734L28.3 58.197C28.3 58.197 28.5 60.1067 31 62.8206C33.7 65.3334 36.4042 67.2431 36.4042 67.2431C36.4042 67.2431 38.8 65.1324 41.8 62.318C44.8 59.6042 44.5083 57.6944 44.5083 57.6944L44.5083 52.0657L28.3 53.5734"/>
	<path fill="#EAC3AA" d="M36.5 68.4492C35.8 67.8463 33.2 66.0369 30.4 63.4237C27.7 60.4083 27.4 58.398 27.3 58.197L27.3 52.5683L45.6 50.8596L45.6 57.4934C45.6 57.996 45.6 60.1067 42.5 62.9211C39.5 65.7355 37.1 67.8463 37.1 67.8463M29.3 58.0965C29.3 58.2975 29.7 59.9057 31.8 62.117C33.6 63.8258 35.5 65.2328 36.4 65.9364C37.3 65.1324 39.1 63.5242 41.2 61.6144C43.7 59.3026 43.6 57.8955 43.6 57.7949L43.6 53.1713L29.3 54.478L29.3 58.0965"/>
	<path fill="#FAD1B6" d="M18.5999 36.2853C18.3999 36.9889 14.3999 34.5766 15.8999 40.0043C17.7999 46.5376 20.9999 45.1304 21.2999 45.834C23.7999 51.2617 29.9 57.8956 36.8999 57.8956C46.2 57.6945 51.7999 45.834 51.7999 45.834C51.7999 45.834 56.3999 45.1304 56.3999 37.6925C56.2 35.1797 53.2 37.4915 53.2 35.9838C53.8999 31.5612 54.1 27.8422 53.8999 25.2289C52.7 18.6956 49.9999 13.1674 43.2 11.4586C36.7 9.54889 23.6999 9.74992 19.9999 19.6002C16.2999 29.5509 19.0999 35.7827 18.5999 36.2853"/>
	<path fill="#2D1B0A" d="M36.9 59.0011C29.8 59.0011 23.5 52.6688 20.5 46.638C20.5 46.638 20.4 46.638 20.4 46.638C19.1 46.437 16.5 45.9344 14.9 40.4062C14.4 38.396 14.4 37.0893 15.1 36.1847C15.8 35.3806 16.8 35.3806 17.5 35.3806C17.5 35.2801 17.5 35.1795 17.4 35.079C17 32.6667 16 26.9375 18.8 19.2985C22.9 8.54365 37 8.74468 43.2 10.5539C49.4 12.0616 53.1 16.8862 54.6 25.1283C54.8 27.8421 54.6 31.4606 54 35.4811C54.7 35.3806 55.6 35.2801 56.3 35.8831C56.8 36.2852 57 36.8883 57.1 37.5919C57.1 44.4267 53.6 46.236 52.2 46.7385C51.3 48.9498 45.8 58.8001 36.9 59.0011M17.1 37.3908C16.9 37.3908 16.7 37.3908 16.7 37.4913C16.7 37.4913 16.4 37.8934 16.9 39.8031C18.1 44.1252 19.9 44.4267 20.8 44.6278C21.3 44.7283 21.9 44.8288 22.2 45.5324C24.4 50.156 30.1 56.9908 36.9 56.9908C45.4 56.7898 50.8 45.5324 50.9 45.4319C51.7 44.8288 55.4 44.1252 55.4 37.6924C55.4 37.4913 55.3 37.3908 55.3 37.3908C55.2 37.3908 54.7 37.3908 54.5 37.4913C53.9 37.5919 53.2 37.6924 52.6 37.1898C52.4 36.9888 52.1 36.5867 52.1 35.9836C52.7 31.6616 53 27.9426 52.8 25.3293C51.4 17.7908 48.3 13.7703 42.9 12.3631C37.2 10.7549 24.4 10.4534 20.9 19.9016C18.3 27.038 19.2 32.1642 19.6 34.5765C19.8 35.5816 19.9 36.1847 19.6 36.6872C19.2 37.4913 18.3 37.2903 17.8 37.2903C17.6 37.3908 17.3 37.3908 17.1 37.3908M20.4 46.236C20.4 46.3365 20.4 46.3365 20.4 46.236C20.4 46.3365 20.4 46.3365 20.4 46.236"/>
	<path fill="#684B2A" d="M18.8 37.2199C19.7 39.1296 17.9 24.1532 24.9 22.9471C31.9 21.7409 33.5 26.6661 38.8 26.465C44.2 25.9625 47.9 26.6661 50.5 31.0886C52.9 35.5112 50.3 42.145 51.4 40.4363C52.3 38.5266 53.1 37.2199 53.1 37.2199C53.1 37.2199 55.5 31.7922 54.5 25.7614C53.6 19.9317 52 17.1173 48.2 13.8004C44.5 10.785 41.4 11.2876 41.9 11.0866C42.4 10.584 46.3 8.57374 43.3 4.75426C40.1 0.83426 30.3 1.73887 28.2 4.95528C26.1 8.17169 28.2 11.0866 29.4 11.2876C27.7 11.9912 24.5 12.9963 21.1 16.7153C17.9 20.4343 17.4 24.3543 17.1827 28.6763C17 32.7973 18.6 37.0189 18.8 37.2199"/>
	<path fill="#2D1B0A" d="M51.1 41.7127C51 41.7127 50.8 41.7127 50.7 41.6122C49.9 41.3105 50 40.506 50.1 39.5004C50.4 37.7908 50.9 34.1706 49.5 31.556C47.2 27.5335 43.8 27.0307 38.8 27.433C36.1 27.5335 34.3 26.5279 32.6 25.5223C30.5 24.3156 28.5 23.2094 25 23.8128C20.7 24.5167 20.2999 32.2599 20.1 35.5785C20 37.3886 20 38.0925 19.1 38.2936C18.9 38.2936 18.2999 38.3942 17.9 37.5897C17.2 36.383 15.9945 32.2599 15.9945 28.5392C16.2 24.4161 16.7 19.9914 20.2 15.969C22.9 13.0527 25.4 11.7454 27.3 10.9409C27.1 10.6392 26.9 10.3375 26.7 9.93526C25.9 8.22571 26.1 6.21448 27.3 4.40437C28.6 2.29258 32.1 1.28696 34.9 1.1612C38.9 0.985276 42.3 1.99089 44 4.10269C45 5.40999 45.5 6.71729 45.3 7.92403C45.2 9.0302 44.6 9.8347 44 10.4381C45.2 10.8403 46.9 11.5442 48.7 12.9521C52.8 16.4718 54.4 19.6897 55.3 25.5223C56.3 31.7571 54 37.288 53.9 37.4891C53.9 37.5897 53.1 38.9976 52.3 40.8077C51.8 41.5116 51.5 41.7127 51.1 41.7127M19.7 36.7852M41.5 25.3212C45.7 25.3212 49 26.5279 51.3 30.5504C52.2 32.1594 52.4 33.9695 52.5 35.679C53.1 33.8689 54.1 30.0476 53.4 25.9246C52.6 20.5948 51.1 17.7791 47.5 14.5611C44.9 12.4493 42.7 12.2482 42 12.1476C41.7 12.1476 41 12.0471 40.9 11.2426L41.4 10.1364C41.5 10.0358 41.6 10.0358 41.7 9.93526C42.3 9.53301 43.3 8.72852 43.5 7.62234C43.6 6.91841 43.3 6.21448 42.6 5.30942C41.3 3.70044 38.5 2.89595 35.2 3.09707C32.4 3.29819 29.9 4.20325 29.2 5.40999C28.2 7.01897 28.5 8.32627 28.7 8.92964C29 9.73413 29.5 10.1364 29.7 10.1364L32.6 10.8403L29.9 12.0471C29.7 12.1476 29.5 12.2482 29.3 12.2482C27.5 12.9521 24.7999 13.9577 21.9 17.1757C18.7999 20.6953 18.4 24.5167 18.2 28.4386C18.2 29.7459 18.2999 31.0532 18.6 32.2599C19 28.0363 20.2999 22.5055 24.9 21.701C29.1 20.997 31.6 22.4049 33.8 23.6116C35.4 24.5167 36.9 25.3212 38.9 25.2206C39.7 25.3212 40.6 25.3212 41.5 25.3212"/>
	<path fill="#AAB0B6" d="M26.1 57.2923C26.1 57.2923 28.5 59.3026 30 59.9057C31.7 60.5088 33.9 60.1067 34.6 60.6093C35.1 61.3129 34.8 68.6502 34.8 68.6502C34.8 68.6502 30.9 68.0472 28.3 65.6349C25.9 63.4236 25.9 61.0113 25.9 61.0113L26.1 57.2923"/>
	<path fill="#2D1B0A" d="M35.8 69.756L34.7 69.5548C34.5 69.5548 30.4 68.8513 27.7 66.3384C25 63.9262 25 61.1118 25 61.0113L25.2 55.0811L26.8 56.3877C27.4 56.8903 29.3 58.398 30.4 58.8C31.1 59.0011 31.9 59.1016 32.7 59.1016C33.8 59.2021 34.7 59.2021 35.3 59.7046C35.7 60.2072 36.2 60.9108 35.9 68.5498L35.8 69.756M27.1 59.2021L27.1 61.0113C27.1 61.0113 27.2 63.0216 29.1 64.8308C30.6 66.238 32.7 67.0421 33.9 67.3437C34 64.8308 34 62.2175 33.8 61.2123C33.5 61.2123 33 61.1118 32.6 61.1118C31.7 61.1118 30.7 61.0113 29.7 60.7098C28.9 60.4082 27.9 59.8052 27.1 59.2021"/>
	<path fill="#AAB0B6" d="M46.9 57.1918C46.9 57.1918 44.5 59.2021 43 59.7046C41.1 60.3077 39.1 59.9057 38.4 60.4082C37.9 61.0113 38.1107 68.2482 38.1107 68.2482C38.1107 68.2482 42.1 67.6451 44.5 65.5344C47 63.4236 47 61.0113 47 61.0113L46.9 57.1918"/>
	<path fill="#2D1B0A" d="M37.2064 69.4544L37.2064 68.3487C37 60.7098 37.5 60.1067 37.7 59.8052C38.4 59.2021 39.3 59.1016 40.3 59.1016C41.1 59.1016 41.9 59.0011 42.7 58.8C43.8 58.398 45.7 56.9908 46.3 56.4882L48.1 56.2872L48.1 61.1118C48.1 61.2123 48.1 64.0267 45.2 66.439C42.7 68.7508 38.6 69.3539 38.4 69.3539L37.2064 69.4544M39.2 61.2123C39.1 62.1169 39.1 64.6298 39.1 67.0421C40.3 66.7405 42.4 66.0369 43.7 64.8308C45.9 63.0216 45.9 61.1118 45.9 61.0113L45.9 59.1016C45.1 59.7046 44.1 60.3077 43.2 60.6093C42.1 60.9108 41.1 61.0113 40.2 61.0113C40 61.1118 39.5 61.1118 39.2 61.2123"/>
	<path fill="#FF4646" d="M32.8 49.6533C32.8 49.6533 36.8 51.7641 40.8 49.6533C40.8 49.6533 39.7 52.4677 37 52.4677C34.4 52.4677 32.8 49.6533 32.8 49.6533"/>
	<path fill="#351F21" d="M32.1 38.2954C32.1 39.5016 31.2 40.4062 30.2 40.4062C29.1 40.4062 28.3 39.5016 28.3 38.2954C28.3 37.0892 29.2 36.1846 30.2 36.1846C31.2 36.1846 32.1 37.0892 32.1 38.2954M45.4 38.2954C45.4 39.5016 44.5 40.4062 43.5 40.4062C42.4 40.4062 41.6 39.5016 41.6 38.2954C41.6 37.0892 42.5 36.1846 43.5 36.1846C44.5 36.1846 45.4 37.0892 45.4 38.2954"/>
	<path fill="#603417" d="M49.8 31.8626C49.8 31.8626 46.5 30.958 39.9 31.9631C39.9 31.8626 46.8 29.0483 49.8 31.8626"/>
	<path fill="#603417" d="M23.8 31.963C26.8 29.0482 33.7 31.8625 33.7 31.8625C27 30.9579 23.8 31.963 23.8 31.963"/>
</svg>
