<?xml version="1.0" encoding="utf-8" ?>
<svg xmlns="http://www.w3.org/2000/svg" xmlns:xlink="http://www.w3.org/1999/xlink" width="96" height="96">
	<path fill="white" d="M0 96L0.404636 92.1881C0.404636 91.6865 0.404636 91.185 0.404636 90.5831C0.505796 89.0784 0.505796 88.0752 0.303477 87.5737C0.202318 84.2633 1.11275 79.7492 1.92202 76.6395C2.12434 75.837 2.12434 75.3354 2.12434 73.931C2.12434 72.1254 2.12434 69.5172 2.63014 65.3041C3.54057 55.674 8.19389 52.2633 10.3182 51.1599L21.6481 48.5517C22.862 48 31.3593 46.2445 33.079 45.9436L34.1918 45.7429L33.8883 44.6395C33.686 43.9373 33.3825 43.0345 33.1802 42.5329C30.7524 40.7273 30.4489 38.8213 30.3477 37.5172C30.3477 37.116 30.2466 36.7147 30.1454 36.0125C30.0443 35.6113 29.9431 35.0094 29.9431 34.9091C29.235 33.0031 28.628 30.5956 29.3361 28.1881C28.5269 24.6771 28.2234 21.9687 28.7292 19.5611C29.6396 13.7429 32.1686 9.12853 36.1138 5.81818C39.1486 3.0094 45.3193 0 50.7819 0C55.2329 0.401254 59.3804 2.50784 63.0221 6.11912C63.2244 6.31975 63.4268 6.42006 63.9326 6.82132C65.2476 7.62382 68.2824 9.42947 69.5975 11.6364C72.1264 15.7492 72.1264 28.2884 72.1264 28.3887C72.5311 29.8934 72.3288 31.2978 71.7218 32.8025C71.1149 34.3072 70.8114 35.511 70.8114 36.9154C70.8114 39.0219 70.2044 40.5266 68.8894 41.7304C68.2824 42.3323 67.9789 42.5329 67.4731 42.6332L66.765 44.6395C70.5079 45.2414 72.5311 45.9436 73.4415 46.3448C73.6438 46.4451 73.8462 46.4451 73.9473 46.5455L77.7914 48.1505C78.6006 48.2508 84.4679 49.5549 85.9852 50.1567C87.6038 50.8589 93.0664 53.9687 93.8757 64.3009C94.1791 67.511 94.078 69.7179 94.078 71.3229C94.078 71.8245 94.078 72.2257 94.078 72.627C93.8757 74.0313 93.8757 74.8339 94.078 75.6364C95.0896 78.3448 95.7977 89.6803 96 95.0972L3.84405 95.6991L0 95.6991"/>
	<path fill="#F3CAB0" d="M40.9695 48.3512C42.5881 48.1506 43.9032 48.1506 45.4205 47.8497C48.5565 47.1475 52.4005 47.3951 56.7504 47.8497C63.3257 48.5518 71.115 50.2572 71.3173 50.2572C71.115 50.0565 74.4532 51.0597 76.881 51.8622C79.1065 52.5644 83.1529 52.9656 84.9738 53.8685C86.7946 54.5707 90.234 57.2791 90.841 65.1035C91.5491 72.928 90.3352 74.232 91.3468 77.4422C92.4595 80.3512 92.9653 84.5643 92.9653 86.37C92.763 88.3763 92.9653 92.3888 92.9653 92.3888L51.9959 92.3888L4.4511 92.8904C4.4511 92.8904 4.9569 88.8779 4.4511 87.0723C4.4511 85.0659 5.15921 80.8528 6.06965 77.9436C6.87892 75.0347 5.86733 73.7305 6.77776 65.9061C7.48587 58.0816 10.8241 55.3732 12.645 54.5707C14.4659 53.8685 18.2087 53.2666 20.7377 52.5644C23.2667 51.8622 26.3015 50.9594 26.0992 51.2603C26.6049 50.7587 34.293 48.9531 40.9695 48.3512"/>
	<path fill="#2D1B0A" d="M3.3383 93.7931L3.43946 92.6897C3.54062 91.5862 3.8441 88.5768 3.43946 87.2728C3.43946 84.9655 4.14757 80.5518 5.058 77.5423C5.46264 76.3386 5.36148 75.4358 5.36148 73.8308C5.36148 72.1254 5.26032 69.8182 5.66496 65.7054C6.37307 57.0784 10.4194 54.3699 12.1391 53.5674C13.3531 53.0659 15.1739 52.7649 16.9948 52.2634C18.2087 51.9624 19.3214 51.7618 20.333 51.4608C20.94 51.2602 21.5469 51.1599 22.1539 50.9593C24.2782 50.3574 25.2898 50.0565 25.8968 50.0565C28.1223 49.254 35.3046 47.8496 40.7672 47.2477C41.3741 47.1474 41.9811 47.1474 42.588 47.0471C43.4985 46.9467 44.3077 46.9467 45.2182 46.7461C48.0506 46.1442 51.49 46.1442 56.7503 46.7461C62.1117 47.2477 68.2825 48.5518 70.508 49.0533C70.8114 49.1536 71.1149 49.1536 71.2161 49.1536C71.9242 49.254 73.2392 49.6552 76.1729 50.558C77.8926 51.0596 79.0053 51.3605 80.2192 51.5612C82.1413 51.9624 84.0633 52.3637 85.2772 52.8652C87.9073 53.8684 91.1444 57.4797 91.7514 64.9029C92.0548 68.8151 91.9537 71.1223 91.8525 72.8276C91.7514 74.5329 91.7514 75.5361 92.156 77.0408C93.2688 79.8496 93.7745 84.2634 93.7745 86.2696C93.5722 88.2759 93.7745 92.1881 93.7745 92.2884L93.7745 93.2916L51.7935 93.2916L3.3383 93.7931M5.5638 86.8715C5.86728 88.2759 5.76612 90.4828 5.66496 91.7869L51.9958 91.2853L91.9537 91.2853C91.9537 89.8809 91.8525 87.5737 91.9537 86.1693C91.9537 84.6646 91.4479 80.4514 90.4363 77.743C89.9305 75.837 89.9305 74.6333 90.0317 72.8276C90.1328 71.2226 90.234 68.9154 89.9305 65.1035C89.2224 56.8778 85.4795 55.0721 84.6702 54.7712C83.6586 54.2696 81.7366 53.8684 80.0169 53.5674C78.803 53.3668 77.5891 53.0659 76.6787 52.8652C74.2508 52.163 72.1265 51.4608 71.5195 51.2602C71.3172 51.2602 71.2161 51.2602 70.3056 51.0596C67.979 50.558 61.9094 49.3543 56.7503 48.8527C53.4121 48.4514 49.0622 48.1505 45.8251 48.8527C44.8135 49.0533 43.9031 49.1536 42.9927 49.1536C42.4869 49.1536 41.8799 49.254 41.273 49.3543C34.8999 49.9561 27.8188 51.5612 26.8072 52.0627L21.7493 56.0753L23.9748 52.7649C23.5701 52.8652 23.2666 52.9655 22.9632 53.0659C22.3562 53.2665 21.6481 53.4671 21.0411 53.5674C20.0296 53.8684 18.8156 54.069 17.6017 54.3699C15.882 54.7712 14.0612 55.1724 13.0496 55.4734C11.7345 56.0753 8.49741 58.3825 7.7893 66.0063C7.38466 70.0439 7.38466 72.2257 7.48582 73.9311C7.48582 75.5361 7.58698 76.7398 7.08119 78.2445C6.17076 80.8527 5.5638 84.8652 5.5638 86.8715"/>
	<path fill="#EAC3AA" d="M39.8567 47.348L39.8567 60.2884C39.8567 60.2884 42.2845 67.6113 50.883 67.9162C59.3804 68.1129 60.999 60.5894 60.999 60.5894L61.2013 48.2508L39.8567 47.348"/>
	<path fill="#EAC83B" d="M23.5195 51.4608C23.5195 51.4608 27.7682 55.1724 27.7682 65.906C27.7682 76.4389 27.7682 76.8401 25.745 78.8464C23.9242 80.8527 22.1033 79.5486 22.1033 79.5486L22.1033 92.489L76.3246 92.2884C76.3246 92.2884 76.3246 82.859 76.3246 82.2571C76.3246 81.6552 76.3246 78.5455 76.3246 78.5455C76.3246 78.5455 73.8968 78.0439 73.1887 73.3292C72.3794 68.4138 71.3678 64.4013 71.3678 58.5831C71.5701 52.7649 73.1887 50.558 73.1887 50.558C73.1887 50.558 70.7608 49.7555 67.3214 48.953C63.882 48.4514 61.4542 48.2508 61.4542 48.2508C61.4542 48.2508 63.2751 53.768 63.4774 58.4828C63.6797 63.1975 62.9716 71.4232 60.038 77.2414C56.902 83.2602 49.4163 84.8652 43.3467 80.6521C37.2772 76.4389 36.7714 66.8088 35.6586 59.185C34.5459 51.3605 36.7714 48.953 36.7714 48.953C36.7714 48.953 33.8378 49.1536 29.9937 49.7555C26.4531 50.7586 23.5195 51.4608 23.5195 51.4608"/>
	<path fill="#2D1B0A" d="M21.1423 93.4921L21.1423 77.5423L22.7608 78.746C22.9632 78.9467 23.9748 79.4482 24.9863 78.2445C26.706 76.4388 26.706 76.4388 26.706 65.9059C26.706 55.8746 22.862 52.163 22.7608 52.163L21.3446 50.8589L23.2666 50.4576C23.2666 50.4576 26.2003 49.7555 29.842 48.8526C33.686 48.1504 36.6196 47.9498 36.7208 47.9498L39.2498 47.7492L37.5301 49.5548C37.5301 49.5548 35.6081 51.862 36.6196 58.9843C36.7208 59.9874 36.9231 60.9906 37.0243 61.9937C37.9347 68.7147 38.9463 76.3385 43.9031 79.7492C46.7356 81.7555 49.8715 82.3573 52.9063 81.6551C55.6376 80.9529 57.7619 79.2476 59.077 76.7398C62.0106 71.0219 62.5164 62.5956 62.4152 58.4827C62.2129 53.9686 60.4932 48.5517 60.4932 48.5517L59.9874 47.1473L61.5048 47.1473C61.6059 47.1473 64.0338 47.4482 67.4732 47.9498C71.0137 48.7523 73.4416 49.5548 73.5427 49.5548L74.8578 49.9561L74.0485 51.0595C74.0485 51.0595 72.6323 53.1661 72.43 58.4827C72.43 63.1975 73.1381 66.8087 73.745 70.721C73.8462 71.5235 74.0485 72.2257 74.1497 73.0282C74.6555 76.8401 76.4763 77.3417 76.4763 77.3417L77.2856 93.1912L21.1423 93.4921M23.1655 80.9529L23.1655 91.4859L75.3636 91.2852L75.3636 79.1473C74.352 78.6457 72.7334 77.141 72.2277 73.4294C72.1265 72.6269 71.9242 71.9247 71.823 71.1222C71.1149 67.21 70.4068 63.4984 70.4068 58.4827C70.5079 54.6708 71.2161 52.3636 71.7219 51.0595C70.7103 50.7586 68.9906 50.257 67.0685 49.8558C65.3488 49.6551 63.8314 49.4545 62.8199 49.3542C63.4268 51.3605 64.3372 55.0721 64.4384 58.3824C64.6407 63.699 63.8314 71.8244 60.8978 77.5423C59.2793 80.5517 56.6491 82.7586 53.4121 83.5611C49.8715 84.4639 46.0274 83.5611 42.7904 81.3542C37.1254 77.442 36.0127 69.3166 35.1023 62.1943C35.0011 61.1912 34.7988 60.1881 34.6976 59.1849C33.9895 54.4702 34.4953 51.5611 35.1023 49.9561C33.8883 50.0564 32.1686 50.257 30.2466 50.6583C28.2234 51.1598 26.5037 51.5611 25.2898 51.862C26.706 53.8683 28.7292 58.0815 28.7292 65.7053C28.7292 76.3385 28.7292 77.0407 26.5037 79.3479C25.391 80.7523 24.1771 81.0533 23.1655 80.9529"/>
	<path fill="#FAD1B6" d="M36.4172 40.4263C36.4172 40.4263 38.238 45.9436 40.0589 47.7492C41.8798 49.3542 45.6227 53.5674 46.8365 53.9686C47.9493 54.6708 51.2876 55.0721 54.5247 54.4702C57.4583 53.9686 61.9092 47.7492 62.8197 46.4451C63.5278 45.1411 63.629 43.837 64.6405 40.627C64.8428 39.8244 66.4614 40.4263 67.0683 39.8244C68.3835 38.721 67.2708 36.1128 69.0916 32C70.9124 27.9875 65.4498 29.5925 65.3486 24.6771C64.8428 19.7617 63.7301 16.4514 59.4814 15.8914C55.0304 15.4483 52.0968 18.3574 50.4783 17.7555C49.1632 16.953 41.9809 15.8914 39.8566 16.953C37.8334 17.7555 37.8334 18.558 37.4288 20.3636C36.923 22.1693 36.923 25.279 36.1137 26.884C35.4056 28.6896 35.6079 33.605 35.6079 33.605C35.6079 33.605 34.2928 27.0846 33.1801 28.8903C32.0673 30.8965 33.1801 33.1034 33.6859 35.1097C34.394 37.116 33.8882 38.8213 35.3044 39.3229C36.316 39.4232 36.7207 40.4263 36.4172 40.4263"/>
	<path fill="#2D1B0A" d="M51.2875 55.7743C49.1632 55.7743 47.3423 55.3726 46.4319 54.8706C45.5214 54.4689 44.3075 53.264 41.7785 50.7537C40.8681 49.85 40.0588 48.9463 39.4519 48.4442C37.5299 46.5364 35.709 41.2146 35.6078 40.7126C35.4055 40.2105 35.2032 40.1101 35.0009 40.1101C33.3823 39.6081 33.18 38.2023 33.0789 36.9974C32.9777 36.3949 32.8765 35.7924 32.6742 35.19C32.5731 34.6879 32.4719 34.2863 32.2696 33.8846C31.7638 32.1776 31.1568 30.069 32.2696 28.1612C32.7754 27.2575 33.4835 27.3579 33.787 27.3579C33.9893 27.3579 34.2928 27.4583 34.7986 27.9604C34.8997 27.3579 35.0009 26.7554 35.2032 26.3538C35.709 25.4501 35.9113 23.9439 36.1136 22.5382C36.2148 21.6344 36.316 20.7307 36.5183 19.9275C37.0241 17.7184 37.4287 16.8147 39.5531 15.8106C41.8797 14.7469 49.1632 15.6098 50.984 16.7143C51.2875 16.8147 52.1979 16.4131 53.0072 16.1118C54.6258 15.4089 56.8513 14.5052 59.6837 14.7469C64.8428 15.4089 66.0567 19.827 66.4614 24.446C66.5625 26.3538 67.473 26.9562 68.5857 27.6591C69.6985 28.362 71.4182 29.4665 70.2043 32.278C69.2938 34.1859 69.1927 35.7924 69.0915 37.0978C68.9903 38.4031 68.8892 39.6081 67.9788 40.4113C67.473 40.9134 66.6637 41.0138 66.0567 41.0138C65.9556 41.0138 65.8544 41.0138 65.7533 41.0138C65.4498 42.0179 65.2475 42.8212 65.0451 43.5241C64.6405 44.9299 64.4382 45.8336 63.9324 46.8377C60.0883 52.1595 57.0536 54.971 54.8281 55.3726C53.513 55.6739 52.4003 55.7743 51.2875 55.7743M37.5299 40.4113C38.1368 42.1183 39.5531 45.7331 40.767 47.0385C41.3739 47.5405 42.2843 48.4442 43.1948 49.348C44.4087 50.6533 46.533 52.7619 47.14 52.9628C48.1516 53.5652 51.1863 54.0673 54.3223 53.4648C54.9292 53.3644 57.2559 52.5611 62.0104 45.934C62.415 45.2311 62.6173 44.4278 62.9208 43.1225C63.1231 42.4196 63.3254 41.5159 63.7301 40.4113C63.9324 39.3068 65.2475 39.2064 65.8544 39.2064C66.0567 39.2064 66.4614 39.2064 66.4614 39.106C66.7648 38.8048 66.866 38.2023 66.9672 37.0978C67.0683 35.692 67.2706 33.8846 68.2822 31.5752C68.8892 30.2698 68.5857 30.1694 67.473 29.4665C66.2591 28.7636 64.5393 27.6591 64.4382 24.7472C63.9324 19.325 62.6173 17.3168 59.4814 16.9151C57.2559 16.7143 55.3339 17.4172 53.8165 18.0196C52.5014 18.5217 51.2875 19.0238 50.1748 18.6221C48.9608 17.9192 42.082 16.9151 40.3623 17.7184C39.0473 18.3209 38.9461 18.6221 38.5415 19.9275C38.238 21.032 38.1368 21.8353 38.0357 22.739C37.8333 24.2451 37.631 25.8517 37.0241 27.0567C36.5183 28.4624 36.6194 31.9768 36.6194 33.2822L34.5963 33.483C34.2928 32.278 33.9893 30.9727 33.6858 30.1694C33.5847 31.0731 33.8881 32.1776 34.1916 33.2822C34.2928 33.6838 34.4951 34.1859 34.5963 34.5875C34.7986 35.2606 34.8997 35.9933 35.0009 36.5957C35.2032 37.7002 35.2032 38.0015 35.5067 38.1019C36.7206 38.4031 37.631 39.6081 37.5299 40.4113M65.6521 40.813C65.6521 40.813 65.5509 40.813 65.6521 40.813C65.5509 40.813 65.6521 40.813 65.6521 40.813"/>
	<path fill="#454545" d="M36.9231 37.1158C36.9231 37.1158 35.3046 31.2978 36.9231 26.884C38.5417 22.4701 35.8104 17.1535 42.2846 17.1535C48.8599 17.1535 51.2877 18.7586 51.2877 18.7586C51.2877 18.7586 59.1781 15.047 61.9094 17.1535C64.843 19.3605 64.843 24.2758 65.0454 26.583C65.2477 28.7899 66.6639 30.9967 66.1581 33.3039C65.6523 35.7115 64.843 38.6205 64.843 38.6205C64.843 38.6205 68.8894 31.2978 69.294 28.0877C69.4964 24.978 69.0917 16.8526 67.2709 13.8432C65.45 10.9341 62.8199 10.4325 61.4036 9.42937C60.0886 8.1253 56.6492 4.21307 50.7819 3.89945C44.7124 3.7115 41.273 5.9184 38.3394 8.62686C35.2034 11.235 32.9779 15.1473 32.2698 20.163C31.5617 25.0783 33.3826 29.0909 34.0907 30.6959C34.6976 31.7992 36.9231 37.1158 36.9231 37.1158"/>
	<path fill="#2D1B0A" d="M61.4036 46.9467L63.9326 38.3177C63.9326 38.3177 64.7419 35.4079 65.2477 32.9998C65.45 31.8961 65.1465 30.6921 64.7419 29.488C64.4384 28.585 64.1349 27.682 64.1349 26.6786C64.1349 26.4779 64.1349 26.1769 64.0338 25.8759C63.8314 23.5681 63.6291 19.7553 61.3025 17.9493C59.7851 16.7452 54.7271 18.2503 51.6924 19.655L50.6808 19.5546C50.6808 19.5546 48.2529 18.1499 42.1834 18.1499C38.6428 18.1499 38.6428 19.655 38.4405 22.6651C38.3394 24.0698 38.3394 25.6752 37.7324 27.1803C36.215 31.1938 37.7324 36.8126 37.7324 36.8126L35.8104 37.515C35.7092 37.3143 33.4837 32.0968 33.0791 30.8927C32.2698 28.886 30.5501 24.7722 31.1571 19.8557C31.764 14.8388 33.9895 10.6246 37.5301 7.61453C40.3625 4.90543 44.0043 2.49734 50.6808 2.6863C56.548 3.09936 60.1897 6.7115 61.7071 8.21655C62.2129 8.6179 62.7187 8.81858 63.2245 9.11959C64.6407 9.82195 66.5627 10.725 67.979 13.1331C70.1033 16.7452 70.3056 25.3742 70.1033 27.983C69.6987 31.3944 65.6523 38.6187 65.5511 38.9197L61.4036 46.9467M59.4816 15.4408C60.6955 15.4408 61.8083 15.6415 62.6175 16.3439C65.5511 18.6516 65.8546 23.0664 66.0569 25.6752C66.0569 25.9762 66.0569 26.1769 66.1581 26.4779C66.2593 27.2806 66.4616 28.0833 66.7651 28.886C66.9674 29.6887 67.2709 30.4914 67.372 31.3944C67.8778 30.09 68.3836 28.7857 68.4848 27.983C68.6871 24.6718 68.1813 17.0462 66.6639 14.3371C65.5511 12.5311 64.0338 11.8287 62.7187 11.1263C62.1117 10.8253 61.6059 10.5243 61.1001 10.2233C59.1781 8.31689 56.1434 5.20644 50.9842 4.90543C45.4205 4.70475 42.2846 6.51082 39.3509 9.32026C36.1138 12.0294 34.1918 15.7418 33.5849 20.257C32.9779 24.6718 34.5965 28.4846 35.2034 30.09C35.3046 30.3911 35.4057 30.4914 35.4057 30.5917C35.5069 29.2873 35.7092 27.983 36.1138 26.6786C36.6196 25.4745 36.6196 24.0698 36.7208 22.6651C36.822 19.7553 37.0243 16.2435 42.4869 16.2435C47.646 16.2435 50.4784 17.2469 51.49 17.7486C52.7039 16.9459 56.4468 15.4408 59.4816 15.4408"/>
	<path fill="#F37A64" d="M9.2054 75.4356C9.2054 66.0062 17.0958 58.1817 26.9082 58.1817C36.6195 58.1817 44.4088 66.0062 44.4088 75.4356C44.4088 85.0658 36.5184 92.7908 26.9082 92.7908C17.0958 92.8902 9.2054 85.0658 9.2054 75.4356"/>
	<path fill="#2D1B0A" d="M27.0094 93.8934C16.6912 93.8934 8.295 85.6677 8.295 75.5361C8.295 65.5047 16.6912 57.279 27.0094 57.279C37.2265 57.279 45.5216 65.4044 45.5216 75.5361C45.5216 85.6677 37.2265 93.8934 27.0094 93.8934M27.0094 59.2853C17.804 59.2853 10.3182 66.5078 10.3182 75.5361C10.3182 84.5643 17.804 91.8872 27.0094 91.8872C36.1138 91.8872 43.4984 84.5643 43.4984 75.5361C43.4984 66.5078 36.1138 59.2853 27.0094 59.2853"/>
	<path fill="#3E3938" d="M27.1106 60.3888C31.1571 61.4922 31.8652 64.4013 32.0675 65.906C33.1803 65.906 34.2929 66.1066 35.7093 66.6082C35.7093 66.8088 35.7093 67.1098 35.7093 67.3104C34.9 67.1098 33.4837 66.8088 32.0675 66.6082C31.8652 70.8214 27.8187 73.9311 27.8187 73.9311C27.313 74.4326 20.6365 79.9499 20.6365 79.9499C16.1855 83.5612 13.8588 86.8715 13.8588 86.8715C13.6565 84.8653 17.5006 81.5549 17.5006 81.5549C19.3214 79.5486 27.313 72.8276 27.313 72.8276C29.9431 70.4201 30.9548 68.1129 31.0559 66.3073C29.0327 66.1066 27.0096 66.1066 24.9864 66.3073C24.9864 66.3073 18.9168 66.5079 13.353 69.9185C13.353 69.9185 10.4194 71.7242 9.61015 74.6333C9.61015 74.6333 10.1159 68.1129 22.2551 65.906C22.2551 65.906 26.3014 65.2038 31.0559 65.7054C30.8535 63.4985 29.4374 62.0941 29.4374 62.0941C24.9864 58.3825 18.6133 60.4891 18.6133 60.4891C22.7608 58.5831 27.1106 60.3888 27.1106 60.3888M32.4721 59.185C32.4721 59.185 35.1022 61.1913 35.6081 67.2101C35.8103 67.2101 36.1138 67.4107 36.3162 67.4107C36.1138 62.7963 34.4953 59.8872 32.4721 59.185M35.6081 67.2101C35.6081 69.0157 35.4058 71.4232 34.9 74.3323C32.2697 86.8715 27.2118 92.1881 23.469 92.3888C23.469 92.3888 27.1106 93.6928 30.8535 87.4734C30.8535 87.4734 35.3046 79.8496 36.215 71.6239C36.215 70.0189 36.4174 68.5142 36.215 67.4107C36.1138 67.2101 35.8103 67.2101 35.6081 67.2101M38.0359 67.9123C38.5416 68.1129 38.8451 68.4138 39.351 68.6145C39.351 68.4138 39.351 68.1129 39.351 67.9123C38.8451 67.7117 38.6428 67.7117 38.6428 67.7117C37.9347 67.2101 37.0243 66.9091 36.215 66.6082C36.215 66.8088 36.215 67.1098 36.215 67.4107C37.429 67.7117 38.0359 67.9123 38.0359 67.9123M40.0591 63.8997C40.0591 63.8997 38.9463 63.6991 39.351 67.9123C39.5532 68.1129 39.5532 68.1129 39.8568 68.4138C39.8568 67.0095 39.8568 64.6019 40.0591 63.8997M39.452 68.6145C39.452 72.0251 40.2613 75.1348 40.7672 77.0408C41.2729 78.9468 42.5881 83.2602 39.1487 88.2759C39.1487 88.2759 42.8914 85.3668 41.5765 77.743C41.5765 77.743 39.9579 71.022 39.9579 68.8151C39.8568 68.8151 39.6544 68.6145 39.452 68.6145M44.6112 73.7305C44.4088 71.1223 40.9695 68.8151 39.351 67.9123C39.351 68.1129 39.351 68.6145 39.351 68.6145C42.9926 70.6207 44.6112 73.7305 44.6112 73.7305"/>
	<path fill="#AA6363" d="M45.844 41.7304C45.844 41.7304 52.0969 42.232 58.0653 41.7304C58.0653 41.7304 59.178 47.9499 52.5015 47.9499C44.6111 47.9499 45.844 41.7304 45.844 41.7304"/>
	<path fill="#2D1B0A" d="M52.5016 48.953C49.5679 48.953 47.4436 48.1505 46.1285 46.5455C44.3077 44.3386 44.8175 41.6301 44.8175 41.5298L46.0274 40.627C46.1285 40.627 52.1981 41.1286 57.9641 40.627L59.0769 41.5298C59.0769 41.6301 59.5827 44.7398 57.7618 46.9467C56.5479 48.2508 54.8282 48.953 52.5016 48.953M46.8366 42.7336C46.8366 43.4358 47.039 44.4389 47.6459 45.2414C48.5563 46.3449 50.1749 46.8464 52.4004 46.8464C54.1201 46.8464 55.334 46.3449 56.0421 45.5424C56.7502 44.6395 56.9525 43.5361 56.9525 42.7336C52.805 43.0345 48.6575 42.8339 46.8366 42.7336"/>
	<path fill="#351F21" d="M39.0474 25.8809C39.0474 25.6802 39.2497 25.3793 39.3509 25.1787C39.3509 25.0784 39.452 25.0784 39.5532 24.978C39.6544 24.8647 39.8567 24.8647 40.059 24.8647C42.4868 24.8647 45.117 25.279 47.6459 25.6802C47.8483 25.6802 48.0506 25.7805 48.2529 25.7805C48.7587 25.9812 48.7587 26.2821 48.6575 26.5831"/>
	<path fill="#351F21" d="M63.9325 25.9812C63.8314 25.7806 63.7302 25.4796 63.6291 25.279C63.6291 25.1787 63.5279 25.1787 63.4268 25.0784C63.3256 24.9586 63.1233 24.9586 62.921 24.9586C60.6954 24.9586 58.3688 25.1787 56.1433 25.58C55.941 25.58 55.7387 25.6803 55.6375 25.6803C55.2329 25.8809 55.2329 26.1818 55.2329 26.4828"/>
	<path fill="#351F21" d="M61.4036 31.7994C61.4036 32.6304 60.4072 33.3041 59.1781 33.3041C57.949 33.3041 56.9526 32.6304 56.9526 31.7994C56.9526 30.9684 57.949 30.2947 59.1781 30.2947C60.4072 30.2947 61.4036 30.9684 61.4036 31.7994"/>
	<path fill="#351F21" d="M46.432 31.7994C46.432 32.6304 45.4356 33.3041 44.2065 33.3041C42.9774 33.3041 41.981 32.6304 41.981 31.7994C41.981 30.9684 42.9774 30.2947 44.2065 30.2947C45.4356 30.2947 46.432 30.9684 46.432 31.7994"/>
	<path fill="#EF7373" d="M47.7471 45.9436C48.6575 46.9467 50.4784 47.5486 52.0969 47.5486C53.8166 47.5486 55.6375 46.9467 56.5479 45.9436C55.334 45.0407 48.8598 45.0407 47.7471 45.9436"/>
	<path fill="white" d="M46.3421 42.232C46.3421 42.232 51.0853 42.4326 52.7039 42.3323C54.3224 42.3323 57.4584 42.1316 57.4584 42.1316C57.4584 42.1316 57.6607 43.2351 57.4584 43.6363C57.3572 43.837 54.0189 44.0376 52.0969 43.9373C50.1749 43.9373 46.3421 43.9373 46.3421 43.9373C46.3421 43.9373 46.2297 42.6332 46.3421 42.232"/>
</svg>
