<?xml version="1.0" encoding="utf-8" ?>
<svg xmlns="http://www.w3.org/2000/svg" xmlns:xlink="http://www.w3.org/1999/xlink" width="92" height="94">
	<path fill="white" d="M42.2212 93.3987L0 93.3987L0 90.3923C0 86.5842 0.3023 82.3753 2.61993 77.6652C5.03834 72.0533 11.7897 67.8443 17.1303 65.2388C19.1457 64.3369 21.7656 63.0341 24.184 61.6311C22.874 60.629 21.9671 59.1258 21.5641 57.322C21.4633 56.3198 21.5641 54.9168 22.471 51.6098C23.3779 48.7036 23.6802 40.6866 22.471 35.5757C22.2694 35.0746 22.1687 34.4733 22.0679 33.9723C21.4633 34.4733 19.9518 35.4755 17.3319 35.4755C14.2081 35.4755 12.8981 34.2729 12.3943 33.5714L11.8905 31.5672C12.2935 26.8571 14.1073 22.4478 15.6188 19.5416C16.0219 18.8401 16.3242 18.1386 16.7273 17.5373L3.22453 13.7292L45.0427 0L87.4655 13.9296L67.0099 19.4414L67.0099 22.0469C67.5137 23.5501 68.3198 27.0576 68.3198 34.2729C68.3198 42.8913 68.3198 47.6013 68.7229 49.4051C69.0252 51.5096 69.6298 54.7164 70.1336 55.919L70.3352 57.0213C70.3352 57.4222 70.4359 59.7271 68.7229 61.5309C68.5214 61.7313 68.2191 62.032 67.9168 62.2324C68.3198 62.4328 68.6221 62.6333 69.0252 62.7335C69.9321 63.1343 70.7382 63.5352 71.4436 63.936C72.149 64.3369 73.0559 64.6375 74.1643 65.1386C77.8927 66.6418 83.6364 68.9467 87.3647 74.6588C91.8992 81.4733 92 90.0917 92 90.3923L92 93.3987L50.8872 93.3987L42.4228 94"/>
	<path fill="#454545" d="M56.2278 58.9254C57.8401 60.7292 66.3045 64.6375 69.9321 66.4413C73.4589 68.2452 80.5126 69.6481 84.644 76.0619C88.7754 82.1749 88.7754 90.1918 88.7754 90.1918L2.9222 90.1918C2.9222 86.985 3.12373 83.0768 5.23983 78.7675C7.05363 74.4584 12.5958 70.55 18.3395 67.8443C24.2847 65.1386 35.0668 58.9254 35.0668 58.9254L56.2278 58.9254"/>
	<path fill="#2D1B0A" d="M89.7831 91.194L1.9145 91.194L1.9145 90.1919C1.9145 86.5842 2.2168 82.6759 4.3329 78.2665C6.449 73.2558 12.8981 69.2473 17.8356 66.8422C23.7809 64.2366 34.3614 58.0234 34.4621 57.823L57.1347 57.823C58.7469 59.9275 64.4906 62.7335 67.9167 64.4371C68.8236 64.8379 69.6297 65.2388 70.2343 65.6396C71.0405 66.0405 71.9474 66.4413 73.0558 66.8422C76.7842 68.3454 81.9233 70.3497 85.2486 75.5607C89.4808 81.8742 89.5815 89.8912 89.5815 90.1919L89.5815 91.194M3.92983 89.1897L87.667 89.1897C87.4654 86.8848 86.8608 81.1727 83.7371 76.6631C80.7141 71.9531 76.0788 70.1492 72.4512 68.646C71.3428 68.2452 70.2343 67.7441 69.4282 67.3433C68.8236 67.0426 68.0175 66.6418 67.1106 66.2409C61.7699 63.6354 57.2354 61.4307 55.6232 59.9275L35.2683 59.9275C33.656 60.9296 24.2847 66.2409 18.6418 68.7462C12.0919 71.9531 7.55744 75.661 6.1467 79.1684C4.43367 82.7761 4.0306 86.0831 3.92983 89.1897"/>
	<path fill="#454545" d="M25.6954 23.1493L44.7403 27.759L63.7853 22.548L63.7853 15.4328L44.7403 20.7441L25.6954 15.4328"/>
	<path fill="#2D1B0A" d="M44.7404 28.7612L24.6878 23.951L24.6878 14.0299L44.7404 19.6418L64.7929 14.0299L64.7929 23.2495L44.7404 28.7612M26.7031 22.4478L44.7404 26.757L62.7776 21.8465L62.7776 16.8358L44.7404 21.8465L26.7031 16.8358L26.7031 22.4478"/>
	<path fill="#684B2A" d="M44.7888 27.9594L63.8337 22.4477C63.8337 22.4477 65.1437 24.953 65.1437 34.0723C65.1437 43.3923 65.1437 47.7014 65.6475 49.8059C65.6475 49.8059 66.3529 54.8166 67.262 56.921C67.262 56.921 67.4613 60.1278 64.0353 60.1278C64.0353 60.1278 62.7253 60.1278 60.8107 59.4263C60.8107 59.4263 56.9816 57.4221 45.595 57.4221C34.4099 57.6225 31.8907 59.4263 31.8907 59.4263C31.8907 59.4263 31.3869 59.6268 29.3715 59.9273C27.3562 60.1278 25.0386 59.4263 24.3332 56.42C24.3332 56.42 24.3332 55.2174 25.2401 52.1107C26.4493 48.6034 26.5501 39.7846 25.2401 34.4733C23.6278 29.4626 25.0386 23.7504 25.7439 23.0489L44.7888 27.9594"/>
	<path fill="#2D1B0A" d="M64.1377 61.2303C64.037 61.2303 62.6262 61.2303 60.6108 60.5288C60.51 60.4286 56.5799 58.5245 45.7974 58.5245C35.3172 58.7249 32.6972 60.3283 32.5964 60.3283C32.2941 60.5288 31.6895 60.7292 29.674 60.9296C26.4494 61.2303 24.2324 59.6268 23.527 56.7207C23.527 56.42 23.527 55.1173 24.4339 51.9104C25.5424 48.6034 25.744 39.9851 24.4339 34.8742C22.8216 29.8635 24.1316 23.5501 25.1393 22.4478L44.7897 26.9573L64.3393 21.3454C64.8431 22.3475 66.2539 25.0533 66.2539 34.1727C66.2539 43.1919 66.2539 47.7015 66.7578 49.7057C66.7578 49.806 67.4632 54.7164 68.3701 56.6205C68.473 57.2217 68.5717 58.8251 67.3624 60.0277C66.4555 60.8294 65.4478 61.2303 64.1377 61.2303M61.3161 58.6247C62.9285 59.226 64.1377 59.226 64.1377 59.226C64.8431 59.226 65.4478 59.0256 65.7501 58.6247C66.1532 58.1237 66.2539 57.5224 66.2539 57.2217C65.2462 54.9168 64.6416 50.2068 64.6416 50.0064C64.1377 47.9019 64.1377 43.5927 64.1377 34.0725C64.1377 27.9595 63.5331 24.9531 63.13 23.6503L44.6889 28.9616L26.2478 24.2516C25.744 25.7548 24.9378 30.1642 26.2478 34.1727C27.6586 39.7846 27.4571 48.8038 26.2478 52.4115C25.5424 54.8166 25.4417 56.0192 25.4417 56.3198C26.0463 58.7249 27.8602 59.0256 29.3717 58.9254C30.7825 58.7249 31.3871 58.6247 31.5887 58.5245C32.3949 58.1237 35.6195 56.6205 45.6966 56.42C56.4791 56.5202 60.7115 58.3241 61.3161 58.6247"/>
	<path fill="white" d="M44.9419 80.1705L34.3614 57.6226L28.8193 59.6268L41.7174 89.9915L44.7403 89.9915L44.7403 80.1705"/>
	<path fill="#2D1B0A" d="M45.7481 90.9936L41.1128 90.9936L27.6101 59.0256L34.966 56.3198L46.5541 81.1727L45.7481 90.9936M42.4228 88.9893L43.7327 88.9893L43.7327 79.9701L33.8576 58.8251L30.23 60.1279L42.4228 88.9893"/>
	<path fill="white" d="M44.942 80.4713L56.4294 57.7229L62.3745 60.0278L48.6703 90.3923L45.1435 90.5928L45.1435 80.5714"/>
	<path fill="#2D1B0A" d="M44.2366 91.6951L44.2366 81.3732L55.9255 56.5203L63.7853 59.5267L49.3757 91.3945L44.2366 91.6951M46.2519 80.1706L46.2519 89.5907L48.0657 89.4904L61.0646 60.629L56.9332 59.0256L46.2519 80.1706"/>
	<path fill="#FAD1B6" d="M36.8806 52.6119C36.8806 52.6119 36.3768 57.6225 35.0668 58.9253L45.1435 80.5714L55.9255 58.9253C55.9255 58.9253 54.1117 54.8166 54.1117 52.3112L36.8806 52.6119"/>
	<path fill="#2D1B0A" d="M45.0427 82.8764L33.8576 58.725C35.1676 57.4222 35.6714 54.4158 35.8729 52.5118L55.1194 51.3092L55.1194 52.3113C55.1194 54.2154 56.4293 57.4222 56.8324 58.5246L45.0427 82.8764M36.1752 59.1258L45.1435 78.2666L54.8171 58.9254C54.414 57.9233 53.4063 55.4179 53.2048 53.3135L37.7875 53.6141C37.586 55.0171 37.1829 57.6226 36.1752 59.1258"/>
	<path fill="#FAD1B6" d="M32.5391 28.6609C32.5391 28.6609 36.0659 29.9637 44.9333 30.2644C53.9016 30.4648 60.7538 28.6609 60.7538 28.6609C60.7538 28.6609 63.0714 36.4776 60.7538 43.4925C58.4361 50.307 51.3825 56.3197 45.8402 56.3197C40.2981 56.3197 33.6475 52.5117 30.423 43.4925C27.1985 34.3731 31.6322 33.1705 32.5391 28.6609"/>
	<path fill="#2D1B0A" d="M45.8489 57.2216C40.5082 57.2216 33.0515 53.7142 29.5247 43.7931C27.1063 37.0788 28.7185 34.1726 30.1293 31.7675C30.7339 30.7654 31.2377 29.7632 31.54 28.5607L31.7415 27.3581L32.85 27.759C32.9507 27.759 36.3768 29.0617 44.942 29.3624C53.7087 29.5628 60.4601 27.759 60.4601 27.759L61.6693 28.3602C61.77 28.6609 64.0877 36.5777 61.6693 43.7931C59.2509 51.0084 51.8949 57.2216 45.8489 57.2216M33.253 29.9636C32.9507 31.066 32.4469 31.8677 31.9431 32.7696C30.6331 35.0745 29.3231 37.2792 31.4392 43.1918C34.6638 52.1108 41.2136 55.3176 45.8489 55.3176C50.988 55.3176 57.6386 49.5052 59.7547 43.1918C61.4677 37.8805 60.4601 32.1683 59.9562 29.8634C57.7393 30.3645 51.9956 31.4668 44.8412 31.2664C38.5937 31.066 34.8653 30.3645 33.253 29.9636"/>
	<path fill="#454545" d="M13.3011 13.4287L21.564 15.7336C20.8586 15.7336 15.4172 23.9511 14.7118 31.6675C14.7118 31.6675 15.2157 32.369 17.231 32.369C19.0448 32.369 19.9517 31.6675 19.9517 31.6675C19.9517 31.6675 20.4555 21.3455 22.6724 16.2346L44.9418 22.1472L76.8849 13.5289L44.9418 3.0065L13.3011 13.4287"/>
	<path fill="#2D1B0A" d="M17.1303 33.371C14.8126 33.371 14.0065 32.5693 13.805 32.2687C14.1073 26.1557 17.231 19.241 19.5487 16.2346L9.7743 13.5288L44.7403 2.0043L80.1095 13.629L44.7403 23.2495L23.0755 17.4371C21.2617 22.6482 20.7579 31.6674 20.7579 31.7676C20.3548 32.5693 19.2464 33.371 17.1303 33.371M15.7195 31.1663C16.0218 31.2666 16.4249 31.3668 17.1303 31.3668C17.9364 31.3668 18.541 31.1663 18.8433 31.0661C18.9441 29.1621 19.4479 22.6482 20.8586 17.9382C19.2464 20.4435 16.3241 25.855 15.7195 31.1663M28.4161 16.7356L44.8411 21.145L73.2573 13.4286L44.8411 4.10878L16.7272 13.3284L28.8192 16.7356"/>
	<path fill="#351F21" d="M55.724 36.177C55.724 37.2793 54.6156 38.1813 53.3056 38.1813C51.9956 38.1813 50.8872 37.2793 50.8872 36.177C50.8872 35.0747 51.9956 34.1727 53.3056 34.1727C54.6156 34.1727 55.724 35.1749 55.724 36.177"/>
	<path fill="#351F21" d="M42.1205 36.4776C42.1205 37.5799 41.0121 38.4819 39.7021 38.4819C38.3921 38.4819 37.2837 37.5799 37.2837 36.4776C37.2837 35.3753 38.3921 34.4733 39.7021 34.4733C41.0121 34.4733 42.1205 35.3753 42.1205 36.4776"/>
	<path fill="#EF7373" d="M42.2212 48.6034C42.2212 48.6034 42.4227 48.8038 42.2212 48.904C42.2212 48.904 42.725 50.1066 46.2519 50.1066C46.2519 50.1066 49.4764 50.2068 50.1818 48.904C50.1818 48.904 50.081 48.7036 50.081 48.6034C50.081 48.6034 46.5542 50.1066 42.2212 48.6034"/>
</svg>
