<?xml version="1.0" encoding="utf-8" ?>
<svg xmlns="http://www.w3.org/2000/svg" xmlns:xlink="http://www.w3.org/1999/xlink" width="90" height="106">
	<path fill="white" d="M0 106L0 102.856C0 101.943 0.807175 80.0325 5.24664 69.2804C5.54933 68.4689 8.47534 62.1799 14.2265 59.9483C14.5291 59.8469 21.3901 57.1081 25.9305 55.688L30.37 53.2536C30.7735 52.7464 31.5807 51.7321 32.7915 51.2249C30.2691 47.9789 28.7556 44.4287 27.9484 42.1971C25.2242 40.1684 24.7197 37.734 24.3161 36.3139C24.1143 35.5024 24.0135 35.1981 23.8117 34.6909C23.6099 34.1837 23.3072 33.4737 23.0045 32.5608C22.9036 30.6335 23.2063 29.6191 23.7108 28.8077C22.6009 25.4603 21.7937 20.7943 23.0045 16.4325C24.1143 12.4766 25.6278 10.0421 27.6457 9.02775C28.352 7.50622 32.6906 0 45.7063 0C46.2108 0 46.8161 0 47.3206 0C54.3834 0.304306 60.7399 3.95598 64.9776 10.245C68.509 15.3167 67.3991 25.2574 66.8946 28.6048C67.7018 29.9234 68.0045 31.445 67.7018 33.0679C67.2982 34.3866 66.7937 35.9081 66.1883 36.9225C66.0874 37.6325 65.8857 38.8498 64.7758 40.2699C64.4731 40.8785 63.9686 41.69 63.1614 42.2986C62.4552 46.0517 61.1435 48.8919 59.1256 51.5292C60.9417 51.9349 62.2534 53 62.7578 54.5722L64.3722 55.3837C65.9865 56.2967 70.3251 58.4268 73.352 59.7455C77.4888 61.6727 82.5336 64.7158 85.0561 71.2077C87.4776 77.0909 89.4955 100.117 89.6973 102.754L90 106L0 106"/>
	<path fill="#FAD1B6" d="M29.7334 30.7349L31.045 35.2995L31.045 39.5598C30.3388 39.7548 29.5316 39.5598 29.5316 39.5598C27.5136 38.0383 27.3118 36.2124 27.0092 34.9952C26.7065 33.6765 26.3029 33.1694 25.6975 31.445C25.6975 29.7206 27.5136 28.7062 29.7334 30.7349M61.2132 31.2421C59.1953 37.1254 59.3971 39.3569 59.3971 39.3569C61.2132 40.067 61.415 39.8641 62.1213 38.444C63.4329 37.1254 62.8275 36.2124 63.4329 35.5024C63.9374 34.7923 64.7446 32.5608 64.7446 32.5608C65.2491 29.6191 62.2222 28.7062 62.2222 28.7062C61.9195 29.2134 61.2132 31.2421 61.2132 31.2421"/>
	<path fill="#2D1B0A" d="M60.9417 40.7771C60.4372 40.7771 59.8318 40.5742 59.0246 40.2699C58.3184 39.2555 58.1166 36.821 60.1345 30.9378C60.1345 30.9378 60.8408 28.9091 61.0426 28.3005L62.2533 27.6919C63.6659 28.0976 66.0874 29.6191 65.482 32.6622C65.3811 33.1694 64.6749 35.1981 64.0695 36.0096C63.9686 36.111 63.9686 36.2124 63.9686 36.5167C63.8677 37.1254 63.7668 38.0382 62.8587 38.9511C62.4551 40.1684 61.8498 40.7771 60.9417 40.7771M60.4372 38.6469C60.7399 38.7484 60.8408 38.7484 60.8408 38.7484C60.8408 38.6469 61.1435 38.1398 61.2444 37.9369C61.9506 37.2268 62.0515 36.821 62.1524 36.3139C62.2533 35.9081 62.2533 35.401 62.6569 34.8938C62.9596 34.488 63.4641 33.1694 63.7668 32.2565C63.9686 31.1407 63.3632 30.4306 62.7578 30.0249C62.4551 30.7349 62.2533 31.5464 62.1524 31.6478C60.8408 35.401 60.5381 37.6325 60.4372 38.6469M30.3699 40.6756C29.7645 40.6756 29.361 40.5742 29.361 40.5742C26.9394 38.9511 26.5358 37.0239 26.2332 35.7052C26.0314 34.6909 25.8296 34.2852 25.6278 33.778C25.426 33.2708 25.2242 32.6622 24.9215 31.8507C24.9215 30.3292 25.5269 29.3148 26.5358 28.9091C27.1412 28.6048 28.6547 28.199 30.6726 30.0249L32.287 35.401L32.287 40.4728C30.9753 40.6756 30.6726 40.6756 30.3699 40.6756M29.9663 38.6469C30.0672 38.6469 30.0672 38.6469 29.9663 38.6469L29.9663 35.5024L28.8565 31.3435C28.0493 30.7349 27.4439 30.6335 27.1412 30.7349C26.9394 30.8363 26.7376 31.0392 26.7376 31.3435C26.9394 32.0536 27.1412 32.4593 27.343 32.9665C27.5448 33.4737 27.7466 34.0823 27.9484 34.7923C28.352 36.3139 28.6547 37.5311 29.9663 38.6469"/>
	<path fill="white" d="M55.1401 53.8115C57.4607 55.0287 62.6064 57.7675 62.6064 57.7675C62.6064 57.7675 68.1558 60.5062 71.889 62.2306C75.4203 63.8536 79.8598 66.4909 82.0795 72.0699C84.4002 77.6488 86.519 102.703 86.519 102.703L3.0773 102.703C3.0773 102.703 3.78358 80.5904 8.02125 70.244C8.02125 70.244 10.5437 64.4622 15.2858 62.5349C15.2858 62.5349 24.0638 58.9847 28.3015 57.8689L35.7679 53.8115L55.1401 53.8115"/>
	<path fill="#2D1B0A" d="M87.5785 103.667L2.018 103.667L2.018 102.653C2.018 101.74 2.72428 80.2354 6.96195 69.7875C7.06284 69.4832 9.78706 63.6 14.731 61.5712C15.1346 61.4698 23.509 58.021 27.7467 56.9052L35.314 52.8478L55.2915 52.8478C57.814 54.1665 62.9597 56.9052 62.9597 56.9052C62.9597 56.9052 68.509 59.644 72.2422 61.2669C76.2781 63.1942 80.6167 65.8315 82.9373 71.6134C85.3588 77.2937 87.3767 101.537 87.3767 102.551L87.5785 103.667M4.13683 101.638L85.3588 101.638C84.9552 96.7693 83.1391 77.1923 81.1211 72.4248C79.1032 67.2516 75.0673 64.8172 71.435 63.0928C67.8028 61.4698 62.1525 58.7311 62.1525 58.6296C62.0516 58.6296 57.3095 55.9923 54.888 54.7751L35.9193 54.8765L28.453 58.8325C24.3162 59.8468 15.6391 63.3971 15.5382 63.3971C11.3005 65.1215 8.87899 70.4976 8.87899 70.4976C5.3476 79.3224 4.33863 97.1751 4.13683 101.638"/>
	<path fill="#EAC2AC" d="M35.7174 48.689C35.7174 48.689 36.2219 51.022 36.2219 53.7608C36.2219 53.7608 38.038 57.5139 45.3026 61.977C45.3026 61.977 51.0537 59.2383 55.4932 53.7608C55.4932 53.7608 54.9887 50.5149 55.2914 48.689L35.7174 48.689"/>
	<path fill="#2D1B0A" d="M45.2018 63.1943C37.3318 58.3254 35.3139 54.4708 35.213 54.268C35.1121 51.2249 34.6076 48.9933 34.6076 48.9933L34.3049 47.7761L56.3004 47.7761L56.0986 48.9933C55.8968 50.4134 56.1995 52.9493 56.3004 53.7608C51.5583 59.9483 45.8071 62.7885 45.6053 62.89M37.2309 53.5579C37.7354 54.268 39.7533 57.311 45.4036 60.8613C46.8161 60.1512 51.0538 57.6153 54.4843 53.5579C54.3834 52.7464 54.1816 51.2249 54.2825 49.8048L37.0291 49.8048C37.0291 50.6163 37.2309 52.0364 37.2309 53.5579"/>
	<path fill="#4C4C4C" d="M42.6794 63.4987C42.6794 63.4987 44.2937 62.2814 45 62.2814C45.7063 62.2814 47.018 63.1944 47.5224 63.4987C47.5224 63.4987 49.8431 64.4116 50.2467 65.8317C50.7512 67.2518 47.7242 67.8604 47.7242 67.8604L50.4485 73.6423L45.1009 86.9303L39.5516 73.338L42.2758 67.759C42.2758 67.759 39.5516 67.759 39.7534 65.9331C40.157 65.7302 40.7623 64.4116 42.6794 63.4987"/>
	<path fill="#2D1B0A" d="M45.1009 88.3504L38.9462 73.4394L41.4686 68.2662C40.8632 68.1647 40.157 67.9619 39.6525 67.3532C39.2489 66.9475 39.148 66.4403 39.2489 65.8317C39.4507 65.426 39.6525 65.2231 39.7534 65.1217C40.2579 64.6145 40.9641 63.7016 42.3767 62.9915C42.8812 62.6872 44.1928 61.7743 45 61.7743C45.7063 61.7743 46.7153 62.3829 47.6233 62.8901C48.0269 63.093 50.3475 64.0059 50.7511 65.6289C50.852 65.9332 50.852 66.3389 50.6502 66.7446C50.2466 67.4547 49.1368 67.9619 48.4305 68.1647L51.0538 73.6422L45.1009 88.3504M40.0561 73.4394L45.1009 85.7131L49.944 73.7437L47.018 67.5561C48.3296 67.2518 49.5404 66.8461 49.7422 66.3389C49.8431 66.2375 49.8431 66.136 49.7422 66.0346C49.4395 65.0202 47.926 64.2087 47.3206 64.0059C46.6144 63.7016 45.4036 62.8901 44.8991 62.8901C44.5964 62.8901 43.5875 63.4987 42.8812 64.0059C41.5695 64.6145 40.9641 65.3245 40.4597 65.8317C40.3588 66.0346 40.2579 66.136 40.0561 66.2375C40.0561 66.4403 40.157 66.6432 40.2579 66.7446C40.6615 67.2518 41.7713 67.3532 42.074 67.3532L40.0561 73.4394"/>
	<path fill="#FAD1B6" d="M29.0583 31.6479C29.0583 31.6479 29.7646 34.3866 29.9664 38.9512C29.9664 38.9512 31.7826 45.9503 36.5247 50.9206C41.2669 55.4852 51.861 53.8622 55.1906 51.1235C58.1166 48.1819 59.731 44.8345 60.4373 39.1541C61.1435 33.5752 61.9507 32.8651 61.7489 31.0012L62.2534 20.8957L44.1929 8.2163L27.0404 19.1713L27.444 26.779L29.0583 31.6479"/>
	<path fill="#2D1B0A" d="M45.4036 54.7751C41.8722 54.7751 38.2399 53.8622 35.9193 51.6306C30.9754 46.5589 29.1592 39.5598 29.0583 39.2555C28.8565 34.8938 28.2511 32.2565 28.1502 31.9522L26.435 26.8804L26.0314 18.6641L44.2937 7.1005L63.3632 20.49L62.8588 31.0393C62.9597 32.155 62.7579 32.8651 62.5561 34.0823C62.3543 35.1981 61.9507 36.7196 61.648 39.2555C60.9417 44.9359 59.3274 48.4861 56.0987 51.7321C53.9798 53.4565 49.6413 54.7751 45.4036 54.7751M30.9754 38.8498C31.1771 39.6613 32.9933 45.8488 37.231 50.2105C41.4686 54.3694 51.5583 52.8479 54.4843 50.312C57.3094 47.4718 58.722 44.2259 59.4283 39.0527C59.8318 36.3139 60.1345 34.7924 60.4372 33.6766C60.7399 32.5608 60.8408 31.9522 60.7399 31.2421L61.2444 21.5043L44.1928 9.53495L28.0493 19.7799L28.352 26.6775L30.0673 31.445C30.0673 31.445 30.7736 34.2852 30.9754 38.8498"/>
	<path fill="white" d="M45.2019 102.45C45 101.943 35.2131 81.3513 24.7197 71.3092L32.6906 66.846L26.6368 66.3389C26.6368 66.3389 25.9305 60.0499 28.0493 57.514L33.5987 54.7752C33.5987 54.7752 36.8274 67.6575 45.2019 86.1188C53.4753 67.7589 56.805 54.7752 56.805 54.7752L62.3542 57.514C64.6749 60.0499 63.7668 66.3389 63.7668 66.3389L57.7131 66.846L65.6839 71.3092C55.1907 81.3513 45.5045 102.247 45.2019 102.45"/>
	<path fill="#2D1B0A" d="M44.6973 103.971L44.1928 102.856C44.0919 102.551 34.3049 82.0614 24.0135 72.1208L23.0045 71.2078L29.2601 67.759L25.7287 67.4547C25.5269 65.9332 24.9215 59.8471 27.2422 57.0069L34.2041 53.3552L34.5067 54.5724C34.5067 54.6739 37.5336 66.6432 45.2018 83.6844C52.7691 66.6432 55.8969 54.6739 55.8969 54.5724L56.1996 53.3552L63.0606 56.7026C65.7848 59.6442 64.8767 65.8318 64.7758 66.5418L61.1435 67.6576L67.3991 71.1064L66.3902 72.0193C57.713 80.337 49.6413 96.1609 46.9171 101.334C46.009 103.059 46.009 103.059 45.7063 103.261L44.6973 103.971M26.435 71.6136C34.9103 80.337 42.6794 95.0452 45.3027 100.218C48.0269 94.9437 55.5942 80.2356 64.0695 71.6136L54.3834 66.2375L62.9597 65.5274C63.1615 63.6002 63.1615 60.0499 61.8498 58.427L57.5112 56.2968C56.5023 59.9485 52.9709 71.5121 46.1099 86.5246L45.2018 88.5533L44.2937 86.5246C40.6615 78.5112 37.9372 71.5121 36.0202 66.1361L26.435 71.6136M27.5449 65.5274L36.0202 66.2375C34.4058 61.47 33.296 58.0212 32.8924 56.2968L28.6547 58.427C27.444 60.0499 27.444 63.4987 27.5449 65.5274"/>
	<path fill="#EDECE6" d="M45.2018 61.977C45.2018 61.977 40.157 63.6 38.4417 68.7732C38.4417 68.7732 33.3969 60.5569 33.7775 54.7751L36.1211 53.5579C36.222 53.6593 38.24 57.9196 45.2018 61.977M45.2018 61.977C45.2018 61.977 50.7512 63.3971 52.4664 68.7732C52.4664 68.7732 55.4933 62.2813 57.1077 54.7751C55.1906 53.6593 51.9619 58.021 45.2018 61.977"/>
	<path fill="#2D1B0A" d="M52.2492 71.6134L51.4422 69.0775C50.1304 64.9186 46.2963 63.3971 45.1866 63.0928C44.1776 63.4985 40.6461 65.2229 39.3345 69.1789L38.6282 71.2076L37.5183 69.3818C37.3166 69.0775 32.2717 60.8612 32.7407 54.7751L36.5094 52.2392C36.913 53.1521 38.83 57.0067 44.9847 60.7598C47.5071 59.2382 49.525 57.7167 51.1395 56.3981C53.8636 54.2679 55.6797 52.8478 57.3951 53.8622L57.8996 54.978C56.2851 62.4842 53.3591 68.8746 53.2582 69.1789L52.2492 71.6134M34.7941 55.4851C34.6932 59.2382 36.913 64.1071 38.3255 66.5416C39.6372 64.1071 41.6551 62.687 43.0676 61.8756C38.83 59.0354 36.7112 56.2966 35.8031 54.978L34.7941 55.4851M47.5071 61.7741C49.0205 62.4842 51.0386 63.9043 52.451 66.2373C53.3591 64.0057 54.7718 60.0497 55.7806 55.7894C54.9735 56.1952 53.7627 57.1081 52.5519 58.021C51.1395 59.1368 49.525 60.4555 47.5071 61.7741"/>
	<path fill="#5DDEE2" d="M34.7086 54.0651C34.7086 54.0651 29.7647 65.3244 32.8925 77.1925C32.8925 77.1925 33.397 76.9895 33.8006 78.4097C33.8006 78.4097 35.0113 84.4958 38.4418 87.9445C38.4418 87.9445 42.175 91.4949 45.202 91.4949C48.4306 91.4949 51.962 87.9445 51.962 87.9445C51.962 87.9445 54.2826 85.2058 55.8969 81.1483C55.8969 81.1483 56.0988 80.6413 56.6032 80.6413C56.6032 80.6413 58.6212 73.1349 59.1256 66.6432C59.1256 66.6432 59.1256 56.3982 57.9149 54.268C57.9149 54.268 59.9328 54.268 59.9328 55.6881C59.9328 55.6881 61.1437 59.9484 60.4373 66.9474C59.731 74.2507 58.823 78.6125 58.1168 81.2498C58.1168 81.2498 58.823 81.757 58.1168 83.0757C58.1168 83.0757 52.7691 92.2048 49.5405 96.3638C49.5405 96.3638 46.3118 100.117 45.8073 100.624C45.8073 100.624 43.9911 102.044 43.4866 100.624C43.4866 100.624 39.249 95.248 37.9373 93.1178C36.323 90.7848 31.8835 83.0757 31.1772 79.8298C31.1772 79.8298 30.471 78.4097 30.9754 78.0039C30.9754 78.0039 29.3611 71.0049 30.2692 64.7159C30.2692 64.7159 30.7737 60.4556 32.5898 55.3838C32.8925 54.6738 33.4979 53.3551 34.7086 54.0651M40.9642 92.8134C41.166 93.0163 44.6974 98.3924 45.202 98.3924C45.4038 98.3924 48.2289 94.4364 49.6413 93.3206C51.0539 92.1035 50.1459 92.1035 50.1459 92.1035C50.1459 92.1035 47.4216 93.3206 45.1011 93.3206C42.7803 93.3206 41.5696 92.4077 41.166 92.1035C40.5606 92.1035 40.5606 92.4077 40.9642 92.8134"/>
	<path fill="#351F21" d="M39.2488 31.5464C39.2488 32.3867 38.4809 33.0679 37.5336 33.0679C36.5863 33.0679 35.8184 32.3867 35.8184 31.5464C35.8184 30.7061 36.5863 30.0249 37.5336 30.0249C38.4809 30.0249 39.2488 30.7061 39.2488 31.5464"/>
	<path fill="#351F21" d="M54.4843 31.5464C54.4843 32.3867 53.7164 33.0679 52.7691 33.0679C51.8218 33.0679 51.0539 32.3867 51.0539 31.5464C51.0539 30.7061 51.8218 30.0249 52.7691 30.0249C53.7164 30.0249 54.4843 30.7061 54.4843 31.5464"/>
	<path fill="#EF7373" d="M40.5605 44.1244C40.5605 44.1244 40.7623 44.5301 40.5605 44.8344C40.5605 44.8344 41.3677 47.88 46.2107 47.88C46.2107 47.88 50.7511 48.0804 51.7601 44.8344C51.7601 44.8344 51.6592 44.4287 51.6592 44.1244C51.4574 44.1244 46.5134 47.9789 40.5605 44.1244"/>
	<path fill="#2D1B0A" d="M26.648 28.199C26.8498 28.199 31.3901 30.7349 31.3901 30.7349L26.648 29.2134C26.648 29.3148 26.2444 28.6048 26.648 28.199"/>
	<path fill="#2D1B0A" d="M42.9821 29.6191L47.2197 29.6191L47.2197 30.6335L42.7803 30.7349"/>
	<path fill="#2D1B0A" d="M63.1726 28.199C62.9708 28.199 58.4305 30.7349 58.4305 30.7349L63.1726 29.2134C63.1726 29.3148 63.9798 28.6048 63.1726 28.199"/>
	<path fill="#2D1B0A" d="M46.8274 31.1407C46.8274 28.199 49.3498 25.2574 52.8812 25.2574C56.2108 25.2574 58.935 27.7933 58.935 31.1407C58.935 34.488 56.4126 37.2268 52.8812 37.2268C49.3498 37.2268 46.8274 34.3866 46.8274 31.1407M47.8364 31.1407C47.8364 33.6765 50.0561 35.9081 52.5785 35.9081C55.1009 35.9081 57.3207 33.6765 57.3207 31.1407C57.3207 28.6048 55.1009 26.5761 52.5785 26.5761C50.0561 26.5761 47.8364 28.6048 47.8364 31.1407"/>
	<path fill="#2D1B0A" d="M31.491 31.1407C31.491 28.199 34.0134 25.2574 37.5448 25.2574C41.0762 25.2574 43.5986 27.7933 43.5986 31.1407C43.5986 34.488 41.0762 37.2268 37.5448 37.2268C34.0134 37.2268 31.491 34.3866 31.491 31.1407M32.5 31.1407C32.5 33.6765 34.7197 35.9081 37.2421 35.9081C39.7645 35.9081 41.9843 33.6765 41.9843 31.1407C41.9843 28.6048 39.7645 26.5761 37.2421 26.5761C34.7197 26.5761 32.5 28.6048 32.5 31.1407"/>
	<path fill="#684B2A" d="M34.2051 14.6067C34.2051 14.6067 41.0662 19.2726 48.2298 19.3741C55.4944 19.4755 59.732 19.7799 60.5392 21.7071C61.3464 23.6344 63.6671 28.8076 63.6671 28.8076C63.6671 28.8076 65.7859 16.7367 62.3553 11.7665C58.9249 6.79612 53.6782 3.14445 47.0191 2.80715C33.4988 2.23153 30.0683 10.2449 30.0683 10.2449L34.2051 14.6067"/>
	<path fill="#2D1B0A" d="M64.1704 32.2374L62.8587 29.2957C62.7578 29.0929 60.4372 24.0211 59.7309 22.0938C59.1256 20.5723 52.87 20.4709 48.3296 20.3694C40.8632 20.268 34.0022 15.602 33.6996 15.3991L28.9574 10.5302C29.361 9.51583 33.0942 1.19813 47.1188 1.8652C53.5762 2.21248 59.3274 5.55985 63.2623 11.2402C66.8946 16.4134 64.8767 28.4843 64.7758 28.9914L64.1704 32.2374M34.9103 13.7761C35.7175 14.2833 41.8722 18.2393 48.3296 18.3407C56.6031 18.5436 60.5381 18.8479 61.5471 21.2823C61.8498 22.0938 62.5561 23.6154 63.1614 25.0354C63.4641 21.1809 63.6659 15.2977 61.5471 12.356C57.9148 7.18282 52.7691 4.13976 47.0179 3.83545C36.4238 3.32827 32.3879 8.29861 31.3789 10.023L34.9103 13.7761"/>
	<path fill="#684B2A" d="M33.9013 16.8383C33.9013 16.8383 34.7085 18.867 32.4888 20.4899C30.2691 22.1129 30.2691 24.3445 29.7646 26.0689C29.2601 27.8947 28.4529 32.2564 28.4529 32.2564C28.4529 32.2564 23.8117 24.0402 25.8296 17.0411C27.8475 10.0421 30.1682 11.5636 30.1682 11.5636L33.9013 16.8383"/>
	<path fill="#2D1B0A" d="M28.8565 35.2996L27.444 32.8637C27.2422 32.5592 22.7018 24.1352 24.7197 16.8275C25.7287 13.2752 26.9395 11.2453 28.5538 10.6364C29.361 10.3319 30.1682 10.4811 30.5718 10.7379L34.8095 16.4216C35.2131 17.335 35.3139 19.6694 32.9933 21.2933C31.5807 22.4098 31.278 23.7292 30.8745 25.1501C30.7736 25.5561 30.6727 25.9621 30.5718 26.3681C30.0673 28.0935 29.2601 32.3562 29.2601 32.4577L28.8565 35.2996M29.4619 12.5648C29.361 12.5648 29.361 12.5648 29.2601 12.6663C28.8565 12.8692 27.7466 13.7827 26.7377 17.4365C25.6278 21.5978 26.8386 26.1651 27.9484 29.1084C28.1502 27.992 28.4529 26.774 28.6547 25.9621C28.7556 25.6576 28.8565 25.2516 28.9574 24.8456C29.2601 23.2217 29.7646 21.2933 31.7825 19.7709C33.0942 18.7559 32.9933 17.6395 32.8924 17.335L29.4619 12.5648"/>
</svg>
