<?xml version="1.0" encoding="utf-8" ?>
<svg xmlns="http://www.w3.org/2000/svg" xmlns:xlink="http://www.w3.org/1999/xlink" width="94" height="110">
	<path fill="white" d="M0 109.699L0 106.691C0 104.385 0.405051 83.6281 4.05051 77.2106C7.29092 71.3947 14.7844 68.5871 19.7462 66.6819C20.7589 66.2808 21.569 65.9799 22.2778 65.6791C26.1258 64.2753 29.7713 62.0693 29.7713 62.0693C30.5814 61.7685 30.6826 61.7685 30.8852 61.6682C31.1889 61.4676 31.3915 61.2671 31.6953 60.9663C31.594 60.866 31.594 60.866 31.4927 60.7657C27.341 56.7548 25.7208 52.443 25.2144 49.7356C23.493 49.134 21.8728 47.9307 21.0627 45.825C20.8601 45.4239 20.5564 44.8222 20.1513 44.2206C18.8349 41.9143 17.1134 38.9061 18.2273 36.0985C18.5311 35.2963 19.1387 34.1933 20.4551 33.4913C20.3538 31.5861 20.1513 27.876 19.9488 22.6618C19.7462 16.3446 22.5816 8.92434 26.7334 4.61258C29.265 2.00547 32.3028 0.601641 35.442 0.601641C35.442 0.601641 36.2521 0.601641 36.6571 0.601641C39.1887 0.601641 42.1253 0.501367 45.062 0.30082C47.8973 0.200547 50.6314 0 52.9604 0C56.0996 0 57.9223 0.200547 59.1375 0.802188C63.593 2.70738 69.365 8.02188 71.3903 13.7375C72.0991 15.6427 72.3016 19.9544 72.5042 26.1714C72.5042 27.1741 72.6054 28.0766 72.6054 28.979C72.7067 30.1823 72.5042 31.3856 72.2004 32.4886C73.7193 32.99 75.0357 34.1933 75.5421 35.9982C75.6433 39.9088 73.213 45.9253 71.289 47.8304C70.1751 48.9335 69.1625 49.7356 68.0486 50.0365C67.441 52.8441 65.9221 57.2562 62.2766 60.866C62.2766 60.866 62.1754 60.9663 62.1754 60.9663C62.9855 61.5679 63.8968 62.3701 64.7069 63.072C67.036 63.9745 75.9471 67.484 78.5799 68.5871C79.9976 69.1887 80.7065 69.3892 81.0102 69.5898C81.9216 69.8906 89.8201 73.0994 92.0479 82.124C92.1492 82.4248 94.5795 91.5497 93.8706 107.092L93.7694 110L0 109.699"/>
	<path fill="#EAC3AA" d="M35.6446 60.1641C35.6446 60.1641 35.6446 61.0665 35.1382 62.0693C35.1382 62.0693 37.2648 73.701 47.5935 73.701C47.5935 73.701 56.7072 71.0939 58.4286 62.0693C58.4286 62.0693 58.2262 60.866 58.2262 60.1641C58.2262 60.1641 47.8973 70.1914 35.6446 60.1641"/>
	<path fill="#2D1B0A" d="M47.6948 74.7037C36.5559 74.7037 34.0243 62.3701 34.0243 62.2698C34.5306 60.866 34.5306 60.1641 34.5306 60.1641L34.5306 58.0583L36.1508 59.3619C47.4923 68.6873 57.011 59.763 57.416 59.4622L59.1375 57.7575L59.1375 60.1641C59.1375 60.6654 59.2387 61.5679 59.34 61.8687C57.5173 71.7958 48.2011 74.6034 47.796 74.7037M36.1508 62.1695C36.5559 63.9745 38.9862 72.598 47.391 72.6982C48.5049 72.2972 55.7958 69.7903 57.3147 62.0693C53.9731 64.3755 45.6695 68.6873 36.2521 61.8687C36.2521 61.969 36.1508 62.0693 36.1508 62.1695"/>
	<path fill="#454545" d="M90.8832 106.791C91.5921 91.5498 89.1618 82.7256 89.1618 82.7256C87.2378 75.1049 80.5544 72.4977 80.5544 72.4977C80.5544 72.4977 80.3519 72.4977 77.4153 71.2945C74.4786 70.0912 63.0359 65.5789 63.0359 65.5789C61.3145 63.8743 58.4791 61.9691 58.4791 61.9691C57.7703 66.9827 47.644 73.4003 47.644 73.4003C39.0367 71.2945 35.1887 61.9691 35.1887 61.9691C33.2647 64.0748 31.3407 64.5762 31.3407 64.5762C31.3407 64.5762 27.4927 66.9827 23.4422 68.3866C19.5942 70.0912 9.97423 72.6983 6.63256 78.6144C3.29089 84.5305 2.9871 106.691 2.9871 106.691L90.8832 106.791"/>
	<path fill="#2D1B0A" d="M91.8432 107.794L1.9218 107.694L1.9218 106.691C1.9218 105.788 2.22559 84.2297 5.66852 78.1131C8.60515 72.9991 15.6935 70.2917 20.3516 68.4868C21.3643 68.0857 22.2756 67.7849 22.9845 67.4841C26.9337 66.0802 30.6804 63.7739 30.7817 63.7739C31.0855 63.6737 32.807 63.1723 34.4272 61.3674L35.5411 60.1641L36.1486 61.6682C36.1486 61.7685 39.7941 70.2917 47.4901 72.3975C50.4267 70.4923 57.0088 65.4786 57.5151 61.8688L57.7176 60.1641L59.034 61.1668C59.1353 61.2671 61.7681 63.072 63.5909 64.7767C65.1098 65.3783 75.1348 69.289 77.7676 70.392C79.7929 71.1942 80.4005 71.495 80.7043 71.495C81.3118 71.6955 88.1977 74.5032 90.223 82.5251C90.3242 82.8259 92.6533 91.65 91.9444 106.892M4.04832 105.688L89.9192 105.788C90.4255 91.4494 88.1977 83.0265 88.1977 83.0265C86.4762 76.3081 80.8055 73.701 80.198 73.5005C79.7929 73.4002 79.0841 73.0994 76.9575 72.2972C74.0209 71.0939 62.6795 66.6819 62.5782 66.5816C61.2618 65.4786 59.9454 64.3756 59.034 63.6737C57.0088 68.5871 49.1103 73.701 48.1989 74.3027C40.3004 72.6983 36.3512 66.4813 34.8322 63.6737C33.4145 64.877 32.1994 65.3783 31.6931 65.4786C30.9842 65.8797 27.44 67.9854 23.6933 69.289C22.9845 69.5898 22.0731 69.8906 21.0605 70.2917C16.6049 71.9964 9.92156 74.5032 7.38999 79.0155C4.75716 84.0292 4.14958 101.276 4.04832 105.688"/>
	<path fill="white" d="M47.6948 73.5005L37.1635 81.3218L47.4923 106.591L57.8211 82.124L47.6948 73.5005"/>
	<path fill="white" d="M47.4923 107.894L36.5559 81.1213L47.6948 72.7986L58.4287 81.9235L47.4923 107.894M37.771 81.4221L47.4923 105.187L57.2135 82.2243L47.6948 74.1022L37.771 81.4221"/>
	<path fill="#EEE" d="M57.5173 82.5251L62.0741 64.8769C60.3526 63.4731 58.2261 62.0693 58.2261 62.0693C57.5173 67.0829 47.391 73.5005 47.391 73.5005C38.7836 71.3947 34.9356 62.0693 34.9356 62.0693C32.8091 63.9745 31.7965 64.6764 31.7965 64.6764L37.0622 82.7256L47.391 73.4002L57.5173 82.5251"/>
	<path fill="#2D1B0A" d="M36.4546 84.5305L30.5814 64.2752C31.189 63.8742 32.2016 63.1722 34.2269 61.3673L35.3408 60.2643L35.8471 61.6681C35.8471 61.7684 39.3913 70.0911 46.986 72.2971C50.6314 69.9908 56.8085 65.278 57.2135 61.8687L57.416 60.2643L58.7325 61.1668C58.8337 61.267 60.9602 62.5706 62.6817 64.0747L58.0236 84.3299L47.2898 74.7037L36.4546 84.5305M32.9104 64.9771L37.5685 80.8204L45.2645 73.8012C39.29 71.4949 35.8471 66.0802 34.5307 63.5733C33.8218 64.2752 33.3155 64.7766 32.9104 64.9771M49.0112 73.5004L56.9097 80.6198L60.859 65.1777C60.1501 64.5761 59.34 64.0747 58.7325 63.5733C57.1123 67.6845 51.5428 71.7957 49.0112 73.5004"/>
	<path fill="#6B6B6B" d="M31.1889 66.0803L47.4923 102.58L61.9728 65.3783L72.5042 78.7148L47.4923 106.39L21.7715 79.8177L31.1889 66.0803"/>
	<path fill="#2D1B0A" d="M47.5934 107.794L20.5562 79.918L31.4926 63.9745L47.5934 99.8724L61.7702 63.2726L73.9217 78.7147L47.5934 107.794M23.0878 79.7174L47.4921 104.886L30.9863 68.186L23.0878 79.7174M62.3777 67.2835L47.9984 104.385L71.2889 78.6144L62.3777 67.2835"/>
	<path fill="#FAD1B6" d="M46.6821 65.1277C46.6821 65.1277 39.0874 63.9245 33.7205 58.4094C28.0498 52.9946 27.9485 46.9782 27.9485 46.9782C27.9485 46.9782 25.0119 47.1788 23.898 44.4714C22.8853 41.9646 18.8348 37.0512 22.5816 35.6473C22.5816 35.6473 25.0119 34.7449 25.7207 36.3492C26.5308 37.9536 27.3409 41.0621 27.6447 41.5635C27.8472 42.0648 26.227 38.0539 27.5434 35.3465C27.5434 35.3465 28.9611 29.9317 28.6573 23.8151C28.3535 16.6957 33.7205 12.2836 41.4164 10.6792C41.9228 10.579 40.8089 13.9883 41.3152 13.888C41.7202 13.7877 43.7455 10.2781 44.1505 10.2781C44.5556 10.2781 43.4417 14.0885 43.8468 14.0885C44.1505 14.0885 46.0745 10.0776 46.3783 10.0776C46.9149 10.0776 46.4796 12.6847 46.9149 12.6847C47.1884 12.6847 48.4036 10.0776 48.7074 10.0776C49.2137 10.0776 49.72 10.1779 50.2263 10.1779C59.5425 11.2809 65.517 17.7987 64.9094 21.3082C65.2132 25.3192 65.3145 27.826 66.3271 31.5361C67.2385 35.2462 66.1246 39.2572 65.3145 41.3629C64.5044 43.3684 67.7448 37.9536 68.4536 36.4495C69.2637 34.8451 71.9978 34.1432 72.8079 36.6501C72.8079 39.1569 70.3776 44.4714 69.2637 45.4741C68.4536 46.3766 66.8334 47.7804 65.517 46.7777C65.517 46.7777 65.3145 53.5963 60.2513 58.5097C54.8844 63.9245 48.6061 64.9272 46.6821 65.1277"/>
	<path fill="#2D1B0A" d="M46.5809 66.0803C46.1758 66.0803 38.4798 64.7768 32.9104 59.0612C28.2523 54.6492 27.1384 49.836 26.9359 47.8306C25.7207 47.63 23.7967 47.0284 22.8854 44.8224C22.6828 44.321 22.2778 43.6191 21.8727 43.0174C20.6576 40.9117 19.3412 38.5051 20.05 36.5999C20.3538 35.6975 21.0626 35.0958 22.0753 34.6947C23.1892 34.2936 25.2144 34.0931 26.227 35.4969C26.3283 35.2964 26.3283 35.1961 26.4296 34.9956C26.6321 34.2936 27.746 29.28 27.4422 23.8652C27.1384 16.7458 32.2015 11.5316 41.0114 9.72664L42.024 10.0275C42.2266 10.228 42.3278 10.4286 42.3278 10.6291C43.0367 9.62637 43.3405 9.32555 43.8468 9.32555C44.8594 9.72664 44.9607 9.82691 44.9607 9.92719C45.3657 9.32555 45.6695 9.125 46.0746 9.125C47.0872 9.62637 47.1884 9.82691 47.2897 10.0275C47.6948 9.42582 47.9985 9.125 48.6061 9.125C49.1124 9.125 49.72 9.22527 50.2263 9.22527C56.9097 10.0275 61.669 13.4368 63.9981 16.3447C65.4157 18.1496 66.0233 19.8543 65.8208 21.3584C66.0233 25.1688 66.2258 27.6756 67.1372 31.2854C67.5423 32.6893 67.6435 34.1934 67.441 35.898C68.0486 34.6947 69.4663 33.8925 70.7827 33.9928C72.0991 34.0931 73.1117 34.8953 73.5168 36.2991C73.5168 39.207 71.0865 44.8224 69.6688 46.1259C68.2511 47.63 67.036 48.1314 66.1246 48.0311C65.8208 50.3374 64.7069 55.2508 60.6564 59.1615C55.1882 64.6765 48.5049 65.7795 46.5809 65.9801M28.8599 45.9254L28.8599 46.9281C28.8599 47.0284 29.0624 52.6437 34.3281 57.6574C39.0874 62.5708 45.6695 63.8743 46.6837 64.0749C48.6061 63.8743 54.5806 62.8716 59.4412 57.8579C64.2006 53.2453 64.5044 46.8278 64.5044 46.8278L64.6056 44.9226L66.1246 46.0256C66.8334 46.527 68.0486 45.3237 68.5549 44.8224C69.4663 44.0202 71.694 39.207 71.7953 36.8005C71.5928 36.2991 71.289 35.9983 70.8839 35.9983C70.2764 35.9983 69.6688 36.2991 69.365 36.9008C66.0233 43.3183 65.4157 43.0174 64.7069 42.7166C64.0993 42.4158 63.9981 41.8142 64.3019 41.012C65.6183 37.4021 65.9221 34.2936 65.3145 31.7868C64.3019 27.9764 64.2006 25.3693 63.8968 21.3584C63.9981 20.2554 63.4918 18.8515 62.4791 17.548C60.4539 14.9409 56.0996 11.8324 50.1251 11.1305C49.8213 11.1305 49.4162 11.0302 49.1124 11.0302C49.0112 11.2307 48.8086 11.5316 48.6061 11.8324C47.8973 13.0357 47.5935 13.6373 46.7834 13.6373C46.1758 13.6373 45.872 13.3365 45.6695 12.8351C44.6569 14.5398 44.4543 15.0411 43.7455 15.0411C42.6316 14.4395 42.5304 14.1387 42.5304 13.7376C42.024 14.4395 41.7202 14.64 41.3152 14.7403C39.8975 13.9381 39.9988 13.1359 40.2013 11.9327C40.2013 11.9327 40.2013 11.8324 40.2013 11.8324C33.1129 13.6373 29.2649 17.8488 29.4674 23.6647C29.7712 29.8816 28.3536 35.2964 28.3536 35.4969C27.9485 36.3994 27.5435 38.0038 28.4548 41.1122C28.7586 42.115 28.0498 42.4158 27.8472 42.5161L26.5308 42.0147C26.3283 41.7139 26.1258 41.1122 25.7207 39.909C25.4169 38.8059 24.9106 37.5024 24.5056 36.7002C24.2018 35.9983 22.5816 36.4997 22.5816 36.4997C21.974 36.7002 21.8727 37.001 21.7715 37.2016C21.3664 38.3046 22.5816 40.4103 23.4929 41.9144C23.898 42.6163 24.303 43.3183 24.6068 43.9199C25.4169 45.8251 27.6447 45.7248 27.746 45.7248L28.8599 45.9254"/>
	<path fill="#242424" d="M52.2516 88.9426L47.6948 106.591L43.6443 88.9426L46.986 82.7256C46.7834 82.7256 43.3405 79.4166 43.3405 77.7119C43.3405 76.0073 47.6948 73.4001 47.6948 73.4001C47.6948 73.4001 52.0491 76.2078 52.2516 77.4111C52.2516 78.6144 49.6188 81.9234 49.1125 82.4248L52.2516 88.9426"/>
	<path fill="#343434" d="M48.0999 106.691L47.0872 106.691L43.0367 88.8424L46.2771 82.8259C45.062 81.8232 42.7329 79.1158 42.7329 77.712C42.7329 75.8068 46.5809 73.4002 47.2898 72.9991C49.0112 73.7011 52.4542 76.0073 52.6567 77.3109C52.6567 78.7147 50.4289 81.6227 49.6188 82.5251L52.6567 88.9426L48.0999 106.691M44.1506 88.9426L47.6948 104.385L51.6441 88.9426L48.4036 82.2243C49.315 81.3218 51.7453 78.2134 51.7453 77.3109C51.6441 76.8095 49.6188 75.2052 47.6948 73.9016C45.9733 74.9043 43.8468 76.7093 43.8468 77.6117C43.8468 78.9153 46.4796 81.6227 47.0872 82.124L44.1506 88.9426"/>
	<path fill="#564A4C" d="M59.5426 33.1905C59.5426 34.2981 57.9104 35.196 55.8971 35.196C53.8838 35.196 52.2516 34.2981 52.2516 33.1905C52.2516 32.0829 53.8838 31.185 55.8971 31.185C57.9104 31.185 59.5426 32.0829 59.5426 33.1905"/>
	<path fill="#564A4C" d="M41.3152 33.2908C41.3152 34.3984 39.6378 35.2963 37.5685 35.2963C35.4992 35.2963 33.8218 34.3984 33.8218 33.2908C33.8218 32.1832 35.4992 31.2853 37.5685 31.2853C39.6378 31.2853 41.3152 32.1832 41.3152 33.2908"/>
	<path fill="#2D1B0A" d="M50.3276 26.8715C50.3276 26.8715 52.8592 26.2699 55.492 26.2699C58.1249 26.2699 61.264 26.8715 61.264 26.8715C61.1628 27.1724 59.2388 27.1724 56.3021 27.2726C53.3655 27.2726 48.8087 28.1751 50.3276 26.8715"/>
	<path fill="white" d="M50.9352 28.0765C50.1251 28.0765 49.7201 27.9763 49.4702 27.5752C49.315 27.0738 49.8213 26.6727 49.9226 26.4722C50.2264 26.3719 52.7579 25.7703 55.3908 25.7703C58.0236 25.7703 61.0615 26.3719 61.264 26.3719L61.5678 27.6755C61.1628 27.6755 59.2388 27.6755 56.3021 27.7757C55.3908 27.7757 54.4794 27.876 53.4668 27.9763C52.3529 27.9763 51.5428 28.0765 50.9352 28.0765M54.1756 26.8733C53.6693 26.8733 53.2643 26.9735 52.8592 26.9735C53.0617 26.9735 53.2643 26.9735 53.3655 26.8733C53.568 26.8733 53.8718 26.8733 54.1756 26.8733"/>
	<path fill="#2D1B0A" d="M42.3279 27.0738C42.3279 27.0738 39.7963 26.4722 37.1635 26.4722C34.5307 26.4722 31.3915 27.0738 31.3915 27.0738C31.3915 27.3746 33.4168 27.3746 36.3534 27.4749C39.29 27.5752 43.8468 28.3774 42.3279 27.0738"/>
	<path fill="white" d="M41.7203 28.2771C41.1127 28.2771 40.3026 28.1768 39.1888 28.0765C38.1761 27.9763 37.2648 27.876 36.3534 27.876C33.4168 27.7757 31.4928 27.7757 31.4928 27.7757L30.8852 26.5724C31.4928 26.4722 34.6319 25.8705 37.2648 25.8705C39.8976 25.8705 42.4292 26.4722 42.5304 26.4722C42.9355 26.6727 43.3405 27.1741 43.138 27.6754C42.9355 28.0765 42.5304 28.2771 41.7203 28.2771M38.5812 26.9735C38.885 26.9735 39.0875 27.0738 39.3913 27.0738C39.5938 27.0738 39.7963 27.0738 39.8976 27.1741C39.4925 27.0738 38.9862 26.9735 38.5812 26.9735"/>
	<path fill="#F4F3F2" d="M65.517 37.9035C65.517 37.9035 69.8712 33.8924 69.6756 28.979C69.4662 24.0657 69.2637 16.6455 68.5548 14.5398C66.7321 9.42575 61.4664 4.91345 58.0235 3.40935C55.0869 2.20606 43.3405 3.50962 35.6444 3.40935C28.0497 3.30907 22.7841 14.7402 22.9809 22.361C23.1891 29.9818 23.5942 34.4941 23.5942 34.4941C23.5942 34.4941 25.3156 35.6974 25.6194 36.299C25.6194 36.299 27.9485 32.1879 28.2523 27.2745C28.556 22.361 28.556 16.9463 31.2901 16.6455C34.0243 16.3447 37.366 16.2444 37.366 16.2444L36.4546 19.2526L40.9101 17.0466L41.9227 19.4531L46.1758 17.0466L47.1884 19.8542L50.9352 16.2444C50.9352 16.2444 57.2134 14.7402 59.9475 16.8459C62.6816 18.9517 63.7956 20.3556 63.7956 22.4614C63.7956 24.5671 65.517 37.9035 65.517 37.9035"/>
	<path fill="#2D1B0A" d="M64.7113 39.9088L64.5087 38.0043C64.4074 37.4029 62.7867 24.3723 62.7867 22.2673C62.7867 20.6636 61.9763 19.4607 59.2414 17.456C57.418 16.0527 53.1636 16.5539 51.3403 16.9548L46.5794 21.4654L45.4651 18.3581L41.2107 20.7638L40.1978 18.3581L34.6265 21.1647L35.8421 17.2555C34.6265 17.2555 32.9045 17.3558 31.2837 17.5563C29.663 17.7567 29.4604 22.1671 29.1565 25.6753C29.1565 26.2768 29.0552 26.7779 29.0552 27.3794C28.7514 32.4914 26.4216 36.7013 26.3203 36.8015L25.4086 38.3051L24.4969 36.8015C24.3956 36.601 23.484 35.8994 22.7749 35.3982C22.3697 34.5963 22.0658 29.9855 21.7514 22.4678C21.5594 16.6541 24.2943 9.63763 28.1436 5.82867C30.3721 3.62348 32.9045 2.52089 35.4369 2.52089C38.2731 2.52089 41.6159 2.42066 44.9587 2.22018C50.9351 1.9562 56.1012 1.719 58.1271 2.52089C61.5712 3.92419 67.2437 8.53504 69.2696 14.2485C69.8774 15.9525 70.08 20.2626 70.2826 26.0763C70.2826 27.0786 70.3906 27.9808 70.3906 28.8829C70.5865 34.1954 66.1295 38.4053 65.9269 38.6058L64.7113 39.9088M55.3921 14.4489C57.2154 14.4489 59.1401 14.7497 60.5582 15.752C63.2932 17.857 64.8126 19.561 64.8126 22.1671C64.8126 23.5704 65.623 30.4867 66.2308 35.3982C67.345 33.8947 68.7631 31.489 68.5606 28.8829C68.5606 27.9808 68.4593 27.0786 68.4593 26.0763C68.2567 21.7662 68.0541 16.3534 67.5476 14.8499C65.8256 9.8381 60.5582 5.6282 57.5193 4.32513C55.8986 3.62348 50.226 3.92419 45.1613 4.12466C41.8185 4.32513 38.3744 4.42537 35.5382 4.42537C33.5123 4.42537 31.5876 5.32749 29.663 7.13174C26.219 10.5398 23.7879 17.1553 23.8892 22.2673C24.0918 28.3817 24.2943 32.4914 24.3956 33.8947C24.5982 34.0952 24.9021 34.2956 25.206 34.4961C25.9151 32.9926 26.928 30.186 27.1306 27.0786C27.1306 26.5775 27.2319 25.9761 27.2319 25.4749C27.5358 20.5633 27.8397 15.9525 31.0812 15.5515C33.8161 15.1506 37.1589 15.1506 37.2602 15.1506L38.6783 15.1506L38.0706 17.1553L41.312 15.5515L42.2237 17.857L46.5794 15.3511L47.3898 17.7567L50.226 15.0504C51.0364 14.9501 53.0623 14.4489 55.3921 14.4489"/>
	<path fill="#EEE" d="M43.0367 53.8469C43.6442 53.1449 44.9607 51.34 47.6947 51.34C52.1503 51.2397 50.6314 52.5433 53.2642 54.3482C55.897 56.0529 59.34 53.8469 59.34 53.8469C57.2135 53.6463 55.492 48.2315 52.4541 47.5296C49.8213 46.6272 47.4922 48.031 47.4922 48.031C44.5556 46.1258 41.1127 47.8304 40.2013 49.7356C39.2899 51.6408 36.2521 53.9471 35.847 54.1477C37.8723 55.7521 42.1253 54.7493 43.0367 53.8469"/>
	<path fill="#2D1B0A" d="M55.5933 56.053C54.6819 56.053 53.6693 55.8526 52.7579 55.2513C51.644 54.4496 51.239 53.8483 50.8339 53.3472C50.3276 52.6458 50.1251 52.3451 47.796 52.4453C45.6695 52.4453 44.6569 53.7481 44.0493 54.4496C42.6316 56.053 37.771 57.0551 35.4419 55.1511L34.2268 54.2492L35.5432 53.5477C35.9483 53.3472 38.7836 51.2428 39.4925 49.6394C40.1 48.4368 41.4165 47.3345 43.0367 46.8334C44.6569 46.3324 46.2771 46.5551 47.6948 47.2343C48.6061 46.8334 50.6314 46.1319 52.8592 46.9336C54.7832 47.4347 56.0996 49.2385 57.3147 50.8419C58.0236 51.7438 58.9349 53.0466 59.5425 53.1468L62.5804 53.4475L60.0488 55.0508C59.745 54.8504 57.821 56.053 55.5933 56.053M48.0998 50.3409C50.8339 50.3409 51.5427 50.9421 52.4541 52.1447C52.7579 52.5455 53.0617 53.0466 53.8718 53.6479C54.8844 54.3494 56.2008 54.1489 57.2135 53.8483C56.7071 53.3472 56.2008 52.6458 55.5933 51.8441C54.5806 50.4411 53.4667 48.9379 52.2516 48.6373C50.0238 47.9358 48.0998 49.0381 48.0998 49.0381L47.0872 49.0381C45.6695 48.1362 44.2518 48.3366 43.543 48.537C42.3278 48.9379 41.5177 49.6394 41.2139 50.2407C40.6064 51.5434 39.0874 52.9464 37.9735 53.9485C39.695 54.2492 41.8215 53.6479 42.3278 53.247C43.2392 52.1447 44.7581 50.4411 47.796 50.3409C47.8973 50.3409 47.9985 50.3409 48.0998 50.3409"/>
	<path fill="#2D1B0A" d="M38.0748 41.2123C35.3408 41.2123 33.3155 40.6107 31.9991 39.2068C29.8401 37.0009 29.8401 33.4913 29.8401 29.6809C29.8401 28.7784 30.6827 27.9762 31.594 27.9762L44.4544 27.9762C44.9607 27.9762 45.3658 28.1768 45.6696 28.4776C45.9734 28.7784 46.1759 29.2798 46.1759 29.6809C46.1759 34.494 46.0746 41.112 38.2774 41.112C38.1761 41.2123 38.1761 41.2123 38.0748 41.2123M31.7966 30.082C31.7966 33.391 31.7966 36.299 33.4168 37.8031C34.3281 38.7056 35.9483 39.2068 38.1761 39.2068C43.0367 39.2068 44.0494 36.299 44.0494 29.9817L31.7966 30.082"/>
	<path fill="#2D1B0A" d="M55.6945 41.2123C52.9605 41.2123 50.9352 40.6107 49.6188 39.2068C47.4598 37.0009 47.4598 33.4913 47.4598 29.6809C47.4598 28.7784 48.3024 27.9762 49.2137 27.9762L62.0741 27.9762C62.5804 27.9762 62.9855 28.1768 63.2893 28.4776C63.5931 28.7784 63.7956 29.2798 63.7956 29.6809C63.7956 34.494 63.6943 41.112 55.8971 41.112C55.7958 41.2123 55.6945 41.2123 55.6945 41.2123M49.4163 30.082C49.4163 33.391 49.4163 36.299 51.0365 37.8031C51.9478 38.7056 53.568 39.2068 55.7958 39.2068C60.6564 39.2068 61.6691 36.299 61.6691 29.9817L49.4163 30.082"/>
</svg>
