<?xml version="1.0" encoding="utf-8" ?>
<svg xmlns="http://www.w3.org/2000/svg" xmlns:xlink="http://www.w3.org/1999/xlink" width="86" height="108">
	<path fill="white" d="M84.157 84.7416C82.1674 77.0562 74.6072 74.5281 74.2093 74.427L71.7224 73.7191C69.335 72.809 62.3716 70.4831 59.5863 69.573C59.1884 68.9663 58.5915 68.3596 57.7957 67.7528C57.2984 66.7416 56.602 65.9326 55.7067 65.2247L55.7067 64.1124C57.7957 61.8876 58.9895 59.5618 59.6858 58.3483C59.7853 58.1461 59.8847 58.0449 59.8847 57.9438C61.3769 55.7191 61.8743 51.7753 61.9737 49.5506C63.8638 48.0337 67.047 45.1011 67.6439 41.764C67.9423 40.1461 67.5444 38.6292 66.6491 37.3146C66.1517 36.6067 65.5549 36.1011 65.0575 35.6966C65.0575 35.5955 65.157 35.4944 65.157 35.3933L67.047 36.1011L67.047 31.5506L67.047 30.3371L67.047 26.5955L73.2146 22.4494L66.7486 7.2809L43.8691 0C35.513 2.62921 23.3769 6.26966 21.5864 6.77528C19.7958 6.97753 19.1989 8.69663 18.5026 10.5169C18.1047 11.6292 17.6073 13.0449 17.1099 14.5618C16.1152 17.4944 15.2199 20.3258 15.2199 20.3258L14.5235 22.4494L19.3979 26.0899C19.2984 30.4382 20.0942 34.5843 20.2932 35.6966C20.2932 36.2022 20.3926 36.7079 20.4921 37.2135C19.6963 38.1236 18.801 39.7416 19.3979 42.4719C19.8953 45.1011 22.0837 49.1461 25.068 50.0562C25.267 53.3933 26.3612 57.7416 27.356 59.3596C28.2513 60.7753 29.7434 62.7978 31.7329 64.7191C30.4398 65.5281 29.6439 66.3371 29.246 67.1461C27.6544 67.9551 26.6597 68.8652 26.0628 69.6742C24.9686 70.0787 22.979 70.7865 20.6911 71.4944C16.0157 72.809 7.26177 75.236 3.58115 80.8989C0.497382 85.9551 0 100.517 0 104.966L0 108L85.8481 108L86 105.067C86.3454 92.8315 84.3559 85.5506 84.157 84.7416"/>
	<path fill="#EAC3AA" d="M34.6017 61.5843L52.3996 61.5843L52.3996 73.7191L34.6017 73.7191L34.6017 61.5843"/>
	<path fill="#2D1B0A" d="M53.3939 74.8315L33.6073 74.8315L33.6073 60.6741L53.3939 60.6741L53.3939 74.8315M35.596 72.8089L51.4053 72.8089L51.4053 62.6966L35.596 62.6966L35.596 72.8089"/>
	<path fill="#FAD1B6" d="M28.1387 34.8878L27.8404 40.7529C27.8404 40.7529 25.0564 37.6181 22.8689 39.0338C20.6814 40.5507 23.6644 46.8204 25.9512 47.1237C28.1387 47.5282 27.9398 47.8316 27.9398 47.8316C27.741 47.7305 28.2381 55.3147 29.829 57.7417C31.917 60.9777 36.6897 66.944 43.3176 66.944C52.1013 66.944 56.3768 57.5395 57.1722 56.326C58.7631 53.899 58.8625 47.9327 58.8625 47.9327C58.8625 47.9327 66.5186 42.6743 64.0329 39.135C61.5471 35.5956 58.1665 41.2586 58.1665 41.2586L57.9676 33.8765C57.9676 33.8765 57.5699 28.2136 43.7492 27.6841C29.9284 27.2024 28.1387 34.8878 28.1387 34.8878"/>
	<path fill="#2D1B0A" d="M43.3516 68.0562C36.292 68.0562 31.3206 61.9858 28.9342 58.3435C27.8405 56.7247 26.7468 51.0589 26.8462 48.4284C26.6474 48.3272 26.2496 48.226 25.653 48.1249C23.565 47.7202 21.5764 44.2802 21.1787 42.0544C20.6816 39.6262 21.6759 38.6145 22.2724 38.2098C23.8633 37.198 25.5536 37.7039 26.9456 38.6145L27.1445 34.6687C27.2439 34.3651 29.2325 26.2712 43.6499 26.7543C58.1666 27.2829 58.8626 33.5557 58.8626 33.8593L58.9621 38.5133C59.7575 37.7039 60.8512 36.9957 61.9449 36.9957C62.7404 36.9957 63.8341 37.198 64.8284 38.6145C65.425 39.525 65.6239 40.4356 65.425 41.5485C64.9278 44.5838 61.1495 47.619 59.7575 48.6307C59.6581 50.2495 59.3598 54.8024 57.8683 57.0282C57.7689 57.1294 57.6695 57.3318 57.57 57.5341C53.7917 64.5151 48.9196 68.0562 43.3516 68.0562M28.8348 48.3272C28.8348 49.6425 29.4314 55.4094 30.6245 57.2306C32.7126 60.4682 37.1869 66.0328 43.3516 66.0328C50.6099 66.0328 54.5871 58.8494 55.9792 56.5224C56.178 56.2188 56.2774 56.0165 56.3769 55.9153C57.4706 54.0942 57.8683 49.6425 57.9678 48.0237C59.6581 46.3037 63.1381 43.4708 63.5358 41.245C63.6353 40.7391 63.5358 40.2333 63.2375 39.8286C62.641 39.0192 62.2432 39.0192 62.1438 39.0192C61.0501 39.0192 59.5586 40.9415 59.0615 41.8521L57.2717 44.7861L56.9735 34.0616C56.9735 34.0616 56.178 29.3064 43.6499 28.9017C31.5194 28.497 29.332 34.4663 29.1331 35.1745L28.7354 43.3697L27.1445 41.5485C27.1445 41.5485 24.957 39.0192 23.4656 40.0309C23.1673 40.2333 23.0679 40.9415 23.2667 41.8521C23.7639 44.0779 25.3548 46.2026 26.1502 46.4049C27.9399 46.7084 28.636 47.012 28.9342 47.619"/>
	<path fill="#42301C" d="M23.1671 35.3933C23.1671 35.3933 20.6813 23.9664 23.8631 18.708C27.0448 13.4496 32.7123 9.10125 42.6553 9.10125C52.4988 9.10125 58.6636 14.5619 60.4532 18.708C62.243 22.6518 63.1378 30.8428 61.9446 35.1911C60.6522 39.5395 59.0612 44.4945 56.5754 43.5844C53.8909 42.7754 55.8794 31.7529 54.0898 28.8204C52.5983 25.9888 48.1239 25.0788 44.445 26.1911C40.965 27.3034 31.6186 28.1124 30.0277 29.0226C28.5363 29.8316 27.3431 31.4496 27.542 34.0788C27.7408 36.9102 28.238 42.6743 26.6471 42.2697C24.5591 41.7641 23.1671 36.9102 23.1671 35.3933"/>
	<path fill="#4C6E8C" d="M2.8532 104.966C2.8532 104.966 3.05206 87.1687 6.03496 82.4159C9.21671 77.663 17.7677 75.3372 21.4466 74.3259C25.3243 73.3147 28.1084 72.1012 28.1084 72.1012C28.1084 72.1012 28.3072 70.5844 32.185 69.2698C32.185 69.2698 35.5656 76.6518 43.52 78.3709C43.52 78.3709 52.5681 73.2136 53.3636 69.2698C53.3636 69.2698 56.7442 69.8765 57.4402 72.1012C57.4402 72.1012 67.9798 75.5394 70.6644 76.6518C73.2495 77.4608 73.2495 77.4608 73.2495 77.4608C73.2495 77.4608 79.5136 79.5844 81.1045 85.7529C81.1045 85.7529 83.1925 92.8316 82.8452 104.966L2.8532 104.966"/>
	<path fill="#2D1B0A" d="M83.8092 105.978L2.88397 105.978L1.8892 103.955C1.8892 99.9102 2.48606 86.2585 5.17195 81.9102C8.35521 76.9552 16.6118 74.6293 20.5909 73.517C24.0726 72.6069 26.3606 71.6968 27.2559 71.3934C27.6538 70.5844 28.748 69.472 31.7323 68.3597L33.0255 68.8653C33.0255 68.9664 36.2088 75.6406 43.2717 77.2586C46.6539 75.3372 51.8267 71.4945 52.2246 69.0675L52.4236 68.0563C53.6173 68.2586 56.9001 68.9664 57.9943 71.2923C60.0833 72.0001 68.4394 74.7305 70.8269 75.6406L73.4133 76.4496C73.7117 76.5507 80.2772 78.7754 81.9683 85.4496C82.0678 85.7529 84.1568 92.7305 83.8092 104.966L83.8092 105.978M3.87874 103.955L81.7694 103.955C82.0678 92.7305 80.0782 86.0563 80.0782 86.0563C78.5861 80.4945 72.9159 78.472 72.8164 78.472L70.23 77.663C67.4446 76.6518 57.099 73.1125 56.9995 73.1125C56.0048 71.3934 54.811 70.7866 53.8163 70.4833C52.0257 74.4271 44.7639 78.6743 43.8686 79.1799C36.3083 77.8653 32.7271 72.6069 31.5334 70.4833C29.2454 71.4945 28.947 72.3035 28.947 72.3035C28.2506 73.1125 25.3658 74.2248 21.5857 75.3372C17.3082 76.5507 9.54894 78.6743 6.76358 83.0226C4.67456 86.4608 3.97822 98.3934 3.87874 103.955"/>
	<path fill="#4C6E8C" d="M43.4508 29.528C58.0669 29.528 63.7345 31.8539 63.7345 31.8539L63.7345 25.0786L69.1037 21.4381L64.2316 9.91003L43.5501 3.337C43.5501 3.337 22.0733 9.91003 21.775 9.91003C21.5762 9.70779 17.7978 21.4381 17.7978 21.4381L22.6699 25.0786L22.6699 31.8539C22.7693 31.6516 28.7351 29.528 43.4508 29.528"/>
	<path fill="#2D1B0A" d="M64.8282 33.2697L63.4362 32.764C63.3367 32.764 57.6692 30.5393 43.4508 30.5393C28.7351 30.5393 23.2665 32.6629 23.1671 32.6629L21.6756 31.7528L21.6756 25.4832L16.6047 21.7416C20.6813 9 20.7808 9 21.4768 8.79776C24.3602 7.98877 35.5958 4.55057 43.1525 2.1236L64.9276 9L70.2968 21.7416L64.6293 25.5843L64.6293 33.2697M43.4508 28.5169C54.2886 28.5169 60.2544 29.7303 62.7401 30.4382L62.7401 24.4719L67.9105 21.0337L63.5356 10.7191L43.5502 4.34832C28.3374 9 23.8631 10.3146 22.4711 10.7191C21.9739 12.0337 20.383 16.6854 18.991 21.0337L23.6642 24.573L23.6642 30.4382C24.4597 30.236 25.6528 29.9326 27.3431 29.7303C30.4254 29.1236 35.6952 28.5169 43.4508 28.5169M21.9739 10.8202C22.0733 10.8202 22.0733 10.8202 22.1728 10.8202C22.0733 10.8202 22.0733 10.8202 21.9739 10.8202"/>
	<path fill="#374C5E" d="M22.7947 31.6517L22.7947 24.3708C22.7947 24.3708 28.7531 21.9438 43.252 21.9438C57.8501 21.9438 63.7092 24.3708 63.7092 24.3708L63.7092 31.6517C63.7092 31.6517 57.9494 29.2247 43.252 29.2247C28.7531 29.3258 22.7947 31.6517 22.7947 31.6517"/>
	<path fill="#2D1B0A" d="M64.8017 33.1685L63.4114 32.5618C63.3121 32.5618 57.6516 30.1348 43.3514 30.1348C29.1504 30.2359 23.2913 32.4606 23.192 32.5618L21.8017 33.0674L21.8017 23.5618C22.6955 23.1573 28.6539 20.7303 43.252 20.7303C57.8502 20.7303 63.9079 23.1573 64.1065 23.2584L64.7024 33.1685M23.7878 25.0786L23.7878 30.2359C26.2705 29.5281 32.4276 28.2135 43.252 28.1123C54.1758 28.1123 60.2336 29.4269 62.7162 30.2359L62.7162 25.0786C60.8294 24.4719 54.7717 22.8539 43.252 22.8539C31.6331 22.955 25.5754 24.573 23.7878 25.0786"/>
	<path fill="#303030" d="M47.5275 88.2809L45.1412 104.865L42.3571 104.865L39.772 88.2809L42.556 82.4157C42.556 82.4157 39.3742 79.5843 39.3742 77.9663C39.3742 76.5506 43.4509 74.1236 43.4509 74.1236C43.4509 74.1236 47.3286 76.3483 47.3286 77.5618C47.5275 78.7753 45.2406 81.7079 44.7435 82.2135L47.5275 88.2809"/>
	<path fill="#2D1B0A" d="M45.9366 105.775L41.3629 105.775L38.5788 88.0786L41.2634 82.618C40.1697 81.5056 38.38 79.4831 38.38 77.8652C38.38 76.1461 41.2634 74.1236 42.9537 73.2135C45.9366 74.3258 48.2235 75.9438 48.3229 77.4607C48.5218 78.9775 46.7321 81.3034 45.9366 82.3146L48.7206 88.0786L45.9366 105.775M43.1526 103.753L44.2463 103.753L46.5332 88.382L43.6497 82.3146L40.7663 88.382L43.1526 103.753M43.3514 75.2359C41.7606 76.2472 40.3686 77.4607 40.2691 77.8652C40.2691 78.573 41.7606 80.3932 43.0532 81.6067C44.5446 80.6966 46.1355 78.3708 46.1355 77.764C46.1355 77.2584 44.8429 76.1461 43.3514 75.2359"/>
	<path fill="#F9F9F9" d="M51.2064 81.4046L54.9848 69.4719C54.2888 67.4495 52.1013 66.9439 52.1013 66.9439C51.7036 70.4832 43.8486 75.0337 43.8486 75.0337C37.5845 73.5169 34.6017 66.9439 34.6017 66.9439C31.5193 67.854 31.4199 69.4719 31.4199 69.4719L36.1925 81.6068L43.7492 75.1349L51.2064 81.4046"/>
	<path fill="#2D1B0A" d="M35.6952 83.3259L30.326 69.6742C30.326 69.2697 30.6243 67.1461 34.3032 66.0337L35.4963 66.6405C35.4963 66.7416 38.181 72.5057 43.6496 74.0225C46.5331 72.3034 50.8085 69.0675 51.1068 67.045L51.2063 65.9326L52.3 66.1349C52.3994 66.1349 54.9846 66.7416 55.8795 69.2697L51.604 83.2248L43.6496 76.6517L35.6952 83.3259M32.414 69.4719L36.4907 79.9888L41.7604 75.4382C37.485 73.7191 34.8998 69.8764 34.0049 68.1573C33.0106 68.5618 32.6129 69.1686 32.414 69.4719M45.3399 75.236L50.7091 79.6854L53.9903 69.4719C53.692 68.8652 53.1949 68.5618 52.7971 68.2585C51.5046 71.191 47.3285 74.0225 45.3399 75.236"/>
	<path fill="#FFCD55" d="M43.6497 18.6068C43.6497 18.6068 42.6554 17.3933 41.2633 16.4832C39.7582 15.8764 39.1753 13.3483 40.4679 11.5281C40.4679 11.5281 41.4622 10.3146 40.0702 9.40453C41.2633 8.19105 41.6611 9.40453 43.7491 8.3933C45.8371 9.40453 46.4337 8.19105 46.4337 8.19105C46.036 10.3146 47.0303 11.5281 47.0303 11.5281C48.2234 13.3483 47.6269 15.8764 46.2348 16.4832C44.644 17.3933 43.6497 18.6068 43.6497 18.6068"/>
	<path fill="#FFCD55" d="M64.3312 94.4494C65.7232 93.5393 66.2203 91.0112 65.226 89.2921C65.226 89.2921 64.0329 88.0786 65.7232 87.1685C64.53 86.0562 64.0329 87.1685 61.8511 86.2584C59.7574 87.1685 59.2602 86.0562 59.2602 86.0562C59.7574 88.1797 58.5642 89.4944 58.5642 89.4944C57.3711 91.2135 58.0671 93.6404 59.4591 94.6517C60.8511 95.3595 61.8511 96.5731 61.8511 96.5731C62.0443 96.3708 62.9391 95.1573 64.3312 94.4494"/>
	<path fill="#9B6464" d="M38.4794 56.0225C38.4794 56.0225 38.6783 56.7304 38.4794 56.8315C38.4794 56.8315 39.3743 58.4495 43.7492 58.4495C43.7492 58.4495 47.6269 58.045 48.5218 56.8315C48.5218 56.8315 48.323 56.1236 48.323 56.0225C48.2235 56.0225 43.7492 58.2472 38.4794 56.0225"/>
	<path fill="#4C453F" d="M53.891 37.3146C53.891 37.3146 52.2006 36.5056 50.4109 36.5056C48.6212 36.5056 46.5331 37.3146 46.5331 37.3146C46.2349 38.2247 48.3229 37.5168 50.6098 37.7191C52.9961 37.9213 54.4875 38.6292 54.4875 38.6292L53.891 37.3146"/>
	<path fill="#4C453F" d="M38.5788 37.7191C38.5788 37.7191 36.8885 36.9101 35.0987 36.9101C33.309 36.9101 31.221 37.7191 31.221 37.7191C30.9227 38.6292 33.0107 37.9213 35.2976 38.1236C37.6839 38.3258 39.1753 39.0337 39.1753 39.0337L38.5788 37.7191"/>
	<path fill="#2D1B0A" d="M37.1868 41.8652C37.1868 42.7029 36.4745 43.3821 35.5959 43.3821C34.7173 43.3821 34.005 42.7029 34.005 41.8652C34.005 41.0275 34.7173 40.3483 35.5959 40.3483C36.4745 40.3483 37.1868 41.0275 37.1868 41.8652"/>
	<path fill="#2D1B0A" d="M51.2064 41.764C51.2064 42.6017 50.4941 43.2809 49.6155 43.2809C48.7369 43.2809 48.0246 42.6017 48.0246 41.764C48.0246 40.9263 48.7369 40.2471 49.6155 40.2471C50.4941 40.2471 51.2064 40.9263 51.2064 41.764"/>
	<path fill="#303030" d="M23.0678 31.7528C23.0678 31.7528 25.4541 36.8089 42.3572 36.8089C59.4591 36.8089 63.0386 31.6516 63.0386 31.6516C63.0386 31.6516 57.0728 27.5056 42.3572 27.5056C27.2438 27.5056 23.0678 31.7528 23.0678 31.7528"/>
	<path fill="#2D1B0A" d="M42.3571 37.7191C25.3546 37.7191 22.4712 32.764 22.1729 32.1573L22.3717 31.0449C22.5706 30.8427 27.0449 26.4944 42.3571 26.4944C57.2716 26.4944 63.3368 30.6404 63.6351 30.7415L63.834 32.1573C63.7346 32.4606 59.7574 37.7191 42.3571 37.7191M24.5592 31.955C25.9512 33.1685 30.3261 35.7977 42.3571 35.7977C54.2887 35.7977 59.4591 33.2696 61.3482 31.8539C58.9619 30.7415 52.9961 28.5168 42.3571 28.5168C31.3204 28.5168 26.3489 30.8427 24.5592 31.955"/>
</svg>
