<?xml version="1.0" encoding="utf-8" ?>
<svg xmlns="http://www.w3.org/2000/svg" xmlns:xlink="http://www.w3.org/1999/xlink" width="80" height="96">
	<path fill="white" d="M0 95.7998L0.198758 92.5965C0.496894 87.6913 2.68323 63.0657 13.4161 59.0615C14.6087 58.4609 17.0932 57.6601 23.6522 57.1595L26.5342 55.9583C26.4348 55.8582 26.236 55.7581 26.1366 55.5579C22.559 51.5537 21.0683 47.7497 20.472 45.4473C19.1801 44.8467 17.9876 43.6455 17.3913 41.6434C17.1925 41.243 16.9938 40.6423 16.5963 40.0417C15.4037 37.7393 14.0124 34.8363 14.9068 32.1335C15.205 31.1324 15.9006 30.2315 16.795 29.5308C16.0994 25.1262 15.4037 16.8175 18.3851 11.9124C23.1553 4.00417 30.5093 0 40.2484 0C53.2671 0 58.4348 8.80918 60.1242 12.513C61.6149 16.5172 63.205 24.2252 62.4099 30.0313C63.0062 30.732 63.4037 31.5328 63.6025 32.5339C63.9006 36.3379 61.4161 42.4442 60.323 43.7456C59.2298 44.8467 58.4348 45.6475 57.3416 46.1481C56.7453 48.1502 55.7516 50.9531 53.764 54.1564C53.2671 55.0574 52.6708 55.8582 51.9752 56.659L53.2671 57.1595C58.7329 57.4599 63.0062 57.7602 64.9938 58.1606C76.2236 61.6642 79.205 87.4911 79.7019 92.6966L80 96L0 95.7998"/>
	<path fill="white" d="M3.1304 92.7881C3.1304 92.7881 4.91922 65.0592 14.559 61.7558C20.8198 58.5524 57.59 59.6642 64.5465 60.9549C73.9875 63.9581 76.8695 92.7881 76.8695 92.7881L3.1304 92.7881"/>
	<path fill="#2D1B0A" d="M77.9628 93.7977L2.0373 93.7977L2.0373 92.6957C2.23606 91.4934 4.12426 64.4436 14.1615 60.8369C21.0187 57.4307 58.4845 58.6547 64.7454 59.9353C74.7826 63.1412 77.6646 91.3933 77.764 92.5955L77.9628 93.7977M4.22364 91.794L75.7764 91.794C74.7826 83.2783 71.205 64.2432 64.3479 61.939C57.0932 60.6366 20.9193 59.6347 15.0559 62.7404C7.80128 65.1449 4.81991 83.5789 4.22364 91.794"/>
	<path fill="#EAC3AA" d="M30.708 53.3556L46.8074 53.3556L46.8074 68.4713L30.708 68.4713L30.708 53.3556"/>
	<path fill="#2D1B0A" d="M47.9006 69.5725L29.8136 69.5725L29.8136 52.4547L47.9006 52.4547L47.9006 69.5725M31.7018 67.5704L45.8136 67.5704L45.8136 54.4568L31.7018 54.4568L31.7018 67.5704"/>
	<path fill="#614629" d="M20.2732 31.742C20.2732 31.742 17.59 19.1288 20.9689 13.4228C24.3477 7.71696 30.1117 2.91195 40.3477 2.91195C50.6832 2.91195 55.5527 9.11842 57.4409 13.6231C59.2298 18.1278 60.5217 26.7368 59.1303 31.4417C57.6396 36.1465 57.4409 41.3519 54.6583 40.5511C51.9751 39.3499 53.9626 27.5377 52.1739 24.5345C50.385 21.3312 46.1117 20.4301 42.1366 21.5313C38.4595 22.8327 28.621 23.5335 27.1304 24.5345C25.9378 25.7357 24.4471 27.2373 24.6459 30.2405C24.8447 33.2435 25.5403 39.3499 23.4533 38.9494C21.7639 38.549 20.2732 33.3437 20.2732 31.742"/>
	<path fill="#2D1B0A" d="M55.354 41.6434C55.0558 41.6434 54.7577 41.6434 54.4596 41.5433C52.2732 40.6424 52.1738 36.7383 52.1738 32.1335C52.1738 29.3306 52.0745 26.2273 51.4782 25.1262C50.0869 22.5235 46.3105 21.5224 42.5341 22.6236C40.6459 23.3243 37.1676 23.8248 33.8881 24.3254C31.6024 24.6257 28.5217 25.1262 27.826 25.4265C26.6335 26.5277 25.5403 27.829 25.739 30.2315L25.8384 31.2326C26.1366 35.2367 26.3353 38.34 24.944 39.5412C24.4471 39.9416 23.9502 40.0417 23.354 39.9416C20.7701 39.341 19.4782 33.4348 19.3788 31.8332C19.0807 30.5318 16.795 18.6194 20.2732 12.9135C24.6459 5.60586 31.4036 1.902 40.4471 1.902C52.2732 1.902 57.0434 9.81024 58.5341 13.2138C60.3229 17.7185 61.8136 26.5277 60.2235 31.7331C59.826 32.9343 59.6273 34.1356 59.3291 35.2367C58.6335 38.1397 58.1366 40.4421 56.6459 41.243C56.2484 41.5433 55.8509 41.6434 55.354 41.6434M55.0558 39.6413C55.354 39.7414 55.4533 39.6413 55.4533 39.6413C56.149 39.2409 56.7453 36.9385 57.2422 34.8363C57.5403 33.6351 57.8384 32.4338 58.1366 31.1324C59.4285 26.9281 58.3353 18.7195 56.4471 14.0146C54.8571 10.3108 50.4844 3.90409 40.2484 3.90409C31.9005 3.90409 25.8384 7.20753 21.7639 13.9145C18.5838 19.22 21.1676 31.3327 21.1676 31.4328C21.1676 33.4348 22.6583 37.5391 23.5527 37.8394C24.149 37.0386 23.8508 32.7341 23.7515 31.2326L23.6521 30.2315C23.354 26.6278 25.3415 24.7258 26.4347 23.7247C27.4285 23.024 29.6148 22.7237 33.3912 22.1231C36.472 21.7226 39.9502 21.122 41.7391 20.5214C46.5092 19.1199 51.0807 20.5214 52.9689 23.9249C53.8633 25.4265 53.9627 28.6298 53.9627 31.9333C54.1614 34.536 54.2608 39.1408 55.0558 39.6413"/>
	<path fill="#FAD1B6" d="M40.5465 57.7601C40.5465 57.7601 33.4907 58.7612 28.4223 53.5557C23.6521 48.2502 23.1552 43.0448 23.1552 43.0448C23.1552 43.0448 21.0683 43.245 20.3726 40.7424C19.4782 38.2398 15.8012 33.4348 19.1801 31.8331C19.1801 31.8331 20.5714 31.3326 21.267 33.0344C21.9627 34.3357 22.6583 37.539 22.9565 38.0396C23.1552 38.2398 24.149 37.3388 23.6521 30.5317C23.6521 30.5317 22.4596 25.5265 27.3291 23.9249C32.0993 22.123 38.3601 22.3232 40.2483 20.7215C42.1366 19.4202 49.3913 21.4223 51.0807 20.0208C51.0807 20.0208 53.6646 21.3222 54.2608 25.7267C54.4595 29.831 54.7578 37.539 55.6521 38.3399C56.5465 39.0406 56.3477 34.636 57.0434 33.0344C57.7391 31.4327 60.4223 30.732 60.9324 33.2346C61.118 35.7372 59.031 41.0427 58.3354 41.9436C57.4409 42.8446 56.2484 44.246 55.1553 43.245C55.1553 43.245 54.6583 47.5495 51.3788 52.7549C48.7949 57.5599 42.2359 57.5599 40.5465 57.7601"/>
	<path fill="#2D1B0A" d="M39.1608 58.7612C36.6757 58.7612 31.6062 58.1606 27.7294 54.1564C23.8527 49.8519 22.6598 45.6475 22.3616 43.8457C21.2682 43.6455 19.976 42.8446 19.4789 40.8425C19.2801 40.4421 18.9819 39.7414 18.5843 39.0407C17.4909 36.9385 16.298 34.6361 16.9939 32.634C17.2921 31.8332 17.8885 31.1324 18.7831 30.732C19.7771 30.4317 21.467 30.6319 22.2622 32.4338C22.4611 32.8342 22.7593 33.4348 22.9581 34.1356C22.9581 33.2346 22.9581 32.0334 22.8587 30.5318C22.3616 28.4296 22.6598 24.3253 27.133 22.8238C29.5187 21.9228 32.2026 21.5224 34.5883 21.122C36.8745 20.8217 38.962 20.4213 39.7572 19.8206C41.0495 18.9197 43.4352 19.1199 45.9203 19.3201C47.5107 19.4202 49.9958 19.6204 50.5922 19.22L51.6857 19.1199C51.7851 19.22 54.7672 20.7216 55.3636 25.5266L55.3636 26.5276C55.463 28.3295 55.5624 31.5328 55.8606 34.0354C55.96 33.4348 56.0594 32.9343 56.2582 32.5339C56.8546 31.2325 58.2463 30.3316 59.6379 30.5318C60.8308 30.6319 61.7254 31.5328 62.0363 32.9343C62.2224 35.7372 60.0355 41.3431 59.1409 42.4442C58.1469 43.4453 57.1528 44.4463 55.96 44.4463C55.5624 46.1481 54.6678 49.3514 52.2821 53.0553C49.797 58.0605 43.9322 58.4609 41.3477 58.6611C41.0495 58.6611 40.8507 58.6611 40.7513 58.7612C40.5525 58.7612 39.9561 58.7612 39.1608 58.7612M24.0515 41.9437L24.1509 42.9447C24.1509 42.9447 24.7473 47.9499 29.1211 52.8551C33.6936 57.56 40.3537 56.7591 40.3537 56.7591C40.5525 56.7591 40.7513 56.7591 41.0495 56.659C43.2364 56.4588 48.4053 56.1585 50.3934 52.0542C53.5743 47.049 54.0713 42.9447 54.0713 42.9447L54.2701 40.9426L55.6618 42.3441C55.96 42.4442 56.7552 41.6434 57.0534 41.3431C57.9481 40.2419 59.8367 35.3368 59.7373 33.2346C59.5385 32.5339 59.2403 32.4338 59.1409 32.4338C58.7433 32.4338 58.0475 32.7341 57.8487 33.3347C57.6499 33.8352 57.4511 35.0365 57.3517 35.9374C57.1528 37.7393 57.0534 38.8405 56.1588 39.1408C55.7612 39.341 55.2642 39.2409 54.966 38.9406C53.9719 38.1397 53.5743 35.4369 53.1767 26.4275C52.8785 22.8238 51.5863 21.5224 50.9898 20.9218C49.6976 21.4223 47.8089 21.2221 45.622 21.122C43.8328 21.0219 41.4471 20.8217 40.7513 21.3222C39.5584 22.2231 37.471 22.6236 34.6877 23.024C32.4014 23.4244 29.8169 23.8248 27.63 24.6256C23.6539 25.927 24.5485 29.9312 24.6479 30.1314C25.2443 38.0396 23.9521 38.6402 23.4551 38.8405C23.0575 39.0407 22.5604 38.9406 22.2622 38.6402C21.8646 38.1397 21.7652 37.6392 21.3676 36.5381C21.0694 35.537 20.6718 34.1356 20.2742 33.4348C19.976 32.8342 19.6777 32.7341 19.3795 32.7341C18.8825 32.9343 18.7831 33.2346 18.6837 33.4348C18.2861 34.536 19.3795 36.7383 20.1748 38.2398C20.5724 39.0407 20.8706 39.7414 21.1688 40.342C21.6658 42.1439 22.9581 42.0438 22.9581 42.0438L24.0515 41.9437"/>
	<path fill="#454545" d="M40.149 75.2783C40.5466 74.8779 42.8323 71.8748 42.8323 70.7737C42.5341 69.4723 38.7577 66.9697 38.7577 66.9697C38.7577 66.9697 34.9813 69.172 34.9813 70.7737C34.9813 72.3753 37.9627 75.5787 38.1615 75.5787L35.1801 81.2846L36.9689 92.4963L41.3416 92.4963L43.031 81.2846L40.149 75.2783"/>
	<path fill="#2D1B0A" d="M42.0372 93.4974L36.0745 93.4974L34.0869 81.1846L36.8695 75.879C35.5776 74.5777 33.9875 72.1752 33.9875 70.8738C33.9875 68.7716 37.267 66.7695 38.2608 66.1689C40.5466 66.9697 43.4285 69.0719 43.8261 70.6736C43.8261 72.1752 42.1366 74.4776 41.3416 75.5787L44.0248 81.2847L42.0372 93.4974M37.764 91.4953L40.3478 91.4953L41.8385 81.4849L39.1553 75.6788L36.0745 81.585L37.764 91.4953M38.3602 74.5777L39.4534 74.5777C39.9503 74.0771 41.6397 71.6747 41.8385 70.8738C41.5403 70.3733 40.2484 69.172 38.7577 68.0709C37.267 69.0719 35.9751 70.2732 35.9751 70.7737C35.8757 71.6747 37.6646 73.8769 38.3602 74.5777"/>
	<path fill="#351F21" d="M26.4348 28.4296C26.5342 28.2294 26.6336 28.0292 26.733 27.7289C26.733 27.6287 26.8323 27.6287 26.9317 27.5286C27.0311 27.4156 27.2299 27.4156 27.4286 27.4156C29.8137 27.4156 32.2982 27.829 34.7827 28.2294C34.9814 28.2294 35.1802 28.3295 35.3789 28.3295C35.8758 28.5297 35.8758 28.83 35.7764 29.0302"/>
	<path fill="#351F21" d="M51.0808 28.4297C50.9814 28.2295 50.882 27.9291 50.7826 27.7289C50.7826 27.6288 50.6833 27.6288 50.6833 27.5287C50.5839 27.4092 50.3851 27.4092 50.2857 27.4092C48.1988 27.4092 46.0124 27.6288 43.9255 28.0292C43.7267 28.0292 43.528 28.1293 43.4286 28.1293C43.0752 28.3296 43.0752 28.6299 43.0752 28.9302"/>
	<path fill="#351F21" d="M48.4969 33.3347C48.4969 34.2193 47.4736 34.9364 46.2112 34.9364C44.9488 34.9364 43.9255 34.2193 43.9255 33.3347C43.9255 32.4501 44.9488 31.733 46.2112 31.733C47.4736 31.733 48.4969 32.4501 48.4969 33.3347"/>
	<path fill="#351F21" d="M34.6832 33.1345C34.6832 34.0191 33.6599 34.7362 32.3975 34.7362C31.1351 34.7362 30.1118 34.0191 30.1118 33.1345C30.1118 32.2499 31.1351 31.5328 32.3975 31.5328C33.6599 31.5328 34.6832 32.2499 34.6832 33.1345"/>
	<path fill="#662D1E" d="M35.677 47.2492L44.5218 47.2492C44.5218 47.2492 44.1242 51.0532 40.3479 51.1552C36.5714 51.2534 35.677 47.2492 35.677 47.2492"/>
	<path fill="#F9F9F9" d="M29.118 58.1606C29.118 58.1606 31.7018 64.4671 38.8571 65.9687C38.8571 65.9687 32.3975 70.073 31.4037 73.3764C31.4037 73.3764 26.0372 67.9708 23.8509 60.463L29.118 58.1606"/>
	<path fill="#2D1B0A" d="M31.8012 75.1783L30.6087 73.977C30.4099 73.7768 25.0434 68.3712 22.7577 60.6632L29.5155 56.7591C29.913 57.7601 32.3975 63.4661 38.8571 64.8676L41.2422 65.3681L39.1553 66.6694C37.4658 67.7706 32.795 71.1741 32.0993 73.4765L31.8012 75.1783M24.9441 60.9635C26.6335 65.8686 29.5155 69.7727 31.0062 71.4744C32.2981 69.4723 34.6832 67.4703 36.3726 66.269C31.8012 64.5672 29.4161 61.0636 28.5217 59.4619L24.9441 60.9635"/>
	<path fill="#F9F9F9" d="M48.0994 58.0605C48.0994 58.0605 45.5156 64.3671 38.3603 65.8686C38.3603 65.8686 44.8199 69.9729 45.8137 73.2763C45.8137 73.2763 51.1802 67.8707 53.3665 60.3629L48.0994 58.0605"/>
	<path fill="#2D1B0A" d="M45.4162 75.0782L44.9193 73.4765C44.2236 71.0741 39.5528 67.7707 37.8634 66.6695L35.7764 65.3681L38.1615 64.8676C44.6211 63.4661 47.1056 57.7602 47.1056 57.6601L54.559 59.7623C51.9752 68.3713 46.7081 73.7769 46.4099 73.9771L45.4162 75.0782M40.646 66.169C42.3354 67.3703 44.7205 69.3723 46.0124 71.3744C47.5031 69.5724 50.4845 65.6684 52.0745 60.8634L48.3975 59.3619C47.6025 60.9635 45.2174 64.4672 40.646 66.169"/>
</svg>
