<?xml version="1.0" encoding="utf-8" ?>
<svg xmlns="http://www.w3.org/2000/svg" xmlns:xlink="http://www.w3.org/1999/xlink" width="72" height="92">
	<path fill="white" d="M0.19948 91.7998L0 88.5963C0 85.6931 0.398961 70.7769 3.09195 65.8716C3.88987 64.37 5.28623 62.9684 7.18129 61.667L15.0608 22.8248C13.8639 21.8237 13.066 20.222 13.066 18.5201C13.066 15.8172 14.961 13.6148 17.4545 13.0141C19.3496 8.20892 24.1371 0.700762 35.8067 0C36.2057 0 36.5049 0 36.9039 0C44.4841 0 50.7677 4.60501 54.7574 13.0141C57.2509 13.6148 59.1459 15.8172 59.1459 18.5201C59.1459 19.9217 58.6472 21.2231 57.7496 22.2242L63.8337 60.8662C64.6316 61.3667 65.5293 62.0675 66.427 62.9684C68.4218 64.8705 69.8181 67.2731 70.5163 69.9761C70.616 70.1763 72.4114 77.1839 71.9127 89.0968L71.8129 92L0.19948 91.7998"/>
	<path fill="#7F1D1E" d="M17.9532 36.7401L53.6602 36.7401L53.6602 61.2668L17.9532 61.2668L17.9532 36.7401"/>
	<path fill="#FAD1B6" d="M21.7434 22.6246L49.6707 22.5244C49.6707 22.5244 51.5657 41.5452 47.2769 46.7507C42.9881 51.9564 35.1086 51.556 31.3185 51.0555C27.5283 50.4548 21.7434 46.4504 21.145 37.841C20.5465 29.2317 21.7434 22.6246 21.7434 22.6246"/>
	<path fill="#2D1B0A" d="M35.4079 52.2568C33.7123 52.2568 32.2162 52.0566 31.1191 51.9565C27.0297 51.3558 20.7461 47.0511 20.1476 37.8411C19.5492 29.2318 20.6463 22.7247 20.7461 22.4244L50.4687 21.5234C50.6681 23.2253 52.4635 41.9456 47.9752 47.3515C44.6837 51.3558 39.3975 52.2568 35.4079 52.2568M22.5414 23.6257C22.2422 25.6279 21.6437 31.1339 22.1424 37.741C22.6411 45.7497 28.0271 49.4538 31.4183 49.9543C34.5102 50.4548 42.29 51.0555 46.4791 46.0501C49.6707 42.2459 49.2718 29.2318 48.7731 23.5256L22.5414 23.6257"/>
	<path fill="#FF5576" d="M21.9926 24.1262L48.723 24.3264L51.5157 57.6627L51.5157 67.6735L61.2902 65.1708L54.5079 21.9238C54.5079 21.9238 50.7178 2.10226 35.7568 2.8795C20.7957 3.704 19.0004 17.7192 19.0004 17.7192L9.5251 64.0696L20.1973 64.7704L21.9926 24.1262"/>
	<path fill="#2D1B0A" d="M50.5682 68.975L50.5682 57.6581L47.7755 25.3099L22.8405 25.1096L21.0451 65.8703L8.2784 65.0691L17.9532 17.4983C17.9532 17.3981 20.0477 2.67622 35.7069 1.8462C51.3662 0.973689 55.4555 21.5043 55.5552 21.7046L62.5371 65.8703L50.5682 68.975M21.0451 23.1066L49.6706 23.3069L52.563 57.558L52.563 66.3711L60.243 64.3681L53.5604 22.005C53.5604 21.8047 49.6706 3.07682 35.8067 3.77786C21.8431 4.57906 19.948 17.5984 19.948 17.7987L10.6722 63.1663L19.1501 63.6671L21.0451 23.1066"/>
	<path fill="#FAD1B6" d="M28.2265 50.3547L43.4867 50.3547L43.4867 63.8694L28.2265 63.8694L28.2265 50.3547"/>
	<path fill="#2D1B0A" d="M44.3844 64.8706L27.1294 64.8706L27.1294 49.3536L44.3844 49.3536L44.3844 64.8706M29.2239 62.8683L42.4894 62.8683L42.4894 51.3558L29.2239 51.3558L29.2239 62.8683"/>
	<path fill="#F9F9F9" d="M68.8208 88.7965C69.3195 77.1839 67.5242 70.4766 67.5242 70.4766C66.1278 64.6703 61.0411 62.6681 61.0411 62.6681C61.0411 62.6681 60.8416 62.6681 58.6473 61.7671C56.453 60.8661 47.8754 57.4624 47.8754 57.4624C46.5788 56.161 44.4842 54.7595 44.4842 54.7595C43.9855 58.5636 36.4053 63.469 36.4053 63.469C29.9221 61.8672 27.0297 54.7595 27.0297 54.7595C25.6333 56.3612 24.1372 56.7617 24.1372 56.7617C24.1372 56.7617 21.2448 58.5636 18.2525 59.6648C15.3601 60.9662 8.17879 62.9684 5.68528 67.4733C3.19178 71.9782 2.9923 88.7965 2.9923 88.7965L68.8208 88.7965"/>
	<path fill="#2D1B0A" d="M69.7405 89.7976L1.8951 89.6974L1.8951 88.6964C1.8951 87.9956 2.19432 71.5777 4.78756 66.8726C6.98185 62.8683 12.3678 60.8661 15.8587 59.4646C16.6566 59.1643 17.2551 58.964 17.7538 58.6637C20.746 57.6626 23.5387 55.8607 23.5387 55.8607C23.8379 55.7606 25.0348 55.3601 26.2317 54.0587L27.3288 52.8574L27.9273 54.359C27.9273 54.4591 30.6203 60.6659 36.2057 62.3677C38.4 60.8661 43.1875 57.2622 43.4868 54.6594L43.6862 53.0576L44.9829 53.9586C45.0826 54.0587 47.0774 55.3601 48.374 56.6615C49.6706 57.1621 56.9517 60.0652 58.9465 60.9662C60.3428 61.5669 60.8415 61.7671 61.041 61.7671C61.44 61.9673 66.7262 64.0696 68.3221 70.2763C68.4218 70.5767 70.2171 77.284 69.6187 88.7965L69.7405 89.7976M3.8899 87.7954L67.8234 87.8955C68.2223 77.1838 66.5267 70.9771 66.5267 70.877C65.3298 65.8715 61.2405 63.9695 60.7418 63.7693C60.4426 63.6692 59.8441 63.4689 58.348 62.8683C56.1538 61.9673 47.6758 58.5636 47.5761 58.5636C46.6784 57.7627 45.7808 57.062 45.0826 56.5614C43.387 60.2654 37.7018 63.9695 37.0036 64.47C31.0192 63.2687 28.027 58.7638 26.8301 56.5614C25.8327 57.3623 25.0348 57.6626 24.6359 57.7627C24.0374 58.1632 21.4442 59.6648 18.6514 60.6659C18.1527 60.8661 17.4546 61.1664 16.6566 61.4668C13.3652 62.7682 8.37821 64.6702 6.58289 67.9738C4.68782 71.1773 4.08938 82.4896 3.8899 87.7954"/>
	<path fill="#3F3F3F" d="M68.6384 88.6967C69.1371 77.0841 67.3418 70.3768 67.3418 70.3768C65.9454 64.5705 60.8587 62.5683 60.8587 62.5683C60.8587 62.5683 60.6592 62.5683 58.4649 61.6673C56.2706 60.7663 50.386 58.0634 50.386 58.0634L36.4223 84.1918C33.6296 79.8871 18.0701 59.4649 18.0701 59.4649C18.0701 59.4649 7.99639 62.7685 5.50288 67.2734C3.00938 71.7783 2.8099 88.5966 2.8099 88.5966L68.6384 88.6967"/>
	<path fill="#2D1B0A" d="M69.6186 89.6977L1.7953 89.5976L1.7953 88.5965C1.7953 87.8957 2.09452 71.4779 4.68776 66.7728C7.38075 61.9675 17.4545 58.664 17.8535 58.5639L18.9506 58.9643C19.5491 59.7652 32.1163 76.2831 36.4051 82.3897L50.0695 56.862C50.9672 57.2624 56.8519 59.9654 58.9464 60.8663C60.3428 61.467 60.8415 61.6672 61.041 61.6672C61.4399 61.8674 66.7262 63.9697 68.322 70.1765C68.4217 70.4768 70.2171 77.1841 69.6186 88.6966L69.6186 89.6977M3.7901 87.5954L67.7236 87.6955C68.1225 76.9839 66.4269 70.7771 66.4269 70.677C65.23 65.6716 61.041 63.7695 60.642 63.5693C60.3428 63.4692 59.7443 63.269 58.2482 62.6683C56.5527 61.9675 52.6628 60.2657 50.9672 59.4648L36.6046 86.1939L35.7679 84.7924C33.2135 80.9882 20.347 63.9697 17.8535 60.6661C14.7615 61.7673 8.27841 64.5704 6.48309 67.7739C4.48828 70.9773 3.88984 82.3897 3.7901 87.5954"/>
	<path fill="#423E3A" d="M53.2551 21.1229L18.5454 21.1229C17.0493 21.1229 15.8524 19.9216 15.8524 18.42C15.8524 16.9184 17.0493 15.7171 18.5454 15.7171L53.2551 15.7171C54.7512 15.7171 55.948 16.9184 55.948 18.42C55.948 19.9216 54.7512 21.1229 53.2551 21.1229"/>
	<path fill="#2D1B0A" d="M53.3548 22.124L18.6452 22.124C16.6504 22.124 14.9548 20.5223 14.9548 18.42C14.9548 16.4178 16.5506 14.716 18.6452 14.716L53.3548 14.716C55.3496 14.716 57.0452 16.3177 57.0452 18.42C56.9454 20.4222 55.3496 22.124 53.3548 22.124M18.5455 16.7182C17.6478 16.7182 16.8499 17.4189 16.8499 18.42C16.8499 19.4211 17.548 20.1219 18.5455 20.1219L53.255 20.1219C54.1527 20.1219 54.9506 19.4211 54.9506 18.42C54.9506 17.4189 54.2524 16.7182 53.255 16.7182L18.5455 16.7182"/>
	<path fill="#4C3218" d="M22.5412 32.1349C22.5412 32.1349 21.2446 41.2448 25.4337 41.9456C29.6227 42.6463 29.4233 40.9445 34.111 41.1447C38.7988 41.3449 42.2897 42.0457 42.2897 42.0457C42.2897 42.0457 46.1796 42.8465 46.8778 42.0457C47.576 41.2448 49.2715 37.3406 49.2715 34.037C49.2715 34.037 50.6679 46.05 45.8804 49.6539C41.0929 53.2579 36.5048 52.6572 34.51 52.6572C32.5152 52.6572 26.9298 52.0566 24.536 48.9532C22.0425 45.7497 20.4466 39.3427 22.5412 32.1349"/>
	<path fill="#2D1B0A" d="M36.3054 53.6583C35.9064 53.6583 35.5075 53.6583 35.1085 53.6583C34.8093 53.6583 34.6098 53.6583 34.4103 53.6583C34.1111 53.6583 26.7303 53.6583 23.6384 49.5539C21.0451 46.1502 19.4493 39.3428 21.5438 31.9347L23.4389 32.3351C23.1397 34.4374 22.8405 40.5441 25.5334 41.0446C27.5283 41.445 28.3262 41.1447 29.4233 40.8444C30.4207 40.5441 31.7173 40.1436 34.0114 40.2437C38.6991 40.444 42.1901 41.1447 42.2898 41.1447C43.7859 41.445 45.4815 41.5452 45.8804 41.445C46.4789 40.6442 47.975 37.0402 47.975 34.1371L49.9698 34.037C50.0695 34.5375 51.3661 46.6507 46.1797 50.5549C42.4893 53.358 38.7989 53.6583 36.3054 53.6583M22.7407 41.2448C23.1397 44.2481 24.0373 46.6507 25.2342 48.2524C27.229 50.9554 32.1163 51.6561 34.4103 51.6561C34.6098 51.6561 34.909 51.6561 35.2082 51.6561C37.5023 51.7562 41.1927 51.8564 45.1823 48.8531C46.9776 47.5517 47.7755 44.6485 48.1745 41.6452C47.975 42.1458 47.7755 42.4461 47.576 42.6463C46.8778 43.5473 44.9828 43.6474 41.9906 43.0468C41.9906 43.0468 38.4997 42.346 34.0114 42.1458C32.0166 42.0457 31.0192 42.346 30.0218 42.6463C28.8249 43.0468 27.7277 43.3471 25.2342 42.9467C24.1371 42.7465 23.3392 42.1458 22.7407 41.2448"/>
	<path fill="#FF6050" d="M36.8041 70.0762C37.1033 69.7759 38.8986 67.4734 38.8986 66.5724C38.6992 65.5713 35.707 63.5691 35.707 63.5691C35.707 63.5691 32.7148 65.271 32.7148 66.5724C32.7148 67.8738 35.0088 70.2764 35.1085 70.2764L32.8145 74.6813L34.2109 83.2906L37.5023 83.2906L38.7989 74.6813L36.8041 70.0762"/>
	<path fill="#2D1B0A" d="M38.4997 84.2916L33.4129 84.2916L31.8171 74.481L33.9116 70.4766C32.8145 69.3754 31.7174 67.5734 31.7174 66.5724C31.7174 64.8705 34.1111 63.3689 35.2083 62.7682C37.4025 63.5691 39.4971 65.0707 39.7963 66.3721C39.7963 67.6736 38.5994 69.2753 37.9012 70.1763L39.896 74.481L38.4997 84.2916M35.1085 82.2894L36.7044 82.2894L37.8015 74.8814L35.9064 70.877L33.8119 74.8814L35.1085 82.2894M35.5075 69.2753C36.5049 68.7748 37.602 67.2731 37.8015 66.6725C37.5023 66.272 36.6046 65.4712 35.6072 64.7704C34.6098 65.4712 33.7122 66.1719 33.7122 66.5724C33.7122 67.173 34.909 68.6747 35.5075 69.2753"/>
	<path fill="#6B6B6B" d="M52.6628 65.6713L52.2637 59.7649L46.6782 57.1621L44.9827 65.7715L36.6045 82.1893L26.83 65.8716L25.2342 57.2622L19.6487 59.865L19.2498 65.8716L24.536 66.1719L19.9479 71.0772L36.5047 83.9913L52.6628 70.5767L47.7755 65.9717"/>
	<path fill="#2D1B0A" d="M36.5049 85.2927L18.4519 71.2775L22.3418 67.0729L18.1527 66.8727L18.6514 59.3645L25.9324 55.8607L27.7278 65.6714L36.4052 80.2873L43.9854 65.5713L45.8805 55.8607L53.1615 59.2644L53.6602 66.7726L50.0696 66.9728L54.0592 70.7769L36.5049 85.2927M21.4441 70.9771L35.1085 81.5887L25.9324 66.0718L21.4441 70.9771M46.0799 65.6714L38.1007 81.4886L51.1667 70.5767L46.0799 65.6714M20.2472 64.8705L25.6332 65.1708L24.4363 58.6637L20.5465 60.4657L20.2472 64.8705M47.3766 58.5636L46.1797 65.0707L51.5657 64.7704L51.2664 60.4657L47.3766 58.5636"/>
	<path fill="#282626" d="M46.2794 27.1295L41.1927 26.9293L39.1979 26.629L39.5968 24.9271L47.0773 24.9271L46.5786 26.8292"/>
	<path fill="#282626" d="M32.1163 27.1294L30.6202 27.0293L24.6358 27.0293L23.6384 25.0272L32.4156 25.0272"/>
	<path fill="#282626" d="M30.9194 30.1328C30.9194 31.128 30.1156 31.9348 29.1241 31.9348C28.1326 31.9348 27.3288 31.128 27.3288 30.1328C27.3288 29.1376 28.1326 28.3308 29.1241 28.3308C30.1156 28.3308 30.9194 29.1376 30.9194 30.1328"/>
	<path fill="#282626" d="M43.9854 29.8324C43.9854 30.8276 43.1816 31.6344 42.1901 31.6344C41.1986 31.6344 40.3948 30.8276 40.3948 29.8324C40.3948 28.8372 41.1986 28.0304 42.1901 28.0304C43.1816 28.0304 43.9854 28.8372 43.9854 29.8324"/>
	<path fill="#CF5A44" d="M29.922 42.5463L40.295 42.6464C40.295 42.6464 41.1926 47.7533 34.7095 47.7533C30.321 47.852 29.922 42.5463 29.922 42.5463"/>
</svg>
