<?xml version="1.0" encoding="utf-8" ?>
<svg xmlns="http://www.w3.org/2000/svg" xmlns:xlink="http://www.w3.org/1999/xlink" width="66" height="96">
	<path fill="white" d="M40.18 95.6987L38.3503 95.6987L23.1022 95.6987L0.128557 95.2971L0 92.4854C0 91.7824 -0.684671 74.7113 5.21123 64.4686C5.41454 64.1674 5.51619 63.8661 5.7195 63.5649C5.10958 62.6611 4.90627 61.7573 4.90627 60.7531L4.90627 59.4477L10.8022 54.0251C10.4972 49.0042 9.78564 37.5565 9.58233 29.0209C9.37902 15.364 17.1047 0.803347 30.4213 0C31.8444 0 41.6032 0.200837 48.7189 7.6318C54.0049 13.2552 56.4446 21.3891 55.733 31.8326L54.5132 54.4268C55.3264 55.1297 56.6479 56.0335 57.7661 56.8368L59.7991 58.3431L58.681 60.6527C58.5793 60.7531 58.5793 60.954 58.4776 61.0544C61.9339 66.477 65.695 73.6067 65.7967 79.431C66 88.6695 66 92.887 66 92.9874L66 96L40.18 95.6987"/>
	<path fill="#4F4E55" d="M30.224 3.01215C30.224 3.01215 54.1038 2.41058 52.1731 31.6323L50.8521 56.1344C50.8521 56.1344 62.1315 70.1931 62.3347 79.532C62.5379 88.8708 62.5379 92.9879 62.5379 92.9879L2.6448 92.3855C2.6448 92.3855 1.87315 75.6156 7.46204 66.0759C13.0509 56.5361 13.559 56.3353 13.559 56.3353C13.559 56.3353 12.4412 40.0675 12.238 29.0215C12.1364 17.9754 18.0301 3.81644 30.224 3.01215"/>
	<path fill="#2D1B0A" d="M63.5614 93.9415L1.6217 93.339C1.6217 91.7323 0.939382 75.2637 6.53063 65.5231C10.1904 59.1968 11.7152 56.8871 12.5285 55.9834C12.3252 53.3725 11.4103 39.0127 11.207 29.0712C11.0036 18.3265 16.7982 2.86203 30.1155 2.0586C30.5222 2.0586 39.7732 2.0586 46.4827 8.88713C51.5656 14.1089 53.8021 21.7407 53.0905 31.7825L51.7689 55.8829C53.4971 58.0922 63.0531 70.6445 63.2564 79.5817C63.4597 88.8202 63.4597 93.0378 63.4597 93.0378M3.68418 91.4311L61.5282 91.9332C61.5282 90.226 61.5282 86.2093 61.3249 79.4813C61.1216 70.544 50.1424 56.8871 50.0407 56.6863L51.159 31.4813C51.7689 22.1424 49.7357 14.9122 45.0594 10.1926C39.0615 3.96663 30.6238 3.96663 30.2172 3.96663C18.2214 4.66956 13.0368 19.0294 13.2401 28.8704C13.4435 39.7156 14.5617 55.9834 14.5617 56.0838L14.1551 57.088C13.8501 57.4896 12.5285 59.2972 8.3605 66.4269C3.78584 74.4604 3.68418 87.7156 3.68418 91.4311"/>
	<path fill="#FAD1B6" d="M27.8939 55.2015C30.5359 56.5069 33.686 56.3061 36.2264 54.9002C40.5959 52.2893 47.3025 46.3646 47.1038 33.9128C46.8961 15.2349 31.8569 15.8129 31.8569 15.8129C31.8569 15.8129 16.8177 14.3312 17.2161 34.9169C17.6307 47.7705 23.5244 53.0927 27.8939 55.2015"/>
	<path fill="#2D1B0A" d="M31.7557 57.1381C30.3331 57.1381 28.8088 56.8368 27.4877 56.1338C22.5084 53.7235 16.6145 48.0994 16.4072 34.8426C16.4072 27.3103 18.1387 21.7866 21.8986 18.372C26.1667 14.4552 31.3493 14.7511 32.0606 14.7511C32.7719 14.7511 38.361 14.7511 42.8322 18.9745C46.3889 22.2887 48.2181 27.3103 48.3207 33.8382C48.4213 46.9946 41.2063 53.2213 36.9383 55.7321C35.2108 56.636 33.4833 57.1381 31.7557 57.1381M28.4023 54.3261C30.7395 55.4308 33.4833 55.3304 35.8205 54.0248C39.7837 51.7149 46.3889 45.9903 46.2873 33.8382C46.1857 27.8124 44.5598 23.293 41.5112 20.3806C37.4464 16.5642 32.2638 16.6646 32.1622 16.6646C31.959 16.6646 27.0812 16.2629 23.2197 19.778C19.8663 22.7909 18.2404 27.8124 18.4436 34.7421C18.6468 46.9946 23.931 52.1166 28.4023 54.3261"/>
	<path fill="#2D1B0A" d="M39.5798 39.1632C37.8523 39.1632 36.3281 38.6611 35.0071 37.5565C31.857 34.9457 31.5522 30.0252 31.5522 29.8243C32.1618 28.7197 33.6861 27.3139 34.9055 27.113C36.0233 26.829 42.9332 26.7114 44.2542 26.829C45.6768 27.113 46.9977 28.5189 47.0994 28.7197C47.3027 29.4227 48.014 33.5398 45.7784 36.3515C44.559 37.8578 42.8316 38.7616 40.4944 39.0628C40.1895 39.0628 39.8847 39.1632 39.5798 39.1632M33.6861 30.1256C33.8893 31.3306 34.3974 34.3432 36.4297 35.9499C37.4459 36.8536 38.7669 37.1549 40.3927 37.0544C42.1203 36.8536 43.4412 36.2511 44.2542 35.1465C45.6768 33.339 45.5751 30.7281 45.4735 29.8243C45.0671 29.4227 44.4574 29.021 43.9493 28.9206C42.9332 28.7197 36.1249 28.9206 35.3119 29.1214C34.9055 29.1214 34.1942 29.6235 33.6861 30.1256"/>
	<path fill="#2D1B0A" d="M24.6422 39.364C22.9147 39.364 21.3905 38.8619 20.0695 37.7573C16.9194 35.1465 16.6145 30.226 16.6145 30.0251C17.2242 28.9205 18.7485 27.5147 19.9679 27.3138C21.0856 27.0298 27.9955 26.9122 29.3165 27.0298C30.7392 27.3138 32.0602 28.7197 32.1618 28.9205C32.3651 29.6235 33.0763 33.7406 30.8407 36.5523C29.6213 38.0586 27.8939 38.9624 25.5568 39.2636C25.2519 39.364 24.9471 39.364 24.6422 39.364M18.6469 30.4268C18.8501 31.6318 19.3582 34.6444 21.3905 36.2511C22.4067 37.1548 23.7277 37.4561 25.3535 37.3557C27.0809 37.1548 28.4021 36.5523 29.215 35.4477C30.6376 33.6402 30.5359 31.0293 30.4343 30.1255C30.0278 29.7239 29.4181 29.3222 28.91 29.2218C27.8939 29.0209 21.0856 29.2218 20.2727 29.4226C19.9679 29.4226 19.2566 29.9247 18.6469 30.4268"/>
	<path fill="white" d="M18.4437 27.615C18.4437 27.615 26.2681 24 32.4667 24.3012C38.5637 24.6025 46.1849 28.3179 46.1849 28.3179C46.1849 28.3179 45.4735 16.569 32.4667 16.0516C19.4598 15.5648 18.4437 27.615 18.4437 27.615"/>
	<path fill="#2D1B0A" d="M47.3025 30.0155L45.6767 29.2122C45.5751 29.2122 38.2587 25.4967 32.365 25.2958C26.5729 24.9946 18.9517 28.5092 18.8501 28.6097L17.2242 29.3126L17.3258 27.6055C17.3258 27.505 18.6468 14.5511 32.365 15.1332C46.0831 15.6557 46.9977 28.208 46.9977 28.3084L47.3025 30.0155M31.7553 23.2875C31.9585 23.2875 32.2634 23.2875 32.4666 23.2875C36.9377 23.4883 42.1201 25.4967 44.7621 26.6013C43.9492 23.4883 41.3072 17.4632 32.365 17.0616C23.3212 16.6599 20.5775 22.7854 19.7646 25.8984C22.4066 24.9946 27.3858 23.2875 31.7553 23.2875"/>
	<path fill="#584D5A" d="M26.573 32.7364C26.573 33.9011 25.6176 34.8452 24.4391 34.8452C23.2606 34.8452 22.3052 33.9011 22.3052 32.7364C22.3052 31.5718 23.2606 30.6276 24.4391 30.6276C25.6176 30.6276 26.573 31.5718 26.573 32.7364"/>
	<path fill="#584D5A" d="M41.917 32.636C41.917 33.8007 40.9616 34.7448 39.7831 34.7448C38.6046 34.7448 37.6492 33.8007 37.6492 32.636C37.6492 31.4713 38.6046 30.5272 39.7831 30.5272C40.9616 30.5272 41.917 31.4713 41.917 32.636"/>
	<path fill="#CF5A44" d="M32.671 50.4101L30.6387 50.4101C28.1999 50.4101 26.1676 48.4017 26.1676 45.9916L37.0443 45.3891C37.1421 48.5021 35.2114 50.4101 32.671 50.4101"/>
	<path fill="#2D1B0A" d="M32.6717 51.4142L30.6389 51.4142C27.5897 51.4142 25.1504 49.0042 25.1504 45.9916L25.1504 44.385L38.0616 44.385L38.0616 45.9916C38.1602 49.0042 35.7208 51.4142 32.6717 51.4142M27.2848 46.4937C27.4881 48.2009 28.911 49.5063 30.7405 49.5063L32.7733 49.5063C34.5012 49.5063 36.0257 48.2009 36.229 46.4937L27.2848 46.4937"/>
	<path fill="white" d="M26.2266 45.4895C26.2266 45.4895 30.6376 45.3891 32.1618 45.3891C33.5845 45.3891 37.0394 45.3891 37.0394 45.3891C37.0394 45.3891 37.141 45.9916 36.8361 46.9958C36.7346 47.2971 33.5845 47.3975 31.857 47.3975C30.1295 47.3975 26.6746 47.2971 26.6746 47.2971C26.6746 47.2971 26.0649 45.9916 26.2266 45.4895"/>
	<path fill="#2D1B0A" d="M32.5683 48C32.3651 48 32.0602 48 31.857 48L26.3697 47.8996C26.0649 47.0962 25.6584 45.8912 25.8063 45.2887C26.4714 44.887 30.6376 44.887 32.1618 44.887C33.5845 44.887 37.0395 44.887 37.0395 44.887C37.5475 45.3891 37.7508 46.092 37.2427 47.1966C37.1411 47.8996 34.7022 48 32.5683 48M27.081 46.8954L31.857 46.9958C33.4829 46.9958 35.8201 46.8954 36.4298 46.6945C36.5314 46.3933 36.5314 46.092 36.633 45.8912C35.6168 45.8912 33.2796 45.8912 32.1618 45.8912C30.9425 45.8912 27.894 45.8912 26.7762 45.9916C26.7762 46.1925 26.8778 46.5941 27.081 46.8954"/>
	<path fill="#EF7373" d="M28.9101 49.1033C29.5198 49.6033 30.6376 49.8033 31.7554 49.8033C32.8732 49.8033 34.0926 49.5033 34.7023 49.1033C33.8893 48.8033 29.6215 48.8033 28.9101 49.1033"/>
	<path fill="#FFFCFA" d="M25.8617 76.318L38.0556 76.318L38.0556 92.7866L25.8617 92.7866L25.8617 76.318"/>
	<path fill="#2D1B0A" d="M39.0717 93.6904L24.8455 93.6904L24.8455 75.2134L39.0717 75.2134L39.0717 93.6904M26.8778 91.682L37.0394 91.682L37.0394 77.2218L26.8778 77.2218L26.8778 91.682"/>
	<path fill="#646368" d="M32.4666 63.9666C22.8131 64.067 15.9032 58.2427 13.4644 55.9331C13.4644 56.0335 12.7531 55.9331 12.7531 56.0335L7.5707 60.7532C7.5707 64.5691 21.2889 70.9958 32.4666 70.5942C37.7507 70.3933 50.7575 69.1883 55.5335 59.2469C55.5335 59.2469 50.8591 55.9331 50.8591 55.5314C49.2333 56.7364 43.6444 63.8661 32.4666 63.9666"/>
	<path fill="#2D1B0A" d="M31.4505 71.6987C22.5083 71.6987 12.2451 67.7824 8.28207 64.0669C7.1643 62.9624 6.5546 61.9582 6.5546 60.8536L12.0419 55.431C12.1435 55.3306 12.3467 55.2302 12.5499 55.1297L12.6516 53.8243L14.2774 55.3306C17.4275 58.2427 23.9309 63.1632 32.5683 63.0628C41.7137 62.9624 46.9978 57.9415 49.3349 55.7323C49.843 55.3306 50.1479 55.0293 50.4527 54.7281L52.0786 53.523L52.0786 55.1297C52.6883 55.7323 54.619 57.2385 56.3464 58.4436L56.6513 59.749C51.977 69.59 39.6814 71.3976 32.6699 71.6987C32.1618 71.6987 31.857 71.6987 31.4505 71.6987M8.68854 61.1549C8.79015 61.4561 9.095 61.8578 9.7047 62.5607C13.4645 66.1758 24.0326 69.9916 32.4667 69.6904C38.7669 69.4895 49.7414 67.8829 54.3141 59.6486C52.5867 58.3431 51.4689 57.5398 50.8592 57.0377C50.7576 57.1381 50.7576 57.1381 50.6559 57.2385C48.2172 59.5481 42.5267 64.9707 32.5683 65.0712C23.5245 65.1715 16.7162 60.3515 13.2613 57.1381L8.68854 61.1549"/>
</svg>
