<?xml version="1.0" encoding="utf-8" ?>
<svg xmlns="http://www.w3.org/2000/svg" xmlns:xlink="http://www.w3.org/1999/xlink" width="74" height="96">
	<path fill="white" d="M0 95.6008L0.202752 92.4075C0.405503 89.0146 1.72339 71.5509 5.27154 65.9626C7.19768 62.869 10.0362 60.7734 12.5706 59.2765C12.672 50.5946 13.8885 43.9085 14.5981 40.5156C13.5844 39.5177 12.7734 38.2204 12.2665 36.7235C10.8472 33.0312 11.5568 29.4387 13.7871 27.842C13.483 26.1455 13.3816 23.1518 13.9899 18.1622C15.5105 6.68607 23.6206 0 36.3939 0C51.6003 0 57.2773 7.78378 57.4801 8.08316C62.2448 15.368 61.9406 24.4491 61.1296 29.9376C62.2448 31.7339 62.3461 34.4283 61.4338 37.1227C60.9269 38.8191 60.0145 40.2162 59.0007 41.3139C59.7104 44.3077 60.5214 48.499 61.0283 51.8919C61.3324 53.8877 61.4338 56.3825 61.4338 59.3763C76.5388 67.2599 73.903 92.2079 73.7002 93.3056L73.3961 96L0 95.6008"/>
	<path fill="#684B2A" d="M18.2477 38.6195C18.2477 38.6195 15.6119 46.9022 15.6119 59.975C15.6119 59.975 15.1051 66.4615 15.8147 66.4615L58.1898 66.4615C58.1898 66.4615 59.0008 57.7796 58.1898 52.0914C57.3787 46.4033 55.3512 38.4199 55.3512 38.4199L18.2477 38.6195"/>
	<path fill="#2D1B0A" d="M59.0007 67.5592L15.3077 67.5592C14.5981 66.8607 14.0912 66.2619 14.5981 59.975C14.5981 46.9023 17.1325 38.7193 17.2339 38.4199L56.0608 37.6216C56.2636 38.5197 58.2911 46.5031 59.1021 52.1912C59.9131 57.8794 59.1021 66.3617 59.1021 66.7609M16.4229 65.5634L57.0746 65.5634C57.2773 63.1684 57.6828 56.7817 56.9732 52.3908C56.2636 47.9002 54.8443 41.7131 54.3374 39.6174L18.8559 39.7172C18.2476 41.9127 16.4229 49.3971 16.4229 60.0748C16.4229 62.0707 16.3215 64.4657 16.4229 65.5634"/>
	<path fill="#4F4E55" d="M3.2296 92.607L70.7459 92.9064C70.7459 92.9064 73.9899 63.9667 55.6409 60.3742L18.1318 60.0748C18.1318 60.0748 11.2383 62.2702 7.89289 67.5592C4.54749 72.7484 3.2296 92.607 3.2296 92.607"/>
	<path fill="#2D1B0A" d="M71.6728 93.9043L2.129 93.605L2.23038 92.5073C2.33175 91.7089 3.64964 72.3492 6.99504 66.9605C10.4418 61.4719 17.4368 59.0769 17.7409 59.0769L55.8582 59.3763C75.0182 63.0686 71.977 91.8087 71.7742 93.0062M4.25789 91.6091L69.7467 91.9085C70.0508 87.1185 70.8618 64.4657 55.4527 61.3721L18.1464 61.0727C17.1326 61.3721 11.4556 63.5675 8.61705 68.0582C5.98128 72.3492 4.6634 87.4179 4.25789 91.6091"/>
	<path fill="#FAD1B6" d="M20.3411 33.9814C21.2987 36.5709 20.8809 39.0981 19.4077 39.626C17.9346 40.154 15.964 38.4827 15.0063 35.8932C14.0487 33.3037 14.4919 30.7765 15.9397 30.1512C17.4128 29.7206 19.3834 31.3919 20.3411 33.9814"/>
	<path fill="#2D1B0A" d="M18.8559 40.5156C18.0449 40.5156 17.2339 40.1164 16.4229 39.4179C15.5105 38.6196 14.6995 37.3223 14.0913 35.9252C12.8748 32.7318 13.4943 29.7381 15.6119 28.9397C17.6394 28.2412 20.0725 30.1372 21.289 33.3306C21.7958 34.7277 21.9986 36.2246 21.7958 37.4221C21.5931 38.9189 20.8835 39.9168 19.7683 40.2162C19.4642 40.5156 19.1601 40.5156 18.8559 40.5156M16.5243 30.9356C16.4229 30.9356 16.4229 30.9356 16.3215 30.9356C15.6119 31.1352 15.2064 33.0312 16.0174 35.3264C16.4229 36.4241 17.0312 37.4221 17.7408 38.0208C18.2477 38.5198 18.7546 38.6196 19.0587 38.5198C19.3628 38.42 19.667 37.921 19.7683 37.2225C19.8697 36.3243 19.7683 35.2266 19.3628 34.1289C18.6532 32.0333 17.2339 30.9356 16.5243 30.9356"/>
	<path fill="#FAD1B6" d="M57.4779 30.6017C58.9699 31.1531 59.4826 33.6632 58.6232 36.2858C57.7638 38.9084 55.8576 40.6504 54.3657 40.1766C52.8037 39.7028 52.3609 37.1928 53.2204 34.5702C54.0798 31.9476 55.986 30.2056 57.4779 30.6017"/>
	<path fill="#2D1B0A" d="M54.8444 41.1143C54.5402 41.1143 54.3375 41.1143 54.0333 41.0145C52.0058 40.3161 51.1948 37.4221 52.31 34.1289C53.4251 30.8358 55.7567 28.8399 57.7843 29.5385C59.8118 30.237 60.6228 33.131 59.5076 36.4241C58.5953 39.3181 56.6691 41.1143 54.8444 41.1143M56.9732 31.4345C56.2636 31.4345 54.9457 32.632 54.2361 34.7277C53.4251 37.0229 54.0333 38.9189 54.6416 39.1185C55.3512 39.3181 56.8719 38.1206 57.5815 35.8254C58.2911 33.5302 57.7843 31.6341 57.176 31.4345C57.0746 31.4345 57.0746 31.4345 56.9732 31.4345"/>
	<path fill="#FAD1B6" d="M28.8921 51.5925L43.3888 51.5925L43.3888 67.0603L28.8921 67.0603L28.8921 51.5925"/>
	<path fill="#2D1B0A" d="M44.4026 68.0582L27.8783 68.0582L27.8783 50.5946L44.4026 50.5946L44.4026 68.0582M29.9059 66.0624L42.375 66.0624L42.375 52.5904L29.9059 52.5904L29.9059 66.0624"/>
	<path fill="#FAD1B6" d="M55.0471 33.1311C55.0471 43.8782 46.832 52.5905 36.6981 52.5905C26.5642 52.5905 18.3491 43.8782 18.3491 33.1311C18.3491 22.3839 26.5642 13.6715 36.6981 13.6715C46.832 13.6715 55.0471 22.3839 55.0471 33.1311"/>
	<path fill="#2D1B0A" d="M36.6981 53.5884C26.0536 53.5884 17.3353 44.4075 17.3353 33.131C17.3353 21.8545 26.0536 12.6736 36.6981 12.6736C47.3425 12.6736 56.0609 21.8545 56.0609 33.131C56.0609 44.4075 47.4439 53.5884 36.6981 53.5884M36.6981 14.6694C27.1688 14.6694 19.3628 22.9522 19.3628 33.131C19.3628 43.3098 27.1688 51.5925 36.6981 51.5925C46.2274 51.5925 54.0334 43.3098 54.0334 33.131C54.0334 22.9522 46.3288 14.6694 36.6981 14.6694"/>
	<path fill="white" d="M28.8921 67.0603L43.3888 67.0603L43.3888 92.6071L28.8921 92.6071L28.8921 67.0603"/>
	<path fill="#2D1B0A" d="M44.4026 93.605L27.8783 93.605L27.8783 66.0624L44.4026 66.0624L44.4026 93.605M29.9059 91.6092L42.375 91.6092L42.375 68.0582L29.9059 68.0582L29.9059 91.6092"/>
	<path fill="#351F21" d="M49.37 27.9417C49.2686 27.7422 49.1672 27.4428 49.0659 27.2432C49.0659 27.1434 48.9645 27.1434 48.8631 27.0436C48.7617 26.9245 48.559 26.9245 48.3562 26.9245C46.0246 26.9245 43.4902 27.1434 41.1585 27.5426C40.9558 27.5426 40.753 27.6424 40.5503 27.6424C40.0918 27.842 40.0918 28.1413 40.0918 28.4407"/>
	<path fill="#351F21" d="M47.4438 33.8295C47.4438 34.6562 46.3999 35.3264 45.1122 35.3264C43.8245 35.3264 42.7806 34.6562 42.7806 33.8295C42.7806 33.0028 43.8245 32.3326 45.1122 32.3326C46.3999 32.3326 47.4438 33.0028 47.4438 33.8295"/>
	<path fill="#351F21" d="M30.9196 33.5301C30.9196 34.3568 29.8757 35.027 28.588 35.027C27.3003 35.027 26.2564 34.3568 26.2564 33.5301C26.2564 32.7034 27.3003 32.0332 28.588 32.0332C29.8757 32.0332 30.9196 32.7034 30.9196 33.5301"/>
	<path fill="#684B2A" d="M31.8354 16.7651C31.8354 16.7651 39.7427 28.9396 57.4834 32.7318C57.4834 32.7318 61.133 19.16 55.0504 9.77961C55.0504 9.77961 50.083 2.79416 36.4986 2.98955C22.8129 3.09354 18.0482 10.8773 17.1359 18.5613C16.1221 26.2453 17.1359 28.4408 17.1359 28.4408C17.1359 28.4408 26.0569 27.1434 31.8354 16.7651"/>
	<path fill="#2D1B0A" d="M58.1898 33.9293C42.5779 30.5363 34.5692 21.9542 31.9334 18.5613C26.0536 28.0415 17.5381 29.239 17.2339 29.3388L16.2202 28.7401C16.1188 28.4407 15.105 26.0457 16.1188 18.3617C16.9298 12.2744 20.5793 2.09558 36.4953 1.896C36.5967 1.896 36.7995 1.896 36.9008 1.896C50.5866 1.896 55.6554 8.88145 55.8581 9.18082C62.1434 18.8607 58.5953 32.4324 58.4939 32.9313M31.7307 14.7692L32.6431 16.1663C32.7444 16.2661 40.2462 27.5426 56.6691 31.5343C57.2774 28.3409 59.0008 17.8627 54.1347 10.2785C54.1347 10.2785 49.2687 3.79205 36.394 3.89184C22.7082 3.99163 18.8559 11.975 17.9436 18.5613C17.3353 23.3513 17.5381 25.9459 17.7408 27.0436C20.0724 26.4449 26.4591 24.0498 30.9197 16.1663L31.7307 14.7692"/>
	<path fill="#FF4646" d="M31.4265 43.9085C31.4265 43.9085 36.7994 46.3035 42.2737 44.0083C42.2737 44.0083 40.7531 47.0021 37.2049 47.0021C33.5554 47.0021 31.4265 43.9085 31.4265 43.9085"/>
	<path fill="#351F21" d="M22.5054 27.6424C22.5054 27.4428 22.7082 27.1434 22.8096 26.9438C22.8096 26.844 22.911 26.844 23.0123 26.7443C23.1137 26.6291 23.3165 26.6291 23.5192 26.6291C25.8508 26.6291 28.2839 26.9438 30.6155 27.4428C30.8183 27.4428 31.021 27.5426 31.2238 27.5426C31.7306 27.7422 31.6376 28.0415 31.6376 28.3409"/>
</svg>
