<?xml version="1.0" encoding="utf-8" ?>
<svg xmlns="http://www.w3.org/2000/svg" xmlns:xlink="http://www.w3.org/1999/xlink" width="78" height="98">
	<path fill="white" d="M0.203358 98L0 94.757C0 91.6153 0.406716 75.5016 3.3554 70.2316C6.60913 64.455 17.5905 60.8066 18.8106 60.4012L20.8442 59.6918C22.9794 58.8811 24.708 57.7663 24.708 57.7663C25.5214 57.4623 26.3348 57.1582 27.1483 56.2461C24.708 54.6246 22.6744 52.6991 21.5559 50.8749C20.0307 48.2399 20.0307 43.4767 20.1324 40.4364C20.0307 40.1324 19.9291 39.8283 19.8274 39.5243C19.014 38.8149 15.9636 31.1127 15.7602 26.0455C15.6586 23.2079 16.3703 19.4581 17.0821 16.5191C16.6753 15.1003 16.3703 13.5801 16.1669 12.2627L15.9636 11.1479C15.8619 10.2358 15.8619 8.61427 16.9804 7.39814C17.6921 6.68873 18.6072 6.28335 19.5224 6.28335C20.1324 6.28335 20.7425 6.38469 21.2509 6.68873C21.7593 6.89142 22.166 7.19545 22.471 7.49948C25.2164 4.76319 32.1305 0 38.4346 0C38.5363 0 38.7397 0 38.8413 0C46.0606 0.202689 58.262 5.4726 59.9906 18.7487C61.2107 28.3764 58.7704 35.3692 57.5503 38.1055C57.3469 39.0176 57.0419 39.8283 56.6352 40.7404C56.5335 45.605 55.72 51.6856 52.873 54.4219C52.3646 54.9286 51.8562 55.334 51.2462 55.7394C51.8562 56.7528 52.6697 57.3609 53.3814 58.0703L56.0251 58.8811C56.1268 58.8811 62.4309 61.7187 64.7695 62.7322C65.7863 63.1375 66.3963 63.3402 66.7014 63.4416C67.5148 63.7456 69.7517 64.6577 71.9887 66.8873C74.1239 68.9142 75.6491 71.4478 76.3609 74.3868C76.4625 74.5895 78.4961 82.1903 77.8861 95.061L77.7844 98L0.203358 98"/>
	<path fill="#FAD1B6" d="M30.402 53.1044L48.3992 53.1044L48.3992 70.7383L30.402 70.7383L30.402 53.1044"/>
	<path fill="#2D1B0A" d="M49.4158 71.7518L29.3851 71.7518L29.3851 52.091L49.4158 52.091L49.4158 71.7518M31.4187 69.7249L47.3823 69.7249L47.3823 54.1179L31.4187 54.1179L31.4187 69.7249"/>
	<path fill="#F9F9F9" d="M75.194 95.365C75.8041 82.7983 73.7705 75.6029 73.7705 75.6029C72.2453 69.3195 66.7547 67.1913 66.7547 67.1913C66.7547 67.1913 66.5513 67.1913 64.2127 66.1778C61.7724 65.1644 52.4179 61.516 52.4179 61.516C50.9944 60.0972 48.6558 58.577 48.6558 58.577C48.0457 62.7321 39.8097 68.002 39.8097 68.002C32.7938 66.2792 29.6418 58.577 29.6418 58.577C28.1166 60.2999 26.4897 60.7052 26.4897 60.7052C26.4897 60.7052 23.3377 62.7321 20.084 63.8469C16.9319 65.2657 9.10267 67.394 6.35734 72.2585C3.61201 77.123 3.40865 95.365 3.40865 95.365L75.194 95.365"/>
	<path fill="#2D1B0A" d="M76.1575 96.3785L2.3386 96.2771L2.3386 95.2637C2.3386 94.5543 2.64364 76.7177 5.49065 71.6505C7.93094 67.394 13.7266 65.1644 17.5904 63.6443C18.4039 63.3402 19.1156 63.0362 19.7257 62.8335C22.9794 61.7187 26.0298 59.7932 26.0298 59.7932C26.3348 59.6918 27.6567 59.2864 28.9785 57.8676L30.0969 56.6515L30.707 58.1717C30.707 58.273 33.6557 65.0631 39.7564 66.8873C42.1967 65.2658 47.3824 61.3133 47.7891 58.4757L47.9924 56.8542L49.3143 57.7663C49.4159 57.8676 51.5512 59.2864 53.0764 60.7053C54.3982 61.212 62.4308 64.455 64.6678 65.3671C66.193 65.9752 66.803 66.1779 67.0064 66.2792C67.4131 66.4819 73.2088 68.8128 74.8357 75.5016C74.9373 75.8056 76.8692 83.001 76.2592 95.5677M4.37218 94.2503L74.2256 94.3516C74.6323 82.697 72.8021 75.9069 72.8021 75.8056C71.4803 70.333 67.0064 68.3061 66.3963 68.1034C66.0913 68.0021 65.3795 67.7994 63.7527 67.09C61.4141 66.0765 52.0596 62.4281 52.0596 62.4281C51.0428 61.516 50.026 60.7053 49.3143 60.1986C47.484 64.2523 41.2816 68.3061 40.4682 68.8128C33.9607 67.4953 30.707 62.6308 29.3852 60.1986C28.2667 61.1106 27.3516 61.4147 26.9449 61.6174C26.3348 62.0228 23.4878 63.7456 20.4374 64.759C19.9291 64.9617 19.1156 65.2658 18.3022 65.5698C14.7434 66.9886 9.35445 69.0155 7.21919 72.6639C5.18561 76.211 4.47386 88.575 4.37218 94.2503"/>
	<path fill="#3F3F3F" d="M74.9397 95.1623C75.5498 82.5956 73.5162 75.4001 73.5162 75.4001C71.991 69.1168 66.5004 66.9885 66.5004 66.9885C66.5004 66.9885 66.297 66.9885 63.9584 65.9751C61.5181 64.9616 55.1123 62.124 55.1123 62.124L39.8605 90.3991C36.8101 85.7372 19.8297 63.6442 19.8297 63.6442C19.8297 63.6442 8.84837 67.1912 6.10304 72.0557C3.35771 76.9203 3.15435 95.1623 3.15435 95.1623L74.9397 95.1623"/>
	<path fill="#2D1B0A" d="M75.9541 96.1757L2.1352 96.0744L2.1352 95.0609C2.1352 94.3515 2.44024 76.5149 5.28725 71.4477C8.13426 66.2791 19.1156 62.7321 19.624 62.5294L20.7424 62.9348C21.3525 63.7455 35.2825 81.8862 39.8581 88.3722L54.7032 60.7052C55.6183 61.1106 62.0241 63.9482 64.3627 64.9617C65.8879 65.5697 66.498 65.7724 66.7013 65.8738C67.108 66.0764 72.9037 68.4074 74.5306 75.0961C74.6323 75.4001 76.5642 82.5956 75.9541 95.1623L75.9541 96.1757M4.16878 94.0475L74.0222 94.1488C74.4289 82.4942 72.5987 75.7042 72.5987 75.6028C71.2769 70.1302 66.803 68.1033 66.1929 67.9007C65.8879 67.7993 65.1761 67.5966 63.5493 66.8872C61.6174 66.0764 57.3469 64.2523 55.5166 63.4415L39.9598 92.426L39.1041 91.0072C36.2993 86.852 22.1659 68.4074 19.5223 64.8603C17.1837 65.6711 9.15105 68.8128 7.01579 72.5625C4.98221 76.1095 4.27046 88.4736 4.16878 94.0475"/>
	<path fill="#FF6050" d="M40.2648 75.0962C40.5699 74.7921 42.5018 72.2585 42.5018 71.3464C42.2984 70.2316 39.0447 68.1034 39.0447 68.1034C39.0447 68.1034 35.791 69.9276 35.791 71.3464C35.791 72.6639 38.3329 75.4002 38.4346 75.4002L35.791 80.1634L37.4178 89.4871L41.0783 89.4871L42.5018 80.1634L40.2648 75.0962"/>
	<path fill="#2D1B0A" d="M42.095 90.3992L36.7061 90.3992L34.9775 79.8594L37.2145 75.5016C36.096 74.3868 34.7742 72.3599 34.7742 71.2451C34.7742 69.5223 37.4178 67.7994 38.5363 67.1913L39.5531 67.1913C40.6715 67.9007 43.1118 69.6236 43.4169 71.0424C43.4169 72.3599 42.095 74.1841 41.3833 75.1975L43.6202 79.8594L42.095 90.3992M38.4346 88.3723L40.3665 88.3723L41.5867 80.2648L39.4514 75.8056L37.1128 80.2648L38.4346 88.3723M38.8413 74.2854C40.0615 73.7787 41.1799 72.0559 41.3833 71.4478C41.0783 71.0424 40.0615 70.1303 38.943 69.3196C37.8245 70.029 36.8077 70.9411 36.8077 71.3465C36.9094 71.9545 38.2312 73.6774 38.8413 74.2854"/>
	<path fill="#6B6B6B" d="M57.5504 70.3331L57.1436 63.8471L51.0429 61.0094L49.2127 70.3331L39.9599 88.1697L29.3853 70.5358L27.6567 61.2121L21.556 64.0498L21.1493 70.4345L26.8433 70.7385L21.9627 76.2112L39.9599 90.0952L57.5504 75.6031L52.263 70.6372"/>
	<path fill="#2D1B0A" d="M39.9599 91.4128L20.3359 76.3125L24.6064 71.6506L19.9292 71.3466L20.5393 63.239L28.3685 59.5906L30.4021 70.0291L39.9599 85.9402L48.2976 69.9278L50.3312 59.4893L58.1605 63.1377L58.7705 71.2452L54.8051 71.4479L59.1773 75.6031L39.9599 91.4128M23.3863 76.0084L38.6381 87.7644L28.4702 70.8399L23.3863 76.0084M50.3312 70.1305L41.3835 87.663L56.0252 75.6031L50.3312 70.1305M22.1661 69.5224L28.2669 69.8264L26.8434 62.631L22.4712 64.6579L22.1661 69.5224M51.7547 62.5296L50.3312 69.7251L56.4319 69.4211L56.1269 64.5565L51.7547 62.5296"/>
	<path fill="#FAD1B6" d="M55.6184 31.518C55.6184 42.7682 48.0615 51.8882 38.7397 51.8882C29.4179 51.8882 21.861 42.7682 21.861 31.518C21.861 20.2679 29.4179 11.1479 38.7397 11.1479C48.0615 11.1479 55.6184 20.2679 55.6184 31.518"/>
	<path fill="#2D1B0A" d="M38.7397 52.9016C28.8768 52.9016 20.8442 43.2739 20.8442 31.518C20.8442 19.762 28.8768 10.1343 38.7397 10.1343C48.6025 10.1343 56.6352 19.762 56.6352 31.518C56.6352 43.2739 48.6025 52.9016 38.7397 52.9016M38.7397 12.1612C29.9953 12.1612 22.8778 20.8768 22.8778 31.518C22.8778 42.1591 29.9953 50.8747 38.7397 50.8747C47.4841 50.8747 54.6016 42.1591 54.6016 31.518C54.6016 20.8768 47.4841 12.1612 38.7397 12.1612"/>
	<path fill="#351F21" d="M26.2331 29.1871C26.2331 28.9845 26.4365 28.7818 26.5382 28.5791C26.5382 28.4777 26.6399 28.4777 26.7415 28.4777C26.8432 28.4777 27.0466 28.3606 27.2499 28.3606C29.5885 28.3606 31.9272 28.6804 34.2658 29.0858C34.4691 29.0858 34.6725 29.1871 34.8759 29.1871C35.3842 29.3898 35.2909 29.5925 35.2909 29.8966"/>
	<path fill="#351F21" d="M49.4159 29.2885C49.3142 29.0858 49.2126 28.8831 49.1109 28.6804C49.1109 28.5791 49.0092 28.5791 49.0092 28.4778C48.9075 28.3568 48.7042 28.3568 48.6025 28.3568C46.5689 28.3568 44.332 28.5791 42.2984 28.9845C42.095 28.9845 41.8917 29.0858 41.79 29.0858C41.4285 29.2885 41.4285 29.5925 41.4285 29.7952"/>
	<path fill="#351F21" d="M47.6874 34.3557C47.6874 35.0833 46.7769 35.6732 45.6538 35.6732C44.5307 35.6732 43.6202 35.0833 43.6202 34.3557C43.6202 33.6281 44.5307 33.0382 45.6538 33.0382C46.7769 33.0382 47.6874 33.6281 47.6874 34.3557"/>
	<path fill="#351F21" d="M33.249 34.1531C33.249 34.8807 32.3385 35.4706 31.2154 35.4706C30.0923 35.4706 29.1818 34.8807 29.1818 34.1531C29.1818 33.4255 30.0923 32.8356 31.2154 32.8356C32.3385 32.8356 33.249 33.4255 33.249 34.1531"/>
	<path fill="#9B7A5A" d="M50.8394 16.9244C50.8394 16.9244 43.5185 26.0454 31.9271 24.2212C28.9784 23.7146 26.8432 23.0051 25.2163 22.0929C20.2341 19.3568 19.929 14.9988 19.2028 11.1478C19.2028 11.1478 19.0139 9.32361 20.1324 9.83033C21.2508 10.4384 22.5727 12.668 24.4029 10.5397C26.2331 8.51286 33.249 3.24295 39.0447 3.43995C44.8403 3.64833 55.72 7.90479 57.2452 19.458C58.7704 31.0113 54.3982 38.308 54.3982 38.308L52.5679 17.0257L50.8394 16.9244"/>
	<path fill="#2D1B0A" d="M53.6865 41.6525L51.6529 18.0363C49.6194 19.9621 42.5018 26.9557 31.8256 25.2326C28.9785 24.7259 26.6399 24.0164 24.708 23.0028C19.7258 20.2661 19.014 16.1105 18.4039 12.3603C18.3023 12.0562 18.3023 11.6508 18.1544 11.3467C18.1544 10.7385 18.1544 9.52225 18.9123 9.01547C19.2174 8.81275 19.7258 8.61004 20.5392 9.01547C20.9459 9.21818 21.2509 9.52225 21.556 9.72497C22.6744 10.6372 22.8778 10.7385 23.5896 9.92768C25.4198 8.00189 32.639 2.32588 38.9431 2.5233C45.5522 2.73131 56.5335 7.4951 58.0587 19.4553C59.5839 31.2127 55.3134 38.6118 55.11 38.9159L53.6865 41.6525M50.4328 15.8064L53.4832 16.1105L55.11 34.0507C56.1268 30.9087 57.0419 25.8408 56.2285 19.5566C54.805 8.81275 44.9421 4.55574 39.0448 4.35303C33.7575 4.15031 27.0466 9.01547 25.2164 11.144C23.1828 13.3738 21.2509 11.8535 20.3358 11.144C20.3358 11.144 20.2342 11.0426 20.2342 11.0426C20.2342 11.3467 20.3358 11.6508 20.4375 11.9548C21.0476 15.5023 21.556 18.9485 25.7248 21.1784C27.3517 22.0879 29.5886 22.6987 32.1306 23.2055C43.0102 24.9286 50.0261 16.4146 50.1278 16.3132"/>
	<path fill="#9B7A5A" d="M23.434 40.031C23.434 40.031 25.9281 44.6929 29.2835 45.3009C31.3171 45.7063 34.3675 43.7808 38.4347 44.1861C38.4347 44.1861 46.6707 45.5036 49.7209 45.5036C52.6696 45.5036 53.8926 39.727 53.8926 39.727C53.8926 39.727 54.0931 49.8614 51.0429 52.5977C48.0942 55.4354 43.0101 57.2596 37.2145 56.8542C31.4188 56.4488 25.9281 52.1924 24.5046 49.5574C23.0811 46.9224 23.434 40.031 23.434 40.031"/>
	<path fill="#2D1B0A" d="M38.6267 57.969C38.118 57.969 37.6092 57.969 37.1005 57.969C30.9954 57.5636 25.1956 53.1044 23.5676 50.1654C21.9396 47.3278 22.3949 40.8418 22.5501 40.031L22.8553 36.5853L24.4833 39.6256C25.0938 40.8418 27.2306 43.8821 29.5709 44.2875C30.2831 44.3888 31.3006 44.1861 32.4199 43.8821C34.0479 43.4767 36.1847 42.97 38.6267 43.1727C38.702 43.1727 46.8686 44.4902 49.8193 44.4902C51.4474 44.4902 52.6684 41.1458 52.9736 39.5243L54.8051 30.2006L55.009 39.727C55.009 40.8418 55.1104 50.3681 51.8544 53.4085C48.5983 56.2461 43.7143 57.969 38.6267 57.969M24.3816 43.1727C24.3816 45.3009 24.5851 47.9359 25.2973 49.152C26.6201 51.3816 31.7077 55.5367 37.2022 55.9421C42.3915 56.2461 47.2756 54.7259 50.3281 51.8883C51.5491 50.7735 52.1596 47.9359 52.5666 45.0982C51.8544 45.909 50.9386 46.517 49.7176 46.517C46.6651 46.517 38.6267 45.3009 38.3215 45.1996C36.2865 44.9969 34.4549 45.5036 32.8269 45.909C31.4024 46.213 30.1814 46.517 29.0621 46.3144C27.1289 45.909 25.5008 44.4902 24.3816 43.1727"/>
	<path fill="#684B2A" d="M22.3693 38.7136C22.3693 38.7136 21.9626 28.4777 23.8945 23.9173C25.7247 19.4581 25.2163 17.5326 25.2163 17.5326L21.2509 13.7829C21.2509 13.7829 18.8106 21.485 19.0019 26.1469C19.2173 30.91 22.3693 38.7136 22.3693 38.7136"/>
	<path fill="#2D1B0A" d="M23.5841 44.4902L21.4489 39.1189C21.3472 38.8149 18.1952 31.0114 17.9798 26.2482C17.7884 21.485 20.2287 13.8842 20.3304 13.5802L20.8388 12.06L26.1261 17.1272C26.3295 17.6339 26.8379 19.7622 24.906 24.424C23.1774 28.6805 23.4825 38.6122 23.4825 38.7136L23.5841 44.4902M21.7539 15.8097C21.0422 18.242 19.9237 23.0052 20.0254 26.2482C20.1271 28.1738 20.7371 30.7074 21.4489 32.9369C21.5506 29.6939 21.9573 25.9442 22.9741 23.6133C24.2959 20.4716 24.2959 18.7487 24.2959 18.1407L21.7539 15.8097"/>
	<path fill="white" d="M34.6631 47.2264L43.3058 47.3278C43.3058 47.3278 44.0176 49.5574 38.6286 49.5574C34.9681 49.456 34.6631 47.2264 34.6631 47.2264"/>
</svg>
