<?xml version="1.0" encoding="utf-8" ?>
<svg xmlns="http://www.w3.org/2000/svg" xmlns:xlink="http://www.w3.org/1999/xlink" width="78" height="114">
	<path fill="white" d="M0 113.595L0 110.453C0 108.832 0.706142 94.7467 3.42983 89.376C7.86844 80.6613 21.1843 77.824 23.8071 77.3173L28.1448 75.392C23.2018 70.4267 21.8904 63.3333 21.4869 59.9893C19.4693 58.976 17.6535 57 16.6448 54.5173C15.5351 51.8827 15.4342 49.0453 16.443 46.816C17.0483 45.3973 18.0571 44.1813 19.3685 43.5733C18.8641 41.5467 18.5614 38.8107 18.5614 35.1627C18.5614 25.7387 24.3115 20.2667 26.7325 18.4427C28.5483 17.024 31.272 16.2133 35.3071 15.808L35.3071 12.6667L36.9211 12.6667C37.9299 9.82933 40.0483 7.904 42.9738 7.6C43.3773 7.6 44.2852 7.39733 44.2852 6.28267L44.1843 0L49.1273 3.952C50.7413 5.168 53.1624 8.41067 52.5571 12.8693C52.3554 14.4907 51.4475 15.808 50.0352 16.8213C55.3817 18.848 59.215 23.2053 61.1317 29.6907C62.3422 33.8453 61.737 39.1147 60.9299 43.168C62.3422 43.776 63.5528 44.992 64.158 46.512C65.0659 48.7413 64.965 51.5787 63.9563 54.2133C62.8466 57 60.8291 58.976 58.6098 59.888C58.6098 61.3067 58.5089 63.3333 58.1054 65.7653C57.601 68.704 55.6843 71.8453 52.3554 75.088L58.5089 77.824C63.1492 78.9387 64.4607 79.4453 64.965 79.648C65.9738 80.0533 66.5791 80.256 66.8817 80.4587C67.7896 80.7627 74.3466 83.3973 76.3642 91.0987C76.6668 92.0107 78.4826 98.8 77.8773 111.061L77.7765 114L0 113.595"/>
	<path fill="#FAD1B6" d="M26.6316 50.3627C27.943 53.504 27.2369 56.6453 25.2194 57.456C23.1009 58.2666 20.4781 56.4426 19.1667 53.3013C17.8553 50.16 18.5008 47.0187 20.579 46.208C22.6974 45.3973 25.4211 47.2213 26.6316 50.3627"/>
	<path fill="#2D1B0A" d="M24.2106 58.6721C21.8904 58.6721 19.4693 56.7467 18.2588 53.7067C17.3509 51.5787 17.25 49.248 18.0571 47.5253C18.5614 46.4107 19.2676 45.6 20.2764 45.1947C22.8992 44.1813 26.1273 46.208 27.6404 49.856C28.5483 51.984 28.6492 54.3147 27.8421 56.0373C27.3378 57.1521 26.6316 57.9627 25.6229 58.368C25.1185 58.5706 24.6141 58.6721 24.2106 58.6721M21.6887 47.0187C21.4869 47.0187 21.1843 47.0187 20.9825 47.12C20.3772 47.3227 20.0746 47.9307 19.8729 48.336C19.3685 49.552 19.4693 51.2747 20.1755 52.896C21.1843 55.4293 23.4036 57.0506 24.9167 56.4426C25.522 56.2401 25.8246 55.632 26.0264 55.2267C26.5308 54.0107 26.4299 52.288 25.7237 50.6667C24.8158 48.5387 23.1009 47.0187 21.6887 47.0187"/>
	<path fill="#FAD1B6" d="M53.3641 49.856C52.0527 52.9974 52.6982 56.1387 54.7764 56.9494C56.8948 57.76 59.5176 55.936 60.829 52.7947C62.1404 49.6534 61.4343 46.512 59.4168 45.7014C57.3992 44.8907 54.6755 46.7147 53.3641 49.856"/>
	<path fill="#2D1B0A" d="M55.8861 58.1654C55.3817 58.1654 54.8773 58.064 54.4738 57.8614C53.465 57.4561 52.658 56.6454 52.2545 55.5307C51.5483 53.808 51.6492 51.4774 52.4562 49.3494C53.9694 45.7014 57.1975 43.5734 59.8203 44.688C60.829 45.0934 61.6361 45.904 62.0396 47.0187C62.7458 48.7414 62.6449 51.072 61.8378 53.2C60.6273 56.2401 58.2062 58.1654 55.8861 58.1654M54.3729 50.2614C53.6667 51.8827 53.5659 53.6054 54.0703 54.8214C54.272 55.2267 54.5746 55.8347 55.1799 56.0373C56.6931 56.6454 58.9124 55.0241 59.9212 52.4907C60.6273 50.8694 60.7282 49.1467 60.2238 47.9307C60.022 47.5254 59.7194 46.9174 59.1141 46.7147C57.601 46.0054 55.3817 47.728 54.3729 50.2614"/>
	<path fill="#FAD1B6" d="M31.272 67.8932L49.1273 67.8932L49.1273 101.637L31.272 101.637L31.272 67.8932"/>
	<path fill="#2D1B0A" d="M50.136 102.651L30.2632 102.651L30.2632 66.8799L50.136 66.8799L50.136 102.651M32.2808 100.624L48.1185 100.624L48.1185 68.9066L32.2808 68.9066L32.2808 100.624"/>
	<path fill="#E57935" d="M74.6348 110.656C75.2402 98.0907 73.2225 91.6053 73.2225 91.6053C71.6086 85.3226 66.1611 83.1946 66.1611 83.1946C66.1611 83.1946 65.9594 83.1946 63.6393 82.1813C61.319 81.168 53.2489 80.1546 53.2489 80.1546L40.1348 98.3946C37.0075 93.7333 24.3979 80.1546 24.3979 80.1546C24.3979 80.1546 10.0733 82.4853 5.83647 90.6933C3.31454 95.6586 2.81015 110.555 2.81015 110.555L74.6348 110.656"/>
	<path fill="#2D1B0A" d="M75.658 111.669L1.8158 111.568L1.8158 110.555C1.8158 109.947 2.32019 95.456 4.943 90.288C9.28073 81.6746 23.6053 79.344 24.2106 79.2426C25.6229 80.0533 36.1141 91.3013 40.1492 96.7733L52.7589 79.1413C53.6668 79.344 61.4343 80.3573 63.9563 81.3706C65.4694 81.9786 66.0747 82.1813 66.2765 82.2826C66.68 82.4853 72.43 84.816 74.1449 91.504C74.2458 91.7066 76.1624 98.192 75.658 110.859M3.93423 109.541L73.7414 109.643C74.1449 98.0906 72.3291 92.0106 72.3291 91.9093C70.9168 86.4373 66.4782 84.4106 65.9738 84.208C65.6712 84.1066 64.965 83.904 63.351 83.1946C61.6361 82.4853 56.3905 81.6746 53.8685 81.3706L40.2501 100.32L39.4431 99.104C36.7194 94.9493 26.329 83.7013 24.2106 81.3706C21.6886 81.8773 10.3904 84.4106 6.96055 91.2C4.74124 95.152 4.0351 106.096 3.93423 109.541"/>
	<path fill="#EFA278" d="M55.8861 84.7146L55.4825 79.648L50.3378 77.4186L48.7238 84.816L40.9562 98.7999L31.9781 84.9173L30.465 77.6213L25.3202 79.8506L24.9167 84.9173L29.8597 85.12L25.6228 89.3759L40.9562 100.32L55.7852 88.8693L51.3466 85.0186"/>
	<path fill="#2D1B0A" d="M40.9562 101.536L24.1097 89.4773L27.5395 86.032L23.9079 85.8293L24.4123 79.1413L31.2719 76.2027L32.9869 84.512L40.9562 96.7733L47.9167 84.4107L49.6316 76L56.4913 78.9387L56.9957 85.6267L53.9694 85.8293L57.5001 88.8693L40.9562 101.536M27.136 89.2747L39.1404 97.7867L31.0702 85.3227L27.136 89.2747M49.7325 84.9173L42.6711 97.6853L54.1711 88.8693L49.7325 84.9173M26.0263 83.904L30.7676 84.1067L29.6579 78.9387L26.2281 80.4587L26.0263 83.904M51.0439 78.8373L49.9343 84.0053L54.6755 83.8027L54.3729 80.3573L51.0439 78.8373"/>
	<path fill="#FAD1B6" d="M56.8948 47.9307C56.8948 59.8512 49.2169 69.5147 39.7457 69.5147C30.2744 69.5147 22.5965 59.8512 22.5965 47.9307C22.5965 36.0102 30.2744 26.3468 39.7457 26.3468C49.2169 26.3468 56.8948 36.0102 56.8948 47.9307"/>
	<path fill="#2D1B0A" d="M39.7457 70.4267C29.7589 70.4267 21.5878 60.2933 21.5878 47.8293C21.5878 35.3653 29.7589 25.232 39.7457 25.232C49.7326 25.232 57.9037 35.3653 57.9037 47.8293C57.9037 60.2933 49.7326 70.4267 39.7457 70.4267M39.7457 27.36C30.8685 27.36 23.6054 36.5813 23.6054 47.9307C23.6054 59.28 30.8685 68.5013 39.7457 68.5013C48.6229 68.5013 55.8861 59.28 55.8861 47.9307C55.8861 36.5813 48.6229 27.36 39.7457 27.36"/>
	<path fill="#634933" d="M56.3904 47.3225C56.3904 47.3225 59.8203 36.8852 57.9036 30.2985C55.9869 23.7119 51.4474 18.3412 42.6712 18.3412C33.7939 18.3412 30.0615 19.3545 28.2457 20.6719C26.4299 21.9892 21.1842 26.7519 21.1842 35.0612C21.1842 43.6745 23.2018 46.1065 23.2018 46.1065C23.2018 46.1065 24.715 38.4052 24.9167 36.6825C25.1185 34.9599 27.4387 35.0612 27.4387 34.1492C27.4387 33.2372 33.0877 35.0612 38.2326 34.6559C43.3773 34.2505 50.5396 32.5279 51.75 32.8319C52.9606 33.1359 56.3904 47.3225 56.3904 47.3225"/>
	<path fill="#2D1B0A" d="M56.2895 50.8692L55.4825 47.5252C54.0702 41.6479 52.1536 35.2639 51.3465 33.9466C50.5395 33.9466 48.3202 34.3519 46.5044 34.6559C43.8816 35.0612 40.9562 35.5679 38.4342 35.7706C35.6097 35.9732 32.6842 35.5679 30.5658 35.2639C29.7588 35.1626 28.8509 35.0612 28.3465 34.9599C28.0439 35.4666 27.4386 35.7706 27.0351 35.9732C26.3289 36.2772 26.0263 36.4799 26.0263 36.7839C25.9254 38.5066 24.4123 46.0052 24.3114 46.3092L23.9079 48.3359L22.5965 46.7146C22.3947 46.4106 20.2763 43.6746 20.2763 35.0612C20.2763 26.5492 25.4211 21.5839 27.6404 19.8612C29.9605 18.0372 34.6009 17.3279 42.6711 17.3279C53.0615 17.3279 57.1974 24.2186 58.9123 29.9946C60.9299 36.7839 57.5001 47.1199 57.3992 47.5252L56.2895 50.8692M51.3465 31.9199C51.6492 31.9199 51.9518 31.9199 52.1536 32.0212C52.6579 32.2239 53.6667 32.5279 56.4913 43.3706C57.2983 39.8239 58.2062 34.4532 56.9957 30.6026C54.8772 23.2052 50.0351 19.4559 42.6711 19.4559C35.1053 19.4559 30.7675 20.1652 28.8509 21.5839C26.8333 23.1039 22.193 27.5626 22.193 35.1626C22.193 38.6079 22.4956 40.9386 22.8991 42.5599C23.3026 40.2292 23.807 37.4932 23.9079 36.6826C24.0088 35.1626 25.3202 34.5546 26.0263 34.1492C26.1272 34.0479 26.3289 33.9466 26.4298 33.9466C26.5307 33.7439 26.6316 33.5412 26.8333 33.3386C27.4386 32.8319 28.4474 32.9332 30.7675 33.2372C32.7851 33.5412 35.6097 33.9466 38.2325 33.7439C40.6535 33.5412 43.579 33.0346 46.1009 32.6292C48.9255 32.1226 50.4386 31.9199 51.3465 31.9199"/>
	<path fill="#634933" d="M55.2088 57.0506L54.5027 58.7732C53.4939 61.3066 51.6781 62.7252 49.6606 64.5492C49.0553 65.0559 45.6255 59.5839 38.2614 59.9892C30.8974 60.3946 29.7878 65.3599 29.7878 65.3599C29.7878 65.3599 26.7614 63.4346 25.45 60.1919C24.4413 57.6586 24.0377 58.0639 24.0377 58.0639C24.0377 58.0639 24.2395 69.3119 31.6035 74.7839C38.9676 80.2559 45.9281 76.2026 45.9281 76.2026C45.9281 76.2026 53.9983 70.6292 54.8053 65.1572C55.7132 59.5839 55.2088 57.0506 55.2088 57.0506"/>
	<path fill="#2D1B0A" d="M39.8464 78.5333C37.2236 78.5333 34.1973 77.824 31.0701 75.4933C23.4034 69.8186 23.1008 58.4693 23.1008 58.064C23.8069 57.0506 24.1096 56.9493 24.5131 57.0506C25.2192 57.2533 25.8245 58.064 26.5306 59.7866C27.2368 61.6106 28.5482 62.928 29.4561 63.7386C30.364 62.016 32.6842 59.28 38.2324 58.976C44.1842 58.672 47.7149 61.9146 49.1272 63.536C49.3289 63.3333 49.5307 63.1306 49.7324 62.928C51.3465 61.5093 52.6579 60.2933 53.4649 58.368L55.3816 53.6053L56.0877 56.7466C56.0877 56.848 56.693 59.584 55.7851 65.1573C54.8772 70.9333 46.807 76.608 46.4035 76.8106C46.3026 77.0133 43.5789 78.5333 39.8464 78.5333M25.7236 62.624C26.5306 66.1706 28.3464 70.9333 32.2806 73.872C39.0394 78.8373 45.3947 75.2906 45.4956 75.1893C45.4956 75.1893 53.1623 69.8186 53.9693 64.8533C54.171 63.4346 54.2719 62.1173 54.3728 61.104C53.4649 62.4213 52.3552 63.4346 51.2456 64.448C50.943 64.6506 50.6403 64.9546 50.4386 65.2586L48.9254 66.576L48.3201 65.5626C48.2193 65.36 45.0921 60.5973 38.4342 61.0026C31.978 61.3066 30.9692 65.4613 30.9692 65.5626L30.6666 66.9813L29.4561 66.1706C29.1534 66.0693 27.2368 64.8533 25.7236 62.624"/>
	<path fill="#634933" d="M47.0089 6.08C47.0089 6.08 47.1098 9.93067 42.9738 10.4373C38.9387 10.944 38.9387 16.0109 38.9387 16.0109C38.9387 16.0109 48.6229 16.112 49.2282 12.16C49.9343 8.30933 47.0089 6.08 47.0089 6.08"/>
	<path fill="#2D1B0A" d="M39.2413 17.024C39.1404 17.024 39.1404 17.024 39.0396 17.024L38.0308 17.024L38.0308 16.0107C38.0308 13.8827 38.9387 9.82933 42.8729 9.424C46.0001 9.01867 46.0001 6.18133 46.0001 6.08L46.0001 3.952L47.6142 5.26933C47.715 5.37067 50.9431 7.904 50.3378 12.3627C49.7326 16.8213 40.9562 17.024 39.2413 17.024M47.6142 8.30933C47.0089 9.728 45.6975 11.1467 43.1755 11.4507C41.0571 11.7547 40.351 13.7813 40.1492 14.9973C43.2764 14.896 48.0177 14.0853 48.3203 12.0587C48.522 10.4373 48.1185 9.12 47.6142 8.30933"/>
	<path fill="#FF6050" d="M38.0308 15.6054L43.579 15.6054L43.579 18.5441L38.0308 18.5441L38.0308 15.6054"/>
	<path fill="#2D1B0A" d="M44.5878 19.5574L37.022 19.5574L37.022 14.592L44.5878 14.592L44.5878 19.5574M39.0396 17.5307L42.5703 17.5307L39.0396 16.6187"/>
	<path fill="#FAD1B6" d="M31.6755 68.1973C31.6755 68.1973 34.6009 72.1493 38.8378 69.2106C38.8378 69.2106 41.0571 70.9333 42.772 70.528C44.4869 70.0213 46.4036 67.5893 46.4036 67.5893C46.4036 67.5893 45.3948 63.232 38.9387 63.1292C32.3816 63.1292 31.6755 68.1973 31.6755 68.1973"/>
	<path fill="#2D1B0A" d="M42.2676 71.6426C40.9562 71.6426 39.6448 70.9329 38.9387 70.426C35.2062 72.555 32.079 70.3246 30.9694 68.8038C30.7676 67.9928 31.7764 62.0111 39.2413 62.2088C46.3027 62.3152 47.6141 67.2831 47.6141 67.4858C47.2106 68.7025 45.2939 71.1357 43.2764 71.744C42.8729 71.6426 42.5703 71.6426 42.2676 71.6426M38.9387 67.9928C40.0483 68.9052 41.5615 69.9191 42.5703 69.6149C43.4782 69.4121 44.5878 68.2969 45.2939 67.4858C44.8904 66.5734 43.3773 64.3429 38.9387 64.2415C34.2983 64.1402 33.0878 66.9764 32.6843 67.9928C33.3904 68.8038 35.408 70.426 38.2325 68.4997"/>
	<path fill="#E5AFAC" d="M35.912 64.6507C35.912 64.6507 36.8203 64.144 39.0396 64.144C41.2589 64.144 42.3685 64.6507 42.3685 64.6507C42.3685 64.6507 43.2764 66.0694 38.8378 66.0694C35.912 66.0694 35.912 64.6507 35.912 64.6507"/>
	<path fill="#2D1B0A" d="M35.9121 34.5547C35.9121 34.2507 35.9121 26.144 40.0483 24.016C44.0834 21.888 46.1009 23.0027 46.3027 23.2054L45.193 24.928C45.193 24.928 43.8816 24.32 40.9562 25.84C38.4342 27.1574 37.9299 32.528 37.9299 34.5547L35.9121 34.5547"/>
	<path fill="#2D1B0A" d="M30.0615 34.5546C30.0615 33.3386 30.0615 27.1573 31.7764 25.3333C32.5834 24.32 33.3905 23.9146 34.1975 23.9146C34.8027 23.9146 35.3071 24.32 35.5089 24.624L33.8949 25.84C33.9957 26.0427 34.1975 26.0427 34.1975 26.0427C34.1975 26.0427 33.8949 26.0427 33.3905 26.752C32.5834 27.7653 32.1799 31.92 32.1799 34.6559L30.0615 34.5546"/>
	<path fill="#2D1B0A" d="M41.4606 35.4666C40.9562 33.3386 41.2832 28.88 46.0001 27.056L46.7062 28.9813C42.3685 30.704 43.3773 34.8586 43.3773 35.0613L41.4606 35.4666"/>
	<path fill="#6B6B6B" d="M17.6535 82.4853L20.2763 82.4853L20.2763 108.832L17.6535 108.832L17.6535 82.4853"/>
	<path fill="#2D1B0A" d="M21.2851 109.845L16.6447 109.845L16.6447 81.472L21.2851 81.472L21.2851 109.845M18.6623 107.819L19.2675 83.4987L18.6623 107.819"/>
	<path fill="#6B6B6B" d="M64.158 110.453L61.5352 110.453L61.5352 82.1814L64.158 82.688"/>
	<path fill="#2D1B0A" d="M65.1668 111.467L60.5264 111.467L60.5264 80.864L65.1668 81.776L65.1668 111.467M62.544 109.44L63.1492 83.4987L62.544 109.44"/>
	<path fill="white" d="M60.93 95.6587L65.3686 95.6587L65.3686 98.3947L60.93 98.3947L60.93 95.6587"/>
	<path fill="#2D1B0A" d="M66.2765 99.408L59.8203 99.408L59.8203 94.6454L66.2765 94.6454L66.2765 99.408M61.9388 97.3814L64.3598 97.3814L61.9388 96.672"/>
	<path fill="white" d="M16.8465 95.6587L21.2851 95.6587L21.2851 98.3947L16.8465 98.3947L16.8465 95.6587"/>
	<path fill="#2D1B0A" d="M22.2939 99.408L15.8377 99.408L15.8377 94.6454L22.2939 94.6454L22.2939 99.408M17.8553 97.3814L20.2763 97.3814L17.8553 96.672"/>
	<path fill="#351F21" d="M27.2369 44.5866C27.2369 44.384 27.4387 44.1813 27.5396 43.9786C27.5396 43.8773 27.6404 43.8773 27.7413 43.8773C27.8422 43.8773 28.044 43.7602 28.2457 43.7602C30.5659 43.7602 32.8861 44.08 35.2062 44.4853C35.408 44.4853 35.6098 44.5866 35.8115 44.5866C36.3159 44.7893 36.2233 44.992 36.2233 45.296"/>
	<path fill="#351F21" d="M51.7501 44.4853C51.6493 44.2826 51.5484 44.08 51.4475 43.8773C51.4475 43.776 51.3466 43.776 51.3466 43.6746C51.2458 43.5536 51.044 43.5536 50.9431 43.5536C48.9256 43.5536 46.7063 43.776 44.6887 44.1813C44.487 44.1813 44.2852 44.2826 44.1843 44.2826C43.8257 44.4853 43.8257 44.7893 43.8257 44.992"/>
	<path fill="#351F21" d="M50.136 49.7547C50.136 50.5382 49.1876 51.1734 48.0176 51.1734C46.8476 51.1734 45.8992 50.5382 45.8992 49.7547C45.8992 48.9712 46.8476 48.336 48.0176 48.336C49.1876 48.336 50.136 48.9712 50.136 49.7547"/>
	<path fill="#351F21" d="M34.3992 49.6533C34.3992 50.4368 33.4508 51.072 32.2808 51.072C31.1108 51.072 30.1624 50.4368 30.1624 49.6533C30.1624 48.8698 31.1108 48.2346 32.2808 48.2346C33.4508 48.2346 34.3992 48.8698 34.3992 49.6533"/>
</svg>
