<?xml version="1.0" encoding="utf-8" ?>
<svg xmlns="http://www.w3.org/2000/svg" xmlns:xlink="http://www.w3.org/1999/xlink" width="86" height="112">
	<path fill="white" d="M70.944 79.8565L68.3239 78.3498C68.0215 78.2493 67.82 78.0484 67.5177 77.948C67.4169 77.948 67.3161 77.8475 67.2154 77.8475L67.2154 76.843L63.8899 76.843C62.6806 76.5417 61.2698 76.3408 60.0605 76.1399L53.9134 73.3274L53.9134 69.0081C56.735 67.0996 59.0528 64.5883 60.6651 61.7758C61.4713 60.3695 62.1767 58.7623 62.7814 56.7534C68.1223 56.2511 72.254 51.8314 72.254 46.4072C72.254 43.896 71.347 41.5857 69.9362 39.878L69.9362 28.8287L67.4169 28.8287L67.4169 25.4135C67.4169 11.3507 55.9288 0 41.9214 0C27.914 0 16.4259 11.4511 16.4259 25.4135L16.4259 28.8287L13.1004 28.8287L13.1004 39.5767C11.6896 41.2843 10.8834 43.4942 10.8834 45.9049C10.8834 51.2287 14.9144 55.6484 20.1545 56.2511C20.3561 57.557 20.6584 58.6619 20.9607 59.365C21.9684 61.7758 24.4878 65.4924 27.914 68.4054C28.5187 69.209 29.2241 69.9121 30.0303 70.5148L30.0303 73.6287L24.8908 75.8386C20.2553 76.7426 9.17031 79.7561 5.03863 87.591C2.31777 92.9148 0.604636 107.078 0.403091 108.685L0 112L77.998 111.699L85.8583 111.699L86 108.786C86.5637 97.5354 80.4166 85.8834 70.944 79.8565"/>
	<path fill="#FAD1B6" d="M21.8719 33.1479C21.8719 38.5721 22.1741 54.5434 23.685 58.0591C25.196 61.5748 31.6428 70.5147 40.5071 70.2208C49.3714 69.912 55.3145 64.7892 57.9335 60.1685C60.5525 55.5479 62.0635 46.9093 61.7995 38.773L61.7995 34.4537L21.8719 33.1479"/>
	<path fill="#2D1B0A" d="M40.104 71.3185C31.1328 71.3185 24.3793 62.5795 22.6657 58.4611C20.8513 54.1418 20.8513 33.349 20.8513 33.1481L20.8513 32.1436L62.8201 33.5499L62.8201 38.8736C63.0862 47.3113 61.4734 56.1508 58.8527 60.7714C56.0303 65.6934 49.6799 71.0171 40.5072 71.3185C40.4064 71.3185 40.3056 71.3185 40.104 71.3185M22.8673 34.253C22.8673 42.2889 23.3713 54.9454 24.5809 57.7579C25.8913 60.9723 32.2416 69.6109 40.5072 69.3095C48.8735 69.0082 54.5183 64.1866 57.1391 59.7669C59.6591 55.4476 61.1711 47.01 60.8687 38.8736L60.8687 35.4584L22.8673 34.253"/>
	<path fill="#C9E5F2" d="M23.4427 42.8915C23.2688 40.9829 24.1754 39.4718 26.0892 39.4718C30.1185 39.7776 36.666 40.1794 40.0908 40.3803C45.4296 40.6816 56.6107 39.9785 58.6253 39.7776C60.6399 39.5767 58.6253 51.5301 58.6253 51.5301L44.523 52.635L40.5945 46.3067L37.0689 52.3337L24.3768 51.1283L23.4427 42.8915"/>
	<path fill="#2D1B0A" d="M44.006 53.6395L40.5784 48.2152L37.554 53.3381L23.4402 52.0323L22.3807 42.8915C22.2305 41.4852 22.6337 40.1794 23.4402 39.3758C24.1459 38.6726 25.0532 38.3713 26.0613 38.3713C30.5979 38.6726 36.7475 39.0744 40.0743 39.2753C45.3166 39.5767 56.6076 38.8735 58.523 38.6726C59.0271 38.6726 59.4303 38.7731 59.7328 39.1749C61.1441 40.7821 60.2368 47.6126 59.6319 51.53L44.006 53.6395M40.5784 44.3982L45.1149 51.53L57.8173 50.5256C58.4222 46.5076 58.8254 41.9874 58.4222 40.7821C55.7003 40.983 45.2157 41.5857 40.0743 41.3848C36.7475 41.1839 30.5979 40.7821 26.0613 40.4807C25.6581 40.4807 25.2548 40.5812 24.9524 40.8825C24.5491 41.2843 24.3475 41.9874 24.4483 42.791L25.2548 50.2242L36.445 51.2287L40.5784 44.3982"/>
	<path fill="#757575" d="M51.2719 46.6081C51.2719 47.3848 50.3249 48.0144 49.1566 48.0144C47.9883 48.0144 47.0413 47.3848 47.0413 46.6081C47.0413 45.8314 47.9883 45.2018 49.1566 45.2018C50.3249 45.2018 51.2719 45.8314 51.2719 46.6081"/>
	<path fill="#FAD1B6" d="M33.0397 66.296L50.869 66.296L50.869 99.7453L33.0397 99.7453L33.0397 66.296"/>
	<path fill="#2D1B0A" d="M51.8764 100.75L32.0324 100.75L32.0324 65.2916L51.8764 65.2916L51.8764 100.75M34.047 98.7409L49.8617 98.7409L49.8617 67.3006L34.047 67.3006L34.047 98.7409"/>
	<path fill="#3E4B63" d="M83.1058 108.685C83.6786 96.2296 75.5193 84.9794 66.2522 80.7606C63.8346 79.6556 56.1791 78.5507 56.1791 78.5507L42.7818 96.6314C39.6592 92.0108 26.665 78.5507 26.665 78.5507C26.665 78.5507 11.9583 80.861 7.72757 88.9973C5.10857 93.9193 3.39615 109.087 3.39615 109.087L78.0377 108.786L83.1058 108.685"/>
	<path fill="#2D1B0A" d="M2.3169 109.991L2.3169 108.886C2.51845 108.283 4.13084 93.5175 6.85174 88.4951C11.2858 79.957 25.8981 77.6467 26.6035 77.4458C28.0143 78.3498 38.7972 89.6001 42.9289 94.9238L55.828 77.4458C56.735 77.4458 64.293 78.6512 66.8124 79.7561C75.9828 83.9749 84.851 95.2252 84.185 108.685L84.185 109.69L78.1999 109.69L2.3169 109.991M26.3012 79.5552C23.681 80.0574 12.1928 82.5687 8.5649 89.3992C6.44864 93.3167 4.93703 104.366 4.53393 107.982L82.0293 107.681C82.1301 95.627 73.8666 85.3812 65.8046 81.6646C64.0915 80.861 59.0528 80.0574 56.6342 79.6557L42.7273 98.4395L41.9212 97.2341C39.2003 93.1158 28.5182 81.8655 26.3012 79.5552"/>
	<path fill="#757575" d="M35.5579 46.6081C35.5579 47.3848 34.6109 48.0144 33.4426 48.0144C32.2743 48.0144 31.3273 47.3848 31.3273 46.6081C31.3273 45.8314 32.2743 45.2018 33.4426 45.2018C34.6109 45.2018 35.5579 45.8314 35.5579 46.6081"/>
	<path fill="#EAC83B" d="M64.2662 35.9605L19.2395 35.9605L19.2395 25.5139C19.2395 13.1587 29.3126 3.1139 41.7025 3.1139C54.0923 3.1139 64.1654 13.1587 64.1654 25.5139L64.1654 35.9605"/>
	<path fill="#2D1B0A" d="M65.2735 36.965L18.2322 36.965L18.2322 25.5139C18.2322 12.556 28.8089 2.1094 41.7025 2.1094C54.596 2.1094 65.1727 12.6565 65.1727 25.5139L65.1727 36.965M20.3476 34.956L63.3596 34.956L63.3596 25.5139C63.3596 13.661 53.6894 4.11837 41.9039 4.11837C30.1184 4.11837 20.4483 13.7614 20.4483 25.5139L20.4483 34.956"/>
	<path fill="#EAC83B" d="M16.0161 31.8421L66.7844 31.8421L66.7844 37.5677L16.0161 37.5677L16.0161 31.8421"/>
	<path fill="#2D1B0A" d="M67.7916 38.5722L15.0087 38.5722L15.0087 30.8376L67.7916 30.8376L67.7916 38.5722M17.0233 36.5632L65.777 36.5632L65.777 32.8466L17.0233 32.8466L17.0233 36.5632"/>
	<path fill="#FF5576" d="M21.2542 53.2377C17.225 53.2377 13.9009 49.9229 13.9009 45.9049C13.9009 41.887 17.225 38.5722 21.2542 38.5722C21.0527 41.9874 21.2542 47.8134 21.2542 53.2377"/>
	<path fill="#2D1B0A" d="M22.1608 54.2421L21.1535 54.2421C16.5199 54.2421 12.7928 50.5255 12.7928 45.9049C12.7928 41.2843 16.5199 37.5677 21.1535 37.5677L22.1608 37.5677L22.1608 38.5722C22.0601 40.4807 22.0601 43.2933 22.1608 46.2063C22.1608 48.5166 22.2615 50.9273 22.1608 53.2377L22.1608 54.2421M20.1462 39.5767C17.1243 40.0789 14.8075 42.6906 14.8075 45.8045C14.8075 48.9184 17.1243 51.6305 20.1462 52.0323C20.1462 50.0233 20.1462 48.0143 20.1462 46.1058C20.1462 43.7955 20.1462 41.4852 20.1462 39.5767"/>
	<path fill="#FF5576" d="M61.7498 53.8404C65.7791 53.8404 69.1032 50.5256 69.1032 46.5076C69.1032 42.4897 65.7791 39.1749 61.7498 39.1749C61.9513 42.5901 61.7498 48.4161 61.7498 53.8404"/>
	<path fill="#2D1B0A" d="M61.7481 54.8448L60.7406 54.8448L60.7406 53.8404C60.7406 51.53 60.7406 49.1193 60.7406 46.809C60.7406 43.896 60.7406 41.0834 60.7406 39.1749L60.7406 38.1704L61.7481 38.1704C66.3827 38.1704 70.1124 41.887 70.1124 46.5076C70.2112 51.0278 66.3827 54.8448 61.7481 54.8448M62.8564 40.1794C62.8564 42.0879 62.8564 44.3982 62.8564 46.809C62.8564 48.7175 62.8564 50.7265 62.8564 52.7354C65.8789 52.2332 68.1962 49.6215 68.1962 46.5076C68.1962 43.2933 65.8789 40.6816 62.8564 40.1794"/>
	<path fill="white" d="M45.7318 69.4099L36.0616 69.4099C32.1331 69.4099 28.9097 66.1955 28.9097 62.2781L28.9097 60.3695C28.9097 56.4521 32.1331 53.2377 36.0616 53.2377L45.7318 53.2377C49.6602 53.2377 52.8837 56.4521 52.8837 60.3695L52.8837 62.2781C52.8837 66.1955 49.6602 69.4099 45.7318 69.4099"/>
	<path fill="white" d="M49.2574 58.461C48.653 58.461 48.25 58.0592 48.25 57.4565C48.25 56.6529 48.25 56.2511 61.1436 51.2662C61.6472 51.1282 62.2516 51.4296 62.453 51.9318C62.6545 52.4341 62.3523 53.0368 61.8487 53.2377C56.7114 55.2466 50.9698 57.5569 49.9625 58.1596C49.8617 58.2601 49.5596 58.461 49.2574 58.461"/>
	<path fill="white" d="M48.5523 64.0861C48.0486 64.0861 47.5449 63.6843 47.5449 63.1821C47.5449 62.5794 47.9479 62.1776 48.4515 62.0771L57.1144 61.5749C57.618 61.5749 58.1217 61.9767 58.2225 62.4789C58.2225 63.0816 57.8195 63.4834 57.3158 63.5839L48.5523 64.0861C48.653 64.0861 48.653 64.0861 48.5523 64.0861"/>
	<path fill="white" d="M33.6441 58.5615C33.5434 58.5615 33.3419 58.5615 33.2412 58.461L21.6572 53.4386C21.0763 53.2377 20.952 52.635 21.0763 52.1328C21.355 51.5535 21.9593 51.4296 22.463 51.5535L34.047 56.6529C34.5507 56.8538 34.7522 57.4565 34.5507 57.9588C34.45 58.3606 34.047 58.5615 33.6441 58.5615"/>
	<path fill="white" d="M30.8237 63.7847C30.7229 63.7847 30.7229 63.7847 30.6222 63.7847L24.3769 62.5793C23.8732 62.4789 23.5555 61.9766 23.5555 61.374C23.6718 60.8717 24.1754 60.5549 24.7798 60.5549L31.0251 61.7758C31.5288 61.8762 31.9317 62.3784 31.831 62.9811C31.7302 63.4834 31.2266 63.7847 30.8237 63.7847"/>
	<path fill="#E57935" d="M15.5126 82.6691L15.7141 108.183L35.9609 108.283L26.9959 78.3498"/>
	<path fill="#2D1B0A" d="M37.3711 109.288L14.7067 109.087L14.5052 81.9659L27.6002 76.9435L37.3711 109.288M16.7213 107.178L34.6514 107.279L26.2907 79.6556L16.5198 83.3722L16.7213 107.178"/>
	<path fill="#E57935" d="M67.8926 81.3633L68.5977 108.685L47.0413 108.685L56.1071 78.3498"/>
	<path fill="#2D1B0A" d="M69.605 109.69L45.7318 109.69L55.402 77.1444L68.7991 80.5596L69.605 109.69M48.4515 107.681L67.5904 107.681L66.986 82.1668L56.9129 79.5552L48.4515 107.681"/>
	<path fill="#6A7CBA" d="M57.6179 82.9703L57.215 77.9479L52.0778 75.7381L50.4661 83.0708L42.7098 96.9326L33.7448 83.1712L32.2338 75.9389L27.0965 78.1488L26.6936 83.1712L31.6294 83.3721L27.3987 87.591L42.7098 98.4394L57.5172 87.0888L53.0851 83.2717"/>
	<path fill="#2D1B0A" d="M42.7098 99.6448L25.8878 87.6914L29.3126 84.2762L25.6863 84.0753L26.19 77.4457L33.0396 74.5327L34.7521 82.7695L42.7098 94.9237L49.6602 82.669L51.3726 74.3318L58.2223 77.2448L58.726 83.8744L55.7041 84.0753L59.2296 87.0888L42.7098 99.6448M28.9097 87.4905L40.8966 95.9282L32.8382 83.5731L28.9097 87.4905M51.4734 83.1713L44.4222 95.8278L55.9055 87.0888L51.4734 83.1713M27.8017 82.1668L32.536 82.3677L31.4279 77.2448L28.0031 78.7515L27.8017 82.1668M52.7829 77.1444L51.6748 82.2672L56.4092 82.0663L56.107 78.6511L52.7829 77.1444"/>
	<path fill="#F4DD56" d="M19.5418 81.1623L24.3768 81.1623L24.3768 107.781L19.5418 107.781L19.5418 81.1623"/>
	<path fill="#2D1B0A" d="M25.3841 108.786L18.5344 108.786L18.5344 80.1578L25.3841 80.1578L25.3841 108.786M20.5491 106.777L23.3695 106.777L23.3695 82.1668L20.5491 82.1668L20.5491 106.777"/>
	<path fill="#F4DD56" d="M59.3305 79.8565L64.1655 79.8565L64.1655 106.475L59.3305 106.475L59.3305 79.8565"/>
	<path fill="#2D1B0A" d="M65.1728 107.48L58.3232 107.48L58.3232 78.852L65.1728 78.852L65.1728 107.48M60.3378 105.471L63.1582 105.471L63.1582 80.861L60.3378 80.861L60.3378 105.471"/>
</svg>
