<?xml version="1.0" encoding="utf-8" ?>
<svg xmlns="http://www.w3.org/2000/svg" xmlns:xlink="http://www.w3.org/1999/xlink" width="90" height="108">
	<path fill="white" d="M0 108C0.304054 99.2325 1.31757 81.1993 3.75 76.7159C6.08108 72.631 14.2905 68.3469 21.2838 65.8561C22.0946 65.6568 22.7027 65.3579 23.0068 65.2583C23.1081 65.1587 23.3108 65.1587 23.4122 65.059L26.25 63.9631L24.4257 62.1697L24.4257 60.9742L23.3108 60.3764C22.2973 59.8782 22.0946 57.0886 22.1959 55.6937C22.5 54.4982 22.7027 53.5018 23.0068 52.9041L23.7162 51.7085C22.7027 50.4133 22.5 50.0148 22.2973 49.417C22.1959 48.9188 21.9932 48.5203 21.7905 48.1218C21.6892 48.0221 21.6892 47.8229 21.5878 47.7232C21.4865 47.4244 21.3851 47.2251 21.1824 46.9262C20.5743 45.7306 19.9662 44.1365 19.7635 42.5424C19.2568 40.9483 18.6486 40.5498 18.3446 40.3506L17.1284 39.7528C15.3041 35.6679 15.6081 33.3764 16.0135 31.9815L16.1149 30.5867C14.8986 28.6937 15.9122 27.4982 16.1149 27.2989C16.723 26.7011 16.723 26.0037 16.8243 25.2066C16.8243 24.6089 16.9257 23.6125 17.2297 23.1144C18.0405 21.5203 19.0541 20.3247 19.4595 20.1255C20.5743 19.1292 20.777 18.7306 21.0811 18.3321C21.3851 17.8339 21.7905 17.2362 22.1959 16.738C23.3108 11.8561 24.8311 9.16605 27.1622 7.87085C29.0878 7.0738 30.6081 6.67528 32.1284 6.47601L33.2432 6.27675C35.2703 5.7786 36.7905 5.4797 37.9054 4.38376C40.4392 1.49446 43.6824 0 47.2297 0C49.4595 0 51.8919 0.398524 53.8176 1.19557C55.3378 2.29151 60.5068 5.87823 64.6622 6.97417C71.3514 9.06642 75.1014 14.048 74.8986 20.7232C75.3041 24.8081 77.4324 32.5793 78.5473 35.1697C78.5473 35.2694 82.0946 43.8376 77.8378 49.1181L76.723 50.5129L78.0405 51.8081C78.8514 52.6052 79.0541 53.7011 79.0541 54.3985C80.473 57.5867 79.9662 59.1808 79.5608 59.8782C79.1554 61.2731 78.3446 62.7675 78.0405 63.3653C77.8378 63.8635 77.6351 64.1624 77.5338 64.3616C77.2297 64.9594 76.9257 65.4576 76.6216 65.7565L74.7973 67.5498L77.1284 68.845C77.2297 68.9446 86.5541 74.3247 88.4797 81.2989C88.7838 83.0923 89.4932 97.738 90 108L0 108"/>
	<path fill="#EEE" d="M25.8446 39.0553C25.8446 39.0553 23.5136 26.2029 26.6554 20.3246C29.7973 14.546 35.7771 9.76375 45.7095 9.76375C55.6419 9.76375 62.1284 15.8412 63.6487 20.3246C65.5744 25.1069 66.5879 33.9741 65.2703 38.5572C63.9527 43.5387 62.3311 48.9187 59.5946 48.022C56.8582 47.0257 58.7838 34.7711 57.2636 31.6826C55.6419 28.594 51.0811 27.4981 47.6352 28.7932C44.0879 30.0884 34.1554 30.6863 32.8379 31.6826C31.5203 32.6788 30.1014 34.3727 30.5068 37.4612C30.7095 40.5498 31.5203 48.5202 29.696 48.2294C27.973 47.7232 25.8446 40.9482 25.8446 39.0553"/>
	<path fill="#FF5576" d="M3.3563 104.949C3.3563 104.949 3.55901 83.8274 6.49819 78.6466C9.64009 72.868 19.1671 70.4769 22.5117 69.1817C26.2617 67.5876 30.0117 65.4953 30.0117 65.4953C30.0117 65.4953 31.6333 65.296 33.1536 63.4031C33.1536 63.4031 38.4239 72.071 45.8225 75.8569C45.8225 75.8569 55.9577 69.7794 55.9577 63.2038C55.9577 63.2038 58.2887 65.0968 60.2144 66.2924C60.2144 66.2924 70.9577 70.7758 73.8968 71.8717C76.6333 72.868 76.836 72.868 76.836 72.868C76.836 72.868 83.3225 75.1595 85.1468 82.6318C85.1468 82.6318 87.2752 91.1005 86.8465 105.248L3.1536 105.248M31.532 19.2665C34.4712 19.8643 64.5725 21.3588 66.7009 25.8422C68.8293 30.6245 65.6874 46.9639 65.6874 47.761C65.6874 48.558 66.2955 49.3551 66.7009 50.6503C66.9036 51.9455 67.7144 50.8496 68.8293 51.6466C70.1468 52.6429 71.7685 51.0488 71.7685 51.0488C71.9712 50.2518 74.0995 48.3588 74.0995 48.3588C77.8495 44.1743 76.4306 39.392 75.4171 36.5027C74.0995 33.6134 71.6671 25.1448 71.6671 20.3625C71.8698 15.5802 70.0455 11.6946 63.6604 9.80158C57.1739 8.20748 53.1198 4.62077 51.5995 3.4252C49.9779 2.4913 44.0995 1.33295 40.8563 5.31819C37.9171 9.00453 32.2414 8.20748 29.0995 10.1005C26.1604 11.6946 26.1604 17.9713 26.1604 17.9713C26.1604 17.9713 28.1874 18.7684 31.532 19.2665"/>
	<path fill="#2D1B0A" d="M87.8602 106.207L1.8558 106.207L2.3629 104.713C2.3629 102.621 2.76858 83.3001 5.60835 78.1213C8.54954 72.7432 16.4603 70.1538 20.6185 68.7595C21.2271 68.5603 21.7342 68.3611 22.1399 68.2615C25.6896 66.7676 29.4421 64.6762 29.4421 64.6762C29.8478 64.5766 31.0648 64.3774 32.3833 62.7839L33.2961 61.6884L34.006 62.8835C34.006 62.9831 38.9756 70.9506 45.7708 74.6355C47.6978 73.3408 55 68.2615 55 63.1823L55 61.0908L56.6227 62.3855C56.6227 62.3855 58.9554 64.1782 60.781 65.3733C61.7952 65.7717 71.6329 69.855 74.3713 70.851C76.1969 71.5481 76.9068 71.7473 77.1096 71.7473C77.7182 71.9465 84.4119 74.4363 86.4403 82.3042C86.5417 82.7026 88.5701 91.0684 88.1443 105.211M4.39131 104.215L85.9332 104.215C86.3389 90.8692 84.4119 82.9018 84.3105 82.8022C82.5863 76.229 77.3125 74.038 76.6025 73.7392C76.2983 73.6396 75.4869 73.4404 73.5599 72.7432C70.6187 71.6477 60.2739 67.3652 59.8682 67.166C58.6512 66.4689 57.5355 65.6721 56.7242 64.975C55.2029 71.2493 46.6836 76.3286 46.2779 76.6274L45.2637 76.6274C39.2799 73.54 34.6145 67.3652 32.8904 64.8754C31.7748 65.8713 30.6592 66.2697 30.2535 66.3693C29.5435 66.7676 26.1967 68.5603 22.8498 70.0542C22.3427 70.2534 21.8356 70.4526 21.2271 70.6518C17.2717 71.9465 9.868 74.4363 7.33249 79.1172C5.20267 83.0014 4.49273 97.9404 4.39131 104.215M69.8074 52.9242C69.3003 52.9242 68.6918 52.8246 68.1847 52.4262C67.9818 52.3266 67.8804 52.3266 67.5761 52.3266C67.1705 52.3266 65.9534 52.4262 65.6491 50.8327C65.4463 50.3347 65.3449 50.036 65.142 49.6376C64.8378 48.9404 64.5335 48.3429 64.5335 47.6457C64.5335 47.4465 64.6349 47.0482 64.7364 45.853C65.3449 41.8693 67.2719 29.8185 65.5477 26.1335C64.1278 23.1457 43.0324 21.2535 36.1359 20.6559C33.6003 20.4567 31.8762 20.2575 31.1663 20.1579C27.8194 19.5604 25.791 18.9628 25.6896 18.8632C24.9796 17.2697 25.081 10.9954 28.4279 9.20268C29.7464 8.40593 31.4705 8.10715 33.1947 7.70878C35.7302 7.21081 38.2657 6.61325 39.8884 4.72098C43.5395 0.23928 50.0304 1.5328 51.9574 2.62952C52.2617 2.8287 52.5659 3.02789 52.8702 3.32667C54.7972 4.82057 58.4483 7.60919 63.7222 8.80431C69.9088 10.597 72.85 14.3815 72.5457 20.3571C72.5457 24.9384 74.8784 33.3043 76.1969 35.9933C77.5153 39.7778 78.5295 44.5583 74.6756 48.9404C73.5599 49.9364 72.6471 50.9323 72.4443 51.2311C71.9372 52.3266 70.923 52.9242 69.8074 52.9242M67.779 50.3347C68.1847 50.3347 68.7932 50.4343 69.4017 50.8327C69.9088 51.2311 70.6187 50.7331 70.923 50.5339C71.3287 49.6376 72.6471 48.4425 73.4585 47.7453C76.6025 44.1599 75.7912 40.2758 74.5741 36.8896C73.2557 34.2006 70.8216 25.536 70.8216 20.4567C71.0244 15.3775 68.7932 12.3897 63.5193 10.8958C57.8398 9.50146 53.9858 6.61325 51.9574 5.01976C51.6532 4.82057 51.3489 4.62138 51.1461 4.4222C49.929 3.62545 44.6552 2.62952 41.8154 6.11528C39.787 8.60512 36.7444 9.30227 34.006 9.80024C32.3833 10.099 30.862 10.3978 29.8478 11.0949C28.1236 11.9913 27.5151 15.4771 27.4137 17.3693C28.2251 17.5685 29.8478 17.9669 31.8762 18.3653C32.4847 18.4649 34.3103 18.664 36.643 18.8632C54.6958 20.4567 66.1563 22.1498 67.779 25.4364C69.5031 29.2209 68.2861 38.5827 67.069 46.2514C66.9676 46.9486 66.8662 47.6457 66.8662 47.7453C66.8662 47.9445 67.069 48.3429 67.2719 48.8408C67.4747 49.2392 67.6776 49.7372 67.8804 50.2351C67.6776 50.3347 67.779 50.3347 67.779 50.3347"/>
	<path fill="#FAD1B6" d="M45.6946 67.4503C45.6946 67.4503 39.2082 66.4539 34.4446 60.8746C29.5798 55.6939 29.1744 50.5131 29.1744 50.5131C29.1744 50.5131 26.4379 50.5131 25.6271 48.2215C24.8163 45.93 21.0663 40.8489 24.6136 39.2547C24.6136 39.2547 26.5393 38.657 27.3501 40.0518C27.9582 41.6459 29.2758 46.1292 29.4785 47.1255C29.6812 48.1218 31.4041 50.812 29.6812 37.6607C29.6812 37.6607 28.3636 32.6791 32.8231 30.7861C37.8907 29.192 44.0731 29.192 46.3027 27.8968C48.2285 26.3027 55.4244 28.6939 56.8434 27.0998C56.8434 27.0998 60.5934 28.6939 61.4042 33.1772C61.6068 37.3618 60.3906 47.9227 61.2015 48.7197C62.215 49.3175 62.519 42.3433 63.3298 40.8489C63.938 39.2547 66.4716 38.1588 67.0798 40.8489C67.0798 43.1404 64.9515 48.5205 64.1406 49.5168C63.3298 50.3138 62.215 51.6089 61.2015 50.812C61.2015 50.812 60.3906 56.5906 55.9312 61.5721C51.3704 66.4539 47.519 67.2511 45.6946 67.4503"/>
	<path fill="#2D1B0A" d="M45.7094 68.4466C45.304 68.4466 38.7161 67.3506 33.6486 61.572C29.6959 57.3875 28.581 53.203 28.1756 51.5093C27.0607 51.31 25.3378 50.6126 24.6283 48.62C24.4256 48.1218 24.1215 47.5241 23.8175 46.8266C22.804 44.834 21.5878 42.3432 22.2972 40.3506C22.6013 39.4539 23.2094 38.8562 24.1215 38.358C25.3378 37.9595 27.2634 37.8599 28.1756 39.4539C28.4797 40.251 28.8851 41.4466 29.1891 42.6421C29.0878 41.4466 28.8851 39.8525 28.6824 37.8599C28.1756 35.7676 28.277 31.5831 32.4324 29.8894C34.9661 29.0923 37.7026 28.6938 40.1351 28.3949C42.4661 28.096 44.7972 27.6975 45.7094 27.0997C47.0269 26.1034 49.358 26.3027 51.8918 26.5019C53.2094 26.6015 55.6418 26.8008 56.0472 26.4023L57.2634 26.1034C57.4661 26.203 61.5202 27.8968 62.4324 32.9779C62.5337 34.9706 62.331 37.9595 62.2297 40.8488C62.2297 40.9484 62.2297 40.9484 62.2297 41.048C62.331 40.8488 62.331 40.6495 62.4324 40.4503C62.9391 39.1551 64.358 38.1587 65.6756 38.2584C66.2837 38.2584 67.6013 38.6569 68.108 40.6495C68.108 43.3396 65.8783 48.9189 64.9661 50.1145C64.1553 51.0111 63.1418 52.0075 62.0269 52.0075C61.5202 54.0001 60.2026 58.2842 56.6553 62.1698C53.3107 65.7565 49.7634 67.8488 46.0134 68.2473M24.9324 40.251C24.4256 40.5499 24.3243 40.8488 24.2229 41.048C23.8175 42.2436 24.831 44.4355 25.6418 46.0296C26.0472 46.727 26.3513 47.4244 26.554 48.0222C27.0607 49.6163 28.9864 49.7159 29.0878 49.7159L30.1013 50.6126C30.1013 50.6126 30.608 55.4945 35.1688 60.3765C39.3242 65.1587 44.7972 66.4539 45.7094 66.5536C48.9526 66.1551 52.0945 64.2621 55.0337 61.0739C59.2905 56.3912 60.1013 50.9115 60.1013 50.8119L60.304 49.417C59.6959 48.62 59.6959 46.8266 60.1013 40.8488C60.304 38.0591 60.4053 35.1698 60.304 33.3765C59.7972 30.3875 57.7702 28.8931 56.858 28.2953C55.6418 28.8931 53.8175 28.6938 51.6891 28.4945C49.9661 28.2953 47.5337 28.096 46.9256 28.6938C45.5067 29.5905 43.2769 29.989 40.3378 30.3875C38.0067 30.6864 35.4729 31.0849 33.1418 31.7824C29.4932 33.3765 30.608 37.2621 30.608 37.4613C32.027 48.7196 31.2161 48.8193 30.1013 49.0185C29.1891 49.2178 28.581 48.3211 28.3783 47.3248C28.1756 46.4281 26.858 42.144 26.3513 40.4503C26.0472 40.0517 25.2364 40.1514 24.9324 40.251M61.3175 49.8156C62.0269 50.1145 62.8378 49.417 63.0405 49.1182C63.9526 48.0222 65.8783 43.1403 65.9797 41.048C65.8783 40.7491 65.7769 40.3506 65.4729 40.3506C65.0675 40.3506 64.4594 40.7491 64.2567 41.3469C63.9526 41.9447 63.7499 43.5388 63.5472 44.9337C63.0405 48.2215 62.7364 49.417 61.9256 49.8156C61.6215 49.8156 61.4188 49.8156 61.3175 49.8156"/>
	<path fill="#EEE" d="M46.1149 75.0266L48.446 104.816L46.1149 75.0266"/>
	<path fill="#2D1B0A" d="M45.0152 74.9944L47.0362 74.8407L49.3821 104.64L47.3612 104.794L45.0152 74.9944"/>
	<path fill="#EEE" d="M43.8852 104.812L44.1892 74.9226L48.0406 74.9226L47.8379 104.712"/>
	<path fill="#2D1B0A" d="M42.8717 105.808L43.1757 74.0259L49.1554 73.8267L48.8514 105.609L42.8717 105.808M45.2027 76.0185L45 103.816L46.8244 103.816L47.0271 76.0185L45.2027 76.0185"/>
	<path fill="#F7F7F7" d="M25.2365 39.2747C25.2365 39.2747 22.9055 39.474 22.0946 39.2747C21.4865 38.6769 20.473 37.6806 19.9663 37.3817C19.7636 36.7839 18.9527 34.6917 19.3582 32.8983C19.9663 31.0053 19.9663 30.009 19.5609 29.8097C18.9527 29.212 19.7636 28.2157 20.169 27.1197C20.3717 26.1234 20.7771 24.2304 21.1825 22.9352C21.9933 22.1382 23.3109 21.9389 23.5136 20.843C24.1217 19.5478 24.5271 18.5514 25.4392 18.1529C26.25 17.9537 26.0473 17.9537 27.7703 17.3559C29.3919 16.6985 31.5203 17.3559 33.9527 17.3559C35.8784 17.3559 36.6892 16.6985 38.5136 17.3559C39.8311 17.5551 40.1352 17.5551 42.0609 17.3559C44.1892 17.1566 45.6081 17.5551 47.1284 17.5551C48.6487 17.5551 48.75 17.3559 50.8784 16.9573C52.8041 16.6985 54.4257 17.5551 56.1487 17.1566C58.0744 16.9573 61.2163 16.3596 62.3311 16.9573C63.6487 17.7544 66.5879 18.8503 67.196 19.8466C67.8041 20.843 70.1352 22.5367 70.1352 24.0312C70.1352 25.3263 70.946 26.9204 71.1487 28.8134C71.3514 30.4075 71.7568 33.5957 71.3514 34.3928C71.1487 35.3891 71.9595 36.485 71.1487 37.4813C70.5406 38.4776 72.1622 40.1714 69.8311 40.3706C67.0946 40.3706 67.7027 40.9684 66.0811 40.1714C64.4595 39.3743 64.1554 39.1751 61.5203 38.2784C59.1892 37.4813 56.4527 36.6843 54.8311 36.9832C52.9054 36.9832 49.5609 37.1824 48.1419 36.9832C46.8244 36.7839 46.2163 36.9832 43.2771 36.9832C40.5406 36.9832 40.946 36.1861 37.6014 36.7839C34.4595 37.3817 32.5338 38.0791 29.7973 37.7802C27.4663 37.7802 26.6555 38.5773 25.5406 38.7765C25.6419 38.8762 25.6419 39.2747 25.2365 39.2747M70.1352 51.1308C69.5271 51.33 68.8176 51.7286 68.2095 51.9278C67.6014 51.9278 67.3987 51.7286 66.8919 52.1271C66.2838 52.7249 66.0811 53.1234 64.9663 53.7212C63.8514 54.319 64.3581 55.0164 64.3581 56.4112C64.3581 57.7064 64.1554 57.2083 63.75 58.3042C63.1419 59.5994 64.7636 59.5994 64.7636 61.1935C64.7636 62.7876 65.7771 61.1935 66.0811 62.1898C66.2838 62.9869 66.2838 63.1861 67.3987 63.485C68.4122 63.6843 69.3244 63.485 70.3379 64.0828C71.1487 64.6806 71.1487 63.8835 71.9595 63.485C72.7703 62.8872 74.0879 63.6843 74.0879 62.688C74.0879 61.6917 74.8987 61.6917 75.4054 60.5957C76.0136 59.5994 76.0136 58.5035 76.2163 58.3042C76.8244 57.7064 76.2163 56.7101 75.6081 56.0127C75 55.4149 75.6081 54.1197 75 53.7212C74.3919 53.1234 73.9865 52.7249 73.9865 52.7249C73.9865 52.7249 73.9865 52.5256 73.7838 51.9278C73.1757 51.33 71.6554 51.33 71.6554 51.33C71.9595 51.5293 70.5406 50.9315 70.1352 51.1308M30.1014 48.8393C30.1014 48.8393 25.8446 53.3227 25.5406 55.9131C25.5406 58.6031 26.3514 58.6031 27.1622 59.5994C27.7703 60.5957 27.1622 61.8909 27.973 62.4887C28.9865 63.2858 30.9122 65.378 30.9122 66.6732C31.1149 67.6695 34.6622 68.5662 36.5879 69.7618C38.2095 70.7581 42.7703 72.8503 41.4527 76.8356C41.4527 76.8356 43.3784 76.6363 43.0744 73.747C43.0744 73.747 45.2027 75.3411 42.8717 78.5293C42.8717 78.5293 44.4933 79.1271 46.0136 76.6363C46.0136 76.6363 47.3311 81.4186 51.8919 81.1332C51.8919 81.1332 49.1554 80.1234 49.1554 76.6363C49.1554 76.6363 48.9527 74.7433 51.8919 71.854C51.8919 71.854 58.5811 64.9795 61.0136 62.8872C63.3446 60.795 63.75 53.4223 62.9392 51.33C62.1284 49.4371 61.6217 48.64 61.0136 48.64C60.4054 48.8393 58.6825 51.7286 57.2636 52.1271C55.946 52.3264 50.7771 59.4998 50.0676 59.7987C49.2568 59.9979 42.8717 60.795 42.2636 59.9979C41.4527 59.2009 37.196 53.1234 35.2703 52.6252C33.6487 51.7286 31.2163 51.7286 30.1014 48.8393"/>
	<path fill="#2D1B0A" d="M51.3852 82.1954C48.446 82.1954 46.6216 80.3024 45.7095 78.6086C44.0879 80.1031 42.5676 79.605 42.4662 79.5053L41.1487 79.1068L41.9595 78.0108C42.0608 77.9112 42.0608 77.8116 42.1622 77.8116C41.9595 77.9112 41.7568 77.9112 41.5541 78.0108L39.9325 78.2101L40.4392 76.7156C41.3514 74.1251 39.0203 72.531 36.6892 71.1361C36.4865 71.0365 36.1825 70.8372 36.0811 70.7376C35.3716 70.3391 34.3581 69.8409 33.446 69.4424C31.5203 68.6453 30.2027 68.0475 30 66.9515C30 65.9552 28.5811 64.1618 27.4662 63.3647C26.6554 62.7669 26.6554 61.8702 26.5541 61.1728C26.5541 60.7743 26.5541 60.4754 26.4527 60.1765C26.3514 59.9772 26.1487 59.8776 26.0473 59.7779C25.2365 58.9809 24.7298 58.2834 24.7298 55.9919C24.9325 53.0029 29.0879 48.7187 29.4933 48.2205L30.6081 47.1245L31.2162 48.619C31.8243 50.3128 32.9392 50.7113 34.2568 51.2095C34.7635 51.4088 35.2703 51.608 35.777 51.9069C37.3987 52.4051 39.6284 55.1948 41.9595 58.0842C42.3649 58.5823 42.7703 59.1801 42.973 59.3794C43.9865 59.6783 48.5473 59.2798 49.6622 58.9809C50.0676 58.682 50.9797 57.4864 51.7906 56.49C54.8311 52.8036 56.1487 51.4088 57.1622 51.2095C57.5676 51.1099 58.6825 49.8146 59.1892 49.2168C59.8987 48.4198 60.2027 48.0212 60.6081 47.822C62.2297 47.7223 63.0406 49.0176 63.8514 51.0102C64.0541 51.5084 64.1554 52.1062 64.2568 53.0029C64.3581 52.9033 64.4595 52.9033 64.5608 52.8036C65.2703 52.5047 65.473 52.2058 65.8784 51.8073C65.9797 51.7077 66.0811 51.5084 66.2838 51.4088C67.0946 50.811 67.6014 50.811 68.1081 50.811C68.1081 50.811 68.2095 50.811 68.2095 50.811C68.4122 50.7113 68.7162 50.6117 68.9189 50.5121C69.223 50.4124 69.6284 50.2132 69.8311 50.1135C70.4392 49.8146 71.0473 50.0139 71.6554 50.1135C72.4662 50.1135 73.9865 50.2132 74.7973 51.0102C75.1014 51.608 75.2027 51.8073 75.2027 52.0066C76.6216 53.3018 76.6216 54.0989 76.6216 54.6967C76.6216 54.8959 76.6216 55.1948 76.6216 55.2945C77.7365 56.8886 77.9392 57.9845 77.2297 58.8812C77.2297 58.9809 77.2297 59.0805 77.1284 59.1801C77.027 59.6783 76.8243 60.3757 76.4189 61.0732C76.1149 61.671 75.7095 62.0695 75.5068 62.2688C75.2027 62.5677 75.2027 62.5677 75.2027 62.6673C75.2027 63.2651 75 63.564 74.7973 63.7633C74.2906 64.2614 73.6825 64.1618 73.277 64.1618C73.0743 64.1618 72.7703 64.1618 72.6689 64.1618C72.3649 64.2614 72.2635 64.3611 72.1622 64.4607C71.8581 64.7596 71.1487 65.457 69.9325 64.66C69.527 64.4607 69.0203 64.3611 68.5135 64.3611C68.1081 64.3611 67.7027 64.3611 67.2973 64.2614C65.9797 63.8629 65.5743 63.4644 65.3716 62.6673C65.0676 62.6673 64.7635 62.6673 64.4595 62.3684C63.9527 61.9699 63.8514 61.3721 63.8514 60.8739C63.8514 60.575 63.75 60.3757 63.5473 60.1765C63.1419 61.5713 62.5338 62.6673 61.723 63.3647C59.2906 65.457 52.7027 72.2321 52.6014 72.3317C50.0676 74.8226 50.1689 76.3171 50.1689 76.3171C50.1689 79.1068 52.196 79.9039 52.196 79.9039L56.25 81.498L51.8919 81.7969C51.6892 82.1954 51.5879 82.1954 51.3852 82.1954M46.3176 74.3244L46.9257 76.5163C46.9257 76.616 47.4325 78.0108 48.5473 79.1068C48.3446 78.509 48.1419 77.7119 48.1419 76.8152C48.1419 76.3171 48.1419 74.2248 51.1825 71.3354C51.4865 71.0365 57.8716 64.3611 60.4054 62.2688C62.3311 60.575 62.7365 53.8 62.027 51.8073C61.6216 50.9106 61.3176 50.3128 61.1149 50.1135C61.0135 50.2132 60.8108 50.4124 60.7095 50.5121C59.5946 51.9069 58.5811 52.9033 57.4662 53.2022C56.7568 53.5011 54.527 56.2908 53.3108 57.7853C51.4865 60.0768 50.8784 60.6746 50.473 60.8739C50.2703 60.8739 43.0743 62.2688 41.5541 60.8739C41.3514 60.6746 40.946 60.1765 40.3379 59.3794C39.223 57.8849 36.1825 54.0989 35.0676 53.8C34.3581 53.5011 33.9527 53.3018 33.446 53.1025C32.3311 52.704 31.0135 52.1062 30 50.7113C28.4798 52.4051 26.8581 54.7963 26.7568 56.1911C26.7568 57.7853 27.0608 58.0842 27.5676 58.4827C27.7703 58.682 27.973 58.8812 28.1757 59.1801C28.6825 59.9772 28.6825 60.575 28.6825 61.1728C28.6825 61.3721 28.6825 61.7706 28.7838 61.8702C29.7973 62.6673 31.9257 64.7596 32.1284 66.553C32.4325 66.8519 33.6487 67.3501 34.4595 67.649C35.473 68.0475 36.4865 68.5457 37.3987 69.0438C37.6014 69.1435 37.8041 69.2431 38.0068 69.4424C39.223 70.1398 41.0473 71.2358 42.1622 72.9295L42.0608 71.7339L43.9865 73.1288C44.696 73.627 45.5068 74.9222 45.2027 76.616C45.3041 76.5163 45.4054 76.4167 45.4054 76.2174L46.3176 74.3244M67.2973 62.3684C67.2973 62.3684 67.3987 62.468 67.8041 62.5677C68.0068 62.5677 68.3108 62.6673 68.6149 62.6673C69.223 62.6673 70.0338 62.7669 70.7433 63.1655C70.946 62.9662 71.1487 62.8666 71.4527 62.6673C72.0608 62.2688 72.6689 62.2688 73.0743 62.3684C73.1757 61.671 73.5811 61.2724 73.8852 60.9735C74.0879 60.7743 74.2906 60.575 74.4933 60.2761C74.7973 59.7779 74.8987 59.2798 75 58.8812C75.1014 58.4827 75.2027 58.0842 75.4054 57.7853C75.4054 57.6856 75.3041 57.3867 74.7973 56.6893C74.2906 56.0915 74.2906 55.3941 74.2906 54.8959C74.2906 54.7963 74.2906 54.597 74.2906 54.3978L72.973 53.1025C72.973 52.704 72.973 52.704 72.8716 52.5047C72.6689 52.4051 72.2635 52.3055 71.8581 52.3055C71.5541 52.4051 71.1487 52.3055 70.8446 52.2058C70.6419 52.2058 70.3379 52.1062 70.2365 52.1062C69.9325 52.2058 69.6284 52.3055 69.3243 52.5047C69.0203 52.6044 68.6149 52.8036 68.3108 52.9033C67.7027 53.0029 67.5 53.0029 67.3987 53.0029C67.3987 53.0029 67.2973 53.0029 67.2973 53.0029C67.196 53.1025 67.0946 53.2022 66.9933 53.3018C66.5879 53.7003 66.1825 54.1985 65.1689 54.6967C65.0676 54.7963 64.9662 54.7963 64.9662 54.7963C64.9662 54.8959 64.9662 55.0952 65.0676 55.3941C65.0676 55.693 65.1689 56.0915 65.1689 56.49C65.1689 57.3867 65.0676 57.7853 64.7635 58.1838C64.6622 58.2834 64.6622 58.3831 64.5608 58.682C64.5608 58.8812 64.5608 58.8812 64.5608 58.8812C64.5608 58.8812 64.6622 58.9809 64.7635 59.0805C65.0676 59.3794 65.5743 59.9772 65.6757 60.8739C66.5879 60.8739 66.8919 61.5713 66.9933 61.8702C67.196 62.1691 67.2973 62.2688 67.2973 62.3684M67.3987 41.6447C66.8919 41.6447 66.4865 41.5451 65.6757 41.1465C63.9527 40.2498 63.5473 40.0506 61.3176 39.2535C60.1014 38.855 56.7568 37.759 55.1352 37.9583C54.4257 37.9583 53.7162 37.9583 52.9054 37.9583C51.0811 38.0579 49.2568 38.0579 48.2433 37.8586C47.5338 37.759 47.1284 37.759 46.2162 37.759C45.6081 37.759 44.7973 37.8586 43.5811 37.8586C42.3649 37.8586 41.6554 37.759 41.1487 37.5597C40.4392 37.3605 39.8311 37.2608 38.1081 37.5597C37.2973 37.759 36.4865 37.8586 35.777 38.0579C33.8514 38.4564 32.2297 38.855 30.1014 38.5561C28.7838 38.5561 27.973 38.855 27.3649 39.1539C27.0608 39.2535 26.8581 39.3531 26.5541 39.4528C26.25 39.8513 25.8446 40.0506 25.5406 40.0506C24.9325 40.1502 22.9054 40.2498 21.9933 40.0506C21.1825 39.3531 20.0676 38.2572 19.6622 38.0579C18.9527 36.663 18.1419 34.4711 18.6487 32.4784C19.0541 31.0836 19.0541 30.4858 19.0541 30.2865C18.2433 29.3898 18.75 28.3935 19.0541 27.5964C19.1554 27.2975 19.2568 26.9986 19.3581 26.6997C19.3581 26.5005 19.4595 26.2016 19.5608 25.9027C19.7635 24.8067 20.0676 23.5115 20.473 22.4155C21.1825 21.6184 21.5879 21.4192 21.9933 21.1203C22.6014 20.8214 22.8041 20.6221 22.9054 20.3232C23.6149 18.8287 24.1216 17.4338 25.5406 16.9357C25.946 16.836 26.0473 16.7364 26.25 16.7364C26.5541 16.6368 26.9595 16.5371 27.973 16.1386C29.1892 15.7401 30.6081 15.8397 32.027 15.9393C32.8379 16.039 33.6487 16.039 34.4595 16.039C35.0676 16.039 35.5743 15.9393 36.0811 15.9393C36.9933 15.8397 37.9054 15.7401 39.223 16.1386C40.4392 16.3379 40.5406 16.3379 42.3649 16.1386C43.7838 16.039 44.8987 16.1386 45.9122 16.2382C46.5203 16.3379 47.027 16.3379 47.5338 16.3379C48.3446 16.3379 48.6487 16.2382 49.2568 16.1386C49.6622 16.039 50.1689 15.9393 51.0811 15.8397C52.196 15.7401 53.1081 15.8397 54.0203 15.9393C54.9325 16.039 55.6419 16.1386 56.4527 16.039C56.8581 16.039 57.1622 15.9393 57.5676 15.9393C60.2027 15.6359 62.1284 15.4412 63.3446 15.9393C63.75 16.1386 64.2568 16.4375 64.8649 16.7364C66.7906 17.6331 68.1081 18.3305 68.6149 19.2272C68.7162 19.4265 69.1216 19.825 69.527 20.2236C70.5406 21.2199 71.6554 22.5151 71.6554 23.91C71.6554 24.5078 71.8581 25.1056 72.0608 25.9027C72.2635 26.6997 72.5676 27.5964 72.6689 28.4931C72.8716 29.5891 73.277 33.1759 72.8716 34.4711C72.8716 34.6704 72.8716 34.9693 72.973 35.2682C73.0743 35.9656 73.277 36.9619 72.5676 37.8586C72.5676 37.9583 72.5676 38.2572 72.6689 38.4564C72.7703 39.0542 72.8716 39.7517 72.3649 40.4491C71.9595 40.9473 71.3514 41.2462 70.4392 41.2462C69.3243 41.2462 68.9189 41.3458 68.5135 41.3458C67.8041 41.6447 67.6014 41.6447 67.3987 41.6447M55.5406 35.9656C57.3649 35.9656 59.696 36.663 61.9257 37.3605C64.2568 38.1575 64.8649 38.4564 66.0811 39.0542C67.2973 39.652 67.2973 39.652 67.7027 39.652C68.1081 39.5524 68.7162 39.4528 69.8311 39.4528C70.0338 39.4528 70.1352 39.3531 70.1352 39.3531C70.1352 39.2535 70.1352 39.0542 70.0338 38.9546C69.9325 38.4564 69.8311 37.759 70.2365 37.0616C70.5406 36.7627 70.5406 36.4638 70.4392 35.866C70.3379 35.3678 70.2365 34.8696 70.4392 34.2718C70.7433 33.5744 70.5406 31.2828 70.2365 29.0909C70.1352 28.2939 69.9325 27.4968 69.7297 26.6997C69.4257 25.803 69.223 25.006 69.223 24.1093C69.223 23.5115 68.2095 22.4155 67.6014 21.8177C67.0946 21.3195 66.6892 20.8214 66.3852 20.4228C66.1825 20.0243 64.3581 19.1276 63.446 18.7291C62.8379 18.4302 62.3311 18.1313 61.9257 17.932C61.3176 17.6331 58.7838 17.932 57.4662 18.1313C57.0608 18.2309 56.7568 18.2309 56.3514 18.2309C55.3379 18.4302 54.3243 18.3305 53.3108 18.1313C52.5 18.0316 51.7906 17.932 50.9797 18.0316C50.1689 18.1313 49.7635 18.2309 49.3581 18.3305C48.6487 18.4302 48.2433 18.5298 47.1284 18.5298C46.4189 18.5298 45.8108 18.4302 45.2027 18.4302C44.2906 18.3305 43.277 18.2309 42.1622 18.3305C40.1352 18.5298 39.8311 18.5298 38.4122 18.3305C37.3987 18.0316 36.7906 18.1313 35.9797 18.2309C35.473 18.3305 34.8649 18.3305 34.0541 18.3305C33.1419 18.3305 32.2297 18.2309 31.4189 18.2309C30.1014 18.1313 28.9865 18.0316 28.1757 18.3305C27.1622 18.6294 26.7568 18.7291 26.5541 18.8287C26.3514 18.9283 26.1487 18.9283 25.7433 19.1276C25.3379 19.3269 25.0338 20.0243 24.5271 21.1203C24.223 22.2162 23.4122 22.7144 22.7027 23.1129C22.5 23.2126 22.196 23.4118 22.0946 23.5115C21.7906 24.4082 21.5879 25.6038 21.3852 26.5005C21.2838 26.7994 21.2838 27.0983 21.1825 27.3972C21.0811 27.8953 20.8784 28.1942 20.7771 28.4931C20.6757 28.6924 20.5743 28.9913 20.473 29.1906C21.0811 29.7883 20.9798 31.0836 20.3716 33.1759C20.0676 34.3715 20.5743 35.9656 20.7771 36.663C21.2838 37.0616 21.9933 37.6594 22.6014 38.2572C23.1081 38.2572 24.0203 38.2572 24.8311 38.2572C25.0338 37.9583 25.3379 37.8586 25.5406 37.759C25.8446 37.6594 26.0473 37.5597 26.3514 37.4601C27.1622 37.1612 28.1757 36.7627 30 36.7627C31.9257 36.9619 33.3446 36.663 35.1689 36.2645C35.8784 36.0652 36.6892 35.9656 37.6014 35.7663C39.7297 35.3678 40.5406 35.5671 41.4527 35.7663C41.9595 35.866 42.4662 35.9656 43.4797 35.9656C44.696 35.9656 45.4054 35.9656 46.0135 35.866C46.9257 35.866 47.5338 35.7663 48.446 35.9656C49.2568 36.0652 51.1825 36.0652 52.7027 35.9656C53.5135 35.9656 54.223 35.9656 54.8311 35.9656C55.1352 36.0652 55.3379 35.9656 55.5406 35.9656"/>
	<path fill="#EEE" d="M31.723 59.0866C31.9257 58.8874 34.4595 56.9944 35.9798 53.5073C36.9933 50.4187 42.4662 47.4298 46.1149 50.8173C46.1149 50.8173 49.0541 48.5257 53.3108 49.5221C57.0608 50.8173 58.1757 57.9907 60.8108 58.1899C60.8108 58.1899 57.8716 62.3745 53.8176 59.1863C49.7635 56.0977 52.196 54.2047 45.8108 54.2047C39.6284 54.2047 40.5406 57.094 39.3243 58.6881C38.2095 60.1826 34.6622 62.2749 31.723 59.0866"/>
	<path fill="#2D1B0A" d="M35.169 61.7712C34.0541 61.7712 32.4325 61.3727 30.9122 59.7786L31.0136 58.3838C31.0136 58.3838 31.1149 58.2842 31.2163 58.1845C32.9392 56.6901 34.2568 54.9963 35.0676 53.1033C35.7771 51.0111 38.0068 49.1181 40.5406 48.5203C42.669 48.0222 44.5946 48.2562 46.3176 49.6163C47.5338 48.9188 50.169 47.7233 53.7163 48.5203C56.1487 49.3174 57.4663 51.8081 58.6825 54C59.3919 55.3949 60.3041 57.0886 61.0136 57.0886L62.7365 57.1882L61.723 58.583C61.6217 58.6827 60.1014 60.7749 57.669 61.1735C56.1487 61.3727 54.7298 60.9742 53.2095 59.7786C51.5879 58.583 50.8784 57.4871 50.3717 56.6901C49.6622 55.4945 49.3582 54.9963 45.8109 54.9963C41.7568 54.9963 41.3514 56.1919 40.946 57.4871C40.7433 57.9853 40.5406 58.4834 40.2365 58.9816C39.4257 60.1771 37.6014 61.3727 35.473 61.4723C35.3717 61.6716 35.2703 61.7712 35.169 61.7712M33.2433 59.0812C33.9528 59.5794 34.6622 59.7786 35.473 59.7786C36.9933 59.679 38.2095 58.6827 38.6149 58.0849C38.8176 57.8856 38.919 57.4871 39.0203 57.0886C39.7298 55.096 40.7433 53.203 45.8109 53.203C50.0676 53.203 50.9798 54 52.0946 55.7934C52.6014 56.4908 53.1082 57.3875 54.4257 58.3838C55.4392 59.1808 56.3514 59.4797 57.2636 59.3801C57.973 59.2805 58.6825 58.8819 59.0879 58.4834C58.1757 57.6864 57.4663 56.3912 56.7568 54.9963C55.7433 53.1033 54.6284 51.0111 53.0068 50.4133C49.2568 49.6163 46.723 51.5093 46.723 51.6089L45.4055 51.5093C43.8852 50.0148 42.0609 50.1144 40.946 50.4133C39.1217 50.9115 37.3987 52.3063 36.8919 53.8008C36.0811 55.7934 34.7636 57.4871 33.2433 59.0812"/>
	<path fill="#351F21" d="M40.5405 42.1439C40.5405 43.1343 39.5423 43.9373 38.3108 43.9373C37.0794 43.9373 36.0811 43.1343 36.0811 42.1439C36.0811 41.1535 37.0794 40.3505 38.3108 40.3505C39.5423 40.3505 40.5405 41.1535 40.5405 42.1439"/>
	<path fill="#351F21" d="M55.1351 42.2435C55.1351 43.2339 54.1369 44.0369 52.9054 44.0369C51.674 44.0369 50.6757 43.2339 50.6757 42.2435C50.6757 41.2531 51.674 40.4501 52.9054 40.4501C54.1369 40.4501 55.1351 41.2531 55.1351 42.2435"/>
</svg>
