<?xml version="1.0" encoding="utf-8" ?>
<svg xmlns="http://www.w3.org/2000/svg" xmlns:xlink="http://www.w3.org/1999/xlink" width="96" height="116">
	<path fill="white" d="M94.1783 85.691C92.2847 77.8368 86.2055 73.5069 82.7174 72.2986C81.3222 71.8958 80.9235 71.5937 79.9269 71.191C77.4355 69.9826 69.5624 66.8611 66.5726 65.6528L63.3835 62.0278C64.7787 59.9132 65.8749 58 66.5726 55.1806C66.5726 54.5764 66.5726 54.5764 66.5726 54.2743C67.0709 54.0729 67.4695 53.7708 67.9678 53.3681C69.7617 51.5556 70.26 49.8437 70.4593 48.9375C70.6586 48.2326 70.9576 47.7292 71.1569 46.8229C72.0538 45.1111 72.5521 42.9965 72.8511 40.8819C72.8511 40.3785 72.8511 39.9757 72.8511 39.4722C74.047 38.2639 75.5419 36.6528 75.7412 34.2361C75.9406 30.0069 74.047 26.8854 72.8511 25.2743C72.3528 22.4549 70.7583 16.2118 67.7685 11.1771C64.5794 5.63889 59.2974 3.32292 56.7063 2.31597C56.507 2.11458 56.208 1.8125 56.0087 1.61111L54.8127 0.90625C53.6168 0.402778 52.7199 0.201389 51.9226 0.201389C51.823 0 49.1321 0 46.7403 0C44.3485 0 42.3553 0.90625 40.9601 2.11458C39.0665 2.81944 36.1764 4.22917 32.489 6.84722C26.0111 11.3785 23.8186 21.6493 23.3203 25.9792C21.9251 27.3889 20.4302 29.8056 20.4302 33.1285C20.6295 35.9479 21.6261 37.8611 22.5231 39.2708C22.5231 43.6007 24.4166 47.8299 25.0145 48.8368C25.5128 50.0451 27.1074 52.8646 29.3996 54.0729C29.8979 56.4896 30.7948 59.309 32.788 62.2292C32.788 62.4306 32.788 62.4306 32.788 62.7326L29.1006 65.8542C27.2071 67.0625 25.5128 67.7674 23.3203 68.4722C17.3408 70.3854 7.97276 73.4063 4.08604 80.6563C0.398638 87.3021 0.199319 107.441 0 111.267L0 116L4.78366 116L91.0888 116L95.6731 116L95.8725 111.469C96.5701 95.6597 94.1783 86.0937 94.1783 85.691"/>
	<path fill="#EAC83B" d="M68.936 26.2C68.936 26.2 67.536 18.2 64.136 12.7C60.636 7 54.336 5.6 54.336 5.6C54.336 5.6 53.436 4.4 52.936 3.9C52.536 3.7 52.036 3.7 52.036 3.7C52.036 3.7 49.436 3.5 46.736 3.5C44.136 3.5 44.136 5.2 44.136 5.2C44.136 5.2 41.536 5.2 35.536 9.7C28.936 14 28.036 27.3 28.036 27.3C28.036 27.3 25.436 29 24.936 31.7C25.236 34.5 27.336 36.2 27.336 36.2C27.836 35.7 29.236 33.1 29.236 33.1C29.236 33.1 37.536 29.5 47.436 29C59.336 29 66.536 34.1 66.536 34.1C66.436 35.9 66.436 36.4 66.436 36.4C66.436 36.4 70.936 35.7 71.5578 32.1C71.836 28.8 68.936 26.2 68.936 26.2"/>
	<path fill="#2D1B0A" d="M65.646 37.6L65.546 36.6C65.546 36.5 65.446 36 65.546 34.7C63.8456 33.6 57.244 30.1 47.5417 30.1C39.0396 30.5 31.6378 33.3 30.0374 34C29.5373 34.9 28.6371 36.6 28.137 37L26.8367 37C26.7366 36.9 24.3361 35 24.036 31.8C24.5361 29.2 26.3365 27.5 27.2368 26.8C27.4368 24.3 28.8372 13 35.1387 8.9C39.5397 5.6 42.2404 4.6 43.4407 4.3C43.8408 3.4 44.741 2.5 46.8415 2.5C49.4421 2.5 52.0427 2.7 52.1428 2.7C52.1428 2.7 52.8429 2.7 53.4431 3C54.0432 3.6 54.6434 4.3 54.9434 4.7C56.4438 5.1 61.7451 6.9 65.0459 12.2C68.1466 17.2 69.547 24.2 69.847 25.7C70.6472 26.5 72.7477 29 72.561 32.2C71.9475 36.6 66.8463 37.4 66.6463 37.4L65.646 37.6M47.4416 28C59.5445 28 66.8463 33.1 67.1464 33.3C67.6465 34.6 67.6465 34.9 67.5465 35.1C68.7468 34.7 70.3471 33.8 70.6472 32C70.8473 29.3 68.3467 27 68.3467 27C68.0466 26.4 66.6463 18.6 63.4455 13.3C60.1447 8.1 54.3433 6.7 54.2433 6.7C53.4431 6 52.8429 5.3 52.4428 4.8C52.3428 4.8 52.1428 4.8 52.1428 4.7C52.0427 4.7 49.4421 4.5 46.9415 4.5C45.7412 4.5 45.3411 4.9 45.3411 5.2L44.3409 6.2C44.3409 6.2 41.8403 6.4 36.339 10.5C30.2375 14.5 29.2372 27.2 29.2372 27.4C28.8372 28.2 26.6366 29.6 26.1365 31.8C26.3365 33.1 26.9367 34.1 27.4368 34.7C27.8369 34.1 28.237 33.4 28.6371 32.7C29.2372 32 37.5393 28.5 47.4416 28"/>
	<path fill="#FAD1B6" d="M30.1229 35.0418C30.1229 35.0418 27.6314 33.33 27.2328 36.4515C26.5352 39.5731 28.927 44.6077 29.1263 45.0106C29.3256 45.7155 30.8205 47.8299 31.6178 48.132C32.1161 48.3335 33.8103 48.132 33.8103 48.132C33.8103 48.132 33.611 53.1668 36.7004 57.6981C40.0889 62.4306 46.1681 64.646 47.6629 65.1757C49.3571 65.3509 52.945 64.4445 56.6323 60.6181C60.0208 56.9931 61.2167 55.5835 61.9143 52.462C62.4126 49.3405 62.612 48.837 62.612 48.837C62.612 48.837 63.5089 49.3405 65.1033 48.3335C66.0004 47.4272 65.801 45.9168 67.296 43.2988C68.6669 40.6806 69.1895 36.653 67.9936 36.1495C66.5983 35.646 65.5021 37.0556 65.5021 37.0556L63.8079 40.6806C63.8079 40.6806 63.8079 34.4376 63.3095 33.7328C62.8112 33.0279 62.4126 32.3231 62.612 31.6182C62.8112 30.9133 63.3095 28.4967 61.9143 27.2883C60.0208 26.5835 50.0548 25.1737 46.3675 25.3556C42.979 25.5765 38.0956 26.7849 36.5011 27.2883C34.8069 27.7918 34.6076 28.1946 34.3086 28.1946C34.3086 28.1946 35.7038 30.3092 34.5079 31.5175C33.8103 32.4238 33.1127 34.1356 33.1127 35.1425C33.1127 36.0488 32.9134 38.7674 32.6144 39.6738C32.3154 40.7813 30.1229 35.0418 30.1229 35.0418"/>
	<path fill="#2D1B0A" d="M48.0616 66.2571C47.8623 66.2571 47.663 66.2571 47.4637 66.2571C44.3742 65.2498 38.9926 62.8322 35.9032 58.3999C33.5113 54.8742 33.013 51.1471 32.9134 49.3339C32.3154 49.3339 31.7174 49.3339 31.4185 49.1324C30.3222 48.6288 28.7277 46.4126 28.4287 45.506C28.1297 44.8009 25.6382 39.7643 26.4355 36.3393C26.6348 35.1305 27.1331 34.2239 27.9304 33.9217C29.226 33.3173 30.6212 34.2239 30.8205 34.4254C31.4185 35.6342 31.7174 36.3393 32.0164 37.0445C32.1161 36.4401 32.1161 35.8357 32.1161 35.4327C32.1161 34.1232 33.013 32.2093 33.8103 31.2019C34.4083 30.5975 33.8103 29.3887 33.611 29.0865L32.5147 27.4748L34.2089 27.4748C34.6076 27.2733 35.1059 26.9711 36.3018 26.5682C37.697 26.1653 42.7797 24.8557 46.3674 24.6348C50.1545 24.4528 60.2201 25.8631 62.3129 26.6689C64.6051 28.5829 63.8078 31.6049 63.6085 32.2093C63.5088 32.5115 63.9075 33.0151 64.2065 33.4181C64.3061 33.6195 64.6051 34.0225 64.8044 36.7423C65.3027 36.0371 66.6979 34.9291 68.3922 35.4327C68.7908 35.6342 69.2891 35.9364 69.4884 36.7423C70.0864 38.354 69.4884 41.6782 68.1928 44.0958C67.4952 45.3046 67.1962 46.3119 66.9969 47.017C66.6979 47.9236 66.4986 48.7295 65.9007 49.3339C64.8044 50.039 64.0071 50.2405 63.4092 50.2405C63.3095 50.7442 63.1102 51.55 62.9109 52.8596C62.1136 56.2845 60.9177 57.6948 57.3299 61.5226C53.7422 64.9476 50.2541 66.2571 48.0616 66.2571M47.7626 64.1417C49.1579 64.2424 52.347 63.5373 55.8351 59.9109C59.1238 56.3852 60.2201 55.0757 60.9177 52.2552C61.416 49.4346 61.6153 48.6288 61.715 48.4273L62.1136 47.42C63.1102 47.9236 63.1102 47.9236 63.3095 47.9236C63.5088 47.9236 63.9075 47.8229 64.5054 47.5207C64.7048 47.2185 64.9041 46.8156 65.1034 46.1104C65.3027 45.3046 65.7013 44.1965 66.4986 42.7863C67.6945 40.5701 67.9935 37.6489 67.5949 37.0445C67.0966 36.9437 66.5983 37.4474 66.399 37.5481L62.8112 45.0024L62.8112 40.5701C62.8112 37.9511 62.7116 34.8283 62.4126 34.1232C62.0139 33.5188 61.2167 32.4107 61.6153 31.2019C61.6153 31.1012 62.2133 28.9858 61.3163 28.0792C59.0242 27.3741 49.7558 26.0645 46.3674 26.266C42.979 26.4675 38.0957 27.6763 36.7004 28.1799C36.2021 28.2807 35.9032 28.4821 35.6042 28.5829C36.0028 29.6909 36.2021 31.1012 35.2055 32.1085C34.6076 32.9144 34.0096 34.3247 34.0096 35.0298C34.0096 35.9364 33.8103 38.6562 33.5113 39.7643C33.4117 40.3687 33.013 40.6709 32.6144 40.6709C31.9168 40.7716 31.4185 40.8723 29.4253 35.6342C29.1263 35.5335 28.8273 35.4327 28.7277 35.5335C28.628 35.5335 28.4287 35.8357 28.329 36.5408C27.7311 39.0591 29.4253 43.0885 30.1229 44.4987C30.4219 45.2038 31.6178 46.9163 32.1161 47.2185C32.2158 47.2185 33.1127 47.2185 33.7106 47.1178L34.9066 47.017L34.9066 48.2258C34.9066 48.2258 34.8069 52.9603 37.5974 57.1911C40.1885 61.019 45.0718 63.2351 47.7626 64.1417"/>
	<path fill="#FAD1B6" d="M58.5132 58.2014L59.0115 65.8542C59.0115 65.8542 55.0252 72.5 52.0354 74.7153C49.4442 77.3333 47.75 78.0382 47.75 78.0382C47.75 78.0382 39.5779 72.0972 38.1827 67.7674C36.7875 63.7396 37.6844 58.4028 37.6844 58.4028C37.6844 58.4028 39.3786 60.8195 43.9629 63.1354C48.4476 65.5521 49.7432 64.0417 51.6367 63.6389C53.7296 63.2361 58.5132 58.2014 58.5132 58.2014"/>
	<path fill="#2D1B0A" d="M47.5377 79.2465C46.8401 78.743 38.668 72.8021 37.1731 68.1701C35.6782 63.9409 36.5751 58.5034 36.6748 58.3021L37.0734 55.8854L38.4687 57.7986C38.4687 57.7986 40.1629 60.0139 44.3486 62.2291C47.5377 63.9409 48.7336 63.5382 50.0292 63.0347C50.4278 62.934 50.8264 62.7326 51.3247 62.6319C52.6203 62.4305 55.9091 59.5104 57.8026 57.4965L59.3972 55.7847L60.0948 66.0555C59.6961 66.6597 55.8094 73.1041 52.72 75.4201C50.0292 78.1389 48.2353 78.8437 48.1356 78.9444M38.369 60.7187C38.2693 62.5312 38.2693 65.25 39.0666 67.4653C40.0632 70.5868 45.3452 75.0173 47.8367 76.9305C48.4346 76.5278 49.7302 75.7222 51.4244 74.1111C53.9159 72.1979 57.3043 66.9618 58.1016 65.6528L57.8026 60.5173C56.1084 62.1284 53.5173 64.3437 51.9227 64.6458C51.6237 64.7465 51.3247 64.8472 50.9261 64.9479C49.4312 65.4514 47.6373 66.1562 43.651 64.0416C41.0598 62.8333 39.4653 61.625 38.369 60.7187"/>
	<path fill="#454545" d="M33.3859 29.1007C33.3859 29.1007 30.7948 30.8125 30.2965 31.5173C30.0972 32.2222 30.0972 34.3368 30.0972 34.3368C30.0972 34.3368 32.8876 42.8958 33.3859 39.5729C34.0835 36.25 33.5852 34.3368 35.0801 32.625C36.4754 31.2153 35.0801 29 35.7777 28.0937C36.6747 27.5903 43.6509 25.4757 49.1321 25.6771C54.4141 25.6771 62.6859 26.3819 62.6859 28.7986C62.8851 30.9132 62.1876 32.8264 62.6859 33.1285C63.1842 33.3298 63.3835 33.6319 63.5827 36.25C63.7821 39.0694 63.7821 40.5798 63.7821 40.5798L65.4762 36.5521L66.3733 31.8194C66.3733 31.8194 66.174 30.9132 65.6757 29.4028C65.1774 27.691 64.7786 26.9861 64.7786 26.9861C64.7786 26.9861 60.7923 25.0729 58.9985 24.8715C57.3043 24.368 53.4174 24.1586 51.5239 24.6701C49.6305 24.8715 45.7437 24.1586 45.5443 24.1586C45.3451 24.1586 41.9566 23.9653 38.0699 25.5764C34.5818 27.1875 34.7812 26.684 33.3859 29.1007"/>
	<path fill="#BF7777" d="M44.0495 53.8715C44.0495 53.8715 44.2488 54.0729 44.0495 54.2743C44.0495 54.2743 44.6475 55.7859 48.7335 55.7859C48.7335 55.7859 52.5206 55.8854 53.3179 54.2743C53.3179 54.2743 53.2182 54.0729 53.2182 53.8715C53.1185 53.8715 49.0325 55.8854 44.0495 53.8715"/>
	<path fill="#F9F9F9" d="M92.4342 111.771C93.1317 96.2638 90.7399 87.302 90.7399 87.302C88.8463 79.5486 82.0695 76.9305 82.0695 76.9305C82.0695 76.9305 81.8702 76.9305 78.8804 75.7222C75.8906 74.5138 64.4297 69.8819 64.4297 69.8819C62.7355 68.1701 59.8455 66.2569 59.8455 66.2569C59.1479 71.3923 48.9826 77.8368 48.9826 77.8368C40.3122 75.7222 36.4254 66.2569 36.4254 66.2569C34.532 68.3715 32.5387 68.875 32.5387 68.875C32.5387 68.875 28.6521 71.2916 24.5659 72.7013C20.6792 74.4131 11.0123 77.0312 7.62385 83.0729C4.23543 89.1145 3.93645 111.569 3.93645 111.569L92.4342 111.771"/>
	<path fill="#2D1B0A" d="M93.381 112.778L2.9898 112.677L2.9898 111.67C2.9898 110.764 3.38844 88.8126 6.77686 82.6702C9.66699 77.4341 16.8425 74.7153 21.5265 72.9028C22.5231 72.5001 23.42 72.198 24.1176 71.8959C28.104 70.4862 31.8911 68.0695 31.8911 68.0695C32.19 67.9688 33.8843 67.4653 35.5785 65.6528L36.6747 64.4445L37.2727 65.9549C37.2727 66.0556 40.9601 74.7153 48.7335 76.8299C51.7233 74.9167 58.3008 69.7813 58.7991 66.1563L58.9985 64.4445L60.294 65.4514C60.3937 65.5521 63.0845 67.3646 64.8784 69.0764C66.3733 69.6806 76.4389 73.7084 79.1297 74.816C81.1229 75.6216 81.8205 75.9237 82.0198 75.9237C82.6178 76.1251 89.4943 78.9445 91.5871 87.1008C91.6868 87.4028 94.0786 96.3646 93.381 111.872M4.98299 110.663L91.3878 110.764C91.9858 96.1633 89.6936 87.7049 89.6936 87.6042C87.9994 80.757 82.2191 78.1389 81.7208 77.9376C81.3222 77.8369 80.5249 77.5348 78.5317 76.7292C75.6416 75.5209 64.1808 70.9896 64.0811 70.8889C62.7855 69.6806 61.3903 68.6737 60.4933 67.9688C58.5002 73.0035 50.5274 78.1389 49.5308 78.7431C41.558 77.0313 37.5717 70.6876 36.1764 67.9688C34.7812 69.1771 33.4856 69.6806 32.9873 69.882C32.2897 70.2848 28.702 72.5001 24.9149 73.8091C24.2173 74.1112 23.3203 74.4133 22.2241 74.9167C17.7394 76.6285 11.0622 79.2466 8.47107 83.7778C5.68061 88.6112 5.08265 106.233 4.98299 110.663"/>
	<path fill="#3F3F3F" d="M92.6833 112.073C93.3809 96.566 90.9891 87.6042 90.9891 87.6042C89.0956 79.8508 82.3187 77.2327 82.3187 77.2327C82.3187 77.2327 82.1194 77.2327 79.1296 76.0244C76.1398 74.8161 68.2667 71.2917 68.2667 71.2917L48.9328 104.219C45.1457 98.3785 24.9148 73.1042 24.9148 73.1042C24.9148 73.1042 11.3611 77.4341 7.9727 83.4757C4.58428 89.5174 4.2853 111.972 4.2853 111.972L92.6833 112.073"/>
	<path fill="#2D1B0A" d="M93.5803 113.08L3.1891 112.979L3.1891 111.972C3.1891 111.066 3.58774 89.1145 6.97616 82.9722C10.4642 76.7291 23.9183 72.2986 24.4166 72.0972L25.5128 72.3993C26.3101 73.4062 43.4516 94.8541 48.6338 102.305L67.6688 69.9826C68.5658 70.3854 76.4389 73.9097 79.329 75.118C81.3222 75.9236 82.0198 76.2257 82.2191 76.2257C82.8171 76.427 89.6936 79.2465 91.7864 87.4027C91.8861 87.7048 94.2779 96.6666 93.5803 112.174M5.28195 110.965L91.6868 111.066C92.2847 96.5659 89.9926 88.0069 89.9926 87.9062C88.2983 81.059 82.5181 78.4409 82.0198 78.2395C81.6212 78.1388 80.8239 77.8368 78.8307 77.0312C76.4389 76.0243 70.8579 73.5069 68.6654 72.6007L48.9328 106.132L48.0359 104.823C44.6475 99.5868 27.506 78.0382 24.5162 74.3125C21.8254 75.2187 11.5605 79.1458 8.77003 83.9791C5.97957 88.9132 5.38161 106.535 5.28195 110.965"/>
	<path fill="#FF6050" d="M50.3281 84.7847C50.7267 84.382 53.1185 81.3611 53.1185 80.1528C52.8195 78.7431 48.8332 76.2257 48.8332 76.2257C48.8332 76.2257 44.8468 78.5417 44.8468 80.1528C44.8468 81.8646 47.9362 85.0868 48.1355 85.0868L45.0461 90.9271L46.9396 102.406L51.4243 102.406L53.2182 90.9271L50.3281 84.7847"/>
	<path fill="#2D1B0A" d="M52.3212 103.514L46.1424 103.514L43.9498 90.8264L46.9396 85.3889C45.6441 84.0799 43.9498 81.5625 43.9498 80.2535C43.9498 78.1389 47.3383 76.0244 48.4345 75.4202C50.7267 76.2257 53.8161 78.441 54.1152 80.0521C54.1152 81.6632 52.4209 83.9792 51.524 85.0869L54.2147 90.9271L52.3212 103.514M47.8366 101.5L50.627 101.5L52.2216 91.1285L49.3315 85.0869L46.1424 91.1285L47.8366 101.5M48.5342 84.0799L49.6304 84.0799C50.1287 83.5764 51.9226 81.1598 52.1219 80.2535C51.8229 79.75 50.4277 78.441 48.8332 77.3334C47.2386 78.3403 45.943 79.5487 45.943 80.0521C45.8434 81.0591 47.7369 83.375 48.5342 84.0799"/>
	<path fill="#6B6B6B" d="M70.4592 80.1528L69.8611 72.2986L62.3867 68.7743L60.1943 80.2535L48.833 102.205L35.8773 80.4549L33.6848 68.9757L26.2103 72.3993L25.6124 80.3542L32.6882 80.7569L26.6089 87.5035L48.833 104.621L70.4592 86.6979L63.9813 80.5555"/>
	<path fill="#2D1B0A" d="M48.833 105.931L25.1141 87.6042L30.4957 81.6632L24.5161 81.3611L25.2137 71.7952L34.3824 67.566L36.7742 80.1528L48.833 100.191L59.2973 79.9514L61.6891 67.3646L70.8578 71.5938L71.5554 81.1597L66.3731 81.4618L71.954 86.7986L48.833 105.931M28.1038 87.3021L48.1354 102.809L34.9804 80.757L28.1038 87.3021M63.184 70.184L61.0911 80.757L49.8296 102.608L68.9643 86.6979L61.5894 79.75L69.3629 79.3472L68.8646 73.0035L63.184 70.184M26.7086 79.4479L34.781 79.8507L32.9872 70.3854L27.2069 73.1042L26.7086 79.4479"/>
	<path fill="#351F21" d="M58.2011 39.7743C58.2011 40.5529 57.2641 41.184 56.1083 41.184C54.9524 41.184 54.0154 40.5529 54.0154 39.7743C54.0154 38.9957 54.9524 38.3646 56.1083 38.3646C57.2641 38.3646 58.2011 38.9957 58.2011 39.7743"/>
	<path fill="#351F21" d="M44.0495 39.6736C44.0495 40.4522 43.1125 41.0833 41.9567 41.0833C40.8008 41.0833 39.8638 40.4522 39.8638 39.6736C39.8638 38.895 40.8008 38.2639 41.9567 38.2639C43.1125 38.2639 44.0495 38.895 44.0495 39.6736"/>
	<path fill="#351F21" d="M36.7744 35.8472C37.0734 35.0417 37.6713 34.8403 38.2693 34.8403C39.0666 34.8403 39.9635 34.8403 40.7608 34.8403C41.5581 34.8403 42.3553 34.8403 43.1526 35.1424C43.7506 35.4445 44.2489 35.8472 44.8468 36.3507"/>
	<path fill="#351F21" d="M60.9916 35.6458C60.6926 34.941 60.0947 34.8403 59.4967 34.8403C58.6994 34.8403 57.8025 34.7396 57.0052 34.7396C56.208 34.7396 55.4107 34.7396 54.6134 34.941C54.0154 35.1424 53.4175 35.5451 52.9192 35.8472"/>
	<path fill="#EAC83B" d="M49.831 22.4548L48.2364 22.4548C46.1436 22.4548 44.4494 20.743 44.4494 18.6284L44.4494 7.55204C44.4494 5.43746 46.1436 3.72565 48.2364 3.72565L49.831 3.72565C51.9238 3.72565 53.622 5.43746 53.622 7.55204L53.622 18.6284C53.7177 20.743 51.9238 22.4548 49.831 22.4548"/>
	<path fill="#2D1B0A" d="M49.8316 23.4618L48.2366 23.4618C45.545 23.4618 43.4516 21.2465 43.4516 18.6284L43.4516 7.55203C43.4516 4.83328 45.6447 2.7187 48.2366 2.7187L49.8316 2.7187C52.5231 2.7187 54.6198 4.93398 54.6198 7.55203L54.6198 18.6284C54.7162 21.2465 52.5231 23.4618 49.8316 23.4618M48.2366 4.63189C46.6416 4.63189 45.4453 5.94092 45.4453 7.45134L45.4453 18.5277C45.4453 20.1388 46.7413 21.3472 48.2366 21.3472L49.8316 21.3472C51.4265 21.3472 52.6228 20.0381 52.6228 18.5277L52.6228 7.45134C52.6228 5.84023 51.3269 4.63189 49.8316 4.63189L48.2366 4.63189"/>
</svg>
