<?xml version="1.0" encoding="utf-8" ?>
<svg xmlns="http://www.w3.org/2000/svg" xmlns:xlink="http://www.w3.org/1999/xlink" width="88" height="100">
	<path fill="white" d="M0 96.6034C0 94.4056 0.300982 75.025 3.71211 68.9311C6.82226 63.4366 13.8452 60.8392 18.4602 59.2408C18.4602 58.6414 18.5606 58.2418 18.5606 58.2418L18.7612 56.1439L29.5966 53.5465L29.9979 52.3477C27.7907 48.6513 26.6871 46.0539 26.0851 44.2557C24.5802 43.5564 23.1756 42.2577 22.5737 40.2597C22.4733 39.8601 22.1724 39.1608 21.771 38.5614C20.6674 36.3636 18.2596 31.1688 22.5737 28.7712C22.5737 27.0729 22.5737 24.5754 22.8746 21.978L22.8746 19.7802C22.8746 18.8811 25.1822 7.69231 32.6064 3.2967C35.8169 1.1988 39.83 0 44 0C48.8594 0 53.5748 1.4985 57.1866 4.3956C64.0089 9.89011 64.9118 18.5814 64.9118 18.8811L65.2128 22.0779C65.6141 25.0749 65.8148 27.6723 65.6141 29.6703C66.1157 30.2697 66.5171 31.0689 66.7177 31.968C66.818 35.2647 65.0121 40.5594 63.6076 42.3576C62.7046 43.5564 61.8017 44.3556 60.7984 44.7552C60.1964 46.6533 59.0928 49.4505 57.0863 52.1479L57.3873 53.2468L67.9216 57.1429L67.6207 58.9411C71.8344 60.2398 74.6436 61.1389 76.0482 61.8382C79.4593 63.5365 83.7734 65.6344 85.7799 73.8262C85.9806 74.7253 88.1878 82.7173 88 96.5035L87.8868 100L0 100L0 96.6034"/>
	<path fill="#303030" d="M84.784 97.0029C84.9721 82.8171 82.6649 74.925 82.6649 74.925C80.9596 68.0319 77.9501 66.4335 74.5394 64.7352C70.9281 63.0369 56.4829 59.0409 56.4829 59.0409C55.0785 57.6423 54.0754 55.0449 54.0754 55.0449C53.3731 59.7402 44.0438 65.7342 44.0438 65.7342C36.2194 63.6363 32.6081 55.0449 32.6081 55.0449C31.9058 56.943 31.9058 58.1418 31.9058 58.1418C31.9058 58.1418 25.4858 59.8401 21.6737 61.2387C18.0625 62.6373 9.33508 65.0349 6.22533 70.5294C3.11558 76.2237 2.91495 97.1028 2.91495 97.1028L84.784 97.0029"/>
	<path fill="#2D1B0A" d="M1.9059 98.1019C1.9059 96.2038 2.10656 75.9241 5.31705 70.03C8.22657 64.9351 15.2495 62.4376 19.5636 60.9391C20.2659 60.7393 20.7676 60.5395 21.2692 60.3397C24.3794 59.1409 29.1951 57.8422 30.9007 57.3427C31.001 56.7433 31.2017 55.8442 31.603 54.6454L32.5059 52.2478L33.5092 54.5455C33.5092 54.6454 36.9204 62.4376 43.8495 64.5355C46.5519 62.7373 52.5716 58.1419 53.0732 54.7453L53.6752 51.049L55.0798 54.5455C55.0798 54.5455 55.9827 56.7433 57.0863 58.042C59.0929 58.6414 71.6339 62.1379 75.045 63.7363C78.4562 65.4346 81.8673 67.1329 83.6732 74.6254C83.7736 74.9251 85.9808 82.8172 85.793 97.003L1.9059 98.1019M32.9073 57.8422C32.9073 58.042 32.9073 58.1419 32.9073 58.1419C32.1046 59.1409 25.784 60.8392 22.0718 62.2378C21.5702 62.4376 20.9682 62.6374 20.2659 62.8372C16.2528 64.2358 9.63116 66.6334 7.12296 71.029C4.51443 75.7243 4.01279 91.9081 3.91246 96.1039L83.7736 96.004C83.8739 82.8172 81.767 75.2248 81.6667 75.2248C80.0614 68.6314 77.2522 67.2328 74.0418 65.6344C70.5303 64.036 56.2837 60.04 56.1834 60.04C55.0798 59.1409 54.4778 58.3417 54.0765 57.5425C51.6686 61.8382 45.3479 66.034 44.445 66.5335C38.1243 65.2348 34.6128 60.6394 32.9073 57.8422"/>
	<path fill="#F24667" d="M55.4739 55.944L64.3016 59.2407C64.3016 59.2407 63.3988 64.9351 63.3988 72.7272C63.1982 80.5194 63.5993 96.7032 63.5993 96.7032L51.643 96.5034C51.643 96.5034 51.4613 74.2258 52.3641 65.4346C53.267 56.9431 55.4739 55.944 55.4739 55.944"/>
	<path fill="#2D1B0A" d="M64.595 97.7023L50.6323 97.5025C50.6323 95.6044 50.4507 74.026 51.3535 65.3347C52.2564 56.7433 54.5636 55.2448 55.0652 55.045L65.4978 58.5415C65.3975 59.4406 64.4947 65.035 64.4947 72.6274C64.2941 80.3197 64.6953 96.4036 64.6953 96.6034L64.595 97.7023M52.6576 95.5045L62.5887 95.7043C62.4884 92.008 62.2878 79.3207 62.3881 72.7273C62.3881 66.5335 62.99 61.7383 63.1906 59.9401L55.6671 57.1429C55.1655 57.8422 53.9617 59.8402 53.3598 65.6344C52.5573 73.1269 52.6576 91.1089 52.6576 95.5045"/>
	<path fill="#F24667" d="M21.367 58.5415C21.367 58.5415 20.6648 67.033 20.6648 74.4256C20.6648 81.8182 20.6648 96.7033 20.6648 96.7033L33.5051 96.7033C33.5051 96.7033 33.3044 89.6104 33.5051 80.8192C33.7057 72.028 33.3044 67.7323 32.8029 63.7363C32.1007 59.4406 31.0975 56.1439 31.0975 56.1439L21.367 58.5415"/>
	<path fill="#2D1B0A" d="M33.5051 97.7023L19.6616 97.7023L19.6616 74.4256C19.6616 67.033 20.3639 58.5415 20.3639 58.4416L31.7997 54.9451C32.1007 55.9441 33.1037 59.2408 33.806 63.5365C34.3075 67.5325 34.7089 71.7283 34.5081 80.8192C34.3075 89.5105 34.5081 96.6034 34.5081 96.7033L33.5051 97.7023M21.6679 95.7043L32.5019 95.7043C32.5019 93.4066 32.4016 87.6124 32.5019 80.8192C32.7025 71.9281 32.3013 67.7323 31.7997 63.8362C31.2981 61.039 30.6963 58.5415 30.3952 57.3427L22.2698 59.3407C22.0692 61.5385 21.6679 68.4316 21.6679 74.4256L21.6679 95.7043"/>
	<path fill="#303030" d="M53.7686 53.1347L55.173 56.7433C55.173 56.7433 55.6746 64.3357 51.5617 68.6314C47.2481 73.1269 45.3422 72.6439 45.3422 72.6439L45.5428 63.8362C45.5428 63.8362 46.245 63.6364 48.8532 61.039C51.662 58.1419 53.7686 52.8472 53.7686 53.1347"/>
	<path fill="#303030" d="M32.8029 52.842L31.3968 56.6433C31.3968 56.6433 31.1978 63.7362 35.2104 68.2317C39.223 72.7272 41.129 72.5288 41.129 72.5288L40.9284 63.7362C40.9284 63.7362 40.2262 63.5364 37.618 60.939C35.0098 58.3416 32.8029 52.6473 32.8029 52.842"/>
	<path fill="#EAC3AA" d="M33.3043 51.3485C33.3043 51.3485 33.3043 52.6472 32.7977 53.5463C32.7977 53.5463 32.3012 67.7321 41.3295 67.7321C41.3295 67.7321 45.8437 68.4314 46.5458 67.7321C48.9533 65.3345 52.2637 59.2407 53.4683 53.0468C53.4683 53.0468 53.4683 52.1478 53.4683 51.3485C53.5678 51.3485 44.2386 60.2397 33.3043 51.3485"/>
	<path fill="#2D1B0A" d="M44.7382 69.0308C43.8352 69.0308 42.6311 68.9309 41.3268 68.7311C39.1194 68.7311 37.2131 67.9319 35.708 66.3335C31.5943 62.1377 31.8904 53.846 31.8904 53.4464C32.2966 52.5473 32.397 51.6482 32.397 51.4484L32.397 49.3505L34.0023 50.6492C43.3335 58.1417 51.1596 52.0478 52.5643 50.9489L52.5643 48.9509L54.9723 51.3485L54.571 53.2466C53.2666 59.7401 49.9556 65.9339 47.3469 68.4314C46.8452 68.831 45.9422 69.0308 44.7382 69.0308M33.8017 53.7461C33.8017 55.0448 33.902 61.6382 37.0124 64.9349C38.1161 66.1337 39.5208 66.7331 41.3268 66.7331C43.4314 67.0328 45.4405 67.1327 45.9422 66.9329C48.2499 64.6352 51.1596 59.0408 52.3636 53.4464C49.1529 55.5443 42.1295 58.841 34.0023 53.1467C33.902 53.4464 33.902 53.6462 33.8017 53.7461"/>
	<path fill="#E8F0F4" d="M25.3732 30.8691C25.3732 30.8691 24.739 18.5814 27.8487 12.8871C30.9585 7.3926 34.4695 3.3966 43.9993 3.3966C53.3286 3.3966 57.8427 8.89111 59.4478 13.0869C60.8522 17.3826 63.2597 26.1738 62.056 30.6693C60.8522 35.1648 59.2471 40.3596 56.8396 39.4605C54.4321 38.5614 56.338 27.1728 54.733 24.0759C53.3286 21.2787 49.0151 20.2797 45.7047 21.4798C42.3943 22.6773 33.5666 23.3766 32.1622 24.2757C30.7578 25.1748 29.5541 26.6733 29.7547 29.7702C29.9553 32.5674 30.6575 38.5614 28.8519 38.0619C26.8456 37.4625 25.3732 32.4675 25.3732 30.8691"/>
	<path fill="#2D1B0A" d="M57.3739 40.5595C57.0727 40.5595 56.7714 40.4596 56.4702 40.3597C54.5624 39.6604 54.4619 36.5635 54.4619 31.5685C54.4619 28.8712 54.4619 25.6744 53.8595 24.5755C52.7549 22.3777 49.0396 21.3787 46.0272 22.4776C44.3202 23.077 41.2074 23.5765 38.2954 24.076C36.0863 24.3757 33.1743 24.8752 32.6722 25.1749C31.6681 25.7743 30.5635 26.8732 30.7644 29.7703C31.2664 35.4646 31.2664 37.8622 30.0615 38.7613C29.6598 39.061 29.1577 39.1609 28.5553 39.061C25.7437 38.1619 24.3914 32.3677 24.3914 30.9691C24.3914 30.1699 23.8358 18.2818 26.9487 12.4876C29.8606 7.3927 33.4755 2.4976 44.0189 2.4976C55.5665 2.4976 59.4826 10.3897 60.3863 12.7873C61.3905 15.7843 64.4029 25.7743 62.9971 30.9691C61.6917 35.9641 60.3863 39.3607 58.4785 40.3597C58.1772 40.4596 57.7756 40.5595 57.3739 40.5595M48.638 19.9801C51.4495 19.9801 54.3615 21.1789 55.6669 23.5765C56.4702 25.1749 56.4702 28.2718 56.5706 31.4686C56.5706 33.7663 56.5706 37.9621 57.2735 38.4616C57.3739 38.4616 57.5748 38.4616 57.6752 38.4616C59.1814 37.6624 60.5872 32.3677 61.1896 30.3697C62.1938 26.6734 60.4867 19.1809 58.5789 13.3867C57.7756 11.2888 54.3615 4.3957 44.0189 4.3957C34.5801 4.3957 31.4673 8.49161 28.7561 13.3867C25.8441 18.7813 26.4466 30.6694 26.4466 30.8692C26.4466 32.4676 27.6516 36.2638 28.8565 37.063C29.2582 35.9641 28.9569 32.3677 28.8565 30.9691C28.5553 26.9731 29.459 24.8752 31.6681 23.5765C32.4714 23.077 34.5801 22.6774 38.0945 22.1779C40.8057 21.7783 43.8181 21.2788 45.4247 20.6794C46.4289 20.1799 47.5334 19.9801 48.638 19.9801"/>
	<path fill="#FAD1B6" d="M44.0499 57.6423C44.0499 57.6423 38.1314 56.4435 33.6172 51.4485C29.1031 46.4535 28.4009 41.7582 28.4009 41.7582C28.4009 41.7582 25.9933 41.7582 25.2911 39.3606C24.5889 36.963 21.2786 32.4675 24.0874 31.0689C24.0874 31.0689 25.9933 30.3696 26.6955 31.7682C27.3977 33.1668 27.8993 36.2637 28.0999 36.4635C28.3006 36.963 29.3037 35.964 29.0028 29.3706C29.0028 29.3706 27.799 24.6753 32.1125 22.977C36.6267 21.2787 42.5452 21.5784 44.2506 20.1798C46.1565 18.7812 52.7773 20.8791 54.282 19.4805C54.282 19.4805 56.6896 20.8791 57.0908 24.975C57.5924 28.971 57.5924 36.3636 58.4952 37.0629C59.398 37.5624 59.1974 33.4665 59.8996 31.8681C60.6018 30.4695 63.0094 29.97 63.5109 32.3676C63.5109 34.7652 61.605 39.7602 60.9028 40.4595C60.2006 41.3586 58.7962 42.8571 58.094 41.8581C58.094 41.8581 57.3918 47.3526 53.0782 52.0479C49.0657 56.6433 45.4543 57.3426 44.0499 57.6423"/>
	<path fill="#2D1B0A" d="M44.1383 58.6413C43.5364 58.5414 37.5176 57.3426 32.9031 52.1478C29.2918 48.1518 27.9877 44.2557 27.5864 42.6573C26.3827 42.3576 24.878 41.5584 24.3764 39.6603C24.1758 39.1608 23.8748 38.3616 23.4736 37.6623C22.3701 35.2647 20.6647 31.6683 23.6742 30.2697C24.6773 29.97 26.7839 29.7702 27.5864 31.4685C27.7871 31.7682 27.8874 32.1678 28.088 32.6673C28.088 31.8681 28.088 30.8691 28.088 29.6703C27.5864 27.6723 27.7871 23.7762 31.7997 22.1778C34.1069 21.2787 36.7151 20.979 39.0223 20.5794C41.0286 20.2797 43.0349 19.98 43.6368 19.4805C44.9408 18.4815 47.1478 18.6813 49.5553 18.8811C50.9597 18.981 53.1666 19.1808 53.6682 18.7812L54.7717 18.6813C54.872 18.7812 57.5805 20.3796 58.082 24.975C58.2827 26.3736 58.383 28.2717 58.4833 30.0699C58.4833 30.8691 58.5836 31.7682 58.6839 32.5674C58.7842 32.1678 58.8846 31.8681 58.9849 31.5684C59.5868 30.3696 60.8909 29.6703 62.0946 29.7702C63.2984 29.97 64.2012 30.8691 64.5022 32.1678C64.5022 34.8651 62.5962 40.0599 61.6934 41.0589C60.6902 42.3576 59.6871 43.0569 58.8846 43.1568C58.383 45.1548 57.1792 49.1508 53.8688 52.7472C49.7559 57.5424 45.8437 58.3416 44.339 58.6413M24.4767 31.968C23.5739 32.4675 23.9751 33.966 25.2792 36.7632C25.6805 37.5624 26.0817 38.3616 26.2824 39.0609C26.7839 40.6593 28.2886 40.7592 28.4893 40.7592C29.3921 41.5584 30.0943 46.0539 34.4078 50.7492C38.2198 54.945 43.1352 56.3436 44.1383 56.5434C45.6431 56.2437 48.7528 55.4445 52.3641 51.3486C56.477 46.953 57.1792 41.7582 57.1792 41.6583L57.4802 39.0609L58.8846 41.0589C59.1855 40.959 59.5868 40.5594 60.1887 39.7602C60.7905 39.0609 62.5962 34.5654 62.5962 32.3676C62.4959 31.8681 62.2953 31.6683 61.9943 31.5684C61.5931 31.4685 61.0915 31.7682 60.8909 32.1678C60.6902 32.6673 60.5899 33.7662 60.3893 34.6653C60.1887 36.3636 60.0883 37.4625 59.2858 37.8621C58.8846 38.0619 58.4833 38.0619 58.082 37.8621C57.0789 37.0629 56.8783 35.1648 56.5773 29.97C56.477 28.1718 56.3767 26.3736 56.1761 24.975C55.9754 22.4775 54.872 21.0789 54.2701 20.5794C53.0663 21.0789 51.361 20.8791 49.455 20.6793C47.85 20.5794 45.5427 20.3796 44.9408 20.8791C43.9377 21.7782 41.9314 21.978 39.3232 22.3776C37.1163 22.6773 34.6085 22.977 32.5019 23.7762C29.0912 25.0749 29.994 28.8711 29.994 28.971C30.3953 36.963 28.9909 37.2627 28.4893 37.3626C27.9877 37.4625 27.4861 37.2627 27.2855 36.7632C27.0849 36.4635 26.9846 36.0639 26.7839 35.1648C26.5833 34.1658 26.182 32.7672 25.7808 31.968C25.4798 31.6683 24.6773 31.8681 24.4767 31.968"/>
	<path fill="#FFF6E9" d="M39.9251 45.7542L43.9377 46.4536L47.9502 45.7542C49.154 45.7542 49.8563 46.953 50.3578 48.8512L51.0601 54.046C50.3578 54.5455 48.4519 55.944 47.7496 56.4436C44.9408 58.1418 42.5333 57.8421 39.9251 56.2438C39.0223 55.5445 37.5176 55.045 36.6147 54.1459L37.317 48.951C37.8185 46.953 38.5207 45.7542 39.9251 45.7542M40.4267 48.1518C39.7245 48.1518 39.2229 48.6513 39.2229 49.5504L39.7245 53.1469C39.7245 53.6464 39.7245 53.8462 40.4267 54.046L45.1415 51.9481L47.549 54.046C48.2513 53.8462 48.0507 53.3467 48.2513 52.8472L48.7528 49.7502C48.7528 48.3517 48.2513 48.0519 47.549 48.0519L43.9377 48.7513L40.4267 48.1518"/>
	<path fill="#303030" d="M25.6806 19.4805L61.6935 18.7813C61.6935 18.7813 60.9913 10.989 55.1731 6.19383C49.1542 1.49852 40.1259 1.19882 34.0067 5.29473C27.7872 8.99103 25.6806 18.981 25.6806 19.4805"/>
	<path fill="#2D1B0A" d="M25.179 19.9801C25.179 18.7813 27.4862 8.59144 33.7057 4.89513C39.9252 0.69933 49.2545 1.09893 55.3737 5.79424C61.2922 10.6893 62.0947 18.3817 62.0947 18.7813L25.179 19.9801M43.7372 2.89713C40.3265 2.89713 37.0161 3.79623 34.2073 5.69434C29.0913 8.79124 26.6837 16.6833 26.1821 18.9811L60.9913 18.2817C60.6903 16.4835 59.3862 10.4895 54.6715 6.59344C51.662 4.09593 47.6494 2.89713 43.7372 2.89713"/>
	<path fill="#AC7300" d="M32.256 61.6007C32.256 61.6007 32.5019 65.934 34.4079 71.1288C36.3139 76.6233 38.4205 82.7172 39.6243 84.6153C40.5271 86.5134 43.9378 90.8092 46.7466 81.5184C49.8563 72.2277 51.4614 64.4355 51.4614 64.4355C52.1636 63.2367 48.151 78.4215 46.9472 81.5184C45.7434 84.8151 44.339 88.6113 41.4299 87.2127C38.6211 85.8141 33.806 70.6293 33.1038 68.2317C32.6022 65.7342 32.1007 61.1388 32.256 61.6007"/>
	<path fill="#303030" d="M45.944 35.0664C45.944 32.2677 48.3516 29.8701 51.1604 29.8701C53.9692 29.8701 56.3767 32.2677 56.3767 35.0664C56.3767 37.8621 53.9692 40.2627 51.1604 40.2627C48.2513 40.3596 45.944 37.962 45.944 35.0664M51.1604 39.8601C53.7686 39.8601 55.8752 37.7622 55.8752 35.1648C55.8752 32.5674 53.7686 30.4695 51.1604 30.4695C48.5522 30.4695 46.4456 32.5674 46.4456 35.1648C46.4456 37.7622 48.5522 39.8601 51.1604 39.8601M40.2261 34.3656L46.1447 34.3656L40.2261 34.3656M29.994 35.0664C29.994 32.2677 32.1006 29.8701 35.2104 29.8701C38.0192 29.8701 40.2261 32.2677 40.2261 35.0664C40.2261 37.8621 38.1195 40.2627 35.2104 40.2627C32.1006 40.3596 29.994 37.962 29.994 35.0664M35.2104 39.8601C37.8186 39.8601 39.7245 37.7622 39.7245 35.1648C39.7245 32.5674 37.8186 30.4695 35.2104 30.4695C32.4016 30.4695 30.4956 32.5674 30.4956 35.1648C30.4956 37.7622 32.3013 39.8601 35.2104 39.8601M56.3767 34.1658L60.1887 31.5684L56.3767 34.1658M29.994 34.1658L26.3827 31.5684L29.994 34.1658"/>
	<path fill="#AC7300" d="M42.3327 94.8052L42.3327 91.7083L39.0223 91.7083L42.3327 90.3097L42.3327 87.2128L43.7371 90.3097L47.0475 90.3097L43.7371 91.7083L42.3327 94.8052"/>
</svg>
