<?xml version="1.0" encoding="utf-8" ?>
<svg xmlns="http://www.w3.org/2000/svg" xmlns:xlink="http://www.w3.org/1999/xlink" width="94" height="100">
	<path fill="white" d="M0 99.5951L0.199153 96.3563C0.398305 93.1174 2.88771 64.9798 15.8326 61.336C16.5297 61.1336 17.3263 60.9312 18.2225 60.7287C19.7161 60.3239 23.0021 59.5142 26.5869 58.9069C29.2754 58.4008 31.8644 57.996 33.8559 57.7935C34.1547 56.7814 34.3538 55.0607 34.3538 53.3401C31.4661 49.7976 30.1716 46.3563 29.5742 44.2308C28.0805 43.6235 26.6864 42.5101 26.089 40.3846C25.8898 39.9798 25.6907 39.3725 25.3919 38.7652C24.3962 36.7409 22.3051 32.3887 24.5953 29.5547C24.2966 28.7449 23.9979 27.834 23.9979 26.7206C24.0975 25.2024 24.2966 24.5951 24.4958 24.0891C24.4958 24.0891 24.4958 23.9879 24.4958 23.9879C24.2966 22.8745 23.8983 20.8502 24.6949 18.5223C25.1928 17.4089 25.4915 16.9028 25.7903 16.3968C25.7903 15.2834 25.9894 13.7652 27.2839 12.1457C27.9809 11.336 28.2797 10.9312 28.4788 10.7287C28.7775 9.31174 29.6737 7.18623 31.5657 6.2753C32.661 3.94737 35.0508 2.42915 37.3411 2.42915C37.5403 2.42915 37.7394 2.42915 37.9386 2.42915C38.6356 1.82186 39.7309 1.01215 41.2246 1.01215C41.5233 1.01215 41.822 1.01215 42.1208 1.11336C42.8178 1.21457 43.5148 1.31579 44.0127 1.417C44.9089 0.910931 46.1038 0.303644 47.5975 0.101215C47.8962 0.101215 48.1949 0 48.5932 0C50.7839 0 52.2775 0.910931 53.4725 1.61943C53.7712 1.72065 54.2691 1.72065 54.5678 1.82186C56.161 2.02429 58.4513 2.32794 59.8453 4.45344C59.9449 4.55466 60.1441 4.75709 60.3432 4.8583C61.1398 5.36437 62.6335 6.47773 63.1314 8.90688C63.2309 9.0081 63.3305 9.0081 63.4301 9.10931C64.3263 9.61538 65.9195 10.6275 66.4174 13.3603C66.4174 13.5628 66.5169 14.2713 66.5169 14.5749C67.6123 15.4858 68.8072 17.1053 68.6081 19.1296C68.6081 19.9393 68.7076 20.6478 68.7076 21.1538C69.3051 22.2672 69.7034 23.6842 69.3051 25.4049C69.1059 26.6194 68.8072 27.3279 68.5085 27.834C69.4047 28.8462 70.1017 29.8583 70.4004 31.1741C70.5 35.2227 68.2097 40.7895 67.214 42.2065C66.2182 43.5223 65.322 44.332 64.3263 44.7368C63.7288 47.0648 62.4343 50.5061 59.7458 53.8462C60.1441 55.1619 60.9407 57.1862 61.339 57.8947C61.339 57.8947 61.339 57.8947 61.4386 57.996C63.2309 58.1984 65.322 58.502 67.214 58.8057C70.8983 59.413 75.3792 60.5263 75.7775 60.6275C76.5742 60.6275 77.7691 60.83 79.2627 61.5385C80.0593 61.9433 80.6568 62.247 81.3538 62.6518C84.6398 64.7773 86.8305 68.6235 87.1292 69.1296L87.8263 70.3441C92.4068 81.1741 93.7013 96.0526 93.7013 96.7611L94 100L0 100"/>
	<path fill="#E2BEAA" d="M36.6939 47.0647C36.6939 47.0647 37.4905 49.7975 37.3909 52.5303C37.3909 55.2631 37.3909 58.7044 38.4862 59.8177C39.2828 60.7287 44.66 70.5465 47.1494 70.5465C49.7383 70.5465 52.0285 63.5627 53.124 62.5505C53.9206 61.6396 56.6092 57.0849 56.6092 56.7813C56.41 56.2752 56.41 53.0364 56.6092 51.8218C56.8083 50.3036 57.4058 47.0647 57.4058 47.0647C57.4058 47.0647 54.8167 55.7691 47.946 56.3764C41.1748 56.8825 36.6939 47.0647 36.6939 47.0647"/>
	<path fill="#2D1B0A" d="M47.1494 71.5587C45.0583 71.5587 42.5689 68.1174 38.8845 62.2469C38.3867 61.4372 37.8888 60.6275 37.6896 60.4251C36.3951 59.2105 36.2956 56.2753 36.2956 52.5303C36.4947 49.8988 35.6981 47.3684 35.6981 47.3684L37.59 46.6599C37.59 46.7611 41.8718 55.8704 47.8464 55.3643C54.0201 54.8583 56.41 46.8623 56.41 46.7611L58.3019 47.2672C58.3019 47.2672 57.7045 50.5061 57.5053 51.9231C57.3062 53.0364 57.3062 55.9716 57.5053 56.4777C57.6049 57.6923 54.2193 62.753 53.821 63.2591C53.5223 63.5627 52.9248 64.6761 52.5265 65.4858C51.232 68.2186 49.5392 71.5587 47.1494 71.5587M38.3867 51.7206C38.3867 52.0243 38.3867 52.3279 38.3867 52.6316C38.3867 54.5546 38.3867 58.2996 39.1833 59.1093C39.482 59.4129 39.8803 60.0202 40.5773 61.2348C43.9629 66.8016 46.2532 69.5344 47.1494 69.5344C48.3443 69.5344 50.0371 66.0931 50.8337 64.4737C51.5307 63.0567 52.0286 62.2469 52.4269 61.7409C53.0244 61.0324 55.1155 57.5911 55.6134 56.5789C55.5138 55.668 55.5138 54.0486 55.5138 52.834C53.821 54.9595 51.4312 56.9838 48.0456 57.2874C43.8633 57.6923 40.4778 54.5546 38.3867 51.7206"/>
	<path fill="#FAD1B6" d="M47.6894 57.5911C47.6894 57.5911 41.8144 56.3765 37.1343 51.417C32.6534 46.1538 32.2551 41.1943 32.2551 41.1943C32.2551 41.1943 29.7657 41.3967 29.0686 38.9676C28.1725 36.4372 24.8864 31.9838 27.8737 30.4656C27.8737 30.4656 29.8652 29.7571 30.3631 31.1741C31.0602 32.6923 31.8568 35.7287 32.1555 36.1336C32.1555 36.336 33.0517 35.4251 32.8525 28.8461C32.8525 28.8461 31.6576 19.0283 34.6449 16.5992C37.8314 13.8664 41.5156 12.0445 48.9838 12.0445C56.6513 12.2469 58.8419 14.5749 59.7382 15.7894C60.933 17.004 63.4225 19.5344 62.9245 23.0769C62.4267 26.5182 61.7296 35.6275 62.4267 36.336C63.3228 36.8421 63.1237 32.5911 63.9203 31.0728C64.6174 29.5546 67.1068 29.0485 67.6046 31.2753C67.6046 33.8056 65.6132 38.7651 64.916 39.7773C64.2191 40.6882 62.9245 42.004 62.0284 40.9919C62.0284 40.9919 61.5306 46.4575 57.3483 51.5182C53.0666 56.7813 49.0835 57.3886 47.6894 57.5911"/>
	<path fill="#2D1B0A" d="M47.5899 58.6032C47.092 58.502 41.1174 57.1862 36.3377 52.1255C32.753 47.8745 31.6577 43.9271 31.3589 42.2065C30.164 42.004 28.6704 41.2955 28.0729 39.3725C27.8738 38.9676 27.575 38.2591 27.2763 37.6518C26.0814 35.1215 24.1894 31.3765 27.2763 29.6559C27.4755 29.4534 28.8695 29.0486 29.9649 29.5547C30.4627 29.8583 30.861 30.2632 31.1598 30.8704C31.3589 31.2753 31.5581 31.7814 31.7572 32.2874C31.7572 31.3765 31.7572 30.3644 31.7572 28.9474C31.6577 27.9352 30.5623 18.6235 33.8483 15.8907C37.2339 13.0567 41.0178 11.1336 48.7848 11.1336C56.4521 11.336 59.0411 13.5627 60.3356 15.2834C61.7297 16.7004 64.4182 19.4332 63.8208 23.3806C63.5221 25.3036 63.3229 27.9352 63.1238 30.3644C63.8208 29.4534 65.0157 28.8462 66.111 28.9474C67.306 29.0486 68.1026 29.9595 68.4013 31.1741C68.4013 34.1093 66.3102 39.2713 65.5136 40.4858C64.5178 41.8016 63.5221 42.4089 62.6259 42.5101C62.6259 42.5101 62.5263 42.5101 62.5263 42.5101C62.128 44.5344 60.9331 48.4818 57.8462 52.3279C53.3653 57.7935 49.0835 58.4008 47.6894 58.6032M33.1513 40.081L33.2509 41.0931C33.2509 41.0931 33.7488 45.8502 37.931 50.7085C41.914 54.8583 46.8928 56.2753 47.789 56.5789C49.1831 56.3765 52.7678 55.668 56.5517 51.0121C60.4352 46.2551 61.0327 41.0931 61.0327 40.9919L61.2318 38.8664L62.7255 40.3846C62.825 40.3846 63.3229 40.2834 64.1195 39.17C64.717 38.3603 66.5094 33.7045 66.6089 31.3765C66.4098 30.8704 66.111 30.7692 66.0115 30.7692C65.5136 30.668 65.0157 31.0729 64.717 31.4777C64.5178 31.9838 64.3187 33.0972 64.2191 34.0081C64.0199 35.7287 63.9204 36.8421 63.0242 37.247C62.6259 37.4494 62.2276 37.4494 61.8293 37.247C60.1365 35.5263 61.8293 22.9757 61.8293 22.8745C62.2276 19.9393 60.0369 17.7126 58.9416 16.498C58.2445 15.587 56.4521 13.2591 48.7848 13.0567C41.6153 13.0567 38.2297 14.6761 35.1428 17.3077C33.2509 18.8259 33.2509 25.1012 33.7488 28.6437C33.8483 32.085 33.7488 36.2348 32.5538 36.9433L31.0602 36.6397C30.9606 36.0324 30.7615 35.5263 30.4627 34.6154C30.164 33.6032 29.7657 32.2874 29.3674 31.5789C29.3674 31.3765 29.2678 31.2753 29.2678 31.2753C28.9691 31.1741 28.5708 31.2753 28.2721 31.2753C27.1767 31.9838 27.6746 33.6032 29.1683 36.5385C29.5666 37.247 29.8653 37.9555 30.0644 38.5627C30.5623 40.2834 32.1555 40.081 32.2551 40.081"/>
	<path fill="#303030" d="M3.28605 96.2551C3.28605 96.2551 5.47673 67.1053 16.7288 63.8664C21.7076 62.4494 33.2585 60.6276 36.2458 60.2227C36.8433 62.0446 47.2987 95.9515 47.2987 95.9515C53.3729 81.3766 57.1568 60.0203 57.7542 60.0203C61.4385 60.6276 72.9894 62.4494 77.2712 63.8664C88.3242 66.9029 90.7141 96.2551 90.7141 96.2551L3.28605 96.2551"/>
	<path fill="#2D1B0A" d="M91.2617 96.7612L2.7384 96.7612C2.83798 95.0405 5.12823 66.7004 16.5795 63.4616C21.4587 62.0446 32.6113 60.3239 36.0965 59.8178C37.0922 61.7409 45.5562 88.8664 47.3486 94.7369C51.0329 85.2227 53.821 73.1782 55.5138 65.8907C57.0075 59.5142 57.0075 59.5142 57.6049 59.5142L58.999 59.7166C63.6791 60.4251 73.4376 62.0446 77.321 63.3603C88.5731 66.498 91.0626 94.9393 91.1621 96.1539M48.1452 95.749L90.1664 95.749C89.7681 91.7004 86.8803 67.1053 77.1219 64.3725C73.338 63.0567 63.5795 61.5385 58.999 60.7288C57.8041 61.3361 57.3062 63.664 56.7087 66.1944C54.8168 73.6842 51.9291 86.0324 48.1452 95.749M3.73416 95.749L46.6515 95.749C45.5562 92.1053 37.0922 64.7774 35.7977 60.83C31.9142 61.4373 21.4587 63.0567 16.7787 64.3725C6.82103 67.3077 4.13247 91.8016 3.73416 95.749"/>
	<path fill="#C28253" d="M32.3623 37.3573C32.3623 37.3573 32.5614 33.6033 33.0593 31.8827C33.7563 30.0608 34.8517 21.66 34.8517 21.66C34.8517 21.66 34.3538 18.7248 33.9555 21.1539C33.2584 23.3806 32.4618 27.7329 31.7648 27.7329C31.0678 27.9353 29.2754 27.9353 29.0762 28.6438C28.8387 29.1499 28.5784 29.8584 29.2754 30.4657C29.9724 31.0729 31.2669 32.6924 31.2669 33.7045C31.2669 34.3118 32.3623 37.5507 32.3623 37.3573"/>
	<path fill="#C28253" d="M60.1441 21.5587C60.1441 21.5587 61.6377 34.1093 61.9364 35.0202C61.9364 36.2348 61.9364 37.9555 62.4343 37.247C62.9322 36.336 63.6292 33.502 63.928 32.4899C64.4258 31.5789 64.8241 30.2631 64.8241 29.5547C64.8241 29.0486 64.625 29.0486 63.928 27.7328C63.4301 26.5182 63.4301 25 63.0318 24.2915C62.5339 23.583 61.5381 22.2672 61.8369 22.2672L60.1441 21.5587"/>
	<path fill="#F2F2F2" d="M28.3517 29.5545C28.3517 29.5545 26.8581 28.3399 26.8581 26.3156C27.0573 24.4937 27.356 24.4937 27.356 23.7852C27.356 23.0767 26.6589 21.2549 27.356 19.0282C28.2522 17.0039 28.2522 17.5099 28.5509 17.2063C28.75 16.7002 28.053 15.182 29.2479 13.765C30.4428 12.2468 31.0403 11.5383 31.0403 11.2346C31.0403 11.0322 31.5382 8.70427 33.0318 8.50184C34.2267 8.29941 33.231 8.70427 33.928 7.28726C34.625 5.76904 36.4174 4.7569 37.9111 5.26297C39.106 5.76904 39.7034 3.44111 41.2967 3.74475C42.9895 4.04839 44.4831 4.25082 44.4831 4.25082C44.4831 4.25082 45.9767 3.03625 47.6695 2.6975C49.4619 2.53018 50.5573 3.23868 51.8517 3.94718C53.0467 4.65568 56.0339 4.14961 57.0297 5.76904C57.9259 7.28726 59.5191 6.98362 59.9174 9.21034C60.6145 11.7407 62.606 10.7286 63.1039 13.4614C63.303 15.9917 63.303 15.6881 63.303 15.6881C63.303 15.6881 65.4937 16.9026 65.2945 18.4209C65.2945 20.2427 65.4937 21.6597 65.4937 21.6597C65.4937 21.6597 66.3899 22.5707 65.9916 24.1901C65.7924 25.7083 65.4937 25.7083 65.2945 26.4168C64.7967 27.3277 64.7967 28.4411 64.3984 29.8581C63.9005 31.68 63.2034 33.9067 63.2034 33.9067C63.2034 33.9067 63.4026 29.6557 62.0085 28.4411C60.2162 27.5302 59.8178 22.9755 59.8178 22.9755C59.8178 22.9755 58.3242 20.7488 54.9386 20.4452C51.7522 19.9391 48.4662 19.5342 43.8856 19.9391C39.4047 20.4452 35.82 20.85 35.3221 21.1537C34.8242 21.6597 34.4259 22.6719 33.8284 25.4047C33.3306 27.935 33.8284 28.3399 32.6335 29.1496C31.1399 29.8581 31.4386 34.9188 31.4386 34.9188L28.3517 29.5545"/>
	<path fill="#2D1B0A" d="M61.9366 41.2954L62.3349 33.9024C62.4345 32.4846 62.1358 30.054 61.5383 29.2438C59.6464 28.1298 59.1485 24.5852 58.9493 23.3699C58.551 22.8636 57.3561 21.6325 54.9663 21.4457C51.7798 20.9393 48.5934 20.5343 44.0129 20.9393C40.5277 21.3444 36.8434 21.7495 35.9472 22.0534C35.5489 22.5597 35.2502 23.6737 34.8519 25.598C34.6527 26.4081 34.6527 26.9145 34.5531 27.4209C34.4536 28.4336 34.354 29.2438 33.1591 30.054C32.6612 30.4591 32.2629 32.7884 32.3625 35.0164L32.5616 39.27L27.5828 30.1553C27.1845 29.7502 25.89 28.3324 25.89 26.3069C25.9896 25.0916 26.1887 24.5852 26.2883 24.2814C26.3879 24.0788 26.3879 23.9776 26.3879 23.8763C26.3879 23.775 26.3879 23.5725 26.2883 23.2687C26.0892 22.2559 25.7904 20.6355 26.3879 18.8126C26.8858 17.5973 27.1845 17.0909 27.5828 16.7871C27.4832 16.0782 27.3836 14.6604 28.5786 13.2425C29.6739 11.926 30.0722 11.4196 30.0722 11.217C30.1718 10.4069 30.8688 7.97627 32.7608 7.67245C32.8603 7.4699 32.9599 7.26735 33.0595 6.96353C33.9557 5.1406 36.1464 3.72276 38.2375 4.43168C38.337 4.43168 38.5362 4.22913 38.7353 4.02658C39.3328 3.52021 40.1294 2.60874 41.5235 2.91257C42.6188 3.11511 43.7142 3.31766 44.3116 3.41894C44.9091 3.01384 46.2036 2.20365 47.6972 1.9695C49.6887 1.79855 51.0828 2.60874 52.2777 3.31766C52.7756 3.62148 53.4726 3.72276 54.0701 3.82403C55.3646 4.02658 57.0574 4.22913 57.9536 5.54569C58.2523 5.95079 58.551 6.15334 58.9493 6.45716C59.7459 6.96353 60.6421 7.57117 60.9408 9.39411C61.14 10.103 61.5383 10.3056 62.0362 10.7107C62.7332 11.1158 63.729 11.7234 64.1273 13.6476C64.2269 14.6604 64.2269 15.1667 64.2269 15.4705C65.0235 15.9769 66.4175 17.2935 66.2184 18.9139C66.2184 20.1292 66.318 21.2432 66.4175 21.7495C66.8158 22.3572 67.3137 23.4712 66.9154 24.889C66.8158 25.9018 66.6167 26.3069 66.318 26.8132C66.2184 27.0158 66.2184 27.1171 66.1188 27.2183C65.8201 27.826 65.6209 28.4336 65.5214 29.0413C65.4218 29.5476 65.3222 30.054 65.1231 30.6617C64.6252 32.4846 63.8286 34.7126 63.8286 34.7126L61.9366 41.2954M27.8815 26.4081C27.8815 27.826 28.9769 28.8387 28.9769 28.8387L30.4705 31.4719C30.6697 30.1553 31.1675 28.8387 32.0637 28.3324C32.462 28.0285 32.462 28.0285 32.5616 27.2183C32.5616 26.712 32.6612 26.1043 32.8603 25.1929C33.3582 22.4585 33.8561 21.2432 34.5531 20.433C35.3498 19.8253 37.3413 19.6228 43.4154 18.9139C48.693 18.5088 51.979 18.9139 55.1654 19.4202C58.9493 19.7241 60.6421 22.2559 60.7417 22.3572C60.9408 24.4839 61.6379 27.1171 62.5341 27.5222C63.1315 28.0285 63.5298 28.5349 63.729 29.1425C63.8286 28.7375 63.9281 28.4336 63.9281 28.1298C64.0277 27.4209 64.2269 26.712 64.5256 26.0031C64.6252 25.6992 64.7247 25.4967 64.8243 25.2941C64.9239 24.9903 65.1231 24.7878 65.2226 23.9776C65.5214 22.9648 65.0235 22.3572 64.9239 22.3572C64.6252 21.7495 64.426 20.3317 64.426 18.4075C64.5256 17.7999 63.729 17.0909 63.1315 16.6858C62.7332 16.6858 62.5341 16.4833 62.4345 15.6731C62.3349 15.1667 62.3349 14.5591 62.2353 13.6476C62.0362 12.7361 61.7375 12.5336 61.14 12.1285C60.443 11.7234 59.5468 11.1158 59.0489 9.59665C58.8497 8.58391 58.4514 8.28009 57.854 7.875C57.3561 7.57117 56.7586 7.16608 56.2608 6.35588C55.8625 5.74824 54.7671 5.64697 53.7714 5.54569C52.8752 5.44442 52.0786 5.34314 51.3815 4.93805C50.087 4.12785 49.1908 3.62148 47.7968 3.82403C46.4027 4.02658 45.1082 5.03932 45.1082 5.03932C44.3116 5.24187 42.818 5.03932 41.1252 4.7355C40.8264 4.63423 40.6273 4.83677 40.1294 5.34314C39.6315 5.84951 38.7353 6.65971 37.5404 6.15334C36.7438 5.84951 35.4493 6.55843 34.8519 7.67245C34.6527 7.97627 34.6527 8.17882 34.6527 8.17882C34.6527 8.48264 34.6527 8.78646 34.4536 8.98901C34.1548 9.39411 33.8561 9.39411 33.5574 9.39411C33.4578 9.39411 33.3582 9.39411 33.1591 9.49538C32.5616 9.59665 32.0637 10.9132 32.0637 11.3183C32.0637 11.8247 31.6654 12.5336 30.0722 14.4578C29.4747 15.1667 29.5743 15.8756 29.5743 16.4833C29.5743 16.8884 29.6739 17.2935 29.4747 17.6986C29.0764 18.2049 28.9769 18.3062 28.8773 18.3062C28.7777 18.4075 28.6781 18.7113 28.2798 19.4202C27.8815 20.8381 28.0807 21.9521 28.1803 22.8636C28.2798 23.2687 28.2798 23.5725 28.2798 23.775C28.2798 24.2814 28.1803 24.5852 28.0807 24.889C28.1803 25.1929 27.9811 25.4967 27.8815 26.4081"/>
	<path fill="#AFAFAF" d="M58.1526 60.1215C58.1526 60.1215 63.032 60.7288 66.6167 61.3361C70.3009 61.9434 74.8816 63.0568 74.8816 63.0568L57.5553 95.4454L34.1549 95.4454C34.1549 95.4454 36.1464 86.741 33.7565 81.3766C31.1676 76.0122 29.4748 74.8988 24.4959 72.0648C19.8158 69.0284 17.6252 63.7653 17.6252 63.7653C17.6252 63.7653 21.9069 62.5507 27.0849 61.6398C32.2629 60.6276 37.2417 60.2228 37.2417 60.2228C37.2417 60.2228 36.0468 63.7653 37.8391 66.3969C39.532 68.9272 43.7141 70.5466 51.5807 69.4333C59.7459 68.4212 58.1526 60.1215 58.1526 60.1215"/>
	<path fill="#2D1B0A" d="M58.1526 96.4575L32.9598 96.4575L33.2586 95.2429C33.2586 95.1417 35.1505 86.8421 32.8603 81.7814C30.4704 76.7207 28.8772 75.7085 23.998 72.8745C19.0192 69.7369 16.8285 64.2713 16.7289 64.0689L16.3306 62.9555L17.4259 62.6518C17.4259 62.6518 21.8073 61.4373 26.9853 60.4251C32.1632 59.413 37.2416 59.0081 37.2416 59.0081L38.7353 58.9069L38.2374 60.3239C38.2374 60.3239 37.2416 63.4616 38.7353 65.5871C40.5276 68.2187 45.0086 69.1296 51.481 68.1174C53.5721 67.915 55.1653 67.1053 56.0615 65.7895C57.7543 63.4616 57.1569 60.1215 57.1569 60.1215L56.8581 58.8057L58.2522 59.0081C58.2522 59.0081 63.231 59.6154 66.7162 60.2227C70.4005 60.83 74.8814 61.9433 75.0806 61.9433L76.3751 62.247L58.1526 96.4575M35.4492 94.4332L57.0573 94.4332L73.4874 63.7652C71.8942 63.3604 69.0064 62.7531 66.517 62.3482C64.1272 61.9433 61.0403 61.5385 59.3475 61.3361C59.4471 62.8543 59.248 65.2834 57.7543 67.2065C56.4598 69.0284 54.4683 70.0405 51.7798 70.3442C42.5192 71.7612 38.6357 69.2308 37.142 66.9029C35.8475 64.9798 35.9471 62.7531 36.1463 61.3361C34.3539 61.5385 30.8687 61.9433 27.3836 62.6518C23.8984 63.3604 20.8115 64.0689 19.2183 64.4737C20.1145 66.0931 22.0065 69.2308 25.1929 71.2551C30.2713 74.0891 32.1632 75.4049 34.8518 80.9717C36.7437 85.4251 35.9471 91.7004 35.4492 94.4332"/>
	<path fill="#FF5576" d="M75.1801 63.0528C75.1801 63.0528 76.8729 62.8571 79.7607 64.6789C82.4492 66.3996 84.4408 70.0433 84.4408 70.0433L75.9767 95.5494L57.9534 95.5494L75.1801 63.0528"/>
	<path fill="#2D1B0A" d="M76.6737 96.4575L56.2606 96.4575L74.5826 62.1447C75.2797 62.1447 77.2712 62.1447 80.2585 63.8664C83.1462 65.6882 85.2373 69.4332 85.3369 69.5344L76.6737 96.4575M59.5466 94.4332L75.1801 94.4332L83.2458 70.0405C82.6483 69.1295 81.0551 66.7004 79.0636 65.4858C77.4703 64.4736 76.2754 64.17 75.5784 64.0688L59.5466 94.4332"/>
	<path fill="#351F21" d="M36.4449 29.251C36.5445 29.0486 36.644 28.8461 36.7436 28.6437C36.7436 28.5425 36.8432 28.5425 36.8432 28.5425C36.9428 28.5425 37.1419 28.4255 37.2415 28.4255C39.3326 28.4255 41.5233 28.7449 43.6144 29.1498C43.8135 29.1498 44.0127 29.251 44.1123 29.251C44.5106 29.4534 44.5106 29.6558 44.411 29.8583"/>
	<path fill="#351F21" d="M57.8538 29.251C57.7542 29.0485 57.6547 28.8461 57.5551 28.6437C57.5551 28.5425 57.4555 28.5425 57.4555 28.4412C57.3559 28.3202 57.2563 28.3202 57.0572 28.3202C55.2648 28.3202 53.3729 28.5425 51.4809 28.8461C51.2818 28.8461 51.1822 28.9473 50.983 28.9473C50.629 29.1498 50.629 29.3522 50.629 29.6558"/>
	<path fill="#351F21" d="M56.6589 33.6032C56.6589 34.3858 55.5444 35.0202 54.1695 35.0202C52.7946 35.0202 51.6801 34.3858 51.6801 33.6032C51.6801 32.8206 52.7946 32.1862 54.1695 32.1862C55.5444 32.1862 56.6589 32.8206 56.6589 33.6032"/>
	<path fill="#351F21" d="M43.6144 33.4008C43.6144 34.1834 42.5445 34.8178 41.2246 34.8178C39.9047 34.8178 38.8348 34.1834 38.8348 33.4008C38.8348 32.6182 39.9047 31.9838 41.2246 31.9838C42.5445 31.9838 43.6144 32.6182 43.6144 33.4008"/>
	<path fill="#724C4C" d="M48.0953 49.0891C46.303 49.0891 44.5106 48.7854 43.2161 48.0769C42.6419 47.8745 42.5191 47.2672 42.6419 46.7612C42.9174 46.1775 43.5148 46.0527 44.0127 46.1775C46.0042 47.2672 49.589 47.3684 51.6801 46.3563C52.178 46.1775 52.7754 46.3563 52.9746 46.8624C53.1737 47.3684 52.9746 47.9757 52.4767 48.1782C51.2818 48.7854 49.6885 49.0891 48.0953 49.0891"/>
</svg>
