<?xml version="1.0" encoding="utf-8" ?>
<svg xmlns="http://www.w3.org/2000/svg" xmlns:xlink="http://www.w3.org/1999/xlink" width="86" height="94">
	<path fill="white" d="M0 94C0.6021 88.6057 3.8133 64.7311 12.2427 59.3369C12.8448 56.5399 12.5438 55.5409 12.2427 54.7418C12.2427 54.542 12.1424 54.4421 12.1424 54.2423C11.741 52.8438 10.9382 50.6461 12.8448 47.7492C13.6476 46.4506 14.7515 45.8512 15.4539 45.5515L16.5578 45.0521C14.2497 41.6557 12.6441 38.7588 14.049 34.5632C15.0525 31.6663 15.755 26.2721 16.2567 23.3751C16.3571 22.576 16.4574 21.7768 16.5578 21.6769C17.9627 11.0882 24.9872 0 40.3407 0C57.902 0 67.2345 8.49097 67.937 25.2731C68.238 31.8661 68.4387 36.5611 68.4387 39.6578C68.6394 41.4559 68.6394 42.9543 68.6394 43.7535C71.8506 46.6504 71.8506 50.8459 71.6499 55.0414C73.0548 56.3401 73.6569 56.9394 74.0583 57.7386C74.0583 57.9384 74.1587 58.238 74.1587 58.3379C74.1587 58.5377 74.259 58.6376 74.259 58.7375C82.1867 65.4304 85.3979 88.406 86 93.8002L0 93.8002"/>
	<path fill="#684B2A" d="M26.3492 67.107C26.3492 66.9072 26.1484 62.8116 24.4425 62.8116C22.8369 62.8116 15.2103 65.2091 15.8124 59.1156C16.6152 52.7224 13.6047 52.6225 15.6117 49.7256C17.5183 46.8286 21.0306 49.1262 21.0306 46.2293C21.0306 43.3324 15.6117 40.9349 17.3176 35.5406C19.1239 30.1463 19.2243 24.8519 19.726 21.955C20.2278 19.0581 23.2383 3.14585 40.3981 3.14585C47.6234 2.97524 63.4786 3.14585 64.3819 25.4513C65.1846 47.5279 64.3819 46.1294 66.2885 47.1283C68.1951 47.9275 68.1951 51.9232 67.8941 56.7181C67.8941 56.7181 67.8941 59.3153 70.1017 59.1156C72.3094 58.9158 68.7972 64.8094 62.2744 62.0125C62.2744 62.0125 61.7728 65.309 59.264 64.6096L46.9208 64.6096L26.3492 67.107"/>
	<path fill="#2D1B0A" d="M25.3921 68.2274L25.3921 67.128C25.3921 65.6289 24.7901 63.83 24.489 63.83C24.2883 63.83 23.887 63.9299 23.3853 63.9299C21.3784 64.2297 17.9668 64.7295 16.0603 63.0305C15.0569 62.131 14.6555 60.7318 14.8562 59.0329C15.2576 56.0347 14.7559 54.6355 14.3545 53.4362C13.9651 52.137 13.5517 51.0377 14.8562 49.1388C16.0603 47.4398 17.7661 47.14 18.8699 46.9401C20.074 46.7402 20.074 46.7402 20.074 46.1406C20.074 45.441 19.3716 44.5415 18.6692 43.5421C17.1641 41.6433 15.2576 39.0448 16.4617 35.1264C17.7661 31.2495 18.1675 27.3518 18.4685 24.4536C18.5689 23.3542 18.6692 22.4548 18.7695 21.7552C19.4719 17.1579 23.2849 2.0255 40.3431 2.0255C46.2633 1.8671 64.3248 1.46734 65.3282 25.353C65.5289 31.8491 65.6293 36.4464 65.7296 39.4446C65.8299 43.2423 65.8299 45.5409 66.131 45.8408C66.131 45.8408 66.3317 45.9407 66.432 46.0406C69.1412 47.14 69.3419 50.7378 68.8402 56.7342C68.8402 56.8342 68.9406 57.5338 69.2416 57.8336C69.3419 57.9335 69.5426 58.0335 69.944 58.0335C70.6464 57.9335 71.2484 58.3333 71.5494 58.833C71.9508 59.6325 71.5494 60.7318 70.6464 61.6313C69.1412 63.1304 66.432 64.2297 62.8197 63.1304C62.5187 63.83 62.1173 64.5296 61.4149 65.0293C60.9132 65.3291 60.1105 65.6289 59.0067 65.429L47.066 65.429L25.3921 68.2274M24.489 61.7312C26.4959 61.7312 27.1983 64.3297 27.2986 65.9287L46.9656 63.4302L59.5084 63.4302C60.0101 63.5302 60.3111 63.4302 60.4115 63.3303C61.0135 62.9305 61.2142 61.9311 61.3146 61.6313L61.5152 60.3321L62.7193 60.8318C65.6293 62.0311 67.5358 61.3315 68.4388 60.8318C69.0409 60.532 69.3419 60.1322 69.5426 59.8324C68.8402 59.7324 68.3385 59.4326 68.0375 59.1328C67.0341 58.1334 66.9337 56.6343 66.9337 56.4344C67.1344 54.2357 67.5358 48.4392 65.9303 47.7396C63.9234 46.8402 63.9234 46.5403 63.7228 39.2447C63.6224 36.2465 63.5221 31.6493 63.3214 25.1532C62.5187 5.76477 50.6783 3.56609 40.3431 3.76597C24.7901 3.76597 21.3784 17.5577 20.676 21.7552C20.5757 22.4548 20.4753 23.3542 20.375 24.3536C20.074 27.2519 19.5723 31.3494 18.2678 35.447C17.3647 38.3453 18.7695 40.1442 20.1743 41.9431C21.1777 43.1424 22.0808 44.3417 22.0808 45.7408C22.0808 48.0394 20.2747 48.3393 19.1709 48.5391C18.1675 48.6391 17.1641 48.839 16.4617 49.8384C15.7593 50.8378 15.8596 51.2375 16.261 52.3369C16.6623 53.5362 17.2644 55.435 16.863 58.833C16.7627 59.9323 16.9634 60.6319 17.4651 61.1316C18.6692 62.2309 21.5791 61.8312 23.0842 61.5314C23.6863 61.8312 24.188 61.7312 24.489 61.7312"/>
	<path fill="#FAD1B6" d="M33.4165 53.3432L33.4165 47.949C33.4165 47.949 38.8354 51.4453 42.8495 51.4453C46.5625 51.4453 51.7806 47.949 51.7806 47.949L51.7806 53.3432C51.7806 53.3432 51.7806 60.8353 42.9498 61.036C34.119 61.135 33.4165 53.3432 33.4165 53.3432"/>
	<path fill="#2D1B0A" d="M42.7492 62.034C33.2159 62.034 32.4131 53.543 32.4131 53.4431L32.4131 46.051L33.9184 47.0499C34.0187 47.0499 39.1366 50.3464 42.8495 50.3464C46.1611 50.3464 51.1786 47.0499 51.2789 47.0499L52.8845 46.051L52.8845 53.3432C52.8845 53.4431 52.7842 61.8342 43.1506 62.034C42.9499 62.034 42.8495 62.034 42.7492 62.034M34.4201 53.3432C34.5205 53.9426 35.3232 60.2359 43.0502 60.0361C50.7772 59.8363 50.8775 53.6429 50.8775 53.3432L50.8775 49.6472C48.9709 50.746 45.559 52.3443 42.9499 52.3443C40.0397 52.3443 36.5275 50.6461 34.5205 49.5473L34.5205 53.3432"/>
	<path fill="#F7F0E8" d="M3.6628 90.5037C3.6628 90.5037 5.56945 64.2316 15.8052 61.2348C25.9405 58.3379 30.657 60.136 32.7643 56.9394C32.7643 56.9394 32.2626 53.4431 33.8682 53.4431C33.8682 53.4431 38.4843 55.6408 43.3011 55.6408C47.9172 55.6408 52.2322 53.4431 52.2322 53.4431C53.8378 53.4431 52.8343 56.34 53.035 56.9394C54.6406 60.2359 62.4679 58.8374 70.1949 61.2348C80.1295 64.1317 82.3372 90.5037 82.3372 90.5037L52.2322 90.5037L3.6628 90.5037"/>
	<path fill="#2D1B0A" d="M83.3909 91.5026L2.6091 91.5026L2.6091 90.4038C2.8098 89.305 4.8168 63.4325 15.5543 60.2359C19.9697 58.9373 23.4819 58.6376 26.091 58.3379C29.3022 57.9384 30.9078 57.7386 31.811 56.6397C31.7106 55.7407 31.7106 53.9426 32.5134 53.0436C32.9148 52.644 33.4166 52.4442 33.9183 52.4442C34.3197 52.5441 38.8355 54.6419 43.3512 54.6419C47.6663 54.6419 51.7806 52.5441 51.881 52.5441C52.9848 52.4442 53.3862 52.7439 53.6873 53.0436C54.3897 53.8427 54.2894 55.0414 54.189 56.0404C54.189 56.2402 54.189 56.4399 54.189 56.6397C54.9918 57.9384 57.902 58.238 61.2135 58.6376C64.0233 58.9373 67.3349 59.3369 70.5461 60.3358C80.9825 63.3326 83.2905 89.4049 83.3909 90.5037M4.71645 89.5048L81.1832 89.5048C80.3804 81.7131 77.0688 64.2317 69.8436 62.1339C66.7328 61.1349 63.6219 60.8353 60.8121 60.5356C56.5974 60.0361 53.1855 59.7364 52.0817 57.2391C51.881 56.6397 51.881 56.2402 51.9813 55.6408C51.9813 55.3411 52.0817 54.7418 52.0817 54.3422C50.7771 54.9415 47.0642 56.4399 43.1505 56.4399C38.9358 56.4399 34.9218 54.8416 33.7176 54.3422C33.6173 54.6419 33.5169 55.7407 33.6173 56.6397C32.0117 59.5366 29.6033 59.8363 26.091 60.2359C23.4819 60.5356 20.1704 60.9352 15.9557 62.1339C7.8273 64.6312 5.2182 84.61 4.71645 89.5048"/>
	<path fill="#A8A946" d="M20.1703 90.7034L20.1703 60.136L27.3955 59.3368C29.8039 67.1286 31.5099 79.0159 31.5099 79.0159L55.8949 79.0159C57.7012 65.9298 59.2065 59.3368 59.2065 59.3368C62.217 59.8363 66.4317 60.6355 66.4317 60.6355L66.6324 90.8033L20.1703 90.7034"/>
	<path fill="#2D1B0A" d="M67.6359 91.8023L19.1668 91.8023L19.1668 59.2369L28.098 58.1381C30.3057 65.6301 31.9113 75.12 32.413 78.017L54.9918 78.017C56.6977 65.6301 58.203 59.137 58.203 59.0371L59.3068 58.1381C62.3173 58.7375 66.532 59.5366 66.532 59.5366L67.6359 91.8023M21.1738 89.8044L65.6289 89.8044L65.4282 61.4346C64.224 61.2348 62.0163 60.7353 60.0093 60.4357C59.5075 62.6333 58.3033 68.9266 56.8984 79.1158L30.7071 80.0148C30.6067 79.0159 28.9008 68.0276 26.6931 60.3358L21.1738 60.9351L21.1738 89.8044"/>
	<path fill="#FAD1B6" d="M37.9306 50.5462C37.9306 50.5462 27.3899 45.9511 26.2856 36.9606C26.2856 36.9606 23.2739 37.56 22.9728 34.763C22.4708 32.1657 20.3627 26.6716 25.5829 26.4718C25.5829 26.4718 27.1891 26.6716 27.3899 28.6695C27.3899 28.6695 32.7104 25.6726 35.1197 16.882C35.1197 16.882 45.8613 26.7715 58.4098 28.17C58.4098 28.17 59.2129 27.0712 59.2129 27.3708C59.2129 27.6705 62.9273 25.4729 63.2612 29.2688C63.4292 32.9649 62.7265 37.3602 60.6183 37.0605C60.6183 37.0605 59.8152 36.5611 59.3133 37.6599C59.3133 37.6599 57.1047 45.1519 48.9733 50.3464C48.7725 50.5462 43.8535 52.8437 37.9306 50.5462"/>
	<path fill="#2D1B0A" d="M43.3403 52.5439C41.6327 52.5439 39.6239 52.2443 37.5146 51.4451C37.1128 51.2453 27.169 46.85 25.361 38.0594C24.7584 38.0594 23.8544 37.8596 23.1513 37.3601C22.6491 36.9605 21.946 36.2613 21.8455 34.8628C21.7451 34.5631 21.7451 34.1635 21.6446 33.7639C21.0753 31.6662 20.5398 28.8691 21.946 26.9712C22.6491 25.9722 23.8544 25.4727 25.4615 25.4727C26.265 25.5726 27.2694 25.9722 27.8721 27.071C29.4792 25.7724 32.392 22.5758 33.9991 16.6821L34.4009 15.0838L35.6062 16.1826C35.7066 16.2825 45.9518 25.5726 57.804 27.1709C58.2058 26.6715 58.6076 26.2719 59.2102 26.3718C59.9133 26.172 61.5204 25.6725 62.7257 26.4717C63.5292 26.9712 63.931 27.9701 64.0315 29.2687C64.1319 30.7671 64.2323 35.7618 62.2235 37.5599C61.7213 38.0594 61.0182 38.2591 60.3151 38.1593C59.8129 38.9584 57.4022 46.1508 49.3668 51.3452C49.0655 51.4451 46.7553 52.5439 43.3403 52.5439M38.3181 49.5471C43.4407 51.6449 47.8602 49.8468 48.3624 49.5471C56.0965 44.5525 58.2058 37.46 58.3062 37.46C58.6076 36.561 59.2102 36.2613 59.5115 36.0615C60.0138 35.8617 60.4155 35.9616 60.7169 36.0615C60.8173 36.0615 60.8173 36.0615 60.9177 35.9616C61.7213 35.1624 62.2235 32.3654 62.0226 29.2687C62.0226 28.6693 61.8217 28.1699 61.5204 28.07C61.1186 27.7703 60.2146 28.07 59.7124 28.1699C59.612 28.1699 59.4111 28.2698 59.3107 28.2698C59.2102 28.3697 59.1098 28.5695 58.9089 28.6693C47.5589 27.8702 38.519 21.0774 35.3048 18.4802C32.6933 26.3718 27.8721 29.2687 27.5708 29.3686L26.1646 30.1678L26.0641 28.5695C25.9637 27.5705 25.4615 27.3707 25.2606 27.2708C24.3566 27.2708 23.7539 27.5705 23.3522 28.07C22.5486 29.1688 23.0508 31.4664 23.4526 33.1646C23.553 33.664 23.6535 34.0636 23.7539 34.4632C23.8544 35.0625 23.9548 35.3622 24.2561 35.6619C24.7584 36.0615 25.5619 35.9616 25.8632 35.9616L26.9681 35.7618L27.0685 36.8606C28.1734 44.952 37.9164 49.4472 38.3181 49.5471"/>
	<path fill="#2D1B0A" d="M29.6032 25.4729C32.0116 25.1482 35.2228 24.9734 37.6312 25.5728C38.3337 25.7726 38.6347 26.272 38.9358 26.8714C35.9253 26.272 30.2053 26.9713 29.6032 25.4729"/>
	<path fill="#2D1B0A" d="M45.9603 26.0723C48.3687 25.6727 50.0747 25.8257 52.4831 26.2721C53.1855 26.4718 53.7876 26.7715 54.0887 27.3709C51.0782 26.7715 46.5624 27.5707 45.9603 26.0723"/>
	<path fill="#351F21" d="M54.0886 31.5664C54.0886 32.3939 53.0553 33.0648 51.7806 33.0648C50.5059 33.0648 49.4725 32.3939 49.4725 31.5664C49.4725 30.7389 50.5059 30.068 51.7806 30.068C53.0553 30.068 54.0886 30.7389 54.0886 31.5664"/>
	<path fill="#351F21" d="M37.7317 31.2667C37.7317 32.0942 36.6983 32.7651 35.4236 32.7651C34.1489 32.7651 33.1156 32.0942 33.1156 31.2667C33.1156 30.4392 34.1489 29.7683 35.4236 29.7683C36.6983 29.7683 37.7317 30.4392 37.7317 31.2667"/>
	<path fill="#FF4646" d="M38.0326 41.4559C38.0326 41.4559 43.3512 43.8533 48.7701 41.5558C48.7701 41.5558 47.2649 44.5549 43.7526 44.5549C40.2403 44.6525 38.0326 41.4559 38.0326 41.4559"/>
</svg>
