<?xml version="1.0" encoding="utf-8" ?>
<svg xmlns="http://www.w3.org/2000/svg" xmlns:xlink="http://www.w3.org/1999/xlink" width="84" height="102">
	<path fill="white" d="M0 98.7811C0.0999494 95.2604 0.499747 77.5562 3.49823 71.8225C6.39676 66.3905 13.1933 63.9763 17.791 62.2663C18.5906 61.9645 19.3902 61.6627 19.9899 61.4615C20.4896 61.2604 20.8894 61.0592 21.2892 60.9586C21.789 60.5562 22.2887 60.2544 22.9884 60.0533C26.0868 58.9467 27.8859 57.9408 28.7854 57.3373L28.7854 55.929C26.0868 52.6095 24.8874 49.2899 24.2877 47.2781C22.7885 46.6746 21.4891 45.568 20.7895 43.5562C20.5896 43.1538 20.3897 42.6509 20.0898 42.0473C19.79 41.3432 19.3902 40.6391 19.0903 39.9349C4.19787 39.5325 1.59919 28.6686 1.49924 28.1657C1.49924 27.2604 1.39929 26.7574 1.39929 26.1538C1.39929 25.8521 1.39929 25.1479 1.79909 24.2426C1.99899 23.8402 2.19889 23.3373 2.49873 23.0355C2.89853 22.432 3.49823 21.8284 4.09792 21.426C6.49671 20.1183 9.59514 19.716 13.9929 19.4142C16.2917 19.213 19.1903 18.7101 20.5896 18.2071C21.0893 15.6923 22.0888 10.7633 23.588 8.24852C26.0868 4.22485 29.7849 0 43.0782 0C57.5708 0 62.0685 7.64497 64.1675 13.3787C66.3664 18.7101 64.8671 28.568 64.1675 32.6923C64.6672 33.3964 64.9671 34.2012 64.9671 35.2071C65.167 38.1243 63.3679 43.7574 61.8686 45.6686C61.3689 46.2722 60.3694 47.3787 59.0701 48.0828C58.4704 49.9941 57.3709 52.9112 55.172 55.929C55.172 56.432 55.272 57.1361 55.272 57.6391C55.9716 58.142 57.4709 58.8462 58.6703 59.3491L59.8697 59.9527C59.9696 60.0533 60.1695 60.1538 60.3694 60.1538C63.9676 61.4615 68.3654 63.1716 70.2644 64.0769C71.2639 64.4793 71.8636 64.6805 72.1634 64.7811C73.1629 65.0828 80.2593 68.1006 82.3583 76.2485C82.4582 76.6509 84.5572 85.2012 83.8575 99.0828L83.7576 102L0 102L0 98.7811"/>
	<path fill="#FFC332" d="M4.34305 27.0592C4.34305 27.0592 7.09631 38.7279 24.9872 36.1125C24.9872 36.1125 22.8883 32.8935 23.7878 26.5563C23.7878 26.5563 10.6945 23.1361 7.59606 23.3288C4.34305 23.6391 4.19778 24.9468 4.34305 27.0592"/>
	<path fill="#2D1B0A" d="M19.9732 37.5208C5.88034 37.5208 3.48155 27.4558 3.3242 27.3551C3.1817 25.0402 3.3242 22.8259 7.47953 22.4137C10.7779 22.222 22.6718 25.2415 24.0711 25.6441L24.8707 26.7512C23.9712 32.6896 25.8702 35.6085 25.9702 35.6085L26.8697 36.9169L25.2705 37.1181C23.2715 37.4202 21.5724 37.5208 19.9732 37.5208M5.38059 26.8519C5.58049 27.7577 8.37907 36.9169 23.4714 35.2058C22.8717 33.6961 22.272 31.0792 22.6718 27.2545C18.5739 26.248 9.87831 24.1343 7.67943 24.3356C5.18069 24.6376 5.28064 25.1408 5.38059 26.8519"/>
	<path fill="#EAC3AA" d="M31.7917 54.3196L31.7917 58.4439C31.7917 58.4439 30.0925 60.3551 23.9956 62.5681C18.1986 64.6805 33.6907 71.1184 42.3863 70.9218C42.3863 70.9218 68.4731 66.4912 58.5781 62.1658C54.88 60.4557 52.0814 59.2486 52.2813 57.7397C52.2813 57.7397 52.0814 55.0237 52.0814 54.3196C52.1813 54.3196 42.6862 63.3729 31.7917 54.3196"/>
	<path fill="#2D1B0A" d="M41.9841 71.9231C34.6859 71.9231 22.4887 67.6982 21.7557 64.1775C21.7557 63.6746 21.7557 62.3669 23.6885 61.6627C28.0874 60.0533 30.087 58.645 30.7868 58.0414L30.7868 52.2071L32.3864 53.5148C41.5842 61.1598 49.5824 55.1243 51.082 53.8166L51.082 47.4793L53.0815 54.0178C53.1815 54.2189 53.1815 54.3195 53.0815 54.5207C53.0815 55.2249 53.1815 56.9349 53.2815 57.6391C53.1815 58.4438 55.9808 59.7515 57.7804 60.6568L58.9801 61.2604C59.68 61.5621 61.9794 62.5681 61.7918 64.4793C61.2796 68.3018 48.1827 70.9172 42.484 71.9231C42.2841 71.9231 42.0841 71.9231 41.9841 71.9231M32.7863 56.3314L32.7863 58.8462C32.2864 59.3491 30.3869 61.361 24.2883 63.574C23.7884 63.7752 23.6885 63.9763 23.6885 63.9763C23.9884 65.5858 34.7858 70.1124 42.2841 70.0118C51.4819 68.503 59.68 65.787 59.7799 64.3787C59.7799 64.2781 59.58 63.8757 58.1803 63.2722L56.9806 62.6686C53.5814 61.0592 51.082 59.9527 51.282 57.9408C51.282 57.7397 51.182 57.1361 51.182 56.5326C51.082 56.5326 51.082 56.6332 50.982 56.6332C48.1827 58.3432 40.8844 61.9645 32.7863 56.3314"/>
	<path fill="#A86B3F" d="M23.9236 33.3964C23.9236 33.3964 21.5248 21.2248 24.6233 15.3905C27.8216 9.75732 32.919 5.1301 42.2143 5.1301C51.6096 5.1301 57.5065 10.9644 59.1058 15.3905C60.8049 19.8165 61.8045 28.568 60.5051 33.0946C59.3056 37.7218 57.8064 43.0532 55.2077 42.1479C52.809 41.2425 54.708 29.5739 53.1088 26.355C51.7095 23.4378 47.5117 22.4319 44.1133 23.639C40.4152 24.8461 31.8196 25.5502 30.3204 26.5561C29.121 27.4615 27.6217 28.9703 27.9216 32.1893C28.1215 35.1064 28.8211 40.9408 27.022 40.7396C25.123 40.2366 23.9236 35.207 23.9236 33.3964"/>
	<path fill="#2D1B0A" d="M55.9073 42.7514C55.7074 42.7514 55.4076 42.7514 55.1077 42.6508C53.4086 42.0472 53.4086 38.3253 53.4086 34.1005C53.4086 31.0827 53.4086 27.9644 52.7089 26.6567C51.4096 24.1419 47.6115 23.0354 44.3132 24.2425C42.4141 24.846 39.5156 25.349 36.6171 25.7514C34.0184 26.1537 31.2198 26.6567 30.6201 27.0591C29.5207 27.8638 28.2213 29.2721 28.4212 32.2898C28.4212 32.5916 28.5212 32.994 28.5212 33.3963C28.821 37.0176 29.0209 40.0354 27.9215 41.0413C27.6216 41.3431 27.3218 41.4437 26.922 41.3431C24.5232 40.7395 23.3238 35.4082 23.3238 33.5975C23.1239 32.5916 20.925 21.0236 24.1234 15.2898C28.1214 8.24841 34.0184 4.7277 42.2142 4.7277C52.1092 4.7277 58.0062 11.065 59.6054 15.2898C61.3046 19.6153 62.3041 28.4673 61.0047 33.2957C60.0052 37.1182 58.8058 41.4437 56.8068 42.5502C56.6069 42.6508 56.3071 42.7514 55.9073 42.7514M47.2117 22.633C50.0103 22.633 52.609 23.9407 53.7084 26.1537C54.508 27.6626 54.508 30.781 54.508 34.1005C54.508 37.1182 54.508 41.3431 55.6074 41.7455C55.9073 41.846 56.3071 41.846 56.6069 41.6449C58.2061 40.7395 59.4055 36.5147 60.3051 32.994C61.5045 28.3668 60.505 19.7159 58.9058 15.5916C57.4065 11.5679 51.8094 5.63302 42.4141 5.63302C34.6181 5.63302 29.0209 8.95255 25.2228 15.5916C22.2244 21.2247 24.5232 33.1952 24.5232 33.2957C24.5232 35.1064 25.7226 39.7336 27.3218 40.2366C27.3218 40.2366 27.4217 40.2366 27.4217 40.136C28.2213 39.4318 27.8215 35.4082 27.7216 33.2957C27.7216 32.8934 27.6216 32.491 27.6216 32.1892C27.4217 28.6685 29.0209 27.0591 30.2203 26.1537C31.0199 25.6508 33.2188 25.2484 36.6171 24.7455C39.3157 24.3431 42.3142 23.8401 44.1133 23.2366C45.1128 22.8342 46.1123 22.633 47.2117 22.633"/>
	<path fill="#FAD1B6" d="M42.4784 60.9586C42.4784 60.9586 36.4815 59.7515 31.8838 54.6213C27.2861 49.4911 26.7864 44.3609 26.7864 44.3609C26.7864 44.3609 24.3876 44.5621 23.588 42.2485C22.6884 39.8343 19.4901 35.2071 22.3886 33.6982C22.3886 33.6982 24.2876 32.9941 25.0872 34.4024C25.7869 35.8106 26.2866 39.0296 26.4865 39.2308C26.6864 39.7337 27.6859 38.7278 27.3861 31.9882C27.3861 31.9882 25.9868 27.1598 30.5844 25.4497C35.1821 23.7396 40.9792 24.0414 42.8782 22.5325C44.5774 21.1243 51.3739 23.2367 52.7732 21.8284C52.7732 21.8284 55.172 23.2367 55.6717 27.4615C55.8716 31.5858 56.1715 39.1302 57.071 39.8343C57.7707 40.3373 57.7707 36.1124 58.4703 34.503C58.9701 33.0947 61.6687 32.5917 61.8833 35.0059C62.0685 37.4201 60.1695 42.5503 59.4698 43.355C58.7702 44.2604 57.3709 45.4675 56.5713 44.7633C56.5713 44.7633 55.8716 50.0947 51.4739 55.2248C47.5758 59.9527 44.0776 60.7574 42.4784 60.9586"/>
	<path fill="#2D1B0A" d="M42.385 61.9645C41.8851 61.8639 35.7863 60.5562 31.0873 55.3255C27.3881 51.2012 26.1884 47.0769 25.8884 45.3669C24.6887 45.1657 23.189 44.4615 22.5891 42.5503C22.3892 42.1479 22.1892 41.5444 21.7893 40.8402C20.5895 38.2249 18.6899 34.4024 21.7893 32.7929C22.8891 32.3905 24.8886 32.1894 25.7885 34C25.9884 34.4024 26.0884 34.8047 26.2883 35.3077C26.2883 34.503 26.2883 33.3965 26.2883 32.1894C25.7885 30.1775 25.8884 26.1539 30.0875 24.5444C32.487 23.6391 35.0865 23.2367 37.386 22.9349C39.4856 22.6331 41.4001 22.3314 42.185 21.8284C43.2848 20.9231 45.5843 21.0237 47.9838 21.3255C49.2835 21.426 51.583 21.6272 51.9829 21.2249L53.1827 21.1243C53.2827 21.2249 56.0821 22.8343 56.482 27.5621C56.582 30.1775 56.682 33.2959 56.9819 35.8107C57.0819 35.3077 57.1818 34.7041 57.3818 34.3018C57.7817 33.1953 59.1814 32.3905 60.4812 32.4911C61.4809 32.5917 62.5807 33.3965 62.6953 35.1065C62.8807 37.8225 60.9811 43.0533 59.9813 44.1598C59.6813 44.5621 58.4816 45.9704 57.1818 46.1716C56.7819 48.0828 55.4822 52.1065 52.0829 56.1302C49.1835 59.7515 45.9842 61.7633 42.4849 62.2663M27.6881 43.2544L27.788 44.2604C27.788 44.2604 28.3879 49.1894 32.587 53.9172C36.4862 58.2426 41.5851 59.6509 42.4849 59.9527C43.6847 59.7515 46.984 59.1479 50.5832 54.6213C54.7824 49.7929 55.4822 44.6627 55.4822 44.6627L55.7821 42.6509L57.0819 43.9586C57.3818 43.858 57.9817 43.355 58.5816 42.7515C59.1814 42.0473 60.9811 37.3195 60.8811 35.1065C60.7811 34.4024 60.4812 34.3018 60.3812 34.3018C59.9813 34.3018 59.5813 34.503 59.4814 34.8047C59.1814 35.5089 58.9815 36.6154 58.8815 37.6213C58.5816 39.432 58.4816 40.4379 57.6817 40.7397C57.2818 40.9408 56.8819 40.8402 56.582 40.6391C55.5822 39.8343 55.1823 37.2189 54.7824 28.2663C54.5824 24.9468 53.4826 23.5385 52.8828 23.0355C51.683 23.5385 49.9834 23.3373 48.0838 23.1361C46.5841 23.0355 44.2846 22.8343 43.6847 23.2367C42.4849 24.142 40.4854 24.4438 37.8859 24.7456C35.6864 25.0473 33.1869 25.4497 31.0873 26.2544C27.3881 27.6627 28.4879 31.3846 28.4879 31.5858C28.8878 39.8343 27.4881 40.1361 26.8882 40.2367C26.3883 40.3373 25.8884 40.1361 25.6885 39.6331C25.4885 39.3314 25.3885 38.929 25.1886 38.0237C24.9886 37.0178 24.5887 35.5089 24.1888 34.7041C23.8888 34.2012 23.089 34.4024 22.7891 34.503C21.5893 35.2071 22.4891 37.3195 23.6889 39.8343C23.9888 40.5385 24.2888 41.142 24.4887 41.7456C24.9886 43.355 26.5883 43.2544 26.5883 43.2544L27.6881 43.2544"/>
	<path fill="#5DDEE2" d="M80.8092 98.4793C81.5088 84.7988 79.4099 76.5503 79.4099 76.5503C77.7107 69.8106 71.6138 67.2958 71.6138 67.2958C71.6138 67.2958 71.4139 67.2958 68.9151 66.3905C66.5163 65.1834 57.1211 61.7633 57.1211 61.7633C56.9212 62.9704 55.2222 70.1124 42.8283 70.1124C30.4347 70.1124 26.6366 61.5621 26.6366 61.5621C26.6366 61.5621 24.7376 62.4674 21.0394 63.9763C17.3414 65.4852 8.94556 67.6982 6.04703 73.0296C3.1485 78.3609 2.84865 98.5799 2.84865 98.5799L80.8092 98.4793"/>
	<path fill="#2D1B0A" d="M1.949 99.5858L1.949 98.5798C1.949 97.7751 2.24885 78.0591 5.24733 72.5266C7.74606 67.7988 14.1428 65.4852 18.4406 63.8757C19.3402 63.5739 20.1398 63.2721 20.7395 62.9704C24.3377 61.4615 26.2367 60.5562 26.3366 60.5562L27.636 61.0591C27.7359 61.3609 31.4341 69.0059 42.9282 69.0059C54.4224 69.0059 56.0216 62.7692 56.2215 61.5621L56.4214 60.355L57.5208 60.7574C57.9206 60.8579 66.9161 64.1775 69.4148 65.3846C71.014 65.9881 71.6137 66.1893 71.8136 66.1893C72.4133 66.3905 78.6102 69.0059 80.4092 76.2485C80.5092 76.5502 82.6081 84.8994 81.9085 98.4792L1.949 99.5858M26.2367 62.8698C25.3371 63.2721 23.738 63.9763 21.4391 64.9822C20.7395 65.284 19.9399 65.5858 19.0403 65.8875C15.0424 67.2958 9.14535 69.5088 6.94647 73.5325C4.54768 77.9585 4.04794 93.4497 3.94799 97.5739L79.8095 97.4733C80.4092 84.6982 78.4103 76.852 78.4103 76.7514C76.911 70.9171 71.9135 68.5029 71.3138 68.2011C71.014 68.1005 70.3144 67.8994 68.6152 67.2958C66.6162 66.3905 60.3194 63.9763 57.8207 63.071C56.9211 65.6863 53.8227 71.0177 42.8283 71.0177C32.3336 71.0177 27.7359 65.1834 26.2367 62.8698"/>
	<path fill="#FFD87A" d="M23.0884 19.8167C23.0884 19.8167 24.2878 12.2723 25.9869 9.35509C27.886 6.13616 30.7845 2.61545 42.8784 2.61545C54.9722 2.61545 59.0702 8.24859 61.2691 14.0829C63.6678 19.716 60.7693 33.296 60.7693 33.296C60.7693 33.296 61.469 24.0415 46.2766 19.6154C46.3766 19.6154 32.0838 16.8995 23.0884 19.8167"/>
	<path fill="#2D1B0A" d="M61.6688 33.3965L59.6698 33.0947C59.6698 32.7929 60.0696 24.645 45.9767 20.5207C45.377 20.4202 31.7839 18.0059 23.3882 20.7219L21.789 21.2249L22.0888 19.6154C22.1888 19.3136 23.3882 11.7693 25.0873 8.8521C27.3862 5.13021 30.5845 1.6095 42.8783 1.6095C56.0716 1.6095 60.0696 8.14796 62.1685 13.7811C64.6673 19.5148 61.7687 32.8935 61.6688 33.3965M46.4765 18.6095C55.1721 21.1243 58.8702 25.2486 60.4694 28.4675C61.0691 24.142 61.6688 17.8048 60.2695 14.4852C58.2705 9.05329 54.6723 3.62133 42.8783 3.62133C30.6845 3.62133 28.3857 7.44382 26.7865 9.95861C25.687 11.8699 24.7875 16.1953 24.3877 18.5089C32.0838 16.5977 43.8778 17.8048 46.4765 18.6095"/>
	<path fill="#FFE29B" d="M46.3765 19.6154C46.3765 19.6154 36.4815 26.6568 25.7871 27.1598C14.8926 27.6627 9.79511 22.7337 5.49729 24.7456C5.49729 24.7456 4.59775 24.7456 4.39785 25.8521C4.39785 25.8521 4.39785 24.5444 5.79714 23.5385C7.49628 22.6331 11.0945 22.3314 14.0929 22.1302C17.2914 21.929 22.0889 20.9231 23.0884 20.0178C22.7885 19.8166 31.2843 16.1953 46.3765 19.6154"/>
	<path fill="#2D1B0A" d="M3.3983 35.4082L3.3983 25.8521C3.3983 25.6509 3.3983 24.0414 5.19739 22.7337C7.19638 21.6272 10.7945 21.3254 13.9929 21.1243C17.3912 20.9231 21.689 19.8166 22.3887 19.213C24.1878 17.8047 33.583 15.6923 46.5764 18.6095L48.7753 19.1124L46.9762 20.4201C46.5764 20.7219 36.6814 27.6628 25.8869 28.1656C20.0898 28.4674 15.892 27.2603 12.5936 26.2544C9.79506 25.4497 7.69612 24.8462 5.99698 25.6509C5.49724 25.7515 5.49724 25.8521 5.39729 26.0533L3.3983 35.4082M9.69511 23.4379C10.6946 23.6391 11.7941 23.9408 12.9934 24.3432C16.1918 25.2485 20.1898 26.4556 25.5871 26.1539C33.0833 25.7515 40.1797 22.1302 43.5779 20.0178C32.0838 17.9053 24.7875 20.0178 23.4881 20.6213C21.9889 21.929 16.5916 22.8343 13.9929 23.0355C12.8935 23.1361 11.2943 23.2367 9.69511 23.4379"/>
	<path fill="white" d="M28.5855 61.7633C28.5855 61.7633 32.2837 69.0059 43.1781 69.0059C54.2725 69.0059 56.0716 61.9645 56.0716 61.9645C56.6713 62.2663 58.3704 62.0651 57.8707 63.574C56.8712 66.4911 51.7738 71.7219 43.0782 71.7219C29.7849 71.7219 26.2867 63.071 26.2867 63.071L28.5855 61.7633"/>
	<path fill="white" d="M43.3781 89.8284L51.8737 89.8284C50.1746 91.9408 48.6754 94.6568 47.7758 97.3727L51.1741 97.3727C52.3735 94.4556 54.0727 91.3372 56.2716 89.0236L56.2716 86.3076L43.478 86.3076L43.478 89.8284"/>
	<path fill="white" d="M40.6794 97.4734C39.7799 93.7514 35.8819 91.4378 32.1837 93.0473L32.8834 89.8284L39.8798 89.8284L39.8798 86.4082L29.9848 86.4082L28.0858 96.3668L30.9843 96.8698C32.6835 95.1597 35.582 94.7574 36.5815 97.3727L40.6794 97.4734"/>
	<path fill="#AA6363" d="M36.8063 46.8757C36.8063 46.8757 42.4785 47.2781 47.8757 46.8757C47.8757 46.8757 48.8752 52.6095 42.8783 52.6095C35.6819 52.6095 36.8063 46.8757 36.8063 46.8757"/>
	<path fill="#2D1B0A" d="M42.7783 53.6154C40.0797 53.6154 38.1806 52.9112 36.9812 51.4024C35.382 49.3905 35.8079 46.7751 35.8079 46.6745L36.9812 45.8698C37.0812 45.8698 42.5784 46.2722 47.7758 45.8698L48.8752 46.6745C48.8752 46.7751 49.375 49.6923 47.6759 51.7041C46.5764 53.0118 44.9772 53.6154 42.7783 53.6154C42.8783 53.6154 42.8783 53.6154 42.7783 53.6154M37.7808 47.9822C37.7808 48.5858 37.9807 49.4911 38.5804 50.1953C39.38 51.2012 40.7793 51.7041 42.8783 51.7041C44.3775 51.7041 45.4769 51.3018 46.0767 50.497C46.6764 49.7929 46.8763 48.787 46.8763 47.9822C43.1781 48.1834 39.48 48.0828 37.7808 47.9822"/>
	<path fill="#EF7373" d="M38.5804 50.7988C39.38 51.8047 40.9792 52.2071 42.4784 52.2071C43.9777 52.2071 45.6768 51.7042 46.4764 50.6982C45.4769 49.9941 39.5799 49.9941 38.5804 50.7988"/>
	<path fill="white" d="M37.2922 47.3787C37.2922 47.3787 41.5789 47.3787 43.0782 47.3787C44.5774 47.3787 47.376 47.3787 47.376 47.3787C47.376 47.3787 47.5759 48.3846 47.376 48.7869C47.276 48.9881 44.2775 49.0887 42.4785 49.0887C40.7793 49.0887 37.2922 49.0887 37.2922 49.0887C37.2922 49.0887 37.1811 47.781 37.2922 47.3787"/>
	<path fill="#351F21" d="M48.9752 30.2781C49.6748 30.2781 50.3745 30.3787 51.0741 30.4793C52.2735 30.5798 53.5729 30.781 54.7723 31.284C54.9722 31.3846 55.0721 31.4852 55.0721 31.5858C55.0721 31.787 54.8722 31.8875 54.6723 31.8875C53.5729 31.9881 52.4734 31.787 51.274 31.6863C49.7748 31.5858 48.2755 31.6863 46.8763 31.787C46.4765 31.787 45.5769 32.1893 45.4673 31.5858C45.4673 30.9822 46.0767 30.781 46.4765 30.6804C47.376 30.2781 48.1756 30.2781 48.9752 30.2781"/>
	<path fill="#351F21" d="M34.5825 30.3787C33.8828 30.3787 33.1832 30.4793 32.3836 30.5799C31.0843 30.6804 29.8849 30.8816 28.6855 31.3846C28.3856 31.4852 28.3856 31.5858 28.3856 31.6864C28.3856 31.8876 28.5855 31.9881 28.7854 31.9881C29.8849 32.0887 31.0843 31.8876 32.1837 31.7869C33.6829 31.6864 35.1822 31.7869 36.6814 31.8876C37.0812 31.8876 37.9808 32.2899 38.0904 31.6864C38.1807 31.0828 37.481 30.8816 37.0812 30.781C36.2816 30.5799 35.482 30.3787 34.5825 30.3787"/>
	<path fill="#351F21" d="M36.5814 36.6154C36.5814 37.5598 35.5522 38.3255 34.2826 38.3255C33.013 38.3255 31.9838 37.5598 31.9838 36.6154C31.9838 35.671 33.013 34.9053 34.2826 34.9053C35.5522 34.9053 36.5814 35.671 36.5814 36.6154"/>
	<path fill="#351F21" d="M52.2735 36.4142C52.2735 37.3586 51.2443 38.1243 49.9747 38.1243C48.7051 38.1243 47.6759 37.3586 47.6759 36.4142C47.6759 35.4698 48.7051 34.7041 49.9747 34.7041C51.2443 34.7041 52.2735 35.4698 52.2735 36.4142"/>
</svg>
