<?xml version="1.0" encoding="utf-8" ?>
<svg xmlns="http://www.w3.org/2000/svg" xmlns:xlink="http://www.w3.org/1999/xlink" width="76" height="106">
	<path fill="white" d="M0 106L0 102.891C0 99.6821 0.298103 83.6367 3.0804 78.3217C5.06775 74.912 8.34688 72.8061 11.4273 71.3018C11.4273 71.3018 23.6495 66.2876 23.6495 66.2876C24.3451 65.8865 25.14 65.4853 25.5375 65.0842L25.5375 63.8808C22.4571 61.5743 20.1716 58.3652 18.7805 54.6547C16.8925 54.3538 15.1039 53.1504 13.6134 51.245C11.4273 48.3368 10.533 44.3254 11.5266 40.9158C12.1228 38.7096 13.1165 37.4059 14.1102 36.7039C14.3089 18.0511 22.0596 11.3321 29.4128 9.12583C31.1021 3.81079 36.0704 0 41.7344 0C48.8889 0 54.6522 5.81646 54.6522 13.0369C54.6522 14.0397 54.5528 15.0426 54.2547 16.0454C57.9313 20.859 59.8193 27.7786 59.8193 36.5033C60.9123 37.2053 62.1048 38.509 62.8003 41.0161C63.6946 44.4257 62.8997 48.4371 60.7136 51.3453C59.3225 53.2507 57.4345 54.4541 55.5465 54.755C54.3541 57.964 52.4661 60.772 49.9819 62.9782L50.0813 64.9839C50.5781 65.4853 51.2737 65.9868 51.8699 66.2876C52.5655 66.5885 65.1852 71.6026 65.1852 71.6026C65.1852 71.6026 72.3396 74.8117 74.4263 82.2327C74.5257 82.6339 76.4137 90.1552 75.9169 102.991L75.9169 106L72.9358 106L0 106"/>
	<path fill="#684B2A" d="M51.5717 12.736C51.5717 18.2745 47.1229 22.7644 41.635 22.7644C36.147 22.7644 31.6982 18.2745 31.6982 12.736C31.6982 7.19746 36.147 2.7076 41.635 2.7076C47.1229 2.7076 51.5717 7.19746 51.5717 12.736"/>
	<path fill="#2D1B0A" d="M41.635 23.7672C35.5736 23.7672 30.7046 18.8533 30.7046 12.736C30.7046 6.61871 35.5736 1.7048 41.635 1.7048C47.6965 1.7048 52.5655 6.61871 52.5655 12.736C52.5655 18.8533 47.5971 23.7672 41.635 23.7672M41.635 3.71048C36.6667 3.71048 32.6919 7.72183 32.6919 12.736C32.6919 17.7502 36.6667 21.7616 41.635 21.7616C46.6034 21.7616 50.5781 17.7502 50.5781 12.736C50.5781 7.72183 46.5041 3.71048 41.635 3.71048"/>
	<path fill="#EAC3AA" d="M28.5185 61.3737L28.5185 67.1902C28.5185 67.1902 24.6432 76.316 38.4553 76.5166C38.4553 76.5166 49.0876 77.72 47.1002 67.1902L47.1002 61.3737L28.5185 61.3737"/>
	<path fill="#2D1B0A" d="M39.3495 77.6197C38.7533 77.6197 38.3559 77.6197 38.2565 77.6197C33.0894 77.5193 29.6115 76.2158 27.9223 73.6084C26.233 70.9007 27.1273 67.8922 27.4254 67.0899L27.4254 60.4711L47.9945 60.4711L47.9945 67.1902C48.5907 70.5999 48.0939 73.2072 46.4046 75.1125C44.4173 77.3188 41.0388 77.6197 39.3495 77.6197M29.5121 62.3765L29.5121 67.3907C29.4128 67.5913 28.3197 70.299 29.7109 72.5052C31.0027 74.4107 33.9837 75.5137 38.4552 75.6141C38.5546 75.6141 42.8274 76.0152 45.0135 73.7086C46.2059 72.3046 46.6034 70.299 46.1065 67.491L46.1065 62.4768L29.5121 62.4768"/>
	<path fill="#F7F5EC" d="M72.9358 102.59C73.4326 89.9547 71.5447 82.6339 71.5447 82.6339C69.8554 76.5166 64.5889 74.2101 64.5889 74.2101C64.5889 74.2101 64.3902 74.2101 62.0054 73.3075C59.9186 72.405 50.6775 68.6945 50.6775 68.6945C48.7895 67.7919 47.1996 65.8866 47.1996 65.8866C47.1996 65.8866 49.2863 75.4135 38 75.213C26.3324 75.0124 28.5185 65.8866 28.5185 65.8866C28.3197 67.09 25.0406 68.6945 25.0406 68.6945C25.0406 68.6945 22.4571 70.0985 19.2773 71.3019C16.0975 72.5053 8.64495 74.511 5.76329 79.5252C3.17973 84.439 2.981 102.691 2.981 102.691L72.9358 102.59"/>
	<path fill="#2D1B0A" d="M73.8779 103.694L1.9357 103.694L1.9357 102.691C1.9357 101.888 2.13443 84.1382 4.81736 79.0238C7.50029 74.3104 13.8598 72.1042 17.6358 70.8005C18.1326 70.5999 18.5301 70.4996 18.8282 70.3993C21.9086 69.2962 24.3928 67.8923 24.4921 67.8923C25.8833 67.1903 27.3738 66.2877 27.4732 65.7863L29.4605 66.1874C29.4605 66.1874 29.4605 66.2877 29.4605 66.2877C29.3612 66.6889 28.9637 69.4968 30.5536 71.6028C31.9447 73.4079 34.4289 74.3104 38 74.4107C41.3846 74.511 43.6701 73.6084 45.0612 72.0039C46.9492 69.6974 46.353 66.2877 46.2537 66.2877L45.4587 62.6775L47.9429 65.4855C47.9429 65.4855 49.5328 67.1903 51.1227 67.9925C51.4208 68.0928 60.3639 71.703 62.4506 72.6056C64.0405 73.2073 64.5373 73.4079 64.736 73.4079C65.2329 73.6084 70.7975 76.0152 72.5861 82.5337C72.6854 82.8345 74.4741 90.1553 73.9772 102.791M3.92305 101.688L71.8905 101.688C72.288 89.9547 70.4994 82.9348 70.4994 82.9348C69.1082 77.7201 64.8354 75.5138 64.2392 75.213C63.9411 75.1127 63.2455 74.9121 61.6556 74.3104C59.5689 73.4079 50.4271 69.6974 50.3277 69.6974C49.6322 69.2962 48.9366 68.8951 48.3404 68.3937C48.241 69.7976 47.8435 71.703 46.5518 73.2073C44.7631 75.4135 41.8815 76.4164 37.9068 76.4164C33.7333 76.3161 30.6529 75.1127 28.9637 72.9064C27.8706 71.5025 27.4732 69.8979 27.3738 68.6945C26.6782 69.1959 25.9827 69.4968 25.3865 69.7976C25.2871 69.7976 22.8029 71.2016 19.5238 72.405C19.1263 72.5053 18.7288 72.7059 18.232 72.8062C14.7541 74.0096 8.89143 76.0152 6.50661 80.1269C4.41989 84.038 4.02242 97.7768 3.92305 101.688"/>
	<path fill="#FFE48F" d="M58.7962 102.39C57.9019 73.4076 61.976 73.4076 61.3798 73.1068C60.6842 72.6054 56.312 71.2014 54.9209 70.4994C54.0266 69.998 48.8595 90.155 38.0284 89.7539C27.0979 89.5533 23.322 69.5969 20.8378 70.2807C20.341 70.8003 19.6454 71.0008 19.1485 71.2014C18.2542 71.402 16.7637 71.9034 15.2732 72.6054C20.1422 83.6365 17.8568 102.289 17.8568 102.289L58.7962 102.39"/>
	<path fill="#2D1B0A" d="M59.8046 103.373L16.5659 103.273L16.6653 102.169C16.6653 101.969 18.9515 83.7173 14.1803 72.9869L14.6773 71.6832C16.1683 71.0815 17.6593 70.4798 18.6533 70.2792C19.2497 70.0787 19.6473 69.8781 19.9455 69.5772C22.1322 68.8753 23.0268 70.8809 24.816 74.6917C27.4004 80.2073 31.277 88.6312 37.9368 88.7315C45.5905 89.0323 50.2623 78.0011 52.5485 72.6861C53.5425 70.3795 53.8407 69.7778 54.4371 69.477C55.8286 69.8781 57.1208 70.3795 58.3136 70.7806C60.2022 71.4826 61.1962 71.8838 61.6932 72.0843C62.2896 73.1875 62.0908 73.5886 61.9914 73.7892C60.0034 76.898 59.2082 87.2272 59.6058 102.27L59.8046 103.373M18.8521 101.267L57.8166 101.367C57.5184 91.038 57.7172 78.5025 60.1028 73.5886C59.5064 73.2878 58.6118 72.9869 57.8166 72.7863C56.8226 72.4855 55.928 72.0843 55.2322 71.7835C55.0334 72.2849 54.7353 72.9869 54.4371 73.5886C51.9521 79.3048 46.8827 91.1383 37.9368 90.8374C30.0842 90.7371 25.9094 81.6113 23.1262 75.6946C22.4305 74.09 21.5359 72.1846 20.9395 71.5829C20.5419 71.8838 20.0449 71.9841 19.7467 72.1846C18.7527 72.3852 17.7587 72.6861 16.5659 73.1875C20.3431 82.8147 19.2497 97.1553 18.8521 101.267M54.4371 71.3824C54.4371 71.3824 54.4371 71.4826 54.4371 71.3824C54.4371 71.4826 54.4371 71.3824 54.4371 71.3824"/>
	<path fill="#FAD1B6" d="M20.0984 39.9128C20.0984 39.9128 15.8256 35.8012 14.3351 41.5174C12.8446 47.033 17.5149 52.9497 20.8934 51.3452C23.3776 61.5742 32.2212 64.8835 37.0881 64.8835C42.0587 64.8835 50.8031 61.5742 53.2873 51.3452C56.5664 52.9497 61.336 47.033 59.8455 41.5174C58.3549 35.8012 54.0821 39.9128 54.0821 39.9128C54.1816 26.9762 53.784 16.647 37.0881 16.647C20.3965 16.647 19.9991 26.9762 20.0984 39.9128"/>
	<path fill="#2D1B0A" d="M37.088 65.7861C31.7976 65.7861 23.0533 62.2762 20.1716 52.5486C18.9792 52.7492 17.6874 52.2478 16.3957 51.245C14.1102 49.2393 12.3216 45.2279 13.3153 41.2166C13.9115 39.1106 14.9051 37.8069 16.3957 37.5061C17.3893 37.3055 18.2836 37.6064 19.0786 38.0075C19.0786 30.2856 19.5754 23.9678 23.5501 19.9564C26.4318 17.0482 30.804 15.6442 37.088 15.6442C43.3243 15.6442 47.6965 17.0482 50.5781 19.9564C54.5528 23.9678 55.0497 30.1854 55.0497 38.0075C55.8446 37.6064 56.7389 37.3055 57.7326 37.5061C59.2231 37.8069 60.2168 39.0103 60.813 41.2166C61.906 45.2279 60.1174 49.2393 57.7326 51.245C56.5402 52.2478 55.2484 52.7492 53.9566 52.5486C51.075 62.2762 42.3306 65.7861 37.088 65.7861M21.4634 49.841L21.7615 51.0444C24.047 60.3708 32.1951 63.7804 37.088 63.7804C41.9331 63.7804 49.9819 60.3708 52.3667 51.0444L52.6648 49.841L53.7579 50.3424C54.8509 50.8438 56.0433 50.0416 56.4408 49.6404C58.2294 48.1362 59.7199 44.8268 58.8256 41.718C58.6269 40.8154 58.1301 39.7123 57.3351 39.5117C56.4408 39.2109 55.149 40.2137 54.7516 40.6149L52.9629 42.8211L52.9629 39.9129C53.0623 31.6896 52.7642 25.1712 49.0876 21.3604C46.6034 18.8533 42.6287 17.6499 36.9648 17.6499C31.3008 17.6499 27.3261 18.8533 24.8419 21.3604C21.0659 25.1712 20.8672 31.6896 20.9666 39.9129L20.9666 42.8211L19.1779 40.6149C18.7805 40.314 17.4887 39.3112 16.5944 39.5117C15.7994 39.7123 15.402 40.8154 15.1039 41.718C14.3089 44.8268 15.7001 48.1362 17.4887 49.6404C17.9855 50.0416 19.1779 50.8438 20.1716 50.3424L21.4634 49.841"/>
	<path fill="#351F21" d="M32.1951 42.3198C32.1951 43.4275 31.0829 44.3255 29.7109 44.3255C28.3389 44.3255 27.2267 43.4275 27.2267 42.3198C27.2267 41.2121 28.3389 40.3141 29.7109 40.3141C31.0829 40.3141 32.1951 41.2121 32.1951 42.3198"/>
	<path fill="#351F21" d="M47.3984 42.1192C47.3984 43.2269 46.2862 44.1249 44.9142 44.1249C43.5422 44.1249 42.43 43.2269 42.43 42.1192C42.43 41.0115 43.5422 40.1135 44.9142 40.1135C46.2862 40.1135 47.3984 41.0115 47.3984 42.1192"/>
	<path fill="#EF7373" d="M32.3938 54.755C32.3938 54.755 32.5926 54.9556 32.3938 55.1561C32.3938 55.1561 33.0894 56.7618 37.4616 56.7618C37.4616 56.7618 41.5357 56.861 42.4299 55.1561C42.4299 55.1561 42.3306 54.9556 42.3306 54.755C42.2312 54.755 37.7597 56.7618 32.3938 54.755"/>
	<path fill="#7C4620" d="M24.0469 38.0076L31.897 37.3056L31.897 35.1996C31.897 35.1996 25.3387 35.701 24.1463 36.6036C23.7488 36.9044 24.0469 38.0076 24.0469 38.0076"/>
	<path fill="#7C4620" d="M50.28 38.0076L42.5293 37.3056L42.5293 35.1996C42.5293 35.1996 49.0876 35.701 50.28 36.6036C50.5781 36.9044 50.28 38.0076 50.28 38.0076"/>
	<path fill="#684B2A" d="M36.5674 32.3918L35.9711 36.2026L25.8357 36.1023L24.4445 30.1856L23.8483 36.002L17.0913 36.2026C17.0913 26.2745 19.7742 10.6302 37.0642 10.8289C54.1554 11.0314 56.8383 26.2745 56.8383 36.3029L37.561 36.4032L36.5674 32.3918"/>
	<path fill="#2D1B0A" d="M36.6667 37.4058L25.0406 37.105L24.7425 36.0019L15.9982 37.2053L15.9982 36.2024C15.9982 26.4749 18.383 19.3548 22.8546 14.9423C26.3324 11.5326 31.1021 9.9239 36.8654 9.9239C50.28 10.1286 57.6332 19.5553 57.6332 36.403L57.6332 37.4058L36.6667 37.4058M36.4679 27.1769L38.2565 35.4002L55.7452 35.2999C55.5465 24.4692 52.0686 12.034 36.9648 11.8335C31.6983 11.7332 27.4255 13.2375 24.3451 16.246C20.3704 20.157 18.2837 26.4749 18.0849 35.0993L22.9539 34.999L24.1463 24.369L26.7299 35.1996L35.1761 35.2999L36.4679 27.1769"/>
</svg>
