<?xml version="1.0" encoding="utf-8" ?>
<svg xmlns="http://www.w3.org/2000/svg" xmlns:xlink="http://www.w3.org/1999/xlink" width="96" height="110">
	<path fill="white" d="M0.601519 109.799L0 106.172C0 103.755 0.401012 82.7015 4.11038 76.2546C7.41873 70.4121 15.038 67.5916 19.9504 65.5769C28.1711 62.3535 33.0835 59.3315 33.5848 58.5256C33.4845 57.4176 33.4845 56.3095 33.5848 55.4029C30.2764 51.978 28.7726 48.4524 28.0709 46.2363C26.7676 45.6319 25.4643 44.5238 24.8628 42.7106C24.6623 42.3077 24.4618 41.804 24.161 41.3004C22.958 38.9835 21.3539 35.9615 22.3564 33.3425C22.6572 32.5366 22.5569 32.4359 23.359 31.9322C22.4567 29.7161 21.2537 26.6941 21.2537 23.2692C21.2537 14.8077 25.364 0 40.803 0C42.6076 0 44.5124 0.302198 46.6177 0.705128C47.7205 0.40293 49.7255 0 52.1316 0C58.0465 0 71.9817 2.61905 72.2825 26.6941L71.0794 26.7949C70.9792 28.1044 70.8789 29.5147 70.5782 31.0256C71.3802 31.7308 71.8815 32.8388 71.9817 34.0476C72.2825 36.9689 70.1772 42.6099 68.5731 44.4231C68.1721 44.9267 67.0693 46.0348 65.5655 46.7399C64.964 48.7546 63.6607 51.6758 61.2546 54.6978L61.5554 58.6264C62.9589 60.8425 82.408 68.4982 82.408 68.4982C83.2101 68.8004 86.0172 70.0092 88.8242 72.8297C91.4308 75.2473 93.2354 78.2692 94.0374 81.7949C94.1377 82.0971 96.644 91.3645 95.842 107.079L95.7417 110L0.601519 109.799"/>
	<path fill="#FAD1B6" d="M57.6456 52.1796L58.1469 59.8353C58.1469 59.8353 54.1367 66.4836 51.1292 68.6997C48.5227 71.3188 46.8182 72.0239 46.8182 72.0239C46.8182 72.0239 38.5975 66.0807 37.194 61.7492C35.7905 57.7199 36.6927 52.3811 36.6927 52.3811C36.6927 52.3811 38.397 54.7986 43.0087 57.1155C47.5201 59.5331 48.8233 58.0221 50.7281 57.6192C52.9338 57.2162 57.6456 52.1796 57.6456 52.1796"/>
	<path fill="#2D1B0A" d="M46.7181 73.132C46.0163 72.6283 37.7956 66.6851 36.2918 62.0514C34.788 57.8206 35.6903 52.3811 35.7905 52.1796L36.1915 49.762L37.5951 51.6759C37.5951 51.6759 39.2994 53.8921 43.51 56.1082C46.7181 57.8206 47.9211 57.4177 49.2244 56.9141C49.6254 56.8133 50.0265 56.6119 50.5277 56.5111C51.831 56.3097 55.1394 53.3884 57.0442 51.3737L58.6482 49.6613L59.35 59.936C58.949 60.5404 55.0391 66.9873 51.9313 69.3042C49.2244 72.0239 47.4199 72.7291 47.3196 72.8298M37.4948 54.5972C37.3946 56.4104 37.3946 59.1302 38.1966 61.3463C39.1991 64.469 44.5125 68.9012 47.0189 70.8151C47.6204 70.4122 48.9237 69.6064 50.628 67.9946C53.1343 66.0807 56.5429 60.8426 57.3449 59.5331L57.0442 54.3957C55.3399 56.0075 52.7333 58.2236 51.1292 58.5258C50.8285 58.6265 50.5277 58.7272 50.1267 58.828C48.6229 59.3316 46.8184 60.0368 42.8082 57.9214C40.1014 56.8133 38.4974 55.6045 37.4948 54.5972"/>
	<path fill="#F9F9F9" d="M91.7816 105.769C92.4834 90.2565 90.0773 81.2913 90.0773 81.2913C88.1725 73.5349 81.3553 70.9158 81.3553 70.9158C81.3553 70.9158 81.1548 70.9158 78.1472 69.707C75.1396 68.4982 63.6105 63.8645 63.6105 63.8645C61.9062 62.1521 58.9989 60.2382 58.9989 60.2382C58.2971 65.3755 48.0713 71.8223 48.0713 71.8223C39.3493 69.707 35.4394 60.2382 35.4394 60.2382C33.5346 62.3535 31.5295 62.8572 31.5295 62.8572C31.5295 62.8572 27.6197 65.2748 23.5093 66.685C19.5994 68.3975 9.87487 71.0166 6.46626 77.0605C3.05766 83.1045 2.7569 105.568 2.7569 105.568L91.7816 105.769"/>
	<path fill="#2D1B0A" d="M92.7342 106.777L1.8046 106.676L1.8046 105.669C1.8046 104.762 2.20561 82.8022 5.61422 76.6575C8.52156 71.4194 15.7398 68.6996 20.4517 66.8864C21.4542 66.4835 22.3565 66.1813 23.0583 65.8791C27.0684 64.4689 30.878 62.0513 30.878 62.0513C31.1788 61.9505 32.8831 61.4469 34.5874 59.6337L35.6901 58.4249L36.2917 59.9359C36.2917 60.0366 40.001 68.6996 47.8208 70.815C50.8284 68.9011 57.4451 63.7637 57.9463 60.1374L58.1468 58.5256L59.4501 59.4322C59.5504 59.533 62.2572 61.3461 64.0618 63.0586C65.5656 63.663 75.6911 67.6923 78.398 68.8004C80.403 69.6062 81.1048 69.9084 81.3053 69.9084C81.9068 70.1099 88.8243 72.9304 90.9296 81.0897C91.0299 81.3919 93.4359 90.3571 92.7342 105.87M3.80966 104.661L90.7291 104.762C91.3306 90.1557 89.0248 81.6941 89.0248 81.5934C87.3205 74.7436 81.5058 72.1245 81.0045 71.9231C80.6035 71.8223 79.8015 71.5201 77.7964 70.7143C74.8891 69.5055 63.36 64.9725 63.2597 64.8718C61.9565 63.663 60.5529 62.6557 59.6506 61.9505C57.6456 66.9872 49.6253 72.1245 48.6228 72.7289C40.6025 71.0165 36.5924 64.6703 35.1889 61.9505C33.7853 63.1593 32.482 63.663 31.9808 63.8645C31.279 64.2674 27.6699 66.4835 23.8603 67.793C23.1585 68.0952 22.2562 68.3974 21.2537 68.9011C16.7423 70.6135 10.0253 73.2326 7.41877 77.7656C4.61169 82.6007 3.90991 100.229 3.80966 104.661"/>
	<path fill="#FAD1B6" d="M47.5367 59.0293C47.5367 59.0293 40.9199 58.1227 36.1078 53.0861C31.0951 48.0494 30.4936 43.0128 30.4936 43.0128C30.4936 43.0128 28.3883 43.2143 27.5863 40.8974C26.5838 38.4798 23.0749 33.7454 26.283 32.5366C26.283 32.5366 27.887 31.8315 28.6891 33.4432C29.2906 34.8535 29.9924 37.7747 30.2931 38.1776C30.4936 38.3791 31.5964 37.4725 31.0951 31.0256C31.0951 31.0256 29.7919 26.2912 34.8045 24.5787C39.6166 22.8663 46.0328 23.1685 48.1381 21.7582C50.0429 20.348 57.2612 22.4634 58.765 21.0531C58.765 21.0531 61.6723 22.2619 61.8728 26.2912C62.4743 30.3205 62.4743 37.674 63.4769 38.3791C64.4794 38.8828 64.2789 34.7527 65.0809 33.3425C65.8829 31.9322 68.5899 31.2271 68.8037 33.5439C68.9909 35.9615 66.8856 40.9982 66.0835 41.7033C65.2814 42.6099 63.6775 43.8187 62.9756 43.1135C62.9756 43.1135 62.1737 48.3516 57.6622 53.0861C53.1508 58.1227 49.1407 59.0293 47.5367 59.0293"/>
	<path fill="#2D1B0A" d="M47.526 60.0366C47.1248 60.0366 40.4062 59.0293 35.3922 53.7912C31.2808 49.7619 30.0775 45.7326 29.6763 44.0202C28.5733 43.8187 27.2697 43.1136 26.668 41.3004C26.4674 40.8974 26.1666 40.2931 25.8658 39.6887C24.7627 37.5733 23.4591 35.1557 24.161 33.3425C24.3616 32.8388 24.863 32.1337 25.8658 31.63C26.7683 31.2271 28.5733 31.2271 29.4758 33.0403C29.6763 33.544 29.8769 34.1484 30.0775 34.7528C30.0775 33.8462 30.0775 32.7381 29.9772 31.2271C29.4758 29.2125 29.6763 25.2839 34.3894 23.6722C36.8964 22.7656 39.7042 22.4634 42.2112 22.1612C44.5176 21.859 46.6234 21.5568 47.526 21.0531C48.7293 20.1465 51.136 20.348 53.6429 20.5495C55.1471 20.6502 57.6541 20.8517 58.0552 20.4487L59.1583 20.2473C59.2586 20.348 62.668 21.7582 62.9689 26.2912C63.1694 27.6007 63.2697 29.5147 63.37 31.3279C63.4703 32.3352 63.5705 33.6447 63.6708 34.7528C63.7711 34.0476 63.9717 33.4432 64.1722 32.9396C64.8742 31.7308 66.4786 30.9249 67.8825 31.2271C68.9856 31.4286 69.6875 32.3352 69.8012 33.544C69.9884 36.163 67.8825 41.4011 66.7795 42.4084C66.4786 42.7106 65.0747 44.2216 63.6708 44.3224C63.1694 46.1355 61.8658 50.0641 58.356 53.7912C53.0413 59.7344 48.4285 60.0366 47.526 60.0366M31.2808 42.0055L31.3811 43.0128C31.3811 43.0128 31.9828 47.7473 36.6959 52.4817C41.0078 56.9139 46.824 58.022 47.526 58.1227C48.2279 58.1227 52.1388 57.7198 56.7516 52.7839C60.9633 48.2509 61.7655 43.315 61.7655 43.315L62.0664 41.5018L63.4703 42.7106C63.6708 42.7106 64.473 42.207 65.175 41.4011C65.8769 40.696 67.8825 36.163 67.682 34.0476C67.682 33.544 67.4814 33.544 67.3811 33.4432C66.8797 33.3425 66.1778 33.7454 65.8769 34.2491C65.6764 34.652 65.4758 35.7601 65.3756 36.5659C65.175 38.0769 64.9744 39.185 64.1722 39.6887C63.7711 39.8901 63.37 39.8901 62.9689 39.6887C61.8658 38.8828 61.6652 36.8681 61.3644 31.7308C61.2641 29.9176 61.0636 28.1044 60.9633 26.7949C60.863 24.2766 59.4591 23.0678 58.8574 22.5641C57.6541 23.0678 55.7488 22.967 53.5427 22.7656C51.7377 22.6648 49.331 22.4634 48.7293 22.967C47.4257 23.8736 45.2195 24.0751 42.512 24.478C40.1053 24.7802 37.3978 25.0824 35.0914 25.8883C31.0802 27.1978 31.8825 30.7235 31.9828 31.1264C32.3839 36.0623 31.9828 38.7821 30.7794 39.3865C30.3783 39.5879 29.8769 39.5879 29.4758 39.2857C29.1749 38.7821 28.9744 38.3791 28.5733 37.0696C28.2724 36.163 27.8713 34.9542 27.6708 34.2491C27.4702 33.8462 27.0691 33.7454 26.668 33.9469C26.2669 34.1484 26.0663 34.3498 26.0663 34.4506C25.6652 35.4579 26.8685 37.674 27.6708 39.0843C27.9716 39.7894 28.3727 40.3938 28.5733 40.8974C29.0747 42.5092 30.3783 42.4084 30.4786 42.4084"/>
	<path fill="#684B2A" d="M46.4171 3.22354C46.4171 3.22354 68.6733 -4.02921 68.974 26.1905C68.974 26.1905 68.3725 21.859 67.37 20.8517C67.37 20.8517 69.3751 28.306 65.1644 35.2565C65.1644 35.2565 65.1644 29.9177 64.3624 27.8022C64.3624 27.8022 63.5604 25.3848 63.3599 30.7235C63.3599 30.7235 44.9133 28.8097 36.9933 22.9671C36.9933 22.9671 34.1862 26.6943 34.1862 30.2198C34.1862 30.2198 31.3791 30.2198 29.7751 25.3848C29.7751 25.3848 29.1736 31.2272 30.7776 35.2565C30.7776 35.2565 23.9604 30.4213 25.5644 18.9378C25.5644 18.9378 24.7624 19.7437 23.9604 21.859C23.9604 21.9599 24.1609 -1.91382 46.4171 3.22354"/>
	<path fill="#2D1B0A" d="M64.1619 38.9835L64.1619 35.3572C64.1619 34.652 64.1619 33.3425 64.0617 31.9323C62.5579 31.7308 45.7154 29.9176 37.1938 24.4781C36.3918 25.6868 35.1888 28.1044 35.1888 30.3205L35.1888 31.3279L34.1862 31.3279C34.086 31.3279 32.3817 31.3279 30.6774 29.3132C30.7776 31.1264 30.9781 33.2418 31.6799 34.9542L32.9832 38.077L30.1761 36.0623C29.8754 35.8608 24.7625 32.1337 24.3614 23.5715L22.9579 27.3993L22.9579 21.7583C22.9579 21.2546 23.2587 10.3755 30.4769 4.63373C34.487 1.41028 39.9007 0.503692 46.5174 2.01468C48.0212 1.61175 55.6404 -0.20144 61.8561 4.2308C67.1695 8.05864 69.9766 15.4121 70.0769 25.989L68.8738 26.0898C68.7736 28.8096 68.0718 32.3352 66.0667 35.6594L64.1619 38.9835M26.968 16.218L26.567 19.1392C25.765 25.1832 27.2688 29.2125 28.8728 31.6301C28.4718 28.4066 28.7726 25.4854 28.7726 25.2839L29.2738 20.6502L30.7776 25.0824C31.5797 27.3993 32.5822 28.4066 33.3842 28.9103C33.8855 25.5861 36.1913 22.5641 36.2916 22.4634L37.6951 22.2619C44.3118 27.0971 58.5477 29.2125 62.5579 29.7161C62.6581 27.5 63.0591 26.4927 63.9614 26.392C64.5629 26.2912 65.1645 26.6942 65.4652 27.6008C65.766 28.5074 65.9665 29.8169 66.167 31.1264C67.771 25.8883 66.568 21.2546 66.568 21.2546L65.6657 17.729L67.6708 19.6429C66.7685 13.2967 64.3624 8.76376 60.7533 6.04398C54.7381 1.71248 46.9184 4.13007 46.9184 4.13007C40.2014 2.71981 35.289 3.42494 31.6799 6.34618C27.8703 9.36816 26.2662 14.2033 25.5645 17.6282L26.968 16.218"/>
	<path fill="#3F3F3F" d="M92.3981 106.374C93.0999 90.8608 90.6938 81.8957 90.6938 81.8957C88.789 74.1392 81.9718 71.5202 81.9718 71.5202C81.9718 71.5202 81.7713 71.5202 78.7637 70.3114C75.7561 69.1026 67.8361 65.577 67.8361 65.577L48.387 98.5166C44.5774 92.674 24.226 67.3901 24.226 67.3901C24.226 67.3901 10.5916 71.7216 7.18296 77.7655C3.77436 83.8095 3.4736 106.273 3.4736 106.273L92.3981 106.374"/>
	<path fill="#2D1B0A" d="M93.4008 107.381L2.4712 107.28L2.4712 106.273C2.4712 105.366 2.87221 83.4066 6.28082 77.2619C9.78968 71.0165 23.3238 66.5843 23.8251 66.3828L24.9279 66.685C25.7299 67.6923 42.9734 89.1484 48.1866 96.6026L67.3349 64.2674C68.2372 64.6703 76.1572 68.196 79.0646 69.4048C81.0696 70.2106 81.7714 70.5128 81.9719 70.5128C82.5734 70.7143 89.4909 73.5348 91.5962 81.6941C91.6965 81.9963 94.1025 90.9615 93.4008 106.474M4.57651 105.266L91.4959 105.366C92.0975 90.8608 89.7916 82.2985 89.7916 82.1978C88.0873 75.348 82.2727 72.7289 81.7714 72.5275C81.3704 72.4267 80.5684 72.1245 78.5633 71.3187C76.1572 70.3114 70.543 67.793 68.3375 66.8865L48.4874 100.43L47.5851 99.1209C44.1765 93.8828 26.933 72.326 23.9254 68.5989C21.2185 69.5055 10.8925 73.4341 8.08537 78.2692C5.27829 83.2051 4.67677 100.833 4.57651 105.266"/>
	<path fill="#FF6050" d="M49.4247 78.7729C49.8258 78.37 52.2318 75.348 52.2318 74.1392C51.9311 72.729 47.9209 70.2106 47.9209 70.2106C47.9209 70.2106 43.9108 72.5275 43.9108 74.1392C43.9108 75.8517 47.0187 79.0751 47.2192 79.0751L44.1113 84.9176L46.0161 96.4011L50.5275 96.4011L52.3321 84.9176L49.4247 78.7729"/>
	<path fill="#2D1B0A" d="M51.4298 97.4084L45.2141 97.4084L43.0085 84.7161L46.0161 79.2765C44.7128 77.967 43.0085 75.4487 43.0085 74.1392C43.0085 72.0238 46.4172 69.9084 47.5199 69.304L48.5225 69.304C49.8258 70.1099 52.9336 72.326 53.2343 73.9377C53.2343 75.5494 51.5301 77.8663 50.6278 78.9743L53.3346 84.8168L51.4298 97.4084M46.9184 95.3937L49.7255 95.3937L51.3296 85.0183L48.4222 78.9743L45.2141 85.0183L46.9184 95.3937M47.6202 78.0677L48.723 78.0677C49.2242 77.5641 51.0288 75.1465 51.2293 74.2399C50.9285 73.6355 49.525 72.4267 47.9209 71.3186C46.3169 72.326 45.0136 73.5348 45.0136 74.0384C45.0136 75.0458 46.8182 77.3626 47.6202 78.0677"/>
	<path fill="#6B6B6B" d="M69.7762 74.1392L69.1747 66.1813L61.6557 62.7564L59.4502 74.2399L48.0213 96.1996L34.8882 74.3406L32.6826 62.8571L25.1636 66.3828L24.5621 74.3406L31.6801 74.7436L25.5646 81.3919L47.9211 98.6172L69.676 80.6868L63.1595 74.5421"/>
	<path fill="#2D1B0A" d="M48.0214 99.9267L24.1611 81.5934L29.5748 75.6501L23.5596 75.3479L24.2614 65.7783L33.4847 61.5476L35.8907 74.1391L48.0214 94.1849L58.5479 73.9377L60.954 61.3461L70.1773 65.5769L70.8791 75.1465L65.6659 75.4487L71.2801 80.7875L48.0214 99.9267M27.0685 81.2912L47.2193 96.804L33.9859 74.7435L27.0685 81.2912M62.3575 64.1666L60.2522 74.7435L48.9236 96.6025L68.1722 80.6868L60.7535 73.7362L68.5732 73.3333L68.072 66.9871L62.3575 64.1666M25.6649 73.434L33.7854 73.8369L31.9809 64.3681L26.1662 67.0879L25.6649 73.434"/>
	<path fill="#BF7777" d="M42.407 49.9634C42.407 49.9634 42.6075 50.1649 42.407 50.3664C42.407 50.3664 43.0085 51.8786 47.1189 51.8786C47.1189 51.8786 50.9285 51.9781 51.7306 50.3664C51.7306 50.3664 51.6303 50.1649 51.6303 49.9634C51.5301 49.9634 47.4197 51.9781 42.407 49.9634"/>
	<path fill="#351F21" d="M56.643 35.8608C56.643 36.6397 55.7004 37.2711 54.5377 37.2711C53.375 37.2711 52.4324 36.6397 52.4324 35.8608C52.4324 35.0819 53.375 34.4505 54.5377 34.4505C55.7004 34.4505 56.643 35.0819 56.643 35.8608"/>
	<path fill="#351F21" d="M42.407 35.8608C42.407 36.6397 41.4644 37.2711 40.3017 37.2711C39.139 37.2711 38.1964 36.6397 38.1964 35.8608C38.1964 35.0819 39.139 34.4505 40.3017 34.4505C41.4644 34.4505 42.407 35.0819 42.407 35.8608"/>
	<path fill="#351F21" d="M35.0886 31.9322C35.3893 31.1264 35.9908 30.9249 36.5924 30.9249C37.3944 30.9249 38.2966 30.9249 39.0987 30.9249C39.9007 30.9249 40.7027 30.9249 41.5047 31.2271C42.1063 31.5293 42.6075 31.9322 43.209 32.4359"/>
	<path fill="#351F21" d="M59.4501 31.7308C59.1493 31.0256 58.5478 30.9249 57.9463 30.9249C57.1442 30.9249 56.242 30.8242 55.4399 30.8242C54.6379 30.8242 53.8359 30.8242 53.0339 31.0256C52.4323 31.2271 51.8308 31.63 51.3296 31.9322"/>
</svg>
