<?xml version="1.0" encoding="utf-8" ?>
<svg xmlns="http://www.w3.org/2000/svg" xmlns:xlink="http://www.w3.org/1999/xlink" width="86" height="106">
	<path fill="white" d="M0 103.179C0 99.6521 0.502484 81.5152 3.61789 75.7719C6.5323 70.3308 13.5671 67.711 18.1899 66.0989C19.0944 65.7966 19.7979 65.4943 20.5014 65.192C21.0039 64.9905 21.4058 64.789 21.8078 64.6882C22.3103 64.2852 22.8128 63.9829 23.5163 63.6806C24.2198 63.4791 24.8227 63.1768 25.4257 62.9753L28.4406 61.2624C28.8426 61.2624 29.0436 61.1616 29.2446 61.0608C27.2347 58.9449 25.5262 56.3251 24.2198 53.5038C22.4108 53 20.6019 51.6901 19.1949 50.0779C17.587 48.2643 16.4815 46.0475 16.18 43.9316C15.8785 42.0171 16.2805 40.2034 17.185 38.7928C17.0845 38.4905 16.984 38.0875 16.8835 37.6844C16.18 37.2814 15.175 36.576 14.6725 35.1654C14.0696 33.3517 14.8735 31.4373 15.4765 29.9259C15.577 29.8251 15.577 29.6236 15.6775 29.5228C15.577 29.4221 15.577 29.2205 15.4765 29.1198C15.0745 28.2129 14.6725 27.2053 14.6725 26.097C14.6725 24.4848 15.6775 23.1749 16.783 21.7643C16.8835 21.6635 16.8835 21.6635 16.984 21.5627C16.984 21.462 16.984 21.2605 16.8835 21.1597C16.6825 19.6483 16.381 17.9354 16.8835 16.6255C17.587 14.6103 19.4964 13.8042 21.1043 13.1996C21.4058 11.4867 21.7073 10.1768 22.1093 9.37072C23.3153 6.75095 26.9332 6.54943 30.1491 6.34791C30.2496 6.14639 30.3501 5.94487 30.4506 5.74335C30.8525 4.93726 31.2545 3.92966 31.958 3.12357C32.762 2.21673 33.767 1.81369 34.8724 1.81369C35.6764 1.81369 36.4804 2.11597 37.0834 2.31749C37.7868 2.61977 38.4903 2.82129 39.6963 2.82129C39.9978 2.82129 40.3998 2.82129 40.8017 2.72053C41.6057 2.61977 41.9072 2.51901 42.1082 2.41825C42.4097 1.81369 43.4147 0 46.1281 0C48.138 0 49.344 0.806084 50.1479 1.30989C50.7509 1.71293 51.1529 1.91445 51.9569 2.11597C52.2584 2.21673 52.5599 2.21673 52.7609 2.21673C52.9619 2.21673 52.9619 2.21673 53.2634 2.11597C53.6653 2.01521 54.2683 1.81369 55.0723 1.81369C55.7758 1.81369 56.4793 1.91445 57.2832 2.11597C60.2981 2.92205 61.1021 5.44106 61.5041 6.75095C61.5041 6.85171 61.6046 7.05323 61.7051 7.25475C64.72 8.36312 67.5339 11.2852 67.4334 15.8194C68.5389 16.2224 70.3478 17.0285 71.7548 19.346C73.5637 22.2681 72.8602 24.1825 71.9558 25.5932C71.9558 25.6939 72.0563 25.8954 72.1568 26.097C73.0612 27.8099 73.6642 30.2281 72.0563 32.3441C72.8602 34.5608 72.2573 37.2814 71.4533 39.3973C72.2573 42.0171 71.6543 45.3422 69.8453 48.1635C68.1369 50.7833 65.725 52.597 63.313 53C61.9061 56.3251 59.8961 59.1464 57.5847 61.4639C58.2882 61.8669 59.1927 62.27 59.9966 62.5722C60.8006 62.7738 61.4036 62.9753 62.1071 63.4791C65.725 64.789 70.0463 66.5019 71.9558 67.4087C73.0612 67.8118 73.5637 68.0133 73.8652 68.1141C74.8702 68.4163 82.2065 71.5399 84.3169 79.8023C84.4174 80.2053 86.6283 88.8707 85.8243 103.078L85.7238 106L0 106L0 103.179"/>
	<path fill="#684B37" d="M27.8968 41.6828C30.4704 44.5262 31.024 48.2257 29.1334 49.9459C27.2428 51.6661 23.6239 50.7556 21.0504 47.9123C18.4768 45.0689 17.9232 41.3695 19.8137 39.6493C21.7043 37.929 25.3232 38.7795 27.8968 41.6828"/>
	<path fill="#2D1B0A" d="M26.8327 51.7909C24.7223 51.7909 22.4109 50.682 20.5014 48.565C19.0944 47.0528 18.19 45.2382 17.9035 43.5244C17.6875 41.609 18.19 39.996 19.396 38.8871C20.6019 37.7435 22.2099 37.4757 24.1193 37.9798C25.8278 38.383 27.5362 39.492 28.9431 41.0041C31.958 44.3309 32.4605 48.565 30.0486 50.682C29.0436 51.4885 28.0387 51.7909 26.8327 51.7909M22.4109 39.7944C21.7074 39.7944 21.1044 39.996 20.6019 40.3993C19.8984 41.0041 19.6974 42.0122 19.8984 43.222C20.0994 44.6333 20.8029 46.0447 21.9084 47.2544C24.0188 49.6739 27.1342 50.4804 28.5411 49.1698C30.0486 47.8593 29.4456 44.7341 27.2347 42.3147C26.1292 41.1049 24.8228 40.1976 23.4158 39.8952C23.1143 39.7944 22.8128 39.7944 22.4109 39.7944"/>
	<path fill="#684B37" d="M66.7521 38.1546C68.896 39.5446 68.9481 43.2852 66.8686 46.5094C64.789 49.7336 61.3653 51.2206 59.2214 49.8306C57.0776 48.4406 57.0254 44.7001 59.1049 41.4758C61.1845 38.2516 64.6082 36.7646 66.7521 38.1546"/>
	<path fill="#2D1B0A" d="M61.2026 51.3879C60.2981 51.3879 59.4941 51.1864 58.7906 50.6826C56.1777 48.9697 55.9767 44.6369 58.3887 40.9088C60.8006 37.1807 64.72 35.5685 67.4333 37.2814C70.0462 38.9944 70.2473 43.3271 67.8354 47.0552C66.1269 49.7757 63.514 51.3879 61.2026 51.3879M60.0971 42.0172C58.3887 44.7377 58.2882 47.8613 59.8961 48.9697C61.5041 50.078 64.4185 48.6674 66.1269 45.9468C67.8354 43.2263 67.9359 40.1027 66.3279 38.9944C64.6195 37.9868 61.8055 39.3974 60.0971 42.0172"/>
	<path fill="#7C5D48" d="M32.1589 58.0381L32.1589 62.27C32.1589 62.27 30.35 64.2852 24.2197 66.5043C18.2904 68.7187 34.1689 75.1674 43.0126 74.9705C43.0126 74.9705 69.7448 70.4316 59.5946 66.0989C55.8762 64.2852 52.9618 63.1769 53.1628 61.5647C53.1628 61.5647 52.9618 58.8442 52.9618 58.0381C53.0623 58.0381 43.3141 67.3081 32.1589 58.0381"/>
	<path fill="#2D1B0A" d="M42.6217 75.9734C35.1809 75.9734 22.6121 71.7415 21.9754 68.1141C21.9754 67.6103 21.9754 66.3004 23.9193 65.4943C28.444 63.8822 30.5556 62.3708 31.1589 61.7662L31.1589 55.9221L32.7677 57.232C42.2195 64.9905 50.3641 58.8442 51.8723 57.5343L51.8723 51.0856L53.8834 57.635C53.8834 57.8366 53.9839 57.9373 53.8834 58.1388C53.8834 58.9449 53.9839 60.6578 54.0845 61.2624C53.9839 62.1693 56.6988 63.3784 58.7098 64.386L59.9164 64.9905C60.6203 65.2928 63.0335 66.3004 62.7578 68.2149C62.2291 72.1445 48.7553 74.7643 43.0239 75.7719C42.9233 75.9734 42.7222 75.9734 42.6217 75.9734M33.1699 60.0533L33.1699 62.5723C32.7677 62.9753 30.8573 65.0913 24.5226 67.308C24.0198 67.5096 23.9193 67.7111 23.9193 67.7111C24.1204 69.3232 35.2815 74.059 42.9233 73.8575C52.3751 72.2453 60.7208 69.5248 60.9219 68.0134C60.9219 68.0134 60.8214 67.5096 59.2125 66.8042L57.9054 66.1997C54.3861 64.5875 51.8723 63.3784 52.0735 61.3632C52.0735 61.1616 51.9729 60.5571 51.9729 59.9525C51.8723 59.9525 51.8723 60.0533 51.7718 60.154C48.9564 62.1693 41.5156 65.7966 33.1699 60.0533"/>
	<path fill="#E5E3D8" d="M82.4602 103.078C83.1637 89.173 80.9528 80.7091 80.9528 80.7091C79.1438 73.7567 73.0135 71.3385 73.0135 71.3385C73.0135 71.3385 72.8125 71.3385 70.3 70.4316C67.7877 69.2225 58.2405 65.6959 58.2405 65.6959C58.0395 66.905 56.2304 74.1597 43.6684 74.1597C31.1062 74.1597 27.0863 65.4943 27.0863 65.4943C27.0863 65.4943 25.0765 66.4012 21.358 68.0134C17.6397 69.6255 8.89646 71.7415 5.98205 77.1825C3.06764 82.6236 2.76615 103.28 2.76615 103.28L82.4602 103.078"/>
	<path fill="#2D1B0A" d="M1.7083 104.186L1.7083 103.179C1.7083 102.373 2.00979 82.2206 5.0247 76.6788C7.63762 71.8423 14.1699 69.5248 18.4913 67.9126C19.3958 67.6103 20.1997 67.308 20.9032 67.0057C24.6216 65.4943 26.531 64.4867 26.6315 64.4867L27.938 64.9905C28.139 65.2928 31.8574 73.0514 43.6155 73.0514C55.3736 73.0514 56.9816 66.7035 57.2831 65.3936L57.4841 64.0837L58.5895 64.5875C58.9915 64.6883 68.1367 68.0134 70.7497 69.3232C72.4581 69.9278 72.9606 70.1293 73.1616 70.2301C73.7646 70.4316 80.0959 73.1521 82.0053 80.4069C82.1058 80.7092 84.2162 89.1731 83.5128 103.078L1.7083 104.186M26.6315 66.7035C25.7271 67.1065 24.0186 67.8118 21.7072 68.8194C21.0037 69.1217 20.1997 69.424 19.2953 69.7263C15.2754 71.2377 9.14507 73.4544 6.93414 77.5856C4.52221 82.1198 3.91923 97.9392 3.81873 102.171L81.6033 102.07C82.2063 89.0723 80.1964 81.0115 80.0959 80.9107C78.5884 74.9658 73.4631 72.4468 72.8601 72.2453C72.5586 72.1445 71.8551 71.943 70.1467 71.2377C68.1367 70.2301 61.6044 67.9126 59.092 66.905C58.1876 69.6255 55.0721 75.0666 43.8165 75.0666C32.8623 75.0666 28.0385 69.021 26.6315 66.7035"/>
	<path fill="#7F7A75" d="M26.9332 65.2927C26.9332 65.2927 31.1541 73.4543 43.5152 73.4543C56.1778 73.4543 58.0873 65.4943 58.0873 65.4943C58.7907 65.7965 60.7002 65.6958 60.0972 67.4087C58.9917 70.633 53.1629 76.5779 43.2137 76.5779C28.0387 76.5779 24.2198 66.8042 24.2198 66.8042L26.9332 65.2927"/>
	<path fill="#2D1B0A" d="M43.3142 77.5855C27.6367 77.5855 23.5163 67.6102 23.3153 67.2072L27.3352 63.8821C28.0386 65.0912 31.958 72.4467 43.5152 72.4467C55.1728 72.4467 57.0822 65.4943 57.1827 65.2927L57.4842 64.0836L58.5897 64.5874C58.6902 64.5874 58.8912 64.6882 58.9917 64.6882C59.5947 64.7889 60.5996 64.9905 61.0016 65.8973C61.3031 66.4011 61.3031 67.0057 61.1021 67.711C60.0972 70.9353 54.2683 77.5855 43.3142 77.5855M25.6267 67.2072C26.9332 69.4239 31.4555 75.5703 43.3142 75.5703C53.0624 75.5703 58.2882 69.7262 59.1927 67.0057C59.1927 66.9049 59.1927 66.9049 59.1927 66.8041C59.0922 66.7034 58.8912 66.7034 58.6902 66.6026C57.6852 68.9201 54.1678 74.3612 43.4147 74.3612C32.8625 74.3612 28.0386 68.8194 26.4307 66.5019"/>
	<path fill="#7C5D48" d="M62.7102 39.4981C62.7102 53.2989 54.0714 64.4867 43.4147 64.4867C32.7582 64.4867 24.1193 53.2989 24.1193 39.4981C24.1193 25.6973 32.7582 14.5095 43.4147 14.5095C54.0714 14.5095 62.7102 25.6973 62.7102 39.4981"/>
	<path fill="#2D1B0A" d="M43.4148 65.4943C32.1591 65.4943 23.1144 53.8061 23.1144 39.4981C23.1144 25.1901 32.2596 13.5019 43.4148 13.5019C54.5699 13.5019 63.7151 25.1901 63.7151 39.4981C63.7151 53.8061 54.6704 65.4943 43.4148 65.4943M43.4148 15.6179C33.2646 15.6179 25.1243 26.3992 25.1243 39.5989C25.1243 52.7985 33.3651 63.5798 43.4148 63.5798C53.4645 63.5798 61.7052 52.7985 61.7052 39.5989C61.7052 26.3992 53.565 15.6179 43.4148 15.6179"/>
	<path fill="#1E1B19" d="M61.0016 38.4907C61.0016 38.4907 64.2175 36.5761 65.323 38.9944C66.4284 41.4127 67.9359 39.5989 67.9359 39.5989C67.9359 39.5989 70.4483 34.4603 68.5389 32.7472C66.6294 31.0344 71.4533 31.639 69.3428 27.6086C67.1319 23.578 71.2523 24.5857 69.0413 21.0591C66.8304 17.6333 64.0165 19.4469 64.2175 16.1218C64.4185 12.7967 62.3081 10.6807 60.1976 10.0762C57.9867 9.47162 58.9917 5.84424 56.3787 5.13892C53.6653 4.4336 54.1678 5.64272 51.3539 5.13892C48.54 4.63512 48.2385 3.02295 46.0276 3.02295C43.8166 3.02295 45.8266 5.13892 41.1032 5.74348C36.3799 6.34805 35.1739 3.92979 34.0684 5.13892C32.963 6.34805 32.762 9.16934 30.953 9.2701C29.0436 9.37086 25.3252 9.47162 24.8227 10.58C24.3202 11.6883 23.8177 14.7112 23.7172 15.215C23.6167 15.7188 20.0994 16.3233 19.6974 17.5324C19.2954 18.7416 20.1999 21.7644 19.9989 22.3689C19.7979 22.9735 17.5869 25.0895 17.5869 25.9963C17.5869 26.9031 18.6924 28.7169 18.6924 29.4221C18.6924 30.2282 16.984 32.848 17.3247 34.0572C17.7879 35.2663 19.6974 34.9641 19.6974 36.7777C19.6974 38.5914 23.1143 41.312 23.8177 39.9012C24.5212 38.4907 26.3302 34.4603 26.2297 33.0495C26.1292 31.639 25.1242 24.1827 28.9431 23.175C32.6615 22.1674 40.1987 25.8955 44.1181 25.694C48.0375 25.3918 58.2882 22.7719 59.7956 23.9812C61.1021 25.3918 58.0872 37.1807 61.0016 38.4907"/>
	<path fill="#2D1B0A" d="M23.0137 41.4187C22.8128 41.4187 22.6118 41.4187 22.5113 41.3179C20.9033 40.9148 18.5919 38.7985 18.5919 36.8838C18.5919 36.4806 18.4914 36.3799 17.8884 36.0775C17.3859 35.7752 16.6824 35.3721 16.381 34.5659C15.979 33.4574 16.582 32.0465 17.1849 30.7364C17.3859 30.3333 17.5869 29.7286 17.5869 29.5271C17.5869 29.3255 17.2854 28.7209 17.1849 28.3178C16.8834 27.5116 16.582 26.8061 16.582 26.1007C16.582 25.2945 17.2854 24.3875 18.2904 23.0774C18.4914 22.7751 18.7929 22.372 18.9939 22.1704C18.9939 21.9689 18.8934 21.3642 18.7929 20.9611C18.5919 19.651 18.3909 18.2401 18.6924 17.3332C19.0944 16.1238 20.6018 15.62 22.0088 15.1161C22.2098 15.0153 22.6118 14.9145 22.8128 14.8138C23.1143 13.1006 23.5162 11.2866 23.9182 10.2788C24.6217 8.86796 27.1341 8.56563 30.4505 8.46485C31.355 8.46485 31.757 7.75942 32.159 6.65088C32.4605 5.94544 32.762 5.24001 33.2644 4.63535C34.1689 3.62759 35.2744 4.0307 36.1788 4.33302C37.1838 4.73613 38.4903 5.24001 40.9022 4.93768C43.2136 4.63535 43.5151 4.13147 43.6824 3.62759C44.0176 3.12371 44.4196 2.3175 45.927 2.3175C47.334 2.3175 48.138 2.82138 48.942 3.32526C49.6454 3.72837 50.2484 4.13147 51.4544 4.4338C52.6603 4.63535 53.0623 4.53458 53.5648 4.4338C54.3688 4.23225 55.0723 4.13147 56.5797 4.53458C58.4892 5.03846 59.0921 6.65088 59.4941 7.86019C59.7956 8.86796 59.9966 9.37184 60.4991 9.47261C63.0115 10.1781 65.5239 12.5967 65.3229 16.527C65.2224 17.6355 65.4234 17.6355 66.4284 18.0386C67.4334 18.4417 68.8403 18.9456 70.0463 20.8603C71.3528 22.9766 70.8503 23.9844 70.2473 24.9922C69.8453 25.5968 69.6443 25.8991 70.4483 27.5116C72.0562 30.6356 70.3478 31.9457 69.5438 32.4496C71.6543 34.5659 69.5438 39.4032 69.0413 40.3101C68.8403 40.6125 67.9359 41.6202 66.7299 41.5265C65.9259 41.4187 65.2224 40.814 64.72 39.7055C64.519 39.3024 64.318 39.2016 64.117 39.2016C63.4135 39.0001 62.2075 39.4032 61.8056 39.7055C58.5897 38.7985 58.8911 34.5659 59.1926 30.031C59.2931 28.217 59.4941 25.7984 59.1926 25.1937C58.1877 24.7906 53.0623 25.6976 50.0474 26.2015C47.8365 26.6046 45.7261 27.0077 44.3191 27.1085C42.4097 27.2092 39.7967 26.5038 37.0833 25.7984C34.1689 24.9922 31.0535 24.0852 29.2446 24.589C28.0386 24.8914 26.7321 26.6046 27.3351 33.0543C27.4356 35.4729 24.9232 40.7132 24.8227 40.814C24.3202 40.9148 23.8177 41.4187 23.0137 41.4187M34.6714 5.84467C34.4704 6.147 34.1689 6.75165 33.9679 7.25554C33.4654 8.46485 32.6615 10.1781 30.8525 10.2788C29.3451 10.3796 26.1292 10.4804 25.6267 10.9843C25.3252 11.6897 24.9232 14.1083 24.7222 14.9145C24.5212 16.0231 23.8177 16.3254 22.6118 16.7285C22.0088 16.9301 20.7023 17.4339 20.5013 17.7363C20.4008 18.1394 20.6018 19.5502 20.7023 20.3564C20.9033 21.465 21.0038 22.0696 20.8028 22.5735C20.7023 22.9766 20.4008 23.3797 19.7978 24.0852C19.3959 24.589 18.5919 25.5968 18.4914 25.9999C18.4914 26.2015 18.7929 26.9069 18.9939 27.4108C19.2954 28.217 19.5969 28.8217 19.5969 29.4263C19.5969 29.9302 19.3959 30.4341 18.9939 31.3411C18.6924 31.9457 18.1899 33.3566 18.2904 33.7597C18.2904 33.8605 18.5919 33.9612 18.8934 34.1628C19.5969 34.5659 20.6018 35.0698 20.6018 36.783C20.6018 37.0853 20.9033 37.7907 21.6068 38.3954C22.2098 38.8993 22.7123 39.2016 22.9133 39.3024C23.8177 37.3876 25.1242 34.062 25.0237 33.2558C24.8227 30.5348 24.2197 23.4805 28.4406 22.2712C30.752 21.6665 34.0684 22.5735 37.2843 23.4805C39.6962 24.1859 42.2087 24.8914 43.8166 24.6898C45.1231 24.589 47.133 24.1859 49.3439 23.7828C55.7757 22.5735 58.9916 22.1704 60.1976 23.1782C61.2026 23.9844 61.1021 25.9999 60.8006 29.7286C60.7001 31.8449 60.3986 36.0775 61.0016 37.1861C61.8056 36.8838 63.112 36.4806 64.318 36.783C65.122 37.0853 65.7249 37.5892 66.1269 38.3954C66.4284 39.0001 66.6294 39.0001 66.6294 39.0001C66.7299 39.0001 66.8304 38.8993 66.9309 38.7985C67.7349 36.9845 68.5388 34.062 67.7349 33.2558C67.5339 33.0543 66.9309 32.5504 66.9309 31.7442C66.9309 31.0387 67.5339 30.5348 67.9359 30.2325C68.6393 29.7286 69.0413 29.4263 68.2374 27.8139C66.9309 25.3953 67.5339 24.1859 68.1369 23.279C68.5388 22.7751 68.6393 22.4727 67.9359 21.3642C67.1319 20.0541 66.2274 19.651 65.3229 19.3487C64.2175 18.9456 62.8105 18.3409 62.911 15.8215C63.112 12.7982 61.2026 11.2866 59.5946 10.7827C58.0872 10.3796 57.5847 8.96873 57.1827 7.86019C56.7807 6.75165 56.5797 6.04622 55.6752 5.84467C54.5698 5.54234 54.1678 5.64312 53.6653 5.74389C53.0623 5.94544 52.2584 6.147 50.6504 5.84467C49.0424 5.54234 48.138 4.93768 47.334 4.4338C46.6305 4.0307 46.2285 3.72837 45.4246 3.72837C45.2236 3.72837 45.1231 3.72837 45.1231 3.72837C45.1231 3.72837 45.0226 3.82914 45.0226 3.92992C44.5201 4.93768 43.6824 5.94544 40.7012 6.34855C37.8873 6.75165 36.1788 6.04622 35.0734 5.64312C35.1739 5.94544 34.7719 5.84467 34.6714 5.84467"/>
	<path fill="#351F21" d="M56.9817 34.8631C56.8812 34.5609 56.7807 34.3593 56.6802 34.1578C56.6802 34.0571 56.5797 34.0571 56.4792 33.9563C56.3787 33.8399 56.1777 33.8399 55.9767 33.8399C53.5648 33.8399 51.0524 34.1578 48.741 34.5609C48.54 34.5609 48.339 34.6616 48.138 34.6616C47.6835 34.8631 47.6835 35.1654 47.6835 35.4677"/>
	<path fill="#351F21" d="M54.9718 40.9087C54.9718 41.7434 53.937 42.4201 52.6604 42.4201C51.3838 42.4201 50.349 41.7434 50.349 40.9087C50.349 40.074 51.3838 39.3973 52.6604 39.3973C53.937 39.3973 54.9718 40.074 54.9718 40.9087"/>
	<path fill="#351F21" d="M38.2893 40.6065C38.2893 41.4412 37.2545 42.1179 35.9779 42.1179C34.7013 42.1179 33.6665 41.4412 33.6665 40.6065C33.6665 39.7718 34.7013 39.0951 35.9779 39.0951C37.2545 39.0951 38.2893 39.7718 38.2893 40.6065"/>
	<path fill="#EA7878" d="M38.8923 51.3878C38.8923 51.3878 44.3191 53.8061 49.8465 51.4886C49.8465 51.4886 48.339 54.6122 44.7211 54.6122C41.0027 54.6122 38.8923 51.3878 38.8923 51.3878"/>
	<path fill="#351F21" d="M29.8475 34.5608C29.8475 34.3593 30.0485 34.057 30.149 33.8555C30.149 33.7547 30.2495 33.7547 30.35 33.654C30.4505 33.5377 30.6515 33.5377 30.8525 33.5377C33.1639 33.5377 35.6764 33.8555 37.9878 34.3593C38.1888 34.3593 38.3898 34.4601 38.5908 34.4601C39.0932 34.6616 39.0932 34.9639 38.9928 35.2661"/>
</svg>
