<svg width="40" height="32" viewBox="0 0 40 32" fill="none" xmlns="http://www.w3.org/2000/svg" id="panel-layout-18"><title>时间轴（S型）</title><path fill-rule="evenodd" clip-rule="evenodd" d="M9.16707 15.165H9.16699C6.40557 15.165 4.16699 17.4036 4.16699 20.165C4.16699 22.9265 6.40556 25.165 9.16699 25.165H9.16707V24.3314H9.16699C6.86581 24.3314 5.00033 22.4659 5.00033 20.1647C5.00033 17.8635 6.86581 15.998 9.16699 15.998H9.16707V15.165Z" fill="#667085"></path><path fill-rule="evenodd" clip-rule="evenodd" d="M30.8335 6C33.5949 6 35.8335 8.23858 35.8335 11C35.8335 13.7614 33.5949 16 30.8335 16L30.8335 15.1662H30.8336C33.1348 15.1662 35.0002 13.3007 35.0002 10.9995C35.0002 8.69832 33.1348 6.83284 30.8336 6.83284H30.8335V6Z" fill="#667085"></path><rect width="7.5" height="0.833333" transform="matrix(-1 0 0 1 23.3335 5.99902)" fill="#667085"></rect><rect width="7.5" height="0.833333" transform="matrix(-1 0 0 1 23.3335 15.166)" fill="#667085"></rect><rect width="7.5" height="0.833333" transform="matrix(-1 0 0 1 23.3335 24.332)" fill="#667085"></rect><rect width="9.16667" height="5.83333" rx="1.66667" transform="matrix(-1 0 0 1 31.667 3.49902)" fill="#8F99A8"></rect><rect width="9.16667" height="5.83333" rx="1.66667" transform="matrix(-1 0 0 1 31.667 12.666)" fill="#8F99A8"></rect><rect width="9.16667" height="5.83333" rx="1.66667" transform="matrix(-1 0 0 1 31.667 21.832)" fill="#8F99A8"></rect><rect width="9.16667" height="5.83333" rx="1.66667" transform="matrix(-1 0 0 1 17.5 3.49902)" fill="url(#paint0_linear_38275_258247)"></rect><rect width="9.16667" height="5.83333" rx="1.66667" transform="matrix(-1 0 0 1 17.5 12.666)" fill="#8F99A8"></rect><rect width="9.16667" height="5.83333" rx="1.66667" transform="matrix(-1 0 0 1 17.5 21.832)" fill="#8F99A8"></rect><defs><linearGradient id="paint0_linear_38275_258247" x1="4.58333" y1="0" x2="4.58333" y2="5.83333" gradientUnits="userSpaceOnUse"><stop stop-color="#16C784"></stop><stop offset="1" stop-color="#43D89C"></stop></linearGradient></defs></svg>