<?xml version="1.0" encoding="utf-8" ?>
<svg xmlns="http://www.w3.org/2000/svg" xmlns:xlink="http://www.w3.org/1999/xlink" width="54" height="82">
	<path fill="white" d="M27 82C18.393 82 11.4239 78.6919 6.6769 72.3765C-0.595153 62.6528 -2.00916 46.0122 2.83887 29.8729C5.66689 20.6504 11.0199 13.3325 15.06 8.82152C16.373 7.31785 23.14 0 27 0C30.8161 0 37.5831 7.31785 38.8961 8.82152C42.9362 13.3325 48.2892 20.5501 51.1172 29.8729C56.0662 46.0122 54.5512 62.7531 47.2792 72.3765C42.6331 78.6919 35.5631 82 27 82"/>
	<path fill="#E59C45" d="M26.7761 2.85685C24.4531 2.85685 10.4139 14.385 5.56588 30.5243C-0.89816 51.6759 3.24286 78.8421 26.7761 78.8421C50.3092 78.8421 54.4503 51.6759 47.9861 30.5243C43.0372 14.385 29.0991 2.85685 26.7761 2.85685"/>
	<path fill="#2D1B0A" d="M26.7761 79.7946C18.7971 79.7946 12.434 76.7872 8.09101 70.9731C1.22297 61.7506 -0.19104 45.8117 4.55599 30.2738C9.50502 13.9339 23.9481 1.9046 26.7761 1.9046C29.6042 1.9046 44.0473 14.0342 48.9963 30.2738C53.7433 45.8117 52.3293 61.8508 45.4613 71.0733C41.0172 76.7872 34.7552 79.7946 26.7761 79.7946M26.7761 3.80925C24.8571 4.10998 11.424 14.7359 6.475 30.775C1.92997 45.7114 3.14198 61.0489 9.70703 69.7701C13.6461 75.0831 19.4031 77.7897 26.7761 77.7897C34.1492 77.7897 39.9062 75.0831 43.8453 69.7701C50.3093 61.0489 51.6223 45.8117 47.0773 30.775C42.1283 14.7359 28.6952 4.10998 26.7761 3.80925"/>
	<path fill="#E8943F" d="M32.2301 74.6823C42.7341 52.3278 33.5431 28.2691 33.5431 28.2691C37.3811 42.604 32.2301 74.6823 32.2301 74.6823M21.423 16.8412C11.6259 39.5966 21.625 63.2543 21.625 63.2543C17.282 49.1199 21.423 16.8412 21.423 16.8412"/>
	<path fill="#D17A1D" d="M9.50492 37.5917C9.50492 37.5917 10.3129 65.7604 20.615 73.6797C20.615 73.6797 6.6769 66.7628 9.50492 37.5917M37.1791 19.3472C37.1791 19.3472 48.9962 43.7066 42.3301 60.6479C42.3301 60.6479 44.4512 45.11 37.1791 19.3472M26.372 11.5281C26.372 11.5281 26.17 49.3203 28.392 54.533C28.291 54.533 29.2001 21.6528 26.372 11.5281"/>
</svg>
