<?xml version="1.0" encoding="utf-8" ?>
<svg xmlns="http://www.w3.org/2000/svg" xmlns:xlink="http://www.w3.org/1999/xlink" width="64" height="94">
	<path fill="white" d="M32.6107 94C32.4071 94 32.2036 94 32 94C31.7964 94 31.5929 94 31.3893 94C29.7609 94 28.2342 93.5991 26.8093 92.8977C26.1986 92.597 25.4861 92.2964 24.7737 91.9957C16.8349 88.4883 9.91389 81.2729 5.33382 71.7527C-2.19785 56.2196 -1.68895 37.58 6.4534 26.4563C6.75873 26.0554 7.06407 25.6546 7.47119 25.2537C12.7637 11.3241 29.4555 1.30277 30.168 0.901919L31.6947 0L33.2214 0.901919C33.9338 1.30277 50.2185 11.0235 55.7146 24.6525C56.427 25.1535 57.0377 25.7548 57.5466 26.4563C65.6889 37.6802 66.1978 56.3198 58.6662 71.7527C54.0861 81.2729 47.1651 88.4883 39.2263 91.9957C38.6157 92.2964 37.9032 92.597 37.1907 92.8977C35.7658 93.5991 34.2391 94 32.6107 94"/>
	<path fill="#59AD47" d="M54.493 33.6716C54.493 50.2068 44.3151 63.6354 31.6945 63.6354C19.0738 63.6354 8.8959 50.2068 8.8959 33.6716C8.8959 17.1364 31.6945 3.70785 31.6945 3.70785C31.6945 3.70785 54.493 17.1364 54.493 33.6716"/>
	<path fill="#2D1B0A" d="M31.5935 64.6375C18.4634 64.6375 7.7764 50.7079 7.7764 33.6716C7.7764 16.7356 30.1682 3.40722 31.0842 2.80594L32.102 2.80594C33.018 3.40722 55.4105 16.7356 55.4105 33.6716C55.5116 50.7079 44.8246 64.6375 31.5935 64.6375M31.5935 4.8102C28.2343 6.91468 9.81202 19.2409 9.81202 33.6716C9.81202 49.7057 19.583 62.6332 31.5935 62.6332C43.6032 62.6332 53.3742 49.6055 53.3742 33.6716C53.476 19.2409 34.9519 6.91468 31.5935 4.8102"/>
	<path fill="#F7F9D9" d="M55.0019 28.3644C52.7629 25.2577 48.5899 25.7588 46.7579 29.2663L31.7964 60.0317L16.8348 29.2663C15.1045 25.6586 10.9316 25.2577 8.59062 28.3644C1.16073 38.4859 0.55006 55.7226 7.77639 70.6543C12.2547 79.7737 18.7686 86.2876 25.7913 89.3942C26.5037 89.6949 27.2162 89.9955 27.9286 90.3963C29.15 90.9976 30.4732 91.2983 31.7964 91.1597C33.1194 91.1597 34.4426 90.9976 35.6639 90.3963C36.3764 89.9955 37.0888 89.6949 37.8013 89.3942C44.7222 86.2876 51.338 79.7737 55.8162 70.6543C63.0425 55.7226 62.4319 38.4859 55.0019 28.3644"/>
	<path fill="#2D1B0A" d="M32.5089 92.2281C32.3053 92.2281 32.1018 92.2281 31.8982 92.2281C30.4733 92.3095 28.9466 92.0087 27.6235 91.3069C26.911 91.0061 26.1986 90.605 25.4861 90.3042C17.9544 86.9955 11.4405 80.1776 7.06404 71.0536C-0.16229 56.2145 0.24483 38.3675 7.98006 27.7395C9.30319 26.035 11.1352 25.2054 13.069 25.2054C15.1046 25.4334 16.9366 26.7369 17.8526 28.7421L31.7964 57.6182L45.7402 28.7421C46.758 26.7369 48.4882 25.3332 50.5238 25.2054C52.4576 25.0324 54.3914 25.9347 55.6128 27.7395C63.348 38.3675 63.7551 56.2145 56.5288 71.0536C52.1523 80.1776 45.5366 86.9955 38.1067 90.3042C37.3943 90.605 36.6818 90.9058 35.9694 91.3069C35.0534 91.9085 33.7302 92.2281 32.5089 92.2281M12.5601 27.2382C11.4405 27.2382 10.321 27.8398 9.60853 28.9427C2.28042 38.9691 1.9005 56.0139 8.89607 70.2514C13.069 78.8741 19.2776 85.3913 26.4021 88.4995C27.1146 88.8003 27.827 89.2013 28.5395 89.5021C29.5573 90.0034 30.6768 90.204 31.7964 90.1037C33.1195 90.204 34.2391 90.0034 35.2569 89.5021C35.9694 89.1011 36.6818 88.8003 37.3943 88.4995C44.417 85.3913 50.6256 78.8741 54.9003 70.2514C61.8213 56.0139 61.516 39.0693 54.1879 28.9427C53.3736 27.7395 52.1523 27.1379 50.9309 27.3384C49.6078 27.4387 48.4882 28.3411 47.7758 29.7448L31.8982 62.4308L16.0206 29.7448C15.3082 28.3411 14.1886 27.4387 12.8655 27.3384C12.7637 27.2382 12.6619 27.2382 12.5601 27.2382"/>
</svg>
