<?xml version="1.0" encoding="utf-8" ?>
<svg xmlns="http://www.w3.org/2000/svg" xmlns:xlink="http://www.w3.org/1999/xlink" width="92" height="94">
	<path fill="white" d="M46.1001 94C23.0809 94 3.36443 74.0237 0 47.5577C-0.238579 44.8198 0.562089 41.9806 2.36359 39.9525C3.76476 38.3301 5.76643 37.2147 7.7681 36.9105C8.76894 21.3959 23.281 8.4164 36.6922 2.73786C38.8941 1.82524 41.196 1.01402 43.3978 0.405609C44.1985 0.202805 45.0992 0 45.8999 0C46.7006 0 47.6013 0.101402 48.5021 0.405609C50.804 1.11543 53.1059 1.92665 55.3078 2.83927C68.719 8.5178 83.131 21.4973 84.2319 36.9105C86.3337 37.2147 88.2352 38.3301 89.6364 39.9525C91.4379 41.9806 92.2386 44.8198 92 47.5577C88.8357 74.0237 69.0192 94 46.1001 94"/>
	<path fill="#FFEEDE" d="M81.2979 38.6343C81.2979 58.4077 65.4988 74.4294 46 74.4294C26.5011 74.4294 10.702 58.4077 10.702 38.6343C10.702 23.7282 25.1012 10.9515 37.9005 5.57716C40.0004 4.66454 42.1002 3.95472 44.3 3.3463C45.3999 3.11815 46.5999 3.11815 47.6998 3.3463C49.8997 3.95472 52.0996 4.76594 54.1994 5.67856C66.9987 10.9515 81.2979 23.7282 81.2979 38.6343"/>
	<path fill="#2D1B0A" d="M46.0999 75.342C26.101 75.342 9.802 58.8134 9.802 38.533C9.802 23.2212 24.2011 10.2417 37.6004 4.56316C39.7002 3.65054 41.9001 2.94072 44.1 2.23091C45.3999 1.8253 46.7998 1.8253 48.0997 2.23091C50.2996 2.83932 52.5995 3.65054 54.6993 4.56316C67.9986 10.2417 82.3977 23.2212 82.3977 38.533C82.2977 58.9148 66.0987 75.342 46.0999 75.342M46.0999 4.05615C45.5999 4.05615 45.0999 4.15755 44.6999 4.25895C42.6001 4.86737 40.4002 5.67859 38.4003 6.48981C25.2011 12.0669 11.9019 24.8436 11.9019 38.6344C11.9019 57.7994 27.301 73.4154 46.1998 73.4154C65.0987 73.4154 80.4978 57.7994 80.4978 38.6344C80.4978 24.3366 66.7986 11.9655 54.0994 6.59121C51.9995 5.67859 49.8996 4.96877 47.6998 4.36036C46.9998 4.15755 46.5998 4.05615 46.0999 4.05615"/>
	<path fill="#964522" d="M82.8979 39.9018L81.698 39.9018C80.898 39.9018 69.5987 50.6505 68.7987 50.6505C67.9988 50.6505 58.7993 42.0313 57.9994 42.0313C57.1994 42.0313 47 50.6505 46.2001 50.6505C45.4001 50.6505 33.5008 40.8144 32.6009 40.8144C32.6009 40.8144 25.7013 48.6224 22.1015 48.7238C19.4017 48.8252 12.3021 40.8144 12.3021 40.8144C11.7021 40.206 9.20227 39.8004 9.20227 39.8004C5.50249 39.8004 2.60266 43.2481 2.9657 47.1014C6.00246 71.8435 24.1014 90.9072 46.0097 90.9072C67.8988 90.9072 85.9977 71.8435 89.0538 47.1014C89.4975 43.3495 86.5977 39.9018 82.8979 39.9018"/>
	<path fill="#2D1B0A" d="M46.1 91.8705C24.0796 91.8705 5.16199 72.7055 1.9905 47.2535C1.75883 45.0226 2.45948 42.8932 3.86079 41.2708C5.26209 39.7497 7.16385 38.8371 9.16571 38.8371C10.1666 38.9385 12.2686 39.3441 12.9692 40.1553C16.2723 43.9072 20.5763 47.7605 21.9776 47.7605C24.3798 47.6591 29.2844 43.096 31.7867 40.1553C33.188 39.8511 33.8887 40.2567 39.9944 45.0226C42.1964 46.7465 45.1992 48.9773 46.2001 49.5858C47.101 48.9773 49.6033 47.0507 51.505 45.6311C56.81 41.4736 57.4105 41.068 58.1112 41.068C58.7117 41.068 59.3123 41.4736 64.2169 45.6311C65.9184 47.0507 68.1205 48.9773 68.9212 49.5858C69.9222 48.8759 72.7248 46.4423 74.7266 44.5156C80.532 39.2427 81.1326 38.8371 81.8332 38.8371L83.0343 38.8371C85.0362 38.8371 87.0381 39.7497 88.3393 41.2708C89.7406 42.8932 90.4412 45.1241 90.2096 47.2535C86.938 72.7055 68.0204 91.8705 46.1 91.8705M9.16571 40.8652C7.76441 40.8652 6.36311 41.4736 5.46227 42.589C4.46134 43.8058 3.96088 45.4282 4.16106 47.0507C7.16385 71.4887 25.1806 89.9439 46.2001 89.9439C67.2196 89.9439 85.2364 71.4887 88.2392 47.0507C88.4394 45.4282 87.9389 43.8058 86.938 42.589C85.937 41.4736 84.5357 40.8652 83.1344 40.8652L82.1335 40.8652C81.3328 41.3722 78.33 44.0086 76.1279 46.0367C70.2224 51.3096 69.722 51.7152 69.0213 51.7152C68.4208 51.7152 67.8202 51.3096 62.9156 47.1521C61.2141 45.7325 59.012 43.8058 58.1112 43.1974C57.2103 43.8058 54.708 45.7325 52.8063 47.2535C47.5013 51.411 46.9008 51.7152 46.3002 51.7152C45.6997 51.7152 44.999 51.3096 38.8933 46.6451C36.7914 45.0226 34.0889 42.9946 32.8878 42.1834C31.0861 44.11 25.6811 49.7886 22.1778 49.89C19.2751 49.9914 13.3696 43.603 11.668 41.575C11.2677 41.3722 10.1666 40.9666 9.16571 40.8652"/>
</svg>
