<?xml version="1.0" encoding="utf-8" ?>
<svg xmlns="http://www.w3.org/2000/svg" xmlns:xlink="http://www.w3.org/1999/xlink" width="82" height="60">
	<path fill="white" d="M46.2426 60C36.6943 60 29.1561 57.291 26.5429 55.8863C3.02375 43.3445 -0.192538 27.592 0 19.3645C0.209498 11.4381 3.72731 4.01338 8.45124 1.70569C10.7629 0.602007 13.0747 0 15.2859 0C22.623 0 27.4474 6.02007 30.3622 10.5351C36.8953 20.3679 43.9309 25.1839 51.6701 25.1839C55.992 25.1839 60.1129 23.6789 63.1281 22.3746C65.2388 21.4716 67.249 20.9699 69.2592 20.9699C73.179 20.9699 76.4958 22.7759 79.2096 26.388C82 30.2007 84.9386 39.7324 75.8928 48.9632C67.6511 56.2876 57.3991 60 46.2426 60"/>
	<path fill="#FFC68D" d="M63.9799 24.883C54.6324 28.8964 41.0635 32.4081 27.4945 11.9399C23.6751 6.12047 18.0465 7.00951e-05 9.40262 4.21412C1.96484 7.82616 -6.77959 34.6155 27.595 52.9767C32.2185 55.4851 55.1349 62.5084 73.4279 46.6556C81.0667 38.8296 78.8554 31.1037 76.5437 27.9934C74.3325 25.1841 70.6136 22.0737 63.9799 24.883"/>
	<path fill="#2D1B0A" d="M45.8492 57.5921C36.8032 57.5921 29.5664 55.184 27.1542 53.7794C4.63981 41.7392 1.6222 26.8897 1.6222 19.0636C1.82552 10.9366 5.54441 4.81615 8.96177 3.11047C18.5103 -1.50492 24.6414 5.51849 28.3603 11.2376C41.0246 30.3011 53.2869 28.2944 63.6395 23.8797C69.1676 21.4717 73.7911 22.6757 77.309 27.2911C79.8217 30.6021 82.234 39.0302 74.1931 47.2576C65.0467 55.2844 54.5936 57.5921 45.8492 57.5921M14.9924 3.71247C13.3842 3.71247 11.7761 4.11381 9.86637 5.01682C6.95156 6.4215 3.83573 12.1406 3.63471 19.164C3.5342 26.4884 6.44901 40.4349 28.0588 52.0737C32.6823 54.582 55.0961 61.2041 72.6855 45.8529C79.8217 38.6289 77.711 31.3044 75.6003 28.4951C72.6855 24.582 69.0671 23.679 64.3431 25.7861C53.89 30.3011 40.1201 32.8095 26.6516 12.4416C23.7368 8.02686 20.1184 3.71247 14.9924 3.71247"/>
</svg>
