<?xml version="1.0" encoding="utf-8" ?>
<svg xmlns="http://www.w3.org/2000/svg" xmlns:xlink="http://www.w3.org/1999/xlink" width="88" height="96">
	<path fill="white" d="M58.2919 96C54.1745 96 49.9567 94.3746 45.9398 91.4286C44 92.4444 41.9229 93.054 39.9144 93.4603C37.0021 93.9683 34.1902 94.1714 31.4788 94.1714C14.8085 94.1714 3.25975 84.5206 0.548315 68.3683C-2.0627 52.7238 5.36865 32.5079 7.77882 26.7175C10.3898 20.2159 14.6076 14.4254 19.8297 9.95556C27.8635 3.25079 34.7928 2.23492 38.2072 2.23492C39.7135 2.23492 40.8182 2.4381 41.2199 2.53968C42.8267 2.74286 44.5339 3.25079 46.4419 3.86032C47.2453 2.4381 47.9483 1.52381 47.9483 1.42222L48.8521 0.203175L56.0826 0L54.3754 4.26667C54.3754 4.26667 53.8733 5.48571 53.3711 6.80635C56.4843 8.43175 59.2961 10.1587 61.1038 11.2762C61.8067 11.6825 62.4093 12.0889 62.811 12.2921C65.1207 14.4254 66.6271 16.3556 67.7317 18.5905C77.5732 28.4444 87.1135 56.0762 87.8164 64C89.2224 79.4413 82.2931 87.873 75.866 90.4127C75.0626 90.7175 74.0584 91.0222 72.8533 91.4286C70.9453 92.0381 68.6355 92.7492 66.6271 93.6635C63.9156 95.2889 61.2042 96 58.2919 96"/>
	<path fill="#E03636" d="M40.4802 5.46075C40.4802 5.46075 32.2454 3.22583 21.5001 12.2671C16.5794 16.4321 12.7633 21.8164 10.3531 27.8099C6.43657 37.5623 1.11412 54.8322 3.32344 67.7337C6.33615 85.6132 20.4959 93.5369 39.2751 90.2861C57.9539 87.0353 64.6823 56.3559 64.6823 56.3559C64.6823 56.3559 75.0259 28.4195 61.1674 15.01C58.5564 13.6893 48.2128 6.57821 40.4802 5.46075"/>
	<path fill="#2D1B0A" d="M31.3784 92.0381C15.8128 92.0381 4.967 83.2989 2.35599 67.9544C-0.1546 52.9148 7.0759 33.099 9.38564 27.4084C11.8962 21.2096 15.9132 15.6206 20.8339 11.4542C31.4788 2.51171 39.7136 4.1771 40.6174 4.44247C47.3458 5.35704 55.6809 10.5396 59.7983 13.0801C60.6017 13.5882 61.2042 13.893 61.6059 14.0963C75.7657 27.8149 66.2254 54.7439 65.6229 56.6747C65.1208 58.707 58.292 88.075 39.5127 91.3268C36.6004 91.7332 33.889 92.0381 31.3784 92.0381M38.1068 6.16999C35.0941 6.16999 29.1691 7.08456 22.2399 12.9785C17.52 16.9416 13.7039 22.2258 11.2937 28.1197C9.08437 33.7088 1.8336 53.0164 4.36446 67.5479C7.27675 84.4167 20.2314 92.5462 39.111 89.2944C56.886 86.2458 63.6144 56.3698 63.6144 56.0649C63.7148 55.6585 73.5563 28.6278 60.5013 15.8238C60.0996 15.6206 59.497 15.2141 58.7941 14.8076C54.8775 12.3688 46.6428 7.2878 40.3161 6.47485C40.2157 6.37323 39.4123 6.16999 38.1068 6.16999"/>
	<path fill="#964522" d="M46.8436 10.6667C47.647 6.70477 50.258 3.14921 50.258 3.14921L51.4631 3.14921C51.4631 3.14921 49.1533 9.04127 49.1533 10.4635C49.0529 11.8857 46.8436 11.9873 46.8436 10.6667"/>
	<path fill="#2D1B0A" d="M47.8478 13.1048C47.3457 13.1048 46.944 13.0032 46.5423 12.8C45.8393 12.3936 45.3372 11.5809 45.3372 10.7683C46.241 6.09524 48.8521 2.4381 48.9525 2.23492L53.572 1.52381L52.7686 3.65714C51.7643 6.29841 50.5593 9.65079 50.5593 10.3619C50.5593 11.2762 50.1576 12.0889 49.3542 12.5968C48.9525 13.0032 48.3499 13.1048 47.8478 13.1048"/>
	<path fill="#F9E3A9" d="M45.9397 19.7767C44.7346 20.0815 41.9228 20.2846 40.9185 20.5894C39.0105 21.1989 29.2694 23.3323 30.0258 40.6021C30.8762 56.7545 34.5918 70.8751 38.5084 78.3926C42.1236 85.1989 53.2706 97.5926 65.0202 90.9894C68.4346 89.2624 72.4515 88.4497 74.5604 87.5354C79.4812 85.6053 85.8079 78.4942 84.6028 64.1704C83.8998 56.0434 72.9537 25.0592 63.1122 18.6592C57.1872 14.7989 51.2622 18.0497 49.8562 18.5577C48.4503 19.0656 46.9439 19.5735 45.9397 19.7767"/>
	<path fill="#2D1B0A" d="M58.1708 93.8666C56.6633 93.8666 55.2563 93.6635 53.7488 93.1555C46.8144 91.1238 40.5835 84.2158 37.6691 78.7301C33.2471 70.1968 29.8302 55.2635 29.0717 40.5333C28.7247 32.6095 30.3327 22.5523 40.483 19.6063C41.287 19.3015 42.3925 19.2 43.5985 18.9968C44.4025 18.8952 45.307 18.7936 45.8094 18.692C46.5129 18.4888 47.7189 18.1841 48.7239 17.8793C49.8294 17.5746 50.0304 17.473 50.3319 17.2698C52.6433 16.3555 58.1708 14.2222 63.6982 17.7777C73.8485 24.3809 84.9034 55.9746 85.7074 64C87.0139 78.3238 80.7829 86.146 75.0545 88.3809C74.2505 88.6857 73.3461 88.9904 72.2406 89.2952C70.2306 89.9047 67.8186 90.6158 65.6077 91.7333C63.1957 93.1555 60.6832 93.8666 58.1708 93.8666M46.2114 20.7238C45.6084 20.8254 44.8045 20.927 43.9 21.1301C42.895 21.2317 41.7895 21.4349 41.287 21.5365C34.0511 23.6698 30.7347 30.0698 31.2371 40.5333C32.1416 58.0063 36.2621 71.619 39.5785 77.9174C41.488 81.5746 47.1159 89.092 54.4523 91.3269C57.9698 92.3428 61.4872 92.0381 64.7032 90.2095C67.1151 88.9904 69.6276 88.2793 71.6376 87.6698C72.7431 87.365 73.6475 87.0603 74.351 86.7555C79.4765 84.7238 84.9034 77.7142 83.6974 64.5079C82.9939 56.8889 72.1401 26.0063 62.5927 19.8095C57.8693 16.7619 53.1458 18.692 51.0354 19.5047C50.6334 19.6063 50.4324 19.8095 50.2314 19.8095C48.1209 20.2158 47.0154 20.5206 46.2114 20.7238"/>
	<path fill="#964522" d="M49.4545 57.4203C51.2621 62.2965 54.3753 66.2585 57.7897 67.6806C61.2041 69.2045 64.3172 67.9855 65.924 64.633C67.5308 61.2806 67.4303 56.2012 65.7231 51.3251C63.9155 46.4489 60.8024 42.487 57.388 41.0648C53.9736 39.541 50.8604 40.76 49.2537 44.1124C47.5465 47.5664 47.6469 52.6457 49.4545 57.4203"/>
	<path fill="#2D1B0A" d="M60.6016 69.892C59.497 69.892 58.2919 69.6889 57.1872 69.0793C53.3711 67.3523 49.9567 63.1873 48.0487 57.9047C46.1406 52.6222 46.0402 47.1365 47.8478 43.3777C49.8563 39.3143 53.7728 37.7904 57.9906 39.619C61.8067 41.346 65.2211 45.5111 67.1292 50.7936C69.0372 56.0762 69.1377 61.5619 67.33 65.3206C65.8237 68.2666 63.4135 69.892 60.6016 69.892M54.4758 41.9555C52.7686 41.9555 51.4631 42.8698 50.5593 44.8C49.1534 47.8476 49.2538 52.419 50.8605 56.8889C52.4673 61.3587 55.3796 65.0158 58.3923 66.3365C61.0033 67.5555 63.3131 66.6412 64.6186 64C66.0245 60.9523 65.9241 56.3809 64.3173 51.9111C62.7105 47.4412 59.7983 43.7841 56.7855 42.4635C55.9822 42.1587 55.1788 41.9555 54.4758 41.9555"/>
</svg>
