<?xml version="1.0" encoding="utf-8" ?>
<svg xmlns="http://www.w3.org/2000/svg" xmlns:xlink="http://www.w3.org/1999/xlink" width="74" height="86">
	<path fill="white" d="M37.7143 85.8993C33.9249 85.8993 29.8364 84.993 24.8504 83.0796C18.7675 80.7635 14.0806 77.9438 10.5904 74.5199C5.40497 69.2834 1.91476 61.63 0.518683 52.2646C0 47.8337 -0.179358 44.2084 0.319243 40.8852C1.117 34.9438 3.70973 29.7073 5.80385 25.8806C10.391 17.3208 15.8756 10.6745 21.9585 6.04215C25.1495 3.726 29.3378 0.906323 33.7255 0.201405C34.5232 0.100703 35.4207 0 36.3182 0C41.2045 0 45.4925 2.01405 47.5866 3.12178C50.9771 5.03513 54.2678 7.7541 57.6583 11.3794C65.0376 19.2342 70.1233 28.4988 72.5166 38.0656C75.209 48.74 74.2118 59.7166 69.7244 68.7799C69.7244 68.7799 69.6247 69.082 69.525 69.1827C68.5278 71.1967 67.5306 72.7073 66.2342 73.9157C65.1373 75.0234 63.841 75.829 62.744 76.534C55.1653 81.1663 47.088 86 37.9137 86"/>
	<path fill="#C1684D" d="M67.1295 67.9743C67.2292 67.8736 67.2292 67.7729 67.2292 67.6722C71.5186 58.9111 72.1171 48.5387 69.7231 38.9719C67.329 29.4052 62.2416 20.7448 55.5581 13.5949C52.8648 10.5738 49.7724 7.85484 46.2811 5.84079C42.7897 3.92744 38.3008 2.61831 34.3107 3.22253C30.6198 3.82674 26.7294 6.34431 23.8366 8.55976C17.2529 13.3935 12.365 20.2413 8.47462 27.3911C6.08054 31.8221 3.98573 36.4544 3.38721 41.3888C2.88844 44.8127 3.0983 48.438 3.58671 51.8619C4.684 59.4146 7.37733 67.068 12.764 72.4052C16.4549 76.0305 21.1433 78.4474 25.9314 80.26C29.722 81.7705 33.7122 82.8799 37.7023 82.8799C46.0816 82.979 53.6628 78.5481 60.845 74.2178C62.0421 73.5129 63.2391 72.808 64.3364 71.7003C65.6332 70.8947 66.4312 69.4848 67.1295 67.9743"/>
	<path fill="#2D1B0A" d="M38.213 84.0866C38.1132 84.0866 38.0135 84.0866 37.9138 84.0866C34.324 84.0866 30.4349 83.1803 25.7482 81.3676C19.8648 79.1521 15.4772 76.4332 12.1865 73.2107C7.30031 68.2763 4.00961 61.0257 2.71327 52.0632C2.1946 47.8336 2.01525 44.4098 2.51384 41.288C3.31158 35.6486 5.70482 30.7142 7.7989 26.8875C12.2862 18.6299 17.5713 12.1849 23.4547 7.75402C26.2468 5.73997 30.3352 2.9203 34.324 2.31608C38.1132 1.71187 42.8 2.71889 46.8885 5.03505C50.0794 6.8477 53.1707 9.36526 56.4614 12.9906C63.5414 20.644 68.5273 29.6065 70.8208 38.7704C73.4135 49.0421 72.4163 59.4144 68.2282 68.1756C68.2282 68.377 68.1284 68.4777 68.1284 68.4777C67.231 70.2903 66.3335 71.7002 65.2366 72.7072C64.3391 73.6135 63.1425 74.3184 62.0456 75.0233C54.6665 79.3536 46.7887 84.0866 38.213 84.0866M36.5178 4.22943C35.8197 4.22943 35.2214 4.22943 34.6231 4.33013C31.0333 4.93435 27.1442 7.55262 24.5516 9.46596C18.8676 13.6955 13.782 19.939 9.49411 27.9952C6.60228 33.3325 5.00679 37.562 4.5082 41.6908C4.10933 44.6112 4.20905 47.9343 4.70764 51.8617C5.90426 60.3208 8.99552 67.2692 13.5826 71.8009C16.6738 74.8219 20.862 77.3395 26.4462 79.4543C30.9335 81.1662 34.5234 81.9718 37.9138 82.0725C46.0907 82.1732 53.769 77.6416 60.5499 73.5128C61.9459 72.6065 62.9431 72.0023 63.7408 71.1966C64.6383 70.2903 65.436 69.1826 66.2338 67.5714C66.2338 67.3699 66.3335 67.2692 66.3335 67.2692C70.3222 59.0116 71.2197 49.0421 68.8265 39.2739C66.6327 30.4121 61.7465 21.7517 54.8659 14.4004C51.7746 10.9765 48.7831 8.55964 45.7916 6.8477C42.8 5.13575 39.5093 4.22943 36.5178 4.22943"/>
	<path fill="#D38F6A" d="M26.6296 79.9578C30.3205 81.3678 34.2109 82.4754 38.201 82.5778C46.3808 82.6768 53.563 78.0445 60.6455 73.815C61.7427 73.1102 63.239 72.0023 64.1368 71.0961C64.6356 69.4848 65.1344 68.5785 65.2717 66.8665C65.4336 64.5504 64.8351 62.1335 63.5383 60.2202C61.244 56.6956 56.9546 55.1851 52.765 54.4801C47.7773 53.6745 42.6899 53.7752 37.7022 54.7822C36.8045 54.9836 35.8756 55.1851 34.9092 55.1851C33.8119 55.1851 32.6148 54.7822 31.5175 54.5808C28.4252 53.9431 25.0336 54.4801 21.9412 54.9836C18.8489 55.5879 15.6568 55.5879 12.5644 56.4942C10.2701 57.0984 8.07555 58.4075 6.4795 60.2202C7.9758 64.7517 10.2701 68.9814 13.6617 72.3045C17.3526 75.7283 21.9412 78.1452 26.6296 79.9578"/>
</svg>
