<?xml version="1.0" encoding="utf-8" ?>
<svg xmlns="http://www.w3.org/2000/svg" xmlns:xlink="http://www.w3.org/1999/xlink" width="132" height="88">
	<path fill="white" d="M132 21.7247L129.689 21.7247L95.6347 0.500569C95.1324 0.200228 94.5297 0 93.9269 0L4.21918 21.3242C3.81735 21.4243 3.51598 21.5245 3.21461 21.7247L0 21.7247L0 44.3504L1.60731 44.3504C0.703196 45.9522 0 47.8544 0 49.8567C0 55.9636 4.92237 60.9693 10.9498 61.1695C11.4521 62.1706 12.1553 63.1718 12.9589 64.0728C13.4612 64.5734 13.9635 64.9738 14.4658 65.3743L0 65.3743L0 88L132 88L132 65.3743L121.151 65.3743C123.059 63.8726 124.466 62.0705 125.47 60.0683C129.388 58.1661 132 54.2617 132 49.8567C132 47.8544 131.397 45.9522 130.393 44.3504L132 44.3504L132 21.7247"/>
	<path fill="#77BB6D" d="M122.368 49.1654C124.779 54.2712 123.588 59.5773 119.153 62.9812C114.432 66.6853 107.4 67.7866 103.482 65.5841C101.975 64.7831 101.171 63.5817 100.368 62.4806C99.6645 62.7808 98.9613 63.1814 98.2581 63.5817C97.354 64.0824 96.5503 64.4828 95.6462 64.8833C94.0389 65.5841 90.9248 66.6853 88.4133 65.6842C87.0069 65.0835 86.3037 64.0824 86.0024 63.2814C82.9887 65.4839 79.0709 67.1859 75.4544 67.5863C71.5366 67.9868 68.1218 66.8856 66.3129 64.6831C63.1987 66.485 59.3814 67.9868 55.9658 67.286C53.9567 66.8856 52.4499 65.7843 51.6462 64.0824C51.4453 63.5817 51.2444 63.0812 51.1439 62.5807C47.427 64.3828 43.3083 66.0846 39.1896 66.9856C36.1759 67.5863 33.7649 67.6674 31.9567 67.0858C29.3448 66.2849 28.1394 64.4828 27.1348 63.0812C26.9339 62.8811 26.8334 62.5807 26.6325 62.3805C23.0161 63.3815 17.7923 64.8833 15.08 61.8799C14.3768 61.0789 13.7741 60.278 13.3722 59.4771C12.0663 56.7741 12.6551 53.9709 14.6782 51.468C16.9887 48.765 19.6005 48.6648 21.6097 48.5647C22.3129 48.5647 23.1165 48.4646 23.9202 48.3645C24.1211 48.3645 24.322 48.3645 24.4225 48.3645L120.258 47.9641C121.263 47.9641 122.066 48.3645 122.368 49.1654"/>
	<path fill="#2D1B0A" d="M73.9437 68.6781C70.8292 68.6781 68.1218 67.6769 66.2076 65.975C62.1889 68.1775 58.7729 68.8783 55.8593 68.3777C53.5485 67.8772 51.7401 66.5757 50.8359 64.5734C50.7354 64.3732 50.6349 64.173 50.6349 64.0729C47.3195 65.6747 43.5016 67.2765 39.4829 68.0774C36.3684 68.7782 33.7562 68.7782 31.6463 68.1775C28.7327 67.2765 27.3262 65.2742 26.221 63.7725C22.4032 64.6735 17.2793 65.975 14.2652 62.6713C13.4615 61.8704 12.8587 60.9693 12.4568 59.9682C10.9497 56.8647 11.4521 53.661 13.8633 50.8578C16.4755 47.8544 19.3891 47.7543 21.499 47.6542C22.4032 47.6542 23.1065 47.5541 23.7093 47.454C24.0107 47.454 24.2116 47.3539 24.4126 47.3539L120.26 46.9534C121.566 46.9534 122.671 47.6542 123.274 48.6553C125.987 54.1616 124.64 59.9682 119.758 63.6724C114.634 67.6769 107.199 68.7782 102.979 66.2754C101.673 65.5746 100.769 64.5734 100.066 63.5723C99.7642 63.6724 99.4628 63.8726 99.1614 64.0729C97.9558 64.6735 97.0515 65.1741 96.0468 65.5746C93.8365 66.5757 90.722 67.4767 88.0093 66.3755C86.8037 65.8749 86 65.074 85.5981 64.3732C82.584 66.5757 78.9671 68.0774 75.5512 68.3777C75.0489 68.578 74.446 68.6781 73.9437 68.6781M66.6095 63.3721C68.7193 65.975 71.8339 66.876 75.3503 66.4756C78.7662 66.0751 82.4836 64.4733 85.2967 62.1707L86.3014 61.3698L86.9042 62.6713C87.2056 63.2719 87.7079 64.0729 88.8131 64.5734C90.9229 65.4744 93.7361 64.4733 95.2431 63.7725C96.1473 63.3721 97.0515 62.8715 97.8553 62.471C98.86 61.9705 99.4628 61.6701 100.066 61.3698L101.271 61.7702C102.075 62.7714 102.778 63.7725 104.084 64.5734C107.601 66.5757 114.332 65.4744 118.653 62.0706C122.671 58.9671 123.777 54.1616 121.566 49.4562C121.365 49.0558 120.963 48.8556 120.361 48.8556L24.513 49.256C24.3121 49.256 24.2116 49.256 24.1112 49.256C23.4079 49.3561 22.6041 49.4562 22.0013 49.4562C19.6905 49.5564 17.4802 49.6565 15.4708 52.0592C13.5619 54.1616 13.1601 56.5643 14.3657 58.9671C14.7676 59.768 15.2699 60.4688 15.8727 61.1696C18.1835 63.6724 23.006 62.2708 26.1205 61.3698L27.929 62.3709C28.9337 63.7725 30.0388 65.2742 32.2491 65.975C33.9571 66.4756 36.1674 66.4756 38.9806 65.8749C43.2002 64.9739 47.3195 63.1718 50.7354 61.4699L51.8406 60.9693L52.142 62.1707C52.2424 62.6713 52.4434 63.0717 52.6443 63.4722C53.3476 64.8738 54.5532 65.7748 56.2612 66.1752C58.7729 66.6758 61.9879 65.7748 65.9062 63.6724"/>
	<path fill="#FFE69F" d="M93.726 2.8836L4.72147 24.1077C4.5395 24.2078 4.5395 24.6083 4.82192 24.6083L128.182 24.8085C128.424 24.8085 128.424 24.5082 128.284 24.3079L93.8265 2.8836C93.8265 2.8836 93.8265 2.8836 93.726 2.8836"/>
	<path fill="#2D1B0A" d="M128.182 25.8293L4.82196 25.629C4.21921 25.629 3.6012 25.1285 3.6012 24.5278C3.6012 23.9271 3.91785 23.3264 4.62104 23.1262L93.6256 1.8628C93.927 1.8628 94.3288 1.8628 94.6302 2.1023L129.087 23.5266C129.666 23.827 129.666 24.4277 129.666 24.9282C129.288 25.5289 128.785 25.8293 128.182 25.8293M11.1507 23.6268L125.571 23.827L93.6256 3.90435L11.1507 23.6268"/>
	<path fill="#FFB357" d="M3.0639 24.6279L128.936 24.6279L128.936 41.2468L3.0639 41.2468L3.0639 24.6279"/>
	<path fill="#2D1B0A" d="M129.991 42.248L2.0091 42.248L2.0091 23.6268L129.991 23.6268L129.991 42.248M4.01823 40.2457L127.881 40.2457L127.881 25.6291L4.01823 25.6291L4.01823 40.2457"/>
	<path fill="#FFB357" d="M3.0639 68.2775L128.936 68.2775L128.936 84.8964L3.0639 84.8964L3.0639 68.2775"/>
	<path fill="#2D1B0A" d="M129.991 85.8976L2.0091 85.8976L2.0091 67.2764L129.991 67.2764L129.991 85.8976M4.01823 83.8953L127.881 83.8953L127.881 69.2787L4.01823 69.2787L4.01823 83.8953"/>
	<path fill="#E95655" d="M120.597 58.1661L11.4009 58.1661C6.77989 58.1661 3.063 54.4619 3.063 49.8567C3.063 45.2514 6.77989 41.5472 11.4009 41.5472L120.597 41.5472C125.218 41.5472 128.937 45.2514 128.937 49.8567C128.937 54.3618 125.218 58.1661 120.597 58.1661"/>
	<path fill="#2D1B0A" d="M120.598 59.1673L11.4019 59.1673C6.27858 59.1673 2.0594 54.9625 2.0594 49.8567C2.0594 44.7509 6.27858 40.5461 11.4019 40.5461L120.598 40.5461C125.721 40.5461 129.94 44.7509 129.94 49.8567C129.94 54.9625 125.721 59.1673 120.598 59.1673M11.3014 42.4483C7.28314 42.4483 3.96808 45.752 3.96808 49.7566C3.96808 53.7611 7.28314 57.0649 11.3014 57.0649L120.497 57.0649C124.516 57.0649 127.831 53.7611 127.831 49.7566C127.831 45.752 124.516 42.4483 120.497 42.4483L11.3014 42.4483"/>
</svg>
