<?xml version="1.0" encoding="utf-8" ?>
<svg xmlns="http://www.w3.org/2000/svg" xmlns:xlink="http://www.w3.org/1999/xlink" width="92" height="88">
	<path fill="white" d="M32.2033 88C27.2336 88 22.9738 86.3779 19.8297 83.235C18.1055 81.5115 16.787 79.3825 15.9756 76.8479C12.0201 76.6452 8.4703 75.3272 5.73188 72.9954C5.32619 72.7926 4.9205 72.4885 4.61623 72.1843C4.31196 71.8802 4.10911 71.576 3.90627 71.1705C0.255037 66.9124 -0.860616 60.7281 0.66073 54.1382C1.26927 51.1982 1.67496 50.6912 1.67496 50.6912C3.39915 46.0276 6.239 41.5668 10.0931 37.8157C10.1945 37.7143 12.0201 35.8894 13.0343 35.1797C16.3813 32.4424 20.0325 30.4147 23.7852 29.0968C24.4951 28.894 26.7265 27.1705 27.335 27.0691C27.7407 26.4608 28.8563 24.6359 29.0592 23.9263C30.4791 19.2627 35.4488 12.6728 39.1001 8.92166C43.3598 3.85253 53.2993 0.912442 53.2993 0.912442C55.5306 0.304147 57.6605 0 59.7904 0C64.7601 0 69.0199 1.62212 72.164 4.76498C73.8882 6.48848 75.2067 8.61751 76.0181 11.1521C80.4807 11.3548 84.4362 12.977 87.276 15.9171C95.2884 23.9263 92.8543 39.3364 81.9006 50.2857C77.8437 54.341 73.0768 57.3825 68.1071 59.0046C65.6729 59.8157 63.7459 61.7419 62.9345 64.1751C61.3117 69.1429 58.269 73.9078 54.2121 77.9631C47.8224 84.1475 39.6072 88 32.2033 88"/>
	<path fill="#F9E3A9" d="M79.6478 47.6575C89.4859 37.8234 91.8186 24.4409 85.0233 17.5469C78.2279 10.7543 64.7387 13.1874 54.9006 22.9202C51.0465 26.7727 48.4095 31.1321 46.8882 35.4916C45.7725 38.8372 43.1355 41.4731 39.7886 42.5884C35.4274 44.0077 31.0662 46.745 27.2121 50.5976C17.3741 60.4317 15.0414 73.8142 21.8367 80.7082C28.6321 87.5008 42.1213 85.0676 51.9594 75.3349C55.8134 71.4824 58.4504 67.1229 59.9718 62.7635C61.0874 59.4179 63.7244 56.7819 67.0714 55.6667C71.4326 54.2473 75.7938 51.51 79.6478 47.6575"/>
	<path fill="#2D1B0A" d="M32.1018 85.5668C27.8421 85.5668 23.988 84.2488 21.1481 81.4101C17.5983 77.8617 16.2798 72.5898 17.2941 66.6083C18.3083 60.7281 21.6553 54.8479 26.5236 49.8802C30.2762 46.0276 34.8403 43.1889 39.5057 41.6682C42.6498 40.6544 44.9826 38.2212 45.9968 35.1797C47.5181 30.5161 50.4594 26.0553 54.2121 22.2027C64.3544 12.0645 78.5536 9.63131 85.7546 16.8295C92.9557 24.0276 90.5215 38.1198 80.3792 48.3594C76.5251 52.212 72.0625 55.0507 67.3971 56.5714C64.3544 57.5852 61.9202 60.0184 60.906 63.0599C59.3846 67.7235 56.4434 72.1843 52.6907 76.0368C46.5039 82.3226 38.7958 85.5668 32.1018 85.5668M74.8009 14.7004C68.7156 14.7004 61.5145 17.8433 55.632 23.6221C51.9808 27.2719 49.3438 31.4285 47.9238 35.788C46.7068 39.4378 43.8669 42.2765 40.1143 43.5944C35.7531 45.1152 31.4933 47.7511 27.9435 51.2995C23.3795 55.8617 20.2353 61.4378 19.3225 66.9124C18.4097 72.2857 19.5254 76.8479 22.5681 79.8894C28.9577 86.2765 41.8385 83.8433 51.1694 74.5161C54.8206 70.8663 57.4576 66.7097 58.8775 62.3502C60.0946 58.7004 62.9345 55.8617 66.6871 54.5438C71.0483 53.1244 75.3081 50.3871 78.8579 46.8387C88.1888 37.5115 90.6229 24.6359 84.2333 18.2488C81.9006 15.917 78.5536 14.7004 74.8009 14.7004"/>
	<path fill="#FF6B6B" d="M54.7192 47.9539C59.2832 52.5161 68.6141 50.3647 75.7138 43.3917C82.8134 36.2949 84.8418 26.8664 80.2778 22.4055C75.7138 17.8433 66.3828 19.9947 59.2832 26.9677C52.3074 33.9631 50.1552 43.3917 54.7192 47.9539"/>
	<path fill="#FF6B6B" d="M26.5236 76.1383C29.4649 79.0784 34.6374 79.3825 40.0129 76.848C45.4897 74.3134 50.358 69.4471 52.7922 64.0738C55.3277 58.5991 55.0235 53.53 52.0822 50.5899C49.1409 47.6498 43.9684 47.3457 38.5929 49.8802C33.1161 52.4148 28.2478 57.2812 25.8136 62.6544C23.278 68.1291 23.5823 73.1982 26.5236 76.1383"/>
	<path fill="#4A2D0A" d="M61.1088 50.894C58.3704 50.894 55.9363 49.9815 54.3135 48.3594C51.9808 46.0276 51.1694 42.4792 52.0822 38.2211C52.995 34.1658 55.4291 30.0092 58.8775 26.4608C62.3259 22.9124 66.5857 20.5806 70.6426 19.6681C74.801 18.7557 78.3508 19.5668 80.7849 21.8986C83.1176 24.2304 83.929 27.7787 83.0162 32.0368C82.1034 36.0921 79.6693 40.2488 76.2209 43.7972C72.7725 47.3456 68.5127 49.6774 64.4558 50.5898C63.2387 50.7926 62.2245 50.894 61.1088 50.894M73.9896 20.4792C73.0768 20.4792 72.0625 20.5806 70.9469 20.7833C67.0928 21.5944 63.1373 23.9262 59.7903 27.2718C52.8936 34.1658 50.8651 43.1889 55.2263 47.4469C57.2548 49.4746 60.5003 50.1843 64.253 49.3732C68.107 48.5622 72.0625 46.2304 75.4095 42.8847C78.7565 39.5391 81.0892 35.5852 81.9006 31.7327C82.712 27.9815 82.002 24.7373 79.9735 22.7096C78.4522 21.2903 76.4237 20.4792 73.9896 20.4792"/>
	<path fill="#4A2D0A" d="M32.9132 79.1797C30.1748 79.1797 27.7407 78.2672 26.1179 76.6451C23.7852 74.3133 22.9738 70.7649 23.8866 66.5068C24.7994 62.4515 27.2335 58.2949 30.6819 54.7465C34.1303 51.1981 38.3901 48.8663 42.447 47.9538C46.6054 47.0414 50.1552 47.8525 52.5893 50.1843C54.922 52.5161 55.7334 56.0644 54.8206 60.3225C53.9078 64.3778 51.4737 68.5345 48.0253 72.0829C44.5769 75.6313 40.3171 77.9631 36.2602 78.8755C35.0431 78.9769 33.9275 79.1797 32.9132 79.1797M45.6925 48.6635C41.3314 48.6635 35.9559 51.0967 31.4933 55.5575C28.1464 58.9032 25.8136 62.8571 25.0022 66.7096C24.1909 70.4608 24.9008 73.705 26.9293 75.7326C28.9577 77.7603 32.2033 78.47 35.9559 77.6589C39.81 76.8479 43.7655 74.5161 47.1125 71.1704C54.0092 64.2764 56.0377 55.2534 51.6765 50.9953C50.1552 49.4746 48.1267 48.6635 45.6925 48.6635"/>
	<path fill="#FFBF80" d="M64.5358 36.6068C74.3739 26.7727 76.7066 13.3902 69.9113 6.49618C63.1159 -0.29644 49.6267 2.13673 39.7886 11.8694C35.9345 15.722 33.2975 20.0814 31.7762 24.4409C30.6605 27.7865 28.0235 30.4224 24.6766 31.5377C20.3154 32.957 15.9542 35.6943 12.1001 39.5469C2.26209 49.381 -0.0706401 62.7635 6.72471 69.6575C13.5201 76.4501 27.0093 74.0169 36.8474 64.2842C40.7014 60.4317 43.3384 56.0722 44.8598 51.7128C45.9754 48.3672 48.6124 45.7312 51.9594 44.616C56.3206 43.0953 60.6818 40.4593 64.5358 36.6068"/>
	<path fill="#2D1B0A" d="M16.9898 74.5161C12.7301 74.5161 8.876 73.1981 6.03615 70.3594C2.48635 66.811 1.16785 61.5391 2.18208 55.5576C3.19631 49.6774 6.54327 43.7972 11.4116 38.8295C15.1642 34.9769 19.7283 32.1382 24.3937 30.6175C27.5378 29.6037 29.8706 27.1705 30.8848 24.129C32.4061 19.4654 35.3474 15.0046 39.1001 11.152C49.2424 1.01379 63.4416 -1.41939 70.6426 5.77877C77.8437 12.9769 75.4095 27.0691 65.2672 37.3087C61.4131 41.1613 56.9505 44 52.2851 45.5207C49.2424 46.5345 46.8082 48.9677 45.794 52.0092C44.2726 56.6728 41.3314 61.1336 37.5787 64.9861C31.3919 71.1705 23.6838 74.5161 16.9898 74.5161M59.6889 3.64973C53.6036 3.64973 46.4025 6.79259 40.52 12.5714C36.9702 16.1198 34.2318 20.3778 32.8118 24.7373C31.5948 28.3871 28.7549 31.2258 25.0023 32.5437C20.6411 34.0645 16.3813 36.7004 12.8315 40.2488C8.26746 44.811 5.12335 50.3871 4.21054 55.8617C3.29773 61.235 4.41338 65.7972 7.45608 68.8387C13.8457 75.2258 26.7265 72.7926 36.0574 63.4654C39.7086 59.8156 42.3456 55.659 43.7655 51.2995C44.9826 47.6497 47.8225 44.811 51.5751 43.4931C55.9363 42.0737 60.0946 39.3364 63.7459 35.788C73.0768 26.4608 75.5109 13.5852 69.1213 7.19812C66.7886 4.86632 63.4416 3.64973 59.6889 3.64973"/>
	<path fill="#4A2D0A" d="M33.7246 34.0646C33.6232 34.0646 33.4204 33.9632 33.3189 33.8618L28.7549 29.2996C28.6028 29.0968 28.6028 28.6913 28.7549 28.4885C28.9577 28.3364 29.3634 28.3364 29.5663 28.4885L34.1303 33.0507C34.3332 33.2535 34.3332 33.659 34.1303 33.8618C34.0289 33.9632 33.9275 34.0646 33.7246 34.0646"/>
	<path fill="#4A2D0A" d="M57.1534 9.22579C56.9505 9.22579 56.8491 9.12441 56.7477 9.02304L52.6907 4.46082C52.5386 4.25805 52.5386 3.85252 52.6907 3.64976C52.8936 3.49768 53.2993 3.49768 53.5021 3.64976L57.559 8.21198C57.7619 8.41473 57.7619 8.82026 57.559 9.02304C57.4576 9.22579 57.3562 9.22579 57.1534 9.22579"/>
	<path fill="#4A2D0A" d="M8.77458 58.1935C8.67315 58.1935 8.47031 58.0922 8.36889 57.9908L3.70342 53.3272C3.55129 53.1244 3.55129 52.7189 3.70342 52.5161C3.90627 52.3641 4.31196 52.3641 4.5148 52.5161L9.18027 57.1797C9.38311 57.3825 9.38311 57.788 9.18027 57.9908C9.07885 58.0922 8.87599 58.1935 8.77458 58.1935"/>
	<path fill="#4A2D0A" d="M46.6054 48.3595C46.504 48.3595 46.3012 48.2581 46.1997 48.1567L41.6357 43.5945C41.4836 43.3917 41.4836 42.9862 41.6357 42.7834C41.8385 42.6313 42.2442 42.6313 42.4471 42.7834L47.0111 47.3456C47.214 47.5484 47.214 47.9539 47.0111 48.1567C46.9097 48.2581 46.7068 48.3595 46.6054 48.3595"/>
	<path fill="#4A2D0A" d="M37.7816 49.1705C37.6801 49.1705 37.4773 49.0691 37.3759 48.9678L32.4061 44C32.254 43.7972 32.254 43.3917 32.4061 43.189C32.609 43.0369 33.0147 43.0369 33.2175 43.189L38.1873 48.1567C38.3901 48.3595 38.3901 48.765 38.1873 48.9678C38.0858 49.0691 37.883 49.1705 37.7816 49.1705"/>
	<path fill="#4A2D0A" d="M27.0308 60.7281C26.9293 60.7281 26.7265 60.6267 26.6251 60.5254L21.6553 55.5576C21.5032 55.3548 21.5032 54.9493 21.6553 54.7466C21.8582 54.5945 22.2639 54.5945 22.4667 54.7466L27.4365 59.7143C27.6393 59.9171 27.6393 60.3226 27.4365 60.5254C27.335 60.7281 27.1322 60.7281 27.0308 60.7281"/>
	<path fill="#4A2D0A" d="M40.0129 61.9447C39.9114 61.9447 39.7086 61.8433 39.6072 61.742L34.6374 56.7742C34.4853 56.5714 34.4853 56.1659 34.6374 55.9632C34.8403 55.8111 35.246 55.8111 35.4488 55.9632L40.4186 60.9309C40.6214 61.1337 40.6214 61.5392 40.4186 61.742C40.3171 61.9447 40.2157 61.9447 40.0129 61.9447"/>
	<path fill="#4A2D0A" d="M60.3989 40.2488C60.2974 40.2488 60.0946 40.1474 59.9932 40.0461L55.0234 35.0783C54.8713 34.8755 54.8713 34.47 55.0234 34.2673C55.2263 34.1152 55.632 34.1152 55.8348 34.2673L60.8046 39.235C61.0074 39.4378 61.0074 39.8433 60.8046 40.0461C60.7031 40.2488 60.6017 40.2488 60.3989 40.2488"/>
	<path fill="#4A2D0A" d="M55.9363 19.6682C55.8348 19.6682 55.632 19.5668 55.5306 19.4655L50.5608 14.4977C50.4087 14.2949 50.4087 13.8894 50.5608 13.6867C50.7637 13.5346 51.1694 13.5346 51.3722 13.6867L56.342 18.6544C56.5448 18.8572 56.5448 19.2627 56.342 19.4655C56.2405 19.5668 56.0377 19.6682 55.9363 19.6682"/>
	<path fill="#4A2D0A" d="M46.9097 30.3133C46.8082 30.3133 46.6054 30.2119 46.504 30.1106L41.5342 25.1428C41.3821 24.94 41.3821 24.5345 41.5342 24.3318C41.7371 24.1797 42.1428 24.1797 42.3456 24.3318L47.3154 29.2995C47.5182 29.5023 47.5182 29.9078 47.3154 30.1106C47.2139 30.2119 47.0111 30.3133 46.9097 30.3133"/>
	<path fill="#4A2D0A" d="M45.8954 17.1336C45.7939 17.1336 45.5911 17.0322 45.4897 16.9309L40.5199 11.9631C40.3678 11.7603 40.3678 11.3548 40.5199 11.1521C40.7228 11 41.1285 11 41.3313 11.1521L46.3011 16.1198C46.5039 16.3226 46.5039 16.7281 46.3011 16.9309C46.1996 17.0322 46.0982 17.1336 45.8954 17.1336"/>
	<path fill="#4A2D0A" d="M18.7141 43.7972C18.6126 43.7972 18.4098 43.6958 18.3084 43.5945L13.3386 38.6267C13.1865 38.424 13.1865 38.0184 13.3386 37.8157C13.5415 37.6636 13.9472 37.6636 14.15 37.8157L19.1198 42.7834C19.3226 42.9862 19.3226 43.3917 19.1198 43.5945C19.0183 43.7972 18.8155 43.7972 18.7141 43.7972"/>
	<path fill="#4A2D0A" d="M18.8155 57.1797C18.714 57.1797 18.5112 57.0783 18.4098 56.977L13.44 52.0092C13.2879 51.8064 13.2879 51.4009 13.44 51.1982C13.6429 51.0461 14.0486 51.0461 14.2514 51.1982L19.2212 56.1659C19.424 56.3687 19.424 56.7742 19.2212 56.977C19.1197 57.1797 19.0183 57.1797 18.8155 57.1797"/>
	<path fill="#4A2D0A" d="M62.5288 27.7788C62.4273 27.7788 62.2245 27.6774 62.1231 27.5761L57.1533 22.6083C57.0012 22.4055 57.0012 22 57.1533 21.7973C57.3562 21.6452 57.7619 21.6452 57.9647 21.7973L62.9345 26.765C63.1373 26.9678 63.1373 27.3733 62.9345 27.5761C62.833 27.7788 62.6302 27.7788 62.5288 27.7788"/>
	<path fill="#4A2D0A" d="M28.5521 71.0691C28.4506 71.0691 28.2478 70.9677 28.1464 70.8664L23.1766 65.8986C23.0245 65.6958 23.0245 65.2903 23.1766 65.0876C23.3795 64.9355 23.7852 64.9355 23.988 65.0876L28.9578 70.0553C29.1606 70.2581 29.1606 70.6636 28.9578 70.8664C28.8563 70.9677 28.6535 71.0691 28.5521 71.0691"/>
	<path fill="#4A2D0A" d="M71.0484 28.1843C70.9469 28.1843 70.7441 28.0829 70.6427 27.9816L65.673 23.0138C65.5208 22.811 65.5208 22.4055 65.673 22.2028C65.8758 22.0507 66.2815 22.0507 66.4843 22.2028L71.4541 27.1705C71.6569 27.3733 71.6569 27.7788 71.4541 27.9816C71.3526 28.1843 71.2512 28.1843 71.0484 28.1843"/>
	<path fill="#4A2D0A" d="M6.94895 69.3456C6.64468 69.3456 6.44183 69.1429 6.34041 68.8388C5.4276 61.1337 9.3831 51.8064 16.7869 44.507C19.424 41.8709 23.1766 39.9447 26.5236 38.1199C29.3634 36.5991 32.1019 35.1797 33.7246 33.5576C35.2459 32.0368 36.7673 29.2995 38.2887 26.3594C40.1143 22.9125 42.1427 19.0599 44.7798 16.424C51.9808 9.22582 61.1088 5.2719 68.7155 5.89995C69.0199 5.89995 69.2227 6.28573 69.2227 6.58988C69.2227 6.89402 68.9184 7.09679 68.6142 7.09679C61.4132 6.38711 52.5894 10.341 45.6926 17.2351C43.1569 19.7696 41.2299 23.4193 39.4044 26.8664C37.7815 29.8064 36.2603 32.6451 34.6375 34.3687C32.9132 36.0921 30.1749 37.5116 27.2335 39.1337C23.7852 40.9585 20.2353 42.7834 17.8013 45.3179C14.2514 48.8663 11.4116 52.9217 9.68737 57.1797C7.96318 61.235 7.25322 65.1889 7.76033 68.7374C7.55748 69.0415 7.35464 69.2442 6.94895 69.3456"/>
	<path fill="#4A2D0A" d="M9.89027 70.2581C9.18031 70.2581 8.36893 70.2581 7.65897 70.1567C7.3547 70.1567 7.15185 69.8525 7.15185 69.5484C7.15185 69.2443 7.45612 69.0415 7.76039 69.0415C11.3102 69.447 15.2657 68.7373 19.3227 67.1152C23.4809 65.3917 27.6393 62.553 31.1891 59.0046C33.6232 56.5714 35.5504 53.0231 37.3759 49.5761C38.8874 46.636 40.4187 43.7972 42.1429 42.1751C43.867 40.4516 46.6055 39.0323 49.6482 37.4102C53.198 35.5853 56.7478 33.5576 59.2833 31.1244C66.18 24.2304 70.1356 15.4102 69.4257 8.212C69.4257 7.90785 69.6284 7.6037 69.9327 7.6037C70.2369 7.6037 70.5413 7.80647 70.5413 8.11061C71.2513 15.7143 67.2958 24.8387 60.0947 32.0369C57.4577 34.6728 53.6037 36.7005 50.1553 38.5254C47.214 40.0461 44.4756 41.5668 42.9542 43.0876C41.4328 44.6083 39.9115 47.3456 38.3902 50.2857C36.666 53.6313 34.6375 57.3825 32.0005 60.0184C25.3065 66.3042 16.9899 70.2581 9.89027 70.2581"/>
	<path fill="#4A2D0A" d="M7.05043 69.9539C6.949 69.9539 6.74616 69.8525 6.64473 69.7513C6.4926 69.5484 6.4926 69.143 6.64473 68.9401L69.0199 6.58992C69.2228 6.43785 69.6285 6.43785 69.8313 6.58992C69.9834 6.79269 69.9834 7.19822 69.8313 7.40098L7.45612 69.7513C7.3547 69.8525 7.25327 69.9539 7.05043 69.9539"/>
</svg>
