<?xml version="1.0" encoding="utf-8" ?>
<svg xmlns="http://www.w3.org/2000/svg" xmlns:xlink="http://www.w3.org/1999/xlink" width="62" height="96">
	<path fill="white" d="M38.2155 96C37.5209 96 36.8263 95.8994 36.1317 95.7987C34.2463 95.2956 32.3609 95.0943 30.5747 95.0943C28.6893 95.0943 27.3 95.3962 26.5062 95.5975C25.7123 95.7987 24.9185 95.8994 24.2239 95.8994C23.2315 95.8994 22.2392 95.6981 21.2469 95.3962C4.57599 89.4591 -2.86638 71.2453 1.00365 45.283C7.45371 2.21384 27.1016 0 31 0C36.1317 0 53.4972 3.32075 61.0388 45.9874C64.7104 66.6164 57.8634 91.5723 40.4979 95.7987C39.704 95.8994 38.9101 96 38.2155 96"/>
	<path fill="#635549" d="M4.02458 45.5599C0.15455 71.2203 7.59692 87.0191 22.184 92.2517C23.3748 92.7046 24.5655 92.7046 25.7563 92.3523C27.7409 91.8492 31.5118 91.3461 36.771 92.5536C37.6641 92.7046 38.7557 92.7046 39.6487 92.5536C54.6327 88.931 61.3805 66.0882 57.9074 46.365C50.9612 7.01901 35.5803 2.99385 30.9061 2.99385C26.2525 2.99385 9.78002 7.11964 4.02458 45.5599"/>
	<path fill="#2D1B0A" d="M38.2153 93.6856C37.6199 93.6856 37.1238 93.5849 36.6276 93.4843C31.4676 92.2768 27.7961 92.8805 26.0098 93.283C24.6206 93.6856 23.1322 93.5849 21.8421 93.0818C5.96509 87.4466 -0.78266 70.5409 2.98814 45.3837C9.33897 3.22015 28.6891 2.0126 30.9715 2.0126C34.3453 2.0126 51.5124 4.12581 58.9548 46.1887C62.4279 66.0126 55.6801 89.761 39.9023 93.5849C39.3069 93.6856 38.7115 93.6856 38.2153 93.6856M30.5746 90.7673C32.4599 90.7673 34.5438 90.9686 37.0246 91.5723C37.8184 91.7736 38.6123 91.7736 39.4061 91.5723C53.9932 88.0503 60.2449 65.4088 56.9701 46.4906C49.8254 6.03776 34.0476 4.02518 30.9715 4.02518C28.9869 4.02518 11.0259 5.23273 4.97278 45.6856C1.40044 69.7359 7.5528 85.9371 22.5368 91.2705C23.5291 91.5723 24.5215 91.673 25.6129 91.3711C26.7045 91.0692 28.3915 90.7673 30.5746 90.7673"/>
	<path fill="#FEECD4" d="M12.0184 53.2327C12.0184 35.9246 16.583 18.4151 23.827 7.5472C13.2092 15.0944 6.26295 33.8114 6.26295 52.2264C6.26295 78.8931 12.713 86.3397 21.6439 88.3522C15.7892 82.4151 12.0184 71.8491 12.0184 53.2327M49.528 53.2327C49.528 35.9246 44.9632 18.4151 37.7193 7.5472C48.3372 15.0944 55.2834 33.8114 55.2834 52.2264C55.2834 78.8931 48.8334 86.3397 39.9025 88.3522C45.658 82.4151 49.528 71.8491 49.528 53.2327"/>
	<path fill="#FEECD4" d="M23.7276 50.717C23.7276 34.8176 25.7123 18.3145 30.6738 6.239C21.9415 14.2893 18.4683 29.9874 18.4683 50.717C18.4683 74.0629 22.7353 84.8302 29.2846 89.8616C25.8115 80 23.7276 66.9182 23.7276 50.717M38.4139 50.717C38.4139 34.8176 36.2309 18.3145 30.773 6.239C40.2993 14.2893 44.1693 29.9874 44.1693 50.717C44.1693 74.0629 39.5054 84.8302 32.3607 89.8616C36.2309 80 38.4139 66.9182 38.4139 50.717"/>
</svg>
