<?xml version="1.0" encoding="utf-8" ?>
<svg xmlns="http://www.w3.org/2000/svg" xmlns:xlink="http://www.w3.org/1999/xlink" width="58" height="108">
	<path fill="white" d="M30.7551 108C27.6564 108 25.3573 106.202 23.7579 105.003C23.558 104.803 23.1581 104.603 22.9582 104.403C20.4592 104.104 14.3616 102.006 12.1624 98.4089C11.3628 97.1101 10.4631 95.8113 9.36355 94.4126C8.16402 92.8141 6.96449 91.1156 5.96488 89.3173C4.16559 86.0204 3.86571 78.3275 3.86571 72.4329C3.76575 72.2331 3.56583 71.6337 3.3659 71.334C2.76614 70.235 2.16638 68.9362 2.16638 67.4376C2.16638 61.543 1.26673 58.9454 0.766927 57.8464C-1.03237 54.1499 0.766927 50.4533 1.76653 48.555C1.86649 48.2553 2.06642 47.9556 2.16638 47.7558L2.16638 42.4607C2.16638 39.6633 6.76457 33.9685 9.56347 30.7715C10.2632 29.9722 10.5631 27.4746 10.763 25.7761C11.0629 23.1785 11.3628 20.9806 12.8622 19.5819C13.8618 18.6827 15.861 15.3858 16.1609 14.2868C16.1609 12.7882 16.7606 10.79 19.4596 9.2914C20.3592 8.19241 20.7591 7.19334 20.7591 6.59389C20.7591 1.3987 27.1565 0.39963 29.5556 0C30.0554 0 30.3553 0 30.7551 0C32.6544 0 33.8539 0.699352 34.5536 1.3987C39.4517 3.29695 42.4505 4.89547 44.2498 6.39408C46.5489 8.49214 46.7488 8.69195 48.6481 10.5902C50.5473 12.4884 50.4474 14.9861 50.3474 16.5846C50.2475 17.5837 50.2475 18.2831 50.4474 18.6827C51.347 20.1813 51.9468 21.8797 52.5466 23.4783C53.0464 24.9769 53.5462 26.2757 54.1459 27.2747C55.8453 29.8723 55.2455 32.2701 54.9456 33.7687C54.7457 34.3682 54.6457 34.9676 54.6457 35.4672C54.6457 36.2664 55.0456 37.2655 55.5454 38.5643C56.2451 40.2627 57.1448 42.6605 57.7445 45.8575C58.944 51.852 55.6453 57.0472 53.5462 60.2442C53.1463 60.8437 52.8464 61.3432 52.6465 61.7428C52.2467 62.5421 52.3466 64.9399 52.3466 66.8381C52.4466 69.136 52.5466 71.7336 52.1467 74.4311C51.1471 80.3256 46.7488 88.3182 44.5497 91.7151C44.4497 91.9149 44.3498 92.0148 44.3498 92.1147C44.3498 92.1147 44.3498 92.2146 44.3498 92.2146C44.8496 93.2137 45.6493 95.1119 44.2498 98.1092C42.7504 101.106 40.5513 103.105 37.6524 104.004C36.153 106.601 33.754 108 30.7551 108"/>
	<path fill="#ABC054" d="M30.1136 2.4054C27.9144 2.72426 23.816 3.42362 23.816 6.02121C23.816 7.51982 22.9164 9.41807 21.417 11.1165C20.0175 11.8158 19.2178 12.6151 19.2178 13.814C19.2178 15.5124 16.5189 19.9084 14.9195 21.3071C13.4201 22.7058 14.2198 29.4995 11.8207 32.197C9.42169 34.8945 5.22334 40.3894 5.22334 41.888L5.22334 47.4828C5.22334 48.8815 1.82468 52.5781 3.52401 55.975C5.22334 59.3718 5.22334 65.3663 5.22334 66.8649C5.22334 68.3635 6.92268 70.4615 6.92268 71.7603C6.92268 73.159 6.92268 84.049 8.62201 87.246C10.5213 90.443 13.2202 93.5402 14.7196 96.2377C16.4189 98.9352 22.2167 100.833 23.6161 100.833C25.0156 100.833 27.3147 104.43 30.8133 104.43C33.0124 104.43 34.7117 103.231 35.7114 100.833C38.6102 100.334 40.5095 98.6355 41.709 96.2377C43.4083 92.5411 40.0097 92.8408 42.2088 89.444C44.4079 86.0471 48.5063 78.5541 49.406 73.259C50.3056 67.9639 48.7062 62.369 50.3056 59.6715C51.905 56.974 56.3033 51.6789 55.1037 45.8843C53.9042 39.8899 51.905 37.592 51.905 34.7946C51.905 32.197 53.4044 30.4985 51.905 28.2007C50.4056 25.8029 49.7058 22.1063 48.2064 19.5087C46.707 16.9111 48.7062 13.9139 46.807 12.0157C44.9077 10.1174 44.8078 10.0175 42.5087 7.91945C41.0093 6.52075 37.9105 5.02214 33.0124 3.12389C32.4127 2.62436 31.613 2.4054 30.1136 2.4054"/>
	<path fill="#2D1B0A" d="M30.7551 105.502C28.356 105.502 26.4568 104.003 25.0573 102.904C24.5575 102.504 23.8578 102.005 23.6579 101.905C21.9585 101.905 15.8609 99.9061 13.9617 96.8082C13.262 95.5091 12.1624 94.11 11.1628 92.611C10.0632 91.0121 8.8637 89.4131 7.86409 87.7143C6.16476 84.5164 6.0648 75.5225 6.0648 71.725C6.0648 71.3253 5.66495 70.5258 5.36507 69.8263C4.86527 68.827 4.36546 67.8277 4.36546 66.8283C4.36546 60.8324 3.46582 57.8344 2.76609 56.3354C1.36664 53.5373 2.76609 50.6392 3.7657 48.8404C4.06558 48.3407 4.36546 47.6412 4.36546 47.4413L4.36546 41.8451C4.36546 39.3468 10.9629 31.8518 11.2628 31.4521C12.3623 30.153 12.6622 27.6546 12.9621 25.3562C13.262 23.0577 13.4619 21.3589 14.4615 20.4595C15.9609 19.1604 18.36 14.9632 18.36 13.764C18.36 12.3649 19.2596 11.1657 20.9589 10.2663C22.2584 8.86727 22.9582 7.26834 22.9582 5.96922C22.9582 2.47157 27.7563 1.77204 30.0554 1.3331C32.0546 1.17244 33.0542 1.77204 33.554 2.37163C38.4521 4.27036 41.4509 5.76935 43.0502 7.16841C45.2494 9.267 45.4493 9.46687 47.3486 11.2657C48.648 12.5648 48.5481 14.2636 48.4481 15.6627C48.3482 16.8619 48.2482 17.9612 48.848 18.9605C49.6477 20.2596 50.2474 21.8585 50.7472 23.4575C51.347 25.0564 51.8468 26.5554 52.5465 27.6546C53.746 29.5534 53.3462 31.1523 53.0463 32.6513C52.8464 33.3508 52.7464 34.0503 52.7464 34.8498C52.7464 35.9491 53.1463 37.1483 53.846 38.7472C54.5457 40.446 55.3454 42.6446 55.9452 45.7425C57.0447 50.939 54.0459 55.5359 52.0467 58.6338C51.6469 59.2334 51.347 59.7331 51.0471 60.2328C50.3474 61.5319 50.4473 63.8303 50.5473 66.3287C50.6473 68.5272 50.7472 71.0255 50.3474 73.5238C49.4477 79.1201 45.1494 86.8149 43.0502 90.1127C42.2506 91.4118 42.3505 91.8115 42.7504 92.5111C43.1502 93.4105 43.65 94.6097 42.6504 96.8082C41.251 99.5064 39.2517 101.205 36.4528 101.905C35.2533 104.303 33.2541 105.502 30.7551 105.502M30.2553 3.37096C28.7559 3.57083 24.8574 4.17042 24.8574 5.96922C24.8574 7.76801 23.8578 9.8666 22.2584 11.7653C20.4591 12.6647 20.2592 13.3642 20.2592 13.764C20.2592 15.8626 17.3604 20.4595 15.661 21.9585C15.2612 22.3582 15.0613 24.2569 14.8613 25.5561C14.5615 28.0544 14.1616 30.9524 12.6622 32.7512C9.46346 36.4487 6.36468 40.8458 6.26472 41.8451L6.26472 47.4413C6.26472 48.1409 5.86488 48.8404 5.46503 49.7398C4.56539 51.4387 3.56578 53.5373 4.46543 55.5359C5.66495 57.9343 6.26472 61.7317 6.26472 66.8283C6.26472 67.4279 6.66456 68.2274 7.0644 69.0268C7.56421 70.0262 7.96405 70.9256 7.96405 71.825C7.96405 77.6211 8.36389 84.6164 9.56342 86.8149C10.4631 88.4138 11.6626 89.9128 12.7622 91.5117C13.8617 93.0107 14.9613 94.5097 15.661 95.8088C17.1604 98.1073 22.5583 99.9061 23.6579 99.9061C24.5575 99.9061 25.3572 100.506 26.3568 101.305C27.5563 102.304 29.1782 103.504 30.855 103.504C32.6543 103.504 34.0538 102.504 34.8535 100.506C37.9523 99.5064 39.6516 98.2072 40.7512 95.8088C41.3509 94.4098 41.151 93.9101 40.8511 93.2106C40.3513 92.1113 40.0514 90.9121 41.3509 88.9135C43.75 85.216 47.5485 78.0208 48.3482 73.1241C48.748 70.8256 48.648 68.4272 48.5481 66.3287C48.4481 63.4306 48.3482 60.9323 49.3478 59.1335C49.6477 58.6338 49.9475 58.0342 50.3474 57.4346C52.1467 54.6365 54.8456 50.4393 53.946 46.0423C53.3462 43.0443 52.5465 41.0456 51.8468 39.3468C51.1471 37.6479 50.6473 36.2489 50.6473 34.7499C50.6473 33.7505 50.8472 32.8512 51.0471 32.0517C51.347 30.6526 51.5469 29.8532 50.8472 28.654C50.0475 27.3548 49.4477 25.656 48.848 24.0571C48.3482 22.5581 47.7484 21.0591 47.0487 19.9598C46.149 18.4608 46.249 16.8619 46.349 15.5628C46.4489 14.1637 46.4489 13.2643 45.8491 12.6647C43.9499 10.766 43.8499 10.6661 41.6508 8.56747C40.2513 7.26834 37.2525 5.76935 32.4544 3.97056C31.7547 3.47089 31.1549 3.27103 30.2553 3.37096"/>
	<path fill="#BED26A" d="M40.3512 7.69284C39.7515 7.39312 39.1517 7.19331 38.452 6.89358C38.1521 6.19423 37.3524 5.89451 35.953 6.09432C33.9538 6.39405 30.2552 7.0934 30.2552 9.59109C30.2552 11.0897 29.4555 12.9879 28.0561 14.6864C26.6566 15.3857 26.0569 16.185 26.0569 17.3839C26.0569 19.0823 23.5578 23.4782 22.1584 24.777C20.7589 26.0758 21.5586 32.8695 19.3596 35.567C17.1604 38.2645 13.3619 43.6595 13.3619 45.1582L13.3619 50.753C13.3619 52.0518 10.2631 55.8483 11.7625 59.1452C13.3619 62.5421 13.3619 68.4366 13.3619 69.9352C13.3619 71.4338 14.9613 73.432 14.9613 74.8307C14.9613 76.1295 14.9613 86.9195 16.5606 90.1165C18.26 93.3136 20.7589 96.3108 22.1584 99.0083C22.3583 99.308 22.6582 99.7076 22.9581 100.007C20.959 99.5078 17.2603 97.8094 15.9608 95.6114C14.3615 92.9139 11.9625 89.9167 10.3631 86.7197C8.66376 83.5226 8.76372 72.7326 8.76372 71.4338C8.76372 70.135 7.16434 68.037 7.16434 66.5384C7.16434 65.0397 7.16434 59.1452 5.56497 55.7483C3.9656 52.3515 7.16434 48.6549 7.16434 47.3561L7.16434 41.7613C7.16434 40.2627 11.0628 34.6679 13.162 32.1702C15.3612 29.6725 14.5614 22.8788 15.9608 21.3802C17.3603 20.0814 19.8594 15.6854 19.8594 13.987C19.8594 12.7881 20.4592 11.9889 21.8585 11.2895C23.258 9.39127 24.0577 7.79275 24.0577 6.19423C24.0577 3.79645 27.7562 2.99719 29.7554 2.6254C31.1549 2.49765 31.9545 2.6254 32.2545 3.49673C36.053 5.09525 38.8518 6.59386 40.3512 7.69284M30.755 103.704C29.6554 103.704 28.8559 103.404 28.156 103.004C29.0557 103.304 29.7554 103.504 30.1553 103.504C30.2552 103.504 30.6551 103.504 30.755 103.704"/>
	<path fill="#A7BA4E" d="M23.8578 28.4736C22.1585 31.7706 21.2588 35.1674 21.2588 38.4644C21.2588 43.5597 22.9582 48.9547 19.2596 55.7484C15.5611 62.6421 11.5626 58.8456 12.4623 67.0379C13.3619 75.2303 10.0632 75.8298 11.5626 80.2258C13.062 84.6217 11.5626 90.3164 12.4623 90.3164C13.3619 90.3164 15.0613 88.7178 15.0613 84.4219C15.0613 80.2258 13.3619 78.7271 14.1616 73.532C15.0613 68.3367 14.8613 64.7401 16.1608 62.6421C17.5603 60.544 18.36 52.1517 19.2596 49.0546C20.1593 45.9575 22.9582 43.9594 23.8578 38.4644C24.6575 32.8696 21.4587 32.8696 23.8578 28.4736"/>
	<path fill="#A5B548" d="M36.253 5.49505C33.8539 7.39329 32.8543 8.19255 32.8543 12.0889L32.8543 25.3766C32.8543 28.4738 29.7555 31.1713 28.9559 34.2684C28.4561 36.2665 28.6925 39.3636 29.6556 43.4599C29.1558 34.7679 29.1558 29.4729 29.9555 27.7745C31.155 25.1769 34.3537 19.9816 34.3537 14.6865C34.3537 9.39144 35.0535 10.0908 35.5533 8.39237C36.0531 7.39329 36.253 6.39422 36.253 5.49505M48.1483 34.2684C45.7493 35.4673 46.449 40.063 45.5493 43.6597C44.5497 47.2563 41.9508 49.754 41.9508 51.8521C41.9508 55.9483 41.7508 57.6467 40.7512 57.6467C39.7516 57.6467 39.5517 58.8456 39.5517 60.8438C39.5517 62.7421 37.6524 70.8345 35.6532 71.7337C33.654 72.6329 40.7512 67.6376 40.7512 64.94C40.7512 62.2425 41.251 61.5431 41.9508 59.6449C42.6505 57.7466 46.2491 54.25 46.2491 53.5505C46.2491 52.8512 47.4486 52.5514 48.1483 52.5514C48.6481 52.5514 49.3478 51.6523 50.0476 49.9538C51.9468 37.865 51.2471 32.7697 48.1483 34.2684"/>
	<path fill="#959C34" d="M25.1573 4.99537C25.1573 6.39408 27.4564 7.59297 30.2553 7.59297C33.0542 7.59297 35.3533 6.49399 35.3533 4.99537C35.3533 3.59667 33.0542 2.39778 30.2553 2.39778C27.4564 2.39778 25.1573 3.59667 25.1573 4.99537"/>
	<path fill="#A5B548" d="M39.8514 34.7154C37.9523 35.6669 33.354 35.9667 32.1544 40.5624C30.9549 44.9583 29.7555 55.049 27.0491 57.247C24.3575 59.4449 25.0573 64.9398 24.6574 67.1378C24.3575 69.3358 19.7594 72.2331 19.7594 77.1285C19.7594 82.024 18.7598 83.9223 18.7598 87.5189C18.7598 89.9167 17.2603 92.4144 13.9616 95.012C16.6606 93.1137 18.7598 90.716 20.0592 87.7187C22.0585 83.3228 22.0585 84.3219 22.0585 80.7252C22.0585 77.1285 22.3583 76.1295 23.258 72.9324C24.2576 69.8353 22.2584 65.9389 23.4579 61.543C24.6574 57.1471 34.0537 45.5578 34.1538 42.9602C34.3536 40.5624 41.6507 34.0684 39.8514 34.7154"/>
</svg>
