<?xml version="1.0" encoding="utf-8" ?>
<svg xmlns="http://www.w3.org/2000/svg" xmlns:xlink="http://www.w3.org/1999/xlink" width="76" height="76">
	<path fill="white" d="M38.1011 76C20.7181 76 5.55851 64.1912 1.21277 47.336C0.404255 44.6109 0 41.4821 0 38C0 17.0571 17.0798 0 38 0C58.9202 0 76 17.0571 76 38C76 58.842 59.0213 76 38.1011 76M38.1011 31.6919C34.5638 31.6919 31.734 34.5179 31.734 38C31.734 41.583 34.5638 44.409 38.1011 44.409C41.6383 44.409 44.4681 41.583 44.4681 38C44.4681 34.5179 41.5372 31.6919 38.1011 31.6919"/>
	<path fill="#FFBF91" d="M37.6968 3.07845C18.3936 3.07845 2.7287 18.7225 2.7287 38C2.7287 57.2776 18.3936 72.9218 37.6968 72.9218C57 72.9218 72.6649 57.2776 72.6649 38C72.6649 18.7225 57.101 3.07845 37.6968 3.07845M37.6968 47.3866C32.5425 47.3866 28.2978 43.1475 28.2978 38C28.2978 32.8526 32.5425 28.6136 37.6968 28.6136C42.851 28.6136 47.0957 32.8526 47.0957 38C47.0957 43.1475 42.9521 47.3866 37.6968 47.3866"/>
	<path fill="#FFD7AB" d="M37.6968 3.0785C18.3936 3.0785 2.7287 18.7226 2.7287 38.0001C2.7287 57.2777 18.3936 72.9218 37.6968 72.9218C57 72.9218 72.6649 57.2777 72.6649 38.0001C72.6649 18.7226 57.101 3.0785 37.6968 3.0785M37.6968 47.3866C32.5425 47.3866 28.2978 43.1476 28.2978 38.0001C28.2978 32.8527 32.5425 28.6137 37.6968 28.6137C42.851 28.6137 47.0957 32.8527 47.0957 38.0001C47.0957 43.1476 42.9521 47.3866 37.6968 47.3866"/>
	<path fill="#2D1B0A" d="M37.6968 73.9311C17.8883 73.9311 1.7181 57.7823 1.7181 38.0001C1.7181 18.2179 17.8883 2.0692 37.6968 2.0692C57.5053 2.0692 73.6755 18.2179 73.6755 38.0001C73.6755 57.7823 57.6064 73.9311 37.6968 73.9311M37.6968 4.08779C19 4.08779 3.73938 19.3282 3.73938 38.0001C3.73938 56.6721 19 71.9125 37.6968 71.9125C56.3936 71.9125 71.6543 56.6721 71.6543 38.0001C71.7553 19.3282 56.4947 4.08779 37.6968 4.08779M37.6968 48.3959C31.9362 48.3959 27.2872 43.7531 27.2872 38.0001C27.2872 32.2472 31.9362 27.6044 37.6968 27.6044C43.4575 27.6044 48.1064 32.2472 48.1064 38.0001C48.1064 43.7531 43.4575 48.3959 37.6968 48.3959M37.6968 29.623C33.0479 29.623 29.3085 33.3574 29.3085 38.0001C29.3085 42.6429 33.0479 46.3773 37.6968 46.3773C42.3458 46.3773 46.0851 42.6429 46.0851 38.0001C46.0851 33.3574 42.3458 29.623 37.6968 29.623"/>
	<path fill="#FC8DDC" d="M37.6968 3.1337C18.3934 3.1337 2.72855 18.7778 2.72855 38.0553C2.72855 47.7446 5.76046 55.5162 15.2605 56.9292C18.6966 57.4338 18.9998 59.9571 22.9413 61.7738C24.9625 62.6822 29.8137 60.1589 33.0476 60.7645C37.3935 61.5719 39.5158 63.2878 43.8615 62.7831C51.6435 61.8747 49.4201 57.131 54.2711 55.9199C56.8988 55.2134 59.9306 56.4245 63.0636 55.0115C67.3083 53.1948 72.6653 42.1935 72.6653 38.0553C72.7657 18.7778 57.1008 3.1337 37.6968 3.1337M37.6968 47.4418C32.5424 47.4418 28.2976 43.2028 28.2976 38.0553C28.2976 32.9079 32.5424 28.6689 37.6968 28.6689C42.8508 28.6689 47.0956 32.9079 47.0956 38.0553C47.0956 43.2028 42.952 47.4418 37.6968 47.4418"/>
	<path fill="#2D1B0A" d="M42.4468 63.8885C40.3245 63.8885 38.6064 63.3839 36.8883 62.7783C35.6755 62.3746 34.4628 61.9709 32.9468 61.769C31.5319 61.5671 29.7128 61.9709 27.8936 62.3746C25.7713 62.8792 23.9521 63.2829 22.5372 62.6774C20.516 61.769 19.4043 60.7597 18.3936 59.8513C17.383 58.842 16.5745 58.1355 15.0585 57.9337C6.16491 56.6216 1.7181 49.8593 1.7181 38.0505C1.7181 18.2683 17.8883 2.1196 37.6968 2.1196C57.5053 2.1196 73.6755 18.2683 73.6755 38.0505C73.6755 42.5924 68.2181 53.8965 63.4681 55.9151C61.3458 56.8235 59.4255 56.7225 57.6064 56.7225C56.4947 56.7225 55.383 56.6216 54.4734 56.9244C52.7553 57.3281 52.149 58.2365 51.3404 59.4476C50.2287 61.1634 48.8138 63.182 43.8617 63.7876C43.4575 63.8885 42.9521 63.8885 42.4468 63.8885M32.0372 59.6495C32.4415 59.6495 32.8458 59.6495 33.25 59.7504C34.867 60.0532 36.2819 60.4569 37.4947 60.8606C39.516 61.4662 41.2341 62.0718 43.7607 61.769C47.7021 61.2644 48.7128 59.8513 49.7234 58.3374C50.5319 57.0253 51.5426 55.6123 54.0692 55.0067C55.2819 54.7039 56.4947 54.7039 57.8085 54.8049C59.4255 54.9058 61.1436 54.9058 62.7607 54.1993C66.6011 52.4835 71.7553 41.9868 71.7553 38.1515C71.7553 19.4795 56.4947 4.23912 37.7979 4.23912C19.1011 4.23912 3.84044 19.4795 3.84044 38.1515C3.84044 48.85 7.78193 54.9058 15.4628 56.016C17.5851 56.3188 18.6968 57.3281 19.9096 58.4383C20.8192 59.2458 21.7287 60.1541 23.4468 60.8606C24.1543 61.1634 25.9734 60.7597 27.4894 60.356C29.0053 59.9523 30.6224 59.6495 32.0372 59.6495M37.6968 48.4463C31.9362 48.4463 27.2872 43.8035 27.2872 38.0505C27.2872 32.2976 31.9362 27.6548 37.6968 27.6548C43.4575 27.6548 48.1064 32.2976 48.1064 38.0505C48.1064 43.8035 43.4575 48.4463 37.6968 48.4463M37.6968 29.6734C33.0479 29.6734 29.3085 33.4078 29.3085 38.0505C29.3085 42.6933 33.0479 46.4277 37.6968 46.4277C42.3458 46.4277 46.0851 42.6933 46.0851 38.0505C46.0851 33.4078 42.3458 29.6734 37.6968 29.6734"/>
	<path fill="#3AA7F9" d="M45.6809 20.8924C45.6809 23.0119 47.399 24.7277 49.5213 24.7277C51.6436 24.7277 53.3617 23.0119 53.3617 20.8924C53.3617 18.7729 51.6436 17.0571 49.5213 17.0571C47.399 17.0571 45.6809 18.7729 45.6809 20.8924"/>
	<path fill="#2D1B0A" d="M49.5213 25.737C46.8936 25.737 44.6702 23.5166 44.6702 20.8924C44.6702 18.2682 46.8936 16.0478 49.5213 16.0478C52.149 16.0478 54.3724 18.2682 54.3724 20.8924C54.3724 23.5166 52.25 25.737 49.5213 25.737M49.5213 18.0664C48.0053 18.0664 46.6915 19.3785 46.6915 20.8924C46.6915 22.4063 48.0053 23.7184 49.5213 23.7184C51.0373 23.7184 52.3511 22.4063 52.3511 20.8924C52.3511 19.2775 51.1383 18.0664 49.5213 18.0664"/>
	<path fill="white" d="M22.6383 18.1673C22.6383 19.984 23.5479 21.5989 25.1649 22.5073C26.6809 23.4156 28.6011 23.4156 30.1171 22.5073C31.633 21.5989 32.6436 19.984 32.6436 18.1673C32.6436 16.3506 31.7341 14.7357 30.1171 13.8273C28.6011 12.919 26.6809 12.919 25.1649 13.8273C23.649 14.8366 22.6383 16.4515 22.6383 18.1673"/>
	<path fill="#2D1B0A" d="M27.6915 24.223C26.6809 24.223 25.6702 23.9202 24.6596 23.4156C22.8405 22.3055 21.6277 20.3877 21.6277 18.2682C21.6277 16.1487 22.7394 14.1301 24.6596 13.1208C26.4788 12.0106 28.8032 12.0106 30.6224 13.1208C32.4415 14.231 33.6543 16.1487 33.6543 18.2682C33.6543 20.3877 32.5426 22.4063 30.6224 23.4156C29.7128 23.9202 28.7022 24.223 27.6915 24.223M27.6915 14.231C26.9841 14.231 26.2766 14.4329 25.6702 14.7357C24.4575 15.4422 23.649 16.7543 23.649 18.1673C23.649 19.5803 24.4575 20.8924 25.6702 21.5989C26.883 22.3055 28.399 22.3055 29.6117 21.5989C30.8245 20.8924 31.633 19.5803 31.633 18.1673C31.633 16.7543 30.8245 15.4422 29.6117 14.7357C29.0054 14.4329 28.2979 14.231 27.6915 14.231"/>
	<path fill="white" d="M57.2021 40.0691C57.2021 41.4821 58.3138 42.5923 59.7287 42.5923C61.1436 42.5923 62.2553 41.4821 62.2553 40.0691C62.2553 38.6561 61.1436 37.5459 59.7287 37.5459C58.4149 37.5459 57.2021 38.6561 57.2021 40.0691"/>
	<path fill="#2D1B0A" d="M59.7287 43.6016C57.8085 43.6016 56.1915 41.9868 56.1915 40.0691C56.1915 38.1514 57.8085 36.5366 59.7287 36.5366C61.6489 36.5366 63.2659 38.1514 63.2659 40.0691C63.2659 41.9868 61.75 43.6016 59.7287 43.6016M59.7287 38.5552C58.9202 38.5552 58.2127 39.2617 58.2127 40.0691C58.2127 40.8765 58.9202 41.583 59.7287 41.583C60.5372 41.583 61.2447 40.8765 61.2447 40.0691C61.2447 39.2617 60.5372 38.5552 59.7287 38.5552"/>
	<path fill="#FFC543" d="M10.0053 39.7662C10.0053 41.3811 10.8138 42.7941 12.2287 43.6016C13.5425 44.409 15.2606 44.409 16.6755 43.6016C17.9893 42.7941 18.8989 41.3811 18.8989 39.7662C18.8989 38.1514 18.0904 36.7383 16.6755 35.9309C15.3617 35.1235 13.6436 35.1235 12.2287 35.9309C10.9149 36.7383 10.0053 38.1514 10.0053 39.7662"/>
	<path fill="#2D1B0A" d="M14.4521 45.1155C13.5425 45.1155 12.5319 44.9136 11.7234 44.409C10.0053 43.3997 8.99465 41.6839 8.99465 39.7662C8.99465 37.8486 10.0053 36.0318 11.7234 35.1235C13.4415 34.1142 15.4627 34.1142 17.1808 35.1235C18.8989 36.1328 19.9095 37.8486 19.9095 39.7662C19.9095 41.6839 18.8989 43.5006 17.1808 44.409C16.2712 44.9136 15.3617 45.1155 14.4521 45.1155M14.4521 36.3346C13.8457 36.3346 13.2393 36.4356 12.734 36.7383C11.7234 37.3439 11.0159 38.4542 11.0159 39.6653C11.0159 40.8765 11.6223 41.9867 12.734 42.5923C13.7446 43.1978 15.0585 43.1978 16.1702 42.5923C17.1808 41.9867 17.8883 40.8765 17.8883 39.6653C17.8883 38.4542 17.2819 37.3439 16.1702 36.7383C15.5638 36.5365 15.0585 36.3346 14.4521 36.3346"/>
	<path fill="#FFC543" d="M40.3244 55.3094C40.3244 56.6215 41.3351 57.6308 42.6489 57.6308C43.9627 57.6308 44.9734 56.6215 44.9734 55.3094C44.9734 53.9973 43.9627 52.988 42.6489 52.988C41.3351 52.988 40.3244 53.9973 40.3244 55.3094"/>
	<path fill="#2D1B0A" d="M42.6489 58.6401C40.8298 58.6401 39.3138 57.1261 39.3138 55.3094C39.3138 53.4927 40.8298 51.9787 42.6489 51.9787C44.468 51.9787 45.984 53.4927 45.984 55.3094C45.984 57.1261 44.468 58.6401 42.6489 58.6401M42.6489 53.9973C41.9414 53.9973 41.3351 54.6029 41.3351 55.3094C41.3351 56.0159 41.9414 56.6215 42.6489 56.6215C43.3563 56.6215 43.9627 56.0159 43.9627 55.3094C43.9627 54.6029 43.3563 53.9973 42.6489 53.9973"/>
</svg>
