<?xml version="1.0" encoding="utf-8" ?>
<svg xmlns="http://www.w3.org/2000/svg" xmlns:xlink="http://www.w3.org/1999/xlink" width="84" height="96">
	<path fill="white" d="M42 96C28.3262 96 14.8448 92.1438 3.18787 84.7357C1.56604 83.7209 0.451037 82.0973 0.0492 80.2706C-0.157149 78.444 0.248308 76.4144 1.36332 74.8922L5.31652 69.5137L7.6479 71.2389L30.5562 6.49471C31.9753 2.537 35.6244 0 39.7804 0C43.7336 0 47.18 2.23256 48.8018 5.88584L76.5756 70.63L77.5893 69.9197L82.252 74.9937C83.5697 76.4144 84.1779 78.241 83.9508 80.1691C83.6711 81.9958 82.5561 83.7209 81.0356 84.7357C69.2774 92.1438 55.7959 96 42 96"/>
	<path fill="#FFE269" d="M45.926 6.97053C43.4933 1.28765 35.4855 1.59209 33.3569 7.37644L7.91448 79.2243C7.30629 80.5434 7.56085 82.1671 8.31993 83.3849C9.13085 84.6026 10.5499 85.313 11.969 85.313L70.9631 85.313C75.2204 85.313 77.9572 80.8479 76.0313 77.0931L45.926 6.97053"/>
	<path fill="#2D1B0A" d="M70.904 86.3594L11.93 86.3594C10.1061 86.3594 8.38344 85.4461 7.47148 83.9239C6.5449 82.4017 6.25552 80.4736 6.96483 78.8499L32.3986 7.0021C33.5133 3.9577 36.1478 1.9281 39.4917 1.8226C42.7343 1.8226 45.5715 3.55178 46.8888 6.4947L76.9838 76.6173C77.9971 78.6469 77.8958 81.0824 76.6798 83.112C75.3625 85.2431 73.2346 86.3594 70.904 86.3594M39.6944 3.9577C39.5931 3.9577 39.5931 3.9577 39.4917 3.9577C37.5665 4.05918 35.2359 5.07398 34.3239 7.81394L8.89009 79.6617C8.48477 80.778 8.5861 81.9958 9.19408 82.9091C9.80206 83.8224 10.9167 84.4313 12.0313 84.4313L71.0053 84.4313C72.6266 84.4313 74.1466 83.6194 74.9572 82.1987C75.7678 80.778 75.8692 79.1543 75.1599 77.6321L45.0649 7.40802C43.8489 4.87102 41.5183 3.9577 39.6944 3.9577"/>
	<path fill="#EAB5E7" d="M31.3698 78.7484C30.7616 77.0232 31.2684 74.9937 32.7889 73.8774C34.3093 72.7611 36.3367 72.7611 37.857 73.8774C39.3775 74.9937 39.8843 76.9218 39.2761 78.7484L46.4731 78.7484C46.5744 78.241 46.5744 77.7336 46.5744 77.3277C46.5744 71.1374 41.5062 66.0634 35.323 66.0634C29.1398 66.0634 24.0716 71.1374 24.0716 77.3277C24.0716 77.8351 24.0716 78.3425 24.0716 78.7484L31.3698 78.7484"/>
	<path fill="#2D1B0A" d="M47.3853 79.7633L37.7556 79.7633L38.2625 78.444C38.7693 77.1247 38.2625 75.6026 37.1475 74.7907C36.0325 73.9789 34.4106 73.9789 33.2956 74.7907C32.1806 75.6026 31.7752 77.1247 32.1806 78.444L32.6874 79.7633L23.0578 79.7633C22.8551 78.3425 22.8551 77.8351 22.8551 77.2262C22.8551 70.4271 28.3288 64.9472 35.1202 64.9472C41.9116 64.9472 47.3853 70.4271 47.3853 77.2262C47.3853 77.7337 47.3853 78.3425 47.2839 78.8499M40.4925 77.7337L45.5607 77.7337C45.5607 77.6321 45.5607 77.4292 45.5607 77.3277C45.5607 71.6448 40.9993 67.0782 35.3229 67.0782C29.6465 67.0782 25.0851 71.6448 25.0851 77.3277C25.0851 77.4292 25.0851 77.6321 25.0851 77.7337L30.1533 77.7337C30.052 76.0085 30.7615 74.1818 32.1806 73.0655C34.0052 71.6448 36.5393 71.6448 38.4652 73.0655C39.8843 74.1818 40.6952 75.907 40.4925 77.7337"/>
	<path fill="#59AD47" d="M65.2254 52.0592C64.9213 52.871 64.2117 53.3784 63.2994 53.4799C62.4885 53.4799 61.6776 52.9725 61.2722 52.2621C60.9681 51.4503 61.0694 50.537 61.6776 49.9281C62.2858 49.3192 63.1981 49.1162 64.009 49.4207L60.8667 42.5201C57.319 43.4334 54.6835 46.3763 54.1767 49.9281C53.5685 53.4799 55.1903 57.1331 58.3326 59.0612C61.3735 60.9893 65.3267 60.9893 68.3677 58.9597L65.2254 52.0592"/>
	<path fill="#2D1B0A" d="M63.2994 61.5983C61.3735 61.5983 59.4476 61.0909 57.8258 59.9746C54.3794 57.742 52.6562 53.7843 53.2644 49.8266C53.8726 45.8689 56.8121 42.6215 60.7653 41.5053L66.0363 51.3488L69.6854 59.4672C67.1513 60.9894 65.2254 61.5983 63.2994 61.5983M60.3599 43.7378C57.623 44.7526 55.6971 47.1881 55.1903 50.1311C54.6835 53.3784 56.1026 56.5243 58.8394 58.2494C61.3735 59.8731 64.4144 59.9746 67.0499 58.5539L64.9213 53.8858C64.4144 54.1902 63.9076 54.3932 63.2994 54.3932C62.0831 54.4947 60.8667 53.6828 60.3599 52.5666C59.8531 51.4503 60.0558 50.0296 60.9681 49.1162C61.3735 48.7103 61.8803 48.4059 62.3872 48.3044L60.3599 43.7378M63.2994 50.334C62.9953 50.334 62.6913 50.4355 62.4885 50.6385C62.1844 50.9429 62.0831 51.4503 62.2858 51.8562C62.4885 52.2621 62.894 52.5666 63.2994 52.4651C63.7049 52.4651 64.1104 52.1607 64.3131 51.7547L64.7185 50.7399L63.7049 50.334C63.5022 50.334 63.4008 50.334 63.2994 50.334"/>
	<path fill="#F99D41" d="M3.59589 76.5158C2.27816 78.241 2.68361 80.778 4.60954 81.9957C15.861 89.0993 28.6329 92.8541 41.8102 92.8541C55.0889 92.8541 67.8608 89.0993 79.1123 81.9957C80.8355 80.8794 81.1396 78.4439 79.7205 76.9217L76.9836 73.8773C76.9836 73.8773 60.9681 86.3594 40.6952 85.3446C20.4224 84.3298 5.82591 73.5729 5.82591 73.5729L3.59589 76.5158"/>
	<path fill="#2D1B0A" d="M41.804 93.8689C28.4179 93.8689 15.4328 90.1142 3.96934 82.9091C2.85343 82.1987 2.04186 81.0825 1.7781 79.7632C1.63608 78.444 1.94041 77.0233 2.75198 76.0085L5.59248 72.2537C6.5055 72.9641 21.1138 83.518 40.7943 84.4313C60.4749 85.4461 76.3005 73.2685 76.5034 73.167L80.6627 76.2114C81.5757 77.1247 81.9815 78.444 81.8298 79.7632C81.5757 80.981 80.8656 82.1987 79.8511 82.8076C68.3877 90.0127 55.1997 93.8689 41.804 93.8689M5.99826 74.9937L4.37512 77.1247C3.86789 77.7336 3.76645 78.5454 3.86789 79.3573C3.96934 80.0676 4.47657 80.778 5.08525 81.1839C16.1429 88.186 28.8237 91.8393 41.804 91.8393C54.7939 91.8393 67.5761 88.0846 78.6338 81.0825C79.2425 80.6765 79.5468 80.1691 79.6482 79.4588C79.7497 78.7484 79.5468 78.1395 79.0396 77.6321L76.9092 75.2981C73.46 77.7336 58.8518 87.3742 40.5914 86.4609C22.8383 85.5476 9.44744 77.3277 5.99826 74.9937"/>
	<path fill="#EA5050" d="M26.6056 45.8689C30.9643 45.8689 34.4107 42.3172 34.4107 38.055C34.4107 33.6914 30.8629 30.241 26.6056 30.241C26.0988 30.241 25.6933 30.241 25.2879 30.3425L20.7265 43.2304C22.1456 44.8541 24.2742 45.8689 26.6056 45.8689"/>
	<path fill="#2D1B0A" d="M26.6056 46.8838C24.0715 46.8838 21.6388 45.7674 19.9156 43.8393L24.4769 29.4292C25.592 29.2262 26.0988 29.2262 26.6056 29.2262C31.4711 29.2262 35.4243 33.184 35.4243 38.055C35.4243 42.926 31.4711 46.8838 26.6056 46.8838M21.8415 42.926C23.1592 44.1437 24.781 44.8541 26.6056 44.8541C30.3561 44.8541 33.397 41.8097 33.397 38.055C33.397 34.3003 30.3561 31.2558 26.6056 31.2558C26.4029 31.2558 26.2001 31.2558 25.9974 31.2558L21.8415 42.926"/>
</svg>
