<?xml version="1.0" encoding="utf-8" ?>
<svg xmlns="http://www.w3.org/2000/svg" xmlns:xlink="http://www.w3.org/1999/xlink" width="112" height="72">
	<path fill="white" d="M101.013 72C97.0623 72 92.099 69.7627 86.2241 65.3898C85.9202 65.3898 85.6163 65.3898 85.3124 65.3898C84.0969 65.3898 82.9827 65.1864 81.8685 64.678C80.9569 64.0678 79.0324 62.2373 75.7911 60.2034C74.373 60.8136 72.9549 61.2203 71.4355 61.2203C70.7265 61.2203 69.9161 61.1186 69.2071 61.0169L68.0929 60.6102C68.0929 60.6102 62.5219 56.9492 54.4186 55.1186C51.1772 54.4068 47.7333 54 44.3907 54C41.5545 54 39.7313 54.3051 39.7313 54.3051L38.5158 54.3051C36.2874 53.7966 34.3628 52.5763 32.9448 50.8475C29.197 51.2542 26.766 52.0678 26.766 52.0678L25.6518 52.2712C24.1324 52.1695 22.7143 51.7627 21.3975 51.0508C18.0549 51.7627 15.0162 52.0678 12.4839 52.0678C2.45604 52.0678 0.430216 46.678 0.126341 43.4237C-1.19045 30.7119 8.02707 21.5593 16.5356 16.0678C17.1433 12 20.2833 10.678 23.626 9.25424C25.044 8.64407 30.7164 5.69492 36.8951 4.88136C38.7184 1.9322 42.061 0 45.6062 0C46.2139 0 46.8217 0.101695 47.4294 0.20339C47.9359 0.20339 48.8475 0.20339 50.1643 0.20339C54.3173 0.20339 60.496 0.508475 66.2697 1.72881C74.2717 3.55932 82.2737 7.42373 83.9957 8.33898C88.0473 9.45763 90.9848 12.9153 91.4912 16.9831C96.6571 20.2373 100.709 25.322 101.418 26.2373C104.355 29.2881 106.584 31.8305 105.368 35.8983C110.737 44.5424 115.295 56.6441 108.812 67.7288C106.989 70.3729 104.355 72 101.013 72"/>
	<path fill="#F99D41" d="M27.8802 13.0171C27.8802 13.0171 0.73407 23.39 2.7599 42.8137C3.97539 54.712 30.2099 44.9493 30.2099 44.9493L27.8802 13.0171"/>
	<path fill="#2D1B0A" d="M12.18 49.7288C9.34386 49.7288 6.81157 49.322 4.88703 48.1017C3.06379 46.983 1.94958 45.1525 1.747 42.9152C-0.27883 22.8813 26.4621 12.4068 27.5763 12L28.8931 11.4915L31.3241 45.661C29.906 46.1695 20.0808 49.7288 12.18 49.7288M26.9686 14.5424C21.7014 16.8813 2.15217 26.644 3.77283 42.8135C3.97541 44.4407 4.68445 45.661 6.00124 46.4746C11.6736 50.0339 25.7531 45.5593 29.0957 44.4407L26.9686 14.5424"/>
	<path fill="#FFB450" d="M50.526 49.876C50.526 49.876 45.3602 47.6357 37.966 47.3307C30.6729 47.0256 25.3045 48.9578 25.3045 48.9578C22.1645 48.8561 19.6322 46.1103 19.7335 42.9578L19.0244 17.0255C19.0244 13.873 21.1516 13.1611 25.0006 11.4323C25.0006 11.4323 33.2052 7.05942 40.2956 7.34925C47.386 7.56789 54.8816 10.0086 54.8816 10.0086C58.0216 10.1103 60.5539 12.856 60.4555 16.0086L56.4009 44.3815C56.2997 47.534 53.6661 49.9747 50.526 49.876"/>
	<path fill="#2D1B0A" d="M50.778 50.8475C50.6767 50.8475 50.5754 50.8475 50.5754 50.8475C50.1702 50.7458 45.1047 48.5078 38.013 48.3044C31.0226 48.1009 25.7545 49.8303 25.7545 49.932C21.6007 49.932 18.6628 46.7785 18.7641 43.0146L18.0549 17.1761C18.0549 13.4122 20.4863 12.3949 24.0322 10.869C24.944 10.4621 33.1501 6.08787 40.3431 6.3778C47.0296 6.59651 54.0199 8.73276 55.033 9.03794C56.7553 9.13967 58.3763 9.85175 59.592 11.1742C60.8077 12.4966 61.5169 14.226 61.4251 16.0571L57.3632 44.4388C57.2619 46.2698 56.5527 47.8975 55.2357 49.1182C54.1213 50.2372 52.5003 50.8475 50.778 50.8475M36.5946 46.2698C37.1012 46.2698 37.5064 46.2698 38.013 46.2698C44.8007 46.4733 49.6636 48.4061 50.6767 48.813C51.8924 48.813 53.0068 48.4061 53.9186 47.4905C54.8304 46.575 55.4383 45.456 55.4383 44.1336L59.3894 15.7519C59.3894 14.5312 58.9841 13.3104 58.0723 12.3949C57.1606 11.4794 56.0461 10.869 54.7291 10.869C54.3239 10.869 46.9282 8.52931 40.1405 8.32586C33.454 8.1224 25.4505 12.2932 25.3492 12.2932C20.9929 14.226 19.9798 14.7346 19.8785 17.0743L20.5876 42.9129C20.4863 45.5577 22.5125 47.694 25.0453 47.8975C26.1597 47.5923 30.6173 46.2698 36.5946 46.2698"/>
	<path fill="#F99D41" d="M95.5429 27.9662C95.5429 27.9662 115.801 48.8137 105.875 65.695C99.7971 75.9661 80.1466 56.1357 80.1466 56.1357L95.5429 27.9662"/>
	<path fill="#2D1B0A" d="M100.709 69.661C92.2003 69.661 79.944 57.3559 79.3363 56.8475L95.3403 26.339L96.2519 27.356C97.0623 28.2712 116.915 48.9153 106.685 66.3051C105.571 68.2373 103.849 69.4576 101.722 69.661C101.418 69.661 101.114 69.661 100.709 69.661M81.3621 55.9322C83.8944 58.3729 94.8338 68.4407 101.519 67.6271C103.039 67.4237 104.153 66.6102 105.064 65.1865C113.269 51.2543 99.5945 34.0678 95.8468 29.6949L81.3621 55.9322"/>
	<path fill="#FFB450" d="M59.5442 51.8611C59.5442 51.8611 65.2166 51.9628 72.0031 54.8102C78.7896 57.6577 82.8413 61.6238 82.8413 61.6238C85.7787 62.8441 89.2226 61.5221 90.4381 58.5729L101.884 35.3865C103.1 32.4373 101.985 31.1153 98.8453 27.7594C98.8453 27.7594 93.173 20.3356 86.6903 17.5899C80.2077 14.8441 72.4083 13.8272 72.4083 13.8272C69.4708 12.6068 66.1282 13.9289 64.8114 16.878L56.6068 44.234C55.1887 47.1831 56.6068 50.6407 59.5442 51.8611"/>
	<path fill="#2D1B0A" d="M85.0086 63.1525C84.097 63.1525 83.1853 62.9491 82.375 62.644C82.0711 62.4406 78.1208 58.5762 71.6381 55.8305C65.1555 53.0847 59.6857 52.8813 59.5844 52.8813C55.7353 51.3559 54.1147 47.3898 55.5328 43.9322L63.7374 16.4745C65.1555 13.0169 69.1058 11.3898 72.5497 12.8135C73.6639 12.9152 80.8556 14.0338 87.0344 16.6779C93.5171 19.4237 98.9868 26.4406 99.5945 27.1525C102.633 30.4067 104.355 32.2372 102.836 35.7966L91.2886 59.0847C90.5796 60.7118 89.2628 62.0338 87.6422 62.644C86.7305 62.9491 85.9202 63.1525 85.0086 63.1525M83.3879 60.8135C84.5021 61.2203 85.7176 61.2203 86.8318 60.8135C88.0473 60.305 88.9589 59.3898 89.4654 58.2711L101.013 34.983C101.924 32.7457 101.316 31.9322 98.0752 28.5762C97.8726 28.3728 92.4028 21.2542 86.2241 18.6101C79.944 15.9661 72.2459 14.8474 72.1446 14.8474C69.4097 13.7288 66.6748 14.8474 65.6619 17.2881L57.4573 44.7457C56.4444 47.1864 57.5586 49.9322 59.8883 50.9491C61.0025 51.0508 66.2697 51.3559 72.4484 53.9999C78.6272 56.5423 82.5776 59.9999 83.3879 60.8135"/>
	<path fill="#F9C358" d="M69.4604 57.7845C69.4604 57.7845 63.5854 53.8184 54.6717 51.8862C45.7581 49.954 38.769 51.0727 38.769 51.0727C34.92 50.2591 32.3877 46.3947 33.2993 42.4286L38.1613 8.36081C38.9716 4.49641 42.8207 1.95403 46.771 2.86929C46.771 2.86929 56.5963 2.36081 65.2061 4.29302C73.8158 6.22522 82.5269 10.8015 82.5269 10.8015C86.3761 11.615 88.9082 15.4795 87.9966 19.4456L78.0701 52.3947C77.1584 56.2591 73.3094 58.6998 69.4604 57.7845"/>
	<path fill="#2D1B0A" d="M71.1317 58.9829C70.5239 58.9829 69.9162 58.8812 69.3084 58.7795C68.802 58.6778 63.1296 54.8134 54.5199 52.8812C45.9101 50.949 39.1236 52.0677 39.0223 52.0677C36.49 51.5592 34.6667 50.3388 33.4512 48.4066C32.2358 46.5761 31.8306 44.3388 32.337 42.2033L37.0977 8.23715C37.6042 5.99986 38.8197 4.16935 40.7442 2.94901C42.5675 1.83037 44.6946 1.42359 46.8217 1.83037C48.0372 1.6762 57.1535 1.42359 65.3581 3.2541C73.5627 5.08461 81.666 9.1524 82.7802 9.76257C84.9073 10.271 86.6293 11.4914 87.8448 13.3219C89.0603 15.1524 89.4654 17.3897 88.959 19.5253L79.0324 52.4744C78.6272 54.5083 77.3104 56.4405 75.4872 57.5592C74.1704 58.5761 72.651 58.9829 71.1317 58.9829M69.9162 56.8473C71.4355 57.1524 73.0562 56.8473 74.373 56.0338C75.7911 55.1185 76.7027 53.7965 77.1079 52.1694L87.0344 19.2202C87.3383 17.6948 87.0344 15.966 86.2241 14.6439C85.3125 13.2202 83.9957 12.3049 82.375 11.8982C82.0711 11.7965 73.4614 7.2202 65.1555 5.38969C56.7483 3.55918 47.1256 3.96596 47.0243 3.96596C45.2011 3.55918 43.5804 3.86427 42.1623 4.77952C40.7442 5.69478 39.8326 7.01681 39.4274 8.64393L34.6667 42.61C34.2616 44.3388 34.5655 45.966 35.4771 47.3897C36.2874 48.7117 37.6042 49.7287 39.2249 50.0338C40.4404 49.8304 47.0243 49.1185 55.3302 50.949C63.2309 52.6778 68.9033 56.1355 69.9162 56.8473"/>
</svg>
