<?xml version="1.0" encoding="utf-8" ?>
<svg xmlns="http://www.w3.org/2000/svg" xmlns:xlink="http://www.w3.org/1999/xlink" width="118" height="66">
	<path fill="white" d="M94.3194 66C82.3279 66 65.9026 61.9259 49.2758 54.8981C36.4782 49.5 24.7891 42.7778 16.2237 35.9537C2.82152 31.1667 0 25.2593 0 21.0833C0 18.9444 0.70538 16.9074 2.21691 14.9722C2.31768 14.0556 2.51921 13.2407 2.82152 12.4259C4.23228 9.06481 8.36379 4.99074 20.1537 4.99074C21.6652 4.58333 23.2775 4.07407 24.9906 3.66667C34.9667 1.32407 46.7566 0 59 0C59.9573 0 60.8642 0 61.6704 0C62.1742 0 62.6781 0 62.8796 0C63.3834 0 63.7865 0 64.1896 0.101852C90.1879 0.814815 118 7.74074 118 21.0833C118 27.2963 111.752 32.5926 100.164 36.463C110.039 44.8148 114.171 52.5556 111.752 58.463C110.342 62.0278 106.21 66 94.3194 66"/>
	<path fill="#FF9F48" d="M108.927 57.2905C105.097 66.4572 78.8977 64.1145 50.3802 51.9942C21.8627 39.8738 1.80974 22.7627 5.53818 13.5961C7.75509 8.00815 18.0335 6.77198 31.9395 9.11457C41.4118 10.7442 52.5971 14.0035 64.0847 18.8923C92.703 30.9109 112.756 48.1238 108.927 57.2905"/>
	<path fill="#2D1B0A" d="M94.1178 63.8613C82.9325 63.8613 67.011 60.0928 49.9812 52.9631C20.456 40.5372 0.60455 23.0187 4.6353 13.2409C7.05374 7.43536 17.0298 5.60202 32.1451 8.14832C42.0204 9.77795 53.3065 13.2409 64.4918 17.9261C78.3979 23.8335 90.7924 31.065 99.257 38.3983C108.124 45.9354 111.853 52.8613 109.837 57.6483C108.124 61.8242 102.381 63.8613 94.1178 63.8613M20.0529 8.96314C12.6968 8.96314 7.75912 10.6946 6.44913 13.9539C2.92223 22.4076 23.2775 39.4168 50.7873 51.028C78.2971 62.6391 104.497 65.2872 108.024 56.8335C109.636 52.8613 106.008 46.7502 98.0478 39.9261C89.684 32.6946 77.491 25.565 63.7865 19.7594C52.7019 15.0742 41.6174 11.7131 31.8428 10.0835C27.3082 9.26869 23.479 8.96314 20.0529 8.96314"/>
	<path fill="#F2A72F" d="M34.8705 9.98145C34.8705 9.98145 42.222 17.824 36.6797 24.3426C33.4551 28.111 34.8705 27.9073 37.889 27.5C40.3074 27.1945 42.5243 26.0741 44.2374 24.3426C47.462 20.9814 51.5935 15.2778 46.152 12.9352C44.5397 12.324 34.8705 9.98145 34.8705 9.98145"/>
	<path fill="#9F6847" d="M35.7729 28.926C35.3698 28.926 34.2613 28.926 33.7575 28.0093C33.1529 26.889 33.959 25.5649 35.6721 23.6297C40.509 18.0279 34.0598 11.0001 34.0598 10.8982C33.5579 10.4908 33.5579 9.87973 33.8583 9.47232C34.1606 8.96306 34.6644 8.83575 35.1683 8.83575C36.1759 9.06492 44.842 11.2038 46.4543 11.8149C48.2682 12.6297 49.4774 13.8519 49.7797 15.3797C50.2836 17.926 48.6713 21.1852 44.9428 25.1576C43.129 27.0927 40.6098 28.4167 37.889 28.7224C37.0829 28.8242 36.3775 28.926 35.7729 28.926M37.889 11.9168C38.2921 12.6297 38.6952 13.3427 38.9975 14.2594C40.6098 18.3334 40.1059 22.1019 37.4859 25.1576C36.9821 25.6667 36.6798 26.176 36.4783 26.4815C36.7806 26.4815 37.1836 26.3797 37.4859 26.3797C39.8036 26.0742 41.819 25.1576 43.3305 23.5278C46.3536 20.3704 47.8651 17.6205 47.462 15.9908C47.3613 15.6853 47.2605 14.8705 45.5474 14.1575C44.842 13.7501 41.2144 12.8334 37.889 11.9168"/>
	<path fill="#F2A72F" d="M57.8411 16.8055C57.8411 16.8055 63.4841 25.0555 56.3296 32.6944C52.9035 36.3611 54.6165 36.2592 57.5388 35.8518C59.9572 35.5462 61.9726 35.037 65.0965 33.2036C69.1272 30.8611 73.0572 22.7129 67.6156 20.3703C66.2048 19.6574 57.8411 16.8055 57.8411 16.8055"/>
	<path fill="#9F6847" d="M55.6243 37.2778C54.6166 37.2778 53.8104 37.0741 53.4074 36.2593C52.8027 35.0371 53.7097 33.713 55.4227 31.8797C58.0427 29.0278 59.1512 25.7685 58.5466 22.2037C58.1435 19.4537 56.8335 17.5185 56.8335 17.5185C56.5312 17.1111 56.5312 16.5 56.8335 16.0926C57.1358 15.6053 57.7404 15.4815 58.1435 15.6053C58.4458 15.787 66.5073 18.6389 68.0188 19.25C70.0342 20.1667 71.2434 21.7963 71.4449 24.037C71.7472 27.9074 68.6234 32.5926 65.7011 34.3241C62.4765 36.2593 60.2596 36.7685 57.6396 37.1759C56.9343 37.1759 56.2289 37.2778 55.6243 37.2778M60.2596 18.9444C60.5619 19.7592 60.8642 20.6759 60.965 21.6944C61.4688 24.75 61.2673 29.2314 57.2366 33.5093C56.7327 34.0185 56.4304 34.4259 56.1281 34.7314C56.5312 34.7314 57.035 34.6297 57.3373 34.6297C59.655 34.3241 61.5696 33.8148 64.4919 32.0834C66.8096 30.7593 69.228 26.9907 69.0265 24.037C68.9257 22.7129 68.3211 21.8981 67.1119 21.3889C66.3057 21.0833 62.7788 19.8611 60.2596 18.9444"/>
	<path fill="#FFC77D" d="M78.0956 25.8703C78.0956 25.8703 83.7386 33.611 76.6848 41.1481C73.2587 44.8147 74.9718 44.7129 77.8941 44.3055C80.3125 43.9999 82.9325 43.9999 85.5525 41.9629C89.1801 39.111 93.5132 35.3425 88.4748 31.9814C86.9632 31.1666 78.0956 25.8703 78.0956 25.8703"/>
	<path fill="#2D1B0A" d="M75.879 45.6295C74.9719 45.6295 74.2665 45.4258 73.9641 44.7129C73.4602 43.5925 74.2665 42.3703 75.9798 40.5369C82.4299 33.611 77.5923 26.7869 77.3907 26.4814L74.5688 22.611L78.7009 25.0554C79.104 25.2591 87.6705 30.3517 89.0816 31.2684C90.7948 32.3888 91.702 33.7129 91.8055 35.2406C91.9035 37.9906 89.1824 40.4351 86.1589 42.8795C83.6393 44.9166 81.2205 45.1203 79.0033 45.324C78.7009 45.324 78.3986 45.4258 77.9954 45.4258C77.1892 45.5277 76.4837 45.6295 75.879 45.6295M80.4142 28.4166C81.5228 31.574 82.0267 36.7684 77.3907 41.861C76.6852 42.6758 76.2821 43.1851 76.0806 43.4906C76.5845 43.4906 77.2899 43.3888 77.6931 43.2869C77.9954 43.2869 78.3986 43.1851 78.7009 43.1851C80.8174 42.9814 82.7322 42.7777 84.8486 41.148C86.6628 39.6203 89.787 37.1758 89.6862 35.2406C89.6862 34.4258 89.0816 33.611 87.8721 32.898C86.9651 32.3888 83.1354 30.0462 80.4142 28.4166"/>
	<path fill="#FF9F48" d="M115.028 20.9814C115.028 30.861 89.936 38.9073 59 38.9073C28.0641 38.9073 2.9727 30.861 2.9727 20.9814C2.9727 15.074 11.8403 9.77767 25.6456 6.51841C35.0171 4.27767 46.5047 2.9536 59 2.9536C89.936 3.05545 115.028 11.1018 115.028 20.9814"/>
	<path fill="#2D1B0A" d="M59 40.0277C27.0564 40.0277 1.965 31.6758 1.965 21.0832C1.965 14.8703 10.5303 9.16658 25.3433 5.70361C35.1179 3.36102 46.807 2.1388 59 2.1388C90.9437 2.1388 116.035 10.4906 116.035 21.0832C116.035 31.6758 90.9437 40.0277 59 40.0277M59 4.07399C46.9078 4.07399 35.5209 5.29621 25.8472 7.53695C12.1426 10.7962 3.98037 15.7869 3.98037 20.9814C3.98037 30.1481 29.1725 37.8888 59 37.8888C88.8275 37.8888 114.02 30.1481 114.02 20.9814C114.02 11.8147 88.8275 4.07399 59 4.07399"/>
	<path fill="#FFC77D" d="M28.7191 6.31474C28.7191 6.31474 38.3929 10.6944 35.6721 18.8425C34.0598 23.6295 35.3698 22.8147 37.9898 21.287C40.1059 20.0647 41.7182 18.1295 42.6252 15.8888C44.2375 11.5092 45.9505 4.68511 40.0052 4.68511C38.4936 4.68511 28.7191 6.31474 28.7191 6.31474"/>
	<path fill="#2D1B0A" d="M35.5713 23.5278C35.269 23.5278 34.9667 23.4258 34.6644 23.2221C33.7575 22.5091 34.0598 20.9814 34.866 18.6389C37.2844 11.4073 28.5175 7.33326 28.4168 7.33326L25.3937 5.90734L28.7191 5.39808C29.7267 5.19438 38.4936 3.76845 40.2067 3.76845C42.1213 3.76845 43.6328 4.37956 44.439 5.70364C45.8497 7.84252 45.6482 11.4073 43.7336 16.3981C42.8267 18.8426 41.0128 20.9814 38.6952 22.3055C37.2844 22.9165 36.2767 23.5278 35.5713 23.5278M31.7421 6.82401C35.0675 9.1666 38.5944 13.5462 36.7805 19.1481C36.4782 20.1665 36.2767 20.7778 36.1759 21.1852C36.579 20.9814 37.0829 20.6758 37.3852 20.4721C39.5013 19.25 41.0128 17.5184 41.7182 15.4815C43.3305 11.3055 43.6328 8.14808 42.6251 6.6203C42.1213 5.90734 41.3151 5.60178 40.0051 5.60178C39.199 5.70364 35.269 6.21289 31.7421 6.82401"/>
	<path fill="#FFC77D" d="M52.5005 3.56491C52.5005 3.56491 60.8643 8.96306 57.2366 18.8426C55.5236 23.5279 56.9343 22.815 59.5543 21.2872C61.6704 20.065 63.2827 18.8426 65.4996 15.8889C68.3212 12.1205 68.825 3.05565 62.8797 3.05565C61.2674 3.05565 52.5005 3.56491 52.5005 3.56491"/>
	<path fill="#2D1B0A" d="M56.9343 23.426C56.5312 23.426 56.2289 23.3242 55.9266 23.1205C55.0197 22.3057 55.322 20.8797 56.2289 18.5372C59.5543 9.57419 51.9967 4.58345 51.8959 4.4816L49.2759 2.75011L52.299 2.54641C52.702 2.54641 61.0658 2.03715 62.7789 1.9353C64.895 1.9353 66.6081 2.95382 67.6158 4.889C69.3288 8.35197 68.2204 13.7501 66.205 16.3983C63.9881 19.4538 62.1743 20.7779 59.9574 22.102C58.7482 22.8149 57.7405 23.426 56.9343 23.426M55.0197 4.4816C57.4382 6.92604 60.7635 12.0186 58.1435 19.2501C57.7405 20.2686 57.6397 20.8797 57.5389 21.2872C58.0428 21.0834 58.6474 20.676 59.0505 20.4723C61.1666 19.2501 62.6781 18.0279 64.6935 15.2779C66.3058 13.139 67.2127 8.55567 65.9027 5.90752C65.2981 4.6853 64.2904 4.07419 62.8797 4.07419C61.7712 4.07419 57.7405 4.27789 55.0197 4.4816"/>
	<path fill="#FFC77D" d="M74.5688 4.17595C74.5688 4.17595 82.7311 9.06484 79.1034 18.8427C77.3904 23.5279 78.8011 22.8148 81.4211 21.287C83.5372 20.0648 85.9557 19.0464 87.5679 16.0927C89.785 12.0185 92.4048 6.8241 86.4595 5.70373C84.8472 5.50002 74.5688 4.17595 74.5688 4.17595"/>
	<path fill="#2D1B0A" d="M78.8012 23.4259C78.3981 23.4259 78.0958 23.3241 77.7935 23.1204C76.8866 22.3056 77.1889 20.8796 78.0958 18.537C81.3204 9.67593 74.2666 5.19445 73.9643 5.0926L69.8328 2.5463L74.5689 3.15741C74.972 3.25926 84.8473 4.48149 86.4596 4.78704C88.475 5.19445 89.8857 6.00926 90.4904 7.43519C91.6996 9.98149 90.0873 13.2407 88.1727 16.7037C86.6612 19.5556 84.4442 20.6759 82.5296 21.7963C82.2273 22 81.925 22.1019 81.6227 22.3056C80.7158 22.9167 79.6074 23.4259 78.8012 23.4259M77.6927 5.60186C79.9097 8.14815 82.4289 12.7315 80.0104 19.25C79.6074 20.2685 79.5066 20.8796 79.4058 21.287C79.9097 21.0833 80.5143 20.6759 80.9173 20.4722C81.2196 20.2685 81.522 20.1667 81.8243 19.963C83.6381 18.9444 85.4519 17.9259 86.6612 15.6852C87.7696 13.6482 89.6842 10.0833 88.8781 8.35186C88.5758 7.63889 87.6688 7.12963 86.2581 6.82408C85.2504 6.62037 80.8166 6.00926 77.6927 5.60186"/>
</svg>
