<?xml version="1.0" encoding="utf-8" ?>
<svg xmlns="http://www.w3.org/2000/svg" xmlns:xlink="http://www.w3.org/1999/xlink" width="134" height="108">
	<path fill="white" d="M67 108C28.8215 108 0 96.4107 0 81.025C0 71.234 11.8088 62.7419 31.8237 57.8464L35.4264 40.8622C36.5273 37.0657 37.8282 34.1684 39.4294 31.9704C42.2315 27.3747 49.8372 24.0777 59.9447 23.1785C61.5459 20.3811 64.348 18.383 67.4503 17.6836C67.6505 15.9852 68.0508 13.8871 68.6512 11.0897L68.8514 9.99075C69.4518 7.09343 71.053 2.59759 71.1531 2.39778L72.0538 0L74.5556 0.499537C83.1621 2.09806 84.7633 3.59667 84.7633 5.99445C84.7633 6.59389 84.6632 7.39315 83.9627 8.19241C85.8641 8.59204 87.6654 9.59112 89.1665 11.1896C92.5691 14.5865 91.8686 16.9843 91.3682 17.8834C90.4675 19.0823 86.4645 23.2784 81.4608 23.2784C80.8603 23.2784 80.2599 23.1785 79.7595 23.0786C80.0597 23.5782 80.2599 23.9778 80.46 24.4773C88.0657 26.3756 92.9694 29.8723 94.1703 34.1684C95.171 35.9667 96.0717 38.0648 96.8723 40.5624L100.475 57.3469C121.491 62.0426 134 70.8344 134 80.8252C134 90.4163 122.992 98.7086 103.677 103.604C92.9694 106.501 80.2599 108 67 108"/>
	<path fill="#EAF4F4" d="M130.748 81.0249C130.748 89.3176 119.639 96.5109 102.727 100.907C92.519 103.505 80.1097 105.003 66.7498 105.003C31.4734 105.003 2.752 94.2131 2.752 81.0249C2.752 67.7376 31.3734 57.0468 66.7498 57.0468C102.026 57.0468 130.748 67.7376 130.748 81.0249"/>
	<path fill="#2D1B0A" d="M66.7498 106.002C30.3227 106.002 1.7013 95.0119 1.7013 81.0249C1.7013 67.0378 30.2226 56.048 66.7498 56.048C103.177 56.048 131.798 67.0378 131.798 81.0249C131.798 89.4171 120.99 97.2099 102.977 101.806C92.2689 104.503 79.7596 106.002 66.7498 106.002M66.7498 57.9462C32.0239 57.9462 3.70279 68.2367 3.70279 80.925C3.70279 93.4134 32.5243 103.904 66.7498 103.904C79.5594 103.904 91.8686 102.505 102.476 99.8075C119.589 95.4116 129.797 88.418 129.797 80.925C129.797 68.3366 101.476 57.9462 66.7498 57.9462"/>
	<path fill="white" d="M15.3115 79.6264C15.3115 89.7169 38.1285 97.9093 66.2495 97.9093C94.3705 97.9093 117.188 89.7169 117.188 79.6264C117.188 69.5357 94.3705 61.3433 66.2495 61.3433C38.1285 61.3433 15.3115 69.5357 15.3115 79.6264"/>
	<path fill="#FFF4C5" d="M88.976 89.717L79.2687 91.915C69.1612 93.4137 61.4554 93.0141 51.448 91.4156L43.0417 89.8169C35.5361 87.619 29.5316 83.8225 30.6324 77.4285L38.2381 41.6616C40.4398 34.1685 43.8423 29.2731 50.6474 29.2731L81.4704 29.2731C88.2755 29.2731 91.678 34.768 93.8796 41.6616L101.485 77.4285C103.087 83.7226 95.0805 88.1186 88.976 89.717"/>
	<path fill="#2D1B0A" d="M67.3504 93.8132C61.9463 93.8132 56.8425 93.2138 51.2383 92.3146L42.732 90.7161C30.5229 87.1194 28.8216 81.4247 29.5221 77.1287L37.2279 41.3618C39.0292 35.1675 42.1315 28.174 50.6379 28.174L81.4609 28.174C89.7671 28.174 93.0696 35.6671 94.8709 41.2619L102.577 77.0288C104.178 83.5228 97.1726 88.5181 89.3668 90.6162L79.6596 92.8141C75.0561 93.5135 71.0531 93.8132 67.3504 93.8132M50.5378 30.1721C44.9336 30.1721 41.431 33.6689 39.0292 41.8613L31.4235 77.5283C30.623 82.4238 34.5259 86.2203 43.1323 88.7179L51.5386 90.3165C60.8455 91.8151 68.6513 92.4145 79.0591 90.816L88.7663 88.618C93.8702 87.2193 101.976 83.3229 100.475 77.4284L92.7693 41.6615C90.2675 33.6689 86.6648 30.0722 81.3608 30.0722L50.5378 30.0722"/>
	<path fill="#722D15" d="M91.3182 36.2664C91.3182 41.9611 80.5101 46.6568 65.8992 46.6568C64.3981 46.6568 66.1494 50.4533 61.7961 50.4533C58.4937 50.4533 57.9933 46.357 56.292 46.0573C54.0904 45.7576 54.0904 54.7493 50.7879 54.7493C43.5825 54.7493 49.487 43.9593 48.0859 43.2599C44.2831 41.4616 40.9806 38.6642 40.9806 36.1665C40.9806 30.4718 51.1882 25.7761 65.7991 25.7761C80.5101 25.876 91.3182 30.5717 91.3182 36.2664"/>
	<path fill="#2D1B0A" d="M50.838 55.8483C49.1367 55.8483 47.9358 55.3488 47.1352 54.3497C45.534 52.3516 46.3346 48.7549 46.9351 46.2572C47.1352 45.5578 47.3354 44.6587 47.3354 44.1591C43.7327 42.3608 40.0299 39.4635 40.0299 36.3664C40.0299 29.7725 50.938 24.9769 65.8492 24.9769C80.8604 24.9769 92.2689 29.8724 92.2689 36.3664C92.2689 42.7604 81.0605 47.6559 66.1494 47.7558C66.1494 47.8557 66.0493 48.0555 66.0493 48.1554C65.8492 49.2544 65.3488 51.5523 61.7461 51.5523C59.2442 51.5523 58.0433 49.754 57.1427 48.4552C56.8424 48.0555 56.4421 47.4561 56.242 47.2563C55.8417 47.6559 55.4414 49.1545 55.1412 50.1536C54.3406 52.7512 53.3398 55.8483 50.838 55.8483M65.8492 26.8751C50.938 26.8751 42.0314 31.6707 42.0314 36.2664C42.0314 38.0648 44.7334 40.6624 48.5363 42.4607C49.7371 43.0602 49.3369 44.4589 48.8365 46.6568C48.3361 48.655 47.6356 51.7521 48.6363 53.0509C49.0366 53.5504 49.7371 53.8502 50.7379 53.8502C51.7386 53.8502 52.5392 51.2526 53.1397 49.4542C53.8402 47.0565 54.5407 44.8585 56.3421 45.1582C57.4429 45.358 58.1434 46.3571 58.7439 47.2563C59.6445 48.655 60.3451 49.5541 61.646 49.5541C63.5475 49.5541 63.7476 48.7549 63.9477 47.6559C64.0478 46.9565 64.348 45.6578 65.7491 45.6578C80.8604 45.6578 90.1673 40.7623 90.1673 36.2664C90.1673 31.7706 80.9604 26.8751 65.8492 26.8751"/>
	<path fill="#59AD47" d="M74.8559 13.8872C74.8559 13.8872 81.3608 7.89274 86.8649 13.3877C89.0665 15.5856 88.466 16.6846 88.466 16.6846C88.466 16.6846 82.962 22.6791 78.0583 19.3821C73.2547 16.0851 74.8559 13.8872 74.8559 13.8872"/>
	<path fill="#2D1B0A" d="M81.3463 21.3803C80.1454 21.3803 78.8444 21.0805 77.6435 20.1814C75.3418 18.5828 73.9407 16.9843 73.6938 15.4857C73.5404 14.2868 74.0408 13.4876 74.1409 13.2877C76.7428 10.89 82.7473 7.79283 87.651 12.6883C90.1529 15.186 89.6525 16.6846 89.4523 17.0842C89.052 17.4839 85.4493 21.3803 81.3463 21.3803M75.642 14.5865C75.4419 15.186 75.7421 16.5847 78.6442 18.5828C82.347 20.9806 86.5502 17.1841 87.5509 16.1851C87.5509 15.8853 87.2507 15.186 86.1499 14.087C81.7466 9.59117 76.4426 13.7873 75.642 14.5865"/>
	<path fill="#3F1615" d="M73.7551 21.58C73.7551 21.58 75.3563 7.99263 80.36 6.89365C85.2637 5.79466 73.7551 3.5967 73.7551 3.5967C73.7551 3.5967 72.0538 7.99263 71.5534 10.6901C71.053 13.3876 69.3518 20.4811 70.4526 21.0805C71.5534 21.58 73.7551 21.58 73.7551 21.58"/>
	<path fill="#FF4D4D" d="M61.2457 28.8733C61.2457 33.569 65.0486 37.3655 69.7521 37.3655C74.4556 37.3655 78.2584 33.569 78.2584 28.8733C78.2584 24.1777 74.4556 20.3812 69.7521 20.3812C65.0486 20.3812 61.2457 24.2776 61.2457 28.8733"/>
	<path fill="#2D1B0A" d="M69.652 38.3645C64.4481 38.3645 60.1449 34.1684 60.1449 28.8733C60.1449 23.6781 64.348 19.3821 69.652 19.3821C74.956 19.3821 79.1591 23.5782 79.1591 28.8733C79.1591 34.1684 74.8559 38.3645 69.652 38.3645M69.652 21.4802C65.5489 21.4802 62.1464 24.7771 62.1464 28.9732C62.1464 33.0694 65.4489 36.4663 69.652 36.4663C73.8551 36.4663 77.1576 33.1693 77.1576 28.9732C77.1576 24.7771 73.7551 21.4802 69.652 21.4802"/>
</svg>
