<?xml version="1.0" encoding="utf-8" ?>
<svg xmlns="http://www.w3.org/2000/svg" xmlns:xlink="http://www.w3.org/1999/xlink" width="98" height="98">
	<path fill="white" d="M98 97.8987L98 67.4953C98 66.8873 97.8986 66.3806 97.7971 65.7725C97.1884 63.2389 95.3623 61.212 92.9275 60.4012L92.9275 37.9028C92.9275 34.2544 90.1884 31.2141 86.5362 30.8087C86.4348 30.8087 86.3333 30.8087 86.2319 30.8087L80.5507 30.8087L80.5507 17.8366L78.4203 17.8366C80.1449 16.2151 81.1594 13.5801 81.1594 10.6412C81.1594 6.18201 77.1014 2.43226 76.2899 1.72285L74.2609 0L72.2319 1.72285C71.4203 2.43226 67.3623 6.18201 67.3623 10.6412C67.3623 13.6815 68.4783 16.2151 70.1014 17.8366L67.8696 17.8366L67.8696 30.8087L56.5072 30.8087L56.5072 17.8366L54.6812 17.8366C56.1014 16.2151 57.0145 13.7828 57.0145 11.1479C57.0145 6.68873 52.9565 2.93899 52.1449 2.22958L50.1159 0.506722L48.087 2.22958C47.2754 2.93899 43.2174 6.68873 43.2174 11.1479C43.2174 13.8842 44.1304 16.2151 45.5507 17.8366L44.029 17.8366L44.029 30.8087L32.6667 30.8087L32.6667 17.8366L30.1304 17.8366C31.8551 16.2151 32.8696 13.5801 32.8696 10.6412C32.8696 6.18201 28.8116 2.43226 28 1.72285L25.971 0L23.942 1.72285C23.1304 2.43226 19.0725 6.18201 19.0725 10.6412C19.0725 13.6815 20.1884 16.2151 21.8116 17.8366L19.8841 17.8366L19.8841 30.8087L12.0725 30.8087C11.7681 30.8087 11.4638 30.8087 11.1594 30.91C7.71014 31.5181 5.17391 34.4571 5.17391 38.0041C5.17391 38.9162 5.07246 39.3216 5.07246 39.6256L5.07246 44.7942L5.17391 60.5026C2.13043 61.3133 0 64.151 0 67.394L0 74.5895L0 98L98 98"/>
	<path fill="#F8E868" d="M22.6232 20.3702L29.1159 20.3702L29.1159 41.0445L22.6232 41.0445L22.6232 20.3702M46.5652 20.3702L53.058 20.3702L53.058 41.0445L46.5652 41.0445L46.5652 20.3702M70.5073 20.3702L77 20.3702L77 41.0445L70.5073 41.0445L70.5073 20.3702"/>
	<path fill="#2D1B0A" d="M78.0145 42.0579L69.4928 42.0579L69.4928 19.3568L78.0145 19.3568L78.0145 42.0579M71.5217 40.0311L75.9855 40.0311L75.9855 21.3837L71.5217 21.3837L71.5217 40.0311M54.0725 42.0579L45.5507 42.0579L45.5507 19.3568L54.0725 19.3568L54.0725 42.0579M47.5797 40.0311L52.0435 40.0311L52.0435 21.3837L47.5797 21.3837L47.5797 40.0311M30.1304 42.0579L21.6087 42.0579L21.6087 19.3568L30.1304 19.3568L30.1304 42.0579M23.6377 40.0311L28.1014 40.0311L28.1014 21.3837L23.6377 21.3837L23.6377 40.0311"/>
	<path fill="#FFECD2" d="M94.5508 94.453L2.7392 94.453L2.7392 67.0901C2.7392 64.7591 4.56529 62.9349 6.89862 62.9349L90.4928 62.9349C92.8262 62.9349 94.6522 64.7591 94.6522 67.0901L94.5508 94.453"/>
	<path fill="#2D1B0A" d="M95.5653 95.4664L1.7247 95.4664L1.7247 67.09C1.7247 64.2523 4.05803 61.9214 6.89861 61.9214L90.4928 61.9214C93.3334 61.9214 95.6667 64.2523 95.6667 67.09L95.5653 95.4664M3.75369 93.4395L93.5363 93.4395L93.5363 67.09C93.5363 65.3671 92.116 63.9483 90.3914 63.9483L6.79716 63.9483C5.07253 63.9483 3.65224 65.3671 3.65224 67.09L3.65224 93.4395"/>
	<path fill="#77431F" d="M3.14495 73.576C4.46379 74.8934 6.39132 75.6028 8.21741 75.0961C10.4493 74.4881 12.1739 72.7652 14 71.5491C15.7247 70.4343 17.6522 69.8262 19.7826 70.1303C23.1305 70.5357 25.3623 73.1706 28.3044 74.6907C29.8261 75.4002 31.4493 75.6028 32.971 75.0961C33.9855 74.7921 35 74.184 35.9131 73.576C36.5218 73.1706 37.1305 72.6639 37.7391 72.2585C39.3623 71.3464 41.4928 71.8531 43.116 72.5625C44.8406 73.3733 46.058 74.6907 47.3768 75.9069C48.5942 77.123 49.8116 78.2378 51.5363 78.3461C53.5652 78.4405 55.4928 77.427 56.9131 76.1096C59.7536 73.4746 61.6812 69.5222 65.8406 68.5088C68.0725 67.9007 70.2029 68.8128 72.1305 70.1303C74.1594 71.4478 75.9855 73.0692 78.2174 73.88C79.029 74.184 79.942 74.2854 80.8551 74.184C81.7681 73.9813 82.4783 73.576 83.2899 73.0692C85.3189 71.6504 87.0435 69.9276 89.0725 68.4074C90.6957 67.1913 92.5218 66.6846 94.5507 66.9886C94.5507 64.759 92.6232 62.9348 90.3913 62.9348L6.79712 62.9348C4.46379 62.9348 2.6377 64.759 2.6377 67.0899L2.6377 73.2719C2.8406 73.2719 3.0435 73.4746 3.14495 73.576"/>
	<path fill="#2D1B0A" d="M51.8406 79.3527C51.7391 79.3527 51.6377 79.3527 51.6377 79.3527C49.5073 79.2513 47.9855 77.9338 46.7681 76.6163C45.3478 75.1974 44.2319 74.0827 42.8116 73.4747C40.8841 72.6638 39.4638 72.4612 38.3478 73.0693C37.942 73.2719 37.6377 73.576 37.2319 73.7786C37.029 73.9814 36.7246 74.1841 36.5218 74.2854C35.4058 75.0962 34.3913 75.6029 33.2754 75.907C31.4493 76.515 29.5218 76.3122 27.7971 75.5015C26.6812 74.9949 25.7681 74.2854 24.7536 73.576C23.1304 72.3598 21.5073 71.3464 19.5797 71.0424C17.9565 70.8397 16.1304 71.3464 14.5073 72.3598C14 72.6638 13.3913 73.0693 12.8841 73.4747C11.5652 74.4881 10.1449 75.5015 8.4203 76.0083C6.28987 76.6163 3.95653 75.907 2.33334 74.1841C2.13045 73.9814 1.92755 73.7786 1.8261 73.576L1.6232 66.7859C1.6232 63.9483 3.95653 61.6174 6.79711 61.6174L90.3913 61.6174C93.1304 61.6174 95.4638 63.8469 95.5652 66.6846L95.5652 67.9007L94.4493 67.7994C92.7246 67.5967 91.1015 68.002 89.7826 69.1168C88.971 69.7249 88.2609 70.333 87.4493 71.0424C86.3333 71.9545 85.2174 72.9679 84 73.7786C83.2899 74.2854 82.3768 74.7922 81.2609 75.0962C80.3478 75.2989 79.3333 75.1974 78.116 74.7922C76.1884 74.1841 74.6667 72.9679 73.1449 71.9545C72.7391 71.6505 72.2319 71.3464 71.8261 71.0424C69.7971 69.6236 68.0725 69.2182 66.3478 69.6236C63.8116 70.2316 62.1884 72.2586 60.3623 74.2854C59.5507 75.1974 58.7391 76.1096 57.8261 77.0217C56 78.4406 53.8696 79.3527 51.8406 79.3527M39.8696 70.637C40.9855 70.637 42.3044 70.941 43.6232 71.5491C45.3478 72.3598 46.6667 73.6774 47.9855 74.8934C49.2029 76.211 50.3189 77.1231 51.7391 77.2243C53.2609 77.3258 54.9855 76.6163 56.4058 75.1974C57.2174 74.3867 57.9275 73.576 58.7391 72.6638C60.6667 70.4343 62.5942 68.1034 65.7391 67.394C67.971 66.7859 70.3044 67.394 72.8406 69.1168C73.3478 69.4209 73.7536 69.7249 74.2609 70.1303C75.6812 71.1437 77.1015 72.1572 78.7246 72.7653C79.5362 73.0693 80.2464 73.0693 80.8551 72.9679C81.6667 72.7653 82.3768 72.3598 82.8841 71.9545C84 71.1437 85.116 70.333 86.2319 69.3195C87.0435 68.6101 87.7536 68.002 88.6667 67.2926C90.087 66.1778 91.7102 65.5698 93.4348 65.5698C92.9275 64.455 91.8116 63.6442 90.4928 63.6442L6.89856 63.6442C5.17392 63.6442 3.75363 65.0631 3.75363 66.7859L3.75363 72.5626C3.85508 72.6638 3.85508 72.7653 3.95653 72.7653C4.97103 73.8801 6.69566 74.3867 8.0145 73.9814C9.33334 73.576 10.5507 72.7653 11.7681 71.8531C12.3768 71.4478 12.8841 71.0424 13.4928 70.637C15.5218 69.3195 17.7536 68.8128 19.8841 69.0155C22.3189 69.3195 24.1449 70.637 25.971 71.8531C26.8841 72.4612 27.7971 73.1707 28.7102 73.576C30.029 74.1841 31.3478 74.3867 32.6667 73.8801C33.4783 73.576 34.3913 73.1707 35.3044 72.4612C35.5073 72.3598 35.7102 72.1572 35.9131 71.9545C36.3189 71.6505 36.7246 71.3464 37.2319 71.0424C38.0435 70.941 38.9565 70.637 39.8696 70.637"/>
	<path fill="#FFECD2" d="M89.4783 62.8335L7.9131 62.8335L7.9131 37.4974C7.9131 35.1665 9.73919 33.3423 12.0725 33.3423L85.3189 33.3423C87.6522 33.3423 89.4783 35.1665 89.4783 37.4974L89.4783 62.8335"/>
	<path fill="#2D1B0A" d="M90.4928 63.847L6.8986 63.847L6.8986 37.4975C6.8986 34.6598 9.23193 32.3289 12.0725 32.3289L85.3189 32.3289C88.1595 32.3289 90.4928 34.6598 90.4928 37.4975L90.4928 63.847M8.92759 61.8201L88.4638 61.8201L88.4638 37.4975C88.4638 35.7746 87.0435 34.3558 85.3189 34.3558L12.0725 34.3558C10.3479 34.3558 8.92759 35.7746 8.92759 37.4975L8.92759 61.8201"/>
	<path fill="#77431F" d="M10.9566 46.3144C12.2754 46.7198 13.6957 46.4158 15.0146 45.9091C18.058 44.6929 21.0001 42.5647 24.2464 42.058C25.9711 41.7539 27.7972 42.058 29.4203 43.1727C31.145 44.3889 32.7682 46.5171 34.7972 46.623C36.9276 46.7198 38.7537 45.0983 40.3769 43.4768C42.1015 41.7539 43.8261 40.3351 45.8551 39.9297C49.7102 39.2203 52.8551 42.1593 56.4059 43.7808C58.2319 44.6929 60.1595 44.997 62.087 44.3889C64.3189 43.5781 66.145 41.2472 68.2754 40.3351C70.1015 39.5243 72.1305 39.9297 73.7537 41.1459C75.2754 42.2606 76.7972 43.4768 78.5218 43.8822C81.6667 44.5916 84.9131 42.9701 87.8551 41.6526C88.3624 41.4499 88.7682 41.2472 89.2754 41.0445L89.2754 39.2203C89.2754 36.0786 87.4493 33.4437 85.116 33.4437L11.8696 33.4437C9.53629 33.4437 7.7102 35.9773 7.7102 39.2203L7.7102 43.4768C8.62324 44.7943 9.73919 45.9091 10.9566 46.3144"/>
	<path fill="#2D1B0A" d="M34.8986 47.6319C34.7972 47.6319 34.6957 47.6319 34.6957 47.6319C32.8696 47.5306 31.4493 46.3144 30.2319 45.1996C29.7247 44.7943 29.2174 44.3889 28.7102 43.9835C27.1885 42.8687 25.4638 42.8687 24.3479 43.0714C22.4203 43.3754 20.6957 44.2875 18.7682 45.1996C17.6522 45.8077 16.5363 46.3144 15.4203 46.8211C14.1015 47.3279 12.4783 47.8346 10.6522 47.2265C9.23193 46.7198 8.01454 45.605 6.8986 43.8822L6.8986 39.119C6.8986 35.3692 9.23193 32.3289 12.0725 32.3289L85.3189 32.3289C88.1595 32.3289 90.4928 35.3692 90.4928 39.119L90.4928 41.6526L87.7537 42.8687C84.9131 44.0848 81.6667 45.5037 78.5218 44.7943C76.6957 44.3889 75.2754 43.2741 73.8551 42.2607C71.9276 40.8418 70.3044 40.5378 68.8841 41.1459C67.9711 41.5512 67.058 42.2607 66.145 42.9701C65.029 43.8822 63.9131 44.7943 62.4928 45.1996C60.4638 45.909 58.3334 45.7064 56.1015 44.5916C55.087 44.0848 54.174 43.5781 53.2609 43.0714C50.9276 41.6526 48.5943 40.3351 46.1595 40.8418C44.3334 41.2472 42.7102 42.5647 41.1885 44.1862C39.5653 45.605 37.5363 47.6319 34.8986 47.6319M25.4638 41.0445C27.087 41.0445 28.6087 41.5512 29.9276 42.362C30.5363 42.7674 31.0435 43.2741 31.5508 43.6795C32.6667 44.5916 33.6812 45.5037 34.7972 45.605C36.4203 45.7064 37.9421 44.2875 39.6667 42.666C41.4928 40.9432 43.3189 39.3217 45.6522 38.8149C48.8986 38.2069 51.5363 39.8284 54.174 41.3485C55.087 41.8553 55.8986 42.362 56.8116 42.7674C58.6377 43.5781 60.2609 43.7808 61.6812 43.2741C62.6957 42.9701 63.7102 42.1593 64.7247 41.3485C65.7392 40.5378 66.7537 39.727 67.8696 39.2203C69.8986 38.3082 72.3334 38.7136 74.3624 40.1324C76.1885 41.5512 77.4058 42.4633 78.7247 42.7674C81.2609 43.2741 84.1015 42.1593 86.7392 40.9432L88.2609 40.2338L88.2609 39.0176C88.2609 36.484 86.8406 34.2544 85.116 34.2544L11.8696 34.2544C10.145 34.2544 8.72469 36.3827 8.72469 39.0176L8.72469 43.0714C9.53628 44.2875 10.3479 44.9969 11.1595 45.301C12.0725 45.605 13.087 45.5037 14.5073 44.8956C15.6232 44.4902 16.6377 43.8822 17.7537 43.3754C19.6812 42.362 21.7102 41.3485 23.9421 41.0445C24.5508 41.0445 24.9566 41.0445 25.4638 41.0445"/>
	<path fill="#FF4D4D" d="M29.4203 10.0331C29.4203 13.2761 27.6956 16.0124 25.5652 16.0124C23.4348 16.0124 21.7101 13.3775 21.7101 10.0331C21.7101 6.79008 25.5652 3.34437 25.5652 3.34437C25.5652 3.34437 29.4203 6.79008 29.4203 10.0331"/>
	<path fill="#2D1B0A" d="M25.5652 17.0259C22.8261 17.0259 20.6956 13.9855 20.6956 10.0331C20.6956 6.3847 24.6521 2.7363 24.855 2.63496L26.2753 2.63496C26.4782 2.7363 30.4348 6.3847 30.4348 10.0331C30.4348 13.9855 28.3043 17.0259 25.5652 17.0259M25.5652 4.86453C24.4492 6.08066 22.7246 8.2089 22.7246 10.1344C22.7246 12.7694 24.0435 15.1003 25.5652 15.1003C27.0869 15.1003 28.4058 12.7694 28.4058 10.1344C28.4058 8.2089 26.6811 6.08066 25.5652 4.86453"/>
	<path fill="#FF4D4D" d="M53.4637 10.5398C53.4637 13.7828 51.7391 16.5191 49.6087 16.5191C47.4782 16.5191 45.7536 13.8842 45.7536 10.5398C45.7536 7.29679 49.6087 3.85108 49.6087 3.85108C49.6087 3.85108 53.4637 7.29679 53.4637 10.5398"/>
	<path fill="#2D1B0A" d="M49.7101 17.5326C46.971 17.5326 44.8405 14.4922 44.8405 10.5398C44.8405 6.89141 48.7971 3.24301 49 3.14167L50.4202 3.14167C50.6231 3.24301 54.5797 6.89141 54.5797 10.5398C54.4782 14.4922 52.3478 17.5326 49.7101 17.5326M49.7101 5.37124C48.5942 6.58737 46.8695 8.71561 46.8695 10.6411C46.8695 13.2761 48.1884 15.607 49.7101 15.607C51.2318 15.607 52.5507 13.2761 52.5507 10.6411C52.4492 8.71561 50.826 6.58737 49.7101 5.37124"/>
	<path fill="#FF4D4D" d="M77.6087 10.0331C77.6087 13.2761 75.884 16.0124 73.7536 16.0124C71.6232 16.0124 69.8985 13.3775 69.8985 10.0331C69.8985 6.79008 73.7536 3.34437 73.7536 3.34437C73.7536 3.34437 77.6087 6.79008 77.6087 10.0331"/>
	<path fill="#2D1B0A" d="M73.7536 17.0259C71.0145 17.0259 68.884 13.9855 68.884 10.0331C68.884 6.3847 72.8405 2.7363 73.0434 2.63496L74.4637 2.63496C74.6666 2.7363 78.6232 6.3847 78.6232 10.0331C78.6232 13.9855 76.4927 17.0259 73.7536 17.0259M73.7536 4.86453C72.6376 6.08066 70.913 8.2089 70.913 10.1344C70.913 12.7694 72.2319 15.1003 73.7536 15.1003C75.2753 15.1003 76.5942 12.7694 76.5942 10.1344C76.5942 8.2089 74.8695 6.08066 73.7536 4.86453"/>
	<path fill="#FF4D4D" d="M26.1739 54.1179C26.1739 55.3493 25.2201 56.3475 24.0435 56.3475C22.8669 56.3475 21.9131 55.3493 21.9131 54.1179C21.9131 52.8865 22.8669 51.8883 24.0435 51.8883C25.2201 51.8883 26.1739 52.8865 26.1739 54.1179"/>
	<path fill="#2D1B0A" d="M24.0435 57.3609C22.3189 57.3609 20.8986 55.9421 20.8986 54.1179C20.8986 52.2937 22.3189 50.8749 24.0435 50.8749C25.7681 50.8749 27.1884 52.2937 27.1884 54.1179C27.1884 55.9421 25.7681 57.3609 24.0435 57.3609M24.0435 52.9018C23.4348 52.9018 22.9276 53.4085 22.9276 54.1179C22.9276 54.8273 23.4348 55.334 24.0435 55.334C24.6522 55.334 25.1594 54.8273 25.1594 54.1179C25.1594 53.4085 24.6522 52.9018 24.0435 52.9018"/>
	<path fill="#FF4D4D" d="M18.8695 84.1158C18.8695 85.3472 17.9157 86.3454 16.7391 86.3454C15.5625 86.3454 14.6087 85.3472 14.6087 84.1158C14.6087 82.8844 15.5625 81.8862 16.7391 81.8862C17.9157 81.8862 18.8695 82.8844 18.8695 84.1158"/>
	<path fill="#2D1B0A" d="M16.7391 87.3588C15.0145 87.3588 13.5942 85.94 13.5942 84.1158C13.5942 82.2916 15.0145 80.8728 16.7391 80.8728C18.4637 80.8728 19.884 82.2916 19.884 84.1158C19.884 85.94 18.4637 87.3588 16.7391 87.3588M16.7391 82.8997C16.1304 82.8997 15.6232 83.4064 15.6232 84.1158C15.6232 84.8252 16.1304 85.3319 16.7391 85.3319C17.3478 85.3319 17.855 84.8252 17.855 84.1158C17.855 83.4064 17.3478 82.8997 16.7391 82.8997"/>
	<path fill="#FF4D4D" d="M42.913 83.5078C42.913 84.7392 41.9592 85.7374 40.7826 85.7374C39.606 85.7374 38.6522 84.7392 38.6522 83.5078C38.6522 82.2764 39.606 81.2782 40.7826 81.2782C41.9592 81.2782 42.913 82.2764 42.913 83.5078"/>
	<path fill="#2D1B0A" d="M40.7826 86.7508C39.058 86.7508 37.6377 85.332 37.6377 83.5078C37.6377 81.6836 39.058 80.2648 40.7826 80.2648C42.5072 80.2648 43.9275 81.6836 43.9275 83.5078C43.9275 85.332 42.5072 86.7508 40.7826 86.7508M40.7826 82.2917C40.1739 82.2917 39.6667 82.7984 39.6667 83.5078C39.6667 84.2172 40.1739 84.7239 40.7826 84.7239C41.3913 84.7239 41.8985 84.2172 41.8985 83.5078C41.8985 82.7984 41.3913 82.2917 40.7826 82.2917"/>
	<path fill="#FF4D4D" d="M70.6087 84.5212C70.6087 85.7526 69.6549 86.7508 68.4783 86.7508C67.3017 86.7508 66.3479 85.7526 66.3479 84.5212C66.3479 83.2898 67.3017 82.2916 68.4783 82.2916C69.6549 82.2916 70.6087 83.2898 70.6087 84.5212"/>
	<path fill="#2D1B0A" d="M68.4783 87.7642C66.7537 87.7642 65.3334 86.3454 65.3334 84.5212C65.3334 82.697 66.7537 81.2782 68.4783 81.2782C70.2029 81.2782 71.6232 82.697 71.6232 84.5212C71.6232 86.3454 70.2029 87.7642 68.4783 87.7642M68.4783 83.3051C67.8696 83.3051 67.3624 83.8118 67.3624 84.5212C67.3624 85.2306 67.8696 85.7373 68.4783 85.7373C69.087 85.7373 69.5942 85.2306 69.5942 84.5212C69.5942 83.8118 69.087 83.3051 68.4783 83.3051"/>
	<path fill="#FF4D4D" d="M90.5942 83.5078C90.5942 84.7392 89.6404 85.7374 88.4638 85.7374C87.2872 85.7374 86.3334 84.7392 86.3334 83.5078C86.3334 82.2764 87.2872 81.2782 88.4638 81.2782C89.6404 81.2782 90.5942 82.2764 90.5942 83.5078"/>
	<path fill="#2D1B0A" d="M88.4638 86.7508C86.7392 86.7508 85.3189 85.332 85.3189 83.5078C85.3189 81.6836 86.7392 80.2648 88.4638 80.2648C90.1884 80.2648 91.6087 81.6836 91.6087 83.5078C91.6087 85.332 90.1884 86.7508 88.4638 86.7508M88.4638 82.2917C87.8551 82.2917 87.3479 82.7984 87.3479 83.5078C87.3479 84.2172 87.8551 84.7239 88.4638 84.7239C89.0725 84.7239 89.5797 84.2172 89.5797 83.5078C89.5797 82.7984 89.0725 82.2917 88.4638 82.2917"/>
	<path fill="#FF4D4D" d="M48.6956 54.4219C48.6956 55.6533 47.7418 56.6515 46.5652 56.6515C45.3886 56.6515 44.4348 55.6533 44.4348 54.4219C44.4348 53.1906 45.3886 52.1924 46.5652 52.1924C47.7418 52.1924 48.6956 53.1906 48.6956 54.4219"/>
	<path fill="#2D1B0A" d="M46.5652 57.5636C44.8406 57.5636 43.4203 56.1448 43.4203 54.3206C43.4203 52.4964 44.8406 51.0776 46.5652 51.0776C48.2898 51.0776 49.7101 52.4964 49.7101 54.3206C49.7101 56.1448 48.2898 57.5636 46.5652 57.5636M46.5652 53.2058C45.9565 53.2058 45.4493 53.7125 45.4493 54.4219C45.4493 55.1313 45.9565 55.6381 46.5652 55.6381C47.1739 55.6381 47.6811 55.1313 47.6811 54.4219C47.6811 53.7125 47.1739 53.2058 46.5652 53.2058"/>
	<path fill="#FF4D4D" d="M73.2463 53.9152C73.2463 55.1466 72.2925 56.1448 71.1159 56.1448C69.9393 56.1448 68.9855 55.1466 68.9855 53.9152C68.9855 52.6839 69.9393 51.6857 71.1159 51.6857C72.2925 51.6857 73.2463 52.6839 73.2463 53.9152"/>
	<path fill="#2D1B0A" d="M71.1159 57.0569C69.3913 57.0569 67.971 55.6381 67.971 53.8139C67.971 51.9897 69.3913 50.5709 71.1159 50.5709C72.8405 50.5709 74.2608 51.9897 74.2608 53.8139C74.2608 55.6381 72.8405 57.0569 71.1159 57.0569M71.1159 52.6991C70.5072 52.6991 70 53.2058 70 53.9152C70 54.6246 70.5072 55.1314 71.1159 55.1314C71.7246 55.1314 72.2318 54.6246 72.2318 53.9152C72.2318 53.2058 71.7246 52.6991 71.1159 52.6991"/>
</svg>
