<?xml version="1.0" encoding="utf-8" ?>
<svg xmlns="http://www.w3.org/2000/svg" xmlns:xlink="http://www.w3.org/1999/xlink" width="104" height="104">
	<path fill="white" d="M55.3468 104C52.5495 104 50.1518 102.499 48.4534 101.197L47.3545 101.097C45.6561 102.098 43.8578 102.499 41.56 102.499C38.2632 102.499 34.8665 100.397 32.8684 97.1935L31.7695 96.7931C30.4707 97.0934 29.8713 97.0934 29.072 97.0934C24.2767 97.0934 20.0807 93.2897 18.8818 87.9846C12.6878 86.3831 8.69164 81.4783 8.69164 75.7729L8.69164 73.0703C4.69549 71.2685 2.09798 66.8643 2.09798 62.5602C2.09798 59.9577 2.4976 58.1559 3.49664 56.4543L3.29683 55.2531C1.19885 53.4514 0 50.4485 0 46.9451C0 42.9413 2.09798 38.9374 5.29491 37.0356L5.69452 35.7344C5.195 34.5332 4.89529 33.232 4.89529 31.9307C4.89529 26.2252 8.79155 21.3205 13.9866 20.5197L14.8857 19.5188C14.8857 13.4129 19.5812 8.50818 25.3756 8.50818C26.1748 8.50818 26.9741 8.80847 27.7733 9.00866C28.073 9.10876 28.3727 9.20885 28.6724 9.30895L29.8713 8.70837C31.7695 4.50433 35.6657 1.80173 39.7618 1.80173C42.1595 1.80173 44.0576 2.50241 46.1556 4.00385L47.5543 3.80366C49.3525 1.40135 52 0 54.9472 0C58.4438 0 61.8405 2.10202 63.8386 5.4052L65.1374 5.80558C66.7358 5.00481 68.1345 4.70452 70.0327 4.70452C74.6282 4.70452 78.4246 7.40712 79.8232 11.5111L82.8204 12.2117C88.5149 12.2117 93.3103 17.4167 93.3103 23.6227L93.3103 26.4254C97.9059 28.127 100.703 32.4312 100.703 37.2358C100.703 39.0375 100.304 40.9394 99.6042 42.1405L99.804 43.3417C102.601 45.6439 104 48.7469 104 52.5505C104 56.8547 102.002 60.6583 98.805 62.4601L98.4054 63.8614C99.1047 65.1627 99.5043 66.9644 99.5043 69.1665C99.5043 74.4716 96.6071 78.7757 92.0115 80.2772L91.3122 81.5784C91.3122 87.8845 86.6167 92.9894 80.8223 92.9894L78.9241 92.9894C77.2257 97.2936 73.4294 99.8961 69.4332 99.8961C68.1345 99.8961 66.536 99.3956 65.3372 99.0953L64.1383 99.4957C62.1402 102.198 58.5437 104 55.3468 104"/>
	<path fill="#FFB77B" d="M54.3977 4.1539C58.0942 4.1539 61.391 7.45708 61.8905 11.1606C62.1902 11.1606 62.7896 11.4609 63.489 11.4609C64.6878 9.3589 67.1854 8.15775 69.7829 8.15775C73.9789 8.15775 77.2757 11.8613 77.2757 16.3656C77.2757 16.6659 77.2757 17.5668 77.2757 17.9672C77.2757 17.9672 77.2757 17.9672 77.2757 18.2675C77.2757 18.2675 77.2757 18.2675 77.2757 17.9672C78.4746 16.3656 80.5725 15.5649 82.6705 15.5649C86.8665 15.5649 90.1633 19.2684 90.1633 23.7728C90.1633 26.1751 89.2642 27.9768 88.0653 29.4783C88.9645 29.178 89.2642 29.178 90.1633 29.178C94.3593 29.178 97.6561 32.8815 97.6561 37.3859C97.6561 40.3887 96.0577 42.7911 93.9597 44.3926C98.1556 44.6929 100.953 48.5966 100.953 52.6005C100.953 57.1048 97.9558 60.408 93.9597 60.8084C93.9597 61.1087 93.66 62.0095 93.66 62.4099C95.2584 64.0115 96.6571 66.1135 96.6571 69.0163C96.6571 73.5206 93.3602 77.2242 89.1643 77.2242C88.8646 77.2242 87.9654 77.2242 87.0663 76.9239C87.9654 78.125 88.2651 79.9268 88.2651 81.4282C88.2651 85.9325 84.9683 89.6361 80.7723 89.6361C79.1739 89.6361 77.7752 88.7352 76.5764 88.0346C76.5764 92.8392 73.2796 96.5427 69.0836 96.5427C66.6859 96.5427 64.5879 95.6419 63.3891 93.5398C63.0894 93.5398 63.0894 93.5398 62.4899 93.5398C62.1902 97.7439 58.7935 100.146 54.9971 100.146C51.7003 100.146 49.3026 98.0442 48.0039 95.2415C48.0039 95.2415 48.0039 94.9412 48.3036 94.9412C46.805 97.3435 44.3074 98.945 41.4102 98.945C37.7138 98.945 34.4169 95.6419 33.9174 91.4378C32.7186 92.639 30.9203 93.5398 29.0221 93.5398C24.8261 93.5398 21.5293 89.8363 21.5293 85.332C21.5293 84.4311 21.5293 83.7304 21.5293 83.2299C20.6302 83.5302 19.9308 83.5302 19.1316 83.5302C14.9357 83.5302 11.6388 79.8267 11.6388 75.3223C11.6388 73.7208 11.9385 72.0192 13.2373 70.818C13.2373 70.818 13.2373 70.818 13.2373 70.5177C8.74161 70.5177 5.44478 66.8142 5.44478 62.3098C5.44478 59.0066 7.04324 56.6043 9.14122 54.8026C9.14122 54.8026 9.14122 54.8026 9.14122 54.5023C5.44478 53.6014 3.4467 50.2983 3.4467 46.2944C3.4467 41.7901 6.74353 38.0865 10.9395 38.0865C11.2392 38.0865 11.2392 38.0865 11.8386 38.0865C9.74065 36.8854 8.5418 34.383 8.5418 31.4802C8.5418 26.9758 11.8386 23.2723 16.0346 23.2723C17.2334 23.2723 18.4323 23.5726 19.731 24.1731C18.8319 22.5716 18.5322 21.1703 18.5322 19.6688C18.5322 15.1645 21.829 11.4609 26.025 11.4609C28.4227 11.4609 30.221 12.6621 31.7195 14.4638C32.0192 14.1635 32.6187 14.1635 32.9184 13.563C32.9184 8.75833 36.2152 5.05477 40.4112 5.05477C43.4083 5.05477 45.806 6.65631 47.4044 9.5591C47.7041 9.5591 48.3036 9.5591 48.6033 9.5591C48.1038 6.55621 50.7013 4.1539 54.3977 4.1539"/>
	<path fill="#2D1B0A" d="M54.9472 101.097C52.05 101.097 49.4525 99.5957 47.854 97.0933C46.2555 98.895 43.8578 99.896 41.3602 99.896C37.6638 99.896 34.367 97.0933 33.268 93.1895C31.9693 93.9903 30.4707 94.4908 29.0721 94.4908C24.3766 94.4908 20.5802 90.3868 20.5802 85.2819C20.0807 84.5812 19.5812 84.5812 19.1816 84.5812C14.4861 84.5812 10.6897 80.4773 10.6897 75.3724C10.6897 73.8709 10.9894 72.4696 11.5889 71.3685C7.4928 70.6679 4.39578 66.8642 4.39578 62.2598C4.39578 59.4571 5.39482 56.9547 7.3929 54.9528C4.29588 53.5514 2.2978 50.3483 2.2978 46.2444C2.2978 41.7401 5.29492 38.0365 9.19117 37.2357C7.99232 35.7343 7.3929 33.7324 7.3929 31.4301C7.3929 26.3252 11.1892 22.2213 15.8847 22.2213C16.4842 22.2213 17.0836 22.3214 17.7829 22.4215C17.4832 21.5206 17.3833 20.5197 17.3833 19.5187C17.3833 14.4138 21.1796 10.3098 25.8751 10.3098C28.5725 10.3098 30.4707 11.6111 31.7695 13.0124C31.7695 8.00762 35.5658 3.90367 40.2613 3.90367C43.2584 3.90367 45.8559 5.40512 47.5543 8.00762C47.7541 7.10675 48.2536 6.20589 48.9529 5.40512C50.2517 4.00377 52.3497 3.203 54.5476 3.203C58.3439 3.203 62.0404 6.40608 62.9395 10.4099C63.0394 10.4099 63.0394 10.4099 63.1393 10.51C64.6379 8.5081 67.1355 7.30695 69.9328 7.30695C74.4284 7.30695 78.1249 11.1106 78.4246 15.8151C79.7234 15.0144 81.2219 14.614 82.8204 14.614C87.5159 14.614 91.3122 18.7179 91.3122 23.8228C91.3122 25.4244 91.0125 26.8257 90.3132 28.2271C95.0087 28.2271 98.805 32.331 98.805 37.4359C98.805 39.8382 97.9059 42.0403 96.2075 43.8421C99.6042 45.0432 102.102 48.5466 102.102 52.5504C102.102 57.1549 99.1047 60.9585 95.0087 61.6592C95.0087 61.7593 95.0087 61.7593 95.0087 61.8594C95.0087 61.9595 95.0087 61.9595 94.9088 62.0596C96.8069 64.1616 97.806 66.4638 97.806 68.9662C97.806 74.0711 94.0096 78.1751 89.3141 78.1751C89.2142 78.1751 89.1143 78.1751 89.0144 78.1751C89.414 79.3762 89.5139 80.5774 89.5139 81.3782C89.5139 86.4831 85.7176 90.587 81.0221 90.587C79.8233 90.587 78.7243 90.1866 77.7253 89.6862C77.1258 94.0904 73.6292 97.5938 69.3333 97.5938C66.8357 97.5938 64.8377 96.793 63.439 95.1915C62.2402 98.5947 59.0432 101.097 54.9472 101.097M48.9529 94.9913C50.1518 97.5938 52.3497 99.0952 54.9472 99.0952C57.9443 99.0952 61.1412 97.2935 61.4409 93.3897L63.9385 92.4889C65.2373 94.5909 66.8357 95.4917 69.1335 95.4917C72.7301 95.4917 75.6273 92.2887 75.6273 88.2848L75.6273 86.1828L77.4256 87.1838C78.5245 87.7843 79.6234 88.485 80.8223 88.485C84.4188 88.485 87.3161 85.2819 87.3161 81.2781C87.3161 79.6765 86.9164 78.2752 86.317 77.3743L84.3189 74.5716L87.5159 75.8729C88.2152 76.1732 88.9145 76.1732 89.2142 76.1732C92.8108 76.1732 95.708 72.9701 95.708 68.9662C95.708 66.7641 94.9088 64.8623 93.0106 63.0606C92.7109 62.0596 92.8108 61.6592 92.9107 61.2588C93.0106 61.0586 93.0106 60.8584 93.0106 60.7583L93.9097 59.7574C97.5063 59.4571 100.004 56.4542 100.004 52.5504C100.004 49.2473 97.7061 45.6438 94.0096 45.3435L91.4121 45.1433L93.5101 43.5418C95.6081 41.9402 96.8069 39.7381 96.8069 37.3358C96.8069 33.332 93.9097 30.1289 90.3132 30.1289C89.5139 30.1289 89.3141 30.1289 88.6148 30.4292L85.2181 31.8305L87.5159 28.9277C88.8146 27.2261 89.414 25.7247 89.414 23.8228C89.414 19.819 86.5168 16.6159 82.9203 16.6159C81.0221 16.6159 79.3237 17.4167 78.3247 18.7179L76.6263 18.4176L76.6263 16.5158C76.6263 12.512 73.7291 9.30887 70.1326 9.30887C67.8348 9.30887 65.7368 10.4099 64.7378 12.1116L63.439 12.6121C62.8396 12.6121 62.44 12.4118 62.0404 12.3118C61.9405 12.3118 61.8405 12.2117 61.7406 12.2117C60.2421 8.00762 57.3449 5.20492 54.2478 5.20492C52.5495 5.20492 51.0509 5.8055 50.1518 6.80646C49.4525 7.50714 49.1527 8.408 49.1527 9.40897L49.2527 10.51L46.3554 10.51C44.6571 7.40704 42.5591 6.00569 39.9616 6.00569C36.365 6.00569 33.4678 9.20877 33.4678 13.2126L33.268 14.2136C32.8684 14.7141 32.4688 15.0144 32.1691 15.1145C32.0692 15.1145 31.9693 15.2145 31.9693 15.2145L30.5706 15.2145C28.8722 13.4128 27.3737 12.6121 25.5754 12.6121C21.9789 12.6121 19.0817 15.8151 19.0817 19.819C19.0817 21.3204 19.3814 22.5216 20.1806 23.8228L21.5793 26.4253L18.8819 25.2242C17.683 24.7237 16.5841 24.4234 15.585 24.4234C11.9885 24.4234 9.09127 27.6265 9.09127 31.6303C9.09127 34.2328 10.0903 36.3349 11.8886 37.4359L15.0855 39.3377L10.4899 39.3377C6.89338 39.3377 3.99617 42.5408 3.99617 46.5447C3.99617 50.2482 5.89434 53.0509 8.99136 53.7516L9.7906 55.5533C7.19309 57.6554 6.09415 59.9576 6.09415 62.5601C6.09415 66.5639 8.99136 69.767 12.5879 69.767L13.8867 69.767L13.8867 71.5687C12.7877 72.6698 12.2882 73.971 12.2882 75.6727C12.2882 79.6765 15.1854 82.8796 18.7819 82.8796C19.5812 82.8796 20.1806 82.8796 20.8799 82.5793L22.2786 82.0788L22.2786 85.6823C22.2786 89.6862 25.1758 92.8892 28.7723 92.8892C30.2709 92.8892 31.7695 92.1886 32.9683 91.0875L34.367 89.6862L34.6667 91.6881C35.1662 95.2915 38.0634 98.2944 41.1604 98.2944C43.4582 98.2944 45.5562 97.1934 46.7551 95.3916L46.7551 94.2906L48.0538 94.2906L48.0538 95.2915C48.5533 95.1915 48.5533 95.1915 48.5533 95.2915"/>
	<path fill="#B57E48" d="M53.8482 20.82C53.8482 19.2185 55.047 18.4177 56.2459 18.4177C57.4447 18.4177 58.6436 19.6189 58.6436 20.82C58.6436 22.0212 57.4447 23.2223 56.2459 23.2223C55.047 23.3224 53.8482 22.0212 53.8482 20.82M67.4351 25.4244C67.4351 24.2233 68.634 23.0221 69.8328 23.0221C71.0316 23.0221 72.2305 24.2233 72.2305 25.4244C72.2305 26.6256 71.0316 27.8267 69.8328 27.8267C68.634 27.8267 67.4351 26.6256 67.4351 25.4244M40.2612 25.4244C40.2612 24.2233 41.4601 23.0221 42.6589 23.0221C43.8578 23.0221 45.0566 24.2233 45.0566 25.4244C45.0566 26.6256 43.8578 27.8267 42.6589 27.8267C41.4601 27.8267 40.2612 26.6256 40.2612 25.4244M56.2459 36.0346C56.2459 34.4331 57.4447 33.6323 58.6436 33.6323C59.8424 33.6323 61.0413 34.8335 61.0413 36.0346C61.0413 37.2358 59.8424 38.4369 58.6436 38.4369C57.4447 38.6371 56.2459 37.2358 56.2459 36.0346M43.0585 37.7363C43.0585 36.5351 44.2574 35.334 45.4562 35.334C46.6551 35.334 47.8539 36.5351 47.8539 37.7363C47.8539 38.9374 46.6551 40.1386 45.4562 40.1386C44.2574 40.1386 43.0585 38.9374 43.0585 37.7363M77.6253 36.0346C77.6253 34.4331 78.8242 33.6323 80.023 33.6323C81.2218 33.6323 82.4207 34.8335 82.4207 36.0346C82.4207 37.2358 81.2218 38.4369 80.023 38.4369C78.8242 38.4369 77.6253 37.2358 77.6253 36.0346M23.7771 36.0346C23.7771 34.4331 24.9759 33.6323 26.1748 33.6323C27.3736 33.6323 28.5725 34.8335 28.5725 36.0346C28.5725 37.2358 27.3736 38.4369 26.1748 38.4369C24.9759 38.6371 23.7771 37.2358 23.7771 36.0346M64.6378 43.1415C64.6378 41.9403 65.8366 40.7392 67.0355 40.7392C68.634 40.7392 69.4332 41.9403 69.4332 43.1415C69.4332 44.3426 68.2343 45.5438 67.0355 45.5438C65.8366 45.5438 64.6378 44.3426 64.6378 43.1415M49.6522 51.3994C49.6522 50.1482 50.8511 48.9471 52.0499 48.9471C53.6484 48.9471 54.4476 50.1482 54.4476 51.3994C54.4476 52.5505 53.2487 53.7517 52.0499 53.7517C50.8511 53.7517 49.6522 52.5505 49.6522 51.3994M33.1681 48.5467C33.1681 47.3455 34.3669 46.1444 35.5657 46.1444C36.7646 46.1444 37.9634 47.3455 37.9634 48.5467C37.9634 49.7478 36.7646 50.949 35.5657 50.949C34.3669 50.949 33.1681 50.1482 33.1681 48.5467M82.3208 51.3994C82.3208 50.1482 83.5196 48.9471 84.7185 48.9471C85.9173 48.9471 87.1162 50.1482 87.1162 51.3994C87.1162 52.5505 85.9173 53.7517 84.7185 53.7517C83.5196 53.7517 82.3208 52.5505 82.3208 51.3994M56.2459 64.9625C56.2459 63.7613 57.4447 62.5601 58.6436 62.5601C59.8424 62.5601 61.0413 63.7613 61.0413 64.9625C61.0413 66.1636 59.8424 67.3648 58.6436 67.3648C57.4447 67.565 56.2459 66.6641 56.2459 64.9625M66.1364 55.153C66.1364 53.9519 67.3352 52.7507 68.534 52.7507C69.7329 52.7507 70.9317 53.9519 70.9317 55.153C70.9317 56.3542 69.7329 57.5553 68.534 57.5553C67.0355 57.6554 66.1364 56.3542 66.1364 55.153M44.2574 64.9625C44.2574 63.7613 45.4562 62.5601 46.6551 62.5601C48.2535 62.5601 49.0528 63.7613 49.0528 64.9625C49.0528 66.1636 47.8539 67.3648 46.6551 67.3648C45.4562 67.565 44.2574 66.6641 44.2574 64.9625M77.6253 64.9625C77.6253 63.7613 78.8242 62.5601 80.023 62.5601C81.2218 62.5601 82.4207 63.7613 82.4207 64.9625C82.4207 66.1636 81.2218 67.3648 80.023 67.3648C78.8242 67.3648 77.6253 66.6641 77.6253 64.9625M16.584 51.3994C16.584 50.1482 17.7829 48.9471 18.9817 48.9471C20.1805 48.9471 21.3794 50.1482 21.3794 51.3994C21.3794 52.5505 20.1805 53.7517 18.9817 53.7517C17.4831 53.7517 16.584 52.5505 16.584 51.3994M35.1661 57.6554C35.1661 56.4543 36.365 55.2531 37.5638 55.2531C38.7627 55.2531 39.9615 56.4543 39.9615 57.6554C39.9615 58.8566 38.7627 60.0577 37.5638 60.0577C36.0653 60.358 35.1661 59.1569 35.1661 57.6554M19.5811 64.9625C19.5811 63.7613 20.78 62.5601 21.9788 62.5601C23.1777 62.5601 24.3765 63.7613 24.3765 64.9625C24.3765 66.1636 23.1777 67.3648 21.9788 67.3648C20.78 67.565 19.5811 66.6641 19.5811 64.9625M31.5696 76.5736C31.5696 75.3725 32.7684 74.1713 33.9673 74.1713C35.5657 74.1713 36.365 75.3725 36.365 76.5736C36.365 77.7748 35.1661 78.9759 33.9673 78.9759C32.2689 79.076 31.5696 78.1752 31.5696 76.5736M46.8549 81.9788C46.8549 80.7777 48.0537 79.5765 49.2526 79.5765C50.4514 79.5765 51.6503 80.7777 51.6503 81.9788C51.6503 83.18 50.4514 84.3811 49.2526 84.3811C48.0537 84.3811 46.8549 83.2801 46.8549 81.9788M64.6378 78.1752C64.6378 76.974 65.8366 75.7728 67.0355 75.7728C68.634 75.7728 69.4332 76.974 69.4332 78.1752C69.4332 79.3763 68.2343 80.5775 67.0355 80.5775C65.8366 80.5775 64.6378 79.5765 64.6378 78.1752"/>
</svg>
