<?xml version="1.0" encoding="utf-8" ?>
<svg xmlns="http://www.w3.org/2000/svg" xmlns:xlink="http://www.w3.org/1999/xlink" width="110" height="62">
	<path fill="white" d="M37.1676 62C12.8233 62 0 56.6131 0 46.3475C0 44.6197 0.701275 43.1967 2.10383 42.0787C0.801457 40.7574 0 38.8262 0 36.7934C0 34.7607 0.801457 32.8295 2.10383 31.5082C0.701275 30.3902 0 29.0689 0 27.2393C0 17.177 12.623 11.6885 36.4663 11.5869C40.3734 2.13443 58.1056 0 72.8324 0C90.765 0 110 4.06557 110 15.6525C110 17.482 109.299 18.8033 107.896 19.9213C109.199 21.2426 110 23.1738 110 25.2066C110 27.2393 109.199 29.0689 107.896 30.4918C109.299 31.6098 110 33.0328 110 34.7607C110 46.1443 91.1658 50.3115 73.4335 50.4131C69.326 58.9508 52.4954 62 37.1676 62"/>
	<path fill="#F7F254" d="M102.485 29.7295L43.0766 29.7295C40.6722 29.7295 38.6686 27.6968 38.6686 25.2574C38.6686 22.8181 40.6722 20.7853 43.0766 20.7853L102.485 20.7853C104.889 20.7853 106.896 22.8181 106.896 25.2574C106.993 27.6968 104.989 29.7295 102.485 29.7295"/>
	<path fill="#2D1B0A" d="M102.486 30.7459L43.0783 30.7459C40.0729 30.7459 37.6685 28.3066 37.6685 25.2574C37.6685 22.2082 40.0729 19.7689 43.0783 19.7689L102.486 19.7689C105.492 19.7689 107.896 22.2082 107.896 25.2574C107.896 28.3066 105.592 30.7459 102.486 30.7459M43.0783 21.7001C41.1749 21.7001 39.6721 23.2246 39.6721 25.1558C39.6721 27.0869 41.1749 28.6115 43.0783 28.6115L102.486 28.6115C104.39 28.6115 105.893 27.0869 105.893 25.1558C105.893 23.2246 104.39 21.7001 102.486 21.7001L43.0783 21.7001"/>
	<path fill="#D1E233" d="M106.995 15.7033C106.995 20.3787 91.6667 20.6836 72.8325 20.6836C55.3006 20.6836 38.6704 20.3787 38.6704 15.7033C38.6704 6.65738 53.9983 3.1 72.8325 3.1C91.6667 3.1 106.995 7.67377 106.995 15.7033"/>
	<path fill="#2D1B0A" d="M72.8324 21.7C48.9891 21.7 37.6685 20.7852 37.6685 15.7033C37.6685 3.91311 59.7086 2.0836 72.8324 2.0836C89.0619 2.0836 107.996 5.64098 107.996 15.7033C107.996 21.2934 94.6721 21.7 72.8324 21.7M72.8324 4.11639C51.7942 4.11639 39.6721 8.2836 39.6721 15.7033C39.6721 19.6672 62.1129 19.6672 72.8324 19.6672C85.255 19.6672 105.993 19.6672 105.993 15.7033C105.993 8.89344 92.368 4.11639 72.8324 4.11639"/>
	<path fill="#D1E233" d="M106.995 34.8115C106.995 30.1361 91.6667 29.8311 72.8325 29.8311C55.3006 29.8311 38.6704 30.1361 38.6704 34.8115C38.6704 43.8573 53.9983 47.4147 72.8325 47.4147C91.6667 47.3131 106.995 42.8409 106.995 34.8115"/>
	<path fill="#2D1B0A" d="M72.8324 48.3295C59.7086 48.3295 37.6685 46.6016 37.6685 34.7098C37.6685 29.5262 48.9891 28.7131 72.8324 28.7131C94.6721 28.7131 107.996 29.1197 107.996 34.7098C107.996 44.7721 89.0619 48.3295 72.8324 48.3295M72.8324 30.7459C62.1129 30.7459 39.6721 30.7459 39.6721 34.7098C39.6721 42.0279 51.7942 46.2967 72.8324 46.2967C92.368 46.2967 105.993 41.5197 105.993 34.7098C105.993 30.7459 85.255 30.7459 72.8324 30.7459"/>
	<path fill="#FFDCEC" d="M66.9217 41.3164L7.51366 41.3164C5.10929 41.3164 3.10565 39.2837 3.10565 36.8443C3.10565 34.405 5.10929 32.3722 7.51366 32.3722L66.9217 32.3722C69.326 32.3722 71.3297 34.405 71.3297 36.8443C71.3297 39.2837 69.326 41.3164 66.9217 41.3164"/>
	<path fill="#2D1B0A" d="M66.9217 42.3328L7.51364 42.3328C4.50817 42.3328 2.1038 39.8935 2.1038 36.8443C2.1038 33.7951 4.50817 31.3558 7.51364 31.3558L66.9217 31.3558C69.9271 31.3558 72.3315 33.7951 72.3315 36.8443C72.3315 39.8935 69.9271 42.3328 66.9217 42.3328M7.51364 33.2869C5.61018 33.2869 4.10744 34.8115 4.10744 36.7427C4.10744 38.6738 5.61018 40.1984 7.51364 40.1984L66.9217 40.1984C68.8251 40.1984 70.3278 38.6738 70.3278 36.7427C70.3278 34.8115 68.8251 33.2869 66.9217 33.2869L7.51364 33.2869"/>
	<path fill="#FFC2DB" d="M71.3296 27.2902C71.3296 31.9656 56.0017 32.2705 37.1674 32.2705C19.6355 32.2705 3.00535 31.9656 3.00535 27.2902C3.00535 18.2443 18.3333 14.6869 37.1674 14.6869C56.0017 14.6869 71.3296 19.2607 71.3296 27.2902"/>
	<path fill="#2D1B0A" d="M37.1674 33.2869C13.3241 33.2869 2.0035 32.3721 2.0035 27.2902C2.0035 15.5 24.0436 13.6705 37.1674 13.6705C53.3969 13.6705 72.3314 17.2279 72.3314 27.2902C72.3314 32.8803 59.0071 33.2869 37.1674 33.2869M37.1674 15.7033C16.1292 15.7033 4.00714 19.8705 4.00714 27.2902C4.00714 31.2541 26.4479 31.2541 37.1674 31.2541C49.59 31.2541 70.3277 31.2541 70.3277 27.2902C70.3277 20.4803 56.703 15.7033 37.1674 15.7033"/>
	<path fill="#FFC2DB" d="M71.3296 46.2967C71.3296 41.6213 56.0017 41.3164 37.1674 41.3164C19.6355 41.3164 3.00535 41.6213 3.00535 46.2967C3.00535 55.3426 18.3333 58.9 37.1674 58.9C56.0017 58.9 71.3296 54.4279 71.3296 46.2967"/>
	<path fill="#2D1B0A" d="M37.1674 59.9164C24.0436 59.9164 2.0035 58.1885 2.0035 46.2967C2.0035 41.1131 13.3241 40.3 37.1674 40.3C59.0071 40.3 72.3314 40.7066 72.3314 46.2967C72.3314 56.359 53.3969 59.9164 37.1674 59.9164M37.1674 42.3328C26.4479 42.3328 4.00714 42.3328 4.00714 46.2967C4.00714 53.6148 16.1292 57.8836 37.1674 57.8836C56.703 57.8836 70.3277 53.1066 70.3277 46.2967C70.3277 42.3328 49.59 42.3328 37.1674 42.3328"/>
</svg>
