<?xml version="1.0" encoding="utf-8" ?>
<svg xmlns="http://www.w3.org/2000/svg" xmlns:xlink="http://www.w3.org/1999/xlink" width="80" height="78">
	<path fill="white" d="M4.27481 78C3.86768 78 2.54453 78 1.42494 76.8958C1.01781 76.4942 0 75.4903 0 73.7838L0 59.2278C0 57.5212 1.01781 56.5174 1.42494 56.1158C2.54453 55.0116 4.07125 55.0116 4.58015 55.0116L5.59796 55.0116C6.61578 55.0116 7.43003 54.2085 7.43003 53.2046C7.43003 52.2008 6.61578 51.3977 5.59796 51.3977L4.58015 51.3977C4.17303 51.3977 3.257 51.3977 2.34097 50.8958C1.01781 50.3938 0 49.0888 0 47.6834L0 37.0425L0 33.2278C0 31.5212 1.11959 30.5174 1.52672 30.1158C2.23919 29.4131 35.827 4.3166 40.3053 0.903475C41.4249 0 42.5445 0 42.9517 0C66.3613 0 74.8092 8.53282 77.5573 12.8494C77.5573 12.8494 80 16.9653 80 17.668C79.3893 17.8687 78.8804 17.9691 78.8804 17.9691L78.8804 54.61C78.8804 56.2162 77.8626 57.722 76.2341 58.5251L4.98728 77.8996"/>
	<path fill="#FFD833" d="M3.25685 32.8264C3.25685 32.3245 3.46041 32.1236 3.76576 31.8225C3.96932 31.6217 34.9108 8.33216 42.3409 2.81092C42.5443 2.61015 42.8498 2.61015 43.0532 2.61015C70.4324 2.61015 75.5215 14.7568 75.7251 15.2587L3.25685 32.8264"/>
	<path fill="#2D1B0A" d="M2.239 34.031L2.239 32.726C2.239 31.8225 2.74791 31.3206 3.05325 31.0194C3.46037 30.6179 35.0125 6.92675 41.7301 2.00783C42.239 1.5059 42.8497 1.5059 43.155 1.5059C69.211 1.5059 75.725 12.5484 76.7428 14.6565L77.2517 15.7607L76.0303 16.0619L2.239 34.031M43.0532 3.61401C36.9464 8.13138 13.7403 25.4982 6.61559 30.919L74.3001 14.5561C72.1627 11.3437 64.8344 3.61401 43.0532 3.61401"/>
	<path fill="#F0C400" d="M4.52917 74.531C4.32561 74.531 4.02027 74.531 3.81671 74.3303C3.61314 74.1295 3.3078 73.8283 3.3078 73.3264L3.3078 58.7704C3.3078 58.2685 3.51136 58.0677 3.81671 57.7666C4.02027 57.5658 4.52917 57.5658 4.83452 57.5658L5.85233 57.5658C8.49864 57.5658 10.7378 55.4577 10.7378 52.7473C10.7378 50.1372 8.60042 47.9287 5.85233 47.9287L4.83452 47.9287C4.63096 47.9287 4.12205 47.9287 3.81671 47.728C3.61314 47.728 3.3078 47.5272 3.3078 47.226L3.3078 33.8747C3.3078 33.3727 3.51136 33.172 3.81671 32.8708C4.02027 32.67 75.776 14.9017 76.0813 15.3932L76.0813 54.1527C76.0813 54.6546 75.5724 55.1565 75.0635 55.3573L4.73274 74.531"/>
	<path fill="#2D1B0A" d="M4.88541 75.4903C4.17294 75.4903 3.56226 75.4903 3.05335 74.9884C2.74801 74.6872 2.2391 74.1853 2.2391 73.2818L2.2391 58.7258C2.2391 57.8223 2.74801 57.3204 3.05335 57.0192C3.56226 56.5173 4.3765 56.5173 4.78363 56.5173L5.80144 56.5173C7.93885 56.5173 9.66913 54.8107 9.66913 52.7026C9.66913 50.5945 7.93885 48.8879 5.80144 48.8879L4.78363 48.8879C4.47829 48.8879 3.8676 48.8879 3.35869 48.5867C2.74801 48.386 2.2391 47.7836 2.2391 47.1813L2.2391 33.8299C2.2391 32.9264 2.74801 32.4245 3.05335 32.1233C3.25691 31.9226 3.46047 31.7218 39.2874 22.9882C75.1144 14.2545 75.8269 14.4339 76.234 14.4339L77.15 54.2084C77.15 55.2122 76.3358 55.915 75.6233 56.3165L4.88541 75.4903M4.3765 58.525C4.27472 58.6254 4.27472 58.6254 4.27472 58.6254L4.27472 73.2818C4.27472 73.3822 4.3765 73.3822 4.3765 73.4826C4.3765 73.4826 4.3765 73.4826 4.47829 73.4826L74.6055 54.4092C74.8091 54.3088 74.9109 54.108 74.9109 54.108L74.9109 16.5634C66.1577 18.27 7.93885 32.7257 4.27472 33.7295L4.27472 46.7798C4.47829 46.8802 4.68185 46.8802 4.68185 46.8802L5.69966 46.8802C8.95666 46.8802 11.603 49.4902 11.603 52.7026C11.603 55.915 8.95666 58.525 5.69966 58.525L4.68185 58.525C4.68185 58.525 4.47829 58.525 4.3765 58.525"/>
	<path fill="#FFF4C5" d="M23.6132 52.5019C19.542 52.5019 16.3868 49.39 16.3868 45.3745C16.3868 41.3591 19.542 38.2471 23.6132 38.2471C27.6845 38.2471 30.8397 41.3591 30.8397 45.3745C30.8397 49.39 27.6845 52.5019 23.6132 52.5019"/>
	<path fill="white" d="M23.6132 53.0039C19.1348 53.0039 15.8778 49.6911 15.8778 45.3745C15.8778 41.0579 19.2366 37.7452 23.6132 37.7452C28.0915 37.7452 31.3485 41.0579 31.3485 45.3745C31.3485 49.6911 28.0915 53.0039 23.6132 53.0039M23.6132 38.6486C19.7455 38.6486 16.8957 41.5598 16.8957 45.2741C16.8957 49.0888 19.8473 51.8996 23.6132 51.8996C27.4809 51.8996 30.3307 48.9883 30.3307 45.2741C30.3307 41.5598 27.4809 38.6486 23.6132 38.6486"/>
	<path fill="#FFF4C5" d="M58.7277 52.5019C55.3689 52.5019 52.6208 49.8919 52.6208 46.4788C52.6208 43.0657 55.2671 40.4556 58.7277 40.4556C62.0865 40.4556 64.8345 43.0657 64.8345 46.4788C64.8345 49.8919 62.1882 52.5019 58.7277 52.5019"/>
	<path fill="white" d="M58.7277 53.0039C55.0635 53.0039 52.1119 50.1931 52.1119 46.4788C52.1119 42.7645 54.9618 39.9537 58.7277 39.9537C62.4936 39.9537 65.3435 42.7645 65.3435 46.4788C65.3435 50.1931 62.3918 53.0039 58.7277 53.0039M58.7277 41.058C55.5725 41.058 53.1297 43.4672 53.1297 46.5792C53.1297 49.6912 55.5725 52.1004 58.7277 52.1004C61.8829 52.1004 64.3256 49.6912 64.3256 46.5792C64.3256 43.4672 61.8829 41.058 58.7277 41.058"/>
	<path fill="#FFF4C5" d="M39.3893 52.502C38.6768 52.502 38.1679 53.0039 38.1679 53.7066C38.1679 54.4093 38.6768 54.9112 39.3893 54.9112C40.1018 54.9112 40.6107 54.4093 40.6107 53.7066C40.6107 53.0039 40.1018 52.502 39.3893 52.502"/>
	<path fill="white" d="M39.3893 55.4132C38.3715 55.4132 37.659 54.7105 37.659 53.7066C37.659 52.7027 38.3715 52 39.3893 52C40.4071 52 41.1196 52.7027 41.1196 53.7066C41.1196 54.7105 40.4071 55.4132 39.3893 55.4132M39.3893 53.0039C38.9822 53.0039 38.6768 53.3051 38.6768 53.7066C38.6768 54.1081 38.9822 54.4093 39.3893 54.4093C39.7964 54.4093 40.1018 54.1081 40.1018 53.7066C40.1018 53.3051 39.7964 53.0039 39.3893 53.0039"/>
	<path fill="#FFF4C5" d="M44.173 38.1467C42.2392 38.1467 40.5089 36.4401 40.5089 34.5328C40.5089 32.6255 42.2392 30.9189 44.173 30.9189C46.1068 30.9189 47.8371 32.6255 47.8371 34.5328C47.8371 36.4401 46.1068 38.1467 44.173 38.1467"/>
	<path fill="white" d="M44.173 38.6486C41.9338 38.6486 40 36.7413 40 34.5328C40 32.3243 41.9338 30.417 44.173 30.417C46.4122 30.417 48.346 32.3243 48.346 34.5328C48.346 36.7413 46.4122 38.6486 44.173 38.6486M44.173 31.5212C42.5445 31.5212 41.0178 32.9266 41.0178 34.6332C41.0178 36.3397 42.4427 37.7452 44.173 37.7452C45.9033 37.7452 47.3282 36.3397 47.3282 34.6332C47.3282 32.9266 45.9033 31.5212 44.173 31.5212"/>
</svg>
