<?xml version="1.0" encoding="utf-8" ?>
<svg xmlns="http://www.w3.org/2000/svg" xmlns:xlink="http://www.w3.org/1999/xlink" width="126" height="96">
	<path fill="white" d="M31.0231 96C17.8709 96 7.12829 84.8725 7.02789 71.3172C2.81116 68.687 0 63.9326 0 58.5711C0 58.3688 0 58.1665 0 57.9642C0 55.2329 1.10438 52.7039 2.71076 50.5796C1.80717 50.2761 1.10438 49.4668 0.702789 48.5564C0.200797 47.2413 0.501992 45.7239 1.50598 44.7123L5.32112 40.9694C5.32112 18.0063 22.69 0 44.0749 0L82.8287 0C104.214 0 121.582 18.0063 121.582 40.059L121.582 42.0822L124.092 44.9146C124.996 45.9262 125.197 47.4436 124.594 48.6575C124.293 49.3656 123.791 49.9726 123.088 50.2761C124.795 52.4004 126 55.0306 126 57.863C126 58.1665 126 58.3688 126 58.47C126 63.0221 123.992 67.1697 120.779 69.9009L120.779 71.216C120.779 84.8725 110.037 95.8988 96.7841 95.8988L31.0231 95.8988"/>
	<path fill="#FFD297" d="M97.3864 93.0664L31.2239 93.0664C19.6781 93.0664 10.2406 83.3551 10.2406 71.4183L10.2406 70.3056L118.27 70.3056L118.27 71.4183C118.27 83.3551 108.932 93.0664 97.3864 93.0664"/>
	<path fill="#2D1B0A" d="M97.3864 94.078L31.2239 94.078C19.0756 94.078 9.2366 83.8609 9.2366 71.4183L9.2366 69.294L119.274 69.294L119.274 71.4183C119.274 83.8609 109.535 94.078 97.3864 94.078M11.345 71.3172C11.345 82.7482 20.2804 92.0548 31.3242 92.0548L97.4868 92.0548C108.531 92.0548 117.466 82.7482 117.466 71.4183L11.345 71.3172"/>
	<path fill="#8C250D" d="M114.053 48.9611C119.073 48.9611 123.29 53.0075 123.49 58.2677C123.49 58.4701 123.49 58.5712 123.49 58.7735C123.49 65.2477 118.37 70.6092 112.145 70.6092L14.7592 70.6092C8.43412 70.6092 3.4142 65.3489 3.4142 58.7735C3.4142 58.6724 3.4142 58.4701 3.4142 58.3689C3.615 53.1086 7.83173 49.0623 12.8517 49.0623L114.053 48.9611"/>
	<path fill="#2D1B0A" d="M112.145 72.0254L14.7585 72.0254C7.63021 72.0254 1.9075 66.057 1.9075 58.6724C1.9075 58.47 1.9075 58.2677 1.9075 58.1666C2.1083 52.2993 7.02782 47.4437 12.8509 47.4437L114.052 47.4437C119.977 47.4437 124.796 52.1982 124.997 58.1666C124.997 58.47 124.997 58.5712 124.997 58.6724C124.997 66.057 119.273 72.0254 112.145 72.0254M114.052 50.4785L12.8509 50.4785C8.63419 50.4785 5.01985 54.019 4.91945 58.2677C4.91945 58.47 4.91945 58.5712 4.91945 58.6724C4.91945 64.3373 9.33698 68.9906 14.7585 68.9906L112.145 68.9906C117.566 68.9906 121.983 64.3373 121.983 58.6724C121.983 58.3689 121.983 58.2677 121.983 58.1666C121.883 53.9179 118.369 50.4785 114.052 50.4785"/>
	<path fill="#FFF08C" d="M70.58 68.0802L32.8302 76.2742C31.9267 76.4765 31.0231 76.2742 30.3203 75.6671L9.73861 58.7737C8.83502 58.0656 8.43343 56.9528 8.58355 55.7388L12.349 34.6978L93.8725 47.7472L70.58 68.0802"/>
	<path fill="#FFD755" d="M35.6414 60.3922C35.6414 60.8979 91.8645 72.6324 104.013 75.0602C105.318 75.3636 106.724 74.6555 107.326 73.3405L119.474 46.5334L95.5793 43.195L34.7379 36.5186L35.6414 60.3922"/>
	<path fill="#93C149" d="M4.10082 47.039C3.79963 47.3425 3.9558 47.9494 4.40202 47.9494C18.1566 48.5564 18.5582 60.1897 33.116 60.1897C48.0753 60.1897 48.0753 47.9494 63.2024 47.9494C78.0944 47.9494 78.0944 60.1897 93.1542 60.1897C107.813 60.1897 108.114 48.5564 121.969 47.9494C122.449 47.9494 122.571 47.4436 122.449 47.039L112.431 36.0126L15.9478 35.4057L4.10082 47.039"/>
	<path fill="#2D1B0A" d="M93.0692 61.1001C85.2382 61.1001 81.3226 57.863 77.5075 54.7271C73.7927 51.6923 70.2788 48.8599 63.2024 48.8599C56.0222 48.8599 52.5083 51.6923 48.7935 54.7271C44.9784 57.863 41.0629 61.1001 33.1314 61.1001C25.3003 61.1001 21.3848 57.863 17.4692 54.7271C13.9553 51.8946 10.6421 49.1633 4.31704 48.8599C3.71465 48.8599 3.21266 48.4552 2.9149 47.8483C2.9149 47.2413 2.9149 46.6344 3.41345 46.2297L15.5617 34.1918L112.848 34.7988L123.088 46.2297C123.49 46.7355 123.49 47.3425 123.49 47.9494C123.189 48.4552 122.687 48.8599 122.084 48.8599C115.659 49.1633 112.346 51.8946 108.832 54.7271C104.916 57.863 100.9 61.1001 93.0692 61.1001M63.2024 46.8367C70.9816 46.8367 74.9975 50.0738 78.8127 53.2097C82.5274 56.2445 86.0413 59.0769 93.1696 59.0769C100.298 59.0769 103.812 56.2445 107.527 53.2097C110.94 50.3773 114.555 47.4436 120.98 46.9378L112.045 36.9231L16.4652 36.3161L5.72262 46.9378C12.0477 47.5448 15.5617 50.3773 18.9752 53.2097C22.6899 56.2445 26.2039 59.0769 33.3322 59.0769C40.4605 59.0769 43.9744 56.2445 47.6892 53.2097C51.3035 50.0738 55.3194 46.8367 63.2024 46.8367"/>
	<path fill="#FFB45A" d="M119.073 40.1602L8.7346 40.1602C8.7346 19.7261 24.7983 3.136 44.4764 3.136L83.2302 3.136C103.009 3.136 119.073 19.7261 119.073 40.1602"/>
	<path fill="#2D1B0A" d="M120.077 41.1718L7.7306 41.1718L7.7306 40.1602C7.7306 19.2203 24.1959 2.1244 44.4764 2.1244L83.2302 2.1244C103.511 2.1244 120.077 19.2203 120.077 40.1602L120.077 41.1718M9.73857 39.1486L117.968 39.1486C117.466 19.7261 102.105 4.14758 83.2302 4.14758L44.4764 4.14758C25.7019 4.14758 10.341 19.8272 9.73857 39.1486"/>
</svg>
