<?xml version="1.0" encoding="utf-8" ?>
<svg xmlns="http://www.w3.org/2000/svg" xmlns:xlink="http://www.w3.org/1999/xlink" width="80" height="102">
	<path fill="white" d="M6.29336 102C4.49833 102 2.80302 101.19 1.60634 99.8729C0.509377 98.6574 0 97.138 0 95.5174L2.00523 52.9752C2.00523 52.9752 2.00523 52.8739 2.00523 52.8739L0 6.28004C0 4.65938 0.509377 3.14002 1.60634 2.02582C2.80302 0.709037 4.49833 0 6.29336 0C6.49281 0 6.59253 0 6.79198 0L39.8006 2.2284C39.9003 2.2284 39.9003 2.2284 40 2.2284C40.0997 2.2284 40.0997 2.2284 40.1994 2.2284L73.208 0C73.4075 0 73.5072 0 73.7066 0C75.5017 0 77.197 0.709037 78.3937 2.02582C79.4906 3.24131 80.089 4.76068 80 6.38133L78.6928 32.3118L78.0945 74.3476C78.0945 74.4489 78.0945 74.4489 78.0945 74.5501L79.8895 95.4161C80 97.0367 79.4906 98.6574 78.3937 99.8729C77.197 101.19 75.4019 102 73.6069 102L6.29336 102"/>
	<path fill="#EFA44E" d="M6.09338 98.5562C5.09625 98.5562 4.19883 98.1509 3.60055 97.4419C3.10199 96.8342 2.80285 96.1252 2.80285 95.4161L4.79711 52.8739C4.79711 52.7726 4.79711 52.57 4.79711 52.4688L2.80285 5.87488C2.80285 5.16584 3.10199 4.35551 3.60055 3.84906C4.19883 3.14002 5.19596 2.83615 6.09338 2.83615C6.19309 2.83615 6.2928 2.83615 6.39252 2.83615L39.3975 5.06455C39.4972 5.06455 39.597 5.06455 39.7963 5.06455C39.896 5.06455 39.9958 5.06455 40.1952 5.06455L73.2002 2.83615C73.2999 2.83615 73.3997 2.83615 73.4994 2.83615C74.4965 2.83615 75.3939 3.24131 75.9921 3.95035C76.4907 4.5581 76.7898 5.26713 76.7898 6.07746L75.4937 32.1092L74.8953 74.2463C74.8953 74.4489 74.8953 74.5501 74.8953 74.7528L76.6901 95.6187C76.7898 96.4291 76.4907 97.1381 75.9921 97.7458C75.3939 98.4548 74.3968 98.86 73.3997 98.86L6.09338 98.86"/>
	<path fill="#2D1B0A" d="M73.2002 99.569L6.09337 99.569C4.7971 99.569 3.70026 99.0625 2.80284 98.1509C2.10485 97.3406 1.706 96.3276 1.706 95.3147L3.70026 52.7725C3.70026 52.6712 3.70026 52.5699 3.70026 52.4687L1.706 5.87481C1.706 4.8619 2.00514 3.84899 2.80284 3.03866C3.70026 2.12704 4.99653 1.7091 6.39251 1.7091L39.3975 3.95028C39.5969 3.95028 39.7964 3.95028 39.9958 3.95028L73.0008 1.7091C74.3968 1.7091 75.693 2.12704 76.5904 3.13995C77.2884 3.95028 77.6873 4.96319 77.6873 5.9761L76.391 32.0079L75.7927 74.0436C75.7927 74.1449 75.7927 74.2462 75.7927 74.4488L77.5876 95.3147C77.6873 96.3276 77.2884 97.4418 76.5904 98.2522C75.693 98.9612 74.4965 99.569 73.2002 99.569M6.09337 3.7477C5.39538 3.7477 4.69739 4.05157 4.29854 4.45674C3.89969 4.8619 3.79997 5.26706 3.79997 5.77352L5.79423 52.3674C5.79423 52.5699 5.79423 52.6712 5.79423 52.8738L3.79997 95.416C3.79997 95.9225 3.9994 96.3276 4.29854 96.7328C4.7971 97.2393 5.39538 97.4418 6.09337 97.4418L73.2002 97.4418C73.8982 97.4418 74.5962 97.138 75.0947 96.6315C75.4936 96.2263 75.5933 95.7199 75.5933 95.3147L73.7985 74.4488C73.7985 74.2462 73.7985 74.0436 73.7985 73.841L74.3968 31.704L75.693 5.67223C75.693 5.16577 75.4936 4.76061 75.1945 4.35545C74.6959 3.84899 73.9979 3.54512 73.2002 3.64641L40.1952 5.87481C39.8961 5.87481 39.5969 5.87481 39.2978 5.87481L6.2928 3.64641C6.19308 3.7477 6.09337 3.7477 6.09337 3.7477"/>
	<path fill="#FFD184" d="M70.9067 97.4417L8.18721 97.543C6.99065 97.543 4.99639 97.543 4.09897 96.6314C3.40098 95.8211 3.6364 94.0991 3.6364 93.0863L5.69438 52.5699C5.69438 52.4686 5.69438 52.3674 5.69438 52.2661L3.6364 7.90057C3.6364 6.88766 3.40098 5.46959 4.09897 4.76055C4.99639 3.84893 5.79409 3.84893 7.09036 3.84893L39.1979 5.87475C39.3974 5.87475 39.54 5.87475 39.6965 5.87475L70.5078 3.74764C70.6075 3.74764 72.6018 3.64635 72.7015 3.64635C73.898 3.64635 74.1972 3.64635 74.9949 4.55797C75.6929 5.3683 75.4436 6.98895 75.294 8.00186L74.1972 32.7169L73.3995 72.7267C73.3995 72.828 73.2998 73.132 73.3995 73.2332L74.9949 92.9849C75.0946 94.0991 75.4436 95.9224 74.7955 96.834C74.1972 97.543 72.2029 97.4417 70.9067 97.4417M7.98778 93.0863C8.08749 93.0863 8.08749 93.0863 8.18721 93.0863L70.8069 93.0863C70.9067 93.0863 71.0064 93.0863 71.0064 93.0863L69.3113 73.4358C69.3113 73.2332 69.3113 72.9293 69.3113 72.7267L69.9095 32.5143L71.1061 7.90057C71.0064 7.90057 71.0064 7.90057 70.9067 7.90057L40.0954 10.0277C39.6965 10.0277 39.3974 10.0277 38.9985 10.0277L8.18721 7.90057C8.08749 7.90057 7.98778 7.90057 7.98778 7.90057L9.78261 52.0634C9.78261 52.2661 9.78261 52.4686 9.78261 52.7724L7.98778 93.0863"/>
	<path fill="#FFD285" d="M25.3378 94.8083L21.0502 94.6058C21.0502 94.3018 22.9447 59.2551 23.1442 40.01C23.3472 21.0684 19.2554 7.19163 19.2554 6.98905L23.4433 5.87485C23.6427 6.4826 27.6312 20.4608 27.439 40.01C27.2324 59.3565 25.3378 94.4031 25.3378 94.8083"/>
	<path fill="#FFD285" d="M49.7675 94.3019C49.7675 93.8967 45.3802 55.5074 44.9813 33.426C44.5825 11.142 45.4799 7.09034 45.4799 6.88775L49.8672 6.78646L47.7733 6.3813L49.8672 6.78646C49.8672 6.98905 48.8701 11.9523 49.269 33.426C49.6678 55.4061 53.9555 93.5928 53.9555 93.998L49.7675 94.3019"/>
	<path fill="#FFD285" d="M6.8909 38.6931L4.99635 34.7428C5.69434 34.3377 23.1441 25.0189 39.9956 26.0406C56.2488 27.146 74.2969 27.7537 74.4963 27.855L74.3966 32.2105C74.1972 32.2105 56.1492 31.6028 39.7463 30.4886C24.0415 29.577 7.09032 38.5919 6.8909 38.6931"/>
	<path fill="#FFD285" d="M7.19016 69.5869L5.59475 65.5352C6.19303 65.2314 19.6542 59.0526 37.0043 59.4387C54.0552 59.8629 72.203 63.4081 72.4025 63.5094L71.7045 67.8649C71.5051 67.8649 53.6563 64.3197 36.9047 63.9146C20.452 63.5094 7.28987 69.5869 7.19016 69.5869"/>
	<path fill="#D67B36" d="M19.6543 8.40713L7.48925 7.5968L8.68581 32.8182L11.4778 31.8053L10.3809 9.8252L19.9534 9.92649"/>
	<path fill="#D67B36" d="M24.3407 8.71105L39.9956 9.82525L45.1807 9.42009L44.9813 11.2433L27.2324 10.8382L29.3264 26.6395L26.9332 27.0448L25.2381 14.8898L24.1413 8.71105"/>
	<path fill="#D67B36" d="M22.8451 32.6157C22.8451 32.6157 16.4634 34.6415 14.5689 35.2493C12.6744 35.9583 8.78555 37.7815 8.78555 37.7815C8.78555 37.7815 9.48354 51.1519 9.38383 53.8868C9.28411 56.6217 8.78555 63.8133 8.78555 63.8133L11.5775 62.9017C11.5775 62.9017 12.3752 53.0765 12.3752 48.4171C12.3752 43.7577 11.5775 38.4906 11.5775 38.4906L22.8451 34.2364L22.8451 32.6157"/>
	<path fill="#D67B36" d="M8.68584 68.6753C8.68584 68.6753 11.7769 67.3585 14.5689 66.7507C17.2612 66.143 22.4462 65.0288 22.4462 65.0288L22.3465 67.1559C22.3465 67.1559 16.1643 67.9662 13.8709 68.8779C11.5775 69.7895 11.2784 69.9921 11.2784 69.9921C11.2784 69.9921 11.4778 75.2592 11.1787 77.8928C10.8795 80.5263 10.2813 93.0864 10.2813 93.0864L7.589 93.0864C7.589 93.0864 8.18728 80.7289 8.3867 78.2979C8.48642 75.8669 8.68584 68.6753 8.68584 68.6753"/>
	<path fill="#D67B36" d="M26.8335 59.863L29.7252 59.5591C29.7252 59.5591 29.9246 52.57 29.8249 45.2771C29.6255 37.9841 29.8249 32.9196 29.8249 32.9196C29.8249 32.9196 34.4117 32.008 36.9045 32.008C39.2976 32.1092 44.9813 32.8183 44.9813 32.8183L44.9813 30.8938C44.9813 30.8938 37.9016 30.286 34.8105 30.5048C31.6197 30.8938 27.3321 31.6028 27.3321 31.6028L26.8335 59.863"/>
	<path fill="#D67B36" d="M26.7339 64.5223L25.6371 92.9851L28.1299 93.0864C28.1299 93.0864 28.8279 83.2612 28.7282 77.8927C28.6284 72.5243 29.3264 66.2443 29.3264 66.2443L36.3064 65.5352L46.8759 66.0417L46.6765 64.421C46.6765 64.421 38.8988 63.9032 35.3092 63.9032C30.6227 64.1172 26.7339 64.5223 26.7339 64.5223"/>
	<path fill="#D67B36" d="M49.5682 9.11621L70.9067 7.59685L70.807 9.3188C70.807 9.3188 62.3314 9.82525 58.3429 10.0278C54.4541 10.2304 51.2633 10.6356 51.2633 10.6356C51.2633 10.6356 51.363 17.726 51.2633 18.7388C51.2633 19.7517 51.2633 26.6395 51.2633 26.6395L49.1693 26.5382C49.1693 26.5382 49.1693 18.0299 49.1693 15.0924C49.1693 12.1549 49.5682 9.11621 49.5682 9.11621"/>
	<path fill="#D67B36" d="M50.6649 60.2681L49.6678 43.5551L49.3686 31.0963L70.1089 32.4131L70.0092 34.0337L51.7618 33.2234C51.7618 33.2234 51.8615 43.6564 52.4597 47.1003C52.9583 50.5442 53.1577 60.4707 53.1577 60.4707L50.6649 60.2681"/>
	<path fill="#D67B36" d="M50.9641 64.8262C50.9641 64.8262 60.3371 65.9404 60.8357 65.9404C61.2345 65.9404 69.5107 67.3585 69.5107 67.3585L69.5107 69.3843L53.9555 67.1559C53.9555 67.1559 54.9526 76.8799 55.2518 80.1211C55.4512 83.3624 56.2489 92.9851 56.2489 92.9851L53.5566 92.9851C53.5566 92.9851 52.6592 82.3495 52.2604 77.6902C51.8615 73.2334 50.9641 64.8262 50.9641 64.8262"/>
</svg>
