<?xml version="1.0" encoding="utf-8" ?>
<svg xmlns="http://www.w3.org/2000/svg" xmlns:xlink="http://www.w3.org/1999/xlink" width="116" height="90">
	<path fill="white" d="M57.564 90C53.5477 90 49.6318 89.699 45.9167 89.097C18.8066 84.8829 3.84588 71.3378 1.4361 60.602C1.23528 59.5987 0.733242 57.1906 0.733242 57.1906C-0.772874 49.2642 0 41.8395 3.24344 34.6154C4.95037 29.5987 7.36016 24.8829 10.0712 21.1706C18.8066 9.3311 38.9886 2.9097 49.6318 1.00334C49.6318 0.90301 60.2751 0 61.4799 0C71.8219 0 81.3607 3.11037 94.5141 10.6355C99.4341 13.3445 103.651 17.3579 107.065 22.4749C110.077 27.0903 113.792 37.7258 113.792 37.7258C113.893 37.9264 113.893 38.1271 113.993 38.3278C117.307 50.8696 116.503 61.3043 111.684 68.2274C104.254 80.2676 80.0554 90 57.564 90"/>
	<path fill="#FCCB7C" d="M51.9447 3.61204C39.3945 5.41806 19.816 12.3411 11.9847 22.8763C4.3541 33.3111 1.04083 49.3646 3.55088 58.4949C6.06094 67.6255 19.314 81.9732 45.9206 85.7859C72.4268 89.8997 104.757 76.3545 109.676 63.1104C114.295 49.3646 110.68 23.1772 92.6076 13.1439C73.8324 2.6087 64.3946 2.10702 51.9447 3.61204"/>
	<path fill="#2D1B0A" d="M56.2621 87.6923C52.748 87.6923 49.2339 87.4917 45.7198 86.8897C16.5028 82.6755 4.75577 66.7221 2.54692 58.8959C-0.16393 48.9626 3.65135 32.5075 11.0811 22.3736C19.5149 10.9353 39.9969 4.31313 51.744 2.70776C65.2983 1.10238 74.9369 2.0954 92.9089 12.4403C110.981 22.4739 115.298 48.9626 110.479 63.6117C106.061 75.5517 80.8606 87.6923 56.2621 87.6923M52.0452 4.61414C38.2901 6.52052 19.9165 13.8451 12.7879 23.4773C4.75577 34.4139 2.24572 50.0663 4.55497 58.2939C6.96462 66.9228 19.9165 81.0702 46.0211 84.7826C49.3343 85.2843 52.6476 85.485 56.0613 85.485C79.6558 85.485 104.555 73.9463 108.672 62.7087C113.29 48.762 109.274 23.4773 92.0052 13.9454C72.9288 3.20944 63.3906 3.30977 52.0452 4.61414"/>
	<path fill="#E5952C" d="M110.234 38.5284C113.346 50.0668 113.045 59.8996 108.427 66.5217C101.097 78.7625 71.6792 90.2006 45.7754 86.0869C19.5705 81.9732 5.81537 69.03 3.70693 59.8996C1.89969 52.9765 1.19687 44.8494 5.51416 35.418C3.40572 41.7391 5.21296 44.5484 6.51819 48.6621C8.62663 55.9866 21.2773 67.9264 46.4782 71.3377C71.6792 74.8494 102.503 65.418 106.619 54.2809C107.925 52.2742 111.74 43.4448 110.234 38.5284"/>
	<path fill="#2D1B0A" d="M57.1656 87.9933C53.3504 87.9933 49.4347 87.6923 45.6194 87.0903C20.6193 83.1772 5.15733 70.5351 2.74768 60.1003C1.14124 53.8796 -0.0635799 45.3511 4.55491 35.0167L6.46255 35.719C4.85612 40.7358 5.75974 43.3445 6.86416 46.5552C7.06497 47.1572 7.26577 47.7592 7.46658 48.3612C9.37422 55.0836 21.6233 67.0234 46.6234 70.3344C72.6276 73.9465 101.945 64.1137 105.76 53.8796C106.965 51.6722 110.479 43.6455 109.374 39.1304C109.374 39.0301 109.274 38.8294 109.274 38.7291L111.182 38.2274C111.182 38.4281 111.282 38.5284 111.282 38.7291C114.495 50.7692 113.792 60.602 109.274 67.1237C102.848 77.9598 80.2581 87.9933 57.1656 87.9933M3.9525 43.7458C2.74768 50.0669 3.65129 55.3846 4.75572 59.699C6.56296 67.6254 19.0128 80.9699 45.9206 85.1839C71.2219 89.1973 100.339 78.0602 107.567 66.02C110.88 61.204 111.884 54.5819 110.78 46.3545C109.776 50.1672 108.17 53.6789 107.567 54.7826C102.949 66.9231 71.5231 75.9532 46.3222 72.4414C20.2176 68.9297 7.66738 56.4883 5.55894 49.0635C5.35813 48.4615 5.15733 47.8595 4.95652 47.3578C4.65532 46.1538 4.25371 44.9498 3.9525 43.7458"/>
	<path fill="#CE7421" d="M83.7722 60.4014C79.6556 54.4817 68.7119 45.3512 59.274 38.3278C46.3222 43.6455 29.4545 51.5719 26.3421 54.0802C26.3421 53.077 37.8884 42.1404 53.6516 33.7123C50.1375 31.2041 47.0249 29.097 44.9165 27.3913C43.1093 26.388 41.4025 25.2843 39.5953 24.281C29.1534 29.5986 19.7156 35.5183 17.9084 36.5218C18.9124 35.5183 23.2297 29.5986 35.4788 22.2743C28.1493 18.4615 21.2216 15.9531 21.2216 15.9531L28.1493 11.8395C28.1493 11.8395 35.0771 14.9499 41.4025 18.4615C41.7037 18.1605 42.1052 18.1605 42.4064 17.7593C48.7318 14.6488 55.3584 12.9431 61.6836 11.8395C54.0532 6.52174 48.7318 5.21739 48.7318 5.21739L55.3584 4.21405C55.3584 4.21405 59.9769 5.5184 67.9087 11.1371C78.0492 10.4348 85.479 11.8395 85.479 11.8395C85.479 11.8395 79.5553 12.1405 71.724 13.6455C72.728 14.3478 73.5312 14.6488 74.5351 15.4515C78.3504 18.5618 82.1657 21.3713 85.479 24.582C95.9209 23.8797 104.053 25.5853 104.053 25.5853C104.053 25.5853 97.7281 26.5886 89.7962 28.6957C94.6156 34.0133 98.23 38.8294 97.9289 41.2374C95.4189 37.7257 91.3024 33.913 85.3786 29.6989C79.0533 31.0034 72.4268 32.8093 67.507 34.515C66.8042 34.816 65.6998 35.2174 64.9969 35.5183C70.3183 40.1338 75.4388 44.9499 77.9489 48.4616C82.9689 57.6923 83.7722 60.4014 83.7722 60.4014M79.1536 25.7859C76.0412 23.2775 72.5272 20.4683 69.4146 17.6588C68.4107 16.6556 67.3063 15.8528 66.3021 15.1505C61.6836 16.1539 57.1656 17.2575 52.5471 18.9632C50.4387 19.6656 48.4306 20.7693 46.2217 21.4715C47.2257 22.174 48.3302 22.7759 49.0331 23.2775C51.1414 25.0837 54.9567 27.893 59.1737 31.4046C60.1777 31.1037 61.6836 30.4014 62.6878 30.1003C68.4107 27.893 74.0331 26.5886 79.1536 25.7859M18.0088 37.0234C17.7829 37.0234 17.7829 37.0234 18.0088 37.0234C17.7829 37.0234 17.7829 37.0234 18.0088 37.0234"/>
</svg>
