<?xml version="1.0" encoding="utf-8" ?>
<svg xmlns="http://www.w3.org/2000/svg" xmlns:xlink="http://www.w3.org/1999/xlink" width="80" height="84">
	<path fill="white" d="M60.0755 16.8399C60.1761 16.8399 60.1761 16.8399 60.2767 16.8399C67.6226 14.7473 71.7484 9.56584 73.6604 6.67616C74.2642 5.67972 74.3648 4.38434 73.761 3.28826C73.1572 2.19217 72.0503 1.59431 70.8428 1.59431C70.239 1.59431 69.6352 1.79359 69.1321 2.09253C68.7296 2.29181 68.2264 2.39146 67.6226 2.39146C66.5157 2.39146 65.1069 2.09253 63.6981 1.79359C61.9874 1.39502 60.1761 1.09609 58.4654 1.09609C57.6604 1.09609 56.956 1.19573 56.2516 1.29537C52.7296 2.09253 49.6101 3.3879 47.0943 4.68327L47.7987 2.79004L42.4654 0C40.8553 2.29181 39.3459 4.78292 38.1384 7.37367C37.434 8.86833 36.7296 10.6619 36.4277 12.5552C15.7987 14.3488 0 29.9929 0 49.3238C0 69.452 17.0063 84 40.4528 84C62.9937 84 80 68.5552 80 48.1281C79.8994 34.2776 72.1509 22.8185 60.0755 16.8399"/>
	<path fill="#FFA41F" d="M76.5788 48.1778C76.5788 67.2598 60.6794 81.0107 40.0504 81.0107C19.4214 81.0107 2.61645 68.4554 2.61645 49.3237C2.61645 30.1922 19.3208 15.3451 40.0504 15.3451C60.78 15.3451 76.5788 28.9963 76.5788 48.1778"/>
	<path fill="#2D1B0A" d="M39.9498 82.0071C17.7108 82.0071 1.5095 68.2562 1.5095 49.3238C1.5095 29.6939 18.4152 14.3487 39.9498 14.3487C61.3837 14.3487 77.4843 28.8967 77.4843 48.1779C77.4843 67.5587 61.3837 82.0071 39.9498 82.0071M39.9498 16.2419C19.5221 16.2419 3.52208 30.6903 3.52208 49.2241C3.52208 67.0604 18.8177 79.9145 39.9498 79.9145C60.1762 79.9145 75.4718 66.2633 75.4718 48.0284C75.4718 29.7935 60.2768 16.2419 39.9498 16.2419"/>
	<path fill="#90C63C" d="M41.7611 11.2598C41.7611 11.2598 47.8995 5.97865 56.3523 4.18505C60.6793 3.28826 66.5158 6.87545 70.2391 4.58363C70.541 4.38434 70.8429 4.78292 70.6416 5.08185C69.0315 7.6726 65.4089 12.1566 58.9686 13.9502C49.8114 16.5409 41.7611 11.2598 41.7611 11.2598"/>
	<path fill="#2D1B0A" d="M53.7328 15.6441C46.791 15.6441 41.5595 12.2562 41.2577 12.057L40.151 11.3594L41.1571 10.4626C41.4589 10.2633 47.5959 4.98221 56.248 3.18862C58.3607 2.6904 60.6747 3.18862 62.888 3.68684C65.6044 4.28471 68.1195 4.78293 69.8299 3.68684C70.3329 3.38791 71.0371 3.48755 71.4396 3.88613C71.8163 4.28471 71.9426 4.98221 71.6408 5.48043C69.9305 8.07118 66.1074 12.8541 59.4674 14.7473C57.4553 15.4448 55.5438 15.6441 53.7328 15.6441M43.5716 11.0605C46.0868 12.3559 52.1231 14.7473 58.8638 12.8541C63.6929 11.4591 66.8117 8.46976 68.7232 6.0783C66.7111 6.37723 64.5983 5.97866 62.385 5.48043C60.3729 5.08186 58.2601 4.58364 56.6504 4.98221C50.6141 6.37723 45.6843 9.56584 43.5716 11.0605"/>
	<path fill="#FC7D27" d="M55.044 69.5516C55.2453 69.7509 55.6478 69.8505 55.9497 69.6513C56.2516 69.5516 56.4528 69.2527 56.5534 68.9538C56.5534 68.6548 56.4528 68.3559 56.2516 68.1566C56.0503 67.9483 55.6478 67.9483 55.3459 68.0569C55.044 68.1566 54.8428 68.4555 54.7154 68.7545C54.7154 68.9538 54.8428 69.3523 55.044 69.5516"/>
	<path fill="#FC7D27" d="M50.5157 72.4413C50.8176 72.6406 51.2201 72.7403 51.522 72.6406C51.8239 72.541 52.1258 72.242 52.1258 71.8435C52.1258 71.4449 52.0252 71.146 51.7233 70.9467C51.4214 70.7083 51.0189 70.7083 50.717 70.7083C50.4151 70.847 50.1132 71.146 50.1132 71.5445C50.1132 71.8435 50.1132 72.242 50.5157 72.4413"/>
	<path fill="#FC7D27" d="M53.4339 63.3736C53.8365 63.6726 54.239 63.7722 54.7421 63.5729C55.1446 63.3736 55.4465 63.0747 55.5471 62.5765C55.6478 62.0783 55.4465 61.6797 55.044 61.3808C54.6415 61.0778 54.239 61.0778 53.7358 61.1815C53.3333 61.3808 52.9308 61.6797 52.9308 62.1779C52.9308 62.5765 52.9308 63.0747 53.4339 63.3736"/>
	<path fill="#FC7D27" d="M60.6792 65.8648C61.1824 66.2634 61.8868 66.363 62.4905 66.1637C63.0943 65.9645 63.4968 65.3666 63.5975 64.7687C63.6981 64.1709 63.4968 63.4734 62.8931 63.0748C62.3899 62.6762 61.6855 62.5766 61.0817 62.7758C60.478 62.9751 59.9748 63.573 59.9748 64.1709C59.9748 64.7687 60.1761 65.4662 60.6792 65.8648"/>
	<path fill="#2D1B0A" d="M38.239 16.1424C37.3334 13.3523 38.4403 10.4626 39.5472 8.17082C40.7547 5.67972 42.0629 3.28826 43.673 1.09609L45.283 2.19218C43.7736 4.2847 42.4654 6.57652 41.3585 8.96798C40.4529 10.8612 39.5472 13.3523 40.151 15.4449L38.239 16.1424"/>
</svg>
