<?xml version="1.0" encoding="utf-8" ?>
<svg xmlns="http://www.w3.org/2000/svg" xmlns:xlink="http://www.w3.org/1999/xlink" width="82" height="98">
	<path fill="white" d="M55.1311 98C50.4539 98 45.7767 96.7951 41.7961 94.3852C40.3034 93.582 39.0097 92.5779 37.716 91.4734L36.6214 91.2725C33.4369 92.5779 30.0534 93.1803 26.6699 93.1803C21.9927 93.1803 17.3155 91.9754 13.335 89.5656C5.07524 84.7459 0 75.8094 0 66.1701C0 56.5307 5.07524 47.5943 13.335 42.7746C17.415 40.4652 21.9927 39.1598 26.6699 39.1598L27.8641 38.6578C34.034 28.6168 43.9854 20.9857 55.9272 17.1701L57.5194 16.668L56.3252 15.4631C52.9417 12.25 50.0558 8.73566 47.767 4.92008L46.6723 3.21311L51.7476 0L52.8422 1.70697C56.6238 7.83197 62.1966 13.3545 68.8641 17.5717C71.551 19.2787 74.4369 20.7848 77.4223 21.9898L79.7112 22.0902L79.6117 28.1148L77.6214 28.1148C76.8252 28.1148 76.0291 27.9139 75.3325 27.6127C72.1481 26.3074 69.0631 24.8012 66.0777 22.9939L64.784 22.1906L64.585 23.6967C63.4903 30.5246 63.1917 37.5533 63.5898 44.582C65.7791 45.9877 67.2718 46.6906 68.665 47.5943C76.9248 52.4139 82 61.3504 82 70.9898C82 80.6291 76.9248 89.5656 68.665 94.3852C64.3859 96.7951 59.8083 98 55.1311 98M56.9223 23.3955C47.966 26.4078 40.1044 32.0307 34.8301 39.2602L34.034 40.3648L35.3277 40.7664C36.9199 41.3689 38.5121 42.0717 40.0049 42.875C41.4976 43.6783 42.7913 44.6824 44.085 45.7869L45.1796 45.9877C48.3641 44.6824 51.7476 44.0799 55.1311 44.0799C55.5291 44.0799 55.9272 44.0799 56.3252 44.0799L57.4199 44.0799L57.4199 42.9754C57.2209 36.6496 57.5194 30.4242 58.3155 24.2992L58.5146 22.6926L56.9223 23.3955"/>
	<path fill="#EA3636" d="M31.0485 70.9899C31.0485 79.5247 35.5266 87.457 42.8907 91.7747C50.2548 96.0923 59.3106 96.0923 66.5751 91.7747C73.9393 87.457 78.4174 79.625 78.4174 70.9899C78.4174 62.455 73.9393 54.5226 66.5751 50.205C59.2111 45.8873 50.1553 45.8873 42.8907 50.205C35.6261 54.5226 31.0485 62.455 31.0485 70.9899"/>
	<path fill="#2D1B0A" d="M54.8325 95.8915C50.5534 95.8915 46.2743 94.787 42.4927 92.578C34.8301 88.16 30.1529 79.826 30.1529 70.9899C30.1529 62.1538 34.9296 53.8198 42.4927 49.4018C50.1553 44.9837 59.6092 44.9837 67.1723 49.4018C74.8349 53.8198 79.5121 62.1538 79.5121 70.9899C79.5121 79.826 74.7354 88.16 67.1723 92.578C63.2912 94.787 59.1116 95.8915 54.8325 95.8915M54.8325 48.0965C50.8519 48.0965 46.9709 49.1005 43.4879 51.2091C36.5218 55.326 32.1432 62.8567 32.1432 71.0902C32.1432 79.2234 36.5218 86.8546 43.4879 90.9715C50.4539 95.0882 59.2112 95.0882 66.1772 90.9715C73.1432 86.8546 77.5218 79.3239 77.5218 71.0902C77.5218 62.9571 73.1432 55.326 66.1772 51.2091C62.6942 49.1005 58.7136 48.0965 54.8325 48.0965"/>
	<path fill="#F47A62" d="M2.58725 66.1702C2.58725 74.7049 7.06541 82.6373 14.4295 86.9549C21.7936 91.2726 30.8493 91.2726 38.1139 86.9549C45.4781 82.6373 49.9562 74.8053 49.9562 66.1702C49.9562 57.6353 45.4781 49.7029 38.1139 45.3853C30.7498 41.0676 21.694 41.0676 14.4295 45.3853C7.16492 49.7029 2.58725 57.6353 2.58725 66.1702"/>
	<path fill="#2D1B0A" d="M26.3713 91.1722C22.0922 91.1722 17.8131 90.0677 14.0315 87.8587C6.36888 83.4407 1.6917 75.1067 1.6917 66.2706C1.6917 57.4345 6.4684 49.1005 14.0315 44.6825C21.6941 40.2644 31.148 40.2644 38.7111 44.6825C46.3737 49.1005 51.0509 57.4345 51.0509 66.2706C51.0509 75.1067 46.2742 83.4407 38.7111 87.8587C34.83 90.0677 30.6504 91.1722 26.3713 91.1722M26.3713 43.2767C22.3907 43.2767 18.5097 44.2808 15.0267 46.3894C8.06063 50.5062 3.68199 58.0369 3.68199 66.2706C3.68199 74.4037 8.06063 82.035 15.0267 86.1517C21.9927 90.2686 30.75 90.2686 37.716 86.1517C44.682 82.035 49.0606 74.5042 49.0606 66.2706C49.0606 58.1374 44.682 50.5062 37.716 46.3894C34.233 44.2808 30.2524 43.2767 26.3713 43.2767"/>
	<path fill="#471D18" d="M59.8082 53.0164C58.3155 41.8709 58.614 30.7254 60.7039 20.082C45.7767 23.5963 33.5364 33.4365 27.9636 46.6906L26.1723 45.8873C32.2427 31.6291 45.5776 21.0861 61.898 17.7725L63.3907 17.4713L63.0922 18.9774C60.8034 29.9221 60.4053 41.2684 61.9975 52.7152L59.8082 53.0164"/>
	<path fill="#471D18" d="M77.1237 26.207C76.5266 26.207 76.029 26.1066 75.5315 25.9058C72.347 24.6004 69.1625 22.9939 66.2766 21.1865C59.1116 16.668 53.1407 10.7439 49.0606 4.01641L50.7523 2.9119C54.7329 9.33813 60.4053 15.0615 67.3713 19.3791C70.2572 21.1865 73.2426 22.6926 76.3276 23.8976C76.6261 23.998 76.9247 24.0984 77.2232 24.0984L77.1237 26.207"/>
</svg>
