<?xml version="1.0" encoding="utf-8" ?>
<svg xmlns="http://www.w3.org/2000/svg" xmlns:xlink="http://www.w3.org/1999/xlink" width="80" height="88">
	<path fill="white" d="M41.2674 88C40.9632 88 40.5577 88 40.2535 87.899C39.4423 87.7979 38.6312 87.6969 37.9214 87.3938C34.6768 86.3835 32.0406 84.3628 30.4183 82.7463C24.3346 76.7853 18.9607 69.814 14.4994 62.1355C11.3561 56.5786 9.42966 52.1332 8.51711 47.5867C7.40177 42.2319 7.70596 36.9782 9.32826 32.5327C6.28644 31.5224 3.14322 29.4007 1.92649 26.4707L0 21.9242L4.96831 22.2273C5.2725 22.2273 5.57668 22.2273 5.98226 21.8232C6.38783 21.4191 6.79341 20.9139 7.19899 20.4087C8.31432 19.1963 9.63245 17.5798 11.9645 16.6705C12.1673 16.5695 12.3701 16.4684 12.6743 16.4684C12.0659 15.054 11.7617 13.6395 12.1673 12.6292L12.8771 10.9116L14.8035 10.8106C16.73 10.7095 18.7579 9.90126 20.8872 8.99196C21.6984 8.68886 22.4081 8.28473 23.2193 8.08266C24.7402 7.47646 26.7681 6.76923 28.7959 6.76923C29.7085 6.76923 30.621 6.87026 31.4322 7.17336C31.5336 6.9713 32.4461 5.35476 32.4461 5.35476C32.6489 4.95063 33.2573 4.04133 33.3587 3.6372C33.3587 3.73823 36.5019 0 36.5019 0C37.1103 1.31343 41.2674 4.2434 42.9911 5.25373C43.9037 5.85993 44.9176 6.3651 45.8302 7.07233C47.4525 5.96096 49.5817 5.35476 51.9138 5.35476C54.2459 5.35476 56.071 5.85993 57.8961 6.3651C60.8365 7.17336 63.1686 7.67853 65.602 8.08266L71.9899 9.093L67.5285 13.3364C67.4271 13.4374 67.2243 13.6395 67.1229 13.7405C67.1229 13.7405 66.8188 14.0436 66.7174 14.2457C66.7174 14.2457 66.5146 14.5488 66.4132 14.5488C67.6299 15.3571 68.6439 16.3674 69.5564 17.2767C69.8606 17.5798 70.2662 17.8829 70.5703 18.186C71.4829 18.9943 72.4968 19.7015 73.6122 20.2067C74.0177 20.3077 75.0317 20.6108 75.4373 20.6108C74.8289 20.6108 80 22.2273 80 22.2273C79.493 26.2687 76.654 29.4007 73.815 30.8152C72.5982 31.4214 71.2801 31.9265 69.8606 32.1286C69.962 32.5327 70.1648 32.8358 70.2662 33.24C70.7731 34.7555 71.0773 36.473 71.0773 38.5947C71.2801 48.9001 66.616 58.3972 62.256 66.3789C59.2142 71.8347 55.9696 77.5936 51.6096 82.4432C48.0608 86.1814 44.7148 88 41.2674 88"/>
	<path fill="#84D171" d="M72.2433 23.0357C70.8238 22.4295 69.5057 21.5201 68.2889 20.5098C66.3624 18.7922 64.6387 16.5695 62.0026 16.0644C61.9011 16.0644 61.6983 16.0644 61.597 15.9633C61.7998 15.7613 61.9011 15.4581 62.104 15.2561C62.104 15.1551 62.2053 15.1551 62.2053 15.054C62.3068 14.8519 62.4081 14.6498 62.611 14.5489C62.611 14.4478 62.7123 14.4478 62.7123 14.3468C62.8137 14.1447 63.0164 13.9426 63.1179 13.7406C63.2192 13.5385 63.4221 13.3364 63.5234 13.1343C63.5234 13.1343 63.6249 13.0333 63.6249 13.0333C63.7262 12.8313 63.8277 12.7302 64.0304 12.5282C64.0304 12.4271 64.1319 12.4271 64.1319 12.3261C64.2332 12.124 64.4361 12.023 64.5373 11.922C64.5373 11.922 64.6387 11.8209 64.6387 11.8209C64.8415 11.6188 64.9429 11.4168 65.1458 11.3158C65.0443 11.3158 64.9429 11.3158 64.7402 11.2147C62.3068 10.8106 59.8732 10.3054 57.4398 9.69921C55.6147 9.19405 53.7896 8.68888 51.8632 8.68888C49.9366 8.68888 48.0102 9.09301 46.5907 10.4065C46.4893 10.5075 46.3879 10.6085 46.2864 10.7096C46.2864 10.8106 46.1851 10.8106 46.1851 10.9116C46.1851 10.9116 46.0837 11.0126 46.0837 11.0126C45.9823 11.1137 45.9823 11.1137 45.8809 11.2147C45.8809 11.2147 45.7794 11.3158 45.7794 11.3158C45.6781 11.4168 45.6781 11.5178 45.5767 11.5178C45.5767 11.5178 45.5767 11.5178 45.5767 11.6188C45.5767 11.6188 45.5767 11.6188 45.5767 11.7199C45.0698 11.1137 44.6642 10.5075 44.0558 10.1033C41.4196 7.88061 37.3638 6.76925 35.9442 3.43515C36.4512 4.54652 35.133 6.56718 34.6261 7.47648C33.8149 8.99198 32.9025 10.5075 32.1926 12.124C32.0913 12.023 31.9899 11.8209 31.8885 11.7199C31.5843 11.3158 31.2802 10.9116 30.8745 10.7096C28.9481 9.29508 26.3118 10.3054 24.0812 11.2147C21.0393 12.4271 18.0989 14.0436 14.7528 14.2458C14.6514 14.2458 16.5779 18.4892 16.8822 18.7922C16.9836 18.8932 16.9836 18.8932 17.0849 18.9943C15.5641 19.0954 14.1445 19.3984 12.9278 19.9035C10.4943 20.8129 9.68315 22.7325 7.85806 24.3491C6.94551 25.2584 5.83017 25.6625 4.51205 25.5615C5.62739 28.2894 9.58176 30.007 12.3194 30.4111C16.4766 31.0173 21.6476 29.6028 23.8784 25.9655C24.284 25.1574 24.5881 24.3491 24.6895 23.4398C24.6895 23.1367 24.6895 22.9345 24.6895 22.6315C27.123 22.9345 29.6579 22.5305 31.6856 21.2171C32.0913 20.9139 32.4968 20.6108 32.801 20.2066C33.4094 21.0149 34.2206 21.6212 35.2345 22.0252C36.5527 22.5305 38.0736 22.6315 39.493 22.6315C40.1534 22.6315 40.9126 22.5305 41.6223 22.4295C43.5489 22.2274 45.5767 21.6212 46.6921 20.1056C48.5172 21.2171 51.1534 21.4191 53.3841 21.2171C53.2826 21.6212 53.2826 21.9242 53.3841 22.2274C53.8911 25.6625 59.3662 28.0872 62.2053 28.8955C65.45 29.8048 68.9987 29.9058 71.9391 28.2894C73.8656 27.2791 75.3865 25.4604 75.7945 23.4398C75.8935 24.1469 72.7503 23.2376 72.2433 23.0357"/>
	<path fill="#2D1B0A" d="M14.4487 31.4214C13.7389 31.4214 13.0291 31.4214 12.4208 31.3204C9.68313 30.9163 5.22178 29.0977 3.80227 25.8646L3.1939 24.3491L4.81621 24.4501C5.83015 24.5512 6.6413 24.2481 7.35106 23.5408C7.85803 23.0357 8.365 22.5305 8.77058 22.0253C9.78452 20.8129 10.8999 19.6005 12.7249 18.8933C13.6375 18.5902 14.55 18.2871 15.564 18.085C14.7528 16.6706 13.7389 14.3468 13.9417 13.7406C17.0849 13.0334 19.2142 12.1241 21.5462 11.1137C22.256 10.8106 23.0672 10.5075 23.7769 10.2044C26.0076 9.29513 29.1508 8.18376 31.5843 9.90133C31.7871 10.0024 31.8885 10.1034 31.9898 10.3055C32.3954 9.4972 32.801 8.68893 33.308 7.9817L34.0177 6.7693C34.9303 5.2538 35.2345 4.3445 35.1331 3.94037L36.9582 3.1321C37.7693 5.05173 39.6958 6.1631 41.6223 7.3755C42.6362 7.9817 43.7516 8.68893 44.7655 9.39616C45.0697 9.59823 45.2725 9.90133 45.5767 10.1034C45.6781 10.0024 45.7795 9.90133 45.8808 9.8003C47.3004 8.38583 49.4296 7.6786 51.8631 7.77963C53.6882 7.77963 55.4119 8.2848 57.0342 8.68893C59.9746 9.4972 62.4081 10.0024 64.8416 10.4065L67.1736 10.8106L65.6527 12.2251C65.4499 12.4272 65.3485 12.5282 65.1457 12.7303C64.8416 13.0334 64.7402 13.1344 64.6388 13.2354C64.436 13.4375 64.3346 13.6396 64.1318 13.7406C63.929 14.0437 63.7262 14.2458 63.6248 14.4478C63.422 14.6499 63.3206 14.852 63.2192 15.054C64.8416 16.1654 66.3625 17.5799 67.6806 18.8933C67.9848 19.1964 68.3904 19.6005 68.6945 19.9036C69.8099 20.914 71.0266 21.6212 72.3447 22.2274C72.8517 22.4295 74.6768 22.9346 75.1838 22.7326C75.0824 22.7326 74.8796 22.9346 74.7782 23.2377L76.8061 23.6419C76.2991 25.9656 74.6768 27.9863 72.4461 29.1987C69.5057 30.7142 65.7541 31.0173 61.9011 29.9059C58.5551 28.9966 52.877 26.3698 52.2687 22.4295C52.2687 22.4295 52.2687 22.3284 52.2687 22.3284C50.2408 22.4295 48.3143 22.1264 46.7934 21.4191C45.6781 22.4295 43.9544 23.1367 41.6223 23.4398C40.9125 23.5408 40.2028 23.5408 39.3916 23.6419C37.4651 23.6419 36.0456 23.4398 34.7275 22.9346C33.9163 22.6315 33.2066 22.1264 32.5982 21.6212C32.3954 21.7222 32.294 21.8233 32.0912 22.0253C30.2661 23.2377 28.0355 23.8439 25.5006 23.7429C25.3992 24.7532 25.095 25.6625 24.5881 26.4708C22.763 30.007 18.3016 31.4214 14.4487 31.4214M6.43851 26.2687C7.85803 27.8853 10.4943 28.9966 12.6236 29.2997C16.1724 29.8049 21.0393 28.7946 23.1686 25.2584C23.5741 24.6522 23.7769 23.945 23.7769 23.2377C23.7769 23.0357 23.7769 22.8336 23.7769 22.6315L23.6755 21.4191L24.8923 21.5202C27.2243 21.8233 29.455 21.3181 31.1787 20.2067C31.5843 20.0047 31.8885 19.7016 32.0912 19.3985L33.6122 19.4995C34.1191 20.2067 34.8289 20.7119 35.64 21.015C36.654 21.4191 37.8707 21.6212 39.493 21.5202C40.2028 21.5202 40.8111 21.4191 41.5209 21.4191C43.6502 21.116 45.1711 20.5098 45.9822 19.4995L47.3004 19.2974C48.7199 20.2067 50.9506 20.5098 53.384 20.2067L54.7021 20.0047L54.4993 21.3181C54.4993 21.6212 54.4993 21.8233 54.4993 22.0253C54.9049 24.7532 59.6705 26.976 62.6109 27.8853C65.9569 28.7946 69.2015 28.5925 71.635 27.3801C72.8517 26.7739 73.8656 25.7636 74.474 24.6522C73.1559 24.4501 71.8378 23.945 71.8378 23.945C70.3168 23.2377 68.8973 22.3284 67.6806 21.2171C67.275 20.914 66.9708 20.5098 66.5653 20.2067C65.0443 18.7923 63.7262 17.3778 61.7997 17.0747C61.6983 17.0747 61.5969 17.0747 61.3942 16.9737L59.6705 16.7716L60.583 15.3571C60.7858 15.1551 60.8872 14.852 61.09 14.6499C61.7997 13.5385 62.0025 13.3365 62.1039 13.1344C62.3067 12.8313 62.4081 12.6292 62.6109 12.4272C62.8137 12.1241 62.9151 12.023 63.1179 11.821C61.09 11.4168 59.1635 11.0127 57.1356 10.5075C54.9049 9.90133 53.384 9.4972 51.7617 9.4972C50.6464 9.4972 48.6185 9.59823 47.199 10.9117C47.0976 11.0127 47.0976 11.0127 46.9962 11.1137C46.4892 11.7199 46.4892 11.7199 46.4892 11.821L45.6781 13.0334L44.7655 11.922C44.3599 11.3158 43.853 10.8106 43.4474 10.5075C42.6362 9.8003 41.6223 9.1941 40.6083 8.5879C39.1888 7.77963 37.6679 6.87033 36.5526 5.65793C36.2484 6.26413 35.9442 6.7693 35.7414 7.27447L35.0317 8.48686C34.3219 9.69926 33.7135 10.9117 33.2066 12.1241L32.4968 13.9427L31.3815 12.3261C31.2801 12.2251 31.1787 12.023 31.1787 11.922C30.9759 11.6189 30.6717 11.3158 30.3675 11.1137C28.948 10.1034 26.8187 10.8106 24.4867 11.7199C23.7769 12.023 23.0672 12.3261 22.3574 12.6292C20.4309 13.4375 18.403 14.3468 16.2737 14.6499C16.7807 15.7613 17.5919 17.4788 17.7947 17.7819L19.3156 19.3985L17.1863 19.6005C15.7668 19.7016 14.4487 20.0047 13.3333 20.4088C11.9138 21.015 11.1026 21.9243 10.1901 23.0357C9.68313 23.5408 9.27755 24.147 8.66919 24.7532C8.06082 25.5615 7.24967 26.0667 6.43851 26.2687"/>
	<path fill="#FF4557" d="M38.834 84.6499C39.4522 84.8519 40.0507 84.953 40.659 85.0818C44.0051 85.3571 46.8441 83.1344 49.1762 80.6085C53.2318 76.062 56.375 70.6062 59.417 65.0494C63.7769 57.0678 68.1368 48.2779 67.9408 38.7808C67.9408 37.2653 67.7312 35.7498 67.2243 34.3353C63.7769 24.434 54.6514 21.403 46.4384 19.6855C39.5437 18.271 32.3447 18.9625 25.6527 21.403C20.4816 23.3227 15.4118 26.6568 12.7756 32.2136C10.7477 36.6591 10.5449 42.1149 11.5589 47.0655C12.5728 52.0221 14.8035 56.5626 17.2369 60.806C21.5969 68.2825 26.7681 74.9507 32.6488 80.8106C34.3726 82.4271 36.5019 83.9426 38.834 84.6499"/>
	<path fill="#2D1B0A" d="M41.3784 86.0803C41.0743 86.0803 40.8715 86.0803 40.5674 86.0803C39.8577 85.9793 39.2809 85.8783 38.5397 85.6763C35.7011 84.8682 33.3693 82.949 31.8486 81.5348C25.8671 75.6762 20.5953 68.9085 16.236 61.3328C13.1946 55.9792 11.3697 51.7368 10.4573 47.3933C9.2407 41.7368 9.804 36.2822 11.7752 31.9388C14.7153 25.5751 20.6967 22.2418 25.1575 20.5246C32.1528 17.964 39.5536 17.2923 46.4474 18.7064C55.0648 20.5246 64.4932 23.6559 68.0415 34.06C68.4471 35.3731 68.7577 36.8883 68.7577 38.8075C68.954 48.6055 64.3918 57.7974 60.1338 65.5752C57.1938 70.9287 53.9496 76.5853 49.793 81.3328C47.0557 84.4641 44.2171 86.0803 41.3784 86.0803M39.148 20.0196C34.7887 20.0196 30.2265 20.8276 25.9685 22.4438C21.8119 23.959 16.3374 26.9893 13.7015 32.7469C11.8766 36.6863 11.4711 41.7368 12.5863 46.8883C13.4987 51.0297 15.1208 55.1711 18.1622 60.3227C22.4202 67.6964 27.5906 74.3631 33.3693 80.0197C34.6873 81.3328 36.7149 82.949 39.2809 83.656C39.7563 83.8581 40.3646 83.9591 40.8715 83.9591C43.3046 84.2621 45.7378 82.949 48.4751 79.8177C52.5303 75.2722 55.6731 69.7166 58.6131 64.4641C62.9725 56.5853 67.1291 47.9994 67.0277 38.7065C67.0277 36.9893 66.825 35.6762 66.4195 34.565C63.1753 25.1711 54.4565 22.2418 46.3461 20.5246C43.9129 20.2216 41.5812 20.0196 39.148 20.0196"/>
	<path fill="#F88" d="M22.297 44.7682C22.312 45.9398 21.371 46.9019 20.1951 46.9171C19.0193 46.9319 18.0386 45.9943 18.0386 44.8226C18.0386 43.651 18.9646 42.6737 20.1405 42.6737C21.3163 42.6737 22.2818 43.5965 22.297 44.7682"/>
	<path fill="#F88" d="M35.6808 36.9891C35.6958 38.1607 34.7548 39.1228 33.5789 39.138C32.4031 39.1528 31.4224 38.2152 31.4224 37.0435C31.4224 35.8719 32.3484 34.8946 33.5243 34.8946C34.7001 34.8946 35.6656 35.8174 35.6808 36.9891"/>
	<path fill="#F88" d="M32.437 56.3864C32.452 57.558 31.511 58.5201 30.3351 58.5353C29.1593 58.5501 28.1786 57.6125 28.1786 56.4408C28.1786 55.2692 29.1046 54.2919 30.2805 54.2919C31.4563 54.2919 32.4218 55.2147 32.437 56.3864"/>
	<path fill="#F88" d="M51.904 54.8716C51.919 56.0432 50.978 57.0053 49.8021 57.0205C48.6263 57.0353 47.6456 56.0977 47.6456 54.926C47.6456 53.7544 48.5716 52.7771 49.7475 52.7771C50.9233 52.7771 51.8888 53.6999 51.904 54.8716"/>
	<path fill="#F88" d="M44.2988 68.7125C44.3138 69.8841 43.3728 70.8462 42.1969 70.8614C41.0211 70.8762 40.0404 69.9386 40.0404 68.7669C40.0404 67.5953 40.9664 66.618 42.1423 66.618C43.3181 66.618 44.2836 67.5408 44.2988 68.7125"/>
	<path fill="#F88" d="M45.82 43.9728C45.835 45.1444 44.894 46.1065 43.7181 46.1217C42.5423 46.1365 41.5616 45.1989 41.5616 44.0272C41.5616 42.8556 42.4876 41.8783 43.6635 41.8783C44.8393 41.8783 45.8048 42.8011 45.82 43.9728"/>
	<path fill="#F88" d="M60.826 40.7267C60.841 41.8983 59.9 42.8604 58.7241 42.8756C57.5483 42.8904 56.5676 41.9528 56.5676 40.7811C56.5676 39.6095 57.4936 38.6322 58.6695 38.6322C59.8453 38.6322 60.8108 39.555 60.826 40.7267"/>
</svg>
