<?xml version="1.0" encoding="utf-8" ?>
<svg xmlns="http://www.w3.org/2000/svg" xmlns:xlink="http://www.w3.org/1999/xlink" width="80" height="78">
	<path fill="white" d="M36.5683 78C33.6846 78 30.9003 77.6985 28.116 77.0954C20.7576 75.3866 13.6976 71.366 8.22848 65.7371C4.3504 61.7165 1.76502 57.3943 0.671205 53.0722C0.47233 52.3686 0.372892 51.6649 0.273454 50.9613C-0.124297 47.8454 0 45.0309 0.174016 42.9201C0.47233 37.0902 1.26783 31.3608 2.46109 25.8325C3.45546 21.2088 4.84759 16.2835 7.73129 12.0619C9.72005 8.14175 12.6037 5.02577 16.1835 3.01546C19.5644 1.00515 23.6413 0 28.116 0C29.8065 0 31.5964 0.201031 33.3862 0.502577C39.1536 1.50773 44.3244 4.02062 48.6997 6.23196C56.0581 10.0515 65.3058 15.4794 71.8687 24.0232C72.5647 24.9278 73.1614 25.8325 73.758 26.7371C79.0282 34.8789 81.1164 43.6237 79.426 50.7603C78.3321 55.5851 75.349 60.0077 71.0732 63.1237C65.7035 68.1495 59.9361 71.9691 53.9699 74.482C48.3019 76.6933 42.3356 78 36.5683 78"/>
	<path fill="#72552F" d="M3.16205 42.5178C3.46039 36.889 4.25599 31.3606 5.44938 25.9328C6.44387 21.4096 7.73671 16.9869 10.2229 13.1673C9.82515 13.6699 39.461 34.4767 42.1462 36.3865C47.6159 40.2061 53.0856 43.7957 58.6547 47.5437C61.4393 49.353 64.2239 51.1622 67.0085 52.9715C68.3013 53.7756 69.7931 54.5798 70.9865 55.4844C71.4837 55.9869 71.8815 56.2885 72.0193 56.59C72.1798 57.1931 71.5831 57.6958 70.6881 58.6003C65.5167 63.7267 59.4503 68.2498 52.7872 71.0642C45.3285 74.1803 36.7759 75.3865 28.9194 73.5771C21.958 71.9688 15.4938 68.1493 10.5213 63.0231C7.43837 59.8065 4.85269 55.9869 3.75874 51.6647C3.55984 50.9612 3.46039 50.2575 3.36095 49.554C3.36095 49.554 3.36095 49.4534 3.36095 49.4534C3.0314 47.2421 3.0314 44.8298 3.16205 42.5178"/>
	<path fill="#2D1B0A" d="M36.5513 75.3865C33.8657 75.3865 31.1801 75.0848 28.5939 74.4818C21.6311 72.8736 14.8673 69.0539 9.69494 63.6262C6.01461 59.9071 3.62738 55.8865 2.6327 51.8659C2.43376 51.2628 2.33429 50.5592 2.23482 49.7551C1.83695 46.9406 1.9968 44.3271 2.13535 42.3168C2.43376 36.5874 3.2295 30.9586 4.42312 25.5308C5.4178 21.2086 6.61142 16.6854 9.09813 12.7653C9.19759 12.4638 9.29706 12.4638 9.29706 12.3632L10.8885 13.4689C11.187 13.0669 11.0875 12.5643 10.8885 12.3632C12.0822 13.7705 33.1694 28.6468 42.6189 35.2808C48.0896 39.1003 53.6599 42.8195 59.1306 46.438C60.5232 47.3427 61.9157 48.2472 63.3083 49.152C64.7008 50.0565 66.0934 50.9612 67.4859 51.8659C67.9833 52.1674 68.4806 52.469 68.978 52.7705C69.8732 53.2731 70.7684 53.8762 71.5641 54.4793C72.3599 55.1828 72.7578 55.5849 72.9567 56.188C73.3546 57.2937 72.4593 58.0978 71.5641 59.0024C65.6955 64.9328 59.5285 69.1544 53.0631 71.8684C47.6918 74.2807 42.0221 75.3865 36.5513 75.3865M4.22419 49.353C4.32365 50.2575 4.42312 50.9612 4.62206 51.4637C5.51727 55.1828 7.70557 58.8013 11.0875 62.3195C16.0609 67.4457 22.4269 71.0642 28.9918 72.5721C36.2529 74.2807 44.6083 73.3762 52.2673 70.1596C58.4343 67.5462 64.4024 63.4252 69.8732 57.8968C70.3705 57.3941 70.6689 57.0927 70.8679 56.8917C70.7684 56.791 70.47 56.4896 70.271 56.389C69.3758 55.8865 68.5801 55.2834 67.7843 54.7808C67.287 54.4793 66.7897 54.1777 66.2923 53.8762C64.8998 52.9715 63.5072 52.0669 62.1147 51.1623C60.7221 50.2575 59.3295 49.353 57.937 48.4483C52.4662 44.8298 46.7966 41.1106 41.4253 37.291C19.7412 22.1133 12.679 16.7859 10.2917 14.7756C8.20291 18.2937 7.10876 22.3143 6.21355 26.2344C5.01993 31.4612 4.32365 36.9896 3.92578 42.6185C3.92578 44.4277 3.82631 46.9406 4.22419 49.353"/>
	<path fill="#A0B523" d="M71.2852 27.8426C70.6886 26.9379 69.9924 26.0333 69.3958 25.2292C63.6277 17.791 55.5723 12.6647 47.318 8.34257C42.6438 6.03071 37.9697 3.81937 32.7983 2.91473C27.7264 2.01009 22.1573 2.4995 17.6821 5.12607C13.3063 7.63896 10.2234 12.1622 8.83111 16.9869C7.43882 21.9122 7.73717 27.139 9.22891 32.0642C11.3173 39.2008 15.7926 45.4328 21.4612 50.2575C27.0303 55.0823 33.6935 58.4998 40.6549 61.1132C47.0196 63.425 53.981 65.0333 60.6441 63.9276C68.0034 62.6209 74.8654 57.1931 76.556 49.6544C78.1472 42.2163 75.3627 34.0745 71.2852 27.8426"/>
	<path fill="#2D1B0A" d="M55.8514 65.1338C51.1772 65.1338 46.1053 64.0281 40.2378 61.9173C32.4808 59.0023 25.9171 55.3838 20.7458 50.8605C14.5799 45.5332 10.3036 39.1003 8.21515 32.1647C6.62397 26.7369 6.52452 21.309 7.81736 16.5849C9.3091 11.2575 12.6904 6.63379 17.1656 4.1209C21.5414 1.60801 27.1105 0.80389 32.978 1.80904C38.4477 2.8142 43.5196 5.12605 47.796 7.33739C54.9563 11.0565 63.9067 16.3837 70.2715 24.5256C70.8682 25.3297 71.4649 26.2344 72.161 27.139C77.0341 34.6777 79.023 42.9198 77.5313 49.5538C75.8407 57.0925 69.0781 63.2239 60.8238 64.6312C59.1332 65.0332 57.542 65.1338 55.8514 65.1338M28.105 3.41729C24.4254 3.41729 21.0441 4.22142 18.1601 5.93018C14.1821 8.24203 11.0992 12.3631 9.70689 17.188C8.5135 21.6105 8.61295 26.6364 10.1047 31.6621C12.0937 38.1956 16.1711 44.327 22.0386 49.3529C27.0111 53.675 33.3758 57.1931 40.934 60.0075C48.691 62.8219 54.8569 63.7266 60.426 62.7215C67.9842 61.4147 74.0506 55.9869 75.5423 49.1519C76.9346 43.0204 75.0451 35.3812 70.4704 28.2446C69.8737 27.34 69.1776 26.4354 68.6803 25.6313C62.6139 17.791 53.8624 12.6648 46.9009 9.04616C42.7241 6.93533 37.851 4.62348 32.6797 3.71884C31.0885 3.51781 29.4973 3.41729 28.105 3.41729"/>
	<path fill="#FFFE7F" d="M50.3816 40.6081C50.3816 39.7035 50.3816 38.7988 50.481 37.7937C50.9783 37.6932 51.3761 37.6932 51.7739 37.4921C51.6744 37.3916 50.5805 36.2859 50.5805 36.3865C51.2766 35.1803 51.2766 33.6725 50.8788 32.3658C50.1827 30.3555 48.6909 28.6468 46.9008 27.6416C45.0113 26.6365 42.9229 26.2344 40.8344 26.2344C38.5471 26.3349 36.0609 26.938 34.5691 28.7473C32.3812 31.2602 32.6796 35.4818 34.9669 37.8942C37.2543 40.3066 41.0333 41.0102 44.2157 40.005C44.8124 39.804 45.5086 39.5024 46.1052 39.4019C47.4975 39.3014 48.9893 40.005 50.3816 40.6081"/>
	<path fill="#BED60F" d="M51.3761 15.9818C51.6744 15.7807 52.0722 15.6802 52.47 15.8813C53.1662 16.2833 53.0667 17.0874 52.7683 17.6905C52.47 18.1931 47.7959 26.4354 46.5031 27.2395C46.4035 27.34 46.3041 27.34 46.3041 27.34C45.608 26.938 50.4809 17.2885 50.7794 16.6854C50.8787 16.2833 51.1772 16.0823 51.3761 15.9818M58.8348 22.3142C59.4314 21.9122 60.2271 21.7112 60.7243 22.3142C61.2215 22.8168 60.8238 23.5204 60.2271 23.822C59.6303 24.224 50.0832 30.255 49.4865 29.6519C48.9893 29.2498 58.2381 22.7163 58.8348 22.3142M41.9284 12.4637C42.1273 12.3632 42.3261 12.2627 42.4256 12.3632C43.2211 12.5642 43.5196 13.3684 43.5196 13.9715C43.5196 14.6751 43.2211 25.4302 42.4256 25.8323C41.63 25.6313 41.3317 14.1725 41.3317 13.4689C41.5306 13.1673 41.63 12.6648 41.9284 12.4637M51.7738 32.8684C52.9673 32.0642 63.6083 30.0539 64.3045 29.9534C65.0005 29.7524 65.9951 29.9534 66.2934 30.5565C66.4924 30.9586 66.3929 31.1596 65.9951 31.3606C65.6967 31.5617 65.3983 31.6622 65.1001 31.6622C64.4039 31.7627 51.9728 33.572 51.6744 32.8684C51.6744 32.9689 51.6744 32.8684 51.7738 32.8684M32.3812 12.1622C32.4807 12.0303 32.5801 12.0303 32.6796 12.0303C33.3757 11.8606 33.9724 12.6648 34.2708 13.3684C34.5691 14.072 39.2432 25.3297 38.6465 25.7318C37.9504 25.8323 32.6796 14.3735 32.3812 13.6699C32.1189 13.1673 31.9834 12.4637 32.3812 12.1622M52.47 36.4869C53.1662 35.9843 65.6967 38.1957 66.4924 38.3967C67.2879 38.5977 68.183 38.9998 68.183 39.6029C68.183 39.8039 68.0835 40.005 67.8847 40.1055C67.5863 40.3065 66.9895 40.3065 66.4924 40.206C65.6967 40.005 52.47 37.09 52.47 36.4869M51.6744 39.6029C52.1716 39.2008 64.3045 45.6338 65.0005 46.0359C65.7962 46.438 66.4924 47.1416 66.194 47.6441C66.194 47.7447 66.0946 47.8452 65.9951 47.8452C65.5973 48.1467 64.8017 47.9457 64.205 47.5436C63.5089 47.1416 51.3761 40.206 51.6744 39.6029"/>
	<path fill="#BED60F" d="M49.467 42.0084C49.9838 41.7138 59.5309 51.3633 60.1276 51.9664C60.7243 52.5695 61.1221 53.3736 60.5254 53.7757C60.0282 54.1777 59.2326 53.5746 58.6359 53.072C58.1386 52.3685 48.9893 42.3169 49.467 42.0084"/>
	<path fill="#BED60F" d="M46.1521 43.2189C46.9009 43.0205 52.1717 54.5797 52.47 55.2833C52.7684 55.8864 52.8678 56.4895 52.3706 56.7911C52.2711 56.8916 52.1717 56.8916 52.0722 56.8916C51.3761 57.0926 50.7794 56.2885 50.481 55.5849C50.2822 54.9818 45.608 43.6236 46.1521 43.2189"/>
	<path fill="#BED60F" d="M42.3262 43.121C42.3262 43.121 42.4257 43.121 42.4257 43.0205C43.1218 43.2215 43.4201 54.6803 43.4201 55.3839C43.3207 55.8865 43.2213 56.3891 42.9229 56.5901C42.724 56.6906 42.6245 56.7911 42.3262 56.6906C41.5306 56.4896 41.2323 55.6854 41.2323 55.0824C41.2323 54.3787 41.5306 43.6236 42.3262 43.121"/>
	<path fill="#BED60F" d="M38.3483 41.8143C38.4477 41.7137 38.5472 41.7137 38.5472 41.7137C39.2433 42.1158 34.3703 51.7653 34.072 52.3683C33.8731 52.6699 33.6742 52.8709 33.4753 52.9715C33.1769 53.1815 32.7791 53.273 32.3813 53.0719C31.6852 52.6699 31.8554 51.8658 32.083 51.2627C32.4808 50.8607 37.1549 42.6184 38.3483 41.8143"/>
	<path fill="#BED60F" d="M24.6243 45.1313C25.221 44.7293 34.7681 38.6983 35.3647 39.2591C35.8621 39.9045 26.6132 46.3375 26.116 46.7396C25.5193 47.1416 24.7237 47.3427 24.127 46.7396C23.5303 46.1365 24.0276 45.5334 24.6243 45.1313"/>
	<path fill="#BED60F" d="M24.3259 15.2782C24.8231 14.8761 25.6187 15.4792 26.2154 15.9818C26.8121 16.5849 35.9614 26.6365 35.3647 26.938C34.7681 27.34 25.3204 17.5901 24.7237 16.987C24.127 16.3839 23.8286 15.6803 24.3259 15.2782M18.8562 21.2086C19.254 20.9071 20.0496 21.1081 20.6463 21.5102C21.3424 21.9122 33.5746 28.8478 33.1768 29.4509C32.5801 29.853 20.5468 23.5205 19.8507 23.0179C19.0551 22.6158 18.3589 21.9122 18.6573 21.4097C18.6573 21.3091 18.7567 21.3091 18.8562 21.2086M16.8672 29.0489C17.1655 28.8478 17.7622 28.8478 18.3589 28.9484C19.1545 29.1493 32.3812 31.9638 32.3812 32.5668C31.5856 33.17 19.0551 30.9587 18.2595 30.7575C17.4639 30.5566 16.5688 30.1544 16.5688 29.5515C16.5688 29.3503 16.5688 29.1493 16.8672 29.0489M18.8562 37.5927C19.1545 37.3917 19.4529 37.291 19.7512 37.291C20.4474 37.1906 32.8785 35.3814 33.1768 36.085C33.1768 36.1855 33.1768 36.1855 33.0774 36.2859C31.884 37.09 21.243 39.1003 20.5468 39.2009C19.8507 39.402 18.8562 39.2009 18.5578 38.5977C18.3589 37.9948 18.4584 37.7936 18.8562 37.5927"/>
	<path fill="#2B1600" d="M33.6742 19.0979C33.7736 18.9973 33.8731 18.9973 33.9725 18.8968C34.7681 18.6958 35.7626 19.6004 36.1604 20.4046C36.5582 21.2087 36.4588 22.0128 35.9615 22.5154C35.0665 22.3143 34.1714 21.8118 33.7736 21.0076C33.4753 20.4046 33.2764 19.4999 33.6742 19.0979M28.6023 21.6107C29.199 21.1082 30.3924 21.8118 31.0885 22.4149C31.7846 23.018 32.083 23.8221 31.8841 24.5257C31.0885 24.6262 30.094 24.3247 29.3979 23.7216C28.8012 23.1185 28.105 22.1133 28.6023 21.6107M54.2602 38.3969C54.9563 37.9948 55.8514 37.9948 56.7464 38.2963C57.6415 38.6983 58.7354 39.5024 58.4371 40.2061C58.3376 40.3066 58.3376 40.4072 58.2382 40.4072C57.8404 40.8092 56.7464 40.6081 55.9508 40.2061C55.0558 39.9045 54.4591 39.201 54.2602 38.3969M51.774 41.7138C52.5695 41.6133 53.6635 41.9148 54.2602 42.5179C54.9563 43.121 55.6525 44.1263 55.0558 44.6287C54.4591 45.0308 53.2657 44.4277 52.5695 43.8246C51.9728 43.2215 51.5751 42.4174 51.774 41.7138M30.989 40.4072C31.5858 39.9045 32.5802 39.804 33.3758 40.1055C33.6742 40.8092 33.5747 41.6133 32.8786 42.1158C32.2819 42.6184 31.0885 43.0205 30.4918 42.4174C29.8951 41.8143 30.3924 40.9097 30.989 40.4072M50.7795 24.2241C51.3762 23.7216 52.5695 23.219 53.1662 23.9226C53.8624 24.5257 53.3651 25.4303 52.669 25.9329C52.0723 26.4355 51.0778 26.536 50.2822 26.2345C50.0833 25.5308 50.1828 24.7267 50.7795 24.2241M24.7237 31.0591C25.1215 30.7576 25.9171 30.6572 26.6133 30.6572C27.6078 30.7576 28.4034 31.2603 28.9006 31.9638C28.8012 32.1648 28.7017 32.2654 28.5028 32.3658C28.105 32.7679 27.4089 32.8685 26.7127 32.8685C25.7182 32.7679 24.4254 32.3658 24.4254 31.5617C24.4254 31.3607 24.6243 31.1597 24.7237 31.0591M55.2547 33.8736C55.6525 33.572 56.2492 33.371 57.0448 33.371C58.0393 33.4715 59.3592 33.8736 59.3592 34.6777C59.4315 34.8787 59.2326 35.0798 59.1332 35.1804C58.7354 35.4818 57.9398 35.5824 57.2437 35.5824C56.2492 35.4818 55.4536 34.9793 54.9563 34.2757C54.9563 34.1751 55.0558 33.9741 55.2547 33.8736M42.4257 44.4277C42.6246 44.3272 42.7241 44.2267 42.923 44.1263C43.7186 44.5283 44.3153 45.3324 44.3153 46.1366C44.4147 46.639 44.2158 47.3428 43.818 47.6442C43.6191 47.7448 43.4202 47.8452 43.2213 47.8452C42.4257 47.7448 41.829 46.639 41.829 45.8349C41.7296 45.2318 42.0279 44.7293 42.4257 44.4277M39.84 18.5953C40.0389 18.4948 40.2378 18.3942 40.4367 18.3942C41.3318 18.4948 41.829 19.6004 41.9285 20.4046C42.0279 21.0076 41.7296 21.5102 41.3318 21.8118C41.2323 22.0128 41.0334 22.1133 40.8345 22.1133C40.0389 21.7113 39.4422 20.9071 39.3428 20.103C39.3428 19.6004 39.5417 18.8968 39.84 18.5953M47.796 43.7242C48.691 43.9251 49.5861 44.4277 49.9839 45.2318C50.3817 45.8349 50.5806 46.8401 50.1828 47.2421C50.0833 47.3428 49.9839 47.3428 49.8844 47.3428C49.0888 47.5437 48.0943 46.639 47.6965 45.8349C47.1993 45.0308 47.2987 44.2267 47.796 43.7242M26.7127 36.286C27.0111 36.0849 27.4089 35.8839 27.8067 35.7834C28.6023 35.5824 29.5968 35.7834 30.2929 36.286C30.1935 36.7886 29.9946 37.0901 29.6962 37.4921C29.4973 37.6932 29.199 37.7937 28.9006 37.8942C28.105 38.0952 26.8122 38.0952 26.4144 37.3916C26.116 36.889 26.3149 36.5875 26.7127 36.286M54.0613 28.8478C54.2602 28.6468 54.5585 28.5463 54.8569 28.4457C55.6525 28.2448 56.9453 28.2448 57.3431 28.9483C57.542 29.3504 57.4426 29.7524 57.0448 30.054C56.7464 30.3555 56.3486 30.4562 55.9508 30.5566C55.0558 30.7576 54.0613 30.5566 53.3651 30.054C53.4646 29.5514 53.7629 29.1494 54.0613 28.8478M25.5193 25.8324C26.0166 25.4303 27.1105 25.6314 27.8067 26.0334C28.7017 26.4355 29.2984 27.1391 29.4973 27.9432C28.9006 28.3453 27.9061 28.3453 27.0111 28.0437C26.116 27.6417 25.0221 26.8375 25.3204 26.1339C25.3204 25.9329 25.4199 25.9329 25.5193 25.8324M36.4588 43.322C36.8566 43.0205 37.3538 42.8195 37.8511 42.8195C38.4477 43.4226 38.6466 44.3272 38.3483 45.0308C38.2488 45.3324 37.9505 45.7345 37.7516 45.9354C37.3538 46.237 36.956 46.3375 36.4588 46.1366C35.6632 45.7345 35.6632 44.6287 35.9615 43.9251C36.061 43.7242 36.2599 43.5231 36.4588 43.322M46.1053 20.4046C46.4037 20.103 46.8015 19.902 47.3982 20.2035C48.1938 20.6056 48.1938 21.7113 47.8954 22.4149C47.796 22.7164 47.5971 22.9174 47.3982 23.018C47.0004 23.3195 46.5031 23.5205 46.0059 23.5205C45.4092 22.9174 45.2103 22.0128 45.5086 21.3092C45.5086 21.0076 45.807 20.6056 46.1053 20.4046"/>
</svg>
