<?xml version="1.0" encoding="utf-8" ?>
<svg xmlns="http://www.w3.org/2000/svg" xmlns:xlink="http://www.w3.org/1999/xlink" width="82" height="82">
	<path fill="white" d="M80.4977 20.9297C80.097 20.4242 76.2911 16.1776 71.684 16.1776C71.4837 16.1776 71.1832 16.1776 70.9829 16.1776C71.1832 15.0654 71.1832 13.9531 70.9829 12.7398C70.0815 5.96547 63.5714 1.61776 63.2709 1.41554L61.0675 0L59.3649 1.92109C59.1646 2.1233 54.0566 8.08878 54.958 14.8631C55.0582 15.4698 55.1584 15.9753 55.3587 16.582C53.4557 16.1776 51.4526 15.9753 49.3493 15.9753C43.1397 15.9753 36.9301 17.7953 32.9238 20.9297C26.8144 25.5808 24.3105 31.2429 21.9068 36.7028C20.4044 40.1406 18.8019 43.6794 16.2981 47.1171C12.5923 52.1726 7.78484 55.5092 4.37956 57.4303C2.37645 58.5425 0.874119 60.5647 0.273187 62.8903C-0.327746 65.2158 0 67.5413 1.3749 69.5635C6.28251 77.2478 17.9005 82 31.722 82C51.7531 82 72.7857 71.9901 74.5885 49.6449C75.2896 42.4661 74.6887 36.3995 72.7857 31.344C72.7857 31.344 72.7857 31.344 72.8859 31.344C77.9938 30.6363 80.7981 24.873 81.1988 24.2663L82 22.4464L80.4977 20.9297"/>
	<path fill="#FFDA24" d="M71.1851 48.9935C68.5815 83.3708 14.8076 85.2919 3.49202 67.5977C1.78968 64.8677 2.63095 61.3289 5.49477 59.8122C9.09973 57.7901 14.3069 54.1501 18.3124 48.6678C25.1217 39.4892 25.2219 30.1871 34.4346 23.1094C44.7488 15.2229 74.6898 14.9195 71.1851 48.9935"/>
	<path fill="#2D1B0A" d="M31.4261 79.624C18.8074 79.624 7.29026 75.3774 2.68341 68.0975C1.64435 66.5809 1.38148 64.7609 1.88222 63.042C2.28282 61.3232 3.48461 59.8065 4.98684 58.8965C8.49205 56.8743 13.5997 53.3355 17.5055 48.0778C20.2094 44.4378 21.8118 40.7979 23.4142 37.259C25.8179 31.7991 28.1213 26.6425 33.8298 22.2948C40.0389 17.5426 52.2571 15.6215 61.2706 20.7782C67.1792 24.1148 73.8893 31.7991 72.1867 49.0889C71.0852 63.3453 61.1703 73.8608 44.9463 78.0063C40.5396 79.1185 35.9329 79.624 31.4261 79.624M49.0524 19.767C43.6443 19.767 38.3364 21.3848 35.0315 23.9125C29.7236 27.9569 27.5203 32.9113 25.2169 38.0679C23.6145 41.7079 21.9121 45.4489 19.1078 49.19C15.0017 54.751 9.69384 58.4921 5.98833 60.6154C4.88669 61.222 4.0855 62.2331 3.78505 63.5476C3.48461 64.7609 3.6849 65.9742 4.38595 67.0864C10.1946 76.1863 28.1213 80.1296 44.5456 75.9841C59.8684 72.1419 69.1823 62.2331 70.284 48.8867C71.8862 32.7091 65.7772 25.6314 60.3691 22.497C56.9641 20.677 52.9582 19.767 49.0524 19.767"/>
	<path fill="#59AD47" d="M67.7806 12.8915C68.4816 18.3514 64.0755 23.4069 64.0755 23.4069C64.0755 23.4069 58.4678 19.6658 57.6913 14.2059C57.0659 8.74604 61.472 3.69055 61.472 3.69055C61.472 3.69055 66.9795 7.43161 67.7806 12.8915"/>
	<path fill="#2D1B0A" d="M64.1757 24.7215C63.2744 24.0137 57.4665 20.1715 56.5719 14.3071C55.8643 8.44278 60.4706 3.18508 60.6709 2.98286L61.9727 2.88175C62.1729 3.08397 67.9809 6.92614 68.782 12.7905C69.5831 18.6549 64.9768 23.9126 64.7765 24.1148M61.5721 5.10616C60.4706 6.62281 58.1674 10.3639 58.6681 14.1049C59.1688 17.9471 62.3732 20.8793 63.8753 21.9915C64.9768 20.4748 67.28 16.7338 66.7793 12.9927C66.2786 9.15055 63.0742 6.21837 61.5721 5.10616"/>
	<path fill="#3C8929" d="M71.9864 27.9569C68.3814 28.4624 64.8766 24.3169 64.8766 24.3169C64.8766 24.3169 67.1798 19.3626 70.7847 18.8143C74.3897 18.3515 77.8945 22.497 77.8945 22.497C77.8945 22.497 75.6915 27.4513 71.9864 27.9569"/>
	<path fill="#2D1B0A" d="M71.3856 29.0691C67.5803 29.0691 64.2758 25.2269 64.0755 25.0247L63.9754 23.9125C64.0755 23.7103 66.5789 18.4526 70.6846 17.8902C74.7903 17.3404 78.5955 21.7892 78.6955 21.8903L78.7957 23.0025C78.6955 23.2047 76.1922 28.4624 72.0865 28.968C71.8862 28.968 71.686 29.0691 71.3856 29.0691M66.0782 24.1147C67.0796 25.1258 69.4829 27.2491 71.8862 26.9458C74.1895 26.6425 75.9919 23.9125 76.6928 22.6992C75.6915 21.6881 73.2882 19.5648 70.8849 19.8681C68.5817 20.2725 66.7792 22.9014 66.0782 24.1147"/>
</svg>
