<?xml version="1.0" encoding="utf-8" ?>
<svg xmlns="http://www.w3.org/2000/svg" xmlns:xlink="http://www.w3.org/1999/xlink" width="66" height="74">
	<path fill="white" d="M40.3333 74C37.8889 74 35.5463 73.6975 33.2037 72.9918C30.25 73.6975 27.8056 74 25.463 74C10.6944 74 0 54.5422 0 41.436C0 27.5232 11.4074 16.2316 25.463 16.2316C26.1759 16.2316 26.8889 16.2316 27.9074 16.3324L29.0278 16.4332L29.0278 15.3243C29.0278 11.8965 29.8426 5.44414 35.3426 1.20981L36.9722 0L41.3519 5.54496C42.9815 5.24251 44 5.14169 45.1204 5.14169C50.5185 5.14169 55.4074 7.86376 56.0185 8.16621L58.0556 9.2752L57.4444 11.4932C57.3426 11.8965 56.4259 15.4251 53.9815 18.8529L54.287 20.2643C61.6204 24.9019 66 32.8665 66 41.436C65.6944 54.6431 55.1019 74 40.3333 74"/>
	<path fill="#FF4557" d="M40.4352 19.1553C37.787 19.1553 35.3426 19.6594 33 20.4659C30.6574 19.6594 28.213 19.1553 25.5648 19.1553C13.2407 19.1553 3.1574 29.0354 3.1574 41.3351C3.1574 53.534 13.1389 70.8746 25.5648 70.8746C28.213 70.8746 30.6574 70.3706 33 69.564C35.3426 70.3706 37.787 70.8746 40.4352 70.8746C52.7593 70.8746 62.8426 53.6349 62.8426 41.3351C62.8426 29.1362 52.8611 19.1553 40.4352 19.1553"/>
	<path fill="#2D1B0A" d="M40.4352 71.883C37.8889 71.883 35.4445 71.4797 33 70.6732C30.5556 71.4797 28.0093 71.883 25.5648 71.883C12.2222 71.883 2.1389 53.3326 2.1389 41.3353C2.1389 28.5315 12.6296 18.1473 25.5648 18.1473C28.1111 18.1473 30.5556 18.5506 33 19.3571C35.4445 18.5506 37.9908 18.1473 40.4352 18.1473C53.3704 18.1473 63.8611 28.5315 63.8611 41.3353C63.8611 53.3326 53.7778 71.883 40.4352 71.883M33 68.4552C35.6482 69.3626 37.9908 69.7658 40.4352 69.7658C52.6574 69.7658 61.8241 52.4252 61.8241 41.2345C61.8241 29.5397 52.25 20.0628 40.4352 20.0628C37.9908 20.0628 35.6482 20.4661 33.3056 21.2726C30.3519 20.4661 28.0093 20.0628 25.5648 20.0628C13.75 20.0628 4.17594 29.5397 4.17594 41.2345C4.17594 52.4252 13.3426 69.7658 25.5648 69.7658C28.0093 69.7658 30.3519 69.3626 32.6945 68.556"/>
	<path fill="#2D1B0A" d="M31.6759 19.9619C31.5741 19.5586 28.8241 8.77115 36.5648 2.7221L37.787 4.33518C31.1196 9.57769 33.6111 19.357 33.6111 19.4578L31.6759 19.9619"/>
	<path fill="#59AD47" d="M54.3889 10.5993C54.3889 10.5993 52.25 18.9672 46.2407 21.3868C40.3333 23.9072 32.7963 19.5721 32.7963 19.5721C32.7963 19.5721 34.9352 11.2042 40.9445 8.78462C46.8519 6.365 54.3889 10.5993 54.3889 10.5993"/>
	<path fill="#2D1B0A" d="M42.1667 23.188C37.1759 23.188 32.5926 20.5667 32.2871 20.466L31.7778 19.3569C31.8797 18.9536 34.1204 10.485 40.4352 7.86377C46.75 5.24252 54.4908 9.57767 54.7963 9.77931L55.3056 10.8883C55.2037 11.2916 52.963 19.7603 46.6482 22.3815C45.2222 22.9864 43.6945 23.188 42.1667 23.188M34.0185 19.0546C35.9537 19.9618 41.4537 22.2807 45.8334 20.466C50.213 18.6512 52.4537 13.1063 53.0648 11.0899C51.1297 10.1826 45.6297 7.86377 41.25 9.67849C36.9723 11.594 34.7315 17.0382 34.0185 19.0546"/>
</svg>
