<?xml version="1.0" encoding="utf-8" ?>
<svg xmlns="http://www.w3.org/2000/svg" xmlns:xlink="http://www.w3.org/1999/xlink" width="86" height="74">
	<path fill="white" d="M44.2632 0L0 57.355L2.32432 59.1599C14.3502 68.5854 29.6099 74 44.2632 74C58.0071 74 71.953 69.2873 83.6757 60.8645L86 59.1599L44.2632 0"/>
	<path fill="#FF4D4D" d="M44.6169 58.1571C56.1375 58.1571 66.6475 54.4471 75.3384 48.3305L44.1116 4.51205L11.5711 46.5257C20.6663 53.8454 32.1868 58.1571 44.6169 58.1571"/>
	<path fill="#2D1B0A" d="M44.6676 59.1597C32.4397 59.1597 20.5149 54.9483 11.0155 47.3277L44.1623 2.8074L76.7029 48.531C66.9003 55.7505 55.9861 59.1597 44.6676 59.1597M13.1377 46.4253C22.1318 53.344 33.3492 57.2546 44.7687 57.2546C55.2787 57.2546 65.3844 54.1462 74.0754 48.1299L44.2634 6.31689L13.1377 46.4253"/>
	<path fill="#8FB561" d="M7.98379 51.3387L4.1436 56.3523C14.8557 64.775 29.408 70.5908 44.1624 70.5908C58.0073 70.5908 71.4479 65.477 81.8569 57.9566L78.522 52.7425C68.9215 59.7615 56.9967 63.8727 44.1624 63.8727C30.5196 63.8727 17.9885 59.1599 7.98379 51.3387"/>
	<path fill="#2D1B0A" d="M44.2634 71.4932C30.1153 71.4932 15.2599 66.1789 3.63826 57.0542L7.88268 49.8347C18.898 58.5583 31.227 62.7697 44.2634 62.7697C56.4914 62.7697 68.113 58.9594 78.0166 51.8401L83.3727 58.1572C71.1447 66.981 57.502 71.4932 44.2634 71.4932M5.55835 56.1518C16.7757 64.6748 30.7217 69.5881 44.1623 69.5881C56.5924 69.5881 69.7299 65.2764 80.442 57.7561L78.2188 54.2466C68.2141 61.2656 56.4914 64.9756 44.1623 64.9756C31.0249 64.9756 18.5948 60.7642 8.08479 52.8428L5.55835 56.1518"/>
	<path fill="#E6EDD9" d="M11.8237 46.2248L7.9835 51.1381C17.8871 58.9593 30.5193 63.5718 44.2632 63.5718C57.0975 63.5718 69.3255 59.4606 78.5217 52.6422L75.1868 48.2303C67.0011 54.2465 56.188 57.8563 44.6674 57.8563C32.2373 57.8563 20.8178 53.5446 11.8237 46.2248"/>
	<path fill="#2D1B0A" d="M44.2632 64.5745C30.6204 64.5745 17.7861 60.2628 7.37716 51.9403L11.6216 44.8211C21.6263 52.8428 32.8437 56.7533 44.7685 56.7533C55.7837 56.7533 66.3948 53.4444 74.6815 47.3279L79.9365 52.7425C69.6286 60.4634 56.8954 64.5745 44.2632 64.5745M9.39831 50.9376C19.302 58.5582 31.3278 62.4688 44.2632 62.4688C56.0869 62.4688 68.0117 58.7588 77.1069 52.3414L74.9847 49.5338C66.4958 55.4498 55.7837 58.7588 44.7685 58.7588C32.7426 58.7588 21.4242 54.8482 12.0258 47.5284L9.39831 50.9376"/>
	<path fill="#3A454E" d="M25.9718 46.4255C26.7803 46.9268 28.2962 45.7236 29.4078 43.7182C30.5194 41.7128 30.7215 39.6071 29.812 39.1057C29.0036 38.6044 27.4877 39.8076 26.3761 41.813C25.3655 43.8184 25.1634 45.8239 25.9718 46.4255"/>
	<path fill="#3A454E" d="M42.4442 45.4228C42.4442 47.729 43.2526 49.4336 44.2632 49.4336C45.2738 49.3334 46.0822 47.4282 46.0822 45.122C46.0822 42.8158 45.2738 41.1112 44.2632 41.1112C43.2526 41.2114 42.4442 43.1166 42.4442 45.4228"/>
	<path fill="#3A454E" d="M58.7145 44.9214C60.0282 46.8265 61.7462 47.9295 62.5546 47.4282C63.3631 46.9268 62.9589 44.9214 61.6451 43.0162C60.3314 41.1111 58.6134 40.0081 57.8049 40.5095C56.9965 41.1111 57.4119 43.0162 58.7145 44.9214"/>
</svg>
