<?xml version="1.0" encoding="utf-8" ?>
<svg xmlns="http://www.w3.org/2000/svg" xmlns:xlink="http://www.w3.org/1999/xlink" width="78" height="106">
	<path fill="white" d="M44.1793 106C40.7884 106 37.4973 104.99 34.6051 103.173C29.7183 100.044 26.6266 94.5924 26.2277 88.8381C22.8369 88.6362 19.5457 87.6267 16.7533 85.7086C10.7694 81.8724 7.17911 75.0076 7.47831 67.84C7.57804 66.0229 7.87723 64.2057 8.47561 62.3886C8.17642 62.1867 7.97696 61.9848 7.67777 61.6819C1.69391 56.4324 -1.09855 48.3562 0.397411 40.5829C1.89337 32.7086 7.37857 26.2476 14.8584 23.6229C16.853 22.9162 18.9474 22.5124 21.0417 22.4114C21.8396 21.4019 22.7371 20.3924 23.7344 19.4838C23.1361 19.3829 22.6374 19.3829 22.1387 19.2819C18.9474 18.5752 17.6509 14.941 18.6482 9.89333L19.0471 7.97524L20.942 7.57143C21.1414 7.57143 39.4919 3.53333 48.368 0.504762C49.465 0 50.3626 0 51.2602 0C54.1524 0 56.3464 2.01905 56.7454 5.04762C57.244 8.58095 55.2494 14.739 52.058 15.5467C50.961 15.8495 49.9637 15.9505 48.8666 16.1524C47.9691 16.2533 46.6726 16.4552 45.9744 16.7581C46.4731 17.061 46.9717 17.2629 47.4704 17.5657C49.5647 18.979 51.4596 20.6952 52.9556 22.8152C54.2521 22.5124 55.6483 22.4114 56.9448 22.4114C60.9341 22.4114 64.8236 23.5219 68.2144 25.7429C73.0015 28.7714 76.2926 33.5162 77.4894 39.0686C78.6862 44.621 77.7886 50.3752 74.6969 55.12C73.5999 56.8362 72.4031 58.3505 70.9072 59.6629C71.3061 61.48 71.5055 63.1962 71.4058 65.1143C71.1066 71.979 67.2171 78.2381 61.2333 81.4686C61.2333 81.4686 61.2333 81.4686 61.1335 81.4686C61.9314 83.6895 62.3303 86.1124 62.2306 88.5352C61.9314 94.9962 58.3411 100.851 52.6564 103.88C49.9637 105.192 47.0715 106 44.1793 106"/>
	<path fill="#71A32F" d="M33.907 66.2247C38.8935 69.3542 45.376 67.9409 48.4677 62.8933C51.5594 57.8456 50.1631 51.2838 45.1766 48.1543C40.19 45.0247 33.7075 46.4981 30.6159 51.4857C27.5242 56.5333 28.9798 63.0952 33.907 66.2247"/>
	<path fill="#8BB548" d="M36.0013 100.038C40.4892 102.966 46.1739 103.168 50.961 100.644C55.6483 98.1204 58.74 93.2747 58.9502 87.8232C59.1389 82.3718 56.5459 77.3242 51.9583 74.3966C47.4704 71.4689 41.7857 71.267 36.9986 73.7908C32.3113 76.3147 29.2196 81.1604 29.0174 86.6118C29.0174 92.0632 31.5135 97.2118 36.0013 100.038"/>
	<path fill="#2D1B0A" d="M44.0795 103.375C41.0876 103.375 38.0957 102.568 35.5027 100.852C30.7156 97.8229 27.8234 92.2705 28.1014 86.5162C28.322 80.7619 31.6131 75.5124 36.6994 72.8877C41.686 70.2629 47.8693 70.4648 52.6564 73.4934C57.4435 76.5219 60.3357 82.0743 60.0576 87.8286C59.837 93.5829 56.5459 98.8324 51.4596 101.457C49.1658 102.77 46.5728 103.375 44.0795 103.375M44.0795 73.1905C41.8854 73.1905 39.5916 73.6953 37.597 74.8057C33.2089 77.1277 30.3167 81.6705 30.1172 86.7181C29.9177 91.7658 32.411 96.5105 36.5997 99.2362C40.7884 101.962 46.1739 102.164 50.562 99.8419C54.9502 97.52 57.8424 92.9772 58.0418 87.9296C58.2413 82.8819 55.748 78.1372 51.5593 75.4115C49.2655 73.8972 46.6725 73.1905 44.0795 73.1905"/>
	<path fill="#71A32F" d="M27.6293 48.1543C32.7156 51.3848 39.0984 51.6876 44.3841 48.861C49.6699 46.0343 53.0607 40.5829 53.3696 34.5257C53.5594 28.4686 50.6672 22.8153 45.5809 19.4838C40.4946 16.2533 34.1118 15.9505 28.8261 18.7771C23.5404 21.6038 20.1495 27.0552 19.8298 33.1124C19.5511 39.2705 22.543 44.9238 27.6293 48.1543"/>
	<path fill="#2D1B0A" d="M36.5997 51.7885C33.3071 51.7885 30.0145 50.88 27.121 49.0628C21.8328 45.6304 18.64 39.5733 18.8307 33.2133C19.1389 26.8533 22.7308 20.9981 28.3183 18.0704C33.9058 15.1428 40.6906 15.3447 46.0785 18.7771C51.3666 22.2095 54.5595 28.2666 54.3687 34.6266C54.0606 40.9866 50.4686 46.8419 44.8812 49.7695C42.1872 51.0819 39.3935 51.7885 36.5997 51.7885M36.4999 17.9695C34.0055 17.9695 31.5111 18.5752 29.2163 19.7866C24.2275 22.4114 21.0346 27.56 20.8351 33.2133C20.6355 38.8666 23.4292 44.3181 28.1187 47.3466C32.8082 50.3752 38.8946 50.5771 43.8834 47.9523C48.8722 45.3276 52.0651 40.179 52.2646 34.5257C52.4642 28.8723 49.6704 23.4209 44.9809 20.3923C42.3867 18.7771 39.4932 17.9695 36.4999 17.9695"/>
	<path fill="#C99A52" d="M21.2412 9.89336C21.2412 9.89336 39.7911 5.85526 48.9664 2.72574C56.4462 0.10098 52.8559 11.5086 50.961 12.0134C47.1712 13.0229 41.2871 12.4172 42.3841 17.2628C43.182 20.4934 45.1766 32.5066 43.182 35.4343C41.1873 38.2609 36.2008 36.0401 36.2008 36.0401C36.2008 36.0401 38.5943 14.84 34.0067 15.3448C28.9204 15.9506 24.5323 16.1525 22.3382 15.7486C20.1441 15.2438 21.2412 9.89336 21.2412 9.89336"/>
	<path fill="#2D1B0A" d="M40.0805 37.9581C37.9848 37.9581 35.9888 37.1505 35.889 37.0495L35.2902 36.04C35.9888 29.5791 36.4878 18.5753 34.5916 16.6572C34.4918 16.5562 34.392 16.4553 34.2922 16.5562C28.2046 17.2629 24.3125 17.3638 22.3165 16.96C19.2228 16.2534 20.0663 11.0038 20.4203 9.89336C21.3185 9.18669 39.7811 5.1486 48.7629 2.12002C50.7589 1.41336 52.3557 1.51431 53.4535 2.52383C55.0502 4.03812 54.7508 6.86479 54.3516 8.48003C53.9524 10.0953 52.8547 12.9219 51.3577 13.3257C50.4595 13.5276 49.3617 13.7295 48.3638 13.8305C46.3678 14.1334 44.272 14.4362 43.6733 15.4457C43.3739 15.8495 43.3739 16.5562 43.5735 17.3638C43.5735 17.4648 46.8668 32.5067 44.272 36.3429C43.0745 37.4534 41.5775 37.9581 40.0805 37.9581M37.3675 35.4343C38.6834 35.8381 41.3779 36.5448 42.4757 34.9295C43.9726 32.7086 42.5755 22.3105 41.4777 17.6667C41.1783 16.2534 41.2781 15.0419 41.8769 14.1334C43.0745 12.4172 45.5694 12.0134 47.9646 11.7105C48.8627 11.6096 49.8607 11.4076 50.7589 11.2057C51.4575 10.8019 53.2539 6.36003 52.3557 4.34098C52.2559 4.03812 51.7569 3.0286 49.3617 3.93717C41.1783 6.76383 25.51 10.1962 22.1169 11.0038C21.8175 12.9219 22.0171 14.941 22.6159 15.0419C24.4123 15.4457 28.2046 15.3448 33.9929 14.6381C34.6914 14.5372 35.39 14.84 35.9888 15.3448C38.883 18.0705 37.7852 31.1943 37.3675 35.4343"/>
	<path fill="#93C149" d="M46.872 58.6534C55.3491 64.1048 66.519 61.5051 71.8047 53C77.1902 44.4191 74.6219 33.1124 66.2198 27.7619C57.7426 22.3105 46.5728 24.9102 41.287 33.4153C35.9016 41.8953 38.4454 53.3029 46.872 58.6534"/>
	<path fill="#2D1B0A" d="M56.4794 62.4896C52.9567 62.4896 49.4662 61.4801 46.275 59.4612C37.4062 53.8081 34.7067 41.7953 40.3911 32.8109C45.9758 23.8335 57.8433 21.101 66.7189 26.855C71.0072 29.5806 73.999 33.9213 75.096 38.9687C76.1929 44.0161 75.2954 49.1645 72.6028 53.5052C69.0126 59.3602 62.8296 62.4896 56.4794 62.4896M47.372 57.846C55.3501 62.9943 65.9211 60.5716 71.0072 52.4958C73.4006 48.5588 74.1984 43.9152 73.2011 39.4735C72.2039 34.9308 69.5113 31.0948 65.6219 28.6721C57.6438 23.5237 47.0728 25.9464 41.9868 34.0223C37.0004 41.9972 39.3939 52.6977 47.372 57.846"/>
	<path fill="#93C149" d="M3.09008 40.6188C1.79357 47.3825 4.18712 54.3483 9.37312 58.8911C14.5591 63.434 21.7398 64.7464 28.1225 62.5254C34.605 60.2035 39.2924 54.6511 40.5889 47.8874C41.8854 41.1236 39.4919 34.1578 34.3058 29.6149C29.1198 25.0721 21.9392 23.7597 15.5564 25.9807C9.17366 28.3026 4.38658 33.8549 3.09008 40.6188"/>
	<path fill="#2D1B0A" d="M21.9392 64.6096C17.1522 64.6096 12.4648 62.8934 8.77476 59.6629C3.38929 54.9181 0.796291 47.5486 2.09279 40.4819C3.38929 33.3143 8.47557 27.4591 15.2573 25.0362C22.039 22.6134 29.6185 24.1277 35.004 28.8724C40.3895 33.6172 42.9825 40.9867 41.686 48.0534C40.3895 55.221 35.3032 61.0762 28.5215 63.4991C26.4271 64.2058 24.1333 64.6096 21.9392 64.6096M3.0901 40.5829C2.89064 47.2458 5.18445 53.8077 10.0713 58.1486C14.9581 62.3886 21.7398 63.701 27.9231 61.581C34.0067 59.461 38.5943 54.1105 39.7911 47.6496C40.9878 41.1886 38.694 34.6267 33.8072 30.2857C28.9204 26.0457 22.1387 24.7334 15.9554 26.8534C9.8718 28.9734 5.28418 34.3238 4.08741 40.7848"/>
	<path fill="#90C63C" d="M43.3815 77.5061C48.2683 80.6357 54.3519 80.8376 59.4382 78.2128C64.5245 75.4871 67.8156 70.2376 68.0251 64.3823C68.2145 58.5271 65.422 53.0757 60.5352 49.9462C55.6484 46.8166 49.5648 46.6147 44.4786 49.2395C39.3923 51.9652 36.1012 57.2147 35.892 63.07C35.7022 68.9252 38.5944 74.3766 43.3815 77.5061"/>
	<path fill="#2D1B0A" d="M52.0581 81.0648C48.8651 81.0648 45.6721 80.1562 42.8782 78.3391C37.6896 75.0077 34.6962 69.1524 34.8864 62.9943C35.0953 56.8362 38.6875 51.1829 44.0756 48.3562C49.4638 45.5296 56.0493 45.7315 61.1381 49.0629C66.3267 52.3943 69.3201 58.2496 69.1299 64.4077C68.921 70.5657 65.3289 76.2191 59.9407 79.0457C57.4462 80.3581 54.7521 81.0648 52.0581 81.0648M52.0581 48.4572C49.6633 48.4572 47.2686 49.0629 45.0734 50.1734C40.2839 52.6972 37.1907 57.6438 36.9912 63.0953C36.7916 68.5467 39.4857 73.6953 43.9758 76.6229C48.5657 79.5505 54.353 79.7524 59.0427 77.2286C63.8322 74.7048 66.9254 69.7581 67.1249 64.3067C67.3245 58.8553 64.6304 53.7067 60.1403 50.7791C57.6458 49.2648 54.8519 48.4572 52.0581 48.4572"/>
	<path fill="#90C63C" d="M18.1496 82.5791C23.2359 85.9105 29.7183 86.1124 35.1039 83.2857C40.4893 80.4591 43.9799 74.9067 44.1888 68.7486C44.3789 62.5905 41.3869 56.8362 36.3006 53.5048C31.2144 50.1734 24.7318 49.9715 19.3464 52.7981C13.9609 55.6248 10.4703 61.1772 10.2615 67.3353C10.0714 73.4934 13.0633 79.3486 18.1496 82.5791"/>
	<path fill="#2D1B0A" d="M27.3248 86.3142C23.9324 86.3142 20.6398 85.4056 17.7463 83.4875C12.3584 80.0552 9.16558 73.8971 9.3563 67.3352C9.66446 60.8742 13.3562 54.918 18.9436 51.9904C24.6308 48.9618 31.5154 49.2647 36.9033 52.6971C42.2911 56.1295 45.484 62.3885 45.2933 68.8494C44.9851 75.3104 41.2934 81.2666 35.7059 84.1942C33.012 85.6075 30.1185 86.3142 27.3248 86.3142M27.225 51.8895C24.6308 51.8895 22.1364 52.4952 19.8416 53.7066C14.753 56.4323 11.5602 61.5809 11.2609 67.3352C11.0613 73.0894 13.8551 78.5409 18.6443 81.6704C23.4335 84.7999 29.6196 85.0018 34.6084 82.2761C39.697 79.5504 42.8898 74.4018 43.1891 68.6475C43.4885 62.8933 40.595 57.4418 35.8057 54.3123C33.2116 52.6971 30.2183 51.8895 27.225 51.8895"/>
</svg>
