<?xml version="1.0" encoding="utf-8" ?>
<svg xmlns="http://www.w3.org/2000/svg" xmlns:xlink="http://www.w3.org/1999/xlink" width="98" height="102">
	<path fill="white" d="M30.5986 99.8708C24.2409 99.8708 19.8004 99.4652 15.2591 93.9901C10.0113 87.7038 9.91041 84.2565 10.7178 76.1451C11.5251 68.7435 18.4885 59.5169 24.6445 55.2584C35.3419 47.6541 41.6996 41.5706 47.2502 36.1968C49.975 33.5606 52.4979 31.1272 55.2227 28.8966C58.8558 25.8549 65.3146 19.8728 67.2319 17.8449C80.7551 3.04175 85.7001 0 88.9295 0C89.1312 0 89.2321 0 89.4341 0C90.7459 0.101392 91.0488 0.202783 92.3606 0.709742C93.8745 1.31809 95.4892 2.53479 96.5993 5.27237C99.324 11.9642 98.7184 26.9702 88.9295 49.2763C82.3698 64.3837 65.6172 85.8787 51.0851 93.7873C43.0117 98.2485 33.2225 99.7694 32.8188 99.7694L30.5986 99.8708"/>
	<path fill="#3A843A" d="M32.433 96.9252C25.7724 96.9252 21.7357 97.226 17.5981 92.1563C13.1577 86.7825 12.9558 84.3492 13.7632 76.542C14.3687 70.3571 20.5247 61.9417 26.378 57.7845C42.424 46.3274 49.0846 38.1147 57.158 31.2199C60.892 28.0768 67.4517 22.0947 69.4701 19.8641C74.415 14.4903 85.3142 2.62752 89.1491 3.02295C90.1583 3.13448 89.9565 3.02295 91.6721 3.74283C95.7088 5.3651 98.2318 20.6752 86.2225 48.0509C79.5619 63.2598 63.1122 83.7409 49.6901 91.1424C42.1212 95.4008 32.433 96.9252 32.433 96.9252"/>
	<path fill="#2D1B0A" d="M30.5984 97.843C24.8461 97.843 20.9103 97.6402 16.7726 92.6714C12.0295 86.9928 11.9285 84.0521 12.7359 76.3454C13.4423 69.5513 20.1029 60.932 25.7543 56.8758C36.5526 49.2706 42.9105 43.0849 48.5619 37.6091C51.2867 35.074 53.8096 32.6404 56.4335 30.4095C60.1675 27.266 66.6262 21.3845 68.6446 19.1537C79.7456 6.9852 86.1035 1.71221 89.131 2.004C90.2411 2.11782 90.342 2.11782 91.5531 2.62484C93.1678 3.23326 94.076 4.3487 94.7824 6.07257C97.3054 12.3596 96.6999 26.7589 87.2136 48.5607C80.7548 63.3657 64.406 84.3563 50.2775 92.1644C42.5068 96.4233 33.1214 97.843 32.7177 97.9444L31.7085 97.9444C31.2039 97.843 30.9012 97.843 30.5984 97.843M88.9292 3.94309C87.5163 3.94309 83.1768 6.17397 70.2593 20.4719C68.2409 22.7028 61.6813 28.6856 57.8464 31.9305C55.2225 34.1614 52.6995 36.4937 50.0757 39.1302C44.3233 44.606 37.8645 50.7916 26.9654 58.5997C21.6167 62.4531 15.4607 70.5654 14.7543 76.6496C13.9469 84.3563 14.1488 86.4857 18.2864 91.5559C22.0204 96.0177 25.3507 96.0177 31.4058 96.0177C33.2223 95.9163 42.1031 94.3952 49.1674 90.4405C62.8923 82.8352 78.9383 62.3517 85.1952 47.8509C94.4797 26.6575 95.0852 12.5624 92.7641 6.9852C92.1586 5.46415 91.4521 5.05853 91.1494 4.85572C89.6356 4.2473 89.6356 4.2473 89.0301 4.1459C88.9292 3.94309 88.9292 3.94309 88.9292 3.94309"/>
	<path fill="#9CD893" d="M57.8465 49.6819C57.6447 49.6819 57.4428 49.6819 57.3419 49.5805C56.1309 49.2763 55.5254 47.8568 55.5254 47.7555L57.4428 47.0457C57.5437 47.2485 57.7456 47.5527 57.8465 47.6541C57.9474 47.6541 58.0483 47.6541 58.3511 47.3499L59.663 48.8708C58.9566 49.4791 58.3511 49.6819 57.8465 49.6819"/>
	<path fill="#9CD893" d="M67.2319 56.3738C67.0301 56.3738 66.8282 56.3738 66.7273 56.2724C65.5163 55.9682 64.9108 54.5487 64.9108 54.4474L66.8282 53.7376C66.9291 53.9404 67.131 54.2446 67.2319 54.346C67.3328 54.346 67.4337 54.346 67.7365 54.0418L69.0484 55.5627C68.342 56.171 67.7365 56.3738 67.2319 56.3738"/>
	<path fill="#9CD893" d="M42.8096 53.839C42.6078 53.839 42.4059 53.839 42.305 53.7376C41.094 53.4334 40.4885 52.0139 40.4885 51.9126L42.4059 51.2028C42.5068 51.4056 42.7087 51.7098 42.8096 51.8112C42.9105 51.8112 43.0114 51.8112 43.3142 51.507L44.6261 53.0279C43.9197 53.6362 43.3142 53.839 42.8096 53.839"/>
	<path fill="#9CD893" d="M52.6996 63.7754C52.4978 63.7754 52.2959 63.7754 52.195 63.674C50.984 63.3698 50.3785 61.9503 50.3785 61.849L52.2959 61.1392C52.3968 61.342 52.5987 61.6462 52.6996 61.7476C52.8005 61.7476 52.9014 61.7476 53.2042 61.4434L54.5161 62.9643C53.8097 63.674 53.2042 63.7754 52.6996 63.7754"/>
	<path fill="#9CD893" d="M74.2961 31.33C74.0943 31.33 73.8924 31.33 73.7915 31.2286C72.5805 30.9244 71.975 29.5049 71.975 29.4036L73.8924 28.6938C73.9933 28.8966 74.1952 29.2008 74.2961 29.3022C74.397 29.3022 74.4979 29.3022 74.8007 28.998L76.1126 30.5189C75.4062 31.1272 74.8007 31.33 74.2961 31.33"/>
	<path fill="#9CD893" d="M83.6815 38.0219C83.4797 38.0219 83.2778 38.0219 83.1769 37.9205C81.9659 37.6163 81.3604 36.1968 81.3604 36.0955L83.2778 35.3857C83.3787 35.5885 83.5806 35.8927 83.6815 35.9941C83.7824 35.9941 83.8833 35.9941 84.1861 35.6899L85.498 37.2108C84.7916 37.8191 84.1861 38.0219 83.6815 38.0219"/>
	<path fill="#9CD893" d="M59.3602 35.4871C59.1584 35.4871 58.9565 35.4871 58.8556 35.3857C57.6446 35.0815 57.0391 33.662 57.0391 33.5607L58.9565 32.8509C59.0574 33.0537 59.2593 33.3579 59.3602 33.4593C59.4611 33.4593 59.562 33.4593 59.8648 33.1551L61.1767 34.676C60.3694 35.3857 59.7639 35.4871 59.3602 35.4871"/>
	<path fill="#9CD893" d="M69.1493 45.5249C68.9475 45.5249 68.7456 45.5249 68.6447 45.4235C67.4337 45.1193 66.8282 43.6998 66.8282 43.5985L68.7456 42.8887C68.8465 43.0915 69.0484 43.3957 69.1493 43.4971C69.2502 43.4971 69.3511 43.4971 69.6539 43.1929L70.9658 44.7138C70.2594 45.3221 69.6539 45.5249 69.1493 45.5249"/>
	<path fill="#9CD893" d="M41.2959 70.5686C41.0941 70.5686 40.8922 70.5686 40.7913 70.4672C39.5803 70.163 38.9748 68.7435 38.9748 68.6422L40.8922 67.9324C40.9931 68.1352 41.195 68.4394 41.2959 68.5408C41.3968 68.5408 41.4977 68.5408 41.8005 68.2366L43.1124 69.7575C42.406 70.4672 41.8005 70.5686 41.2959 70.5686"/>
	<path fill="#9CD893" d="M50.7822 77.2604C50.5804 77.2604 50.3785 77.2604 50.2776 77.159C49.0666 76.8548 48.4611 75.4353 48.4611 75.3339L50.3785 74.6242C50.4794 74.827 50.6813 75.1312 50.7822 75.2326C50.8831 75.2326 50.984 75.2326 51.2868 74.9284L52.5987 76.4493C51.8923 77.159 51.1859 77.2604 50.7822 77.2604"/>
	<path fill="#9CD893" d="M26.36 74.827C26.1582 74.827 25.9563 74.827 25.8554 74.7256C24.6444 74.4214 24.0389 73.0019 24.0389 72.9006L25.9563 72.1908C26.0572 72.3936 26.2591 72.6978 26.36 72.7992C26.4609 72.7992 26.5618 72.7992 26.8646 72.495L28.1765 74.0159C27.4701 74.6242 26.8646 74.827 26.36 74.827"/>
	<path fill="#9CD893" d="M36.2499 84.7634C36.0481 84.7634 35.8462 84.7634 35.7453 84.662C34.5343 84.3578 33.9288 82.9383 33.9288 82.837L35.8462 82.1272C35.9471 82.33 36.149 82.6342 36.2499 82.7356C36.3508 82.7356 36.4517 82.7356 36.7545 82.4314L38.0664 83.9523C37.36 84.5606 36.7545 84.7634 36.2499 84.7634"/>
	<path fill="#FFDA24" d="M12.736 86.6899C12.736 86.6899 4.96527 81.0119 1.63497 84.9662C0.02028 86.9941 10.3139 87.6024 9.20384 91.6581C8.09374 95.7138 7.58915 103.115 12.5342 99.4653C17.4792 95.9166 12.736 86.6899 12.736 86.6899"/>
	<path fill="#2D1B0A" d="M10.3139 102C9.60751 102 9.10292 101.797 8.69925 101.493C5.6717 99.4652 7.48823 92.165 7.79098 91.3539C8.09374 90.34 5.36894 89.3261 3.85517 88.7177C1.83681 87.9066 0.423949 87.2982 0.04385 85.9801C-0.080642 85.3718 0.04385 84.662 0.625786 84.0537C3.95609 79.998 10.4149 83.0398 13.7451 85.4732C14.4515 86.3857 19.4975 96.3221 13.6442 100.682C12.2313 101.696 11.1213 102 10.3139 102M3.75425 85.3718C4.15793 85.5746 4.5616 85.676 4.96527 85.8787C7.58915 86.9941 11.7268 88.6163 10.7177 92.165C9.80935 95.511 9.91027 98.4513 10.4149 99.0597C10.5157 99.0597 10.9194 98.9583 11.7268 98.3499C15.057 95.9165 12.3323 89.3261 11.6258 87.8052C9.91027 86.5885 5.97445 84.4593 3.75425 85.3718"/>
</svg>
