<?xml version="1.0" encoding="utf-8" ?>
<svg xmlns="http://www.w3.org/2000/svg" xmlns:xlink="http://www.w3.org/1999/xlink" width="100" height="78">
	<path fill="white" d="M49.1417 78C31.7105 78 15.8835 69.2631 8.82543 55.6842C8.50461 54.9473 7.86297 54.4211 7.22134 54.2105C3.26456 52.5263 0.484129 48.2106 0 43.1579C-0.371389 38.1053 1.66047 33.3684 5.29642 31.1579C5.93806 30.7368 6.36582 30.2105 6.5797 29.3684C11.7128 13.4737 27.9677 1.78948 47.0029 0.210527C48.5001 0.105263 49.8903 0 51.3875 0C69.0325 0 84.9666 8.94738 91.9176 22.7368C92.2385 23.3684 92.7732 23.8948 93.4148 24.2105C97.0508 26.1053 99.5104 30.2105 100 34.9474C100.366 39.6842 98.5479 44.1053 95.3397 46.5263C94.6981 46.9473 94.2703 47.579 94.1634 48.2106C89.1372 64.3158 72.8824 76.2105 53.6332 77.7895C52.0291 77.8947 50.6389 78 49.1417 78"/>
	<path fill="#3E3938" d="M49.1894 75.8621C32.7264 75.8621 17.7784 67.6042 11.1123 54.7696C10.8093 54.0732 10.2033 53.5757 9.59732 53.3767C5.8603 51.7848 3.23429 47.7056 2.77705 42.93C2.42629 38.1543 4.3453 33.6771 7.77931 31.5878C8.38531 31.1898 8.78932 30.6923 8.99132 29.8964C13.8393 14.873 29.1915 3.82928 47.1694 2.33689C48.5835 2.23739 49.8965 2.1379 51.3106 2.1379C67.9756 2.1379 83.0246 10.5948 89.5896 23.6284C89.8927 24.2253 90.3976 24.7228 91.0036 25.0213C94.4377 26.8121 96.7608 30.6923 97.2231 35.1695C97.5688 39.6467 95.8517 43.8254 92.8217 46.1137C92.2157 46.5117 91.8116 47.1087 91.7106 47.7056C86.9637 62.928 71.6116 74.1707 53.4315 75.6631C51.9165 75.7626 50.6035 75.8621 49.1894 75.8621"/>
	<path fill="#FFD900" d="M88.8107 46.8486C89.2143 45.5551 90.0216 44.5602 91.0307 43.7643C93.1498 42.1724 94.4616 39 94.2022 35.4069C93.8562 31.8251 92.0398 28.9398 89.618 27.6464C88.407 27.0495 87.4988 26.0545 86.8934 24.9601C80.4352 12.1255 64.7942 3.86764 47.4377 5.26054C30.1821 6.65344 16.3575 17.1997 11.9174 30.7307C11.5138 32.0241 10.6056 33.218 9.3947 34.014C6.97287 35.5064 5.45922 38.8891 5.7979 42.6699C6.16559 46.4506 8.18379 49.4354 10.8074 50.6293C12.1193 51.2262 13.1284 52.2212 13.8347 53.4151C20.3939 66.0507 35.8331 74.2091 53.0886 72.7167C70.6469 71.3238 84.6734 60.5786 88.8107 46.8486"/>
	<path fill="#FFD900" d="M49.2906 73.8506C33.6388 73.8506 19.2998 66.0901 12.9381 53.8525C12.3322 52.7581 11.5244 51.9622 10.4136 51.4647C7.38424 50.1713 5.1627 46.689 4.8216 42.7093C4.55683 38.7296 6.07151 34.9489 8.89893 33.158C9.90872 32.5611 10.6156 31.5661 10.9185 30.4717C15.5636 16.2442 30.1046 5.69798 47.271 4.30508C64.6395 2.91218 80.8971 10.9711 87.7637 24.5021C88.2686 25.4971 89.0764 26.293 90.0862 26.7905C92.9136 28.2829 94.8322 31.5661 95.1781 35.3469C95.4381 39.1276 94.1254 42.7093 91.6009 44.5997C90.6921 45.2961 90.0862 46.1916 89.7833 47.1865C85.3402 61.613 70.6982 72.3582 53.3298 73.7511C51.9161 73.7511 50.6033 73.8506 49.2906 73.8506M51.3102 6.09595C50.0984 6.09595 48.7857 6.19545 47.574 6.29494C31.2153 7.68784 17.2802 17.6371 12.9381 31.0687C12.4332 32.6605 11.4234 34.0534 10.0097 34.8494C7.88914 36.2423 6.67739 39.3266 6.87935 42.5103C7.18229 45.7936 8.89893 48.5794 11.2214 49.5743C12.7361 50.1713 13.9479 51.3652 14.7557 52.8576C21.3194 65.4932 36.7692 72.9551 53.1278 71.6617C69.6884 70.2688 83.6235 60.2201 87.8647 46.4901C88.2686 45.0972 89.1774 43.8037 90.3891 42.9083C92.3078 41.4159 93.4185 38.5306 93.1156 35.4463C92.8126 32.3621 91.298 29.6758 89.0764 28.4818C87.6627 27.7854 86.6529 26.691 85.9461 25.2981C80.0893 13.5579 66.4571 6.09595 51.3102 6.09595"/>
</svg>
