<?xml version="1.0" encoding="utf-8" ?>
<svg xmlns="http://www.w3.org/2000/svg" xmlns:xlink="http://www.w3.org/1999/xlink" width="86" height="94">
	<path fill="white" d="M43 94C19.3 94 0 74.6588 0 50.9083C0 43.693 1.8 36.5778 5.3 30.2644C8.2 21.6461 26.7 17.7377 43 17.7377C43.7 17.7377 44.4 17.7377 45.1 17.7377L52.1 3.0064C53 1.10235 54.9 0 56.9 0L72.4 0C75.3 0 77.7 2.40512 77.7 5.3113C77.7 8.21748 75.3 10.6226 72.4 10.6226L60.3 10.6226L56.5 18.5394C67.5 20.0426 78.5 23.7505 80.7 30.1642C84.2 36.4776 86 43.5928 86 50.8081C85.9 74.6588 66.7 94 43 94"/>
	<path fill="#7C624C" d="M7.7 31.5672C4.4 37.4798 2.7 44.0939 2.7 50.9084C2.7 73.0555 20.6 90.9936 42.7 90.9936C64.8 90.9936 82.7 73.0555 82.7 50.9084C82.7 43.8934 80.9 37.2794 77.7 31.5672"/>
	<path fill="#2D1B0A" d="M42.7 91.9957C20.1 91.9957 1.7 73.5565 1.7 50.9083C1.7 43.9936 3.4 37.1791 6.8 31.0661L8.6 32.0682C5.4 37.7804 3.8 44.2942 3.8 50.9083C3.8 72.4542 21.3 89.9915 42.8 89.9915C64.3 89.9915 81.8 72.4542 81.8 50.9083C81.8 44.2942 80.1 37.7804 77 32.0682L78.8 31.0661C82.1 37.0789 83.9 43.9936 83.9 50.9083C83.7 73.5565 65.3 91.9957 42.7 91.9957"/>
	<path fill="#E5DED8" d="M7.6 32.5694C7.6 39.1833 23.3 44.4947 42.7 44.4947C62.1 44.4947 77.8 39.1833 77.8 32.5694C77.8 25.9552 62.1 20.6439 42.7 20.6439C23.3 20.7442 7.6 26.0555 7.6 32.5694"/>
	<path fill="#2D1B0A" d="M42.7 45.4968C22.5 45.4968 6.6 39.8849 6.6 32.5693C6.6 25.2537 22.5 19.6418 42.7 19.6418C62.9 19.6418 78.8 25.2537 78.8 32.5693C78.8 39.8849 63 45.4968 42.7 45.4968M42.7 21.7463C22.3 21.7463 8.6 27.3582 8.6 32.6695C8.6 37.9808 22.3 43.5928 42.7 43.5928C63.1 43.5928 76.8 37.9808 76.8 32.6695C76.8 27.3582 63.1 21.7463 42.7 21.7463"/>
	<path fill="white" d="M26.2 32.5693C26.2 35.6759 33.6 38.1813 42.7 38.1813C51.8 38.1813 59.2 35.6759 59.2 32.5693C59.2 29.4627 51.8 26.9573 42.7 26.9573C33.6 27.0576 26.2 29.5629 26.2 32.5693"/>
	<path fill="#6E4123" d="M43.0295 37.4796C42.2295 37.4796 41.5295 37.0788 41.0295 36.3773C40.6749 35.6758 40.5295 34.8741 40.9295 34.1726L54.9295 4.60972C55.3295 3.80802 56.1295 3.30695 57.0295 3.30695L72.5295 3.30695C73.8295 3.30695 74.8295 4.30908 74.8295 5.61185C74.8295 6.91463 73.8295 7.91676 72.5295 7.91676L58.5295 7.91676L45.2295 36.1768C44.7295 36.8783 43.9295 37.4796 43.0295 37.4796"/>
	<path fill="#2D1B0A" d="M43.0223 38.4819C41.923 38.4819 40.8238 37.8806 40.2242 36.9787C39.7044 35.9765 39.5247 34.774 40.0243 33.7719L54.0148 4.20895C54.5145 3.00639 55.7136 2.3049 57.0127 2.3049L72.5022 2.3049C74.301 2.3049 75.8 3.8081 75.8 5.61194C75.8 7.41577 74.301 8.91897 72.5022 8.91897L59.1113 8.91897L46.0202 36.5778C45.4207 37.6802 44.2215 38.4819 43.0223 38.4819M43.0223 36.4776C43.5219 36.4776 44.0216 36.177 44.2215 35.6759L57.8122 6.91471L72.5022 6.91471C73.2017 6.91471 73.8013 6.31343 73.8013 5.61194C73.8013 4.91044 73.2017 4.30916 72.5022 4.30916L57.0127 4.30916C56.5131 4.30916 56.0134 4.6098 55.8136 5.11087L41.8231 34.6738C41.6232 35.0746 41.6232 35.5757 41.923 35.9765C42.1229 36.177 42.5226 36.4776 43.0223 36.4776"/>
</svg>
