<?xml version="1.0" encoding="utf-8" ?>
<svg xmlns="http://www.w3.org/2000/svg" xmlns:xlink="http://www.w3.org/1999/xlink" width="110" height="70">
	<path fill="white" d="M34.3376 70C15.3721 70 0 54.3314 0 35C0 15.6686 15.3721 0 34.3376 0C43.0218 0 51.5064 3.4593 57.7949 9.46221C63.0853 6.61337 69.0744 5.08721 75.2632 5.08721C94.4283 5.08721 110 19.3314 110 36.9331C110 54.5349 94.4283 68.7791 75.2632 68.7791C67.9764 68.7791 60.8893 66.6424 55 62.7762C49.1107 67.5581 41.824 70 34.3376 70"/>
	<path fill="#494E81" d="M43.6207 37.035C43.6207 52.9071 57.7949 65.8286 75.363 65.8286C92.931 65.8286 107.105 52.9071 107.105 37.035C107.105 21.1628 92.931 8.24135 75.363 8.24135C57.7949 8.24135 43.6207 21.1628 43.6207 37.035"/>
	<path fill="#2D1B0A" d="M75.2633 66.8461C57.1961 66.8461 42.5228 53.5176 42.5228 37.035C42.5228 20.6542 57.1961 7.224 75.2633 7.224C93.3304 7.224 108.004 20.5525 108.004 37.035C108.004 53.5176 93.3304 66.8461 75.2633 66.8461M75.2633 9.25888C58.2941 9.25888 44.5192 21.6717 44.5192 37.035C44.5192 52.3984 58.2941 64.8112 75.2633 64.8112C92.2324 64.8112 106.007 52.3984 106.007 37.035C106.007 21.6717 92.2324 9.25888 75.2633 9.25888"/>
	<path fill="#5A64A7" d="M72.568 12.4128C72.568 13.532 74.4646 14.4477 76.6606 14.4477C78.8566 14.4477 80.7532 13.532 80.7532 12.4128C80.7532 11.2936 78.8566 10.3779 76.6606 10.3779C74.4646 10.3779 72.568 11.3954 72.568 12.4128"/>
	<path fill="#4F5891" d="M74.265 12.4128C74.265 12.8198 74.764 13.2267 75.4628 13.4302C76.1615 13.6337 77.0599 13.6337 77.8584 13.4302C78.5572 13.2267 79.0562 12.8198 79.0562 12.4128C79.0562 12.0058 78.5572 11.5988 77.8584 11.3954C77.1597 11.2427 76.2613 11.2427 75.4628 11.3954C74.764 11.7006 74.265 12.0058 74.265 12.4128"/>
	<path fill="#5A6198" d="M2.9946 35.1017C2.9946 52.7034 16.9692 67.0494 34.3376 67.0494C51.6062 67.0494 65.6806 52.8052 65.6806 35.1017C65.6806 17.5 51.706 3.15405 34.3376 3.15405C17.069 3.15405 2.9946 17.3983 2.9946 35.1017"/>
	<path fill="#2D1B0A" d="M34.3376 67.9651C16.5699 67.9651 1.9964 53.2122 1.9964 35C1.9964 16.8896 16.4701 2.0349 34.3376 2.0349C52.2051 2.0349 66.6788 16.7878 66.6788 35C66.6788 53.2122 52.1053 67.9651 34.3376 67.9651M34.3376 4.17153C17.6679 4.17153 3.99277 18.0087 3.99277 35.1018C3.99277 52.1948 17.5681 66.032 34.3376 66.032C51.1071 66.032 64.6824 52.1948 64.6824 35.1018C64.6824 18.0087 51.0073 4.17153 34.3376 4.17153"/>
	<path fill="#495385" d="M42.0237 35.4071C42.3231 35.4071 42.5228 35.5088 42.8222 35.5088C46.3159 35.7122 49.3104 32.5583 49.3104 32.5583C49.3104 32.5583 46.6153 29.0989 43.1217 28.8954C42.6226 28.8954 42.1235 28.8954 41.7242 28.8954C41.9238 28.5902 42.1235 28.1832 42.3231 27.7762C43.9202 24.6222 42.4229 20.4507 42.4229 20.4507C42.4229 20.4507 38.2306 21.4681 36.5336 24.7239C36.334 25.0291 36.2342 25.4361 36.0346 25.7414C35.8349 25.3344 35.6353 24.9274 35.4356 24.6222C33.6389 21.4681 29.4465 20.6541 29.4465 20.6541C29.4465 20.6541 28.0491 24.8257 29.8458 27.9797C30.1453 28.5902 30.5445 29.0989 30.9438 29.5059C30.5445 29.5059 30.0454 29.5059 29.5464 29.5059C26.0527 29.7094 23.3576 33.067 23.3576 33.067C23.3576 33.067 26.3522 36.221 29.8458 36.1193C30.2451 36.1193 30.6444 36.0176 30.9438 36.0176C30.7442 36.3228 30.5445 36.7298 30.3449 37.035C28.7478 40.2907 30.4447 44.3605 30.4447 44.3605C30.4447 44.3605 34.6371 43.2414 36.1344 39.9855C36.334 39.6804 36.4338 39.2734 36.5336 38.9681C36.7333 39.3751 36.9329 39.7821 37.1326 40.0872C38.9293 43.1396 43.2215 43.9536 43.2215 43.9536C43.2215 43.9536 44.5191 39.7821 42.7224 36.628C42.6226 36.221 42.3231 35.8141 42.0237 35.4071M36.6335 32.9651C36.5336 32.8634 36.4338 32.7617 36.2342 32.66C36.2342 32.66 36.1344 32.66 36.1344 32.66C36.1344 32.5583 36.1344 32.5583 36.1344 32.4565C36.1344 32.253 36.0346 32.0494 35.9347 31.846C36.0346 31.846 36.0346 31.7443 36.0346 31.7443C36.1344 31.846 36.2342 31.9478 36.4338 32.0494C36.4338 32.0494 36.5336 32.0494 36.5336 32.0494C36.5336 32.253 36.6335 32.5583 36.7333 32.7617C36.7333 32.7617 36.7333 32.7617 36.6335 32.7617C36.7333 32.8634 36.6335 32.9651 36.6335 32.9651"/>
	<path fill="#97AAE5" d="M41.1253 35.4071C41.4247 35.4071 41.6244 35.5088 41.9238 35.5088C45.4175 35.7122 48.412 32.5583 48.412 32.5583C48.412 32.5583 45.7169 29.0989 42.2233 28.8954C41.7242 28.8954 41.2251 28.8954 40.8258 28.8954C41.0254 28.5902 41.2251 28.1832 41.4247 27.7762C43.0218 24.6222 41.5245 20.4507 41.5245 20.4507C41.5245 20.4507 37.3322 21.4681 35.6352 24.7239C35.4356 25.0291 35.3358 25.4361 35.1362 25.7414C34.9365 25.3344 34.7369 24.9274 34.5372 24.6222C32.7405 21.4681 28.5481 20.6541 28.5481 20.6541C28.5481 20.6541 27.1507 24.8257 28.9474 27.9797C29.2469 28.5902 29.6461 29.0989 30.0454 29.5059C29.6461 29.5059 29.147 29.5059 28.6479 29.5059C25.1543 29.7094 22.4592 33.067 22.4592 33.067C22.4592 33.067 25.4538 36.221 28.9474 36.1193C29.3467 36.1193 29.7459 36.0176 30.0454 36.0176C29.8458 36.3228 29.6461 36.7298 29.4465 37.035C27.8494 40.2907 29.5463 44.3605 29.5463 44.3605C29.5463 44.3605 33.7387 43.2414 35.236 39.9855C35.4356 39.6804 35.5354 39.2734 35.6352 38.9681C35.8349 39.3751 36.0345 39.7821 36.2342 40.0872C38.0309 43.1396 42.3231 43.9536 42.3231 43.9536C42.3231 43.9536 43.6207 39.7821 41.824 36.628C41.6244 36.221 41.4247 35.8141 41.1253 35.4071M35.6352 32.9651C35.5354 32.8634 35.4356 32.7617 35.236 32.66C35.236 32.66 35.1362 32.66 35.1362 32.66C35.1362 32.5583 35.1362 32.5583 35.1362 32.4565C35.1362 32.253 35.0363 32.0494 34.9365 31.846C35.0363 31.846 35.0363 31.7443 35.0363 31.7443C35.1362 31.846 35.236 31.9478 35.4356 32.0494C35.4356 32.0494 35.5354 32.0494 35.5354 32.0494C35.5354 32.253 35.6352 32.5583 35.7351 32.7617C35.7351 32.7617 35.7351 32.7617 35.6352 32.7617C35.7351 32.8634 35.7351 32.9651 35.6352 32.9651"/>
	<path fill="#5A64A7" d="M31.7423 32.3547C31.7423 33.7791 32.441 35 33.6388 35.7123C34.8367 36.4245 36.2341 36.4245 37.432 35.7123C38.6298 35 39.3285 33.7791 39.3285 32.3547C39.3285 30.9303 38.6298 29.7094 37.432 28.9971C36.2341 28.2849 34.8367 28.2849 33.6388 28.9971C32.441 29.7094 31.7423 30.9303 31.7423 32.3547"/>
	<path fill="#4F5891" d="M33.6389 32.3547C33.6389 33.4739 34.5372 34.2878 35.5354 34.2878C36.6334 34.2878 37.4319 33.3721 37.4319 32.3547C37.4319 31.2355 36.5336 30.4216 35.5354 30.4216C34.4374 30.4216 33.6389 31.2355 33.6389 32.3547"/>
</svg>
