<?xml version="1.0" encoding="utf-8" ?>
<svg xmlns="http://www.w3.org/2000/svg" xmlns:xlink="http://www.w3.org/1999/xlink" width="102" height="122">
	<path fill="white" d="M48.7848 122C27.8352 122 10.2255 103.604 6.27845 77.9304C2.02781 68.9345 -2.12162 41.0373 1.21817 31.0307C1.72419 29.6156 2.93866 28.7059 4.25433 28.7059C6.98689 28.7059 7.59412 30.7274 9.61823 38.005C9.92185 39.1168 10.2255 40.3297 10.6303 41.5427C13.8689 33.9619 18.6255 27.3919 24.2931 22.4391C24.3943 16.8799 24.1918 8.49047 24.0906 3.84093C24.0906 2.83016 24.3943 1.81939 25.1027 1.11185C25.8111 0.404308 26.8232 0 27.8352 0C29.2521 0 30.5678 0.808616 31.175 2.12262C33.0979 6.1657 35.2233 10.4109 37.4498 14.7572C41.0932 13.5443 44.8378 12.9379 48.6836 12.9379C55.262 12.9379 61.7391 14.8583 67.6091 18.396C69.4308 14.8583 71.0501 11.4217 72.6693 8.08616C73.2766 6.87324 74.491 6.06462 75.9079 6.06462C76.8188 6.06462 77.7296 6.46893 78.4381 7.17647C79.1465 7.88401 79.4501 8.7937 79.4501 9.7034C79.3489 13.4432 79.1465 22.4391 79.2477 28.6048C85.2188 35.9834 89.2671 45.2825 91.0888 55.4913C92.202 53.3687 93.1129 51.2461 93.8213 49.6288C95.137 46.5965 95.8454 44.8782 98.072 44.8782C99.2864 44.8782 100.703 45.6868 101.209 47.4051C103.739 58.3215 100.197 69.9453 90.5827 82.0746C85.32 105.727 68.2163 122 48.7848 122"/>
	<path fill="#7EEA78" d="M27.1539 26.1515C26.5467 30.8011 25.6358 35.3495 24.3007 39.6959C24.3007 40.2012 24.5226 40.6055 25.0286 40.6055L49.1155 40.1002C49.7227 40.1002 50.0263 39.3927 49.6216 38.9883C46.3829 34.9452 43.3468 30.8011 40.513 26.5558C36.1612 18.975 32.113 11.1921 28.3684 3.30812C28.0647 2.60058 27.0527 2.87555 27.0527 3.61135C27.3563 9.47381 27.5587 21.4009 27.1539 26.1515"/>
	<path fill="#2D1B0A" d="M25.0281 41.6438C24.5222 41.6438 24.0163 41.4414 23.7128 40.9357C23.3713 40.531 23.3713 39.9241 23.3713 39.4183C24.7246 35.0686 25.6352 30.6177 26.2423 26.0657C26.647 21.4125 26.3434 9.98187 26.2423 3.60903C26.2423 2.79979 26.7482 2.09169 27.5576 1.8373C28.367 1.68707 29.1765 2.09169 29.48 2.79979C33.1225 10.5888 37.1696 18.3778 41.5203 25.9645C44.2522 30.112 47.2876 34.3605 50.5253 38.3056C50.9041 38.8114 51.0312 39.5195 50.7276 40.1264C50.4241 40.7334 49.9182 41.138 49.21 41.138L25.0281 41.6438M28.1647 5.02522C28.367 11.6004 28.4682 21.8171 28.1647 26.268C27.5576 30.82 26.647 35.2709 25.4328 39.6206L48.5017 39.1149C45.3651 35.1698 42.4309 31.1235 39.8003 27.0773C35.5508 19.794 31.7059 12.4096 28.1647 5.02522"/>
	<path fill="#7EEA78" d="M78.7686 90.3629C84.9421 83.894 102.754 67.0142 98.2001 47.9106C97.6941 45.5858 93.4434 63.2743 85.3469 65.3969L78.7686 90.3629"/>
	<path fill="#2D1B0A" d="M76.7445 93.9005L84.5373 64.5882C90.2048 63.1731 93.747 54.7837 95.67 50.2352C96.8844 47.4051 97.188 46.6893 98.2001 46.6893C98.4025 46.6893 99.0097 46.7986 99.2122 47.7083C103.564 66.2054 87.5735 82.782 80.6915 89.8574C80.2867 90.3628 79.7807 90.7671 79.4771 91.1714L76.7445 93.9005M86.1566 66.2054L80.6915 86.9262C87.8771 79.4465 99.8194 65.9022 97.6941 50.6395C97.5929 50.7406 97.5929 50.9428 97.4917 51.0438C95.4675 55.5923 91.8241 64.1839 86.1566 66.2054"/>
	<path fill="#7EEA78" d="M8.9376 76.4142L10.7593 50.6395C7.92554 44.5749 4.88938 29.5144 4.18093 31.7381C1.04357 40.8351 5.09179 68.328 8.9376 76.4142"/>
	<path fill="#2D1B0A" d="M9.64526 80.3562L8.02597 76.8185C4.07895 68.328 0.03072 40.8351 3.1681 31.4349C3.47171 30.5252 4.18015 30.5252 4.38256 30.5252C5.49583 30.5252 5.90065 31.536 7.82356 38.4092C8.93682 42.4523 10.3537 47.4051 11.6694 50.2352L9.64526 80.3562M4.48377 34.4672C2.96569 43.362 5.39462 61.5559 8.22838 71.4614L9.64526 50.8417C8.22838 47.8094 6.90954 43.1598 5.79944 38.9146C5.39462 37.3984 4.88859 35.7812 4.48377 34.4672"/>
	<path fill="#F24080" d="M8.53195 67.2162C8.53195 95.6189 26.5466 118.664 48.8118 118.664C71.077 118.664 89.0917 95.6189 89.0917 67.2162C89.0917 38.8136 71.077 15.768 48.8118 15.768C26.5466 15.768 8.53195 38.8136 8.53195 67.2162"/>
	<path fill="#2D1B0A" d="M48.8118 119.675C26.0405 119.675 7.5199 96.1242 7.5199 67.2162C7.5199 38.3082 26.0405 14.7572 48.8118 14.7572C71.5831 14.7572 90.1037 38.3082 90.1037 67.2162C90.1037 96.1242 71.5831 119.675 48.8118 119.675M48.8118 16.7787C27.1538 16.7787 9.54401 39.42 9.54401 67.2162C9.54401 95.0124 27.1538 117.653 48.8118 117.653C70.4698 117.653 88.0796 95.0124 88.0796 67.2162C88.0796 39.42 70.4698 16.7787 48.8118 16.7787"/>
	<path fill="#7EEA78" d="M76.3396 33.0522C75.9348 27.9984 76.2384 14.7572 76.4408 9.40015C76.4408 8.90525 75.7325 8.69261 75.5301 9.19799C71.7854 17.3852 67.5348 25.4713 62.9805 33.3554C60.1468 37.8027 57.0094 42.048 53.6696 46.1922C53.366 46.4954 53.6696 47.0009 54.0744 47.0009L78.9711 47.5061C79.2747 47.5061 79.5782 47.2029 79.4968 46.8997C77.8577 42.4524 76.9469 37.8027 76.3396 33.0522"/>
	<path fill="#2D1B0A" d="M78.7936 48.517L53.8971 48.0112C53.2898 48.0112 52.7838 47.7077 52.5814 47.1008C52.4484 46.595 52.4484 45.9881 52.7838 45.4823C56.1236 41.4362 59.261 37.0865 62.0947 32.7369C66.6489 24.8468 70.7984 16.7544 74.543 8.66206C74.8466 8.05514 75.555 7.65052 76.2635 7.8002C76.9719 8.05514 77.478 8.66206 77.3767 9.37015C77.1743 14.7313 76.8708 27.8814 77.2756 32.9392C77.8829 37.5923 78.7936 42.2454 80.1093 46.595C80.2105 47.1008 80.1093 47.5054 79.907 47.9101C79.7045 48.3147 79.2997 48.517 78.7936 48.517M55.0103 45.9881L78.0853 46.4939C76.8708 42.1442 75.9599 37.6934 75.3526 33.1415C74.9478 28.6907 75.1502 18.1706 75.3526 11.899C71.8104 19.2833 67.9646 26.6676 63.8152 33.8496C61.0827 37.9969 58.1477 42.1442 55.0103 45.9881"/>
	<path fill="#7EEA78" d="M76.947 51.6502C75.0241 59.8375 70.8746 67.0139 64.8023 72.371L83.3229 74.6958C83.3229 57.3106 76.947 51.6502 76.947 51.6502"/>
	<path fill="#2D1B0A" d="M84.335 75.8077L62.4746 73.0786L64.0939 71.5624C69.9638 66.3064 74.012 59.3321 75.9349 51.347L76.3398 49.7298L77.5542 50.8417C77.8579 51.0438 84.335 56.9063 84.335 74.5948L84.335 75.8077M67.0289 71.6635L82.3109 73.584C82.1085 62.2634 79.0723 56.2998 77.453 53.874C75.4289 60.7472 71.8867 66.8118 67.0289 71.6635"/>
	<path fill="#7EEA78" d="M22.1947 61.2528L33.4285 55.4914C29.1779 52.6612 25.8381 48.6182 23.7128 43.5643C21.5875 38.5104 20.2718 55.6935 22.1947 61.2528"/>
	<path fill="#2D1B0A" d="M21.5875 62.7894L21.1827 61.6776C19.867 57.7355 19.5634 42.9783 22.3971 41.8664C22.9032 41.7579 23.814 41.5632 24.5224 43.2815C26.6478 48.1332 29.8864 52.0751 33.9346 54.7033L35.3514 55.6129L21.5875 62.7894M22.9032 44.5955C22.1947 47.5267 21.7899 55.4108 22.802 59.8582L31.4044 55.4108C27.8622 52.6816 24.9273 48.9418 22.9032 44.5955"/>
	<path fill="#7EEA78" d="M40.1081 106.636L56.5034 100.268C49.5202 95.7198 43.7515 89.4531 39.6021 82.0744C35.4526 74.6958 36.2623 98.55 40.1081 106.636"/>
	<path fill="#2D1B0A" d="M39.6021 107.95C36.3635 101.077 34.137 81.6701 37.578 79.8507C38.59 79.3453 39.6021 79.9518 40.5129 81.569C44.5612 88.7455 50.2287 94.9112 57.1107 99.4596L58.73 100.571L39.6021 107.95M38.3876 81.9733C37.3756 84.8035 37.9828 98.55 40.7154 105.322L54.3781 100.066C48.0022 95.5176 42.6383 89.5541 38.7924 82.5798C38.59 82.2765 38.4888 82.0744 38.3876 81.9733"/>
</svg>
