<?xml version="1.0" encoding="utf-8" ?>
<svg xmlns="http://www.w3.org/2000/svg" xmlns:xlink="http://www.w3.org/1999/xlink" width="108" height="70">
	<path fill="white" d="M53.1987 70C46.5624 70 29.8713 68.7914 19.5148 57.5108C8.45447 45.5252 10.1638 35.8561 11.2698 30.0144C11.3704 29.3094 11.5715 28.6043 11.5715 27.8993C11.9737 24.8777 8.75612 21.8561 7.34844 20.8489C6.34295 20.2446 4.93527 19.6403 3.42704 18.9353C1.81826 18.3309 0.71222 17.1223 0.209477 15.5108C-0.293267 13.6978 0.108928 11.5827 1.41606 9.8705C4.93527 5.03597 11.0687 0 15.694 0C16.0962 0 16.3978 0 16.8 0.100719C20.3192 0.805755 22.3302 5.13669 22.9335 13.4964C23.1346 14.5036 24.9445 21.0504 27.6593 25.1799C29.8713 28.5036 42.1383 38.8777 54.4052 38.8777C56.014 38.8777 57.6228 38.6763 59.131 38.2734C73.8111 34.6475 87.1841 25.6835 89.0945 24.1727C94.0214 20.1439 98.2445 20.0432 98.7472 20.0432C103.976 20.2446 107.495 27.1942 107.596 27.295C108 27.8993 108.5 29.3094 107.193 35.8561C97.4401 68.8921 57.0195 69.8993 55.2096 69.8993C54.4052 70 54 70 53.1987 70"/>
	<path fill="#FFDA24" d="M8.75319 18.5394C8.75319 18.5394 15.0856 22.9711 14.2815 28.5107C13.5779 34.0503 9.95937 43.2157 21.418 55.7049C32.8767 68.0935 52.678 67.2018 54.5878 67.2018C56.4976 67.2018 94.5926 66.2804 103.639 35.4604C103.639 35.4604 104.845 29.9207 104.342 28.8129C103.84 27.705 101.025 23.374 98.2111 23.2733C98.2111 23.2733 94.6931 23.2733 90.4715 26.6978C88.3607 28.41 74.5902 37.5754 59.4125 41.4027C44.2348 45.1293 27.7504 31.6329 24.6345 26.9998C21.5185 22.3668 19.5082 14.8128 19.4077 13.9064C18.9052 6.95673 17.3974 3.53226 15.6887 3.17465C12.6733 2.62579 6.84342 7.05744 3.32541 11.7913C2.11924 13.4028 2.21975 15.6186 4.02901 16.3237C5.73776 17.0287 7.4465 17.7337 8.75319 18.5394"/>
	<path fill="#2D1B0A" d="M53.1806 68.1871C45.7425 68.1871 30.4643 66.7758 20.815 56.2918C10.462 45.0014 11.9697 36.332 13.0753 30.4852C13.1759 29.6788 13.3769 28.9731 13.4774 28.2675C14.0805 23.5295 8.75322 19.598 8.35116 19.2956C6.94396 18.4892 5.23521 17.6827 4.02904 17.2795C3.02389 16.8762 2.32029 16.1706 2.01875 15.1625C1.61669 13.9528 2.01875 12.4407 2.92338 11.231C6.5419 6.29149 12.6733 1.55355 16.2918 2.1891C19.4078 2.86405 20.4129 8.91248 20.815 13.852C20.9155 14.7593 22.9258 22.1182 25.8407 26.4529C28.9566 31.0901 44.9384 44.0942 59.513 40.4651C74.5902 36.7353 88.2602 27.5618 90.1699 25.9489C94.6931 22.3198 98.4121 22.3198 98.5126 22.3198C101.93 22.4206 105.046 27.461 105.448 28.3683C106.051 29.5779 105.348 33.5094 104.845 35.6264C95.4972 67.0782 56.4976 68.0863 54.7888 68.0863C54.0852 68.1871 53.5827 68.1871 53.1806 68.1871M15.2867 4.07373C12.7738 4.07373 7.54705 8.00521 4.33058 12.3399C3.82801 13.0456 3.62698 13.9528 3.82801 14.5577C3.92852 14.9609 4.23007 15.2633 4.63213 15.3641C5.93881 15.8682 7.84859 16.6746 9.35631 17.5819C9.75836 17.7835 16.1913 22.4206 15.4877 28.4691C15.3872 29.1747 15.2867 29.9812 15.0856 30.7876C14.0805 36.5336 12.6733 44.3966 22.3227 54.8805C32.0726 65.4653 48.0544 66.2718 54.4873 66.0701C56.3971 66.0701 93.9895 65.0621 102.935 35.1881C103.438 32.8038 103.84 29.7796 103.639 29.1747C103.036 27.8642 100.422 24.336 98.4121 24.2352C98.4121 24.2352 95.1957 24.2352 91.3761 27.461C89.3658 29.0739 75.2938 38.5498 59.9151 42.2796C44.3353 46.1103 27.3484 32.2997 24.1319 27.3602C20.9155 22.5214 18.8047 14.8601 18.7042 13.852C18.1011 6.19068 16.3923 4.17454 15.7892 4.07373C15.5882 4.07373 15.4877 4.07373 15.2867 4.07373"/>
	<path fill="#291A0F" d="M53.2811 54.187C41.3198 54.187 31.1679 50.1582 23.8303 42.5035C23.3278 41.8993 23.3278 40.9927 23.8303 40.4892C24.3329 39.8849 25.2375 39.8849 25.7401 40.3885C33.1782 48.2445 43.8327 51.8704 56.4975 51.1655C66.4485 50.5611 76.0979 45.0215 82.5308 40.5899C89.5668 35.6546 94.1905 30.8201 94.1905 30.7194C94.693 30.1151 95.5977 30.1151 96.1002 30.7194C96.6028 31.3237 96.6028 32.2302 96.1002 32.8345C95.8992 33.0359 91.2755 37.8705 84.0385 43.0071C77.4045 47.741 67.1521 53.4819 56.598 54.187C55.4924 54.0863 54.3867 54.187 53.2811 54.187"/>
</svg>
