<?xml version="1.0" encoding="utf-8" ?>
<svg xmlns="http://www.w3.org/2000/svg" xmlns:xlink="http://www.w3.org/1999/xlink" width="80" height="84">
	<path fill="white" d="M29.54 84C13.2357 84 3.89052 75.8221 0.808608 58.8606C-1.87564 44.1202 0 17.1635 41.5694 2.01923C43.6571 1.21154 47.6338 0.302885 47.8326 0.201923L49.4233 0.302885C53.9965 1.81731 58.2714 7.37019 59.5638 11.7115C59.9615 12.2163 61.4527 13.6298 62.6457 14.6394C66.9206 18.476 73.4821 24.3317 76.9617 33.1154C81.336 44.0192 80 56.2356 78.8506 62.5962C76.3652 75.8221 67.5171 83.0913 53.897 83.0913C51.1134 83.0913 48.0315 82.7885 44.9496 82.1827C39.084 83.3942 34.0137 84 29.54 84"/>
	<path fill="#FF81B8" d="M48.7352 2.9041C52.4147 4.11564 55.9947 9.06275 56.9892 12.4954C57.7848 15.2214 69.4199 21.7839 74.3923 34.0003C77.7734 42.3801 77.7734 52.6781 76.0828 61.6637C72.9006 78.3224 59.6742 81.856 45.0557 78.7262C21.1886 83.7743 7.66392 79.1301 3.88496 57.9281C0.10601 36.9281 9.45395 16.5339 42.7684 4.51948C44.8568 3.91372 48.7352 2.9041 48.7352 2.9041"/>
	<path fill="#2D1B0A" d="M29.7399 81.6779C22.9779 81.6779 17.7074 80.2644 13.6303 77.4375C8.16099 73.7019 4.68052 67.3413 2.99 58.1538C-0.0927 40.8894 4.28275 17.4663 42.4685 3.63461C44.4573 2.92788 48.3356 1.91826 48.5345 1.91826C53.0093 3.23076 56.8876 8.27884 58.0809 12.2163C58.2798 12.9231 59.9703 14.4375 61.6608 15.9519C65.8374 19.6875 72.1022 25.3413 75.4832 33.6202C79.6598 44.0192 78.3591 55.8317 77.2732 61.8894C75.9805 68.7548 72.8978 73.8029 68.224 77.0336C62.6552 80.8702 54.6999 81.7788 45.2529 79.8606C39.2863 81.0721 34.2148 81.6779 29.7399 81.6779M48.7333 4.03845C47.8384 4.24038 44.7557 5.04807 43.1646 5.65384C6.17215 19.0817 1.99558 41.4952 4.97884 57.9519C6.56992 66.5336 9.75206 72.4904 14.7242 75.9231C21.1879 80.3654 30.7343 80.9711 44.9545 77.9423C54.3021 79.8606 61.7602 78.9519 66.9312 75.5192C71.2072 72.6923 73.8922 68.0481 75.0855 61.6875C76.1793 55.8317 77.4721 44.524 73.395 34.5288C70.2128 26.6538 64.1469 21.2019 60.0697 17.5673C57.7826 15.5481 56.2909 14.1346 55.8932 12.9231C55.0976 9.59134 51.816 5.14903 48.7333 4.03845"/>
	<path fill="#2D1B0A" d="M44.8569 79.7596L44.2602 77.8414C44.7574 77.7404 56.3926 73.9039 55.4976 55.8318L57.4865 55.7308C58.481 75.5193 44.9563 79.7596 44.8569 79.7596"/>
</svg>
