<?xml version="1.0" encoding="utf-8" ?>
<svg xmlns="http://www.w3.org/2000/svg" xmlns:xlink="http://www.w3.org/1999/xlink" width="68" height="84">
	<path fill="white" d="M34 84C13.6999 84 0 71.5257 0 52.915C0 37.121 9.49992 23.3389 23.2998 18.5102L23.2998 17.1018C22.9998 15.794 21.5998 11.0659 20.7998 8.0479L19.2998 2.61557L29.5998 6.03593L34.1997 0L38.7997 5.93533L48.5996 2.61557L47.0996 8.0479C46.0996 11.7701 44.9996 15.9952 44.6996 17.1018L44.6996 18.6108C58.4995 23.4395 68 37.2216 68 53.0156C68.0995 71.5257 54.3996 84 34 84"/>
	<path fill="#FF1224" d="M41.7499 20.7235L41.7499 16.6996C41.7499 16.3978 44.2498 7.14267 44.2498 7.14267L37.7499 9.35585L34.25 4.8289L30.7501 9.45644L23.7502 7.14267C23.7502 7.14267 26.3501 16.4984 26.3501 16.6996L26.3501 20.7235C13.0503 24.3451 3.0505 37.4229 3.0505 52.9151C3.0505 71.2241 16.9503 80.9822 34.1 80.9822C51.1497 80.9822 65.1495 71.2241 65.1495 52.9151C64.9495 37.4229 55.0497 24.3451 41.7499 20.7235"/>
	<path fill="#2D1B0A" d="M34 82.0888C14.8503 82.0888 1.9505 70.4193 1.9505 53.0157C1.9505 37.6241 11.4503 24.1439 25.2501 20.0193L25.2501 16.9007C25.0501 16.0959 23.6502 10.9654 22.6502 7.54505L22.1502 5.73427L30.25 8.45044L34.15 3.3199L38.0499 8.34984L45.6498 5.73427L45.1498 7.54505C44.2498 10.8648 42.8498 16.1965 42.7499 16.9007L42.7499 20.1199C56.4496 24.2445 66.0495 37.6241 66.0495 53.1163C65.9495 70.3187 53.0497 82.0888 34 82.0888M25.0501 8.75224C27.2501 16.4983 27.2501 16.5989 27.2501 16.6995L27.2501 21.5283C13.2503 25.351 3.95047 38.1271 3.95047 53.0157C3.95047 69.4133 15.7503 80.0768 34 80.0768C52.2497 80.0768 64.0495 69.4133 64.0495 53.0157C64.0495 38.2277 54.7497 25.351 41.5499 21.7295L40.8499 16.6995C40.8499 16.4983 40.8499 16.2971 42.8498 8.75224L37.4499 10.563L34.35 6.43846L31.15 10.6636L25.0501 8.75224"/>
</svg>
