<?xml version="1.0" encoding="utf-8" ?>
<svg xmlns="http://www.w3.org/2000/svg" xmlns:xlink="http://www.w3.org/1999/xlink" width="84" height="86">
	<path fill="white" d="M64.0734 86C63.278 86 62.4826 85.8 61.6871 85.5L42 77.3L22.2135 85.4C21.418 85.7 20.722 85.9 19.9266 85.9C18.2363 85.9 16.6454 85.2 15.4522 84C14.1596 82.7 13.5631 81 13.6625 79.1L14.7562 56.4C14.7562 56.2 14.7562 56.1 14.5574 55.9L1.33319 38.3C0 36.5 -0.357122 34.2 0.338887 32.2C1.0349 30.2 2.62577 28.6 4.61437 28.1L25.0969 22.2C25.0969 22.2 25.1964 22.2 25.1964 22.1L36.7302 3C37.9234 1.1 39.912 0 42 0C44.1875 0 46.1761 1.1 47.2698 3L58.8036 22.1C58.9031 22.2 59.0025 22.2 59.0025 22.3L79.3856 28.2C81.3742 28.8 82.9651 30.3 83.6611 32.4C84.3571 34.5 84 36.8 82.6668 38.6L69.3432 56.2C69.2438 56.3 69.2438 56.4 69.2438 56.7L70.3375 79.3C70.4369 81.1 69.7409 82.9 68.5478 84.2C67.3546 85.3 65.7637 86 64.0734 86"/>
	<path fill="#FFE33E" d="M80.2282 36.4741L66.9075 54.0741C66.4104 54.7741 66.1122 55.5741 66.2116 56.4741L67.3051 79.174C67.4045 81.674 65.0187 83.5741 62.8317 82.674L43.0494 74.4741C42.2541 74.174 41.4589 74.174 40.6636 74.4741L20.8812 82.5741C18.6943 83.4741 16.3084 81.674 16.4079 79.0741L17.5014 56.3741C17.5014 55.4741 17.3025 54.674 16.8055 53.9741L3.48472 36.2741C1.99359 34.2741 2.88827 31.3741 5.17467 30.674L25.6529 24.7741C26.4481 24.5741 27.144 24.0741 27.5416 23.2741L39.073 4.27405C40.3654 2.17405 43.2482 2.17405 44.5405 4.27405L55.9725 23.3741C56.3702 24.0741 57.066 24.5741 57.8613 24.8741L78.2401 30.7741C80.8247 31.474 81.7194 34.474 80.2282 36.4741"/>
	<path fill="#2D1B0A" d="M63.9744 83.9C63.4772 83.9 62.8807 83.8 62.3835 83.6L42.6962 75.4C42.199 75.2 41.6025 75.2 41.1053 75.4L21.418 83.5C20.1254 84 18.6339 83.9 17.4408 83C16.1481 82.1 15.4521 80.6 15.5516 79L16.6453 56.3C16.6453 55.7 16.4464 55 16.1481 54.5L2.82441 36.9C1.8889 35.7 1.63124 34.1 2.1284 32.6C2.62555 31.2 3.71929 30.1 5.01189 29.7L25.4947 23.8C26.0912 23.6 26.489 23.3 26.7873 22.8L38.3212 3.8C39.1167 2.5 40.5087 1.7 41.851 1.7C43.3922 1.7 44.6848 2.5 45.4803 3.8L56.9148 22.9C57.2131 23.4 57.7103 23.8 58.2074 23.9L78.5907 29.8C79.9828 30.2 81.0765 31.3 81.5737 32.7C82.0708 34.2 81.8132 35.8 80.8777 37L67.5539 54.6C67.1562 55.1 66.9573 55.7 67.0568 56.4L68.1505 79.1C68.2499 80.7 67.4545 82.2 66.2613 83.1C65.5653 83.6 64.7698 83.9 63.9744 83.9M41.851 73.2C42.2985 73.2 42.8951 73.3 43.3922 73.5L63.179 81.7C63.875 82 64.571 81.9 65.1676 81.5C65.8636 81 66.2613 80.2 66.2613 79.2L65.1676 56.5C65.1676 55.4 65.4659 54.3 66.0624 53.4L79.3862 35.8C79.8833 35.1 80.0822 34.2 79.7839 33.3C79.4856 32.5 78.889 31.9 78.193 31.7L57.7103 25.9C56.6165 25.6 55.8211 24.9 55.2245 24L43.7899 5C43.3922 4.3 42.6962 3.9 41.851 3.9C41.1053 3.9 40.4093 4.3 40.0116 5L28.4776 24C27.881 24.9 27.0855 25.6 25.9918 25.9L5.50905 31.8C4.81303 32 4.21644 32.6 3.91815 33.4C3.61986 34.2 3.81872 35.2 4.31588 35.9L17.6396 53.6C18.2362 54.5 18.6339 55.6 18.5345 56.7L17.4408 79.4C17.4408 80.3 17.8385 81.1 18.5345 81.6C19.1311 82 19.9265 82.1 20.5231 81.9L40.2104 73.8C40.807 73.3 41.3042 73.2 41.851 73.2"/>
	<path fill="#FFFAE6" d="M55.1219 40.6L50.5491 46.7C50.3503 46.9 50.2509 47.2 50.2509 47.5L50.6486 55.4C50.6486 56.3 49.8533 56.9 49.0581 56.6L42.1988 53.8C41.9007 53.7 41.7017 53.7 41.4035 53.8L34.5444 56.6C33.7491 56.9 32.9538 56.3 33.0532 55.4L33.4509 47.5C33.4509 47.2 33.3515 46.9 33.1526 46.7L28.5798 40.6C28.0828 39.9 28.3368 38.9 29.1763 38.7L36.2343 36.7C36.5325 36.6 36.7314 36.4 36.9302 36.2L40.9065 29.6C41.3041 28.9 42.3976 28.9 42.7952 29.6L46.7716 36.2C46.871 36.4 47.1693 36.6 47.4675 36.7L54.5256 38.7C55.3207 38.9 55.619 39.9 55.1219 40.6"/>
	<path fill="#FFFAE6" d="M61.7824 74.3L50.8474 55.1C50.5492 54.6 49.9527 54.5 49.5551 54.7C49.0581 55.1 48.8592 55.7 49.1575 56.2L60.0924 75.4C60.3907 75.8966 60.9871 76 61.3847 75.8C61.8818 75.4 61.9812 74.7 61.7824 74.3M32.258 39.8L11.9786 33.8C11.4816 33.6 10.9845 34 10.7613 34.5C10.7613 35.2 10.8851 35.8 11.4816 35.9L31.7609 41.8C32.258 42 32.755 41.6 32.9539 41.1C33.0533 40.5 32.8544 39.9 32.258 39.8M73.2144 34.2L52.6368 38.6C52.1397 38.7 51.8415 39.2 51.9409 39.8C52.0403 40.5 52.5374 40.9 53.0344 40.8L73.612 36.4C74.1091 36.3 74.4073 35.8 74.3269 35.2C74.3269 34.5 73.8108 34.1 73.2144 34.2M39.9125 9.6L40.9065 32.1C40.9065 32.6 41.4036 33.1 41.9006 33.1C42.5441 33.1 42.9941 32.6 42.9941 32L42 9.5C42 9 41.503 8.5 41.006 8.5C40.3101 8.6 39.9125 9 39.9125 9.6M24.5041 75.1L35.1408 55.7C35.4391 55.2 35.2403 54.6 34.8426 54.3C34.3456 53.9 33.7491 54.1 33.4509 54.6L22.8142 74C22.5159 74.5 22.7148 75.1 23.1124 75.4C23.7088 75.7 24.3053 75.6 24.5041 75.1"/>
</svg>
