<?xml version="1.0" encoding="utf-8" ?>
<svg xmlns="http://www.w3.org/2000/svg" xmlns:xlink="http://www.w3.org/1999/xlink" width="128" height="112">
	<path fill="white" d="M72.3435 112C47.1632 112 25.1803 94.8233 18.6854 70.7157C18.0859 70.8161 17.3864 70.9166 16.587 70.9166L8.49336 70.9166C3.1975 70.9166 0 67.7022 0 62.3785L0 60.6709C0 55.3471 3.1975 52.1327 8.49336 52.1327C8.49336 52.1327 16.7869 52.1327 16.8868 52.1327C18.8852 23.1031 43.0664 0 72.3435 0C103.02 0 128 25.1121 128 56C128 86.8879 103.02 112 72.3435 112"/>
	<path fill="#F7BF5C" d="M8.29351 54.7444L16.3872 54.7444C20.0843 54.7444 21.8829 56.5525 21.8829 60.269L21.8829 61.9767C21.8829 65.6933 20.0843 67.5014 16.3872 67.5014L8.29351 67.5014C4.59639 67.5014 2.7978 65.6933 2.7978 61.9767L2.7978 60.269C2.7978 56.5525 4.59639 54.7444 8.29351 54.7444"/>
	<path fill="#2D1B0A" d="M16.4872 68.6062L8.39353 68.6062C4.1968 68.6062 1.8986 66.296 1.8986 62.0771L1.8986 60.3695C1.8986 56.1507 4.1968 53.8404 8.39353 53.8404L16.4872 53.8404C20.6839 53.8404 22.9821 56.1507 22.9821 60.3695L22.9821 62.0771C22.9821 66.1955 20.6839 68.6062 16.4872 68.6062M8.2936 55.7489C5.19602 55.7489 3.79712 57.1552 3.79712 60.2691L3.79712 61.9767C3.79712 65.0906 5.19602 66.4968 8.2936 66.4968L16.3873 66.4968C19.4849 66.4968 20.8838 65.0906 20.8838 61.9767L20.8838 60.2691C20.8838 57.1552 19.4849 55.7489 16.3873 55.7489L8.2936 55.7489"/>
	<path fill="#FCCF76" d="M19.4847 55.6484C19.4847 84.9795 43.0663 108.686 72.1436 108.686C101.221 108.686 124.803 84.9795 124.803 55.6484C124.803 26.3176 101.221 2.6115 72.1436 2.6115C42.9664 2.6115 19.4847 26.3176 19.4847 55.6484"/>
	<path fill="#2D1B0A" d="M72.1436 109.69C42.5667 109.69 18.4855 85.4815 18.4855 55.6484C18.4855 25.8152 42.5667 1.6071 72.1436 1.6071C101.721 1.6071 125.801 25.8152 125.801 55.6484C125.801 85.3811 101.721 109.69 72.1436 109.69M72.1436 3.51562C43.6658 3.51562 20.4839 26.8197 20.4839 55.6484C20.4839 84.2762 43.6658 107.58 72.1436 107.58C100.621 107.58 123.803 84.2762 123.803 55.6484C123.803 26.9201 100.621 3.51562 72.1436 3.51562"/>
	<path fill="#F7BF5C" d="M32.5745 49.2197C32.5745 51.9318 34.6729 54.0412 37.3708 54.0412C40.0687 54.0412 42.1671 51.9318 42.1671 49.2197C42.1671 46.5076 40.0687 44.3982 37.3708 44.3982C34.7728 44.3982 32.5745 46.5076 32.5745 49.2197"/>
	<path fill="#F7BF5C" d="M42.167 71.7202C42.167 74.4323 44.2654 76.5417 46.9633 76.5417C49.6612 76.5417 51.7596 74.4323 51.7596 71.7202C51.7596 69.0081 49.6612 66.8987 46.9633 66.8987C44.2654 66.8987 42.167 69.0081 42.167 71.7202"/>
	<path fill="#F7BF5C" d="M61.3756 85.5821C61.8516 87.2897 63.0507 88.5955 64.6495 89.1982C66.2482 89.7005 68.0468 89.3991 69.3458 88.1937C70.6448 87.0888 71.2443 85.2807 70.8446 83.5731C70.4449 81.8655 69.2459 80.5597 67.6471 79.957C66.0484 79.4547 64.2498 79.7245 62.9508 80.9615C61.7517 82.0664 61.1522 83.8745 61.3756 85.5821"/>
	<path fill="#F7BF5C" d="M77.3631 75.8386C77.7392 77.5462 79.0382 78.852 80.637 79.4547C82.2357 79.957 84.0343 79.6556 85.3333 78.4502C86.6323 77.3453 87.2318 75.5372 86.8321 73.8296C86.5324 72.122 85.2334 70.8162 83.6346 70.2135C82.0359 69.7112 80.2373 69.981 78.9383 71.218C77.7392 72.4233 77.1397 74.131 77.3631 75.8386"/>
	<path fill="#F7BF5C" d="M61.3756 62.9812C61.7517 64.6888 63.0507 65.9946 64.6495 66.5973C66.2482 67.0996 68.0468 66.7982 69.3458 65.5928C70.6448 64.4879 71.2443 62.6798 70.8446 60.9722C70.5449 59.2646 69.2459 57.9588 67.6471 57.3561C66.0484 56.8538 64.2498 57.1236 62.9508 58.3606C61.7517 59.5659 61.1522 61.374 61.3756 62.9812"/>
	<path fill="#F7BF5C" d="M42.167 23.5049C42.167 26.217 44.2654 28.3264 46.9633 28.3264C49.6612 28.3264 51.7596 26.217 51.7596 23.5049C51.7596 20.7928 49.6612 18.6834 46.9633 18.6834C44.2654 18.6834 42.167 20.7928 42.167 23.5049"/>
	<path fill="#F7BF5C" d="M51.8594 46.0054C51.8594 48.7175 53.9578 50.8269 56.6557 50.8269C59.3536 50.8269 61.452 48.7175 61.452 46.0054C61.452 43.2933 59.3536 41.1839 56.6557 41.1839C53.9578 41.1839 51.8594 43.2933 51.8594 46.0054"/>
	<path fill="#F7BF5C" d="M71.1444 37.2664C71.5441 38.974 72.7431 40.2798 74.3419 40.8825C75.9406 41.3848 77.7392 41.0834 79.0382 39.878C80.3372 38.7731 80.9367 36.965 80.537 35.2574C80.2373 33.5498 78.9383 32.244 77.3395 31.6413C75.7408 31.139 73.9422 31.4088 72.6432 32.6458C71.3442 33.8511 70.7447 35.5588 71.1444 37.2664"/>
	<path fill="#F7BF5C" d="M71.1444 17.9803C71.4441 19.6879 72.7431 20.9937 74.3419 21.5964C75.9406 22.0987 77.7392 21.7973 79.0382 20.5919C80.3372 19.487 80.9367 17.6789 80.537 15.9713C80.1373 14.2637 78.9383 12.9579 77.3395 12.3552C75.7408 11.8529 73.9422 12.1227 72.6432 13.3597C71.3442 14.565 70.7447 16.3731 71.1444 17.9803"/>
	<path fill="#F7BF5C" d="M103.12 62.9812C103.419 64.6888 104.718 65.9946 106.317 66.5973C107.916 67.0996 109.715 66.7982 111.014 65.5928C112.312 64.4879 112.912 62.6798 112.512 60.9722C112.213 59.2646 110.914 57.9588 109.315 57.3561C107.716 56.8538 105.917 57.1236 104.618 58.3606C103.32 59.5659 102.72 61.2736 103.12 62.9812"/>
</svg>
