<?xml version="1.0" encoding="utf-8" ?>
<svg xmlns="http://www.w3.org/2000/svg" xmlns:xlink="http://www.w3.org/1999/xlink" width="76" height="106">
	<path fill="white" d="M8.11749 106C3.95728 106 0.608812 102.584 0.608812 98.4646L0.202937 4.62354C0 1.70985 1.01469 0.604656 1.72497 0.303239L3.75434 0L39.7757 0L73.9706 0C73.9706 0 76 -0.199122 75.8985 3.61882L76 98.3641C76 102.483 72.6515 106 68.4913 106L8.11749 106"/>
	<path fill="#724F46" d="M9.8425 9.6488L31.7597 9.6488L31.7597 31.3504L9.8425 31.3504L9.8425 9.6488"/>
	<path fill="#3F2917" d="M32.7744 32.2547L8.8278 32.2547L8.8278 8.6441L32.7744 8.6441L32.7744 32.2547M10.8572 30.2453L30.745 30.2453L30.745 10.6535L10.8572 10.6535L10.8572 30.2453"/>
	<path fill="#84655D" d="M4.26174 36.7759L9.74104 31.3505C9.84251 31.2501 9.84251 31.2501 9.84251 31.1496L9.84251 9.74935C9.84251 9.64888 9.84251 9.54841 9.74104 9.54841L3.95733 3.82159C3.7544 3.71705 3.44999 3.71705 3.44999 4.02253L3.7544 36.5749C3.7544 36.8804 4.0588 36.9768 4.26174 36.7759"/>
	<path fill="#3F2917" d="M4.0588 37.8812C3.85586 37.8812 3.75439 37.8812 3.55145 37.7807C3.04411 37.5798 2.73971 37.0774 2.73971 36.5751L2.4353 4.02262C2.4353 3.52026 2.73971 3.01791 3.24705 2.81697C3.75439 2.61603 4.3632 2.7165 4.66761 3.11838L10.4513 8.8452C10.6543 9.04614 10.8572 9.44802 10.8572 9.74944L10.8572 31.1497C10.8572 31.4511 10.7557 31.853 10.4513 32.0539L4.97202 37.4793C4.76908 37.7807 4.3632 37.8812 4.0588 37.8812M4.46467 5.63015L4.76908 34.8671L8.82782 30.8482L8.82782 10.0508L4.46467 5.63015"/>
	<path fill="#3F2822" d="M31.7597 31.3505L37.239 36.7759C37.4419 36.9768 37.7464 36.8804 37.7464 36.5749L37.8478 4.02253C37.8478 3.71705 37.5434 3.71705 37.3405 3.82159L31.7597 9.54841C31.7597 9.64888 31.7597 9.64888 31.7597 9.74935L31.7597 31.1496C31.7597 31.2501 31.7597 31.3505 31.7597 31.3505"/>
	<path fill="#3F2917" d="M37.442 37.8812C37.1376 37.8812 36.7317 37.7807 36.5287 37.4793L31.0494 32.0539C30.8465 31.853 30.6436 31.4511 30.6436 31.1497L30.6436 9.74944C30.6436 9.44802 30.6436 9.04614 31.0494 8.8452L36.5287 3.11838C36.9346 2.7165 37.442 2.61603 37.9493 2.81697C38.4566 3.01791 38.7611 3.52026 38.7611 4.02262L38.6596 36.5751C38.6596 37.0774 38.3552 37.5798 37.8478 37.7807C37.8478 37.8812 37.6449 37.8812 37.442 37.8812M32.7744 30.8482L36.8332 34.8671L36.8332 5.73062L32.7744 9.95038L32.7744 30.8482"/>
	<path fill="#422922" d="M3.9153 37.0772L9.74104 31.4509C9.74104 31.4509 9.74104 31.4509 9.84251 31.4509L31.7597 31.3504C31.7597 31.3504 31.7597 31.3504 31.8612 31.3504L37.3405 36.8763C37.3405 36.8763 37.3405 36.9767 37.239 36.9767L4.0588 37.1777C3.9153 37.1777 3.9153 37.0772 3.9153 37.0772"/>
	<path fill="#3F2917" d="M3.36954 38.1824C2.95955 37.0772 2.95955 36.5749 3.26807 36.2734L9.35618 30.3457L32.0852 30.2452L38.3762 36.5749C37.9703 37.68 37.5644 37.9814 37.1586 37.9814L3.36954 38.1824M10.1679 32.3551L6.31213 36.173L34.9263 36.0725L31.2735 32.3551L10.1679 32.3551"/>
	<path fill="#705D57" d="M3.7544 3.62058L9.94399 9.44786L31.6583 9.54833L37.442 3.41963L3.7544 3.62058"/>
	<path fill="#3F2917" d="M31.7598 10.6535L9.63964 10.553L2.6383 3.92198L3.14564 2.61586L38.2538 2.51539L38.7611 3.72104L32.2671 10.553M10.3499 8.44315L31.2525 8.54362L35.1083 4.42433L6.29117 4.5248L10.3499 8.44315"/>
	<path fill="#724F46" d="M44.5448 9.6488L66.462 9.6488L66.462 31.3504L44.5448 31.3504L44.5448 9.6488"/>
	<path fill="#3F2917" d="M67.4767 32.2547L43.5301 32.2547L43.5301 8.6441L67.4767 8.6441L67.4767 32.2547M45.5595 30.2453L65.4473 30.2453L65.4473 10.6535L45.5595 10.6535L45.5595 30.2453"/>
	<path fill="#84655D" d="M38.964 36.7759L44.4433 31.3505C44.5448 31.2501 44.5448 31.2501 44.5448 31.1496L44.5448 9.74935C44.5448 9.64888 44.5448 9.54841 44.4433 9.54841L38.6596 3.82159C38.4566 3.71705 38.1522 3.71705 38.1522 4.02253L38.4566 36.5749C38.4566 36.8804 38.7611 36.9768 38.964 36.7759"/>
	<path fill="#3F2917" d="M38.7611 37.8812C38.5581 37.8812 38.4566 37.8812 38.2537 37.7807C37.7464 37.5798 37.442 37.0774 37.442 36.5751L37.1376 4.02262C37.1376 3.52026 37.442 3.01791 37.9493 2.81697C38.4566 2.61603 39.0654 2.7165 39.3699 3.11838L45.1536 8.8452C45.3565 9.04614 45.5594 9.44802 45.5594 9.74944L45.5594 31.1497C45.5594 31.4511 45.458 31.853 45.1536 32.0539L39.6743 37.4793C39.4713 37.7807 39.1669 37.8812 38.7611 37.8812M39.1669 5.63015L39.4713 34.8671L43.5301 30.8482L43.5301 10.0508L39.1669 5.63015"/>
	<path fill="#3F2822" d="M66.4874 31.3505L72.0428 36.7759C72.2457 36.9768 72.5501 36.8804 72.5501 36.5749L72.6516 4.02253C72.6516 3.71705 72.3472 3.71705 72.1443 3.82159L66.6649 9.54841C66.4874 9.64888 66.4874 9.64888 66.4874 9.74935L66.4874 31.1496C66.4874 31.2501 66.4874 31.3505 66.4874 31.3505"/>
	<path fill="#3F2917" d="M72.1443 37.8812C71.8399 37.8812 71.434 37.7807 71.231 37.4793L65.7517 32.0539C65.5488 31.853 65.3459 31.4511 65.3459 31.1497L65.3459 9.74944C65.3459 9.44802 65.3459 9.04614 65.7517 8.8452L71.231 3.11838C71.6369 2.7165 72.1443 2.61603 72.6516 2.81697C73.1589 3.01791 73.4634 3.52026 73.4634 4.02262L73.3619 36.5751C73.3619 37.0774 73.0575 37.5798 72.5501 37.7807C72.5501 37.8812 72.3472 37.8812 72.1443 37.8812M67.4767 30.8482L71.5355 34.8671L71.5355 5.73062L67.4767 9.95038L67.4767 30.8482"/>
	<path fill="#422922" d="M38.6175 37.0772L44.4432 31.4509C44.4432 31.4509 44.4432 31.4509 44.5447 31.4509L66.4619 31.3504C66.4619 31.3504 66.4619 31.3504 66.5634 31.3504L72.0427 36.8763C72.0427 36.8763 72.0427 36.9767 71.9412 36.9767L38.761 37.1777C38.6175 37.1777 38.6175 37.0772 38.6175 37.0772"/>
	<path fill="#3F2917" d="M38.0717 38.1824C37.6618 37.0772 37.6618 36.5749 37.9703 36.2734L44.0584 30.3457L66.8889 30.2452L73.0784 36.5749C72.6725 37.68 72.2666 37.9814 71.8607 37.9814L38.0717 38.1824M44.8701 32.3551L41.0143 36.173L69.6284 36.0725L65.9756 32.3551L44.8701 32.3551"/>
	<path fill="#705D57" d="M38.4566 3.62058L44.6462 9.44786L66.3605 9.54833L72.1442 3.41963L38.4566 3.62058"/>
	<path fill="#3F2917" d="M66.462 10.6535L44.2403 10.553L37.239 4.02245L37.7463 2.71633L72.753 2.61586L73.2604 3.82151L66.7664 10.754M45.0521 8.44315L65.9546 8.54362L69.8104 4.42433L40.9933 4.5248L45.0521 8.44315"/>
	<path fill="#724F46" d="M10.0455 43.7084L31.9627 43.7084L31.9627 65.41L10.0455 65.41L10.0455 43.7084"/>
	<path fill="#3F2917" d="M32.8759 66.3142L8.9293 66.3142L8.9293 42.6032L32.8759 42.6032L32.8759 66.3142M11.0601 64.3048L30.948 64.3048L30.948 44.6126L11.0601 44.6126L11.0601 64.3048"/>
	<path fill="#84655D" d="M4.46468 70.8353L9.94398 65.4099C10.0455 65.3094 10.0455 65.3094 10.0455 65.2089L10.0455 43.8087C10.0455 43.7083 10.0455 43.6078 9.94398 43.6078L4.16027 37.881C3.95734 37.7764 3.65293 37.7764 3.65293 38.0819L3.95734 70.6343C3.95734 70.9398 4.26174 71.0362 4.46468 70.8353"/>
	<path fill="#3F2917" d="M4.26174 71.9406C4.0588 71.9406 3.95733 71.9406 3.75439 71.8401C3.24705 71.6392 2.94265 71.1368 2.94265 70.6345L2.63824 38.082C2.63824 37.5797 2.94265 37.0773 3.44999 36.8764C3.95733 36.6754 4.56614 36.7759 4.87055 37.1778L10.6543 42.9046C10.8572 43.1055 11.0601 43.5074 11.0601 43.8088L11.0601 65.2091C11.0601 65.5105 10.9587 65.9124 10.6543 66.1133L5.17496 71.5387C4.87055 71.8401 4.56614 71.9406 4.26174 71.9406M4.66761 39.6895L4.97202 68.9265L9.03076 64.9076L9.03076 44.1102L4.66761 39.6895"/>
	<path fill="#3F2822" d="M31.9176 65.4099L37.442 70.8353C37.645 71.0362 37.9494 70.9398 37.9494 70.6343L38.0508 38.0819C38.0508 37.7764 37.7464 37.7764 37.5435 37.881L32.0642 43.6078C31.9176 43.7083 31.9176 43.7083 31.9176 43.8087L31.9176 65.2089C31.9176 65.3094 31.9176 65.4099 31.9176 65.4099"/>
	<path fill="#3F2917" d="M37.645 71.9406C37.3406 71.9406 36.9347 71.8401 36.7317 71.5387L31.2524 66.1133C31.0495 65.9124 30.8466 65.5105 30.8466 65.2091L30.8466 43.8088C30.8466 43.5074 30.8466 43.1055 31.2524 42.9046L36.7317 37.1778C37.1376 36.7759 37.645 36.6754 38.1523 36.8764C38.6596 37.0773 38.9641 37.5797 38.9641 38.082L38.8626 70.6345C38.8626 71.1368 38.5582 71.6392 38.0508 71.8401C38.0508 71.9406 37.8479 71.9406 37.645 71.9406M32.8759 64.9076L36.9347 68.9265L36.9347 39.79L32.8759 44.0098L32.8759 64.9076"/>
	<path fill="#422922" d="M3.9153 70.534L9.74104 64.9076C9.74104 64.9076 9.74104 64.9076 9.84251 64.9076L31.7597 64.8071C31.7597 64.8071 31.7597 64.8071 31.8612 64.8071L37.3405 70.333C37.3405 70.333 37.3405 70.4335 37.239 70.4335L4.0588 70.6344C3.9153 70.7349 3.9153 70.6344 3.9153 70.534"/>
	<path fill="#3F2917" d="M3.36954 71.7396C2.95955 70.6344 2.95955 70.1321 3.26807 69.8307L9.35618 63.9029L32.0852 63.8024L38.3762 70.1321C37.9703 71.2372 37.5644 71.5387 37.1586 71.5387L3.36954 71.7396M10.1679 65.9123L6.31213 69.7302L34.9263 69.6297L31.2735 65.9123L10.1679 65.9123"/>
	<path fill="#705D57" d="M3.7544 37.5796L9.94399 43.4069L31.6583 43.5074L37.442 37.3787L3.7544 37.5796"/>
	<path fill="#3F2917" d="M31.7598 44.6126L9.7411 44.5121L2.6383 37.881L3.14564 36.5749L38.2538 36.4744L38.7611 37.6801L32.3686 44.5121M10.3499 42.5027L31.2525 42.6031L35.1083 38.4839L6.29117 38.5843L10.3499 42.5027"/>
	<path fill="#724F46" d="M44.7478 43.7084L66.665 43.7084L66.665 65.41L44.7478 65.41L44.7478 43.7084"/>
	<path fill="#3F2917" d="M67.5782 66.3142L43.6316 66.3142L43.6316 42.6032L67.5782 42.6032L67.5782 66.3142M45.7624 64.3048L65.6503 64.3048L65.6503 44.6126L45.7624 44.6126L45.7624 64.3048"/>
	<path fill="#84655D" d="M39.167 70.8353L44.6463 65.4099C44.7478 65.3094 44.7478 65.3094 44.7478 65.2089L44.7478 43.8087C44.7478 43.7083 44.7478 43.6078 44.6463 43.6078L38.8626 37.881C38.6596 37.7764 38.3552 37.7764 38.3552 38.0819L38.6596 70.6343C38.6596 70.9398 38.9641 71.0362 39.167 70.8353"/>
	<path fill="#3F2917" d="M38.9641 71.9406C38.7611 71.9406 38.6596 71.9406 38.4567 71.8401C37.9494 71.6392 37.645 71.1368 37.645 70.6345L37.3405 38.082C37.3405 37.5797 37.645 37.0773 38.1523 36.8764C38.6596 36.6754 39.2684 36.7759 39.5729 37.1778L45.3566 42.9046C45.5595 43.1055 45.7625 43.5074 45.7625 43.8088L45.7625 65.2091C45.7625 65.5105 45.661 65.9124 45.3566 66.1133L39.8773 71.5387C39.6743 71.8401 39.2684 71.9406 38.9641 71.9406M39.3699 39.6895L39.6743 68.9265L43.7331 64.9076L43.7331 44.1102L39.3699 39.6895"/>
	<path fill="#3F2822" d="M66.6198 65.4099L72.1442 70.8353C72.3472 71.0362 72.6516 70.9398 72.6516 70.6343L72.753 38.0819C72.753 37.7764 72.4486 37.7764 72.2457 37.881L66.7664 43.6078C66.6198 43.7083 66.6198 43.7083 66.6198 43.8087L66.6198 65.2089C66.6198 65.3094 66.6198 65.4099 66.6198 65.4099"/>
	<path fill="#3F2917" d="M72.3472 71.9406C72.0427 71.9406 71.6369 71.8401 71.4339 71.5387L65.9546 66.1133C65.7517 65.9124 65.5488 65.5105 65.5488 65.2091L65.5488 43.8088C65.5488 43.5074 65.5488 43.1055 65.9546 42.9046L71.4339 37.1778C71.8398 36.7759 72.3472 36.6754 72.8545 36.8764C73.3618 37.0773 73.6663 37.5797 73.6663 38.082L73.5648 70.6345C73.5648 71.1368 73.2604 71.6392 72.753 71.8401C72.753 71.9406 72.5501 71.9406 72.3472 71.9406M67.5781 64.9076L71.6369 68.9265L71.6369 39.79L67.5781 44.0098L67.5781 64.9076"/>
	<path fill="#422922" d="M38.6175 70.534L44.4432 64.9076C44.4432 64.9076 44.4432 64.9076 44.5447 64.9076L66.4619 64.8071C66.4619 64.8071 66.4619 64.8071 66.5634 64.8071L72.0427 70.333C72.0427 70.333 72.0427 70.4335 71.9412 70.4335L38.761 70.6344C38.6175 70.7349 38.6175 70.6344 38.6175 70.534"/>
	<path fill="#3F2917" d="M38.0717 71.7396C37.6618 70.6344 37.6618 70.1321 37.9703 69.8307L44.0584 63.9029L66.8889 63.8024L73.0784 70.1321C72.6725 71.2372 72.2666 71.5387 71.8607 71.5387L38.0717 71.7396M44.8701 65.9123L41.0143 69.7302L69.6284 69.6297L65.9756 65.9123L44.8701 65.9123"/>
	<path fill="#705D57" d="M38.4566 37.5797L44.6462 43.4069L66.3605 43.5074L72.1442 37.3787L38.4566 37.5797"/>
	<path fill="#3F2917" d="M66.462 44.6126L44.3418 44.5121L37.239 37.9815L37.7463 36.6754L72.753 36.5749L73.2604 37.7806L66.8678 44.7131M45.0521 42.5027L65.9546 42.6032L69.8104 38.4839L40.9933 38.5844L45.0521 42.5027"/>
	<path fill="#FFCB27" d="M3.7544 58.7789L72.6516 58.7789L72.6516 98.7662C72.6516 101.077 70.8252 102.986 68.4914 102.986L7.91461 102.986C5.58084 102.986 3.7544 101.077 3.7544 98.7662L3.7544 58.7789"/>
	<path fill="#2D1B0A" d="M68.5929 103.991L8.0161 103.991C5.17498 103.991 2.8412 101.68 2.8412 98.7662L2.8412 57.7742L73.7678 57.7742L73.7678 98.7662C73.6663 101.68 71.434 103.991 68.5929 103.991M4.7691 59.7836L4.7691 98.7662C4.7691 100.575 6.18966 101.981 7.91463 101.981L68.4914 101.981C70.2164 101.981 71.6369 100.575 71.6369 98.7662L71.6369 59.7836L4.7691 59.7836"/>
	<path fill="#D1E593" d="M4.87048 59.1806L71.8398 59.1806C72.753 59.1806 72.9559 60.3863 72.2457 60.6877L22.0187 84.9012C21.6129 85.1021 21.2069 85.0015 20.9025 84.5996L4.1602 60.3863C3.85579 59.9844 4.26167 59.1806 4.87048 59.1806"/>
	<path fill="#2D1B0A" d="M21.6691 86.0064C21.0606 86.0064 20.452 85.705 20.1478 85.2026L3.4135 60.9893C3.0952 60.3864 3.0952 59.6831 3.31208 59.0803C3.61634 58.4775 4.22486 58.0756 4.9348 58.0756L71.8719 58.0756C72.7847 58.0756 73.4947 58.6784 73.7492 59.4822C73.9003 60.2859 73.4947 61.1902 72.6833 61.4916L22.4804 85.705C22.2776 86.0064 21.9733 86.0064 21.6691 86.0064M5.34048 60.1855L21.7705 83.997L71.0606 60.1855L5.34048 60.1855"/>
	<path fill="#FFF9E9" d="M20.2938 76.4617L36.4273 68.8259L38.5582 73.1461L22.4246 80.7819L20.2938 76.4617"/>
</svg>
