<?xml version="1.0" encoding="utf-8" ?>
<svg xmlns="http://www.w3.org/2000/svg" xmlns:xlink="http://www.w3.org/1999/xlink" width="108" height="108">
	<path fill="white" d="M25.8616 108C23.5615 108 21.7614 106.297 21.4614 103.993C20.9613 99.4842 19.7613 99.2839 17.2612 98.8831C16.8611 98.7829 16.5611 98.7829 16.1611 98.6827C13.761 98.1818 11.7609 96.8794 10.3608 94.6753C8.96075 92.5714 8.36072 89.9666 8.56073 87.9629C8.0607 87.462 6.66063 86.7607 5.46057 86.6605C2.46042 86.3599 0.460319 84.757 0 82.5529C-0.139712 81.551 0 79.0464 3.56047 77.4434C6.46062 76.141 13.561 74.3377 19.4613 72.9351L18.0612 71.5325C13.561 67.0241 13.561 59.7106 18.0612 55.2022L55.1631 18.0334C57.3632 15.8293 60.2633 14.6271 63.3635 14.6271C66.4636 14.6271 69.3638 15.8293 71.5639 18.0334L72.964 19.436C74.364 13.4249 76.1641 6.41187 77.4642 3.50649C78.8643 0.400742 80.8644 0 81.9644 0C83.8645 0 86.1646 1.4026 86.6647 5.41002C86.7647 6.61224 87.4647 8.01484 87.9647 8.51577C88.2647 8.51577 88.5647 8.41558 88.8648 8.41558C92.3649 8.41558 97.6652 10.82 98.6653 16.0297C98.7653 16.4304 98.7653 16.731 98.8653 17.1317C99.2653 19.7365 99.4653 20.9388 103.966 21.3395C106.166 21.5399 107.766 23.0427 108 25.1466C108.266 27.551 106.566 30.0557 104.066 30.9573C100.665 32.1596 94.165 33.7625 88.6648 34.9647L90.4648 36.7681C92.665 38.9722 93.865 41.8776 93.865 44.8831C93.865 47.9889 92.665 50.8942 90.4648 53.0983L53.363 90.2672C51.1629 92.4712 48.2627 93.6735 45.1626 93.6735C42.0624 93.6735 39.1623 92.4712 36.9622 90.2672L35.1621 88.4638C33.862 93.974 32.2619 100.486 31.1619 103.892C30.3618 106.397 28.1617 108 25.8616 108"/>
	<path fill="#FFC578" d="M27.4798 74.2131C27.4798 74.2131 9.38907 78.1203 4.59153 80.2242C1.69302 81.5266 2.69251 83.3299 5.59102 83.7307C8.08974 84.0312 11.8878 85.9348 11.388 88.2391C10.9882 90.1425 12.3875 95.0517 16.4854 95.8531C19.6838 96.4543 23.3819 96.1536 24.2814 103.768C24.4813 105.972 27.3798 105.271 28.0795 103.167C30.1784 97.1555 33.6766 80.4246 33.6766 80.4246L27.4798 74.2131"/>
	<path fill="#2D1B0A" d="M25.5808 106.097C25.4808 106.097 25.3809 106.097 25.2809 106.097C24.1815 105.996 23.3819 105.095 23.182 103.893C22.4824 97.8813 20.0836 97.4806 17.285 96.9797C16.8853 96.8795 16.5854 96.8795 16.2856 96.7793C14.4865 96.3786 12.8873 95.3767 11.7879 93.6735C10.4885 91.6698 10.0887 89.2654 10.3886 87.963C10.3886 87.8628 10.4885 87.5622 10.0887 87.0613C9.18921 85.8591 6.99034 84.9574 5.39116 84.757C3.29224 84.5567 1.99291 83.655 1.7729 82.3526C1.7729 81.6513 1.89296 80.4491 4.09183 79.4472C8.88936 77.3433 26.3804 73.5363 27.18 73.3359L34.6761 80.2487C34.4762 81.4509 30.978 97.5808 28.8791 103.592C28.4793 104.995 27.08 106.097 25.5808 106.097M27.08 75.3396C24.0816 76.0409 9.18921 79.347 4.99137 81.1504C3.99188 81.6513 3.79198 81.9518 3.79198 81.9518C3.79198 82.052 4.39167 82.553 5.69101 82.6531C7.68998 82.8535 10.4885 84.0557 11.7879 85.7589C12.3876 86.5604 12.5875 87.462 12.3876 88.2635C12.1877 88.9648 12.4875 90.8684 13.487 92.3711C14.0867 93.2728 15.0862 94.2747 16.6854 94.6754C16.9852 94.7756 17.385 94.7756 17.6848 94.8758C20.6833 95.3767 24.4813 95.9778 25.2809 103.492C25.2809 103.893 25.4808 103.893 25.5808 103.893C26.0805 103.993 26.8801 103.492 27.18 102.69C28.979 97.3804 32.0774 83.5548 32.6771 80.6494L27.08 75.3396"/>
	<path fill="#FFC578" d="M73.8559 27.7514C73.8559 27.7514 77.754 9.61791 79.8529 4.809C81.1522 1.90362 82.9513 2.90548 83.3511 5.81086C83.6509 8.3155 85.5499 12.1225 87.8487 11.6216C89.7477 11.2209 94.6452 12.6235 95.4448 16.7311C96.0445 19.937 95.7447 23.6439 103.341 24.5456C105.54 24.746 104.84 27.6514 102.741 28.3526C96.7441 30.4564 80.0528 33.9629 80.0528 33.9629L73.8559 27.7514"/>
	<path fill="#2D1B0A" d="M79.7566 35.0651L72.7565 28.0521C73.0565 26.8499 76.7566 9.31739 78.9566 4.4083C79.9566 2.0792 81.2567 2.0792 81.9567 2.0792C83.2567 2.3044 84.1567 3.60682 84.3567 5.71071C84.5567 7.31368 85.4567 9.51776 86.6568 10.4194C87.1568 10.8202 87.4568 10.72 87.5568 10.72C88.8568 10.4194 91.2569 10.8202 93.2569 12.1226C94.9569 13.2246 96.0569 14.8276 96.357 16.6309C96.457 16.9315 96.457 17.3322 96.557 17.6328C97.057 20.438 97.357 22.9426 103.457 23.5437C104.657 23.6439 105.557 24.4454 105.679 25.6476C105.857 27.1504 104.657 28.7534 103.057 29.3545C97.057 31.4584 80.9567 34.8647 80.2566 35.0651M74.9565 27.3508L80.4566 32.861C83.3567 32.2599 97.157 29.1541 102.457 27.3508C103.257 27.0502 103.757 26.2487 103.657 25.7478C103.657 25.6476 103.657 25.4473 103.257 25.4473C95.7569 24.6458 95.0569 20.8387 94.6569 17.8332C94.5569 17.5326 94.5569 17.1319 94.4569 16.8313C94.1569 15.2283 93.0569 14.2265 92.1569 13.6254C90.5568 12.6235 88.7568 12.323 88.0568 12.5233C87.1568 12.7237 86.3568 12.5233 85.5567 11.9222C83.8567 10.72 82.6567 7.91479 82.4567 5.8109C82.3567 4.50849 81.8567 4.00756 81.7567 3.90737C81.7567 3.90737 81.3567 4.00756 80.9567 5.1096C78.9566 9.41758 75.6566 24.3452 74.9565 27.3508"/>
	<path fill="#FFD757" d="M87.995 51.2073L50.9141 88.3761C47.6158 91.6823 42.2186 91.6823 38.8203 88.3761L19.93 69.4411C16.6317 66.1349 16.6317 60.7249 19.93 57.3186L57.011 20.1498C60.3093 16.8437 65.7065 16.8437 69.1048 20.1498L87.995 39.0849C91.3933 42.4912 91.3933 47.9012 87.995 51.2073"/>
	<path fill="#2D1B0A" d="M44.8422 91.8701C42.4435 91.8701 39.9447 90.9684 38.1457 89.0649L19.2554 70.1298C15.5573 66.423 15.5573 60.3116 19.2554 56.6048L56.3363 19.4359C60.0344 15.7291 66.1313 15.7291 69.8294 19.4359L88.7197 38.371C90.5187 40.1744 91.5182 42.5788 91.5182 45.0834C91.5182 47.6883 90.5187 49.9925 88.7197 51.7959L51.6387 88.9647C49.7397 90.9684 47.241 91.8701 44.8422 91.8701M63.0329 18.7346C61.1339 18.7346 59.1349 19.4359 57.7356 20.9387L20.6547 58.1076C17.7561 61.0129 17.7561 65.8218 20.6547 68.8274L39.5449 87.7625C42.4435 90.6679 47.241 90.6679 50.2394 87.7625L87.3204 50.5936C88.7197 49.1911 89.5193 47.2875 89.5193 45.2838C89.5193 43.2801 88.7197 41.3766 87.3204 39.974L68.4301 21.0389C66.9309 19.4359 65.0318 18.7346 63.0329 18.7346"/>
</svg>
