<?xml version="1.0" encoding="utf-8" ?>
<svg xmlns="http://www.w3.org/2000/svg" xmlns:xlink="http://www.w3.org/1999/xlink" width="84" height="116">
	<path fill="white" d="M40.6772 116C38.8455 116 37.1157 115.291 35.7929 113.974C34.47 112.657 33.7577 110.934 33.7577 109.111L33.7577 82.8716C25.6172 81.2507 18.189 77.2996 12.2871 71.4236C-4.0957 55.1127 -4.0957 28.5694 12.2871 12.2585C20.2241 4.35633 30.8068 0 42 0C53.1932 0 63.7759 4.35633 71.7129 12.2585C88.0957 28.5694 88.0957 55.1127 71.7129 71.4236C65.2005 77.9074 56.7547 82.0611 47.5966 83.2769L47.5966 109.111C47.5966 110.934 46.8843 112.657 45.5615 113.974C44.3404 115.291 42.6105 116 40.6772 116"/>
	<path fill="#FFC578" d="M40.5001 112.203C38.3104 112.203 36.5396 110.507 36.5396 108.412L36.5396 73.99C36.5396 71.8948 38.3104 70.1986 40.5001 70.1986C42.6854 70.1986 44.4606 71.8948 44.4606 73.99L44.4606 108.412C44.5604 110.507 42.7896 112.203 40.5001 112.203"/>
	<path fill="#2D1B0A" d="M40.5001 113.201C39.1459 113.201 37.8959 112.702 36.9584 111.804C36.0209 110.906 35.5001 109.709 35.5001 108.412L35.5001 73.9901C35.5001 72.6931 36.0209 71.4958 36.9584 70.5978C37.8959 69.6999 39.1459 69.201 40.5001 69.201C41.8543 69.201 43.1043 69.6999 44.0418 70.5978C44.9793 71.4958 45.5001 72.6931 45.5001 73.9901L45.5001 108.412C45.5001 109.709 44.9793 110.906 44.0418 111.804C43.2084 112.702 41.8543 113.201 40.5001 113.201M40.5001 71.1965C39.6668 71.1965 38.9376 71.4958 38.4168 71.9946C37.8959 72.4935 37.5834 73.1919 37.5834 73.9901L37.5834 108.412C37.5834 109.21 37.8959 109.908 38.4168 110.407C38.9376 110.906 39.6668 111.205 40.5001 111.205C41.3334 111.205 42.0626 110.906 42.5834 110.407C43.1043 109.908 43.4168 109.21 43.4168 108.412L43.4168 73.9901C43.4168 73.1919 43.1043 72.4935 42.5834 71.9946C42.0626 71.396 41.3334 71.1965 40.5001 71.1965"/>
	<path fill="#FFD9EA" d="M14.1616 69.6535C29.4385 84.9255 54.0853 84.9255 69.3622 69.6535C84.6391 54.3814 84.6391 29.7426 69.3622 14.4705C54.0853 -0.80151 29.4385 -0.80151 14.1616 14.4705C-1.01341 29.6407 -1.01341 54.3814 14.1616 69.6535"/>
	<path fill="#2D1B0A" d="M41.8 82.062C31.5136 82.062 21.329 78.1931 13.4868 70.3534C-2.09561 54.776 -2.09561 29.3226 13.4868 13.7451C29.0693 -1.83237 54.5307 -1.83237 70.1132 13.7451C85.6956 29.3226 85.6956 54.776 70.1132 70.3534C62.3729 78.0913 52.0864 82.062 41.8 82.062M41.8 4.07282C32.0228 4.07282 22.3474 7.73811 14.9127 15.1705C7.78345 22.2974 3.81146 31.8679 3.81146 42.062C3.81146 52.2306 7.78345 61.6993 14.9127 68.9281C22.0419 76.055 31.6154 80.0257 41.8 80.0257C51.9846 80.0257 61.4563 76.055 68.6873 68.9281C83.455 54.1651 83.455 30.0353 68.6873 15.1705C61.2526 7.73811 51.5772 4.07282 41.8 4.07282"/>
	<path fill="#FF5A9D" d="M35.154 66.2805C27.218 61.2533 22.3572 53.9137 21.8612 46.0713C21.4644 40.7425 23.25 36.0169 26.722 33.2017C31.5828 29.0794 36.642 29.0794 39.7172 30.487C42.098 31.4925 43.4868 33.4028 43.6852 35.5142C43.7844 36.3185 43.8836 38.1283 41.7012 38.2289C41.106 38.2289 37.5348 38.5305 35.0548 41.3457C33.8644 42.6528 32.4756 45.0658 32.7732 48.987C33.0708 54.0142 36.2452 58.3376 41.2052 60.449C43.3876 61.3539 45.7684 61.8566 48.1492 61.8566C52.8116 61.8566 57.7716 60.0468 61.8388 56.6283C67.0964 52.2044 69.874 45.1664 69.378 37.4245C68.6836 27.1691 62.6324 17.6175 52.6132 11.3838C45.3716 6.75876 37.9316 5.65278 31.2852 6.1555C22.754 8.76963 15.6116 14.4001 10.85 21.7397C12.2388 20.6338 31.0868 6.65821 48.6452 17.718C56.5812 22.7452 61.442 30.0848 61.938 37.9272C62.3348 43.256 60.5492 47.9816 57.0772 50.7968C52.2164 54.9191 47.1572 54.9191 44.082 53.5115C41.7012 52.5061 40.3124 50.5957 40.114 48.4843C40.0148 47.68 39.9156 45.8702 42.098 45.7696C42.6932 45.7696 46.2644 45.468 48.7444 42.6528C49.9348 41.3457 51.3236 38.9327 51.026 35.0115C50.7284 29.9843 47.554 25.7615 42.594 23.5495C36.146 20.7343 28.21 22.2425 21.9604 27.3702C16.7028 31.7941 13.9252 38.8321 14.4212 46.574C15.1156 56.8294 21.1668 66.3811 31.186 72.6148C37.4356 76.5359 43.7844 78.0441 49.6372 78.0441C50.53 78.0441 51.4228 78.0441 52.3156 77.9436C60.8468 75.3294 68.0884 69.699 72.85 62.2588C71.858 63.1637 52.6132 77.4408 35.154 66.2805"/>
</svg>
