<?xml version="1.0" encoding="utf-8" ?>
<svg xmlns="http://www.w3.org/2000/svg" xmlns:xlink="http://www.w3.org/1999/xlink" width="76" height="98">
	<path fill="white" d="M12.7318 98C7.19094 98 2.65747 93.5137 2.65747 88.0305L2.65747 37.4852C1.14632 35.8901 0.239624 33.8962 0 31.703C-0.264095 28.3133 1.24706 25.0234 3.96714 23.0295C3.96714 22.4313 3.96714 21.8332 4.06788 21.235C3.66491 19.3408 3.8664 17.3469 4.67235 15.6521C3.16119 13.1597 2.75822 10.0692 3.76565 7.27772C4.97458 3.68871 8.29912 1.09664 12.1274 0.797558C12.4296 0.797558 12.7318 0.797558 13.1348 0.797558C15.6534 0.797558 18.172 1.79451 19.9854 3.48932C20.7913 3.28993 21.698 3.19023 22.504 3.19023C23.9144 3.19023 25.3248 3.48932 26.6345 4.08749C26.9367 3.68871 27.2389 3.38962 27.5412 2.99084C29.3546 1.19634 31.8731 0.19939 34.3917 0.19939C35.6007 0.19939 36.8096 0.398779 37.9178 0.797558C40.6379 1.79451 42.6527 3.8881 43.6602 6.48016C43.7609 6.48016 43.8617 6.38047 43.9624 6.38047C44.9698 3.68871 47.1862 1.39573 50.007 0.498474C51.0145 0.0996948 52.1226 0 53.2308 0C55.8502 0 58.4695 1.09664 60.2829 2.99084C62.2978 5.08444 63.3052 7.87589 63.003 10.6673C65.723 12.6612 67.3349 16.0509 66.932 19.5402C66.932 19.5402 66.932 19.6399 66.932 19.6399C67.4357 20.3377 67.8387 21.1353 68.1409 21.9329C71.5662 22.6307 74.387 25.0234 75.4952 28.3133C76.4019 31.1048 76.0996 34.0956 74.4877 36.588L74.4877 88.0305C74.4877 93.5137 69.9543 98 64.4134 98L12.7318 98"/>
	<path fill="#FF5F45" d="M64.2164 94.6103L12.7565 94.6103C8.82903 94.6103 5.7072 91.5197 5.7072 87.6316L5.7072 28.8117L71.2657 28.8117L71.2657 87.6316C71.2657 91.5197 68.0432 94.6103 64.2164 94.6103"/>
	<path fill="#2D1B0A" d="M64.2166 95.6074L12.7566 95.6074C8.32561 95.6074 4.70025 92.0183 4.70025 87.6317L4.70025 27.8148L72.2729 27.8148L72.2729 87.6317C72.2729 92.0183 68.6476 95.6074 64.2166 95.6074M6.71434 29.8087L6.71434 87.6317C6.71434 90.9216 9.43335 93.6134 12.7566 93.6134L64.2166 93.6134C67.5397 93.6134 70.2588 90.9216 70.2588 87.6317L70.2588 29.8087L6.71434 29.8087"/>
	<path fill="#FFECD2" d="M14.2672 35.1924L24.3376 35.1924L24.3376 93.1151L14.2672 93.1151L14.2672 35.1924"/>
	<path fill="#FFECD2" d="M51.4271 35.1924L61.4975 35.1924L61.4975 93.1151L51.4271 93.1151L51.4271 35.1924"/>
	<path fill="#FFECD2" d="M32.8647 35.1924L42.9352 35.1924L42.9352 93.1151L32.8647 93.1151L32.8647 35.1924"/>
	<path fill="#FFF4C5" d="M32.9981 23.3287C33.6023 19.9391 31.4876 16.6492 28.1643 15.6522C24.8411 14.6553 21.3164 16.3501 19.9066 19.5403C18.396 16.3501 14.6698 14.755 11.3466 15.9513C8.02341 17.1477 6.11002 20.7367 7.11707 24.1263C4.39805 25.2229 2.68608 28.0144 2.87145 30.9055C3.1896 33.7967 5.30439 36.2891 8.22482 36.8872C11.1452 37.4854 14.1663 36.2891 15.5763 33.697C16.8853 35.1924 18.7987 36.0897 20.8129 36.0897C22.827 36.0897 24.7404 35.1924 26.0494 33.697C27.7614 36.1894 31.0848 37.286 34.0051 36.2891C36.9255 35.2921 38.7382 32.401 38.552 29.3104C38.3354 26.4193 36.1199 23.9269 32.9981 23.3287"/>
	<path fill="#2D1B0A" d="M9.83367 38.1832C9.22944 38.1832 8.72592 38.0835 8.12169 37.9838C4.79845 37.2859 2.28084 34.4944 2.04325 31.1049C1.77732 28.0144 3.38859 25.1231 6.10761 23.6278C5.50338 20.0387 7.61817 16.35 11.1428 15.054C14.3653 13.8577 17.9907 14.9543 20.0048 17.5464C21.9182 14.9543 25.3422 13.758 28.5647 14.6552C32.0894 15.6522 34.4056 18.9421 34.2042 22.5311C37.2253 23.4284 39.4408 26.1202 39.7715 29.3104C40.045 32.7997 37.9302 36.0897 34.5063 37.2859C31.5858 38.2829 28.2626 37.4854 26.1478 35.2921C24.7379 36.4883 22.9253 37.1862 21.0118 37.1862C19.0984 37.1862 17.3864 36.4883 15.9767 35.3918C14.3653 37.1862 12.1498 38.1832 9.83367 38.1832M13.7612 16.6491C13.0562 16.6491 12.452 16.7488 11.7471 16.9482C8.92733 17.9451 7.31606 21.0357 8.12169 23.9268L7.51747 25.1231C5.20127 26.1202 3.6907 28.4132 3.99282 30.9055C4.19422 33.3979 6.0069 35.4915 8.52451 35.99C11.0421 36.5881 13.5598 35.4915 14.8688 33.2981L15.5738 32.1019L16.4802 33.1984C17.5879 34.4944 19.1992 35.1924 20.9073 35.1924C22.6231 35.1924 24.2343 34.4944 25.3422 33.1984L26.9534 33.2981C28.464 35.4915 31.1829 36.3886 33.7006 35.4915C36.2183 34.5942 37.7288 32.2015 37.5274 29.6095C37.326 27.0173 35.3119 24.8241 32.6936 24.4254L31.6866 24.2259C32.3914 20.3378 30.6795 17.5464 27.759 16.7488C24.9394 15.9513 21.9182 17.347 20.7098 20.0387L19.8033 22.1323L18.897 20.0387C18.0914 17.8455 15.9767 16.6491 13.7612 16.6491"/>
	<path fill="#FFF4C5" d="M65.425 24.3254C65.2236 21.7334 63.5116 19.4404 60.994 18.4435C58.4764 17.5462 55.6567 18.0108 53.844 19.9389C52.0313 21.8331 51.3264 24.5248 52.2327 27.0172C49.6144 28.3132 48.1039 31.2043 48.4421 34.0956C49.0102 36.9866 51.2257 39.2796 54.2468 39.7781C57.1673 40.1769 60.0877 38.7812 61.3968 36.0894C63.713 38.183 67.137 38.3824 69.7553 36.6876C72.3736 34.9927 73.4814 31.8025 72.4743 28.928C71.3666 26.0203 68.5468 24.1261 65.425 24.3254"/>
	<path fill="#2D1B0A" d="M55.2537 40.8748C54.8509 40.8748 54.4481 40.8748 54.0453 40.7752C50.6213 40.2766 48.003 37.6847 47.4995 34.2951C46.996 31.2044 48.4058 28.2136 51.0242 26.6185C50.4199 24.0264 51.2256 21.235 53.1389 19.3408C55.3544 17.2472 58.577 16.5493 61.3967 17.646C63.9144 18.6429 65.8277 20.8362 66.3313 23.4283C69.453 23.528 72.2728 25.6216 73.3806 28.7122C74.4883 32.002 73.2799 35.6908 70.2587 37.6847C67.6404 39.3794 64.2165 39.3794 61.6989 37.6847C60.1883 39.6786 57.7714 40.8748 55.2537 40.8748M58.577 19.0417C57.0664 19.0417 55.5558 19.6399 54.5488 20.6368C52.9375 22.2319 52.3333 24.5249 53.1389 26.7182L52.6354 27.9146C50.3192 29.0032 49.1108 31.5035 49.5136 33.9959C49.9164 36.4883 51.8298 38.3825 54.3474 38.7813C56.865 39.18 59.282 37.884 60.4904 35.6908L61.0946 34.4944L62.1017 35.3916C64.1158 37.0864 66.9355 37.3856 69.151 35.8902C71.3665 34.4944 72.2728 31.7029 71.4672 29.2105C70.6615 26.7182 68.1439 25.1231 65.5256 25.3225L64.5186 25.4222C64.2165 22.2319 62.8066 20.238 60.6918 19.4405C59.9869 19.1414 59.282 19.0417 58.577 19.0417"/>
	<path fill="#FFF4C5" d="M59.3826 11.7639C60.3896 9.27157 59.7854 6.48012 57.872 4.58592C56.0594 2.69172 53.2396 1.99385 50.722 2.8911C48.2044 3.78836 46.3917 5.98164 46.1903 8.57371C43.1692 8.6734 40.6516 10.5676 39.846 13.4588C39.0403 16.2502 40.1481 19.3407 42.565 20.9359C45.0826 22.531 48.3051 22.4313 50.6213 20.6368C51.8298 23.4282 54.8509 25.123 57.872 24.6246C60.8932 24.2258 63.3101 21.7334 63.7129 18.7426C64.015 15.7517 62.303 12.8606 59.3826 11.7639"/>
	<path fill="#2D1B0A" d="M56.9657 25.8209C54.2467 25.8209 51.7297 24.4251 50.3193 22.1322C47.8016 23.6276 44.5791 23.5278 42.0615 21.833C39.2417 19.9389 37.9326 16.4496 38.9396 13.2593C39.846 10.2685 42.3636 8.17488 45.3847 7.7761C45.9889 5.18404 47.9023 2.99075 50.42 2.0935C53.3404 1.09655 56.4622 1.89411 58.6777 3.9877C60.591 5.8819 61.296 8.67336 60.6917 11.2654C63.5115 12.7608 65.1227 15.7516 64.8206 18.9419C64.4178 22.4312 61.6989 25.2227 58.1741 25.7211C57.6707 25.8209 57.2679 25.8209 56.9657 25.8209M51.0242 19.1413L51.5277 20.3377C52.5348 22.7304 55.1531 24.126 57.7714 23.827C60.3897 23.4282 62.4038 21.3346 62.7058 18.7425C63.0079 16.1504 61.4974 13.658 58.9798 12.7608L58.4762 11.4648C59.2819 9.37122 58.7784 6.97855 57.2679 5.38343C55.6566 3.78831 53.3404 3.19014 51.1249 3.9877C49.0101 4.68556 47.4995 6.67946 47.2981 8.87275L46.291 9.77C43.7734 9.8697 41.5579 11.4648 40.853 13.9571C40.1481 16.3498 41.0544 18.9419 43.1692 20.3377C45.284 21.7334 48.003 21.6336 50.0171 20.0385L51.0242 19.1413"/>
	<path fill="#FFF4C5" d="M41.0545 9.07225C40.8531 6.48018 39.1411 4.1872 36.7242 3.19025C34.2066 2.293 31.3869 2.75765 29.5742 4.68568C27.6608 6.48018 27.0566 9.27164 27.9629 11.764C25.3446 13.06 23.8341 15.9511 24.1723 18.8424C24.7404 21.7334 26.9559 24.0265 29.977 24.525C32.8974 24.9237 35.8179 23.528 37.127 20.8363C39.4432 22.9298 42.8672 23.1292 45.4855 21.4345C48.1038 19.7395 49.2116 16.5494 48.2045 13.6749C46.9961 10.7671 44.1763 8.87286 41.0545 9.07225"/>
	<path fill="#2D1B0A" d="M30.8833 25.6217C30.4805 25.6217 30.0777 25.6217 29.6749 25.5219C26.2509 25.0234 23.6326 22.4314 23.1291 19.0419C22.6256 15.9513 24.0354 12.9605 26.6537 11.3653C26.0495 8.77324 26.8552 5.98179 28.7685 4.08759C30.984 1.994 34.2066 1.29613 37.0262 2.39278C39.5439 3.38972 41.4572 5.58301 41.9608 8.17508C45.0826 8.27477 47.9024 10.3684 49.0101 13.459C50.1179 16.7488 48.9094 20.4375 45.8883 22.4314C43.27 24.1263 39.8461 24.1263 37.3284 22.4314C35.8178 24.4254 33.5016 25.6217 30.8833 25.6217M34.3073 3.7885C32.7967 3.7885 31.2861 4.38667 30.2791 5.38362C28.6678 6.97874 28.0636 9.27172 28.8692 11.465L28.3657 12.6614C26.0495 13.75 24.8411 16.2504 25.2439 18.7427C25.6467 21.2351 27.5601 23.1292 30.0777 23.528C32.5953 23.9268 35.0122 22.6309 36.2214 20.4375L36.8248 19.2411L37.8319 20.1385C39.8461 21.8332 42.6657 22.1324 44.8812 20.637C47.0967 19.2411 48.0031 16.4497 47.1974 13.9573C46.3918 11.465 43.8741 9.86989 41.2559 10.0693L40.2488 10.169C39.9467 6.97874 38.5368 4.98484 36.4221 4.18728C35.7171 3.8882 35.0122 3.7885 34.3073 3.7885"/>
	<path fill="#FFF4C5" d="M18.8996 6.69784C17.5904 4.40486 14.9721 3.10883 12.3538 3.36535C9.73547 3.707 7.41927 5.40181 6.61363 7.89418C5.70729 10.3865 6.41222 13.178 8.32561 14.9725C6.51293 17.3652 6.51293 20.5555 8.2249 22.9481C9.93688 25.3408 13.0587 26.3378 15.8784 25.4405C18.6982 24.5433 20.6115 21.9512 20.6115 18.9604C23.6327 19.7579 26.7545 18.4619 28.3658 15.8698C29.8763 13.178 29.4735 9.88808 27.258 7.69479C24.9418 5.50151 21.6186 5.10273 18.8996 6.69784"/>
	<path fill="#2D1B0A" d="M13.7635 26.8011C11.2459 26.8011 8.92973 25.6048 7.41916 23.5112C5.60649 21.0188 5.50578 17.6292 7.11705 15.0371C5.40508 12.9435 4.80085 10.1521 5.70719 7.56001C6.71423 4.66886 9.33255 2.67496 12.3537 2.3304C15.0727 2.0768 17.6911 3.27313 19.3022 5.36672C22.2227 4.07069 25.6467 4.66886 27.9629 6.96184C30.4804 9.45421 30.9839 13.3423 29.2721 16.3332C27.6607 19.0249 24.6397 20.5203 21.6185 20.1216C21.2157 23.0127 19.1008 25.4054 16.2812 26.3026C15.3749 26.6017 14.5692 26.8011 13.7635 26.8011M13.0586 4.27008C12.8572 4.27008 12.6558 4.27008 12.4544 4.27008C10.2389 4.46947 8.2248 5.96489 7.51987 8.15818C6.81494 10.2518 7.31846 12.6444 9.03043 14.2396L9.13114 15.5356C7.62057 17.5295 7.51987 20.3209 9.03043 22.3148C10.541 24.4084 13.1593 25.206 15.5763 24.5081C17.9932 23.7106 19.6044 21.5173 19.6044 19.0249L19.6044 17.7289L20.9136 18.028C23.4312 18.7258 26.1502 17.6292 27.4594 15.3362C28.7684 13.0432 28.3657 10.2518 26.5529 8.35757C24.6397 6.56306 21.8199 6.16428 19.5037 7.46031L18.0938 7.06154C16.986 5.36672 15.0727 4.27008 13.0586 4.27008"/>
	<path fill="#FFF4C5" d="M50.3194 24.3255C50.118 21.7334 48.406 19.4405 45.9891 18.4435C43.4715 17.5463 40.6518 18.0109 38.7384 19.9389C36.825 21.7334 36.2208 24.5249 37.1271 27.0173C34.5088 28.3133 32.9983 31.2044 33.3365 34.0956C33.9046 36.9867 36.1201 39.2797 39.1412 39.7782C42.0616 40.177 44.9821 38.7812 46.2912 36.0895C48.6074 38.1831 52.0314 38.3825 54.6497 36.6877C57.268 34.9928 58.3758 31.8026 57.3687 28.9281C56.261 26.0203 53.4412 24.1261 50.3194 24.3255"/>
	<path fill="#2D1B0A" d="M40.1481 40.8749C39.7453 40.8749 39.3425 40.8749 38.9397 40.7752C35.5157 40.2766 32.8974 37.6847 32.3939 34.2951C31.8904 31.2045 33.3002 28.2136 35.9185 26.6185C35.3143 24.0264 36.12 21.235 38.0333 19.2411C40.2488 17.1475 43.4714 16.4496 46.291 17.5463C48.8088 18.5432 50.722 20.7365 51.2257 23.3286C54.3475 23.528 57.1672 25.5219 58.2749 28.6124C59.3827 31.9024 58.1742 35.591 55.1531 37.585C52.5348 39.2798 49.1109 39.2798 46.5933 37.585C45.0826 39.6786 42.6657 40.8749 40.1481 40.8749M43.5721 19.0417C42.0615 19.0417 40.5509 19.6399 39.5439 20.6368C37.9326 22.2319 37.3284 24.6246 38.134 26.7182L37.6305 27.9146C35.3143 29.0112 34.1059 31.5036 34.5087 33.9959C34.9115 36.4883 36.8249 38.3825 39.3425 38.7813C41.8601 39.18 44.2771 37.884 45.4862 35.591L46.0896 34.3947L47.0967 35.292C49.1109 36.9867 51.9305 37.2859 54.146 35.7905C56.3615 34.3947 57.2679 31.6033 56.4622 29.1109C55.6567 26.6185 53.139 25.0234 50.5207 25.2228L49.5136 25.3225C49.2115 22.1322 47.8017 20.1383 45.6869 19.3408C44.8812 19.1414 44.2771 19.0417 43.5721 19.0417"/>
</svg>
