<?xml version="1.0" encoding="utf-8" ?>
<svg xmlns="http://www.w3.org/2000/svg" xmlns:xlink="http://www.w3.org/1999/xlink" width="96" height="98">
	<path fill="white" d="M12.962 98L4.75949 23.3715L0 7.52303L13.3671 5.51689L13.9747 7.32242L22.6835 3.71136L22.5823 0.702149L36.0506 1.70522L36.1519 4.61412L46.8861 3.61105L46.3797 8.72671L59.6456 9.32856L58.4304 13.4411L62.7848 13.4411L62.7848 0.702149L78.3797 0.702149L78.3797 9.72979L80.3038 0L96 0L91.5443 23.3715L83.7468 98"/>
	<path fill="#FFDA24" d="M22.1772 41.5775L15.2913 43.8846L3.94945 10.1814L11.2406 9.078L22.1772 41.5775"/>
	<path fill="#2D1B0A" d="M14.2785 45.7905L1.92415 8.97776L12.2533 7.47315L24.1014 42.5807L14.2785 45.7905M5.87352 11.4854L16.1014 41.9788L20.152 40.6748L10.1267 10.7833L5.87352 11.4854"/>
	<path fill="#FFDA24" d="M28.4559 52.5109L21.266 53.6143L15.8989 18.5068L21.5698 21.9172L28.4559 52.5109"/>
	<path fill="#2D1B0A" d="M19.9495 55.3195L13.8736 15.5978L22.8862 20.9141L30.1774 53.7146L19.9495 55.3195M17.8229 21.4157L22.4811 51.909L26.5317 51.3072L20.152 22.9203L17.8229 21.4157"/>
	<path fill="#FFDA24" d="M26.228 17.303L26.4305 28.2364L14.3799 10.5824L21.1647 7.7738L26.228 17.303"/>
	<path fill="#2D1B0A" d="M28.0508 33.2519L12.0508 9.98063L21.8735 5.96835L27.747 17.0022L28.0508 33.2519M16.709 11.2846L24.8102 23.2211L24.709 17.7043L20.4558 9.67971L16.709 11.2846"/>
	<path fill="#FFDA24" d="M34.4305 39.3706L27.1394 39.6716L25.7217 4.26315L33.0128 4.86499L34.4305 39.3706"/>
	<path fill="#2D1B0A" d="M25.7217 41.1761L24.1014 2.55795L34.4305 3.36041L35.9495 40.7749L25.7217 41.1761M27.2406 5.86808L28.5571 38.0667L32.8103 37.8661L31.4938 6.169L27.2406 5.86808"/>
	<path fill="#FFDA24" d="M40.0001 43.8844L32.709 43.1822L35.9495 7.87415L43.3419 7.172L40.0001 43.8844"/>
	<path fill="#2D1B0A" d="M41.4178 45.5896L31.19 44.687L34.7343 6.57022L45.1647 5.56715L41.4178 45.5896M34.4305 41.8783L38.6837 42.2795L41.8229 8.87728L37.5698 9.27851L34.4305 41.8783"/>
	<path fill="#FFDA24" d="M43.4432 55.7206L36.3546 54.0154L47.4938 11.9867L55.4938 12.2876L43.4432 55.7206"/>
	<path fill="#2D1B0A" d="M44.5571 57.6264L34.5318 55.2191L46.3799 10.5824L57.5191 11.084L44.5571 57.6264M38.2787 52.9121L42.4306 53.9151L53.5698 13.7923L48.6077 13.5917L38.2787 52.9121"/>
	<path fill="#FFDA24" d="M56.8102 16.7013L64.1013 16.7013L64.1013 60.7361L56.8102 60.7361L56.8102 16.7013"/>
	<path fill="#2D1B0A" d="M65.6203 62.2407L55.2912 62.2407L55.2912 15.1967L65.6203 15.1967L65.6203 62.2407M58.3292 59.2315L62.5823 59.2315L62.5823 18.2059L58.3292 18.2059L58.3292 59.2315"/>
	<path fill="#FFDA24" d="M65.7216 3.96215L75.2406 3.96215L75.2406 47.997L65.7216 47.997L65.7216 3.96215"/>
	<path fill="#2D1B0A" d="M76.7597 49.4012L64.2027 49.4012L64.2027 2.35725L76.7597 2.35725L76.7597 49.4012M67.2406 46.3921L73.7216 46.3921L73.7216 5.36646L67.2406 5.36646L67.2406 46.3921"/>
	<path fill="#FFDA24" d="M83.7469 48.1977L73.6203 47.8967L82.8355 3.1598L92.3545 3.1598L83.7469 48.1977"/>
	<path fill="#2D1B0A" d="M84.962 49.7023L71.6962 49.4014L81.519 1.75545L94.0759 1.75545L84.962 49.7023M75.4431 46.4924L82.5316 46.6931L90.4304 4.76466L84.0506 4.76466L75.4431 46.4924"/>
	<path fill="#FFDA24" d="M57.8228 58.1281L50.5317 58.1281L51.3418 33.7535L56.8102 30.9449L57.8228 58.1281"/>
	<path fill="#2D1B0A" d="M59.3419 59.6328L48.9114 59.6328L49.7216 32.8507L58.1266 28.6378L59.3419 59.6328M52.0507 56.6236L56.2026 56.6236L55.2912 33.3523L52.6583 34.6563L52.0507 56.6236"/>
	<path fill="#FF4557" d="M65.2154 26.6316C65.4179 27.735 65.5191 28.7381 65.5191 29.9418C65.5191 38.4678 58.5317 45.389 49.9241 45.389C41.3166 45.389 34.3293 38.4678 34.3293 29.9418C34.3293 28.8384 34.4305 27.735 34.633 26.6316L7.89885 26.6316L15.3925 95.2417L80.7089 95.2417L88.2027 26.6316L65.2154 26.6316"/>
	<path fill="#2D1B0A" d="M81.8228 96.2448L14.6836 96.2448L6.88615 25.6285L36.0508 25.6285L35.7469 26.8322C35.5443 27.8353 35.4431 28.8384 35.4431 29.8414C35.4431 37.7658 41.9241 44.2857 50.0253 44.2857C58.1267 44.2857 64.6077 37.8661 64.6077 29.8414C64.6077 28.8384 64.5064 27.8353 64.3038 26.8322L64 25.6285L89.6203 25.6285L81.8228 96.2448M16.5064 94.2385L80 94.2385L87.2912 27.6347L66.4305 27.6347C66.5317 28.4371 66.6329 29.1393 66.6329 29.9417C66.6329 38.9693 59.2406 46.3922 50.0253 46.3922C40.8102 46.3922 33.4178 39.0696 33.4178 29.9417C33.4178 29.1393 33.5191 28.4371 33.6203 27.6347L9.21526 27.6347L16.5064 94.2385"/>
</svg>
