<?xml version="1.0" encoding="utf-8" ?>
<svg xmlns="http://www.w3.org/2000/svg" xmlns:xlink="http://www.w3.org/1999/xlink" width="78" height="76">
	<path fill="white" d="M73.1608 22.5C71.4625 20.7 70.7632 18.5 69.964 15.8C68.7653 11.7 67.1669 6.7 61.0731 3.2C57.1771 1 53.6807 0 50.2841 0C47.0874 0 44.3901 0.9 42.0925 1.8C39.9946 2.6 37.8968 3.3 35.5991 3.3C33.9009 3.3 32.1027 2.9 30.1047 2.1C27.6073 1.4 25.3096 1 23.1119 1C17.2179 1 12.0232 3.4 8.42688 7.8C4.73065 12.3 3.03239 18.5 4.03137 23.7C5.03035 28.6 2.63279 36.4 1.63382 38.9C-0.963532 45.3 -0.464042 52.4 3.13228 57.7C6.32902 62.5 11.7235 65.3 17.7174 65.3C18.6165 65.3 19.5156 65.2 20.4146 65.1C20.5145 65.1 20.7143 65.1 20.8142 65.1C22.9121 65.1 25.8091 67 28.8061 69C33.5013 72.1 39.2954 76 46.6878 76C48.3861 76 50.1842 75.8 51.9824 75.4C57.7765 74 59.6745 69 61.3728 64.6C62.8713 60.7 64.2698 57 68.066 55.2C72.6613 52.8 76.5573 46.5 77.7561 39.5C78.6552 32.7 77.0568 26.5 73.1608 22.5"/>
	<path fill="#FFF6EB" d="M28.8061 5.24671C42.4921 10.5488 44.8896 -1.95611 59.3748 6.14706C68.0659 11.049 65.4687 19.3522 70.7633 24.8544C78.6552 32.9575 73.3605 49.1639 66.2679 52.7653C56.7775 57.5671 59.2749 70.7723 50.8835 72.7731C36.1985 76.3745 27.6074 61.4687 19.6154 62.4691C6.52883 64.0697 -0.66383 51.7649 3.93148 40.3604C3.93148 40.3604 7.8275 30.3565 6.52883 23.4538C4.93046 14.8505 12.5227 0.74495 28.8061 5.24671"/>
	<path fill="#2D1B0A" d="M46.3881 74.4C39.595 74.4 34.1007 70.7972 29.6052 67.6948C25.909 65.1929 22.7123 63.0913 19.8152 63.4916C13.7215 64.2921 8.32698 62.1905 5.03034 57.7872C1.33412 52.9833 0.63483 46.1781 3.13228 40.0732C3.13228 39.9733 6.9284 30.2656 5.62973 23.6604C4.63075 18.3563 6.9284 11.7512 11.224 7.74803C15.7194 3.54474 22.1129 2.26635 29.0059 4.24529C35.0996 6.54709 38.7151 5.24607 42.592 3.94505C47.0874 2.26635 51.7826 0.64247 59.8743 5.24607C65.2688 8.24842 66.6674 12.752 67.8662 16.6549C68.6654 19.4571 69.4645 22.0592 71.5624 24.1609C75.0588 27.7636 76.4574 33.268 75.4584 39.3727C74.3595 45.7777 70.963 51.5822 66.8672 53.6839C62.4717 55.8857 60.8733 60.089 59.2749 64.1922C57.6766 68.3954 55.9783 72.6988 51.1832 73.7997C49.4849 74.2 47.8866 74.4 46.3881 74.4M20.5145 61.4901C23.8112 61.4901 27.0079 63.5916 30.7041 66.0937C36.1985 69.7964 42.4921 73.8997 50.6837 71.8981C54.3799 70.9975 55.7785 67.4948 57.3769 63.4916C58.9752 59.2882 60.8733 54.4846 65.9681 51.8825C69.4645 50.0811 72.5614 44.777 73.5604 39.0724C74.0598 35.8699 74.3595 29.8654 70.1638 25.562C67.7663 23.0599 66.8672 20.1577 65.9681 17.2555C64.7693 13.3524 63.6705 9.64951 58.9752 7.04748C51.5828 2.94427 47.5869 4.34537 43.2913 5.84654C39.2953 7.24763 35.1995 8.74881 28.5064 6.14677C20.5145 3.94505 15.4197 6.64717 12.6226 9.2492C8.72657 12.852 6.72861 18.5564 7.62769 23.2601C9.02626 30.3657 5.13024 40.3736 5.03034 40.7738C2.83259 46.2781 3.43198 52.2828 6.62871 56.5862C9.62565 60.4893 14.221 62.2906 19.6154 61.59C19.9151 61.4901 20.2148 61.4901 20.5145 61.4901"/>
	<path fill="#FFBC27" d="M24.7103 34.2C24.7103 41.7999 30.8041 47.8999 38.3963 47.8999C45.9886 47.8999 52.0823 41.7999 52.0823 34.2C52.0823 26.6 45.9886 20.5 38.3963 20.5C30.8041 20.5 24.7103 26.6 24.7103 34.2"/>
	<path fill="#F2F2F2" d="M29.805 35.7999C29.0058 35.7999 28.4064 35.2 28.4064 34.4C28.4064 28.7 33.0018 24.1 38.6959 24.1C39.4951 24.1 40.0945 24.7 40.0945 25.5C40.0945 26.2 39.4951 26.9 38.6959 26.9C34.5002 26.9 31.1037 30.2999 31.1037 34.5C31.2036 35.2 30.5043 35.7999 29.805 35.7999"/>
</svg>
