<?xml version="1.0" encoding="utf-8" ?>
<svg xmlns="http://www.w3.org/2000/svg" xmlns:xlink="http://www.w3.org/1999/xlink" width="122" height="126">
	<path fill="white" d="M67.8546 126C33.7761 125.103 25.5085 114.241 22.0805 108.661L0 93.4143L5.4445 90.3251C8.67087 88.5314 12.3005 87.6345 15.9302 87.6345C23.2904 87.6345 30.1464 91.4212 34.0785 97.4999C36.4983 97.5996 38.9181 97.6992 41.2371 97.6992C46.6816 97.6992 51.5211 97.3006 55.4533 96.5034C55.4533 96.5034 65.334 92.5174 65.334 92.4177L73.5008 81.4562C73.8032 80.659 74.7107 73.7831 74.4082 73.4841C73.6016 72.388 58.0747 62.2236 56.159 61.0278C55.1508 62.7219 54.6467 64.7149 54.6467 66.7079C54.6467 68.9002 52.8318 70.6939 50.6137 70.6939C48.3956 70.6939 46.5807 68.9002 46.5807 66.7079C46.5807 63 47.589 59.6327 49.5046 56.5435C41.6404 50.8634 32.9695 42.7917 32.7678 32.2288C27.0209 33.1256 21.6772 35.9159 17.5434 40.1012C16.7368 40.8984 15.7286 41.297 14.6195 41.297C13.6113 41.297 12.603 40.8984 11.7964 40.2008C10.1832 38.7061 10.1832 36.1152 11.6956 34.5208C17.6442 28.4421 25.811 24.5557 34.2802 23.9578C34.381 23.6588 36.8008 20.9683 36.9016 20.9683L31.0538 5.22347C30.6505 4.22697 30.3481 0.938498 33.4736 0.141294C35.9942 -0.45661 38.1115 0.938498 38.6156 2.53291L42.6486 13.3948C43.0519 12.9962 43.4552 12.6973 43.9593 12.498C45.6733 11.7008 46.8832 11.4018 48.1939 11.4018C48.4964 11.4018 52.0252 11.9997 52.9327 12.8966C53.8401 13.7934 54.3442 15.0889 54.7475 17.0819C57.4697 16.7829 60.0912 16.6833 62.7126 16.6833C75.9205 16.6833 94.4722 20.2707 109.797 36.8127C109.898 36.8127 116.452 43.589 119.376 51.561C119.477 51.7603 122.602 63.9177 122 69.8967C121.191 75.8757 118.468 89.0296 111.713 99.2936C107.579 105.572 102.74 110.853 97.0936 115.038L93.0606 118.128C83.7848 124.605 74.2065 126 67.8546 126"/>
	<path fill="#F4983D" d="M33.3515 104.276L30.9333 99.9912C26.1975 91.7202 15.5169 88.7307 7.1538 93.4143L22.1671 104.177L33.3515 104.177"/>
	<path fill="#2D1B0A" d="M35.0645 105.273L21.7641 105.273L5.2394 93.4143L6.65005 92.6171C15.517 87.6345 26.8022 90.8234 31.8402 99.5926L35.0645 105.273M22.4695 103.28L31.6387 103.28L30.0265 100.489C25.7946 93.1153 16.7261 90.2592 9.0683 93.6136L22.4695 103.28"/>
	<path fill="#463218" d="M14.3079 38.1081C14.1064 38.1081 13.8041 38.0085 13.6026 37.8092C13.3003 37.4106 13.3003 36.8127 13.6026 36.4141C19.6482 30.2357 28.0983 26.6483 36.6767 26.6483L38.3897 26.6483C39.1958 26.6483 40.0018 26.2497 40.4049 25.5522C40.9087 24.8546 41.0094 24.0574 40.7072 23.2602L33.5532 3.92799C33.3516 3.42973 33.6539 2.83183 34.1577 2.5701C34.6615 2.43323 35.2661 2.73218 35.4676 3.23043L42.6216 22.463C43.1254 23.7585 42.8963 25.3529 42.1178 26.5487C41.3117 27.7445 39.9011 28.442 38.3897 28.442L36.6767 28.442C28.6159 28.442 20.6558 31.8302 15.0132 37.6099C14.8117 38.0085 14.5094 38.1081 14.3079 38.1081"/>
	<path fill="#F4983D" d="M37.9818 24.5024C37.9818 24.5024 82.0142 7.0636 110.126 43.8347C111.739 45.8277 112.948 48.02 114.056 50.3119C126.752 78.1145 101.461 121.363 66.7993 121.363C29.3164 121.363 24.0769 103.924 24.0769 103.924L25.8905 100.536C25.8905 100.536 54.1035 104.223 65.8925 96.5498C76.6739 89.5743 80.8051 75.7228 77.3792 70.8665C70.0237 60.7753 27.7042 48.1196 37.9818 24.5024"/>
	<path fill="#2D1B0A" d="M66.8042 122.313C29.019 122.313 23.2757 104.874 22.9734 104.176L25.3917 99.3933C26.3993 99.4929 54.0076 103.08 65.3936 95.7062C72.6483 90.923 76.3765 83.3495 77.2833 78.367C77.7871 75.3775 77.5856 72.9858 76.578 71.5907C74.462 68.7009 69.1217 65.5121 62.9753 61.7253C48.8689 53.1554 29.6236 41.3966 37.0799 24.157C38.0875 23.3598 82.7244 6.2199 111.038 43.1903C112.65 45.283 113.96 47.4753 115.068 49.8669C121.316 63.6187 118.897 81.8547 108.721 97.4002C98.443 112.946 82.8252 122.313 66.8042 122.313M25.0894 103.877C26.097 106.269 33.5533 120.32 66.7035 120.32C82.0191 120.32 97.0324 111.351 106.806 96.4037C116.681 81.3565 118.998 63.818 113.053 50.7638C112.046 48.4718 110.736 46.3791 109.224 44.4858C83.2282 10.6046 43.0247 23.7584 38.5913 25.3529C32.2434 40.7987 49.7757 51.4613 63.8822 60.0313C70.2301 63.9176 75.6712 67.2061 77.9887 70.3949C79.2985 72.2883 79.7016 75.1782 79.097 78.7656C78.0894 84.1467 74.1598 92.3181 66.3004 97.4002C55.2168 104.575 30.8327 102.183 26.2985 101.586L25.0894 103.877"/>
	<path fill="#FFC580" d="M71.1368 65.5121L108.821 41.596C108.821 41.596 125.447 58.6363 112.65 87.4353L76.8802 82.652C76.8802 82.652 79.7015 75.7762 78.2908 72.0891C76.8802 68.402 71.1368 65.5121 71.1368 65.5121"/>
	<path fill="#2D1B0A" d="M113.255 88.5313L75.4695 83.5488L75.9734 82.353C76.6787 80.5592 78.3916 75.1781 77.384 72.4875C76.3764 69.797 72.2452 67.2061 70.7338 66.4089L69.2224 65.6117L109.023 40.3004C109.829 41.0976 126.555 58.7358 113.658 87.8337M78.1901 81.8547L111.945 86.339C122.424 61.9246 111.139 46.1798 108.519 42.8913L73.0513 65.4124C74.9657 66.6082 78.0893 68.9001 79.1977 71.6903C80.3061 74.7795 78.9962 79.6624 78.1901 81.8547"/>
	<path fill="#FFC580" d="M54.209 100.589L59.4486 120.818C59.4486 120.818 75.5702 125.003 90.2813 114.64L67.5094 95.3075C67.5094 95.3075 64.1843 97.7988 60.557 98.7953C56.9296 99.7918 54.209 100.589 54.209 100.589"/>
	<path fill="#2D1B0A" d="M67.5095 122.612C62.673 122.612 59.4486 121.814 59.1464 121.715L52.8992 99.8914C53.806 99.5924 56.5266 98.7952 60.154 97.7987C63.5798 96.8022 66.7034 94.5103 66.8042 94.5103L91.7928 114.64L90.7852 115.337C82.422 121.316 73.6559 122.612 67.5095 122.612M60.2547 120.021C63.076 120.619 76.2756 122.612 88.5684 114.54L67.4087 96.6029C66.1996 97.4001 63.6806 98.9945 60.8593 99.7917C58.5418 100.489 56.6273 100.988 55.519 101.286L60.2547 120.021"/>
	<path fill="#463218" d="M52.1939 34.2218C52.1939 36.0155 53.2015 37.7096 54.7129 38.6064C56.3251 39.5033 58.2395 39.5033 59.8517 38.6064C61.4639 37.7096 62.3707 36.0155 62.3707 34.2218C62.3707 32.4281 61.3631 30.734 59.8517 29.8372C58.2395 28.9403 56.3251 28.9403 54.7129 29.8372C53.2015 30.734 52.1939 32.4281 52.1939 34.2218"/>
	<path fill="#463218" d="M50.2795 67.3058C49.6749 67.3058 49.2719 66.9072 49.2719 66.3093C49.2719 61.2271 51.6901 56.3442 55.8213 53.2551L61.2624 49.269C61.6654 48.9701 62.3708 49.0952 62.673 49.4683C62.9753 49.8669 62.8745 50.5645 62.4715 50.8634L57.0304 54.8495C53.403 57.54 51.2871 61.825 51.2871 66.3093C51.2871 66.9072 50.7833 67.3058 50.2795 67.3058"/>
	<path fill="#BC7E3B" d="M45.3423 16.783C45.5438 18.2777 46.1483 24.0574 46.1483 25.9508C46.1483 26.2498 46.3499 26.4491 46.6522 26.5487C47.4582 26.6484 48.8689 26.748 49.7757 26.5487C50.078 26.5487 50.1788 26.2498 50.1788 26.0505C50.1788 24.0574 50.1788 15.639 48.9696 15.639C47.6598 15.639 47.4582 15.3878 45.5438 16.2847C45.3423 16.3844 45.3423 16.5837 45.3423 16.783"/>
	<path fill="#2D1B0A" d="M48.6674 28.2428C48.0628 28.2428 47.3575 28.2428 46.5514 28.1431C45.443 27.9438 44.7377 27.047 44.7377 26.0505C44.7377 24.8547 44.5362 21.8652 43.9164 17.0819C43.9164 16.1851 44.2339 15.2882 45.04 14.8896C46.8537 14.0924 47.4582 14.0924 48.4658 14.0924C48.6674 14.0924 48.8689 14.0924 49.1712 14.0924C49.675 14.0924 50.1788 14.2917 50.481 14.6903C51.7909 16.0854 51.9925 21.6658 51.8917 26.0505C51.8917 27.047 51.1864 27.8442 50.1788 28.0435C49.675 28.1431 49.1712 28.2428 48.6674 28.2428M47.6597 25.1536C48.0628 25.1536 48.4658 25.1536 48.7681 25.1536C48.7681 22.0644 48.5666 18.477 48.2643 17.0819C48.2643 17.0819 48.1636 17.0819 48.1636 17.0819C47.7605 17.0819 47.4582 17.0819 46.9544 17.2812C47.3575 21.0679 47.559 23.6589 47.6597 25.1536"/>
</svg>
