<?xml version="1.0" encoding="utf-8" ?>
<svg xmlns="http://www.w3.org/2000/svg" xmlns:xlink="http://www.w3.org/1999/xlink" width="124" height="94">
	<path fill="white" d="M122.969 68.5085C122.569 68.0106 121.571 66.9153 120.572 65.6208C116.078 60.0445 107.689 49.6886 100.298 44.6102C95.9037 41.5233 90.9101 35.6483 87.2148 30.7691C87.6143 30.8686 87.9139 30.8686 88.3134 30.8686C90.6105 30.8686 91.6092 29.375 91.9088 28.7775C92.4081 27.7818 93.307 26.089 87.0151 16.0318C84.2187 11.5508 80.024 5.67585 76.0292 3.48517C72.5337 1.59322 66.5413 0.298729 59.8499 0C59.3506 0 58.8512 0 58.3519 0C51.7603 0 45.2687 1.89195 39.576 5.47669C13.3097 21.9068 4.32121 41.822 1.42493 55.6631C-1.57123 69.803 1.02544 80.4576 1.42493 82.1504C2.02416 86.3326 5.51967 94 14.4083 94C18.2034 94 22.5978 92.6059 27.5913 89.7182C29.9883 88.3242 32.1854 86.6314 34.3826 84.7394C35.4812 84.6398 36.5798 84.0424 37.3788 83.1462C37.4787 83.0466 37.4787 82.947 37.5785 82.8475C37.8781 82.6483 38.1778 82.3496 38.4774 82.0508C38.9767 81.3538 39.3762 80.5572 39.3762 79.7606C50.0625 68.0106 58.252 51.6801 61.7475 44.0127C65.8422 48.0953 73.4325 55.2648 81.622 61.5381C98.001 74.3835 110.785 75.7775 115.479 75.7775C115.878 75.7775 116.278 75.7775 116.677 75.7775C116.777 75.7775 116.777 75.8771 116.877 75.8771C117.576 76.2754 118.275 76.4746 119.074 76.4746C120.672 76.4746 122.07 75.5784 122.869 74.2839C123.069 73.9852 123.169 73.6864 123.269 73.3877C123.468 73.1886 123.568 72.8898 123.668 72.6907C124.267 71.0975 124 69.6038 122.969 68.5085"/>
	<path fill="#ED8721" d="M4.02202 81.6149C4.02202 81.6149 -8.3638 38.6976 40.7798 8.02807C46.3734 4.5429 52.8659 2.75052 59.3585 3.0171C65.052 3.34798 70.9452 4.34374 74.2414 6.13612C80.4343 9.52171 89.424 26.3501 88.8247 27.4454C88.2254 28.5408 85.4286 27.545 78.7362 24.5577C78.7362 24.5577 89.2242 40.9878 98.114 47.1615C107.004 53.3353 117.991 68.1721 120.289 70.6615C122.586 73.2505 105.506 76.8353 83.0313 59.2103C71.145 50.1488 60.2575 38.7971 60.2575 38.7971C60.2575 38.7971 45.0749 75.8395 25.4974 87.0916C6.21949 98.3437 4.02202 81.6149 4.02202 81.6149"/>
	<path fill="#2D1B0A" d="M14.1105 91.9878C12.3126 91.9878 10.7144 91.5893 9.31602 90.8921C4.32175 88.402 3.3229 82.5253 3.12313 81.7284C2.82347 80.7324 0.12657 70.1743 3.12313 56.0303C5.91992 42.5837 14.7098 23.1607 40.3804 7.12428C46.1737 3.5385 52.866 1.74561 59.5583 2.0123C65.8511 2.34324 71.6445 3.5385 74.8408 5.23179C80.9338 8.51875 90.9223 25.7504 89.8236 27.8421C89.0245 29.5354 86.827 29.0374 81.633 26.7465C85.0291 31.7267 92.4206 41.7868 98.9132 46.1694C106.105 51.0501 114.295 61.3094 118.79 66.7877C119.889 68.1822 120.788 69.2778 121.287 69.7758C121.887 70.4731 121.887 71.3695 121.287 72.0668C118.99 74.5569 102.908 75.6525 82.6319 59.7157C72.943 52.345 63.8534 43.3805 60.8569 40.2928C57.8603 47.2651 43.9762 77.545 26.2965 87.7047C21.6019 90.5933 17.5066 91.9878 14.1105 91.9878M57.9602 3.93692C52.0669 3.93692 46.3735 5.63021 41.2793 8.71796C-6.56575 38.5995 4.82118 80.7324 4.92107 81.1308C4.92107 81.33 5.72015 86.8083 10.0152 88.9C13.6111 90.6929 18.7052 89.6968 25.0979 86.0115C44.0761 75.0549 59.2587 38.5995 59.3586 38.201L59.9579 36.8066L61.0566 37.9022C61.1565 38.0018 72.044 49.2572 83.7306 58.2217C97.9143 69.3774 110.6 72.3656 117.192 71.4691C118.391 71.2699 119.09 71.0707 119.389 70.8715C118.89 70.2739 118.091 69.2778 116.992 67.9829C112.597 62.6043 104.507 52.4446 97.5148 47.7631C88.5251 41.5876 78.2369 25.5512 77.8374 24.854L76.0394 22.065L79.1359 23.4595C81.5331 24.5552 86.2277 26.6469 87.726 26.7465C86.827 23.6587 78.9361 9.71401 73.7421 6.82547C70.8454 5.23179 65.2518 4.13613 59.2587 3.83732C58.959 4.03653 58.4596 3.93692 57.9602 3.93692"/>
	<path fill="#CC6100" d="M47.5722 59.9449C47.1726 59.9449 46.873 59.8454 46.5733 59.5466C44.0762 57.1568 42.8776 49.6886 42.5779 48.195C42.478 47.3983 42.9774 46.7013 43.7765 46.5891C44.5756 46.5891 45.2748 47 45.3747 47.7966C45.8741 51.0827 47.1726 56.2606 48.4711 57.5551C49.0705 58.053 49.0705 58.9492 48.4711 59.5466C48.2714 59.8454 47.9717 59.9449 47.5722 59.9449M40.4803 71.1971C40.0808 71.1971 39.7811 71.0975 39.4815 70.7988C36.9843 68.4089 35.7857 60.9407 35.486 59.4471C35.3862 58.6505 35.8856 57.9534 36.6847 57.8538C37.4837 57.7543 38.1829 58.2521 38.2856 59.0488C38.7823 62.3348 40.0808 67.5127 41.3793 68.8072C41.9786 69.3051 41.9786 70.2013 41.3793 70.7988C41.2794 71.0975 40.8799 71.1971 40.4803 71.1971M33.5882 81.7521C33.2886 81.7521 32.9889 81.6526 32.6893 81.4534C29.9923 79.3623 28.0945 71.9937 27.6506 70.5C27.4952 69.7034 27.9946 69.0064 28.6938 68.8072C29.4929 68.6081 30.1921 69.106 30.3919 69.803C31.191 73.089 32.9889 78.0678 34.3873 79.2627C34.9866 79.7606 35.0865 80.6568 34.5871 81.2543C34.3873 81.553 33.9878 81.7521 33.5882 81.7521"/>
	<path fill="#CC6100" d="M118.79 73.4873C118.591 73.4873 118.291 73.3877 118.091 73.2882C106.704 66.8157 98.9132 61.2394 98.9132 61.1399C98.3139 60.7416 98.1141 59.8454 98.6135 59.1483C99.0131 58.5509 99.912 58.3517 100.611 58.8496C100.711 58.9492 108.302 64.4259 119.59 70.7988C120.292 71.1971 120.488 71.9937 120.089 72.6907C119.689 73.1886 119.29 73.4873 118.79 73.4873M48.7708 58.9492C48.3712 58.9492 48.0716 58.8496 47.7719 58.5509C45.2748 56.1611 44.0761 48.6928 43.7765 47.1992C43.6766 46.4026 44.176 45.7055 44.9751 45.606C45.7742 45.5064 46.4734 46.0043 46.5733 46.8009C47.0727 50.0869 48.3712 55.2649 49.6697 56.5594C50.269 57.0572 50.269 57.9534 49.6697 58.5509C49.47 58.8496 49.1703 58.9492 48.7708 58.9492M41.6789 70.2013C41.2794 70.2013 40.9797 70.1017 40.68 69.803C38.1829 67.4132 36.9843 59.945 36.6846 58.4513C36.5847 57.6547 37.0842 56.9577 37.8833 56.8581C38.6823 56.7585 39.3815 57.2564 39.4814 58.053C39.9808 61.339 41.2794 66.517 42.5779 67.8115C43.1772 68.3094 43.1772 69.2055 42.5779 69.803C42.478 70.1017 42.0784 70.2013 41.6789 70.2013M34.6869 80.6568C34.3873 80.6568 34.0876 80.5572 33.788 80.3581C31.091 78.267 29.1932 70.8983 28.7493 69.4047C28.5939 68.6081 29.0933 67.9111 29.7925 67.7119C30.5916 67.5127 31.2908 68.0106 31.4906 68.7077C32.2897 71.9937 34.0876 76.9725 35.486 78.1674C36.0853 78.6653 36.1852 79.5615 35.6858 80.1589C35.486 80.4577 35.0865 80.6568 34.6869 80.6568M70.9453 16.8284C70.4459 16.8284 70.0463 16.6293 69.7467 16.231C68.6479 14.5382 68.3483 14.2394 67.2495 13.5424C66.5503 13.1441 66.4505 12.2479 66.85 11.6505C67.2495 10.9534 68.1485 10.8539 68.7478 11.2521C70.346 12.2479 70.8454 13.0445 71.7444 14.4386C72.3437 15.4344 72.1439 16.3305 71.5446 16.7288C71.4447 16.7288 71.245 16.8284 70.9453 16.8284M43.6766 12.1483C43.1772 12.1483 42.6778 11.8496 42.478 11.4513C42.0784 10.7543 42.3781 9.95766 43.0773 9.55936C43.4768 9.3602 54.0647 3.88351 64.1531 8.66317C64.8523 8.9619 65.152 9.85809 64.8523 10.5551C64.5526 11.2521 63.6537 11.5509 62.9545 11.2521C54.0647 7.06995 44.4757 12.0488 44.3758 12.0488C44.176 12.1483 43.8764 12.1483 43.6766 12.1483"/>
</svg>
