<?xml version="1.0" encoding="utf-8" ?>
<svg xmlns="http://www.w3.org/2000/svg" xmlns:xlink="http://www.w3.org/1999/xlink" width="130" height="120">
	<path fill="white" d="M1.5149 118.588L0 118.689L1.5149 114.353C1.61589 113.95 16.0579 73.3109 65.4435 38.6218C69.9882 35.2941 83.6222 28.4369 92.8126 24.5042L95.5394 0.806682L99.7811 0.1008L101.094 3.02517C102.306 5.54618 116.546 25.6134 127.251 29.1428C128.968 29.7479 130.18 31.563 130 33.3781C129.776 34.8907 128.564 36.5042 126.342 36.7058C125.736 36.8067 125.029 36.8067 124.12 36.8067C118.364 36.8067 107.558 35.6974 103.215 35.2941L100.185 38.4201C96.2463 43.6638 91.3987 50.2184 88.6719 53.4453C75.5428 68.9747 41.8111 101.546 31.3078 108.908C20.6026 116.37 15.4519 118.992 6.05958 119.597L1.31291 119.899L1.5149 118.588"/>
	<path fill="#7CB0D8" d="M126.022 31.8655C113.804 27.8319 98.7577 5.74785 98.0509 4.1344L96.0313 26.3193C86.7412 30.0504 71.5943 37.6134 67.0502 41.042C17.8733 75.6302 4.3421 115.26 4.3421 115.26C4.94798 115.26 5.55385 115.159 6.15973 115.159C5.75581 116.067 5.55385 116.571 5.55385 116.571C14.2381 115.966 18.7821 113.647 29.284 106.386C39.7858 99.126 73.3109 66.5546 86.0343 51.5294C89.5686 47.2941 97.344 36.8067 100.979 31.9663C100.979 31.9663 120.165 34.084 125.82 33.6806C127.234 33.4789 126.686 32.0672 126.022 31.8655"/>
	<path fill="#2D1B0A" d="M4.03917 117.58L4.54407 116.168C4.54407 116.168 4.44309 116.168 4.44309 116.168L2.9284 116.269L3.4333 114.857C3.53428 114.454 17.6714 74.521 66.5453 40.1345C71.1904 36.605 86.2363 29.2437 95.2234 25.5126L97.445 0L99.0607 3.63025C99.9695 5.64706 114.914 27.1261 126.426 30.8571C127.233 31.1597 127.749 32.0672 127.749 32.9748C127.749 33.6807 127.132 34.3866 125.921 34.4874C120.67 34.8908 104.715 33.1765 101.383 32.8739C100.474 34.084 99.4646 35.4958 98.2528 37.1092C94.3146 42.3529 89.4676 48.9076 86.7412 52.0336C73.7149 67.4622 40.1897 99.8319 29.7889 107.092C19.287 114.454 14.541 116.874 5.55386 117.58L4.03917 117.58M7.67443 113.849L7.06855 115.261C14.541 114.454 19.0851 112.034 28.5771 105.378C38.877 98.2185 72.2002 65.9496 85.1255 50.6218C87.751 47.4958 92.598 41.042 96.5362 35.7983C97.8489 33.9832 99.0607 32.3697 100.07 31.1597C101.181 30.7563 118.549 32.7731 124.911 32.4706C114.611 28.5378 102.998 13.3109 98.7577 7.05882L97.0411 26.9244C86.7412 30.958 71.9982 38.521 67.6561 41.7479C24.538 72 8.7852 106.487 5.8568 113.95C5.95778 113.95 5.95778 113.95 6.05876 113.95L7.67443 113.849M125.618 32.8739C125.719 32.8739 125.719 32.8739 125.618 32.8739"/>
	<path d="M35.0398 102.252C34.9389 102.252 34.9389 102.252 34.8378 102.252C34.333 102.151 33.9291 101.647 34.03 101.042C34.7369 97.0084 32.4143 93.5799 27.4664 91.0589C23.7302 89.1429 19.8929 88.437 19.792 88.437C19.2871 88.3362 18.9685 87.832 18.9685 87.2269C19.0851 86.7227 19.59 86.4046 20.0949 86.4046C20.0949 86.4046 24.2351 87.1261 28.3752 89.2437C35.7467 92.9748 36.6554 97.916 36.0497 101.345C35.9487 101.95 35.5448 102.252 35.0398 102.252"/>
	<path d="M37.3623 93.6807L36.0496 92.168L40.2907 88.6386L36.7565 89.042L38.2711 87.126C40.2907 84.605 40.5937 81.3781 40.1898 80.2689C40.0888 80.0672 39.8868 79.9664 39.7858 79.9664C35.1408 81.0756 31.9095 87.7311 31.8085 87.7311L29.9909 86.8235C29.9909 86.521 33.7271 79.1596 39.4829 77.8269C40.0888 77.8269 41.6035 77.9496 42.1084 79.4622C42.6133 81.0756 42.3103 83.7983 41.0985 86.3193C41.8055 86.3193 42.5123 86.7227 42.8153 87.3277C43.1181 88.0336 42.9161 88.8403 42.3103 89.3445L37.3623 93.6807"/>
	<path fill="white" d="M18.6812 106.286C17.4694 106.286 16.3586 105.782 15.5508 104.975C14.743 104.068 14.2381 102.958 14.2381 101.849C14.2381 100.74 14.642 99.7314 15.4498 99.0255C17.0655 97.5129 19.6909 97.6138 21.4076 99.328C22.2154 100.236 22.7203 101.345 22.7203 102.454C22.7203 103.563 22.3164 104.572 21.5086 105.278C20.7007 105.883 19.6909 106.286 18.6812 106.286M18.1763 99.8322C17.6714 99.8322 17.1665 100.034 16.7626 100.336C16.3586 100.639 16.1567 101.143 16.1567 101.748C16.1567 102.353 16.3586 102.958 16.8635 103.463C17.3684 103.967 17.9743 104.168 18.5802 104.168C18.9841 104.168 19.489 104.068 19.8929 103.664C20.2968 103.261 20.4988 102.857 20.4988 102.252C20.4988 101.647 20.2968 101.042 19.7919 100.538C19.388 100.135 18.7821 99.8322 18.1763 99.8322"/>
	<path d="M18.6812 104.874C17.8733 104.874 17.1665 104.571 16.5606 103.966C15.9547 103.361 15.6518 102.554 15.6518 101.849C15.6518 101.143 15.9547 100.538 16.3586 100.033C17.4694 99.0251 19.186 99.1259 20.2968 100.235C20.9027 100.84 21.2056 101.647 21.2056 102.353C21.2056 103.059 20.9027 103.664 20.4988 104.168C19.9939 104.571 19.388 104.874 18.6812 104.874M18.1763 101.244C17.9743 101.244 17.8733 101.244 17.7723 101.344C17.6714 101.445 17.6714 101.546 17.6714 101.748C17.6714 102.05 17.7723 102.252 17.9743 102.454C18.2772 102.756 18.7821 102.857 19.0851 102.655C19.186 102.554 19.186 102.454 19.186 102.252C19.186 101.949 19.0851 101.748 18.8831 101.546C18.6812 101.344 18.4792 101.244 18.1763 101.244"/>
</svg>
