<?xml version="1.0" encoding="utf-8" ?>
<svg xmlns="http://www.w3.org/2000/svg" xmlns:xlink="http://www.w3.org/1999/xlink" width="120" height="120">
	<path fill="white" d="M10.6756 120C9.26563 120 7.95636 119.497 7.04994 118.491L1.5107 112.959C0.503567 111.953 0 110.645 0 109.338C0 108.03 0.503567 106.622 1.5107 105.717L32.6311 74.6354L22.6605 64.6773C19.2363 61.2573 19.2363 55.6245 22.6605 52.2045L34.9475 39.9329C36.6597 38.223 38.7747 37.3177 41.1918 37.3177C43.5082 37.3177 45.7239 38.223 47.436 39.9329L49.6517 42.1459C49.8531 39.6312 50.7595 37.3177 52.4717 35.5071L56.3995 31.4837C57.8095 29.9749 59.723 29.0696 61.838 28.6672L60.5287 27.3596C57.1045 23.9396 57.1045 18.3068 60.5287 14.8868L72.8158 2.61526C74.5279 0.905281 76.6429 0 79.06 0C81.4771 0 83.5921 0.905281 85.3042 2.61526L94.9727 12.2716L99.7063 7.54401C100.713 6.53814 102.023 6.03521 103.332 6.03521C104.641 6.03521 106.051 6.53814 106.958 7.54401L112.497 13.0763C114.511 15.088 114.511 18.4074 112.497 20.4191L107.763 25.1467L117.432 34.803C120.856 38.223 120.856 43.8558 117.432 47.2758L105.145 59.5474C103.533 61.1567 101.318 62.1626 98.9005 62.1626C97.5913 62.1626 96.3827 61.8609 95.2749 61.3579C94.9727 63.4702 94.0663 65.482 92.4549 67.0914L88.5271 71.1148C86.6135 73.026 83.8943 74.1324 80.9736 74.1324C81.6786 75.4401 81.9807 76.8483 81.9807 78.2565C81.9807 80.57 81.0743 82.7829 79.3621 84.4929L67.0751 96.7645C65.4637 98.3738 63.248 99.3797 60.8309 99.3797C58.5145 99.3797 56.2988 98.4744 54.5867 96.7645L45.321 87.5105L14.2006 118.592C13.3949 119.497 12.0856 120 10.6756 120"/>
	<path fill="#FFEEDE" d="M9.21522 116.077L3.67598 110.545C2.87027 109.741 2.87027 108.332 3.67598 107.527L101.871 9.45512C102.677 8.65043 104.088 8.65043 104.893 9.45512L110.432 14.9874C111.238 15.7921 111.238 17.2003 110.432 18.005L12.2366 116.077C11.4309 116.882 10.0209 116.882 9.21522 116.077"/>
	<path fill="#2D1B0A" d="M10.6756 117.687C9.86984 117.687 9.06414 117.385 8.45986 116.781L2.92062 111.249C2.31634 110.646 2.0142 109.841 2.0142 109.036C2.0142 108.232 2.31634 107.427 2.92062 106.823L101.116 8.75098C102.325 7.54394 104.339 7.54394 105.648 8.75098L111.187 14.2832C112.396 15.4903 112.396 17.502 111.187 18.8097L12.992 116.882C12.287 117.385 11.4813 117.687 10.6756 117.687M9.86984 115.373C10.2727 115.776 11.0784 115.776 11.4813 115.373L109.677 17.3009C110.079 16.8985 110.079 16.0938 109.677 15.6915L104.137 10.1592C103.735 9.75685 102.929 9.75685 102.526 10.1592L4.33061 108.232C4.12918 108.433 4.02847 108.735 4.02847 109.036C4.02847 109.338 4.12918 109.64 4.33061 109.841L9.86984 115.373"/>
	<path fill="#99CC62" d="M94.8718 57.0202L62.7443 24.933C60.5286 22.7201 60.5286 18.9984 62.7443 16.7855L75.0313 4.51388C77.247 2.30097 80.9734 2.30097 83.1891 4.51388L115.317 36.6011C117.532 38.814 117.532 42.5357 115.317 44.7486L103.03 57.0202C100.814 59.3337 97.0876 59.3337 94.8718 57.0202"/>
	<path fill="#2D1B0A" d="M98.9005 59.7487C97.0877 59.7487 95.3756 59.0446 94.0663 57.7369L61.9387 25.6498C59.3202 23.0345 59.3202 18.7093 61.9387 16.094L74.2257 3.82244C76.8443 1.20719 81.175 1.20719 83.7935 3.82244L115.921 35.9096C117.23 37.2172 117.935 38.9272 117.935 40.7378C117.935 42.5483 117.23 44.2583 115.921 45.5659L103.634 57.8375C102.425 59.0446 100.713 59.7487 98.9005 59.7487M95.577 56.3287C96.4834 57.234 97.692 57.7369 99.0012 57.7369C100.311 57.7369 101.418 57.234 102.325 56.3287L114.612 44.0571C115.518 43.1519 116.022 41.9448 116.022 40.6372C116.022 39.3296 115.518 38.1225 114.612 37.2172L82.4842 5.13007C80.6714 3.31951 77.5493 3.31951 75.7364 5.13007L63.4494 17.4017C61.6366 19.2122 61.6366 22.3304 63.4494 24.141L95.577 56.3287"/>
	<path fill="#FFD6BB" d="M56.903 94.2498L24.7755 62.1626C22.5598 59.9497 22.5598 56.228 24.7755 54.0151L37.0625 41.7435C39.2782 39.5306 43.0046 39.5306 45.2203 41.7435L77.3479 73.8307C79.5636 76.0436 79.5636 79.7653 77.3479 81.9782L65.0608 94.2498C62.8451 96.4627 59.2194 96.4627 56.903 94.2498"/>
	<path fill="#2D1B0A" d="M61.0324 96.9656C59.2196 96.9656 57.5075 96.2615 56.1982 94.9538L24.0706 62.8667C21.4521 60.2514 21.4521 55.9262 24.0706 53.3109L36.3576 41.0393C37.6669 39.7317 39.379 39.0276 41.1919 39.0276C43.0047 39.0276 44.7169 39.7317 46.0261 41.0393L78.1537 73.1265C79.463 74.4341 80.168 76.1441 80.168 77.9547C80.168 79.7652 79.463 81.4752 78.1537 82.7828L65.8667 95.0544C64.5574 96.2615 62.8453 96.9656 61.0324 96.9656M57.6082 93.5456C58.5146 94.4509 59.7231 94.9538 61.0324 94.9538C62.3417 94.9538 63.4495 94.4509 64.356 93.5456L76.643 81.274C77.5494 80.3688 78.053 79.1617 78.053 77.8541C78.053 76.5465 77.5494 75.3394 76.643 74.4341L44.5154 42.347C43.609 41.4417 42.4004 40.9388 41.0912 40.9388C39.7819 40.9388 38.5733 41.4417 37.6669 42.347L25.3799 54.6185C23.567 56.4291 23.567 59.5473 25.3799 61.3579L57.6082 93.5456"/>
	<path fill="#FD5D4B" d="M54.5654 37.3176L58.4932 33.2942C61.8167 29.9748 67.9603 30.5783 72.1902 34.803L78.4344 40.9387L88.6064 50.9974C92.8364 55.2221 93.6422 61.2573 90.3186 64.6772L86.3907 68.7007C83.0672 72.02 76.9238 71.4165 72.6937 67.1919L56.2775 50.8968C52.0475 46.7728 51.3425 40.637 54.5654 37.3176"/>
	<path fill="#2D1B0A" d="M80.9735 71.7183C77.9521 71.7183 74.6286 70.4095 72.0101 67.7917L55.5938 51.582C50.961 46.9506 50.1553 40.205 53.8816 36.4798L57.8095 32.4525C59.6223 30.6402 62.2409 29.7341 65.1615 29.9789C67.9815 30.3382 70.7008 31.7477 72.9165 33.862L89.3328 50.0718C93.9656 54.6024 94.7713 61.4488 91.0449 65.174L87.1171 69.2013C85.6064 70.9129 83.3907 71.7183 80.9735 71.7183M55.2916 37.99C52.3709 40.9097 53.1767 46.4472 57.0038 50.1725L73.42 66.3822C77.2471 70.2081 82.7864 70.8122 85.7071 67.8924L89.6349 63.8652C92.5556 60.9454 91.7499 55.4079 87.9228 51.6827L71.5065 35.4729C69.5929 33.56 67.2765 32.4525 64.8594 32.1505C62.543 31.9491 60.6294 32.5532 59.2195 33.9627L55.2916 37.99"/>
</svg>
