<?xml version="1.0" encoding="utf-8" ?>
<svg xmlns="http://www.w3.org/2000/svg" xmlns:xlink="http://www.w3.org/1999/xlink" width="108" height="108">
	<path fill="white" d="M18.1432 108C15.0098 108 11.9775 106.785 9.75386 104.559C8.7431 103.546 7.83341 102.231 7.22695 100.813C5.81189 100.206 4.59897 99.3964 3.48713 98.283C-1.16238 93.627 -1.16238 86.1368 3.48713 81.4808C5.71081 79.254 8.64202 78.0394 11.7754 78.0394C12.1797 78.0394 12.584 78.0394 13.0894 78.1406L27.7454 63.4639C28.1497 61.8444 28.554 60.1237 28.9584 58.3018C32.2939 43.5239 36.9434 23.179 50.1844 9.9194C56.5522 3.54264 65.0426 0 74.1394 0C83.1352 0 91.6256 3.54264 98.0945 9.9194C104.462 16.2962 108 24.7985 108 33.9082C108 42.9166 104.462 51.4189 98.0945 57.8969C84.8535 71.1565 64.6383 75.7113 49.7801 79.1528C47.9607 79.5576 46.2424 79.9625 44.6252 80.3674L29.9691 95.044C30.3734 98.5867 29.1605 102.129 26.6336 104.66C24.2078 106.785 21.2766 108 18.1432 108"/>
	<path fill="#FFEEDE" d="M43.008 70.7516L36.7412 64.4761C35.0229 62.7554 32.1928 62.7554 30.4746 64.4761L14.1002 80.8735C11.169 80.0638 7.93455 80.8735 5.6098 83.1003C2.1732 86.5416 2.1732 92.1087 5.6098 95.5502C6.72163 96.6636 8.1367 97.3721 9.55177 97.7769C9.95607 99.194 10.6636 100.611 11.7754 101.724C15.212 105.166 20.7712 105.166 24.2079 101.724C26.5326 99.3965 27.2402 96.1575 26.4316 93.2222L42.8058 76.8248C44.7263 75.3064 44.7263 72.4723 43.008 70.7516"/>
	<path fill="#2D1B0A" d="M18.1433 105.469C15.6164 105.469 13.0895 104.559 11.169 102.635C10.0572 101.522 9.34965 100.206 8.84427 98.7891C7.32813 98.283 6.01414 97.4733 5.00337 96.4611C1.16247 92.6148 1.16247 86.4405 5.00337 82.5942C7.32813 80.2662 10.6636 79.254 13.8981 79.9625L29.9692 63.8688C32.0918 61.7432 35.5284 61.7432 37.651 63.8688L43.9177 70.1443C44.9285 71.1565 45.535 72.5736 45.535 73.9906C45.535 75.4077 44.9285 76.8247 43.9177 77.8369L27.9477 93.9306C28.5541 97.1696 27.6445 100.51 25.3197 102.838C23.096 104.559 20.5691 105.469 18.1433 105.469M11.7755 81.6832C9.75396 81.6832 7.83351 82.493 6.31737 83.8721C3.28508 86.9466 3.28508 91.9063 6.31737 94.9428C7.22705 95.8538 8.43997 96.5623 9.85504 96.9672C10.9669 99.0928 11.5733 100.206 12.5841 101.218C15.6164 104.255 20.5691 104.255 23.6014 101.218C25.5219 99.2952 26.3305 96.4611 25.6229 93.7282L42.3005 76.2174C42.907 75.6101 43.3113 74.6992 43.3113 73.7882C43.3113 72.8772 43.0081 72.0675 42.3005 71.3589L36.0338 65.0834C34.7198 63.7676 32.5972 63.7676 31.2832 65.0834L14.5045 81.8857C13.1906 81.7844 12.483 81.6832 11.7755 81.6832"/>
	<path fill="#E59C45" d="M95.8582 11.539C83.8301 -0.506 64.3224 -0.506 52.2943 11.539C37.7393 26.1144 33.9995 50.2044 30.5629 64.4762L42.9953 76.926C57.3481 73.3834 81.4043 69.6384 95.8582 55.1642C107.886 43.1191 107.886 23.584 95.8582 11.539"/>
	<path fill="#2D1B0A" d="M42.7048 78.1407L29.4638 64.8811C29.9692 62.5531 30.4746 60.5287 30.9799 58.3019C34.3155 43.7264 38.7628 23.7864 51.5995 10.9317C57.563 4.95981 65.548 1.6196 74.1395 1.6196C82.731 1.6196 90.6149 4.95981 96.6795 10.9317C102.643 16.9036 105.979 24.8998 105.979 33.5034C105.979 42.0057 102.643 50.002 96.6795 56.0751C83.8428 68.9298 63.9308 73.4846 49.3758 76.7236C47.2532 77.2297 45.2317 77.6346 43.3112 78.1407M31.6875 64.1726L43.3112 75.8127C45.0295 75.4078 46.8489 75.0029 48.8704 74.4968C63.2233 71.2578 82.8321 66.8042 95.1634 54.3544C100.824 48.6861 103.856 41.196 103.856 33.3009C103.856 25.3047 100.723 17.8145 95.1634 12.2475C89.5031 6.5793 82.0235 3.54275 74.1395 3.54275C66.2556 3.54275 58.6748 6.68052 53.1156 12.2475C40.6833 24.6974 36.2359 44.3338 33.0015 58.6055C32.4961 60.6299 32.0918 62.4518 31.6875 64.1726"/>
</svg>
