<?xml version="1.0" encoding="utf-8" ?>
<svg xmlns="http://www.w3.org/2000/svg" xmlns:xlink="http://www.w3.org/1999/xlink" width="120" height="92">
	<path fill="white" d="M120 29.3433C120 20.9146 108.562 5.0727 107.258 3.34634L105.251 0.60447C104.448 -0.411035 102.843 -0.106384 102.542 1.21377L100.435 12.0797C100.134 13.7045 97.9264 13.7045 97.5251 12.1812L97.0234 10.2518C96.7224 9.23627 95.5184 8.72852 94.6154 9.43937L92.8094 10.7595C91.505 11.775 80.0669 20.6099 80.0669 29.4448C80.0669 38.6859 86.2876 46.5053 94.7157 48.841C95.4181 49.0441 95.8194 49.6534 95.8194 50.2627C95.8194 51.9891 95.5184 54.0201 94.4147 55.7464C94.0134 56.3557 93.612 56.8635 93.01 57.2697C92.107 52.5984 89.2977 48.6379 85.1839 47.0131L81.3712 45.4898C79.1639 44.5759 76.9565 43.865 74.7492 43.2557C74.7492 43.1542 74.7492 43.1542 74.7492 43.0526C74.7492 40.1076 73.1438 37.3658 70.6355 35.8425C69.4314 35.1317 67.9264 34.7255 66.5217 34.7255C65.1171 34.7255 63.612 35.1317 62.408 35.8425C60.8027 36.858 59.4983 38.2797 58.8963 40.1076C58.6957 40.717 58.0936 41.1232 57.4916 41.1232C57.4916 41.1232 57.3913 41.1232 57.3913 41.1232C56.7893 41.1232 56.1873 40.717 55.9866 40.1076C54.7826 36.9596 51.7726 34.7255 48.3612 34.7255C43.8462 34.7255 40.1338 38.4828 40.1338 43.0526C40.1338 43.3573 40.1338 43.7635 40.2341 44.0681C38.6288 44.5759 37.0234 45.1852 35.4181 45.896L32.0067 47.3177C28.3946 48.841 25.6856 52.2937 24.5819 56.4573C24.1806 56.0511 23.7793 55.6449 23.4783 55.1371C22.7759 54.0201 22.3746 52.6999 22.2742 51.4813C22.1739 50.6689 22.6756 49.8565 23.4783 49.755C32.8094 48.1301 39.9331 39.803 39.9331 29.9526C39.9331 21.1177 28.495 12.2828 27.1906 11.2673L25.3846 9.94712C24.4816 9.33782 23.2776 9.74402 22.9766 10.7595L22.4749 12.689C22.0736 14.3138 19.8662 14.2122 19.5652 12.5874L17.4582 1.72153C17.2575 0.401369 15.5518 0 14.7492 1.11222L12.7425 3.85409C11.4381 5.58045 0 21.4223 0 29.851C0 39.1937 6.32107 47.1146 14.8495 49.3488C15.4515 49.5519 15.9532 50.0596 16.0535 50.7705C16.1538 53.2077 16.7559 55.9495 18.2609 58.3868C18.4615 58.6914 18.6622 59.0976 18.9632 59.4023C18.0602 59.5038 17.2575 59.6054 16.3545 59.91C13.2441 60.9255 9.73244 64.9875 8.12709 68.2372C7.72575 69.0496 8.12709 70.0651 8.92977 70.3697L11.7391 71.4868C12.4415 71.7914 13.2441 71.4868 13.6455 70.7759C14.5485 69.1511 16.8562 66.2062 18.2609 65.6984C19.9666 65.0891 22.0736 65.3937 23.7793 66.003C24.2809 66.2062 24.6823 66.6124 24.7826 67.1201C25.1839 68.8465 24.4816 69.7604 23.5786 69.7604C19.9666 69.862 15.1505 73.7209 12.6421 77.3767C12.1405 78.0876 12.4415 79.1031 13.1438 79.6108L15.7525 81.0325C16.3545 81.3372 17.2575 81.2356 17.6589 80.7279C19.3645 78.5953 23.0769 75.7519 25.3846 75.955C25.9866 76.0566 26.5886 76.5643 26.689 77.1736L27.1906 79.8139C27.291 80.4232 26.99 81.1341 26.4883 81.4387C25.0836 82.2511 22.4749 85.1961 21.4716 86.7194C20.9699 87.4302 21.2709 88.4457 21.9732 88.9535L24.6823 90.3752C25.2843 90.6798 26.087 90.4767 26.5886 89.969C26.689 89.7659 28.2943 87.7349 28.495 87.5318C29.097 86.9225 30.1003 87.024 30.602 87.7349C32.8094 90.3752 35.8194 92 39.2308 92L76.5552 92C79.9666 92 83.0769 90.2736 85.2843 87.5318C85.786 86.9225 86.5886 86.8209 87.1906 87.2271C88.194 87.8364 89.2977 88.8519 90.2007 89.8674C91.1037 90.8829 92.6087 91.1876 93.913 90.4767C95.6187 89.5628 96.0201 87.2271 94.7157 85.8054C93.1104 83.876 91.1037 82.2511 89.398 81.4387C88.796 81.1341 88.3946 80.4232 88.5953 79.7124L88.9967 78.1891C89.1973 77.5798 89.5987 77.1736 90.2007 77.0721C93.1104 76.5643 97.8261 78.0876 100.134 81.0325C100.635 81.6418 101.438 81.8449 102.04 81.4387L104.749 79.9155C105.552 79.5093 105.753 78.4938 105.351 77.7829C101.739 71.5883 97.2241 70.4713 93.01 70.5728C92.0067 70.5728 91.3043 69.6589 91.505 68.6434C91.7057 67.7294 92.107 67.4248 92.5084 67.2217C94.5151 66.4093 97.1237 65.6984 99.4314 66.5108C100.936 67.0186 103.244 69.862 104.348 71.9945C104.749 72.7054 105.552 73.01 106.254 72.7054L109.064 71.4868C109.866 71.1821 110.268 70.1666 109.866 69.3542C108.06 65.7999 105.753 61.7379 101.237 60.7224C100.334 60.5193 99.4314 60.3162 98.5284 60.2147C98.7291 59.91 99.0301 59.6054 99.2308 59.1992C100.836 56.5588 101.438 53.5123 101.538 50.9736C101.538 50.2627 102.04 49.6534 102.742 49.5519C112.676 47.7239 120 39.3968 120 29.3433"/>
	<path fill="#463218" d="M43.6455 43.1542C43.6455 46.0992 45.9532 48.4349 48.8629 48.4349C51.7726 48.4349 54.0803 46.0992 54.0803 43.1542C54.0803 40.2092 51.7726 37.8736 48.8629 37.8736C45.9532 37.8736 43.6455 40.2092 43.6455 43.1542"/>
	<path fill="#463218" d="M61.9063 43.1542C61.9063 45.0836 62.9096 46.81 64.515 47.724C66.1203 48.6379 68.127 48.6379 69.7324 47.724C71.3377 46.81 72.3411 45.0836 72.3411 43.1542C72.3411 41.2247 71.3377 39.4984 69.7324 38.5844C68.127 37.6705 66.1203 37.6705 64.515 38.5844C62.9096 39.4984 61.9063 41.2247 61.9063 43.1542"/>
	<path fill="#2D1B0A" d="M28.194 62.3472C28.0937 62.3472 28.0937 62.3472 27.9933 62.3472C24.6823 61.6364 22.1739 60.0116 20.5686 57.4728C17.3579 52.2937 18.9632 45.2867 19.0636 44.9821C19.1639 44.4743 19.7659 44.0681 20.2676 44.2178C20.7693 44.3728 21.1706 44.9821 20.9699 45.4898C20.9699 45.5914 19.4649 51.9891 22.1739 56.3557C23.4783 58.3867 25.485 59.8085 28.2943 60.3162C28.7961 60.4178 29.1973 60.9255 29.097 61.5348C29.097 62.0426 28.6957 62.3472 28.194 62.3472"/>
	<path fill="#2D1B0A" d="M90.7023 62.9566C90.2006 62.9566 89.7993 62.6518 89.6799 62.1441C89.6799 61.6363 89.8996 61.0271 90.5016 60.9256C93.311 60.3162 95.3177 58.996 96.622 56.965C99.4314 52.4968 97.9264 46.0991 97.826 46.0991C97.7257 45.5914 98.0267 44.9821 98.5284 44.861C99.0301 44.861 99.6321 45.0836 99.7324 45.5914C99.8327 45.896 101.438 52.903 98.2274 58.0821C96.622 60.6208 94.1137 62.3473 90.8026 62.9566C90.8026 62.9566 90.8026 62.9566 90.7023 62.9566"/>
	<path fill="#2D1B0A" d="M11.9398 70.0651C11.8395 70.0651 11.6388 70.0651 11.5385 69.9635C11.0368 69.7604 10.7358 69.1511 11.0368 68.6434C12.4415 65.0891 14.6488 62.855 17.6589 61.941C23.3779 60.1131 29.7993 64.0736 30.1003 64.1751C30.602 64.4798 30.7023 65.0891 30.4013 65.5968C30.1003 66.1046 29.4983 66.2062 28.9967 65.9015C28.8963 65.9015 23.1773 62.2457 18.2609 63.8705C15.9532 64.6829 14.1472 66.5108 12.9432 69.4558C12.7425 69.862 12.3411 70.0651 11.9398 70.0651"/>
	<path fill="#2D1B0A" d="M16.1538 78.7984C15.9532 78.7984 15.8528 78.7984 15.6522 78.6969C15.1094 78.3922 14.9498 77.7829 15.2508 77.2752C19.2642 69.6589 28.796 71.7914 33.311 73.924C33.8127 74.1271 34.0134 74.7364 33.8127 75.2442C33.612 75.7519 33.01 75.955 32.5084 75.7519C32.0067 75.5488 21.2709 70.4713 17.0569 78.2907C16.8562 78.5953 16.4548 78.7984 16.1538 78.7984"/>
	<path fill="#2D1B0A" d="M25.3846 88.7504C25.184 88.7504 25.0836 88.7504 24.883 88.6489C24.3402 88.3442 24.1806 87.7349 24.4816 87.2272C28.495 79.6109 38.0268 81.7434 42.5418 83.876C43.0435 84.0791 43.2442 84.6884 43.0435 85.1962C42.8428 85.7039 42.2408 85.907 41.7392 85.7039C41.2375 85.5008 30.5017 80.4233 26.2877 88.2427C26.087 88.6489 25.6856 88.7504 25.3846 88.7504"/>
	<path fill="#2D1B0A" d="M107.057 70.7759C106.656 70.7759 106.254 70.5728 106.154 70.1666C104.95 67.2216 103.144 65.3937 100.836 64.5813C95.9197 62.9565 90.2006 66.6123 90.1003 66.6123C89.5986 66.917 88.9966 66.7139 88.6956 66.3077C88.3946 65.7999 88.5263 65.1906 88.9966 64.886C89.2976 64.6829 95.6187 60.7224 101.438 62.6519C104.348 63.5658 106.555 65.9015 108.06 69.3542C108.261 69.862 108.06 70.4713 107.559 70.6744C107.358 70.6744 107.257 70.7759 107.057 70.7759"/>
	<path fill="#2D1B0A" d="M102.943 79.4077C102.542 79.4077 102.241 79.2046 102.04 78.9C97.9264 71.0806 87.0903 76.1581 86.5886 76.3612C86.087 76.5643 85.485 76.3612 85.2074 75.8535C85.0836 75.3457 85.2074 74.7364 85.786 74.5333C90.301 72.4007 99.7325 70.2682 103.846 77.8845C104.147 78.3922 103.946 79.0015 103.445 79.3062C103.244 79.4077 103.144 79.4077 102.943 79.4077"/>
	<path fill="#2D1B0A" d="M93.7124 89.4612C93.311 89.4612 93.01 89.2581 92.8093 88.9535C88.5953 81.1341 77.5585 86.4147 77.3578 86.4147C76.8562 86.6178 76.2542 86.4147 75.9766 85.907C75.8528 85.3992 75.9766 84.7899 76.5552 84.5868C81.0702 82.4542 90.5017 80.3217 94.6154 87.938C94.9164 88.4457 94.7157 89.055 94.214 89.3597C94.0134 89.3597 93.913 89.4612 93.7124 89.4612"/>
	<path fill="#FE8E46" d="M77.2574 89.0677L39.933 89.0677C35.8194 89.0677 32.2073 85.5134 31.1036 80.4359L27.7926 63.68C26.6889 57.9932 29.1973 52.1032 33.612 50.1738L37.0234 48.7521C50.9698 42.7606 66.7224 42.659 80.7692 48.4474L84.5819 49.9707C89.3979 51.9002 91.9063 58.3994 90.3009 64.3909L85.7859 81.3498C84.5819 86.0212 81.0703 89.0677 77.2574 89.0677"/>
	<path fill="#2D1B0A" d="M77.2575 90.0705L39.9331 90.0705C35.3177 90.0705 31.3043 86.2116 30.2006 80.6263L26.8896 63.8704C25.6856 57.6758 28.3946 51.3797 33.311 49.2471L36.7224 47.8254C50.8695 41.7324 67.0234 41.6308 81.2709 47.5208L85.0836 49.044C90.301 51.1766 93.1103 58.1836 91.4046 64.5813L86.8896 81.5402C85.3846 86.7193 81.5719 90.0705 77.2575 90.0705M59.2542 45.1851C51.8729 45.1851 44.3478 46.7084 37.4247 49.6533L34.0133 51.0751C30 52.8014 27.6923 58.1836 28.7959 63.3627L32.107 80.1185C33.01 84.6883 36.2207 87.9379 39.9331 87.9379L77.2575 87.9379C80.6689 87.9379 83.7792 85.0945 84.8829 80.9309L89.398 63.972C90.903 58.4882 88.5953 52.5983 84.2809 50.7704L80.4682 49.2471C73.7458 46.6068 66.5217 45.1851 59.2542 45.1851"/>
	<path fill="#FE8E46" d="M37.4246 30.0541C37.4246 39.4983 29.8995 47.1146 20.5684 47.1146C11.2373 47.1146 3.71225 39.4983 3.71225 30.0541C3.71225 22.3363 15.8527 5.8851 15.8527 5.8851L21.0702 33.5069L25.9865 13.9076C25.9865 13.806 37.4246 22.5394 37.4246 30.0541"/>
	<path fill="#2D1B0A" d="M20.5684 48.1301C10.7357 48.1301 2.7089 40.006 2.7089 30.0541C2.7089 22.1331 14.5484 5.98656 15.05 5.27571L16.4547 3.4478L21.2708 28.8354L25.4848 12.1811L26.6888 13.0951C27.1905 13.5013 38.6286 22.1331 38.6286 30.1556C38.428 40.006 30.4012 48.1301 20.5684 48.1301M15.2507 8.32223C12.1403 12.7905 4.71559 24.2657 4.71559 29.9525C4.71559 38.7874 11.8393 45.9975 20.5684 45.9975C29.2975 45.9975 36.4213 38.7874 36.4213 29.9525C36.4213 24.3672 29.3979 17.9695 26.4882 15.5323L20.8694 37.975L15.2507 8.32223"/>
	<path fill="#FE8E46" d="M83.4781 29.5464C83.4781 38.9906 91.0032 46.6068 100.334 46.6068C109.665 46.6068 117.191 38.9906 117.191 29.5464C117.191 21.8286 105.05 5.37735 105.05 5.37735L99.8326 32.9991L94.9163 13.3998C95.0166 13.3998 83.4781 22.0317 83.4781 29.5464"/>
	<path fill="#2D1B0A" d="M100.435 47.6224C90.6019 47.6224 82.5751 39.4984 82.5751 29.5464C82.5751 21.6255 94.0132 12.8921 94.5149 12.4859L95.7189 11.5719L99.933 28.2262L104.749 2.8386L106.154 4.66651C106.655 5.37736 118.495 21.5239 118.495 29.4449C118.294 39.4984 110.267 47.6224 100.435 47.6224M94.4146 15.1262C91.5049 17.5634 84.4814 23.9611 84.4814 29.5464C84.4814 38.3813 91.6052 45.5914 100.334 45.5914C109.063 45.5914 116.187 38.3813 116.187 29.5464C116.187 23.758 108.762 12.3844 105.652 7.91613L100.033 37.6705L94.4146 15.1262"/>
</svg>
