<?xml version="1.0" encoding="utf-8" ?>
<svg xmlns="http://www.w3.org/2000/svg" xmlns:xlink="http://www.w3.org/1999/xlink" width="114" height="74">
	<path fill="white" d="M38.2669 74C32.6863 74 21.7245 73.2933 10.6629 68.4475C7.37436 68.0437 0 63.1978 0 52.6985C0 51.8909 0.996534 38.4638 9.06846 29.8827C10.065 28.7722 24.1161 13.427 48.5312 13.427C50.8233 13.427 53.2149 13.528 55.507 13.8308C55.507 13.8308 55.7063 13.8308 56.0052 13.8308C60.091 11.206 65.1734 9.59072 69.9567 9.28786C73.5442 8.98499 73.5442 8.98499 75.039 8.37926C78.0287 7.06685 79.6231 6.86494 80.6196 6.86494C81.0183 6.76398 81.2176 6.66303 81.3172 6.56207C81.2176 6.76398 81.2176 6.66303 81.3172 6.66303C83.8086 2.82674 86.9975 1.1105 87.2964 0.908595C88.7912 0.20191 89.9871 0 91.1829 0C92.7774 0 94.0729 0.60573 94.9697 1.41337C96.2652 1.51432 98.2583 2.0191 99.7531 3.73533C100.55 4.74488 101.447 6.36016 101.148 8.88404C100.65 16.6576 92.7774 16.6576 90.1864 16.6576C89.4888 16.6576 88.8909 16.7585 88.3926 16.9604C87.7947 20.4939 85.2037 22.412 83.6092 23.7244C83.5096 23.8254 83.3103 23.9263 83.2106 24.0273C85.9013 26.2483 87.994 28.8731 89.3891 31.6999C90.585 31.296 91.6812 30.7913 92.877 30.2865C94.2722 29.2769 95.468 27.9645 96.3649 26.7531C97.4611 25.2387 100.55 21.6044 104.636 21.6044C106.131 21.6044 107.626 22.1091 108.921 23.1187C109.619 23.8254 110.715 25.2387 110.715 27.6617C111.612 28.1664 112.509 28.9741 113.107 29.9836C114 31.397 114.203 33.0123 113.804 34.7285C112.608 40.1801 104.736 42.1992 99.7531 42.1992C99.7531 42.1992 99.6534 42.1992 99.6534 42.1992C99.0555 42.9059 98.1586 43.6126 97.0625 44.4202C96.4645 44.7231 95.5677 45.1269 94.5711 45.7326C95.6673 49.9727 95.9663 53.0014 95.3684 55.1214C93.4749 61.9864 85.104 67.6398 72.9463 70.1637C62.0841 72.1828 50.9229 73.4952 42.2531 73.7981C41.8544 73.899 40.4593 74 38.2669 74"/>
	<path fill="#C1684D" d="M2.7135 52.6732C2.7135 52.6732 3.61039 39.751 10.9848 31.8765C10.9848 31.8765 27.0291 13.5027 54.8326 16.8342C54.8326 16.8342 80.0451 18.9543 86.8216 33.8956C86.8216 33.8956 93.6977 48.938 92.2029 54.2886C90.7081 59.7401 83.533 64.7878 72.0728 67.2107C60.4132 69.3308 49.5509 70.5423 41.7779 70.7441C41.7779 70.7441 26.4312 72.2586 10.8851 65.2926C10.6858 65.7973 2.7135 62.9706 2.7135 52.6732"/>
	<path fill="#2D1B0A" d="M37.8685 71.9232C32.2879 71.9232 21.7246 71.2165 10.8623 66.3706C10.663 66.3706 10.4637 66.3706 10.2643 66.2697C7.47404 65.563 1.6941 61.4239 1.6941 52.6408C1.6941 52.035 2.69064 39.2138 10.2643 31.1374C10.364 30.9354 26.9066 12.4607 55.009 15.7922C56.0056 15.8932 80.9191 18.2151 87.7952 33.4593C88.4928 35.0746 94.771 49.0064 93.1766 54.5589C91.4825 60.7172 83.7094 65.7649 72.2492 68.1878C61.4866 70.2069 50.425 71.5193 41.8547 71.7213C41.6554 71.8222 40.2602 71.9232 37.8685 71.9232M10.4637 63.9477C26.4083 71.1155 41.5557 69.7022 41.7551 69.7022C50.3253 69.3993 61.2873 68.0869 71.9502 66.1687C82.4139 63.9477 89.7883 59.3038 91.2831 53.9532C92.479 49.915 87.7952 38.3052 86.0015 34.267C79.524 20.0323 55.1087 17.8113 54.8097 17.7103C27.8035 14.4798 11.9585 32.2479 11.7592 32.4498C4.88303 39.8195 3.78684 51.8331 3.78684 52.6408C3.78684 60.5153 8.76954 63.5439 10.4637 64.1496"/>
	<path fill="#FF9F48" d="M48.3681 63.1657C48.3681 63.1657 40.5951 45.7006 62.6187 38.2299C62.6187 38.2299 72.0858 34.8983 81.3536 36.4127C81.3536 36.4127 85.8381 36.7155 93.8104 33.0812C93.8104 33.0812 95.6042 33.0812 95.6042 36.4127C95.6042 36.4127 95.6042 38.2299 97.7057 38.8356C97.7057 38.8356 97.9959 39.9461 95.1059 41.8642C95.1059 41.8642 89.7246 43.9842 88.2298 48.2243C86.735 52.3635 84.7419 60.541 71.5875 64.4781C58.5329 68.2135 51.0588 66.6992 48.3681 63.1657"/>
	<path fill="#2D1B0A" d="M58.2022 67.683C53.1182 67.683 49.4297 66.3706 47.5357 63.7458C47.3363 63.241 44.3457 56.3761 47.436 49.1073C49.7288 43.7567 54.7132 39.7185 62.2894 37.1946C62.6882 37.0937 72.0588 33.8631 81.4294 35.3774C81.9278 35.3774 86.2144 35.3774 93.3919 32.1469C93.8903 32.0459 96.5819 32.0459 96.5819 36.387C96.5819 36.5889 96.6816 37.3965 97.9775 37.8003C98.775 39.1128 98.775 40.6271 95.585 42.7471C95.3856 42.8481 90.4012 44.8672 89.1053 48.6025C89.0056 48.9054 88.9059 49.1073 88.8062 49.4102C87.2113 53.9531 84.6194 61.6257 71.8594 65.361C66.6757 66.8754 62.09 67.683 58.2022 67.683M49.2304 62.6353C50.4266 64.1496 55.2116 68.0868 71.361 63.4429C83.1241 59.9095 85.6163 52.9436 87.0119 48.7035C87.1116 48.4006 87.2113 48.0977 87.3109 47.7949C88.8062 43.5548 93.8903 41.2328 94.6878 40.9299C95.6847 40.2233 96.2828 39.7185 96.4822 39.3147C94.6878 38.3051 94.5881 36.4879 94.5881 36.387C94.5881 34.9736 94.1894 34.3679 93.8903 34.166C85.9153 37.5984 81.4294 37.3965 81.23 37.3965C72.2581 35.9831 62.9872 39.1128 62.8875 39.1128C55.9094 41.5357 51.3238 45.0691 49.2304 49.9149C46.7382 55.8713 48.9313 61.8276 49.2304 62.6353"/>
	<path fill="#FF9F48" d="M80.7199 9.90326C80.7199 9.90326 79.2251 9.63405 76.634 10.8455C74.0431 11.956 74.5414 11.956 69.7579 12.3598C64.9745 12.6627 59.3939 14.4799 55.2085 17.8114C55.2085 17.8114 69.459 19.3257 78.9261 25.2821C78.9261 25.2821 78.6272 23.7678 80.421 22.2535C82.2148 20.7391 85.2043 19.2248 85.2043 15.6914C84.9053 15.6914 80.1219 15.3885 80.7199 9.90326"/>
	<path fill="#2D1B0A" d="M80.2216 27.2002L78.5275 26.1897C69.3593 20.4301 55.308 18.9145 55.2084 18.8134L52.8167 18.5103L54.7101 16.9946C58.6963 13.7611 64.4762 11.6392 69.7579 11.336C73.7441 11.0329 73.8437 11.0329 75.5378 10.2245C79.1254 8.70885 80.8195 8.9334 81.0188 8.9334L81.816 10.1235C81.6167 11.5381 81.9157 12.7507 82.6133 13.458C83.6098 14.6706 85.3039 14.6706 85.4036 14.6706L86.4001 15.681C86.4001 19.1166 84.0084 20.9354 82.3143 22.249C81.9157 22.5521 81.6167 22.7542 81.3178 23.0573C80.0223 24.1688 80.1219 25.1793 80.1219 25.1793L80.2216 27.2002M57.8991 17.1967C62.1842 17.904 71.1531 19.7228 78.2285 23.6636C78.5275 22.9563 78.9261 22.249 79.823 21.4406C80.1219 21.1375 80.5205 20.8343 80.9192 20.5312C82.3143 19.4197 83.8091 18.3082 84.1081 16.4894C83.2112 16.2873 81.9157 15.8831 80.9192 14.7716C80.0223 13.7611 79.6237 12.5486 79.6237 10.9319C79.0257 11.0329 78.1288 11.235 76.933 11.7402C74.1427 12.9528 73.9434 12.9528 69.7579 13.2559C65.7717 13.559 61.3869 14.9737 57.8991 17.1967"/>
	<path fill="#D67C67" d="M21.3259 35.5794C25.8104 32.9546 38.8651 29.6231 43.8478 28.6135C49.2291 28.0078 56.0056 27.0992 65.2734 28.6135C74.7405 30.1279 70.854 23.5658 70.854 23.5658C70.854 23.5658 59.5931 16.5999 42.7516 18.5181C25.5114 20.0324 15.1474 30.8346 15.1474 30.8346C10.9619 38.81 21.3259 35.5794 21.3259 35.5794"/>
	<path fill="#EEE" d="M83.4104 8.42245C85.5031 5.09093 88.3931 3.57661 88.3931 3.57661C92.4789 1.75942 93.1765 4.4852 93.1765 4.4852C93.4755 4.18234 98.5578 4.18234 97.9599 8.62436C97.661 13.4701 93.1765 13.6721 89.9876 13.6721C86.4997 13.6721 84.6063 15.7922 84.6063 15.7922C79.6236 15.1865 80.4576 9.83582 80.4576 9.83582C82.5135 9.73486 83.4104 8.42245 83.4104 8.42245M95.4686 36.0841C95.4686 38.709 97.5613 39.1128 97.5613 39.1128C101.647 39.7184 109.719 38.0023 110.516 34.065C111.413 30.5315 107.028 29.5221 107.028 29.5221C107.925 26.8972 106.729 25.5847 106.729 25.5847C103.74 23.1618 100.252 26.1905 98.4582 28.6135C96.6644 31.0364 93.9737 33.4593 93.9737 33.4593C93.9737 33.4593 95.4686 33.3584 95.4686 36.0841"/>
	<path fill="#2D1B0A" d="M99.3372 40.2234C98.6397 40.2234 97.9421 40.2234 97.4438 40.1224C96.4473 39.9205 94.4542 38.81 94.4542 36.0842C94.4542 34.8727 94.1552 34.4689 93.9559 34.4689L91.2653 34.4689L93.358 32.6517C93.358 32.6517 96.0487 30.3298 97.7428 28.0078C98.4404 27.0992 100.732 24.1715 103.722 23.7677C105.018 23.5658 106.313 23.9696 107.409 24.7772C107.609 25.0801 108.705 26.2916 108.207 28.8154C109.103 29.2193 110.299 29.825 110.997 31.0365C111.595 31.9451 111.694 33.0556 111.395 34.267C110.698 38.3052 103.921 40.2234 99.3372 40.2234M95.7497 33.2575C96.1483 33.7622 96.5469 34.6708 96.5469 36.0842C96.5469 37.9014 97.8424 38.1033 97.8424 38.1033C101.829 38.709 109.004 36.8918 109.701 33.7622C109.901 33.0556 109.801 32.5508 109.502 32.046C108.904 31.0365 107.409 30.5317 106.911 30.4307L105.815 30.1279L106.114 29.1183C106.712 27.4021 106.213 26.4935 106.114 26.1906C105.516 25.6858 104.818 25.4839 104.021 25.5849C102.227 25.7868 100.433 27.503 99.3372 29.0174C98.2411 30.7336 96.7462 32.3489 95.7497 33.2575M84.8874 17.0037C82.6951 16.7008 81.3996 15.9942 80.5027 14.7827C79.0079 12.6627 79.3582 9.93687 79.3582 9.83591C81.6985 8.82636 82.3961 8.01872 82.4957 7.91777C84.6881 4.4853 87.6778 2.87002 87.8771 2.76906C89.7705 1.96142 91.3649 1.86047 92.4611 2.4662C93.059 2.76906 93.358 3.17288 93.657 3.47575C94.5539 3.47575 95.7497 3.77861 96.5469 4.08148C98.3407 4.99007 99.1379 6.70631 98.8391 8.82636C98.54 14.7827 92.4611 14.7827 89.8701 14.7827C86.8805 14.7827 85.2861 16.4989 85.2861 16.5999M81.2999 10.8455C81.2999 11.5522 81.3996 12.7636 82.0971 13.6722C82.5954 14.2779 83.293 14.6818 84.1899 14.8837C84.9871 14.177 86.9802 12.7636 89.8701 12.7636C94.0556 12.7636 96.7462 12.0569 96.8459 8.62445C96.9455 7.51395 96.8459 6.80726 96.248 6.30249C95.4585 5.49485 94.0556 5.39389 93.5573 5.39389L92.4611 6.5044L92.0625 4.78816C92.0625 4.78816 91.9628 4.38434 91.5642 4.18243C90.9663 3.87957 89.9698 4.08148 88.6743 4.58625C88.6743 4.58625 86.0833 5.99962 84.0902 9.02827C84.0902 9.12923 83.1933 10.3407 81.2999 10.8455"/>
</svg>
