<?xml version="1.0" encoding="utf-8" ?>
<svg xmlns="http://www.w3.org/2000/svg" xmlns:xlink="http://www.w3.org/1999/xlink" width="120" height="96">
	<path fill="white" d="M58.8633 96C57.2568 96 55.6502 96 54.0437 95.8995L23.0177 95.1958C20.6079 95.1958 18.1981 94.8942 15.9891 94.1906C12.9769 93.4869 9.66345 91.778 6.14918 88.9634C-1.281 83.133 -0.477741 73.9853 0.927968 70.0649L2.93613 66.5466C3.23735 65.9435 3.53857 65.3403 3.9402 64.8377L12.2741 49.3571C15.1859 44.0293 29.0422 24.2262 32.3556 19.7026L37.7776 12.3644C42.798 4.62408 51.2323 0 60.3694 0C69.6069 0 78.0412 4.62408 83.162 12.4649L98.8256 34.5801C101.938 38.8021 104.95 43.7277 107.963 49.0555L116.999 65.1393C120.715 70.9696 121.016 78.1068 117.702 84.2387C113.987 91.1749 106.457 95.4974 98.0223 95.4974C98.0223 95.4974 97.9219 95.4974 97.9219 95.4974L64.2853 96C62.478 95.8995 60.6706 96 58.8633 96"/>
	<path fill="#FFEAC0" d="M64.3103 92.5696C60.9969 92.7205 57.583 92.7205 54.3699 92.5696L23.0427 91.2628C8.28274 91.2628 -0.95478 77.1896 6.4754 65.8304L14.9097 50.4502C17.7211 45.424 31.3765 26.1236 34.7904 21.4994L40.3128 14.1612C49.7512 -0.41466 71.138 -0.31414 80.7772 14.2617L96.4408 36.0753C99.7543 40.4985 102.666 45.3236 105.378 50.0481L114.515 65.9309C121.844 77.1896 112.606 91.3633 97.9469 91.2628L64.3103 92.5696"/>
	<path fill="#2D1B0A" d="M59.0641 93.6879C57.4576 93.6879 55.8511 93.6879 54.3449 93.5874L23.0177 92.2806C23.0177 92.2806 23.0177 92.2806 22.9173 92.2806C15.1859 92.2806 8.25774 88.3602 4.84388 82.1277C1.93205 76.6994 2.13286 70.5675 5.64714 65.3403L14.0814 50.0607C16.9932 44.8335 30.7491 25.5329 33.9621 21.0094L39.4846 13.6712C44.0029 6.63451 51.8347 2.41252 60.4672 2.312C60.4672 2.312 60.4672 2.312 60.4672 2.312C69.0045 2.312 76.9367 6.53399 81.5555 13.7717L97.2191 35.5853C100.231 39.7068 103.244 44.4314 106.256 49.6586L115.393 65.5413C118.807 70.7685 119.008 76.9005 115.995 82.3288C112.581 88.5612 105.653 92.3811 97.9219 92.3811L64.3857 93.5874C62.6788 93.6879 60.8715 93.6879 59.0641 93.6879M23.0177 90.3706L54.4453 91.6774C57.6584 91.778 61.0723 91.778 64.2853 91.6774L97.7211 90.5717C104.75 90.6722 110.975 87.1539 114.088 81.6251C116.698 76.8 116.497 71.4722 113.485 66.8481L104.348 50.8649C101.436 45.7382 98.424 41.1141 95.5122 36.9926L79.8485 15.179C75.531 8.54446 68.2012 4.62404 60.4672 4.62404C60.4672 4.62404 60.4672 4.62404 60.269 4.62404C52.4372 4.62404 45.3082 8.54446 41.0911 15.0785L35.5687 22.4167C32.3556 26.7392 18.5998 46.1403 15.7883 51.1665L7.35407 66.5466C4.34184 71.1706 4.04061 76.5989 6.65122 81.3235C9.66345 86.8523 15.9891 90.3706 23.0177 90.3706"/>
	<path fill="#7DBC6C" d="M63.1413 92.1801C63.1413 91.3759 17.4557 70.9697 16.4517 48.5528L3.80027 70.5676C3.80027 70.5676 0.3864 79.9162 8.0174 85.7466C15.6484 91.6774 21.0704 90.9737 21.0704 90.9737L63.1413 92.1801"/>
	<path fill="#2D1B0A" d="M64.0847 93.2859L21.1101 92.0796C20.3069 92.1801 14.7844 92.3812 7.35426 86.6514C-0.77877 80.3184 2.7355 70.3665 2.83591 70.266L17.2946 45.0346L17.4955 48.4524C18.3991 66.6472 50.0276 83.7362 60.3696 89.265C64.0847 91.2754 64.1851 91.376 64.1851 92.0796L64.1851 93.2859M21.0097 90.0692L59.1647 91.0744C48.9231 85.5456 19.604 69.6629 15.7885 51.6692L4.64325 71.0702C4.34203 71.9749 1.9956 79.9163 8.55916 85.043C15.6881 90.6723 20.9093 90.0692 21.0097 90.0692"/>
	<path fill="#7DBC6C" d="M55.7528 92.4817C55.7528 91.5769 100.635 68.7581 101.74 45.7382L115.997 69.4618C115.997 69.4618 119.512 80.0167 111.58 86.0481C103.647 92.1801 99.3298 91.2754 99.3298 91.2754L55.7528 92.4817"/>
	<path fill="#2D1B0A" d="M54.7466 93.5874L54.7466 92.5822C54.7466 91.8785 54.7466 91.8785 58.4617 89.5664C68.7033 83.334 99.8297 64.4356 100.733 45.7382L100.934 42.4209L116.999 69.1602C116.999 69.2607 120.614 80.4188 112.28 86.8523C104.85 92.5822 100.231 92.3811 99.4281 92.2806L54.7466 93.5874M102.44 48.7539C98.7252 67.4513 69.5066 85.2439 59.5662 91.2754C59.4658 91.3759 59.3654 91.3759 59.3654 91.3759L99.5285 90.1696C99.6289 90.1696 103.746 90.7727 111.075 85.1434C117.903 79.8157 115.493 70.7685 115.192 69.7633L102.44 48.7539"/>
</svg>
