<?xml version="1.0" encoding="utf-8" ?>
<svg xmlns="http://www.w3.org/2000/svg" xmlns:xlink="http://www.w3.org/1999/xlink" width="150" height="130">
	<path fill="white" d="M147.307 10.0922C148.903 9.79247 150 8.49347 150 6.99462L149.601 2.69792C149.402 1.09915 148.105 0 146.509 0L104.521 4.29669L100.133 2.39816L99.1356 4.79631L94.4481 5.29593L89.1622 3.09762L87.9654 5.89547C87.9654 5.89547 87.9654 5.99539 87.8657 6.09531L83.8763 6.495L78.8896 4.29669L77.6928 7.09454C77.6928 7.09454 77.6928 7.09454 77.6928 7.19447L71.5093 7.794C69.8138 8.09377 68.7168 9.39277 68.7168 10.8916L69.1157 15.0884C69.3152 16.7871 70.7114 17.8862 72.2074 17.8862L74.2021 17.6864C74.0027 18.2859 73.9029 18.8855 73.7035 19.485L71.4096 19.6849C69.7141 19.8847 68.5173 21.1837 68.5173 22.7825L68.9162 26.9792C69.1157 28.578 70.2128 29.5772 71.5093 29.7771C70.8112 34.1737 70.4122 39.0699 70.3125 44.166C63.6303 40.5688 56.0505 38.97 48.9694 38.97C13.1649 40.7686 5.78457 67.9477 4.3883 75.7417L1.49601 75.7417L0.797872 79.339C0.199468 82.0369 0 84.9347 0 87.7325C0 111.015 18.9495 130 42.0878 130L74.3019 130C97.5399 130 116.489 111.015 116.489 87.7325C116.489 84.9347 116.19 82.1368 115.691 79.339L114.993 75.7417L112.999 75.7417C112.4 72.2444 109.907 62.0523 100.432 55.5573C99.0359 44.9654 99.8338 34.8732 101.23 26.7794L147.008 22.083C148.703 21.8832 149.801 20.4842 149.801 18.9854L149.402 14.6887C149.202 13.0899 147.906 11.9908 146.31 11.9908L103.624 16.3874C103.823 15.7879 103.923 15.1883 104.122 14.5888L147.307 10.0922M92.254 51.4604C91.2566 51.1606 90.2593 50.8609 89.1622 50.661C88.5638 42.2675 89.262 34.4735 90.359 27.8786L93.2513 27.5788C92.1543 34.5734 91.5559 42.7671 92.254 51.4604M80.0864 28.8778L82.1809 28.6779C81.2832 34.9731 80.6848 42.1676 81.1835 49.7617C80.3856 49.7617 79.6875 49.8616 78.8896 49.9616C78.391 42.2675 79.0891 34.9731 80.0864 28.8778M84.1755 18.2859L82.3803 18.4858C82.5798 17.8862 82.6795 17.2867 82.879 16.6872L84.5745 16.4873C84.4747 17.0869 84.375 17.6864 84.1755 18.2859M92.6529 17.4865C92.8524 16.887 92.9521 16.2875 93.1516 15.6879L95.7447 15.3882C95.5452 15.9877 95.4455 16.5872 95.246 17.1868L92.6529 17.4865"/>
	<path fill="#FFCB27" d="M109.907 76.7409C109.907 76.7409 108.211 54.6579 82.6795 53.4588C74.0026 53.4588 58.4441 58.0553 57.9454 78.2397L109.807 78.2397L109.807 76.7409"/>
	<path fill="#2D1B0A" d="M110.904 79.2391L56.948 79.2391C57.4467 59.2545 71.1102 52.5596 82.6794 52.5596C108.81 53.8586 110.904 76.5412 110.904 76.8409L110.904 79.2391M59.0424 77.2406L108.909 77.2406C108.81 75.5419 106.616 55.6572 82.6794 54.4581C80.2858 54.4581 60.1395 55.0577 59.0424 77.2406"/>
	<path fill="#FFEAD9" d="M105.12 79.7386C105.12 79.7386 104.122 75.5419 101.43 71.0453C97.8391 65.2498 93.2514 61.7525 87.6663 60.5534C85.2726 60.1537 79.887 60.0538 74.5014 62.352C68.1184 65.0499 64.2288 70.2459 62.7328 77.6403L59.641 77.0407C60.5386 72.5442 62.3338 68.6472 64.9269 65.5496C67.121 62.9516 69.9136 60.9531 73.2048 59.4542C79.1889 56.8562 85.3724 56.9562 88.0652 57.4558C91.6556 58.1552 94.9469 59.754 97.8391 62.2521C100.133 64.1506 102.227 66.6487 103.923 69.4466C106.915 74.3428 107.912 78.7394 108.012 78.9393L105.12 79.7386"/>
	<path fill="#FFEAD9" d="M102.028 80.3382C102.028 80.3382 100.532 76.741 97.4402 73.3436C93.5505 68.847 88.9628 66.6487 83.9761 66.6487C71.2101 66.7487 65.4255 77.6403 65.2261 78.8394L62.1343 78.2398C62.4335 76.741 64.4282 73.1437 67.8191 69.9462C70.9109 67.0484 76.1968 63.5511 83.8763 63.4512C89.8604 63.4512 95.3457 66.1491 99.8338 71.3451C103.225 75.1422 104.82 79.0392 104.82 79.1391L102.028 80.3382"/>
	<path fill="#FFEAD9" d="M98.1383 80.4381C98.0386 80.3381 90.9575 71.8447 83.1782 72.4442C75.6982 72.9438 70.8112 77.6402 70.2128 79.3389L67.3205 78.2397C68.0186 76.4411 69.9136 74.3427 72.5067 72.744C74.7008 71.345 78.1915 69.6464 82.9787 69.1989C92.4535 68.4473 100.233 77.94 100.632 78.4396L98.1383 80.4381"/>
	<path fill="#FFCB27" d="M8.87645 77.6402C8.87645 77.6402 11.4695 44.4657 49.8671 42.5672C62.9324 42.5672 86.3699 49.4618 87.0679 79.8385L8.87645 79.8385L8.87645 77.6402"/>
	<path fill="#2D1B0A" d="M88.0652 80.7379L7.879 80.7379L7.879 77.5404C7.879 77.2406 10.9708 43.4666 49.7673 41.4681C67.0213 41.4681 87.367 51.4604 87.9654 79.6387L88.0652 80.7379M9.87368 78.7394L85.9708 78.7394C84.5745 44.4658 53.4575 43.4666 49.867 43.4666C13.3644 45.2652 9.97341 76.4412 9.87368 77.6403L9.87368 78.7394"/>
	<path fill="#FFEAD9" d="M15.2593 80.3382L12.2673 79.5388C12.2673 79.239 13.863 73.1437 18.2513 66.249C20.8444 62.2521 23.8364 58.8547 27.2274 56.1568C31.516 52.7594 36.3032 50.5611 41.5891 49.4619C44.1822 49.0878 47.5732 48.9623 50.9641 49.2621C55.4521 49.6618 59.7407 50.7609 63.6303 52.4596C68.5173 54.558 72.6064 57.5557 75.8976 61.3528C79.7872 65.8493 82.3803 71.545 83.6769 78.2398L80.5851 78.8393C78.2912 67.4481 72.2075 59.5542 62.4335 55.2575C54.2553 51.7602 45.8777 51.8601 42.1875 52.5596C33.5107 54.3582 26.3298 59.4543 20.8444 67.9477C16.8551 74.2429 15.2593 80.2383 15.2593 80.3382"/>
	<path fill="#FFEAD9" d="M19.9468 80.8378L17.1543 79.5388C17.1543 79.3391 19.6477 74.1431 24.6343 68.9471C27.5266 65.8494 30.8179 63.4512 34.2088 61.6526C38.4974 59.4543 43.0852 58.3551 47.8724 58.3551C59.2421 58.4551 67.1211 63.5511 71.7088 67.8478C76.6955 72.4444 79.5878 77.7402 79.9867 79.8386L76.895 80.4381C76.6955 79.5388 74.5014 74.7425 69.5147 70.0462C65.3258 66.1491 58.2447 61.4528 48.0719 61.3528C39.9934 61.3528 33.012 64.5504 26.9282 70.8456C22.2407 75.8416 19.9468 80.7379 19.9468 80.8378"/>
	<path fill="#FFEAD9" d="M69.3151 81.2375C68.7167 79.7387 66.6223 77.1407 63.0319 74.8424C60.1396 72.9439 55.4521 70.7456 49.0691 70.246C36.9016 69.2467 26.9282 80.8379 26.8284 80.9378L24.4348 78.9393C24.4348 78.8394 27.2273 75.6418 31.6157 72.6441C37.5 68.5473 43.5837 66.6487 49.3683 67.0701C56.3497 67.648 61.6356 70.146 64.7274 72.2444C68.4175 74.6426 71.3098 77.6403 72.2074 80.1384L69.3151 81.2375"/>
	<path fill="#E1FDFF" d="M6.03394 79.7383C5.53527 82.2364 5.3358 84.7345 5.3358 87.2325C5.3358 108.016 22.2906 125.003 42.9355 125.003L75.1496 125.003C95.8943 125.003 112.849 108.016 112.849 87.2325C112.849 84.6345 112.55 82.1365 112.151 79.7383L6.03394 79.7383"/>
	<path fill="#2D1B0A" d="M75.0997 125.903L42.8856 125.903C21.5425 125.903 4.2885 108.516 4.2885 87.1327C4.2885 84.5347 4.5877 82.0366 5.08637 79.4386L112.898 78.6392C113.597 81.9367 113.896 84.5347 113.896 87.1327C113.896 108.516 96.4428 125.903 75.0997 125.903M6.88159 80.7376C6.48265 82.836 6.28318 85.0343 6.28318 87.2326C6.28318 107.517 22.7393 124.004 42.8856 124.004L75.0997 124.004C95.3457 124.004 111.801 107.517 111.801 87.2326C111.801 85.0343 111.603 82.9359 111.203 80.7376L6.88159 80.7376"/>
	<path fill="#6C4820" d="M146.859 2.69795L72.357 10.392C72.357 10.392 72.357 10.492 72.357 10.492L72.7554 14.289C72.7554 14.389 72.855 14.389 72.855 14.389L147.257 6.69488C147.357 6.69488 147.357 6.59495 147.357 6.59495L146.959 2.79787C146.959 2.79787 146.959 2.69795 146.859 2.69795M146.859 14.5889L72.357 22.2829C72.357 22.2829 72.357 22.3829 72.357 22.3829L72.7554 26.1798C72.7554 26.2799 72.855 26.2799 72.855 26.2799L147.257 18.5858C147.357 18.5858 147.357 18.4858 147.357 18.4858L146.959 14.6887C146.959 14.5889 146.959 14.5889 146.859 14.5889"/>
	<path fill="#2D1B0A" d="M81.383 77.8401C65.4256 44.7655 80.8843 8.29359 80.9841 7.8939L82.7793 8.69328C82.5798 9.09298 67.52 44.6656 83.0785 76.9408L81.383 77.8401"/>
	<path fill="#2D1B0A" d="M91.5559 77.8401C75.5984 44.166 91.0572 7.09454 91.2567 6.69485L93.0519 7.49424C92.8524 7.89393 77.7926 44.166 93.3511 76.9408L91.5559 77.8401"/>
	<path fill="#2D1B0A" d="M102.527 77.8401C86.5691 43.8662 102.028 6.49499 102.227 6.0953L104.023 6.89469C103.823 7.29438 88.7633 43.8662 104.322 77.0407L102.527 77.8401"/>
	<path fill="#0421AF" d="M5.9841 86.5334L112.3 86.5334L112.3 93.3282L5.9841 93.3282L5.9841 86.5334"/>
</svg>
