<?xml version="1.0" encoding="utf-8" ?>
<svg xmlns="http://www.w3.org/2000/svg" xmlns:xlink="http://www.w3.org/1999/xlink" width="106" height="100">
	<path fill="white" d="M24.8405 100C15.0395 100 7.05715 92.008 7.05715 82.3177L7.05715 13.3866C4.73319 13.3866 2.91443 12.4875 1.60088 10.989C0.287338 9.49051 -0.217872 7.39261 0 5.49451C0.691506 2.2977 3.52068 0 6.85507 0L99.1064 0C102.441 0 105.27 2.2977 105.876 5.49451C106.28 7.49251 105.674 9.49051 104.361 11.0889C103.047 12.5874 101.228 13.4865 99.2074 13.4865L98.8033 82.4176C98.8033 92.1079 90.821 100 81.0199 100L24.8405 100"/>
	<path fill="#FFF08C" d="M9.93065 6.4935L9.93065 82.5175C9.93065 90.6094 16.4953 97.1029 24.6759 97.1029L80.8293 97.1029C89.01 97.1029 95.5747 90.6094 95.5747 82.5175L95.5747 6.4935L9.93065 6.4935"/>
	<path fill="#2D1B0A" d="M80.8294 98.002L24.676 98.002C15.9904 98.002 8.9207 91.009 8.9207 82.4176L8.9207 5.3946L96.5847 5.3946L96.5847 82.4176C96.5847 91.009 89.515 98.002 80.8294 98.002M10.9406 7.4925L10.9406 82.5175C10.9406 90.01 17.1013 96.1039 24.676 96.1039L80.8294 96.1039C88.404 96.1039 94.5648 90.01 94.5648 82.5175L94.5648 7.4925L10.9406 7.4925"/>
	<path fill="#3F2F14" d="M6.70012 3.09691L98.9089 3.09691C100.727 3.09691 102.343 4.39561 102.702 6.09391C103.049 8.39162 101.232 10.4895 99.0099 10.4895L6.59912 10.4895C4.27623 10.4895 2.55931 8.49152 2.9042 6.09391C3.26628 4.39561 4.8822 3.09691 6.70012 3.09691"/>
	<path fill="#2D1B0A" d="M99.0086 11.4885L6.59786 11.4885C5.18392 11.4885 3.87098 10.8891 2.96203 9.79023C2.05307 8.69133 1.64909 7.29273 1.8526 5.89412C2.35606 3.69632 4.37596 2.09792 6.69885 2.09792L98.9076 2.09792C101.23 2.09792 103.251 3.69632 103.754 5.89412C103.958 7.29273 103.554 8.69133 102.645 9.79023C101.735 10.8891 100.423 11.4885 99.0086 11.4885M6.69885 4.09592C5.38591 4.09592 4.17397 4.99502 3.97198 6.29372C3.87098 7.09292 4.07298 7.89213 4.57795 8.59143C5.08293 9.19083 5.89089 9.59043 6.69885 9.59043L99.1096 9.59043C99.9176 9.59043 100.624 9.19083 101.23 8.59143C101.735 7.99203 101.938 7.19283 101.837 6.29372C101.634 4.99502 100.423 4.09592 99.1096 4.09592L6.69885 4.09592"/>
	<path fill="white" d="M76.5025 66.3336C73.8747 66.8331 70.9437 66.6333 68.8213 65.0349C66.6989 63.4365 65.5872 60.3396 66.8 57.942C68.316 55.944 70.6405 54.5454 73.1672 54.3456C75.6939 54.0459 78.2206 54.945 80.1409 56.6433C81.4548 57.8421 82.4655 59.6403 82.2891 61.3386C81.9601 64.0359 79.2313 65.8341 76.5025 66.3336M32.1338 65.934C34.7615 66.4335 37.6925 66.2337 39.8149 64.6353C41.9373 63.0369 43.0491 59.94 41.8363 57.5424C40.3203 55.5444 37.9957 54.1458 35.469 53.889C32.9423 53.6463 30.4156 54.5454 28.4953 56.2437C27.1815 57.4425 26.1708 59.2407 26.3471 60.939C26.6761 63.6363 29.506 65.4345 32.1338 65.934"/>
	<path fill="#FFD755" d="M54.3686 45.2547C54.3686 45.2547 45.279 35.2647 42.4512 39.8601C39.6233 44.4555 54.3686 45.2547 54.3686 45.2547"/>
	<path fill="#2D1B0A" d="M56.7925 46.3456L54.3678 46.2457C52.5494 46.1458 43.1539 45.4465 41.4365 42.1498C41.1199 41.5504 40.8303 40.5514 41.6385 39.2527C42.2447 38.2537 43.1539 37.6543 44.2652 37.5369C48.4073 37.1548 54.4689 43.7482 55.1761 44.4475L56.7925 46.3456M44.5683 39.6523C44.4673 39.6523 44.4673 39.6523 44.3662 39.6523C43.8611 39.6523 43.558 39.952 43.2549 40.3516C42.9519 40.8511 43.0529 41.1508 43.1539 41.2507C43.8611 42.6493 48.0032 43.5484 51.7412 44.0479C49.4175 41.8501 46.4878 39.6523 44.5683 39.6523"/>
	<path fill="#FFD755" d="M54.6716 45.2547C54.6716 45.2547 63.7612 35.2647 66.5891 39.8601C69.4169 44.4555 54.6716 45.2547 54.6716 45.2547"/>
	<path fill="#2D1B0A" d="M52.2477 46.3455L53.8641 44.5473C54.5713 43.7481 60.6329 37.2546 64.775 37.6365C65.8863 37.7541 66.7955 38.3535 67.4017 39.3525C68.2099 40.5513 67.9203 41.5503 67.6037 42.2496C65.8863 45.5463 56.4908 46.2456 54.6723 46.3455L52.2477 46.3455M64.4719 39.6522C62.6534 39.6522 59.6226 41.85 57.299 44.0478C61.037 43.6482 65.1791 42.6492 65.8863 41.2506C65.9873 41.1507 66.0883 40.851 65.7853 40.3515C65.4822 39.852 65.1791 39.6522 64.674 39.6522C64.5729 39.6522 64.4719 39.6522 64.4719 39.6522"/>
	<path fill="#FFD755" d="M43.5621 54.6453C43.0571 55.8441 42.7541 57.2427 42.4511 58.5414L66.387 58.5414C66.084 57.1428 65.7811 55.8441 65.276 54.6453L43.5621 54.6453"/>
	<path fill="#FFD755" d="M54.4695 81.6182C61.1352 81.6182 66.488 73.926 66.892 64.2356L42.1481 64.2356C42.3501 73.926 47.8039 81.6182 54.4695 81.6182"/>
	<path fill="#FFD755" d="M54.4696 45.1547C50.1268 45.1547 46.39 48.3515 44.1681 53.3466L64.8721 53.3466C62.5493 48.4514 58.8124 45.1547 54.4696 45.1547"/>
	<path fill="#FFD755" d="M42.0471 62.937L66.791 62.937C66.791 61.938 66.69 60.9389 66.5891 59.9399L42.2491 59.9399C42.0471 60.9389 42.0471 61.938 42.0471 62.937"/>
	<path fill="#2D1B0A" d="M64.7711 53.3466L44.0671 53.3466C43.8651 53.7462 43.5621 54.2457 43.5621 54.6453L65.2761 54.6453C65.1751 54.2457 64.9731 53.7462 64.7711 53.3466"/>
	<path fill="#2D1B0A" d="M42.2491 59.94L66.5891 59.94C66.4881 59.4405 66.4881 59.0409 66.387 58.6413L42.4511 58.6413C42.4511 59.0409 42.2491 59.5404 42.2491 59.94"/>
	<path fill="#2D1B0A" d="M42.0471 63.4365C42.0471 63.7362 42.0471 64.0359 42.0471 64.3355L66.791 64.3355C66.791 64.0359 66.791 63.7362 66.791 63.4365C66.791 63.2367 66.791 63.1367 66.791 62.937L42.0471 62.937C42.0471 63.1367 42.0471 63.2367 42.0471 63.4365"/>
</svg>
