<?xml version="1.0" encoding="utf-8" ?>
<svg xmlns="http://www.w3.org/2000/svg" xmlns:xlink="http://www.w3.org/1999/xlink" width="104" height="64">
	<path fill="white" d="M60.1055 64C58.8891 64 57.6727 63.8978 56.7604 63.7955C50.9826 62.9776 36.9943 61.853 28.2769 61.853C27.1619 61.853 26.1482 61.853 25.2359 61.9553C23.6141 62.1597 22.0936 62.3642 20.5731 62.3642C8.10524 62.3642 1.71925 53.3674 0 45.6997C-0.713511 33.2268 3.74655 22.1853 5.77385 17.9936C13.9844 2.65815 31.2164 0.306709 47.0294 0C76.3239 1.63578 89.6027 12.5751 92.4409 18.1981C92.6436 18.7093 92.9477 19.1182 93.0491 19.4249C93.6573 19.016 94.2654 18.7093 94.975 18.607C95.2791 18.5048 95.5832 18.5048 95.7859 18.5048C99.9419 18.5048 102.375 22.901 103.49 32.3067C104 37.4185 105.314 47.0288 98.9282 48.0511C98.7255 48.0511 98.5228 48.0511 98.2187 48.0511C97.7119 48.0511 97.3064 47.9489 96.9009 47.8466C96.3941 47.8466 95.7859 47.9489 95.2791 47.9489C94.0627 47.9489 93.0491 47.8466 92.3395 47.7444C92.2381 47.8466 91.9341 48.3578 91.9341 48.3578C84.9399 60.6262 68.6201 64 60.1055 64"/>
	<path fill="#FFCB27" d="M95.7765 21.2651C94.9658 20.7539 93.1418 22.7987 92.5338 22.7987C91.9259 22.7987 91.2165 23.0031 89.2912 19.2204C87.3659 15.5399 75.9153 4.29388 46.6302 2.6581C27.985 3.06705 14.7104 6.54308 8.02244 19.0159C7.00911 21.1629 1.84114 32.4089 2.5659 44.7795C3.36113 47.8466 7.51577 61.444 24.5397 58.6837C32.6463 58.2747 49.9741 59.706 56.6621 60.6262C63.35 61.5463 81.7926 59.1948 88.8859 46.3131C89.6965 45.0862 90.2032 44.0639 91.5205 44.1661C92.2298 44.2683 95.6752 44.6773 98.3098 43.9616C101.046 43.4504 100.033 23.9233 95.7765 21.2651"/>
	<path fill="#2D1B0A" d="M59.5223 61.853C58.3053 61.853 57.3926 61.7508 56.5813 61.6485C50.1924 60.7284 32.7495 59.3993 24.6366 59.7061C23.014 59.9105 21.5942 60.115 20.1745 60.115C5.36832 60.115 2.02172 46.722 1.5166 44.984C0.804781 33.3291 5.16549 22.6965 7.09232 18.607C13.2784 7.05429 24.738 2.14695 46.5415 1.738C75.951 3.37378 88.019 14.6198 90.1487 18.8115C91.5684 21.5719 92.1769 21.7763 92.3797 21.7763C92.5826 21.6741 92.8868 21.4696 93.0896 21.2652C94.0023 20.5495 95.2193 19.6294 96.3348 20.345C100.29 22.7987 101.507 35.5783 100.594 41.4057C100.29 43.6549 99.58 44.8818 98.5659 45.0862C96.7404 45.5974 94.408 45.5974 91.467 45.2907C90.96 45.1885 90.6557 45.4952 89.9458 46.6198C83.2527 58.8882 67.5338 61.853 59.5223 61.853M27.7803 57.6613C36.7046 57.6613 51.1992 58.8882 56.7842 59.6038C62.666 60.4217 80.9202 58.5815 88.019 45.8019C89.0331 44.2684 89.9458 42.9393 91.6698 43.1438C94.408 43.4505 96.4362 43.4505 97.9574 43.0415C98.5659 42.4281 99.0729 38.6453 98.5659 33.3291C98.0588 27.8083 96.7404 23.3099 95.3207 22.1853C95.0164 22.2875 94.5094 22.6965 94.2051 22.9009C93.4953 23.4121 92.9882 23.8211 92.3797 23.7188C91.0614 23.7188 90.0473 23.0032 88.2218 19.6294C86.1936 15.7444 74.7341 5.21404 46.3387 3.68049C25.3465 4.08944 14.4954 8.69008 8.71491 19.4249C6.88949 23.3099 2.73161 33.5335 3.44149 44.5751C4.04996 47.4377 7.8022 60.3195 24.2309 57.6613C25.4479 57.7636 26.5634 57.6613 27.7803 57.6613"/>
	<path fill="#F7B04B" d="M100.088 32.4089C100.898 38.8498 101 44.2684 98.1625 44.6907C95.9332 44.984 94.1092 39.9744 93.2986 33.5335C92.4879 27.0926 92.6906 21.6741 95.2239 21.2299C97.6559 20.754 99.2772 25.8658 100.088 32.4089"/>
	<path fill="#AD8D34" d="M99.1759 43.246C100.392 41.3035 99.9865 36.1917 99.4799 32.5112C98.7705 27.0926 97.6559 23.4121 96.3386 22.2875C96.0346 22.083 95.8319 21.9808 95.5279 21.9808C95.4266 21.9808 95.4266 21.9808 95.3252 21.9808C93.4311 22.3897 92.9946 26.5814 93.8053 33.5335C94.2106 36.7028 94.8186 39.5655 95.6292 41.508C96.0346 42.5303 96.9466 44.2683 98.0612 44.1704C98.4666 43.9616 98.8719 43.6549 99.1759 43.246"/>
	<path fill="#2D1B0A" d="M97.8585 45.5974C96.7439 45.5974 95.3252 44.8818 94.2106 42.0192C93.3999 39.9744 92.6906 37.0096 92.2852 33.6358C91.2719 25.2524 92.1839 20.9585 95.0212 20.345C95.2239 20.345 95.4266 20.2428 95.5279 20.2428C96.2372 20.2428 96.8452 20.4473 97.3519 20.9585C99.4799 22.7987 100.493 28.0128 101 32.2045C101.811 38.6454 101.608 42.1214 100.493 43.9616C99.9865 44.7795 99.2772 45.2907 98.3652 45.393C98.1625 45.5974 98.0612 45.5974 97.8585 45.5974M95.5279 23.5144C95.2239 24.0255 94.4132 26.1725 95.3252 33.2268C95.7306 36.2939 96.3385 38.9521 97.0479 40.7923C97.4532 41.7124 97.7572 42.1214 97.9599 42.4281C98.3652 41.8147 98.8719 39.6677 98.0612 32.7156C97.2505 26.8882 96.1359 24.3323 95.5279 23.5144"/>
</svg>
