<?xml version="1.0" encoding="utf-8" ?>
<svg xmlns="http://www.w3.org/2000/svg" xmlns:xlink="http://www.w3.org/1999/xlink" width="80" height="102">
	<path fill="white" d="M12.4993 102C11.0835 102 9.66776 101.601 8.55538 100.804C6.93737 99.8065 5.92611 98.2111 5.52161 96.3167C5.1171 94.522 5.52161 92.6276 6.63399 91.0323L7.74637 89.3372C7.24074 88.9384 6.73511 88.5396 6.33061 88.1408C0.161941 82.3578 -1.86057 72.1877 1.88108 65.4076C7.8475 51.6481 14.4207 36.0938 14.9263 34.0997C15.1286 32.6041 16.4432 31.5073 18.0612 31.5073C20.1848 31.5073 24.1287 34.5982 24.7355 35.4956C24.7355 35.5953 24.8366 35.5953 24.8366 35.695C36.7695 21.0381 57.1969 0 70.141 0C72.1635 0 73.9837 0.498534 75.5006 1.4956C87.1301 9.17302 73.9837 41.2786 61.343 63.1144C64.3768 62.8152 67.6128 62.7155 71.0511 62.6158C72.8714 62.6158 74.3882 63.7126 74.6916 65.3079C75.0961 66.9032 74.2871 68.4985 72.6691 69.1965C70.6466 70.1935 64.9835 73.8827 62.4554 76.176L46.6798 90.5337C41.9269 94.8211 34.2413 97.7126 27.0614 97.7126C25.7468 97.7126 24.4321 97.6129 23.2186 97.4135C22.1062 97.2141 20.9938 97.0147 19.9826 96.7155L18.5668 98.8094C17.1511 100.903 14.9263 102 12.4993 102"/>
	<path fill="#779B3E" d="M10.0722 97.8123C8.22747 96.6159 7.64523 94.0235 8.95986 92.2288L12.1959 87.4428L18.9713 91.9296L15.7353 96.7156C14.5218 98.61 11.8925 99.1086 10.0722 97.8123"/>
	<path fill="#2D1B0A" d="M12.297 99.5073C11.2857 99.5073 10.2745 99.2083 9.46549 98.61C8.35311 97.8123 7.5441 96.7156 7.34185 95.4194C7.03847 94.1232 7.34185 92.7273 8.15085 91.6305L11.9936 85.9473L20.4881 91.5308L16.6454 97.2141C15.9375 98.3109 14.724 99.1086 13.4094 99.308C13.0049 99.5073 12.7015 99.5073 12.297 99.5073M10.5779 97.0146C11.2857 97.5133 12.0948 97.613 12.9038 97.5133C13.7128 97.3139 14.4207 96.9149 14.8251 96.217L17.5555 92.2288L12.3981 88.8388L9.66774 92.827C9.16211 93.525 9.06099 94.3226 9.16211 95.1203C9.26324 95.9179 9.97112 96.6159 10.5779 97.0146"/>
	<path fill="#FFCB27" d="M51.8371 71.788C35.4547 95.8173 22.8139 96.3158 14.3194 90.7323C5.82479 85.1488 1.47639 73.3833 17.8587 49.354C34.2411 25.3246 63.3654 -3.09174 73.579 3.58861C83.6917 10.269 68.1182 47.659 51.8371 71.788"/>
	<path fill="#2D1B0A" d="M23.623 94.6217C19.7802 94.6217 16.5442 93.3255 13.8138 91.5308C8.65642 88.1407 5.92602 83.1554 5.8229 76.9736C5.8229 69.3959 9.46542 59.9237 17.0499 48.7566C33.4322 24.6275 63.1632 -4.58653 74.1859 2.79177C80.658 7.07916 77.4219 20.739 73.6803 31.5073C69.0285 44.5689 61.2418 59.824 52.7472 72.2874C41.0167 89.3372 31.2075 94.6217 23.623 94.6217M69.8375 3.58942C58.6125 3.58942 34.2412 26.9208 18.6679 49.8534C11.2857 60.6217 7.64516 69.7947 7.74629 76.8739C7.84741 82.4575 10.2744 86.7448 14.8251 89.8358C25.3422 96.8152 37.8818 90.3343 50.927 71.1906C59.2193 59.0264 67.1071 43.5718 71.6578 30.8094C76.6129 16.7507 77.1186 7.07916 72.9724 4.38707C72.0623 3.78883 71.051 3.58942 69.8375 3.58942"/>
	<path fill="#7CA546" d="M70.7478 65.1856C71.5568 65.1856 71.6579 65.7838 71.0511 66.083C68.7252 67.1797 62.8599 71.168 60.1295 73.561L44.3539 87.9187C39.3988 92.4055 30.8031 95.0976 23.4209 94.0008C16.6455 93.0038 13.3083 89.2149 18.3646 84.6284C34.2414 70.1709 49.9158 65.385 70.7478 65.1856"/>
	<path fill="#2D1B0A" d="M26.7645 95.3196C25.5503 95.3196 24.3361 95.2199 23.2232 95.0205C18.7712 94.3225 15.7358 92.5278 15.0275 90.1349C14.6228 88.739 14.724 86.5454 17.6582 83.953C32.9365 70.0938 48.3159 64.4105 70.8791 64.1114C71.6885 64.1114 72.3968 64.5102 72.6512 65.2082C72.8015 65.9061 72.3968 66.5044 71.6885 66.9032C69.3614 68 63.4929 71.8885 60.9634 74.2815L45.1793 88.6393C40.525 92.8269 33.4424 95.3196 26.7645 95.3196M68.8555 66.2052C47.9111 66.7038 33.3412 72.3871 18.9736 85.4486C17.7594 86.5454 16.4441 88.1407 16.95 89.6363C17.4559 91.2316 19.9854 92.6275 23.5267 93.1261C30.3058 94.1231 38.8049 91.7302 43.6616 87.2434L59.4457 72.8856C61.6717 70.8915 65.9212 68 68.8555 66.2052"/>
	<path fill="#84D171" d="M21.9039 36.6921C21.4995 36.0938 17.7579 33.5014 17.6567 34.0107C17.3533 36.3929 4.40921 66.2053 4.40921 66.2053C1.07206 72.0879 3.29683 80.8621 8.25199 85.4487C12.8027 89.736 19.1735 90.1349 22.6119 84.0528C33.129 65.2082 31.7132 51.5484 21.9039 36.6921"/>
	<path fill="#2D1B0A" d="M15.4319 89.7361C12.7015 89.7361 9.87 88.5392 7.44299 86.2452C1.9822 81.0587 0.06081 71.783 3.39796 65.7986C8.35312 54.3285 16.3285 35.5774 16.5443 33.9816C16.6454 33.4829 16.9488 33.1837 17.4544 33.0623C18.7691 32.7847 22.3085 35.6772 22.713 36.1759C33.4323 52.4335 33.6346 66.4967 23.3197 84.7491C21.7017 87.5418 19.477 89.3371 16.6454 89.7361C16.3285 89.7361 15.8364 89.7361 15.4319 89.7361M18.3646 35.2782C16.4432 40.8637 6.53285 63.8038 5.31935 66.5965C2.3867 71.8827 4.00471 80.1611 8.95987 84.7491C11.2858 86.9434 14.0162 87.9408 16.5443 87.6416C18.6679 87.3423 20.4882 85.946 21.7017 83.652C31.5109 66.0978 31.4098 52.6329 21.1961 37.1733C20.6905 36.8741 19.2747 35.7769 18.3646 35.2782"/>
</svg>
