<?xml version="1.0" encoding="utf-8" ?>
<svg xmlns="http://www.w3.org/2000/svg" xmlns:xlink="http://www.w3.org/1999/xlink" width="70" height="108">
	<path fill="white" d="M7.4489 108C6.54625 108 5.64361 107.798 4.84126 107.494C0.829506 105.674 -2.98166 99.7079 3.43714 69.7753C6.94743 53.0899 12.263 35.8989 14.5698 30.8427L16.1745 27.3034C17.9797 23.3596 20.6877 20.1236 24.2983 17.7978L22.3927 9.30337C21.5903 5.5618 23.8971 1.82022 27.608 1.01124L31.4191 0.202247C31.9206 0 32.4221 0 32.9235 0C36.1329 0 38.9412 2.32584 39.6432 5.46067L40.0444 7.48315L41.4485 4.44944C42.5517 1.92135 45.0591 0.303371 47.767 0.303371C48.7699 0.303371 49.6726 0.505618 50.5752 0.910112L54.0855 2.52809C57.5958 4.14607 59.1002 8.29213 57.4955 11.7303L56.0914 14.764L57.8967 13.7528C58.8996 13.1461 60.1031 12.8427 61.2064 12.8427C63.7137 12.8427 66.0205 14.2584 67.224 16.4831L69.1296 19.9213C70 21.5393 70.2328 23.4607 69.7314 25.1798C69.2299 27 68.0264 28.4157 66.4217 29.3258L58.7993 33.573C59.4011 37.8202 58.7993 42.0674 56.994 46.0112L55.3893 49.5506C52.9823 54.809 44.0561 69.4719 34.9294 82.0112C16.2748 108 9.65536 108 7.4489 108"/>
	<path fill="#66C686" d="M49.2769 31.0742L47.3711 27.636C46.3681 25.7148 47.0702 23.2878 48.8757 22.2766L59.1068 16.6137C61.0126 15.6024 63.3196 16.3102 64.423 18.1411L66.3288 21.5686C67.3318 23.49 66.6297 25.917 64.8242 26.9282L54.5931 32.5911C52.6873 33.7034 50.3803 32.9957 49.2769 31.0742M27.611 20.254L25.1034 8.72597C24.6019 6.60237 26.0062 4.47878 28.1126 4.07428L31.9241 3.2653C34.0306 2.75968 36.137 4.17541 36.5382 6.299L39.0458 17.827C39.5473 19.9506 38.1431 22.0742 36.0367 22.4788L32.2251 23.2878C30.1187 23.7934 28.0123 22.3776 27.611 20.254"/>
	<path fill="#2D1B0A" d="M52.6862 34.0787C50.9807 34.0787 49.2752 33.1686 48.3722 31.5506L46.4661 28.1124C45.8506 27 45.6635 25.5843 46.0648 24.3708C46.4661 23.0562 47.2687 22.045 48.3722 21.4382L58.6054 15.7753C59.709 15.1686 61.1135 14.9663 62.3174 15.3708C63.6217 15.7753 64.6249 16.5843 65.2269 17.6966L67.1331 21.1348C67.7431 22.2472 67.9357 23.6629 67.5344 24.8764C67.1331 26.191 66.3305 27.2023 65.2269 27.809L54.9937 33.4719C54.2914 33.8764 53.4888 34.0787 52.6862 34.0787M61.1135 17.0899C60.6119 17.0899 60.1103 17.191 59.709 17.4944L49.4758 23.1573C48.7735 23.5618 48.2719 24.1686 48.0713 24.8764C47.8706 25.5843 47.9709 26.3933 48.2719 27.1011L50.1781 30.5393C50.9807 31.9551 52.6862 32.4607 54.0908 31.6517L64.324 25.9888C65.0262 25.5843 65.5279 24.9775 65.7285 24.2697C65.9292 23.5618 65.8288 22.7528 65.5279 22.045L63.6217 18.6068C63.2204 17.8989 62.6184 17.3933 61.9161 17.191C61.6152 17.0899 61.4145 17.0899 61.1135 17.0899M31.4173 24.3708C29.2101 24.3708 27.1033 22.7528 26.6017 20.5281L24.0935 9.00001C23.7926 7.68541 23.9581 6.3708 24.6955 5.25844C25.3978 4.14608 26.5013 3.33709 27.8056 3.13484L31.6179 2.32586C34.2264 1.71911 36.8348 3.43821 37.4368 6.06743L39.9449 17.5955C40.5469 20.2247 38.8413 22.9551 36.2329 23.4607L32.4205 24.2697C32.1196 24.3708 31.7183 24.3708 31.4173 24.3708M32.6212 4.14608C32.4205 4.14608 32.2199 4.14608 32.0192 4.2472L28.2069 5.05619C27.4043 5.25844 26.8023 5.66293 26.401 6.3708C25.9997 7.07866 25.7991 7.78653 25.9997 8.59552L28.5078 20.1236C28.8088 21.7416 30.414 22.6517 32.0192 22.3483L35.8316 21.5393C37.4368 21.236 38.3397 19.618 38.0387 18L35.5306 6.47192C35.1293 5.05619 33.9254 4.14608 32.6212 4.14608"/>
	<path fill="#84D171" d="M43.0581 26.8989L39.5474 25.2809C37.5413 24.3708 36.7388 22.045 37.6416 20.1236L44.0611 5.76409C44.9639 3.74162 47.2709 2.93263 49.1767 3.84274L52.6874 5.46072C54.6935 6.37083 55.4958 8.69667 54.5932 10.618L48.1737 24.9776C47.2709 26.8989 44.9639 27.809 43.0581 26.8989"/>
	<path fill="#2D1B0A" d="M44.6629 28.2135C43.9608 28.2135 43.2587 28.1124 42.6568 27.809L39.1462 26.191C36.6385 25.0787 35.5352 22.1461 36.7388 19.618L43.1584 5.25845C44.2617 2.73035 47.1706 1.618 49.6782 2.83148L53.1889 4.44946C55.6964 5.56182 56.7999 8.4944 55.5961 11.0225L49.1767 25.382C48.2739 27.2023 46.4685 28.2135 44.6629 28.2135M43.4593 25.9888C44.9639 26.6966 46.6691 25.9888 47.2709 24.5731L53.6903 10.2135C54.3925 8.69665 53.6903 6.97755 52.2861 6.3708L48.7755 4.75283C47.2709 4.04496 45.5657 4.75283 44.9639 6.16856L38.5443 20.5281C37.8422 22.045 38.5443 23.7641 39.9486 24.3708L43.4593 25.9888"/>
	<path fill="#FF8B2C" d="M5.88773 104.966C-3.84185 100.517 12.6082 42.1684 17.1219 32.3595L18.7268 28.8202C23.1402 19.0112 34.7756 14.5617 44.5052 19.0112C54.2347 23.4606 58.6482 35.1909 54.2347 45L52.6299 48.5393C48.2164 58.3483 15.6173 109.416 5.88773 104.966"/>
	<path fill="#2D1B0A" d="M7.1489 106.18C6.54707 106.18 5.94524 106.079 5.44371 105.876C-5.69014 100.82 12.4651 40.045 16.1763 31.854L17.7812 28.3146C19.9879 23.2585 24.1004 19.4158 29.216 17.4944C34.3316 15.5731 39.9486 15.6742 44.8636 18C49.8788 20.2248 53.6904 24.3708 55.5962 29.5281C57.502 34.6854 57.4017 40.3484 55.0947 45.3034L53.4898 48.8427C51.2831 53.7978 42.055 69.0675 32.0245 82.618C20.4895 98.2922 12.1641 106.18 7.1489 106.18M6.24615 104.056C9.75683 105.674 18.7843 97.2809 30.4197 81.5057C40.3499 68.0562 49.4776 52.9888 51.6843 48.1349L53.2892 44.5955C55.2953 40.045 55.4959 34.9888 53.6904 30.3371C51.9852 25.6854 48.4746 21.9439 44.0611 19.9214C39.5474 17.8989 34.5322 17.6967 29.9181 19.5169C25.3041 21.236 21.5928 24.7753 19.5867 29.2248L17.9818 32.7641C12.9666 43.7866 -2.17947 100.214 6.24615 104.056"/>
	<path fill="#FFE4D2" d="M30.219 46.0112C29.8176 47.0225 28.7143 47.427 27.8116 47.0225L15.5744 41.4607C15.9756 40.1461 16.4771 38.8315 16.8783 37.7191L29.5168 43.4831C30.3193 43.8876 30.6201 45 30.219 46.0112M40.3498 65.7303C39.6475 66.8427 38.9454 67.9551 38.2434 69.0674L27.8116 64.3146C26.9088 63.9101 26.5077 62.7978 27.0091 61.7865C27.4104 60.7753 28.5138 60.3708 29.4165 60.7753L40.3498 65.7303M17.2796 74.6292C16.8783 75.6404 15.775 76.0449 14.8722 75.6404L7.04845 72.1011C7.34937 70.7865 7.65028 69.4719 7.95119 68.1573L16.4771 72.1011C17.3799 72.5056 17.781 73.618 17.2796 74.6292"/>
</svg>
