<?xml version="1.0" encoding="utf-8" ?>
<svg xmlns="http://www.w3.org/2000/svg" xmlns:xlink="http://www.w3.org/1999/xlink" width="108" height="104">
	<path fill="white" d="M73.7664 101.297C66.1725 89.2859 52.6047 87.4841 45.1121 87.4841C44.0996 87.4841 43.087 87.4841 42.1758 87.5842C41.872 87.7844 41.5683 87.9846 41.1633 88.1848C36.5057 90.9875 31.3418 92.589 26.0767 92.589C17.5715 92.589 9.97762 88.5852 5.82628 81.9788C2.48496 76.5736 1.5737 69.9673 3.49749 63.5611C3.39623 63.461 3.29498 63.2608 3.29498 63.1607C-3.59016 52.1501 0.662427 37.0356 12.8127 29.3282C13.8252 20.0192 18.9891 11.7113 27.0892 6.80654C31.9493 3.80366 37.5182 2.20212 43.1883 2.20212C46.8334 2.20212 50.3772 2.80269 53.8198 4.10395C58.3761 1.40135 63.4387 0 68.5013 0C77.0065 0 84.6004 4.00385 88.7517 10.6102C88.853 10.7103 88.9542 10.9105 88.9542 11.0106C95.6369 12.2117 101.307 15.8152 104.648 21.2204C111.128 31.6304 108 45.4437 97.1557 53.6516C94.1181 58.7565 86.7267 73.9711 95.5356 87.9846L97.1557 90.487L75.2852 104L73.7664 101.297"/>
	<path fill="#95E27F" d="M92.7996 52.5506C89.5596 54.5525 86.1171 55.8537 82.7759 56.5544C79.8397 62.6602 78.4222 68.3658 78.1184 73.4706L73.8659 66.6641C72.0434 68.4659 69.9172 70.0675 67.5884 71.4688C66.4747 72.1694 65.2597 72.7701 64.1459 73.3705L68.0947 79.6767C64.1459 78.0751 59.4885 76.8739 54.1222 76.4735C52.1985 76.7738 50.376 76.8739 48.5535 76.7738C46.4272 79.8768 43.491 82.7796 39.846 85.1819C43.9972 84.6814 65.4622 82.9798 76.2959 100.196L93.0021 89.8864C81.7634 72.0694 94.0146 53.0511 95.7359 50.5486C94.8246 51.2493 93.9134 51.95 92.7996 52.5506"/>
	<path fill="#2D1B0A" d="M75.9921 101.498C65.0571 84.0809 44.0984 85.6824 40.0484 86.1829L35.6947 86.6834L39.3397 84.2811C42.7822 82.0789 45.6172 79.2762 47.7434 76.1733C50.2747 75.7729 52.0972 75.6728 54.0209 75.3725C58.2734 75.6728 62.0196 76.4735 65.6646 77.5746L62.6271 72.8701L63.6396 72.3696C64.9559 71.769 65.9684 71.1684 66.9809 70.5679C69.2084 69.1665 71.2334 67.6651 73.0559 65.8633L77.3084 70.3677C77.9159 65.5631 79.4346 60.7584 81.7633 56.0539C85.9146 54.8528 89.1546 53.5515 92.1921 51.7498C93.1033 51.1492 94.0146 50.5486 95.0271 49.7478L100.191 45.744L96.5458 51.1492C95.1283 53.2512 82.8771 72.0693 93.8121 89.386L75.9921 101.498M45.1109 83.7806C53.3122 83.7806 67.9428 85.7825 76.7009 98.6949L91.6858 89.4861C83.4846 75.4726 88.9521 60.8585 92.5971 53.8518C89.7621 55.5534 86.7246 56.6545 83.4846 57.3552C80.9533 62.7604 79.4346 68.1656 79.1309 73.4707L78.9284 76.5736L73.6634 68.1656C71.9421 69.667 70.1196 71.0684 68.1959 72.2695C67.3859 72.77 66.5759 73.1704 65.6646 73.6208L70.7271 81.6786L67.7909 80.4774C63.6396 78.7758 59.0834 77.6747 54.2234 77.3744C52.4009 77.6747 50.7809 77.7748 49.1609 77.6747C47.6422 79.8768 45.6172 81.9788 43.3897 83.7806C43.8959 83.7806 44.5034 83.7806 45.1109 83.7806"/>
	<path fill="#5D985B" d="M87.1593 13.9994C86.8555 13.4989 86.653 12.8983 86.248 12.3978C80.0718 2.68851 66.2006 0.2862 55.0631 7.09274C54.7594 7.29294 54.5569 7.49313 54.2531 7.69332C46.2544 4.29005 36.7369 4.69043 28.7382 9.59515C20.7394 14.4999 16.1832 22.8079 15.7782 31.4161C15.4744 31.6163 15.1707 31.7164 14.8669 31.9166C3.83072 38.7232 -0.21927 52.1361 5.95697 61.9455C6.26072 62.446 6.66572 62.9464 6.96947 63.4469C4.84322 69.2525 5.14697 75.5586 8.48821 80.7636C14.6644 90.4729 28.5357 92.8752 39.6731 86.0687C43.6219 83.6664 46.6594 80.3632 48.5831 76.7597C54.9619 77.6606 61.9481 76.3593 68.2256 72.5557C74.5031 68.752 78.7556 63.0465 80.7805 57.0408C84.9318 56.8406 89.1843 55.6394 93.133 53.2371C104.169 46.4306 108.219 33.0177 102.043 23.2082C98.9043 17.803 93.3355 14.7001 87.1593 13.9994"/>
	<path fill="#2D1B0A" d="M26.2701 90.8874C24.8533 90.8874 23.5376 90.7873 22.1207 90.5871C15.9473 89.5861 10.7859 86.2829 7.74978 81.2781C4.51126 76.1732 3.90403 69.667 5.92811 63.5611C5.7257 63.2608 5.42209 62.8604 5.11848 62.46C2.0792 57.4552 1.27273 51.5496 2.9932 45.5438C4.71367 39.6381 8.76182 34.5332 14.328 31.0298C14.4292 30.9297 14.6317 30.8296 14.7329 30.8296C15.3401 21.821 20.4003 13.6131 28.0918 8.80845C35.8845 4.00383 45.4989 3.20306 54 6.60634C54 6.50624 54.3036 6.40614 54.4048 6.30605C59.971 2.90278 66.4481 1.60152 72.5203 2.60249C78.6937 3.60345 83.8551 6.90663 86.8913 11.9114C87.0937 12.3118 87.3973 12.7122 87.5997 13.1126C94.0767 14.0135 99.643 17.4167 102.881 22.5216C105.921 27.5265 106.727 33.4321 105.007 39.4379C103.286 45.3436 99.2381 50.4485 93.6719 53.9519C89.9274 56.2541 85.778 57.5553 81.5275 57.9557C79.301 64.2618 74.7468 69.667 68.7758 73.3705C62.8047 77.0741 55.8217 78.6756 49.1422 77.8749C47.0169 81.4783 43.8796 84.6814 40.135 86.8835C35.8845 89.486 31.0267 90.8874 26.2701 90.8874M43.2724 6.50624C38.4146 6.50624 33.5568 7.80749 29.205 10.5101C21.8171 15.0144 17.1618 22.922 16.7569 31.5303L15.9473 32.5313C15.7449 32.6314 15.6437 32.7315 15.4413 32.8316C10.2799 36.0346 6.53534 40.7392 4.91607 46.1444C3.29681 51.5496 4.00524 56.9547 6.73774 61.4591C7.04136 61.9596 7.44617 62.46 7.74978 62.8604C5.7257 69.4668 6.33293 75.4726 9.26784 80.2772C12.1016 84.7815 16.7569 87.6843 22.3232 88.6853C27.9906 89.6862 33.8604 88.385 39.0218 85.282C42.6651 83.0799 45.6001 79.9769 47.6241 76.3734L48.6362 75.8729C55.1132 76.7738 61.7927 75.3725 67.5613 71.769C73.3299 68.1655 77.6817 62.8604 79.7058 56.7546C84.766 55.8537 88.9153 54.5524 92.4575 52.3503C97.6189 49.1472 101.363 44.4427 102.982 39.0375C104.602 33.6323 103.893 28.2271 101.161 23.7228C98.1249 18.9182 92.9635 15.8152 86.7901 15.2146C85.8792 14.1136 85.5756 13.6131 85.272 13.1126C82.4383 8.60826 77.7829 5.70547 72.2167 4.70451C66.5493 3.70355 60.6794 5.0048 55.518 8.10778C55.3156 8.20788 55.2144 8.30797 55.012 8.40807L53.6964 8.70836C50.4578 7.20691 46.9157 6.50624 43.2724 6.50624"/>
</svg>
