<?xml version="1.0" encoding="utf-8" ?>
<svg xmlns="http://www.w3.org/2000/svg" xmlns:xlink="http://www.w3.org/1999/xlink" width="58" height="126">
	<path fill="white" d="M23.9878 126C19.4407 126 14.5904 124.596 8.72972 121.586C4.88994 119.58 2.26273 116.47 0.949125 112.256C-1.57704 104.231 1.35331 93.9984 4.88994 87.1768C10.3465 76.8439 12.1653 59.8901 11.9632 47.4506C11.8622 42.535 12.0643 38.0207 12.5695 34.2086C11.1548 32.8041 10.9527 29.8949 10.8517 27.086C10.3465 19.1608 15.0957 12.1385 22.7752 9.32962C23.0783 9.2293 23.2804 8.92834 23.1794 8.62739L22.7752 5.21656C22.6742 4.01274 22.9773 2.7086 23.7857 1.70541C24.594 0.702229 25.7056 0 27.0192 0C27.2213 0 27.3223 0 27.5244 0C29.9495 0 31.9704 1.80573 32.2736 4.21338L32.6778 7.82484C32.6778 8.1258 32.8799 8.32643 33.183 8.42675C40.2563 9.93153 46.3191 15.75 48.239 23.0732C48.7442 25.0796 49.1484 27.3869 48.239 29.1927C55.7164 48.5541 68.2462 91.8917 42.7824 117.072C36.8207 123.091 30.5558 126 23.9878 126"/>
	<path fill="#5978EA" d="M41.6711 21.5106C41.6711 21.5106 71.8841 83.4071 40.4586 114.506C29.5455 125.24 20.2492 124.036 9.74037 118.619C-0.76848 113.202 2.06082 98.0536 7.2142 88.2224C13.176 76.8864 14.7927 58.7288 14.5906 46.9915C13.9843 -3.87 41.6711 21.5106 41.6711 21.5106"/>
	<path fill="#2D1B0A" d="M23.5838 123.692C18.5314 123.692 13.7822 121.786 9.33617 119.479C6.00164 117.774 3.67756 114.965 2.56605 111.354C0.24198 103.83 2.97024 94.2994 6.40582 87.7787C12.0644 77.1449 13.8833 59.6895 13.6812 47.0494C13.4791 28.8917 16.8136 18.1577 23.6848 15.0478C31.9706 11.336 41.9742 20.3647 42.3784 20.7659C42.6816 21.2675 50.2601 36.9172 53.8978 56.1784C58.748 81.8599 54.3019 102.325 41.1659 115.266C34.901 121.485 29.0403 123.692 23.5838 123.692M27.9288 16.1513C26.7162 16.1513 25.6047 16.3519 24.4932 16.8535C18.5314 19.4618 15.5 29.8949 15.7021 46.9491C15.9042 59.8902 13.9843 77.6465 8.12361 88.5812C5.09222 94.3997 2.26291 103.729 4.38489 110.651C5.39536 113.761 7.31524 116.168 10.2456 117.673C20.3503 122.89 29.2424 124.194 39.7512 113.761C69.56 84.2675 42.5805 25.6816 40.8627 22.0701C39.8523 21.2675 33.7895 16.1513 27.9288 16.1513"/>
	<path fill="#84D171" d="M32.2419 10.9096C30.7262 10.6087 29.5137 9.30455 29.3116 7.69945L28.9074 4.08799C28.8063 3.0848 27.8969 2.57235 26.9875 2.57235C26.4823 2.57235 26.0781 2.88417 25.7749 3.18512C25.4718 3.5864 25.3708 3.98767 25.3708 4.48926L25.7749 7.90009C25.977 9.6055 24.9666 11.1103 23.3498 11.7122C16.8828 14.1199 13.0431 19.9383 13.4182 26.459C13.9525 35.889 14.7608 30.2711 22.0362 26.5593C24.5624 30.5721 28.5032 33.8825 30.5241 33.6007C32.343 33.2807 34.9702 29.4685 36.2838 25.3555C42.3466 27.4621 46.9947 31.0737 44.9738 23.4494C43.4581 17.631 38.5068 12.3141 32.2419 10.9096"/>
	<path fill="#2D1B0A" d="M30.3425 34.6099C27.8145 34.6099 24.1743 31.3979 21.7475 27.8848C19.8263 28.9889 18.5118 30.1934 17.3995 31.0968C16.0849 32.3013 15.1749 33.1043 14.0626 32.6024C12.9503 32.1005 12.647 30.6953 12.4176 26.5799C12.0403 19.5536 16.1861 13.3304 23.062 10.821C24.1743 10.4195 24.9833 9.215 24.781 8.0105L24.3765 4.59775C24.2754 3.89512 24.4777 3.09212 24.9833 2.59024C25.4888 1.98799 26.0955 1.68687 26.8034 1.5629C28.3201 1.38574 29.7358 2.48987 29.8369 3.9955L30.2413 7.609C30.3425 8.71313 31.2525 9.71688 32.3648 9.91763C38.7352 11.2225 44.1955 16.5424 45.9145 23.0668C46.7234 25.9777 46.6223 27.5837 45.6111 28.487C44.2966 29.6915 42.1732 28.7882 39.2408 27.5837C38.4318 27.2825 37.724 26.9814 36.9151 26.6803C35.4994 30.4945 32.9715 34.3088 30.6458 34.6099C30.5447 34.6099 30.4436 34.6099 30.3425 34.6099M22.4553 25.275C25.6911 30.2938 29.2302 32.8032 30.4436 32.7028C31.5559 32.502 33.9827 29.5912 35.3983 25.0743L35.7017 24.0705L36.7128 24.3717C37.9262 24.7732 39.1397 25.275 40.1508 25.6765C41.5665 26.2788 44.0944 27.2825 44.3977 26.9814C44.3977 26.9814 44.9033 26.5799 44.0944 23.669C42.5776 17.9476 37.6229 13.1296 32.0615 11.9251C30.0391 11.5236 28.6235 9.91763 28.3201 7.91013L27.9156 4.29662C27.9156 3.89512 27.5112 3.594 27.1067 3.594C26.9045 3.594 26.7022 3.69437 26.6011 3.89512C26.5 4.09587 26.3989 4.19625 26.3989 4.397L26.8034 7.80975C27.0056 9.91763 25.7922 11.9251 23.7698 12.7281C17.8039 14.9364 14.1637 20.3566 14.4671 26.4795C14.4671 27.2825 14.6693 29.5912 14.8715 30.5949C15.1749 30.3942 15.6805 29.9927 16.0849 29.5912C17.2983 28.487 19.1185 26.9814 21.5453 25.6765"/>
</svg>
