<?xml version="1.0" encoding="utf-8" ?>
<svg xmlns="http://www.w3.org/2000/svg" xmlns:xlink="http://www.w3.org/1999/xlink" width="84" height="88">
	<path fill="white" d="M29.5407 88C25.4211 88 21.5024 86.1793 19.2919 83.0437C17.3828 80.4138 16.7799 77.0759 17.7847 74.0414L25.2201 48.4506L11.1531 48.4506C5.72727 48.4506 1.20574 44.9103 0.301435 39.8529C0 38.2345 0 36.4138 0 35.0989C0 15.6782 18.89 0 42 0C65.6124 0 84 15.4759 84 35.0989C84 36.8184 84 38.3356 83.6986 39.8529C82.8947 44.9103 78.3732 48.4506 72.7464 48.4506L57.3732 48.4506L65.0096 74.0414C66.0144 77.0759 65.4115 80.4138 63.5024 83.0437C61.2919 86.1793 57.3732 88 53.2536 88L29.5407 88"/>
	<path fill="#F2E2D6" d="M30.7466 39.7519L20.4978 75.1542C18.8901 80.3128 23.3112 85.168 29.3399 85.168L53.0528 85.168C59.0815 85.168 63.5025 80.3128 61.8949 75.1542L51.4451 39.7519C50.5408 36.2116 47.0241 33.8852 42.804 33.6829L40.292 33.6829C35.5695 33.6829 31.6509 36.3128 30.7466 39.7519"/>
	<path fill="#2D1B0A" d="M53.0527 86.1794L29.3398 86.1794C25.8231 86.1794 22.6078 84.6621 20.6987 82.0322C19.091 79.9081 18.6891 77.2782 19.493 74.8506L29.7417 39.5495C30.847 35.5035 35.1676 32.6713 40.292 32.6713L42.8039 32.6713C47.6269 32.9748 51.3447 35.7058 52.3494 39.5495L62.7991 74.8506C63.6031 77.3793 63.201 79.9081 61.5934 82.0322C59.7849 84.6621 56.5695 86.1794 53.0527 86.1794M42.8039 34.6943L40.292 34.6943C36.1723 34.6943 32.5551 36.9196 31.7514 40.0553L21.5025 75.4576C20.8997 77.3793 21.2011 79.3013 22.4068 80.9196C23.914 82.9426 26.5265 84.2576 29.4403 84.2576L53.1532 84.2576C56.0672 84.2576 58.6796 83.0437 60.1867 80.9196C61.3924 79.3013 61.694 77.3793 61.091 75.4576L50.5408 40.0553C49.6366 37.0208 46.6221 34.9978 42.8039 34.6943"/>
	<path fill="#93826A" d="M72.5457 45.6184C76.7658 45.6184 79.9811 43.0897 80.4835 39.5494C80.7849 38.3357 80.7849 37.0207 80.7849 35.3012C80.7849 17.6 63.6031 3.23675 41.7991 3.23675C20.3973 3.23675 2.81355 17.7012 2.81355 35.3012C2.81355 36.5149 2.81355 38.1334 3.11498 39.5494C3.81833 43.0897 6.83269 45.6184 11.0528 45.6184L72.5457 45.6184"/>
	<path fill="#2D1B0A" d="M72.5457 46.6298L10.9524 46.6298C6.43084 46.6298 2.81361 43.8988 2.00979 39.7518C1.70835 38.3357 1.70835 36.6161 1.70835 35.4024C1.70835 17.0942 19.6939 2.32645 41.6987 2.32645C63.8041 2.32645 81.6893 17.1954 81.6893 35.4024C81.6893 37.0208 81.6893 38.5379 81.3877 39.8529C80.8854 43.7977 77.1676 46.6298 72.5457 46.6298M41.7993 4.24829C20.7992 4.24829 3.8184 18.2069 3.8184 35.3012C3.8184 36.4138 3.8184 38.0322 4.01935 39.3471C4.62223 42.4827 7.43562 44.6069 10.9524 44.6069L72.5457 44.6069C76.1628 44.6069 78.9762 42.4827 79.4787 39.3471C79.7802 38.1334 79.7802 36.9196 79.7802 35.3012C79.7802 18.2069 62.6987 4.24829 41.7993 4.24829"/>
	<path fill="#CEA97C" d="M33.8614 17.6001C33.8614 21.7472 37.1771 25.0851 41.2968 25.0851C45.4164 25.0851 48.7322 21.7472 48.7322 17.6001C48.7322 13.4529 45.4164 10.115 41.2968 10.115C37.1771 10.2161 33.8614 13.5541 33.8614 17.6001"/>
	<path fill="#CEA97C" d="M14.067 33.9862C14.067 36.0092 15.1723 37.8299 16.8804 38.8414C18.5886 39.853 20.7991 39.853 22.5072 38.8414C24.2154 37.8299 25.3207 36.0092 25.3207 33.9862C25.3207 31.9632 24.2154 30.1426 22.5072 29.1311C20.7991 28.1196 18.5886 28.1196 16.8804 29.1311C15.1723 30.1426 14.067 31.9632 14.067 33.9862"/>
	<path fill="#CEA97C" d="M57.1723 34.8965C57.1723 36.9195 58.2776 38.7402 59.9857 39.7518C61.6939 40.7633 63.9044 40.7633 65.6125 39.7518C67.3206 38.7402 68.4259 36.9195 68.4259 34.8965C68.4259 32.8736 67.3206 31.0529 65.6125 30.0414C63.9044 29.0299 61.6939 29.0299 59.9857 30.0414C58.2776 30.9517 57.1723 32.8736 57.1723 34.8965"/>
	<path fill="#CEA97C" d="M9.847 19.1173C11.1532 20.3311 12.8614 20.938 14.67 20.938C18.6891 20.938 22.0049 17.6 22.0049 13.554C22.0049 12.2391 21.603 10.9241 20.8996 9.71035C16.8805 12.3402 13.1628 15.577 9.847 19.1173"/>
	<path fill="#CEA97C" d="M61.3925 9.0023C61.0911 9.91264 60.9644 10.9241 60.9644 11.9356C61.1915 15.9816 64.7083 19.1172 68.7274 18.9242C70.2346 18.8138 71.6413 18.308 72.847 17.3977C69.3303 14.1609 65.5121 11.3287 61.3925 9.0023"/>
</svg>
