<?xml version="1.0" encoding="utf-8" ?>
<svg xmlns="http://www.w3.org/2000/svg" xmlns:xlink="http://www.w3.org/1999/xlink" width="94" height="48">
	<path fill="white" d="M44.2126 48C33.836 48 24.7565 45.7815 20.0671 43.8655C12.2847 40.7395 3.20525 35.395 1.01022 29.7479C0.112246 26.7227 -0.187077 24.2017 0.112246 22.084L0.710893 17.2437L4.80165 19.9664C7.79488 21.8824 11.287 23.6975 14.6793 25.1092C19.1692 26.9244 27.65 28.8403 36.5299 28.8403C42.3168 28.8403 47.5051 28.0336 51.8952 26.521C66.1629 21.5798 71.1517 17.3445 74.8433 11.7983C75.0429 11.5966 75.0429 11.4958 75.1426 11.4958C77.1381 7.46218 80.3309 7.05882 81.3286 6.95798C83.5237 6.7563 85.9183 3.42857 86.7165 1.91597L87.6144 0.907563C88.5124 0.302521 89.4104 0 90.2086 0C92.3038 0 94 1.81513 94 4.23529L94 5.44538C91.6054 8.16807 90.5079 11.395 90.3083 12.605C90.3083 12.605 90.3083 12.7059 90.4081 12.7059C90.907 13.7143 91.7052 15.4286 91.4059 17.3445C91.3061 18.0504 91.2063 18.4538 90.907 18.958C91.0068 20.1681 91.0068 21.3782 90.7074 22.5882C90.009 24.7059 89.3106 26.7227 87.7142 28.7395C82.8253 36.3025 75.8411 40.9412 61.8726 45.7815C56.5846 47.0924 50.6979 48 44.2126 48"/>
	<path fill="#E85C4D" d="M87.6143 21.4791C88.4126 17.143 86.2176 12.6051 82.0271 11.4959C80.3308 10.8908 78.7345 11.2359 77.2379 13.2102C72.7479 20.0673 66.562 24.3026 52.7932 29.1429C39.0243 33.9833 21.0648 30.8572 13.482 27.7312C9.79032 26.3194 6.09867 24.4035 2.95375 22.3866C2.80611 24.4035 3.20521 26.7228 3.80385 28.6387C5.50002 32.9749 13.3822 38.0169 21.2644 41.1429C28.8472 44.269 46.9065 47.3951 60.5756 42.5547C74.3444 37.7144 80.6301 33.4791 85.0202 26.6219C86.4171 24.8068 87.0157 23.0925 87.6143 21.4791"/>
	<path fill="#2D1B0A" d="M44.1955 45.8825C35.0128 45.8825 26.1295 44.0673 20.9392 41.8489C13.3535 38.8236 4.76962 33.5799 2.973 28.8404C2.1745 26.2186 1.87506 24.0001 2.0148 22.0841L2.27431 20.4707L3.67169 21.3783C6.76587 23.3951 10.3591 25.311 13.9524 26.7228C21.8376 29.9497 39.6042 32.6724 52.6796 28.1346C65.755 23.5967 72.0432 19.4623 76.6346 12.6051C78.2316 10.4875 80.3277 9.78162 82.5235 10.4875C86.9153 11.5967 89.71 16.5379 88.7119 21.5799C88.113 23.3951 87.5142 25.2102 86.1168 27.0253C81.5254 34.185 74.838 38.5211 61.2635 43.2606C55.7738 45.1766 49.8849 45.8825 44.1955 45.8825M4.07094 24.101C4.17075 25.311 4.47019 26.7228 4.86944 28.2354C6.26681 31.7648 13.1539 36.706 21.7377 40.0337C29.6229 43.2606 47.3895 45.9833 60.3652 41.4455C73.6402 36.8068 79.9284 32.7732 84.3202 25.9161C85.5179 24.3026 86.1168 22.79 86.7157 21.1766C87.4143 17.143 85.3183 13.4119 81.8248 12.5043C80.3277 12.0001 79.2297 12.4035 78.1318 13.8152C73.3408 21.0757 66.853 25.4119 53.2785 30.0505C39.6042 34.79 21.6379 32.0673 13.2537 28.6388C10.0597 27.4287 6.86569 25.8152 4.07094 24.101"/>
	<path fill="#99CC62" d="M82.7254 14.6219C82.7254 14.6219 82.7254 17.9496 83.3241 19.9664C83.3241 19.9664 85.3196 17.9496 85.8185 16.6387L86.018 20.3698C86.018 20.3698 88.0135 17.2437 88.3128 16.437C88.5123 15.0253 87.5146 13.5126 87.2153 12.7059C87.0157 11.8992 88.3128 6.75632 90.9069 3.83195C90.9069 3.83195 90.9069 1.81514 89.2108 3.02522C89.2108 3.02522 85.9182 9.27732 81.4284 9.57985C81.4284 9.57985 79.1336 9.57985 77.7367 12.5042C77.7367 12.5042 79.7322 11.395 80.8297 12.3025C80.8297 12.3025 79.7322 12.9076 80.0315 16.6387C79.6324 16.5379 81.1291 14.2185 82.7254 14.6219"/>
	<path fill="#2D1B0A" d="M85.3196 23.5071L85.12 19.6752C84.6212 20.2802 84.2221 20.6836 84.1223 20.7844L82.925 21.9945L82.4261 20.3811C82.027 18.9693 81.8275 17.0534 81.8275 15.8433C81.5281 16.045 81.2288 16.3475 81.0293 16.5492L81.129 17.5576L79.4329 17.5576C79.0338 16.7508 79.0338 16.4483 79.0338 16.1458C78.934 14.734 79.1336 13.6248 79.3331 12.9189C78.934 13.0197 78.5349 13.1206 78.2356 13.3223L75.4419 14.8349L76.8387 12.0113C78.5349 8.58277 81.3286 8.58277 81.4284 8.58277C85.2198 8.28025 88.3128 2.53235 88.4126 2.53235C89.7096 1.52394 90.5078 1.6779 90.9069 1.82646C91.9047 2.33067 91.9047 3.64159 91.9047 3.84327C89.2108 7.171 88.1133 11.8097 88.213 12.5155C88.213 12.6164 88.4126 12.9189 88.5124 13.2214C88.9115 14.129 89.5101 15.3391 89.3105 16.65C89.0112 17.6584 87.4148 20.1794 86.916 20.9861L85.3196 23.5071M82.4261 13.6248C82.6257 13.6248 82.8252 13.6248 83.0248 13.7256L83.823 14.734C83.823 14.734 83.823 16.3475 84.0225 17.9609C84.4216 17.4567 84.8207 16.8517 85.0202 16.4483L86.3173 12.7172C86.3173 11.5071 86.916 9.08697 88.0135 6.86848C86.5169 8.68361 84.2221 10.5996 81.6279 10.8013C81.5281 10.8013 81.129 10.8013 80.5304 11.2046C80.9295 11.3055 81.2288 11.4063 81.6279 11.7088L82.8252 12.6164L81.6279 13.3223C81.5281 13.4231 81.4284 13.6248 81.3286 14.129C81.5281 13.7256 81.9272 13.6248 82.4261 13.6248M86.6166 13.8265L86.8162 17.0534C87.0157 16.65 87.2153 16.2466 87.3151 16.1458C87.4148 15.4399 87.0157 14.6332 86.7164 14.0281C86.7164 13.9273 86.7164 13.9273 86.6166 13.8265"/>
</svg>
