<?xml version="1.0" encoding="utf-8" ?>
<svg xmlns="http://www.w3.org/2000/svg" xmlns:xlink="http://www.w3.org/1999/xlink" width="126" height="82">
	<path fill="white" d="M62.7 82C58.7 82 54.7 80.7867 51.1 78.4612C48.4 80.0789 45.5 80.8878 42.5 80.8878C41.1 80.8878 39.7 80.6856 38.3 80.2811C35.8 80.9889 33.3 81.3933 30.7 81.3933C13.8 81.3933 0 65.7213 0 46.4094C0 27.0974 13.8 11.4254 30.7 11.4254C32.6 11.4254 34.6 11.6276 36.5 12.0321C38.4 11.2232 40.4 10.9199 42.5 10.9199C46.1 10.9199 49.6 12.1332 52.8 14.4587C54.4 13.5487 56.2 12.942 57.9 12.5376C58.1 7.2799 61.6 0 70.8 0C73.5 0 75.8 2.22441 75.8 5.05549C75.8 7.88656 73.6 10.111 70.8 10.111C69 10.111 68 11.021 67.9 12.7398C69.5 13.1443 71 13.7509 72.5 14.5598C75.7 12.2343 79.2 11.021 82.8 11.021C84.9 11.021 87 11.4254 89 12.2343C91.1 11.7287 93.2 11.5265 95.3 11.5265C112.2 11.5265 126 27.1985 126 46.5105C126 65.8224 112.2 81.4945 95.3 81.4945C92.6 81.4945 89.9 81.09 87.4 80.2811C85.9 80.7867 84.3 80.9889 82.8 80.9889C79.9 80.9889 77 80.18 74.3 78.5623C70.6 80.7867 66.7 82 62.7 82"/>
	<path fill="#F4983D" d="M3 46.4599C3 64.1542 15.4 78.4107 30.7 78.4107C46 78.4107 58.4 64.053 58.4 46.4599C58.4 28.7658 46 14.5092 30.7 14.5092C15.4 14.5092 3 28.7658 3 46.4599"/>
	<path fill="#2D1B0A" d="M30.7 79.4218C14.9 79.4218 2 64.6597 2 46.4599C2 28.2602 14.9 13.4981 30.7 13.4981C46.5 13.4981 59.4 28.2602 59.4 46.4599C59.4 64.6597 46.5 79.4218 30.7 79.4218M30.7 15.5203C16 15.5203 4 29.3723 4 46.4599C4 63.5475 16 77.3996 30.7 77.3996C45.4 77.3996 57.4 63.5475 57.4 46.4599C57.4 29.3723 45.4 15.5203 30.7 15.5203"/>
	<path fill="#F4983D" d="M67.6 46.4599C67.6 64.1542 80 78.4107 95.3 78.4107C110.6 78.4107 123 64.053 123 46.4599C123 28.7658 110.6 14.5092 95.3 14.5092C80 14.5092 67.6 28.7658 67.6 46.4599"/>
	<path fill="#2D1B0A" d="M95.3 79.4218C79.5 79.4218 66.6 64.6597 66.6 46.4599C66.6 28.2602 79.5 13.4981 95.3 13.4981C111.1 13.4981 124 28.2602 124 46.4599C124 64.6597 111.1 79.4218 95.3 79.4218M95.3 15.5203C80.6 15.5203 68.6 29.3723 68.6 46.4599C68.6 63.5475 80.6 77.3996 95.3 77.3996C110 77.3996 122 63.5475 122 46.4599C122 29.3723 110 15.5203 95.3 15.5203"/>
	<path fill="#F4983D" d="M22.3 45.9543C22.3 63.6486 31.3 77.9051 42.5 77.9051C53.7 77.9051 62.7 63.5475 62.7 45.9543C62.7 28.2602 53.7 14.0036 42.5 14.0036C31.3 14.0036 22.3 28.2602 22.3 45.9543"/>
	<path fill="#2D1B0A" d="M42.5 78.9162C30.8 78.9162 21.3 64.1541 21.3 45.9543C21.3 27.7546 30.8 12.9925 42.5 12.9925C54.2 12.9925 63.7 27.7546 63.7 45.9543C63.7 64.1541 54.2 78.9162 42.5 78.9162M42.5 15.0147C31.9 15.0147 23.3 28.8667 23.3 45.9543C23.3 63.0419 31.9 76.894 42.5 76.894C53.1 76.894 61.7 63.0419 61.7 45.9543C61.7 28.8667 53.1 15.0147 42.5 15.0147"/>
	<path fill="#F4983D" d="M62.6 45.9543C62.6 63.6486 71.6 77.9051 82.8 77.9051C94 77.9051 103 63.5475 103 45.9543C103 28.2602 94 14.0036 82.8 14.0036C71.6 14.0036 62.6 28.2602 62.6 45.9543"/>
	<path fill="#2D1B0A" d="M82.7 78.9162C71 78.9162 61.5 64.1541 61.5 45.9543C61.5 27.7546 71 12.9925 82.7 12.9925C94.4 12.9925 103.9 27.7546 103.9 45.9543C103.9 64.1541 94.4 78.9162 82.7 78.9162M82.7 15.0147C72.1 15.0147 63.5 28.8667 63.5 45.9543C63.5 63.0419 72.1 76.894 82.7 76.894C93.3 76.894 101.9 63.0419 101.9 45.9543C101.9 28.8667 93.3 15.0147 82.7 15.0147"/>
	<path fill="#935738" d="M62.9 19.0592C61.8 19.0592 60.9 18.1493 60.9 17.0371L60.9 12.9927C60.9 9.55488 63 2.98275 70.8 2.98275C71.9 2.98275 72.8 3.89274 72.8 5.00494C72.8 6.11715 71.9 7.02714 70.8 7.02714C65 7.02714 64.9 12.386 64.9 12.9927L64.9 17.0371C64.9 18.1493 64 19.0592 62.9 19.0592"/>
	<path fill="#2D1B0A" d="M62.9 20.0702C61.3 20.0702 59.9 18.7558 59.9 17.0371L59.9 12.9927C59.9 9.15044 62.2 1.97165 70.8 1.97165C72.4 1.97165 73.8 3.28608 73.8 5.00494C73.8 6.72381 72.5 8.03823 70.8 8.03823C66.1 8.03823 65.9 12.1838 65.9 12.9927L65.9 17.0371C65.9 18.6547 64.5 20.0702 62.9 20.0702M70.8 3.99384C63.8 3.99384 61.9 9.85821 61.9 12.9927L61.9 17.0371C61.9 17.5425 62.3 18.048 62.9 18.048C63.4 18.048 63.9 17.6437 63.9 17.0371L63.9 12.9927C63.9 10.3638 65.4 6.01604 70.8 6.01604C71.3 6.01604 71.8 5.6116 71.8 5.00494C71.8 4.39828 71.3 3.99384 70.8 3.99384"/>
	<path fill="#F4983D" d="M39.2 47.0665C39.2 64.761 49.7 79.0175 62.7 79.0175C75.7 79.0175 86.2 64.6599 86.2 47.0665C86.2 29.3726 75.7 15.1156 62.7 15.1156C49.7 15.1156 39.2 29.3726 39.2 47.0665"/>
	<path fill="#2D1B0A" d="M62.7 80.0284C49.2 80.0284 38.2 65.2663 38.2 47.0666C38.2 28.8667 49.2 14.1047 62.7 14.1047C76.2 14.1047 87.2 28.8667 87.2 47.0666C87.2 65.2663 76.2 80.0284 62.7 80.0284M62.7 16.0258C50.3 16.0258 40.2 29.8778 40.2 46.9654C40.2 64.0529 50.3 77.905 62.7 77.905C75.1 77.905 85.2 64.0529 85.2 46.9654C85.2 29.8778 75.1 16.0258 62.7 16.0258"/>
</svg>
