<?xml version="1.0" encoding="utf-8" ?>
<svg xmlns="http://www.w3.org/2000/svg" xmlns:xlink="http://www.w3.org/1999/xlink" width="110" height="38">
	<path fill="white" d="M108.817 1.99475C107.721 0.698163 106.126 0 104.532 0C103.834 0 103.037 0.0997375 102.34 0.39895L93.5702 3.88976C87.1925 6.3832 76.9284 6.48294 62.7779 6.68241C60.9842 6.68241 59.0908 6.68241 57.0978 6.78215C56.2009 6.78215 55.2044 6.78215 54.3075 6.78215C29.8929 6.78215 14.6462 2.69291 7.67061 0.299213C7.0727 0.0997375 6.37514 0 5.67758 0C3.98351 0 2.28943 0.7979 1.19326 2.09449C0.196748 3.29134 -0.201858 4.88714 0 6.3832C3.88385 25.832 16.9382 34.8084 26.8037 36.5039C32.7828 37.5013 40.5556 38 50.3215 38C57.4964 38 66.1661 37.7008 77.626 37.2021C105.429 35.8058 108.618 15.0604 110 6.18373C110.212 4.68766 109.714 3.1916 108.817 1.99475"/>
	<path fill="#589344" d="M3.0103 5.37782C2.66112 3.48231 4.75307 1.98585 6.64579 2.6842C13.9178 5.27805 30.4542 9.66766 57.0518 9.36836C74.9828 9.16884 86.8372 9.36836 94.6073 6.27569C98.1935 4.879 101.182 3.68183 103.373 2.78396C105.266 2.08561 107.258 3.38254 106.989 5.27805C105.664 13.9575 102.776 32.5135 77.4733 33.8105C55.6572 34.9079 38.9216 35.1074 27.3661 33.1121C18.799 31.7154 6.64579 23.7343 3.0103 5.37782"/>
	<path fill="#2D1B0A" d="M50.2689 35.7059C41.1988 35.7059 33.4244 35.3068 27.145 34.2091C17.7759 32.6125 5.6159 24.1304 1.9774 5.66923C1.82836 4.47175 2.22705 3.37406 3.1241 2.57574C4.12082 1.63685 5.6159 1.37826 6.91163 1.87721C14.387 4.47175 30.7332 8.76271 56.9469 8.46334C58.9404 8.46334 60.8341 8.46334 62.6282 8.36355C77.579 8.26376 87.4465 8.16397 94.2242 5.46965L102.995 1.977C104.291 1.47805 105.686 1.63685 106.782 2.47595C107.68 3.17448 108.178 4.37196 108.022 5.46965C106.683 13.852 103.693 33.5107 77.579 34.8078C67.4125 35.3068 58.2427 35.7059 50.2689 35.7059M5.6159 3.57364C5.11754 3.57364 4.71885 3.77322 4.41983 3.9728C4.22049 4.17238 3.8218 4.57154 3.92147 5.17028C7.31032 22.6336 18.7726 30.6168 27.444 32.1135C39.2053 34.1093 55.8505 33.8099 77.3797 32.812C101.899 31.6147 104.59 13.7523 105.985 5.17028C106.085 4.57154 105.686 4.17238 105.487 4.07259C105.088 3.77322 104.39 3.57364 103.693 3.87301L94.9219 7.36566C87.8452 10.1598 77.7784 10.2596 62.6282 10.4591C60.8341 10.4591 58.9404 10.4591 56.9469 10.5589C30.4342 10.8583 13.789 6.46755 6.21393 3.87301C6.01458 3.57364 5.81524 3.57364 5.6159 3.57364"/>
	<path fill="#99CC62" d="M66.4054 21.5434C66.4054 24.8348 68.098 27.8269 70.9852 29.4227C73.7729 31.0185 77.2576 31.0185 80.0453 29.4227C82.833 27.8269 84.6252 24.8348 84.6252 21.5434C84.6252 18.252 82.9326 15.2599 80.0453 13.6641C77.2576 12.0683 73.7729 12.0683 70.9852 13.6641C68.1975 15.2599 66.4054 18.3518 66.4054 21.5434"/>
	<path fill="#2D1B0A" d="M75.4655 31.6168C73.7729 31.6168 71.9808 31.1181 70.3878 30.2205C67.3014 28.4252 65.3102 25.0341 65.3102 21.4436C65.3102 17.8531 67.2019 14.462 70.3878 12.6667C73.4742 10.8714 77.3571 10.8714 80.4435 12.6667C83.53 14.462 85.5212 17.8531 85.5212 21.4436C85.5212 25.0341 83.6295 28.4252 80.4435 30.2205C78.9501 31.2178 77.2576 31.6168 75.4655 31.6168M75.4655 13.4646C74.0716 13.4646 72.6777 13.8636 71.3835 14.5617C68.8944 15.958 67.3014 18.651 67.3014 21.5434C67.3014 24.4357 68.8944 27.1287 71.3835 28.525C73.8725 29.9212 76.9589 29.9212 79.4479 28.525C81.937 27.1287 83.53 24.4357 83.53 21.5434C83.53 18.651 81.937 15.958 79.4479 14.5617C78.2532 13.8636 76.8593 13.4646 75.4655 13.4646"/>
	<path fill="#99CC62" d="M44.2048 22.2416C44.2048 27.2285 48.2868 31.3177 53.2649 31.3177C58.243 31.3177 62.325 27.2285 62.325 22.2416C62.325 17.2547 58.243 13.1655 53.2649 13.1655C48.2868 13.1655 44.2048 17.2547 44.2048 22.2416"/>
	<path fill="#2D1B0A" d="M53.2649 32.315C47.6882 32.315 43.2076 27.8269 43.2076 22.2416C43.2076 16.6562 47.6882 12.1681 53.2649 12.1681C58.84 12.1681 63.3222 16.6562 63.3222 22.2416C63.4201 27.8269 58.84 32.315 53.2649 32.315M53.2649 14.1628C48.7835 14.1628 45.199 17.7534 45.199 22.2416C45.199 26.7298 48.7835 30.3203 53.2649 30.3203C57.7447 30.3203 61.3292 26.7298 61.3292 22.2416C61.4288 17.8531 57.7447 14.1628 53.2649 14.1628"/>
	<path fill="#99CC62" d="M21.1049 20.7455C21.1049 25.7323 25.1869 29.8216 30.165 29.8216C35.1431 29.8216 39.2251 25.7323 39.2251 20.7455C39.2251 15.7586 35.1431 11.6693 30.165 11.6693C25.0874 11.6693 21.1049 15.6588 21.1049 20.7455"/>
	<path fill="#2D1B0A" d="M30.165 30.8189C24.5896 30.8189 20.1093 26.3307 20.1093 20.7454C20.1093 15.1601 24.5896 10.6719 30.165 10.6719C35.7405 10.6719 40.2207 15.1601 40.2207 20.7454C40.2207 26.231 35.6409 30.8189 30.165 30.8189M30.165 12.6667C25.6847 12.6667 22.1005 16.2572 22.1005 20.7454C22.1005 25.2337 25.6847 28.8242 30.165 28.8242C34.6453 28.8242 38.2295 25.2337 38.2295 20.7454C38.2295 16.2572 34.5457 12.6667 30.165 12.6667"/>
</svg>
