<?xml version="1.0" encoding="utf-8" ?>
<svg xmlns="http://www.w3.org/2000/svg" xmlns:xlink="http://www.w3.org/1999/xlink" width="122" height="106">
	<path fill="white" d="M48.0425 106C40.9657 106 34.1879 104.406 27.9085 101.417C24.6193 99.8233 21.031 99.0263 17.1438 99.0263C14.951 99.0263 12.6585 99.3252 10.366 99.8233L6.47876 100.72L6.6781 96.735C6.77778 94.9417 6.6781 93.2481 6.37908 91.6541C6.77778 85.8759 6.08007 81.1936 3.98693 77.109C2.09314 73.1241 0.697712 68.9398 0 64.5564C0 60.9699 0.498366 57.8816 1.19608 54.8929C3.38889 45.0301 8.27288 35.9643 15.549 28.6917C25.5163 18.7293 38.6732 13.25 52.6275 13.25C63.6912 13.25 72.5621 13.25 80.9346 21.3195L83.9248 0L100.77 1.89286L91.9984 32.5771L121.701 23.5113L122 44.0338L95.8856 47.6203C96.384 50.609 96.5833 53.797 96.5833 57.2838C96.5833 70.235 91.5 82.4887 82.2304 91.6541C73.3595 100.72 60.8007 106 48.0425 106"/>
	<path fill="#9CCC58" d="M82.629 28.1936L86.1176 3.28755L96.5833 4.48304L87.3137 37.0602L118.511 27.4961L118.711 41.4436L89.9052 45.4286L77.7451 36.0639"/>
	<path fill="#2D1B0A" d="M89.6062 46.4248L76.4493 36.3627L81.732 27.8947L85.3202 2.2913L97.879 3.68604L88.7091 35.5657L119.409 26.2011L119.708 42.3402L89.6062 46.4248M79.1405 35.8646L90.2042 44.3327L117.714 40.5469L117.515 28.7913L85.8186 38.4548L95.2875 5.28002L86.915 4.38341L83.5261 28.4924L79.1405 35.8646"/>
	<path fill="#E2E2E2" d="M28.8057 98.8271C45.6503 106.996 66.2828 103.31 79.938 89.5621C88.5098 80.9944 93.3939 69.3383 93.3939 57.2839C93.3939 45.0302 90.304 35.0676 81.5328 26.4005C81.1341 26.0019 79.8382 24.8064 79.1406 24.1091C71.6651 16.438 64.1896 16.2388 52.2288 16.2388C38.9722 16.2388 26.6128 21.4192 17.2436 30.7839C8.07358 39.9492 2.99024 52.0037 2.59155 64.0583C3.28926 68.0433 4.48534 72.0283 6.37913 75.8139C8.97063 81.1936 9.36933 86.5733 8.87096 91.1561C9.26965 93.1485 9.26965 95.1411 9.16998 96.9342C14.5524 95.8383 21.7289 95.4398 28.8057 98.8271"/>
	<path fill="#2D1B0A" d="M47.5441 104.207C40.9657 104.207 34.3872 102.812 28.3072 99.8233C21.2304 96.4361 14.1536 97.0338 9.46894 98.0301L8.17318 98.3289L8.27286 97.0338C8.37253 95.141 8.27286 93.2481 7.97384 91.4549C8.57188 85.8759 7.67482 80.8947 5.58168 76.4116C3.78756 72.6259 2.49181 68.641 1.7941 64.3571C2.29247 51.5056 7.57515 39.4511 16.7451 30.1861C26.3137 20.6222 38.9722 15.3421 52.4281 15.3421C64.9869 15.3421 72.3627 15.7406 80.0376 23.5113C80.4363 23.9098 81.0343 24.5075 81.5327 24.906C81.9314 25.2049 82.2304 25.5038 82.4297 25.703C90.8023 33.9718 94.5899 43.735 94.5899 57.2838C94.5899 69.7368 89.7059 81.3929 80.8349 90.2594C71.5653 99.3252 59.6046 104.207 47.5441 104.207M16.7451 95.141C20.6323 95.141 24.9183 95.8383 29.3039 97.9304C45.75 106 65.884 102.314 79.3399 88.8647C87.8121 80.3966 92.4967 69.1391 92.4967 57.2838C92.4967 44.3327 88.9085 34.968 80.9346 27.0977C80.7353 26.8985 80.4363 26.5996 80.1372 26.3007C79.6389 25.8026 78.9412 25.2049 78.5425 24.8064C71.4657 17.5338 64.6879 17.235 52.3284 17.235C39.4706 17.235 27.3104 22.3158 18.0408 31.4812C9.26959 40.2481 4.18626 51.8045 3.68789 63.9586C4.3856 67.9436 5.58168 71.7293 7.27613 75.3158C9.56861 80.0977 10.4657 85.3778 9.9673 91.0564C10.2663 92.5507 10.366 94.0451 10.366 95.6391C12.1601 95.4398 14.3529 95.141 16.7451 95.141"/>
	<path fill="#EEE" d="M3.78759 55.4906C3.78759 55.4906 8.47223 56.1879 11.7614 59.4755"/>
	<path fill="#2D1B0A" d="M10.665 60.5714C7.77452 57.6823 3.48857 56.9849 3.48857 56.9849L3.88726 53.9962C4.08661 53.9962 9.07027 54.7932 12.6585 58.3797L10.665 60.5714"/>
	<path fill="#EEE" d="M9.36924 44.233C9.36924 44.233 13.3562 44.233 15.0506 47.2218"/>
	<path fill="#2D1B0A" d="M13.7549 47.9191C12.5588 45.7274 9.36924 45.7274 9.36924 45.7274L9.36924 42.7387C9.56859 42.7387 14.2532 42.7387 16.3464 46.5244L13.7549 47.9191"/>
	<path fill="#EEE" d="M72.1634 86.8722C72.1634 86.8722 75.9509 88.1673 76.4493 91.5545"/>
	<path fill="#2D1B0A" d="M75.0539 91.8534C74.6552 89.4624 71.665 88.3665 71.665 88.2669L72.6617 85.4774C72.8611 85.5771 77.2467 87.171 77.9444 91.3553L75.0539 91.8534"/>
</svg>
