<?xml version="1.0" encoding="utf-8" ?>
<svg xmlns="http://www.w3.org/2000/svg" xmlns:xlink="http://www.w3.org/1999/xlink" width="110" height="110">
	<path fill="white" d="M34.3131 110C30.2014 110 26.3905 108.594 22.9808 105.982C18.4679 105.178 14.3562 102.968 10.7459 99.4521C7.13562 95.8356 5.02961 91.8174 4.22732 87.2968C0.717313 82.9772 -0.686691 77.9543 0.316169 72.6301C1.21874 67.8082 4.02675 62.8858 8.53962 58.3653C9.94362 56.9589 12.0496 55.2511 14.4565 53.6438C12.5511 48.0183 12.3505 41.79 13.6542 35.4612C15.3591 27.2237 19.6714 19.589 25.9894 13.2603C34.4134 4.82192 45.3446 0 56.0752 0C60.6883 0 65.1009 0.90411 69.0121 2.71233C69.7141 2.71233 70.4161 2.61187 71.0178 2.61187C75.0292 2.61187 78.9404 3.21461 82.7512 4.42009C87.8658 6.12785 92.479 8.84018 96.2898 12.4566C100.101 16.1735 103.009 20.5936 104.914 25.6164C106.419 29.6347 107.221 33.9543 107.221 38.4749C110 44.6027 110.731 52.0365 109.227 59.3699C107.522 67.6073 103.109 75.5434 96.7913 81.9726C90.5735 88.2009 83.1524 92.4201 75.1295 94.2283C72.3215 94.8311 69.5135 95.1324 66.8058 95.1324C63.5966 95.1324 60.3875 94.7306 57.4792 93.8265C55.674 97.1416 53.7686 99.8539 51.8632 101.763C47.4506 106.183 42.5366 108.895 37.6226 109.799C36.4191 110 35.316 110 34.3131 110"/>
	<path fill="#80BC64" d="M18.7699 56.7581C15.4857 50.7308 14.6579 43.3974 16.2626 35.8632C17.8673 28.2284 21.879 21.0961 27.7962 15.1691C40.3326 2.61201 58.4855 -0.80351 70.8214 7.0321"/>
	<path fill="#2D1B0A" d="M17.9675 57.2603C14.6579 51.032 13.6549 43.3973 15.3599 35.6621C17.0649 27.8265 21.0765 20.4932 27.1944 14.4658C40.0318 1.60731 58.6861 -1.90867 71.5235 6.22832L70.4203 7.93608C58.3852 0.30138 40.8341 3.7169 28.5985 15.9726C22.7815 21.7991 18.9704 28.7306 17.3657 36.1644C15.7611 43.3973 16.6637 50.6301 19.7728 56.3562L17.9675 57.2603"/>
	<path fill="#80BC64" d="M103.116 37.4704C106.526 43.4978 107.529 50.9316 106.024 58.5663C104.419 66.201 100.307 73.6348 94.3903 79.5617C88.5733 85.3882 81.6532 89.306 74.1313 91.0138C71.5237 91.6165 69.0164 91.9179 66.5091 91.9179C61.8956 91.9179 57.4828 90.9133 53.5714 89.0046"/>
	<path fill="#2D1B0A" d="M66.5089 92.9225C61.6949 92.9225 57.0815 91.9179 53.1701 89.9088L54.0727 88.1006C59.6891 90.9133 66.9101 91.6165 73.9306 90.1097C81.2519 88.4019 88.0718 84.5846 93.6881 78.959C99.5051 73.1325 103.517 65.8997 105.021 58.4659C106.525 51.0321 105.523 43.7992 102.313 38.0732L104.018 37.0686C107.528 43.2969 108.632 51.0321 107.027 58.8677C105.422 66.7033 101.21 74.338 95.1925 80.3654C89.2753 86.2923 82.1545 90.3106 74.432 92.1188C71.7241 92.6211 69.1165 92.9225 66.5089 92.9225"/>
	<path fill="#E2E2E2" d="M7.13618 86.1917C3.52567 82.3744 2.12158 77.8538 3.02421 72.9315C3.82654 68.6118 6.33385 64.2922 10.3455 60.2739C13.6551 56.9589 24.2861 49.3242 34.1147 48.3196"/>
	<path fill="#2D1B0A" d="M6.43418 86.895C2.62308 82.8767 1.1187 77.9544 2.02133 72.8311C2.82367 68.411 5.43126 63.79 9.64353 59.5708C13.0535 56.1553 23.885 48.4201 34.0145 47.3151L34.2151 49.3242C24.5871 50.3288 14.257 57.7626 11.0476 60.9772C7.13623 64.895 4.72922 69.1142 4.02717 73.1325C3.22483 77.653 4.52863 81.9726 7.93856 85.4886L6.43418 86.895"/>
	<path fill="#E2E2E2" d="M59.3881 81.4704C58.5858 83.4795 57.7834 85.3882 57.0815 87.096C54.5742 92.7215 51.9665 96.8403 49.4593 99.3517C45.5479 103.27 41.1349 105.781 36.8224 106.585C35.9198 106.685 34.9168 106.786 34.0142 106.786C30.2031 106.786 26.6929 105.379 23.6841 102.566"/>
	<path fill="#2D1B0A" d="M34.0143 107.891C30.0026 107.891 26.1915 106.384 22.9822 103.47L24.286 101.964C27.0942 104.575 30.4038 105.881 34.0143 105.881C34.8167 105.881 35.7193 105.781 36.6219 105.68C40.7339 104.977 44.8459 102.566 48.657 98.7489C51.1643 96.2375 53.6716 92.2192 56.0786 86.7946C56.8809 85.0868 57.6833 83.1781 58.3853 81.169L60.2909 81.8722C59.4885 83.8813 58.6862 85.79 57.8839 87.5982C55.2763 93.3243 52.6687 97.5434 50.0611 100.155C45.9491 104.274 41.4359 106.886 36.9228 107.689C35.8196 107.79 34.917 107.891 34.0143 107.891"/>
	<path fill="#80BC64" d="M28.4983 58.1645C25.0884 45.0047 29.5013 30.1371 39.8314 19.2878C47.3533 11.4521 57.0816 6.63021 67.2111 5.7261C72.2257 5.22381 76.9394 5.82655 81.4526 7.23295C86.1663 8.73979 90.2783 11.2512 93.7885 14.5663C97.2987 17.9818 99.9063 22 101.611 26.6211C103.216 31.0411 103.918 35.863 103.751 40.886C103.216 51.1325 98.8031 60.9773 91.2812 68.9134C86.1663 74.2375 80.0485 78.2557 73.3289 80.4659C69.3172 81.8722 65.2053 82.5754 61.1936 82.701C58.6863 82.701 56.179 82.5754 53.6717 82.0732"/>
	<path fill="#2D1B0A" d="M60.6022 83.58C58.2948 83.58 55.9874 83.3791 53.7803 82.9773L54.1816 80.9681C56.489 81.37 58.997 81.5709 61.5051 81.5709C65.4177 81.4704 69.4306 80.7672 73.3432 79.4613C79.8642 77.2512 85.8836 73.3334 90.8997 68.1097C98.2233 60.475 102.537 50.7307 103.039 40.7855C103.239 35.8631 102.537 31.2421 100.932 26.9225C99.2265 22.4019 96.7184 18.4841 93.3075 15.2695C89.8965 12.0549 85.8836 9.64393 81.369 8.13708C76.9548 6.73069 72.34 6.22841 67.5245 6.63024C57.5925 7.53434 48.0619 12.2558 40.7383 19.8905C30.6057 30.4385 26.3921 45.0047 29.7028 57.8631L27.7966 58.3654C24.3857 44.9042 28.7999 29.6348 39.3338 18.4841C47.0586 10.4476 56.9906 5.52521 67.3238 4.52065C72.4403 4.01836 77.3561 4.6211 81.971 6.0275C86.7865 7.6348 91.1004 10.1462 94.712 13.6622C98.3236 17.1782 101.032 21.2969 102.838 26.1188C104.544 30.6394 105.246 35.5617 105.078 40.7855C104.544 51.233 100.029 61.3791 92.4046 69.4156C87.1878 74.8403 80.8674 78.959 74.0455 81.2695C69.9322 82.6759 65.7187 83.3791 61.6054 83.4796C61.1038 83.58 60.9032 83.58 60.6022 83.58"/>
	<path fill="#E2E2E2" d="M26.292 103.169C21.177 103.169 16.4633 101.16 12.5519 97.1415C7.83817 92.4201 5.93262 86.5936 6.93554 80.4657C7.83817 75.0411 11.0475 69.4155 16.2627 64.1918C26.3923 54.0456 53.2705 46.0091 64.3027 42.9954L67.5119 42.0913L66.6094 45.3059C61.996 61.6803 54.8752 84.484 45.7486 93.726C40.6337 98.8493 34.917 102.064 29.3006 102.868C28.2978 103.068 27.2948 103.169 26.292 103.169"/>
	<path fill="#2D1B0A" d="M26.2919 104.174C20.9764 104.174 15.9618 101.963 11.8498 97.8447C6.93551 92.9223 4.82938 86.7945 5.93259 80.2648C6.93551 74.6392 10.2451 68.8128 15.5606 63.4886C25.7904 53.242 52.8693 45.0045 64.102 41.9908L69.0163 40.6849L67.6122 45.6073C62.9988 62.0822 55.7778 85.0867 46.4506 94.5296C41.1351 99.8538 35.3182 103.068 29.5012 103.973C28.4983 104.073 27.3951 104.174 26.2919 104.174M66.1079 43.4977L64.6035 43.8995C53.5713 46.9132 26.8936 54.9497 16.9647 64.8949C11.9501 69.9178 8.84106 75.3424 7.93843 80.5662C6.93551 86.3927 8.74077 91.9178 13.2539 96.3379C17.065 100.155 21.4779 102.064 26.2919 102.064C27.2948 102.064 28.1974 101.963 29.2004 101.863C34.6161 101.059 40.0319 97.9452 45.0465 92.9223C54.0728 83.8812 61.1935 61.1781 65.7067 44.9041L66.1079 43.4977"/>
</svg>
