<?xml version="1.0" encoding="utf-8" ?>
<svg xmlns="http://www.w3.org/2000/svg" xmlns:xlink="http://www.w3.org/1999/xlink" width="106" height="124">
	<path fill="white" d="M66.4157 124C63.9233 124 61.9294 123.799 60.1348 123.195C55.2496 121.685 53.9536 118.162 53.5548 116.753C53.2557 115.646 53.2557 114.438 53.4551 113.331L50.863 101.555C47.9717 102.562 43.3856 104.071 38.3011 104.877C35.3102 105.38 32.6183 105.581 30.0262 105.581C29.1289 105.581 28.2316 105.581 27.4341 105.481C16.0686 104.474 9.78763 97.8312 9.38884 86.6591C9.08975 79.4123 10.6849 73.9773 14.1743 70.4545C17.1652 67.3344 21.2528 65.8247 26.4371 65.8247C27.5338 65.8247 28.5307 65.9253 29.6274 66.026C15.3707 57.5714 0.515771 39.8571 0 24.5584C-0.281808 16.6071 3.3073 9.86364 10.2861 5.03247C14.6728 2.01299 19.3586 0.503247 24.0444 0.503247C37.7029 0.503247 48.6696 13.487 53.9536 21.237C54.3524 19.7273 54.9505 18.2175 55.5487 16.5065L57.6424 11.8766C62.6272 2.11364 68.5094 0 72.7964 0C80.0743 0 86.0561 2.41558 89.8446 6.84416C93.6331 11.2727 95.1286 17.3117 94.1316 24.2565C93.7328 26.974 92.6362 29.8929 90.9413 33.013L87.6513 37.8442L93.5334 38.3474C95.9262 38.9513 98.7177 40.1591 101.11 42.5747C104.5 45.9968 106 51.0292 106 57.3701C106 61.6981 104.7 66.1266 102.207 70.5552L99.615 74.5812C97.2222 77.9026 94.2313 81.1234 90.6422 84.2435C88.0501 86.4578 85.757 88.1688 84.2616 89.1753L84.0622 109.104C84.5607 110.211 84.7601 111.218 84.7601 111.922C84.8598 115.143 82.9655 118.263 79.3764 120.679C76.7843 122.39 73.594 123.497 70.603 123.698C69.0079 124 67.7118 124 66.4157 124"/>
	<path fill="#FFD9B6" d="M81.0414 112.123L81.3405 87.6656C81.3405 87.6656 102.776 74.5812 103.079 57.4708C103.374 40.3604 89.6155 40.5617 87.123 41.065C84.6305 41.5682 70.872 44.5877 70.2738 58.3766L68.1801 52.1364C68.1801 52.1364 89.2167 37.4416 91.111 23.9546C92.9056 11.3734 85.6275 3.0195 72.6666 3.0195C59.4066 3.0195 55.1195 28.987 55.1195 28.987C55.1195 28.987 35.5784 -8.5552 11.85 7.54872C-9.5854 22.1429 11.85 52.1364 31.2913 63.4091L40.2643 71.9643C40.2643 71.9643 11.3515 58.5779 12.3485 86.5585C13.3455 114.538 53 97.4286 53 97.4286L57.0138 115.546L81.0414 112.123"/>
	<path fill="#2D1B0A" d="M56.049 116.854L52.1601 98.9383C47.3737 100.851 28.6271 107.594 18.1569 100.851C13.7694 98.0325 11.476 93.302 11.2765 86.7598C10.9774 78.8085 13.0714 73.2727 17.4589 70.3539C23.043 66.5292 31.0203 68.039 36.0061 69.5487L30.6214 64.4156C16.8606 56.3637 2.40183 39.3539 1.884 24.6591C1.6041 17.3117 4.79501 11.2727 11.2765 6.94482C16.9604 3.0195 22.9433 1.8117 29.026 3.42209C41.6899 6.64287 51.2626 20.7338 54.653 26.3701C56.1487 19.526 61.2342 2.2143 72.7016 2.2143C79.3825 2.2143 84.7672 4.32794 88.2572 8.35391C91.6476 12.2792 92.9439 17.8149 92.1462 24.1559C91.2487 30.2955 86.7615 36.5357 81.8754 41.6688C83.9695 40.763 85.8641 40.3604 86.9609 40.1591C88.7558 39.7565 94.4396 39.6559 98.8271 43.2792C102.417 46.2987 104.116 51.0292 104.116 57.4708C103.913 73.6753 85.6646 86.1559 82.374 88.1688L82.0749 112.928L56.049 116.854M53.5561 96.2208L57.6445 114.639L80.0805 111.419L80.28 87.3637C80.978 86.9611 101.719 74.0779 102.018 57.6721C102.118 51.9351 100.522 47.7078 97.4311 45.0909C93.6419 41.9708 88.6561 42.0714 87.2601 42.3734C82.5734 43.2792 71.7044 46.802 71.2058 58.7792L71.0064 64.2143L66.918 52.1364C67.7158 51.6331 88.2572 37.1396 90.0521 24.2565C90.8499 18.4188 89.6533 13.487 86.6618 9.9643C83.5706 6.34092 78.6845 4.42859 72.6018 4.42859C60.3368 4.42859 56.049 29.289 56.049 29.5909L55.5504 32.5098L54.1544 29.8929C54.0547 29.6916 43.2854 9.3604 28.5274 5.53573C23.043 4.12664 17.5586 5.23378 12.3734 8.75651C6.49018 12.7825 3.69813 18.1169 3.89757 24.7598C4.39614 38.75 18.4561 55.1559 31.7183 62.9059L45.2797 75.6883L39.7953 73.1721C39.6956 73.0714 26.1342 67.0325 18.5558 72.1656C14.7666 74.6818 13.0714 79.6137 13.2709 86.8604C13.4703 92.6981 15.4646 96.9253 19.2538 99.3409C30.1229 106.285 52.2598 96.9253 52.5589 96.8247M69.2115 52.6396L69.7101 54.25C70.0092 53.2435 70.3084 52.3377 70.7072 51.5325C70.1089 52.0357 69.6104 52.4383 69.2115 52.6396"/>
	<path fill="#1A1A1A" d="M69.7215 106.453C67.5284 106.588 65.136 106.99 62.943 107.795C61.2484 108.399 58.9557 109.506 57.4605 111.318C56.2643 112.727 55.7659 114.438 56.1646 116.149C56.4636 117.357 57.3608 119.471 60.6503 120.477C62.0459 120.88 63.7405 121.081 66.0332 121.081C67.4288 121.081 68.7246 120.981 69.8211 120.981C72.8116 120.88 75.4034 119.974 77.5964 118.464C80.2878 116.653 81.6834 114.539 81.6834 112.325C81.6834 111.218 80.9856 109.104 77.4967 107.393C75.6027 106.185 70.2199 106.453 69.7215 106.453"/>
	<path fill="#1A1A1A" d="M7.71872 36.9383L5.82475 36.4351C7.02094 31.5033 9.71238 27.1753 13.8991 23.4513C17.089 20.5325 21.1759 18.0163 25.9607 16.0033C33.1379 12.9838 39.7169 11.776 41.611 11.5747L42.0096 13.5877C40.1157 13.8896 33.736 14.9968 26.7581 17.9156C22.1727 19.9286 18.2851 22.2435 15.1949 25.0617C11.3073 28.4838 8.81524 32.5098 7.71872 36.9383"/>
	<path fill="#1A1A1A" d="M87.0664 34.8247C82.2816 25.1623 74.7057 20.5325 69.2231 18.4188C63.2421 16.1039 58.4574 16.1039 58.258 16.1039L58.258 14.0909C58.4574 14.0909 63.5412 14.0909 69.9209 16.6071C75.7025 18.9221 83.7768 23.7532 88.8606 34.0195L87.0664 34.8247"/>
	<path fill="#FFD9B6" d="M56.7627 25.263C56.7627 25.263 57.6599 25.3636 58.7564 25.7662C59.5538 26.0681 60.5507 26.5714 60.8497 26.672"/>
	<path fill="#2D1B0A" d="M60.5507 27.6785C60.451 27.6785 60.3513 27.5779 60.2516 27.4772C59.8529 27.2759 59.1551 26.974 58.557 26.7727C57.5602 26.4708 56.663 26.2695 56.663 26.2695L56.9621 24.2565C56.9621 24.2565 58.0586 24.3571 59.1551 24.7597C59.8529 24.961 60.5507 25.3636 61.0491 25.5649C61.1488 25.6656 61.2485 25.6656 61.3481 25.6656L60.5507 27.6785"/>
	<path fill="#1A1A1A" d="M97.9317 70.7565C96.2371 64.3149 91.3526 58.7792 83.7767 54.8539C78.7926 52.237 74.1075 51.1298 72.8116 50.8279L72.8116 49.8214L73.1106 48.8149C74.5062 49.1168 79.3907 50.3246 84.5742 53.0422C92.6485 57.2694 97.9317 63.2078 99.726 70.2532L97.9317 70.7565"/>
	<path fill="#1A1A1A" d="M26.5588 103.87C25.9607 102.562 24.0667 97.8312 23.1696 91.8929C21.774 82.7338 23.4686 74.8832 28.054 69.2468L29.5493 70.5552C25.3626 75.789 23.7677 83.0358 25.0635 91.591C25.861 97.2273 27.755 101.757 28.2534 102.964L26.5588 103.87"/>
	<path fill="#FFD9B6" d="M81.4841 69.1461C81.4841 69.1461 87.7641 73.9773 88.6613 82.3312"/>
	<path fill="#2D1B0A" d="M87.6644 82.4319C86.867 74.5812 80.886 69.9513 80.886 69.9513L82.0822 68.341C82.3812 68.5423 88.6613 73.4741 89.5584 82.2306L87.6644 82.4319"/>
	<path fill="#1A1A1A" d="M34.8325 29.289L33.736 27.5779C41.91 22.1429 51.2802 22.0422 51.3799 22.0422L51.3799 24.0552C51.2802 24.1559 42.4084 24.2565 34.8325 29.289"/>
	<path fill="#1A1A1A" d="M47.0935 65.3214L45.6979 63.9124C55.2675 54.25 66.4319 56.7663 66.5316 56.7663L66.0332 58.6786C65.9335 58.6786 55.8656 56.4711 47.0935 65.3214"/>
	<path fill="#1A1A1A" d="M36.6268 103.065C34.6331 92.4967 36.8261 83.8409 36.9258 83.4383L38.8198 83.9416C38.8198 84.0422 36.6268 92.4967 38.6204 102.662L36.6268 103.065"/>
	<path fill="#1A1A1A" d="M76.799 98.6364C76.6993 98.6364 70.0205 96.7241 65.1361 98.6364L64.4383 96.7241C69.9209 94.5098 77.098 96.6234 77.3971 96.7241L76.799 98.6364"/>
	<path fill="#1A1A1A" d="M46.0966 36.6363L44.701 35.2272C48.1899 31.6039 54.9683 30.3961 55.0681 30.3961L55.3671 32.4091C55.3671 32.4091 49.0871 33.5162 46.0966 36.6363"/>
</svg>
