<?xml version="1.0" encoding="utf-8" ?>
<svg xmlns="http://www.w3.org/2000/svg" xmlns:xlink="http://www.w3.org/1999/xlink" width="102" height="104">
	<path fill="white" d="M16.616 104C14.182 104 11.8494 103.299 9.82108 101.896C7.89415 101.295 6.67715 100.694 5.86581 99.7919C4.75022 98.5896 3.93888 97.3873 3.43179 96.185L2.11337 94.2813C-1.13199 89.5723 -0.624899 83.2601 3.53321 79.1522L58.6028 25.2486C57.9943 24.5472 57.2844 23.8459 56.6759 23.0443C54.5461 20.6397 51.7064 14.9287 55.7631 9.21773C56.473 8.11561 58.0957 6.8131 61.2397 6.8131C61.2397 6.8131 61.3411 6.8131 61.3411 6.8131C63.0652 2.80539 64.6878 2.30443 65.3978 2.10405C65.9049 1.90366 66.5134 1.90366 67.1219 1.90366C68.7445 1.90366 70.063 2.50482 71.0771 3.30636C73.2069 1.60308 75.8438 0 78.0749 0C78.582 0 79.1905 0 79.5962 0.300578C80.3061 0.601156 81.6245 1.3025 82.1316 3.20617C82.7401 5.21002 82.233 8.11561 81.4217 10.6204C81.726 10.8208 82.0302 11.0212 82.233 11.2216C84.4642 9.41811 87.5067 7.51445 89.9408 7.51445C90.5493 7.51445 91.0564 7.61464 91.5634 7.81503C92.4762 8.11561 93.9975 9.01734 94.4031 11.6224C94.7074 13.7264 94.0989 17.2331 92.9833 20.0385C92.9833 20.0385 93.0847 20.1387 93.0847 20.1387C94.3017 19.4374 95.4173 19.0366 96.5329 19.0366C97.1414 19.0366 97.7499 19.1368 98.257 19.3372C99.3726 19.738 101.198 21.0405 101.502 24.3468C101.705 25.8497 101.401 28.3545 100.488 30.2582C101.502 31.5607 102.517 33.6647 101.705 36.9711C100.995 40.0771 99.0683 42.2813 96.5329 42.9827C96.4315 44.2852 96.1272 45.7881 95.2145 47.1908C93.896 49.2948 91.462 50.3969 88.3181 50.3969C87.4053 50.3969 86.4926 50.2967 86.0869 50.1965C84.7685 50.1965 81.8274 49.896 78.6834 47.1908L25.2365 100.493C22.8025 102.798 19.76 104 16.616 104"/>
	<path fill="#80BC64" d="M75.9452 37.973C75.9452 37.973 72.6998 33.4643 76.9594 27.6531C78.3792 25.7495 82.3345 27.6531 82.3345 27.6531C82.3345 27.6531 84.0586 23.8458 85.5798 23.5452C88.7238 22.7437 90.3464 26.551 90.3464 26.551C90.3464 26.551 95.113 20.9402 97.4456 21.9422C99.7782 22.8439 98.9669 28.8555 97.2428 29.9576C95.5187 31.0597 100.285 30.9595 99.1697 36.1695C97.9527 41.3795 93.3889 39.8766 93.3889 39.8766C93.3889 39.8766 94.7074 42.7822 92.9833 45.4874C91.2592 48.1926 86.594 47.0905 86.594 47.0905C86.594 47.0905 80.7118 47.6917 75.9452 37.973"/>
	<path fill="#2D1B0A" d="M88.6224 48.1926C87.6083 48.1926 86.8984 48.0924 86.4927 47.9922C85.3771 47.9922 79.6977 47.7919 75.0325 38.4739C74.6268 37.7727 71.6857 32.9633 76.1481 27.052C77.5679 25.1484 80.3062 25.8497 81.8274 26.3507C82.5374 24.948 83.8558 22.8439 85.2757 22.5433C87.6083 21.9422 89.4338 23.3449 90.448 24.7476C92.2735 22.8439 95.5188 19.9383 97.75 20.8401C98.8656 21.341 99.5755 22.4432 99.7784 24.2466C99.9812 26.2505 99.3727 28.9557 98.257 30.2582C99.2713 31.0597 100.894 32.6628 100.083 36.2697C99.6769 38.1734 98.7642 39.5761 97.3443 40.2775C96.4316 40.7785 95.5188 40.8786 94.7075 40.8786C94.9103 42.1811 94.9103 43.9846 93.7947 45.788C92.5777 47.7919 90.3465 48.1926 88.6224 48.1926M86.5941 45.9884C86.7969 45.9884 90.8536 46.7899 92.0706 44.7861C93.4905 42.5818 92.3749 40.1772 92.3749 40.077L91.4621 37.973L93.5919 38.6743C93.5919 38.6743 95.1132 39.1753 96.3302 38.4739C97.1415 37.973 97.75 37.0713 98.0543 35.7687C98.6628 33.1637 97.5471 32.3622 96.7358 31.6608C96.2287 31.2601 95.7217 30.8593 95.8231 30.158C95.8231 29.4566 96.4316 29.0559 96.6344 28.9557C97.2429 28.5549 97.9528 26.4509 97.75 24.447C97.6486 23.5453 97.3443 22.8439 96.9387 22.7437C96.0259 22.343 93.0848 24.7476 91.0565 27.1522L90.0423 28.3545L89.4338 26.8516C89.3324 26.7514 88.0139 23.946 85.7828 24.447C85.2757 24.5472 84.0587 26.2505 83.2473 28.0539L81.9289 28.4547C80.9147 27.9537 78.4807 27.2524 77.8722 28.1541C74.1197 33.2639 76.7566 37.1714 76.858 37.2716C81.4218 46.289 86.5941 45.788 86.5941 45.788"/>
	<path fill="#D0E5CA" d="M78.0751 39.8768L19.7602 94.0809C18.2389 95.5838 15.7035 95.8845 13.878 94.6822C12.3567 93.6803 10.3284 93.8806 9.00993 95.1832L7.6915 96.4856L11.7482 99.291C15.2978 101.696 20.0644 101.295 23.1069 98.289L79.5964 41.9808"/>
	<path fill="#1A1A1A" d="M16.9203 101.696C14.9935 101.696 12.9651 101.094 11.241 99.9924L6.67725 96.8864L8.19851 94.3815C9.82119 92.7785 12.458 92.4779 14.385 93.7803C15.8048 94.6821 17.7318 94.582 18.9487 93.3795L77.2637 39.1754L78.6835 40.6782L20.3685 94.8824C18.543 96.686 15.5006 96.9865 13.2694 95.5838C12.1538 94.7822 10.6325 94.9827 9.71977 95.8844L12.3566 98.3893C15.5006 100.493 19.76 100.193 22.4984 97.4874L78.9877 41.1792L80.4077 42.5819L23.9181 98.8902C22.0926 100.694 19.5573 101.696 16.9203 101.696"/>
	<path fill="#D0E5CA" d="M64.951 27.002L10.0842 84.6128C8.56296 86.1157 8.25871 88.6205 9.47572 90.424C10.4899 91.9268 10.2871 93.9307 8.96863 95.2332L7.6502 96.5357L4.81052 92.528C2.3765 89.0213 2.78217 84.3122 5.82469 81.3064L62.8213 25.4991"/>
	<path fill="#1A1A1A" d="M8.19838 97.3875L6.98138 96.9866L4.14169 92.9789C1.40342 89.0714 1.91051 83.7612 5.25728 80.4548L62.2539 24.6475L63.6737 26.0502L6.67712 81.8575C3.93886 84.5627 3.63461 88.7708 5.76437 91.8768L7.89413 94.8826C9.31397 93.5802 9.41539 92.0773 8.70547 90.9751C7.18421 88.7708 7.48846 85.765 9.41539 83.9616L64.2822 26.451L65.8035 27.8537L10.9366 85.4646C9.71964 86.6668 9.51681 88.5704 10.4296 89.9731C11.748 91.8768 11.4437 94.4818 9.82106 96.0849L8.19838 97.3875"/>
	<path fill="#D0E5CA" d="M14.0809 84.5628L70.6718 30.659L73.41 32.6629L19.4561 91.0752C19.4561 91.0752 11.6469 100.894 8.30014 97.3874C4.95336 93.8806 6.77888 91.6763 6.77888 91.6763L14.0809 84.5628"/>
	<path fill="#1A1A1A" d="M10.1255 99.1908C9.11129 99.1908 8.29995 98.7899 7.59003 98.0887C3.63475 93.9807 5.96735 91.1754 6.06877 91.0751L13.3708 83.8613L70.5701 29.3564L74.8297 32.5626L20.1657 91.7764C19.6586 92.4778 14.385 98.9904 10.2269 99.1908C10.3283 99.1908 10.2269 99.1908 10.1255 99.1908M7.59003 92.3776C7.38719 92.578 6.57585 94.0809 9.11129 96.6859C9.41554 96.9865 9.82121 97.1868 10.2269 97.0867C12.9651 96.9865 17.2247 92.1772 18.6446 90.3737L71.8887 32.6628L70.7731 31.8613L14.7907 85.1637L7.59003 92.3776"/>
	<path fill="#80BC64" d="M59.4144 20.84C59.4144 20.84 54.8506 16.0308 58.6031 10.7206C59.8201 8.91712 63.7753 9.91904 63.7753 9.91904C63.7753 9.91904 65.2966 5.20999 66.615 4.90941C69.4547 4.10787 70.976 7.51442 70.976 7.51442C70.976 7.51442 76.6553 2.20421 78.785 2.92335C80.9149 3.80729 78.5823 11.7225 77.1625 12.8246C76.6553 13.2255 80.8135 12.0231 79.9007 16.8323C78.988 21.6416 74.1199 20.6396 74.1199 20.6396C74.1199 20.6396 75.337 23.2446 73.9171 25.7494C72.3959 28.2543 68.1363 27.4527 68.1363 27.4527C68.1363 27.4527 63.9782 26.8517 59.4144 20.84"/>
	<path fill="#2D1B0A" d="M69.7594 28.3545C68.7452 28.3545 68.0353 28.2542 68.0353 28.2542C67.9339 28.2542 63.5727 27.7533 58.7045 21.5414C56.9803 19.6376 54.5462 14.8284 57.8931 10.1193C59.1102 8.41607 61.7471 8.51626 63.167 8.71665C63.877 6.81299 64.9926 4.20798 66.4125 3.80721C68.6438 3.20605 70.368 4.50855 71.2808 5.81106C73.3092 4.10778 77.1632 1.2022 79.293 1.90355C79.8 2.10393 80.5101 2.60489 80.7129 4.00759C81.0172 6.01144 80.1044 9.81877 78.9888 12.0231C79.4958 12.2234 80.003 12.524 80.4086 13.025C81.1225 13.9266 81.3214 15.2292 80.9158 16.8323C80.6115 18.5356 79.8 19.7379 78.5831 20.5394C77.5688 21.2408 76.4532 21.4412 75.5404 21.4412C75.7433 22.6434 75.8447 24.3468 74.8305 25.9498C73.6133 27.9537 71.2808 28.3545 69.7594 28.3545M61.5443 10.6203C60.6315 10.6203 59.7187 10.8207 59.4145 11.3217C56.2232 15.9305 59.9216 20.0385 60.1244 20.2388C64.4855 25.8496 68.2381 26.3505 68.2381 26.3505C68.3395 26.3505 71.9907 26.9517 73.0049 25.1483C74.222 23.1444 73.2077 21.0403 73.2077 21.0403L72.295 19.2369L74.3233 19.6376C74.3233 19.6376 76.0475 19.9382 77.366 19.1367C78.076 18.6357 78.5831 17.8342 78.7859 16.732C78.9888 15.7302 78.8873 14.9286 78.5831 14.5278C78.2787 14.1271 77.6702 14.1271 77.2646 14.0268C76.9603 14.0268 76.2504 13.9266 76.0475 13.3256L76.4532 12.1231C77.0618 11.6222 78.4816 8.11549 78.5831 5.51048C78.6844 4.30817 78.3801 4.00759 78.3801 4.00759C77.5688 3.70701 74.3233 5.81106 71.585 8.31588L70.5708 9.21761L69.9622 7.91511C69.9622 7.81491 68.7452 5.3101 66.8182 5.91125C66.4125 6.11164 65.2969 8.21568 64.6883 10.3197L63.4713 11.0211C63.0656 10.7205 62.2542 10.6203 61.5443 10.6203"/>
	<path fill="#80BC64" d="M69.3707 30.1579C69.3707 30.1579 64.4012 24.8477 68.4579 18.9364C69.7763 17.0327 74.1373 18.0346 74.1373 18.0346C74.1373 18.0346 75.76 12.9248 77.2813 12.524C80.4251 11.6223 82.1492 15.3294 82.1492 15.3294C82.1492 15.3294 88.4371 9.51826 90.7697 10.3249C93.1023 11.3217 90.5668 20.0385 88.9442 21.2408C88.4371 21.6415 93.0009 20.3391 91.8853 25.6493C90.8711 30.8594 85.5975 29.8573 85.5975 29.8573C85.5975 29.8573 87.0173 32.7629 85.3946 35.4681C83.7719 38.1733 79.0053 37.2716 79.0053 37.2716C79.0053 37.2716 74.5429 36.7706 69.3707 30.1579"/>
	<path fill="#2D1B0A" d="M80.7118 38.2737C79.6976 38.2737 78.8863 38.1735 78.7848 38.0732C78.6834 38.0732 73.8154 37.5723 68.5417 30.659C68.0347 30.0578 63.268 24.4471 67.629 18.2351C68.9474 16.3314 71.8885 16.5318 73.4098 16.7322C74.1197 14.6281 75.4381 11.8228 76.9594 11.3218C79.3933 10.6204 81.2189 12.1233 82.3344 13.526C84.5656 11.6224 88.8252 8.316 91.0564 9.21774C91.6648 9.41813 92.3748 10.0193 92.5776 11.422C92.8818 13.6262 91.8677 17.9345 90.6507 20.3391C91.2592 20.5396 91.8677 20.84 92.3748 21.4412C93.0847 22.3429 93.2875 23.7457 92.9833 25.5492C92.5776 27.3526 91.7663 28.7554 90.4478 29.5569C89.3322 30.3584 88.0138 30.5588 87.1012 30.5588C87.4053 31.8612 87.4053 33.7649 86.3911 35.5685C84.9713 37.8728 82.5373 38.2737 80.7118 38.2737M71.7871 18.736C70.7729 18.736 69.7587 18.9364 69.3531 19.5375C65.7021 24.6474 69.9616 29.2563 70.1644 29.4566C74.931 35.6686 79.1905 36.1695 79.1905 36.1695C79.2919 36.1695 83.3486 36.8709 84.5656 34.8671C85.8841 32.6628 84.7685 30.2582 84.7685 30.1581L83.9571 28.3545L85.8841 28.7554C85.8841 28.7554 87.9124 29.156 89.3322 28.1542C90.1436 27.5529 90.7521 26.6513 90.9549 25.3488C91.1578 24.1465 91.1578 23.3449 90.7521 22.844C90.3465 22.3429 89.6366 22.3429 89.2309 22.3429C88.9267 22.3429 88.2168 22.2428 88.0138 21.5415L88.4195 20.3391C89.2309 19.7379 90.9549 15.2293 90.7521 12.3237C90.7521 11.5222 90.5493 11.2216 90.4478 11.2216C89.4337 10.8208 85.5798 13.4258 82.8415 15.9307L81.8274 16.8324L81.2189 15.5299C81.1174 15.4297 79.799 12.6243 77.5678 13.2255C77.0607 13.526 75.8438 15.8305 75.1339 18.1349L73.9169 18.8362C73.4098 18.8362 72.5984 18.736 71.7871 18.736"/>
</svg>
