<?xml version="1.0" encoding="utf-8" ?>
<svg xmlns="http://www.w3.org/2000/svg" xmlns:xlink="http://www.w3.org/1999/xlink" width="54" height="114">
	<path fill="white" d="M44.8919 112.288C44.1923 112.691 43.3926 112.892 42.3931 113.094C41.3936 113.295 39.6944 113.496 38.495 113.597C35.8963 114 32.4979 114 28.4999 114C27.7003 114 27 114 26.201 114C21.6032 114 17.3053 113.698 14.0069 113.194C8.20972 112.389 6.11073 111.281 4.91132 109.871C3.9118 108.763 3.61195 107.253 2.71238 103.124C-0.486066 88.3198 -1.18573 64.4523 2.41253 60.2226C2.71238 59.9205 3.01224 59.5177 3.41204 59.3163C3.41204 56.4965 3.41204 52.9717 3.51199 49.2456C3.61195 44.7138 3.81185 40.9876 4.21166 38.0671C4.71141 33.4346 5.51102 30.7155 6.71044 29.0035C7.80991 27.5936 9.20923 26.788 10.8085 26.788C11.0084 26.788 11.2083 26.788 11.4082 26.788C12.2078 23.9682 13.5071 20.242 14.8065 16.6166C16.4057 12.2862 17.905 8.86219 19.4043 6.34452C20.3038 4.73322 23.1025 0 27.5004 0C31.8982 0.201413 35.4965 4.12898 39.6944 12.7898C40.694 14.9046 41.5935 17.1201 42.2932 18.8322C42.3931 18.8322 42.4931 18.8322 42.593 18.8322C45.0918 18.8322 47.0909 20.1413 47.9904 22.3569C49.4897 26.083 50.1893 33.3339 50.1893 44.6131C50.1893 49.1449 50.0894 53.4753 49.9894 56.1943C51.5887 57 52.5882 58.712 52.988 60.6254C53.8876 65.5601 54.1874 71.0989 53.8876 77.242C53.6877 82.076 53.0879 87.212 52.1884 92.5495C50.6891 101.512 48.6901 108.159 48.5901 108.461L47.0909 110.878L44.8919 112.288"/>
	<path fill="#80BC64" d="M40.994 24.2703C40.994 24.2703 35.1968 45.8214 13.0937 31.4204C12.9076 31.3197 14.9066 24.2703 17.5054 17.4221C19.0046 13.2931 20.5039 9.96987 21.9032 7.65362C23.9022 4.33029 25.7014 2.81525 27.5005 2.81525C30.2991 2.9204 33.3976 6.54584 36.796 13.8974C39.1948 19.0335 40.894 24.0688 40.994 24.2703"/>
	<path fill="#2D1B0A" d="M26.7009 37.4628C22.5029 37.4628 17.7052 35.7507 12.5078 32.4274C11.8081 32.0246 11.7081 31.9239 13.3074 26.7879C14.2069 23.7666 15.4063 20.2419 16.5058 17.2207C18.0051 13.0917 19.5044 9.66771 20.9037 7.25075C23.1026 3.5246 25.2016 1.9091 27.4005 1.9091C30.6989 2.014 33.8974 5.74015 37.5956 13.5953C40.0944 18.832 41.7935 24.0688 41.7935 24.0688C41.6936 25.0758 39.2948 33.6359 31.6984 36.5564C30.2991 37.0599 28.5 37.4628 26.7009 37.4628M14.2069 31.0175C20.9037 35.2472 26.6009 36.4557 31.1987 34.643C37.0958 32.3267 39.4947 25.7808 39.9944 24.3709C39.5946 23.2631 37.9954 18.832 35.9964 14.4009C32.698 7.45216 29.8993 3.92743 27.5005 3.82672C26.1012 3.72601 24.5019 5.23661 22.8028 8.25781C21.4034 10.5741 20.0041 13.7967 18.5048 17.825C16.206 23.7666 14.6067 29.3055 14.2069 31.0175"/>
	<path fill="#9CD37F" d="M46.5911 59.6183C46.5911 59.6183 37.6954 60.7261 31.7983 55.9929C25.8013 51.2597 25.2015 39.1749 25.2015 39.1749C27.8003 32.7296 31.3985 28.5 33.9973 26.1837C36.9958 23.4646 40.2943 21.6519 42.3932 21.6519C43.0928 21.6519 44.3923 21.8533 44.992 23.3639C46.2914 26.5865 46.991 33.7367 46.991 44.5123C46.991 52.4682 46.5911 59.5176 46.5911 59.6183"/>
	<path fill="#2D1B0A" d="M44.1923 60.7261C40.9939 60.7261 35.3966 60.1218 31.1986 56.7985C24.9017 51.8639 24.202 39.7791 24.202 39.2755C26.9007 32.2261 30.6988 27.8957 33.2976 25.4787C36.596 22.5582 39.9943 20.7455 42.3932 20.7455C44.0924 20.7455 45.3917 21.5512 45.8915 23.0618C47.2908 26.4858 47.8905 33.7367 47.9905 44.613C47.9905 52.3674 47.6906 59.6183 47.6906 59.719C46.5911 60.6254 45.6916 60.7261 44.1923 60.7261M26.201 39.3762C26.301 40.9875 27.3005 51.1589 32.398 55.1872C36.9958 58.8126 43.3927 58.8126 45.6916 58.7119C45.7915 56.5971 45.9914 50.8568 45.9914 44.613C45.9914 31.3197 44.9919 25.9823 44.0924 23.8674C43.9924 23.5653 43.6925 22.8603 42.3932 22.8603C40.4941 22.8603 37.4956 24.4717 34.597 27.09C32.0982 29.2049 28.6998 33.2331 26.201 39.3762"/>
	<path fill="#AED898" d="M38.7951 60.6255C42.6932 78.9542 30.799 78.3522 30.799 78.3522L6.222 63.7475C6.222 63.6468 6.11094 56.5973 6.222 49.2457C6.4108 44.8146 6.6107 41.1892 6.91055 38.2686C7.31036 34.2404 8.01002 31.9241 8.80963 30.7156C9.40934 29.91 10.109 29.7086 10.5088 29.7086C11.1085 29.7086 12.9076 29.8093 15.5064 30.8163C18.1051 31.8234 20.7039 33.2333 23.1027 35.1467C26.2012 37.5637 28.9998 40.7863 31.4986 44.5125C34.5971 49.0443 36.996 54.4825 38.7951 60.6255"/>
	<path fill="#2D1B0A" d="M30.9742 79.2562C30.8742 79.2562 30.7743 79.2562 30.7743 79.2562L5.3977 64.2509C5.3977 63.7473 5.28664 56.5972 5.3977 49.1449C5.5865 44.7138 5.7864 40.9876 6.08626 38.1678C6.58601 33.9382 7.18572 31.4205 8.18524 30.1113C9.0848 28.9028 10.0843 28.7014 10.684 28.7014C11.3837 28.7014 13.2828 28.8021 16.0814 29.8092C18.7801 30.8162 21.4788 32.3268 23.9776 34.341C27.176 36.8586 30.0746 40.0813 32.5734 44.0088C35.5719 48.6413 37.9708 54.1802 39.7699 60.424C41.2692 67.6749 40.6695 73.0124 37.8708 76.235C35.2721 79.0548 31.7738 79.2562 30.9742 79.2562M7.28567 63.0424L30.9742 77.242C31.7738 77.242 34.3725 76.9399 36.2716 74.7244C38.5705 72.0053 39.0703 67.1714 37.6709 60.8268C35.8718 54.7844 33.5729 49.447 30.6743 45.0159C28.2755 41.2897 25.5768 38.2685 22.5783 35.8516C20.1794 33.9382 17.7806 32.5283 15.1818 31.6219C12.6831 30.7155 11.0838 30.6148 10.4841 30.6148C10.0843 30.6148 9.78446 30.917 9.58456 31.2191C8.78495 32.2261 8.28519 34.5424 7.78543 38.2685C7.48558 41.0883 7.28567 44.7138 7.18572 49.1449C7.18572 55.3887 7.28567 61.3304 7.28567 63.0424"/>
	<path fill="#AED898" d="M23.1255 72.3074C25.1245 67.0706 30.8218 63.3444 34.0202 61.6324C38.8179 59.0141 43.8155 57.6042 46.6141 58.1077C48.813 58.5105 49.6126 59.9204 49.8126 61.0282C50.6122 65.7614 50.912 71.0988 50.6122 77.0406C50.4123 81.673 49.8126 86.7085 48.913 92.0459C47.4137 101.009 45.4147 107.555 45.4147 107.555L23.1255 72.3074"/>
	<path fill="#2D1B0A" d="M45.7916 109.871L22.0031 72.408C24.302 66.3656 30.1991 62.5388 33.5975 60.726C38.5951 58.007 43.6926 56.5971 46.891 57.1006C49.8896 57.6041 50.6892 59.6183 50.8891 60.8267C51.6887 65.56 51.9886 70.9981 51.7886 77.0405C51.5887 81.7737 50.989 86.8091 50.0895 92.1465C48.5902 101.009 46.5912 107.756 46.5912 107.857L45.7916 109.871M24.202 72.2066L45.0919 105.037C45.7916 102.419 46.991 97.5847 47.9905 91.7437C48.8901 86.507 49.3898 81.5723 49.5897 76.9398C49.8896 71.0988 49.5897 65.8621 48.7901 61.2296C48.5902 60.0211 47.7906 59.4169 46.4912 59.1147C43.8925 58.7119 38.9949 60.0211 34.497 62.5388C31.4985 64.1501 26.2011 67.5741 24.202 72.2066"/>
	<path fill="#CFEDBC" d="M41.6935 109.871C40.9939 109.972 39.4946 110.173 38.0953 110.375C34.6968 110.814 30.4989 110.878 26.201 110.814C21.8031 110.677 17.6052 110.475 14.3068 110.072C9.10931 109.367 7.70999 108.461 7.11028 107.756C6.61052 107.253 6.31066 106.145 5.51105 102.318C1.81285 85.2986 2.41256 64.553 4.51154 62.0353C6.21071 60.1219 9.60906 60.1219 14.2069 62.2367C17.7052 63.8481 23.5023 67.3728 31.2985 75.1272C37.2957 81.0689 40.9939 87.4134 42.9929 91.6431C45.4916 96.8799 46.1914 102.318 45.7915 105.44C45.2918 109.67 42.2933 109.77 41.6935 109.871"/>
	<path fill="#2D1B0A" d="M28.3999 111.784C27.7003 111.784 26.9007 111.784 26.201 111.784C21.7032 111.684 17.5052 111.482 14.2068 111.079C8.7095 110.374 7.11028 109.367 6.41061 108.461C5.81091 107.756 5.51105 106.648 4.61149 102.62C1.11318 86.4063 1.11318 64.6537 3.91183 61.5318C5.91086 59.2155 9.80897 59.2155 14.8065 61.5318C18.4048 63.1431 24.3019 66.7685 32.1981 74.6237C38.2951 80.6661 41.9934 87.1113 44.0923 91.4417C46.891 97.182 47.3907 102.721 46.9909 105.843C46.6911 107.958 45.6916 110.576 42.1933 111.079C41.3936 111.18 39.8944 111.382 38.3951 111.583C35.5965 111.684 32.2981 111.784 28.3999 111.784M8.10979 61.6325C6.81042 61.6325 5.91086 61.9346 5.31115 62.6396C3.71192 64.4523 2.61246 84.1908 6.51057 102.016C7.21023 105.138 7.51008 106.648 7.90989 106.951C8.60955 107.756 10.8085 108.461 14.5067 108.965C17.7051 109.367 21.8031 109.67 26.201 109.67C31.0986 109.77 35.0967 109.569 37.9953 109.267C39.4946 109.065 40.8939 108.965 41.5935 108.763C42.4931 108.662 44.4921 108.36 44.8919 105.339C45.2918 102.318 44.5921 97.0813 42.1933 92.1466C40.1942 87.9169 36.496 81.7738 30.6988 75.9329C23.0026 68.2791 17.3053 64.7544 13.907 63.2438C11.6081 62.2367 9.60906 61.6325 8.10979 61.6325"/>
</svg>
