<?xml version="1.0" encoding="utf-8" ?>
<svg xmlns="http://www.w3.org/2000/svg" xmlns:xlink="http://www.w3.org/1999/xlink" width="128" height="114">
	<path fill="white" d="M124.77 16.7052C124.568 16.6039 124.366 16.5027 124.164 16.5027L64.5047 0C64.2019 0 64 0 63.5962 0C63.2934 0 62.9905 0 62.6877 0L3.73502 16.5027C3.53312 16.6039 3.33123 16.6039 3.12934 16.7052L0 15.8952L0 97.6998L63.5962 114L128 97.6998L128 15.8952L124.77 16.7052"/>
	<path fill="#FFEAC0" d="M63.3943 110.76L2.8265 95.1686L2.8265 19.6411L63.3943 35.2327L63.3943 110.76"/>
	<path fill="#2D1B0A" d="M64.4038 112.076L1.817 95.9786L1.817 18.325L64.4038 34.5239L64.4038 112.076M3.73498 94.46L62.2839 109.545L62.2839 36.2451L3.73498 21.1598L3.73498 94.46"/>
	<path fill="#FFF3DE" d="M4.2398 19.3374L63.1925 2.936C63.2934 2.936 63.2934 2.936 63.3944 2.936L123.054 19.3374C123.357 19.4387 123.357 20.0461 123.054 20.1474L63.3944 35.3339C63.2934 35.3339 63.2934 35.3339 63.1925 35.3339L4.2398 20.1474C3.83601 19.9449 3.83601 19.4387 4.2398 19.3374"/>
	<path fill="#2D1B0A" d="M63.2934 36.3463C63.1924 36.3463 63.0915 36.3463 62.8896 36.3463L3.93691 21.1598C3.33123 20.9573 2.8265 20.4511 2.8265 19.7424C2.8265 19.1349 3.23028 18.5274 3.83596 18.325L62.7886 1.8476C62.9905 1.8476 63.2934 1.8476 63.4953 1.8476L123.155 18.325C123.76 18.5274 124.164 19.0337 124.164 19.7424C124.164 20.3498 123.76 20.9573 123.053 21.1598L63.4953 36.3463C63.4953 36.3463 63.4953 36.3463 63.2934 36.3463M6.56152 19.6411L63.1924 34.2202L120.53 19.6411L63.1924 3.9484L6.56152 19.6411"/>
	<path fill="#EDD5A9" d="M63.3943 110.811L124.669 95.2193L124.669 19.6918L63.3943 35.2833L63.3943 110.811"/>
	<path fill="#2D1B0A" d="M62.3848 112.076L62.3848 34.524L125.678 18.4263L125.678 96.0799L62.3848 112.076M64.4037 36.1439L64.4037 109.444L123.659 94.3588L123.659 20.9574L64.4037 36.1439"/>
</svg>
