<?xml version="1.0" encoding="utf-8" ?>
<svg xmlns="http://www.w3.org/2000/svg" xmlns:xlink="http://www.w3.org/1999/xlink" width="58" height="136">
	<path fill="white" d="M11.3407 136C8.20349 136 5.36991 134.796 3.24472 132.59C1.01833 130.383 0 127.375 0 124.265L1.92912 63.9882C2.03032 61.9823 2.53632 60.0767 3.54832 58.3717L10.6323 46.4366C11.0371 45.8348 11.2395 45.1327 11.3407 44.4307L15.3887 12.1357L13.6683 12.1357L13.1623 9.72861C13.0611 9.22714 13.0611 8.82596 13.0611 8.32448C13.0611 3.71091 17.2103 0 22.2702 0L35.5274 0C40.5873 0 44.7365 3.71091 44.7365 8.32448C44.7365 8.82596 44.7365 9.22714 44.6353 9.72861L44.1293 12.1357L42.6113 12.1357L46.6593 44.4307C46.7605 45.1327 46.9629 45.8348 47.3677 46.4366L54.4517 58.3717C55.4637 60.0767 56.0709 61.9823 56.0709 63.9882L58 124.265C58.0949 127.375 56.9817 130.383 54.7553 132.59C52.6301 134.796 49.6953 136 46.6593 136L11.3407 136"/>
	<path fill="#84D171" d="M51.9169 59.4749L44.8335 47.5398C44.2265 46.5368 43.9229 45.4336 43.7205 44.3304L38.8633 5.5162L19.1313 5.5162L14.2743 44.3304C14.173 45.4336 13.7683 46.5368 13.1611 47.5398L6.07787 59.4749C5.26835 60.7787 4.86359 62.1829 4.86359 63.6873L2.93315 123.964C2.7386 128.678 6.48263 132.59 11.2386 132.59L46.7562 132.59C51.5121 132.59 55.2562 128.678 55.0616 123.964L53.1312 63.6873C53.1312 62.2832 52.7264 60.7787 51.9169 59.4749"/>
	<path fill="#2D1B0A" d="M46.7616 133.493L11.2397 133.493C8.70964 133.493 6.28079 132.49 4.56035 130.685C2.73872 128.879 1.9215 126.372 1.9215 123.865L3.85194 63.5871C3.95314 61.9823 4.35795 60.3776 5.26877 58.9735L12.3529 47.0384C12.8589 46.1357 13.1625 45.2331 13.3649 44.2301L18.3238 4.6136L39.8798 4.6136L44.8387 44.2301C44.9399 45.2331 45.2435 46.1357 45.8508 47.0384L52.9349 58.9735C53.7445 60.3776 54.2505 61.9823 54.3517 63.5871L56.2822 123.865C56.3758 126.472 55.4649 128.879 53.6433 130.685C51.7205 132.49 49.2916 133.493 46.7616 133.493M20.0443 6.5192L15.2878 44.4307C15.0854 45.6342 14.6806 46.8378 14.0733 48.0413L6.9892 59.9764C6.28079 61.0797 5.97718 62.3835 5.87598 63.6873L3.95314 123.965C3.85194 125.971 4.66156 127.977 6.07838 129.381C7.49521 130.785 9.31685 131.587 11.3409 131.587L46.8628 131.587C48.8868 131.587 50.7085 130.785 52.1253 129.381C53.5421 127.977 54.2505 125.971 54.2505 123.965L52.3277 63.6873C52.3277 62.3835 51.9229 61.0797 51.2145 59.9764L44.1303 48.0413C43.4219 46.9381 43.0171 45.7345 42.9159 44.4307L38.1594 6.5192L20.0443 6.5192"/>
	<path fill="#E59C45" d="M41.6965 8.52506C41.7977 8.22418 41.7977 7.92329 41.7977 7.7227C41.7977 4.81415 38.9644 2.40707 35.6251 2.40707L22.3693 2.40707C18.9288 2.40707 16.1967 4.81415 16.1967 7.7227C16.1967 8.02359 16.1967 8.32447 16.1967 8.52506L41.6965 8.52506"/>
	<path fill="#2D1B0A" d="M42.506 9.52801L15.286 9.52801C14.9824 8.42477 14.9824 8.02359 14.9824 7.7227C14.9824 4.21238 18.2205 1.40412 22.1669 1.40412L35.4227 1.40412C39.3691 1.40412 42.6072 4.21238 42.6072 7.7227C42.6072 8.02359 42.6072 8.42477 42.506 8.72565M17.1074 7.52211L40.7858 7.52211C40.6846 5.21533 38.3572 3.41002 35.6251 3.41002L22.3692 3.41002C19.5359 3.41002 17.2086 5.21533 17.1074 7.52211"/>
	<path fill="#FF4A4A" d="M10.1787 82.6432C10.1787 95.2802 18.5774 105.41 29 105.41C39.4225 105.41 47.8213 95.1799 47.8213 82.6432C47.8213 70.006 39.4225 59.8761 29 59.8761C18.5774 59.8761 10.1787 70.006 10.1787 82.6432"/>
	<path fill="#2D1B0A" d="M29 106.413C18.0715 106.413 9.1668 95.6815 9.1668 82.6431C9.1668 69.5045 18.0715 58.8732 29 58.8732C39.9285 58.8732 48.8332 69.6048 48.8332 82.6431C48.8332 95.7818 39.9285 106.413 29 106.413M29 60.7788C19.1846 60.7788 11.1906 70.6077 11.1906 82.5428C11.1906 94.5782 19.1846 104.307 29 104.307C38.8154 104.307 46.8094 94.4779 46.8094 82.5428C46.8094 70.6077 38.8154 60.7788 29 60.7788"/>
</svg>
