<?xml version="1.0" encoding="utf-8" ?>
<svg xmlns="http://www.w3.org/2000/svg" xmlns:xlink="http://www.w3.org/1999/xlink" width="94" height="114">
	<path fill="#FAFDFF" d="M25.4542 114L24.8529 111.682C24.3518 109.767 24.8529 107.751 26.0554 106.138C27.1578 104.626 28.9616 103.82 30.7655 103.719L43.4925 102.005C43.9936 101.905 44.3945 101.804 44.6951 101.602L45.1962 92.6313C45.1962 89.4058 43.0917 86.5836 40.0853 85.5756C24.8529 80.8382 14.6311 66.9284 14.6311 50.9019L14.6311 40.7215C5.71215 38.6048 0 31.3475 0 22.9814C0 13.0027 8.01706 4.93899 17.9382 4.93899C27.5586 4.93899 35.4755 12.4987 35.8763 22.2759L35.8763 23.2838L55.8188 23.2838C57.9232 17.2361 60.3284 10.5836 63.435 2.01592L64.1365 0L90.9936 0C92.6972 0 94 1.31034 94 3.02387C94 4.7374 92.6972 6.04775 90.9936 6.04775L68.3454 6.04775C66.1407 12.1963 64.3369 17.2361 62.7335 21.8727L62.2324 23.183L82.5757 23.183C84.9808 23.183 86.8849 25.0981 86.8849 27.5172L86.8849 50.9019C86.8849 66.9284 76.6631 80.939 61.4307 85.5756C58.3241 86.4828 56.3198 89.305 56.3198 92.6313L56.42 100.796L58.2239 100.09L58.2239 101.098C58.2239 101.098 57.322 101.602 57.322 101.602C57.322 101.602 57.2217 101.602 57.2217 101.602C57.322 101.602 57.4222 101.602 57.5224 101.602L70.8507 103.517C72.7548 103.618 74.5586 104.525 75.661 105.936C76.8635 107.448 77.2644 109.464 76.8635 111.48L76.2623 113.798L25.4542 113.798"/>
	<path fill="#EBF0F2" d="M18.9904 25.9045C18.2889 25.9045 17.6876 26.5093 17.6876 27.2149L17.6876 50.5995C17.6876 65.618 27.5085 78.2175 41.0373 82.3501C45.3464 83.6606 48.3528 87.6924 48.3528 92.2281L48.4531 100.493C48.6535 103.215 45.7473 104.122 44.2441 104.525L31.3166 106.34C29.2121 106.34 27.5085 108.355 28.0096 110.573L74.0074 110.573C74.5085 108.355 72.9051 106.34 70.7004 106.34L57.372 104.424C53.9648 104.223 53.2633 101.199 53.2633 100.493L53.1631 92.2281C53.1631 87.6924 56.0693 83.6606 60.4786 82.3501C74.0074 78.2175 83.8283 65.5173 83.8283 50.5995L83.8283 27.2149C83.8283 26.5093 83.227 25.9045 82.5256 25.9045L18.9904 25.9045"/>
	<path fill="#333" d="M74.709 111.581L27.1077 111.581C26.6067 109.464 26.9073 108.053 27.709 106.944C28.5107 105.936 29.7133 105.332 31.1163 105.231L44.0438 103.416C46.3487 102.912 47.5513 101.905 47.451 100.493L47.3508 92.1274C47.3508 87.9947 44.7453 84.3661 40.837 83.1565C26.4062 78.7215 16.7858 65.5173 16.7858 50.3979L16.7858 27.0133C16.7858 25.8037 17.7879 24.695 19.0907 24.695L82.6259 24.695C83.8284 24.695 84.9307 25.703 84.9307 27.0133L84.9307 50.3979C84.9307 65.5173 75.2101 78.7215 60.8796 83.1565C56.9713 84.3661 54.3658 87.9947 54.3658 92.1274L54.466 100.393C54.466 100.393 54.6664 103.114 57.5726 103.316L70.9008 105.231C72.2037 105.231 73.4063 105.836 74.3082 106.944C75.1098 108.053 75.4104 109.363 75.1098 110.775M28.8114 109.565L73.0054 109.565C73.0054 109.061 72.8049 108.658 72.5043 108.255C72.0033 107.65 71.4019 107.347 70.6003 107.347L57.1716 105.432C53.4638 105.231 52.2612 102.005 52.2612 100.594L52.1611 92.329C52.1611 87.2892 55.3679 82.9549 60.1781 81.443C73.7068 77.3104 82.8262 64.9125 82.8262 50.5995L82.8262 27.2149C82.8262 27.1141 82.7261 26.9125 82.5257 26.9125L18.9904 26.9125C18.8902 26.9125 18.6898 27.0133 18.6898 27.2149L18.6898 50.5995C18.6898 64.9125 27.8093 77.2096 41.338 81.443C46.1483 82.9549 49.3551 87.2892 49.3551 92.329L49.4552 100.594C49.5555 102.005 49.0545 104.525 44.4445 105.533L31.3167 107.347C30.6152 107.347 29.9137 107.65 29.4127 108.255C29.0118 108.658 28.8114 109.061 28.8114 109.565"/>
	<path fill="#FFE239" d="M32.92 22.5782C32.92 30.8727 26.2349 37.5967 17.9883 37.5967C9.74168 37.5967 3.0565 30.8727 3.0565 22.5782C3.0565 14.2836 9.74168 7.5596 17.9883 7.5596C26.2349 7.5596 32.92 14.2836 32.92 22.5782"/>
	<path fill="#333" d="M17.9883 38.6049C9.16959 38.6049 2.05445 31.4484 2.05445 22.5783C2.05445 13.7083 9.16959 6.5518 17.9883 6.5518C26.8072 6.5518 33.9222 13.7083 33.9222 22.5783C33.9222 31.4484 26.707 38.6049 17.9883 38.6049M17.9883 8.56772C10.2719 8.56772 4.05871 14.8171 4.05871 22.5783C4.05871 30.3396 10.2719 36.5889 17.9883 36.5889C25.7048 36.5889 31.9179 30.3396 31.9179 22.5783C31.9179 14.9179 25.6045 8.56772 17.9883 8.56772"/>
	<path fill="#FFFDEE" d="M27.5086 17.4376C28.2101 18.7479 28.6109 20.1591 28.7111 21.671L21.1952 21.671L27.5086 17.4376"/>
	<path fill="#FFFDEE" d="M26.3061 15.7241L19.7922 20.1591L22.2976 12.5995C23.901 13.305 25.304 14.4138 26.3061 15.7241"/>
	<path fill="#FFFDEE" d="M17.9883 11.6923C18.79 11.6923 19.5917 11.7931 20.3934 11.9947L17.8881 19.8567L14.6813 12.297C15.5832 11.8939 16.7858 11.6923 17.9883 11.6923"/>
	<path fill="#FFFDEE" d="M12.6771 13.1034L15.6835 20.0584L9.47024 15.9257C10.2719 14.817 11.4745 13.809 12.6771 13.1034"/>
	<path fill="#FFFDEE" d="M8.36788 17.6392L14.5811 21.671L7.26553 21.671C7.26553 20.2599 7.66639 18.8487 8.36788 17.6392"/>
	<path fill="#FFFDEE" d="M8.46809 27.9204C7.7666 26.7109 7.16532 25.2997 7.16532 23.7878L14.5811 23.7878L8.46809 27.9204"/>
	<path fill="#FFFDEE" d="M9.67063 29.5332L16.0843 25.199L13.6792 32.557C12.0757 31.8515 10.773 30.8435 9.67063 29.5332"/>
	<path fill="#FFFDEE" d="M18.7901 33.4641C18.4895 33.4641 18.289 33.4641 17.9884 33.4641C17.8882 33.4641 17.6878 33.4641 17.5875 33.4641C16.886 33.4641 16.2848 33.3633 15.5833 33.1618L18.0886 25.5013L21.1952 32.8594C20.3935 33.1618 19.5918 33.3633 18.7901 33.4641"/>
	<path fill="#FFFDEE" d="M23.0992 32.1539L20.193 25.4005L26.4063 29.4324C25.4041 30.5411 24.3018 31.4483 23.0992 32.1539"/>
	<path fill="#FFFDEE" d="M28.3103 25.7029C28.2101 26.0053 28.1099 26.2069 28.0096 26.5093C28.0096 26.5093 28.0096 26.6101 28.0096 26.6101C27.8092 27.0132 27.709 27.4164 27.5086 27.8196L21.3956 23.7878L28.8113 23.7878C28.6109 24.3926 28.5107 25.0981 28.3103 25.7029"/>
	<path fill="#333" d="M52.1611 43.8461C51.5598 43.8461 51.159 43.3421 51.159 42.8382C51.159 41.427 61.0801 14.1114 65.289 2.41907L90.9436 1.7135C91.5448 1.7135 91.9458 2.11668 91.9458 2.72146C91.9458 3.32623 91.5448 3.72942 90.9436 3.72942L66.8924 3.72942C61.3806 18.8488 53.3636 41.3262 53.063 42.939C53.1632 43.4429 52.7624 43.8461 52.1611 43.8461"/>
	<path fill="#F9E33D" d="M59.9778 81.4429C73.1057 77.6127 82.626 65.9204 82.626 52.1114L82.626 46.2653L18.4895 46.2653L18.4895 52.1114C18.4895 65.9204 28.0098 77.6127 41.1377 81.4429C44.2443 82.3502 47.7518 84.6684 48.7539 87.4908L51.5599 87.39C52.562 84.5676 56.8712 82.3502 59.9778 81.4429"/>
</svg>
