<?xml version="1.0" encoding="utf-8" ?>
<svg xmlns="http://www.w3.org/2000/svg" xmlns:xlink="http://www.w3.org/1999/xlink" width="50" height="134">
	<path fill="#753C20" d="M43.2911 103.643C42.984 89.5018 49.0235 81.1183 49.0235 66.1694C49.0235 51.3214 33.7713 22.9387 33.7713 9.4038L16.3695 9.4038C16.3695 23.0397 1.0592 51.3214 1.0592 66.1694C1.0592 81.0173 7.15675 89.4008 6.84966 103.643C6.54257 117.784 0.400757 120.006 1.0592 125.359C1.73148 130.713 4.39294 133.238 25.0704 132.959C45.7478 133.238 48.4093 130.713 49.0235 125.359C49.74 119.905 43.5982 117.784 43.2911 103.643"/>
	<path fill="#2D1B0A" d="M28.1245 133.98C27.1001 133.98 26.0756 133.98 25.0512 133.98C4.46028 134.258 0.874789 131.732 0 125.469C-0.252079 122.943 0.772347 121.024 1.89921 118.801C3.43585 115.771 5.58714 111.73 5.79203 103.648C5.99691 96.6776 4.56272 91.1213 3.02608 85.262C1.59189 79.6047 0 73.6444 0 66.1686C0 58.3899 4.05051 47.1763 7.94332 36.2658C11.7337 25.7595 15.2167 15.8592 15.2167 9.39373L15.2167 8.3835L34.7833 8.3835L34.7833 9.39373C34.7833 15.8592 38.3687 25.7595 42.0567 36.2658C45.9495 47.1763 49.9448 58.3899 49.9448 66.1686C49.9448 73.6444 48.4081 79.5037 46.9739 85.262C45.4373 91.1213 44.0031 96.5766 44.208 103.648C44.4129 111.73 46.5641 115.871 48.1008 118.801C49.2277 121.024 50.2521 122.943 49.9448 125.469C49.3301 131.43 46.0519 133.98 28.1245 133.98M25.0512 131.935C46.0519 132.238 47.4861 129.611 47.9983 125.166C48.2032 123.246 47.4861 121.731 46.3593 119.711C44.7202 116.579 42.4664 112.235 42.2616 103.648C42.0567 96.3745 43.5933 90.4142 45.13 84.7569C46.5641 79.2006 48.1008 73.4423 48.1008 66.1686C48.1008 58.6929 44.1055 47.6814 40.3152 36.872C36.7297 26.7697 33.2466 17.1725 32.9393 10.3029L17.4705 10.3029C17.1631 17.0715 13.6801 26.6687 10.0946 36.872C6.30424 47.5804 2.30898 58.6929 2.30898 66.1686C2.30898 73.4423 3.84562 79.2006 5.27982 84.7569C6.71401 90.4142 8.25065 96.3745 8.14821 103.648C7.94332 112.235 5.68959 116.579 4.05051 119.711C2.92364 121.832 2.20654 123.246 2.41143 125.166C2.61631 129.611 4.05051 132.238 25.0512 131.935"/>
	<path fill="#FFA310" d="M36.7502 10.2016L13.4293 10.2016L14.3499 3.53523C14.5544 2.02013 15.8841 0.90906 17.5207 0.90906L32.6588 0.90906C34.2954 0.90906 35.6251 2.02013 35.8297 3.53523L36.7502 10.2016"/>
	<path fill="#2D1B0A" d="M37.9777 11.2117L12.3042 11.2117L13.4293 3.43422C13.7362 1.5151 15.475 0 17.623 0L32.7611 0C34.9091 0 36.648 1.5151 36.9548 3.43422L37.9777 11.2117M14.6567 9.19158L35.6251 9.19158L34.8068 3.73724C34.7046 2.72717 33.784 2.02013 32.6589 2.02013L17.5207 2.02013C16.3956 2.02013 15.475 2.72717 15.3727 3.73724L14.6567 9.19158"/>
	<path fill="#FF4D4D" d="M1.7688 64.3411C1.7688 67.8763 2.17794 70.9065 2.79165 73.8356L46.6718 73.8356C47.2855 70.9065 47.6946 67.8763 47.6946 64.3411C47.6946 60.6038 46.4672 55.8565 44.7284 50.8062L4.73506 50.8062C2.99622 55.8565 1.7688 60.6038 1.7688 64.3411"/>
</svg>
