<?xml version="1.0" encoding="utf-8" ?>
<svg xmlns="http://www.w3.org/2000/svg" xmlns:xlink="http://www.w3.org/1999/xlink" width="76" height="108">
	<path fill="white" d="M0 108L0 35.1228L1.40369 35.1228L18.3483 13.6645L18.3483 5.76945C18.3483 2.63168 20.6544 0 23.4617 0L58.7546 0C60.2586 0 61.6623 0.708529 62.6649 1.92315C63.467 2.93533 63.9683 4.35239 63.9683 5.76945L63.6675 16.701L76 37.4508L76 107.696L0 108"/>
	<path fill="#FEF5EB" d="M2.8073 105.419L60.459 105.419L60.459 15.3346L21.1556 15.3346L2.8073 38.5136"/>
	<path fill="#2D1B0A" d="M61.4618 106.482L1.80475 106.482L1.80475 38.1594L20.6544 14.2719L61.4618 14.2719L61.4618 106.482M3.81003 104.458L59.4564 104.458L59.4564 16.2963L21.5568 16.2963L3.70976 38.868L3.81003 104.458"/>
	<path fill="#C5D7EA" d="M45.8206 105.267L72.8918 105.267L72.8918 38.8679L59.9578 17.2071L45.8206 38.969"/>
	<path fill="#2D1B0A" d="M73.8943 106.279L44.8178 106.279L44.8178 38.6654L60.0579 15.3852L73.8943 38.6654L73.8943 106.279M46.8231 104.255L71.889 104.255L71.889 39.1715L59.9576 19.1303L46.8231 39.2727L46.8231 104.255"/>
	<path fill="#CFDBE5" d="M58.6544 17.3084L23.3615 17.3084C22.1583 17.3084 21.256 16.0938 21.256 14.5755L21.256 6.37678C21.256 4.8585 22.2586 3.64388 23.3615 3.64388L58.6544 3.64388C59.256 3.64388 59.7573 3.94753 60.1584 4.45363C60.5593 4.95972 60.76 5.66825 60.76 6.37678L60.76 14.5755C60.76 15.284 60.5593 15.9925 60.1584 16.4986C59.7573 17.0047 59.1557 17.3084 58.6544 17.3084"/>
	<path fill="#2D1B0A" d="M58.6544 18.3205L23.3615 18.3205C21.657 18.3205 20.2534 16.5998 20.2534 14.5755L20.2534 6.37678C20.2534 4.35241 21.657 2.6317 23.3615 2.6317L58.6544 2.6317C59.5567 2.6317 60.3588 3.03657 60.9604 3.84632C61.4618 4.55485 61.7626 5.46581 61.7626 6.37678L61.7626 14.5755C61.7626 15.4864 61.4618 16.3974 60.9604 17.1059C60.3588 17.8145 59.5567 18.3205 58.6544 18.3205M23.3615 4.65607C22.76 4.65607 22.2586 5.46581 22.2586 6.37678L22.2586 14.5755C22.2586 15.4864 22.76 16.2962 23.3615 16.2962L58.6544 16.2962C58.9552 16.2962 59.1558 16.195 59.3563 15.8913C59.6571 15.5877 59.7574 15.0816 59.7574 14.5755L59.7574 6.37678C59.7574 5.87069 59.6571 5.3646 59.3563 5.06094C59.1558 4.75729 58.8549 4.65607 58.6544 4.65607L23.3615 4.65607"/>
	<path fill="#D8E5EF" d="M2.8073 38.7667L46.1213 38.7667L46.1213 104.964L2.8073 104.964L2.8073 38.7667"/>
	<path fill="#2D1B0A" d="M47.124 105.976L1.80465 105.976L1.80465 37.7545L47.124 37.7545L47.124 105.976M3.80993 103.951L45.1186 103.951L45.1186 39.7789L3.80993 39.7789L3.80993 103.951"/>
	<path fill="white" d="M22.1583 90.388L22.1583 84.9222C22.1583 83.8088 21.9577 82.9991 21.6569 82.493C21.2559 81.9869 20.7546 81.7845 19.9525 81.7845C19.2506 81.7845 18.6491 82.0881 18.1477 82.6954C17.6464 83.3027 17.3456 84.1125 17.3456 85.0234L17.3456 90.2868L16.5435 84.821C16.5435 82.7966 15.7414 81.7845 14.2374 81.7845C13.5356 81.7845 12.934 82.0881 12.4327 82.6954C11.9314 83.3027 11.7309 84.1125 11.7309 85.1247L11.7309 90.388L10.9287 81.2784L11.7309 82.7966C12.3324 81.6832 13.2348 81.0759 14.438 81.0759C15.1398 81.0759 15.6411 81.2784 16.1425 81.6832C16.6438 82.0881 16.9446 82.5942 17.0448 83.2015C17.3456 82.5942 17.7467 81.9869 18.248 81.6832C18.7493 81.2784 19.3509 81.1771 19.9525 81.1771C21.9577 81.1771 22.8601 82.3918 22.8601 84.821L22.8601 90.388"/>
	<path fill="#2D1B0A" d="M23.963 91.4002L21.1557 91.4002L21.1557 84.9222C21.1557 83.6064 20.9551 83.2015 20.8549 83.1003C20.7546 82.9991 20.6543 82.7966 19.9525 82.7966C19.6517 82.7966 19.3509 82.8979 18.8496 83.4039C18.4485 83.8088 18.3483 84.4161 18.3483 85.0234L18.3483 91.299L15.5409 91.299L15.5409 84.821C15.5409 82.7966 14.7388 82.7966 14.2374 82.7966C13.8364 82.7966 13.5356 82.9991 13.2348 83.3027C12.934 83.7076 12.7335 84.3149 12.7335 85.0234L12.7335 91.299L9.9261 91.299L9.9261 80.165L12.7335 80.165C13.2348 80.0637 13.8364 79.9625 14.5382 79.9625C15.4406 79.9625 16.2427 80.2662 16.8443 80.7723C16.9446 80.8735 17.1451 80.9747 17.2454 81.1771C17.4459 80.9747 17.5462 80.8735 17.7467 80.7723C18.4485 80.2662 19.1504 80.0637 20.0527 80.0637C21.5567 80.0637 23.963 80.6711 23.963 84.7198L23.963 91.4002"/>
	<path fill="white" d="M26.0685 79.0516C25.868 79.0516 25.7677 78.9503 25.5672 78.8491C25.3667 78.7479 25.3667 78.5455 25.3667 78.343C25.3667 78.1406 25.3667 78.0394 25.5672 77.8369C25.6675 77.7357 25.868 77.6345 26.0685 77.6345C26.2691 77.6345 26.3693 77.7357 26.5699 77.8369C26.7704 77.9382 26.7704 78.1406 26.7704 78.343C26.7704 78.5455 26.6701 78.6467 26.5699 78.8491C26.4696 78.9503 26.2691 79.0516 26.0685 79.0516M25.6675 90.388L25.6675 81.2784L26.4696 90.388"/>
	<path fill="#2D1B0A" d="M27.4722 91.4002L24.6648 91.4002L24.6648 80.2662L27.4722 80.2662L27.4722 91.4002M26.0685 80.0638C25.6675 80.0638 25.2664 79.8613 24.8654 79.5576C24.5646 79.254 24.364 78.8491 24.364 78.343C24.364 77.8369 24.5646 77.4321 24.8654 77.1284C25.4669 76.5211 26.4696 76.5211 27.0712 77.1284C27.4722 77.4321 27.6728 77.8369 27.6728 78.343C27.6728 78.8491 27.4722 79.254 27.1714 79.5576C26.9709 79.8613 26.5699 80.0638 26.0685 80.0638M26.0685 78.0394C25.9683 78.0394 25.868 78.0394 25.868 78.1406C25.7677 78.2418 25.7677 78.343 25.7677 78.343C25.7677 78.4442 25.868 78.5455 25.9683 78.6467C26.0685 78.7479 26.2691 78.6467 26.3693 78.6467C26.4696 78.5455 26.4696 78.4442 26.4696 78.343C26.4696 78.2418 26.4696 78.1406 26.3693 78.1406C26.2691 78.0394 26.1688 78.0394 26.0685 78.0394"/>
	<path fill="white" d="M29.3773 90.388L29.3773 76.926L30.1772 90.388"/>
	<path fill="#2D1B0A" d="M28.3746 75.9138L31.182 75.9138L31.182 91.4002L28.3746 91.4002L28.3746 75.9138"/>
	<path fill="white" d="M38.2005 90.388L33.8892 85.9344L33.8892 90.388L33.087 76.926L33.8892 85.5295L38 81.2784L39.0026 81.2784L34.6913 85.6308L39.3034 90.2868L38.2005 90.2868"/>
	<path fill="#2D1B0A" d="M41.81 91.4002L37.7994 91.4002L34.8918 88.3637L34.8918 91.4002L32.0844 91.4002L32.0844 75.9138L34.8918 75.9138L34.8918 83.1003L37.4987 80.2662L41.4089 80.2662L36.1952 85.732"/>
</svg>
