<?xml version="1.0" encoding="utf-8" ?>
<svg xmlns="http://www.w3.org/2000/svg" xmlns:xlink="http://www.w3.org/1999/xlink" width="102" height="112">
	<path fill="white" d="M44.3719 112C43.5614 112 42.751 112 41.9405 112C41.3327 112 40.7249 112 40.117 112C16.5128 112 3.95092 98.9955 3.95092 74.297L0 0.40324L81.6523 0L81.0445 25.2025C81.1458 25.2025 81.2471 25.2025 81.3484 25.2025C88.2372 25.3033 94.6195 25.3033 98.773 29.9406C101.306 32.7633 102.319 36.4932 102 41.3321C101.103 50.1026 96.2403 62.3006 88.4398 68.7525C85.8059 70.9703 82.868 72.3816 79.9301 72.9865L79.9301 74.1962C79.9301 85.5878 77.7014 94.1566 73.0414 100.306C67.2669 108.169 57.5416 112 44.3719 112M80.3354 57.3609C84.3876 53.4293 87.5281 45.3645 88.0346 40.1224C88.0346 39.9208 88.0346 39.7192 88.0346 39.5176C86.4137 39.3159 83.1719 39.2151 81.2471 39.2151L80.3354 57.3609"/>
	<path fill="#E2E2E2" d="M76.2407 70.3654C75.8357 70.3654 75.3295 70.3654 74.9245 70.2646C74.6207 70.2646 74.5195 70.2646 74.4182 70.2646C73.7095 70.2646 73.3045 70.1638 72.3932 69.9622C71.3808 69.6597 70.4695 69.0549 69.9633 68.1476C69.4156 67.2403 69.2545 66.1314 69.5583 65.1233C70.0645 63.4095 71.5833 62.1998 73.4057 62.1998C73.7095 62.1998 74.1145 62.3006 74.4182 62.3006C74.5195 62.3006 74.6207 62.4014 74.722 62.4014C74.9245 62.4014 75.2282 62.4014 75.6332 62.5022C75.8357 62.5022 75.937 62.5022 76.1395 62.5022C77.7595 62.5022 79.3794 61.7966 80.9995 60.3852C86.0619 56.252 90.0106 46.675 90.5168 40.324C90.7194 38.0054 90.3143 37.4005 90.1118 37.1989C89.2007 36.1908 84.6443 36.09 80.6956 36.09C79.7845 36.09 78.7719 36.09 77.8607 36.09C76.747 36.09 75.8357 35.6867 75.0257 34.8803C74.317 34.0738 73.912 33.1665 73.912 32.0576C73.912 29.9406 75.6332 28.3276 77.8607 28.2268C78.9744 28.2268 79.8857 28.2268 80.797 28.2268C87.1757 28.3276 92.7444 28.3276 95.9843 31.9568C97.9081 34.0738 98.718 37.0981 98.4142 41.0297C97.7056 48.8929 93.1494 60.486 86.0619 66.4338C83.0245 69.0549 79.6832 70.3654 76.2407 70.3654"/>
	<path fill="#2D1B0A" d="M76.2476 71.3735C75.7415 71.3735 75.3366 71.3735 74.8306 71.2727C74.7293 71.2727 74.6281 71.2727 74.5269 71.2727C74.4257 71.2727 74.3245 71.2727 74.3245 71.2727C73.5147 71.2727 73.1098 71.1719 72.1989 70.8694C70.883 70.567 69.8708 69.6597 69.1623 68.5508C68.4948 67.4419 68.3525 66.0306 68.6562 64.8208C69.2635 62.7038 71.1867 61.1917 73.5147 61.1917C73.9196 61.1917 74.3245 61.1917 74.7293 61.3933C74.8306 61.3933 74.9318 61.3933 75.033 61.4941C75.2354 61.4941 75.5391 61.4941 75.8427 61.5949C75.944 61.5949 76.1464 61.5949 76.2476 61.5949C77.5635 61.5949 78.9805 60.99 80.4988 59.7803C85.3573 55.7479 89.2037 46.5742 89.7097 40.4248C89.9122 38.6102 89.6085 38.1062 89.6085 38.1062C88.9 37.4005 83.839 37.4005 81.1061 37.4005L80.0939 37.4005C79.4866 37.4005 78.8793 37.4005 78.1708 37.4005C76.8549 37.4005 75.6403 36.7956 74.7293 35.8883C73.8184 34.981 73.3123 33.6705 73.3123 32.36C73.3123 29.7389 75.5391 27.6219 78.1708 27.5211C79.5879 27.5211 80.2964 27.5211 81.1061 27.5211C87.7866 27.6219 93.4549 27.6219 96.9975 31.5535C99.1231 33.8721 100.034 37.0981 99.6292 41.4329C98.9207 49.4977 94.1634 61.3933 86.8756 67.5427C83.5354 69.9621 79.9927 71.3735 76.2476 71.3735M73.4135 63.2079C72.0976 63.2079 70.883 64.1152 70.5794 65.4257C70.3769 66.2322 70.4781 66.9378 70.883 67.6435C71.2879 68.3492 71.8952 68.8532 72.705 69.0549C73.5147 69.2565 73.8184 69.3573 74.4257 69.3573C74.7293 69.3573 74.8306 69.3573 75.033 69.3573C78.6769 69.6597 82.2195 68.45 85.4586 65.7281C92.3414 59.9819 96.7951 48.6912 97.5036 41.0297C97.8073 37.2997 97.0987 34.5778 95.378 32.6624C92.4427 29.4365 87.0781 29.3357 81.0049 29.2349C80.1952 29.2349 79.4866 29.2349 78.5757 29.2349C76.5513 29.3357 75.2354 30.5454 75.1342 32.1584C75.1342 32.9648 75.4379 33.6705 75.944 34.2754C76.4501 34.8802 77.2598 35.1827 77.9683 35.1827C78.5757 35.1827 79.2842 35.1827 79.8915 35.1827L80.9037 35.1827C86.4707 35.2835 89.9122 35.3843 91.0256 36.594C91.6329 37.1989 91.8353 38.5094 91.6329 40.4248C91.0256 46.8766 86.9768 56.756 81.7134 61.0909C79.8915 62.603 77.9683 63.4095 76.1464 63.4095C75.944 63.4095 75.7415 63.4095 75.5391 63.4095C75.1342 63.4095 74.9318 63.4095 74.7293 63.3087C74.3245 63.2079 74.3245 63.2079 74.2232 63.1071C73.9196 63.2079 73.7171 63.2079 73.4135 63.2079"/>
	<path fill="#F9F9F9" d="M41.4615 108.998C13.9217 109.761 6.53052 93.4291 6.53052 74.1744L2.7843 3.40574L78.1137 3.0025L76.3924 74.1744C76.3924 93.3283 70.2162 109.962 41.4615 108.998"/>
	<path fill="#2D1B0A" d="M44.0434 110.005C43.2334 110.005 42.4234 110.005 41.5121 110.005C29.7672 110.285 20.756 107.562 14.7823 101.714C8.60614 95.7654 5.56867 86.4892 5.56867 74.1882L1.7212 2.39841L79.1768 1.9951L77.4556 74.1882C77.4556 87.0942 74.5194 96.1688 68.4444 102.017C62.9769 107.361 54.877 110.005 44.0434 110.005M41.5121 107.966C53.1558 108.369 61.4582 105.949 67.0269 100.605C72.6969 95.1605 75.4306 86.4892 75.4306 74.1882L77.0506 4.01167L3.84743 4.41498L7.59365 74.1882C7.59365 85.9851 10.5299 94.7572 16.1998 100.303C21.8698 105.647 30.3747 108.268 41.5121 107.966"/>
	<path fill="#358E25" d="M54.9783 38.0053C54.9783 38.0053 23.996 42.7434 27.5398 74.5994C27.5398 74.5994 59.5345 72.6841 54.9783 38.0053"/>
	<path fill="#2D1B0A" d="M27.7422 76.1116L27.6409 74.7002L26.1222 74.801C22.376 41.937 54.472 36.594 54.877 36.594L56.3957 36.3924L56.5982 37.9045C58.0157 48.9937 55.9907 57.9658 50.6245 64.72C42.3221 74.7002 29.1597 76.0108 27.7422 76.1116M53.662 39.8199C47.6883 41.2313 26.9322 47.8847 28.8559 72.8856C32.6021 72.3816 41.9171 70.2646 48.0933 62.7038C52.7507 57.0585 54.5732 49.2961 53.662 39.8199"/>
	<path fill="#3D2C1F" d="M27.641 74.4986C27.0335 74.4986 26.6285 74.0954 26.6285 73.4904C26.6285 72.8856 27.0335 72.4823 27.641 72.4823C27.8435 72.4823 28.046 72.3815 28.1472 72.2807C38.6772 64.7199 45.8658 49.1952 46.6758 47.4814L48.4983 48.2879C47.6883 50.1025 40.1959 66.0305 29.261 73.8936C28.7547 74.297 28.1472 74.4986 27.641 74.4986"/>
	<path fill="#80BC64" d="M76.2406 17.2386C76.3418 15.0208 76.6456 6.65348 76.6456 4.33485L4.2524 4.43566C4.6574 9.07292 4.75865 13.4078 5.16364 17.6418L76.2406 17.2386"/>
</svg>
