<?xml version="1.0" encoding="utf-8" ?>
<svg xmlns="http://www.w3.org/2000/svg" xmlns:xlink="http://www.w3.org/1999/xlink" width="126" height="110">
	<path fill="white" d="M14.0124 110L14.0124 46.21L5.73327 50.5297L2.90625 45.105L1.5937 42.9954C0 40.5845 -0.425596 37.6712 0.382123 34.8584C1.08888 32.1461 3.00721 29.8356 5.53134 28.4292L58.437 1.10502C59.8505 0.401826 61.5669 0 63.1823 0C64.6968 0 66.2113 0.30137 67.5238 1.00457L120.127 25.6164C122.651 26.8219 124.67 29.032 125.478 31.6438C126.386 34.2557 126 37.2694 124.771 39.6804L122.55 43.6986L119.824 49.2237L111.948 45.3059L111.948 109.799L14.0124 109.799"/>
	<path fill="#FFFDFB" d="M66.2361 3.81733L118.841 28.4291C122.577 30.2374 124.092 34.7579 122.072 38.3745L119.851 42.4932L62.3993 14.6667L5.55351 43.6987L4.13994 41.4886C1.91861 37.9725 3.029 33.2512 6.86611 31.2419L59.7741 3.91778C61.7935 2.91322 64.1158 2.81276 66.2361 3.81733"/>
	<path fill="#2C180C" d="M5.2334 45.0045L3.31513 42.0912C2.0272 40.1826 1.69974 37.7716 2.30551 35.5616C2.91128 33.3515 4.42571 31.4428 6.44494 30.4383L59.3489 3.11408C61.5701 1.9086 64.296 1.9086 66.6182 3.01362L119.219 27.6255C121.339 28.6301 122.854 30.3378 123.56 32.4474C124.267 34.6575 123.973 36.8675 122.955 38.8766L120.229 43.799L62.3778 15.7716L5.2334 45.0045M63.1855 4.11864C62.1758 4.11864 61.1662 4.31956 60.3585 4.82184L7.45456 32.146C5.94013 32.9497 4.82955 34.3561 4.32475 36.0638C3.81994 37.7716 4.12282 39.4794 5.03148 40.9862L5.94013 42.3926L62.3778 13.5616L119.421 41.1871L121.238 37.9725C122.046 36.4657 122.248 34.7579 121.743 33.0501C121.238 31.4428 120.027 30.1369 118.512 29.3333L65.9114 4.72138C65.0028 4.31956 64.0941 4.11864 63.1855 4.11864"/>
	<path fill="#5B3316" d="M27.9637 24.6119L34.8297 24.6119L34.8297 36.8676L27.9637 36.8676L27.9637 24.6119"/>
	<path fill="#2D190C" d="M35.8394 37.8721L26.9541 37.8721L26.9541 23.6073L35.8394 23.6073L35.8394 37.8721M28.9734 35.863L33.82 35.863L33.82 25.6164L28.9734 25.6164L28.9734 35.863"/>
	<path fill="#5B3316" d="M108.891 106.936L17.1094 106.936L17.1094 40.9359L63 17.63L108.891 40.9359"/>
	<path fill="#2D190C" d="M109.85 107.991L16.1502 107.991L16.1502 40.3834L63 16.5752L109.85 40.3834L109.85 107.991M18.0686 105.982L107.729 105.982L107.729 41.5889L62.899 18.7853L18.0686 41.5889L18.0686 105.982"/>
	<path fill="#5B3316" d="M119.694 42.4932L62.5962 14.1644L5.498 43.6986L7.01254 46.5114L62.3438 17.5799L118.281 45.4064"/>
	<path fill="#2D190C" d="M6.55817 47.9178L4.1349 43.2968L61.9904 13.0593L121.058 42.0913L118.735 46.8127L62.3943 18.8858L6.55817 47.9178M6.86107 44.1004L7.46689 45.2054L62.1923 16.5753L61.5865 15.4703L6.86107 44.1004M62.5962 16.5753L117.827 44L118.331 42.8949L63.0001 15.4703L62.5962 16.5753"/>
	<path fill="#C15E1B" d="M51.8935 72.0273L73.4 72.0273L73.4 106.986L51.8935 106.986L51.8935 72.0273"/>
	<path fill="#2D190C" d="M74.4097 107.991L50.8838 107.991L50.8838 71.0228L74.4097 71.0228L74.4097 107.991M52.9032 105.982L72.3903 105.982L72.3903 73.0319L52.9032 73.0319L52.9032 105.982"/>
	<path fill="#C15E1B" d="M21.4007 58.2649L42.9072 58.2649L42.9072 76.8493L21.4007 76.8493L21.4007 58.2649"/>
	<path fill="#2D190C" d="M43.816 77.8539L20.2901 77.8539L20.2901 57.2603L43.816 57.2603L43.816 77.8539M22.4105 75.8448L41.8976 75.8448L41.8976 59.2694L22.4105 59.2694L22.4105 75.8448"/>
	<path fill="#C15E1B" d="M81.4776 58.2649L102.984 58.2649L102.984 76.8493L81.4776 76.8493L81.4776 58.2649"/>
	<path fill="#2D190C" d="M103.893 77.8539L80.367 77.8539L80.367 57.2603L103.893 57.2603L103.893 77.8539M82.4874 75.8448L101.975 75.8448L101.975 59.2694L82.4874 59.2694L82.4874 75.8448"/>
	<path fill="#D7E9FF" d="M73.299 55.653C73.299 61.534 68.5072 66.3015 62.5963 66.3015C56.6853 66.3015 51.8935 61.534 51.8935 55.653C51.8935 49.7721 56.6853 45.0047 62.5963 45.0047C68.5072 45.0047 73.299 49.7721 73.299 55.653"/>
	<path fill="#2C180C" d="M62.5963 67.306C56.1342 67.306 50.8838 62.0823 50.8838 55.6531C50.8838 49.2238 56.1342 44.0001 62.5963 44.0001C69.0583 44.0001 74.3087 49.2238 74.3087 55.6531C74.3087 62.0823 69.1593 67.306 62.5963 67.306M62.5963 46.0092C57.2449 46.0092 52.9032 50.3289 52.9032 55.6531C52.9032 60.9773 57.2449 65.2969 62.5963 65.2969C67.9476 65.2969 72.2893 60.9773 72.2893 55.6531C72.3903 50.3289 68.0486 46.0092 62.5963 46.0092"/>
	<path fill="#A35608" d="M100.157 47.1141C99.2481 47.1141 98.3394 47.0137 97.3297 46.8127C94.5026 46.21 91.9783 44 90.9686 41.2876C90.7667 40.6849 90.06 40.2831 89.3531 40.3835C87.0308 40.9863 84.5066 40.5844 82.5882 39.2785C80.8717 38.1735 79.5592 36.3653 78.9533 34.3561C78.8523 33.9543 78.5494 33.5525 78.1455 33.3516C77.9436 33.2511 77.5397 33.1507 77.1358 33.2511C75.0155 33.9543 72.5922 33.9543 70.3709 33.2511C68.2505 32.5479 66.5341 30.9406 65.5244 28.831C64.6156 26.9223 64.5147 24.9132 65.1205 23.3059L67.0389 24.0091C66.635 25.1141 66.736 26.621 67.3418 27.9269C68.0486 29.5342 69.4622 30.7397 70.9767 31.3424C72.7942 31.9452 74.6116 31.9452 76.429 31.3424C77.3378 31.0411 78.2466 31.1415 79.0542 31.5433C79.963 32.0456 80.5688 32.8493 80.8717 33.7534C81.3765 35.3607 82.3862 36.7671 83.6988 37.5707C85.2134 38.4748 87.1319 38.7762 88.9492 38.3744C90.5647 37.9726 92.2813 38.8767 92.887 40.484C93.493 42.1917 95.3103 44.2009 97.8345 44.7032C99.2481 45.0045 102.681 45.5068 104.196 43.3972L105.811 44.6027C104.499 46.3105 102.58 47.1141 100.157 47.1141"/>
	<path fill="#A35608" d="M66.7392 33.9544C65.4234 33.9544 64.3127 32.8493 64.3127 31.5434C64.3127 30.2375 65.4234 29.1324 66.7392 29.1324C68.0486 29.1324 69.1593 30.2375 69.1593 31.5434C69.2602 32.8493 68.1496 33.9544 66.7392 33.9544M66.7392 31.0411C66.5341 31.0411 66.3321 31.242 66.3321 31.4429C66.3321 31.6439 66.5341 31.8448 66.7392 31.8448C66.938 31.8448 67.1399 31.6439 67.1399 31.4429C67.2409 31.242 67.0389 31.0411 66.7392 31.0411"/>
	<path fill="#A35608" d="M81.4775 41.1872C80.2659 41.1872 79.2562 40.1827 79.2562 38.9772C79.2562 37.7717 80.2659 36.7672 81.4775 36.7672C82.6891 36.7672 83.6988 37.7717 83.6988 38.9772C83.6988 40.1827 82.6891 41.1872 81.4775 41.1872M81.4775 38.6758C81.3765 38.6758 81.2756 38.7763 81.2756 38.8767C81.2756 39.1781 81.7804 39.1781 81.7804 38.8767C81.6794 38.7763 81.5785 38.6758 81.4775 38.6758"/>
	<path fill="#A35608" d="M95.3103 48.621C93.9977 48.621 92.887 47.5159 92.887 46.21C92.887 44.9041 93.9977 43.799 95.3103 43.799C96.6229 43.799 97.7336 44.9041 97.7336 46.21C97.7336 47.5159 96.6229 48.621 95.3103 48.621M95.3103 45.9086C95.1084 45.9086 94.9064 46.1095 94.9064 46.3105C94.9064 46.5114 95.1084 46.7123 95.3103 46.7123C95.5122 46.7123 95.7142 46.5114 95.7142 46.3105C95.7142 46.1095 95.5122 45.9086 95.3103 45.9086"/>
	<path fill="#A35608" d="M25.9444 45.9086C23.5211 45.9086 21.5017 45.1049 20.3911 43.5981L22.0066 42.3925C23.6221 44.5022 27.055 43.9999 28.3676 43.6986C30.8918 43.1963 32.6084 41.187 33.3152 39.4794C33.921 37.8721 35.6375 36.9679 37.253 37.3698C39.0704 37.7715 40.9888 37.4701 42.5033 36.5661C43.8159 35.7625 44.8257 34.356 45.3305 32.7487C45.6334 31.7442 46.2393 30.9405 47.1479 30.5387C47.9557 30.1369 48.8644 30.0364 49.7731 30.3378C51.5907 30.9405 53.4081 30.9405 55.2255 30.3378C56.7401 29.8355 58.1536 28.63 58.8605 26.9223C59.4662 25.5159 59.6682 24.1095 59.1634 23.0044L61.0817 22.3013C61.6876 23.9086 61.5865 25.9177 60.6778 27.8264C59.6682 29.936 57.9517 31.5433 55.8314 32.2465C53.6099 33.0502 51.2877 33.0502 49.0664 32.2465C48.6625 32.146 48.2587 32.2465 48.0566 32.347C47.6527 32.5479 47.3498 32.9496 47.249 33.3515C46.6432 35.3606 45.3305 37.1688 43.6141 38.2738C41.6955 39.4794 39.1713 39.8811 36.8491 39.3789C36.2432 39.1779 35.5364 39.5798 35.2336 40.283C34.2239 42.9953 31.6996 45.2054 28.8725 45.8081C27.8628 45.7076 26.8531 45.9086 25.9444 45.9086"/>
	<path fill="#A35608" d="M59.3652 32.7489C58.0526 32.7489 56.9419 31.6438 56.9419 30.3379C56.9419 29.032 58.0526 27.9269 59.3652 27.9269C60.6778 27.9269 61.7885 29.032 61.7885 30.3379C61.7885 31.6438 60.6778 32.7489 59.3652 32.7489M59.3652 29.8356C59.1633 29.8356 58.9613 30.0365 58.9613 30.2374C58.9613 30.4384 59.1633 30.6393 59.3652 30.6393C59.5671 30.6393 59.7691 30.4384 59.7691 30.2374C59.7691 30.0365 59.5671 29.8356 59.3652 29.8356"/>
	<path fill="#A35608" d="M44.6237 39.9817C43.4121 39.9817 42.4024 38.9772 42.4024 37.7717C42.4024 36.5662 43.4121 35.5617 44.6237 35.5617C45.8353 35.5617 46.845 36.5662 46.845 37.7717C46.845 38.9772 45.8353 39.9817 44.6237 39.9817M44.6237 37.4703C44.5227 37.4703 44.4218 37.5708 44.4218 37.6712C44.4218 37.9726 44.9266 37.9726 44.9266 37.6712C44.8256 37.5708 44.7247 37.4703 44.6237 37.4703"/>
	<path fill="#A35608" d="M30.7909 47.4156C29.4783 47.4156 28.3676 46.3105 28.3676 45.0046C28.3676 43.6987 29.4783 42.5936 30.7909 42.5936C32.1035 42.5936 33.2142 43.6987 33.2142 45.0046C33.2142 46.3105 32.1035 47.4156 30.7909 47.4156M30.7909 44.6028C30.589 44.6028 30.387 44.8037 30.387 45.0046C30.387 45.2055 30.589 45.4064 30.7909 45.4064C30.9928 45.4064 31.1948 45.2055 31.1948 45.0046C31.1948 44.8037 30.9928 44.6028 30.7909 44.6028"/>
	<path fill="#FFFDFB" d="M20.9926 62.2831C19.781 62.2831 18.8653 61.178 18.8653 59.9725L18.8653 55.8538C18.9732 54.7488 19.9829 53.9375 21.0936 53.9375L43.6098 54.2465C44.7204 54.2465 45.3263 55.2511 45.4368 56.3561L45.4368 61.178C45.5282 62.2831 44.8214 63.1872 43.7108 63.4885L43.4078 58.8675L21.0936 58.4657L20.9926 62.2831"/>
	<path fill="#2C180C" d="M42.5087 64.694L42.4077 59.8721L22.1085 59.4703L22.0076 63.2877L20.9977 63.2877C20.0887 63.2877 19.2808 62.8858 18.6749 62.283C18.0689 61.6803 17.8478 60.7762 17.8478 59.8721L17.8478 55.8538C18.0689 54.1461 19.4828 52.9352 21.0986 52.9352L43.6196 53.2419C45.1344 53.3424 46.2453 54.5479 46.4543 56.2556L46.4543 61.178C46.5483 62.6849 45.5384 64.0912 43.9226 64.3927L42.5087 64.694M20.9977 54.9497C20.3917 54.9497 19.8867 55.3515 19.8867 55.9543L19.8867 59.9725C19.8867 60.2739 19.8867 60.4748 19.9877 60.6757L19.9877 57.3607L44.3265 57.7625L44.3265 59.5707L44.3265 56.1552C44.3265 55.6529 44.0236 55.1506 43.4176 55.0502L20.9977 54.9497"/>
	<path fill="#FFFDFB" d="M81.0737 62.2831C79.8621 62.2831 78.9464 61.178 78.9464 59.9725L78.9464 55.8538C79.0543 54.7488 80.064 53.9375 81.1747 53.9375L103.691 54.2465C104.801 54.2465 105.407 55.2511 105.518 56.3561L105.518 61.178C105.609 62.2831 104.902 63.1872 103.792 63.4885L103.489 58.8675L81.1747 58.4657L81.0737 62.2831"/>
	<path fill="#2C180C" d="M102.484 64.694L102.383 59.8721L82.0844 59.4703L81.9834 63.2877L80.9734 63.2877C80.0645 63.2877 79.2566 62.8858 78.6507 62.283C78.0447 61.6803 77.8236 60.7762 77.8236 59.8721L77.8236 55.8538C78.0447 54.1461 79.4586 52.9352 81.0744 52.9352L103.595 53.2419C105.11 53.3424 106.221 54.5479 106.43 56.2556L106.43 61.178C106.524 62.6849 105.514 64.0912 103.898 64.3927L102.484 64.694M81.0744 54.9497C80.4685 54.9497 79.9635 55.3515 79.9635 55.9543L79.9635 59.9725C79.9635 60.2739 79.9635 60.4748 80.0645 60.6757L80.0645 57.3607L104.403 57.7625L104.403 59.6712L104.403 56.2556C104.403 55.7534 104.1 55.2511 103.494 55.1506L81.0744 54.9497"/>
	<path fill="#5B3316" d="M69.4622 88.6027L71.1786 88.6027L71.1786 94.5297L69.4622 94.5297L69.4622 88.6027"/>
	<path fill="#2D190C" d="M68.4525 87.5982L72.1883 87.5982L72.1883 95.5342L68.4525 95.5342L68.4525 87.5982"/>
	<path fill="#2C180C" d="M26.7521 66.3013L38.2626 66.3013L38.2626 68.3105L26.7521 68.3105L26.7521 66.3013"/>
	<path fill="#2C180C" d="M31.4977 62.0822L33.5171 62.0822L33.5171 73.1324L31.4977 73.1324L31.4977 62.0822"/>
	<path fill="#2C180C" d="M87.0309 66.6027L98.5414 66.6027L98.5414 68.6119L87.0309 68.6119L87.0309 66.6027"/>
	<path fill="#2C180C" d="M91.7764 62.3836L93.7958 62.3836L93.7958 73.4338L91.7764 73.4338L91.7764 62.3836"/>
</svg>
