<?xml version="1.0" encoding="utf-8" ?>
<svg xmlns="http://www.w3.org/2000/svg" xmlns:xlink="http://www.w3.org/1999/xlink" width="78" height="144">
	<path fill="white" d="M22.5469 144C16.6562 144 11.6797 139.585 11.0703 133.865L7.61719 102.556C3.75781 102.556 1.32031 100.148 1.32031 97.1373C1.32031 93.7254 3.55469 91.3171 6.39844 91.1164C3.96094 80.7805 0 62.216 0 50.676C0 36.4265 6.39844 29.0007 12.7969 29.0007C14.9297 29.0007 17.0625 29.9038 18.5859 31.5094C26 38.9352 26.2031 67.3338 26.2031 70.5449C26.2031 78.9742 27.0156 86.4 27.8281 91.1164L30.0625 91.1164C29.5547 76.7666 27.8281 41.8453 23.5625 23.3812C21.8359 15.9554 22.9531 9.5331 26.4063 5.11777C29.0469 1.80627 33.0078 0 37.1719 0C44.0781 0 52.1016 5.31847 53.7266 16.9589C54.4375 22.5784 54.8438 31.0077 55.1484 42.2467C56.6719 41.4439 58.1953 41.1429 59.5156 41.1429C67.7422 41.1429 73.2266 44.4544 75.8672 50.8767C78 56.0948 78 62.8181 78 69.3408C78 78.5728 75.2578 87.3031 73.125 92.8223C74.0391 93.8258 74.5469 95.03 74.5469 96.4348C74.5469 99.8467 72.3125 102.255 69.4688 102.456L66.0156 133.764C65.4063 139.585 60.4297 144 54.5391 144L22.5469 144"/>
	<path fill="#258450" d="M10.8671 97.2285C10.8671 97.2285 2.8437 66.6222 2.8437 50.6668C2.8437 34.7114 11.6796 28.7909 16.25 33.6076C20.9218 38.2236 22.9531 55.9853 22.9531 70.5358C22.9531 85.3874 25.5937 97.2285 25.5937 97.2285L10.8671 97.2285"/>
	<path fill="#2D1B0A" d="M26.7109 98.2411L10.0547 98.2411C9.54685 96.3343 1.8281 66.628 1.8281 50.6709C1.8281 38.9288 6.39841 32.9073 10.2578 31.4019C12.6953 30.4987 15.1328 30.9664 16.9609 32.9073C22.4453 38.3267 23.9687 59.101 23.9687 70.542C23.9687 85.0941 26.5078 96.9365 26.5078 97.0368L26.7109 98.2411M11.5781 96.2339L24.1718 96.2339C23.5625 92.8217 21.8359 82.5851 21.8359 70.542C21.8359 55.6888 19.6015 38.5274 15.4375 34.3123C14.2187 33.0076 12.5937 32.6062 10.9687 33.3087C7.41404 34.7137 3.75779 40.6349 3.75779 50.6709C3.75779 64.9219 10.3594 91.4167 11.5781 96.2339"/>
	<path fill="#42B275" d="M33.0077 96.8857C33.0077 96.8857 31.6874 46.4105 26.3045 22.7283C20.9217 -1.15467 47.7343 -3.76373 50.4765 17.4098C53.1171 38.784 51.7968 97.0864 51.7968 97.0864L33.0077 97.0864"/>
	<path fill="#2D1B0A" d="M52.7109 98.1408L31.8906 98.1408L31.8906 96.9366C31.8906 95.9331 30.4687 46.2587 25.1875 22.977C23.4609 15.1496 24.8828 8.52632 29.25 4.81328C32.6015 1.9879 37.0703 1.20061 41.3359 2.80624C46.8203 4.81328 50.4765 10.1319 51.3906 17.257C53.9296 38.4313 52.7109 96.5352 52.7109 97.1373L52.7109 98.1408M33.9218 96.1338L50.6796 96.1338C50.8828 88.4067 51.7968 37.0263 49.3593 17.558C48.5468 11.2358 45.2968 6.51927 40.625 4.81328C37.0703 3.50871 33.3125 4.11082 30.5703 6.41892C26.8125 9.63019 25.5937 15.551 27.2187 22.5756C32.2968 44.4524 33.8203 89.7112 33.9218 96.1338"/>
	<path fill="#1C6B3E" d="M52.3047 97.2375C52.3047 97.2375 43.4688 44.2535 59.2109 44.2535C74.9531 44.2535 74.6489 57.1984 74.6489 70.2437C74.6489 83.1888 67.7422 97.2375 67.7422 97.2375L52.3047 97.2375"/>
	<path fill="#2D1B0A" d="M68.3515 98.241L51.3906 98.241C50.9844 95.7323 44.5859 56.3957 53.625 45.9595C55.1484 44.1532 57.0781 43.2501 59.3125 43.2501C66.7265 43.2501 71.3984 46.0599 73.7343 51.6794C75.7656 56.5964 75.7656 63.1191 75.7656 69.441C75.7656 83.2891 68.9609 97.1372 68.7578 97.7393M53.2187 96.2341L67.1328 96.2341C68.3515 93.5247 73.7343 81.3825 73.7343 70.2438C73.7343 63.3198 73.7343 56.9978 71.9062 52.4822C69.875 47.5651 65.914 45.2571 59.3125 45.2571C57.6875 45.2571 56.3672 45.8592 55.25 47.264C47.4297 56.195 52.3047 90.4139 53.2187 96.2341"/>
	<path fill="white" d="M54.336 140.99L22.2421 140.99C17.875 140.99 14.2187 137.778 13.8125 133.463L9.54685 94.6286L67.0313 94.6286L62.7655 133.463C62.2578 137.778 58.6015 140.99 54.336 140.99"/>
	<path fill="#2D1B0A" d="M54.3358 141.993L22.2421 141.993C17.3671 141.993 13.3046 138.38 12.7968 133.564L8.4296 93.625L68.1483 93.625L63.7812 133.564C63.2733 138.38 59.2108 141.993 54.3358 141.993M10.664 95.7323L14.828 133.463C15.2343 137.176 18.4843 140.086 22.2421 140.086L54.3358 140.086C58.1952 140.086 61.3437 137.277 61.7499 133.463L65.914 95.7323L10.664 95.7323"/>
	<path fill="white" d="M43.0625 11.8411C42.5547 11.8411 42.1485 11.5401 42.0469 11.0383C41.9454 10.4362 40.1172 9.63344 38.7969 9.43274C38.2891 9.33241 37.9688 8.83066 37.9688 8.22857C38.086 7.62648 38.5938 7.40676 39.2032 7.40676C39.9141 7.52613 43.5704 8.32892 43.9766 10.5366C44.0782 11.0383 43.7735 11.6404 43.1641 11.7408C43.1641 11.7408 43.0625 11.8411 43.0625 11.8411"/>
	<path fill="#1A5B3E" d="M33.2515 13.5939L35.222 13.1072L36.7983 19.3375L34.8278 19.8242L33.2515 13.5939"/>
	<path fill="#1A5B3E" d="M44.0499 33.1443L46.0204 32.6576L47.0055 36.5515L45.035 37.0382L44.0499 33.1443"/>
	<path fill="#1A5B3E" d="M36.1562 20.3708L31.6875 19.6683L31.9922 17.6614L35.2422 18.1631L37.375 15.1526L39.1015 16.2565"/>
	<path fill="#1A5B3E" d="M46.6172 37.8314L43.6719 37.3297L43.875 35.423L45.7032 35.6237L46.9219 33.9178L48.6485 35.122"/>
	<path fill="#1A5B3E" d="M10.3368 39.7808L12.3073 39.2941L13.2924 43.188L11.3219 43.6747L10.3368 39.7808"/>
	<path fill="#1A5B3E" d="M13 44.4544L9.95312 43.9527L10.2578 42.046L12.0859 42.2467L13.3047 40.5408L14.9297 41.745"/>
	<path fill="#1A5B3E" d="M60.5047 81.5627L62.4752 81.076L63.4603 84.9699L61.4898 85.4566L60.5047 81.5627"/>
	<path fill="#1A5B3E" d="M62.9687 86.4L59.9218 85.8983L60.2265 83.9916L62.0546 84.1923L63.2734 82.4864L65 83.6906"/>
	<path fill="#42B275" d="M9.79393 49.393L11.4366 48.2123L12.9901 50.3222L11.3474 51.5029L9.79393 49.393"/>
	<path fill="#348C59" d="M38.8704 36.9261L40.6538 35.9654L41.8206 38.0799L40.0372 39.0406L38.8704 36.9261"/>
	<path fill="#348C59" d="M39.87 61.6037L41.6533 60.6426L42.8206 62.7569L41.0373 63.718L39.87 61.6037"/>
	<path fill="#42B275" d="M62.9413 59.4172L64.7247 58.4565L65.8915 60.571L64.1081 61.5317L62.9413 59.4172"/>
	<path fill="#42B275" d="M12.6245 64.6556L12.6245 62.65L17.6753 62.8382L17.5976 64.8438L12.6245 64.6556"/>
	<path fill="#348C59" d="M44.7864 51.8334L44.7864 49.8278L49.8376 50.017L49.7595 52.0226L44.7864 51.8334"/>
	<path fill="#42B275" d="M61.2447 76.1975L61.2447 74.1919L66.2959 74.3811L66.2178 76.3867L61.2447 76.1975"/>
	<path fill="#42B275" d="M41.1525 81.1441L41.1525 79.1386L46.2035 79.3273L46.1256 81.3328L41.1525 81.1441"/>
	<path fill="#42B275" d="M13.4497 75.9917L14.3974 73.5564L16.2933 74.2767L15.3456 76.712L13.4497 75.9917"/>
	<path fill="white" d="M68.8595 99.5456L6.50005 99.5456C5.17974 99.5456 4.06255 98.4418 4.06255 97.1372C4.06255 95.2306 5.17974 94.1268 6.50005 94.1268L68.7579 94.1268C70.0782 94.1268 71.1954 95.2306 71.1954 96.5351C71.1954 98.4418 70.1798 99.5456 68.8595 99.5456"/>
	<path fill="#2D1B0A" d="M68.8595 100.549L6.50012 100.549C4.57044 100.549 3.047 99.0439 3.047 97.1372C3.047 94.6285 4.57044 93.1233 6.50012 93.1233L68.7579 93.1233C70.6876 93.1233 72.2111 94.6285 72.2111 96.5352C72.2111 99.0439 70.6876 100.549 68.8595 100.549M6.50012 95.1303C5.68763 95.1303 5.07825 95.7324 5.07825 96.5352C5.07825 97.94 5.68763 98.5421 6.50012 98.5421L68.7579 98.5421C69.5704 98.5421 70.1798 97.94 70.1798 97.1372C70.1798 95.7324 69.5704 95.1303 68.7579 95.1303L6.50012 95.1303"/>
</svg>
