<?xml version="1.0" encoding="utf-8" ?>
<svg xmlns="http://www.w3.org/2000/svg" xmlns:xlink="http://www.w3.org/1999/xlink" width="130" height="124">
	<path fill="white" d="M48.7575 123.401L47.6555 122.502C45.5518 120.805 37.3374 96.8438 41.8453 79.5717L42.6467 76.5765L49.1582 76.6763C41.8453 70.9855 34.1318 63.9968 31.2267 61.401L24.4147 55.1111L33.7311 54.5121C34.5325 54.5121 35.2337 54.4122 36.0351 54.4122C40.2425 54.4122 44.0492 55.211 47.2548 56.5089C45.8524 54.2126 45.5518 52.0161 46.2531 49.3205C46.5536 48.4219 48.0562 44.5282 52.0633 43.43C52.0633 43.43 52.1634 43.43 52.1634 43.43C51.1617 42.132 50.0597 40.8341 48.8576 39.6361C48.4569 40.1353 48.0562 40.5346 47.4552 40.934L45.8524 41.533C45.5518 41.533 45.1511 41.6329 44.8506 41.6329C43.1476 41.6329 41.5448 41.1337 40.2425 40.1353C40.0422 40.2351 39.8418 40.3349 39.7416 40.3349C39.1406 40.5346 38.6397 40.6345 38.0386 40.6345C36.9367 40.6345 35.935 40.2351 35.0334 39.6361C34.232 38.9372 33.6309 38.1385 33.4306 37.1401C31.7276 37.0403 30.3251 36.7407 29.123 36.0419L27.6204 34.6441C26.4183 32.847 26.1177 30.5507 26.819 27.8551C27.0193 27.0564 27.6204 25.6586 28.9227 24.2609C27.6204 23.562 26.3181 22.8631 25.0158 22.2641C24.5149 22.3639 24.014 22.4638 23.413 22.5636C23.2126 24.0612 22.3111 25.4589 21.0088 26.3575L19.406 26.9565C19.1054 26.9565 18.7047 27.0564 18.4042 27.0564C16.7012 27.0564 15.0984 26.5572 13.7961 25.5588C13.5958 25.6586 13.3954 25.7585 13.2952 25.7585C12.6942 25.9581 12.1933 26.058 11.5922 26.058C10.4903 26.058 9.48855 25.6586 8.58697 24.9597C7.78556 24.2609 7.18451 23.4622 6.98416 22.4638C5.28117 22.3639 3.87871 22.0644 2.6766 21.3655L1.17396 19.9678C0 18.0709 -0.328673 15.8744 0.372558 13.1787C0.673085 12.2802 2.17572 8.38647 6.18275 7.28824C6.78381 7.08857 7.38486 6.98873 7.98592 6.98873C7.98592 6.98873 7.98592 6.88889 7.98592 6.88889C8.58697 4.89211 10.29 2.19646 14.898 0.499195L16.2003 0L17.5026 0.399356C18.7047 0.798712 19.8067 1.29791 20.8084 1.99678C22.4112 3.69404 23.413 5.29147 23.6133 7.48792C25.3163 7.48792 27.0193 8.08696 28.6221 9.28502L29.9244 10.9823C30.2249 11.6812 30.9262 13.6779 30.7258 15.9742C32.529 16.8728 34.3321 17.8712 36.0351 18.8696C37.1371 17.4718 38.8401 16.0741 41.5448 15.0757L42.8471 14.5765L44.1494 14.9758C45.3515 15.3752 46.4534 15.8744 47.4552 16.5733C49.058 18.2705 50.0597 19.868 50.2601 22.0644C51.9631 22.0644 53.6661 22.6634 55.2689 23.8615L56.5712 25.5588C57.072 26.7568 58.4745 30.9501 55.7698 34.2448C55.6696 34.3446 55.5694 34.4444 55.4692 34.5443C56.471 35.6425 57.3726 36.7407 58.3743 37.9388C58.5747 37.839 58.8752 37.6393 59.0756 37.5395C60.7785 30.5507 64.5852 24.8599 70.0949 20.6667C69.9947 19.6683 70.0949 18.6699 70.3954 17.5717C70.6959 16.6731 72.1986 12.7794 76.2056 11.6812C76.8067 11.4815 77.4077 11.4815 78.0088 11.3816C78.0088 11.3816 78.0088 11.2818 78.0088 11.2818C78.6098 9.28502 80.3128 6.58937 84.9209 4.89211L86.2232 4.39291L87.5255 4.79227C88.7276 5.19163 89.8295 5.69082 90.8313 6.38969C92.4341 8.08696 93.4358 9.68438 93.6362 11.8808C95.3392 11.8808 97.0422 12.4799 98.645 13.6779L99.9473 15.3752C100.448 16.5733 101.851 20.7665 99.1459 24.0612C97.8436 25.6586 95.9402 26.5572 93.536 26.8567C93.3357 28.3543 92.4341 29.752 91.1318 30.6506L89.529 31.2496C89.2285 31.2496 88.8278 31.3494 88.5272 31.3494C86.8242 31.3494 85.2214 30.8502 83.9191 29.8519C83.7188 29.9517 83.5184 30.0515 83.4183 30.0515C82.8172 30.2512 82.3163 30.351 81.7153 30.351C80.6133 30.351 79.6116 29.9517 78.71 29.2528C77.9086 28.5539 77.3075 27.7552 77.1072 26.7568C76.5061 26.7568 75.9051 26.657 75.304 26.5572C71.3972 29.3527 68.5923 33.3462 67.1898 38.2383C68.5923 39.8357 69.594 41.4332 69.7944 43.6296C71.4974 43.6296 73.2003 44.2287 74.8032 45.4267L76.1054 47.124C76.6063 48.3221 78.0088 52.5153 75.304 55.81C74.0017 57.3076 72.1986 58.306 69.8945 58.6055C70.4956 60.4026 71.0966 62.2995 71.5975 64.1965C78.8102 48.4219 93.3357 26.8567 118.48 26.8567C119.682 26.8567 120.984 26.9565 122.286 27.0564L130 27.7552L125.091 33.6457C118.48 41.533 98.5448 64.8953 84.2197 77.0757L87.9262 77.0757L88.8278 79.7713C89.1283 80.4702 94.8383 97.6425 84.6204 121.504L83.5184 124L48.7575 123.401M56.1705 62C59.877 65.095 62.5817 68.789 64.485 71.9839C63.9842 68.8889 63.2829 65.7939 62.3814 62.8986C61.3796 62.6989 60.478 62.1997 59.6766 61.6006C59.4763 61.7005 59.2759 61.8003 59.1757 61.8003C58.5747 62 58.0738 62 57.4727 62C56.9719 62 56.5712 62 56.1705 62M51.1617 58.4058C51.8629 58.8052 52.5641 59.3043 53.2654 59.7037C53.065 59.3043 52.8647 59.0048 52.7645 58.6055C52.1634 58.5056 51.6626 58.5056 51.1617 58.4058"/>
	<path fill="#2D1B0A" d="M68.2885 80.4701C67.3869 30.2512 16.1944 15.0757 15.5933 14.876L16.1944 12.979C16.6953 13.1787 29.6186 16.8728 42.8425 27.0564C55.0646 36.4412 69.7912 53.4138 70.2921 80.3703L68.2885 80.4701"/>
	<path fill="#C34EEA" d="M45.347 28.1545C45.9481 27.2559 44.9463 26.3574 44.245 27.1561C46.7495 23.5619 46.1484 21.1658 44.9463 19.6682C44.245 19.169 43.5437 18.8695 42.7423 18.57C35.7296 21.1658 38.3343 26.3574 40.0374 28.7536C39.6367 28.2543 38.3343 27.1561 38.134 26.9564C32.8244 22.7632 30.6204 28.454 30.6204 28.454C30.2197 30.1512 30.4072 31.3493 30.9209 32.148C33.1249 33.3461 36.9318 32.5475 38.2341 32.148C37.7332 32.3477 37.4327 34.1449 37.2323 35.3428C37.1321 35.9419 37.7332 36.3412 38.2341 36.1416C39.5365 35.6424 40.7387 34.7439 41.1394 34.2447C41.2396 34.1449 41.3397 34.2447 41.3397 34.3446C42.1412 37.5394 45.1466 37.156 45.1466 37.156C47.1502 35.842 44.1448 32.4475 43.5437 32.2478C55.9662 34.8438 52.56 26.9564 52.4598 26.6569C49.5546 24.76 46.9499 26.5571 45.347 28.1545"/>
	<path fill="#2D1B0A" d="M44.8458 38.3381C43.6436 38.3381 41.9405 37.8389 40.9386 35.942C40.3375 36.3413 39.536 36.8405 38.6344 37.14C38.0333 37.3397 37.4322 37.2399 36.9312 36.8405C36.4303 36.4412 36.2299 35.8421 36.3301 35.2431C36.4303 34.5442 36.5305 34.045 36.6307 33.5458C34.7272 33.8454 32.3228 33.9452 30.5194 33.0466C29.5137 31.6489 29.3172 30.0515 29.7179 28.2544C29.7179 28.0547 30.82 25.2592 33.3246 24.5603C34.5268 24.2608 35.8292 24.4605 37.2318 25.1594C37.0314 24.161 37.0314 23.1626 37.332 22.1642C37.9331 20.1674 39.6362 18.6698 42.3412 17.6714C43.844 17.971 44.6455 18.3703 45.4469 18.8695C46.8495 20.4669 47.7512 22.7632 45.9479 26.2576C45.9479 26.2576 45.9479 26.2576 46.048 26.3574C48.4525 24.5603 50.9571 24.4605 53.2613 26.1577C53.8625 27.4557 54.8643 30.2511 53.2613 32.2479C52.0591 33.7455 49.7549 34.3445 46.3486 33.9452C46.6492 34.4444 46.8495 35.0434 46.9497 35.5426C47.1501 36.6408 46.7493 37.5394 45.8477 38.1384C45.1464 38.3381 45.0462 38.3381 44.8458 38.3381M41.2392 33.446C41.3394 33.446 41.4396 33.446 41.5397 33.446C41.9405 33.5458 42.241 33.8454 42.3412 34.2447C42.8421 36.1416 44.1445 36.3413 44.8458 36.3413C44.946 36.2415 44.946 36.1416 44.946 36.0418C44.946 35.0434 43.6436 33.6457 43.2429 33.3462C43.2429 33.3462 43.3431 33.3462 43.4432 33.446L43.844 31.4492C47.8514 32.2479 50.5564 32.0483 51.5582 30.8502C52.3597 29.8518 51.9589 28.1545 51.6584 27.5555C49.8551 26.3574 47.9516 26.8566 46.048 28.8534L44.8458 27.855C44.946 27.855 44.946 27.855 44.946 27.855L43.3431 26.6569C45.0462 24.161 45.3468 22.0644 44.1445 20.4669C43.6436 20.1674 43.1427 19.8679 42.6418 19.6682C40.7383 20.4669 39.536 21.4653 39.1353 22.7632C38.5342 24.76 39.8366 27.0563 40.7383 28.2544L39.1353 29.4524C38.8348 29.1529 38.1335 28.454 37.7327 28.0547C37.5323 27.855 37.4322 27.7552 37.332 27.6553C35.9294 26.5571 34.7272 26.1577 33.7253 26.4573C32.3228 26.8566 31.6215 28.454 31.4211 28.7536C31.1205 29.8518 31.2207 30.7503 31.5213 31.4492C33.1242 32.1481 35.8292 31.8486 37.8329 31.2495L38.434 33.1465C38.5342 33.0466 38.6344 33.0466 38.6344 32.9468C38.5342 33.1465 38.3338 33.6457 38.1335 35.1433C39.1353 34.6441 40.037 34.045 40.2373 33.7455C40.6381 33.5458 40.9386 33.446 41.2392 33.446M44.5453 27.6553C44.5453 27.5555 44.5453 27.5555 44.5453 27.6553C44.5453 27.5555 44.5453 27.5555 44.5453 27.6553"/>
	<path fill="#C34EEA" d="M18.7991 13.578C19.4002 12.6794 18.3984 11.7809 17.6971 12.5796C20.2016 8.9854 19.6005 6.58926 18.3984 5.09168C17.6971 4.59248 16.9958 4.29297 16.1944 3.99345C9.18171 6.58926 11.7864 11.7809 13.4895 14.1771C13.0888 13.6778 11.7864 12.5796 11.5861 12.3799C6.27646 8.18669 4.07247 13.8775 4.07247 13.8775C3.67175 15.5747 3.8593 16.7729 4.37302 17.5716C6.577 18.7696 10.3839 17.9709 11.6862 17.5716C11.1853 17.7712 10.8848 19.5683 10.6844 20.7663C10.5842 21.3654 11.1853 21.7647 11.6862 21.5651C12.9886 21.066 14.1908 20.1674 14.5915 19.6681C14.6917 19.5683 14.7918 19.6681 14.7918 19.768C15.5933 22.9629 18.5987 22.5795 18.5987 22.5795C20.6023 21.2656 17.5969 17.871 16.9958 17.6714C29.4183 20.2673 26.0121 12.3799 25.9119 12.0804C23.0067 10.1835 20.402 11.8807 18.7991 13.578"/>
	<path fill="#2D1B0A" d="M18.1976 23.7616C16.9954 23.7616 15.2923 23.2624 14.2904 21.3655C13.6893 21.7648 12.8878 22.264 11.9862 22.5635C11.3851 22.7632 10.784 22.6634 10.283 22.264C9.78212 21.8647 9.58175 21.2656 9.68193 20.6666C9.78212 19.9677 9.8823 19.4685 9.98249 18.9693C8.07898 19.2689 5.67455 19.3687 3.87122 18.4701C2.8655 17.0724 2.669 15.475 3.06974 13.6779C3.06974 13.4782 4.17178 10.6827 6.67639 9.98383C7.87861 9.68431 9.18101 9.88399 10.5836 10.5829C10.3832 9.58447 10.3832 8.58608 10.6838 7.58769C11.2849 5.59091 12.988 4.09333 15.693 3.09494C17.1958 3.39446 17.9973 3.79381 18.7987 4.29301C20.2013 5.89043 21.103 8.18673 19.2997 11.6811C19.2997 11.6811 19.2997 11.6811 19.3998 11.7809C21.8043 9.98383 24.3089 9.88399 26.6131 11.5813C27.2143 12.8792 28.2161 15.6746 26.6131 17.6714C25.4109 19.169 23.1067 19.768 19.7004 19.3687C20.001 19.8679 20.2013 20.4669 20.3015 20.9661C20.5019 22.0643 20.1011 22.9629 19.1995 23.5619C18.5984 23.7616 18.398 23.7616 18.1976 23.7616M14.6912 18.7697C14.7914 18.7697 14.8915 18.7697 14.9917 18.7697C15.3925 18.8695 15.693 19.169 15.7932 19.5684C16.2941 21.4653 17.6967 21.665 18.2978 21.665C18.398 21.5651 18.398 21.4653 18.398 21.3655C18.398 20.3671 17.0956 18.9693 16.6949 18.6698C16.6949 18.6698 16.795 18.6698 16.8952 18.7697L17.296 16.7729C21.3034 17.5716 24.0083 17.3719 25.0102 16.1738C25.8117 15.1755 25.4109 13.4782 25.1104 12.8792C23.3071 11.6811 21.4035 12.1803 19.5 14.1771L18.2978 13.1787C18.398 13.1787 18.398 13.1787 18.398 13.1787L16.795 11.9806C18.4982 9.48463 18.7987 7.38801 17.5965 5.79059C17.0956 5.49107 16.5947 5.19156 16.0938 4.99188C14.1902 5.79059 12.988 6.78898 12.5873 8.08689C11.9862 10.0837 13.2886 12.38 14.1902 13.578L12.5873 14.7761C12.2867 14.4766 11.5854 13.7777 11.1847 13.3784C10.9843 13.1787 10.8841 13.0788 10.784 12.979C9.38138 11.8808 8.17916 11.4814 7.17732 11.7809C5.77473 12.1803 5.07344 13.7777 4.87307 14.0772C4.57251 15.1755 4.6727 16.074 4.97325 16.7729C6.57621 17.4718 9.28119 17.1722 11.2849 16.5732L11.886 18.4701C11.9862 18.3703 12.0864 18.3703 12.0864 18.2705C11.9862 18.4701 11.7858 18.9693 11.5854 20.4669C12.5873 19.9677 13.489 19.3687 13.6893 19.0692C14.0901 18.9693 14.3906 18.7697 14.6912 18.7697"/>
	<path fill="#2D1B0A" d="M60.875 52.2158C57.7694 20.5669 84.4176 17.2722 84.7181 17.2722L84.9185 19.269C83.9167 19.3688 59.9734 22.364 62.8787 52.116L60.875 52.2158"/>
	<path fill="#4EA04E" d="M69.2902 80.67C69.2902 80.67 82.5141 27.5556 121.484 30.8503C121.484 30.8503 77.7054 82.9662 69.2902 80.67"/>
	<path fill="#2D1B0A" d="M69.7913 81.6683C69.4907 81.6683 69.2904 81.6683 68.9898 81.5685L68.2886 80.3704C68.3887 79.8712 82.2137 26.4574 121.585 29.7521L123.488 29.9517L122.286 31.4493C115.073 40.0355 79.609 81.6683 69.7913 81.6683M118.079 31.649C86.0206 31.649 72.7967 72.0838 70.5927 79.6716C77.9059 78.174 103.452 50.6184 119.481 31.649C118.98 31.649 118.479 31.649 118.079 31.649"/>
	<path fill="#4EA04E" d="M64.3814 80.7697C64.3814 80.7697 56.6675 56.8083 33.9264 58.2385C33.9264 58.2385 59.4726 81.7681 64.3814 80.7697"/>
	<path fill="#2D1B0A" d="M64.181 81.7681C58.2704 81.7681 37.5329 62.8985 33.3253 59.0048L31.6222 57.4073L33.9264 57.1413C57.1684 55.7101 65.3832 80.0707 65.3832 80.3703L64.5818 81.5684C64.4816 81.7681 64.3814 81.7681 64.181 81.7681M36.4309 59.2044C46.9499 68.7889 58.5709 77.9742 62.8787 79.5715C60.8751 74.5797 53.3615 59.504 36.4309 59.2044"/>
	<path fill="white" d="M45.7175 80.3702L84.4876 80.7696C84.4876 80.7696 90.0977 96.9435 80.3801 119.607L50.2256 119.208C50.2256 119.208 41.4097 97.3428 45.7175 80.3702"/>
	<path fill="#2D1B0A" d="M81.0115 120.605L49.8552 120.206C49.0537 119.607 40.338 97.2431 44.7459 80.1706L85.2191 79.7712C85.6198 81.169 91.1298 97.2431 81.2119 120.006M50.9572 118.209L79.7091 118.609C87.8238 99.3397 84.618 84.9629 83.7164 81.768L46.449 81.3687C43.1431 96.1448 49.6548 114.715 50.9572 118.209"/>
	<path fill="#C34EEA" d="M64.7822 49.7197C65.3833 48.8211 64.3815 47.9226 63.6802 48.7213C66.1847 45.1271 65.5836 42.731 64.3815 41.2334C63.6802 40.7342 62.9789 40.4347 62.1775 40.1352C55.1648 42.731 57.7695 47.9226 59.4726 50.3188C59.0719 49.8195 57.7695 48.7213 57.5691 48.5216C52.2596 44.3284 50.0556 50.0192 50.0556 50.0192C49.6549 51.7164 49.8424 52.9146 50.3561 53.7132C52.5601 54.9114 56.367 54.1127 57.6693 53.7132C57.1684 53.9129 56.8679 55.7101 56.6675 56.9081C56.5673 57.5071 57.1684 57.9064 57.6693 57.7068C58.9717 57.2076 60.1739 56.3091 60.5746 55.8099C60.6748 55.7101 60.7749 55.8099 60.7749 55.9098C61.5764 59.1046 64.5818 58.7212 64.5818 58.7212C66.5854 57.4072 63.58 54.0127 62.9789 53.813C75.4014 56.409 71.9952 48.5216 71.895 48.2221C69.09 46.3252 66.3851 48.1223 64.7822 49.7197"/>
	<path fill="#2D1B0A" d="M64.281 59.9033C63.0788 59.9033 61.3757 59.4041 60.3738 57.5072C59.7727 57.9065 58.9712 58.4057 58.0696 58.7052C57.4685 58.9049 56.8674 58.8051 56.3664 58.4057C55.8655 58.0064 55.6651 57.4073 55.7653 56.8083C55.8655 56.1094 55.9657 55.6102 56.0659 55.111C54.1624 55.4106 51.7579 55.5104 49.9546 54.6118C48.9489 53.2141 48.7524 51.6167 49.1531 49.8196C49.1531 49.6199 50.2552 46.8244 52.7598 46.1255C53.962 45.826 55.2644 46.0257 56.667 46.7246C56.4666 45.7262 56.4666 44.7278 56.7672 43.7294C57.3683 41.7326 59.0714 40.235 61.7764 39.2366C63.2792 39.5362 64.0807 39.9355 64.8821 40.4347C66.2847 42.0321 67.1864 44.3284 65.3831 47.8228C65.3831 47.8228 65.3831 47.8228 65.4832 47.9226C67.8877 46.1255 70.3923 46.0257 72.6965 47.7229C73.2977 49.0209 74.2995 51.8163 72.6965 53.8131C71.4943 55.3107 69.1901 55.9097 65.7838 55.5104C66.0844 56.0096 66.2847 56.6086 66.3849 57.1078C66.5853 58.206 66.1845 59.1046 65.2829 59.7036C64.6818 59.9033 64.4814 59.9033 64.281 59.9033M60.6744 55.0112C60.7746 55.0112 60.8748 55.0112 60.9749 55.0112C61.3757 55.111 61.6762 55.4106 61.7764 55.8099C62.2773 57.7068 63.5797 57.9065 64.281 57.9065C64.3812 57.8067 64.3812 57.7068 64.3812 57.607C64.3812 56.6086 63.0788 55.2109 62.6781 54.9114C62.6781 54.9114 62.7783 54.9114 62.8784 55.0112L63.2792 53.0144C67.2866 53.8131 69.9916 53.6135 70.9934 52.4154C71.7949 51.417 71.3941 49.7197 71.0936 49.1207C69.2903 47.9226 67.3868 48.4218 65.4832 50.4186L64.281 49.4202C64.3812 49.4202 64.3812 49.4202 64.3812 49.4202L62.7783 48.2221C64.4814 45.7262 64.782 43.6295 63.5797 42.0321C63.0788 41.7326 62.5779 41.4331 62.077 41.2334C60.1735 42.0321 58.9712 43.0305 58.5705 44.3284C57.9694 46.3252 59.2718 48.6215 60.1735 49.8196L58.5705 51.0176C58.2699 50.7181 57.5687 50.0192 57.1679 49.7197C56.9675 49.5201 56.8674 49.4202 56.7672 49.3204C55.3646 48.2221 54.1624 47.8228 53.1605 48.1223C51.7579 48.5217 51.0566 50.1191 50.8563 50.4186C50.5557 51.5168 50.6559 52.4154 50.9565 53.1143C52.5594 53.8131 55.2644 53.5136 57.2681 52.9146L57.8692 54.8115C57.9694 54.7117 58.0696 54.7117 58.0696 54.6118C57.9694 54.8115 57.769 55.3107 57.5687 56.8083C58.5705 56.3091 59.4722 55.7101 59.6725 55.4106C60.0733 55.111 60.3738 55.0112 60.6744 55.0112"/>
	<path fill="#C34EEA" d="M88.7255 17.971C89.3266 17.0724 88.3248 16.1739 87.6235 16.9726C90.128 13.3784 89.5269 10.9823 88.3248 9.48468C87.6235 8.98548 86.9222 8.68597 86.1208 8.38645C79.1081 10.9823 81.7128 16.1739 83.4159 18.57C83.0152 18.0708 81.7128 16.9726 81.5125 16.7729C76.2029 12.5797 73.9989 18.2705 73.9989 18.2705C73.5981 19.9678 73.7857 21.1658 74.2994 21.9646C76.5034 23.1627 80.3103 22.3639 81.6126 21.9646C81.1117 22.1642 80.8112 23.9613 80.6108 25.1593C80.5106 25.7584 81.1117 26.1577 81.6126 25.9581C82.915 25.459 84.1172 24.5604 84.5179 24.0611C84.6181 23.9613 84.7182 24.0611 84.7182 24.161C85.5197 27.3559 88.5251 26.9725 88.5251 26.9725C90.5287 25.6586 87.5233 22.264 86.9222 22.0644C99.3447 24.6602 95.9385 16.7729 95.8383 16.4734C92.9331 14.5765 90.3284 16.3736 88.7255 17.971"/>
	<path fill="#2D1B0A" d="M88.2243 28.1546C87.0221 28.1546 85.319 27.6554 84.3171 25.7585C83.716 26.1578 82.9145 26.657 82.0129 26.9565C81.4118 27.1562 80.8107 27.0564 80.3097 26.657C79.8088 26.2577 79.6085 25.6586 79.7086 25.0596C79.8088 24.3607 79.909 23.8615 80.0092 23.3623C78.1057 23.6619 75.7013 23.7617 73.8979 22.8631C72.8922 21.4654 72.6957 19.868 73.0965 18.0709C73.0965 17.8712 74.1985 15.0757 76.7031 14.3768C77.9053 14.0773 79.2077 14.277 80.6103 14.9759C80.4099 13.9775 80.4099 12.9791 80.7105 11.9807C81.3116 9.98391 83.0147 8.48633 85.7197 7.48794C87.2225 7.78746 88.024 8.18681 88.8254 8.68601C90.228 10.2834 91.1297 12.5797 89.3264 16.0741C89.3264 16.0741 89.3264 16.0741 89.4265 16.1739C91.831 14.3768 94.3356 14.277 96.6398 15.9743C97.241 17.2722 98.2428 20.0676 96.6398 22.0644C95.4376 23.562 93.1334 24.161 89.7271 23.7617C90.0277 24.2609 90.228 24.8599 90.3282 25.3591C90.5286 26.4573 90.1278 27.3559 89.2262 27.9549C88.5249 28.1546 88.4247 28.1546 88.2243 28.1546M84.6177 23.2625C84.7179 23.2625 84.8181 23.2625 84.9182 23.2625C85.319 23.3623 85.6195 23.6619 85.7197 24.0612C86.2206 25.9581 87.6232 26.1578 88.2243 26.1578C88.3245 26.058 88.3245 25.9581 88.3245 25.8583C88.3245 24.8599 87.0221 23.4622 86.6214 23.1627C86.6214 23.1627 86.7216 23.1627 86.8217 23.2625L87.2225 21.2657C91.2299 22.0644 93.9349 21.8648 94.9367 20.6667C95.7382 19.6683 95.3374 17.971 95.0369 17.372C93.2336 16.1739 91.3301 16.6731 89.4265 18.6699L88.2243 17.6715C88.3245 17.6715 88.3245 17.6715 88.3245 17.6715L86.7216 16.4734C88.4247 13.9775 88.7253 11.8808 87.523 10.2834C87.0221 9.98391 86.5212 9.6844 86.0203 9.48472C84.1168 10.2834 82.9145 11.2818 82.5138 12.5797C81.9127 14.5765 83.2151 16.8728 84.1168 18.0709L82.5138 19.2689C82.2133 18.9694 81.512 18.2705 81.1112 17.8712C80.9109 17.6715 80.8107 17.5717 80.7105 17.4718C79.3079 16.3736 78.1057 15.9743 77.1038 16.2738C75.7013 16.6731 75 18.2705 74.7996 18.5701C74.499 19.6683 74.5992 20.5668 74.8998 21.2657C76.5027 21.9646 79.2077 21.6651 81.2114 21.066L81.8125 22.963C81.9127 22.8631 82.0129 22.8631 82.0129 22.7633C81.9127 22.963 81.7123 23.4622 81.512 24.9598C82.5138 24.4606 83.4155 23.8615 83.6158 23.562C84.0166 23.3623 84.3171 23.2625 84.6177 23.2625"/>
</svg>
