<?xml version="1.0" encoding="utf-8" ?>
<svg xmlns="http://www.w3.org/2000/svg" xmlns:xlink="http://www.w3.org/1999/xlink" width="84" height="104">
	<path fill="white" d="M42 104C32.6892 104 23.8843 100.977 16.4964 95.4341C12.7518 92.6124 9.61446 89.2868 7.08434 85.3566C5.06024 82.3333 3.44096 79.1085 2.22651 75.5814C0.708434 71.2481 0 66.7132 0 62.0775C0 58.7519 0.404819 55.5271 1.21446 52.3023C2.0241 48.876 3.23855 45.6512 4.85783 42.5271C6.78072 38.7984 9.31084 35.4729 12.2458 32.4496C17.5084 27.2093 23.9855 23.4806 31.0699 21.5659L31.0699 16.7287C31.0699 13.907 32.8916 10.8837 36.7373 9.37209L36.7373 5.03876C36.7373 2.21705 38.9639 0 41.7976 0C44.7325 0 46.959 2.21705 46.959 5.03876L46.959 9.37209C50.8048 10.7829 52.6265 13.907 52.6265 16.7287L52.6265 21.4651C59.9133 23.3798 66.4916 27.1085 71.7542 32.4496C74.6892 35.3721 77.2193 38.7984 79.1422 42.5271C80.7614 45.5504 81.9759 48.876 82.7855 52.3023C83.5952 55.5271 84 58.8527 84 62.0775C84 66.7132 83.2916 71.2481 81.7735 75.5814C80.559 79.0078 78.9398 82.3333 76.9157 85.3566C74.3855 89.186 71.147 92.6124 67.5036 95.4341C60.1157 100.977 51.3108 104 42 104"/>
	<path fill="#FCD11A" d="M41.7976 12.2946C40.5831 12.2946 39.6723 11.3876 39.6723 10.2791L39.6723 5.13953C39.6723 4.03101 40.5831 3.12403 41.6964 3.12403C42.9109 3.12403 43.8217 4.03101 43.8217 5.13953L43.8217 10.2791C43.8217 11.3876 42.9109 12.2946 41.7976 12.2946"/>
	<path fill="#2D1A0B" d="M41.7976 13.3023C39.9759 13.3023 38.6603 11.9923 38.6603 10.2791L38.6603 5.13954C38.6603 3.42636 39.9759 2.11628 41.6964 2.11628C43.5181 2.11628 44.8337 3.42636 44.8337 5.13954L44.8337 10.2791C44.8337 11.8915 43.5181 13.3023 41.7976 13.3023M41.6964 4.03101C41.0892 4.03101 40.6844 4.43411 40.6844 5.03876L40.6844 10.1783C40.6844 10.7829 41.0892 11.1861 41.6964 11.1861C42.4048 11.1861 42.8097 10.7829 42.8097 10.1783L42.8097 5.03876C42.8097 4.43411 42.4048 4.03101 41.7976 4.03101"/>
	<path fill="#FCD11A" d="M41.7976 11.5892C36.6362 11.5892 34.0049 14.2093 34.0049 16.7287L34.0049 24.4884L49.4892 24.4884L49.4892 16.7287C49.4892 14.1086 46.9591 11.5892 41.7976 11.5892"/>
	<path fill="#2D1A0B" d="M50.5012 25.3953L32.9928 25.3953L32.9928 16.6279C32.9928 13.7055 35.7253 10.4806 41.7976 10.4806C47.8699 10.4806 50.6024 13.7055 50.6024 16.6279L50.6024 25.3953M35.0169 23.3799L48.4771 23.3799L48.4771 16.6279C48.4771 14.6124 46.3518 12.4962 41.6964 12.4962C37.041 12.4962 34.9157 14.6124 34.9157 16.6279L34.9157 23.3799"/>
	<path fill="#F43B3B" d="M41.8988 23.0775C31.0698 23.0775 21.3542 27.4109 14.2698 34.4651L69.5276 34.4651C62.4434 27.5116 52.7277 23.0775 41.8988 23.0775"/>
	<path fill="#2D1A0B" d="M71.9566 35.5737L11.8409 35.5737L13.5614 33.8605C21.1517 26.3023 31.171 22.1705 41.8987 22.1705C52.6264 22.1705 62.6457 26.3023 70.2361 33.8605L71.9566 35.5737M16.9011 33.5582L66.9975 33.5582C60.0144 27.5116 51.2096 24.1861 41.8987 24.1861C32.5879 24.1861 23.7831 27.4109 16.9011 33.5582"/>
	<path fill="#F43B3B" d="M42 100.775C50.9061 100.775 59.1036 97.752 65.682 92.814L18.3181 92.814C24.8964 97.8527 33.094 100.775 42 100.775"/>
	<path fill="#2D1A0B" d="M41.9999 101.783C33.0432 101.783 24.6432 98.9613 17.6601 93.6202L15.3324 91.8062L68.6673 91.8062L66.3396 93.6202C59.2553 98.9613 50.8553 101.783 41.9999 101.783M21.5059 93.8217C27.5782 97.752 34.6625 99.7675 41.9999 99.7675C49.3372 99.7675 56.3204 97.752 62.3926 93.8217L21.5059 93.8217"/>
	<path fill="#F43B3B" d="M76.4603 43.8372L7.43851 43.8372C5.92044 46.6589 4.80719 49.6822 3.99755 52.8062L79.7999 52.8062C79.0916 49.6822 77.9782 46.6589 76.4603 43.8372"/>
	<path fill="#2D1A0B" d="M81.2168 53.9147L2.7831 53.9147L3.08671 52.7054C3.89635 49.4806 5.00961 46.3566 6.62888 43.4341L77.1686 42.9302C78.9903 46.3566 80.2048 49.4806 81.0144 52.7054L81.2168 53.9147M5.41443 51.8992L78.5855 51.8992C77.8771 49.4806 76.9662 47.1628 75.853 44.9457L8.04575 44.9457C6.9325 47.062 6.02165 49.4806 5.41443 51.8992"/>
	<path fill="#F43B3B" d="M4.959 74.4729C6.07225 77.6977 7.59033 80.721 9.41201 83.5427L74.2843 83.5427C76.106 80.721 77.6241 77.6977 78.7373 74.4729L4.959 74.4729"/>
	<path fill="#2D1A0B" d="M74.8917 84.4496L8.90615 84.4496C6.67964 81.2248 5.16157 78.1008 4.04832 74.7752L3.6435 73.4651L80.3568 73.4651L79.9519 74.7752C78.8387 78.1008 77.3206 81.2248 75.3977 84.0465M10.0194 82.4341L73.8796 82.4341C75.2965 80.2171 76.511 77.8993 77.4218 75.3799L6.47723 75.3799C7.38808 77.8993 8.60254 80.3179 10.0194 82.4341"/>
	<path fill="#FCD11A" d="M81.0144 61.9768C81.0144 58.8528 80.6096 55.8295 79.9012 52.9071L4.0987 52.9071C3.39027 55.8295 2.98545 58.8528 2.98545 61.9768C2.98545 66.3102 3.69388 70.5428 5.11075 74.473L78.9902 74.473C80.2048 70.5428 81.0144 66.3102 81.0144 61.9768"/>
	<path fill="#2D1A0B" d="M79.5976 75.4806L4.30121 75.4806C2.68193 70.6434 1.9735 66.31 1.9735 61.9767C1.9735 58.8527 2.37832 55.7286 3.08675 52.6046L80.7108 51.7984C81.6217 55.6279 82.0265 58.8527 82.0265 61.9767C82.0265 66.31 81.3181 70.6434 79.9012 74.7751M5.81928 73.4651L78.1807 73.4651C79.3952 69.7364 80.0024 65.9069 80.0024 61.9767C80.0024 59.2558 79.6988 56.5348 79.0916 53.9147L4.90844 53.9147C4.30121 56.5348 3.9976 59.2558 3.9976 61.9767C3.9976 65.9069 4.60483 69.7364 5.81928 73.4651"/>
	<path fill="#FCD11A" d="M18.2675 92.8139L65.6314 92.8139C69.0723 90.1938 72.0073 87.0698 74.4362 83.5426L9.5639 83.5426C11.8916 87.0698 14.9278 90.1938 18.2675 92.8139"/>
	<path fill="#2D1A0B" d="M66.0363 93.8217L17.964 93.8217C14.1182 90.8992 11.0821 87.6744 8.65315 84.0465L7.6411 82.4341L76.3592 82.4341L75.3471 84.0465C72.9182 87.6744 69.8821 90.8992 66.3399 93.6201M18.6724 91.8062L65.3278 91.8062C68.0604 89.6899 70.4893 87.2713 72.5134 84.5504L11.4869 84.5504C13.511 87.2713 15.9399 89.6899 18.6724 91.8062"/>
	<path fill="#FCD11A" d="M69.629 34.5659L14.3711 34.5659C11.6385 37.2869 9.31084 40.4109 7.48915 43.8373L76.5108 43.8373C74.6891 40.4109 72.3615 37.2869 69.629 34.5659"/>
	<path fill="#2D1A0B" d="M78.1807 44.845L5.8193 44.845L6.62894 43.3334C8.45063 39.8062 10.8795 36.5814 13.7133 33.7597L70.0844 33.4574C73.2217 36.5814 75.5494 39.8062 77.4723 43.3334L78.1807 44.845M9.15906 42.8295L74.7398 42.8295C73.2217 40.2093 71.2988 37.69 69.1735 35.5737L14.8265 35.5737C12.6 37.69 10.7783 40.2093 9.15906 42.8295"/>
	<path fill="#D7E9FF" d="M22.8722 63.6899C22.8722 66.751 20.3802 69.2326 17.306 69.2326C14.2318 69.2326 11.7397 66.751 11.7397 63.6899C11.7397 60.6288 14.2318 58.1473 17.306 58.1473C20.3802 58.1473 22.8722 60.6288 22.8722 63.6899"/>
	<path fill="#2C180C" d="M17.306 70.2403C13.6626 70.2403 10.7277 67.3178 10.7277 63.6899C10.7277 60.062 13.6626 57.1395 17.306 57.1395C20.9494 57.1395 23.8843 60.062 23.8843 63.6899C23.8843 67.3178 20.9494 70.2403 17.306 70.2403M17.306 59.155C14.7759 59.155 12.7518 61.1705 12.7518 63.6899C12.7518 66.2093 14.7759 68.2248 17.306 68.2248C19.8361 68.2248 21.8602 66.2093 21.8602 63.6899C21.8602 61.1705 19.8361 59.155 17.306 59.155"/>
	<path fill="#2D1A0B" d="M24.4916 39.2016C24.4916 40.4817 23.4495 41.5194 22.1639 41.5194C20.8783 41.5194 19.8362 40.4817 19.8362 39.2016C19.8362 37.9215 20.8783 36.8838 22.1639 36.8838C23.4495 36.8838 24.4916 37.9215 24.4916 39.2016"/>
	<path fill="#2D1A0B" d="M43.107 37.5232C44.016 38.4283 44.016 39.8959 43.107 40.801C42.198 41.7062 40.7242 41.7062 39.8152 40.801C38.9062 39.8959 38.9062 38.4283 39.8152 37.5232C40.7242 36.618 42.198 36.618 43.107 37.5232"/>
	<path fill="#2D1A0B" d="M63.2469 37.5243C64.1559 38.4294 64.1559 39.897 63.2469 40.8021C62.3379 41.7073 60.8641 41.7073 59.9551 40.8021C59.0461 39.897 59.0461 38.4294 59.9551 37.5243C60.8641 36.6191 62.3379 36.6191 63.2469 37.5243"/>
	<path fill="#2D1A0B" d="M24.9976 88.2791C24.9976 89.5592 23.9555 90.5969 22.6699 90.5969C21.3843 90.5969 20.3422 89.5592 20.3422 88.2791C20.3422 86.999 21.3843 85.9613 22.6699 85.9613C23.9555 85.9613 24.9976 86.999 24.9976 88.2791"/>
	<path fill="#2D1A0B" d="M43.6459 86.6051C44.5549 87.5102 44.5549 88.9778 43.6459 89.8829C42.7369 90.7881 41.2631 90.7881 40.3541 89.8829C39.4451 88.9778 39.4451 87.5102 40.3541 86.6051C41.2631 85.6999 42.7369 85.6999 43.6459 86.6051"/>
	<path fill="#2D1A0B" d="M63.7194 86.6064C64.6284 87.5115 64.6284 88.9791 63.7194 89.8842C62.8104 90.7894 61.3366 90.7894 60.4276 89.8842C59.5186 88.9791 59.5186 87.5115 60.4276 86.6064C61.3366 85.7012 62.8104 85.7012 63.7194 86.6064"/>
	<path fill="#D7E9FF" d="M47.0602 63.6899C47.0602 66.751 44.5682 69.2326 41.494 69.2326C38.4198 69.2326 35.9277 66.751 35.9277 63.6899C35.9277 60.6288 38.4198 58.1473 41.494 58.1473C44.5682 58.1473 47.0602 60.6288 47.0602 63.6899"/>
	<path fill="#2C180C" d="M41.494 70.2403C37.8506 70.2403 34.9157 67.3178 34.9157 63.6899C34.9157 60.062 37.8506 57.1395 41.494 57.1395C45.1374 57.1395 48.0723 60.062 48.0723 63.6899C48.0723 67.3178 45.1374 70.2403 41.494 70.2403M41.494 59.155C38.9639 59.155 36.9398 61.1705 36.9398 63.6899C36.9398 66.2093 38.9639 68.2248 41.494 68.2248C44.0241 68.2248 46.0482 66.2093 46.0482 63.6899C46.0482 61.1705 44.0241 59.155 41.494 59.155"/>
	<path fill="#D7E9FF" d="M72.2602 63.6899C72.2602 66.751 69.7682 69.2326 66.694 69.2326C63.6198 69.2326 61.1277 66.751 61.1277 63.6899C61.1277 60.6288 63.6198 58.1473 66.694 58.1473C69.7682 58.1473 72.2602 60.6288 72.2602 63.6899"/>
	<path fill="#2C180C" d="M66.694 70.2403C63.0506 70.2403 60.1157 67.3178 60.1157 63.6899C60.1157 60.062 63.0506 57.1395 66.694 57.1395C70.3374 57.1395 73.2723 60.062 73.2723 63.6899C73.2723 67.3178 70.3374 70.2403 66.694 70.2403M66.694 59.155C64.1639 59.155 62.1398 61.1705 62.1398 63.6899C62.1398 66.2093 64.1639 68.2248 66.694 68.2248C69.2241 68.2248 71.2482 66.2093 71.2482 63.6899C71.2482 61.1705 69.2241 59.155 66.694 59.155"/>
</svg>
