<?xml version="1.0" encoding="utf-8" ?>
<svg xmlns="http://www.w3.org/2000/svg" xmlns:xlink="http://www.w3.org/1999/xlink" width="110" height="116">
	<path fill="white" d="M108.369 16.904C107.468 14.6771 106.067 12.6527 104.265 10.7295C99.9604 5.97208 93.854 2.93543 87.5473 2.42932C86.9467 2.3281 86.3461 2.3281 85.7454 2.3281C83.2428 2.3281 81.1406 2.83421 79.3387 3.84642C78.1374 4.55497 77.1364 5.46597 76.3355 6.57941C75.0341 4.45375 72.6316 0.60733 68.5273 0C68.227 0 67.9266 0 67.6263 0C66.5252 0 65.424 0.202443 64.7233 0.506108C63.8223 0.809773 61.1195 1.51832 59.718 4.04887C58.7169 5.76963 58.6168 7.99651 59.4177 10.3246C59.718 11.2356 60.1184 12.0454 60.5188 12.7539C60.719 13.1588 60.9192 13.5637 61.1195 13.9686C61.8202 15.5881 62.1205 17.4101 62.4208 19.4346C62.5209 20.0419 62.621 20.7504 62.7211 21.3578C62.8212 22.2688 63.0215 23.0785 63.2217 23.9895C55 39.3752 51.9097 61.2391 50.8086 72.3735L46.9045 72.3735C46.1036 67.0087 44.4018 61.8464 41.5989 56.9878C42.3997 55.6719 43.0003 54.2548 43.601 52.534C44.0014 51.4206 44.4018 50.2059 44.4018 48.6876C44.5019 47.6754 44.4018 46.6632 44.1015 45.4485C43.5009 42.3106 42.1995 39.6789 40.2975 37.6545C38.1953 35.4276 35.4924 34.2129 32.6894 34.2129C32.3891 34.2129 31.9887 34.2129 31.6884 34.3141C30.7874 34.4154 29.8865 34.6178 29.1857 35.0227C27.9845 35.63 27.0835 36.541 26.3828 37.452C26.2827 37.1483 26.0825 36.8447 25.9824 36.4398C25.5819 35.5288 25.1815 34.6178 24.3807 33.808C23.1794 32.4921 21.6778 31.8848 20.6768 31.5812C19.4755 31.1763 18.2742 30.9738 17.1731 30.8726C16.8728 30.8726 16.6725 30.8726 16.3722 30.8726C13.5693 30.8726 10.7663 31.8848 8.36377 33.7068C6.16145 35.3264 4.35955 37.6545 2.85796 40.4887C-0.645737 47.1693 -0.946054 55.0646 2.05712 61.1379C2.55764 62.1501 3.15828 63.1623 3.65881 63.8709C5.06029 65.9965 6.96229 68.6283 9.86536 70.349C10.5661 70.7539 11.3669 71.0576 11.9676 71.3613C12.6683 71.6649 13.2689 71.9686 13.7695 72.2723C14.3701 72.6771 14.6704 73.082 14.6704 73.2845L20.5767 74.6003C20.9771 72.6771 22.0782 70.9564 23.5798 69.7417C23.9803 69.438 24.3807 69.1344 24.8812 68.8307C25.5819 68.4258 26.2827 67.9197 26.9834 67.3124C27.6842 66.7051 28.3849 65.9965 28.9855 65.3892C29.8865 64.4782 30.6873 63.5672 31.3881 63.3647C31.5883 63.3647 31.7885 63.3647 32.0888 63.2635C32.3891 63.2635 32.6894 63.2635 32.9898 63.1623C33.6905 63.0611 34.4913 62.9599 35.1921 62.6562C36.8939 65.9965 37.995 69.3368 38.5957 72.3735L28.0846 72.3735C25.2816 72.3735 23.0793 74.7016 23.0793 77.4346C23.0793 80.1675 24.8812 82.2932 27.3838 82.6981L29.8865 107.295C30.387 112.255 34.3912 116 39.1963 116L63.0215 116C67.8265 116 71.8308 112.255 72.3313 107.295L74.8339 82.6981C77.2365 82.2932 79.1385 80.1675 79.1385 77.637C79.1385 75.4101 77.9372 73.6894 76.2354 72.7784C77.4367 73.082 78.5378 73.2845 79.7391 73.2845C80.3397 73.2845 80.6401 73.2845 80.9404 73.1832C81.2407 73.1832 81.4409 73.1832 81.7412 73.1832C81.8413 73.1832 81.9414 73.1832 82.0415 73.1832C82.0415 73.1832 82.1416 73.1832 82.1416 73.2845C82.6422 73.6894 82.6422 73.8918 82.7423 73.993C82.7423 74.0942 82.7423 74.1955 82.7423 74.2967L81.2407 80.7749L87.0468 77.637C88.9488 76.6248 90.9509 75.6126 92.7528 74.0942C92.8529 73.993 92.9531 73.8918 93.1533 73.7906L95.0553 71.8674L97.2576 69.5393C97.0574 68.9319 97.2576 68.4258 97.4578 67.9197C97.5579 67.6161 97.658 67.4136 97.7581 67.1099L98.1585 65.8953L98.2587 64.8831C98.9594 59.6195 96.5569 54.8621 93.3535 50.5096L96.657 50.4084C96.657 49.6998 96.5569 47.3717 97.2576 46.2583C97.5579 45.7522 98.2587 45.2461 99.0595 44.74C100.761 43.4241 101.963 42.5131 102.964 41.3997C102.964 41.3997 108.469 33.2007 108.77 32.3909C110.472 27.3298 110.472 21.6614 108.369 16.904M67.8265 43.4241C67.0257 42.918 66.2248 42.6143 65.424 42.3106C66.1247 39.8813 66.9256 37.5532 67.7264 35.3264C68.4272 36.6422 69.4282 38.1606 70.8297 39.5777L67.8265 43.4241M71.4303 40.185C71.4303 40.0838 71.4303 40.0838 71.4303 40.185M67.0257 67.3124C68.3271 68.5271 69.6284 69.5393 71.13 70.4503C72.4314 71.26 73.6327 71.8674 74.934 72.3735C74.6337 72.2723 74.3334 72.2723 74.0331 72.2723L66.2248 72.2723C66.2248 70.8551 66.5252 69.2356 67.0257 67.3124"/>
	<path fill="#6CAB81" d="M53.211 79.1553C53.211 79.1553 55.2131 24.9005 77.4366 11.6405L78.7379 13.6649C78.7379 13.6649 59.6177 21.5602 56.5144 79.3577L53.211 79.1553"/>
	<path fill="#2D1B0A" d="M57.4155 80.4712L52.1099 80.0663L52.1099 79.0541C52.21 76.8272 54.3122 24.0908 76.836 10.7295L80.1395 14.0698L79.0383 14.5759C78.8381 14.6772 60.5188 23.1798 57.4155 79.3578L57.4155 80.4712M54.3122 78.2443L55.6136 78.3456C58.5167 28.5445 73.2322 15.8918 77.4366 13.3613C58.0161 25.7103 54.7127 70.9564 54.3122 78.2443"/>
	<path fill="#478E55" d="M41.229 45.6509C40.7285 43.3228 39.8274 41.0959 38.2258 39.3752C36.6241 37.6544 34.3217 36.6422 32.1194 36.9459C31.6188 37.0471 31.1182 37.1483 30.6178 37.3507C28.9159 38.1605 28.1151 40.2862 27.6146 42.2094C27.4143 43.0191 27.0139 44.6387 26.0129 43.9301C25.3121 43.424 25.212 41.8045 24.9117 40.9947C24.4112 39.7801 23.9106 38.4642 23.4101 37.2495C23.1098 36.541 22.8095 35.9336 22.309 35.4275C21.7083 34.719 20.7073 34.3141 19.8063 34.0104C18.9054 33.7068 18.0044 33.5043 17.0035 33.3751C14.6009 33.2007 12.1983 34.1116 10.1962 35.63C8.1941 37.1483 6.69252 39.1727 5.49125 41.3996C2.68829 46.8656 1.98755 53.7486 4.79051 59.2146C5.19093 60.0244 5.69146 60.8342 6.19199 61.6439C7.59347 63.7696 9.19516 65.8952 11.2974 67.1099C12.5988 67.8185 14.0002 68.3246 15.3017 69.1343C16.6029 69.9441 17.604 71.3612 17.504 72.8795C18.0044 70.6527 19.4059 68.3246 21.5082 66.705C22.6094 65.8952 23.8105 65.2879 24.8116 64.3769C26.7136 62.7574 28.1151 60.2268 30.5176 59.7207C31.1182 59.6195 31.7189 59.6195 32.3195 59.6195C34.3217 59.4171 36.2236 58.2024 37.6251 56.5829C39.0266 54.9633 39.9275 53.0401 40.6283 50.9144C40.9286 49.9022 41.229 48.9912 41.329 47.979C41.4291 47.2705 41.329 46.4607 41.229 45.6509M10.7969 42.9179C12.3985 42.8167 14.0002 42.7155 15.4018 43.5253C15.5019 43.5253 15.5019 43.6265 15.602 43.7277C15.7021 43.9301 15.5019 44.0314 15.4018 44.1326C14.6009 44.8411 13.4998 44.9424 12.3985 44.9424C11.6978 44.9424 9.39537 45.3473 9.09506 44.5375C8.69463 43.6265 10.1962 42.9179 10.7969 42.9179M19.4059 49.2949C17.7041 50.2059 15.8021 50.4083 14.0002 51.0157C11.3975 51.9267 9.19516 53.8499 6.99284 55.6719C6.19199 56.3804 5.39115 57.1902 4.49019 57.7975C3.00615 55.8743 7.89379 53.2425 9.09506 52.3315C11.5977 50.5096 14.3006 48.9912 17.3037 48.3839C18.0044 48.2827 18.8053 48.1815 19.4059 48.5863C19.6061 48.6876 19.7062 48.89 19.7062 49.0925C19.7062 49.0925 19.5061 49.1937 19.4059 49.2949M30.8179 57.3926C30.7178 58.1012 30.3174 58.8097 29.7168 58.911C29.016 59.0122 28.4154 58.3036 28.015 57.5951C27.3142 56.2792 25.0118 52.3315 26.0129 50.9144C27.2141 48.9912 29.7168 52.6352 30.3174 53.6474C30.7178 54.8621 31.0181 56.178 30.8179 57.3926"/>
	<path fill="#2D1B0A" d="M17.9825 73.4869L16.9809 73.2845C17.1812 71.4625 16.0794 70.2478 15.0778 69.6405C14.3767 69.2356 13.6756 68.932 12.9744 68.5271C12.3735 68.2234 11.6723 67.9197 11.0714 67.6161C8.76764 66.199 7.06489 63.9721 5.76279 61.9477C5.36214 61.2391 4.76117 60.4293 4.36052 59.5183C1.65616 54.1536 1.95664 47.1693 5.06166 41.1972C6.36376 38.6667 8.0665 36.6423 9.86941 35.2252C12.073 33.6056 14.577 32.8886 16.9809 32.8886C17.8823 32.9983 18.884 33.2007 19.8856 33.5044C20.6869 33.808 21.7887 34.2129 22.5899 35.1239C23.0908 35.7313 23.3912 36.4398 23.7919 37.1484C24.2927 38.363 24.7935 39.6789 25.2943 40.8936C25.3945 41.096 25.4946 41.5009 25.4946 41.8046C25.5948 42.4119 25.7951 43.3229 26.1958 43.5253C26.2959 43.5253 26.3961 43.6265 26.3961 43.6265C26.4962 43.6265 26.7967 43.3229 27.0972 42.1082C27.6982 39.3752 28.8 37.6545 30.3024 36.8447C30.8032 36.6423 31.304 36.4398 32.0051 36.3386C34.3089 36.0349 36.7127 37.0471 38.5156 38.9703C40.0181 40.5899 41.1198 42.8168 41.6207 45.4485C41.8603 46.4608 41.9211 47.2705 41.8603 48.0803C41.7208 49.1937 41.4203 50.3072 41.1198 51.2182C40.2184 53.7487 39.3169 55.5707 38.0148 56.9878C36.4123 58.8098 34.409 59.9232 32.4058 60.1257C32.2055 60.1257 31.905 60.1257 31.7047 60.1257C31.304 60.1257 31.0035 60.1257 30.6029 60.2269C29.1005 60.5306 27.9987 61.7452 26.7967 62.9599C26.1958 63.5672 25.695 64.1745 25.094 64.6806C24.493 65.1868 23.892 65.5916 23.2911 65.9965C22.7903 66.3002 22.2895 66.6039 21.7887 67.0087C19.9857 68.7295 18.4833 70.9564 17.9825 73.4869M4.76117 58.2025C4.86133 58.5061 5.06166 58.8098 5.16182 59.1135C5.56246 60.0245 6.16343 60.8342 6.56408 61.4416C7.86618 63.3648 9.36861 65.4904 11.5722 66.8063C12.1731 67.11 12.6739 67.4136 13.3751 67.7173C14.1764 68.021 14.8775 68.4258 15.5786 68.8307C16.3799 69.3368 17.1812 70.1466 17.682 71.1588C18.4833 69.3368 19.6853 67.6161 21.2878 66.4014C21.7887 65.9965 22.2895 65.6929 22.7903 65.288C23.3912 64.8831 23.9922 64.4782 24.493 64.0733C25.094 63.5672 25.5948 62.9599 26.1958 62.4538C27.3977 61.1379 28.6998 59.7208 30.5027 59.4171C30.9034 59.3159 31.304 59.3159 31.7047 59.3159C31.905 59.3159 32.1053 59.3159 32.4058 59.3159C34.2087 59.1135 35.9114 58.1012 37.4139 56.4817C38.6158 55.1658 39.5173 53.3438 40.3186 51.0157C40.619 50.206 40.9195 49.1937 40.9195 48.1815C40.9195 47.473 40.9195 46.7644 40.7192 45.8534C40.2184 43.4241 39.2168 41.2985 37.8145 39.8813C36.2119 38.1606 34.1085 37.3508 32.1053 37.5532C31.6045 37.6545 31.1037 37.7557 30.8032 37.9581C29.5011 38.5655 28.6998 40.0838 28.0988 42.5131C27.8985 43.4241 27.598 44.4363 26.7967 44.74C26.4962 44.8412 26.0956 44.9424 25.5948 44.5375C24.8937 44.1327 24.6933 43.1204 24.493 42.2094C24.3929 41.9058 24.3929 41.6021 24.2927 41.3997C23.7919 40.185 23.2911 38.9703 22.7903 37.7557C22.4898 37.1484 22.1883 36.541 21.7887 36.0349C21.1877 35.3264 20.2862 35.0227 19.5851 34.719C18.5835 34.4154 17.7822 34.2129 16.9809 34.2129C14.7773 34.1117 12.4736 34.8203 10.4704 36.3386C8.66747 37.6545 7.16505 39.5777 5.96311 41.9058C3.55923 46.4608 2.95826 51.7243 4.06004 56.178C4.76117 54.8621 6.46392 53.6475 8.16667 52.5341C8.46715 52.3316 8.66747 52.2304 8.8678 52.1292C10.871 50.7121 13.7757 48.7889 17.2814 48.0803C18.0827 47.8779 18.9841 47.7766 19.7854 48.384C20.1861 48.6876 20.3864 48.9913 20.2862 49.3962C20.1861 49.8011 19.8856 50.0035 19.7854 50.0035C18.6836 50.6108 17.4817 50.9145 16.3799 51.2182C15.6788 51.4206 15.0778 51.5218 14.3767 51.7243C11.7725 52.6353 9.66909 54.4573 7.5657 56.2793C7.36537 56.4817 7.06489 56.6841 6.86457 56.8866C6.06327 57.089 5.4623 57.6964 4.76117 58.2025M18.1828 48.6876C17.8823 48.6876 17.5819 48.6876 17.3815 48.7889C14.1764 49.4974 11.2717 51.3194 9.36861 52.6353C9.16828 52.7365 8.96796 52.9389 8.66747 53.1414C7.46553 53.9512 4.96149 55.5707 4.76117 56.7854C4.76117 56.7854 4.76117 56.8866 4.76117 56.8866C5.16182 56.5829 5.56246 56.178 5.96311 55.8744C6.16343 55.6719 6.46392 55.4695 6.66424 55.267C8.76764 53.5463 11.0714 51.5218 13.7757 50.5096C14.4769 50.3072 15.178 50.1047 15.8791 49.9023C16.9809 49.5986 18.0827 49.3962 18.9841 48.8901C18.7838 48.7889 18.4833 48.6876 18.1828 48.6876M29.5011 59.5183C29.0003 59.5183 28.199 59.2147 27.4979 58C25.8953 55.0646 24.493 52.1292 25.4946 50.7121C25.8953 50.0035 26.4962 49.9023 26.8969 49.9023C28.8 50.0035 30.6029 53.445 30.6029 53.445C31.2038 54.7609 31.5043 56.178 31.304 57.3927C31.2038 58.2025 30.703 59.2147 29.7014 59.3159C29.6013 59.5183 29.6013 59.5183 29.5011 59.5183M26.7967 51.0157C26.6966 51.0157 26.4962 51.0157 26.2959 51.3194C25.7951 52.0279 26.4962 54.0524 28.2992 57.2915C28.5996 57.7976 29.1005 58.6073 29.6013 58.5061C30.0019 58.4049 30.2022 57.8988 30.3024 57.3927C30.5027 56.3805 30.3024 55.1658 29.7014 54.0524C29.2006 53.0402 27.6982 51.0157 26.7967 51.0157M10.5705 45.5498C9.66909 45.5498 8.8678 45.3473 8.56731 44.74C8.46715 44.3351 8.46715 43.9302 8.66747 43.5253C9.06812 42.8168 10.1699 42.4119 10.6707 42.4119C12.1731 42.3107 13.976 42.2094 15.5786 43.1204C15.6788 43.1204 15.8791 43.3229 15.9793 43.5253C16.1796 43.829 15.9793 44.2339 15.6788 44.5375C14.6772 45.3473 13.4752 45.4485 12.3735 45.4485C12.2733 45.4485 12.073 45.4485 11.8727 45.4485C11.472 45.5498 10.9712 45.5498 10.5705 45.5498M12.3735 43.3229C11.8727 43.3229 11.2717 43.3229 10.871 43.4241C10.5705 43.4241 9.86941 43.7278 9.56893 44.1327C9.46877 44.2339 9.46877 44.3351 9.56893 44.4363C9.66909 44.5375 10.0697 44.74 11.8727 44.5375C12.073 44.5375 12.2733 44.5375 12.3735 44.5375C13.2749 44.5375 14.1764 44.4363 14.9777 43.9302C14.0762 43.4241 13.1747 43.3229 12.3735 43.3229"/>
	<path fill="#478E55" d="M92.2523 28.5445C92.7529 29.4555 92.9531 30.6701 93.7539 31.3787C94.0542 31.6824 94.5548 31.986 94.5548 32.4921C93.9541 32.2897 93.4536 31.8848 92.9531 31.4799C92.1522 30.7714 89.149 28.5445 89.3397 27.3298C89.5495 25.609 91.8519 27.9371 92.2523 28.5445"/>
	<path fill="#2D1B0A" d="M94.9489 33.0927C93.6475 32.6879 93.0469 32.1818 92.5463 31.7769C90.5442 30.0561 88.6422 28.4366 88.8279 27.2219C88.9425 26.4121 89.4431 26.194 89.6433 26.194C90.8446 26.0072 92.4462 27.8292 92.7466 28.3353C92.9468 28.7402 93.147 29.0439 93.2471 29.4488C93.4473 30.0561 93.7476 30.6634 94.148 30.9671C94.2482 31.0683 94.2482 31.0683 94.3483 31.1695C94.6486 31.4732 95.1491 31.8781 95.1491 32.4854M89.8435 27.2219C89.8435 27.2219 89.8435 27.3231 89.8435 27.4243C89.8435 27.728 90.2439 28.5378 92.6465 30.5622C92.5463 30.3598 92.4462 30.0561 92.3461 29.8537C92.246 29.4488 92.0458 29.1451 91.9457 28.8414C91.4452 28.2341 90.1438 27.1207 89.8435 27.2219"/>
	<path fill="#20A032" d="M105.464 17.815C104.563 15.7906 103.362 14.0698 101.96 12.4503C98.0563 8.19897 92.7507 5.56721 87.2449 5.0611C85.0425 4.85866 82.7401 5.0611 80.738 6.17454C78.836 7.28798 77.3344 9.51485 77.5346 11.7417C77.8349 11.8429 77.935 12.2478 77.7348 12.5515C77.5346 12.8552 77.1342 12.8552 76.8339 12.6527C76.5336 12.4503 76.3333 12.1466 76.1331 11.8429C75.3323 10.5271 74.5314 9.21119 73.8307 7.99653C72.4292 5.66843 70.7274 3.13789 68.1247 2.8073C67.2237 2.8073 66.3228 2.93544 65.4218 3.13789C64.2206 3.44155 62.9192 4.04888 62.2184 5.26354C61.6178 6.37698 61.793 7.79408 62.1183 9.00874C62.5188 10.2234 63.2195 11.3368 63.72 12.4503C64.8212 14.9808 65.0214 17.815 65.5219 20.548C66.3228 25.0018 67.7243 29.2531 69.9266 33.2007C70.8275 34.719 71.7285 36.2374 73.0299 37.452C75.7327 39.9826 79.5367 40.6911 83.1405 40.9948C86.0436 41.2984 89.247 41.5009 91.2491 43.7278C92.7507 45.4485 93.1511 47.9791 93.2512 50.4084C93.1511 48.384 93.3513 46.1571 94.3524 44.5375C95.1532 43.4241 96.3545 42.6143 97.4556 41.8046C100.159 39.8813 102.561 37.3508 104.263 34.3142C103.762 31.9861 101.96 30.1641 100.058 28.747C98.5568 27.5323 96.9551 26.5201 95.2533 25.5079C94.1522 24.9005 93.051 24.2932 92.3503 23.1798C91.5494 21.8639 91.7496 20.1431 93.3513 20.548C94.6527 20.8517 96.1543 21.7627 97.2554 22.5724C99.658 24.2932 101.76 26.5201 103.162 29.2531C103.862 30.569 104.363 31.8848 104.563 33.4032C104.964 32.6946 105.264 31.9861 105.464 31.2775C107.166 26.925 107.266 21.9651 105.464 17.815M66.4229 13.7662C65.622 13.5637 65.1215 12.7539 65.8223 11.8429C67.2237 10.2234 70.9276 11.3368 72.3291 12.3491C72.6294 12.5515 72.9298 12.8552 72.7295 13.1588C72.1289 13.2601 71.5283 13.2601 70.9276 13.2601C69.6263 13.5637 67.7243 14.0698 66.4229 13.7662M74.2311 19.9407C73.7306 20.548 73.3302 21.2566 73.0299 21.9651C72.3291 23.281 71.7285 24.7993 71.3281 26.2164C71.0277 27.2286 70.9276 28.2409 70.327 29.0506C69.9266 28.1396 69.326 27.3299 68.8254 26.4189C68.3249 25.5079 67.9245 24.4957 68.1247 23.5847C68.2248 22.6737 68.8254 21.8639 69.326 21.1553C69.6263 20.6492 70.0267 20.1431 70.4271 19.7382C70.9276 19.2321 75.6326 15.8918 75.3323 18.5236C75.2322 19.1309 74.4313 19.637 74.2311 19.9407M79.7369 26.014C78.9361 30.3665 78.836 34.9215 79.2364 39.274C78.3355 39.0716 78.0351 37.8569 77.935 36.8447C77.5346 34.4154 76.7338 32.1885 76.5336 29.7592C76.4335 28.2409 76.6337 26.5201 77.3344 25.103C77.935 23.8883 79.7369 22.5724 79.9372 24.9005C79.9372 25.3054 79.837 25.7103 79.7369 26.014M99.1574 19.3334C98.2565 19.0297 97.4556 18.4224 96.5547 18.1187C95.6537 17.7138 94.6527 17.6126 93.7517 17.2077C92.2501 16.6004 90.9488 15.082 89.3471 14.8796C90.0478 14.7784 90.6485 14.8796 91.3492 14.9808C94.6527 15.4869 97.9562 16.2967 101.16 17.5114C102.361 18.0175 103.662 18.6248 104.063 19.9407C102.561 19.2321 100.759 19.8395 99.1574 19.3334"/>
	<path fill="#2D1B0A" d="M92.7456 50.3409C92.6454 47.4054 92.0445 45.381 90.8426 43.9639C89.0398 41.9395 86.1353 41.6358 83.2308 41.3321C79.525 41.0285 75.5188 40.3199 72.6143 37.6882C71.112 36.3723 70.1104 34.6515 69.4093 33.3356C67.2059 29.388 65.7036 25.0355 65.0025 20.4805C64.9023 19.8731 64.8022 19.2658 64.702 18.5573C64.4015 16.5328 64.1011 14.4072 63.2998 12.484C63.0995 11.9779 62.8992 11.573 62.5987 11.0669C62.2983 10.3583 61.8976 9.75099 61.5972 8.94121C61.2268 8.03022 60.8961 6.30945 61.6973 4.79112C62.4986 3.37402 64.1011 2.76669 65.2028 2.46303C66.004 2.26058 67.0056 1.95692 68.1073 2.0926C70.9117 2.46303 72.7145 5.09479 74.2168 7.52411L76.5204 11.3705C76.6205 11.573 76.8208 11.8766 77.0211 11.9779C77.1213 12.0791 77.2215 12.0791 77.3216 11.9779C76.8208 9.24488 78.223 6.81556 80.4264 5.49968C82.2292 4.48746 84.4327 4.08257 87.237 4.38624C92.8457 4.89235 98.3543 7.62533 102.361 11.9779C103.963 13.6986 105.165 15.5206 105.966 17.4438C107.769 21.5939 107.769 26.655 106.166 31.21C105.866 31.9185 105.565 32.7283 105.165 33.4368L104.464 34.854C102.861 37.4857 100.558 39.915 97.8535 41.9395C96.3512 42.9517 95.5499 43.559 94.949 44.47C93.9475 46.0896 93.8473 48.3164 93.8473 50.0372L92.7456 50.3409M79.8255 39.915C80.9272 40.1175 82.1291 40.3199 83.2308 40.4211C86.3356 40.7248 89.6408 41.0285 91.6439 43.3566C92.345 44.0651 92.8457 44.9761 93.1462 46.0896C93.3465 45.381 93.647 44.7737 93.9475 44.1663C94.6485 43.0529 95.6501 42.3444 96.6517 41.6358C99.8566 39.4089 102.06 36.9796 103.663 34.1454C103.062 31.9185 101.159 30.1978 99.6563 29.0843C98.154 27.9709 96.5515 26.8574 94.949 25.9464C93.647 25.2379 92.5453 24.6306 91.8442 23.5171C91.2433 22.5049 91.1431 21.3915 91.6439 20.6829C91.8442 20.3793 92.345 19.8731 93.4467 20.1768C94.8489 20.4805 96.251 21.3915 97.5531 22.3025C100.057 24.0232 102.26 26.4526 103.663 29.1855C104.163 30.0965 104.564 31.0075 104.764 31.9185C104.864 31.6149 104.965 31.4124 105.065 31.21C106.667 26.8574 106.567 22.1 104.965 18.1524C104.163 16.3304 103.062 14.6096 101.459 12.8889C97.6532 8.73877 92.4451 6.10701 87.0367 5.70212C84.4327 5.49968 82.4296 5.80334 80.8271 6.71434C79.0243 7.72655 77.8224 9.75099 77.8224 11.573C77.9225 11.6742 78.0227 11.8766 78.0227 11.9779C78.1229 12.2815 78.0227 12.6864 77.8224 12.8889C77.4218 13.2937 76.8208 13.395 76.2199 13.0913C75.8193 12.8889 75.619 12.484 75.4187 12.1803L73.1151 8.33388C71.8131 6.10701 70.1104 3.67769 67.8068 3.37402C66.9054 3.2728 66.1042 3.47524 65.3029 3.67769C64.4015 3.98135 62.9994 4.38624 62.3984 5.49968C61.8976 6.30945 61.8976 7.52411 62.3984 8.83999C62.5987 9.54854 62.9994 10.1559 63.2998 10.8644C63.5001 11.3705 63.8006 11.7754 64.0009 12.2815C64.9023 14.306 65.2028 16.5328 65.5033 18.6585C65.6034 19.2658 65.7036 19.8731 65.8037 20.4805C66.5048 24.9342 68.0071 29.0843 70.1104 32.9307C70.8115 34.2466 71.8131 35.8662 73.1151 37.0808C74.6174 38.4979 76.5204 39.3077 78.4233 39.8138C77.5219 39.3077 77.3216 37.8906 77.1213 37.182C76.921 36.1698 76.7207 35.1576 76.5204 34.2466C76.2199 32.9307 75.8193 31.5136 75.7191 30.0965C75.619 28.7807 75.7191 26.9587 76.5204 25.2379C76.921 24.4281 77.9225 23.3147 78.9241 23.5171C79.3247 23.6184 79.9257 24.0232 80.0258 25.2379C80.0258 25.6428 80.0258 26.0477 79.9257 26.3513C79.1244 30.7039 79.0243 35.1576 79.4249 39.5101M79.0243 24.2257C78.7238 24.2257 78.1229 24.7318 77.7222 25.4403C77.0211 26.9587 76.921 28.6794 77.0211 29.7929C77.1213 31.1088 77.4218 32.5259 77.8224 33.8417C78.0227 34.854 78.3232 35.8662 78.4233 36.8784C78.5235 37.182 78.5235 37.5869 78.6236 37.8906C78.4233 33.943 78.6236 29.9953 79.3247 26.0477C79.4249 25.744 79.4249 25.4403 79.4249 25.1367C79.3247 24.5293 79.1244 24.2257 79.0243 24.2257M92.9459 20.9866C92.7456 20.9866 92.6454 21.0878 92.5453 21.189C92.345 21.4927 92.345 22.2012 92.7456 22.9098C93.3465 23.8208 94.2479 24.3269 95.2495 24.9342C97.1524 25.9464 98.7549 27.0599 100.257 28.2745C101.359 29.1855 102.861 30.4002 103.763 32.0197C103.562 31.21 103.162 30.4002 102.761 29.4892C101.359 26.8574 99.3559 24.6306 96.9521 23.011C96.0507 22.4037 94.5484 21.3915 93.2464 21.0878C93.1462 20.9866 93.0461 20.9866 92.9459 20.9866M70.2106 30.1978C69.6096 28.7807 69.209 28.2745 68.9085 27.6672C68.7082 27.3636 68.5079 27.0599 68.3076 26.655C67.6065 25.4403 67.4062 24.4281 67.5064 23.4159C67.6065 22.4037 68.3076 21.4927 68.7082 20.7841C69.0087 20.278 69.4093 19.7719 69.9101 19.2658C70.1104 19.0634 73.5157 16.3304 75.018 17.0389C75.3185 17.1402 75.7191 17.5451 75.619 18.456C75.5188 18.9622 75.1182 19.367 74.8177 19.6707C74.7176 19.7719 74.6174 19.8731 74.5173 19.9744C74.1166 20.5817 73.716 21.189 73.3154 21.8976C72.6143 23.2135 72.1135 24.6306 71.7129 26.0477C71.4124 27.3636 71.2121 28.2745 70.7113 29.0843L70.2106 30.1978M74.4171 18.1524C73.5157 18.1524 71.112 19.6707 70.6112 20.1768C70.2106 20.5817 69.9101 21.0878 69.6096 21.4927C69.209 22.1 68.6081 22.9098 68.5079 23.7196C68.4078 24.4281 68.6081 25.3391 69.209 26.2167C69.4093 26.5538 69.6096 26.8574 69.8099 27.1611C70.0102 27.4648 70.1104 27.6672 70.3107 27.9709C70.511 27.566 70.6112 27.0599 70.7113 26.655C71.2121 24.6306 71.8131 23.1122 72.5141 21.7964C72.9148 21.0878 73.3154 20.278 73.8162 19.6707C73.9163 19.5695 74.1166 19.367 74.2168 19.2658C74.4171 19.0634 74.7176 18.7597 74.7176 18.6585C74.7176 18.456 74.7176 18.2536 74.6174 18.2536C74.6174 18.1524 74.5173 18.1524 74.4171 18.1524M104.864 20.9866L103.763 20.4805C103.062 20.0756 102.16 20.0756 101.259 20.0756C100.558 20.0756 99.7565 20.0756 98.9552 19.8731C98.3543 19.6707 97.8535 19.4683 97.3527 19.1646C96.9521 18.9622 96.6517 18.7597 96.3512 18.6585C95.9506 18.456 95.4498 18.3548 95.0492 18.2536C94.5484 18.1524 94.0476 17.9499 93.5468 17.7475C92.8457 17.4438 92.2448 17.0389 91.744 16.6341C90.9428 16.0267 90.1415 15.5206 89.2401 15.4194L84.9334 14.7108L89.3403 14.4072C90.0414 14.306 90.8426 14.4072 91.4436 14.5084C94.8489 15.0145 98.154 15.8243 101.359 17.1402C102.661 17.6463 104.063 18.3548 104.564 19.8731L104.864 20.9866M101.559 19.0634C101.96 19.0634 102.361 19.0634 102.761 19.1646C102.26 18.6585 101.559 18.3548 100.858 18.1524C97.9537 17.0389 94.949 16.2292 91.9443 15.7231C92.0445 15.8243 92.1447 15.8243 92.1447 15.9255C92.7456 16.3304 93.2464 16.6341 93.8473 16.9377C94.2479 17.1402 94.7487 17.2414 95.2495 17.3426C95.7503 17.4438 96.251 17.5451 96.7518 17.7475C97.1524 17.9499 97.5531 18.1524 97.8535 18.3548C98.3543 18.6585 98.7549 18.8609 99.2557 18.9622C99.8566 19.1646 100.558 19.1646 101.259 19.1646C101.359 19.0634 101.459 19.0634 101.559 19.0634M67.306 14.4072C67.0056 14.4072 66.605 14.4072 66.3045 14.306C65.7036 14.2047 65.2028 13.6986 65.0025 13.1925C64.8022 12.6864 65.0025 12.0791 65.4031 11.573C67.0056 9.64976 71.0118 10.8644 72.5141 12.0791C73.1151 12.484 73.3154 12.9901 73.1151 13.4962C72.1135 13.9011 71.5126 13.9011 70.9117 13.9011C70.511 13.9011 70.0102 14.0023 69.5095 14.1035C68.8084 14.306 68.0071 14.4072 67.306 14.4072M68.0071 11.6742C67.2059 11.6742 66.605 11.8766 66.2043 12.2815C66.1042 12.484 65.9039 12.6864 66.004 12.8889C66.1042 13.0913 66.3045 13.2937 66.605 13.2937C67.4062 13.4962 68.5079 13.2937 69.5095 13.0913C70.0102 12.9901 70.511 12.8889 70.9117 12.8889C71.3123 12.8889 71.6127 12.7876 72.0134 12.7876C71.112 12.2815 69.4093 11.6742 68.0071 11.6742"/>
	<path fill="#64AF6D" d="M78.1776 13.4625L79.8392 16.7016C79.9393 16.904 80.3397 17.0052 80.5399 16.904C80.7402 16.8028 80.8403 16.4991 80.7402 16.1955L79.1385 12.9564C79.0384 12.7142 78.6379 12.7142 78.4377 12.7142C78.1776 12.9564 78.1776 13.26 78.1776 13.4625"/>
	<path fill="#2D1B0A" d="M80.3397 18.0174C80.2396 18.0174 80.0394 18.0174 79.9393 17.9162C79.5389 17.815 79.2386 17.5113 79.0384 17.2077L77.4367 13.9686C77.0363 13.26 77.2573 12.349 78.0373 11.9441C78.4377 11.7326 78.8382 11.7326 79.2386 11.8429C79.639 11.9441 79.9393 12.2478 80.1395 12.5515L81.7412 15.7906C82.1416 16.4991 81.8413 17.4101 81.1406 17.815C80.8403 18.0174 80.5399 18.0174 80.3397 18.0174"/>
	<path fill="#64AF6D" d="M82.0818 20.7504C82.8424 22.2688 83.4431 23.7871 84.1438 25.3054C84.2439 25.5078 84.6443 25.6091 84.8445 25.5078C85.0447 25.4066 85.1449 25.103 85.0447 24.7993C84.344 23.281 83.7434 21.7626 83.0426 20.2443C82.9425 20.0022 82.5421 20.0022 82.3419 20.0022C82.0818 20.2443 82.0818 20.548 82.0818 20.7504"/>
	<path fill="#2D1B0A" d="M84.5408 26.6213C84.3406 26.6213 84.2405 26.6213 84.0403 26.52C83.6399 26.4188 83.3396 26.1152 83.1393 25.7103L81.1372 21.1553C80.8369 20.4467 81.0021 19.5357 81.7379 19.2321C82.1383 19.0205 82.5387 19.0205 82.9391 19.1309C83.3396 19.2321 83.6399 19.5357 83.8401 19.9406L85.8422 24.4956C86.1425 25.2042 85.9423 26.1152 85.2416 26.4188C85.1414 26.52 84.8411 26.6213 84.5408 26.6213"/>
	<path fill="#64AF6D" d="M86.4462 31.0751L87.5473 34.6179C87.6475 34.9215 87.8477 35.0227 88.148 34.9215C88.4483 34.8203 88.5484 34.5166 88.4483 34.3142L87.3471 30.7714C87.247 30.4298 87.0468 30.4298 86.7465 30.4298C86.5463 30.569 86.4462 30.8726 86.4462 31.0751"/>
	<path fill="#2D1B0A" d="M88.0479 36.0349C87.4473 36.0349 86.8466 35.6301 86.6464 34.9215L85.4795 31.3787C85.4795 30.9739 85.4795 30.569 85.6454 30.2653C85.8456 29.8604 86.1459 29.658 86.5463 29.5052C87.3472 29.3543 88.148 29.7592 88.3482 30.569L89.4494 34.1117C89.5495 34.5166 89.5495 34.9215 89.3493 35.2252C89.1491 35.6301 88.8487 35.8325 88.4483 35.9337C88.3482 36.0349 88.148 36.0349 88.0479 36.0349"/>
	<path fill="#64AF6D" d="M24.8812 44.1327C23.9802 45.1449 23.2795 46.3595 22.9525 47.6754C22.9525 47.8779 23.0793 48.1815 23.2795 48.2827C23.5798 48.384 23.78 48.1815 23.8801 47.9791C24.1804 46.8656 24.7811 45.7522 25.5819 44.8412C25.7821 44.6388 25.7821 44.3351 25.5819 44.1327C25.4818 44.0158 25.0814 44.0158 24.8812 44.1327"/>
	<path fill="#2D1B0A" d="M23.4797 49.3962C23.3796 49.3962 23.2795 49.3962 23.1794 49.3962C22.779 49.295 22.4786 49.0925 22.2784 48.6876C22.0692 48.2827 22.0692 47.8779 22.1783 47.473C22.5787 46.0559 23.3796 44.74 24.2805 43.5253C24.5809 43.2217 24.8812 43.0192 25.2816 43.0192C25.682 43.0192 26.0824 43.1204 26.3828 43.4241C26.9834 44.0314 26.9834 44.8412 26.3828 45.5498C25.682 46.3595 25.1815 47.2705 24.8812 48.2827C24.681 48.9913 24.0803 49.3962 23.4797 49.3962"/>
	<path fill="#5C9B6F" d="M61.5198 45.8264C61.3196 45.8264 61.0193 45.9546 60.8926 46.157C60.8926 46.4607 61.0193 46.6631 61.2195 46.7643C61.2195 46.7643 61.3196 46.7643 61.3196 46.8656C61.2195 46.8656 61.3196 46.8656 61.3196 46.8656C61.4197 46.8656 61.4197 46.9668 61.5198 46.9668C61.72 47.068 61.8202 47.1692 62.0204 47.1692C62.1205 47.2705 62.3207 47.3717 62.4208 47.4729C62.5209 47.4729 62.5209 47.5741 62.621 47.5741C62.621 47.5741 62.7211 47.5741 62.7211 47.6753C63.2216 48.0802 63.7222 48.5863 64.0225 49.0924C64.2227 49.2949 64.4229 49.3961 64.7232 49.2949C64.9234 49.1937 65.0235 48.7888 64.9234 48.5863C64.1226 47.3717 62.9213 46.4607 61.5198 45.8264"/>
	<path fill="#2D1B0A" d="M64.523 50.4083C64.0225 50.4083 63.522 50.2059 63.2216 49.6998C62.9213 49.2949 62.5209 48.89 62.1205 48.4851C61.72 48.1814 61.6199 48.0802 61.5198 48.0802C61.4197 47.979 61.2195 47.979 61.1194 47.8778C60.9192 47.7766 60.9192 47.7766 60.8191 47.7766C59.9181 47.4729 59.5177 46.6631 59.6669 45.9546C59.818 45.5497 60.1184 45.1448 60.5188 45.0436C60.9192 44.8759 61.3196 44.8759 61.6199 44.8759C63.2216 45.5497 64.6231 46.6631 65.6242 48.0802C65.8244 48.3839 65.9245 48.7888 65.8244 49.1937C65.7243 49.5985 65.5241 50.0034 65.1236 50.2059C65.0235 50.4083 64.8233 50.4083 64.523 50.4083"/>
	<path fill="#5C9B6F" d="M65.8244 50.3686C65.6242 50.3686 65.3239 50.3686 65.0844 50.6108C65.0844 50.8132 65.0844 51.1169 65.3239 51.3193C65.424 51.4206 65.5241 51.5218 65.7243 51.5218C65.7243 51.5218 65.8244 51.623 65.7243 51.5218C65.7243 51.5218 65.8244 51.5218 65.8244 51.623C65.9245 51.623 65.9245 51.7242 66.0246 51.7242C66.2248 51.9267 66.4251 52.1291 66.6253 52.3316C66.6253 52.3316 66.7254 52.4328 66.6253 52.3316C66.6253 52.3316 66.7254 52.4328 66.7254 52.4328C66.7254 52.534 66.8255 52.534 66.8255 52.6352C66.9256 52.7364 66.9256 52.8377 67.0257 52.9389C67.1258 53.0401 67.1258 53.1413 67.2259 53.3438C67.2259 53.3438 67.2259 53.445 67.2259 53.445C67.2259 53.5462 67.2259 53.3438 67.2259 53.445C67.2259 53.5462 67.2259 53.5462 67.326 53.6474C67.4261 53.9511 67.6263 54.0523 67.9266 53.9511C68.1268 53.8499 68.3271 53.5462 68.227 53.3438C67.7264 52.1291 66.9256 51.1169 65.8244 50.3686"/>
	<path fill="#2D1B0A" d="M67.7264 54.9633C67.4261 54.9633 67.0257 54.8621 66.8255 54.6596C66.325 54.1534 66.325 54.0522 66.325 53.9509C66.1247 53.546 66.1247 53.4448 66.0246 53.3435C65.9245 53.2423 65.9245 53.141 65.8244 53.0398C65.5241 52.7361 65.424 52.5336 65.2238 52.4324C64.9235 52.2299 64.8234 52.2299 64.7233 52.1267C64.4229 51.9262 64.1226 51.5212 63.9832 51.1163C63.9832 50.7113 63.9832 50.3064 64.2227 50.0027C64.6232 49.2901 65.6242 49.0915 66.2249 49.4965C67.5262 50.3064 68.4272 51.5212 69.0278 52.9386C69.1279 53.3435 69.1279 53.7485 68.9277 54.1534C68.7275 54.5584 68.3271 54.7608 67.9266 54.8621C67.9266 54.9633 67.8265 54.9633 67.7264 54.9633M65.424 51.3188"/>
	<path fill="#5C9B6F" d="M69.0278 55.1891C68.9277 55.1891 68.8276 55.1891 68.6274 55.1891C68.5273 55.1891 68.4272 55.3662 68.252 55.4674C68.252 55.5687 68.252 55.7711 68.252 55.8723C68.252 55.9735 68.4272 56.176 68.5273 56.176C68.7275 56.2772 68.8276 56.3784 69.0278 56.4797C69.0278 56.4797 69.128 56.4797 69.128 56.5809C69.2281 56.6821 69.0278 56.4797 69.128 56.5809C69.2281 56.6821 69.2281 56.6821 69.3282 56.7833C69.4283 56.8845 69.4283 56.8845 69.5284 56.9858C69.5284 56.9858 69.4283 56.8845 69.5284 56.9858C69.5284 56.9858 69.6285 57.087 69.6285 57.087C69.7286 57.1882 69.8287 57.3906 69.9288 57.5931C69.9288 57.5931 69.9288 57.4919 69.8287 57.4919C69.8287 57.4919 69.8287 57.5931 69.9288 57.5931C70.0289 57.8968 70.2291 57.998 70.5294 57.8968C70.7297 57.7955 70.9299 57.4919 70.8298 57.2894C70.5294 56.3784 69.8287 55.5687 69.0278 55.1891"/>
	<path fill="#2D1B0A" d="M70.3292 58.911C69.7286 58.911 69.1279 58.5061 68.9277 57.8988C68.9277 57.7975 68.8276 57.6963 68.7275 57.5951C68.6274 57.4939 68.5273 57.3926 68.5273 57.3926C68.5273 57.3926 68.4272 57.2914 68.4272 57.2914C68.227 57.1902 68.1269 57.1902 68.0268 57.089C67.6264 56.8865 67.326 56.4816 67.1867 56.178C67.1867 55.7731 67.1867 55.267 67.4261 54.9633C67.6264 54.6597 67.9267 54.356 68.3271 54.2128C68.8276 54.2128 69.2281 54.2128 69.3281 54.356C70.4293 54.8621 71.2302 55.7731 71.6306 56.8865C71.7307 57.2914 71.7307 57.6963 71.5305 58.1012C71.3303 58.5061 70.9298 58.7085 70.5294 58.8097C70.6295 58.8097 70.4293 58.911 70.3292 58.911"/>
	<path fill="#5C9B6F" d="M73.3323 60.3281C73.3323 60.2269 73.2322 60.2269 73.1321 60.0244C73.1321 60.0244 73.032 60.0244 73.032 60.0244C72.9319 60.0244 72.7317 60.0244 72.6316 60.0244C72.5314 60.2269 72.4313 60.3281 72.4313 60.4293C72.4313 60.5305 72.4313 60.733 72.5314 60.8342C72.8318 61.2391 73.1321 61.7452 73.5325 62.1501C73.5325 62.2513 73.6326 62.2513 73.7327 62.3525C73.7327 62.3525 73.8328 62.3525 73.8328 62.4538C73.9329 62.4538 74.1331 62.4538 74.2332 62.3525C74.3334 62.2513 74.4335 62.1501 74.4335 62.0489C74.4335 61.9477 74.4335 61.7452 74.3334 61.644C74.033 61.2391 73.7327 60.8342 73.3323 60.3281"/>
	<path fill="white" d="M62.7212 112.559L38.896 112.559C35.6926 112.559 32.9897 110.028 32.5893 106.587L29.386 75.6127L51.6095 75.6127L72.1311 75.6127L68.9277 106.587C68.6273 110.028 65.9246 112.559 62.7212 112.559"/>
	<path fill="#2D1B0A" d="M62.7211 113.571L38.896 113.571C35.1921 113.571 31.9887 110.635 31.5883 106.688L28.2848 74.6004L73.2322 74.6004L69.9288 106.688C69.6284 110.635 66.4251 113.571 62.7211 113.571M30.5872 76.6248L33.5904 106.485C33.8907 109.421 36.1931 111.546 38.896 111.546L62.7211 111.546C65.424 111.546 67.7264 109.319 68.0267 106.485L71.0299 76.6248L30.5872 76.6248"/>
	<path fill="#6CAB81" d="M26.7832 44.1325C26.7832 44.1325 44.8023 56.2791 44.312 79.3577L42.3997 79.2565C42.3997 79.2565 42.1995 66.3 34.9919 56.5828C28.0846 47.2704 26.0825 44.9423 26.0825 44.9423"/>
	<path fill="#2D1B0A" d="M45.2027 80.37L41.2985 80.1676C41.2985 79.1554 40.9982 66.5027 34.0909 57.1903C27.2838 48.0803 25.1815 45.651 25.1815 45.651L26.4829 42.8168C27.3839 43.4241 45.6031 56.0768 45.1026 79.459M29.5862 47.7767C30.9877 49.5986 32.9898 52.2304 35.7927 55.9756C41.4988 63.6685 42.9002 73.2845 43.3007 77.3334C42.8001 62.3526 34.3913 52.3316 29.5862 47.7767"/>
	<path fill="#6CAB81" d="M68.7274 46.5621C68.7274 46.5621 61.72 55.6721 59.2174 78.4469L62.8212 78.7506C62.8212 78.7506 60.5188 71.3614 69.0278 50.5097L68.7274 46.5621"/>
	<path fill="#2D1B0A" d="M64.2227 79.9653L58.1162 79.4592L58.2164 78.447C60.719 55.6721 67.6263 46.4609 67.9266 46.056L69.5283 44.0316L70.129 50.8134C61.8202 71.0578 63.8223 78.447 63.8223 78.5482L64.2227 79.9653M60.3186 77.536L61.6199 77.6372C61.3196 74.6005 61.5198 66.4016 68.0267 50.4086C65.9245 53.7489 62.1205 62.5552 60.3186 77.536"/>
	<path fill="#6AC686" d="M60.7143 47.3717C60.7143 51.4206 62.1205 55.773 64.2228 59.1134C66.325 62.555 69.1279 65.4903 72.4314 67.5148C74.5336 68.8307 77.0362 69.9442 79.5389 69.8428C80.4398 69.8428 81.3409 69.6404 82.1416 69.8428C82.6423 69.9442 83.0426 70.1466 83.443 70.3491C83.3429 70.1466 83.1427 69.9442 83.0426 69.6404C81.4409 68.2234 80.1395 66.6039 79.0385 64.7819C78.8382 64.377 78.5378 63.972 78.3376 63.5672C78.2375 63.3647 78.0373 63.1623 78.0373 62.8587C77.9372 62.2513 78.5378 61.7452 79.1385 61.7452C79.7392 61.7452 80.2396 62.0489 80.64 62.555C81.1406 63.0611 81.4409 63.7696 81.8413 64.377C82.9426 66.3001 83.9436 68.3246 84.8445 70.4502C84.9446 70.6526 85.0447 70.9564 85.0447 71.26C85.0447 71.4624 84.8445 71.6648 84.6443 71.7662C84.9446 72.171 85.0447 72.6772 85.1449 73.1833C85.2449 73.6893 85.2449 74.2966 85.1449 74.8027C86.9467 73.7906 88.7486 72.8795 90.3503 71.5637C90.8508 71.1588 91.4515 70.6526 91.8519 70.1466C91.7518 70.1466 91.6517 70.0453 91.6517 70.0453C91.051 69.5393 90.7507 68.8307 90.3503 68.1221C88.8487 65.0854 86.9467 61.9477 83.8434 60.8342C83.2428 60.6318 82.5421 60.5305 82.0415 60.1256C81.4409 59.822 80.9404 59.2147 80.9404 58.5061C83.5432 58.1012 86.0458 59.9231 87.7477 62.0489C89.4493 64.1745 90.5506 66.8063 92.2523 68.9319C92.3524 69.0331 92.4525 69.1344 92.5527 69.2355C93.1534 68.4258 93.754 67.5148 94.1543 66.5025C94.2544 66.3001 94.3546 66.0976 94.3546 65.8952C91.5517 60.7329 86.5463 56.9878 80.9404 55.773C80.0394 55.5706 79.0385 55.3683 78.5378 54.5584C80.0394 54.0524 81.6411 54.2547 83.1427 54.6597C86.3461 55.5706 89.3492 57.4939 91.6517 60.1256C92.5527 61.1378 93.3535 62.1501 94.2544 63.1623C94.5547 63.466 94.7549 63.7696 94.8551 64.0732C95.6559 58.4049 91.7518 53.2425 88.3483 49.1937C86.4462 46.8656 84.344 44.5375 81.7412 43.1204C79.1385 41.7033 76.0352 40.9947 73.2322 42.2094C70.5294 43.3228 68.5273 46.5619 69.1279 49.5986C68.1269 46.9668 66.2249 45.246 63.6221 44.6387C63.0215 44.5375 62.3208 44.4363 61.7201 44.8412C61.0194 45.3473 60.7143 46.4607 60.7143 47.3717M80.2396 51.4206C79.4389 51.4206 78.6379 51.6231 77.9372 51.1169C78.2375 50.9145 78.6379 50.8132 79.0385 50.712C81.0406 50.2059 83.1427 50.2059 84.8445 51.4206C85.6453 51.9267 86.246 52.7365 86.9467 53.2425C87.4473 53.6474 88.148 53.8498 88.6485 54.2547C87.0468 54.0524 85.4451 53.3438 83.9436 52.7365C82.7423 52.1292 81.541 51.4206 80.2396 51.4206M77.3366 47.8778C77.1364 47.7766 77.1364 47.4729 77.2365 47.2705C77.3366 47.068 77.5368 46.9668 77.737 46.8656C78.2375 46.6631 78.8382 46.5619 79.4389 46.5619C80.4398 46.4607 81.4409 46.4607 82.442 46.5619C82.9426 46.6631 83.3429 46.7644 83.8434 46.7644C84.344 46.7644 84.8445 46.6631 85.345 46.7644C86.146 46.9668 86.8466 47.6754 85.9456 48.1815C85.1449 48.5863 83.5432 48.0802 82.7423 47.979C81.1406 47.7766 79.4389 47.7766 77.737 48.0802C77.737 47.8778 77.5368 47.979 77.3366 47.8778M72.3313 60.0244C72.2312 58.8098 72.1311 57.4939 72.7318 56.4817C72.8318 56.3805 72.9319 56.2792 73.0321 56.178C73.2322 56.0768 73.5325 56.178 73.6328 56.3805C73.7328 56.5829 73.8329 56.8866 73.933 57.089C74.4335 59.5182 74.8339 61.9477 75.3344 64.2757C75.5347 65.1868 75.7349 66.199 76.2355 66.9074C76.7359 67.6161 78.0373 68.9319 76.3355 68.7294C75.3344 68.6283 74.4335 67.7173 73.933 66.9074C73.2322 65.6928 72.9319 64.2757 72.7318 62.7574C72.5315 61.9477 72.4314 60.9353 72.3313 60.0244M67.4261 61.5428C66.6253 58.9109 67.4261 54.7608 68.5273 52.3316C68.6274 52.1292 68.7275 51.9267 68.9277 52.0279C68.5273 54.1535 68.227 56.3805 68.0268 58.5061C68.0268 58.9109 67.9267 59.3158 67.9267 59.7207C67.9267 60.2269 67.9267 61.0367 67.4261 61.5428"/>
	<path fill="#2D1B0A" d="M83.738 76.726L84.2387 74.6004C84.3389 74.1955 84.3389 73.7906 84.2387 73.3857C84.1386 72.9808 84.0385 72.6771 83.8382 72.2723L82.8367 71.26C82.5362 71.0576 82.2358 70.9564 81.9353 70.8552C81.4346 70.7539 80.9338 70.7539 80.3329 70.8552C80.0325 70.8552 79.8322 70.8552 79.5317 70.8552C77.1282 70.9564 74.6244 70.1466 71.9204 68.3246C68.5154 66.199 65.5109 63.1623 63.3076 59.5183C60.904 55.5707 59.5019 51.1169 59.6833 47.2705C59.8024 45.2461 60.6036 44.2339 61.2045 43.829C61.9055 43.4241 62.8069 43.3229 63.8083 43.5253C65.611 43.9302 67.1133 44.8412 68.315 46.1571C69.0161 44.0314 70.6185 42.1082 72.8218 41.1972C75.6259 39.9826 79.031 40.3874 82.2358 42.2094C85.0399 43.829 87.2432 46.3595 89.0459 48.5864C93.0519 53.3438 96.5571 58.6145 95.7559 64.2757L95.155 68.7295L94.7544 67.6161C94.454 68.3246 93.9532 69.0332 93.4525 69.7417L92.6513 70.7539C92.1505 71.26 91.5496 71.7662 91.0489 72.2723C89.3464 73.5881 87.4435 74.6004 85.6408 75.6126L83.738 76.726M86.2417 73.082C87.5437 72.3735 88.7455 71.6649 89.8471 70.7539C90.0474 70.5515 90.3478 70.349 90.5481 70.1466C90.1475 69.6405 89.8471 69.0332 89.6468 68.5271C88.3449 65.8953 86.5422 62.7574 83.738 61.7452C83.5377 61.644 83.3374 61.644 83.1371 61.5428C82.7365 61.4415 82.1356 61.2391 81.735 60.9354C80.7335 60.4293 80.1326 59.5183 80.1326 58.5061L81.034 57.4939C83.738 57.089 86.5422 58.6145 88.8456 61.4415C89.7469 62.555 90.5481 63.8709 91.2492 65.0855C91.7499 65.9965 92.2507 66.8063 92.8516 67.6161C93.152 67.2112 93.3523 66.7051 93.5526 66.3002C93.5526 66.199 93.5526 66.199 93.6528 66.0977C90.9487 61.3403 86.2417 57.8988 81.1341 56.8866C80.1326 56.6841 78.7305 56.3805 78.0295 55.267L77.3285 54.1536L78.5303 53.7487C80.0325 53.2426 81.6349 53.3438 83.738 53.8499C87.1431 54.8621 90.3478 56.8866 92.6513 59.7208C92.9517 60.0244 93.152 60.3281 93.4525 60.6318C93.6528 60.9354 93.8531 61.1379 94.1535 61.4415C93.8531 59.5183 93.152 57.6963 92.0504 55.7731L88.8456 55.267C87.0429 55.0646 85.3404 54.2548 83.9383 53.6475C82.4361 52.9389 81.5347 52.534 80.5332 52.534C80.3329 52.534 80.2328 52.534 80.0325 52.534C79.3314 52.534 78.4301 52.6353 77.6289 52.0279L76.5273 51.2182L77.6289 50.4084C78.1297 50.1047 78.6304 49.9023 79.031 49.8011C81.6349 49.1937 83.9383 49.4974 85.6408 50.6108C86.1416 50.9145 86.5422 51.3194 86.8426 51.7243C87.1431 52.0279 87.4435 52.3316 87.744 52.534C87.9443 52.6353 88.1446 52.8377 88.445 52.9389C88.7455 53.1414 89.1461 53.3438 89.4465 53.5463L91.5496 55.1658C90.448 53.445 89.1461 51.7243 87.744 50.1047C87.4435 49.8011 87.1431 49.3962 86.8426 49.0925C86.8426 49.0925 86.7425 49.0925 86.7425 49.1937C85.8411 49.6998 84.5392 49.3962 83.5377 49.1937C83.3374 49.0925 83.037 49.0925 82.9368 49.0925C81.4346 48.8901 79.8322 48.8901 78.33 49.1937C78.1297 49.1937 77.5288 49.2949 77.1282 48.9913C76.5273 48.5864 76.327 47.6754 76.7276 47.0681C76.9279 46.6632 77.2283 46.3595 77.7291 46.2583C78.4301 45.9546 79.1311 45.9546 79.732 45.8534C80.8337 45.7522 81.8352 45.651 83.037 45.8534C83.1371 45.8534 83.3374 45.9546 83.4376 45.9546C83.5377 45.9546 83.6379 45.9546 83.738 46.0558C83.037 45.4485 82.3359 44.9424 81.5347 44.5375C78.9308 43.0192 76.1267 42.7155 73.9234 43.6265C71.5198 44.6387 69.9174 47.473 70.4182 49.9023L68.5154 50.5096C67.7141 48.1815 66.0116 46.6632 63.7082 46.1571C63.2074 46.0558 62.8069 46.0558 62.5064 46.1571C62.206 46.3595 61.9055 46.9669 61.9055 47.8778C61.8054 51.3194 63.0071 55.3682 65.2104 59.0122C65.611 59.6196 65.9115 60.1257 66.3121 60.733C66.0116 58 66.7127 54.5585 67.7141 52.3316C68.1147 51.4206 68.8158 51.3194 69.3165 51.4206L70.0176 52.534C69.617 54.6597 69.3165 56.7853 69.1162 58.911L69.0161 60.1257C69.0161 60.2269 69.0161 60.3281 69.0161 60.4293C69.0161 61.1379 68.9159 62.0489 68.2149 62.6562C69.4167 64.377 70.9189 65.6929 72.5213 66.8063C72.1207 65.6929 71.9204 64.5794 71.8203 63.466C71.7201 62.555 71.5198 61.5428 71.4197 60.5305C71.3195 59.2147 71.2194 57.5951 72.0206 56.3805C72.1207 56.178 72.4212 55.8744 72.7216 55.6719C73.3225 55.3682 74.1237 55.6719 74.6244 56.2792C74.9249 56.6841 75.025 57.089 75.025 57.3927L76.4271 64.5794C76.6274 65.3892 76.7276 66.3002 77.1282 66.9075C77.2283 67.0087 77.3285 67.2112 77.4286 67.3124C77.8292 67.8185 78.33 68.5271 78.2298 69.2356C78.7305 69.3368 79.1311 69.3368 79.6319 69.3368C79.8322 69.3368 80.1326 69.3368 80.3329 69.3368C80.4331 69.3368 80.6334 69.3368 80.8337 69.3368C79.8322 68.3246 79.031 67.11 78.33 65.8953C78.1297 65.4904 77.8292 65.0855 77.6289 64.6806C77.4286 64.377 77.2283 64.0733 77.2283 63.5672C77.1282 63.0611 77.3285 62.4538 77.7291 62.0489C78.1297 61.5428 78.7305 61.3403 79.3314 61.2391C80.1326 61.2391 80.9338 61.644 81.6349 62.3525C82.2358 62.9599 82.6364 63.6684 82.9368 64.377C84.0385 66.4014 85.1401 68.4258 86.0414 70.5515C86.1416 70.8552 86.3419 71.26 86.3419 71.8674C86.3419 72.0698 86.2417 72.2723 86.1416 72.3735C86.0414 72.2723 86.1416 72.5759 86.2417 73.082C86.2417 72.9808 86.2417 72.9808 86.2417 73.082M79.1311 62.8586C79.031 62.8586 79.031 62.9599 78.9308 62.9599C78.9308 62.9599 79.031 63.1623 79.1311 63.2635C79.3314 63.6684 79.5317 64.0733 79.8322 64.377C80.6334 65.5916 81.5347 66.8063 82.5362 67.8185C82.0355 66.8063 81.5347 65.8953 81.034 64.9843C80.6334 64.377 80.3329 63.7696 79.9323 63.3648C79.6319 62.9599 79.3314 62.8586 79.1311 62.8586M73.3225 59.9232C73.4226 60.8342 73.5228 61.8464 73.7231 62.7574C73.9234 64.1745 74.1237 65.3892 74.7246 66.5026C74.8247 66.6038 74.8247 66.7051 74.9249 66.8063C74.6244 66.0977 74.4241 65.288 74.324 64.5794L73.2224 58.8098C73.2224 59.2147 73.3225 59.5183 73.3225 59.9232"/>
	<path fill="white" d="M73.7327 79.2566L27.8844 79.2566C26.7832 79.2566 25.8822 78.3456 25.8822 77.2321C25.8822 75.9162 26.7832 75.0052 27.8844 75.0052L73.7327 75.0052C74.8339 75.0052 75.7348 75.9162 75.7348 77.0297C75.7348 78.3456 74.8339 79.2566 73.7327 79.2566"/>
	<path fill="#2D1B0A" d="M73.7328 80.2688L27.8844 80.2688C26.1826 80.2688 24.8812 78.8517 24.8812 77.2321C24.8812 75.3089 26.2827 73.993 27.8844 73.993L73.7328 73.993C75.4346 73.993 76.7359 75.4101 76.7359 77.0297C76.7359 78.9529 75.4346 80.2688 73.7328 80.2688M27.8844 76.0175C27.2837 76.0175 26.8833 76.5236 26.8833 77.0297C26.8833 77.8394 27.3838 78.2443 27.8844 78.2443L73.7328 78.2443C74.3334 78.2443 74.7338 77.7382 74.7338 77.2321C74.7338 76.4223 74.2333 76.0175 73.7328 76.0175L27.8844 76.0175"/>
</svg>
