<?xml version="1.0" encoding="utf-8" ?>
<svg xmlns="http://www.w3.org/2000/svg" xmlns:xlink="http://www.w3.org/1999/xlink" width="110" height="120">
	<path fill="white" d="M66.9434 69.1729L68.3485 68.0702C70.7573 66.1654 72.9653 63.7594 75.073 61.4536C76.8796 59.5489 78.4854 57.7444 80.292 56.2406C86.4142 51.0276 93.8412 49.1228 101.068 47.4185L110 45.213L101.469 41.7043C96.8522 39.7995 91.9343 38.797 87.0164 38.797C82.6004 38.797 78.2847 39.599 74.0693 41.1028C69.6533 42.7068 66.4416 44.812 63.9325 47.7193C63.531 48.2206 63.1296 48.7218 62.7281 49.3233L63.4307 40.802C65.9398 39.6992 67.4453 37.3935 67.7464 34.0852L69.5529 13.4336C69.854 10.1253 68.75 7.61905 66.542 6.11529L66.6423 5.01253C66.9434 2.50627 65.1369 0.200501 62.6277 0C62.427 0 62.3266 0 62.1259 0C59.8175 0 57.8102 1.80451 57.5091 4.11028L57.4088 5.61404C55.2007 6.81704 53.7956 9.02256 53.5949 12.1303L51.7883 32.782C51.4872 35.8897 52.4909 38.2957 54.4982 39.7995L51.9891 69.3734L47.573 43.208C49.1788 41.5038 49.781 39.198 49.3796 36.2907L46.8704 21.3534C46.2682 17.9449 44.562 16.2406 42.9562 15.4386L42.6551 13.6341C42.4544 11.9298 41.3504 10.5263 39.7445 9.92481C39.2427 9.72431 38.6405 9.62406 38.1387 9.62406C37.0347 9.62406 36.031 10.0251 35.1277 10.7268C33.823 11.8296 33.3212 13.4336 33.6223 15.0376L33.823 16.2406C31.615 17.8446 30.6113 20.5514 31.2135 23.8596L33.7226 38.797C34.3248 42.1053 36.031 44.3108 38.6405 45.1128L40.0456 53.3333C39.2427 52.6316 38.4398 51.9298 37.6369 51.3283C35.2281 49.6241 32.5182 48.4211 28.8047 47.4185C24.4891 46.2155 19.9726 45.3133 15.4562 45.614C5.01825 46.2155 1.10401 48.9223 0 49.0226L11.7427 51.6291C13.75 52.0301 15.8577 53.0326 18.1661 54.8371C19.6715 56.0401 21.0766 57.3434 22.5821 58.7469C23.1843 59.3484 23.7865 60 24.4891 60.5514C30.0091 65.5639 36.1314 69.7744 42.7555 73.0827C42.8558 73.183 43.0566 73.2832 43.2573 73.2832L43.7591 75.99L28.604 75.99C25.9945 75.99 23.8869 78.0952 23.8869 80.7018L23.8869 82.005C23.8869 84.411 25.6934 86.416 28.0018 86.7168L30.5109 111.378C31.0128 116.291 35.0274 120 39.8449 120L63.7318 120C68.5493 120 72.5639 116.291 73.0657 111.378L75.5748 86.7168L76.7792 86.7168C79.3887 86.7168 81.4964 84.6115 81.4964 82.005L81.4964 80.7018C81.4964 78.0952 79.3887 75.99 76.7792 75.99L60.5201 75.99L60.7208 73.985C62.6277 72.5815 64.8358 70.8772 66.9434 69.1729"/>
	<path fill="#4EA04E" d="M44.3613 64.7906C41.9525 60.8808 39.343 56.8708 35.6295 54.164C33.3211 52.4598 30.5109 51.4573 27.801 50.6553C22.6824 49.2518 17.3631 48.6503 12.1441 49.0513C14.9543 49.5525 17.6642 51.0563 19.8722 52.7605C22.0802 54.4648 24.1879 56.6703 26.3959 58.5751C31.6149 63.3871 37.6368 67.4974 43.9598 70.6051C45.1642 71.2066 47.2718 71.5074 47.0845 69.7029C46.77 68.0989 45.1642 66.1941 44.3613 64.7906"/>
	<path fill="#2D1B0A" d="M45.6756 72.0908C44.8725 72.0908 44.0694 71.79 43.3667 71.4893C36.8415 68.2812 30.9186 64.171 25.598 59.2587C24.9957 58.6572 24.3934 58.1559 23.791 57.5544C22.2852 56.1509 20.7794 54.7474 19.1732 53.5444C16.6635 51.5394 14.2542 50.4366 11.8449 50.0356L3.7135 48.6321L11.9453 48.0306C17.3662 47.6296 22.7872 48.2311 28.0073 49.7349C31.4205 50.7374 34.0306 51.8401 36.1387 53.4441C40.1542 56.2512 42.7643 60.5619 45.1736 64.2712C45.3744 64.572 45.5752 64.8727 45.776 65.1735C46.6794 66.4767 47.7837 68.0807 47.8971 69.5845C47.9845 70.8878 47.4826 71.4893 47.081 71.6898C46.6794 71.9905 46.1775 72.0908 45.6756 72.0908M17.3662 50.0356C18.3701 50.6371 19.374 51.2386 20.3779 52.0406C22.0845 53.3439 23.5903 54.8477 25.0961 56.2512C25.6984 56.8527 26.3007 57.3539 26.9031 57.9554C32.1232 62.6672 37.9457 66.6772 44.2701 69.785C45.0732 70.186 45.776 70.186 45.8763 70.0858C45.8763 70.0858 45.8763 69.9855 45.8763 69.785C45.776 68.6822 44.7721 67.379 44.0694 66.2762C43.8686 65.9755 43.5674 65.5745 43.467 65.2737C41.1581 61.6647 38.6484 57.5544 34.9341 54.9479C32.9263 53.5444 30.517 52.4416 27.405 51.5394C24.0922 50.7374 20.7794 50.1359 17.3662 50.0356"/>
	<path fill="#478E55" d="M48.0748 78.7971C47.3723 78.6968 46.8705 78.0954 46.7701 77.3936L36.2062 14.8372C36.2062 14.2357 36.3321 13.7345 36.7336 13.3335C37.135 12.9325 37.7372 12.8322 38.3394 12.9325C38.8413 13.2332 39.2427 13.7345 39.3431 14.336L49.8814 76.8923C49.9818 77.3936 49.8814 77.8949 49.48 78.2959C49.0785 78.6968 48.5767 78.7971 48.0748 78.7971"/>
	<path fill="#2D1B0A" d="M48.9781 79.8998L47.9745 79.7995C46.8705 79.599 45.9672 78.6967 45.7664 77.594L35.1679 15.0357C35.0274 14.1335 35.3285 13.2312 36.1314 12.6296C36.834 12.02 37.8376 11.8276 38.7409 12.2286C39.6442 12.5294 40.2464 13.3314 40.3467 14.334L50.8851 76.8922C51.0858 77.6942 50.7847 78.4962 50.1825 79.198C49.8814 79.599 49.3796 79.7995 48.9781 79.8998M48.0748 77.7945C48.3759 77.7945 48.5767 77.7945 48.677 77.594C48.7774 77.4937 48.8778 77.2932 48.7774 77.0927L38.2391 14.4342C38.2391 14.2337 38.0383 14.0332 37.8376 13.9329C37.6369 13.8327 37.4361 13.9329 37.2354 14.0332C37.0347 14.1335 37.0347 14.334 37.0347 14.5345L47.573 77.1929C47.7737 77.4937 47.9745 77.6942 48.0748 77.7945"/>
	<path fill="#EFC029" d="M37.8375 18.045C41.0492 17.5438 42.9561 18.847 43.5583 22.055L46.0675 36.9923C46.5693 40.2003 45.2645 42.1051 42.0529 42.7066C38.8412 43.2079 36.9342 41.9046 36.3321 38.6966L33.8229 23.7593C33.3211 20.451 34.6259 18.5463 37.8375 18.045"/>
	<path fill="#2D1B0A" d="M40.7481 43.7093C39.5437 43.7093 38.4397 43.4085 37.6368 42.807C36.4324 42.005 35.7299 40.6015 35.4288 38.6967L32.9196 23.7594C32.3175 19.9499 34.0237 17.5439 37.7372 16.9424C41.551 16.3409 43.9598 18.0451 44.562 21.7544L47.0712 36.6917C47.3723 38.5965 47.1715 40.1003 46.2682 41.3033C45.4653 42.5063 44.0602 43.208 42.1532 43.5088C41.7518 43.7093 41.2499 43.7093 40.7481 43.7093M39.2426 18.8471C38.8412 18.8471 38.5401 18.8471 38.0383 18.9474C35.3284 19.4486 34.3248 20.7519 34.8266 23.4586L37.3357 38.396C37.5364 39.6993 38.0383 40.7018 38.7408 41.203C39.4434 41.7043 40.5474 41.9048 41.8521 41.604C43.1569 41.4035 44.1606 40.9023 44.6624 40.2005C45.1642 39.4988 45.365 38.396 45.0639 37.0927L42.5547 22.1554C42.2536 19.9499 41.1496 18.8471 39.2426 18.8471"/>
	<path fill="#478E55" d="M55.2037 84.1948C54.0997 84.0945 53.587 83.3928 53.587 82.4905L60.222 4.3953C60.3224 3.49304 61.1253 2.9809 61.9282 2.9809C62.8315 3.09204 63.4337 3.89405 63.3333 4.69605L56.6089 82.691C56.6089 83.5933 56.0067 84.1948 55.2037 84.1948"/>
	<path fill="#2D1B0A" d="M55.0013 85.2129C53.495 85.1126 52.5844 83.8091 52.5844 82.4053L59.2187 4.2925C59.4196 2.88868 60.6246 1.78567 62.0304 1.9626C63.4362 2.18676 64.4404 3.39004 64.3468 4.79387L57.6121 82.8064C57.5117 84.1099 56.5075 85.1126 55.2021 85.1126M61.8296 3.99168C61.5283 3.99168 61.3275 4.19223 61.2271 4.49305L54.5996 82.6058C54.5996 82.9066 54.8004 83.2074 55.1017 83.2074C55.5033 83.2074 55.7042 83.0069 55.7042 82.7061L62.4321 4.69359C62.4321 4.2925 62.2312 4.09195 61.8296 3.99168C61.93 3.99168 61.8296 3.99168 61.8296 3.99168"/>
	<path fill="#EFC029" d="M61.7245 7.7838C65.0365 8.12027 66.6423 9.92478 66.3412 13.2331L64.5347 33.8847C64.2336 37.1929 62.427 38.797 59.115 38.4962C55.8029 38.1955 54.1971 36.3909 54.4624 33.0827L56.3047 12.431C56.6059 9.12277 58.4124 7.51876 61.7245 7.7838"/>
	<path fill="#2D1B0A" d="M59.9053 39.5989C59.6042 39.5989 59.4035 39.5989 59.1024 39.5989C55.1881 39.2979 53.2812 36.9904 53.5514 33.0776L55.3889 12.4101C55.69 8.49729 57.9984 6.59106 61.9126 6.8612C65.8269 7.19303 67.7337 9.50057 67.4326 13.4133L65.6262 34.0809C65.2246 37.6927 63.2173 39.5989 59.9053 39.5989M61.0093 8.79827C59.9053 8.79827 59.1024 8.99893 58.5002 9.50057C57.7976 10.1025 57.3962 11.1058 57.2958 12.5104L55.4892 33.1779C55.2885 35.9871 56.3925 37.2914 59.2027 37.5923C62.013 37.793 63.3177 36.6894 63.6189 33.8802L65.4253 13.2127C65.6262 10.4035 64.522 9.09926 61.7119 8.79827C61.4108 8.79827 61.21 8.79827 61.0093 8.79827"/>
	<path fill="white" d="M63.531 117.293L39.6441 117.293C36.4324 117.293 33.7226 114.787 33.3211 111.378L30.1094 80.7018L52.3904 80.7018L72.9652 80.7018L69.7536 111.378C69.4526 114.787 66.7427 117.293 63.531 117.293"/>
	<path fill="#2D1B0A" d="M63.5309 118.296L39.6441 118.296C35.9306 118.296 32.7189 115.388 32.3174 111.479L29.0054 79.6992L74.0693 79.6992L70.7572 111.479C70.4561 115.388 67.2445 118.296 63.5309 118.296M31.3138 81.7042L34.3247 111.278C34.6258 114.185 36.9342 116.291 39.6441 116.291L63.5309 116.291C66.2408 116.291 68.5492 114.085 68.8503 111.278L71.8612 81.7042L31.3138 81.7042"/>
	<path fill="#4EA04E" d="M66.1404 49.8246C68.6496 46.9174 71.8612 45.2131 75.0728 44.0101C83.3027 41.0026 92.1349 41.2031 100.264 44.5114C92.6367 46.4161 84.8083 48.3209 78.2845 54.0352C74.1695 57.5439 70.6569 62.4562 66.4415 65.7645C63.832 67.8698 61.1221 69.975 58.5126 71.8798C57.7097 69.574 60.2188 62.2557 60.9214 59.8497C62.1258 56.1404 63.7316 52.5314 66.1404 49.8246"/>
	<path fill="#2D1B0A" d="M57.9106 73.584L57.5091 72.2807C56.7062 70.0752 58.2117 64.9625 59.7172 60.4512C61.4234 55.2381 63.2299 51.7294 65.438 49.1228C67.7464 46.4161 70.6569 44.5113 74.7719 43.0076C83.3029 39.8998 92.2354 40.1003 100.766 43.6091L103.577 44.8121L100.566 45.5138C93.5402 47.2181 85.511 49.2231 78.9872 54.8371C77.0803 56.4411 75.3741 58.3459 73.5675 60.2507C71.5602 62.4562 69.3522 64.762 67.0438 66.5665L65.5383 67.7695C63.4307 69.4737 61.2226 71.178 59.0146 72.782L57.9106 73.584M66.8431 50.4261C64.8358 52.7319 63.1296 56.0401 61.8248 60.2507C60.9215 63.0577 59.4161 67.4687 59.2153 70.1755C60.9215 68.8722 62.6277 67.569 64.2336 66.2657L65.7391 65.0627C67.9471 63.3584 70.0548 61.0527 71.9617 58.9474C73.7683 57.0427 75.5748 55.0376 77.4818 53.3334C83.4033 48.3209 90.2281 46.1153 96.6515 44.4111C89.6259 42.2056 82.1989 42.4061 75.1734 45.0126C71.6606 46.3158 68.9507 48.0201 66.8431 50.4261"/>
	<path fill="white" d="M76.5786 84.01L28.4033 84.01C27.3997 84.01 26.6971 83.208 26.6971 82.3057L26.6971 81.0025C26.6971 80 27.5001 79.2982 28.4033 79.2982L76.5786 79.2982C77.5821 79.2982 78.2848 80.1002 78.2848 81.0025L78.2848 82.3057C78.2848 83.208 77.4818 84.01 76.5786 84.01"/>
	<path fill="#2D1B0A" d="M76.5786 85.0125L28.4035 85.0125C26.898 85.0125 25.6936 83.8095 25.6936 82.3057L25.6936 81.0025C25.6936 79.4987 26.898 78.2957 28.4035 78.2957L76.5786 78.2957C78.0841 78.2957 79.2885 79.4987 79.2885 81.0025L79.2885 82.3057C79.2885 83.8095 78.0841 85.0125 76.5786 85.0125M28.4035 80.2005C28.002 80.2005 27.7009 80.5012 27.7009 80.9022L27.7009 82.2055C27.7009 82.6065 28.002 82.9072 28.4035 82.9072L76.5786 82.9072C76.9801 82.9072 77.2812 82.6065 77.2812 82.2055L77.2812 80.9022C77.2812 80.5012 76.9801 80.2005 76.5786 80.2005L28.4035 80.2005"/>
</svg>
