<?xml version="1.0" encoding="utf-8" ?>
<svg xmlns="http://www.w3.org/2000/svg" xmlns:xlink="http://www.w3.org/1999/xlink" width="82" height="92">
	<path fill="white" d="M73.4037 44.8462C71.2798 41.5354 66.4249 39.0273 60.2553 37.422C62.4804 30.1985 65.3124 24.7808 67.0318 21.771C67.8409 22.072 68.6501 22.1723 69.5603 22.1723C71.0775 22.1723 72.5946 21.771 74.2129 21.0687C77.4494 19.5638 79.3711 16.7546 80.2814 15.2497C81.1917 13.7448 82.5065 10.8353 81.7985 8.72846C81.2928 7.32388 79.978 6.22028 78.1574 5.51799C77.7528 5.31734 77.2471 5.21701 76.8426 5.11668C76.438 3.81243 75.8311 2.2072 74.7186 1.40458C73.9094 1.00327 73.2015 0.802617 72.3923 0.802617C71.5832 0.802617 70.6729 1.00327 70.1672 1.1036C69.5603 0.601963 68.9535 0.300981 68.3466 0.100327C68.0432 0 67.6386 0 67.2341 0C66.1215 0 64.9078 0.401309 63.6941 1.20393C61.469 2.60851 58.8393 5.51799 58.1313 9.33043C57.6256 12.1396 58.0302 14.5474 59.2439 16.6543C59.8507 17.6576 60.6599 18.4602 61.6713 19.1625C59.7496 22.5736 56.8165 28.4929 54.389 36.2181C49.9388 35.5158 45.1851 35.1145 40.4315 35.1145C27.4853 35.1145 14.438 37.8233 8.87517 43.1407C7.86375 43.7426 -2.75615 50.1636 0.682676 70.7306C3.91922 90.1941 17.1688 91.1974 19.7985 91.1974C20.0008 91.1974 20.1019 91.1974 20.2031 91.1974L40.128 91.699L62.3793 92C63.0873 91.7993 80.5848 86.0807 81.2928 67.0185C81.7985 52.8724 76.5391 47.0534 73.4037 44.8462"/>
	<path fill="white" d="M10.4084 45.7491C10.4084 45.7491 0.49646 50.9662 3.733 70.229C6.96954 89.4917 20.3203 88.1875 20.3203 88.1875L40.3464 88.6891L62.0919 88.9902C62.0919 88.9902 77.7689 84.0742 78.4061 66.9182C78.9826 49.7622 70.2844 46.6521 70.2844 46.6521L10.4084 45.7491"/>
	<path fill="#2D1B0A" d="M62.2989 89.8931L40.3435 89.5921L20.3105 89.0905C19.0964 89.1908 5.94342 89.4918 2.70576 70.3293C-0.53189 50.5649 9.48461 45.0469 9.88931 44.8462L70.393 45.5485C71.0001 45.7492 80.0048 49.2606 79.4271 66.9182C78.7907 84.5758 62.6024 89.8931 62.4001 89.9934M20.3105 87.1843L40.4447 87.6859L62.0965 87.9869C63.7154 87.3849 76.9695 82.3686 77.4754 66.8179C77.9813 51.7688 71.2024 48.0567 70.1907 47.5551L10.7999 46.7524C9.38343 47.6554 2.0625 53.1734 4.83048 70.0283C7.7646 88.1876 20.1082 87.1843 20.3105 87.1843"/>
	<path fill="#FF6C96" d="M70.9664 4.01309C68.9436 4.61505 66.4151 6.22028 65.1002 8.92912C63.7854 11.6379 63.3808 15.1494 66.5162 16.9553C67.6288 17.5572 68.8425 17.7579 69.8539 17.4569C71.2699 17.0556 72.4836 15.8517 73.3939 13.9454C74.6076 11.5376 74.4053 8.82879 74.203 7.42421C73.8996 5.21701 73.1916 3.91276 72.9893 3.75243C72.787 3.75243 72.079 3.75243 70.9664 4.01309"/>
	<path fill="#2D1B0A" d="M68.8524 18.6496C67.9421 18.6496 66.9307 18.3486 66.0204 17.847C62.2782 15.6398 62.6827 11.426 64.1999 8.51655C65.717 5.50673 68.549 3.70085 70.673 3.09888C71.4821 2.82436 72.7969 2.59725 73.505 3.09888C74.213 3.60052 74.921 5.40641 75.2243 7.41295C75.4267 8.91786 75.629 11.8273 74.314 14.4359C73.2014 16.5428 71.7855 17.9473 70.1672 18.449C69.7627 18.5493 69.257 18.6496 68.8524 18.6496M71.2798 5.0051C69.5604 5.50673 67.2341 7.01164 66.0204 9.41949C65.4136 10.5231 63.8964 14.2352 67.133 16.1415C67.9421 16.6431 68.8524 16.7434 69.6615 16.5428C70.7741 16.1415 71.7855 15.1382 72.5947 13.5329C73.7073 11.426 73.505 8.91786 73.3027 7.6136C73.1004 6.1087 72.6958 5.10543 72.4935 4.70412C72.2912 4.70412 71.8867 4.80444 71.2798 5.0051"/>
	<path fill="white" d="M71.6842 48.8593C71.6842 54.7881 57.6919 59.5943 40.4314 59.5943C23.1709 59.5943 9.17855 54.7881 9.17855 48.8593C9.17855 42.9305 23.1709 38.1243 40.4314 38.1243C57.6919 38.1243 71.6842 42.9305 71.6842 48.8593"/>
	<path fill="#2D1B0A" d="M40.4315 60.5976C22.3271 60.5976 8.1672 55.3805 8.1672 48.8593C8.1672 42.338 22.3271 37.121 40.4315 37.121C58.5359 37.121 72.6958 42.338 72.6958 48.8593C72.6958 55.3805 58.5359 60.5976 40.4315 60.5976M40.4315 39.1275C22.3271 39.1275 10.19 44.1439 10.19 48.8593C10.19 53.5747 22.3271 58.591 40.4315 58.591C58.5359 58.591 70.6729 53.5747 70.6729 48.8593C70.6729 44.1439 58.5359 39.1275 40.4315 39.1275"/>
	<path fill="#4EA04E" d="M14.2232 49.1603C14.4379 51.2671 20.1019 52.3707 26.6762 51.6685C33.3514 50.9662 38.6108 48.6586 38.32 46.5518C38.1051 44.4449 32.4412 43.3413 25.867 44.0436C19.1916 44.8462 13.9322 47.1537 14.2232 49.1603"/>
	<path fill="#2D1B0A" d="M22.7346 52.8803C20.9135 52.8803 19.2947 52.78 17.8782 52.479C14.2359 51.7767 13.3254 50.3721 13.214 49.3688C13.214 48.3656 13.7301 46.7603 17.0688 45.2554C19.3958 44.2521 22.4311 43.5499 25.7698 43.1485C29.1086 42.7472 32.245 42.9009 34.7743 43.3492C38.4166 44.0515 39.3272 45.4561 39.4385 46.5597C39.5295 47.5629 38.9225 49.1682 35.5837 50.6731C33.2567 51.6763 30.2215 52.3786 26.8827 52.78C25.3651 52.78 24.0499 52.8803 22.7346 52.8803M29.8168 44.8541C28.6027 44.8541 27.2874 44.9544 25.871 45.0548C22.7346 45.3557 19.9017 46.058 17.777 46.961C15.7536 47.8639 15.1465 48.6665 15.1465 48.9675C15.1465 49.2685 16.0571 49.9708 18.1817 50.3721C20.4076 50.7734 23.4428 50.8737 26.5792 50.5728C29.7156 50.2718 32.5485 49.5695 34.6732 48.6665C36.6966 47.7636 37.3037 46.961 37.3037 46.66C37.3037 46.359 36.3931 45.6567 34.2685 45.2554C33.0544 45.0548 31.5368 44.8541 29.8168 44.8541"/>
	<path fill="#4EA04E" d="M40.6299 43.1406C40.6299 44.1439 42.4542 44.9465 44.7805 44.9465C47.2079 44.9465 49.1296 44.1439 49.2346 43.1406C49.3319 42.1374 47.4102 41.3347 45.0839 41.3347C42.7577 41.3347 40.7348 42.1374 40.6299 43.1406"/>
	<path fill="#2D1B0A" d="M44.8816 45.9498C42.7576 45.9498 41.0382 45.4482 40.2291 44.5452C39.6881 44.0436 39.6881 43.4416 39.6881 43.1406C39.8245 41.2344 42.6565 40.4318 45.0839 40.4318C47.1068 40.4318 48.9273 40.9334 49.7365 41.8364C50.2421 42.338 50.3432 42.94 50.2421 43.241C50.141 45.1472 47.4102 45.9498 44.8816 45.9498M41.7462 43.241C42.0497 43.542 43.0611 43.9433 44.8816 44.0436C46.8033 44.0436 47.9159 43.542 48.2193 43.241C47.9159 42.94 46.9045 42.5387 45.0839 42.4383C43.1622 42.338 42.0497 42.94 41.7462 43.241"/>
	<path fill="white" d="M29.1036 48.759C29.0024 48.759 29.0024 48.759 28.9013 48.6587C27.6876 47.9564 25.7659 48.6587 25.6648 48.6587C25.4625 48.759 25.3613 48.6587 25.2602 48.5584C24.6533 47.9564 22.7316 47.8561 21.7202 47.9564C21.5179 47.9564 21.3157 47.7557 21.3157 47.5551C21.3157 47.3544 21.5179 47.1348 21.7202 47.1348C22.0236 47.1348 24.5522 46.9531 25.6648 47.8561C26.2716 47.6554 28.0922 47.2541 29.3059 47.9564C29.5082 48.0567 29.5082 48.2574 29.5082 48.458C29.407 48.6587 29.3059 48.759 29.1036 48.759"/>
	<path fill="#FF6C96" d="M67.8409 18.8615C66.6272 18.3599 65.7169 17.3566 65.2112 16.0523C64.7055 14.7481 64.8787 13.3338 65.3123 12.0393C65.9192 10.5344 67.3352 9.2301 69.2569 8.32716C72.0888 7.02291 75.1231 7.47252 77.0448 8.12651C78.0562 8.52781 78.7642 9.12978 78.9665 9.63141C79.1688 10.2334 78.6631 11.9389 77.7528 13.5442C77.0448 14.7481 75.5277 17.0556 72.9991 18.1592C71.0774 19.2628 69.2569 19.4635 67.8409 18.8615"/>
	<path fill="#2D1B0A" d="M69.6614 20.1787C68.8523 20.1787 68.1443 20.0784 67.5375 19.7774C66.1215 19.1755 65.0089 17.9715 64.4021 16.4667C63.7952 14.9618 63.9943 13.2562 64.5032 11.7513C65.2112 9.94541 66.7283 8.54083 68.9534 7.53756C72.0879 6.13298 75.4265 6.60784 77.5505 7.33691C78.4607 7.73821 79.6744 8.34018 80.079 9.44378C80.5847 10.8484 79.0676 13.6575 78.7642 14.2595C77.955 15.5637 76.3368 18.0719 73.606 19.2758C72.0879 19.8778 70.774 20.1787 69.6614 20.1787M73.4037 8.54083C72.19 8.54083 70.9763 8.74149 69.7626 9.34345C68.0432 10.1461 66.8295 11.2497 66.3238 12.5539C65.9192 13.5572 65.818 14.7611 66.2226 15.7644C66.6272 16.7676 67.3352 17.5702 68.2455 17.9715C69.5603 18.4732 70.9763 18.2725 72.6957 17.4699C74.9208 16.4667 76.3368 14.3598 76.9436 13.2562C77.8539 11.651 78.1573 10.4471 78.1573 10.1461C78.1573 10.0457 77.7528 9.64443 76.7413 9.24312C75.8311 8.84181 74.6174 8.54083 73.4037 8.54083"/>
	<path fill="#FF6C96" d="M68.65 16.855C67.5374 17.5572 66.3237 17.6576 65.0089 17.3566C63.694 17.0556 62.5815 16.1527 61.8735 15.0491C60.9871 13.6445 60.7609 11.9389 61.1655 9.93238C61.6712 7.02289 63.694 4.8157 65.3123 3.81243C66.2226 3.21046 67.0317 3.0855 67.6386 3.0855C68.2454 3.31079 69.2568 4.61504 70.066 6.3206C70.6728 7.52453 71.5831 10.0327 71.0774 12.5409C70.6728 14.5474 69.8637 15.952 68.65 16.855"/>
	<path fill="#2D1B0A" d="M66.3199 18.4602C65.8138 18.4602 65.3078 18.3599 64.7005 18.2596C63.1824 17.8583 61.8667 16.855 60.9558 15.5507C59.9058 13.9455 59.6401 12.0393 60.1462 9.73173C60.7534 6.52126 62.98 4.11341 64.8018 2.90949C65.6114 2.40785 66.8259 1.80589 67.9392 2.02618C69.3561 2.50818 70.773 5.31734 70.9754 5.81897C71.5827 7.12323 72.5948 9.83206 72.0887 12.6412C71.6839 15.0491 70.6718 16.6543 69.1537 17.6576C68.2428 18.1592 67.332 18.4602 66.3199 18.4602M68.0404 15.952C69.0525 15.2497 69.7609 14.0458 70.0646 12.2399C70.4694 9.93239 69.6597 7.72519 69.1537 6.62159C68.4452 5.01636 67.6356 4.11341 67.332 4.01308C67.332 4.01308 66.7247 4.01308 65.915 4.61505C64.3969 5.51799 62.6764 7.52454 62.1703 10.133C61.8667 11.9389 62.0691 13.4439 62.7776 14.5475C63.3848 15.4504 64.1945 16.1527 65.3078 16.3533C66.2187 16.554 67.2308 16.4537 68.0404 15.952"/>
	<path fill="#2D1B0A" d="M54.6924 58.1898L52.6696 58.0895C53.681 33.8103 65.3123 17.0557 65.4135 16.855L67.0318 17.9586C66.9306 18.1593 55.7039 34.5126 54.6924 58.1898"/>
</svg>
