<?xml version="1.0" encoding="utf-8" ?>
<svg xmlns="http://www.w3.org/2000/svg" xmlns:xlink="http://www.w3.org/1999/xlink" width="112" height="108">
	<path fill="white" d="M43.4509 108C39.1002 108 35.4577 104.809 34.9518 100.521L32.827 81.1745C31.0058 80.4765 29.6904 78.7812 29.6904 76.7867C29.6904 73.6953 31.8152 71.6011 34.4459 71.6011L38.7966 71.6011C38.2907 66.3158 38.1895 55.6454 43.4509 45.8726C42.4391 44.6759 41.832 43.3795 41.6297 41.8837C41.5285 41.0859 41.5285 40.2881 41.7308 39.4903C39.8084 41.0859 37.886 42.482 36.5707 43.1801C34.9518 44.0776 33.4341 45.4737 32.0176 46.7701C29.7916 48.7645 28.0715 50.3601 25.8456 50.5596C24.0243 50.759 21.596 51.5568 20.6854 52.0554C20.483 52.1551 20.2807 52.2548 20.0783 52.4543C18.763 53.2521 16.6382 54.5485 13.9063 54.6482C13.2992 54.6482 10.9721 55.3463 9.65676 55.7452C6.82371 56.5429 4.90129 57.0416 3.58595 57.0416C1.66353 57.0416 0.752909 56.0443 0.348189 55.1468C-0.562432 53.2521 -0.157711 32.9086 7.4308 28.2216C8.9485 27.3241 9.55558 26.7258 9.85912 26.5263C9.75794 25.928 9.85912 24.9307 10.365 23.9335C11.6804 21.5402 14.0075 21.3407 15.3228 21.241C15.424 21.241 15.6264 21.241 15.8287 21.1413C16.0311 20.6427 16.3346 19.8449 16.4358 19.3463C17.9535 14.9584 20.5842 7.47922 27.1609 7.27978C29.0833 7.27978 30.601 7.97784 31.8152 9.17452C35.2553 12.5651 35.9636 20.144 36.0648 25.5291C36.2671 25.5291 36.4695 25.5291 36.6718 25.5291C37.2789 25.4294 37.7848 25.4294 38.3919 25.4294C38.7966 25.4294 39.2013 25.4294 39.6061 25.5291C44.5639 25.5291 47.0934 26.3269 48.2064 27.9224C48.6111 28.5208 48.8135 29.2188 48.8135 29.9169C49.5217 30.7147 50.23 31.5125 50.9382 32.5097C53.6701 31.7119 56.6043 31.2133 58.8303 31.0139C57.3126 22.2382 58.4256 19.9446 59.8421 18.8476C60.5503 18.349 61.3598 18.0499 62.2704 18.0499C62.4728 18.0499 62.6751 18.0499 62.8775 18.0499C64.294 18.2493 66.1152 19.1468 68.4424 20.9418C69.6566 18.9474 71.1743 17.2521 72.7931 15.856C74.1085 14.759 75.525 13.7618 77.0427 13.0637C77.1439 12.8643 77.3462 12.6648 77.5486 12.3657C79.5722 10.072 83.7206 8.97507 87.5654 8.47645C86.9583 3.4903 87.6666 1.69529 88.9819 0.698061C89.589 0.199446 90.3985 0 91.1067 0C91.3091 0 91.5114 0 91.7138 0C95.0528 0.498615 100.011 6.0831 101.022 7.57895C101.629 8.37673 102.641 9.27424 103.451 10.072C104.968 11.4681 106.284 12.5651 106.587 14.3601C106.79 15.3573 107.397 16.7535 107.7 17.1524C107.801 17.2521 107.903 17.3518 107.903 17.4515C108.611 18.349 109.623 19.7452 109.926 21.7396C110.027 22.0388 110.533 23.4349 110.736 24.133C112 27.3241 112.962 29.9169 110.432 31.313C109.319 32.0111 106.284 32.1108 104.564 32.1108C100.719 32.1108 93.7374 31.6122 91.1067 28.1219C90.8032 27.6233 90.4996 27.3241 90.2973 27.1247C90.1961 27.1247 90.1961 27.1247 90.0949 27.1247C89.589 27.1247 88.9819 27.0249 88.476 26.8255C86.5536 26.0277 86.0477 24.3324 85.8454 23.3352C85.643 23.3352 85.4406 23.2355 85.3395 23.2355C83.0123 22.6371 79.5722 21.8393 77.5486 19.446C77.1439 19.7452 76.8403 19.9446 76.4356 20.2438C75.0191 21.4404 73.8049 23.036 72.692 24.831C74.1085 26.2271 75.3226 27.6233 76.1321 28.6205C77.2451 30.0166 78.8639 31.4127 80.2805 32.6094C82.6076 34.5042 84.3277 36.0997 84.8336 38.1939C85.2383 39.9889 86.3513 42.2825 86.9583 43.0803C87.0595 43.2798 87.2619 43.4792 87.4642 43.6787C88.476 44.8753 89.9937 46.7701 90.3985 49.4626C90.4996 50.0609 91.4103 52.2548 91.9162 53.5512C93.8386 58.2382 95.0528 61.0305 92.4221 62.7258C90.9044 63.6233 84.8336 63.8227 82.5064 63.8227C77.751 63.8227 71.9837 63.3241 68.0377 61.4294L67.7341 71.4017L72.4896 71.4017C75.1203 71.4017 77.2451 73.4958 77.2451 76.0886C77.2451 78.5817 76.0309 80.277 74.2097 80.9751L72.0849 100.321C71.579 104.609 67.9365 107.801 63.5857 107.801L43.4509 107.801M62.1692 71.5014L62.5739 56.7424C62.3716 56.7424 62.1692 56.7424 61.9669 56.7424C61.3598 56.7424 60.8539 56.6427 60.2468 56.4432C58.5267 55.7452 57.7173 54.4488 57.3126 53.2521C58.8303 63.0249 59.235 68.6094 59.3362 71.5014L62.1692 71.5014M53.3666 71.5014C53.2654 68.5097 52.7595 62.1274 50.7359 49.8615C50.0276 49.662 49.3194 49.3629 48.6111 49.1634C44.058 57.8393 44.4627 67.4127 44.9686 71.5014L53.3666 71.5014"/>
	<path fill="white" d="M64.1831 105.008L43.4443 105.008C40.6117 105.008 38.2849 102.914 37.9814 100.222L35.25 75.1911L54.4713 75.1911L72.2763 75.1911L69.5448 100.222C69.3425 102.914 67.0157 105.008 64.1831 105.008"/>
	<path fill="#2D1B0A" d="M64.183 106.006L43.4443 106.006C40.1058 106.006 37.3744 103.512 36.9697 100.321L34.1371 74.1939L73.4902 74.1939L70.6576 100.321C70.2529 103.512 67.5215 106.006 64.183 106.006M36.4639 76.0886L39.0942 100.022C39.2965 102.216 41.2186 103.911 43.5454 103.911L64.2842 103.911C66.611 103.911 68.5331 102.216 68.7354 100.022L71.3657 76.0886L36.4639 76.0886"/>
	<path fill="#418055" d="M91.2953 11.169C91.2953 11.169 89.9801 3.88927 91.0929 3.0012C92.2057 2.2937 97.1628 6.98068 98.8826 9.37403C100.602 11.7674 103.738 13.5624 104.042 14.9585C104.244 16.3546 105.054 18.1497 105.661 18.9474C106.268 19.7452 107.178 20.7425 107.38 22.2383C107.583 23.7341 109.91 28.6206 109.404 28.9197C108.898 29.2091 96.7582 30.0167 94.0267 26.4267C91.2953 22.8366 91.3964 24.6316 90.1824 24.133C89.0696 23.6344 89.5755 22.0389 88.7661 21.1413C88.058 20.2438 80.066 20.0444 79.5449 15.856C79.0543 11.6677 91.2953 11.169 91.2953 11.169"/>
	<path fill="#2D1B0A" d="M105.054 30.1163C100.805 30.1163 95.1395 29.4182 93.2174 26.9251C91.9022 25.2298 91.3964 25.0304 91.3964 25.0304C91.3964 25.0304 91.2952 25.0304 91.2952 25.0304C90.9917 25.1301 90.4859 25.2298 89.8789 24.9307C88.7661 24.432 88.5638 23.3351 88.3615 22.637C88.2603 22.2381 88.2603 21.939 88.058 21.7395C87.7545 21.6398 86.9451 21.4404 86.3382 21.2409C83.6067 20.5428 79.0543 19.4459 78.5291 15.8559C78.5291 15.0581 78.7508 14.1606 79.2566 13.4625C81.2799 11.0692 87.451 10.2714 90.0813 10.0719C88.9684 3.19105 90.0813 2.39326 90.3848 2.09409C90.5871 1.89465 90.9917 1.7684 91.5987 1.7684C93.8244 2.19382 98.2756 6.68135 99.5907 8.57609C100.299 9.57332 101.412 10.5705 102.322 11.3683C103.637 12.565 104.649 13.4625 104.851 14.5595C105.054 15.7561 105.762 17.4514 106.268 18.1495C106.369 18.2492 106.47 18.4487 106.571 18.5484C107.178 19.3462 107.987 20.3434 108.19 21.8392C108.291 22.3379 108.696 23.5345 109.201 24.6315C110.314 27.6232 110.82 28.8199 109.808 29.4182C109.505 29.9168 107.482 30.1163 105.054 30.1163M91.3964 23.0359C92.3069 23.0359 93.2174 23.6343 94.836 25.7284C96.8593 28.3212 105.559 28.2215 108.392 27.9223C108.19 27.2243 107.785 26.2271 107.482 25.529C106.976 24.1329 106.47 22.9362 106.369 22.2381C106.268 21.3406 105.661 20.5428 105.155 19.9445C105.054 19.7451 104.851 19.6453 104.75 19.4459C104.143 18.5484 103.233 16.6537 103.03 15.0581C102.929 14.6592 101.917 13.7617 101.108 13.0636C100.097 12.1661 98.8826 11.1689 98.0733 9.87249C96.5558 7.67858 93.1162 4.68689 91.8011 4.08855C91.5987 5.18551 91.9022 8.07747 92.408 10.9694L92.6104 12.0664L91.4976 12.1661C88.2603 12.3656 82.4939 13.1633 80.9764 14.8586C80.6729 15.2575 80.6729 15.457 80.6729 15.6564C80.9764 17.8503 84.5172 18.7478 86.9451 19.3462C88.4626 19.7451 89.2719 19.9445 89.6766 20.4431C90.1824 21.0415 90.2836 21.7395 90.3848 22.3379C90.4859 22.8365 90.5871 23.1356 90.6882 23.1356C90.7894 23.1356 90.7894 23.1356 90.8906 23.1356C90.9917 23.0359 91.1941 23.0359 91.3964 23.0359"/>
	<path fill="white" d="M72.9845 78.482L34.5418 78.482C33.5302 78.482 32.822 77.6842 32.822 76.7867C32.822 75.2909 33.6314 74.5928 34.5418 74.5928L72.9845 74.5928C73.996 74.5928 74.7042 75.3906 74.7042 76.2881C74.7042 77.6842 73.996 78.482 72.9845 78.482"/>
	<path fill="#2D1B0A" d="M72.9845 79.4792L34.542 79.4792C33.0245 79.4792 31.8105 78.2826 31.8105 76.7867C31.8105 74.7923 33.0245 73.5956 34.542 73.5956L72.9845 73.5956C74.502 73.5956 75.716 74.7923 75.716 76.2881C75.716 78.2826 74.502 79.4792 72.9845 79.4792M34.542 75.4903C34.1373 75.4903 33.8338 75.7895 33.8338 76.1884C33.8338 77.0859 34.1373 77.385 34.542 77.385L72.9845 77.385C73.3892 77.385 73.6927 77.0859 73.6927 76.687C73.6927 75.7895 73.3892 75.4903 72.9845 75.4903L34.542 75.4903"/>
	<path fill="#2D1B0A" d="M57.3038 74.1939L55.2805 73.8948C55.2805 73.8948 55.8876 68.3102 52.2455 47.0693C50.8292 38.9917 47.9966 33.4072 43.9501 30.8144C40.4093 28.5208 37.0709 29.4183 37.0709 29.4183L36.565 27.5236C36.7674 27.5236 40.7128 26.4266 45.0629 29.1191C49.7164 32.0111 52.7514 37.8948 54.2688 46.6703C58.0119 68.5098 57.4011 73.9945 57.3038 74.1939"/>
	<path fill="#58A169" d="M33.3278 28.8199C33.3278 28.8199 44.8606 27.8227 45.9734 29.518C47.0862 31.2132 39.0942 38.1939 35.1488 40.4875C31.2033 42.7811 27.8649 47.3684 25.7404 47.5678C23.5148 47.7673 20.6822 48.7645 19.3671 49.4626C18.0519 50.2603 16.3321 51.5567 14.0053 51.6565C11.6786 51.7562 3.7877 54.7479 3.28188 53.8504C2.87722 52.9529 3.28188 34.4044 9.25059 30.8144C15.2193 27.1246 12.3867 27.0249 13.2972 25.3296C14.2077 23.6343 16.6356 24.6315 18.1531 23.6343C19.6706 22.6371 21.0869 10.5706 27.6626 10.3676C34.1371 10.072 33.3278 28.8199 33.3278 28.8199"/>
	<path fill="#2D1B0A" d="M3.67849 54.9472C2.97021 54.9472 2.56547 54.7478 2.26192 54.2492C1.65482 52.9528 2.0697 33.806 8.63649 29.9168C12.2791 27.7229 12.1779 27.1245 12.0767 26.6259C11.9755 26.227 11.8744 25.6287 12.3803 24.8309C13.1897 23.4348 14.6063 23.2353 15.7193 23.1356C16.4276 23.0359 17.0347 23.0359 17.5406 22.7367C17.743 22.5373 18.2489 21.1411 18.6537 19.9445C20.0702 15.7561 22.2963 9.2741 27.5578 9.2741C28.772 9.2741 29.7838 9.67299 30.6945 10.5705C34.2359 14.0608 34.4383 24.1328 34.3371 27.7229C39.6998 27.324 45.6697 27.2242 46.7827 29.0193C46.985 29.3184 47.1874 29.817 46.985 30.5151C46.2768 33.5068 39.0927 39.4902 35.6525 41.3849C33.9324 42.3821 32.2122 43.878 30.7957 45.2741C28.8732 47.0691 27.3554 48.4652 25.8377 48.565C23.814 48.7644 21.0821 49.6619 19.8679 50.36C19.6655 50.4597 19.4631 50.6591 19.1596 50.7589C17.9454 51.5566 16.2253 52.5539 13.9992 52.6536C13.0886 52.6536 11.0649 53.2519 9.24359 53.7506C6.41045 54.5483 4.79151 54.9472 3.67849 54.9472M27.659 11.2686C23.7128 11.3683 21.7903 16.9528 20.475 20.6425C19.6655 22.8364 19.3619 23.9334 18.6537 24.432C17.743 25.0303 16.7312 25.1301 15.9217 25.2298C14.8087 25.3295 14.4039 25.4292 14.2016 25.8281C14.1004 26.0276 14.1004 26.1273 14.2016 26.4265C14.4039 28.022 13.898 29.2187 9.85069 31.7118C5.09506 34.6037 4.08323 49.6619 4.28559 53.0525C5.29743 52.9528 7.3211 52.3544 8.83885 51.9555C10.9637 51.3572 12.9874 50.7589 14.1004 50.7589C15.8205 50.6591 17.1359 49.8614 18.2489 49.1633C18.4513 48.9639 18.7548 48.8641 18.9572 48.7644C20.3738 47.9666 23.4093 46.9694 25.7365 46.6702C26.546 46.5705 28.0637 45.1744 29.4803 43.878C30.998 42.4819 32.8194 40.8863 34.7418 39.6896C38.9915 37.2963 44.9614 31.5123 45.1637 30.0165C44.1519 29.4181 38.3844 29.4181 33.5276 29.817L32.4146 29.9168L32.4146 28.8198C32.617 25.1301 32.3134 14.9583 29.3791 12.0663C28.772 11.468 28.2661 11.2686 27.659 11.2686"/>
	<path fill="#2D1B0A" d="M66.1052 74.3933L64.0819 74.2936L64.9924 43.18C65.397 30.9141 68.5331 22.2382 74.2995 17.252C79.8636 12.5651 85.7311 13.0991 85.9335 13.0991L85.7311 15.1579C85.63 15.1579 80.4706 14.6592 75.6147 18.8476C70.253 23.4349 67.4203 31.6121 67.0157 43.2797L66.1052 74.3933"/>
	<path fill="#2D1B0A" d="M41.3199 74.2937C41.2187 73.9944 35.3512 43.9779 61.0471 32.41L61.8563 34.205C37.5768 45.0747 43.1409 73.5956 43.242 73.795L41.3199 74.2937"/>
	<path fill="#A3D1AC" d="M62.7062 33.6066C62.7062 33.6066 60.3793 22.4377 61.9979 21.1413C63.6166 19.8449 71.6087 26.8255 74.34 30.5152C77.0714 34.205 82.0285 36.7978 82.5343 38.9917C82.939 41.0859 84.2542 43.8781 85.1646 45.0748C86.0751 46.2715 87.5927 47.7673 87.9973 50.0609C88.4019 52.3546 92.2462 59.7341 91.4369 60.3324C90.6275 60.831 71.811 62.5263 67.4608 57.1413C63.1107 51.7562 63.313 54.4487 61.4921 53.7507C59.7724 53.0526 60.4804 50.5595 59.1654 49.1634C57.9514 47.7673 45.7104 47.7673 44.667 41.385C43.7883 34.903 62.7062 33.6066 62.7062 33.6066"/>
	<path fill="#2D1B0A" d="M83.0944 61.928C76.9191 61.928 69.3265 61.0305 66.5932 57.6399C63.9611 54.349 63.3537 54.5485 62.9488 54.6482C62.5438 54.7479 61.9364 54.9474 61.1265 54.6482C59.608 54.0499 59.3043 52.6537 59.1018 51.5568C59.0006 50.8587 58.7981 50.2604 58.4944 49.8615C58.1907 49.6621 56.7734 49.3629 55.5586 49.0637C51.2056 48.0665 44.5241 46.6704 43.7547 41.4848C43.613 40.2881 43.9167 39.1911 44.7266 38.1939C47.8648 34.3047 57.9883 33.108 61.5315 32.7091C60.5191 27.5235 59.8105 21.6399 61.4302 20.3435C61.7339 20.144 62.1389 19.9446 62.9488 19.9446C65.9858 20.3435 72.8697 26.7258 75.1981 29.8172C76.4129 31.4127 78.1339 32.9086 79.6524 34.205C81.6771 35.9003 83.1956 37.1967 83.4993 38.6925C83.9043 40.687 85.1191 43.2798 85.929 44.3767C86.1314 44.5762 86.2327 44.7756 86.4351 44.9751C87.3463 46.072 88.5611 47.6676 88.966 49.7618C89.0672 50.5596 89.8771 52.554 90.5858 54.2493C92.408 58.6371 93.0154 60.2327 91.9018 60.9307C91.2944 61.4294 87.5487 61.928 83.0944 61.928M63.2525 52.554C64.4673 52.554 65.7833 53.4515 68.1077 56.3435C71.6549 60.7313 86.8401 60.0332 90.2821 59.4349C90.0796 58.4377 89.1685 56.5429 88.6623 55.1468C87.8524 53.1524 87.0425 51.2576 86.8401 50.1607C86.5364 48.5651 85.6253 47.3684 84.7142 46.2715C84.5117 46.072 84.3092 45.7729 84.208 45.5734C83.1956 44.277 81.8796 41.385 81.3734 39.0914C81.171 38.2936 79.6524 36.9972 78.1339 35.7008C76.5142 34.3047 74.6919 32.8089 73.3759 31.0139C70.6426 27.4238 64.0623 21.9391 62.4426 21.8393C61.9364 22.8366 62.5438 28.5208 63.5562 33.3075L63.7586 34.4044L62.645 34.5042C58.8994 34.8033 48.6747 36.0997 46.1438 39.2909C45.7389 39.8892 45.5364 40.3878 45.6377 40.9862C46.2451 44.7756 52.0154 46.072 55.8623 46.8698C58.1907 47.3684 59.3043 47.6676 59.9117 48.2659C60.6204 49.0637 60.8228 50.0609 61.0253 50.8587C61.2278 51.856 61.329 52.3546 61.8352 52.554C62.0376 52.6537 62.1389 52.6537 62.4426 52.554C62.7463 52.6537 62.9488 52.554 63.2525 52.554"/>
</svg>
