<?xml version="1.0" encoding="utf-8" ?>
<svg xmlns="http://www.w3.org/2000/svg" xmlns:xlink="http://www.w3.org/1999/xlink" width="76" height="128">
	<path fill="white" d="M37.4 128C16.8 128 0 111.014 0 90.1864C0 81.4913 3 73.0995 8.3 66.4265C8.7 59.8547 13.5 53.7883 13.7 53.5861C14.3 53.2828 14.3 52.6761 14.3 51.9684C14.3 47.4186 15.6 42.97 18.1 39.2291L33.8 0L47.8 0L68.3 28.1074C72.7 28.8152 76 32.6572 76 37.207C76 42.2622 71.9 46.4076 66.9 46.4076C61.9 46.4076 57.8 42.2622 57.8 37.207C57.8 36.1959 58 35.1848 58.3 34.2749L53.9 29.0174L56.8 39.6335C59.1 43.3744 60.3 47.6209 60.3 52.0695C60.3 52.3728 60.3 52.7773 60.3 53.0806C66.1 57.4281 68.9 62.9889 67.8 68.3476C72.3 74.8183 74.7 82.3002 74.7 90.2875C74.8 111.115 58 128 37.4 128"/>
	<path fill="#EEF7FF" d="M71.8 90.0854C71.8 109.294 56.3986 124.866 37.4 124.866C18.4014 124.866 3 109.294 3 90.0854C3 70.8766 18.4014 55.305 37.4 55.305C56.3986 55.305 71.8 70.8766 71.8 90.0854"/>
	<path fill="#2C180C" d="M37.4 125.877C17.9 125.877 2 109.801 2 90.0853C2 70.3696 17.9 54.2938 37.4 54.2938C56.9 54.2938 72.8 70.3696 72.8 90.0853C72.8 109.801 56.9 125.877 37.4 125.877M37.4 56.3159C19 56.3159 4 71.4818 4 90.0853C4 108.689 19 123.855 37.4 123.855C55.8 123.855 70.8 108.689 70.8 90.0853C70.8 71.4818 55.8 56.3159 37.4 56.3159"/>
	<path fill="#EEF7FF" d="M57.4 51.8674C57.4 63.0352 48.4457 72.0885 37.4 72.0885C26.3543 72.0885 17.4 63.0352 17.4 51.8674C17.4 40.6995 26.3543 31.6462 37.4 31.6462C48.4457 31.6462 57.4 40.6995 57.4 51.8674"/>
	<path fill="#2C180C" d="M37.4 73.0997C25.8 73.0997 16.4 63.5957 16.4 51.8674C16.4 40.1392 25.8 30.6352 37.4 30.6352C49 30.6352 58.4 40.1392 58.4 51.8674C58.4 63.5957 48.9 73.0997 37.4 73.0997M37.4 32.5562C26.9 32.5562 18.4 41.1502 18.4 51.7663C18.4 62.3824 26.9 70.9764 37.4 70.9764C47.9 70.9764 56.4 62.3824 56.4 51.7663C56.4 41.1502 47.8 32.5562 37.4 32.5562"/>
	<path fill="#FD003A" d="M20.7 40.4425L35.8 2.83105L46.3 2.83105L69 33.9716L63.3 35.4883L47.3 15.9748L54.1 40.6446"/>
	<path fill="#2D190C" d="M55.4 41.6557L19.3 41.4535L35.2 1.82L46.9 1.82L70.8 34.5783L63 36.4993L49.6 20.2213L55.4 41.6557M22.2 39.5325L52.7 39.7347L45.05 11.8295L63.6 34.3761L67.3 33.4661L45.7 3.94322L36.4 3.94322L22.2 39.5325"/>
	<path fill="#D7E9FF" d="M73 37.0047C73 40.4109 70.2689 43.1721 66.9 43.1721C63.5311 43.1721 60.8 40.4109 60.8 37.0047C60.8 33.5985 63.5311 30.8372 66.9 30.8372C70.2689 30.8372 73 33.5985 73 37.0047"/>
	<path fill="#2C180C" d="M66.9 44.6888C62.7 44.6888 59.3 41.2512 59.3 37.0047C59.3 32.7583 62.7 29.3207 66.9 29.3207C71.1 29.3207 74.5 32.7583 74.5 37.0047C74.5 41.2512 71.1 44.6888 66.9 44.6888M66.9 32.3538C64.4 32.3538 62.3 34.4771 62.3 37.0047C62.3 39.5323 64.4 41.6555 66.9 41.6555C69.4 41.6555 71.5 39.5323 71.5 37.0047C71.5 34.4771 69.5 32.3538 66.9 32.3538"/>
	<path fill="#994C0F" d="M41.5 54.0916C41.5 56.381 39.6644 58.2369 37.4 58.2369C35.1356 58.2369 33.3 56.381 33.3 54.0916C33.3 51.8022 35.1356 49.9463 37.4 49.9463C39.6644 49.9463 41.5 51.8022 41.5 54.0916"/>
	<path fill="#2B170C" d="M37.4 59.3491C34.6 59.3491 32.3 57.0237 32.3 54.1927C32.3 51.3617 34.6 49.0363 37.4 49.0363C40.2 49.0363 42.5 51.3617 42.5 54.1927C42.5 57.0237 40.2 59.3491 37.4 59.3491M37.4 50.9573C35.7 50.9573 34.3 52.3728 34.3 54.0916C34.3 55.8104 35.7 57.2259 37.4 57.2259C39.1 57.2259 40.5 55.8104 40.5 54.0916C40.5 52.3728 39.1 50.9573 37.4 50.9573"/>
	<path fill="#0CA656" d="M42.1 77.6492L42.1 90.793C42.1 92.5118 43.2 93.9273 44.6 93.9273L54.8 93.9273C56.2 93.9273 57.3 92.5118 57.3 90.793L57.3 71.8862L42.1 77.6492"/>
	<path fill="#2B170C" d="M54.8 94.9382L44.6 94.9382C42.6 94.9382 41.1 93.1183 41.1 90.7929L41.1 76.9414L58.3 70.3695L58.3 90.6918C58.3 93.1183 56.8 94.9382 54.8 94.9382M43.1 78.3569L43.1 90.7929C43.1 91.905 43.8 92.9161 44.6 92.9161L54.8 92.9161C55.6 92.9161 56.3 91.905 56.3 90.7929L56.3 73.4027L43.1 78.3569"/>
	<path fill="#32D736" d="M16.0001 55.305C16.0001 55.305 6.30009 67.5387 14.5001 74.1106C22.7001 80.6825 39 85.839 53.4001 78.8626C70.6001 70.4708 65.5 60.4613 58.5 55.305C58.5 55.305 52 68.8531 33.2001 66.9322C13.6001 64.8089 16.0001 55.305 16.0001 55.305"/>
	<path fill="#2C180C" d="M38.5908 83.2102C29.1908 83.2102 20.0908 79.7726 13.9908 74.9195C11.8908 73.2007 10.6908 71.0775 10.3282 68.4487C9.69077 61.8768 15.0908 54.9005 15.2908 54.5972L18.1908 50.8563L16.9908 55.4061C16.9908 55.5072 16.4908 57.4282 18.0908 59.6525C19.6908 61.8768 23.5908 64.8089 33.3908 65.82C51.2908 67.6399 57.5908 54.9005 57.6908 54.6983L58.1908 53.5862L59.1908 54.2939C63.9908 57.8326 66.4908 62.2813 66.1323 66.5277C65.6908 71.4819 61.5908 75.8294 53.9908 79.5704C48.9908 82.098 43.6908 83.2102 38.5908 83.2102M15.1908 58.3381C13.6908 60.7647 11.8908 64.7078 12.2908 68.2465C12.4908 70.2686 13.4908 71.9874 15.1908 73.3018C22.3908 79.0648 38.3908 85.0301 52.9908 77.9527C59.7908 74.6162 63.6908 70.673 63.9908 66.5277C64.3908 62.1802 60.9908 58.5403 58.7908 56.7204C56.6908 59.9558 49.1908 69.5609 33.0908 67.8421C24.5908 66.9321 18.9908 64.6067 16.2908 60.7647C15.7908 59.9558 15.3908 59.0459 15.1908 58.3381"/>
</svg>
