<?xml version="1.0" encoding="utf-8" ?>
<svg xmlns="http://www.w3.org/2000/svg" xmlns:xlink="http://www.w3.org/1999/xlink" width="74" height="112">
	<path fill="white" d="M24.0108 112C19.926 112 16.7378 107.915 16.4389 102.434L13.9482 64.5694L24.8078 64.5694C24.9075 61.3808 24.7082 56.6975 23.5127 51.9146C23.3134 51.0178 23.0145 50.3203 22.7156 49.7224C22.616 49.7224 22.5164 49.8221 22.4167 49.8221C22.2175 49.9217 22.0182 50.0214 21.819 50.121C19.3282 51.2171 16.5386 52.0142 13.6493 52.4128C12.3541 52.6121 11.1586 52.6121 9.96299 52.7117C9.26558 52.7117 8.56817 52.7117 7.97039 52.8114C7.57187 52.8114 6.97409 52.911 6.37631 52.911C4.18446 52.911 2.59038 52.3132 1.49445 51.1174C0.996299 50.6192 0.697409 49.9217 0.597779 49.2242C0.597779 48.9253 0.49815 48.6263 0.597779 48.427L1.39482 45.637C1.69371 45.1388 4.18446 40.7544 10.0626 38.6619C10.76 38.2633 12.3541 37.5658 14.4463 37.5658C16.6382 37.5658 19.7267 38.363 22.8153 41.9502C23.0145 42.1495 23.413 42.3488 23.7119 42.6477C23.8115 42.7473 24.0108 42.7473 24.1104 42.847C26.7008 44.3416 28.4942 47.032 29.4905 50.8185C29.4905 50.9181 29.5901 51.0178 29.5901 51.2171C29.5901 50.8185 29.5901 50.3203 29.4905 49.8221C29.2912 44.5409 28.2949 39.2598 26.5016 33.9786C26.4019 33.9786 26.3023 33.9786 26.2027 33.9786C25.0071 33.9786 18.6308 33.5801 14.1474 25.5089C10.1623 18.3345 11.5571 8.37011 11.7563 7.27402L12.0552 5.18149C12.5534 3.58719 13.5497 2.19217 14.1474 1.29537L15.2434 0.398577C15.5423 0.199288 16.0404 0 16.7378 0C17.9334 0 19.3282 0.498221 21.4204 1.69395L22.8153 2.4911C30.2875 7.57295 35.3686 21.5231 35.5679 25.6085C35.6675 28 34.4719 30.1922 32.0808 31.7865C33.9738 37.5658 35.0697 43.5445 35.3686 49.4235C35.4682 52.5125 35.6675 56 35.7671 59.3879C36.4645 54.605 37.959 48.427 40.8483 42.4484C38.5568 38.7616 39.1546 34.9751 39.4534 33.9786C40.3501 26.8043 49.2172 20.8256 50.612 19.9288C56.8887 15.1459 62.3683 12.6548 67.0509 12.6548C70.4383 12.6548 72.2317 14.0498 72.5306 14.2491L73.4272 15.4448C74.6228 18.6335 73.9254 22.2206 71.5343 25.9075C70.4383 27.6014 69.3424 29.1957 68.1469 30.79C67.3498 31.9858 66.8517 32.6833 66.2539 33.3808C62.6672 37.4662 59.0805 41.3523 54.9957 44.8399C54.3979 45.4377 53.9994 45.7367 53.5013 46.1352C51.8076 47.331 50.1138 47.9288 48.5198 47.9288C48.0216 47.9288 47.5235 47.8292 47.0253 47.7295C46.4275 47.6299 45.9294 47.331 45.4312 47.1317C42.542 53.8078 41.6453 60.6833 41.3464 64.669L52.0068 64.669L49.5161 102.534C49.1175 107.915 45.9294 112 41.9442 112L24.0108 112"/>
	<path fill="#529873" d="M70.1395 16.12C70.1395 16.12 65.1581 11.7356 51.9072 21.8993C51.9072 21.8993 42.6417 27.7784 42.0439 34.056C42.0439 34.056 40.6491 38.9384 44.9332 42.6253C44.9332 42.6253 46.9257 46.5115 51.3095 43.3228C51.8076 43.0238 52.2062 42.6253 52.6047 42.2267C56.5899 38.8389 60.0769 34.9526 63.5639 30.9669C64.1618 30.2695 64.7595 29.4722 65.3573 28.6751C66.4532 27.1805 67.5491 25.5862 68.6451 23.9918C70.0398 21.7 71.1358 18.8104 70.1395 16.12"/>
	<path fill="#2D1B0A" d="M48.0087 45.5374C47.6098 45.5374 47.3107 45.5374 46.9119 45.4377C45.2168 45.0391 44.3195 43.7438 44.0203 43.2455C39.7328 39.4591 40.6875 34.6761 40.9293 33.879C41.6273 27.3025 50.9002 21.3238 51.2991 21.1245C64.9592 10.6619 70.5429 15.1459 70.7423 15.3452C71.9388 18.3345 71.4677 21.3238 69.3464 24.5124C68.3493 26.1068 67.1528 27.7011 66.056 29.2954C65.2583 30.3914 64.7598 31.089 64.2612 31.6868C60.7714 35.6726 57.1819 39.5587 53.1935 43.0463C52.5953 43.6441 52.1965 43.943 51.8973 44.1423C50.5014 45.1388 49.3049 45.5374 48.0087 45.5374M66.6543 16.242C64.0618 16.242 59.4752 17.4377 52.4956 22.8185C52.2962 22.9181 43.5218 28.5979 43.0232 34.2776C43.0232 34.6761 41.9264 38.8612 45.6157 41.9502C45.9148 42.2491 46.5131 43.3452 47.6098 43.5445C48.5072 43.7438 49.604 43.4448 50.8005 42.548C51.0997 42.3487 51.3988 42.1495 51.6979 41.8505C55.9854 38.1637 59.4752 34.3772 62.965 30.3914C63.4636 29.7936 63.9621 29.1957 64.361 28.5979C65.7569 26.605 66.8537 25.0107 67.8508 23.4164C68.9476 21.6228 70.1441 19.1317 69.4461 16.7402C68.9476 16.6406 68.0502 16.242 66.6543 16.242"/>
	<path fill="#529873" d="M3.08 48.4271C3.08 47.8292 3.78591 47.331 4.38369 47.2313C3.58665 46.7331 5.77851 42.847 10.8596 41.0534C10.8596 41.0534 15.5422 37.8648 20.4241 43.9431C20.4241 43.9431 23.7119 45.637 20.8226 47.032C20.723 47.1317 20.5237 47.1317 20.3245 47.2313C17.9334 48.2278 15.4426 48.9253 12.8522 49.3239C10.9593 49.6228 9.16593 49.5231 7.37259 49.6228C6.0774 49.7224 4.28406 49.9217 3.28776 48.8256C3.18813 48.6263 3.18813 48.5267 3.08 48.4271"/>
	<path fill="#2D1B0A" d="M5.97775 50.6193C4.78219 50.6193 3.38738 50.42 2.59034 49.4235C2.39108 49.2243 2.1659 48.9253 2.1659 48.5267C2.1659 48.0285 2.29145 47.5303 2.59034 47.1317C2.88923 45.9359 5.18071 41.9502 10.5607 40.0569C11.4574 39.5587 16.3393 37.1673 21.2211 43.0463C21.8189 43.3452 23.1141 44.3416 23.1141 45.637C23.1141 46.5338 22.5163 47.2313 21.3208 47.8292C21.2211 47.9288 21.0219 47.9288 20.9222 48.0285C18.5311 49.0249 15.9407 49.8221 13.1511 50.2206C11.9556 50.42 10.76 50.42 9.66406 50.42C8.96665 50.42 8.26924 50.42 7.57183 50.5196C7.07368 50.5196 6.57553 50.6193 5.97775 50.6193M4.28404 48.2278C4.98145 48.726 6.37627 48.5267 7.27294 48.5267C8.06998 48.4271 8.76739 48.4271 9.56443 48.4271C10.6604 48.4271 11.7563 48.3274 12.7526 48.2278C15.343 47.8292 17.7341 47.1317 19.9259 46.2349C20.1252 46.1352 20.2248 46.1352 20.3245 46.0356C20.9222 45.7367 21.0219 45.5374 21.0219 45.5374C21.0219 45.3381 20.4241 44.9395 20.0256 44.6406C15.5422 39.1548 11.6567 41.5516 11.4574 41.6513C7.97035 42.9466 5.97775 45.0392 5.08108 46.2349L7.27294 47.6299L4.68256 48.0285C4.4833 48.1281 4.38367 48.2278 4.28404 48.2278"/>
	<path fill="#A1D2AA" d="M16.0404 2.55155C16.0404 2.55155 14.0478 5.38097 14.4463 6.67634C14.1474 7.37385 12.653 17.2387 16.2397 23.7155C19.8263 30.1924 24.9075 30.7903 26.2027 30.591C27.3982 30.3916 32.2801 28.8969 32.0868 25.4095C31.9812 22.0215 26.8004 8.07136 19.926 4.48417C19.4278 3.78666 16.6382 2.292 16.0404 2.55155"/>
	<path fill="#2D1B0A" d="M25.708 31.4877C23.5155 31.4877 18.8317 30.1932 15.3437 24.1192C11.5568 17.4477 13.0516 7.58988 13.1513 7.19158C13.2509 4.8018 14.7458 2.71074 15.1444 2.1133C15.7424 1.6628 16.5396 1.31671 19.7286 3.10904C27.5018 7.39073 32.7836 21.5303 32.9886 25.4137C33.1822 29.3966 28.0997 31.2885 26.3059 31.5873C26.2063 31.4877 26.007 31.4877 25.708 31.4877M15.0448 8.08775C14.7458 10.3779 14.2475 17.9456 17.1375 23.0239C20.5259 28.9983 25.0104 29.5958 26.1066 29.3966C27.1032 29.1975 31.2888 27.903 31.1891 25.3141C31.0894 22.0281 26.2063 9.28264 20.1272 5.49882L18.732 6.59414L18.5327 4.4035C17.8351 4.00521 17.0379 3.70649 16.6392 3.50734C15.9417 4.60265 15.3437 5.89712 15.4434 6.29541L16.0413 7.8886"/>
	<path fill="#291A0F" d="M28.1953 68.3559L26.2027 68.1566C26.2027 68.057 27.0993 59.6869 25.1068 51.2171C24.509 48.6264 23.3134 46.7332 21.7194 45.8363C19.6271 44.6406 17.3356 45.2385 17.3356 45.2385L16.7379 43.3452C16.7379 43.3452 19.8264 42.4485 22.7156 44.0428C24.8079 45.2385 26.3023 47.5303 27.0993 50.7189C29.1916 59.5872 28.1953 68.057 28.1953 68.3559"/>
	<path fill="#291A0F" d="M33.6749 68.6548L31.6824 68.3558C31.6824 68.3558 31.6824 66.6619 30.8853 49.2242C30.0882 30.8896 20.4242 17.637 20.4242 17.5373L22.0182 16.3416C22.4167 16.9395 31.9813 30.1921 32.8778 49.1245C33.376 57.6939 33.7746 68.1565 33.6749 68.6548"/>
	<path fill="#291A0F" d="M36.7588 67.9573C36.7588 67.1601 36.1658 47.3309 48.3207 34.1779C60.077 21.4235 63.9626 19.8291 64.3611 19.7295L64.9588 21.6227C64.8592 21.7224 61.1729 23.217 49.7155 35.5729C38.1584 48.0284 38.7561 67.758 38.7561 67.8576L36.7588 67.9573"/>
	<path fill="white" d="M41.3465 108.712L23.712 108.712C21.3209 108.712 19.3283 105.822 19.0294 102.036L16.7379 67.3593L33.0772 67.3593L48.221 67.3593L45.9295 102.036C45.7302 105.822 43.7376 108.712 41.3465 108.712"/>
	<path fill="#2D1B0A" d="M41.3463 109.708L23.7118 109.708C20.8226 109.708 18.3318 106.42 18.0329 102.036L15.6418 66.2634L49.2171 66.2634L46.826 102.036C46.6267 106.42 44.2356 109.708 41.3463 109.708M17.8337 68.2563L20.1252 101.936C20.3244 105.125 21.9185 107.715 23.8115 107.715L41.3463 107.715C43.1397 107.715 44.7337 105.224 45.0326 101.936L47.3241 68.2563L17.8337 68.2563"/>
</svg>
