<?xml version="1.0" encoding="utf-8" ?>
<svg xmlns="http://www.w3.org/2000/svg" xmlns:xlink="http://www.w3.org/1999/xlink" width="86" height="104">
	<path fill="white" d="M82.8146 9.8C82.715 9.7 82.6155 9.7 82.4164 9.6C82.715 7.8 82.1178 6.1 80.6246 4.9C79.1314 3.7 76.8419 3 74.3533 3C73.6565 3 72.7606 3.1 71.9643 3.3C71.6656 2.9 71.367 2.5 70.8693 2.2C69.4756 1.4 64.4984 0 59.3221 0C55.7385 0 52.5531 0.7 49.8654 1.9C46.3814 3.6 44.2909 5.8 43.8928 8.5C43.7932 8.8 43.7932 9.1 43.7932 9.4C42.6982 9.6 41.5037 10.1 40.2096 11C39.5128 11.5 38.816 12.1 38.2187 12.8C34.1374 14.7 30.0561 17.7 28.9611 22.1C28.3639 24.3 28.6625 26.6 29.6579 29C29.2597 28.8 28.9611 28.7 28.6625 28.6C28.4634 26.7 27.2689 25.1 25.1784 23.6C22.2916 21.7 18.8076 21.3 16.4185 21.3C14.5272 21.3 12.6359 21.6 11.6404 21.9C10.3463 21.9 9.64952 21.8 8.95271 21.8C7.65864 21.8 6.4641 22.1 5.46866 22.7C4.37367 23.4 3.67686 24.4 3.47778 25.6C2.08416 26.4 1.18826 28 0.989168 30C0.989168 30.4 0.989168 30.8 1.08871 31.1C0.690535 32 0.690535 33 0.690535 33.7C0.690535 34.2 0.790079 34.7 0.989168 35.2C0.889624 35.9 0.590991 36.8 0.391902 37.4C0 38.4 -0.404452 39.7 0.590991 41L1.58643 42.2L3.0796 42.2C3.47778 42.2 3.77641 42.1 3.9755 42C4.17459 41.9 4.47322 41.9 4.8714 41.9C5.26957 41.9 5.56821 42 5.86684 42.2C6.76274 42.6 6.96183 42.7 7.26046 42.8C8.55453 44 10.4459 44.1 11.1427 44.1C11.2422 44.1 11.4413 44.1 11.5409 44.1C12.6359 45.4 14.3281 45.7 15.3235 45.9C15.9208 46.1 16.1199 46.1 16.4185 46.1C16.9163 46.1 17.3144 46 17.6131 45.9C17.6131 45.9 17.6131 46 17.7126 46C19.3053 47.8 21.7939 47.8 22.5903 47.8C23.1875 47.8 23.7848 47.8 24.2825 47.7C25.278 47.7 25.8752 47.5 26.4725 47.1C26.7711 47.3 27.0698 47.5 27.468 47.7L28.6625 48.1C28.4634 51.7 28.2643 55.5 28.2643 59.6L14.7263 59.6C12.2377 59.6 10.1472 61.6 10.1472 64.2L10.1472 66.1C10.1472 68.2 11.5409 69.9 13.4322 70.5L15.7217 95.2C16.2194 100.2 20.0021 104 24.5812 104L46.7795 104C51.3586 104 55.1413 100.2 55.639 95.2L57.9285 70.4C59.7203 69.8 61.1139 68.1 61.1139 66.1L61.1139 64.2C61.1139 61.7 59.123 59.6 56.5349 59.6L46.4809 59.6C45.1868 49.3 42.3996 42.4 39.4133 37.7C40.2096 37.4 40.9064 36.8 41.2051 35.9C41.2051 35.9 41.3046 35.6 41.4042 35.5C41.5037 35.9 41.7028 36.3 41.9019 36.7C42.4991 37.6 43.395 38.3 44.3905 38.5C46.3814 38.9 48.1732 39.3 49.965 39.3C51.9558 39.3 53.5486 38.8 54.7431 37.8C55.1413 37.4 55.639 36.9 56.0372 36.3C56.734 37.3 57.7294 37.9 59.123 37.9C59.2226 37.9 59.3221 37.9 59.4217 37.9C61.6116 37.8 64.3989 37.6 66.0911 35.5C66.0911 35.5 66.0911 35.5 66.1907 35.4C66.6884 35.6 67.2857 35.8 67.7834 35.8C68.3807 35.9 68.9779 35.9 69.4756 35.9C71.367 35.9 72.7606 35.4 73.7561 34.5C73.8556 34.5 74.0547 34.5 74.1542 34.5C74.5524 34.5 74.9506 34.4 75.3488 34.3C76.7424 33.6 77.4392 33.4 78.3351 33.4C79.5296 33.4 80.5251 33.8 81.0228 34.1C81.3214 34.2 81.6201 34.4 82.1178 34.5L83.6109 34.7L84.7059 33.6C85.9005 32.4 85.6018 31 85.3032 29.4C85.1041 28.1 84.7059 26 84.905 24.5C85.3032 23.9 85.6018 23.2 85.7014 22.5C85.9005 21.1 86.0995 19.6 85.5023 18.2C85.8009 17.7 86 17 86 16.4C85.7014 13.4 84.7059 11 82.8146 9.8M34.1374 59.7C34.237 53.1 34.5356 47.5 34.9338 42.8C34.9338 42.7 35.0333 42.6 35.0333 42.6C37.2233 46.4 39.1146 52 40.2096 59.8L34.1374 59.8"/>
	<path fill="#58AA38" d="M24.6039 30.7002C24.6039 30.7002 27.5891 28.5002 23.5093 25.7002C19.4295 23.0001 12.8619 24.1001 12.7624 24.3001C12.7624 24.5001 16.6432 25.8001 16.0462 26.7002C15.4492 27.6002 12.6629 26.2002 11.4688 25.2002C10.2747 24.1001 6.09539 24.2001 6.59292 26.2002C7.09046 28.2002 13.1604 26.4002 13.3594 28.2002C13.5584 30.0002 7.588 28.8002 6.39391 27.9002C5.19982 27.0002 4.20474 28.3002 4.10523 29.9002C4.00572 31.5002 8.68259 29.6002 8.98111 30.8002C9.27963 32.0002 6.2944 31.6002 5.10031 31.5002C3.90621 31.4002 3.80671 31.8002 3.80671 33.4002C3.80671 35.0002 6.79194 33.2001 6.99096 34.2001C7.09046 35.2001 4.30425 34.4002 4.10523 34.6002C4.10523 36.6002 2.91114 38.9002 3.16175 38.9002C3.40868 38.9002 5.79686 37.9002 7.88653 39.6002C8.8816 40.1002 8.8816 37.6002 9.97619 37.2001C11.1703 36.8002 9.87668 38.8002 9.47865 39.5002C9.08062 40.2001 9.47865 40.8001 11.4688 40.9002C13.459 41.0002 13.0609 36.7001 14.0561 36.5002C14.9515 36.3002 14.4541 38.6002 13.8569 40.5002C13.2599 42.3001 15.0511 42.6002 16.4441 42.9002C17.7378 43.2001 18.4343 36.4002 19.728 35.9002C21.0215 35.5002 20.325 38.9002 19.728 42.0002C19.131 45.0002 22.8126 44.5002 24.6039 44.4002C26.395 44.3001 23.4097 36.6002 25.1013 36.6002C26.5939 36.6002 28.1861 43.3001 28.4846 44.5002C28.4846 44.6002 28.5841 44.6002 28.5841 44.6002C41.1222 36.4002 24.6039 30.7002 24.6039 30.7002"/>
	<path fill="#2D1B0A" d="M28.5828 45.5875C27.7866 45.2875 27.488 44.9875 27.488 44.6875C26.6918 41.3875 26.0946 39.5875 25.5969 38.5875C25.6965 39.0875 25.796 39.6875 25.796 40.1875C26.1941 42.4875 26.3932 43.9875 25.6965 44.7875C25.3979 45.0875 25.0993 45.2875 24.6016 45.3875C22.7106 45.4875 20.4214 45.6875 19.3266 44.3875C18.7294 43.6875 18.5304 42.8875 18.7294 41.7875C18.9285 40.7875 19.028 40.0875 19.2271 39.3875C19.2271 39.4875 19.1275 39.5875 19.1275 39.6875C18.4308 42.0875 17.8337 44.1875 16.2412 43.8875C14.9473 43.5875 13.6534 43.2875 12.9567 42.2875C12.8572 42.0875 12.7577 41.7875 12.6581 41.5875C12.26 41.8875 11.8619 41.9875 11.2647 41.9875C10.2694 41.9875 8.87601 41.7875 8.37836 40.8875C8.37836 40.8875 8.27884 40.7875 8.27884 40.6875C7.98025 40.7875 7.68166 40.7875 7.28354 40.5875C5.59154 39.3875 4.0986 39.7875 3.50143 39.9875C3.30237 39.9875 3.20284 40.0875 3.00378 40.0875C1.80943 39.1875 1.9846 38.7875 2.30708 37.8875C2.60566 37.0875 3.00378 35.7875 3.00378 34.7875C2.80472 34.3875 2.70519 33.9875 2.70519 33.5875C2.70519 32.6875 2.70519 31.6875 3.30237 31.1875C3.00378 30.8875 2.90425 30.4875 3.00378 30.0875C3.10331 28.6875 3.80002 27.4875 4.69578 27.0875C4.99437 26.9875 5.19343 26.8875 5.49201 26.8875C5.49201 26.7875 5.49201 26.7875 5.39248 26.6875C5.19343 25.7875 5.59154 24.8875 6.38778 24.3875C7.68166 23.5875 10.2694 23.6875 11.5633 24.4875C11.5633 24.4875 11.5633 24.4875 11.5633 24.3875C13.2553 23.1265 19.6252 22.2875 23.9049 25.0875C25.5969 26.1875 26.4927 27.4875 26.4927 28.7875C26.4927 29.4875 26.2936 29.9875 26.0946 30.4875C28.5828 31.5875 33.6588 34.1875 34.1565 38.0875C34.4551 40.6875 32.7631 43.1875 28.9809 45.5875M19.8242 34.7875C20.1228 34.7875 20.5209 34.8875 20.72 35.0875C21.7153 35.9875 21.4167 37.8875 20.72 41.6875C20.5209 42.4875 20.6205 42.7875 20.72 42.9875C21.2176 43.5875 23.1087 43.3875 24.0045 43.3875C24.2035 42.7875 23.9049 41.3875 23.8054 40.4875C23.4073 38.1875 23.3078 36.7875 23.9049 35.9875C24.2035 35.6875 24.6016 35.4875 24.9998 35.4875C26.0946 35.4875 27.3885 36.3875 28.9809 42.8875C31.2701 41.1875 32.3649 39.5875 32.1659 38.0875C31.7678 34.8875 26.2936 32.3875 24.2035 31.5875L22.412 30.9875L23.9049 29.8875C23.9049 29.8875 24.6016 29.2875 24.6016 28.6875C24.6016 28.0875 24.0045 27.2875 22.9096 26.5875C20.8195 25.1875 18.0327 24.8875 15.9426 24.9875C16.5398 25.3875 16.9379 25.7875 17.0374 26.2875C17.1369 26.6875 17.0374 27.0875 16.8384 27.3875C16.6393 27.6875 16.3407 27.9875 15.644 28.0875C15.2459 28.1875 14.7482 28.0875 14.2506 27.8875C14.2506 27.9875 14.2506 28.0875 14.3501 28.1875C14.4497 28.8875 14.1511 29.4875 13.4544 29.7875C12.5586 30.2875 11.1652 30.2875 9.67225 29.9875C9.77178 30.1875 9.87131 30.3875 9.97083 30.5875C10.0704 31.0875 9.97083 31.5875 9.67225 31.8875C8.87601 32.7875 7.28354 32.6875 5.29296 32.4875C4.89484 32.4875 4.89484 32.4875 4.79531 32.4875C4.79531 32.6875 4.79531 32.8875 4.79531 33.0875C4.99437 33.0875 5.19343 32.9875 5.39248 32.9875C6.08919 32.8875 6.7859 32.7875 7.38307 33.1875C7.68166 33.3875 7.88072 33.6875 7.88072 34.0875C7.88072 34.4875 7.78119 34.8875 7.4826 35.1875C6.88542 35.7875 5.89013 35.6875 4.99437 35.5875C4.89484 36.2875 4.69578 36.9875 4.49672 37.5875C5.39248 37.4875 6.68637 37.5875 7.88072 38.3875C7.88072 38.2875 7.98025 38.2875 7.98025 38.1875C8.27884 37.4875 8.67695 36.5875 9.67225 36.1875C10.568 35.8875 11.0657 36.2875 11.1652 36.4875C11.7624 37.2875 11.2647 38.2875 10.4685 39.6875C10.6675 39.6875 10.9661 39.7875 11.4638 39.7875C11.8619 39.7875 12.1605 38.4875 12.26 37.7875C12.5586 36.6875 12.7577 35.5875 13.7529 35.3875C14.2506 35.2875 14.7482 35.3875 15.0468 35.7875C15.3454 36.0875 15.9426 36.7875 14.7482 40.6875C14.6487 40.9875 14.6487 41.0875 14.7482 41.1875C14.8478 41.4875 15.7435 41.5875 16.2412 41.7875C16.5398 41.2875 16.9379 39.9875 17.1369 39.0875C17.8337 36.5875 18.2318 35.1875 19.3266 34.8875C19.5257 34.7875 19.6252 34.7875 19.8242 34.7875M5.0939 29.5875C5.49201 29.5875 6.08919 29.5875 6.48731 29.4875C6.7859 29.4875 6.98495 29.3875 7.28354 29.3875C6.58684 29.1875 6.08919 28.8875 5.7906 28.6875C5.69107 28.5875 5.59154 28.5875 5.59154 28.5875C5.49201 28.6875 5.19343 28.9875 5.0939 29.5875M8.87601 25.4875C8.57742 25.4875 8.37836 25.4875 8.17931 25.5875C7.68166 25.6875 7.4826 25.8875 7.4826 25.8875C7.78119 26.1875 9.37366 26.2875 10.1699 26.2875C10.568 26.2875 10.8666 26.2875 11.2647 26.2875C11.0657 26.1875 10.9661 25.9875 10.7671 25.8875C10.4685 25.6875 9.67225 25.4875 8.87601 25.4875"/>
	<path fill="white" d="M46.7939 100.6L24.6037 100.6C21.6185 100.6 19.1308 98 18.7327 94.5L15.847 63L36.4451 63L55.5506 63L52.6649 94.5C52.2668 98 49.7791 100.6 46.7939 100.6"/>
	<path fill="#2D1B0A" d="M46.7939 101.6L24.6037 101.6C21.1209 101.6 18.1357 98.6 17.7376 94.6L14.7524 62L56.6452 62L53.6599 94.6C53.2619 98.6 50.2767 101.6 46.7939 101.6M16.9416 64.1L19.7278 94.5C20.0263 97.4 22.116 99.7 24.6037 99.7L46.7939 99.7C49.2816 99.7 51.3713 97.5 51.6698 94.5L54.456 64.1L16.9416 64.1"/>
	<path fill="white" d="M56.5456 67.3L14.7523 67.3C13.8568 67.3 13.1602 66.6 13.1602 65.7L13.1602 63.8C13.1602 62.9 13.8568 62.2 14.7523 62.2L56.5456 62.2C57.4411 62.2 58.1377 62.9 58.1377 63.8L58.1377 65.7C58.1377 66.6 57.3416 67.3 56.5456 67.3"/>
	<path fill="#2D1B0A" d="M56.5458 68.3L14.7525 68.3C13.3594 68.3 12.1653 67.1 12.1653 65.7L12.1653 63.8C12.1653 62.4 13.3594 61.2 14.7525 61.2L56.5458 61.2C57.9389 61.2 59.133 62.4 59.133 63.8L59.133 65.7C59.133 67.1 57.9389 68.3 56.5458 68.3M14.7525 63.3C14.454 63.3 14.1554 63.6 14.1554 63.9L14.1554 65.8C14.1554 66.1 14.454 66.4 14.7525 66.4L56.5458 66.4C56.8443 66.4 57.1428 66.1 57.1428 65.8L57.1428 63.9C57.1428 63.6 56.8443 63.3 56.5458 63.3L14.7525 63.3"/>
	<path fill="#2D1B0A" d="M32.2658 62.1L30.2757 62.1C30.2757 27.4001 36.3456 15.8001 41.4206 12.2001C44.4058 10.0001 46.8934 10.9001 46.993 10.9001L46.2963 12.8001C46.1968 12.8001 44.6048 12.3 42.4156 13.9001C38.6343 16.7001 32.2658 26.7 32.2658 62.1"/>
	<path fill="#58AA38" d="M48.0486 12.2999C48.0486 12.2999 18.8929 18 38.1974 34.5999C38.1974 34.5999 38.2969 34.7 38.3964 34.5C39.093 32.5999 43.3718 21.6999 45.8596 22C48.6458 22.4 41.9787 34.7 44.8644 35.2C47.7501 35.7999 53.8201 37.5 53.6211 32.2999C53.4221 27.0999 53.024 21.0999 55.1137 22.0999C57.2034 23.0999 56.6063 34.7 58.9945 34.5C61.2832 34.2999 64.4675 34.2999 63.8704 31.0999C63.2733 27.9 62.9748 23.7999 64.4675 24.4C66.0595 25 64.4675 32.0999 67.7513 32.4C71.1344 32.7999 71.9305 31.9 71.3335 30.5999C70.7365 29.2999 69.1443 25.5999 71.035 26.5999C72.8261 27.5 72.229 31.6999 74.0202 31.0999C78.0005 28.7999 81.6824 31 82.0804 31.0999C82.4783 31.1999 81.0853 26.9 81.4832 23.5999C81.3838 23.1999 76.4083 24 76.8064 22.2999C77.2045 20.5999 81.8813 24.4 82.2794 21.6999C82.6828 19 82.5779 18.2999 80.5878 18.1999C78.5975 18.1 73.5226 18.1 74.2193 16.1999C74.9157 14.2999 82.4783 18.5 82.6828 15.7999C82.7768 13.1 81.4832 10.7999 79.2941 11.8999C77.1049 13.1 66.8557 13.6999 67.5522 10.7999C68.2487 7.79993 78.1996 12.1999 79.3936 8.99993C80.5878 5.79993 73.6221 4.69993 71.433 6.19993C69.1443 7.69993 64.0695 9.29993 63.2733 7.69993C62.4773 6.09993 69.4428 4.89993 69.3434 4.49993C69.3434 4.09993 58.497 0.59993 51.034 4.29993C43.5709 7.79993 48.0486 12.2999 48.0486 12.2999"/>
	<path fill="#2D1B0A" d="M49.782 36.9C48.2892 36.9 46.5973 36.6 45.403 36.3C44.2087 36.1 43.8107 35.8 43.5121 35.3C42.7159 34 43.313 31.7 44.4078 28.1C44.9054 26.5 45.7016 23.9 45.6021 23C45.1044 23.3 43.114 25 39.3321 34.7C39.1331 35.2 38.9341 35.4 38.536 35.5C32.067 30.6 29.778 26.2 30.7732 22.2C32.4651 15.7 42.5169 12.6 46.2987 11.6C45.9006 10.8 45.5025 9.70002 45.7016 8.40002C46.0001 6.40002 47.692 4.70002 50.5782 3.30002C58.0423 -0.29998 68.3927 2.70002 69.786 3.50002C70.2836 3.80002 70.3831 4.10002 70.3831 4.40002C70.4826 5.30002 69.786 5.50002 68.0941 6.00002C67.2979 6.20002 65.3075 6.80002 64.5113 7.30002C65.606 7.50002 68.7908 6.70002 70.8807 5.30002C72.9707 4.00002 77.3497 4.30002 79.4396 6.00002C80.5344 6.90002 80.833 8.10002 80.4349 9.40002C79.5392 11.8 76.2549 11.4 73.0702 11C71.6769 10.8 68.7908 10.5 68.5917 11.1C68.5917 11.2 68.6912 11.3 69.1888 11.5C71.6769 12.4 77.5487 11.8 78.8425 11.1C79.9373 10.5 80.9325 10.5 81.8282 11.1C83.122 11.9 83.8186 13.7 83.7285 15.9C83.7285 16.7 83.321 17.1 83.0224 17.3C82.8234 17.4 82.6244 17.5 82.4253 17.6C82.6244 17.7 82.9229 17.9 83.0224 18.1C83.7285 18.9 83.6196 20.1 83.4205 21.8C83.321 22.6 82.9229 23 82.6244 23.3C82.4253 25.7 82.9229 27.9 83.122 29.5C83.4205 30.9 83.5201 31.4 83.0224 31.9C81.8282 32.2 81.7287 32.1 81.4301 32C80.4349 31.5 77.6482 30.4 74.6626 32.1C73.7669 32.4 73.2693 32.2 72.9707 32.1C72.7716 32 72.6721 31.9 72.5726 31.8C72.4731 32.2 72.3736 32.5 72.1745 32.7C71.4779 33.6 70.0845 33.9 67.696 33.7C65.8051 33.5 65.0089 31.9 64.7103 30.2C64.8099 30.5 64.8099 30.9 64.9094 31.3C65.1084 32.5 64.9094 33.5 64.4118 34.2C63.317 35.6 61.3266 35.7 59.6347 35.8C57.1376 35.9 56.649 32.8 56.1514 28.8C55.9524 27 55.5543 24.2 55.0567 23.4C54.5591 24.6 54.7581 29.1 54.8576 31.8C54.9572 34.1 54.4595 35.4 53.5638 36.2C52.3696 36.7 51.1753 36.9 49.782 36.9M45.204 34.2C47.692 34.7 50.7772 35.4 51.9715 34.3C52.4691 33.9 52.6681 33.2 52.5686 32.2C52.2701 25.7 52.2701 22.1 53.7629 21.1C54.0615 20.9 54.6586 20.6 55.5543 21C56.9476 21.7 57.3457 24.1 57.9428 28C58.1419 29.8 58.54 32.7 59.0376 33.3C60.6299 33.2 62.2223 33.1 62.7199 32.4C62.9189 32.1 63.0185 31.7 62.9189 31.1C61.7247 24.8 62.9189 23.8 63.2175 23.5C63.6156 23.1 64.2127 23 64.8099 23.3C66.0041 23.8 66.1037 25.3 66.3027 27.1C66.5017 29.4 66.8003 31.1 67.8951 31.2C70.1841 31.4 70.5822 31 70.5822 31C70.5822 31 70.5822 30.9 70.4826 30.7C69.1888 27.7 68.7908 26.3 69.6865 25.5C69.985 25.3 70.5822 24.9 71.5774 25.4C72.8712 26 73.1697 27.5 73.5678 28.6C73.6673 29 73.7669 29.5 73.9659 29.7C76.8521 28.2 79.5392 28.7 81.1315 29.2C80.9325 27.9 80.5344 25.9 80.6339 24.1C80.5344 24.1 80.5344 24.1 80.4349 24.1C78.5439 24.1 77.0511 24 76.3545 23.1C76.0559 22.7 75.9564 22.2 76.0559 21.7C76.1554 21.3 76.454 20.9 76.7525 20.7C77.5487 20.3 78.5439 20.6 79.6387 20.9C80.1363 21.1 81.1315 21.4 81.4301 21.3C81.4301 21.3 81.4301 21.2 81.4301 21.2C81.5296 20.7 81.7287 19.3 81.5296 19C81.5296 19 81.3306 18.9 80.6339 18.9C77.1506 18.8 74.4635 18.6 73.5678 17.2C73.2693 16.7 73.1697 16.1 73.3688 15.5C74.0654 13.8 76.3545 14.3 78.6435 14.9C79.5392 15.1 81.231 15.5 81.7287 15.4C81.8282 13.9 81.3306 12.8 80.833 12.5C80.7334 12.4 80.4349 12.3 79.8377 12.6C77.7478 13.7 69.8855 14.4 67.497 12.6C66.8003 12 66.5017 11.2 66.7008 10.4C67.2979 8.10002 70.3831 8.50002 73.2693 8.80002C75.2597 9.00002 78.2454 9.40002 78.5439 8.50002C78.6435 8.10002 78.6435 7.80002 78.1459 7.40002C76.7525 6.20002 73.1697 6.10002 71.9755 6.90002C69.985 8.20002 66.0041 9.70002 63.8146 9.10002C63.0185 8.90002 62.6204 8.40002 62.4213 8.00002C62.2223 7.60002 62.2223 7.10002 62.4213 6.70002C62.8194 5.70002 64.4118 5.00002 66.5017 4.30002C63.0185 3.40002 56.45 2.60002 51.5734 5.00002C49.2844 6.10002 47.9906 7.40002 47.7915 8.70002C47.493 10.2 48.7868 11.5 48.7868 11.5L50.0806 12.8L48.2892 13.2C48.1896 13.2 34.5551 16 32.7637 22.7C31.9675 25.7 33.7589 29.1 37.9388 33C42.915 20.6 45.1044 20.9 46.0997 21C46.5973 21.1 46.9954 21.3 47.2939 21.8C48.0901 23 47.493 25.2 46.3982 28.7C45.8011 30.4 44.9054 33.5 45.204 34.2M75.5583 16.7C75.9564 16.8 76.5535 17 77.7478 17.1C77.0511 16.9 76.1554 16.7 75.5583 16.7"/>
	<path fill="#2D1B0A" d="M42.8137 62.5C39.8284 32.3 25.3003 31.4 25.1012 31.4L25.1012 29.4C25.8973 29.4 41.6195 30.4 44.8037 62.3L42.8137 62.5"/>
</svg>
