<?xml version="1.0" encoding="utf-8" ?>
<svg xmlns="http://www.w3.org/2000/svg" xmlns:xlink="http://www.w3.org/1999/xlink" width="64" height="110">
	<path fill="white" d="M15.1283 109.698C9.03645 109.698 4.16296 106.481 3.35071 102.057L0.406308 84.3601C-0.202878 80.5393 1.01549 76.0146 4.87367 73.702C4.77214 70.2834 5.17827 66.1609 6.90429 62.34C5.48286 61.5356 4.36602 60.4296 3.45224 59.0219C1.92927 56.8099 1.62468 54.7989 2.43693 53.0896C3.24918 51.3803 4.87367 50.777 6.49817 50.3748C6.19358 50.1737 5.88898 49.9726 5.58439 49.872C2.84305 48.2633 -1.31972 45.8501 0.406308 40.521C1.52315 37.2029 3.55377 36.4991 4.87367 36.3985C3.24918 33.181 2.3354 29.5612 3.55377 26.947C4.46755 25.1371 6.19358 24.0311 8.32573 24.0311C8.63032 24.0311 9.03645 24.0311 9.34104 24.1316C13.5038 24.7349 14.5191 29.2596 15.3314 33.181C15.3314 33.3821 15.4329 33.5832 15.4329 33.7843C15.5344 33.4826 15.636 33.181 15.7375 32.8793C15.636 32.3766 15.636 31.7733 15.636 31.17C16.4482 26.5448 18.885 25.9415 20.3064 25.9415C20.5095 25.9415 20.7125 25.9415 20.9156 25.9415C18.3773 23.3272 16.0421 20.4113 16.7528 17.1938C17.0574 15.8867 17.9712 13.9762 20.9156 12.7697C22.0324 12.2669 23.1493 12.0658 24.063 12.0658C25.8906 12.0658 27.109 12.7697 27.9212 13.7751C27.8197 13.3729 27.6166 12.9707 27.5151 12.6691C25.9921 8.74771 24.2661 4.42413 27.5151 1.60878C29.0381 0.301645 30.358 0 31.3733 0C32.4901 0 34.0131 0.301645 35.4345 2.01097C37.059 3.92139 37.9728 6.93784 38.2774 9.85375C38.8866 9.45155 39.5973 9.25046 40.5111 9.25046C41.831 9.25046 43.0493 9.7532 44.4708 10.8592C49.0397 14.479 46.806 18.9031 45.283 21.819C45.08 22.2212 44.8769 22.6234 44.6738 23.0256C45.5876 22.6234 46.6029 22.3218 47.5167 22.3218C48.8366 22.3218 49.9535 22.8245 50.7657 23.6289C51.6795 24.6344 52.1871 25.9415 52.2887 27.7514C52.9994 27.2486 53.8116 26.8464 54.7254 26.7459C55.03 26.6453 55.4361 26.6453 55.7407 26.6453C57.8729 26.6453 59.5989 27.7514 60.5127 29.5612C61.7311 32.1755 60.9188 35.7952 59.1928 39.0128C60.5127 39.1133 62.4418 39.8172 63.5586 43.1353C65.3862 48.5649 61.1219 50.9781 58.3805 52.5868C58.0759 52.7879 57.7713 52.8885 57.4667 53.0896C59.0912 53.3912 60.7157 54.0951 61.528 55.8044C62.3402 57.5137 62.0356 59.5247 60.5127 61.7367C59.9035 62.5411 59.2943 63.3455 58.4821 63.9488C60.2081 67.8702 60.4111 71.9927 60.1066 75.2102C62.7464 77.925 63.6601 81.8464 63.254 84.6618L59.5989 102.459C58.8882 106.883 53.9132 110 47.8213 110L15.1283 110"/>
	<path fill="white" d="M57.2637 76.1152C57.7713 72.6965 57.7713 67.2669 54.9285 62.6417C56.2484 62.0384 57.3652 61.1335 58.279 59.7258C62.9494 52.7879 48.0244 57.7148 52.0856 53.2907C56.1468 48.8665 62.5433 48.6655 60.9188 43.8391C59.3958 39.5155 57.1621 43.0347 55.3346 43.9397C54.2177 44.7441 51.1718 44.543 54.7254 40.3199C58.3805 36.0969 60.1065 28.7569 55.3346 29.4607C52.1871 29.9634 52.2887 36.7002 50.6642 40.8227C48.532 38.8117 46.5014 40.3199 44.5723 41.8282C44.8769 39.9177 46.9075 37.3035 45.1815 35.8958C47.3136 34.0859 49.3443 31.7733 49.3443 28.2541C49.4458 19.6069 39.2927 32.2761 40.308 26.1426C41.3233 20.0091 46.7045 16.3894 42.5417 12.9708C38.785 10.0548 38.785 14.3784 37.7697 16.1883C37.2621 17.4954 34.4192 19.0037 35.2314 13.3729C35.9422 7.64168 33.3024 0.30165 29.5457 3.61975C25.7891 6.8373 36.7544 18.8026 29.6472 21.2157C24.8753 22.8245 28.835 12.5686 22.1339 15.2834C13.5038 18.8026 31.4748 28.3547 27.109 29.8629C22.7431 31.3711 19.7987 25.6399 18.7834 30.9689C18.7834 31.9744 18.9865 32.6782 19.2911 33.181C16.3467 35.192 22.4385 40.1188 18.2758 41.1243C11.1686 42.9342 13.8084 27.5503 9.03644 26.8464C4.26448 26.1426 5.99051 33.4826 9.64562 37.7057C13.3007 41.9287 10.2548 42.1298 9.03644 41.3254C7.20888 40.4205 4.87367 36.9013 3.45223 41.2249C1.82773 46.0512 8.22419 46.2523 12.2854 50.6764C16.3467 55.1006 1.42161 50.1737 6.09204 57.1115C7.51347 59.1225 9.34103 60.128 11.3717 60.7313C8.02113 65.457 7.81807 71.3894 8.22419 75.4113C3.75682 76.819 3.1935 81.1426 3.55376 83.7569L3.85836 85.4662L6.49816 101.453C7.00582 104.369 10.7625 106.581 15.2298 106.581L48.4305 106.581C52.8978 106.581 56.6545 104.369 57.1621 101.453L60.8173 83.7569C61.0203 81.7459 60.005 78.0256 57.2637 76.1152"/>
	<path fill="#EFC029" d="M42.2371 56.1199C42.2371 56.1199 35.7392 55.6172 21.7279 48.5788C7.71659 41.5405 27.6167 41.1382 26.0937 37.7197C24.3677 33.7982 18.885 35.6082 18.9865 30.6812C20.0018 25.2516 23.0478 31.0835 27.3121 29.5751C31.5764 28.0669 13.7069 18.6154 22.3371 14.9957C29.0381 12.1803 25.0784 22.5368 29.8504 20.9281C37.0591 18.5149 26.0937 6.5496 29.7488 3.33205C33.5055 0.1145 36.1453 7.45454 35.4346 13.0852C34.7238 18.8165 37.4652 17.3083 37.9728 15.9007C38.9881 14.0907 39.0897 9.76715 42.7448 12.6831C46.9076 16.0012 41.5264 19.7215 40.5111 25.8549C39.4958 31.9883 49.6489 19.3193 49.5474 27.9664C49.3443 36.6136 37.5667 38.0213 40.2065 42.6465C42.9479 45.9646 47.1106 35.7086 51.3749 41.0378C56.2484 49.5844 42.2371 56.1199 42.2371 56.1199"/>
	<path fill="#2D1B0A" d="M42.3386 57.1115C41.7294 57.1115 35.1299 56.5083 21.1186 49.4716C17.1589 47.4611 15.5302 45.8527 15.5302 44.1438C15.636 41.9323 18.5803 40.8265 21.4232 39.8213C22.6416 39.4192 24.6722 38.615 24.9768 38.1124C24.3676 36.8055 23.1493 36.3029 21.8293 35.8003C20.0018 35.0966 17.7681 34.1919 17.8696 30.7741C18.1742 28.9646 18.6819 28.0599 19.4941 27.6578C20.5094 27.0547 21.7278 27.5573 22.8447 28.0599C24.063 28.5625 25.3829 29.1657 26.9059 28.6631C26.6013 27.9594 25.0783 26.4515 24.063 25.4463C21.4232 22.8327 18.4788 19.8169 18.9865 17.1028C19.2911 15.796 20.2048 14.7907 21.9309 14.087C23.5554 13.3834 24.7738 13.3834 25.7891 13.886C27.2105 14.6902 27.6166 16.3991 27.9212 17.907C28.1243 18.8117 28.3273 19.8169 28.7335 20.1185C28.835 20.219 29.1396 20.219 29.5457 20.018C30.358 19.7164 30.8656 19.3143 31.0687 18.8117C31.8809 17.2033 30.6625 14.1876 29.6472 11.4734C28.2258 7.85453 26.9059 4.53722 29.1396 2.62726C30.8656 1.1194 32.287 1.5546 32.9978 1.92359C35.7391 3.33093 37.059 8.9603 36.4498 13.2828C36.1452 15.2933 36.4498 15.997 36.5513 16.198C36.7544 16.0975 36.9575 15.8965 37.059 15.5949C37.3636 15.1928 37.5667 14.5897 37.6682 14.087C38.0743 12.7802 38.582 11.2724 40.0034 10.8703C41.0187 10.5687 42.1356 10.9708 43.4555 11.976C46.7044 14.5897 45.1815 17.6054 43.76 20.4201C42.9478 22.0285 41.9325 23.9384 41.6279 26.0494C41.6279 26.2505 41.5264 26.4515 41.5264 26.5521C42.034 26.351 42.8463 25.8484 43.4555 25.5468C45.3845 24.441 47.5167 23.2348 49.1412 24.24C50.1565 24.8431 50.6642 26.0494 50.5626 28.0599C50.4611 33.0861 46.7044 35.9008 43.9631 38.0118C41.3233 40.0223 40.4095 40.927 41.0187 42.1333C41.4248 42.636 41.9325 42.4349 43.9631 40.927C45.4861 39.7208 47.1106 38.4139 49.0397 38.615C50.1565 38.7155 51.1718 39.4192 52.0856 40.5249C53.4055 42.7365 53.6086 44.948 52.8978 47.1596C50.9688 53.0905 42.8463 56.9104 42.4401 57.1115M20.0018 30.7741C20.0018 32.684 20.9156 33.0861 22.7431 33.8903C24.2661 34.4935 26.0936 35.1972 27.0074 37.3082C27.2105 37.8108 27.2105 38.3134 27.0074 38.816C26.4998 40.1228 24.5707 40.8265 22.2355 41.6307C20.5094 42.2339 17.6666 43.3396 17.6666 44.1438C17.6666 44.3449 17.8696 45.4506 22.1339 47.5617C34.2161 53.5931 40.7141 54.7994 42.034 55.0005C43.3539 54.2968 49.6488 50.9795 51.1718 46.3554C51.6795 44.747 51.4764 43.1386 50.6642 41.5302C50.1565 40.8265 49.5473 40.5249 49.0397 40.4244C47.9228 40.3239 46.7044 41.3291 45.4861 42.3344C43.8616 43.6412 41.5264 45.4506 39.6988 43.2391C37.8712 40.1228 40.5111 38.2129 43.0493 36.3029C45.6891 34.2924 48.7351 31.9804 48.8366 27.8589C48.8366 26.15 48.4305 25.8484 48.4305 25.8484C47.8213 25.5468 45.8922 26.5521 44.7754 27.2557C43.0493 28.261 41.6279 29.0652 40.5111 28.261C39.4957 27.5573 39.8003 26.15 39.9019 25.6473C40.308 23.2348 41.3233 21.2243 42.2371 19.4148C43.76 16.3991 44.3692 14.9918 42.5417 13.4839C41.5264 12.6797 41.0187 12.7802 41.0187 12.7802C40.6126 12.8807 40.2065 13.9865 40.0034 14.7907C39.8003 15.3939 39.5973 15.997 39.2927 16.4996C38.785 17.6054 37.5667 18.5101 36.3483 18.2085C34.9268 17.8064 34.4184 16.0975 34.8253 13.0818C35.333 8.85977 33.9115 4.53722 32.3886 3.73303C32.1855 3.6325 31.6779 3.33093 30.7641 4.13513C29.6472 5.14037 30.8656 8.1561 31.8809 10.7697C33.0993 13.9865 34.4184 17.2033 33.3024 19.6159C32.7947 20.7216 31.8809 21.4253 30.561 21.9279C29.5457 22.2295 28.7335 22.2295 28.0227 21.8274C26.8044 21.1237 26.6013 19.7164 26.2967 18.3091C26.0936 17.2033 25.7891 15.997 25.1799 15.6954C24.7738 15.4944 24.063 15.5949 23.0477 15.997C22.0324 16.3991 21.4232 16.9017 21.3217 17.5049C21.0171 19.1133 23.7584 21.9279 25.8906 24.0389C28.1243 26.2505 29.6472 27.8589 29.3426 29.2662C29.2411 29.6683 28.9365 30.2715 28.0227 30.573C25.7891 31.3772 23.86 30.573 22.4385 29.8694C21.9309 29.6683 21.1186 29.2662 20.9156 29.333C20.5094 29.333 20.2048 29.4673 20.0018 30.7741"/>
	<path fill="white" d="M31.3733 5.63065C31.7794 6.73668 32.1855 7.94326 32.4901 9.0493C32.7947 10.1553 33.0993 11.3619 33.5054 12.4679C34.1146 14.7806 34.6223 17.0931 35.1299 19.4058C35.6376 21.7184 35.9422 24.1315 36.2468 26.4441C36.5514 28.8573 36.7544 31.17 36.9575 33.5831C37.1606 38.4095 37.1606 43.1353 36.3483 47.861C36.0437 50.2742 35.5361 52.5868 34.8253 54.8993C34.5207 56.0055 34.1146 57.2121 33.607 58.3181C33.5054 58.6196 33.4039 58.8208 33.3024 59.1224C33.2008 59.3236 33.2008 59.424 33.0993 59.5247C32.6932 60.4296 32.3886 61.0328 32.084 61.5355C32.2871 60.9323 32.5917 60.4296 32.7947 59.9268C33.0993 59.424 33.0993 59.2229 33.2008 59.1224C33.3024 58.8208 33.4039 58.6196 33.5054 58.3181C33.9116 57.2121 34.3177 56.0055 34.6223 54.8993C35.2315 52.5868 35.7391 50.2742 36.0437 47.861C36.3483 45.5484 36.5514 43.1353 36.6529 40.722C36.6529 39.5154 36.6529 38.3088 36.6529 37.1024C36.6529 35.8958 36.5514 34.6892 36.5514 33.4826C36.2468 28.7568 35.6376 24.031 34.8253 19.3053C34.4192 16.9927 33.9116 14.5795 33.3024 12.2668C32.5917 10.1553 31.9825 7.94326 31.3733 5.63065"/>
	<path fill="#76CE21" d="M27.2105 75.8136C27.2105 75.8136 12.2854 77.8244 11.7778 68.3729C12.387 61.8372 21.1186 67.9707 21.6263 63.8482C21.3217 58.6197 10.9655 63.6471 6.29511 56.7094C1.62468 49.7714 16.5497 54.6983 12.4885 50.2742C8.42726 45.85 2.13233 45.6489 3.6553 40.8226C5.17827 36.5996 7.41195 40.0182 9.23951 40.9231C10.3563 41.7275 13.4023 41.5265 9.84869 37.3034C6.19358 33.0804 4.46755 25.7404 9.23951 26.397C14.0115 27.1481 11.3717 42.5319 18.4788 40.722C23.2508 39.5155 14.5191 33.2815 21.4232 32.0749C30.2564 30.4662 20.814 47.4588 25.0783 46.4533C29.3427 45.4478 28.7335 39.2138 32.3886 43.0347C35.1299 46.9561 29.7488 48.3637 30.358 52.3857C30.9671 55.9049 47.3136 45.9506 39.6988 58.8209C32.1855 71.9926 27.2105 75.8136 27.2105 75.8136"/>
	<path fill="#2D1B0A" d="M23.9607 77.0201C20.9149 77.0201 16.4477 76.517 13.5034 74.2028C11.7774 72.7941 10.7622 70.8824 10.6606 68.4675C10.7622 66.8576 11.2698 65.7508 12.082 65.0465C13.5034 63.8391 15.6355 64.0403 17.463 64.2415C19.8996 64.4428 20.3057 64.3422 20.4072 63.7384C20.3057 62.4304 19.1889 62.2292 15.8385 61.9273C12.4881 61.6254 7.91941 61.3236 5.17818 57.1982C4.06138 55.5883 3.85833 54.3809 4.36596 53.3747C5.17818 51.7648 7.61483 51.5635 9.7469 51.4629C10.3561 51.4629 11.2698 51.3623 11.7774 51.2617C11.6759 51.1356 11.5744 51.0605 11.4729 50.9598C10.0515 49.4506 8.32552 48.4444 6.70109 47.5388C3.95985 45.9289 1.21862 44.319 2.43695 40.4955C2.94458 38.9862 3.65527 38.0806 4.67054 37.7788C5.9904 37.3763 7.20872 38.3825 8.32552 39.1874C8.73163 39.4893 9.13774 39.8918 9.54385 39.9924C9.84843 40.1936 10.153 40.2942 10.3561 40.2942C10.3561 40.093 10.153 39.3887 8.93468 37.8794C6.19345 34.6596 4.26444 29.4274 5.68581 26.8113C6.09192 26.107 7.00567 25.0002 9.23926 25.251C11.9805 25.7045 12.7927 29.3268 13.5034 32.8484C14.1126 35.5651 14.7217 38.5837 16.1431 39.4893C16.6507 39.7911 17.2599 39.8918 18.0721 39.6905C18.4782 39.5899 18.6813 39.4893 18.7828 39.288C18.9859 38.8856 18.5798 37.8794 18.2752 37.175C17.7675 35.7664 17.0569 34.1565 17.8691 32.8484C18.3767 31.9429 19.4935 31.3391 21.1179 31.0373C22.8439 30.7354 24.1637 31.0373 25.0775 31.9429C27.0065 33.8546 26.0928 37.8794 25.3821 41.401C25.0775 42.7091 24.6714 44.7215 24.7729 45.4258C26.1943 45.0233 26.905 43.9165 27.6157 42.8097C28.2248 41.8035 28.9355 40.7973 30.0523 40.6967C30.9661 40.5961 31.8798 41.0992 32.9966 42.3066C35.0272 45.2246 33.6058 47.1363 32.5905 48.6456C31.7783 49.7524 31.0676 50.7586 31.2706 52.1673C31.8798 52.3685 33.8088 51.966 35.0272 51.6642C37.8699 51.0605 40.9157 50.3561 42.134 52.1673C43.1493 53.5759 42.6344 55.7895 40.4081 59.4118C32.7936 72.3917 27.7172 76.3158 27.5141 76.517C27.2096 76.8189 25.7882 77.0201 23.9607 77.0201M12.6912 68.4675C12.7927 70.2787 13.5034 71.5867 14.8233 72.6935C18.3767 75.6115 25.2805 75.1084 26.7019 74.9071C27.7172 74.0016 32.2859 69.675 38.8852 58.6069C41.2203 54.6827 40.8142 53.6765 40.7127 53.5759C40.205 52.8716 37.3623 53.5759 35.6363 53.8778C33.3012 54.3809 31.3722 54.7834 30.2554 54.079C29.8493 53.7772 29.5447 53.3747 29.4432 52.8716C29.0371 50.658 30.1538 49.0481 31.0676 47.8406C32.1844 46.3314 32.692 45.5264 31.6768 43.9165C30.8645 43.0109 30.56 43.0109 30.4584 43.0109C30.2554 43.0109 29.7477 43.8159 29.5447 44.2184C28.7325 45.4258 27.6157 47.1363 25.3821 47.6394C24.4683 47.8406 23.8592 47.5388 23.5546 47.2369C22.5393 46.2307 22.9454 44.1177 23.5546 41.1998C24.1637 38.4831 24.8744 34.7602 23.7576 33.5528C23.3515 33.1503 22.6408 33.0497 21.6256 33.2509C20.6103 33.4521 20.0011 33.754 19.7981 34.0559C19.4935 34.5589 19.8996 35.7664 20.3057 36.6719C20.8134 37.98 21.321 39.288 20.7118 40.4955C20.4072 41.1998 19.6966 41.6023 18.6813 41.9041C17.3614 42.206 16.2446 42.1054 15.2294 41.5017C12.9958 40.1936 12.2851 36.7726 11.6759 33.5528C11.0667 30.8361 10.4576 27.8175 9.03621 27.6162C7.91941 27.415 7.61483 27.9181 7.5133 28.1193C6.70109 29.528 7.81788 33.754 10.5591 36.8732C12.4881 39.1874 12.9958 40.8979 12.082 41.9041C11.2698 42.8097 9.7469 42.7091 8.73163 42.0048C8.22399 41.7029 7.71636 41.401 7.20872 40.9986C6.70109 40.5961 5.78734 39.8918 5.38123 39.9924C5.38123 39.9924 4.97512 40.1936 4.56902 41.401C3.85833 43.6147 5.07665 44.4196 7.91941 46.0295C9.64537 47.0357 11.4729 48.1425 13.0973 49.853C13.5034 50.2555 14.4171 51.2617 14.011 52.3685C13.5034 53.5759 11.9805 53.6765 9.94995 53.7772C8.73163 53.8778 6.59956 53.9784 6.29498 54.5821C6.19345 54.7834 6.29498 55.3871 7.00567 56.3933C9.23926 59.6131 12.8942 59.9149 16.1431 60.2168C19.1889 60.418 22.3363 60.7199 22.5393 64.0403C22.2347 67.0589 19.392 66.757 17.3614 66.5558C15.8385 66.3545 14.3156 66.2539 13.5034 66.8576C12.9958 67.0589 12.7927 67.6626 12.6912 68.4675"/>
	<path fill="white" d="M9.2395 29.3601C9.84869 31.5722 10.6609 33.7842 11.3716 35.8957C12.1839 38.1078 12.9962 40.2193 13.9099 42.3308C15.7375 46.5539 17.6666 50.6764 20.0018 54.6983C20.611 55.7038 21.1186 56.7093 21.8293 57.6142C22.4385 58.6197 23.0477 59.5246 23.7584 60.5301C25.0783 62.4405 26.4998 64.2504 28.0227 65.9597C29.5457 67.6691 31.1702 69.3784 32.8962 70.8866C33.7085 71.691 34.6223 72.3948 35.536 73.0987C35.7391 73.2998 36.0437 73.4003 36.2468 73.6014C36.3483 73.702 36.4498 73.8025 36.5513 73.8025C37.4651 74.3053 37.9728 74.6069 38.3789 75.0091C37.8713 74.7074 37.3636 74.4058 36.8559 74.1042C36.3483 73.8025 36.2468 73.702 36.0437 73.702C35.8406 73.5009 35.536 73.4003 35.333 73.1992C34.4192 72.4954 33.5054 71.7915 32.5916 71.0877C30.8656 69.5795 29.1396 67.9707 27.6166 66.1608C24.5707 62.7422 21.9309 58.8208 19.5957 54.8994C18.4788 52.8884 17.362 50.8775 16.3467 48.766C15.3314 46.6544 14.4176 44.5429 13.5038 42.4314C12.6916 40.3199 11.8793 38.1078 11.0671 35.8957C10.6609 34.7897 10.3563 33.6837 10.0517 32.5776C9.84869 31.5722 9.54409 30.4661 9.2395 29.3601"/>
	<path fill="white" d="M6.49825 43.3364C7.20897 44.0402 8.02122 44.7441 8.93499 45.3474C9.74724 45.9506 10.661 46.5539 11.6763 46.9561C12.5901 47.3583 13.6054 47.7605 14.6207 47.7605C15.1284 47.7605 15.636 47.7605 16.1437 47.66C16.6514 47.5594 17.159 47.3583 17.5652 47.0567C18.479 46.4534 19.0881 45.7495 19.6973 44.8446C20.3064 43.9397 20.7126 43.0347 21.0172 42.0293C21.3218 41.0238 21.6264 40.0183 21.8294 39.0128C22.0324 38.0073 22.2355 37.0018 22.4387 35.8958C22.2355 38.0073 21.931 40.1188 21.3218 42.1298C21.0172 43.1353 20.9156 43.4369 20.8141 43.638C20.8141 43.7386 20.7126 43.8391 20.611 44.0402C20.5096 44.1408 20.5096 44.2413 20.4081 44.4424C20.3064 44.6435 20.205 44.9452 20.0019 45.1463C19.3927 46.0512 18.7836 46.9561 17.7682 47.4589C17.2605 47.7605 16.7528 47.9616 16.2452 48.0622C15.7376 48.1627 15.1284 48.2633 14.6207 48.1627C14.1131 48.1627 13.5039 47.9616 12.9962 47.8611C12.4886 47.66 11.9809 47.4589 11.4733 47.2578C10.458 46.755 9.64571 46.1517 8.83346 45.5485C8.42734 45.2468 8.02122 44.8446 7.61509 44.543C7.20897 44.0402 6.80284 43.7386 6.49825 43.3364M8.6304 54.8995C9.54418 55.5027 10.5595 56.0055 11.6763 56.3071C12.6916 56.6088 13.8085 56.9104 14.9253 56.9104C16.0422 57.011 17.159 56.8099 18.2759 56.6088C19.3927 56.3071 20.4081 55.9049 21.3218 55.4022L22.3371 54.7989C22.4387 54.6984 22.5401 54.6984 22.6417 54.5978C23.3525 53.9945 23.4539 53.894 23.5555 53.7934C24.2662 53.0896 24.6724 52.6874 25.0784 52.2852C25.8907 51.4808 26.0938 51.2797 26.2968 51.0786L27.1091 50.0731L27.8198 48.9671C28.0229 48.766 28.1244 48.4644 28.3274 48.2633L28.9366 47.1572C29.4442 46.2523 29.7489 45.7495 29.952 45.2468C28.9366 47.2578 27.8198 49.2687 26.4999 50.9781C26.2968 51.1792 26.0938 51.3803 25.9922 51.5814C24.9768 52.6874 24.5708 53.0896 24.1646 53.4918C23.7585 53.894 23.657 53.9945 23.5555 54.0951C22.7433 54.6984 22.6417 54.7989 22.5401 54.7989L21.4234 55.5027C20.4081 56.106 19.3927 56.5082 18.2759 56.8099C17.159 57.1115 16.0422 57.2121 14.8238 57.1115C12.6916 57.011 10.458 56.2066 8.6304 54.8995"/>
	<path fill="#58AA38" d="M37.63 78.3273C37.63 78.3273 32.655 74.5064 25.0401 61.5357C17.4253 48.5649 33.7719 58.6198 34.381 55.1006C34.9902 50.9781 29.7106 49.671 32.3504 45.7496C36.0055 41.9287 35.3963 48.1627 39.6607 49.1682C43.9249 50.1737 34.4826 33.181 43.3158 34.7898C50.2198 35.9964 41.4882 42.3309 46.2602 43.4369C53.3672 45.2468 50.8291 29.8629 55.4995 29.1119C60.2715 28.4552 58.5454 35.7953 54.8903 40.0183C51.2352 44.2413 54.2811 44.4424 55.4995 43.638C57.327 42.7331 59.6623 39.2139 61.0837 43.5375C62.7082 48.4644 56.4132 48.5649 52.2505 52.9891C48.1893 57.4132 63.1143 52.4863 58.4439 59.4242C53.7735 66.362 43.4173 61.3346 43.1127 66.5631C43.6204 70.6856 52.352 64.5521 52.9612 71.0878C52.4536 80.3382 37.63 78.3273 37.63 78.3273"/>
	<path fill="#2D1B0A" d="M40.8128 79.5338C38.9849 79.5338 37.5633 79.3326 37.4618 79.3326C36.751 78.9301 31.6737 75.006 24.0578 62.0261C21.8974 58.4038 21.4176 56.0896 22.3315 54.7815C23.6516 53.071 26.5964 53.6747 29.4397 54.379C30.6582 54.6809 32.5876 55.0834 33.1969 54.8821C33.4 53.4735 32.6891 52.4673 31.8768 51.3605C30.7598 49.8512 29.4397 47.9394 31.369 45.1221C32.5876 43.9146 33.5015 43.4115 34.4154 43.5122C35.634 43.6128 36.2432 44.619 36.954 45.6252C37.6649 46.732 38.3757 47.8388 39.7973 48.1406C39.8989 47.4363 39.4927 45.4239 39.188 44.0153C38.4772 40.4936 37.5633 36.5694 39.4927 34.6577C40.4066 33.7521 41.7267 33.4502 43.4529 33.7521C45.0777 34.054 46.1947 34.6577 46.7024 35.5632C47.5148 36.9719 46.9055 38.4812 46.2962 39.8899C45.9916 40.5942 45.5854 41.701 45.7885 42.0029C45.89 42.1035 46.0931 42.3047 46.4993 42.4054C47.3117 42.6066 47.9209 42.506 48.4287 42.2041C49.8503 41.2985 50.5611 38.28 51.0688 35.5632C51.8812 31.941 52.592 28.5199 55.3338 27.9658C57.5677 27.715 58.4817 28.8218 58.8878 29.5261C60.411 32.1422 58.3801 37.3744 55.6384 40.5942C54.4198 42.0029 54.2168 42.7072 54.2168 43.0091C54.4198 43.0091 54.7245 43.0091 54.9276 42.8078C55.3338 42.506 55.7399 42.2041 56.2477 41.9023C57.3647 41.0973 58.5832 40.0911 59.9033 40.4936C60.8172 40.7954 61.528 41.6004 62.1373 43.2103C63.4574 47.0338 60.6141 48.6437 57.8724 50.2537C56.3492 51.1592 54.5214 52.1654 53.0998 53.6747C52.9982 53.7498 52.8967 53.8759 52.7951 53.9766C53.3028 54.0772 54.2168 54.1778 54.826 54.1778C56.9585 54.2784 59.3956 54.4797 60.2079 56.0896C60.7157 57.0958 60.411 58.4038 59.3956 60.0137C56.6538 64.0385 52.0843 64.441 48.7333 64.7428C45.3823 65.0447 44.3669 65.2459 44.1638 66.554C44.2653 67.1577 44.773 67.2583 47.1086 67.0571C48.9364 66.8558 51.0688 66.6546 52.4905 67.862C53.3028 68.5663 53.8106 69.5725 53.9121 71.0818C53.8106 73.5973 52.7951 75.5091 51.0688 77.0184C48.3271 79.0307 43.8591 79.5338 40.8128 79.5338M38.071 77.3202C39.5942 77.5215 46.3978 78.0246 49.9518 75.1066C51.2719 74.1004 51.9828 72.6917 52.0843 70.8806C51.9828 70.0756 51.7797 69.4719 51.3735 69.1701C50.5611 68.4657 49.0379 68.667 47.5148 68.8682C45.4839 69.0694 42.6406 69.3713 42.3359 66.554C42.539 63.0323 45.6869 62.8311 48.7333 62.5292C51.9828 62.2273 55.6384 62.0261 57.8724 58.7057C58.5832 57.6995 58.6847 57.0958 58.5832 56.8945C58.2786 56.2908 56.1461 56.1902 54.9276 56.0896C52.9982 55.9889 51.3735 55.8883 50.8658 54.6809C50.4596 53.5741 51.3735 52.5679 51.6781 52.1654C53.3028 50.4549 55.2322 49.3481 56.8569 48.3419C59.7002 46.732 60.9187 45.927 60.2079 43.7134C59.8017 42.506 59.3956 42.3047 59.3956 42.3047C58.9894 42.2041 58.0755 42.9085 57.5677 43.4115C57.06 43.814 56.6538 44.2165 56.1461 44.4177C55.1307 45.0215 53.6075 45.1221 52.7951 44.3171C51.7797 43.2103 52.2874 41.6004 54.3183 39.2862C56.9585 36.167 58.0755 31.941 57.3647 30.5323C57.2631 30.331 56.9585 29.9286 55.8415 30.0292C54.4198 30.2304 53.8106 33.249 53.2013 35.9657C52.4905 39.1855 51.7797 42.506 49.6472 43.9146C48.6318 44.5184 47.5148 44.619 46.1947 44.3171C45.1792 44.1159 44.5699 43.6128 44.1638 42.9085C43.5545 41.701 44.0622 40.393 44.5699 39.0849C44.9761 38.0787 45.3823 36.9719 45.0777 36.4688C44.8746 36.0663 44.2653 35.7645 43.2499 35.5632C42.2344 35.362 41.5236 35.4626 41.1174 35.8651C40.0004 36.9719 40.8128 40.6948 41.3205 43.4115C41.9298 46.3295 42.4375 48.4425 41.3205 49.4487C41.0159 49.7506 40.4066 50.0524 39.4927 49.8512C37.2587 49.3481 36.1417 47.6376 35.3293 46.4301C35.0247 46.0276 34.517 45.2227 34.3139 45.2227C34.3139 45.2227 34.0092 45.2227 33.0953 46.1283C32.0799 47.6376 32.5876 48.4425 33.7046 49.9518C34.6185 51.1592 35.7355 52.7691 35.3293 54.9828C35.2278 55.4859 35.0247 55.8883 34.517 56.1902C33.4 56.9951 31.4706 56.492 29.135 55.9889C27.4088 55.5865 24.5655 54.9828 24.0578 55.6871C23.9562 55.8883 23.5501 56.7939 25.8856 60.7181C32.486 72.1886 37.0556 76.4146 38.071 77.3202"/>
	<path fill="white" d="M55.5376 31.7733C55.2329 32.8793 54.9285 33.9853 54.6238 35.0914C54.3193 36.1974 53.913 37.3034 53.6085 38.4095C52.8978 40.6215 52.0855 42.7331 51.1717 44.945C50.3596 47.0566 49.3442 49.1682 48.3288 51.2796C47.3135 53.3912 46.2982 55.4022 45.0798 57.4132C42.7447 61.4351 40.1049 65.2559 37.0589 68.6745C35.536 70.3839 33.9115 72.0932 32.0839 73.6015C31.1701 74.3053 30.2564 75.1096 29.3426 75.713C29.1395 75.914 28.8349 76.0145 28.6319 76.2157C28.5303 76.3163 28.4288 76.4167 28.2257 76.4167C27.312 76.9196 26.8043 77.2211 26.2966 77.5228C26.8043 77.2211 27.312 76.9196 27.7181 76.5173C28.2257 76.2157 28.3273 76.1152 28.4288 76.1152C28.6319 75.914 28.9365 75.8134 29.1395 75.6124C30.0533 74.9086 30.9671 74.2047 31.7793 73.4004C33.5053 71.8921 35.1299 70.1828 36.6529 68.4734C38.1758 66.7641 39.5973 64.8537 40.9171 63.0438C41.6278 62.0384 42.237 61.1334 42.8463 60.128C43.4554 59.1225 44.0646 58.2175 44.6738 57.2121C47.0089 53.19 48.938 49.0676 50.7656 44.8446C51.6795 42.7331 52.4916 40.6215 53.3039 38.4095C54.2177 36.1974 54.9285 33.9853 55.5376 31.7733"/>
	<path fill="white" d="M58.3805 45.7495C58.0759 46.1517 57.6698 46.5539 57.2636 46.8555C56.8576 47.2577 56.4514 47.5594 56.0452 47.9615C55.2331 48.6654 54.3193 49.2687 53.4054 49.6709C52.8979 49.872 52.3902 50.1736 51.8825 50.2742C51.3749 50.4753 50.8671 50.5758 50.2579 50.5758C49.7504 50.5758 49.1412 50.5758 48.6336 50.4753C48.1259 50.3747 47.6181 50.1736 47.1105 49.872C46.1968 49.2687 45.486 48.4643 44.8769 47.5594C44.6738 47.3583 44.5723 47.0566 44.4707 46.8555C44.3692 46.755 44.3692 46.6544 44.2677 46.4533C44.1661 46.3528 44.1661 46.2522 44.0646 46.0511C43.9631 45.85 43.8615 45.5484 43.76 45.3473C42.9478 42.5319 42.5416 40.4204 42.4401 38.3089C42.6432 39.3144 42.7447 40.4204 43.0493 41.4259C43.2524 42.4314 43.557 43.4369 43.8615 44.4424C44.1661 45.4478 44.5723 46.3528 45.1814 47.2577C45.6892 48.1627 46.3998 48.9859 47.3136 49.4698C47.7197 49.7714 48.2274 49.9725 48.7351 50.0731C49.2427 50.1736 49.7504 50.1736 50.2579 50.1736C51.2734 50.0731 52.2887 49.7714 53.2024 49.3692C54.1161 48.9859 55.03 48.3637 55.9437 47.7604C56.756 47.2577 57.5683 46.5539 58.3805 45.7495M56.1468 57.3126C54.3193 58.6197 52.0855 59.4241 49.8519 59.6252C48.7351 59.7257 47.5167 59.6252 46.3998 59.3235C45.283 59.0219 44.2677 58.6197 43.2524 58.0164L42.1355 57.3126C42.034 57.212 41.9324 57.1115 41.8309 57.1115C41.0187 56.5082 40.9171 56.4076 40.8156 56.3071C40.1049 55.6032 39.6988 55.201 39.2927 54.7988C38.4804 53.8939 38.2773 53.6928 38.1758 53.4917C36.7544 51.6818 35.6375 49.7714 34.7238 47.7604C35.0283 48.2632 35.3329 48.7659 35.536 49.2687L36.3483 50.7769C36.4498 50.978 36.6528 51.2796 36.8559 51.4807L37.5666 52.4862L38.3789 53.4917C38.5819 53.6928 38.785 53.8939 38.9881 54.095C40.0034 55.1005 40.4095 55.5027 40.8156 55.9049C41.2217 56.3071 41.3233 56.4076 41.4248 56.5082C42.1355 57.1115 42.2371 57.212 42.3386 57.212L43.3539 57.8153C44.3692 58.4186 45.3846 58.8208 46.3998 59.0219C47.5167 59.3235 48.6336 59.4241 49.7504 59.3235C50.8671 59.223 51.9841 59.0219 52.9994 58.7202C54.2178 58.4186 55.2331 57.9158 56.1468 57.3126"/>
	<path fill="#8C7A5D" d="M48.5005 106.254L15.2999 106.254C10.8325 106.254 7.07586 104.042 6.5682 101.126L3.9284 85.1392L3.6238 83.4299C3.11615 80.4134 3.9284 75.0844 10.8325 74.529L32.9663 74.529L52.8663 74.529C59.0597 73.8778 61.2934 80.4134 60.7857 83.4299L57.1306 101.126C56.7245 104.042 52.9678 106.254 48.5005 106.254"/>
	<path fill="#2D1B0A" d="M48.5382 107.265L15.3524 107.265C10.3797 107.265 6.21875 104.751 5.60984 101.332L2.66676 83.6357C2.5238 82.6302 2.15933 79.3121 4.29053 76.5973C5.71132 74.7874 7.944 73.7819 10.7856 73.5189L52.8005 73.5189C55.3377 73.2792 57.5704 74.0835 59.1941 75.8934C61.3253 78.1055 62.1372 81.4236 61.7313 83.6357L58.0778 101.433C57.6718 104.65 53.5109 107.265 48.5382 107.265M10.9886 75.5918C8.75588 75.6923 7.03063 76.4967 6.01578 77.8038C4.39201 79.8148 4.69647 82.4291 4.79795 83.2335L7.74103 100.93C8.14697 103.343 11.496 105.153 15.4539 105.153L48.6396 105.153C52.5976 105.153 55.9466 103.243 56.3525 100.93L60.006 83.1329C60.209 81.8258 59.7016 79.0104 57.9763 77.2006C56.7585 75.8934 55.1347 75.3907 53.2065 75.5918L10.9886 75.5918"/>
	<path fill="#2D1B0A" d="M6.8028 87.1755L57.7714 87.1755L57.7714 89.1865L6.8028 89.1865L6.8028 87.1755"/>
	<path fill="#2D1B0A" d="M8.7494 96.3254L55.2506 96.3254L55.2506 98.3364L8.7494 98.3364L8.7494 96.3254"/>
	<path fill="white" d="M16.5497 81.6452C16.5497 81.9469 20.0018 103.263 20.0018 103.263"/>
	<path fill="#2D1B0A" d="M19.088 103.364C19.088 103.364 15.636 82.0475 15.636 81.7458L17.6666 81.4442C17.6666 81.7458 21.1186 103.062 21.1186 103.062L19.088 103.364"/>
	<path fill="white" d="M48.0243 81.3437C48.0243 81.6453 44.5723 102.962 44.5723 102.962"/>
	<path fill="#2D1B0A" d="M45.5876 103.062L43.557 102.76C43.557 102.76 47.009 81.4442 47.009 81.1426L49.0396 81.4442C49.0396 81.7459 45.5876 103.062 45.5876 103.062"/>
	<path fill="white" d="M32.8963 80.9415C32.8963 81.2431 33.0963 102.861 33.0963 102.861"/>
	<path fill="#2D1B0A" d="M31.8508 81.0854L33.8814 81.0854L34.0622 103.021L32.0316 103.021L31.8508 81.0854"/>
	<path fill="#2D1B0A" d="M8.22426 80.2377C8.02119 79.7349 4.56914 67.6691 11.0671 59.3237C15.1284 53.9946 22.2355 51.3803 32.1856 51.5706C43.4556 51.7825 51.2734 54.8995 55.4361 60.8319C61.2234 68.9763 57.873 79.2322 57.6698 79.6344L55.7407 79.0312C55.7407 78.9306 58.8883 69.2779 53.7102 61.938C49.9536 56.6088 42.6432 53.7935 32.084 53.5924C22.8447 53.3913 16.3467 55.7039 12.5901 60.5302C6.70129 68.172 10.0518 79.6344 10.1533 79.7349L8.22426 80.2377"/>
</svg>
