<?xml version="1.0" encoding="utf-8" ?>
<svg xmlns="http://www.w3.org/2000/svg" xmlns:xlink="http://www.w3.org/1999/xlink" width="118" height="156">
	<path fill="white" d="M42.2867 156C36.4471 156 31.6143 151.664 31.0102 145.916L27.587 114.555C24.3652 114.555 21.9488 112.134 21.9488 109.109C21.9488 106.689 22.8549 105.076 24.2645 104.067C14.8003 97.0084 6.84642 87.3277 1.10751 75.6303L0 73.3109L2.11433 71.7983C3.12116 71.0924 4.22867 70.9916 5.03413 70.9916C9.2628 70.9916 19.4317 74.1176 25.4727 76.3361C23.7611 69.5798 22.7543 62.521 22.5529 55.1597L22.4522 52.6387L24.8686 52.0336C25.1706 51.9328 25.372 51.9328 25.6741 51.9328C28.7952 51.9328 35.2389 58.2857 39.7696 63.1261C40.0717 57.8824 40.6758 52.5378 41.3805 46.6891C42.9915 33.1765 47.0188 20.0672 53.5631 6.65546L56.785 0L59 7.05882C64.4369 23.4958 69.6724 41.042 71.8874 59.4958C73.2969 57.7815 74.8072 56.0672 76.2167 54.5546C76.4181 54.3529 94.0375 35.8992 99.7765 35.8992C100.179 35.8992 100.582 36 100.884 36.1008L103.2 36.8067L102.998 39.2269C101.79 53.5462 98.3669 66.958 92.93 78.5546C98.6689 77.042 107.63 75.2269 112.06 75.2269C113.973 75.2269 115.181 75.5294 116.087 76.3361L118 78L116.691 80.1681C113.57 85.5126 109.845 90.4538 105.717 94.7899C101.79 98.9244 97.5614 102.454 93.0307 105.479C93.6348 106.286 93.9369 107.395 93.9369 108.403C93.9369 112.034 91.5205 114.454 88.5 114.454L85.0768 145.815C84.4727 151.563 79.6399 156 73.8003 156L42.2867 156"/>
	<path fill="#42B275" d="M57.8925 113.345C53.3618 102.756 47.2202 92.5715 38.6622 86.622C35.0376 84.1009 31.2116 82.3866 27.285 80.7732C21.7475 78.5547 5.73895 73.4118 3.7253 74.8236C9.66557 86.8236 18.0222 96.8068 28.0905 103.563C38.1587 110.319 49.2338 114.151 60.3089 115.059"/>
	<path fill="#2D1B0A" d="M60.3089 115.966C48.6297 114.958 37.3533 110.924 27.5871 104.269C17.4181 97.4118 8.96079 87.3277 2.91983 75.1261L3.22188 73.8151C6.14167 71.7983 25.5734 78.8571 27.6877 79.6639C31.3123 81.0756 35.4403 82.8908 39.2662 85.6135C46.8174 90.958 53.2611 99.8319 58.7987 112.84L57.1877 113.546C58.2953 113.748 59.4028 113.849 60.5103 113.95L60.3089 115.966M5.33621 75.4286C11.1758 86.7227 19.2304 96.1009 28.6946 102.656C37.1519 108.403 46.8174 112.134 56.8857 113.546C51.5495 101.244 45.2065 92.3698 38.0581 87.3277C34.4335 84.7059 30.4062 82.9916 26.8823 81.5798C21.0427 79.2605 9.06147 75.6303 5.33621 75.4286"/>
	<path fill="#299959" d="M48.5289 117.68C45.3071 109.21 42.9914 98.4201 42.3873 88.4369C41.6825 74.6218 42.5887 61.0083 44.1996 47.6974C46.0119 32.8739 50.6433 19.8655 56.0802 8.6722C62.5238 28.4369 68.6655 49.6134 69.6722 71.9999C70.0751 80.773 69.6722 89.647 67.9606 97.7142C66.2491 105.781 63.2285 112.84 59 117.075L48.5289 117.68"/>
	<path fill="#2D1B0A" d="M47.8242 118.689C44.1996 109.311 41.8839 98.2184 41.3805 88.4369C40.6757 76.2353 41.2798 63.2269 43.1928 47.4958C44.8037 34.1848 48.7304 21.2773 55.174 8.06719L56.2815 5.8487L57.087 8.16803C63.5307 28.0336 69.6723 49.4117 70.7798 71.6974C71.2833 81.3781 70.6792 90.0504 69.0682 97.6134C67.2559 106.286 63.9334 113.345 59.9061 117.479L47.8242 118.689M55.9795 11.2941C50.2406 23.4958 46.7167 35.4958 45.2065 47.7983C43.2935 63.3277 42.6894 76.2353 43.3942 88.4369C43.8976 97.8151 46.1126 108.303 49.2338 116.673L58.6979 116.067C62.4232 112.135 65.343 105.58 67.0546 97.4117C68.6655 90.0504 69.1689 81.479 68.7662 72C67.7594 50.7226 62.1211 30.2521 55.9795 11.2941"/>
	<path fill="#42B275" d="M57.8925 112.422C63.2287 102.338 70.0751 92.7582 78.8345 87.6154C82.5598 85.3969 86.4864 84.086 90.413 82.8759C96.0512 81.1616 112.16 77.6322 113.973 79.1448C107.227 90.5397 98.1656 99.6154 87.7953 105.464C77.425 111.313 66.1485 113.935 55.1741 113.837"/>
	<path fill="#2D1B0A" d="M55.8285 114.857C55.6272 114.857 55.4258 114.857 55.2244 114.857L55.2244 112.84C56.332 112.84 57.4395 112.84 58.547 112.74L56.9361 111.933C63.4804 99.5294 70.4276 91.3614 78.2807 86.7227C82.2074 84.4034 86.4361 82.9916 90.0607 81.8824C92.1749 81.1765 111.909 76.0336 114.526 78.353L114.728 79.563C107.881 91.1597 98.7193 100.336 88.1476 106.286C78.3814 111.933 67.1049 114.857 55.8285 114.857M112.009 79.6639C107.982 79.6639 96.5043 81.9832 90.7654 83.7983C87.2415 84.9076 83.1135 86.2185 79.3882 88.437C72.0385 92.7731 65.0913 100.941 58.849 112.74C68.8167 112.235 78.5828 109.513 87.3421 104.571C97.209 99.0252 105.868 90.4538 112.513 79.6639C112.311 79.6639 112.211 79.6639 112.009 79.6639"/>
	<path fill="#42B275" d="M59.7048 110.218C60.3089 95.3949 62.7253 80.2688 68.9677 69.2771C71.6861 64.6385 74.9079 60.8065 78.2303 57.1763C82.9624 52.0334 97.36 38.7225 99.8772 39.4941C98.4677 56.7729 93.7355 72.504 86.0836 85.2099C78.5324 97.9158 68.5648 107.294 57.6912 113.344"/>
	<path fill="#2D1B0A" d="M58.1946 114.252L57.1878 112.536C68.3636 106.381 78.0291 96.694 85.1776 84.6859C92.5274 72.4761 97.1588 57.239 98.669 40.6902C95.1451 42.4056 84.0701 52.1936 78.9352 57.8445C75.9148 61.0735 72.4916 65.0089 69.7731 69.7516C64.437 79.136 61.3158 92.7586 60.611 110.316L58.5974 110.216C59.3021 92.1531 62.4233 78.5306 68.0615 68.7425C70.8806 63.798 74.4045 59.8626 77.5257 56.4318C77.727 56.23 96.152 37.2593 100.179 38.4146L100.884 39.4793C99.4745 56.8354 94.6417 72.7788 86.9898 85.5941C79.64 98.0058 69.6724 107.895 58.1946 114.252"/>
	<path fill="#42B275" d="M55.5769 116.067C55.5769 103.866 54.268 91.3614 49.5359 81.8824C47.5223 77.8487 45.0052 74.521 42.3875 71.395C38.7629 66.8571 27.4865 55.0588 25.4728 55.4521C25.9762 69.6807 29.2987 82.8908 35.0377 93.7815C40.7766 104.672 48.4284 113.042 57.0871 118.79"/>
	<path fill="#2D1B0A" d="M56.4829 119.597C47.3208 113.544 39.5683 104.767 34.0307 94.1747C28.2918 83.1787 24.9693 69.7616 24.3652 55.4365L25.1707 54.3998C28.6945 53.6207 42.9915 70.5686 43.0922 70.6695C45.5085 73.5951 48.227 77.1259 50.3413 81.3629C54.57 89.736 56.5836 101.135 56.4829 116.066L54.872 116.066C55.7782 116.671 56.6843 117.377 57.5905 117.982L56.4829 119.597M26.5802 56.8489C27.285 70.3669 30.5068 82.8761 35.9437 93.2668C40.6758 102.346 47.1195 110.114 54.6707 115.763C54.6707 101.539 52.657 90.2404 48.7304 82.2708C46.7167 78.2356 43.9983 74.8056 41.6826 71.8801C37.756 67.2396 29.7014 58.8665 26.5802 56.8489"/>
	<path fill="white" d="M73.5989 153.379L42.186 153.379C37.9573 153.379 34.3327 150.152 33.93 145.916L29.802 107.395L86.0836 107.395L81.9556 145.916C81.4522 150.152 77.9283 153.379 73.5989 153.379"/>
	<path fill="#2D1B0A" d="M73.5989 154.387L42.186 154.387C37.4539 154.387 33.4266 150.757 32.9232 146.017L28.6945 106.387L87.1911 106.387L82.9624 146.017C82.459 150.757 78.4317 154.387 73.5989 154.387M30.9095 108.404L34.9368 145.816C35.3396 149.547 38.4607 152.37 42.186 152.37L73.5989 152.37C77.3242 152.37 80.4454 149.547 80.8481 145.816L84.8754 108.404L30.9095 108.404"/>
	<path fill="white" d="M88.2986 111.832L27.3856 111.832C26.0768 111.832 24.9692 110.722 24.9692 109.412C24.9692 107.496 26.0768 106.386 27.3856 106.386L88.2986 106.386C89.6075 106.386 90.715 107.496 90.715 108.806C90.715 110.722 89.6075 111.832 88.2986 111.832"/>
	<path fill="#2D1B0A" d="M88.2987 112.84L27.3857 112.84C25.4727 112.84 23.9625 111.327 23.9625 109.412C23.9625 106.891 25.4727 105.378 27.3857 105.378L88.2987 105.378C90.2116 105.378 91.7219 106.891 91.7219 108.806C91.7219 111.327 90.2116 112.84 88.2987 112.84M27.3857 107.496C26.5802 107.496 25.9762 108.101 25.9762 108.907C25.9762 110.319 26.5802 110.924 27.3857 110.924L88.2987 110.924C89.1041 110.924 89.7082 110.319 89.7082 109.512C89.7082 108.101 89.1041 107.496 88.2987 107.496L27.3857 107.496"/>
	<path fill="#AAFF3B" d="M58.7987 35.0924L60.8123 35.0924L60.8123 38.1176L58.7987 38.1176L58.7987 35.0924"/>
	<path fill="#AAFF3B" d="M71.9423 72.6329L73.6161 71.5116L76.2471 75.4511L74.5733 76.5724L71.9423 72.6329"/>
	<path fill="#AAFF3B" d="M92.0942 57.6807C91.9232 55.563 92.7287 53.2437 94.3396 51.7311L95.7492 53.2437C94.6417 54.2521 94.0376 55.9664 94.1383 57.479L92.0942 57.6807"/>
	<path fill="#AAFF3B" d="M91.4198 89.5462L89.9096 88.1345C90.9164 87.0252 91.8226 85.8151 92.5273 84.4034L94.3396 85.4118C93.6348 86.9244 92.628 88.2353 91.4198 89.5462"/>
	<path fill="#AAFF3B" d="M103.2 94.1848C101.388 93.2773 99.9781 91.7647 99.0719 89.9495L100.884 89.042C101.589 90.4537 102.697 91.6638 104.106 92.3697L103.2 94.1848"/>
	<path fill="#AAFF3B" d="M31.8294 68.756L33.2794 65.21L35.1428 65.9743L33.6928 69.5204L31.8294 68.756"/>
	<path fill="#AAFF3B" d="M37.2526 85.2101C34.5341 82.8908 32.4198 79.6639 31.413 76.2353L33.3259 75.6303C34.2321 78.6555 36.1451 81.5799 38.5614 83.5967L37.2526 85.2101"/>
	<path fill="#AAFF3B" d="M19.1297 84.4034L17.116 84.1009C17.2167 83.1933 16.814 82.0841 16.0085 81.479L17.2167 79.8656C18.6262 80.9748 19.331 82.79 19.1297 84.4034"/>
	<path fill="#AAFF3B" d="M22.9556 93.3782C21.0426 93.2773 19.2303 92.6723 17.5187 91.7647L18.5256 90.0504C19.9351 90.8572 21.4454 91.2605 23.0563 91.3614L22.9556 93.3782"/>
</svg>
