<?xml version="1.0" encoding="utf-8" ?>
<svg xmlns="http://www.w3.org/2000/svg" xmlns:xlink="http://www.w3.org/1999/xlink" width="72" height="148">
	<path fill="white" d="M68.2897 95.2005C67.9889 85.105 67.688 75.7162 67.2869 65.2169C66.9861 58.1501 66.6852 50.7804 65.6825 43.6126C65.1811 39.9782 64.1783 34.4256 63.2758 29.2769C61.4708 19.3834 61.3705 19.2824 60.3677 18.4748L58.0613 16.6576L56.156 18.8786C52.7465 22.8158 50.7409 28.2674 49.2368 33.4161C49.1365 33.0123 49.1365 32.6085 49.0362 32.3056C48.3343 27.8636 47.2312 20.9986 46.1281 14.6385C44.0223 2.72578 43.8217 2.62483 42.8189 1.81719L40.5125 0L38.6072 2.22101C33.6936 7.97544 31.0864 16.2538 29.2813 23.6235C28.6797 26.0464 28.078 28.5703 27.5766 31.0941C27.4763 30.3874 27.376 29.7817 27.2758 29.176C25.4708 19.2824 25.3705 19.1814 24.3677 18.3738L22.0613 16.5566L20.156 18.7776C16.0446 23.5225 13.9387 30.3874 12.4345 36.4447C7.72145 55.1214 6.01671 75.4134 7.42061 94.9986L5.41504 94.9986C2.40669 94.9986 0 97.4216 0 100.45C0 104.085 2.40669 106.508 5.41504 106.508L9.02507 137.905C9.62674 143.659 14.5404 148 20.3565 148L51.844 148C57.6602 148 62.5738 143.659 63.1755 137.804L66.585 106.407C69.5933 106.407 72 103.984 72 100.955C71.8997 97.9263 70.3955 95.9072 68.2897 95.2005"/>
	<path fill="white" d="M51.7438 144.77L20.4569 144.77C16.2451 144.77 12.6351 141.539 12.234 137.299L8.12255 98.7343L64.1782 98.7343L60.0669 137.299C59.5655 141.539 55.9555 144.77 51.7438 144.77"/>
	<path fill="#2D1B0A" d="M51.7437 145.779L20.4568 145.779C15.7437 145.779 11.7326 142.145 11.2312 137.4L7.0195 97.7247L65.2813 97.7247L61.0696 137.4C60.468 142.145 56.5571 145.779 51.7437 145.779M9.22563 99.7438L13.2368 137.198C13.6379 140.933 16.7465 143.76 20.4568 143.76L51.7437 143.76C55.454 143.76 58.5627 140.933 58.9638 137.198L62.9749 99.7438L9.22563 99.7438"/>
	<path fill="white" d="M66.3343 103.176L5.66579 103.176C4.36216 103.176 3.2591 102.065 3.2591 100.753C3.2591 98.8347 4.36216 97.7242 5.66579 97.7242L66.3343 97.7242C67.6379 97.7242 68.741 98.8347 68.741 100.147C68.741 102.166 67.6379 103.176 66.3343 103.176"/>
	<path fill="#2D1B0A" d="M66.3343 104.185L5.66577 104.185C3.76048 104.185 2.2563 102.671 2.2563 100.753C2.2563 98.229 3.76048 96.7147 5.66577 96.7147L66.3343 96.7147C68.2396 96.7147 69.7438 98.229 69.7438 100.147C69.7438 102.671 68.2396 104.185 66.3343 104.185M5.66577 98.8347C4.86354 98.8347 4.26187 99.4405 4.26187 100.248C4.26187 101.661 4.86354 102.267 5.66577 102.267L66.3343 102.267C67.1365 102.267 67.7382 101.661 67.7382 100.854C67.7382 99.4405 67.1365 98.8347 66.3343 98.8347L5.66577 98.8347"/>
	<path fill="#CBEAA7" d="M26.5739 97.2701C24.468 72.738 26.4736 47.6003 32.39 24.1787C34.2953 16.708 36.702 9.1364 41.1142 3.9877C41.5154 4.29057 44.9248 23.472 46.2285 32.558C47.5321 41.1391 47.8329 49.9222 48.234 58.7053C48.7354 72.1323 49.1365 84.045 49.5376 97.472L26.5739 97.2701"/>
	<path fill="#2D1B0A" d="M50.4402 98.633L25.5711 98.4311C23.365 72.8895 25.4708 47.5498 31.287 24.1282C33.092 16.9604 35.4987 8.98495 40.2118 3.53339L41.6157 3.43243C42.7187 4.34102 47.0307 32.4065 47.131 32.7094C48.4346 41.3915 48.7354 50.2755 49.1365 58.9577C49.6379 72.4856 50.0391 84.3983 50.4402 97.7244M27.4764 96.311L48.4346 96.5129C48.0335 83.6916 47.6324 71.9809 47.131 58.8567C46.8301 50.2755 46.429 41.3915 45.2257 32.8103C44.0223 24.7339 41.7159 11.206 40.6129 6.25917C37.0028 11.3069 34.897 18.2728 33.3928 24.4311C27.5767 47.4488 25.5711 72.2837 27.4764 96.311"/>
	<path fill="#CBEAA7" d="M10.8374 96.4119C9.13269 76.4228 10.7371 56.0299 15.5505 37.0504C17.0547 30.9931 19.0603 24.8349 22.57 20.6957C22.9711 20.9986 25.6786 36.5456 26.7817 43.9153C27.7845 50.8812 28.0854 58.049 28.3862 65.1159C28.7873 76.019 29.1884 85.7107 29.4893 96.6138L10.8374 96.4119"/>
	<path fill="#2D1B0A" d="M30.4848 97.6235L9.92766 97.4216C8.12265 76.5239 9.82739 55.8281 14.5405 36.7476C16.0447 30.8922 18.0502 24.4311 21.7605 19.9891L23.1644 19.8881C24.1672 20.6958 27.677 43.5116 27.677 43.8145C28.6798 50.8813 28.9806 58.1501 29.2814 65.2169C29.6825 76.221 30.0837 85.9127 30.3845 96.7149M11.7327 95.4025L28.3789 95.6044C28.0781 85.206 27.7772 75.8172 27.3761 65.2169C27.0753 58.251 26.7745 50.9823 25.7717 44.1173C24.8692 37.8581 22.9639 27.2578 22.1616 23.0177C19.3538 27.0559 17.7494 32.5075 16.546 37.3533C11.833 55.8281 10.2285 75.9181 11.7327 95.4025"/>
	<path fill="#CBEAA7" d="M46.6368 96.6138C44.9321 76.6247 46.5365 56.2318 51.3499 37.2523C52.8541 31.195 54.8597 25.0368 58.3694 20.8976C58.7705 21.2005 61.4781 36.7475 62.5811 44.1172C63.5838 51.0831 63.8848 58.2509 64.1855 65.3178C64.5866 76.2209 64.9877 85.9126 65.2887 96.8157L46.6368 96.6138"/>
	<path fill="#2D1B0A" d="M66.2842 97.8254L45.7271 97.6235C43.922 76.7258 45.6268 56.03 50.3399 36.9495C51.8441 31.0941 53.8496 24.633 57.5599 20.191L58.9638 20.09C59.9666 20.8977 63.4764 43.7135 63.4764 44.0164C64.4792 51.0832 64.78 58.352 65.0808 65.4188C65.4819 76.4229 65.8831 86.1146 66.1839 96.9168M47.6324 95.6044L64.2786 95.8063C63.9778 85.4079 63.6769 76.0191 63.2758 65.4188C62.975 58.4529 62.6741 51.1842 61.6714 44.3192C60.7688 38.06 58.8636 27.4597 58.0613 23.2196C55.2535 27.2578 53.6491 32.7094 52.4457 37.5552C47.7326 56.03 46.0279 76.12 47.6324 95.6044"/>
	<path fill="#2F7541" d="M23.064 41.7954C22.3621 37.1515 21.6601 33.0123 21.4596 32.8104C19.7548 35.0314 18.5515 37.9591 17.649 41.0887C17.9498 41.0887 18.1504 41.0887 18.4512 41.1897C20.8579 41.2906 21.961 41.5935 23.064 41.7954"/>
	<path fill="#2F7541" d="M18.1504 80.8649C22.4625 81.2687 22.663 81.8745 26.0725 81.5716C26.0725 80.663 25.9721 79.7544 25.9721 78.8458C24.3676 79.0477 22.0613 79.1487 19.0529 78.6439C16.0446 78.1873 13.9387 78.1873 12.5348 78.1873C12.5348 79.3506 12.5348 80.3602 12.4346 81.4706C13.2368 81.0668 14.9415 80.5621 18.1504 80.8649"/>
	<path fill="#2F7541" d="M17.7493 73.3943C22.1615 73.7981 22.2618 74.5048 25.8718 74.101C25.8718 72.8895 25.7715 71.5771 25.7715 70.3656C24.1671 70.5675 21.8607 70.5675 18.9526 70.1637C16.3454 69.7235 14.3398 69.7235 12.9359 69.7235C12.8356 71.0723 12.7353 72.4857 12.7353 73.7981C13.6379 73.4952 15.2423 73.1924 17.7493 73.3943"/>
	<path fill="#2F7541" d="M17.9498 49.6698C21.5598 49.9727 22.2618 50.4775 24.3676 50.4775C24.1671 49.266 24.0668 47.9536 23.8662 46.6412C22.6629 46.6412 21.3593 46.5402 19.8551 46.2374C18.5515 46.0354 17.4484 45.9345 16.5459 45.8335C16.5459 46.0354 16.4456 46.1364 16.4456 46.3383C16.2451 47.4488 16.0445 48.4584 15.844 49.5689C16.3454 49.5689 17.0473 49.6698 17.9498 49.6698"/>
	<path fill="#2F7541" d="M17.649 58.251C21.7604 58.6548 22.1615 59.2605 25.1699 58.9577C25.0696 57.6452 24.9693 56.4338 24.869 55.1214C23.3648 55.2223 21.4596 55.1214 19.1532 54.8185C17.4484 54.4147 15.9442 54.4147 14.8412 54.4147C14.6406 55.7271 14.4401 57.0395 14.2395 58.251C15.0417 58.15 16.2451 58.15 17.649 58.251"/>
	<path fill="#2F7541" d="M17.649 65.015C21.961 65.4188 22.1616 66.0245 25.5711 65.7217C25.5711 65.015 25.4707 64.4093 25.4707 63.7026C23.8664 63.9045 21.7605 63.9045 18.9527 63.3997C16.6463 62.9595 14.9415 62.9595 13.6379 62.9595C13.5376 63.7026 13.4374 64.4093 13.4374 65.1159C14.3399 64.914 15.7438 64.8131 17.649 65.015"/>
	<path fill="#2F7541" d="M19.454 85.7108C16.0445 85.2817 13.8384 85.2817 12.5348 85.4079C12.5348 86.5184 12.5348 87.6289 12.5348 88.7394C13.5376 88.4365 15.142 88.1337 18.1504 88.3356C22.5627 88.6384 22.6629 89.2442 26.3732 88.9413C26.3732 87.9318 26.273 87.0232 26.273 86.0136C24.5682 86.1146 22.3621 86.2155 19.454 85.7108"/>
	<path fill="#2F7541" d="M19.3538 92.5757C16.2451 92.2167 14.1393 92.2167 12.7354 92.2167C12.8357 93.3833 12.8357 94.4938 12.936 95.6043L26.4736 95.7053C26.4736 94.6957 26.4736 93.6862 26.3733 92.6766C24.7688 92.8785 22.4624 92.9795 19.3538 92.5757"/>
	<path fill="#C0E2C7" d="M18.0501 88.2702C15.0418 88.1337 13.337 88.4365 12.5348 88.7394C12.5348 89.9508 12.5348 91.0613 12.7354 92.2728C14.1393 92.1719 16.2451 92.1719 19.3537 92.5757C22.4624 92.9795 24.7688 92.9795 26.3732 92.7776C26.3732 91.4652 26.273 90.1528 26.273 88.9413C22.6629 89.2442 22.5627 88.6384 18.0501 88.2702"/>
	<path fill="#C0E2C7" d="M19.454 85.7108C22.3621 86.1146 24.5682 86.1146 26.273 85.9127C26.273 84.3984 26.1727 82.985 26.1727 81.4707C22.7632 81.7736 22.5627 81.1678 18.2507 80.6706C15.0418 80.4612 13.337 80.9659 12.5348 81.2688C12.5348 82.5812 12.5348 83.9946 12.5348 85.307C13.8384 85.206 16.0445 85.206 19.454 85.7108"/>
	<path fill="#C0E2C7" d="M19.0529 78.543C22.0613 79.0478 24.3676 78.9468 25.9722 78.7449C25.9722 77.2306 25.8718 75.6153 25.7715 74.101C22.2618 74.5048 22.0613 73.7981 17.649 73.313C15.1421 73.1924 13.5376 73.313 12.5348 73.6972C12.4345 75.2115 12.4345 76.6249 12.3343 78.1392C13.9387 78.0382 16.0446 78.0382 19.0529 78.543"/>
	<path fill="#C0E2C7" d="M18.9526 70.1637C21.8607 70.6685 24.1671 70.5675 25.7716 70.3656C25.7716 70.1637 25.7716 69.8609 25.7716 69.6589C25.7716 68.3465 25.6713 67.0341 25.6713 65.7217C22.2618 66.0246 22.0613 65.4188 17.7493 65.015C15.844 64.905 14.4401 64.905 13.4373 65.116C13.2368 66.6303 13.1365 68.1446 13.0362 69.7599C14.3398 69.6589 16.2451 69.6589 18.9526 70.1637"/>
	<path fill="#C0E2C7" d="M18.9527 63.3997C21.7605 63.9045 23.8664 63.8035 25.4707 63.7025C25.3706 62.1882 25.2703 60.5729 25.17 59.0586C22.1616 59.3615 21.7605 58.6548 17.6491 58.2762C16.2452 58.2762 15.0418 58.2762 14.1393 58.2762C13.9388 59.8663 13.7382 61.4815 13.5377 63.0968C14.9416 62.9959 16.6463 63.0968 18.9527 63.3997"/>
	<path fill="#C0E2C7" d="M24.8692 55.2224C24.7688 54.2128 24.6686 53.1023 24.5683 52.0928C24.468 51.588 24.468 51.0832 24.3677 50.5784C22.2619 50.5784 21.5599 50.0737 17.9499 49.7708C17.1477 49.6698 16.3454 49.6698 15.7438 49.6698C15.4429 51.2851 15.1421 52.9004 14.8413 54.4147C16.0446 54.4147 17.4485 54.6166 19.1532 54.8185C21.4596 55.2224 23.3649 55.3233 24.8692 55.2224"/>
	<path fill="#C0E2C7" d="M23.766 46.6412C23.5655 45.026 23.2646 43.4107 23.0641 41.7954C21.961 41.5935 20.858 41.2906 18.5515 41.0887C18.2507 41.0887 17.9499 41.0887 17.7493 40.9878C17.2479 42.603 16.8468 44.2183 16.546 45.8336C17.5488 45.9345 18.6518 46.0355 19.8552 46.2374C21.2591 46.5403 22.663 46.6412 23.766 46.6412"/>
	<path fill="#2F7541" d="M59.1644 41.9973C58.4624 37.3534 57.7605 33.2142 57.5599 33.0123C55.8552 35.2333 54.6518 38.161 53.7493 41.2906C54.0501 41.2906 54.2507 41.2906 54.5515 41.3916C56.9582 41.4925 58.0613 41.7954 59.1644 41.9973"/>
	<path fill="#2F7541" d="M54.2507 81.0668C58.5627 81.4706 58.7632 82.0764 62.1727 81.7735C62.1727 80.8649 62.0724 79.9563 62.0724 79.0477C60.4679 79.2496 58.1616 79.3506 55.1532 78.8458C52.1449 78.3892 50.039 78.3892 48.6351 78.3892C48.6351 79.5525 48.6351 80.562 48.5348 81.6725C49.3371 81.1678 51.0418 80.764 54.2507 81.0668"/>
	<path fill="#2F7541" d="M53.8496 73.5962C58.2618 74 58.3621 74.7067 61.9722 74.3028C61.9722 73.0914 61.8719 71.779 61.8719 70.5675C60.2675 70.7694 57.961 70.7694 55.0529 70.3656C52.4457 69.9254 50.4401 69.9254 49.0362 69.9254C48.9359 71.2742 48.8357 72.6876 48.8357 74C49.7382 73.5962 51.3426 73.3942 53.8496 73.5962"/>
	<path fill="#2F7541" d="M54.0502 49.8718C57.6602 50.1747 58.3621 50.6795 60.468 50.6795C60.2674 49.468 60.1671 48.1556 59.9666 46.8432C58.7632 46.8432 57.4596 46.7422 55.9554 46.4394C54.6518 46.2374 53.5488 46.0355 52.6463 46.0355C52.6463 46.2374 52.546 46.3384 52.546 46.5403C52.3454 47.6508 52.1449 48.6604 51.9443 49.7709C52.4457 49.7709 53.1476 49.7709 54.0502 49.8718"/>
	<path fill="#2F7541" d="M53.7493 58.453C57.8607 58.8568 58.2618 59.4625 61.2702 59.1597C61.1699 57.8472 61.0696 56.6358 60.9693 55.3234C59.4652 55.4243 57.5599 55.3234 55.2535 55.0205C53.5488 54.6167 52.0446 54.6167 50.9415 54.6167C50.741 55.9291 50.5404 57.2415 50.3398 58.453C51.1421 58.352 52.3454 58.352 53.7493 58.453"/>
	<path fill="#2F7541" d="M53.7493 65.116C58.0613 65.5198 58.2618 66.1255 61.6713 65.8227C61.6713 65.116 61.571 64.5103 61.571 63.8036C59.9666 64.0055 57.8607 64.0055 55.0529 63.5007C52.7465 63.0605 51.0418 63.0605 49.7382 63.0605C49.6379 63.8036 49.5376 64.5103 49.5376 65.2169C50.4401 65.116 51.844 65.015 53.7493 65.116"/>
	<path fill="#2F7541" d="M55.5543 85.9128C52.1449 85.4837 49.9387 85.4837 48.6351 85.6099C48.6351 86.7204 48.6351 87.8309 48.6351 88.9414C49.6379 88.6385 51.2424 88.3357 54.2507 88.5376C58.663 88.8404 58.7632 89.4462 62.4735 89.1433C62.4735 88.1338 62.3733 87.2252 62.3733 86.2156C60.6685 86.3166 58.4624 86.3166 55.5543 85.9128"/>
	<path fill="#2F7541" d="M55.454 92.6767C52.3454 92.3177 50.2396 92.3177 48.8357 92.3177C48.9359 93.4843 48.9359 94.5948 49.0362 95.7053L62.5739 95.8063C62.5739 94.7967 62.5739 93.7872 62.4736 92.7776C60.8691 93.0805 58.5627 93.0805 55.454 92.6767"/>
	<path fill="#C0E2C7" d="M54.1504 88.3712C51.1421 88.2346 49.4373 88.5375 48.6351 88.8404C48.6351 90.0518 48.6351 91.1623 48.8357 92.3738C50.2396 92.2729 52.3454 92.2729 55.4541 92.6767C58.5627 93.0805 60.8691 93.0805 62.4735 92.8786C62.4735 91.5662 62.3733 90.2538 62.3733 89.0423C58.7632 89.3452 58.663 88.7394 54.1504 88.3712"/>
	<path fill="#C0E2C7" d="M55.5543 85.9127C58.4624 86.3165 60.6685 86.3165 62.3733 86.1146C62.3733 84.6003 62.273 83.1869 62.273 81.6726C58.8635 81.9755 58.663 81.3698 54.351 80.8725C51.1421 80.6631 49.4373 81.1678 48.6351 81.4707C48.6351 82.7831 48.6351 84.1965 48.6351 85.5089C49.9387 85.408 52.1449 85.408 55.5543 85.9127"/>
	<path fill="#C0E2C7" d="M55.1532 78.7449C58.1616 79.2497 60.4679 79.1487 62.0725 78.9468C62.0725 77.4325 61.9722 75.8172 61.8718 74.3029C58.3621 74.7067 58.1616 74 53.7493 73.5149C51.2424 73.3943 49.6379 73.5149 48.6351 73.8991C48.5348 75.4134 48.5348 76.8268 48.4346 78.3411C50.039 78.2401 52.1449 78.2401 55.1532 78.7449"/>
	<path fill="#C0E2C7" d="M55.0529 70.2647C57.961 70.7695 60.2674 70.6685 61.8719 70.4666C61.8719 70.2647 61.8719 69.9619 61.8719 69.7599C61.8719 68.4475 61.7716 67.1351 61.7716 65.8227C58.3621 66.1256 58.1616 65.5198 53.8496 65.116C51.9443 65.006 50.5404 65.006 49.5376 65.217C49.3371 66.7313 49.2368 68.2456 49.1365 69.8609C50.4401 69.7599 52.3454 69.8609 55.0529 70.2647"/>
	<path fill="#C0E2C7" d="M55.0529 63.6017C57.8607 64.1065 59.9666 64.0055 61.571 63.9045C61.4708 62.3902 61.3705 60.7749 61.2702 59.2606C58.2619 59.5635 57.8607 58.8568 53.7493 58.4782C52.3454 58.4782 51.1421 58.4782 50.2396 58.4782C50.039 60.0683 49.8385 61.6835 49.6379 63.2988C51.0418 63.0969 52.7465 63.1979 55.0529 63.6017"/>
	<path fill="#C0E2C7" d="M60.9694 55.3234C60.8691 54.3138 60.7688 53.2033 60.6685 52.1938C60.5683 51.689 60.5683 51.1842 60.468 50.6795C58.3621 50.6795 57.6602 50.1747 54.0502 49.7709C53.2479 49.7709 52.4457 49.7709 51.844 49.7709C51.5432 51.3861 51.2423 53.0014 50.9415 54.5157C52.1449 54.5157 53.5488 54.7176 55.2535 54.9196C57.5599 55.4243 59.4652 55.4243 60.9694 55.3234"/>
	<path fill="#C0E2C7" d="M59.8663 46.8431C59.6658 45.2279 59.3649 43.6126 59.1644 41.9973C58.0613 41.7954 56.9582 41.4925 54.6518 41.2906C54.351 41.2906 54.0502 41.2906 53.8496 41.1897C53.3482 42.8049 52.9471 44.4202 52.6463 46.0355C53.649 46.1364 54.7521 46.2374 55.9554 46.4393C57.3593 46.6412 58.7632 46.7422 59.8663 46.8431"/>
	<path fill="#2F7541" d="M41.8162 27.5608C41.014 21.6044 40.2118 16.2538 40.0112 16.0519C38.1059 18.8786 36.702 22.614 35.5989 26.6522C35.8998 26.6522 36.2006 26.6522 36.6017 26.7531C39.3093 26.955 40.6129 27.3589 41.8162 27.5608"/>
	<path fill="#2F7541" d="M36.2006 77.7354C41.2145 78.1392 41.4151 79.0478 45.3259 78.5431C45.3259 77.3316 45.2257 76.2211 45.2257 75.0096C43.3204 75.3125 40.7131 75.3125 37.2034 74.7068C33.6936 74.1519 31.287 74.1519 29.6825 74.1519C29.6825 75.6154 29.5822 76.9278 29.5822 78.3411C30.4847 77.9373 32.4903 77.3316 36.2006 77.7354"/>
	<path fill="#2F7541" d="M35.6992 68.1447C40.8135 68.6495 40.9137 69.5581 45.0252 69.0533C45.0252 67.438 44.9249 65.8228 44.9249 64.2075C43.0196 64.5103 40.4123 64.5103 37.1031 63.9046C33.9945 63.3498 31.7884 63.3498 30.1839 63.3498C30.0836 65.1161 29.8831 66.8323 29.8831 68.5485C30.9861 68.1447 32.7911 67.8419 35.6992 68.1447"/>
	<path fill="#2F7541" d="M35.8998 37.6562C40.0112 38.0601 40.9137 38.7668 43.3204 38.6658C43.1198 37.1515 42.9193 35.4352 42.7187 33.719C41.4151 33.719 39.8106 33.5171 38.1059 33.2142C36.6017 32.9114 35.3984 32.8104 34.2953 32.7094C34.2953 32.9114 34.195 33.1133 34.195 33.4161C33.8942 34.8295 33.6936 36.1419 33.3928 37.5553C34.0948 37.5553 34.897 37.5553 35.8998 37.6562"/>
	<path fill="#2F7541" d="M35.5989 48.6604C40.4123 49.1652 40.8134 49.9728 44.3232 49.569C44.2229 47.9537 44.1226 46.2375 43.9221 44.6222C42.2173 44.7231 40.0112 44.6222 37.3037 44.2184C35.2981 43.8146 33.5934 43.7136 32.2897 43.6126C31.9889 45.2279 31.7884 46.9442 31.5878 48.5594C32.5906 48.5594 33.8942 48.5594 35.5989 48.6604"/>
	<path fill="#2F7541" d="M35.5989 57.2416C40.6129 57.7463 40.8134 58.554 44.7243 58.1502C44.7243 57.3425 44.624 56.4339 44.624 55.6263C42.819 55.8282 40.312 55.8282 37.1031 55.3234C34.4959 54.8186 32.4903 54.7177 30.9861 54.7177C30.8858 55.6263 30.6853 56.5349 30.6853 57.4435C31.6881 57.2416 33.2925 57.0396 35.5989 57.2416"/>
	<path fill="#2F7541" d="M37.6045 83.8937C33.6937 83.187 31.1867 83.3411 29.5822 83.4899C29.5822 84.9032 29.5822 86.3166 29.6825 87.73C30.6853 87.3262 32.5906 86.9223 36.1003 87.2252C41.2145 87.629 41.3148 88.3357 45.6268 87.9319C45.6268 86.7204 45.5265 85.408 45.5265 84.1966C43.6212 84.4994 41.014 84.4994 37.6045 83.8937"/>
	<path fill="#2F7541" d="M37.5042 92.6767C33.8942 92.2201 31.4875 92.2201 29.7828 92.2201C29.8831 93.6862 29.8831 95.0996 29.9833 96.513L45.7271 96.7149C45.7271 95.4025 45.6268 94.191 45.6268 92.8786C43.8218 93.0805 41.1143 93.1815 37.5042 92.6767"/>
	<path fill="#C0E2C7" d="M36.1003 87.2252C32.5906 86.9223 30.6853 87.3261 29.6825 87.73C29.6825 89.2443 29.7828 90.7586 29.8831 92.2729C31.4875 92.071 33.9945 92.071 37.6045 92.6768C41.2145 93.1815 43.8218 93.1815 45.7271 92.8787C45.7271 91.2634 45.6268 89.5472 45.6268 87.9319C41.3148 88.3357 41.2145 87.629 36.1003 87.2252"/>
	<path fill="#C0E2C7" d="M37.6045 83.8936C41.014 84.4994 43.521 84.3984 45.4263 84.1965C45.4263 82.2784 45.326 80.3602 45.2257 78.543C41.3148 78.9468 41.014 78.1392 36.1003 77.644C32.39 77.4325 30.3845 77.9373 29.482 78.4421C29.482 80.1583 29.482 81.8745 29.482 83.5908C31.1867 83.2879 33.7939 83.2879 37.6045 83.8936"/>
	<path fill="#C0E2C7" d="M37.2034 74.7067C40.7131 75.3125 43.3204 75.3125 45.2257 75.0096C45.1254 72.9905 45.1254 71.0724 45.0251 68.9523C40.9137 69.4571 40.7131 68.5485 35.6992 68.0437C32.7911 67.7408 30.9861 68.0437 29.7828 68.4475C29.6825 70.3657 29.5822 72.2838 29.5822 74.202C31.287 74.101 33.6937 74.101 37.2034 74.7067"/>
	<path fill="#C0E2C7" d="M37.0028 63.9046C40.4123 64.5103 43.0196 64.5103 44.8246 64.2074C44.8246 63.9046 44.8246 63.6017 44.8246 63.2988C44.7243 61.5826 44.7243 59.8664 44.6241 58.2511C40.7132 58.6549 40.5126 57.8473 35.4987 57.3425C33.2925 57.2374 31.6881 57.2374 30.4847 57.5444C30.2842 59.4625 30.1839 61.4816 29.9834 63.5007C31.6881 63.2988 33.9945 63.2988 37.0028 63.9046"/>
	<path fill="#C0E2C7" d="M37.0028 55.3234C40.2118 55.9292 42.7187 55.9292 44.5238 55.6263C44.4235 53.6072 44.3232 51.5881 44.2229 49.6699C40.7132 49.9728 40.312 49.1652 35.4987 48.7613C33.7939 48.6448 32.4903 48.6448 31.4875 48.7613C31.1867 50.7804 30.9861 52.7995 30.7856 54.8186C32.39 54.7177 34.3956 54.8186 37.0028 55.3234"/>
	<path fill="#C0E2C7" d="M43.922 44.7231C43.8218 43.4107 43.7215 41.9973 43.5209 40.6849C43.4206 40.0792 43.3204 39.3725 43.3204 38.6658C40.9137 38.6658 40.0112 38.0601 35.8998 37.6563C34.897 37.5553 34.0948 37.5553 33.3928 37.5553C32.9917 39.5744 32.6909 41.5935 32.39 43.7136C33.7939 43.7136 35.3984 43.9155 37.404 44.3193C40.0112 44.8241 42.2173 44.8241 43.922 44.7231"/>
	<path fill="#C0E2C7" d="M42.6184 33.82C42.3176 31.8009 42.0168 29.6809 41.8162 27.5608C40.6129 27.3589 39.3092 26.9551 36.6017 26.7532C36.3009 26.7532 36.0001 26.6522 35.5989 26.6522C35.0975 28.6713 34.5962 30.7914 34.195 32.8105C35.2981 32.9114 36.6017 33.0124 38.0056 33.3152C39.8106 33.6181 41.3148 33.7191 42.6184 33.82"/>
</svg>
