<?xml version="1.0" encoding="utf-8" ?>
<svg xmlns="http://www.w3.org/2000/svg" xmlns:xlink="http://www.w3.org/1999/xlink" width="90" height="90">
	<path fill="white" d="M45 90C20.1897 90 0 69.8103 0 45C0 20.1897 20.1897 0 45 0C69.8103 0 90 20.1897 90 45C90 50.1228 89.096 55.1451 87.4888 59.9665C88.192 63.3817 87.2879 66.7969 84.8772 69.5089C83.7723 70.7143 82.3661 71.7187 80.8594 72.3214C72.3214 83.3705 59.0625 90 45 90"/>
	<path fill="#FFDC4A" d="M86.9866 45C86.9866 68.1886 68.1886 86.9866 45 86.9866C21.8114 86.9866 3.0134 68.1886 3.0134 45C3.0134 21.8114 21.8114 3.0134 45 3.0134C68.1886 3.0134 86.9866 21.8114 86.9866 45"/>
	<path fill="#2D1B0A" d="M45 87.9911C21.2946 87.9911 2.00895 68.7054 2.00895 45C2.00895 21.2946 21.2946 2.00895 45 2.00895C68.7054 2.00895 87.9911 21.2946 87.9911 45C87.9911 68.7054 68.8058 87.9911 45 87.9911M45 4.01788C22.3995 4.01788 4.01788 22.3995 4.01788 45C4.01788 67.6004 22.3995 85.9821 45 85.9821C67.6004 85.9821 85.9821 67.6004 85.9821 45C85.9821 22.3995 67.6004 4.01788 45 4.01788"/>
	<path fill="#2D1B0A" d="M28.7276 40.9821C26.2164 40.9821 23.7052 40.1785 21.5959 38.4709C21.2197 38.1696 21.0936 37.4665 21.395 37.0647C21.6963 36.6629 22.3994 36.5625 22.8012 36.8638C26.9195 40.1785 32.9464 39.4754 36.1605 35.3571C36.4619 34.981 37.1651 34.8549 37.5668 35.1562C37.9687 35.4576 38.069 36.1607 37.7677 36.5625C35.5579 39.4754 32.1427 40.9821 28.7276 40.9821"/>
	<path fill="#2D1B0A" d="M64.5869 41.4843C60.6695 41.4843 56.8526 39.4754 54.7432 35.9597C54.4418 35.4575 54.5981 34.8548 55.0445 34.5535C55.5468 34.2522 56.1494 34.4084 56.4508 34.8548C59.1628 39.3749 65.0892 40.7812 69.6093 38.0691C70.1115 37.7678 70.7142 37.9687 71.0155 38.3705C71.3169 38.8727 71.116 39.4754 70.7142 39.7767C68.7052 40.9821 66.6963 41.4843 64.5869 41.4843"/>
	<path fill="#2D1B0A" d="M70.9151 29.4307C70.8146 29.4307 70.7142 29.4307 70.6137 29.3302L56.049 24.5088C55.5468 24.3079 55.2454 23.8057 55.3834 23.203C55.6472 22.7008 56.1495 22.3994 56.7521 22.5374L71.3169 27.4218C71.8191 27.6227 72.1204 28.1249 71.9195 28.7276C71.7186 29.2298 71.3169 29.4307 70.9151 29.4307"/>
	<path fill="#2D1B0A" d="M19.1851 29.6316C18.7834 29.6316 18.3816 29.3302 18.2182 28.9285C18.0802 28.4262 18.3816 27.8236 18.8838 27.6227L33.4485 22.7383C33.9508 22.6003 34.5534 22.9017 34.7543 23.4039C34.9552 23.9062 34.6539 24.5088 34.1517 24.7097L19.5869 29.5312C19.4865 29.6316 19.2856 29.6316 19.1851 29.6316"/>
	<path fill="#2D1B0A" d="M58.5602 63.7834L31.6405 63.7834C31.0378 63.7834 30.636 63.3816 30.636 62.7789C30.636 62.1763 31.0378 61.7745 31.6405 61.7745L58.5602 61.7745C59.1628 61.7745 59.5647 62.1763 59.5647 62.7789C59.5647 63.3816 59.0623 63.7834 58.5602 63.7834"/>
	<path fill="#B0C6CC" d="M67.7034 67.3994C64.7905 65.0891 59.969 55.0445 58.0148 50.9262C57.8596 50.4239 58.3619 50.0222 58.7637 50.3235C61.6766 52.232 68.7079 55.9485 77.8485 54.6427C82.5695 53.9396 87.5918 61.6739 82.5695 67.4998C78.7525 71.819 71.5204 70.4128 67.7034 67.3994"/>
	<path fill="#2D1B0A" d="M75.9343 71.2164C72.6185 71.2164 69.2023 69.9115 67.0922 68.205C64.0779 65.7959 59.5564 56.6613 57.145 51.4415C56.8435 50.8392 57.0033 50.1365 57.5469 49.6346C58.0493 49.2786 58.7526 49.1327 59.3555 49.5343C62.4703 51.6423 69.1019 54.9548 77.743 53.6499C80.2549 53.2483 83.0683 54.9548 84.5754 57.7655C85.982 60.4757 86.4845 64.5913 83.2691 68.1046C81.3602 70.313 78.7477 71.2164 75.9343 71.2164M59.7574 52.0438C63.3746 59.773 66.5899 65.1936 68.3985 66.5989C71.7142 69.2088 78.4463 70.6142 81.8625 66.7997C84.9773 63.2863 83.3697 59.773 82.8672 58.6689C81.762 56.5609 79.7524 55.3563 78.0443 55.5571C69.9056 56.862 63.4751 54.2521 59.7574 52.0438"/>
</svg>
