<?xml version="1.0" encoding="utf-8" ?>
<svg xmlns="http://www.w3.org/2000/svg" xmlns:xlink="http://www.w3.org/1999/xlink" width="90" height="90">
	<path fill="white" d="M45 90C20.1897 90 0 69.8103 0 45C0 20.1897 20.1897 0 45 0C69.8103 0 90 20.1897 90 45C90 69.8103 69.8103 90 45 90"/>
	<path fill="#FFDC4A" d="M86.9866 44.8995C86.9866 68.0881 68.1886 86.8861 45 86.8861C21.8114 86.8861 3.0134 68.0881 3.0134 44.8995C3.0134 21.7109 21.8114 2.9129 45 2.9129C68.1886 2.9129 86.9866 21.7109 86.9866 44.8995"/>
	<path fill="#2D1B0A" d="M45 87.9911C21.2946 87.9911 2.00895 68.7054 2.00895 45C2.00895 21.2946 21.2946 2.00895 45 2.00895C68.7054 2.00895 87.9911 21.2946 87.9911 45C87.9911 68.6049 68.7054 87.9911 45 87.9911M45 3.91743C22.3995 3.91743 4.01788 22.2991 4.01788 44.8995C4.01788 67.5 22.3995 85.8818 45 85.8818C67.6004 85.8818 85.9821 67.5 85.9821 44.8995C85.9821 22.2991 67.6004 3.91743 45 3.91743"/>
	<path fill="#FCFCFC" d="M26.5177 30.4251L38.5713 39.9675"/>
	<path fill="#2D1B0A" d="M38.5713 41.4742C38.27 41.4742 37.8682 41.3738 37.6673 41.1731L25.6137 31.6395C24.9106 31.1377 24.8102 30.1341 25.4128 29.532C25.9151 28.9677 26.9195 28.7292 27.5222 29.3313L39.5758 38.865C40.2789 39.3667 40.3793 40.3703 39.7767 40.9724C39.4753 41.2735 38.9731 41.4742 38.5713 41.4742"/>
	<path fill="#FCFCFC" d="M38.5713 30.4498L26.5177 39.9922"/>
	<path fill="#2D1B0A" d="M26.5301 41.5089C26.1283 41.5089 25.6261 41.308 25.3247 40.9063C24.8225 40.2031 25.0032 39.2991 25.5256 38.7969L37.5792 29.2545C38.2824 28.7523 39.1864 28.9329 39.6886 29.4554C40.1908 30.1585 40.0904 31.0625 39.4877 31.5648L27.4341 41.1071C27.1328 41.308 26.8314 41.5089 26.5301 41.5089"/>
	<path fill="#FCFCFC" d="M56.2499 30.4251L68.4039 39.9675"/>
	<path fill="#2D1B0A" d="M68.4039 41.4742C68.1026 41.4742 67.7008 41.3738 67.4999 41.1731L55.4464 31.6395C54.7432 31.1377 54.6428 30.1341 55.2455 29.532C55.7477 28.9677 56.7522 28.7292 57.3548 29.3313L69.4084 38.865C70.1115 39.3667 70.2119 40.3703 69.6093 40.9724C69.3079 41.2735 68.8057 41.4742 68.4039 41.4742"/>
	<path fill="#FCFCFC" d="M68.4039 30.4498L56.2499 39.9922"/>
	<path fill="#2D1B0A" d="M56.2623 41.5089C55.8605 41.5089 55.3583 41.308 55.0569 40.9063C54.5547 40.2031 54.7354 39.2991 55.2578 38.7969L67.3114 29.2545C68.0145 28.7523 68.9185 28.9329 69.4208 29.4554C69.923 30.1585 69.8226 31.0625 69.2198 31.5648L57.1663 41.1071C56.9654 41.308 56.6641 41.5089 56.2623 41.5089"/>
	<path fill="#2D1B0A" d="M63.3315 59.5646L26.6686 59.5646C26.0659 59.5646 25.6641 59.1628 25.6641 58.5601C25.6641 57.9575 26.0659 57.5557 26.6686 57.5557L63.3315 57.5557C63.9342 57.5557 64.336 57.9575 64.336 58.5601C64.336 59.1628 63.8337 59.5646 63.3315 59.5646"/>
	<path fill="#FF4646" d="M45.0502 74.2298C40.9319 74.2298 37.5167 70.8147 37.5167 66.6964L37.5167 59.2633C37.5167 58.8616 37.818 58.5602 38.2198 58.5602L51.7801 58.5602C52.1819 58.5602 52.4832 58.8616 52.4832 59.2633L52.4832 66.6964C52.4832 70.9151 49.1685 74.2298 45.0502 74.2298"/>
	<path fill="#2D1B0A" d="M45.0502 75.2344C40.3292 75.2344 36.5122 71.4174 36.5122 66.6964L36.5122 59.2633C36.5122 58.3593 37.3158 57.5558 38.2198 57.5558L51.7802 57.5558C52.6842 57.5558 53.4876 58.3593 53.4876 59.2633L53.4876 66.6964C53.4876 71.4174 49.6707 75.2344 45.0502 75.2344M38.5212 59.5647L38.5212 66.6964C38.5212 70.3125 41.4341 73.2253 45.0502 73.2253C48.6662 73.2253 51.5793 70.3125 51.5793 66.6964L51.5793 59.5647L38.5212 59.5647"/>
</svg>
