<?xml version="1.0" encoding="utf-8" ?>
<svg xmlns="http://www.w3.org/2000/svg" xmlns:xlink="http://www.w3.org/1999/xlink" width="104" height="132">
	<path fill="white" d="M69.767 52.7371L64.8623 67.3594L63.0605 67.4603L63.0605 75.4269L79.076 75.4269L76.3734 121.008C75.973 127.462 72.6698 132 68.3656 132L49.2472 132C44.9431 132 41.6399 127.462 41.2395 121.008L38.5369 75.4269L55.8536 75.4269L55.8536 69.0737L54.6524 66.7543L51.6495 67.0569L50.8488 63.9307C50.8488 63.9307 42.841 43.0562 31.7303 38.4174C-4.50462 23.2909 0.199914 10.0804 0.199914 10.0804C0.199914 10.0804 16.2154 -15.433 53.3512 14.7192L55.9537 17.2403C56.6543 17.9462 57.2549 18.6521 57.8555 19.358C58.2559 19.7613 58.5562 20.2656 58.9566 20.6689C59.0567 20.5681 59.1568 20.3664 59.2569 20.2656C59.6572 19.5597 60.1577 18.8538 60.7583 18.1479C89.2858 -13.9203 102.699 9.57617 102.699 9.57617L104 11.3913L103.7 13.3074C103.7 13.3074 99.2955 29.7448 83.28 35.9971C75.2723 39.325 71.3685 49.5101 69.767 52.7371"/>
	<path fill="white" d="M68.1654 128.924L49.0469 128.924C46.4444 128.924 44.3424 125.395 44.0421 120.756L41.5396 78.4018L59.2568 78.4018L75.6725 78.4018L73.1702 120.756C72.9699 125.395 70.7679 128.924 68.1654 128.924"/>
	<path fill="#2D1B0A" d="M68.1654 129.882L49.047 129.882C45.8439 129.882 43.3415 126.05 43.0412 120.806L40.4387 77.4437L76.7737 77.4437L74.1712 120.806C73.8709 126.05 71.3685 129.882 68.1654 129.882M42.5407 79.3597L45.0431 120.605C45.2433 124.537 47.1452 127.865 49.047 127.865L68.1654 127.865C70.1674 127.865 71.9691 124.638 72.1693 120.605L74.6717 79.3597L42.5407 79.3597"/>
	<path fill="#CBE87C" d="M58.8566 56.5693C58.4562 59.9979 58.5925 62.6199 58.8566 64.3342L62.6603 64.7376C62.7604 61.7123 63.9615 59.3929 64.8624 56.9726C64.9625 56.6701 65.1627 56.2667 65.2628 55.9642C62.6603 56.7709 60.3581 56.6701 58.8566 56.5693"/>
	<path fill="#2D1B0A" d="M63.1621 65.2418L58.4597 64.7376C58.2702 62.7207 58.1595 59.9979 58.4597 56.4684C60.4607 56.2667 62.6619 56.2667 65.2632 55.46L66.2637 55.1575L65.7635 56.4684C65.6634 56.6701 65.5634 56.9726 65.4633 57.1743C65.2632 57.6785 65.0631 58.0819 64.9631 58.5861C64.1627 60.5022 63.3622 62.519 63.2622 64.8384M59.2601 63.83L62.1616 64.1325C62.3617 61.914 63.1621 59.9979 63.8625 58.0819C64.0626 57.5777 64.2627 57.1743 64.3627 56.6701C64.3627 56.6701 64.3627 56.5693 64.3627 56.5693C62.3617 57.0735 60.5608 57.1743 59.2601 56.9726C59.06 60.0988 59.16 62.3173 59.2601 63.83"/>
	<path fill="#CBE87C" d="M57.3552 56.2667C56.4543 56.67 55.4533 55.7625 54.4524 54.149C54.8527 57.4768 55.3532 60.9055 55.7536 64.0316L57.7555 64.2333C57.7555 62.4181 57.8556 59.6953 58.1559 56.4684C57.6555 56.3675 57.3552 56.2667 57.3552 56.2667"/>
	<path fill="#2D1B0A" d="M58.256 64.7375L55.3532 64.435C55.153 63.1241 55.0529 62.3172 54.8527 61.4097C54.5525 59.0903 54.1521 56.67 53.9519 54.149L53.7517 52.0313L54.8527 53.8464C55.7536 55.2582 56.5544 55.9641 57.0549 55.7625C57.4553 55.7625 57.7556 55.8633 58.1559 55.9641C58.256 59.7962 58.1559 62.6199 58.1559 64.3342M56.2541 63.5274L57.2551 63.6283C57.2551 61.9139 57.3552 59.5945 57.5554 56.7709C57.4553 56.7709 57.4553 56.7709 57.3552 56.7709C56.5544 57.0734 55.7536 56.5692 55.153 55.8633C55.3532 57.6785 55.6535 59.4937 55.8537 61.208C56.0539 62.0147 56.154 62.8214 56.2541 63.5274"/>
	<path fill="#CBE87C" d="M94.7912 13.8117C93.7903 14.4167 89.5862 15.7277 84.4813 18.3496C86.5834 20.2656 92.9895 21.0724 97.1936 21.3749C98.695 19.1564 99.8962 16.5344 100.597 13.3074C98.3947 13.1653 95.9924 13.0049 94.7912 13.8117"/>
	<path fill="#2D1B0A" d="M97.2937 21.98C92.2888 21.5766 86.183 20.7697 84.0809 18.8535C87.3841 16.433 90.1868 15.3237 92.0887 14.6177C93.2898 14.1134 94.1907 13.8109 94.591 13.5083C95.6922 12.7984 97.6941 12.6006 100.697 13.004C100.497 16.6348 99.2957 19.3578 97.5939 21.8791M85.3822 18.4501C87.284 19.5595 91.2879 20.4672 96.7932 20.8706C98.2947 18.6518 99.2957 16.3322 99.7961 13.8109C97.4939 13.5083 95.7923 13.71 94.9915 14.2143C94.591 14.5168 93.6902 14.8194 92.2888 15.4245C90.5872 16.1305 88.0848 17.139 85.3822 18.4501"/>
	<path fill="#CBE87C" d="M95.9924 12.3998C97.8942 12.6015 99.3957 12.7024 100.397 12.8032C100.397 12.8032 100.397 12.8032 100.397 12.7024C98.1945 8.87032 97.1935 6.75261 93.8903 5.13912C92.0886 4.23153 89.0857 3.22309 86.9837 3.53502C86.0828 8.76948 84.7816 13.6099 83.9808 16.131C88.7854 13.6099 93.1897 12.1981 95.9924 12.3998"/>
	<path fill="#2D1B0A" d="M83.2801 17.1395L83.5804 16.0302C84.2811 13.6099 85.6824 8.76947 86.5833 3.62646C89.0857 2.81972 92.1887 3.82815 94.1906 4.83658C97.3937 6.34923 98.4948 8.46694 100.397 11.7948L100.997 12.8032L95.9924 13.0049C93.3898 12.8032 89.0857 14.1142 84.3812 16.6352L83.2801 17.1395M87.4842 4.13068C86.6834 8.46694 85.6824 12.6015 84.8816 15.2234C89.386 12.904 93.3898 11.7948 95.9924 11.9965L99.4957 12.299C97.5939 8.87032 96.5929 7.05514 93.6901 5.64333C91.7883 4.73574 89.2859 3.92899 87.4842 4.13068"/>
	<path fill="#CBE87C" d="M62.0597 37.7115C62.1598 37.8123 62.1598 37.9132 62.2599 38.014C62.6603 37.1064 62.9606 36.2997 63.4611 35.4929C64.7623 32.871 66.6642 30.2491 68.8663 27.9297C66.8643 27.1229 67.2647 20.0639 67.9654 14.5175C67.3648 15.1226 66.6642 15.8285 66.0636 16.5344C65.1627 17.442 64.3619 18.4504 63.4611 19.5597C63.6613 28.2322 62.0597 37.7115 62.0597 37.7115"/>
	<path fill="#2D1B0A" d="M62.36 38.9216C61.7594 38.2157 61.6593 38.1149 61.4591 38.0141C61.4591 37.5098 63.0607 28.0306 62.8605 19.358C63.7614 18.0471 64.5621 17.0386 65.5631 16.0302C66.1637 15.3243 66.8643 14.7192 67.4649 14.0133L68.4659 13.0049L68.2657 14.4167C66.8643 25.7112 68.3658 27.123 68.8663 27.3247C66.7643 30.7533 64.9625 33.2744 63.7614 35.6947C63.361 36.5014 62.9606 37.3081 62.6603 38.2157M63.8615 19.5597C63.9616 25.6103 63.2609 31.8626 62.8605 35.2913C62.8605 35.2913 62.8605 35.2913 62.8605 35.1904C64.0617 32.7702 65.7633 30.35 67.9654 27.9297C67.1646 27.123 66.1637 24.7027 67.1646 15.7277C66.8643 16.0302 66.5641 16.3327 66.2638 16.6353C65.463 17.7445 64.6622 18.6521 63.8615 19.5597"/>
	<path fill="#CBE87C" d="M63.8614 38.8208C66.8643 39.6276 72.77 38.72 76.3735 38.1149C77.4745 37.0056 78.5756 36.098 79.7767 35.2913C79.7767 35.2913 79.8768 35.1905 79.8768 35.1905C75.0722 34.3837 71.6689 31.2576 69.9673 29.3416C67.5649 31.9635 65.4629 35.0896 63.8614 38.8208"/>
	<path fill="#2D1B0A" d="M66.8643 39.6276C65.6631 39.6276 64.562 39.5267 63.7613 39.3251C64.9624 35.1905 67.0645 31.9635 69.667 29.039C72.0693 30.8542 75.3725 33.8795 80.077 34.6862L81.2782 34.8879L80.2772 35.5938C79.076 36.4006 77.975 37.3082 76.8739 38.3166C73.4706 39.1234 69.7671 39.6276 66.8643 39.6276M64.562 38.5183C67.665 39.0226 72.9702 38.2158 76.1732 37.6107C76.974 36.804 77.8749 36.0981 78.6757 35.493C74.5717 34.4846 71.6689 31.9635 69.9673 30.1483C67.665 32.6694 65.8633 35.493 64.562 38.5183"/>
	<path fill="#CBE87C" d="M72.0694 26.9213C75.773 29.6441 88.1849 29.9466 88.1849 29.9466C89.4862 29.039 90.6874 28.0306 91.9886 26.9213C86.183 25.9129 82.3793 21.4758 81.3784 20.064C78.2754 21.8791 75.0723 24.0977 72.0694 26.9213"/>
	<path fill="#2D1B0A" d="M86.2832 31.9635L87.2841 30.4508C84.3813 30.35 74.9722 29.7449 71.7691 27.3247C74.2716 23.9969 77.4746 21.6775 80.978 19.6606C82.6797 21.0724 86.3833 25.4087 91.9887 26.4171L92.9896 26.6188C90.7875 28.5348 89.5863 29.5432 88.3852 30.35L86.2832 31.9635M72.8702 26.8205C76.6739 28.9382 86.7837 29.3416 88.0849 29.4424C88.9858 28.8373 89.8867 28.1314 90.8876 27.2238C85.8828 26.0137 82.4795 22.3834 81.1782 20.7699C78.0752 22.585 75.2725 24.7028 72.8702 26.8205"/>
	<path fill="#CBE87C" d="M80.0771 18.4504C79.1762 15.8284 79.6767 10.1812 80.2773 5.7441C78.5757 6.45 76.874 7.35759 75.2725 8.46687C74.3716 15.6268 72.2696 22.8875 71.4688 25.2069C74.1714 22.6858 77.0742 20.3664 80.0771 18.4504"/>
	<path fill="#2D1B0A" d="M70.4678 26.8204L71.0684 25.0052C71.7691 22.8875 73.8711 15.526 74.772 8.36607C76.6738 6.95427 78.3755 6.04668 80.0771 5.34077C79.977 11.9964 79.8769 16.3327 80.5776 18.3496C77.3745 20.8707 74.3716 23.19 71.8692 25.6103L70.4678 26.8204M75.6729 8.76945C74.9722 14.6184 73.3707 20.4673 72.4698 23.5934C74.5718 21.6774 76.9741 19.8622 79.4765 18.2487C78.876 16.131 78.9761 12.1981 79.6767 6.55089C78.2754 7.2568 76.9741 7.9627 75.6729 8.76945"/>
	<path fill="#CBE87C" d="M58.5563 52.7371C59.0568 49.1067 59.8576 45.073 61.0587 41.2409C60.358 40.6358 59.9577 40.3333 59.9577 40.3333C58.256 40.1316 57.5553 35.6945 57.2551 30.9549C56.4543 33.1734 55.7536 35.4928 55.153 38.0139C57.3551 45.2747 58.5563 52.7371 58.5563 52.7371"/>
	<path fill="#2D1B0A" d="M58.9567 53.6447C58.1559 52.7371 56.9548 45.2747 54.7526 38.2157C55.3532 35.4929 56.0539 33.1735 56.8547 30.955L57.6554 28.7364L57.8556 31.0558C58.3561 39.1233 59.7575 39.93 60.1578 39.93C60.4581 40.0309 60.8585 40.4342 61.5592 40.9384C60.6583 44.7705 59.8576 48.6025 59.257 52.838M55.5534 38.014C56.9548 42.3503 57.8556 46.8882 58.4562 49.7118C58.9567 46.7874 59.6574 43.9637 60.4581 41.4427C60.0578 41.1401 59.8576 40.9384 59.6574 40.7368C58.6564 40.5351 57.4552 39.325 56.8547 33.3752C56.4543 34.8878 55.9538 36.4005 55.5534 38.014"/>
	<path fill="#CBE87C" d="M62.4601 42.2494C60.9586 46.2831 59.9577 49.9135 59.4572 52.9388C61.6593 52.838 66.1636 49.7118 69.5669 46.989C70.0674 46.1823 70.5679 45.3755 71.0684 44.6696C67.3648 44.7705 64.3619 43.4595 62.4601 42.2494"/>
	<path fill="#2D1B0A" d="M58.7565 53.5439C59.4572 49.5101 60.5582 45.8798 61.9596 42.1486C64.462 42.9553 67.3648 44.2663 70.9683 44.1654L71.9692 44.1654C70.9683 45.7789 70.4678 46.4848 70.0674 47.2916C64.9625 51.4261 61.4591 53.443 59.5573 53.443M62.6603 42.9553C61.4591 46.1823 60.5582 49.3084 59.9577 52.3337C61.7594 51.8295 64.9625 49.9135 69.0664 46.5857C69.3667 46.0814 69.667 45.5772 69.9673 45.073C67.0645 45.073 64.462 43.9637 62.6603 42.9553"/>
	<path fill="#55B735" d="M80.077 18.4505C81.3783 17.5429 82.7796 16.837 84.0809 16.1311C84.7816 13.61 86.1829 8.87031 87.0838 3.62646C84.7816 4.02983 82.4794 4.73574 80.2772 5.74417C79.5852 10.2821 79.1762 15.9294 80.077 18.4505"/>
	<path fill="#2D1B0A" d="M79.7767 19.2572C78.8759 16.5344 78.8759 12.0973 79.7767 5.64333C82.3793 4.23152 84.6815 3.52562 86.9837 3.0214C86.6834 8.97116 85.2821 13.8116 84.5814 16.3327C82.9798 17.3412 81.6786 18.1479 80.2772 18.9547M80.6776 6.14754C79.9769 11.5931 79.8768 15.6268 80.3773 17.7445C81.4784 17.0386 82.5795 16.4336 83.6805 15.8285C84.3812 13.5091 85.5824 9.072 86.4832 4.33236C84.4813 4.63489 82.5795 5.3408 80.6776 6.14754"/>
	<path fill="#428E25" d="M81.3783 20.2656C82.4794 21.6774 86.183 26.1145 91.9885 27.123C93.5901 25.7112 95.2917 23.9968 96.7932 21.8791C92.6892 21.5766 86.2831 20.7698 84.0809 18.8538C83.2802 19.1564 82.2792 19.6606 81.3783 20.2656"/>
	<path fill="#2D1B0A" d="M91.8885 27.5264C85.8827 26.5179 81.9789 21.8791 80.9779 20.4673C82.079 19.1564 83.08 18.6521 83.9808 18.1479C86.0829 19.5597 90.4871 20.5682 96.9933 21.0724C96.0926 23.6943 94.591 25.4086 92.5891 27.2238M82.079 20.3665C83.3803 21.98 86.7835 25.5095 91.7884 26.5179C93.4901 25.0053 94.6911 23.6943 95.7923 22.1817C91.388 21.7783 86.183 20.9715 83.9808 19.358C83.3803 19.6606 82.7797 20.0639 82.079 20.3665"/>
	<path fill="#55B735" d="M68.7627 27.9296C69.6636 27.0221 70.5645 26.1145 71.4653 25.2069C72.166 22.8875 74.3681 15.6267 75.269 8.46685C72.7666 10.0803 70.2642 12.0972 67.8619 14.4166C67.1612 20.0639 66.7608 27.1229 68.7627 27.9296"/>
	<path fill="#2D1B0A" d="M68.7662 28.6354C67.6651 27.9295 65.8634 26.4169 67.3648 14.3157C69.8672 11.6938 72.3696 9.6769 74.872 7.96256C74.772 15.7275 72.5698 23.1899 71.8692 25.3076C70.8682 26.4169 69.9673 27.3245 69.0665 28.2321M68.3658 14.6182C67.1646 24.1983 68.1656 26.6186 68.7662 27.2236C69.4668 26.4169 70.2676 25.6101 71.0684 24.9042C71.7691 22.7865 73.6709 16.2317 74.6719 9.47521C72.4697 10.9879 70.3677 12.7022 68.3658 14.6182"/>
	<path fill="#428E25" d="M72.1694 27.0221C71.3687 27.728 70.668 28.5348 69.9673 29.3415C71.669 31.2576 75.0723 34.3837 79.8769 35.1905C82.3793 33.4761 84.9818 32.3668 87.4842 30.6525C87.7845 30.4508 87.9847 30.2491 88.285 30.1483C88.285 30.0474 75.873 29.7449 72.1694 27.0221"/>
	<path fill="#2D1B0A" d="M79.977 35.6947C74.772 34.8879 71.2686 31.5601 69.5669 29.7449C70.2676 28.3331 71.0684 27.5264 71.8692 26.8205C75.9731 29.2407 88.1849 29.6441 88.285 29.6441L88.3851 30.6525C88.1849 30.8542 87.8847 30.955 87.6845 31.1567C86.4833 31.9635 85.182 32.6694 83.9809 33.2744C82.6796 33.9803 81.2783 34.6862 80.0771 35.5938M70.5679 29.3415C72.2696 31.1567 75.3725 33.8795 79.6767 34.5854C80.978 33.6778 82.2792 32.9719 83.5805 32.266C84.5815 31.6609 85.6825 31.0559 86.7836 30.4508C83.4804 30.2491 75.4726 29.6441 72.2696 27.6272C71.669 28.2323 71.1685 28.7365 70.5679 29.3415"/>
	<path fill="#55B735" d="M59.8594 40.3334C59.8594 40.3334 60.2597 40.7367 60.9604 41.241C61.3608 40.1317 61.7612 39.0224 62.1616 38.014C62.0615 37.9132 62.0615 37.8122 61.9614 37.7114C61.9614 37.7114 63.5629 28.2322 63.3627 19.358C62.6621 20.2655 62.0615 21.1731 61.3608 22.1816C59.7593 24.7027 58.3579 27.6271 57.1567 30.854C57.457 35.6945 58.2578 40.1317 59.8594 40.3334"/>
	<path fill="#2D1B0A" d="M61.2589 42.1485C60.1579 41.3418 59.7575 41.0392 59.6574 40.8376C58.5563 40.6359 57.155 39.1232 56.6545 31.0557C57.8556 27.5262 59.257 24.6018 60.9586 22.0807C61.5592 21.0723 62.2599 20.1647 62.9606 19.2571L63.8614 18.1478L63.8614 19.5596C64.0616 27.6271 62.7604 36.2996 62.5602 37.8123C62.2599 39.3249 61.8595 40.4342 61.4591 41.5435M57.6554 31.0557C58.1559 39.0224 59.5573 39.7283 59.8576 39.8291C60.1579 39.93 60.3581 40.1317 60.6583 40.4342C60.9586 39.6274 61.2589 38.8207 61.5592 38.1148C61.5592 38.1148 61.5592 38.0139 61.4591 38.0139C61.359 37.5097 62.7604 29.1397 62.7604 20.8706C62.36 21.3748 62.0597 21.9799 61.6593 22.4841C60.2579 25.0051 58.8566 27.8288 57.6554 31.0557"/>
	<path fill="#428E25" d="M63.8615 38.8208C63.361 40.0309 62.8605 41.1402 62.4601 42.2495C64.4621 43.4596 67.3649 44.7706 70.9683 44.6752C72.6699 42.1487 74.4717 39.9301 76.2734 38.1149C72.77 38.72 66.8644 39.6276 63.8615 38.8208"/>
	<path fill="#2D1B0A" d="M70.4678 45.174C66.8644 45.174 63.9616 43.863 62.1598 42.7537C62.2599 41.0394 62.7604 39.8293 63.2609 38.72C66.8644 39.1234 72.8702 38.2158 76.1734 37.6107L77.7749 37.3082L76.5738 38.5183C74.7719 40.3335 72.9703 42.552 71.2686 45.0731C70.8682 45.174 70.668 45.174 70.4678 45.174M63.0607 42.0478C64.8624 43.0563 67.465 44.1655 70.668 44.1655C71.9693 42.1487 73.3707 40.4343 74.8721 38.8208C71.1685 39.4259 66.8644 39.9301 64.1618 39.4259C63.7614 40.3335 63.361 41.1402 63.0607 42.0478"/>
	<path fill="#428E25" d="M58.8566 56.5693C60.2579 56.771 62.6603 56.771 65.2628 55.8634C66.564 52.6364 67.9654 49.7119 69.4668 46.9892C66.0635 49.7119 61.5592 52.9389 59.3571 52.9389C59.1569 54.2499 58.9567 55.46 58.8566 56.5693"/>
	<path fill="#2D1B0A" d="M60.5582 57.1743C59.8576 57.1743 59.3571 57.1743 58.8566 57.0735C58.5563 55.2583 58.7565 54.1491 58.9567 52.8381C61.0587 52.3339 64.5621 50.317 69.2666 46.5858L71.3686 44.9723L70.0674 47.2917C68.5659 49.9136 67.0645 52.9389 65.8633 56.0651C63.6612 56.9727 61.9596 57.1743 60.5582 57.1743M59.4572 56.0651C60.8585 56.1659 62.7604 56.1659 64.9625 55.46C65.8633 53.1406 66.8643 50.9221 67.9654 48.9052C64.2618 51.628 61.5592 53.2415 59.8576 53.4431C59.6574 54.3507 59.5573 55.2583 59.4572 56.0651"/>
	<path fill="#55B735" d="M57.3552 56.2668C57.3552 56.2668 57.6555 56.3676 58.1559 56.4685C58.256 55.2584 58.3561 54.0483 58.5563 52.8381C58.5563 52.8381 57.4553 45.3757 55.153 38.115C55.0529 38.6192 54.9529 39.0226 54.8528 39.5268C53.8518 43.9639 54.052 49.1069 54.6526 54.2499C55.4533 55.7626 56.4543 56.6702 57.3552 56.2668"/>
	<path fill="#2D1B0A" d="M58.5563 56.9727C57.7556 56.771 57.5554 56.771 57.4553 56.771C55.9538 57.2752 54.5525 55.1575 54.1521 54.4516C53.3513 47.8968 53.4514 43.258 54.3523 39.4259C54.4524 38.9217 54.5525 38.4175 54.6526 38.0141L55.0529 36.2998L55.5534 38.0141C57.6555 44.569 58.7565 51.3255 58.9567 52.6364C58.7565 54.1491 58.6564 55.3592 58.5563 56.5693M54.9529 53.9474C55.8537 55.3592 56.6545 55.9643 57.155 55.7626C57.5554 55.7626 57.6555 55.7626 57.7556 55.7626C57.8557 54.7541 57.9557 53.7457 58.0558 52.7373C57.9557 52.1322 56.9548 46.0816 55.153 39.9302C54.1521 44.7706 54.5525 50.2162 54.9529 53.9474"/>
	<path fill="#B0D67F" d="M57.7556 66.4519L59.257 66.6536C59.257 66.6536 59.0568 65.8468 58.8566 64.3342L57.7556 64.2334C57.7556 65.6452 57.7556 66.4519 57.7556 66.4519"/>
	<path fill="#2D1B0A" d="M59.9577 67.2587L57.2551 66.8553C57.2551 66.4519 57.2551 65.6452 57.2551 64.2334L59.257 63.9308C59.4572 65.746 59.6574 66.5527 59.6574 66.5527M58.256 65.9477C58.4562 65.6452 58.4562 65.2418 58.3561 64.7376C58.256 65.2418 58.256 65.746 58.256 65.9477"/>
	<path fill="#B0D67F" d="M58.8566 56.5692C58.5563 56.5692 58.256 56.4683 58.0558 56.4683C57.7556 59.6953 57.6555 62.4181 57.6555 64.2333L58.7565 64.3341C58.6564 62.6198 58.5563 59.9979 58.8566 56.5692"/>
	<path fill="#2D1B0A" d="M59.4572 64.8383L57.2551 64.6367C57.2551 62.4181 57.3552 59.5945 57.6554 56.2667C58.3561 55.8633 58.6564 55.9641 58.8566 55.9641C58.8566 60.0987 59.0568 62.6198 59.257 64.2333M58.256 63.7291C58.256 63.7291 58.256 63.6282 58.256 63.6282C58.256 63.6282 58.256 63.7291 58.256 63.7291"/>
	<path fill="#B0D67F" d="M84.181 16.131C83.8807 17.2403 83.6805 17.8453 83.6805 17.8453C83.7806 18.1479 83.9808 18.4504 84.2811 18.7529C89.386 16.131 93.59 14.82 94.591 14.215C95.7922 13.4082 98.1945 13.5091 100.296 13.8116C100.397 13.5091 100.397 13.2066 100.497 12.904C99.4957 12.8032 97.9943 12.7023 96.0925 12.4602C93.2897 12.1981 88.8855 13.6099 84.181 16.131"/>
	<path fill="#2D1B0A" d="M84.181 19.358C83.4803 18.8538 83.2801 18.4504 83.0799 18.047C83.0799 17.6437 83.2801 17.0386 83.5804 15.9293C88.7854 13.0049 93.1896 11.5931 95.9923 11.8552L100.897 12.299C100.697 13.1057 100.697 13.4082 100.597 13.7108C97.3937 13.8116 95.4919 14.0133 94.6911 14.5175C94.2907 14.82 93.3898 15.1226 91.9885 15.7276C89.9866 16.5344 87.384 17.5428 84.281 19.1563M84.181 17.8454C84.181 17.9462 84.281 18.047 84.3811 18.1479C87.384 16.6352 89.9866 15.6268 91.7883 14.9209C92.9895 14.4167 93.8903 14.1142 94.2907 13.8116C94.8913 13.4082 95.8923 13.1057 97.1935 13.1057L95.9923 13.0049C93.3898 12.8032 89.2859 14.0133 84.5813 16.5344C84.3811 17.1395 84.281 17.5428 84.181 17.8454"/>
	<path fill="#B0D67F" d="M68.9664 27.8288C66.7642 30.2491 64.8624 32.7702 63.5611 35.3921C63.1608 36.1988 62.7604 37.0056 62.4601 37.9132C62.7604 38.3166 63.361 38.5182 64.0616 38.7199C64.0616 38.7199 64.0616 38.619 64.0616 38.619C65.6632 34.9887 67.7652 31.8626 70.0674 29.2407C69.3667 28.4339 69.0665 27.8288 68.9664 27.8288"/>
	<path fill="#2D1B0A" d="M64.3619 39.2241C63.0607 39.0225 62.4601 38.7199 62.0597 38.2157C62.36 36.8039 62.7604 35.9972 63.1608 35.1904C64.462 32.6693 66.2637 30.0474 68.6661 27.5263C69.4668 27.5263 69.8672 28.1314 70.5679 28.9381C68.0655 32.3668 66.0636 35.4929 64.6622 38.8208M63.0607 37.7115C63.2608 37.8123 63.461 37.9132 63.7613 38.014C65.1627 34.787 67.0645 31.8626 69.4668 29.1398C69.2666 28.9381 69.0665 28.6356 68.9664 28.5347C66.8643 30.8542 65.2628 33.2744 64.0616 35.4929C63.7613 36.2997 63.361 37.0056 63.0607 37.7115"/>
	<path fill="#B0D67F" d="M81.1781 19.7614C80.7777 19.5597 80.3773 19.1564 80.1771 18.4505C77.2743 20.3665 74.2714 22.585 71.6689 25.1061C71.4687 25.6103 71.4687 25.812 71.4687 25.812C71.5688 26.2154 71.9692 26.6188 72.3696 26.9213C75.2724 24.0977 78.4755 21.8791 81.4784 20.1648C81.2782 19.9631 81.1781 19.7614 81.1781 19.7614"/>
	<path fill="#2D1B0A" d="M72.3696 27.6272C71.4687 27.0222 71.1684 26.5179 70.9682 26.1146C70.9682 25.7112 71.0683 25.4086 71.1684 25.0053C73.771 22.3834 76.7738 20.0639 79.8768 18.1479C80.6776 18.8538 80.9779 19.358 81.2782 19.4589C81.4783 19.6606 81.5784 19.8623 81.7786 20.0639C78.1752 22.8876 75.0722 25.1061 72.5698 27.5264M71.9692 25.812C72.0693 26.0137 72.1694 26.1146 72.3696 26.3162C74.7719 24.0977 77.5746 21.98 80.7777 20.1648C80.4774 19.9631 80.2772 19.6606 80.077 19.2572C77.2743 21.0724 74.5717 23.1901 72.1694 25.4086C72.0693 25.5095 71.9692 25.7112 71.9692 25.812"/>
	<path fill="#B0D67F" d="M58.5563 52.7372C58.7565 52.9389 59.0568 52.9389 59.4572 52.9389C60.0578 49.8128 60.9586 46.2833 62.4601 42.2495C61.8595 41.947 61.4591 41.5436 61.0587 41.2411C59.7575 45.0731 58.9567 49.1069 58.5563 52.7372"/>
	<path fill="#2D1B0A" d="M59.3571 53.4431C58.9567 53.4431 58.5563 53.3423 58.256 53.1406C58.6564 48.401 59.4572 44.4681 60.5582 41.0394C61.7594 41.0394 62.2599 41.3419 62.7604 41.6445C61.6593 45.8799 60.6583 49.5103 60.0578 52.9389M61.2589 42.0478C60.3581 44.8714 59.6574 47.9976 59.1569 51.3254C59.7575 48.401 60.6583 45.4765 61.7594 42.3504C61.6593 42.3504 61.4591 42.2495 61.2589 42.0478"/>
	<path fill="#B0D67F" d="M83.5805 17.8453C83.5805 17.8453 83.7806 17.2403 84.0809 16.131C82.7797 16.8369 81.4784 17.6437 80.0771 18.4504C80.2773 19.1563 80.6777 19.5597 81.078 19.7614C81.078 19.7614 81.1781 19.9631 81.3783 20.1647C82.2792 19.6605 83.2802 19.1563 84.181 18.6521C83.9808 18.4504 83.7806 18.1479 83.5805 17.8453"/>
	<path fill="#2D1B0A" d="M81.3783 20.8706C80.9779 20.4673 80.8778 20.3664 80.8778 20.2656C80.3774 20.0639 79.977 19.4588 79.7768 18.6521C81.3783 17.1394 82.6796 16.3327 83.9808 15.7276L85.0819 15.1226L84.7816 16.2318C84.5814 16.9377 84.3812 17.5428 84.2811 17.7445C84.3812 17.9462 84.4813 18.047 84.6815 18.2487C83.5805 19.5597 82.5795 20.0639 81.7787 20.5681M80.7777 18.6521C80.8778 18.9546 81.078 19.2572 81.3783 19.2572C82.1791 19.1563 82.7797 18.7529 83.3803 18.4504C83.2802 18.2487 83.1801 18.047 83.08 17.9462C83.08 17.5428 83.1801 17.3411 83.2802 17.0386C82.4794 17.6437 81.6786 18.1479 80.7777 18.6521"/>
	<path fill="#B0D67F" d="M71.4687 25.812C71.4687 25.812 71.5688 25.5095 71.6689 25.1061C70.7681 26.0137 69.8672 26.9213 68.9663 27.8289C68.9663 27.9297 69.3667 28.434 70.0674 29.2407C70.7681 28.434 71.5688 27.7281 72.2695 26.9213C71.8691 26.6188 71.5688 26.2154 71.4687 25.812"/>
	<path fill="#2D1B0A" d="M70.1675 29.9466C69.0664 28.7365 68.666 28.1314 68.5659 28.0306C69.4668 26.5179 70.4678 25.6103 71.3686 24.7028L72.77 23.3918L72.1694 25.207C72.0693 25.5095 72.0693 25.6103 71.9692 25.812C72.0693 26.0137 72.3696 26.3162 72.6699 26.5179C71.9692 28.0306 71.2685 28.8373 70.5679 29.5432M69.667 27.8289C69.7671 28.0306 69.9673 28.2323 70.1675 28.434C70.668 27.9297 71.1684 27.4255 71.6689 26.9213C71.4687 26.7196 71.2685 26.5179 71.1684 26.3162C70.5679 26.8205 70.0674 27.3247 69.667 27.8289"/>
	<path fill="#B0D67F" d="M61.0587 41.2411C61.4591 41.5436 61.9596 41.8461 62.4601 42.2495C62.8605 41.1402 63.361 40.031 63.8614 38.8208C63.1608 38.6192 62.5602 38.4175 62.2599 38.0141C61.7594 39.1234 61.359 40.1318 61.0587 41.2411"/>
	<path fill="#2D1B0A" d="M62.6603 43.0563C61.6593 42.4512 61.1588 42.0478 60.6583 41.7453C60.8585 40.1318 61.2589 39.0225 61.6593 37.9132C62.7604 38.1149 63.1608 38.3166 63.8614 38.5183C63.7613 40.2326 63.361 41.3419 62.8605 42.552M61.5592 41.0394C61.7594 41.1402 61.9596 41.3419 62.1598 41.4428C62.4601 40.636 62.7604 39.9301 63.0607 39.1234C62.7604 39.0225 62.5602 38.9217 62.36 38.8208C62.1598 39.5267 61.8595 40.3335 61.5592 41.0394"/>
	<path fill="#B0D67F" d="M58.5563 52.7372C58.3561 54.0481 58.256 55.2583 58.1559 56.3675C58.3561 56.3675 58.6564 56.4684 58.9567 56.4684C59.0568 55.3591 59.257 54.149 59.4572 52.9389C59.0568 53.0397 58.7565 52.9389 58.5563 52.7372"/>
	<path fill="#2D1B0A" d="M59.3571 57.0735C58.5563 56.9726 58.256 56.8718 58.0558 56.8718C57.7555 55.0566 57.8556 53.7456 58.0558 52.5355C58.9567 52.3338 59.1569 52.3338 59.4572 52.3338C59.7575 54.149 59.5573 55.3591 59.4572 56.4684"/>
	<path fill="#CBE87C" d="M58.4561 56.065C58.9566 59.4936 58.7564 62.1156 58.5562 63.8299L53.5513 64.2333C53.3512 61.208 51.7496 58.8886 50.6485 56.4683C50.4483 56.1658 50.2482 55.7624 50.1481 55.4599C53.5513 56.2666 56.5542 56.1658 58.4561 56.065"/>
	<path fill="#2D1B0A" d="M53.0509 64.7374C52.9508 61.9139 51.8497 59.9978 50.8487 58.0818C50.6485 57.5776 50.3483 57.1742 50.1481 56.67C50.048 56.4683 49.9479 56.1658 49.7477 55.9641L49.047 54.6531L50.1481 54.9557C53.5513 55.8633 56.5542 55.7624 58.4561 55.6616C59.5571 59.7962 59.3569 62.4181 59.1567 64.1324L53.0509 64.7374M50.9488 56.065C50.9488 56.065 50.9488 56.1658 50.9488 56.065C51.2491 56.5692 51.4493 57.0734 51.6495 57.4768C52.6505 59.3928 53.6514 61.3088 53.8516 63.5274L57.9556 63.2248C58.1558 61.7122 58.2559 59.3928 57.8555 56.4683C56.254 56.67 53.7515 56.67 50.9488 56.065"/>
	<path fill="#CBE87C" d="M60.5582 55.6616C61.6592 56.065 63.0606 55.1574 64.3618 53.5439C63.8613 56.8717 63.1607 60.3004 62.6602 63.4265L60.0577 63.6282C60.0577 61.813 59.9576 59.0903 59.5572 55.8633C60.1578 55.7624 60.5582 55.6616 60.5582 55.6616"/>
	<path fill="#2D1B0A" d="M59.5572 64.1325C59.5572 61.9139 59.4571 59.1911 59.0567 55.8633C60.0577 55.1574 60.358 55.0565 60.4581 55.0565C61.6592 55.4599 62.9605 54.2498 63.8613 53.1405L64.9624 51.8296L64.7622 53.5439C64.4619 55.9641 63.9614 58.3844 63.561 60.8046C63.3609 61.7122 63.2608 62.6198 63.0606 63.4266L59.5572 64.1325M60.1578 56.2667C60.4581 58.9894 60.5581 61.4097 60.5581 63.1241L62.2598 63.0232C62.3599 62.3173 62.5601 61.5105 62.6602 60.7038C62.9605 58.8886 63.3609 56.9726 63.6611 55.0565C62.5601 56.065 61.459 56.4683 60.5581 56.1658C60.4581 56.1658 60.2579 56.1658 60.1578 56.2667"/>
	<path fill="#CBE87C" d="M11.6109 13.6099C12.9122 14.215 18.5176 15.526 25.2241 18.1479C22.4214 20.0639 14.0133 20.8707 8.50794 21.1732C6.50601 18.9546 4.90447 16.3327 4.0036 13.1057C6.70621 12.9636 10.0094 12.8032 11.6109 13.6099"/>
	<path fill="#2D1B0A" d="M8.30773 21.6774C5.90541 18.9544 4.30387 16.2313 3.50309 13.2058C7.70715 12.0964 10.3097 12.2942 11.711 13.0041C12.2115 13.2058 13.4126 13.6092 15.0142 14.1134C17.5166 14.8194 21.2202 16.0296 25.3241 17.5424C22.6215 20.2655 14.6138 21.0723 8.50792 21.4757M4.70425 13.6092C5.50502 16.1305 6.80628 18.4501 8.70811 20.6689C16.1153 20.1646 21.4204 19.3578 24.0229 18.2484C20.4194 16.9373 17.2163 15.9288 14.814 15.2228C13.0123 14.7185 11.9112 14.3151 11.3106 14.0126C10.2096 13.4075 7.90734 13.3066 4.70425 13.6092"/>
	<path fill="#CBE87C" d="M9.60895 11.7947C7.00644 11.9964 5.2047 12.0973 3.80335 12.1981C3.80335 12.1981 3.80335 12.1981 3.80335 12.0973C6.70615 8.26521 8.90827 4.93738 13.913 3.62641C17.0161 2.78698 18.7178 2.61798 21.4204 2.92051C22.6215 8.06352 24.3232 12.904 25.3242 15.4251C19.1182 13.0049 13.3125 11.593 9.60895 11.7947"/>
	<path fill="#2D1B0A" d="M26.225 16.4335L25.1239 16.0304C18.8179 13.5112 13.1124 12.1003 9.60898 12.4026L3.403 12.8057L3.90348 11.3949C6.60608 7.76712 8.9083 4.64319 13.813 3.33315C17.1162 2.47455 18.918 2.32543 21.5205 2.62775C23.122 8.06944 24.8237 12.9065 25.8246 15.3251L26.225 16.4335M10.5099 11.2941C13.9131 11.2941 18.918 12.5035 24.5234 14.6196C23.5224 11.9995 22.121 7.86789 21.1201 3.43393C18.8179 3.13161 17.2163 3.33315 14.1133 4.13933C9.60898 5.34859 7.50695 8.06944 4.90444 11.5965L9.70908 11.2941C9.90927 11.2941 10.2096 11.2941 10.5099 11.2941"/>
	<path fill="#CBE87C" d="M54.4523 37.2073C54.3522 37.3081 54.2521 37.409 54.2521 37.5098C53.7516 36.6021 53.2511 35.7954 52.7506 34.9887C50.9489 32.3668 48.5466 29.7449 45.6438 27.4254C48.3464 26.6187 47.7458 19.5596 46.8449 14.0133C47.6457 14.6183 48.5466 15.3242 49.3473 16.0301C50.4484 16.9377 51.6496 17.9461 52.7506 19.0554C52.2501 27.6272 54.4523 37.2073 54.4523 37.2073"/>
	<path fill="#2D1B0A" d="M54.0519 38.2157C53.2511 36.8039 52.7506 35.9971 52.2501 35.1904C50.6486 32.7701 48.2463 30.249 45.2434 27.728C47.2453 26.3162 47.5456 21.5765 46.2443 13.9124L46.0442 12.7023L47.0451 13.4082C47.946 14.1141 48.7468 14.7192 49.5475 15.4251C50.8488 16.4335 51.9498 17.4419 52.9508 18.4504C52.8507 27.5263 54.9527 36.9047 54.9527 37.0055C54.8527 37.5098 54.7525 37.6106 54.6525 37.7115M46.3444 27.4254C49.1471 29.8457 51.4494 32.2659 53.0509 34.6862C53.2511 34.8878 53.3512 35.1904 53.5514 35.4929C52.9508 32.2659 51.9498 25.5094 52.15 19.1563C51.1491 18.2487 50.1481 17.2402 48.947 16.3327C48.4465 15.9293 47.946 15.5259 47.4455 15.1225C48.4465 21.8791 48.0461 26.0136 46.3444 27.4254"/>
	<path fill="#CBE87C" d="M52.0499 38.3085C52.0499 38.3085 52.15 38.4093 52.0499 38.3085C48.046 39.1152 40.3386 38.2076 35.634 37.6026C34.2327 36.4933 32.7312 35.5857 31.2298 34.779C31.1297 34.779 31.1297 34.6781 31.0296 34.6781C37.4358 33.8714 41.9401 30.7452 44.1422 28.8292C47.2452 31.552 50.0479 34.6781 52.0499 38.3085"/>
	<path fill="#2D1B0A" d="M48.1462 39.2242C44.2424 39.2242 39.4378 38.72 35.534 38.1149C33.9324 36.9048 32.431 35.9972 30.9296 35.1904L29.5282 34.4845L30.9296 34.182C37.2356 33.3753 41.6399 30.2491 43.7419 28.5348C47.7458 31.4592 50.5485 34.6862 52.4503 38.1149C51.049 39.1234 49.6476 39.2242 48.1462 39.2242M35.8343 37.1065C40.0383 37.7115 47.2453 38.5182 51.3492 38.0141C49.5475 34.9888 47.1452 32.1651 44.1423 29.5432C42.0403 31.2575 38.0364 33.9803 32.6312 34.9888C33.6322 35.5938 34.7332 36.2997 35.8343 37.1065"/>
	<path fill="#CBE87C" d="M41.1393 26.7195C36.3346 29.4423 19.9188 29.7448 19.9188 29.7448C19.9188 29.7448 16.6156 27.8288 15.014 26.7195C22.7215 25.7111 27.6262 21.274 29.0275 19.8622C33.0314 21.6774 37.2355 23.8959 41.1393 26.7195"/>
	<path fill="#2D1B0A" d="M19.8188 30.2491C19.6186 30.0473 16.4155 28.2322 14.7139 27.1229L13.6128 26.417L14.914 26.2153C22.4213 25.2069 27.326 20.8706 28.6273 19.5596C33.7322 21.4757 37.9363 23.7951 41.3395 26.3161C36.3347 29.9466 20.4194 30.2491 19.7187 30.3498M16.4155 27.022C17.8168 27.9296 19.6186 28.9381 20.1191 29.2406C21.6205 29.2406 35.0335 28.8372 40.2385 26.6187C37.0354 24.4001 33.3318 22.3833 29.2279 20.4672C27.5262 21.9799 23.122 25.7111 16.4155 27.022"/>
	<path fill="#CBE87C" d="M30.6293 17.9462C31.7304 15.3242 31.1298 9.67701 30.4291 5.2399C32.6313 5.9458 34.8334 6.85339 37.0355 7.96267C38.2367 15.1226 41.0393 22.3833 42.0403 24.7027C38.4369 22.0807 34.5331 19.7613 30.6293 17.9462"/>
	<path fill="#2D1B0A" d="M43.0413 26.0136L41.6399 25.0052C38.3368 22.585 34.433 20.3664 30.4291 18.3495C31.1298 15.7276 31.0297 11.4922 29.9286 5.34075C32.8315 5.54243 35.1337 6.55087 37.3358 7.5593C38.7371 15.1226 41.6399 22.4841 42.4408 24.6018L43.0413 26.0136M31.2299 17.6436C34.6332 19.358 37.9364 21.1732 40.8391 23.19C39.638 20.0639 37.536 14.1141 36.535 8.16436C34.7333 7.25677 32.8315 6.55087 31.0297 5.84496C31.9306 11.4922 32.0307 15.4251 31.2299 17.6436"/>
	<path fill="#CBE87C" d="M59.0566 52.132C58.456 48.5017 57.355 44.468 55.7534 40.6359C56.7544 40.0308 57.2549 39.7283 57.2549 39.7283C59.457 39.5266 60.458 35.0895 60.8584 30.3499C61.9594 32.5684 62.8603 34.8878 63.6611 37.4089C60.5581 44.6697 59.0566 52.132 59.0566 52.132"/>
	<path fill="#2D1B0A" d="M58.6562 53.0395C57.8554 48.0982 56.7544 44.2662 55.2529 40.8375C56.354 39.7282 56.8545 39.3248 56.8545 39.3248C57.9556 39.1232 59.5571 37.913 60.1577 30.3498L60.3579 28.5346L61.1586 30.1481C62.2597 32.3666 63.1606 34.7869 63.9613 37.308C60.9584 44.7704 59.457 52.2328 59.457 52.3336M56.354 40.8375C57.4551 43.5603 58.3559 46.4847 59.0566 49.7117C59.7573 46.9889 61.0585 42.0476 63.0605 37.4088C62.4599 35.5936 61.8593 33.8793 61.0585 32.2658C60.458 37.308 59.2568 39.9299 57.355 40.2324C57.2549 40.3333 56.8545 40.535 56.354 40.8375"/>
	<path fill="#CBE87C" d="M54.5523 41.7452C56.6543 45.7789 58.0557 49.4093 58.8564 52.4346C55.7534 52.3338 49.4474 49.2076 44.5427 46.4848C43.842 45.6781 43.1413 44.8713 42.4406 44.1654C47.5455 44.2663 51.7496 42.9553 54.5523 41.7452"/>
	<path fill="#2D1B0A" d="M59.4571 53.0396C55.5532 52.9389 49.047 49.7118 44.2424 46.9891C43.5417 46.0815 42.841 45.3756 42.1403 44.5688C47.6456 43.7621 51.7495 42.4511 54.3521 41.3418C56.9547 45.2747 58.3559 48.9051 59.2569 52.3337M44.8429 46.0815C51.0489 49.5101 55.5532 51.527 58.1558 51.9303C57.2549 48.9051 56.0537 45.6781 54.3521 42.4511C51.8497 43.4595 48.1461 44.6697 43.6418 44.6697C44.0422 45.1739 44.4425 45.6781 44.8429 46.0815"/>
	<path fill="#55B735" d="M30.6292 17.9463C28.8275 17.0387 27.1259 16.3328 25.3241 15.6268C24.3232 13.1057 22.5214 8.3661 21.4204 3.12225C24.4233 3.52562 27.4262 4.23153 30.4291 5.23996C31.1297 9.67707 31.7303 15.3242 30.6292 17.9463"/>
	<path fill="#2D1B0A" d="M30.8294 18.5512C28.5272 17.442 26.8256 16.7362 25.124 16.0303C23.8227 13.3074 22.021 8.36611 20.9199 3.12225C24.4233 2.92057 27.5263 3.62647 30.5292 4.6349C32.0306 11.4923 32.1307 15.9293 31.1297 18.0471M25.7245 15.1227C27.226 15.7276 28.8275 16.4335 30.329 17.1395C31.0296 15.0217 30.8294 10.988 29.9286 5.44165C27.3261 4.6349 24.7236 3.929 22.021 3.52563C23.2221 8.36611 24.8237 12.8032 25.7245 15.1227"/>
	<path fill="#428E25" d="M29.2281 19.9631C27.8266 21.3749 22.9219 25.812 15.2145 26.8204C15.2145 26.8204 15.2145 26.8204 15.1144 26.8204C13.0124 25.4086 10.8103 23.6943 8.80835 21.5765C14.3137 21.274 22.7217 20.4673 25.5245 18.5512C26.7256 18.9546 28.0268 19.4588 29.2281 19.9631"/>
	<path fill="#2D1B0A" d="M15.1144 27.3246C12.2115 25.4086 10.1095 23.6942 8.50798 21.8791C17.4166 20.4673 23.2222 19.358 25.2241 18.047C26.8256 18.5512 28.1269 19.0555 29.3281 19.5597C28.1269 21.7782 23.1221 26.3162 15.2144 27.3246M10.0094 21.9799C11.4108 23.4926 13.2125 24.8035 15.4146 26.3162C22.021 25.4086 26.6254 21.8791 28.4272 20.1647C27.5263 19.7614 26.6254 19.4588 25.7246 19.0555C22.8218 20.6689 15.815 21.5765 10.0094 21.9799"/>
	<path fill="#55B735" d="M45.5437 27.3246C44.4426 26.417 43.2415 25.5094 41.9402 24.6018C41.0393 22.2824 38.1365 15.0217 36.9354 7.86185C40.2386 9.47534 43.5417 11.4922 46.6447 13.8116C47.6457 19.4589 48.2463 26.5178 45.5437 27.3246"/>
	<path fill="#2D1B0A" d="M45.5437 28.0305C44.0422 26.8203 42.8411 25.9128 41.6399 25.0052C40.5388 22.6858 37.636 15.2234 36.4349 7.96263L36.2347 6.9542C40.5388 8.97107 43.7419 10.9879 46.945 13.4082C48.5466 22.1815 48.0461 26.8203 45.7439 27.7279M42.3406 24.1984C43.4417 25.0052 44.5427 25.8119 45.5437 26.7195C47.1452 25.9128 47.3454 21.3748 46.2444 14.1141C43.4417 12.0972 40.639 10.282 37.636 8.76938C38.9373 15.425 41.4397 22.0807 42.3406 24.1984"/>
	<path fill="#428E25" d="M40.9393 26.6187C41.9401 27.3246 42.9412 28.1314 43.842 28.9381C41.6399 30.8541 37.1356 33.9803 30.7294 34.787C27.4262 33.0727 24.0229 31.9634 20.7197 30.2491C20.4194 30.0474 20.019 29.8457 19.7188 29.7449C19.7188 29.644 36.1346 29.2406 40.9393 26.6187"/>
	<path fill="#2D1B0A" d="M30.7294 35.1904C28.9276 34.182 27.1259 33.4761 25.4243 32.7702C23.8227 32.0643 22.2212 31.4592 20.6196 30.6525C20.3193 30.4508 20.0191 30.3499 19.7188 30.1482L18.7178 29.1398L19.7188 29.039C19.919 29.039 36.0345 28.6356 40.739 26.1145C42.3406 26.8204 43.3415 27.6272 44.3425 28.4339C42.1404 31.0558 37.5359 34.3837 31.0297 35.1904M21.6206 30.0474C23.0219 30.7533 24.4233 31.2575 25.7246 31.8626C27.4262 32.5685 29.2279 33.2744 30.9296 34.182C36.7352 33.3752 40.9392 30.6525 43.1413 28.9381C42.4407 28.3331 41.74 27.8288 40.9392 27.2238C36.7352 29.2406 26.0249 29.8457 21.6206 30.0474"/>
	<path fill="#55B735" d="M57.2549 39.7283C57.2549 39.7283 56.7544 40.1317 55.7535 40.6359C55.253 39.5266 54.7525 38.4174 54.1519 37.4089C54.252 37.3081 54.3521 37.2072 54.3521 37.1064C54.3521 37.1064 52.2501 27.6271 52.521 18.7529C53.4512 19.6605 54.3521 20.5681 55.1529 21.5765C57.2549 24.0976 59.1567 27.0221 60.6582 30.249C60.3579 35.0895 59.457 39.5266 57.2549 39.7283"/>
	<path fill="#2D1B0A" d="M55.4463 41.4427C54.7456 39.8292 54.2451 38.7199 53.6445 37.7115C53.4443 35.3921 51.7427 26.8204 51.9266 18.8538L51.9266 17.7445C53.7446 19.5597 54.5454 20.4673 55.3462 21.3749C57.4482 23.8959 59.35 26.9212 60.9516 30.1482C60.5512 36.6022 59.2499 39.8292 57.1479 40.1317C56.9477 40.2326 56.4472 40.6359 55.7465 41.0393M54.7456 37.5098C55.146 38.3165 55.5464 39.1233 55.9467 39.93C56.5473 39.5267 56.8476 39.325 56.8476 39.325C57.9487 39.1233 59.5502 37.9132 60.1508 30.4508C58.5492 27.2238 56.7475 24.4002 54.7456 21.9799C54.2451 21.274 53.6445 20.669 52.9438 20.0639C52.8437 28.3331 54.7456 37.0056 54.7456 37.1064"/>
	<path fill="#428E25" d="M51.8497 38.3165C52.5504 39.5266 53.151 40.6359 53.6515 41.7452C51.049 42.9553 47.1452 44.2663 42.3406 44.1709C40.1384 41.6443 37.7361 39.4258 35.3338 37.6106C40.0383 38.1148 47.8459 39.0224 51.8497 38.3165"/>
	<path fill="#2D1B0A" d="M43.0413 44.5688C42.8411 44.5688 42.6409 44.5688 42.4407 44.5688C39.9383 41.846 37.6361 39.6275 35.1336 37.8123L33.5321 36.6022L35.534 36.9047C39.9383 37.5098 47.8459 38.5182 51.8498 37.7115C52.9508 39.0224 53.6515 40.2325 54.152 41.3418C51.4494 43.2578 47.6457 44.5688 43.0413 44.5688M42.6409 43.5604C47.0451 43.6612 50.5485 42.4511 52.9508 41.4427C52.5504 40.5351 52.05 39.7283 51.5495 38.8207C47.946 39.4258 42.0403 38.8207 37.1356 38.2157C39.0374 39.8292 40.8391 41.5435 42.6409 43.5604"/>
	<path fill="#428E25" d="M58.5562 55.9641C56.6544 56.1658 53.6515 56.1658 50.1481 55.2582C48.4464 52.0312 46.6447 49.1068 44.5427 46.384C49.047 49.1068 54.9527 52.3337 57.8555 52.3337C58.1558 53.6447 58.356 54.8548 58.5562 55.9641"/>
	<path fill="#2D1B0A" d="M56.354 56.5692C54.5523 56.5692 52.3502 56.3675 49.9479 55.7624C48.0461 52.2329 46.1442 49.3084 44.1423 46.6865L42.5407 44.5688L44.843 45.9806C51.149 49.8127 55.7534 51.8295 57.9557 51.9304C58.7563 53.5439 58.9566 54.754 59.1567 55.9641C57.9557 56.4683 57.1549 56.5692 56.354 56.5692M50.4484 54.8548C53.4512 55.5607 56.1538 55.6616 57.9557 55.4599C57.8555 54.6531 57.6553 53.7456 57.4551 52.838C55.253 52.6363 51.4493 51.0228 46.3444 47.9975C47.8459 50.216 49.1471 52.4346 50.4484 54.8548"/>
	<path fill="#55B735" d="M60.5581 55.6616C60.5581 55.6616 60.1577 55.7624 59.5571 55.8633C59.457 54.6532 59.2568 53.4431 59.0566 52.2328C59.0566 52.2328 60.5581 44.7705 63.561 37.5098C63.7612 38.014 63.8613 38.4173 63.9614 38.9216C65.2626 43.3587 64.9623 48.5017 64.2617 53.6446C63.0605 55.1573 61.6592 56.0649 60.5581 55.6616"/>
	<path fill="#2D1B0A" d="M59.1567 56.3675C58.9566 54.6531 58.7564 53.443 58.5562 52.2329C58.8565 50.5185 60.3579 43.762 63.0605 37.2072L63.561 35.9971L63.9614 37.3081C64.1616 37.8123 64.2617 38.3165 64.3618 38.7199C65.4628 42.6528 65.5629 47.1907 64.662 53.6447C62.9604 55.6616 61.5591 56.4683 60.3579 56.1658C60.1577 56.1658 59.8574 56.2666 59.457 56.3675M59.5571 52.132C59.7573 53.1405 59.8574 54.1489 60.0576 55.1573C60.3579 55.1573 60.458 55.0565 60.458 55.0565C61.6592 55.359 62.8603 54.2497 63.7612 53.2413C64.662 47.0899 64.562 42.6528 63.4609 38.9216C63.4609 38.9216 63.4609 38.8207 63.4609 38.8207C61.0586 45.1739 59.6572 51.4261 59.5571 52.132"/>
	<path fill="#B0D67F" d="M59.9575 65.8467L58.0557 66.0484C58.0557 66.0484 58.356 65.2416 58.6563 63.6282L60.0576 63.6282C60.0576 65.04 59.9575 65.8467 59.9575 65.8467"/>
	<path fill="#2D1B0A" d="M56.4541 67.2585L57.0547 65.645C57.0547 65.645 57.355 64.9391 57.5552 63.5273L60.9585 62.5189L60.9585 63.6282C60.9585 65.04 60.9585 65.8467 60.9585 65.9475L56.4541 67.2585"/>
	<path fill="#B0D67F" d="M58.5562 55.9641C58.9566 55.9641 59.2569 55.8633 59.5572 55.8633C59.9576 59.0903 60.0577 61.813 60.0577 63.6282L58.6563 63.7291C58.8565 62.0147 59.0567 59.3928 58.5562 55.9641"/>
	<path fill="#2D1B0A" d="M57.4552 64.8383L57.6554 63.6282C57.8556 62.1156 58.0557 59.5945 57.5553 56.1658L57.4552 55.1574L58.4561 55.0565C58.8565 55.0565 59.1568 54.9557 59.4571 54.9557L60.4581 54.8549L60.5582 55.8633C60.9585 59.1911 61.0586 62.0147 61.0586 63.7291L57.4552 64.8383"/>
	<path fill="#B0D67F" d="M25.2241 15.5259C25.6244 16.6352 25.9247 17.2403 25.9247 17.2403C25.8246 17.5428 25.5243 17.8453 25.1241 18.1479C18.4175 15.5259 12.8121 14.215 11.611 13.6099C10.0094 12.8032 6.80635 12.904 4.10374 13.2065C4.00365 12.904 3.90355 12.6015 3.90355 12.2989C5.3049 12.1981 7.10664 12.0973 9.70915 11.8551C13.2125 11.593 19.0182 13.0048 25.2241 15.5259"/>
	<path fill="#2D1B0A" d="M25.2241 19.2571C20.7198 17.5428 17.2164 16.4335 14.6139 15.6268C12.8122 15.1225 11.611 14.7192 11.1105 14.4166C10.5099 14.1141 8.70819 13.6099 4.20385 14.1141L3.20289 13.4082C3.10279 13.1057 3.00269 12.8031 3.00269 12.3998L2.8025 11.2905L9.70916 10.7459C13.4127 10.4837 19.2183 11.8956 25.7246 14.5175C26.7256 16.2318 27.0259 16.8369 27.0259 16.8369C26.8257 18.1478 26.4253 18.5512 25.8247 18.9546M12.8122 13.0048C13.4127 13.2065 14.2135 13.4082 15.2145 13.7107C17.5167 14.4166 20.92 15.4251 24.7236 16.8369C24.6235 16.6352 24.6235 16.4335 24.5234 16.2318C20.0191 14.5175 16.0152 13.4082 12.8122 13.0048"/>
	<path fill="#B0D67F" d="M45.2433 27.2237C48.1461 29.6439 50.5485 32.165 52.3502 34.787C52.8507 35.5937 53.3512 36.4005 53.8517 37.308C53.4512 37.7114 52.6505 37.9131 51.7496 38.1148C51.7496 38.1148 51.7496 38.0139 51.7496 38.0139C49.6476 34.3836 46.945 31.2574 43.842 28.6355C44.6428 27.8288 45.1432 27.2237 45.2433 27.2237"/>
	<path fill="#2D1B0A" d="M51.149 39.2241C48.8468 35.2912 46.2443 32.2659 42.9411 29.4423L42.9411 27.8288C43.842 27.022 44.3425 26.5178 44.3425 26.5178L45.6437 26.417C48.7467 29.0389 51.2491 31.6608 52.9507 34.1819C53.4512 34.9886 54.0518 35.8962 54.5523 36.8038L54.3521 38.0139C53.7515 38.5182 52.9507 38.8207 51.7496 39.0224M45.2433 28.6355C48.1461 31.1566 50.4484 33.9802 52.25 36.9047C52.3502 36.9047 52.4502 36.9047 52.4502 36.8038C52.1499 36.2996 51.8497 35.7954 51.4493 35.2912C50.048 33.0726 47.9459 30.8541 45.2433 28.6355"/>
	<path fill="#B0D67F" d="M29.1279 19.1563C29.7285 18.9546 30.1288 18.5512 30.4291 17.8453C34.3329 19.7613 38.1366 21.9799 41.6399 24.501C41.8401 25.0052 41.9402 25.2069 41.9402 25.2069C41.74 25.6103 41.3397 26.0136 40.7391 26.3162C36.8353 23.4925 32.6312 21.274 28.6274 19.5597C29.0278 19.358 29.1279 19.1563 29.1279 19.1563"/>
	<path fill="#2D1B0A" d="M40.7391 27.5263C36.8353 24.7027 32.8314 22.4841 28.3271 20.4672L26.9258 19.8622L27.9267 18.8537C28.1269 18.6521 28.227 18.4504 28.3271 18.4504C29.1279 18.047 29.3281 17.8453 29.5283 17.3411L30.8295 16.8369C34.9335 18.8537 38.8372 21.1731 42.2406 23.5934C42.741 24.6018 42.841 24.8035 42.841 24.8035C42.5409 26.2153 42.0404 26.7195 41.2396 27.1229M30.6293 19.358C34.433 21.0723 37.8363 23.0892 40.7391 25.106C37.7362 22.9883 34.3329 20.9715 30.7294 19.1563C30.7294 19.2571 30.7294 19.358 30.6293 19.358"/>
	<path fill="#B0D67F" d="M59.0567 52.132C58.7564 52.3337 58.356 52.3337 57.8555 52.3337C57.1549 49.2076 55.8536 45.6781 53.8517 41.6444C54.5524 41.3418 55.253 40.9384 55.7535 40.6359C57.3551 44.468 58.356 48.5017 59.0567 52.132"/>
	<path fill="#2D1B0A" d="M57.9556 53.443C57.9556 53.443 57.8555 53.443 57.8555 53.443L56.8546 52.7371C56.0538 49.4093 54.7525 45.8798 52.9508 42.2494L53.3512 40.9384C53.9518 40.6359 54.5524 40.3334 55.1529 40.0309L56.1539 39.4258L56.5543 40.4342C58.0557 43.8629 59.1568 47.8966 59.9576 52.1321L59.4571 53.1405C59.0567 53.2413 58.5562 53.443 57.9556 53.443M55.1529 42.1486C55.253 42.3503 55.3531 42.6528 55.4532 42.8545C55.4532 42.6528 55.3531 42.3503 55.1529 42.1486C55.253 42.1486 55.1529 42.1486 55.1529 42.1486"/>
	<path fill="#B0D67F" d="M25.9247 17.2402C25.9247 17.2402 25.6245 16.6352 25.124 15.5259C26.9257 16.2318 28.7274 17.0386 30.4291 17.8453C30.1288 18.5512 29.7284 18.9546 29.1278 19.1563C29.1278 19.1563 29.0277 19.358 28.7274 19.5596C27.5263 19.0554 26.225 18.5512 25.124 18.047C25.5244 17.8453 25.7246 17.5428 25.9247 17.2402"/>
	<path fill="#2D1B0A" d="M28.9277 20.7698C27.1259 19.963 25.9248 19.4588 24.7236 18.9546L22.9219 18.2487L24.5234 17.1394C24.6235 17.0386 24.7236 17.0386 24.7236 16.9377C24.6235 16.6352 24.4233 16.2318 24.2231 15.7276L23.3222 13.509L25.5244 14.4166C27.226 15.1225 29.0278 15.9293 30.8295 16.8369L31.33 18.1478C30.9296 19.0554 30.329 19.6605 29.6283 19.963C29.5282 20.0639 29.4281 20.1647 29.328 20.2655M26.8256 17.7445C27.4262 17.9461 27.9267 18.2487 28.5273 18.4504C28.3271 17.9461 27.6264 17.6436 27.0258 17.3411C26.8256 17.6436 26.8256 17.6436 26.8256 17.7445"/>
	<path fill="#B0D67F" d="M42.0403 25.2068C42.0403 25.2068 41.9402 24.9043 41.74 24.5009C42.9412 25.4085 44.1423 26.3161 45.2434 27.2237C45.1433 27.3245 44.6428 27.8288 43.7419 28.6355C42.8411 27.8288 41.8401 27.1229 40.8391 26.3161C41.4397 26.0136 41.8401 25.6102 42.0403 25.2068"/>
	<path fill="#2D1B0A" d="M43.7419 29.9465C42.2405 28.6355 41.2395 27.9296 40.2385 27.2237L38.9373 26.3161L40.3386 25.5094C40.6389 25.4085 40.739 25.2068 40.8391 25.106C40.8391 25.0051 40.739 25.0051 40.739 24.9043L39.4378 21.6773L42.2405 23.6942C43.5417 24.6018 44.7429 25.5094 45.8439 26.417L45.944 27.9296C45.8439 28.0305 45.3435 28.6355 44.3425 29.4423M42.4407 26.3161C42.841 26.6186 43.2414 26.9212 43.6418 27.3246C43.3415 26.9212 42.9411 26.6186 42.4407 26.3161"/>
	<path fill="#B0D67F" d="M55.7534 40.6359C55.2529 40.9385 54.6524 41.241 53.8516 41.6444C53.3511 40.5351 52.7505 39.4258 52.0499 38.2157C52.9507 38.014 53.7515 37.8123 54.1519 37.409C54.7525 38.5182 55.2529 39.5267 55.7534 40.6359"/>
	<path fill="#2D1B0A" d="M53.3511 42.9553C52.3501 40.9385 51.7496 39.8292 51.149 38.7199L50.4483 37.5098L51.8497 37.2073C52.9507 37.0056 53.3511 36.703 53.5513 36.6022L55.0528 36.9047C55.6533 37.9132 56.1538 39.1233 56.6543 40.2326L56.2539 41.4427C55.6533 41.8461 54.9527 42.1486 54.252 42.4511M53.5513 38.9216C53.8516 39.4258 54.0518 39.8292 54.3521 40.3334C54.4522 40.3334 54.4522 40.2326 54.5523 40.2326C54.3521 39.7283 54.0518 39.2241 53.8516 38.8208C53.6514 38.8208 53.6514 38.8208 53.5513 38.9216"/>
	<path fill="#B0D67F" d="M59.0567 52.1321C59.2569 53.443 59.4571 54.6531 59.5572 55.7624C59.2569 55.7624 58.9566 55.8633 58.5562 55.8633C58.356 54.754 58.1558 53.5439 57.8555 52.3338C58.356 52.4346 58.7564 52.3338 59.0567 52.1321"/>
	<path fill="#2D1B0A" d="M57.6553 57.0734C57.355 55.0565 57.1549 53.8464 56.8546 52.7371L56.5543 51.4262L57.8555 51.4262C58.2559 51.4262 58.4561 51.3253 58.5562 51.3253L59.7574 50.6194L59.9576 52.0312C60.1577 53.2413 60.3579 54.4515 60.458 55.7624L60.5581 56.7709L59.5572 56.8717C59.2569 56.8717 58.8565 56.9725 58.4561 56.9725"/>
	<path fill="#2D1B0A" d="M57.6553 63.6282L59.6573 63.6282L59.6573 86.0154L57.6553 86.0154L57.6553 63.6282"/>
	<path fill="#2D1B0A" d="M58.9565 63.5274L60.9585 63.5274L60.9585 85.9146L58.9565 85.9146L58.9565 63.5274"/>
</svg>
