<?xml version="1.0" encoding="utf-8" ?>
<svg xmlns="http://www.w3.org/2000/svg" xmlns:xlink="http://www.w3.org/1999/xlink" width="90" height="90">
	<path fill="white" d="M45 90C20.1897 90 0 69.8103 0 45C0 20.1897 20.1897 0 45 0C69.8103 0 90 20.1897 90 45C90 69.8103 69.8103 90 45 90"/>
	<path fill="#FFDC4A" d="M86.9866 44.8995C86.9866 68.0881 68.1886 86.8861 45 86.8861C21.8114 86.8861 3.0134 68.0881 3.0134 44.8995C3.0134 21.7109 21.8114 2.9129 45 2.9129C68.1886 2.9129 86.9866 21.7109 86.9866 44.8995"/>
	<path fill="#2D1B0A" d="M45 87.9911C21.2946 87.9911 2.00895 68.7054 2.00895 45C2.00895 21.2946 21.2946 2.00895 45 2.00895C68.7054 2.00895 87.9911 21.2946 87.9911 45C87.9911 68.7054 68.7054 87.9911 45 87.9911M45 3.91743C22.3995 3.91743 4.01788 22.2991 4.01788 44.8995C4.01788 67.5 22.3995 85.8818 45 85.8818C67.6004 85.8818 85.9821 67.5 85.9821 44.8995C85.9821 22.2991 67.6004 3.91743 45 3.91743"/>
	<path fill="#2D1B0A" d="M73.3257 32.3437C73.1248 32.2432 72.8235 32.1428 72.6226 31.9419C72.4217 31.8414 72.2208 31.741 71.9195 31.5401C71.0155 31.1383 70.8146 31.0379 70.5132 30.9374C69.6092 30.5356 68.7052 30.2343 67.8012 29.933C65.9931 29.4307 64.1851 29.1294 62.3771 29.1294C60.569 29.1294 58.761 29.4307 56.953 29.933C56.0489 30.2343 55.1449 30.5356 54.2409 30.9374C54.04 31.0379 53.8391 31.1383 53.5378 31.2388C52.6338 31.6405 52.4329 31.741 52.1315 31.9419C51.9306 32.0423 51.7297 32.2432 51.4284 32.3437C51.5288 32.1428 51.7297 31.9419 51.8302 31.6405C51.9306 31.4397 52.1315 31.2388 52.3324 31.0379C52.5333 30.837 52.6338 30.6361 52.8347 30.4352C52.8347 30.4352 52.9351 30.3347 52.9351 30.3347C54.1405 29.2298 54.944 28.6272 55.9485 28.1249C57.857 27.1205 59.9664 26.6182 62.1762 26.6182C64.2855 26.6182 66.4954 27.1205 68.4038 28.1249C69.3079 28.6272 70.2119 29.2298 71.0155 29.933C71.4172 30.3347 71.5177 30.4352 71.6181 30.5356C71.819 30.7365 72.0199 30.9374 72.1204 31.1383C72.3213 31.3392 72.4217 31.5401 72.6226 31.741C73.0244 31.9419 73.1248 32.1428 73.3257 32.3437"/>
	<path fill="#2D1B0A" d="M14.8659 32.3437C14.9664 32.1428 15.1673 31.9419 15.2677 31.6406C15.4686 31.4397 15.5691 31.2388 15.77 31.0379C15.9709 30.837 16.0713 30.6361 16.2722 30.4352C16.3727 30.3348 16.4731 30.2343 16.5735 30.1339C17.6784 29.1294 18.482 28.5267 19.4865 28.0245C21.395 27.02 23.5043 26.5178 25.7141 26.5178C27.8235 26.5178 30.0333 27.02 31.9418 28.0245C32.8458 28.5267 33.7498 29.1294 34.5535 29.8325C34.9552 30.2343 35.0556 30.3348 35.0556 30.3348C35.2565 30.5357 35.4575 30.7366 35.5579 30.9374C35.7589 31.1383 35.8592 31.3392 36.0602 31.5401C36.1605 31.741 36.3615 31.9419 36.462 32.2433C36.261 32.1428 35.9597 32.0424 35.7589 31.8415C35.5579 31.741 35.357 31.6406 35.0556 31.4397C34.1516 31.0379 33.9508 30.9374 33.6495 30.837C32.7454 30.4352 31.8414 30.1339 30.9373 29.8325C29.1293 29.3303 27.3214 29.029 25.5132 29.029C23.7052 29.029 21.8972 29.3303 20.0892 29.8325C19.1852 30.1339 18.2811 30.4352 17.3771 30.837C17.1762 30.9374 16.9753 31.0379 16.674 31.1383C15.77 31.5401 15.5691 31.6406 15.2677 31.8415C15.2677 32.0424 15.0668 32.2433 14.8659 32.3437"/>
	<path fill="#2D1B0A" d="M46.0043 73.7276C36.9642 73.7276 29.732 67.4999 29.732 59.866C29.732 59.2633 30.1338 58.8615 30.7365 58.8615C31.3392 58.8615 31.741 59.2633 31.741 59.866C31.741 66.395 38.1695 71.7186 46.0043 71.7186C53.9397 71.7186 60.2677 66.395 60.2677 59.866C60.2677 59.2633 60.6695 58.8615 61.2722 58.8615C61.8749 58.8615 62.2766 59.2633 62.2766 59.866C62.2766 67.4999 55.0445 73.7276 46.0043 73.7276"/>
</svg>
