<?xml version="1.0" encoding="utf-8" ?>
<svg xmlns="http://www.w3.org/2000/svg" xmlns:xlink="http://www.w3.org/1999/xlink" width="76" height="140">
	<path fill="white" d="M28.7555 139.799C23.7877 139.799 19.9352 135.075 19.4283 128.643L16.4882 85.8291L35.0412 85.8291C34.8385 83.3166 34.5343 80.804 34.1288 78.2915C31.0873 76.9849 25.4099 71.8593 14.5619 52.4623L13.8522 51.2563L12.1287 48.2412C9.79691 43.8191 7.66787 39.4975 5.94436 35.7789L3.9167 31.4573C2.90287 29.1457 1.99043 26.7337 1.28075 24.3216L0.875216 22.6131L0.165536 20C-1.86212 6.13065 6.65404 1.70854 9.39137 0.703518C10.9121 0.201005 12.3315 0 13.6495 0C17.0965 0 20.3407 1.30653 22.8753 3.61809L25.6126 6.33166C29.4652 10.9548 32.4053 16.1809 34.3316 21.809C38.3869 32.3618 41.9353 50.8543 42.3408 63.6181C43.6588 56.9849 45.7878 49.8492 48.3224 44.5226C50.1473 40.3015 52.7832 36.4824 56.0275 33.1658L57.5482 31.8593C59.5759 30.0503 62.1104 29.1457 64.8478 29.1457C66.2671 29.1457 67.6865 29.4472 69.0045 29.9497C72.1473 31.3568 74.175 33.6683 75.2902 36.6834C76.811 41.206 75.8985 46.8342 72.4515 53.5678L70.4238 57.3869C69.8155 58.392 57.5482 79.598 49.3362 84.1206C49.2348 84.7236 49.1334 85.4271 48.9307 86.0302L60.9952 86.0302L58.0551 128.844C57.6496 135.276 53.6957 140 48.7279 140L28.7555 140"/>
	<path fill="#20A032" d="M30.3776 23.2687C28.5527 18.0425 25.8154 13.2185 22.267 8.99735L18.1103 12.0124L20.3407 7.08781C17.9075 4.47474 14.055 3.46971 10.608 4.57524C5.94435 6.28379 2.49734 11.1079 4.32223 20.4547L13.0412 20.8567L4.93052 22.8667C5.6402 25.2788 6.45127 27.5904 7.46509 29.8013L9.49275 34.123C11.419 38.4445 13.9536 43.4697 16.6909 48.3944L23.4836 48.1934L17.7048 50.3039C25.0043 63.4697 33.4191 75.6305 36.3592 74.6837C40.3131 73.3189 37.2716 40.8567 30.3776 23.2687"/>
	<path fill="#2D1B0A" d="M36.1564 75.7789C31.2901 75.7789 21.0504 58.4924 16.7923 50.8542L16.184 49.8492L17.4006 49.4472L15.9813 49.4472C12.9398 43.8191 10.4052 38.8944 8.47892 34.5728L6.45127 30.2512C5.43744 27.9397 4.52499 25.5276 3.81531 23.1155L3.51117 22.1105L6.04574 21.5075L3.40978 21.407C0.77383 8.44217 7.26233 4.62308 10.101 3.51755C13.9536 2.31152 18.2117 3.41705 20.949 6.33162L20.5435 8.84418L22.3684 7.53765C26.5251 12.5628 29.3638 17.4874 31.1887 22.814C37.5758 39.2964 41.9353 73.5678 36.6634 75.6784C36.562 75.7789 36.3592 75.7789 36.1564 75.7789M19.2255 50.9547C28.35 67.2361 34.7371 74.2713 36.1564 73.8693C38.7924 72.0603 36.562 41.809 29.4652 23.6181C27.7417 18.7939 25.3085 14.3718 22.1656 10.4522L15.5757 15.2763L19.2255 7.43715C16.9951 5.4271 13.8522 4.72358 11.0135 5.6281C6.04574 7.43715 4.01808 12.4623 5.23467 19.598L19.9352 20.201L6.2485 23.7186C6.8568 25.7286 7.56648 27.6382 8.47892 29.5477L10.5066 33.8693C12.3315 37.8894 14.6633 42.613 17.2992 47.5376L29.5666 47.1356L19.2255 50.9547"/>
	<path fill="#1C6B3E" d="M67.1795 33.6505C64.7464 32.6454 61.9076 33.1402 59.9814 34.957L58.6634 36.0625C55.7233 38.9771 53.3914 42.4947 51.7693 46.3137C45.8891 58.776 42.8476 79.5801 45.6863 80.8866C48.5251 82.1931 59.88 67.0173 66.4698 55.359L61.7049 52.9469L68.0919 52.2434C74.0736 41.0876 71.539 35.56 67.1795 33.6505"/>
	<path fill="#2D1B0A" d="M46.0918 81.8089C45.889 81.8089 45.5849 81.8089 45.3821 81.7085C44.8752 81.5075 44.4697 81.005 44.1655 80.3016C42.442 75.5786 45.6863 56.9882 50.9582 45.834C52.6817 41.9149 55.0135 38.3978 58.055 35.3831L59.373 34.2777C61.6034 32.2968 64.8476 31.7655 67.585 32.8709C69.714 33.8758 71.3361 35.5841 72.0458 37.7949C73.3638 41.6134 72.35 46.6379 69.0043 52.8682L65.2532 53.7726L67.8891 55.0789C64.3407 61.1083 51.3637 81.8089 46.0918 81.8089M64.6449 34.1773C63.2255 34.1773 61.8061 34.6797 60.6909 35.6846L59.373 36.79C56.6356 39.6037 54.4052 42.9198 52.7831 46.6379C46.9029 58.998 44.4697 77.9904 46.1932 79.8997C48.4236 79.8997 57.7508 68.4439 65.1518 55.7823L58.2577 52.3657L67.585 51.4613C70.3223 46.0349 71.2347 41.6134 70.2209 38.4983C69.6126 36.79 68.4974 35.5841 66.8753 34.7802C66.1656 34.2777 65.3545 34.1773 64.6449 34.1773"/>
	<path fill="#2D1B0A" d="M40.1104 100.1L38.0828 100C38.691 88.6432 37.2717 76.5828 33.7233 63.216C30.479 51.0553 25.8154 39.0955 21.2532 28.0402L23.1795 27.2362C27.7417 38.392 32.5067 50.4523 35.7509 62.7136C39.2993 76.2813 40.8201 88.5426 40.1104 100.1"/>
	<path fill="#2D1B0A" d="M41.8339 112.06L39.8062 111.859C41.1242 100.201 42.5435 88.0401 45.3823 76.2813C48.6265 63.0151 53.2901 52.1608 59.6772 43.1156L61.2994 44.2211C55.115 52.9648 50.4514 63.618 47.3085 76.6833C44.5712 88.4422 43.2532 100.402 41.8339 112.06"/>
	<path fill="white" d="M48.4238 135.779L28.4513 135.779C25.714 135.779 23.4836 132.563 23.1794 128.342L20.5435 89.8491L39.0965 89.8491L56.3316 89.8491L53.6956 128.342C53.3914 132.563 51.0597 135.779 48.4238 135.779"/>
	<path fill="#2D1B0A" d="M48.4238 136.784L28.4514 136.784C25.2071 136.784 22.4698 133.166 22.1656 128.442L19.4283 88.8442L57.3455 88.8442L54.6081 128.442C54.304 133.266 51.668 136.784 48.4238 136.784M21.6587 90.8542L24.1933 128.241C24.4974 131.859 26.3223 134.774 28.4514 134.774L48.4238 134.774C50.5528 134.774 52.4791 131.96 52.6819 128.241L55.2164 90.8542L21.6587 90.8542"/>
</svg>
