<?xml version="1.0" encoding="utf-8" ?>
<svg xmlns="http://www.w3.org/2000/svg" xmlns:xlink="http://www.w3.org/1999/xlink" width="86" height="108">
	<path fill="white" d="M85.02 34.7322C83.6221 32.6302 81.4255 31.4291 79.0291 31.4291C78.6297 31.4291 78.2303 31.4291 77.9308 31.5292C74.9354 32.0297 72.7387 34.2317 71.8401 37.4347C71.4407 38.9361 71.0413 40.0371 70.5421 40.7377C70.2425 39.1362 69.943 37.6348 69.5436 36.1335C69.244 34.8323 68.8447 33.531 68.3454 32.2298C70.3424 31.0287 72.539 29.0269 74.7357 26.7247C75.3348 26.1242 75.7342 25.7238 76.0337 25.5236C79.3287 22.721 80.1275 19.9184 80.1275 18.1168C80.2273 16.1149 79.5284 14.3133 78.2303 13.012C76.8325 11.6108 75.0352 10.81 73.1381 10.81C72.2395 10.81 71.4407 11.0102 70.6419 11.3105C69.4437 11.8109 68.3454 12.6117 67.5466 13.6126C66.4483 12.4115 64.9506 11.6108 63.1533 11.6108C60.4574 11.6108 58.2608 13.4124 57.5619 15.8146C57.0626 15.3142 56.4635 14.8137 55.9643 14.3133C55.9643 13.9129 55.8644 13.4124 55.7646 13.012C54.9658 10.7099 52.2699 7.90732 49.2745 5.10473C48.7752 4.60426 48.276 4.20389 48.0763 3.90361C45.1807 0.700649 42.385 0 40.4879 0C38.4909 0 36.6937 0.800741 35.4955 2.10195C33.4985 4.20389 32.8994 7.20667 33.9978 9.80908C35.1959 12.6117 37.792 14.3133 41.087 14.4133C43.5832 14.5134 44.8812 14.9138 45.8797 15.4143C45.3804 15.3142 44.981 15.3142 44.4818 15.3142C43 15.3142 41.5862 15.7146 40.388 16.6154C38.0915 18.2169 36.9932 21.0195 37.4924 23.9222C37.792 25.7238 38.9902 27.3253 40.6876 28.4263C42.0854 29.3272 43.683 29.7275 45.5801 29.7275C46.0794 29.7275 46.4787 29.7275 46.978 29.6274C45.5801 31.7294 44.4818 33.6311 44.2821 35.3327C44.2821 35.633 44.2821 35.8332 44.2821 36.1335C44.0824 36.3336 43.9826 36.6339 43.7829 36.8341C42.8842 36.2335 41.8857 35.9333 40.7874 35.9333C39.5892 35.9333 38.3911 36.3336 37.4924 37.0343C37.4924 37.0343 37.4924 37.0343 37.3926 37.0343C36.8934 35.3327 35.6952 33.9314 33.9978 33.2308C33.8979 33.2308 33.8979 33.1307 33.7981 33.1307C36.0946 32.3299 37.6921 30.5283 38.0915 28.3262C38.4909 26.0241 37.5923 23.6219 35.4955 22.2206C34.5969 21.62 33.4985 21.2196 32.3004 21.2196C31.8011 21.2196 31.4017 21.3197 30.9025 21.3197C29.4048 21.62 27.308 22.6209 25.6106 25.6237C25.5107 25.8239 25.311 26.1242 25.0115 26.5246C23.1144 29.2271 21.6166 31.6293 21.417 33.6311C21.417 33.9314 21.417 34.1316 21.417 34.4319C20.6182 35.4328 19.9192 36.5338 19.2203 37.6348C18.7211 38.2354 18.3217 38.9361 18.122 39.6367C17.9223 40.1372 17.7226 40.5375 17.5229 41.038C17.2233 40.5375 16.9238 39.8369 16.6243 38.7359C15.9253 36.1335 13.9284 34.2317 11.532 33.9314C11.2325 33.9314 10.9329 33.8313 10.6334 33.8313C8.63643 33.8313 6.73932 34.9323 5.54115 36.6339C4.74237 37.9351 4.44282 39.6367 4.84222 41.2382C5.24161 42.7396 6.33993 44.7414 9.33537 46.443C9.53506 46.5431 9.83461 46.7433 10.234 47.0436C12.1311 48.2447 13.7287 49.3457 15.2264 49.9462C15.1265 50.747 15.0267 51.5477 15.0267 52.3485C15.0267 52.5487 15.0267 52.7488 15.0267 52.949C13.8285 50.8471 11.7317 49.5459 9.53506 49.5459C9.43521 49.5459 9.33537 49.5459 9.23552 49.5459C6.83917 49.646 4.84222 51.1474 3.94359 53.4495C3.3445 54.8508 3.44435 56.5524 4.14328 58.0538C4.54267 58.9546 5.34145 59.9555 6.63948 60.8563C3.44435 63.8591 -1.84759 71.266 0.648608 86.7804C3.84374 106.198 16.9238 107.199 19.5198 107.199C19.7195 107.199 19.8194 107.199 19.9192 107.199L39.5892 107.7L61.5558 108C62.2547 107.8 79.5284 102.095 80.2273 83.0769C80.8264 66.6617 73.5375 61.557 70.9415 60.2558C71.0413 57.6534 71.1412 54.8508 71.1412 51.9481C73.3378 51.2475 75.9338 49.5459 78.6297 47.8443C79.3287 47.3438 79.8279 47.0436 80.1275 46.8434C83.9217 44.7414 85.2197 42.139 85.6191 40.3373C86.318 38.2354 86 36.2335 85.02 34.7322M55.6647 58.6543C56.8629 57.4532 57.5619 55.9518 57.462 54.3503C57.3622 51.9481 55.9643 49.8462 53.7676 48.8452C53.0687 48.5449 52.2699 48.3448 51.4711 48.3448C49.8736 48.3448 48.1762 49.0454 46.8781 50.2465C45.5801 51.4476 44.6815 51.848 44.0824 52.0482C44.2821 50.0463 44.7813 48.1446 45.3804 46.2428C46.2791 46.3429 47.3774 46.443 48.7752 46.443C50.0733 47.2437 51.7707 47.7442 53.5679 47.7442C54.6663 47.7442 55.9643 47.544 57.1625 47.2437C57.462 47.1437 58.0611 47.0436 58.76 46.9435C60.9567 46.5431 63.1533 46.0426 64.9506 45.4421C64.9506 45.6423 64.9506 45.8424 65.0504 46.0426C64.651 47.0436 64.651 48.2447 65.1503 49.2456C65.1503 49.3457 65.2501 49.4458 65.2501 49.5459C65.35 52.949 65.2501 56.3522 65.1503 59.355L54.866 59.2549C55.1655 59.0547 55.465 58.8545 55.6647 58.6543M64.2517 23.722C64.1518 23.5218 63.9521 23.3216 63.8523 23.1214C64.1518 23.1214 64.4514 23.0213 64.7509 22.9212C64.5512 23.3216 64.3515 23.5218 64.2517 23.722M26.609 47.1437C26.0099 46.1427 25.2112 45.342 24.2127 44.8415C25.0115 44.9416 25.8103 44.9416 26.7089 44.9416C27.2081 44.9416 27.7074 44.9416 28.2066 44.9416C28.2066 44.9416 28.606 44.9416 28.8057 44.9416C29.4048 45.8424 30.1037 46.5431 31.0023 47.2437C30.3034 46.9435 29.5046 46.8434 28.8057 46.8434C28.0069 46.7433 27.2081 46.9435 26.609 47.1437M37.9917 53.7498C37.9917 54 37.9917 54.1501 37.9917 54.3503C37.1929 52.8489 35.8949 51.848 34.497 51.2475C34.1975 50.0463 33.5984 49.0454 32.6998 48.2447C32.7996 48.3448 33.2988 48.645 33.2988 48.645C35.0961 49.7461 36.6937 50.8471 38.1914 51.4476C38.0915 52.2484 37.9917 53.0491 37.9917 53.7498"/>
	<path fill="#58AA38" d="M68.5357 18.2169C68.8353 13.7127 73.2289 12.3114 75.8251 14.9138C77.223 16.3151 77.7223 19.7183 73.7282 23.1214C72.43 24.2224 67.9366 29.2271 65.4403 29.9277C64.0423 30.3281 63.0438 28.7266 63.9425 27.6256C65.3404 25.924 68.0365 25.0232 68.5357 18.2169"/>
	<path fill="#2D1B0A" d="M65.0541 30.9287C64.2553 30.9287 63.5563 30.5283 63.057 29.8277C62.4579 28.9268 62.6545 27.7257 63.1569 26.925C63.4564 26.5246 63.8559 26.2243 64.2553 25.8239C65.6532 24.6228 67.151 23.1214 67.4506 18.1168C67.5504 15.6145 68.9484 13.6126 70.9454 12.912C72.8426 12.2113 74.9396 12.7118 76.4374 14.2132C77.336 15.114 77.8353 16.4152 77.7481 17.8165C77.6356 19.3179 77.0365 21.52 74.3404 23.8221C74.0409 24.0223 73.5416 24.5227 73.0424 25.1233C70.4462 27.7257 67.7501 30.228 65.7531 30.8286C65.5534 30.8286 65.2538 30.9287 65.0541 30.9287M69.5475 18.2169C69.1481 24.1224 67.151 25.924 65.6532 27.3253C65.2538 27.6256 64.9542 27.9259 64.7545 28.2262C64.5548 28.4264 64.6547 28.6265 64.7545 28.7266C64.8544 28.8267 64.9542 28.9268 65.2538 28.9268C66.8515 28.4264 70.0468 25.3235 71.7443 23.722C72.3434 23.1214 72.8426 22.621 73.1422 22.3207C75.339 20.4189 75.8382 18.8175 75.8382 17.7164C75.8382 16.9157 75.6385 16.115 75.1393 15.6145C74.2406 14.7137 72.9425 14.4134 71.7443 14.8137C70.4462 15.2141 69.6473 16.5153 69.5475 18.2169"/>
	<path fill="#58AA38" d="M74.3405 37.8242C75.5387 33.4201 80.132 32.9197 82.129 36.0225C83.2274 37.624 83.0277 41.1273 78.5343 43.6296C77.0365 44.4303 71.6444 48.434 69.0482 48.6384C67.6503 48.7343 66.9513 47.0327 68.0497 46.1319C69.7472 44.7306 72.5431 44.5304 74.3405 37.8242"/>
	<path fill="#2D1B0A" d="M68.9354 49.646C67.936 49.646 67.1365 49.0454 66.7367 48.1446C66.3369 47.1437 66.5604 46.0427 67.4363 45.342C67.8361 45.0417 68.2358 44.7415 68.7355 44.4412C70.3346 43.5403 72.1335 42.4393 73.4327 37.5348C74.0324 35.1325 75.7314 33.431 77.9301 33.0736C79.9289 32.8304 81.9277 33.7313 83.027 35.4328C83.7266 36.5338 83.9265 37.8351 83.6267 39.2364C83.3269 40.6376 82.2275 42.7396 79.0294 44.4412C78.7296 44.6414 78.1299 44.9416 77.4304 45.4421C74.3322 47.444 71.1341 49.4458 69.1353 49.646C69.0353 49.646 69.0353 49.646 68.9354 49.646M75.3316 38.1353C73.8325 43.8406 71.4339 45.2419 69.7349 46.2429C69.3352 46.443 68.9354 46.7433 68.7355 46.9435C68.5356 47.1437 68.5356 47.3439 68.6356 47.444C68.6356 47.5441 68.8355 47.7442 69.0353 47.7442C70.7343 47.5441 74.4321 45.1418 76.431 43.8406C77.1305 43.3402 77.7302 42.9398 78.1299 42.7396C80.6285 41.3383 81.428 39.8369 81.7278 38.836C81.9277 38.0352 81.8278 37.1344 81.428 36.6339C80.7284 35.5329 79.5291 34.9324 78.2299 35.1325C76.8307 35.3327 75.7314 36.4338 75.3316 38.1353"/>
	<path fill="#58AA38" d="M47.0903 18.8174C43.196 16.5153 39.5015 19.3179 40.1148 22.9212C40.5999 24.823 42.9963 27.2252 48.0889 25.8239C49.6865 25.4235 56.3767 24.4226 58.3737 22.8211C59.4721 21.9203 58.7732 20.1186 57.3752 20.3188C55.1784 20.519 52.9817 22.4208 47.0903 18.8174"/>
	<path fill="#2D1B0A" d="M45.2831 27.3253C43.4858 27.3253 42.2875 26.8249 41.4887 26.3244C40.2905 25.5236 39.4916 24.4226 39.1921 23.2215C38.7927 21.1196 39.5915 19.1177 41.289 17.9166C43.0864 16.7155 45.4828 16.7155 47.5798 18.0167C51.8735 20.6191 53.9704 20.1186 55.7677 19.7183C56.267 19.6182 56.7663 19.5181 57.2655 19.418C58.3639 19.3179 59.3625 19.9185 59.7619 20.9194C60.1613 21.9203 59.8617 23.0213 59.0629 23.722C57.4652 25.0232 53.8705 25.8239 50.2758 26.5246C49.477 26.7248 48.8779 26.8249 48.4784 26.9249C47.1804 27.1251 46.1818 27.3253 45.2831 27.3253M44.1847 19.0176C43.4858 19.0176 42.8867 19.2178 42.3874 19.6182C41.3889 20.3188 40.8896 21.5199 41.1892 22.9212C41.289 23.6219 41.7883 24.3225 42.5871 24.7229C43.4858 25.3235 45.0834 25.8239 47.8793 25.0232C48.2787 24.9231 48.9777 24.823 49.8764 24.6228C52.173 24.1223 56.5666 23.3216 57.8647 22.2206C58.0644 22.0204 58.0644 21.8202 57.9645 21.7201C57.9645 21.62 57.7648 21.4198 57.5651 21.4198C57.1657 21.4198 56.7663 21.5199 56.3669 21.62C54.3698 22.1205 51.7736 22.7211 46.6811 19.7183C45.7824 19.2178 44.9836 19.0176 44.1847 19.0176"/>
	<path fill="#58AA38" d="M55.1784 37.0343C51.2841 34.7322 47.5896 37.5348 48.2029 41.1381C48.688 43.0399 51.0844 45.4421 56.177 44.0408C57.7746 43.6404 64.4648 42.6395 66.4618 41.038C67.5602 40.1372 66.8613 38.3355 65.4633 38.5357C63.2665 38.7359 61.0698 40.5376 55.1784 37.0343"/>
	<path fill="#2D1B0A" d="M53.3712 45.4421C51.5739 45.4421 50.3756 44.9417 49.5768 44.4412C48.3786 43.6404 47.5797 42.5394 47.2802 41.3383C46.8808 39.2364 47.6796 37.2345 49.3771 36.0334C51.1745 34.8323 53.5709 34.8323 55.6679 36.1335C59.9616 38.7359 62.0585 38.2354 63.8558 37.8351C64.3551 37.735 64.8544 37.6349 65.3536 37.5348C66.452 37.4347 67.4506 38.0352 67.85 39.0362C68.2494 40.0371 67.9498 41.1381 67.151 41.8388C65.5533 43.14 61.9586 43.9407 58.3639 44.6414C57.5651 44.8415 56.8661 44.9417 56.5665 45.0417C55.2685 45.342 54.2699 45.4421 53.3712 45.4421M52.2729 37.1344C51.5739 37.1344 50.9748 37.3346 50.4755 37.735C49.477 38.4356 48.9777 39.6367 49.2773 41.038C49.3771 41.7387 49.8764 42.4393 50.6752 42.8397C51.5739 43.4403 53.1715 43.9407 55.9674 43.14C56.3668 43.0399 57.0658 42.9398 57.9645 42.7396C60.2611 42.2391 64.5548 41.4384 65.9528 40.3374C66.1525 40.1372 66.1525 39.937 66.0526 39.8369C66.0526 39.7368 65.8529 39.5366 65.6532 39.5366C65.2538 39.5366 64.8544 39.6367 64.455 39.7368C62.4579 40.2373 59.8617 40.8378 54.7692 37.8351C53.8705 37.4347 53.0717 37.1344 52.2729 37.1344"/>
	<path fill="#2D1B0A" d="M68.6488 63.1585L66.6517 63.0584C67.1511 54.4504 67.5505 45.4421 65.3537 36.8341C63.6562 30.1279 59.4623 20.8193 49.0776 14.1131L50.1759 12.4115C61.06 19.418 65.4535 29.3272 67.2509 36.3337C69.5475 45.2419 69.1481 54.3503 68.6488 63.1585"/>
	<path fill="#58AA38" d="M40.9075 11.1103C36.4141 11.0102 34.8165 6.60615 37.3128 3.90365C38.6109 2.50235 42.0059 1.8017 45.5008 5.70532C46.5992 6.90643 51.6917 11.3105 52.5904 13.8128C53.0897 15.114 51.492 16.215 50.3937 15.4143C48.6962 14.013 47.7975 11.3105 40.9075 11.1103"/>
	<path fill="#2D1B0A" d="M51.2743 16.6154C50.775 16.6154 50.2757 16.4152 49.7764 16.115C49.377 15.8147 48.9775 15.4143 48.678 15.0139C47.3798 13.7127 45.9818 12.2113 40.889 12.0112C38.3926 11.9111 36.3954 10.7099 35.4967 8.70809C34.6978 6.80633 35.0935 4.70439 36.5951 3.203C37.4938 2.30216 38.792 1.8017 40.19 1.8017C41.6879 1.8017 43.8847 2.40226 46.2814 5.00467C46.4811 5.30494 46.9804 5.70531 47.5795 6.30587C50.2757 8.80819 52.872 11.5107 53.571 13.4125C53.9704 14.4134 53.571 15.5144 52.6723 16.215C52.2728 16.5153 51.7736 16.6154 51.2743 16.6154M40.19 3.80355C39.3911 3.80355 38.5923 4.10383 38.093 4.60429C37.1943 5.60522 36.8947 6.90643 37.394 8.00745C37.8933 9.30865 39.2913 10.1094 40.9889 10.1094C46.8805 10.3096 48.7778 12.2113 50.1758 13.7127C50.4754 14.013 50.775 14.3133 51.0745 14.6136C51.2743 14.8137 51.474 14.7137 51.5738 14.6136C51.6737 14.5135 51.7736 14.4134 51.6737 14.1131C51.0745 12.5116 47.9789 9.40874 46.2814 7.80726C45.6822 7.2067 45.1829 6.70624 44.8833 6.40596C42.8862 4.20392 41.1886 3.80355 40.19 3.80355"/>
	<path fill="#58AA38" d="M13.5297 39.2363C12.6311 36.0333 9.3359 35.733 7.8381 37.9351C7.03927 39.1362 7.23898 41.6385 10.5341 43.4402C11.6325 44.0407 15.6267 46.8433 17.424 47.0489C18.4225 47.1436 18.9218 45.8424 18.123 45.2418C16.9248 44.2409 14.8278 44.0407 13.5297 39.2363"/>
	<path fill="#2D1B0A" d="M17.5226 48.0323C17.4226 48.0323 17.4226 48.0323 17.3227 48.0323C15.8239 47.9322 13.5257 46.5309 11.1276 45.0296C10.628 44.7293 10.2283 44.429 10.0285 44.3289C7.63034 43.0277 6.83098 41.5263 6.53121 40.4253C6.23145 39.3243 6.39037 38.2233 6.9309 37.4225C7.83019 36.0212 9.329 35.3206 10.9277 35.4871C12.6264 35.821 13.9254 37.0222 14.425 38.9239C15.4242 42.3271 16.6233 43.1278 17.7224 43.7284C18.0222 43.9286 18.4218 44.1287 18.7216 44.3289C19.4211 44.9295 19.7208 45.8303 19.3211 46.7311C19.0214 47.5319 18.3219 48.0323 17.5226 48.0323M10.3282 37.5226C9.62877 37.5226 9.02924 37.923 8.62955 38.5235C8.42971 38.9239 8.32979 39.4244 8.42971 39.9248C8.62955 40.6255 9.22908 41.6264 10.9277 42.6273C11.2275 42.7274 11.6272 43.0277 12.2267 43.4281C13.5257 44.2288 16.3235 46.0305 17.5226 46.1306C17.3227 45.9304 17.1229 45.7302 16.8231 45.6301C15.5241 44.8294 13.7255 43.8285 12.5265 39.6246C12.2267 38.5235 11.5273 37.8229 10.628 37.6227C10.528 37.5226 10.4281 37.5226 10.3282 37.5226"/>
	<path fill="#58AA38" d="M12.3315 54.05C10.8337 51.1473 7.53854 51.4476 6.54001 53.9499C6.04074 55.2511 6.63986 57.6533 10.2346 58.7543C11.4328 59.1547 15.8264 61.1566 17.7236 60.8563C18.7221 60.7562 19.0217 59.3549 18.123 58.8544C16.6252 58.2539 14.5283 58.5542 12.3315 54.05"/>
	<path fill="#2D1B0A" d="M17.424 61.9574C15.9262 61.9574 13.6296 61.1566 11.2331 60.2557C10.7339 60.0555 10.2346 59.8554 10.0349 59.7553C7.43869 58.9545 6.3403 57.6533 5.84103 56.6524C5.43689 55.6515 5.43689 54.5505 5.64133 53.6496C6.24045 52.1482 7.63839 51.1473 9.13619 51.0404C10.8337 51.0404 12.3315 51.948 13.2302 53.6496C14.8278 56.8526 16.2258 57.3531 17.424 57.7534C17.8234 57.8535 18.123 57.9536 18.5224 58.1538C19.3212 58.5542 19.7207 59.455 19.6208 60.3558C19.4211 61.2567 18.7221 61.8573 17.8234 61.9574C17.6237 61.9574 17.5239 61.9574 17.424 61.9574M9.23605 52.949C8.33737 52.949 7.63839 53.4494 7.33883 54.3503C7.13913 54.7506 7.23898 55.2511 7.43869 55.7516C7.73825 56.3521 8.53707 57.253 10.4343 57.8535C10.7339 57.9536 11.2331 58.1538 11.8322 58.354C13.33 58.9545 16.3256 60.0555 17.5239 59.9555C17.3242 59.7553 17.0246 59.6552 16.7251 59.5551C15.3271 59.0546 13.33 58.4541 11.333 54.4504C10.9335 53.5495 10.1347 52.949 9.23605 52.949"/>
	<path fill="#58AA38" d="M28.8073 36.4337C31.2038 34.2317 34.1994 35.633 34.2992 38.3355C34.2992 39.7368 32.9013 41.8388 29.1069 41.6386C27.9086 41.5385 23.0158 41.9388 21.3183 41.038C20.4196 40.5375 20.6193 39.2363 21.6179 39.0362C23.3154 38.836 25.1127 39.8369 28.8073 36.4337"/>
	<path fill="#2D1B0A" d="M29.6918 42.6322C29.4921 42.6322 29.2924 42.6322 29.0927 42.6322C28.7931 42.6322 28.3937 42.6322 27.7946 42.6322C24.9987 42.6322 22.3027 42.6322 21.0046 41.9316C20.2057 41.5312 19.7065 40.6304 19.8621 39.7295C20.1059 38.8287 20.8049 38.128 21.7035 38.028C22.103 37.9279 22.5024 38.028 22.9018 38.028C24.1999 38.028 25.6977 38.128 28.2939 35.6257C29.6918 34.2517 31.4891 33.9242 33.0868 34.5247C34.5846 35.1253 35.4833 36.5266 35.4833 38.2281C35.4833 39.2291 35.0838 40.23 34.285 41.0307C33.3863 41.8315 31.9884 42.6322 29.6918 42.6322M28.6933 40.5303C28.893 40.5303 29.0927 40.5303 29.1925 40.5303C31.1896 40.6304 32.1881 40.0298 32.6874 39.5293C33.0868 39.129 33.2865 38.6285 33.2865 38.2281C33.2865 37.3273 32.7872 36.6267 32.0882 36.3264C31.2894 35.926 30.2909 36.2263 29.4921 37.027C26.2968 40.0298 24.1999 39.9297 22.7021 39.9297C22.4025 39.9297 22.103 39.9297 21.8034 39.9297C22.8019 40.5303 26.0971 40.4302 27.6947 40.4302C28.0942 40.6304 28.3937 40.5303 28.6933 40.5303"/>
	<path fill="#58AA38" d="M25.8117 50.5467C28.2082 48.3447 31.2038 49.746 31.3036 52.4485C31.3036 53.8498 29.9057 55.9518 26.1113 55.7516C24.913 55.6515 20.0202 56.0518 18.3227 55.151C17.424 54.6505 17.6237 53.3493 18.6223 53.1492C20.3198 53.0491 22.1171 53.9499 25.8117 50.5467"/>
	<path fill="#2D1B0A" d="M26.6962 56.7452C26.4965 56.7452 26.2968 56.7452 26.0971 56.7452C25.7975 56.7452 25.3981 56.7452 24.799 56.7452C22.0031 56.7452 19.3071 56.7452 18.009 56.0446C17.2101 55.6442 16.7109 54.7434 16.8665 53.8425C17.1103 52.9417 17.8093 52.241 18.7079 52.141C19.1073 52.0409 19.5068 52.141 19.9062 52.141C21.2043 52.141 22.7021 52.241 25.2983 49.7387C26.6962 48.3647 28.4935 48.0372 30.0912 48.6377C31.589 49.2383 32.4877 50.6396 32.4877 52.3411C32.4877 53.3421 32.0882 54.343 31.2894 55.1437C30.3907 55.9445 28.9928 56.7452 26.6962 56.7452M25.6977 54.7434C25.8974 54.7434 26.0971 54.7434 26.1969 54.7434C28.194 54.8435 29.1925 54.2429 29.6918 53.7424C30.0912 53.3421 30.2909 52.8416 30.2909 52.4412C30.2909 51.5404 29.7916 50.8397 29.0926 50.5395C28.2938 50.1391 27.2953 50.4394 26.4965 51.2401C23.3012 54.2429 21.2043 54.1428 19.7065 54.1428C19.4069 54.1428 19.1073 54.1428 18.8078 54.1428C19.8063 54.7434 23.1015 54.6433 24.6991 54.6433C25.0985 54.7434 25.3981 54.7434 25.6977 54.7434"/>
	<path fill="#2D1B0A" d="M19.9204 71.2658C18.2229 65.0601 16.5254 58.6542 16.7903 51.948C17.0247 46.643 18.7222 38.9359 25.4123 32.2297L26.8102 33.631C20.5195 39.9368 19.0217 47.1435 18.822 52.0481C18.5224 58.454 20.22 64.6597 21.8176 70.7654L19.9204 71.2658"/>
	<path fill="#58AA38" d="M32.0027 30.0278C35.1979 29.227 35.5974 25.924 33.4006 24.3225C32.2024 23.5217 29.706 23.5217 27.8088 26.8248C27.2097 27.8257 24.2141 31.7293 24.0085 33.6311C24.0085 34.6321 25.1128 35.2326 25.8118 34.4319C26.9101 33.2307 27.2097 31.1288 32.0027 30.0278"/>
	<path fill="#2D1B0A" d="M25.1128 35.8332C24.8132 35.8332 24.5137 35.7331 24.3139 35.633C23.5151 35.2326 23.1031 34.4319 23.1031 33.531C23.3154 32.0296 24.7134 29.8276 26.311 27.4254C26.6106 26.9249 26.9101 26.5245 27.01 26.3243C28.4079 24.0222 29.9057 23.2215 31.0041 22.8275C32.1025 22.721 33.2009 22.8275 33.9997 23.4216C35.3977 24.3225 35.9967 25.924 35.6973 27.4254C35.3977 29.1269 34.0995 30.328 32.2024 30.8285C28.7075 31.6292 28.0085 32.9305 27.3096 34.0315C27.1098 34.3318 26.9101 34.7321 26.6106 35.0324C26.311 35.5329 25.7119 35.8332 25.1128 35.8332M32.0027 24.923C31.8029 24.923 31.7031 24.923 31.5034 25.0231C30.8044 25.2233 29.8059 25.7238 28.8074 27.4254C28.6076 27.7256 28.4079 28.126 28.0085 28.6265C27.1098 29.9277 25.3125 32.6302 25.1128 33.8313C25.3125 33.6311 25.5122 33.4309 25.7119 33.1306C26.5107 31.8294 27.6091 30.1278 31.8029 29.0268C32.9013 28.7266 33.6003 28.126 33.8 27.2252C33.8998 26.4244 33.6003 25.7238 32.9013 25.2233C32.7016 25.0231 32.3022 24.923 32.0027 24.923"/>
	<path fill="#58AA38" d="M36.2964 40.8378C35.3977 37.6348 32.1026 37.3345 30.6047 39.5366C29.8059 40.7377 30.0056 43.24 33.3008 45.0417C34.3992 45.6422 38.3933 48.4448 40.1907 48.6504C41.1892 48.7451 41.6885 47.4439 40.8897 46.8433C39.6914 45.8424 37.6943 45.6422 36.2964 40.8378"/>
	<path fill="#2D1B0A" d="M40.2892 49.6338C40.1892 49.6338 40.1892 49.6338 40.0893 49.6338C38.5905 49.5337 36.2923 48.1324 33.8942 46.6311C33.3946 46.3308 32.9949 46.0305 32.7951 45.9304C30.397 44.6292 29.5976 43.1278 29.2979 42.0268C28.9981 40.9258 29.157 39.8248 29.6975 39.024C30.5968 37.6227 32.0956 36.9221 33.6944 37.0886C35.3931 37.4225 36.692 38.6236 37.1916 40.5254C38.1908 43.9286 39.3899 44.7293 40.489 45.3299C40.7888 45.53 41.1884 45.7302 41.4882 45.9304C42.1877 46.531 42.4874 47.4318 42.0877 48.3326C41.8879 49.1334 41.1884 49.6338 40.2892 49.6338M33.1948 39.1241C32.4953 39.1241 31.8958 39.5245 31.4961 40.125C31.2963 40.5254 31.1964 41.0259 31.2963 41.5263C31.4961 42.227 32.0956 43.2279 33.7943 44.2288C34.0941 44.3289 34.4938 44.6292 35.0933 45.0296C36.3923 45.8303 39.19 47.632 40.3891 47.7321C40.1892 47.5319 39.9894 47.3317 39.6896 47.2316C38.3907 46.4309 36.5921 45.43 35.3931 41.2261C35.0933 40.125 34.3938 39.4244 33.4946 39.2242C33.3946 39.1241 33.2947 39.1241 33.1948 39.1241"/>
	<path fill="#58AA38" d="M35.0981 55.6515C33.6003 52.7488 30.3052 53.0491 29.3067 55.5514C28.8074 56.8526 29.4065 59.2548 33.0012 60.3558C34.1995 60.7562 38.593 62.7581 40.4902 62.4578C41.4888 62.3577 41.7883 60.9564 40.8896 60.4559C39.4916 59.9555 37.3948 60.1557 35.0981 55.6515"/>
	<path fill="#2D1B0A" d="M40.1906 63.5588C38.6928 63.5588 36.3962 62.758 33.9998 61.8572C33.5005 61.6571 33.0012 61.4569 32.8015 61.3568C30.2053 60.556 29.1069 59.2548 28.6077 58.2539C28.2035 57.253 28.2035 56.152 28.408 55.2511C29.0071 53.7497 30.405 52.7488 31.9028 52.6418C33.6003 52.6418 35.0981 53.5495 35.9968 55.2511C37.5945 58.4541 38.9924 58.9545 40.1906 59.3549C40.59 59.455 40.8896 59.5551 41.289 59.7553C42.0878 60.1557 42.4873 61.0565 42.3874 61.9573C42.1877 62.8582 41.4887 63.4587 40.59 63.5588C40.4902 63.5588 40.3903 63.5588 40.1906 63.5588M32.1026 54.6506C31.2039 54.6506 30.5049 55.151 30.2053 56.0519C30.0056 56.4522 30.1055 56.9527 30.3052 57.4532C30.6047 58.0537 31.4036 58.9545 33.3008 59.5551C33.6003 59.6552 34.0996 59.8554 34.6987 60.0556C36.1965 60.6561 39.1921 61.7571 40.3903 61.6571C40.1906 61.4569 39.8911 61.3568 39.5915 61.2567C38.1936 60.7562 36.1965 60.1557 34.1995 56.152C33.8001 55.151 33.0012 54.6506 32.1026 54.6506"/>
	<path fill="#58AA38" d="M51.6738 38.0352C54.0703 35.8332 57.0659 37.2345 57.1657 39.937C57.1657 41.3383 55.7678 43.4403 51.9734 43.2401C50.7751 43.14 45.8823 43.5403 44.1848 42.6395C43.2861 42.139 43.4858 40.8378 44.4844 40.6377C46.1819 40.5376 47.9792 41.4384 51.6738 38.0352"/>
	<path fill="#2D1B0A" d="M52.4585 44.2337C52.2588 44.2337 52.059 44.2337 51.8593 44.2337C51.5598 44.2337 51.1604 44.2337 50.5612 44.2337C47.7654 44.2337 45.0693 44.2337 43.7712 43.5331C42.9724 43.1327 42.4731 42.2319 42.6288 41.331C42.8725 40.4302 43.5715 39.7295 44.4702 39.6295C44.8696 39.5294 45.269 39.6295 45.6684 39.6295C46.9665 39.6295 48.4643 39.7295 51.0605 37.2272C52.4585 35.8532 54.2558 35.5257 55.8535 36.1262C57.3513 36.7268 58.25 38.1281 58.25 39.8296C58.25 40.8306 57.8505 41.8315 57.0517 42.6322C56.2529 43.433 54.8549 44.2337 52.4585 44.2337M51.4599 42.2319C51.6596 42.2319 51.8593 42.2319 51.9592 42.2319C53.9563 42.332 54.9548 41.7314 55.4541 41.2309C55.8535 40.8306 56.0532 40.3301 56.0532 39.9297C56.0532 39.0289 55.5539 38.3282 54.8549 38.028C54.0561 37.6276 53.0576 37.9279 52.2588 38.7286C49.0634 41.7314 46.9665 41.6313 45.4687 41.6313C45.1692 41.6313 44.8696 41.6313 44.57 41.6313C45.5686 42.2319 48.8637 42.1318 50.4614 42.1318C50.9607 42.2319 51.2602 42.2319 51.4599 42.2319"/>
	<path fill="#58AA38" d="M48.6782 52.1482C51.0747 49.9462 54.0703 51.3475 54.1701 54.05C54.1701 55.4513 52.7722 57.5533 48.9778 57.3531C47.7795 57.253 42.8867 57.6533 41.1892 56.7525C40.2905 56.252 40.4902 54.9508 41.4888 54.7507C43.1863 54.6506 44.9836 55.6515 48.6782 52.1482"/>
	<path fill="#2D1B0A" d="M49.4629 58.3467C49.2631 58.3467 49.0634 58.3467 48.8637 58.3467C48.5642 58.3467 48.1648 58.3467 47.5656 58.3467C44.7697 58.3467 42.0737 58.3467 40.7756 57.6461C39.9768 57.2457 39.4775 56.3449 39.6332 55.444C39.8769 54.5432 40.5759 53.8425 41.4746 53.7425C41.874 53.6424 42.2734 53.7425 42.6728 53.7425C43.9709 53.7425 45.4687 53.8425 48.0649 51.3402C49.4629 49.9662 51.2602 49.6387 52.8579 50.2392C54.3557 50.8398 55.2544 52.2411 55.2544 53.9426C55.2544 54.9436 54.8549 55.9445 54.0561 56.7452C53.1574 57.546 51.8593 58.3467 49.4629 58.3467M48.4643 56.3449C48.664 56.3449 48.8637 56.3449 48.9636 56.3449C50.9607 56.445 51.9592 55.8444 52.4585 55.3439C52.8579 54.9436 53.0576 54.4431 53.0576 54.0427C53.0576 53.1419 52.5583 52.4412 51.8593 52.141C51.0605 51.7406 50.062 52.0409 49.2631 52.8416C46.0678 55.8444 43.9709 55.7443 42.4731 55.7443C42.1736 55.7443 41.874 55.7443 41.5744 55.7443C42.573 56.3449 45.8681 56.2448 47.4658 56.2448C47.965 56.3449 48.2646 56.3449 48.4643 56.3449"/>
	<path fill="#2D1B0A" d="M42.7868 72.8673C41.0893 66.6616 39.3918 60.2557 39.6568 53.5495C39.8911 48.2445 41.5886 40.5374 48.2788 33.8312L49.6767 35.2325C43.386 41.5383 41.8882 48.745 41.6885 53.6496C41.3889 60.0555 43.0864 66.2612 44.6841 72.3669L42.7868 72.8673"/>
	<path fill="#58AA38" d="M54.8691 31.6293C58.0644 30.8285 58.4639 27.5255 56.2671 25.924C55.0688 25.1232 52.5725 25.1232 50.6753 28.4263C50.0761 29.4272 47.0805 33.3308 46.875 35.2326C46.875 36.2336 47.9792 36.8341 48.6782 36.0334C49.7766 34.8322 49.9763 32.8304 54.8691 31.6293"/>
	<path fill="#2D1B0A" d="M47.9792 37.4347C47.6797 37.4347 47.3801 37.3346 47.1804 37.2345C46.3816 36.8341 45.9695 36.0334 45.9695 35.1325C46.1819 33.6311 47.5798 31.4291 49.1775 29.0268C49.477 28.5264 49.7766 28.126 49.8764 27.9258C51.2744 25.6237 52.7722 24.823 53.8706 24.429C54.969 24.3225 56.0673 24.429 56.8662 25.0231C58.2641 25.924 58.8632 27.5255 58.5637 29.0268C58.2641 30.7284 56.966 31.9295 55.0688 32.43C51.5739 33.2307 50.875 34.532 50.176 35.633C49.9763 35.9333 49.7766 36.3336 49.477 36.6339C49.0776 37.2345 48.5783 37.4347 47.9792 37.4347M54.7692 26.5245C54.5695 26.5245 54.4697 26.5245 54.27 26.6246C53.571 26.8248 52.5725 27.3253 51.5739 29.0268C51.3742 29.3271 51.1745 29.7275 50.7751 30.228C49.8764 31.5292 48.0791 34.2317 47.8794 35.4328C48.0791 35.2326 48.2788 35.0324 48.4785 34.7321C49.2773 33.4309 50.3757 31.7294 54.5695 30.6283C55.6679 30.328 56.3669 29.7275 56.5666 28.8267C56.6665 28.0259 56.3669 27.3253 55.6679 26.8248C55.4682 26.6246 55.1687 26.5245 54.7692 26.5245"/>
	<path fill="white" d="M9.95084 61.3568C9.95084 61.3568 0.16522 66.5617 3.36052 85.7794C6.55583 104.997 19.7365 103.696 19.7365 103.696L39.5074 104.197L60.9759 104.497C60.9759 104.497 76.4532 99.5923 77.0822 82.4764C77.6514 65.3606 69.064 62.2577 69.064 62.2577L9.95084 61.3568"/>
	<path fill="#2D1B0A" d="M61.1802 105.398L39.5046 105.097L19.7268 104.597C18.5282 104.697 5.54277 104.997 2.34637 85.8795C-0.85004 66.1613 9.03884 60.6562 9.4384 60.456L69.1712 61.1566C69.7706 61.3568 78.6606 64.8601 78.0902 82.4764C77.4619 100.093 61.4799 105.398 61.2801 105.498M19.7268 102.695L39.6045 103.196L60.9805 103.496C62.5787 102.895 75.6639 97.8907 76.1634 82.3763C76.6628 67.3624 69.9703 63.659 68.9715 63.1585L10.3374 62.3577C8.93896 63.2586 1.7113 68.7637 4.44401 85.5793C7.34075 103.696 19.5271 102.695 19.7268 102.695"/>
	<path fill="#FFEF5F" d="M65.6532 17.1158C65.6532 18.6636 64.4014 19.9184 62.8573 19.9184C61.3132 19.9184 60.0614 18.6636 60.0614 17.1158C60.0614 15.568 61.3132 14.3132 62.8573 14.3132C64.4014 14.3132 65.6532 15.568 65.6532 17.1158"/>
	<path fill="#2D1B0A" d="M62.8573 20.9193C60.7604 20.9193 59.0629 19.2178 59.0629 17.1158C59.0629 15.0139 60.7604 13.3123 62.8573 13.3123C64.9542 13.3123 66.6517 15.0139 66.6517 17.1158C66.6517 19.2178 64.9542 20.9193 62.8573 20.9193M62.8573 15.3141C61.8588 15.3141 61.0599 16.1149 61.0599 17.1158C61.0599 18.1167 61.8588 18.9175 62.8573 18.9175C63.8558 18.9175 64.6547 18.1167 64.6547 17.1158C64.6547 16.1149 63.8558 15.3141 62.8573 15.3141"/>
	<path fill="#FFEF5F" d="M62.6576 34.3318C62.6576 35.8796 61.4058 37.1344 59.8617 37.1344C58.3176 37.1344 57.0658 35.8796 57.0658 34.3318C57.0658 32.784 58.3176 31.5292 59.8617 31.5292C61.4058 31.5292 62.6576 32.784 62.6576 34.3318"/>
	<path fill="#2D1B0A" d="M59.8617 38.1353C57.7648 38.1353 56.0673 36.4338 56.0673 34.3318C56.0673 32.2299 57.7648 30.5283 59.8617 30.5283C61.9586 30.5283 63.6561 32.2299 63.6561 34.3318C63.6561 36.4338 61.9586 38.1353 59.8617 38.1353M59.8617 32.5301C58.8632 32.5301 58.0643 33.3309 58.0643 34.3318C58.0643 35.3327 58.8632 36.1335 59.8617 36.1335C60.8602 36.1335 61.6591 35.3327 61.6591 34.3318C61.6591 33.3309 60.8602 32.5301 59.8617 32.5301"/>
	<path fill="#FFEF5F" d="M43.1862 41.3383C43.1862 42.8861 41.9344 44.1409 40.3903 44.1409C38.8462 44.1409 37.5944 42.8861 37.5944 41.3383C37.5944 39.7905 38.8462 38.5357 40.3903 38.5357C41.9344 38.5357 43.1862 39.7905 43.1862 41.3383"/>
	<path fill="#2D1B0A" d="M40.3903 45.1418C38.2934 45.1418 36.5959 43.4402 36.5959 41.3383C36.5959 39.2364 38.2934 37.5348 40.3903 37.5348C42.4872 37.5348 44.1847 39.2364 44.1847 41.3383C44.1847 43.4402 42.4872 45.1418 40.3903 45.1418M40.3903 39.5366C39.3918 39.5366 38.5929 40.3374 38.5929 41.3383C38.5929 42.3392 39.3918 43.14 40.3903 43.14C41.3888 43.14 42.1877 42.3392 42.1877 41.3383C42.1877 40.3374 41.3888 39.5366 40.3903 39.5366"/>
	<path fill="#FFEF5F" d="M24.0143 49.7461C24.0143 51.2939 22.7625 52.5487 21.2184 52.5487C19.6743 52.5487 18.4225 51.2939 18.4225 49.7461C18.4225 48.1983 19.6743 46.9435 21.2184 46.9435C22.7625 46.9435 24.0143 48.1983 24.0143 49.7461"/>
	<path fill="#2D1B0A" d="M21.2184 53.5496C19.1215 53.5496 17.424 51.8481 17.424 49.7461C17.424 47.6442 19.1215 45.9426 21.2184 45.9426C23.3153 45.9426 25.0128 47.6442 25.0128 49.7461C25.0128 51.8481 23.3153 53.5496 21.2184 53.5496M21.2184 47.9444C20.2199 47.9444 19.421 48.7452 19.421 49.7461C19.421 50.747 20.2199 51.5478 21.2184 51.5478C22.2169 51.5478 23.0158 50.747 23.0158 49.7461C23.0158 48.7452 22.2169 47.9444 21.2184 47.9444"/>
</svg>
