<?xml version="1.0" encoding="utf-8" ?>
<svg xmlns="http://www.w3.org/2000/svg" xmlns:xlink="http://www.w3.org/1999/xlink" width="80" height="104">
	<path fill="white" d="M80 28.5177C79.865 27.6203 79.4665 26.7229 78.7691 26.1246C78.2709 25.7258 77.6732 25.4267 77.0754 25.3269C81.0605 21.837 80.1638 18.2474 79.0679 16.2531C77.8724 13.9597 75.7802 12.6635 73.3892 12.6635C72.8911 12.6635 72.3929 12.7632 71.8948 12.7632C71.3967 12.2646 70.5996 11.6663 69.3045 11.5666C69.2049 11.5666 69.0056 11.5666 68.906 11.5666C67.1127 11.5666 65.1201 12.3643 63.5261 13.5609C63.3268 13.2617 63.1276 12.9626 62.8287 12.6635C61.9321 11.8658 60.9358 11.4669 59.8399 11.4669C57.947 11.4669 56.5522 12.8629 55.8548 13.5609C55.7552 13.6606 55.5559 13.86 55.4563 13.9597C55.3567 14.0594 55.257 14.1592 55.257 14.2589C54.6593 13.9597 54.0615 13.7603 53.3641 13.7603C52.9656 13.7603 52.5671 13.86 52.1686 13.9597C49.2794 14.7574 47.3865 18.4468 46.7887 19.5436C46.4899 20.1419 46.3902 20.7402 46.2906 21.3384C46.191 21.3384 46.0913 21.3384 45.9917 21.3384C45.8921 21.3384 45.6928 21.3384 45.5932 21.3384C44.4973 21.4382 43.7999 22.0364 43.3018 22.7344C43.0029 22.4353 42.704 22.1361 42.3055 21.9367C42.9033 20.3413 43.1025 18.9453 42.704 17.7488C42.3055 16.7517 41.7077 14.8571 39.7152 14.3586C39.4163 14.2589 39.2171 14.2589 38.9182 14.2589C38.8186 14.2589 38.6193 14.2589 38.5197 14.2589C38.6193 13.3615 38.5197 12.5638 38.3204 11.7661C37.9219 10.4698 36.2282 6.18217 33.2394 4.98562C32.6417 4.78619 32.1435 4.68648 31.5458 4.68648C30.948 4.68648 30.3502 4.78619 29.7525 5.08533C29.7525 5.08533 29.6529 5.08533 29.6529 5.08533C29.5532 4.88591 29.354 4.68648 29.2543 4.48706C29.1547 4.28763 28.9555 4.08821 28.8558 3.98849C28.1584 2.99137 26.7637 1.19655 24.4722 1.19655C23.5756 1.19655 22.5793 1.49569 21.7823 2.09396C21.2842 2.3931 20.8857 2.89166 20.5868 3.39022C18.5942 1.29626 16.0039 0 14.2106 0C14.111 0 14.0114 0 13.9118 0C12.8159 0 11.8196 0.398849 11.1222 1.09684C10.3252 0.797699 9.42853 0.598274 8.43226 0.598274C6.83822 0.598274 4.5468 1.19655 2.75351 3.78907C0.960219 6.28188 0 10.1707 4.44717 14.558C4.34754 14.558 4.14829 14.558 4.04866 14.558C3.05239 14.558 2.25537 14.7574 1.55798 15.1563C0.760965 15.6548 0.163201 16.4525 0 17.4497C-0.534189 20.9396 3.15202 26.4238 8.233 27.6203C7.63524 28.1189 7.13711 28.7172 6.93785 29.4151C6.34009 31.1103 6.43972 32.8054 7.33636 34.3011C8.63151 36.395 11.3214 37.791 14.7088 38.0901C14.908 38.0901 15.1073 38.0901 15.2069 38.0901C15.4062 38.0901 15.705 38.0901 15.9043 38.0901C15.705 39.187 15.9043 40.1841 16.5021 41.0815C17.0998 41.9789 18.1957 42.976 20.4872 42.976C21.2842 42.976 22.0812 42.8763 23.0775 42.5772C23.1771 42.5772 23.2767 42.4775 23.3763 42.4775C24.6715 45.07 28.6566 45.1697 29.354 45.1697C29.4536 45.1697 29.5532 45.1697 29.6529 45.1697C31.745 45.07 34.7338 42.7766 35.9294 41.6798C36.029 41.6798 36.029 41.6798 36.1286 41.6798C36.6268 42.7766 37.1249 43.7737 37.5234 44.8706C34.2357 49.7565 31.6454 54.6424 29.6529 59.7277L17.6976 59.7277C15.1073 59.7277 13.0151 61.8217 13.0151 64.4142L13.0151 65.9099C13.0151 68.2033 14.7088 70.0978 16.8009 70.5964L19.4909 95.2253C19.989 100.211 24.1734 104 29.2543 104L54.8585 104C59.8399 104 64.0242 100.211 64.622 95.2253L67.3119 70.4966C69.4041 69.9981 70.9981 68.1035 70.9981 65.9099L70.9981 64.4142C70.9981 61.8217 68.906 59.7277 66.3157 59.7277L48.1835 59.7277C47.4861 55.2407 46.3902 50.953 44.4973 45.768C44.7962 45.8677 45.0951 45.8677 45.394 45.8677C45.4936 45.8677 45.5932 45.8677 45.6928 45.8677C45.7925 45.8677 45.8921 45.8677 45.9917 45.8677C46.8884 47.0642 49.2794 49.3576 51.272 49.7565C51.5708 49.8562 52.1686 49.8562 52.6667 49.8562C54.7589 49.8562 56.3529 49.2579 57.2496 48.1611C58.3455 48.5599 59.3418 48.8591 60.2384 48.8591C61.9321 48.8591 62.9283 48.0614 63.4265 47.4631C64.0242 46.7651 64.3231 46.0671 64.3231 45.1697C64.5224 45.1697 64.8213 45.2694 65.0205 45.2694C65.1201 45.2694 65.3194 45.2694 65.419 45.2694C68.3082 45.2694 70.6993 44.2723 71.9944 42.6769C72.9907 41.3806 73.3892 39.7852 72.9907 38.0901C72.8911 37.5916 72.6918 37.1927 72.3929 36.7939C76.1788 35.9962 80 31.908 80 28.5177M35.9294 59.8274C37.0253 57.2349 38.3204 54.7421 39.8148 52.1496C40.6118 54.8418 41.2096 57.2349 41.6081 59.8274L35.9294 59.8274"/>
	<path fill="#2D1B0A" d="M45.3167 69.4995C44.5202 61.0238 43.5247 54.7421 40.2391 45.9674C37.1525 37.3921 32.0748 29.5148 26.3997 24.23L27.7936 22.7344C33.6679 28.2185 38.8451 36.395 42.1307 45.2693C45.4164 54.2435 46.5116 60.7247 47.3081 69.3L45.3167 69.4995"/>
	<path fill="#2D1B0A" d="M31.776 66.6078L29.8843 66.0097C33.6677 53.1468 40.9358 41.7794 52.7838 30.1131L54.1777 31.5091C42.5288 43.0757 35.4598 54.1439 31.776 66.6078"/>
	<path fill="white" d="M54.9743 101.108L29.3865 101.108C25.9018 101.108 23.0145 98.5158 22.6162 95.0259L19.2311 63.6165L43.0267 63.6165L65.1297 63.6165L61.7446 95.0259C61.3463 98.5158 58.3594 101.108 54.9743 101.108"/>
	<path fill="#2D1B0A" d="M54.9743 102.105L29.3865 102.105C25.404 102.105 22.1184 99.1141 21.6206 95.1256L18.1359 62.6194L66.2249 62.6194L62.7402 95.1256C62.2424 99.1141 58.9568 102.105 54.9743 102.105M20.3263 64.6136L23.6119 94.9262C23.9106 97.9176 26.3996 100.111 29.3865 100.111L54.9743 100.111C57.9612 100.111 60.4502 97.9176 60.7489 94.9262L64.0345 64.6136L20.3263 64.6136"/>
	<path fill="white" d="M66.2259 67.8045L17.8382 67.8045C16.8425 67.8045 16.1456 67.0068 16.1456 66.1094L16.1456 64.6137C16.1456 63.6165 16.9421 62.9185 17.8382 62.9185L66.2259 62.9185C67.2215 62.9185 67.9269 63.7162 67.9269 64.6137L67.9269 66.1094C68.018 67.0068 67.2215 67.8045 66.2259 67.8045"/>
	<path fill="#2D1B0A" d="M66.2294 68.8016L17.8374 68.8016C16.3438 68.8016 15.1489 67.605 15.1489 66.1094L15.1489 64.6137C15.1489 63.118 16.3438 61.9214 17.8374 61.9214L66.2294 61.9214C67.723 61.9214 68.9232 63.118 68.9232 64.6137L68.9232 66.1094C69.0174 67.5053 67.723 68.8016 66.2294 68.8016M17.8374 63.816C17.4391 63.816 17.1403 64.1151 17.1403 64.5139L17.1403 66.0096C17.1403 66.4085 17.4391 66.7076 17.8374 66.7076L66.2294 66.7076C66.6277 66.7076 66.9264 66.4085 66.9264 66.0096L66.9264 64.5139C66.9264 64.1151 66.6277 63.816 66.2294 63.816L17.8374 63.816"/>
	<path fill="#159047" d="M16.7421 19.8453C14.3526 20.4436 3.50018 16.156 3.17805 17.9508C2.9028 19.7456 5.49145 23.8338 9.07572 24.6315C12.66 25.4292 17.5386 23.9335 19.5299 24.4321C21.5211 24.9307 22.2181 26.0275 22.2181 26.4264C22.2181 26.8252 10.7683 27.922 9.87223 30.4148C8.87659 32.9077 11.6644 34.7025 15.149 35.0016C18.6338 35.3008 23.8111 29.7169 25.7028 29.5174C27.5945 29.4177 28.8887 30.5146 28.3909 31.0131C27.8932 31.412 21.5211 34.8022 20.0276 36.6967C18.4347 38.5913 18.7333 40.5855 22.5168 39.5884C26.3997 38.5913 29.8844 33.7054 31.2784 33.8051C32.6721 33.9048 32.5727 34.7025 31.9753 35.201C31.4775 35.6996 27.4949 38.7907 26.3002 40.1867C25.2049 41.5826 28.4906 42.1809 29.5858 42.0918C30.681 41.9815 33.3691 40.0869 34.0661 39.2893C34.6634 38.4916 34.5639 36.9959 35.3604 36.6967C36.157 36.3976 35.8582 39.1895 37.5508 38.4916C37.9491 38.2921 39.7411 37.1953 39.6417 36.6967C39.542 36.0985 38.1482 35.0016 38.0487 34.2039C37.9491 33.3065 39.542 34.1042 40.4382 32.4091C41.3342 30.8137 42.3298 25.9278 41.2346 24.5318C40.1395 23.1358 36.9534 30.2154 35.5596 31.3123C34.4644 32.0102 33.4687 31.7111 33.7673 30.8137C34.0661 29.9163 40.8363 20.7427 40.0399 18.6488C39.2434 16.4551 39.0443 17.1531 38.0487 18.0505C37.053 18.9479 33.3691 26.5261 31.8756 26.0275C30.4818 25.6287 36.6548 15.5577 35.659 12.666C34.6634 9.77439 32.6721 6.98244 31.2784 7.68043C29.8844 8.37842 30.1832 18.1502 28.1918 19.5462C26.1011 20.8425 27.3954 18.7485 27.2957 16.9537C27.1963 15.2586 28.3909 7.68043 27.1963 6.28446C26.1011 4.88848 25.3046 3.29308 23.6119 4.38992C22.019 5.48676 23.2136 14.1617 22.019 14.3612C20.8242 14.5606 21.4216 9.47525 19.6295 6.48388C17.8372 3.49251 14.0539 2.19625 13.4565 2.99395C12.7596 3.89136 12.8591 3.79165 13.4565 4.58935C14.0539 5.28733 16.6426 7.38129 17.3395 9.17611C18.0364 10.9709 18.9324 11.9681 18.2355 12.0678C17.6381 12.1675 16.3438 10.6718 15.5473 9.37554C14.7508 7.97957 13.2573 4.88848 12.1622 4.48963C11.067 4.09078 7.7814 1.89711 5.39188 5.28733C3.00237 8.67755 5.69057 11.2701 7.58227 12.8655C9.47397 14.4609 11.5648 15.1589 13.7551 16.3554C15.9455 17.7514 17.8372 19.5462 16.7421 19.8453"/>
	<path fill="#2D1B0A" d="M29.5761 43.1755C28.779 43.1755 25.9892 42.976 25.2917 41.4804C25.1921 41.1812 24.8932 40.3835 25.5906 39.5858C25.8895 39.2867 26.2881 38.8878 26.7862 38.3893C25.5906 39.2867 24.1957 40.1841 22.8008 40.4832C20.6088 41.0815 19.1143 40.8821 18.4168 39.7852C17.819 38.7881 18.0183 37.3921 19.2139 35.9962C20.4095 34.6002 23.4983 32.606 26.3877 31.0106C26.587 30.9108 26.7862 30.8111 26.9855 30.7114C26.6866 30.6117 26.2881 30.512 25.7899 30.512C25.2917 30.512 23.8968 31.6088 22.8008 32.3068C20.3099 34.1016 17.5201 36.0959 15.0292 35.8965C12.339 35.697 10.147 34.6002 9.2503 33.1045C8.65249 32.1074 8.55285 31.0106 8.9514 30.0134C9.64885 28.1189 13.2357 27.1218 19.6125 25.9252C19.9114 25.8255 20.2103 25.8255 20.5092 25.7258C20.2103 25.5264 19.8117 25.3269 19.3135 25.2272C18.6161 25.0278 17.2212 25.2272 15.7266 25.4267C13.5347 25.7258 11.0437 26.0249 8.85176 25.4267C4.76668 24.4295 1.7776 19.8428 2.1405 17.5494C2.27578 17.1505 2.47505 16.8514 2.77396 16.652C3.86996 15.954 5.86268 16.4525 10.3463 17.5494C11.9405 17.9482 13.9332 18.4468 15.2285 18.6462C14.7303 18.2474 14.0328 17.7488 13.1361 17.2502C12.5383 16.9511 11.9405 16.652 11.4423 16.3528C9.84812 15.5551 8.25394 14.8571 6.85904 13.5609C5.56377 12.4641 1.47869 9.07383 4.56741 4.58678C7.05831 0.897418 10.6452 2.49282 12.0401 3.1908C12.1398 2.89166 12.339 2.69224 12.6379 2.29339C12.8372 1.99425 13.3354 1.6795 14.3317 1.6795C16.1252 1.79483 19.0146 3.39023 20.5092 5.88304C21.2066 6.97987 21.5055 8.17642 21.8044 9.47268C21.9041 6.28189 22.1034 4.28764 23.1993 3.48994C25.3913 1.99425 26.7862 3.78908 27.5833 4.88591C27.7826 5.08534 27.8822 5.28476 28.0815 5.48419C29.0779 6.68073 28.8786 9.57239 28.5797 13.86C28.4801 15.0566 28.3804 16.2531 28.3804 16.652C28.3804 16.7517 28.3804 16.9511 28.3804 17.0508C28.779 15.6548 28.9782 13.5609 29.1775 12.2646C29.5761 8.77469 29.875 7.07958 30.971 6.48131C31.5688 6.18217 32.1666 6.18217 32.7644 6.48131C34.5579 7.1793 35.9528 9.97124 36.7498 12.0652C37.3477 13.86 36.152 16.9511 34.3586 21.0393C34.0597 21.6376 33.7608 22.3356 33.5615 22.9339C34.2589 21.9367 35.056 20.6405 35.5542 19.8428C36.5506 18.1477 37.0488 17.35 37.5469 16.9511C37.6466 16.8514 37.7462 16.7517 37.8458 16.652C38.2444 16.2531 38.8422 15.7546 39.6393 15.8543C40.4364 16.0537 40.8349 16.9511 41.2335 17.9482C41.7316 19.3442 40.6357 21.837 38.2444 25.6261C39.3404 23.931 40.1375 23.0336 41.0342 23.0336C41.5324 23.0336 41.9309 23.233 42.2298 23.6318C43.7244 25.5264 42.4291 31.0106 41.5324 32.606C40.9346 33.7028 40.1375 34.1016 39.5397 34.2013C39.6393 34.4008 39.8386 34.6002 40.0378 34.7996C40.4364 35.2982 40.8349 35.7967 40.9346 36.2953C41.1338 37.8907 38.2444 39.187 38.2444 39.187C37.5469 39.4861 37.0488 39.3864 36.6502 39.187C36.2517 38.9875 35.9528 38.6884 35.7535 38.3893C35.6539 38.7881 35.4546 39.2867 35.1557 39.6855C34.4582 40.5829 31.5688 42.6769 29.9746 42.7766C29.7753 43.1755 29.6757 43.1755 29.5761 43.1755M27.2844 40.7824C27.7826 41.0815 28.9782 41.2809 29.5761 41.2809C30.2735 41.2809 32.7644 39.5858 33.2626 38.8878C33.3622 38.6884 33.4619 38.2896 33.5615 37.9904C33.7608 37.2924 34.0597 36.2953 34.9564 35.9962C36.152 35.5973 36.6502 36.8936 36.8495 37.2924C36.9491 37.3921 36.9491 37.6913 37.0488 37.791C37.3477 37.6913 38.0451 37.1927 38.344 36.8936C38.2444 36.7939 38.1448 36.6942 38.0451 36.5944C37.5469 35.9962 36.9491 35.2982 36.9491 34.5005C36.8495 33.3039 37.9455 33.0048 38.344 32.9051C38.7426 32.8054 39.1411 32.7057 39.44 32.2071C40.2371 30.8111 40.8349 27.4209 40.536 25.9252C39.9382 26.6232 39.0415 28.1189 38.4437 29.116C37.5469 30.6117 36.7498 31.8083 36.152 32.4065C35.056 33.1045 33.96 33.2042 33.2626 32.7057C32.7644 32.3068 32.5651 31.6088 32.7644 30.9108C32.864 30.512 33.2626 30.0134 34.2589 28.418C35.5542 26.5235 39.3404 20.5408 39.0415 19.3442C38.9418 19.1448 38.9418 19.0451 38.8422 18.9454C38.7426 19.0451 38.6429 19.1448 38.5433 19.1448C38.344 19.3442 37.5469 20.6405 36.9491 21.6376C34.3586 25.9252 32.9637 27.9195 31.4691 27.4209C31.0706 27.3212 30.8713 27.1218 30.6721 26.7229C30.2735 25.8255 30.8713 24.3298 32.2662 21.0393C33.3622 18.5465 35.056 14.6577 34.5579 13.4612C33.7608 11.0681 32.4655 9.37297 31.768 9.07383C31.768 9.07383 31.6684 9.07383 31.6684 9.07383C31.3695 9.67211 31.0706 11.8658 30.8713 13.2618C30.3731 17.2502 29.9746 19.9425 28.4801 20.8399C27.9819 21.139 27.0852 21.7373 26.2881 21.2387C25.5906 20.7402 25.6902 19.8428 25.8895 19.0451C25.9892 18.5465 26.0888 18.0479 26.0888 17.5494C26.0888 16.9511 26.0888 15.8543 26.2881 14.4583C26.3877 12.5638 26.7862 8.27613 26.2881 7.47843C26.0888 7.27901 25.9892 7.07958 25.7899 6.78045C24.6939 5.38447 24.5943 5.48419 24.0961 5.78332C23.5979 6.28189 23.5979 9.17354 23.4983 10.7689C23.3986 13.9597 23.3986 15.6548 22.0037 15.954C21.6052 16.0537 21.3063 15.954 20.9077 15.7546C20.2103 15.256 20.011 14.1592 19.8117 12.5638C19.6125 10.9684 19.3135 9.07383 18.5165 7.67786C17.1216 5.38447 14.531 4.38735 13.8336 4.38735C14.0328 4.68649 14.3317 4.88591 14.6306 5.18505C15.7266 6.18217 17.3208 7.77757 18.0183 9.37297C18.2175 9.97124 18.5165 10.4698 18.7157 10.8686C19.1143 11.7661 19.5128 12.3643 19.1143 13.0623C18.915 13.3615 18.6161 13.6606 18.2175 13.7603C16.5237 14.0595 14.7303 10.8686 14.531 10.5695C14.4314 10.3701 14.2321 10.071 14.0328 9.77182C13.5347 8.87441 12.2394 6.48131 11.6416 6.18217C11.5419 6.08246 11.3427 6.08246 11.0437 5.98275C9.2503 5.18505 7.45686 4.58678 5.96232 6.68073C4.2685 9.07383 5.56377 10.9684 7.95504 12.9626C9.2503 14.0595 10.6452 14.7574 12.1398 15.4554C12.7376 15.7546 13.3354 16.0537 13.9332 16.3528C14.3317 16.5523 18.0183 18.5465 17.819 20.3413C17.7194 20.9396 17.3208 21.3385 16.723 21.4382C15.5274 21.7373 13.2357 21.2387 9.64885 20.3413C7.75576 19.8428 4.96596 19.1448 3.86996 19.1448C4.06923 20.5408 6.06195 23.6318 9.05103 24.3298C10.8445 24.7287 13.2357 24.5292 15.2285 24.2301C17.0219 24.0307 18.5165 23.8313 19.5128 24.1304C21.7048 24.7287 22.9004 26.1246 22.9004 27.1218C22.9004 28.1189 22.4023 28.2186 19.6125 28.7172C13.8336 29.814 10.7448 30.7114 10.4459 31.5091C10.2467 32.0077 10.2467 32.4065 10.5456 32.9051C11.1434 33.9022 12.8372 34.6002 14.8299 34.7996C16.5237 34.999 19.2139 33.0048 21.2066 31.6088C23.0997 30.2129 24.1957 29.5149 25.1921 29.4152C26.9855 29.3154 28.5797 30.1131 28.9782 31.1103C29.1775 31.6088 29.0779 32.2071 28.6793 32.606C28.4801 32.8054 28.0815 33.0048 27.0852 33.6031C25.2917 34.6999 21.4059 36.8936 20.4095 38.1898C19.8117 38.9875 19.7121 39.4861 19.7121 39.5858C19.7121 39.5858 20.1106 39.885 21.9041 39.4861C23.8968 38.9875 25.7899 37.2924 27.3841 35.8965C28.9782 34.5005 29.9746 33.6031 30.971 33.7028C32.2662 33.8025 32.7644 34.4008 32.864 34.7996C33.0633 35.3979 32.864 36.1956 32.2662 36.7939C32.067 36.9933 31.6684 37.3921 30.7717 38.0901C29.9746 38.3893 28.0815 39.885 27.2844 40.7824M36.9491 27.72C36.6502 28.2186 36.3513 28.7172 35.9528 29.2157C35.7535 29.6146 35.4546 29.9137 35.2553 30.3126C35.6539 29.7143 36.2517 28.7172 36.8495 27.9195C36.8495 27.8198 36.9491 27.8198 36.9491 27.72"/>
	<path fill="#58AA38" d="M68.3158 26.4237C70.4066 25.626 72.1987 25.2272 73.9909 24.0307C75.783 22.8341 78.3716 20.9396 76.679 17.6491C74.9865 14.4583 71.8005 15.9539 70.9044 16.2531C69.9088 16.4525 68.3158 19.045 67.5193 20.1419C66.7227 21.2387 65.4284 22.4352 64.9305 22.2358C64.4328 22.0364 65.2292 21.2387 66.0258 19.8427C66.8223 18.347 69.2118 16.8514 69.8092 16.3528C70.4066 15.8542 70.5061 15.8542 70.0083 15.0565C69.5105 14.2588 66.1254 15.0565 64.2337 17.3499C62.3419 19.743 62.3419 24.2301 61.3463 23.9309C60.3331 23.6318 62.2424 16.2531 61.0477 15.0565C59.7533 13.86 58.8573 15.256 57.7621 16.2531C56.6669 17.3499 56.866 23.9309 56.5673 25.4267C56.2686 26.9223 57.1646 28.9165 55.5717 27.5205C53.8791 26.1246 55.273 17.7488 54.0782 16.9511C52.8834 16.1534 50.8922 18.4468 49.797 20.8399C48.6022 23.233 52.983 32.5062 51.6887 32.8054C50.3943 33.0048 48.0048 26.1246 47.2083 25.2272C46.4118 24.3298 46.3123 23.7315 45.4162 25.5264C44.5201 27.3211 49.3987 35.8965 49.5978 36.6942C49.797 37.4919 48.9009 37.6912 48.0048 36.9932C46.9096 35.7968 44.9184 29.4151 43.8232 30.512C42.728 31.6087 43.0884 35.8965 43.6241 37.3922C44.2214 38.8877 45.7149 38.8877 45.6153 39.6854C45.5158 40.4832 44.0223 40.7823 43.9227 41.1812C43.8232 41.6797 45.1175 42.9761 45.5158 42.9761C45.914 42.9761 46.9096 41.3806 47.6066 41.6797C48.204 41.9789 48.0048 43.2752 48.5026 44.0729C49.0005 44.7709 51.0913 46.7651 52.0869 46.9644C53.0826 47.1639 55.9699 46.9644 55.1734 45.6683C54.3769 44.3719 51.1909 41.2808 50.7926 40.7823C50.3943 40.2838 50.2948 39.5858 51.5891 39.5858C52.7839 39.6854 55.3726 44.1726 58.5586 45.4688C61.7446 46.7651 62.1428 45.07 61.0477 43.2752C59.9525 41.4804 54.7752 37.8906 54.3769 37.4919C53.9787 37.0929 55.273 36.1955 56.866 36.4947C58.459 36.7938 62.3419 42.1784 65.4284 42.278C68.4153 42.3778 71.004 41.0815 70.4066 38.8877C69.8092 36.6942 60.052 34.5005 60.1516 34.1017C60.2511 33.7028 60.9481 32.9051 62.7402 32.6059C64.5323 32.3067 68.6145 34.2014 71.8005 33.9022C74.9865 33.6031 77.6747 30.3125 77.5778 28.7172C77.4756 27.1217 67.7184 29.7143 65.6275 28.9165C64.4328 28.5177 66.3244 27.2215 68.3158 26.4237"/>
	<path fill="#2D1B0A" d="M52.5785 47.9617C52.0806 47.9617 51.6822 47.9617 51.5826 47.862C50.1883 47.5629 47.8976 45.3692 47.3996 44.5715C47.1008 44.0729 47.0012 43.5744 46.9016 43.0758C46.9016 43.0758 46.9016 43.0758 46.9016 42.9761C46.802 43.0758 46.7024 43.1755 46.7024 43.1755C46.3041 43.5744 45.9057 43.9732 45.4077 43.9732C44.7105 44.0729 43.9138 43.375 43.4158 42.7767C42.8182 42.0787 42.619 41.4804 42.7186 40.8821C42.9178 40.2839 43.4158 39.9847 43.9138 39.6856C44.0134 39.6856 44.0134 39.5859 44.113 39.5859C43.615 39.2868 42.9178 38.6885 42.5194 37.6914C41.8953 36.096 41.3243 31.21 42.9178 29.7144C43.2166 29.4152 43.7146 29.2158 44.113 29.3155C44.5113 29.4152 44.9097 29.6147 45.3081 30.1132C44.2126 27.5207 43.9138 25.9253 44.4118 24.9282C44.8101 24.1305 45.3081 23.3328 46.1049 23.2331C46.9016 23.1334 47.3 23.7316 47.6984 24.1305C47.798 24.2302 47.8976 24.3299 47.8976 24.4296C48.296 24.8285 48.5947 25.6262 49.2919 27.2216C49.4911 27.6204 49.7899 28.2187 49.9891 28.817C49.9891 28.7172 49.8895 28.5178 49.8895 28.4181C48.7939 24.629 47.9972 21.8371 48.7939 20.3414C49.6903 18.5466 51.2838 16.3529 52.8773 15.8543C53.4749 15.6549 54.0725 15.7546 54.5704 16.0538C55.5664 16.652 55.5664 18.1477 55.5664 21.3385C55.5664 22.1362 55.5664 23.2331 55.666 24.3299C55.666 23.8313 55.7656 23.3328 55.7656 22.7345C55.9648 18.9454 56.0644 16.3529 57.0603 15.4555C57.2595 15.2561 57.3591 15.1564 57.5583 14.9569C58.355 14.1592 59.9486 12.5638 61.7413 14.1592C62.538 14.8572 62.6376 16.3529 62.4384 18.6463C62.7372 17.9483 63.1356 17.2503 63.534 16.652C65.1275 14.6578 67.8166 13.4766 69.4101 13.6607C70.3064 13.7604 70.7048 14.1592 70.904 14.4584C71.1032 14.7575 71.2028 14.9569 71.3024 15.1564C72.6967 14.7575 75.8838 13.8601 77.6765 17.2503C79.8676 21.5379 75.9833 24.0308 74.6886 24.9282C73.2943 25.8256 71.9 26.3241 70.406 26.8227C69.9081 27.0221 69.3105 27.2216 68.8125 27.421C68.2149 27.6204 67.717 27.9195 67.3186 28.119C68.4141 28.0193 69.9081 27.8198 71.1032 27.7201C75.1866 27.2216 76.9793 27.0221 77.8757 27.8198C78.1744 28.0193 78.3758 28.4181 78.3758 28.817C78.4732 31.1103 75.1866 34.7 71.7008 35.0988C69.7089 35.2983 67.6174 34.7997 65.7251 34.3011C64.5299 34.002 63.2352 33.7029 62.7372 33.8026C62.4384 33.8026 62.2392 33.9023 62.0401 34.002C62.1396 34.002 62.3388 34.1017 62.4384 34.1017C67.8166 35.7968 70.8044 36.9934 71.3024 38.7882C71.6012 39.7853 71.402 40.7824 70.7048 41.5801C69.7089 42.8764 67.6174 43.5744 65.2271 43.4747C63.036 43.375 60.8449 41.3807 58.853 39.4862C58.0563 38.6885 56.9607 37.6914 56.5623 37.5916C56.2635 37.4919 56.0644 37.4919 55.8652 37.5916C55.9648 37.6914 55.9648 37.6914 56.0644 37.7911C58.4546 39.6856 60.9445 41.5801 61.8409 42.9761C62.7372 44.3721 62.8368 45.6683 62.1396 46.466C61.4425 47.3635 60.0482 47.3635 58.1559 46.6655C57.3591 46.3663 56.6619 45.8678 55.9648 45.2695C56.3631 45.8678 56.3631 46.5658 56.0644 47.0643C55.168 47.7623 53.6741 47.9617 52.5785 47.9617M47.2004 40.6827C47.3996 40.6827 47.5988 40.6827 47.798 40.7824C48.5947 41.1813 48.7939 42.0787 48.8935 42.7767C48.8935 43.0758 48.9931 43.375 49.0927 43.5744C49.4911 44.2724 51.3834 45.8678 51.981 45.9675C52.4789 46.0672 53.2757 45.9675 53.7737 45.8678C53.0765 44.9704 51.7818 43.5744 50.8854 42.5773C50.1883 41.8793 49.8895 41.4804 49.6903 41.281C49.1923 40.6827 49.0927 39.9847 49.3915 39.3865C49.5907 38.9876 50.0887 38.4891 51.2838 38.4891C52.2797 38.4891 53.0765 39.3865 54.2716 40.7824C55.4668 42.1784 56.9607 43.7738 58.6538 44.4718C59.9486 44.9704 60.3469 44.8706 60.4465 44.8706C60.4465 44.8706 60.4465 44.4718 59.9486 43.7738C59.2514 42.5773 56.164 40.2839 54.67 39.187C53.7737 38.4891 53.4749 38.2896 53.3753 38.0902C52.9769 37.6914 52.9769 37.0931 53.2757 36.5945C53.7737 35.7968 55.168 35.0988 56.8611 35.4977C57.7575 35.6971 58.6538 36.4948 60.1356 37.8908C61.6417 39.2868 63.8328 41.281 65.2271 41.281C66.9202 41.3807 68.4141 40.8821 69.0117 40.1842C69.2109 39.885 69.3105 39.5859 69.2109 39.0873C68.9121 38.3893 66.4222 37.2925 61.7413 35.7968C59.351 35.0988 58.853 34.8994 58.9526 33.9023C59.0522 33.0049 60.2473 31.908 62.3388 31.6089C63.3348 31.5092 64.6295 31.8083 66.1234 32.1075C67.8166 32.5063 69.8085 33.0049 71.402 32.8054C73.7923 32.5063 75.8838 30.3126 76.2821 29.1161C75.2862 29.0164 72.9955 29.3155 71.402 29.5149C68.2149 29.9138 66.223 30.1132 65.1275 29.7144C64.6295 29.5149 64.2311 29.0164 64.2311 28.5178C64.2311 26.9224 67.4182 25.6262 68.1153 25.4267C68.7129 25.2273 69.2109 25.0279 69.8085 24.8285C71.2028 24.3299 72.4975 23.931 73.6927 23.1334C75.8838 21.6377 77.1785 20.2417 75.9833 18.048C74.9874 16.1535 73.4935 16.4526 71.8004 16.9512C71.6012 17.0509 71.402 17.0509 71.3024 17.1506C70.8044 17.35 69.4101 19.2446 68.9121 19.9426C68.7129 20.2417 68.6133 20.4411 68.4141 20.6405C68.0158 21.1391 66.223 23.5322 64.7291 23.0336C64.3307 22.9339 64.032 22.6348 63.9324 22.3356C63.7332 21.6377 64.032 21.1391 64.5299 20.3414C64.7291 20.0423 65.0279 19.6434 65.2271 19.1448C65.9243 17.8486 67.5178 16.652 68.6133 15.8543C68.8125 15.6549 69.0117 15.5552 69.2109 15.4555C68.4141 15.4555 66.4222 16.1535 65.2271 17.7489C64.4303 18.8457 63.9324 20.4411 63.6336 21.7374C63.2352 23.1334 63.036 24.1305 62.2392 24.5293C61.9405 24.7287 61.5421 24.7287 61.2433 24.629C59.9486 24.2302 60.1356 22.6348 60.4465 19.8428C60.5461 18.5466 60.8449 16.0538 60.5461 15.5552C60.2473 15.3558 60.2473 15.2561 59.2514 16.2532C59.0522 16.4526 58.9526 16.652 58.7534 16.7518C58.2554 17.35 58.1559 21.0394 58.0563 22.6348C57.9567 23.8313 57.9567 24.8285 57.8571 25.327C57.7575 25.7259 57.8571 26.1247 57.8571 26.6233C57.8571 27.421 57.9567 28.2187 57.1599 28.6175C56.3631 29.0164 55.5664 28.4181 55.168 28.0193C53.9729 27.0221 53.8733 24.629 53.8733 21.1391C53.8733 19.9426 53.8733 18.1477 53.6741 17.5495C53.1761 17.6492 51.8814 18.9454 50.8854 21.0394C50.3874 21.9368 51.483 25.6262 52.0806 27.7201C52.9769 30.7192 53.3753 32.1075 52.8773 32.9052C52.6781 33.2043 52.3793 33.4037 52.0806 33.5034C50.5866 33.8026 49.6903 32.0077 47.798 27.8198C47.3996 26.9224 46.9016 25.8256 46.7024 25.5264C46.7024 25.5264 46.6028 25.4267 46.6028 25.4267C46.6028 25.5264 46.5032 25.5264 46.5032 25.6262C46.2045 26.723 48.7939 32.1075 49.6903 33.9023C50.3874 35.398 50.6862 35.8965 50.6862 36.1957C50.7858 36.8937 50.5866 37.4919 49.9891 37.8908C49.2919 38.2896 48.296 38.0902 47.3996 37.4919C46.802 36.8937 46.3041 35.8965 45.6069 34.3011C45.2085 33.5034 44.7105 32.3069 44.3122 31.6089C44.0134 32.9052 44.113 35.5974 44.6109 36.7939C44.8101 37.2925 45.2085 37.5916 45.6069 37.7911C46.0053 38.0902 46.802 38.5888 46.7024 39.5859C46.5032 40.4833 45.8061 40.8821 45.2085 41.1813C45.3081 41.281 45.4077 41.3807 45.5073 41.4804C45.8061 41.281 46.4036 40.6827 47.2004 40.6827"/>
</svg>
