<?xml version="1.0" encoding="utf-8" ?>
<svg xmlns="http://www.w3.org/2000/svg" xmlns:xlink="http://www.w3.org/1999/xlink" width="110" height="74">
	<path fill="white" d="M109.847 37C110.446 33.8832 109.149 32.1739 108.351 31.3696C107.353 30.3641 105.957 29.7609 104.361 29.5598C104.261 28.2527 103.862 27.0462 103.164 26.1413C102.366 25.1359 100.87 23.8288 98.0769 23.8288C97.9771 23.8288 97.8774 23.8288 97.6779 23.8288C96.5807 23.9293 95.5832 24.231 94.6855 24.9348C93.8875 24.231 92.9898 23.7283 91.8926 23.4266C91.2941 23.3261 90.6956 23.2255 90.1968 23.2255C88.6009 23.2255 87.2044 23.7283 86.207 24.7337C85.3092 25.538 84.7108 26.644 84.4115 27.9511C84.3118 27.9511 84.212 27.9511 84.0125 27.9511C82.5163 27.9511 81.2196 28.3533 80.1224 29.0571C79.5239 29.4592 78.7259 30.2636 78.1274 31.5707C74.8358 30.2636 70.5466 29.2582 64.1628 29.0571C59.7739 29.0571 56.0833 29.962 52.7916 31.4701C53.0909 30.9674 53.2904 30.4647 53.3901 29.8614C53.7891 29.4592 54.1881 29.0571 54.5871 28.6549C55.4848 28.4538 56.2828 28.0516 56.981 27.5489C57.6793 26.9457 58.4772 26.0408 58.976 24.6332C61.5694 22.5217 64.3623 20.712 67.3547 19.1033C67.5542 19.2038 67.654 19.3043 67.8535 19.4049C67.9532 20.5109 68.2525 21.4158 68.7512 22.2201C69.2499 23.0245 70.5466 24.231 73.0403 24.231C73.8383 24.231 74.8358 24.0299 75.7335 23.5272C76.4317 24.0299 77.13 24.231 77.7284 24.3315C78.1274 24.4321 78.6262 24.4321 79.0252 24.4321C80.7209 24.4321 81.9178 23.6277 82.5163 23.0245C83.2145 22.3207 83.6135 21.4158 83.9128 20.4103C84.7108 20.2092 85.409 19.9076 86.0075 19.5054C86.8054 18.9022 88.0024 17.5951 87.9027 14.8804C87.9027 14.2772 87.7032 13.6739 87.5037 13.1712C88.3017 12.2663 88.6009 11.3614 88.7006 10.6576C89.1994 8.14402 88.1022 6.63587 87.4039 5.93207C86.7057 5.22826 85.808 4.82609 84.8105 4.52446C84.611 3.72011 84.3118 3.0163 83.9128 2.41304C82.9153 1.10598 81.4191 0.402174 79.6236 0.402174C78.6262 0.402174 77.9279 0.603261 77.3295 0.904891C76.8307 0.502717 76.2322 0.30163 75.534 0.100543C75.0353 0 74.6363 0 74.1375 0C72.4418 0 71.3446 0.703804 70.7461 1.30707C70.1477 1.80978 69.7487 2.51359 69.4494 3.31793C68.3522 3.41848 67.4545 3.72011 66.6565 4.22283C65.8585 4.82609 64.5618 6.13315 64.5618 8.74728C64.5618 9.45109 64.7613 10.4565 65.3598 11.462C65.0605 11.9647 64.7613 12.5679 64.6616 13.1712C64.6616 13.2717 64.6616 13.4728 64.5618 13.5734C63.0656 14.3777 61.5694 15.2826 60.1729 16.1875C60.2727 15.9864 60.2727 15.6848 60.3724 15.4837C60.9709 12.3668 59.6742 10.6576 58.8762 9.85326C57.8787 8.84783 56.4823 8.24457 54.8863 8.04348C54.7866 6.73641 54.3876 5.52989 53.6894 4.625C52.8914 3.61957 51.3952 2.3125 48.6023 2.3125C48.5025 2.3125 48.4028 2.3125 48.2033 2.3125C47.106 2.41304 46.1086 2.71467 45.2109 3.41848C44.4129 2.71467 43.5151 2.21196 42.4179 1.91033C41.8194 1.80978 41.221 1.70924 40.7222 1.70924C39.1263 1.70924 37.7298 2.21196 36.7323 3.21739C35.8346 4.02174 35.2361 5.12772 34.9369 6.43478C34.8371 6.43478 34.7374 6.43478 34.5379 6.43478C33.0417 6.43478 31.745 6.83696 30.6478 7.54076C29.75 8.24457 28.1541 9.75272 28.2538 12.8696C28.2538 13.875 28.5531 15.4837 29.8498 16.8913C29.1515 17.6957 28.6528 18.6005 28.3536 19.7065C27.7551 22.6223 28.7526 24.4321 29.6503 25.4375C30.4483 26.3424 31.5455 26.9457 32.8422 27.2473C32.7424 28.9565 33.1414 30.3641 33.9394 31.5707C34.2387 32.0734 34.8371 32.6766 35.7349 33.1793L29.1515 33.0788C28.3536 32.4755 27.5556 31.9728 26.7576 31.5707C26.9571 31.0679 27.1566 30.4647 27.1566 29.962C27.2564 28.9565 27.0569 26.9457 24.8624 25.1359C24.2639 24.6332 23.5657 24.3315 22.8675 24.1304C22.7677 22.7228 22.269 21.7174 21.7703 21.1141C20.1743 19.0027 18.3788 18.7011 17.3814 18.7011C17.2816 18.7011 17.1819 18.7011 17.0821 18.7011C15.9849 18.8016 14.8877 19.2038 13.8902 20.0082C13.0922 19.4049 12.1945 19.1033 11.197 19.0027C11.0973 19.0027 10.8978 19.0027 10.7981 19.0027C9.70084 19.0027 8.00514 19.4049 6.40918 21.3152C5.91045 22.019 5.51146 22.7228 5.41171 23.5272C4.61373 23.6277 3.9155 24.0299 3.21727 24.4321C1.02283 26.1413 0.723592 28.0516 0.723592 29.1576C0.723592 30.0625 1.02283 30.9674 1.52157 31.8723C0.723592 32.8777 0.224856 33.8832 0 34.9891C0 35.9946 0 38.0054 2.12005 39.8152C3.01778 40.6196 4.115 41.0217 5.21222 41.1223C5.31196 41.9266 5.61121 42.6304 6.10994 43.3342C7.7059 45.5462 9.60109 45.8478 10.5986 45.8478C11.596 45.8478 12.4938 45.5462 13.3915 45.0435C14.389 45.8478 15.3864 46.3505 16.5834 46.5516C16.6831 46.5516 16.7829 46.5516 16.8826 46.5516C16.5834 49.2663 16.5834 52.4837 17.2816 56.3043C19.9748 72.5924 30.947 73.3967 33.1414 73.3967C33.3409 73.3967 33.4407 73.3967 33.5404 73.3967L49.5 73.7989L67.4545 74C68.053 73.8995 82.5163 69.0734 83.015 53.1875C83.015 52.9864 83.015 52.7853 83.015 52.4837C83.1148 52.5842 83.1148 52.7853 83.2145 52.8859C83.813 53.7908 85.3092 55.2989 88.3017 55.2989C89.4986 55.2989 90.8951 54.9973 92.2915 53.8913C93.3888 54.8967 94.486 55.2989 95.284 55.5C95.7827 55.6005 96.3812 55.7011 96.8799 55.7011C98.9746 55.7011 100.271 54.7962 100.97 54.0924C101.967 53.087 102.566 51.6793 102.765 50.0707C104.062 49.9701 105.259 49.5679 106.156 48.8641C107.254 48.0598 108.55 46.3505 108.451 43.3342C108.351 42.3288 108.052 41.3234 107.553 40.519C109.149 39.413 109.648 38.0054 109.847 37"/>
	<path fill="#58AA38" d="M93.8064 38.9103C93.8064 38.9103 92.8904 27.1467 97.8778 26.9407C103.065 26.7446 101.07 32.7772 101.07 32.7772C101.07 32.7772 107.952 31.3696 106.955 36.5978C105.957 41.8261 93.5886 39.5136 93.8064 38.9103"/>
	<path fill="#2D1B0A" d="M99.8726 40.9212C96.7804 40.9212 93.6883 40.3179 93.0898 39.6141C92.7906 37.2011 92.4913 30.3641 95.0847 27.4484C95.8827 26.5435 96.7804 26.0282 97.8777 26.0282C99.5734 26.0282 100.87 26.4429 101.668 27.5489C102.666 28.856 102.666 30.5652 102.466 31.7717C103.863 31.6712 105.857 31.8723 107.154 33.0788C107.753 33.6821 108.451 34.8886 108.052 36.8995C107.753 38.2065 106.855 39.9158 103.663 40.7201C102.466 40.8207 101.169 40.9212 99.8726 40.9212M94.7855 38.3071C96.2817 38.8098 101.568 39.5136 104.361 38.2065C105.259 37.8044 105.758 37.2011 105.957 36.3967C106.256 34.9891 105.758 34.4864 105.558 34.3859C104.561 33.3804 102.067 33.6821 101.169 33.7826L99.4736 34.0843L99.9724 32.4756C100.172 31.7717 100.571 29.6603 99.7729 28.6549C99.3739 28.1522 98.6756 27.8505 97.6782 27.9511C97.1794 27.9511 96.6807 28.2527 96.2817 28.6549C94.7855 30.6658 94.6857 35.894 94.7855 38.3071"/>
	<path fill="#58AA38" d="M93.8875 39.5321C93.8875 39.5321 105.558 38.6087 105.762 43.6359C105.957 48.8641 99.9721 46.8533 99.9721 46.8533C99.9721 46.8533 101.468 53.8914 96.1817 52.7854C90.8951 51.8805 93.1892 39.3125 93.8875 39.5321"/>
	<path fill="#2D1B0A" d="M97.1826 53.9918C96.7834 53.9918 96.3841 53.9918 95.9849 53.8913C94.6873 53.5896 92.9905 52.6847 92.192 49.4673C91.3935 45.9484 92.0922 39.7147 93.1901 38.9103C95.6854 38.5081 102.473 38.3071 105.467 40.9212C106.365 41.7255 106.877 42.6304 106.877 43.7364C106.964 45.4456 106.465 46.7527 105.367 47.5571C104.07 48.4619 102.473 48.5624 101.175 48.3614C101.275 49.769 101.175 51.7798 99.8775 53.0869C99.3785 53.4891 98.4802 53.9918 97.1826 53.9918M94.3879 40.6196C93.8888 42.1277 93.1901 47.356 94.4877 50.2717C94.8869 51.1766 95.4858 51.7798 96.2843 51.8804C97.6817 52.182 98.1807 51.6793 98.3803 51.4782C99.3785 50.4728 99.079 47.9592 98.8794 47.0543L98.4802 45.3451L100.077 45.8478C100.776 46.0489 102.872 46.4511 103.87 45.6467C104.369 45.2446 104.569 44.5408 104.569 43.5353C104.569 43.0326 104.269 42.5299 103.87 42.1277C101.974 40.519 96.7834 40.519 94.3879 40.6196"/>
	<path fill="#58AA38" d="M93.289 39.0109C93.289 39.0109 96.1817 27.5489 91.294 26.443C86.207 25.337 87.1047 31.6712 87.1047 31.6712C87.1047 31.6712 80.7197 29.0571 80.7197 34.4864C80.8206 39.9158 93.4885 39.6141 93.289 39.0109"/>
	<path fill="#2D1B0A" d="M90.8951 40.3179C88.5012 40.3179 85.3092 39.8148 83.2145 38.909C80.3219 37.6007 79.7234 35.7892 79.7234 34.481C79.7234 32.3676 80.5214 31.2606 81.3194 30.7574C82.7158 29.751 84.7108 29.9523 86.1072 30.2542C86.1072 29.0465 86.4065 27.3357 87.6034 26.2287C88.6009 25.2486 89.8976 25.021 91.5933 25.4236C92.6905 25.6249 93.5883 26.3293 94.1867 27.3357C96.2814 30.6567 94.7852 37.2989 94.486 38.909C93.5883 40.1166 92.3913 40.3179 90.8951 40.3179M84.0125 32.0657C83.414 32.0657 82.9153 32.1663 82.5163 32.4682C82.3168 32.5689 81.8181 32.9714 81.8181 34.481C81.8181 35.286 82.2171 35.8899 83.0151 36.4938C85.6085 38.3052 90.9948 38.5065 92.491 38.2046C92.9898 35.7892 93.7878 30.6567 92.3913 28.3421C92.0921 27.8389 91.5933 27.4363 91.0946 27.3357C90.0971 27.1344 89.3989 27.2351 88.9001 27.6376C87.9027 28.5434 88.0024 30.7574 88.1022 31.4618L88.3017 33.1727L86.7057 32.5689C86.3067 32.3676 85.1097 32.0657 84.0125 32.0657"/>
	<path fill="#58AA38" d="M93.1892 39.9157C93.1892 39.9157 81.8181 37 80.7208 41.9266C79.6236 47.0543 85.9077 46.1494 85.9077 46.1494C85.9077 46.1494 83.3143 52.7853 88.7006 52.5887C94.1867 52.4837 93.8874 39.7146 93.1892 39.9157"/>
	<path fill="#2D1B0A" d="M88.4956 53.5896C86.4988 53.5896 85.5003 52.7853 85.0011 52.0815C84.0027 50.6739 84.2024 48.5625 84.5019 47.2554C83.3038 47.2554 81.6065 46.9538 80.5083 45.7473C79.536 44.7418 79.3102 43.4348 79.7096 41.7255C79.9092 40.6195 80.6081 39.7146 81.6065 39.1114C84.9013 37 91.4908 38.5081 93.0883 38.8098C94.7856 40.2174 94.5859 46.4511 93.0883 49.8695C91.7903 52.8858 89.9932 53.5896 88.5954 53.5896C88.6953 53.5896 88.5954 53.5896 88.4956 53.5896M87.4972 44.9429L86.8981 46.5516C86.5986 47.3559 85.8997 49.769 86.6984 50.9755C86.7983 51.1767 87.1976 51.6793 88.6953 51.6793C89.494 51.6793 90.1929 51.1767 90.7919 50.3722C92.589 47.7581 92.6889 42.4293 92.4892 40.8206C90.1929 40.3179 85.0011 39.5136 82.7048 40.9212C82.2056 41.2228 81.8062 41.7255 81.7064 42.2282C81.5067 43.2337 81.6065 43.9375 82.0059 44.4402C82.9045 45.4456 85.101 45.3451 85.7999 45.2445L87.4972 44.9429"/>
	<path fill="#2D1B0A" d="M46.4078 44.3397L44.4128 44.1386C45.1111 37.1006 54.4874 30.9674 64.2626 31.1637C74.6362 31.3696 79.0251 33.9837 82.9153 36.3968C84.0125 37 85.0099 37.6033 86.1071 38.2066L85.2094 40.0163C84.0125 39.4131 83.015 38.8098 81.9178 38.2066C78.0276 35.8941 74.1376 33.481 64.2626 33.2799C54.8863 32.9783 46.9065 39.0109 46.4078 44.3397"/>
	<path fill="#2D1B0A" d="M36.7324 44.9431L35.0367 43.9375C38.5278 37.6033 41.5202 31.068 43.9142 24.4321L45.8094 25.136C43.3157 31.8724 40.2235 38.5083 36.7324 44.9431"/>
	<path fill="#2D1B0A" d="M42.7172 44.2391L40.822 43.5353C45.4104 30.1629 56.981 18.6005 71.7437 12.769L72.4419 14.6793C58.178 20.3097 47.1061 31.3694 42.7172 44.2391"/>
	<path fill="#2D1B0A" d="M32.0442 44.038C30.3485 37.7038 23.9647 33.2799 17.9798 34.1848L17.6806 32.1739C24.6629 31.0679 31.9445 36.1956 33.9394 43.5353L32.0442 44.038"/>
	<path fill="white" d="M25.858 36.2962C25.858 36.2962 17.978 40.519 20.4716 56.2038C23.0651 71.8886 33.738 70.7826 33.738 70.7826L49.7973 71.1848L67.2531 71.3859C67.2531 71.3859 79.8212 67.3641 80.2457 53.3886C80.719 39.413 73.7366 36.8995 73.7366 36.8995L25.858 36.2962"/>
	<path fill="#2D1B0A" d="M67.3718 72.3911L49.8101 72.1901L33.7451 71.7879C32.6475 71.8884 22.0706 71.989 19.4762 56.3042C16.8819 40.1167 24.9643 35.5922 25.3634 35.2906L73.8576 35.8939C74.3565 36.0949 81.7404 38.9102 81.2657 53.489C80.7426 67.9672 67.6711 72.3911 67.5713 72.3911M33.7451 69.777L49.8101 70.1792L67.0724 70.3803C68.4694 69.8776 78.8467 65.7553 79.2459 53.3884C79.645 41.3232 74.4563 38.3069 73.5583 37.9047L26.1616 37.3015C24.9643 38.1058 19.3764 42.5297 21.5717 56.0026C23.8666 70.4808 33.2462 69.777 33.7451 69.777"/>
	<path fill="#58AA38" d="M76.7737 11.8641C76.7737 11.8641 76.1324 3.82065 79.6236 3.61775C83.2145 3.61775 81.818 7.6413 81.818 7.6413C81.818 7.6413 86.6059 6.63586 85.9077 10.2554C85.1097 13.875 76.6312 12.2663 76.7737 11.8641"/>
	<path fill="#2D1B0A" d="M81.0201 13.5734C78.8256 13.5734 76.5314 13.1712 76.0327 12.5679C75.7334 10.4565 75.6337 5.83152 77.4291 3.82065C78.0276 3.11684 78.7259 2.81521 79.6236 2.70501C81.2195 2.70501 82.1173 3.31793 82.5163 3.92119C83.1147 4.72554 83.2145 5.83152 83.1147 6.63587C84.1122 6.63587 85.4089 6.83695 86.2069 7.6413C86.7056 8.13919 87.2044 9.04891 86.9051 10.5571C86.7056 11.5625 86.0074 12.8696 83.6135 13.4728C82.8155 13.4728 81.9178 13.5734 81.0201 13.5734M77.8281 11.2609C79.0251 11.5625 82.3168 11.9647 84.1122 11.0598C84.8104 10.7582 84.9102 10.356 85.0099 10.0543C85.1097 9.55163 85.0099 9.14945 84.8104 8.94837C84.3117 8.44565 82.7157 8.54619 82.1173 8.64673L80.4216 8.94837L80.9203 7.33967C81.1198 6.83695 81.3146 5.52989 80.8206 5.02717C80.6211 4.72554 80.2221 4.625 79.6236 4.625C79.3243 4.625 79.1248 4.72554 78.9254 5.02717C77.8281 6.23369 77.7284 9.55163 77.8281 11.2609"/>
	<path fill="#58AA38" d="M76.8307 12.3031C76.8307 12.3031 84.8105 11.6567 85.0118 15.1758C85.1097 18.7953 81.0201 17.3877 81.0201 17.3877C81.0201 17.3877 82.0176 22.2138 78.4267 21.51C74.8358 20.8062 76.332 12.1595 76.8307 12.3031"/>
	<path fill="#2D1B0A" d="M79.1278 22.6223C78.8284 22.6223 78.5289 22.6223 78.2295 22.5218C77.2313 22.3207 75.9336 21.6169 75.3347 19.2038C74.7358 16.6903 75.2349 12.3669 76.1332 11.6631C78.2295 11.2609 82.8212 11.2609 84.8176 13.0707C85.5163 13.6739 85.8158 14.3777 85.9251 15.2826C86.0154 16.8913 85.3167 17.7962 84.7178 18.1984C83.9192 18.8017 82.8212 18.9022 82.0226 18.8017C82.0226 19.8071 81.9228 21.1142 81.0244 21.9185C80.8248 22.2201 80.126 22.6223 79.1278 22.6223M77.4309 13.3723C77.1314 14.5788 76.7322 17.8968 77.6305 19.606C77.93 20.3098 78.3293 20.4104 78.6287 20.5109C79.2277 20.6114 79.5271 20.6114 79.8266 20.3098C80.3257 19.8071 80.2259 18.1984 80.126 17.5951L79.7268 15.8859L81.4237 16.3886C81.9228 16.5897 83.2205 16.7908 83.7196 16.2881C84.019 16.087 84.1188 15.6848 84.1188 15.0815C84.1188 14.7799 84.019 14.5788 83.7196 14.3777C82.5217 13.4729 79.4273 13.2718 77.4309 13.3723"/>
	<path fill="#58AA38" d="M76.4318 11.9647C76.4318 11.9647 78.4267 4.12228 75.0353 3.24046C71.5442 2.61412 72.1427 6.93749 72.1427 6.93749C72.1427 6.93749 67.7521 5.12771 67.7521 8.84782C67.8535 12.5679 76.6313 12.3668 76.4318 11.9647"/>
	<path fill="#2D1B0A" d="M74.8358 13.1712C73.1401 13.1712 70.8459 12.769 69.4495 12.1658C67.3548 11.2609 66.856 9.85327 66.856 8.84783C66.856 7.23914 67.4545 6.43479 68.053 6.03261C69.0505 5.32881 70.2475 5.42935 71.2449 5.5299C71.3447 4.62501 71.5442 3.61957 72.3421 2.91577C72.8409 2.41305 73.7386 1.91033 75.3346 2.1209C76.1325 2.41305 76.8308 2.91577 77.3296 3.61957C78.726 5.93207 77.8282 10.4565 77.5291 11.7636C76.731 13.0707 75.933 13.1712 74.8358 13.1712M70.048 7.54077C69.7487 7.54077 69.3497 7.64605 69.1502 7.74185C68.851 7.94294 68.7513 8.34511 68.7513 8.84783C68.7513 9.14946 68.851 9.55164 69.4495 9.95381C71.0454 11.0598 74.3371 11.2609 75.6338 11.1603C76.0328 9.14946 76.332 6.13316 75.5341 4.82609C75.3346 4.52446 75.1351 4.32337 74.8358 4.32337C74.2373 4.22283 73.8384 4.22283 73.6389 4.52446C73.1401 5.02718 73.1401 6.33424 73.2399 6.83696L73.4394 8.5462L71.8434 7.94294C71.4444 7.74185 70.6464 7.54077 70.048 7.54077"/>
	<path fill="#58AA38" d="M76.4318 12.5784C76.4318 12.5784 68.6515 10.5675 67.7766 13.986C67.1553 17.505 71.4444 16.9018 71.4444 16.9018C71.4444 16.9018 69.6489 21.4262 73.3396 21.3273C77.0302 21.2251 76.8307 12.4779 76.4318 12.5784"/>
	<path fill="#2D1B0A" d="M73.1401 22.3207C71.6439 22.3207 70.9456 21.7174 70.5467 21.1142C69.8484 20.1087 69.9482 18.9022 70.0479 17.8968C69.1502 17.7962 68.1527 17.5951 67.4545 16.7908C66.9558 16.2881 66.457 15.2826 66.6659 13.7745C66.9558 12.9701 67.4545 12.2663 68.1527 11.7636C70.4469 10.356 74.9355 11.2609 76.2323 11.5625C77.8282 12.8696 77.5289 17.2935 76.5315 19.606C75.6338 21.818 74.2373 22.3207 73.1401 22.3207C73.3396 22.3207 73.2398 22.3207 73.1401 22.3207M72.9406 15.6848L72.3421 17.2935C72.1426 17.8968 71.7436 19.4049 72.1426 20.0082C72.3421 20.2093 72.7411 20.4104 73.2398 20.3098C73.5391 20.3098 73.9381 20.2093 74.3371 19.606C75.4343 17.9973 75.6338 14.6794 75.534 13.4729C73.5391 13.0707 70.5467 12.7691 69.2499 13.5734C68.9507 13.7745 68.7512 13.9756 68.7512 14.2772C68.6515 14.8805 68.6515 15.2826 68.9507 15.4837C69.4494 15.9865 70.7462 15.9865 71.2449 15.8859L72.9406 15.6848"/>
	<path fill="#58AA38" d="M44.4312 17.4945C44.4312 17.4945 43.5151 5.73095 48.5025 5.52494C53.6894 5.32877 51.6944 11.3614 51.6944 11.3614C51.6944 11.3614 58.577 9.95377 57.5795 15.182C56.582 20.4103 44.2134 18.0978 44.4312 17.4945"/>
	<path fill="#2D1B0A" d="M50.5972 19.5054C47.505 19.5054 44.4129 18.9021 43.8144 18.1983C43.5151 15.7853 43.2159 8.94834 45.8093 6.03258C46.6073 5.12769 47.505 4.6124 48.6023 4.6124C50.298 4.6124 51.5947 5.02714 52.3927 6.13312C53.3901 7.44019 53.3901 9.14942 53.1906 10.3559C54.5871 10.2554 56.582 10.4565 57.8787 11.663C58.4772 12.2663 59.1755 13.4728 58.7765 15.4837C58.4772 16.7907 57.5795 18.5 54.3876 19.3043C53.1906 19.4049 51.8939 19.5054 50.5972 19.5054M45.5101 16.8913C47.0063 17.394 52.2929 18.0978 55.0858 16.7907C55.9835 16.3886 56.4823 15.7853 56.6818 14.9809C56.981 13.5733 56.4823 13.0706 56.2828 12.9701C55.2853 11.9646 52.7916 12.2663 51.8939 12.3668L50.1982 12.6685L50.697 11.0597C50.8964 10.3559 51.2954 8.24453 50.4975 7.2391C50.0985 6.73638 49.4002 6.43475 48.4028 6.53529C47.904 6.53529 47.4053 6.83692 47.0063 7.2391C45.4103 9.24997 45.4103 14.4782 45.5101 16.8913"/>
	<path fill="#58AA38" d="M44.5126 18.1163C44.5126 18.1163 56.183 17.1929 56.3874 22.2201C56.582 27.4483 50.5972 25.4375 50.5972 25.4375C50.5972 25.4375 52.0934 32.4756 46.8068 31.3696C41.62 30.4647 43.9142 17.8967 44.5126 18.1163"/>
	<path fill="#2D1B0A" d="M47.9075 32.576C47.5082 32.576 47.109 32.576 46.7098 32.4755C45.4122 32.1739 43.7154 31.269 42.9169 28.0515C42.1184 24.5326 42.8171 18.2989 43.915 17.4945C46.4103 17.0924 53.1975 16.8913 56.1918 19.5054C57.0901 20.3097 57.6017 21.2146 57.6017 22.3206C57.689 24.0299 57.19 25.3369 56.092 26.1413C54.7945 27.0462 53.1975 27.1467 51.9 26.9456C51.9998 28.3532 51.9 30.364 50.6024 31.6712C50.1034 32.0733 49.205 32.576 47.9075 32.576M45.1128 19.2038C44.6137 20.7119 43.915 25.9402 45.2126 28.8559C45.6118 29.7608 46.2107 30.364 47.0092 30.4646C48.5064 30.7663 48.9056 30.2635 49.1052 30.0625C50.1034 29.057 49.8039 26.5434 49.6043 25.6385L49.205 23.9293L50.802 24.432C51.5007 24.6331 53.5967 25.0353 54.5948 24.2309C55.0939 23.8288 55.2935 23.125 55.2935 22.1195C55.2935 21.6168 54.9941 21.1141 54.5948 20.7119C52.6984 19.1032 47.5082 19.1032 45.1128 19.2038"/>
	<path fill="#58AA38" d="M44.0139 17.5951C44.0139 17.5951 46.9066 6.13314 42.0189 5.02716C36.9319 3.92118 37.8296 10.2554 37.8296 10.2554C37.8296 10.2554 31.4446 7.64129 31.4446 13.0706C31.4446 18.5 44.2134 18.1983 44.0139 17.5951"/>
	<path fill="#2D1B0A" d="M41.62 18.9021C39.2261 18.9021 36.0341 18.399 33.9394 17.4932C31.0468 16.1849 30.4483 14.3734 30.4483 13.0652C30.4483 10.9518 31.2463 9.84478 32.0443 9.34159C33.4407 8.33521 35.4357 8.53649 36.8321 8.8384C36.8321 7.63075 37.1314 5.91991 38.3283 4.81289C39.3258 3.83285 40.6225 3.60524 42.3182 4.00779C43.4154 4.20907 44.3132 4.91353 44.9116 5.91991C47.0063 9.24095 45.5101 15.8831 45.2109 17.4932C44.2134 18.7008 43.1162 18.9021 41.62 18.9021M34.6377 10.6499C34.0392 10.6499 33.5405 10.7505 33.1415 11.0524C32.942 11.1531 32.4432 11.5556 32.4432 13.0652C32.4432 13.8703 32.8422 14.4741 33.6402 15.0779C36.2336 16.8895 41.62 16.99 43.1162 16.7887C43.6149 14.3734 44.4129 9.24095 43.0164 6.92629C42.7172 6.4231 42.2185 6.02055 41.7197 5.91991C40.7223 5.71863 40.024 5.81927 39.5253 6.22182C38.5278 7.12756 38.6276 9.34159 38.7273 10.0461L38.9268 11.7569L37.3309 11.1531C36.9319 10.9518 35.7349 10.6499 34.6377 10.6499"/>
	<path fill="#58AA38" d="M43.9142 18.5C43.9142 18.5 32.543 15.5843 31.4458 20.5109C30.3485 25.6386 36.6326 24.7337 36.6326 24.7337C36.6326 24.7337 34.0392 31.3696 39.4255 31.173C44.8119 31.068 44.5126 18.2989 43.9142 18.5"/>
	<path fill="#2D1B0A" d="M39.2205 32.174C37.2237 32.174 36.2252 31.3696 35.726 30.6658C34.7276 29.2582 34.9273 27.1468 35.2268 25.8397C34.0287 25.8397 32.3314 25.5381 31.2332 24.3316C30.2609 23.3261 30.0351 22.0191 30.4345 20.3098C30.6341 19.2038 31.333 18.299 32.3314 17.6957C35.6262 15.5843 42.2157 17.0924 43.8132 17.3941C45.5105 18.8017 45.3108 25.0354 43.8132 28.4538C42.5152 31.4701 40.7181 32.174 39.3203 32.174C39.4202 32.174 39.3203 32.174 39.2205 32.174M38.2221 23.5272L37.623 25.1359C37.3235 25.9403 36.6246 28.3533 37.4233 29.5599C37.5232 29.761 37.9225 30.2636 39.4202 30.2636C40.2189 30.2636 40.9178 29.8615 41.5168 28.9566C43.3139 26.3424 43.4138 21.0136 43.2141 19.4049C40.9178 18.9022 35.726 18.0979 33.4297 19.5055C32.9305 19.8071 32.5311 20.3098 32.4313 20.8125C32.2316 21.818 32.3314 22.5218 32.7308 23.0245C33.6294 24.0299 35.726 23.9294 36.5248 23.8288L38.2221 23.5272"/>
	<path fill="#58AA38" d="M13.99 32.2744C13.99 32.2744 6.50897 26.5435 9.00265 23.4266C11.6958 20.2092 14.1895 24.6332 14.1895 24.6332C14.1895 24.6332 17.0822 19.7065 19.5758 23.125C22.1692 26.644 14.1895 32.7771 13.99 32.2744"/>
	<path fill="#2D1B0A" d="M13.9912 33.3804C11.9959 32.174 7.80576 28.7554 7.3822 25.5381C7.3822 24.5326 7.50646 23.6277 8.10505 22.9239C9.30223 21.5163 10.3996 21.3152 11.1978 21.4158C12.3949 21.5163 13.3926 22.3207 14.091 23.125C14.7893 22.2201 15.9865 21.2147 17.3832 21.1141C18.1813 21.1141 19.2787 21.3152 20.3762 22.7228C21.0818 23.6277 21.5733 25.2364 20.2764 27.6495C18.8797 30.0625 15.1884 33.3804 13.9912 33.3804M10.9982 23.2256C10.7987 23.2256 10.2999 23.3261 9.70129 24.0299C9.50176 24.3315 9.402 24.6332 9.402 25.1359C9.70129 27.1468 12.4947 29.8614 14.091 31.1684C15.2881 30.3641 18.2811 27.75 18.9794 25.4375C19.2787 24.5326 18.9794 24.0299 18.7799 23.7283C18.1813 22.9239 17.6825 22.9239 17.5827 22.9239C16.5851 23.0245 15.4877 24.4321 15.0886 25.1359L14.1907 26.644L13.2928 25.1359C13.0933 24.7337 12.0957 23.3261 10.9982 23.2256C11.098 23.2256 11.098 23.2256 10.9982 23.2256"/>
	<path fill="#58AA38" d="M14.352 32.7772C14.352 32.7772 20.066 25.2365 23.1582 27.75C26.3501 30.4647 21.9612 32.9783 21.9612 32.9783C21.9612 32.9783 26.9486 35.7935 23.4574 38.4077C20.066 41.0218 13.8817 32.9783 14.352 32.7772"/>
	<path fill="#2D1B0A" d="M21.9697 39.9157C21.1718 39.9157 20.274 39.7147 19.2766 39.1115C16.7829 37.7038 13.3894 33.9837 13.3894 32.6767C14.4887 30.7663 17.9799 26.5435 21.1718 26.1166C22.1693 26.1166 23.067 26.2419 23.7652 26.8451C25.1617 28.0517 25.3612 29.1576 25.2614 29.962C25.1617 31.1685 24.3637 32.174 23.6655 32.8778C24.5632 33.5816 25.5607 34.7881 25.6604 36.1956C25.6604 37 25.4609 38.106 24.0644 39.2119C23.6655 39.6142 22.9672 39.9157 21.9697 39.9157M15.4862 32.8778C16.1844 33.9837 18.8776 37.1005 21.1718 37.8044C21.87 38.0054 22.4685 37.9049 22.8675 37.6032C23.7652 36.8994 23.6655 36.4973 23.6655 36.2962C23.5657 35.2908 22.1693 34.1848 21.471 33.7826L19.9748 32.8778L21.471 31.9729C21.9697 31.6712 23.2665 30.6658 23.3662 29.7609C23.3662 29.5598 23.466 29.0571 22.5682 28.3533C22.269 28.1522 21.9697 28.0517 21.471 28.0517C19.4761 28.4538 16.7829 31.3696 15.4862 32.8778"/>
	<path fill="#58AA38" d="M13.6907 32.6717C13.6907 32.6717 8.40412 24.7288 5.11247 27.1419C1.72106 29.6554 6.01019 32.4707 6.01019 32.4707C6.01019 32.4707 1.02283 34.9842 4.21474 37.7994C7.60615 40.7152 14.1894 32.8728 13.6907 32.6717"/>
	<path fill="#2D1B0A" d="M6.01019 39.5136C4.91297 39.5136 4.21474 39.1114 3.61626 38.6087C2.31955 37.5027 2.19769 36.2962 2.19769 35.4918C2.41929 34.0842 3.51651 33.0788 4.41424 32.375C3.71601 31.6712 2.91803 30.5652 2.91803 29.3587C2.91803 28.5543 3.21727 27.4483 4.61373 26.3424C5.41171 25.6637 6.30943 25.538 7.30691 25.6637C10.3991 26.3424 13.591 30.6657 14.4887 31.8722C14.788 33.8831 11.1971 37.6032 8.40413 38.9103C7.5064 39.3125 6.70842 39.5136 6.01019 39.5136M6.60868 27.75C6.30943 27.75 6.01019 27.8505 5.8107 28.0516C4.91297 28.7554 4.91297 29.2581 4.91297 29.3587C4.91297 30.2635 6.10994 31.3695 6.60868 31.6712L8.00514 32.5886L6.50893 33.3804C5.8107 33.7826 4.31449 34.788 4.21474 35.7935C4.21474 35.9945 4.115 36.3967 4.91297 37.1005C5.21222 37.3016 5.6112 37.6032 6.50893 37.4022C8.90286 36.8994 11.6958 33.8831 12.4938 32.7771C11.3965 31.1684 8.80312 28.0516 6.80817 27.75C6.80817 27.75 6.70842 27.75 6.60868 27.75"/>
	<path fill="#58AA38" d="M14.2759 33.2529C14.2759 33.2529 6.39584 38.601 8.78977 41.9267C11.2835 45.3451 14.0764 41.0218 14.0764 41.0218C14.0764 41.0218 16.6698 46.1495 19.363 42.8316C22.1559 39.4131 14.4754 32.7772 14.2759 33.2529"/>
	<path fill="#2D1B0A" d="M17.3813 44.8424C17.2816 44.8424 17.1818 44.8424 17.0821 44.8424C15.6856 44.6413 14.5884 43.5354 13.9899 42.6305C13.2917 43.3343 12.1945 44.1386 10.9975 44.1386C10.1995 44.1386 9.1023 43.837 8.00508 42.4294C7.33179 41.625 7.20711 40.7201 7.33179 39.7147C8.00508 36.5979 12.2942 33.3805 13.4912 32.4756C15.4861 32.174 19.077 35.693 20.3737 38.4076C21.5707 40.8207 20.8725 42.4294 20.1743 43.3343C19.1768 44.6413 18.1793 44.8424 17.3813 44.8424M14.1768 39.0109L14.9874 40.5191C15.3864 41.2229 16.3839 42.731 17.3813 42.8316C17.5808 42.8316 17.9798 42.9322 18.678 42.0272C18.8775 41.7256 19.1768 41.2229 18.9773 40.318C18.4786 38.0055 15.4861 35.1903 14.3889 34.2854C12.7929 35.3913 9.70079 38.0055 9.40154 40.0163C9.3018 40.4185 9.40154 40.8207 9.60104 41.1223C10.2993 42.0272 10.798 42.0272 10.8977 42.0272C11.8952 42.0272 12.8927 40.7201 13.1919 40.318L14.1768 39.0109"/>
</svg>
