<?xml version="1.0" encoding="utf-8" ?>
<svg xmlns="http://www.w3.org/2000/svg" xmlns:xlink="http://www.w3.org/1999/xlink" width="36" height="106">
	<path fill="white" d="M9.3 105.499C4.2 105.499 0 101.291 0 96.1815L0 37.7713C0.1 32.4612 4.3 28.3535 9.3 28.3535L15.5 28.3535L15.4 27.2514C15.3 26.2495 15.3 25.2476 15.2 24.2457L13.2 24.3459L14.2 23.4442L7.2 23.6446L7.1 21.0397L4.6 21.0397L4.6 15.0284L7 15.0284L6.9 12.724L12.9 12.6238L13 15.1285L15.7 15.1285C16.3 12.0227 16.8 10.9206 17.2 10.4197L18.5 8.41588L16.2 8.41588L16.2 2.40454L18.6 2.40454L18.5 0L24.5 0L24.6 2.50473L27 2.50473L27 8.51607L24.8 8.51607L24.9 11.0208L21.9 11.121L22.9 12.724L22.3 13.8261C22.2 14.2268 22 15.0284 21.8 16.431L21.6 17.6333C21.5 18.4348 21.4 19.2363 21.4 20.0378C21.2 23.0435 21.4 25.949 21.6 27.8526L26.7 28.7543C31.7 28.7543 35.9 32.862 36 37.8715L36 96.6824C36 101.792 31.8 106 26.7 106L9.3 106M13.1 21.9414L13.1 22.9433L15.1 22.9433C15.1 22.6427 15.1 22.3422 15.1 22.0416L15.1 21.0397L13.1 21.0397M26.1 23.1437L23.6 23.1437L23.6 17.1323L26 17.1323L25.9 14.828L31.9 14.7278L32 17.2325L34.4 17.2325L34.4 23.2439L32.2 23.2439L32.3 25.7486L26.3 25.8488L26.1 23.1437"/>
	<path fill="#F43B3B" d="M26.5 102.493L9.2 102.493C5.7 102.493 2.9 99.6881 2.9 96.1815L2.9 37.5709C2.9 34.0643 5.7 31.259 9.2 31.259L26.5 31.259C30 31.259 32.8 34.0643 32.8 37.5709L32.8 96.1815C32.8 99.6881 30 102.493 26.5 102.493"/>
	<path fill="#2D1A0B" d="M26.5 103.495L9.2 103.495C5.2 103.495 1.9 100.189 1.9 96.1815L1.9 37.5709C1.9 33.5633 5.2 30.2571 9.2 30.2571L26.5 30.2571C30.5 30.2571 33.8 33.5633 33.8 37.5709L33.8 96.1815C33.8 100.189 30.6 103.495 26.5 103.495M9.3 32.2609C6.4 32.2609 4 34.6654 4 37.5709L4 96.1815C4 99.087 6.4 101.492 9.3 101.492L26.5 101.492C29.4 101.492 31.8 99.087 31.8 96.1815L31.8 37.5709C31.8 34.6654 29.4 32.2609 26.5 32.2609L9.3 32.2609"/>
	<path fill="#FACB62" d="M3 41.3781L32.9 41.3781L32.9 47.9905L3 47.9905L3 41.3781"/>
	<path fill="#2D1A0B" d="M33.8 48.8922L1.9 48.8922L1.9 40.276L33.8 40.276L33.8 48.8922M4 46.8885L31.9 46.8885L31.9 42.2798L4 42.2798L4 46.8885"/>
	<path fill="#FACB62" d="M3 80.9528L32.9 80.9528L32.9 87.5652L3 87.5652L3 80.9528"/>
	<path fill="#2D1A0B" d="M33.8 88.4669L1.9 88.4669L1.9 79.8507L33.8 79.8507L33.8 88.4669M4 86.4632L31.9 86.4632L31.9 81.8544L4 81.8544L4 86.4632"/>
	<path fill="#FACB62" d="M18.2 54.0784L28.5236 64.4216L18.2 74.7648L7.87625 64.4216L18.2 54.0784"/>
	<path fill="#2D1A0B" d="M18.2 76.1437L6.5 64.4216L18.2 52.6995L29.9 64.4216L18.2 76.1437M9.3 64.4216L18.2 73.3384L27.1 64.4216L18.2 55.5048L9.3 64.4216"/>
	<path fill="#2D1A0B" d="M17.9 31.259C17.9 31.0586 16.8 25.5482 17.3 19.3365C17.7 13.225 18.7 11.622 18.8 11.3214L20.5 12.4235C20.5 12.4235 19.7 13.9263 19.3 19.4367C18.9 25.3479 19.9 30.7581 19.9 30.8583L17.9 31.259"/>
	<path fill="#2D1A0B" d="M20.4812 1.54779L22.4806 1.54779L22.6372 8.45876L20.6378 8.50424L20.4812 1.54779"/>
	<path fill="#2D1A0B" d="M18.2 4.10775L25 4.10775L25 6.11153L18.2 6.11153L18.2 4.10775"/>
	<path fill="#2D1A0B" d="M8.88258 14.2808L10.882 14.2808L11.0391 21.1918L9.03968 21.2374L8.88258 14.2808"/>
	<path fill="#2D1A0B" d="M6.6 16.9319L13.4 16.9319L13.4 18.9357L6.6 18.9357L6.6 16.9319"/>
	<path fill="#2D1A0B" d="M27.8792 16.4755L29.8786 16.4755L30.0352 23.3864L28.0358 23.4319L27.8792 16.4755"/>
	<path fill="#2D1A0B" d="M25.6 19.1361L32.4 19.1361L32.4 21.1399L25.6 21.1399L25.6 19.1361"/>
</svg>
