<?xml version="1.0" encoding="utf-8" ?>
<svg xmlns="http://www.w3.org/2000/svg" xmlns:xlink="http://www.w3.org/1999/xlink" width="148" height="156">
	<path fill="white" d="M125.301 62.1C114.85 62.1 106.208 65.3 99.4747 71.6C97.5653 73.4 95.7565 75.3 94.0481 77.4C95.053 74.6 95.9575 72.8 96.5604 71.6C96.7614 71.2 96.9624 70.8 97.0629 70.6C99.0727 66.4 111.132 47.9 125.301 39.7L129.823 36.1C130.828 35.3 130.225 33.7 129.019 33.7C100.681 33.2 86.2097 44 78.4719 57.8C74.9547 64 72.2414 70.7 70.3321 77.6C69.9301 75.4 69.6286 73.2 69.2266 71C68.3222 65.6 67.3173 59.7 65.3075 54.1C67.8198 54.8 70.4325 55 72.6434 55C75.0552 55 76.864 54.8 76.9645 54.7L79.4768 54.3L79.5773 51.7C79.5773 50.5 79.6778 39.7 73.8493 34.6C73.1458 34 72.3419 33.4 71.538 32.9C78.0699 29 80.0798 18.6 80.2807 17.4L80.6827 14.9L78.2709 14.1C78.0699 14 73.2463 12.4 68.1212 12.4C65.006 12.4 62.2927 13 60.1824 14.3C59.5794 14.7 58.9765 15 58.474 15.4C57.3686 7.9 48.5253 2 47.5204 1.4L45.4101 0L43.7017 1.9C42.8978 2.8 35.7629 11 36.7678 18.5C36.9688 19.8 37.2703 21.1 37.6722 22.3C37.2703 22.3 36.7678 22.2 36.3658 22.2C36.1649 22.2 36.0644 22.2 35.8634 22.2C28.3265 22.2 21.1916 29.6 20.3876 30.4L18.6793 32.3L20.2872 34.3C20.9906 35.3 27.824 43.7 35.4614 44C35.7629 44 36.0644 44 36.3658 44C36.6673 44 36.8683 44 37.1698 44C34.557 50.5 37.2703 59.1 37.6722 60.2L38.4762 62.6L40.9885 62.2C42.1944 62 53.8514 60.3 58.1725 51.8C58.1725 51.8 60.4839 55.5 63.2976 70.8C68.2217 97.3 66.2119 101.9 66.2119 101.9C62.5942 90.5 55.8612 79.9 47.1185 71.6C40.3855 65.3 31.7432 62.1 21.2921 62.1C17.3729 62.1 7.12273 63 0.992733 65.1C-0.31366 65.5 -0.31366 67.3 0.892241 67.8L6.11781 69.9C18.8803 72.7 32.5471 84 35.0594 86.7C35.2604 86.9 35.4614 87.1 35.7629 87.4C37.6722 89.3 42.2948 94.1 46.7165 105.7L44.6062 105.7C41.5914 105.7 39.1796 108.1 39.1796 111.1C39.1796 114.3 41.5914 116.7 44.5057 116.8L47.7214 146.3C48.3244 151.8 53.0475 156 58.5745 156L88.4206 156C94.0481 156 98.6707 151.8 99.2737 146.3L102.489 116.8C105.404 116.7 107.715 114.3 107.715 111.4C107.715 108.1 105.303 105.7 102.288 105.7L100.178 105.7C104.499 94.1 109.222 89.3 111.132 87.4C111.433 87.1 111.634 86.9 111.835 86.7C114.347 83.9 128.014 72.7 140.777 69.9L147.007 68.1C148.314 67.7 148.314 65.9 147.108 65.5C139.973 63.3 129.22 62.1 125.301 62.1"/>
	<path fill="#60BF16" d="M95.7563 108.235C101.183 91.835 107.614 86.435 109.222 84.735C111.634 82.035 125.803 70.1351 139.671 67.0351C124.899 63.2351 111.031 64.7351 101.384 73.7351C91.7367 82.835 84.8027 94.735 81.788 107.635C81.4865 108.935 81.8885 110.235 82.5919 111.435C83.6973 113.335 85.7071 114.535 87.8175 114.935C90.6312 115.535 94.048 112.235 95.7563 108.235"/>
	<path fill="#2D1B0A" d="M88.5209 116C88.2194 116 87.918 116 87.6165 115.9C85.0037 115.4 82.8934 113.9 81.6875 111.9C80.7831 110.3 80.4816 108.8 80.7831 107.4C83.8983 94.4 90.9327 82.2 100.68 73.1C110.026 64.3 123.492 61.9 139.872 66.1L143.892 67.1L139.872 68C126.507 71 112.639 82.4 109.926 85.4C109.725 85.6 109.524 85.8 109.323 86C107.212 88.2 101.585 93.9 96.7612 108.5C95.0529 112.4 91.7367 116 88.5209 116M125.2 66.1C117.262 66.1 108.921 68.2 102.188 74.5C92.7416 83.4 85.9081 95.2 82.8934 107.9C82.5919 109 83.0944 110.2 83.5968 111C84.4008 112.5 86.1091 113.6 88.1189 114C90.2293 114.4 93.244 111.7 94.9524 108C99.8765 93 105.805 87 108.016 84.8C108.217 84.6 108.418 84.4 108.619 84.2C111.132 81.4 123.191 71.4 135.752 67.3C132.335 66.5 128.818 66.1 125.2 66.1"/>
	<path fill="#42B275" d="M50.6356 108.2C45.209 91.8001 38.7776 86.4001 37.1697 84.7001C34.7579 82.0001 20.5886 70.1001 6.7207 67.0001C21.493 63.2001 35.3609 64.7001 45.0081 73.7001C54.6553 82.7001 61.5892 94.7001 64.604 107.6C64.9054 108.9 64.5035 110.2 63.8 111.4C62.6946 113.3 60.6848 114.5 58.5745 114.9C55.7607 115.5 52.4445 112.2 50.6356 108.2"/>
	<path fill="#2D1B0A" d="M57.8711 116C54.6553 116 51.3391 112.5 49.6307 108.7C44.8071 94 39.1796 88.3 37.0693 86.1C36.8683 85.8 36.5668 85.6 36.4663 85.5C33.753 82.5 19.8852 71.1 6.51977 68.1L2.5001 67.2L6.51977 66.2C22.7994 62 36.3658 64.4 45.7116 73.2C55.4593 82.4 62.4937 94.6 65.6089 107.5C65.9104 108.9 65.6089 110.4 64.7045 112C63.5991 114 61.3883 115.5 58.7755 116C58.474 115.9 58.1725 116 57.8711 116M51.5401 107.9C53.2484 111.6 56.2632 114.4 58.3735 113.9C60.3834 113.5 62.0917 112.4 62.8957 110.9C63.2976 110.1 63.8001 108.9 63.5991 107.8C60.5843 95.2 53.7509 83.3 44.3047 74.4C34.4565 65.1 21.2921 65 10.8409 67C23.4024 71.1 35.4614 81.2 37.9737 83.9C38.0742 84.1 38.2752 84.3 38.5766 84.5C40.687 86.9 46.616 92.9 51.5401 107.9"/>
	<path fill="#299959" d="M87.1141 101.982C87.4156 80.6092 93.0432 71.9203 94.2491 69.2238C96.1584 65.129 108.418 45.8537 123.693 37.065C104.7 38.0637 89.0235 44.855 80.9841 59.1367C72.9448 73.4184 69.2266 90.097 70.4325 106.376C70.533 107.974 71.5379 109.472 72.7438 110.571C74.7537 112.368 77.5674 113.068 80.1802 112.835C83.6974 112.468 86.5112 107.375 87.1141 101.982"/>
	<path fill="#2D1B0A" d="M78.9743 113.85C76.261 113.85 73.7487 112.951 71.9399 111.253C70.332 109.755 69.4276 108.058 69.3271 106.46C68.1212 89.9807 71.9399 73.1024 80.0797 58.7208C87.8176 45.0384 102.891 37.2483 123.593 36.1497L127.713 35.95L124.095 38.0473C109.323 46.5364 97.1633 65.2125 95.053 69.8066C94.9525 70.1062 94.7515 70.4058 94.5505 70.8053C92.8422 74.201 88.2195 83.0896 88.0186 102.165C87.4156 107.758 84.5013 113.451 80.1802 113.95C79.8787 113.85 79.4768 113.85 78.9743 113.85M119.774 38.3469C101.786 40.1446 88.722 47.4353 81.7881 59.6197C73.8492 73.7016 70.131 90.2803 71.3369 106.26C71.4374 107.758 72.4423 108.956 73.3468 109.755C74.9546 111.253 77.4669 111.953 80.0797 111.753C82.793 111.453 85.5063 107.159 86.1092 101.865C86.4107 82.3905 91.1338 73.2022 92.8422 69.7067C93.0431 69.3072 93.1436 69.0076 93.3446 68.8079C95.3545 64.5134 106.107 47.7349 119.774 38.3469"/>
	<path fill="white" d="M88.2196 153L58.3735 153C54.3539 153 50.9371 150 50.5352 146L46.616 109.6L100.078 109.6L96.1584 146C95.656 149.9 92.2393 153 88.2196 153"/>
	<path fill="#2D1B0A" d="M88.2196 154L58.3735 154C53.8514 154 50.0327 150.6 49.5303 146.1L45.5106 108.6L101.183 108.6L97.1634 146.1C96.5604 150.6 92.7417 154 88.2196 154M47.7214 110.6L51.5401 145.9C51.9421 149.4 54.8563 152 58.3735 152L88.2196 152C91.7368 152 94.7516 149.4 95.053 145.9L98.8717 110.6L47.7214 110.6"/>
	<path fill="white" d="M101.987 113.8L44.3046 113.8C42.9982 113.8 41.8928 112.7 41.8928 111.4C41.8928 109.8 42.9982 108.7 44.3046 108.7L101.987 108.7C103.293 108.7 104.399 109.8 104.399 111.1C104.399 112.7 103.394 113.8 101.987 113.8"/>
	<path fill="#2D1B0A" d="M101.987 114.8L44.3045 114.8C42.3952 114.8 40.8878 113.3 40.8878 111.4C40.8878 109.2 42.3952 107.7 44.3045 107.7L101.987 107.7C103.896 107.7 105.404 109.2 105.404 111.1C105.404 113.3 103.896 114.8 101.987 114.8M44.405 109.7C43.6011 109.7 42.9981 110.3 42.9981 111.1C42.9981 112.2 43.6011 112.8 44.405 112.8L102.087 112.8C102.891 112.8 103.494 112.2 103.494 111.4C103.494 110.3 102.891 109.7 102.087 109.7L44.405 109.7"/>
	<path fill="#95E5DB" d="M55.4592 15.8242C56.3636 22.2242 53.5499 27.9242 49.2287 28.5242C44.9075 29.1242 40.5864 24.4242 39.6017 17.9242C38.7775 11.4242 45.812 3.7242 45.812 3.7242C45.812 3.7242 54.5548 9.4242 55.4592 15.8242"/>
	<path fill="#2D1B0A" d="M48.4247 29.6C46.3144 29.6 44.2041 28.5 42.3952 26.6C40.4859 24.5 39.1795 21.5 38.5968 18.2C37.7726 11.4 44.807 3.5 45.1085 3.2L46.4149 3.1C46.8169 3.3 55.5596 9 56.4641 15.8C57.469 22.8 54.2533 29 49.3292 29.7C49.0277 29.5 48.7262 29.6 48.4247 29.6M46.0129 5.1C44.4051 7.1 39.9834 13 40.6869 17.8C41.0888 20.7 42.1942 23.3 43.9026 25.2C45.5105 26.9 47.3193 27.8 49.0277 27.5C52.8464 27 55.2582 21.8 54.4542 15.9C53.7508 11.1 48.0228 6.6 46.0129 5.1"/>
	<path fill="#95E5DB" d="M36.1647 24.996C42.6966 25.3 47.8218 29 47.6265 33.4C47.4199 37.8 41.9932 41.1 35.4613 40.8C28.9293 40.5 22.4979 32.2 22.4979 32.2C22.4979 32.2 29.6328 24.8 36.1647 24.996"/>
	<path fill="#2D1B0A" d="M36.1674 41.9C35.866 41.9 35.6649 41.9 35.3633 41.9C28.4282 41.5999 21.8951 33.2961 21.6941 32.8959L21.7946 31.5953C22.0961 31.2952 29.3328 23.6917 36.1674 23.9832C39.4842 24.0919 42.6001 25.1924 45.0124 26.8932C47.4245 28.694 48.7311 30.9951 48.636 33.4962C48.4296 38.1983 42.9016 41.9 36.1674 41.9M23.9053 32.3957C25.614 34.2966 30.6395 39.699 35.5644 39.8991C41.4944 40.1992 46.52 37.2979 46.6204 33.3961C46.7209 31.5953 45.7159 29.8946 43.8061 28.4939C41.7961 26.9932 39.0822 26.0928 36.0669 25.9928C31.2425 25.7927 25.7145 30.5949 23.9053 32.3957"/>
	<path fill="#95E5DB" d="M40.3854 43.7C43.7016 38.1 49.5301 35.4 53.2483 37.7C57.067 39.9 57.3685 46.3 54.0523 51.9C50.736 57.5 40.2849 59.1 40.2849 59.1C40.2849 59.1 37.0691 49.3 40.3854 43.7"/>
	<path fill="#2D1B0A" d="M39.6819 60.1999C39.28 58.9999 35.9637 49.0999 39.5815 43.1999C43.1992 37.1999 49.6306 34.2999 53.8513 36.7999C58.0719 39.2999 58.5744 46.2999 54.9567 52.2999C51.4395 58.1999 40.9883 59.8999 40.4859 59.9999M50.2336 37.8999C47.2188 37.8999 43.6011 40.2999 41.1893 44.1999C38.677 48.3999 40.2849 55.4999 40.9883 57.8999C43.5006 57.3999 50.6355 55.4999 53.1478 51.2999C56.1626 46.1999 56.0621 40.4999 52.7459 38.4999C52.0424 38.0999 51.138 37.8999 50.2336 37.8999"/>
	<path fill="#95E5DB" d="M61.1874 48.6812C56.2633 44.3812 54.6554 38.2812 57.5697 34.9812C60.484 31.6812 66.8149 32.4812 71.7391 36.7812C76.6631 41.0812 76.3652 51.5812 76.3652 51.5812C76.3652 51.5812 66.1115 52.9812 61.1874 48.6812"/>
	<path fill="#2D1B0A" d="M72.5415 52.7999C68.9219 52.7999 63.7942 52.1999 60.5768 49.4999C55.2046 44.8999 53.6394 38.0999 56.8567 34.3999C58.4654 32.5999 61.0795 31.6999 64.0958 32.0061C67.0116 32.4999 69.9274 33.8999 72.4408 36.0999C77.6692 40.5999 77.4691 51.1999 77.4691 51.5999L76.6637 52.5999C76.3621 52.5999 74.7533 52.7999 72.5415 52.7999M62.5877 33.9999C60.7779 33.9999 59.2698 34.5999 58.3649 35.6999C55.8513 38.5999 57.3595 44.0999 61.8839 47.9999C65.604 51.1999 72.843 50.8999 75.3567 50.6999C75.2561 48.1999 74.7533 40.7999 71.0332 37.5999C68.8214 35.6999 66.2073 34.3999 63.7942 34.0999C63.392 33.9999 62.9899 33.9999 62.5877 33.9999"/>
	<path fill="#95E5DB" d="M69.8296 30.3C64.202 33.6 57.871 33.3 55.5597 29.5C53.3489 25.7 56.0622 20 61.5892 16.7C67.2168 13.4 77.1655 16.8 77.1655 16.8C77.1655 16.8 75.4571 27 69.8296 30.3"/>
	<path fill="#2D1B0A" d="M62.0917 33.6C61.8907 33.6 61.5892 33.6 61.3882 33.6C58.3735 33.4 55.9617 32.2 54.7558 30.1C53.5499 28 53.5499 25.3 54.7558 22.6C55.9617 20 58.273 17.6 61.0868 15.9C67.0157 12.4 77.0649 15.8 77.4669 15.9L78.1703 17C78.0698 17.4 76.261 27.7 70.2316 31.2C67.7192 32.7 64.8049 33.6 62.0917 33.6M68.0206 16.2C65.9103 16.2 63.8 16.5 62.1922 17.5C59.6799 19 57.67 21.1 56.5646 23.3C55.5597 25.4 55.5597 27.4 56.4641 28.9C57.3686 30.4 59.1774 31.3 61.4887 31.5C64.0011 31.6 66.7142 30.9 69.327 29.4C73.5477 26.9 75.5575 19.9 76.0601 17.4C74.5527 17.1 71.3369 16.2 68.0206 16.2"/>
	<path fill="#EFC029" d="M61.35 31.4809C61.7777 34.5443 58.3364 37.5513 53.6637 38.1972C48.991 38.8432 44.8564 36.8835 44.3928 33.8201C44.0011 30.7567 47.4423 27.7496 52.115 27.1037C56.7877 26.4577 60.9224 28.4175 61.35 31.4809"/>
	<path fill="#2D1B0A" d="M51.8414 39.3C50.0326 39.3 48.4247 39 46.9173 38.3C44.807 37.3 43.6011 35.8 43.2377 33.9001C42.9982 32.1001 43.8021 30.2001 45.6109 28.7001C47.2188 27.3001 49.4296 26.3001 51.9419 26C54.3537 25.7001 56.7655 26 58.7754 26.9001C60.8857 27.9001 62.0916 29.4001 62.3931 31.3001C62.8955 35 59.1773 38.4001 53.8513 39.2001C53.1478 39.2001 52.4444 39.3 51.8414 39.3M53.8513 27.9001C53.3488 27.9001 52.7459 27.9001 52.2434 28C50.1331 28.3001 48.3242 29.1 47.0178 30.2001C45.8119 31.2001 45.209 32.4001 45.41 33.6001C45.6109 34.7001 46.4149 35.7001 47.9222 36.4001C49.5301 37.1001 51.54 37.4001 53.5498 37.1001C57.5695 36.5 60.7852 34 60.3832 31.5C60.1822 30.4001 59.3783 29.4001 57.8709 28.7001C56.7655 28.2001 55.3586 27.9001 53.8513 27.9001"/>
	<path fill="#2D1B0A" d="M69.729 109.4C69.4277 96.7 67.3172 83.9 65.2069 71.6C63.8001 63.2 62.1922 53.7 56.6651 46.1L58.273 44.9C64.1015 52.9 65.7094 62.7 67.1162 71.3C69.2266 83.7 71.4374 96.6 71.6385 109.4L69.729 109.4"/>
</svg>
