<?xml version="1.0" encoding="utf-8" ?>
<svg xmlns="http://www.w3.org/2000/svg" xmlns:xlink="http://www.w3.org/1999/xlink" width="108" height="134">
	<path fill="white" d="M101.488 77.5314L84.1558 77.5314C87.1614 71.6138 88.3636 67 87.6623 63.3892C86.4601 57.271 78.0445 57.271 75.2393 57.271C72.4341 57.271 69.4286 57.5719 66.7236 57.8728C66.9239 57.6722 67.1243 57.5719 67.3247 57.4716C68.5269 56.6692 69.5288 55.9671 70.1299 55.5659C72.1336 53.9611 73.3358 49.3473 73.7365 41.9251C74.1373 41.4237 74.538 41.0225 74.9388 40.6213L74.9388 42.3263L96.2783 42.3263L104.794 42.3263L107.8 42.3263L107.8 39.3174C107.8 37.512 107.499 35.6063 106.898 33.9012L105.596 31.1931C103.993 28.1841 102.089 26.2784 99.4842 24.8743C98.5826 24.3728 98.4824 24.3728 98.282 24.2725L98.282 21.3638C98.282 18.756 97.7811 16.1482 96.7792 13.6407L95.4768 10.9326C95.1763 10.5314 94.9759 10.0299 94.6753 9.62874C92.6716 6.51946 90.3673 4.41317 87.462 2.90868C86.0594 2.10629 85.4583 1.80539 84.9573 1.60479C83.154 0.902695 81.6512 0.501497 80.0482 0.300898L77.0427 0C76.9425 0 76.7421 0 76.6419 0L74.3377 0C72.7347 0.401198 71.1317 0.802395 69.6289 1.50449C68.6271 1.90569 68.2263 2.10629 67.8256 2.30689C64.0186 4.21257 61.7143 6.31886 59.7106 9.32784L58.8089 10.732C58.8089 10.732 57.3061 13.4401 57.3061 13.4401C56.5046 16.0479 56.0037 18.6557 56.0037 21.2635L56.0037 24.2725L74.538 24.2725C74.1373 25.3757 73.9369 26.3787 73.7365 27.2814C73.436 28.6856 72.5343 29.3877 70.9314 30.5913C68.7273 32.2964 65.6215 34.6033 65.4212 40.1198C65.2208 45.3353 65.2208 45.3353 59.8108 49.0464C59.2096 49.4476 58.5083 49.9491 57.8071 50.4506C55.8033 51.8548 54.2004 53.4596 53.0983 55.265C50.7941 54.3623 47.7885 53.6602 44.4824 53.6602C42.8794 53.6602 42.1781 53.5599 41.7774 53.4596C41.7774 53.3593 41.7774 53.259 41.6772 53.1587C41.4768 52.256 41.1763 50.9521 40.1744 49.6482C39.3729 48.7455 38.5714 48.0434 37.6698 47.4416L41.3766 47.4416L44.3822 47.4416L44.3822 44.4326C44.3822 41.8249 43.8813 39.2171 42.8794 36.7096L41.577 34.0015C41.3766 33.6003 41.0761 33.1991 40.8757 32.7979C38.7718 29.5883 36.4675 27.482 33.5622 25.9775C32.1596 25.1751 31.5584 24.8743 31.0575 24.6737C29.2542 23.9716 27.7514 23.5704 26.1484 23.3698L23.1429 23.0689C22.9425 23.0689 22.7421 23.0689 22.5417 23.0689L20.3377 23.0689C18.7347 23.4701 17.1317 23.8713 15.6289 24.5734C14.7273 25.0749 14.2263 25.2754 13.8256 25.476C10.0186 27.3817 7.71429 29.488 5.71058 32.497L4.80891 33.9012C4.80891 33.9012 3.30612 36.6093 3.30612 36.6093C2.50464 39.2171 2.00371 41.8249 2.00371 44.4326L2.00371 47.4416L18.0334 47.4416C18.334 48.4446 18.8349 49.6482 19.5362 50.8518C19.3358 50.7515 19.0353 50.7515 18.8349 50.7515L15.8293 50.4506C15.7291 50.4506 15.7291 50.4506 15.6289 50.4506L12.9239 50.4506C12.2226 50.8518 11.5213 51.0524 10.9202 51.253L9.31725 51.9551C9.11688 52.0554 8.91651 52.0554 8.81633 52.1557C6.2115 53.6602 4.50835 55.0644 3.10575 57.1707L0.701299 61.1826C0.300557 62.988 0 64.6931 0 66.4985L0 69.5075L20.8386 69.5075C22.5417 69.6078 25.1466 69.8084 28.2523 69.8084C34.4638 69.8084 38.872 68.8054 41.577 66.7994L45.9852 63.4895C47.6883 63.7904 49.4917 64.2919 50.9944 64.7934C51.295 66.5988 52.0965 68.3039 53.5993 69.1063C54.8015 69.8084 56.705 69.9087 63.8182 70.1093C67.7254 70.2096 72.2338 70.4102 75.8404 70.7111C75.2393 71.8144 73.7365 74.021 70.3302 77.5314L21.2393 77.5314C17.7328 77.5314 14.9276 80.3398 14.9276 83.8503C14.9276 88.0629 17.7328 90.8713 21.2393 90.8713L24.9462 90.8713C27.551 93.8802 31.0575 99.497 30.757 108.223C30.4564 118.353 28.0519 130.289 28.0519 130.389L27.3506 134L101.288 134L99.384 129.787C88.6642 106.317 95.7774 95.1841 100.186 90.8713L101.688 90.8713C105.195 90.8713 108 88.0629 108 84.5524C108 80.4401 104.994 77.5314 101.488 77.5314M83.2542 24.8743C83.3544 24.6737 83.3544 24.5734 83.4545 24.3728C84.1558 24.3728 84.1558 24.4731 84.0557 24.4731C83.3544 24.774 83.2542 24.8743 83.2542 24.8743M32.0594 60.5808C31.5584 60.5808 31.0575 60.5808 30.6568 60.5808L29.4545 58.5749L28.6531 57.0704C27.9518 56.268 27.3506 55.5659 26.6494 54.8638C27.3506 54.9641 27.9518 54.9641 28.5529 54.9641C29.3544 54.9641 30.4564 55.0644 31.0575 55.1647C31.859 56.8698 33.2616 58.5749 35.2653 59.8787C34.564 60.2799 33.462 60.5808 32.0594 60.5808"/>
	<path fill="#299959" d="M41.1763 44.1317C41.1763 40.9222 40.2746 37.8129 38.7719 35.2051L23.243 44.1317L41.1763 44.1317C41.076 44.1317 41.1763 44.1317 41.1763 44.1317"/>
	<path fill="#2D1B0A" d="M41.0761 45.1347L22.4415 45.1347L22.0408 43.6302L39.1725 33.8009C41.2764 37.512 42.1781 40.8219 42.1781 44.1317L42.1781 45.1347L41.0761 45.1347M26.9499 43.1287L40.1744 43.1287C40.0742 40.8219 39.4731 38.6153 38.371 36.509L26.9499 43.1287"/>
	<path fill="#299959" d="M31.7588 28.1841C28.7532 26.5793 25.948 25.7769 23.1428 25.7769L23.1428 44.0314L31.7588 28.1841"/>
	<path fill="#2D1B0A" d="M23.7439 45.1348L22.0408 45.1348L22.0408 44.1318L22.0408 24.8743L23.0427 24.8743C26.0482 24.8743 28.8534 25.5764 31.5584 26.9806L32.961 27.9836L23.7439 45.1348M24.1447 26.8803L24.1447 40.3204L30.4564 28.5854C28.4527 27.5824 26.3488 27.0809 24.1447 26.8803"/>
	<path fill="#299959" d="M31.7589 28.1841L23.0427 44.1317L38.7718 35.2051C36.9685 32.0958 34.9648 29.8892 31.7589 28.1841"/>
	<path fill="#2D1B0A" d="M23.4435 45.1348L21.4398 45.1348L22.1411 43.6302L31.2579 26.8803C35.3656 28.8862 37.5696 31.0928 39.5733 34.6033L23.4435 45.1348M32.1597 29.5883L25.6475 41.5239L37.3693 34.8039C35.8665 32.3967 34.2635 30.8922 32.1597 29.5883"/>
	<path fill="#299959" d="M4.80901 44.1318C4.80901 40.9222 5.71068 37.8129 7.21346 35.2052L22.7422 44.1318L4.80901 44.1318"/>
	<path fill="#2D1B0A" d="M22.7422 45.1348L3.8071 45.1348L3.8071 44.1317C3.8071 40.8219 4.70877 37.6123 6.31174 34.7036L7.31359 34.1018L23.9444 43.6303L23.5436 45.1348M5.81081 43.1288L19.0353 43.1288L7.61415 36.509C6.51211 38.6153 5.911 40.8219 5.81081 43.1288"/>
	<path fill="#299959" d="M14.3265 28.1841C17.3321 26.5793 20.1373 25.7769 22.9425 25.7769L22.9425 44.0314L14.3265 28.1841"/>
	<path fill="#2D1B0A" d="M23.9443 45.1348L22.3413 45.1348L12.9239 27.8833L14.3265 26.9806C17.0315 25.5764 19.8367 24.8743 22.8423 24.8743L23.8441 24.8743L23.9443 45.1348M15.6289 28.5854L21.9406 40.3204L21.9406 26.8803C19.7365 26.9806 17.6326 27.5824 15.6289 28.5854"/>
	<path fill="#299959" d="M14.1262 28.2844L22.8423 44.232L7.11317 35.3054C8.91651 32.0958 10.9202 29.8892 14.1262 28.2844"/>
	<path fill="#2D1B0A" d="M24.5454 45.1347L22.5418 45.1347L5.81075 35.6062C8.31539 31.1931 10.5195 28.9865 13.7254 27.3817L15.128 27.8832L24.5454 45.1347M8.51576 34.8038L20.2374 41.5239L13.7254 29.5883C11.6215 30.8922 10.0185 32.3967 8.51576 34.8038"/>
	<path fill="#BF6015" d="M68.2264 52.7575C70.3303 51.1527 70.6308 40.22 70.6308 40.22C70.6308 40.22 74.4379 36.0075 74.5381 35.8069C75.7403 36.4087 78.3451 37.512 80.5492 36.4087C83.4546 34.9042 86.5603 31.494 86.5603 31.494L84.2561 29.8892C84.2561 29.8892 81.2505 36.0075 76.5418 33.1991C78.3451 30.7919 79.7477 28.485 79.5473 27.2814C78.9462 24.3727 84.2561 14.9446 84.2561 14.9446L82.1522 13.8413C82.1522 13.8413 77.744 21.7649 76.4416 27.482C75.1392 33.1991 68.5269 32.3967 68.2264 39.8188C67.9258 47.241 66.7236 47.241 59.3099 52.4566C56.5047 54.3623 55.0019 56.5688 54.2004 58.6751C51.9963 57.5718 48.4898 56.1676 44.1818 56.1676C36.8683 56.1676 39.5733 53.4596 37.5696 51.0524C35.5659 48.6452 32.9611 48.3443 28.052 48.1437C23.1429 47.9431 24.3451 43.0284 24.3451 43.0284L20.2375 43.229C20.2375 43.229 20.2375 46.4386 22.4416 49.5479C24.6457 52.7575 32.7607 50.0494 33.6624 52.9581C34.3637 55.0644 36.9685 57.2709 40.3748 58.5748C39.7737 59.2769 37.6698 63.0883 32.0594 63.0883C25.4471 63.0883 21.6401 63.8907 21.6401 63.8907L21.6401 65.7964C21.6401 65.7964 34.6642 67.4012 39.5733 63.7904C44.4824 60.0793 44.4824 60.0793 44.4824 60.0793C44.4824 60.0793 43.7811 59.4775 44.4824 59.5778C47.7885 60.0793 51.3952 61.0823 53.5993 61.8847C53.4991 63.8907 54.2004 65.4955 54.8015 65.7964C56.3043 66.5988 69.0279 66.2979 77.0427 67.3009C84.9574 68.3039 67.1243 84.0509 67.1243 84.0509L76.3414 83.8503C76.3414 83.8503 86.0594 70.5105 84.5566 63.3892C83.0538 56.2679 59.911 61.7844 57.7069 61.2829C55.4026 60.982 66.1225 54.3623 68.2264 52.7575"/>
	<path fill="#2C180C" d="M64.3192 85.2545L66.3229 83.4491C72.334 78.1332 78.5455 71.1123 77.8442 69.006C77.744 68.7051 77.3433 68.5045 76.7422 68.5045C72.8349 68.003 67.9258 67.9027 63.5177 67.7021C57.4064 67.5015 55.1021 67.4012 54.2004 66.8997C53.1986 66.3982 52.5975 64.7934 52.4973 62.7874C50.4936 62.0853 47.7885 61.2829 45.1837 60.8817L40.0743 64.7934C34.9648 68.7051 21.9407 67.1003 21.4397 67L20.4379 63.2889C21.4397 63.0883 25.2468 62.2859 31.859 62.2859C35.5659 62.2859 37.5696 60.4805 38.5715 59.2769C35.4657 57.8727 33.2616 55.7664 32.5603 53.5599C32.2598 52.7575 30.2561 52.6572 28.4527 52.6572C25.8479 52.5569 22.8424 52.4566 21.4397 50.4506C19.1355 47.0404 19.0353 43.6302 19.0353 43.5299L25.4472 42.226L25.1466 43.5299C25.1466 43.5299 24.7459 45.3353 25.5474 46.4386C25.9481 47.0404 26.7496 47.3413 27.8516 47.4416C32.9611 47.7425 35.8665 47.9431 38.1707 50.7515C38.872 51.6542 39.0724 52.6572 39.2728 53.4596C39.5733 54.7634 39.6735 55.5658 43.9815 55.5658C47.8887 55.5658 51.1949 56.6691 53.4991 57.6721C54.501 55.4655 56.2041 53.5599 58.5084 51.9551C59.2097 51.4536 59.911 50.9521 60.5121 50.5509C66.1225 46.7395 66.7236 46.3383 67.0242 40.0194C67.2245 35.4057 69.629 33.6003 71.8331 31.9955C73.436 30.7919 74.8386 29.6886 75.3396 27.5823C76.642 21.8652 80.95 14.0419 81.1503 13.741L85.5585 14.9446C82.9537 19.6587 80.0483 25.6766 80.449 27.482C80.6494 28.2844 80.5492 29.7889 78.0446 33.1991C78.6457 33.3997 79.2468 33.3997 79.8479 33.1991C81.9518 32.497 83.3544 29.8892 83.3544 29.8892L83.8553 28.7859L87.9629 31.7949C87.0613 32.6976 83.9555 36.2081 80.8498 37.7126C78.6457 38.8158 76.2412 38.1137 74.6383 37.4117C73.8368 38.3143 72.2338 40.0194 71.4323 40.9221C71.3321 43.9311 70.8312 52.1557 68.6271 53.7605C68.1262 54.1617 67.1244 54.7634 65.9221 55.6661C64.219 56.8697 60.6123 59.2769 59.0093 60.6811C59.911 60.5808 61.1132 60.3802 62.2153 60.2799C70.4305 59.1766 84.0557 57.3712 85.3581 63.5898C86.8609 71.1123 77.3433 84.2515 76.9425 84.8533L64.3192 85.2545M44.2821 58.7754C44.3822 58.7754 44.4824 58.7754 44.5826 58.7754C47.8887 59.2769 51.4954 60.2799 53.8999 61.1826C54.501 63.8907 55.1021 64.994 55.3025 65.0943C56.0038 65.3952 60.1114 65.4955 63.718 65.5958C68.1262 65.6961 73.1355 65.8967 77.1429 66.3982C79.0464 66.5988 79.7477 67.6018 79.9481 68.3039C81.0501 71.8143 73.7366 79.3368 69.8294 83.0479L75.9407 82.9476C77.5436 80.741 84.9574 69.7081 83.7552 63.6901C82.8535 59.2769 69.3284 61.0823 62.8164 61.8847C59.7106 62.2859 58.308 62.4865 57.6067 62.2859C57.0056 62.1856 56.6049 61.7844 56.5047 61.2829C56.2041 59.979 57.9073 58.4745 65.1206 53.5599C66.2227 52.7575 67.2245 52.1557 67.7255 51.7545C68.8275 50.9521 69.629 45.0344 69.7292 40.0194C69.9295 39.3173 73.6364 35.2051 73.8368 35.0045L75.039 34.8039C75.9407 35.3054 78.3451 36.3084 80.1485 35.4057C82.052 34.503 83.9555 32.5973 85.0576 31.5943C83.9555 32.3967 82.5529 34.1018 80.5492 34.7036C79.0464 35.2051 77.5436 34.9042 76.0409 34.1018L75.039 33.5C78.7459 28.6856 78.5455 27.5823 78.5455 27.482C77.9444 24.7739 81.3507 18.0539 82.8535 15.3458C81.4509 17.3518 78.4453 23.2694 77.4435 27.5823C76.7422 30.491 74.8386 31.8952 73.1355 33.1991C71.1318 34.7036 69.3284 36.1078 69.1281 39.7185C68.8275 46.7395 67.7255 47.7425 61.8145 51.7545C61.2134 52.1557 60.5121 52.6572 59.8108 53.1587C57.5065 54.7634 55.9036 56.6691 55.1021 58.8757L54.7013 59.979L53.6995 59.4775C51.5956 58.3742 48.1893 57.0703 44.0817 57.0703C38.5715 57.0703 37.8702 55.5658 37.3693 53.3593C37.2691 52.7575 37.0687 52.0554 36.668 51.5539C35.065 49.5479 32.9611 49.247 27.8516 48.9461C26.1485 48.8458 24.8461 48.244 24.0446 47.1407C23.2431 46.0374 23.1429 44.8338 23.1429 43.8308L21.2394 43.9311C21.4397 45.0344 21.8405 46.9401 23.1429 48.7455C23.9444 49.9491 26.449 50.0494 28.5529 50.1497C31.1577 50.25 33.7626 50.3503 34.4639 52.4566C35.065 54.262 37.4694 56.2679 40.5752 57.3712L41.9778 57.8727L40.9759 58.976C40.8757 59.0763 40.8757 59.1766 40.6754 59.2769C39.7737 60.4805 37.2691 63.6901 31.859 63.6901C27.1503 63.6901 23.8442 64.0913 22.4416 64.3922C25.347 64.8937 34.9648 65.4955 38.7718 62.6871L42.9796 59.5778C42.9796 59.3772 42.9796 59.1766 43.0798 58.976C43.2802 59.2769 43.5808 58.7754 44.2821 58.7754"/>
	<path fill="#299959" d="M28.4527 65.997C28.4527 63.6901 27.8516 61.5839 26.7495 59.6782L15.8293 65.997L28.4527 65.997"/>
	<path fill="#2D1B0A" d="M28.4527 67L15.0278 67L14.6271 65.4955L27.1502 58.274C28.8534 61.283 29.4546 63.5898 29.4546 65.997L29.4546 67L28.4527 67M19.5361 64.994L27.4508 64.994C27.3507 63.5898 26.9499 62.286 26.449 61.0824L19.5361 64.994"/>
	<path fill="#299959" d="M21.8405 54.7635C19.7366 53.5599 17.833 53.0584 15.7291 53.0584L15.7291 65.997L21.8405 54.7635"/>
	<path fill="#2D1B0A" d="M16.3303 67L14.7273 67L14.6271 65.997L14.6271 52.0554L15.629 52.0554C17.7329 52.0554 19.8368 52.5569 21.7403 53.5599L23.0427 54.4626L16.3303 67M16.731 54.1617L16.731 62.1856L20.5381 55.1647C19.3358 54.5629 18.0334 54.262 16.731 54.1617"/>
	<path fill="#299959" d="M21.8405 54.7635L15.7292 65.997L26.7496 59.6782C25.5473 57.4716 24.1447 55.9671 21.8405 54.7635"/>
	<path fill="#2D1B0A" d="M16.0297 67L14.026 67L14.8275 65.4955L21.3395 53.4596C24.5455 55.0644 26.1484 56.6692 27.551 59.1767L16.0297 67M22.2412 56.1677L18.334 63.3892L25.4472 59.277C24.4453 57.8728 23.5436 56.9701 22.2412 56.1677"/>
	<path fill="#299959" d="M2.80519 65.997C2.80519 63.6901 3.4063 61.5838 4.50834 59.6781L15.4286 65.997L2.80519 65.997"/>
	<path fill="#2D1B0A" d="M15.4285 67L1.80334 67L1.80334 65.997C1.80334 63.5898 2.40445 61.2829 3.60668 59.1766L4.60853 58.5748L16.6308 65.4955L16.23 67M3.80705 64.994L11.7217 64.994L4.90909 61.0823C4.30798 62.2859 3.90724 63.6901 3.80705 64.994"/>
	<path fill="#299959" d="M9.51762 54.7634C11.6215 53.5598 13.525 53.0583 15.6289 53.0583L15.6289 65.9969L9.51762 54.7634"/>
	<path fill="#2D1B0A" d="M16.6308 67L15.0278 67L8.21521 54.4625L9.51762 53.6601C11.4212 52.6571 13.525 52.1557 15.6289 52.1557L16.6308 52.1557L16.6308 67M10.82 55.1646L14.6271 62.1856L14.6271 54.1616C13.3247 54.2619 12.0223 54.5628 10.82 55.1646"/>
	<path fill="#299959" d="M9.41743 54.7635L15.5287 65.997L4.50834 59.6782C5.71057 57.4716 7.11316 55.9671 9.41743 54.7635"/>
	<path fill="#2D1B0A" d="M17.2318 67L15.2281 67L3.00555 60.0794C4.90908 56.6692 6.51204 55.0644 8.81631 53.8608L10.2189 54.3623L17.2318 67M5.91093 59.277L13.0242 63.3892L9.11687 56.1677C7.71427 56.9701 6.8126 57.9731 5.91093 59.277"/>
	<path fill="#299959" d="M104.694 38.8159C104.694 36.4087 104.093 34.1018 102.89 32.1961L91.3691 38.8159L104.694 38.8159"/>
	<path fill="#2D1B0A" d="M104.694 39.8189L90.6678 39.8189L90.2671 38.3144L103.291 30.7919C105.095 33.8009 105.696 36.3084 105.696 38.8159L105.696 39.8189L104.694 39.8189M95.1762 37.8129L103.692 37.8129C103.592 36.3084 103.191 34.9042 102.59 33.5L95.1762 37.8129"/>
	<path fill="#299959" d="M97.781 26.9806C95.577 25.777 93.5732 25.1752 91.3692 25.1752L91.3692 38.7156L97.781 26.9806"/>
	<path fill="#2D1B0A" d="M91.9703 39.8189L90.3673 39.8189L90.2671 38.8159L90.2671 24.2725L91.269 24.2725C93.5732 24.2725 95.6771 24.8743 97.6809 25.8773L98.9833 26.78L91.9703 39.8189M92.371 26.2785L92.371 34.9042L96.4786 27.3818C95.076 26.78 93.7736 26.4791 92.371 26.2785"/>
	<path fill="#299959" d="M97.7811 27.0809L91.3692 38.9162L102.991 32.2965C101.588 29.8893 100.186 28.2845 97.7811 27.0809"/>
	<path fill="#2D1B0A" d="M91.6698 39.8189L89.6661 39.8189L90.4675 38.3144L97.3803 25.6767C100.686 27.2815 102.39 28.9866 103.892 31.5944L91.6698 39.8189M98.1818 28.3848L93.8738 36.2081L101.588 31.795C100.586 30.2905 99.4842 29.2875 98.1818 28.3848"/>
	<path fill="#299959" d="M77.7439 38.8158C77.7439 36.4086 78.3451 34.1018 79.5473 32.1961L91.0686 38.8158L77.7439 38.8158"/>
	<path fill="#2D1B0A" d="M91.0686 39.8188L76.7421 39.8188L76.7421 38.8158C76.7421 36.3083 77.4434 33.9012 78.6456 31.6946L79.6475 31.0928L92.1707 38.3143L91.7699 39.8188M78.7458 37.8128L87.2616 37.8128L79.8479 33.5C79.2467 34.9042 78.9462 36.4086 78.7458 37.8128"/>
	<path fill="#299959" d="M84.8571 26.9806C87.0612 25.777 89.0649 25.1752 91.269 25.1752L91.269 38.7156L84.8571 26.9806"/>
	<path fill="#2D1B0A" d="M92.2709 39.8189L90.6679 39.8189L83.4545 26.6797L84.757 25.8773C86.7607 24.8743 88.9647 24.2725 91.1688 24.2725L92.1707 24.2725L92.2709 39.8189M86.1596 27.3818L90.2672 34.9042L90.2672 26.2785C88.8646 26.4791 87.462 26.78 86.1596 27.3818"/>
	<path fill="#299959" d="M84.6568 27.0809L91.0686 38.9162L79.4472 32.2964C80.8498 29.8892 82.3525 28.2844 84.6568 27.0809"/>
	<path fill="#2D1B0A" d="M92.7719 39.8189L90.7682 39.8189L78.0445 32.5973C80.0483 29.0868 81.7514 27.3817 84.1559 26.1781L85.5585 26.6796L92.7719 39.8189M80.9499 31.7949L88.6642 36.208L84.3562 28.3847C82.9536 29.2874 81.8516 30.2904 80.9499 31.7949"/>
	<path fill="#299959" d="M85.859 5.01499C82.8534 3.41019 80.0482 2.6078 77.243 2.6078L77.243 20.8623L85.859 5.01499"/>
	<path fill="#2D1B0A" d="M77.8441 21.9657L76.141 21.9657L76.141 20.9627L76.141 1.7052L77.1429 1.7052C80.1484 1.7052 82.9536 2.4073 85.6586 3.81149L87.0612 4.81448L77.8441 21.9657M78.2449 3.71119L78.2449 17.1513L84.5566 5.41628C82.5529 4.41328 80.449 3.81149 78.2449 3.71119"/>
	<path fill="#299959" d="M85.859 5.01494L77.1428 20.9625L92.8719 12.0359C91.0686 8.82632 89.0649 6.72003 85.859 5.01494"/>
	<path fill="#2D1B0A" d="M77.5436 21.9655L75.5398 21.9655L76.2411 20.4611L85.358 3.71105C89.4657 5.71704 91.6697 7.92362 93.6734 11.4341L77.5436 21.9655M86.2598 6.41913L79.7476 18.3547L91.4693 11.6347C89.9665 9.22752 88.3635 7.62273 86.2598 6.41913"/>
	<path fill="#299959" d="M58.9091 20.9626C58.9091 17.753 59.8108 14.6437 61.3136 12.036L76.8423 20.9626L58.9091 20.9626"/>
	<path fill="#2D1B0A" d="M76.8423 21.9655L57.9072 21.9655L57.9072 20.9625C57.9072 17.6527 58.8089 14.4431 60.4118 11.5344L61.4137 10.9326L78.0445 20.4611L77.6437 21.9655M59.9109 19.9596L73.1354 19.9596L61.7142 13.3398C60.6122 15.4461 60.0111 17.6527 59.9109 19.9596"/>
	<path fill="#299959" d="M68.4267 5.01489C71.4323 3.41009 74.2375 2.6077 77.0427 2.6077L77.0427 20.8622L68.4267 5.01489"/>
	<path fill="#2D1B0A" d="M78.0445 21.8653L76.4415 21.8653L67.0241 4.61378L68.4267 3.71109C71.1317 2.3069 73.9369 1.6048 76.9425 1.6048L77.9443 1.6048L78.0445 21.8653M69.7291 5.41618L76.0408 17.1512L76.0408 3.71109C73.8367 3.81139 71.7328 4.41318 69.7291 5.41618"/>
	<path fill="#299959" d="M68.2264 5.015L76.9425 20.9626L61.2134 12.036C63.0167 8.92668 65.0204 6.72009 68.2264 5.015"/>
	<path fill="#2D1B0A" d="M78.6456 21.9656L76.642 21.9656L59.9109 12.4371C62.4156 8.02397 64.6197 5.81739 67.8256 4.2126L69.2282 4.81439L78.6456 21.9656M62.616 11.6348L74.3376 18.3548L67.8256 6.41918C65.7217 7.62278 64.1187 9.22757 62.616 11.6348"/>
	<path fill="#299959" d="M95.2764 20.9626C95.2764 17.7531 94.3747 14.6438 92.872 12.036L77.3432 20.9626L95.2764 20.9626C95.1762 20.9626 95.2764 20.9626 95.2764 20.9626"/>
	<path fill="#2D1B0A" d="M95.1762 21.9656L76.5416 21.9656L76.1409 20.4611L93.2726 10.6318C95.3765 14.3429 96.2782 17.5525 96.2782 20.8623L96.2782 21.8653L95.1762 21.9656M81.05 19.9596L94.2745 19.9596C94.1743 17.6528 93.5732 15.4462 92.4711 13.3399L81.05 19.9596"/>
	<path fill="white" d="M23.9443 85.756L101.388 85.756C101.388 85.756 80.6493 96.1871 96.3783 130.69L30.857 130.69C30.857 130.69 33.2615 118.554 33.5621 108.023C33.9629 92.5764 23.9443 85.756 23.9443 85.756"/>
	<path fill="#2D1B0A" d="M97.8812 131.693L29.5547 131.693L29.7551 130.49C29.7551 130.389 32.1595 118.353 32.4601 108.023C32.8608 93.2785 23.3432 86.6587 23.243 86.5584L20.538 84.753L105.495 84.753L101.688 86.6587C100.887 87.0599 81.9517 97.0898 97.0797 130.289L97.8812 131.693M31.9592 129.687L94.7755 129.687C83.3543 103.509 93.0723 91.0719 98.1818 86.759L26.5491 86.759C29.6549 89.768 34.8645 96.6886 34.4638 108.123C34.2634 116.648 32.5603 126.377 31.9592 129.687"/>
	<path fill="white" d="M101.388 87.5613L20.9388 87.5613C19.1354 87.5613 17.6327 86.0568 17.6327 84.2514C17.6327 81.744 19.1354 80.2395 20.9388 80.2395L101.388 80.2395C103.191 80.2395 104.694 81.744 104.694 83.5494C104.694 86.0568 103.191 87.5613 101.388 87.5613"/>
	<path fill="#2D1B0A" d="M101.388 88.5643L20.9387 88.5643C18.5342 88.5643 16.6307 86.6586 16.6307 84.2514C16.6307 81.1422 18.5342 79.2365 20.9387 79.2365L101.388 79.2365C103.792 79.2365 105.696 81.1422 105.696 83.5493C105.696 86.5583 103.792 88.5643 101.388 88.5643M20.9387 81.2425C19.6363 81.2425 18.6344 82.2455 18.6344 83.5493C18.6344 85.5553 19.6363 86.5583 20.9387 86.5583L101.388 86.5583C102.69 86.5583 103.692 85.5553 103.692 84.2514C103.692 82.2455 102.69 81.2425 101.388 81.2425L20.9387 81.2425"/>
</svg>
