<?xml version="1.0" encoding="utf-8" ?>
<svg xmlns="http://www.w3.org/2000/svg" xmlns:xlink="http://www.w3.org/1999/xlink" width="116" height="82">
	<path fill="white" d="M116 14.524C116 11.0947 113.608 8.67405 110.619 8.67405L85.2062 8.67405C81.6186 4.74047 76.9347 2.01722 71.9519 0.806888C69.6598 0.302583 67.1684 0 64.1787 0C61.8866 0 59.5945 0.100861 57.3024 0.806888C50.0275 2.92497 46.7388 6.4551 44.945 8.97663C43.4502 10.9938 42.1546 13.5154 41.0584 16.5412C40.9588 16.4403 40.8591 16.3395 40.7595 16.2386C38.1684 13.7171 34.6804 12.5068 31.89 11.4982L28.3024 10.187C25.811 9.27921 23.2199 8.47232 20.5292 8.47232C19.2337 8.47232 17.9381 8.67405 16.8419 9.07749C14.6495 9.78352 12.9553 11.1956 11.4605 12.6076L3.78694 19.3653L13.8522 17.8524C14.8488 17.7515 15.8454 17.5498 16.7423 17.5498C17.2405 17.5498 17.7388 17.5498 18.1375 17.7515C20.2302 18.2558 22.0241 20.5756 23.7182 22.9963C24.5155 24.2066 25.512 25.6187 26.8076 27.0308L24.5155 26.2239C22.0241 25.3161 19.433 24.5092 16.7423 24.5092C15.4467 24.5092 14.1512 24.7109 13.055 25.1144C10.8625 25.8204 9.16838 27.2325 7.67354 28.6445L0 35.4022L10.0653 33.8893C11.0619 33.7884 12.0584 33.5867 12.9553 33.5867C13.4536 33.5867 13.9519 33.5867 14.3505 33.7884C16.4433 34.2927 18.2371 36.6125 19.9313 39.0332C21.7251 41.6556 24.4158 45.5892 28.8007 46.7995C29.7973 47.1021 30.9931 47.203 32.189 47.203C32.8866 47.203 33.9828 47.1021 35.079 46.9004L36.8729 47.8081C38.3677 49.6236 41.1581 50.6322 44.3471 50.6322C45.1443 50.6322 45.9416 50.5314 46.7388 50.4305C50.1271 49.8253 52.6186 47.5055 54.512 45.3875L55.11 50.6322C55.2096 51.8426 55.5086 52.952 56.0069 54.0615C54.3127 54.5658 52.8179 55.4736 52.8179 57.5916C52.8179 60.3149 54.9107 61.2226 59.4948 61.7269C59.2955 62.9373 59.4948 64.2485 59.5945 65.5597C59.6942 66.5683 59.7938 67.5769 59.7938 68.5855C59.7938 70.6027 59.0962 72.8216 57.701 73.4268C57.6014 73.5277 57.5017 73.5277 57.3024 73.6285C56.4055 74.032 54.811 74.5363 54.0137 76.2509L53.1168 78.0664L58.4983 80.7897L59.1959 79.3776C59.2955 79.3776 59.3952 79.2768 59.4948 79.2768C59.6942 79.1759 59.8935 79.075 60.0928 78.9742C63.5808 77.4613 65.6735 73.6285 65.7732 68.6863C65.7732 67.2743 65.6735 65.9631 65.5739 64.9545C65.4742 64.0467 65.3746 62.6347 65.4742 62.3321C65.8729 62.2312 66.1718 62.2312 66.3711 62.2312C66.4708 62.2312 66.5704 62.2312 66.6701 62.2312C67.268 62.2312 67.9656 62.2312 68.6632 62.2312C70.6564 62.2312 72.6495 62.3321 74.543 62.433C76.5361 62.5338 78.6289 62.6347 80.7216 62.6347C85.0069 62.6347 89.1924 62.5338 92.9794 62.3321C94.7732 63.7442 96.1684 65.7614 96.567 67.8795C96.7663 68.6863 96.866 69.5941 96.9656 70.6027C97.0653 71.7122 97.1649 72.8216 97.4639 74.032C98.1615 77.4613 100.155 80.0836 102.845 81.1931L104.639 82L106.931 76.4526L105.137 75.6458C103.842 75.1415 103.443 73.326 103.244 72.8216C103.045 72.0148 102.945 71.107 102.945 70.0984C102.845 68.9889 102.746 67.7786 102.447 66.5683C102.048 64.9545 101.351 63.3407 100.454 61.8278C105.935 61.3235 108.526 60.5166 108.526 57.4908C108.526 55.877 107.629 54.9692 106.533 54.4649C107.131 53.2546 107.529 51.9434 107.629 50.5314L108.625 40.8487L109.024 36.8143L110.519 22.9963L111.416 19.7688C114.007 19.567 116 17.2472 116 14.524M36.0756 31.1661C36.5739 31.1661 37.0722 31.1661 37.6701 31.0652C37.5704 31.5695 37.4708 32.0738 37.3711 32.5781C37.2715 32.4772 37.1718 32.3764 36.9725 32.1747C36.5739 31.7712 36.1753 31.4686 35.7766 31.1661C35.8763 31.1661 35.9759 31.1661 36.0756 31.1661M64.2784 6.05166C66.6701 6.05166 68.7629 6.25338 70.6564 6.65683C72.4502 7.06027 74.1443 7.7663 75.7388 8.67405L54.2131 8.67405C55.5086 7.86716 57.1031 7.16113 59.0962 6.55597C60.6907 6.05166 62.4845 6.05166 63.8797 6.05166M44.646 31.4686C44.4467 31.5695 43.5498 32.4772 43.5498 32.4772C43.6495 31.9729 43.7491 31.5695 43.8488 31.0652C44.0481 31.2669 44.3471 31.3678 44.646 31.4686"/>
	<path fill="white" d="M96.2681 57.7934L65.8728 57.7934C61.787 57.7934 58.299 54.6667 57.8007 50.5314L53.8144 12.8094L108.326 12.8094L104.34 50.5314C103.842 54.6667 100.354 57.7934 96.2681 57.7934"/>
	<path fill="#2D1B0A" d="M96.2681 58.802L65.8729 58.802C61.2887 58.802 57.4021 55.2719 56.9039 50.6323L52.7183 11.8008L109.423 11.8008L105.237 50.6323C104.739 55.2719 100.952 58.802 96.2681 58.802M54.9107 13.7172L58.7973 50.3297C59.196 53.9607 62.1856 56.6839 65.8729 56.6839L96.2681 56.6839C99.8558 56.6839 102.945 53.9607 103.344 50.3297L107.23 13.7172L54.9107 13.7172"/>
	<path fill="white" d="M110.419 17.1464L51.5224 17.1464C50.2269 17.1464 49.1306 16.0369 49.1306 14.7257C49.1306 13.0111 50.2269 11.9016 51.5224 11.9016L110.419 11.9016C111.715 11.9016 112.811 13.0111 112.811 14.3223C112.811 16.0369 111.715 17.1464 110.419 17.1464"/>
	<path fill="#2D1B0A" d="M110.419 18.155L51.5224 18.155C49.6289 18.155 48.1341 16.6421 48.1341 14.7257C48.1341 12.4059 49.6289 10.893 51.5224 10.893L110.419 10.893C112.313 10.893 113.808 12.4059 113.808 14.3223C113.808 16.6421 112.313 18.155 110.419 18.155M51.5224 12.9102C50.7252 12.9102 50.1272 13.5154 50.1272 14.3223C50.1272 15.5326 50.7252 16.1378 51.5224 16.1378L110.419 16.1378C111.217 16.1378 111.814 15.5326 111.814 14.7257C111.814 13.5154 111.217 12.9102 110.419 12.9102L51.5224 12.9102"/>
	<path fill="#60BF16" d="M41.2578 37.9238C43.5499 36.0074 46.4399 35.2006 49.3299 34.3937C50.5258 34.0911 51.8214 33.6876 53.0173 33.3851C56.2062 32.4773 59.5946 31.6704 62.6838 32.9816C64.2784 33.6876 65.6735 34.9988 66.8694 36.2092C65.0757 35.8057 63.2818 35.4023 61.488 35.7049C58.1993 36.31 55.8076 39.0333 53.8144 41.6557C51.7216 44.2781 49.3299 47.0013 46.1409 47.7073C44.0482 48.1108 39.8626 47.8082 38.7664 45.5893C37.2715 42.9669 39.3643 39.4367 41.2578 37.9238"/>
	<path fill="#2D1B0A" d="M44.1477 48.8167C41.6563 48.8167 38.7663 48.0099 37.6701 45.9926C36.0756 42.866 38.4673 38.9324 40.5601 37.1169C43.0515 35.0997 46.1409 34.1919 48.9312 33.3851L52.6185 32.3764C56.2061 31.3678 59.6941 30.6618 62.8831 31.973C64.6769 32.7799 66.0721 34.0911 67.3677 35.4023L69.7594 37.8229L66.4708 37.1169C64.7766 36.7135 63.0824 36.4109 61.4879 36.6126C58.6976 37.1169 56.5051 39.5376 54.4123 42.16C52.5189 44.5807 49.9278 47.8082 46.1409 48.5143C45.5429 48.8167 44.945 48.8167 44.1477 48.8167M59.0962 33.2842C57.3024 33.2842 55.3092 33.7885 53.2165 34.2928L49.5292 35.3014C46.9381 36.0074 44.0481 36.8143 41.8556 38.6298C40.2611 39.941 38.3677 43.0677 39.4639 45.0849C40.2611 46.6987 43.7491 47.1021 45.7422 46.6987C48.5326 46.1945 50.725 43.6729 52.8178 41.0505C55.1099 38.2264 57.6013 35.4023 61.0893 34.7971C61.8866 34.6963 62.6838 34.5954 63.3814 34.6963C62.9828 34.3937 62.4845 34.1919 62.0859 33.9902C61.189 33.4859 60.1924 33.2842 59.0962 33.2842"/>
	<path fill="#60BF16" d="M45.8418 19.567C48.0343 17.5498 50.9243 16.6421 53.7147 15.7343C54.9106 15.3309 56.1064 14.9274 57.3023 14.6249C60.3917 13.6162 63.8796 12.6076 66.8693 13.818C68.5635 14.4231 69.859 15.6335 71.1545 16.9447C69.3607 16.6421 67.4673 16.3395 65.7731 16.6421C62.5841 17.3481 60.292 20.1722 58.2989 22.8955C56.3058 25.6187 54.1133 28.4428 50.8246 29.1488C48.7319 29.6531 44.646 29.4514 43.3504 27.3333C42.0549 24.9126 43.9484 21.2817 45.8418 19.567"/>
	<path fill="#2D1B0A" d="M48.6323 30.46C46.2406 30.46 43.5498 29.754 42.5533 27.8376C40.8591 24.7109 43.0516 20.6765 45.1443 18.7601C47.5361 16.6421 50.6254 15.6335 53.4158 14.7257L57.0034 13.6162C60.5911 12.5068 63.9794 11.599 67.268 12.8093C69.0619 13.5154 70.457 14.7257 71.8522 16.1378L74.3436 18.4576L71.055 17.8524C69.3608 17.5498 67.6667 17.2472 65.9725 17.5498C63.1821 18.155 61.0893 20.6765 59.0962 23.3998C57.3024 25.8204 54.811 29.1488 51.0241 30.0566C50.3265 30.3592 49.5292 30.46 48.6323 30.46M63.8797 14.3223C61.8866 14.3223 59.7938 14.9274 57.701 15.6335L54.1134 16.7429C51.5223 17.5498 48.6323 18.4576 46.5395 20.3739C44.945 21.786 43.2509 24.9127 44.3471 26.9299C45.244 28.4428 48.6323 28.7454 50.7251 28.2411C53.5155 27.6359 55.6082 25.1144 57.6014 22.2903C59.7938 19.3653 62.1856 16.4403 65.6735 15.6335C66.4708 15.4317 67.1684 15.4317 67.9656 15.4317C67.567 15.1292 67.0687 14.9274 66.5704 14.7257C65.6735 14.524 64.7766 14.3223 63.8797 14.3223"/>
	<path fill="#60BF16" d="M34.7799 34.5953C32.6871 32.5781 29.7971 31.4686 27.0067 30.5609C25.8108 30.1574 24.6151 29.754 23.4191 29.2497C20.3298 28.1402 16.9415 27.0308 13.8521 28.1402C12.158 28.7454 10.7628 29.8549 9.46725 31.0652C11.2611 30.7626 13.1545 30.5609 14.8487 30.9643C18.0377 31.7712 20.2302 34.6962 22.1236 37.4194C24.017 40.1427 26.2095 43.0677 29.3985 43.9754C31.4913 44.5806 35.5773 44.5806 36.8727 42.3617C38.3675 40.0419 36.5737 36.31 34.7799 34.5953"/>
	<path fill="#2D1B0A" d="M31.9896 45.3875C30.993 45.3875 29.9965 45.2866 29.0996 45.0849C25.4123 44.0763 23.0205 40.647 21.3264 38.1255C19.4329 35.3014 17.4398 32.7798 14.6494 32.0738C13.0549 31.6704 11.2611 31.8721 9.56692 32.1747L6.1786 32.679L8.76967 30.46C10.2645 29.1488 11.6597 27.9385 13.5532 27.3333C16.8418 26.2239 20.2301 27.2325 23.8178 28.4428L27.4054 29.754C30.0961 30.7626 33.1855 31.7712 35.4776 33.9902C37.5704 35.9065 39.5635 40.0418 37.7697 43.0677C36.6734 44.7823 34.182 45.3875 31.9896 45.3875M12.7559 29.754C13.5532 29.754 14.2508 29.8549 15.048 30.0566C18.536 30.9643 20.8281 33.9902 22.9209 36.9151C24.914 39.7392 26.8075 42.3616 29.5978 43.0677C31.591 43.572 35.0789 43.4711 35.9759 41.9582C37.1717 40.0418 35.5772 36.8143 33.9827 35.4022C31.9896 33.4859 29.0996 32.4773 26.6082 31.5695L23.0205 30.2583C19.8315 29.1488 16.8418 28.2411 14.1511 29.1488C13.6528 29.2497 13.2542 29.5523 12.7559 29.754"/>
	<path fill="#60BF16" d="M38.5668 18.5584C36.4741 16.5412 33.5841 15.4317 30.7936 14.524C29.5977 14.1206 28.402 13.7171 27.2061 13.2128C24.1166 12.1033 20.7284 10.9939 17.639 12.1033C15.9449 12.7085 14.5497 13.818 13.2542 15.0283C15.048 14.7257 16.9414 14.524 18.6356 14.9274C21.8246 15.7343 24.0171 18.6593 25.9105 21.3825C27.804 24.1058 29.9965 27.0308 33.1854 27.9385C35.2783 28.5437 39.3642 28.5437 40.6597 26.3248C42.1544 24.005 40.3606 20.2731 38.5668 18.5584"/>
	<path fill="#2D1B0A" d="M35.7765 29.3506C34.7799 29.3506 33.7834 29.2497 32.8865 29.048C29.1992 28.0394 26.8074 24.6101 25.1133 22.0886C23.2198 19.2645 21.2267 16.7429 18.4363 16.0369C16.8418 15.6335 15.048 15.8352 13.3538 16.1378L9.9655 16.6421L12.5566 14.4231C14.0514 13.1119 15.4466 11.9016 17.3401 11.2964C20.6287 10.187 24.017 11.1956 27.6047 12.4059L31.1923 13.7171C33.883 14.7257 36.9724 15.7343 39.2645 17.9533C41.3573 19.8696 43.3504 24.0049 41.5566 27.0308C40.4603 28.7454 38.0686 29.3506 35.7765 29.3506M16.6425 13.7171C17.4397 13.7171 18.1373 13.818 18.9346 14.0197C22.4225 14.9274 24.7146 17.9533 26.8074 20.8782C28.8006 23.7023 30.694 26.3247 33.4844 27.0308C35.4775 27.5351 38.9655 27.4342 39.8624 25.9213C41.0583 24.0049 39.4638 20.7774 37.8693 19.3653C35.8762 17.449 32.9861 16.4404 30.4947 15.5326L26.9071 14.2214C23.7181 13.1119 20.7284 12.2042 18.0377 13.1119C17.5394 13.3137 17.0411 13.5154 16.6425 13.7171"/>
	<path fill="#60BF16" d="M79.1272 38.9323C81.4193 37.016 84.3093 36.2091 87.1994 35.4022C88.3953 35.0996 89.6908 34.6962 90.8867 34.3936C94.0757 33.4858 97.464 32.679 100.553 33.9901C102.148 34.6962 103.543 36.0074 104.739 37.2177C102.945 36.8143 101.151 36.4108 99.3575 36.7134C96.0688 37.3186 93.6771 40.0418 91.6839 42.6642C89.6908 45.2866 87.1994 48.0098 84.0103 48.7158C81.9176 49.1193 77.732 48.8167 76.6358 46.5978C75.1409 44.0762 77.1341 40.5461 79.1272 38.9323"/>
	<path fill="#2D1B0A" d="M82.0171 49.9261C79.5257 49.9261 76.6357 49.1194 75.5395 47.1021C73.945 43.9753 76.3367 40.0418 78.4295 38.2263C80.9209 36.2091 84.0103 35.3013 86.8006 34.4944L90.4879 33.4858C94.0755 32.4772 97.5635 31.7712 100.753 33.0824C102.546 33.8893 103.941 35.2005 105.237 36.5117L107.629 38.9323L104.34 38.2263C102.646 37.8229 100.952 37.5203 99.3573 37.722C96.567 38.2263 94.3745 40.647 92.2817 43.2693C90.3883 45.69 87.7972 48.9175 84.0103 49.6236C83.4123 49.8253 82.7147 49.9261 82.0171 49.9261M79.725 39.7392C78.1305 41.1466 76.2371 44.1772 77.3333 46.1944C78.1305 47.8082 81.6185 48.2115 83.6116 47.8082C86.402 47.3038 88.5944 44.7822 90.6872 42.1599C92.9793 39.3358 95.4707 36.5117 98.9587 35.9065C99.756 35.8056 100.553 35.7048 101.251 35.8056C100.852 35.5031 100.354 35.3013 99.9553 35.0996C97.3642 33.9902 94.3745 34.5953 90.9862 35.6039L87.2989 36.6125C84.8075 37.1168 81.8178 37.9237 79.725 39.7392"/>
	<path fill="#60BF16" d="M80.6219 22.1894C82.8143 20.1722 85.7043 19.2645 88.4947 18.3567C89.6906 17.9533 90.8865 17.5498 92.0824 17.2472C95.1717 16.2386 98.6597 15.23 101.649 16.4404C103.343 17.0455 104.639 18.2559 105.935 19.567C104.141 19.2645 102.247 18.9619 100.553 19.2645C97.3641 19.9705 95.072 22.7946 93.0789 25.5178C91.0858 28.2411 88.8934 31.0652 85.6047 31.7712C83.5119 32.2755 79.426 32.0738 78.1305 29.9557C76.8349 27.4342 78.8281 23.8032 80.6219 22.1894"/>
	<path fill="#2D1B0A" d="M83.512 33.0824C81.1203 33.0824 78.4295 32.3764 77.433 30.46C75.7388 27.3333 77.9313 23.2989 80.024 21.3825C82.4158 19.2645 85.5051 18.2558 88.2955 17.3481L91.8831 16.2386C95.4708 15.1292 98.8591 14.2214 102.148 15.4317C103.942 16.1378 105.337 17.3481 106.732 18.7602L109.223 21.08L105.935 20.4748C104.241 20.1722 102.546 19.8696 100.852 20.1722C98.0618 20.7774 95.969 23.2989 93.9759 26.0222C92.1821 28.4428 89.6907 31.7712 85.9038 32.679C85.2062 32.9816 84.4089 33.0824 83.512 33.0824M98.6598 16.9447C96.6666 16.9447 94.5739 17.5498 92.4811 18.2558L88.8934 19.3653C86.3024 20.1722 83.4124 21.08 81.3196 22.9963C79.7251 24.4084 78.0309 27.5351 79.1271 29.5523C80.024 31.0652 83.4124 31.3678 85.5051 30.8635C88.2955 30.2583 90.3883 27.7368 92.3814 24.9127C94.5739 21.9877 96.9656 19.0627 100.454 18.2558C101.251 18.0541 102.048 18.0541 102.746 18.0541C102.347 17.7515 101.849 17.5498 101.351 17.3481C100.553 17.0455 99.6563 16.9447 98.6598 16.9447"/>
	<path fill="#60BF16" d="M71.1544 38.0246C69.0617 36.0074 66.1717 34.8979 63.3812 33.9902C62.1853 33.5867 60.9896 33.1833 59.7937 32.679C56.7043 31.5695 53.316 30.46 50.2266 31.5695C48.5325 32.1746 47.1373 33.2841 45.8418 34.4945C47.6356 34.1919 49.529 33.9902 51.2232 34.3936C54.4122 35.2005 56.6047 38.1255 58.4981 40.8487C60.3916 43.5719 62.5841 46.4969 65.773 47.4046C67.8659 48.0098 71.9518 48.0098 73.2473 45.7909C74.7421 43.3702 72.9482 39.7392 71.1544 38.0246"/>
	<path fill="#2D1B0A" d="M68.3641 48.7159C67.3675 48.7159 66.371 48.615 65.4741 48.4133C61.7868 47.4047 59.395 43.9754 57.7009 41.4539C55.8074 38.6298 53.8143 36.1082 51.0239 35.4022C49.4294 34.9988 47.6356 35.2005 45.9414 35.5031L42.5531 36.0074L45.1442 33.7884C46.639 32.4772 48.0342 31.2669 49.9277 30.6617C53.2163 29.5523 56.6046 30.5609 60.1923 31.7712L63.7799 33.0824C66.4706 34.091 69.56 35.0996 71.8521 37.3186C73.9449 39.2349 75.938 43.3702 74.1442 46.3961C73.0479 48.1107 70.6562 48.7159 68.3641 48.7159M49.1304 33.1833C49.9277 33.1833 50.6253 33.2841 51.4225 33.4859C54.9105 34.3936 57.2026 37.4194 59.2954 40.3444C61.2885 43.1685 63.182 45.7909 65.9723 46.4969C67.9655 47.0012 71.4534 46.9004 72.3504 45.3875C73.5462 43.4711 71.9517 40.2435 70.3572 38.8315C68.3641 36.9151 65.4741 35.9065 62.9827 34.9988L59.395 33.6876C56.206 32.5781 53.2163 31.6703 50.5256 32.5781C50.0273 32.679 49.6287 32.8807 49.1304 33.1833"/>
	<path fill="#60BF16" d="M73.4466 21.1808C71.3539 19.1636 68.4639 18.0541 65.6734 17.1464C64.4775 16.743 63.2817 16.3395 62.0858 15.8352C58.9964 14.7257 55.6082 13.6163 52.5188 14.7257C50.8247 15.3309 49.4295 16.4404 48.1339 17.6507C49.9278 17.3481 51.8212 17.1464 53.5154 17.5498C56.7044 18.3567 58.8969 21.2817 60.7903 24.0049C62.6838 26.7282 64.8763 29.6532 68.0652 30.5609C70.1581 31.1661 74.2439 31.1661 75.5395 28.9472C77.0342 26.6274 75.2404 22.8955 73.4466 21.1808"/>
	<path fill="#2D1B0A" d="M70.6563 31.973C69.6597 31.973 68.6632 31.8721 67.7663 31.6704C64.079 30.6618 61.6872 27.2325 59.9931 24.711C58.0996 21.8869 56.1065 19.3653 53.3161 18.6593C51.7216 18.2559 49.9278 18.4576 48.2336 18.7602L44.8453 19.2645L47.4364 17.0455C48.9312 15.7343 50.3264 14.524 52.2199 13.9188C55.5085 12.8094 58.8968 13.818 62.4845 15.0283L66.0721 16.3395C68.7628 17.3481 71.8522 18.3567 74.1443 20.5757C76.2371 22.492 78.2302 26.6273 76.4364 29.6532C75.3401 31.3678 72.9484 31.973 70.6563 31.973M51.5223 16.3395C52.3195 16.3395 53.0171 16.4404 53.8144 16.6421C57.3023 17.5498 59.5944 20.5757 61.6872 23.5006C63.6804 26.3247 65.5738 28.9471 68.3642 29.6532C70.3573 30.1575 73.8453 30.0566 74.7422 28.5437C75.9381 26.6273 74.3436 23.3998 72.7491 21.9877C70.756 20.0714 67.8659 19.0628 65.3745 18.155L61.7869 16.8438C58.5979 15.7343 55.6082 14.8266 52.9175 15.7343C52.3195 15.8352 51.9209 16.0369 51.5223 16.3395"/>
	<path fill="#2D1B0A" d="M38.9656 46.3962L36.9725 46.0936C37.1718 44.5807 37.4708 43.0676 37.6701 41.5548C39.8625 27.7369 41.5567 16.8438 46.3402 10.3887C47.9347 8.16979 50.9244 4.94224 57.6014 3.02588C59.6941 2.31985 61.7869 2.31985 63.3814 2.31985C66.2715 2.31985 68.8625 2.52157 71.1546 3.02588C76.5361 4.33707 81.3196 7.46376 84.7079 11.8008L83.1134 13.0112C80.024 8.97668 75.5395 6.05171 70.6563 4.94224C68.5636 4.43793 66.1718 4.23621 63.3814 4.23621C61.8866 4.23621 59.8935 4.33707 58.0996 4.84138C52.0206 6.65687 49.3299 9.48098 47.835 11.4982C43.3505 17.6507 41.6563 28.3419 39.5636 41.8573C39.4639 43.2695 39.2646 44.7824 38.9656 46.3962"/>
	<path fill="#2D1B0A" d="M75.3402 47.8081L73.3471 47.6064C73.5464 45.5891 73.6461 43.7737 73.7457 42.059C74.4433 33.0824 74.8419 27.1315 77.8316 19.567C78.5292 17.7515 79.4261 15.4317 81.4193 13.9188C83.512 12.305 87 12.0024 88.8935 13.9188L87.4983 15.3308C86.4021 14.2214 84.0103 14.5239 82.6151 15.5326C81.0206 16.7429 80.3231 18.6592 79.6255 20.273C76.7354 27.535 76.3368 33.3849 75.6392 42.1599C75.6392 43.9753 75.5395 45.8917 75.3402 47.8081"/>
	<path fill="#2D1B0A" d="M57.2028 78.2682L55.4089 77.3604C55.9072 76.3517 56.9038 75.9483 57.6014 75.6458C57.8007 75.5448 57.9004 75.5448 58.0997 75.444C60.4914 74.4353 61.3883 71.3086 61.3883 68.7872C61.3883 67.6777 61.2887 66.5682 61.189 65.5596C60.9897 63.4415 60.7904 61.626 61.787 60.3148L63.3815 61.4243C62.8832 62.2312 62.9828 63.6433 63.1821 65.3579C63.2818 66.3665 63.3815 67.5768 63.3815 68.888C63.2818 73.0233 61.5876 76.15 58.8969 77.3604C58.6976 77.4613 58.4983 77.562 58.299 77.562C57.8007 77.7638 57.4021 77.9655 57.2028 78.2682"/>
	<path fill="white" d="M62.4846 59.2054C58.1994 58.8019 55.6083 58.2976 55.6083 57.7933C55.6083 56.6839 66.6702 55.6753 80.4227 55.6753C94.1754 55.6753 105.237 56.583 105.237 57.7933C105.237 58.9028 94.1754 59.9114 80.4227 59.9114C75.739 59.9114 70.9555 59.3063 66.2715 59.508C65.275 59.508 63.1822 59.2054 62.4846 59.2054"/>
	<path fill="#2D1B0A" d="M80.323 60.8192C78.3299 60.8192 76.2371 60.7183 74.244 60.6174C71.5533 60.5166 68.8626 60.3149 66.1718 60.4157C65.5739 60.4157 64.677 60.3149 63.8797 60.214C63.2818 60.1131 62.6839 60.1131 62.4845 60.1131L62.4845 59.1045L62.3849 60.214C55.11 59.6088 54.6117 58.8019 54.6117 57.7933C54.6117 56.6839 55.2096 55.9778 62.7835 55.2718C67.4674 54.8684 73.7457 54.6666 80.4227 54.6666C87.0997 54.6666 93.2784 54.8684 98.0619 55.2718C105.636 55.877 106.234 56.6839 106.234 57.7933C106.234 58.9028 105.636 59.6088 98.0619 60.3149C93.2784 60.6174 87 60.8192 80.323 60.8192M68.2646 58.3985C70.3574 58.3985 72.3505 58.4994 74.3437 58.6002C76.3368 58.7011 78.3299 58.8019 80.323 58.8019C90.6873 58.8019 98.2612 58.2976 101.949 57.6925C98.2612 57.1882 90.6873 56.583 80.323 56.583C69.9588 56.583 62.3849 57.0873 58.6976 57.6925C59.5945 57.7933 60.7904 57.9951 62.3849 58.0959C62.7835 58.0959 63.3815 58.1968 64.079 58.1968C64.7766 58.2976 65.6736 58.3985 66.0722 58.3985C66.8694 58.3985 67.567 58.3985 68.2646 58.3985"/>
	<path fill="#2D1B0A" d="M103.244 79.6802C101.151 78.7724 99.6563 76.7552 99.0584 73.9311C98.8591 72.8216 98.7594 71.813 98.6598 70.7036C98.5601 69.6949 98.4605 68.6863 98.2611 67.6777C97.6632 65.0553 95.969 62.5338 93.6769 60.8192L94.8728 59.2054C97.5635 61.2226 99.5567 64.1476 100.254 67.2743C100.454 68.3838 100.553 69.4932 100.653 70.5018C100.753 71.5104 100.852 72.5191 101.052 73.4268C101.251 74.4354 101.948 76.8561 104.041 77.663L103.244 79.6802"/>
</svg>
