<?xml version="1.0" encoding="utf-8" ?>
<svg xmlns="http://www.w3.org/2000/svg" xmlns:xlink="http://www.w3.org/1999/xlink" width="78" height="88">
	<path fill="white" d="M39.099 88C15.3996 88 0 76.1109 0 57.7182C0 46.642 3.79991 35.5658 10.1997 27.6397C10.0997 27.2333 10.0997 26.9284 10.0997 26.6236C10.0997 23.2702 11.2997 21.1363 12.8997 20.0185C11.2997 15.4457 10.9997 7.3164 16.1996 2.13395C17.5996 0.711316 19.5995 0 21.8995 0C22.9994 0 24.1994 0.203233 25.2994 0.508083C25.7994 0.6097 26.0994 0.711316 26.3993 0.812933C27.6993 1.11778 28.4993 1.42263 30.0993 2.64203C30.3992 2.84527 30.6992 3.0485 30.9992 3.35335C31.1992 3.45497 31.2992 3.55658 31.4992 3.6582C33.7992 1.32102 37.1991 0.203233 40.099 0C40.499 0 40.899 0 41.299 0C42.7989 0 44.0989 0.203233 45.2989 0.6097C48.2988 1.62587 50.3987 3.86143 51.8987 6.097C52.6987 5.28406 53.4987 4.57275 54.4986 4.06467C56.0986 3.15012 58.0986 2.64203 59.9985 2.64203C63.0984 2.64203 65.5984 3.96305 66.8983 6.30023C69.3983 11.0762 68.1983 16.4619 66.7983 20.0185C68.0983 21.0346 69.0983 23.067 69.0983 26.6236C69.0983 27.2333 68.9983 27.9446 68.6983 28.7575C74.5981 36.582 78 47.1501 78 57.6166C78.1981 76.1109 62.8984 88 39.099 88"/>
	<path fill="#F43B3B" d="M75.1964 57.5151C75.1964 75.5013 59.0971 84.7484 39.0982 84.7484C19.1992 84.7484 2.99995 75.6029 2.99995 57.5151C2.99995 39.529 13.9995 17.0717 39.0982 17.0717C64.1969 17.0717 75.1964 39.529 75.1964 57.5151"/>
	<path fill="#2D1A0B" d="M39.0981 85.7644C16.5992 85.7644 1.9999 74.6882 1.9999 57.515C1.9999 40.8499 11.8994 16.0554 39.0981 16.0554C66.2967 16.0554 76.1962 40.8499 76.1962 57.515C76.1962 74.6882 61.597 85.7644 39.0981 85.7644M39.0981 18.0877C13.3993 18.0877 3.9998 41.6628 3.9998 57.515C3.9998 73.3672 17.7991 83.7321 39.0981 83.7321C60.397 83.7321 74.1963 73.4688 74.1963 57.515C74.1963 41.6628 64.8968 18.0877 39.0981 18.0877"/>
	<path fill="#FACB62" d="M30.5984 59.3441C30.5984 64.7306 34.8982 69.1001 40.198 69.1001C45.4977 69.1001 49.7976 64.7306 49.7976 59.3441C49.7976 53.9593 45.4977 49.588 40.198 49.588C34.8982 49.588 30.5984 53.8576 30.5984 59.3441"/>
	<path fill="#2D1A0B" d="M40.198 70.1153C34.2983 70.1153 29.5985 65.2377 29.5985 59.344C29.5985 53.4502 34.3983 48.5726 40.198 48.5726C45.9977 48.5726 50.7975 53.4502 50.7975 59.344C50.7975 65.2377 46.0977 70.1153 40.198 70.1153M40.198 50.5033C35.3982 50.5033 31.5984 54.4664 31.5984 59.2423C31.5984 64.1199 35.4982 67.9814 40.198 67.9814C44.8977 67.9814 48.7976 64.0183 48.7976 59.2423C48.8976 54.4664 44.9977 50.5033 40.198 50.5033"/>
	<path fill="#F43B3B" d="M40.498 53.6868L45.9424 59.2195L40.498 64.7522L35.0536 59.2195L40.498 53.6868"/>
	<path fill="#2D1A0B" d="M40.498 66.2541L33.5984 59.2425L40.498 52.2309L47.3977 59.2425L40.498 66.2541M36.4982 59.3441L40.498 63.4087L44.4978 59.3441L40.498 55.2794L36.4982 59.3441"/>
	<path fill="#F43B3B" d="M18.4461 4.14856C19.946 2.62431 22.5459 2.62431 24.5458 3.23401C26.5457 3.84371 26.7457 3.64048 28.4456 4.96149C29.9455 6.07928 31.4455 6.68898 32.1454 8.51808C33.1454 5.06311 36.9452 3.23401 40.445 2.8531C41.8449 2.8531 43.2449 2.8531 44.4448 3.33563C47.9446 4.55503 50.0445 8.11161 51.7445 11.3633C52.8444 9.53424 54.2443 7.60353 56.1442 6.58736C58.7441 5.16473 63.0439 4.96149 64.4438 7.60353C67.7437 13.9038 62.5439 22.3379 61.244 25.0816C55.3443 31.4834 20.446 30.264 15.9462 19.4927C14.9638 16.749 13.5463 8.92454 18.4461 4.14856"/>
	<path fill="#2D1A0B" d="M44.1978 29.9771C40.098 29.9771 35.8982 29.6722 32.0984 28.9609C26.7987 28.0464 17.4991 25.6076 15.0993 19.917C13.7993 16.6653 12.5994 8.43436 17.6991 3.45515C19.299 1.8582 21.9989 1.42281 24.7988 2.33736C25.2988 2.5406 25.6987 2.64221 25.9987 2.64221C27.0987 2.94706 27.5986 3.04868 28.9986 4.16646C29.2986 4.47131 29.6985 4.67455 29.9985 4.87778C30.6985 5.28425 31.2985 5.79233 31.8984 6.40203C33.5983 3.55676 37.1982 2.13413 40.298 1.8582C41.9979 1.8582 43.3979 1.8582 44.6978 2.43898C47.8976 3.55676 49.9975 6.40203 51.7975 9.45053C52.7974 7.92628 53.9973 6.60526 55.5973 5.69071C57.5972 4.57293 60.297 4.26808 62.2969 4.77616C63.6969 5.18263 64.6968 5.99556 65.2968 7.11335C68.4966 13.1087 64.5968 20.6284 62.7969 24.1849C62.4969 24.693 62.2969 25.0995 62.1969 25.4043C59.3971 28.6561 52.0974 29.9771 44.1978 29.9771M21.8989 3.86161C20.799 3.86161 19.799 4.16646 18.9991 4.87778C14.6993 9.14568 15.6992 16.2588 16.8992 19.1041C18.3991 22.6607 23.9988 25.506 32.3984 27.0302C43.8978 29.0625 57.1972 27.8431 60.497 24.5914C60.697 24.2866 60.897 23.8801 61.097 23.372C62.7969 20.0187 66.2967 13.2103 63.5969 8.12951C63.2969 7.51981 62.6969 7.01173 61.797 6.8085C60.297 6.40203 58.1971 6.60526 56.5972 7.51981C54.8973 8.43436 53.6974 10.2635 52.5974 11.9909L51.6975 13.5152L50.8975 11.9909C49.0976 8.63759 47.1977 5.48748 44.0978 4.47131C43.0979 4.06485 41.8979 3.96323 40.498 4.06485C37.3982 4.26808 33.8983 5.89395 33.0984 8.94244L32.2984 11.7877L31.1985 9.04406C30.7985 8.02789 29.9985 7.41819 28.8986 6.70688C28.4986 6.50365 28.0986 6.1988 27.7986 5.89395C26.6987 5.08101 26.3987 4.9794 25.4987 4.77616C25.1988 4.67455 24.6988 4.57293 24.1988 4.3697C23.4988 4.06485 22.6989 3.86161 21.8989 3.86161"/>
	<path fill="#FACB62" d="M66.2966 26.4412C66.2966 22.0717 64.6967 21.0555 61.2969 22.0717C57.897 23.0879 51.9974 24.917 39.6979 24.917C27.3986 24.917 20.8989 23.0879 18.099 22.0717C15.2991 21.0555 13.0992 22.4782 13.0992 26.4412C13.0992 28.88 17.799 31.014 24.6987 32.335C24.6987 32.4366 24.5986 32.5382 24.5986 32.6398L19.5989 46.9678C18.899 49.0001 19.8989 51.3373 21.9988 52.0486C23.9987 52.7599 26.2986 51.7437 26.9986 49.6098L31.9983 35.2819C32.1983 34.5705 32.2984 33.9608 32.1983 33.2495C34.5981 33.4528 37.098 33.5544 39.6979 33.5544C42.5978 33.5544 45.2976 33.4528 47.9976 33.2495L50.6975 41.1756C50.9974 41.9886 51.7974 42.5983 52.5974 42.5983C52.7973 42.5983 53.0973 42.5983 53.2973 42.4966C54.3973 42.0902 54.8972 40.9724 54.5973 39.8546L52.1973 32.8431C60.497 31.7253 66.2966 29.4897 66.2966 26.4412"/>
	<path fill="#2D1A0B" d="M23.2987 53.3487C22.6988 53.3487 22.1988 53.2471 21.5988 53.0439C18.999 52.1293 17.699 49.2841 18.599 46.642L23.3987 33.127C18.699 32.1109 12.0993 30.0785 12.0993 26.4203C12.0993 23.4734 13.1993 22.1524 14.0992 21.4411C15.1992 20.6343 16.6991 20.4249 18.399 21.0346C23.7987 22.8637 30.8984 23.7783 39.6979 23.7783C52.0973 23.7783 57.897 21.9492 60.9969 21.0346C62.9968 20.4249 64.4967 20.5266 65.5967 21.2379C66.7966 22.1524 67.2966 23.7783 67.2966 26.3187C67.2966 30.6882 59.197 32.7206 53.4973 33.5335L55.4972 39.4273C55.9971 41.0531 55.1972 42.7806 53.5973 43.3903C53.1973 43.4919 52.8973 43.5935 52.5973 43.5935C51.2974 43.5935 50.0974 42.7806 49.6975 41.4596L47.1976 34.2448C42.6978 34.5497 37.798 34.6513 33.0983 34.2448C33.0983 34.6513 32.9983 35.0577 32.7983 35.4642L27.7985 49.7921C27.3985 51.0115 26.4986 52.0277 25.2987 52.6374C24.6987 53.1455 23.9987 53.3487 23.2987 53.3487M16.4991 22.8637C16.0991 22.8637 15.5991 22.9654 15.2991 23.2702C14.5992 23.7783 14.1992 24.9977 14.1992 26.5219C14.1992 27.9446 17.599 30.0785 24.9987 31.3995L26.2986 31.6028L25.7986 32.8222C25.7986 32.9238 25.6986 32.9238 25.6986 33.0254L20.6989 47.3533C20.1989 48.8776 20.9989 50.6051 22.4988 51.1132C23.1988 51.418 23.9987 51.3164 24.6987 51.0115C25.3986 50.7067 25.8986 50.097 26.1986 49.2841L31.1984 34.9561C31.3984 34.448 31.3984 33.94 31.2984 33.4319L31.0984 32.1109L32.3983 32.2125C37.4981 32.6189 42.9978 32.6189 47.9975 32.2125L51.7973 40.8499C51.8973 41.2563 52.3973 41.5612 52.7973 41.5612C52.8973 41.5612 52.9973 41.5612 53.1973 41.4596C53.6973 41.2563 53.9972 40.6466 53.7972 40.1386L50.9974 31.9076L52.1973 31.7044C61.3969 30.485 65.4967 28.0462 65.4967 26.3187C65.4967 24.4896 65.1967 23.2702 64.5967 22.8637C64.0967 22.4573 63.1968 22.4573 61.7969 22.9654C58.597 23.9815 52.5973 25.8106 39.8979 25.8106C30.8984 25.8106 23.4987 24.7945 17.999 22.9654C17.399 22.9654 16.9991 22.8637 16.4991 22.8637"/>
</svg>
