<?xml version="1.0" encoding="utf-8" ?>
<svg xmlns="http://www.w3.org/2000/svg" xmlns:xlink="http://www.w3.org/1999/xlink" width="60" height="112">
	<path fill="white" d="M20.804 112C15.6784 112 11.4573 106.729 11.4573 100.243L11.4573 74.0923C11.4573 69.9367 14.1709 66.6932 17.5879 66.6932L19.8995 66.6932C19.0955 65.5783 18.4925 64.362 17.7889 63.1457C17.3869 62.3348 16.9849 61.6253 16.4824 60.8145C14.3719 57.267 11.5578 54.429 8.24121 52.4018L4.72362 50.2733L0 46.219L10.0503 46.8271C15.6784 47.2326 21.3065 49.8679 26.8342 54.9357C27.3367 55.4425 28.1407 56.152 29.0452 56.9629C28.9447 52.1991 28.5427 47.5367 27.8392 42.7729C27.4372 42.8742 26.9347 42.9756 26.4322 42.9756C26.0302 42.9756 25.7286 42.9756 25.3266 42.8742C23.6181 42.4688 22.3116 41.3538 21.809 39.8335C21.206 40.0362 20.7035 40.1376 20.1005 40.1376C19.0955 40.1376 18.0905 39.8335 17.1859 39.124C15.7789 38.1104 15.0754 36.4887 15.1759 34.867C13.5678 34.7656 12.0603 33.8534 11.1558 32.4344C10.2513 30.914 10.2513 29.191 11.0553 27.7719C9.64824 27.0624 8.64322 25.6434 8.44221 23.9204C8.24121 22.1973 8.94472 20.5756 10.2513 19.562C9.24623 18.3457 8.84422 16.6226 9.44724 14.8995C9.94975 13.2778 11.2563 12.0615 12.8643 11.6561C12.4623 10.0344 12.8643 8.41267 13.9698 7.09502C14.8744 5.98009 16.1809 5.4733 17.5879 5.4733C17.8894 5.4733 18.0905 5.4733 18.392 5.57466C18.593 3.95294 19.6985 2.53394 21.206 1.82443C21.809 1.52036 22.5126 1.419 23.2161 1.419C24.1206 1.419 25.0251 1.72308 25.8291 2.22986C26.7337 0.912217 28.2412 0 30 0C31.6583 0 33.1658 0.912217 34.0704 2.22986C34.8744 1.72308 35.7789 1.419 36.6834 1.419C37.3869 1.419 38.0905 1.52036 38.6935 1.82443C40.3015 2.53394 41.3065 3.95294 41.5075 5.57466C41.809 5.57466 42.0101 5.4733 42.3116 5.4733C43.7186 5.4733 45.0251 6.08145 45.9296 7.09502C47.0352 8.41267 47.4372 10.1357 47.0352 11.6561C48.6432 12.0615 49.8492 13.2778 50.4523 14.8995C50.9548 16.5213 50.6533 18.2443 49.6482 19.562C50.9548 20.5756 51.5578 22.1973 51.4573 23.9204C51.2563 25.6434 50.2513 27.0624 48.8442 27.7719C49.5477 29.191 49.5477 31.0154 48.7437 32.4344C47.9397 33.9548 46.4322 34.867 44.7236 34.867C44.8241 36.4887 44.1206 38.1104 42.7136 39.124C41.809 39.7321 40.9045 40.0362 39.799 40.0362C39.196 40.0362 38.593 39.9348 38.0905 39.7321C37.4874 41.2525 36.1809 42.3674 34.5729 42.7729C34.4724 42.7729 34.2714 42.8742 34.1709 42.8742C34.8744 47.638 35.1759 52.4018 35.2764 57.1656C39.8995 52.6045 45.7286 49.4624 52.0603 48.3475L56.1809 47.638L60 47.638L54.4724 53.8208C53.7688 54.3276 52.9648 55.3412 52.1608 56.152C51.9598 56.4561 51.6583 56.6588 51.4573 56.9629C50.1508 58.3819 48.7437 59.3955 47.3367 60.409C44.3216 62.5376 42.0101 64.5647 39.799 66.6932L46.0302 66.6932C49.4472 66.6932 52.1608 69.9367 52.1608 74.0923L52.1608 100.243C52.1608 106.729 47.9397 112 42.8141 112L20.804 112"/>
	<path fill="#F7E941" d="M31.9597 4.08191C32.2612 5.70363 34.3718 6.21042 35.3768 4.79141C36.5828 3.06834 39.1959 4.28463 38.7939 6.31178C38.3919 7.9335 40.2009 9.25114 41.6079 8.33893C43.417 7.32535 45.3265 9.45386 44.1205 11.0756C43.1155 12.3932 44.221 14.319 45.8291 14.1164C47.8391 13.9136 48.7436 16.6502 46.9346 17.6638C45.5275 18.4747 45.7286 20.6031 47.3366 21.1329C49.3466 21.7182 49.0451 24.6574 46.9346 24.8601C45.3265 25.063 44.623 27.09 45.8291 28.205C47.3366 29.624 45.9296 32.0565 44.02 31.4485C42.412 30.9417 41.0049 32.5634 41.7085 34.0837C42.5125 36.0096 40.2009 37.6312 38.6934 36.3135C37.4873 35.1987 35.4773 36.1109 35.5778 37.7326C35.5778 39.7598 32.7637 40.3679 31.9597 38.5434C31.2562 37.023 29.1456 37.023 28.5426 38.5434C27.7386 40.4692 24.9245 39.861 24.9245 37.7326C24.9245 36.1109 23.015 35.1987 21.8089 36.3135C20.3014 37.7326 17.9899 36.0096 18.7939 34.0837C19.4974 32.5634 18.0904 30.9417 16.4823 31.4485C14.5728 32.0565 13.0652 29.624 14.6733 28.205C15.8793 27.09 15.2763 25.063 13.5677 24.8601C11.5577 24.6574 11.2562 21.8195 13.1657 21.1329C14.7738 20.6031 14.9748 18.4747 13.5677 17.6638C11.7587 16.6502 12.6632 13.9136 14.6733 14.1164C16.2813 14.319 17.3868 12.3932 16.3818 11.0756C15.1758 9.45386 17.0853 7.22399 18.8944 8.33893C20.3014 9.14979 22.01 7.9335 21.7085 6.31178C21.3064 4.28463 23.9195 3.06834 25.1255 4.79141C26.1306 6.10906 28.1406 5.70363 28.5426 4.08191C28.6431 2.05476 31.5577 2.05476 31.9597 4.08191"/>
	<path fill="#2D1B0A" d="M26.7239 40.6443C26.5228 40.6443 26.3216 40.6443 26.1205 40.543C24.7124 40.2389 23.8072 39.124 23.8072 37.705C23.8072 37.1982 23.4049 36.8941 23.3043 36.8941C23.2038 36.7927 22.7009 36.6914 22.2986 37.0968C21.2928 38.009 19.7842 38.1104 18.6779 37.2995C17.5715 36.4887 17.1692 35.0697 17.7727 33.752C17.9738 33.2452 17.6721 32.8398 17.6721 32.7384C17.5715 32.6371 17.2698 32.333 16.7669 32.5357C15.4595 32.9412 14.0514 32.4344 13.3474 31.2181C12.6433 30.0018 12.8445 28.4814 13.9508 27.5692C14.3531 27.1638 14.2526 26.7584 14.2526 26.657C14.2526 26.5556 14.0514 26.0488 13.448 26.0488C12.0399 25.9475 11.0341 24.8326 10.805 23.4136C10.6318 21.9946 11.537 20.7783 12.8445 20.3728C13.3474 20.1701 13.448 19.7647 13.448 19.6633C13.448 19.562 13.448 19.0552 13.0456 18.7511C11.8387 18.0416 11.2353 16.6226 11.7382 15.305C12.241 13.9873 13.448 13.1765 14.856 13.2778C15.3589 13.3792 15.6606 12.9737 15.7612 12.8724C15.8618 12.771 16.0629 12.3656 15.6606 11.8588C14.856 10.7439 14.856 9.22351 15.8618 8.20994C16.7669 7.19636 18.2756 6.89229 19.4825 7.60179C19.9854 7.90586 20.3877 7.60179 20.4882 7.60179C20.5888 7.50043 20.9911 7.19636 20.79 6.68957C20.4882 5.27057 21.1923 3.95292 22.3992 3.34478C23.7066 2.73663 25.1147 3.14206 25.9193 4.35835C26.221 4.76378 26.7239 4.76378 26.8245 4.66242C26.9251 4.66242 27.4279 4.45971 27.5285 3.95292C27.8302 2.53392 28.9366 1.6217 30.3349 1.6217C31.7527 1.6217 32.859 2.53392 33.1607 3.95292C33.2613 4.45971 33.6636 4.66242 33.8648 4.66242C33.9654 4.66242 34.4682 4.76378 34.77 4.35835C35.5746 3.24342 36.9826 2.83799 38.2901 3.34478C39.5976 3.95292 40.201 5.27057 39.8993 6.68957C39.7987 7.19636 40.1005 7.50043 40.201 7.60179C40.3016 7.70315 40.7039 7.90586 41.2068 7.60179C42.4137 6.89229 43.9223 7.095 44.8275 8.20994C45.7327 9.22351 45.8333 10.7439 45.0287 11.8588C44.7269 12.2642 44.9281 12.6697 44.9281 12.8724C45.0287 12.9737 45.2298 13.3792 45.8333 13.2778C47.2413 13.0751 48.4482 13.886 48.9511 15.305C49.3534 16.6226 48.8505 18.0416 47.6436 18.7511C47.1407 19.0552 47.1407 19.4606 47.2413 19.6633C47.3419 19.866 47.3419 20.2715 47.8448 20.3728C49.1523 20.7783 49.9569 21.9946 49.8647 23.4136C49.7557 24.8326 48.6494 25.8461 47.2413 26.0488C46.7384 26.1502 46.5373 26.5556 46.4367 26.657C46.4367 26.7584 46.3361 27.2651 46.7384 27.5692C47.8448 28.4814 48.0459 30.0018 47.3419 31.2181C46.6379 32.4344 45.2298 32.9412 43.9223 32.5357C43.4195 32.333 43.1177 32.6371 43.0171 32.7384C42.9166 32.8398 42.6148 33.2452 42.9166 33.752C43.52 35.0697 43.1177 36.4887 42.0114 37.2995C40.9051 38.1104 39.3964 38.009 38.3907 37.0968C37.9884 36.6914 37.5861 36.8941 37.3849 36.8941C37.1838 36.8941 36.882 37.1982 36.882 37.705C36.882 39.124 35.9769 40.2389 34.5688 40.543C33.1607 40.847 31.8533 40.1375 31.3504 38.8199C31.1492 38.3131 30.6464 38.3131 30.5458 38.3131C30.4452 38.3131 29.9423 38.3131 29.7412 38.8199C28.836 39.9348 27.8302 40.6443 26.7239 40.6443M22.902 34.7656C23.3043 34.7656 23.7066 34.8669 24.109 35.0697C25.2153 35.5765 25.8187 36.59 25.8187 37.8063C25.8187 38.5158 26.3216 38.6172 26.5228 38.7185C26.7239 38.7185 27.2268 38.8199 27.5285 38.2117C28.0314 37.0968 29.0372 36.4887 30.1435 36.4887C31.3504 36.4887 32.3561 37.1982 32.7584 38.2117C33.0602 38.8199 33.563 38.7185 33.7642 38.7185C33.9654 38.7185 34.4682 38.5158 34.4682 37.8063C34.4682 36.59 35.0717 35.5765 36.178 35.0697C37.2843 34.5629 38.4913 34.7656 39.2959 35.5765C39.7987 36.0832 40.3016 35.7792 40.4022 35.6778C40.5028 35.5765 41.0056 35.171 40.7039 34.5629C40.201 33.4479 40.4022 32.2317 41.2068 31.4208C42.0114 30.5086 43.1177 30.2045 44.3246 30.6099C44.9281 30.8127 45.3304 30.4072 45.3304 30.2045C45.431 30.1031 45.6321 29.495 45.1292 29.0896C44.2241 28.2787 43.9223 27.1638 44.3246 26.0488C44.7269 24.9339 45.6321 24.1231 46.839 24.0217C47.543 23.9203 47.6436 23.4136 47.6436 23.2108C47.6436 23.0081 47.6436 22.5013 47.0402 22.2986C45.9338 21.9946 45.1292 20.981 45.0287 19.866C44.9281 18.6498 45.431 17.6362 46.4367 17.028C47.0402 16.724 46.9396 16.1158 46.839 16.0145C46.7384 15.8117 46.5373 15.305 45.9338 15.4063C44.7269 15.5077 43.7212 15.0009 43.1177 13.9873C42.5143 12.9737 42.6148 11.7574 43.3189 10.7439C43.7212 10.2371 43.4195 9.7303 43.2183 9.62894C43.1177 9.52758 42.7154 9.12215 42.112 9.42622C41.1062 10.0344 39.8993 9.93301 38.8936 9.22351C37.9884 8.51401 37.4855 7.39908 37.7872 6.18279C37.8878 5.47328 37.4855 5.27057 37.2843 5.16921C37.0832 5.06785 36.5803 4.86514 36.178 5.47328C35.474 6.3855 34.3677 6.89229 33.2613 6.58822C32.155 6.28414 31.2498 5.47328 31.0487 4.35835C30.9481 3.64885 30.3349 3.64885 30.1435 3.64885C29.9423 3.64885 29.4395 3.75021 29.2383 4.35835C29.0372 5.47328 28.132 6.3855 27.0256 6.58822C25.9193 6.79093 24.7124 6.3855 24.109 5.47328C23.7066 4.9665 23.2038 5.06785 23.0026 5.16921C22.8015 5.27057 22.3992 5.47328 22.4997 6.18279C22.8015 7.29772 22.2986 8.51401 21.3934 9.22351C20.4882 9.93301 19.2813 9.93301 18.175 9.42622C17.5715 9.12215 17.1692 9.42622 17.0687 9.62894C16.9681 9.7303 16.6664 10.2371 16.9681 10.7439C17.6721 11.6561 17.7727 12.8724 17.1692 13.9873C16.5658 15.1022 15.4595 15.609 14.3531 15.4063C13.6491 15.305 13.448 15.8117 13.448 16.0145C13.3474 16.2172 13.2468 16.724 13.8503 17.028C14.856 17.6362 15.4595 18.6498 15.2583 19.866C15.1577 21.0823 14.3531 21.9946 13.2468 22.2986C12.6433 22.5013 12.6433 23.1095 12.6433 23.2108C12.6433 23.4136 12.7439 23.9203 13.448 24.0217C14.6549 24.1231 15.56 24.9339 15.9623 26.0488C16.3646 27.1638 15.9623 28.3801 15.1577 29.0896C14.6549 29.495 14.856 30.1031 14.9566 30.2045C15.0571 30.3059 15.3589 30.8127 15.9623 30.6099C17.0687 30.2045 18.2756 30.5086 19.0802 31.4208C19.8848 32.333 20.0859 33.5493 19.583 34.5629C19.2813 35.171 19.6836 35.5765 19.8848 35.6778C19.9854 35.7792 20.4882 36.0832 20.9911 35.5765C21.494 34.9683 22.198 34.7656 22.902 34.7656"/>
	<path fill="white" d="M17.6884 69.4298L46.0302 69.4298C47.7387 69.4298 49.1458 71.3556 49.1458 73.7882L49.1458 99.9384C49.1458 104.804 46.3316 108.655 42.814 108.655L20.804 108.655C17.2864 108.655 14.4724 104.702 14.4724 99.9384L14.4724 73.7882C14.4724 71.3556 15.9799 69.4298 17.6884 69.4298"/>
	<path fill="#2D1B0A" d="M42.9146 109.669L20.9046 109.669C16.8845 109.669 13.5679 105.31 13.5679 99.9385L13.5679 73.7882C13.5679 70.7475 15.3769 68.4163 17.6885 68.4163L46.0302 68.4163C48.3418 68.4163 50.1508 70.7475 50.1508 73.7882L50.1508 99.9385C50.1508 105.31 46.9347 109.669 42.9146 109.669M17.6885 70.4435C16.4825 70.4435 15.5779 71.9638 15.5779 73.7882L15.5779 99.9385C15.5779 104.195 17.99 107.642 20.9046 107.642L42.9146 107.642C45.8292 107.642 48.2413 104.195 48.2413 99.9385L48.2413 73.7882C48.2413 71.9638 47.2362 70.4435 46.1307 70.4435L17.6885 70.4435"/>
	<path fill="#ED822B" d="M41.5076 21.0825C41.5076 27.352 36.468 32.4345 30.2513 32.4345C24.0346 32.4345 18.995 27.352 18.995 21.0825C18.995 14.8129 24.0346 9.73045 30.2513 9.73045C36.468 9.73045 41.5076 14.8129 41.5076 21.0825"/>
	<path fill="#2D1B0A" d="M30.2513 33.448C23.5176 33.448 17.99 27.8734 17.99 21.0824C17.99 14.2915 23.5176 8.7168 30.2513 8.7168C36.985 8.7168 42.5126 14.2915 42.5126 21.0824C42.5126 27.8734 36.985 33.448 30.2513 33.448M30.2513 10.8453C24.6232 10.8453 20 15.5077 20 21.1838C20 26.8598 24.6232 31.5222 30.2513 31.5222C35.8794 31.5222 40.5026 26.8598 40.5026 21.1838C40.5026 15.5077 35.8794 10.8453 30.2513 10.8453"/>
	<path fill="#2D1B0A" d="M32.6634 69.3286L30.6533 69.1258C31.7588 58.4833 31.2563 47.7394 29.1458 37.0969L31.1558 36.6914C33.3669 47.4353 33.8694 58.4833 32.6634 69.3286"/>
	<path fill="#299959" d="M32.7637 69.4298C36.3818 65.1728 40.5024 61.4226 44.9245 58.0778C46.4321 56.9628 47.9396 55.9493 49.1456 54.5303C50.1507 53.4153 51.3567 51.895 52.4622 50.9827C43.1155 52.7058 34.7738 59.3954 30.9547 68.2135C30.8501 68.6189 30.8501 69.0244 31.1557 69.3284C31.4572 69.6326 32.4622 69.7338 32.7637 69.4298"/>
	<path fill="#2D1B0A" d="M32.1688 70.6461C31.6664 70.6461 30.9631 70.4434 30.5613 70.038C29.9948 69.4298 29.858 68.619 30.1594 67.8081C34.0777 58.5846 42.6176 51.7936 52.3631 49.9692L56.4823 49.2597L53.1669 51.7936C52.3631 52.4018 51.4589 53.5167 50.5547 54.4289C50.3537 54.733 50.1528 54.9357 49.8514 55.1384C48.7462 56.4561 47.3396 57.3683 46.0335 58.3819C41.0101 62.0307 36.9913 65.781 33.3744 69.9366C33.3744 70.3421 32.9725 70.6461 32.1688 70.6461C32.2692 70.6461 32.2692 70.6461 32.1688 70.6461M32.0683 68.619C32.0683 68.619 32.1688 68.619 32.0683 68.619C35.7857 64.362 39.9049 60.6117 44.3256 57.2669C46.2345 55.9493 47.4401 55.0371 48.4448 53.9221C48.6457 53.7194 48.8467 53.4154 49.0476 53.2126C49.1481 53.1113 49.1481 53.1113 49.2485 53.0099C41.7134 55.4425 35.1828 61.3212 32.0683 68.619"/>
	<path fill="#299959" d="M25.0252 56.8616C20.707 52.9087 15.4774 49.9693 10.0503 49.5639C13.6683 51.7938 16.8844 55.0372 19.2965 58.9901C20.8041 61.5241 22.01 64.2607 23.9195 66.4906C25.6282 68.4164 30.9548 71.3558 31.3635 66.3892C31.5578 62.7404 27.2361 58.7874 25.0252 56.8616"/>
	<path fill="#2D1B0A" d="M28.9555 70.1394C26.7434 70.1394 24.1291 68.315 23.1236 67.0987C21.7159 65.5783 20.7104 63.6525 19.8055 61.8281C19.4033 61.0172 18.9005 60.2064 18.4983 59.4969C16.1857 55.7467 13.1692 52.5032 9.64994 50.3747L6.1307 48.2462L10.2532 48.5503C15.3813 48.8543 20.7104 51.4896 25.8385 56.1521C27.8495 57.9765 32.6759 62.3349 32.3877 66.4905C32.1731 68.8218 31.0671 69.6326 30.1621 69.9367C29.6594 70.0381 29.3577 70.1394 28.9555 70.1394M14.2752 51.3883C16.5879 53.4154 18.4983 55.7467 20.2077 58.4833C20.7104 59.2942 21.1126 60.105 21.6154 60.9159C22.6209 62.7403 23.5258 64.362 24.7324 65.781C25.7379 66.9973 28.2517 68.4163 29.5588 68.0109C29.7599 67.9095 30.2627 67.7068 30.4638 66.2878C30.6649 63.0444 26.2407 59.0914 24.5313 57.5711C21.0121 54.5304 17.5934 52.4019 14.2752 51.3883"/>
</svg>
