<?xml version="1.0" encoding="utf-8" ?>
<svg xmlns="http://www.w3.org/2000/svg" xmlns:xlink="http://www.w3.org/1999/xlink" width="46" height="112">
	<path fill="white" d="M27.2065 112C24.2735 112 21.5427 111.798 19.6211 111.294C16.2834 110.488 11.5299 108.976 9.30483 104.641C7.48432 101.113 7.99002 96.4752 10.6196 92.0396C11.631 90.4266 12.7436 89.1161 13.6538 88.0072C14.5641 86.8983 15.3732 85.991 16.1823 84.7813C17.0926 83.2691 18.0028 78.9343 18.104 76.1116C18.104 74.9019 18.2051 73.6922 18.2051 72.4824C18.4074 67.6436 18.6097 62.6031 16.688 58.9739L14.3618 54.5383L19.4188 54.5383C21.4416 54.5383 23.1609 54.5383 24.678 54.6391C22.7564 53.8326 21.1381 52.5221 20.2279 51.6148C18.7108 49.901 17.5983 47.9856 16.5869 46.0702C16.1823 45.2637 15.7778 44.5581 15.2721 43.7516C13.1481 40.2232 10.3162 37.4005 6.97862 35.3843L0 29.6382L4.65241 29.5374L8.79913 29.8398C12.8447 30.1422 16.8903 31.5536 20.9359 34.1746C19.2165 31.9568 18.7108 29.4365 18.3062 27.1179C18.2051 26.8155 18.104 26.5131 18.104 26.1098C18.0028 25.6058 17.8005 25.0009 17.6994 24.2952C17.5983 23.7912 17.396 23.2871 17.1937 22.6823C16.8903 21.8758 16.4857 21.1701 16.1823 20.3636C15.4743 18.7507 14.6652 17.1377 14.2607 15.3231C14.0584 14.6175 13.755 13.6094 13.9572 12.5005C13.6538 11.3915 13.1481 9.67777 14.2607 7.76238C14.7664 6.9559 15.98 5.34293 17.6994 4.73807C18.3062 2.62106 19.7222 1.20972 21.8461 0.40324C22.5541 0.20162 23.2621 0 23.97 0C25.2849 0 26.5997 0.50405 27.6111 1.10891C28.0156 0.806481 28.4202 0.60486 28.9259 0.40324C29.5327 0.20162 30.2407 0 30.8475 0C31.6566 0 32.4658 0.20162 33.1737 0.60486C33.8817 0.30243 34.6908 0 35.4999 0C35.6011 0 35.7022 0 35.9045 0C36.8148 0.20162 37.5227 0.50405 38.0284 0.806481C38.433 0.705671 38.9387 0.60486 39.4444 0.60486C39.5455 0.60486 39.6467 0.60486 39.7478 0.60486C40.4558 0.705671 41.1638 0.907291 41.7706 1.31053C42.2763 1.31053 42.6808 1.41134 43.0854 1.61296C44.1979 2.11701 45.4116 3.32673 45.2093 5.44374C45.1082 6.55266 44.9059 7.66157 44.6025 8.9721C45.1082 9.77858 45.4116 10.6859 45.5127 11.4923C45.6139 11.9964 45.6139 12.6013 45.6139 13.2061C45.715 13.6094 45.8162 14.0126 45.9173 14.4158C46.2207 16.3312 45.6139 18.045 45.3105 19.2547C44.5014 21.6742 43.3888 23.0855 42.3774 24.396C41.5683 25.4041 40.9615 26.2106 40.5569 27.5212C40.5569 27.7228 40.5569 28.0252 40.5569 28.126C40.5569 30.243 40.2535 32.2592 39.5455 34.1746C39.3432 34.7795 39.0398 35.586 38.5341 36.3924C37.6239 37.8038 36.2079 38.7111 34.8931 39.4167C34.4885 41.6346 33.8817 45.1629 33.376 48.9937C33.376 49.2961 33.376 49.5986 33.376 49.8002C33.376 50.405 33.2749 51.0099 33.0726 51.514C32.9715 52.6229 32.8703 53.7318 32.7692 54.7399C33.1737 54.7399 33.6794 54.7399 34.1851 54.7399L39.6467 54.5383L36.9159 59.2763C35.2977 61.9982 34.9942 65.1233 34.8931 69.0549C34.8931 69.7606 34.8931 70.4662 34.792 71.1719C34.6908 72.8857 34.6908 74.5995 34.792 76.0108C34.8931 76.8173 34.9942 77.523 35.0954 78.1278C35.4999 81.6562 35.7022 83.1683 37.9273 85.7894C39.0398 87.0999 41.7706 90.4266 43.2877 93.0477C44.1979 94.5599 46.8276 99.9028 44.5014 105.044C42.3774 109.782 36.7136 111.294 33.5783 111.698C31.5555 111.798 29.4316 112 27.2065 112"/>
	<path fill="#2D1B0A" d="M28.1167 65.325C26.9031 55.4456 30.9486 36.5941 31.0498 35.7876L33.0726 36.1908C33.0726 36.3925 28.9259 55.5464 30.1395 65.1233L28.1167 65.325"/>
	<path fill="#299959" d="M23.6666 40.1223C19.3186 36.1907 14.0584 33.2672 8.59685 32.864C12.2379 35.0818 15.4743 38.3077 17.9017 42.2393C19.4188 44.7596 20.6325 47.4815 22.5541 49.6993C24.2734 51.6147 29.6339 54.5382 30.0401 49.5985C30.1395 45.9693 25.8916 42.0377 23.6666 40.1223"/>
	<path fill="#2D1B0A" d="M27.5208 53.3285C25.2946 53.3285 22.6638 51.5139 21.6519 50.3042C20.2353 48.792 19.2234 46.8766 18.3127 45.0621C17.908 44.2556 17.4021 43.4491 16.9973 42.7434C14.67 39.0135 11.6344 35.7875 8.09285 33.6705L4.5513 31.5535L8.69997 31.8559C13.8605 32.1584 19.2234 34.7794 24.384 39.4167C26.4077 41.2313 31.2647 45.5661 30.9747 49.6993C30.7587 52.0179 29.6457 52.8244 28.735 53.1269C28.3303 53.2277 27.9255 53.3285 27.5208 53.3285M12.7474 34.6786C15.0748 36.6948 16.9973 39.0135 18.7175 41.7353C19.2234 42.5418 19.6282 43.3483 20.1341 44.1548C21.146 45.9693 22.0567 47.5823 23.2709 48.9936C24.2828 50.2034 26.8124 51.6147 28.1279 51.2115C28.3303 51.1107 28.8362 50.909 29.0386 49.4977C29.2409 46.2718 24.7887 42.3402 23.0685 40.828C19.527 37.8037 16.1878 35.6867 12.7474 34.6786"/>
	<path fill="#FF6C96" d="M22.6552 3.22592C23.97 2.82268 25.5882 3.0531 26.5996 4.13321C26.903 4.43564 27.2064 4.83888 27.7121 4.73807C27.9144 4.73807 28.1167 4.53645 28.2178 4.43564C28.7235 3.93159 29.2292 3.42754 29.9372 3.22592C30.6452 2.92349 31.4543 3.0531 31.96 3.52835C32.1623 3.72997 32.2634 3.93159 32.4657 4.0324C32.8703 4.23402 33.376 3.83078 33.8816 3.62916C34.3873 3.32673 34.9942 3.0531 35.7022 3.22592C35.9044 3.22592 36.2079 3.32673 36.309 3.42754C36.4101 3.52835 36.4101 3.72997 36.5113 3.83078C36.8147 4.23402 37.4215 4.23402 37.9272 4.13321C38.4329 3.93159 38.9386 3.72997 39.4443 3.72997C39.95 3.72997 40.4557 4.33483 40.2534 4.83888C40.658 4.73807 41.0625 4.63726 41.4671 4.53645C41.5682 4.53645 41.7705 4.43564 41.8717 4.53645C42.1751 4.63726 42.1751 5.0405 42.0739 5.24212C41.5682 9.47614 39.8489 13.5085 38.1295 17.4401C37.7249 18.2466 37.3204 19.1539 36.6124 19.7588C35.9044 20.2628 34.9942 20.4644 34.1851 20.6661C32.668 20.9685 31.1469 21.1701 29.6338 21.2709C27.7121 21.4725 25.5882 21.4725 23.8688 20.5653C22.1495 19.658 21.1381 17.7426 20.6324 15.928C20.1593 14.0126 20.1593 12.0972 20.1593 10.081C20.1593 7.45994 19.5198 4.33483 22.6552 3.22592"/>
	<path fill="#2D1B0A" d="M27.611 22.279C26.195 22.279 24.6779 22.0774 23.262 21.2709C21.4415 20.2628 20.1266 18.3474 19.5198 15.928C19.0624 13.9118 19.0624 11.7948 19.0624 9.87937C19.0624 9.47613 19.0624 9.07289 19.0624 8.66964C19.0624 6.45182 19.0624 3.32671 22.2506 2.2178C23.9699 1.61294 25.8916 2.11699 27.2064 3.32671C27.3075 3.42752 27.4087 3.52833 27.5098 3.62914C28.0155 3.12509 28.7235 2.52023 29.5326 2.2178C30.6451 1.81456 31.8588 1.9615 32.5668 2.72185C32.6679 2.82266 32.6679 2.82266 32.7691 2.92347C32.8702 2.92347 32.9714 2.82266 33.0725 2.72185C33.9827 2.2178 34.7919 1.9615 35.601 1.9615C36.1067 1.9615 36.6124 2.2178 36.9158 2.52023C37.1181 2.72185 37.1181 2.82266 37.2192 3.02428C37.3203 3.02428 37.4215 3.02428 37.5226 3.02428C37.6238 3.02428 37.7249 2.92347 37.826 2.92347C38.2306 2.72185 38.7363 2.52023 39.3431 2.62104C39.95 2.62104 40.4557 3.02428 40.7591 3.42752C41.1636 3.42752 41.5682 3.32671 41.9728 3.42752C42.2762 3.52833 42.9842 4.03238 42.7819 5.2421C42.2762 9.67775 40.4557 13.811 38.7363 17.7426C38.3317 18.6498 37.9272 19.6579 36.9158 20.3636C36.1067 21.0693 35.0953 21.2709 34.0839 21.4725C32.3645 21.775 30.8474 21.9766 29.4315 22.1782C29.0269 22.279 28.3189 22.279 27.611 22.279M23.7677 4.03238C23.4643 4.03238 23.1608 4.03238 22.9586 4.13319C21.138 4.73805 21.138 6.2502 21.138 8.56883C21.138 9.07289 21.138 9.47613 21.138 9.87937C21.138 11.6939 21.0369 13.6093 21.4415 15.4239C21.9472 17.2385 22.9586 18.7507 24.1722 19.4563C25.6893 20.2628 27.611 20.2628 29.3303 20.0612C30.6451 19.9604 32.1622 19.7588 33.7805 19.4563C34.5896 19.3555 35.2976 19.1539 35.8033 18.7507C36.309 18.3474 36.7135 17.5409 37.0169 16.8353C38.6352 13.2061 40.3545 9.37532 40.8602 5.44372L37.826 6.14939L38.8374 4.53643C38.7363 4.53643 38.6352 4.63724 38.534 4.63724C38.3317 4.73805 38.2306 4.73805 38.0283 4.83886C36.9158 5.14129 35.9044 4.93967 35.3987 4.13319C35.3987 4.03238 35.2976 4.03238 35.2976 3.93157C34.893 3.93157 34.4884 4.03238 34.185 4.234C33.5782 4.63724 32.7691 5.14129 31.96 4.73805C31.6565 4.53643 31.3531 4.33481 31.252 4.13319C31.252 4.13319 31.1508 4.03238 31.1508 4.03238C30.94 3.83076 30.544 3.83076 30.2406 3.93157C29.7349 4.13319 29.3303 4.53643 28.8246 4.93967C28.6224 5.14129 28.3189 5.44372 27.8132 5.54453C26.903 5.74615 26.2962 5.04048 25.8916 4.73805C25.2848 4.33481 24.5768 4.03238 23.7677 4.03238"/>
	<path fill="#FF6C96" d="M19.7222 7.76235C20.329 8.2664 20.9359 8.77045 21.6438 9.17369C22.1495 9.47612 22.7564 9.67774 23.2621 9.47612C23.8689 9.2745 24.1723 8.56883 24.678 8.2664C25.386 7.76235 26.1951 7.76235 27.1054 7.76235C28.4202 7.76235 29.735 7.86316 31.0498 7.86316C31.2521 7.86316 31.5555 7.86316 31.7578 7.96397C32.1623 8.16559 32.4658 8.46802 32.9715 8.66964C33.8817 8.87126 34.6908 7.86316 35.7023 8.06478C36.0057 8.06478 36.208 8.2664 36.4101 8.36721C37.4216 8.77045 38.6353 8.66964 39.5456 8.06478C40.7592 9.2745 42.074 10.4842 42.2763 12.198C42.4786 13.4077 42.074 14.5166 41.7706 15.6255C40.557 19.3555 38.0285 22.4806 36.8148 26.2105C36.3091 27.7227 37.2194 29.9405 35.9044 30.8479C34.9943 31.5536 33.8817 31.8559 32.6681 31.9567C31.4544 32.1583 30.3419 32.2593 29.1282 32.2593C28.0157 32.2593 27.0043 32.2593 25.9928 31.8559C25.0826 31.4528 24.1723 30.8479 23.4643 30.1422C21.037 27.6219 21.4416 26.9162 20.5313 23.6903C19.7222 20.666 17.4971 14.9199 16.688 11.8956C16.4113 10.9883 16.1823 10.1818 16.688 9.37531C17.1937 8.2664 18.8119 6.75425 19.7222 7.76235"/>
	<path fill="#2D1B0A" d="M28.6172 33.1665C27.6055 33.1665 26.5937 33.0657 25.4808 32.6624C24.4691 32.2592 23.5585 31.6543 22.6479 30.6462C20.6244 28.5292 20.3209 27.5211 19.9162 25.6057C19.815 25.1017 19.6127 24.4968 19.4103 23.6903C19.0056 22.1782 18.2974 20.0612 17.488 17.9441C16.7798 15.7263 15.9704 13.4077 15.5657 11.8955C15.2332 10.9882 14.9586 9.87933 15.6669 8.66961C16.0716 7.86313 17.2857 6.65341 18.6009 6.4261C19.3092 6.4261 19.9162 6.5526 20.4221 6.95584C20.9279 7.45989 21.535 7.86313 22.142 8.16556C22.6479 8.46799 22.8503 8.46799 22.9515 8.36718C23.0526 8.36718 23.255 8.16556 23.4573 7.96394C23.6597 7.76232 23.862 7.5607 24.1655 7.25827C25.1773 6.5526 26.3914 6.5526 27.2008 6.5526L31.1466 6.65341C31.4501 6.65341 31.7536 6.65341 32.1583 6.75422C32.4619 6.85503 32.7654 7.05665 32.9677 7.25827C33.0689 7.35908 33.1701 7.45989 33.2713 7.45989C33.3724 7.45989 33.7771 7.35908 33.9795 7.25827C34.4854 7.05665 35.0924 6.75422 35.9018 6.85503C36.2053 6.95584 36.5089 7.05665 36.7112 7.15746C37.6218 7.5607 38.4312 7.45989 39.0382 7.05665L40.3535 7.15746C41.4664 8.26637 43.0852 9.77852 43.3887 11.7947C43.5911 13.2061 43.1864 14.6174 42.7817 15.7263C42.1746 17.6417 41.1629 19.4563 40.2523 21.1701C39.3417 22.8838 38.4312 24.4968 37.8241 26.3114C37.723 26.7146 37.723 27.3195 37.723 27.9243C37.723 29.1341 37.723 30.5454 36.61 31.4527C35.4971 32.2592 34.1818 32.6624 32.9677 32.7632C31.7536 32.9648 30.5395 33.0657 29.2243 33.0657C28.9208 33.1665 28.8196 33.1665 28.6172 33.1665M19.0056 8.46799C18.7021 8.46799 17.8927 9.07285 17.5892 9.67771C17.2857 10.1818 17.488 10.585 17.6904 11.4923C18.0951 13.0044 18.9045 15.2223 19.6127 17.4401C20.3209 19.5571 21.1303 21.7749 21.535 23.2871C21.7374 24.0936 21.9397 24.6984 22.0409 25.3033C22.4456 27.017 22.5467 27.7227 24.2667 29.4365C24.9749 30.1422 25.6832 30.6462 26.3914 30.9486C27.302 31.2511 28.3137 31.3519 29.2243 31.2511C30.3372 31.2511 31.5513 31.1503 32.6642 30.9486C33.676 30.747 34.6877 30.5454 35.3959 30.0413C35.8006 29.7389 35.6995 28.9324 35.6995 28.126C35.6995 27.3195 35.6995 26.6138 35.9018 25.8073C36.5089 23.8919 37.5206 22.0774 38.4312 20.3636C39.3417 18.6498 40.2523 17.0368 40.8594 15.2223C41.1629 14.2142 41.4664 13.2061 41.3652 12.198C41.1629 11.0891 40.4547 10.1818 39.4429 9.17366C38.33 9.67771 37.1159 9.67771 36.003 9.17366C35.6995 9.07285 35.5983 8.97204 35.4971 8.97204C35.3959 8.97204 35.0924 9.07285 34.7889 9.17366C34.283 9.37528 33.5748 9.77852 32.6642 9.5769C32.2595 9.47609 31.956 9.27447 31.7536 9.07285C31.6525 8.97204 31.5513 8.87123 31.4501 8.87123C31.3489 8.87123 31.2478 8.87123 31.0454 8.87123L27.0996 8.77042C26.3914 8.77042 25.6832 8.77042 25.3796 9.07285C25.2785 9.17366 25.0761 9.27447 24.9749 9.47609C24.6714 9.77852 24.2667 10.2826 23.6597 10.4842C22.6479 10.8874 21.535 10.2826 21.2315 10.0809C20.4221 9.5769 19.7139 9.07285 19.0056 8.46799"/>
	<path fill="#FF6C96" d="M20.1267 10.585C20.7335 11.0891 21.3404 11.5931 22.0483 11.9964C22.554 12.2988 23.1609 12.5004 23.6666 12.2988C24.2734 12.0972 24.5768 11.3915 25.0825 11.0891C25.7905 10.585 26.5996 10.585 27.5098 10.585C28.8246 10.585 30.1395 10.6859 31.4543 10.6859C31.6566 10.6859 31.9599 10.6859 32.1623 10.7867C32.5668 10.9883 32.8703 11.2907 33.3759 11.4923C34.2861 11.6939 35.0954 10.6859 36.1068 10.8875C36.4101 10.8875 36.6124 11.0891 36.8147 11.1899C37.826 11.5931 39.0397 11.4923 39.9501 10.8875C41.1637 12.0972 42.4785 13.3069 42.6807 15.0207C42.883 16.2304 42.4785 17.3393 42.175 18.4482C40.9614 22.1782 38.534 23.1863 37.3204 26.9163C36.8147 28.4284 36.8147 32.0576 35.4998 32.9649C34.5896 33.6705 34.1851 34.6786 33.0725 34.8803C31.8589 35.0819 30.7463 35.1827 29.5326 35.1827C28.4202 35.1827 27.4088 35.1827 26.3973 34.7795C25.4871 34.3762 24.5768 33.7714 23.8688 33.0657C21.4415 30.5454 21.6438 27.1179 20.7335 23.7912C19.9244 20.7669 18.0028 17.7426 17.0925 14.7183C16.8158 13.811 16.5868 13.0045 17.0925 12.198C17.4971 11.0891 19.1153 9.67775 20.1267 10.585"/>
	<path fill="#2D1B0A" d="M29.0218 35.9892C28.01 35.9892 26.9983 35.8884 25.8853 35.4851C24.8736 35.0819 23.963 34.477 23.0525 33.4689C21.1301 31.4527 20.7254 29.0333 20.2196 26.6138C20.0172 25.7065 19.916 24.6984 19.6125 23.7912C19.2078 22.3798 18.6008 20.9685 17.8925 19.3555C17.1843 17.8434 16.4761 16.2304 16.0714 14.6174C15.7389 13.7101 15.4643 12.6012 16.1726 11.3915C16.5773 10.585 17.7914 9.37531 19.1066 9.148C19.8149 9.148 20.4219 9.2745 20.9278 9.67774C21.4337 10.1818 22.0407 10.585 22.6478 10.8875C23.1536 11.1899 23.356 11.1899 23.4571 11.0891C23.5583 11.0891 23.7607 10.8875 23.963 10.6858C24.1654 10.4842 24.3677 10.2826 24.6712 9.98017C25.683 9.2745 26.8971 9.2745 27.7065 9.2745L31.6523 9.37531C31.9558 9.37531 32.2593 9.37531 32.664 9.47612C32.9676 9.57693 33.2711 9.77855 33.4734 9.98017C33.5746 10.081 33.6758 10.1818 33.777 10.1818C33.8781 10.1818 34.2828 10.081 34.4852 9.98017C34.9911 9.77855 35.5981 9.47612 36.4075 9.57693C36.711 9.67774 37.0146 9.77855 37.2169 9.87936C38.1275 10.2826 38.9369 10.1818 39.5439 9.77855L40.8592 9.87936C41.9721 10.9883 43.5909 12.5004 43.8944 14.5166C44.0968 15.928 43.6921 17.3393 43.2874 18.4482C42.6803 20.4644 41.6686 21.7749 40.6568 22.9847C39.7463 24.0936 38.9369 25.2025 38.431 26.9163C38.3298 27.3195 38.2287 28.0252 38.1275 28.7308C37.824 30.5454 37.5204 32.6624 36.3063 33.4689C36.104 33.6705 35.9016 33.8722 35.5981 34.1746C35.0922 34.7795 34.4852 35.3843 33.3723 35.5859C32.1582 35.7876 30.9441 35.8884 29.6288 35.8884C29.3253 35.9892 29.2241 35.9892 29.0218 35.9892M19.309 11.2907C19.0055 11.2907 18.1961 11.8956 17.8925 12.5004C17.589 13.0045 17.7914 13.4077 17.9937 14.315C18.3984 15.7263 19.0055 17.2385 19.7137 18.7506C20.4219 20.2628 21.1301 21.8758 21.5348 23.3879C21.8384 24.396 22.0407 25.4041 22.1419 26.3114C22.5466 28.63 22.9513 30.6462 24.4689 32.1584C25.1771 32.8641 25.8853 33.3681 26.5936 33.6705C27.5041 33.973 28.5159 34.0738 29.4265 33.973C30.5394 33.973 31.7535 33.8722 32.8664 33.6705C33.1699 33.5697 33.4734 33.3681 33.8781 32.8641C34.1817 32.5616 34.4852 32.2592 34.7887 31.9568C35.2946 31.5535 35.5981 29.6381 35.8005 28.4284C35.9016 27.6219 36.0028 26.9163 36.2052 26.4122C36.8122 24.396 37.824 23.0855 38.8357 21.8758C39.7463 20.7668 40.5557 19.6579 41.0615 17.9442C41.3651 16.9361 41.6686 15.928 41.5674 14.9199C41.3651 13.8109 40.6568 12.9037 39.6451 11.8956C38.5322 12.3996 37.3181 12.3996 36.2052 11.8956C35.9016 11.7948 35.8005 11.6939 35.6993 11.6939C35.5981 11.6939 35.2946 11.7948 34.9911 11.8956C34.4852 12.0972 33.777 12.5004 32.8664 12.2988C32.4617 12.198 32.1582 11.9964 31.9558 11.7948C31.8546 11.6939 31.7535 11.5931 31.6523 11.5931C31.5511 11.5931 31.4499 11.5931 31.2476 11.5931L27.3018 11.4923C26.5936 11.4923 25.8853 11.4923 25.5818 11.7948C25.4806 11.8956 25.2783 11.9964 25.1771 12.198C24.8736 12.5004 24.4689 13.0045 23.8619 13.2061C22.8501 13.6093 21.7372 13.0045 21.4337 12.8028C20.7254 12.3996 20.0172 11.8956 19.309 11.2907C19.4102 11.2907 19.4102 11.2907 19.309 11.2907C19.4102 11.2907 19.4102 11.2907 19.309 11.2907"/>
	<path fill="#60BF16" d="M23.2621 25.8073C23.97 26.6138 24.5769 27.6219 24.8803 28.63C25.1837 27.9244 25.386 27.1179 25.6894 26.4122C26.1951 27.4203 26.5997 28.4284 27.0042 29.4365C28.1168 28.7308 29.027 27.9244 29.9373 26.9163C30.2407 27.6219 30.443 28.4284 30.443 29.1341C31.2521 28.63 31.9601 27.9244 32.4658 27.0171C32.668 27.5211 32.9715 28.0252 33.1737 28.5292C33.8817 28.3276 34.2863 27.6219 34.8931 27.1179C35.3988 26.6138 36.3091 26.2106 36.8148 26.7146C37.2193 27.0171 37.2193 27.5211 37.2193 28.0252C37.2193 29.7389 36.9159 31.4527 36.4102 33.1665C36.2079 33.6705 36.0057 34.1746 35.7023 34.6786C34.9943 35.7875 33.6795 36.4932 32.4658 36.9972C31.0498 37.6021 29.5327 38.1061 28.1168 37.7029C25.7906 37.098 24.678 35.0819 24.0712 32.9649C23.7678 31.7551 23.5655 30.5454 23.4643 29.3357C23.3632 28.8316 23.6666 26.2106 23.2621 25.8073"/>
	<path fill="#2D1B0A" d="M29.027 39.0135C28.6225 39.0135 28.1168 38.9127 27.7122 38.8119C25.386 38.207 23.7678 36.2915 22.9586 33.2673C22.6552 32.0576 22.3518 30.747 22.3518 29.5373C22.3518 29.2349 22.3518 28.9325 22.3518 28.2268C22.3518 27.6219 22.3518 26.513 22.3518 26.2106C22.3518 26.2106 22.3518 26.3114 22.3518 26.4122L23.97 25.1017C24.1723 25.4041 24.4757 25.7065 24.678 26.009L25.4871 23.892L26.5997 25.9081C26.9031 26.513 27.2065 27.2187 27.5099 27.8235C28.1168 27.3195 28.6225 26.8154 29.1281 26.3114L30.1395 25.1017L30.7464 26.513C30.8475 26.7146 30.9487 27.0171 31.0498 27.2187C31.2521 27.0171 31.3532 26.8154 31.4543 26.513L32.4657 24.7992L33.4771 27.0171C33.5783 26.9163 33.5783 26.9163 33.6794 26.8154C33.7806 26.7146 33.8817 26.513 34.084 26.4122C34.9942 25.5049 36.4102 25.0009 37.4216 25.9081C38.1296 26.513 38.1296 27.5211 38.1296 27.9244C38.1296 29.7389 37.8261 31.6543 37.2193 33.3681C37.017 33.8722 36.8147 34.4771 36.4102 35.0819C35.4999 36.3924 34.084 37.1989 32.668 37.8037C31.6566 38.5095 30.3418 39.0135 29.027 39.0135M24.7792 31.856C24.8803 32.1584 24.8803 32.4608 24.9814 32.7632C25.5883 35.0819 26.5997 36.3924 28.2179 36.7957C29.3304 37.0981 30.6452 36.5941 31.8589 36.09C32.9714 35.586 34.084 34.981 34.6908 34.0737C34.9942 33.6705 35.0954 33.2673 35.2976 32.8641C35.8033 31.3519 36.1068 29.7389 36.1068 28.0252C36.1068 27.6219 36.0056 27.5211 36.0056 27.5211C36.0056 27.5211 35.7022 27.6219 35.4999 27.9244C35.3988 28.0252 35.2976 28.126 35.1965 28.2268C34.792 28.7308 34.1851 29.3357 33.376 29.5373L32.2635 29.0333C31.8589 29.4365 31.4543 29.7389 31.0498 30.0414L29.6338 30.9487L29.5327 29.2349C29.5327 29.1341 29.5327 28.9325 29.5327 28.8316C28.9259 29.3357 28.319 29.8397 27.6111 30.243L26.4985 30.9487L26.094 29.7389C25.9928 29.5373 25.9928 29.3357 25.8917 29.1341L24.7792 31.856"/>
	<path fill="white" d="M33.7807 57.7419C28.319 57.9435 25.1838 57.6411 19.3177 57.6411C22.1496 62.984 21.1382 69.8391 21.037 76.291C20.9359 79.3153 20.0256 84.255 18.7108 86.3719C16.9915 89.2955 14.8675 90.8076 13.1482 93.731C11.4288 96.6546 10.4174 100.385 11.9345 103.409C13.4516 106.433 16.9915 107.744 20.2279 108.55C23.5656 109.357 29.2294 109.357 32.5669 108.853C35.9045 108.349 39.7478 106.937 41.1637 103.913C42.5798 100.788 41.5684 97.1587 40.1524 94.7392C38.9388 92.6221 36.7136 89.7995 35.0955 87.9848C31.7579 84.0533 31.9601 81.7346 31.2521 76.5934C30.9487 74.3755 31.2521 71.452 31.2521 69.2343C31.4543 65.0002 31.8589 61.1694 33.7807 57.7419"/>
	<path fill="#2D1B0A" d="M27.2065 110.084C24.678 110.084 22.0483 109.883 20.1267 109.48C17.1936 108.774 12.9458 107.463 11.1253 103.834C9.60819 100.911 10.1139 97.0799 12.339 93.2491C13.2492 91.737 14.2606 90.6281 15.1709 89.5192C16.1823 88.4103 17.0925 87.4022 17.9016 85.9908C19.0142 83.9746 20.0256 79.2365 20.0256 76.4139C20.0256 75.2041 20.1267 73.9944 20.1267 72.7847C20.329 67.6434 20.6324 62.4013 18.4073 58.2681L17.5982 56.7559L19.3176 56.7559C21.6438 56.7559 23.5654 56.7559 25.2848 56.7559C28.0156 56.9575 30.4429 56.9575 33.6794 56.7559L35.4999 56.7559L34.5896 58.3689C32.7691 61.494 32.3646 64.9215 32.3646 69.1555C32.3646 69.7604 32.3646 70.4661 32.2634 71.2726C32.1623 73.0871 32.1623 74.9017 32.3646 76.4139C32.4657 77.2203 32.5668 77.926 32.668 78.5309C33.0725 82.16 33.376 84.1762 36.0056 87.2005C37.1181 88.5111 39.7477 91.737 41.1637 94.1564C41.8717 95.467 44.1979 100.003 42.2762 104.237C40.4557 108.068 35.601 109.379 32.8703 109.782C31.252 109.883 29.2292 110.084 27.2065 110.084M20.9358 58.6713C22.6552 63.0061 22.4529 67.9458 22.2506 72.7847C22.1495 73.9944 22.1495 75.1033 22.1495 76.3131C22.0483 79.4382 21.0369 84.5795 19.7221 86.8981C18.8119 88.5111 17.8005 89.62 16.7891 90.8297C15.8788 91.9386 14.9686 92.9467 14.1595 94.2573C13.2492 95.7694 11.3276 99.701 12.9458 102.927C14.0583 105.044 16.4857 106.556 20.6324 107.463C23.7677 108.169 29.4315 108.169 32.5668 107.766C34.893 107.463 39.0398 106.354 40.4557 103.431C41.9728 100.003 40.0512 96.2735 39.4443 95.1645C38.1295 92.8459 35.4999 89.7208 34.4885 88.5111C31.4543 84.9827 31.1509 82.4625 30.7463 78.7325C30.6452 78.1276 30.5441 77.422 30.4429 76.6155C30.2406 74.9017 30.2406 72.8855 30.3418 71.0709C30.3418 70.3653 30.4429 69.6596 30.4429 69.0547C30.4429 65.6272 30.7463 62.0988 32.1623 58.8729C29.6338 58.8729 27.5099 58.8729 25.2848 58.8729C23.97 58.6713 22.554 58.6713 20.9358 58.6713"/>
</svg>
