<?xml version="1.0" encoding="utf-8" ?>
<svg xmlns="http://www.w3.org/2000/svg" xmlns:xlink="http://www.w3.org/1999/xlink" width="116" height="64">
	<path fill="white" d="M57.3731 64C33.535 64 10.808 59.8481 8.08073 59.3418C3.53532 59.1392 0 55.4937 0 50.9367C0 46.2785 3.73734 42.5316 8.38375 42.5316C8.78779 42.5316 11.111 42.9367 14.7473 43.443C13.3332 40.8101 12.7271 38.2785 12.2221 36.4557C12.1211 35.8481 11.9191 35.2405 11.8181 34.8354C11.313 34.4304 10.2019 33.8228 9.69687 33.519C7.7777 32.4051 5.65651 31.0886 4.04036 29.1646C1.31312 25.9241 1.1111 21.8734 3.43431 18.2278C6.16155 13.8734 11.313 13.5696 14.2423 13.3671C15.2524 13.2658 16.8685 13.2658 17.2725 12.962C17.6766 12.7595 18.1816 12.0506 18.7877 11.3418L21.3129 13.0633L18.8887 11.2405C20.4038 9.21519 23.0301 5.67089 28.7876 4.86076C29.5957 4.75949 30.4037 4.65823 31.1108 4.65823C35.6562 4.65823 38.3834 6.78481 39.7976 7.89873C39.9996 8 40.3026 8.3038 40.4036 8.40506C40.4036 8.40506 40.5046 8.40506 40.5046 8.40506C40.8077 8.40506 41.6157 8 42.6258 7.39241C44.646 6.17722 47.6763 4.25316 52.1207 4.25316C52.4237 4.25316 52.7267 4.25316 53.0298 4.25316C55.252 2.32911 57.7772 1.21519 60.7064 0.708861C61.6155 0.607595 62.4236 0.506329 63.1307 0.506329C67.7771 0.506329 70.5043 2.63291 72.0195 3.74684C72.2215 3.8481 72.5245 4.1519 72.7265 4.25316C72.8275 4.25316 72.8275 4.25316 72.9285 4.25316C73.3326 4.25316 74.0396 3.8481 75.1507 3.13924C77.3729 1.82278 80.4032 0 84.8476 0C85.1506 0 85.4537 0 85.7567 0C94.7465 0.708861 97.0697 7.18987 98.0798 10.3291C98.0798 10.4304 98.1808 10.5316 98.1808 10.6329C98.4838 10.6329 98.7869 10.6329 99.0899 10.6329C101.312 10.6329 107.373 10.6329 110.908 15.7975C113.534 19.5443 113.534 22.7848 113.332 24.7089C118.181 30.0759 115.251 34.5316 113.635 36.2532C110.706 39.4937 106.969 39.7975 104.645 40C103.029 40.2025 102.221 40.2025 101.009 41.0127C100.908 41.1139 100.201 41.7215 100.201 41.7215C99.797 42.1266 99.1909 42.6329 98.4838 43.1392C102.928 42.5316 105.756 42.0253 105.756 42.0253C110.807 42.0253 114.544 45.7722 114.544 50.4304C114.544 54.9873 110.908 58.7342 106.464 58.8354C103.938 59.8481 81.2113 64 57.3731 64"/>
	<path fill="#F9DA9B" d="M84.7335 3.2404C80.9961 3.2404 78.5719 4.75938 76.5517 5.87331C74.9356 6.7847 73.9255 7.3923 72.8144 7.3923C72.6124 7.3923 72.3093 7.3923 72.0063 7.29103C71.4003 7.18976 70.9962 6.88597 70.0871 6.17711C68.673 5.16445 66.6528 3.5442 63.0165 3.5442C62.4105 3.5442 61.7034 3.64546 61.0973 3.64546C56.4509 4.35432 54.4307 6.98723 52.9156 8.91128C52.1075 10.0252 51.4005 10.9366 50.3904 11.4429C49.2793 12.0505 47.6631 12.1518 45.946 12.2531C43.1177 12.4556 39.1784 12.6581 37.1582 15.6961C35.5421 18.2277 35.6431 20.7594 37.5622 22.9872C38.8754 24.5062 40.7945 25.6201 42.6127 26.6328C43.9258 27.3417 45.4409 28.2531 45.845 28.8607C46.148 29.2657 46.451 30.4809 46.653 31.3923C47.9662 36.3543 50.4914 45.772 66.7539 48.3037C69.3801 48.81 72.0063 49.0125 74.4041 49.0125C87.4607 49.0125 94.9354 42.329 98.0667 39.4936C98.4707 39.0885 98.9757 38.6834 99.0768 38.5822C100.895 37.367 102.309 37.1644 104.127 36.9619C106.248 36.7594 109.077 36.4556 111.198 34.1265C114.733 30.2784 111.4 27.1391 110.289 26.1265C110.188 26.0252 109.986 25.8227 109.885 25.7214C109.885 25.6201 109.885 25.3163 109.986 25.2151C110.188 23.5948 110.592 21.0632 108.168 17.5189C105.541 13.6708 100.895 13.6708 98.8747 13.6708C98.5717 13.6708 98.2687 13.6708 98.0667 13.6708C97.8646 13.6708 97.5616 13.6708 97.3596 13.6708C96.6525 13.6708 96.2485 13.6708 96.0465 13.5695C95.7435 13.1644 95.3394 12.0505 95.0364 11.2404C94.0263 8.30369 92.3091 3.44293 85.8446 2.9366C85.5415 3.2404 85.1375 3.2404 84.7335 3.2404"/>
	<path fill="#2D1A0B" d="M74.5341 50.2278C72.0095 50.2278 69.384 50.0252 66.6575 49.5189C49.6925 46.886 47.168 37.1645 45.7542 31.8987C45.4513 31.0885 45.1484 29.8733 45.0474 29.6708C44.7444 29.2657 42.9268 28.1518 42.1189 27.7468C40.3012 26.7341 38.2816 25.5189 36.7669 23.8987C34.5453 21.367 34.3433 18.2278 36.262 15.3923C38.5845 11.848 42.9268 11.6455 45.8552 11.443C47.4709 11.3417 49.0866 11.2404 49.8945 10.8354C50.7024 10.4303 51.3082 9.62017 52.1161 8.60752C53.7318 6.5822 55.9534 3.64549 61.0025 2.93663C61.8104 2.83536 62.5172 2.7341 63.1231 2.7341C67.0614 2.7341 69.384 4.55688 70.7978 5.56954C71.7066 6.2784 71.9086 6.37967 72.3125 6.48093C72.5144 6.48093 72.7164 6.5822 72.9184 6.5822C73.8272 6.5822 74.5341 6.17714 76.1498 5.26574C78.1694 4.05055 80.8959 2.4303 84.8342 2.4303C85.1372 2.4303 85.3391 2.4303 85.6421 2.4303C93.2157 3.03789 95.1344 8.50625 96.1442 11.443C96.3462 11.9493 96.5481 12.6581 96.7501 13.1645C96.9521 13.1645 97.154 13.1645 97.457 13.1645C98.4668 13.1645 98.6687 13.1645 98.9717 13.1645C101.092 13.1645 106.242 13.1645 109.07 17.4176C111.695 21.2657 111.292 24.3037 111.09 25.8227C115.331 29.8733 113.858 33.2151 111.998 35.2404C109.575 37.8733 106.444 38.1771 104.324 38.3797C102.607 38.5822 101.294 38.6835 99.7795 39.7974C99.6786 39.8987 99.2746 40.2025 98.9717 40.5062C95.5383 43.3417 87.9647 50.2278 74.5341 50.2278M63.0221 4.65815C62.5172 4.65815 61.9113 4.65815 61.2045 4.75941C56.9632 5.36701 55.1456 7.69612 53.7318 9.62017C52.823 10.8354 52.0151 11.848 50.8033 12.4556C49.4906 13.1645 47.6729 13.2657 45.9562 13.367C43.1287 13.5695 39.6953 13.7721 37.9786 16.405C36.5649 18.5316 36.6659 20.6581 38.2816 22.4809C39.4934 23.8987 41.311 24.9113 43.0277 25.924C44.7444 26.9366 46.0572 27.7468 46.6631 28.4556C46.966 28.9619 47.269 29.7721 47.5719 31.0885C48.9857 36.0506 51.3082 44.9619 66.9604 47.3923C69.586 47.8987 72.1105 48.1012 74.5341 48.1012C87.2578 48.1012 94.4275 41.6202 97.457 38.886C98.0629 38.3797 98.3658 38.0759 98.5678 37.9746C100.587 36.5569 102.203 36.4556 104.122 36.2531C106.141 36.0506 108.666 35.848 110.585 33.8227C113.109 31.0885 111.594 28.9619 109.777 27.2404C109.575 27.0379 109.474 26.9366 109.373 26.8354L109.171 25.8227C109.171 25.7214 109.171 25.5189 109.272 25.4176C109.474 23.9999 109.878 21.6708 107.656 18.4303C105.334 14.9873 100.89 15.0885 99.1737 15.0885C98.8707 15.0885 98.6687 15.0885 98.3658 15.0885C96.8511 15.0885 96.3462 15.0885 96.0432 14.9873C95.1344 13.9746 94.7305 13.0632 94.4275 11.9493C93.4177 9.01258 91.903 4.75941 86.147 4.25308C85.5411 4.25308 85.3391 4.25308 85.0362 4.25308C81.6028 4.25308 79.3812 5.56954 77.3616 6.78473C75.6449 7.79739 74.5341 8.40498 73.1203 8.40498C72.8174 8.40498 72.5144 8.40498 72.2115 8.30372C71.3027 8.20245 70.7978 7.79739 69.7879 6.98726C68.1722 6.07587 66.3545 4.65815 63.0221 4.65815"/>
	<path fill="#F9DA9B" d="M52.1207 7.29103C48.5854 7.29103 46.1612 8.81002 44.141 9.92394C42.6259 10.8353 41.6158 11.4429 40.5047 11.4429C40.3026 11.4429 39.9996 11.4429 39.7976 11.3417C39.1915 11.2404 38.8885 11.0379 37.8784 10.2277C36.5653 9.21508 34.5451 7.59483 31.0098 7.59483C30.4038 7.59483 29.7977 7.69609 29.0906 7.69609C24.5452 8.40496 22.6261 11.0379 21.2119 12.8607C20.4039 13.8733 19.6968 14.886 18.6867 15.3923C17.6766 15.9999 16.0605 16.1012 14.3433 16.2024C11.6161 16.405 7.77773 16.6075 5.85856 19.6455C4.24241 22.1771 4.44443 24.7088 6.26259 26.9366C7.57571 28.4556 9.39387 29.5695 11.111 30.5822C12.3231 31.291 13.8383 32.2024 14.2423 32.81C14.4443 33.2151 14.7473 34.4303 15.0504 35.3417C16.3635 40.3037 18.7877 49.6201 34.5451 52.1518C37.0704 52.6581 39.5956 52.8607 42.0198 52.8607C54.6459 52.8607 61.8176 46.2784 64.8479 43.4429C65.2519 43.1391 65.6559 42.6328 65.8579 42.5315C67.5751 41.3163 68.9892 41.1138 70.7064 41.0126C72.7266 40.81 75.4538 40.5062 77.474 38.1771C80.8073 34.4303 77.676 31.1898 76.6659 30.1771C76.5649 30.0758 76.3629 29.8733 76.2619 29.772C76.2619 29.6708 76.2619 29.4682 76.3629 29.2657C76.5649 27.7467 76.9689 25.1138 74.6457 21.5695C72.1205 17.8227 67.5751 17.8227 65.6559 17.8227C65.3529 17.8227 65.1509 17.8227 64.8479 17.8227C64.6458 17.8227 64.3428 17.8227 64.1408 17.8227C63.4337 17.8227 63.0297 17.8227 62.8277 17.7214C62.5246 17.3163 62.1206 16.2024 61.9186 15.3923C60.9085 12.4556 59.2924 7.69609 53.0298 7.0885C52.9288 7.29103 52.5247 7.29103 52.1207 7.29103"/>
	<path fill="#2D1A0B" d="M42.1598 54.0759C39.7853 54.0759 37.1599 53.8734 34.5346 53.367C18.1768 50.7341 15.6524 41.0126 14.2388 35.8481C14.0368 35.0379 13.7339 33.8227 13.6329 33.6202C13.33 33.2151 11.6135 32.2025 10.8056 31.6962C9.08909 30.6835 7.06961 29.4683 5.65597 27.8481C3.53551 25.3164 3.33356 22.1772 5.1511 19.3417C7.37253 15.7974 11.6135 15.5949 14.4407 15.3924C15.9553 15.2911 17.47 15.1898 18.3787 14.7848C19.1865 14.3797 19.7924 13.5696 20.4992 12.5569C22.0138 10.5316 24.2352 7.59489 29.082 6.88603C29.7888 6.78476 30.4956 6.6835 31.1015 6.6835C34.9385 6.6835 37.1599 8.50628 38.5736 9.51894C39.4823 10.2278 39.6843 10.3291 39.9872 10.4303C40.1892 10.4303 40.3911 10.5316 40.5931 10.5316C41.4008 10.5316 42.1598 10.1265 43.7233 9.21514C45.6418 7.99995 48.3681 6.3797 52.2051 6.3797C52.508 6.3797 52.71 6.3797 53.0129 6.3797C60.384 6.9873 62.2015 12.4557 63.2113 15.3924C63.4132 15.8987 63.6152 16.6075 63.8171 17.1139C64.0191 17.1139 64.221 17.1139 64.423 17.1139C65.3317 17.1139 65.6347 17.1139 65.9376 17.1139C67.8561 17.1139 73.0058 17.1139 75.8331 21.367C78.3574 25.2151 77.9535 28.1519 77.7516 29.7721C81.7905 33.8227 80.4047 37.0632 78.6603 39.1898C76.3379 41.8227 73.2077 42.1265 71.1883 42.3291C69.4717 42.5316 68.26 42.6329 66.7454 43.7468C66.6444 43.8481 66.2405 44.1519 65.9376 44.4556C62.6054 47.2911 55.2343 54.0759 42.1598 54.0759M31.1015 8.70881C30.5966 8.70881 29.9908 8.70881 29.3849 8.81008C25.3459 9.41767 23.6294 11.7468 22.2157 13.5696C21.307 14.7848 20.4992 15.7974 19.3885 16.405C18.1768 17.1139 16.3592 17.2151 14.6427 17.3164C11.9164 17.5189 8.58422 17.7215 6.96863 20.3544C5.65597 22.481 5.75694 24.6075 7.27156 26.4303C8.48325 27.8481 10.1998 28.8607 11.9164 29.8734C13.532 30.886 14.8446 31.6962 15.3495 32.405C15.6524 32.9113 15.8544 33.7215 16.2583 35.0379C17.47 40 19.7924 48.9113 34.9385 51.3417C37.4629 51.8481 39.8862 52.0506 42.1598 52.0506C54.4265 52.0506 61.3937 45.5696 64.322 42.8354C64.8269 42.4303 65.2308 42.0253 65.4327 41.924C67.3512 40.5063 68.9668 40.3038 70.7844 40.2025C72.8038 40 75.2272 39.7974 76.9438 37.7721C79.3672 35.0379 77.7516 32.8101 76.136 31.1898C75.934 30.9873 75.8331 30.886 75.7321 30.7848C75.5301 29.7721 75.5301 29.5696 75.6311 29.4683C75.8331 28.0506 76.136 25.7215 74.0155 22.481C71.7941 19.1392 67.6542 19.1392 65.8366 19.1392C65.5337 19.1392 65.3317 19.1392 65.0288 19.1392C63.6152 19.1392 63.2113 19.1392 62.9084 19.0379C61.9996 18.0253 61.6967 17.1139 61.2928 16.1012C60.283 13.1645 58.8694 8.91135 53.3158 8.40502C52.8109 8.40502 52.508 8.40502 52.3061 8.40502C48.9739 8.40502 46.8535 9.72147 44.9349 10.9367C43.3194 11.9493 42.1598 12.5569 40.795 12.5569C40.4921 12.5569 40.1892 12.5569 39.8862 12.4557C38.9775 12.3544 38.4726 11.8481 37.5638 11.1392C35.9482 10.1265 34.2317 8.70881 31.1015 8.70881"/>
	<path fill="#D7E9FF" d="M106.361 56.2026C106.361 56.2026 82.7249 60.8608 57.4742 60.8608C32.1194 60.8608 8.58428 56.2026 8.58428 56.2026C5.65502 56.2026 3.2308 53.7722 3.2308 50.8355C3.2308 47.8988 5.65502 45.4684 8.58428 45.4684C8.58428 45.4684 37.0688 50.1266 57.4742 50.1266C77.9775 50.1266 106.361 45.4684 106.361 45.4684C109.291 45.4684 111.718 47.8988 111.718 50.8355C111.718 53.7722 109.392 56.2026 106.361 56.2026"/>
	<path fill="#2C180C" d="M57.4742 61.8735C33.03 61.8735 9.99991 57.5191 8.38376 57.2152C4.84844 57.1139 2.1212 54.2785 2.1212 50.8355C2.1212 47.2912 4.94945 44.4557 8.48477 44.4557C8.98982 44.4557 37.2724 49.114 57.4742 49.114C77.676 49.114 105.958 44.557 106.261 44.4557C109.999 44.4557 112.827 47.2912 112.827 50.8355C112.827 54.3798 109.999 57.2152 106.564 57.2152C104.746 57.5191 81.7163 61.8735 57.4742 61.8735M8.38376 46.3798C5.95954 46.3798 4.04037 48.4051 4.04037 50.7342C4.04037 53.1646 5.95954 55.0886 8.38376 55.0886C8.7878 55.0886 32.4239 59.7468 57.4742 59.7468C82.3224 59.7468 105.857 55.1899 106.16 55.0886C108.787 55.0886 110.706 53.1646 110.706 50.7342C110.706 48.3038 108.787 46.3798 106.362 46.3798C104.645 46.6836 77.1709 51.038 57.4742 51.038C37.5754 51.038 10.1009 46.6836 8.38376 46.3798"/>
</svg>
