<?xml version="1.0" encoding="utf-8" ?>
<svg xmlns="http://www.w3.org/2000/svg" xmlns:xlink="http://www.w3.org/1999/xlink" width="100" height="122">
	<path fill="white" d="M62.9371 122L62.9371 110.538L60.1399 110.538L60.1399 122L54.1459 122L54.1459 110.538L51.3487 110.538L51.3487 122L45.3546 122L45.3546 110.538L42.3576 110.538L42.3576 122L36.3636 122L36.3636 110.538L33.5664 110.538L33.5664 122L27.5724 122L27.5724 110.139C24.1758 108.943 21.6783 105.753 21.6783 101.966C21.6783 100.271 21.978 98.8758 22.6773 97.6797C8.69131 89.6062 0 75.652 0 61C0 46.049 8.29171 32.4935 22.3776 24.3203C22.2777 23.7222 22.1778 23.0245 22.1778 22.4265C22.1778 17.3431 26.0739 13.4559 30.8691 13.4559L36.1638 13.4559L36.1638 7.67484C36.1638 3.28922 41.0589 0 47.4525 0L49.6503 0C56.044 0 60.9391 3.28922 60.9391 7.67484L60.9391 13.4559L68.4316 13.4559C73.2268 13.4559 77.1229 17.3431 77.1229 22.1275C77.1229 22.9248 77.1229 23.5229 77.023 24.0212C91.2088 32.0948 100 46.049 100 61C100 76.3497 90.9091 90.5033 76.024 98.4771C76.4236 99.4739 76.7233 100.67 76.7233 101.766C76.7233 106.451 73.4266 110.139 69.1309 110.637L69.1309 122L62.9371 122M54.8452 13.3562L54.8452 7.67484C54.5455 7.17647 52.7473 5.98039 49.5504 5.98039L47.3526 5.98039C44.1558 5.98039 42.2577 7.17647 42.0579 7.67484L42.0579 13.3562L54.8452 13.3562"/>
	<path fill="#F43B3B" d="M96.8031 61C96.8031 83.6247 75.7815 101.966 49.85 101.966C23.9186 101.966 2.897 83.6247 2.897 61C2.897 38.3753 23.9186 20.0343 49.85 20.0343C75.7815 20.0343 96.8031 38.3753 96.8031 61"/>
	<path fill="#2D1A0B" d="M49.85 102.962C23.3765 102.962 1.898 84.1242 1.898 61C1.898 37.8758 23.3765 19.0376 49.85 19.0376C76.3236 19.0376 97.8021 37.8758 97.8021 61C97.8021 84.1242 76.3236 102.962 49.85 102.962M49.85 21.0311C24.4754 21.0311 3.896 38.9722 3.896 61C3.896 83.0278 24.4754 100.969 49.85 100.969C75.2247 100.969 95.8041 83.0278 95.8041 61C95.8041 38.9722 75.2247 21.0311 49.85 21.0311"/>
	<path fill="#F43B3B" d="M82.018 61C82.018 83.6247 67.6159 101.966 49.8501 101.966C32.0843 101.966 17.6823 83.6247 17.6823 61C17.6823 38.3753 32.0843 20.0343 49.8501 20.0343C67.6159 20.0343 82.018 38.3753 82.018 61"/>
	<path fill="#2D1A0B" d="M49.85 102.962C31.5683 102.962 16.6832 84.1242 16.6832 61C16.6832 37.8758 31.5683 19.0376 49.85 19.0376C68.1318 19.0376 83.0169 37.8758 83.0169 61C83.0169 84.1242 68.1318 102.962 49.85 102.962M49.85 21.0311C32.6672 21.0311 18.6812 38.9722 18.6812 61C18.6812 83.0278 32.6672 100.969 49.85 100.969C67.0329 100.969 81.0189 83.0278 81.0189 61C81.0189 38.9722 67.0329 21.0311 49.85 21.0311"/>
	<path fill="#F43B3B" d="M62.1379 61C62.1379 83.6247 56.7707 101.966 50.1499 101.966C43.5291 101.966 38.1619 83.6247 38.1619 61C38.1619 38.3753 43.5291 20.0343 50.1499 20.0343C56.7707 20.0343 62.1379 38.3753 62.1379 61"/>
	<path fill="#2D1A0B" d="M50.1499 102.962C42.058 102.962 37.1629 81.6324 37.1629 61C37.1629 40.3677 42.058 19.0376 50.1499 19.0376C58.2418 19.0376 63.1369 40.3677 63.1369 61C63.1369 81.6324 58.2418 102.962 50.1499 102.962M50.1499 21.0311C44.9551 21.0311 39.1609 37.4771 39.1609 61C39.1609 84.5229 44.9551 100.969 50.1499 100.969C55.3447 100.969 61.1389 84.5229 61.1389 61C61.1389 37.4771 55.3447 21.0311 50.1499 21.0311"/>
	<path fill="#FCD11A" d="M68.4314 28.0082L30.7692 28.0082C27.6722 28.0082 25.0748 25.5164 25.0748 22.3268C25.0748 18.9379 27.5723 16.3464 30.7692 16.3464L68.4314 16.3464C71.5284 16.3464 74.1257 18.8383 74.1257 22.0278C74.0258 25.5164 71.5284 28.0082 68.4314 28.0082"/>
	<path fill="#2D1A0B" d="M68.4315 29.0049L30.7692 29.0049C27.0729 29.0049 24.0759 26.0147 24.0759 22.3268C24.0759 18.3399 27.0729 15.3497 30.7692 15.3497L68.4315 15.3497C72.1278 15.3497 75.1249 18.3399 75.1249 22.0278C75.025 26.0147 72.0279 29.0049 68.4315 29.0049M30.7692 17.4428C28.1718 17.4428 26.0739 19.536 26.0739 22.1275C26.0739 25.018 28.1718 27.1111 30.7692 27.1111L68.4315 27.1111C71.0289 27.1111 73.1268 25.018 73.1268 22.4265C73.1268 19.536 71.0289 17.4428 68.4315 17.4428L30.7692 17.4428"/>
	<path fill="#FCD11A" d="M67.832 107.647L30.1698 107.647C27.0728 107.647 24.4754 105.155 24.4754 101.966C24.4754 98.5766 26.9729 95.9851 30.1698 95.9851L67.832 95.9851C70.9289 95.9851 73.5264 98.477 73.5264 101.667C73.5264 105.055 71.0288 107.647 67.832 107.647"/>
	<path fill="#2D1A0B" d="M67.8321 108.644L30.1698 108.644C26.4735 108.644 23.4765 105.653 23.4765 101.966C23.4765 97.9786 26.4735 94.9884 30.1698 94.9884L67.8321 94.9884C71.5284 94.9884 74.5255 97.9786 74.5255 101.667C74.5255 105.653 71.5284 108.644 67.8321 108.644M30.2697 97.0815C27.6723 97.0815 25.5744 99.1747 25.5744 101.766C25.5744 104.657 27.6723 106.75 30.2697 106.75L67.932 106.75C70.5294 106.75 72.6273 104.657 72.6273 102.065C72.6273 99.1747 70.5294 97.0815 67.932 97.0815L30.2697 97.0815"/>
	<path fill="#2D1A0B" d="M38.2617 107.647L40.2597 107.647L40.2597 120.007L38.2617 120.007L38.2617 107.647"/>
	<path fill="#2D1A0B" d="M29.4705 107.647L31.4685 107.647L31.4685 120.007L29.4705 120.007L29.4705 107.647"/>
	<path fill="#2D1A0B" d="M56.1439 107.647L58.1419 107.647L58.1419 120.007L56.1439 120.007L56.1439 107.647"/>
	<path fill="#2D1A0B" d="M64.9351 107.647L66.9331 107.647L66.9331 120.007L64.9351 120.007L64.9351 107.647"/>
	<path fill="#2D1A0B" d="M47.3526 107.647L49.3506 107.647L49.3506 120.007L47.3526 120.007L47.3526 107.647"/>
	<path fill="#2D1A0B" d="M58.8411 16.4461L56.8431 16.4461L56.8431 7.67483C56.8431 5.98039 53.8461 3.98692 49.5504 3.98692L47.3526 3.98692C43.0569 3.98692 40.0599 5.88071 40.0599 7.67483L40.0599 16.4461L38.0619 16.4461L38.0619 7.67483C38.0619 4.48529 42.1578 1.99346 47.3526 1.99346L49.5504 1.99346C54.7452 1.99346 58.8411 4.48529 58.8411 7.67483L58.8411 16.4461"/>
</svg>
