<?xml version="1.0" encoding="utf-8" ?>
<svg xmlns="http://www.w3.org/2000/svg" xmlns:xlink="http://www.w3.org/1999/xlink" width="90" height="90">
	<path fill="white" d="M45 90C20.1897 90 0 69.8103 0 45C0 20.1897 20.1897 0 45 0C69.8103 0 90 20.1897 90 45C90 69.8103 69.8103 90 45 90"/>
	<path fill="#FFDC4A" d="M86.9866 45C86.9866 68.1886 68.1886 86.9866 45 86.9866C21.8114 86.9866 3.0134 68.1886 3.0134 45C3.0134 21.8114 21.8114 3.0134 45 3.0134C68.1886 3.0134 86.9866 21.8114 86.9866 45"/>
	<path fill="#2D1B0A" d="M45 87.9911C21.2946 87.9911 2.00895 68.7054 2.00895 45C2.00895 21.2946 21.2946 2.00895 45 2.00895C68.7054 2.00895 87.9911 21.2946 87.9911 45C87.9911 68.7054 68.7054 87.9911 45 87.9911M45 4.01788C22.3995 4.01788 4.01788 22.3995 4.01788 45C4.01788 67.6004 22.3995 85.9821 45 85.9821C67.6004 85.9821 85.9821 67.6004 85.9821 45C85.9821 22.3995 67.6004 4.01788 45 4.01788"/>
	<path fill="#2D1B0A" d="M46.6071 66.6963C52.433 61.674 60.9709 61.674 66.7968 66.5959C69.7098 62.4776 71.4174 57.4553 71.4174 52.1316L21.0937 52.1316C21.0937 57.6562 22.9017 62.8794 26.0156 66.9977C31.741 61.5736 40.6808 61.4731 46.6071 66.6963"/>
	<path fill="#FF4646" d="M46.607 66.6964C40.6807 61.5736 31.741 61.6741 26.0155 66.9977C30.636 73.2254 37.9686 77.2432 46.3057 77.2432C54.8436 77.2432 62.2767 73.0246 66.8972 66.5959C60.9709 61.5736 52.4329 61.6741 46.607 66.6964"/>
	<path d="M28.828 40.6808L28.828 43.8951L27.6227 43.8951L27.6227 40.6808C25.7142 40.6808 24.107 40.279 22.7008 39.4753L22.7008 37.8683C24.2075 38.8727 25.9151 39.375 27.6227 39.375L27.6227 30.3348C25.6137 29.2299 24.3079 28.2254 23.6048 27.4219C22.9017 26.6183 22.6003 25.6138 22.6003 24.5089C22.6003 23.1026 23.0021 21.8973 23.9061 20.8928C24.8102 19.8883 26.0155 19.2856 27.5222 18.9843L27.5222 16.2723L28.7276 16.2723L28.7276 18.9843C30.2343 18.9843 31.6405 19.1852 32.645 19.6874L32.645 21.2946C31.6405 20.6919 30.3347 20.3906 28.7276 20.3906L28.7276 29.6317C30.6361 30.6361 31.8414 31.6406 32.645 32.4442C33.4485 33.2477 33.75 34.3527 33.75 35.4576C33.75 36.8638 33.3481 38.0692 32.4441 38.9732C31.6405 39.7767 30.4352 40.3793 28.828 40.6808M27.6227 20.2901C26.5178 20.491 25.7142 20.8928 25.1115 21.5959C24.5088 22.299 24.2075 23.2031 24.2075 24.2075C24.2075 25.1115 24.4084 25.9151 24.9106 26.5177C25.4128 27.221 26.3169 27.9241 27.7231 28.7277L27.7231 20.2901M28.828 31.0379L28.828 39.375C29.9329 39.174 30.837 38.7723 31.4396 38.0692C32.0423 37.366 32.3437 36.5625 32.3437 35.558C32.3437 34.654 32.1428 33.8503 31.6405 33.1473C31.1383 32.5446 30.1338 31.8414 28.828 31.0379"/>
	<path d="M62.2766 40.6808L62.2766 43.8951L61.0713 43.8951L61.0713 40.6808C59.1628 40.6808 57.5556 40.279 56.1494 39.4753L56.1494 37.8683C57.6561 38.8727 59.3637 39.375 61.0713 39.375L61.0713 30.3348C59.0623 29.2299 57.7565 28.2254 57.0534 27.4219C56.3503 26.6183 56.049 25.6138 56.049 24.5089C56.049 23.1026 56.4507 21.8973 57.3548 20.8928C58.2588 19.8883 59.4641 19.2856 60.9708 18.9843L60.9708 16.2723L62.1762 16.2723L62.1762 18.9843C63.6829 18.9843 65.0891 19.1852 66.0936 19.6874L66.0936 21.2946C65.0891 20.6919 63.7833 20.3906 62.1762 20.3906L62.1762 29.6317C64.0847 30.6361 65.29 31.6406 66.0936 32.4442C66.8971 33.2477 67.1985 34.3527 67.1985 35.4576C67.1985 36.8638 66.7968 38.0692 65.8927 38.9732C65.0891 39.7767 63.8838 40.3793 62.2766 40.6808M61.1717 20.2901C60.0668 20.491 59.2632 20.8928 58.6606 21.5959C58.0579 22.299 57.7565 23.2031 57.7565 24.2075C57.7565 25.1115 57.9574 25.9151 58.4597 26.5177C58.9619 27.221 59.8659 27.9241 61.2722 28.7277L61.2722 20.2901M62.2766 31.0379L62.2766 39.375C63.3815 39.174 64.2856 38.7723 64.8882 38.0692C65.4909 37.366 65.7923 36.5625 65.7923 35.558C65.7923 34.654 65.5914 33.8503 65.0891 33.1473C64.5869 32.5446 63.6829 31.8414 62.2766 31.0379"/>
</svg>
