<?xml version="1.0" encoding="utf-8" ?>
<svg xmlns="http://www.w3.org/2000/svg" xmlns:xlink="http://www.w3.org/1999/xlink" width="88" height="118">
	<path fill="white" d="M73.3722 21.7209C72.4642 21.7209 71.5563 21.8219 70.6484 21.9229L75.6924 19.2962L83.2586 23.3373L81.8462 14.851L88 8.89041L79.5259 7.67808L75.6924 0L71.859 7.67808L70.4466 7.88014C70.6484 6.86986 70.7493 5.75856 70.6484 4.74829L70.4466 2.72774L64.3937 3.3339L64.5955 5.35445C64.6964 6.46575 64.2928 7.67808 63.5867 8.89041C61.2664 12.4264 56.9285 15.7603 55.0117 16.9726L53.2967 18.0839L56.6258 23.1353L58.3408 22.024C59.2488 21.4178 64.3937 17.9829 67.8237 13.2346L69.4378 14.75L68.1263 22.226C61.9726 23.5394 56.3232 27.1764 51.4809 33.036L49.9677 34.6524L52.0862 36.774L54.2047 38.8955L55.617 37.4812C55.7179 37.3801 55.8188 37.1781 56.1214 36.976C56.7267 36.2688 57.332 35.5616 58.0382 34.8545L63.5867 40.3099L62.6787 45.5634C57.8364 47.4829 55.0117 50.5137 53.8012 52.3322L35.3398 41.6233L35.7434 39.7038C35.7434 39.5017 35.9451 39.1986 36.046 38.8955C36.9539 36.3699 39.1733 30.3082 37.0548 24.1455L40.1821 22.5291L43.6121 24.3476C43.4103 24.6507 43.3095 24.9538 43.3095 24.9538L42.1998 26.6712L47.2438 30.1062L48.3535 28.3887C48.6562 27.9846 55.5161 17.5788 51.5818 5.25342L50.9765 3.3339L45.2262 5.1524L45.8315 7.07192C46.235 8.4863 46.5377 9.90068 46.6386 11.214L44 10.8099L40.1821 3.13185L36.3486 10.8099L27.8746 12.0223L34.0284 17.9829C33.2213 17.9829 32.4143 17.1747 31.4054 16.3664L29.7913 15.0531L25.9578 19.8014L27.5719 21.1147C34.1292 26.3682 31.5063 33.4401 30.2957 36.774C30.094 37.4812 29.8922 37.8853 29.7913 38.3904L21.2164 33.4401C20.1067 32.8339 18.8961 32.5308 17.6856 32.5308C17.0803 32.5308 16.475 32.6318 15.8697 32.7329C14.0538 33.238 12.5406 34.3493 11.6327 35.9658C10.2203 38.3904 10.4221 41.3202 11.9353 43.5428C11.7335 43.9469 11.6327 44.4521 11.6327 44.8562L0.132159 108.908C-0.47313 112.14 1.04009 115.373 3.86478 116.99C5.07536 117.697 6.38682 118 7.79916 118C9.61503 118 11.33 117.394 12.7424 116.182L62.477 74.1541C62.8805 73.851 63.284 73.4469 63.5867 73.0428C63.5867 73.0428 63.6875 73.0428 63.6875 73.0428C66.2096 73.0428 68.5299 71.7295 69.7404 69.5068C71.6572 66.1729 70.5475 61.8288 67.2184 59.9092L59.047 55.262C60.4593 53.4435 64.2928 49.9075 72.0607 49.9075C73.1704 49.9075 74.381 50.0086 75.6924 50.1096L77.7101 50.4127L78.5171 44.351L76.6004 44.149L75.8942 40.3099L82.048 34.3493L73.5739 33.137L71.0519 28.0856C71.7581 27.9846 72.3634 27.9846 73.0695 27.9846C75.4907 27.9846 77.9118 28.4897 80.4339 29.5L82.3506 30.2072L84.57 24.5497L82.6533 23.8425C79.7277 22.3271 76.4995 21.7209 73.3722 21.7209M68.3281 28.3887L66.1087 32.9349L59.047 33.9452C61.4681 31.6216 64.5955 29.5 68.3281 28.3887"/>
	<path fill="#009042" d="M3.07395 109.312C2.35157 113.656 7.49653 116.586 10.8256 113.757L22.7297 103.654L9.21151 75.2655L3.07395 109.312"/>
	<path fill="#2D1A0B" d="M7.79919 115.879C6.79038 115.879 5.78156 115.576 4.87363 115.07C2.75511 113.858 1.64542 111.534 1.967 109.11L8.70713 72.0327L23.9402 103.957L11.4309 114.565C10.4221 115.475 9.11065 115.879 7.79919 115.879M9.61506 78.5995L4.06657 109.514C3.76393 111.433 4.77274 112.747 5.88244 113.353C6.99214 113.959 8.70713 114.262 10.1195 112.949L21.4182 103.351L9.61506 78.5995"/>
	<path fill="#009042" d="M59.854 64.0514L21.6199 41.9264C18.7952 40.31 15.1635 41.9264 14.6591 45.1593L13.7512 50.1097L34.4319 93.7535L60.5602 71.6285C62.9814 69.709 62.6787 65.6679 59.854 64.0514"/>
	<path fill="#2D1A0B" d="M34.038 95.4709L12.6415 50.3117L13.5498 45.0583C13.8526 43.2398 15.0638 41.6234 16.7795 40.8151C18.4953 40.0069 20.4129 40.1079 22.0277 41.0172L60.279 63.1422C61.8938 64.0514 63.004 65.6679 63.1357 67.5874C63.3068 69.5069 62.4994 71.2244 61.0864 72.4367L34.038 95.4709M14.761 50.0086L34.7445 92.2381L59.8753 71.0223C60.7836 70.2141 61.2883 69.1028 61.1874 67.869C61.0864 66.6781 60.3799 65.5668 59.3707 64.9607L21.1194 42.8357C20.0092 42.2295 18.798 42.1285 17.6879 42.6336C16.5777 43.1388 15.7702 44.149 15.5684 45.3614L14.761 50.0086"/>
	<path fill="#FCD11A" d="M9.2116 75.2655L22.7297 103.654L34.3311 93.8546L13.7513 50.2108"/>
	<path fill="#2D1A0B" d="M22.4271 105.271L8.2028 75.3664L13.3478 46.8767L35.7435 94.0565L22.4271 105.271M10.3213 75.1644L23.1333 102.038L33.2214 93.5514L14.2557 53.4435L10.3213 75.1644"/>
	<path fill="#FCD11A" d="M61.6403 69.4059L15.6383 42.8356C13.6729 41.7243 13.1162 39.2997 14.2259 37.3802C15.3356 35.4119 17.7568 34.8545 19.6735 35.9658L65.6755 62.5359C67.6409 63.6472 68.1976 66.0719 67.0879 67.9914C65.9782 69.81 63.557 70.5172 61.6403 69.4059"/>
	<path fill="#2D1A0B" d="M63.6773 70.9212C62.8701 70.9212 61.9619 70.719 61.1547 70.2136L15.1437 43.6287C12.6324 42.2136 11.9149 39.181 13.3275 36.7551C14.7401 34.2392 17.7672 33.5204 20.1888 34.9356L66.1998 61.5205C67.3097 62.228 68.2178 63.2389 68.5205 64.553C68.8232 65.867 68.6814 67.1811 68.016 68.3941C67.1079 70.0115 65.3926 70.9212 63.6773 70.9212M62.1637 68.4952C63.5764 69.3039 65.3926 68.7985 66.1998 67.3833C67.007 65.9681 66.5025 64.1486 65.0899 63.34L19.0789 36.7551C18.3726 36.3507 17.5653 36.2496 16.859 36.4518C16.0518 36.654 15.4464 37.1594 15.0428 37.867C14.6392 38.5746 14.5383 39.3832 14.7401 40.0908C14.9419 40.8995 15.4464 41.506 16.1527 41.9103L62.1637 68.4952"/>
	<path fill="#2D1A0B" d="M56.525 55.262L54.7091 54.3527C54.9109 53.9486 60.1567 43.9469 76.1969 45.9675L75.8942 47.988C61.3673 46.1695 56.6258 55.161 56.525 55.262"/>
	<path fill="#2D1A0B" d="M33.7257 38.9966L31.7081 38.5925C31.8089 38.2894 31.9098 37.8853 32.1116 37.2791C33.423 33.7432 36.4495 25.4589 28.7825 19.2962L30.094 17.6798C38.8707 24.7517 35.4407 34.3493 34.1292 37.8853C33.9275 38.3904 33.8266 38.7945 33.7257 38.9966"/>
	<path fill="#2D1A0B" d="M54.2046 35.9658L52.7923 34.5514C52.7923 34.5514 52.8932 34.4504 52.9941 34.2483C61.0646 24.5497 71.5563 21.3168 81.9471 25.3579L81.2409 27.2775C68.3281 22.1251 59.047 30.3083 54.6082 35.5617C54.4064 35.7637 54.3055 35.8648 54.2046 35.9658"/>
	<path fill="#2D1A0B" d="M46.6386 26.9743L44.9236 25.863C45.0245 25.762 50.9765 16.6695 47.6474 6.26366L49.5641 5.6575C53.1959 16.9726 46.8403 26.5702 46.6386 26.9743"/>
	<path fill="#2D1A0B" d="M57.2312 20.3065L56.1215 18.5891C56.2224 18.488 67.1176 11.4161 66.5123 4.95036L68.5299 4.7483C69.337 12.4264 57.7356 19.9024 57.2312 20.3065"/>
	<path fill="#FCD11A" d="M69.7405 32.0257L71.5564 35.6627L75.4907 36.2689L72.6661 39.0976L73.3722 43.0377L69.7405 41.2192L66.2096 43.0377L66.9158 39.0976L63.9902 36.2689L68.0255 35.6627"/>
	<path fill="#2D1A0B" d="M74.6837 44.9572L69.7405 42.3306L64.7973 44.9572L65.7052 39.5018L61.7709 35.6627L67.2185 34.8545L69.6396 29.9042L72.0608 34.8545L77.5084 35.6627L73.574 39.5018L74.6837 44.9572M66.1088 36.9761L67.9246 38.6935L67.5211 41.2192L69.7405 40.0069L71.9599 41.2192L71.5564 38.6935L73.3723 36.9761L70.8502 36.572L69.7405 34.3494L68.6308 36.572L66.1088 36.9761"/>
	<path fill="#FCD11A" d="M40.1822 9.69863L41.8972 13.3356L45.9324 13.9418L43.0069 16.7705L43.713 20.7106L40.1822 18.8921L36.5504 20.7106L37.2566 16.7705L34.331 13.9418L38.3663 13.3356"/>
	<path fill="#2D1A0B" d="M45.0244 22.6301L40.0813 20.0035L35.1381 22.6301L36.046 17.1747L32.1116 13.3356L37.5592 12.5274L39.9804 7.57705L42.4016 12.5274L47.8491 13.3356L43.9147 17.1747L45.0244 22.6301M40.1822 17.6798L42.4016 18.8922L41.998 16.3664L43.8139 14.649L41.2919 14.2449L40.1822 12.0223L39.0725 14.2449L36.5504 14.649L38.3663 16.3664L37.9628 18.8922L40.1822 17.6798"/>
	<path fill="#FCD11A" d="M75.4907 6.66776L77.3066 10.2037L81.3418 10.8099L78.4163 13.6386L79.1224 17.6798L75.4907 15.7602L71.9598 17.6798L72.666 13.6386L69.7404 10.8099L73.7757 10.2037"/>
	<path fill="#2D1A0B" d="M80.4339 19.4982L75.4907 16.8715L70.5475 19.4982L71.4554 14.0427L67.521 10.2037L72.9687 9.39549L75.3898 4.44515L77.811 9.39549L83.2586 10.2037L79.3242 14.0427L80.4339 19.4982M75.4907 14.649L77.7101 15.8612L77.3066 13.3356L79.1225 11.6181L76.6004 11.214L75.4907 8.99138L74.381 11.214L71.859 11.6181L73.6748 13.3356L73.2713 15.8612L75.4907 14.649"/>
</svg>
