<?xml version="1.0" encoding="utf-8" ?>
<svg xmlns="http://www.w3.org/2000/svg" xmlns:xlink="http://www.w3.org/1999/xlink" width="68" height="114">
	<path fill="white" d="M11.6288 111.305L17.4514 91.8389L11.3223 90.042C3.04806 87.6462 -1.75307 79.1611 0.596417 70.9755C2.12869 65.7846 5.80615 62.0911 10.403 60.4939C7.44058 56.7005 6.31691 51.7093 7.84918 46.8179C9.38146 41.627 13.0589 37.9335 17.6557 36.3363C14.6933 32.5429 13.5697 27.5517 15.1019 22.6602C17.145 15.7723 23.3762 11.1804 30.3225 11.1804C31.8548 11.1804 33.2849 11.38 34.7151 11.7793L40.8442 13.5762L44.9302 0L54.6346 2.7951L50.5486 16.3713L56.6777 18.1681C64.9519 20.5639 69.7531 29.049 67.4036 37.2347C65.8713 42.4256 62.1938 46.1191 57.597 47.7163C60.5594 51.5096 61.6831 56.5009 60.1508 61.3923C58.6185 66.5832 54.9411 70.2767 50.3443 71.8739C50.855 72.4729 51.2636 73.1716 51.6722 73.7706C53.7153 77.3643 54.1239 81.5569 53.0002 85.4501C50.9572 92.338 44.7259 96.9299 37.7796 96.9299C36.2473 96.9299 34.8172 96.7303 33.3871 96.331L27.258 94.5342L21.4353 114L11.6288 111.305"/>
	<path fill="#FCD11A" d="M47.2118 3.3568L51.036 4.44844L19.4711 110.044L15.6469 108.953L47.2118 3.3568"/>
	<path fill="#2D1A0B" d="M20.0052 111.304L14.1826 109.607L46.3604 2.0963L52.183 3.79332L20.0052 111.304M16.7364 108.31L18.5751 108.809L49.5271 5.09105L47.6883 4.59192L16.7364 108.31"/>
	<path fill="#F43B3B" d="M48.5691 44.8503L26.6065 38.5613C19.8645 36.6646 16.0849 29.7767 18.0258 23.1883C20.0688 16.2005 27.1173 12.507 33.8594 14.4037L55.822 20.6926C62.5639 22.5893 66.3436 29.4772 64.4026 36.0657C62.3596 42.9536 55.3111 46.7469 48.5691 44.8503"/>
	<path fill="#2D1A0B" d="M52.1872 46.3188C50.8596 46.3188 49.6342 46.1192 48.3066 45.8197L26.3507 39.5308C22.8786 38.5325 19.9171 36.2365 18.181 33.142C16.5059 30.0474 16.0365 26.3539 17.0577 22.9598C19.3044 15.473 26.8613 11.3801 34.1118 13.4765L56.0678 19.7654C63.3183 21.8617 67.5053 29.2488 65.3607 36.3364C64.2374 40.1297 61.8886 43.0246 58.7229 44.7216C56.6805 45.7199 54.4338 46.3188 52.1872 46.3188M48.9193 43.8232C51.8808 44.7216 55.0466 44.3224 57.8038 42.9248C60.5611 41.4274 62.5014 39.0316 63.4204 36.1367C65.3607 29.7479 61.7865 23.3591 55.6593 21.6621L33.7034 15.3731C27.5761 13.5763 21.0404 17.0702 19.3044 23.0597C18.2832 26.3539 18.6917 29.4484 20.1213 32.1437C21.6531 34.839 24.104 36.7357 27.0655 37.6341L48.9193 43.8232"/>
	<path fill="#F43B3B" d="M41.3549 69.0079L19.3923 62.7189C12.6503 60.8222 8.87072 53.9343 10.8116 47.3459C12.8546 40.3581 19.9031 36.6646 26.6451 38.5613L48.6077 44.8502C55.3497 46.7469 59.1293 53.6348 57.1884 60.2233C55.0432 67.1112 47.9947 70.9045 41.3549 69.0079"/>
	<path fill="#2D1A0B" d="M44.8759 70.4764C43.6504 70.4764 42.3228 70.2768 41.0974 69.9773L19.1415 63.6884C15.6694 62.6901 12.7079 60.3941 10.9718 57.2996C9.2967 54.205 8.82731 50.5115 9.84852 47.1174C12.0952 39.6306 19.6521 35.5377 26.9026 37.6341L48.8586 43.923C52.3307 44.9213 55.2921 47.2173 57.0282 50.3118C58.7642 53.4064 59.1727 57.0999 58.1515 60.494C56.3134 66.6831 50.7988 70.4764 44.8759 70.4764M41.608 67.9808C47.7352 69.7777 54.2709 66.2838 56.007 60.2943C57.0282 57.0001 56.6197 53.9055 55.19 51.2102C53.6582 48.515 51.2073 46.6183 48.2458 45.7199L26.2899 39.4309C20.1627 37.6341 13.627 41.1279 11.8909 47.1174C10.8697 50.4116 11.2782 53.5062 12.7079 56.2015C14.1376 58.8968 16.6906 60.7934 19.6521 61.6919L41.608 67.9808"/>
	<path fill="#F43B3B" d="M34.2043 93.1614L12.2417 86.8724C5.49968 84.9757 1.72007 78.0878 3.66095 71.4994C5.70398 64.5116 12.7524 60.8181 19.4945 62.7148L41.4571 69.0037C48.1991 70.9004 51.9787 77.7883 50.0378 84.3768C47.8926 91.3645 40.8441 95.058 34.2043 93.1614"/>
	<path fill="#2D1A0B" d="M37.7795 94.6339C36.4516 94.6339 35.2257 94.4343 33.8978 94.1348L11.9352 87.8459C4.6824 85.7495 0.49418 78.3625 2.63937 71.2749C4.8867 63.7881 12.4459 59.6952 19.6987 61.7916L41.6613 68.0805C45.1344 69.0788 48.0968 71.3748 49.8334 74.4693C51.57 77.5639 51.9786 81.2574 50.9571 84.6515C49.8334 88.4448 47.4839 91.3397 44.3172 93.0367C42.2742 94.1348 40.0269 94.6339 37.7795 94.6339M15.9191 63.1891C10.9137 63.1891 6.21467 66.3835 4.78455 71.3748C2.84367 77.7635 6.41898 84.1523 12.5481 85.8494L34.5107 92.1383C37.4731 93.0367 40.6398 92.6375 43.3979 91.2399C46.156 89.7425 48.0968 87.3467 49.0162 84.4518C50.0377 81.1576 49.6291 78.063 48.199 75.3677C46.6667 72.6725 44.2151 70.7758 41.2527 69.8774L19.2901 63.5884C18.0643 63.3888 16.9406 63.1891 15.9191 63.1891"/>
</svg>
