<?xml version="1.0" encoding="utf-8" ?>
<svg xmlns="http://www.w3.org/2000/svg" xmlns:xlink="http://www.w3.org/1999/xlink" width="76" height="80">
	<path fill="white" d="M38 80C17.0134 80 0 63.2161 0 42.5126C0 27.4372 9.37265 13.7688 23.4316 7.9397C24.2466 3.21608 27.7105 0.100503 32.2949 0.100503C34.1287 0.100503 36.1662 0.603015 38.1019 1.60804C40.1394 0.603015 42.1769 0 44.0107 0C48.4933 0 51.7534 3.11558 52.5684 7.8392C66.6273 13.6683 76 27.3367 76 42.4121C76 63.1156 58.9866 80 38 80M25.2654 16.2814C15.2815 21.1055 8.76139 31.1558 8.76139 42.2111C8.76139 58.0905 21.9035 71.0553 38 71.0553C54.0965 71.0553 67.2386 58.0905 67.2386 42.2111C67.2386 31.2563 60.7185 21.1055 50.7346 16.2814C47.1689 21.407 39.8338 25.0251 38.1019 25.0251C36.37 25.1256 28.933 21.407 25.2654 16.2814"/>
	<path fill="#FFE088" d="M37.9999 77.186C18.6434 77.186 2.75065 61.5076 2.75065 42.4121C2.75065 23.3167 18.6434 7.63825 37.9999 7.63825C57.3565 7.63825 73.2494 23.3167 73.2494 42.4121C73.2494 61.5076 57.4585 77.186 37.9999 77.186M37.9999 10.6533C20.4771 10.6533 6.11258 24.7236 6.11258 42.1106C6.11258 59.397 20.3754 73.5679 37.9999 73.5679C55.6246 73.5679 69.8874 59.4976 69.8874 42.1106C69.9893 25.0252 55.6246 10.6533 37.9999 10.6533"/>
	<path fill="#2C180C" d="M38 78.191C18.0322 78.191 1.7319 62.1106 1.7319 42.4121C1.7319 22.7136 18.0322 6.6332 38 6.6332C57.9678 6.6332 74.2681 22.7136 74.2681 42.4121C74.2681 62.1106 58.0697 78.191 38 78.191M38 8.54275C19.1528 8.54275 3.76943 23.7186 3.76943 42.3116C3.76943 60.9046 19.1528 76.0804 38 76.0804C56.8472 76.0804 72.2306 60.9046 72.2306 42.3116C72.2306 23.7186 56.9491 8.54275 38 8.54275M38 74.5729C19.8659 74.5729 5.09383 60 5.09383 42.1106C5.09383 24.2211 19.8659 9.64828 38 9.64828C56.134 9.64828 70.9062 24.2211 70.9062 42.1106C70.9062 60 56.134 74.5729 38 74.5729M38 11.6583C20.9866 11.6583 7.13136 25.3267 7.13136 42.1106C7.13136 58.8945 20.9866 72.5628 38 72.5628C55.0134 72.5628 68.8686 58.8945 68.8686 42.1106C68.8686 25.3267 55.0134 11.6583 38 11.6583"/>
	<path fill="#EF374D" d="M26.2333 10.2513C26.2333 3.81915 31.2253 0.70358 38.051 4.92468C45.1824 0.50257 49.6649 3.81915 49.6649 10.2513C49.6649 16.6835 38.6623 21.9096 38.051 21.9096C37.4397 21.9096 26.2333 16.784 26.2333 10.2513"/>
	<path fill="#2C180C" d="M38.051 22.9146C37.0322 22.9146 25.2145 17.4874 25.2145 10.2512C25.2145 6.83415 26.5389 4.12058 28.9839 2.81405C31.429 1.50752 34.689 1.80903 38.1528 3.81908C41.6166 1.80903 44.7748 1.40702 47.118 2.71355C49.4611 3.91958 50.7855 6.73365 50.7855 10.2512C50.6837 17.3869 39.0697 22.9146 38.051 22.9146M32.244 4.02008C31.429 4.02008 30.614 4.22109 29.9008 4.52259C28.1689 5.42712 27.252 7.53767 27.252 10.2512C27.252 15.5779 36.2172 20.3015 38.051 20.9045C39.8847 20.3015 48.6461 15.4774 48.6461 10.2512C48.6461 7.43717 47.7292 5.32662 46.0992 4.42209C44.2654 3.41707 41.6166 3.91958 38.6622 5.82913L37.6435 5.82913C35.6059 4.6231 33.874 4.02008 32.244 4.02008"/>
</svg>
