<?xml version="1.0" encoding="utf-8" ?>
<svg xmlns="http://www.w3.org/2000/svg" xmlns:xlink="http://www.w3.org/1999/xlink" width="64" height="72">
	<path fill="white" d="M38.4288 72C37.7233 72 37.1186 71.7992 36.6147 71.5983L34.8005 71.4979C34.3974 71.6987 33.5911 71.7992 33.1879 71.7992L30.769 71.7992C30.2651 71.7992 29.862 71.6987 29.358 71.4979C29.1565 71.3975 29.0557 71.3975 28.8541 71.3975L27.3423 71.5983C26.8384 71.8996 26.1329 72 25.5281 72L23.4116 72C22.7061 72 22.1014 71.7992 21.5975 71.5983L19.8841 71.4979C19.6825 71.5983 19.1786 71.5983 18.8762 71.5983L16.0542 71.5983C13.5345 71.5983 11.418 69.4895 11.418 66.9791L11.418 57.841C6.07628 51.7155 3.75819 48.5021 1.23852 38.7615C-1.48273 29.0209 0.331437 18.7782 6.17707 11.1464C11.8211 3.91632 20.5896 0 31.0714 0L32.5832 0C44.7784 0.502092 53.2445 3.61506 58.3846 9.53975C63.1216 15.1632 64.835 22.795 63.6255 33.5397C62.7185 42.5774 60.8035 51.9163 53.3453 58.2427L52.6398 67.1799C52.6398 69.6904 50.5233 71.7992 48.0036 71.7992L45.3831 71.7992C44.98 71.7992 44.1737 71.7992 43.9721 71.6987L42.0572 71.3975C41.5532 71.5983 41.0493 71.6987 40.7469 71.6987L39.3359 71.8996"/>
	<path fill="white" d="M31.1721 2.7615C31.676 2.7615 32.0681 2.7615 32.3815 2.7615C57.9814 3.66527 62.7182 17.0209 60.8034 33.2887C59.8962 43.0293 57.6789 51.8661 49.8176 57.3891L49.8176 67.1297C49.8176 68.0335 48.9106 69.0377 47.9026 69.0377L45.2822 69.0377C44.3752 69.0377 43.3672 68.1339 43.3672 67.1297L43.3672 60C42.6618 60.2008 42.6618 60.2008 41.9563 60.5021L41.9563 67.1297C41.9563 68.0335 41.0491 69.0377 40.0413 69.0377L38.6302 69.2385C37.7232 69.2385 36.7153 68.3347 36.7153 67.3305L36.7153 61.8075C35.8083 62.0084 36.2113 62.0084 35.3043 62.0084L35.3043 67.0293C35.3043 67.933 34.3972 68.9372 33.3894 68.9372L30.9704 68.9372C30.0634 68.9372 29.0555 68.0335 29.0555 67.0293L29.0555 62.0084C28.1485 62.0084 28.5515 62.0084 27.6444 61.8075L27.6444 67.3305C27.6444 68.2343 26.7374 69.2385 25.7295 69.2385L23.6131 69.2385C22.7059 69.2385 21.698 68.3347 21.698 67.3305L21.698 60.7029C20.791 60.2008 21.1942 60.2008 20.2871 59.7992L20.2871 67.2301C20.2871 68.1339 20.0854 68.9372 19.0777 68.9372L16.2556 68.9372C15.3485 68.9372 14.3406 68.0335 14.3406 67.0293L14.3406 56.7866C8.59579 50.5607 6.68084 47.9498 4.06038 38.2092C-0.37424 21.6402 8.495 2.7615 31.1721 2.7615"/>
	<path fill="#2D1A0B" d="M38.7311 70.2427C37.5217 70.2427 36.413 69.4393 36.0099 68.3347C35.506 69.2385 34.4981 69.9414 33.4902 69.9414L31.0713 69.9414C30.0635 69.9414 29.0556 69.2385 28.5517 68.3347C28.0477 69.3389 27.0399 70.2427 25.8304 70.2427L23.7139 70.2427C22.706 70.2427 21.6982 69.5397 21.1942 68.636C20.6903 69.7406 19.6824 69.9414 19.1785 69.9414L16.3565 69.9414C14.8447 69.9414 13.4337 68.5355 13.4337 67.0293L13.4337 57.1883C7.58802 50.7615 5.77386 48.0502 3.1534 38.5104C0.63373 29.0711 2.34711 19.2301 7.7896 12.2008C11.4179 7.48115 18.5738 1.7573 31.2729 1.7573L32.4824 1.7573C44.1736 2.15897 52.2366 5.07111 57.0743 10.6945C61.509 15.9163 63.1215 23.2468 61.9121 33.3891C61.1058 42.1255 59.1909 51.8661 50.9263 57.8912L50.9263 67.1297C50.9263 68.636 49.5153 70.0418 48.0035 70.0418L45.2823 70.0418C44.1736 70.0418 43.1658 69.3389 42.6618 68.3347C42.1579 69.2385 41.15 70.0418 40.1422 70.0418L38.7311 70.2427M19.2793 58.1924L20.6903 58.795C21.295 59.0962 21.4966 59.1966 21.6982 59.3975C21.799 59.4979 21.8997 59.5983 22.2021 59.6987L22.706 67.2301C22.706 67.6318 23.21 68.1339 23.6131 68.1339L25.7296 68.1339C26.1328 68.1339 26.6367 67.6318 26.6367 67.2301L26.6367 60.5021L27.8462 60.8033C28.1485 60.9037 28.3501 60.9037 28.4509 60.9037C28.6525 60.9037 28.7532 60.9037 29.0556 60.9037L30.0635 60.9037L30.0635 66.9288C30.0635 67.3305 30.5674 67.8326 30.9706 67.8326L33.3894 67.8326C33.7926 67.8326 34.2965 67.3305 34.2965 66.9288L34.2965 60.9037L35.3044 60.9037C35.6068 60.9037 35.7075 60.9037 35.8083 60.9037C36.0099 60.8033 36.2115 60.8033 36.5138 60.7029L37.7233 60.4017L37.7233 67.1297C37.7233 67.5314 38.2272 68.0335 38.5296 68.0335L40.0414 67.8326C40.4445 67.8326 40.9485 67.3305 40.9485 66.9288L40.9485 59.5983C42.2587 58.9958 42.3595 58.9958 43.065 58.795L44.3752 58.3933L44.3752 66.8284C44.3752 67.2301 44.8791 67.7322 45.2823 67.7322L47.9027 67.7322C48.3059 67.7322 48.8098 67.2301 48.8098 66.8284L48.8098 56.5858C57.0743 50.7615 58.9893 41.8242 59.7956 32.887C60.9042 23.3473 59.4932 16.4184 55.361 11.6987C50.9263 6.57738 43.3673 3.86609 32.2808 3.46441L31.0713 3.46441C21.5974 3.46441 14.0384 6.77822 9.20061 13.1046C4.16127 19.6318 2.54868 28.7699 4.96757 37.6067C7.58802 47.4477 9.50297 49.7573 15.0462 55.7824L15.3486 66.728C15.3486 67.1297 15.8525 67.6318 16.2557 67.6318L19.0777 67.6318C19.1785 67.6318 19.1785 67.6318 19.1785 67.6318C19.1785 67.6318 19.2793 67.4309 19.2793 66.9288L19.2793 58.1924"/>
	<path fill="#2D1A0B" d="M26.6368 29.8243C26.6368 33.6402 22.1014 39.8661 18.2715 39.8661C14.4416 39.8661 11.3172 36.7532 11.3172 32.9372C11.3172 29.1213 14.4416 26.0084 18.2715 26.0084C22.303 26.0084 26.6368 26.0084 26.6368 29.8243"/>
	<path fill="#2D1A0B" d="M52.9422 32.636C52.9422 36.4519 49.8178 39.5648 45.9879 39.5648C42.158 39.5648 39.0336 33.3389 39.0336 29.8243C39.0336 26.3096 42.158 26.0084 45.9879 26.0084C49.8178 26.0084 52.9422 28.8201 52.9422 32.636"/>
	<path fill="white" d="M35.4135 51.0125L30.8781 51.0125C29.1647 51.0125 28.2576 49.3054 29.1647 47.8996L31.5836 44.0837C32.2891 42.6778 34.4056 42.6778 35.2119 44.0837L37.3284 47.8996C38.0339 49.4058 36.8245 51.0125 35.4135 51.0125"/>
	<path fill="white" d="M35.4052 52.0167L30.8698 52.0167C29.6604 52.0167 28.6525 51.4142 28.1486 50.5104C27.6446 49.5063 27.6446 48.4016 28.3501 47.3975L30.769 43.5816C31.1722 42.6778 32.18 42.0753 33.2887 42.0753C34.4981 42.0753 35.506 42.6778 36.1107 43.682L38.2272 47.4979C38.7312 48.5021 38.6303 49.7071 38.0257 50.6109C37.421 51.4142 36.4131 52.0167 35.4052 52.0167M33.3895 43.9832C33.3895 43.9832 33.2887 43.9832 33.3895 43.9832C33.1879 43.9832 32.7848 44.0837 32.4824 44.4853L30.0635 48.4016C29.8619 48.8033 29.7612 49.1046 29.9627 49.5063C30.1643 49.8075 30.4667 50.0083 30.8698 50.0083L35.4052 50.0083C35.7076 50.0083 36.1107 49.8075 36.3123 49.4058C36.4131 49.205 36.6147 48.8033 36.4131 48.3012L34.2966 44.5858C34.095 44.1841 33.6918 43.9832 33.3895 43.9832"/>
</svg>
