<?xml version="1.0" encoding="utf-8" ?>
<svg xmlns="http://www.w3.org/2000/svg" xmlns:xlink="http://www.w3.org/1999/xlink" width="72" height="64">
	<path fill="white" d="M36 64C20.0672 64 9.17647 62.5845 3.63025 59.9558C0 58.237 0 56.6193 0 55.5071C0 53.3839 1.10924 50.7551 9.68067 49.1374L11.2941 48.8341L11.2941 23.4566C11.2941 10.515 21.7815 0 34.6891 0C41.042 0 46.9916 2.42654 51.3277 6.8752C55.6639 11.2227 57.9832 17.0869 57.8824 23.4566L57.8824 48.4297L59.5966 48.733C70.5882 50.5529 72 53.2828 72 55.6082C72 56.7204 72 58.237 68.3697 60.0569C62.8235 62.6856 51.9328 64 36 64"/>
	<path fill="#F9B47A" d="M69.6807 55.6082C69.6807 58.791 54.782 61.3713 36.4034 61.3713C18.0249 61.3713 3.1261 58.791 3.1261 55.6082C3.1261 52.4254 18.0249 49.8452 36.4034 49.8452C54.782 49.8452 69.6807 52.4254 69.6807 55.6082"/>
	<path fill="#2D1A0B" d="M36.4034 62.3823C24.5043 62.3823 2.1177 60.9668 2.1177 55.6082C2.1177 50.2496 24.5043 48.8341 36.4034 48.8341C48.3026 48.8341 70.6891 50.2496 70.6891 55.6082C70.6891 60.9668 48.2017 62.3823 36.4034 62.3823M36.4034 50.8562C15.5295 50.8562 4.13451 53.9905 4.13451 55.6082C4.13451 57.2259 15.5295 60.3602 36.4034 60.3602C57.2774 60.3602 68.6723 57.2259 68.6723 55.6082C68.6723 53.9905 57.2774 50.8562 36.4034 50.8562"/>
	<path fill="#2D1A0B" d="M53.3446 56.8214L16.0337 56.8214C15.1261 56.8214 14.1177 55.9115 14.1177 54.9005L14.1177 23.2544C14.1177 11.9305 23.4958 2.62875 34.6891 2.62875C45.9832 2.62875 55.2606 12.0316 55.2606 23.2544L55.2606 54.9005C55.2606 55.8105 54.5547 56.8214 53.3446 56.8214"/>
	<path fill="#2D1A0B" d="M53.3447 57.8325L16.0338 57.8325C14.5212 57.8325 13.1094 56.4171 13.1094 54.9005L13.1094 23.2544C13.1094 11.3239 22.7901 1.6177 34.6892 1.6177C46.5884 1.6177 56.2691 11.3239 56.2691 23.2544L56.2691 54.9005C56.2691 56.316 55.1598 57.8325 53.3447 57.8325M34.6892 3.63982C24.101 3.63982 15.1262 12.6382 15.1262 23.2544L15.1262 54.9005C15.1262 55.3049 15.6304 55.8104 16.0338 55.8104L53.3447 55.8104C54.0506 55.8104 54.2523 55.2038 54.2523 54.9005L54.2523 23.2544C54.2523 12.6382 45.2775 3.63982 34.6892 3.63982"/>
	<path fill="#FFD04D" d="M19.8656 30.4329C20.5714 30.4329 20.5714 30.2307 20.5714 29.7251L20.5714 26.2875C19.2605 26.2875 19.1597 26.4897 18.958 27.1975C18.8572 26.7931 18.958 26.3886 18.958 25.8831C19.0588 26.0853 19.1597 26.0853 19.2605 26.0853C19.3614 26.0853 19.3614 26.0853 19.4622 26.0853L22.2857 26.0853C22.4874 26.0853 22.4874 26.0853 22.5882 25.8831C22.6891 26.1864 22.6891 26.692 22.7899 27.0964C22.4874 26.2875 22.2857 26.1864 21.6807 26.1864L21.0756 29.624C21.0756 30.1296 21.0756 30.2307 21.8824 30.3318L19.8656 30.4329"/>
	<path fill="#FFD04D" d="M26.1176 29.0174C26.1176 30.0284 25.3109 30.6351 24.605 30.6351C23.6975 30.6351 23.0924 29.9273 23.0924 29.2196C23.0924 28.1074 24 27.6019 24.605 27.6019C25.5126 27.6019 26.1176 28.2085 26.1176 29.0174M23.5966 28.9163C23.5966 29.8262 24.1008 30.4329 24.8067 30.4329C25.4118 30.4329 25.8151 30.0284 25.8151 29.1185C25.8151 28.4108 25.4118 27.6019 24.605 27.6019C23.8992 27.6019 23.5966 28.2085 23.5966 28.9163"/>
	<path fill="#FFD04D" d="M26.6218 30.4329C27.126 30.4329 27.2269 30.3318 27.2269 29.8262L27.2269 28.5119C27.2269 28.0063 27.2269 28.0063 26.7227 27.9052C27.0252 27.703 27.3277 27.703 27.5294 27.5008C28.2353 27.6019 28.4369 27.6019 28.6386 27.6019C28.9411 27.6019 29.2437 27.8041 29.3445 28.2085C30.1512 27.703 30.3529 27.6019 30.4537 27.6019C30.9579 27.6019 31.2605 27.9052 31.2605 28.4108L31.2605 29.8262C31.2605 30.3318 31.3613 30.4329 31.7647 30.4329L30.3529 30.534C30.8571 30.4329 30.9579 30.3318 30.9579 29.8262L30.9579 28.7141C30.9579 28.3097 30.8571 27.9052 30.2521 27.9052C29.9495 27.9052 29.647 28.1074 29.3445 28.3097C29.3445 28.4108 29.3445 28.5119 29.3445 28.5119L29.3445 29.8262C29.3445 30.3318 29.4453 30.4329 29.8487 30.4329L28.4369 30.534C28.9411 30.4329 29.042 30.3318 29.042 29.8262L29.042 28.7141C29.042 28.3097 28.9411 27.9052 28.3361 27.9052C28.0336 27.9052 27.7311 28.1074 27.5294 28.3097L27.5294 29.8262C27.5294 30.3318 27.6302 30.4329 27.9327 30.4329L26.6218 30.4329"/>
	<path fill="#FFD04D" d="M33.5798 27.6019C33.5798 27.6019 33.6806 27.6019 33.7815 27.6019C34.4874 27.6019 35.0924 28.2085 35.0924 29.0174C35.0924 30.0285 34.2857 30.6351 33.3781 30.6351C33.0756 30.6351 32.7731 30.6351 32.3697 30.4329L32.3697 26.692C32.3697 26.2875 32.3697 26.1864 31.8655 26.0853C32.168 25.9842 32.5714 25.782 32.6722 25.782L32.6722 27.9052M32.7731 29.624C32.7731 29.7251 32.7731 29.8262 32.7731 29.9273C32.7731 30.1296 33.0756 30.4329 33.5798 30.4329C34.2857 30.4329 34.689 29.9273 34.689 29.1185C34.689 28.4108 34.1848 27.9052 33.479 27.9052C33.1764 27.9052 32.8739 28.0063 32.6722 28.1074L32.6722 29.624"/>
	<path fill="#FFD04D" d="M35.7983 29.624C35.8992 30.0284 36.2017 30.534 36.7059 30.534C37.0084 30.534 37.2101 30.3318 37.2101 30.0284C37.2101 29.624 37.0084 29.5229 36.605 29.3207C36.2017 29.1185 35.7983 28.9163 35.7983 28.5119C35.7983 28.1074 36.2017 27.703 36.8067 27.703C37.0084 27.703 37.2101 27.8041 37.3109 27.8041C37.3109 28.0063 37.4118 28.3096 37.4118 28.5119C37.2101 28.2085 36.9076 27.8041 36.605 27.8041C36.3025 27.8041 36.1008 28.0063 36.1008 28.3096C36.1008 28.613 36.4034 28.8152 36.7059 28.9163C37.2101 29.1185 37.5126 29.3207 37.5126 29.8262C37.5126 30.3318 37.0084 30.7362 36.5042 30.7362C36.1008 30.7362 35.8992 30.6351 35.6975 30.534C35.6975 30.4329 35.6975 30.0284 35.6975 29.8262"/>
	<path fill="#FFD04D" d="M39.2269 30.534C39.1261 30.6351 39.0252 30.6351 38.9244 30.6351C38.521 30.6351 38.3194 30.3318 38.3194 29.9273L38.3194 27.9052L38.521 26.7931C39.4286 27.6019 39.4286 27.703 39.4286 27.703C39.4286 27.703 39.4286 27.8041 39.3278 27.8041L38.7227 29.624C38.7227 30.2307 38.9244 30.3318 39.1261 30.3318C39.3278 30.3318 39.5295 30.2307 39.6303 30.2307"/>
	<path fill="#FFD04D" d="M42.958 29.0174C42.958 30.0284 42.1512 30.6351 41.4454 30.6351C40.5378 30.6351 39.9327 29.9273 39.9327 29.2196C39.9327 28.1074 40.8403 27.6019 41.4454 27.6019C42.3529 27.6019 42.958 28.2085 42.958 29.0174M40.3361 28.9163C40.3361 29.8262 40.8403 30.4329 41.5462 30.4329C42.1512 30.4329 42.5546 30.0284 42.5546 29.1185C42.5546 28.4108 42.1512 27.6019 41.3445 27.6019C40.7395 27.6019 40.3361 28.2085 40.3361 28.9163"/>
	<path fill="#FFD04D" d="M43.4622 30.4329C43.8655 30.4329 43.9664 30.3318 43.9664 29.9273L43.9664 28.5119C43.9664 28.0063 43.9664 28.0063 43.563 27.9052C43.8655 27.703 44.0672 27.703 44.3697 27.5008C44.4706 28.0063 44.6723 27.9052 44.8739 27.8041C45.0756 27.703 45.2773 27.6019 45.479 27.6019C46.084 27.6019 46.3866 27.9052 46.3866 28.5119L46.3866 29.9273C46.3866 30.4329 46.4874 30.4329 46.7899 30.534L45.479 30.6351C45.9832 30.534 45.9832 30.4329 45.9832 29.9273L45.9832 28.8152C45.9832 28.4108 45.8824 28.0063 45.2773 28.0063C44.9748 28.0063 44.5714 28.2085 44.3697 28.4108L44.3697 29.9273C44.3697 30.3318 44.4706 30.4329 44.8739 30.534L43.4622 30.4329"/>
	<path fill="#FFD04D" d="M49.5126 30.0284C49.1092 30.534 48.605 30.6351 48.5042 30.6351C47.6975 30.6351 47.1933 30.0284 47.1933 29.2196C47.1933 28.2085 48 27.6019 48.605 27.6019C49.2101 27.6019 49.6134 28.1074 49.6134 28.613C49.6134 28.7141 49.6134 28.8152 49.5126 28.8152C49.4118 28.8152 48.5042 28.9163 47.5966 28.9163C47.5966 29.9273 48.2017 30.3318 48.7059 30.3318C48.9076 30.3318 49.2101 30.3318 49.5126 29.9273M47.5966 28.613C47.7983 28.613 48.7059 28.613 49.0084 28.613C49.2101 28.613 49.2101 28.5119 49.2101 28.5119C49.2101 28.1074 48.9076 27.8041 48.4033 27.8041C48 27.8041 47.6975 28.1074 47.5966 28.613"/>
	<path fill="#F9B47A" d="M21.1764 56.316L29.042 52.4739C29.042 52.4739 29.2437 56.1138 29.9496 55.8104C30.6555 55.6082 34.2857 52.1706 34.2857 52.1706L42.1513 57.4281L44.0672 53.0806L49.1093 57.8326C49.1093 57.8326 24 59.7536 23.2941 59.7536C22.5882 59.7536 18.958 58.0348 18.958 58.0348L21.1764 56.316"/>
</svg>
