<?xml version="1.0" encoding="utf-8" ?>
<svg xmlns="http://www.w3.org/2000/svg" xmlns:xlink="http://www.w3.org/1999/xlink" width="86" height="74">
	<path fill="white" d="M43 74C21.6014 74 0 68.4626 0 57.8912C0 54.3673 2.43396 49.434 13.9953 45.7088L39.8561 0L67.6439 17.4177L51.6203 18.9279L68.3538 44.6014C79.8137 47.5211 86 52.1524 86 57.7905C86 68.4626 64.3986 74 43 74"/>
	<path fill="#351C0B" d="M82.9576 57.8912C82.9576 65.1198 65.0679 70.9797 43 70.9797C20.9321 70.9797 3.04245 65.1198 3.04245 57.8912C3.04245 50.6627 20.9321 44.8028 43 44.8028C65.0679 44.8028 82.9576 50.6627 82.9576 57.8912"/>
	<path fill="#2C180C" d="M43 71.9865C20.0802 71.9865 2.0283 65.845 2.0283 57.8912C2.0283 50.0382 19.9788 43.796 43 43.796C65.9198 43.796 83.9717 49.9375 83.9717 57.8912C83.9717 65.845 66.0212 71.9865 43 71.9865M43 45.8096C19.6745 45.8096 4.0566 52.0518 4.0566 57.8912C4.0566 63.7307 19.6745 69.9729 43 69.9729C66.3255 69.9729 81.9434 63.7307 81.9434 57.8912C81.9434 52.0518 66.3255 45.8096 43 45.8096"/>
	<path fill="#1E1108" d="M58.5165 15.3033L40.9717 4.3292L11.5613 56.1795C11.5613 56.1795 26.9764 62.6231 47.158 61.2136C67.3396 59.804 72.2075 56.1795 72.2075 56.1795L46.3467 16.5115L58.5165 15.3033"/>
	<path fill="#2C180C" d="M41.5802 62.4217C24.2382 62.4217 11.3585 57.1864 11.1557 57.0857L10.1415 56.683L40.6674 2.9197L61.6604 16.1088L48.1722 17.4177L73.6273 56.4816C72.7146 57.287 67.5424 61.0122 47.3608 62.3211C45.3325 62.4217 43.4057 62.4217 41.5802 62.4217M13.0825 55.6762C16.9363 57.0857 30.4245 61.4149 47.158 60.3075C62.3703 59.3007 68.7594 56.8843 70.8891 55.8775L44.6226 15.7061L55.5755 14.6993L41.4788 5.83943L13.0825 55.6762"/>
	<path fill="#706E69" d="M41.6816 55.8776C40.9717 55.8776 40.2618 55.8776 39.5519 55.7769C27.2807 55.1728 17.7476 50.4408 17.342 50.2395L14.8066 49.2327L21.6014 36.849L23.5283 38.5606C23.5283 38.5606 28.2948 42.4871 37.8278 43.3932C47.5637 44.5007 59.125 38.5606 59.6321 38.3592L60.9505 37.7551L68.3538 49.132L65.9198 50.3402C65.5141 50.6422 53.6486 55.8776 41.6816 55.8776M17.7476 48.3266C18.6604 48.7293 27.7877 53.2599 39.6533 53.864C40.3632 53.864 40.9717 53.9646 41.6816 53.9646C53.1415 53.9646 64.6014 48.83 65.1085 48.6286L60.1391 40.3728C58.2123 41.2789 47.158 46.5143 37.5236 45.5075C27.1792 44.6014 22.1085 40.2721 22.1085 40.1714L17.7476 48.3266"/>
	<path fill="#F9B47A" d="M35.3938 53.2649C35.3938 49.6353 38.2335 46.8163 41.8844 46.8163C45.5353 46.8163 48.3749 49.6353 48.3749 53.2649C48.3749 56.8843 45.5353 59.7135 41.8844 59.7135C38.2335 59.9047 35.3938 57.0857 35.3938 53.2649"/>
</svg>
