<?xml version="1.0" encoding="utf-8" ?>
<svg xmlns="http://www.w3.org/2000/svg" xmlns:xlink="http://www.w3.org/1999/xlink" width="68" height="68">
	<path fill="white" d="M15.0281 68C14.5303 68 13.3354 68 12.3397 67.1844L9.5517 65.4513C7.65985 64.024 6.96285 61.985 7.56027 59.946C8.05813 58.1109 9.35256 56.7856 11.1448 56.2759C13.5345 55.6642 14.7294 55.0525 16.0238 53.5232L14.829 53.3193C13.2358 53.1154 7.95856 49.955 4.57314 46.1829C-1.20199 39.8621 0 28.8516 0.192005 28.3418C0.889004 27.4243 3.677 25.8951 6.36542 25.5892C4.57314 19.8801 4.67271 14.9865 6.56456 10.6027L7.26156 8.66567L9.05384 8.05397C10.2487 7.54423 13.6341 6.01499 17.617 6.01499C21.2015 6.01499 24.4874 7.13643 27.1758 9.27736C31.7561 4.89355 38.9252 0 48.0858 0L51.1725 0L51.969 2.75262C53.6617 6.42279 57.1467 15.4963 54.8566 23.958C59.5364 25.5892 64.8137 28.6477 67.6017 37.0075L68 38.5367C67.8009 39.1484 65.7099 45.8771 55.2549 50.1589C55.454 50.3628 55.9519 50.9745 55.9519 50.9745L57.8437 53.7271L56.0515 56.2759C52.7656 61.3733 48.0858 64.1259 42.5098 64.1259C35.7389 64.1259 29.1672 60.2519 25.3835 57.4993C24.3878 58.9265 23.2925 60.3538 22.3964 61.7811C21.5998 62.9025 20.9028 63.922 20.3054 64.7376C20.2058 64.9415 19.8075 65.4513 19.8075 65.4513C19.6084 65.6552 19.5088 65.8591 19.4092 66.063C18.6127 66.7766 17.617 68 15.0281 68"/>
	<path fill="#FF8931" d="M15.1102 64.8396C14.9112 64.8396 14.4136 64.8396 14.2146 64.6357L11.2292 62.8006C10.5327 62.2908 10.3337 61.5772 10.5327 60.7616C10.7317 60.048 11.2292 59.5382 11.9258 59.3343C15.3092 58.4168 17.1004 57.3973 19.4887 53.931L21.2799 51.1784L15.2097 50.2608C14.3141 50.057 9.8361 47.5082 6.75125 44.042C3.0435 39.862 3.0435 32.6237 3.0435 29.871C4.16396 29.3613 5.75614 28.7496 7.04979 28.7496C7.1493 28.7496 7.24881 28.7496 7.34832 28.7496L10.5327 28.7496L9.53756 25.895C7.64685 20.3898 7.54734 15.8021 9.23903 11.928C11.2292 10.5007 14.1151 9.17539 17.4985 9.17539C20.6828 9.17539 23.4691 10.2968 25.7579 12.2339L27.151 13.5592L28.5442 12.2339C32.7237 8.1559 39.3909 3.1604 47.9489 3.1604L48.944 4.17989C50.5361 7.54421 53.9195 16.3118 51.4317 24.1619L50.7352 26.2009L52.7254 26.8126C57.1039 28.1379 61.8804 30.5847 64.3682 38.1289C63.7711 40.0659 61.0843 44.8576 52.4269 47.8141L49.342 48.9355L51.5313 51.2803C52.0288 51.7901 52.5264 52.4018 53.0239 53.0135L53.0239 54.4408C50.3371 58.7226 46.4562 60.9655 41.9782 60.9655C35.6095 60.9655 29.1413 56.7856 25.8574 54.3388L24.2652 53.1154L23.0711 54.7466C21.8769 56.3778 20.4838 58.3148 19.3892 59.946C18.6926 61.0674 17.996 61.985 17.2994 62.9025C17.1004 63.1064 16.8019 63.6162 16.8019 63.6162C16.6029 63.922 16.4038 64.1259 16.3043 64.4318C16.3043 64.6357 15.9063 64.8396 15.1102 64.8396"/>
	<path fill="#2C180C" d="M15.06 65.859C14.5625 65.859 14.0649 65.859 13.5674 65.4512L10.6815 63.7181C9.58691 62.9025 9.18887 61.7811 9.4874 60.5577C9.78593 59.4363 10.582 58.7226 11.5771 58.4168C14.861 57.4992 16.4532 56.5817 18.6424 53.4213L19.6375 51.994L15.06 51.2803C13.8659 50.9745 9.28838 48.4258 6.00451 44.7556C1.999 40.2698 1.999 32.8276 1.999 29.871C3.71576 28.5457 5.80549 27.7301 7.49718 27.8321L9.18887 27.8321L8.69131 26.4048C6.70109 20.5937 6.60158 15.8021 8.39278 11.7241L8.79082 10.6027C10.8806 9.78708 13.8659 8.35979 17.4483 8.35979C20.8317 8.35979 23.9165 9.48123 26.3048 11.7241L27.6979 11.7241C31.9769 7.44225 38.9427 2.3448 47.7992 2.3448L49.2918 2.3448L49.6899 3.87404C51.2821 7.44225 54.8645 16.4138 52.2772 24.5697L51.9786 25.5892C57.5513 27.3223 62.6263 29.871 65.3131 37.8231L65.4126 38.9445C64.517 40.8815 61.5317 45.6731 52.7747 48.8336L51.1826 49.3433L52.3767 50.5667C52.8742 51.0764 53.3718 51.6881 53.9689 52.2998L54.964 53.7271L54.0684 55.0524C51.1826 59.6402 47.1026 61.985 42.2266 61.985C35.5593 61.985 28.8921 57.7031 25.5087 55.1544L24.1155 55.3583C22.9214 56.9895 21.6278 58.8246 20.4336 60.4557C19.6375 61.5772 18.941 62.5967 18.3439 63.4123C18.1449 63.6162 17.8463 64.1259 17.8463 64.1259C17.6473 64.4318 17.4483 64.6357 17.3488 64.8396C16.0551 65.7571 15.5576 65.859 15.06 65.859M14.662 63.8201C14.7615 63.8201 15.06 63.922 15.5576 63.8201C15.7566 63.6162 15.8561 63.3103 16.0551 63.0045C16.0551 63.0045 16.4532 62.4947 16.5527 62.2908C17.1498 61.4752 17.8463 60.4557 18.6424 59.3343C19.8366 57.7031 21.1302 55.7661 22.3243 54.1349L24.1155 51.6881L26.5038 53.5232C29.6882 55.97 35.9574 59.946 42.0275 59.946C46.207 59.946 49.6899 57.8051 52.1777 53.8291C51.6801 52.9115 51.1826 52.4018 50.685 51.892L47.4011 48.3238L51.8791 46.6926C59.5415 43.94 62.3278 39.862 63.1239 38.2309C60.8351 31.1964 56.2576 28.9535 52.1777 27.7301L49.1923 26.8126L50.1874 23.7541C52.5757 16.3118 49.2918 7.85005 47.6997 4.58768C39.3407 4.17988 32.8725 8.97149 28.8921 12.9475L26.9018 14.9865L24.8121 13.0494C22.7224 11.2144 20.1351 10.1949 17.2493 10.1949C14.0649 10.1949 11.2786 11.4183 10.2835 11.928C8.39278 16.006 8.49229 20.2878 10.2835 25.5892L11.7762 29.7691L7.09913 29.7691C6.99962 29.7691 6.90011 29.7691 6.90011 29.7691C6.20353 29.7691 5.10891 30.0749 3.91478 30.5847C3.81527 33.6432 4.1138 39.7601 7.39767 43.3283C10.4825 46.6926 14.7615 49.0375 15.3586 49.2414L22.9214 50.3628L20.2346 54.4408C17.7468 58.2129 15.6571 59.3343 12.0747 60.2518C11.6767 60.3538 11.4776 60.6596 11.3781 61.0674C11.2786 61.2713 11.2786 61.6791 11.7762 61.985L14.662 63.8201"/>
	<path fill="#DD6631" d="M22.2249 54.7466L20.7322 53.3193C20.9312 53.1154 37.9476 34.4587 41.331 14.6806L43.3212 14.9864C39.9378 35.4782 23.021 53.931 22.2249 54.7466"/>
	<path fill="#DD6631" d="M33.6687 34.9685C33.6687 34.8666 30.7829 27.2204 24.0161 25.3853L24.5137 23.4483C32.2755 25.4873 35.3604 33.949 35.4599 34.2549L33.6687 34.9685"/>
	<path fill="#DD6631" d="M25.6082 47.5082C25.5087 47.5082 18.2444 42.4108 11.8757 41.2893L12.1742 39.2504C18.941 40.4738 26.4043 45.5712 26.7029 45.7751L25.6082 47.5082"/>
	<path fill="#DD6631" d="M38.7437 55.3583C38.7437 55.2564 38.5447 49.7511 29.7877 43.94L30.8823 42.2069C40.5349 48.6297 40.7339 55.0525 40.7339 55.2564L38.7437 55.3583"/>
	<path fill="#DD6631" d="M52.4764 31.4003C50.0881 29.6672 42.6247 30.2789 39.0423 30.5847C38.0472 30.6866 37.2511 30.7886 36.7536 30.7886L36.7536 28.7496C37.1516 28.7496 38.0472 28.6477 38.9428 28.5457C44.6149 28.036 50.8842 27.7301 53.6705 29.7691L52.4764 31.4003"/>
</svg>
