<?xml version="1.0" encoding="utf-8" ?>
<svg xmlns="http://www.w3.org/2000/svg" xmlns:xlink="http://www.w3.org/1999/xlink" width="114" height="74">
	<path fill="white" d="M70.9378 0C70.3383 0 69.6389 0 69.0394 0.100135C62.4452 0.500677 54.9518 5.20704 49.9562 8.41137C48.9571 9.01218 47.7581 9.81326 47.0587 10.2138C46.3593 10.1137 45.1604 9.81326 44.1613 9.61299C41.5635 9.01218 38.2664 8.31123 34.8694 8.31123C33.5706 8.31123 32.2717 8.41137 31.0727 8.61164C19.1832 10.9147 11.5898 18.8254 8.29273 24.9337L0 22.1299L3.09728 30.341C5.79492 37.5507 14.9869 61.2828 18.6836 65.2882C24.0789 71.0961 31.5723 74 41.7634 74C47.4584 74 53.2533 71.6969 56.2507 69.4939C56.5504 69.1935 56.8501 68.8931 57 68.793C57.2498 68.8931 57.4496 68.9932 57.8493 69.2936C61.4461 72.1976 68.2401 73.2991 71.9369 73.6996C73.2358 73.7997 74.5346 73.8999 75.8335 73.8999C83.6266 73.8999 89.8212 71.0961 95.0167 65.3884C98.5136 61.5832 107.306 40.1543 111.003 30.9418L114 23.5318L106.207 25.3342C104.009 22.3302 100.812 18.525 94.5171 16.0217C93.8177 15.521 92.319 13.7185 91.22 12.0162C90.8203 11.5156 90.5206 11.115 90.2209 10.7145C87.723 7.00947 82.8273 0 70.9378 0"/>
	<path fill="#425ACE" d="M42.3129 70.838C33.1209 70.838 26.227 68.3345 21.4312 63.1274C18.0342 59.4225 8.64242 34.7892 6.74409 29.9827L5.2454 26.0774L10.9404 27.98C13.2384 22.5726 20.6319 14.0611 32.3216 11.7581C33.3208 11.5578 34.4198 11.4577 35.6188 11.4577C38.716 11.4577 41.7134 12.1586 44.2112 12.6593C45.7099 12.9597 47.1087 13.2601 47.8081 13.2601C48.5075 12.9597 49.9062 12.0585 51.2051 11.2574C55.8011 8.35348 62.8948 3.94753 68.6897 3.54698C69.2892 3.54698 69.8887 3.44685 70.3883 3.44685C80.8791 3.44685 85.1753 9.75538 87.5732 13.0598C87.8729 13.4604 88.0727 13.8609 88.3725 14.1614C89.6713 16.0639 91.4698 18.2668 92.369 18.7675C99.0631 21.4713 101.861 25.5767 102.96 28.3806L108.754 26.9786L107.355 30.5835C105.357 35.4902 95.5662 59.8231 92.2691 63.2276C89.3716 66.4319 84.376 70.7377 75.1841 70.7377C74.085 70.7377 72.8861 70.6376 71.6871 70.5376C65.8922 69.9368 61.2962 68.5349 59.0982 66.7323C58.1989 66.0314 57.4996 65.6308 57 65.6308C56.4005 65.6308 55.8011 66.0314 55.2016 66.6322C53.2033 68.2345 48.1078 70.838 42.3129 70.838"/>
	<path fill="#2C180C" d="M42.213 71.8972C32.7213 71.8972 25.6275 69.2916 20.6319 63.78C17.2349 60.0721 8.34271 37.1424 5.74498 30.2088L3.447 24.2963L10.341 26.6012C13.4382 20.1876 21.3313 12.6717 32.1218 10.6674C33.2209 10.467 34.3199 10.3668 35.6188 10.3668C38.816 10.3668 41.9133 11.0683 44.4111 11.5694C45.61 11.87 46.9089 12.1706 47.6083 12.1706C48.3076 11.7698 49.6065 10.9681 50.7055 10.2666C55.4014 7.26023 62.5951 2.75068 68.6898 2.3876C81.0789 1.64835 85.8747 8.76342 88.4724 12.4713C88.7722 12.8721 88.972 13.273 89.2717 13.5736C90.5706 15.4776 92.1692 17.3817 92.8686 17.8827C99.163 20.388 102.16 24.2963 103.659 27.3027L110.553 25.6993L108.355 31.1108C105.557 38.0254 96.3655 60.6734 93.0684 64.0806C90.071 67.3876 84.8756 71.8972 75.284 71.8972C74.085 71.8972 72.8861 71.7969 71.6871 71.6967C65.7923 71.0955 60.9965 69.5923 58.5986 67.6882C57.5995 66.8865 57.1998 66.8865 57 66.8865C56.8002 66.8865 56.3006 67.3876 55.901 67.6882C53.603 69.1914 48.3076 71.8972 42.213 71.8972M6.84402 27.6033L7.64332 29.6076C12.7388 43.036 19.6328 59.7715 22.1306 62.4772C26.7266 67.4878 33.3208 69.8929 42.213 69.8929C47.8081 69.8929 52.6039 67.3876 54.4023 66.0848C55.3015 65.2831 56.0009 64.7821 57 64.7821C57.7993 64.7821 58.6985 65.1829 59.7976 66.0848C61.8957 67.6882 66.3918 69.0912 71.887 69.6925C73.0859 69.7927 74.1849 69.8929 75.284 69.8929C84.0763 69.8929 88.7722 65.7842 91.5697 62.6776C94.0675 60.0721 101.161 43.6373 106.457 30.3091L107.156 28.5052L102.46 29.6076C100.962 25.9999 98.2638 22.1919 92.0693 19.6866C90.7704 18.8849 88.7722 16.2793 87.773 14.7762C87.4733 14.3753 87.1736 13.9745 86.8738 13.5736C84.4759 10.0662 79.9799 3.65259 68.7897 4.35408C63.1946 4.65471 56.3006 9.06405 51.8046 11.87C50.4058 12.7719 49.007 13.6738 48.3076 13.9745C47.0088 14.0747 45.7099 13.774 44.1113 13.3732C41.7134 12.8721 38.7161 12.1706 35.7187 12.1706C34.6197 12.1706 33.6205 12.2709 32.6214 12.4713C20.532 14.8764 13.8379 23.695 11.9396 28.1044L6.84402 27.6033"/>
	<path fill="#425ACE" d="M30.773 29.54C42.263 30.0406 50.5557 31.9432 56.7503 35.5481C62.745 32.2436 77.1324 29.4398 82.5276 29.4398C82.7275 29.4398 82.9273 29.4398 83.1271 29.4398C84.5259 29.54 86.5241 29.6401 88.2226 29.6401C88.0228 29.2396 87.823 28.9391 87.6232 28.839C82.2279 26.5359 80.8291 24.3329 79.4304 21.9297C79.2305 21.6293 79.0307 21.3289 78.8309 20.9283C77.4321 18.5251 74.7345 17.2233 70.4382 16.6225C68.0403 16.6225 65.2428 18.2247 62.0456 20.0271C57.1499 22.8309 51.1552 26.2355 42.7625 26.636C42.6626 26.636 42.4628 26.636 42.3629 26.636C40.6644 26.636 37.9667 26.2355 35.5688 25.8349C34.1701 25.6347 32.5715 25.3343 32.0719 25.3343C30.2735 25.3343 27.0763 25.9351 25.9772 26.4358C24.6784 27.2368 24.2787 28.2382 23.979 29.4398C26.4768 29.4398 29.0745 29.3397 30.4733 29.2396"/>
	<path fill="#CFEBF6" d="M50.5125 46.5529C50.7555 47.7546 52.6538 48.9562 52.6538 49.8574C53.3532 49.1565 53.8528 47.0536 53.8528 45.852C53.6529 44.6504 52.6538 43.9494 51.9544 44.1157C50.8554 44.35 50.3558 45.3513 50.5125 46.5529"/>
	<path fill="#CFEBF6" d="M51.6547 52.2607L51.6547 49.8574C51.6547 49.7573 51.255 49.3567 50.9553 49.0563C50.3558 48.3554 49.7564 47.6544 49.4993 46.7532C49.2568 44.9508 50.156 43.4487 51.7546 43.2109C52.2542 43.2109 52.8536 43.2109 53.4531 43.5489C54.1525 44.0496 54.6521 44.8506 54.8519 45.7519C54.8519 47.2539 54.3523 49.6571 53.3532 50.6585L51.6547 52.2607M51.5548 46.3527C51.6547 46.6531 52.1543 47.2539 52.454 47.6544C52.454 47.6544 52.5539 47.7546 52.5539 47.7546C52.7537 47.1537 52.8536 46.4528 52.8536 45.9521C52.7537 45.3513 52.3541 45.151 52.2542 45.151C51.4549 45.2512 51.4549 46.0523 51.5548 46.3527"/>
	<path fill="#CFEBF6" d="M45.8597 44.3499C46.0596 45.2512 47.9579 46.4528 48.2576 47.4541C48.7572 46.7532 49.1569 44.6503 48.957 43.649C48.7572 42.7478 47.7581 41.9467 46.8589 42.1828C45.8597 42.4474 45.56 43.4487 45.8597 44.3499"/>
	<path fill="#CFEBF6" d="M47.8615 49.6571L47.2621 47.6544C47.1621 47.354 46.6626 46.8533 46.2629 46.4528C45.6635 45.852 45.064 45.2512 44.8642 44.5502C44.5644 43.7491 44.6899 42.9481 45.064 42.3472C45.3637 41.7464 45.9632 41.446 46.5627 41.2458C47.1621 41.1416 47.8615 41.1416 48.461 41.446C49.1604 41.8466 49.7599 42.5475 49.8598 43.3486C50.1595 44.6503 49.66 47.0536 48.9606 47.9548L47.8615 49.6571M46.8624 44.1497C46.9623 44.3499 47.4619 44.8506 47.7616 45.151C47.8615 45.2512 47.8615 45.2512 47.9614 45.3513C48.0614 44.7505 48.0614 44.2498 48.0614 43.8493C48.0614 43.649 47.8615 43.3486 47.5618 43.2485C47.4619 43.2485 47.362 43.1483 47.2621 43.1483C46.9623 43.1483 46.9623 43.2485 46.9623 43.2485C46.7625 43.5489 46.7625 43.7491 46.8624 44.1497"/>
	<path fill="#CFEBF6" d="M41.3637 43.9494C42.0631 44.6503 43.9614 44.8506 44.461 45.6517C44.461 44.9507 43.9614 42.8479 43.5617 42.0468C42.8624 41.342 41.8632 41.1456 41.4636 41.5461C40.6643 42.0468 40.9258 42.948 41.3637 43.9494"/>
	<path fill="#CFEBF6" d="M45.4601 49.1564L43.6617 46.1524C43.5618 45.9521 42.8624 45.7518 42.5626 45.6517C41.8632 45.4514 41.2638 45.151 40.7642 44.6503C39.5653 42.3472 40.1647 41.3459 40.964 40.8452C41.3637 40.4446 42.0631 40.4446 42.7625 40.5448C43.3619 40.6449 43.9614 41.0455 44.361 41.446C44.9605 42.5475 45.56 44.8506 45.56 45.6517L45.56 49.1564M42.163 43.3486C42.3628 43.4487 42.7625 43.649 43.0622 43.7491C42.9623 43.3486 42.8624 42.948 42.6625 42.6476C42.3628 42.4474 42.163 42.3472 41.9632 42.3472C41.9632 42.4474 41.8632 42.6476 42.163 43.3486"/>
	<path fill="#CFEBF6" d="M37.0675 43.4487C37.567 43.9494 39.4654 44.1497 39.865 44.6504C39.865 43.9494 39.3655 42.2471 38.6661 41.5462C37.9667 40.8452 36.9676 40.8452 36.7677 41.3459C36.3681 42.0468 36.5551 42.9481 37.0675 43.4487"/>
	<path fill="#CFEBF6" d="M40.8642 47.4541L39.0657 45.2512C38.9658 45.2512 38.4663 45.0509 38.1665 44.9507C37.4671 44.7505 36.7677 44.5502 36.3681 44.1497C35.5259 43.2485 35.2691 41.9467 35.8685 40.8452C36.0684 40.4447 36.468 40.0441 36.9676 39.8831C37.7669 39.7437 38.6661 40.0441 39.3655 40.7451C40.2647 41.6463 40.8642 43.649 40.8642 44.5502L40.8642 47.4541M37.7669 42.7478C37.8668 42.8479 38.1665 42.9481 38.3663 42.9481C38.2664 42.6476 38.0666 42.3472 37.9667 42.2471C37.8668 42.147 37.667 42.0468 37.567 42.0468C37.4671 42.2471 37.567 42.5475 37.7669 42.7478"/>
	<path fill="#CFEBF6" d="M33.2708 43.649C33.7704 44.1497 35.369 44.1497 35.8685 44.5502C35.8685 44.0495 35.1691 42.6476 34.6696 42.147C34.17 41.7417 33.2708 41.7417 32.9711 41.9467C32.5714 42.4474 32.5714 43.2485 33.2708 43.649"/>
	<path fill="#CFEBF6" d="M36.8677 46.653L35.2691 45.3513C35.1691 45.3513 34.7695 45.2512 34.4698 45.151C33.7704 45.0509 33.1709 44.8506 32.6713 44.4501C32.1718 44.1497 31.872 43.649 31.7373 43.0482C31.7373 42.4474 31.7373 41.7464 32.2717 41.2457C33.071 40.4447 34.6696 40.5448 35.4689 41.3459C36.0684 41.9467 36.9676 43.5489 36.9676 44.4501L36.9676 46.653M33.9702 42.948C33.9702 42.948 34.0701 42.948 34.0701 43.0482C34.0701 42.948 33.9702 42.8479 33.9702 42.948C33.9702 42.8479 33.8703 42.8479 33.7704 42.7478"/>
	<path fill="#CFEBF6" d="M29.2743 44.1497C29.7739 44.6503 31.1726 44.6503 31.6722 44.8506C31.6722 44.3499 31.1726 43.1483 30.4733 42.7478C29.9737 42.2471 29.2743 42.2471 29.0745 42.7478C28.5749 42.948 28.5749 43.649 29.2743 44.1497"/>
	<path fill="#CFEBF6" d="M32.6713 46.3527L31.2726 45.852C31.1726 45.852 30.8729 45.7518 30.6731 45.7518C29.9737 45.6517 29.1744 45.5516 28.5749 44.9508C27.9755 44.4501 27.6604 43.7491 27.6604 43.1483C27.7756 42.7478 27.9755 42.3472 28.2752 42.0468C28.475 41.7464 28.8747 41.5462 29.2743 41.4205C29.8738 41.4205 30.5732 41.5462 31.0727 41.9467C32.0719 42.5475 32.6713 44.0495 32.6713 44.8506L32.6713 46.3527"/>
	<path fill="#CFEBF6" d="M25.6775 44.8506C26.1771 45.3513 27.0763 45.0509 27.5758 45.5516C27.5758 45.0509 27.0763 44.1497 26.6766 43.8493C26.1771 43.5753 25.7774 43.3486 25.4777 43.8493C25.1779 44.3499 25.4777 44.3499 25.6775 44.8506"/>
	<path fill="#CFEBF6" d="M28.5749 47.9583L26.8758 46.256C26.8758 46.256 26.6759 46.256 26.4738 46.1558C26.0763 46.0557 25.4766 46.0557 24.9768 45.555C24.7769 45.1545 24.7769 45.1545 24.677 45.0544C24.3726 44.6538 24.1773 44.1531 24.677 43.3521C25.1767 42.5784 25.8764 42.3507 26.8758 42.8514C27.8753 43.5523 28.5749 44.6538 28.5749 45.555L28.5749 47.9583"/>
	<path fill="#CFEBF6" d="M63.6441 46.563C63.4443 47.7646 61.5459 48.9662 61.5459 49.8675C60.8465 49.1665 60.347 47.0637 60.347 45.862C60.5468 44.6604 61.5459 43.9595 62.2453 44.1258C63.3444 44.4601 63.8439 45.3614 63.6441 46.563"/>
	<path fill="#CFEBF6" d="M62.5451 52.3708L60.8466 50.5684C59.8474 49.5671 59.3479 47.1638 59.3479 45.862C59.5477 44.7606 60.0472 43.9595 60.7466 43.4588C61.3461 43.0583 61.9456 42.9581 62.5451 43.0583C64.1437 43.5589 64.943 44.9608 64.6432 46.6631C64.5433 47.5643 63.8439 48.2653 63.2444 48.9662C62.9447 49.2666 62.645 49.6672 62.5451 49.8675L62.5451 52.3708M61.3461 45.9622C61.3461 46.4628 61.446 47.1638 61.6458 47.7646C61.6458 47.7646 61.7458 47.6645 61.7458 47.6645C62.1454 47.2639 62.645 46.6631 62.645 46.3627C62.8448 45.3614 62.2453 45.1611 61.9456 45.061C61.8457 45.1611 61.446 45.3614 61.3461 45.9622"/>
	<path fill="#CFEBF6" d="M68.34 44.4601C68.1401 45.3614 66.2418 46.563 65.9421 47.5643C65.4425 46.8634 65.0428 44.7605 65.1901 43.7592C65.4425 42.858 66.4416 42.0569 67.3408 42.293C68.34 42.5576 68.6397 43.4588 68.34 44.4601"/>
	<path fill="#CFEBF6" d="M66.3417 49.7673L65.1428 48.065C64.4434 47.1638 64.0437 44.7605 64.1921 43.4588C64.4434 42.6577 64.9429 41.9568 65.6423 41.5562C66.2418 41.2518 66.9412 41.2518 67.5407 41.356C68.24 41.4561 68.7396 41.8566 69.0393 42.4574C69.439 43.0583 69.439 43.8593 69.2392 44.7605C69.0393 45.4615 68.4399 46.0623 67.8404 46.7633C67.4407 47.1638 66.9412 47.6645 66.8413 47.9649L66.3417 49.7673M66.9412 43.2585C66.8413 43.2585 66.7414 43.2585 66.6414 43.3587C66.4416 43.4588 66.2418 43.7592 66.1419 43.9595C66.042 44.2599 66.1419 44.8607 66.2418 45.4615C66.3417 45.3614 66.3417 45.3614 66.4416 45.2612C66.7414 44.9608 67.2409 44.4601 67.3408 44.2599C67.4407 43.7592 67.4407 43.5589 67.3408 43.4588C67.3408 43.4588 67.2409 43.3587 67.0411 43.3587C67.0411 43.2585 66.9412 43.2585 66.9412 43.2585"/>
	<path fill="#CFEBF6" d="M72.836 43.9595C72.1367 44.6604 70.2383 44.8607 69.7388 45.6618C69.7388 44.9608 70.2383 42.858 70.638 42.0569C71.3374 41.3521 72.3365 41.1557 72.7361 41.5562C73.5354 42.0569 73.5354 42.9581 72.836 43.9595"/>
	<path fill="#CFEBF6" d="M68.7396 48.5657L68.6397 45.6635C68.6397 44.7628 69.2392 42.461 69.6388 41.6604C70.8378 40.478 72.4364 40.1593 73.2357 40.8598C73.7353 41.16 74.035 41.6604 74.2348 42.2609C74.3347 42.9614 74.1349 43.8621 73.6353 44.6627C73.0359 45.2632 72.3365 45.4633 71.737 45.7635C71.3374 45.8636 70.7379 46.1639 70.638 46.2639L68.7396 48.5657M71.4373 42.6612C71.3374 42.9614 71.2374 43.3617 71.0376 43.762C71.3374 43.6619 71.8369 43.4618 72.0367 43.3617C72.2366 42.9614 72.3365 42.7613 72.3365 42.6612C72.3365 42.6612 72.3365 42.5611 72.2366 42.461C72.0367 42.361 71.737 42.461 71.4373 42.6612"/>
	<path fill="#CFEBF6" d="M77.1322 43.4588C76.6327 43.9595 74.7343 44.1597 74.3347 44.6604C74.3347 43.9595 74.8343 42.2572 75.5336 41.5562C76.233 40.8553 77.2322 40.8553 77.432 41.3559C77.8316 42.0569 77.6318 42.9581 77.1322 43.4588"/>
	<path fill="#CFEBF6" d="M73.2356 47.5643L73.3356 44.6604C73.3356 43.7592 73.935 41.7565 74.8343 40.8553C75.5336 40.1543 76.4328 39.8539 77.2321 39.9933C77.7317 40.1543 78.1314 40.4547 78.3312 40.9554C78.9306 41.9568 78.7308 43.3587 77.8316 44.2599C77.432 44.6604 76.7326 44.8607 76.0332 45.0609C75.7335 45.1611 75.2339 45.2612 75.0341 45.3614L73.2356 47.5643M76.6327 42.0569C76.5328 42.0569 76.3329 42.157 76.233 42.2572C76.0332 42.4574 75.9333 42.6577 75.8334 42.9581C76.1331 42.858 76.3329 42.7578 76.4328 42.7578C76.6327 42.5576 76.6327 42.2572 76.6327 42.0569"/>
	<path fill="#CFEBF6" d="M80.9289 43.7592C80.4293 44.2599 78.8307 44.2599 78.3312 44.6604C78.3312 44.1598 79.0305 42.7579 79.5301 42.2572C80.0297 41.8519 80.9289 41.8519 81.2286 42.0569C81.6283 42.5576 81.6283 43.2562 80.9289 43.7592"/>
	<path fill="#CFEBF6" d="M77.332 46.7633L77.332 44.6604C77.332 43.7592 78.2312 42.157 78.8307 41.5562C79.63 40.7551 81.2286 40.655 81.928 41.356C82.4276 41.9568 82.5275 42.5576 82.5275 43.0583C82.4276 43.4588 82.2277 44.0596 81.6283 44.5603C81.1287 44.9608 80.4293 45.1611 79.8298 45.2612C79.5301 45.3614 79.1304 45.3614 79.0305 45.4615L77.332 46.7633M80.4293 42.858C80.3294 42.858 80.2295 42.858 80.2295 42.9581C80.2295 42.9581 80.1296 43.0583 80.1296 43.0583C80.1296 43.0583 80.2295 43.0583 80.2295 42.9581C80.4293 42.9581 80.4293 42.858 80.4293 42.858"/>
	<path fill="#CFEBF6" d="M85.2252 43.9595C84.7256 44.4601 83.3268 44.4601 82.8273 44.6604C82.8273 44.1597 83.3268 42.9581 84.0262 42.5576C84.5258 42.0569 85.2252 42.0569 85.425 42.5576C85.6248 42.9581 85.6248 43.7592 85.2252 43.9595"/>
	<path fill="#CFEBF6" d="M81.8282 46.0623L81.8282 44.6604C81.8282 43.8593 82.4276 42.3573 83.4268 41.7565C83.9263 41.1791 84.6257 41.0555 85.2252 41.1791C85.7247 41.3559 86.2243 41.7565 86.4241 42.2572C86.524 42.5576 86.624 43.0582 86.624 43.4588C86.524 44.0596 86.3242 44.5603 85.9246 44.7605C85.3251 45.2612 84.5258 45.3614 83.8264 45.4615C83.6266 45.4615 83.3269 45.5616 83.2269 45.5616L81.8282 46.0623"/>
	<path fill="#CFEBF6" d="M88.5222 44.8607C88.0227 45.3614 87.1235 45.0609 86.6239 45.5616C86.6239 45.0609 87.1235 44.1597 87.5231 43.8593C88.0227 43.5853 88.4223 43.3586 88.7221 43.8593C89.0218 44.4601 88.7221 44.4601 88.5222 44.8607"/>
	<path fill="#CFEBF6" d="M85.6248 47.9649L85.6248 45.5616C85.6248 44.6604 86.3242 43.5589 86.9236 43.0582C88.3224 42.4574 89.1217 42.6291 89.5214 43.3586C90.0209 44.36 89.7212 44.8607 89.4214 45.2612C89.4214 45.2612 89.3215 45.3613 89.3215 45.3613C88.6221 46.0623 88.0227 46.1624 87.623 46.1624C87.5231 46.1624 87.3233 46.1624 87.2234 46.2626L85.6248 47.9649"/>
	<path fill="#F38BEC" d="M55.2215 42.5575C55.2215 41.6563 56.1208 40.6549 57.1199 40.6549C58.3188 40.6549 59.218 41.3559 59.218 42.5575C59.218 43.4587 58.3188 44.4601 57.1199 44.4601C55.9209 44.1597 55.2215 43.4587 55.2215 42.5575"/>
	<path fill="#F38BEC" d="M57.1199 44.9608C55.6212 44.5602 54.722 43.7591 54.722 42.5575C54.722 41.3559 55.9209 40.1543 57.1199 40.1543C58.6186 40.1543 59.7176 41.1556 59.7176 42.5575C59.7176 43.659 58.6186 44.9608 57.1199 44.9608M57.1199 41.1556C56.4205 41.1556 55.7211 41.9567 55.7211 42.5575C55.7211 43.4587 56.7202 43.8593 57.2198 43.9594C58.119 43.9594 58.7185 43.1583 58.7185 42.5575C58.7185 41.5561 57.9192 41.1556 57.1199 41.1556"/>
	<path fill="#EDACF3" d="M55.7211 42.5575C55.7211 41.8565 56.4205 41.3559 57.1199 41.3559C57.8193 41.3559 58.5187 41.8565 58.5187 42.5575C58.5187 43.2584 57.8193 43.7591 57.1199 43.7591C56.4205 43.7591 55.7211 43.2584 55.7211 42.5575"/>
	<path fill="#FF9DF7" d="M57.1199 44.7605C55.821 44.7605 54.722 43.7591 54.722 42.5575C54.722 41.3559 55.821 40.3545 57.1199 40.3545C58.4188 40.3545 59.5178 41.3559 59.5178 42.5575C59.5178 43.7591 58.4188 44.7605 57.1199 44.7605M57.1199 42.3572C56.9201 42.3572 56.7202 42.5575 56.7202 42.5575C56.7202 42.5575 56.9201 42.7578 57.1199 42.7578C57.3197 42.7578 57.5196 42.5575 57.5196 42.5575C57.5196 42.5575 57.3197 42.3572 57.1199 42.3572"/>
	<path fill="#FDCEFE" d="M56.4205 42.2571C56.4205 42.0568 56.6203 41.5561 57.1199 41.5561C57.6195 41.5561 57.8193 41.7564 57.8193 42.2571C57.8193 42.7578 57.3197 42.958 57.1199 42.958C56.9201 42.958 56.4205 42.7578 56.4205 42.2571"/>
	<path fill="#FDCEFE" d="M57.1199 43.1583C56.8202 43.1583 56.2207 42.8579 56.2207 42.2571C56.2207 41.9567 56.5204 41.3559 57.1199 41.3559C57.7194 41.3559 58.0191 41.6563 58.0191 42.2571C58.0191 42.8579 57.4196 43.1583 57.1199 43.1583M57.1199 41.7564C56.7202 41.7564 56.6203 42.157 56.6203 42.2571C56.6203 42.6576 57.02 42.7578 57.1199 42.7578C57.2198 42.7578 57.6194 42.6576 57.6194 42.2571C57.6194 41.8565 57.5195 41.7564 57.1199 41.7564"/>
	<path fill="white" d="M41.7133 25.8349C41.8132 25.8349 42.0131 25.8349 42.1129 25.8349C50.4056 25.4344 56.5004 22.0298 61.396 19.226C64.5932 17.4236 67.3907 15.8214 69.7887 15.8214C74.085 16.3221 76.7825 17.6238 78.0815 20.0271C78.2813 20.3275 78.481 20.6279 78.6808 21.0284C80.0797 23.3316 81.4784 25.5345 86.7738 27.9378C87.1734 28.0379 87.3733 28.3383 87.5731 28.7389C85.8745 28.7389 83.7765 28.6387 82.4775 28.5386C82.2777 28.5386 82.0779 28.5386 81.8781 28.5386C76.4828 28.5386 62.0955 31.2422 56.1006 34.6468C49.9062 31.042 41.6133 29.1394 30.1235 28.6387C28.5249 28.7389 26.0271 28.839 23.4293 28.839C23.7291 27.6374 24.1287 26.636 25.4276 25.8349C26.4267 25.3343 29.7238 24.7334 31.5223 24.7334C32.0218 24.7334 33.6204 24.9337 35.0191 25.2341C37.3172 25.4344 40.0149 25.8349 41.7133 25.8349"/>
	<path fill="#2C180C" d="M55.9509 35.7483C49.4566 31.9432 41.3637 30.0406 29.9737 29.5399C28.1753 29.6401 24.9781 29.7402 23.1797 29.7402L21.8808 29.7402L22.1805 28.4384C22.4803 27.1367 22.9798 25.8349 24.6784 24.7334C26.0771 24.1326 29.4741 23.5318 31.2726 23.5318C31.7721 23.5318 33.071 23.7321 34.8694 24.0325C37.4671 24.433 40.3646 24.8336 41.8633 24.7334C49.9562 24.3329 55.851 20.9283 60.6468 18.3248C64.0438 16.4222 66.9413 14.82 69.539 14.7199C74.4347 15.3207 77.2322 16.7226 78.8308 19.4263C79.0307 19.8268 79.2305 20.1272 79.4303 20.4276C80.8291 22.7307 82.128 24.7334 87.1236 26.9364C87.6231 27.1367 87.9229 27.5372 88.3225 28.2382L89.1218 29.7402L87.4233 29.7402C85.1253 29.7402 83.4268 29.6401 82.3278 29.5399C82.128 29.5399 81.9281 29.5399 81.7283 29.5399C76.2331 29.5399 62.0456 32.3437 56.4505 35.4479M29.8738 27.5372C41.4636 28.0379 49.7563 29.9405 56.0508 33.4452C62.3453 30.2409 76.1332 27.5372 81.8282 27.5372C82.028 27.5372 82.2279 27.5372 82.4277 27.5372C82.9273 27.5372 83.4268 27.6374 83.9264 27.6374C80.2296 25.5345 79.0307 23.5318 77.8317 21.6292C77.6319 21.3288 77.4321 21.0284 77.2322 20.728C75.9334 18.525 73.5355 17.4235 69.6389 16.9229C67.5407 16.9229 64.8431 18.4249 61.7458 20.2273C56.7502 23.0311 50.6556 26.5359 42.0631 26.9364C40.3646 27.0365 37.3672 26.5359 34.6696 26.1353C33.4706 25.9351 31.7721 25.7348 31.3725 25.7348C29.674 25.7348 26.5767 26.3356 25.7774 26.7361C25.2778 27.0365 24.9781 27.4371 24.6784 27.8376C26.9763 27.8376 28.6748 27.7375 29.674 27.6374"/>
	<path fill="white" d="M43.7616 59.4803C46.0596 59.4803 47.7581 59.4803 49.6564 59.0798C48.3576 57.3775 46.3593 55.4749 45.0604 54.4736C41.7633 52.7713 39.1656 52.7713 35.4689 52.7713C32.7712 52.9715 29.1744 53.3721 26.8764 53.9729C27.8755 54.9743 29.574 55.6752 31.4724 57.2774C35.0692 59.4803 39.6652 59.4803 43.7616 59.4803"/>
	<path fill="#2C180C" d="M43.7616 60.4817C39.5653 60.4817 34.8694 60.4817 30.9728 57.9783C29.9737 57.1772 29.0745 56.5764 28.3751 56.1759C27.4759 55.6752 26.7765 55.1745 26.177 54.5737L24.9781 53.3721L26.6766 52.9715C29.4742 52.2706 33.7704 51.7699 35.4689 51.7699C39.1657 51.7699 42.0631 51.7699 45.56 53.5724C47.0587 54.6738 49.057 56.6765 50.4558 58.479L51.4549 59.7807L49.8563 60.0811C47.858 60.4817 46.0596 60.4817 43.7616 60.4817M32.0719 56.3761C35.4689 58.479 39.865 58.479 43.7616 58.479C45.2603 58.479 46.5592 58.479 47.7581 58.3788C46.6591 57.1772 45.4601 55.9756 44.5609 55.3748C41.5636 53.7726 38.9658 53.7726 35.4689 53.7726C33.1709 53.9729 30.9728 54.1732 29.2743 54.4736C29.2743 54.4736 29.3742 54.4736 29.3742 54.5737C30.1735 55.0744 31.0728 55.6752 32.0719 56.3761"/>
	<path fill="white" d="M70.2385 60.4817C74.235 60.4817 78.8309 60.4817 82.5276 58.1786C84.426 56.6766 86.1245 55.8755 87.1236 54.8742C84.8257 54.2733 81.129 53.8728 78.5313 53.6725C74.9343 53.6725 72.2367 53.6725 68.9396 55.3748C67.6408 56.3762 65.6425 58.2788 64.3437 59.9811C66.242 60.4817 67.9405 60.4817 70.2385 60.4817"/>
	<path fill="#2C180C" d="M70.2384 61.4831C67.9405 61.4831 66.142 61.4831 64.1438 61.0825L62.5452 60.7821L63.5443 59.4804C64.9431 57.6779 66.9413 55.6752 68.3401 54.6739C71.937 52.7713 74.8344 52.7713 78.5312 52.7713C80.3296 52.8714 84.6258 53.272 87.4234 53.9729L89.1219 54.3735L87.9229 55.5751C87.3235 56.1759 86.6241 56.5765 85.7249 57.1773C84.9256 57.6779 84.1263 58.1786 83.2271 58.8796C79.2306 61.4831 74.4348 61.4831 70.2384 61.4831M66.242 59.2801C67.4409 59.3802 68.7398 59.3802 70.2384 59.3802C74.135 59.3802 78.5312 59.3802 81.9282 57.2774C82.9273 56.4763 83.8265 55.9756 84.5259 55.475C84.5259 55.475 84.6258 55.3748 84.6258 55.3748C82.9273 55.0744 80.7292 54.8742 78.3314 54.6739C74.9343 54.6739 72.3366 54.6739 69.3392 56.2761C68.5399 56.977 67.341 58.0785 66.242 59.2801"/>
</svg>
