<?xml version="1.0" encoding="utf-8" ?>
<svg xmlns="http://www.w3.org/2000/svg" xmlns:xlink="http://www.w3.org/1999/xlink" width="110" height="88">
	<path fill="white" d="M46.4784 88C23.6938 88 6.50549 79.3211 1.50887 65.3945C-6.58564 42.789 19.1969 14.4312 47.5777 4.0367C54.8727 1.41284 61.9679 0 68.7633 0C87.0509 0 101.541 9.99083 107.537 26.7431C114.532 46.3211 107.437 71.3486 75.7586 82.8532C66.5648 86.2844 56.4716 88 46.4784 88"/>
	<path fill="#EFEAE8" d="M104.396 27.8398C111.591 48.0233 102.198 70.0233 74.4171 80.0141C46.7358 90.1059 11.2599 84.5555 4.06476 64.271C-3.13036 44.0876 20.6535 16.9408 48.3348 6.84902C76.1159 -3.14181 97.2016 7.65636 104.396 27.8398"/>
	<path fill="#2C180C" d="M46.3785 85.9514C41.2819 85.9514 36.2853 85.4468 31.4886 84.5385C16.7985 81.6119 6.70537 74.5477 3.20774 64.6578C-4.48705 43.1624 20.596 15.9147 48.0773 5.92383C61.4683 1.07979 74.0597 0.77704 84.4527 5.01557C94.246 9.05227 101.641 17.0247 105.338 27.4192C109.036 37.8137 108.336 48.8137 103.44 58.0981C98.1434 68.089 88.2501 76.0614 74.8592 80.9055C65.8653 84.2358 55.972 85.9514 46.3785 85.9514M68.5634 4.10732C62.3676 4.10732 55.6722 5.31832 48.7769 7.84126C22.6945 17.3275 -2.08867 44 5.10645 63.9514C8.40421 73.1348 17.8978 79.6945 31.8883 82.5202C45.2792 85.2449 60.7687 83.933 74.2596 79.089C87.1508 74.3458 96.6444 66.878 101.741 57.2908C106.437 48.4101 107.137 38.1165 103.539 28.2266C100.042 18.3367 92.9469 10.7679 83.7531 7.03392C79.1563 5.01557 74.0597 4.10732 68.5634 4.10732"/>
	<path fill="#FFD110" d="M88.4961 33.359C92.943 45.3974 82.2074 60.5967 64.5174 67.2453C46.8275 73.8939 28.882 69.5021 24.4351 57.4358C19.9882 45.3974 30.7238 30.1981 48.4138 23.5494C66.1038 16.9008 84.0492 21.2927 88.4961 33.359"/>
	<path fill="#2C180C" d="M48.1773 71.2478C45.0794 71.2478 42.1814 70.945 39.3833 70.2386C31.4886 68.3212 25.8924 63.8808 23.594 57.7248C18.9971 45.2111 29.9896 29.3671 48.1773 22.5047C56.9713 19.1744 66.0652 18.468 73.76 20.3854C81.6546 22.3028 87.2508 26.7432 89.5493 32.8992C91.8477 39.0551 90.4487 46.1193 85.7518 52.7799C81.055 59.3395 73.76 64.7891 64.9659 68.0184C59.3697 70.2386 53.6736 71.2478 48.1773 71.2478M65.0659 21.3946C59.8694 21.3946 54.3731 22.4038 48.9768 24.4221C31.7884 30.8808 21.2955 45.5138 25.4927 57.0184C27.4913 62.5689 32.5879 66.5047 39.8829 68.3212C47.2779 70.1377 55.972 69.3304 64.3663 66.2019C72.7606 63.0735 79.7559 57.9267 84.2529 51.6698C88.5499 45.5138 89.8491 39.156 87.8504 33.6056C85.8518 28.0551 80.7552 24.1193 73.4602 22.3028C70.762 21.6973 67.9639 21.3946 65.0659 21.3946"/>
	<path fill="#FFE706" d="M79.1125 36.9539C82.3274 45.6835 74.5345 56.6571 61.7067 61.4783C48.8789 66.2996 35.8737 63.1363 32.6589 54.4131C29.444 45.6835 37.2369 34.7099 50.0647 29.8887C62.8925 25.0674 75.8977 28.2307 79.1125 36.9539"/>
</svg>
