<?xml version="1.0" encoding="utf-8" ?>
<svg xmlns="http://www.w3.org/2000/svg" xmlns:xlink="http://www.w3.org/1999/xlink" width="74" height="102">
	<path fill="white" d="M0 102L33.4714 10.8597C33.3706 10.8597 33.2698 10.8597 33.1689 10.9612C32.564 11.0627 31.9591 11.4687 31.2534 11.9761C29.5395 13.2955 28.0272 15.1224 26.6158 16.8478L23.0872 21.3134L21.3733 15.8328C20.8692 14.1075 19.6594 12.5851 18.4496 11.1642C18.1471 10.7582 17.3406 9.84478 17.3406 8.32239C17.3406 7.51045 17.6431 6.08955 19.4578 4.97313C22.6839 2.94328 26.4142 2.63881 29.5395 2.63881C31.455 2.63881 32.4632 2.7403 33.3706 2.84179C34.2779 2.94328 35.1853 3.14627 35.9918 3.34925C35.9918 3.34925 36.0926 3.24776 36.0926 3.24776L37.5041 2.33433C37.9074 2.13134 38.2098 1.92836 38.4114 1.82687C40.0245 1.01493 41.7384 0.507463 43.5531 0.202985C44.5613 0 45.5695 0 46.6785 0C49.2997 0 52.0218 0.507463 54.7439 1.3194C55.0463 1.4209 56.0545 1.72537 56.6594 2.63881C57.2643 3.45075 57.4659 4.56716 57.1635 5.68358C56.9619 6.59701 56.6594 7.40896 56.3569 8.2209C55.9537 9.43881 55.4496 10.5552 55.5504 11.4687L56.2561 18.5731L50.6104 14.209C48.8965 12.8896 46.5777 11.9761 43.7548 11.3672C42.7466 11.1642 41.7384 11.0627 40.6294 10.9612L74 101.696L0 101.696"/>
	<path fill="#FCD11A" d="M55.9538 61.403L21.7766 50.6448L20.466 54.197L18.0464 60.997L60.6922 74.3941"/>
	<path fill="#2D1A0B" d="M62.3052 76.018L16.6349 61.7075L21.1717 49.5284L56.6594 60.6926L62.3052 76.018M19.357 60.3881L59.079 72.8717L55.1472 62.3165L22.3815 52.0657L19.357 60.3881"/>
	<path fill="#FCD11A" d="M36.8993 9.6419L32.1608 22.5315L42.8474 25.8807"/>
	<path fill="#2D1A0B" d="M44.5614 27.5046L30.8502 23.2418L36.8993 6.80005L44.5614 27.5046M33.4714 21.9225L41.2344 24.3582L36.8993 12.5851L33.4714 21.9225"/>
	<path fill="#FCD11A" d="M47.1826 37.7552L28.7331 31.8687L25.2044 41.3075L51.6186 49.6299"/>
	<path fill="#2D1A0B" d="M53.2318 51.1523L23.8939 41.9165L28.0274 30.5492L47.8885 36.8418L53.2318 51.1523M26.5151 40.6985L49.9048 48.006L46.3762 38.5672L29.2372 33.1881L26.5151 40.6985"/>
	<path fill="#FCD11A" d="M10.9387 80.2806L64.7752 97.1283L64.2711 98.7522L69.7153 98.7522L65.0777 86.1671L14.6689 70.3343"/>
	<path fill="#2D1A0B" d="M71.0763 99.7672L62.8093 99.7672L63.4142 97.8389L9.5777 80.8896L13.9128 69.015L65.733 85.2538L71.0763 99.7672M65.5314 97.7374L68.1526 97.7374L64.2208 86.9792L15.1227 71.5523L12.1989 79.5702L65.9346 96.418L65.5314 97.7374"/>
	<path fill="#FCD11A" d="M4.1336 98.7522L36.5968 98.7522L7.46058 89.6179"/>
	<path fill="#2D1A0B" d="M43.2507 99.7672L2.7221 99.7672L6.95643 88.2985L43.2507 99.7672M5.54499 97.7373L29.9428 97.7373L8.06542 90.8358L5.54499 97.7373"/>
	<path fill="#F43B3B" d="M42.8474 25.8806L32.1607 22.5314L28.733 31.8687L47.1825 37.7553"/>
	<path fill="#2D1A0B" d="M48.8964 39.2776L27.4223 32.5792L31.5558 21.3134L43.6539 25.0687L48.8964 39.2776M30.0436 31.2597L45.5694 36.1313L42.1416 26.6926L32.7656 23.7493L30.0436 31.2597"/>
	<path fill="#F43B3B" d="M53.2317 54.1971L51.6186 49.6299L25.2044 41.3075L21.7766 50.6449L55.9538 61.403"/>
	<path fill="#2D1A0B" d="M57.5668 63.0269L20.466 51.3554L24.5995 40.0896L52.3243 48.818L57.5668 63.0269M23.0872 50.0359L54.2398 59.7793L50.812 50.3403L25.9101 42.5255L23.0872 50.0359"/>
	<path fill="#F43B3B" d="M18.0463 60.9969L14.6186 70.3343L65.0273 86.167L60.6922 74.394"/>
	<path fill="#2D1A0B" d="M66.6403 87.7909L13.2071 71.0447L17.3406 59.779L61.3978 73.582L66.6403 87.7909M15.9292 69.7253L63.4142 84.6447L59.9864 75.2059L18.6512 62.2149L15.9292 69.7253"/>
	<path fill="#F43B3B" d="M10.8378 80.2807L7.41 89.618L36.5462 98.7523L64.1702 98.7523L64.6743 97.1285"/>
	<path fill="#2D1A0B" d="M64.9265 99.7673L36.2943 99.7673L6.1499 90.3285L10.2834 79.0628L65.9346 96.5195L64.9265 99.7673M36.7984 97.7374L63.2126 97.7374L11.4932 81.4986L8.77115 88.9075L36.7984 97.7374"/>
	<path fill="#F43B3B" d="M32.1442 7.81495C31.0352 8.11942 30.1279 8.62689 29.2205 9.33733C27.2041 10.8597 25.5911 12.7881 24.0788 14.8179C23.3731 12.6866 22.0625 10.8597 20.651 9.13435C20.4494 8.93136 20.2477 8.62689 20.2477 8.32241C20.2477 7.91644 20.5502 7.71345 20.8527 7.51047C23.3731 5.98808 26.3976 5.58211 29.4221 5.58211C30.5311 5.58211 31.7409 5.58211 32.8499 5.78509C34.2613 5.98808 35.6729 6.29256 36.9835 6.90151C37.5883 7.20599 37.2859 7.51047 36.7818 7.61196C36.1769 7.81495 35.3703 7.61196 34.6646 7.61196C33.8582 7.61196 33.0515 7.61196 32.1442 7.81495"/>
	<path fill="#2D1A0B" d="M23.6921 16.9493L23.0872 15.1224C22.4823 13.0926 21.0709 11.2657 19.8611 9.74331C19.6594 9.43883 19.2561 8.93137 19.2561 8.32241C19.2561 7.30749 20.1635 6.80002 20.3651 6.69853C23.188 4.97316 26.515 4.66868 29.4387 4.66868C30.4468 4.66868 31.7575 4.66868 32.9674 4.87167C34.5804 5.07465 36.0927 5.48062 37.4033 6.08958C38.3106 6.49555 38.3106 7.20599 38.3106 7.51047C38.2098 8.11943 37.8065 8.62689 37 8.82987C36.3951 8.93137 35.7902 8.93137 35.2861 8.82987C35.0844 8.82987 34.8829 8.82987 34.6813 8.82987C33.7738 8.82987 33.0681 8.93137 32.4632 9.03286C31.6567 9.23584 30.7493 9.64181 29.8419 10.3523C27.9264 11.7732 26.3134 13.7015 24.8011 15.6299L23.6921 16.9493M21.3733 8.4239C22.4823 9.74331 23.5913 11.1642 24.3978 12.7881C25.7085 11.2657 27.0191 9.74331 28.733 8.5254C29.8419 7.71346 30.951 7.1045 31.9591 6.90152C32.1608 6.90152 32.2616 6.80002 32.4632 6.80002C31.455 6.69853 30.3461 6.69853 29.4387 6.69853C26.8175 6.69853 23.7929 6.90152 21.3733 8.4239"/>
	<path fill="#F43B3B" d="M43.9564 3.24778C47.1826 2.74031 50.6104 3.24778 53.6349 4.2627C53.8365 4.36419 53.9374 4.36419 54.0382 4.46568C54.139 4.56717 54.139 4.77016 54.0382 4.97315C53.4333 7.30748 52.1226 9.43882 52.4251 11.7731C50.2071 10.0478 47.2834 8.93135 44.2589 8.42389C42.545 8.11942 40.8311 7.91644 39.218 7.91644C38.2098 7.91644 36.2943 8.11942 36.7154 6.80001C37.1008 5.78509 38.7139 5.07465 39.7221 4.56717C41.0327 3.85673 42.4442 3.45076 43.9564 3.24778"/>
	<path fill="#2D1A0B" d="M53.7357 14.1075L51.8202 12.6866C49.9047 11.1642 47.1826 10.0478 44.0572 9.54032C42.545 9.23584 40.9319 9.13435 39.1172 9.03286C38.9156 9.03286 38.8147 9.03286 38.6131 9.03286C37.7057 9.03286 36.4959 9.03286 35.9918 8.22092C35.7067 7.91644 35.5886 7.30749 35.7067 6.49554C36.2943 5.07465 38.0082 4.26271 39.218 3.65375C40.6295 2.94331 42.1417 2.53734 43.7548 2.23286C46.8801 1.7254 50.4087 2.13137 53.9374 3.24778C54.139 3.34928 54.5423 3.45077 54.8447 3.85674C55.248 4.3642 55.0464 4.97316 55.0464 5.17614C54.8447 5.98808 54.5423 6.69853 54.3406 7.51047C53.8365 8.93137 53.3325 10.3523 53.4333 11.6717L53.7357 14.1075M39.0164 6.90152C39.1172 6.90152 39.218 6.90152 39.3188 6.90152C41.2344 7.00301 42.9482 7.1045 44.5613 7.40898C47.2834 7.91644 49.6022 8.72838 51.6186 9.94629C51.8202 8.82987 52.1226 7.81495 52.5259 6.80002C52.7275 6.19107 52.9292 5.58211 53.1308 5.07465C50.0055 4.05972 46.8801 3.75525 44.1581 4.16122C42.7466 4.3642 41.436 4.77017 40.2262 5.37913C39.6213 5.6836 38.4115 6.29256 38.0082 6.80002C38.2098 6.80002 38.6131 6.80002 38.8147 6.80002C38.8147 6.90152 38.9156 6.90152 39.0164 6.90152"/>
</svg>
