<?xml version="1.0" encoding="utf-8" ?>
<svg xmlns="http://www.w3.org/2000/svg" xmlns:xlink="http://www.w3.org/1999/xlink" width="44" height="116">
	<path fill="white" d="M8.12933 116C3.75982 116 0 111.969 0 107.131L0 50.2902C0 47.5691 1.32102 44.848 3.35335 43.1347L4.57275 42.1268L3.86143 40.7159C2.74365 38.2971 2.13395 36.0799 2.13395 34.2659C2.13395 31.0408 3.25173 28.0174 5.38568 26.0017C10.873 20.5595 11.8891 7.45786 11.9908 5.94613L12.3972 0L17.4781 3.42659C29.7737 12.1946 37.0901 20.5595 38.8176 27.1103C39.8337 31.2424 39.6305 35.4752 38.1062 39.5065L37.4965 41.119L39.0208 41.9253C42.0693 43.5378 44 46.7628 44 50.1894L44 107.03C44 111.868 40.3418 116 35.8707 116L8.12933 116"/>
	<path fill="#F08300" d="M8.02771 28.5214C14.836 21.769 15.649 6.24855 15.649 6.24855C15.649 6.24855 33.127 17.9393 35.5658 27.9167C38.0047 38.1964 30.5866 48.4762 20.8314 48.4762C11.0762 48.4762 1.42263 34.9714 8.02771 28.5214"/>
	<path fill="#2D1A0B" d="M20.7298 49.484C14.0231 49.484 8.02776 43.8402 5.79219 38.5996C4.06471 34.3667 4.57279 30.4362 7.21483 27.8159C13.6167 21.4666 14.5312 6.34936 14.5312 6.24857L14.6328 4.4345L16.1571 5.44232C16.8684 5.94623 34.0416 17.4354 36.4804 27.7151C37.8014 33.1573 36.4804 39.0027 32.9238 43.4371C29.8753 47.2668 25.4042 49.484 20.7298 49.484M16.4619 8.06265C16.0555 12.3963 14.4296 23.5831 8.73908 29.2269C5.89381 32.0487 6.90998 35.7777 7.72291 37.7933C9.75524 42.5301 15.1409 47.4684 20.7298 47.4684C24.7945 47.4684 28.6559 45.5535 31.298 42.1269C34.4481 38.1964 35.5659 33.0566 34.4481 28.1183C32.619 20.2573 20.6282 11.0861 16.4619 8.06265"/>
	<path fill="#FCF384" d="M14.6328 35.2737C18.7991 31.1417 19.612 20.358 19.612 20.358C19.612 20.358 25.9123 26.9088 27.5381 32.5526C29.7737 38.4986 27.3349 44.2432 21.746 45.0496C16.8684 45.8558 10.6698 39.6073 14.6328 35.2737"/>
	<path fill="#2D1A0B" d="M20.8314 46.0574C17.9862 46.0574 14.7344 44.1425 13.2102 41.4214C11.8891 39.0026 12.0924 36.4831 13.9215 34.5682C17.7829 30.7385 18.5958 20.358 18.5958 20.2572L18.7991 18.04L20.4249 19.6525C20.7298 19.9549 26.9284 26.4049 28.6559 32.2503C29.9769 35.6768 29.7737 39.305 28.1478 42.0261C26.8268 44.2433 24.6928 45.5535 22.0508 45.9566C21.5427 46.0574 21.2379 46.0574 20.8314 46.0574M15.4457 35.9792C13.9215 37.5917 14.4296 39.305 15.0393 40.5144C16.3603 42.8324 19.3072 44.4449 21.6444 44.0417C23.6767 43.7394 25.3025 42.7316 26.3187 41.0183C27.6397 38.8011 27.7413 35.8784 26.6236 32.8549C25.6074 29.126 22.3557 24.8932 20.4249 22.676C19.9169 26.2033 18.5958 32.7542 15.4457 35.9792"/>
	<path fill="#F43B3B" d="M8.13098 44.6465L35.7707 44.6465C38.2095 44.6465 40.3435 47.0652 40.3435 49.9879L40.3435 107.131C40.3435 110.054 38.1079 112.473 35.7707 112.473L8.13098 112.473C5.69219 112.473 3.5549 110.054 3.5549 107.131L3.5549 49.9879C3.5549 47.3676 5.69219 44.6465 8.13098 44.6465"/>
	<path fill="#2D1A0B" d="M35.769 113.48L8.12931 113.48C5.08082 113.48 2.5404 110.558 2.5404 107.131L2.5404 49.9879C2.5404 46.6621 5.28405 43.6386 8.12931 43.6386L35.769 43.6386C38.8175 43.6386 41.358 46.5613 41.358 49.9879L41.358 107.131C41.358 110.558 38.8175 113.48 35.769 113.48M8.12931 45.6542C6.40183 45.6542 4.57273 47.8714 4.57273 49.9879L4.57273 107.131C4.57273 109.449 6.30022 111.465 8.12931 111.465L35.769 111.465C37.6998 111.465 39.3256 109.449 39.3256 107.131L39.3256 49.9879C39.3256 47.6699 37.5981 45.6542 35.769 45.6542L8.12931 45.6542"/>
</svg>
