<?xml version="1.0" encoding="utf-8" ?>
<svg xmlns="http://www.w3.org/2000/svg" xmlns:xlink="http://www.w3.org/1999/xlink" width="80" height="116">
	<path fill="white" d="M24.0305 114.088C23.7314 113.787 21.3383 110.567 18.1475 102.72C14.6576 94.1683 20.3412 89.8422 25.4264 86.0191C26.5233 85.2142 27.6201 84.3088 28.7169 83.4033C31.9077 80.7875 29.9135 75.6565 28.8166 73.3426C12.8628 72.6383 0 56.4406 0 36.7216C0 16.4996 13.3613 0 29.9135 0C37.3918 0 44.5711 3.42064 50.0552 9.65828C51.6506 9.25585 53.3457 9.15525 54.9411 9.15525C56.1376 9.15525 57.3341 9.25585 58.5307 9.45707C65.6102 10.6644 71.7923 15.1917 75.6811 22.2342C79.4701 29.0755 80.8661 37.5265 79.4701 45.9775C77.077 60.6661 66.8067 72.1353 54.5422 73.745C54.0437 73.8456 53.5451 73.8456 53.0465 73.8456C54.1434 79.6808 52.4483 84.2082 48.3601 86.6227C47.1636 87.327 46.0667 87.9306 44.9699 88.5343C39.5855 91.3513 38.3889 92.3573 39.1866 95.6774C40.6823 102.116 42.0783 104.833 42.0783 104.933L42.9757 106.644L41.2806 107.65L37.7907 109.662L36.7936 107.951C36.5941 107.65 34.899 104.531 33.3037 97.1865C31.4091 89.0373 37.3918 85.9185 42.178 83.4033C43.2748 82.7997 44.2719 82.2966 45.3688 81.693C48.1607 80.0833 47.363 75.7572 46.7647 73.6444C44.6708 73.1414 42.5768 72.3365 40.5826 71.2298C39.3861 71.7329 38.2892 72.2359 37.0927 72.5377C36.3947 72.7389 35.6967 72.9402 34.9988 73.0408C36.5941 77.2663 37.7907 83.8057 32.4063 88.333C31.2097 89.3391 30.0132 90.2446 28.9164 91.0494C23.6316 95.0737 21.9365 96.6834 23.5319 100.708C26.4236 107.75 28.6172 110.567 28.6172 110.668L29.8138 112.278L28.3181 113.485L25.227 116L24.0305 114.088"/>
	<path fill="#FD003A" d="M56.736 36.621C56.736 52.4164 48.0611 65.6964 36.2952 69.3184C34.2011 69.922 32.1073 70.3244 29.8139 70.3244C14.9569 70.3244 2.89175 55.2334 2.89175 36.621C2.89175 18.0088 14.9569 2.91765 29.8139 2.91765C44.6708 2.91765 56.736 18.0088 56.736 36.621"/>
	<path fill="#2D190C" d="M29.9136 71.3304C14.5581 71.3304 1.9944 55.7363 1.9944 36.621C1.9944 17.5056 14.5581 1.9115 29.9136 1.9115C45.2692 1.9115 57.8329 17.5056 57.8329 36.621C57.8329 52.6175 49.158 66.4007 36.694 70.2237C34.4007 70.928 32.207 71.3304 29.9136 71.3304M29.9136 3.92364C15.6549 3.92364 3.98863 18.6123 3.98863 36.621C3.98863 54.6296 15.6549 69.3183 29.9136 69.3183C32.0076 69.3183 34.1015 69.0164 36.0958 68.4128C47.762 64.7909 55.8386 51.8126 55.8386 36.7216C55.7389 18.6123 44.1724 3.92364 29.9136 3.92364"/>
	<path fill="#2C180C" d="M25.6259 112.781C25.5261 112.68 23.2328 109.662 20.042 101.915C17.1504 94.8726 21.5377 91.4519 26.623 87.5283C27.7198 86.7234 28.8166 85.8179 29.9135 84.9125C35.4972 80.1839 29.8138 70.9281 29.7141 70.8275L31.4091 69.7208C31.7083 70.1232 38.0898 80.5864 31.2098 86.4216C30.0131 87.4277 28.9163 88.2325 27.8195 89.138C22.8339 92.961 19.5434 95.4762 21.8368 101.11C24.9279 108.555 27.1215 111.473 27.1215 111.473L25.6259 112.781"/>
	<path fill="#2C180C" d="M38.688 106.744C38.5883 106.644 36.993 103.726 35.3976 96.4823C33.9019 89.8422 38.3889 87.4276 43.1751 84.9124C44.2719 84.3088 45.3687 83.8058 46.4655 83.1015C51.85 79.8821 48.2604 71.1293 48.2604 71.0287L50.0552 70.2238C50.2546 70.6262 54.3428 80.6869 47.4627 84.8118C46.3658 85.5161 45.1693 86.1197 44.1722 86.6228C38.8875 89.4398 36.1953 91.0495 37.3918 95.9792C38.9872 102.921 40.4828 105.738 40.4828 105.738L38.688 106.744"/>
	<path fill="#FCD11A" d="M28.8096 30.5846L29.3082 31.5906C29.6074 32.2949 30.3053 32.7979 31.103 32.8985L32.1999 33.0997C34.0944 33.4016 34.8921 35.8161 33.4961 37.124C32.1001 38.4319 31.9007 39.2368 32.0004 40.0416L32.1999 41.1483C32.499 43.0598 30.5048 44.5689 28.8096 43.6635C27.1145 42.758 26.3168 42.758 25.6189 43.1604C22.9266 44.5689 20.9324 43.0598 21.2315 41.1483L21.431 40.0416C21.5307 39.2368 21.3313 38.5325 20.733 37.9289C18.5393 35.7155 19.337 33.4016 21.2315 33.0997L22.3284 32.8985C23.1261 32.7979 23.7243 32.2949 24.1232 31.5906L24.6217 30.5846C25.5191 28.8742 28.0119 28.8742 28.8096 30.5846"/>
	<path fill="#2D1A0B" d="M23.5223 44.9714C22.8237 44.9714 22.1252 44.7702 21.5264 44.3677C20.5285 43.5629 19.9297 42.3556 20.2291 41.0477L20.4287 39.941C20.5285 39.5386 20.3289 39.0356 20.0295 38.7337C18.2593 37.0234 18.0336 35.7155 18.4328 34.5082C18.832 33.3009 19.8299 32.3955 21.1272 32.1943L22.225 31.9931C22.6241 31.8925 23.0233 31.6912 23.2229 31.2888L23.7219 30.2827C24.3206 29.0755 25.4184 28.3712 26.7157 28.3712C28.013 28.3712 29.1107 29.0755 29.7095 30.2827L30.2085 31.2888C30.4081 31.6912 30.8072 31.9931 31.2064 31.9931L32.3042 32.1943C33.6015 32.3955 34.5994 33.3009 34.9986 34.5082C35.3978 35.7155 35.0984 37.0234 34.2002 37.9289C33.1025 39.0356 32.9029 39.5386 33.0027 39.941L33.2023 41.0477C33.4019 42.3556 32.9029 43.5629 31.905 44.3677C30.907 45.1726 29.5099 45.2732 28.4122 44.6696C27.0151 43.9653 26.5161 43.9653 26.1169 44.1665C24.62 44.8708 24.0212 44.9714 23.5223 44.9714M26.7157 30.2827C26.2167 30.2827 25.7177 30.5846 25.5182 31.0876L25.0192 32.0937C24.5202 33.0997 23.6221 33.804 22.5243 33.9046L21.4266 34.1058C20.9276 34.2064 20.5285 34.5082 20.3289 35.0113C20.1293 35.5143 20.3289 36.0173 20.6283 36.4198C22.225 38.0295 22.6241 39.1362 22.4245 40.2428L22.225 41.3495C22.1252 41.8526 22.3248 42.3556 22.7239 42.6574C23.1231 42.9592 23.7219 42.9592 24.121 42.758C26.1169 41.7519 27.2146 41.7519 28.2126 42.255C29.7095 42.9592 30.2085 42.9592 30.6077 42.6574C31.0068 42.3556 31.2064 41.8526 31.1066 41.3495L30.907 40.2428C30.7074 39.1362 31.1066 38.0295 31.905 37.2246C33.1025 36.0173 33.2023 35.5143 33.0027 35.0113C32.8031 34.5082 32.4039 34.2064 31.905 34.1058L30.8072 33.9046C29.7095 33.7034 28.8114 33.0997 28.3124 32.0937L27.8134 31.0876C27.7136 30.5846 27.2146 30.2827 26.7157 30.2827"/>
	<path fill="#FCD11A" d="M76.5949 45.3079C74.3015 58.9905 64.9286 69.1517 54.2595 70.5602C52.365 70.7616 50.4704 70.7616 48.5759 70.4596C35.7131 68.347 27.4371 53.5577 30.1293 37.4605C32.8215 21.3634 45.2854 10.0954 58.1482 12.3088C70.9113 14.5221 79.1874 29.2108 76.5949 45.3079"/>
	<path fill="#2D1A0B" d="M51.6505 71.7329C50.5537 71.7329 49.4569 71.6323 48.3601 71.4311C41.8788 70.3244 36.295 66.1995 32.6056 59.6601C29.016 53.2212 27.7198 45.2733 29.1157 37.3253C31.8079 20.7251 44.9699 9.0547 58.3312 11.2681C64.8125 12.3747 70.3963 16.4996 74.0856 23.0391C77.6753 29.4779 78.9715 37.4259 77.5755 45.3739C75.2822 59.2577 65.7099 70.0226 54.3428 71.5317C53.4454 71.7329 52.5479 71.7329 51.6505 71.7329M54.941 13.079C43.7733 13.079 33.4033 23.4415 31.0103 37.7277C29.8137 45.2733 30.9105 52.7182 34.3007 58.7546C37.5912 64.6904 42.7762 68.5135 48.6592 69.5196C50.454 69.8214 52.2488 69.8214 54.0436 69.6202C64.5133 68.2117 73.3877 58.151 75.5813 45.1727C76.7779 37.6271 75.681 30.1822 72.2908 24.1458C69.0004 18.2099 63.8154 14.3869 57.9324 13.3808C56.9353 13.079 55.9381 13.079 54.941 13.079"/>
	<path fill="#FD003A" d="M55.4396 33.5056L55.9382 34.5117C56.2374 35.2159 56.9353 35.719 57.733 35.8196L58.8299 36.0208C60.7244 36.3226 61.5221 38.7372 60.1261 40.0451C58.7301 41.353 58.5307 42.1578 58.6304 42.9627L58.8299 44.0694C59.129 45.9809 57.1348 47.49 55.4396 46.5846C53.7445 45.6791 52.9468 45.6791 52.2489 46.0815C49.5566 47.49 47.5624 45.9809 47.8615 44.0694L48.061 42.9627C48.1607 42.1578 47.9613 41.4536 47.363 40.8499C45.1693 38.6366 45.967 36.3226 47.8615 36.0208L48.9584 35.8196C49.7561 35.719 50.3543 35.2159 50.7532 34.5117L51.2517 33.5056C52.0494 31.7953 54.5422 31.7953 55.4396 33.5056"/>
	<path fill="#2D190C" d="M56.4324 47.889C55.9334 47.889 55.3347 47.7884 54.8357 47.4866C53.4386 46.7823 52.9396 46.7823 52.5404 46.9835C50.4448 48.0902 49.0476 47.9896 48.0497 47.1847C47.0518 46.3799 46.453 45.1726 46.7524 43.8647L46.952 42.758C47.0518 42.3556 46.8522 41.8526 46.5528 41.5507C44.7826 39.8404 44.5569 38.5325 44.9561 37.3252C45.3553 36.118 46.3532 35.2125 47.6505 35.0113L48.7482 34.8101C49.1474 34.7094 49.5466 34.5082 49.7462 34.1058L50.2452 33.0997C50.8439 31.8925 51.9417 31.1882 53.239 31.1882C54.5363 31.1882 55.634 31.8925 56.2328 33.0997L56.7318 34.1058C56.9314 34.5082 57.3305 34.8101 57.7297 34.8101L58.8275 35.0113C60.1248 35.2125 61.1227 36.118 61.5219 37.3252C61.9211 38.5325 61.6217 39.8404 60.7235 40.7459C59.6258 41.8526 59.4262 42.3556 59.526 42.758L59.7256 43.8647C59.9252 45.1726 59.4262 46.3799 58.4283 47.1847C57.8295 47.5872 57.131 47.889 56.4324 47.889M53.239 44.7702C53.7379 44.7702 54.3367 44.8708 54.8357 45.1726C56.3326 45.8768 56.8316 45.8768 57.2307 45.575C57.6299 45.2732 57.8295 44.7702 57.7297 44.2671L57.5301 43.1604C57.3305 42.0538 57.7297 40.9471 58.5281 40.1422C59.7256 38.935 59.8254 38.4319 59.6258 37.9289C59.4262 37.4258 59.027 37.124 58.5281 37.0234L57.4303 36.8222C56.3326 36.621 55.4345 36.0173 54.9355 35.0113L54.4365 34.0052C54.2369 33.5022 53.7379 33.2003 53.239 33.2003C52.74 33.2003 52.241 33.5022 52.0415 34.0052L51.5425 35.0113C51.0435 36.0173 50.1454 36.7216 49.0476 36.8222L47.9499 37.0234C47.4509 37.124 47.0518 37.4258 46.8522 37.9289C46.6526 38.4319 46.8522 38.935 47.1516 39.3374C48.7482 40.9471 49.1474 42.0538 48.9478 43.1604L48.7482 44.2671C48.6485 44.7702 48.848 45.2732 49.2472 45.575C49.6464 45.8768 50.2452 45.8768 50.6443 45.6756C52.241 44.8708 52.74 44.7702 53.239 44.7702"/>
</svg>
