<?xml version="1.0" encoding="utf-8" ?>
<svg xmlns="http://www.w3.org/2000/svg" xmlns:xlink="http://www.w3.org/1999/xlink" width="48" height="114">
	<path fill="white" d="M23.9484 114C14.9677 114 0 113.097 0 106.775C0 101.657 10.0129 100.051 19.5097 99.6496L19.5097 68.8415C19.3032 68.7412 19.0968 68.7412 18.8903 68.6408C18.5806 68.5405 18.271 68.4401 17.8581 68.3398C17.5484 68.2394 17.1355 68.1391 16.8258 67.9384C16.5161 67.838 16.2065 67.7377 15.8968 67.537C15.5871 67.3363 15.1742 67.2359 14.8645 67.0352C14.5548 66.8345 14.2452 66.7342 13.9355 66.5335C13.6258 66.3327 13.3161 66.132 13.0065 65.9313C12.6968 65.6303 12.3871 65.5299 12.1806 65.3292C11.871 65.1285 11.6645 64.9278 11.3548 64.7271C10.9419 64.4261 10.7355 64.3257 10.529 64.125C10.2194 63.9243 10.0129 63.6232 9.80645 63.4225C9.39355 63.0211 9.1871 62.8204 8.98065 62.6197C8.77419 62.419 8.56774 62.118 8.36129 61.8169C7.94839 61.3151 7.84516 61.1144 7.63871 60.9137C7.43226 60.6127 7.22581 60.412 7.01935 60.1109C6.70968 59.6092 6.50323 59.4085 6.4 59.2077C6.19355 58.9067 6.09032 58.6056 5.88387 58.3046C5.57419 57.7025 5.47097 57.5018 5.36774 57.3011C5.26452 57 5.05806 56.6989 4.95484 56.3979C4.64516 55.7958 4.54194 55.5951 4.43871 55.294C4.33548 54.993 4.23226 54.5915 4.12903 54.2905C3.92258 53.6884 3.92258 53.4877 3.81935 53.1866C3.71613 52.7852 3.6129 52.4842 3.50968 52.0827C3.30323 51.3803 3.30323 51.1796 3.30323 50.9789C3.2 50.5775 3.2 50.0757 3.09677 49.6743C3.09677 49.0722 2.99355 48.8715 2.99355 48.6708C2.89032 47.868 2.89032 47.0651 2.89032 46.3627L2.89032 5.01761C2.89032 2.20775 5.05806 0 7.84516 0L40.2581 0C42.9419 0 45.2129 2.20775 45.2129 5.01761L45.2129 46.5634C45.2129 57 38.8129 65.9313 29.6258 68.5405C29.4194 68.5405 29.3161 68.6408 29.1097 68.6408C28.9032 68.7412 28.6968 68.7412 28.4903 68.7412L28.4903 99.5493C37.9871 99.9507 48 101.556 48 106.674C47.7935 113.097 32.8258 114 23.9484 114"/>
	<path fill="white" d="M7.63871 2.69955L40.0517 2.69955C41.0839 2.69955 41.9097 3.60272 41.9097 4.70659L41.9097 45.7507C41.9097 56.388 34.4775 65.6203 24.7742 66.1421C14.4516 66.6238 5.88388 57.5922 5.88388 46.3527L5.88388 4.80694C5.78065 3.60272 6.60646 2.69955 7.63871 2.69955"/>
	<path fill="#2D1A0B" d="M23.8452 67.1356C19.3032 67.1356 14.9678 65.4296 11.5613 62.2183C7.22582 58.2042 4.7484 52.4842 4.7484 46.2623L4.7484 4.71656C4.7484 3.01058 5.98711 1.706 7.63872 1.706L40.0516 1.706C41.6 1.706 42.9419 3.11093 42.9419 4.71656L42.9419 45.7606C42.9419 57.2007 34.9936 66.6338 24.7742 67.1356C24.4645 67.1356 24.1549 67.1356 23.8452 67.1356M7.63872 3.71304C7.22582 3.71304 6.81292 4.2148 6.81292 4.71656L6.81292 46.2623C6.81292 51.8821 9.08388 57.1004 12.9032 60.713C16.2065 63.7236 20.3355 65.2289 24.5678 65.0282C33.6516 64.5264 40.7742 56.0968 40.7742 45.6602L40.7742 4.61621C40.7742 4.11445 40.3613 3.61269 39.9484 3.61269L7.63872 3.61269"/>
	<path fill="#F43B3B" d="M5.78065 26.493L41.9097 26.493L41.9097 46.3626C41.9097 57.301 33.8581 66.2323 23.8451 66.2323C13.8323 66.2323 5.78065 57.4015 5.78065 46.3626L5.78065 26.493"/>
	<path fill="#2D1A0B" d="M23.8452 67.1355C13.3161 67.1355 4.7484 57.8027 4.7484 46.2622L4.7484 25.389L42.9419 25.389L42.9419 46.2622C42.9419 57.8027 34.3742 67.1355 23.8452 67.1355M6.81292 27.4964L6.81292 46.3626C6.81292 56.6989 14.4516 65.2288 23.8452 65.2288C33.2387 65.2288 40.8774 56.7992 40.8774 46.3626L40.8774 27.4964L6.81292 27.4964"/>
	<path fill="#2D1A0B" d="M22.6065 65.9313L25.1871 65.9313L25.1871 108.782L22.6065 108.782L22.6065 65.9313"/>
	<path fill="#2D1A0B" d="M44.6968 106.574C44.6968 108.902 35.3611 110.789 23.8451 110.789C12.3291 110.789 2.99355 108.902 2.99355 106.574C2.99355 104.246 12.3291 102.359 23.8451 102.359C35.3611 102.359 44.6968 104.246 44.6968 106.574"/>
	<path fill="#2D190C" d="M23.8451 111.792C15.6902 111.792 1.9612 110.688 1.9612 106.574C1.9612 102.46 15.6902 101.356 23.8451 101.356C31.9999 101.356 45.7289 102.46 45.7289 106.574C45.7289 110.688 31.9999 111.792 23.8451 111.792M23.8451 103.363C11.5612 103.363 4.43862 105.47 4.02572 106.574C4.33539 107.678 11.458 109.785 23.8451 109.785C36.1289 109.785 43.1483 107.678 43.6644 106.574C43.2515 105.47 36.1289 103.363 23.8451 103.363"/>
</svg>
