<svg width="40" height="32" viewBox="0 0 40 32" fill="none" xmlns="http://www.w3.org/2000/svg" id="panel-layout-24"><title>鱼骨图（左）</title><g clip-path="url(#clip0_38275_258310)"><rect x="14.167" y="14.75" width="20" height="0.833333" fill="#667085"></rect><path d="M17.7842 15.332L24.266 8.85022L24.8552 9.43947L18.9627 15.332C18.6373 15.6575 18.1096 15.6575 17.7842 15.332Z" fill="#667085"></path><path d="M30.6992 21.6484L24.2174 15.1666C23.892 14.8412 23.3643 14.8412 23.0389 15.1666L30.11 22.2377L30.6992 21.6484Z" fill="#667085"></path><rect x="20.8335" y="4.33398" width="8.33333" height="5" rx="1.66667" fill="#8F99A8"></rect><rect width="8.33333" height="5" rx="1.66667" transform="matrix(-1 0 0 1 32.5005 21)" fill="#8F99A8"></rect><path d="M1.90122 15.5494C1.7371 15.3252 1.74748 15.035 1.90823 14.8084C2.42032 14.0866 3.78097 12.4421 6.30467 11.1367C8.8033 9.84414 12.442 9.47608 14.1076 9.37279C14.5982 9.34238 15.0003 9.73563 15.0003 10.2271V20.1193C15.0003 20.6057 14.6081 20.9955 14.1228 20.9628C12.5621 20.8574 9.19601 20.4537 6.30467 18.9078C3.50815 17.4125 2.3401 16.1488 1.90122 15.5494Z" fill="url(#paint0_linear_38275_258310)"></path><path d="M32.988 15.93C32.4009 15.591 32.4009 14.7436 32.988 14.4046L36.596 12.3216C37.1831 11.9826 37.917 12.4063 37.917 13.0843V17.2504C37.917 17.9283 37.1831 18.352 36.596 18.0131L32.988 15.93Z" fill="url(#paint1_linear_38275_258310)"></path></g><defs><linearGradient id="paint0_linear_38275_258310" x1="1.66699" y1="15.1667" x2="15.0003" y2="15.1667" gradientUnits="userSpaceOnUse"><stop stop-color="#16C784"></stop><stop offset="1" stop-color="#43D89C"></stop></linearGradient><linearGradient id="paint1_linear_38275_258310" x1="31.667" y1="15.1673" x2="40.0003" y2="15.1673" gradientUnits="userSpaceOnUse"><stop stop-color="#16C784"></stop><stop offset="1" stop-color="#43D89C"></stop></linearGradient><clipPath id="clip0_38275_258310"><rect width="36.6667" height="26.6667" fill="white" transform="translate(1.66699 2.66699)"></rect></clipPath></defs></svg>