<svg width="40" height="32" viewBox="0 0 40 32" fill="none" xmlns="http://www.w3.org/2000/svg" id="panel-layout-23"><title>鱼骨图（右）</title><g clip-path="url(#clip0_38275_258321)"><rect width="20" height="0.833333" transform="matrix(-1 0 0 1 25.8335 14.751)" fill="#667085"></rect><path d="M22.2163 15.332L15.7345 8.85022L15.1452 9.43947L21.0378 15.332C21.3632 15.6575 21.8909 15.6575 22.2163 15.332Z" fill="#667085"></path><path d="M9.30127 21.6494L15.7831 15.1676C16.1085 14.8422 16.6362 14.8422 16.9616 15.1676L9.89053 22.2387L9.30127 21.6494Z" fill="#667085"></path><rect width="8.33333" height="5" rx="1.66667" transform="matrix(-1 0 0 1 19.167 5.16699)" fill="#8F99A8"></rect><rect x="7.5" y="21.001" width="8.33333" height="5" rx="1.66667" fill="#8F99A8"></rect><path d="M38.0993 15.5503C38.2634 15.3262 38.253 15.036 38.0923 14.8094C37.5802 14.0876 36.2195 12.4431 33.6958 11.1376C31.1972 9.84512 27.5585 9.47706 25.8929 9.37377C25.4023 9.34335 25.0002 9.7366 25.0002 10.2281V20.1203C25.0002 20.6067 25.3924 20.9965 25.8777 20.9637C27.4384 20.8583 30.8045 20.4547 33.6958 18.9087C36.4923 17.4135 37.6604 16.1498 38.0993 15.5503Z" fill="url(#paint0_linear_38275_258321)"></path><path d="M7.01247 15.93C7.59959 15.591 7.59959 14.7436 7.01247 14.4046L3.40452 12.3216C2.8174 11.9826 2.0835 12.4063 2.0835 13.0843V17.2504C2.0835 17.9283 2.8174 18.352 3.40452 18.0131L7.01247 15.93Z" fill="url(#paint1_linear_38275_258321)"></path></g><defs><linearGradient id="paint0_linear_38275_258321" x1="38.3335" y1="15.1676" x2="25.0002" y2="15.1676" gradientUnits="userSpaceOnUse"><stop stop-color="#16C784"></stop><stop offset="1" stop-color="#43D89C"></stop></linearGradient><linearGradient id="paint1_linear_38275_258321" x1="8.3335" y1="15.1673" x2="0.000163078" y2="15.1673" gradientUnits="userSpaceOnUse"><stop stop-color="#16C784"></stop><stop offset="1" stop-color="#43D89C"></stop></linearGradient><clipPath id="clip0_38275_258321"><rect width="36.6667" height="26.6667" fill="white" transform="matrix(-1 0 0 1 38.3335 2.66699)"></rect></clipPath></defs></svg>