<?xml version="1.0" encoding="utf-8" ?>
<svg xmlns="http://www.w3.org/2000/svg" xmlns:xlink="http://www.w3.org/1999/xlink" width="94" height="106">
	<path fill="white" d="M17.0637 105.799C13.6709 105.799 10.9766 103.081 10.9766 99.6581L10.9766 97.6448C10.9766 94.2222 13.6709 91.5043 17.0637 91.5043L37.62 91.5043L37.3206 88.1823C37.3206 87.8803 37.3206 87.5783 37.3206 87.2764C37.3206 81.1358 42.2102 76.2032 48.2972 76.2032C48.896 76.2032 49.4947 76.3039 50.0934 76.4046L51.4904 76.6059L73.2442 57.2783L72.7452 55.4663C72.4459 54.4596 72.3461 53.453 72.3461 52.4463C72.3461 50.9364 72.6454 49.5271 73.1444 48.2184L73.9427 46.4065L54.8832 26.7768C53.9851 25.8708 52.4883 26.6762 52.6879 27.8841L53.6858 33.4207C53.9851 35.132 54.1847 36.944 54.1847 38.6553C54.1847 46.2051 51.5902 53.5537 46.7006 59.1909L44.3057 62.0095L32.3312 50.1311L30.4352 51.037C28.5393 51.943 26.4437 52.3457 24.3482 52.3457C23.949 52.3457 23.6497 52.3457 23.2505 52.3457C19.3588 52.0437 15.7665 50.2317 13.172 47.2118C10.5775 44.1918 9.38004 40.3666 9.57962 36.4406C9.67941 34.83 10.0786 33.1187 10.7771 31.6087L11.5754 29.6961L0 18.2203L2.69427 15.7037C8.28238 10.6705 15.4671 7.85185 22.9512 7.85185C26.5435 7.85185 29.8365 8.35518 33.0297 9.46249L34.7261 10.0665L41.811 3.12061C43.8068 1.10731 46.6008 0 49.3949 0C52.2887 0 54.983 1.10731 56.9788 3.12061C59.9724 6.03989 61.0701 9.36182 60.6709 12.6838L60.4713 14.0931L88.4119 42.8832C92.0042 45.0978 94 48.7217 94 52.547C94 56.8756 91.5053 60.8015 87.6136 62.6135L58.6752 88.1823C57.2781 89.3903 58.1762 91.7056 59.9724 91.7056L78.3333 91.7056C81.7261 91.7056 84.4204 94.4236 84.4204 97.8462L84.4204 99.8594C84.4204 103.282 81.7261 106 78.3333 106L17.0637 106"/>
	<path fill="#FFD071" d="M23.1508 48.8223C16.964 48.319 12.2739 42.8831 12.6494 36.6419C12.8727 33.924 14.0701 31.3067 15.9661 29.394L32.0319 45.3997C29.8366 47.8158 26.5436 49.1244 23.1508 48.8223"/>
	<path fill="#2D1B0A" d="M24.0403 49.9298C23.7407 49.9298 23.441 49.9298 23.1414 49.9298C19.8455 49.7284 16.8492 48.2185 14.7518 45.7018C12.5545 43.1852 11.5557 39.9639 11.7305 36.642C11.9552 33.6221 13.2536 30.8034 15.351 28.7902L33.6284 45.5005C30.5323 48.5204 27.3362 49.9298 24.0403 49.9298M16.0502 30.8034C14.6519 32.5147 13.8529 34.528 13.6531 36.642C13.4534 39.36 14.3523 42.0779 16.15 44.1919C17.9478 46.3058 20.4447 47.6145 23.2413 47.8158C25.9379 48.0171 28.6346 47.1111 30.732 45.2992L16.0502 30.8034"/>
	<path fill="#99CC62" d="M44.3057 56.7749L33.7282 46.3057L15.2675 27.9848L5.38855 18.2203C10.3779 13.7911 16.6646 11.2745 23.3503 11.2745C27.5415 11.2745 31.6327 12.1804 35.3249 13.8917C35.3249 13.8917 35.3249 13.8917 35.4247 13.8917C36.8216 14.4957 38.0191 15.301 39.3163 16.207C39.3163 16.207 39.4161 16.207 39.4161 16.3077C39.6157 16.509 39.9151 16.6097 40.1147 16.811C40.2145 16.9117 40.3143 17.0123 40.4141 17.113C40.6137 17.2137 40.8131 17.415 41.0127 17.5157C41.2123 17.6163 41.3121 17.8177 41.5117 17.9183C41.6115 18.019 41.8111 18.1196 41.9109 18.321C42.2103 18.623 42.5095 18.925 42.8089 19.227C43.1082 19.529 43.5075 19.9316 43.8069 20.2336C43.9066 20.3343 43.9066 20.3343 44.0064 20.4349C44.206 20.7369 44.5053 21.0389 44.7048 21.2403C44.8046 21.341 44.8046 21.4416 44.9044 21.5423C45.104 21.8442 45.4035 22.1463 45.603 22.3475C45.603 22.4482 45.7028 22.4482 45.7028 22.549C45.9024 22.8508 46.2018 23.1529 46.4012 23.5555C47.3992 25.0655 48.2972 26.7769 48.9958 28.4881C50.293 31.7094 50.9916 35.132 50.9916 38.6553C50.9916 45.2991 48.6964 51.7417 44.3057 56.7749"/>
	<path fill="#2D1B0A" d="M44.4056 58.2849L3.9916 18.1196C9.87907 12.7844 16.5648 10.2678 23.4502 10.1671C27.7411 10.1671 31.9322 11.0731 35.8239 12.885C37.3207 13.6904 38.6179 14.395 39.8154 15.301C40.2145 15.603 40.4141 15.8043 40.7135 16.0057C40.913 16.207 41.0128 16.207 41.1126 16.3076C41.3122 16.4083 41.5118 16.6096 41.7113 16.811C41.9109 16.9116 42.1105 17.113 42.2103 17.3143C42.3101 17.415 42.5096 17.5156 42.6094 17.717C42.9088 18.0189 43.2082 18.3209 43.5075 18.6229C43.8069 18.9249 44.206 19.3276 44.5054 19.6296C44.5054 19.6296 44.6052 19.7303 44.6052 19.7303C45.1041 20.2336 45.3037 20.4349 45.5033 20.6362C45.5033 20.6362 45.6031 20.7369 45.6031 20.8376C46.0022 21.2402 46.2018 21.5422 46.4014 21.8442C46.8005 22.3475 47.0001 22.6495 47.2995 23.0522C48.3971 24.6628 49.2952 26.3741 49.9937 28.0854C51.3908 31.6087 52.0893 35.132 52.0893 38.7559C52.0893 45.7018 49.6944 52.4463 45.2039 57.6809M34.4268 45.6011L44.206 55.2649C47.998 50.5337 49.9937 44.5945 49.9937 38.5546C49.9937 35.2326 49.2952 32.0114 48.0978 28.8907C47.2995 27.1794 46.5012 25.5688 45.5033 24.0588C45.2039 23.7568 45.0043 23.3542 44.8048 23.0522C44.4056 22.5489 44.206 22.3475 44.0065 22.0455C44.0065 22.0455 43.9067 21.9449 43.9067 21.8442C43.6073 21.5422 43.5075 21.3409 43.3079 21.1396C42.6094 20.4349 42.3101 20.0322 42.0107 19.7303C41.7113 19.4283 41.412 19.1263 41.1126 18.9249C41.0128 18.8243 40.8133 18.7236 40.7135 18.6229C40.5139 18.4216 40.4141 18.3209 40.2145 18.2203C40.015 18.0189 39.9152 17.9183 39.7156 17.8176C39.6158 17.717 39.516 17.717 39.516 17.6163C39.2167 17.3143 38.9173 17.2136 38.7177 17.0123C37.4205 16.1063 36.223 15.301 34.9258 14.697C31.2336 12.885 27.4417 12.0797 23.3504 12.0797C17.2634 12.0797 11.4757 14.2944 6.78566 18.1196L34.4268 45.6011"/>
	<path fill="#89C5E5" d="M81.1275 49.527L52.1891 19.4283L55.4821 16.0057C55.7815 15.7037 56.0808 15.4017 56.2804 14.999C56.3802 14.8984 56.48 14.7977 56.48 14.697C56.48 14.5964 56.5798 14.5964 56.5798 14.4957L85.618 44.6951C85.3186 44.8965 85.0192 45.0978 84.7199 45.2991C83.722 46.0038 82.8239 46.8091 82.1254 47.8157C81.9258 48.1177 81.6265 48.4197 81.4269 48.8224C81.4269 48.8224 81.4269 48.9231 81.3271 48.9231C81.3271 49.225 81.2273 49.3257 81.1275 49.527"/>
	<path fill="#2D1B0A" d="M81.3271 51.2382L50.7921 19.5289L54.6838 15.4016C54.9832 15.0996 55.1828 14.7976 55.4821 14.4956C55.7815 14.1936 55.8813 14.093 55.8813 13.9923L87.3144 45.0977L86.2167 45.7017C86.0172 45.8023 85.7178 46.0037 85.5182 46.205C84.6201 46.9097 83.8218 47.6143 83.2231 48.4196C82.9237 48.923 82.7242 49.225 82.4248 49.5269C82.2252 49.8289 82.2252 49.9296 82.1254 50.0303L81.3271 51.2382M53.5862 19.4282L80.928 47.9163C81.0278 47.8156 81.0278 47.715 81.1276 47.6143C82.1254 46.3057 83.1233 45.3997 84.1212 44.695L56.6796 16.2069C56.48 16.4082 56.2804 16.6096 56.0808 16.8109L53.5862 19.4282"/>
	<path fill="#89C5E5" d="M85.8174 59.2915L55.9809 85.7663C55.9809 85.6656 55.8811 85.565 55.8811 85.565C54.8832 83.6524 53.2866 82.0417 51.4904 80.8337L81.6263 54.0569C81.7261 54.3589 81.9256 54.6609 82.0254 54.9629C82.225 55.3656 82.4246 55.6676 82.6242 55.9696C83.1231 56.6742 83.622 57.2782 84.2208 57.8822C84.7197 58.3855 85.2186 58.8889 85.8174 59.2915"/>
	<path fill="#2D1B0A" d="M55.6815 87.3771L54.9829 86.1691C53.7855 84.1558 52.4883 82.7465 50.7919 81.7398L49.6942 81.0352L81.8258 52.4464L82.4246 53.6544C82.5243 53.9564 82.7239 54.1577 82.8237 54.4597C83.0233 54.7617 83.2229 55.0637 83.3227 55.3657C83.9214 56.171 84.3205 56.6743 84.8195 57.1776C85.3184 57.681 85.8173 58.0836 86.3163 58.3856L55.6815 87.3771M52.9872 80.7332C54.2844 81.7398 55.2823 82.8472 56.1804 84.2565L84.2207 59.2916C84.0212 59.0903 83.8216 58.889 83.5222 58.6876C82.8237 57.983 82.3248 57.379 81.8258 56.6743C81.5265 56.171 81.3269 55.9697 81.2271 55.6677L52.9872 80.7332"/>
	<path fill="#89C5E5" d="M78.3334 102.275L16.465 102.275C15.1677 102.275 14.0701 101.168 14.0701 99.8595L14.0701 97.4435C14.0701 96.1349 15.1677 95.0276 16.465 95.0276L78.3334 95.0276C79.6306 95.0276 80.7283 96.1349 80.7283 97.4435L80.7283 99.7588C80.7283 101.168 79.6306 102.275 78.3334 102.275"/>
	<path fill="#2D1B0A" d="M78.3332 103.282L16.4649 103.282C14.5689 103.282 13.0721 101.772 13.0721 99.8595L13.0721 97.4435C13.0721 95.5309 14.5689 94.0209 16.4649 94.0209L78.3332 94.0209C80.2292 94.0209 81.726 95.5309 81.726 97.4435L81.726 99.7588C81.726 101.772 80.2292 103.282 78.3332 103.282M16.4649 96.0342C15.6666 96.0342 15.0679 96.6382 15.0679 97.4435L15.0679 99.7588C15.0679 100.564 15.6666 101.168 16.4649 101.168L78.3332 101.168C79.1315 101.168 79.7303 100.564 79.7303 99.7588L79.7303 97.4435C79.7303 96.6382 79.1315 96.0342 78.3332 96.0342L16.4649 96.0342"/>
	<path fill="#99CC62" d="M55.2824 86.0684C55.2824 90.2381 51.9316 93.6183 47.7983 93.6183C43.665 93.6183 40.3142 90.2381 40.3142 86.0684C40.3142 81.8987 43.665 78.5186 47.7983 78.5186C51.9316 78.5186 55.2824 81.8987 55.2824 86.0684"/>
	<path fill="#2D1B0A" d="M47.7983 94.6249C43.1083 94.6249 39.3163 90.7996 39.3163 86.0684C39.3163 81.3372 43.1083 77.5119 47.7983 77.5119C52.4883 77.5119 56.2803 81.3372 56.2803 86.0684C56.2803 90.7996 52.4883 94.6249 47.7983 94.6249M47.7983 79.5252C44.2059 79.5252 41.3121 82.4445 41.3121 86.0684C41.3121 89.6923 44.2059 92.6116 47.7983 92.6116C51.3906 92.6116 54.2845 89.6923 54.2845 86.0684C54.2845 82.4445 51.3906 79.5252 47.7983 79.5252"/>
	<path fill="#99CC62" d="M91.0064 51.8423C91.0064 56.012 87.6556 59.3922 83.5223 59.3922C79.389 59.3922 76.0382 56.012 76.0382 51.8423C76.0382 47.6727 79.389 44.2925 83.5223 44.2925C87.6556 44.2925 91.0064 47.6727 91.0064 51.8423"/>
	<path fill="#2D1B0A" d="M83.5223 60.4995C78.8323 60.4995 75.0404 56.6742 75.0404 51.943C75.0404 47.2118 78.8323 43.3865 83.5223 43.3865C88.2123 43.3865 92.0042 47.2118 92.0042 51.943C92.0042 56.6742 88.2123 60.4995 83.5223 60.4995M83.5223 45.2991C79.93 45.2991 77.0361 48.2184 77.0361 51.8423C77.0361 55.4663 79.93 58.3856 83.5223 58.3856C87.1147 58.3856 90.0086 55.4663 90.0086 51.8423C90.0086 48.2184 87.1147 45.2991 83.5223 45.2991"/>
	<path fill="#99CC62" d="M46.2017 22.5489C46.2017 22.5489 46.1019 22.4482 46.1019 22.4482C45.9023 22.2469 45.8025 22.0455 45.603 21.8442C45.5032 21.6429 45.3036 21.5422 45.2038 21.3409C45.104 21.1396 44.9044 21.0389 44.8046 20.8376C44.6051 20.6362 44.4055 20.4349 44.3057 20.2336C44.2059 20.1329 44.0063 19.9316 43.9066 19.8309C43.707 19.6296 43.5074 19.4283 43.208 19.1263C43.1083 19.0256 43.0085 18.9249 42.9087 18.8243C42.6093 18.5223 42.2102 18.2203 41.811 17.9183C41.4119 17.5156 40.9129 17.2136 40.414 16.811C40.3142 16.7103 40.2144 16.6096 40.0148 16.509C39.6157 16.207 39.2165 16.0057 38.9172 15.7037C37.6199 14.7977 36.6221 14.1937 35.5244 13.6904L43.4076 5.73785C44.9044 4.22788 47 3.3219 49.1953 3.3219C51.3906 3.3219 53.3864 4.22788 54.983 5.73785C58.1762 8.95913 58.6751 12.7844 57.2781 15.905C57.1783 16.1063 57.0785 16.3077 56.9788 16.509C56.9788 16.509 56.9788 16.6096 56.879 16.6096C56.7792 16.811 56.6794 16.9116 56.5796 17.113C56.4798 17.2136 56.4798 17.3143 56.38 17.3143C56.2802 17.415 56.1805 17.5156 56.1805 17.6163C55.9809 17.8176 55.8811 18.019 55.6815 18.2203L48.2972 25.6695C47.5987 24.4615 46.9002 23.4549 46.2017 22.5489"/>
	<path fill="#2D1B0A" d="M47.9979 27.0788L47.2993 25.9715C46.7006 24.9648 46.0021 23.9582 45.3036 23.0522C45.0042 22.7502 44.9044 22.5489 44.7049 22.3476C44.6051 22.1462 44.4055 22.0456 44.3057 21.8442C44.2059 21.7436 44.1061 21.5422 43.9066 21.4416C43.707 21.1396 43.5074 21.0389 43.3078 20.8376C43.208 20.7369 43.1082 20.6363 43.0085 20.5356C42.7091 20.2336 42.5095 20.0323 42.3099 19.8309C41.7112 19.2269 41.3121 18.925 41.0127 18.623C40.6136 18.2203 40.1146 17.9183 39.7155 17.5156C39.017 16.9117 38.7176 16.7103 38.3185 16.4083C37.0212 15.603 36.0233 14.999 35.0254 14.4957L33.828 13.8917L42.7091 4.93255C44.4055 3.22125 46.7006 2.2146 49.1953 2.2146C51.69 2.2146 53.9851 3.22125 55.6815 4.93255C59.1741 8.45582 59.8726 12.6837 58.1762 16.207C58.0764 16.4083 57.9766 16.6097 57.8768 16.811C57.6773 17.113 57.6773 17.2137 57.5775 17.415C57.3779 17.6163 57.2781 17.717 57.2781 17.8176C57.0785 18.019 57.0785 18.1196 56.9787 18.2203C56.7792 18.4216 56.6794 18.623 56.4798 18.8243L47.9979 27.0788M47 21.9449C47.4989 22.5489 47.9979 23.2535 48.397 23.9582L54.8832 17.415C55.0828 17.2137 55.1826 17.113 55.2824 16.9117C55.3821 16.811 55.3821 16.811 55.3821 16.7103C55.7813 16.207 55.7813 16.1063 55.8811 16.0057C56.0807 15.8043 56.1804 15.603 56.1804 15.4017C57.4777 12.5831 56.9787 9.26113 54.7834 7.14717C52.6879 5.03321 50.8917 4.32856 48.9957 4.32856C47.0998 4.32856 45.3036 5.13388 43.9066 6.44252L37.0212 13.4891C37.7197 13.8917 38.3185 14.2944 39.017 14.697C39.7155 15.2004 40.1146 15.5023 40.5138 15.7037C41.4119 16.4083 41.9108 16.7103 42.3099 17.113C42.7091 17.415 43.0085 17.717 43.4076 18.1196C43.9066 18.623 44.2059 18.925 44.4055 19.1263C44.6051 19.3276 44.7049 19.4283 44.8046 19.5289C45.0042 19.7303 45.2038 19.9316 45.4034 20.1329C45.6029 20.3343 45.7027 20.5356 45.8025 20.6363C45.9023 20.8376 46.1019 20.9382 46.2017 21.1396C46.4012 21.3409 46.501 21.5422 46.7006 21.7436C46.9002 21.7436 46.9002 21.8442 47 21.9449"/>
</svg>
