<?xml version="1.0" encoding="utf-8" ?>
<svg xmlns="http://www.w3.org/2000/svg" xmlns:xlink="http://www.w3.org/1999/xlink" width="102" height="98">
	<path fill="white" d="M85.6066 90.1161C83.7851 90.1161 81.9637 89.4176 80.6483 88.1203L12.9523 21.057C10.2202 18.3625 10.2202 14.0713 12.8511 11.2771L22.2618 1.99598C23.5772 0.698624 25.3987 5e-05 27.2201 5e-05C29.0415 5e-05 30.8629 0.698624 32.1784 1.99598L100.077 69.0592C102.708 71.8535 102.606 76.2445 99.9755 78.8392L90.6661 88.0205C89.2494 89.3178 87.5292 90.1161 85.6066 90.1161"/>
	<path fill="white" d="M3.54164 98.0001C1.61904 98.0001 0 96.4035 0 94.5072L0 33.3321C0 31.935 0.809518 30.6376 2.22617 30.1386C2.63093 29.939 3.13688 29.8393 3.54164 29.8393C4.45235 29.8393 5.36306 30.2384 6.07139 30.8372L68.1007 92.0124C69.1506 93.0104 69.4162 94.5072 68.9102 95.8046C68.4043 97.102 67.0888 98.0001 65.6721 98.0001L3.54164 98.0001M30.1545 80.6356L17.1011 67.7618L17.1011 80.6356L30.1545 80.6356"/>
	<path fill="#FFD071" d="M98.0213 76.9306L88.7119 86.1118C87.0928 87.7086 84.563 87.6088 83.0452 86.1118L15.3493 19.1486C13.7303 17.5518 13.8314 15.0569 15.3493 13.5599L24.6587 4.37868C26.2777 2.78194 28.8075 2.88174 30.3253 4.37868L98.1225 71.342C99.5392 72.8389 99.5392 75.4336 98.0213 76.9306"/>
	<path fill="#2D1B0A" d="M85.8088 88.22C84.4934 88.22 83.2791 87.721 82.2672 86.8228L14.5712 19.8595C12.6486 17.8636 12.6486 14.8697 14.5712 12.8738L23.9819 3.6925C26.0057 1.79637 29.0414 1.79637 31.0652 3.6925L98.8623 70.6558C100.684 72.6518 100.684 75.8452 98.7611 77.6416L89.4517 86.8228C88.4398 87.721 87.1243 88.22 85.8088 88.22M27.4224 4.19148C26.6128 4.19148 25.9045 4.49087 25.2974 5.08965L15.9879 14.2709C14.8748 15.4685 14.8748 17.3646 15.9879 18.4624L83.6839 85.4257C84.8981 86.5235 86.8207 86.5235 87.9338 85.4257L97.2433 76.2444C98.3564 75.1467 98.4576 73.1507 97.3445 72.053L29.5473 5.08965C29.0414 4.49087 28.2319 4.19148 27.4224 4.19148"/>
	<path fill="#2D1B0A" d="M34.4045 8.88175C33.9997 8.88175 33.4938 8.98155 33.1902 9.28094L25.7022 16.6659C25.1962 17.1649 25.1962 18.1628 25.7022 18.6618C26.0057 18.8614 26.2081 18.9612 26.6129 19.061C27.0176 19.061 27.5236 18.9612 27.8272 18.6618L35.3152 11.2769C35.8211 10.7779 35.8211 9.77992 35.3152 9.28094C35.0116 9.08134 34.708 8.98155 34.4045 8.88175M41.6901 16.1669C41.2854 16.1669 40.7794 16.2667 40.4759 16.5661L32.9878 23.951C32.4819 24.45 32.4819 25.448 32.9878 25.947C33.2914 26.1465 33.4938 26.2463 33.8985 26.3461C34.3033 26.3461 34.8092 26.2463 35.1128 25.947L42.6009 18.562C43.1068 18.063 43.1068 17.0651 42.6009 16.5661C42.3985 16.2667 41.9937 16.1669 41.6901 16.1669M48.9758 23.3522C48.571 23.3522 48.0651 23.452 47.7615 23.7514L40.2735 31.0366C39.7675 31.5355 39.7675 32.5334 40.2735 33.0324C40.5771 33.232 40.7794 33.3318 41.1842 33.4316C41.589 33.4316 42.0949 33.3318 42.3985 33.0324L49.8865 25.6476C50.3925 25.1486 50.3925 24.1506 49.8865 23.6516C49.6841 23.452 49.2794 23.3522 48.9758 23.3522M56.2615 30.5375C55.8567 30.5375 55.3508 30.6374 55.0472 30.9368L47.5591 38.3216C47.0532 38.8206 47.0532 39.8186 47.5591 40.3176C47.8627 40.5172 48.0651 40.617 48.4699 40.7168C48.8746 40.7168 49.3806 40.617 49.6841 40.3176L57.1722 32.9326C57.6781 32.4337 57.6781 31.4358 57.1722 30.9368C56.9698 30.7372 56.565 30.5375 56.2615 30.5375M63.5471 37.7229C63.1424 37.7229 62.6364 37.8227 62.3329 38.122L54.8448 45.507C54.3389 46.006 54.3389 47.004 54.8448 47.503C55.1484 47.7026 55.3508 47.8024 55.7555 47.9022C56.1603 47.9022 56.6662 47.8024 56.9698 47.503L64.4578 40.118C64.9638 39.619 64.9638 38.621 64.4578 38.122C64.2555 38.0222 63.8507 37.8227 63.5471 37.7229M70.8328 45.008C70.428 45.008 69.9221 45.1078 69.6185 45.4072L62.1305 52.7922C61.6245 53.2912 61.6245 54.289 62.1305 54.788C62.434 54.9876 62.6364 55.0874 63.0412 55.1872C63.4459 55.1872 63.9519 55.0874 64.2555 54.788L71.7435 47.4032C72.2494 46.9042 72.2494 45.9062 71.7435 45.4072C71.5411 45.2076 71.2376 45.1078 70.8328 45.008M78.2196 52.2932C77.8149 52.2932 77.3089 52.393 77.0054 52.6924L69.5173 60.0772C69.0114 60.5762 69.0114 61.5742 69.5173 62.0732C69.8209 62.2728 70.0233 62.3726 70.428 62.4724C70.8328 62.4724 71.3387 62.3726 71.6423 62.0732L79.1304 54.6882C79.6363 54.1892 79.6363 53.1914 79.1304 52.6924C78.8268 52.393 78.5232 52.2932 78.2196 52.2932M85.5053 59.4784C85.1005 59.4784 84.5946 59.5782 84.291 59.8776L76.803 67.2626C76.297 67.7616 76.297 68.7596 76.803 69.2586C77.1066 69.4582 77.3089 69.558 77.7137 69.6578C78.1185 69.7576 78.6244 69.558 78.928 69.2586L86.416 61.8736C86.922 61.3746 86.922 60.3766 86.416 59.8776C86.1124 59.5782 85.8089 59.4784 85.5053 59.4784M92.8922 66.6638C92.4874 66.6638 91.9814 66.7636 91.6779 67.063L84.1898 74.448C83.6839 74.947 83.6839 75.9449 84.1898 76.4439C84.4934 76.6435 84.6958 76.7433 85.1005 76.8431C85.5053 76.8431 86.0113 76.7433 86.3148 76.4439L93.8029 69.059C94.3088 68.56 94.3088 67.562 93.8029 67.063C93.3981 66.8634 93.1957 66.6638 92.8922 66.6638"/>
	<path fill="#7FCCD1" d="M66.0925 94.2798L4.0532 33.1046C3.74958 32.8052 3.24355 32.9604 3.24355 33.404L3.24355 94.5791C3.24355 94.8785 3.44596 95.0781 3.74958 95.0781L65.7888 95.0781C66.2386 95.0781 66.396 94.5791 66.0925 94.2798M36.5403 83.7013L14.7811 83.7013C14.4775 83.7013 14.275 83.5018 14.275 83.2023L14.275 61.7461C14.275 61.3469 14.7811 61.1473 15.0847 61.4467L36.8439 82.903C37.1475 83.2023 36.9451 83.7013 36.5403 83.7013"/>
	<path fill="#2D1B0A" d="M65.7937 96.1038L3.74453 96.1038C2.93476 96.1038 2.2262 95.4053 2.2262 94.6069L2.2262 33.4317C2.2262 32.833 2.63109 32.334 3.1372 32.0346C3.74453 31.835 4.35187 31.9348 4.75675 32.334L66.8059 93.5091C67.2558 93.9083 67.4133 94.6069 67.1096 95.1059C66.9072 95.8045 66.4011 96.1038 65.7937 96.1038M4.25064 94.1079L64.4778 94.1079L4.25064 34.7291L4.25064 94.1079M36.5405 84.7271L14.7777 84.7271C13.968 84.7271 13.2594 84.0285 13.2594 83.2301L13.2594 61.7739C13.2594 61.1751 13.6643 60.6761 14.1704 60.3768C14.7777 60.1772 15.3851 60.277 15.79 60.6761L37.5527 82.1324C37.9576 82.5315 38.1601 83.2301 37.8564 83.7291C37.5527 84.2281 37.1478 84.7271 36.5405 84.7271M15.2839 82.7311L35.2246 82.7311L15.2839 63.0713L15.2839 82.7311"/>
	<path fill="#2D1B0A" d="M8.90471 47.6029L4.75594 47.6029C4.14879 47.6029 3.74404 47.2037 3.74404 46.6049C3.74404 46.0061 4.14879 45.6069 4.75594 45.6069L8.90471 45.6069C9.51186 45.6069 9.9166 46.0061 9.9166 46.6049C9.9166 47.2037 9.41067 47.6029 8.90471 47.6029"/>
	<path fill="#2D1B0A" d="M8.70234 57.9817L4.75594 57.9817C4.1488 57.9817 3.74404 57.5825 3.74404 56.9837C3.74404 56.3849 4.1488 55.9857 4.75594 55.9857L8.70234 55.9857C9.30948 55.9857 9.71424 56.3849 9.71424 56.9837C9.71424 57.5825 9.30948 57.9817 8.70234 57.9817"/>
	<path fill="#2D1B0A" d="M8.0952 68.3605L4.75594 68.3605C4.1488 68.3605 3.74404 67.9613 3.74404 67.3625C3.74404 66.7637 4.1488 66.3645 4.75594 66.3645L8.0952 66.3645C8.70234 66.3645 9.1071 66.7637 9.1071 67.3625C9.1071 67.9613 8.70234 68.3605 8.0952 68.3605"/>
	<path fill="#2D1B0A" d="M8.2976 78.6395L4.65477 78.6395C4.04762 78.6395 3.64287 78.2403 3.64287 77.6415C3.64287 77.0427 4.04762 76.6435 4.65477 76.6435L8.2976 76.6435C8.90474 76.6435 9.30949 77.0427 9.30949 77.6415C9.30949 78.2403 8.90474 78.6395 8.2976 78.6395"/>
	<path fill="#2D1B0A" d="M8.0952 89.0183L4.75594 89.0183C4.1488 89.0183 3.74404 88.6191 3.74404 88.0203C3.74404 87.4215 4.1488 87.0223 4.75594 87.0223L8.0952 87.0223C8.70234 87.0223 9.1071 87.4215 9.1071 88.0203C9.1071 88.6191 8.70234 89.0183 8.0952 89.0183"/>
</svg>
