<?xml version="1.0" encoding="utf-8" ?>
<svg xmlns="http://www.w3.org/2000/svg" xmlns:xlink="http://www.w3.org/1999/xlink" width="138" height="96">
	<path fill="white" d="M7.98097 96C3.6369 96 0 92.4594 0 88.0084C0 84.6702 2.0205 81.8377 4.95022 80.6238L4.95022 7.89041C4.95022 3.54057 8.48609 0 12.8302 0L125.17 0C129.514 0 133.05 3.54057 133.05 7.89041L133.05 80.6238C135.98 81.8377 138 84.6702 138 88.0084C138 90.1328 137.192 92.156 135.676 93.6733C134.161 95.1907 132.141 96 130.019 96L7.98097 96"/>
	<path fill="#FFD071" d="M12.8302 3.2372L125.17 3.2372C127.898 3.2372 130.019 5.4627 130.019 8.09284L130.019 88.2109C130.019 90.9422 127.797 93.0665 125.17 93.0665L12.8302 93.0665C10.1025 93.0665 7.981 90.841 7.981 88.2109L7.981 8.09284C7.981 5.4627 10.1025 3.2372 12.8302 3.2372"/>
	<path fill="#2D1B0A" d="M125.17 94.1792L12.8301 94.1792C9.59735 94.1792 6.9707 91.549 6.9707 88.3119L6.9707 8.19393C6.9707 4.95684 9.59735 2.3267 12.8301 2.3267L125.17 2.3267C128.403 2.3267 131.03 4.95684 131.03 8.19393L131.03 88.3119C131.03 91.549 128.403 94.1792 125.17 94.1792M12.8301 4.24872C10.7086 4.24872 8.9912 5.96843 8.9912 8.09277L8.9912 88.2108C8.9912 90.3351 10.7086 92.0548 12.8301 92.0548L125.17 92.0548C127.292 92.0548 129.009 90.3351 129.009 88.2108L129.009 8.09277C129.009 5.96843 127.292 4.24872 125.17 4.24872L12.8301 4.24872"/>
	<path fill="#443C2C" d="M17.6794 13.0495L120.32 13.0495L120.32 83.3551L17.6794 83.3551L17.6794 13.0495"/>
	<path fill="#2D1B0A" d="M121.331 84.3667L16.6691 84.3667L16.6691 12.0379L121.331 12.0379L121.331 84.3667M18.6896 82.3435L119.31 82.3435L119.31 14.0611L18.6896 14.0611L18.6896 82.3435"/>
	<path fill="#50E6CC" d="M32.53 73.0369L47.7848 73.0369C50.3104 73.0369 52.3309 75.0601 52.3309 77.5891L52.3309 83.3551L27.8829 83.3551L27.8829 77.5891C27.8829 75.1612 30.0044 73.0369 32.53 73.0369"/>
	<path fill="#94C654" d="M130.169 93.1675L7.92882 93.1675C5.20115 93.1675 2.9786 90.942 2.9786 88.2107C2.9786 85.4794 5.20115 83.2539 7.92882 83.2539L130.068 83.2539C132.796 83.2539 135.022 85.4794 135.022 88.2107C135.022 90.942 132.897 93.1675 130.169 93.1675"/>
	<path fill="#2D1B0A" d="M130.171 94.1791L7.93047 94.1791C4.69767 94.1791 1.97 91.5489 1.97 88.2107C1.97 84.9736 4.59665 82.2423 7.93047 82.2423L130.07 82.2423C133.302 82.2423 136.03 84.8724 136.03 88.2107C136.03 89.8292 135.424 91.2455 134.313 92.3582C133.201 93.5721 131.686 94.1791 130.171 94.1791M7.93047 84.2655C5.80895 84.2655 3.9905 85.9852 3.9905 88.2107C3.9905 90.335 5.70792 92.1559 7.93047 92.1559L130.171 92.1559C131.181 92.1559 132.191 91.7513 132.898 90.942C133.605 90.2339 134.01 89.2223 134.01 88.2107C134.01 86.0863 132.292 84.2655 130.07 84.2655L7.93047 84.2655"/>
	<path fill="#8ADCFF" d="M48.0878 62.5163L43.1376 62.5163L43.1376 46.1286L39.8038 46.1286L40.1068 42.0822L48.1888 42.0822L48.1888 62.5163"/>
	<path fill="#FDF17F" d="M63.4437 58.47L73.3441 58.47L73.3441 62.314L59.0996 62.314L59.0996 50.6807L68.899 49.6691L68.798 45.8251L59.5037 45.8251L59.5037 42.0822L73.4451 42.0822L73.7482 53.2097L63.6457 54.2213L63.4437 58.47"/>
	<path fill="#FFB8CB" d="M98.4993 62.5163L84.4567 62.5163L84.4567 58.4699L93.8521 58.4699L93.8521 54.0189L85.7701 54.0189L85.7701 49.9725L93.8521 49.9725L93.8521 46.2297L84.4567 46.2297L84.4567 42.1833L98.4993 42.1833L98.4993 62.5163"/>
</svg>
