<?xml version="1.0" encoding="utf-8" ?>
<svg xmlns="http://www.w3.org/2000/svg" xmlns:xlink="http://www.w3.org/1999/xlink" width="84" height="84">
	<path fill="white" d="M5.70661 84C5.20713 84 4.60776 83.9005 4.10828 83.8009C3.10932 83.5024 2.11036 82.9052 1.41109 82.109C0.412129 80.9147 0 79.4218 0 77.8294C0 76.8341 0.212337 75.9384 0.711817 75.1422L11.3008 52.9479L60.2498 4.18009C61.948 2.48815 64.0458 1.29384 66.4433 0.597156C67.6421 0.199052 69.0406 0 70.3392 0C74.0354 0 77.4318 1.39336 80.0291 3.98104C85.3236 9.25592 85.3236 18.0142 80.0291 23.2891L74.1353 29.1611L31.4797 71.2607C31.1801 72.0569 30.6806 72.654 29.8814 73.0521L8.3039 83.3033C7.50474 83.8009 6.70557 84 5.70661 84"/>
	<path fill="#FFD071" d="M77.6753 6.07102C73.4797 1.89093 66.6868 1.89093 62.4912 6.07102L13.9418 54.4407L3.55259 76.2369C3.2529 76.635 3.2529 77.0331 3.2529 77.5308C3.2529 79.0237 4.45165 80.2179 5.95009 80.2179C6.44957 80.2179 6.84915 80.1185 7.14884 79.9193L29.1259 69.5686L77.6753 21.1989C81.7711 16.9193 81.7711 10.2511 77.6753 6.07102"/>
	<path fill="#2D1B0A" d="M5.86265 81.2131C3.86473 81.2131 2.1665 79.6207 2.1665 77.5306C2.1665 76.9335 2.36629 76.3363 2.66598 75.7392L13.155 53.8434L61.8043 5.37425C66.3995 0.79605 73.7918 0.79605 78.3871 5.37425C82.9823 9.95245 82.9823 17.3174 78.3871 21.7961L29.7378 70.2652L7.66077 80.7155C7.0614 81.0141 6.46202 81.2131 5.86265 81.2131M14.7534 55.0378L4.46411 76.7344C4.36421 76.9335 4.26431 77.2321 4.26431 77.5306C4.26431 78.725 5.46306 79.6207 6.66181 79.0235L28.4391 68.6728L76.8886 20.4027C80.6847 16.6207 80.6847 10.5496 76.8886 6.76761C73.0926 2.98562 66.899 2.98562 63.2029 6.76761L14.7534 55.0378"/>
	<path fill="#BA7747" d="M20.8908 63.2986C19.692 62.1043 19.2924 60.3128 19.8918 58.8199C19.8918 58.7204 19.8918 58.7204 19.7919 58.7204C18.2935 59.3175 16.4954 58.9194 15.2966 57.7251C14.6972 57.128 14.2976 56.3318 14.0979 55.4609C14.0979 55.4609 13.998 55.4609 13.8981 55.4609L3.60878 77.0332C3.2814 77.8294 3.00941 78.9242 4.00837 80.1185C4.30806 80.5166 4.70764 80.7156 5.20712 80.9147C6.00629 81.1137 6.70556 81.0183 7.20504 80.7156L28.8824 70.4645C28.9574 70.4645 28.9574 70.2654 28.8824 70.2654C28.0833 70.1659 27.2841 69.7678 26.6847 69.0711C25.486 67.8768 25.0864 66.0853 25.6858 64.4929C25.6858 64.3934 25.6858 64.3934 25.5859 64.3934C24.7867 64.2938 21.9896 64.3934 20.8908 63.2986"/>
	<path fill="#2D1B0A" d="M5.92871 81.8104C5.52928 81.8104 5.22971 81.7109 4.83028 81.6114C4.23114 81.4123 3.63199 81.0142 3.13271 80.5166C2.2196 79.3223 1.93442 77.7298 2.63342 76.3365L12.9187 54.8388C13.1184 54.4407 13.6177 54.2224 14.0171 54.2224C14.5164 54.3412 14.816 54.6398 14.9159 55.1374C15.0157 55.7346 15.3153 56.3317 15.8146 56.8294C16.7133 57.7251 18.1113 58.0237 19.3096 57.6256L20.408 57.9242C20.7076 58.2227 20.8074 58.7204 20.6077 59.1185C20.2083 60.3128 20.5079 61.7061 21.4066 62.6019C22.0057 63.199 23.8031 63.3981 25.2011 63.2986C26.2996 64.0948 26.3994 64.4929 26.1997 64.7915C25.7004 65.9858 26 67.3791 26.9986 68.2749C27.4979 68.7725 28.097 69.0711 28.6961 69.1706C29.1954 69.2701 29.495 69.6682 29.6142 70.0663C29.6947 70.564 29.3951 70.9621 28.9957 71.1611L7.32671 81.4123C7.12699 81.7109 6.52785 81.8104 5.92871 81.8104M13.9173 57.6256L4.53071 77.3317C4.13128 78.0284 4.23114 78.7251 4.73042 79.3223C4.93014 79.5213 5.12985 79.7204 5.42942 79.8199C5.92871 79.9194 6.32814 79.9194 6.72757 79.7204L26.5991 70.3649C26.2996 70.1659 26.0999 69.9668 25.9001 69.7678C24.7019 68.5734 24.2026 66.981 24.4023 65.3886C23.1041 65.3886 21.3067 65.09 20.3081 64.0948C19.2097 63 18.6106 61.5071 18.7104 60.0142C17.2126 60.1137 15.7147 59.5166 14.6163 58.4218C14.3167 58.1232 14.117 57.8246 13.9173 57.6256"/>
	<path fill="#E63B56" d="M62.9469 5.97152L59.1508 9.75351L74.3351 24.8815L78.1311 21.0995C82.3266 16.9193 82.3266 10.1516 78.1311 5.97152C73.9354 1.79143 67.1425 1.79143 62.9469 5.97152"/>
	<path fill="#2D1B0A" d="M74.3351 26.1754L57.7524 9.65406L62.2477 5.17539C64.4454 2.98581 67.4423 1.7915 70.5391 1.7915C73.6358 1.7915 76.6327 2.98581 78.8304 5.17539C83.4256 9.75359 83.4256 17.1185 78.8304 21.6967L74.3351 26.1754M60.5495 9.75359L74.2352 23.3887L77.332 20.3033C81.128 16.5214 81.128 10.3507 77.332 6.66828C75.5339 4.87681 73.0365 3.88155 70.4392 3.88155C67.8419 3.88155 65.4444 4.87681 63.5464 6.66828L60.5495 9.75359"/>
	<path fill="#D1D1D1" d="M51.259 17.417L58.7512 9.95255L73.7356 24.8815L66.2434 32.346L51.259 17.417"/>
	<path fill="#2D1B0A" d="M66.3434 33.7393L49.9605 17.417L58.8512 8.5592L75.2342 24.8815L66.3434 33.7393M52.7576 17.417L66.3434 30.9526L72.4371 24.8815L58.8512 11.3459L52.7576 17.417"/>
	<path fill="#FFC600" d="M4.50786 77.4313C4.30807 77.6303 4.30807 77.9289 4.30807 78.2275C4.30807 79.1232 5.00734 79.8199 5.9064 79.8199C6.20609 79.8199 6.40588 79.7204 6.70557 79.6209C6.70557 79.6209 7.50474 79.2227 8.70349 78.7251L5.40692 75.5403L4.50786 77.4313"/>
</svg>
