<?xml version="1.0" encoding="utf-8" ?>
<svg xmlns="http://www.w3.org/2000/svg" xmlns:xlink="http://www.w3.org/1999/xlink" width="102" height="106">
	<path fill="white" d="M22.284 106C15.9027 106 10.7368 101.588 10.7368 96.2725L10.7368 90.8571L4.86197 90.8571C2.02582 88.9518 0 86.1438 0 82.9347L0 52.8496C0 48.5374 3.54518 45.0274 7.9007 45.0274L9.92651 45.0274L9.92651 35.9016C9.92651 26.7758 13.8769 18.2517 20.8659 12.2346L20.8659 9.82781C20.8659 5.11447 24.715 1.30369 29.4757 1.30369L32.1092 1.30369C34.8441 1.30369 37.3764 2.60738 38.997 4.71334C39.9086 4.61306 40.719 4.61306 41.6306 4.61306L60.6733 4.61306C61.4836 4.61306 62.1927 4.61306 63.003 4.71334C64.4211 1.90539 67.3585 0 70.7011 0L73.3347 0C78.0953 0 81.9444 3.81079 81.9444 8.52412L81.9444 12.736C88.5283 18.6528 92.3774 27.0766 92.3774 35.9016L92.3774 45.0274L94.0993 45.0274C98.4548 45.0274 102 48.5374 102 52.8496L102 83.035C102 87.3472 98.4548 90.8571 94.0993 90.8571L91.567 90.8571L91.567 96.1722C91.567 101.588 86.4012 106 80.0199 106L25.6266 106L22.284 106"/>
	<path fill="#89C5E5" d="M29.3768 25.8731C26.3381 25.8731 23.8058 23.4664 23.8058 20.3576L23.8058 9.62716C23.8058 6.61865 26.2368 4.11155 29.3768 4.11155L32.0104 4.11155C35.0491 4.11155 37.5814 6.51836 37.5814 9.62716L37.5814 20.3576C37.5814 23.3661 35.0491 25.8731 32.0104 25.8731L29.3768 25.8731"/>
	<path fill="#2D1B0A" d="M32.0093 26.876L29.3754 26.876C25.7284 26.876 22.7905 23.9677 22.7905 20.3575L22.7905 9.62715C22.7905 6.01693 25.7284 3.1087 29.3754 3.1087L32.0093 3.1087C35.6564 3.1087 38.5967 6.01693 38.5967 9.62715L38.5967 20.3575C38.6955 23.9677 35.6564 26.876 32.0093 26.876M29.3754 5.21466C26.8427 5.21466 24.8166 7.22034 24.8166 9.72743L24.8166 20.4578C24.8166 22.9649 26.8427 24.9706 29.3754 24.9706L32.0093 24.9706C34.542 24.9706 36.5681 22.9649 36.5681 20.4578L36.5681 9.72743C36.5681 7.22034 34.542 5.21466 32.0093 5.21466L29.3754 5.21466"/>
	<path fill="#89C5E5" d="M70.5998 24.5695C67.5611 24.5695 65.0288 22.1628 65.0288 19.054L65.0288 8.32356C65.0288 5.31505 67.5611 2.80795 70.5998 2.80795L73.2334 2.80795C76.2721 2.80795 78.8044 5.21476 78.8044 8.32356L78.8044 19.054C78.8044 22.0625 76.3734 24.5695 73.2334 24.5695L70.5998 24.5695"/>
	<path fill="#2D1B0A" d="M73.2334 25.5724L70.5998 25.5724C66.9533 25.5724 64.0159 22.6641 64.0159 19.0539L64.0159 8.32355C64.0159 4.71333 66.9533 1.8051 70.5998 1.8051L73.2334 1.8051C76.8799 1.8051 79.8173 4.71333 79.8173 8.32355L79.8173 19.0539C79.716 22.6641 76.7786 25.5724 73.2334 25.5724M70.5998 3.81078C68.1688 3.81078 66.0417 5.91674 66.0417 8.32355L66.0417 19.0539C66.0417 21.561 68.0675 23.5667 70.5998 23.5667L73.2334 23.5667C75.7657 23.5667 77.7915 21.561 77.7915 19.0539L77.7915 8.32355C77.7915 5.81645 75.7657 3.81078 73.2334 3.81078L70.5998 3.81078"/>
	<path fill="#F9BF5A" d="M60.5214 7.421L41.4787 7.421C25.6773 7.421 12.9146 20.0568 12.9146 35.701L12.9146 62.2763L89.0854 62.2763L89.0854 35.701C89.0854 20.157 76.3227 7.421 60.5214 7.421"/>
	<path fill="#2D1B0A" d="M90.0983 63.2791L11.9017 63.2791L11.9017 35.7011C11.9017 19.5554 25.1708 6.4182 41.4787 6.4182L60.5214 6.4182C76.8292 6.4182 90.0983 19.5554 90.0983 35.7011L90.0983 63.2791M13.9275 61.2735L88.0725 61.2735L88.0725 35.7011C88.0725 20.6585 75.715 8.42388 60.5214 8.42388L41.4787 8.42388C26.285 8.42388 13.9275 20.6585 13.9275 35.7011L13.9275 61.2735"/>
	<path fill="#F9BF5A" d="M57.736 17.9508L44.2643 17.9508C37.2752 17.9508 31.7042 23.5667 31.7042 30.386C31.7042 31.3888 32.5145 32.2914 33.6287 32.2914L68.3715 32.2914C69.3844 32.2914 70.2961 31.4891 70.2961 30.386C70.2961 23.5667 64.7251 17.9508 57.736 17.9508"/>
	<path fill="#2D1B0A" d="M68.3714 33.3946L33.6286 33.3946C32.008 33.3946 30.6912 32.0909 30.6912 30.4862C30.6912 23.0653 36.7687 17.0483 44.2642 17.0483L57.7359 17.0483C65.2314 17.0483 71.3089 23.0653 71.3089 30.4862C71.3089 32.0909 69.9921 33.3946 68.3714 33.3946M44.3655 18.9536C37.9841 18.9536 32.8183 24.0681 32.8183 30.386C32.8183 30.8875 33.2235 31.2886 33.7299 31.2886L68.4727 31.2886C68.9792 31.2886 69.3843 30.8875 69.3843 30.386C69.3843 24.0681 64.2185 18.9536 57.8372 18.9536L44.3655 18.9536"/>
	<path fill="#F47A62" d="M77.1837 87.5478C74.5501 87.5478 72.3217 85.4418 72.3217 82.7342L72.3217 52.649C72.3217 50.0416 74.4489 47.8354 77.1837 47.8354L93.8967 47.8354C96.5302 47.8354 98.7586 49.9414 98.7586 52.649L98.7586 82.8345C98.7586 85.4418 96.6315 87.6481 93.8967 87.6481L77.1837 87.5478"/>
	<path fill="#2D1B0A" d="M93.8967 88.6509L76.1708 88.6509C73.4359 88.0492 71.3088 85.6424 71.3088 82.8344L71.3088 52.7493C71.3088 49.5402 73.9424 46.9328 77.1837 46.9328L93.8967 46.9328C97.138 46.9328 99.7716 49.5402 99.7716 52.7493L99.7716 82.9347C99.7716 86.0435 97.138 88.6509 93.8967 88.6509M78.1966 86.6452L93.8967 86.6452C96.0238 86.6452 97.7457 84.9404 97.7457 82.8344L97.7457 52.649C97.7457 50.543 96.0238 48.8382 93.8967 48.8382L77.1837 48.8382C75.0566 48.8382 73.3346 50.543 73.3346 52.649L73.3346 82.7341C73.3346 84.8401 75.0566 86.5449 77.1837 86.5449L78.1966 86.6452"/>
	<path fill="#F47A62" d="M7.90072 87.5478C5.26715 87.5478 3.03875 85.4418 3.03875 82.7342L3.03875 52.649C3.03875 50.0416 5.16586 47.8354 7.90072 47.8354L24.6138 47.8354C27.2472 47.8354 29.4756 49.9414 29.4756 52.649L29.4756 82.8345C29.4756 85.4418 27.3485 87.6481 24.6138 87.6481L7.90072 87.5478"/>
	<path fill="#2D1B0A" d="M24.6137 88.6509L6.88777 88.6509C4.15291 88.0492 2.0258 85.6424 2.0258 82.8344L2.0258 52.7493C2.0258 49.5402 4.65937 46.9328 7.90068 46.9328L24.6137 46.9328C27.855 46.9328 30.4886 49.5402 30.4886 52.7493L30.4886 82.9347C30.4886 86.0435 27.855 88.6509 24.6137 88.6509M8.91359 86.6452L24.6137 86.6452C26.7408 86.6452 28.4627 84.9404 28.4627 82.8344L28.4627 52.649C28.4627 50.543 26.7408 48.8382 24.6137 48.8382L7.90068 48.8382C5.77357 48.8382 4.05162 50.543 4.05162 52.649L4.05162 82.7341C4.05162 84.8401 5.77357 86.5449 7.90068 86.5449L8.91359 86.6452"/>
	<path fill="#FFD071" d="M22.284 102.791C17.6247 102.791 13.7756 99.7823 13.7756 96.0719L13.7756 46.3311C13.7756 42.6206 17.6247 39.612 22.284 39.612L79.716 39.612C84.3754 39.612 88.2245 42.6206 88.2245 46.3311L88.2245 95.9715C88.2245 99.6821 84.3754 102.691 79.716 102.691L22.284 102.791"/>
	<path fill="#2D1B0A" d="M22.284 103.794C17.0169 103.794 12.7627 100.284 12.7627 96.0718L12.7627 46.3311C12.7627 42.0188 17.0169 38.6092 22.284 38.6092L79.716 38.6092C84.9832 38.6092 89.2374 42.1191 89.2374 46.3311L89.2374 95.9715C89.2374 100.284 84.9832 103.693 79.716 103.693L23.297 103.693L22.284 103.794M21.3724 101.788L79.8173 101.788C83.9702 101.788 87.3128 99.1806 87.3128 96.0718L87.3128 46.3311C87.3128 43.122 83.9702 40.6149 79.8173 40.6149L22.3853 40.6149C18.2324 40.6149 14.8898 43.2223 14.8898 46.3311L14.8898 95.9715C14.7885 98.9801 17.6247 101.387 21.3724 101.788"/>
	<path fill="#A5E3E5" d="M25.3732 92.4619C23.8539 92.4619 22.5371 91.2585 22.5371 89.6539L22.5371 59.0673C22.5371 57.5631 23.7526 56.2594 25.3732 56.2594L76.6265 56.2594C78.1458 56.2594 79.4626 57.4628 79.4626 59.0673L79.4626 89.6539C79.4626 91.1582 78.2471 92.4619 76.6265 92.4619L25.3732 92.4619"/>
	<path fill="#2D1B0A" d="M76.6266 93.4646L25.3734 93.4646C23.2463 93.4646 21.5243 91.7598 21.5243 89.6539L21.5243 59.0673C21.5243 56.9613 23.2463 55.2565 25.3734 55.2565L76.6266 55.2565C78.7537 55.2565 80.4756 56.9613 80.4756 59.0673L80.4756 89.6539C80.4756 91.7598 78.7537 93.4646 76.6266 93.4646M25.3734 57.3625C24.3604 57.3625 23.5501 58.1647 23.5501 59.1676L23.5501 89.7541C23.5501 90.757 24.3604 91.5592 25.3734 91.5592L76.6266 91.5592C77.6395 91.5592 78.4498 90.757 78.4498 89.7541L78.4498 59.1676C78.4498 58.1647 77.6395 57.3625 76.6266 57.3625L25.3734 57.3625"/>
	<path fill="#7FCCD1" d="M25.3732 69.3964C23.8539 69.3964 22.5371 68.193 22.5371 66.5884L22.5371 59.1675C22.5371 57.6632 23.7526 56.3595 25.3732 56.3595L76.6265 56.3595C78.1458 56.3595 79.4626 57.563 79.4626 59.1675L79.4626 66.5884C79.4626 68.0927 78.2471 69.3964 76.6265 69.3964L25.3732 69.3964"/>
	<path fill="#2D1B0A" d="M76.6266 70.3993L25.3734 70.3993C23.2463 70.3993 21.5243 68.6944 21.5243 66.5885L21.5243 59.1675C21.5243 57.0615 23.2463 55.3567 25.3734 55.3567L76.6266 55.3567C78.7537 55.3567 80.4756 57.0615 80.4756 59.1675L80.4756 66.5885C80.4756 68.6944 78.7537 70.3993 76.6266 70.3993M25.3734 57.3624C24.3604 57.3624 23.5501 58.1646 23.5501 59.1675L23.5501 66.5885C23.5501 67.5913 24.3604 68.3936 25.3734 68.3936L76.6266 68.3936C77.6395 68.3936 78.4498 67.5913 78.4498 66.5885L78.4498 59.1675C78.4498 58.1646 77.6395 57.3624 76.6266 57.3624L25.3734 57.3624"/>
</svg>
