<?xml version="1.0" encoding="utf-8" ?>
<svg xmlns="http://www.w3.org/2000/svg" xmlns:xlink="http://www.w3.org/1999/xlink" width="114" height="88">
	<path fill="white" d="M45.1376 87.8L43.5291 84.1L0 84.1L0 10.9L10.254 10.9L10.254 2.6L12.6667 2.1C12.9683 2 21.4127 0.5 31.0635 0.5C43.7302 0.5 52.5767 3.1 57.4021 8.3C62.127 2.8 71.0741 0 84.1429 0C93.7937 0 102.138 1.6 102.54 1.6L104.952 2.1L104.952 10L114 9.9L114 84.3L71.2751 84.3L69.164 88L45.1376 88"/>
	<path fill="#F47A62" d="M45.1878 13.9L2.664 13.9L2.664 81.1L45.1878 81.1L46.7963 84.8L67.1032 84.8L69.2143 81.1L110.632 81.1L110.632 12.8L45.1878 13.9"/>
	<path fill="#2D1B0A" d="M67.656 85.9L46.0423 85.9L44.4338 82.2L1.6084 82.2L1.6084 13L45.1375 13L111.687 11.9L111.687 82.2L69.8677 82.2L67.656 85.9M47.4497 83.9L66.5502 83.9L68.6613 80.2L109.677 80.2L109.677 13.9L45.1375 15L3.61898 15L3.61898 80.2L45.8412 80.2L47.4497 83.9"/>
	<path fill="#F4E5D7" d="M101.635 4.60012C101.635 4.60012 65.1428 -2.29988 57.7036 12.9001L53.8835 76.0002L62.529 76.0002L63.3332 70.8001L101.534 70.8001L101.534 4.60012"/>
	<path fill="#2D1B0A" d="M63.4337 76.9L52.7776 76.9L56.5977 12.5C64.3384 -3.39996 100.227 3.20004 101.735 3.50004L102.54 71.7L64.1374 71.7L63.4337 76.9M54.8887 74.9L61.6242 74.9L62.4284 69.7L100.529 69.7L100.529 5.40004C95.2009 4.50004 65.1427 0.20004 58.6083 13.1L54.8887 74.9"/>
	<path fill="#300604" d="M74.7937 13.9L95.2011 13.9L95.2011 18.6L74.7937 18.6L74.7937 13.9"/>
	<path fill="#300604" d="M74.7937 25L95.2011 25L95.2011 29.7L74.7937 29.7L74.7937 25"/>
	<path fill="#300604" d="M84.0424 54.2L94.3969 54.2L94.3969 58.8L84.0424 58.8L84.0424 54.2"/>
	<path fill="#F4E5D7" d="M12.8678 71.1665L51.0689 71.1665L51.7726 75.8666L57.0001 75.8666L56.799 13.2665C49.3599 -1.93348 12.8678 4.96652 12.8678 4.96652L12.8678 71.1665"/>
	<path fill="#2D1B0A" d="M58.1058 76.9L51.0687 76.9L50.365 72.2L11.9629 72.2L11.9629 4.20004C14.2751 3.70004 50.164 -2.89996 57.8042 12.8L58.1058 76.9M52.7777 74.9L56.0952 74.9L55.8941 13.5C49.2592 0.60004 19.3015 4.90004 13.9735 5.80004L13.9735 70.1L52.074 70.1L52.7777 74.9"/>
	<path fill="#300604" d="M20.2064 13.4L40.6138 13.4L40.6138 18.1L20.2064 18.1L20.2064 13.4"/>
	<path fill="#300604" d="M20.2064 24.5L40.6138 24.5L40.6138 29.2L20.2064 29.2L20.2064 24.5"/>
</svg>
