<?xml version="1.0" encoding="utf-8" ?>
<svg xmlns="http://www.w3.org/2000/svg" xmlns:xlink="http://www.w3.org/1999/xlink" width="106" height="104">
	<path fill="white" d="M93.5988 50.3452L74.8991 50.3452C77.899 48.0386 79.899 44.4282 79.899 40.3163L79.899 12.5362C79.899 5.6162 74.2991 0 67.3992 0L39.6995 0C32.7996 0 27.1997 5.6162 27.1997 12.5362L27.1997 40.3163C27.1997 44.9296 29.6996 48.9412 33.3996 51.1475L12.4998 51.1475C5.59993 51.1475 0 56.7637 0 63.6837L0 91.4638C0 98.3838 5.59993 104 12.4998 104L40.1995 104C47.0994 104 52.6993 98.3838 52.6993 91.4638L52.6993 63.6837C52.6993 59.0704 50.1994 55.0588 46.4994 52.8525L58.2993 52.8525C55.2993 55.1591 53.2993 58.7695 53.2993 62.8814L53.2993 90.6615C53.2993 97.5815 58.8993 103.198 65.7992 103.198L93.4988 103.198C100.399 103.198 106 97.5815 106 90.6615L106 62.8814C106 55.9614 100.499 50.3452 93.5988 50.3452"/>
	<path fill="#F9BF5A" d="M40.0995 101.091L12.3999 101.091C7.19995 101.091 2.9 96.7791 2.9 91.564L2.9 63.7839C2.9 58.5688 7.19995 54.2564 12.3999 54.2564L40.0995 54.2564C45.2995 54.2564 49.5994 58.5688 49.5994 63.7839L49.5994 91.564C49.5994 96.8794 45.3995 101.091 40.0995 101.091"/>
	<path fill="#2D1B0A" d="M40.0995 102.094L12.3999 102.094C6.59994 102.094 1.9 97.3809 1.9 91.5641L1.9 63.784C1.9 57.9672 6.59994 53.2536 12.3999 53.2536L40.0995 53.2536C45.8995 53.2536 50.5994 57.9672 50.5994 63.784L50.5994 91.5641C50.5994 97.3809 45.8995 102.094 40.0995 102.094M12.3999 55.2594C7.69993 55.2594 3.89998 59.0704 3.89998 63.784L3.89998 91.5641C3.89998 96.2777 7.69993 100.089 12.3999 100.089L40.0995 100.089C44.7995 100.089 48.5994 96.2777 48.5994 91.5641L48.5994 63.784C48.5994 59.0704 44.7995 55.2594 40.0995 55.2594L12.3999 55.2594"/>
	<path fill="white" d="M34.5107 81.0337C34.5107 79.2285 33.7996 77.8244 32.4996 77.1224C33.1996 76.2198 33.6996 75.1166 33.6996 73.9132C33.6996 71.0048 31.5996 69.2999 27.6996 69.2999L22.5997 69.2999L22.5997 86.4493L28.0996 86.4493C32.1996 86.4493 34.6995 84.4436 34.5107 81.0337M27.3996 72.4088C30.3996 72.4088 30.5996 73.4117 30.5996 74.214C30.5996 74.7155 30.5996 76.0192 27.3996 76.0192L25.6997 76.0192L25.6997 72.3085L27.3996 72.3085M25.7997 83.541L25.7997 78.9276L27.7996 78.9276C31.4996 78.9276 31.4996 80.3316 31.4996 80.9334C31.4996 81.6355 31.4996 83.4407 27.7996 83.4407L25.7997 83.4407"/>
	<path fill="#F9BF5A" d="M67.2991 49.9439L39.5995 49.9439C34.3996 49.9439 30.0996 45.6315 30.0996 40.4164L30.0996 12.6363C30.0996 7.42124 34.3996 3.1088 39.5995 3.1088L67.2991 3.1088C72.4991 3.1088 76.799 7.42124 76.799 12.6363L76.799 40.4164C76.799 45.7318 72.5991 49.9439 67.2991 49.9439"/>
	<path fill="#2D1B0A" d="M67.2991 50.9469L39.5995 50.9469C33.7995 50.9469 29.0996 46.2333 29.0996 40.4165L29.0996 12.6364C29.0996 6.8196 33.7995 2.106 39.5995 2.106L67.2991 2.106C73.0991 2.106 77.799 6.8196 77.799 12.6364L77.799 40.4165C77.799 46.2333 73.0991 50.9469 67.2991 50.9469M39.5995 4.11179C34.8995 4.11179 31.0996 7.92278 31.0996 12.6364L31.0996 40.4165C31.0996 45.1301 34.8995 48.9411 39.5995 48.9411L67.2991 48.9411C71.9991 48.9411 75.799 45.1301 75.799 40.4165L75.799 12.6364C75.799 7.92278 71.9991 4.11179 67.2991 4.11179L39.5995 4.11179"/>
	<path fill="#F9BF5A" d="M93.5988 100.289L65.8992 100.289C60.6992 100.289 56.3993 95.9768 56.3993 90.7617L56.3993 62.9816C56.3993 57.7665 60.6992 53.4541 65.8992 53.4541L93.5988 53.4541C98.7988 53.4541 103.099 57.7665 103.099 62.9816L103.099 90.7617C103.099 96.0771 98.7988 100.289 93.5988 100.289"/>
	<path fill="#2D1B0A" d="M93.5988 101.292L65.8992 101.292C60.0992 101.292 55.3993 96.5786 55.3993 90.7618L55.3993 62.9817C55.3993 57.1649 60.0992 52.4513 65.8992 52.4513L93.5988 52.4513C99.3988 52.4513 104.099 57.1649 104.099 62.9817L104.099 90.7618C104.099 96.5786 99.3988 101.292 93.5988 101.292M65.7992 54.4571C61.0992 54.4571 57.2993 58.2681 57.2993 62.9817L57.2993 90.7618C57.2993 95.4754 61.0992 99.2864 65.7992 99.2864L93.4988 99.2864C98.1988 99.2864 101.999 95.4754 101.999 90.7618L101.999 62.9817C101.999 58.2681 98.1988 54.4571 93.4988 54.4571L65.7992 54.4571"/>
	<path fill="white" d="M84.799 79.7299C83.099 81.6354 82.299 82.1369 81.099 82.1369C78.599 82.1369 76.8991 80.1311 76.8991 76.4204C76.8991 72.7097 78.599 70.7039 81.299 70.7039C82.199 70.7039 83.099 71.2054 83.799 71.9074L86.4989 70.5034C84.599 68.3973 82.999 67.7955 81.099 67.7955C76.4991 67.7955 73.4991 71.2054 73.4991 76.621C73.4991 81.9363 76.4991 85.4464 80.899 85.4464C82.999 85.4464 84.599 84.7444 86.1989 83.1398L84.799 79.7299"/>
	<path fill="white" d="M54.3 18.8543L51.6 18.8543L45.6001 36.0038L48.8001 36.0038L50.6 30.889L55.2 30.889L56.9 36.0038L60.3999 36.0038L54.3 18.8543M51.8 27.8804L52.5 26.4763C52.7 25.4734 53 24.7714 53.2 24.1697C53.4 24.8717 53.7 25.8746 53.9 26.4763L54.4 27.8804L51.8 27.8804"/>
</svg>
