<?xml version="1.0" encoding="utf-8" ?>
<svg xmlns="http://www.w3.org/2000/svg" xmlns:xlink="http://www.w3.org/1999/xlink" width="106" height="114">
	<path fill="white" d="M84.2615 50.5443L84.2615 41.8367L89.6463 41.8367L89.6463 25.6225L75.9849 25.6225L75.9849 16.3143C75.9849 15.4135 75.5861 11.8104 72.1957 8.40737C68.3067 4.50395 60.0301 0 49.8589 0C38.3913 0 31.7103 5.20457 29.4167 7.4065C26.4252 10.209 25.3283 14.4126 25.2286 15.1133L25.2286 18.216L21.1402 18.216C19.1458 18.216 17.4506 19.2169 16.4534 20.8183C15.9548 18.216 13.6613 16.2142 10.969 16.2142C7.8777 16.2142 5.38476 18.7164 5.38476 21.8191L5.38476 28.6251C2.39323 28.7252 0 31.2274 0 34.23C0 37.2327 2.39323 39.7349 5.38476 39.8349L5.48448 108.095C5.48448 111.198 7.97742 113.7 11.0687 113.7L36.6961 113.7C39.7874 113.7 42.3801 111.198 42.3801 108.095C42.3801 104.992 39.8871 102.49 36.7959 102.49L16.8523 102.49L16.8523 94.583C18.8467 98.6866 23.0348 101.489 27.921 101.489C34.6021 101.489 40.0865 96.0843 40.1863 89.4785L40.1863 63.2555L45.3716 64.6567C42.3801 69.6611 40.7846 75.3661 40.7846 81.2713C40.7846 99.2871 55.4431 114 73.3923 114C91.3415 114 106 99.2871 106 81.2713C106 67.5593 97.1251 55.1484 84.2615 50.5443"/>
	<path fill="#E9F9FF" d="M27.9216 98.7867C22.836 98.7867 18.6479 94.6831 18.6479 89.6786L18.6479 24.1211C18.6479 22.7199 19.8445 21.5189 21.2405 21.5189L34.5029 21.5189C35.899 21.5189 37.0975 22.7199 37.0975 24.1211L37.0975 89.7788C37.1954 94.6831 33.1069 98.7867 27.9216 98.7867"/>
	<path fill="#2D1B0A" d="M27.9217 99.7874C22.2374 99.7874 17.65 95.2835 17.65 89.6786L17.65 24.1211C17.65 22.1193 19.2456 20.5179 21.2401 20.5179L34.5036 20.5179C36.4981 20.5179 38.0953 22.1193 38.0953 24.1211L38.0953 89.7787C38.1934 95.2835 33.6061 99.7874 27.9217 99.7874M21.3398 22.4196C20.4423 22.4196 19.7442 23.1202 19.7442 24.021L19.7442 89.5785C19.7442 94.0824 23.4341 97.6856 28.0214 97.6856C32.5091 97.6856 36.2986 94.0824 36.2986 89.6786L36.2986 24.021C36.2986 23.1202 35.6006 22.4196 34.703 22.4196L21.3398 22.4196"/>
	<path fill="#5CA7F2" d="M27.921 97.8859C23.334 97.8859 19.6444 94.1827 19.6444 89.5786L19.6444 61.0536C19.6444 59.7525 20.7413 58.6515 22.0376 58.6515L34.0038 58.6515C35.3001 58.6515 36.397 59.7525 36.397 61.0536L36.397 89.5786C36.1976 94.1827 32.508 97.8859 27.921 97.8859"/>
	<path fill="#281A10" d="M43.078 37.0325L5.78361 37.0325C4.38756 37.0325 3.19095 35.8314 3.19095 34.4302C3.19095 33.029 4.38756 31.8279 5.78361 31.8279L43.078 31.8279C44.4741 31.8279 45.6707 33.029 45.6707 34.4302C45.6707 35.9315 44.5738 37.0325 43.078 37.0325"/>
	<path fill="#2D1B0A" d="M43.078 38.0334L5.78354 38.0334C3.78918 38.0334 2.1937 36.432 2.1937 34.4302C2.1937 32.4284 3.78918 30.827 5.78354 30.827L43.078 30.827C45.0723 30.827 46.6678 32.4284 46.6678 34.4302C46.6678 36.432 45.0723 38.0334 43.078 38.0334M5.78354 32.8288C4.88608 32.8288 4.18806 33.5294 4.18806 34.4302C4.18806 35.331 4.88608 36.0316 5.78354 36.0316L43.078 36.0316C43.9754 36.0316 44.6735 35.331 44.6735 34.4302C44.6735 33.5294 43.9754 32.8288 43.078 32.8288L5.78354 32.8288"/>
	<path fill="#281A10" d="M36.8969 110.897L11.2695 110.897C9.8734 110.897 8.67679 109.696 8.67679 108.295L8.47735 22.0194C8.47735 20.6182 9.67396 19.4171 11.07 19.4171C12.4661 19.4171 13.6627 20.6182 13.6627 22.0194L13.8621 105.693L36.7971 105.693C38.1933 105.693 39.3957 106.894 39.3957 108.295C39.4895 109.796 38.2929 110.897 36.8969 110.897"/>
	<path fill="#2D1B0A" d="M36.8992 111.898L11.2685 111.898C9.27394 111.898 7.67826 110.297 7.67826 108.295L7.4788 22.0194C7.4788 20.0176 9.07448 18.4162 11.0691 18.4162C13.0637 18.4162 14.6594 20.0176 14.6594 22.0194L14.8588 104.692L36.7994 104.692C38.794 104.692 40.3942 106.293 40.3942 108.295C40.4895 110.297 38.8938 111.898 36.8992 111.898M11.0691 20.418C10.1715 20.418 9.4734 21.1186 9.4734 22.0194L9.67286 108.295C9.67286 109.196 10.371 109.896 11.2685 109.896L36.8992 109.896C37.7967 109.896 38.5946 109.196 38.5946 108.295C38.5946 107.394 37.8965 106.694 36.9989 106.694L13.0637 106.694L12.8642 22.0194C12.7645 21.1186 11.9667 20.418 11.0691 20.418"/>
	<path fill="#E9F9FF" d="M81.4694 52.8465L81.4694 38.9343L86.8542 38.9343L86.8542 28.7253L60.0301 28.7253L60.0301 38.9343L65.4149 38.9343L65.4149 52.8465C52.9501 56.3495 43.7761 67.8596 43.7761 81.4716C43.7761 97.886 57.0386 111.198 73.3939 111.198C89.746 111.198 103.012 97.886 103.012 81.4716C103.208 67.8596 94.0339 56.3495 81.4694 52.8465"/>
	<path fill="#2D1B0A" d="M73.6416 112.299C56.7395 112.299 42.9784 98.4865 42.9784 81.5716C42.9784 68.0598 51.8533 56.0493 64.6172 52.1458L64.6172 40.0352L59.2324 40.0352L59.2324 27.8245L88.0508 27.8245L88.0508 40.0352L82.6661 40.0352L82.6661 52.1458C95.43 56.0493 104.305 68.0598 104.305 81.5716C104.205 98.4865 90.4441 112.299 73.6416 112.299M61.127 37.9334L66.5118 37.9334L66.5118 53.5471C53.4488 57.1502 44.873 68.5602 44.873 81.4716C44.873 97.2854 57.7366 110.197 73.492 110.197C89.2474 110.197 102.111 97.2854 102.111 81.4716C102.111 68.5602 93.5353 57.2503 81.1703 53.7472L80.4723 37.9334L85.857 37.9334L85.857 29.7262L61.0273 29.7262L61.0273 37.9334"/>
	<path fill="#E63B56" d="M44.7733 83.3732C45.4714 96.0844 57.1384 110.297 73.5918 110.397C89.4469 110.497 102.111 96.6848 102.41 83.3732C102.41 81.6717 102.211 80.0703 101.912 78.5689L45.2719 78.5689C44.7733 80.0703 44.7733 81.6717 44.7733 83.3732"/>
	<path fill="#300604" d="M74.19 68.9605L72.1956 68.9605L72.1956 16.4145C72.1956 16.3144 71.9962 13.9123 69.5032 11.4101C66.1128 8.10717 58.9331 4.20374 49.9585 4.20374C39.6876 4.20374 33.8043 9.00796 32.2088 10.5093C30.3141 12.3109 29.4167 15.1133 29.317 15.7138L29.6161 57.3504L27.6218 57.3504L27.3226 15.5137C27.3226 15.0132 28.3198 11.31 30.9124 8.90787C32.6076 7.30647 38.9896 2.1019 50.0583 2.1019C59.6312 2.1019 67.3094 6.30559 70.999 9.90875C73.9905 12.8113 74.19 15.914 74.19 16.2143L74.19 68.9605"/>
</svg>
