<?xml version="1.0" encoding="utf-8" ?>
<svg xmlns="http://www.w3.org/2000/svg" xmlns:xlink="http://www.w3.org/1999/xlink" width="92" height="86">
	<path fill="white" d="M38.7421 5.23041C33.6366 1.91111 27.8303 0 22.9249 0C20.1219 0 18.1197 0.704094 16.3177 1.40819C12.5136 3.72164 10.7116 7.24211 10.7116 11.6678C10.9119 27.2585 7.50816 36.5123 4.70511 43.9556C2.50272 49.6889 0 56.1263 0 64.676C0 71.5158 1.80196 76.9474 5.20566 80.3673C10.8118 86 19.2209 86 26.0283 86L31.9347 86C46.6507 86 56.161 71.5158 58.2633 46.1684C59.4646 29.1696 52.1567 13.8807 38.7421 5.23041"/>
	<path fill="white" d="M73.9804 49.7893C64.0696 49.7893 55.9608 57.9367 55.9608 67.8947C55.9608 78.0536 63.8694 85.9998 73.9804 85.9998C83.8912 85.9998 92 77.8525 92 67.8947C92 57.9367 83.8912 49.7893 73.9804 49.7893"/>
	<path fill="#7DD8DB" d="M22.9224 2.76605C27.227 2.76605 32.4327 4.47599 37.1378 7.49354C49.7515 15.6409 56.3587 29.924 55.1574 45.7157C53.2553 69.1521 44.7461 82.7309 31.832 82.7309L28.7287 82.7309C27.8277 82.7309 26.8266 82.7309 25.9256 82.7309C18.5176 82.7309 11.7102 82.5298 7.20528 78.0034C4.40223 75.1871 2.9006 70.5602 2.9006 64.4246C2.9006 56.78 5.00289 51.0467 7.4055 44.8104C10.5089 36.4619 13.8125 27.1075 13.6122 11.4163C13.6122 9.00231 14.313 5.88418 17.4164 3.97307C19.1182 3.26897 20.72 2.76605 22.9224 2.76605"/>
	<path fill="#2D1B0A" d="M31.8345 83.7871L25.9281 83.7871C17.7192 83.7871 11.112 83.3848 6.50701 78.7579C3.50374 75.7403 1.902 70.8117 1.902 64.4748C1.902 56.931 3.80407 51.3988 6.50701 44.4584C9.31005 36.814 12.8139 27.359 12.6136 11.4666C12.6136 8.85142 13.3144 5.33095 16.9183 3.11809C18.9205 2.21282 20.6223 1.7099 22.9249 1.7099C27.4297 1.7099 32.8356 3.52043 37.6408 6.63855C50.4548 14.8865 57.3623 29.5719 56.161 45.766C54.1588 70.007 45.3492 83.7871 31.8345 83.7871M17.8193 4.92861C15.6169 6.3368 14.5157 8.44908 14.5157 11.4666C14.7159 27.7614 11.112 37.4175 8.20886 45.1625C5.60603 51.9017 3.80407 57.2327 3.80407 64.4748C3.80407 70.2081 5.20559 74.7345 7.80842 77.3497C11.9129 81.4736 18.1196 81.7754 25.828 81.7754L31.7344 81.7754C44.0478 81.7754 52.1566 68.5988 54.0587 45.6655C55.26 30.1754 48.6528 16.1941 36.5396 8.3485C32.0348 5.43154 27.0293 3.82218 22.8247 3.82218C20.9227 3.82218 19.5212 4.3251 17.8193 4.92861"/>
	<path fill="white" d="M35.4385 46.1684C35.4385 49.6126 32.6597 52.4047 29.2318 52.4047C25.8039 52.4047 23.025 49.6126 23.025 46.1684C23.025 42.7242 25.8039 39.9322 29.2318 39.9322C32.6597 39.9322 35.4385 42.7242 35.4385 46.1684"/>
	<path fill="white" d="M15.2166 56.4281C15.2166 58.8168 14.2754 60.7532 13.1143 60.7532C11.9532 60.7532 11.012 58.8168 11.012 56.4281C11.012 54.0394 11.9532 52.103 13.1143 52.103C14.2754 52.103 15.2166 54.0394 15.2166 56.4281"/>
	<path fill="white" d="M43.9478 61.1556C43.9478 62.1 43.5444 62.8655 43.0468 62.8655C42.5492 62.8655 42.1458 62.1 42.1458 61.1556C42.1458 60.2112 42.5492 59.4457 43.0468 59.4457C43.5444 59.4457 43.9478 60.2112 43.9478 61.1556"/>
	<path fill="white" d="M43.9477 36.814C43.9477 38.8138 43.3202 40.4351 42.5462 40.4351C41.7722 40.4351 41.1447 38.8138 41.1447 36.814C41.1447 34.8141 41.7722 33.1929 42.5462 33.1929C43.3202 33.1929 43.9477 34.8141 43.9477 36.814"/>
	<path fill="white" d="M26.6289 24.945C26.6289 26.9448 26.0014 28.5661 25.2274 28.5661C24.4534 28.5661 23.8259 26.9448 23.8259 24.945C23.8259 22.9451 24.4534 21.3239 25.2274 21.3239C26.0014 21.3239 26.6289 22.9451 26.6289 24.945"/>
	<path fill="white" d="M18.8205 74.5333C18.8205 75.5888 17.9689 76.4444 16.9184 76.4444C15.8679 76.4444 15.0163 75.5888 15.0163 74.5333C15.0163 73.4778 15.8679 72.6222 16.9184 72.6222C17.9689 72.6222 18.8205 73.4778 18.8205 74.5333"/>
	<path fill="#3AA7F9" d="M73.9804 52.606C82.2895 52.606 88.9967 59.2446 88.9967 67.6936C88.9967 76.0423 82.3896 82.7814 73.9804 82.7814C65.5713 82.7814 58.9641 76.1428 58.9641 67.6936C58.9641 59.2446 65.6714 52.606 73.9804 52.606"/>
	<path fill="#2D1B0A" d="M73.9804 83.7872C64.9706 83.7872 57.963 76.7463 57.963 67.6937C57.963 58.641 64.9706 51.6001 73.9804 51.6001C82.9902 51.6001 89.9978 58.641 89.9978 67.6937C89.9978 76.7463 82.8901 83.7872 73.9804 83.7872M73.9804 53.6118C66.0718 53.6118 59.9652 59.7475 59.9652 67.6937C59.9652 75.6399 66.0718 81.7755 73.9804 81.7755C81.889 81.7755 87.9956 75.6399 87.9956 67.6937C87.9956 59.7475 81.7889 53.6118 73.9804 53.6118"/>
	<path fill="white" d="M78.4853 69.8059C78.4853 71.6391 77.0063 73.1252 75.1817 73.1252C73.3572 73.1252 71.8782 71.6391 71.8782 69.8059C71.8782 67.9727 73.3572 66.4866 75.1817 66.4866C77.0063 66.4866 78.4853 67.9727 78.4853 69.8059"/>
	<path fill="white" d="M68.4745 73.1251C68.4745 74.2917 68.0711 75.2374 67.5735 75.2374C67.0759 75.2374 66.6725 74.2917 66.6725 73.1251C66.6725 71.9585 67.0759 71.0128 67.5735 71.0128C68.0711 71.0128 68.4745 71.9585 68.4745 73.1251"/>
	<path fill="white" d="M73.1796 59.9485C73.1796 60.8929 72.7762 61.6585 72.2786 61.6585C71.781 61.6585 71.3776 60.8929 71.3776 59.9485C71.3776 59.0042 71.781 58.2386 72.2786 58.2386C72.7762 58.2386 73.1796 59.0042 73.1796 59.9485"/>
	<path fill="white" d="M84.1915 70.3088C84.1915 72.3086 83.564 73.9299 82.79 73.9299C82.016 73.9299 81.3885 72.3086 81.3885 70.3088C81.3885 68.3089 82.016 66.6877 82.79 66.6877C83.564 66.6877 84.1915 68.3089 84.1915 70.3088"/>
</svg>
