<?xml version="1.0" encoding="utf-8" ?>
<svg xmlns="http://www.w3.org/2000/svg" xmlns:xlink="http://www.w3.org/1999/xlink" width="94" height="96">
	<path fill="white" d="M94 37.812L94 10.9483C94 4.96727 89.2203 0 83.2458 0L56.8581 0C52.5763 0 48.7924 2.63569 47.0996 6.38648C45.3072 2.93981 41.7225 0.608237 37.6398 0.608237L11.2521 0.608237C5.37712 0.608237 0.497881 5.47413 0.497881 11.5565L0.497881 38.4203C0.497881 42.6779 2.98729 46.4287 6.47246 48.1521C2.68856 49.8754 0 53.7276 0 58.188L0 85.0517C0 91.0327 4.77966 96 10.7542 96L37.1419 96C41.4237 96 45.2076 93.3643 46.9004 89.6135C48.6928 93.0602 52.2775 95.3918 56.3602 95.3918L82.7479 95.3918C88.6229 95.3918 93.5021 90.5259 93.5021 84.4435L93.5021 57.5797C93.5021 53.3221 91.0127 49.5713 87.5275 47.8479C91.3114 46.1246 94 42.2724 94 37.812M46.7013 53.018C45.6059 50.9905 44.0127 49.4699 42.0212 48.4562C44.5106 47.3411 46.4025 45.415 47.4979 42.982C48.5932 45.0095 50.1864 46.5301 52.178 47.5438C49.7881 48.6589 47.7966 50.585 46.7013 53.018"/>
	<path fill="#7DD8DB" d="M82.6483 92.452L56.2606 92.452C51.9788 92.452 48.4936 88.9039 48.4936 84.545L48.4936 57.6811C48.4936 53.3221 51.9788 49.774 56.2606 49.774L82.6483 49.774C86.9301 49.774 90.4153 53.3221 90.4153 57.6811L90.4153 84.545C90.4153 88.9039 86.9301 92.452 82.6483 92.452"/>
	<path fill="#2D1B0A" d="M82.6483 93.4657L56.2606 93.4657C51.4809 93.4657 47.4979 89.5121 47.4979 84.5449L47.4979 57.6811C47.4979 52.8152 51.3814 48.7603 56.2606 48.7603L82.6483 48.7603C87.428 48.7603 91.411 52.7138 91.411 57.6811L91.411 84.5449C91.411 89.5121 87.428 93.4657 82.6483 93.4657M56.2606 50.8891C52.5763 50.8891 49.4894 53.9303 49.4894 57.7825L49.4894 84.6463C49.4894 88.397 52.4767 91.5396 56.2606 91.5396L82.6483 91.5396C86.3326 91.5396 89.4195 88.4984 89.4195 84.6463L89.4195 57.7825C89.4195 54.0317 86.4322 50.8891 82.6483 50.8891L56.2606 50.8891"/>
	<path fill="#F9BF5A" d="M37.6399 46.53L11.2521 46.53C6.97032 46.53 3.48515 42.9821 3.48515 38.6231L3.48515 11.7592C3.48515 7.4002 6.97032 3.85215 11.2521 3.85215L37.6399 3.85215C41.9216 3.85215 45.4067 7.4002 45.4067 11.7592L45.4067 38.6231C45.3071 42.9821 41.822 46.53 37.6399 46.53"/>
	<path fill="#2D1B0A" d="M37.6398 47.5438L11.2521 47.5438C6.47245 47.5438 2.4894 43.5902 2.4894 38.623L2.4894 11.7592C2.4894 6.89331 6.37287 2.8384 11.2521 2.8384L37.6398 2.8384C42.4195 2.8384 46.4025 6.79194 46.4025 11.7592L46.4025 38.623C46.303 43.4889 42.4195 47.5438 37.6398 47.5438M11.2521 4.96723C7.56779 4.96723 4.48093 8.00841 4.48093 11.8606L4.48093 38.7244C4.48093 42.4751 7.46821 45.6177 11.2521 45.6177L37.6398 45.6177C41.3241 45.6177 44.411 42.5765 44.411 38.7244L44.411 11.8606C44.411 8.10978 41.4237 4.96723 37.6398 4.96723L11.2521 4.96723"/>
	<path fill="#F47A62" d="M83.1461 45.8204L56.7584 45.8204C52.4766 45.8204 48.9915 42.2725 48.9915 37.9135L48.9915 11.0496C48.9915 6.6906 52.4766 3.14255 56.7584 3.14255L83.1461 3.14255C87.4279 3.14255 90.9131 6.6906 90.9131 11.0496L90.9131 37.9135C90.9131 42.2725 87.4279 45.8204 83.1461 45.8204"/>
	<path fill="#2D1B0A" d="M83.1461 46.8342L56.7584 46.8342C51.9788 46.8342 47.9957 42.8806 47.9957 37.9134L47.9957 11.0496C47.9957 6.18371 51.8792 2.1288 56.7584 2.1288L83.1461 2.1288C87.9258 2.1288 91.9088 6.08234 91.9088 11.0496L91.9088 37.9134C91.9088 42.8806 87.9258 46.8342 83.1461 46.8342M56.7584 4.25763C53.0741 4.25763 49.9872 7.29881 49.9872 11.151L49.9872 38.0148C49.9872 41.7655 52.9745 44.9081 56.7584 44.9081L83.1461 44.9081C86.8304 44.9081 89.9173 41.8669 89.9173 38.0148L89.9173 11.151C89.9173 7.40018 86.93 4.25763 83.1461 4.25763L56.7584 4.25763"/>
	<path fill="white" d="M61.4385 21.2883L79.3623 21.2883L79.3623 27.0665L61.4385 27.0665L61.4385 21.2883"/>
	<path fill="white" d="M61.2394 67.6157L79.1631 67.6157L79.1631 73.3939L61.2394 73.3939L61.2394 67.6157"/>
	<path fill="white" d="M33.7564 21.7952L27.6823 21.7952L27.6823 15.6115L22.0064 15.6115L22.0064 21.7952L15.8327 21.7952L15.8327 27.5735L22.0064 27.5735L22.0064 33.8586L27.6823 33.8586L27.6823 27.5735L33.7564 27.5735"/>
	<path fill="white" d="M72.6906 62.7497C72.6906 64.3173 71.4423 65.5881 69.9025 65.5881C68.3627 65.5881 67.1144 64.3173 67.1144 62.7497C67.1144 61.1821 68.3627 59.9113 69.9025 59.9113C71.4423 59.9113 72.6906 61.1821 72.6906 62.7497"/>
	<path fill="white" d="M72.6906 78.6653C72.6906 80.2329 71.4423 81.5037 69.9025 81.5037C68.3627 81.5037 67.1144 80.2329 67.1144 78.6653C67.1144 77.0977 68.3627 75.8269 69.9025 75.8269C71.4423 75.8269 72.6906 77.0977 72.6906 78.6653"/>
	<path fill="#3AA7F9" d="M37.142 93.1615L10.7542 93.1615C6.47242 93.1615 2.98725 89.6135 2.98725 85.2545L2.98725 58.3907C2.98725 54.0317 6.47242 50.4836 10.7542 50.4836L37.142 50.4836C41.4237 50.4836 44.9089 54.0317 44.9089 58.3907L44.9089 85.2545C44.8092 89.6135 41.3242 93.1615 37.142 93.1615"/>
	<path fill="#2D1B0A" d="M37.1419 94.1753L10.7542 94.1753C5.97455 94.1753 1.9915 90.2217 1.9915 85.2545L1.9915 58.3907C1.9915 53.5248 5.87497 49.4699 10.7542 49.4699L37.1419 49.4699C41.9216 49.4699 45.9046 53.4234 45.9046 58.3907L45.9046 85.2545C45.8051 90.1204 41.9216 94.1753 37.1419 94.1753M10.7542 51.5987C7.06989 51.5987 3.98303 54.6399 3.98303 58.4921L3.98303 85.3559C3.98303 89.1066 6.97031 92.2492 10.7542 92.2492L37.1419 92.2492C40.8262 92.2492 43.9131 89.208 43.9131 85.3559L43.9131 58.4921C43.9131 54.7413 40.9258 51.5987 37.1419 51.5987L10.7542 51.5987"/>
	<path fill="white" d="M31.1674 75.4212L26.7859 71.5691L30.8686 66.8046L26.6865 62.9524L22.5042 67.717L17.7246 63.3579L13.9406 67.717L18.8199 72.076L14.8368 76.7392L19.019 80.49L23.1017 75.9281L27.3834 79.7803"/>
</svg>
