<?xml version="1.0" encoding="utf-8" ?>
<svg xmlns="http://www.w3.org/2000/svg" xmlns:xlink="http://www.w3.org/1999/xlink" width="88" height="84">
	<path fill="white" d="M88 0.0997625L59.1655 0.0997625L59.0658 21.2494L58.966 39.0071C58.966 47.1876 52.5805 53.9715 44.3991 54.5701C35.619 54.2708 29.034 47.3872 29.034 39.0071L29.034 27.2352L29.034 0L0.199546 0L0 21.2494L0 39.3064C0 62.4513 18.059 81.905 40.907 83.8005L44 83.9002C68.2449 83.5012 87.9002 63.4489 87.9002 39.2067L87.9002 27.2352L88 0.0997625"/>
	<path fill="#3AA7F9" d="M84.6076 2.99295L84.6076 24.1425L61.7595 24.1425L61.7595 2.99295"/>
	<path fill="#2D1B0A" d="M85.6054 25.1403L60.6621 25.1403L60.6621 1.8956L85.6054 1.8956L85.6054 25.1403M62.7573 23.145L83.7097 23.145L83.7097 3.89085L62.8571 3.89085L62.7573 23.145"/>
	<path fill="#F47A62" d="M25.7414 2.79345L25.7414 24.0428L2.8933 24.0428L2.8933 2.79345"/>
	<path fill="#2D1B0A" d="M26.7392 25.0406L1.7959 25.0406L1.7959 1.7959L26.7392 1.7959L26.7392 25.0406M3.89114 23.0453L24.8435 23.0453L24.8435 3.79115L3.99091 3.79115L3.89114 23.0453"/>
	<path fill="#F47A62" d="M43.7008 57.3635C33.7234 56.9644 25.7416 48.7839 25.7416 38.8076L25.7416 24.0428L2.69395 24.0428L2.69395 39.1068C2.69395 61.8528 20.9524 80.4086 43.601 80.8076L43.601 57.3635"/>
	<path fill="#2D1B0A" d="M44.6984 81.8053C20.5533 81.4062 1.7959 62.2519 1.7959 39.107L1.7959 23.0452L26.839 23.0452L26.839 38.8077C26.839 48.2851 34.322 55.9668 43.8004 56.3659L44.7982 81.8053M3.79136 25.0405L3.69159 39.107C3.69159 60.7554 21.0521 78.8124 42.6032 79.7103L42.6032 58.2614C32.4263 57.3635 24.644 48.9834 24.644 38.7079L24.644 24.9407L3.79136 24.9407"/>
	<path fill="#3AA7F9" d="M43.7006 57.3636C53.678 56.9645 61.6599 48.784 61.6599 38.8077L61.6599 24.0429L84.6077 24.0429L84.7075 39.1069C84.7075 61.8529 66.449 80.4086 43.7006 80.8076L43.7006 57.3636"/>
	<path fill="#2D1B0A" d="M42.7029 81.8053L42.7029 56.4657C53.2789 56.0666 60.6621 48.3849 60.6621 38.9075L60.6621 23.145L85.6054 23.145L85.7052 39.2068C85.7052 62.3517 66.9478 81.506 43.8004 81.9051L42.7029 81.8053M44.6984 58.3612L44.6984 79.8101C66.2494 78.9122 83.6099 60.8552 83.6099 39.2068L83.5102 25.1403L62.5578 25.1403L62.5578 38.9075C62.6575 49.0832 54.7755 57.4633 44.6984 58.3612"/>
	<path fill="white" d="M15.7143 12.3705C15.7143 12.5701 15.7143 12.8694 15.7143 13.1686L12.8209 8.18051L11.5238 8.18051L11.5238 15.8622L12.9206 15.8622L12.9206 11.6722C12.9206 11.4727 12.9206 11.1734 12.9206 10.8741L15.814 15.8622L17.1111 15.8622L17.1111 8.18051L15.7143 8.18051L15.7143 12.3705"/>
	<path fill="white" d="M75.8776 12.7696C75.5782 12.4703 75.1791 12.171 74.5805 11.9715L73.0839 11.2732C72.9841 11.1734 72.7846 11.0736 72.6848 11.0736C72.4853 10.8741 72.3855 10.6746 72.3855 10.4751C72.3855 10.076 72.4853 9.57719 73.5828 9.57719C74.1814 9.57719 74.6803 9.77672 75.1791 10.2755L76.2767 9.47743C75.3787 8.57957 74.5805 8.18052 73.5828 8.18052C72.7846 8.18052 72.186 8.38004 71.6871 8.77909C71.1882 9.17815 70.8889 9.77672 70.8889 10.4751C70.8889 11.0736 71.0884 11.5724 71.4875 11.9715C71.6871 12.171 71.8866 12.2708 72.0862 12.4703C72.2857 12.5701 72.4853 12.6698 72.6848 12.7696L73.7823 13.2684C73.9819 13.3682 74.1814 13.4679 74.2812 13.4679C74.4807 13.5677 74.5805 13.6675 74.6803 13.6675C74.8798 13.867 74.9796 14.0665 74.9796 14.3658C74.9796 14.8646 74.7801 15.3634 73.5828 15.3634C72.7846 15.3634 72.186 15.0641 71.6871 14.4656L70.4898 15.2637C71.4875 16.2613 72.4853 16.7601 73.5828 16.7601C74.4807 16.7601 75.1791 16.5606 75.678 16.0618C76.1769 15.5629 76.4762 14.9644 76.4762 14.266C76.3764 13.7672 76.2767 13.2684 75.8776 12.7696"/>
</svg>
