<?xml version="1.0" encoding="utf-8" ?>
<svg xmlns="http://www.w3.org/2000/svg" xmlns:xlink="http://www.w3.org/1999/xlink" width="92" height="92">
	<path fill="white" d="M38.2574 91.8988C37.8526 91.8988 37.3465 91.8988 36.9417 91.7976L13.1573 91.7976C9.71617 91.7976 6.78108 88.9637 6.78108 85.4213L6.78108 63.7624L0 63.7624L11.2343 41.1925L14.9791 41.1925L14.9791 30.7679L7.38834 30.7679L27.934 0L64.066 0L84.6117 30.7679L77.0209 30.7679L77.0209 41.1925L80.7657 41.1925L92 63.7624L85.2189 63.7624L85.2189 85.5226C85.2189 88.9637 82.385 91.8988 78.8427 91.8988L55.868 91.8988C55.4631 92 54.9571 92 54.5523 92L38.2574 92"/>
	<path fill="#DD8F1D" d="M79.0957 88.8624L13.3091 88.8624C11.4874 88.8624 9.9692 87.3443 9.9692 85.5225L9.9692 60.8272C9.9692 59.0055 11.4874 57.4873 13.3091 57.4873L79.0957 57.4873C80.9175 57.4873 82.4356 59.0055 82.4356 60.8272L82.4356 85.5225C82.4356 87.3443 80.9175 88.8624 79.0957 88.8624"/>
	<path fill="#2D1B0A" d="M79.0957 89.8745L13.3091 89.8745C10.9813 89.8745 8.9571 87.9515 8.9571 85.5225L8.9571 60.8272C8.9571 58.4994 10.8801 56.4752 13.3091 56.4752L79.0957 56.4752C81.4235 56.4752 83.4477 58.3982 83.4477 60.8272L83.4477 85.5225C83.4477 87.9515 81.5248 89.8745 79.0957 89.8745M13.3091 58.6006C12.0946 58.6006 10.9813 59.6127 10.9813 60.9285L10.9813 85.5225C10.9813 86.737 11.9934 87.8503 13.3091 87.8503L79.0957 87.8503C80.3102 87.8503 81.4235 86.8382 81.4235 85.5225L81.4235 60.8272C81.4235 59.6127 80.4114 58.4994 79.0957 58.4994L13.3091 58.4994"/>
	<path fill="#DD8F1D" d="M70.8977 47.6698L21.5071 47.6698C19.6854 47.6698 18.1672 46.1517 18.1672 44.3299L18.1672 27.8326C18.1672 26.0109 19.6854 24.4927 21.5071 24.4927L70.8977 24.4927C72.7195 24.4927 74.2376 26.0109 74.2376 27.8326L74.2376 44.3299C74.1364 46.2529 72.7195 47.6698 70.8977 47.6698"/>
	<path fill="#2D1B0A" d="M70.8977 48.6819L21.5071 48.6819C19.1793 48.6819 17.1551 46.7589 17.1551 44.3299L17.1551 27.8326C17.1551 25.5048 19.0781 23.4806 21.5071 23.4806L70.8977 23.4806C73.2255 23.4806 75.2497 25.4036 75.2497 27.8326L75.2497 44.3299C75.1485 46.7589 73.2255 48.6819 70.8977 48.6819M21.5071 25.7072C20.2926 25.7072 19.1793 26.7193 19.1793 28.0351L19.1793 44.5323C19.1793 45.7468 20.1914 46.8601 21.5071 46.8601L70.8977 46.8601C72.1122 46.8601 73.2255 45.848 73.2255 44.5323L73.2255 28.0351C73.2255 26.8205 72.2134 25.7072 70.8977 25.7072L21.5071 25.7072"/>
	<path fill="#F9BF5A" d="M62.6996 3.2388L54.5016 3.2388L38.0044 3.2388L29.8063 3.2388L13.3091 27.9341L79.0957 27.9341L62.6996 3.2388"/>
	<path fill="#2D1B0A" d="M81.0187 28.9462L11.3861 28.9462L29.1991 2.2267L63.2057 2.2267L81.0187 28.9462M15.2321 26.922L77.2739 26.922L62.1936 4.2509L30.4136 4.2509L15.2321 26.922"/>
	<path fill="#F9BF5A" d="M87.2431 60.8272L4.9593 60.8272L13.1573 44.33L78.9439 44.33L87.2431 60.8272"/>
	<path fill="#2D1B0A" d="M88.9637 61.8394L3.4411 61.8394L12.6512 43.3179L79.7535 43.3179L88.9637 61.8394M6.67982 59.8151L85.6237 59.8151L78.4378 45.3421L13.8657 45.3421L6.67982 59.8151"/>
	<path fill="#E9F9FF" d="M54.756 88.9635L38.2587 88.9635C36.437 88.9635 34.9188 87.5466 34.9188 85.9272L34.9188 78.2353C34.9188 72.2639 40.0805 67.507 46.4591 67.507C52.833 67.507 57.9995 72.3651 57.9995 78.2353L57.9995 85.9272C58.0959 87.5466 56.5778 88.9635 54.756 88.9635"/>
	<path fill="#2D1B0A" d="M54.7577 89.9756L38.2581 89.9756C35.93 89.9756 33.9055 88.1539 33.9055 85.9272L33.9055 78.2353C33.9055 71.7578 39.5741 66.4949 46.4592 66.4949C53.3406 66.4949 59.013 71.7578 59.013 78.2353L59.013 85.9272C59.1104 88.1539 57.1871 89.9756 54.7577 89.9756M46.5586 68.4179C40.7888 68.4179 36.0312 72.7699 36.0312 78.1341L36.0312 85.826C36.0312 86.9393 37.0435 87.8502 38.3594 87.8502L54.859 87.8502C56.0736 87.8502 57.1871 86.9393 57.1871 85.826L57.1871 78.1341C57.0859 72.8711 52.3283 68.4179 46.5586 68.4179"/>
</svg>
