<?xml version="1.0" encoding="utf-8" ?>
<svg xmlns="http://www.w3.org/2000/svg" xmlns:xlink="http://www.w3.org/1999/xlink" width="96" height="96">
	<path fill="white" d="M48 96C46.0881 96 42.4654 95.6978 42.0629 95.5971L39.6478 95.1941C16.7044 91.1647 0 71.32 0 48C0 26.0902 14.6918 7.05142 35.8239 1.51102C39.7484 0.503673 43.8742 0 48 0C50.2138 0 52.4277 0.201469 54.7421 0.503673C66.1132 2.11542 76.478 7.75656 84.1258 16.4197C91.7736 25.1836 96 36.3652 96 48C96 74.4428 74.4654 96 48 96"/>
	<path fill="#89C5E5" d="M92.8304 47.7129C92.8304 72.5942 72.7046 92.6404 47.8491 92.6404C46.0378 92.6404 44.1259 92.5397 42.3145 92.3382L40.1007 92.036C18.9686 88.3088 2.86805 69.8745 2.86805 47.7129C2.86805 26.8608 17.1574 9.23226 36.3774 4.19553C40.0001 3.28892 43.8241 2.78525 47.7486 2.78525C49.8617 2.78525 51.9749 2.98672 53.9875 3.18819C76.0253 6.21022 92.8304 25.0476 92.8304 47.7129"/>
	<path fill="#2D1B0A" d="M47.8491 93.6831C45.9875 93.6831 44.0755 93.5824 42.2642 93.3809L39.9497 93.0787C17.912 89.2511 1.912 70.2135 1.912 47.7129C1.912 26.7997 16.0001 8.56789 36.2265 3.2293C41.9623 1.7426 48.0001 1.31547 54.239 2.22202C76.7799 5.34459 93.7862 24.9866 93.7862 47.7129C93.7862 73.0339 73.1573 93.6831 47.8491 93.6831M47.8491 3.63221C44.0755 3.63221 40.3523 4.13585 36.7296 5.0424C17.4089 10.0788 3.92458 27.6055 3.92458 47.5497C3.92458 69.0047 19.2202 87.2365 40.2516 90.8627L42.4655 91.1649C44.1762 91.3664 45.9875 91.4671 47.8491 91.4671C72.0504 91.4671 91.7736 71.7244 91.7736 47.5497C91.7736 25.7924 75.5724 7.05697 53.9372 4.03512C51.9246 3.83367 49.912 3.63221 47.8491 3.63221"/>
	<path fill="#99CC62" d="M83.1548 20.6506C82.9536 20.852 82.7523 20.9528 82.7523 20.9528L81.746 21.6579C78.4253 23.9748 74.0982 24.277 70.4756 22.4638C65.1423 19.7439 58.702 22.4638 56.7901 28.1049C54.8781 33.8468 58.6014 39.8909 64.5385 40.7975C68.2618 41.4019 71.2806 44.1217 72.3876 47.7482C73.1926 50.4679 73.5951 53.3893 73.5951 56.2099C73.5951 62.5562 78.7272 67.6936 85.0668 67.6936L87.2806 67.6936C91.1045 62.0525 92.8152 55.3032 92.8152 48.2519C92.8152 37.8762 89.1926 28.2056 83.1548 20.6506"/>
	<path fill="#2D1B0A" d="M88.656 69.3053L87.1471 68.7009L85.0347 68.7009C78.0938 68.7009 72.5612 63.0598 72.5612 56.2098C72.5612 53.3893 72.1588 50.6694 71.4547 48.0503C70.5493 44.8268 67.7327 42.3085 64.4132 41.8048C61.2948 41.3011 58.5788 39.4879 56.8688 36.7681C55.3144 34.0482 54.8569 30.724 55.8628 27.8027C56.8688 24.7807 59.0818 22.4638 61.999 21.255C64.9162 20.0461 68.1351 20.1469 70.9517 21.6579C74.2713 23.2696 78.0938 23.0682 81.1116 20.9527L82.1175 20.2476C82.1175 20.2476 82.3187 20.1469 82.5199 19.9454L83.9282 20.1469C90.3661 28.3064 93.7862 38.0776 93.7862 48.4533C93.7862 55.5047 92.1767 62.3546 89.0584 68.6002M66.1233 22.363C65.0167 22.363 63.9102 22.5645 62.8037 23.0682C60.4901 24.0755 58.5788 25.9895 57.7741 28.4071C56.9693 30.8247 57.2711 33.5446 58.5788 35.7607C59.8865 37.9769 62.0996 39.4879 64.715 39.8908C68.8393 40.4952 72.1588 43.5173 73.3659 47.5467C74.1707 50.3672 74.5503 53.2885 74.5503 56.3106C74.5503 62.1532 79.3009 66.787 85.0347 66.787L87.4489 66.787C90.3661 61.0451 91.7744 54.9003 91.7744 48.4533C91.7744 38.7828 88.7566 29.7167 82.9222 22.1616C78.6973 25.0829 73.9695 25.4858 70.0464 23.4711C68.8393 22.6652 67.431 22.363 66.1233 22.363"/>
	<path fill="#99CC62" d="M6.1382 32.6378L6.8426 35.5591C7.54701 38.8833 10.5659 41.301 13.9873 41.301L29.0816 46.4384L25.8615 37.6745C25.3583 36.365 25.1571 35.0554 25.1571 33.7459C25.1571 29.4143 27.5722 25.4856 31.3961 23.5717L33.2074 22.6651C41.0564 18.6357 46.6917 11.4835 48.8049 2.9205C48.2011 2.9205 47.4967 2.9205 46.8929 2.9205C27.874 2.9205 11.6728 15.3115 6.1382 32.6378"/>
	<path fill="#2D1B0A" d="M30.7923 48.0502L13.786 42.3084C9.96209 42.2076 6.64133 39.5885 5.8363 35.8614L5.1319 32.6379C11.069 14.1027 27.7734 1.8131 46.8929 1.8131C47.4967 1.8131 48.2011 1.8131 48.8049 1.8131L50.0124 1.91384L49.7105 3.12265C47.5973 11.9873 41.7608 19.4416 33.6099 23.5718L31.7986 24.4784C28.2766 26.2916 26.1633 29.8173 26.1633 33.7459C26.1633 34.9548 26.3646 36.1636 26.7671 37.3724L30.7923 48.0502M7.24511 32.6379L7.84888 35.3577C8.45265 38.279 11.069 40.2937 13.9872 40.2937L27.4715 44.8267L24.9558 38.0775C24.4527 36.6672 24.1508 35.257 24.1508 33.7459C24.1508 29.1122 26.7671 24.7806 30.8929 22.6651L32.7042 21.7585C39.9495 18.1321 45.1822 11.5843 47.3961 3.82779C29.1822 3.52559 12.8803 15.2108 7.24511 32.6379"/>
	<path fill="#99CC62" d="M27.9748 57.3904C25.3584 60.8153 25.9622 65.6506 29.3836 68.3705L33.9119 72.0975L33.9119 78.1416L36.2263 84.6895L36.2263 88.2151C36.2263 88.8195 36.9307 89.1217 37.3333 88.7188L44.176 82.0704C46.088 80.257 47.2955 77.8394 47.1949 75.2204C47.0942 74.0116 48.1005 72.9035 49.4088 72.9035C50.6162 72.9035 51.6226 71.8961 51.6226 70.6873L51.6226 63.233C51.6226 62.4271 51.1194 61.6212 50.3144 61.2183L42.1635 57.4911L38.8427 55.3757C35.22 53.1595 30.4905 53.9654 27.9748 57.3904"/>
	<path fill="#2D1B0A" d="M36.7295 89.8552C36.5283 89.8552 36.327 89.8552 36.1258 89.7545C35.522 89.4523 35.1195 88.8478 35.1195 88.2434L35.1195 84.9192L32.805 78.3715L32.805 72.6296L28.6792 69.2046C24.9559 66.1826 24.2515 60.7429 27.1698 56.8143C29.9874 52.9864 35.3207 52.0797 39.3459 54.5981L42.566 56.7135L50.6163 60.4407C51.7232 60.9444 52.4276 62.0525 52.4276 63.362L52.4276 70.8164C52.4276 72.5289 51.0188 74.0399 49.2075 74.0399C48.9056 74.0399 48.6037 74.1406 48.4025 74.4428C48.2012 74.6443 48.1006 74.9465 48.1006 75.3494C48.2012 78.0692 46.9937 80.7891 44.7798 83.0052L37.9371 89.6537C37.6352 89.6537 37.2327 89.8552 36.7295 89.8552M34.8176 77.9685L37.1321 84.5163L37.1321 87.3368L43.371 81.2928C45.1824 79.4795 46.1887 77.2634 46.088 75.2487C46.088 74.3421 46.3899 73.5362 46.9937 72.9318C47.5975 72.3274 48.4025 71.9244 49.3082 71.9244C49.9119 71.9244 50.5157 71.4208 50.5157 70.7156L50.5157 63.2613C50.5157 62.8583 50.2138 62.3547 49.8113 62.2539L41.5597 58.426L38.239 56.3106C35.1195 54.2959 30.9937 55.1018 28.7799 58.0231C26.566 61.0451 27.0692 65.276 29.9874 67.6936L34.8176 71.723L34.8176 77.9685"/>
</svg>
