<?xml version="1.0" encoding="utf-8" ?>
<svg xmlns="http://www.w3.org/2000/svg" xmlns:xlink="http://www.w3.org/1999/xlink" width="94" height="94">
	<path fill="white" d="M65.209 94C62.5215 94 60.1326 92.2946 59.1372 89.7866L52.2691 71.8292L45.401 89.7866C44.4056 92.2946 42.0167 94 39.3292 94C37.2389 94 35.1486 92.8965 33.9541 91.191C32.7597 89.3853 32.4611 87.1782 33.2574 85.1718L41.519 63.7033L39.1301 63.7033C37.3384 63.7033 35.8453 62.2988 35.8453 60.4931L35.8453 48.8559C35.8453 47 37.3384 45.6457 39.1301 45.6457L45.5005 45.6457L45.5005 41.0309L24.9957 47.5518C24.5976 49.9594 22.9054 51.9658 20.5165 52.7684L16.4354 54.0726C15.8382 54.2732 15.1414 54.3735 14.4447 54.3735C11.5581 54.3735 9.06963 52.4674 8.17379 49.7588L0.310293 24.6788C-0.784625 21.1676 1.1066 17.4557 4.59043 16.3522L8.67148 15.048C9.26871 14.8474 9.96548 14.7471 10.6622 14.7471C12.5535 14.7471 14.3451 15.5496 15.5396 16.9541L51.7714 5.41729C52.2691 5.21665 52.7668 5.21665 53.2645 5.21665C55.3548 5.21665 57.1465 6.52081 57.8432 8.42689L83.6236 0.20064C84.1213 0 84.6189 0 85.1166 0C87.3065 0 89.1977 1.40448 89.7949 3.41089L93.7764 15.9509C94.5727 18.5592 93.1792 21.3682 90.5912 22.1708L64.8109 30.397C65.01 31.5005 64.9104 32.6041 64.3132 33.6073C63.716 34.8111 62.7206 35.6137 61.4266 36.0149L59.0377 36.8175L59.0377 45.5454L64.9104 45.5454C66.7021 45.5454 68.1952 47 68.1952 48.7556L68.1952 60.3927C68.1952 62.1985 66.7021 63.603 64.9104 63.603L63.0192 63.603L71.2809 85.0715C72.0772 87.0779 71.7785 89.3853 70.5841 91.0907C69.2901 92.8965 67.2993 94 65.209 94"/>
	<path fill="#3AA7F9" d="M86.7092 4.44075L90.6907 16.9807C90.9893 17.9839 90.4915 19.0875 89.3967 19.3884L52.6671 31.1259C51.6717 31.4268 50.5768 30.9252 50.2782 29.8217L46.2113 17.2817C45.9981 16.2785 46.4958 15.1751 47.5907 14.8741L84.3201 3.05885C85.216 2.83563 86.311 3.43755 86.7092 4.44075"/>
	<path fill="#2D1B0A" d="M51.9949 32.2028C50.8005 32.2028 49.606 31.4003 49.2079 30.0961L45.2264 17.5561C45.0956 16.8539 45.0956 16.0513 45.4254 15.3491C45.8236 14.6468 46.4208 14.1452 47.1176 13.9446L83.8471 2.20712C85.3402 1.70552 87.0323 2.6084 87.53 4.1132L91.5115 16.6532C92.0092 18.158 91.1134 19.8635 89.6203 20.3651L52.8908 32.1025C52.5922 32.1025 52.2936 32.2028 51.9949 32.2028M84.8425 4.01288C84.7429 4.01288 84.6434 4.01288 84.5439 4.01288L47.8144 15.7503C47.6153 15.8507 47.4162 15.951 47.3167 16.2519C47.2171 16.4526 47.2171 16.7535 47.2171 16.9542L51.1986 29.4942C51.3977 29.9958 51.8954 30.2968 52.3931 30.0961L89.1226 18.3587C89.6203 18.158 89.9189 17.6564 89.7198 17.1353L85.7383 4.6148C85.6388 4.31384 85.2406 4.01288 84.8425 4.01288"/>
	<path fill="#2D1B0A" d="M48.2876 29.2935L55.7529 29.2935L55.7529 50.5614L48.2876 50.5614L48.2876 29.2935M39.0306 91.0907C36.5421 91.0907 34.85 88.5827 35.7458 86.2754L48.1881 53.8719L55.6534 53.8719L42.2158 88.7834C41.7181 90.1878 40.4241 91.0907 39.0306 91.0907"/>
	<path fill="#2D1B0A" d="M39.0353 91.5923C37.7416 91.5923 36.448 90.8901 35.7514 89.8869C35.077 88.7834 34.8558 87.3789 35.3534 86.175L47.8917 53.4707L56.4497 53.4707L42.8167 89.0843C42.1201 90.5891 40.6275 91.5923 39.0353 91.5923M48.5883 54.4739L36.249 86.476C35.8509 87.3789 36.05 88.4824 36.5475 89.285C37.1446 90.0875 38.0402 90.5891 39.0353 90.5891C40.2294 90.5891 41.4235 89.7866 41.8216 88.683L54.957 54.4739L48.5883 54.4739M56.2507 51.063L47.7922 51.063L47.7922 28.7919L56.2507 28.7919L56.2507 51.063M48.7873 50.0598L55.2555 50.0598L55.2555 29.7951L48.7873 29.7951L48.7873 50.0598"/>
	<path fill="#2D1B0A" d="M64.9105 91.0908C67.3989 91.0908 69.091 88.5827 68.1953 86.2754L55.753 53.9723L48.2877 53.9723L61.7253 88.8837C62.1235 90.1879 63.4174 91.0908 64.9105 91.0908"/>
	<path fill="#2D1B0A" d="M64.9104 91.5923C63.2183 91.5923 61.8247 90.5891 61.2275 88.984L47.5908 53.3703L56.1511 53.3703L68.6928 86.0747C69.1905 87.2785 68.9915 88.683 68.2947 89.7865C67.3989 90.9904 66.2044 91.5923 64.9104 91.5923M48.8848 54.4738L62.0238 88.683C62.422 89.8868 63.5169 90.5891 64.8109 90.5891C65.8062 90.5891 66.7021 90.0875 67.2993 89.2849C67.8965 88.4824 67.9961 87.4792 67.5979 86.476L55.2552 54.4738L48.8848 54.4738"/>
	<path fill="#3AA7F9" d="M64.6118 60.6937L38.931 60.6937C38.6324 60.6937 38.6324 60.5934 38.6324 60.4931L38.6324 48.8559C38.6324 48.7556 38.6324 48.6553 38.931 48.6553L64.6118 48.6553C64.8109 48.6553 64.9104 48.7556 64.9104 48.8559L64.9104 60.4931C64.9104 60.5934 64.7113 60.6937 64.6118 60.6937"/>
	<path fill="#2D1B0A" d="M64.6118 61.6969L38.931 61.6969C38.2342 61.6969 37.637 61.1953 37.637 60.4931L37.637 48.8559C37.637 48.1537 38.2342 47.6521 38.931 47.6521L64.6118 47.6521C65.3086 47.6521 65.9058 48.1537 65.9058 48.8559L65.9058 60.4931C65.9058 61.1953 65.3086 61.6969 64.6118 61.6969M39.6278 59.6905L63.915 59.6905L63.915 49.5582L39.6278 49.5582L39.6278 59.6905"/>
	<path fill="#3AA7F9" d="M13.748 20.4566L21.6115 45.5367C22.2087 47.4427 21.1138 49.4492 19.2226 50.1514L15.1415 51.4556C13.2503 52.0574 11.2596 50.9539 10.5628 49.0479L2.69929 23.9678C2.10207 22.0617 3.19698 20.0553 5.08821 19.3531L9.16926 18.0489C11.16 17.447 13.1508 18.4502 13.748 20.4566"/>
	<path fill="#2D1B0A" d="M14.153 52.5676C13.4567 52.5676 12.6611 52.367 12.0643 52.066C10.9702 51.4641 10.1746 50.5612 9.77673 49.3574L1.9194 24.2774C1.52156 23.0735 1.6807 21.8697 2.21778 20.7661C2.81454 19.6626 3.70968 18.8601 4.9032 18.4588L8.98105 17.1546C11.3681 16.3521 13.954 17.7565 14.7497 20.1642L22.607 45.2443C23.0049 46.4481 22.9054 47.6519 22.3087 48.7555C21.7119 49.859 20.8168 50.6616 19.6232 51.0628L15.5454 52.367C15.1476 52.4673 14.6503 52.5676 14.153 52.5676M10.3735 18.8601C10.0751 18.8601 9.87619 18.8601 9.57781 18.9604L5.49996 20.2645C4.10752 20.6658 3.4113 22.1706 3.80914 23.5751L11.6665 48.6551C11.8654 49.3574 12.3627 49.859 12.9594 50.16C13.5562 50.4609 14.2524 50.5612 14.9486 50.3606L19.0265 49.0564C19.7227 48.8558 20.22 48.3542 20.5184 47.7523C20.8168 47.1503 20.9162 46.4481 20.7173 45.7459L12.86 20.6658C12.4621 19.5623 11.4675 18.8601 10.3735 18.8601"/>
	<path fill="#83D375" d="M54.8319 9.63078L61.5009 30.8987C61.7995 31.9019 61.3018 33.0054 60.2069 33.3063L23.4774 45.0438C22.4821 45.3448 21.3871 44.8432 21.0885 43.7396L14.3341 22.4718C14.1209 21.4686 14.6186 20.365 15.7135 20.0641L52.4429 8.2406C53.3388 8.02566 54.4338 8.52726 54.8319 9.63078"/>
	<path fill="#2D1B0A" d="M22.9301 46.1473C22.4324 46.1473 22.0342 46.047 21.5365 45.8463C20.8398 45.445 20.3421 44.8431 20.143 44.1409L13.474 22.873C13.3432 22.1708 13.3432 21.3682 13.673 20.666C14.0712 19.9637 14.6684 19.4621 15.3652 19.2615L52.0947 7.52402C53.5878 7.02242 55.2799 7.9253 55.7776 9.4301L62.4466 30.698C62.6457 31.4002 62.6457 32.2028 62.2476 32.905C61.8494 33.6073 61.2522 34.1089 60.5554 34.3095L23.8259 46.047C23.5273 46.047 23.2287 46.1473 22.9301 46.1473M52.9905 9.22946C52.891 9.22946 52.7915 9.22946 52.6919 9.22946L15.9624 20.9669C15.7633 21.0672 15.5643 21.1676 15.4647 21.4685C15.3652 21.6692 15.3652 21.9701 15.3652 22.1708L22.0342 43.4386C22.1338 43.6393 22.2333 43.8399 22.5319 43.9402C22.731 44.0406 23.0296 44.0406 23.2287 44.0406L59.9582 32.3031C60.1573 32.2028 60.3563 32.1025 60.4559 31.8015C60.5554 31.6009 60.5554 31.2999 60.5554 31.0993L53.8864 9.83138C53.7868 9.53042 53.3887 9.22946 52.9905 9.22946"/>
</svg>
