<?xml version="1.0" encoding="utf-8" ?>
<svg xmlns="http://www.w3.org/2000/svg" xmlns:xlink="http://www.w3.org/1999/xlink" width="88" height="90">
	<path fill="white" d="M85.0398 28.7927L83.3419 24.9292C78.7476 15.8803 72.2555 9.2715 64.1654 5.00123L61.269 3.5778C55.7757 1.23932 49.883 -0.184105 44 0C37.3983 0.222587 30.7065 2.15438 30.7065 2.15438C20.519 5.40792 11.7298 12.525 6.23651 21.879L2.84067 29.0978C-0.754918 38.7567 -0.954673 49.5341 2.34128 59.498L4.23896 64.2767C8.33393 73.0206 15.1256 80.2394 23.6152 84.8147L27.5104 86.6448C32.8039 88.8816 38.3971 90 44.1899 90C47.386 90 50.4822 89.695 53.5784 88.9833L59.1716 87.3565C69.1593 83.6963 77.4491 76.4775 82.6428 67.1235L85.8389 59.9047C88.9351 49.5341 88.7353 38.655 85.0398 28.7927"/>
	<path fill="#FFCB57" d="M63.0668 27.3802C64.7649 31.2431 67.3616 34.6994 70.9573 37.8507C76.2507 44.1533 79.0472 49.846 80.4455 53.6072C81.2446 55.5387 81.8438 57.3685 82.3432 58.69C85.9389 48.3212 85.3395 36.9358 80.6453 26.9736C74.8524 26.567 68.9596 26.7703 63.0668 27.3802M23.016 41.2053C29.8076 36.2242 37.2985 32.3613 45.1889 29.7183C39.9953 22.3991 32.2048 19.4511 22.0173 20.8743C16.2243 21.6875 10.1318 23.9239 7.33527 25.0421C1.94188 35.3093 0.94311 47.4063 4.63857 58.385C7.93453 54.7255 14.5265 47.5079 23.016 41.2053M52.8793 24.4322C53.4786 25.4488 53.9781 26.4653 54.4774 27.4819C56.6747 27.0752 58.972 26.6686 61.3689 26.3637C60.3703 23.619 59.771 20.671 59.771 17.723C59.5711 11.7253 61.3689 7.4558 61.4688 7.35415C54.0779 3.5929 45.089 2.27139 36.3997 3.89787C40.3947 7.96408 47.6857 15.2832 52.8793 24.4322"/>
	<path fill="#2D1B0A" d="M82.4432 61.9431L81.5443 59.1984C80.945 57.4702 80.3457 55.7421 79.7465 54.1156C78.3482 50.456 75.5516 44.865 70.4579 38.664C66.7624 35.4111 64.0657 31.7515 62.2679 27.7869C59.1717 27.5836 56.8745 27.9902 54.6772 28.3969C53.1791 26.7704 52.6797 25.7538 52.0804 24.8389C46.8868 15.5883 39.2961 8.16748 35.7005 4.5079L34.3022 3.08472L36.1999 2.77976C45.089 1.15327 54.3776 2.47479 62.4677 6.541L62.4677 7.65921C62.3678 7.86252 60.6699 11.8271 60.8696 17.6214C60.9695 20.4678 61.4689 23.2124 62.4677 25.8555C69.0596 25.5505 75.0522 25.4489 81.0449 25.9571C86.638 36.7326 87.2373 48.3213 83.5418 58.9951L82.4432 61.9431M64.5651 28.2952C66.1631 31.4465 68.5602 34.4962 71.6564 37.1392C77.2495 43.7468 80.0461 49.6428 81.5443 53.404C81.8439 54.1156 82.1435 54.9289 82.4432 55.6404C84.8402 46.4915 84.1411 36.8342 80.146 28.0919C74.9524 27.6853 69.7587 27.7869 64.5651 28.2952M38.3972 4.5079C42.3923 8.47245 48.9842 15.385 53.7783 23.8224C54.1778 24.6356 54.6772 25.4489 55.0767 26.1604C56.6748 25.8555 58.3727 25.5505 60.0706 25.3472C59.2716 22.8058 58.8721 20.2644 58.7722 17.6214C58.6723 12.9453 59.6711 9.28569 60.1705 7.65921C53.2789 4.71121 45.6883 3.593 38.3972 4.5079M4.33898 60.5199L3.73971 58.8934C-0.05563 47.6097 1.04302 35.2078 6.53628 24.7373C10.1319 23.1108 16.0246 20.976 21.9174 20.1628C32.5044 18.638 40.5945 21.6876 45.9879 29.4134L46.7869 30.5316L45.4885 30.9382C37.5982 33.4796 30.2072 37.3425 23.5155 42.222C15.1257 48.4229 8.53383 55.6404 5.33775 59.3L4.33898 60.5199M8.13432 25.9571C3.24032 35.3094 2.24155 46.3898 5.138 56.4537C8.63371 52.4891 14.8261 46.0849 22.4168 40.3922C28.9088 35.6144 36.0001 31.8531 43.5908 29.2101C38.6968 23.0091 31.5056 20.5694 22.217 21.8909C16.8237 22.8058 11.2305 24.7373 8.13432 25.9571"/>
	<path fill="#FFCB57" d="M60.8694 17.774C60.9694 20.6204 61.4687 23.4667 62.5674 26.2114C68.3603 25.4998 74.1531 25.2965 80.0459 25.6015C76.1507 17.9773 69.9582 11.878 62.5674 7.91348C62.2677 8.3201 60.6697 12.2846 60.8694 17.774M35.0012 20.6204C39.6954 22.1452 43.5907 25.0932 46.587 29.4644C48.7843 28.8544 50.9816 28.2445 53.2788 27.7362C52.7794 26.8213 52.3799 25.9064 51.8805 25.0932C45.9877 14.6227 37.4981 7.20189 34.1022 4.4572C23.4153 7.10023 14.2267 14.0128 8.53363 23.5684C11.5299 22.4502 16.7235 20.6204 22.1169 19.8071C26.7113 19.0955 31.1059 19.4005 35.0012 20.6204M45.8879 31.1925C36.5993 34.2422 29.1083 38.41 23.8148 42.2729C14.6262 49.0838 7.93436 56.8096 5.33755 60.1642C9.13289 70.1264 16.5238 78.1572 25.9123 82.7317C45.2886 54.7765 47.7854 40.0365 45.8879 31.1925"/>
	<path fill="#2D1B0A" d="M26.3119 84.0024C15.8248 78.8179 8.33398 70.6855 4.43876 60.4184L4.63851 59.4018C7.13545 56.2505 13.9271 48.2197 23.3156 41.3072C27.7102 38.0542 35.1011 33.4797 45.5883 30.1251C42.8916 25.7539 39.1961 22.9076 34.8015 21.4844C31.106 20.2646 26.9112 20.0613 22.2169 20.6712C16.7237 21.4844 11.5301 23.3142 8.93324 24.3308L6.23655 25.449L7.73471 22.9076C13.5276 13.1487 23.016 6.03284 33.9026 3.28815C38.1973 6.23615 46.8867 13.8603 52.7795 24.4324C53.2788 25.2457 53.7782 26.1606 54.1777 27.1771L54.777 28.397L53.4786 28.7019C51.1814 29.2102 48.9841 29.7185 46.9866 30.3284C49.4835 42.9337 42.8916 60.1134 26.8113 83.2908M6.4363 60.3167C10.1318 69.5673 16.9234 76.9881 25.6128 81.461C40.4945 59.8084 46.8867 43.7469 45.0889 32.4632C35.4008 35.8178 28.5092 39.9857 24.4143 43.0353C15.625 49.5413 9.133 56.9621 6.4363 60.3167M35.3009 19.553C39.9951 21.0778 43.8904 24.0258 46.9866 28.1937C48.4847 27.6854 50.0828 27.2788 51.7807 26.9738C51.481 26.4655 51.2813 25.9573 50.9817 25.5506C45.3885 15.5884 37.3983 8.37091 33.8027 5.52457C24.614 7.96429 16.4241 13.657 10.9308 21.5861C13.8272 20.5695 17.8223 19.4513 21.9173 18.8414C26.7114 18.0282 31.3058 18.3331 35.3009 19.553M61.8683 27.2788C60.47 23.7208 59.9706 20.7728 59.8708 17.8248C59.671 12.1321 61.3689 7.96429 61.5687 7.55767L61.9682 6.54112C70.6575 11.1156 76.8499 17.4182 80.9449 25.144L81.7439 26.7705L79.9461 26.6688C74.1532 26.3639 68.3603 26.5672 62.6673 27.2788M62.967 9.28581C62.4676 10.8106 61.6685 13.8603 61.8683 17.6215C61.9682 20.1629 62.3677 22.6026 63.1667 24.9407C68.1606 24.4324 73.1545 24.2291 78.2482 24.3308C74.5527 18.0282 69.3591 12.8437 62.967 9.28581"/>
	<path fill="#FFCB57" d="M53.7781 29.0069C51.4809 29.5152 49.1838 30.1251 47.0863 30.8367C48.3847 36.5294 47.9852 42.4254 45.7879 49.3379C42.9914 58.1819 36.799 70.4822 27.7101 83.5957C36.5992 87.4586 46.5869 87.9669 55.8755 85.0189C63.7659 61.0283 59.6709 41.5105 53.7781 29.0069"/>
	<path fill="#2D1B0A" d="M43.6907 87.8652C38.0975 87.8652 32.5044 86.747 27.3107 84.5106L26.2121 84.0023L26.9112 82.9858C35.4008 70.7871 41.8929 58.3852 44.8892 49.0329C46.9866 42.3237 47.3861 36.631 46.1876 31.04L46.8867 29.8201C49.084 29.1085 51.3812 28.4986 53.6784 27.9903L54.7771 28.4986C59.3714 38.2575 65.6637 58.5885 56.7746 85.2222C51.9805 87.1536 47.7856 87.8652 43.6907 87.8652M29.2084 83.0874C37.3984 86.3404 46.5871 86.6453 54.9768 84.2056C63.1668 59.1984 57.5736 39.884 53.179 30.2267C51.4811 30.6333 49.7832 31.04 48.1851 31.5482C49.2838 37.1393 48.7844 42.9336 46.687 49.6429C43.7905 58.8935 37.3984 71.0921 29.2084 83.0874"/>
	<path fill="#FFCB57" d="M61.9681 27.8887C61.9681 27.7871 61.8682 27.6854 61.8682 27.5837C59.571 27.8887 57.2738 28.2953 55.1764 28.702C58.3725 35.4112 60.37 42.5271 61.2689 49.8463C62.4675 60.4184 61.3688 72.7187 57.6733 84.3074C68.8596 80.2411 77.6488 71.3971 82.0434 60.215C81.0447 56.7588 77.9485 47.9147 70.2579 38.8675C66.4626 35.6145 63.666 31.8533 61.9681 27.8887"/>
	<path fill="#2D1B0A" d="M55.9754 86.0354L56.5747 84.104C60.0704 72.9219 61.3688 60.9266 60.0704 50.0495C59.2714 42.832 57.2738 35.8178 54.0778 29.2102L53.4785 27.9903L54.7769 27.6854C56.9742 27.1771 59.2714 26.8721 61.5686 26.5672C62.5674 27.1771 62.6672 27.2787 62.6672 27.2787C64.3651 31.2433 67.0618 34.8012 70.6574 38.0542C78.5477 47.5081 81.7438 56.4538 82.7426 59.91C78.348 72.007 69.2591 81.0543 57.7732 85.2222L55.9754 86.0354M56.4748 29.4135C59.3713 35.8178 61.2689 42.7303 62.068 49.7445C63.2665 60.215 62.1678 71.8037 59.0716 82.5791C68.9595 78.3096 76.75 70.2789 80.8449 60.1134C79.7463 56.5554 76.6501 48.2197 69.4589 39.4774C65.7634 36.2244 63.0667 32.5648 61.1691 28.6003C59.571 28.9052 58.0729 29.1085 56.4748 29.4135"/>
</svg>
