<?xml version="1.0" encoding="utf-8" ?>
<svg xmlns="http://www.w3.org/2000/svg" xmlns:xlink="http://www.w3.org/1999/xlink" width="62" height="100">
	<path fill="white" d="M33.6325 100C29.3961 100 24.8571 99.1944 20.5199 97.6838C5.28901 92.4471 -3.08292 79.5569 1.05261 67.7744C3.47341 60.8258 9.32368 57.9053 14.6696 55.8912C15.4765 55.5891 16.0817 55.4884 16.5861 55.287C16.5861 55.287 16.7878 55.1863 16.8887 55.1863C16.8887 54.8842 16.7878 54.4814 16.5861 53.8771C16.3843 53.2729 16.2835 52.8701 16.1826 52.4673C15.3757 49.3454 14.6696 46.3243 15.6783 43.4038C17.1913 39.1742 21.0242 36.3545 26.5719 35.3474C27.984 35.146 29.3961 34.9446 30.9091 34.9446C32.523 34.9446 34.1369 35.0453 35.7507 35.3474C35.9525 34.8439 36.0533 34.3404 36.2551 33.8369C37.2637 30.9164 39.6845 24.8741 41.7019 19.8389C40.7941 18.5297 40.5923 17.0191 41.0967 15.71C41.1975 15.4079 41.2984 15.1057 41.5001 14.8036C39.9871 13.8973 39.1802 12.0846 39.7854 10.2719C39.9871 9.66767 40.2897 9.16415 40.7941 8.76133C40.6932 8.1571 40.7941 7.65358 40.9958 7.04935C41.1975 6.44512 41.601 5.94159 42.0045 5.53877C41.9036 4.93454 41.9036 4.33031 42.1053 3.72608C42.6097 2.21551 44.1227 1.10775 45.7365 1.10775C46.14 1.10775 46.5435 1.20846 46.9469 1.30916C47.9556 0.503525 49.166 0 50.3764 0C50.8807 0 51.4859 0.100705 51.9903 0.302115L53.8059 0.906344L56.3275 1.71198C58.1431 2.31621 59.3535 3.92749 59.5553 5.63948C61.4717 6.34441 62.4804 8.45921 61.7743 10.3726C61.5726 11.0775 61.27 11.4804 60.7657 11.8832C60.8665 12.4874 60.8665 13.0916 60.6648 13.6959C60.4631 14.3001 60.1605 14.8036 59.757 15.2064C59.8579 15.8107 59.757 16.3142 59.5553 16.9184C58.9501 18.5297 57.5379 19.5368 56.0249 19.5368C55.8232 19.5368 55.6215 19.5368 55.4197 19.4361C55.3189 19.9396 55.218 20.3424 55.218 20.3424C54.8145 21.6516 53.9067 22.4572 52.5955 23.0614C51.8894 25.8812 51.2842 27.7946 50.8807 28.9023C49.9729 31.5206 48.8634 34.8439 47.2495 39.1742C50.0738 40.7855 52.4946 42.6989 54.3102 44.8137C57.7397 48.9426 58.7483 53.4743 57.3362 57.6032C56.6301 59.718 55.0163 62.1349 53.0998 63.9476C51.8894 65.0554 51.1833 66.0624 50.7799 67.1702C50.679 67.4723 50.7799 67.7744 51.7885 69.4864C54.7137 74.4209 57.5379 80.5639 55.1171 87.4119C53.0998 93.2528 48.2582 97.4824 41.5001 99.1944C38.8776 99.5972 36.3559 100 33.6325 100"/>
	<path fill="#FFCB57" d="M33.5317 96.9802C29.6988 96.9802 25.5633 96.2752 21.4277 94.8654C7.81078 90.2329 0.24578 78.954 3.77611 68.7828C5.79344 63.0426 10.635 60.525 15.5775 58.7123C16.2836 58.5109 16.8888 58.3095 17.3932 58.2088C18.7043 57.9067 19.1078 57.7053 19.4104 57.0003C20.0156 55.2883 19.713 54.1806 19.2087 52.9721C19.1078 52.5693 18.9062 52.1665 18.8053 51.7637C18.0991 48.8432 17.4939 46.4263 18.2001 44.3115C19.3095 41.1896 22.3356 39.0748 26.7738 38.2692C30.8083 37.5643 35.7509 38.0678 40.2899 39.5784C44.8288 41.1896 48.7626 43.7073 51.2844 46.7284C54.0078 49.951 54.9156 53.4756 53.806 56.5975C53.2008 58.3095 51.8896 60.2229 50.3766 61.6327C48.7626 63.1433 47.754 64.5532 47.2497 66.0638C46.7453 67.7757 47.4514 68.9842 48.561 70.8976C51.2844 75.53 53.6043 80.5653 51.6878 86.2047C49.9731 91.0386 45.9384 94.5633 40.0882 96.0738C38.1716 96.6781 35.8518 96.9802 33.5317 96.9802"/>
	<path fill="#2D1B0A" d="M33.5318 97.9859C29.4971 97.9859 25.2607 97.1803 21.0243 95.7704C6.90299 90.9366 -0.96461 79.1541 2.76746 68.3787C4.88566 62.2357 10.0299 59.6173 15.1741 57.704C15.8801 57.5025 16.3845 57.3011 16.9897 57.2004C18.4018 56.8983 18.4018 56.8983 18.5027 56.5962C19.007 55.1863 18.7044 54.3807 18.3009 53.2729C18.0992 52.6687 17.9983 52.3666 17.8975 51.9638C17.1914 49.0433 16.4853 46.3243 17.2923 44.0081C18.5027 40.4834 21.8313 38.1672 26.6729 37.2609C30.9093 36.5559 36.0535 37.0594 40.7942 38.6707C45.5349 40.282 49.5696 42.9003 52.293 46.1229C55.2181 49.6476 56.2268 53.4743 54.9155 56.999C54.3103 58.8117 52.8982 60.9265 51.1835 62.4371C49.6705 63.847 48.7627 65.1561 48.3592 66.4653C47.9557 67.6737 48.4601 68.5801 49.5696 70.3928C52.3939 75.1259 54.8147 80.564 52.7973 86.5056C50.9817 91.7422 46.6445 95.4683 40.4916 97.0796C38.3734 97.6838 36.0535 97.9859 33.5318 97.9859M30.8084 38.8721C29.4971 38.8721 28.2867 38.9728 27.0763 39.1743C23.0417 39.8792 20.2174 41.7926 19.2087 44.6123C18.6035 46.425 19.2087 48.7412 19.7131 50.9567C19.9148 51.7624 20.0157 52.0645 20.1165 52.2659C20.6209 53.8772 21.1252 55.1863 20.3183 57.2004C19.8139 58.5096 18.8053 58.8117 17.5949 59.0131C16.8888 59.1138 16.3845 59.3152 15.7793 59.5166C11.0385 61.2286 6.49952 63.5448 4.58306 68.8822C1.25446 78.5499 8.51686 89.2246 21.6295 93.7563C27.9841 95.9718 34.8431 96.4754 39.8864 95.0655C45.3332 93.6556 49.1661 90.3324 50.78 85.8006C52.5956 80.6647 50.3765 75.7301 47.9557 71.7019C46.5436 69.3857 45.7367 67.8752 46.3419 65.7604C46.8462 64.0484 47.9557 62.5378 49.7713 60.8258C51.1835 59.5166 52.3939 57.704 52.9991 56.1934C54.0077 53.3736 53.2008 50.2518 50.6791 47.2306C48.2583 44.3102 44.5263 41.8933 40.0881 40.3827C37.0621 39.4764 33.8344 38.8721 30.8084 38.8721"/>
	<path fill="#89C5E5" d="M26.9753 80.1611L25.7649 79.7584C25.0588 79.557 24.6554 78.7513 24.4536 79.4562C24.4536 79.4562 28.2866 68.7814 29.497 65.2569C32.0187 57.704 36.2551 42.2961 38.8775 34.8439C40.6931 29.6073 47.0478 14.0987 47.0478 14.0987C47.7538 11.9839 48.5607 11.5811 49.2668 11.7364L50.4772 12.1853C51.1833 12.3867 51.5868 13.1924 50.7799 15.4079C50.7799 15.4079 48.4599 24.8741 47.4512 27.8952C43.5174 39.4763 34.8429 62.5378 30.7074 74.0182C30.1022 75.7301 28.1857 80.7654 28.1857 80.7654C28.4883 79.9597 27.6814 80.3625 26.9753 80.1611"/>
	<path fill="#2D1B0A" d="M27.8832 81.2688C27.7823 81.2688 27.7823 81.2688 27.6814 81.2688C27.3788 81.2688 27.0762 81.2688 26.5719 81.0674L25.4624 80.6646C25.0589 80.5639 24.7563 80.2618 24.5546 80.1611C24.4537 80.1611 24.4537 80.0604 24.4537 80.0604C24.5546 80.0604 24.7563 80.1611 25.0589 80.0604C25.2606 79.9597 25.4624 79.859 25.4624 79.7583L23.5459 79.0533C23.5459 79.0533 23.5459 78.9526 23.5459 78.9526C23.8485 78.0463 27.4797 68.1772 28.5892 64.7532C29.7996 61.2286 31.4135 55.8912 33.0274 50.3524C34.843 44.4108 36.6586 38.2678 37.943 34.3403C39.7854 29.1037 46.0392 13.6958 46.14 13.5951C46.947 11.1782 48.1574 10.1712 49.6704 10.7754L50.8808 11.1782C51.3851 11.3796 51.7886 11.6817 52.0912 12.1853C52.4946 12.9909 52.3938 14.0986 51.8894 15.6092C51.7886 15.9113 49.5695 25.0755 48.5608 28.0966C45.9383 35.8509 41.2984 48.5397 37.062 59.8187C35.0447 65.3575 33.1282 70.4934 31.7161 74.3202C31.1109 76.0322 29.1944 81.0674 29.1944 81.0674L27.278 80.3625C27.278 80.4632 27.278 80.6646 27.3788 80.866C27.5806 81.1681 27.7823 81.2688 27.8832 81.2688M25.8658 78.6505C25.9667 78.7512 26.0676 78.7512 26.1684 78.8519L27.3788 79.2547C27.4797 79.2547 27.5806 79.2547 27.7823 79.2547C28.3875 77.6435 29.3962 74.8237 29.7996 73.716C31.2118 69.8892 33.0274 64.7532 35.1456 59.2145C39.2811 48.0362 44.0218 35.3474 46.5435 27.5931C47.5522 24.572 49.8721 15.2064 49.8721 15.1057C50.3764 13.4944 50.1747 13.0916 50.1747 13.0916L48.9643 12.6888C48.9643 12.6888 48.5608 12.7895 47.9556 14.4008C47.8548 14.6022 41.601 29.9093 39.7854 35.146C38.3733 39.0735 36.5577 45.2165 34.843 51.0574C33.2291 56.5961 31.6152 61.9335 30.4048 65.5589C29.5979 68.3786 26.8745 75.7301 25.8658 78.6505"/>
	<path fill="#89C5E5" d="M33.1283 87.1098C33.1283 87.1098 24.8573 84.8943 22.2347 83.9879C19.9148 83.1823 16.8888 81.7724 16.8888 81.7724C16.5862 81.6717 16.4591 81.2689 16.4591 80.9668L17.9983 76.4351C18.0992 76.133 18.5027 76.0061 18.8053 76.0061C18.8053 76.0061 27.4798 79.2548 30.4049 80.1612C32.5231 80.8661 34.8431 81.5708 34.8431 81.5708C35.1457 81.6717 35.3474 82.0745 35.2465 82.3767L33.9353 86.6063C33.8344 87.0091 33.4309 87.2105 33.1283 87.1098"/>
	<path fill="#2D1B0A" d="M33.3145 88.1169C33.1128 88.1169 33.0119 88.1169 32.8102 88.0162C32.205 87.8147 24.4382 85.8006 21.9166 84.8943C19.6975 84.0887 16.8732 82.8802 16.4698 82.6788C15.6628 82.3767 15.2594 81.4703 15.4097 80.6647L16.9741 76.133C17.2767 75.3273 18.1845 74.8238 18.9914 75.0373C19.0923 75.0373 27.666 78.3485 30.4902 79.2548C32.6084 79.9598 34.9284 80.6647 34.9284 80.6647C35.8362 80.9668 36.2396 81.8731 35.937 82.6788L34.6258 87.0091C34.6258 87.714 34.0206 88.1169 33.3145 88.1169M17.5793 81.0675C18.3862 81.3696 20.7062 82.4774 22.6226 83.0816C24.9426 83.8872 31.5998 85.6999 33.1128 86.1028L34.2223 82.5781C33.5162 82.3767 31.8015 81.8731 30.1876 81.3696C27.5651 80.564 20.7062 78.0464 18.9914 77.3414L17.5793 81.0675"/>
	<path fill="#2D1B0A" d="M57.9413 9.86909C57.8405 9.86909 57.7396 9.86909 57.7396 9.86909L45.2322 5.53877C44.8287 5.43806 44.7021 4.93454 44.7021 4.53172C44.8287 4.1289 45.3331 4.00253 45.7365 4.00253L58.2439 8.35851C58.6474 8.45922 58.8491 8.96273 58.7483 9.36555C58.5465 9.66768 58.2439 9.86909 57.9413 9.86909"/>
	<path fill="#2D1B0A" d="M56.7309 13.1924C56.6301 13.1924 56.5293 13.1924 56.5293 13.1924L44.0218 8.86207C43.6183 8.76136 43.4917 8.25783 43.4917 7.85501C43.6183 7.45219 44.1227 7.32583 44.5261 7.32583L57.0335 11.6818C57.437 11.7825 57.6387 12.286 57.5379 12.6888C57.3362 12.991 57.0335 13.1924 56.7309 13.1924"/>
	<path fill="#2D1B0A" d="M55.6215 16.4149C55.5207 16.4149 55.4198 16.4149 55.4198 16.4149L42.9123 12.0846C42.5088 11.9839 42.3823 11.4803 42.3823 11.0775C42.5088 10.6747 43.0132 10.5483 43.4166 10.5483L55.924 14.9043C56.3276 15.005 56.5293 15.5085 56.4285 15.9113C56.2267 16.2135 55.924 16.4149 55.6215 16.4149"/>
	<path fill="#F47A62" d="M46.947 20.2416C44.8288 19.5367 43.3158 17.6233 43.6539 16.5155C44.1227 15.4078 45.2323 13.8972 45.9383 11.581C46.7453 9.26481 48.2583 4.02815 48.2583 4.02815C48.5609 3.12181 49.6704 2.51758 50.5782 2.9204L52.3938 3.52463L54.9154 4.43097C55.8232 4.73309 56.4284 5.84084 56.025 6.74718C56.025 6.74718 54.8146 9.56692 54.1085 11.2789C53.3016 13.1923 51.6877 19.2346 51.6877 19.2346C51.486 20.3423 49.1661 20.9466 46.947 20.2416"/>
	<path fill="#2D1B0A" d="M48.8635 21.5508C48.1574 21.5508 47.4513 21.4501 46.6444 21.2487C45.0305 20.7452 43.6184 19.6374 43.0132 18.3283C42.679 17.6233 42.679 16.9184 42.8115 16.3142C43.0132 15.8106 43.3158 15.2064 43.6184 14.6022C44.1227 13.6958 44.6271 12.6888 45.0305 11.3796C45.7366 9.0634 47.3505 3.92745 47.3505 3.82675C47.8548 2.31617 49.4687 1.51054 50.9817 2.01406L55.319 3.52463C56.832 4.02816 57.6389 5.63944 57.0337 7.15001C57.0337 7.25072 55.8232 9.96975 55.1171 11.7824C54.4112 13.6958 52.6964 19.6374 52.6964 19.6374C52.3938 20.8459 50.7799 21.5508 48.8635 21.5508M50.0739 3.92745C49.7713 3.92745 49.3678 4.12886 49.2669 4.53168C49.2669 4.53168 47.6531 9.66763 46.947 12.0846C46.4427 13.4944 45.8375 14.7029 45.3331 15.6092C45.0305 16.2135 44.7279 16.6163 44.6271 17.0191C44.6271 17.0191 44.6271 17.2205 44.7279 17.5226C45.0305 18.2276 45.9383 19.0332 47.1487 19.436C48.9643 20.0402 50.4773 19.436 50.7799 19.1339C50.9817 18.3283 52.4947 12.9909 53.2008 11.0775C53.9068 9.26481 55.1171 6.54578 55.1171 6.54578C55.2181 6.14296 55.0163 5.74014 54.6129 5.53873L50.2756 4.02816C50.2756 3.92745 50.1747 3.92745 50.0739 3.92745"/>
	<path fill="#89C5E5" d="M39.4827 57.0997C39.4827 59.825 37.2699 62.0342 34.5403 62.0342C31.8106 62.0342 29.5978 59.825 29.5978 57.0997C29.5978 54.3744 31.8106 52.1651 34.5403 52.1651C37.2699 52.1651 39.4827 54.3744 39.4827 57.0997"/>
	<path fill="#2D1B0A" d="M34.5403 63.0413C31.3125 63.0413 28.5891 60.423 28.5891 57.0997C28.5891 53.8771 31.2117 51.1581 34.5403 51.1581C37.8689 51.1581 40.4914 53.7764 40.4914 57.0997C40.4914 60.423 37.768 63.0413 34.5403 63.0413M34.5403 53.1722C32.4221 53.1722 30.6065 54.8842 30.6065 57.0997C30.6065 59.2145 32.3212 61.0272 34.5403 61.0272C36.6585 61.0272 38.4741 59.3152 38.4741 57.0997C38.4741 54.9849 36.6585 53.1722 34.5403 53.1722"/>
</svg>
