<?xml version="1.0" encoding="utf-8" ?>
<svg xmlns="http://www.w3.org/2000/svg" xmlns:xlink="http://www.w3.org/1999/xlink" width="86" height="84">
	<path fill="white" d="M56.1686 83.899C53.1665 83.899 50.1644 82.5865 48.0629 80.2644C45.8613 77.8413 44.8606 74.8125 45.1608 71.5817C45.361 69.1587 46.2616 66.9375 47.8627 65.1202C46.3617 63.2019 44.8606 61.2837 43.3595 59.3654C41.6583 59.9712 39.9571 60.274 38.1559 60.274C34.2531 60.274 30.8507 59.0625 28.0487 56.8413L21.8443 61.7885C22.6449 64.3125 22.6449 67.0385 21.6441 69.5625C20.3432 72.6923 17.8414 75.1154 14.6392 76.226C13.5384 76.6298 12.3375 76.7308 11.2368 76.7308C5.73286 76.7308 0.92945 72.5913 0.128882 67.0385C-0.771756 60.7788 3.13101 55.226 9.23534 54.0144C9.93584 53.9135 10.6363 53.8125 11.3368 53.8125C13.4383 53.8125 15.4397 54.4183 17.3411 55.6298C19.3425 54.0144 21.3439 52.399 23.4454 50.7837C22.845 49.4712 22.3446 48.0577 22.1445 46.5433C21.444 41.899 22.4447 37.7596 25.2467 34.024C27.6484 30.8942 30.6505 28.875 34.4532 28.0673C34.4532 26.149 34.4532 24.2308 34.4532 22.3125C30.3503 21.101 27.148 17.5673 26.5476 13.125C25.8471 7.97596 28.3489 3.23077 32.8521 1.11058C34.5533 0.302885 36.1544 0 37.8556 0C40.4575 0 43 0.908654 45.1608 2.82692C47.7627 5.04808 49.1637 8.07692 49.0636 11.5096C48.9635 16.2548 46.2616 20.1923 42.0586 21.9087C42.0586 23.9279 42.0586 26.0481 42.0586 28.0673C44.06 28.5721 45.7612 29.3798 47.3624 30.4904C51.2651 33.2163 53.5668 37.0529 54.1672 41.7981C54.1672 42.2019 54.2673 42.5048 54.2673 42.9087C56.9692 43.5144 59.6711 44.1202 62.373 44.8269C62.373 44.8269 66.0757 45.6346 66.1757 45.7356C68.0771 43.5144 70.6789 42.101 73.7811 41.899C74.0813 41.899 74.4816 41.899 74.7818 41.899C80.1857 41.899 84.7889 45.7356 85.7896 51.0865C86.3901 54.3173 85.6896 57.4471 83.8883 60.0721C82.087 62.5962 79.285 64.2115 76.0827 64.6154C75.5824 64.7163 75.082 64.7163 74.6818 64.7163C69.2779 64.7163 64.7747 60.9808 63.6739 55.6298C63.4738 54.8221 63.3737 53.9135 63.4738 53.0048C59.9713 52.1971 56.4688 51.3894 52.9664 50.5817C52.2659 52.2981 51.1651 53.9135 49.8642 55.226C51.4653 57.2452 53.0664 59.3654 54.6676 61.3846C55.3681 61.2837 55.9685 61.1827 56.669 61.1827C62.1729 61.1827 66.7761 65.1202 67.7769 70.6731C68.3773 74.0048 67.4766 77.3365 65.2751 79.9615C63.1736 82.4856 60.0714 84 56.7691 84C56.5689 83.899 56.2687 83.899 56.1686 83.899"/>
	<path fill="#5AC0FF" d="M56.469 80.8772C51.8657 81.0721 47.7628 76.9327 48.1631 71.7836C48.3632 69.2596 49.5641 67.2403 51.5655 65.7259C51.9658 65.423 51.8657 65.3221 51.6656 65.0192C49.2639 61.9903 46.9622 58.9615 44.5605 55.9327C44.2603 55.6298 44.0602 55.5288 43.76 55.7307C41.9587 56.6394 40.0573 57.1442 38.0559 57.1442C34.8537 57.1442 31.9516 56.1346 29.4498 54.0144C29.2497 53.8125 29.0495 53.7115 28.8494 53.5096C28.0488 52.8028 28.0488 52.8028 27.2483 53.4086C24.3462 55.7307 21.4441 58.0528 18.442 60.375C18.1418 60.5769 18.0417 60.7788 18.2419 61.1827C19.4427 63.4038 19.6429 66.0288 18.6422 68.3509C17.7415 70.673 15.8402 72.4903 13.4385 73.1971C8.63506 74.8125 3.53144 71.5817 2.73087 66.5336C2.03038 61.9903 4.93244 57.8509 9.43563 56.9423C12.1376 56.4375 14.5392 57.2452 16.5407 59.0625C16.8409 59.3653 16.941 59.3653 17.3412 59.1634C20.4434 56.6394 23.5456 54.2163 26.6478 51.6923C27.0481 51.3894 26.7479 51.2884 26.6478 51.0865C25.6471 49.5721 24.9466 47.8557 24.6464 46.0384C24.046 42.3028 24.9466 38.8702 27.1482 35.8413C29.4498 32.7115 32.6521 31.0961 36.4548 30.6923C36.8551 30.6923 36.9551 30.5913 36.9551 30.1875C36.9551 26.8557 36.9551 23.524 36.9551 20.1923C36.9551 19.7884 36.8551 19.6875 36.4548 19.6875C32.7522 19.4855 29.5499 16.4567 28.9495 12.6202C28.4491 8.88457 30.1503 5.35092 33.5527 3.8365C36.755 2.32207 39.8572 2.72592 42.5847 5.04804C44.5605 6.66342 45.5612 8.88457 45.4612 11.4086C45.3611 15.3461 42.8593 18.5769 38.9566 19.4855C38.4562 19.5865 38.4562 19.7884 38.4562 20.1923C38.4562 23.524 38.4562 26.7548 38.4562 30.0865C38.4562 30.4903 38.5563 30.6923 38.9566 30.6923C41.1581 30.9952 43.1595 31.7019 45.0609 33.0144C48.2632 35.2355 50.0644 38.3653 50.6649 42.3028C50.7649 43.1105 50.7649 43.9182 50.7649 44.7259C50.7649 45.2307 50.865 45.4327 51.3654 45.5336C55.5683 46.5432 59.8714 47.4519 64.0744 48.4615C64.8749 48.6634 65.6755 48.8653 66.4761 49.0673C66.7763 49.1682 66.9764 49.1682 67.1766 48.7644C68.6776 46.4423 70.7791 45.1298 73.5811 44.8269C77.7841 44.423 81.5868 47.3509 82.3874 51.4903C83.288 56.3365 80.1858 60.7788 75.2823 61.3846C70.8792 61.9903 67.0765 58.9615 66.1759 54.7211C65.8757 53.5096 65.9757 52.1971 66.2759 50.9855C66.376 50.4807 66.2759 50.3798 65.7756 50.2788C61.3725 49.2692 56.9693 48.2596 52.5662 47.25C52.0659 47.149 51.5655 47.048 51.0652 46.8461C50.6649 46.7452 50.4647 46.7452 50.3647 47.25C49.7642 49.673 48.3632 51.8942 46.4619 53.6105C46.1617 53.9134 45.9615 54.1153 45.6613 54.3173C45.3611 54.5192 45.3611 54.7211 45.5612 55.024C47.963 58.0528 50.3647 61.0817 52.6663 64.2115C52.8664 64.5144 53.1666 64.6153 53.5669 64.5144C58.4704 63 63.3739 65.9278 64.2745 71.0769C65.4754 76.2259 61.5726 80.9711 56.469 80.8772"/>
	<path fill="#2D1B0A" d="M56.1688 82.3846C53.5669 82.3846 51.0651 81.274 49.264 79.3557C47.3625 77.3365 46.3619 74.5096 46.562 71.6826C46.7621 69.1586 47.8629 66.9374 49.7642 65.2211C47.7628 62.5961 45.7614 60.0721 43.76 57.4471C41.9587 58.2548 39.9573 58.7596 37.9558 58.6586C34.2533 58.6586 31.0509 57.4471 28.349 55.1249C28.0489 54.8221 27.9487 54.8221 27.9487 54.7211L19.9431 61.0817C21.0438 63.5048 21.144 66.3317 20.1432 68.8557C19.0424 71.5817 16.841 73.7019 14.0389 74.6105C11.3371 75.5192 8.43496 75.1153 5.93318 73.6009C3.43141 72.0865 1.83027 69.5624 1.42999 66.7355C0.629419 61.2836 4.03183 56.4374 9.33559 55.4278C12.2376 54.923 14.9396 55.6298 17.2412 57.4471C19.843 55.3269 22.5449 53.2067 25.2468 51.0865C24.3462 49.5721 23.7458 47.9567 23.5457 46.1394C22.8451 41.9999 23.8459 38.1634 26.3476 34.7307C28.7494 31.6009 31.9516 29.6826 35.8545 29.0769C35.8545 26.3509 35.8545 23.6249 35.8545 20.899C31.7514 20.1923 28.5493 16.8605 27.9487 12.6201C27.3484 8.17783 29.4498 4.03841 33.3526 2.2211C37.1553 0.504754 40.8579 1.00956 43.9601 3.73552C46.2617 5.65379 47.3625 8.27879 47.3625 11.3076C47.2624 15.8509 44.5606 19.3846 40.2575 20.6971C40.2575 23.524 40.2575 26.3509 40.2575 29.1778C42.459 29.5817 44.4605 30.3894 46.1618 31.6009C49.6642 34.1249 51.7656 37.5576 52.3661 41.899C52.4661 42.6057 52.4661 43.3124 52.4661 44.0192C55.5683 44.7259 58.5705 45.4326 61.5727 46.1394L65.0751 46.9471C65.4755 47.048 65.9758 47.149 66.3761 47.2499C68.1774 44.8269 70.5791 43.4134 73.4811 43.2115C78.4846 42.8076 82.9879 46.1394 83.8885 51.0865C84.3889 53.9134 83.7884 56.6394 82.1873 58.8605C80.5862 61.0817 78.1845 62.4951 75.3825 62.798C70.2789 63.4038 65.6756 60.0721 64.5748 55.024C64.3746 53.9134 64.2746 52.7019 64.4746 51.5913C60.2717 50.5817 56.1688 49.673 52.0658 48.6634C51.5655 48.5624 51.5655 48.5624 51.4655 48.5624C50.6649 50.9855 49.264 53.1057 47.4627 54.7211C47.4627 54.7211 47.3625 54.8221 47.3625 54.8221C49.4641 57.4471 51.5655 60.173 53.5669 62.798C56.1688 62.0913 58.9707 62.4951 61.2724 63.9086C63.6741 65.423 65.2753 67.8461 65.7757 70.673C66.276 73.6009 65.4755 76.5288 63.5741 78.7499C61.6727 80.9711 58.9707 82.1826 56.1688 82.1826C56.3689 82.3846 56.2688 82.3846 56.1688 82.3846M53.1666 66.1298C52.9665 66.6346 52.5662 66.9374 52.4661 67.0384C50.7649 68.2499 49.8643 69.9663 49.6642 71.9855C49.4641 74.0048 50.1646 75.8221 51.4655 77.3365C52.7663 78.7499 54.5676 79.4567 56.3689 79.4567C56.3689 79.4567 56.469 79.4567 56.469 79.4567C58.3703 79.4567 60.2717 78.548 61.4725 77.1346C62.7734 75.6201 63.3739 73.4999 62.9736 71.4807C62.6735 69.4615 61.4725 67.8461 59.8714 66.8365C58.1702 65.8269 56.1688 65.524 54.1674 66.2307C53.8671 66.2307 53.4669 66.2307 53.1666 66.1298M11.2369 58.4567C10.8367 58.4567 10.3363 58.4567 9.93602 58.5576C6.23339 59.2644 3.83169 62.5961 4.43212 66.4326C4.73233 68.3509 5.83311 70.1682 7.53432 71.1778C9.23552 72.1874 11.2369 72.4903 13.1383 71.8846C15.0396 71.2788 16.6408 69.7644 17.3413 67.8461C18.1418 65.9278 17.9417 63.8076 16.941 61.9903C16.7409 61.5865 16.6408 61.2836 16.6408 60.8798C16.3405 60.7788 16.0403 60.5769 15.64 60.274C14.4392 59.1634 12.9382 58.4567 11.2369 58.4567M67.8772 50.4807C67.9771 50.8846 67.9771 51.2884 67.8772 51.6923C67.5769 52.6009 67.5769 53.7115 67.7771 54.6201C68.4776 58.1538 71.6799 60.4759 75.1823 60.0721C77.0837 59.8701 78.7849 58.8605 79.8857 57.3461C80.9865 55.8317 81.3867 53.9134 80.9865 51.8942C80.386 48.4615 77.2838 46.1394 73.7813 46.4423C71.4797 46.6442 69.7785 47.6538 68.5777 49.673C68.4776 49.9759 68.2774 50.2788 67.8772 50.4807M46.7621 55.7307C46.7621 55.7307 46.7621 55.8317 46.7621 55.7307C46.7621 55.8317 46.7621 55.7307 46.7621 55.7307M28.6493 51.6923C29.0495 51.7932 29.4498 52.0961 29.9502 52.4999C30.0503 52.6009 30.1503 52.6009 30.2505 52.7019C30.3504 52.8028 30.4506 52.9038 30.5507 52.9038C32.6521 54.7211 35.2539 55.6298 38.156 55.7307C39.8573 55.7307 41.6586 55.3269 43.1595 54.5192C43.5598 54.3173 43.9601 54.2163 44.3605 54.2163C44.4605 53.9134 44.6606 53.5096 45.161 53.2067C45.3611 53.1057 45.5612 52.9038 45.7614 52.7019C47.4627 51.1874 48.6634 49.1682 49.264 47.048C49.3639 46.5432 49.5641 46.2403 49.8643 45.9374C49.6642 45.6346 49.5641 45.2307 49.6642 44.7259C49.6642 44.0192 49.6642 43.2115 49.5641 42.5048C49.0637 39.0721 47.4627 36.3461 44.6606 34.3269C43.1595 33.2163 41.3583 32.6105 39.2568 32.3076C38.8565 32.2067 38.4562 32.1057 38.156 31.9038C37.8559 32.1057 37.5556 32.2067 37.0552 32.3076C33.5527 32.7115 30.7508 34.2259 28.7494 36.8509C26.748 39.5769 25.9473 42.6057 26.5479 45.9374C26.848 47.5528 27.3484 49.0673 28.2491 50.3798C28.4492 50.8846 28.6493 51.2884 28.6493 51.6923M37.6556 4.64418C36.6549 4.64418 35.6542 4.8461 34.5534 5.35091C31.8516 6.56245 30.4506 9.49033 30.8508 12.5192C31.2511 15.649 33.953 18.0721 36.9552 18.274C37.3554 18.274 37.7557 18.3749 38.056 18.5769C38.3561 18.274 38.7565 18.173 39.0566 18.0721C42.2589 17.3653 44.3605 14.7403 44.4605 11.4086C44.4605 9.28841 43.76 7.57206 42.1588 6.25956C40.6578 5.14899 39.1567 4.64418 37.6556 4.64418"/>
	<path fill="white" d="M9.93592 63.3029C9.93592 64.7163 9.93592 66.1298 9.93592 67.6442C9.93592 68.0481 10.1361 68.149 10.6364 68.149C10.1361 68.4519 9.93592 68.4519 9.13535 68.25C9.73578 68.149 9.73578 67.7452 9.73578 67.3413C9.73578 65.9279 9.73578 64.5144 9.73578 63.101C9.73578 62.6971 9.73578 62.4952 9.13535 62.3942C9.93592 62.0913 10.2361 62.0913 10.4363 62.6971C11.0367 63.9086 11.6371 65.0192 12.2376 66.2308C12.3376 66.4327 12.3376 66.6346 12.6378 66.8365C12.6378 65.625 12.6378 64.4135 12.6378 63.2019C12.6378 62.7981 12.6378 62.4952 12.0374 62.3942C12.4377 62.1953 12.838 62.1953 13.3383 62.1953C12.838 62.4952 12.838 62.7981 12.838 63.2019C12.838 64.7163 12.838 66.1298 12.838 67.6442C12.838 67.8461 12.9381 68.0481 12.6378 68.25L10.036 63.101"/>
	<path fill="white" d="M36.5548 8.27878C36.5548 9.69226 36.5548 11.1057 36.5548 12.6201C36.5548 13.024 36.755 13.1249 37.2553 13.1249C36.755 13.4278 36.5548 13.4278 35.7543 13.2259C36.3547 13.1249 36.3547 12.7211 36.3547 12.3173C36.3547 10.9038 36.3547 9.49032 36.3547 8.07687C36.3547 7.67302 36.3547 7.4711 35.7543 7.37014C36.5548 7.06725 36.855 7.06725 37.0552 7.67302C37.6556 8.88455 38.256 9.99514 38.8565 11.2067C38.9565 11.4086 38.9565 11.6105 39.2567 11.8124C39.2567 10.6009 39.2567 9.38937 39.2567 8.17782C39.2567 7.77398 39.2567 7.4711 38.6563 7.37014C39.0566 7.17119 39.4569 7.17119 39.9572 7.17119C39.4569 7.4711 39.4569 7.77398 39.4569 8.17782C39.4569 9.69226 39.4569 11.1057 39.4569 12.6201C39.4569 12.8221 39.557 13.024 39.2567 13.2259L36.6549 8.07687"/>
	<path fill="white" d="M38.8564 40.3846C37.7557 40.0817 36.6549 40.1827 35.5541 40.2836C36.2546 40.3846 36.2546 40.8894 36.2546 41.3942C36.2546 43.3125 36.2546 45.1298 36.2546 47.048C36.2546 47.5529 36.4547 48.2596 35.5541 48.3605C36.4547 48.4615 37.3554 48.5625 38.156 48.3605C39.7571 48.0577 40.4576 47.3509 40.7578 45.7355C40.9579 44.8269 40.9579 43.9182 40.8579 43.0096C40.6577 41.798 40.0573 40.7884 38.8564 40.3846M39.657 46.7452C39.3568 47.5529 38.4562 48.2596 37.6556 48.2596C37.1552 48.2596 36.9551 48.0577 36.9551 47.5529C36.9551 46.4423 36.9551 45.4327 36.9551 44.3299L36.9551 41.1923C36.9551 40.4855 37.0552 40.3846 37.7557 40.3846C38.5562 40.3846 39.3568 40.8894 39.657 41.6971C40.1574 43.3125 40.1574 45.1298 39.657 46.7452"/>
	<path fill="white" d="M58.2702 74.8125C58.2702 73.399 58.2702 71.8846 58.2702 70.4711C58.2702 70.1682 58.3703 69.8654 58.7706 69.5877C58.2702 69.5877 57.8699 69.5877 57.3696 69.5877C57.97 70.4711 57.7699 71.3798 57.5697 72.1875C57.4697 72.5913 56.569 72.2884 56.0687 72.3894C55.8685 72.3894 55.5683 72.4904 55.6684 72.1875C55.7684 71.3798 55.2681 70.4711 56.0687 69.5877C55.5683 69.5877 55.068 69.5877 54.4675 69.7644C55.168 69.8654 55.068 70.2692 55.068 70.5721C55.068 71.8846 55.068 73.1971 55.068 74.6106C55.068 75.0144 55.168 75.4182 54.4675 75.6202C55.068 75.7211 55.5683 75.7211 56.1687 75.6202C55.9686 75.4182 55.6684 75.4182 55.6684 75.1154C55.6684 74.3077 55.4682 73.5 55.6684 72.7932C55.7684 72.2884 56.569 72.6923 56.9693 72.5913C57.1694 72.5913 57.6698 72.3894 57.6698 72.7932C57.6698 73.7019 57.97 74.7115 57.3696 75.6202C57.7699 75.6202 58.1702 75.7211 58.7706 75.5192C58.2702 75.3173 58.2702 75.1154 58.2702 74.8125"/>
	<path fill="white" d="M77.5839 55.4279C77.5839 54.0144 77.5839 52.5 77.5839 51.0865C77.5839 50.7836 77.684 50.4808 78.0843 50.2031C77.5839 50.2031 77.1836 50.2031 76.6833 50.2031C77.2837 51.0865 77.0836 51.9952 76.8834 52.8029C76.7834 53.2067 75.8827 52.9038 75.3824 53.0048C75.1822 53.0048 74.882 53.1058 74.9821 52.8029C75.0821 51.9952 74.5818 51.0865 75.3824 50.2031C74.882 50.2031 74.3817 50.2031 73.7812 50.3798C74.4817 50.4808 74.3817 50.8846 74.3817 51.1875C74.3817 52.5 74.3817 53.8125 74.3817 55.226C74.3817 55.6298 74.4817 56.0336 73.7812 56.2356C74.3817 56.3365 74.882 56.3365 75.4824 56.2356C75.2823 56.0336 74.9821 56.0336 74.9821 55.7308C74.9821 54.9231 74.7819 54.1154 74.9821 53.4086C75.0821 52.9038 75.8827 53.3077 76.283 53.2067C76.4831 53.2067 76.9835 53.0048 76.9835 53.4086C76.9835 54.3173 77.2837 55.3269 76.6833 56.2356C77.0836 56.2356 77.4839 56.3365 78.0843 56.1346C77.684 56.0336 77.5839 55.7308 77.5839 55.4279"/>
</svg>
