<?xml version="1.0" encoding="utf-8" ?>
<svg xmlns="http://www.w3.org/2000/svg" xmlns:xlink="http://www.w3.org/1999/xlink" width="80" height="102">
	<path fill="white" d="M7.94524 102C6.5326 102 5.11995 101.601 3.90911 100.903C0.175677 98.7097 -1.13607 93.824 1.08381 90.1349L17.9347 61.3196L16.9257 60.2229C12.8895 55.9355 9.96331 50.7507 8.44976 45.0674C5.92717 35.7947 7.23892 26.1232 12.1832 17.8475C17.0266 9.57185 24.897 3.68915 34.2811 1.19648C37.3082 0.398827 40.4362 0 43.6651 0C60.1123 0 74.5415 10.9677 78.7795 26.7214C83.9256 45.8651 72.3217 65.5073 52.9482 70.5924C49.9211 71.39 46.7931 71.7889 43.6651 71.7889C40.1335 71.7889 36.5009 71.2903 33.1711 70.2933L31.6576 69.7947L14.3022 99.1085C12.4859 101.003 10.266 102 7.94524 102"/>
	<path fill="#89C5E5" d="M30.0431 65.0089L11.7796 96.1174C10.5688 98.2112 7.84435 98.9091 5.82628 97.7126C3.6213 96.5162 3.00098 93.8241 4.21183 91.8299L22.4754 60.6217C23.3835 61.3197 25.1997 62.5162 26.2088 63.0147C27.1169 63.6129 29.6395 64.8094 30.0431 65.0089"/>
	<path fill="#2D1B0A" d="M7.94523 99.3079C7.03709 99.3079 6.12896 99.1085 5.22083 98.61C2.69825 97.1144 1.79011 93.824 3.30366 91.3314L22.1726 59.2258C23.9889 60.6217 25.8051 61.8182 26.7133 62.3167C27.6214 62.8152 30.144 64.0117 30.5476 64.2111L31.5566 64.61L12.2841 97.2141C11.275 98.5103 9.66058 99.3079 7.94523 99.3079M22.778 62.0176L5.01902 92.2287C4.11089 93.824 4.61541 95.8182 6.22987 96.8152C7.84432 97.7126 9.86239 97.2141 10.8714 95.6188L28.6304 65.4076C27.6214 64.9091 26.3097 64.2111 25.6033 63.912C24.9979 63.5132 23.7871 62.7155 22.778 62.0176"/>
	<path fill="#99CC62" d="M75.1469 27.569C70.5052 10.3198 52.6453 0.0500302 35.189 4.63654C17.7327 9.22305 7.3397 26.8711 11.9813 44.1205C13.6966 50.6014 17.43 56.3843 22.677 60.6718C24.0896 61.8683 25.6032 62.8653 27.2176 63.7627C28.8321 64.66 30.4466 65.4576 32.1619 66.0558C38.5189 68.3491 45.4812 68.7479 52.0399 67.0529C69.3953 62.4664 79.7884 44.8184 75.1469 27.569M65.7628 48.4078C58.4977 60.5721 42.9586 64.66 30.8503 57.6806C18.6409 50.701 14.4029 35.2466 21.4662 23.1819C28.5294 11.1175 44.1694 6.92979 56.3788 13.9093C68.689 20.9884 72.826 36.443 65.7628 48.4078"/>
	<path fill="#2D1B0A" d="M43.4956 69.0968C39.5228 69.0968 35.587 68.3987 31.7522 67.0026C29.9357 66.3046 28.2201 65.5068 26.6054 64.6093C24.9907 63.7119 23.376 62.6149 21.9632 61.4183C16.6146 57.0306 12.7797 51.0474 10.9632 44.3661C8.64214 35.8197 9.812 26.8154 14.3944 19.1369C18.9357 11.4585 26.2017 5.97384 34.8806 3.68028C43.4956 1.38671 52.642 2.5427 60.4126 7.07076C68.1832 11.5582 73.7337 18.738 76.0548 27.314C80.7979 45.0642 70.1007 63.313 52.1374 67.9998C49.3117 68.6979 46.4861 69.0968 43.4956 69.0968M43.6604 4.47804C40.9356 4.47804 38.2109 4.87692 35.4861 5.57496C27.3118 7.66909 20.4494 12.8545 16.2109 20.1341C11.9724 27.314 10.8623 35.8197 12.9816 43.8675C14.6972 50.1499 18.2293 55.7342 23.2751 59.9225C24.587 61.0194 26.1008 62.0166 27.6146 62.9141C29.1283 63.8116 30.743 64.5096 32.4586 65.2077C38.6145 67.5012 45.2751 67.8004 51.7338 66.1051C68.5869 61.7175 78.6786 44.5656 74.2383 27.8126C72.0181 19.7352 66.8713 12.9543 59.5044 8.76601C54.5594 5.97384 49.1099 4.47804 43.6604 4.47804M43.4956 62.0166C38.9173 62.0166 34.376 60.9197 30.2384 58.5264C17.5228 51.2468 13.0825 35.1919 20.4494 22.6271C23.9815 16.5442 29.7338 12.1565 36.5962 10.3615C42.954 8.66629 49.6145 9.36433 55.4677 12.2562L56.9814 13.054C69.4952 20.3336 73.8346 36.3885 66.5686 48.8535C61.6236 57.4295 52.642 62.0166 43.4956 62.0166M43.4956 11.4585C41.4402 11.4585 39.22 11.7576 37.1008 12.3559C30.743 14.0512 25.4953 18.04 22.165 23.724C15.4036 35.2916 19.4403 50.2496 31.2476 56.9309C42.853 63.5124 57.8897 59.6233 64.7521 48.1555C71.5135 36.4882 67.6787 21.8294 56.275 15.0484C52.0365 12.5554 47.8989 11.4585 43.4956 11.4585"/>
</svg>
