<?xml version="1.0" encoding="utf-8" ?>
<svg xmlns="http://www.w3.org/2000/svg" xmlns:xlink="http://www.w3.org/1999/xlink" width="74" height="96">
	<path fill="white" d="M19.226 96C15.7212 96 12.9175 93.1971 12.9175 89.6934L12.9175 75.879C4.70636 68.8717 0 58.7612 0 48C0 37.2388 4.70636 27.0282 12.9175 20.0209L12.9175 6.50678C12.9175 2.90302 15.8214 0 19.5264 0L54.4736 0C58.0785 0 61.0825 2.90302 61.0825 6.50678L61.0825 20.0209C69.2936 27.0282 74 37.1387 74 48C74 58.6611 69.2936 68.8717 61.0825 75.879L61.0825 89.6934C61.0825 93.1971 58.2788 96 54.774 96L19.226 96"/>
	<path fill="#A0A5A5" d="M57.678 73.8769L57.678 89.8936C57.678 91.6955 56.1758 93.197 54.3735 93.197L19.1258 93.197C17.3234 93.197 15.8214 91.6955 15.8214 89.8936L15.8214 73.8769"/>
	<path fill="#2D1B0A" d="M54.3735 94.098L19.1258 94.098C16.8227 94.098 14.82 92.196 14.82 89.7935L14.82 73.7768L16.8227 73.7768L16.8227 89.7935C16.8227 90.9947 17.8241 92.0959 19.1258 92.0959L54.3735 92.0959C55.5751 92.0959 56.6766 91.0948 56.6766 89.7935L56.6766 73.7768L58.6793 73.7768L58.6793 89.7935C58.6793 92.196 56.7767 94.098 54.3735 94.098"/>
	<path fill="#A0A5A5" d="M15.9214 22.5235L15.9214 6.8072C15.9214 4.90522 17.5236 3.30355 19.4262 3.30355L54.1731 3.30355C56.0758 3.30355 57.6778 4.90522 57.6778 6.8072L57.6778 22.5235"/>
	<path fill="#2D1B0A" d="M58.6791 22.5235L56.6764 22.5235L56.6764 6.80709C56.6764 5.40563 55.5749 4.30449 54.173 4.30449L19.4261 4.30449C18.0242 4.30449 16.9227 5.40563 16.9227 6.80709L16.9227 22.5235L14.92 22.5235L14.92 6.80709C14.92 4.30449 16.9227 2.3024 19.4261 2.3024L54.173 2.3024C56.6764 2.3024 58.6791 4.30449 58.6791 6.80709L58.6791 22.5235"/>
	<path fill="#FCFCFC" d="M3.10425 48.1502C3.10425 66.7695 18.2247 81.8853 36.8499 81.8853C55.4751 81.8853 70.5955 66.7695 70.5955 48.1502C70.5955 29.5308 55.4751 14.415 36.8499 14.415C18.1245 14.5152 3.10425 29.5308 3.10425 48.1502"/>
	<path fill="#2D1B0A" d="M36.7497 83.3869C17.3235 83.3869 1.5021 67.5704 1.5021 48.1502C1.5021 28.73 17.3235 12.9135 36.7497 12.9135C56.176 12.9135 71.9974 28.73 71.9974 48.1502C71.9974 67.5704 56.176 83.3869 36.7497 83.3869M36.7497 16.0167C19.0258 16.0167 4.50616 30.4317 4.50616 48.2503C4.50616 66.0689 18.9256 80.4839 36.7497 80.4839C54.4737 80.4839 68.9933 66.0689 68.9933 48.2503C68.9933 30.4317 54.5738 16.0167 36.7497 16.0167"/>
	<path fill="white" d="M49.6671 50.9531L36.8497 50.9531C35.3477 50.9531 34.046 49.6517 34.046 48.1502L34.046 30.5318C34.046 29.0303 35.3477 27.7289 36.8497 27.7289C38.3518 27.7289 39.6535 29.0303 39.6535 30.5318L39.6535 45.3473L49.6671 45.3473C50.6684 45.3473 51.5697 45.8478 52.0704 46.7487C52.571 47.6497 52.571 48.6507 52.0704 49.5516C51.5697 50.4526 50.6684 50.9531 49.6671 50.9531"/>
	<path fill="#300604" d="M35.2977 20.121L38.6022 20.121L38.6022 24.3254L35.2977 24.3254L35.2977 20.121M24.1828 23.1241L26.2857 26.7279L23.3816 28.4296L21.2789 24.8259L24.1828 23.1241M13.1679 32.9343L16.7728 35.0365L15.0704 37.9396L11.4656 35.8374L13.1679 32.9343M8.56165 46.8488L12.7673 46.8488L12.7673 50.1523L8.56165 50.1523L8.56165 46.8488M15.1706 59.2618L16.8729 62.1648L13.268 64.267L11.5657 61.364L15.1706 59.2618M23.3816 68.7717L26.2857 70.4735L24.1828 74.0772L21.2789 72.3754L23.3816 68.7717M35.2977 72.7758L38.6022 72.7758L38.6022 76.9802L35.2977 76.9802L35.2977 72.7758M50.5183 68.7717L52.6212 72.3754L49.7173 74.0772L47.6144 70.4735L50.5183 68.7717M58.8295 59.2618L62.4344 61.364L60.7322 64.267L57.1273 62.1648L58.8295 59.2618M61.2328 46.8488L65.4386 46.8488L65.4386 50.1523L61.2328 50.1523L61.2328 46.8488M60.7322 32.9343L62.4344 35.8374L58.8295 37.9396L57.1273 35.0365L60.7322 32.9343M49.7173 23.1241L52.6212 24.8259L50.5183 28.4296L47.6144 26.7279L49.7173 23.1241"/>
</svg>
