<?xml version="1.0" encoding="utf-8" ?>
<svg xmlns="http://www.w3.org/2000/svg" xmlns:xlink="http://www.w3.org/1999/xlink" width="74" height="102">
	<path fill="white" d="M37.0992 102C16.7096 102 0 85.1513 0 64.368C0 46.0059 12.93 30.5697 30.3358 27.4421L30.3358 25.3234C26.1584 23.003 23.473 18.4629 23.473 13.5193C23.473 6.05341 29.4407 0 36.8009 0C44.161 0 50.1287 6.05341 50.1287 13.5193C50.1287 18.362 47.6422 22.7003 43.6637 25.1217L43.6637 27.4421C61.169 30.6706 74 46.1068 74 64.368C74.099 85.1513 57.4889 102 37.0992 102"/>
	<path fill="#6B7072" d="M33.32 21.1869L40.6801 21.1869L40.6801 31.7804L33.32 31.7804L33.32 21.1869"/>
	<path fill="#2D1B0A" d="M41.6747 32.7893L32.3253 32.7893L32.3253 20.178L41.6747 20.178L41.6747 32.7893M34.3145 30.7715L39.6855 30.7715L39.6855 22.1958L34.3145 22.1958L34.3145 30.7715"/>
	<path fill="#89C5E5" d="M71.1152 64.4688C71.1152 83.5808 55.8413 99.0742 37 99.0742C18.1587 99.0742 2.8848 83.5808 2.8848 64.4688C2.8848 45.3568 18.1587 29.8635 37 29.8635C55.8413 29.8635 71.1152 45.3568 71.1152 64.4688"/>
	<path fill="#2D1B0A" d="M37 100.083C17.7045 100.083 1.8902 84.1424 1.8902 64.4688C1.8902 44.7953 17.6051 28.8546 37 28.8546C56.3949 28.8546 72.1098 44.7953 72.1098 64.4688C72.1098 84.1424 56.3949 100.083 37 100.083M37 30.9733C18.7986 30.9733 3.87942 46.0059 3.87942 64.5697C3.87942 83.1335 18.6991 98.1662 37 98.1662C55.3009 98.1662 70.1206 83.1335 70.1206 64.5697C70.1206 46.0059 55.3009 30.9733 37 30.9733"/>
	<path fill="#FFDA6A" d="M36.8007 58.718L49.3328 51.9584L42.7683 63.7626L36.8007 58.718"/>
	<path fill="#FCFCFC" d="M36.8007 92.8188C21.3842 92.8188 8.9516 80.2075 8.9516 64.5696C8.9516 48.9316 21.3842 36.3203 36.8007 36.3203C52.2172 36.3203 64.6499 48.9316 64.6499 64.5696C64.6499 72.0354 61.7655 79.1986 56.494 84.5458C51.2226 89.893 44.1609 92.8188 36.8007 92.8188"/>
	<path fill="#2D1B0A" d="M36.8007 93.8278C20.887 93.8278 7.957 80.7121 7.957 64.5697C7.957 48.4272 20.887 35.3115 36.8007 35.3115C52.7145 35.3115 65.6445 48.4272 65.6445 64.5697C65.6445 72.3382 62.6606 79.7032 57.1903 85.2522C51.7199 90.8011 44.4593 93.8278 36.8007 93.8278M36.8007 37.4302C21.981 37.4302 9.94622 49.6379 9.94622 64.6706C9.94622 79.7032 21.981 91.9109 36.8007 91.9109C43.9619 91.9109 50.7253 89.086 55.7978 83.9406C60.8703 78.7952 63.6553 71.9346 63.6553 64.6706C63.6553 49.6379 51.6205 37.4302 36.8007 37.4302"/>
	<path fill="#333" d="M36.8006 86.4629C36.3033 86.4629 35.9054 86.2611 35.6071 85.9584C35.3087 85.6558 35.1098 85.1513 35.1098 84.7478L35.1098 80.813C35.1098 79.8041 35.9054 79.0979 36.8006 79.0979C37.7952 79.0979 38.4914 79.905 38.4914 80.813L38.4914 84.8486C38.4914 85.6558 37.6958 86.4629 36.8006 86.4629"/>
	<path fill="#333" d="M50.8247 80.6113C50.3274 80.6113 49.9295 80.4095 49.6311 80.1068L46.8462 77.2819C46.15 76.5756 46.15 75.4659 46.8462 74.7596C47.5424 74.0534 48.6365 74.0534 49.3327 74.7596L52.1176 77.5845C52.416 77.8872 52.615 78.3917 52.615 78.7952C52.615 79.1988 52.416 79.7032 52.1176 80.0059C51.7198 80.3086 51.322 80.5104 50.8247 80.6113"/>
	<path fill="#333" d="M27.4513 73.5489L33.4189 69.9169C32.4243 69.2106 31.8276 68.6053 31.4297 68L27.4513 73.5489"/>
	<path fill="#333" d="M17.0079 66.2848C16.0133 66.2848 15.317 65.4777 15.317 64.5697C15.317 63.5608 16.1127 62.8546 17.0079 62.8546L20.9863 62.8546C21.9809 62.8546 22.6772 63.6617 22.6772 64.5697C22.6772 65.5786 21.8815 66.2848 20.9863 66.2848L17.0079 66.2848"/>
	<path fill="#333" d="M52.7144 66.2848C51.7198 66.2848 51.0235 65.4777 51.0235 64.5697C51.0235 63.5608 51.8192 62.8546 52.7144 62.8546L56.6928 62.8546C57.6874 62.8546 58.3837 63.6617 58.3837 64.5697C58.3837 65.5786 57.588 66.2848 56.6928 66.2848L52.7144 66.2848"/>
	<path fill="#333" d="M42.271 61.0386L46.0505 54.9852L40.0829 58.7181C41.0775 59.3235 41.6742 59.9288 42.0721 60.5342"/>
	<path fill="#333" d="M25.5616 54.7834C25.0643 54.7834 24.6664 54.5816 24.368 54.2789L21.5831 51.454C20.8869 50.7478 20.8869 49.638 21.5831 48.9318C21.8815 48.6291 22.3788 48.4273 22.7766 48.4273C23.1745 48.4273 23.6718 48.6291 23.9702 48.9318L26.7551 51.7567C27.4513 52.4629 27.4513 53.5727 26.7551 54.2789C26.4567 54.6825 26.0589 54.8843 25.5616 54.7834"/>
	<path fill="#333" d="M36.8006 50.1424C36.3033 50.1424 35.9054 49.9407 35.6071 49.638C35.3087 49.3353 35.1098 48.8309 35.1098 48.4273L35.1098 44.3917C35.1098 43.3828 35.9054 42.6766 36.8006 42.6766C37.7952 42.6766 38.4914 43.4837 38.4914 44.3917L38.4914 48.4273C38.4914 49.3353 37.6958 50.1424 36.8006 50.1424"/>
	<path fill="#3AA7F9" d="M36.4028 66.7893L39.3866 70.0178L30.4351 75.4659L21.4836 80.914L27.4512 72.2374L33.4188 63.5609"/>
	<path fill="#2D1B0A" d="M18.0025 84.1424L33.2201 61.9466L40.8786 70.3205L18.0025 84.1424M33.5184 65.1751L24.9648 77.6855L37.7953 69.9169L33.5184 65.1751"/>
	<path fill="#F47A62" d="M38.4915 64.7716L35.5077 61.5431L44.3597 56.1959L53.1123 50.9496L47.3436 59.4244L41.4753 68"/>
	<path fill="#2D1B0A" d="M41.6743 69.6143L34.0158 61.2404L56.5935 47.7211L41.6743 69.6143M37.0991 61.7448L41.3759 66.3858L49.7307 54.1781L37.0991 61.7448"/>
	<path fill="#FFD071" d="M37.1985 68.8071C38.392 68.8071 39.4861 68.1009 39.9834 66.8902C40.4807 65.7804 40.1823 64.4688 39.3866 63.5608C38.4915 62.6564 37.1985 62.451 36.1044 62.8546C35.0103 63.359 34.2146 64.4688 34.2146 65.6795C34.2146 67.4955 35.5076 68.8071 37.1985 68.8071"/>
	<path fill="#2D1B0A" d="M37.1985 69.816C35.0103 69.816 33.22 68 33.22 65.7804C33.22 64.1662 34.2146 62.6528 35.7066 62.0475C37.1985 61.4421 38.8893 61.7448 40.0828 62.9555C41.2764 64.1662 41.5748 65.8813 40.978 67.3946C40.2818 68.908 38.7898 69.816 37.1985 69.816M37.1985 67.7982C37.9942 67.7982 38.7898 67.2937 39.0882 66.5875C39.3866 65.7804 39.1877 64.9733 38.6904 64.3679C38.0936 63.7626 37.2979 63.5608 36.5022 63.9644C35.7066 64.2671 35.2092 64.9733 35.2092 65.8813C35.2092 66.8902 36.1044 67.7982 37.1985 67.7982"/>
	<path fill="#89C5E5" d="M47.244 13.6202C47.244 19.4151 42.6129 24.1128 36.9001 24.1128C31.1873 24.1128 26.5561 19.4151 26.5561 13.6202C26.5561 7.82529 31.1873 3.1276 36.9001 3.1276C42.6129 3.1276 47.244 7.82529 47.244 13.6202"/>
	<path fill="#2D1B0A" d="M36.9001 25.1217C30.634 25.1217 25.5615 19.9763 25.5615 13.6202C25.5615 7.2641 30.634 2.1187 36.9001 2.1187C43.1661 2.1187 48.2386 7.2641 48.2386 13.6202C48.2386 19.9763 43.0667 25.1217 36.9001 25.1217M36.9001 4.1365C31.7281 4.1365 27.5507 8.37389 27.5507 13.6202C27.5507 18.8665 31.7281 23.1039 36.9001 23.1039C42.0721 23.1039 46.2494 18.8665 46.2494 13.6202C46.2494 8.37389 41.9726 4.1365 36.9001 4.1365"/>
</svg>
