<?xml version="1.0" encoding="utf-8" ?>
<svg xmlns="http://www.w3.org/2000/svg" xmlns:xlink="http://www.w3.org/1999/xlink" width="86" height="96">
	<path fill="white" d="M41.8 96C27.5 96 15.8 84.2779 15.8 69.7263C15.8 64.7747 17.1 60.0253 19.7 55.8821L0 0L86 0L65.3 58.8126C66.9 62.2484 67.7 65.9874 67.7 69.7263C67.8 84.2779 56.2 96 41.8 96M41.9 43.5537C42.7 43.5537 43.5 43.5537 44.3 43.6547L51.4 23.5453L34.8 23.5453L41.9 43.5537"/>
	<path fill="#3AA7F9" d="M17.3 3.08212L67.2 3.08212L67.2 20.4632L17.3 20.4632L17.3 3.08212"/>
	<path fill="#2D1B0A" d="M68.2 21.4737L16.3 21.4737L16.3 2.0716L68.2 2.0716L68.2 21.4737M18.3 19.4527L66.2 19.4527L66.2 4.09265L18.3 4.09265L18.3 19.4527"/>
	<path fill="#3AA7F9" d="M51 78.4676L30.9 78.4676L4.3 3.0823L24.4 3.0823L51 78.4676"/>
	<path fill="#2D1B0A" d="M52.4 79.478L30.2 79.478L2.9 2.0717L25.1 2.0717L52.4 79.478M31.6 77.457L49.6 77.457L23.7 4.09275L5.7 4.09275L31.6 77.457"/>
	<path fill="#3AA7F9" d="M35.2 78.4676L55.3 78.4676L81.9 3.0823L61.8 3.0823L35.2 78.4676"/>
	<path fill="#2D1B0A" d="M56 79.478L33.8 79.478L61.1 2.0717L83.3 2.0717L56 79.478M36.6 77.457L54.6 77.457L80.5 4.09275L62.5 4.09275L36.6 77.457"/>
	<path fill="#FFD15F" d="M64.8 69.7769C64.8 56.9433 54.5 46.5349 41.8 46.5349C29.1 46.5349 18.8 56.9433 18.8 69.7769C18.8 82.6107 29.1 93.0191 41.8 93.0191C54.5 92.9181 64.8 82.6107 64.8 69.7769"/>
	<path fill="#2D1B0A" d="M41.8 93.9285C28.6 93.9285 17.8 83.1158 17.8 69.6758C17.8 56.3369 28.5 45.4232 41.8 45.4232C55.1 45.4232 65.8 56.2358 65.8 69.6758C65.8 83.1158 55.1 93.9285 41.8 93.9285M41.8 47.5453C29.7 47.5453 19.8 57.5495 19.8 69.7769C19.8 82.0043 29.7 92.0085 41.8 92.0085C53.9 92.0085 63.8 82.0043 63.8 69.7769C63.8 57.5495 54 47.5453 41.8 47.5453"/>
	<path fill="#E63B56" d="M41.8 60.278L44.7 66.139L51 67.0485L46.4 71.5959L47.5 77.9622L41.8 74.9306L36.2 77.9622L37.2 71.5959L32.6 67.0485L39 66.139"/>
	<path fill="#2D1B0A" d="M34.8 79.8821L36.1 72L30.4 66.4421L38.2 65.3305L41.7 58.1558L45.2 65.3305L53 66.4421L47.3 72L48.6 79.8821L41.6 76.1432L34.8 79.8821M41.8 73.819L46.2 76.1432L45.4 71.1916L48.9 67.7558L44 67.0484L41.8 62.6021L39.6 67.0484L34.7 67.7558L38.2 71.1916L37.4 76.1432L41.8 73.819"/>
</svg>
