<?xml version="1.0" encoding="utf-8" ?>
<svg xmlns="http://www.w3.org/2000/svg" xmlns:xlink="http://www.w3.org/1999/xlink" width="100" height="114">
	<path fill="white" d="M62.7119 113.699L37.7866 113.197L7.77667 113.699L7.77667 58.3046L6.08175 58.3046C2.79163 58.3046 0 55.5951 0 52.1831L0 47.868C0 44.5563 2.69192 41.7465 6.08175 41.7465L20.5384 41.7465L19.4417 39.9401L47.2582 22.7799L47.2582 3.91373C47.2582 2.5088 48.0558 1.20423 49.2522 0.501761C49.8504 0.200704 50.4487 0 51.1466 0C51.8445 0 52.5424 0.200704 53.1406 0.602113L67.2981 9.23239C68.7936 10.1356 69.4915 11.9419 68.993 13.6479C68.4945 15.3539 66.999 16.4577 65.3041 16.5581L53.2403 16.6585L53.2403 23.6831L79.5613 38.8363L77.7667 42.0475L93.9182 42.0475C97.2084 42.0475 100 44.757 100 48.169L100 52.4842C100 55.7958 97.3081 58.6056 93.9182 58.6056L92.8215 58.6056L92.8215 114L62.7119 114M72.8814 41.8468L68.993 39.6391L68.993 41.8468L72.8814 41.8468M30.8076 41.8468L30.8076 40.0405L27.8166 41.8468L30.8076 41.8468"/>
	<path fill="#A5E3E5" d="M93.9182 55.294L6.08168 55.294C4.38676 55.294 2.99095 53.8891 2.99095 52.1831L2.99095 47.8679C2.99095 46.162 4.38676 44.757 6.08168 44.757L93.9182 44.757C95.6131 44.757 97.0089 46.162 97.0089 47.8679L97.0089 52.1831C96.9091 53.8891 95.5134 55.294 93.9182 55.294"/>
	<path fill="#2D1B0A" d="M93.9182 56.2975L6.08174 56.2975C3.88832 56.2975 1.994 54.4912 1.994 52.1831L1.994 47.8679C1.994 45.6602 3.78862 43.7535 6.08174 43.7535L93.9182 43.7535C96.1116 43.7535 98.006 45.5598 98.006 47.8679L98.006 52.1831C97.9063 54.4912 96.1116 56.2975 93.9182 56.2975M6.08174 45.8609C4.98503 45.8609 3.98802 46.7641 3.98802 47.9683L3.98802 52.2834C3.98802 53.3873 4.88533 54.3908 6.08174 54.3908L93.9182 54.3908C95.0149 54.3908 96.0119 53.4877 96.0119 52.2834L96.0119 47.9683C96.0119 46.8644 95.1146 45.8609 93.9182 45.8609L6.08174 45.8609"/>
	<path fill="#5AC0FF" d="M11.1665 55.0933L34.1974 55.0933L34.1974 110.187L11.1665 110.187L11.1665 55.0933"/>
	<path fill="#2D1B0A" d="M35.6929 111.692L9.671 111.692L9.671 53.5882L35.6929 53.5882L35.6929 111.692M12.662 108.682L32.7019 108.682L32.7019 56.5988L12.662 56.5988L12.662 108.682"/>
	<path fill="#5AC0FF" d="M66.2012 55.294L89.2321 55.294L89.2321 110.187L66.2012 110.187L66.2012 55.294"/>
	<path fill="#2D1B0A" d="M90.6279 111.692L64.606 111.692L64.606 53.7887L90.6279 53.7887L90.6279 111.692M67.6967 108.681L87.7366 108.681L87.7366 56.7993L67.6967 56.7993L67.6967 108.681"/>
	<path fill="#3AA7F9" d="M66.1017 110.187L33.8983 110.187L33.8983 35.023L50.3489 25.6903L66.1017 35.023"/>
	<path fill="#2D1B0A" d="M67.0987 111.19L32.9013 111.19L32.9013 34.4208L50.349 24.4859L67.0987 34.4208L67.0987 111.19M34.8953 109.183L65.1047 109.183L65.1047 35.625L50.349 26.8944L34.8953 35.7253L34.8953 109.183"/>
	<path fill="#E63B56" d="M59.8205 49.3732C59.8205 54.9155 55.3567 59.4084 49.8504 59.4084C44.3441 59.4084 39.8803 54.9155 39.8803 49.3732C39.8803 43.8309 44.3441 39.338 49.8504 39.338C55.3567 39.338 59.8205 43.8309 59.8205 49.3732"/>
	<path fill="#2D1B0A" d="M49.8504 60.412C43.7686 60.412 38.8833 55.4947 38.8833 49.3732C38.8833 43.2518 43.7686 38.3345 49.8504 38.3345C55.9322 38.3345 60.8175 43.2518 60.8175 49.3732C60.8175 55.4947 55.9322 60.412 49.8504 60.412M49.8504 40.4419C44.8653 40.4419 40.8773 44.456 40.8773 49.4736C40.8773 54.4912 44.8653 58.5053 49.8504 58.5053C54.8354 58.5053 58.8235 54.4912 58.8235 49.4736C58.8235 44.456 54.8354 40.4419 49.8504 40.4419"/>
	<path fill="#FFD071" d="M50.1494 24.486L22.5323 41.5459"/>
	<path fill="#2D1B0A" d="M22.1167 40.7788L49.7563 23.7595L50.7971 25.4715L23.1575 42.4908L22.1167 40.7788"/>
	<path fill="#FFD071" d="M76.1713 40.2411L48.5542 24.3855"/>
	<path fill="#2D1B0A" d="M48.1964 25.2526L49.1874 23.5111L76.7909 39.4212L75.7999 41.1627L48.1964 25.2526"/>
	<path fill="#FFD071" d="M58.325 109.785L41.3758 109.785L41.3758 96.9401C41.3758 92.625 44.8653 89.1126 49.1525 89.1126L50.4486 89.1126C54.7357 89.1126 58.2253 92.625 58.2253 96.9401L58.2253 109.785"/>
	<path fill="#2D1B0A" d="M59.322 110.789L40.3788 110.789L40.3788 96.9401C40.3788 92.0228 44.2671 88.1091 49.1525 88.1091L50.5483 88.1091C55.4336 88.1091 59.322 92.0228 59.322 96.9401L59.322 110.789M42.3728 108.782L57.328 108.782L57.328 96.9401C57.328 93.1267 54.2372 90.1161 50.5483 90.1161L49.1525 90.1161C45.3638 90.1161 42.3728 93.2271 42.3728 96.9401L42.3728 108.782"/>
	<path fill="#2D1B0A" d="M22.6321 76.7694C22.0339 76.7694 21.6351 76.368 21.6351 75.7659L21.6351 64.8275C21.6351 64.2254 22.0339 63.824 22.6321 63.824C23.2303 63.824 23.6291 64.2254 23.6291 64.8275L23.6291 75.7659C23.6291 76.368 23.1306 76.7694 22.6321 76.7694"/>
	<path fill="#2D1B0A" d="M22.6321 100.653C22.0339 100.653 21.6351 100.252 21.6351 99.6497L21.6351 88.7113C21.6351 88.1092 22.0339 87.7078 22.6321 87.7078C23.2303 87.7078 23.6291 88.1092 23.6291 88.7113L23.6291 99.6497C23.6291 100.152 23.1306 100.653 22.6321 100.653"/>
	<path fill="#2D1B0A" d="M77.5673 76.7694C76.9691 76.7694 76.5703 76.368 76.5703 75.7659L76.5703 64.8275C76.5703 64.2254 76.9691 63.824 77.5673 63.824C78.1655 63.824 78.5643 64.2254 78.5643 64.8275L78.5643 75.7659C78.5643 76.368 78.1655 76.7694 77.5673 76.7694"/>
	<path fill="#2D1B0A" d="M77.5673 100.653C76.9691 100.653 76.5703 100.252 76.5703 99.6497L76.5703 88.7113C76.5703 88.1092 76.9691 87.7078 77.5673 87.7078C78.1655 87.7078 78.5643 88.1092 78.5643 88.7113L78.5643 99.6497C78.5643 100.152 78.1655 100.653 77.5673 100.653"/>
	<path fill="#FFD071" d="M50.0499 26.5933L50.0499 3.9137C50.0499 3.21123 50.9472 2.80983 51.4457 3.11088L65.6032 11.7412C66.4008 12.2429 66.002 13.3468 65.1047 13.3468L50.0499 13.4471"/>
	<path fill="#2D1B0A" d="M51.1466 26.5933L49.1525 26.5933L49.1525 3.91373C49.1525 3.21126 49.5514 2.60915 50.1496 2.30809C50.7478 2.0823 51.4457 2.0823 52.0439 2.30809L66.2014 10.9384C66.8994 11.3398 67.2981 12.243 66.9991 13.0458C66.7 13.8486 66.0021 14.4507 65.2043 14.4507L51.1466 14.551L51.1466 26.5933M51.1466 4.11443L51.1466 12.4437L64.8055 12.3433L51.1466 4.11443"/>
</svg>
