<?xml version="1.0" encoding="utf-8" ?>
<svg xmlns="http://www.w3.org/2000/svg" xmlns:xlink="http://www.w3.org/1999/xlink" width="112" height="86">
	<path fill="white" d="M8.59982 86C3.84463 86 0 82.1733 0 77.4403L0 8.55972C0 3.8267 3.84463 0 8.59982 0L103.4 0C108.155 0 112 3.8267 112 8.55972L112 77.4403C112 82.1733 108.155 86 103.4 86L8.59982 86"/>
	<path fill="#F9BF5A" d="M8.59979 2.92045L103.4 2.92045C106.536 2.92045 108.965 5.43801 108.965 8.45909L108.965 77.3396C108.965 80.4614 106.435 82.8783 103.4 82.8783L8.59979 82.8783C5.46338 82.8783 3.0352 80.3607 3.0352 77.3396L3.0352 8.45909C3.0352 5.43801 5.46338 2.92045 8.59979 2.92045"/>
	<path fill="#2D1B0A" d="M103.4 83.9861L8.59983 83.9861C4.95756 83.9861 2.0235 81.0657 2.0235 77.4404L2.0235 8.55987C2.0235 4.93457 4.95756 2.0142 8.59983 2.0142L103.4 2.0142C107.042 2.0142 109.977 4.93457 109.977 8.55987L109.977 77.4404C109.977 81.0657 107.042 83.9861 103.4 83.9861M8.59983 3.92755C6.07047 3.92755 4.04699 5.9416 4.04699 8.45916L4.04699 77.3397C4.04699 79.8573 6.07047 81.8713 8.59983 81.8713L103.4 81.8713C105.929 81.8713 107.953 79.8573 107.953 77.3397L107.953 8.45916C107.953 5.9416 105.929 3.92755 103.4 3.92755L8.59983 3.92755"/>
	<path fill="#FFF7EE" d="M13.962 12.7892L98.5438 12.7892L98.5438 72.0023L13.962 72.0023L13.962 12.7892"/>
	<path fill="#300604" d="M36.1193 20.4426L74.2619 20.4426L74.2619 22.9602L36.1193 22.9602L36.1193 20.4426"/>
	<path fill="#300604" d="M22.3596 42.7986L87.6171 42.7986L87.6171 45.3162L22.3596 45.3162L22.3596 42.7986"/>
	<path fill="#300604" d="M22.3596 49.4379L87.6171 49.4379L87.6171 51.9555L22.3596 51.9555L22.3596 49.4379"/>
	<path fill="#300604" d="M46.8438 60.6229L63.841 60.6229L63.841 63.1405L46.8438 63.1405L46.8438 60.6229"/>
	<path fill="#300604" d="M70.215 60.6229L87.2122 60.6229L87.2122 63.1405L70.215 63.1405L70.215 60.6229"/>
	<path fill="#F9BF5A" d="M52.8131 39.274L50.9919 37.9649L48.4626 37.5621L52.7119 31.9228L57.0624 33.6347"/>
	<path fill="#2D1B0A" d="M53.0154 40.6839L50.5872 38.8712L46.5402 38.3677L52.3072 30.7143L58.6811 33.1312L53.0154 40.6839M50.2837 36.8572L51.3966 36.9579L52.6107 37.8642L55.4436 34.0375L53.0154 33.1312L50.2837 36.8572"/>
	<path fill="#F9BF5A" d="M57.6694 39.1733L59.5917 37.8642L62.121 37.5621L57.8717 31.9228L53.42 33.534"/>
	<path fill="#2D1B0A" d="M57.467 40.5832L51.8013 33.0305L58.1752 30.6136L63.9422 38.267L59.8952 38.7705L57.467 40.5832M55.0388 34.0375L57.8717 37.8642L59.0858 36.9579L60.1987 36.8572L57.467 33.2319L55.0388 34.0375"/>
	<path fill="#F47A62" d="M59.2882 31.3185C59.2882 33.71 57.3404 35.6487 54.9377 35.6487C52.535 35.6487 50.5872 33.71 50.5872 31.3185C50.5872 28.927 52.535 26.9883 54.9377 26.9883C57.3404 26.9883 59.2882 28.927 59.2882 31.3185"/>
	<path fill="#2D1B0A" d="M54.9377 36.6558C52.0036 36.6558 49.5755 34.2389 49.5755 31.3185C49.5755 28.3981 52.0036 25.9813 54.9377 25.9813C57.8717 25.9813 60.2999 28.3981 60.2999 31.3185C60.2999 34.2389 57.8717 36.6558 54.9377 36.6558M54.9377 28.096C53.1166 28.096 51.5989 29.6065 51.5989 31.4192C51.5989 33.2318 53.1166 34.7424 54.9377 34.7424C56.7588 34.7424 58.2764 33.2318 58.2764 31.4192C58.2764 29.5058 56.7588 28.096 54.9377 28.096"/>
</svg>
