<?xml version="1.0" encoding="utf-8" ?>
<svg xmlns="http://www.w3.org/2000/svg" xmlns:xlink="http://www.w3.org/1999/xlink" width="64" height="80">
	<path fill="white" d="M6.01274 80C2.54777 80 0 77.3737 0 73.9394C0 71.1111 1.83439 68.6869 4.48408 68.0808L4.48408 61.4141C4.89172 52.3232 9.98726 44.0404 17.7325 39.3939C10.0892 34.7475 5.09554 26.5657 4.6879 17.7778L4.6879 16.5657L4.78981 11.9192C2.54777 11.0101 1.12102 8.78788 1.12102 6.16162C1.12102 2.62626 3.56688 0 7.03185 0L56.6624 0C60.1274 0 62.5732 2.62626 62.5732 6.16162C62.5732 8.38384 61.4522 10.303 59.6178 11.4141L59.6178 17.4747C59.2102 26.5657 54.1146 34.8485 46.2675 39.3939C54.0127 44.0404 59.0064 52.2222 59.414 61.1111L59.414 67.9798C62.1656 68.5859 64 71.0101 64 73.9394C64 77.2727 61.2484 80 57.9873 80L6.01274 80"/>
	<path fill="#E6FAFF" d="M7.89804 7.07074C7.89804 7.07074 7.4904 7.07074 7.89804 7.07074L7.69422 16.6667L7.69422 17.7778C8.20378 28.0808 15.3375 36.6667 25.121 39.596C25.3248 39.596 25.2229 39.697 25.0191 39.697C15.2356 42.5253 7.99995 51.3132 7.4904 61.6162C7.4904 61.6162 7.4904 62.5253 7.4904 62.7273L7.4904 72.3233C7.4904 72.3233 7.4904 72.5253 7.69422 72.5253L56.1019 72.5253C56.1019 72.5253 56.3057 72.5253 56.3057 72.3233L56.3057 61.5152C55.7961 51.2122 48.6624 42.6263 38.8789 39.697C38.6751 39.697 38.6751 39.495 38.8789 39.495C48.6624 36.6667 56 27.9798 56.5095 17.6768L56.5095 6.86872C56.5095 6.86872 56.5095 6.6667 56.3057 6.6667L7.89804 6.6667"/>
	<path fill="#2D1B0A" d="M56.1018 73.5354L7.69413 73.5354C6.87884 73.5354 6.4712 72.9293 6.4712 72.3233L6.4712 61.6162C6.98075 51.8182 13.1973 43.3334 22.1655 39.596C13.1973 35.8586 7.18458 27.3738 6.67502 17.7778L6.67502 16.6667L6.87884 5.6566L56.3056 5.6566C57.1209 5.6566 57.5285 6.26266 57.5285 6.86872L57.5285 17.6768C57.019 27.4748 50.8024 35.9596 41.6304 39.596C50.5986 43.3334 56.8151 51.8182 57.3247 61.4142L57.3247 72.2223C57.3247 73.0303 56.6113 73.5354 56.1018 73.5354M8.50942 71.5152L55.2865 71.5152L55.2865 61.5152C54.7769 51.9192 48.1527 43.5354 38.675 40.7071C38.1655 40.6061 37.7578 40.2021 37.7578 39.596C37.7578 38.9899 38.1655 38.5859 38.7769 38.4849C48.3566 35.6566 55.0827 27.2728 55.5922 17.5758L55.5922 7.57579L8.91706 7.57579L8.71324 16.5657L8.71324 17.6768C9.22279 27.2728 15.847 35.5556 25.2228 38.4849L26.14 39.495C26.14 40 25.7323 40.5051 25.1209 40.6061C15.6432 43.4344 8.91706 51.8182 8.40751 61.6162L8.50942 71.5152"/>
	<path fill="#FFD071" d="M56.5605 9.39395L6.9299 9.39395C5.19742 9.39395 4.0764 8.08081 4.0764 6.26263C4.0764 4.34344 5.29933 3.13132 6.9299 3.13132L56.5605 3.13132C58.293 3.13132 59.414 4.44445 59.414 6.26263C59.414 8.08081 57.9872 9.39395 56.5605 9.39395"/>
	<path fill="#2D1B0A" d="M56.5605 10.4041L6.92991 10.4041C4.68787 10.4041 3.0573 8.68689 3.0573 6.26264C3.0573 3.8384 4.68787 2.12123 6.92991 2.12123L56.5605 2.12123C58.8025 2.12123 60.4331 3.8384 60.4331 6.26264C60.4331 8.48487 58.5987 10.4041 56.5605 10.4041M6.92991 4.14143C5.80889 4.14143 5.09552 4.94951 5.09552 6.26264C5.09552 7.27275 5.60507 8.38386 6.92991 8.38386L56.5605 8.38386C57.3758 8.38386 58.3949 7.47477 58.3949 6.26264C58.3949 5.25254 57.8853 4.14143 56.5605 4.14143L6.92991 4.14143"/>
	<path fill="#7FCCD1" d="M54.5588 62.8283C49.6671 60.8081 41.4123 60.101 31.8327 60.101C21.7435 60.101 12.7754 61.0101 8.08755 63.3333C7.57799 63.5353 7.17035 64.0404 7.17035 64.5454L7.17035 72.1212L56.0875 72.1212L56.0875 65.6566C56.4951 64.4444 55.9856 63.3333 54.5588 62.8283"/>
	<path fill="#2D1B0A" d="M57.071 73.0303L6.1146 73.0303L6.1146 64.4444C6.1146 63.5353 6.72608 62.7273 7.64329 62.3232C11.9236 60.202 20.0767 59.0909 31.7966 59.0909C42.8032 59.0909 50.3448 60 54.9308 61.9192C55.8481 62.2222 56.5615 62.8283 56.9691 63.6364C57.279 64.3434 57.3768 65.1515 57.1729 65.8586L57.1729 73.0303M8.15286 71.0101L55.0328 71.0101L55.0328 65.4545C55.2366 65.0505 55.2366 64.7475 55.1347 64.3434C55.0328 64.0404 54.727 63.8384 54.2175 63.6364C49.8352 61.8182 42.5994 61.0101 31.7966 61.0101C20.6881 61.0101 12.637 62.1212 8.56051 64.1414C8.35668 64.2424 8.25477 64.3434 8.15286 64.4444L8.15286 71.0101"/>
	<path fill="#FFD071" d="M57.8853 77.2727L5.91081 77.2727C4.07642 77.2727 2.9554 75.9596 2.9554 74.2424C2.9554 72.4242 4.28024 71.2121 5.91081 71.2121L57.8853 71.2121C59.7197 71.2121 60.8408 72.5252 60.8408 74.2424C60.8408 75.9596 59.3121 77.2727 57.8853 77.2727"/>
	<path fill="#2D1B0A" d="M57.8853 78.2828L5.91082 78.2828C3.56687 78.2828 1.9363 76.5656 1.9363 74.2424C1.9363 71.9192 3.66878 70.202 5.91082 70.202L57.8853 70.202C60.2293 70.202 61.8599 71.9192 61.8599 74.2424C61.8599 76.3636 60.0255 78.2828 57.8853 78.2828M5.91082 72.1212C4.68789 72.1212 3.97452 72.9293 3.97452 74.1414C3.97452 75.3535 4.7898 76.1616 5.91082 76.1616L57.8853 76.1616C58.8025 76.1616 59.8217 75.3535 59.8217 74.1414C59.8217 72.9293 59.0064 72.1212 57.8853 72.1212L5.91082 72.1212"/>
	<path fill="#7FCCD1" d="M47.2356 31.1111C47.2356 34.4445 43.5668 37.0706 38.2676 38.5858C36.3313 39.0909 32.4586 46.9697 32.4586 46.9697C32.4586 46.9697 28.7899 39.0909 27.3631 38.7878C21.0446 37.8787 16.7644 34.7474 16.7644 31.1111C16.7644 26.5656 23.4905 22.9292 32.0509 22.9292C40.6115 22.9292 47.2356 26.7676 47.2356 31.1111"/>
	<path fill="#2D1B0A" d="M32.4586 49.2928L31.5414 47.3737C30.0127 44.0403 27.8726 40.3029 27.0573 39.6969C20.3312 38.6868 15.7452 35.2524 15.7452 31.01C15.7452 25.8585 22.879 21.8181 32.0509 21.8181C41.0191 21.8181 48.2548 25.9595 48.2548 31.01C48.2548 34.6464 44.6879 37.6767 38.5732 39.4949C37.7579 39.7979 35.3121 43.3333 33.3758 47.3737L32.4586 49.2928M32.0509 23.9393C24.2038 23.9393 17.7834 27.1716 17.7834 31.111C17.7834 34.2423 21.7579 36.9696 27.4649 37.7777C28.6879 37.9797 30.3184 40.3029 32.4586 44.6464C33.9872 41.8181 36.2293 37.9797 37.9618 37.5757C43.0573 36.0605 46.2165 33.6363 46.2165 31.111C46.2165 27.5757 40.5095 23.9393 32.0509 23.9393"/>
	<path fill="#00435B" d="M33.9363 57.3737C33.9363 58.5858 33.4268 59.4949 32.7134 59.4949C32 59.4949 31.4905 58.5858 31.4905 57.3737C31.4905 56.1616 32.7134 53.3333 32.7134 53.3333C32.7134 53.3333 33.9363 56.1616 33.9363 57.3737"/>
</svg>
