<?xml version="1.0" encoding="utf-8" ?>
<svg xmlns="http://www.w3.org/2000/svg" xmlns:xlink="http://www.w3.org/1999/xlink" width="104" height="106">
	<path fill="white" d="M102.802 90.8861C102.004 90.0746 100.906 89.5675 99.8081 89.5675L96.215 89.5675C96.714 88.3502 96.8138 87.0316 96.5144 85.8144L79.6468 26.0689L76.7524 15.9254L75.8541 12.9837L73.6583 5.17321C72.9597 2.73876 70.7639 1.11579 68.3685 1.11579C67.8695 1.11579 67.3704 1.21722 66.8714 1.31866L60.0845 3.24593C59.3858 1.4201 57.5893 0 55.4933 0L34.6334 0C34.0345 0 33.4357 0.202871 32.9367 0.405742C32.3378 0 31.6392 0 31.0403 0L14.7716 0C11.977 0 9.68138 2.33301 9.68138 5.17321L9.68138 89.6689L4.29175 89.6689C3.19386 89.6689 1.99616 90.1761 1.1977 90.9876C0.399232 91.799 0 92.9148 0 94.0306L0 101.638C0 102.754 0.399232 103.87 1.1977 104.681C1.99616 105.493 3.09405 106 4.29175 106L99.7083 106C100.806 106 102.004 105.493 102.802 104.681C103.601 103.87 104 102.754 104 101.638L104 94.0306C104 92.8134 103.601 91.6976 102.802 90.8861M60.3839 89.5675L60.3839 32.0536L76.5528 89.5675L60.3839 89.5675"/>
	<path fill="#253235" d="M99.7082 102.754L4.29175 102.754C3.99233 102.754 3.5931 102.653 3.39348 102.348C3.19387 102.145 2.99425 101.841 2.99425 101.435L2.99425 94.2335C2.99425 93.9292 2.99425 93.6249 3.39348 93.3206C3.5931 93.1177 3.99233 92.9149 4.29175 92.9149L99.7082 92.9149C100.008 92.9149 100.407 93.0163 100.607 93.3206C100.806 93.5235 101.006 93.8278 101.006 94.2335L101.006 101.435C101.006 101.74 100.906 102.044 100.607 102.348C100.407 102.551 100.107 102.754 99.7082 102.754"/>
	<path fill="#2D1B0A" d="M99.7082 104.276L4.29172 104.276C3.59306 104.276 2.8944 103.971 2.39536 103.464C1.89632 102.957 1.5969 102.247 1.5969 101.537L1.5969 94.335C1.5969 93.6249 1.89632 92.9149 2.39536 92.4077C2.8944 91.9005 3.59306 91.5962 4.29172 91.5962L99.7082 91.5962C100.407 91.5962 101.105 91.9005 101.605 92.4077C102.104 92.9149 102.403 93.6249 102.403 94.335L102.403 101.537C102.403 102.247 102.104 102.957 101.605 103.566C101.205 103.971 100.507 104.276 99.7082 104.276M4.59114 101.233L99.5086 101.233L99.5086 94.5378L4.59114 94.5378L4.59114 101.233"/>
	<path fill="#F47A62" d="M31.0405 92.5089L14.7717 92.5089C13.6738 92.5089 12.6757 91.5961 12.6757 90.3789L12.6757 5.47739C12.6757 4.3616 13.574 3.34725 14.7717 3.34725L31.0405 3.34725C32.1384 3.34725 33.1364 4.26017 33.1364 5.47739L33.1364 90.3789C33.0365 91.4947 32.1384 92.5089 31.0405 92.5089"/>
	<path fill="#2D1B0A" d="M31.0404 93.5234L14.7717 93.5234C13.0749 93.5234 11.6776 92.1033 11.6776 90.3789L11.6776 5.4775C11.6776 3.7531 13.0749 2.333 14.7717 2.333L31.0404 2.333C32.7371 2.333 34.1344 3.7531 34.1344 5.4775L34.1344 90.3789C34.0346 92.1033 32.7371 93.5234 31.0404 93.5234M14.7717 4.36171C14.1728 4.36171 13.6738 4.86889 13.6738 5.4775L13.6738 90.3789C13.6738 90.9875 14.1728 91.4947 14.7717 91.4947L31.0404 91.4947C31.6392 91.4947 32.1383 90.9875 32.1383 90.3789L32.1383 5.4775C32.1383 4.86889 31.6392 4.36171 31.0404 4.36171L14.7717 4.36171"/>
	<path fill="#F9BF5A" d="M12.6756 16.4325L33.0364 16.4325L33.0364 23.9387L12.6756 23.9387L12.6756 16.4325"/>
	<path fill="#2D1B0A" d="M34.0345 24.9531L11.6775 24.9531L11.6775 15.4181L34.0345 15.4181L34.0345 24.9531M13.6737 22.9244L32.0383 22.9244L32.0383 17.4468L13.6737 17.4468L13.6737 22.9244"/>
	<path fill="#F9BF5A" d="M12.6756 71.3091L33.0364 71.3091L33.0364 78.8153L12.6756 78.8153L12.6756 71.3091"/>
	<path fill="#2D1B0A" d="M34.0345 79.8297L11.6775 79.8297L11.6775 70.2947L34.0345 70.2947L34.0345 79.8297M13.6737 77.8009L32.0383 77.8009L32.0383 72.3234L13.6737 72.3234L13.6737 77.8009"/>
	<path fill="#7DD8DB" d="M91.8434 90.2469L83.1601 92.7827C81.7628 93.1885 80.3654 92.377 79.9662 90.9569L57.21 10.3158C56.8107 8.89567 57.6092 7.47557 59.0065 7.06983L67.6898 4.53395C69.0871 4.1282 70.4844 4.93969 70.8837 6.35978L93.6399 87.0009C93.9393 88.421 93.1409 89.8411 91.8434 90.2469"/>
	<path fill="#2D1B0A" d="M82.4414 93.8279C81.8426 93.8279 81.2438 93.625 80.7447 93.4222C79.9462 92.9151 79.3474 92.2051 79.048 91.2922L56.2917 10.6584C55.7927 8.73127 56.8906 6.70274 58.6871 6.19561L67.3704 3.65996C68.2687 3.35568 69.2668 3.4888 70.0652 3.96424C70.8637 4.47137 71.4626 5.18135 71.762 6.09419L94.5182 86.7281C95.0173 88.6552 93.9194 90.6837 92.1228 91.1908L83.4395 93.7265C83.1401 93.8279 82.7409 93.8279 82.4414 93.8279M68.3685 5.48563C68.2687 5.48563 68.0691 5.48563 67.9693 5.58706L59.286 8.12271C58.4875 8.32556 57.9885 9.2384 58.1881 10.0498L80.9443 90.6837C81.0441 91.0894 81.3436 91.3937 81.643 91.5965C82.0422 91.7994 82.4414 91.7994 82.8407 91.6979L91.524 89.1623C92.3224 88.9594 92.8215 88.0466 92.6219 87.2352L69.8656 6.60132C69.7658 6.19561 69.4664 5.89133 69.167 5.68848C68.8676 5.58706 68.6679 5.48563 68.3685 5.48563"/>
	<path fill="#3AA7F9" d="M60.3381 21.1789L73.8678 17.2448L75.8999 24.4613L62.3702 28.3954L60.3381 21.1789"/>
	<path fill="#2D1B0A" d="M61.6814 29.5177L59.0863 20.3885L74.5565 15.9254L77.1516 25.0545L61.6814 29.5177M61.5816 21.7072L63.0787 26.9818L74.6564 23.6344L73.1592 18.3598L61.5816 21.7072"/>
	<path fill="#3AA7F9" d="M75.0099 73.2035L88.5396 69.2694L90.5717 76.4859L77.042 80.42L75.0099 73.2035"/>
	<path fill="#2D1B0A" d="M76.3532 81.554L73.7581 72.4249L89.2283 67.9617L91.8234 77.0909L76.3532 81.554M76.2533 73.7436L77.7505 79.0182L89.3282 75.6708L87.831 70.3962L76.2533 73.7436"/>
	<path fill="#E6FAFF" d="M55.4932 92.5092L34.6334 92.5092C33.5355 92.5092 32.737 91.5963 32.737 90.5819L32.737 5.37612C32.737 4.26033 33.6353 3.44885 34.6334 3.44885L55.4932 3.44885C56.5911 3.44885 57.3896 4.36177 57.3896 5.37612L57.3896 90.5819C57.3896 91.6977 56.5911 92.5092 55.4932 92.5092"/>
	<path fill="#2D1B0A" d="M55.4932 93.5234L34.6333 93.5234C33.0364 93.5234 31.7389 92.2047 31.7389 90.5818L31.7389 5.37603C31.7389 3.75306 33.0364 2.4344 34.6333 2.4344L55.4932 2.4344C57.0901 2.4344 58.3877 3.75306 58.3877 5.37603L58.3877 90.5818C58.3877 92.2047 57.0901 93.5234 55.4932 93.5234M34.7331 4.46311C34.2341 4.46311 33.8349 4.86885 33.8349 5.37603L33.8349 90.5818C33.8349 91.0889 34.2341 91.4947 34.7331 91.4947L55.593 91.4947C56.0921 91.4947 56.4913 91.0889 56.4913 90.5818L56.4913 5.37603C56.4913 4.86885 56.0921 4.46311 55.593 4.46311L34.7331 4.46311"/>
	<path fill="#99CC62" d="M32.737 22.4942L57.3896 22.4942L57.3896 73.4634L32.737 73.4634L32.737 22.4942"/>
	<path fill="#2D1B0A" d="M58.3877 74.4789L31.7389 74.4789L31.7389 21.4789L58.3877 21.4789L58.3877 74.4789M33.7351 72.4482L56.3915 72.4482L56.3915 23.5096L33.7351 23.5096L33.7351 72.4482"/>
	<path fill="white" d="M39.524 36.0095L50.6027 36.0095L50.6027 58.8325L39.524 58.8325L39.524 36.0095"/>
	<path fill="#2D1B0A" d="M52.0998 60.2526L38.0269 60.2526L38.0269 34.3866L52.0998 34.3866L52.0998 60.2526M41.0211 57.2096L49.1056 57.2096L49.1056 37.4297L41.0211 37.4297L41.0211 57.2096"/>
	<path fill="white" d="M18.7639 36.111L26.6487 36.111L26.6487 58.934L18.7639 58.934L18.7639 36.111"/>
	<path fill="#2D1B0A" d="M28.1459 60.4555L17.2668 60.4555L17.2668 34.5895L28.1459 34.5895L28.1459 60.4555M20.261 57.4125L25.1516 57.4125L25.1516 37.6326L20.261 37.6326L20.261 57.4125"/>
</svg>
