<?xml version="1.0" encoding="utf-8" ?>
<svg xmlns="http://www.w3.org/2000/svg" xmlns:xlink="http://www.w3.org/1999/xlink" width="120" height="80">
	<path fill="white" d="M23.4414 80C16.4589 80 10.7731 74.6193 10.0748 67.6142L0.399002 67.6142L0.399002 64.3655C0.199501 63.7563 0 63.1472 0 62.5381L0 58.7817C0 58.1726 0 57.5635 0.399002 56.9543L0.399002 8.0203C0.399002 3.5533 3.49127 0 7.2818 0L97.8554 0C101.446 0 104.439 3.14721 104.738 7.30964L104.838 8.73096L105.137 14.3147L106.234 32.8934L114.214 34.3147C117.606 34.9239 120 38.2741 120 42.2335L120 67.5127L115.212 67.5127C115.012 67.5127 114.713 67.5127 114.514 67.5127C114.314 67.5127 114.015 67.5127 113.815 67.5127L112.219 67.5127C111.122 73.9086 105.636 78.6802 99.0524 78.6802C92.4688 78.6802 86.9825 73.8071 85.8853 67.5127L36.6085 67.5127C36.1097 74.6193 30.3242 80 23.4414 80"/>
	<path fill="#F7BF5C" d="M116.808 42.3857L116.808 64.6192L3.0922 64.6192L3.0922 8.17257C3.0922 5.43145 4.88771 3.19795 6.98247 3.19795L97.556 3.19795C99.5511 3.19795 101.247 5.12688 101.446 7.66496L101.546 9.08627L101.845 14.67L103.042 35.5837L113.416 37.4111C115.311 37.8172 116.808 39.8476 116.808 42.3857"/>
	<path fill="#2D1B0A" d="M117.806 65.533L2.0947 65.533L2.0947 8.07105C2.0947 4.72079 4.28921 2.0812 6.98248 2.0812L97.556 2.0812C100.15 2.0812 102.245 4.41623 102.444 7.46191L104.04 34.67L113.616 36.3959C116.01 36.802 117.806 39.3401 117.806 42.2842L117.806 65.533M4.08971 63.5025L115.811 63.5025L115.811 42.2842C115.811 40.3553 114.713 38.6294 113.317 38.3249L102.245 36.2944L100.549 7.56343C100.349 5.53298 99.1521 4.01013 97.6558 4.01013L7.08223 4.01013C5.48622 4.01013 4.18946 5.73602 4.18946 7.96952L4.18946 63.5025"/>
	<path fill="#FFCF64" d="M83.1933 64.5178L68.6297 64.5178C67.7319 64.5178 67.0337 63.604 67.0337 62.4874L67.0337 20.6599C67.0337 19.5432 67.7319 18.6294 68.6297 18.6294L83.1933 18.6294C84.0911 18.6294 84.7978 19.5432 84.7978 20.6599L84.7978 62.4874C84.8891 63.604 84.0911 64.5178 83.1933 64.5178"/>
	<path fill="#2D1B0A" d="M83.1965 65.533L68.6291 65.533C67.2322 65.533 66.0349 64.1117 66.0349 62.4873L66.0349 20.6599C66.0349 18.934 67.2322 17.6142 68.6291 17.6142L83.1965 17.6142C84.5934 17.6142 85.7965 19.0355 85.7965 20.6599L85.7965 62.4873C85.8905 64.2132 84.6932 65.533 83.1965 65.533M68.6291 19.6447C68.3298 19.6447 68.0304 20.0508 68.0304 20.6599L68.0304 62.4873C68.0304 63.0964 68.3298 63.5025 68.6291 63.5025L83.1965 63.5025C83.4958 63.5025 83.7952 63.0964 83.7952 62.4873L83.7952 20.6599C83.7952 20.0508 83.4958 19.6447 83.1965 19.6447L68.6291 19.6447"/>
	<path fill="#F47A62" d="M114.314 57.2081C115.61 57.2081 116.708 58.0203 116.708 59.0355L116.708 62.7919C116.708 63.8071 115.61 64.6193 114.314 64.6193C113.017 64.6193 111.92 63.8071 111.92 62.7919L111.92 59.0355C111.92 58.0203 113.017 57.2081 114.314 57.2081"/>
	<path fill="#2D1B0A" d="M114.314 65.6345C112.418 65.6345 110.922 64.4162 110.922 62.7919L110.922 59.0355C110.922 57.4112 112.418 56.1929 114.314 56.1929C116.209 56.1929 117.705 57.4112 117.705 59.0355L117.705 62.7919C117.705 64.4162 116.209 65.6345 114.314 65.6345M114.314 58.2234C113.516 58.2234 112.917 58.6294 112.917 59.0355L112.917 62.7919C112.917 63.198 113.516 63.6041 114.314 63.6041C115.112 63.6041 115.71 63.198 115.71 62.7919L115.71 59.0355C115.71 58.6294 115.112 58.2234 114.314 58.2234"/>
	<path fill="#F47A62" d="M4.98748 57.005C6.28424 57.005 7.28174 57.8172 7.28174 58.8324L7.28174 62.5888C7.28174 63.604 6.28424 64.4162 4.98748 64.4162C3.69072 64.4162 2.69322 63.604 2.69322 62.5888L2.69322 58.8324C2.69322 57.8172 3.79048 57.005 4.98748 57.005"/>
	<path fill="#2D1B0A" d="M4.98747 65.4314C3.19196 65.4314 1.6957 64.2131 1.6957 62.5888L1.6957 58.8324C1.6957 57.3096 3.19196 55.9898 4.98747 55.9898C6.78298 55.9898 8.27924 57.2081 8.27924 58.8324L8.27924 62.5888C8.27924 64.2131 6.78298 65.4314 4.98747 65.4314M4.98747 58.0202C4.28922 58.0202 3.69071 58.4263 3.69071 58.8324L3.69071 62.5888C3.69071 62.9949 4.18947 63.401 4.98747 63.401C5.78548 63.401 6.28423 62.9949 6.28423 62.5888L6.28423 58.8324C6.28423 58.4263 5.78548 58.0202 4.98747 58.0202"/>
	<path fill="#EBF9FF" d="M92.0697 22.389L92.0697 33.1504C92.0697 34.4702 92.9675 35.5869 94.0647 35.5869L103.142 35.5869L102.244 19.946L94.1646 19.946C92.9675 19.946 92.0697 20.9677 92.0697 22.389M28.6284 34.9778L10.4738 34.9778C9.576 34.9778 8.87775 34.0641 8.87775 32.9473L8.87775 23.0996C8.87775 21.9829 9.576 21.0692 10.4738 21.0692L28.6284 21.0692C29.5261 21.0692 30.2243 21.9829 30.2243 23.0996L30.2243 32.9473C30.2243 34.0641 29.4263 34.9778 28.6284 34.9778M59.3516 34.9778L41.1969 34.9778C40.2991 34.9778 39.601 34.0641 39.601 32.9473L39.601 23.0996C39.601 21.9829 40.2991 21.0692 41.1969 21.0692L59.3516 21.0692C60.2494 21.0692 60.9476 21.9829 60.9476 23.0996L60.9476 32.9473C60.9476 34.0641 60.2494 34.9778 59.3516 34.9778"/>
	<path fill="#2D1B0A" d="M104.14 36.599L94.0647 36.599C92.4687 36.599 91.0722 35.0761 91.0722 33.1472L91.0722 22.3858C91.0722 21.3706 91.4712 20.3553 92.0697 19.7462C92.5685 19.2386 93.3665 18.934 94.0647 18.934L103.142 18.934L104.14 36.599M94.0647 20.8629C93.8652 20.8629 93.6657 20.9645 93.566 21.066C93.2667 21.3706 93.167 21.7766 93.167 22.2843L93.167 33.0457C93.167 33.8579 93.6657 34.467 94.1645 34.467L102.145 34.467L101.347 20.8629L94.0647 20.8629M59.3515 35.9898L41.1969 35.9898C39.8004 35.9898 38.6034 34.5685 38.6034 32.9442L38.6034 23.0964C38.6034 21.3706 39.8004 20.0508 41.1969 20.0508L59.3515 20.0508C60.748 20.0508 61.945 21.4721 61.945 23.0964L61.945 32.9442C61.945 34.67 60.748 35.9898 59.3515 35.9898M41.1969 21.9797C40.8977 21.9797 40.5984 22.3858 40.5984 22.9949L40.5984 32.8426C40.5984 33.4518 40.8977 33.8579 41.1969 33.8579L59.3515 33.8579C59.6508 33.8579 59.95 33.4518 59.95 32.8426L59.95 22.9949C59.95 22.3858 59.6508 21.9797 59.3515 21.9797L41.1969 21.9797M28.6283 35.9898L10.4737 35.9898C9.07721 35.9898 7.8802 34.5685 7.8802 32.9442L7.8802 23.0964C7.8802 21.3706 9.07721 20.0508 10.4737 20.0508L28.6283 20.0508C30.0248 20.0508 31.2218 21.4721 31.2218 23.0964L31.2218 32.9442C31.2218 34.67 30.0248 35.9898 28.6283 35.9898M10.4737 21.9797C10.1745 21.9797 9.87521 22.3858 9.87521 22.9949L9.87521 32.8426C9.87521 33.4518 10.1745 33.8579 10.4737 33.8579L28.5286 33.8579C28.8278 33.8579 29.1271 33.4518 29.1271 32.8426L29.1271 22.9949C29.1271 22.3858 28.8278 21.9797 28.5286 21.9797L10.4737 21.9797"/>
	<path fill="#443B2D" d="M33.5161 66.3452C33.5161 72.1764 28.8715 76.9036 23.1421 76.9036C17.4126 76.9036 12.768 72.1764 12.768 66.3452C12.768 60.514 17.4126 55.7868 23.1421 55.7868C28.8715 55.7868 33.5161 60.514 33.5161 66.3452"/>
	<path fill="#2D1B0A" d="M23.142 77.9188C16.8577 77.9188 11.7704 72.7411 11.7704 66.3452C11.7704 59.9493 16.8577 54.7716 23.142 54.7716C29.4263 54.7716 34.5135 59.9493 34.5135 66.3452C34.5135 72.7411 29.4263 77.9188 23.142 77.9188M23.142 56.8021C17.9549 56.8021 13.7654 61.066 13.7654 66.3452C13.7654 71.6244 17.9549 75.8884 23.142 75.8884C28.329 75.8884 32.5185 71.6244 32.5185 66.3452C32.5185 61.066 28.329 56.8021 23.142 56.8021"/>
	<path fill="#443B2D" d="M109.227 65.2284C109.227 71.0596 104.582 75.7868 98.8528 75.7868C93.1233 75.7868 88.4787 71.0596 88.4787 65.2284C88.4787 59.3972 93.1233 54.67 98.8528 54.67C104.582 54.67 109.227 59.3972 109.227 65.2284"/>
	<path fill="#2D1B0A" d="M98.8527 76.802C92.5684 76.802 87.4811 71.6243 87.4811 65.2284C87.4811 58.8325 92.5684 53.6548 98.8527 53.6548C105.137 53.6548 110.224 58.8325 110.224 65.2284C110.224 71.6243 105.137 76.802 98.8527 76.802M98.8527 55.6853C93.6656 55.6853 89.4761 59.9492 89.4761 65.2284C89.4761 70.5076 93.6656 74.7716 98.8527 74.7716C104.04 74.7716 108.229 70.5076 108.229 65.2284C108.229 59.9492 104.04 55.6853 98.8527 55.6853"/>
</svg>
