<?xml version="1.0" encoding="utf-8" ?>
<svg xmlns="http://www.w3.org/2000/svg" xmlns:xlink="http://www.w3.org/1999/xlink" width="78" height="92">
	<path fill="white" d="M70.6244 0L20.7124 0L14.7513 0L0 0L0 92L14.7513 92L20.7124 92L70.6244 92C74.6658 92 78 88.7036 78 84.7079L78 7.29207C78 3.29642 74.7668 0 70.6244 0"/>
	<path fill="#F7BF5C" d="M3.03106 2.7969L17.6814 2.7969L17.6814 88.8034L3.03106 88.8034L3.03106 2.7969"/>
	<path fill="#2D1B0A" d="M18.6917 89.8023L2.0207 89.8023L2.0207 1.798L18.6917 1.798L18.6917 89.8023M4.04143 87.8045L16.671 87.8045L16.671 3.79583L4.04143 3.79583L4.04143 87.8045"/>
	<path fill="#FFCB57" d="M17.7824 2.7969L70.7254 2.7969C73.1504 2.7969 75.0701 4.69484 75.0701 7.09223L75.0701 84.5081C75.0701 86.9055 73.1504 88.8034 70.7254 88.8034L17.7824 88.8034L17.7824 2.7969"/>
	<path fill="#2D1B0A" d="M70.6245 89.8023L16.6711 89.8023L16.6711 1.798L70.6245 1.798C73.5545 1.798 75.9794 4.19539 75.9794 7.09225L75.9794 84.5081C75.9794 87.4049 73.6556 89.8023 70.6245 89.8023M18.7929 87.8045L70.7255 87.8045C72.5442 87.8045 74.0597 86.3061 74.0597 84.5081L74.0597 7.09225C74.0597 5.2942 72.5442 3.79583 70.7255 3.79583L18.7929 3.79583L18.7929 87.8045"/>
	<path fill="#FF7461" d="M45.2643 3.09675L59.9146 3.09675L59.9146 31.0664L53.3472 27.2705C52.842 26.9708 52.2358 26.9708 51.8316 27.2705L45.2643 31.0664L45.2643 3.09675"/>
	<path fill="#2D1B0A" d="M44.2539 32.7645L44.2539 2.0978L60.9249 2.0978L60.9249 32.7645L52.842 28.1695C52.6399 28.0696 52.4378 28.0696 52.3368 28.1695L44.2539 32.7645M46.2746 4.09563L46.2746 29.3682L51.3264 26.4713C52.1347 25.9718 53.0441 25.9718 53.8523 26.4713L58.9042 29.3682L58.9042 4.09563L46.2746 4.09563"/>
	<path fill="#18252F" d="M66.0777 67.3268L39.6062 67.3268C38.798 67.3268 38.0907 68.0261 38.0907 68.8252C38.0907 69.6244 38.798 70.3235 39.6062 70.3235L66.0777 70.3235C66.886 70.3235 67.5933 69.6244 67.5933 68.8252C67.5933 68.0261 66.9871 67.3268 66.0777 67.3268M66.0777 75.6179L39.6062 75.6179C38.798 75.6179 38.0907 76.317 38.0907 77.1161C38.0907 77.9154 38.798 78.6145 39.6062 78.6145L66.0777 78.6145C66.886 78.6145 67.5933 77.9154 67.5933 77.1161C67.5933 76.317 66.9871 75.6179 66.0777 75.6179M55.0648 59.0359L39.6062 59.0359C38.798 59.0359 38.0907 59.7351 38.0907 60.5342C38.0907 61.3334 38.798 62.0326 39.6062 62.0326L55.0648 62.0326C55.8731 62.0326 56.5803 61.3334 56.5803 60.5342C56.5803 59.7351 55.9741 59.0359 55.0648 59.0359M65.3705 59.0359L61.7332 59.0359C60.9249 59.0359 60.2176 59.7351 60.2176 60.5342C60.2176 61.3334 60.9249 62.0326 61.7332 62.0326L65.3705 62.0326C66.1788 62.0326 66.886 61.3334 66.886 60.5342C66.886 59.7351 66.1788 59.0359 65.3705 59.0359"/>
</svg>
