<?xml version="1.0" encoding="utf-8" ?>
<svg xmlns="http://www.w3.org/2000/svg" xmlns:xlink="http://www.w3.org/1999/xlink" width="90" height="70">
	<path fill="white" d="M1.91194 39.697L26.5659 27.8788L26.3646 23.3333C26.264 21.1111 27.4716 18.9899 29.3835 17.9798L61.8865 1.41414C63.6978 0.505051 65.6097 0 67.6223 0C72.7544 0 77.3833 3.13131 79.5971 8.08081L89.2574 29.798C90.2637 32.1212 90.2637 34.7475 89.1568 37.0707C88.1505 39.2929 86.2386 40.9091 84.0247 41.5152L74.8676 43.6364C69.4336 44.9495 64.2009 46.8687 59.1695 49.3939L46.3897 55.8586C45.6853 56.2626 44.7797 56.4646 43.9746 56.4646C42.5658 56.4646 41.2577 55.9596 40.2514 54.9495L37.3331 52.1212L0 70L1.91194 39.697"/>
	<path fill="#B5B5B5" d="M62.1884 36.6666L3.42145 64.8484L4.83025 41.4142L54.3395 17.6768L62.1884 36.6666"/>
	<path fill="#2D1B0A" d="M2.3145 66.4646L3.82393 40.707L54.8425 16.2626L63.4966 37.0707L2.3145 66.4646M5.73587 42.1212L4.4277 63.2323L60.7796 36.2626L53.635 19.1919L5.73587 42.1212"/>
	<path fill="#89C5E5" d="M51.4212 35.2524L37.1319 42.5252C35.5219 43.3333 35.22 45.5555 36.5281 46.8685L42.4652 52.6262C43.1696 53.3107 44.2765 53.5353 45.1822 53.0303L57.962 46.5656C63.1947 43.9393 68.6286 41.9191 74.2638 40.6059L83.2197 38.4847C86.2386 37.5756 87.8486 33.9393 86.4398 30.909L76.7795 9.19182C74.3644 3.73727 68.3267 1.41404 63.1947 4.0403L30.6917 20.6059C29.786 21.01 29.2829 22.0202 29.2829 23.1313L29.6854 31.6161C29.786 33.4342 31.5973 34.6464 33.2074 33.8382L47.4966 26.5655C48.7042 25.9594 50.2136 26.4646 50.7168 27.7777L52.5281 31.9191C53.1318 33.1312 52.6287 34.6464 51.4212 35.2524"/>
	<path fill="#2D1B0A" d="M44.0753 54.2424C43.2703 54.2424 42.3647 53.9394 41.7609 53.3334L35.8238 47.5758C35.0188 46.7677 34.6163 45.5556 34.7169 44.3435C34.9182 43.1313 35.6226 42.1212 36.6288 41.6162L50.9181 34.3435C51.6225 33.9394 51.9244 33.0303 51.6225 32.1212L49.8112 28.0039C49.6099 27.5758 49.308 27.2727 49.0061 27.1717C48.7042 27.0707 48.3017 27.0707 47.9998 27.2727L33.7106 34.5455C32.7043 35.0505 31.4968 35.0505 30.4905 34.4445C29.4842 33.8384 28.7798 32.7273 28.6792 31.4142L28.2682 22.9293C28.2682 21.5152 28.9811 20.101 30.1886 19.495L62.6916 2.92931C65.3079 1.61618 68.3268 1.41416 71.0438 2.32325C73.962 3.33335 76.2764 5.55557 77.5846 8.58588L87.2449 30.303C88.05 32.1212 88.05 34.1414 87.2449 35.8586C86.4399 37.4748 85.0311 38.7879 83.4211 39.2929L74.3645 41.4142C68.8299 42.7273 63.396 44.7475 58.2639 47.3738L45.4841 53.8384C45.1822 54.1414 44.5785 54.2424 44.0753 54.2424M51.9244 36.1616L37.6351 43.4344C37.2326 43.6364 36.9307 44.1414 36.8301 44.6465C36.7295 45.2525 36.9307 45.7576 37.3332 46.1616L43.2703 51.9192C43.6728 52.3233 44.2766 52.4243 44.7797 52.1212L57.5595 45.6566C62.8929 42.9293 68.4274 40.9091 74.1632 39.596L83.1192 37.4748C84.2261 37.1717 85.1317 36.3637 85.6349 35.1515C86.2386 33.9394 86.2386 32.5253 85.6349 31.2121L75.9745 9.49497C74.8676 7.07073 72.9557 5.25254 70.5406 4.34345C68.3268 3.53537 65.9117 3.73739 63.7985 4.74749L31.2955 21.3132C30.7924 21.6162 30.3899 22.2222 30.4905 22.8283L30.893 31.3132C30.893 31.9192 31.1949 32.4243 31.698 32.6263C31.8993 32.7273 32.4024 32.9293 32.9056 32.6263L47.1948 25.3536C47.9998 24.9495 48.9055 24.8485 49.8112 25.1515C50.7168 25.4546 51.4212 26.1616 51.8237 27.0707L53.635 31.2121C54.2388 33.1313 53.5344 35.3536 51.9244 36.1616"/>
	<path fill="#EBF4F7" d="M60.3772 29.2928C60.3772 34.202 56.4124 38.1817 51.5219 38.1817C46.6312 38.1817 42.6665 34.202 42.6665 29.2928C42.6665 24.3836 46.6312 20.4039 51.5219 20.4039C56.4124 20.4039 60.3772 24.3836 60.3772 29.2928"/>
	<path fill="#2D1B0A" d="M51.5219 39.7979C45.7861 39.7979 41.1572 35.1514 41.1572 29.3938C41.1572 23.6363 45.7861 18.9898 51.5219 18.9898C57.2577 18.9898 61.8867 23.6363 61.8867 29.3938C61.8867 35.1514 57.2577 39.7979 51.5219 39.7979M51.5219 21.9191C47.4968 21.9191 44.176 25.2524 44.176 29.2928C44.176 33.3332 47.4968 36.6666 51.5219 36.6666C55.5471 36.6666 58.8678 33.3332 58.8678 29.2928C58.8678 25.2524 55.6477 21.9191 51.5219 21.9191"/>
</svg>
