<?xml version="1.0" encoding="utf-8" ?>
<svg xmlns="http://www.w3.org/2000/svg" xmlns:xlink="http://www.w3.org/1999/xlink" width="88" height="96">
	<path fill="white" d="M7.18161 95.9003L7.18161 89.919L15.4759 89.919C18.9149 89.919 21.8483 87.5265 22.5563 84.3364L22.1517 83.2399C8.49655 75.5639 0 61.109 0 45.6573C0 39.0779 1.51724 32.4984 4.55172 26.6168L4.45057 25.5202C1.92184 22.729 0.505747 19.0405 0.505747 15.352C0.505747 6.8785 7.48506 0 16.0828 0C20.4322 0 24.5793 1.79439 27.5126 4.88474L28.6253 5.1838C33.4805 3.38941 38.6391 2.49221 44 2.49221C49.1586 2.49221 54.3172 3.38941 59.1724 5.1838L60.2851 4.88474C63.2184 1.79439 67.3655 0 71.6138 0C80.2115 0 87.1908 6.8785 87.1908 15.352C87.1908 19.0405 85.8759 22.5296 83.4483 25.3209L83.3471 26.4174C86.3816 32.3988 88 39.0779 88 45.757C88 59.6137 81.223 72.6729 69.7931 80.8474L69.3885 82.6417C69.3885 86.6293 72.6253 89.8193 76.6713 89.8193L84.9655 89.8193L84.9655 95.8006L76.6713 95.8006C70.5011 95.8006 65.1402 91.7134 63.7241 85.8318L63.4207 84.6355L62.308 85.134C56.6437 87.7259 50.3724 89.0218 44.1011 89.0218C39.1448 89.0218 34.2897 88.2243 29.6368 86.6293L28.423 87.2274C26.6023 92.5109 21.4437 96 15.7793 96L7.18161 96"/>
	<path fill="#2D1B0A" d="M15.8162 93.5008L9.4024 93.5008L9.4024 91.5173L15.8162 91.5173C21.0921 91.5173 25.3334 87.4512 25.3334 82.3934L25.3334 57.5008L27.4024 57.5008L27.4024 82.3934C27.4024 88.5421 22.23 93.5008 15.8162 93.5008"/>
	<path fill="#2D1B0A" d="M82.6972 93.3008L76.2834 93.3008C69.8696 93.3008 64.6972 88.3421 64.6972 82.1934L64.6972 57.3008L66.7662 57.3008L66.7662 82.1934C66.7662 87.2512 71.0075 91.3173 76.2834 91.3173L82.6972 91.3173L82.6972 93.3008"/>
	<path fill="#7FCCD1" d="M16.4006 27.7042C9.21841 27.7042 3.4935 21.8535 3.4935 14.749C3.4935 7.54007 9.3225 1.7938 16.4006 1.7938C23.4786 1.7938 29.4117 7.64455 29.4117 14.749C29.3076 21.958 23.4786 27.7042 16.4006 27.7042"/>
	<path fill="#2D1B0A" d="M16.4006 28.749C8.69795 28.749 2.4526 22.4803 2.4526 14.749C2.4526 7.01766 8.69795 0.749 16.4006 0.749C24.1032 0.749 30.4526 7.01766 30.4526 14.749C30.4526 22.4803 24.1032 28.749 16.4006 28.749M16.4006 2.83855C9.84293 2.83855 4.53438 8.16691 4.53438 14.749C4.53438 21.3311 9.84293 26.6594 16.4006 26.6594C22.9582 26.6594 28.3708 21.3311 28.3708 14.749C28.2667 8.16691 22.9582 2.83855 16.4006 2.83855"/>
	<path fill="#7FCCD1" d="M71.1974 27.7042C63.9885 27.7042 58.2422 21.8535 58.2422 14.749C58.2422 7.54007 64.0929 1.7938 71.1974 1.7938C78.3019 1.7938 84.1526 7.64455 84.1526 14.749C84.1526 21.958 78.4064 27.7042 71.1974 27.7042"/>
	<path fill="#2D1B0A" d="M71.1974 28.749C63.4661 28.749 57.1974 22.4803 57.1974 14.749C57.1974 7.01766 63.4661 0.749 71.1974 0.749C78.9287 0.749 85.1974 7.01766 85.1974 14.749C85.1974 22.4803 78.9287 28.749 71.1974 28.749M71.1974 2.83855C64.6153 2.83855 59.2869 8.16691 59.2869 14.749C59.2869 21.3311 64.6153 26.6594 71.1974 26.6594C77.7795 26.6594 83.1078 21.3311 83.1078 14.749C83.1078 8.16691 77.7795 2.83855 71.1974 2.83855"/>
	<path fill="#FFD071" d="M2.9153 45.2499C2.9153 67.8731 21.2774 86.2354 43.9004 86.2354C66.5234 86.2354 84.8855 67.8731 84.8855 45.2499C84.8855 22.6267 66.5234 4.2644 43.9004 4.2644C21.2774 4.2644 2.9153 22.6267 2.9153 45.2499"/>
	<path fill="#2D1B0A" d="M43.9004 87.2499C20.7699 87.2499 1.9004 68.3803 1.9004 45.2499C1.9004 22.1195 20.7699 3.2499 43.9004 3.2499C67.0305 3.2499 85.9004 22.1195 85.9004 45.2499C86.0014 68.3803 67.132 87.2499 43.9004 87.2499M43.9004 5.17744C21.8858 5.17744 3.92938 23.134 3.92938 45.1485C3.92938 67.1629 21.8858 85.1195 43.9004 85.1195C65.9146 85.1195 83.871 67.1629 83.871 45.1485C83.9725 23.134 66.016 5.17744 43.9004 5.17744"/>
	<path fill="#F9F1ED" d="M43.9006 73.3499C28.4007 73.3499 15.9009 60.7499 15.9009 45.3499C15.9009 29.9499 28.5007 17.3499 43.9006 17.3499C59.3 17.3499 71.9004 29.9499 71.9004 45.3499C71.9997 60.7499 59.4 73.3499 43.9006 73.3499"/>
	<path fill="#2D1B0A" d="M43.9006 74.3499C27.9005 74.3499 14.9006 61.3499 14.9006 45.3499C14.9006 29.3499 27.9005 16.3499 43.9006 16.3499C59.9002 16.3499 72.9006 29.3499 72.9006 45.3499C73 61.2499 59.9002 74.3499 43.9006 74.3499M43.9006 18.2499C29.0005 18.2499 16.9006 30.3499 16.9006 45.2499C16.9006 60.1499 29.0005 72.2499 43.9006 72.2499C58.8002 72.2499 70.9001 60.1499 70.9001 45.2499C71 30.3499 58.8002 18.2499 43.9006 18.2499"/>
	<path fill="#300604" d="M48.6269 52.4002C48.0299 52.4002 47.3333 52.1022 46.8358 51.7049L42.1592 47.036C41.6617 46.5393 41.4627 45.9433 41.4627 45.2479L41.4627 30.3473C41.4627 28.9565 42.5572 27.8638 44 27.8638C45.3433 27.8638 46.4378 28.9565 46.4378 30.3473L46.4378 44.1552L50.3184 48.0294C51.3134 49.0227 51.3134 50.6122 50.3184 51.5062C49.9204 52.2016 49.2239 52.4002 48.6269 52.4002M44 23.493C42.5572 23.493 41.4627 22.4002 41.4627 21.0095L41.4627 17.4333C41.4627 16.0426 42.5572 14.9499 44 14.9499C45.3433 14.9499 46.4378 16.0426 46.4378 17.4333L46.4378 21.0095C46.5373 22.4002 45.3433 23.493 44 23.493M44 74.9499C42.5572 74.9499 41.4627 73.8572 41.4627 72.4665L41.4627 68.8903C41.4627 67.4996 42.5572 66.4069 44 66.4069C45.3433 66.4069 46.4378 67.4996 46.4378 68.8903L46.4378 72.4665C46.5373 73.8572 45.3433 74.9499 44 74.9499M20.0697 47.4333L16.4876 47.4333C15.0945 47.4333 14 46.3406 14 44.9499C14 43.5592 15.0945 42.4665 16.4876 42.4665L20.0697 42.4665C21.4627 42.4665 22.5572 43.5592 22.5572 44.9499C22.5572 46.3406 21.4627 47.4333 20.0697 47.4333M71.5124 47.4333L67.9303 47.4333C66.5373 47.4333 65.4428 46.3406 65.4428 44.9499C65.4428 43.5592 66.5373 42.4665 67.9303 42.4665L71.5124 42.4665C72.9055 42.4665 74 43.5592 74 44.9499C74 46.3406 72.9055 47.4333 71.5124 47.4333"/>
</svg>
