<?xml version="1.0" encoding="utf-8" ?>
<svg xmlns="http://www.w3.org/2000/svg" xmlns:xlink="http://www.w3.org/1999/xlink" width="104" height="104">
	<path fill="white" d="M52 104C23.3346 104 0 80.6654 0 52C0 23.3346 23.3346 0 52 0C80.6654 0 104 23.3346 104 52C104 80.6654 80.6654 104 52 104"/>
	<path fill="#FFD071" d="M3.0174 51.7988C3.0174 78.8549 24.9439 100.781 52 100.781C79.0561 100.781 100.983 78.8549 100.983 51.7988C100.983 24.7427 79.0561 2.8162 52 2.8162C24.9439 2.8162 3.0174 24.7427 3.0174 51.7988"/>
	<path fill="#2D1B0A" d="M52 101.787C24.441 101.787 2.0116 79.3578 2.0116 51.7988C2.0116 24.2398 24.441 1.8104 52 1.8104C79.559 1.8104 101.988 24.2398 101.988 51.7988C101.888 79.3578 79.559 101.787 52 101.787M52 3.82201C25.5474 3.82201 4.02321 25.3462 4.02321 51.7988C4.02321 78.2514 25.5474 99.7756 52 99.7756C78.4526 99.7756 99.9768 78.2514 99.9768 51.7988C99.8762 25.3462 78.4526 3.82201 52 3.82201"/>
	<path fill="#FFF7EE" d="M12.1702 51.7989C12.1702 65.968 19.7137 79.1441 32.0851 86.2852C44.3559 93.4265 59.5435 93.4265 71.9149 86.2852C84.1857 79.1441 91.8298 66.0686 91.8298 51.7989C91.8298 29.7592 74.0271 11.9565 52 11.9565C29.9729 12.057 12.1702 29.8597 12.1702 51.7989"/>
	<path fill="#2D1B0A" d="M52 92.5841C44.9594 92.5841 37.9188 90.7737 31.5822 87.1528C19.0097 79.911 11.1644 66.3326 11.1644 51.7988C11.1644 29.3191 29.47 11.0135 52 11.0135C74.53 11.0135 92.8356 29.3191 92.8356 51.7988C92.8356 66.3326 84.9903 79.911 72.4178 87.1528C66.0812 90.7737 59.0406 92.5841 52 92.5841M52 13.0251C30.5764 13.0251 13.176 30.4255 13.176 51.7988C13.176 65.6286 20.6189 78.5029 32.588 85.4429C44.557 92.3829 59.4429 92.3829 71.412 85.4429C83.381 78.5029 90.824 65.6286 90.824 51.7988C90.7234 30.4255 73.323 13.0251 52 13.0251"/>
	<path fill="#300604" d="M50.0891 15.8918L54.3134 15.8918L54.3134 21.2225L50.0891 21.2225L50.0891 15.8918M36.0079 19.7138L38.6229 24.2399L35.0021 26.3521L32.3869 21.826L36.0079 19.7138M22.0272 32.0852L26.5534 34.7002L24.4411 38.3212L19.915 35.7061L22.0272 32.0852M16.1936 49.7873L21.5243 49.7873L21.5243 54.0117L16.1936 54.0117L16.1936 49.7873M24.5417 65.4779L26.6539 69.0988L22.1278 71.7139L20.0156 68.0929L24.5417 65.4779M35.0021 77.4469L38.6229 79.5591L36.0079 84.0851L32.3869 81.9729L35.0021 77.4469M50.0891 82.677L54.3134 82.677L54.3134 88.0078L50.0891 88.0078L50.0891 82.677M69.4006 77.4469L72.0157 81.9729L68.3947 84.0851L65.7796 79.5591L69.4006 77.4469M79.8609 65.4779L84.3869 68.0929L82.2747 71.7139L77.7486 69.0988L79.8609 65.4779M82.8783 49.7873L88.2091 49.7873L88.2091 54.0117L82.8783 54.0117L82.8783 49.7873M82.2747 32.0852L84.3869 35.7061L79.8609 38.3212L77.7486 34.7002L82.2747 32.0852M68.2942 19.7138L71.9151 21.826L69.2999 26.3521L65.679 24.2399L68.2942 19.7138"/>
	<path fill="#300604" d="M46.0657 66.2824L42.4449 64.0696L50.089 51.2959L50.089 29.3694L54.3134 29.3694L54.3134 52.5029L46.0657 66.2824"/>
</svg>
