<?xml version="1.0" encoding="utf-8" ?>
<svg xmlns="http://www.w3.org/2000/svg" xmlns:xlink="http://www.w3.org/1999/xlink" width="60" height="104">
	<path fill="white" d="M5.09151 104C2.29617 104 0 101.481 0 98.5581L0 81.4264C0 78.5039 2.29617 76.0853 5.09151 76.0853L6.08985 73.4651C4.69218 72.3566 3.89351 70.6434 3.89351 68.8295L3.89351 24.8915C3.89351 21.6667 6.48918 18.9457 9.68386 18.9457C11.2812 18.9457 12.6789 19.6512 13.777 20.6589L13.777 12.7984C13.777 9.57364 16.3727 6.85271 19.5674 6.85271C21.1647 6.85271 22.5624 7.55814 23.6606 8.56589L23.6606 5.94574C23.6606 2.72093 26.2562 0 29.4509 0C32.6456 0 35.2413 2.62016 35.2413 5.94574L35.2413 8.36434C36.2396 7.25581 37.7371 6.65116 39.3344 6.65116C42.5291 6.65116 45.1248 9.27132 45.1248 12.5969L45.1248 54.6202L48.4193 49.7829L48.4193 36.4806C48.4193 33.2558 51.015 30.5349 54.2097 30.5349C57.4043 30.5349 60 33.155 60 36.4806L60 56.3333C60 57.9457 59.401 59.4574 58.203 60.6667L45.9235 76.4884C47.9201 77.1938 49.3178 79.2093 49.3178 81.5271L49.3178 98.6589C49.3178 101.581 47.0216 104 44.2263 104L5.09151 104"/>
	<path fill="#FFE7DC" d="M9.08497 82.938L40.2331 82.938L40.2331 78.9069C40.2331 78.403 40.4327 77.9999 40.7322 77.5968L55.3079 58.8526C55.4078 58.6511 55.5076 58.5504 55.6074 58.4496C56.2064 57.845 56.6058 57.1395 56.6058 56.3334L56.6058 36.2791C56.6058 34.6666 55.4078 33.3565 53.8104 33.3565C52.3129 33.3565 51.0151 34.6666 51.0151 36.2791L51.0151 49.783C51.0151 50.1861 50.9153 50.6898 50.6158 50.9923L45.6241 58.4496C45.1249 59.2558 44.1266 59.5582 43.2281 59.2558C42.3296 58.9534 41.7306 58.1473 41.7306 57.2402L41.7306 12.3953C41.7306 10.7829 40.5326 9.47284 38.9352 9.47284C37.4377 9.47284 36.1399 10.7829 36.1399 12.3953L36.1399 41.5194C36.1399 42.7286 35.1415 43.6357 34.0434 43.6357C32.8454 43.6357 31.847 42.6278 31.847 41.5194L31.847 5.84493C31.847 4.23253 30.649 2.92245 29.0517 2.92245C27.5542 2.92245 26.2564 4.23253 26.2564 5.84493L26.2564 41.5194C26.2564 42.7286 25.258 43.6357 24.1598 43.6357C22.9618 43.6357 21.9635 42.6278 21.9635 41.5194L21.9635 12.6976C21.9635 11.0852 20.7655 9.77516 19.1682 9.77516C17.6707 9.77516 16.3728 11.0852 16.3728 12.6976L16.3728 41.5194C16.3728 42.7286 15.3745 43.6357 14.2763 43.6357C13.0783 43.6357 12.08 42.6278 12.08 41.5194L12.08 24.7906C12.08 23.1782 10.882 21.8681 9.28464 21.8681C7.78714 21.8681 6.4893 23.1782 6.4893 24.7906L6.4893 68.8294C6.4893 69.8372 6.98847 70.7441 7.6873 71.248C8.2863 71.6511 8.58581 72.3565 8.58581 73.062L8.58581 82.938"/>
	<path fill="#2D1B0A" d="M41.2314 83.9457L8.08664 83.9457L8.08664 72.9612C8.08664 72.5581 7.88697 72.2558 7.58747 72.0542C6.4893 71.3488 5.8903 70.1395 5.8903 68.8294L5.8903 24.7907C5.8903 22.6744 7.58747 20.8604 9.68398 20.8604C11.7805 20.8604 13.4776 22.5736 13.4776 24.7907L13.4776 41.5194C13.4776 42.124 13.9768 42.6279 14.6757 42.6279C15.2747 42.6279 15.7738 42.124 15.7738 41.5194L15.7738 12.6976C15.7738 10.5814 17.471 8.76741 19.5675 8.76741C21.664 8.76741 23.3612 10.4806 23.3612 12.6976L23.3612 41.5194C23.3612 42.124 23.8603 42.6279 24.5592 42.6279C25.1582 42.6279 25.6574 42.124 25.6574 41.5194L25.6574 5.84493C25.6574 3.72865 27.3545 1.9147 29.451 1.9147C31.5475 1.9147 33.2447 3.62788 33.2447 5.84493L33.2447 41.5194C33.2447 42.124 33.7439 42.6279 34.4427 42.6279C35.0417 42.6279 35.5409 42.124 35.5409 41.5194L35.5409 12.3953C35.5409 10.279 37.2381 8.46509 39.3346 8.46509C41.4311 8.46509 43.1282 10.1783 43.1282 12.3953L43.1282 57.2403C43.1282 57.7442 43.4277 58.1473 43.9269 58.3488C44.4261 58.4496 44.9252 58.3488 45.2247 57.8449L50.2164 50.3876C50.3163 50.186 50.4161 49.9845 50.4161 49.7829L50.4161 36.279C50.4161 34.1628 52.1133 32.3488 54.2098 32.3488C56.3063 32.3488 58.0034 34.062 58.0034 36.279L58.0034 56.2325C58.0034 57.3411 57.5043 58.3488 56.7056 59.155C56.6058 59.2558 56.6058 59.2558 56.5059 59.3566L41.8304 78.2015C41.6307 78.4031 41.6307 78.6046 41.6307 78.9069L41.2314 83.9457M10.0833 81.9302L39.2347 81.9302L39.2347 78.9069C39.2347 78.2015 39.4344 77.4961 39.9336 76.9922L54.5093 58.248C54.6091 58.1473 54.8088 57.9457 54.9086 57.7442C55.3079 57.3411 55.5076 56.8372 55.5076 56.3333L55.5076 36.279C55.5076 35.2713 54.7089 34.3643 53.7106 34.3643C52.7123 34.3643 51.9136 35.1705 51.9136 36.279L51.9136 49.7829C51.9136 50.3876 51.7139 50.9922 51.4144 51.5969L46.4227 59.0542C45.6241 60.1628 44.2264 60.6666 42.9286 60.2635C41.6307 59.8604 40.7322 58.6511 40.7322 57.2403L40.7322 12.3953C40.7322 11.3876 39.9336 10.4806 38.9352 10.4806C37.9369 10.4806 37.1382 11.2868 37.1382 12.3953L37.1382 41.5194C37.1382 43.2325 35.7405 44.6434 34.0434 44.6434C32.3462 44.6434 30.8487 43.2325 30.8487 41.5194L30.8487 5.84493C30.8487 4.83718 30.05 3.9302 29.0517 3.9302C28.0534 3.9302 27.2547 4.73641 27.2547 5.84493L27.2547 41.5194C27.2547 43.2325 25.857 44.6434 24.1599 44.6434C22.4627 44.6434 20.9652 43.2325 20.9652 41.5194L20.9652 12.6976C20.9652 11.6899 20.1665 10.7829 19.1682 10.7829C18.1698 10.7829 17.3712 11.5891 17.3712 12.6976L17.3712 41.5194C17.3712 43.2325 15.9735 44.6434 14.2763 44.6434C12.5792 44.6434 11.0816 43.2325 11.0816 41.5194L11.0816 24.7907C11.0816 23.7829 10.283 22.8759 9.28464 22.8759C8.28631 22.8759 7.48764 23.6821 7.48764 24.7907L7.48764 68.8294C7.48764 69.4341 7.78714 70.0387 8.28631 70.4418C9.18481 71.0465 9.68398 72.0542 9.68398 73.062L9.68398 81.9302"/>
	<path fill="#300604" d="M43.7271 100.977L5.09151 100.977C3.8935 100.977 2.995 99.969 2.995 98.6589L2.995 81.5271C2.995 80.217 3.99334 79.2093 5.09151 79.2093L43.7271 79.2093C44.9251 79.2093 45.8236 80.217 45.8236 81.5271L45.8236 98.6589C45.8236 99.969 44.9251 100.977 43.7271 100.977"/>
	<path fill="#2D1B0A" d="M43.7271 101.481L5.09147 101.481C3.59397 101.481 2.4958 100.171 2.4958 98.6589L2.4958 81.5271C2.4958 79.9147 3.6938 78.7054 5.09147 78.7054L43.7271 78.7054C45.2246 78.7054 46.3228 80.0155 46.3228 81.5271L46.3228 98.6589C46.3228 100.171 45.1248 101.481 43.7271 101.481M5.09147 79.6124C4.19297 79.6124 3.49414 80.4186 3.49414 81.4263L3.49414 98.5581C3.49414 99.5659 4.19297 100.372 5.09147 100.372L43.7271 100.372C44.6256 100.372 45.3244 99.5659 45.3244 98.5581L45.3244 81.4263C45.3244 80.4186 44.6256 79.6124 43.7271 79.6124L5.09147 79.6124"/>
</svg>
