<?xml version="1.0" encoding="utf-8" ?>
<svg xmlns="http://www.w3.org/2000/svg" xmlns:xlink="http://www.w3.org/1999/xlink" width="72" height="98">
	<path fill="white" d="M6.71866 98C3.00836 98 0 94.9753 0 91.2449L0 17.4424C0 13.7119 3.00836 10.6872 6.71866 10.6872L20.156 10.6872C20.9582 9.88066 21.961 9.27572 23.0641 8.97325C25.0696 3.62963 30.1838 0 35.8997 0C41.6156 0 46.7298 3.62963 48.6351 8.97325C49.7382 9.27572 50.7409 9.88066 51.5432 10.6872L65.2813 10.6872C68.9916 10.6872 72 13.7119 72 17.4424L72 91.2449C72 94.9753 68.9916 98 65.2813 98L6.71866 98"/>
	<path fill="#581166" d="M65.2312 13.8127C67.2368 13.8127 68.9415 15.4259 68.9415 17.5431L68.9415 91.3456C68.9415 93.3621 67.3371 95.0761 65.2312 95.0761L6.76881 95.0761C4.76324 95.0761 3.0585 93.4629 3.0585 91.3456L3.0585 17.5431C3.0585 15.5267 4.66296 13.8127 6.76881 13.8127L65.2312 13.8127"/>
	<path fill="#F9BF5A" d="M65.2312 13.8127C67.2368 13.8127 68.9415 15.4259 68.9415 17.5431L68.9415 91.3456C68.9415 93.3621 67.3371 95.0761 65.2312 95.0761L6.76881 95.0761C4.76324 95.0761 3.0585 93.4629 3.0585 91.3456L3.0585 17.5431C3.0585 15.5267 4.66296 13.8127 6.76881 13.8127L65.2312 13.8127"/>
	<path fill="#2D1B0A" d="M65.2312 95.9835L6.76879 95.9835C4.16155 95.9835 2.0557 93.8663 2.0557 91.2449L2.0557 17.4424C2.0557 14.821 4.16155 12.7037 6.76879 12.7037L65.2312 12.7037C67.8384 12.7037 69.9443 14.821 69.9443 17.4424L69.9443 91.2449C69.844 93.8663 67.7382 95.9835 65.2312 95.9835M6.66851 14.821C5.16434 14.821 3.96099 16.0309 3.96099 17.5432L3.96099 91.3457C3.96099 92.858 5.16434 94.0679 6.66851 94.0679L65.1309 94.0679C66.6351 94.0679 67.8384 92.858 67.8384 91.3457L67.8384 17.5432C67.8384 16.0309 66.6351 14.821 65.1309 14.821L6.66851 14.821"/>
	<path fill="#FFE7DC" d="M11.1812 19.8622L60.8191 19.8622L60.8191 87.212L11.1812 87.212L11.1812 19.8622"/>
	<path fill="#2D1B0A" d="M61.8219 88.321L10.1784 88.321L10.1784 18.9547L61.8219 18.9547L61.8219 88.321M12.184 86.3045L59.8163 86.3045L59.8163 20.9712L12.184 20.9712L12.184 86.3045"/>
	<path fill="#E63B56" d="M35.7994 3.12558C40.4121 3.12558 44.4232 6.04945 45.8271 10.3848L46.2282 11.6955C48.7352 11.6955 50.7408 13.712 50.7408 16.2326C50.7408 18.9548 48.7352 20.9713 46.2282 20.9713L25.1698 20.9713C22.6628 20.9713 20.6572 18.9548 20.6572 16.4342C20.6572 13.712 22.6628 11.6955 25.1698 11.6955L25.5709 10.3848C27.1754 6.04945 31.2868 3.12558 35.7994 3.12558"/>
	<path fill="#2D1B0A" d="M46.3308 21.9795L25.2705 21.9795C22.2619 21.9795 19.7547 19.459 19.7547 16.4342C19.7547 13.4095 21.8607 11.0906 24.4682 10.7881C26.2734 5.34369 30.686 2.11735 35.7004 2.11735C40.7147 2.11735 45.1273 5.34369 46.7319 10.0824C49.6403 11.1914 51.7492 13.5103 51.7492 16.2325C51.8466 19.5597 49.3394 21.9795 46.3308 21.9795M25.2705 12.7038C23.365 12.7038 21.7604 14.3169 21.7604 16.2325C21.7604 18.3498 23.365 19.963 25.2705 19.963L46.3308 19.963C48.2363 19.963 49.8408 18.3498 49.8408 16.4342C49.8408 14.3169 48.2363 12.7038 46.3308 12.7038L44.9268 10.6873C43.623 6.75521 39.9124 4.13381 35.8006 4.13381C31.6889 4.13381 27.9782 6.75521 26.6745 10.7881L25.9725 12.8046"/>
	<path fill="white" d="M33.0418 12.9053C33.0418 13.9135 33.6435 14.9218 34.546 15.4259C35.4485 15.93 36.5515 15.93 37.454 15.4259C38.3565 14.9218 38.9582 13.9135 38.9582 12.9053C38.9582 11.2921 37.6546 9.98143 36.0501 9.98143C34.3454 9.98143 33.0418 11.2921 33.0418 12.9053"/>
	<path fill="#300604" d="M52.9471 70.072L18.8524 70.072C18.351 70.072 18.0502 70.4753 18.0502 70.8786C18.0502 71.3827 18.4513 71.6852 18.8524 71.6852L52.9471 71.6852C53.4485 71.6852 53.7648 71.2819 53.7648 70.8786C53.8496 70.4753 53.4485 70.072 52.9471 70.072M52.9471 76.1214L18.8524 76.1214C18.351 76.1214 18.0502 76.5247 18.0502 76.928C18.0502 77.4321 18.4513 77.7346 18.8524 77.7346L52.9471 77.7346C53.4485 77.7346 53.7648 77.3313 53.7648 76.928C53.8496 76.5247 53.4485 76.1214 52.9471 76.1214M33.7939 54.2428L18.8524 54.2428C18.351 54.2428 18.0502 54.6461 18.0502 55.0494C18.0502 55.5535 18.4513 55.856 18.8524 55.856L33.7939 55.856C34.2953 55.856 34.5962 55.4527 34.5962 55.0494C34.5962 54.5453 34.2953 54.2428 33.7939 54.2428M33.7939 60.1914L18.8524 60.1914C18.351 60.1914 18.0502 60.5947 18.0502 60.9979C18.0502 61.5021 18.4513 61.8045 18.8524 61.8045L33.7939 61.8045C34.2953 61.8045 34.5962 61.4012 34.5962 60.9979C34.5962 60.5947 34.2953 60.1914 33.7939 60.1914"/>
</svg>
