<?xml version="1.0" encoding="utf-8" ?>
<svg xmlns="http://www.w3.org/2000/svg" xmlns:xlink="http://www.w3.org/1999/xlink" width="124" height="80">
	<path fill="white" d="M6.27753 79.4937C4.87697 79.4937 3.57644 78.7848 2.77612 77.6709C2.67608 77.5696 2.67608 77.4684 2.57604 77.3671C1.77572 76.4557 0.775313 75.3418 0.375151 73.8228C-0.225091 71.5949 0 67.6456 0 67.6456C0 67.5443 0 67.5443 0 67.443C0.175071 64.5063 2.07584 63.4937 3.67648 63.4937L8.87858 63.4937L8.87858 7.29114C8.87858 3.24051 12.0799 0 16.0815 0L107.919 0C111.92 0 115.121 3.24051 115.121 7.29114L115.121 63.4937L119.523 63.4937C121.824 63.4937 123.625 65.2152 123.825 67.443C124 69.4684 124.125 72.2025 123.725 73.8228C123.325 75.2405 122.224 76.4557 120.824 77.7722C120.624 77.9747 120.324 78.1772 120.223 78.2785C119.523 79.2911 118.223 80 116.822 80L6.27753 79.4937"/>
	<path fill="#A5E3E5" d="M107.907 68.5568L16.0933 68.5568C13.793 68.5568 11.8927 66.6328 11.8927 64.3037L11.8927 7.39226C11.8927 5.06315 13.793 3.1391 16.0933 3.1391L107.907 3.1391C110.207 3.1391 112.108 5.06315 112.108 7.39226L112.108 64.3037C112.108 66.6328 110.207 68.5568 107.907 68.5568"/>
	<path fill="#2D1B0A" d="M107.907 69.5695L16.0933 69.5695C13.1929 69.5695 10.8926 67.2404 10.8926 64.3037L10.8926 7.39237C10.8926 4.45566 13.1929 2.12655 16.0933 2.12655L107.907 2.12655C110.807 2.12655 113.108 4.45566 113.108 7.39237L113.108 64.3037C113.108 67.2404 110.807 69.5695 107.907 69.5695M16.0933 4.15187C14.2931 4.15187 12.8929 5.56959 12.8929 7.39237L12.8929 64.3037C12.8929 66.1265 14.2931 67.5443 16.0933 67.5443L107.907 67.5443C109.707 67.5443 111.108 66.1265 111.108 64.3037L111.108 7.39237C111.108 5.56959 109.707 4.15187 107.907 4.15187L16.0933 4.15187"/>
	<path fill="#FCFCFC" d="M103.706 11.4429L20.2939 11.4429L20.2939 67.5442L53.8988 67.5442L54.1988 68.6581L70.2011 68.6581L70.9012 67.5442L103.706 67.5442L103.706 11.4429"/>
	<path fill="#2D1B0A" d="M70.8013 69.5695L53.4988 69.5695L53.1987 68.4556L19.2938 68.4556L19.2938 10.3289L104.706 10.3289L104.706 68.4556L71.4013 68.4556L70.8013 69.5695M54.999 67.5442L69.7011 67.5442L70.4012 66.4303L102.706 66.4303L102.706 12.3543L21.2941 12.3543L21.2941 66.4303L54.6989 66.4303L54.999 67.5442"/>
	<path fill="#FFD15F" d="M48.8981 40.5063C48.8981 45.2658 51.3985 49.6202 55.3991 51.9494C59.3996 54.2785 64.4003 54.2785 68.5009 51.9494C72.5015 49.6202 75.0019 45.2658 75.0019 40.5063C75.0019 33.2152 69.201 27.2405 61.9 27.2405C54.699 27.2405 48.8981 33.2152 48.8981 40.5063"/>
	<path fill="#2D1B0A" d="M61.9001 54.7848C59.4998 54.7848 56.9994 54.1772 54.8991 52.8606C50.5985 50.329 47.8981 45.5695 47.8981 40.5062C47.8981 32.6075 54.199 26.2278 62.0001 26.2278C69.8013 26.2278 76.1022 32.6075 76.1022 40.5062C76.1022 45.5695 73.4018 50.329 69.1012 52.8606C66.8008 54.0759 64.4005 54.7848 61.9001 54.7848M61.9001 28.2531C55.2992 28.2531 49.7984 33.7214 49.7984 40.5062C49.7984 44.8606 52.0987 48.9113 55.7992 51.0378C59.4998 53.1645 64.1004 53.1645 67.901 51.0378C71.6015 48.9113 73.9019 44.8606 73.9019 40.5062C74.0019 33.8227 68.6011 28.2531 61.9001 28.2531"/>
	<path fill="#E63B56" d="M58.2382 34.7342L58.2382 46.3798L69.2398 40.405L58.2382 34.7342"/>
	<path fill="#2D1B0A" d="M57.2381 48.1012L57.2381 33.1139L71.3401 40.405L57.2381 48.1012M59.2384 36.3544L59.2384 44.6582L67.0395 40.405L59.2384 36.3544"/>
	<path fill="#2D1B0A" d="M116.672 78.5823L6.31364 77.9746C5.41316 77.9746 4.61274 77.5696 4.01243 76.7595C3.91237 76.6582 3.71227 76.4557 3.61222 76.2532C3.0119 75.5443 2.11143 74.6329 1.81127 73.4177C1.31101 71.7975 1.4861 68.4557 1.61117 67.7468C1.61117 67.6456 1.61117 67.5443 1.61117 67.443C1.61117 65.3164 2.91185 65.0126 3.71227 65.0126L54.0387 65.0126C55.5395 65.0126 56.7401 66.1266 56.8402 67.5443L66.4452 67.5443C66.5453 66.1266 67.7459 65.0126 69.2467 65.0126L119.573 65.0126C121.074 65.0126 122.274 66.1266 122.375 67.6456C122.514 69.1646 122.675 72 122.274 73.519C121.974 74.6329 120.974 75.5443 119.773 76.7595C119.473 76.9621 119.173 77.3671 119.073 77.4684C118.472 78.1772 117.572 78.5823 116.672 78.5823M6.41369 74.9367L116.571 75.5443C116.772 75.2404 117.172 74.9367 117.572 74.5316C117.972 74.1266 119.073 73.1139 119.173 72.7088C119.373 72.1013 119.373 70.1772 119.173 68.1519L69.2467 68.1519L69.2467 70.6835L53.6385 70.6835L53.6385 68.1519L4.41264 68.1519C4.31259 69.1646 4.31259 71.6962 4.51269 72.7088C4.61274 73.1139 5.21306 73.8228 5.61327 74.3291C6.11353 74.5316 6.31364 74.7342 6.41369 74.9367"/>
	<path fill="#425477" d="M116.734 77.0633L6.39688 76.4557C5.99674 76.4557 5.59661 76.2532 5.29651 75.9494C4.89638 75.3418 3.59594 74.2278 3.29584 73.1139C3.0063 71.7975 3.0063 68.962 3.0063 68.0506C3.19581 67.3418 3.0063 66.7342 3.69597 66.7342L54.0128 66.7342C54.7131 66.7342 55.3133 67.3418 55.3133 68.0506L55.3133 69.2658L67.9175 69.2658L67.9175 68.0506C67.9175 67.3418 68.5177 66.7342 69.2179 66.7342L119.534 66.7342C120.235 66.7342 120.835 67.2405 120.835 67.9494C120.993 68.8607 121.135 72 120.835 73.3165C120.535 74.4304 118.334 76.0506 117.834 76.6582C117.634 76.8608 117.234 77.0633 116.734 77.0633"/>
</svg>
