<?xml version="1.0" encoding="utf-8" ?>
<svg xmlns="http://www.w3.org/2000/svg" xmlns:xlink="http://www.w3.org/1999/xlink" width="92" height="84">
	<path fill="white" d="M27.2838 83.2924C24.0502 82.9892 21.0186 80.5632 19.6039 77.0253C17.5829 72.0722 19.1997 66.8159 23.3428 65.0975C23.5449 64.9964 23.646 64.9964 23.8481 64.8953L26.8796 63.6823C21.4229 62.7726 16.2692 61.1552 14.3493 58.2238L14.6524 59.9422C14.9556 61.5596 14.5514 63.278 13.4398 64.491C12.4293 65.704 10.9135 66.4116 9.29671 66.4116L6.46728 66.4116C4.85046 66.4116 3.33469 65.704 2.32418 64.491C1.31367 63.278 0.808409 61.5596 1.11156 59.9422L2.52628 52.2599C2.52628 51.9567 2.62733 51.7545 2.72838 51.4513C2.22313 50.5415 1.91997 49.5307 1.91997 48.4188C1.91997 47.2058 2.32418 45.9928 3.03154 44.9819L3.03154 25.4729C3.03154 25.3718 3.03154 25.2708 3.03154 25.1697C1.21261 24.4621 0 22.8448 0 21.0253C0 19.2058 1.01051 17.4874 2.62733 16.7798L37.6921 0.909747C39.1068 0.303249 40.5215 0 42.0373 0C43.5531 0 45.0688 0.303249 46.4835 1.01083L81.7504 17.3863C83.3672 18.1949 84.4788 19.8123 84.3777 21.6318C84.2767 23.4513 83.1651 25.0686 81.4473 25.6751L71.2411 29.4152L71.2411 45.4874L79.4262 42.2527C79.7294 42 80.0325 42 80.4367 41.7473C81.2452 41.444 82.0536 41.2419 82.963 41.2419C86.2977 41.2419 89.6324 43.769 91.1482 47.4079C92 49.5307 92.2597 51.9567 91.6534 53.9783C91.2492 55.3935 90.5419 56.7076 89.5314 57.6173L74.3737 64.491L76.5968 65.1986C78.6178 65.9061 79.8304 67.6245 79.9315 69.7473C80.0325 71.87 78.8199 73.6895 76.7989 74.4982L75.1821 75.1047C74.5758 75.3069 73.9695 75.509 73.2621 75.509C72.5548 75.509 71.8474 75.4079 71.2411 75.1047L68.3106 73.7906C68.0074 76.722 66.6938 78.5415 64.7738 79.4513C63.7633 79.8556 63.0559 79.9567 62.3486 79.9567C60.7318 79.9567 59.216 79.2491 58.1044 78.0361C57.0939 76.8231 56.5887 75.2058 56.7908 73.6895L56.9929 71.6679L27.2838 84M13.0356 51.5523C13.1367 51.8556 13.2377 52.0578 13.2377 52.361L13.5409 54.1805L13.5409 50.4404C13.4398 50.7437 13.2377 51.148 13.0356 51.5523M13.0356 45.4874C13.2377 45.8917 13.4398 46.296 13.5409 46.7004L13.5409 29.4152L13.0356 45.4874"/>
	<path fill="#32343D" d="M16.6761 28.5054L16.6761 55.7978C16.9794 59.1336 28.4 61.7617 42.4485 61.7617C56.4969 61.7617 67.9176 59.1336 68.2208 55.7978L68.2208 28.5054L16.6761 28.5054"/>
	<path fill="#2D1B0A" d="M42.4486 62.7725C29.4109 62.7725 16.0698 60.4476 15.6656 55.8988L15.6656 27.4945L69.2317 27.4945L69.2317 55.7977C68.8273 60.3465 55.3853 62.7725 42.4486 62.7725M17.6869 29.5162L17.6869 55.7977C17.889 57.7183 27.5915 60.7509 42.4486 60.7509C58.6194 60.7509 67.0081 57.5163 67.2103 55.6967L67.2103 29.5162L17.6869 29.5162"/>
	<path fill="#32343D" d="M4.04281 19.6101L39.1135 3.74006C41.1348 2.83031 43.3583 2.83031 45.3797 3.74006L80.6525 20.1156C81.8652 20.7221 81.7642 22.4405 80.5514 22.8448L45.0765 36.1878C43.3583 36.7943 41.438 36.7943 39.7199 36.1878L4.14387 22.4405C2.93106 21.9351 2.82999 20.1156 4.04281 19.6101"/>
	<path fill="#2D1B0A" d="M42.5091 37.704C41.5433 37.704 40.4314 37.5018 39.5217 37.0975L3.94182 23.3501C2.93103 22.9457 2.32455 22.1371 2.32455 21.0252C2.32455 20.0143 2.82995 19.1046 3.84074 18.7003L38.9152 2.83027C41.139 1.81944 43.7671 1.81944 45.9907 2.83027L81.2674 19.2057C82.1771 19.6101 82.7835 20.5198 82.6934 21.6318C82.6934 22.6425 81.9749 23.5522 81.0652 23.8555L45.5865 37.1986C44.5756 37.5018 43.5648 37.704 42.5091 37.704M4.54829 20.5198C4.24505 20.6208 4.24505 20.9241 4.24505 21.0252C4.24505 21.1263 4.24505 21.3284 4.54829 21.5306L40.1282 35.278C41.6444 35.8845 43.2617 35.8845 44.7779 35.278L80.2566 21.9349C80.5598 21.8338 80.5598 21.6318 80.5598 21.5306C80.5598 21.4296 80.5598 21.2273 80.2566 21.0252L44.9799 4.64977C43.2617 3.8411 41.2401 3.8411 39.5217 4.64977L4.54829 20.5198"/>
	<path fill="#FFD473" d="M34.4644 21.2274L10.4101 21.2274C8.08554 21.2274 6.16525 23.148 6.16525 25.574L6.16525 45.7906C6.16525 46.9025 7.07486 47.8122 8.08554 47.8122C9.19729 47.8122 10.0058 46.9025 10.0058 45.7906L10.0058 27.1913C10.0058 26.0794 10.9154 25.1696 11.9261 25.1696L34.4644 25.1696C35.7781 25.1696 36.6879 23.8556 36.2836 22.5415C35.9804 21.7328 35.2729 21.2274 34.4644 21.2274"/>
	<path fill="#2D1B0A" d="M8.08552 48.8232C6.46843 48.8232 5.15455 47.509 5.15455 45.7906L5.15455 25.574C5.15455 22.6426 7.47912 20.2166 10.4101 20.2166L34.4642 20.2166C35.6772 20.2166 36.7888 21.0253 37.2941 22.2383C37.5975 23.1481 37.4963 24.1589 36.8899 24.9675C36.2836 25.7762 35.4749 26.1805 34.4642 26.1805L11.9261 26.1805C11.4208 26.1805 11.0165 26.5849 11.0165 27.1914L11.0165 45.7906C11.1176 47.4079 9.70261 48.8232 8.08552 48.8232M10.4101 22.2383C8.69193 22.2383 7.17591 23.7546 7.17591 25.574L7.17591 45.7906C7.17591 46.296 7.58018 46.8014 8.08552 46.8014C8.59086 46.8014 8.99514 46.3971 8.99514 45.7906L8.99514 27.1914C8.99514 25.574 10.309 24.1589 11.9261 24.1589L34.4642 24.1589C34.7674 24.1589 35.0706 24.0578 35.1717 23.7546C35.374 23.4513 35.374 23.1481 35.2729 22.8448C35.1717 22.4405 34.7674 22.2383 34.3633 22.2383L10.4101 22.2383"/>
	<path fill="#F47A62" d="M9.39942 63.379L6.56952 63.379C5.05349 63.379 4.04281 61.9638 4.21925 60.5487L5.6599 52.8663C5.86203 51.7544 6.87271 50.8447 7.98446 50.8447C9.09621 50.8447 10.1069 51.6533 10.309 52.8663L11.724 60.5487C12.0272 61.9638 10.9154 63.379 9.39942 63.379"/>
	<path fill="#2D1B0A" d="M9.39942 64.3898L6.56951 64.3898C5.55883 64.3898 4.64922 63.9855 4.04281 63.1768C3.26104 62.3681 3.13319 61.3574 3.26104 60.3465L4.75028 52.6642C5.05349 51.0469 6.46844 49.8339 8.07912 49.8339C9.70262 49.8339 11.1176 51.0469 11.4208 52.6642L12.8357 60.3465C13.0379 61.3574 12.7347 62.4692 12.0272 63.1768C11.3197 63.9855 10.4101 64.3898 9.39942 64.3898M7.98446 51.8555C7.37805 51.8555 6.77165 52.3609 6.67058 52.9674L5.25562 60.6497C5.15456 61.0541 5.25562 61.5595 5.55883 61.8628C5.86203 62.166 6.16524 62.3681 6.56951 62.3681L9.39942 62.3681C9.80369 62.3681 10.1069 62.166 10.4101 61.8628C10.7133 61.5595 10.8144 61.0541 10.7133 60.6497L9.29835 52.9674C9.19728 52.2598 8.69194 51.8555 7.98446 51.8555"/>
	<path fill="#F47A62" d="M5.15457 48.4187C5.15457 50.0361 6.46845 51.3501 8.08554 51.3501C9.70263 51.3501 11.0165 50.0361 11.0165 48.4187C11.0165 46.8014 9.70263 45.4873 8.08554 45.4873C6.36739 45.4873 5.15457 46.8014 5.15457 48.4187"/>
	<path fill="#2D1B0A" d="M7.98446 52.2599C5.86204 52.2599 4.04281 50.5415 4.04281 48.3177C4.04281 46.1949 5.76097 44.3754 7.98446 44.3754C10.208 44.3754 11.9261 46.0938 11.9261 48.3177C11.9261 50.5415 10.1069 52.2599 7.98446 52.2599M7.98446 46.4982C6.97378 46.4982 6.06417 47.3068 6.06417 48.4187C6.06417 49.4296 6.87272 50.3393 7.98446 50.3393C9.09621 50.3393 9.90476 49.5306 9.90476 48.4187C9.90476 47.4079 8.99515 46.4982 7.98446 46.4982"/>
	<path fill="#F47A62" d="M42.4486 26.0794C38.8102 26.0794 35.1717 24.8664 35.1717 22.5415C35.1717 20.5198 38.608 17.1841 42.4486 17.1841C46.2892 17.1841 49.7255 20.5198 49.7255 22.5415C49.7255 24.8664 45.986 26.0794 42.4486 26.0794"/>
	<path fill="#2D1B0A" d="M42.4486 27.0903C38.4059 27.0903 34.161 25.6751 34.161 22.5415C34.161 19.7112 38.2038 16.1733 42.4486 16.1733C46.6935 16.1733 50.7362 19.8122 50.7362 22.5415C50.7362 25.6751 46.3903 27.0903 42.4486 27.0903M42.4486 18.1949C39.1134 18.1949 36.1824 21.1263 36.1824 22.5415C36.1824 23.9566 39.0123 25.0686 42.4486 25.0686C45.8849 25.0686 48.7148 23.9566 48.7148 22.5415C48.7148 21.1263 45.7838 18.1949 42.4486 18.1949"/>
	<path fill="#FFECC5" d="M88.5358 48.6209C87.2218 45.3862 84.1898 43.5667 81.7641 44.5776C81.562 44.6786 81.2589 44.7797 81.0567 44.9819L24.5597 67.8267L29.4109 80.1588L86.1102 56.6065C86.3123 56.5054 86.5144 56.4043 86.6154 56.3032C88.94 55.2924 89.8497 51.8555 88.5358 48.6209"/>
	<path fill="#2D1B0A" d="M28.8047 81.4729L23.2458 67.2202L80.5522 43.9711C80.7543 43.87 81.0575 43.6678 81.3607 43.5667C82.5737 43.0613 83.8876 43.0613 85.2014 43.6678C87.0206 44.3754 88.5368 46.0938 89.4464 48.2166C90.1578 49.935 90.3559 51.8556 89.9517 53.4729C89.5474 55.0903 88.6377 56.3033 87.3239 56.9097L28.8047 81.4729M25.8737 68.3321L29.9164 78.7437L84.696 55.8988L85.8078 55.3935C85.909 55.3935 86.0099 55.2924 86.1111 55.2924C87.0206 54.8881 87.6271 54.0794 87.9303 52.9675C88.2336 51.7545 88.1324 50.3393 87.526 48.9241C86.9196 47.3068 85.7067 46.0938 84.3929 45.4873C83.7865 45.2852 82.9778 45.083 82.0683 45.3862C81.8661 45.4873 81.6639 45.5884 81.563 45.6895L25.8737 68.3321"/>
	<path fill="#BCAA8B" d="M22.4371 75.7111C23.8521 79.0469 26.9852 80.9675 29.5119 79.8556C32.0386 78.8447 32.9482 75.3068 31.5333 71.87C30.1183 68.4332 26.9852 66.6137 24.4585 67.7256C22.0329 68.8375 21.1233 72.3754 22.4371 75.7111"/>
	<path fill="#2D1B0A" d="M28.0969 81.2784C25.4692 81.2784 22.8414 79.2567 21.5275 76.2242C19.9104 72.3831 21.1233 68.2387 24.1553 66.9246C25.6713 66.3181 27.3895 66.5779 29.0066 67.43C30.5226 68.3398 31.7354 69.856 32.5439 71.6755C34.161 75.5166 32.9482 79.661 29.9162 80.9751C29.3098 81.1773 28.7034 81.2784 28.0969 81.2784M23.3467 75.4156C24.5596 78.2459 27.0863 79.8632 29.1076 79.0545C31.129 78.2459 31.7354 75.2134 30.6236 72.4842C30.0172 71.069 29.1076 69.9571 27.8948 69.2495C26.8841 68.643 25.7724 68.4408 24.8628 68.8452C22.9425 69.5527 22.235 72.5852 23.3467 75.4156"/>
	<path fill="#F47A62" d="M60.0346 53.7761C59.0239 54.1804 58.1143 54.4837 57.71 55.4945C59.226 56.101 61.3485 57.8194 62.0559 59.74C62.8645 61.6606 62.6623 64.4909 62.0559 66.0071C63.0666 66.4115 63.8752 65.805 64.8858 65.4006C67.3115 64.3898 67.9179 61.0541 66.604 57.8194C65.189 54.6859 62.4602 52.7653 60.0346 53.7761"/>
	<path fill="#2D1B0A" d="M62.6623 67.2202C62.3591 67.2202 61.9549 67.119 61.5506 67.018L61.0452 65.7039C61.5506 64.3898 61.7527 61.8628 61.0452 60.2454C60.3378 58.6281 58.5186 57.1118 57.2047 56.5053L56.6993 55.1913C57.2047 53.8772 58.4175 53.3718 59.3271 53.0685C60.7421 52.462 62.0559 52.462 63.2688 53.0685C65.088 53.7761 66.604 55.4945 67.5136 57.7183C68.4232 59.9422 68.5243 62.2671 67.8168 63.9855C67.3115 65.1984 66.4019 66.1083 65.2901 66.6136C65.088 66.7148 64.8858 66.8158 64.7848 66.8158C64.0773 66.9169 63.4709 67.2202 62.6623 67.2202M59.226 55.1913C60.641 56.101 62.2581 57.7183 62.9655 59.3357C63.673 61.0541 63.673 63.1768 63.3698 64.9964C63.4709 64.8952 63.673 64.8952 63.8752 64.7942C64.0773 64.6931 64.2794 64.5919 64.4816 64.491C65.088 64.1877 65.5933 63.6823 65.8965 62.9747C66.4019 61.7617 66.3008 59.9422 65.5933 58.2238C64.8858 56.5053 63.673 55.1913 62.4602 54.6859C61.7527 54.3826 61.0452 54.3826 60.3378 54.6859C59.7314 54.9891 59.4282 55.0902 59.226 55.1913"/>
	<path fill="#F47A62" d="M61.0452 67.018L60.1209 74.1949C59.9335 76.1154 61.8538 77.6317 63.673 76.9241C64.8858 76.4187 65.4922 75.61 65.5933 74.5992L66.1997 64.9963L61.0452 67.018"/>
	<path fill="#2D1B0A" d="M62.7634 78.0361C61.9548 78.0361 61.2474 77.7327 60.5399 77.3285C59.5292 76.5198 59.1122 75.3068 59.1122 74.0938L60.0346 66.4115L67.3115 63.4801L66.604 74.7003C66.5029 76.1155 65.6944 77.2274 64.3805 77.7327C63.673 77.935 63.1677 78.0361 62.7634 78.0361M61.9548 67.7255L61.1463 74.296C61.0452 74.9025 61.2474 75.4079 61.7527 75.7111C62.157 76.0144 62.7634 76.1155 63.2687 75.9133C64.0773 75.6101 64.4815 75.1046 64.5826 74.4982L65.088 66.5125L61.9548 67.7255"/>
	<path fill="#F47A62" d="M66.1997 64.8952L75.8012 68.231C77.5193 68.8375 77.5193 71.1624 75.9023 71.87L74.2852 72.5775C73.7798 72.7797 73.2745 72.7797 72.7691 72.5775L60.9442 67.1191L66.1997 64.8952"/>
	<path fill="#2D1B0A" d="M73.5776 73.5884C73.1734 73.5884 72.7691 73.4873 72.3648 73.2851L58.5185 66.9169L66.1997 63.7833L76.2054 67.2201C77.4182 67.6245 78.1257 68.6353 78.2268 69.9494C78.2268 71.1624 77.5193 72.2743 76.4075 72.7797L74.7905 73.4873C74.3862 73.4873 73.9819 73.5884 73.5776 73.5884M63.5719 67.018L73.2744 71.4656C73.4766 71.5667 73.7798 71.5667 73.9819 71.4656L75.599 70.758C76.1043 70.5559 76.2054 70.0505 76.2054 69.8483C76.2054 69.7472 76.1043 69.2418 75.599 69.0396L66.3007 65.805L63.5719 67.018"/>
</svg>
