<?xml version="1.0" encoding="utf-8" ?>
<svg xmlns="http://www.w3.org/2000/svg" xmlns:xlink="http://www.w3.org/1999/xlink" width="94" height="82">
	<path fill="white" d="M7.14561 82C3.01927 80.4 0 76.7 0 72.3C0 67.9 3.01927 64.1 7.14561 63C7.14561 62.6 9.66167 62.6 9.66167 62.6L9.66167 11C9.66167 5.2 14.3919 0.5 20.3298 0.5L77.394 0.5C78.6017 0.2 79.8094 0 81.1178 0C88.1627 0 94 5.4 94 12.1L94 15.1L74.2741 15.1L74.2741 72C74.2741 77.5 69.7452 82 64.2099 82L7.14561 82"/>
	<path fill="#FFECC5" d="M71.1288 3.4L20.2038 3.4C15.9768 3.4 12.555 6.8 12.555 10.9L12.555 78.9L63.9832 78.9C67.9082 78.9 71.0282 75.8 71.0282 71.9L71.0282 12.4L80.8911 3.4L71.1288 3.4"/>
	<path fill="#2D1B0A" d="M64.1845 80L11.7498 80L11.7498 11C11.7498 6.3 15.5742 2.5 20.4051 2.5L83.7091 2.5L72.2359 13L72.2359 72.1C72.1352 76.4 68.6128 80 64.1845 80M13.662 78L64.0838 78C67.405 78 70.1224 75.3 70.1224 72L70.1224 12L78.3751 4.4L20.2038 4.4C16.5806 4.4 13.5614 7.3 13.5614 10.9L13.5614 78"/>
	<path fill="#BCAA8B" d="M90.8549 12.1C90.8549 7 86.4266 3 80.9919 3C75.5572 3 71.129 7.1 71.129 12.1L90.8549 12.1"/>
	<path fill="#2D1B0A" d="M91.8613 13.1L70.2232 13.1L70.2232 12.1C70.2232 6.5 75.054 2 81.0926 2C87.0305 2 91.962 6.5 91.962 12.1L91.962 13.1M72.3367 11.1L89.8485 11.1C89.3453 7.1 85.6215 4 81.0926 4C76.5637 3.9 72.8399 7 72.3367 11.1"/>
	<path fill="#E0CEB3" d="M55.7308 72.2C55.7308 68.5 58.75 65.5 62.5745 65.5L10.2404 65.5C10.1398 65.5 10.0391 65.5 9.93848 65.5C6.21471 65.5 3.0948 68.5 3.0948 72.2C3.0948 75.9 6.11407 78.9 9.93848 78.9C10.0391 78.9 10.1398 78.9 10.2404 78.9L57.2404 78.9C57.643 78.9 58.0455 78.6 58.2468 78.2C58.3475 77.8 58.2468 77.4 57.9449 77.1C56.5359 76 55.7308 74.2 55.7308 72.2"/>
	<path fill="#2D1B0A" d="M57.19 80L9.18361 80C5.15791 79.7 2.038 76.3 2.038 72.3C2.038 68.3 5.15791 65 9.18361 64.6C9.68682 64.6 9.78746 64.6 9.98875 64.6L62.5241 64.6L62.5241 66.6C59.3035 66.6 56.6868 69.2 56.6868 72.3C56.6868 73.9 57.3913 75.4 58.4984 76.5C59.1022 77.1 59.3035 77.9 59.1022 78.7C58.901 79.4 58.0958 80 57.19 80M9.98875 66.5C6.66755 66.5 4.15149 69.1 4.15149 72.2C4.15149 75.4 6.76819 77.9 9.98875 77.9C10.0894 77.9 10.0894 77.9 10.19 77.9L11.2971 77.8L57.3913 77.9C55.781 76.4 54.8753 74.3 54.8753 72.2C54.8753 69.9 55.8817 67.9 57.492 66.5L10.3913 66.5C10.0894 66.5 9.98875 66.5 9.98875 66.5"/>
	<path fill="#BCAA8B" d="M56.234 72.1C56.234 75.7 59.1526 78.6 62.7757 78.6C66.3989 78.6 69.2169 75.7 69.2169 72.1C69.2169 68.5 66.2982 65.7 62.7757 65.7C59.1526 65.7 56.234 68.6 56.234 72.1"/>
	<path fill="#2D1B0A" d="M62.7757 79.6C58.6494 79.6 55.2275 76.3 55.2275 72.1C55.2275 68 58.5487 64.7 62.7757 64.7C66.902 64.7 70.2232 68 70.2232 72.1C70.2232 76.2 66.902 79.6 62.7757 79.6M62.7757 66.7C59.7565 66.7 57.2404 69.1 57.2404 72.1C57.2404 75.1 59.6558 77.6 62.7757 77.6C65.795 77.6 68.2104 75.2 68.2104 72.1C68.2104 69.1 65.795 66.7 62.7757 66.7"/>
	<path fill="#300604" d="M48.2832 19L22.6194 19C20.4053 19 18.5937 17.2 18.5937 15C18.5937 12.8 20.4053 11 22.6194 11L48.2832 11C50.4973 11 52.3127 12.8 52.3127 15C52.4095 17.2 50.4973 19 48.2832 19"/>
	<path fill="#300604" d="M51.1011 29.6L20.5058 29.6C19.3988 29.6 18.493 28.7 18.493 27.6C18.493 26.5 19.3988 25.6 20.5058 25.6L51.1011 25.6C52.2082 25.6 53.114 26.5 53.114 27.6C53.114 28.7 52.2082 29.6 51.1011 29.6"/>
	<path fill="#300604" d="M44.5594 42.3L20.5058 42.3C19.3988 42.3 18.493 41.4 18.493 40.3C18.493 39.2 19.3988 38.3 20.5058 38.3L44.5594 38.3C45.6664 38.3 46.5722 39.2 46.5722 40.3C46.5722 41.4 45.6664 42.3 44.5594 42.3"/>
	<path fill="#300604" d="M38.1185 54.9L20.506 54.9C19.3989 54.9 18.4932 54 18.4932 52.9C18.4932 51.8 19.3989 50.9 20.506 50.9L38.1185 50.9C39.2254 50.9 40.1383 51.8 40.1383 52.9C40.2319 54 39.2254 54.9 38.1185 54.9"/>
	<path fill="#FFD473" d="M47.3774 57L52.2082 53.7C52.6108 53.4 52.6108 52.9 52.2082 52.6L48.0819 50.0233C47.6793 49.9 47.1761 50.0233 47.0755 50.6L46.371 56.4C46.1697 56.9 46.8742 57.3 47.3774 57"/>
	<path fill="#2D1B0A" d="M46.9748 58.1C46.6729 58.1 46.371 58 46.0691 57.9C45.4652 57.6 45.2449 56.9 45.2449 56.3L45.9684 50.5C46.0691 49.9 46.371 49.5 46.8742 49.2C47.3774 49.0606 47.9813 49.0606 48.4845 49.3L52.6108 51.8C53.114 52.1 53.416 52.6 53.416 53.2C53.416 53.8 53.114 54.3 52.7115 54.6L47.8806 57.9C47.6793 58 47.3774 58.1 46.9748 58.1M47.9813 51.2L47.4781 55.7L51.3025 53.1L47.9813 51.2"/>
	<path fill="#F47A62" d="M61.0647 26.6L67.1032 30.3L53.8184 52.1L47.7799 48.4L61.0647 26.6"/>
	<path fill="#2D1B0A" d="M54.1204 53.5L46.3709 48.8L60.7628 25.2L68.5122 29.9L54.1204 53.5M49.0882 48.1L53.4159 50.7L65.6942 30.6L61.3666 28L49.0882 48.1"/>
	<path fill="#FFD473" d="M66.8014 25.9L65.2918 25C63.9834 24.2 62.3732 24.5881 61.568 25.9L60.5616 27.5L66.6001 31.2L67.6066 29.5C68.4117 28.2 68.0091 26.7 66.8014 25.9"/>
	<path fill="#2D1B0A" d="M66.9015 32.4933L59.1526 27.7933L60.6621 25.3933C61.7691 23.6372 63.9831 23.0933 65.7945 24.1933L67.3041 25.0933C68.1091 25.5933 68.7129 26.3933 68.9142 27.2933C69.1155 28.1933 69.0114 29.1933 68.5117 29.9933L66.9015 32.4933M61.9704 27.0933L66.2977 29.6933C67.0022 28.4933 67.1028 28.0933 67.0022 27.6933C66.9015 27.2933 66.5996 26.8933 66.2977 26.6933L64.7882 25.7933C63.9831 25.2933 62.9767 25.5933 62.4736 26.3933"/>
</svg>
