<?xml version="1.0" encoding="utf-8" ?>
<svg xmlns="http://www.w3.org/2000/svg" xmlns:xlink="http://www.w3.org/1999/xlink" width="108" height="106">
	<path fill="white" d="M38.521 106C37.3109 106 36.2017 105.597 35.1933 105.093C14.521 102.272 8.16807 91.1882 6.65546 81.5152C2.62185 79.2985 0 74.9658 0 70.23L0 56.2243C0 51.6901 2.42017 47.4582 6.2521 45.2414L6.2521 42.924C6.2521 37.7852 7.2605 32.7471 9.17647 28.0114C8.06723 25.6939 8.06723 22.9734 9.47899 20.7567C17.1429 7.96008 31.1597 0 46.084 0L59.8992 0C74.8235 0 88.8403 7.96008 96.5042 20.7567C97.8151 22.9734 97.916 25.6939 96.8067 28.0114C98.7227 32.7471 99.7311 37.7852 99.7311 42.924C101.244 44.2338 102.655 45.2414 103.765 46.3498C106.487 49.0703 108 52.6977 108 56.5266L108 70.5323C108 77.0817 103.563 82.7243 97.4118 84.3365C96.3025 86.3517 94.1849 87.5608 91.4622 87.5608L87.2269 87.5608C82.9916 87.5608 80.3697 84.9411 80.3697 80.7091L80.3697 46.0475C80.3697 41.8156 82.9916 39.1958 87.2269 39.1958L90.4538 39.1958C90.1513 36.7776 89.5462 34.3593 88.7395 32.0418C86.6218 31.6388 84.8067 30.3289 83.6975 28.5152C78.7563 20.2529 69.6807 15.1141 60 15.1141L46.2857 15.1141C36.605 15.1141 27.5294 20.2529 22.5882 28.5152C21.479 30.3289 19.6639 31.6388 17.6471 32.0418C16.7395 34.3593 16.1345 36.7776 15.8319 39.1958L19.3613 39.1958C23.5966 39.1958 26.2185 41.8156 26.2185 46.0475L26.2185 80.7091C26.2185 84.9411 23.5966 87.5608 19.3613 87.5608C21.479 91.1882 25.916 93.7072 32.0672 95.2186C33.1765 92.6996 35.6975 90.8859 38.6218 90.6844L46.8908 90.6844C51.0252 90.8859 54.2521 94.3118 54.2521 98.3422C54.2521 102.473 51.0252 105.798 46.9916 106L38.521 106"/>
	<path fill="#F7F8FC" d="M49.7142 98.1407C49.7142 98.9468 49.4118 99.7529 48.8066 100.357C48.2017 100.962 47.395 101.264 46.5882 101.264L38.6218 101.264C36.9075 101.264 35.4958 99.8536 35.4958 98.1407C35.4958 97.3346 35.7983 96.5285 36.4033 95.924C37.0084 95.3194 37.8151 95.0171 38.6218 95.0171L46.5882 95.0171C47.395 95.0171 48.2017 95.3194 48.8066 95.924C49.4118 96.5285 49.7142 97.2339 49.7142 98.1407"/>
	<path fill="#2D1B0A" d="M46.185 102.473C21.6808 102.473 9.27735 93.5057 9.27735 75.6712L9.27735 42.7225C9.27735 22.3689 25.8152 5.84415 46.185 5.84415L59.6976 5.84415C80.0673 5.84415 96.605 22.3689 96.605 42.7225L96.605 75.6712L93.5798 75.6712L93.5798 42.7225C93.5798 33.7547 89.9497 25.1902 83.6975 18.8423C77.3446 12.4943 68.7731 8.96772 59.7984 8.96772L46.2858 8.96772C27.6302 8.96772 12.5042 24.0818 12.5042 42.7225L12.5042 75.6712C12.5042 91.5912 23.4958 99.3498 46.2858 99.3498L46.2858 102.473"/>
	<path fill="#7FCCD1" d="M89.9495 29.0195C88.336 29.0195 86.9242 28.2135 86.0167 26.8028C80.4705 17.5328 70.3864 11.8903 59.5965 11.8903L46.0839 11.8903C35.294 11.8903 25.21 17.5328 19.6637 26.8028C18.3528 28.9188 15.5293 29.6241 13.4116 28.3142C11.2375 27.0043 10.5881 24.183 11.899 22.0671C19.0587 10.0766 32.0671 2.8208 46.0839 2.8208L59.5965 2.8208C73.6133 2.8208 86.6217 10.0766 93.7814 22.0671C94.5881 23.4777 94.6889 25.1906 93.8822 26.6013C93.0755 28.1127 91.5629 29.0195 89.9495 29.0195"/>
	<path fill="#2D1B0A" d="M15.9174 30.0266C14.9088 30.0266 13.9002 29.7243 13.0933 29.2205C11.7821 28.4145 10.9752 27.2053 10.5718 25.7947C10.1684 24.384 10.3911 22.8726 11.177 21.5627C18.5397 9.37073 31.9541 1.8137 46.1753 1.8137L59.5897 1.8137C59.6905 1.8137 59.6905 1.8137 59.7914 1.8137C74.0126 1.8137 87.3261 9.37073 94.6889 21.5627C95.6975 23.2757 95.7983 25.3916 94.7897 27.1046C93.7811 28.8175 91.9656 29.9259 89.9484 29.9259C87.9313 29.9259 86.2166 28.9183 85.208 27.2053C79.8625 18.2377 70.0791 12.7966 59.6905 12.7966L46.1753 12.7966C46.1753 12.7966 46.0744 12.7966 46.0744 12.7966C35.6859 12.7966 26.0033 18.3384 20.6578 27.2053C19.8509 28.5152 18.6406 29.4221 17.2285 29.7243C16.8251 29.9259 16.3208 30.0266 15.9174 30.0266M46.0744 3.82891C32.5592 3.82891 19.8509 10.9829 12.8916 22.5704C12.3873 23.3764 12.2864 24.2833 12.4881 25.2909C12.6899 26.1977 13.295 27.0038 14.1019 27.5076C14.9088 28.0114 15.8165 28.1122 16.8251 27.9107C17.7328 27.7091 18.5397 27.1046 19.044 26.2985C24.793 16.827 35.2824 10.8821 46.2762 10.8821L59.6905 10.8821C70.7851 10.7814 81.2745 16.7262 86.9227 26.2985C87.5278 27.3061 88.7381 28.0114 89.9484 28.0114C91.2596 28.0114 92.3691 27.3061 93.0751 26.1977C93.6803 25.0894 93.6803 23.6787 92.9742 22.6711C86.0149 10.9829 73.2057 3.82891 59.6905 3.92967L46.1753 3.92967C46.1753 3.82891 46.0744 3.82891 46.0744 3.82891"/>
	<path fill="#293535" d="M13.3109 46.5513C7.86554 46.5513 3.52941 50.884 3.52941 56.3251L3.52941 70.3308C3.52941 75.7718 7.86554 80.1045 13.3109 80.1045L14.3193 80.1045L14.3193 46.5513L13.3109 46.5513"/>
	<path fill="#2D1B0A" d="M15.3277 81.1121L13.3109 81.1121C7.36135 81.1121 2.52101 76.2756 2.52101 70.3308L2.52101 56.3251C2.52101 50.3802 7.36135 45.5437 13.3109 45.5437L15.3277 45.5437L15.3277 81.1121M13.3109 47.5589C8.47059 47.5589 4.53782 51.4886 4.53782 56.3251L4.53782 70.3308C4.53782 75.1673 8.47059 79.0969 13.3109 79.0969L13.3109 47.5589"/>
	<path fill="#7FCCD1" d="M14.9243 42.0171L19.1596 42.0171C21.6806 42.0171 22.9916 43.327 22.9916 45.846L22.9916 80.5076C22.9916 83.0266 21.6806 84.3365 19.1596 84.3365L14.9243 84.3365C12.4033 84.3365 11.0924 83.0266 11.0924 80.5076L11.0924 45.846C11.0924 43.327 12.4033 42.0171 14.9243 42.0171"/>
	<path fill="#2D1B0A" d="M19.1596 85.2433L14.9243 85.2433C11.7983 85.2433 10.084 83.5304 10.084 80.4068L10.084 45.7452C10.084 42.6216 11.7983 40.9087 14.9243 40.9087L19.1596 40.9087C22.2857 40.9087 24 42.6216 24 45.7452L24 80.4068C24 83.5304 22.2857 85.2433 19.1596 85.2433M14.9243 43.0247C12.9075 43.0247 12.1008 43.8307 12.1008 45.846L12.1008 80.5076C12.1008 82.5228 12.9075 83.3289 14.9243 83.3289L19.1596 83.3289C21.1764 83.3289 21.9832 82.5228 21.9832 80.5076L21.9832 45.846C21.9832 43.8307 21.1764 43.0247 19.1596 43.0247L14.9243 43.0247"/>
	<path fill="#F6FAFB" d="M90.7563 81.616L93.5798 81.616C99.8319 81.616 104.874 76.578 104.874 70.3308L104.874 56.3251C104.874 53.3023 103.664 50.481 101.546 48.2643C99.4286 46.1483 96.5042 44.9392 93.5798 44.9392L90.7563 44.9392L90.7563 81.616"/>
	<path fill="#293535" d="M93.2773 80.3061L94.3865 80.3061C99.8319 80.3061 104.168 75.7719 104.168 70.2301L104.168 55.8213C104.168 50.2795 99.8319 45.7453 94.3865 45.7453L93.2773 45.7453L93.2773 80.3061"/>
	<path fill="#2D1B0A" d="M94.3866 81.3137L92.2689 81.3137L92.2689 44.7377L94.3866 44.7377C100.336 44.7377 105.176 49.675 105.176 55.8214L105.176 70.2301C105.176 76.2757 100.336 81.3137 94.3866 81.3137M94.2857 79.2985C99.2269 79.2985 103.16 75.2681 103.16 70.2301L103.16 55.8214C103.16 50.7833 99.2269 46.7529 94.3866 46.7529L94.2857 79.2985"/>
	<path fill="#7FCCD1" d="M87.0252 42.0171L91.2605 42.0171C93.7815 42.0171 95.0925 43.327 95.0925 45.846L95.0925 80.5076C95.0925 83.0266 93.7815 84.3365 91.2605 84.3365L87.0252 84.3365C84.5042 84.3365 83.1933 83.0266 83.1933 80.5076L83.1933 45.846C83.1933 43.327 84.5042 42.0171 87.0252 42.0171"/>
	<path fill="#2D1B0A" d="M91.2605 85.2433L87.0252 85.2433C83.8992 85.2433 82.1849 83.5304 82.1849 80.4068L82.1849 45.7452C82.1849 42.6216 83.8992 40.9087 87.0252 40.9087L91.2605 40.9087C94.3866 40.9087 96.1009 42.6216 96.1009 45.7452L96.1009 80.4068C96.1009 83.5304 94.3866 85.2433 91.2605 85.2433M87.0252 43.0247C85.0084 43.0247 84.2017 43.8307 84.2017 45.846L84.2017 80.5076C84.2017 82.5228 85.0084 83.3289 87.0252 83.3289L91.2605 83.3289C93.2773 83.3289 94.0841 82.5228 94.0841 80.5076L94.0841 45.846C94.0841 43.8307 93.2773 43.0247 91.2605 43.0247L87.0252 43.0247"/>
	<path fill="#293535" d="M46.5883 102.776L38.6219 102.776C36.1009 102.675 34.1849 100.559 34.1849 98.1407C34.1849 95.7224 36.1009 93.6065 38.6219 93.5057L46.5883 93.5057C49.1093 93.6065 51.0252 95.7224 51.0252 98.1407C51.0252 100.559 49.1093 102.574 46.5883 102.776"/>
	<path fill="#2D1B0A" d="M46.6892 103.783L38.7227 103.783C35.6975 103.582 33.2774 101.163 33.2774 98.1407C33.2774 95.1179 35.5967 92.5989 38.6219 92.4981L46.5882 92.4981C49.6134 92.6996 52.0337 95.1179 52.0337 98.1407C52.0337 101.163 49.7144 103.582 46.6892 103.783M46.5882 94.4126L38.7227 94.4126C36.8068 94.5133 35.2942 96.1255 35.2942 98.0399C35.2942 99.9544 36.8068 101.567 38.7227 101.667L46.5882 101.667C48.5042 101.567 50.0169 99.9544 50.0169 98.0399C50.0169 96.1255 48.5042 94.5133 46.5882 94.4126"/>
</svg>
