<?xml version="1.0" encoding="utf-8" ?>
<svg xmlns="http://www.w3.org/2000/svg" xmlns:xlink="http://www.w3.org/1999/xlink" width="114" height="104">
	<path fill="white" d="M48.5 0L48.5 16.2183L5.7 16.2183C2.5 16.2183 0 18.9552 0 22.4016L0 85.1462C0 88.0858 2.4 90.5185 5.3 90.5185L38.9 90.5185C38.9 91.3294 38.9 92.1404 38.8 92.9513L36.9 92.9513C32.6 92.9513 29 96.499 29 100.959L29 104L73.6 104L73.6 100.959C73.6 96.6004 70.1 92.9513 65.7 92.9513L63.6 92.9513C63.5 92.1404 63.5 91.3294 63.6 90.5185L98.5 90.5185C101.4 90.5185 103.8 88.0858 103.8 85.1462L103.8 49.8713L114 49.8713L114 0L48.5 0"/>
	<path fill="#2D1B0A" d="M71.8 102.074L30.2 102.074L30.2 100.554C30.2 97.0057 33.1 94.0662 36.6 94.0662L39.9 94.0662C40.1 92.4444 40.1 90.7212 40.1 88.998L40.1 85.6529L61.8 85.7543L61.8 88.998C61.7 90.7212 61.8 92.4444 62 94.0662L65.5 94.0662C69 94.0662 71.9 97.0057 71.9 100.554L71.9 102.074M33.5 99.0331L68.4 99.0331C67.8 97.918 66.7 97.1071 65.4 97.1071L59.4 97.1071L59.1 95.8907C59.1 95.688 59 95.4853 59 95.2826C58.7 93.1539 58.6 91.0253 58.7 88.8966L43 88.6939C43.1 90.9239 43 92.9512 42.7 95.0798C42.6 95.4853 42.6 95.688 42.5 95.9921L42.2 97.1071L36.5 97.1071C35.2 97.1071 34.1 97.918 33.5 99.0331"/>
	<path fill="#293535" d="M65.3999 95.5867L60.6 95.5867C60.6 95.3839 60.5 95.1812 60.5 94.9785C60.2 92.9512 60.1 91.0253 60.2 88.998L60.2 87.2748L41.5 87.1734L41.5 88.8966C41.6 90.9239 41.5 92.8498 41.2999 94.8771C41.2 95.1812 41.2 95.3839 41.1 95.5867L36.5 95.5867C33.7999 95.5867 31.6 97.8167 31.6 100.554L70.2032 100.554C70.2999 97.8167 68.1 95.5867 65.3999 95.5867"/>
	<path fill="#7DD8DB" d="M98.1 87.0721C99.4 87.0721 100.4 85.9571 100.4 84.7407L100.4 21.996C100.4 20.2729 99.2 18.8538 97.7 18.8538L5.3 18.8538C3.8 18.8538 2.6 20.2729 2.6 21.996L2.6 84.7407C2.6 86.0584 3.7 87.0721 4.9 87.0721L98.1 87.0721"/>
	<path fill="#2D1B0A" d="M98.1 88.0858L5 88.0858C3.2 88.0858 1.7 86.5653 1.7 84.7408L1.7 21.9962C1.7 19.7661 3.4 17.8402 5.4 17.8402L97.8 17.8402C99.9 17.8402 101.5 19.6648 101.5 21.9962L101.5 84.7408C101.4 86.5653 99.9 88.0858 98.1 88.0858M5.3 19.8675C4.4 19.8675 3.6 20.7798 3.6 21.9962L3.6 84.7408C3.6 85.4503 4.2 86.0585 4.9 86.0585L98 86.0585C98.7 86.0585 99.3 85.4503 99.3 84.7408L99.3 21.9962C99.3 20.8811 98.5 19.8675 97.6 19.8675L5.3 19.8675"/>
	<path fill="#2D1B0A" d="M95.1 80.9902L8 80.9902L8 24.5302L95.1 24.5302L95.1 80.9902M11 77.9493L92.1 77.9493L92.1 27.5711L11 27.5711L11 77.9493"/>
	<path fill="#EBF9FF" d="M9.5 26.1521L93.6 26.1521L93.6 79.5712L9.5 79.5712L9.5 26.1521"/>
	<path fill="#FDFEFF" d="M61.7 59.2982L61.7 46.4249L51.2 46.4249L51.2 2.7368L110.6 2.7368L110.6 46.4249L74.5 46.4249"/>
	<path fill="#2D1B0A" d="M60.7 61.8324L60.7 47.4386L50.2 47.4386L50.2 1.7232L111.6 1.7232L111.6 47.4386L74.9 47.4386L60.7 61.8324M52.2 45.4113L62.7 45.4113L62.7 56.9669L74.1 45.4113L109.6 45.4113L109.6 3.75049L52.2 3.75049L52.2 45.4113"/>
	<path fill="#484F59" d="M63.2 13.6842L99.2 13.6842L99.2 16.7252L63.2 16.7252L63.2 13.6842"/>
	<path fill="#484F59" d="M63.2 21.5906L99.2 21.5906L99.2 24.6316L63.2 24.6316L63.2 21.5906"/>
	<path fill="#484F59" d="M63.2 29.5984L99.2 29.5984L99.2 32.6394L63.2 32.6394L63.2 29.5984"/>
	<path fill="#99CC62" d="M45.3 70.651C45.2 62.846 38.9 56.6628 31.2 56.6628C23.5 56.6628 17.3 62.9473 17.1 70.651L45.3 70.651"/>
	<path fill="#2D1B0A" d="M46.4 71.6647L16.2 71.6647L16.2 70.651C16.2 62.3392 23.1 55.6491 31.3 55.6491C39.5 55.6491 46.2 62.3392 46.4 70.651L46.4 71.6647M18.2 69.6374L44.2 69.6374C43.6 62.9473 37.9 57.6764 31.2 57.6764C24.5 57.6764 18.9 62.9473 18.2 69.6374"/>
	<path fill="#FFE7DC" d="M38.6 49.0604C38.6 53.1471 35.3317 56.46 31.3 56.46C27.2683 56.46 24 53.1471 24 49.0604C24 44.9737 27.2683 41.6608 31.3 41.6608C35.3317 41.6608 38.6 44.9737 38.6 49.0604"/>
	<path fill="#2D1B0A" d="M31.3 57.4736C26.7 57.4736 23 53.7231 23 49.0604C23 44.3976 26.7 40.6471 31.3 40.6471C35.9 40.6471 39.6 44.3976 39.6 49.0604C39.6 53.7231 35.8 57.4736 31.3 57.4736M31.3 42.7758C27.8 42.7758 25 45.614 25 49.1618C25 52.7095 27.8 55.5477 31.3 55.5477C34.8 55.5477 37.6 52.7095 37.6 49.1618C37.5 45.614 34.7 42.7758 31.3 42.7758"/>
</svg>
