<?xml version="1.0" encoding="utf-8" ?>
<svg xmlns="http://www.w3.org/2000/svg" xmlns:xlink="http://www.w3.org/1999/xlink" width="80" height="76">
	<path fill="white" d="M47.1899 75.8991C45.8734 75.8991 44.6582 75.3944 43.7468 74.4861C42.8354 73.5777 42.3291 72.3665 42.3291 71.0544L42.3291 59.3466L6.88608 59.3466C3.13924 59.3466 0 56.3187 0 52.4834L0 6.86321C0 3.12882 3.03797 0 6.88608 0L73.1139 0C76.8608 0 80 3.02789 80 6.86321L80 52.5843C80 53.3918 79.8987 54.0983 79.5949 54.9057L79.5949 71.1554C79.5949 72.4675 79.0886 73.6786 78.1772 74.587C77.2658 75.4954 76.0506 76 74.7342 76L47.1899 76"/>
	<path fill="#888889" d="M72.9113 56.2178L6.68355 56.2178C4.55697 56.2178 2.83545 54.502 2.83545 52.3824L2.83545 6.66133C2.83545 4.5418 4.55697 2.826 6.68355 2.826L72.9113 2.826C75.0379 2.826 76.7596 4.5418 76.7596 6.66133L76.7596 52.3824C76.6582 54.502 75.0379 56.2178 72.9113 56.2178"/>
	<path fill="#2D1B0A" d="M72.9114 57.2271L6.68356 57.2271C4.05065 57.2271 1.8228 55.1075 1.8228 52.3824L1.8228 6.66132C1.8228 4.03715 3.94938 1.8167 6.68356 1.8167L72.9114 1.8167C75.5443 1.8167 77.7722 3.93622 77.7722 6.66132L77.7722 52.3824C77.6709 55.0066 75.5443 57.2271 72.9114 57.2271M6.68356 3.83529C5.16457 3.83529 3.84812 5.04645 3.84812 6.66132L3.84812 52.3824C3.84812 53.8964 5.06331 55.2085 6.68356 55.2085L72.9114 55.2085C74.4304 55.2085 75.7469 53.9973 75.7469 52.3824L75.7469 6.66132C75.7469 5.14738 74.5317 3.83529 72.9114 3.83529L6.68356 3.83529"/>
	<path fill="white" d="M25.4178 37.1422C25.114 37.1422 24.8102 36.9403 24.6076 36.7384L10.2279 15.846C9.92409 15.3413 10.057 14.7358 10.5317 14.433C11.038 14.1302 11.6456 14.2626 11.9494 14.7358L26.3292 35.6282C26.6329 36.1329 26.5317 36.7384 26.0254 37.0413C25.8228 37.1422 25.6203 37.1422 25.4178 37.1422"/>
	<path fill="#FFE7DC" d="M60.7595 31.4901C55.6962 31.4901 51.6456 27.4529 51.6456 22.4065C51.6456 17.36 55.6962 13.3228 60.7595 13.3228C65.8228 13.3228 69.8734 17.36 69.8734 22.4065C69.8734 27.4529 65.7215 31.4901 60.7595 31.4901"/>
	<path fill="#2D1B0A" d="M60.7595 32.4994C55.1899 32.4994 50.6329 27.9576 50.6329 22.4065C50.6329 16.8553 55.1899 12.3135 60.7595 12.3135C66.3291 12.3135 70.8861 16.8553 70.8861 22.4065C70.8861 28.0585 66.3291 32.4994 60.7595 32.4994M60.7595 14.3321C56.3038 14.3321 52.6582 17.9656 52.6582 22.4065C52.6582 26.8474 56.3038 30.4808 60.7595 30.4808C65.2152 30.4808 68.8607 26.8474 68.8607 22.4065C68.8607 17.9656 65.2152 14.3321 60.7595 14.3321"/>
	<path fill="#99CC62" d="M74.5318 72.6695L46.9874 72.6695C46.481 72.6695 46.076 72.4676 45.7723 72.1648C45.4685 71.862 45.2659 71.3574 45.2659 70.9537L45.2659 50.2631L43.5443 52.5845C42.6329 53.7956 41.3166 54.5021 39.8988 54.6031C38.1772 54.6031 36.8609 54.0984 35.9495 53.0891L25.4178 42.3906C23.4937 40.4729 23.4937 37.3441 25.4178 35.4265C27.3418 33.6097 30.5823 33.6097 32.4051 35.4265L38.8862 41.9869L43.8482 35.2246C44.3545 34.5181 45.0634 34.0134 45.8735 33.6097C46.1772 33.3069 46.5824 33.206 46.9874 33.206C47.5951 33.206 47.7976 33.206 47.8988 33.206L70.1772 33.206C70.2785 33.206 70.481 33.206 70.5824 33.3069C71.595 33.4079 73.2153 33.7106 74.6329 34.9218C75.8482 36.032 76.1519 37.8488 76.2533 38.5553C76.2533 38.6562 76.2533 38.6562 76.2533 38.7571L76.2533 70.8527C76.2533 71.3574 76.0507 71.7611 75.7469 72.0639C75.4431 72.4676 74.9368 72.6695 74.5318 72.6695"/>
	<path fill="#2D1B0A" d="M74.5316 73.6788L46.9873 73.6788C46.2785 73.6788 45.5696 73.376 44.962 72.8713C44.4557 72.3667 44.1519 71.6602 44.1519 70.8527L44.1519 53.291C43.1392 54.6031 41.6202 55.4105 39.8987 55.5114C37.8734 55.5114 36.3544 54.9059 35.2405 53.6947L24.7088 42.9962C22.3797 40.6748 22.3797 36.8395 24.7088 34.5181C27.038 32.2976 30.886 32.2976 33.2152 34.619L38.8861 40.2711L43.1392 34.5181C43.7468 33.7106 44.4557 33.1051 45.3671 32.7013C45.8734 32.3986 46.3797 32.1967 46.9873 32.1967C47.5949 32.1967 47.6962 32.1967 47.8987 32.1967L70.1772 32.1967C70.3797 32.1967 70.5823 32.1967 70.7848 32.2976C72 32.3986 73.8228 32.8023 75.3417 34.2153C76.8607 35.6283 77.2658 37.6469 77.2658 38.5553C77.2658 38.6562 77.2658 38.7571 77.2658 38.8581L77.2658 70.9537C77.2658 71.6602 76.962 72.3667 76.4557 72.9723C75.9493 73.376 75.2405 73.6788 74.5316 73.6788M46.1772 47.2352L46.1772 70.9537C46.1772 71.1555 46.2785 71.3574 46.3797 71.4583C46.481 71.5592 46.6835 71.6602 46.8861 71.6602L74.4304 71.6602C74.6329 71.6602 74.8354 71.5592 74.9367 71.4583C75.0379 71.3574 75.1392 71.1555 75.1392 70.9537L75.1392 38.7571C75.1392 38.2525 74.8354 36.7385 73.8228 35.8302C72.7088 34.8209 71.2911 34.5181 70.3797 34.4172C70.0759 34.4172 70.0759 34.4172 69.9747 34.4172L47.6962 34.4172C47.5949 34.4172 47.4936 34.4172 47.3924 34.4172C46.5823 34.4172 46.3797 34.5181 46.2785 34.619C45.3671 35.1237 44.7595 35.5274 44.4557 36.032L38.7848 43.7027L31.4936 36.3348C29.9747 34.8209 27.443 34.8209 25.924 36.3348C24.405 37.8488 24.405 40.372 25.924 41.8859L36.4557 52.5845C37.1645 53.291 38.1772 53.7956 39.2911 53.7956C40.7088 53.6947 41.7215 53.0891 42.4304 52.1808L46.1772 47.2352"/>
</svg>
