<?xml version="1.0" encoding="utf-8" ?>
<svg xmlns="http://www.w3.org/2000/svg" xmlns:xlink="http://www.w3.org/1999/xlink" width="88" height="84">
	<path fill="white" d="M74.9517 46.2609C76.0644 45.0435 76.6713 43.4203 76.6713 41.5942C76.6713 37.7391 73.5356 34.5942 69.692 34.5942C69.2874 34.5942 68.9839 34.5942 68.6805 34.6957C68.7816 33.3768 68.6805 32.058 68.1747 30.8406C67.3655 28.913 65.8483 27.3913 64.0276 26.5797C61.0943 25.2609 57.4529 23.6377 53.8115 22.0145C57.3517 19.9855 59.7793 16.1304 59.7793 11.7681C59.7793 5.27536 54.5195 0 48.046 0C41.5724 0 36.3126 5.27536 36.3126 11.7681C36.3126 13.087 36.5149 14.4058 37.0207 15.6232C35.4023 15.2174 34.0874 14.913 33.2782 14.913C32.3678 14.913 30.8506 15.4203 29.5356 16.029C27.2092 14.4058 24.5793 13.4928 21.7471 13.4928C19.0161 13.4928 16.9931 14.3043 16.5885 14.5072C8.49655 19.9855 4.95632 24.3478 5.36092 28.2029C5.76552 32.058 9.6092 35.3043 13.4529 37.6377C13.4529 37.942 13.4529 38.1449 13.4529 38.4493C13.1494 41.2899 14.2621 43.9275 16.2851 45.6522C7.08046 47.0725 0 55.087 0 64.7246C0 75.3768 8.5977 84 19.2184 84C28.3218 84 35.908 77.7101 37.931 69.1884C39.4483 71.6232 42.1793 73.1449 45.2138 73.1449C46.3264 73.1449 47.4391 72.942 48.4506 72.4348C49.2598 72.1304 50.069 71.6232 50.6759 71.0145C53.3057 78.5217 60.3862 83.8986 68.7816 83.8986C79.4023 83.8986 88 75.2754 88 64.6232C87.8989 56 82.4368 48.8986 74.9517 46.2609M43.7977 38.9565L39.7517 37.2319L42.0782 34.5942L57.1494 40.8841L46.023 44.2319L43.7977 38.9565"/>
	<path fill="#F47A62" d="M16.5886 35.5071C14.6667 34.4927 8.4966 30.9419 8.183 27.3913C7.88971 23.8405 14.4644 18.9709 17.3978 17.0434C18.0047 16.8405 24.2759 14.2028 29.3334 19.6811"/>
	<path fill="#2D1B0A" d="M16.0712 36.4201C13.5403 35.1013 7.46632 31.4491 7.04015 27.594C6.65645 23.8404 12.1231 19.3767 16.6786 16.3332C17.3873 15.9274 24.2712 12.9854 29.9403 19.0723L28.4217 20.4926C23.7649 15.5216 18.0958 17.8549 17.8934 17.9564C12.1231 21.8114 8.78236 25.3622 8.98483 27.3912C9.18729 29.8259 13.3379 32.768 16.8811 34.6955L16.0712 36.4201"/>
	<path fill="#443B2D" d="M19.017 80.4493C10.1153 80.4493 2.83255 73.1449 2.83255 64.2174C2.83255 55.2898 10.1153 47.9855 19.017 47.9855C27.9177 47.9855 35.2015 55.2898 35.2015 64.2174C35.3016 73.1449 28.0187 80.4493 19.017 80.4493"/>
	<path fill="#2D1B0A" d="M19.0169 81.4638C9.50812 81.4638 1.82055 73.7536 1.82055 64.2174C1.82055 54.6811 9.50812 46.971 19.0169 46.971C28.5247 46.971 36.2132 54.6811 36.2132 64.2174C36.3134 73.6522 28.5247 81.4638 19.0169 81.4638M19.0169 48.8985C10.6208 48.8985 3.84359 55.6956 3.84359 64.1159C3.84359 72.5362 10.6208 79.3333 19.0169 79.3333C27.412 79.3333 34.1892 72.5362 34.1892 64.1159C34.2904 55.7971 27.412 48.8985 19.0169 48.8985"/>
	<path fill="#443B2D" d="M68.5803 80.4493C59.6786 80.4493 52.3959 73.1449 52.3959 64.2174C52.3959 55.2898 59.6786 47.9855 68.5803 47.9855C77.4809 47.9855 84.7648 55.2898 84.7648 64.2174C84.8649 73.1449 77.582 80.4493 68.5803 80.4493"/>
	<path fill="#2D1B0A" d="M68.5802 81.4638C59.0714 81.4638 51.3839 73.7536 51.3839 64.2174C51.3839 54.6811 59.0714 46.971 68.5802 46.971C78.0881 46.971 85.7766 54.6811 85.7766 64.2174C85.8768 73.6522 78.0881 81.4638 68.5802 81.4638M68.5802 48.8985C60.1841 48.8985 53.4069 55.6956 53.4069 64.1159C53.4069 72.5362 60.1841 79.3333 68.5802 79.3333C76.9753 79.3333 83.7525 72.5362 83.7525 64.1159C83.8537 55.7971 76.9753 48.8985 68.5802 48.8985"/>
	<path fill="#6D6D6D" d="M69.6949 45.3478C67.4677 45.3478 65.7481 43.5217 65.7481 41.3913C65.7481 39.1594 67.5688 37.4348 69.6949 37.4348C71.8171 37.4348 73.6418 39.2609 73.6418 41.3913C73.7389 43.5217 71.9182 45.3478 69.6949 45.3478"/>
	<path fill="#2D1B0A" d="M69.6949 46.3623C66.9615 46.3623 64.7355 44.1304 64.7355 41.3913C64.7355 38.6522 66.9615 36.4203 69.6949 36.4203C72.4252 36.4203 74.6544 38.6522 74.6544 41.3913C74.7523 44.1304 72.4252 46.3623 69.6949 46.3623M69.6949 38.3478C68.0745 38.3478 66.7591 39.6667 66.7591 41.2899C66.7591 42.913 68.0745 44.2319 69.6949 44.2319C71.3122 44.2319 72.6276 42.913 72.6276 41.2899C72.7288 39.6667 71.3122 38.3478 69.6949 38.3478"/>
	<path fill="#2D1B0A" d="M29.839 53.058C29.4344 53.058 29.131 52.9566 29.131 52.9566L30.1424 51.2319C30.0413 51.1305 31.862 51.1305 44.1011 48.1884C57.6551 44.8406 66.1516 40.2754 66.1516 40.2754L67.1631 42.1015C66.8596 42.3044 58.4642 46.8696 44.6068 50.2174C34.1884 52.5508 30.9516 53.058 29.839 53.058"/>
	<path fill="#FFE7DC" d="M49.3608 48.4927L53.6091 59.0434"/>
	<path fill="#2D1B0A" d="M48.4482 48.8006L50.3213 48.0341L54.6401 58.6484L52.767 59.4149L48.4482 48.8006"/>
	<path fill="#99CC62" d="M45.0113 69.5943C42.7861 69.5943 40.7631 68.2754 39.8527 66.145L32.9746 49.5073L19.6228 43.7247C17.3976 42.8117 15.9815 40.4783 16.2441 38.0436C16.2441 35.5073 17.8022 32.9711 18.0044 32.6667L29.9401 18.9711C30.4458 18.3624 32.4688 17.5508 33.278 17.5508C37.8297 17.5508 58.6665 27.087 62.8136 29.0146C64.0274 29.5218 64.9378 30.4349 65.4435 31.6522C65.9493 32.8696 65.9493 34.1885 65.4435 35.4059C64.432 37.8407 61.4987 39.058 58.97 38.0436L41.37 30.6378L34.8964 38.145L41.6734 41.087L50.2711 61.8841C50.878 63.3044 50.878 64.7247 50.2711 66.145C49.6642 67.5653 48.6527 68.5798 47.2366 69.1885C46.4274 69.4928 45.7194 69.5943 45.0113 69.5943"/>
	<path fill="#2D1B0A" d="M44.9994 70.6087C42.368 70.6087 39.939 68.9855 38.927 66.5507L32.2475 50.3188L19.1919 44.7391C16.5605 43.5724 14.9412 40.884 15.2085 38.0434C15.2085 35.2029 16.8642 32.4637 17.0666 32.1594L29.1101 18.2608C29.9198 17.3478 32.2475 16.5362 33.1582 16.5362C37.8138 16.5362 57.2453 25.3623 63.1152 28.1014C64.5321 28.7101 65.6454 29.8261 66.2525 31.2463C66.8598 32.6666 66.8598 34.2898 66.2525 35.8116C65.0381 38.7536 61.4959 40.2753 58.4598 39.0579L41.5583 31.9565L36.4981 37.8405L42.368 40.3768L51.173 61.5797C51.8814 63.2029 51.8814 65.029 51.173 66.6521C50.5657 68.2753 49.25 69.5942 47.6307 70.2029C46.7198 70.4058 45.8091 70.6087 44.9994 70.6087M33.1582 18.5652C32.551 18.5652 30.9318 19.2753 30.6282 19.5797L18.7871 33.2753C18.7871 33.2753 17.269 35.7101 17.269 38.0434C17.0666 40.1739 18.1798 42 20.0015 42.8116L33.7655 48.6956L40.85 65.7391C41.5583 67.4637 43.1777 68.5797 45.1005 68.5797C45.7078 68.5797 46.315 68.4782 46.8211 68.2753C47.9343 67.7681 48.8451 66.9565 49.25 65.8405C49.7561 64.7246 49.7561 63.5072 49.25 62.3913L40.7487 42L33.0571 38.7536L40.9583 29.7246L59.2694 37.3333C61.1922 38.1449 63.5201 37.1304 64.3297 35.2029C64.7346 34.1884 64.7346 33.1739 64.3297 32.1594C63.9249 31.2463 63.2164 30.4348 62.3055 30.029C50.9706 24.6521 36.4981 18.5652 33.1582 18.5652"/>
	<path fill="#FFE7DC" d="M47.9447 20.087C43.0896 20.087 39.2459 16.1305 39.2459 11.3623C39.2459 6.49276 43.1907 2.63769 47.9447 2.63769C52.6988 2.63769 56.6436 6.59421 56.6436 11.3623C56.6436 16.2319 52.7999 20.087 47.9447 20.087"/>
	<path fill="#2D1B0A" d="M47.9447 21.1015C42.5838 21.1015 38.2344 16.7391 38.2344 11.3623C38.2344 5.98552 42.5838 1.6232 47.9447 1.6232C53.3057 1.6232 57.6551 5.98552 57.6551 11.3623C57.6551 16.7391 53.3057 21.1015 47.9447 21.1015M47.9447 3.65219C43.6965 3.65219 40.2574 7.10146 40.2574 11.3623C40.2574 15.6232 43.6965 19.0725 47.9447 19.0725C52.193 19.0725 55.6321 15.6232 55.6321 11.3623C55.6321 7.10146 52.193 3.65219 47.9447 3.65219"/>
</svg>
