<?xml version="1.0" encoding="utf-8" ?>
<svg xmlns="http://www.w3.org/2000/svg" xmlns:xlink="http://www.w3.org/1999/xlink" width="108" height="90">
	<path fill="white" d="M9.01689 90C4.05253 90 0 85.9505 0 80.9899L0 9.01012C0 4.04949 4.05253 0 9.01689 0L98.9831 0C103.947 0 108 4.04949 108 9.01012L108 80.9899C108 85.9505 103.947 90 98.9831 90L9.01689 90"/>
	<path fill="#100515" d="M8.10515 35.99L8.10515 30.017L99.8951 30.017L99.8951 35.99L8.10515 35.99M8.10515 59.9832L8.10515 54.0103L99.8951 54.0103L99.8951 59.9832L8.10515 59.9832"/>
	<path fill="#5AC0FF" d="M3.0394 9.01015L3.0394 80.9899C3.0394 84.2295 5.67355 86.9629 9.01689 86.9629L98.9831 86.9629C102.225 86.9629 104.96 84.3307 104.96 80.9899L104.96 9.01015C104.96 5.77056 102.326 3.03715 98.9831 3.03715L9.01689 3.03715C5.67355 3.13839 3.0394 5.77056 3.0394 9.01015M89.0544 74.9156L18.743 74.9156C16.6154 74.9156 14.8931 73.1946 14.8931 71.0686L14.8931 18.9314C14.8931 16.8055 16.6154 15.0844 18.743 15.0844L89.0544 15.0844C91.182 15.0844 92.9043 16.8055 92.9043 18.9314L92.9043 71.1698C92.9043 73.2958 91.182 74.9156 89.0544 74.9156"/>
	<path fill="#2D1B0A" d="M98.9831 87.9753L9.01692 87.9753C5.16701 87.9753 2.0263 84.8369 2.0263 80.9899L2.0263 9.01018C2.0263 5.16316 5.16701 2.0248 9.01692 2.0248L98.9831 2.0248C102.833 2.0248 105.973 5.16316 105.973 9.01018L105.973 80.9899C105.973 84.8369 102.731 87.9753 98.9831 87.9753M9.01692 4.15078C6.28146 4.15078 4.05257 6.37801 4.05257 9.11141L4.05257 81.0912C4.05257 83.8246 6.28146 86.0518 9.01692 86.0518L98.9831 86.0518C101.719 86.0518 103.947 83.8246 103.947 81.0912L103.947 9.11141C103.947 6.37801 101.719 4.15078 98.9831 4.15078L9.01692 4.15078M89.0544 75.9281L18.743 75.9281C16.1089 75.9281 13.88 73.8021 13.88 71.0687L13.88 18.9314C13.88 16.2993 16.0075 14.072 18.743 14.072L89.0544 14.072C91.6886 14.072 93.9175 16.198 93.9175 18.9314L93.9175 71.1699C93.9175 73.8021 91.7899 75.9281 89.0544 75.9281M18.8443 16.0968C17.3246 16.0968 16.0075 17.3116 16.0075 18.9314L16.0075 71.1699C16.0075 72.6885 17.2233 74.0046 18.8443 74.0046L89.1558 74.0046C90.6755 74.0046 91.9925 72.7897 91.9925 71.1699L91.9925 18.9314C91.9925 17.4129 90.7768 16.0968 89.1558 16.0968L18.8443 16.0968"/>
	<path fill="#FFCB57" d="M28.0638 42.0134C23.302 42.0134 19.3508 37.9639 19.3508 32.9021C19.3508 27.8402 23.302 23.7907 28.0638 23.7907C32.8255 23.7907 36.7767 27.8402 36.7767 32.9021C36.7767 37.9639 32.8255 42.0134 28.0638 42.0134"/>
	<path fill="#2D1B0A" d="M28.0638 43.0258C22.6942 43.0258 18.3377 38.4701 18.3377 32.902C18.3377 27.334 22.6942 22.7783 28.0638 22.7783C33.4334 22.7783 37.7899 27.334 37.7899 32.902C37.7899 38.5713 33.4334 43.0258 28.0638 43.0258M28.0638 24.8031C23.8086 24.8031 20.364 28.4476 20.364 32.902C20.364 37.3565 23.8086 41.001 28.0638 41.001C32.3189 41.001 35.7636 37.3565 35.7636 32.902C35.7636 28.4476 32.3189 24.8031 28.0638 24.8031"/>
	<path fill="#FFCB57" d="M54.4053 43.532C49.6436 43.532 45.6923 39.4825 45.6923 34.4207C45.6923 29.3588 49.6436 25.3093 54.4053 25.3093C59.167 25.3093 63.1182 29.3588 63.1182 34.4207C63.1182 39.4825 59.167 43.532 54.4053 43.532"/>
	<path fill="#2D1B0A" d="M54.4053 44.5444C49.0357 44.5444 44.6792 39.9887 44.6792 34.4206C44.6792 28.8526 49.0357 24.2969 54.4053 24.2969C59.7749 24.2969 64.1314 28.8526 64.1314 34.4206C64.1314 40.0899 59.7749 44.5444 54.4053 44.5444M54.4053 26.3216C50.1501 26.3216 46.7055 29.9662 46.7055 34.4206C46.7055 38.8751 50.1501 42.5196 54.4053 42.5196C58.6604 42.5196 62.1051 38.8751 62.1051 34.4206C62.1051 29.9662 58.6604 26.3216 54.4053 26.3216"/>
	<path fill="#FFCB57" d="M79.1257 42.2159C74.3639 42.2159 70.4127 38.1664 70.4127 33.1046C70.4127 28.0427 74.3639 23.9932 79.1257 23.9932C83.8874 23.9932 87.8386 28.0427 87.8386 33.1046C87.8386 38.1664 83.9887 42.2159 79.1257 42.2159"/>
	<path fill="#2D1B0A" d="M79.1257 43.2283C73.7561 43.2283 69.3996 38.6726 69.3996 33.1045C69.3996 27.5365 73.7561 22.9808 79.1257 22.9808C84.4953 22.9808 88.8518 27.5365 88.8518 33.1045C88.8518 38.7738 84.4953 43.2283 79.1257 43.2283M79.1257 25.0056C74.8705 25.0056 71.4259 28.6501 71.4259 33.1045C71.4259 37.559 74.8705 41.2035 79.1257 41.2035C83.3808 41.2035 86.8255 37.559 86.8255 33.1045C86.8255 28.6501 83.3808 25.0056 79.1257 25.0056"/>
	<path fill="#FF7461" d="M28.9756 66.7154C24.2139 66.7154 20.2626 62.6659 20.2626 57.6041C20.2626 52.5422 24.2139 48.4927 28.9756 48.4927C33.7373 48.4927 37.6885 52.5422 37.6885 57.6041C37.6885 62.6659 33.7373 66.7154 28.9756 66.7154"/>
	<path fill="#2D1B0A" d="M28.9756 67.7278C23.606 67.7278 19.2495 63.1721 19.2495 57.604C19.2495 52.036 23.606 47.4803 28.9756 47.4803C34.3452 47.4803 38.7017 52.036 38.7017 57.604C38.7017 63.1721 34.3452 67.7278 28.9756 67.7278M28.9756 49.5051C24.7204 49.5051 21.2758 53.1496 21.2758 57.604C21.2758 62.0585 24.7204 65.703 28.9756 65.703C33.2307 65.703 36.6754 62.0585 36.6754 57.604C36.6754 53.1496 33.2307 49.5051 28.9756 49.5051"/>
	<path fill="#FF7461" d="M53.4934 66.513C48.7317 66.513 44.7804 62.4635 44.7804 57.4017C44.7804 52.3398 48.7317 48.2903 53.4934 48.2903C58.2551 48.2903 62.2063 52.3398 62.2063 57.4017C62.2063 62.4635 58.2551 66.513 53.4934 66.513"/>
	<path fill="#2D1B0A" d="M53.4934 67.5254C48.1238 67.5254 43.7673 62.9697 43.7673 57.4016C43.7673 51.8336 48.1238 47.2779 53.4934 47.2779C58.863 47.2779 63.2195 51.8336 63.2195 57.4016C63.2195 62.9697 58.863 67.5254 53.4934 67.5254M53.4934 49.3027C49.2382 49.3027 45.7936 52.9472 45.7936 57.4016C45.7936 61.8561 49.2382 65.5006 53.4934 65.5006C57.7485 65.5006 61.1932 61.8561 61.1932 57.4016C61.1932 52.9472 57.7485 49.3027 53.4934 49.3027"/>
</svg>
