<?xml version="1.0" encoding="utf-8" ?>
<svg xmlns="http://www.w3.org/2000/svg" xmlns:xlink="http://www.w3.org/1999/xlink" width="72" height="76">
	<path fill="white" d="M36 76C16.2323 76 0 59.6277 0 39.4149C0 29.6117 3.68462 20.516 10.3568 13.7447L10.5559 12.633C9.36094 9.90426 9.46052 7.07447 10.9543 4.44681C12.4481 1.71809 15.4356 0 18.6223 0C20.2156 0 21.4107 0.303191 23.004 1.1117C24.0994 1.61702 24.9957 2.42553 25.892 3.6383C30.0745 3.13298 33.1616 2.72872 36.4479 2.72872C39.4354 2.72872 42.7217 3.13298 46.008 3.94149C48.4976 1.71809 50.9872 0.606383 53.676 0.606383C55.0702 0.606383 56.3648 0.909574 57.8586 1.71809C59.7507 2.82979 61.344 4.85106 61.8419 7.07447C62.1407 8.69149 62.0411 10.7128 61.4436 12.5319L61.6428 13.5426C68.2153 20.4149 72 29.8138 72 39.4149C72.0991 59.6277 55.9664 76 36 76"/>
	<path fill="#AEB8BA" d="M18.4234 3.1329C19.2201 3.1329 20.1163 3.33503 20.913 3.73928C22.6059 4.85099 23.4026 6.56907 23.7014 8.28716C27.5851 6.7712 31.7677 5.96269 36.0498 5.96269C40.3319 5.96269 44.4148 6.7712 48.0994 8.28716C48.0994 7.68077 48.2986 6.97333 48.6969 6.56907C49.7923 4.85099 51.4852 3.73928 53.3773 3.73928C54.174 3.73928 55.0703 3.94141 55.8669 4.34567C58.6553 5.86162 59.2528 9.29779 57.759 11.9255C57.3607 12.5318 56.9624 13.0372 56.4644 13.4414C63.9332 19.4042 68.5141 28.8031 68.5141 39.1116C68.5141 57.5052 53.7757 72.2606 35.8506 72.2606C17.5272 72.2606 3.1871 57.3031 3.1871 39.1116C3.1871 28.601 7.86754 19.3031 15.2367 13.2393C12.9463 11.7233 11.8509 8.48928 13.3446 5.86162C14.5397 4.04247 16.4317 3.1329 18.4234 3.1329"/>
	<path fill="#2D1B0A" d="M36 73.3722C17.3281 73.3722 2.2909 58.0105 2.2909 39.2127C2.2909 29.1063 6.47342 19.8084 13.8426 13.3403C11.7514 11.218 11.1539 7.98394 12.6476 5.45734C13.8426 3.43607 16.0335 2.2233 18.4235 2.2233C19.1206 2.2233 20.3156 2.32436 21.411 3.03181C22.9047 3.94139 23.9006 5.35628 24.3985 7.07436C28.0831 5.76053 32.0665 5.05309 36 5.05309C39.9336 5.05309 43.8173 5.76053 47.4024 7.07436C47.5019 6.67011 47.7011 6.36692 47.9999 6.06373C49.2945 4.04245 51.2861 2.82968 53.477 2.82968C54.2736 2.82968 55.3691 2.93075 56.4645 3.63819C57.9582 4.4467 59.0537 5.8616 59.452 7.47862C59.9499 9.1967 59.6512 11.0159 58.7549 12.6329C58.5557 12.9361 58.257 13.2393 58.0578 13.5424C65.5266 19.9095 69.7091 29.2073 69.7091 39.3137C69.7091 58.0105 54.5724 73.3722 36 73.3722M18.4235 4.14351C16.631 4.14351 15.2368 4.95202 14.3405 6.36692C13.046 8.59032 14.1414 11.218 15.9339 12.3297L17.1289 13.1382L16.0335 14.0478C8.56468 20.1116 4.28258 29.3084 4.28258 39.2127C4.28258 56.9999 18.5231 71.351 36 71.351C53.477 71.351 67.6179 56.8988 67.6179 39.2127C67.6179 29.4095 63.3358 20.4148 55.867 14.351L55.7674 12.835C56.1657 12.4307 56.4645 12.0265 56.9624 11.4201C57.5599 10.4095 57.7591 9.09564 57.4603 7.98394C57.1616 6.87224 56.4645 5.96266 55.4686 5.35628C54.8711 5.05309 54.1741 4.85096 53.477 4.85096C51.9832 4.85096 50.589 5.65947 49.6928 7.17543C49.2945 7.68075 49.2945 8.18607 49.2945 8.38819L49.2945 9.90415L47.9003 9.29777C44.2157 7.78181 40.2323 6.9733 36.1494 6.9733C31.9669 6.9733 27.9835 7.78181 24.1993 9.29777L23.0043 9.80309L22.8052 8.59032C22.606 7.37756 22.1081 5.76053 20.5147 4.7499C19.8176 4.34564 19.1206 4.14351 18.4235 4.14351"/>
	<path d="M20.7134 26.7819C20.7134 25.2659 22.008 23.75 23.7009 23.75C25.3938 23.75 26.6884 25.0638 26.6884 26.7819C26.6884 28.5 25.3938 29.8138 23.7009 29.8138C22.2071 29.7128 20.7134 28.5 20.7134 26.7819"/>
	<path d="M43.7173 27.0851C43.7173 25.5691 45.0119 24.0532 46.7048 24.0532C48.3977 24.0532 49.6923 25.367 49.6923 27.0851C49.6923 28.8032 48.3977 30.117 46.7048 30.117C45.0119 30.4202 43.7173 28.8032 43.7173 27.0851"/>
	<path fill="#4C4C4C" d="M14.7384 44.367C14.6388 44.1649 13.5434 42.6489 13.8549 40.8298C14.2405 39.617 14.9376 38.6064 16.2322 37.8989C17.3276 37.3532 18.5226 37.1915 19.5184 37.5957C21.7093 38.4042 22.7051 41.133 22.8047 41.4362L20.9126 42.1436C20.7134 41.5372 19.9168 39.9202 18.8214 39.516C18.3298 39.3138 17.8255 39.4149 17.228 39.7181C16.4313 40.1223 16.033 40.7287 15.8338 41.3351C15.6347 42.3457 16.2322 43.2553 16.2322 43.2553L14.7384 44.367"/>
	<path fill="#4C4C4C" d="M56.7627 44.367L55.1694 43.1543C55.1694 43.1543 55.8665 42.2447 55.5677 41.2341C55.4681 40.6277 54.9702 40.1224 54.1735 39.617C53.576 39.3139 53.0781 39.2128 52.5802 39.4149C51.4848 39.8192 50.6881 41.5373 50.4889 42.0426L48.5969 41.3351C48.5969 41.0319 49.6923 38.3032 51.8831 37.4947C52.879 37.0905 54.074 37.2522 55.1694 37.7979C56.464 38.6064 57.2606 39.617 57.5594 40.7288C57.9577 42.649 56.9619 44.1649 56.7627 44.367"/>
	<path fill="#4C4C4C" d="M35.0538 59.1223C13.245 59.1223 11.8509 45.6809 11.8509 45.4788C12.7471 45.883 14.0417 58.1118 35.0538 58.1118C48.1989 58.1118 55.7673 52.7553 58.4561 47.8032C59.3523 46.1862 59.3523 45.2766 59.2528 45.1756C59.2528 45.1756 59.3523 45.2766 59.3523 45.2766C59.7506 44.3671 60.1489 44.6702 60.1489 45.4788C60.1489 48.5107 54.174 59.1223 35.0538 59.1223"/>
</svg>
