<?xml version="1.0" encoding="utf-8" ?>
<svg xmlns="http://www.w3.org/2000/svg" xmlns:xlink="http://www.w3.org/1999/xlink" width="68" height="84">
	<path fill="white" d="M34 84C15.2674 84 0 68.6255 0 49.5855C0 41.1345 3.11374 32.9891 8.63811 26.6764C8.63811 26.4727 9.03988 25.9636 9.74298 25.1491C8.13589 23.3164 6.42836 20.6691 5.22304 17.0036C5.02216 16.5964 4.92171 16.0873 4.82127 15.68C4.72083 15.5782 4.31905 15.4764 4.31905 15.4764C0.502216 12.9309 -0.703102 8.24727 1.30576 4.37818C2.61152 1.83273 5.42393 0.203636 8.43722 0.203636C9.84343 0.203636 11.1492 0.610909 12.3545 1.22182C16.2718 3.66545 17.5775 8.45091 15.3678 12.32C14.7651 13.2364 14.1625 14.0509 13.3589 14.6618C13.6603 15.68 14.1625 16.5964 14.7651 17.2073C15.5687 18.0218 16.2718 18.7345 16.9749 19.3455C21.997 16.3927 27.7223 14.8655 33.7489 14.7636C38.9719 14.7636 43.9941 16.0873 48.9158 18.5309C49.418 18.0218 49.9202 17.5127 50.4225 17.0036C51.4269 15.9855 51.9291 14.56 52.13 13.2364C51.9291 12.9309 51.7282 12.6255 51.5273 12.32C49.3176 8.45091 50.6233 3.56364 54.4402 1.12C55.6455 0.407273 57.0517 0 58.4579 0C61.4712 0 64.1832 1.62909 65.5894 4.17455C67.6987 7.84 66.3929 12.6255 62.6765 15.1709C61.7725 15.7818 60.969 15.9855 60.2659 16.1891C60.1654 16.3927 60.1654 16.4945 60.065 16.6982C59.2614 19.3455 58.0561 21.6873 56.5495 23.7236C57.9557 24.8436 58.9601 25.9636 59.7637 26.6764C60.1654 27.0836 60.4668 27.5927 60.5672 28.2036C65.3885 34.3127 68 41.8473 68 49.5855C67.8996 68.5236 52.6322 84 34 84"/>
	<path fill="#FFD112" d="M34 80.9455C17.0251 80.9455 3.0635 66.8946 3.0635 49.5855C3.0635 32.2764 16.9247 18.2255 34 18.2255C50.9749 18.2255 64.9365 32.2764 64.9365 49.5855C64.9365 66.8946 51.2762 80.9455 34 80.9455"/>
	<path fill="#2D1B0A" d="M34 81.9637C16.4225 81.9637 2.0591 67.4037 2.0591 49.5855C2.0591 31.7673 16.4225 17.2073 34 17.2073C51.5776 17.2073 65.9409 31.7673 65.9409 49.5855C65.9409 67.4037 51.5776 81.9637 34 81.9637M34 19.3455C17.5273 19.3455 4.06796 32.9891 4.06796 49.6873C4.06796 66.3855 17.5273 80.0291 34 80.0291C50.4727 80.0291 63.9321 66.3855 63.9321 49.6873C63.9321 32.9891 50.4727 19.3455 34 19.3455"/>
	<path fill="#2D1B0A" d="M17.9794 25.76C17.9794 25.76 16.4727 26.5745 15.0665 25.5564C12.5554 24.0291 9.84344 21.0764 8.13591 15.8836C6.22749 10.8945 7.73414 8.4509 7.73414 8.4509L9.84344 9.06181C9.84344 9.06181 9.0399 15.4764 12.5554 19.3454C16.1714 23.1127 19.3856 24.8436 17.9794 25.76"/>
	<path fill="#2D1B0A" d="M16.6781 27.0837C15.9746 27.0837 15.2712 26.88 14.5678 26.3709C12.3571 24.9455 9.14159 22.0946 7.23236 16.1891C5.22264 10.8946 6.83041 8.04366 6.83041 7.84003L10.9503 8.2473C10.8498 9.16366 10.1465 15.0691 13.362 18.5309C14.5678 19.7528 15.6732 20.7709 16.5775 21.5855C18.2859 23.1128 19.3911 24.0291 19.2971 25.1491C19.2971 25.4546 19.1902 25.9637 18.5872 26.4728C18.0849 26.88 17.3815 27.0837 16.6781 27.0837M17.9844 25.76M8.3377 9.77457C8.13673 10.7927 7.93576 12.7273 9.0411 15.68C10.7494 20.9746 13.563 23.6218 15.5727 24.8437C16.1756 25.2509 16.6781 25.2509 17.08 25.1491C16.6781 24.7418 15.8742 24.0291 15.1707 23.4182C14.1659 22.6037 13.0605 21.4837 11.7542 20.2618C8.63916 16.9018 8.53867 12.0146 8.63916 10.08"/>
	<path fill="#2D1B0A" d="M47.3087 25.7787C47.3087 25.7787 49.0162 26.3895 50.322 25.2696C52.833 23.7423 55.6454 20.9931 57.1521 15.6986C59.0605 10.7095 57.5539 8.06225 57.5539 8.06225L55.3441 8.67316C55.3441 8.67316 56.1477 15.1895 52.5317 19.1604C49.0162 23.0296 46.0029 24.7605 47.3087 25.7787"/>
	<path fill="#2D1B0A" d="M48.4135 26.9818C47.61 26.9818 46.9069 26.7781 46.9069 26.7781C46.1033 26.1672 45.9025 25.6581 45.9025 25.2509C45.9025 24.1309 46.9069 23.1127 48.7149 21.4836C49.6189 20.669 50.6233 19.7527 51.7281 18.5309C54.9423 14.9672 54.2392 8.95995 54.2392 8.95995L57.8551 7.0254C58.3573 7.83995 59.9645 10.7927 57.8551 16.189C56.5494 20.669 54.1388 24.029 50.6233 26.1672C50.0206 26.7781 49.2171 26.9818 48.4135 26.9818M48.2126 24.9454C48.6144 24.9454 49.2171 24.9454 49.6189 24.5381C52.833 22.5018 54.9423 19.549 56.1477 15.4763C57.2525 12.4218 57.1521 10.3854 56.9511 9.36722C56.5494 11.5054 56.449 16.4945 53.3352 19.8545C52.1299 21.0763 51.0251 22.0945 50.2215 22.909C49.418 23.7236 48.6144 24.4363 48.2126 24.9454"/>
	<path fill="#2D1B0A" d="M11.0487 28.4073C11.0487 28.4073 17.9792 24.7418 24.709 26.88C31.4387 29.12 33.3471 34.0073 33.3471 34.0073C33.3471 34.0073 35.8582 28.3055 43.4918 26.3709C49.1166 24.7418 54.641 27.5928 57.2524 29.2218C57.4534 29.3237 57.7548 29.0182 57.5538 28.8146C54.44 25.5564 45.9025 17.8182 33.8493 17.8182C18.5819 18.1237 11.0487 28.4073 11.0487 28.4073"/>
	<path fill="#2D1B0A" d="M33.2393 36.6545L32.3355 34.4146C32.2351 34.2109 30.5281 29.8327 24.3024 27.7963C18.0766 25.8619 11.5497 29.2218 11.4493 29.3237L7.5331 31.3601L10.1439 27.7963C10.4451 27.3891 18.1771 17.1055 33.7413 16.9018C46.0924 16.9018 54.9289 24.7418 58.1421 28.2036C58.4982 28.7127 58.6442 29.3237 58.2425 29.8327C57.8409 30.3419 57.138 30.4436 56.6359 30.1382C54.0251 28.5091 48.8036 25.9637 43.6824 27.3891C36.6534 29.2218 34.2434 34.2109 34.143 34.5163L33.2393 36.6545M20.1854 25.1491C21.6916 25.1491 23.2982 25.3528 24.9049 25.8619C29.6243 27.3891 32.0343 30.24 33.2393 31.971C34.6451 30.0364 37.6575 26.7782 43.0799 25.3528C46.494 24.3346 49.8077 24.9455 52.6193 25.8619C48.4019 22.6037 41.8749 18.8364 33.7413 18.8364C24.6036 18.9382 18.2775 22.8073 14.8634 25.76C16.47 25.4546 18.2775 25.1491 20.1854 25.1491"/>
	<path fill="#2D1B0A" d="M4.01773 5.79965C5.32349 3.45783 8.53767 2.54146 10.8479 3.8651C13.3589 5.39237 14.062 8.44692 12.7563 10.7887C11.2496 13.3342 8.53767 14.0469 5.92615 12.7233C3.51551 11.196 2.71197 8.14146 4.01773 5.79965"/>
	<path fill="#2D1B0A" d="M8.53766 14.4582C7.53323 14.4582 6.5288 14.1529 5.52437 13.6441C2.61152 11.7107 1.70753 8.14907 3.21418 5.29979C3.91728 3.97691 5.22304 2.85755 6.83013 2.45051C8.43722 1.94171 10.1447 2.17312 11.4505 2.95931C14.4638 4.79099 15.3678 8.35259 13.7607 11.3036C12.4549 13.3388 10.5465 14.4582 8.53766 14.4582M6.42836 11.9142C8.53766 13.0335 10.647 12.423 11.9527 10.3878C13.0576 8.45435 12.3545 6.01211 10.3456 4.79099C9.44165 4.28219 8.33678 4.18043 7.2319 4.48571C6.22747 4.79099 5.32348 5.50331 4.82127 6.31739C3.81684 8.25083 4.51994 10.5913 6.42836 11.9142"/>
	<path fill="#2D1B0A" d="M62.8774 5.80364C61.5716 3.46182 58.3574 2.54545 56.0473 3.86909C53.4952 5.39636 52.8331 8.45091 54.1388 10.7927C55.6455 13.3382 58.3574 14.0509 60.969 12.7273C63.3796 11.2 64.2836 8.14545 62.8774 5.80364"/>
	<path fill="#2D1B0A" d="M58.4579 14.4581C56.449 14.4581 54.5406 13.3388 53.3353 11.4054C51.6278 8.45438 52.6322 4.8928 55.545 3.06113C56.9512 2.27494 58.6588 2.04353 60.2659 2.55233C61.873 2.95937 63.1787 4.07872 63.8819 5.4016C65.489 8.1491 64.4845 11.8124 61.6721 13.7458C60.4668 14.2546 59.4623 14.4581 58.4579 14.4581M58.4579 4.28224C57.7548 4.28224 57.1521 4.48576 56.5495 4.79104C54.5406 6.01215 53.938 8.45438 55.0428 10.3878C56.2481 12.423 58.3574 13.0335 60.5672 11.9142C62.4756 10.5913 63.1787 8.1491 62.0738 6.31743C61.5716 5.4016 60.7681 4.79104 59.6632 4.48576C59.2614 4.28224 58.8597 4.28224 58.4579 4.28224"/>
	<path d="M19.5865 42.8654C19.5865 41.3381 20.8922 40.32 22.0975 40.32C23.6042 40.32 24.9099 41.6436 24.9099 42.8654C24.9099 44.3927 23.6042 45.7163 22.0975 45.7163C20.6913 45.8181 19.5865 44.5963 19.5865 42.8654"/>
	<path d="M40.6795 43.4764C40.6795 41.9491 41.9852 40.9309 43.1905 40.9309C44.6972 40.9309 46.0029 42.2546 46.0029 43.4764C46.0029 45.0037 44.6972 46.3273 43.1905 46.3273C41.9852 46.3273 40.6795 44.9018 40.6795 43.4764"/>
	<path fill="#5F4F3F" d="M28.0236 51.4214C28.0236 49.8909 30.3338 48.8727 32.9453 48.8727C35.7577 48.8727 37.867 49.9927 37.867 51.4214C37.867 52.8436 35.6573 53.9636 32.9453 53.9636C30.4342 54.0655 28.0236 52.9455 28.0236 51.4214"/>
	<path fill="#4C4C4C" d="M32.6441 61.4982C29.7312 61.4982 27.8228 60.8873 26.8184 59.7673C26.2108 58.8509 26.2108 58.0364 26.2108 57.9346C26.2108 57.7309 26.517 57.5273 26.7179 57.5273C26.9188 57.5273 27.1197 57.8328 27.1197 58.0364C27.1197 58.0364 27.0193 58.5455 27.5215 59.1564C28.1241 59.7673 29.4299 60.5818 32.6441 60.5818C36.2601 60.5818 37.6663 59.36 38.2689 58.7491C38.6707 58.3418 38.7711 57.9346 38.7711 57.7309C38.6707 57.6291 38.6707 57.5273 38.6707 57.4255C38.6707 57.2218 38.8716 56.9164 39.0724 56.9164C39.2733 56.9164 39.675 57.12 39.675 57.6291C39.675 58.24 39.2733 59.1564 38.2689 59.9709C36.9632 60.9891 35.0547 61.4982 32.6441 61.4982"/>
</svg>
