<?xml version="1.0" encoding="utf-8" ?>
<svg xmlns="http://www.w3.org/2000/svg" xmlns:xlink="http://www.w3.org/1999/xlink" width="92" height="94">
	<path fill="white" d="M45.8488 94C26.3976 94 10.4739 78.0626 10.4739 58.3693C10.4739 46.594 16.2185 35.6307 25.6922 29.0324L25.9945 27.7127C25.7929 27.3067 25.4906 27.0022 25.289 26.7991C25.0875 26.5961 24.9867 26.3931 24.9867 26.2916C23.1726 24.1598 15.6138 23.9568 11.2801 23.9568C7.55116 23.7538 2.41121 20.6069 0.597107 15.7343C-0.81386 11.6739 0.294757 7.61339 3.72139 4.46652C6.24097 1.92873 9.66761 0.609071 14.2029 0.609071C22.2655 0.609071 32.2431 5.38013 36.3752 11.2678C38.3909 14.0086 40.0034 17.6631 41.2128 22.1296L42.3214 22.9417C43.3292 22.7387 44.3371 22.7387 45.4457 22.7387C46.5543 22.7387 47.7637 22.7387 48.7715 22.9417L49.9809 22.2311C51.5935 17.054 53.206 13.1965 55.0201 10.5572C59.1522 4.56803 68.9282 0 77.1924 0C81.4253 0 85.1543 1.21814 88.2786 3.75594C91.7052 7.20734 92.8139 11.1663 91.4029 15.0238C89.6896 19.8963 84.5496 23.0432 80.7199 23.2462L76.3862 23.2462C72.8588 23.2462 68.9282 23.4492 67.2149 25.2765C67.0133 25.4795 66.9125 25.6825 66.8118 25.784C66.4086 26.2916 65.9047 27.0022 65.5016 27.9158L65.9047 29.1339C75.4791 35.8337 81.123 46.6955 81.123 58.4708C81.2238 78.0626 65.4008 94 45.8488 94"/>
	<path fill="#FFD2DC" d="M59.2529 36.1383C59.2529 36.1383 61.1678 27.3067 64.5944 23.1447C68.2226 19.0842 75.7814 20.0994 80.3166 19.8963C84.8519 19.6933 92.5114 12.7906 85.4566 6.19227C78.7041 -0.30449 62.5787 5.5832 57.7411 12.486C52.8027 19.3888 51.291 33.9051 51.291 33.9051L59.2529 36.1383"/>
	<path fill="#2D1B0A" d="M59.9584 37.3279L50.0816 34.5872C50.2832 33.166 51.6941 18.8528 56.8341 11.8485C60.1599 7.17892 68.021 3.11844 75.1767 2.32085C79.8127 2.00181 83.6425 3.01693 86.0613 5.45322C88.8832 8.09253 89.891 11.3409 88.7824 14.3863C87.3714 18.1423 83.2393 20.7815 80.2158 20.8831C79.3088 20.9846 78.2002 20.9846 76.9908 20.9846C72.8586 20.9846 67.8195 20.9846 65.1991 23.9284C61.974 27.7859 60.0592 36.3129 60.0592 36.4143M52.2988 33.166L58.4466 34.8917C59.0513 32.3539 60.8654 25.9587 63.7881 22.5072C67.0132 18.8528 72.5563 18.9543 77.0915 18.9543C78.2002 18.9543 79.3088 18.9543 80.2158 18.9543C82.5338 18.8528 85.9605 16.6196 86.9683 13.7772C87.7746 11.4424 87.0691 9.20916 84.7511 7.07741C82.1307 4.53961 78.2002 4.33659 75.3782 4.64112C68.8273 5.25019 61.4701 9.00613 58.4466 13.2697C54.4153 18.7513 52.702 29.9176 52.2988 33.166"/>
	<path fill="#FFD2DC" d="M32.7468 36.7473C32.7468 36.7473 30.832 27.9158 27.4053 23.7538C23.7771 19.6933 16.2184 20.7085 11.6831 20.5054C7.14787 20.3024 -0.51166 13.3996 6.54317 6.80132C13.2957 0.30456 29.421 6.19225 34.2586 13.0951C39.197 19.9979 40.7087 34.5141 40.7087 34.5141L32.7468 36.7473"/>
	<path fill="#2D1B0A" d="M31.9406 38.067L31.7391 37.0519C31.7391 36.9504 29.8242 28.4234 26.5991 24.566C24.0795 21.6221 18.9396 21.7236 14.8075 21.7236C13.6988 21.7236 12.5902 21.7236 11.5824 21.6221C8.55889 21.5206 4.42677 18.8813 3.0158 15.1254C1.90719 12.08 2.81424 8.83162 5.73695 6.19231C8.25654 3.75602 11.9855 2.7409 16.6216 3.24846C23.7772 3.95905 31.6383 8.01952 34.9641 12.6891C40.0033 19.7949 41.515 34.0066 41.6158 34.6156L31.9406 38.067M15.5129 19.5919C19.8466 19.5919 25.0874 19.7949 28.1109 23.1448C31.0336 26.5962 32.8477 32.9914 33.4524 35.5292L39.6002 33.8035C39.197 30.6567 37.5845 19.3889 33.4524 13.7042C30.5297 9.5422 23.0717 5.68475 16.5208 5.07568C13.6988 4.77114 9.76829 4.97417 7.14792 7.51196C4.8299 9.64371 4.12442 11.9785 4.93069 14.2117C5.93852 17.0541 9.36515 19.2873 11.6832 19.3889C12.5902 19.4904 13.6988 19.4904 14.8075 19.4904C15.1098 19.5919 15.3114 19.5919 15.5129 19.5919"/>
	<path fill="#FFD2DC" d="M13.7997 57.9633C13.7997 40.1987 28.2117 25.581 45.9496 25.581C63.5867 25.581 78.0995 40.0972 78.0995 57.9633C78.0995 75.7279 63.6875 90.3456 45.9496 90.3456C28.2117 90.041 13.7997 75.8294 13.7997 57.9633"/>
	<path fill="#2D1B0A" d="M45.8488 91.3607C27.607 91.0562 12.6911 76.1339 12.6911 57.9633C12.6911 39.5897 27.5063 24.5659 45.8488 24.5659C64.1914 24.5659 79.0065 39.4881 79.0065 57.9633C79.0065 76.4385 64.0906 91.3607 45.8488 91.3607M45.8488 26.6977C28.7157 26.6977 14.7068 40.7063 14.7068 58.0648C14.7068 75.0173 28.6149 89.1275 45.8488 89.432C62.982 89.432 76.8901 75.4234 76.8901 58.0648C76.9909 40.7063 62.982 26.6977 45.8488 26.6977"/>
	<path d="M30.8321 51.6695C30.8321 50.1468 32.1423 48.6241 33.8556 48.6241C35.3674 48.6241 36.8791 49.9438 36.8791 51.6695C36.8791 53.3952 35.5689 54.7149 33.8556 54.7149C32.1423 54.7149 30.8321 53.1922 30.8321 51.6695"/>
	<path d="M55.1209 51.6718C55.1209 50.1469 56.4311 48.6242 58.1444 48.6242C59.6562 48.6242 61.1679 49.9438 61.1679 51.6718C61.1679 53.3952 59.8577 54.7194 58.1444 54.7194C56.4311 54.8164 55.1209 53.1922 55.1209 51.6718"/>
	<path fill="#7E665B" d="M40.7089 58.2679C40.7089 56.7452 43.0269 55.4255 45.8488 55.4255C48.8723 55.4255 50.9888 56.5422 50.9888 58.2679C50.9888 59.5875 48.6707 60.8057 45.8488 60.8057C43.0269 60.6026 40.7089 59.5875 40.7089 58.2679"/>
	<path fill="#4C4C4C" d="M45.093 70.9568L44.8914 67.3024L44.8914 60.8056L46.9071 60.8056L46.9071 67.3024L47.1086 70.8553"/>
	<path fill="#4C4C4C" d="M46.2519 71.3629C43.2285 71.3629 41.112 70.7538 40.1042 69.5357C39.3946 68.6221 39.3946 67.6069 39.3946 67.6069C40.3057 67.7085 40.2049 68.3175 40.8097 68.9266C41.4143 69.6372 42.9261 70.4493 46.2519 70.4493C50.0817 70.4493 51.6942 69.1296 52.299 68.4191C52.8028 67.81 52.8028 67.3024 52.8028 67.2009C52.8028 67.3024 53.1052 66.4903 53.1052 66.4903C53.3067 66.4903 53.7099 66.6933 53.7099 67.2009C53.7099 67.81 53.3067 68.8251 52.1982 69.7387C50.7871 70.7538 48.8723 71.3629 46.2519 71.3629"/>
</svg>
