<?xml version="1.0" encoding="utf-8" ?>
<svg xmlns="http://www.w3.org/2000/svg" xmlns:xlink="http://www.w3.org/1999/xlink" width="74" height="76">
	<path fill="white" d="M36.9 76C16.6 76 0 59.1337 0 38.3048C0 30.6845 2.2 23.369 6.3 17.1711C4.6 15.3422 3.7 12.9037 3.7 10.262C3.7 4.47059 8.1 0 13.8 0C17 0 20 1.52406 21.8 3.96257C26.6 1.82888 31.8 0.71123 37 0.71123C42.5 0.71123 47.9 1.93048 52.8 4.26738C54.6 1.72727 57.6 0.203209 60.9 0.203209C66.6 0.203209 71 4.6738 71 10.4652C71 13.3102 69.9 15.9519 68 17.7807C72 23.877 74 30.9893 74 38.3048C74 59.0321 57.4 76 36.9 76"/>
	<path fill="#FF9D5A" d="M6.7 10.262C6.7 6.19783 9.8 3.0481 13.8 3.0481C17.8 3.0481 20.9 6.19783 20.9 10.262C20.9 14.3262 17.8 17.4759 13.8 17.4759C9.8 17.4759 6.7 14.3262 6.7 10.262"/>
	<path fill="#2D1B0A" d="M13.8 18.4919C9.3 18.4919 5.7 14.8342 5.7 10.262C5.7 5.6898 9.3 2.03205 13.8 2.03205C18.3 2.03205 21.9 5.6898 21.9 10.262C21.9 14.8342 18.4 18.4919 13.8 18.4919M13.8 4.06414C10.3 4.06414 7.7 6.70585 7.7 10.262C7.7 13.8182 10.3 16.4599 13.8 16.4599C17.3 16.4599 19.9 13.8182 19.9 10.262C19.9 6.70585 17.3 4.06414 13.8 4.06414"/>
	<path fill="#FF9D5A" d="M53.9 10.4652C53.9 6.40103 57 3.2513 61 3.2513C65 3.2513 68.1 6.40103 68.1 10.4652C68.1 14.5294 65 17.6791 61 17.6791C57 17.6791 53.9 14.5294 53.9 10.4652"/>
	<path fill="#2D1B0A" d="M61 18.6952C56.5 18.6952 52.9 15.0373 52.9 10.4652C52.9 5.893 56.5 2.23525 61 2.23525C65.5 2.23525 69.1 5.893 69.1 10.4652C69 15.0373 65.5 18.6952 61 18.6952M61 4.26734C57.5 4.26734 54.9 6.90905 54.9 10.4652C54.9 14.0214 57.5 16.663 61 16.663C64.5 16.663 67.1 14.0214 67.1 10.4652C67 6.90905 64.4 4.26734 61 4.26734"/>
	<path fill="#FF9D5A" d="M3 38.3048C3 18.9997 18.3 3.6575 37.1 3.6575C55.9 3.6575 71.2 19.203 71.2 38.3048C71.2 57.4062 55.9 72.9521 37.1 72.9521C18 73.0532 3 57.5078 3 38.3048"/>
	<path fill="#2D1B0A" d="M36.9 73.9679C27.6 73.9679 18.9 70.3101 12.3 63.7059C5.6 57 2 47.9572 2 38.3048C2 18.6952 17.7 2.6417 37.1 2.6417C56.5 2.6417 72.2 18.5936 72.2 38.3048C72.2 58.016 56.5 73.9679 37.1 73.9679C37 73.9679 36.9 73.9679 36.9 73.9679M37.1 4.77539C18.9 4.77539 4 19.8128 4 38.4064C4 47.5508 7.5 55.9839 13.7 62.385C19.9 68.6845 28.2 72.139 37 72.0374C55.2 72.0374 70.1 57 70.1 38.4064C70.1 19.8128 55.3 4.77539 37.1 4.77539"/>
	<path fill="#FFEDD1" d="M36.3999 40.1337C36.3999 40.1337 24.2 33.4278 18.1999 39.3208C12.2 44.9091 13.3 55.6791 19.2999 58.8288C25.2999 61.9786 38.2 59.9465 36.7999 59.9465C35.5 59.9465 52.5999 64.2139 57.3999 54.3583C62.2999 44.7058 56.2999 37.4919 49.5 37.4919C43 38 38.3999 40.1337 36.3999 40.1337"/>
	<path fill="#4C4C4C" d="M30.9 38.3048C30.9 36.6791 33.5 35.3583 36.4 35.3583C39.5 35.3583 41.9 36.4759 41.9 38.3048C41.9 40.1337 39.5 41.2513 36.4 41.2513C33.5 41.2513 30.9 39.9305 30.9 38.3048"/>
	<path fill="#4C4C4C" d="M36.7 51.2085C33.4 51.2085 31.2 50.4973 30 49.278C29.296 48.262 29.296 47.3475 29.296 47.3475C30.2 47.4492 30.1 48.0588 30.7 48.6684C31.4 49.3796 32.9 50.2941 36.6 50.2941C40.7 50.2941 42.4 48.8716 43 48.0588C43.4 47.5508 43.5 47.0427 43.4 46.9411C43.4 47.0427 43.7 46.1283 43.7 46.1283C44 46.1283 44.4 46.4331 44.4 46.9411C44.4 47.5508 44 48.6684 42.7 49.5828C41.8 50.3957 39.9 51.2085 36.7 51.2085"/>
	<path fill="#4C4C4C" d="M30.5 11.1765L29.1 9.75403C29.3 9.55082 31.3 7.62034 36.9 7.62034C42.7 7.62034 43.8 9.55082 44 10.0588L42.1 10.7701C42.1 10.8717 41.3 9.65242 36.9 9.65242C32.1 9.65242 30.5 11.1765 30.5 11.1765"/>
	<path fill="#4C4C4C" d="M41.95 14.8342C38.05 11.4813 31.55 14.3262 31.55 14.3262L30.75 12.4973C31.05 12.3957 38.45 9.14438 43.25 13.3102L41.95 14.8342"/>
	<path fill="#4C4C4C" d="M41.95 18.8984C38.05 15.5455 31.55 18.3904 31.55 18.3904L30.75 16.5615C31.05 16.4599 38.45 13.2086 43.25 17.3744L41.95 18.8984"/>
	<path fill="#4C4C4C" d="M36.1 8.6364L38.1 8.6364L38.1 17.8824L36.1 17.8824L36.1 8.6364"/>
	<path d="M20.4 29.5668C20.4 27.9411 21.7 26.4171 23.5 26.4171C25.3 26.4171 26.6 27.7379 26.6 29.5668C26.6 31.3957 25.3 32.7165 23.5 32.7165C21.7 32.7165 20.4 31.3957 20.4 29.5668"/>
	<path d="M44.3 29.5668C44.3 27.9411 45.6 26.4171 47.4 26.4171C49.2 26.4171 50.5 27.7379 50.5 29.5668C50.5 31.3957 49.2 32.7165 47.4 32.7165C45.7 32.7165 44.3 31.3957 44.3 29.5668"/>
	<path fill="#4C4C4C" d="M9.98945 40.2526L21.4024 44.133L9.98945 40.2526"/>
	<path fill="#4C4C4C" d="M9.107 48.3756L20.5771 47.5311L9.107 49.2877"/>
	<path fill="#4C4C4C" d="M51.7422 42.7346L62.8074 38.0192L52.0904 43.5778"/>
	<path fill="#4C4C4C" d="M51.0919 47.4394L62.6281 47.38L51.0919 47.4394"/>
</svg>
