<?xml version="1.0" encoding="utf-8" ?>
<svg xmlns="http://www.w3.org/2000/svg" xmlns:xlink="http://www.w3.org/1999/xlink" width="78" height="88">
	<path fill="white" d="M39.9633 88C20.1643 88 4.16511 71.4115 4.16511 51.0805C4.16511 43.8989 6.06501 37.1218 9.76483 31.154C7.96492 29.9402 6.365 28.423 4.96507 26.5011C0.365294 20.5333 -1.43462 9.2046 1.26525 3.64138C2.3652 1.31494 4.2651 0 6.56499 0C6.66498 0 6.86497 0 6.96497 0C13.1647 0.910345 24.4641 7.78851 27.164 15.0713C27.364 15.4759 27.464 15.8805 27.564 16.2851C31.5638 14.7678 35.6636 14.0598 39.9633 14.0598C43.4632 14.0598 46.863 14.5655 50.1628 15.577C50.2628 15.3747 50.3628 15.0713 50.4628 14.869C53.1627 7.68736 64.6621 0.910345 70.7618 0C71.0618 0 71.2618 0 71.3618 0C73.6617 0 75.6616 1.31494 76.7615 3.74253C79.4614 9.30575 77.5615 20.2299 72.8617 26.1977C71.7618 27.6138 70.5618 28.8276 69.2619 29.8391C73.4617 36.0092 75.7616 43.3931 75.7616 51.0805C75.7616 71.4115 59.6624 88 39.9633 88"/>
	<path fill="#C19A80" d="M18.8643 30.4647C18.8643 30.4647 12.3645 31.5773 6.96481 24.3957C1.56508 17.3153 0.96511 2.44625 6.26485 2.84275C11.6646 3.66004 21.664 10.0324 23.8639 16.0002C26.0639 21.9681 26.1638 24.2945 25.1639 25.0026C24.5639 26.0141 18.8643 30.4647 18.8643 30.4647"/>
	<path fill="#2D1B0A" d="M17.8612 31.5586C15.5605 31.5586 10.5589 30.8505 6.15757 24.9839C1.6154 19.0161 0.45581 8.39537 2.75652 4.04595C3.55677 2.42756 4.85717 1.8112 6.35763 1.8112C12.0594 2.731 22.4626 9.20457 24.8634 15.577C27.064 21.4436 27.3641 24.4781 25.9637 25.5908C24.9634 26.9057 20.7621 30.2436 19.4617 31.2551C18.9615 31.4574 18.4614 31.5586 17.8612 31.5586M6.05754 3.84365C5.65742 3.84365 5.05723 4.04595 4.45705 5.05744C2.45643 8.79997 3.75683 18.5103 7.75807 23.7701C12.1594 29.7379 17.361 29.6368 18.4614 29.5356C21.0622 27.5126 24.0631 24.9839 24.3632 24.4781C24.6633 24.1747 25.4635 23.2643 22.9628 16.3862C20.9622 10.7218 11.0591 4.55169 6.05754 3.84365C6.15757 3.84365 6.05754 3.84365 6.05754 3.84365"/>
	<path fill="#C19A80" d="M58.0625 30.0414C58.0625 30.0414 64.6621 31.154 70.1619 24.0736C75.6616 17.1954 76.2616 2.52874 70.8618 2.82755C65.3621 3.64138 55.1626 9.91265 52.9627 15.7794C50.7628 21.646 50.6628 23.9725 51.6628 24.5793C52.4627 25.7931 58.0625 30.0414 58.0625 30.0414"/>
	<path fill="#2D1B0A" d="M59.1624 31.0529C58.4624 31.0529 58.0624 30.9518 57.9624 30.9518C56.6625 30.1426 52.0627 26.7035 50.9628 25.2874C49.5629 24.1748 49.8628 21.2414 52.0627 15.3748C54.4626 9.10351 65.0621 2.62994 70.7618 1.8123C72.4617 1.8123 73.7617 2.52879 74.5616 4.14718C76.7615 8.49661 75.5616 18.8138 70.9618 24.5794C66.562 30.3449 61.3623 31.0529 59.1624 31.0529M58.4624 29.0299C59.6624 29.1311 64.8621 29.2322 69.3619 23.3656C73.3617 18.3081 74.6616 8.80006 72.7617 5.05753C72.1617 3.84374 71.3618 3.74259 70.9618 3.74259C66.062 4.45063 55.9625 10.5196 53.8626 15.9817C51.3628 22.6575 52.0627 23.5679 52.1627 23.5679C52.9627 24.6805 56.3625 27.4116 58.4624 29.0299"/>
	<path fill="#C19A80" d="M6.76505 50.7769C6.76505 31.8619 21.5644 16.8918 39.5634 16.8918C57.6625 16.8918 72.3619 32.0642 72.3619 50.7769C72.3619 69.4895 57.5625 84.6619 39.5634 84.6619C21.2644 84.6619 6.76505 69.1861 6.76505 50.7769"/>
	<path fill="#2D1B0A" d="M39.6634 85.6734C20.9644 85.6734 5.8651 69.9952 5.8651 50.7769C5.8651 31.5585 21.0644 15.8803 39.6634 15.8803C58.2625 15.8803 73.4618 31.5585 73.4618 50.7769C73.4618 69.9952 58.2625 85.6734 39.6634 85.6734M39.6634 17.9033C22.0643 17.9033 7.865 32.6711 7.865 50.7769C7.865 68.8826 22.1643 83.6504 39.6634 83.6504C57.1626 83.6504 71.4619 68.8826 71.4619 50.7769C71.4619 32.6711 57.1626 17.9033 39.6634 17.9033"/>
	<path fill="#705A4F" d="M25.226 23.2644C25.226 23.2644 25.226 27.5127 27.7259 30.1426C30.2257 32.9748 32.8256 34.1886 32.8256 34.1886L34.5255 28.3219C34.5255 28.3219 38.5253 35.2001 37.5254 36.515C36.4254 37.8299 44.5251 28.3219 44.5251 28.3219L45.625 34.7955C45.625 34.7955 51.4247 30.7495 52.4247 27.2092C53.5246 23.7702 51.8247 22.0506 50.1248 20.7357C48.4249 19.4207 44.3251 17.7012 37.3254 17.7012C30.8257 17.7012 25.226 20.3311 25.226 23.2644"/>
	<path fill="#2D1B0A" d="M37.4184 37.8299C37.2184 37.8299 37.1184 37.7288 36.9184 37.5265C36.8184 37.4253 36.2184 36.9196 36.8184 36.1104C36.9184 35.5035 36.1184 33.3793 34.9185 31.1541L33.5185 35.8069L32.4186 35.3012C32.3186 35.2 29.6187 33.8851 27.0189 30.9518C24.219 28.1196 24.219 23.5679 24.219 23.3656C24.219 22.3541 24.719 21.2414 25.6189 20.4322C27.8188 18.2069 32.5186 16.9877 37.4184 16.9877C45.8179 16.9877 49.7177 19.4207 50.7177 20.2299C52.6176 21.646 54.6175 23.7701 53.4176 27.8161C52.2176 31.5587 46.4179 35.7058 46.2179 35.9081L44.918 36.8184L43.918 30.8506L41.7181 33.3793C40.1182 35.3012 39.1183 36.4138 38.4183 37.1219C38.3183 37.223 38.3183 37.3242 38.2183 37.4253C37.8183 37.7288 37.6183 37.8299 37.4184 37.8299M34.3185 25.9954L35.5184 28.0184C37.0184 30.5472 38.0183 32.6713 38.4183 34.1885C40.1182 32.2667 42.6181 29.3334 43.818 27.8161L45.218 26.1977L46.4179 33.1771C48.3178 31.6598 50.9177 29.1311 51.6177 27.1081C52.4176 24.4782 51.4177 23.1633 49.6178 21.7472C48.7178 21.0391 45.218 18.915 37.4184 18.915C32.4186 18.8138 28.6188 20.2299 27.0189 21.7472C26.5189 22.2529 26.2189 22.7587 26.2189 23.2644C26.2189 23.3656 26.2189 27.2092 28.4188 29.4345C29.8187 31.0529 31.3186 32.0644 32.2186 32.6713L34.3185 25.9954"/>
	<path d="M23.2642 46.023C23.2642 44.5058 24.5641 42.9885 26.264 42.9885C27.9639 42.9885 29.2639 44.3035 29.2639 46.023C29.2639 47.7425 27.9639 49.0575 26.264 49.0575C24.4641 49.2598 23.2642 47.7425 23.2642 46.023"/>
	<path d="M46.2631 46.023C46.2631 44.5058 47.563 42.9885 49.2629 42.9885C50.9628 42.9885 52.2627 44.3035 52.2627 46.023C52.2627 47.7425 50.9628 49.0575 49.2629 49.0575C47.763 49.2598 46.2631 47.7425 46.2631 46.023"/>
	<path fill="#F0E8DC" d="M10.6648 64.5333C10.6648 64.5333 15.3646 54.0139 37.7635 53.3848C60.1624 52.8001 68.462 64.8369 68.462 64.8369C68.462 64.8369 66.662 72.6254 56.4625 79.099C46.263 85.6736 35.2636 85.0667 25.1641 80.6161C14.6646 75.9632 10.6648 64.5333 10.6648 64.5333"/>
	<path fill="#2D1B0A" d="M40.0634 84.9655C35.0636 84.9655 29.9639 83.751 24.6642 81.423C13.9647 76.666 9.86489 65.3301 9.5649 64.824C9.96488 63.6094 14.9646 52.8808 37.7635 52.2511C60.3624 51.6662 68.962 63.6094 69.262 64.1155C69.362 65.2288 67.4621 73.2247 57.0626 79.8036C51.7628 83.2449 46.0631 84.9655 40.0634 84.9655M11.7648 64.6216C12.5648 66.6458 16.7645 75.7551 25.5641 79.6012C36.4636 84.4595 46.9631 83.9534 55.8626 78.1842C64.2622 72.9211 66.7621 66.6458 67.2621 65.0264C65.6621 63.1034 57.0626 53.8929 37.7635 54.399C18.5645 54.905 12.7647 62.7997 11.7648 64.6216"/>
	<path fill="#BFB09E" d="M23.8641 61.2966C23.8641 59.7794 24.9641 58.4644 26.164 58.4644C27.2639 58.4644 28.3639 59.5771 28.3639 61.2966C28.3639 63.0161 27.2639 64.1288 26.164 64.1288C24.9641 63.9265 23.8641 62.915 23.8641 61.2966"/>
	<path fill="#BFB09E" d="M49.0629 61.2966C49.0629 59.7794 50.1629 58.4644 51.3628 58.4644C52.4627 58.4644 53.5627 59.5771 53.5627 61.2966C53.5627 63.0161 52.4627 64.1288 51.3628 64.1288C49.8629 63.9265 49.0629 62.915 49.0629 61.2966"/>
	<path fill="#4C4C4C" d="M39.4634 71.4115C36.1635 71.4115 33.8637 70.7035 32.6637 69.2874C31.8605 68.1747 31.8605 67.0621 31.8605 66.9609L33.8637 67.2644C33.8637 67.2644 33.8637 67.669 34.2636 68.0736C34.7636 68.5793 36.0636 69.3885 39.5634 69.3885C42.9632 69.3885 44.4632 68.377 45.0631 67.7701C45.4631 67.3655 45.563 66.9609 45.563 66.8598C45.563 67.0621 45.8631 67.4667 46.3631 67.4667L46.3631 65.4437C46.9631 65.4437 47.563 65.9494 47.563 66.8598C47.563 67.669 47.063 68.8828 45.7631 69.7931C44.1632 70.9058 42.0633 71.4115 39.4634 71.4115"/>
</svg>
