<?xml version="1.0" encoding="utf-8" ?>
<svg xmlns="http://www.w3.org/2000/svg" xmlns:xlink="http://www.w3.org/1999/xlink" width="78" height="82">
	<path fill="white" d="M38.3448 82C17.6067 81.7004 0.308092 64.7211 0 44.246C-0.197715 31.2619 6.27661 19.1766 16.6962 11.9854L16.0893 9.48843C15.5835 7.59074 16.1904 5.59318 17.9102 3.59562C19.8322 1.19854 23.6764 0.998782 24.8903 0.998782C25.8007 0.998782 26.8124 1.09866 27.5205 1.29842C28.6333 1.59805 29.5437 2.09744 30.2518 2.59683C31.4658 1.49817 32.9832 0.699147 34.2983 0.299635C35.0064 0.0998782 36.018 0 37.0297 0C39 0 41.6831 0.399513 43.2005 2.39708C43.8075 3.29598 44.111 4.29476 44.0098 5.29354C63.1293 7.69062 78 23.8709 78 43.447C78 53.7345 73.9535 63.4227 66.5688 70.7138C59.184 78.0049 49.3713 82 39 82"/>
	<path fill="#FFD112" d="M38.6439 8.03077C36.9777 8.03077 35.3593 8.13065 33.6396 8.33041C33.1339 8.43028 33.8419 7.4315 34.1455 7.23175C36.2697 6.03321 37.8881 6.03321 40.417 6.03321C40.6194 6.03321 40.5182 5.83345 40.5182 5.73357C41.6309 2.73723 36.472 2.73723 34.8535 3.13674C33.2351 3.53625 31.212 5.1343 30.6049 6.73235C29.1889 5.73357 28.1772 4.63491 26.4577 4.13552C24.4345 3.63613 21.0963 4.03564 19.9837 5.33406C19.7814 5.63369 18.264 7.13187 18.6686 8.63004C21.5009 7.63126 26.3565 7.93089 27.368 8.33041C27.975 8.53016 28.8854 9.22931 27.8738 9.62882C13.105 14.2232 2.38257 28.0064 2.67975 44.1867C3.09065 63.1635 18.7698 78.7445 38.0905 79.0483C58.2204 79.3438 74.6081 63.3633 74.6081 43.4875C74.7088 23.9114 58.625 8.03077 38.6439 8.03077"/>
	<path fill="#2D1B0A" d="M38.644 80.0538C38.4451 80.0538 38.2427 80.0538 38.0404 80.0538C18.3133 79.7543 2.02587 63.6799 1.6145 44.211C1.31772 28.6359 11.333 14.3587 26.103 9.16695C24.4844 8.96727 21.0448 8.96727 18.9203 9.66615L17.9087 10.0655L17.6052 8.96727C17.0994 7.17014 18.6168 5.47285 19.0215 4.8738C20.539 2.97683 24.4844 2.67731 26.6088 3.17651C28.0251 3.47604 28.9356 4.27476 29.9472 5.07349C30.0484 5.17333 30.1496 5.17333 30.1496 5.27317C31.1612 3.77556 32.9822 2.57747 34.4996 2.17811C35.6125 1.9461 39.3555 1.57906 40.9742 3.27636C41.3788 3.67572 41.8846 4.57428 41.48 5.97205C41.48 6.67094 40.9742 6.97046 40.4683 7.0703C60.0942 7.96886 75.6736 23.9434 75.6736 43.5121C75.6736 53.3963 71.7281 62.5817 64.6466 69.4707C57.6663 76.3597 48.4603 80.0538 38.644 80.0538M23.8774 7.0703C25.5972 7.0703 27.1146 7.26998 27.8228 7.46966C28.1263 7.5695 29.4414 8.16854 29.4414 9.26679C29.4414 9.56631 29.3403 10.2652 28.2274 10.5647C13.5586 15.1574 3.54334 28.9354 3.74566 44.1112C4.04916 62.4818 19.5273 77.6576 38.1416 77.9571C47.651 78.057 56.4523 74.5625 63.2303 68.0729C70.0083 61.5833 73.6503 52.7973 73.6503 43.5121C73.6503 24.4426 57.9698 8.96727 38.644 8.96727C37.0288 8.96727 35.309 9.06711 33.7915 9.26679C33.1845 9.36663 32.6787 9.06711 32.5775 8.56791C32.274 7.66934 33.2857 6.5711 33.6903 6.37141C35.8148 5.17333 37.5346 5.07349 39.659 4.97365C39.659 4.67412 39.5579 4.57428 39.5579 4.57428C38.8497 3.8754 36.3206 3.77556 35.1066 4.07508C33.6903 4.47444 31.9705 5.87221 31.5659 7.0703L31.1612 8.26839L30.0484 7.5695C29.6438 7.26998 29.2391 6.97046 28.8344 6.67094C28.0251 5.97205 27.2158 5.47285 26.3053 5.17333C24.4844 4.67412 21.5506 5.17333 20.8424 6.07189C20.3366 6.5711 20.1343 6.97046 19.932 7.36982C21.1459 7.17014 22.5622 7.0703 23.8774 7.0703"/>
	<path fill="white" d="M17.4078 36.4555C17.4078 39.7515 20.0379 42.3483 23.376 42.3483C26.7141 42.3483 29.3442 39.7515 29.3442 36.4555C29.3442 33.1595 26.7141 30.5627 23.376 30.5627C20.0379 30.5627 17.4078 33.1595 17.4078 36.4555"/>
	<path fill="#2D1B0A" d="M23.376 43.3471C19.5321 43.3471 16.3962 40.2509 16.3962 36.4555C16.3962 32.6601 19.5321 29.5639 23.376 29.5639C27.2199 29.5639 30.3558 32.6601 30.3558 36.4555C30.3558 40.2509 27.2199 43.3471 23.376 43.3471M23.376 31.5615C20.6448 31.5615 18.4194 33.7588 18.4194 36.4555C18.4194 39.1522 20.6448 41.3495 23.376 41.3495C26.1072 41.3495 28.3326 39.1522 28.3326 36.4555C28.3326 33.7588 26.1072 31.5615 23.376 31.5615"/>
	<path fill="white" d="M50.2833 35.3569C50.2833 38.6529 52.9134 41.2497 56.2515 41.2497C59.5896 41.2497 62.2197 38.6529 62.2197 35.3569C62.2197 32.0609 59.5896 29.4641 56.2515 29.4641C52.9134 29.4641 50.2833 32.0609 50.2833 35.3569"/>
	<path fill="#2D1B0A" d="M56.2515 42.2485C52.4076 42.2485 49.2718 39.1523 49.2718 35.3569C49.2718 31.5615 52.4076 28.4653 56.2515 28.4653C60.0955 28.4653 63.2313 31.5615 63.2313 35.3569C63.2313 39.1523 60.0955 42.2485 56.2515 42.2485M56.2515 30.4629C53.5203 30.4629 51.2949 32.6602 51.2949 35.3569C51.2949 38.0536 53.5203 40.2509 56.2515 40.2509C58.9827 40.2509 61.2082 38.0536 61.2082 35.3569C61.2082 32.6602 58.9827 30.4629 56.2515 30.4629"/>
	<path fill="#FF8F1F" d="M40.6813 58.8337C40.6813 58.8337 26.4165 59.7326 26.7152 56.4366C27.1246 53.1407 34.3066 54.2393 36.3298 51.9421C38.2517 49.545 40.6813 49.8327 40.6813 49.8327C40.6813 49.8327 43.1072 49.545 45.0291 51.9421C46.9511 54.3392 54.2343 53.2405 54.6473 56.4366C55.0436 59.6327 40.6813 58.8337 40.6813 58.8337"/>
	<path fill="#2D1B0A" d="M36.5318 59.9269C32.7871 59.9269 27.9292 59.6272 26.3098 58.0292C25.8038 57.5298 25.6773 56.9305 25.6773 56.3313C26.0062 53.7344 28.9412 53.235 31.4714 52.7356C33.0908 52.436 34.8113 52.0365 35.5197 51.3373C37.5439 48.8404 40.0741 48.8404 40.6813 48.8404C41.2886 48.8404 43.8188 48.8404 45.8429 51.3373C46.4502 52.1364 48.2719 52.436 49.8913 52.7356C52.4214 53.235 55.3565 53.8343 55.6854 56.3313C55.7613 56.9305 55.5589 57.5298 55.0529 58.0292C52.7251 60.4263 42.8067 59.9269 40.6813 59.827C39.9729 59.827 38.4548 59.9269 36.5318 59.9269M40.6813 57.8294C47.6647 58.229 53.3323 57.5298 53.6359 56.531C53.5347 55.5322 51.8142 55.0329 49.4864 54.6333C47.4623 54.2338 45.3369 53.8343 44.3248 52.5359C42.8067 50.6382 40.985 50.838 40.8838 50.838C40.5801 50.838 38.7584 50.6382 37.2403 52.5359C36.127 53.8343 34.1029 54.2338 32.0787 54.6333C29.7509 55.1327 28.0304 55.5322 27.9292 56.531C27.9292 56.531 27.9292 56.531 28.0304 56.6309C29.0425 57.9293 36.0258 58.0292 40.6813 57.8294"/>
	<path fill="#FF8F1F" d="M47.0464 63.9221L34.1996 63.9221C32.2777 63.9221 30.7603 62.4239 30.7603 60.5262L30.7603 58.8283L50.5868 58.8283L50.5868 60.5262C50.5868 62.4239 48.9683 63.9221 47.0464 63.9221"/>
	<path fill="#2D1B0A" d="M47.0464 64.9209L34.1996 64.9209C31.6708 64.9209 29.7488 62.9233 29.7488 60.5262L29.7488 57.8295L51.5984 57.8295L51.5984 60.5262C51.5984 63.0232 49.5753 64.9209 47.0464 64.9209M31.7719 59.8271C31.7719 61.9245 32.8846 62.9233 34.1996 62.9233L47.0464 62.9233C48.3614 62.9233 49.4741 61.8247 49.4741 60.5262L31.7719 59.8271"/>
	<path fill="#BC2D0C" d="M44.5174 61.7247L36.8296 61.7247C35.8181 61.7247 34.9076 60.9257 34.9076 59.827L46.346 59.2277C46.4394 60.8258 45.5289 61.7247 44.5174 61.7247"/>
	<path fill="#3D3D3D" d="M20.5436 36.4555C20.5436 37.9537 21.7575 39.2521 23.376 39.2521C24.8933 39.2521 26.2084 38.0536 26.2084 36.4555C26.2084 34.9573 24.9945 33.6589 23.376 33.6589C21.8587 33.7588 20.5436 34.9573 20.5436 36.4555"/>
	<path fill="#3D3D3D" d="M53.4191 35.3569C53.4191 36.8551 54.633 38.1535 56.2515 38.1535C57.7688 38.1535 59.0839 36.9549 59.0839 35.3569C59.0839 33.8587 57.87 32.5603 56.2515 32.5603C54.633 32.5603 53.4191 33.8587 53.4191 35.3569"/>
</svg>
