<?xml version="1.0" encoding="utf-8" ?>
<svg xmlns="http://www.w3.org/2000/svg" xmlns:xlink="http://www.w3.org/1999/xlink" width="86" height="90">
	<path fill="white" d="M44.0074 90C38.4625 90 32.716 88.6898 26.9694 86.1702C22.6343 84.2553 18.6017 81.0302 15.2747 76.6965C9.93146 70.2464 6.90696 61.9821 6.90696 53.5162C6.90696 48.6786 7.91513 43.841 9.72982 39.4065C3.78165 39.0034 0.555519 37.0885 0 33.561C-0.452646 28.6226 2.77348 24.5913 8.62084 22.5756C6.40288 21.5677 4.38655 19.5521 4.689 15.5207C5.19308 13.4043 6.60451 10.9854 11.6453 10.9854C12.0486 10.9854 12.4519 10.9854 12.7543 10.9854C12.0486 8.66741 11.6453 6.04703 12.3511 3.93057C12.956 2.21725 14.2666 1.00784 15.9804 0.403135C16.6862 0.100784 17.4927 0 18.1984 0C23.4409 0 25.558 5.94625 26.7678 9.07055C26.8686 9.47368 27.0703 9.9776 27.1711 10.1792C28.2801 11.5901 31.0021 15.2184 33.5225 18.645C36.547 17.8387 39.7731 17.4356 43 17.4356C46.427 17.4356 49.754 17.9395 52.9801 18.8466C55.6013 15.3191 58.3234 11.5901 59.4324 10.1792C59.5332 9.87682 59.7348 9.3729 59.8356 9.07055C61.0454 5.94625 63.1626 0 68.405 0C69.1108 0 69.9173 0.100784 70.623 0.403135C72.3369 1.00784 73.6475 2.21725 74.2524 3.93057C75.0589 6.04703 74.6557 8.66741 73.8491 10.9854C74.2524 10.9854 74.6557 10.9854 74.9581 10.9854C79.9989 10.9854 81.4104 13.505 81.8136 14.916C82.1161 19.7536 79.9989 21.6685 77.6802 22.6764C83.3259 24.7928 86.4512 28.7234 86 33.4602C85.443 37.0885 82.1161 39.1041 76.0671 39.4065C77.9826 43.841 78.9908 48.6786 78.9908 53.5162C78.9908 57.6484 78.2851 61.7805 76.8736 65.7111C76.7728 66.215 74.5548 76.8981 62.8601 84.3561C57.1136 88.1859 50.7621 90 44.0074 90"/>
	<path fill="#8D715C" d="M16.8125 3.22514C11.8774 4.93846 17.6182 14.8153 17.6182 14.8153C17.6182 14.8153 8.35231 12.2957 7.42845 15.6216C7.24442 18.8466 8.75517 20.1568 13.8917 20.5599C18.8269 21.1646 20.1362 21.1646 21.8484 22.8779C23.5605 24.3897 27.4886 28.5218 27.4886 28.5218L33.1287 23.3819C33.1287 23.3819 25.7764 13.2028 24.5677 11.7918C23.5605 10.0784 21.8484 1.51181 16.8125 3.22514"/>
	<path fill="#2D1B0A" d="M27.4862 30.0337C26.7809 29.3282 22.8517 25.2968 21.2397 23.7851C19.9299 22.4749 19.1239 22.3741 15.0939 21.8702L13.7842 21.6686C9.04892 21.2655 6.22792 20.0561 6.4193 15.6216C6.63092 14.7145 7.13467 14.1098 7.83992 13.6059C9.75417 12.4973 13.2804 12.9004 15.5977 13.3035C14.4894 10.9855 12.9782 7.05494 13.9857 4.53534C14.3887 3.42672 15.1947 2.62045 16.4037 2.21731C21.3404 0.50399 23.4562 6.45023 24.6652 9.67532C24.8667 10.28 25.0682 10.8847 25.2697 11.1871C26.7809 12.9004 33.5312 22.3741 33.8334 22.7772L27.4862 30.0337M8.54517 15.8231C8.44442 18.0404 9.04892 19.149 14.0864 19.6529L15.3962 19.8545C19.3254 20.3584 20.8367 20.56 22.6502 22.3741C23.9599 23.4827 26.3779 26.1031 27.5869 27.3125L31.8184 23.3819C29.1989 19.7537 24.6652 13.6059 23.7584 12.5981C23.4562 11.9933 23.1539 11.2879 22.8517 10.4816C21.5419 6.75259 19.9299 3.22515 17.1089 4.23299C16.5044 4.43456 16.2022 4.73691 16.0007 5.34161C15.0939 7.76043 17.5119 12.6988 18.5194 14.4122L19.7284 16.5286L17.3104 15.9239C14.8924 15.2184 10.4594 14.5129 8.84742 15.5208C8.64592 15.5208 8.54517 15.7224 8.54517 15.8231"/>
	<path fill="#8D715C" d="M69.5882 3.22513C74.5233 4.93846 68.7824 14.8153 68.7824 14.8153C68.7824 14.8153 78.0484 12.2957 78.9722 15.6215C79.1563 18.8466 77.6456 20.1568 72.5089 20.5599C67.5739 21.1646 66.2645 21.1646 64.5524 22.8779C62.8402 24.3897 58.9122 28.5218 58.9122 28.5218L53.272 23.3819C53.272 23.3819 60.6244 13.2027 61.833 11.7918C62.8402 10.0784 64.5524 1.51181 69.5882 3.22513"/>
	<path fill="#2D1B0A" d="M58.9144 30.0337L51.8619 23.5835C52.6679 22.4749 59.5189 13.0012 60.9294 11.2879C61.1309 10.9855 61.3324 10.3808 61.5339 9.77612C62.7429 6.55103 64.8587 0.60479 69.7954 2.31811C70.9037 2.72125 71.8104 3.52752 72.2134 4.63614C73.1202 7.25652 71.7097 11.0863 70.6014 13.4043C72.9187 13.0012 76.4449 12.5981 78.3592 13.7067C79.0644 14.1098 79.5682 14.7145 79.7798 15.5208C79.9712 20.1569 77.1502 21.3663 72.4149 21.7694L71.1052 21.971C67.0752 22.4749 66.2692 22.5757 65.0602 23.8859C63.3474 25.3976 59.5189 29.429 59.4182 29.5298M54.5821 23.2812L58.8137 27.2117C60.0227 26.0023 62.5414 23.3819 63.8512 22.2733C65.6647 20.4592 67.0752 20.3584 71.1052 19.8545L72.4149 19.6529C77.5532 19.2498 78.0569 18.1412 77.9562 15.8232C77.8554 15.7224 77.7547 15.5208 77.5532 15.3192C75.9412 14.4122 71.5082 15.1177 69.0902 15.7224L66.6722 16.3271L67.8812 14.2106C68.8887 12.4973 71.3067 7.55887 70.3999 5.14006C70.1984 4.63614 69.7954 4.23301 69.2917 4.03144C66.4707 3.0236 64.9594 6.55103 63.5489 10.28C63.2467 11.0863 63.0452 11.7918 62.7429 12.1949C61.7354 13.6059 57.3024 19.6529 54.5821 23.2812"/>
	<path fill="#FFD112" d="M22.9363 26.3046C22.9363 26.3046 18.2027 23.4827 12.5625 24.5913C6.9223 25.6999 2.39004 28.6227 2.85535 33.1579C3.49793 37.6932 15.3825 36.383 19.2098 35.9799C23.1378 35.3752 29.0801 36.5846 29.0801 32.7548C29.0801 28.6227 22.9363 26.3046 22.9363 26.3046"/>
	<path fill="#2D1B0A" d="M11.6579 37.4916C5.51416 37.4916 2.29121 36.0807 1.8461 33.2588C1.38476 28.6227 5.41344 24.8937 12.3629 23.4827C18.0031 22.3741 22.636 24.8937 23.3411 25.2968C24.1468 25.5991 30.0891 28.1187 30.0891 32.654C30.0891 36.4838 25.9597 36.5845 22.636 36.6853C21.5282 36.6853 20.3196 36.7861 19.3124 36.8869C16.3916 37.2901 13.773 37.4916 11.6579 37.4916M15.183 25.2968C14.3773 25.2968 13.5715 25.3976 12.7658 25.4984C8.23352 26.4054 3.49982 28.8242 3.90269 33.0572C4.0034 33.8634 5.51416 36.5845 19.111 34.972C20.2188 34.7705 21.4274 34.7705 22.636 34.7705C26.3626 34.6697 28.0748 34.4682 28.0748 32.7548C28.0748 29.4289 22.636 27.3125 22.5353 27.2117C22.3339 27.1109 19.2117 25.2968 15.183 25.2968"/>
	<path fill="#FFD112" d="M62.8419 26.3018C62.8419 26.3018 67.5756 23.4799 73.2158 24.5885C78.8559 25.6971 83.3882 28.6198 82.8846 33.1551C82.2803 37.6904 70.3957 36.3802 66.5685 35.9771C62.6405 35.3724 56.697 36.5818 56.697 32.752C56.697 28.8214 62.8419 26.3018 62.8419 26.3018"/>
	<path fill="#2D1B0A" d="M74.1204 37.4916C71.9046 37.4916 69.3867 37.29 66.4659 36.9876C65.4587 36.786 64.2501 36.786 63.1422 36.786C59.8185 36.6852 55.6879 36.5845 55.6879 32.7547C55.6879 28.421 61.6315 25.6999 62.4372 25.3975C63.0415 24.9944 67.7752 22.4748 73.4153 23.5834C80.3648 24.8936 84.3935 28.6226 83.8899 33.2586C83.487 36.0806 80.2641 37.4916 74.1204 37.4916M70.5953 25.2967C66.5666 25.2967 63.4444 27.1108 63.4444 27.1108C61.8329 27.8163 57.7035 30.0336 57.8042 32.6539C57.8042 34.3672 59.5164 34.5689 63.2429 34.6697C64.4515 34.6697 65.6601 34.7704 66.768 34.8712C80.3648 36.4837 81.7748 33.7626 81.8756 32.9563C82.2784 28.8242 77.5447 26.4053 73.0125 25.4983C72.2067 25.3975 71.401 25.2967 70.5953 25.2967"/>
	<path fill="#FFD112" d="M9.76225 53.5173C9.76225 34.972 24.6684 20.4592 42.7974 20.4592C61.0272 20.4592 75.8326 35.3752 75.8326 53.5173C75.8326 71.6573 60.9264 86.5754 42.7974 86.5754C24.6684 86.775 9.76225 71.8589 9.76225 53.5173"/>
	<path fill="#2D1B0A" d="M42.6967 87.682C33.7329 87.682 25.2727 84.1546 18.8268 77.8052C12.3809 71.355 8.7551 62.7884 8.7551 53.617C8.7551 34.7705 24.0641 19.5521 42.7974 19.5521C61.5308 19.5521 76.8398 34.8712 76.8398 53.617C76.8398 72.4636 61.5308 87.682 42.7974 87.682C42.7974 87.682 42.6967 87.682 42.6967 87.682M42.8982 21.467C25.172 21.467 10.8702 35.8791 10.8702 53.5163C10.8702 62.1837 14.1938 70.2464 20.3376 76.2934C26.3806 82.3405 34.3372 85.5655 42.7974 85.5655C42.8982 85.5655 42.8982 85.5655 42.9989 85.5655C60.7251 85.5655 75.0269 71.1534 75.0269 53.5163C75.0269 35.8791 60.5236 21.467 42.8982 21.467"/>
	<path d="M26.9848 46.2598C26.9848 44.748 28.2941 43.2363 30.0063 43.2363C31.7185 43.2363 33.0278 44.5465 33.0278 46.2598C33.0278 47.9731 31.7185 49.2833 30.0063 49.2833C28.3948 49.4849 26.9848 48.0739 26.9848 46.2598"/>
	<path d="M50.3512 46.2598C50.3512 44.748 51.6605 43.2363 53.3727 43.2363C55.0849 43.2363 56.3942 44.5465 56.3942 46.2598C56.3942 47.9731 55.0849 49.2833 53.3727 49.2833C51.7612 49.4849 50.3512 48.0739 50.3512 46.2598"/>
	<path fill="#FFEBE1" d="M12.8257 66.719C12.8257 66.719 22.2991 56.3382 41.4353 55.0522C60.5715 54.0202 73.8661 65.308 73.8661 65.308C73.8661 65.308 71.9526 74.9832 61.1758 81.9373C50.3992 88.7906 38.8167 88.1859 28.1406 83.4491C17.4647 78.7123 12.6303 66.719 12.8257 66.719"/>
	<path fill="#2D1B0A" d="M43.9027 87.9843C38.665 87.9843 33.2258 86.7748 27.6859 84.356C16.8076 79.6192 11.5698 67.4243 11.7657 66.5173C14.1887 63.8969 23.6569 55.2295 41.3846 54.0424C60.7239 53.0123 74.0196 63.9977 74.5232 64.5016L74.8254 65.5095C74.7247 65.9127 72.7102 75.6887 61.7311 82.7436C56.1912 86.1702 50.2484 87.9843 43.9027 87.9843M13.8865 67.0212C14.8938 69.44 19.7286 78.6114 28.4917 82.5419C40.0751 87.6819 51.1549 87.0773 60.6231 81.0302C69.3862 75.3863 72.1058 67.8276 72.7102 65.7111C70.1921 63.7962 57.9035 55.2295 41.4853 56.1366C25.0671 57.1444 15.901 65.1064 13.8865 67.0212"/>
	<path fill="#79543B" d="M37.4594 54.6249C37.4594 53.1131 39.9773 51.803 42.7974 51.803C45.8189 51.803 48.1354 52.9116 48.1354 54.6249C48.1354 56.3382 45.8189 57.4469 42.7974 57.4469C39.7759 57.4469 37.4594 56.2374 37.4594 54.6249"/>
	<path fill="#4C4C4C" d="M42.7499 68.6338C39.4262 68.6338 37.1097 67.9283 35.9011 66.5174C35.092 65.4087 35.092 64.3001 35.092 64.1993L37.1097 64.5017L36.1025 64.4009L37.1097 64.5017C37.1097 64.5017 37.1097 64.9048 37.5126 65.308C38.0162 65.8119 39.3255 66.6182 42.8506 66.6182C47.7857 66.6182 48.8937 64.5017 48.8937 64.0986C48.8937 64.0986 48.8937 64.3001 49.095 64.5017C49.2964 64.7033 49.4979 64.804 49.6993 64.804L49.6993 62.7884C50.3036 62.7884 50.9079 63.2923 50.9079 64.0986C50.9079 64.9048 50.4044 66.1142 49.095 67.0213C47.4836 68.1299 45.3685 68.6338 42.7499 68.6338"/>
</svg>
