<?xml version="1.0" encoding="utf-8" ?>
<svg xmlns="http://www.w3.org/2000/svg" xmlns:xlink="http://www.w3.org/1999/xlink" width="118" height="86">
	<path fill="white" d="M33.238 86C31.3185 86 29.8031 85.3 28.8938 83.9C28.0856 82.6 27.7825 81.2 28.1866 79.7C28.2877 79.4 28.3887 79.2 28.3887 78.9C26.9743 77.1 26.4692 75.8 26.4692 74.2C26.4692 73 26.8733 71.4 28.5908 70.4C29.601 69.8 30.4092 69.5 31.7226 69.5C33.9452 69.5 36.6729 70.4 36.976 70.5C37.1781 70.5 38.0873 70.7 39.2997 70.7C42.0274 70.7 44.6541 69.2 47.1798 66.3L48.089 65.2L46.7757 64.7C39.1986 61.6 33.036 56.2 29.399 49.3L28.1866 48.8C27.8836 48.9 27.4795 49 27.1764 49.1C26.8733 49.2 26.5702 49.3 26.2671 49.4C25.1558 49.7 24.1455 49.8 23.2363 49.8C19.5993 49.8 16.8716 48 15.0531 44.6L12.6284 44.1C11.3151 44.1 10.0017 43.9 8.68836 43.5C1.41438 41.4 0 36.5 0 29.3L0 28.3C2.62671 21.1 6.06164 17.4 16.9726 10.5C22.4281 7 26.8733 5.3 30.7123 5.3C33.036 5.3 35.2586 5.8 37.0771 6.9L38.1884 6.8C44.149 2.4 51.4229 0 58.7979 0C66.7791 0 74.2551 2.7 81.024 7.9L82.0342 8.1C83.6507 7.4 85.4692 7.1 87.2877 7.1C91.1267 7.1 95.4709 8.7 101.027 12.2C111.433 18.8 115.07 22.6 118 30.1C118 37.2 116.99 43.2 109.312 45.2C108.099 45.6 106.685 45.8 105.271 45.8L103.149 45.8C101.836 48.3 99.3099 51.5 94.6627 51.5C93.9555 51.5 93.1473 51.4 92.4401 51.2C92.137 51.1 91.8339 51.1 91.6318 51.1C90.9247 50.9 90.3185 50.8 89.6113 50.4L88.1969 50.8C83.6507 58.6 75.8716 64.2 66.8801 66.3C65.4658 68.2 64.4555 69.6 63.3442 70.9C55.0599 80.9 41.3202 83.8 39.7038 84.1C38.2894 84.7 35.6627 86 33.238 86"/>
	<path fill="#B8C2C4" d="M18.8083 13.2C8.60455 19.6 5.67476 22.8 3.2501 29.4C3.2501 35.8 4.3614 39 9.5138 40.3C14.4641 41.6 17.0909 39.5 17.0909 39.5C17.0909 39.5 17.8991 48 25.2741 46.2C32.6491 44.3 41.2364 27.7 41.6405 22.9C42.2467 18.4 42.4487 14.5 38.0035 11.4C33.3563 8.09996 29.0121 6.59996 18.8083 13.2"/>
	<path fill="#2D1B0A" d="M23.2363 47.4C21.9229 47.4 20.6096 47 19.5993 46.3C17.5788 44.9 16.6695 42.5 16.3664 41C14.9521 41.6 12.6284 42.1 9.29452 41.2C3.43493 39.8 2.2226 35.8 2.2226 29.3C4.74828 22 8.08219 18.6 18.286 12.2C29.1969 5.09999 33.9452 7.09999 38.5925 10.3C43.4418 13.8 43.3408 18 42.6336 22.8C42.2294 28.1 33.339 44.9 25.5599 46.9C24.7517 47.3 23.9435 47.4 23.2363 47.4M17.9829 37.6L18.1849 39.5C18.1849 39.5 18.589 43.2 20.9127 44.8C22.024 45.6 23.4384 45.7 25.1558 45.3C31.8236 43.6 40.411 27.5 40.714 22.9C41.3202 18.4 41.5223 15.1 37.4812 12.3C33.137 9.29999 29.2979 7.69999 19.3973 14.2C9.5976 20.3 6.66781 23.4 4.34418 29.7C4.34418 36.2 5.65753 38.4 9.79965 39.4C14.1438 40.5 16.4675 38.8 16.4675 38.8L17.9829 37.6"/>
	<path fill="#B8C2C4" d="M98.6027 14.6704C108.807 21.0704 111.736 24.2704 114.161 30.8704C114.161 37.2704 113.05 40.4704 107.897 41.7704C102.745 43.0704 100.32 40.9704 100.32 40.9704C100.32 40.9704 99.512 49.4704 92.137 47.6704C84.762 45.7704 76.1746 29.1704 75.7705 24.3704C75.1644 19.8704 74.9623 15.9704 79.4075 12.8704C84.1558 9.57043 88.601 8.27043 98.6027 14.6704"/>
	<path fill="#2D1B0A" d="M94.2585 48.9C93.5514 48.9 92.7431 48.8 92.0359 48.6C84.1558 46.6 75.3664 29.8 74.9623 24.4C74.2551 19.7 74.1541 15.4 79.0034 12C84.4589 8.30002 89.2072 7.50002 99.3099 13.9C109.514 20.3 112.747 23.7 115.272 30.6C115.373 37.4 114.262 41.4 108.301 42.9C104.967 43.7 102.644 43.2 101.229 42.7C100.825 44.2 99.9161 46.6 97.9966 48C96.7842 48.5 95.5719 48.9 94.2585 48.9M86.6815 11.1C83.9538 11.1 82.0342 12.2 80.0137 13.6C76.0736 16.4 76.1746 19.7 76.7808 24.2C77.1849 28.8 85.7722 45 92.44 46.7C94.1575 47.1 95.5719 47 96.6832 46.2C98.6027 44.9 99.3099 41.9 99.4109 40.9L99.613 38.9L101.128 40.2C101.229 40.3 103.25 41.9 107.796 40.8C112.039 39.8 113.252 37.6 113.252 31.1C110.928 24.8 107.897 21.7 98.1986 15.6C93.0462 12.3 89.5103 11.1 86.6815 11.1"/>
	<path fill="#B8C2C4" d="M28.4897 33.3C28.4897 16.7 42.1283 3.2 58.8988 3.2C75.6694 3.2 89.5101 16.7 89.5101 33.3C89.5101 49.9 75.8715 63.6 58.8988 63.6C42.2294 63.4 28.4897 50 28.4897 33.3"/>
	<path fill="#2D1B0A" d="M58.8987 64.6C41.5218 64.3 27.4789 50.3 27.4789 33.3C27.4789 16.1 41.6229 2.2 58.8987 2.2C76.3766 2.2 90.5211 16.2 90.5211 33.3C90.6216 50.6 76.3766 64.6 58.8987 64.6M58.8987 4.2C42.6331 4.2 29.4995 17.3 29.4995 33.3C29.4995 49.2 42.7342 62.4 59 62.6C75.3663 62.6 88.601 49.4 88.601 33.3C88.601 17.2 75.2653 4.2 58.8987 4.2"/>
	<path d="M43.6438 28.2C43.6438 26.7 44.7551 25.4 46.4726 25.4C47.988 25.4 49.3014 26.5 49.3014 28.2C49.3014 29.9 48.1901 31 46.4726 31C44.9572 31 43.6438 29.7 43.6438 28.2"/>
	<path d="M66.8801 28.2C66.8801 26.7 67.9914 25.4 69.7089 25.4C71.2243 25.4 72.5377 26.5 72.5377 28.2C72.5377 29.9 71.4264 31 69.7089 31C67.9914 31 66.8801 29.7 66.8801 28.2"/>
	<path fill="#C7D1D3" d="M52.4333 38.6214C50.2107 42.6214 56.9795 57.6214 50.2107 67.0213C43.3408 76.2214 35.2586 72.9214 35.2586 72.9214C35.2586 72.9214 29.298 70.6214 29.298 73.5213C29.298 76.4214 34.2483 77.4214 34.2483 77.4214C34.2483 77.4214 29.5001 79.3214 31.2175 81.4214C32.7329 83.6214 38.0874 80.3214 38.0874 80.3214C38.0874 80.3214 52.3322 78.0213 60.5155 68.2214C68.4966 58.1214 69.0018 45.3214 66.4761 39.0214C64.1525 32.9214 54.6559 34.6214 52.4333 38.6214"/>
	<path fill="#2D1B0A" d="M33.1369 83.3C32.1266 83.3 31.2174 83 30.6112 82.1C30.005 81.3 30.005 80.5 30.1061 79.9C30.3081 79 31.1163 78.3 31.8235 77.7C30.2071 77 28.3886 75.7 28.3886 73.6C28.3886 72.5 28.8937 71.9 29.3989 71.6C31.2174 70.4 35.0564 71.7 35.7636 72C36.0667 72.1 43.1386 74.8 49.5033 66.4C53.5444 60.8 52.4331 53 51.6249 46.8C51.1198 42.9 50.7157 39.9 51.6249 38.1C53.0393 35.5 56.7773 33.8958 60.5153 33.8958C63.8492 34.1 66.4759 35.8 67.6883 38.6C70.517 46 69.3047 59.1 61.5256 68.8C53.6454 78.3 40.5119 81 38.5924 81.3C37.7841 81.9 35.2585 83.3 33.1369 83.3M31.3184 73.1C30.9143 73.1 30.6112 73.2 30.5102 73.3C30.5102 73.3 30.4092 73.4 30.4092 73.6C30.4092 75.3 33.541 76.3 34.5513 76.5L37.9862 77.1L34.7533 78.4C33.743 78.8 32.2276 79.7 32.0256 80.4C32.0256 80.5 31.9246 80.6 32.1266 80.9C32.8338 81.8 35.8646 80.7 37.6831 79.6C38.1883 79.5 52.13 77.1 59.9091 67.7C68.0924 57.4 67.7893 44.9 65.7687 39.4C64.5564 36.6 61.8287 36 60.3133 36C57.3835 35.9 54.3526 37.2 53.3424 39.1C52.7362 40.3 53.1403 43.4 53.5444 46.6C54.3526 52.8 55.565 61.4 51.1198 67.6C43.8458 77.3 35.0564 73.9 34.9554 73.9C33.8441 73.4 32.3287 73.1 31.3184 73.1"/>
</svg>
