<?xml version="1.0" encoding="utf-8" ?>
<svg xmlns="http://www.w3.org/2000/svg" xmlns:xlink="http://www.w3.org/1999/xlink" width="80" height="74">
	<path fill="white" d="M40.0941 74C20.1666 74 4.02528 57.7439 4.02528 37.8976C4.02528 34.1078 4.72274 30.1186 5.81875 26.7278L5.32056 25.531C5.12129 25.4313 4.92201 25.2318 4.82238 25.1321C1.83325 22.4394 0.139407 18.6496 0 14.4609C-0.259143 10.372 1.13578 6.68194 3.92564 3.88949C6.61585 1.2965 9.9039 0 13.5905 0C17.7753 0 21.8604 1.69542 24.8495 4.68733L25.9456 4.88679C30.23 2.99191 35.3115 1.99461 40 1.99461C44.6774 1.99461 49.3604 2.99191 53.8441 4.88679L54.9401 4.68733C57.9292 1.69542 61.9147 0 66.1992 0C69.7861 0 73.1738 1.2965 76.0633 3.69003C81.643 9.27493 81.2444 18.8491 75.1665 24.9326L74.0705 26.0296C75.4655 30.4178 76.0633 34.2075 76.0633 38.097C76.1629 57.8437 60.0216 74 40.0941 74"/>
	<path fill="#30333A" d="M7.33611 22.3576C2.65493 17.6703 2.25653 9.99107 6.53931 5.80239C10.7225 1.61371 18.2921 1.9129 22.9732 6.60023C24.0688 7.69727 24.8656 8.7943 25.4632 9.99107L10.6229 24.8509C9.3281 24.1528 8.3321 23.355 7.33611 22.3576"/>
	<path fill="#2D1B0A" d="M10.7276 26.0296C8.83517 25.0323 7.83918 24.1348 6.54438 22.938C3.95479 20.345 2.4608 16.7547 2.4608 13.0647C2.4608 9.87331 3.65599 6.98113 5.74759 4.88679C10.3292 0.29919 18.4963 0.698108 23.5759 5.68463C24.7711 6.8814 25.5679 8.07816 26.2651 9.37466L10.7276 26.0296M13.9147 3.78975C11.4248 3.78975 8.93477 4.68733 7.14198 6.48247C5.44879 8.17789 4.45279 10.5714 4.45279 13.2641C4.45279 16.3558 5.74759 19.4474 7.93878 21.7412C8.83517 22.6388 9.53237 23.2372 10.3292 23.7358L24.1735 9.87331C23.6755 8.97574 22.9783 8.17789 22.1815 7.38005C19.8907 4.88679 16.9027 3.78975 13.9147 3.78975"/>
	<path fill="#30333A" d="M72.9773 22.3396C77.6585 17.6523 78.0569 9.97307 73.7741 5.78439C69.5909 1.59571 62.0214 1.8949 57.3402 6.58223C56.2446 7.67927 55.4478 8.7763 54.8502 9.97307L69.6905 24.8329C70.8857 24.1348 71.8817 23.337 72.9773 22.3396"/>
	<path fill="#2D1B0A" d="M69.5909 26.0297L53.655 10.0728C54.651 8.17791 55.4478 6.98114 56.643 5.78438C61.7226 0.69812 69.8897 0.39893 74.4713 4.98653C76.5629 7.08087 77.7581 9.87333 77.7581 13.1644C77.7581 16.8545 76.2641 20.4448 73.6745 23.0377C72.5789 24.1348 71.4833 25.0324 70.2881 25.7305M56.145 9.7736L69.8897 23.5364C70.6865 22.938 71.4833 22.3396 72.2801 21.5418C74.4713 19.3477 75.7661 16.2561 75.7661 13.0647C75.7661 10.372 74.7701 7.97845 73.0769 6.38276C69.1925 2.49327 62.3202 2.89219 58.0374 7.1806C57.2406 8.07818 56.643 8.87602 56.145 9.7736"/>
	<path fill="#F2F2F2" d="M7.4405 37.5984C7.4405 19.248 22.1812 4.8868 40.1092 4.8868C58.2363 4.8868 72.7778 19.6469 72.7778 37.5984C72.7778 55.5499 58.0371 70.31 40.1092 70.31C22.1812 70.31 7.4405 55.7493 7.4405 37.5984"/>
	<path fill="#2D1B0A" d="M40.2089 71.407C21.5837 71.407 6.5442 56.248 6.5442 37.6981C6.5442 19.0485 21.6833 3.9892 40.2089 3.9892C58.7344 3.9892 73.8735 19.1482 73.8735 37.6981C73.8735 56.248 58.7344 71.407 40.2089 71.407M40.2089 5.88408C22.6793 5.88408 8.53619 20.1455 8.53619 37.5984C8.53619 55.0512 22.7789 69.3127 40.2089 69.3127C57.6388 69.3127 71.8815 55.0512 71.8815 37.5984C71.8815 20.1455 57.6388 5.88408 40.2089 5.88408"/>
	<path fill="#181C23" d="M63.7145 42.4851C66.7025 39.4932 65.6068 33.5094 61.2244 29.0215C57.0413 24.8538 50.8661 23.4366 47.7785 26.5283C44.7905 29.5202 46.1502 35.7034 50.2685 39.9918C54.7505 44.4798 60.6269 45.5769 63.7145 42.4851"/>
	<path fill="white" d="M55.7465 32.5121C55.7465 31.0161 54.4517 29.5202 52.7585 29.5202C51.0653 29.5202 49.7705 30.8167 49.7705 32.5121C49.7705 34.2075 51.0653 35.504 52.7585 35.504C54.2525 35.504 55.7465 34.2075 55.7465 32.5121"/>
	<path fill="#181C23" d="M15.8071 42.5849C12.8191 39.593 13.9147 33.6092 18.2971 29.1213C22.4802 24.9536 28.6554 23.5364 31.743 26.6281C34.7309 29.62 33.4361 35.8032 29.253 40.0916C24.6714 44.4799 18.7951 45.5769 15.8071 42.5849"/>
	<path fill="white" d="M23.5758 32.5121C23.5758 31.0161 24.8706 29.5202 26.5638 29.5202C28.257 29.5202 29.5518 30.8167 29.5518 32.5121C29.5518 34.2075 28.257 35.504 26.5638 35.504C24.8706 35.504 23.5758 34.2075 23.5758 32.5121"/>
	<path fill="#4C4C4C" d="M34.9301 41.4879C34.9301 39.9919 37.4201 38.6954 40.2089 38.6954C43.1969 38.6954 45.4877 39.7925 45.4877 41.4879C45.4877 43.1833 43.1969 44.2804 40.2089 44.2804C37.2209 43.9812 34.9301 42.9839 34.9301 41.4879"/>
	<path fill="#4C4C4C" d="M40.0105 54.5525L39.8106 50.663L39.8106 43.9811L40.7105 50.663L40.9105 54.4528"/>
	<path fill="#4C4C4C" d="M40.5077 54.6523C37.3205 54.6523 35.2289 54.0539 34.1333 52.7574C33.4322 51.8598 33.4322 50.9623 33.4322 50.8625C34.3325 50.9623 34.2329 51.5607 34.8305 52.159C35.4281 52.8571 36.9221 53.655 40.5077 53.655C44.5913 53.655 46.1849 52.3585 46.6829 51.5607C47.0813 51.062 47.0813 50.6631 47.0813 50.5634C47.0813 50.5634 47.3801 49.7655 47.3801 49.7655C47.6789 49.7655 48.0773 50.0647 48.0773 50.5634C48.0773 51.2615 47.6789 52.159 46.4837 53.0566C44.9897 54.1536 42.9977 54.6523 40.5077 54.6523"/>
</svg>
