<?xml version="1.0" encoding="utf-8" ?>
<svg xmlns="http://www.w3.org/2000/svg" xmlns:xlink="http://www.w3.org/1999/xlink" width="48" height="150">
	<path fill="white" d="M14.2784 149.799C8.98485 149.799 4.81106 144.672 4.81106 138.137L4.81106 112.198C4.81106 108.076 7.55965 104.859 11.0208 104.859L18.9612 104.859C18.1468 101.139 17.2306 97.118 16.3144 92.7949C13.3622 91.3874 12.1406 89.5777 11.7334 88.0697C10.41 86.7627 7.96685 84.1488 7.35605 80.8311C6.43986 79.6247 5.72726 78.2172 5.62546 76.7091L3.18227 74.2962L3.28407 72.8887C3.38587 71.6823 3.18227 70.0737 2.87687 69.6716C1.65527 68.1635 1.85887 66.9571 2.26607 66.1528C1.55348 64.7453 1.04448 63.3378 0.942678 62.0308L0.840878 59.819C0.43368 58.311 0.128281 56.6019 0.23008 54.4906L0.43368 50.6702C0.128281 49.2627 0 47.7547 0 46.2466L1.65527 45.945C1.24808 43.9343 1.04448 41.7225 1.45168 39.7118L2.16427 38.7064L5.72726 34.1823L6.64346 32.3727L10.0028 25.2346L12.8532 30.8646C13.5658 32.2721 13.973 33.4786 14.2784 34.3834L15.6018 36.3941C15.8054 36.7962 15.9072 37.1984 16.009 37.6005L18.7576 45.3418C18.9612 45.4424 19.063 45.6434 19.2666 45.8445C19.572 43.0295 19.572 41.1193 19.9792 39.5107L20.7936 36.5952C20.8954 34.685 21.2008 32.4732 22.2188 30.0603L24.0512 25.4357C24.2548 23.626 24.662 21.7158 25.3746 19.9062L27.6142 20.2078C27.9196 17.6944 28.5304 14.8794 29.8538 12.6676L31.0754 13.1702L31.1772 11.8633L37.2851 7.94236L39.2193 5.93164L45.0219 0L45.9381 6.13271C46.2435 8.24397 46.3453 10.0536 46.1417 11.5617L47.0579 13.9745C47.0579 15.0804 47.0579 16.0858 46.9561 16.9906L47.1597 26.2399C47.2615 26.6421 47.4651 27.1448 47.6687 27.6475C48.1777 29.3566 48.2795 32.8753 46.6507 36.193C46.8543 36.9973 47.4651 39.8123 46.6507 42.5268C47.2615 44.1354 47.5669 46.8499 45.8363 49.6649C46.0399 51.2735 46.2435 54.189 45.0219 57.3056C45.8363 58.7131 46.1417 60.7239 45.0219 62.7346C45.2255 64.6448 44.8183 67.2587 42.5787 69.37L42.8841 75L41.4589 76.2064L40.5427 80.9316L34.1294 85.8579L32.3988 105.06L40.0337 105.06C43.4949 105.06 46.2435 108.277 46.2435 112.399L46.2435 138.338C46.2435 144.873 42.0697 150 36.7761 150L14.2784 150M24.662 94.7051C24.7638 93.4987 24.8656 92.3928 25.0692 91.1863L24.153 92.5938L24.662 94.7051"/>
	<path fill="#428E25" d="M30.9736 82.8418C30.9736 82.8418 24.153 79.1219 25.3746 74.7989C25.3746 74.7989 22.117 69.9732 22.8296 65.449L24.4584 67.7614C24.4584 67.7614 21.4044 62.8351 22.3206 59.9195L25.0692 63.4383L20.7936 55.1943C20.7936 55.1943 22.7278 50.8713 21.7098 48.1567C20.7936 45.4423 25.9854 54.7922 25.9854 54.7922C25.9854 54.7922 21.5062 44.9397 22.8296 40.4155L24.9674 42.5268C24.9674 42.5268 22.2188 38.3042 24.9674 31.2667L28.5304 39.3096C28.5304 39.3096 24.9674 29.3564 28.1232 21.012C28.1232 21.012 28.6322 26.6421 30.3628 26.9436C30.3628 26.9436 29.752 18.8001 32.3988 14.1755C32.3988 14.1755 31.4826 18.0965 33.315 18.9007L33.9257 13.6728L39.1175 10.3552L40.2373 9.24925L41.2553 8.14336L42.6805 6.73585C42.6805 6.73585 43.5967 12.8686 41.8661 13.7734L43.6985 14.2761C43.6985 14.2761 43.8003 19.504 42.5787 20.2076L41.5607 22.2185L44.0039 21.3135L43.9021 25.4356L40.7463 29.7587C40.7463 29.7587 43.1895 29.8591 44.0039 28.3512C44.8183 26.8431 46.2435 35.3886 40.4409 39.0079C40.4409 39.0079 42.4769 39.0079 43.6985 37.6004C43.6985 37.6004 44.4111 40.7171 43.1895 42.9289C42.7823 43.6327 42.1715 44.3363 41.2553 44.7386L41.1535 45.8445L43.4949 43.8338C43.4949 43.8338 45.4291 47.252 40.8481 50.7708L42.3751 49.7654C42.3751 49.7654 44.2075 56.6019 38.4049 61.1259L41.6625 58.6126C41.6625 58.6126 43.3931 60.4221 41.4589 62.634C41.4589 62.634 42.8841 66.1527 39.1175 68.465L39.4229 74.1956L36.3689 76.709L37.8959 77.4128L37.4887 79.7252L32.0934 83.8471L30.9736 82.8418"/>
	<path fill="#2D1B0A" d="M32.297 83.7969L30.77 83.2942C30.4646 83.0932 23.8476 79.3733 24.8656 74.9497C24.2548 73.9444 21.7098 69.6213 22.4224 65.3988C21.9134 63.0865 21.5062 61.2768 21.9134 59.7688L20.2846 55.2447C20.3864 55.0436 22.2188 50.9216 21.3026 48.4082C21.2008 48.006 20.9972 47.5034 21.4044 47.3023C21.7098 47.1012 21.9134 47.1012 23.3386 49.313C22.4224 46.1964 21.608 42.5771 22.3206 40.2648L23.644 40.4658C23.135 38.4551 22.8296 35.2379 24.5602 31.0154L24.9674 29.9095L26.7998 34.0315C26.189 30.3117 25.9854 25.3854 27.716 20.7607L28.5304 18.6495L28.734 20.8613C28.9376 22.6709 29.3448 24.5811 29.8538 25.5865C29.752 23.0731 29.8538 17.443 31.9916 13.8237L33.7221 10.9082L33.0096 14.2259C32.806 14.9296 32.6024 16.7393 33.1114 17.7447L33.6203 13.2205L38.9139 9.80229L43.1895 5.3787L43.2913 6.38406C43.3931 7.28889 43.9021 11.4109 42.8841 13.2205L44.3093 13.6227C44.3093 15.2312 44.3093 19.3532 42.9859 20.3586L44.5129 20.4591L44.4111 25.4859L41.7643 29.0047C42.3751 28.9042 43.0877 28.6026 43.4949 27.8988C43.6985 27.4967 44.1057 27.4967 44.2075 27.4967C44.7165 27.5972 44.9201 28.301 45.0219 28.7031C45.4291 30.5127 45.1237 34.6347 42.4769 37.5503C42.6805 37.4497 42.8841 37.2487 43.0877 37.0476C43.9021 37.4497 44.6147 40.5664 43.4949 42.8787C43.6985 43.2808 45.2255 46.0959 42.6805 49.2125C42.6805 49.4136 43.8003 53.6361 41.5607 57.6575C42.4769 58.6629 43.2913 60.4725 41.7643 62.3827C42.0697 63.2875 42.5787 66.3036 39.3211 68.3144L39.6265 73.9444L37.2851 75.9551L37.6923 79.5744L32.297 83.7969M31.1772 82.3894L37.0815 78.8707L37.4887 76.9605L35.2491 76.4578L39.0157 73.3412L38.7103 67.6106C42.3751 65.3988 41.2553 62.3827 41.1535 62.1816C42.3751 60.4725 42.0697 59.3666 41.7643 58.7634L37.3869 62.9859L38.2013 60.1709C42.6805 56.6522 42.5787 51.927 42.2733 50.0168L39.7283 52.2286L40.6445 49.8157C43.8003 47.4028 43.6985 45.0905 43.4949 44.0851L40.7463 46.498L40.9499 43.8841C41.9679 43.4819 42.5787 42.9792 42.8841 42.2755C43.5967 40.9685 43.5967 39.2594 43.3931 38.1535C42.0697 39.0583 40.5427 39.0583 40.4409 39.0583L38.6085 39.0583L40.1355 38.1535C42.9859 36.4444 43.8003 33.5288 44.1057 32.0208C44.4111 30.5127 44.3093 29.3063 44.1057 28.7031C42.9859 30.0101 40.7463 29.9095 40.7463 29.9095L39.7283 29.9095L43.3931 24.9833L43.4949 21.7661L40.5427 22.872L42.1715 19.5543C42.8841 19.1522 43.1895 16.6388 43.1895 14.3264L40.5427 13.5221L41.6625 12.9189C42.3751 12.5168 42.5787 10.0034 42.2733 7.48996L39.3211 10.5061L34.3329 13.7232L33.6203 19.4538C32.0934 18.8505 31.6862 18.0463 31.5844 17.0409C30.3628 21.364 30.77 26.6924 30.77 26.7929C29.0394 27.0945 28.3268 24.9833 27.9196 23.2741C26.189 30.8144 28.9376 38.9578 29.0394 39.0583L25.0692 32.624C23.135 38.6562 25.4764 42.1749 25.4764 42.2755L27.9196 45.9953L23.2368 41.4712C22.7278 46.0959 26.4944 54.5409 26.5962 54.6414C24.662 53.2339 23.5422 51.2232 22.626 49.9162C22.626 52.128 21.7098 54.5409 21.4044 55.2447L25.5782 63.2875L22.7278 61.1763C22.7278 63.8908 24.9674 67.5101 24.9674 67.5101L23.3386 67.0074C23.3386 70.9283 25.8836 74.6481 25.8836 74.6481C24.8656 78.6696 30.5664 82.0878 31.1772 82.3894"/>
	<path fill="#564D15" d="M36.3689 23.9276C36.3689 23.9276 23.7458 118.23 24.6145 137.433L26.3926 137.132L36.3689 23.9276"/>
	<path fill="#428E25" d="M20.5901 90.9852C20.5901 90.9852 14.6857 89.8793 14.5839 86.4611C14.5839 86.4611 11.0209 83.7466 10.4101 80.2278L12.1407 81.5348C12.1407 81.5348 8.67953 78.7198 8.67953 76.3069L11.5299 78.2171L6.33814 73.1903C6.33814 73.1903 6.74534 69.571 5.32014 67.7613C3.89495 65.9517 10.1047 71.5817 10.1047 71.5817C10.1047 71.5817 4.40394 65.449 4.20035 61.8297L6.33814 62.8351C6.33814 62.8351 3.28415 60.4222 3.48775 54.5911L8.06873 59.6179C8.06873 59.6179 2.97875 53.1836 3.1764 46.2466C3.1764 46.2466 4.91294 50.2681 6.23634 50.067C6.23634 50.067 3.69135 44.2359 4.50574 40.2144C4.50574 40.2144 4.81114 43.3311 6.33814 43.4316L5.52374 39.4101L8.47593 35.6903L8.98493 34.5844L9.49393 33.4785L10.2065 32.071C10.2065 32.071 12.3443 36.3941 11.4281 37.3994L12.8533 37.3994C12.8533 37.3994 14.2785 41.2198 13.4641 42.0241L13.2605 43.8337L14.7875 42.5268L15.8055 45.5428L14.5839 49.4638C14.5839 49.4638 16.3145 48.9611 16.6199 47.6541C16.8235 46.3471 19.9793 52.2788 16.6199 56.4008C16.6199 56.4008 18.0451 55.8981 18.6559 54.5911C18.6559 54.5911 19.9793 56.7024 19.6739 58.6126C19.5721 59.2158 19.2667 59.819 18.7577 60.4222L20.1829 59.1152C20.1829 59.1152 22.4225 61.126 19.9793 64.8458L20.8955 63.7399C20.8955 63.7399 23.9495 68.264 20.7937 73.0898L22.5243 70.3753C22.5243 70.3753 24.2549 71.2801 23.3387 73.3914C23.3387 73.3914 25.2729 75.6032 23.0333 78.2171L24.6621 82.3391L23.1351 84.953L24.4585 85.0536L24.6621 86.8632L21.8117 91.1863L20.5901 90.9852"/>
	<path fill="#2D1B0A" d="M20.4882 91.4879C20.1828 91.3874 14.3803 90.2815 13.9731 86.7627C13.2605 86.1595 10.4101 83.5456 9.79927 80.3284C8.88308 78.8204 8.06868 77.5134 8.06868 76.307L5.72729 73.3914C5.72729 73.1903 6.03269 69.6716 4.81109 68.1635C4.60749 67.9625 4.30209 67.4598 4.60749 67.1582C4.81109 66.9571 5.01469 66.8566 6.03269 67.6608C4.70929 65.7507 3.5895 63.6394 3.4877 61.9303C3.4877 60.1206 2.4697 57.9088 2.7751 54.5911L2.8769 53.3847L4.81109 55.496C3.5895 52.9826 2.4697 49.6649 2.4697 46.2466L2.4697 43.9343L3.4877 46.0456C3.99669 47.1515 4.60749 48.1568 5.11649 48.76C4.40389 46.7493 3.3859 43.0295 3.89489 40.0134L4.60749 36.6957L4.91289 40.1139C5.01469 40.6166 5.11649 41.5214 5.52369 42.1247L4.91289 39.2091L7.96688 35.3887L10.1047 30.8646C11.0209 32.6742 12.2425 35.1877 12.0389 36.7962L13.0569 36.7962C13.4641 38.0027 14.4821 41.0188 13.7695 42.1247L14.7875 41.622L16.009 45.5429L15.0929 48.4584C15.3983 48.2574 15.7036 47.9558 15.7036 47.5536C15.8054 47.0509 16.1108 46.9504 16.2126 46.9504C16.7216 46.8499 17.027 47.3525 17.2306 47.6541C17.8414 48.76 18.554 51.0724 18.1468 53.3847C18.7576 54.189 19.9792 56.1997 19.7756 58.2104C19.9792 58.4115 21.8116 60.1206 20.7936 63.1367C20.7936 63.1367 22.626 65.9517 22.117 69.571C23.0332 70.0737 24.153 71.1796 23.5422 72.9893C23.9494 73.693 25.0692 75.7037 23.2368 78.0161L24.8656 82.0375L23.644 84.0482L24.7638 86.7627L21.608 91.4879L20.4882 91.4879M11.2245 81.4343C12.3443 84.0482 14.7875 86.059 14.7875 86.059C15.1947 89.1756 19.9792 90.2815 20.59 90.382L23.8476 86.4611L23.644 85.1541L21.8116 85.4558L23.8476 82.0375L22.117 77.9155C24.2548 75.5027 22.626 73.5925 22.626 73.4919C22.9314 71.9839 22.626 71.3807 22.3206 70.9785L20.081 75.4021L19.9792 72.6877C22.3206 69.2694 21.2008 65.9517 20.59 64.5442L19.1648 66.9571L19.2666 64.4437C20.7936 62.1314 20.3864 60.5228 19.9792 59.819L18.554 62.3324L18.045 60.0201C18.6558 59.4169 18.9612 58.9142 19.063 58.311C19.2666 57.3056 18.8594 56.0992 18.554 55.3954C17.8414 56.3003 16.8234 56.7024 16.7216 56.7024L14.9911 57.3056L16.1108 55.8981C17.536 54.189 17.6378 52.1783 17.4342 50.7708C17.3324 49.6649 16.9252 48.76 16.7216 48.2574C16.1108 49.3633 14.6857 49.8659 14.5839 49.8659L15.1947 45.4423L14.4821 43.2306L12.5479 44.8391L12.9551 41.622C13.3623 41.2198 13.0569 39.5107 12.4461 37.7011L10.1047 37.8016C11.3263 36.4946 10.8173 34.7855 10.1047 33.0764L8.78128 35.7909L6.03269 39.3096L6.94888 43.7332C5.62549 43.7332 5.11649 43.3311 4.81109 42.8284C5.11649 46.1461 6.54168 49.5643 6.54168 49.6649C5.32009 50.4692 4.40389 49.4638 3.6913 48.3579C4.50569 54.0885 8.27228 59.0147 8.37408 59.1153L3.79309 55.697C3.99669 60.3217 6.43988 62.2319 6.43988 62.2319L9.90107 64.9464L4.70929 62.433C5.62549 65.9517 10.3083 70.9785 10.3083 70.9785C8.47588 70.6769 7.35608 69.6716 6.43988 68.8673C6.84708 70.3753 6.84708 72.0844 6.74528 72.6877L11.7335 77.5134L9.39207 77.1112C10.1047 78.6193 11.7335 80.2279 12.4461 80.8311L11.2245 81.4343"/>
	<path fill="#564D15" d="M9.79915 46.4478C9.79915 46.4478 24.1529 118.834 29.5483 132.607L30.6681 131.904L9.79915 46.4478"/>
	<path fill="white" d="M11.1226 107.775L39.8302 107.775C41.5608 107.775 42.986 109.685 42.986 112.098L42.986 138.036C42.986 142.862 40.1356 146.682 36.5726 146.682L14.2784 146.682C10.7154 146.682 7.86505 142.761 7.86505 138.036L7.86505 112.098C7.86505 109.785 9.29024 107.775 11.1226 107.775"/>
	<path fill="#2D1B0A" d="M36.5744 147.788L14.2789 147.788C10.2067 147.788 6.8471 143.465 6.8471 138.137L6.8471 112.198C6.8471 109.182 8.6796 106.87 11.0211 106.87L39.7303 106.87C42.0719 106.87 43.9067 109.182 43.9067 112.198L43.9067 138.137C44.0062 143.465 40.7484 147.788 36.5744 147.788M11.1229 108.78C9.90127 108.78 8.98502 110.288 8.98502 112.098L8.98502 138.036C8.98502 142.259 11.4284 145.677 14.3807 145.677L36.6762 145.677C39.6285 145.677 42.0719 142.259 42.0719 138.036L42.0719 112.098C42.0719 110.288 41.0538 108.78 39.934 108.78L11.1229 108.78"/>
</svg>
