<?xml version="1.0" encoding="utf-8" ?>
<svg xmlns="http://www.w3.org/2000/svg" xmlns:xlink="http://www.w3.org/1999/xlink" width="82" height="78">
	<path fill="white" d="M29.2357 68.4282L25.2308 69.4465C11.1136 69.4465 0 57.5326 0 42.9713C0 35.0287 3.30403 27.6971 8.91087 22.7076C7.90965 21.1802 6.50794 18.9399 4.90598 15.4778C0.800977 7.02611 1.10134 6.00783 1.20147 5.29504L1.70208 2.85117L4.30525 2.85117C10.5128 3.46214 19.3236 6.72063 24.7302 9.16449C27.1331 7.43342 31.7387 5.29504 40.3492 5.19321C40.8498 5.19321 41.4505 5.19321 41.9512 5.19321C47.6581 5.19321 51.7631 5.90601 54.7668 7.22977C60.2735 2.64752 72.4884 0 75.6923 0C76.293 0 77.7949 0 78.8962 1.1201C79.2967 1.52742 79.8974 2.44386 79.7973 3.76762C79.5971 6.51697 73.9902 15.7833 70.2857 20.5692C77.4945 25.3551 82 33.705 82 42.9713C82 57.5326 70.8864 69.4465 57.1697 69.4465L52.7643 68.4282L41.1502 78L29.2357 68.4282"/>
	<path fill="#C19A80" d="M56.5687 66.3915L51.4625 65.0678L40.5495 74.0286L29.6359 65.0678L24.5296 66.3915C12.515 66.3915 2.70305 55.8016 2.70305 42.9713C2.70305 30.1409 12.515 19.5508 24.5296 19.5508L56.5687 19.5508C68.5834 19.5508 78.3961 30.1409 78.3961 42.9713C78.4954 55.8016 68.5834 66.3915 56.5687 66.3915"/>
	<path fill="#2D1B0A" d="M40.5494 75.3523L29.4359 66.188L24.5299 67.4099C11.9145 67.4099 1.70205 56.4125 1.70205 42.9711C1.70205 29.5299 11.9145 18.5325 24.5299 18.5325L56.569 18.5325C69.1843 18.5325 79.3968 29.5299 79.3968 42.9711C79.3968 56.4125 69.1843 67.4099 56.569 67.4099L51.7631 66.2897L40.5494 75.3523M29.9364 63.9476L40.5494 72.7048L51.1623 63.9476L56.669 65.3732C68.083 65.2714 77.3943 55.2924 77.3943 42.9711C77.3943 30.65 68.083 20.5691 56.569 20.5691L24.5299 20.5691C13.0159 20.5691 3.70449 30.65 3.70449 42.9711C3.70449 55.2924 13.0159 65.2714 24.4297 65.3732L29.9364 63.9476"/>
	<path fill="white" d="M10.4128 40.6286C10.4128 48.8773 16.7204 55.5979 24.4299 55.5979C32.1393 55.5979 38.447 48.8773 38.447 40.6286C38.447 32.3812 32.1393 25.6594 24.4299 25.6594C16.6203 25.6594 10.4128 32.2793 10.4128 40.6286"/>
	<path fill="white" d="M43.1526 40.6286C43.1526 48.8773 49.4603 55.5979 57.1698 55.5979C64.8792 55.5979 71.1869 48.8773 71.1869 40.6286C71.1869 32.3812 64.8792 25.6594 57.1698 25.6594C49.4603 25.6594 43.1526 32.2793 43.1526 40.6286"/>
	<path fill="#020202" d="M19.6241 38.286C19.6241 42.8693 23.1283 46.6369 27.4336 46.6369C31.7388 46.6369 35.243 42.8693 35.243 38.286C35.243 33.7048 31.7388 29.9352 27.4336 29.9352C23.1283 29.9352 19.6241 33.603 19.6241 38.286"/>
	<path fill="white" d="M22.2272 37.8797C22.2272 38.898 22.6277 39.8145 23.3286 40.3236C24.0294 40.8327 24.8304 40.8327 25.4311 40.3236C26.132 39.8145 26.5325 38.898 26.5325 37.8797C26.5325 36.8615 26.132 35.945 25.4311 35.4359C24.7303 34.9267 23.9293 34.9267 23.3286 35.4359C22.6277 35.945 22.2272 36.8615 22.2272 37.8797"/>
	<path fill="#020202" d="M46.0562 38.2743C46.0562 42.8693 49.5605 46.6369 53.8658 46.6369C58.171 46.6369 61.6752 42.8693 61.6752 38.2743C61.6752 35.3341 60.1734 32.4829 57.7705 31.0573C55.3676 29.5299 52.3639 29.5299 49.961 31.0573C47.5581 32.4829 46.0562 35.2323 46.0562 38.2743"/>
	<path fill="white" d="M54.1661 38.9999C54.1661 40.5273 55.1673 41.7492 56.2686 41.7492C57.4701 41.7492 58.3712 40.5273 58.3712 38.9999C58.3712 37.4724 57.37 36.2505 56.2686 36.2505C55.0672 36.2505 54.1661 37.4724 54.1661 38.9999"/>
	<path fill="#FFDE1F" d="M44.5544 45.2113C44.5544 49.4881 40.5495 53.0521 40.5495 53.0521C40.5495 53.0521 36.5447 49.5899 36.5447 45.2113C36.5447 40.9346 38.3469 37.3706 40.5495 37.3706C42.7522 37.3706 44.5544 40.9346 44.5544 45.2113"/>
	<path fill="#C19A80" d="M65.5108 20.6708C68.3143 18.5324 77.125 4.17476 76.2883 3.15648C75.1226 2.03638 57.5011 6.00766 54.7978 10.9972C52.6952 9.26614 48.5902 7.94238 39.9797 8.04421C30.7685 8.24787 26.3631 10.7936 24.8613 12.6265C19.4547 9.87711 9.74282 6.31314 3.8182 5.70217C3.43513 5.70217 10.0432 21.3837 13.0469 22.8092C18.9541 25.5585 33.9724 29.2243 39.5792 31.2649C39.6793 31.4646 61.8063 23.6239 65.5108 20.6708"/>
	<path fill="#2D1B0A" d="M39.3437 32.2793C39.2435 32.2793 39.2435 32.2793 39.2435 32.2793C37.1406 31.4643 33.5359 30.4457 29.7308 29.4272C23.4224 27.5938 16.3129 25.5566 12.6079 23.8249C9.60388 22.399 2.49438 6.9165 2.78555 5.59235L3.89625 4.87934C9.50374 5.49049 18.8162 8.74995 24.624 11.602C26.1259 10.176 30.3316 7.42579 39.9445 7.22208C47.0539 7.12022 51.7602 7.83323 54.5639 9.76853C57.9684 5.79606 68.3824 2.94403 73.3891 2.23102C75.7923 1.92545 76.4933 2.08745 76.9939 2.63846C77.1942 2.84217 77.321 3.14775 77.321 3.7589C77.0941 6.40721 68.9832 19.445 66.1795 21.6859C63.576 23.5194 41.7468 32.2793 39.3437 32.2793M5.29813 7.01836C6.80013 10.889 11.6066 21.0748 13.5091 21.9916C17.1139 23.6213 24.1232 25.6584 30.3316 27.4918C34.0365 28.5105 37.441 29.5291 39.6441 30.3438C42.3476 29.5291 61.6735 22.5009 64.9779 19.9543C67.3811 18.121 74.09 7.12022 75.1915 4.06447C71.8871 4.06447 57.9684 7.52765 55.6655 11.602L55.0646 12.7225C51.8603 9.97225 47.2542 9.05553 39.9445 9.25924C31.7335 9.46296 27.1273 11.5001 25.5252 13.4354L24.3236 13.6391C19.3168 11.0927 11.0057 8.03694 5.29813 7.01836"/>
</svg>
