<?xml version="1.0" encoding="utf-8" ?>
<svg xmlns="http://www.w3.org/2000/svg" xmlns:xlink="http://www.w3.org/1999/xlink" width="72" height="74">
	<path fill="white" d="M36 74C16.2099 74 0 57.8654 0 37.9462C0 32.3688 1.09392 27.2894 3.28177 22.6083C2.28729 19.4213 1.39227 15.7362 0.895028 11.2544C0.895028 6.77254 1.69061 3.98385 3.38122 1.99192C3.77901 1.49394 5.46961 0 8.55249 0C9.64641 0 10.6409 0.199192 11.6354 0.398385C12.1326 0.497981 12.5304 0.597577 12.9282 0.597577C13.1271 0.597577 13.2265 0.597577 13.2265 0.697174C13.4254 0.79677 13.6243 0.79677 13.8232 0.79677C16.9061 1.39435 19.5912 2.39031 21.8785 3.98385C26.8508 2.48991 31.2265 1.69314 35.8011 1.69314C40.674 1.69314 44.7514 2.39031 48.6298 3.98385C51.5138 2.48991 54.1989 1.39435 57.3812 0.79677C57.5801 0.79677 57.779 0.697174 57.9779 0.697174C58.0773 0.697174 58.1768 0.697174 58.1768 0.597577C58.674 0.497981 59.0718 0.497981 59.4696 0.398385C60.4641 0.199192 61.4586 0 62.5525 0C64.7403 0 66.6298 0.697174 67.9227 1.99192C69.8122 3.88425 70.6077 6.77254 70.4088 10.856C69.9116 14.9394 69.116 18.1265 68.1215 21.1144C70.7072 26.7914 72 32.1696 72 37.8466C71.9006 57.7658 55.7901 74 36 74"/>
	<path fill="#FFCADA" d="M22.1768 10.5572C21.3812 6.97178 17.105 5.47783 13.2323 4.68106C9.64644 3.9 3.87849 1.69318 4.25674 11.4536C5.3702 21.214 8.15473 24.2019 8.15473 24.2019C8.15473 24.2019 22.9724 14.3419 22.1768 10.5572"/>
	<path fill="#2D1B0A" d="M8.05528 25.4827C7.35915 24.7855 4.47517 21.5985 3.37195 11.5392C3.37195 7.75458 3.97793 5.26468 5.56909 3.87033C7.65749 2.17719 10.442 2.798 12.7293 3.37235C13.0277 3.47194 13.2266 3.47194 13.5248 3.57154C15.6132 3.96992 22.1768 5.36427 23.2708 10.2445C24.1658 14.3279 12.431 22.4948 8.75141 24.8851M8.85086 4.86629C8.05528 4.86629 7.35915 5.06548 6.76246 5.46387C5.66854 6.36023 5.1713 8.35216 5.27075 11.4396C5.96688 18.1126 7.55804 21.4989 8.35362 22.7936C15.0167 18.3118 21.5802 12.5352 21.1824 10.7425C20.5856 8.35216 18 6.65902 13.0277 5.56346C12.7293 5.46387 12.431 5.46387 12.1326 5.36427C11.1382 5.06548 9.94478 4.86629 8.85086 4.86629"/>
	<path fill="#FFCADA" d="M49.0954 10.5571C49.9088 6.97168 54.185 5.47773 58.0644 4.68096C61.6436 3.8999 67.4115 1.69308 67.0137 11.4535C65.9198 21.2139 63.1353 24.2018 63.1353 24.2018C63.1353 24.2018 48.5165 14.3418 49.0954 10.5571"/>
	<path fill="#2D1B0A" d="M63.3416 25.4967C59.0653 22.6078 47.5295 14.4392 48.1038 10.3549C49.2201 5.3741 55.6842 4.07908 57.872 3.58099C58.0644 3.48137 58.3692 3.48137 58.6676 3.38176C60.9548 2.7712 63.7394 2.18635 65.8278 3.87984C67.4189 5.17486 68.1151 7.66528 68.0249 11.4507C66.9217 21.512 64.0377 24.6998 63.9383 24.7994M50.1151 10.7534C49.8167 12.6461 56.3803 18.3243 62.9438 22.8071C63.7394 21.512 65.3305 18.1251 66.0267 11.3511C66.1261 8.3626 65.6289 6.37026 64.535 5.47371C63.2421 4.37793 61.0543 4.97563 59.0653 5.3741C58.767 5.47371 58.4687 5.47371 58.2698 5.57333C53.2974 6.66912 50.7118 8.26299 50.1151 10.7534"/>
	<path fill="#FFCADA" d="M3.28165 38.0956C3.28165 19.7677 17.9998 5.4258 35.9005 5.4258C53.9999 5.4258 68.5192 20.166 68.5192 38.0956C68.5192 56.1203 53.8009 70.7654 35.9005 70.7654C17.9004 71.0597 3.28165 56.2199 3.28165 38.0956"/>
	<path fill="#2D1B0A" d="M35.5027 71.8089C26.8508 71.8089 18.6961 68.4227 12.4309 62.2477C5.96681 55.8736 2.3867 47.2087 2.3867 38.0956C2.3867 19.4213 17.5027 4.3823 36 4.3823C54.4972 4.3823 69.6132 19.5209 69.6132 38.0956C69.6132 56.5707 54.4972 71.7094 36 71.7094C35.8011 71.8089 35.6022 71.8089 35.5027 71.8089M36 6.37422C18.4972 6.37422 4.37565 20.6165 4.37565 38.0956C4.37565 46.7107 7.75687 54.778 13.8232 60.8534C19.79 66.7295 27.6464 69.9166 36 69.817C53.5027 69.817 67.7237 55.5748 67.7237 38.0956C67.7237 20.7161 53.4033 6.37422 36 6.37422"/>
	<path d="M20.0884 30.0781C20.0884 28.5842 21.3812 27.0902 23.0718 27.0902C24.7624 27.0902 26.0552 28.385 26.0552 30.0781C26.0552 31.7712 24.7624 33.066 23.0718 33.066C21.2817 33.066 20.0884 31.7712 20.0884 30.0781"/>
	<path d="M42.9614 30.0781C42.9614 28.5842 44.2542 27.0902 45.9448 27.0902C47.6354 27.0902 48.9282 28.385 48.9282 30.0781C48.9282 31.7712 47.6354 33.066 45.9448 33.066C44.3536 33.066 42.9614 31.7712 42.9614 30.0781"/>
	<path fill="#D394B9" d="M17.5028 45.2167C17.5028 40.3365 25.5581 36.2531 35.6022 36.2531C45.6465 36.2531 53.7017 40.2369 53.7017 45.2167C53.7017 50.1966 45.6465 54.3796 35.6022 54.3796C25.5581 54.3796 17.5028 50.097 17.5028 45.2167"/>
	<path fill="#EFC5D8" d="M27.0497 44.1211C27.0497 42.428 27.8453 40.934 28.5415 40.934C29.6354 40.934 30.2321 42.428 30.2321 44.1211C30.2321 46.0134 29.4365 47.5074 28.5415 47.5074C27.9448 47.7066 27.0497 46.0134 27.0497 44.1211"/>
	<path fill="#EFC5D8" d="M38.7845 44.1211C38.7845 42.428 39.5801 40.934 40.2762 40.934C41.3702 40.934 41.9669 42.428 41.9669 44.1211C41.9669 46.0134 41.1713 47.5074 40.2762 47.5074C39.3812 47.7066 38.7845 46.0134 38.7845 44.1211"/>
	<path fill="#4C4C4C" d="M35.4033 61.8493C32.1215 61.8493 29.8343 61.1521 28.6409 59.7578C27.7431 58.6622 27.7431 57.4671 27.7431 57.2679L29.7348 57.5667C29.7348 57.5667 29.7348 58.0646 30.1326 58.5626C30.6298 59.0606 31.9227 59.957 35.3039 59.957C39.8785 59.957 41.1713 58.5626 41.2707 58.1642C41.2707 58.1642 41.2707 58.463 41.3702 58.6622C41.5691 58.8614 41.768 58.961 42.0663 58.961L42.0663 56.9691C42.7624 56.9691 43.2597 57.4671 43.2597 58.2638C43.2597 59.1602 42.5635 60.0566 41.3702 60.7537C39.9779 61.4509 37.8895 61.8493 35.4033 61.8493"/>
</svg>
