<?xml version="1.0" encoding="utf-8" ?>
<svg xmlns="http://www.w3.org/2000/svg" xmlns:xlink="http://www.w3.org/1999/xlink" width="92" height="94">
	<path fill="white" d="M44.7568 93.9003C41.6736 93.9003 38.3916 93.3022 35.5073 92.3054C33.4188 91.9067 31.5291 91.1092 30.2362 90.5111C24.1693 87.8197 19.8927 83.035 17.5057 79.5461C15.815 77.1538 13.8258 73.8643 13.428 71.6713C11.8367 67.3849 11.0411 62.8993 11.0411 58.2142C11.0411 53.8282 11.7373 49.9406 13.1296 46.1527L13.5275 45.0562L12.334 44.8568C5.67041 43.561 1.49324 38.5769 0.598135 35.3871C-0.893712 30.6023 0.299766 24.4221 5.37204 21.8303C6.96335 21.1326 8.05737 20.7338 9.3503 20.7338C11.3394 20.7338 12.7318 21.631 14.2237 22.6278C16.0139 23.9236 17.8041 25.1198 21.2851 26.4157C24.4677 27.5122 25.8601 28.0106 27.0535 28.1103L28.9432 28.4093L28.0481 26.7147C27.4514 25.5186 27.0535 24.3224 26.8546 23.4252C25.9595 20.3351 25.8601 18.0424 25.8601 16.5472C22.7769 14.2545 21.3845 11.8621 21.3845 8.87169C21.3845 4.08696 26.2579 1.29586 30.8329 0.697773C37.1981 0.697773 41.3753 2.99046 42.4693 6.67869C42.9666 8.17391 42.8671 9.8685 42.0715 11.6628C40.7785 13.8558 38.69 15.4507 36.9992 16.1485L36.5019 17.4443C36.5019 17.544 36.6014 17.7434 36.6014 17.9427C36.7008 18.3415 36.8003 19.0392 37.0986 19.737C37.2976 20.7338 37.7948 21.631 38.491 22.7275L39.5851 23.1262C41.8726 22.6278 44.1601 22.3287 47.2432 22.3287C50.3264 22.3287 52.8128 22.6278 54.9014 23.1262L55.9954 22.7275C56.6916 21.631 57.1888 20.4348 57.3878 19.438C57.6861 18.2418 57.885 17.4443 57.885 16.8462C55.1003 14.9523 53.2106 13.2577 52.216 11.4634C51.4204 9.96819 51.3209 8.17391 51.8182 6.47932C53.31 2.39236 57.1888 0 62.0622 0C62.2611 0 62.3606 0 62.5595 0C68.2285 0.199364 72.0079 3.48887 72.0079 8.17391C72.0079 11.7625 69.8198 13.8558 68.0296 14.9523C67.8307 17.7434 67.5323 20.2354 66.7367 22.5281C66.4383 23.6246 66.1399 24.6214 65.6426 25.7179L64.9465 27.3128L66.6372 27.1135C67.9301 26.9141 69.3225 26.5154 70.8144 25.7179C74.0964 24.4221 75.8867 23.2259 77.2791 22.2291C78.8704 21.0329 80.3622 20.0361 82.6497 20.0361C83.9426 20.0361 85.2356 20.4348 86.628 21.1326C91.7002 23.7243 92.8937 29.9046 91.4019 34.6893C90.5068 38.0785 86.5285 42.4645 81.0584 44.0594L80.4617 45.3552C81.9535 49.2428 82.7492 53.6288 82.7492 57.7158C82.7492 65.0923 80.3622 72.369 75.9861 78.649C73.1019 82.8356 69.8198 86.0255 65.941 88.4178C60.0731 92.2057 54.0062 94 47.3427 94L44.7568 94"/>
	<path fill="#FFD112" d="M62.8579 3.5774C62.8579 3.5774 69.621 4.68498 69.621 8.47289C69.621 12.3605 64.7476 13.3573 64.7476 13.3573C64.7476 13.3573 65.5432 17.3446 64.1509 22.0296C62.8579 26.914 58.8796 32.6956 58.8796 32.6956L54.0063 29.9045C54.0063 29.9045 58.4818 25.2194 60.1726 20.1357C61.8633 15.2513 60.1726 13.3573 60.1726 13.3573C60.1726 13.3573 53.4095 11.1643 54.9014 7.17702C56.3932 3.18975 62.8579 3.5774 62.8579 3.5774"/>
	<path fill="#2D1B0A" d="M59.178 34.1909L52.3155 30.3019C53.2106 29.4044 57.5867 24.8175 59.178 20.0311C60.3715 16.6407 59.7747 14.8458 59.4764 14.3472C58.3823 13.9483 55.1997 12.652 54.0063 10.2588C53.509 9.16194 53.4095 8.06506 53.9068 6.96817C55.697 2.18177 62.659 2.6285 62.9573 2.6285C63.3552 2.6285 70.7149 3.97667 70.7149 8.56364C70.7149 12.0537 67.5323 13.6492 65.941 14.2475C66.1399 15.7433 66.2394 18.9342 65.1454 22.524C63.8524 27.5098 59.8742 33.1937 59.7747 33.4928M55.4981 29.8033L58.5813 31.4985C59.6753 29.8033 62.2611 25.6152 63.2557 21.9257C64.6481 17.5382 63.8524 13.7489 63.8524 13.6492L64.6481 12.4526C64.6481 12.4526 68.8253 11.4554 68.8253 8.46393C68.8253 5.67186 63.4546 4.57497 62.8579 4.47525C62.3606 4.47525 56.9899 4.27582 55.8959 7.46676C55.697 8.06506 55.697 8.66336 55.9954 9.16194C56.791 10.8571 59.5758 12.0537 60.5704 12.3529C61.2666 12.8515 63.1563 15.1449 61.2666 20.4299C59.7747 24.5183 56.8905 28.1081 55.4981 29.8033"/>
	<path fill="#FFD112" d="M31.0318 3.58665C31.0318 3.58665 24.2688 4.68496 24.2688 8.47287C24.2688 12.3605 29.1421 13.3573 29.1421 13.3573C29.1421 13.3573 28.3465 17.3446 29.7389 22.0297C31.0318 26.9141 35.0101 32.6955 35.0101 32.6955L39.8835 29.9044C39.8835 29.9044 35.4079 25.2194 33.7171 20.1357C32.0264 15.2513 33.7171 13.3573 33.7171 13.3573C33.7171 13.3573 40.4802 11.1643 38.9884 7.17701C37.7949 3.38909 31.0318 3.58665 31.0318 3.58665"/>
	<path fill="#2D1B0A" d="M34.8111 34.1909C34.115 33.2937 30.1367 27.5119 28.8438 22.5277C27.7497 19.0387 27.9487 15.749 28.0481 14.2537C26.4568 13.6556 23.2742 12.1603 23.2742 8.57164C23.2742 3.88641 30.634 2.6889 30.9324 2.6889C31.3302 2.6889 38.5905 2.4908 40.0823 7.07635C40.4802 8.1729 40.4802 9.26944 39.9829 10.2663C38.8889 12.6588 35.6068 13.9547 34.5128 14.3534C34.2144 14.8518 33.6177 16.5465 34.8111 20.0355C36.4025 24.9201 40.6791 29.406 40.7785 29.406L34.8111 34.1909M31.1313 4.58421C30.5345 4.68389 25.2633 5.78044 25.2633 8.57164C25.2633 11.5622 29.341 12.5591 29.4405 12.5591L30.2362 13.7553C30.2362 13.7553 29.54 17.6431 30.8329 21.9295C31.8274 25.6179 34.4133 29.9044 35.5073 31.5991L38.5905 29.9044C37.1981 28.2097 34.3139 24.6211 33.0209 20.7333C31.2307 15.45 33.0209 13.1572 33.2198 12.9578C34.7117 12.3597 37.4965 11.1635 38.2921 9.46881C38.5905 8.8707 38.5905 8.37227 38.3916 7.77415C37.1981 4.58421 31.728 4.58421 31.1313 4.58421"/>
	<path fill="#FFD112" d="M30.4351 31.1007C30.4351 31.1007 28.7444 32.3966 19.7933 28.9077C11.1406 25.7179 11.1406 22.1293 6.86397 24.2226C2.88571 26.4156 2.88571 31.2004 3.68136 33.9914C4.47701 36.7826 9.25092 41.8663 16.014 41.4677C22.777 40.8695 26.0591 42.9629 26.0591 42.9629L30.4351 31.1007"/>
	<path fill="#2D1B0A" d="M26.4568 44.5578C25.4622 43.86 22.3791 41.966 16.1133 42.4645C8.55463 42.9629 3.5818 37.281 2.68669 34.2905C1.89104 31.3998 1.69213 25.9173 6.36658 23.3255C9.44973 21.8303 10.8421 22.8271 13.1296 24.2227C14.6215 25.2195 16.7101 26.615 20.191 27.9109C27.5508 30.702 29.7388 30.2036 29.9378 30.1039L32.5236 28.2099L26.4568 44.5578M18.3014 40.3711C21.7823 40.3711 24.0698 41.0689 25.3628 41.667L28.8437 32.2969C27.153 32.2969 24.2687 31.6988 19.3954 29.9045C15.7155 28.509 13.5274 27.1134 11.9361 26.017C9.84756 24.6214 9.25082 24.2227 7.26169 25.2195C3.68126 27.1134 3.88017 31.4995 4.57637 33.7921C5.17311 35.9851 9.35028 40.9692 15.9144 40.4708C16.7101 40.3711 17.6052 40.3711 18.3014 40.3711"/>
	<path fill="#FFD112" d="M61.8633 31.1007C61.8633 31.1007 63.5541 32.3966 72.5051 28.9077C81.1579 25.7179 81.1579 22.1294 85.4345 24.2227C89.4128 26.4157 89.4128 31.2004 88.6171 33.9915C87.8214 36.7826 83.0475 41.8664 76.2845 41.4677C69.5215 40.8696 66.2394 42.9629 66.2394 42.9629L61.8633 31.1007"/>
	<path fill="#2D1B0A" d="M65.8415 44.4582L65.4437 43.262L59.7747 28.21L62.3606 30.104C62.6589 30.2036 64.847 30.7021 72.1073 27.911C75.5883 26.6151 77.6769 25.2196 79.1687 24.2227C81.3567 22.7275 82.8486 21.7307 85.8323 23.3256C90.5067 25.8176 90.4073 31.3998 89.6116 34.2906C88.7165 37.2811 83.7437 42.9629 76.2845 42.4645C69.9193 41.8664 66.9356 43.7604 66.8361 43.8601M63.3551 32.297L66.8361 41.6671C68.3279 40.9693 71.5106 40.0722 76.3839 40.5706C82.9481 40.9693 87.0258 35.9852 87.722 33.7922C88.4182 31.4995 88.5176 27.1135 85.0366 25.2196C83.0475 24.2227 82.4508 24.6215 80.3622 26.017C78.7709 27.1135 76.5828 28.5091 72.903 29.9046C67.9301 31.6989 65.0459 32.1973 63.3551 32.297"/>
	<path fill="#FFD112" d="M14.3231 58.0158C14.3231 39.6733 29.0427 25.3191 46.9448 25.3191C65.0459 25.3191 79.5665 40.072 79.5665 58.0158C79.5665 76.0572 64.847 90.7124 46.9448 90.7124C28.7443 90.9098 14.3231 76.1569 14.3231 58.0158"/>
	<path fill="#2D1B0A" d="M46.7459 91.8069C37.7948 91.8069 29.4405 88.3181 23.1747 82.1378C16.8095 75.7582 13.2291 67.2852 13.2291 58.1145C13.2291 39.474 28.3465 24.422 46.8454 24.422C65.3443 24.422 80.4617 39.5736 80.4617 58.1145C80.4617 76.755 65.3443 91.8069 46.8454 91.8069C46.9448 91.8069 46.8454 91.8069 46.7459 91.8069M46.9448 26.316C29.4405 26.316 15.3177 40.5705 15.3177 58.0148C15.3177 66.5874 18.5998 74.6617 24.6666 80.6426C30.634 86.5238 38.5905 89.8133 47.0443 89.8133C64.5486 89.8133 78.6714 75.5588 78.6714 58.1145C78.6714 40.6701 64.4492 26.316 46.9448 26.316"/>
	<path d="M32.5236 49.5419C32.5236 48.0467 33.8165 46.5514 35.5073 46.5514C37.1981 46.5514 38.491 47.8473 38.491 49.5419C38.491 51.2365 37.1981 52.5324 35.5073 52.5324C33.8165 52.7317 32.5236 51.5355 32.5236 49.5419"/>
	<path d="M53.6084 49.5419C53.6084 48.0467 54.9013 46.5514 56.5921 46.5514C58.2829 46.5514 59.5758 47.8473 59.5758 49.5419C59.5758 51.2365 58.2829 52.5324 56.5921 52.5324C55.0008 52.7317 53.6084 51.5355 53.6084 49.5419"/>
	<path fill="#FFEBE1" d="M16.8501 71.0732C16.8501 71.0732 26.2058 60.806 45.1025 59.534C63.9992 58.5133 77.1275 69.6777 77.1275 69.6777C77.1275 69.6777 75.2378 79.2471 64.5959 86.1252C53.9541 92.9035 42.5166 92.3054 31.9742 87.6204C20.8351 82.736 16.6579 71.0732 16.8501 71.0732"/>
	<path fill="#2D1B0A" d="M47.5388 92.1061C42.3666 92.1061 36.9955 90.9099 31.5249 88.5175C20.3848 83.6331 15.6104 71.771 15.8034 70.8739C18.1965 68.2821 27.5463 59.7095 45.0522 58.5353C64.1495 57.5165 77.279 68.3818 77.7763 68.8802C77.9752 70.2758 75.9859 79.9449 65.1442 86.9226C59.6736 90.3118 53.8051 92.1061 47.5388 92.1061M17.8981 71.3723C18.7933 73.7646 23.1698 82.736 32.3206 86.6236C43.7591 91.7074 54.7003 91.209 64.0501 85.1284C72.7036 79.5462 75.3891 72.07 75.9859 69.9767C73.4993 68.0828 61.3645 59.6098 45.1516 60.5069C28.8393 61.6034 19.788 69.4783 17.8981 71.3723"/>
	<path fill="#9F7A64" d="M41.0769 59.1113C41.0769 57.6161 43.5633 56.3202 46.3481 56.3202C49.3318 56.3202 51.6193 57.4167 51.6193 59.1113C51.6193 60.8059 49.3318 61.9024 46.3481 61.9024C43.5633 61.9024 41.0769 60.6065 41.0769 59.1113"/>
	<path fill="#4C4C4C" d="M46.4476 72.9672C43.1656 72.9672 40.8781 72.2694 39.6846 70.8739C38.8857 69.7774 38.8857 68.6809 38.8857 68.5812L40.8781 68.8802C40.8781 68.8802 40.8781 69.2789 41.2759 69.6777C41.7732 70.1761 43.0661 70.9735 46.5471 70.9735C51.4204 70.9735 52.5145 68.8802 52.5145 68.4815C52.5145 68.4815 52.5145 68.6809 52.7133 68.8802C52.9123 69.0796 53.1113 69.1793 53.3102 69.1793L53.3102 67.1856C53.9069 67.1856 54.5036 67.684 54.5036 68.4815C54.5036 69.2789 54.0064 70.4751 52.7133 71.3723C51.1221 72.3691 49.0335 72.9672 46.4476 72.9672"/>
</svg>
