<?xml version="1.0" encoding="utf-8" ?>
<svg xmlns="http://www.w3.org/2000/svg" xmlns:xlink="http://www.w3.org/1999/xlink" width="118" height="74">
	<path fill="white" d="M58.7689 74C42.2073 74 27.6655 62.717 23.5251 46.4533C22.2123 45.3352 21.3034 44.9286 20.7985 44.4203L19.6876 44.217C18.5768 44.7253 17.264 44.9286 15.8502 44.9286C12.1138 44.9286 8.78125 43.2005 6.76155 40.1511C4.53988 37.2033 4.74185 34.7637 5.0448 33.544L4.64086 32.4258C2.92411 31.3077 1.61131 29.8846 0.904412 28.3599C-0.408394 25.4121 -0.307409 21.6511 1.30835 17.8901C4.33791 12.5027 11.4069 7.21703 20.4955 7.21703C21.6064 7.21703 22.6162 7.42033 23.5251 7.52198C23.828 7.52198 24.131 7.62363 24.4339 7.62363C27.9684 8.53846 30.1901 9.55495 32.1088 10.8764L33.4216 10.7747C40.1876 3.86264 49.2763 0 59.2738 0C69.2713 0 78.461 3.86264 84.5201 10.7747L85.8329 10.978C87.6506 9.65659 89.9733 8.53846 93.1038 7.72527C95.0225 7.42033 96.2344 7.31868 97.4462 7.31868C106.131 7.31868 113.604 12.4011 116.532 17.4835C118.249 21.6511 118.451 25.5137 117.138 28.3599C116.431 29.9863 115.22 31.3077 113.402 32.5275C113.2 35.272 113.2 37.5082 111.281 40.0495C109.059 43.2005 105.828 44.8269 102.192 44.8269C100.981 44.8269 99.6679 44.522 98.2541 44.0137L97.2442 44.3187C96.7393 44.8269 96.1334 45.1319 95.0225 45.6401C89.8723 62.6154 75.3304 74 58.7689 74"/>
	<path fill="#C4D5D8" d="M35.7443 24.8839C34.2296 17.4635 31.8059 13.3976 23.6261 10.958C15.0424 9.43331 6.8626 14.4141 4.03502 19.1915C1.71236 24.1723 3.4291 28.9498 7.46851 30.0679C11.5079 31.1861 5.54979 32.9141 9.18526 38.0981C12.8207 43.2822 19.5867 41.3509 20.1926 39.6229C20.5966 37.8948 21.7074 44.197 28.3724 42.6723C34.9365 41.4525 37.0571 32.3042 35.7443 24.8839"/>
	<path fill="#2D1B0A" d="M26.3527 44.0137C23.1212 44.0137 21.4045 42.184 20.4956 40.9642C19.5867 41.7774 18.173 42.2857 16.8601 42.489C13.5276 42.8955 10.2961 41.5741 8.3774 38.728C6.15572 35.4752 7.06459 33.239 7.6705 31.9175C7.77149 31.7142 7.87247 31.5109 7.87247 31.3076C7.77149 31.206 7.56952 31.1043 7.16558 31.0027C5.14587 30.4945 3.53011 29.0714 2.62124 27.1401C1.51041 24.7005 1.61139 21.651 3.02519 18.7032C6.25671 13.2142 15.0424 8.33511 23.7271 9.85983C32.5128 12.401 35.0375 16.9752 36.6532 24.4972C38.067 32.7307 35.4414 42.184 28.4734 43.5054C27.7665 43.912 27.0596 44.0137 26.3527 44.0137M20.3946 38.423C21.0005 38.423 21.4045 38.9313 21.8084 39.4395C22.7173 40.6593 24.333 42.6923 28.1705 41.7774C33.9266 40.6593 36.0473 32.4258 34.7345 25.1071C33.2197 18.0933 31.2 14.2307 23.4242 11.9944C14.8404 10.4697 7.26656 15.7554 4.9439 19.7197C3.83307 22.0576 3.73208 24.4972 4.53996 26.4285C5.14587 27.8516 6.25671 28.7664 7.77149 29.173C8.57937 29.3763 9.48823 29.6813 9.89217 30.4945C10.2961 31.3076 9.89217 32.1208 9.58922 32.8324C9.08429 34.0521 8.47838 35.3736 10.0941 37.6098C12.1138 40.5576 15.1434 40.6593 16.3552 40.5576C18.072 40.3543 19.0818 39.7445 19.2838 39.4395C19.4858 38.728 19.8897 38.5247 20.1927 38.5247C20.2936 38.423 20.3946 38.423 20.3946 38.423"/>
	<path fill="#C4D5D8" d="M82.0964 24.9039C83.6112 17.4835 86.0348 13.4175 94.2146 10.978C102.798 9.45326 110.978 14.434 113.806 19.2115C116.128 24.1922 114.412 28.9697 110.372 30.0878C106.333 31.2061 112.291 32.9341 108.656 38.118C105.02 43.3022 98.2752 41.3708 97.6481 39.6428C97.2442 37.9147 96.1333 44.217 89.4683 42.6922C83.0053 41.4725 80.6826 32.3242 82.0964 24.9039"/>
	<path fill="#2D1B0A" d="M91.4979 44.0137C90.7913 44.0137 90.0846 43.912 89.2771 43.7087C85.9459 43.0989 83.3214 40.456 81.9081 36.4917C80.7508 33.0357 80.394 28.6648 81.2015 24.7005C82.8166 17.1785 85.2393 12.6044 94.0215 10.0631C102.804 8.53841 111.586 13.4175 114.816 18.8049C116.229 21.8543 116.431 24.9038 115.321 27.3434C114.412 29.2747 112.797 30.5961 110.778 31.206C110.374 31.3076 110.173 31.4093 110.072 31.5109C110.072 31.7142 110.274 31.9175 110.274 32.1208C110.879 33.4423 111.889 35.6785 109.567 38.9313C107.649 41.6758 104.419 43.0989 101.088 42.6923C99.7753 42.489 98.3921 41.9807 97.4536 41.1675C96.4442 42.184 94.7281 44.0137 91.4979 44.0137M83.1195 25.1071C82.4128 28.6648 82.7157 32.6291 83.8261 35.7802C84.6336 38.1181 86.3497 41.0659 89.6809 41.7774C93.6177 42.6923 95.1319 40.6593 96.0404 39.4395C96.4442 38.9313 96.9489 38.3214 97.6555 38.423C97.9583 38.5247 98.3921 38.728 98.564 39.3379C98.665 39.6428 99.7753 40.3543 101.491 40.456C102.703 40.5576 105.731 40.456 107.75 37.5082C109.365 35.1703 108.759 33.8489 108.255 32.7307C107.952 32.0192 107.548 31.206 107.952 30.3928C108.356 29.5796 109.264 29.2747 110.072 29.0714C111.586 28.6648 112.696 27.75 113.302 26.3269C114.21 24.3956 114.009 21.956 112.898 19.6181C110.576 15.6538 103.006 10.4697 94.4253 11.8928C86.6525 14.2307 84.5327 18.0934 83.1195 25.1071"/>
	<path fill="#C4D5D8" d="M25.6458 37C25.6458 18.2944 40.5915 3.65705 58.7689 3.65705C77.1481 3.65705 91.892 18.701 91.892 37C91.892 55.2945 76.9462 70.3428 58.7689 70.3428C40.4906 70.6433 25.6458 55.4977 25.6458 37"/>
	<path fill="#2D1B0A" d="M58.3649 71.4078C49.5792 71.4078 41.2985 67.9518 34.9364 61.6496C28.3724 55.1441 24.7369 46.3007 24.7369 36.9999C24.7369 17.9408 40.0866 2.5919 58.8699 2.5919C77.7541 2.5919 93.0028 18.0424 93.0028 36.9999C93.0028 55.9573 77.6531 71.3062 58.8699 71.3062C58.6679 71.4078 58.4659 71.4078 58.3649 71.4078M58.8699 4.62487C41.0965 4.62487 26.7566 19.1606 26.7566 36.9999C26.7566 45.7924 30.1901 54.026 36.3502 60.2265C42.4093 66.2238 50.3871 69.4765 58.8699 69.3749C76.6432 69.3749 91.0841 54.8392 91.0841 36.9999C91.0841 19.2622 76.5423 4.62487 58.8699 4.62487"/>
	<path fill="#7A8486" d="M58.9709 29.7829C54.4266 29.7829 53.6187 35.7801 52.2049 39.5411C51.0941 43.2005 51.0941 48.6895 53.9216 50.4174C56.4463 51.9422 63.0103 52.6537 64.727 48.8927C66.2418 44.9285 65.333 39.7444 64.727 38.0164C64.2221 36.2883 63.2123 29.7829 58.9709 29.7829"/>
	<path d="M42.2073 28.6648C42.2073 27.1401 43.5202 25.6154 45.2369 25.6154C46.9536 25.6154 48.2665 26.9368 48.2665 28.6648C48.2665 30.3928 46.9536 31.7143 45.2369 31.7143C43.7221 31.7143 42.2073 30.3928 42.2073 28.6648"/>
	<path d="M67.4536 28.6648C67.4536 27.1401 68.7665 25.6154 70.4832 25.6154C72.1999 25.6154 73.5128 26.9368 73.5128 28.6648C73.5128 30.3928 72.1999 31.7143 70.4832 31.7143C68.9684 31.7143 67.4536 30.3928 67.4536 28.6648"/>
	<path fill="#4C4C4C" d="M59.2738 58.3461C51.498 58.3461 50.0842 54.3819 50.0842 54.1786L52.0029 53.5687C52.0029 53.5687 53.1138 56.3132 59.2738 56.3132C64.3231 56.3132 65.5349 53.9753 65.5349 53.5687C65.5349 53.6703 65.5349 53.772 65.7369 53.9753C65.9389 54.1786 66.1408 54.2802 66.3428 54.2802L66.3428 52.2472C66.9487 52.2472 67.5546 52.7555 67.5546 53.5687C67.5546 54.3819 67.0497 55.6017 65.6359 56.6181C64.6261 57.3297 62.6064 58.3461 59.2738 58.3461"/>
</svg>
