<?xml version="1.0" encoding="utf-8" ?>
<svg xmlns="http://www.w3.org/2000/svg" xmlns:xlink="http://www.w3.org/1999/xlink" width="86" height="80">
	<path fill="white" d="M43.4484 80C23.6195 80 7.37775 63.8 7.37775 43.8C7.37775 39.2 8.07525 35.3 9.47025 31.6L9.17132 30.5C6.97918 28.5 4.98633 25.8 3.49169 22.9C1.39919 18.5 -2.18794 5.8 1.79776 1.6C2.79419 0.5 4.28883 0 6.38132 0C10.367 0 18.0395 2.1 22.7227 5.1C23.7191 5.6 24.6159 6.2 25.5127 6.7C26.6088 7.4 27.7049 8 29.0002 8.7C33.2848 7.6 37.2705 7 41.2563 7C46.7366 7 51.1209 7.7 55.3059 9.3C57.2987 8.6 58.5941 7.8 59.8894 7.1C60.8859 6.5 61.8823 5.9 62.8787 5.4C67.7612 2.7 75.2344 0.6 79.6187 0.6C81.7112 0.6 83.2058 1.1 84.2022 2.2C88.1879 6.3 84.6008 19 82.5083 23.3C81.213 26.1 79.0208 28.7 77.3269 30.5L77.1276 31.6C78.6222 35.7 79.4194 39.7 79.4194 44C79.519 63.8 63.2773 80 43.4484 80"/>
	<path fill="#F9B587" d="M33.6834 14.8C33.6834 14.8 27.5056 10.8 21.6266 7.50002C15.8475 4.50002 5.68386 1.90002 4.18922 3.60002C2.29601 5.50002 3.59136 15.4001 6.481 21.1C8.97206 26.2001 15.15 31.5 15.15 31.5L33.6834 14.8"/>
	<path fill="#2D1B0A" d="M15.1499 32.9001C14.1535 32.1001 8.07527 26.8001 5.48456 21.5001C2.49528 15.8001 0.901 5.30009 3.39207 2.80009C5.68385 0.30009 17.4417 4.10009 22.0252 6.50009C27.9042 9.70009 34.1816 13.8001 34.1816 13.8001L35.2777 14.5001L15.1499 32.9001M6.08242 4.10009C5.48456 4.10009 4.98635 4.20009 4.78706 4.30009C3.39207 5.70009 4.28885 15.0001 7.27813 20.7001C9.17134 24.6001 13.456 28.8001 15.0503 30.3001L31.9895 15.0001C29.9967 13.7001 25.4131 10.8001 21.0288 8.50009C16.0467 5.80009 9.0717 4.10009 6.08242 4.10009"/>
	<path fill="#F9B587" d="M52.6154 15C52.6154 15 58.7933 11 64.6722 7.70002C70.4514 4.70002 80.6151 2.10002 82.1096 3.80002C84.0028 5.70002 82.7076 15.6 79.8178 21.3001C77.3268 26.4001 71.1489 31.7001 71.1489 31.7001L52.6154 15"/>
	<path fill="#2D1B0A" d="M71.149 33.1L51.0212 14.8L52.1173 14.1C52.2169 14.1 58.3948 9.99999 64.2737 6.79999C68.8572 4.39999 80.7147 0.59999 83.0065 3.09999C85.3979 5.49999 83.8036 16 80.8144 21.8C78.2236 27 72.1454 32.3 71.8465 32.5M54.2098 15.1L71.149 30.4C72.7433 28.9 77.0279 24.8 78.9211 20.9C81.9104 15.1 82.8072 5.79999 81.4122 4.49999C80.3161 3.49999 71.2487 5.39999 65.0708 8.59999C60.7862 10.9 56.3023 13.8 54.2098 15.1"/>
	<path fill="#FFF6E9" d="M10.7656 43.6C10.7656 25.1996 25.5127 10.7997 43.4484 10.7997C61.5834 10.7997 76.1312 25.5997 76.1312 43.6C76.1312 61.7997 61.3841 76.4002 43.4484 76.4002C25.4131 76.4996 10.7656 61.5996 10.7656 43.6"/>
	<path fill="#2D1B0A" d="M43.3487 77.4C34.4805 77.4 26.1106 73.9 19.8331 67.6C13.3563 61.2 9.8688 52.6 9.8688 43.6C9.8688 24.9 25.0145 9.8 43.548 9.8C62.0816 9.8 77.2272 25 77.2272 43.6C77.2272 62.3 62.0816 77.4 43.548 77.4C43.4484 77.4 43.3487 77.4 43.3487 77.4M43.4484 11.7C25.9113 11.7 11.762 26 11.762 43.5C11.762 52 15.1499 60.1 21.1284 66.1C27.107 72.1 34.9787 75.3 43.2491 75.3C43.3487 75.3 43.3487 75.3 43.4484 75.3C60.9855 75.3 75.1347 61 75.1347 43.5C75.1347 26 60.9855 11.7 43.4484 11.7"/>
	<path fill="#EFA770" d="M15.2495 26.9001C15.2495 26.9001 24.9148 28.4001 31.7902 34.8001C38.9645 41.2001 42.4519 60.0001 42.4519 60.0001C42.4519 60.0001 47.4341 42.1001 57.6973 34.2001C67.9605 26.1001 71.5476 27.2001 71.5476 27.2001C71.5476 27.2001 63.1776 9.50008 41.7544 9.8934C20.3313 10.3001 15.2495 26.9001 15.2495 26.9001"/>
	<path fill="#2D1B0A" d="M42.2526 64.4002L41.4555 60.1997C41.4555 59.9997 37.8683 41.6976 31.0926 35.5969C24.5162 29.4962 15.1498 27.896 15.0502 27.896L13.9541 27.696L14.253 26.5959C14.3527 26.3958 19.7334 9.29388 41.7544 8.8873C63.4765 8.49379 72.3447 26.5959 72.4443 26.6959L73.4408 28.6961L71.2486 28.096C71.2486 28.096 67.6615 27.496 58.2951 34.8968C48.4305 42.4977 43.4483 59.9997 43.3487 60.1997L42.2526 64.4002M16.6445 26.1958C19.5341 26.7959 26.808 28.8961 32.4876 34.0967C37.8683 38.8973 41.2562 50.3986 42.6512 56.1992C44.644 50.4986 49.4269 39.2973 57.0994 33.3966C63.7754 28.096 67.7611 26.5959 69.8536 26.1958C67.3626 22.1953 58.7933 10.494 41.7544 10.8941C24.4166 11.1941 18.1391 22.5954 16.6445 26.1958"/>
	<path fill="#91715A" d="M37.0713 58.8C37.0713 57.3 39.5623 56 42.3523 56C45.3416 56 47.6334 57.1 47.6334 58.8C47.6334 60.3 45.3416 61.6 42.3523 61.6C39.662 61.6 37.0713 60.5 37.0713 58.8"/>
	<path d="M24.4166 43.6C24.4166 42.1 25.712 40.6 27.4059 40.6C29.0998 40.6 30.3952 41.9 30.3952 43.6C30.3952 45.3 29.0998 46.6 27.4059 46.6C25.6123 46.8 24.4166 45.3 24.4166 43.6"/>
	<path d="M57.8966 43.4025C57.8966 41.9 59.192 40.4 60.8859 40.4C62.5798 40.4 63.8752 41.7 63.8752 43.4025C63.8752 45.1 62.5798 46.405 60.8859 46.405C59.2916 46.5 57.8966 45.1 57.8966 43.4025"/>
	<path fill="#4C4C4C" d="M42.8505 67.1C39.5623 67.1 37.2705 66.4 36.0748 65C35.2744 63.9 35.2744 62.8 35.2744 62.7L37.2705 63C37.2705 63 37.2705 63.4 37.6691 63.8C38.1673 64.3 39.4627 65.1 42.9502 65.1C47.8327 65.1 48.9287 63 48.9287 62.6C48.9287 62.6 48.9287 62.8 49.128 63C49.3273 63.2 49.5266 63.3 49.7259 63.3L49.7259 61.3C50.3237 61.3 50.9216 61.8 50.9216 62.6C50.9216 63.4 50.4234 64.6 49.128 65.5C47.5337 66.5 45.4412 67.1 42.8505 67.1"/>
</svg>
