<?xml version="1.0" encoding="utf-8" ?>
<svg xmlns="http://www.w3.org/2000/svg" xmlns:xlink="http://www.w3.org/1999/xlink" width="108" height="74">
	<path fill="white" d="M54 74C47.7186 74 26.2402 72.066 17.4259 47.4333C7.29456 46.619 0 39.0867 0 29.6204C0 20.1541 7.49719 12.4182 16.7167 12.4182C19.2495 12.4182 21.4784 12.9271 23.4034 13.8432L24.6191 13.5378C30.4953 5.59835 39.0056 1.32325 50.6567 0.203576C52.1764 0 53.5947 0 55.1144 0C72.5403 0 80.848 9.77166 82.8743 12.8253C82.9756 12.9271 83.0769 13.0289 83.0769 13.0289L84.1914 13.2325C86.5216 12.1128 88.9531 11.6039 91.2833 11.6039C100.503 11.6039 108 19.3398 108 28.8061C108 38.2724 100.503 46.0083 91.2833 46.0083L90.0675 46.0083C88.2439 52.2173 86.9268 54.5585 84.6979 57.5103C78.5178 68.2999 64.6379 74 54 74"/>
	<path fill="#9E6047" d="M3.74865 29.5186C3.74865 21.8844 9.72614 15.37 17.426 15.37C25.0245 15.37 31.1033 21.6809 31.1033 29.5186C31.1033 37.3562 25.1257 43.6671 17.426 43.6671C9.72614 43.5653 3.74865 37.3562 3.74865 29.5186"/>
	<path fill="#2D1B0A" d="M17.426 44.5832C9.21965 44.5832 2.7356 37.9669 2.7356 29.4167C2.7356 21.0701 9.32097 14.2503 17.426 14.2503C25.5311 14.2503 32.1165 21.0701 32.1165 29.4167C32.1165 37.8652 25.5311 44.5832 17.426 44.5832M17.426 16.3878C10.4354 16.3878 4.76187 22.2916 4.76187 29.5185C4.76187 36.8473 10.3341 42.6492 17.426 42.6492C24.518 42.6492 30.0902 36.9491 30.0902 29.5185C30.0902 22.2916 24.4167 16.3878 17.426 16.3878"/>
	<path fill="#9E6047" d="M78.3152 28.908C78.3152 21.1721 84.2927 14.7594 91.9925 14.7594C99.6923 14.7594 105.67 21.0703 105.67 28.908C105.67 36.7456 99.6923 43.0565 91.9925 43.0565C84.2927 43.0565 78.3152 36.4403 78.3152 28.908"/>
	<path fill="#2D1B0A" d="M91.9926 43.9726C83.8876 43.9726 77.3022 37.1528 77.3022 28.8061C77.3022 20.4595 83.8876 13.6397 91.9926 13.6397C100.098 13.6397 106.683 20.4595 106.683 28.8061C106.683 37.2546 100.098 43.9726 91.9926 43.9726M91.9926 15.7773C84.9007 15.7773 79.3285 21.4774 79.3285 28.9079C79.3285 36.1349 85.002 42.0386 91.9926 42.0386C99.0846 42.0386 104.657 36.3385 104.657 28.9079C104.657 21.4774 99.0846 15.7773 91.9926 15.7773"/>
	<path fill="#FFE6DE" d="M21.1744 37.1515C21.1744 18.6512 33.4333 4.70625 54.4053 3.7353C75.1745 2.67049 87.636 18.8548 87.636 37.1515C87.636 55.6003 72.6416 70.5677 54.4053 70.5677C35.8648 70.8686 21.1744 55.6003 21.1744 37.1515"/>
	<path fill="#2D1B0A" d="M54 71.557C45.1858 71.557 36.7768 68.0939 30.4953 61.8807C23.91 55.3618 20.2627 46.5003 20.2627 37.1515C20.2627 17.1657 33.7374 3.61877 54.5066 2.6441C63.8274 2.19278 72.1351 5.04476 78.3152 11.0543C85.0019 17.3694 88.7505 26.9439 88.7505 37.2314C88.7505 56.2786 73.3509 71.6589 54.5066 71.6589C54.304 71.557 54.1013 71.557 54 71.557M56.4316 4.63733C55.8237 4.63733 55.1145 4.63733 54.5066 4.73919C34.8518 5.6559 22.1876 18.388 22.1876 37.1515C22.1876 45.9911 25.6323 54.3433 31.8124 60.4547C37.8912 66.4642 45.895 69.7236 54.4053 69.5199C72.2364 69.5199 86.7242 54.9544 86.7242 37.1515C86.7242 27.4532 83.1783 18.4898 76.8968 12.4803C71.5272 7.2856 64.4353 4.63733 56.4316 4.63733"/>
	<path fill="#9E6047" d="M54.8104 18.6271C54.8104 18.6271 45.9961 13.6396 42.0449 13.8431C38.6003 14.4538 34.953 14.9628 31.8123 20.1539C28.7729 25.1416 34.1425 36.4401 34.1425 36.4401C34.1425 36.4401 29.1781 34.0989 25.3282 39.4938C21.681 45.1939 27.0506 56.2887 27.0506 56.2887C27.0506 56.2887 16.6153 49.1636 20.7691 31.1471C24.8217 13.1306 34.8517 4.88574 51.2644 3.25713C67.7785 1.7303 76.7954 9.56799 80.0374 14.1484C83.0768 18.9326 83.4821 13.0288 87.6359 30.9436C91.6885 48.3493 79.0243 59.8513 79.0243 59.8513C79.0243 59.8513 86.4202 50.6904 83.786 42.7509C81.4558 34.5061 75.7823 36.8473 75.7823 36.8473C75.7823 36.8473 77.0993 36.3382 78.3151 29.1114C79.4295 21.4773 75.0731 14.9628 67.7785 14.9628C60.2813 14.4538 56.2288 18.6271 54.8104 18.6271"/>
	<path fill="#2D1B0A" d="M79.7335 60.5638L78.3151 59.1388C78.4164 59.037 85.3057 50.2832 82.8742 42.9545C82.0637 40.308 80.9493 38.5776 79.4296 37.8651C77.8085 37.0508 76.2888 37.6615 76.1875 37.6615L75.4783 35.7275C75.377 35.7275 75.2757 35.8293 75.2757 35.8293C75.2757 35.8293 76.2888 34.8114 77.4033 28.7041C77.9099 24.938 76.998 21.3754 74.9718 18.9325C73.1481 16.8967 70.7166 15.777 67.8798 15.777C62.9155 15.4717 59.5721 17.3038 57.4446 18.4235C56.3301 19.0342 55.6209 19.4414 54.9117 19.4414C52.075 18.0164 45.287 14.5556 42.2476 14.6574C38.6003 15.3699 35.4596 15.8788 32.7241 20.5611C30.4952 24.3272 33.7373 32.8774 35.1556 35.9311L36.3714 38.4758L33.8386 37.2543C33.6359 37.1525 29.4821 35.3204 26.2401 39.9008C22.998 44.9902 27.9624 55.4744 28.0637 55.5762L29.786 59.037L26.6453 56.8994C26.2401 56.5941 15.7035 49.1635 19.9586 30.6381C24.0112 12.7234 34.0412 3.66424 51.3658 2.03562C70.1087 0.30523 78.8217 10.2805 81.0506 13.3341C81.8611 14.6574 82.3676 14.9627 82.9755 15.4717C84.7992 16.7949 85.9136 18.1182 88.7504 30.5363C92.8029 48.451 79.8348 60.462 79.7335 60.5638M55.4183 4.07139C54.1012 4.07139 52.7842 4.17318 51.3658 4.27496C34.7504 5.80179 25.6322 14.1484 21.681 31.3506C19.4521 41.3259 21.7823 47.8403 24.1125 51.6065C22.998 47.7385 22.1875 42.5473 24.4164 38.9847C26.9493 35.4221 30.09 34.8114 32.3189 35.015C30.9005 31.4524 28.3676 23.8183 30.7992 19.645C34.0412 14.2502 37.8911 13.5377 41.2344 12.927C45.5909 12.5198 52.8855 16.4895 54.7091 17.5074C55.013 17.4056 55.6209 17.1003 56.0262 16.7949C58.2551 15.5735 62.0037 13.5377 67.4746 13.8431C70.8179 13.8431 73.9586 15.1663 76.0862 17.711C78.6191 20.5611 79.6322 24.7344 79.0243 29.1113C78.6191 31.1997 78.1125 33.6917 77.4033 35.4221C78.1125 35.4221 79.0243 35.6257 79.9361 36.0329C81.9624 37.0508 83.4821 39.1883 84.3939 42.3437C85.1031 44.4813 85.1031 46.7206 84.7992 48.8582C86.7241 44.1759 88.0412 38.0686 86.3189 31.0453C83.4821 18.8307 82.469 18.0164 81.2532 17.2021C80.6453 16.6931 79.8348 16.1842 78.8217 14.5556C77.9099 12.8252 70.8179 4.07139 55.4183 4.07139"/>
	<path d="M41.7411 33.5901C41.7411 32.0633 43.0582 30.5365 44.7805 30.5365C46.5028 30.5365 47.8199 31.8597 47.8199 33.5901C47.8199 35.3205 46.5028 36.6438 44.7805 36.6438C43.0582 36.9491 41.7411 35.6259 41.7411 33.5901"/>
	<path d="M61.1932 33.5901C61.1932 32.0633 62.5103 30.5365 64.2326 30.5365C65.9549 30.5365 67.272 31.8597 67.272 33.5901C67.272 35.3205 65.9549 36.6438 64.2326 36.6438C62.5103 36.9491 61.1932 35.6259 61.1932 33.5901"/>
	<path fill="#7E5D4E" d="M48.9343 46.3136C48.9343 44.7868 51.4671 43.4635 54.3039 43.4635C57.3433 43.4635 59.6735 44.5832 59.6735 46.3136C59.6735 48.044 57.3433 49.1637 54.3039 49.1637C51.4671 49.0619 48.9343 48.044 48.9343 46.3136"/>
	<path fill="#4C4C4C" d="M54.8105 58.63C51.4672 58.63 49.137 57.9175 47.9212 56.4925C47.1073 55.3728 47.1073 54.2531 47.1073 54.1513L49.137 54.3549C49.137 54.3549 49.137 54.7621 49.5422 55.1692C50.0488 55.6781 51.3659 56.4925 54.9118 56.4925C59.7748 56.4925 60.7879 54.3549 60.7879 53.5406L62.8142 53.5406C62.713 53.846 62.6116 58.63 54.8105 58.63"/>
</svg>
