<?xml version="1.0" encoding="utf-8" ?>
<svg xmlns="http://www.w3.org/2000/svg" xmlns:xlink="http://www.w3.org/1999/xlink" width="76" height="76">
	<path fill="white" d="M38.1016 76C18.0856 76 1.82888 62.3017 1.82888 45.4579C1.82888 41.2977 2.84492 37.1375 4.7754 33.2817C1.72727 29.6288 0 24.9613 0 20.1923C0 9.03071 9.04278 0 20.2193 0C27.8396 0 34.5455 4.26168 38 10.5527C41.4545 4.26168 48.1604 0 55.7807 0C66.9572 0 76 9.03071 76 20.1923C76 24.9613 74.3743 29.4259 71.3262 33.0788C73.3583 36.9346 74.3743 41.0948 74.3743 45.3565C74.3743 62.3017 58.1176 76 38.1016 76"/>
	<path fill="#2F9339" d="M4.97865 45.4579C4.97865 60.6782 19.9144 72.9559 38.2033 72.9559C56.5937 72.9559 71.4279 60.6782 71.4279 45.4579C71.4279 30.2376 56.4921 17.9599 38.2033 17.9599C19.9144 17.9599 4.97865 30.2376 4.97865 45.4579"/>
	<path fill="#2D1B0A" d="M38.3049 73.9706C19.4065 73.9706 4.0643 61.1855 4.0643 45.4579C4.0643 29.7302 19.4065 16.9452 38.3049 16.9452C57.2033 16.9452 72.5456 29.7302 72.5456 45.4579C72.5456 61.1855 57.1017 73.9706 38.3049 73.9706M38.3049 18.9746C20.5242 18.9746 6.09639 30.8464 6.09639 45.4579C6.09639 60.0694 20.5242 71.9412 38.3049 71.9412C56.0857 71.9412 70.5135 60.0694 70.5135 45.4579C70.5135 30.8464 55.9841 18.9746 38.3049 18.9746"/>
	<path fill="#B8E59E" d="M20.8288 52.4592C19.7112 52.4592 19.1016 53.5754 19.6096 54.5901C23.0641 60.5767 30.4813 64.7369 39.1177 64.7369C47.754 64.7369 55.1711 60.5767 58.6257 54.5901C59.1337 53.6769 58.5241 52.4592 57.4064 52.4592L20.8288 52.4592"/>
	<path fill="#2D1B0A" d="M39.1558 65.7516C30.4178 65.7516 22.3911 61.5914 18.7333 55.0974C18.4285 54.3871 18.4285 53.4739 18.7333 52.6622C19.1397 51.9519 19.9526 51.4445 20.867 51.4445L57.4445 51.4445C58.359 51.4445 59.0702 51.8504 59.5782 52.6622C59.9846 53.3724 59.9846 54.2857 59.5782 55.0974C55.8189 61.5914 47.8937 65.7516 39.1558 65.7516M20.867 53.4739C20.6638 53.4739 20.5622 53.5754 20.5622 53.6769C20.5622 53.7783 20.4606 53.8798 20.5622 54.0827C23.9151 59.9679 31.2306 63.7223 39.2574 63.7223C47.1825 63.7223 54.498 59.9679 57.851 54.0827C57.9526 53.8798 57.851 53.7783 57.851 53.6769C57.851 53.5754 57.7494 53.4739 57.5461 53.4739L20.867 53.4739"/>
	<path fill="white" d="M3.14985 20.2937C3.14985 29.7308 10.8718 37.4424 20.3209 37.4424C29.7701 37.4424 37.4921 29.7308 37.4921 20.2937C37.4921 10.8576 29.7701 3.145 20.3209 3.145C10.8718 3.145 3.14985 10.7561 3.14985 20.2937"/>
	<path fill="#2D1B0A" d="M20.3209 38.4566C10.262 38.4566 2.1337 30.3391 2.1337 20.2937C2.1337 10.2483 10.262 2.1308 20.3209 2.1308C30.3797 2.1308 38.508 10.2483 38.508 20.2937C38.508 30.3391 30.3797 38.4566 20.3209 38.4566M20.3209 4.0587C11.3797 4.0587 4.16579 11.263 4.16579 20.1922C4.16579 29.1215 11.3797 36.3257 20.3209 36.3257C29.262 36.3257 36.4759 29.1215 36.4759 20.1922C36.5776 11.3644 29.262 4.0587 20.3209 4.0587"/>
	<path fill="#040000" d="M13.2086 19.0761C13.2086 23.0333 16.4599 26.2803 20.4225 26.2803C24.3851 26.2803 27.6364 23.0333 27.6364 19.0761C27.6364 15.1188 24.3851 11.8719 20.4225 11.8719C16.4599 11.8719 13.2086 15.1188 13.2086 19.0761"/>
	<path fill="#2F9339" d="M20.4225 12.5821C26.417 12.5821 32.0053 14.2055 36.1711 16.8438C34.8503 9.43656 28.246 3.95725 20.4225 3.95725C12.5989 3.95725 5.99461 9.53802 4.67375 16.8438C8.83953 14.2055 14.3262 12.5821 20.4225 12.5821"/>
	<path fill="white" d="M38.7114 20.2937C38.7114 29.7303 46.4333 37.4419 55.8825 37.4419C65.3316 37.4419 73.0536 29.7303 73.0536 20.2937C73.0536 10.8571 65.3316 3.1455 55.8825 3.1455C46.4333 3.1455 38.7114 10.7556 38.7114 20.2937"/>
	<path fill="#2D1B0A" d="M55.8824 38.4566C45.8235 38.4566 37.6952 30.3391 37.6952 20.2937C37.6952 10.2483 45.8235 2.1308 55.8824 2.1308C65.9412 2.1308 74.0695 10.2483 74.0695 20.2937C74.0695 30.3391 65.9412 38.4566 55.8824 38.4566M55.8824 4.0587C46.9412 4.0587 39.7273 11.263 39.7273 20.1922C39.7273 29.1215 46.9412 36.3257 55.8824 36.3257C64.8235 36.3257 72.0374 29.1215 72.0374 20.1922C72.1391 11.3644 64.8235 4.0587 55.8824 4.0587"/>
	<path fill="#040000" d="M48.7701 19.0761C48.7701 23.0333 52.0214 26.2803 55.984 26.2803C59.9466 26.2803 63.1979 23.0333 63.1979 19.0761C63.1979 15.1188 59.9466 11.8719 55.984 11.8719C51.9198 11.9733 48.7701 15.1188 48.7701 19.0761"/>
	<path fill="#2F9339" d="M56.0855 12.5822C62.0801 12.5822 67.6684 14.3071 71.8342 17.0468C70.5134 9.43663 64.0107 3.55145 56.0855 3.55145C48.1604 3.55145 41.5561 9.33516 40.3368 16.9454C44.5026 14.2056 49.9893 12.5822 56.0855 12.5822"/>
</svg>
