<?xml version="1.0" encoding="utf-8" ?>
<svg xmlns="http://www.w3.org/2000/svg" xmlns:xlink="http://www.w3.org/1999/xlink" width="114" height="90">
	<path fill="white" d="M37.3362 90C34.1502 90 31.0638 88.3802 28.8734 85.6468L27.4795 85.5456C26.9817 85.9505 26.4838 86.5579 26.1852 87.2666C25.6873 88.279 24.6917 88.8864 23.5965 88.8864C23.0987 88.8864 22.6009 88.7852 22.2026 88.4814C21.5057 88.0765 21.0079 87.4691 20.8087 86.6592C20.6096 85.8493 20.7092 85.0394 21.0079 84.3307C22.1031 82.306 23.5965 80.6862 25.4882 79.6738L25.1895 74.8144C23.8952 74.6119 23.3974 74.6119 22.8996 74.6119C20.3109 74.6119 18.5188 75.6243 17.4236 77.649C16.9258 78.6614 15.9301 79.2688 14.8349 79.2688C14.3371 79.2688 13.8393 79.1676 13.441 78.8639C11.9476 78.054 11.4498 76.2317 12.2463 74.7132C14.3371 70.7649 18.1205 68.6389 22.8 68.5377L23.9948 68.5377L23.3974 65.3993C21.5057 64.7919 20.4105 64.5894 19.3153 64.5894C18.6183 64.5894 17.9214 64.6907 17.4236 64.8931C15.731 65.3993 14.5362 66.8166 13.6402 69.0439C13.1424 70.1575 12.0472 70.9674 10.8524 70.9674C10.4541 70.9674 10.0559 70.8661 9.75721 70.7649C9.06026 70.4612 8.46288 69.8538 8.16419 69.1451C7.8655 68.4364 7.8655 67.5253 8.16419 66.8166C9.75721 62.9696 12.3459 60.3375 15.6314 59.2238C15.9301 59.1226 16.2288 59.0214 16.4279 59.0214L17.7223 58.7177L17.0253 57.5028C15.9301 55.4781 15.2332 53.1496 15.1336 50.4162C5.9738 47.3791 0 39.685 0 30.7762C0 22.8796 10.0559 8.70641 12.0472 5.973L16.1293 0.404949L19.0166 15.5906L21.0079 15.6918L22.4017 10.225L25.986 12.9584C27.1808 13.8695 38.1328 22.3735 38.1328 30.7762C38.1328 35.6355 36.3406 40.3937 32.9555 43.937L34.0507 45.5568C35.4445 45 36.8384 44.4432 38.3319 43.937C39.1284 39.2801 42.2148 36.1417 45.9983 36.1417C48.8856 36.1417 51.3747 37.8628 52.4699 40.5962C54.262 41.3048 55.1581 41.2036 55.9546 41.2036L57 40.5962C57.5476 39.1789 58.5432 37.964 59.9371 37.1541C61.0323 36.5467 62.2271 36.243 63.4218 36.243C64.6166 36.243 65.8114 36.5467 66.9066 37.1541C68.7983 38.2677 70.0926 40.1912 70.2917 42.4184C73.2786 43.937 75.469 44.7469 77.4603 45.5568L81.0445 47.0754C84.2306 48.3915 86.7197 51.2261 87.9144 54.8706L88.6114 56.9966L89.7066 54.9719C90.4035 53.6558 90.8017 51.9348 90.8017 50.0112L90.1048 48.9989C81.7415 46.7717 75.8672 39.0776 75.8672 30.3712C75.8672 21.8673 86.7197 13.4646 88.014 12.5534L91.5983 9.82002L92.9921 15.2868L94.9834 15.1856L97.8707 0L101.953 5.56805C103.944 8.30146 114 22.4747 114 30.3712C114 39.8875 107.031 48.0877 97.7712 49.4038C96.8751 53.2508 96.2777 55.7818 95.083 58.009L94.386 59.2238L95.6803 59.5276C95.979 59.6288 96.2777 59.73 96.5764 59.8313C99.862 60.9449 102.451 63.5771 104.044 67.4241C104.342 68.1327 104.342 69.0439 104.044 69.7525C103.745 70.4612 103.148 71.0686 102.451 71.3723C102.052 71.5748 101.754 71.5748 101.355 71.5748C100.161 71.5748 99.0655 70.8661 98.5677 69.6513C97.6716 67.4241 96.3773 66.108 94.7843 65.5006C94.1869 65.2981 93.5895 65.1969 92.8926 65.1969C91.4987 65.1969 89.9057 65.6018 88.2131 66.3105L87.0183 69.2463L88.6114 69.1451C88.8105 69.1451 88.91 69.1451 89.1092 69.1451C93.9878 69.1451 97.8707 71.3723 99.9616 75.3206C100.36 76.0292 100.459 76.8391 100.161 77.649C99.862 78.4589 99.4638 79.0664 98.7668 79.4713C98.3686 79.6738 97.8707 79.8763 97.3729 79.8763C96.2777 79.8763 95.2821 79.2688 94.7843 78.2565C93.6891 76.2317 91.8969 75.2193 89.3083 75.2193C88.2131 75.2193 87.1179 75.4218 85.8236 75.7255L84.3301 79.1676C87.9144 80.4837 89.9057 82.306 91.2996 84.8369C91.6978 85.5456 91.7974 86.3555 91.4987 87.1654C91.2996 87.9753 90.8017 88.5827 90.1048 88.9876C89.7066 89.1901 89.2087 89.3926 88.7109 89.3926C87.6157 89.3926 86.6201 88.7852 86.1223 87.7728C85.4253 86.3555 84.3301 85.4443 82.8367 85.0394L81.7415 85.3431C79.5511 88.279 76.4646 89.8988 73.179 89.8988L37.3362 89.8988M24.5921 49.3026C23.8952 49.5051 22.9991 49.7075 22.0035 49.91L21.207 51.0236C21.3066 52.2385 21.6052 53.2508 22.0035 54.162L22.9991 56.1867L23.8952 54.162C24.393 53.0484 24.9904 51.9348 25.6873 51.0236L27.6786 48.4927L24.5921 49.3026"/>
	<path fill="#463218" d="M40.8209 42.7222C40.8209 45.4556 43.0113 47.784 45.7991 47.784C48.4873 47.784 50.7773 45.5569 50.7773 42.7222C50.7773 39.9888 48.5869 37.6604 45.7991 37.6604C43.1109 37.7616 40.8209 39.9888 40.8209 42.7222"/>
	<path fill="#463218" d="M58.1449 42.7222C58.1449 44.5445 59.041 46.1643 60.634 47.0754C62.1275 47.9865 64.0192 47.9865 65.6122 47.0754C67.1056 46.1643 68.1013 44.5445 68.1013 42.7222C68.1013 40.8999 67.2052 39.2801 65.6122 38.369C64.1187 37.4579 62.227 37.4579 60.634 38.369C59.1406 39.2801 58.1449 41.0012 58.1449 42.7222"/>
	<path fill="#2D1B0A" d="M26.1852 61.0461C26.0856 61.0461 26.0856 61.0461 25.986 61.0461C22.8 60.3374 20.4105 58.8189 18.9171 56.3892C15.8306 51.4286 17.4236 44.7469 17.5232 44.5444C17.6227 44.0382 18.2201 43.6333 18.7179 43.7825C19.2157 43.937 19.614 44.5444 19.4149 45.0506C19.4149 45.1518 18.021 51.2261 20.6096 55.3768C21.8044 57.3003 23.7957 58.6164 26.3843 59.1226C26.8821 59.2238 27.2804 59.73 27.1808 60.3374C27.0812 60.7424 26.683 61.0461 26.1852 61.0461"/>
	<path fill="#2D1B0A" d="M85.4254 61.7548C84.9275 61.7548 84.5293 61.4511 84.4109 60.9449C84.4109 60.4387 84.6288 59.8313 85.2262 59.7301C87.8149 59.2239 89.8061 57.9078 91.0009 55.8831C93.5895 51.6311 92.1957 45.6581 92.1957 45.5569C92.0961 45.0507 92.3948 44.4432 92.8926 44.3226C93.3904 44.3226 93.9878 44.5445 94.0874 45.0507C94.1869 45.3544 95.6804 52.036 92.6935 56.8954C91.2 59.3251 88.8105 60.9449 85.6245 61.5523C85.6245 61.6536 85.5249 61.7548 85.4254 61.7548"/>
	<path fill="#2D1B0A" d="M10.8524 68.4364C10.7529 68.4364 10.5538 68.4364 10.4542 68.3352C9.95637 68.1327 9.65768 67.5253 9.95637 67.0191C11.3503 63.6783 13.4411 61.451 16.2289 60.5399C21.7048 58.7176 27.7782 62.5646 27.9773 62.6659C28.4751 62.9696 28.5747 63.577 28.276 64.0832C27.9773 64.5894 27.38 64.6906 26.8821 64.3869C26.7826 64.3869 21.3066 60.9448 16.7267 62.4634C14.5363 63.1721 12.8437 64.9943 11.7485 67.7277C11.5494 68.2339 11.2507 68.4364 10.8524 68.4364"/>
	<path fill="#2D1B0A" d="M14.7353 76.7379C14.5362 76.7379 14.4366 76.7379 14.2375 76.6367C13.6989 76.333 13.5405 75.7256 13.8392 75.2194C17.7222 67.9303 26.7825 69.955 30.9641 71.9798C31.4619 72.1822 31.6611 72.7897 31.4619 73.2959C31.2628 73.802 30.6654 74.0045 30.1676 73.802C29.7694 73.5996 19.5144 68.7402 15.6314 76.1305C15.4323 76.5355 15.1336 76.7379 14.7353 76.7379"/>
	<path fill="#2D1B0A" d="M23.4969 86.2542C23.2978 86.2542 23.1982 86.2542 22.9991 86.153C22.4605 85.8493 22.3021 85.2419 22.6008 84.7357C26.4838 77.4466 35.5441 79.4713 39.7257 81.4961C40.2235 81.6985 40.4227 82.306 40.2235 82.8121C40.0244 83.3183 39.427 83.5208 38.9292 83.3183C38.531 83.1159 28.276 78.2565 24.393 85.6468C24.1939 86.0518 23.8952 86.2542 23.4969 86.2542"/>
	<path fill="#2D1B0A" d="M100.957 69.0438C100.559 69.0438 100.161 68.8414 100.061 68.4364C98.9659 65.6018 97.2734 63.8807 95.083 63.1721C90.5031 61.6535 85.0271 65.0956 84.9275 65.0956C84.4297 65.3993 83.8323 65.1968 83.5336 64.7919C83.2349 64.2857 83.3656 63.6783 83.8323 63.3746C84.131 63.1721 90.1048 59.4263 95.5808 61.2486C98.3685 62.1597 100.459 64.2857 101.853 67.7278C102.052 68.2339 101.853 68.8414 101.355 69.0438C101.256 69.0438 101.156 69.0438 100.957 69.0438"/>
	<path fill="#2D1B0A" d="M97.0742 77.3453C96.676 77.3453 96.3773 77.1428 96.1782 76.8391C92.2952 69.4488 81.7415 74.4094 81.6419 74.5107C81.1441 74.7131 80.5467 74.5107 80.2713 74.0045C80.1485 73.4983 80.2713 72.8909 80.8454 72.6884C85.1266 70.6636 94.1869 68.6389 97.9703 75.928C98.269 76.4342 98.0699 77.0416 97.5721 77.3453C97.3729 77.3453 97.1738 77.3453 97.0742 77.3453"/>
	<path fill="#2D1B0A" d="M88.3126 86.8616C87.9144 86.8616 87.6157 86.6591 87.4166 86.3554C83.5336 78.9651 72.9799 83.9257 72.8803 84.027C72.3825 84.2294 71.7851 84.027 71.5097 83.5208C71.3869 83.0146 71.5097 82.4072 72.0838 82.2047C76.365 80.1799 85.4253 78.1552 89.2087 85.4443C89.5074 85.9505 89.3083 86.5579 88.8105 86.8616C88.6113 86.8616 88.4122 86.8616 88.3126 86.8616"/>
	<path fill="#FE8E46" d="M72.7338 86.4694L37.3889 86.4694C33.4064 86.4694 30.0212 83.1285 29.0256 78.2691L25.8395 62.2736C24.7443 56.8068 27.1339 51.2388 31.4151 49.4165L34.7007 47.9992C47.9426 42.3299 62.8771 42.2286 76.2186 47.6955L79.8028 49.214C84.2832 51.1375 86.7722 57.2118 85.2788 62.8811L80.9977 78.9778C79.7032 83.5335 76.4177 86.4694 72.7338 86.4694"/>
	<path fill="#2D1B0A" d="M72.6811 87.4691L37.3361 87.4691C32.9553 87.4691 29.0724 83.8245 28.0767 78.459L24.8907 62.4635C23.696 56.4905 26.3842 50.5174 31.0637 48.4927L34.3492 47.0754C47.6907 41.3049 63.123 41.2036 76.5641 46.7717L80.1484 48.2902C85.1265 50.315 87.8147 56.9966 86.2217 63.1721L81.9405 79.2689C80.4471 84.2295 76.8628 87.4691 72.6811 87.4691M55.6439 44.7469C48.5868 44.7469 41.5178 46.1642 34.9466 48.9989L31.661 50.4162C27.8776 52.036 25.6872 57.1991 26.6829 62.1597L29.8689 78.1552C30.765 82.5085 33.7519 85.5456 37.2366 85.5456L72.5816 85.5456C75.7676 85.5456 78.6549 82.9134 79.7501 78.9651L84.0313 62.8684C85.4252 57.7053 83.2348 52.036 79.1527 50.4162L75.5685 48.8977C69.296 46.1642 62.5257 44.7469 55.6439 44.7469"/>
	<path fill="#FE8E46" d="M34.9467 30.27C34.9467 39.2801 27.7782 46.5692 18.917 46.5692C10.0559 46.5692 2.88735 39.2801 2.88735 30.27C2.88735 22.9809 14.3371 7.18785 14.3371 7.18785L19.3153 33.4084L23.9948 14.7807C24.0944 14.8819 34.9467 23.0821 34.9467 30.27"/>
	<path fill="#2D1B0A" d="M19.0165 47.5816C9.65758 47.5816 1.9912 39.7863 1.9912 30.27C1.9912 22.6772 13.1423 7.2891 13.6401 6.68167L15.034 4.8594L19.6139 28.9539L23.4969 13.2621L24.6916 14.1732C25.1895 14.4769 35.9423 22.7784 35.9423 30.3712C35.9423 39.7863 28.3755 47.5816 19.0165 47.5816M13.9388 9.71879C10.9519 14.072 3.98247 24.8032 3.98247 30.27C3.98247 38.6727 10.7528 45.5568 19.0165 45.5568C27.2803 45.5568 34.0506 38.6727 34.0506 30.27C34.0506 25.0056 27.4794 18.9314 24.6916 16.6029L19.3152 38.1665L13.9388 9.71879"/>
	<path fill="#FE8E46" d="M78.655 29.865C78.655 38.8752 85.8236 46.1643 94.6847 46.1643C103.546 46.1643 110.714 38.8752 110.714 29.865C110.714 22.576 99.2646 6.78295 99.2646 6.78295L94.2864 33.0035L89.607 14.3757C89.5074 14.3757 78.655 22.6772 78.655 29.865"/>
	<path fill="#2D1B0A" d="M94.6847 47.0754C85.3258 47.0754 77.6594 39.2801 77.6594 29.7638C77.6594 22.171 88.5118 13.8695 88.9101 13.5658L90.1048 12.6547L93.9878 28.3465L98.5677 4.252L99.9616 6.07427C100.459 6.6817 111.61 22.171 111.61 29.6626C111.61 39.3814 104.044 47.0754 94.6847 47.0754M88.9101 16.198C86.1223 18.5265 79.5511 24.6007 79.5511 29.865C79.5511 38.2677 86.3214 45.1519 94.5852 45.1519C102.849 45.1519 109.619 38.2677 109.619 29.865C109.619 24.3982 102.65 13.6671 99.6629 9.31387L94.2865 37.6603L88.9101 16.198"/>
</svg>
