<?xml version="1.0" encoding="utf-8" ?>
<svg xmlns="http://www.w3.org/2000/svg" xmlns:xlink="http://www.w3.org/1999/xlink" width="98" height="98">
	<path fill="white" d="M84.7786 69.6L84.7786 48L78.723 48L78.723 37L76.1998 37L76.1998 19.9L74.8877 19.9C76.7044 18.6 77.8146 16.5 77.8146 14.2C77.9156 9.1 74.0803 3.9 71.8599 1.7C70.8507 0.7 69.9423 0 68.6303 0L66.9145 0L66.0062 1.5C65.7034 2.1 65.1988 3.3 66.0062 4.8C66.9145 6.5 66.9145 7.1 66.9145 7.1C66.8136 7.2 66.6117 7.5 66.4099 7.7C65.4006 8.8 63.5839 10.7 63.8867 14.4C64.0886 16.7 65.1988 18.7 66.9145 19.9L64.5932 19.9L64.5932 37L37.4439 37L37.4439 26L0 26L0 98L31.3883 98L37.4439 98L78.8239 98L84.6777 98L98 98L98 69.7L84.7786 69.7"/>
	<path fill="#89C5E5" d="M67.5201 41.6L72.9701 41.6L72.9701 23.1L67.5201 23.1L67.5201 41.6"/>
	<path fill="#2D1B0A" d="M74.0803 42.6L66.6117 42.6L66.6117 22.1L74.0803 22.1L74.0803 42.6M68.5293 40.6L71.9608 40.6L71.9608 24.1L68.5293 24.1L68.5293 40.6"/>
	<path fill="#89C5E5" d="M40.4718 50.8L75.5944 50.8L75.5944 40.2L40.4718 40.2L40.4718 50.8"/>
	<path fill="#2D1B0A" d="M76.6037 51.8L39.4626 51.8L39.4626 39.2L76.6037 39.2L76.6037 51.8M41.4811 49.8L74.5852 49.8L74.5852 41.2L41.4811 41.2L41.4811 49.8"/>
	<path fill="#3BA7FF" d="M34.4161 51.3L81.549 51.3L81.549 95.3L34.4161 95.3L34.4161 51.3"/>
	<path fill="#2D1B0A" d="M82.6591 96.2L33.5077 96.2L33.5077 50.2L82.6591 50.2L82.6591 96.2M35.4253 94.2L80.5396 94.2L80.5396 52.2L35.4253 52.2L35.4253 94.2"/>
	<path fill="#D4EDF9" d="M81.7507 95.2L94.8712 95.2L94.8712 72.9L81.7507 72.9L81.7507 95.2"/>
	<path fill="#2D1B0A" d="M95.9814 96.2L80.8424 96.2L80.8424 71.9L95.9814 71.9L95.9814 96.2M82.76 94.2L93.862 94.2L93.862 73.9L82.76 73.9L82.76 94.2"/>
	<path fill="#5D985B" d="M3.02775 95.2L34.416 95.2L34.416 29.2L3.02775 29.2L3.02775 95.2"/>
	<path fill="#2D1B0A" d="M35.4253 96.2L2.0185 96.2L2.0185 28.2L35.4253 28.2L35.4253 96.2M4.03704 94.2L33.4068 94.2L33.4068 30.2L4.03704 30.2L4.03704 94.2"/>
	<path fill="#FAFDFF" d="M8.17507 38.2L15.5427 38.2L15.5427 46.3L8.17507 46.3L8.17507 38.2"/>
	<path fill="#2D1B0A" d="M16.552 47.3L7.1658 47.3L7.1658 37.2L16.552 37.2L16.552 47.3M9.18434 45.3L14.5335 45.3L14.5335 39.2L9.18434 39.2L9.18434 45.3"/>
	<path fill="#FAFDFF" d="M21.9012 38.2L29.2688 38.2L29.2688 46.3L21.9012 46.3L21.9012 38.2"/>
	<path fill="#2D1B0A" d="M30.2781 47.3L20.8919 47.3L20.8919 37.2L30.2781 37.2L30.2781 47.3M22.9104 45.3L28.2596 45.3L28.2596 39.2L22.9104 39.2L22.9104 45.3"/>
	<path fill="#FAFDFF" d="M8.276 51.2L15.6437 51.2L15.6437 59.3L8.276 59.3L8.276 51.2"/>
	<path fill="#2D1B0A" d="M16.552 60.4L7.1658 60.4L7.1658 50.3L16.552 50.3L16.552 60.4M9.28526 58.4L14.6344 58.4L14.6344 52.3L9.28526 52.3L9.28526 58.4"/>
	<path fill="#FAFDFF" d="M22.0021 51.2L29.3697 51.2L29.3697 59.3L22.0021 59.3L22.0021 51.2"/>
	<path fill="#2D1B0A" d="M30.379 60.4L20.9928 60.4L20.9928 50.3L30.379 50.3L30.379 60.4M23.0113 58.4L28.3605 58.4L28.3605 52.3L23.0113 52.3L23.0113 58.4"/>
	<path fill="#FAFDFF" d="M7.97327 64.4L15.3409 64.4L15.3409 72.5L7.97327 72.5L7.97327 64.4"/>
	<path fill="#2D1B0A" d="M16.3502 73.5L6.964 73.5L6.964 63.4L16.3502 63.4L16.3502 73.5M8.98254 71.5L14.3317 71.5L14.3317 65.4L8.98254 65.4L8.98254 71.5"/>
	<path fill="#FAFDFF" d="M21.9011 64.4L29.2688 64.4L29.2688 72.5L21.9011 72.5L21.9011 64.4"/>
	<path fill="#2D1B0A" d="M30.1771 73.5L20.7909 73.5L20.7909 63.4L30.1771 63.4L30.1771 73.5M22.9104 71.5L28.2595 71.5L28.2595 65.4L22.9104 65.4L22.9104 71.5"/>
	<path fill="#FAFDFF" d="M41.6828 61.7L46.5272 61.7L46.5272 73.1L41.6828 73.1L41.6828 61.7"/>
	<path fill="#2D1B0A" d="M47.5365 74.2L40.6735 74.2L40.6735 60.8L47.5365 60.8L47.5365 74.2M42.692 72.2L45.518 72.2L45.518 62.8L42.692 62.8L42.692 72.2"/>
	<path fill="#FAFDFF" d="M50.9681 61.7L55.8125 61.7L55.8125 73.1L50.9681 73.1L50.9681 61.7"/>
	<path fill="#2D1B0A" d="M56.8218 74.2L49.9588 74.2L49.9588 60.8L56.8218 60.8L56.8218 74.2M51.9773 72.2L54.8033 72.2L54.8033 62.8L51.9773 62.8L51.9773 72.2"/>
	<path fill="#FAFDFF" d="M60.4552 61.7L65.2997 61.7L65.2997 73.1L60.4552 73.1L60.4552 61.7"/>
	<path fill="#2D1B0A" d="M66.208 74.2L59.345 74.2L59.345 60.8L66.208 60.8L66.208 74.2M61.4645 72.2L64.2904 72.2L64.2904 62.8L61.4645 62.8L61.4645 72.2"/>
	<path fill="#FAFDFF" d="M69.4377 61.7L74.2822 61.7L74.2822 73.1L69.4377 73.1L69.4377 61.7"/>
	<path fill="#2D1B0A" d="M75.1905 74.2L68.3275 74.2L68.3275 60.8L75.1905 60.8L75.1905 74.2M70.447 72.2L73.2729 72.2L73.2729 62.8L70.447 62.8L70.447 72.2"/>
	<path fill="#89C5E5" d="M74.6869 14.2999C74.6869 16.4999 72.9701 18.3999 70.7497 18.3999C68.5293 18.3999 67.0154 16.5999 66.7835 14.2999C66.309 8.59998 72.3646 10.5 68.5293 3.39998C67.5201 1.49998 74.7868 8.29998 74.6869 14.2999"/>
	<path fill="#2D1B0A" d="M70.7408 19.4C68.1167 19.4 66.0982 17.3 65.7731 14.4C65.5935 11.5 66.8046 10.2 67.713 9.19998C68.8232 8.09998 69.4287 7.39998 67.6121 3.89998C67.2083 3.19998 67.4102 2.69998 67.6121 2.39998C67.8139 2.01947 68.3185 1.89998 68.8232 2.01947C70.2362 2.59998 75.5853 8.69998 75.4844 14.2C75.6862 17.1 73.4658 19.4 70.7408 19.4M70.8417 7.09998C70.9426 8.69998 70.1352 9.59998 69.2269 10.6C68.4195 11.5 67.6121 12.3 67.8139 14.3C67.9148 15.9 69.025 17.4 70.7408 17.4C72.3556 17.4 73.5667 16 73.6677 14.3C73.6677 11.8 72.2547 9.09998 70.8417 7.09998"/>
</svg>
