<?xml version="1.0" encoding="utf-8" ?>
<svg xmlns="http://www.w3.org/2000/svg" xmlns:xlink="http://www.w3.org/1999/xlink" width="100" height="120">
	<path fill="white" d="M42.1923 120C40.7893 120 39.3862 120 38.0833 119.8C26.4579 119.4 15.6342 114.005 8.51864 105.012C7.51645 103.813 6.61448 102.415 5.7125 100.916L5.11119 99.7169C1.80395 93.8218 0 86.9276 0 79.9334C0 66.5445 5.91294 54.3547 15.9349 46.0616C16.3358 45.6619 16.8368 45.3622 17.2377 45.0624C25.8566 36.9692 33.373 31.174 39.8873 27.8768C42.0921 26.6778 44.2969 25.6786 46.5018 24.8793C47.9048 23.4804 49.3079 22.781 50.711 22.5812L60.1316 15.1873C60.332 14.9875 60.5325 14.8876 60.8331 14.6878C61.1338 10.4913 59.4301 7.29392 56.7241 5.3955C55.4213 4.39634 55.1206 2.59784 56.0226 1.199C56.6239 0.399667 57.5259 0 58.4279 0C59.0292 0 59.6305 0.199833 60.2318 0.5995C64.441 3.597 67.147 8.69276 67.4476 13.8884L67.5478 15.8868L69.2516 14.4879C70.1535 13.7885 71.256 13.3888 72.3584 13.3888C73.8617 13.3888 75.2647 14.0883 76.1667 15.1873C77.1689 16.3863 77.5698 18.0849 77.1689 19.5837L77.5698 20.6828C77.67 20.7827 77.7702 20.8826 77.8704 20.8826C79.0731 21.1823 79.3737 21.1823 79.7746 21.1823C81.9794 21.1823 84.2845 21.582 85.888 21.9817C89.997 22.8809 94.0057 24.1799 98.0145 25.5787C98.8163 25.8784 99.3174 26.378 99.7182 27.1774C100 27.8768 100.119 28.6761 99.8185 29.4754C99.4176 30.6744 98.215 31.4738 97.0123 31.4738C96.6114 31.4738 96.3108 31.3739 96.0101 31.2739C92.302 29.8751 88.4937 28.776 84.6853 27.8768C83.1821 27.577 81.4783 27.1774 79.8748 27.1774L72.4586 39.8668C72.4586 40.3664 72.4586 40.5662 72.4586 40.766C72.4586 43.0641 71.1557 45.2623 69.1513 46.3614C67.5478 48.8593 66.1448 51.1574 64.5413 53.6553L64.7417 54.9542C79.0731 67.0441 82.7812 87.7269 73.2603 103.114C72.4586 104.413 71.4564 105.812 70.4542 107.011C62.6371 115.504 52.7154 120 42.1923 120M45.5998 85.0291C47.6042 84.7294 49.1075 84.2298 50.5105 83.4305C51.0116 82.9309 51.3123 82.6311 51.613 82.2315C53.8178 78.6345 53.8178 74.7377 52.1141 70.4413L51.5127 68.9425L50.4103 70.0416C47.3035 73.239 43.8961 76.6361 40.2882 80.0333L40.188 81.3322C40.4886 81.8318 40.7893 82.4313 40.7893 83.0308C41.1901 83.6303 41.2904 83.7302 41.3906 83.8301L42.6934 84.1299L43.7959 85.0291L44.9985 84.4296"/>
	<path fill="#FF7136" d="M35.1568 73.7007C34.9563 79.7956 36.7604 84.5916 40.5689 86.7898C43.9767 88.6882 48.2864 88.0887 52.5959 85.5908C53.5982 84.7914 54.4 83.7923 55.1017 82.6932C59.8121 75.0995 55.0013 63.1095 44.2773 53.0179C39.5667 59.4126 36.4597 66.6066 35.1568 73.7007M38.2638 115.566C27.9407 115.266 18.0184 110.67 11.203 102.077C-1.62577 85.9904 1.48121 61.8106 18.0184 48.122C29.2435 38.9296 43.6759 36.8314 55.9035 41.4276C55.2018 41.9271 54.5002 42.5266 53.7986 43.0262C51.3932 45.0246 49.1883 47.1228 47.284 49.321C50.9923 50.2202 54.7007 51.719 58.1083 53.9172C74.1444 64.1087 79.4563 84.8913 69.8347 100.478C63.1196 111.569 50.6917 116.965 38.2638 115.566"/>
	<path fill="#2D1B0A" d="M42.1947 116.803C40.8918 116.803 39.5889 116.703 38.1857 116.603C27.2612 116.203 17.1385 111.207 10.4234 102.714C-2.7061 86.2282 0.40087 61.4488 17.3389 47.3606C28.3637 38.2682 43.2972 35.5704 56.2262 40.4663L57.9301 41.0658L56.4267 42.1649C55.8253 42.5646 55.1238 43.1641 54.4222 43.7636C52.5179 45.3622 50.7139 47.0608 49.1102 48.7594C52.4177 49.7586 55.6249 51.1574 58.6316 53.0558C75.1688 63.4472 80.5809 85.0292 70.6586 101.016C64.6451 111.007 54.0213 116.803 42.1947 116.803M42.9965 40.0667C34.3772 40.0667 25.7578 43.0641 18.7421 48.8593C2.60582 62.1483 -0.3007 85.7286 12.1272 101.415C18.4414 109.409 28.063 114.205 38.3862 114.505C51.0145 115.903 62.7409 110.308 69.1553 100.017C78.4762 84.9293 73.3647 64.6462 57.7296 54.8543C54.4222 52.7561 50.9143 51.2573 47.206 50.3581L45.6024 49.9584L46.7048 48.6595C48.7093 46.3614 50.9143 44.2632 53.4199 42.1649C53.6204 41.9651 53.8208 41.7652 54.0213 41.6653C50.313 40.6661 46.7048 40.0667 42.9965 40.0667M45.1012 88.9259C43.2972 88.9259 41.5934 88.5263 40.1902 87.7269C36.1812 85.4289 33.9763 80.3331 34.2769 73.7386C35.6801 66.3448 38.9604 59.0508 43.6981 52.5562L45.2015 52.4563C56.5269 63.1474 60.9368 75.637 56.126 83.4305C55.4244 84.5296 54.5224 85.6287 53.4199 86.5279C50.313 88.1266 47.6069 88.9259 45.1012 88.9259M36.1812 73.8385C35.9808 79.6337 37.7848 84.03 41.0922 85.9284C43.9988 87.5271 47.9075 87.1274 52.117 84.8293C53.019 84.03 53.8208 83.2307 54.322 82.2315C58.5314 75.4372 54.6226 64.4463 44.4999 54.5546C40.2904 60.5496 37.3839 67.1441 36.1812 73.8385"/>
	<path fill="#F25620" d="M35.2792 79.4339C34.7781 79.4339 34.1768 79.234 33.8761 78.8344C33.5754 78.5346 33.375 78.135 33.375 77.6354C32.7736 69.0425 30.7691 62.9476 27.5619 59.4505C24.5551 56.1533 20.4459 54.8544 15.134 55.6537C14.6329 55.7536 14.1317 55.5538 13.7308 55.254C13.3299 54.9543 13.0293 54.4547 12.9035 53.9551C12.9035 53.3556 13.0293 52.7561 13.4302 52.3564C24.1542 41.5654 33.4752 33.9718 41.1925 29.9751C44.5607 28.1766 47.8074 26.8777 50.9143 25.8785L61.8389 16.9859C62.2398 16.6862 62.7409 16.4863 63.242 16.5862C63.7431 16.5862 64.2443 16.886 64.5449 17.2857C65.0461 17.8852 65.1463 18.6845 64.7454 19.3839L63.1418 22.4813L70.7589 16.2865C71.5607 15.5871 72.8636 15.687 73.465 16.5862C73.9661 17.1857 74.0663 17.9851 73.6654 18.6845L70.358 24.9792L73.0641 22.7811C73.465 22.4813 73.9661 22.2815 74.4672 22.3814C74.9683 22.3814 75.4695 22.6812 75.7701 23.0808C76.218 23.6803 76.3715 24.5796 75.9706 25.279L66.7499 42.5646C65.2465 45.662 63.1418 49.1591 60.3355 53.1558C54.9233 60.8494 46.9053 69.5421 36.2815 79.234C36.1813 79.234 35.6801 79.4339 35.2792 79.4339"/>
	<path fill="#2D1B0A" d="M35.2792 80.433C34.4774 80.433 33.6756 80.0333 33.0743 79.4338C32.6734 78.9343 32.3727 78.3348 32.2725 77.7353C31.6711 69.3423 29.7669 63.4472 26.7601 60.1499C23.9538 57.0525 20.1452 55.9534 15.2342 56.6528C14.4324 56.7527 13.6306 56.5529 13.0293 56.0533C12.4279 55.6537 12.027 54.9542 11.9078 54.1549C11.9078 53.2557 12.1272 52.3564 12.7286 51.657C23.5529 40.7661 32.9741 33.1724 40.7916 29.0758C44.1993 27.2773 47.4065 25.9784 50.5134 24.9792L61.3377 16.1866C61.9391 15.687 62.7409 15.4871 63.4425 15.4871C64.2443 15.5871 64.9458 15.9867 65.447 16.5862C65.9481 17.2856 66.2488 18.085 66.0483 18.8843L70.2578 15.3872C70.8591 14.8876 71.6609 14.6878 72.4627 14.6878C73.2645 14.7877 73.9661 15.1874 74.4672 15.7869C75.1688 16.6861 75.3693 17.9851 74.8681 18.9842L73.6654 21.3822C74.0663 21.2823 74.4672 21.1824 74.9684 21.1824C75.7702 21.2823 76.4717 21.5821 76.9729 22.2815C77.7747 23.1807 77.8749 24.4796 77.2735 25.5787L68.0528 42.8643C66.5494 45.9617 64.3445 49.5587 61.5382 53.5554C56.126 61.249 48.0078 70.0417 37.384 79.7336C36.6824 80.1333 35.9808 80.433 35.2792 80.433M17.8401 54.4547C22.0495 54.4547 25.4572 55.8535 28.1633 58.851C31.5709 62.5479 33.5754 68.8427 34.277 77.6353C34.277 77.8352 34.3772 78.035 34.5777 78.2348C34.7781 78.4347 34.9786 78.5346 35.2792 78.5346C35.4797 78.5346 35.7804 78.4347 35.9808 78.2348C46.5044 68.6428 54.5224 59.9501 59.8344 52.3564C62.5404 48.4597 64.7454 44.9626 66.1485 41.9651L75.4695 24.6795C75.6699 24.2798 75.5697 23.8801 75.3693 23.5804C75.1688 23.3806 74.9684 23.2806 74.6677 23.2806C74.367 23.2806 74.1666 23.3806 73.9661 23.4805L67.5517 28.876L73.0641 18.1849C73.2645 17.8851 73.1643 17.4855 72.9638 17.1857C72.7634 16.9859 72.5629 16.886 72.3625 16.886C72.0618 16.886 71.8614 16.886 71.6609 17.0858L60.2353 26.2781L64.0438 18.9842C64.2443 18.6845 64.144 18.2848 63.9436 17.9851C63.7431 17.7852 63.5427 17.6853 63.3422 17.6853C63.0416 17.6853 62.8411 17.6853 62.6407 17.8851L51.5157 26.8776C48.3085 27.8768 45.1013 29.2756 41.7939 30.9742C34.1768 34.9709 24.956 42.4647 14.232 53.1557C14.0315 53.3556 13.9313 53.6553 13.9313 53.9551C13.9313 54.2548 14.1317 54.4547 14.3322 54.5546C14.5326 54.7544 14.8333 54.7544 15.0338 54.7544C15.9358 54.4547 16.938 54.4547 17.8401 54.4547"/>
	<path fill="#2D1B0A" d="M55.9256 28.3764C55.9256 30.8044 53.9512 32.7727 51.5157 32.7727C49.0802 32.7727 47.1058 30.8044 47.1058 28.3764C47.1058 25.9484 49.0802 23.9801 51.5157 23.9801C53.9512 23.9801 55.9256 25.9484 55.9256 28.3764"/>
	<path fill="#2D1B0A" d="M70.1575 40.0666C70.1575 42.4946 68.1831 44.4629 65.7476 44.4629C63.3121 44.4629 61.3377 42.4946 61.3377 40.0666C61.3377 37.6386 63.3121 35.6703 65.7476 35.6703C68.1831 35.6703 70.1575 37.6386 70.1575 40.0666"/>
	<path fill="#FF7136" d="M3.50775 81.4322C3.50775 81.4322 16.7374 74.0383 28.4637 78.1349C40.1902 82.2315 37.0832 83.7302 37.0832 83.7302"/>
	<path fill="#2D1B0A" d="M37.7848 85.0292L36.4819 82.3314C36.3816 82.3314 36.1812 82.5312 35.9807 82.831C35.8805 83.1307 35.9807 83.3306 35.9807 83.4305C35.8805 83.3306 34.9785 82.0317 27.8625 79.5337C16.8378 75.7369 4.30963 82.6311 4.10918 82.7311L2.6058 80.1332C3.20715 79.8335 16.5371 72.4396 28.7645 76.7361C37.4841 79.7336 38.6868 81.5321 38.787 83.0308C39.0877 83.9301 38.3861 84.7294 37.7848 85.0292"/>
	<path fill="#FF7136" d="M9.3209 100.316C9.3209 100.316 21.1475 84.9292 40.5911 86.8276"/>
	<path fill="#2D1B0A" d="M10.5236 101.216L8.1182 99.4171C8.61933 98.7177 20.7466 83.4304 40.7916 85.3288L40.4909 88.3263C22.0495 86.5278 10.6238 101.116 10.5236 101.216"/>
	<path fill="#FF7136" d="M35.8806 115.504C35.8806 115.504 32.5732 94.7214 45.2016 87.7272"/>
	<path fill="#2D1B0A" d="M34.3773 115.804C34.277 114.905 31.0698 93.922 44.3998 86.5282L45.9031 89.126C34.3773 95.5207 37.384 115.104 37.384 115.304L34.3773 115.804"/>
	<path fill="#FF7136" d="M68.9548 102.814C68.9548 102.814 52.0168 98.318 54.9233 84.1298"/>
	<path fill="#2D1B0A" d="M68.5539 104.213C62.2398 102.515 50.9143 96.1199 53.42 83.7302L56.3265 84.3297C53.7206 97.0191 68.6542 101.116 69.2555 101.316L68.5539 104.213"/>
	<path fill="#FF7136" d="M69.7567 67.4438C69.7567 67.4438 66.8501 72.8393 56.7274 72.8393"/>
	<path fill="#2D1B0A" d="M56.7274 74.2381L56.7274 71.2406C65.6474 71.2406 68.2533 66.8443 68.4537 66.6445L71.0596 68.0433C70.9594 68.343 67.6519 74.2381 56.7274 74.2381"/>
	<path fill="#2D1B0A" d="M67.9526 31.0741C67.6519 31.0741 67.3512 30.9742 67.251 30.7744C66.8501 30.3747 66.9958 29.7752 67.3512 29.3756L70.358 26.6778C71.6609 25.4788 73.2645 24.08 75.0686 23.3806C78.2758 22.0816 81.8839 22.5829 85.1913 23.3806C89.2003 24.2798 93.2093 25.4788 97.0179 26.8776C97.519 27.0775 97.8197 27.677 97.6192 28.1766C97.4188 28.6761 96.8174 28.9759 96.3163 28.7761C92.5077 27.3772 88.6992 26.1782 84.6902 25.279C81.6834 24.5796 78.4762 24.08 75.7701 25.1791C74.1665 25.8785 72.8636 26.9776 71.5607 28.1766L68.5539 30.8743C68.4537 30.9742 68.2533 31.0741 67.9526 31.0741"/>
	<path fill="#2D1B0A" d="M60.8366 26.5779C60.7363 26.5779 60.5359 26.5779 60.4357 26.478C59.9345 26.2781 59.7341 25.6786 59.9345 25.179C61.6384 21.482 63.3422 17.5854 63.242 13.5886C63.1417 9.59198 61.037 5.59531 57.7296 3.19731C57.3543 2.89756 57.2285 2.29806 57.5291 1.79847C57.8298 1.42435 58.4312 1.29889 58.9323 1.59864C62.7408 4.29639 65.1462 8.89256 65.2507 13.4887C65.3467 17.985 63.6429 22.1814 61.7386 25.9784C61.5381 26.378 61.1372 26.5779 60.8366 26.5779"/>
</svg>
