<?xml version="1.0" encoding="utf-8" ?>
<svg xmlns="http://www.w3.org/2000/svg" xmlns:xlink="http://www.w3.org/1999/xlink" width="92" height="114">
	<path fill="white" d="M53.1647 114C51.253 114 49.3412 113.697 47.5301 112.991C43.5054 111.478 40.2856 108.451 38.7763 104.819C36.2609 98.6655 38.072 91.9062 39.6819 85.954C41.1912 80.5062 42.4992 74.2513 39.8831 69.308C39.7825 69.0053 39.5813 68.8035 39.4807 68.6018L38.072 68.4C37.7702 68.6018 37.4683 69.0053 37.1665 69.308C34.651 72.4354 34.0473 76.8743 33.6448 80.8088C33.1417 85.2478 32.8399 90.9982 34.5504 95.8407C34.9529 96.9504 34.7516 98.1611 34.0473 99.1699C33.343 100.179 32.2362 100.683 31.0288 100.683C30.1232 100.683 29.3183 100.381 28.7146 99.7752C25.2935 96.9504 22.8787 93.1168 21.6713 88.9805C20.5645 84.8442 20.4639 80.3044 21.5707 74.6549L22.0738 72.2336L20.0614 73.646C18.0491 75.0584 16.0367 76.5717 15.1311 78.7912C13.7225 82.423 15.8355 86.5593 17.7472 89.7876C20.3633 94.1257 22.9793 98.3628 22.3756 103.104C22.275 103.508 22.275 103.912 22.1744 104.315C21.7719 105.929 20.2627 107.14 18.6528 107.14C17.2441 107.14 15.9361 106.333 15.3324 105.021C14.3262 102.802 11.6095 98.5646 9.2953 94.731C6.88047 90.9982 4.86812 87.7699 4.06317 85.954C0.742783 78.1858 2.55391 68.5009 8.49036 62.246L8.49036 60.9345C6.67924 58.715 5.67306 55.6885 5.77368 52.5611C5.77368 48.6265 7.28295 44.9947 8.6916 41.8673C9.69777 39.6478 10.6033 37.6301 10.2009 35.915C9.79839 34.5027 8.18851 33.292 6.478 33.292C6.17615 33.292 5.97491 33.292 5.77368 33.3929C5.57244 33.4938 5.27059 33.4938 5.06935 33.5947C4.56626 33.7965 4.16379 33.8973 3.6607 33.8973C2.35267 33.8973 1.14525 33.1912 0.44093 31.9805C-0.162778 30.7699 -0.162778 29.3575 0.541547 28.2478C1.34649 27.0372 2.25205 26.0283 3.35885 25.2212C4.86812 24.2124 6.57862 23.6071 8.38974 23.6071C10.3015 23.6071 12.3138 24.2124 14.125 25.423C17.2441 27.4407 19.3571 31.2743 19.5583 35.2088C19.6589 37.1257 19.2565 38.9416 18.9546 40.6566C18.6528 42.1699 18.4515 43.3805 18.4515 44.4903C18.3509 46.9115 19.3571 49.7363 21.3694 50.3416C21.6713 50.4425 21.9732 50.4425 22.275 50.4425C23.6837 50.4425 25.3942 49.5345 27.0041 47.9204C27.809 47.1133 28.2115 46.6088 28.3121 46.1044C28.4127 45.7009 28.3121 45.0956 28.1108 44.2885C27.5071 41.6655 26.6016 39.1434 25.7966 36.6212C24.7905 33.5947 23.6837 30.4673 22.9793 27.3398C21.8725 22.1947 21.2688 14.931 25.0923 8.97876C30.3244 0.907965 40.5875 0 44.8134 0C45.6184 0 46.4233 0 47.2282 0C53.6678 0.60531 58.6987 2.62301 62.0191 6.0531C65.4401 9.58407 67.3518 14.931 67.2512 20.7823C67.1506 25.9274 65.6413 30.9717 64.132 35.6124C63.3271 38.1345 61.516 43.4814 64.0314 46.3062C64.8364 47.2142 66.1444 47.7186 67.6537 47.7186C69.666 47.7186 71.6784 46.8106 72.9864 45.3982C75.0994 42.977 76.005 39.2442 75.6025 34.4018L75.5019 33.3929C75.2 30.0637 74.7975 25.6248 77.7155 22.6991C79.0235 21.3876 80.9352 20.5805 83.0482 20.5805C83.5513 20.5805 84.155 20.6814 84.7587 20.7823C85.9661 20.9841 86.9723 21.7912 87.4754 23.0018C87.9785 24.2124 87.7773 25.5239 87.0729 26.5327C85.7649 28.3487 84.96 30.2655 84.8593 30.9717C84.96 32.8885 85.7649 34.6035 86.4692 36.5204C86.9723 37.731 87.4754 38.8407 87.7773 40.1522C89.689 46.7097 87.576 54.2761 82.4445 59.0177L82.5451 60.531C86.1674 63.0531 88.884 66.0796 90.4939 69.5097C92.9088 74.7558 92.4057 80.8088 89.0853 85.3487C86.1674 89.485 78.621 92.108 77.313 92.108L75.3006 92.108L74.4957 90.1912L73.6907 88.2743L75.2 86.8619C77.2124 84.8442 79.2247 82.8265 79.3253 80.5062C79.3253 78.4885 77.8161 76.3699 74.5963 74.0496C70.0685 70.8212 65.1382 68.2991 60.0067 66.3823L58.5981 65.8779L58.5981 67.3912C58.6987 74.1504 57.1894 80.9097 54.3721 87.0637C54.0703 87.7699 53.6678 88.4761 53.2653 89.2832C51.3536 93.2177 49.3412 97.354 50.448 101.087C51.1523 103.104 52.6616 104.92 55.3783 106.635C56.6863 107.543 57.3907 109.158 56.8876 110.671C56.4851 112.184 55.0764 113.294 53.4666 113.294"/>
	<path fill="#FF94AE" d="M38.6658 65.3734C38.9677 65.3734 39.2695 65.3734 39.672 65.4743C40.7788 65.777 41.6843 66.6849 42.4893 68.0973C45.6085 73.9487 44.1997 80.9097 42.5899 86.8619C41.0807 92.6124 39.4707 98.6655 41.5836 103.811C42.7911 106.736 45.3065 109.057 48.6269 110.267C50.2369 110.873 51.8468 111.093 53.4566 111.093C54.0604 111.093 54.3622 110.267 53.7584 109.864C50.9412 108.048 48.6269 105.828 47.6208 102.701C46 97.7575 48.4258 92.915 50.5387 88.577C50.9412 87.8708 51.243 87.1646 51.5448 86.4584C54.7647 79.5982 56.0727 71.931 55.2677 64.4655C55.2677 64.0619 55.3684 63.5575 55.7709 63.2549C56.1733 62.9522 56.5758 62.8513 56.9783 62.9522C63.8203 64.9699 70.2598 68.1982 76.1963 72.3345C77.7056 73.4442 82.334 76.6726 82.2334 81.3133C82.2334 84.9451 79.5166 87.4672 77.2025 89.7876C76.9006 90.0903 84.1451 87.669 86.5599 84.2389C88.9748 80.8088 89.6791 75.8655 87.6666 71.4265C85.453 66.5841 81.0258 63.4566 77.6049 61.7416C77.2025 61.5398 76.9006 61.0354 76.9006 60.531C76.9006 60.0265 77.2025 59.5221 77.6049 59.3203C83.642 55.9911 86.7612 48.1221 84.8493 41.4637C84.5476 40.354 84.0444 39.3451 83.642 38.1345C82.8371 36.1168 81.9314 34.0991 81.8308 31.7788C81.7302 29.8619 83.5414 26.8354 84.5476 25.3221C84.8493 24.9186 84.6481 24.3133 84.1451 24.3133C82.5351 24.0106 80.9252 24.3133 79.8185 25.423C78.0073 27.3398 78.2085 30.5681 78.5105 33.6956L78.6111 34.7044C79.0135 40.354 77.9068 44.8938 75.19 47.9203C73.379 50.0389 70.4611 51.2495 67.6438 51.2495C65.3296 51.2495 63.2165 50.3416 61.8078 48.8283C58.1856 44.692 60.2986 38.2354 61.3048 35.2088C62.814 30.7699 64.2227 26.0283 64.3233 21.2867C64.424 16.2425 62.814 11.6018 59.9967 8.6761C57.1795 5.75043 52.8529 4.03539 47.1176 3.549C40.3763 3.12742 31.8238 4.84247 27.6985 11.0973C24.378 16.1416 24.9818 22.5982 25.988 27.138C26.6923 30.0637 27.5979 32.9894 28.604 35.8141C29.5096 38.4372 30.4151 41.1611 31.1194 43.9858C31.3207 44.9947 31.5219 46.0035 31.3207 47.1133C31.0189 48.5257 30.1133 49.6354 29.2077 50.4425C26.2898 53.2672 23.2712 54.377 20.6552 53.5699C16.9324 52.4602 15.423 48.223 15.6243 44.692C15.7248 43.2796 15.9261 41.8672 16.2279 40.4549C16.5299 38.7398 16.8316 37.2265 16.7311 35.6124C16.6304 32.5858 15.0205 29.7611 12.7064 28.2478C10.0903 26.5327 7.47423 26.4318 5.26063 27.9451C4.45569 28.5504 3.75137 29.2566 3.15805 30.0637C2.94642 30.5681 3.44951 31.1734 4.05322 30.9717C4.45569 30.7699 4.85816 30.669 5.36125 30.5681C8.78226 29.8619 12.4045 31.9805 13.3101 35.3097C14.115 38.1345 12.807 40.7575 11.7002 43.1788C10.2915 46.1044 8.9835 49.4336 8.9835 52.7628C8.9835 56.1929 10.3921 59.2195 12.7064 60.6318C13.1088 60.8336 13.3101 61.2372 13.3101 61.7416C13.3101 62.1451 13.1088 62.6495 12.807 62.8513C6.36743 67.7947 3.75137 77.4796 7.07176 84.9451C8.58102 88.2743 16.2279 99.3717 18.341 103.911C18.5422 104.517 19.4478 104.416 19.5484 103.811C19.649 103.508 19.649 103.205 19.7497 103.004C20.1521 99.2708 18.0392 95.6389 15.9261 92.2088C13.2094 87.7699 10.7946 82.7257 12.7064 77.8832C14.0144 74.554 16.8316 72.6372 19.649 70.7203C21.3595 69.5097 23.07 68.4 24.378 66.9876C24.7806 66.4832 25.4848 66.3823 25.988 66.6849C26.5917 66.9876 26.7929 67.5929 26.6923 68.1982C25.0823 74.554 23.1707 81.7168 25.0823 88.3752C26.0886 91.9062 28.3022 95.2354 31.1194 97.6566C31.6226 98.0602 32.3269 97.5557 32.1256 96.9504C30.3145 91.7044 30.5158 85.6513 31.1194 80.6071C31.5219 76.269 32.3269 71.3257 35.3454 67.492C35.8484 66.2814 37.2571 65.3734 38.6658 65.3734"/>
	<path fill="#2D1B0A" d="M53.1418 112.386C51.5319 112.386 49.8214 111.982 48.2115 111.377C44.6899 110.065 41.9732 107.44 40.6652 104.311C38.4516 98.86 40.0615 92.7027 41.6713 86.7473C43.2812 80.8929 44.6899 74.13 41.6713 68.6793C41.0676 67.468 40.3633 66.7614 39.4577 66.5595C38.2503 66.1558 36.7411 66.8624 35.5336 68.4774C32.7163 72.1112 32.012 76.8553 31.6095 81.0948C31.1065 85.7379 30.8046 91.7943 32.6157 97.0431C32.817 97.7497 32.6157 98.4563 32.012 98.9609C31.4083 99.3647 30.6034 99.3647 29.9997 98.86C26.8805 96.2356 24.6669 92.8037 23.6607 89.0689C21.749 82.1041 23.6607 74.8365 25.2706 68.3765C25.3712 68.1746 25.2706 67.9727 25.0694 67.9727C24.9688 67.8718 24.7675 67.9727 24.6669 68.0736C23.3589 69.5877 21.6484 70.799 19.8373 72.0103C17.2212 73.8272 14.5045 75.6441 13.2971 78.7732C11.5866 83.2145 13.9008 87.9586 16.1144 91.5924C18.7305 95.8318 20.9441 99.5666 20.5416 103.705C20.5416 104.008 20.441 104.311 20.3403 104.715C20.1391 105.421 19.636 105.926 18.9317 106.027C18.2274 106.128 17.523 105.724 17.3218 105.018C16.215 102.696 13.4983 98.3553 11.0835 94.5196C8.86991 90.9868 6.75693 87.6558 6.05261 86.0408C2.6316 78.1675 5.34828 67.9727 12.0897 62.7239C12.1903 62.6229 12.1903 62.522 12.1903 62.4211C12.1903 62.3201 12.0897 62.2192 11.9891 62.1182C9.373 60.4023 7.76311 57.0713 7.86373 53.3366C7.86373 49.8037 9.27238 46.3718 10.5804 43.4445C11.6872 40.9211 12.794 38.5995 12.0897 36.1769C11.3854 33.3506 8.2662 31.5337 5.34828 32.2403C4.94581 32.3413 4.64396 32.4422 4.24148 32.5431C3.53716 32.8459 2.83283 32.6441 2.32975 32.1394C1.82666 31.6347 1.82666 30.8272 2.22913 30.2215C2.83283 29.2121 3.63778 28.4046 4.54334 27.799C7.05879 26.083 10.1779 26.184 13.0959 28.1018C15.7119 29.8178 17.4224 32.9469 17.6237 36.2779C17.7243 37.9938 17.4224 39.6089 17.1206 41.2239C16.9193 42.4351 16.6175 43.9492 16.5169 45.3624C16.4162 48.4915 17.6237 52.3272 20.8434 53.2356C23.1576 53.9422 25.8743 52.9328 28.4904 50.3084C29.1947 49.6018 30.1003 48.6934 30.3015 47.4821C30.5028 46.5736 30.3015 45.6652 30.1003 44.7567C29.4966 42.1323 28.591 39.5079 27.6855 36.9844C26.6793 33.9563 25.6731 30.9281 24.9688 27.8999C23.862 23.1558 23.3589 16.3929 26.7799 11.1441C31.1065 4.48211 40.1621 2.66521 47.1047 3.0906C53.0412 3.57366 57.6696 5.39056 60.6881 8.51967C63.7067 11.6488 65.4172 16.4938 65.3165 21.8436C65.2159 26.7896 63.7067 31.5337 62.298 36.076C61.2918 39.0032 59.3801 45.0596 62.5999 48.6934C63.8073 50.1065 65.6184 50.8131 67.7314 50.8131C70.2468 50.8131 72.8629 49.6018 74.5734 47.7849C77.0888 44.9586 78.1956 40.6182 77.6925 35.2685L77.5919 34.2591C77.2901 30.9281 76.9882 27.3952 79.2018 25.1746C80.4092 23.9633 82.321 23.4586 84.4339 23.7614C85.0376 23.8624 85.4401 24.2661 85.6414 24.7708C85.8426 25.2755 85.8426 25.8812 85.4401 26.3859C84.1321 28.3037 82.8241 30.9281 82.9247 32.1394C83.1259 34.2591 83.9308 36.2779 84.7358 38.1957C85.2389 39.306 85.6414 40.4164 86.0438 41.6276C88.1568 48.6934 84.7358 57.0713 78.2962 60.6042C78.1956 60.7051 78.095 60.806 78.095 60.907C78.095 61.0079 78.1956 61.1088 78.2962 61.2098C81.7173 63.0267 86.4463 66.3577 88.7605 71.4046C90.8735 75.9469 90.3704 81.2966 87.5531 85.2333C85.1383 88.5642 78.1956 91.3905 77.2901 91.1886L76.2839 89.8764C79.1012 87.1511 81.4154 84.8295 81.516 81.7004C81.516 77.5619 77.2901 74.5337 75.8814 73.5243C70.1462 69.3858 63.8073 66.3577 56.9653 64.238C56.8646 64.238 56.764 64.238 56.6634 64.3389C56.5628 64.4398 56.5628 64.5408 56.5628 64.6417C57.3677 72.414 56.0597 80.1863 52.7393 87.252C52.4374 87.9586 52.035 88.6652 51.7331 89.3717C49.7208 93.5102 47.4066 98.2544 48.8152 102.696C49.6201 105.22 51.4313 107.339 54.5504 109.358C55.1541 109.762 55.456 110.468 55.2548 111.175C55.0535 111.882 54.4498 112.386 53.7455 112.386C53.2424 112.386 53.2424 112.386 53.1418 112.386M38.7534 64.3389C39.1559 64.3389 39.659 64.4398 39.9608 64.5408C41.2689 64.9445 42.4763 65.9539 43.3818 67.6699C46.7022 73.8272 45.193 80.9938 43.5831 87.1511C42.0738 92.8037 40.5645 98.6581 42.4763 103.504C43.5831 106.128 45.8973 108.349 48.9158 109.459C49.922 109.863 51.0288 110.065 52.1356 110.166C49.3183 108.046 47.5072 105.825 46.7022 103.201C44.9917 97.9516 47.5072 92.8037 49.7208 88.3624C50.1232 87.6558 50.4251 86.9492 50.7269 86.2426C53.8461 79.5807 55.0535 72.1112 54.3492 64.7426C54.2486 63.9351 54.5504 63.1276 55.2548 62.6229C55.8585 62.1182 56.6634 61.9164 57.3677 62.2192C64.411 64.3389 70.9511 67.5689 76.8876 71.7074C78.4975 72.9187 83.4278 76.3506 83.3271 81.4985C83.3271 83.8201 82.321 85.7379 81.0129 87.4539C82.8241 86.5455 84.8364 85.2333 85.8426 83.921C88.2574 80.5901 88.6599 75.9469 86.8488 72.1112C84.7358 67.5689 80.5098 64.5408 77.2901 62.8248C76.4851 62.4211 76.0827 61.6135 76.0827 60.7051C76.0827 59.7966 76.5857 58.9891 77.2901 58.5854C82.9247 55.4563 85.8426 48.0877 84.0315 41.9305C83.7296 40.8201 83.3271 39.8107 82.8241 38.7004C81.9185 36.5807 81.1135 34.461 80.9123 32.0384C80.7111 29.9187 82.6228 26.7896 83.5284 25.3765C82.321 25.2755 81.3148 25.5783 80.6105 26.2849C79.1012 27.799 79.3024 30.8272 79.6043 33.7544L79.7049 34.7638C80.208 40.6182 78.9 45.4633 76.0827 48.6934C74.0703 51.015 70.8505 52.4281 67.7314 52.4281C65.1153 52.4281 62.7005 51.4187 61.0906 49.6018C57.0659 45.0596 59.2795 38.1957 60.3863 34.9657C61.7949 30.6253 63.2036 25.8812 63.3042 21.3389C63.4048 16.4938 61.8955 12.2544 59.2795 9.52906C56.5628 6.80371 52.4374 5.18868 47.0041 4.78493C40.5645 4.28023 32.3139 5.89525 28.4904 11.8506C25.3712 16.5948 25.9749 22.7521 26.8805 27.0924C27.5848 30.0197 28.591 33.0478 29.4966 35.6722C30.5028 38.5995 31.4083 41.2239 32.012 43.9492C32.3139 45.0596 32.5151 46.2708 32.2133 47.4821C31.8108 49.1981 30.704 50.5103 29.7984 51.3178C26.6793 54.4469 23.2583 55.6581 20.2397 54.7497C16.0138 53.5384 14.3033 48.6934 14.5045 44.8577C14.6051 43.2427 14.907 41.7286 15.1082 40.5173C15.4101 38.8013 15.7119 37.3882 15.6113 35.8741C15.5107 33.1488 14.102 30.6253 11.9891 29.3131C10.3792 28.3037 8.06496 27.3952 5.65013 29.0103C5.24766 29.3131 4.94581 29.515 4.64396 29.9187C4.74457 29.9187 4.84519 29.9187 4.94581 29.8178C8.86991 29.0103 13.0959 31.4328 14.102 35.2685C14.907 38.3976 13.5989 41.3248 12.4922 43.7474C11.1841 46.6746 9.87609 49.9046 9.77547 53.0337C9.77547 56.0619 10.9829 58.7873 12.9952 60.0995C13.6996 60.5032 14.102 61.2098 14.102 62.0173C14.102 62.8248 13.8002 63.5314 13.1965 64.0361C7.05879 68.6793 4.64396 77.8647 7.76311 84.9304C8.46744 86.4445 10.4798 89.6746 12.6934 93.2074C14.907 96.7403 17.2212 100.374 18.5292 102.898C18.7305 99.6675 16.7181 96.3365 14.8064 93.1065C11.9891 88.4633 9.47361 83.1135 11.486 77.8647C12.8946 74.2309 16.0138 72.1112 18.8311 70.1934C20.5416 68.9821 22.1515 67.9727 23.3589 66.5595C24.0632 65.752 25.2706 65.5502 26.2768 66.0549C27.283 66.5595 27.6855 67.6699 27.4842 68.7802C25.8743 75.0384 24.0632 82.1041 25.8743 88.4633C26.6793 91.3905 28.2892 94.1159 30.6034 96.3365C29.0941 91.0877 29.4966 85.3342 29.899 80.8929C30.4021 76.4516 31.1065 71.3037 34.3262 67.2661C35.3324 65.3483 37.0429 64.3389 38.7534 64.3389"/>
	<path fill="#202023" d="M34.9529 25.1204C34.9529 26.7346 36.2609 28.1469 37.9714 28.1469C39.5813 28.1469 40.9899 26.8354 40.9899 25.1204C40.9899 23.5062 39.6819 22.0938 37.9714 22.0938C36.3615 22.1947 34.9529 23.5062 34.9529 25.1204"/>
	<path fill="#202023" d="M48.3351 25.1204C48.3351 26.2301 48.9388 27.1381 49.8443 27.7434C50.7499 28.2478 51.8567 28.2478 52.8629 27.7434C53.7684 27.239 54.3721 26.2301 54.3721 25.1204C54.3721 24.0107 53.7684 23.1027 52.8629 22.4974C51.9573 21.993 50.8505 21.993 49.8443 22.4974C48.9388 23.1027 48.3351 24.1116 48.3351 25.1204"/>
	<path fill="white" d="M79.8137 53.2392C80.3261 53.6589 80.1272 54.8762 79.3695 56.0435C78.6118 57.2107 77.5822 57.886 77.0699 57.5517C76.5575 57.2175 76.7855 56.0002 77.5141 54.833C78.2718 53.6657 79.3014 52.9904 79.8137 53.2392"/>
	<path fill="white" d="M53.606 71.2067C54.1829 71.4377 54.2785 72.6675 53.8193 73.982C53.3602 75.2964 52.5202 76.1978 51.9432 75.9953C51.4394 75.7927 51.2707 74.5629 51.7299 73.2484C52.189 71.934 53.029 71.0326 53.606 71.2067"/>
	<path fill="white" d="M51.7477 79.5869C52.2722 79.8004 52.3997 80.8021 52.0324 81.8537C51.665 82.9053 50.9421 83.6085 50.4175 83.4244C49.923 83.2402 49.7655 82.2385 50.1329 81.1869C50.5002 80.1353 51.2232 79.4321 51.7477 79.5869"/>
	<path fill="white" d="M49.5768 86.6596C49.9964 86.8319 50.1133 87.5907 49.8378 88.3793C49.5623 89.168 48.9988 89.688 48.5792 89.5406C48.169 89.3933 48.0427 88.6346 48.3182 87.8459C48.5937 87.0572 49.1572 86.5372 49.5768 86.6596"/>
	<path fill="white" d="M82.8625 48.0247C83.2734 48.2234 83.2966 49.1127 82.9144 50.0394C82.5322 50.9661 81.8893 51.5792 81.4785 51.4089C81.1544 51.2386 81.0444 50.3493 81.4266 49.4226C81.8087 48.4959 82.4517 47.8828 82.8625 48.0247"/>
	<path fill="white" d="M84.155 44.692C84.155 45.6949 83.7947 46.5079 83.3501 46.5079C82.9055 46.5079 82.5452 45.6949 82.5452 44.692C82.5452 43.6891 82.9055 42.8761 83.3501 42.8761C83.7947 42.8761 84.155 43.6891 84.155 44.692"/>
	<path fill="white" d="M14.1527 57.7204C14.9105 58.8878 15.1095 60.1052 14.5972 60.4394C14.0849 60.7736 13.0553 60.0982 12.2975 58.9308C11.5687 57.7634 11.3407 56.546 11.853 56.1263C12.3653 55.8776 13.3949 56.553 14.1527 57.7204"/>
	<path fill="white" d="M12.6157 52.1575C12.6157 53.2161 12.2102 54.0743 11.7101 54.0743C11.21 54.0743 10.8045 53.2161 10.8045 52.1575C10.8045 51.0989 11.21 50.2407 11.7101 50.2407C12.2102 50.2407 12.6157 51.0989 12.6157 52.1575"/>
	<path fill="white" d="M12.7547 44.4817C13.1893 44.584 13.3705 45.4549 13.1594 46.4351C12.9484 47.4153 12.425 48.1337 11.9904 48.0396C11.4975 47.9456 11.3745 47.0747 11.4975 46.0945C11.7966 45.1143 12.32 44.4817 12.7547 44.4817"/>
</svg>
