<?xml version="1.0" encoding="utf-8" ?>
<svg xmlns="http://www.w3.org/2000/svg" xmlns:xlink="http://www.w3.org/1999/xlink" width="74" height="120">
	<path fill="white" d="M39.5804 120C33.7734 120 28.4669 117.58 24.6623 113.244C21.959 110.017 20.6575 106.084 21.058 102.353C21.3583 99.8319 22.4597 97.4118 24.2618 95.1933C26.865 91.9664 30.5695 90.1513 34.274 90.1513C34.3741 90.1513 34.4742 90.1513 34.6745 90.1513C23.0604 77.8487 16.7527 68.6723 15.1508 61.916C14.0495 52.7395 15.5513 46.3866 19.5561 41.8487C23.1605 37.8151 28.0665 36.3025 31.3705 35.1933C36.5768 33.479 38.2788 31.9664 38.7794 31.1597C38.9797 30.8571 39.0798 30.5546 39.1799 30.1513C38.7794 30.1513 38.2788 30.2521 37.8783 30.2521C36.777 30.3529 35.5756 30.4538 34.4742 30.4538C33.9736 30.4538 33.473 30.4538 32.9724 30.3529C32.672 30.3529 32.3717 30.2521 31.9712 30.1513C30.0689 29.5462 27.4657 29.1429 24.6623 29.1429C23.0604 29.1429 21.8589 29.2437 21.3583 29.3445C20.1569 30.0504 18.4548 30.1513 14.7503 30.4538C12.9481 30.6555 9.84435 30.8571 8.74302 31.1597C8.34253 31.2605 8.04217 31.2605 7.64168 31.2605C3.73695 31.2605 2.03488 27.1261 1.33403 25.6134C0.733304 24.1008 0.332818 22.6891 0.132575 22.2857C-0.167789 20.7731 0 19.4622 0.833425 18.3529C1.53428 17.3445 2.73573 16.7395 4.03731 16.6387C8.54277 16.437 16.3522 15.9328 19.5561 15.6303C22.1593 13.1092 25.1629 9.27731 25.8638 8.36975C26.7649 7.05882 28.0665 6.45378 29.368 6.45378L34.0737 6.45378L40.882 0.907563C41.5828 0.302521 42.5841 0 43.5853 0C43.9858 0 44.2861 0 44.6866 0C46.7892 0.605042 47.9906 1.81513 48.9918 2.82353C49.3923 3.22689 49.7928 3.52941 50.1933 3.93277C50.5938 4.23529 50.8941 4.63866 51.0944 4.94118C51.595 5.34454 52.9967 6.35294 53.6975 6.7563C57.8025 9.47899 64.6108 13.916 65.8122 21.5798C66.413 30.2521 64.4105 36 62.1077 39.8319C63.6096 39.3277 65.0113 38.8235 66.1126 38.521L67.2139 38.1176C67.6144 38.0168 68.115 37.916 68.5155 37.916C68.916 37.916 69.2164 37.916 69.6168 38.0168C75.4239 39.6303 74.3225 47.1933 72.7206 57.6807C71.6193 66.8571 61.6071 76.5378 59.6047 78.3529C58.8037 79.0588 57.8025 79.4622 56.7012 79.4622C56.5009 79.4622 56.3007 79.4622 56.1004 79.4622C54.899 79.2605 53.7977 78.6555 53.0968 77.5462C52.1957 76.1345 50.5938 73.8151 48.9918 71.7983C49.1921 72.7059 49.4924 73.6134 50.0932 74.4202C50.1933 74.6218 50.2934 74.6218 50.2934 74.7227C51.0944 75.9328 51.9955 77.2437 52.8966 78.5546C58.5034 86.3193 64.9111 95.1933 60.3055 105.983C60.1053 106.387 60.0052 106.689 59.8049 107.092C56.5009 113.849 49.6927 118.588 42.1836 119.496C41.3826 120 40.4815 120 39.5804 120"/>
	<path fill="#FFD169" d="M39.0826 116.975C34.1771 116.975 29.672 114.958 26.4684 111.227C24.2659 108.706 23.2647 105.58 23.5651 102.756C23.7653 100.84 24.6663 98.9245 26.0679 97.2102C29.672 92.874 35.0781 92.0673 39.2829 95.1934C41.4853 96.8068 43.2874 99.9329 42.1861 102.857C41.8858 103.765 41.2851 104.471 40.4842 104.672C38.6822 105.378 37.3807 103.866 36.5798 102.958C36.1793 102.555 35.6788 101.95 35.3784 101.849C34.8779 101.748 34.2772 102.252 34.077 102.857C33.6765 103.966 34.1771 105.479 35.1782 106.387C36.8801 107.899 39.9837 108.303 41.9859 107.294C44.7891 105.782 46.3909 104.168 46.8915 102.252C47.2919 100.336 46.2908 98.5211 45.59 97.6135C28.4706 80.874 19.2602 68.874 17.4582 61.1093C17.4582 61.1093 17.4582 61.0085 17.4582 61.0085C16.457 53.4455 17.6584 47.7984 21.1624 43.9665C24.2659 40.5379 28.4706 39.227 31.6742 38.2186C36.2795 36.706 39.383 34.9917 40.6844 32.9749C41.7857 31.3614 41.6856 29.8488 41.5855 28.3362C41.5855 28.1346 41.5855 27.9329 41.5855 27.6304C40.7846 26.9245 38.8824 27.1262 36.9803 27.3278C35.5787 27.5295 34.077 27.6304 32.6754 27.5295C32.5753 27.5295 32.4752 27.5295 32.375 27.4287C27.5696 25.8152 20.862 26.2186 19.5605 26.6219C18.9599 27.1262 17.8586 27.227 13.8541 27.5295C11.4514 27.7312 8.6482 27.9329 7.34673 28.3362C7.24661 28.3362 7.1465 28.3362 7.04639 28.3362C5.74491 28.3362 4.64367 27.1262 3.54242 24.5043C2.84163 22.8909 2.4019 21.3783 2.4019 21.2774C2.4019 20.874 2.4019 20.4707 2.6414 20.1682C2.84163 19.8656 3.24208 19.664 3.64253 19.664C7.54695 19.4623 17.6584 18.8572 20.2613 18.5547C23.6652 15.5295 27.6697 10.0841 27.7698 9.98329C27.9701 9.68077 28.3705 9.47909 28.771 9.47909L34.5775 9.47909L42.1861 3.22699C42.4865 2.965 42.8869 2.965 43.2874 2.965C44.5889 3.32783 45.3898 4.13455 46.2908 5.04212C46.6912 5.44548 47.1918 5.84884 47.6924 6.35304C47.7925 6.45388 47.8926 6.55472 47.9927 6.7564C48.2931 7.36144 49.8949 8.36985 51.3966 9.37825C55.301 12.0001 61.2077 15.832 62.2088 22.0841C62.2088 22.0841 62.2088 22.185 62.2088 22.185C63.31 37.0085 55.301 42.7564 54.4 43.3614C54.2998 43.4623 54.1997 43.4623 54.1997 43.5631C54.2998 43.664 54.4 43.8656 54.4 43.9665C54.5001 44.1682 54.7003 44.4707 54.9005 44.874C55.6013 44.7732 57.0029 44.4707 59.9062 43.5631C62.6092 42.7564 65.3123 41.8488 67.0142 41.2438C67.715 40.9413 68.0154 40.9413 68.2156 41.0421C71.3191 41.8488 70.6183 47.4959 69.1166 57.3783C68.1155 65.9497 57.4034 75.832 57.0029 76.3362C56.7026 76.6388 56.4022 76.7396 56.0018 76.6388C55.6013 76.5379 55.301 76.3362 55.1008 76.0337C55.0006 75.9329 50.3954 68.874 47.4921 66.1514C46.9916 66.2522 46.5911 66.5547 46.1907 67.2606C44.8892 69.4791 45.0894 73.7144 47.2919 76.4371C47.2919 76.4371 47.392 76.5379 47.392 76.5379C48.3932 78.0505 49.4944 79.5631 50.5957 81.1766C55.5012 88.0337 61.1075 95.6976 57.2031 104.975C57.103 105.277 56.9028 105.58 56.8027 105.983C53.8994 111.731 48.0928 115.866 41.5855 116.672C40.5843 116.975 39.7834 116.975 39.0826 116.975"/>
	<path fill="#2D1B0A" d="M39.0826 117.984C33.8767 117.984 29.0713 115.866 25.6674 111.933C23.2647 109.21 22.1635 105.782 22.5639 102.656C22.8643 100.538 23.7653 98.4202 25.267 96.6051C29.1714 91.8656 35.1782 90.9581 39.8835 94.3866C42.3864 96.2018 44.4887 99.832 43.1873 103.16C42.7868 104.37 41.8858 105.177 40.8847 105.58C38.4819 106.488 36.78 104.673 35.879 103.664C35.6788 103.463 35.4785 103.16 35.2783 102.958C35.1782 103.059 35.1782 103.16 35.0781 103.261C34.7777 103.967 35.1782 105.076 35.9791 105.681C37.3807 106.891 40.0837 107.294 41.6856 106.387C44.1884 105.076 45.6901 103.563 45.9904 102.05C46.2908 100.538 45.4899 99.0253 44.9893 98.3194C27.7698 81.4791 18.4593 69.3782 16.6572 61.4118C15.556 53.1429 16.8575 47.395 20.4615 43.2606C23.7653 39.6303 28.3705 38.2186 31.3739 37.2102C35.7789 35.7984 38.6822 34.185 39.8835 32.3698C40.7845 31.0589 40.6844 29.748 40.5843 28.3362C40.5843 28.3362 40.5843 28.2354 40.5843 28.2354C39.8835 28.0337 38.1816 28.2354 37.0803 28.3362C35.4785 28.5379 33.9768 28.6387 32.4751 28.5379C32.2749 28.5379 32.0747 28.4371 31.8745 28.4371C27.4695 26.9244 21.2625 27.3278 19.8609 27.6303C19.06 28.2354 17.7585 28.3362 13.754 28.6387C11.7517 28.8404 8.64818 29.0421 7.44682 29.4455C7.2466 29.4455 7.04637 29.5463 6.84614 29.5463C4.54354 29.5463 3.24207 27.1261 2.44116 25.1093C1.84048 23.6976 1.44003 22.3866 1.2398 21.9833C1.2398 21.1765 1.2398 20.3698 1.64025 19.8656C2.04071 19.3614 2.64139 18.9581 3.34218 18.9581C8.24773 18.6555 16.8575 18.2522 19.5605 17.9497C22.5639 15.227 26.168 10.4875 26.6686 9.78159C27.1691 9.17655 27.7698 8.87403 28.4706 8.87403L33.9768 8.87403L41.2851 2.92445C41.7857 2.4237 42.5866 2.4237 43.2874 2.4237C44.8892 2.92445 45.7902 3.83201 46.7913 4.73957C47.1918 5.14293 47.5922 5.5463 48.0928 5.94966C48.3931 6.15134 48.4933 6.35302 48.6935 6.65554C48.9938 7.0589 50.7959 8.26899 51.797 8.87403C55.9016 11.5967 62.0086 15.5295 63.0097 22.2858C63.0097 22.4875 63.0097 22.4875 63.0097 22.5883C64.0108 35.8992 57.7037 42.2522 55.5012 44.0673C56.3021 43.8656 57.5035 43.5631 59.4056 43.0589C61.8083 42.353 64.3112 41.5463 65.913 40.9413L67.0142 40.5379C67.4147 40.4371 67.9152 40.3362 68.3157 40.5379C72.4203 41.6471 71.4192 48.1009 70.0176 57.9833C69.0165 66.6555 58.7048 76.4371 57.5035 77.4455C57.0029 77.9497 56.3021 78.1513 55.7014 78.0505C55.0006 77.9497 54.5001 77.5463 54.0996 77.0421C53.8994 76.7396 49.8948 70.6892 47.1918 67.8656C47.0917 67.9665 47.0917 68.0673 46.9916 68.269C45.8903 70.185 46.0905 73.916 47.9927 76.3362C48.0928 76.4371 48.0928 76.4371 48.0928 76.5379C48.8937 77.8488 49.7947 79.0589 50.7959 80.4707C56.4022 88.2354 62.2088 96.2018 58.004 105.984C57.9039 106.286 57.7037 106.689 57.5035 106.992C54.5001 113.042 48.293 117.379 41.4853 118.286C40.6844 117.883 39.8835 117.984 39.0826 117.984M33.7766 94.185C31.2738 94.185 28.7709 95.395 26.7687 97.7144C25.4672 99.227 24.6663 101.042 24.4661 102.757C24.1657 105.379 25.0668 108.202 27.069 110.521C30.0724 113.95 34.2772 115.866 38.9825 115.866C39.6833 115.866 40.4842 115.866 41.185 115.765C47.392 114.958 52.8982 111.026 55.7014 105.58C55.8015 105.278 56.0018 104.975 56.1019 104.673C59.8061 96.0001 54.3999 88.5379 49.5945 81.8824C48.0928 79.7648 47.1918 78.5547 46.3909 77.2438C46.3909 77.2438 46.3909 77.2438 46.2908 77.1429C43.7879 74.0169 43.7879 69.3782 45.1895 66.8572C45.6901 65.8488 46.3909 65.3446 47.1918 65.2438C50.896 68.1681 55.2009 74.8236 55.7014 75.5295C55.7014 75.6303 55.8015 75.6303 55.9016 75.6303C56.0018 75.6303 56.0018 75.6303 56.1019 75.5295C56.5023 75.1261 67.0142 65.3446 67.9152 57.2774C69.2167 48.5043 69.9175 42.6555 67.715 42.0505C67.6149 42.0505 67.6149 42.0505 67.5148 42.0505L66.4135 42.4539C64.7116 43.0589 62.2088 43.8656 59.8061 44.5715C57.4033 45.2774 55.7014 45.6807 54.7003 45.8824L53.6992 45.3782C53.4989 45.0757 53.3988 44.7732 53.1986 44.5715C52.9984 44.3698 52.9984 44.269 52.8982 44.1681L53.2987 42.8572C53.3988 42.7564 53.3988 42.7564 53.4989 42.6555C54.2998 42.0505 61.8083 36.6051 60.8072 22.3866C60.8072 22.3866 60.8072 22.3866 60.8072 22.2858C59.9062 16.4371 54.1997 12.706 50.4955 10.2858C48.4933 8.97487 47.1918 8.0673 46.7913 7.36142C46.0905 6.75638 45.59 6.35302 45.1895 5.94966C44.3886 5.14293 43.6878 4.43705 42.5866 4.23537C42.4865 4.23537 42.3864 4.23537 42.3864 4.23537L34.4774 10.6891L28.2704 10.6891C28.1703 10.6891 28.0702 10.6891 28.0702 10.79C27.5696 11.5967 23.6652 16.6387 20.4615 19.4623C17.0577 20.0673 4.64365 20.6723 3.34218 20.7732C3.24207 20.7732 3.14195 20.7732 3.14195 20.874C3.14195 20.9749 3.04184 20.9749 3.14195 21.0757C3.14195 21.0757 3.14195 21.1765 3.14195 21.1765C3.24207 21.5799 3.64252 22.8908 4.14308 24.2018C5.44456 27.4286 6.44569 27.4286 6.74603 27.4286C8.14762 27.0253 10.7506 26.8236 13.5537 26.6219C16.2568 26.4202 18.3592 26.2186 18.6595 25.916C20.5617 25.2102 27.4695 24.8068 32.4751 26.5211C33.7766 26.6219 35.1782 26.5211 36.5798 26.4202C38.8824 26.2186 40.8847 26.0169 41.9859 26.9244C42.2862 27.832 42.2862 28.0337 42.2862 28.1345C42.3864 29.748 42.4865 31.5631 41.185 33.4791C39.6833 35.6976 36.5798 37.5127 31.6742 39.1261C28.6708 40.0337 24.5662 41.3446 21.6629 44.5715C18.4593 48.2018 17.358 53.4455 18.2591 60.706C20.0611 68.3698 29.1714 80.1681 46.1907 96.8068C47.0917 97.916 48.1929 100.034 47.6924 102.353C47.1918 104.471 45.3898 106.387 42.2862 108.101C39.9836 109.311 36.3796 108.908 34.3773 107.093C32.9757 105.883 32.375 103.967 32.9757 102.353C33.3762 101.445 34.3773 100.538 35.3784 100.74C35.9791 100.84 36.4797 101.345 37.1805 102.151C38.1816 103.261 38.9825 103.967 39.9836 103.563C40.4842 103.362 40.8847 102.958 41.0849 102.252C41.9859 99.832 40.3841 97.2102 38.4819 95.7984C37.1805 94.79 35.4785 94.185 33.7766 94.185"/>
	<path fill="white" d="M21.9633 18.7563C21.9633 18.7563 23.465 21.2774 23.1646 24.9076C23.1646 24.9076 22.2636 24.9076 21.3626 25.0084C21.2625 21.479 20.5617 19.9664 20.5617 19.9664C20.5617 19.9664 21.3626 19.3614 21.9633 18.7563"/>
	<path fill="white" d="M19.4605 25.5126C19.4605 25.5126 19.6607 22.6891 18.7597 20.2689C18.7597 20.2689 17.4582 20.2689 17.0578 20.3697C17.0578 20.3697 17.9588 22.7899 17.9588 25.8151C17.8587 25.8151 18.3592 25.8151 19.4605 25.5126"/>
	<path fill="white" d="M14.0544 20.5714C14.9554 22.1849 14.8553 26.0168 14.8553 26.0168C15.3558 26.0168 16.2568 25.916 16.2568 25.916C16.2568 22.5882 15.6562 20.4706 15.6562 20.4706C15.2557 20.4706 14.0544 20.5714 14.0544 20.5714"/>
	<path fill="white" d="M31.8745 53.042C32.0748 52.8404 32.375 52.7395 32.375 52.0336C32.375 51.0252 31.9746 51.3278 31.9746 51.3278C31.9746 51.3278 29.7721 52.3362 25.7676 52.0336C22.5639 51.832 20.2613 50.0168 19.5605 49.311C19.2602 50.3194 18.8598 51.3278 18.8598 52.437C19.4604 52.8404 22.6641 54.7563 25.8677 54.8614C29.3717 54.958 31.7744 53.2437 31.8745 53.042"/>
	<path fill="white" d="M31.1737 59.2941C31.3739 59.0924 31.8745 58.3865 31.7874 57.6806C31.5741 57.0756 31.3739 57.0756 31.3739 57.0756C31.3739 57.0756 30.1725 58.3865 25.267 58.3865C20.6618 58.3865 18.7596 56.2689 18.5594 56.168C18.5594 56.4706 18.5594 56.7731 18.5594 57.1764C18.5594 57.1764 18.5594 57.2773 18.5594 57.2773C18.5594 57.479 18.5594 57.5798 18.5594 57.7815C18.5594 57.8823 18.5594 57.8823 18.5594 57.9832C18.5594 58.689 18.5594 59.4958 18.7596 60.3025C18.8597 60.3025 21.9633 61.5126 25.3671 61.5126C28.771 61.3109 30.9734 59.5966 31.1737 59.2941"/>
	<path fill="white" d="M31.8745 45.5798C32.0747 44.368 31.3739 44.368 31.3739 44.368C27.4695 46.7899 24.0656 45.479 22.2636 44.4706C21.6629 45.1765 21.2625 45.8824 20.7619 46.5882C26.0679 50.4202 31.6742 46.8908 31.8745 45.5798"/>
	<path fill="white" d="M26.3682 66.958C29.4717 66.5546 30.6731 64.6386 30.8733 64.3361C31.0736 64.1344 31.3739 63.6302 31.2738 62.9244C31.0736 62.4202 30.7732 62.582 30.7732 62.582C30.7732 62.582 29.672 63.7311 25.9678 64.1344C22.8643 64.5378 20.0611 63.3277 19.3603 63.0252C19.7608 64.2353 20.3614 65.4454 21.0622 66.7563C22.2636 67.0588 24.2659 67.3613 26.3682 66.958"/>
	<path fill="white" d="M31.2738 41.1428C31.7744 39.8319 31.0736 39.6302 31.0736 39.6302C30.4729 39.8319 29.8722 39.9327 29.2715 40.0336C27.7698 40.6386 26.2681 41.4453 24.8665 42.4537C27.7698 43.2605 30.8733 42.1512 31.2738 41.1428"/>
	<path fill="white" d="M30.3728 69.8823C30.7733 69.5798 30.8734 69.479 30.7733 68.8739C30.6731 68.5714 30.573 68.4706 30.3728 68.4706C30.1726 68.5714 29.672 69.1764 26.6686 69.9832C25.1669 70.3865 23.9656 70.2857 22.9644 70.084C23.465 70.8907 24.0657 71.7983 24.6664 72.7058C25.267 72.605 26.0679 72.4033 26.7687 72.2016C28.771 71.5966 30.0725 70.1848 30.3728 69.8823"/>
	<path fill="#2D1B0A" d="M38.1816 17.8466C38.1816 19.8655 39.7834 21.479 41.7857 21.479C43.788 21.479 45.3898 19.8655 45.3898 17.8466C45.3898 15.8319 43.788 14.2142 41.7857 14.2142C39.7834 14.2142 38.1816 15.8319 38.1816 17.8466"/>
	<path fill="white" d="M39.9836 17.8487C39.9836 18.9579 40.8847 19.8655 41.9859 19.8655C43.0871 19.8655 43.9882 18.9579 43.9882 17.8487C43.9882 16.7395 43.0871 15.8319 41.9859 15.8319C40.7845 15.8319 39.9836 16.7395 39.9836 17.8487"/>
</svg>
