<?xml version="1.0" encoding="utf-8" ?>
<svg xmlns="http://www.w3.org/2000/svg" xmlns:xlink="http://www.w3.org/1999/xlink" width="80" height="110">
	<path fill="white" d="M40.8708 110C32.6703 110 26.2698 105.781 25.9698 105.58L23.8696 104.174L30.3701 90.1096C28.77 88 27.9699 85.3881 27.9699 82.7763C27.9699 80.5662 28.57 78.3562 29.67 76.4475C28.0699 74.4384 26.7698 72.1279 25.7698 69.3151C24.8697 69.4155 23.4696 69.9178 21.7695 71.9269C18.2693 76.0457 17.2692 77.5525 17.2692 77.5525L15.5691 80.1644L12.9689 78.3562L11.9688 77.653C10.9687 76.6484 9.76866 74.8402 11.4688 72.3288C12.1688 71.3242 13.3689 70.0183 16.0691 66.9041C18.7693 63.79 21.5695 62.3836 23.8696 61.9817C23.6696 60.1735 23.4696 58.3653 23.4696 56.5571C23.4696 56.0548 23.4696 55.4521 23.4696 55C23.4696 55 22.3695 53.8447 20.9694 53.7443C19.9694 53.7443 18.8693 54.2466 17.7692 55.2511L9.36863 62.6849L4.16827 57.0594L12.6689 49.4247C15.169 47.2146 18.0692 46.0091 20.9694 46.0091C21.1695 46.0091 21.2695 46.0091 21.4695 46.0091C22.6696 46.1096 23.7696 46.3105 24.7697 46.7123C24.9697 46.0091 25.1697 45.2055 25.4698 44.5023C20.1694 43.0959 11.5688 39.7808 9.06861 32.347C4.86832 30.137 0.668023 26.2192 0.167988 22.2009C-0.732074 15.3699 1.96811 10.4475 8.66858 6.32877C13.6689 3.21461 17.6692 2.81279 19.5693 2.81279C20.2694 2.81279 20.6694 2.91324 20.8694 2.91324L22.4695 3.21461L25.1697 3.71689L24.4697 5.02283L25.6698 6.32877C28.87 9.74429 33.4703 18.7854 28.37 28.6301C26.6698 31.7443 24.0697 33.8539 20.8694 34.5571C23.6696 36.1644 27.0699 37.1689 29.17 37.5708C32.1702 33.4521 36.0705 31.1416 40.2708 31.1416C44.4711 31.1416 48.3714 33.4521 51.3716 37.4703C53.5717 37.2694 58.372 36.4658 61.4723 32.8493C59.3721 32.8493 57.672 32.347 56.3719 31.4429C50.5715 27.6256 48.5714 22.5023 49.5714 14.7671C50.6715 6.93151 54.2718 3.41553 54.6718 3.0137L55.8719 1.90868L57.872 0L58.4721 1.50685L60.1722 1.40639C60.1722 1.40639 60.4722 1.40639 60.9722 1.40639C67.2727 1.40639 75.2732 4.52055 78.9735 13.4612C80.2736 16.5753 80.3736 19.79 79.0735 22.7032C77.6734 25.8174 74.7732 28.6301 70.9729 30.5388C68.4728 40.2831 60.2722 43.5982 55.0718 44.7032C55.4718 45.9087 55.8719 47.2146 56.1719 48.5205C57.272 48.2192 58.372 48.0183 59.4721 48.0183C62.0723 48.0183 64.6725 48.9224 66.9727 50.6301L75.0732 56.5571L70.4729 62.5845L62.4723 56.758C61.4723 55.9543 60.4722 55.653 59.3721 55.653C58.372 55.653 57.472 56.0548 56.972 56.3562C56.972 56.4566 56.972 56.6575 56.972 56.758C56.972 58.4658 56.8719 60.274 56.6719 61.8813C60.9722 62.484 64.4725 64.5936 66.3726 67.9087L70.7729 75.8447L64.0724 79.4612L59.7721 71.726C58.7721 70.0183 56.4719 69.6164 54.9718 69.516C53.9717 72.3288 52.6717 74.7397 51.0715 76.6484C52.1716 78.5571 52.7717 80.6667 52.7717 82.9772C52.7717 85.6895 51.9716 88.2009 50.3715 90.21L56.7719 104.274L54.7718 105.68C50.4715 108.493 45.8712 110 40.8708 110"/>
	<path fill="#FE8E46" d="M34.0854 89.105L27.6849 102.968C27.6849 102.968 40.6859 111.808 52.6866 102.968L46.3862 89.105C46.4863 89.105 39.5858 95.3333 34.0854 89.105"/>
	<path fill="#2D1B0A" d="M40.9858 107.991C33.2852 107.991 27.2848 103.973 27.1848 103.973L33.8853 87.3972L34.8853 88.6027C36.1854 90.1095 37.6856 90.9132 39.3857 91.0136C42.7859 91.2146 45.786 88.5022 45.786 88.5022L46.7861 87.5981L53.9866 103.47C49.1863 106.886 44.8861 107.991 40.9858 107.991M28.9849 102.667C31.7851 104.274 41.7859 109.297 51.4865 102.667L46.0862 90.7123C44.6861 91.6164 42.1859 93.1232 39.2857 92.9223C37.4855 92.8219 35.8854 92.1187 34.4853 90.9132L28.9849 102.667"/>
	<path fill="#FE8E46" d="M50.2865 41.9908L50.2865 40.3835C50.8866 40.3835 64.1875 40.2831 66.5876 28.4292L68.1877 28.7306C65.5876 41.8904 50.5865 41.9908 50.2865 41.9908"/>
	<path fill="#2D1B0A" d="M50.2865 42.9955L49.2864 42.9955L49.2864 39.3791L50.2865 39.3791C50.7865 39.3791 63.3875 39.2785 65.6875 28.2283L65.8876 27.2238L69.4879 27.8265L69.2878 28.8311C66.3876 42.895 50.8866 42.9955 50.2865 42.9955"/>
	<path fill="#FE8E46" d="M29.7851 42.2922C29.085 42.1917 13.5839 39.7808 11.5838 30.1369L13.1839 29.7351C14.984 38.2739 29.8851 40.5844 29.9851 40.5844L29.7851 42.2922"/>
	<path fill="#2D1B0A" d="M30.6852 43.4977L29.6851 43.3972C28.9851 43.2968 12.7839 40.8858 10.5838 30.4383L10.3838 29.4338L13.984 28.6301L14.184 29.6347C15.7841 37.2694 29.1851 39.5799 30.0852 39.6803L31.0852 39.6803L30.6852 43.4977"/>
	<path fill="#FE8E46" d="M56.5869 5.22373C56.5869 5.22373 53.3867 8.13697 52.4867 15.0685C51.4866 22.1004 53.4867 25.8173 57.887 28.831C63.0874 32.1461 80.7886 25.6164 76.0883 14.5662C71.388 3.51597 60.1872 4.4022 60.1872 4.4022C60.1872 4.4022 62.7874 9.74428 63.7875 12.4566C64.8875 15.4703 61.7873 17.1781 59.8872 13.4612C58.5871 10.4475 56.5869 5.22373 56.5869 5.22373"/>
	<path fill="#2D1B0A" d="M61.6872 30.6392C59.9871 30.6392 58.487 30.3377 57.3869 29.6342C52.2866 26.2173 50.5865 21.9963 51.4865 14.9614C52.4866 7.72545 55.7868 4.60998 55.8868 4.50948L56.9869 3.50449L57.4869 4.91148C57.4869 5.01198 59.4871 10.1374 60.8872 12.9514C61.5872 14.3584 62.3872 14.6599 62.7873 14.4589C63.1873 14.2579 63.2873 13.6549 62.9873 12.7504C61.9872 10.0369 59.3871 4.81098 59.3871 4.81098L58.687 3.50449L60.1871 3.392C60.2871 3.392 72.088 2.6 77.0883 14.1574C78.9884 18.5793 77.7883 22.8003 73.788 26.2173C70.3878 28.9308 65.4875 30.6392 61.6872 30.6392M56.2869 7.12246C55.3868 8.52944 53.9867 11.1424 53.4867 15.1624C52.6866 21.3933 54.0867 25.0113 58.487 27.9258C60.9872 29.6342 67.9876 28.3278 72.4879 24.6093C74.7881 22.6998 77.1883 19.3833 75.2881 14.8609C71.9879 7.02196 64.9874 5.51447 61.9872 5.31348C62.7873 7.12246 64.1874 10.0369 64.9874 11.9464C65.7875 13.9564 64.9874 15.6649 63.6873 16.1674C62.3872 16.7704 60.4872 16.2679 59.1871 13.6549C58.187 11.8459 56.9869 8.93144 56.2869 7.12246"/>
	<path fill="#FE8E46" d="M20.4691 5.67495C20.4691 5.67495 16.2688 5.02272 10.2684 8.84008C4.26798 12.4565 2.56786 16.3743 3.1679 21.799C3.86795 27.8263 20.1691 37.5706 25.6695 27.0227C31.1699 16.4748 23.4693 8.23734 23.4693 8.23734C23.4693 8.23734 21.0691 13.5615 19.569 16.1735C17.9689 18.9861 14.7687 17.5798 16.3688 13.7624C17.6689 10.7487 20.4691 5.67495 20.4691 5.67495"/>
	<path fill="#2D1B0A" d="M17.8843 32.6278C17.0842 32.6278 16.1842 32.5273 15.2842 32.3264C8.98371 31.1209 2.68327 25.9976 2.18323 21.7784C1.38318 15.6506 3.68334 11.5319 9.68376 7.81498C15.9841 3.89717 20.3846 4.5513 20.5845 4.5513L21.9846 4.80128L21.2845 6.10722C21.2845 6.10722 18.4844 11.1301 17.1842 14.0433C16.5842 15.4497 16.8843 16.2533 17.2843 16.4542C17.5844 16.6552 18.1843 16.3538 18.6843 15.5501C20.1845 13.0387 22.4846 7.71452 22.5847 7.71452L23.1847 6.30813L24.1847 7.41315C24.2847 7.51361 32.3853 16.3538 26.5849 27.404C24.7848 30.8195 21.7846 32.6278 17.8843 32.6278M18.7843 6.70996C17.1842 6.81041 14.284 7.41315 10.7838 9.6232C5.48346 12.8378 3.48332 16.3538 4.18337 21.5775C4.48339 24.5912 9.98378 29.3127 15.6841 30.3173C18.5844 30.92 22.5847 30.6186 24.8848 26.3995C28.785 18.8652 25.5849 12.5364 23.7847 10.025C22.9846 11.8332 21.5845 14.8469 20.4846 16.5547C19.2845 18.5895 17.5844 18.8652 16.4843 18.2625C15.1841 17.6597 14.384 15.8515 15.4841 13.2396C16.2843 11.331 17.8843 8.41772 18.7843 6.70996"/>
	<path fill="#FE8E46" d="M69.7879 58.2648L64.1875 54.1461C59.0872 50.4292 54.6869 53.9452 54.5869 54.1461L53.4868 52.9406C53.4868 52.9406 58.9872 48.42 65.1876 52.9406L70.788 57.0593L69.7879 58.2648"/>
	<path fill="#2D1B0A" d="M69.9878 59.6712L63.5874 54.9497C59.0871 51.6347 55.2868 54.8493 55.1868 54.8493L52.6866 53.5434L51.2865 51.936L53.1867 51.936C55.3868 50.5297 60.2872 48.1187 65.6875 52.137L72.188 56.8584L69.9878 59.6712"/>
	<path fill="#FE8E46" d="M9.68373 58.4657L8.58365 57.2602L14.7841 51.7351C16.8842 49.8264 19.1844 49.0152 21.4846 49.0152C24.7847 49.2237 26.985 51.7351 27.085 51.8356L25.8849 52.9406C25.8849 52.9406 24.0848 50.9315 21.3846 50.7305C19.5844 50.6301 17.7843 51.4337 15.9842 53.041L9.68373 58.4657"/>
	<path fill="#2D1B0A" d="M9.58362 59.8721L7.08345 57.1598L14.0839 50.9315C16.2841 48.9223 18.8843 48.0114 21.4844 48.0114C24.8847 48.2191 27.1849 50.4292 27.7849 51.1324L27.7849 52.5388L25.7847 54.347C25.0848 53.6438 23.4846 51.936 21.2845 51.7351C19.7843 51.6347 18.1842 52.3378 16.5841 53.7442L9.58362 59.8721"/>
	<path fill="#FE8E46" d="M65.0875 75.1416L62.1873 69.9178C59.5871 65.2968 52.7866 66.3014 52.6866 66.3014L52.3866 64.6941C52.6866 64.5623 60.3872 63.589 63.5874 69.2146L66.4876 74.4384L65.0875 75.1416"/>
	<path fill="#2D1B0A" d="M64.6874 76.4475L61.3872 70.4201C59.3871 66.8036 53.9867 67.2055 52.9867 67.3059L51.9866 67.3059L51.3865 63.9909C52.9867 63.3881 61.1872 62.6849 64.5874 68.6119L67.9877 74.7397L64.6874 76.4475"/>
	<path fill="#FE8E46" d="M13.9839 75.3425C13.2839 74.6393 13.2839 74.6393 18.3843 68.9132C23.1846 63.3881 27.8849 64.9954 27.9849 64.9954L27.3849 66.5023C27.1848 66.4018 23.4846 65.2968 19.4843 69.9178C15.6841 74.3379 14.684 75.8448 14.684 75.8448"/>
	<path fill="#2D1B0A" d="M14.984 77.3515L13.2839 76.0456C11.9838 74.7397 12.1838 74.4383 17.6842 68.21C21.9845 63.1872 26.4848 63.589 28.1849 63.8904L29.485 63.8904L27.9849 67.8082L26.9849 67.3059C26.9849 67.3059 26.6848 67.2055 26.0848 67.2055C24.8847 67.2055 22.6846 67.7078 20.2844 70.5205C16.5841 74.7397 15.5841 76.347 15.5841 76.347L14.984 77.3515"/>
	<path fill="#FE8E46" d="M53.8867 56.5569C53.8867 68.9846 47.7526 79.0592 40.1859 79.0592C32.619 79.0592 26.4848 68.9846 26.4848 56.5569C26.4848 44.1292 32.619 34.0546 40.1859 34.0546C47.7526 34.0546 53.8867 44.1292 53.8867 56.5569"/>
	<path fill="#2D1B0A" d="M40.1859 80.0639C32.0853 80.0639 25.4848 69.516 25.4848 56.557C25.4848 43.5981 32.0853 33.0502 40.1859 33.0502C48.2864 33.0502 54.8869 43.5981 54.8869 56.557C54.8869 69.516 48.2864 80.0639 40.1859 80.0639M40.1859 34.9589C33.1854 34.9589 27.485 44.6027 27.485 56.4566C27.485 68.3105 33.1854 77.9543 40.1859 77.9543C47.1863 77.9543 52.8867 68.3105 52.8867 56.4566C52.8867 44.6027 47.1863 34.9589 40.1859 34.9589"/>
	<path fill="#FE8E46" d="M49.4864 82.6758C49.4864 87.8355 45.3224 92.0182 40.1857 92.0182C35.0491 92.0182 30.8851 87.8355 30.8851 82.6758C30.8851 77.5161 35.0491 73.3333 40.1857 73.3333C45.3224 73.3333 49.4864 77.5161 49.4864 82.6758"/>
	<path fill="#2D1B0A" d="M40.1857 93.0228C34.4854 93.0228 29.885 88.4018 29.885 82.6757C29.885 76.9497 34.4854 72.3287 40.1857 72.3287C45.8862 72.3287 50.4865 76.9497 50.4865 82.6757C50.4865 88.4018 45.8862 93.0228 40.1857 93.0228M40.1857 74.4383C35.5854 74.4383 31.8852 78.1552 31.8852 82.7762C31.8852 87.3972 35.5854 91.1141 40.1857 91.1141C44.786 91.1141 48.4864 87.3972 48.4864 82.7762C48.4864 78.1552 44.786 74.4383 40.1857 74.4383"/>
</svg>
