<?xml version="1.0" encoding="utf-8" ?>
<svg xmlns="http://www.w3.org/2000/svg" xmlns:xlink="http://www.w3.org/1999/xlink" width="114" height="70">
	<path fill="white" d="M56.2055 70C55.7004 70 55.1954 70 54.7914 70C41.1555 69.299 32.166 60.186 26.4086 52.7754C24.7925 52.9757 23.1764 53.176 21.5603 53.4764C20.4493 53.6767 19.3382 53.7768 18.2271 53.9771C15.702 54.2775 13.5808 54.4778 11.5607 54.4778C8.2275 54.4778 5.29832 53.9771 2.67215 53.0758C2.36914 52.9757 1.35907 52.5751 0.753035 51.6738C0.34901 51.073 -0.156021 50.1717 0 48.7697C0.248004 46.9671 1.35907 45.3648 3.07618 44.3634C4.18725 43.7625 5.19731 43.4621 6.20737 43.1617C9.74259 42.1602 12.9748 40.8584 16.409 39.4564C16.914 39.2561 17.4191 39.0558 17.9241 38.8555C17.3181 37.2532 16.712 35.5508 16.207 34.0486L15.803 32.9471C12.7728 24.3348 19.7422 18.8269 23.7825 17.2246C25.9036 16.3233 43.2767 12.618 50.3471 12.618C52.2662 11.8169 53.5793 11.3162 54.7914 11.0157C60.7508 9.21316 66.8111 8.21173 72.9725 7.9113C73.4775 7.2103 74.0836 6.70959 74.6896 6.20887C75.8007 5.30758 77.2148 4.30615 78.9319 3.80544C80.649 3.20458 82.3661 3.20458 83.9822 3.20458C84.8913 3.20458 85.8003 3.20458 86.7094 3.20458C88.5275 3.20458 90.0426 3.20458 91.3557 3.30472C92.4667 2.50358 93.7798 2.30329 94.4869 2.20315C95.6989 2.00286 96.81 1.90272 98.0221 1.70243C100.85 1.30186 103.476 1.00143 106.103 0.500715C107.416 0.200286 108.527 0 109.739 0C111.86 0 114 1.20172 114 4.20601C114 7.11016 113.779 9.51359 113.072 11.7167C112.062 14.8212 110.244 17.3247 108.729 19.2275C108.325 19.8283 107.113 21.2303 105.194 21.731C104.587 24.0343 103.577 26.5379 101.759 28.6409C99.7392 30.8441 96.911 32.2461 94.1838 32.2461C93.9818 33.2475 93.6788 34.1488 93.1738 35C92.3657 36.5522 91.1536 37.9542 89.4365 39.3562C86.7094 41.5594 83.6792 43.1617 80.548 43.8627C79.6389 44.0629 78.6289 44.1631 77.7198 44.2632C76.6087 60.6867 68.9323 70 56.2055 70"/>
	<path fill="#EFCDBB" d="M17.5445 41.8598C14.1112 43.2618 10.7788 44.6638 7.24453 45.5651C6.33571 45.7654 5.42688 46.0658 4.61904 46.4664C3.81119 46.867 3.00335 47.6681 3.00335 48.5694C3.00335 48.8698 3.00335 49.0701 3.00335 49.2704C3.20531 49.4707 3.50825 49.5708 3.71021 49.671C8.15336 51.2733 13.1014 51.073 17.8475 50.4721C22.5935 49.8713 27.2386 48.8698 31.9847 49.0701C32.3886 49.0701 32.8936 49.0701 33.0956 48.7697C33.1965 48.5694 33.2976 48.3691 33.2976 48.1688C33.7015 45.1645 32.0858 42.3605 29.8641 40.3577C28.8543 39.4564 27.5416 38.2547 26.2288 38.0229C25.0171 37.8541 23.9063 38.6552 22.8965 39.156C21.2808 40.3577 19.4632 41.1588 17.5445 41.8598"/>
	<path fill="#2D1B0A" d="M11.6877 52.0745C8.96124 52.0745 6.13378 51.7739 3.40731 50.7726C3.20535 50.6725 2.70044 50.4721 2.3975 50.0715C2.19554 49.7711 2.0677 49.3706 2.0677 48.5695C2.19554 47.4678 3.00338 46.3662 4.11417 45.6652C4.92202 45.1645 5.83084 44.9642 6.73967 44.6638C10.375 43.5622 13.8083 42.2604 17.1407 40.8584C18.8573 40.1574 20.776 39.3562 22.5936 38.3548C24.0073 37.5537 25.1181 37.042 26.5319 37.042C28.2485 37.2532 29.6623 38.6552 30.773 39.5565C33.4995 42.0601 34.8123 45.2647 34.5093 48.269C34.5093 48.6695 34.4083 49.0702 34.1054 49.3706C33.4995 50.0715 32.5907 50.0715 32.0858 50.0715C28.5515 49.8713 24.9162 50.4721 21.3818 50.9729C20.2711 51.1731 19.1603 51.2733 18.0495 51.4735C16.0299 51.8741 13.9093 52.0745 11.6877 52.0745M4.11417 48.8699C4.11417 48.8699 4.21515 48.8699 4.21515 48.8699C8.6583 50.4721 13.6063 50.1716 17.8475 49.5709C18.9583 49.4706 20.0691 49.2705 21.1799 49.0702C24.8152 48.5695 28.4505 47.9686 32.1868 48.1688C32.2877 48.1688 32.4897 48.1688 32.4897 48.1688C32.8936 44.8641 30.4701 42.1603 29.4603 41.1588C28.5515 40.3577 27.4407 39.2561 26.3299 39.1559C25.623 39.0558 24.8152 39.4564 24.0073 39.9571C21.6848 41.1588 19.6652 42.0601 17.9485 42.7611C14.6161 44.1631 11.0818 45.5651 7.54751 46.5665C6.5377 46.867 5.83084 47.0672 5.22496 47.4678C4.51809 47.7682 4.11417 48.269 4.11417 48.8699"/>
	<path fill="#EFCDBB" d="M50.3634 15.3221C43.5977 15.3221 26.431 19.0273 24.8154 19.6282C22.7957 20.4293 16.0301 24.3349 18.5546 31.6453C19.8673 35.5509 21.382 40.2577 23.7046 43.5623C28.8545 50.8728 38.1447 65.7942 54.9075 66.7279C72.5791 67.5967 74.2959 49.4708 74.4977 43.2619"/>
	<path fill="#2D1B0A" d="M56.3213 67.6968C55.9174 67.6968 55.4125 67.6968 55.0086 67.6968C38.8517 66.7955 29.6625 53.5766 24.1085 45.6653C23.7046 45.1646 23.4017 44.5637 22.9977 44.063C20.7762 40.9576 19.3624 36.7526 18.1507 33.1474L17.7468 31.8456C15.2222 24.6353 21.0791 20.0287 24.6134 18.6267C26.1281 18.0258 43.3958 14.2185 50.4645 14.2185C51.0703 14.2185 51.4743 14.7211 51.4743 15.2218C51.4743 15.8227 51.0703 16.2232 50.4645 16.2232C50.4645 16.2232 50.3635 16.2232 50.3635 16.2232C43.5978 16.2232 26.835 19.8284 25.3203 20.4293C25.0173 20.5294 17.1333 23.9343 19.6654 31.1446L20.0693 32.4464C21.2811 35.9514 22.5938 39.9572 24.7144 42.8613C25.0173 43.362 25.4213 43.8627 25.8252 44.4636C31.1772 52.0745 39.9625 64.7926 55.1096 65.5938C59.9566 65.8942 63.8949 64.5924 66.9243 61.8885C70.9635 58.1832 73.387 51.6739 73.69 43.0616C73.69 42.4607 74.1949 42.0602 74.6998 42.0602C75.3057 42.0602 75.7096 42.5609 75.7096 43.0616C75.3057 52.1746 72.7812 59.1846 68.237 63.2905C65.1066 66.2948 61.0674 67.6968 56.3213 67.6968"/>
	<path fill="#EFCDBB" d="M73.9927 10.5857C67.7319 10.786 61.5721 11.7875 55.6143 13.59C53.7966 14.0908 51.878 14.8919 50.9692 16.5943C50.4643 17.6959 50.6273 19.0979 50.9692 20.2996C51.3731 21.5014 52.1809 22.5028 52.9888 23.5042C57.129 28.8117 61.976 33.6186 67.429 37.6244C68.6408 38.5257 69.9535 39.4269 71.3672 40.0279C73.9927 41.2295 77.0221 41.3297 79.8496 40.7289C82.6771 40.1279 85.3025 38.7259 87.5241 36.8232C88.7359 35.8218 89.7457 34.7202 90.4526 33.4184C91.1594 32.1166 91.4624 30.5142 91.1594 29.0121"/>
	<path fill="#2D1B0A" d="M76.6183 42.0601C74.5987 42.0601 72.6801 41.6595 70.9634 40.8583C69.4487 40.1573 68.1359 39.256 66.8232 38.3548C61.4712 34.349 56.5232 29.5422 52.181 24.0343C51.3732 23.0329 50.5653 21.9313 50.0604 20.6294C49.4545 19.0271 49.4545 17.4249 50.0604 16.123C51.0702 14.1201 53.2918 13.2189 55.3114 12.618C61.3702 10.8154 67.631 9.81399 73.9928 9.6137C74.5987 9.6137 75.0026 10.0143 75.0026 10.6151C75.0026 11.216 74.5987 11.6166 73.9928 11.6166C67.833 11.8168 61.7742 12.8183 55.8163 14.5207C54.0996 15.0214 52.4839 15.6223 51.8781 17.0243C51.4741 17.8254 51.4741 18.8269 51.8781 19.9284C52.282 20.9299 52.9888 21.9313 53.6957 22.8326C57.9369 28.1402 62.683 32.8469 67.934 36.7525C69.0448 37.6538 70.3575 38.4549 71.6703 39.0558C73.9928 40.0572 76.8203 40.3576 79.5467 39.7568C82.0713 39.1559 84.4948 37.9542 86.7164 36.1516C88.0291 35.05 88.8369 34.0486 89.4428 33.0472C90.1497 31.8455 90.3517 30.5436 90.0487 29.3419C89.9477 28.8412 90.2507 28.2403 90.7556 28.1402C91.2605 28.04 91.8664 28.3405 91.9673 28.8412C92.3713 30.4435 92.0683 32.246 91.1595 33.9485C90.4526 35.2503 89.4428 36.452 87.9281 37.6538C85.5046 39.6566 82.6771 41.0586 79.8497 41.7596C78.9409 41.8598 77.7291 42.0601 76.6183 42.0601"/>
	<path fill="#EFCDBB" d="M91.9563 6.00874C89.3308 5.80845 86.6043 5.80845 83.9788 5.80845C82.5651 5.80845 81.1513 5.80845 79.9396 6.30917C78.7278 6.70974 77.617 7.41074 76.6072 8.21188C76.0013 8.7126 75.3954 9.21331 75.0925 9.91432C74.6886 10.8156 74.8433 11.9172 75.2945 12.8185C75.7994 13.7197 76.4052 14.4207 77.1121 15.2219C78.4249 16.624 79.7376 18.0259 81.0503 19.4279C82.0602 20.4293 82.969 21.5309 84.0798 22.4321C85.8975 24.1347 87.8161 25.6367 89.8357 27.0387C90.5426 27.5395 91.2494 28.1404 92.1583 28.4408C94.6828 29.4422 97.7122 28.2404 99.5298 26.2376C101.347 24.2347 102.155 21.5309 102.761 18.827"/>
	<path fill="#2D1B0A" d="M94.0027 29.9428C93.1953 29.9428 92.3878 29.8426 91.6812 29.5422C90.6719 29.1416 89.8644 28.5408 89.1578 28.0401C87.2401 26.5379 85.1204 25.0358 83.3036 23.3333C82.1933 22.3319 81.1839 21.2303 80.2755 20.2289L76.339 16.0229C75.6325 15.3219 74.825 14.4206 74.3203 13.4192C73.7953 12.1173 73.6138 10.8155 74.1184 9.61375C74.5222 8.71246 75.3297 8.1116 75.9353 7.51074C76.9446 6.7096 78.1559 5.90845 79.569 5.40774C81.083 4.891 82.597 4.891 84.0101 4.891C86.6344 4.891 89.3597 4.891 92.085 5.10731C92.6906 5.10731 93.0943 5.60802 92.9934 6.20888C92.9934 6.80974 92.4887 7.21031 91.8831 7.11017C89.2588 6.90988 86.5335 6.90988 84.0101 7.01003C82.698 7.01003 81.3858 7.01003 80.2755 7.4106C79.1652 7.81117 78.1559 8.51217 77.2474 9.21317C76.7428 9.61375 76.2381 10.0143 76.0362 10.515C75.8343 11.0157 75.8343 11.8169 76.2381 12.5179C76.6418 13.319 77.2474 14.02 77.954 14.6209L81.8905 18.8269C82.7989 19.8283 83.8082 20.8298 84.8176 21.8312C86.5335 23.4335 88.5522 24.9356 90.47 26.4378C91.1765 26.9385 91.7822 27.4392 92.4887 27.7396C94.7093 28.6409 97.3336 27.4392 98.7467 25.8369C100.463 23.8341 101.27 21.2303 101.775 18.9271C101.876 18.4263 102.38 18.0258 102.986 18.1259C103.491 18.2261 103.894 18.7268 103.809 19.3276C103.289 21.7311 102.38 24.8355 100.362 27.2389C98.5448 28.9414 96.2233 29.9428 94.0027 29.9428"/>
	<path fill="#EFCDBB" d="M106.609 3.20455C102.772 4.0057 98.7329 4.40627 94.8957 4.90699C94.0878 5.00713 93.28 5.20741 92.7751 5.80827C92.3347 6.30899 92.3347 6.90985 92.3347 7.51071C92.4722 8.11156 92.7751 8.61228 93.179 9.11299C93.8859 10.1144 94.7947 10.9156 95.7035 11.6166C97.9251 13.6194 100.046 15.5222 102.267 17.525C102.772 17.9256 103.277 18.4263 103.883 18.535C104.893 18.6266 105.802 17.8255 106.407 17.0243C108.023 15.0214 109.437 12.9184 110.245 10.515C110.952 8.41199 111.053 6.20885 111.053 4.0057C111.053 3.10441 110.851 2.78409 109.942 2.78409C108.73 2.78409 107.619 3.00427 106.609 3.20455"/>
	<path fill="#2D1B0A" d="M103.969 19.628C103.868 19.628 103.767 19.628 103.666 19.628C102.656 19.5278 101.949 18.8268 101.444 18.4262L94.8805 12.5178C93.9717 11.7167 93.0629 10.8154 92.255 9.81399C91.7501 9.11299 91.4472 8.41199 91.1695 7.81113C91.0433 6.90985 91.1695 5.90842 91.8511 5.20741C92.558 4.30613 93.6688 4.10584 94.6786 4.0057C95.8903 3.80541 97.0011 3.70527 98.2129 3.50498C100.939 3.20455 103.666 2.80398 106.392 2.30327C107.806 2.00284 108.816 1.80255 109.927 1.80255C111.946 1.80255 112.066 3.50498 112.066 4.0057C112.148 6.70956 111.845 8.91271 111.239 10.8154C110.331 13.6195 108.614 15.9228 107.2 17.7253C106.695 18.226 105.585 19.628 103.969 19.628M109.624 3.70527C108.816 3.70527 108.008 3.90555 107.099 4.10584C103.969 4.80684 101.141 5.10727 98.3139 5.50784C97.1021 5.60799 95.9913 5.80827 94.7796 6.00856C94.1737 6.1087 93.5678 6.20884 93.2649 6.50927C93.0629 6.70956 93.0629 7.00999 93.0629 7.41056C93.1639 7.81113 93.3658 8.21171 93.6688 8.61228C94.2747 9.51357 95.1835 10.3147 95.9913 11.0157L102.555 16.9242C102.959 17.3247 103.262 17.6252 103.666 17.6252C104.07 17.7253 104.575 17.3247 105.282 16.4235C107.2 14.0201 108.311 12.1173 108.917 10.2146C109.422 8.51214 109.725 6.50927 109.624 4.0057C109.624 3.90555 109.624 3.80541 109.624 3.70527C109.624 3.70527 109.523 3.70527 109.523 3.70527C109.725 3.70527 109.725 3.70527 109.624 3.70527"/>
</svg>
