<?xml version="1.0" encoding="utf-8" ?>
<svg xmlns="http://www.w3.org/2000/svg" xmlns:xlink="http://www.w3.org/1999/xlink" width="84" height="88">
	<path fill="white" d="M56 85.6895C54.4838 83.9817 46.8014 75.1416 45.3863 70.0183C44.2744 65.8995 45.3863 62.6849 46.1949 60.274C46.4982 59.2694 46.9025 58.3653 46.9025 57.6621C46.9025 57.3607 46.9025 56.8584 46.7004 56.0548L45.2852 57.0594L41.1408 59.8721L39.4224 57.3607C39.2202 57.0594 37.5018 54.4475 35.9856 50.1279C35.9856 50.1279 35.9856 50.0274 35.9856 50.0274C33.9639 54.347 30.8303 58.8676 26.2816 61.2785C18.9025 65.0959 14.9603 67.4064 11.4224 70.7215C7.07581 74.8402 6.46931 75.1416 5.45848 75.3425L2.52708 76.0457L1.61733 72.5297L0 69.516L2.32491 68.1096C2.52708 68.0091 3.33574 67.3059 5.86282 64.895C7.78339 63.0868 9.80505 61.4795 12.3321 59.8721C11.6245 56.9589 12.13 53.8447 13.0397 52.0365C15.1625 47.8174 17.8917 46.8128 19.9134 46.0091C20.722 45.7078 21.4296 45.5068 22.0361 45.0046C18.296 44.7032 14.8592 43.2968 12.13 41.0868C8.89531 38.4749 7.07581 34.9589 6.97473 31.1416C6.97473 13.7626 24.2599 0 45.4874 0C66.7148 0 84 13.7626 84 30.7397C84 34.6575 82.2816 38.0731 79.148 40.6849C76.0144 43.2968 71.87 44.7032 67.4224 44.8037C67.5235 44.9041 67.6245 45.0046 67.7256 45.0046C68.4332 45.4064 69.1408 45.7078 69.8484 46.0091C71.87 46.7123 74.7004 47.7169 76.722 52.0365C78.1372 54.9498 78.6426 61.7808 74.4982 64.4932L71.9711 66.2009L67.4224 59.5708L69.5451 58.1644C69.7473 57.4612 69.6462 56.0548 69.444 55.5525C68.8375 54.2466 68.6354 54.1461 67.0181 53.6438C66.917 53.6438 66.8159 53.5434 66.7148 53.5434L65.4007 58.3653L62.4693 57.5616C61.9639 57.4612 57.213 56.0548 53.6751 49.8265C53.4729 49.5251 53.2708 49.1233 53.1697 48.8219C54.1805 52.9406 54.8881 56.5571 54.787 58.3653C54.6859 60.0731 54.0794 61.5799 53.6751 62.9863C52.9675 65.0959 52.5632 66.4018 52.9675 68.0091C53.574 70.3196 58.5271 76.7489 61.8628 80.4658L63.8845 82.6758L57.8195 88L56 85.6895M24.2599 52.9406C23.7545 53.1416 23.2491 53.3425 22.8448 53.4429C21.4296 53.9452 21.1264 54.0457 20.6209 55.0502C21.2274 54.7489 21.935 54.347 22.6426 53.9452C23.148 53.7443 23.7545 53.3425 24.2599 52.9406M43.769 43.8995C43.5668 45.2055 43.5668 46.6119 43.87 47.516C44.7798 50.1279 45.7906 51.9361 46.1949 52.5388C45.4874 50.1279 44.6787 47.1142 43.769 43.8995"/>
	<path fill="#B3EFFF" d="M46.3973 38.972C52.9677 38.972 59.1337 39.4743 64.39 40.3785C72.2745 41.7848 79.9567 37.0634 79.9567 30.7346C79.9567 30.7346 79.9567 30.6342 79.9567 30.6342C79.9567 15.867 64.4911 3.91265 45.4874 3.91265C26.4839 3.91265 11.0182 15.867 11.0182 30.6342C11.0182 30.7346 11.0182 30.835 11.0182 31.0359C11.0182 37.4652 18.9026 42.2871 26.9893 40.6798C32.5489 39.6753 39.2204 38.972 46.3973 38.972"/>
	<path fill="#2D1B0A" d="M23.9568 41.9907C20.3178 41.9907 16.7799 40.7853 14.1517 38.6758C11.6247 36.6665 10.1084 33.9543 10.1084 31.041C10.1084 15.3698 25.9784 2.91315 45.5885 2.91315C65.1987 2.91315 81.0687 15.3698 81.0687 30.6392C81.0687 33.5524 79.6535 36.1642 77.2275 38.1735C73.8918 40.9863 69.0398 42.1917 64.2889 41.2876C58.9315 40.3834 52.7654 39.8811 46.4983 39.8811C39.6246 39.8811 32.9532 40.484 27.2925 41.589C26.1806 41.8904 25.0687 41.9907 23.9568 41.9907M45.5885 4.92228C27.1914 4.92228 12.1301 16.4748 12.1301 30.6392C12.1301 33.3516 13.3431 35.4611 15.3647 37.1688C18.2961 39.5798 22.7438 40.5844 26.7871 39.7808C32.5488 38.6758 39.3214 38.073 46.3972 38.073C52.8665 38.073 59.1337 38.5753 64.5922 39.4794C68.7366 40.1826 72.982 39.178 75.9135 36.7671C77.834 35.1598 78.9459 33.0501 78.9459 30.8401C78.9459 16.4748 63.9857 4.92228 45.5885 4.92228"/>
	<path fill="#291A0F" d="M4.64978 72.4292L4.44762 71.4247C3.9422 70.5206 4.64978 70.0182 7.88444 67.0046C11.8267 63.1872 16.0722 60.7763 23.8556 56.7579C31.4368 52.8402 34.2671 39.4794 34.2671 39.379L36.2888 39.7808C36.1877 40.3835 33.2563 54.1461 24.8664 58.5662C17.1841 62.5844 13.1408 64.895 9.2996 68.5114C5.25628 72.2283 4.85195 72.3288 4.64978 72.4292"/>
	<path fill="#291A0F" d="M58.1227 83.6803C57.8194 83.2785 49.4296 73.8355 48.2166 69.2145C47.3068 65.9999 48.2166 63.4885 49.0252 61.2785C49.4296 60.073 49.8339 58.968 49.935 57.8629C50.1371 55.2511 46.8014 43.8995 45.5884 39.7807L47.509 39.178C48.0144 40.7853 52.2599 54.5479 51.9566 58.0638C51.8555 59.3698 51.3501 60.6757 50.9458 61.8812C50.2382 63.9908 49.5306 66.1004 50.2382 68.6118C51.148 72.1278 57.4151 79.662 59.74 82.2739L58.1227 83.6803"/>
	<path fill="#291A0F" d="M63.3791 54.5478C63.1769 54.5478 59.4368 53.4428 56.4043 48.219C53.3718 42.9953 54.8881 39.2784 54.8881 39.0775L56.7076 39.8812C56.7076 39.9816 55.5957 42.8948 58.0217 47.2145C60.5487 51.6346 63.6823 52.5387 63.7834 52.5387L63.3791 54.5478"/>
	<path fill="#291A0F" d="M41.8484 55.6529C41.7473 55.5524 40.1299 53.1415 38.8159 49.1232C37.4007 44.904 39.5234 39.3789 39.6245 39.178L41.5451 39.8812C41.5451 39.8812 39.6245 44.904 40.8375 48.5205C42.0505 52.2374 43.6678 54.5479 43.6678 54.5479L41.8484 55.6529"/>
	<path fill="#291A0F" d="M72.8808 61.8811L71.7689 60.1734C72.9818 59.3697 73.0829 55.6528 72.2742 54.0455C71.0612 51.6346 69.9493 51.2327 68.2309 50.63C67.3229 50.3286 66.2093 49.9268 64.9963 49.1231C61.5595 46.9131 59.841 39.9816 59.841 39.6802L61.7616 39.2784C62.166 41.0866 63.7833 46.009 66.0071 47.5158C67.018 48.1186 67.9277 48.5204 68.8374 48.8218C70.758 49.525 72.4764 50.1277 74.0938 53.2419C75.1046 55.3515 75.3067 60.2738 72.8808 61.8811"/>
	<path fill="#291A0F" d="M16.8808 61.8811C14.4548 60.2738 14.657 55.251 15.6678 53.2419C17.184 50.1277 19.0035 49.4245 20.9241 48.8218C21.8339 48.5204 22.7436 48.219 23.7544 47.5158C26.0793 46.009 27.5956 41.0866 28 39.2784L29.9206 39.6802C29.8195 39.9816 28.202 46.9131 24.7653 49.1231C23.5523 49.9268 22.5415 50.2282 21.5306 50.63C19.8122 51.2327 18.5992 51.6346 17.4873 54.0455C16.6786 55.6528 16.8808 59.3697 17.9927 60.1734L16.8808 61.8811"/>
</svg>
