<?xml version="1.0" encoding="utf-8" ?>
<svg xmlns="http://www.w3.org/2000/svg" xmlns:xlink="http://www.w3.org/1999/xlink" width="104" height="82">
	<path fill="white" d="M100.02 82C99.5151 82 98.7067 82 95.4728 79.9902C95.0686 79.6887 94.5633 79.5882 93.9569 79.5882C93.5527 79.5882 93.1485 79.6887 92.7442 79.7892C92.1379 80.0907 91.5315 80.1912 90.8241 80.1912C89.9146 80.1912 89.0051 79.9902 88.2977 79.5882C87.3881 79.1863 86.2765 78.8848 84.7606 78.8848C84.0532 78.8848 83.4469 78.9853 82.9416 78.9853C82.5373 78.9853 82.1331 79.0858 81.931 79.0858C81.5267 79.0858 81.0214 79.0858 80.4151 78.7843C79.4045 78.2819 78.495 77.277 77.7876 75.8701C76.6759 73.6593 76.5749 70.8456 77.4844 68.2328C77.7876 67.4289 78.0908 66.7255 78.3939 66.1225C78.8992 65.1176 79.5056 64.2132 80.213 63.4093C76.0696 56.375 67.7828 49.3407 65.7616 47.9338C65.0542 47.4314 64.2457 46.9289 63.3362 46.4265C62.4267 45.924 61.5172 45.3211 60.6076 44.7181C60.4055 44.7181 60.2034 44.8186 59.9002 44.8186C58.6875 44.9191 57.3738 45.1201 56.06 45.1201C54.5441 45.1201 53.2304 44.9191 52 44.6176C50.6029 44.2157 49.3902 43.6127 48.3796 43.1103C47.2679 42.6078 46.1563 42.1054 45.0446 41.5025C41.5076 39.8946 37.9706 38.1863 34.7367 35.7745C34.7367 35.7745 34.6356 35.7745 34.6356 35.7745C34.7367 35.875 34.7367 36.076 34.8377 36.1765C35.1409 36.7794 35.6462 37.8848 35.343 39.1912C35.0399 40.6985 33.9282 41.9044 32.4123 42.4069C31.9071 42.6078 31.4018 42.6078 30.7954 42.6078C30.4922 42.6078 30.2901 42.6078 29.9869 42.6078C28.6732 42.5074 24.6308 42.2059 22.2054 39.1912C21.498 38.2868 21.0938 37.3824 20.7906 36.5784C20.0832 36.6789 19.3758 36.7794 18.6684 36.9804C14.525 37.6838 10.2806 38.3873 5.83398 38.4877C1.79164 38.4877 0.578942 36.3775 0.174708 35.0711C-0.330584 33.1618 0.275767 31.0515 1.79164 29.7451C3.91387 27.8358 5.42975 26.6299 6.0361 25.1225C6.33927 24.5196 6.44033 23.7157 6.64245 22.9118C6.74351 22.2083 6.94562 21.5049 7.14774 20.8015C7.95621 18.2892 9.47208 15.8775 11.6954 13.5662C14.2218 10.9534 17.3546 8.74265 20.9927 7.1348C28.6732 3.71814 36.8589 3.31618 44.6404 3.31618C49.6933 3.31618 54.4431 3.41667 59.0918 4.52206C59.0918 4.52206 59.1928 4.52206 59.1928 4.52206C60.0013 4.01961 60.9108 3.61765 61.8203 3.1152C63.6394 2.31127 65.5595 1.60784 67.4796 1.0049C68.5913 0.703431 69.7029 0.401961 70.9156 0.301471C72.3304 0.10049 73.4421 0 74.6548 0C75.4632 0 76.1706 0.10049 76.9791 0.20098C77.4844 0.301471 79.2024 0.602941 80.4151 1.90931C81.8299 3.41667 82.032 5.82843 80.9204 7.63725C80.7183 7.93873 80.4151 8.2402 79.8087 9.04412C79.2024 9.84804 77.3833 11.8578 77.0802 12.5613C77.0802 12.5613 76.9791 12.9632 76.9791 13.0637C76.8781 14.1691 76.8781 15.174 76.9791 16.2794C88.3987 28.5392 90.8241 39.6936 91.5315 43.4118C91.6326 43.7132 91.6326 43.9142 91.6326 44.1152L92.34 47.0294C93.4516 51.9534 94.5633 56.576 95.3717 61.701C95.3717 61.701 95.3717 61.8015 95.3717 61.8015C98.7067 63.9118 101.233 66.9265 102.749 70.5441C103.456 72.2525 104.467 75.5686 103.76 79.1863C103.456 80.5931 101.839 82 100.02 82"/>
	<path fill="#8D9EA0" d="M85.6701 62.4044C84.2553 62.6054 83.2447 63.6103 82.5373 64.5147C81.8299 65.4191 81.2235 66.1225 80.7182 67.1274C80.415 67.7304 80.2129 68.2328 80.0108 68.8358C79.4045 70.5441 79.4045 72.5539 80.2129 74.2622C80.415 74.7647 80.9203 75.4681 81.4256 75.7696C81.8299 75.9706 85.9733 74.9657 89.3082 76.674C89.8135 76.9755 90.6219 77.076 91.1272 76.875C92.8452 76.0711 95.0685 76.1716 96.6855 77.1765C97.8982 77.9804 99.414 78.6838 99.7172 78.6838C100.121 78.6838 100.526 78.2818 100.627 77.8799C101.233 74.8652 100.121 71.951 99.8183 70.9461C98.5045 67.6299 95.978 64.8162 92.8452 63.1078C90.5209 61.9019 88.1965 62.1743 85.6701 62.4044"/>
	<path fill="#2D1B0A" d="M99.7171 79.605C99.7171 79.605 99.6161 79.605 99.7171 79.605C99.0097 79.605 96.7864 78.2987 96.1801 77.8967C94.8663 77.0928 93.0473 76.9923 91.6325 77.5952C90.7229 77.9972 89.6113 77.7962 88.9039 77.3942C86.6806 76.2888 83.952 76.4898 82.5372 76.5903C81.7287 76.6908 81.4255 76.6908 81.0213 76.4898C80.2128 76.0879 79.7076 75.1835 79.4044 74.5805C78.5959 72.8722 78.4949 70.5609 79.2023 68.4506C79.4044 67.7472 79.7076 67.1443 80.0107 66.6418C80.516 65.6369 81.1224 64.7325 82.0319 63.7276C82.8404 62.8232 84.0531 61.5168 85.7711 61.3158C88.3986 61.0923 90.925 60.8134 93.3504 62.1198C96.6854 63.9286 99.3129 66.9433 100.829 70.4604C101.334 71.6663 102.345 74.7815 101.738 77.8967C101.334 78.8011 100.627 79.605 99.7171 79.605M93.5526 75.1835C94.8663 75.1835 96.079 75.4849 97.1907 76.1884C98.1002 76.7913 99.0097 77.1933 99.515 77.4947C100.02 74.882 99.1108 72.2692 98.7065 71.2643C97.4938 68.1492 95.0684 65.5364 92.1377 63.9286C90.3278 62.9237 88.1965 63.1246 85.8721 63.4261C84.7605 63.5266 83.952 64.431 83.3457 65.1345C82.6382 65.9384 82.133 66.7423 81.6277 67.5462C81.3245 68.0487 81.1224 68.6516 80.9203 69.1541C80.415 70.7619 80.415 72.4702 81.0213 73.7766C81.2234 74.279 81.5266 74.5805 81.6277 74.681C81.7287 74.681 81.9308 74.681 82.234 74.681C83.7499 74.5805 86.8827 74.279 89.7123 75.6859C90.1166 75.8869 90.5208 75.8869 90.7229 75.8869C91.6325 75.3844 92.643 75.1835 93.5526 75.1835"/>
	<path fill="#C4D5D8" d="M60.7671 41.1007C62.5861 42.5075 65.1126 43.8139 67.0327 45.1203C69.0539 46.5271 79.665 55.2697 83.7074 64.0124C84.2126 65.1178 85.2232 66.0221 86.4359 66.4241C86.537 66.4241 86.638 66.5247 86.8402 66.5247C89.8719 67.3286 92.7016 64.6153 92.2551 61.5001C91.1857 55.4707 89.8719 49.9438 88.4571 44.1153C87.7497 41.0001 85.8296 27.635 70.0645 13.3653C67.1338 10.7526 63.6978 8.64229 59.8576 7.53689C55.0068 6.13003 49.9538 5.92905 45.002 5.92905C37.1194 5.92905 29.1358 6.23052 21.7585 9.5467C18.6257 10.9536 15.7961 12.8629 13.4718 15.2746C11.8548 16.983 10.3389 19.0933 9.63153 21.4046C9.12624 22.9118 9.02518 24.5198 8.41883 26.0271C7.40824 28.4389 5.28602 30.0466 3.36591 31.7551C2.75956 32.3579 2.35532 33.1618 2.6585 33.9659C2.96167 35.1716 4.27543 35.2721 5.38708 35.2721C11.3495 35.0713 17.312 33.7649 23.1734 32.9609C26.2051 32.5589 29.1358 32.2575 32.1676 32.3579C32.875 32.1569 51.1665 33.6643 60.7671 41.1007"/>
	<path fill="#2D1B0A" d="M87.8909 67.5296C87.4866 67.5296 86.9813 67.4291 86.5771 67.3286C86.4761 67.3286 86.2739 67.2281 86.1729 67.2281C84.657 66.8261 83.4443 65.7207 82.838 64.3139C79.0988 56.1742 68.9929 47.532 66.5675 45.8237C65.8601 45.3212 64.9506 44.8188 64.0411 44.3163C62.7273 43.5124 61.4136 42.7085 60.2009 41.8041C50.7014 34.4683 32.4098 33.0614 32.2077 33.0614C29.6812 32.9609 26.9526 33.1619 23.3145 33.6644C21.4955 33.8653 19.6764 34.1668 17.8574 34.4683C13.815 35.1717 9.57059 35.8752 5.32614 35.9756C4.51767 35.9756 2.29439 36.0761 1.5885 33.9658C1.38486 32.8604 1.78909 31.5541 2.69862 30.6497C4.9219 28.7403 6.6399 27.233 7.44837 25.3237C7.75154 24.5198 7.95366 23.7158 8.15577 22.7109C8.25683 22.108 8.45895 21.4046 8.66107 20.7011C9.36848 18.4903 10.6822 16.3801 12.7034 14.2698C15.0277 11.858 17.9584 9.84819 21.2934 8.34084C29.0749 4.92417 37.5638 4.6227 44.941 4.6227C49.5897 4.6227 55.0469 4.82368 60.0998 6.23054C63.839 7.33594 67.376 9.34574 70.7109 12.3605C85.6676 25.9266 88.2951 38.6889 89.2046 42.9095C89.3057 43.2109 89.3057 43.4119 89.4067 43.6129L90.1142 46.5271C91.2258 51.4511 92.3374 56.0737 93.2222 61.0982C93.4491 63.0075 92.8427 64.8163 91.4279 66.1227C90.4173 67.1276 89.1036 67.5296 87.8909 67.5296M30.995 31.0516C31.3992 31.0516 31.8034 31.0516 32.2077 31.0516C32.4098 31.0516 51.4088 32.559 61.4136 40.1962C62.4241 41.0002 63.7379 41.8041 65.0517 42.5075C65.9612 43.01 66.8707 43.6129 67.6792 44.1153C69.4982 45.3212 80.5136 54.2649 84.657 63.4095C85.0612 64.3139 85.8697 65.0173 86.7792 65.3188C86.8803 65.3188 86.9813 65.4193 87.0824 65.4193C88.194 65.7207 89.2046 65.4193 90.1142 64.7158C91.0237 63.9119 91.4279 62.706 91.2258 61.5002C90.4173 56.4756 89.3057 51.9536 88.194 47.0296L87.4866 44.1153C87.4866 43.9144 87.3856 43.6129 87.2845 43.3114C86.4761 39.2918 83.8485 26.9315 69.3972 13.8678C66.3654 11.1546 63.1316 9.24525 59.5945 8.24035C54.7437 6.83348 49.4887 6.73299 45.0421 6.73299C37.867 6.73299 29.6812 6.93397 22.304 10.2502C19.1711 11.657 16.5436 13.4658 14.3203 15.7771C12.5013 17.6864 11.2886 19.5957 10.6822 21.5051C10.4801 22.108 10.3791 22.7109 10.278 23.3139C10.0759 24.3188 9.87377 25.3237 9.46953 26.2281C8.45895 28.5394 6.53884 30.2477 4.71979 31.7551C3.7092 32.559 3.60815 33.0614 3.7092 33.4634C3.81026 33.6644 3.91132 34.0663 5.4272 33.9658C9.46953 33.8653 13.6129 33.1619 17.6553 32.559C19.4743 32.2575 21.2934 31.956 23.1124 31.7551C26.1442 31.2526 28.6706 31.0516 30.995 31.0516"/>
	<path fill="#8D9EA0" d="M35.4441 32.3579C39.4864 35.7745 44.5393 37.6839 49.2891 39.9951C50.2997 40.4976 51.3102 41 52.4219 41.3015C54.6452 41.9044 56.8685 41.6919 59.1928 41.4019C59.6981 41.3015 60.4055 41.1005 60.4055 40.598C60.4055 40.2966 60.2034 40.0956 60.0013 39.8946C58.1822 37.8848 56.3632 35.9755 54.1399 34.5687C52.8261 33.7647 51.5124 33.2623 50.0975 32.6593C48.8848 32.1569 47.6721 31.6544 46.3584 31.152C45.4488 30.75 44.5393 30.4486 43.6298 30.2476C42.0129 29.9461 40.2949 30.0938 38.5769 30.3481C38.5769 30.3481 34.0293 31.152 35.4441 32.3579"/>
	<path fill="#2D1B0A" d="M55.6617 42.6953C54.5492 42.6953 53.3356 42.5948 52.2232 42.2934C51.0096 41.9919 49.8972 41.3889 48.8859 40.8865C47.7734 40.384 46.661 39.7811 45.5486 39.2787C41.8067 37.5703 37.9637 35.7615 34.8287 33.0482C34.1207 32.4453 34.2515 31.7419 34.2515 31.5409C34.6264 30.536 36.0422 29.8325 38.4694 29.3301C40.1886 29.0315 42.1101 28.8276 43.9305 29.2296C44.9418 29.4306 45.9531 29.8325 46.8633 30.2345L50.6051 31.7419C52.0209 32.3448 53.4368 32.9477 54.8526 33.7517C57.2798 35.259 59.2012 37.2688 61.0216 39.2787C61.2239 39.4796 61.7295 39.9821 61.6416 40.786C61.6416 41.188 61.4261 42.2934 59.5046 42.4943C58.1899 42.5948 56.8752 42.6953 55.6617 42.6953M36.5479 31.9428C39.3796 34.2541 42.9192 35.8634 46.3576 37.4698C47.47 37.9722 48.6836 38.5752 49.7961 39.0777C50.8074 39.5801 51.7175 40.0826 52.7289 40.2836C54.7515 40.8865 56.9764 40.585 59.1001 40.384C57.3809 38.5752 55.6617 36.6659 53.5379 35.3595C52.3243 34.6561 50.9085 34.0531 49.5938 33.5507L45.8519 32.0433C44.9418 31.6414 44.1327 31.3399 43.3237 31.1389C41.8067 30.8374 40.1886 31.0384 38.5705 31.2394C37.9637 31.4404 37.0536 31.7419 36.5479 31.9428"/>
	<path fill="#8D9EA0" d="M24.2266 36.8799C25.5404 38.4877 27.7637 38.9902 29.8859 39.1912C30.2901 39.1912 30.7954 39.2916 31.1996 39.0907C31.6039 38.8897 32.0081 38.6887 32.1092 38.1863C32.2103 37.7843 32.0081 37.3823 31.806 36.9804C31.3007 35.7745 30.9975 34.5686 30.9975 33.2622C30.9975 32.8603 30.9975 32.5588 30.8965 32.1568C30.6943 31.6544 30.2901 31.3529 29.8859 31.1519C27.9658 30.0466 25.4393 30.0466 23.6203 31.1519C23.4181 31.2524 22.0033 31.8554 21.87 31.9559C21.7002 32.3578 22.5086 33.0613 22.6097 33.4632C23.115 34.6691 23.4181 35.875 24.2266 36.8799"/>
	<path fill="#2D1B0A" d="M30.3912 40.196C30.1891 40.196 29.9869 40.196 29.7848 40.196C27.8647 39.995 25.1361 39.5932 23.4181 37.4828C22.8118 36.7794 22.5086 35.875 22.1044 35.0711C21.9023 34.6691 21.8012 34.3676 21.5991 33.9657C21.5991 33.8652 21.498 33.7647 21.397 33.6642C20.9927 33.1618 20.4875 32.3578 20.6981 31.5539C20.9927 31.0514 21.397 30.8505 22.4076 30.4485C22.6097 30.348 22.8118 30.2475 22.8118 30.2475C25.0351 28.9412 27.9658 28.9412 30.1891 30.2475C30.8965 30.6495 31.4017 31.1519 31.6038 31.7549C31.8059 32.2573 31.8059 32.6593 31.8059 33.0612C31.8059 34.2671 32.1091 35.473 32.5135 36.4779C32.7155 36.9804 33.0187 37.5833 32.9176 38.2868C32.8165 38.9902 32.2103 39.6936 31.4017 39.8946C31.0985 40.196 30.7954 40.196 30.3912 40.196M25.0351 36.2769C25.9446 37.3823 27.4605 37.9853 29.9869 38.1862C30.2901 38.1862 30.6944 38.1862 30.8965 38.1862C30.9975 38.1862 31.0985 38.0858 31.0985 38.0858C31.0985 37.9853 30.9975 37.7843 30.8965 37.5833C30.2901 36.1764 29.9869 34.7696 29.8859 33.3627C29.8859 33.0612 29.8859 32.7598 29.8859 32.6593C29.8859 32.5588 29.6838 32.3578 29.2795 32.1568C27.7637 31.2524 25.6414 31.2524 24.0245 32.1568C23.9234 32.2573 23.6203 32.3578 23.3171 32.4583C23.216 32.4583 23.115 32.5588 23.0139 32.5588C23.0139 32.5588 23.0139 32.5588 23.0139 32.6593C23.115 32.8603 23.3171 33.0612 23.3171 33.1618C23.5192 33.5637 23.7213 33.9657 23.9234 34.4681C24.3277 35.0711 24.6308 35.674 25.0351 36.2769"/>
	<path fill="#8D9EA0" d="M71.1374 2.61274C72.7543 2.3072 74.4724 2.3072 76.0892 2.41176C76.6956 2.51225 77.4031 2.71323 77.8073 3.11519C78.3126 3.61764 78.4137 4.52206 78.0094 5.125C77.7062 5.62745 74.3713 9.2451 73.967 10.5515C73.866 10.9534 73.765 11.4559 73.6638 11.8578C73.4618 13.3652 73.5628 14.8725 73.765 16.2794C73.1586 16.2794 72.6533 15.8774 72.2491 15.4755C68.813 12.4608 65.1749 9.64706 61.0316 7.73774C60.7284 7.63725 60.3241 7.43627 60.122 7.1348C60.021 7.03431 59.8189 6.83333 59.8189 6.73284C59.8189 6.53186 60.122 6.43137 60.3241 6.33088C61.1326 5.82843 61.9411 5.42647 62.8506 5.02451C64.5686 4.22059 66.2866 3.61764 68.1056 3.11519C69.0152 3.0147 70.1269 2.81372 71.1374 2.61274"/>
	<path fill="#2D1B0A" d="M73.6442 17.3848C72.7347 17.3848 71.9262 16.7818 71.522 16.3799C68.6923 13.8676 64.9532 10.8529 60.6077 8.84313C60.2034 8.64215 59.7992 8.44117 59.395 8.03921C59.1928 7.83823 58.7886 7.43627 58.7886 6.83333C58.7886 6.1299 59.496 5.82843 59.6981 5.72794C60.6077 5.22549 61.4161 4.72304 62.3256 4.32108C64.0436 3.51715 65.8627 2.81372 67.6817 2.31127C68.6923 2.0098 69.804 1.80882 70.9156 1.60784C72.2294 1.40686 74.2505 1.10539 76.2717 1.40686C76.9791 1.50735 77.8886 1.70833 78.5961 2.51225C79.4045 3.41666 79.5056 4.72304 78.8992 5.72794C78.7982 5.92892 78.495 6.23039 77.9897 6.93382C77.0802 8.03921 75.2611 10.25 74.9579 10.9534C74.8569 11.2549 74.7558 11.6568 74.7558 12.0588C74.6548 13.4657 74.6548 14.8725 74.8569 16.2794L74.9579 17.3848L73.8463 17.4853C73.7452 17.3848 73.6442 17.3848 73.6442 17.3848M61.5172 7.03431C65.9638 9.04411 69.7029 12.1593 72.5325 14.5711C72.5325 13.6666 72.5325 12.7622 72.6336 11.8578C72.6336 11.3554 72.7347 10.8529 72.9368 10.3505C73.341 9.34558 74.7558 7.53676 76.3728 5.62745C76.6759 5.22549 77.0802 4.82353 77.1812 4.62255C77.2823 4.42157 77.2823 4.0196 77.0802 3.81862C76.8781 3.51715 76.2717 3.41666 75.9685 3.41666C74.6548 3.21568 73.1389 3.21568 71.3198 3.61764C70.3093 3.81862 69.2987 4.0196 68.2881 4.32108C66.5701 4.82353 64.8521 5.42647 63.2352 6.1299C62.6288 6.43137 62.1235 6.73284 61.5172 7.03431"/>
	<path fill="#4C4C4C" d="M29.5827 22.9118C29.5827 23.7443 28.904 24.4192 28.0668 24.4192C27.2296 24.4192 26.5509 23.7443 26.5509 22.9118C26.5509 22.0793 27.2296 21.4044 28.0668 21.4044C28.904 21.4044 29.5827 22.0793 29.5827 22.9118"/>
</svg>
