<?xml version="1.0" encoding="utf-8" ?>
<svg xmlns="http://www.w3.org/2000/svg" xmlns:xlink="http://www.w3.org/1999/xlink" width="124" height="88">
	<path fill="white" d="M91.3258 88C89.0063 88 87.897 86.0023 86.3843 83.2054C85.9809 82.4064 85.3758 81.3076 85.0733 80.9081C84.7708 80.6084 83.2581 80.0091 82.1487 79.6095C80.3335 78.8104 78.014 77.9115 75.9971 76.5131C72.8709 74.4154 71.7616 70.9194 70.9548 68.3224C70.7531 67.723 70.4506 66.8241 70.2489 66.4245C69.7446 66.2247 68.5345 66.025 67.7277 65.9251C66.5176 65.7253 65.2066 65.6254 63.7947 65.126C62 64.5267 60.4668 63.4279 59.4583 62.3292C56.2312 63.6277 52.4999 64.6266 48.6677 65.126C49.0711 65.7253 51.5923 69.4211 51.8948 70.0204C52.7016 71.6186 52.6008 73.4166 51.5923 74.7151C50.7855 75.714 49.7771 76.2134 48.3652 76.3133L48.3652 79.1101C48.3652 80.109 48.3652 81.3076 48.0627 82.5062C47.5584 84.3042 46.2474 85.7026 44.6339 86.4018C44.0288 86.6016 43.4237 86.8014 42.7178 86.8014C41.4068 86.8014 39.995 86.3019 38.8856 85.403C37.6755 84.504 36.9696 83.3053 36.3645 82.3065C33.9442 78.2111 32.0281 73.916 30.5154 69.4211C30.5154 69.4211 29.1035 64.5267 29.1035 63.1283C27.3892 62.5289 25.6748 61.7299 24.1621 60.8309C19.9265 58.4336 15.8927 55.3371 12.2622 51.7412C11.758 51.8411 11.2537 51.8411 10.7495 51.8411C6.11057 51.8411 2.27841 48.0454 2.27841 43.4506C2.27841 42.0522 2.58095 40.7537 3.28687 39.5551C-0.646137 31.8638 -1.04952 24.7719 2.07672 19.378C4.69872 14.7832 12.9681 12.9852 17.6071 12.3859C19.1198 10.1884 21.7418 8.79001 24.4646 8.79001C27.1875 8.79001 29.7086 10.0885 31.2213 12.1862C35.9611 12.6856 40.3983 13.6844 44.3314 15.2826C44.3314 15.2826 49.4745 7.59137 53.5084 3.49603C54.3151 2.69694 56.8363 0 59.2566 0C60.4668 0 61.4752 0.499432 62.3829 1.4983C62.9879 2.1975 63.3913 2.99659 63.593 3.79569C63.8956 4.79455 63.8956 7.19183 63.8956 7.3916C63.8956 7.59137 65.6099 10.2883 66.0133 11.1873C66.215 11.7866 66.9209 13.4847 66.215 15.2826C65.7108 16.5812 64.8032 17.3802 63.9964 17.9796C62 19.5778 59.3575 20.5766 57.2397 21.4756C56.7355 21.6754 56.1304 21.975 55.5253 22.1748C61.1727 27.1691 65.0049 33.3621 67.1226 39.2554C69.5429 37.2577 72.3666 36.6583 75.2912 36.2588C76.098 36.1589 79.2242 35.2599 84.3674 27.4688C85.4767 25.7707 86.8885 25.5709 87.6953 25.5709C88.8046 25.5709 89.9139 26.0704 90.6198 27.0692C92.4351 29.4665 91.83 34.2611 90.8215 37.6572C90.8215 37.7571 90.8215 37.857 90.8215 37.857C91.83 37.4574 92.1325 36.8581 92.8385 35.0602C93.4435 33.3621 94.2503 31.2645 96.4689 29.6663C100.099 26.9694 111.999 24.5721 114.319 24.1725L124 22.2747L117.042 29.1669C117.042 29.1669 112.604 33.5619 107.965 37.9569C105.848 39.9546 105.646 41.5528 105.444 43.5505C105.243 45.1487 105.041 46.9467 103.629 48.5448C102.217 50.2429 99.7969 51.3417 97.4774 52.0409C100.402 53.0397 101.41 54.538 102.318 56.1362C102.822 57.0352 103.125 57.5346 104.839 58.2338C109.982 60.3314 115.63 60.9308 115.63 60.9308L119.764 61.4302L118.05 65.2259C115.428 70.9194 106.251 73.5165 100.503 73.5165C99.8977 73.5165 99.2926 73.5165 98.6876 73.4166C94.1495 72.9171 91.2249 69.7208 89.1071 67.5233C88.6029 66.924 88.0987 66.4245 87.5945 66.025C87.1911 65.6254 86.6868 65.3258 86.1826 64.9262C87.2919 66.5244 89.208 68.9217 92.5359 72.6175C96.8723 77.412 95.2588 84.7037 93.6452 86.7015C93.2419 87.5006 92.3342 88 91.3258 88"/>
	<path fill="#FFD169" d="M56.1302 55.1374C56.1302 55.1374 59.0548 55.8365 60.0633 57.4347C61.0717 59.033 62.5844 61.63 65.3073 62.429C68.0302 63.2281 71.1563 63.0284 72.77 64.2271C74.3835 65.4257 74.5852 71.6187 78.2157 74.1158C81.846 76.5131 86.6868 77.6118 87.8969 79.1102C89.107 80.6085 91.3257 85.8026 92.0315 84.9035C92.7374 84.0045 94.351 78.4109 91.0231 74.7151C87.6951 71.0193 81.6443 64.1272 82.3503 61.8298C83.0563 59.5323 87.8969 61.63 90.3172 63.8275C92.7374 66.0249 95.3595 70.0204 99.7968 70.5199C104.234 71.0193 113.915 68.8219 116.033 64.0273C116.033 64.0273 110.083 63.4279 104.436 61.0306C98.7883 58.6334 102.015 55.9365 95.9646 54.538C89.813 53.1396 86.1824 54.3382 84.5689 52.5404C82.9554 50.7423 91.3257 50.1431 92.5358 50.1431C93.8467 50.1431 99.9984 49.1441 102.015 46.647C104.032 44.2497 101.915 40.3541 106.553 35.8593C111.192 31.3644 115.529 27.0693 115.529 27.0693C115.529 27.0693 102.217 29.6663 98.8891 32.0636C95.5611 34.4608 96.7713 38.9557 92.5358 40.554C88.3002 42.1521 82.8546 44.6493 82.8546 44.6493C82.8546 44.6493 86.7876 42.3519 88.502 36.7582C90.2164 31.1646 89.0061 26.9694 87.5943 29.1669C86.0816 31.3644 81.2411 38.6561 76.2995 39.2555C71.4589 39.8548 68.8369 41.2532 67.2234 44.949C65.6098 48.6448 62.7861 51.6413 60.5675 51.4416C58.4497 51.3417 56.1302 55.1374 56.1302 55.1374"/>
	<path fill="#2D1B0A" d="M91.83 86.1021C91.83 86.1021 91.7291 86.1021 91.7291 86.1021C90.7207 86.0023 90.1156 84.9035 88.7037 82.4063C88.0986 81.4075 87.5944 80.3087 87.191 79.8093C86.6868 79.21 85.1741 78.6107 83.5606 77.9114C81.7453 77.1124 79.6276 76.2134 77.7115 75.0147C75.1903 73.3167 74.1818 70.3201 73.3751 67.9228C72.9717 66.7242 72.5683 65.4256 72.1649 65.126C71.3581 64.5267 70.0471 64.3269 68.5344 64.227C67.3243 64.0272 66.1141 63.9273 64.904 63.5278C61.8786 62.6288 60.265 60.0318 59.2566 58.3337C58.5507 57.1351 56.5337 56.4359 55.8278 56.2361L54.5168 55.9364L55.2227 54.7378C55.5253 54.3382 57.9456 50.4427 60.7693 50.7423C62.1811 50.8422 64.7023 48.7446 66.4167 44.849C68.4336 40.3541 71.6607 39.0556 76.2996 38.5562C78.3165 38.2565 81.8462 36.4586 86.8885 28.8672C87.7961 27.4688 88.8046 27.8683 89.1071 27.9682C91.0232 28.8672 90.8215 33.3621 89.6113 37.3575C89.0063 39.2554 88.1995 40.7537 87.3927 41.9523C89.0063 41.2531 90.7207 40.5539 92.3342 39.9546C94.2503 39.1555 94.8554 37.857 95.4604 36.059C96.0655 34.5607 96.6706 32.8626 98.385 31.5641C101.814 29.0669 114.924 26.4699 115.428 26.37L118.655 25.7707L116.336 28.0681C116.336 28.0681 111.898 32.4631 107.259 36.8581C104.637 39.3553 104.436 41.5528 104.133 43.5505C103.932 45.0488 103.73 46.3473 102.822 47.546C100.503 50.3428 93.8469 51.3416 92.5359 51.3416C90.8215 51.3416 86.9893 51.8411 85.6783 52.3405C86.3843 52.7401 87.5944 52.8399 89.3088 52.9398C91.124 53.0397 93.4435 53.1396 96.1664 53.7389C99.7968 54.538 100.604 55.9364 101.31 57.3348C101.915 58.3337 102.419 59.3326 104.738 60.3314C110.184 62.5289 116.033 63.2281 116.134 63.2281L117.546 63.328L116.941 64.6265C114.52 69.9205 104.234 72.2179 99.696 71.6186C95.8638 71.1192 93.3427 68.5221 91.3257 66.3246C90.7207 65.7253 90.2164 65.126 89.7122 64.7264C87.897 63.0284 84.8716 61.7298 83.6614 62.0295C83.4597 62.1294 83.3589 62.1294 83.3589 62.3292C83.1572 63.0284 83.9639 65.5255 91.7291 74.2156C95.4604 78.4109 93.746 84.4041 92.7376 85.7026C92.5359 85.9024 92.2333 86.1021 91.83 86.1021M57.7439 54.6379C58.7523 55.0374 60.1642 55.8365 60.8701 56.9353C61.9794 58.6334 63.2904 60.8309 65.5091 61.5301C66.5175 61.8297 67.6268 62.0295 68.7361 62.1294C70.4505 62.3292 72.0641 62.5289 73.2742 63.4279C74.1818 64.1271 74.5852 65.4256 75.1903 67.2236C75.8962 69.3212 76.8039 72.0181 78.7199 73.3167C80.4343 74.4154 82.4512 75.3144 84.2665 76.0136C86.2834 76.9126 87.897 77.5119 88.7037 78.5108C89.208 79.1101 89.813 80.2088 90.519 81.4075C90.8215 82.0068 91.3257 82.8059 91.6283 83.4052C92.1325 81.7071 92.6367 78.0113 90.3173 75.4143C83.258 67.6231 80.8377 63.7276 81.4428 61.63C81.7453 60.8309 82.3504 60.2315 83.1572 60.0318C85.5775 59.4324 89.3088 61.5301 91.124 63.2281C91.7291 63.7276 92.2333 64.3269 92.8384 65.0261C94.7545 67.0238 96.9731 69.3212 99.9985 69.7208C103.629 70.1203 111.495 68.4222 114.42 65.0261C112.201 64.7264 108.066 63.8275 104.133 62.2293C101.108 61.0306 100.301 59.5323 99.696 58.3337C99.0909 57.2349 98.5867 56.336 95.8638 55.7366C93.2418 55.1373 91.0232 55.0374 89.3088 54.9376C86.8885 54.8377 85.0733 54.7378 83.9639 53.3394C83.4597 52.8399 83.3589 52.1407 83.6614 51.6413C84.6699 49.4438 92.7376 49.3439 92.7376 49.3439C93.9477 49.3439 99.696 48.345 101.41 46.2474C102.015 45.5482 102.116 44.5494 102.318 43.2508C102.62 41.0533 102.923 38.2565 106.049 35.3598C108.57 32.9625 110.89 30.6651 112.604 28.9671C108.066 29.9659 101.612 31.664 99.696 33.0624C98.4858 33.9614 97.9816 35.2599 97.3765 36.6583C96.6706 38.5562 95.8638 40.6538 93.0401 41.7525C88.9054 43.3507 83.4597 45.8479 83.3589 45.8479L82.4512 44.0499C82.4512 44.0499 86.0817 41.7525 87.6953 36.6583C88.6029 33.5619 88.6029 31.2645 88.4012 30.1657C84.1656 36.5584 80.1318 39.9546 76.6022 40.3541C71.8624 40.9534 69.7446 42.252 68.3328 45.5482C66.7192 49.244 63.6938 52.8399 60.6684 52.6402C59.7608 52.5403 58.5507 53.5391 57.7439 54.6379"/>
	<path fill="#FFB03E" d="M65.3848 55.2386C62.2585 60.5326 41.7867 67.1252 26.2564 58.3351C10.726 49.5451 -0.77048 31.4656 5.2803 20.9776C8.70908 14.9759 32.7105 11.4884 48.2409 20.2784C63.7712 29.0684 69.5195 48.2466 65.3848 55.2386"/>
	<path fill="#2D1B0A" d="M43.4238 63.6277C37.5747 63.6277 31.3222 62.429 25.7757 59.2327C18.0105 54.8377 11.0521 48.1453 6.81654 40.8536C2.27845 33.0624 1.37083 25.7707 4.39623 20.4767C6.31231 17.1805 13.2707 14.6833 22.1452 14.084C31.9273 13.4847 41.7094 15.3825 48.7686 19.378C57.4414 24.2724 64.1981 32.9625 66.7193 42.6515C68.1311 48.0454 68.0303 52.8399 66.2151 55.7366C64.0973 59.4324 54.416 63.6277 43.4238 63.6277M25.7757 15.9818C24.6663 15.9818 23.4562 15.9818 22.246 16.0817C14.2792 16.5811 7.62331 18.7786 6.11061 21.4756C3.48861 26.0704 4.29538 32.7628 8.53093 39.8547C12.6656 46.8467 19.3215 53.3394 26.7841 57.5346C41.5077 65.9251 61.5761 59.7321 64.5007 54.7378C65.9125 52.2406 66.1142 47.9455 64.8032 43.1509C62.3829 33.9614 56.0296 25.7707 47.7602 21.076C41.9111 17.7798 34.0451 15.9818 25.7757 15.9818"/>
	<path fill="#FFD169" d="M60.6685 3.49606C60.9711 3.79572 61.1728 4.29515 61.2736 4.69469C61.5761 5.89333 61.2736 7.19186 61.5761 8.29061C61.7778 9.0897 62.2821 9.68902 62.7863 10.3882C63.1897 10.9875 63.4922 11.6868 63.7948 12.2861C63.9965 12.9853 64.1981 13.6844 63.9965 14.2838C63.7948 14.8831 63.2905 15.2826 62.7863 15.5823C60.8702 16.9807 58.7524 17.8797 56.6346 18.7787C55.9287 19.0783 55.3236 19.378 54.5169 19.5778C53.7101 19.7775 52.9033 19.7775 52.0965 19.8774C50.483 19.9773 48.9703 20.0772 47.3568 20.0772C47.2559 20.0772 47.1551 20.0772 47.0542 20.0772C46.9534 20.0772 46.9534 19.9773 46.8525 19.8774C46.4491 18.8785 46.9534 17.7798 47.5585 16.8808C49.8779 12.7855 53.0042 9.0897 56.3321 5.69356C57.0381 4.99435 57.744 4.29515 58.5507 3.79572C59.2567 3.1964 59.9626 2.59708 60.6685 3.49606"/>
	<path fill="#2D1B0A" d="M47.3568 21.076C47.1551 21.076 46.8525 21.076 46.55 20.8764C46.1466 20.6765 46.0458 20.2769 46.0458 20.1771C45.4407 18.5789 46.3483 16.9807 46.7517 16.2815C48.8695 12.5857 51.6932 8.98982 55.6262 4.89447C56.3321 4.09538 57.038 3.39617 57.9456 2.79685C58.7524 2.29742 60.1643 1.29856 61.3744 2.79685C61.7778 3.29629 62.0803 3.79572 62.1812 4.39504C62.3829 5.09424 62.3829 5.79345 62.3829 6.49265C62.3829 7.09197 62.3829 7.5914 62.4837 8.09084C62.5846 8.49038 62.8871 8.98982 63.1896 9.38936C63.2905 9.58913 63.3913 9.68902 63.4922 9.88879C63.8956 10.588 64.299 11.2872 64.6015 11.9864C64.904 12.6856 65.2066 13.6844 64.8032 14.6833C64.5007 15.4824 63.8956 15.9818 63.2905 16.4813C61.2736 17.8797 59.0549 18.8785 56.9372 19.7775C56.2312 20.0772 55.5253 20.3769 54.7186 20.5766C53.8109 20.7764 52.9033 20.8764 52.0965 20.8764C50.483 20.9762 48.9703 21.076 47.3568 21.076C47.4576 21.076 47.3568 21.076 47.3568 21.076M59.8617 4.09538C59.7609 4.19526 59.4583 4.29515 59.3575 4.39504C58.4499 5.09424 57.7439 5.69356 57.1389 6.39277C53.3067 10.2883 50.5839 13.7843 48.5669 17.3803C48.2644 17.9797 47.861 18.5789 47.861 19.1782C49.2729 19.0784 50.6847 19.0784 52.0965 18.9784C52.9033 18.9784 53.6092 18.8785 54.3152 18.6789C54.9202 18.479 55.6262 18.2792 56.2312 17.9797C58.2482 17.0807 60.3659 16.1817 62.1812 14.8831C62.4837 14.6833 62.8871 14.3836 62.988 14.084C63.0888 13.7843 62.988 13.3848 62.7863 12.7855C62.5846 12.1861 62.282 11.5869 61.8786 11.0874C61.7778 10.9875 61.677 10.7878 61.5761 10.6879C61.1727 10.1884 60.7693 9.58913 60.5676 8.79004C60.3659 8.09084 60.3659 7.29175 60.3659 6.69243C60.3659 6.09311 60.3659 5.59368 60.2651 5.19413C60.2651 4.6947 60.1643 4.39504 59.8617 4.09538"/>
	<path fill="#FFD169" d="M33.9442 68.6219C35.356 72.917 37.2721 77.0123 39.5916 81.0078C40.0958 81.8069 40.6001 82.7059 41.4068 83.3052C42.2136 83.9045 43.2221 84.2042 44.1297 83.9045C44.9365 83.6048 45.4407 82.8057 45.7432 82.0066C45.9449 81.2076 45.9449 80.3086 45.9449 79.5095C45.9449 78.0112 45.9449 76.5129 45.8441 75.0146C45.8441 74.7149 45.8441 74.4153 45.9449 74.1156C46.55 72.917 48.8695 74.2155 49.6762 73.1168C49.9788 72.7172 49.9788 72.1179 49.6762 71.6185C49.4746 71.119 49.0712 70.8194 48.7686 70.4198C47.6593 69.0214 47.0542 67.2234 45.7432 66.0248C45.1382 65.5254 44.3314 65.1258 43.7263 64.5265C42.5161 63.5276 41.8102 62.0294 40.3984 61.3301C38.9865 60.6309 34.3476 59.8318 33.2383 61.43C31.7256 63.5276 33.9442 66.4244 33.9442 68.6219"/>
	<path fill="#2D1B0A" d="M43.3106 85.0032C42.403 85.0032 41.4954 84.7036 40.7895 84.1043C39.8818 83.4051 39.2768 82.4062 38.7725 81.5072C36.4531 77.5118 34.537 73.3165 33.0243 68.9215C32.9234 67.9227 32.6209 67.1236 32.4192 66.3245C31.7392 64.6264 31.209 62.5288 32.52 60.7308C34.1336 58.5333 39.3776 59.6321 40.8903 60.3313C41.8988 60.8307 42.6047 61.6298 43.2098 62.4289C43.6132 62.9283 43.9156 63.3279 44.42 63.6275C44.7225 63.8273 45.025 64.0271 45.3276 64.2269C45.7309 64.5265 46.1343 64.7263 46.5377 65.1258C47.4454 65.9249 48.0504 66.9238 48.5546 67.9227C48.9581 68.6219 49.2606 69.2212 49.664 69.7206C49.7648 69.8205 49.8657 69.9204 49.9665 70.0203C50.2691 70.3199 50.5715 70.7195 50.7733 71.119C51.1767 72.018 51.1767 73.0169 50.6724 73.6162C49.9665 74.5152 48.7564 74.5152 47.9496 74.4153C47.647 74.4153 47.1427 74.4153 47.042 74.4153C47.042 74.4153 47.042 74.7149 47.042 74.8148L47.1427 79.3097C47.1427 80.2087 47.1427 81.2076 46.8403 82.1065C46.4369 83.3052 45.6301 84.304 44.6217 84.7036C44.1174 84.9034 43.714 85.0032 43.3106 85.0032M34.9404 68.4221C36.3522 72.6173 38.1674 76.6128 40.3861 80.4085C40.8903 81.2076 41.2937 81.9068 41.8988 82.4062C42.5039 82.8057 43.109 83.0055 43.6132 82.8057C44.0166 82.606 44.42 82.1065 44.6217 81.5072C44.8233 80.808 44.8233 80.0089 44.8233 79.3097L44.7225 74.8148C44.7225 74.5152 44.7225 74.0157 44.9242 73.5163C45.5293 72.3177 46.8403 72.4176 47.7478 72.4176C48.0504 72.4176 48.7564 72.4176 48.8572 72.3177C48.8572 72.3177 48.8572 72.1179 48.7564 71.9181C48.6554 71.7183 48.4538 71.4187 48.2521 71.2189C48.1513 71.119 48.0504 71.0191 47.9496 70.9193C47.4454 70.22 47.042 69.5208 46.6385 68.8216C46.1343 67.9227 45.7309 67.1236 45.025 66.6241C44.7225 66.4244 44.42 66.1247 44.1174 65.9249C43.8148 65.7252 43.4115 65.4255 43.109 65.2257C42.6047 64.8262 42.1005 64.2269 41.6971 63.7274C41.092 63.0282 40.5878 62.4289 39.9827 62.1292C38.5708 61.43 34.7387 61.0305 34.1336 61.9295C33.4277 62.8284 33.8311 64.0271 34.3353 65.7252C34.6378 66.6241 34.9404 67.623 34.9404 68.4221"/>
	<path fill="#FFFAF3" d="M16.8003 43.6504C16.8003 46.6293 14.3622 49.0442 11.3546 49.0442C8.34704 49.0442 5.90891 46.6293 5.90891 43.6504C5.90891 40.6714 8.34704 38.2565 11.3546 38.2565C14.3622 38.2565 16.8003 40.6714 16.8003 43.6504"/>
	<path fill="#2D1B0A" d="M11.3546 50.0431C7.825 50.0431 4.90045 47.1464 4.90045 43.6504C4.90045 40.1544 7.825 37.2576 11.3546 37.2576C14.8842 37.2576 17.8088 40.1544 17.8088 43.6504C17.8088 47.1464 14.8842 50.0431 11.3546 50.0431M11.3546 39.2554C8.93431 39.2554 6.91738 41.2531 6.91738 43.6504C6.91738 46.0477 8.93431 48.0453 11.3546 48.0453C13.7749 48.0453 15.7919 46.0477 15.7919 43.6504C15.7919 41.2531 13.7749 39.2554 11.3546 39.2554"/>
	<path fill="#2D1B0A" d="M12.5648 44C12.5648 44.9378 11.7972 45.6981 10.8504 45.6981C9.90357 45.6981 9.13601 44.9378 9.13601 44C9.13601 43.0622 9.90357 42.3019 10.8504 42.3019C11.7972 42.3019 12.5648 43.0622 12.5648 44"/>
	<path fill="#FFFAF3" d="M30.5154 17.2804C30.5154 20.2593 28.0773 22.6742 25.0697 22.6742C22.0621 22.6742 19.624 20.2593 19.624 17.2804C19.624 14.3014 22.0621 11.8865 25.0697 11.8865C28.0773 11.8865 30.5154 14.3014 30.5154 17.2804"/>
	<path fill="#2D1B0A" d="M25.0697 23.6731C21.5401 23.6731 18.6155 20.7764 18.6155 17.2804C18.6155 13.7844 21.5401 10.8876 25.0697 10.8876C28.5993 10.8876 31.5238 13.7844 31.5238 17.2804C31.5238 20.7764 28.7001 23.6731 25.0697 23.6731M25.0697 12.8854C22.6494 12.8854 20.6325 14.8831 20.6325 17.2804C20.6325 19.6777 22.6494 21.6754 25.0697 21.6754C27.49 21.6754 29.507 19.6777 29.507 17.2804C29.507 14.8831 27.5909 12.8854 25.0697 12.8854"/>
	<path fill="#2D1B0A" d="M26.7841 17.1805C26.7841 18.1183 26.0165 18.8786 25.0697 18.8786C24.1229 18.8786 23.3553 18.1183 23.3553 17.1805C23.3553 16.2427 24.1229 15.4824 25.0697 15.4824C26.0165 15.4824 26.7841 16.2427 26.7841 17.1805"/>
</svg>
