<?xml version="1.0" encoding="utf-8" ?>
<svg xmlns="http://www.w3.org/2000/svg" xmlns:xlink="http://www.w3.org/1999/xlink" width="140" height="50">
	<path fill="white" d="M129.801 50C124.188 49.7963 119.677 46.945 115.267 44.1955C112.661 42.5662 110.256 41.1405 107.75 40.1222C105.144 39.1039 102.237 38.6965 98.8292 38.6965C95.0204 38.6965 91.0112 39.3075 87.1022 39.8167C84.9973 40.1222 82.692 40.4277 80.5872 40.6314C74.3729 41.2424 68.359 41.3442 62.5456 41.3442C60.7415 41.3442 58.8371 41.3442 56.9327 41.446C56.8325 41.7515 56.7323 42.057 56.632 42.3625C56.2311 43.3809 55.5295 44.3992 54.8279 45.3157L52.8232 43.3809L54.8279 45.3157C54.3267 45.8248 53.9258 46.2322 53.4246 46.5377C52.2219 47.3523 50.7184 47.8615 49.2149 47.8615C49.1147 47.8615 49.0145 47.8615 48.9142 47.8615C47.511 47.7597 46.1078 47.3523 44.6043 46.5377C43.4016 45.8248 42.1988 44.8065 41.0962 43.5845C40.8958 43.279 40.5951 42.9735 40.3946 42.7699C38.1895 43.0754 36.1849 43.1772 34.3808 43.1772C29.6699 43.1772 25.9614 42.2607 23.0547 40.5295C19.3462 38.1874 17.2413 34.2159 15.3369 30.7536C13.4325 27.2912 11.8288 24.2363 9.12261 23.1161C8.62146 22.9124 7.91984 22.7088 7.21823 22.5051C4.81269 21.7923 1.50507 20.7739 0.302299 17.2098C0.202068 16.9043 -0.80024 13.6456 1.50507 10.2851C2.10645 9.47047 2.70784 8.55397 3.30922 7.53564C4.11107 6.31365 4.91292 4.98982 5.91522 3.76782C6.71707 2.74949 7.61915 1.62933 8.92215 0.916497C10.4256 0.101833 11.9291 0 12.9314 0C13.2321 0 13.5328 0 13.9337 0C17.8427 0.203666 21.5512 1.01833 25.2598 1.73116C28.8681 2.44399 32.1757 3.15682 35.5835 3.36049C36.1849 3.36049 36.7863 3.36049 37.3877 3.36049C41.7979 3.36049 46.3082 2.54582 50.9189 1.73116C55.6297 0.916497 60.541 0 65.5526 0C66.3544 0 67.1563 0 67.8579 0.101833C73.2703 0.407332 78.3821 1.83299 83.3936 3.25866L85.1978 3.76782C94.0181 6.21181 103.239 8.75764 110.256 15.1731C113.563 18.2281 115.367 21.0794 116.771 23.3198C119.377 27.4949 120.98 30.0407 132.908 31.5682C135.413 31.8737 137.719 33.2994 139.022 35.4379C140 37.169 140.826 40.224 138.12 44.501L135.814 42.9735L138.12 44.501C137.819 45.0102 137.418 45.6212 137.017 46.1303C136.316 47.0468 135.413 48.167 134.11 48.8798L133.008 46.8432L134.11 48.8798C133.91 48.9817 133.71 49.0835 133.509 49.1853C132.607 49.5927 131.605 49.7963 130.402 49.7963C130.101 50 129.901 50 129.801 50"/>
	<path fill="#BABDC6" d="M4.16499 11.9143C5.66896 9.7758 6.9724 7.53547 8.57664 5.49881C9.17823 4.68415 9.77982 3.97132 10.6822 3.46215C11.6848 2.9175 12.888 2.9175 14.0912 2.9175C21.4105 3.36032 28.4291 5.90614 35.7484 6.31347C46.577 6.82264 57.2051 2.54565 68.0337 3.15665C73.1472 3.46215 78.0602 4.78598 82.8729 6.21164C91.8967 8.75747 101.522 11.0996 108.54 17.5151C118.066 26.2727 113.153 32.0772 132.905 34.623C134.509 34.8267 136.013 35.7432 136.815 37.067C138.219 39.3074 136.514 42.1587 134.91 44.2972C134.208 45.2137 133.506 46.0283 132.504 46.5375C131.802 46.843 131 46.843 130.298 46.843C122.477 46.6393 116.461 40.0202 109.142 37.2707C100.118 33.9102 90.0919 36.6597 80.5668 37.678C67.3318 39.0019 55.0995 37.678 41.8646 39.511C36.4503 40.2239 29.4317 40.8349 24.8195 37.8817C18.3023 33.8084 17.5002 23.2178 10.4817 20.2646C7.87479 19.1444 4.26525 18.9408 3.36287 16.1913C3.36287 16.0894 2.66102 14.0528 4.16499 11.9143"/>
	<path fill="#2D1B0A" d="M130.647 47.7596C130.546 47.7596 130.346 47.7596 130.245 47.7596C125.232 47.5559 120.821 44.9082 116.71 42.2606C114.203 40.7331 111.596 39.1037 108.889 38.0854C102.071 35.5396 94.5514 36.6598 87.2321 37.6781C85.1265 37.9836 82.9207 38.2891 80.7148 38.4927C74.5987 39.1037 68.5828 39.2056 62.7674 39.2056C56.0497 39.3074 49.1314 39.3074 42.0126 40.3257C36.2975 41.1404 29.1787 41.6496 24.2658 38.5946C20.957 36.5579 19.052 32.9938 17.2472 29.6333C15.2419 25.9673 13.4372 22.505 10.0282 21.0793C9.42657 20.7738 8.72471 20.5701 7.9226 20.3665C5.71677 19.6536 3.10988 18.9408 2.30777 16.395C2.30777 16.2932 1.40538 13.8492 3.31041 11.3033C4.01227 10.3868 4.61386 9.47034 5.21545 8.45201C6.01756 7.23002 6.81968 6.00802 7.72207 4.78603C8.42392 3.97136 9.12577 3.05487 10.1284 2.5457C11.3316 1.9003 12.7353 1.9003 14.0387 1.9003C17.7485 2.13837 21.4583 2.8512 25.0679 3.66586C28.5771 4.37869 32.1867 5.09153 35.6959 5.29519C40.9097 5.60069 46.324 4.58236 51.5378 3.66586C56.9521 2.74937 62.4667 1.73104 67.9812 2.03654C73.195 2.34204 78.2082 3.7677 83.1212 5.09153L84.926 5.60069C93.5487 8.04468 102.472 10.4887 109.19 16.5987C112.298 19.45 113.902 22.0976 115.406 24.338C118.214 28.8186 120.119 31.8736 133.053 33.5029C134.958 33.7066 136.763 34.8268 137.765 36.4561C139.771 39.7147 136.763 43.5844 135.86 44.8064C135.158 45.7229 134.356 46.7412 133.053 47.3522C132.15 47.7596 131.348 47.7596 130.647 47.7596M99.1636 34.5213C102.673 34.5213 106.182 34.9286 109.491 36.2524C112.398 37.3726 115.105 39.0019 117.712 40.6312C121.823 43.1771 125.834 45.6211 130.346 45.8247C130.847 45.8247 131.549 45.8247 132.15 45.6211C132.953 45.3156 133.554 44.5009 134.156 43.6862C136.161 41.0386 136.763 39.0019 135.961 37.6781C135.359 36.6598 134.056 35.8451 132.752 35.7433C118.916 34.0121 116.71 30.4479 113.702 25.6618C112.398 23.5233 110.794 21.0793 107.886 18.3298C101.57 12.5253 92.8469 10.0813 84.4246 7.84102L82.6199 7.33185C77.8072 6.00802 72.8942 4.58236 67.9812 4.37869C62.6672 4.0732 57.2529 4.98969 51.9388 5.90619C46.6248 6.82269 41.2105 7.84102 35.6959 7.53552C31.9861 7.33185 28.2764 6.61902 24.7671 5.90619C21.2578 5.19336 17.6483 4.48053 14.0387 4.27686C12.8356 4.17503 11.9332 4.27686 11.1311 4.68419C10.4292 4.98969 9.92789 5.70252 9.42657 6.41535C8.52418 7.53552 7.82233 8.75751 7.02021 9.87768C6.41862 10.7942 5.71677 11.8125 5.11518 12.729C3.912 14.3583 4.41333 15.8858 4.41333 15.8858C4.91465 17.4133 6.71942 18.0243 8.72471 18.5335C9.42657 18.7371 10.2287 19.0426 10.9305 19.3481C15.0414 21.0793 17.147 25.0508 19.1523 28.8186C20.957 32.1791 22.5613 35.2341 25.4689 37.0671C29.7803 39.8166 36.4981 39.3074 41.9124 38.5946C49.0312 37.5763 56.0497 37.5763 62.8677 37.4744C68.5828 37.3726 74.5987 37.3726 80.6146 36.7616C82.7201 36.5579 84.926 36.2524 87.0315 35.9469C90.9419 35.1323 95.0527 34.5213 99.1636 34.5213"/>
	<path fill="#A7A9AF" d="M39.1048 22.8023C38.7038 23.3115 38.6035 24.0243 38.403 24.6353C37.9017 25.8573 37.4003 27.0793 37.4003 28.4031C37.4003 29.6251 37.7011 30.7453 38.0019 31.9672C38.2025 32.6801 38.403 33.2911 38.6035 34.0039C39.1048 35.4296 39.7064 36.8552 40.5086 38.0772C40.9096 38.6882 41.4109 39.2992 41.9123 39.8084C42.4136 40.3176 42.8146 40.9286 43.316 41.4378C44.1181 42.3542 45.0205 43.1689 46.1234 43.7799C47.0258 44.289 48.0284 44.6964 49.031 44.6964C50.0337 44.6964 50.936 44.4928 51.7382 43.8818C52.7408 43.1689 53.4427 42.1506 53.944 41.0304C54.4453 39.9102 54.8464 38.2809 53.5429 37.5681C53.2421 37.3644 52.9413 37.2626 52.6406 37.1608C52.3398 37.0589 52.039 36.8552 51.7382 36.7534C51.1366 36.4479 50.6353 36.0406 50.0337 35.6332C48.9308 34.8186 47.9281 33.9021 46.6247 33.2911C45.8226 32.9058 44.7197 32.3746 44.6194 31.4581C44.6194 31.0508 44.8199 30.5416 44.9202 30.1343C45.3213 29.3196 45.7223 28.4031 46.1234 27.5885C46.725 26.2646 47.3266 24.839 46.8252 23.5152C46.9255 23.5152 41.7117 18.6272 39.1048 22.8023"/>
	<path fill="#2D1B0A" d="M49.3319 45.7064C49.2316 45.7064 49.1313 45.7064 49.1313 45.7064C48.0284 45.7064 46.9255 45.299 45.7223 44.688C44.6194 44.077 43.6168 43.2624 42.7144 42.1422C42.4136 41.8367 42.2131 41.5312 41.9123 41.2257C41.7117 41.0219 41.5112 40.7164 41.3107 40.5128C40.8094 39.9018 40.308 39.2908 39.8067 38.6798C39.0046 37.5597 38.3027 36.1339 37.7011 34.301C37.5006 33.5882 37.3001 32.9771 37.0996 32.2644C36.7988 31.1441 36.3977 29.8204 36.3977 28.3947C36.3977 26.8672 36.9993 25.4415 37.5006 24.2195C37.6009 24.0159 37.6009 23.8122 37.7011 23.6085C37.8014 23.2012 38.0019 22.5902 38.3027 22.1829C39.1049 20.9609 40.1075 20.2481 41.4109 20.1052C44.3186 19.7389 47.3266 22.4884 47.7276 22.7939C48.7303 24.8305 48.0284 26.5617 47.3266 27.9874L46.1234 30.5331C46.0256 30.7369 45.8226 31.1441 45.8226 31.246C45.8226 31.5515 46.6247 31.9589 47.126 32.2644C48.4295 32.8754 49.3319 33.5882 50.2342 34.301C51.3372 35.1157 51.8385 35.523 52.4401 35.8286C52.7409 35.9304 52.9414 36.1339 53.2422 36.2358C53.3425 36.2358 53.4427 36.3377 53.543 36.3377C53.7435 36.4394 54.0443 36.5414 54.2448 36.6432C55.1472 37.0504 56.3504 38.2724 55.1472 41.3274C54.6459 42.6514 53.6432 43.8734 52.6406 44.5862C51.4374 45.4008 50.4348 45.7064 49.3319 45.7064M39.907 23.303C39.7064 23.6085 39.6062 23.914 39.5059 24.3214C39.4056 24.525 39.4056 24.8305 39.3054 25.0342C38.9043 26.1544 38.403 27.3764 38.403 28.4965C38.403 29.5149 38.7038 30.635 39.0046 31.7551C39.2051 32.468 39.4056 33.079 39.6062 33.7919C40.1075 35.4212 40.7091 36.5414 41.4109 37.5597C41.812 38.0688 42.3133 38.6798 42.8147 39.2908C43.0152 39.4944 43.2157 39.7999 43.4162 40.0037C43.717 40.3092 43.9176 40.6147 44.2184 40.9202C45.0205 41.8367 45.9229 42.5494 46.725 43.0587C47.6274 43.5678 48.4295 43.7715 49.1313 43.8734C49.9334 43.8734 50.6353 43.6697 51.2369 43.2624C52.039 42.7532 52.6406 41.8367 53.0417 40.9202C53.7435 39.1889 53.2422 38.8834 53.1419 38.7817C52.9414 38.6798 52.8411 38.6798 52.6406 38.5779C52.5403 38.5779 52.4401 38.4762 52.2395 38.4762C51.9387 38.3744 51.5377 38.1707 51.2369 37.9669C50.535 37.5597 49.9334 37.1524 49.4321 36.7449C47.9282 35.6249 47.126 34.912 46.2237 34.5047C45.1207 33.9956 43.8173 33.2826 43.6168 31.857C43.5165 31.1441 43.8173 30.4314 44.0178 30.024L45.221 27.4782C45.7223 26.358 46.2237 25.3397 45.9229 24.4232C45.0205 23.7104 43.0152 22.2847 41.4109 22.4884C40.9096 22.1829 40.4083 22.5902 39.907 23.303"/>
	<path fill="#2D1B0A" d="M132.752 47.4542C129.543 45.5194 126.535 43.3809 123.628 41.0387L124.931 39.5112C127.739 41.8534 130.746 43.89 133.754 45.8249L132.752 47.4542"/>
	<path fill="#2D1B0A" d="M135.359 43.6864C133.354 42.2607 131.248 41.0387 128.942 40.1222L129.744 38.1874C132.15 39.2057 134.456 40.4277 136.562 41.9552L135.359 43.6864"/>
	<path fill="#2D1B0A" d="M136.061 40.6314C134.457 39.4094 132.451 38.5947 130.446 38.2892L130.747 36.2526C133.153 36.5581 135.359 37.5764 137.264 39.0021L136.061 40.6314"/>
	<path fill="#2D1B0A" d="M8.82491 17.8207C8.42385 17.8207 7.92253 17.8207 7.52147 17.7189C6.61909 17.5152 5.7167 17.3116 4.81432 17.0061L5.41591 15.0713C6.21803 15.3768 7.02015 15.5804 7.82226 15.7841C8.62438 15.8859 9.32624 15.8859 10.0281 15.6823L10.6297 17.6171C10.1284 17.7189 9.52677 17.8207 8.82491 17.8207"/>
	<path fill="#2D1B0A" d="M11.8328 10.5906C11.2312 10.5906 10.2286 9.8778 10.0281 9.2668C9.9123 8.9613 9.9123 8.24848 10.0281 7.63748C10.2286 7.12831 11.0307 6.31365 11.4318 6.10998C11.6323 6.00815 12.1336 5.87856 12.7352 5.87856C13.6376 6.10998 14.6403 7.53565 14.3395 8.55398C13.9384 9.8778 13.036 10.5906 11.8328 10.5906M11.8328 8.55398C11.8328 8.55398 11.9331 8.55398 11.8328 8.55398C12.0334 8.55398 12.1336 8.45214 12.2339 8.35032C12.2339 8.24848 12.1336 8.24848 12.1336 8.14664C12.0334 8.24848 11.9331 8.35032 11.8328 8.45214C11.8328 8.45214 11.8328 8.45214 11.8328 8.55398M12.3342 7.02648"/>
	<path fill="#2D1B0A" d="M49.7329 45.3157C49.5324 45.112 49.2316 44.9083 48.9308 44.7047C48.63 44.501 48.3292 44.2973 48.0284 43.9918C47.5271 43.4827 47.0258 42.8717 46.725 42.3625L48.3292 41.1405C48.7303 41.6497 49.0311 42.057 49.4321 42.4644C49.6327 42.668 49.8332 42.8717 50.134 42.9735C50.4348 43.1772 50.8358 43.4827 51.1366 43.7882L49.7329 45.3157"/>
	<path fill="#2D1B0A" d="M52.3398 44.0937C51.2369 43.3808 50.0337 42.4643 49.0311 41.5478L50.3345 40.0203C51.3372 40.835 52.3398 41.6497 53.4427 42.3625L52.3398 44.0937"/>
	<path fill="#2D1B0A" d="M54.5457 41.1405C53.2422 40.9368 51.5377 40.7332 50.134 39.613L51.3372 37.9837C52.3398 38.6965 53.543 38.9002 54.7462 39.1038L54.5457 41.1405"/>
</svg>
