<?xml version="1.0" encoding="utf-8" ?>
<svg xmlns="http://www.w3.org/2000/svg" xmlns:xlink="http://www.w3.org/1999/xlink" width="120" height="80">
	<path fill="white" d="M38.0268 66.5157C22.9766 64.4025 10.1338 56.0503 1.70569 42.9686L0 40.3522L1.70569 37.7358C10.8361 23.5472 25.5853 14.8931 42.1405 13.7862L61.4047 0L61.4047 15.8994C71.7391 18.8176 80.7692 24.5535 87.3913 32.3019C94.7157 23.7484 104.247 19.1195 114.682 19.1195L120 19.1195L107.258 40.3522L120 61.5849L114.682 61.5849C104.348 61.5849 94.8161 56.956 87.3913 48.4025C80.3679 56.6541 70.6355 62.4906 59.4983 65.3082L59.4983 80L38.0268 66.5157"/>
	<path fill="#C4D5D8" d="M38.6288 63.5471L56.1874 74.5157L56.1874 62.8427C68.6288 60.2264 79.8663 53.3836 87.0904 43.5219C94.1138 53.1823 103.746 58.5157 114.281 58.5157L103.344 40.3018L114.281 22.088C103.645 22.088 94.1138 27.4213 87.0904 37.0817C80.2676 27.7232 69.8328 20.9811 58.0937 18.1635L58.0937 5.7861L42.8429 16.654C26.7894 17.4591 12.7425 25.5094 3.91311 39.2955L3.3111 40.3018L3.91311 41.3081C11.9399 53.7861 24.3813 61.6352 38.6288 63.5471"/>
	<path fill="#2D1B0A" d="M57.1907 76.3773L38.2275 64.5031C23.5786 62.4905 11.0368 54.4402 2.90974 41.8616L1.9064 40.3522L2.90974 38.8427C11.8395 25.0566 26.1873 16.6037 42.3412 15.7987L58.9465 3.9245L58.9465 17.4088C70.2342 20.327 80.1673 26.6666 86.8897 35.522C94.0134 26.2641 103.645 21.132 114.18 21.132L115.986 21.132L104.448 40.3522L115.986 59.5723L114.281 59.5723C103.846 59.5723 94.2141 54.5409 86.99 45.1824C79.7659 54.4402 69.2308 60.9811 57.0903 63.6981L57.0903 76.3773M4.41476 40.3522C12.5419 52.9308 24.6823 60.6792 38.8295 62.5912L55.2843 72.7547L55.2843 62.088C68.5285 59.371 79.2643 52.6289 86.2877 42.9685L87.0903 41.8616L87.893 42.9685C94.3144 51.8239 103.043 56.9559 112.475 57.5597L102.24 40.4528L112.475 23.3459C102.943 23.9497 94.3144 29.0817 87.893 37.9371L87.0903 39.044L86.2877 37.9371C79.5653 28.7798 69.5318 22.1383 57.7927 19.3207L56.99 7.94966L43.1439 17.9119C27.1907 18.6163 13.2442 26.7673 4.71576 40.0503"/>
	<path fill="#070102" d="M25.3832 42.1636C28.3947 42.1636 30.8027 39.7485 30.8027 36.7296C30.8027 33.7107 28.3947 31.2957 25.3832 31.2957C22.3746 31.2957 19.9637 33.7107 19.9637 36.7296C19.9637 39.6479 22.3746 42.1636 25.3832 42.1636"/>
	<path fill="white" d="M27.291 36.9308C27.291 37.9867 26.4375 38.8427 25.3846 38.8427C24.3317 38.8427 23.4782 37.9867 23.4782 36.9308C23.4782 35.8749 24.3317 35.0188 25.3846 35.0188C26.4375 35.0188 27.291 35.8749 27.291 36.9308"/>
</svg>
