<?xml version="1.0" encoding="utf-8" ?>
<svg xmlns="http://www.w3.org/2000/svg" xmlns:xlink="http://www.w3.org/1999/xlink" width="120" height="80">
	<path fill="white" d="M50.668 80C42.7462 80 34.9247 78.8847 26.5015 76.4512C20.2844 74.7275 14.7692 70.8745 10.4574 65.2978C7.24855 61.2421 4.74165 55.7668 2.53558 48.5678C2.33503 48.0608 0.32951 41.9772 0.229234 39.6451C-0.272145 37.3131 0 34.8796 1.33227 32.8517C3.23751 29.6071 7.74993 26.8695 10.1566 25.9569C16.1731 23.8276 25.1979 22.7123 37.2311 22.7123C41.5429 22.7123 46.3562 22.8137 51.37 23.1179C67.8152 24.0304 80.6505 25.9569 89.0737 28.6946C89.2743 26.4639 89.2743 20.9886 89.174 20.8872C85.6643 19.4677 79.7481 17.237 78.0434 12.2687C77.1409 9.73384 77.4417 7.09759 78.9458 4.35995C80.45 1.62231 82.9569 0 85.8649 0C91.2798 0 96.8952 5.1711 99.4021 8.11153C99.5024 8.21293 106.121 1.8251 110.232 1.8251C112.237 1.8251 115.045 2.53485 117.452 6.08365C119.858 9.63245 120.56 12.8771 119.558 15.7161C117.853 20.3802 111.937 21.9011 108.828 22.7123C108.427 22.8137 108.026 22.9151 107.725 23.0165C106.722 24.1318 106.522 27.3764 106.421 28.7959C106.421 29.7085 105.619 38.9354 105.318 39.6451C104.115 47.7567 95.6919 65.3992 80.2494 73.9163C79.2467 76.4512 77.6423 77.4651 76.3387 77.7693C75.5365 77.9721 74.7343 78.1749 73.9321 78.1749C72.9293 78.1749 71.8263 77.9721 70.8235 77.5665C64.105 79.0875 57.3865 80 50.668 80"/>
	<path fill="#D2EEFF" d="M12.512 63.3322C16.5229 68.5033 21.6367 71.8493 27.0513 73.4717C40.2871 77.2232 54.2249 78.44 70.5692 74.2828C92.0272 68.8075 103.558 42.2422 102.255 36.26C94.6343 42.445 17.6259 37.4767 6.79656 35.9558C4.39005 35.7229 2.98625 35.0433 2.98625 38.7948C2.98625 41.4311 4.49032 45.1827 5.19222 47.6161C6.89683 53.497 9.20307 59.0737 12.512 63.3322"/>
	<path fill="#2D1B0A" d="M50.4118 77.933C42.6844 77.933 34.8565 76.8177 26.7276 74.4856C20.9069 72.8633 15.7887 69.2131 11.6741 64.042C8.66337 60.189 6.15445 54.9165 4.14731 48.0217C3.94659 47.5148 3.74588 46.805 3.54517 46.1966C2.74231 43.966 1.8391 41.1269 1.8391 38.8963C1.8391 37.0712 2.14017 35.9558 2.94303 35.3475C3.84624 34.5363 5.05052 34.7391 6.2548 34.9419C18.2976 36.767 94.4685 41.5325 101.694 35.5502L102.999 34.5363L103.501 36.1586C104.705 42.3437 93.3646 69.7201 70.985 75.3982C63.96 77.0205 57.2361 77.933 50.4118 77.933M4.64909 36.6656C4.44838 36.6656 4.34802 36.6656 4.24767 36.767C4.14731 36.8684 3.84624 37.1726 3.84624 38.7949C3.84624 40.7213 4.74945 43.3576 5.45195 45.4869C5.65266 46.1966 5.85338 46.805 6.05409 47.4134C8.06123 54.1054 10.3694 59.1751 13.2798 62.8253C17.0933 67.6922 21.9105 71.0382 27.2294 72.5591C42.1826 76.8177 55.8311 77.0205 70.2825 73.3703C89.6514 68.402 100.891 45.5883 101.293 37.9837C87.6442 43.3576 15.4876 38.3893 6.45552 36.9698C5.55231 36.767 5.05052 36.6656 4.64909 36.6656"/>
	<path fill="#4F86E0" d="M114.635 7.88602C108.721 -0.73249 99.4983 12.246 98.8969 14.6794C99.5986 11.232 85.765 -2.65897 81.1538 5.85814C75.9412 15.4905 92.1806 18.1269 92.1806 19.2421C91.9801 24.8188 91.7796 29.2801 91.2784 32.9304C83.8604 29.6857 70.2273 27.3536 50.8804 26.2383C31.333 25.123 18.1009 26.2383 10.7832 28.8746C8.57783 29.6857 4.86883 32.1193 3.56567 34.4513C0.65862 39.4197 5.67077 44.9963 10.0815 46.5172C13.8907 47.8354 25.0177 52.4995 59.8021 54.0204C60.8045 56.6567 62.8094 63.2472 64.2128 65.6806C65.5159 68.0127 69.5256 76.4285 75.3397 74.7048C80.3519 73.1839 76.7431 55.9468 76.6429 54.2231C78.8483 53.8176 81.0536 52.905 83.1587 52.0938C87.2687 50.6744 91.3786 49.1535 94.8872 46.7199C98.4959 44.2865 101.904 41.1433 102.706 36.8848C103.308 34.1472 103.007 31.4094 103.107 28.5704C103.208 25.7313 103.508 21.9798 105.814 20.3575C107.117 19.3435 121.953 18.431 114.635 7.88602"/>
	<path fill="#2D1B0A" d="M73.7583 76.0064C68.6473 76.0064 65.1398 69.4158 63.7368 66.7795C63.6366 66.5767 63.5364 66.3739 63.4362 66.1711C62.434 64.346 61.1312 60.5945 60.1291 57.654C59.8284 56.6401 59.4276 55.7275 59.2271 54.9164C26.9579 53.3955 15.1326 49.2383 10.6229 47.616C6.51409 46.1965 3.40743 43.1547 2.20485 40.1128C1.40313 37.8822 1.7172 35.7529 2.70592 33.725C4.30936 31.0888 8.31796 28.4525 10.5227 27.7427C18.3394 24.9037 32.3695 23.9912 51.0095 25.1065C68.948 26.1204 82.5772 28.2497 90.4942 31.3929C90.8951 28.2497 90.9953 24.4981 91.1957 19.9354C90.7948 19.4284 90.1936 19.2256 89.5923 19.0228C86.3854 17.8061 81.074 15.6768 79.5708 11.6211C78.8693 9.69459 79.1699 7.56531 80.3725 5.33464C81.9759 2.29281 84.9824 1.27887 88.5901 2.69839C92.6989 4.2193 97.409 8.57925 99.2129 12.0267C101.117 9.08622 104.925 4.82767 108.733 4.11791C110.537 3.81372 113.243 4.01651 115.448 7.36252C117.452 10.3029 118.153 12.9392 117.251 15.0685C115.848 18.8201 110.838 20.0368 107.931 20.7466C107.33 20.9493 106.528 21.1521 106.328 21.2535C104.424 22.673 104.223 26.4246 104.123 28.6553C104.123 29.5678 104.123 30.4804 104.123 31.3929C104.123 33.218 104.123 35.1445 103.722 37.071C102.72 42.0393 98.5114 45.4867 95.5049 47.616C91.797 50.1509 87.588 51.6718 83.5794 53.0913C83.1785 53.2941 82.6774 53.3955 82.2766 53.5983C80.8736 54.1052 79.3703 54.7136 77.8671 55.0178C77.8671 55.2206 77.9673 55.5248 77.9673 55.8289C79.3703 64.9544 80.1721 74.3841 75.6624 75.7022C74.9609 75.905 74.3596 76.0064 73.7583 76.0064M36.9794 26.7288C25.4547 26.7288 16.736 27.7427 11.2242 29.6692C9.01946 30.4804 5.61215 32.8125 4.50979 34.8403C3.70807 36.2599 3.50764 37.7808 4.10893 39.4031C5.11108 42.2421 8.11753 44.5742 10.4225 45.3853C15.6336 47.3118 27.3588 51.469 59.9286 52.8885C61.1312 54.308 61.5321 55.5248 62.0332 56.8429C63.0353 59.7833 64.2379 63.3321 65.1398 65.0558C65.24 65.2586 65.3403 65.4614 65.4405 65.6642C66.9437 68.4018 70.4512 74.9924 75.0611 73.5729C76.6645 73.0659 78.0675 69.6185 75.963 55.9303C75.7626 54.9164 75.7626 54.4094 75.6624 54.1052L76.4641 52.9899C78.1678 52.6857 79.8714 52.0773 81.4749 51.469C81.9759 51.2662 82.3768 51.1648 82.8779 50.962C86.7862 49.5425 90.8951 48.123 94.4026 45.6895C97.2086 43.763 101.017 40.7212 101.818 36.4626C102.219 34.7389 102.219 32.9139 102.219 31.0888C102.219 30.1762 102.219 29.2637 102.319 28.2497C102.42 25.6135 102.62 21.2535 105.426 19.2256C105.827 18.9215 106.428 18.8201 107.731 18.4145C110.337 17.8061 114.646 16.6908 115.648 13.9531C116.249 12.4322 115.648 10.5057 114.045 8.07228C112.742 6.14579 111.138 5.33464 109.334 5.63882C105.125 6.44997 100.516 12.9392 100.115 14.4601L98.1105 14.0545C98.4112 12.635 93.3002 6.0444 87.9888 4.2193C85.283 3.20536 83.3789 3.81372 82.1764 5.943C81.2744 7.6667 81.074 9.18762 81.5751 10.5057C82.7776 13.7504 87.588 15.5754 90.394 16.6908C92.4985 17.5019 93.3002 17.8061 93.3002 18.8201C93.0998 25.0051 92.8994 29.1623 92.3983 32.6097L92.1979 33.9278L90.9953 33.4208C83.4792 30.1762 69.5493 27.8441 50.9093 26.8302C45.8986 26.9316 41.2887 26.7288 36.9794 26.7288"/>
	<path fill="white" d="M13.5556 40.0115C13.5556 41.0255 13.8716 41.938 14.6738 42.445C15.4759 43.0533 16.4786 43.1547 17.3811 42.7492C18.2835 42.3436 18.8852 41.5324 18.9854 40.5185C19.0857 39.5045 18.6846 38.592 17.8824 38.085C17.0803 37.5375 16.0776 37.3753 15.1751 37.7808C14.2727 38.1864 13.671 38.9976 13.5556 40.0115"/>
</svg>
