<?xml version="1.0" encoding="utf-8" ?>
<svg xmlns="http://www.w3.org/2000/svg" xmlns:xlink="http://www.w3.org/1999/xlink" width="96" height="82">
	<path fill="white" d="M73.925 82C37.2684 82 19.6489 62.6236 13.5733 53.6346C12.9657 54.134 12.2569 54.4336 11.548 54.7333C10.7379 54.933 9.8266 55.2326 8.91524 55.2326C7.39632 55.2326 5.77614 54.7333 4.56101 53.8343C2.43452 52.3362 1.21938 49.8392 1.21938 46.9428C1.21938 45.4446 1.82695 43.447 3.95344 41.5493C1.62443 39.8514 0 37.5542 0 34.6577C0 33.3593 0.713075 30.1632 5.47236 28.4653C6.68749 28.0658 7.80137 27.866 8.81398 27.866C10.3329 27.866 11.8518 28.2655 13.1682 28.9647C30.889 0.799026 74.5326 0 79.5957 0L85.6713 0.0998782L86.4814 4.5944L81.2158 6.69184C76.5578 8.6894 72.9124 10.687 70.2796 12.8843C75.3427 9.98782 79.3931 9.38855 81.9247 9.38855C83.8486 9.38855 85.0638 9.78806 85.4688 9.88794L93.7723 12.3849L86.0764 16.38C81.1146 18.9769 76.0515 21.5737 75.7477 39.5518C75.3427 55.0329 87.3928 65.7199 87.5953 65.8197L96 73.1108L84.9625 72.0122C78.3805 71.4129 72.8112 69.0158 68.3557 66.419C72.9124 72.1121 79.1906 74.9086 79.2919 74.9086L84.2537 77.0061L83.4436 81.5006L77.9755 81.7004C76.254 82 75.0389 82 73.925 82"/>
	<path fill="#FFE161" d="M13.4719 47.3105C13.4719 47.3105 28.4586 79.7709 76.8616 78.1373C76.8616 78.1373 59.9509 70.9816 59.0396 54.9012C59.0396 54.9012 68.9632 66.8866 84.3549 68.2849C84.3549 68.2849 70.9884 56.7989 71.2922 39.3202C71.6972 21.8415 76.1527 16.9475 83.5448 13.0522C83.5448 13.0522 74.5325 10.3555 62.3812 22.6405C62.3812 22.6405 59.4446 24.9377 58.3307 25.537C58.3307 25.537 56.3055 12.6527 79.0893 3.1625C79.0893 3.1625 28.9649 2.36528 13.2694 34.4262C13.2694 34.4262 11.2442 29.8318 5.87735 31.4298C0.61176 33.2276 3.24455 37.5224 7.09248 39.1205C10.8391 40.9183 11.3455 40.9183 11.3455 40.9183C11.3455 40.9183 4.15591 42.9158 4.15591 46.4116C4.15591 49.9073 6.7887 51.9049 9.72528 50.9061C12.4593 50.0072 13.4719 47.3105 13.4719 47.3105"/>
	<path fill="#2D1B0A" d="M73.3174 79.1035C33.623 79.1035 17.2186 55.7319 13.3707 49.3396C12.6619 50.2385 11.548 51.3372 9.92781 51.9365C8.30763 52.4358 6.58619 52.2361 5.26979 51.3372C3.85213 50.3384 2.94078 48.5406 2.94078 46.4431C2.94078 43.7464 5.97862 41.9486 8.30763 40.9498C7.80132 40.75 7.19375 40.4504 6.48492 40.1508C4.15591 39.152 1.7227 36.8548 1.7227 34.3578C1.7227 33.359 2.33321 31.5612 5.37105 30.5624C9.01646 29.4637 11.548 30.862 12.9657 32.4601C29.5725 1.6974 78.3805 2.1963 78.8868 2.1963L83.6461 2.29667L79.2918 4.09449C62.3812 11.086 59.6471 20.0751 59.2421 23.6707C60.1534 23.0715 61.1661 22.2724 61.6724 21.8729C74.1275 9.28819 83.4435 11.885 83.8486 11.9849L86.1776 12.6841L84.0511 13.7827C77.5704 17.1786 72.7098 21.1738 72.3048 39.152C72.001 55.9316 84.8612 67.3178 84.9625 67.4177L87.2915 69.4153L84.1524 69.1156C72.6086 68.0169 64.1026 61.3251 60.356 57.6295C62.9888 70.8136 77.0641 76.9062 77.1653 76.9062L81.3171 78.704L76.7603 78.9037C75.7477 79.1035 74.5325 79.1035 73.3174 79.1035M13.472 44.6453L14.4846 46.7428C14.5858 47.0424 28.9649 76.8063 73.0136 77.006C67.8493 73.9098 58.837 66.8184 58.1282 54.8329L57.9257 51.7367L59.9509 54.1338C60.0522 54.2337 68.4569 64.3214 81.6208 66.8184C77.7729 62.6235 70.1783 52.7355 70.4821 39.2518C70.7859 24.0703 74.2288 17.9777 80.4057 13.7827C76.9628 14.0824 70.6846 15.7803 63.2925 23.2712C62.8875 23.5709 60.1534 25.6683 58.9383 26.3675L57.7232 26.9667L57.5206 25.5684C57.4194 25.069 55.9005 13.583 74.33 4.19437C61.4698 4.9934 26.7372 9.48795 14.3833 34.7573L13.472 36.7549L12.5606 34.7573C12.3581 34.3578 10.7379 30.9619 6.48492 32.3602C5.47231 32.6598 4.25718 33.359 4.25718 34.3578C4.15591 35.6562 5.7761 37.3541 7.80132 38.2531C10.6366 39.5515 11.548 39.8511 11.7505 39.951L18.9401 39.951L11.953 41.9486C10.2316 42.448 5.47231 44.2458 5.47231 46.4431C5.47231 47.8414 5.97862 49.04 6.88997 49.6392C7.70006 50.2385 8.61141 50.3384 9.62403 49.9389C11.953 49.1398 12.8644 46.8426 12.8644 46.8426L13.472 44.6453"/>
	<path fill="white" d="M26.0285 20.2753C26.0285 20.2753 36.1547 24.7698 36.1547 40.5506C36.1547 40.5506 36.357 52.4361 24.712 59.9269C24.712 59.9269 17.0161 54.0341 13.9784 47.0427C13.9784 47.0427 9.21902 52.8356 5.67487 49.1401C2.83956 43.2473 9.5228 43.3472 12.4594 41.6492C12.4594 41.6492 13.2695 41.05 12.2569 40.7503C11.3455 40.4507 2.02947 36.8551 4.05469 34.0585C5.97866 31.3618 9.82659 30.5628 13.7758 35.5567C13.6745 35.257 16.9149 27.5664 26.0285 20.2753"/>
	<path fill="#1E1E1E" d="M20.7253 40.5793C20.7253 39.2809 21.8392 38.1822 23.1556 38.1822C24.472 38.1822 25.5858 39.2809 25.5858 40.5793C25.5858 41.7778 24.472 42.8765 23.1556 42.8765C21.7379 42.8765 20.7253 41.7778 20.7253 40.5793M21.0291 40.5793C21.0291 41.5781 21.7379 42.2772 22.8518 42.2772C23.8644 42.2772 24.5732 41.5781 24.5732 40.5793C24.5732 39.5805 23.8644 38.8813 22.8518 38.8813C21.7379 38.9812 21.0291 39.6804 21.0291 40.5793"/>
	<path fill="#1E1E1E" d="M17.1812 40.4794C17.1812 36.8838 20.219 34.0872 23.9657 34.0872C27.611 34.0872 30.5476 36.9837 30.5476 40.4794C30.5476 44.075 27.5098 46.8716 23.9657 46.8716C20.219 46.8716 17.1812 44.075 17.1812 40.4794M19.1051 40.5793C19.1051 43.0762 21.1303 45.0738 23.6619 45.0738C26.1934 45.0738 28.2187 43.0762 28.2187 40.5793C28.2187 38.1822 26.1934 36.1846 23.6619 36.1846C21.1303 36.1846 19.1051 38.2821 19.1051 40.5793"/>
	<path fill="#F9EDBB" d="M42.7366 20.8745C42.7366 21.7571 41.8752 22.4725 40.8126 22.4725C39.75 22.4725 38.8886 21.7571 38.8886 20.8745C38.8886 19.9919 39.75 19.2764 40.8126 19.2764C41.8752 19.2764 42.7366 19.9919 42.7366 20.8745"/>
	<path fill="#F9EDBB" d="M54.1532 28.795C54.9786 29.136 55.3149 30.196 54.9043 31.1625C54.4937 32.129 53.4918 32.636 52.6664 32.295C51.7403 31.954 51.5047 30.894 51.9153 29.9275C52.3259 28.961 53.3278 28.454 54.1532 28.795"/>
	<path fill="#F9EDBB" d="M51.9867 44.4944C52.8121 44.8354 53.1484 45.8954 52.7378 46.8619C52.3272 47.8284 51.3253 48.3354 50.4999 47.9944C49.5738 47.6534 49.3382 46.5934 49.7488 45.6269C50.1594 44.6604 51.1613 44.1534 51.9867 44.4944"/>
	<path fill="#F9EDBB" d="M40.4835 53.1736C41.3089 53.5146 41.6452 54.5746 41.2346 55.5411C40.824 56.5076 39.8221 57.0146 38.9967 56.6736C38.0706 56.3326 37.835 55.2726 38.2456 54.3061C38.6562 53.3396 39.6581 52.8326 40.4835 53.1736"/>
</svg>
