<?xml version="1.0" encoding="utf-8" ?>
<svg xmlns="http://www.w3.org/2000/svg" xmlns:xlink="http://www.w3.org/1999/xlink" width="102" height="88">
	<path fill="white" d="M34.8811 88C30.8336 88 26.8874 85.8783 23.6494 82.039C23.1435 81.4328 22.8399 80.6246 22.8399 79.9173C22.8399 79.2101 23.0423 78.5029 23.5482 77.8967C23.7506 77.5936 23.953 77.1894 24.0542 76.7853C23.8518 76.7853 23.7506 76.7853 23.5482 76.7853C21.4233 76.6843 18.1854 76.5832 14.138 74.9667C7.25734 72.2388 8.87631 66.4799 9.58461 64.0551C9.78698 63.5499 9.98936 62.7417 9.98936 62.3375C9.78698 61.9334 9.6858 61.8324 9.6858 61.7313C9.48343 61.6303 9.28106 61.5293 8.9775 61.4282C8.16801 61.0241 6.8526 60.5189 4.93007 59.4076C0.275523 56.8817 -0.533963 50.7187 0.275523 45.667C0.680266 43.1412 1.79331 38.8978 4.93007 38.2916C6.65023 37.8875 8.77513 37.4834 11.3048 37.4834C15.0486 37.4834 18.1854 38.4937 20.715 40.5144C24.7625 43.8485 24.1554 46.9805 23.8518 48.9001C23.7506 49.5063 23.6494 49.9104 23.6494 50.2135C24.2565 50.0115 25.066 49.8094 25.9767 49.8094C27.5957 49.8094 29.2146 50.3146 30.8336 51.3249C34.8811 53.7497 35.4882 56.4776 35.8929 58.1952C36.0953 59.0034 36.1965 59.4076 36.5 59.8117C37.6131 58.8014 39.1309 55.9724 39.9403 53.9518C39.738 53.8507 39.5356 53.7497 39.3332 53.6487C34.4763 51.4259 30.4289 49.3042 29.0123 46.2732C27.2921 42.7371 29.7206 39.403 31.5419 37.2813C29.8218 36.473 27.5957 34.8565 26.9886 31.6234C26.3814 28.4914 27.798 26.3697 28.9111 24.9552C28.7087 24.8542 28.5063 24.7532 28.304 24.6521C26.1791 23.4397 23.3459 21.8232 22.4352 18.6912C22.0305 17.2767 22.2328 15.8622 23.0423 14.6498C23.7506 13.5385 24.8637 12.8312 26.0779 12.3261C23.8518 8.99196 23.1435 6.26406 23.953 4.04133C24.3577 2.92997 25.3696 1.01033 28.4052 0.3031C29.1135 0.101033 29.9229 0 30.6313 0C35.6905 0 39.0297 4.14237 40.7498 7.17336C41.3569 7.07233 42.0652 6.9713 42.7735 6.9713C45.5056 6.9713 47.8328 7.98163 49.3506 9.90126C50.8684 11.6188 52.1838 14.6498 50.666 19.4994C51.4755 19.8025 52.5886 20.3077 54.2075 20.9139C57.8502 22.3284 58.5585 24.8542 58.7609 26.1676C59.0644 28.5924 57.6478 30.9162 56.1301 32.6338C57.5467 34.4524 58.3561 37.4834 57.4455 42.8381C57.1419 44.6567 56.7372 46.7784 56.1301 48.9001C56.3324 48.698 56.636 48.597 56.8384 48.496C57.9514 47.8898 59.2668 47.5867 60.6834 47.5867C61.3917 47.5867 62.1 47.6877 62.8083 47.7887C62.9095 44.3536 64.6297 39.7061 70.0937 36.0689C73.3316 33.9472 76.6708 32.8358 79.9087 32.8358C81.5277 32.8358 82.9443 33.1389 84.0573 33.442C86.4858 31.0172 91.2415 27.0769 95.3901 27.0769C97.8186 27.0769 99.9435 28.3904 101.057 30.7141C103.586 35.9679 100.449 38.9989 98.4257 40.9185C96.7056 42.535 95.3901 43.8485 95.2889 46.4753C95.0866 53.3456 88.4083 53.6487 85.1704 53.7497C84.6644 53.7497 83.9561 53.7497 83.349 53.8507C85.3727 58.3972 84.2597 61.6303 82.9443 63.651C80.617 67.1871 76.1648 68.8037 73.7364 68.8037C73.1293 68.8037 72.6233 68.7026 72.2186 68.6016C71.7127 68.3995 71.3079 68.1975 70.7008 67.8944C69.7901 67.3892 68.07 66.4799 67.0581 66.4799C66.9569 66.682 66.7546 67.1871 66.7546 68.3995C66.6534 70.7233 65.6415 76.0781 57.2431 76.0781C55.017 76.0781 52.7909 75.775 51 75.4719C50.666 75.4719 50.3625 75.3708 50.0589 75.3708C49.8565 78.0987 48.7435 82.2411 41.8629 86.2824C39.232 87.3938 37.1071 88 34.8811 88"/>
	<path fill="#6A973A" d="M38.9284 10.3603C38.726 10.4613 38.6248 10.3603 38.5237 10.1582C37.8154 8.64268 34.4762 1.46932 28.7086 2.88378C23.1434 4.19722 29.0122 11.4716 30.6312 13.3913C30.8335 13.5933 30.7324 13.8965 30.4288 13.8965C28.8098 14.0984 24.2565 15.0077 25.066 17.5336C26.0778 20.7666 31.2383 21.979 32.3513 23.7976C33.4644 25.6162 29.0122 26.9298 29.7205 30.7689C30.53 34.6082 34.5774 34.5073 35.4881 35.8206C36.3988 37.134 29.9229 41.2765 31.5418 44.8126C33.1608 48.2477 42.7735 51.3797 43.2794 52.2891C43.7853 53.1983 38.726 65.4234 35.0833 62.4935C31.4407 59.5634 34.5774 56.9366 29.3158 53.7035C24.0541 50.4705 22.9411 55.8252 21.1197 52.0869C19.2984 48.3488 23.3458 46.328 18.7924 42.5899C14.2391 38.9526 7.96556 40.4682 5.53711 40.9734C3.0561 41.4785 1.08493 53.5014 6.44778 56.4314C11.8106 59.3614 11.6082 58.048 12.9237 60.8769C14.2391 63.7058 8.77505 69.1617 15.4533 71.8895C22.1316 74.6174 26.4826 72.4958 27.1909 74.6174C27.8992 76.4361 26.5837 78.7598 26.0778 79.467C25.9766 79.568 25.9766 79.7701 26.0778 79.8711C27.0897 80.9826 32.6549 87.6507 40.0414 83.3063C48.1363 78.5577 46.315 74.4154 46.9221 72.1926C47.428 70.2729 63.1118 76.8401 63.4154 68.0502C63.7189 59.2603 71.3078 64.9183 73.028 65.5245C74.647 66.1307 84.0573 63.0997 80.4146 54.916C76.7719 46.7323 91.8486 54.3097 92.0509 46.2271C92.2533 38.1445 101.259 38.0434 98.1221 31.7794C95.2889 25.9193 86.1822 35.1134 84.7656 36.6289C84.6644 36.7299 84.462 36.7299 84.3608 36.7299C83.2478 36.1237 78.492 33.7999 71.6114 38.3465C65.1355 42.6909 65.3379 48.0457 66.0462 49.6622C66.1474 49.8643 65.2367 50.9757 65.0343 50.9757C63.4154 50.8745 60.2786 49.7632 58.2549 50.8745C56.5347 51.986 52.7909 55.5221 50.9205 57.1386C50.7671 57.3407 50.2612 57.1386 50.4636 56.8355C51.3743 53.9055 53.6003 46.8332 54.2075 42.1857C55.2193 36.3259 53.9039 34.0021 52.0826 33.3959C51.779 33.2948 51.1719 32.4865 51.4754 32.2845C53.8027 30.7689 58.4573 25.7174 52.7909 23.4945C46.2138 20.8678 46.6185 20.7666 46.6185 20.5646C46.6185 20.3625 49.7553 15.0077 46.7197 11.5727C44.1901 8.74371 40.1426 9.95611 38.9284 10.3603"/>
	<path fill="#2D1B0A" d="M34.8811 85.7772C30.2265 85.7772 26.685 82.3421 25.1672 80.4224C24.9649 80.2204 24.8637 79.9173 24.8637 79.6142C24.8637 79.3111 24.9649 79.008 25.1672 78.8059C25.6732 78.0987 26.5838 76.1791 26.0779 74.9667C25.9767 74.5625 24.8637 74.5625 23.6494 74.4615C21.6257 74.3605 18.5901 74.2594 14.9475 72.845C9.78699 70.7233 10.7989 66.884 11.6083 64.3582C11.9119 63.1458 12.2154 62.0344 11.9119 61.4282C11.2036 59.9127 11.2036 59.9127 9.78699 59.3065C8.9775 59.0034 7.76327 58.3972 5.84074 57.3869C2.09687 55.3662 1.59094 49.8094 2.19806 45.768C2.40043 44.5556 3.20991 40.5143 5.23363 40.1102C8.37039 39.504 14.6439 38.1905 19.2984 41.9288C22.4352 44.4546 22.0305 46.5763 21.7269 48.3949C21.5245 49.5063 21.3222 50.5166 21.9293 51.729C22.334 52.5373 22.5364 52.5373 22.5364 52.5373C22.6376 52.5373 23.0423 52.4362 23.3459 52.3352C24.5601 51.83 26.5838 51.0218 29.8218 52.9414C33.1609 54.9621 33.5656 56.8817 33.8692 58.4982C34.1728 59.7106 34.3751 60.721 35.6905 61.7313C35.8929 61.9334 36.2977 62.0344 36.8036 61.8323C39.232 60.721 41.8629 54.5579 42.2676 52.8404C41.7617 52.5373 40.851 52.1331 40.0415 51.729C36.6012 50.1125 31.9467 47.9908 30.6313 45.3639C29.417 42.737 31.6431 40.0091 33.2621 37.9885C33.6668 37.4833 34.2739 36.7761 34.4763 36.3719C34.1728 36.1699 33.768 35.9678 33.3633 35.8668C31.7443 35.2606 29.3158 34.2502 28.7087 31.1182C28.2028 28.4913 29.6194 26.7738 30.6313 25.6624C31.1372 25.0562 31.5419 24.6521 31.4407 24.45C31.1372 23.9448 30.1253 23.3386 29.1135 22.7324C27.1909 21.6211 24.8637 20.3076 24.1554 17.8828C23.953 17.0746 24.0542 16.2663 24.4589 15.5591C25.3696 14.1446 27.5957 13.4374 29.1135 13.1343C26.0779 9.29501 24.8637 6.36504 25.572 4.34438C25.8755 3.53611 26.5838 2.42475 28.5064 1.91958C34.3751 0.40408 38.0178 6.56711 39.232 9.19398C42.6724 8.18364 45.6067 8.78984 47.3269 10.9115C48.6423 12.427 49.8565 15.256 47.6305 20.2066C48.3388 20.5097 49.7554 21.2169 52.9933 22.4293C55.523 23.4397 56.1301 24.9552 56.2313 26.0665C56.5348 28.6934 54.1063 31.2192 52.5886 32.4316C55.017 33.543 55.8265 36.7761 54.9158 42.1308C54.4099 45.768 52.9933 50.8197 51.8803 54.3559C53.8028 52.6383 56.0289 50.6176 57.3443 49.8094C59.1656 48.799 61.3917 49.2032 63.2131 49.5063C63.6178 49.6073 64.0226 49.6073 64.3261 49.7083C64.4273 49.6073 64.5285 49.5063 64.5285 49.4052C63.8202 46.8794 64.4273 41.5246 70.5996 37.2812C77.0755 33.0378 81.9324 34.4523 83.855 35.3616C85.5751 33.543 91.3427 28.0872 95.3901 28.6934C96.3008 28.7944 97.6162 29.4006 98.5269 31.1182C100.449 35.0585 98.3245 37.0792 96.3008 38.9988C94.4795 40.7164 92.6581 42.535 92.5569 45.9701C92.4558 50.9207 87.8012 51.1228 84.4621 51.2238C82.8431 51.3249 80.9206 51.3249 80.5158 52.0321C80.3135 52.3352 80.4146 53.1435 80.9206 54.2548C82.8431 58.5993 81.4265 61.5292 79.9087 63.1458C77.5814 65.6716 73.7364 66.6819 72.3198 66.1768C72.0162 66.0757 71.6115 65.8737 71.0044 65.5706C69.4866 64.7623 66.7546 63.3478 65.338 64.1561C64.3261 64.7623 64.1237 66.4799 64.0226 67.7933C63.9214 69.6119 63.3143 70.9253 62.2012 71.9357C59.4692 74.2594 54.3087 73.4512 50.6313 72.946C49.4518 72.7439 48.0352 72.5419 47.4281 72.6429C47.4281 72.946 47.4281 73.2491 47.3269 73.6532C47.2257 76.1791 47.1245 80.0183 40.1427 84.0596C38.4226 85.272 36.5 85.7772 34.8811 85.7772M26.9886 79.6142C29.417 82.3421 33.768 85.6762 39.232 82.4431C45.202 78.907 45.4044 75.977 45.4044 73.7543C45.4044 73.1481 45.4044 72.5419 45.6067 71.9357C46.0115 70.4202 47.8328 70.7233 50.9696 71.1274C54.1063 71.6326 58.9633 72.3398 60.987 70.6222C61.6953 70.016 62.1 69.2078 62.1 67.9954C62.2012 65.2675 63.0107 63.5499 64.4273 62.6406C66.8558 61.2261 70.0937 63.0447 72.0162 64.0551C72.421 64.2571 72.8257 64.4592 73.0281 64.5602C73.6352 64.7623 76.772 64.0551 78.5933 61.8323C80.1111 60.1148 80.2123 57.892 79.0992 55.2652C78.2897 53.5476 78.1886 52.1331 78.7957 51.2238C79.7063 49.7083 82.0336 49.6073 84.3609 49.5063C88.206 49.4052 90.5332 49.1021 90.5332 46.1722C90.6344 41.8277 92.9617 39.605 94.8842 37.7864C97.0091 35.7657 97.9198 34.6544 96.7056 32.2296C96.1996 31.1182 95.5925 30.9161 95.0866 30.9161C92.4558 30.512 87.5988 34.5533 84.968 37.2812C84.5633 37.6854 84.0573 37.6854 83.855 37.6854C81.8312 36.7761 77.5814 35.2606 71.6115 39.2009C65.4392 43.3432 65.9451 48.1928 66.3498 49.2032C66.6534 49.7083 66.2486 50.3145 66.1475 50.6176C65.338 52.0321 64.7309 52.0321 64.5285 52.0321C63.9214 52.0321 63.3143 51.9311 62.7071 51.729C61.1894 51.4259 59.368 51.1228 58.255 51.729C56.636 52.7393 53.0945 56.0734 51.3743 57.69C50.8684 58.1951 50.0589 58.2962 49.4518 57.791C49.0471 57.3869 48.8447 56.8817 49.1482 56.3765C50.2613 52.5373 52.285 46.0711 52.8921 41.9288C53.6004 37.4833 53.0945 34.7554 51.4755 34.2502C50.8684 34.0482 50.2613 33.2399 50.1601 32.5327C50.0589 32.0275 50.2613 31.6234 50.6313 31.3203C52.285 30.2089 54.4099 27.8851 54.2075 26.2686C54.1063 25.4603 53.398 24.8541 52.1838 24.349C45.5056 21.7221 45.3032 21.419 45.4044 20.4087C45.4044 20.2066 45.5056 20.1056 45.6067 19.8025C47.1245 16.3673 47.2257 13.8415 45.7079 12.225C43.9878 10.2043 41.2558 10.6084 39.232 11.2146C38.8273 11.4167 38.5237 11.3157 38.3214 11.2146C37.8154 11.0126 37.6131 10.6084 37.5119 10.5074C36.7024 8.58778 33.6668 2.62681 28.8099 3.83921C27.4945 4.14231 27.3933 4.74851 27.2921 4.95058C26.7862 6.36504 28.304 9.29501 31.2384 12.7301C31.5419 13.0332 31.6431 13.6394 31.4407 14.0436C31.2384 14.4477 30.8336 14.7508 30.3277 14.8518C28.6075 15.0539 26.4826 15.6601 25.8755 16.5694C25.7743 16.7715 25.6732 16.9735 25.7743 17.2766C26.2803 18.8932 28.1016 19.9035 29.8218 20.9138C31.2384 21.7221 32.3514 22.3283 32.9585 23.3386C33.768 24.7531 32.7562 25.9655 31.9467 26.8748C31.036 27.8851 30.1253 28.8955 30.4289 30.613C30.8336 32.6337 32.3514 33.3409 33.8692 33.9471C34.7799 34.2502 35.5894 34.6544 35.9941 35.2606C36.9048 36.3719 35.7917 37.6854 34.4763 39.2009C33.0597 40.8174 31.3396 42.9391 32.149 44.3536C33.0597 46.3742 37.7143 48.4959 40.5475 49.8094C42.7735 50.8197 43.4818 51.2238 43.7854 51.729C44.5949 53.2445 41.0534 60.5189 38.4226 62.8427C36.2977 64.5602 34.7799 63.853 34.0716 63.2468C32.149 61.7313 31.8455 60.2158 31.5419 58.8013C31.2384 57.2858 30.9348 56.0734 28.4052 54.5579C26.0779 53.1435 24.8637 53.6486 23.7506 54.0528C22.334 54.659 21.0186 54.861 19.8044 52.4362C18.8937 50.6176 19.1973 49.0011 19.3996 47.7887C19.7032 46.1722 19.9056 45.0608 17.6795 43.3432C13.7332 40.2112 8.2692 41.3226 5.63837 41.8277C4.7277 42.1308 3.71584 44.4546 3.61466 47.8897C3.51347 51.628 4.52533 54.4569 6.44786 55.4672C8.2692 56.4776 9.38224 56.8817 10.1917 57.2858C12.0131 58.0941 12.4178 58.3972 13.3285 60.3168C13.9356 61.6303 13.5309 63.2468 13.1261 64.6613C12.3166 67.5912 12.0131 69.4098 15.3522 70.7233C18.6913 72.0367 21.3222 72.1377 23.3459 72.2388C25.3696 72.3398 27.0898 72.3398 27.5957 74.0574C28.6075 76.1791 27.7981 78.3008 26.9886 79.6142M26.5838 79.109C26.5838 79.109 26.685 79.2101 26.685 79.2101C26.685 79.2101 26.685 79.109 26.5838 79.109M64.7309 49.9104C64.7309 49.9104 64.7309 50.0114 64.7309 50.0114C64.832 50.0114 64.832 50.0114 64.7309 49.9104M29.8218 14.1446C29.923 14.1446 29.923 14.2456 29.8218 14.1446C29.923 14.2456 29.923 14.1446 29.8218 14.1446"/>
</svg>
