<?xml version="1.0" encoding="utf-8" ?>
<svg xmlns="http://www.w3.org/2000/svg" xmlns:xlink="http://www.w3.org/1999/xlink" width="76" height="88">
	<path fill="white" d="M16.3339 84.1563L19.547 80.3126L19.7478 70.1977L19.045 73.2322L14.7273 78.6943L10.0081 74.9517L13.422 70.6023L15.7314 60.892L21.4548 55.531C21.5552 54.9241 21.5552 54.823 21.5552 54.7218C18.1413 56.9471 14.4261 57.3517 12.3175 57.3517C11.213 57.3517 10.0081 57.2506 9.00395 57.0483C4.68632 56.2391 1.37278 53.8115 0.368682 50.777C-0.83624 46.6299 0.368682 40.3586 12.3175 33.7839C15.4302 32.1655 18.8441 30.6483 21.8564 29.5356L19.7478 29.2322L15.3298 20.0276L20.7519 17.3977L23.7642 23.669L27.379 24.1747C26.0737 22.2529 25.4712 20.0276 25.4712 17.6C25.4712 14.5655 26.5757 11.6322 28.5839 9.4069C28.4835 9.2046 28.2827 9.0023 28.1823 8.90115C26.5757 6.67586 26.6761 3.43908 26.7765 2.52874L26.9774 0.505747L33.002 1.01149L32.8011 3.03448C32.7007 3.94483 32.9016 5.05747 33.1024 5.36092C33.3032 5.56322 33.504 5.86667 33.7048 6.06897C35.0102 5.66437 36.3155 5.36092 37.7212 5.36092C39.0266 5.36092 40.2315 5.56322 41.4364 5.96782C41.9385 5.46207 42.1393 5.05747 42.1393 4.85517L42.3401 0L48.3647 0.303448L48.1639 5.15862C48.0635 6.57471 47.5614 7.9908 46.5573 9.30575C48.5655 11.531 49.67 14.4644 49.67 17.6C49.67 19.8253 49.0676 21.9494 48.0635 23.7701L51.0758 16.0828L56.7992 18.1057L52.8832 29.2322C56.2971 30.446 60.1127 32.0644 63.5266 33.8851C75.7767 40.6621 76.8812 46.9333 75.5759 51.0805C74.6722 54.1149 71.3586 56.5425 67.041 57.3517C65.9365 57.554 64.832 57.6552 63.6271 57.6552C60.5143 57.6552 57.502 56.846 54.9918 55.4299L58.6065 59.9816L60.6147 68.377L63.2254 74.2437L57.7029 76.7724L55.1926 71.108L54.9918 80.0092L58.1045 81.931L54.9918 87.0897L48.8668 83.3471L49.0676 75.8621C45.6536 80.2115 41.2356 82.5379 38 82.8414C37.8217 82.8414 37.6208 82.8414 37.3196 82.8414C34.7089 82.8414 31.5962 81.3241 28.8852 78.8966C28.0819 78.1885 27.0778 77.177 26.0737 75.7609L25.9733 82.5379L21.3544 88L16.3339 84.1563M54.0881 68.8828L53.1844 65.0391L52.8832 66.4552C52.8832 66.4552 52.7828 66.7586 52.6824 67.2644L54.0881 68.8828M20.3503 67.8713C21.4548 67.2644 21.6556 67.1632 21.8564 66.9609C21.8564 66.9609 21.8564 66.8598 21.8564 66.8598L21.3544 64.7356C21.5552 64.4322 21.4548 64.2299 21.4548 63.9264L20.3503 67.8713"/>
	<path fill="#2D1B0A" d="M14.4261 75.6597L12.9199 74.3447L15.3298 71.209L17.5388 61.701L26.375 53.5079L27.7806 55.0252L19.3462 62.8137L17.2376 72.1194"/>
	<path fill="#2D1B0A" d="M20.6515 85.0667L19.1453 83.7518L21.5552 80.9196L21.756 69.1862C22.9609 68.4782 24.1658 67.5678 24.6679 66.961L26.2745 68.1747C25.672 68.9839 24.4671 69.8943 23.8646 70.2989L23.6638 81.7288L20.6515 85.0667"/>
	<path fill="#2D1B0A" d="M58.3054 73.9402L56.2971 69.4897L54.4897 61.6L47.6618 52.9011L49.2684 51.6874L56.2971 60.6897L58.3054 68.8828L60.1128 73.1311"/>
	<path fill="#2D1B0A" d="M53.8873 84.1563L50.5737 82.1334L50.7746 71.007L47.1598 66.4552L48.7664 65.2414L52.7828 70.2989L52.582 81.0207L54.9918 82.4368"/>
	<path fill="#2D1B0A" d="M50.3728 61.0943C50.3728 73.9403 41.1352 79.3012 37.2192 79.7242C33.3032 80.1104 24.0655 73.8392 24.0655 61.0943C24.0655 48.3495 29.8892 33.3794 37.2192 33.3794C44.5491 33.3794 50.3728 48.3495 50.3728 61.0943"/>
	<path fill="#2D1B0A" d="M36.9179 80.8184C34.8093 80.8184 32.1986 79.5035 29.7888 77.3793C27.2785 75.1541 23.1617 69.9954 23.1617 61.1954C23.1617 47.9449 29.2867 32.469 37.3195 32.469C45.3523 32.469 51.4774 47.9449 51.4774 61.1954C51.4774 74.0414 42.34 80.3127 37.4199 80.8184C37.2191 80.8184 37.1187 80.8184 36.9179 80.8184M37.3195 34.3908C30.7929 34.3908 25.1699 49.0575 25.1699 61.0943C25.1699 69.1862 28.8851 73.738 31.0941 75.761C33.5039 77.9862 35.8134 78.7954 37.1187 78.6943C40.2314 78.3908 49.2683 73.4345 49.2683 61.0943C49.3687 49.0575 43.8462 34.3908 37.3195 34.3908"/>
	<path fill="#FFC145" d="M28.4835 17.3978C28.4835 12.3403 32.4999 8.1932 37.6208 8.1932C42.7417 8.1932 46.5573 12.2392 46.5573 17.3978C46.5573 22.4553 42.6413 26.4001 37.6208 26.4001C32.6003 26.4001 28.4835 22.253 28.4835 17.3978"/>
	<path fill="#2D1B0A" d="M37.6208 27.3105C31.9979 27.3105 27.4794 22.8599 27.4794 17.2967C27.4794 11.6323 31.9979 7.0806 37.6208 7.0806C43.1434 7.0806 47.5614 11.5312 47.5614 17.2967C47.461 22.9611 43.1434 27.3105 37.6208 27.3105M37.6208 9.20474C33.1024 9.20474 29.4876 12.8461 29.4876 17.3978C29.4876 21.7473 33.1024 25.3886 37.6208 25.3886C42.0389 25.3886 45.5532 21.8484 45.5532 17.3978C45.4528 12.745 42.0389 9.20474 37.6208 9.20474"/>
	<path fill="#F8D57B" d="M29.8892 32.7724C29.8892 28.5241 33.2028 25.1861 37.42 25.1861C41.6372 25.1861 44.8503 28.5241 44.8503 32.7724C44.8503 36.9194 41.5368 40.2575 37.42 40.2575C33.3032 40.2575 29.8892 36.9194 29.8892 32.7724"/>
	<path fill="#2D1B0A" d="M37.42 41.269C32.7007 41.269 28.9855 37.5264 28.9855 32.7724C28.9855 28.0183 32.7007 24.1747 37.42 24.1747C42.0388 24.1747 45.8545 28.0183 45.8545 32.7724C45.7541 37.4253 42.0388 41.269 37.42 41.269M37.42 26.2988C33.8052 26.2988 30.9937 29.131 30.9937 32.8735C30.9937 36.4137 33.9057 39.347 37.42 39.347C40.9343 39.347 43.8462 36.4137 43.8462 32.8735C43.7458 29.2321 40.9343 26.2988 37.42 26.2988"/>
	<path fill="#F4F4F4" d="M31.0743 29.53C31.0743 29.53 21.2341 32.2666 13.9041 36.2115C6.67459 40.1563 2.05573 44.9104 3.36106 49.6644C4.86721 54.5196 17.1172 56.7448 23.0414 49.2598C29.066 41.8759 31.4759 37.3241 32.7812 33.0758C34.2874 29.2321 31.0743 29.53 31.0743 29.53"/>
	<path fill="#2D1B0A" d="M12.4178 55.0253C11.4136 55.0253 10.4095 54.9241 9.40545 54.7218C5.79068 54.0138 3.07961 52.1931 2.37674 49.8666C0.971 45.0115 4.78658 39.954 13.4219 35.2C20.7518 31.2551 30.3912 28.5241 30.7928 28.4209C31.1944 28.4209 32.801 28.4209 33.7047 29.5356C34.4076 30.4459 34.4076 31.7609 33.7047 33.3793C32.0981 38.3356 29.0858 43.2919 23.7641 49.7655C20.6514 53.7103 16.3337 55.0253 12.4178 55.0253M31.1944 30.5471C30.0899 30.8505 21.053 33.4804 14.3255 37.1218C9.9075 39.5494 2.87879 44.3034 4.28453 49.3609C4.78658 50.8781 6.9956 52.2942 9.80709 52.8C13.4219 53.508 18.844 52.8 22.1575 48.5517C28.6842 40.662 30.6924 36.1103 31.7969 32.7724C32.299 31.3563 32.0981 30.9517 31.9977 30.8505C31.8973 30.6483 31.4957 30.5471 31.1944 30.5471"/>
	<path fill="#F4F4F4" d="M44.2611 29.5303C44.2611 29.5303 54.302 32.2667 61.7325 36.3127C69.0623 40.3587 73.7816 45.2139 72.3759 49.9679C70.8698 54.9242 58.5193 57.1495 52.2938 49.5633C46.1689 42.0782 43.759 37.4254 42.3533 33.1771C41.1484 29.2322 44.2611 29.5303 44.2611 29.5303"/>
	<path fill="#2D1B0A" d="M63.2337 55.4299C59.3208 55.4299 54.7056 54.115 51.495 50.1701C44.7728 42.0782 42.5655 37.1219 41.3615 33.4805C40.8599 31.8621 41.048 30.5471 41.6625 29.6368C42.5655 28.5221 44.1708 28.5221 44.3715 28.5221C44.9734 28.6253 54.8059 31.3563 62.2304 35.4023C70.9592 40.2575 74.7717 45.4161 73.3671 50.1701C72.6648 52.4966 69.9559 54.4184 66.3439 55.1265C65.441 55.3288 64.3373 55.4299 63.2337 55.4299M44.1708 30.5471C43.9701 30.5471 43.4685 30.6483 43.2678 30.8506C43.0672 31.1541 43.0672 31.8621 43.3681 32.7724C44.5721 36.3127 46.6791 40.9655 53.2006 48.8552C56.7122 53.2046 62.3307 53.8115 66.0429 53.1035C68.8522 52.5977 71.0595 51.1816 71.5612 49.5632C73.0661 44.5058 65.8423 39.6506 61.4277 37.1219C54.5049 33.4805 45.2744 30.8506 44.1708 30.5471"/>
	<path fill="#F8D57B" d="M25.2704 50.6759C25.2704 50.6759 29.588 47.4391 37.0184 47.1275C44.3483 46.9334 49.0676 50.5748 49.0676 50.5748C49.0676 50.5748 50.1721 55.8345 50.1721 57.8575C49.3688 57.0483 43.7458 54.6207 36.6168 54.6207C29.4876 54.6207 24.1659 57.3517 24.1659 57.3517L25.2704 50.6759"/>
	<path fill="#2D1B0A" d="M51.2766 60.2851L49.5696 58.5647C49.0675 58.0587 43.7458 55.6298 36.7171 55.6298C29.9896 55.6298 24.7683 58.1599 24.6679 58.2611L22.9609 59.1719L24.3666 50.1649C24.8687 49.8613 29.2867 46.6228 37.0183 46.2101C44.6495 46.0156 49.5696 49.7601 49.7704 49.8613C50.172 50.6709 51.2766 55.9334 51.2766 57.9575L51.2766 60.2851M36.7171 53.6058C41.9384 53.6058 46.5573 54.9214 49.1679 56.0346C48.9671 54.4154 48.5655 52.3913 48.3647 51.1769C47.2601 50.4685 43.0429 47.9384 37.2191 48.1409C31.2949 48.4445 27.3789 50.5697 26.2744 51.2781L25.5716 55.731C27.6802 54.9214 31.797 53.6058 36.7171 53.6058"/>
	<path fill="#F8D57B" d="M24.5675 65.7471C24.5675 65.7471 29.086 62.308 37.0184 62.308C44.9508 62.308 49.9713 65.6459 49.9713 65.6459C49.9713 65.6459 49.7704 66.7586 49.3688 67.9724C48.9672 69.4896 48.2643 70.6022 48.2643 70.3999C48.1639 69.3885 41.6372 68.2758 36.8175 68.377C31.797 68.4781 26.0737 70.3999 26.0737 70.3999L25.17 68.2758L24.5675 65.7471"/>
	<path fill="#2D1B0A" d="M25.5716 71.7149L24.3667 68.5793L23.5634 65.3425C24.2663 64.8367 28.9855 61.2965 37.1188 61.2965C45.252 61.2965 50.3729 64.6344 50.5737 64.7356L51.0758 65.8482C51.0758 65.8482 50.7745 67.062 50.4733 68.2758C49.4692 71.6137 48.7663 71.5126 48.3647 71.5126C46.3565 70.1976 41.4364 69.2873 37.0184 69.3885C32.1987 69.4896 26.5757 71.3103 26.5757 71.4114L25.5716 71.7149M26.1741 67.9724L26.6761 69.1862C28.4835 68.6804 32.9015 67.4666 36.8175 67.3655C36.9179 67.3655 44.7499 67.3655 47.9631 68.8827C48.0635 68.5793 48.2643 68.0735 48.3647 67.6689C48.5655 67.062 48.6659 66.5563 48.7663 66.0505C47.2602 65.2413 43.043 63.2183 37.0184 63.2183C31.0942 63.2183 27.0778 65.2413 25.672 66.0505L26.1741 67.9724"/>
	<path fill="#2D1B0A" d="M42.1393 28.423L41.8381 26.4L49.5697 25.2874L52.0799 18.4092L53.8873 19.1172L51.0758 27.1081"/>
	<path fill="#2D1B0A" d="M32.7007 28.7265L21.1536 27.2092L18.0408 20.7357L19.8482 19.8253L22.4589 25.2874L33.0019 26.7035"/>
	<path fill="#2D1B0A" d="M32.2991 10.6207C32.1987 10.5195 30.8934 9.0023 29.7888 7.48506C28.4835 5.76552 28.7101 2.83219 28.7101 2.42759L30.7929 2.62989C30.6925 3.33793 30.7929 5.36092 31.3954 6.27127C32.3995 7.68736 33.8052 9.30575 33.8052 9.30575L32.2991 10.6207"/>
	<path fill="#2D1B0A" d="M41.838 10.4184L40.9343 8.59768C41.7376 8.09194 44.047 6.5747 44.047 4.754L44.1475 1.92183L46.1557 2.02297L46.0553 4.85515C45.8544 8.19308 41.9384 10.3172 41.838 10.4184"/>
</svg>
