<?xml version="1.0" encoding="utf-8" ?>
<svg xmlns="http://www.w3.org/2000/svg" xmlns:xlink="http://www.w3.org/1999/xlink" width="86" height="86">
	<path fill="white" d="M73.1746 85.0851C71.6832 84.2719 69.6948 83.9669 67.8058 83.7636L63.1329 83.1537L65.6185 79.0875C66.5133 77.5626 67.5075 75.9362 67.7064 74.4113C67.8058 73.6998 67.7064 72.8865 67.4081 72.1749C61.4428 79.5957 52.4948 83.9669 43 83.9669C33.6046 83.8652 24.8555 79.5957 18.8902 72.3783C18.8902 72.6832 18.8902 72.9882 18.8902 73.2931C19.089 74.818 20.0832 76.5461 20.978 77.9693L23.4636 82.0355L18.7908 82.6454C16.9017 82.8487 14.8139 83.1537 13.422 83.9669L11.7318 84.9835L8.84855 79.6974L10.5387 78.6809C11.6324 78.0709 12.8254 77.6643 13.9191 77.3593C13.5214 76.4444 13.2231 75.3262 13.0243 74.208C12.6266 71.4634 13.422 68.7187 15.0127 66.3806C12.726 61.9078 11.5329 56.8251 11.5329 51.7423C11.5329 48.896 11.9306 46.0496 12.6266 43.4066C11.9306 44.7281 11.7318 46.4563 11.5329 47.9811L10.837 52.7589L6.95954 50.1158C5.26936 48.9976 3.67861 47.8794 1.98844 47.5745L0 47.1678L1.19306 41.1702L3.1815 41.5768C4.37457 41.7801 5.56763 42.2884 6.56185 42.7967C6.86012 41.7801 7.2578 40.7636 7.85434 39.8487C9.64393 37.0024 12.9249 35.0709 16.3052 34.8676C17.9954 32.0213 20.1827 29.4799 22.6682 27.2435C22.8671 26.1253 23.1653 25.0071 23.563 23.8889L19.9838 20.5343L18.5919 15.2482L12.4277 17.8913L10.141 12.3002L22.5688 6.91253L25.2532 17.1797L26.6451 18.5012C28.2358 16.6714 30.2243 15.1466 32.511 14.13C33.0081 12.6052 33.9029 11.182 34.9965 9.96217L30.622 3.55792L35.4936 0L40.2659 6.91253C40.9618 6.70922 41.7572 6.70922 42.4532 6.70922C43.5468 6.70922 44.541 6.91253 45.5353 7.21749L50.5064 0.304965L55.2786 3.86288L50.5064 10.5721C51.4012 11.6903 52.0971 13.0118 52.4948 14.435C54.0855 15.2482 55.5769 16.3664 56.8694 17.6879L58.1618 16.5697L60.8462 6.3026L73.274 11.6903L70.9873 17.2813L64.8231 14.6383L63.4312 19.9243L60.3491 22.7707C60.7468 23.6856 61.0451 24.4988 61.3434 25.4137C64.0277 27.3452 66.3145 29.5816 68.3029 32.2246C68.6012 32.2246 68.8 32.2246 69.0983 32.2246C72.6775 32.2246 76.2566 34.156 78.1457 37.2057C78.7422 38.2222 79.1399 39.2388 79.4382 40.1537C80.4324 39.6454 81.6254 39.2388 82.8185 38.9338L84.8069 38.5272L86 44.5248L84.0116 44.9314C82.3214 45.2364 80.7306 46.3546 79.0405 47.4728L75.163 50.1158L74.4671 45.3381C74.1688 43.6099 73.9699 41.6785 73.0751 40.357C72.8763 40.052 72.6775 39.8487 72.4786 39.6454C73.9699 43.4066 74.7653 47.5745 74.7653 51.6407C74.7653 56.8251 73.5723 62.0095 71.1861 66.5839C73.1746 68.922 74.1688 72.1749 73.7711 75.2246C73.5723 76.3428 73.274 77.461 72.8763 78.3759C73.9699 78.6809 75.163 79.0875 76.2566 79.6974L77.9468 80.7139L75.0636 86L73.1746 85.0851"/>
	<path fill="#2D1B0A" d="M50.2081 17.078C50.2081 21.2887 46.8696 24.7021 42.7514 24.7021C38.6332 24.7021 35.2948 21.2887 35.2948 17.078C35.2948 12.8673 38.6332 9.4539 42.7514 9.4539C46.8696 9.4539 50.2081 12.8673 50.2081 17.078"/>
	<path fill="#2D1B0A" d="M42.7514 25.7187C38.0786 25.7187 34.3005 21.8558 34.3005 17.078C34.3005 12.3002 38.0786 8.43735 42.7514 8.43735C47.4242 8.43735 51.2022 12.3002 51.2022 17.078C51.2022 21.8558 47.4242 25.7187 42.7514 25.7187M42.7514 10.4705C39.1722 10.4705 36.289 13.4184 36.289 17.078C36.289 20.7376 39.1722 23.6856 42.7514 23.6856C46.3307 23.6856 49.2138 20.7376 49.2138 17.078C49.2138 13.4184 46.3307 10.4705 42.7514 10.4705"/>
	<path fill="#FF6B64" d="M14.7145 51.4373C14.7145 35.2743 27.4405 22.2624 43.2486 22.2624C58.9573 22.2624 71.7827 35.2743 71.7827 51.4373C71.7827 67.4988 58.9573 80.6124 43.2486 80.6124C27.4405 80.5107 14.7145 67.3972 14.7145 51.4373"/>
	<path fill="#2D1B0A" d="M43.348 81.6289C27.0428 81.5272 13.8197 68.0071 13.8197 51.4374C13.8197 34.766 27.0428 21.2459 43.348 21.2459C59.6532 21.2459 72.8763 34.766 72.8763 51.4374C72.8763 68.1088 59.6532 81.6289 43.348 81.6289M43.348 23.1773C28.1365 23.1773 15.8081 35.7825 15.8081 51.3357C15.8081 66.7873 28.2359 79.4941 43.4474 79.4941C58.659 79.4941 70.9873 66.8889 70.9873 51.3357C70.9873 35.7825 58.5596 23.1773 43.348 23.1773"/>
	<path d="M24.9549 54.5886C24.9549 51.4373 27.341 49.0993 30.3237 49.0993C33.3064 49.0993 35.5931 51.539 35.5931 54.5886C35.5931 57.6383 33.2069 59.9763 30.3237 59.9763C27.2416 59.9763 24.9549 57.5366 24.9549 54.5886"/>
	<path d="M18.7907 41.6785C18.7907 40.052 20.1826 38.5272 21.8728 38.5272C23.563 38.5272 24.9549 39.9504 24.9549 41.6785C24.9549 43.305 23.563 44.8298 21.8728 44.8298C20.1826 44.8298 18.7907 43.305 18.7907 41.6785"/>
	<path d="M24.8555 69.6336C24.8555 68.0071 26.2474 66.4823 27.9376 66.4823C29.5284 66.4823 31.0197 67.9055 31.0197 69.6336C31.0197 71.3617 29.6278 72.7849 27.9376 72.7849C26.3468 72.7849 24.8555 71.2601 24.8555 69.6336"/>
	<path d="M49.4127 54.5886C49.4127 51.4373 51.7988 49.0993 54.7815 49.0993C57.7642 49.0993 60.0509 51.539 60.0509 54.5886C60.0509 57.6383 57.6647 59.9763 54.7815 59.9763C51.6994 59.9763 49.4127 57.5366 49.4127 54.5886"/>
	<path d="M61.9399 41.6785C61.9399 40.052 63.3318 38.5272 65.022 38.5272C66.6127 38.5272 68.1041 39.9504 68.1041 41.6785C68.1041 43.305 66.7122 44.8298 65.022 44.8298C63.3318 44.8298 61.9399 43.305 61.9399 41.6785"/>
	<path d="M54.185 69.6336C54.185 68.0071 55.5769 66.4823 57.2671 66.4823C58.9573 66.4823 60.3492 67.9055 60.3492 69.6336C60.3492 71.3617 58.9573 72.7849 57.2671 72.7849C55.5769 72.7849 54.185 71.2601 54.185 69.6336"/>
	<path fill="#2D1B0A" d="M9.44509 48.896L8.1526 47.9811C6.36301 46.7612 4.47399 45.5414 2.48555 45.1348L2.88324 43.1017C4.77226 43.5083 6.46243 44.4232 7.95376 45.4398C8.25202 43.7116 8.64971 41.9835 9.64393 40.4587C11.4335 37.6123 14.9132 35.9858 18.1943 36.4017L17.896 38.5272C15.4104 38.1206 12.6265 39.3405 11.3341 41.5769C10.3399 43.2033 9.9422 45.4398 9.64393 47.3711L9.44509 48.896"/>
	<path fill="#2D1B0A" d="M76.7538 46.3547L76.5549 44.7281C76.2567 42.7968 75.9584 40.662 74.8648 38.9339C73.4729 36.6975 70.7885 35.4776 68.3029 35.8842L68.0046 33.7588C71.2856 33.3428 74.7653 34.9693 76.5549 37.8157C77.5492 39.3405 77.9468 41.1703 78.2451 42.7968C79.7365 41.7802 81.4266 40.8653 83.3156 40.4587L83.7133 42.4918C81.6254 42.8984 79.8358 44.1183 78.0462 45.3382L76.7538 46.3547"/>
	<path fill="#2D1B0A" d="M12.726 81.8322L11.7318 80.104C13.4219 79.0875 15.3109 78.7825 17.1005 78.4775C16.2057 76.9527 15.5098 75.3262 15.2115 73.5981C14.7144 70.2435 16.4046 66.6856 19.1884 64.8558L20.1826 66.5839C17.9953 67.9054 16.7029 70.6501 17.1005 73.2931C17.3988 75.2246 18.4924 77.156 19.4867 78.7825L20.282 80.104L18.6913 80.3073C16.7029 80.5106 14.5156 80.8156 12.726 81.8322"/>
	<path fill="#2D1B0A" d="M74.3677 83.052C72.5781 82.0354 70.2914 81.7304 68.2035 81.5271L66.6128 81.3238L67.4081 80.0023C68.4024 78.3758 69.496 76.4444 69.7943 74.5129C70.1919 71.9716 68.8995 69.2269 66.6128 67.8037L67.7064 66.0756C70.4902 67.8037 72.1804 71.4633 71.6833 74.8179C71.4844 76.6477 70.6891 78.2742 69.7943 79.6973C71.5839 80.0023 73.4729 80.3073 75.163 81.3238L74.3677 83.052"/>
	<path fill="#2D1B0A" d="M52.6947 36.2908L32.0149 36.2908C28.4357 36.2908 25.5525 33.3428 25.5525 29.6833C25.5525 21.7542 31.9155 15.2482 39.6704 15.2482L44.9398 15.2482C52.6947 15.2482 59.0602 21.7542 59.0602 29.6833C59.1571 33.3428 56.2739 36.2908 52.6947 36.2908"/>
	<path fill="#2D1B0A" d="M52.6954 37.3075L32.0144 37.3075C27.9378 37.3075 24.5573 33.9528 24.5573 29.6833C24.5573 21.1443 31.3184 14.2318 39.6703 14.2318L44.94 14.2318C53.292 14.2318 60.0552 21.1443 60.0552 29.6833C60.1525 33.8512 56.8714 37.3075 52.6954 37.3075M39.7698 16.2649C32.5115 16.2649 26.6453 22.2625 26.6453 29.6833C26.6453 32.733 29.131 35.2744 32.1138 35.2744L52.7948 35.2744C55.7776 35.2744 58.2633 32.733 58.2633 29.6833C58.2633 22.2625 52.3971 16.2649 45.1389 16.2649L39.7698 16.2649"/>
	<path fill="#2D1B0A" d="M27.2416 23.8889L21.9723 19.0095L20.1827 12.097L13.7202 14.8417L12.9249 13.0119L21.4751 9.3523L23.7619 17.8913L28.6336 22.3641"/>
	<path fill="#2D1B0A" d="M56.5711 23.2789L55.2786 21.7542L60.1503 17.2813L62.437 8.64065L70.8878 12.4019L70.0925 14.2317L63.7295 11.487L61.8405 18.3995"/>
	<path fill="white" d="M38.9734 9.75887L34.4 3.1513"/>
	<path fill="#2D1B0A" d="M33.8753 3.57723L35.4986 2.40326L40.0925 9.04254L38.4691 10.2165L33.8753 3.57723"/>
	<path fill="white" d="M46.4301 11.182L51.9977 3.45626"/>
	<path fill="#2D1B0A" d="M45.7583 10.4992L51.3243 2.69808L52.9309 3.89618L47.3649 11.6973L45.7583 10.4992"/>
</svg>
