<?xml version="1.0" encoding="utf-8" ?>
<svg xmlns="http://www.w3.org/2000/svg" xmlns:xlink="http://www.w3.org/1999/xlink" width="66" height="86">
	<path fill="white" d="M53.8528 47.3754L44.6411 42.145L50.2086 42.145L61.0399 57.2327L66 53.7123L53.3466 36.1099L42.4141 36.1099L51.727 27.6608L53.0429 12.5731L46.9693 12.0702L46.362 18.5076C45.8558 16.6971 44.9448 14.8865 43.8313 13.2772C44.6411 12.8749 45.4509 12.2713 46.2607 11.5673C48.589 9.15322 49.6012 5.53216 49.6012 4.22456L49.6012 1.3076L43.5276 1.3076L43.5276 4.02339C43.4264 4.52632 42.9202 6.33684 41.908 7.24211C40.8957 8.24795 39.4785 8.54971 38.7699 8.54971C36.9479 7.54386 35.0245 6.83977 32.8988 6.83977C31.2791 6.83977 29.7607 7.24211 28.2423 7.84561C25.9141 6.83977 25.1043 6.23626 24.6994 5.83392C24.2945 5.43158 23.5859 3.62105 23.2822 2.0117L22.9785 0L17.0061 1.00585L17.3098 3.01754C17.411 3.82222 18.3221 8.24795 20.4479 10.2596C21.1564 10.9637 21.9663 11.4667 22.8773 12.0702C21.1564 14.0819 19.9417 16.5965 19.3344 19.0105L18.727 11.2655L12.6534 11.7684L13.8681 26.8561L24.092 36.0094L12.6534 36.0094L0 53.6117L4.96012 57.1322L15.7914 42.0444L22.2699 42.0444L11.5399 48.1801L7.28834 71.214L0.506135 80.8702L5.46626 84.2901L12.9571 73.5275L17.0061 52.0023L20.8528 49.7895C18.2209 53.7123 16.6012 58.8421 16.2975 64.4749C16.0951 70.1076 18.3221 75.6398 22.5736 80.0655C25.9141 83.586 30.2669 86 33.2025 86C38.2638 86 50.2086 77.8526 50.2086 65.0784C50.2086 63.8713 50.1074 62.7649 50.0061 61.6585L52.0307 72.7228L59.7239 83.4854L64.684 79.9649L57.8006 70.3088L53.8528 47.3754M44.8436 49.186L48.3865 51.1977L49.9049 59.848C48.9939 55.724 47.1718 52.1029 44.8436 49.186"/>
	<path fill="#2D1B0A" d="M18.5081 65.0783C19.1319 53.3099 26.0153 44.7602 32.7975 44.7602C39.681 44.7602 48.3865 53.9134 48.3865 65.4807C48.3865 77.0479 37.5552 84.3916 33.4049 84.3916C29.3558 84.4912 18.0184 76.7462 18.5081 65.0783"/>
	<path fill="#2D1B0A" d="M26.2684 40.4351C26.2684 36.3111 29.3052 32.9918 33.0506 32.9918C36.6948 32.9918 39.7316 36.2105 39.7316 40.4351C39.7316 44.6596 36.6948 46.0722 33.0506 46.0722C29.1028 46.1684 26.2684 44.5591 26.2684 40.4351"/>
	<path fill="#2D1B0A" d="M21.1057 23.0339C21.1057 16.8982 26.4708 9.2538 33.0505 9.2538C39.6302 9.2538 44.8941 16.7977 44.8941 23.0339C44.8941 29.2702 39.529 34.2994 33.0505 34.2994C26.4708 34.2994 21.1057 29.2702 21.1057 23.0339"/>
	<path fill="#2D1B0A" d="M27.635 12.3719C25.9141 11.6678 23.3835 10.5614 22.0675 9.2538C20.2454 7.54386 19.4356 3.31929 19.4356 3.11812L21.4601 2.81637C21.7638 4.32514 22.4724 6.94035 23.4847 7.84561C24.2945 8.65029 25.9141 9.55555 28.3436 10.5614L27.635 12.3719"/>
	<path fill="#2D1B0A" d="M38.5675 13.076L38.5675 11.0643C38.5675 11.0643 41.4018 11.0643 43.4264 9.15321C44.9448 7.54386 45.5521 5.12982 45.6534 4.6269L47.6779 3.82222C47.6779 5.53216 46.7669 8.65029 44.8436 10.662C42.2117 12.9754 38.7699 13.076 38.5675 13.076"/>
	<path fill="#2D1B0A" d="M27.8374 37.0152L15.9939 26.3531L14.9816 13.9812L17.0061 13.8806L18.0184 25.3473L29.1534 35.5063"/>
	<path fill="#2D1B0A" d="M4.65638 54.8186L3.03675 53.6116L13.868 38.5239L27.2301 38.5239L27.2301 40.5356L14.8804 40.5356"/>
	<path fill="#2D1B0A" d="M5.16258 81.9766L3.54295 80.7696L9.41412 72.4211L13.5644 49.8901L26.7239 42.3462L27.7362 44.1567L15.3865 51.1977L11.2362 73.2257"/>
	<path fill="#2D1B0A" d="M37.8588 37.7192L36.5429 36.311L47.7791 26.152L48.7914 14.5847L50.8159 14.7858L49.7024 27.1577"/>
	<path fill="#2D1B0A" d="M61.4448 54.8186L51.2209 40.5356L38.8712 40.5356L38.8712 38.5239L52.2332 38.5239L63.0645 53.6116"/>
	<path fill="#2D1B0A" d="M60.3312 81.0713L54.1564 72.421L50.1073 50.2924L37.7576 43.2514L38.7699 41.5415L51.9294 49.0854L56.0798 71.6164L62.0521 79.9649"/>
</svg>
