<?xml version="1.0" encoding="utf-8" ?>
<svg xmlns="http://www.w3.org/2000/svg" xmlns:xlink="http://www.w3.org/1999/xlink" width="86" height="80">
	<path fill="white" d="M43.8 80C39.1 80 34.7 77.5124 31.2 72.9353C28.2 75.2239 25.5 76.7164 23 76.7164C22.6 76.7164 22.2 76.7164 21.8 76.6169C21 76.5174 19.6 75.9204 18.5 74.3284C17 72.1393 16.3 68.9552 16.1 65.6716C11 74.6269 9 75.4229 7.1 75.4229L3 75.4229L3 69.4527L6.5 69.4527C7.3 68.6567 10.1 65.0746 17.3 50.4478C18.1 45.9701 19.5 39.9005 21.9 34.7264C17.8 34.0299 16.1 33.8308 15.4 33.8308C14.1 34.6269 10.3 37.5124 5.3 41.592L3.8 42.8856L0 38.3085L1.5 37.0149C6.1 33.2338 12 28.5572 13.7 28.0597C14.3 27.9602 14.6 27.8607 15 27.8607C15.9 27.8607 17.9 28.0597 25.2 29.2537C26.3 27.8607 27.3 26.7662 28.3 25.9701C27.8 24.5771 27.4 23.0846 27.3 21.592C25.4 20.199 22.5 17.8109 20.7 15.1244C17.9 11.1443 17.8 5.87065 17.9 3.78109L18 1.99005L24 1.79104L23.9 4.0796C23.8 5.27363 23.8 9.25373 25.6 11.7413C26.2 12.6368 27 13.6318 28 14.5274C28.3 13.6318 28.6 12.8358 29 12.0398C28.5 11.4428 28.2 10.6468 28 9.95025C27.5 8.1592 27.8 6.26866 28.8 4.57711C30 2.58706 32.1 0.995025 34.6 0.39801C35.5 0.199005 36.4 0 37.3 0C38.9 0 40.5 0.39801 41.8 1.09453C42.4 1.49254 43 1.89055 43.5 2.38806C43.9 2.08955 44.3 1.79104 44.7 1.49254C46 0.696517 47.5 0.39801 49.2 0.39801C50.1 0.39801 51.1 0.497512 52 0.79602C54.4 1.39303 56.5 2.88557 57.7 4.97512C58.7 6.66667 59 8.55721 58.5 10.3483C58.3 11.0448 58 11.8408 57.5 12.4378C57.8 13.1343 58.1 13.8308 58.4 14.6269C59.5 13.6318 60.3 12.6368 60.9 11.8408C62.9 9.15423 62.8 5.17413 62.8 3.9801L62.7 1.69154L65.8 1.69154L68.7 1.69154L68.8 3.58209C68.9 6.26866 68.7 11.2438 66 15.1244C64.2 17.9104 61.1 20.398 59.3 21.6915C59.2 22.8856 58.9 24.0796 58.6 25.1741C59.7 26.0697 60.9 27.2637 62 28.8557C68.4 27.7612 70.2 27.6617 71 27.6617C71.4 27.6617 71.7 27.6617 71.9 27.7612C74 28.4577 79.9 33.0348 84.5 36.8159L86 38.1095L82.2 42.6866L80.7 41.393C75.7 37.3134 71.8 34.4279 70.6 33.6318C70 33.7313 68.5 33.8308 65.2 34.3284C66.2 36.4179 67.2 38.806 67.9 40.995C68.9 44.1791 69.9 49.1542 70.6 54.0299C76.5 65.5721 78.9 68.5572 79.6 69.2537L83 69.2537L83 75.2239L78.9 75.2239C76.8 75.2239 74.9 73.9303 71 67.3632C70.5 71.2438 69.3 73.6318 67.3 74.4279C66.7 74.7264 65.9 74.8259 65.1 74.8259C63 74.8259 60.4 73.8308 57.5 71.7413C53.5 77.0149 48.8 80 43.8 80"/>
	<path fill="#2D1B0A" d="M80.4 73.2339L78.3 73.2339C76.7 73.2339 74.2 71.6418 64.5 52.0398L66.3 51.1443C75.3 69.2538 77.8 71.0448 78.3 71.2438L80.4 71.2438L80.4 73.2339"/>
	<path fill="#2D1B0A" d="M81.3 39.9005C76.2 35.7214 71.4 32.1393 70.4 31.6418C70 31.6418 67.8 31.7413 57.1 33.6319L56.7 31.6418C69.4 29.3533 70.4 29.5987 70.8 29.5987C72.6 30.2488 81.5 37.413 82.5 38.3085L81.3 39.9005"/>
	<path fill="#2D1B0A" d="M59.9 50.0499C59.9 64.9423 52.5575 77.015 43.5 77.015C34.4425 77.015 27.1 64.9423 27.1 50.0499C27.1 35.1573 34.4425 23.0847 43.5 23.0847C52.5575 23.0847 59.9 35.1573 59.9 50.0499"/>
	<path fill="#2D1B0A" d="M43.5 78.01C33.9 78.01 26.1 65.4727 26.1 50.0498C26.1 34.6269 33.9 22.0896 43.5 22.0896C53.1 22.0896 60.9 34.6269 60.9 50.0498C60.9 65.4727 53.1 78.01 43.5 78.01M43.5 24.0796C35 24.0796 28.1 35.7214 28.1 50.0498C28.1 64.3782 35 76.0199 43.5 76.0199C52 76.0199 58.9 64.3782 58.9 50.0498C58.9 35.7214 52 24.0796 43.5 24.0796"/>
	<path fill="#2D1B0A" d="M6.7 73.4329L4.6 73.4329L4.6 71.4428L6.7 71.4428C7.2 71.3433 9.7 69.4528 18.7 51.3433L20.5 52.2388C10.8 71.8408 8.3 73.4329 6.7 73.4329"/>
	<path fill="#2D1B0A" d="M3.6 40L2.3 38.5074C3.3 37.7114 12.2 30.4477 13.9 29.7976C14.4 29.7976 15.4 29.5522 28.1 31.8408L27.7 33.8308C17.1 31.9403 14.8 31.8408 14.4 31.8408C13.5 32.2388 8.7 35.9204 3.6 40"/>
	<path fill="#2D1B0A" d="M30.4 21.4925C29.6 20.9951 24.5 17.7115 22 13.9305C19.4758 10.5473 19.4758 5.6717 19.4758 3.78115L21.5 3.68165C21.4 5.5722 21.5 9.8508 23.6 12.8359C25.8 16.219 30.6 19.403 31.3 19.8011L30.4 21.4925"/>
	<path fill="#EFEBE8" d="M41.8 36.2188C41.8 36.2188 38.9001 43.4825 44.1001 53.2338C49.3 62.786 61.5 73.5323 65.5 71.7412C69.4 70.1492 67.3 50.8457 64.4 41.8905C61.5 32.8358 56.4 26.1691 54.1 26.6405C51.8 28.5572 48.4001 29.9502 48.4001 29.9502L41.8 36.2188"/>
	<path fill="#2D1B0A" d="M64.4 72.9353C58.7 72.9353 47.5 61.7825 43.1 53.6172C37.8 43.5598 40.6 36.0915 40.8 35.7927L47.8 29.121C48 29.0214 51.3 27.6273 53.5 25.8349C57.5 24.8392 62.8 33.3033 65.4 41.4687C68 49.4349 70.9 70.4458 65.9 72.5369C65.4 72.8357 65 72.9353 64.4 72.9353M42.6 36.7885C42.2 37.9834 40.5 44.456 44.9 52.8205C50.1 62.4796 61.9 72.3378 65 70.9437C67.7 69.8483 66.7 52.721 63.4 42.2653C60.5 33.2037 55.9 27.9261 54.4 27.7269C52.3 29.4198 49.6 30.6147 48.8 30.9134L42.6 36.7885"/>
	<path fill="#EFEBE8" d="M31.3832 27.6497C31.3832 27.6497 29.5831 27.1643 26.0831 32.5374C22.6831 37.8111 20.7831 45.3733 19.6831 51.7413C17.2831 63.8807 18.9831 73.2339 21.9831 73.7314C24.8831 74.3284 28.9832 70.7464 33.0831 67.3633C37.1832 63.9803 42.3831 58.01 44.1832 48.8559C45.9832 39.5025 42.3831 33.632 42.3831 33.632L31.3832 27.6497"/>
	<path fill="#2D1B0A" d="M22.6999 74.6269C22.3999 74.6269 22.0999 74.6269 21.8999 74.5274C21.0999 74.4279 20.3999 73.9304 19.7999 73.0348C17.3999 69.5522 16.9999 60.6964 18.7999 51.4425C19.7999 45.7708 21.5999 37.6115 25.2999 31.9398C28.8999 26.4671 31.0999 26.6395 31.6165 26.6395L42.9999 32.7358C43.2999 33.2333 46.8999 39.3031 44.9999 48.8554C43.0999 58.3083 37.7999 64.4775 33.5999 67.9601C29.4999 71.5423 25.7999 74.6269 22.6999 74.6269M31.1999 28.6562C30.7999 28.7557 29.3999 29.3527 26.9999 33.0343C23.4999 38.4075 21.6999 46.3678 20.6999 51.8405C18.7999 61.6914 19.5999 69.4527 21.3999 71.9403C21.6999 72.3383 21.9999 72.5373 22.1999 72.6368C24.4999 73.1343 28.5999 69.7512 32.0999 66.7661C36.3999 63.184 41.4999 57.4128 43.1999 48.4574C44.6999 40.5966 42.1999 35.3229 41.5999 34.2284L31.1999 28.6562"/>
	<path fill="#2D1B0A" d="M55.8 19.8011C55.8 27.3848 49.9797 33.5325 42.8 33.5325C35.6203 33.5325 29.8 27.3848 29.8 19.8011C29.8 12.2175 35.6203 6.0698 42.8 6.0698C49.9797 6.0698 55.8 12.2175 55.8 19.8011"/>
	<path fill="#2D1B0A" d="M42.8 34.5274C35.1 34.5274 28.8 27.8608 28.8 19.8011C28.8 11.7414 35.1 5.0747 42.8 5.0747C50.5 5.0747 56.8 11.7414 56.8 19.8011C56.8 27.8608 50.5 34.5274 42.8 34.5274M42.8 6.96525C36.2 6.96525 30.8 12.7364 30.8 19.7016C30.8 26.6667 36.2 32.4379 42.8 32.4379C49.4 32.4379 54.8 26.6667 54.8 19.7016C54.8 12.7364 49.4 6.96525 42.8 6.96525"/>
	<path fill="#2D1B0A" d="M55.4 21.4925L54.4 19.801C55.1 19.403 59.9 16.3184 62.1 12.9353C64.3 9.95025 64.3 5.67165 64.2 3.9801L66.2 3.7811L65.2 3.7811L66.2 3.7811C66.3 5.77115 66.2 10.6468 63.7 14.0299C61.4 17.6119 56.2 20.995 55.4 21.4925"/>
	<path fill="#FFC31A" d="M30.6 9.05472C29.9 6.56716 31.9 3.88059 35 3.18407C38.2 2.28855 41.2 3.58208 41.9 6.16915C42.6 8.65671 40.6 11.3433 37.4 12.0398C34.4 12.7363 31.3 11.4428 30.6 9.05472"/>
	<path fill="#2D1B0A" d="M35.5963 13.2339C32.6948 13.2339 30.2936 11.7423 29.6933 9.35591C29.3931 8.06327 29.5582 6.6712 30.2936 5.47799C31.194 3.88705 32.8949 2.69384 34.7959 2.29611C36.7969 1.79894 38.8979 2.02977 40.4987 2.89271C41.6993 3.58875 42.5998 4.68252 42.8999 5.97516C43.2001 7.2678 43 8.65987 42.2996 9.85307C41.3992 11.444 39.6983 12.6372 37.6973 13.1344C36.8969 13.1344 36.2966 13.2339 35.5963 13.2339M31.5942 8.7593C32.0945 10.6485 34.5957 11.6429 37.1971 11.0463C38.6978 10.6485 39.8984 9.85307 40.5988 8.7593C40.8989 8.26213 41.1991 7.36723 40.999 6.37289C40.7989 5.57742 40.2986 4.98082 39.4982 4.48365C38.3977 3.78762 36.8969 3.68818 35.2961 4.08592C33.8954 4.48365 32.5947 5.27912 31.9944 6.37289C31.6943 6.9695 31.2941 7.76497 31.5942 8.7593"/>
	<path fill="#FFC31A" d="M55.2001 9.45274C55.9001 6.96518 53.9001 4.2786 50.8 3.58209C47.6 2.68657 44.6 3.9801 43.9 6.56717C43.2 9.05473 45.2 11.7413 48.4 12.4378C51.4 13.2338 54.5001 11.9403 55.2001 9.45274"/>
	<path fill="#2D1B0A" d="M50.197 13.6319C49.4966 13.6319 48.7963 13.5324 48.0959 13.3336C46.0949 12.8364 44.394 11.6431 43.4936 10.0522C42.7582 8.85896 42.5931 7.46687 42.8933 6.17422C43.1934 4.88156 44.0939 3.78778 45.2945 3.09173C46.8953 2.22878 48.9964 1.99795 50.9974 2.49512C52.8983 2.9923 54.5992 4.18552 55.4996 5.67704C56.2 6.87026 56.4001 8.26235 56.0999 9.555C55.4996 12.1403 53.0984 13.6319 50.197 13.6319M48.7963 4.28495C47.8958 4.28495 46.9953 4.48382 46.395 4.88156C45.5946 5.2793 45.0944 5.97535 44.8943 6.77083C44.5941 7.76518 44.9943 8.56066 45.2945 9.15726C45.9948 10.251 47.1954 11.146 48.6962 11.4443C51.2975 12.0409 53.7988 11.0465 54.299 9.2567C54.5992 8.26235 54.199 7.46687 53.8988 6.87026C53.2985 5.77648 51.9979 4.88156 50.5972 4.58326C49.8968 4.38439 49.3966 4.28495 48.7963 4.28495"/>
</svg>
