<?xml version="1.0" encoding="utf-8" ?>
<svg xmlns="http://www.w3.org/2000/svg" xmlns:xlink="http://www.w3.org/1999/xlink" width="100" height="78">
	<path fill="white" d="M49.35 78C47.7531 78 46.1562 77.1979 45.0583 75.9949C43.661 74.1902 43.0622 71.6838 43.162 68.2751L43.162 65.7686L43.162 60.5553C43.162 60.3548 43.162 60.2545 43.162 60.1542L43.162 55.4422C43.162 55.3419 43.162 55.1414 43.162 55.0411L43.162 50.5296C43.162 50.329 43.162 50.2288 43.162 50.0283L43.162 45.3162C43.162 45.1157 43.162 45.0154 43.162 44.8149L43.162 35.7918C36.6745 38.2982 27.7916 41.4062 22.9011 42.2082C22.0028 42.509 21.1045 42.509 20.5057 42.509C15.4155 42.509 12.9203 39.3008 12.3215 36.5938C11.6228 33.2853 13.2197 28.874 18.5095 26.7686C18.7091 26.6684 19.0086 26.5681 19.2082 26.4679C18.5095 26.4679 17.8109 26.4679 17.212 26.4679C16.2139 26.4679 15.2159 26.4679 14.3176 26.3676C8.72839 26.1671 4.53648 24.3625 2.04129 21.2545C0.144946 18.7481 -0.453898 15.6401 0.344561 12.3316C1.14302 9.32391 3.73802 4.2108 13.2197 4.2108C15.0163 4.2108 16.713 4.31105 18.4097 4.61183C22.1026 5.21337 33.0814 8.32134 40.9662 10.6272C40.9662 10.527 40.9662 10.527 41.066 10.4267C40.0679 9.32391 39.4691 7.82005 39.4691 6.21594C39.4691 2.8072 42.2637 0 45.6572 0C47.5535 0 49.2502 0.802057 50.4479 2.20566C51.5458 0.902314 53.2425 0.100257 55.0391 0.100257C58.4325 0.100257 61.2271 2.90746 61.2271 6.3162C61.2271 8.02057 60.5285 9.62468 59.3308 10.7275C59.3308 10.8278 59.4306 10.928 59.4306 11.0283C66.2175 8.82262 78.5936 4.9126 82.4861 4.2108C84.083 3.91003 85.68 3.80977 87.3767 3.80977C96.8584 3.80977 99.154 9.52442 99.653 12.0308C100.451 15.3393 99.8526 18.4473 98.0561 20.9537C95.8603 24.162 91.7682 26.0668 86.3786 26.2674C85.5801 26.3676 84.6819 26.3676 83.6838 26.3676C82.7855 26.3676 81.7875 26.3676 80.7894 26.2674C81.1886 26.3676 81.488 26.5681 81.8873 26.6684C86.8776 28.7738 88.4746 33.2853 87.8757 36.4936C87.3767 39.2005 85.0811 42.4087 79.9909 42.4087C79.6915 42.4087 79.3921 42.4087 78.9929 42.3085C78.7932 42.3085 78.5936 42.3085 78.394 42.3085C72.6052 41.4062 62.1254 37.2956 56.8356 35.1902C56.8356 37.3959 56.8356 40.9049 56.8356 44.8149C56.8356 44.9152 56.8356 45.0154 56.8356 45.1157L56.8356 50.2288L56.8356 65.4679C56.7358 66.4704 56.7358 67.2725 56.636 67.874L56.636 68.8766C56.5362 72.4859 56.4364 76.9974 50.3481 77.7995"/>
	<path fill="#443225" d="M49.4061 74.5913C48.6076 74.5913 47.909 74.1903 47.4099 73.5887C46.0126 71.7841 46.2024 68.1748 46.2024 67.6736L46.2024 34.9897C46.2024 33.3856 46.2024 31.8818 47.1105 30.8792C47.7094 30.2777 48.408 29.9769 49.5059 29.9769C52.4003 29.9769 53.4982 31.7815 53.598 31.8818C53.7976 33.5862 53.7976 63.2622 53.598 67.5733L53.598 68.6761C53.4982 72.2854 53.3984 74.09 49.9051 74.5913C49.7055 74.5913 49.6057 74.5913 49.4061 74.5913"/>
	<path fill="#2D1B0A" d="M49.9002 75.5938C48.5029 75.5938 47.405 75.0925 46.7063 74.2905C45.7083 72.9871 45.2092 70.7815 45.2092 67.874L45.2092 35.09C45.2092 33.2853 45.2092 31.6812 46.3071 30.3779C47.1056 29.5758 48.2035 29.1748 49.501 29.1748C51.4971 29.1748 53.1938 29.9769 54.3915 31.3805L54.7908 32.4833C54.7908 35.6915 54.7908 63.4627 54.5911 67.6735L54.5911 68.6761C54.4913 72.1851 54.3915 74.9923 49.9002 75.5938M49.4011 31.0797C48.4031 31.0797 48.0038 31.3805 47.7044 31.6812C47.1056 32.383 47.1056 33.5861 47.1056 35.09L47.1056 67.874C47.0058 70.982 47.6046 72.3856 48.1037 72.9871C48.4031 73.2879 48.9021 73.5887 49.3013 73.5887C52.1958 73.1877 52.2956 72.2853 52.3954 68.6761L52.3954 67.6735C52.595 63.4627 52.595 36.2931 52.595 32.6838C51.9962 31.581 50.7985 31.0797 49.4011 31.0797"/>
	<path fill="#EEFAFF" d="M79.9909 39.2005C79.4918 39.2005 78.893 39.1002 78.394 39.1002C71.6069 37.9974 55.3384 31.0797 54.6397 30.7789L56.6359 25.6658C58.0332 25.6658 74.8008 26.7687 80.7893 29.1748C84.1828 30.5784 85.3804 33.5861 84.9812 35.6915C84.6817 37.2956 83.2845 39.2005 79.9909 39.2005"/>
	<path fill="#2D1B0A" d="M79.9909 40.2031C79.6915 40.2031 79.4918 40.2031 79.1924 40.2031C78.893 40.2031 78.6934 40.2031 78.394 40.2031C71.108 39 54.4402 31.8818 54.2406 31.7815L52.2444 30.9794L56.1369 24.7635C58.0332 24.7635 75.0005 25.9666 81.1886 28.3727C85.1809 30.0771 86.4784 33.4859 85.9793 35.9923C85.5801 37.8972 83.7836 40.2031 79.9909 40.2031M78.4938 38.0977C78.7932 38.0977 79.0926 38.0977 79.392 38.1979C79.5916 38.1979 79.8911 38.1979 80.0907 38.1979C83.3843 38.1979 83.9832 36.1928 84.083 35.5913C84.3824 33.8869 83.3843 31.3805 80.4899 30.1774C74.8009 27.9717 58.7319 26.7686 57.3346 26.6684L55.3384 29.8766C56.9353 30.5784 72.1061 36.8946 78.4938 38.0977"/>
	<path fill="#EEFAFF" d="M20.6055 39.1003C17.3119 39.1003 15.7149 37.2957 15.3157 35.5913C14.8167 33.4859 16.1142 30.5785 19.7073 29.1749C25.9951 26.7687 43.5612 25.7661 44.4594 25.7661L48.1524 30.3779C46.3559 31.0797 29.2887 37.8972 22.3022 39C21.8032 39.1003 21.2044 39.1003 20.6055 39.1003"/>
	<path fill="#2D1B0A" d="M20.6055 40.1029C16.713 40.1029 14.8167 37.8973 14.4175 35.7919C13.8186 33.2854 15.2159 29.8767 19.4078 28.2726C25.9951 25.7661 43.5612 24.7635 44.5593 24.7635L49.7493 30.779L47.1543 31.7815C40.4672 34.3882 28.3905 38.8997 22.6017 39.9024C21.903 40.1029 21.2044 40.1029 20.6055 40.1029M44.4595 26.6684C43.0622 26.6684 25.9951 27.7713 20.1065 30.0772C17.0125 31.2803 16.0144 33.6864 16.3138 35.2906C16.5134 36.0926 17.3119 38.0977 20.6055 38.0977C21.1046 38.0977 21.6036 38.0977 22.0028 37.9975C26.2945 37.2957 34.9778 34.4885 46.4557 29.9769L44.4595 26.6684"/>
	<path fill="#F7B000" d="M50.6475 32.383C49.4498 32.383 46.6552 32.383 44.9584 30.5783C43.9604 29.5758 43.7426 28.2724 43.7426 26.5681C44.16 21.6555 46.0563 16.6426 50.3417 16.6426C51.5457 16.6426 52.8432 17.2442 53.8413 18.347C55.7377 20.3521 57.0352 24.0616 56.9407 27.2698C56.4363 30.5783 54.2406 32.383 50.6475 32.383"/>
	<path fill="#2D1B0A" d="M50.6475 33.3856C49.35 33.3856 46.2559 33.3856 44.16 31.2802C43.0621 30.1773 42.6504 28.5732 42.6504 26.4678C43.0621 21.1542 45.2579 15.5398 50.2515 15.5398C51.7454 15.5398 53.3423 16.2416 54.54 17.5449C56.6359 19.7506 58.0332 23.8611 57.8336 27.1696C57.4344 31.1799 54.7396 33.3856 50.6475 33.3856M50.2515 17.5449C46.6552 17.5449 44.9584 22.257 44.659 26.5681C44.5592 27.9717 44.8586 29.0745 45.6571 29.7763C47.0544 31.2802 49.5496 31.2802 50.6475 31.2802C53.7415 31.2802 55.538 29.8766 55.8375 26.9691C56.0371 24.2622 54.8394 20.7532 53.0429 18.8483C52.2444 18.0462 51.2463 17.5449 50.2515 17.5449"/>
	<path fill="#EEFAFF" d="M17.4116 23.0591C16.4135 23.0591 15.5152 23.0591 14.7168 22.9589C9.92602 22.7584 6.43276 21.3548 4.53642 18.9486C3.1663 17.2442 2.83969 15.0385 3.43854 12.5321C4.13719 9.82518 6.43276 6.81747 13.3195 6.81747C14.7168 6.81747 16.3137 6.91773 18.0104 7.2185C23.3002 8.12081 45.5573 14.7378 46.5554 15.0385L47.1542 16.2416C47.1542 16.3419 47.254 16.6427 47.254 16.8432C47.4536 17.6453 47.6532 18.6478 47.0544 19.5501C46.6552 20.1517 45.9565 20.653 44.8586 20.653C41.3654 21.455 26.0948 23.0591 17.4116 23.0591"/>
	<path fill="#2D1B0A" d="M17.4116 24.0617C16.4135 24.0617 15.4155 24.0617 14.617 23.9614C9.62664 23.7609 5.93376 22.2571 3.738 19.5501C2.24089 17.545 1.74185 15.0385 2.4405 12.3316C3.13916 9.3239 5.63434 5.8149 13.3195 5.8149C15.0162 5.8149 16.5134 5.91516 18.1103 6.21593C23.4999 7.11824 46.4556 14.036 46.755 14.1362L48.7512 14.7378L48.0525 16.3419C48.0525 16.4421 48.0525 16.5424 48.0525 16.6427C48.2521 17.3445 48.5516 18.7481 47.6533 20.0514C47.0544 20.9537 46.0564 21.455 44.7589 21.6555C41.2656 22.4576 26.1947 24.0617 17.4116 24.0617M13.3195 7.82004C8.22934 7.82004 5.23511 9.52441 4.33685 12.8329C3.83781 15.0385 4.13723 16.9434 5.33492 18.347C7.03165 20.5527 10.4251 21.856 14.8166 21.9563C15.6151 22.0565 16.5134 22.0565 17.4116 22.0565C25.9951 22.0565 41.1658 20.4524 44.5593 19.5501C45.5573 19.4499 46.0564 19.1491 46.256 18.8483C46.5554 18.347 46.4556 17.6452 46.3558 16.9434C46.3558 16.7429 46.3558 16.6427 46.3558 16.5424C46.3558 16.4421 46.256 16.2416 46.256 16.1414C44.3596 15.3393 23.1007 9.02313 18.0105 8.12081C16.3137 7.9203 14.8166 7.82004 13.3195 7.82004"/>
	<path fill="#EEFAFF" d="M83.6824 23.0591C75.4982 23.0591 61.1259 21.3547 57.7325 20.5526C56.7344 20.3521 56.0358 19.9511 55.6365 19.3496C55.0377 18.347 55.2373 17.3444 55.4369 16.5424C55.4369 16.3419 55.5367 16.0411 55.5367 15.9408L56.0358 14.838C56.934 14.5372 77.9934 7.61949 82.884 6.81744C84.4809 6.51667 85.978 6.41641 87.2755 6.41641C93.8628 6.41641 96.0586 9.62464 96.6574 12.2313C97.2562 14.7377 96.857 17.0436 95.5595 18.748C93.8628 21.2544 90.4693 22.658 85.978 22.8586C85.479 23.0591 84.6805 23.0591 83.6824 23.0591"/>
	<path fill="#2D1B0A" d="M83.6838 24.0617C75.4996 24.0617 61.1273 22.3573 57.5343 21.5552C56.2368 21.2545 55.3385 20.7532 54.8395 19.8509C54.1408 18.6478 54.1408 17.4447 54.54 16.4421C54.54 16.3419 54.54 16.1413 54.6398 16.0411L54.1408 14.437L55.9373 13.9357C56.0371 13.9357 77.7952 6.71718 82.8854 5.91513C84.3825 5.61436 85.8796 5.5141 87.4765 5.5141C95.2615 5.5141 97.2576 9.62464 97.7567 12.1311C98.3555 14.838 97.9563 17.4447 96.559 19.4498C94.6626 22.1568 91.1694 23.7609 86.2788 23.9614C85.5802 24.0617 84.6819 24.0617 83.6838 24.0617M56.636 15.8406C56.636 16.2416 56.636 16.3419 56.5362 16.4421C56.5362 16.5424 56.5362 16.5424 56.5362 16.6426C56.3366 17.5449 56.2368 18.2467 56.636 18.8483C56.9354 19.3496 57.5343 19.5501 58.0333 19.6503C61.5266 20.4524 75.8988 22.1568 83.7836 22.1568C84.6819 22.1568 85.4803 22.1568 85.9794 22.0565C90.1713 21.856 93.3651 20.5527 94.8622 18.347C95.9601 16.8431 96.2596 14.838 95.7605 12.6323C95.2615 10.3264 93.4649 7.51924 87.3767 7.51924C85.9794 7.51924 84.5821 7.6195 83.1848 7.92027C78.394 8.72233 58.8317 15.0385 56.636 15.8406"/>
	<path fill="#FFC31A" d="M50.5466 23.3599C49.2491 23.3599 46.0552 23.3599 44.1589 21.3548C43.061 20.2519 42.7468 18.7481 42.7468 16.8432C43.3605 9.72491 46.0552 5.41386 50.1474 5.41386C51.5447 5.41386 53.0417 6.21592 54.2394 7.51926C56.4352 9.92543 57.7327 14.1362 57.4333 17.4447C57.1339 21.2545 54.6387 23.3599 50.5466 23.3599"/>
	<path fill="#2D1B0A" d="M50.5477 24.3624C49.0506 24.3624 45.6572 24.3624 43.4614 22.0565C42.1639 20.653 41.7523 18.9486 41.7523 16.8432C42.3635 9.12338 45.4575 4.51155 50.1485 4.51155C51.8452 4.51155 53.5419 5.31361 54.9392 6.91772C57.2348 9.5244 58.7319 14.036 58.4325 17.6453C58.0333 21.856 55.1389 24.3624 50.5477 24.3624M50.0487 6.41643C46.6552 6.41643 44.2598 10.4267 43.661 16.8432C43.5612 18.4473 43.9604 19.6503 44.8587 20.5527C46.4556 22.257 49.2502 22.257 50.5477 22.257C53.0429 22.257 56.1369 21.3548 56.4364 17.3444C56.7358 14.2365 55.4383 10.3265 53.4421 8.1208C52.3443 7.11823 51.1466 6.41643 50.0487 6.41643"/>
	<path fill="#443225" d="M48.851 5.91517C48.851 7.68703 47.4211 9.12339 45.6572 9.12339C43.8933 9.12339 42.4634 7.68703 42.4634 5.91517C42.4634 4.14331 43.8933 2.70694 45.6572 2.70694C47.4211 2.70694 48.851 4.14331 48.851 5.91517"/>
	<path fill="#443225" d="M55.0391 9.12339C53.3424 9.12339 51.8453 7.82006 51.8453 5.91517C51.8453 4.2108 53.2426 2.70694 55.0391 2.70694C56.7358 2.70694 58.2329 4.11055 58.2329 5.91517C58.2329 7.71979 56.7358 9.12339 55.0391 9.12339"/>
	<path fill="#FFF5EE" d="M53.7927 45.3162L52.595 44.7147C50.8983 43.9126 49.0019 43.9126 47.3052 44.7147L46.2073 45.216C46.2073 44.1131 46.6065 43.6119 47.1056 43.3111C48.9021 42.509 50.8983 42.509 52.6948 43.2108C53.4933 43.5116 53.7927 44.1131 53.7927 44.8149"/>
	<path fill="#FFF5EE" d="M53.7927 50.5295L52.595 49.928C50.8983 49.1259 49.0019 49.1259 47.3052 49.928L46.2073 50.4293C46.2073 49.3264 46.6065 48.8252 47.1056 48.5244C48.9021 47.7223 50.8983 47.7223 52.6948 48.4241C53.4933 48.7249 53.7927 49.3264 53.7927 50.0282"/>
	<path fill="#FFF5EE" d="M53.7927 55.4421L52.595 54.8406C50.8983 54.0385 49.0019 54.0385 47.3052 54.8406L46.2073 55.3419C46.2073 54.239 46.6065 53.7378 47.1056 53.437C48.9021 52.6349 50.8983 52.6349 52.6948 53.3367C53.4933 53.6375 53.7927 54.239 53.7927 54.9408"/>
	<path fill="#FFF5EE" d="M53.7927 60.5552L52.595 59.9537C50.8983 59.1516 49.0019 59.1516 47.3052 59.9537L46.2073 60.455C46.2073 59.3521 46.6065 58.8509 47.1056 58.5501C48.9021 57.748 50.8983 57.748 52.6948 58.4498C53.4933 58.7506 53.7927 59.3521 53.7927 60.0539"/>
</svg>
