<?xml version="1.0" encoding="utf-8" ?>
<svg xmlns="http://www.w3.org/2000/svg" xmlns:xlink="http://www.w3.org/1999/xlink" width="102" height="100">
	<path fill="white" d="M99.3792 40.7482C101.274 38.726 102.172 36.0971 102 33.0637C101.673 30.2326 100.476 28.0081 98.3817 26.3903C95.9877 24.5703 92.5961 23.5592 88.2071 23.5592C86.4116 23.5592 84.4166 23.7614 82.3218 24.0647C80.1273 24.368 67.2594 26.8959 60.6758 28.5137C65.1646 25.8847 72.7457 21.4358 74.1422 20.9302C76.1372 20.2224 76.8355 18.2002 77.434 14.2568C77.833 12.0324 78.3318 9.1001 79.5288 7.98787C81.5238 6.26896 83.2195 6.06673 83.8181 6.06673C83.9178 6.06673 84.0176 6.06673 84.1173 6.06673L86.3118 6.16785L86.5113 0.202224L84.6161 0C84.4166 0 84.1173 0 83.8181 0C82.1223 0 78.9303 0.404449 75.5387 3.3367C72.6459 5.7634 71.9477 10.0101 71.4489 13.1446C71.2494 14.3579 71.0499 15.0657 70.9502 15.5713C68.5562 16.6835 63.9676 19.4135 60.0773 21.638C59.5786 18.0991 56.9851 15.0657 53.6933 13.9535L53.6933 2.52781L47.7082 2.52781L47.7082 14.0546C44.5162 15.1668 42.0224 18.0991 41.5237 21.638C37.7331 19.4135 33.1446 16.7846 30.8503 15.6724C30.7506 15.2679 30.5511 14.459 30.3516 13.2457C29.8528 10.0101 29.1545 5.86451 26.2618 3.43782C22.8702 0.505561 19.6782 0.101112 17.9824 0.101112C17.6832 0.101112 17.3839 0.101112 17.1844 0.101112L15.2892 0.303337L15.4887 3.23559L15.4887 6.26896L17.7829 6.16785C17.8827 6.16785 17.9824 6.16785 18.0822 6.16785C18.7805 6.16785 20.4762 6.37007 22.4712 8.08898C23.6682 9.1001 24.167 12.1335 24.4663 14.2568C25.0648 18.0991 25.763 20.2224 27.6583 20.8291C28.955 21.3347 35.3391 25.0758 39.9276 27.7048C33.0448 26.087 21.773 23.9636 19.6782 23.6603C17.6832 23.3569 15.6882 23.1547 13.7929 23.1547C9.40387 23.1547 5.91258 24.0647 3.61831 25.9858C1.52354 27.6036 0.326533 29.8281 0 32.5581C-0.172222 35.6926 0.725537 38.3215 2.6208 40.3438C5.81283 43.7816 11.0996 44.4894 14.8902 44.4894C16.7854 44.4894 26.0623 43.3771 34.0423 42.4671L26.3615 45.2983L30.3516 58.1395C17.3839 67.8463 12.4961 71.0819 11.6981 71.4863C11.2991 71.5875 10.8004 71.6886 10.4014 71.6886C9.70312 71.6886 9.30412 71.5875 9.30412 71.5875L7.40885 70.7786L5.31408 76.4408L7.20935 77.1486C7.40885 77.2497 8.70561 77.6542 10.5011 77.6542C11.5984 77.6542 12.6956 77.452 13.7929 77.1486C14.5909 76.8453 16.4862 76.2386 35.8379 61.6785L38.1321 69.8686C34.6408 79.7776 31.0498 89.2821 29.8528 92.0121C29.7531 92.0121 29.6533 92.1132 29.6533 92.1132C29.3541 92.3155 29.0548 92.4166 28.7555 92.6188C28.157 92.9221 27.2593 93.4277 26.96 93.6299L25.0648 94.2366L26.7605 100L28.6558 99.3933C29.6533 99.09 30.7506 98.4833 31.7481 97.8766C31.7481 97.8766 32.3466 97.5733 32.4463 97.4722C32.8453 97.27 33.3441 96.9666 33.8428 96.6633C36.3366 93.2255 44.0174 71.2841 44.1172 71.0819L40.3267 53.185L43.3192 50.7583C43.5187 51.0617 43.6184 51.365 43.8179 51.6684C44.2169 52.3761 44.5162 53.0839 44.6159 53.4884C44.9152 55.0051 45.0149 71.183 44.9152 74.6208C44.9152 74.7219 44.5162 82.1031 47.5087 85.3387C48.4065 86.3498 49.6035 86.8554 51 86.8554C54.7905 86.8554 57.0848 82.4065 57.0848 74.8231L57.0848 53.9939C57.5836 53.0839 58.2818 51.7695 58.8803 50.2528L61.4738 52.275L57.3841 69.2619C57.7831 70.273 65.4639 92.2144 67.1596 94.8433C68.4564 95.9555 68.8554 96.1577 69.2544 96.36C69.4539 96.4611 69.7532 96.6633 70.0524 96.7644C71.0499 97.3711 72.1472 97.9778 73.1447 98.2811L75.04 98.8878L76.7357 93.1244L74.8405 92.5177C74.4415 92.4166 73.5437 91.911 72.9452 91.5066C72.6459 91.3043 72.3467 91.1021 71.9477 90.8999C71.9477 90.8999 71.8479 90.8999 71.8479 90.7988C70.6509 88.0688 67.0599 78.5642 63.5686 68.6552L65.5636 60.2629C85.2146 75.0253 87.1098 75.632 88.0076 76.0364C89.0051 76.3397 90.1024 76.542 91.0999 76.542C92.8954 76.542 94.1921 76.1375 94.3916 76.0364L96.2869 75.3286L94.8904 71.5875L94.2919 69.6663L92.3966 70.4752C92.3966 70.4752 91.8979 70.6775 91.1996 70.6775C90.8006 70.6775 90.3019 70.5763 89.9029 70.4752C89.5039 70.273 86.6111 68.6552 71.1497 57.1284L75.1397 44.2872L72.4464 43.276C79.03 44.0849 85.4141 44.7927 86.9103 44.7927C90.9004 44.8938 96.1872 44.186 99.3792 40.7482M67.4589 49.3428L64.1671 46.7139L67.8579 48.0283L67.4589 49.3428M37.7331 47.5228L34.4413 50.1517L34.0423 48.9383L37.7331 47.5228"/>
	<path fill="#BCBFBA" d="M44.9379 37.9171C44.9379 37.9171 46.3338 32.6593 43.9408 31.7493C41.5476 30.8392 22.6028 26.997 19.5118 26.4914C13.4295 25.4803 4.05665 25.4803 3.34275 32.6593C2.95983 39.8383 10.139 41.256 15.2241 41.256C18.2155 41.3549 44.9379 37.9171 44.9379 37.9171"/>
	<path fill="#2D1B0A" d="M15.1872 42.3661C11.6954 42.3661 7.00652 41.7593 4.31288 38.8271C2.81641 37.2094 2.11806 35.187 2.2842 32.6593C2.51712 30.4348 3.51477 28.7159 5.111 27.4014C9.00181 24.3681 15.8856 24.8736 19.6766 25.4803C22.8691 25.9859 41.9241 29.727 44.4182 30.7381C47.5109 32.0526 46.1142 37.5126 45.9147 38.1194C43.9194 39.1305 18.1801 42.3661 15.1872 42.3661M13.99 27.0981C11.1966 27.0981 8.2037 27.5026 6.20841 29.0192C5.01123 29.9292 4.31288 31.1426 4.21312 32.7604C4.11335 34.6815 4.61218 36.1982 5.70958 37.3104C8.00417 39.8382 12.5933 40.1415 15.0874 40.1415C17.382 40.1415 34.6413 38.0182 44.0191 36.9059C44.4182 35.187 44.4182 32.9626 43.5203 32.5582C41.3255 31.6481 22.5698 27.907 19.2775 27.4014C18.0804 27.4014 16.1849 27.0981 13.99 27.0981"/>
	<path fill="#BCBFBA" d="M57.3413 38.4226C57.3413 38.4226 55.9453 33.1648 58.3384 32.2548C60.7314 31.2437 79.6763 27.5025 82.7673 26.997C88.8497 25.9858 98.2225 25.9858 98.9364 33.1648C99.3193 40.3438 92.1402 41.7615 87.0549 41.7615C83.8643 41.8604 57.3413 38.4226 57.3413 38.4226"/>
	<path fill="#2D1B0A" d="M87.1007 42.8716C83.9094 42.8716 58.3791 39.636 57.2821 39.4338C56.1851 38.1193 54.7889 32.5581 57.8805 31.3448C60.3737 30.3337 79.4217 26.5925 82.613 26.087C86.4026 25.4803 93.1841 24.9747 97.1732 28.0081C98.7689 29.3225 99.7662 31.0414 99.975 33.1648C100.065 35.6926 99.3672 37.816 97.9711 39.3327C95.1787 42.2649 90.4915 42.8716 87.1007 42.8716M58.1797 37.5126C62.3682 38.0182 84.3083 40.7482 87.1007 40.7482C89.5939 40.7482 94.1814 40.3438 96.4751 37.9171C97.5721 36.7037 98.0708 35.1871 97.9711 33.2659C97.7716 31.7492 97.1732 30.4348 95.9765 29.5248C92.486 26.8958 85.7045 27.6036 82.9122 28.0081C79.6211 28.5136 60.7726 32.2548 58.6783 33.1648C57.681 33.5693 57.8805 35.8948 58.1797 37.5126"/>
	<path d="M50.0029 4.55005L51.9971 4.55005L51.9971 16.3801L50.0029 16.3801L50.0029 4.55005"/>
	<path d="M10.6175 75.632C9.12186 75.632 8.02505 75.2275 8.02505 75.2275L8.72302 73.3064C8.72302 73.3064 10.4181 73.9131 12.512 73.3064C13.8082 72.902 21.3862 67.4419 32.8529 58.8474L28.9641 46.4106L43.4221 41.0516L44.1202 42.9727L31.457 47.6239L35.1463 59.5551C21.8848 69.4641 14.6059 74.6209 13.0106 75.1264C12.2129 75.5309 11.4152 75.632 10.6175 75.632"/>
	<path d="M28.1664 97.3709L27.5681 95.4498C28.1664 95.2477 29.0638 94.7421 29.8615 94.3375C30.1606 94.1353 30.4597 94.0342 30.7589 93.832C31.058 93.7309 31.3571 93.5286 31.5566 93.4276C32.6534 91.4053 36.8412 79.9796 40.4307 69.9695L35.9438 51.6682L44.0203 45.197L45.2169 46.8148L38.1375 52.4771L42.4249 70.0706C40.3311 76.0362 34.3484 92.7198 33.0522 94.7421C32.4539 95.2477 31.9554 95.4498 31.5566 95.6521C31.3571 95.7531 31.058 95.9554 30.7589 96.1577C29.8615 96.562 28.9641 97.0676 28.1664 97.3709"/>
	<path d="M45.7155 28.6148C45.0174 28.2103 30.8587 19.818 28.5653 18.908C27.8674 18.7058 27.269 17.7958 26.5711 13.8524C26.1722 11.2235 25.574 7.9879 23.8789 6.47122C21.087 4.04452 18.4945 4.04452 17.7966 4.14564L17.5972 3.13451L17.5972 2.0942C18.4945 2.0942 21.785 2.0942 25.1751 4.95453C27.4685 6.97678 28.0667 10.6168 28.5653 13.5491C28.9641 16.0769 29.363 16.8858 29.4627 17.088C32.5536 18.4025 46.214 26.4914 46.8122 26.997L45.7155 28.6148M29.2633 16.9869C29.363 16.9869 29.363 16.9869 29.2633 16.9869C29.363 16.9869 29.363 16.9869 29.2633 16.9869"/>
	<path d="M91.1832 74.8231C90.3856 74.8231 89.5879 74.722 88.5908 74.4186C86.9954 73.812 79.7166 68.7564 67.0534 59.1507L70.1444 46.815L57.4812 42.1638L58.1792 40.2427L72.6372 45.6017L68.7485 58.0385C85.7989 70.7786 88.6905 72.3964 89.189 72.4975C91.283 73.1042 92.978 72.4975 92.978 72.4975L93.676 74.4186C93.676 74.4186 92.6789 74.8231 91.1832 74.8231"/>
	<path d="M73.7338 96.5622C72.9362 96.36 71.9391 95.7533 71.0417 95.2478C70.7425 95.0455 70.4435 94.9444 70.244 94.7422C69.8451 94.54 69.4464 94.3378 69.1472 94.1355C67.5518 91.81 61.5692 75.1264 59.5751 69.4641L63.7629 51.5673L56.6834 45.905L57.88 44.2872L65.9565 50.7584L61.4695 69.0597C64.9594 79.0698 69.2469 90.4955 70.3438 92.5177C70.5432 92.6188 70.8422 92.8211 71.1414 92.9222C71.4406 93.1244 71.7396 93.2255 72.0388 93.4277C72.8365 93.9333 73.7338 94.4389 74.3322 94.54L73.7338 96.5622"/>
	<path d="M56.4841 28.7159L55.3872 26.997C55.9855 26.5926 69.7456 18.4025 72.7368 17.088C72.8365 16.8858 73.2354 16.0769 73.6342 13.5491C74.1328 10.6168 74.731 6.97681 77.0244 4.95456C80.4146 1.9212 83.7049 2.0871 84.6023 2.0871L84.5026 4.14567C83.7049 4.04455 81.1124 4.04455 78.3205 6.47125C76.5258 7.98793 76.0273 11.2235 75.6284 13.8524C75.0302 17.6947 74.4318 18.6047 73.6342 18.9081C71.2411 19.8181 57.0823 28.2104 56.4841 28.7159"/>
	<path fill="#665140" d="M44.6185 22.1436C44.6185 18.6047 47.5102 15.7735 50.9003 15.7735C54.2904 15.7735 57.3815 18.7058 57.3815 22.1436C57.3815 25.5814 54.3901 28.7159 50.9003 28.7159C47.4104 28.7159 44.6185 25.7836 44.6185 22.1436"/>
	<path d="M50.9003 29.727C46.9119 29.727 43.6214 26.2892 43.6214 22.1436C43.6214 18.0991 46.9119 14.7624 50.9003 14.7624C54.9884 14.7624 58.3785 18.0991 58.3785 22.1436C58.3785 26.2892 54.8887 29.727 50.9003 29.727M50.9003 16.7846C48.0087 16.7846 45.6157 19.2113 45.6157 22.1436C45.6157 25.177 48.0087 27.7048 50.9003 27.7048C53.7918 27.7048 56.3843 25.0758 56.3843 22.1436C56.3843 19.3125 53.7918 16.7846 50.9003 16.7846"/>
	<path fill="#665140" d="M48.9165 26.4693C48.9165 26.4693 45.0278 27.8848 45.0278 33.1427C45.0278 38.4006 44.3298 40.3216 45.2272 44.5684C46.2243 48.815 48.1188 50.8373 48.4179 52.7584C48.7171 54.6796 48.9165 71.7675 48.8168 74.6998C48.6174 77.632 49.4151 83.6987 51.8081 83.6987C54.2011 83.6987 54.9988 78.4409 54.9988 74.6998C54.9988 70.7565 54.9988 53.1628 54.9988 53.1628C54.9988 53.1628 58.389 47.3995 58.389 43.9617C58.389 40.7261 59.4858 35.3671 58.389 31.626C57.2922 27.8848 56.4945 27.3793 54.8991 26.3682C53.4035 25.4581 50.3125 26.4693 48.9165 26.4693"/>
	<path d="M51.0311 85.1764C50.5316 85.1764 49.8323 84.9741 49.133 84.2659C47.2349 82.2427 46.9352 77.0836 47.0351 75.0604C47.135 72.0256 47.0351 55.2332 46.6355 53.4123C46.5356 52.7042 46.136 51.9961 45.6365 51.0856C44.9372 49.6694 43.9382 47.8485 43.3388 45.2184C42.7394 42.2847 42.8637 40.3627 42.8637 37.9349C43.0391 36.721 43.0391 35.3047 43.0391 33.585C43.0391 27.7178 47.4347 25.9981 47.6345 25.9981C48.4337 25.8969 48.9332 25.7957 49.6325 25.6946C51.2309 25.4533 53.2289 25.1888 54.6275 25.8969C56.4257 27.0097 57.4247 27.7178 58.6235 31.663C59.4227 34.4955 59.1363 37.8337 58.8233 40.8685C58.7234 42.1836 58.6235 43.2963 58.6235 44.3079C58.6235 47.545 55.8263 52.603 55.2269 53.7158L55.2269 74.9593C55.2269 76.8813 55.0271 85.1764 51.0311 85.1764M48.3338 28.0212C47.7344 28.3247 45.2369 29.741 45.2369 33.6862C45.2369 35.5071 45.137 36.9233 45.137 38.1372C45.0371 40.4639 44.9372 42.1836 45.4367 44.9149C45.9362 47.2416 46.8353 48.9613 47.5346 50.2763C48.0341 51.2879 48.5336 52.1984 48.7334 53.1088C49.133 55.132 49.2329 72.3291 49.133 75.2627C48.9332 77.5894 49.5326 81.737 50.6315 82.9509C50.8313 83.2543 51.0311 83.2543 51.0311 83.2543C52.2299 83.2543 53.2289 79.5114 53.2289 75.2627L53.2289 53.4123C54.2279 51.6926 56.6255 47.1404 56.6255 44.5103C56.6255 43.4987 56.7254 42.1836 56.8253 40.8685C57.0251 38.036 57.3248 34.7989 56.6255 32.3711C55.6265 28.9317 55.0271 28.6282 53.5286 27.7178C52.8293 27.3131 51.131 27.5155 49.8323 27.7178C49.3328 27.9201 48.8333 27.9201 48.3338 28.0212"/>
</svg>
