<?xml version="1.0" encoding="utf-8" ?>
<svg xmlns="http://www.w3.org/2000/svg" xmlns:xlink="http://www.w3.org/1999/xlink" width="78" height="102">
	<path fill="white" d="M50.5296 102C48.4242 102 46.419 100.988 44.4139 98.9643C43.9126 98.3571 43.3111 97.8512 42.8098 97.244C41.9075 98.256 41.3059 98.8631 41.3059 98.8631L39.7018 100.583L37.6967 99.369C37.4961 99.2679 36.2931 98.4583 34.4884 97.1429C33.9871 97.75 33.4859 98.256 32.9846 98.7619C30.9794 100.786 28.9743 101.798 26.8689 101.798C26.2674 101.798 25.5656 101.696 24.964 101.494C20.0514 99.9762 16.3419 92.3869 13.9357 78.8274C13.5347 76.5 13.2339 73.9702 13.0334 71.2381C12.4319 73.9702 11.8303 76.3988 11.4293 77.7143C9.62468 82.5714 5.11311 84.6964 3.70951 84.6964L1.70437 84.6964L1.70437 81.9643L1.00257 79.3333L2.8072 78.7262C2.8072 78.7262 4.9126 77.9167 5.71465 75.6905C7.01799 72.0476 9.52442 57.6786 9.52442 56.1607C9.52442 54.3393 10.6272 52.619 13.0334 51C13.4344 46.1429 14.2365 42.5 15.2391 40.0714C12.9332 41.994 9.92545 44.4226 8.42159 45.3333C7.61954 45.8393 6.61697 46.0417 5.71465 46.0417C4.11054 46.0417 2.60668 45.3333 1.30334 43.9167L0 42.5L4.11054 38.1488C4.11054 38.1488 5.71465 39.7679 5.71465 39.7679C8.02057 38.25 13.9357 33.1905 14.5373 32.6845L16.0411 31.1667L21.455 32.6845C21.5553 32.6845 21.5553 32.5833 21.6555 32.5833C21.856 30.256 22.1568 28.2321 22.4576 26.6131C17.3445 23.0714 16.7429 21.1488 16.9434 19.631L17.2442 18.3155C17.946 16.3929 19.1491 12.5476 19.5501 10.7262C19.8509 9.30952 18.5476 7.99405 18.5476 7.99405L17.144 6.57738L21.3548 2.22619L22.7584 3.64286C23.3599 4.25 26.4679 7.69048 25.365 12.244C24.964 13.9643 23.8612 17.3036 23.1594 19.4286C23.4602 19.631 23.7609 20.0357 24.2622 20.3393C24.964 19.125 25.8663 18.1131 26.8689 17.2024C27.4704 15.1786 29.3753 13.6607 31.4807 13.6607C32.0823 13.6607 32.7841 13.7619 33.2853 14.0655C34.8895 13.6607 36.6941 13.4583 38.4987 13.4583C38.7995 13.4583 39.2005 13.4583 39.5013 13.4583C41.1054 13.5595 42.6093 13.7619 44.1131 14.0655C44.7147 13.7619 45.4165 13.5595 46.1183 13.5595C48.5244 13.5595 50.5296 15.381 50.9306 17.7083C51.4319 18.2143 51.8329 18.7202 52.2339 19.2262C53.437 18.3155 54.3393 17.6071 54.8406 17.1012C54.1388 14.9762 53.1362 11.6369 52.635 10.0179C51.5321 5.3631 54.6401 2.02381 55.2416 1.41667L56.6452 0L60.9563 4.25L59.5527 5.66667C59.4524 5.76786 58.1491 7.08333 58.5501 8.5C58.9512 10.119 60.2545 14.0655 60.856 15.9881L61.1568 17.1012C61.2571 18.8214 60.6555 20.9464 54.6401 24.8929C54.6401 25.0952 54.7404 25.2976 54.7404 25.6012C55.0411 27.3214 55.2416 29.1429 55.4422 30.7619L61.9589 28.9405L63.563 30.5595C64.365 31.2679 70.0797 36.125 72.2853 37.6429C72.2853 37.6429 73.7892 36.0238 73.7892 36.0238L78 40.2738L76.6967 41.6905C75.3933 43.1071 73.8895 43.8155 72.2853 43.8155C71.383 43.8155 70.4807 43.6131 69.5784 43.1071C67.2725 41.7917 62.2596 37.4405 60.2545 35.7202C60.054 36.9345 60.6555 37.8452 61.2571 38.9583C62.2596 40.881 63.162 43.9167 63.6632 47.7619C66.8715 49.6845 68.4756 51.7083 68.4756 53.9345C68.5758 55.4524 71.0823 69.8214 72.2853 73.4643C73.0874 75.6905 75.1928 76.5 75.2931 76.5L77.1979 77.1071L76.4961 79.0298L76.2956 82.4702L74.2905 82.4702C72.8869 82.4702 68.3753 80.3452 66.5707 75.5893C65.8689 73.6667 65.0668 69.7202 64.2648 65.7738C64.0643 70.3274 63.6632 74.881 63.0617 78.8274C60.7558 92.4881 57.0463 100.179 52.0334 101.696C51.8329 102 51.1311 102 50.5296 102"/>
	<path fill="#2D1B0A" d="M27.671 27.625C27.5707 27.5238 18.5476 22.5655 18.841 19.8333C19.7507 17 20.9537 13.1548 21.455 11.3334C22.0566 8.80361 20.1517 6.88099 19.9512 6.57742L21.3548 5.16075C21.8561 5.6667 24.2622 8.29765 23.4602 11.8393C22.9589 13.6607 21.7558 17.7083 21.054 19.6309C21.455 20.744 24.2622 23.2738 28.7738 25.8036L27.671 27.625"/>
	<path fill="#2D1B0A" d="M5.61441 44.119C4.61183 44.119 3.60926 43.613 2.70695 42.6011L4.11055 41.1845C5.21338 42.3988 5.91518 42.1964 6.41646 41.8928C8.72237 40.5773 15.5399 34.7083 15.9409 34.3035L25.0642 35.9226L24.563 37.8452L17.3444 35.8214C16.743 36.3273 10.0257 42.1964 7.51929 43.7142C6.71723 44.0178 6.21595 44.119 5.61441 44.119"/>
	<path fill="#2D1B0A" d="M3.50897 82.7738L3.50897 81.7618L3.2082 80.7499C3.2082 80.7499 6.21591 79.6368 7.419 76.3988C8.8226 72.4523 11.4293 57.5773 11.4293 56.1607C11.4293 54.3393 13.7352 52.3154 18.2468 50.1904L19.0488 52.0119C14.9383 53.9345 13.4344 55.5536 13.4344 56.1607C13.4344 57.6786 10.8277 72.8571 9.32388 77.1071C7.82003 81.256 4.11051 82.7738 3.50897 82.7738"/>
	<path fill="#2D1B0A" d="M50.5295 25.399L49.527 23.5776C54.0385 21.0478 56.8457 18.6192 57.347 17.7085C56.5449 15.3811 55.3419 11.4347 54.8406 9.61322C54.0385 6.07155 56.4447 3.4406 56.946 2.93465L58.3496 4.35132C58.1491 4.5537 56.1439 6.57751 56.8457 9.10727C57.347 10.8275 58.5501 14.774 59.2519 16.6966C59.5527 20.2383 50.6298 25.2978 50.5295 25.399"/>
	<path fill="white" d="M24.563 38.756C24.563 38.756 24.7635 29.3451 25.8663 24.7916C26.8689 20.0357 30.9795 17 38.198 17C45.4165 17 49.0257 20.1369 50.0283 25.2976C51.1311 30.5595 51.9332 37.2381 51.9332 37.2381L24.563 38.756"/>
	<path fill="#2D1B0A" d="M23.5604 39.7677L23.5604 38.6546C23.5604 38.2499 23.7609 29.1427 24.964 24.3868C26.0668 18.9225 30.8792 15.7856 38.2982 15.7856C45.617 15.7856 49.928 18.8213 51.1311 24.8927C52.1337 30.0535 53.036 36.8332 53.036 36.9344L53.1362 38.0475L23.5604 39.7677M38.2982 17.9106C31.8817 17.9106 27.8715 20.4404 26.9691 24.8927C26.0668 28.4344 25.7661 35.0118 25.6658 37.6427L50.9306 36.2261C50.6298 34.1011 49.928 29.2439 49.126 25.3987C48.1234 20.3392 44.6144 17.9106 38.2982 17.9106"/>
	<path fill="#665140" d="M24.0617 39.9627L24.0617 38.9509C24.0617 38.5461 24.6632 29.4389 25.9666 24.7842C27.2699 19.4211 32.1825 16.3854 39.6015 16.6681C46.9203 16.9925 51.0309 20.2306 52.0334 26.302C52.9357 31.5639 53.5373 38.3438 53.5373 38.4448L53.6375 39.5579L24.0617 39.9627"/>
	<path fill="#2D1B0A" d="M22.9589 40.9822L22.9589 38.8558C22.9589 38.7545 23.5604 29.2363 24.964 24.4772C26.3676 18.7055 31.7815 15.364 39.6016 15.6487C47.3214 15.9715 51.9332 19.6168 53.036 26.0973C53.8381 31.1602 54.5399 38.147 54.5399 38.4508L54.6401 40.4759L22.9589 40.9822M38.599 17.5917C32.2828 17.5917 27.9718 20.2244 26.8689 24.8822C25.6658 29.1351 25.0643 37.742 25.0643 38.8558L52.5347 38.3495C52.5347 38.0457 51.9332 31.464 51.1311 26.2998C50.2288 20.7307 46.4191 17.7942 39.6016 17.5917C39.2005 17.5917 38.8998 17.5917 38.599 17.5917"/>
	<path fill="#665140" d="M20.1482 52.2605C20.1482 42.0403 22.7548 33.6415 29.4721 32.2248C36.1893 31.1504 44.4104 30.5046 48.521 32.2248C52.7317 34.1474 56.2407 40.826 56.8423 52.2605C57.3436 63.7963 55.7395 70.3736 52.1301 78.7724C48.521 87.1713 39.0968 96.8855 39.0968 96.8855C39.0968 96.8855 27.5672 90.1058 24.5595 78.0641C21.4515 65.7189 20.1482 62.582 20.1482 52.2605"/>
	<path fill="#2D1B0A" d="M39.3009 97.9524C38.0978 97.2439 26.6685 90.4624 23.5605 78.1139C23.1595 76.5957 22.7584 75.1786 22.4577 73.8628C20.1518 64.9557 19.1492 61.3119 19.1492 52.2024C19.1492 39.9552 22.7584 32.4652 29.2752 31.1493C35.7919 30.0837 44.414 29.3274 48.9255 31.2506C54.0387 33.5785 57.3471 41.3722 57.8484 52.1012C58.3497 64.0181 56.5451 70.8263 53.0361 79.0249C49.3266 87.5271 40.2032 97.0415 39.8022 97.4463M41.1055 32.0603C37.8973 32.0603 34.0875 32.3639 29.5759 33.0725C22.2572 34.5907 21.1543 45.6233 21.1543 52.1012C21.1543 61.0083 22.0567 64.5509 24.3626 73.2555C24.6633 74.5713 25.0644 75.9884 25.4654 77.5066C27.9718 87.4259 36.4937 93.7013 38.8998 95.3208C41.0052 93.094 48.1235 85.0979 51.1312 78.1139C54.5399 70.1178 56.2443 63.6399 55.743 52.1012C55.2417 42.0808 52.3343 34.9956 48.0232 32.9712C46.5194 32.3639 44.2135 32.0603 41.1055 32.0603"/>
	<path fill="#EEFAFF" d="M29.6749 35.8814C25.1633 33.4528 21.6543 34.5659 18.2456 40.6373C15.0373 46.5064 14.7366 66.0361 16.7417 78.3814C18.8471 90.423 23.4589 104.185 30.6775 96.6968C37.896 89.2087 38.8986 83.5421 40.4024 76.9647C41.9063 70.2861 41.5051 61.3814 39.9011 53.8933C38.297 46.4052 34.0862 38.4111 29.6749 35.8814"/>
	<path fill="#2D1B0A" d="M26.6684 99.7737C26.1671 99.7737 25.7661 99.6725 25.3651 99.5713C19.9512 97.8511 17.0437 85.607 15.7404 78.5237C13.7352 66.1785 14.036 46.3451 17.3445 40.1725C20.8535 33.8987 24.8638 32.2797 30.0771 35.0118C34.5887 37.6428 39.3008 45.6368 40.9049 53.5297C42.6093 62.0297 42.8098 70.8332 41.4062 77.107C39.8021 84.1904 38.3985 89.9582 31.3805 97.3451C29.8766 98.9642 28.2725 99.7737 26.6684 99.7737M25.5656 35.7201C23.5604 35.7201 21.3548 37.0356 19.0489 41.1844C15.9409 46.8511 15.6401 66.2797 17.6453 78.2201C19.5502 89.4523 22.6581 96.6368 25.8664 97.6487C27.0694 98.0535 28.3728 97.4463 29.8766 95.9285C36.4936 89.0475 37.7969 83.6844 39.2005 77.613C40.8047 70.732 40.6041 62.232 38.8998 54.0356C37.3959 46.6487 33.0849 39.1606 29.0746 36.8332C28.072 36.2261 26.8689 35.7201 25.5656 35.7201"/>
	<path fill="#2D1B0A" d="M28.7737 18.7202C28.7737 17.2023 30.0771 15.7857 31.6812 15.7857C33.2853 15.7857 34.5887 17.1012 34.5887 18.7202C34.5887 20.3392 33.2853 21.6547 31.6812 21.6547C30.0771 21.6547 28.7737 20.2381 28.7737 18.7202"/>
	<path fill="#2D1B0A" d="M43.4113 18.7202C43.4113 17.2023 44.7147 15.7857 46.3188 15.7857C47.9229 15.7857 49.2263 17.1012 49.2263 18.7202C49.2263 20.3392 47.9229 21.6547 46.3188 21.6547C44.7147 21.4523 43.4113 20.2381 43.4113 18.7202"/>
	<path fill="#EEFAFF" d="M47.5428 35.7438C52.0544 33.3152 55.5634 34.4283 58.9722 40.4997C62.1804 46.5711 62.4812 65.9997 60.476 78.2438C58.3706 90.589 53.7588 104.25 46.5403 96.7616C39.3218 89.1723 38.3192 83.4045 36.8153 76.7259C35.3115 70.1485 35.7125 61.1426 37.3166 53.5533C38.8205 46.1664 43.1315 38.1723 47.5428 35.7438"/>
	<path fill="#2D1B0A" d="M50.5295 99.9761C49.0257 99.9761 47.4216 99.1666 45.8174 97.5475C38.6992 90.0594 37.3959 84.1904 35.9923 77.9166C34.3881 70.8333 34.4884 62.0297 36.293 53.4285C37.6966 46.4464 42.0077 37.6428 47.1208 34.8095C52.3342 31.9761 56.3444 33.5952 59.8534 39.9702C63.2622 46.3452 63.5629 65.8749 61.4575 78.4225C60.2545 85.6071 57.347 97.9523 51.8329 99.7737C51.4318 99.8749 50.9306 99.9761 50.5295 99.9761M48.0231 36.6309C44.0128 38.7559 39.7018 46.3452 38.1979 53.8333C36.4935 62.2321 36.293 70.7321 37.6966 76.6011C39.3007 83.6844 40.5038 89.0475 47.221 96.2321C48.7249 97.7499 50.0282 98.2559 51.2313 97.9523C54.4396 96.9404 57.5475 89.5535 59.4524 78.2202C61.4575 66.2797 61.257 47.0535 58.0488 41.0833C54.4396 34.4047 51.1311 35.0118 48.0231 36.6309"/>
	<path fill="#2D1B0A" d="M72.5863 41.8929C71.9846 41.8929 71.4834 41.6905 70.8819 41.3869C68.3755 39.8691 61.5579 34 61.0566 33.4941L53.8381 35.5179L53.3368 33.5953L61.6582 31.1667C62.8613 32.2798 69.5784 38.1488 71.8844 39.5655C72.2854 39.8691 72.9873 40.0715 74.09 38.9584L75.5939 40.2738C74.6917 41.3869 73.5887 41.8929 72.5863 41.8929"/>
	<path fill="#2D1B0A" d="M74.6915 80.4464C74.09 80.4464 70.3805 78.9286 68.8766 74.881C67.3728 70.631 64.7661 55.4523 64.7661 53.9345C64.7661 53.3273 63.2622 51.7083 59.1517 49.7857L59.9538 47.9642C64.4653 50.0892 66.7712 52.0119 66.7712 53.9345C66.7712 55.3512 69.3779 70.2262 70.7815 74.1725C71.9846 77.4106 74.9923 78.4225 74.9923 78.4225L74.6915 80.4464"/>
</svg>
