<?xml version="1.0" encoding="utf-8" ?>
<svg xmlns="http://www.w3.org/2000/svg" xmlns:xlink="http://www.w3.org/1999/xlink" width="72" height="102">
	<path fill="white" d="M50.3634 102C47.5703 102 44.6774 101.292 42.0837 99.9782C35.6994 96.7433 32.9062 88.7572 31.8089 83.8038C31.0108 82.995 30.4123 81.9841 29.8138 80.8722C29.714 80.5689 29.5145 80.1645 29.4148 79.7602C29.315 80.2656 29.2152 80.67 29.1155 80.9732L28.7165 81.9841C27.4196 82.6918 26.6216 83.7027 26.4221 84.0059L25.4245 85.5223L23.8284 84.7136L20.337 82.7929L21.2348 81.0743C21.5341 80.5689 22.4319 79.2547 23.6289 78.2438C23.6289 77.6373 23.6289 76.5253 23.6289 74.5035C23.1302 75.5144 22.7311 76.3231 22.3321 76.9296C20.8358 79.0525 18.5414 79.3558 17.3443 79.3558C16.8456 79.3558 16.5463 79.3558 16.4465 79.2547L14.4514 78.9514L15.2495 73.0882L17.2446 73.1893C17.3443 73.1893 17.3443 73.1893 17.4441 73.1893C17.7434 72.6838 18.1424 71.8751 18.6412 70.662C16.646 72.3806 14.6509 72.6838 13.4539 72.6838C13.1546 72.6838 12.9551 72.6838 12.7556 72.6838L10.8602 72.4817L11.0597 66.5173L13.4539 66.6184C13.7531 66.6184 14.3517 66.5173 15.05 65.7086C15.848 64.4955 16.4465 62.2716 16.646 61.5639C17.3443 59.3399 17.9429 57.4192 19.2397 56.004C20.5365 54.5887 23.0304 53.3756 26.6216 52.3647C26.6216 52.1625 26.6216 51.8593 26.6216 51.6571C26.6216 49.0287 27.3199 47.108 28.2177 45.7939C28.1179 45.6928 28.1179 45.6928 28.0182 45.5917C27.8187 45.3895 27.6192 45.1873 27.4196 44.884C24.5267 44.2775 17.7434 42.8622 14.2519 40.7393C10.3614 38.5154 2.28125 33.7641 0.286139 20.8246C-1.70897 7.78394 7.36878 1.61744 7.7678 1.31417L9.36389 0.303271L11.2592 2.93162L12.8553 4.65015L11.758 5.86323C11.6583 6.1665 11.4588 7.37958 12.157 9.90684C12.5561 11.1199 12.9551 12.2319 13.2544 13.1417C14.4514 16.3766 15.449 18.9039 13.8529 24.2616C13.2544 26.0813 13.1546 27.3954 13.0548 28.2042C14.6509 28.6085 17.2446 29.2151 20.5365 30.226C22.0328 30.7314 23.7287 31.338 25.5243 32.1467C27.4196 28.002 31.6094 25.1715 36.1981 25.1715C40.5874 25.1715 44.4778 27.5976 46.473 31.338C48.4681 30.4281 50.2637 29.7205 51.76 29.2151C54.8524 28.2042 57.3463 27.5976 58.9424 27.1933C58.9424 26.3845 58.7429 25.1715 58.2441 23.3518C56.7478 18.0951 57.6456 15.7701 58.8426 12.5352C59.1419 11.6254 59.5409 10.5134 59.94 9.3003C60.5385 6.97522 60.4387 5.86323 60.339 5.55996L59.3414 4.44797L61.137 2.42616L62.6334 0L64.3292 1.11199C64.7282 1.31417 73.7062 7.37958 71.7111 20.218C69.716 33.1576 61.536 37.8077 58.0446 39.7284C55.0519 41.447 49.5654 42.7611 46.0739 43.5699C45.5752 44.2775 45.0764 44.9851 44.4778 45.5917C45.4754 47.108 45.6749 47.7146 46.0739 50.0396C46.1737 50.3429 46.1737 50.7473 46.2734 51.1516C50.1639 52.1625 52.8573 53.3756 54.3536 54.892C55.6505 56.4083 56.249 58.329 56.9473 60.3508C57.1468 61.2607 57.7453 63.3835 58.6431 64.6977C59.2417 65.4054 59.94 65.6075 60.2392 65.6075L62.6334 65.5064L62.6334 71.4708L60.8378 71.6729C60.6382 71.6729 60.4387 71.6729 60.1395 71.6729C59.4412 71.6729 58.4436 71.5719 57.3463 71.0664C57.7453 72.0773 58.1444 72.7849 58.4436 73.2904C58.4436 73.2904 58.5434 73.2904 58.6431 73.2904L60.6382 73.0882L60.9375 75.0089L61.536 78.9514L59.5409 79.2547C59.5409 79.2547 59.1419 79.3558 58.6431 79.3558C56.5483 79.3558 54.7527 78.5471 53.6554 77.0307C53.4558 76.7275 53.2563 76.4242 53.0568 76.0198C52.9571 77.8394 52.9571 78.8503 53.0568 79.4569C54.1541 80.4678 55.1517 81.782 55.451 82.2874L56.1492 83.7027C59.1419 84.9158 61.2368 87.3419 61.8353 90.6779C62.4338 94.2161 61.2368 97.4509 58.3439 99.6749C56.249 101.191 53.3561 102 50.3634 102M42.6822 83.6016C43.4803 87.0387 44.3781 88.9594 44.9766 89.667C46.7722 91.6888 47.4705 91.7899 49.4656 92.0932C50.3634 92.2953 50.962 92.2953 51.5605 92.2953C52.0593 92.2953 52.3585 92.1943 52.4583 92.1943C52.4583 92.0932 52.4583 91.891 52.4583 91.4866C52.4583 91.4866 52.4583 91.3855 52.4583 91.3855C52.2588 91.2844 51.5605 91.1833 49.8646 91.0823C48.2686 91.0823 46.473 90.9812 45.3756 89.4648C44.7771 88.555 44.5776 87.443 44.8769 86.4321C45.3756 84.9158 46.6725 84.0059 48.1688 83.5005L47.3708 82.1863C46.872 80.8722 46.6725 78.3449 47.3708 69.1457C47.4705 68.5391 47.4705 68.0337 47.4705 67.7304C47.271 67.5282 46.9717 67.225 46.473 66.7195C46.0739 71.9762 45.3756 78.446 44.0788 81.1754C43.7796 82.0852 43.2808 82.894 42.6822 83.6016"/>
	<path fill="#2D1B0A" d="M51.76 83.9049C51.5605 83.7027 50.5629 82.2874 49.6651 81.782C48.7673 80.1645 48.8671 76.5253 49.3659 69.1457C49.4656 67.9326 49.4656 67.3261 49.4656 67.0228C49.3659 66.8206 48.7673 65.4053 40.9864 59.5421L41.1859 57.7225L42.2832 57.9247C51.5605 64.8999 51.5605 66.113 51.5605 67.0228C51.5605 67.3261 51.5605 68.0337 51.4607 69.2468C50.8622 76.9296 50.962 79.4569 51.1615 80.2656C52.3585 81.1754 53.5556 82.6918 53.6554 82.995L51.76 83.9049"/>
	<path fill="#2D1B0A" d="M58.5434 77.2329C57.7453 77.2329 56.1493 77.0308 55.2515 75.7166C54.1541 74.0991 51.8598 68.8425 50.6627 63.3836C49.9644 60.0476 45.2759 57.9247 42.5825 56.9138L43.2808 54.9931C47.0715 56.3073 51.8598 58.8345 52.6578 62.8781C53.8549 68.0337 55.9497 72.9872 56.9473 74.5035C57.5458 75.3122 58.9424 75.11 58.9424 75.11L59.2417 77.1319C59.0422 77.1319 58.8427 77.2329 58.5434 77.2329"/>
	<path fill="#2D1B0A" d="M60.0397 69.449C59.0421 69.449 57.047 69.1457 55.3512 67.0228C54.1541 65.3043 53.3561 62.9792 52.957 61.4628C52.4583 59.7443 51.9595 58.329 51.2612 57.5203C50.2636 56.4083 47.0715 55.2963 42.9815 54.4876L43.3805 52.4658C46.0739 52.9713 50.9619 54.1843 52.7575 56.1051C53.7551 57.217 54.2539 58.9356 54.8524 60.7552C55.2514 62.2716 55.9497 64.2934 56.9473 65.7086C58.3439 67.3261 59.8402 67.4271 60.4387 67.3261L60.5385 69.3479C60.4387 69.449 60.2392 69.449 60.0397 69.449"/>
	<path fill="#2D1B0A" d="M24.6265 82.8939L22.8309 81.9841C23.0304 81.6809 24.1277 80.1645 25.3248 79.2547C25.4245 78.446 25.5243 75.9187 25.0255 68.2359C24.9258 66.9217 24.9258 66.2141 24.9258 65.9108C24.9258 65.001 24.9258 63.7879 34.203 56.8127L35.3003 56.6105L36.3977 57.7225C27.7189 64.2934 27.1204 65.7086 27.0206 65.9108C27.0206 66.2141 27.0206 66.8206 27.1204 67.9326C27.6192 75.4133 27.7189 79.0525 27.2201 80.1645C25.9233 81.2765 24.826 82.5907 24.6265 82.8939"/>
	<path fill="#2D1B0A" d="M17.1448 77.2329C16.8456 77.2329 16.5463 77.2329 16.5463 77.2329L16.8456 75.211C16.8456 75.211 18.2421 75.4132 18.8407 74.6045C19.8382 73.0882 21.9331 68.1347 23.1302 62.9791C24.028 58.9355 28.7165 56.5094 32.5072 55.0941L33.2055 57.0148C30.5121 58.0257 25.8236 60.1486 25.1253 63.3835C23.8285 68.8424 21.6338 74.0991 20.5365 75.7165C19.6387 77.0307 18.0426 77.2329 17.1448 77.2329"/>
	<path fill="#2D1B0A" d="M13.4539 70.662C13.2544 70.662 13.1546 70.662 12.9551 70.662L12.9551 68.6402C13.7531 68.7413 15.2495 68.6402 16.6461 66.9217C17.6436 65.6075 18.2421 63.4846 18.6412 62.0694C19.2397 60.0476 19.7385 58.4301 20.736 57.3181C22.6314 55.2963 27.4197 54.1843 30.1131 53.5778L30.5121 55.5996C26.3223 56.4083 23.2299 57.5203 22.2324 58.6323C21.5341 59.441 21.135 60.8563 20.5365 62.5748C20.1375 64.1923 19.3395 66.5173 18.1424 68.1348C16.4465 70.2577 14.5512 70.662 13.4539 70.662"/>
	<path fill="#7C5F47" d="M62.733 3.5381C62.733 3.5381 70.4142 8.59261 68.7184 19.7125C67.0225 30.9335 60.4387 34.8761 56.5482 37.1C52.7575 39.324 43.4802 40.9415 43.4802 40.9415L40.5873 37.7066C40.5873 37.7066 47.2709 33.8652 52.6577 32.1466C58.1443 30.4281 61.536 29.8215 61.536 29.8215C61.536 29.8215 62.6333 28.3052 61.0372 22.5431C59.4411 16.882 61.0372 15.77 62.733 10.21C64.2294 4.75118 62.733 3.5381 62.733 3.5381"/>
	<path fill="#2D1B0A" d="M43.0812 42.0535L39.091 37.4033L40.1883 36.7968C40.4876 36.5946 46.9717 32.8543 52.4582 31.1358C56.7477 29.8216 59.7404 29.1139 60.9375 28.9118C61.0372 28.3052 61.2367 26.4856 60.2392 22.8464C58.9424 18.1962 59.6406 16.3766 60.738 13.2428C61.137 12.333 61.536 11.221 61.935 9.90681C63.1321 5.55994 62.1345 4.44794 62.1345 4.34685L63.3316 2.8305C63.6309 3.03268 71.6113 8.39046 69.8157 19.9147C68.0201 31.8434 60.6382 35.9881 57.1468 38.0099C53.2563 40.335 44.1785 41.9524 43.7795 41.9524M42.1834 37.9088L43.8793 39.8295C45.8744 39.4251 52.957 38.0099 56.0494 36.1903C59.5409 34.1685 66.1248 30.5292 67.7208 19.5104C68.7184 13.0406 66.3243 8.79482 64.4289 6.46975C64.4289 7.48065 64.2294 8.79482 63.8304 10.4123C63.4314 11.8275 62.9326 12.9395 62.6333 13.9504C61.536 16.7809 61.0372 18.2973 62.1345 22.2398C63.8304 28.103 62.7331 30.0238 62.4338 30.327C61.8353 30.7314 58.4436 31.3379 53.0568 33.0565C48.9668 34.2695 44.2783 36.7968 42.1834 37.9088"/>
	<path fill="#7C5F47" d="M9.3639 3.94255C9.3639 3.94255 1.48321 9.19924 3.17906 20.4202C4.8749 31.8435 11.6583 35.8871 15.6484 38.2122C19.539 40.5372 29.0158 42.1547 29.0158 42.1547L32.0084 38.8186C32.0084 38.8186 25.1253 34.8761 19.6387 33.1576C14.0525 31.4391 10.4612 30.7315 10.4612 30.7315C10.4612 30.7315 9.26415 29.215 10.96 23.3519C12.6558 17.6908 10.96 16.3766 9.26415 10.7156C7.86757 5.15563 9.3639 3.94255 9.3639 3.94255"/>
	<path fill="#2D1B0A" d="M29.4148 43.2666C28.517 43.0644 19.2397 41.447 15.2495 39.1219C11.359 36.8979 4.07686 32.6521 2.28126 20.6224C0.48566 8.79485 8.56586 3.33598 8.96489 3.1338L9.76293 4.24579C10.162 4.65015 9.1644 5.86324 10.2617 10.4123C10.6607 11.7265 11.0598 12.8385 11.4588 13.8494C12.6558 16.9832 13.3541 19.005 11.9576 23.6551C10.8602 27.3954 11.0598 29.114 11.2593 29.8216C12.4563 30.0238 15.5488 30.8325 20.0378 32.1467C25.6241 33.8652 32.3077 37.8077 32.6069 37.9088L33.7043 38.5154L29.4148 43.2666M7.66806 6.87414C5.67295 9.19921 3.17906 13.6472 4.17662 20.3191C5.87246 31.338 12.5561 35.2805 16.1473 37.4034C19.3395 39.3241 26.6216 40.7394 28.6167 41.1437L30.4123 39.1219C28.3175 37.9088 23.4294 35.3816 19.3395 34.0674C13.8529 32.3489 10.3615 31.6412 10.2617 31.6412C9.36391 30.9336 8.16684 29.0129 9.96244 22.9475C11.1595 19.005 10.561 17.4886 9.46366 14.4559C9.06464 13.445 8.66562 12.333 8.2666 10.9177C7.86757 9.3003 7.66806 7.88504 7.66806 6.87414"/>
	<path fill="#7C5F47" d="M27.4196 36.999C27.4196 32.0446 31.3101 28.1021 36.1981 28.1021C41.0861 28.1021 44.9766 32.0446 44.9766 36.999C44.9766 41.9515 41.0861 45.8958 36.1981 45.8958C31.3101 45.9951 27.4196 41.9515 27.4196 36.999"/>
	<path fill="#2D1B0A" d="M35.9986 46.9058C33.5047 46.9058 31.2103 45.895 29.4147 44.1763C27.5194 42.2556 26.4221 39.7285 26.4221 36.999C26.4221 31.5401 30.8113 27.0921 36.1981 27.0921C41.5849 27.0921 45.9742 31.5401 45.9742 36.999C45.9742 42.4578 41.5849 46.9058 36.1981 46.9058C36.0983 46.9058 36.0983 46.9058 35.9986 46.9058M36.1981 29.1139C31.9086 29.1139 28.4172 32.6521 28.4172 36.999C28.4172 39.1218 29.2152 41.1437 30.8113 42.66C32.3076 44.0753 34.203 44.884 36.1981 44.884C40.4875 44.884 43.979 41.3458 43.979 36.999C43.979 32.6521 40.4875 29.1139 36.1981 29.1139"/>
	<path fill="#7C5F47" d="M34.1033 79.9577C34.1033 79.9577 35.5996 93.3016 43.3806 97.143C50.962 101.085 60.0397 97.9518 58.8427 91.0776C57.6456 84.3046 48.3683 85.4166 47.7698 87.2362C47.1713 89.0558 55.052 86.2253 55.3512 91.0776C55.85 95.8289 51.6603 95.3234 49.2661 95.0201C46.872 94.6158 45.3757 94.5147 42.6823 91.5831C39.9889 88.6515 38.9913 79.9577 38.9913 79.9577L34.1033 79.9577"/>
	<path fill="#2D1B0A" d="M50.2637 99.8771C47.8696 99.8771 45.2759 99.2705 42.8818 98.0574C34.8016 94.0138 33.2055 80.6699 33.006 80.0634L33.006 78.9514L39.8891 78.9514C40.2882 82.1863 41.4852 88.6561 43.4803 90.88C45.7747 93.4073 46.9718 93.6095 49.0666 94.0138C50.7625 94.3171 52.9571 94.5193 53.8549 93.6095C54.3537 93.104 54.4534 92.3964 54.3537 91.2844C54.2539 89.4648 52.7576 89.1615 49.8647 89.0604C48.4681 89.0604 47.4706 88.9593 46.9718 88.2517C46.6725 87.8473 46.6725 87.443 46.7723 86.9375C47.271 85.4212 49.9644 84.7135 52.3586 84.9157C56.3488 85.1179 59.142 87.443 59.7405 90.9811C60.2393 93.8117 59.2417 96.2378 57.0471 97.9564C55.2515 99.2705 52.8574 99.8771 50.2637 99.8771M35.3004 80.9732C35.8989 84.2081 37.9938 93.3062 43.7796 96.2378C47.9693 98.4618 52.9571 98.4618 55.85 96.2378C56.9473 95.4291 58.2442 93.8117 57.7454 91.2844C57.2466 88.555 55.1517 87.443 53.5556 87.0386C52.3586 86.7353 51.0618 86.7353 50.164 86.9375C52.3586 87.0386 55.9498 87.2408 56.249 90.9811C56.4486 92.6997 56.0495 94.0138 55.1517 94.9236C53.5556 96.5411 50.7625 96.2378 49.0666 96.0356C46.3732 95.5302 44.6774 95.328 41.8842 92.1942C39.5899 89.5659 38.3928 83.2983 37.9938 80.9732L35.3004 80.9732"/>
	<path fill="#7C5F47" d="M34.3028 45.0863C34.3028 45.0863 29.6143 45.4906 29.6143 51.6572C29.6143 57.9248 30.4123 74.5035 32.5072 79.457C34.7018 84.2081 39.4901 84.2081 41.3855 79.8614C43.2808 75.6155 44.4779 57.4193 43.4803 52.668C42.5825 47.9168 43.0813 48.9277 41.3855 46.4005C39.4901 44.1765 36.5971 45.0863 34.3028 45.0863"/>
	<path fill="#2D1B0A" d="M37.0959 84.107C34.8016 84.107 32.8064 82.5921 31.5096 79.9661C29.2152 74.7142 28.517 57.4434 28.517 51.7875C28.517 44.7176 34.0035 44.2126 34.1033 44.2126C34.7018 44.2126 35.2006 44.2126 35.7991 44.1116C37.7942 43.9925 40.2882 43.7076 42.0838 45.8286C43.5801 48.0506 43.6797 48.2526 43.979 50.4745C44.0788 50.9795 44.1786 51.6865 44.3781 52.6965C45.3756 57.7464 44.1786 76.1282 42.1834 80.4711C41.186 82.6931 39.2906 84.107 37.0959 84.107C37.1957 84.107 37.0959 84.107 37.0959 84.107M34.3028 46.1316C33.804 46.2326 30.6118 46.7376 30.6118 51.6865C30.6118 58.7564 31.4099 74.5122 33.405 79.0571C34.3028 80.9761 35.6994 82.0871 37.1957 82.0871C38.5923 82.0871 39.7894 81.0771 40.4877 79.4611C42.2832 75.4212 43.3806 57.4434 42.4827 52.8985C42.2832 51.9895 42.1834 51.2825 42.0838 50.6765C41.7845 48.8586 41.7845 48.8586 40.8867 47.5456C39.5899 45.8286 37.894 45.9296 36.0984 46.1316C35.4998 46.1316 34.9013 46.1316 34.3028 46.1316"/>
</svg>
