<?xml version="1.0" encoding="utf-8" ?>
<svg xmlns="http://www.w3.org/2000/svg" xmlns:xlink="http://www.w3.org/1999/xlink" width="90" height="90">
	<path fill="white" d="M45 90C20.1897 90 0 69.8103 0 45C0 20.1897 20.1897 0 45 0C69.8103 0 90 20.1897 90 45C90 69.8103 69.8103 90 45 90"/>
	<path fill="#FFDC4A" d="M86.9866 45C86.9866 68.1886 68.1886 86.9866 45 86.9866C21.8114 86.9866 3.0134 68.1886 3.0134 45C3.0134 21.8114 21.8114 3.0134 45 3.0134C68.1886 3.0134 86.9866 21.8114 86.9866 45"/>
	<path fill="#2D1B0A" d="M45 87.9911C21.2946 87.9911 2.00895 68.7054 2.00895 45C2.00895 21.2946 21.2946 2.00895 45 2.00895C68.7054 2.00895 87.9911 21.2946 87.9911 45C87.9911 68.7054 68.7054 87.9911 45 87.9911M45 4.01788C22.3995 4.01788 4.01788 22.3995 4.01788 45C4.01788 67.6004 22.3995 85.9821 45 85.9821C67.6004 85.9821 85.9821 67.6004 85.9821 45C85.9821 22.3995 67.6004 4.01788 45 4.01788"/>
	<path fill="#FCFCFC" d="M23.3508 32.9463C23.3508 36.6641 26.3642 39.577 29.9802 39.577C33.6968 39.577 36.6097 36.5637 36.6097 32.9463C36.6097 29.231 33.5963 26.3157 29.9802 26.3157C26.3642 26.3157 23.3508 29.231 23.3508 32.9463"/>
	<path fill="#2D1B0A" d="M29.9802 40.5803C25.7615 40.5803 22.3463 37.1651 22.3463 32.9463C22.3463 28.7276 25.7615 25.3124 29.9802 25.3124C34.199 25.3124 37.6142 28.7276 37.6142 32.9463C37.6142 37.1651 34.199 40.5803 29.9802 40.5803M29.9802 27.2209C26.8664 27.2209 24.3552 29.732 24.3552 32.8459C24.3552 35.9597 26.8664 38.4709 29.9802 38.4709C33.0941 38.4709 35.6052 35.9597 35.6052 32.8459C35.6052 29.8325 33.0941 27.2209 29.9802 27.2209"/>
	<path fill="#FCFCFC" d="M53.3863 32.9463C53.3863 36.6641 56.3997 39.577 60.0158 39.577C63.7323 39.577 66.6452 36.5637 66.6452 32.9463C66.6452 29.231 63.6318 26.3157 60.0158 26.3157C56.3997 26.3157 53.3863 29.231 53.3863 32.9463"/>
	<path fill="#2D1B0A" d="M60.0158 40.5803C55.7954 40.5803 52.3798 37.1651 52.3798 32.9463C52.3798 28.7276 55.7954 25.3124 60.0158 25.3124C64.234 25.3124 67.6518 28.7276 67.6518 32.9463C67.7501 37.1651 64.234 40.5803 60.0158 40.5803M60.0158 27.2209C56.9005 27.2209 54.389 29.732 54.389 32.8459C54.389 35.9597 56.9005 38.4709 60.0158 38.4709C63.129 38.4709 65.6405 35.9597 65.6405 32.8459C65.7409 29.8325 63.129 27.2209 60.0158 27.2209"/>
	<path fill="#2D1B0A" d="M33.8504 64.1852L56.1496 64.1852"/>
	<path fill="#2D1B0A" d="M56.1497 65.6918L33.8505 65.6918C33.047 65.6918 32.3438 64.9887 32.3438 64.1852C32.3438 63.3816 33.047 62.6785 33.8505 62.6785L56.1497 62.6785C56.9532 62.6785 57.6563 63.3816 57.6563 64.1852C57.6563 64.9887 56.9532 65.6918 56.1497 65.6918"/>
	<path fill="#2D1B0A" d="M32.7455 33.549C32.7455 35.3797 31.2614 36.8638 29.4307 36.8638C27.6001 36.8638 26.116 35.3797 26.116 33.549C26.116 31.7184 27.6001 30.2343 29.4307 30.2343C31.2614 30.2343 32.7455 31.7184 32.7455 33.549"/>
	<path fill="#2D1B0A" d="M63.8839 33.549C63.8839 35.3797 62.3998 36.8638 60.5692 36.8638C58.7385 36.8638 57.2544 35.3797 57.2544 33.549C57.2544 31.7184 58.7385 30.2343 60.5692 30.2343C62.3998 30.2343 63.8839 31.7184 63.8839 33.549"/>
</svg>
