<?xml version="1.0" encoding="utf-8" ?>
<svg xmlns="http://www.w3.org/2000/svg" xmlns:xlink="http://www.w3.org/1999/xlink" width="90" height="90">
	<path fill="white" d="M45 90C20.1897 90 0 69.8103 0 45C0 20.1897 20.1897 0 45 0C69.8103 0 90 20.1897 90 45C90 69.8103 69.9107 90 45 90"/>
	<path fill="#FFDC4A" d="M86.9867 45C86.9867 68.1886 68.1886 86.9866 44.9999 86.9866C21.8112 86.9866 3.0131 68.1886 3.0131 45C3.0131 21.8114 21.8112 3.0134 44.9999 3.0134C68.1886 3.0134 86.9867 21.8114 86.9867 45"/>
	<path fill="#2D1B0A" d="M44.9998 87.9911C21.2941 87.9911 2.00815 68.7054 2.00815 45C2.00815 21.2946 21.2941 2.00895 44.9998 2.00895C68.7051 2.00895 87.9914 21.2946 87.9914 45C88.0915 68.7054 68.8056 87.9911 44.9998 87.9911M44.9998 3.91743C22.399 3.91743 4.0171 22.2991 4.0171 44.8995C4.0171 67.5 22.399 85.8818 44.9998 85.8818C67.6003 85.8818 85.9821 67.5 85.9821 44.8995C85.9821 22.2991 67.6003 3.91743 44.9998 3.91743"/>
	<path fill="#2D1B0A" d="M46.7069 66.5959C52.5328 61.5736 61.0707 61.5736 66.8966 66.4955C69.8096 62.3772 71.5172 57.3549 71.5172 52.0312L21.1935 52.0312C21.1935 57.5558 23.0015 62.779 26.1154 66.8973C31.8408 61.5736 40.7806 61.4732 46.7069 66.5959"/>
	<path fill="#FF4646" d="M46.707 66.5959C40.7807 61.4731 31.841 61.5736 26.1155 66.8972C30.736 73.1249 38.0686 77.1428 46.4057 77.1428C54.9436 77.1428 62.3767 72.924 66.9972 66.4955C61.0709 61.5736 52.4325 61.5736 46.707 66.5959"/>
	<path fill="#2D1B0A" d="M74.7314 30.9374C74.5305 30.8369 74.2292 30.7365 74.0283 30.5356C73.8274 30.4351 73.6265 30.3347 73.3252 30.1338C72.4212 29.732 72.2203 29.6316 71.9189 29.5311C71.0149 29.1293 70.1109 28.828 69.2069 28.5267C67.3988 28.0244 65.5908 27.7231 63.7828 27.7231C61.9747 27.7231 60.1667 28.0244 58.3587 28.5267C57.4546 28.828 56.5506 29.1293 55.6466 29.5311C55.4457 29.6316 55.2448 29.732 54.9435 29.8325C54.0395 30.2342 53.8386 30.3347 53.5372 30.5356C53.3363 30.636 53.1354 30.8369 52.8341 30.9374C52.9345 30.7365 53.1354 30.5356 53.2359 30.2342C53.3363 30.0334 53.5372 29.8325 53.7381 29.6316C53.939 29.4307 54.0395 29.2298 54.2404 29.0289C54.2404 29.0289 54.3408 28.9284 54.3408 28.9284C55.5462 27.8235 56.3497 27.2209 57.3542 26.7186C59.2627 25.7142 61.3721 25.2119 63.5819 25.2119C65.6912 25.2119 67.9011 25.7142 69.8095 26.7186C70.7136 27.2209 71.6176 27.8235 72.4212 28.5267C72.8229 28.9284 72.9234 29.0289 73.0238 29.1293C73.2247 29.3302 73.4256 29.5311 73.5261 29.732C73.727 29.9329 73.8274 30.1338 74.0283 30.3347C74.4301 30.5356 74.631 30.7365 74.7314 30.9374"/>
	<path fill="#2D1B0A" d="M16.2717 30.9374C16.3721 30.7365 16.573 30.5356 16.6734 30.2343C16.8743 30.0334 16.9748 29.8325 17.1757 29.6316C17.3766 29.4307 17.477 29.2298 17.6779 29.0289C17.7784 28.9285 17.8788 28.828 17.9792 28.7276C19.0842 27.7231 19.8877 27.1204 20.8922 26.6182C22.8007 25.6137 24.91 25.1115 27.1199 25.1115C29.2292 25.1115 31.4391 25.6137 33.3475 26.6182C34.2515 27.1204 35.1555 27.7231 35.9592 28.4262C36.361 28.828 36.4613 28.9285 36.4613 28.9285C36.6623 29.1294 36.8632 29.3303 36.9636 29.5311C37.1646 29.732 37.2649 29.9329 37.4659 30.1338C37.5662 30.3347 37.7672 30.5356 37.8677 30.837C37.6667 30.7365 37.3654 30.6361 37.1646 30.4352C36.9636 30.3347 36.7627 30.2343 36.4613 30.0334C35.5574 29.6316 35.3565 29.5311 35.0552 29.4307C34.1511 29.0289 33.2471 28.7276 32.343 28.4262C30.535 27.924 28.7271 27.6227 26.9189 27.6227C25.1109 27.6227 23.3029 27.924 21.4949 28.4262C20.5909 28.7276 19.6868 29.0289 18.7828 29.4307C18.5819 29.5311 18.381 29.6316 18.0797 29.732C17.1757 30.1338 16.9748 30.2343 16.6734 30.4352C16.7739 30.7365 16.573 30.837 16.2717 30.9374"/>
</svg>
