<?xml version="1.0" encoding="utf-8" ?>
<svg xmlns="http://www.w3.org/2000/svg" xmlns:xlink="http://www.w3.org/1999/xlink" width="90" height="90">
	<path fill="white" d="M45 90C20.1897 90 0 69.8103 0 45C0 20.1897 20.1897 0 45 0C69.8103 0 90 20.1897 90 45C90 69.8103 69.8103 90 45 90"/>
	<path fill="#FFDC4A" d="M86.9866 45C86.9866 68.1886 68.1886 86.9866 45 86.9866C21.8114 86.9866 3.0134 68.1886 3.0134 45C3.0134 21.8114 21.8114 3.0134 45 3.0134C68.1886 3.0134 86.9866 21.8114 86.9866 45"/>
	<path fill="#2D1B0A" d="M45 87.9911C21.2946 87.9911 2.00895 68.7054 2.00895 45C2.00895 21.2946 21.2946 2.00895 45 2.00895C68.7054 2.00895 87.9911 21.2946 87.9911 45C87.9911 68.7054 68.7054 87.9911 45 87.9911M45 3.91743C22.3995 3.91743 4.01788 22.2991 4.01788 44.8995C4.01788 67.5 22.3995 85.8818 45 85.8818C67.6004 85.8818 85.9821 67.5 85.9821 44.8995C85.9821 22.2991 67.6004 3.91743 45 3.91743"/>
	<path fill="#2D1B0A" d="M45.1004 63.1807C48.6161 60.0668 53.9398 59.9665 57.5558 62.8793L57.5558 53.337C57.5558 46.4062 51.9308 40.7812 44.8996 40.7812C37.9688 40.7812 32.3438 46.4062 32.3438 53.337L32.3438 63.0803C36.1607 59.866 41.4844 59.9665 45.1004 63.1807"/>
	<path fill="#FF4646" d="M45.1007 63.1808C41.4845 60.0669 36.0604 59.9665 32.4444 62.9799L32.4444 64.0848C32.4444 71.0155 38.0694 76.6405 45.1007 76.6405C52.0314 76.6405 57.6564 71.0155 57.6564 64.0848L57.6564 62.8794C53.9398 59.9665 48.7167 60.0669 45.1007 63.1808"/>
	<path fill="#FCFCFC" d="M23.0012 28.828C23.0012 32.5446 26.0146 35.4575 29.6306 35.4575C33.2467 35.4575 36.2601 32.4441 36.2601 28.828C36.2601 25.1115 33.2467 22.1986 29.6306 22.1986C26.0146 22.1986 23.0012 25.1115 23.0012 28.828"/>
	<path fill="#2D1B0A" d="M29.6306 36.462C25.4103 36.462 21.9946 33.0468 21.9946 28.828C21.9946 24.6093 25.4103 21.1941 29.6306 21.1941C33.8489 21.1941 37.2667 24.6093 37.2667 28.828C37.365 33.0468 33.8489 36.462 29.6306 36.462M29.6306 23.1026C26.5153 23.1026 24.0038 25.6137 24.0038 28.7276C24.0038 31.8414 26.5153 34.3526 29.6306 34.3526C32.7439 34.3526 35.2553 31.8414 35.2553 28.7276C35.3558 25.7142 32.7439 23.1026 29.6306 23.1026"/>
	<path fill="#FCFCFC" d="M53.7378 28.828C53.7378 32.5457 56.7512 35.4587 60.3672 35.4587C64.0838 35.4587 66.9967 32.4454 66.9967 28.828C66.9967 25.1127 63.9833 22.1973 60.3672 22.1973C56.7512 22.1973 53.7378 25.1127 53.7378 28.828"/>
	<path fill="#2D1B0A" d="M60.3672 36.462C56.1469 36.462 52.7313 33.0468 52.7313 28.828C52.7313 24.6093 56.1469 21.1941 60.3672 21.1941C64.5854 21.1941 68.0033 24.6093 68.0033 28.828C68.1015 33.0468 64.5854 36.462 60.3672 36.462M60.3672 23.1026C57.2519 23.1026 54.7404 25.6137 54.7404 28.7276C54.7404 31.8414 57.2519 34.3526 60.3672 34.3526C63.4804 34.3526 65.992 31.8414 65.992 28.7276C66.0924 25.7142 63.4804 23.1026 60.3672 23.1026"/>
</svg>
