<?xml version="1.0" encoding="utf-8" ?>
<svg xmlns="http://www.w3.org/2000/svg" xmlns:xlink="http://www.w3.org/1999/xlink" width="90" height="90">
	<path fill="white" d="M45 90C20.1897 90 0 69.8103 0 45C0 20.1897 20.1897 0 45 0C69.8103 0 90 20.1897 90 45C90 69.8103 69.8103 90 45 90"/>
	<path fill="#FFDC4A" d="M86.9866 45C86.9866 68.1886 68.1886 86.9866 45 86.9866C21.8114 86.9866 3.0134 68.1886 3.0134 45C3.0134 21.8114 21.8114 3.0134 45 3.0134C68.1886 3.0134 86.9866 21.8114 86.9866 45"/>
	<path fill="#2D1B0A" d="M45 87.9911C21.2946 87.9911 2.00895 68.7054 2.00895 45C2.00895 21.2946 21.2946 2.00895 45 2.00895C68.7054 2.00895 87.9911 21.2946 87.9911 45C87.9911 68.7054 68.7054 87.9911 45 87.9911M45 4.01788C22.3995 4.01788 4.01788 22.3995 4.01788 45C4.01788 67.6004 22.3995 85.9821 45 85.9821C67.6004 85.9821 85.9821 67.6004 85.9821 45C85.9821 22.3995 67.6004 4.01788 45 4.01788"/>
	<path fill="#2D1B0A" d="M47.2097 77.1427C46.6071 77.1427 46.2053 76.741 46.2053 76.1383C46.2053 75.5356 46.6071 75.1338 47.2097 75.1338C50.7254 75.1338 53.6383 72.7231 53.6383 69.8102C53.6383 68.3035 52.8347 66.8972 51.4285 65.8927L50.3236 65.0892L51.4285 64.2856C52.8347 63.2811 53.6383 61.8749 53.6383 60.3682C53.6383 57.4552 50.7254 55.0445 47.2097 55.0445C46.6071 55.0445 46.2053 54.6427 46.2053 54.0401C46.2053 53.4374 46.6071 53.0356 47.2097 53.0356C51.8303 53.0356 55.6472 56.3503 55.6472 60.3682C55.6472 62.1762 54.9441 63.7834 53.6383 65.0892C54.9441 66.395 55.6472 68.1026 55.6472 69.8102C55.6472 73.9285 51.8303 77.1427 47.2097 77.1427"/>
	<path fill="#2D1B0A" d="M75.6361 33.3482C75.4352 33.2477 75.1339 33.1473 74.933 32.9464C74.7321 32.8459 74.5312 32.7455 74.2299 32.5446C73.3259 32.1428 73.125 32.0424 72.8236 31.9419C71.9196 31.5401 71.0156 31.2388 70.1116 30.9375C68.3035 30.4352 66.4955 30.1339 64.6875 30.1339C62.8794 30.1339 61.0714 30.4352 59.2634 30.9375C58.3593 31.2388 57.4553 31.5401 56.5513 31.9419C56.3504 32.0424 56.1495 32.1428 55.8482 32.2433C54.9442 32.645 54.7433 32.7455 54.4419 32.9464C54.241 33.0468 54.0401 33.2477 53.7388 33.3482C53.8392 33.1473 54.0401 32.9464 54.1406 32.645C54.241 32.4442 54.4419 32.2433 54.6428 32.0424C54.8437 31.8415 54.9442 31.6406 55.1451 31.4397C55.1451 31.4397 55.2455 31.3392 55.2455 31.3392C56.4509 30.2343 57.2544 29.6317 58.2589 29.1294C60.1674 28.125 62.2767 27.6227 64.4866 27.6227C66.5959 27.6227 68.8058 28.125 70.7142 29.1294C71.6183 29.6317 72.5223 30.2343 73.3259 30.9375C73.7276 31.3392 73.8281 31.4397 73.9285 31.5401C74.1294 31.741 74.3303 31.9419 74.4308 32.1428C74.6317 32.3437 74.7321 32.5446 74.933 32.7455C75.4352 32.9464 75.5357 33.1473 75.6361 33.3482"/>
	<path fill="#2D1B0A" d="M17.2766 33.3481C17.3771 33.1472 17.578 32.9463 17.6784 32.645C17.8793 32.4441 17.9798 32.2432 18.1807 32.0423C18.3816 31.8414 18.482 31.6405 18.6829 31.4396C18.7833 31.3392 18.8838 31.2387 18.9842 31.1383C20.0891 30.1338 20.8927 29.5311 21.8972 29.0289C23.8057 28.0244 25.915 27.5222 28.1248 27.5222C30.2342 27.5222 32.444 28.0244 34.3525 29.0289C35.2565 29.5311 36.1605 30.1338 36.9641 30.8369C37.366 31.2387 37.4663 31.3392 37.4663 31.3392C37.6673 31.5401 37.8681 31.741 37.9687 31.9418C38.1695 32.1427 38.27 32.3436 38.4708 32.5445C38.5713 32.7454 38.7721 32.9463 38.8727 33.2477C38.6717 33.1472 38.3704 33.0468 38.1695 32.8459C37.9687 32.7454 37.7677 32.645 37.4663 32.4441C36.5623 32.0423 36.3615 31.9418 36.0602 31.8414C35.1562 31.4396 34.2521 31.1383 33.348 30.8369C31.5401 30.3347 29.732 30.0334 27.924 30.0334C26.1159 30.0334 24.3079 30.3347 22.4999 30.8369C21.5958 31.1383 20.6918 31.4396 19.7878 31.8414C19.5869 31.9418 19.386 32.0423 19.0847 32.1427C18.1807 32.5445 17.9798 32.645 17.6784 32.8459C17.6784 33.1472 17.4775 33.2477 17.2766 33.3481"/>
	<path fill="#FF4646" d="M71.5179 60.971C69.7097 59.1629 66.7968 59.0625 64.8883 60.7701C62.9799 59.0625 60.0669 59.1629 58.2589 60.971C56.4508 62.779 56.3504 65.692 58.058 67.6004L64.8883 74.4307L71.5179 67.8013C73.4263 65.692 73.3259 62.779 71.5179 60.971"/>
</svg>
