<?xml version="1.0" encoding="utf-8" ?>
<svg xmlns="http://www.w3.org/2000/svg" xmlns:xlink="http://www.w3.org/1999/xlink" width="90" height="90">
	<path fill="white" d="M45 90C20.1897 90 0 69.8103 0 45C0 20.1897 20.1897 0 45 0C69.8103 0 90 20.1897 90 45C90 69.8103 69.8103 90 45 90"/>
	<path fill="#FFDC4A" d="M86.9866 44.8995C86.9866 68.0881 68.1886 86.8861 45 86.8861C21.8114 86.8861 3.0134 68.0881 3.0134 44.8995C3.0134 21.7109 21.8114 2.9129 45 2.9129C68.1886 2.9129 86.9866 21.7109 86.9866 44.8995"/>
	<path fill="#2D1B0A" d="M45 87.9911C21.2946 87.9911 2.00895 68.7054 2.00895 45C2.00895 21.2946 21.2946 2.00895 45 2.00895C68.7054 2.00895 87.9911 21.2946 87.9911 45C87.9911 68.7054 68.7054 87.9911 45 87.9911M45 3.91743C22.3995 3.91743 4.01788 22.2991 4.01788 44.8995C4.01788 67.5 22.3995 85.8818 45 85.8818C67.6004 85.8818 85.9821 67.5 85.9821 44.8995C85.9821 22.2991 67.6004 3.91743 45 3.91743"/>
	<path fill="#2D1B0A" d="M60.3682 70.9151C59.7655 70.9151 59.3638 70.5133 59.3638 69.9106C59.3638 63.3816 52.9352 58.0579 45.1003 58.0579C37.1651 58.0579 30.837 63.3816 30.837 69.9106C30.837 70.5133 30.4352 70.9151 29.8325 70.9151C29.2298 70.9151 28.8281 70.5133 28.8281 69.9106C28.8281 62.2767 36.1606 56.049 45.1003 56.049C54.0401 56.049 61.3727 62.2767 61.3727 69.9106C61.3727 70.4128 60.8705 70.9151 60.3682 70.9151"/>
	<path fill="#FCFCFC" d="M23.0023 32.1427C23.0023 35.8605 26.0157 38.7735 29.6317 38.7735C33.3483 38.7735 36.2612 35.7601 36.2612 32.1427C36.2612 28.4274 33.2478 25.5121 29.6317 25.5121C26.0157 25.5121 23.0023 28.4274 23.0023 32.1427"/>
	<path fill="#2D1B0A" d="M29.6317 39.7767C25.413 39.7767 21.9978 36.3615 21.9978 32.1427C21.9978 27.924 25.413 24.5088 29.6317 24.5088C33.8505 24.5088 37.2657 27.924 37.2657 32.1427C37.2657 36.3615 33.8505 39.7767 29.6317 39.7767M29.6317 26.4173C26.5179 26.4173 24.0067 28.9284 24.0067 32.0423C24.0067 35.1561 26.5179 37.6673 29.6317 37.6673C32.7456 37.6673 35.2567 35.1561 35.2567 32.0423C35.2567 28.9284 32.7456 26.4173 29.6317 26.4173"/>
	<path fill="#FCFCFC" d="M53.7388 32.1427C53.7388 35.8593 56.7522 38.7722 60.3683 38.7722C63.9843 38.7722 66.9977 35.7588 66.9977 32.1427C66.9977 28.4262 63.9843 25.5133 60.3683 25.5133C56.7522 25.5133 53.7388 28.4262 53.7388 32.1427"/>
	<path fill="#2D1B0A" d="M60.3683 39.7767C56.1495 39.7767 52.7344 36.3615 52.7344 32.1427C52.7344 27.924 56.1495 24.5088 60.3683 24.5088C64.5871 24.5088 68.0023 27.924 68.0023 32.1427C68.0023 36.3615 64.5871 39.7767 60.3683 39.7767M60.3683 26.4173C57.2544 26.4173 54.7433 28.9284 54.7433 32.0423C54.7433 35.1561 57.2544 37.6673 60.3683 37.6673C63.4822 37.6673 65.9933 35.1561 65.9933 32.0423C65.9933 28.9284 63.4822 26.4173 60.3683 26.4173"/>
	<path fill="#2D1B0A" d="M32.9464 32.1427C32.9464 33.9734 31.4623 35.4575 29.6316 35.4575C27.801 35.4575 26.3169 33.9734 26.3169 32.1427C26.3169 30.3121 27.801 28.828 29.6316 28.828C31.4623 28.828 32.9464 30.3121 32.9464 32.1427"/>
	<path fill="#2D1B0A" d="M63.9843 32.1427C63.9843 33.9734 62.5002 35.4575 60.6696 35.4575C58.8389 35.4575 57.3548 33.9734 57.3548 32.1427C57.3548 30.3121 58.8389 28.828 60.6696 28.828C62.5002 28.828 63.9843 30.3121 63.9843 32.1427"/>
</svg>
