<?xml version="1.0" encoding="utf-8" ?>
<svg xmlns="http://www.w3.org/2000/svg" xmlns:xlink="http://www.w3.org/1999/xlink" width="102" height="90">
	<path fill="white" d="M51.234 90C31.9108 90 15.0031 77.9464 8.6627 59.9665C6.44859 59.3638 4.33512 57.9576 2.72486 55.8482C0.812678 53.5379 0 50.7254 0 48.0134C0.208831 45.1004 1.61781 42.3884 4.0332 40.4799C4.63705 39.9777 5.44218 39.5759 6.44859 39.0737C9.36719 16.6741 28.2878 0 51.1333 0C73.9789 0 92.8995 16.6741 95.8181 39.0737C96.7238 39.4754 97.4283 39.8772 97.9315 40.3795C102.762 44.1964 103.366 50.7254 99.3405 55.7478C97.8309 57.6563 95.9187 59.0625 93.8052 59.7656C87.6661 77.6451 70.3558 90 51.234 90"/>
	<path fill="#FFDC4A" d="M93.2233 45C93.2233 68.1886 74.3888 86.9866 51.1553 86.9866C27.9217 86.9866 9.0872 68.1886 9.0872 45C9.0872 21.8114 27.9217 3.0134 51.1553 3.0134C74.3888 3.0134 93.2233 21.8114 93.2233 45"/>
	<path fill="#2D1B0A" d="M51.1553 87.9911C27.4039 87.9911 8.08085 68.7054 8.08085 45C8.08085 21.2946 27.4039 2.00895 51.1553 2.00895C74.9066 2.00895 94.2299 21.2946 94.2299 45C94.2299 68.7054 74.9066 87.9911 51.1553 87.9911M51.1553 4.01788C28.5111 4.01788 10.0937 22.3995 10.0937 45C10.0937 67.6004 28.5111 85.9821 51.1553 85.9821C73.7997 85.9821 92.2169 67.6004 92.2169 45C92.2169 22.3995 73.7997 4.01788 51.1553 4.01788"/>
	<path fill="#FCFCFC" d="M27.1525 52.1317C27.1525 57.6563 28.964 62.8795 32.0839 66.9978C36.7134 73.2254 44.0602 77.2433 52.4135 77.2433C60.9679 77.2433 68.4154 73.0246 73.0448 66.596C75.9635 62.4777 77.6743 57.4554 77.6743 52.1317L27.1525 52.1317"/>
	<path fill="#2D1B0A" d="M52.4135 78.2477C44.1105 78.2477 36.2605 74.2299 31.3291 67.6003C28.0079 63.0803 26.1964 57.7566 26.1964 52.1316L26.1964 51.1272L78.6304 51.1272L78.6304 52.1316C78.6304 57.5557 77.0202 62.779 73.7997 67.1985C68.9689 74.1293 60.9175 78.2477 52.4135 78.2477M28.3098 53.1361C28.5111 57.9575 30.1214 62.5781 32.9393 66.3951C37.4682 72.5222 44.8149 76.2388 52.4135 76.2388C60.3138 76.2388 67.6606 72.4218 72.1895 65.9933C74.9068 62.1763 76.4164 57.7566 76.6176 53.0356L28.3098 53.0356"/>
	<path fill="#2D1B0A" d="M80.8446 31.0379C80.6432 30.9374 80.3414 30.837 80.1401 30.6361C79.9388 30.5356 79.7374 30.4352 79.4355 30.2343C78.5298 29.8325 78.3286 29.7321 78.0266 29.6316C77.1208 29.2298 76.215 28.9285 75.3092 28.6272C73.4977 28.1249 71.6861 27.8236 69.8746 27.8236C68.0631 27.8236 66.2516 28.1249 64.44 28.6272C63.5343 28.9285 62.6285 29.2298 61.7227 29.6316C61.5214 29.7321 61.3201 29.8325 61.0182 29.933C60.1124 30.3347 59.9112 30.4352 59.6092 30.6361C59.408 30.7365 59.2067 30.9374 58.9048 31.0379C58.9048 30.837 59.2067 30.6361 59.3073 30.3347C59.408 30.1339 59.6092 29.933 59.8105 29.7321C60.0118 29.5312 60.1124 29.3303 60.3137 29.1294C60.3137 29.1294 60.4144 29.0289 60.4144 29.0289C61.6221 27.924 62.4272 27.3214 63.4336 26.8191C65.3458 25.8147 67.4593 25.3124 69.6734 25.3124C71.7868 25.3124 74.001 25.8147 75.9131 26.8191C76.819 27.3214 77.7247 27.924 78.5298 28.6272C78.9324 29.0289 79.0331 29.1294 79.1337 29.2298C79.335 29.4307 79.5363 29.6316 79.6368 29.8325C79.8382 30.0334 79.9388 30.2343 80.1401 30.4352C80.6432 30.6361 80.7439 30.837 80.8446 31.0379"/>
	<path fill="#2D1B0A" d="M22.372 31.0379C22.372 30.837 22.6739 30.6361 22.7746 30.3348C22.9758 30.1339 23.0765 29.933 23.2778 29.7321C23.479 29.5312 23.5797 29.3303 23.781 29.1294C23.8816 29.029 23.9823 28.9285 24.0829 28.8281C25.19 27.8236 25.9951 27.2209 27.0015 26.7187C28.9137 25.7142 31.0271 25.212 33.2413 25.212C35.3547 25.212 37.5688 25.7142 39.481 26.7187C40.3868 27.2209 41.2926 27.8236 42.0977 28.5267C42.5003 28.9285 42.6009 29.029 42.6009 29.029C42.8022 29.2299 43.0035 29.4308 43.1041 29.6316C43.3054 29.8325 43.406 30.0334 43.6073 30.2343C43.708 30.4352 43.9092 30.6361 44.0099 30.9375C43.8086 30.837 43.5067 30.7366 43.3054 30.5357C43.1041 30.4352 42.9028 30.3348 42.6009 30.1339C41.6951 29.7321 41.4938 29.6316 41.1919 29.5312C40.2862 29.1294 39.3804 28.8281 38.4746 28.5267C36.6631 28.0245 34.8515 27.7232 33.04 27.7232C31.2284 27.7232 29.4169 28.0245 27.6054 28.5267C26.6996 28.8281 25.7938 29.1294 24.888 29.5312C24.6868 29.6316 24.4855 29.7321 24.1835 29.8325C23.2778 30.2343 23.0765 30.3348 22.7746 30.5357C22.7746 30.7366 22.5733 30.9375 22.372 31.0379"/>
	<path fill="#5BCDF4" d="M85.8766 55.4258C82.1529 52.4125 77.1208 37.8478 77.1208 37.8478C77.1208 37.8478 92.3176 39.6558 96.0415 42.6692C99.7652 45.6826 99.7652 50.3032 96.9472 53.8188C94.1292 57.3344 89.6003 58.4393 85.8766 55.4258"/>
	<path fill="#2D1B0A" d="M90.6068 58.2588C88.7952 58.2588 86.8831 57.6562 85.2728 56.3503C81.4484 53.337 76.7183 39.7766 76.2151 38.27L75.7119 36.7633L77.3221 36.9641C78.9324 37.165 92.9216 38.8726 96.7458 41.9865C100.772 45.2008 101.174 50.3236 97.7523 54.5423C95.8401 56.9529 93.2234 58.2588 90.6068 58.2588M86.4805 54.7432C90.1036 57.5557 93.928 56.049 96.1421 53.2365C98.3562 50.424 98.96 46.3057 95.4376 43.4932C92.9216 41.4842 83.5619 39.7766 78.6305 39.0735C80.3414 43.7945 83.9644 52.6338 86.4805 54.7432"/>
	<path fill="#5BCDF4" d="M16.1321 55.6471C12.4084 58.6605 7.87955 57.5556 5.06159 54.0401C2.24364 50.5245 2.24364 45.9039 5.96736 42.8905C9.69109 39.8771 24.888 38.069 24.888 38.069C24.888 38.069 19.8559 52.6338 16.1321 55.6471"/>
	<path fill="#2D1B0A" d="M11.4021 58.3592C10.8988 58.3592 10.4963 58.3592 9.99308 58.2588C7.77897 57.8569 5.76614 56.5512 4.15588 54.6427C2.64626 52.7341 1.93335 50.424 1.93335 48.2141C2.04241 45.8034 3.25011 43.694 5.26293 42.0869C9.0873 39.0735 23.177 37.2654 24.6868 37.0645L26.2969 36.8637L25.7937 38.3703C25.2906 39.877 20.5604 53.3369 16.736 56.4508C15.1257 57.7566 13.3142 58.3592 11.4021 58.3592M23.3783 39.2744C18.4469 39.9775 9.0873 41.5846 6.57127 43.694C5.06165 44.8994 4.15588 46.5065 4.05524 48.3146C3.9546 50.0222 4.55845 51.8302 5.86678 53.4374C7.07448 55.0444 8.78538 56.049 10.4963 56.3503C12.3078 56.6516 14.0187 56.1494 15.6289 54.9441C18.0443 52.8347 21.6674 43.9953 23.3783 39.2744"/>
</svg>
