<?xml version="1.0" encoding="utf-8" ?>
<svg xmlns="http://www.w3.org/2000/svg" xmlns:xlink="http://www.w3.org/1999/xlink" width="90" height="90">
	<path fill="white" d="M45 90C20.1897 90 0 69.8103 0 45C0 20.1897 20.1897 0 45 0C69.8103 0 90 20.1897 90 45C90 69.8103 69.8103 90 45 90"/>
	<path fill="#FFDC4A" d="M86.9866 45C86.9866 68.1886 68.1886 86.9866 45 86.9866C21.8114 86.9866 3.0134 68.1886 3.0134 45C3.0134 21.8114 21.8114 3.0134 45 3.0134C68.1886 3.0134 86.9866 21.8114 86.9866 45"/>
	<path fill="#2D1B0A" d="M45 87.9911C21.2946 87.9911 2.00895 68.7054 2.00895 45C2.00895 21.2946 21.2946 2.00895 45 2.00895C68.7054 2.00895 87.9911 21.2946 87.9911 45C87.9911 68.7054 68.7054 87.9911 45 87.9911M45 4.01788C22.3995 4.01788 4.01788 22.3995 4.01788 45C4.01788 67.6004 22.3995 85.9821 45 85.9821C67.6004 85.9821 85.9821 67.6004 85.9821 45C85.9821 22.3995 67.6004 4.01788 45 4.01788"/>
	<path fill="#FCFCFC" d="M23.1027 33.1472C23.1027 36.8638 26.1161 39.7767 29.7322 39.7767C33.3482 39.7767 36.3616 36.7633 36.3616 33.1472C36.3616 29.5312 33.3482 26.5178 29.7322 26.5178C26.1161 26.5178 23.1027 29.4307 23.1027 33.1472"/>
	<path fill="#2D1B0A" d="M29.8326 40.7812C25.6139 40.7812 22.1987 37.366 22.1987 33.1472C22.1987 28.9285 25.6139 25.5133 29.8326 25.5133C34.0514 25.5133 37.4666 28.9285 37.4666 33.1472C37.4666 37.366 34.0514 40.7812 29.8326 40.7812M29.8326 27.5222C26.7188 27.5222 24.2076 30.0334 24.2076 33.1472C24.2076 36.2611 26.7188 38.7722 29.8326 38.7722C32.9465 38.7722 35.4576 36.2611 35.4576 33.1472C35.4576 30.0334 32.9465 27.5222 29.8326 27.5222"/>
	<path fill="#FCFCFC" d="M53.8393 33.1472C53.8393 36.8638 56.8527 39.7767 60.4687 39.7767C64.1853 39.7767 67.0982 36.7633 67.0982 33.1472C67.0982 29.5312 64.0848 26.5178 60.4687 26.5178C56.8527 26.5178 53.8393 29.4307 53.8393 33.1472"/>
	<path fill="#2D1B0A" d="M60.5692 40.7812C56.3504 40.7812 52.9352 37.366 52.9352 33.1472C52.9352 28.9285 56.3504 25.5133 60.5692 25.5133C64.7879 25.5133 68.2031 28.9285 68.2031 33.1472C68.2031 37.366 64.7879 40.7812 60.5692 40.7812M60.5692 27.5222C57.4553 27.5222 54.9442 30.0334 54.9442 33.1472C54.9442 36.2611 57.4553 38.7722 60.5692 38.7722C63.683 38.7722 66.1942 36.2611 66.1942 33.1472C66.1942 30.0334 63.683 27.5222 60.5692 27.5222"/>
	<path fill="#FCFCFC" d="M36.5462 54.0301L53.6221 67.5904"/>
	<path fill="#2D1B0A" d="M53.623 69.097C53.3218 69.097 52.9202 68.9967 52.7195 68.7959L35.6532 55.245C35.0888 54.7431 34.8501 53.7393 35.4524 53.1371C35.9544 52.5727 36.9583 52.3341 37.5606 52.9363L54.6269 66.4872C55.2292 66.9891 55.43 67.9929 54.8276 68.5952C54.5265 68.8963 54.0245 69.097 53.623 69.097"/>
	<path fill="#FCFCFC" d="M53.6384 54.0547L36.5625 67.615"/>
	<path fill="#2D1B0A" d="M36.5748 69.1318C36.173 69.1318 35.6708 68.9309 35.3694 68.5291C34.8672 67.9264 35.0479 66.922 35.5703 66.4197L52.6463 52.8595C53.2489 52.3572 54.2533 52.5379 54.7556 53.0604C55.2579 53.6631 55.1574 54.6675 54.5546 55.1698L37.4788 68.73C37.2779 69.0313 36.8761 69.1318 36.5748 69.1318"/>
	<path fill="#2D1B0A" d="M32.8459 33.2477C32.8459 35.0783 31.3618 36.5624 29.5311 36.5624C27.7005 36.5624 26.2164 35.0783 26.2164 33.2477C26.2164 31.417 27.7005 29.9329 29.5311 29.9329C31.3618 29.9329 32.8459 31.417 32.8459 33.2477"/>
	<path fill="#2D1B0A" d="M63.8839 33.2477C63.8839 35.0783 62.3998 36.5624 60.5692 36.5624C58.7385 36.5624 57.2544 35.0783 57.2544 33.2477C57.2544 31.417 58.7385 29.9329 60.5692 29.9329C62.3998 29.9329 63.8839 31.417 63.8839 33.2477"/>
</svg>
