<?xml version="1.0" encoding="utf-8" ?>
<svg xmlns="http://www.w3.org/2000/svg" xmlns:xlink="http://www.w3.org/1999/xlink" width="90" height="90">
	<path fill="white" d="M45 90C20.1897 90 0 69.8103 0 45C0 20.1897 20.1897 0 45 0C69.8103 0 90 20.1897 90 45C90 69.8103 69.8103 90 45 90"/>
	<path fill="#FFDC4A" d="M86.9866 45C86.9866 68.1886 68.1886 86.9866 45 86.9866C21.8114 86.9866 3.0134 68.1886 3.0134 45C3.0134 21.8114 21.8114 3.0134 45 3.0134C68.1886 3.0134 86.9866 21.8114 86.9866 45"/>
	<path fill="#2D1B0A" d="M45 87.9911C21.2946 87.9911 2.00895 68.7054 2.00895 45C2.00895 21.2946 21.2946 2.00895 45 2.00895C68.7054 2.00895 87.9911 21.2946 87.9911 45C87.9911 68.7054 68.7054 87.9911 45 87.9911M45 4.01788C22.3995 4.01788 4.01788 22.3995 4.01788 45C4.01788 67.6004 22.3995 85.9821 45 85.9821C67.6004 85.9821 85.9821 67.6004 85.9821 45C85.9821 22.3995 67.6004 4.01788 45 4.01788"/>
	<path fill="#FCFCFC" d="M27.7233 59.0624C27.7233 63.2812 29.1295 67.1986 31.4398 70.3124C34.855 75.0334 40.48 78.0468 46.8081 78.0468C53.2367 78.0468 58.8617 74.8325 62.3773 70.0111C64.5871 66.8972 65.8929 63.0803 65.8929 59.0624L27.7233 59.0624"/>
	<path fill="#2D1B0A" d="M46.8081 79.0512C40.4799 79.0512 34.4531 76.0378 30.6362 70.915C28.125 67.4999 26.7188 63.3816 26.7188 59.0624L26.7188 58.0579L66.6964 58.0579L66.6964 59.0624C66.6964 63.1807 65.3907 67.1986 63.0803 70.6137C59.3638 75.9374 53.2366 79.0512 46.8081 79.0512M28.8281 60.0669C29.029 63.5825 30.2344 66.8972 32.2433 69.7097C35.6585 74.3302 41.0826 77.0424 46.7076 77.0424C52.5334 77.0424 58.0581 74.2299 61.3727 69.4083C63.3816 66.5959 64.4866 63.3816 64.6875 60.0669L28.8281 60.0669"/>
	<path fill="#FF4646" d="M37.387 27.8236C34.8758 25.3125 30.858 25.212 28.2464 27.5223C25.6348 25.212 21.6169 25.3125 19.1057 27.8236C16.5946 30.3348 16.4941 34.3527 18.8044 36.9643L28.2464 46.4062L37.6883 36.9643C39.9986 34.3527 39.8982 30.3348 37.387 27.8236"/>
	<path fill="#2D1B0A" d="M28.2463 47.9129L17.3772 36.9642C15.4687 33.8505 15.77 29.7322 18.3816 27.1206C20.9932 24.5089 25.212 24.1072 28.2463 26.2165C31.2388 24.1072 35.4576 24.4085 38.0691 27.1206C40.6807 29.7322 41.0826 33.8505 38.9732 36.8638L28.2463 47.9129M19.6874 36.4621L28.2463 45.0001L36.9642 36.2612C38.8727 34.0513 38.7722 30.6362 36.6628 28.5268C34.5536 26.4174 31.1383 26.317 28.9286 28.2255L27.5223 28.2255C25.3124 26.2165 21.8973 26.4174 19.7879 28.5268C17.6785 30.6362 17.5781 34.0513 19.4865 36.2612"/>
	<path fill="#FF4646" d="M71.0365 27.8235C68.5253 25.3124 64.5075 25.2119 61.8959 27.5222C59.2843 25.2119 55.2664 25.3124 52.7552 27.8235C50.2441 30.3347 50.1436 34.3526 52.4539 36.9642L61.8959 46.4061L71.0365 37.2655C73.6481 34.3526 73.5477 30.3347 71.0365 27.8235"/>
	<path fill="#2D1B0A" d="M61.8959 47.9128L51.0267 37.0646C49.1182 33.9508 49.4195 29.8325 52.0311 27.2208C54.6428 24.6092 58.8615 24.2075 61.8959 26.3168C64.8883 24.2075 69.1071 24.5088 71.7187 27.2208C74.3303 29.8325 74.7321 33.9508 72.6227 36.9641L71.7187 38.1696L61.8959 47.9128M53.3369 36.462L61.8959 44.9999L70.6138 36.2611C72.5222 34.0512 72.4218 30.636 70.3123 28.5266C68.203 26.4173 64.7878 26.3168 62.5781 28.2253L61.1718 28.2253C58.9619 26.2164 55.5468 26.4173 53.4374 28.5266C51.328 30.636 51.2276 34.0512 53.1361 36.2611"/>
</svg>
