<?xml version="1.0" encoding="utf-8" ?>
<svg xmlns="http://www.w3.org/2000/svg" xmlns:xlink="http://www.w3.org/1999/xlink" width="100" height="90">
	<path fill="white" d="M45.3441 90C20.3441 90 0 69.8103 0 45C0 20.1897 20.3441 0 45.3441 0C61.7409 0 76.6194 8.63839 84.6154 22.5C85.5263 20.9933 86.2348 19.9888 86.2348 19.8884L88.8664 15.8705L91.3968 19.9888C92.8138 22.2991 100 33.9509 100 39.375C100 42.4888 98.7854 45.3013 96.5587 47.2098C94.9393 48.6161 92.8138 49.6205 90.4858 49.9219C87.9555 72.5223 68.7247 90 45.3441 90"/>
	<path fill="#FFDC4A" d="M87.7531 44.6987C87.7531 67.8873 68.8112 86.6852 45.4454 86.6852C22.0794 86.6852 3.13765 67.8873 3.13765 44.6987C3.13765 21.51 22.0794 2.71205 45.4454 2.71205C68.8112 2.71205 87.7531 21.51 87.7531 44.6987"/>
	<path fill="#2D1B0A" d="M45.4454 87.7902C21.5588 87.7902 2.1256 68.5045 2.1256 44.7992C2.1256 21.0938 21.5588 1.8081 45.4454 1.8081C69.3321 1.8081 88.7653 21.0938 88.7653 44.7992C88.7653 68.5045 69.3321 87.7902 45.4454 87.7902M45.4454 3.71658C22.6722 3.71658 4.14989 22.0983 4.14989 44.6987C4.14989 67.2992 22.6722 85.6809 45.4454 85.6809C68.2187 85.6809 86.741 67.2992 86.741 44.6987C86.741 22.0983 68.2187 3.71658 45.4454 3.71658"/>
	<path fill="#FCFCFC" d="M21.3056 51.8302C21.3056 57.3548 23.1274 62.578 26.2651 66.6964C30.9209 72.924 38.3096 76.9418 46.7104 76.9418C55.3137 76.9418 62.8036 72.7232 67.4594 66.2945C70.3947 62.1763 72.1152 57.1539 72.1152 51.8302L21.3056 51.8302"/>
	<path fill="#2D1B0A" d="M46.7105 78.0467C38.3603 78.0467 30.4656 74.0289 25.506 67.3994C22.166 62.8793 20.3441 57.5557 20.3441 51.9307L20.3441 50.9262L73.0769 50.9262L73.0769 51.9307C73.0769 57.3548 71.4575 62.578 68.2186 66.9976C63.3603 73.828 55.2631 78.0467 46.7105 78.0467M22.4696 52.8347C22.672 57.6561 24.2915 62.2766 27.1255 66.0936C31.6801 72.2208 39.0688 75.9374 46.7105 75.9374C54.6558 75.9374 62.0445 72.1204 66.5992 65.6918C69.332 61.8749 70.8502 57.4552 71.0526 52.7342L22.4696 52.7342"/>
	<path fill="#2D1B0A" d="M75.3037 30.7366C75.1012 30.6362 74.7976 30.5357 74.5952 30.3348C74.3927 30.2344 74.1903 30.1339 73.8867 29.933C72.9757 29.5313 72.7733 29.4308 72.4697 29.3304C71.5587 28.9286 70.6478 28.6272 69.7369 28.3259C67.915 27.8237 66.0932 27.5223 64.2713 27.5223C62.4494 27.5223 60.6276 27.8237 58.8057 28.3259C57.8948 28.6272 56.9838 28.9286 56.0729 29.3304C55.8705 29.4308 55.668 29.5313 55.3644 29.6317C54.4535 30.0335 54.251 30.1339 53.9474 30.3348C53.745 30.4353 53.5425 30.6362 53.2389 30.7366C53.2389 30.5357 53.5425 30.3348 53.6438 30.0335C53.745 29.8326 53.9474 29.6317 54.1498 29.4308C54.3523 29.2299 54.4535 29.029 54.6559 28.8281C54.6559 28.8281 54.7571 28.7277 54.7571 28.7277C55.9717 27.6228 56.7814 27.0201 57.7936 26.5179C59.7166 25.5134 61.8421 25.0112 64.0689 25.0112C66.1944 25.0112 68.4211 25.5134 70.3442 26.5179C71.2551 27.0201 72.166 27.6228 72.9757 28.3259C73.3806 28.7277 73.4818 28.8281 73.583 28.9286C73.7855 29.1295 73.9879 29.3304 74.0891 29.5313C74.2915 29.7322 74.3927 29.9331 74.5952 30.1339C75.1012 30.3348 75.2025 30.5357 75.3037 30.7366"/>
	<path fill="#2D1B0A" d="M16.4979 30.7366C16.4979 30.5358 16.8016 30.3349 16.9028 30.0335C17.1052 29.8326 17.2065 29.6317 17.4089 29.4308C17.6113 29.23 17.7125 29.0291 17.9149 28.8282C18.0162 28.7277 18.1174 28.6273 18.2186 28.5268C19.332 27.5224 20.1417 26.9197 21.1538 26.4175C23.0769 25.413 25.2024 24.9108 27.4291 24.9108C29.5546 24.9108 31.7813 25.413 33.7044 26.4175C34.6153 26.9197 35.5262 27.5224 36.3361 28.2255C36.7409 28.6273 36.842 28.7277 36.842 28.7277C37.0445 28.9286 37.2469 29.1295 37.3482 29.3304C37.5506 29.5313 37.6517 29.7322 37.8542 29.9331C37.9555 30.134 38.1579 30.3349 38.259 30.6362C38.0566 30.5358 37.7531 30.4353 37.5506 30.2344C37.3482 30.134 37.1458 30.0335 36.842 29.8326C35.9312 29.4308 35.7288 29.3304 35.425 29.23C34.5141 28.8282 33.6032 28.5268 32.6922 28.2255C30.8704 27.7233 29.0485 27.4219 27.2267 27.4219C25.4048 27.4219 23.583 27.7233 21.7611 28.2255C20.8502 28.5268 19.9392 28.8282 19.0283 29.23C18.8259 29.3304 18.6235 29.4308 18.3198 29.5313C17.4089 29.9331 17.2065 30.0335 16.9028 30.2344C16.9028 30.5358 16.7004 30.6362 16.4979 30.7366"/>
	<path fill="#5BCDF4" d="M80.5668 39.0738C80.5668 34.3528 88.9676 21.2948 88.9676 21.2948C88.9676 21.2948 97.0648 34.3528 97.0648 39.0738C97.0648 43.7948 93.4211 46.7077 88.8664 46.7077C84.2105 46.6073 80.5668 43.7948 80.5668 39.0738"/>
	<path fill="#2D1B0A" d="M88.7652 47.6118C86.2348 47.6118 83.9069 46.8082 82.2874 45.3015C80.4656 43.6944 79.5546 41.4846 79.5546 38.9734C79.5546 34.0515 87.1457 21.9979 88.0567 20.5917L88.9676 19.2859L89.7774 20.6922C90.5871 22.0984 98.077 34.0515 98.077 38.9734C98.077 41.585 97.1659 43.7948 95.3441 45.3015C93.6235 46.8082 91.2955 47.6118 88.7652 47.6118M88.8664 23.1029C86.2348 27.4221 81.5789 35.7591 81.5789 38.9734C81.5789 40.9823 82.2874 42.5895 83.7045 43.7948C85.0202 44.8997 86.8421 45.6029 88.8664 45.6029C90.8906 45.6029 92.7125 45.0002 94.0284 43.7948C95.3441 42.5895 96.0527 40.8819 96.0527 38.9734C95.9514 35.7591 91.4979 27.4221 88.8664 23.1029"/>
</svg>
