<?xml version="1.0" encoding="utf-8" ?>
<svg xmlns="http://www.w3.org/2000/svg" xmlns:xlink="http://www.w3.org/1999/xlink" width="90" height="90">
	<path fill="white" d="M45 90C40.6808 90 36.3616 89.3973 32.2433 88.192L18.5826 88.192L18.5826 81.4621C6.9308 73.0246 0 59.4643 0 45C0 20.1897 20.1897 0 45 0C69.8103 0 90 20.1897 90 45C90 60.1674 82.567 74.1295 69.9107 82.4665L69.9107 88.192L57.7567 88.192C53.6384 89.3973 49.4196 90 45 90"/>
	<path fill="#FFDC4A" d="M86.7858 45C86.7858 68.1886 67.9878 86.9865 44.7991 86.9865C21.6105 86.9865 2.81255 68.1886 2.81255 45C2.81255 21.8113 21.6105 3.01335 44.7991 3.01335C67.9878 3.01335 86.7858 21.8113 86.7858 45"/>
	<path fill="#2D1B0A" d="M44.7992 87.991C21.0938 87.991 1.8081 68.7053 1.8081 45C1.8081 21.2946 21.0938 2.0089 44.7992 2.0089C68.5045 2.0089 87.7902 21.2946 87.7902 45C87.7902 68.7053 68.5045 87.991 44.7992 87.991M44.7992 4.01783C22.1987 4.01783 3.81703 22.3995 3.81703 45C3.81703 67.6004 22.1987 85.9821 44.7992 85.9821C67.3996 85.9821 85.7813 67.6004 85.7813 45C85.7813 22.3995 67.3996 4.01783 44.7992 4.01783"/>
	<path fill="#FCFCFC" d="M60.4688 68.5044C60.3683 65.0893 59.0624 61.875 57.0536 59.3638C54.0401 55.6473 49.3191 53.3371 44.1964 53.5258C38.8728 53.7388 34.3527 56.5513 31.7411 60.6696C30.0335 63.2813 29.2223 66.4955 29.2223 69.8102L60.4688 68.5044"/>
	<path fill="#2D1B0A" d="M28.2178 70.9151L28.2178 69.9101C28.2178 66.493 29.0289 63.0758 30.837 60.1611C33.7499 55.6384 38.7722 52.7238 44.0959 52.5107C49.4195 52.3217 54.4419 54.6334 57.7566 58.7541C59.9664 61.5682 61.2722 64.8848 61.3727 68.5031L61.3727 69.5081L28.2178 70.9151M44.7952 54.5329C44.5981 54.5329 44.3972 54.5329 44.1963 54.5329C39.4753 54.7339 35.0557 57.2465 32.5445 61.2667C31.0378 63.5784 30.3347 66.091 30.2343 68.8046L59.4642 67.498C59.1628 64.6839 58.0579 62.1712 56.3503 59.9601C53.4374 56.543 49.2186 54.5329 44.7952 54.5329"/>
	<path fill="#2D1B0A" d="M35.2566 33.75L18.8839 33.75C18.2812 33.75 17.8794 33.3482 17.8794 32.7455C17.8794 32.1428 18.2812 31.741 18.8839 31.741L35.2566 31.741C35.8594 31.741 36.2612 32.1428 36.2612 32.7455C36.2612 33.3482 35.8594 33.75 35.2566 33.75"/>
	<path fill="#2D1B0A" d="M69.9107 33.75L53.5379 33.75C52.9352 33.75 52.5335 33.3482 52.5335 32.7455C52.5335 32.1428 52.9352 31.741 53.5379 31.741L69.9107 31.741C70.5134 31.741 70.9152 32.1428 70.9152 32.7455C70.9152 33.3482 70.4129 33.75 69.9107 33.75"/>
	<path fill="#5BCDF4" d="M21.3951 32.8461L31.7411 32.8461L31.7411 85.1786L21.3951 85.1786L21.3951 32.8461"/>
	<path fill="#2D1B0A" d="M32.6451 86.1831L20.3906 86.1831L20.3906 31.8416L32.7456 31.8416L32.7456 86.1831M22.3996 84.1742L30.7366 84.1742L30.7366 33.8505L22.3996 33.8505L22.3996 84.1742"/>
	<path fill="#5BCDF4" d="M56.4509 32.8461L66.7969 32.8461L66.7969 85.1786L56.4509 85.1786L56.4509 32.8461"/>
	<path fill="#2D1B0A" d="M67.7009 86.1831L55.346 86.1831L55.346 31.8416L67.7009 31.8416L67.7009 86.1831M57.4553 84.1742L65.7924 84.1742L65.7924 33.8505L57.4553 33.8505L57.4553 84.1742"/>
</svg>
