<?xml version="1.0" encoding="utf-8" ?>
<svg xmlns="http://www.w3.org/2000/svg" xmlns:xlink="http://www.w3.org/1999/xlink" width="90" height="90">
	<path fill="white" d="M45 90C20.1897 90 0 69.8103 0 45C0 20.1897 20.1897 0 45 0C69.8103 0 90 20.1897 90 45C90 69.8103 69.8103 90 45 90"/>
	<path fill="#FFDC4A" d="M86.9866 44.8995C86.9866 68.0881 68.1886 86.8861 45 86.8861C21.8114 86.8861 3.0134 68.0881 3.0134 44.8995C3.0134 21.7109 21.8114 2.9129 45 2.9129C68.1886 2.9129 86.9866 21.7109 86.9866 44.8995"/>
	<path fill="#2D1B0A" d="M45 87.9911C21.2946 87.9911 2.00895 68.7054 2.00895 45C2.00895 21.2946 21.2946 2.00895 45 2.00895C68.7054 2.00895 87.9911 21.2946 87.9911 45C87.9911 68.7054 68.7054 87.9911 45 87.9911M45 3.91743C22.3995 3.91743 4.01788 22.2991 4.01788 44.8995C4.01788 67.5 22.3995 85.8818 45 85.8818C67.6004 85.8818 85.9821 67.5 85.9821 44.8995C85.9821 22.2991 67.6004 3.91743 45 3.91743"/>
	<path fill="#2D1B0A" d="M9.14055 26.2165C20.7924 23.5044 30.3348 24.4084 40.7812 26.9196C42.2878 27.3214 43.9955 27.7232 45.703 27.7232C48.616 27.8236 51.8303 27.1205 54.6428 26.4174C65.6918 23.6049 74.3302 25.1116 82.6674 26.8192L82.0647 31.741C80.7589 31.741 80.357 32.3437 79.9552 33.5491C78.0469 39.7767 79.6539 50.424 65.2902 49.1182C55.8482 48.3147 53.136 45.703 48.616 34.3526C48.2142 33.3482 48.0134 31.741 45.8035 31.8415C44.5982 31.8415 43.4932 32.1428 43.0915 34.2522C42.3884 38.2701 36.8638 49.1182 25.8147 49.1182C15.9709 49.1182 12.2544 43.9955 11.8526 32.8459C11.7522 31.4397 10.5468 31.2388 9.84368 31.1384L9.14055 26.2165"/>
	<path fill="#2D1B0A" d="M46.607 72.6227C51.9307 67.9017 59.9664 67.9017 65.3905 72.5222C68.1025 68.7053 69.7097 64.0848 69.7097 59.0625L23.0021 59.0625C23.0021 64.1852 24.7097 69.0067 27.5222 72.924C32.8459 67.9017 41.1829 67.8013 46.607 72.6227"/>
	<path fill="#FF4646" d="M46.607 72.6227C41.0824 67.8013 32.8458 67.9017 27.4217 72.9241C31.6404 78.75 38.5713 82.4665 46.2052 82.4665C54.04 82.4665 61.0713 78.5491 65.29 72.6227C60.0668 67.9017 52.0311 67.9017 46.607 72.6227"/>
</svg>
