<?xml version="1.0" encoding="utf-8" ?>
<svg xmlns="http://www.w3.org/2000/svg" xmlns:xlink="http://www.w3.org/1999/xlink" width="90" height="96">
	<path fill="white" d="M45 96C20.1672 96 0 75.858 0 51.1065C0 42.8894 2.20736 34.8727 6.52174 27.858C0.401338 16.2338 5.91973 7.31524 9.93311 4.00835L14.8495 0L14.8495 6.31315C14.8495 10.3215 15.8528 13.3278 17.9599 15.2317C25.786 9.31942 35.3177 6.11273 45 6.11273C54.6823 6.11273 64.214 9.21921 71.9398 15.0313C73.8462 13.1273 74.7492 10.2213 74.7492 6.31315L74.7492 0L79.6656 4.00835C83.5786 7.21503 88.9967 15.9332 83.2776 27.357C87.6923 34.4718 90 42.5887 90 51.0063C89.8997 75.858 69.7324 96 45 96"/>
	<path fill="#FF4646" d="M21.9733 20.142C21.9733 20.142 11.7391 19.5408 11.7391 6.1128C11.7391 6.1128 -0.903 16.3341 13.9465 32.9687L21.9733 20.142"/>
	<path fill="#2D1B0A" d="M14.0299 34.6724L13.1269 33.6703C7.80915 27.6578 5.30079 21.7454 5.66058 16.1338C6.2038 9.41976 10.8192 5.61183 11.0199 5.41141L12.6252 4.1087L12.6252 6.21308C12.6252 18.4386 21.555 19.14 21.9563 19.2402L23.662 19.3404L14.0299 34.6724M10.8192 8.61809C9.61517 10.2214 8.00982 12.8269 7.70882 16.3342C7.30748 21.044 9.41451 26.1546 13.7289 31.3655L20.351 20.9438C17.5416 20.1421 11.7222 17.5367 10.8192 8.61809"/>
	<path fill="#FF4646" d="M67.4247 20.142C67.4247 20.142 77.6588 19.5408 77.6588 6.1128C77.6588 6.1128 90.301 16.3341 75.4515 32.9687L67.4247 20.142"/>
	<path fill="#2D1B0A" d="M75.3511 34.6724L65.6187 19.3404L67.3244 19.2402C67.7257 19.2402 76.6555 18.4386 76.6555 6.21308L76.6555 4.1087L78.2608 5.41141C78.4615 5.61183 83.0769 9.41976 83.5786 16.1338C83.9799 21.7454 81.5719 27.6578 76.1538 33.6703L75.3511 34.6724M69.0301 20.8436L75.6521 31.2653C80.0669 26.0544 82.0735 21.044 81.6722 16.234C81.3712 12.7267 79.8662 10.021 78.5618 8.51789C77.6588 17.5367 71.8394 20.1421 69.0301 20.8436"/>
	<path fill="#FF4646" d="M86.9398 50.9062C86.9398 74.0399 68.1628 92.7934 45 92.7934C21.8373 92.7934 3.06025 74.0399 3.06025 50.9062C3.06025 27.7725 21.8373 9.0189 45 9.0189C68.1628 9.0189 86.9398 27.7725 86.9398 50.9062"/>
	<path fill="#2D1B0A" d="M45.0001 93.7955C21.3212 93.7955 2.057 74.5554 2.057 50.9062C2.057 27.2569 21.3212 8.0168 45.0001 8.0168C68.6791 8.0168 87.9433 27.2569 87.9433 50.9062C87.9433 74.5554 68.6791 93.7955 45.0001 93.7955M45.0001 10.021C22.4249 10.021 4.06369 28.3592 4.06369 50.9062C4.06369 73.4531 22.4249 91.7913 45.0001 91.7913C67.5754 91.7913 85.9366 73.4531 85.9366 50.9062C85.9366 28.3592 67.5754 10.021 45.0001 10.021"/>
	<path fill="#2D1B0A" d="M60.7023 77.8623C60.1003 77.8623 59.699 77.4614 59.699 76.8602C59.699 70.3466 53.2776 65.0355 45.4515 65.0355C37.5251 65.0355 31.204 70.3466 31.204 76.8602C31.204 77.4614 30.8027 77.8623 30.2006 77.8623C29.5986 77.8623 29.1973 77.4614 29.1973 76.8602C29.1973 69.2443 36.5217 63.0313 45.4515 63.0313C54.3812 63.0313 61.7057 69.2443 61.7057 76.8602C61.7057 77.3613 61.204 77.8623 60.7023 77.8623"/>
	<path fill="#FFDC4A" d="M34.2141 37.2777L17.9599 30.5637"/>
	<path fill="#2D1B0A" d="M34.2141 38.2797C34.1138 38.2797 33.9131 38.2797 33.8127 38.1795L17.5586 31.4655C17.0569 31.2651 16.7559 30.6639 17.0569 30.1628C17.2576 29.6618 17.8596 29.3612 18.3612 29.6618L34.6154 36.3758C35.1171 36.5762 35.4181 37.1774 35.1171 37.6785C34.9164 38.0793 34.6154 38.2797 34.2141 38.2797"/>
	<path fill="#FFDC4A" d="M55.5853 37.4781L71.8395 30.7641"/>
	<path fill="#2D1B0A" d="M55.5853 38.4801C55.184 38.4801 54.7826 38.2797 54.6054 37.8789C54.4816 37.3779 54.6054 36.7766 55.184 36.5762L71.4381 29.7854C71.9398 29.6618 72.5418 29.7854 72.7425 30.3632C72.9432 30.8643 72.7425 31.4655 72.2408 31.666L55.9866 38.3799C55.8863 38.4801 55.6856 38.4801 55.5853 38.4801"/>
	<path fill="#FCFCFC" d="M38.2274 41.6868C38.2274 44.5093 35.9365 46.7974 33.1104 46.7974C30.2843 46.7974 27.9933 44.5093 27.9933 41.6868C27.9933 38.8642 30.2843 36.5761 33.1104 36.5761C35.9365 36.5761 38.2274 38.8642 38.2274 41.6868"/>
	<path fill="#2D1B0A" d="M33.1104 47.7996C29.7994 47.7996 26.99 45.0939 26.99 41.6868C26.99 38.2797 29.699 35.5741 33.1104 35.5741C36.5218 35.5741 39.2308 38.2797 39.2308 41.6868C39.2308 45.0939 36.5218 47.7996 33.1104 47.7996M33.1104 37.6784C30.903 37.6784 28.9967 39.4822 28.9967 41.787C28.9967 44.0918 30.8027 45.8955 33.1104 45.8955C35.4181 45.8955 37.2241 44.0918 37.2241 41.787C37.2241 39.4822 35.4181 37.6784 33.1104 37.6784"/>
	<path fill="#FCFCFC" d="M61.204 41.9875C61.204 44.81 58.9131 47.0981 56.087 47.0981C53.2609 47.0981 50.9699 44.81 50.9699 41.9875C50.9699 39.165 53.2609 36.8768 56.087 36.8768C58.9131 36.8768 61.204 39.165 61.204 41.9875"/>
	<path fill="#2D1B0A" d="M56.087 48.0001C52.776 48.0001 49.9666 45.2944 49.9666 41.8873C49.9666 38.4802 52.6756 35.7746 56.087 35.7746C59.4984 35.7746 62.2074 38.4802 62.2074 41.8873C62.2074 45.2944 59.4984 48.0001 56.087 48.0001M56.087 37.8789C53.8796 37.8789 51.9733 39.6827 51.9733 41.9875C51.9733 44.2923 53.7793 46.0961 56.087 46.0961C58.3947 46.0961 60.2007 44.2923 60.2007 41.9875C60.2007 39.6827 58.3947 37.8789 56.087 37.8789"/>
</svg>
