<?xml version="1.0" encoding="utf-8" ?>
<svg xmlns="http://www.w3.org/2000/svg" xmlns:xlink="http://www.w3.org/1999/xlink" width="90" height="90">
	<path fill="white" d="M45 90C20.1897 90 0 69.8103 0 45C0 20.1897 20.1897 0 45 0C69.8103 0 90 20.1897 90 45C90 69.8103 69.8103 90 45 90"/>
	<path fill="#FFDC4A" d="M86.9866 44.8995C86.9866 68.0881 68.1886 86.8861 45 86.8861C21.8114 86.8861 3.0134 68.0881 3.0134 44.8995C3.0134 21.7109 21.8114 2.9129 45 2.9129C68.1886 2.9129 86.9866 21.7109 86.9866 44.8995"/>
	<path fill="#2D1B0A" d="M45 87.9911C21.2946 87.9911 2.00895 68.7054 2.00895 45C2.00895 21.2946 21.2946 2.00895 45 2.00895C68.7054 2.00895 87.9911 21.2946 87.9911 45C87.9911 68.7054 68.7054 87.9911 45 87.9911M45 3.91743C22.3995 3.91743 4.01788 22.2991 4.01788 44.8995C4.01788 67.5 22.3995 85.8818 45 85.8818C67.6004 85.8818 85.9821 67.5 85.9821 44.8995C85.9821 22.2991 67.6004 3.91743 45 3.91743"/>
	<path fill="#FCFCFC" d="M52.3326 66.1941C52.3326 70.2438 49.0497 73.5267 44.9999 73.5267C40.9503 73.5267 37.6674 70.2438 37.6674 66.1941C37.6674 62.1444 40.9503 58.8615 44.9999 58.8615C49.0497 58.8615 52.3326 62.1444 52.3326 66.1941"/>
	<path fill="#2D1B0A" d="M45 74.4307C40.3794 74.4307 36.6629 70.7142 36.6629 66.0937C36.6629 61.4731 40.3794 57.7566 45 57.7566C49.6205 57.7566 53.337 61.4731 53.337 66.0937C53.337 70.7142 49.6205 74.4307 45 74.4307M45 59.866C41.4843 59.866 38.6718 62.6785 38.6718 66.1941C38.6718 69.7097 41.4843 72.5222 45 72.5222C48.5156 72.5222 51.3281 69.7097 51.3281 66.1941C51.3281 62.6785 48.5156 59.866 45 59.866"/>
	<path fill="#2D1B0A" d="M28.1249 42.3884C24.8101 41.3839 21.9976 39.0737 20.3905 36.0602C18.8384 32.9464 18.3816 29.4307 19.386 26.116C21.0936 20.491 27.02 17.2767 32.645 18.9843C37.2655 20.3906 39.8771 25.3125 38.4708 29.8326C37.8682 31.6405 36.6628 33.1472 34.9552 34.0513C33.2476 34.9553 31.3392 35.1563 29.4307 34.5536C26.3168 33.6496 24.5088 30.2343 25.5133 27.1205C26.3168 24.5089 29.1293 23.0022 31.7409 23.8058C32.8458 24.1071 33.6494 24.8102 34.2521 25.8147C34.7543 26.8192 34.8548 27.9241 34.5534 29.0289C33.9508 30.9375 32.0423 31.9419 30.1338 31.3392C28.5266 30.837 27.6226 29.1294 28.1249 27.5223C28.3258 26.8192 28.845 26.3169 29.4307 26.0156C30.0333 25.7142 30.7365 25.6138 31.4396 25.8147L30.8369 27.7232C30.636 27.7232 30.5356 27.7232 30.3347 27.7232C30.2342 27.8236 30.0333 27.9241 30.0333 28.125C29.9329 28.4263 29.9329 28.6271 30.1338 28.9286C30.2342 29.1294 30.4351 29.3303 30.7365 29.4307C31.1383 29.5313 31.54 29.5313 31.9418 29.3303C32.3436 29.1294 32.5445 28.828 32.645 28.4263C32.8458 27.9241 32.7454 27.3214 32.4441 26.8192C32.1427 26.3169 31.7409 25.9151 31.1383 25.8147C30.3347 25.6138 29.6316 25.7142 28.9284 26.0156C28.2253 26.3169 27.7231 27.0201 27.5222 27.7232C27.2208 28.7276 27.3213 29.8326 27.8235 30.7365C28.3258 31.6405 29.1293 32.3438 30.1338 32.6451C31.4396 33.0468 32.8458 32.9464 34.0512 32.2432C35.2566 31.6405 36.1606 30.5356 36.5624 29.2299C37.6673 25.7142 35.6583 21.8973 32.0423 20.8928C27.5222 19.4866 22.6003 22.0982 21.2945 26.6183C20.3905 29.4307 20.6918 32.4441 22.0981 35.0557C23.5043 37.6674 25.8146 39.5759 28.6271 40.4799L28.1249 42.3884"/>
	<path fill="#2D1B0A" d="M61.5736 43.0914C58.2588 42.087 55.4463 39.7767 53.8392 36.7634C52.2871 33.6494 51.8303 30.1339 52.8347 26.8191C54.5423 21.1941 60.4687 17.9798 66.0937 19.6874C70.7142 21.0937 73.3258 26.0156 71.9195 30.5356C71.3169 32.3437 70.1115 33.8503 68.4039 34.7544C66.6963 35.6584 64.7879 35.8594 62.9798 35.2566C61.4731 34.7544 60.1673 33.75 59.4642 32.3437C58.7611 30.9375 58.5602 29.3302 59.0624 27.8236C59.866 25.212 62.6785 23.7053 65.2901 24.5089C66.395 24.8102 67.1986 25.5133 67.8012 26.5178C68.3035 27.5223 68.4039 28.6272 68.1026 29.732C67.4999 31.6405 65.5914 32.6451 63.6829 32.0424C62.0758 31.5401 61.1718 29.8326 61.674 28.2254C61.8749 27.5223 62.3771 27.02 62.9798 26.7187C63.5825 26.4174 64.2856 26.3169 64.9887 26.5178L64.3861 28.4263C64.1852 28.4263 64.0847 28.4263 63.8838 28.4263C63.7834 28.5267 63.5825 28.6272 63.5825 28.8281C63.3816 29.3302 63.6829 29.9329 64.2856 30.1339C65.0892 30.3347 65.9932 29.9329 66.1941 29.1294C66.395 28.5267 66.2945 28.0245 65.9932 27.5223C65.6919 27.02 65.2901 26.6182 64.6874 26.5178C63.0803 26.0156 61.4731 26.9196 60.9709 28.5267C60.3682 30.636 61.4731 32.846 63.5825 33.4485C64.8883 33.8503 66.2945 33.75 67.4999 33.0468C68.7053 32.3437 69.6093 31.3392 70.0111 30.0335C71.116 26.5178 69.107 22.7008 65.491 21.6964C63.2812 20.9932 60.9709 21.2946 58.8615 22.299C56.7521 23.3035 55.3459 25.212 54.6428 27.4218C53.7387 30.2343 54.0401 33.2477 55.4463 35.8594C56.8526 38.4709 59.1629 40.3794 61.9753 41.2834L61.5736 43.0914"/>
</svg>
