<?xml version="1.0" encoding="utf-8" ?>
<svg xmlns="http://www.w3.org/2000/svg" xmlns:xlink="http://www.w3.org/1999/xlink" width="90" height="90">
	<path fill="white" d="M45 90C20.1897 90 0 69.8103 0 45C0 20.1897 20.1897 0 45 0C69.8103 0 90 20.1897 90 45C90 69.8103 69.9107 90 45 90"/>
	<path fill="#FFDC4A" d="M86.9867 45C86.9867 68.1886 68.1886 86.9866 44.9999 86.9866C21.8112 86.9866 3.0131 68.1886 3.0131 45C3.0131 21.8114 21.8112 3.0134 44.9999 3.0134C68.1886 3.0134 86.9867 21.8114 86.9867 45"/>
	<path fill="#2D1B0A" d="M44.9998 87.9911C21.2941 87.9911 2.00815 68.7054 2.00815 45C2.00815 21.2946 21.2941 2.00895 44.9998 2.00895C68.7051 2.00895 87.9914 21.2946 87.9914 45C88.0915 68.7054 68.8056 87.9911 44.9998 87.9911M44.9998 4.01788C22.399 4.01788 4.0171 22.3995 4.0171 45C4.0171 67.6004 22.399 85.9821 44.9998 85.9821C67.6003 85.9821 85.9821 67.6004 85.9821 45C85.9821 22.3995 67.7007 4.01788 44.9998 4.01788"/>
	<path fill="#2D1B0A" d="M20.7917 37.0647L37.064 37.0647"/>
	<path fill="#2D1B0A" d="M37.064 38.5713L20.7917 38.5713C19.9881 38.5713 19.285 37.8682 19.285 37.0647C19.285 36.2611 19.9881 35.558 20.7917 35.558L37.064 35.558C37.8676 35.558 38.5707 36.2611 38.5707 37.0647C38.5707 37.8682 37.8676 38.5713 37.064 38.5713"/>
	<path fill="#2D1B0A" d="M53.035 37.0647L69.3073 37.0647"/>
	<path fill="#2D1B0A" d="M69.3073 38.5713L53.035 38.5713C52.2314 38.5713 51.5283 37.8682 51.5283 37.0647C51.5283 36.2611 52.2314 35.558 53.035 35.558L69.3073 35.558C70.1109 35.558 70.814 36.2611 70.814 37.0647C70.814 37.8682 70.1109 38.5713 69.3073 38.5713"/>
	<path fill="#2D1B0A" d="M34.7536 65.3905L57.0527 65.3905"/>
	<path fill="#2D1B0A" d="M57.1533 66.8972L34.8541 66.8972C34.0506 66.8972 33.3475 66.1941 33.3475 65.3905C33.3475 64.587 34.0506 63.8839 34.8541 63.8839L57.1533 63.8839C57.9568 63.8839 58.66 64.587 58.66 65.3905C58.66 66.1941 57.9568 66.8972 57.1533 66.8972"/>
</svg>
