<?xml version="1.0" encoding="utf-8" ?>
<svg xmlns="http://www.w3.org/2000/svg" xmlns:xlink="http://www.w3.org/1999/xlink" width="90" height="90">
	<path fill="white" d="M45 90C20.1897 90 0 69.8103 0 45C0 20.1897 20.1897 0 45 0C69.8103 0 90 20.1897 90 45C90 69.8103 69.8103 90 45 90"/>
	<path fill="#FFDC4A" d="M86.9866 44.8995C86.9866 68.0881 68.1886 86.8861 45 86.8861C21.8114 86.8861 3.0134 68.0881 3.0134 44.8995C3.0134 21.7109 21.8114 2.9129 45 2.9129C68.1886 2.9129 86.9866 21.7109 86.9866 44.8995"/>
	<path fill="#2D1B0A" d="M45 87.9911C21.2946 87.9911 2.00895 68.7054 2.00895 45C2.00895 21.2946 21.2946 2.00895 45 2.00895C68.7054 2.00895 87.9911 21.2946 87.9911 45C87.9911 68.7054 68.7054 87.9911 45 87.9911M45 3.91743C22.3995 3.91743 4.01788 22.2991 4.01788 44.8995C4.01788 67.5 22.3995 85.8818 45 85.8818C67.6004 85.8818 85.9821 67.5 85.9821 44.8995C85.9821 22.2991 67.6004 3.91743 45 3.91743"/>
	<path fill="#2D1B0A" d="M58.058 70.915C57.4554 70.915 57.0536 70.5133 57.0536 69.9107C57.0536 65.0892 52.3326 61.1718 46.5067 61.1718C40.6808 61.1718 35.9598 65.0892 35.9598 69.9107C35.9598 70.5133 35.558 70.915 34.9553 70.915C34.3526 70.915 33.9509 70.5133 33.9509 69.9107C33.9509 63.9843 39.5759 59.1628 46.5067 59.1628C53.4375 59.1628 59.0625 63.9843 59.0625 69.9107C59.0625 70.4128 58.5602 70.915 58.058 70.915"/>
	<path fill="#FCFCFC" d="M24.31 34.7544C24.31 38.4709 27.3234 41.3838 30.9394 41.3838C34.5555 41.3838 37.5689 38.3704 37.5689 34.7544C37.5689 31.0379 34.5555 28.1249 30.9394 28.1249C27.3234 28.1249 24.31 31.1383 24.31 34.7544"/>
	<path fill="#2D1B0A" d="M30.9394 42.4888C26.7191 42.4888 23.3034 39.0736 23.3034 34.8548C23.3034 30.6361 26.7191 27.2209 30.9394 27.2209C35.1576 27.2209 38.5755 30.6361 38.5755 34.8548C38.6738 38.9731 35.1576 42.4888 30.9394 42.4888M30.9394 29.1294C27.8241 29.1294 25.3126 31.6405 25.3126 34.7544C25.3126 37.8682 27.8241 40.3794 30.9394 40.3794C34.0527 40.3794 36.5641 37.8682 36.5641 34.7544C36.6646 31.6405 34.0527 29.1294 30.9394 29.1294"/>
	<path fill="#FCFCFC" d="M55.0466 34.7544C55.0466 38.4709 58.06 41.3838 61.676 41.3838C65.3926 41.3838 68.3055 38.3704 68.3055 34.7544C68.3055 31.0379 65.2921 28.1249 61.676 28.1249C58.06 28.1249 55.0466 31.1383 55.0466 34.7544"/>
	<path fill="#2D1B0A" d="M61.676 42.4888C57.4557 42.4888 54.0401 39.0736 54.0401 34.8548C54.0401 30.6361 57.4557 27.2209 61.676 27.2209C65.8942 27.2209 69.312 30.6361 69.312 34.8548C69.4104 38.9731 65.8942 42.4888 61.676 42.4888M61.676 29.1294C58.5607 29.1294 56.0492 31.6405 56.0492 34.7544C56.0492 37.8682 58.5607 40.3794 61.676 40.3794C64.7893 40.3794 67.3008 37.8682 67.3008 34.7544C67.4012 31.6405 64.7893 29.1294 61.676 29.1294"/>
	<path fill="#2D1B0A" d="M34.2522 34.8549C34.2522 36.6855 32.7681 38.1696 30.9375 38.1696C29.1068 38.1696 27.6227 36.6855 27.6227 34.8549C27.6227 33.0242 29.1068 31.5401 30.9375 31.5401C32.7681 31.5401 34.2522 33.0242 34.2522 34.8549"/>
	<path fill="#2D1B0A" d="M65.2901 34.8549C65.2901 36.6855 63.806 38.1696 61.9754 38.1696C60.1447 38.1696 58.6606 36.6855 58.6606 34.8549C58.6606 33.0242 60.1447 31.5401 61.9754 31.5401C63.806 31.5401 65.2901 33.0242 65.2901 34.8549"/>
	<path fill="#FCFCFC" d="M75.1339 15.5691C71.2164 11.6517 66.5959 8.53783 61.3727 6.42846L27.0201 7.53337C21.1941 10.4463 16.0714 14.5646 12.1539 19.7879L75.2343 17.7789L75.1339 15.5691"/>
	<path fill="#2D1B0A" d="M10.0445 20.7923L11.3503 19.0847C15.3682 13.8615 20.6918 9.44186 26.6182 6.62936L61.674 5.424C67.1985 7.73427 71.9195 10.8481 75.9374 14.866L76.3391 18.6829L10.0445 20.7923M27.3214 8.53784C22.3995 10.9485 17.9798 14.4642 14.3638 18.6829L74.2299 16.7744C70.5133 12.4552 66.1942 9.5423 61.2722 7.53337L27.3214 8.53784"/>
	<path fill="#FCFCFC" d="M58.0579 4.52L14.3637 16.2722C10.5467 20.3905 7.63378 25.3124 5.7253 30.7365L72.7231 12.7566C68.4039 9.14054 63.482 6.32804 58.0579 4.52"/>
	<path fill="#2D1B0A" d="M4.11815 32.2432L4.72083 30.4353C6.62931 24.9107 9.6427 19.9889 13.5601 15.6697L58.0578 3.61605C63.8837 5.42409 68.9061 8.33703 73.4261 12.154L74.8325 13.3594L4.11815 32.2432M14.8659 17.1763C11.6516 20.7924 9.14047 24.8103 7.33244 29.2299L70.6136 12.2544C66.7968 9.3415 62.5779 7.03123 58.0578 5.52453L14.8659 17.1763"/>
</svg>
