<?xml version="1.0" encoding="utf-8" ?>
<svg xmlns="http://www.w3.org/2000/svg" xmlns:xlink="http://www.w3.org/1999/xlink" width="90" height="90">
	<path fill="white" d="M45 90C42.4888 90 39.9777 89.7991 37.4665 89.3973L36.3616 89.3973C32.1429 89.3973 28.0246 87.8906 24.8103 85.279C9.44196 77.5446 0 62.1763 0 45C0 20.1897 20.1897 0 45 0C69.8103 0 90 20.1897 90 45C90 60.6696 81.6629 75.3348 68.3036 83.471C64.8884 87.1875 59.9665 89.3973 54.9442 89.3973L52.5335 89.3973C50.0223 89.7991 47.5112 90 45 90"/>
	<path fill="#FFDC4A" d="M86.9866 45C86.9866 68.1886 68.1886 86.9866 45 86.9866C21.8114 86.9866 3.0134 68.1886 3.0134 45C3.0134 21.8114 21.8114 3.0134 45 3.0134C68.1886 3.0134 86.9866 21.8114 86.9866 45"/>
	<path fill="#2D1B0A" d="M45 87.9911C21.2946 87.9911 2.00895 68.7054 2.00895 45C2.00895 21.2946 21.2946 2.00895 45 2.00895C68.7054 2.00895 87.9911 21.2946 87.9911 45C87.9911 68.7054 68.7054 87.9911 45 87.9911M45 3.91743C22.3995 3.91743 4.01788 22.2991 4.01788 44.8995C4.01788 67.5 22.3995 85.8818 45 85.8818C67.6004 85.8818 85.9821 67.5 85.9821 44.8995C85.9821 22.2991 67.6004 3.91743 45 3.91743"/>
	<path fill="#FCFCFC" d="M24.308 34.8548C24.308 38.5714 27.3214 41.4843 30.9375 41.4843C34.5535 41.4843 37.5669 38.4709 37.5669 34.8548C37.5669 31.2388 34.5535 28.2254 30.9375 28.2254C27.3214 28.2254 24.308 31.1383 24.308 34.8548"/>
	<path fill="#2D1B0A" d="M31.0379 42.4888C26.8192 42.4888 23.404 39.0736 23.404 34.8548C23.404 30.6361 26.8192 27.2209 31.0379 27.2209C35.2567 27.2209 38.6719 30.6361 38.6719 34.8548C38.6719 39.0736 35.2567 42.4888 31.0379 42.4888M31.0379 29.1294C27.9241 29.1294 25.4129 31.6405 25.4129 34.7544C25.4129 37.8682 27.9241 40.3794 31.0379 40.3794C34.1518 40.3794 36.6629 37.8682 36.6629 34.7544C36.6629 31.741 34.1518 29.1294 31.0379 29.1294"/>
	<path fill="#FCFCFC" d="M55.0446 34.8548C55.0446 38.5725 58.058 41.4855 61.674 41.4855C65.3906 41.4855 68.3035 38.4721 68.3035 34.8548C68.3035 31.24 65.2901 28.2241 61.674 28.2241C58.058 28.2241 55.0446 31.1395 55.0446 34.8548"/>
	<path fill="#2D1B0A" d="M61.7745 42.4888C57.5557 42.4888 54.1405 39.0736 54.1405 34.8548C54.1405 30.6361 57.5557 27.2209 61.7745 27.2209C65.9932 27.2209 69.4084 30.6361 69.4084 34.8548C69.4084 39.0736 65.9932 42.4888 61.7745 42.4888M61.7745 29.1294C58.6606 29.1294 56.1495 31.6405 56.1495 34.7544C56.1495 37.8682 58.6606 40.3794 61.7745 40.3794C64.8884 40.3794 67.3994 37.8682 67.3994 34.7544C67.3994 31.741 64.8884 29.1294 61.7745 29.1294"/>
	<path fill="#2D1B0A" d="M34.3526 34.8549C34.3526 36.6855 32.8685 38.1696 31.0378 38.1696C29.2072 38.1696 27.7231 36.6855 27.7231 34.8549C27.7231 33.0242 29.2072 31.5401 31.0378 31.5401C32.8685 31.5401 34.3526 33.0242 34.3526 34.8549"/>
	<path fill="#2D1B0A" d="M65.3906 34.8549C65.3906 36.6855 63.9065 38.1696 62.0759 38.1696C60.2452 38.1696 58.7611 36.6855 58.7611 34.8549C58.7611 33.0242 60.2452 31.5401 62.0759 31.5401C63.9065 31.5401 65.3906 33.0242 65.3906 34.8549"/>
	<path fill="#FCFCFC" d="M54.9446 86.3837L36.362 86.3837C27.9245 86.3837 21.1946 79.5533 21.1946 71.2162L21.1946 60.1671C21.1946 51.7297 28.025 44.9997 36.362 44.9997L54.9446 44.9997C63.3821 44.9997 70.1131 51.8301 70.1131 60.1671L70.1131 71.2162C70.2125 79.5533 63.3821 86.3837 54.9446 86.3837"/>
	<path fill="#2D1B0A" d="M54.9447 87.3882L36.3618 87.3882C27.4219 87.3882 20.1896 80.1561 20.1896 71.2164L20.1896 60.1673C20.1896 51.2275 27.4219 43.9953 36.3618 43.9953L54.9447 43.9953C63.8848 43.9953 71.118 51.2275 71.118 60.1673L71.118 71.2164C71.2175 80.0556 63.8848 87.3882 54.9447 87.3882M36.3618 45.9038C28.5269 45.9038 22.1986 52.232 22.1986 60.0667L22.1986 71.1159C22.1986 78.9507 28.5269 85.2789 36.3618 85.2789L54.9447 85.2789C62.7797 85.2789 69.108 78.9507 69.108 71.1159L69.108 60.0667C69.108 52.232 62.7797 45.9038 54.9447 45.9038L36.3618 45.9038"/>
	<path fill="#2D1B0A" d="M22.3995 60.1673C11.953 57.9575 3.31464 44.3972 2.91285 43.7945L4.62044 42.6896C4.72089 42.79 13.1583 56.1494 22.8012 58.1584L22.3995 60.1673"/>
	<path fill="#2D1B0A" d="M70.3124 59.8661L69.9107 57.8571C69.9107 57.8571 80.0558 55.7477 85.7812 45.2009L87.5892 46.1049C81.462 57.5558 70.8147 59.7656 70.3124 59.8661"/>
</svg>
