<?xml version="1.0" encoding="utf-8" ?>
<svg xmlns="http://www.w3.org/2000/svg" xmlns:xlink="http://www.w3.org/1999/xlink" width="90" height="90">
	<path fill="white" d="M90 45.1004C90 34.4531 86.2876 24.4085 79.5652 16.2723L84.5819 16.2723L84.5819 10.2455L80.1672 10.2455L83.0769 7.33259C84.1806 6.22768 84.4816 4.72098 83.8796 3.31473C83.2776 1.90848 81.9732 1.00446 80.4682 1.00446L69.6321 1.00446L69.6321 7.03125L74.8495 7.03125L72.4415 9.44196C64.6154 3.31473 54.8829 0 45 0C20.1672 0 0 20.1897 0 45C0 69.8103 20.1672 90 45 90C58.8963 90 72.1405 83.3705 80.6689 72.3214C82.2742 71.7188 83.5786 70.7143 84.7826 69.5089C87.893 65.9933 87.893 62.1763 87.3913 59.9665C89.097 55.2455 90 50.2232 90 45.1004"/>
	<path fill="#FFDC4A" d="M86.9399 45.1004C86.9399 68.289 68.1628 87.087 45.0001 87.087C21.8374 87.087 3.0603 68.289 3.0603 45.1004C3.0603 21.9118 21.8374 3.1138 45.0001 3.1138C68.1628 3.1138 86.9399 21.9118 86.9399 45.1004"/>
	<path fill="#2D1B0A" d="M45.0001 88.0915C21.3213 88.0915 2.05705 68.8058 2.05705 45.1004C2.05705 21.3951 21.3213 2.10935 45.0001 2.10935C68.6792 2.10935 87.9434 21.3951 87.9434 45.1004C87.9434 68.8058 68.6792 88.0915 45.0001 88.0915M45.0001 4.01783C22.425 4.01783 4.06374 22.3995 4.06374 44.9999C4.06374 67.6004 22.425 85.9822 45.0001 85.9822C67.5755 85.9822 85.9367 67.6004 85.9367 44.9999C85.9367 22.3995 67.5755 4.01783 45.0001 4.01783"/>
	<path fill="#2D1B0A" d="M29.9499 40.982C29.7493 40.982 29.6489 40.982 29.4482 40.982C26.3379 40.8816 23.5285 39.5758 21.4215 37.2655C21.0202 36.8637 21.166 36.261 21.5218 35.8593C21.9232 35.4575 22.5252 35.6035 22.9265 35.9597C24.6322 37.8682 27.0402 38.8726 29.5486 38.9731C32.0569 39.0735 34.5653 38.1695 36.3713 36.4619C36.7727 36.0601 37.3747 36.0601 37.776 36.5624C38.1773 36.9642 38.1773 37.5668 37.6757 37.9686C35.5686 39.8771 32.8596 40.982 29.9499 40.982"/>
	<path fill="#2D1B0A" d="M62.5586 41.3838C59.7492 41.3838 56.8395 40.3793 54.6322 38.1695C54.3312 37.7677 54.3312 37.165 54.6322 36.7632C55.0335 36.3614 55.6355 36.3614 56.0368 36.7632C59.8495 40.3793 65.8697 40.2788 69.4817 36.4619C69.8829 36.0601 70.4849 36.0601 70.8864 36.4619C71.2877 36.8637 71.2877 37.4663 70.8864 37.8681C68.6789 40.1784 65.669 41.3838 62.5586 41.3838"/>
	<path fill="#B0C6CC" d="M67.6783 67.4998C64.7686 65.1895 59.9525 55.1449 58.0005 51.0266C57.8455 50.5244 58.3472 50.1226 58.7485 50.4239C61.6582 52.3324 68.6816 56.049 77.8121 54.7431C82.5278 54.04 87.5445 61.7743 82.5278 67.6003C78.7151 71.819 71.491 70.5132 67.6783 67.4998"/>
	<path fill="#2D1B0A" d="M75.9001 71.3168C72.588 71.3168 69.1756 70.0119 67.0678 68.3055C64.0569 65.8963 59.5404 56.7617 57.1316 51.5419C56.8305 50.9396 56.9902 50.2369 57.5331 49.735C58.0349 49.379 58.7375 49.2331 59.3397 49.6347C62.451 51.7426 69.0751 55.0552 77.7066 53.7503C80.2158 53.3487 83.026 55.0552 84.5314 57.8659C85.9366 60.5761 86.4384 64.6917 83.2268 68.205C81.3197 70.4135 78.7103 71.3168 75.9001 71.3168M68.3726 66.6993C71.6846 69.3092 78.4091 70.7145 81.8215 66.9001C84.933 63.3867 83.327 59.8734 82.8252 58.7693C81.7213 56.6613 79.714 55.4567 78.0077 55.6575C69.8781 56.8621 63.4547 54.2522 59.6408 52.0438C63.3543 59.8734 66.566 65.294 68.3726 66.6993"/>
	<path fill="#FCFCFC" d="M45.603 76.1383L42.8939 76.1383C38.2785 76.1383 34.5662 72.3213 34.5662 67.8013C34.5662 63.1807 38.3789 59.4642 42.8939 59.4642L45.603 59.4642C50.2183 59.4642 53.9327 63.2812 53.9327 67.8013C54.0311 72.3213 50.2183 76.1383 45.603 76.1383"/>
	<path fill="#2D1B0A" d="M45.6032 77.1427L42.894 77.1427C37.7765 77.1427 33.5621 72.924 33.5621 67.8013C33.5621 62.6785 37.7765 58.4597 42.894 58.4597L45.6032 58.4597C50.7207 58.4597 54.9369 62.6785 54.9369 67.8013C55.0354 72.924 50.821 77.1427 45.6032 77.1427M42.9943 60.3682C38.9806 60.3682 35.6693 63.683 35.6693 67.7008C35.6693 71.7186 38.9806 75.0334 42.9943 75.0334L45.7035 75.0334C49.7172 75.0334 53.0285 71.7186 53.0285 67.7008C53.0285 63.683 49.7172 60.3682 45.7035 60.3682L42.9943 60.3682"/>
	<path fill="#2D1B0A" d="M50.3178 25.3124L45.9031 25.3124C45.3011 25.3124 44.7994 25.0111 44.5987 24.4084C44.398 23.9061 44.4984 23.3035 44.8997 22.9017L47.6087 20.1896L44.1974 20.1896L44.1974 18.1807L49.0134 18.1807C49.6154 18.1807 50.1171 18.482 50.3178 19.0847C50.5185 19.5869 50.4181 20.1896 50.0168 20.5914L47.3078 23.3035L50.2174 23.3035L50.2174 25.3124"/>
	<path fill="#2D1B0A" d="M67.0737 20.9932L60.1506 20.9932C59.4483 20.9932 58.9466 20.5914 58.6456 19.9887C58.3446 19.386 58.5453 18.6829 58.9466 18.1807L64.2643 12.857L57.4416 12.857L57.4416 10.8481L65.1673 10.8481C65.8697 10.8481 66.3714 11.2499 66.6724 11.8526C66.9734 12.4552 66.7727 13.1584 66.3714 13.6606L61.0536 18.9843L67.0737 18.9843L67.0737 20.9932"/>
	<path fill="#2D1B0A" d="M82.6255 14.2633L74.6991 14.2633C73.9968 14.2633 73.3948 13.8615 73.0938 13.2588C72.7927 12.6561 72.9934 11.8526 73.4951 11.4508L79.8162 5.12264L71.7894 5.12264L71.7894 3.11371L80.6188 3.11371C81.3212 3.11371 81.9232 3.5155 82.2242 4.11817C82.5252 4.72085 82.3245 5.52442 81.8228 6.02666L75.5018 12.3548L82.7259 12.3548L82.7259 14.2633"/>
</svg>
