<?xml version="1.0" encoding="utf-8" ?>
<svg xmlns="http://www.w3.org/2000/svg" xmlns:xlink="http://www.w3.org/1999/xlink" width="90" height="98">
	<path fill="white" d="M46.7076 98C46.4063 98 46.2054 98 45.904 97.8989C43.3929 97.5955 41.3839 95.5728 40.8817 93.0444C40.5804 93.0444 40.279 93.0444 40.0781 92.9432C38.1696 92.6398 36.6629 91.3251 35.9598 89.7069C14.9665 85.4592 0 67.0526 0 45.3086C0 20.3282 20.1897 0 45 0C69.8103 0 90 20.3282 90 45.3086C90 67.5583 74.1295 86.3695 52.5335 90.0103L52.5335 92.1342C52.5335 93.7523 51.9308 95.1682 50.8259 96.2807C49.721 97.3932 48.3147 98 46.7076 98"/>
	<path fill="#FFDC4A" d="M86.9866 45.3087C86.9866 68.6563 68.1886 87.5832 45 87.5832C21.8114 87.5832 3.0134 68.6563 3.0134 45.3087C3.0134 21.9611 21.8114 3.03415 45 3.03415C68.1886 3.03415 86.9866 21.9611 86.9866 45.3087"/>
	<path fill="#2D1B0A" d="M45 88.5945C21.2946 88.5945 2.00895 69.1766 2.00895 45.3087C2.00895 21.4408 21.2946 2.0228 45 2.0228C68.7054 2.0228 87.9911 21.4408 87.9911 45.3087C87.9911 69.1766 68.7054 88.5945 45 88.5945M45 4.0455C22.3995 4.0455 4.01788 22.5532 4.01788 45.3087C4.01788 68.0641 22.3995 86.5718 45 86.5718C67.6004 86.5718 85.9821 68.0641 85.9821 45.3087C85.9821 22.5532 67.6004 4.0455 45 4.0455"/>
	<path fill="#2D1B0A" d="M28.7276 41.2631C26.2164 41.2631 23.7052 40.454 21.5959 38.7347C21.2197 38.4313 21.0936 37.7234 21.395 37.3189C21.6963 36.9143 22.3994 36.8132 22.8012 37.1166C26.9195 40.454 32.9464 39.7461 36.1605 35.5996C36.4619 35.2209 37.1651 35.0939 37.5668 35.3973C37.9687 35.7007 38.069 36.4086 37.7677 36.8132C35.4575 39.7461 32.1427 41.2631 28.7276 41.2631"/>
	<path fill="#2D1B0A" d="M64.5869 41.7688C60.6695 41.7688 56.8526 39.7461 54.7432 36.2064C54.4418 35.7007 54.5981 35.0939 55.0445 34.7905C55.5468 34.4871 56.1494 34.6444 56.4508 35.0939C59.1628 39.645 65.0892 41.0609 69.6093 38.3302C70.1115 38.0268 70.7142 38.2291 71.0155 38.6336C71.3169 39.1393 71.116 39.7461 70.7142 40.0495C68.7052 41.2631 66.5959 41.7688 64.5869 41.7688"/>
	<path fill="#FCFCFC" d="M50.8259 75.9525L42.6898 75.9525C38.0692 75.9525 34.3527 72.1094 34.3527 67.5583L34.3527 62.8049C34.3527 58.1527 38.1697 54.4107 42.6898 54.4107L50.8259 54.4107C55.4464 54.4107 59.163 58.2538 59.163 62.8049L59.163 67.5583C59.163 72.1094 55.4464 75.9525 50.8259 75.9525"/>
	<path fill="#2D1B0A" d="M50.8259 76.9638L42.6897 76.9638C37.5669 76.9638 33.3482 72.7161 33.3482 67.5582L33.3482 62.8049C33.3482 57.647 37.5669 53.3993 42.6897 53.3993L50.8259 53.3993C55.9486 53.3993 60.1674 57.647 60.1674 62.8049L60.1674 67.5582C60.1674 72.7161 56.049 76.9638 50.8259 76.9638M42.6897 55.3209C38.6718 55.3209 35.3571 58.6583 35.3571 62.7037L35.3571 67.4571C35.3571 71.5025 38.6718 74.84 42.6897 74.84L50.8259 74.84C54.8437 74.84 58.1585 71.5025 58.1585 67.4571L58.1585 62.7037C58.1585 58.6583 54.8437 55.3209 50.8259 55.3209L42.6897 55.3209"/>
	<path fill="#6ECC85" d="M52.2321 61.6925C50.7254 61.6925 49.5201 62.9061 49.5201 64.4231L49.5201 67.3561C49.5201 67.4572 49.3192 67.5583 49.2187 67.4572C48.7165 66.547 47.8125 65.9402 46.7076 65.9402C45.6027 65.9402 44.6986 66.547 44.1964 67.4572C44.096 67.5583 43.8951 67.5583 43.8951 67.3561L43.8951 63.8163C43.8951 62.4004 42.8906 61.1868 41.4844 60.964C39.7768 60.7823 38.3705 62.097 38.3705 63.7152L38.3705 87.0775C38.3705 88.3922 39.2745 89.6059 40.5803 89.9092C41.7857 90.1115 42.9911 89.5047 43.4933 88.4933C43.5937 88.3922 43.7946 88.3922 43.7946 88.5945L43.7946 91.932C43.7946 93.449 44.7991 94.7637 46.3058 94.8855C48.0134 95.0672 49.5201 93.7523 49.5201 92.0331L49.5201 83.6389C49.5201 83.5377 49.7209 83.4366 49.8214 83.5377C50.3236 84.3467 51.2276 84.9536 52.2321 84.9536C53.7388 84.9536 54.9442 83.74 54.9442 82.223L54.9442 64.5243C54.9442 62.9061 53.7388 61.6925 52.2321 61.6925"/>
	<path fill="#2D1B0A" d="M46.7076 95.9773C46.5067 95.9773 46.4062 95.9773 46.2053 95.9773C44.2969 95.6739 42.8906 94.0557 42.8906 92.033L42.8906 90.7182C42.1875 91.1228 41.3839 91.2239 40.4799 91.0216C38.6719 90.7182 37.4665 89.1001 37.4665 87.1785L37.4665 63.8163C37.4665 62.7038 37.9687 61.6924 38.7723 60.9845C39.5759 60.2765 40.6808 60.0553 41.7857 60.0553C43.5937 60.2765 45 61.9958 45 63.9174L45 65.3333C46.1049 64.7265 47.4107 64.7265 48.5156 65.3333L48.5156 64.3219C48.5156 62.1981 50.2232 60.5799 52.2321 60.5799C54.3415 60.5799 55.9486 62.2992 55.9486 64.3219L55.9486 82.0206C55.9486 84.1444 54.2411 85.7626 52.2321 85.7626C51.6294 85.7626 51.1272 85.6615 50.625 85.3581L50.625 91.8307C50.625 92.9432 50.1227 94.0557 49.3192 94.7636C48.5156 95.6739 47.6116 95.9773 46.7076 95.9773M43.6942 87.4819C43.7946 87.4819 43.8951 87.4819 43.9955 87.4819C44.4977 87.583 44.8995 88.0887 44.8995 88.5944L44.8995 91.9318C44.8995 92.9432 45.6027 93.7523 46.5067 93.9546C47.0089 94.0557 47.6116 93.8534 48.0134 93.55C48.4152 93.1455 48.6161 92.6398 48.6161 92.1341L48.6161 83.7399C48.6161 83.2342 48.9174 82.7285 49.4196 82.6274C49.9219 82.5263 50.4241 82.7285 50.7254 83.1331C51.0268 83.6388 51.6294 84.0433 52.2321 84.0433C53.2366 84.0433 53.9397 83.2342 53.9397 82.324L53.9397 64.6254C53.9397 63.614 53.1361 62.9061 52.2321 62.9061C51.3281 62.9061 50.5245 63.7151 50.5245 64.6254L50.5245 67.5583C50.5245 68.0639 50.2232 68.5696 49.721 68.6708C49.2187 68.7719 48.7165 68.5696 48.4152 68.1651C48.1138 67.5583 47.4107 67.2549 46.808 67.2549C46.1049 67.2549 45.5022 67.6594 45.2009 68.2662C45 68.7719 44.3973 68.9742 43.8951 68.873C43.3928 68.7719 42.9911 68.2662 42.9911 67.7605L42.9911 64.2208C42.9911 63.3106 42.3884 62.5015 41.4844 62.4004C40.9821 62.2992 40.4799 62.5015 40.0781 62.8049C39.6763 63.1083 39.4754 63.614 39.4754 64.1197L39.4754 87.4819C39.4754 88.3921 40.0781 89.2012 40.8817 89.3023C41.6852 89.4035 42.3884 89.1001 42.7902 88.3921C42.8906 87.7853 43.2924 87.4819 43.6942 87.4819"/>
</svg>
