<?xml version="1.0" encoding="utf-8" ?>
<svg xmlns="http://www.w3.org/2000/svg" xmlns:xlink="http://www.w3.org/1999/xlink" width="90" height="90">
	<path fill="white" d="M45 90C20.1897 90 0 69.8103 0 45C0 20.1897 20.1897 0 45 0C69.8103 0 90 20.1897 90 45C90 69.8103 69.8103 90 45 90"/>
	<path fill="#FFDC4A" d="M86.9866 45C86.9866 68.1886 68.1886 86.9866 45 86.9866C21.8114 86.9866 3.0134 68.1886 3.0134 45C3.0134 21.8114 21.8114 3.0134 45 3.0134C68.1886 3.0134 86.9866 21.8114 86.9866 45"/>
	<path fill="#2D1B0A" d="M45 87.9911C21.2946 87.9911 2.00895 68.7054 2.00895 45C2.00895 21.2946 21.2946 2.00895 45 2.00895C68.7054 2.00895 87.9911 21.2946 87.9911 45C87.9911 68.7054 68.7054 87.9911 45 87.9911M45 4.01788C22.3995 4.01788 4.01788 22.3995 4.01788 45C4.01788 67.6004 22.3995 85.9821 45 85.9821C67.6004 85.9821 85.9821 67.6004 85.9821 45C85.9821 22.3995 67.6004 4.01788 45 4.01788"/>
	<path fill="#2D1B0A" d="M46.3057 70.0111L34.6539 70.0111L34.6539 68.0022L46.3057 68.0022C49.9219 68.0022 53.2365 66.5959 55.8482 64.0848L57.2543 65.491C54.3414 68.404 50.424 70.0111 46.3057 70.0111"/>
	<path fill="#FCFCFC" d="M34.9552 34.654C34.9552 33.5491 34.1517 33.3482 34.1517 33.3482C33.9509 33.1473 33.6495 33.1473 33.4486 33.1473L17.9799 33.1473C17.1763 33.1473 16.4732 33.8504 16.4732 34.654C16.4732 35.4575 17.1763 36.1607 17.9799 36.1607L24.0066 36.1607C25.0111 37.8683 26.9195 39.0736 29.0289 39.0736C31.2388 39.0736 33.2477 37.7678 34.1517 35.8593C34.6539 35.6584 34.9552 35.1562 34.9552 34.654"/>
	<path fill="#2D1B0A" d="M29.1294 40.0781C26.9196 40.0781 24.8102 38.9732 23.5044 37.1651L17.9798 37.1651C16.5736 37.1651 15.4687 36.0602 15.4687 34.654C15.4687 33.2477 16.5736 32.1428 17.9798 32.1428L33.4486 32.1428C33.8503 32.1428 34.2522 32.2433 34.5535 32.4442C35.1562 32.6451 35.9598 33.3482 35.9598 34.7544C35.9598 35.558 35.558 36.2611 35.0557 36.6629C33.8503 38.7723 31.6406 40.0781 29.1294 40.0781M18.0803 34.1518C17.7789 34.1518 17.578 34.3526 17.578 34.654C17.578 34.9553 17.7789 35.1562 18.0803 35.1562L24.7097 35.1562C25.9151 37.1651 27.4218 38.0692 29.1294 38.0692C30.9375 38.0692 32.5445 37.0647 33.3482 35.4576C33.7499 35.0558 33.8503 34.8549 33.8503 34.7544C33.8503 34.5535 33.7499 34.4531 33.7499 34.3526C33.549 34.2522 33.4486 34.1518 33.4486 34.1518L18.0803 34.1518"/>
	<path fill="#FCFCFC" d="M72.5223 34.654C72.5223 33.5491 71.7188 33.3482 71.7188 33.3482C71.5179 33.1473 71.2165 33.1473 71.0156 33.1473L55.5469 33.1473C54.7433 33.1473 54.0402 33.8504 54.0402 34.654C54.0402 35.4575 54.7433 36.1607 55.5469 36.1607L61.5736 36.1607C62.5781 37.8683 64.4866 39.0736 66.596 39.0736C68.8058 39.0736 70.8148 37.7678 71.7188 35.8593C72.221 35.6584 72.5223 35.1562 72.5223 34.654"/>
	<path fill="#2D1B0A" d="M66.6964 40.0781C64.4865 40.0781 62.3772 38.9732 61.0714 37.1651L55.5468 37.1651C54.1406 37.1651 53.0357 36.0602 53.0357 34.654C53.0357 33.2477 54.1406 32.1428 55.5468 32.1428L71.0155 32.1428C71.4174 32.1428 71.8192 32.2433 72.1205 32.4442C72.7232 32.6451 73.5267 33.3482 73.5267 34.7544C73.5267 35.558 73.125 36.2611 72.6227 36.6629C71.4174 38.7723 69.1071 40.0781 66.6964 40.0781M55.5468 34.1518C55.2455 34.1518 55.0446 34.3526 55.0446 34.654C55.0446 34.9553 55.2455 35.1562 55.5468 35.1562L62.1763 35.1562C63.3817 37.1651 64.8884 38.0692 66.596 38.0692C68.404 38.0692 70.0111 37.0647 70.8147 35.4576C71.2165 35.0558 71.3168 34.8549 71.3168 34.7544C71.3168 34.5535 71.2165 34.4531 71.2165 34.3526C71.0155 34.2522 70.9152 34.1518 70.9152 34.1518L55.5468 34.1518"/>
</svg>
