<?xml version="1.0" encoding="utf-8" ?>
<svg xmlns="http://www.w3.org/2000/svg" xmlns:xlink="http://www.w3.org/1999/xlink" width="96" height="90">
	<path fill="white" d="M44.7031 90C20.0565 90 0 69.8103 0 45C0 20.1897 20.0565 0 44.7031 0C54.7812 0 64.3605 3.31473 72.1436 9.54241L73.1414 5.625C73.6404 3.51562 75.5363 2.00893 77.8313 2.00893C78.2304 2.00893 78.6296 2.00893 78.9289 2.10937L84.2174 3.61607C86.8118 4.21875 88.3086 6.83036 87.7099 9.44196L87.3107 10.9487L88.6079 10.6473C89.1068 10.5469 89.4062 10.4464 89.8053 10.4464C92.1003 10.4464 93.9962 11.9531 94.4952 14.1629L95.7923 19.2857C96.1915 20.4911 96 21.8973 95.3932 23.0022C94.7945 24.1071 93.6969 24.9107 92.3997 25.2121L85.7142 27.0201C88.109 32.6451 89.4062 38.7723 89.4062 45C89.4062 69.8103 69.3497 90 44.7031 90"/>
	<path fill="#FFDC4A" d="M86.3113 44.7991C86.3113 67.9878 67.6376 86.7858 44.6025 86.7858C21.5674 86.7858 2.8938 67.9878 2.8938 44.7991C2.8938 21.6105 21.5674 2.81255 44.6025 2.81255C67.6376 2.81255 86.3113 21.6105 86.3113 44.7991"/>
	<path fill="#2D1B0A" d="M44.6025 87.7902C21.0541 87.7902 1.896 68.5045 1.896 44.7992C1.896 21.0938 21.0541 1.8081 44.6025 1.8081C68.151 1.8081 87.3091 21.0938 87.3091 44.7992C87.3091 68.5045 68.151 87.7902 44.6025 87.7902M44.6025 3.81703C22.1517 3.81703 3.89163 22.1987 3.89163 44.7992C3.89163 67.3996 22.1517 85.7813 44.6025 85.7813C67.0534 85.7813 85.3135 67.3996 85.3135 44.7992C85.3135 22.1987 67.0534 3.81703 44.6025 3.81703"/>
	<path fill="#2D1B0A" d="M47.1968 74.4308L35.6221 74.4308L35.6221 72.4218L47.1968 72.4218C50.7888 72.4218 54.0816 71.0156 56.6759 68.5044L58.073 69.9107C55.1793 72.8236 51.3876 74.4308 47.1968 74.4308"/>
	<path fill="#FF4646" d="M92.811 19.8883L91.414 14.6651C91.2144 13.6606 90.2167 13.1584 89.2188 13.3593L82.9325 15.0668L84.6288 8.53787C84.8284 7.53341 84.3296 6.52895 83.3317 6.32805L78.1431 4.87815C77.1452 4.72091 76.1474 5.22314 75.9479 6.22761L71.6572 21.9977C74.1518 24.7098 77.9435 25.8147 81.5356 24.8102L91.414 22.0981C92.5117 21.7968 93.1104 20.7924 92.811 19.8883"/>
	<path fill="#2D1B0A" d="M78.9276 26.1161C75.9341 26.1161 73.0403 24.9108 71.0445 22.6004L75.036 5.92633C75.3353 4.41964 76.8321 3.51562 78.4287 3.82195L83.7174 5.4241C85.2141 5.72544 86.1122 7.23214 85.7131 8.83928L84.4159 13.6607L89.006 12.4553C90.6026 12.0536 92.0994 12.9576 92.3987 14.4642L93.7957 19.6875C93.9953 20.3907 93.8996 21.1941 93.5962 21.7968C93.197 22.5 92.5983 22.9017 91.8 23.1026L81.9212 25.7142C80.9233 25.9151 79.9255 26.1161 78.9276 26.1161M72.8407 21.596C75.036 23.8058 78.2291 24.6093 81.3225 23.7053L91.3011 20.9933C91.6004 20.8928 91.7002 20.7924 91.8 20.5915C91.8998 20.4911 91.8998 20.2901 91.8998 19.9888L90.5028 14.7656C90.403 14.2633 89.9041 14.0625 89.5049 14.1629L81.6218 16.2724L83.8171 8.13615C83.9169 7.73437 83.7174 7.23214 83.3182 7.13169L78.0296 5.62499C77.6304 5.52455 77.1315 5.72544 77.0317 6.22767L72.8407 21.596"/>
	<path fill="#FCFCFC" d="M66.3548 37.7678C67.1531 37.366 67.9513 37.5906 68.3504 38.471C70.2463 43.2924 68.3504 48.9173 63.7605 51.6294C59.1705 54.3415 53.3832 53.1361 50.1902 49.0178C49.6913 48.3147 49.8908 47.4107 50.4895 46.9085L66.3548 37.7678M22.1515 37.7678C21.3533 37.366 20.555 37.5906 20.1559 38.471C18.26 43.2924 20.1559 48.9173 24.7458 51.6294C29.3358 54.3415 35.1231 53.1361 38.3162 49.0178C38.8151 48.3147 38.6155 47.4107 38.0168 46.9085L22.1515 37.7678"/>
	<path fill="#2D1B0A" d="M30.0342 54.0402C28.0386 54.0402 26.043 53.538 24.2469 52.433C19.2578 49.5201 17.1624 43.3928 19.2578 38.0692C19.5572 37.3661 20.0561 36.8638 20.7546 36.6629C21.3532 36.531 22.0517 36.531 22.6504 36.8638L38.5157 46.0045C39.1144 46.4062 39.5135 46.9085 39.6133 47.6116C39.7131 48.3147 39.5135 49.0179 39.1144 49.5201C36.8194 52.5335 33.4268 54.0402 30.0342 54.0402M21.453 38.6719C21.453 38.6719 21.3532 38.6719 21.3532 38.6719C21.2535 38.6719 21.1537 38.7723 21.0539 38.9732C19.3576 43.2924 21.1537 48.4152 25.2447 50.8259C29.3358 53.2366 34.6242 52.2322 37.5179 48.4152C37.6176 48.3147 37.6176 48.1139 37.6176 48.1139C37.6176 48.0134 37.5179 47.913 37.4181 47.913L21.5528 38.7723C21.5528 38.6719 21.5528 38.6719 21.453 38.6719M58.472 54.0402C54.9797 54.0402 51.5871 52.5335 49.3919 49.6205C48.9928 49.1183 48.7932 48.4152 48.893 47.7121C48.9928 47.0089 49.3919 46.4062 49.9906 46.1049L65.8559 36.9643C66.4545 36.6629 67.153 36.531 67.7517 36.7634C68.3504 36.9643 68.9491 37.4665 69.2484 38.0692C71.3438 43.3928 69.2484 49.6205 64.2593 52.5335C62.4633 53.538 60.4676 54.0402 58.472 54.0402M66.8537 38.6719L50.9884 47.8125C50.8886 47.8125 50.8886 47.913 50.8886 48.0134C50.8886 48.1139 50.8886 48.2143 50.9884 48.3147C53.8821 52.0313 59.1705 53.1362 63.2615 50.7255C67.3526 48.3147 69.1486 43.192 67.4524 38.8728C67.4524 38.7723 67.3526 38.6719 67.153 38.6719C67.0532 38.6719 66.9534 38.6719 66.8537 38.6719"/>
	<path fill="#FF4646" d="M44.2031 17.9799C34.1253 17.9799 24.4465 17.0759 15.5658 15.4688C12.3728 18.6831 9.7785 22.3996 7.88265 26.5179C18.7589 29.23 31.1318 30.7367 44.2031 30.7367C57.2746 30.7367 69.6475 29.23 80.5237 26.5179C78.6279 22.3996 75.9338 18.5826 72.8405 15.4688C63.96 17.0759 54.2812 17.9799 44.2031 17.9799"/>
	<path fill="#2D1B0A" d="M44.2031 31.8415C31.3313 31.8415 18.9584 30.4353 7.58328 27.6228L6.3859 27.3214L6.88481 26.2165C8.88044 21.8973 11.5746 18.0804 14.7676 14.8661C24.6459 16.2723 34.225 17.0759 44.1034 17.0759C53.5826 17.0759 63.1617 16.1719 72.5411 14.4643C76.732 18.2813 79.4261 22.0982 81.3219 26.2165L81.8208 27.3214L80.6234 27.6228C69.4479 30.3348 57.075 31.8415 44.2031 31.8415M9.27957 25.9152C20.1558 28.5268 31.93 29.8326 44.2031 29.8326C56.4763 29.8326 68.2505 28.5268 79.1267 25.9152C77.4304 22.5 75.2352 19.3862 72.5411 16.5737C63.1617 18.1808 53.6824 19.0848 44.2031 19.0848C34.3248 19.0848 24.8455 18.2813 15.8652 16.5737C13.2708 19.2857 11.0756 22.3996 9.27957 25.9152"/>
</svg>
