<?xml version="1.0" encoding="utf-8" ?>
<svg xmlns="http://www.w3.org/2000/svg" xmlns:xlink="http://www.w3.org/1999/xlink" width="90" height="90">
	<path fill="white" d="M45 90C20.1897 90 0 69.8103 0 45C0 20.1897 20.1897 0 45 0C69.8103 0 90 20.1897 90 45C90 69.8103 69.8103 90 45 90"/>
	<path fill="#FFDC4A" d="M86.9866 45C86.9866 68.1886 68.1886 86.9866 45 86.9866C21.8114 86.9866 3.0134 68.1886 3.0134 45C3.0134 21.8114 21.8114 3.0134 45 3.0134C68.1886 3.0134 86.9866 21.8114 86.9866 45"/>
	<path fill="#2D1B0A" d="M45 87.9911C21.2946 87.9911 2.00895 68.7054 2.00895 45C2.00895 21.2946 21.2946 2.00895 45 2.00895C68.7054 2.00895 87.9911 21.2946 87.9911 45C87.9911 68.7054 68.7054 87.9911 45 87.9911M45 4.01788C22.3995 4.01788 4.01788 22.3995 4.01788 45C4.01788 67.6004 22.3995 85.9821 45 85.9821C67.6004 85.9821 85.9821 67.6004 85.9821 45C85.9821 22.3995 67.6004 4.01788 45 4.01788"/>
	<path fill="#2D1B0A" d="M47.6115 35.558C47.8124 35.2566 48.0133 34.9553 48.2142 34.6539C48.4151 34.3526 48.616 34.0513 48.8169 33.8504C49.0178 33.549 49.3191 33.3481 49.52 33.0468C49.6205 32.9464 49.7209 32.8459 49.9218 32.645C51.3281 31.2388 52.5334 30.4352 53.8392 29.7321C56.4508 28.4263 59.3638 27.7231 62.2767 27.7231C65.1897 27.7231 68.1026 28.4263 70.7142 29.7321C72.0201 30.4352 73.2253 31.2388 74.2299 32.2432C74.933 32.9464 74.933 32.9464 75.0334 33.0468C75.2344 33.3481 75.5357 33.549 75.7365 33.8504C75.9374 34.1517 76.1384 34.453 76.3392 34.6539C76.5401 34.9553 76.7411 35.2566 76.9419 35.558C76.6405 35.3571 76.3392 35.2566 76.0378 35.0557C75.7365 34.8548 75.4352 34.7544 75.1339 34.5535C73.9286 33.9508 73.6272 33.7499 73.3259 33.6495C72.1205 33.1473 70.9151 32.645 69.7097 32.2432C67.299 31.5401 64.7878 31.1383 62.2767 31.1383C59.7655 31.1383 57.3549 31.5401 54.8437 32.2432C53.6383 32.645 52.433 33.0468 51.2276 33.6495C50.9263 33.7499 50.6249 33.9508 50.3236 34.0513C49.1182 34.7544 48.8169 34.8548 48.5156 35.0557C48.2142 35.1562 47.9129 35.3571 47.6115 35.558"/>
	<path fill="#2D1B0A" d="M53.1361 30.3348C53.2365 30.2343 53.4374 30.0334 53.5378 29.933C53.7387 29.8326 53.8392 29.6317 54.0401 29.5312C54.241 29.4308 54.3414 29.3303 54.5423 29.1294C54.6427 29.029 54.7432 29.029 54.8436 28.9285C55.9486 28.3259 56.7521 27.9241 57.7566 27.6227C59.6651 27.0201 61.7744 26.7187 63.9843 26.7187C66.0937 26.7187 68.3035 27.0201 70.212 27.6227C71.116 27.9241 72.02 28.3259 72.8235 28.7276C73.2253 29.029 73.3258 29.1294 73.3258 29.1294C73.5266 29.2299 73.7276 29.3303 73.828 29.5312C74.029 29.6317 74.1293 29.8326 74.3303 29.933C74.4306 30.0334 74.6316 30.2343 74.7321 30.3348C74.5312 30.2343 74.2299 30.1339 74.029 30.1339C73.828 30.0334 73.6272 30.0334 73.3258 29.933C72.4218 29.6317 72.2209 29.6317 71.9196 29.5312C71.0155 29.3303 70.1115 29.029 69.2075 28.9285C67.3995 28.6272 65.5915 28.4263 63.7834 28.4263C61.9753 28.4263 60.1673 28.6272 58.3593 28.9285C57.4552 29.1294 56.5512 29.3303 55.6472 29.5312C55.4463 29.6317 55.2454 29.6317 54.9441 29.7321C54.0401 30.0334 53.8392 30.0334 53.5378 30.1339C53.6383 30.1339 53.4374 30.2343 53.1361 30.3348"/>
	<path fill="#2D1B0A" d="M47.1099 69.4084C38.0692 69.4084 30.8371 64.2856 30.8371 58.058C30.8371 57.4553 31.2389 57.0535 31.8416 57.0535C32.4442 57.0535 32.846 57.4553 32.846 58.058C32.846 63.1807 39.2746 67.3995 47.1099 67.3995C55.0447 67.3995 61.3728 63.1807 61.3728 58.058C61.3728 57.4553 61.7746 57.0535 62.3773 57.0535C62.98 57.0535 63.3828 57.4553 63.3828 58.058C63.4822 64.2856 56.1496 69.4084 47.1099 69.4084"/>
	<path fill="#FCFCFC" d="M20.3906 32.3437C20.3906 36.8637 24.0066 40.4798 28.5267 40.4798C33.0469 40.4798 36.6629 36.8637 36.6629 32.3437C36.6629 27.8236 33.0469 24.2075 28.5267 24.2075C24.0066 24.2075 20.3906 27.8236 20.3906 32.3437"/>
	<path fill="#2D1B0A" d="M28.5267 41.4843C23.5044 41.4843 19.3861 37.366 19.3861 32.3437C19.3861 27.3214 23.5044 23.2031 28.5267 23.2031C33.549 23.2031 37.6674 27.3214 37.6674 32.3437C37.6674 37.366 33.549 41.4843 28.5267 41.4843M28.5267 25.212C24.6093 25.212 21.395 28.4263 21.395 32.3437C21.395 36.2611 24.6093 39.4753 28.5267 39.4753C32.4441 39.4753 35.6584 36.2611 35.6584 32.3437C35.6584 28.4263 32.4441 25.212 28.5267 25.212"/>
	<path fill="#2D1B0A" d="M31.2387 31.9419C31.2387 33.3287 30.1144 34.453 28.7276 34.453C27.3407 34.453 26.2164 33.3287 26.2164 31.9419C26.2164 30.555 27.3407 29.4307 28.7276 29.4307C30.1144 29.4307 31.2387 30.555 31.2387 31.9419"/>
</svg>
