<?xml version="1.0" encoding="utf-8" ?>
<svg xmlns="http://www.w3.org/2000/svg" xmlns:xlink="http://www.w3.org/1999/xlink" width="78" height="106">
	<path fill="white" d="M7.98187 106C3.53627 106 0 102.369 0 98.0324L0 17.9524C0 13.5147 3.63731 9.98478 7.98187 9.98478L25.2591 9.98478L25.2591 0L52.7409 0L52.7409 9.98478L70.0181 9.98478C74.4637 9.98478 78 13.6156 78 17.9524L78 98.0324C78 102.47 74.3627 106 70.0181 106L7.98187 106"/>
	<path fill="#89C5E5" d="M69.8159 102.974L7.88073 102.974C5.15275 102.974 2.92995 100.756 2.92995 98.0324L2.92995 17.9525C2.92995 15.2293 5.15275 13.0105 7.88073 13.0105L69.8159 13.0105C72.5439 13.0105 74.7667 15.2293 74.7667 17.9525L74.7667 98.0324C74.7667 100.756 72.5439 102.974 69.8159 102.974"/>
	<path fill="#2D1B0A" d="M69.816 103.983L7.88074 103.983C4.54654 103.983 1.9196 101.26 1.9196 98.0323L1.9196 17.9524C1.9196 14.6242 4.64758 12.0019 7.88074 12.0019L69.816 12.0019C73.1502 12.0019 75.7771 14.725 75.7771 17.9524L75.7771 98.0323C75.7771 101.26 73.1502 103.983 69.816 103.983M7.88074 13.9182C5.65794 13.9182 3.94033 15.7336 3.94033 17.8516L3.94033 97.9315C3.94033 100.15 5.75898 101.865 7.88074 101.865L69.816 101.865C72.0388 101.865 73.7564 100.049 73.7564 97.9315L73.7564 17.8516C73.7564 15.6327 71.9377 13.9182 69.816 13.9182L7.88074 13.9182"/>
	<path fill="white" d="M17.3782 38.7288L60.3186 38.7288L60.3186 91.3758L17.3782 91.3758L17.3782 38.7288"/>
	<path fill="#2D1B0A" d="M61.3289 92.3843L16.3678 92.3843L16.3678 37.7202L61.3289 37.7202L61.3289 92.3843M18.3885 90.3672L59.3082 90.3672L59.3082 39.7373L18.3885 39.7373L18.3885 90.3672"/>
	<path fill="#99CC62" d="M53.044 83.0048C52.943 75.2388 46.5777 69.0866 38.7979 69.0866C31.0181 69.0866 24.7539 75.3397 24.5518 83.0048L53.044 83.0048"/>
	<path fill="#2D1B0A" d="M54.0544 84.0134L23.5414 84.0134L23.5414 83.0047C23.5414 74.7346 30.5129 68.078 38.7979 68.078C47.0829 68.078 53.8523 74.7346 54.0544 83.0047L54.0544 84.0134M25.6632 81.9962L51.9326 81.9962C51.3264 75.3397 45.5673 70.0952 38.7979 70.0952C32.0285 70.0952 26.3704 75.3397 25.6632 81.9962"/>
	<path fill="white" d="M58.2979 27.3321L19.3989 27.3321C18.1865 27.3321 17.0751 26.3235 17.0751 25.0124L17.0751 22.5918C17.0751 21.3815 18.0855 20.2721 19.3989 20.2721L58.2979 20.2721C59.5103 20.2721 60.6217 21.2807 60.6217 22.5918L60.6217 25.0124C60.5207 26.3235 59.5103 27.3321 58.2979 27.3321"/>
	<path fill="#2D1B0A" d="M58.2979 28.3406L19.3989 28.3406C17.5802 28.3406 16.0647 26.8278 16.0647 25.0124L16.0647 22.5918C16.0647 20.7764 17.5802 19.2636 19.3989 19.2636L58.2979 19.2636C60.1165 19.2636 61.6321 20.7764 61.6321 22.5918L61.6321 25.0124C61.531 26.9286 60.1165 28.3406 58.2979 28.3406M19.3989 21.3815C18.6916 21.3815 18.0854 21.9867 18.0854 22.6927L18.0854 25.1132C18.0854 25.8192 18.6916 26.4244 19.3989 26.4244L58.2979 26.4244C59.0051 26.4244 59.6113 25.8192 59.6113 25.1132L59.6113 22.6927C59.6113 21.9867 59.0051 21.3815 58.2979 21.3815L19.3989 21.3815"/>
	<path fill="#FFD071" d="M47.8913 22.6927L29.8058 22.6927C28.8965 22.6927 28.1893 21.9867 28.1893 21.079L28.1893 2.9249L49.609 2.9249L49.609 21.079C49.5079 21.9867 48.8007 22.6927 47.8913 22.6927"/>
	<path fill="#2D1B0A" d="M47.8912 23.7013L29.8057 23.7013C28.3912 23.7013 27.1788 22.491 27.1788 21.079L27.1788 1.9163L50.6192 1.9163L50.6192 21.079C50.5182 22.491 49.3057 23.7013 47.8912 23.7013M29.1995 3.93343L29.1995 21.079C29.1995 21.3816 29.5026 21.6841 29.8057 21.6841L47.8912 21.6841C48.1943 21.6841 48.4975 21.3816 48.4975 21.079L48.4975 3.93343L29.1995 3.93343"/>
	<path fill="#FFE7DC" d="M46.1736 61.6232C46.1736 65.6894 42.8714 68.9857 38.7979 68.9857C34.7244 68.9857 31.4223 65.6894 31.4223 61.6232C31.4223 57.557 34.7244 54.2607 38.7979 54.2607C42.8714 54.2607 46.1736 57.557 46.1736 61.6232"/>
	<path fill="#2D1B0A" d="M38.7979 69.8935C34.1502 69.8935 30.4119 66.1618 30.4119 61.5224C30.4119 56.883 34.1502 53.1513 38.7979 53.1513C43.4456 53.1513 47.1839 56.883 47.1839 61.5224C47.1839 66.1618 43.4456 69.8935 38.7979 69.8935M38.7979 55.2693C35.2616 55.2693 32.4326 58.0933 32.4326 61.6232C32.4326 65.1532 35.2616 67.9772 38.7979 67.9772C42.3342 67.9772 45.1632 65.1532 45.1632 61.6232C45.1632 58.0933 42.3342 55.2693 38.7979 55.2693"/>
</svg>
