<?xml version="1.0" encoding="utf-8" ?>
<svg xmlns="http://www.w3.org/2000/svg" xmlns:xlink="http://www.w3.org/1999/xlink" width="64" height="104">
	<path fill="white" d="M9.18565 104C4.0936 104 0 99.9118 0 94.8265L0 83.7584C0 72.3912 6.68955 58.7306 15.4758 52L16.6739 51.0527L16.6739 34.6999L26.6583 0L37.3417 0L47.3261 34.6999L47.3261 51.0527L48.5242 52C57.4103 58.7306 64 72.3912 64 83.7584L64 94.8265C64 99.9118 59.9064 104 54.8144 104L9.18565 104"/>
	<path fill="#99CC62" d="M35.195 2.8916L29.0047 2.8916L19.7192 34.999L19.7192 51.0527L44.3808 51.0527L44.3808 34.999"/>
	<path fill="#2D1B0A" d="M45.3791 52.0497L18.6209 52.0497L18.6209 34.6998L28.1061 1.8944L35.7941 1.8944L45.2792 34.9989L45.2792 52.0497M20.7176 50.0555L43.3822 50.0555L43.3822 35.0986L34.3963 3.88865L29.7036 3.88865L20.7176 35.0986L20.7176 50.0555"/>
	<path fill="white" d="M54.9142 101.009L9.18568 101.009C5.79098 101.009 2.99535 98.2166 2.99535 94.8264L2.99535 83.7583C2.99535 70.0977 14.078 50.4544 27.7566 50.4544L36.4431 50.4544C50.1217 50.4544 61.2043 70.1974 61.2043 83.7583L61.2043 94.8264C61.1045 98.2166 58.3089 101.009 54.9142 101.009"/>
	<path fill="#2D1B0A" d="M54.9141 102.006L9.18557 102.006C5.19181 102.006 1.9968 98.8149 1.9968 94.8264L1.9968 83.7584C1.9968 70.2972 13.0795 49.4573 27.7566 49.4573L36.443 49.4573C51.12 49.4573 62.2027 70.2972 62.2027 83.7584L62.2027 94.8264C62.1029 98.8149 58.808 102.006 54.9141 102.006M27.6567 51.3518C14.5771 51.3518 3.89384 70.8955 3.89384 83.6586L3.89384 94.7267C3.89384 97.6184 6.19025 99.9118 9.08572 99.9118L54.8143 99.9118C57.7097 99.9118 60.0062 97.6184 60.0062 94.7267L60.0062 83.6586C60.0062 70.8955 49.4227 51.3518 36.2433 51.3518L27.6567 51.3518"/>
	<path fill="#99CC62" d="M19.6192 75.8064C19.6192 80.1937 22.0155 84.2819 25.8096 86.4756C29.6036 88.6693 34.3961 88.6693 38.1902 86.4756C41.9844 84.2819 44.3805 80.1937 44.3805 75.8064C44.3805 69.0259 38.8891 63.442 32 63.442C25.1107 63.442 19.6192 69.0259 19.6192 75.8064"/>
	<path fill="#2D1B0A" d="M32 89.1428C29.7036 89.1428 27.4072 88.5445 25.3104 87.348C21.2168 84.9549 18.6209 80.5676 18.6209 75.7814C18.6209 68.4026 24.6115 62.4199 32 62.4199C39.3885 62.4199 45.3791 68.4026 45.3791 75.7814C45.3791 80.5676 42.7831 84.9549 38.6895 87.348C36.5928 88.5445 34.2964 89.1428 32 89.1428M32 64.4141C25.7098 64.4141 20.6178 69.4995 20.6178 75.7814C20.6178 79.8696 22.8144 83.5589 26.3089 85.6529C29.8034 87.6471 34.1966 87.6471 37.6911 85.6529C41.1856 83.6586 43.3822 79.8696 43.3822 75.7814C43.2824 69.4995 38.1903 64.4141 32 64.4141"/>
	<path fill="#99CC62" d="M19.819 40.2838L44.3806 40.2838L44.3806 45.07L19.819 45.07L19.819 40.2838"/>
	<path fill="#2D1B0A" d="M45.2791 46.0671L18.7206 46.0671L18.7206 39.2867L45.2791 39.2867L45.2791 46.0671M20.8173 44.0729L43.2822 44.0729L43.2822 41.2809L20.7175 41.2809L20.7175 44.0729"/>
</svg>
