<?xml version="1.0" encoding="utf-8" ?>
<svg xmlns="http://www.w3.org/2000/svg" xmlns:xlink="http://www.w3.org/1999/xlink" width="104" height="100">
	<path fill="white" d="M24.2261 100C20.577 100 17.5361 96.9062 17.5361 93.3134L17.5361 84.8303L8.51462 84.8303C3.85185 84.8303 0 81.0379 0 76.4471L0 37.6248C0 33.6327 2.73684 30.2395 6.79142 29.4411L9.22417 28.9421L9.22417 16.0679C9.22417 12.475 12.0624 9.38124 15.7115 9.08184L18.4483 8.78244L18.4483 4.19162C18.4483 1.79641 20.4756 0 23.1111 0L60.2105 0L72.7797 9.08184L84.4366 9.08184C88.3899 9.08184 91.6335 12.2754 91.6335 16.1677L91.6335 29.3413L95.4854 29.3413C100.148 29.3413 104 33.1337 104 37.7246L104 76.5469C104 81.1377 100.148 84.9301 95.4854 84.9301L84.4366 84.9301L84.4366 93.4132C84.4366 97.006 81.3957 100 77.7466 100L24.2261 100"/>
	<path fill="#7FCCD1" d="M95.688 32.2854L8.61593 32.2854C5.575 32.2854 3.14225 34.6806 3.14225 37.6746L3.14225 56.4371L3.14225 76.5968C3.14225 79.5908 5.575 81.986 8.61593 81.986L95.688 81.986C98.729 81.986 101.162 79.5908 101.162 76.5968L101.162 57.1357L101.162 37.6746C101.06 34.6806 98.6276 32.2854 95.688 32.2854"/>
	<path fill="#2D1B0A" d="M95.6881 82.9341L8.61593 82.9341C5.06817 82.9341 2.1286 80.0399 2.1286 76.5469L2.1286 37.7245C2.1286 34.2315 5.06817 31.3373 8.61593 31.3373L95.6881 31.3373C99.2358 31.3373 102.176 34.2315 102.176 37.7245L102.176 76.5469C102.074 80.0399 99.2358 82.9341 95.6881 82.9341M8.61593 33.3333C6.18318 33.3333 4.15589 35.3293 4.15589 37.7245L4.15589 76.5469C4.15589 78.9421 6.18318 80.9381 8.61593 80.9381L95.6881 80.9381C98.1208 80.9381 100.148 78.9421 100.148 76.5469L100.148 37.7245C100.148 35.3293 98.1208 33.3333 95.6881 33.3333L8.61593 33.3333"/>
	<path fill="#A5A5A5" d="M88.694 32.2355L12.3666 32.2355L12.3666 16.1676C12.3666 13.8722 14.1911 12.0758 16.5225 12.0758L84.6395 12.0758C86.9709 12.0758 88.7953 13.8722 88.7953 16.1676L88.7953 32.2355"/>
	<path fill="#2D1B0A" d="M89.7077 33.2335L11.3529 33.2335L11.3529 16.1676C11.3529 13.3732 13.6843 11.0778 16.5225 11.0778L84.6394 11.0778C87.4777 11.0778 89.809 13.3732 89.809 16.1676L89.809 33.2335M13.3802 31.2375L87.6804 31.2375L87.6804 16.1676C87.6804 14.471 86.2613 13.0738 84.5381 13.0738L16.4211 13.0738C14.6979 13.0738 13.2788 14.471 13.2788 16.1676L13.2788 31.2375"/>
	<path fill="#E63B56" d="M35.3763 47.2056L21.8948 47.2056C21.0838 47.2056 20.4757 46.6068 20.4757 45.8084L20.4757 43.7126C20.4757 42.9142 21.0838 42.3154 21.8948 42.3154L35.3763 42.3154C36.1871 42.3154 36.7953 42.9142 36.7953 43.7126L36.7953 45.8084C36.7953 46.507 36.1871 47.2056 35.3763 47.2056"/>
	<path fill="#2D1B0A" d="M35.3762 48.2036L21.8948 48.2036C20.4757 48.2036 19.462 47.1058 19.462 45.8084L19.462 43.7126C19.462 42.3154 20.577 41.3174 21.8948 41.3174L35.3762 41.3174C36.7953 41.3174 37.809 42.4152 37.809 43.7126L37.809 45.8084C37.809 47.1058 36.694 48.2036 35.3762 48.2036M21.8948 43.2136C21.692 43.2136 21.4893 43.4132 21.4893 43.6128L21.4893 45.7086C21.4893 45.9082 21.692 46.1078 21.8948 46.1078L35.3762 46.1078C35.579 46.1078 35.7817 45.9082 35.7817 45.7086L35.7817 43.6128C35.7817 43.4132 35.579 43.2136 35.3762 43.2136L21.8948 43.2136"/>
	<path fill="#FFFAF8" d="M80.6861 19.8603L80.6861 32.4351L21.5906 32.4351L21.5906 4.39121C21.5906 3.6926 22.3002 3.0938 23.2125 3.0938L59.2982 3.0938L80.6861 19.8603"/>
	<path fill="#2D1B0A" d="M81.6998 33.4331L20.577 33.4331L20.577 4.39121C20.577 3.0938 21.7934 2.0958 23.2125 2.0958L59.6023 2.0958L81.5984 19.3613L81.5984 33.4331M22.6043 31.4371L79.6725 31.4371L79.6725 20.3593L58.9942 4.09181L23.3138 4.09181C22.9084 4.09181 22.7057 4.29141 22.7057 4.39121L22.7057 31.4371"/>
	<path fill="#FFD071" d="M59.8051 16.5811C59.8051 17.8785 61.2242 18.8765 62.9474 18.8765L80.5848 18.8765C80.6862 18.8765 80.7876 18.7767 80.6862 18.6769L60.616 4.00627C60.3119 3.90243 59.8051 3.90243 59.8051 4.20587L59.8051 16.5811"/>
	<path fill="#2D1B0A" d="M80.5848 19.8603L62.9473 19.8603C60.616 19.8603 58.7914 18.4635 58.7914 16.568L58.7914 4.29662C58.7914 3.79779 59.0955 3.39872 59.6023 3.09942C60.1091 2.80012 60.8187 2.9187 61.2242 3.19918L81.9025 18.3638C81.4971 19.561 81.0916 19.8603 80.5848 19.8603M60.8187 5.39406L60.8187 16.568C60.8187 17.1666 61.6296 17.8649 62.9473 17.8649L77.8479 17.8649L60.8187 5.39406"/>
	<path fill="#FFFAF8" d="M77.9493 96.9062L24.3275 96.9062C22.3002 96.9062 20.6783 95.3094 20.6783 93.3133L20.6783 57.5848L81.5984 57.5848L81.5984 93.3133C81.5984 95.3094 79.9765 96.9062 77.9493 96.9062"/>
	<path fill="#2D1B0A" d="M77.9493 97.9042L24.3275 97.9042C21.7934 97.9042 19.6647 95.8084 19.6647 93.3133L19.6647 56.5868L82.6121 56.5868L82.6121 93.3133C82.6121 95.9082 80.4834 97.9042 77.9493 97.9042M21.692 58.5828L21.692 93.3133C21.692 94.7106 22.9084 95.9082 24.3275 95.9082L77.9493 95.9082C79.3684 95.9082 80.5848 94.7106 80.5848 93.3133L80.5848 58.5828L21.692 58.5828"/>
	<path fill="#2D1B0A" d="M70.0428 70.3593L32.8421 70.3593C32.2339 70.3593 31.8284 69.9601 31.8284 69.3613C31.8284 68.7625 32.2339 68.3633 32.8421 68.3633L70.0428 68.3633C70.651 68.3633 71.0565 68.7625 71.0565 69.3613C71.0565 69.9601 70.651 70.3593 70.0428 70.3593"/>
	<path fill="#2D1B0A" d="M70.0428 80.2395L32.8421 80.2395C32.2339 80.2395 31.8284 79.8403 31.8284 79.2415C31.8284 78.6427 32.2339 78.2435 32.8421 78.2435L70.0428 78.2435C70.651 78.2435 71.0565 78.6427 71.0565 79.2415C71.0565 79.8403 70.651 80.2395 70.0428 80.2395"/>
</svg>
