<?xml version="1.0" encoding="utf-8" ?>
<svg xmlns="http://www.w3.org/2000/svg" xmlns:xlink="http://www.w3.org/1999/xlink" width="112" height="112">
	<path fill="white" d="M56 112C25.1243 112 0 86.8757 0 56C0 25.1243 25.1243 0 56 0C86.7748 0 112 25.1243 112 56C112 86.8757 86.8757 112 56 112"/>
	<path fill="#2D1B0A" d="M56 109.175C26.6378 109.175 2.8252 85.3621 2.8252 56C2.8252 41.8738 8.27385 28.454 18.263 18.4648C28.3531 8.37475 41.672 2.8252 56 2.8252C85.3621 2.8252 109.175 26.6378 109.175 56C109.175 85.3621 85.2612 109.175 56 109.175M56 4.84322C42.2775 4.84322 29.3621 10.191 19.6757 19.8775C10.0901 29.5639 4.74232 42.3784 4.84322 56C4.84322 84.2522 27.7477 107.157 56 107.157C84.2522 107.157 107.157 84.2522 107.157 56C107.157 27.7477 84.1513 4.84322 56 4.84322"/>
	<path fill="#FFD071" d="M56 12.209C31.7838 12.209 12.209 31.8847 12.209 56C12.209 80.2162 31.8847 99.791 56 99.791C80.2162 99.791 99.791 80.1153 99.791 56C99.791 31.8847 80.1153 12.209 56 12.209"/>
	<path fill="#2D1B0A" d="M56 100.8C31.2793 100.8 11.2 80.7207 11.2 56C11.2 31.2793 31.2793 11.2 56 11.2C80.7207 11.2 100.8 31.2793 100.8 56C100.8 80.6198 80.7207 100.8 56 100.8M56 13.218C32.3892 13.218 13.218 32.3892 13.218 56C13.218 79.6108 32.3892 98.782 56 98.782C79.6108 98.782 98.782 79.6108 98.782 56C98.782 32.3892 79.6108 13.218 56 13.218"/>
	<path fill="#2D1B0A" d="M68.209 69.0162C66.7963 71.6396 63.8703 73.355 60.7423 73.5568C56 73.5568 52.5694 69.5207 51.3586 62.5586L65.9892 62.5586L65.9892 57.8162L50.854 57.8162C50.854 57.3117 50.854 56.9081 50.854 56.4036C50.854 55.8991 50.854 55.6973 50.854 55.4955L68.6125 55.4955L68.6125 50.7532L51.3586 50.7532C52.0648 46.0108 54.4865 39.4522 61.4487 39.4522C63.8703 39.4522 66.1909 40.8649 67.7045 43.0847L72.245 40.3604C69.1171 36.1225 65.5855 34.2054 61.4487 33.9027C53.0739 33.9027 46.818 40.1586 45.4054 50.4504L41.0667 50.6522L41.0667 54.991L44.9009 54.991C44.9009 55.1928 44.9009 55.6973 44.9009 55.8991C44.9009 56.1009 44.9009 56.8072 44.9009 57.3117L41.0667 57.5135L41.0667 61.8522L45.4054 61.8522C47.1207 71.9423 52.8721 78.0973 60.5406 78.0973C65.2829 78.0973 69.6217 75.6757 72.245 71.6396L69.1171 67.0991L68.209 69.0162"/>
</svg>
