<?xml version="1.0" encoding="utf-8" ?>
<svg xmlns="http://www.w3.org/2000/svg" xmlns:xlink="http://www.w3.org/1999/xlink" width="112" height="112">
	<path fill="white" d="M56 112C25.1243 112 0 86.8757 0 56C0 25.1243 25.1243 0 56 0C86.8757 0 112 25.1243 112 56C112 86.8757 86.8757 112 56 112"/>
	<path fill="#FFD071" d="M56 12.209C31.7836 12.209 12.2088 31.8847 12.2088 56C12.2088 80.2162 31.8845 99.791 56 99.791C80.216 99.791 99.7912 80.1153 99.7912 56C99.8917 31.7838 80.216 12.209 56 12.209"/>
	<path fill="#2D1B0A" d="M56 100.8C31.2793 100.8 11.2 80.7207 11.2 56C11.2 31.2793 31.2793 11.2 56 11.2C68.0072 11.2 79.3081 15.8414 87.7838 24.418C96.1586 32.8937 100.8 44.0937 100.8 56C100.8 80.6198 80.7207 100.8 56 100.8M56 13.218C32.3892 13.218 13.218 32.3892 13.218 56C13.218 79.6108 32.3892 98.782 56 98.782C79.6108 98.782 98.782 79.6108 98.782 56C98.782 44.5982 94.4432 33.9027 86.3712 25.8306C78.2991 17.6577 67.5027 13.218 56 13.218"/>
	<path fill="#2D1B0A" d="M70.1262 34.8108L61.9532 47.7262L60.5406 49.845C59.6325 51.5603 58.6235 52.973 57.4127 54.8901L53.0739 47.7262L44.9009 34.8108L37.9388 34.8108L52.0648 56.4036L42.782 56.4036L42.782 61.146L54.2847 61.146L54.2847 63.0631L42.782 63.0631L42.782 67.8055L54.2847 67.8055L54.2847 78.0974L60.036 78.0974L60.036 67.8055L71.5387 67.8055L71.5387 63.0631L60.036 63.0631L60.036 61.146L71.5387 61.146L71.5387 56.4036L62.155 56.4036L76.2811 34.8108L70.1262 34.8108"/>
	<path fill="#2D1B0A" d="M56 109.478C26.6378 109.478 2.8252 85.6648 2.8252 56.3027C2.8252 42.1765 8.27385 28.7567 18.263 18.7675C28.3531 8.67745 41.672 3.1279 56 3.1279C85.3621 3.1279 109.175 26.9405 109.175 56.3027C109.175 85.6648 85.3621 109.478 56 109.478M56 5.14592C42.2775 5.14592 29.3621 10.4937 19.6757 20.1802C10.0901 29.8666 4.74232 42.6811 4.84322 56.3027C4.84322 84.5549 27.7477 107.46 56 107.46C84.2522 107.46 107.157 84.5549 107.157 56.3027C107.157 28.0504 84.2522 5.14592 56 5.14592"/>
</svg>
