<?xml version="1.0" encoding="utf-8" ?>
<svg xmlns="http://www.w3.org/2000/svg" xmlns:xlink="http://www.w3.org/1999/xlink" width="82" height="100">
	<path fill="white" d="M42.7267 100C24.3344 100 3.65553 95.1 0.474161 81.3C-1.31536 74.1 2.26368 61.2 6.14097 51.6C10.6148 40.6 16.4804 31.1 22.6443 24.7L24.4338 22.9L10.7142 4.7L16.5798 2C18.6676 0.9 22.1472 0.3 24.235 0.3C26.621 0.3 29.007 0.9 30.896 2L32.3872 2.8L33.8785 2C35.668 1 37.7558 0 40.44 0L41.6331 0C44.1185 0.2 47.101 1.8 48.5923 2.7L49.8847 3.5L51.2766 2.9C54.6568 1.4 57.341 0.8 59.9259 0.8C61.7154 0.8 64.3003 1.1 66.5869 2.7L71.0607 6L58.037 22.4L59.9259 24.3C67.5811 32.1 72.7508 43.6 75.7333 51.9C80.0083 63.6 82.096 75.1 82 80C80.8036 95.8 55.7504 100 42.7267 100"/>
	<path fill="#FFD071" d="M42.6707 97C26.168 97 6.08645 92.7 3.30287 80.6C0.71811 69.9 12.2501 36 28.554 23.4L15.3319 5.8L17.9167 4.6C18.1155 4.4 20.9985 3.2 24.2792 3.2C26.8639 3.2 29.4487 4.1 31.1387 5.8C31.3376 6 31.8346 6.3 32.0334 6.3C32.5305 6.3 33.2264 5.8 33.9223 5.4C35.6123 4.5 37.7 3 40.4836 3C40.6824 3 41 3 41.3783 3C44.1619 3.2 45.852 4.4 47.2438 5.4C48.4367 6.1 48.9338 6.6 49.6297 6.6C50.3256 6.6 51.3197 6.4 52.4133 5.7C55.1969 4.5 57.5828 3.8 59.9687 3.8C63.0505 3.8 64.6412 5 64.9394 5.2L66.8283 6.6L53.8051 23C71.0037 35.6 79.255 71.4 79.0597 80C78.062 92.2 56.0916 97 42.6707 97"/>
	<path fill="#2D1B0A" d="M42.6828 98C25.8812 98 5.30163 93.5 2.31909 80.8C-0.3652 69.7 11.2667 36.2 27.1736 23.2L13.7522 5.4L17.4306 3.7C18.4248 3.1 21.3079 2.2 24.191 2.2C27.1736 2.2 29.9573 3.3 31.7468 5.1C31.7468 5.1 31.9457 5.2 32.0451 5.3C32.2439 5.2 32.6416 5 32.9398 4.8C33.1387 4.7 33.2381 4.6 33.4369 4.5C33.7352 4.3 34.0334 4.2 34.3317 4C35.9224 3.1 37.9107 2 40.4956 2C44.5717 2.2 46.4607 3.6 47.8525 4.6C48.1508 4.8 48.449 4.9 48.6479 5.1C49.145 5.4 49.4432 5.6 49.6421 5.6C50.0397 5.6 50.8351 5.5 51.9287 4.9C55.2095 3.4 57.6949 2.8 59.9815 2.8C61.4728 2.8 63.66 3.1 65.4495 4.3L68.2332 6.4L55.2095 22.8C71.8123 35.9 80.2628 70.6 80.0674 80C78.9704 93.1 56.6013 98 42.6828 98M16.9335 6.1L29.9573 23.5C13.4539 36.3 1.62316 69.4 4.30745 80.3C6.99173 91.8 26.6765 95.9 42.6828 95.9C56.8002 95.9 77.1808 90.9 78.0756 79.8C78.2744 70.6 69.8239 35.8 53.2211 23.7L65.4495 6.7L64.3559 5.9C62.8646 4.9 61.1745 4.7 59.9815 4.7C57.8937 4.7 55.806 5.2 52.9228 6.5C51.6304 7.3 50.4374 7.5 49.6421 7.5C48.8467 7.5 48.2502 7.1 47.5543 6.7C47.3554 6.5 47.0572 6.4 46.7589 6.2C45.3671 5.2 43.8758 4.1 41.2909 3.9C38.4078 3.9 36.7177 4.8 35.3259 5.7C35.0276 5.9 34.7294 6 34.4311 6.2C34.3317 6.3 34.1328 6.3 34.0334 6.4C33.3375 6.8 32.741 7.2 32.0451 7.2C31.3491 7.2 30.6532 6.6 30.4544 6.4C29.0625 5 26.6765 4.1 24.2905 4.1C21.6062 4.1 19.1207 5 18.5242 5.3L16.9335 6.1"/>
	<path fill="white" d="M30.5965 20.9L43.1227 20.9C43.6197 19.2 45.0115 17.6 47.0992 17.6C49.1869 17.6 50.8769 19 51.0758 20.9L52.4676 20.9C53.1635 20.9 53.8594 21.8 53.8594 23C53.8594 23.9 53.1635 24.9 52.4676 24.9L49.8828 24.9L53.4617 30.8C54.1576 31.7 53.6605 32.9 52.7658 33.4C51.8711 34.1 50.6781 33.6 50.181 32.7L48.0934 28.9L47.1986 32.5C46.9998 33.4 45.8068 34.2 44.8127 33.9C43.918 33.7 43.1227 32.5 43.4209 31.5L45.3098 24.9L31.193 24.9C30.4971 24.9 29.8012 24 29.8012 23C28.7077 21.9 29.4036 20.9 30.5965 20.9"/>
	<path fill="#2D1B0A" d="M49.187 66.5C47.9939 65.1 46.105 63.7 43.3214 62C43.1227 62 43.1227 61.8 43.1227 61.8L43.1227 49C43.1227 48.8 43.3214 48.5 43.6198 48.8C45.5085 49 47.1987 49.5 48.2921 50L49.4851 50.7L49.4851 46.2C47.298 45.3 45.7075 45.1 43.5203 44.8C43.3214 44.8 43.3214 44.6 43.3214 44.6L43.3214 41C43.3214 40.8 43.1227 40.8 43.1227 40.8L40.5379 40.8C40.3391 40.8 40.3391 41 40.3391 41L40.3391 44.8C40.3391 45 40.1403 45 40.1403 45C38.0526 45.5 36.1637 46.7 34.6725 48.1C32.9825 49.8 32.1871 52.1 32.1871 54.3C32.1871 56.5 32.9825 58.1 33.9766 59.5C35.1696 60.7 37.0584 62.3 39.842 64C40.0408 64 40.0408 64.2 40.0408 64.2L40.0408 76.8C40.0408 77 39.842 77.3 39.5438 77C37.4561 76.8 35.0701 76.1 33.3801 74.9L32.1871 74.2L32.1871 78.7C34.4737 80.1 36.8596 80.8 39.4444 81C39.6432 81 39.6432 81.2 39.6432 81.2L39.6432 85.7C39.6432 85.9 39.842 85.9 39.842 85.9L42.4268 85.9C42.6255 85.9 42.6255 85.7 42.6255 85.7L42.6255 81.2C42.6255 81 42.8244 81 42.8244 81C44.9121 80.5 46.8009 79.6 48.2921 77.9C49.9822 76.2 50.3798 74.1 50.3798 71.7C51.0757 69.8 50.3798 67.9 49.187 66.5M43.3214 67.2C43.3214 67 43.5203 66.7 44.0173 67C45.2104 67.7 45.9063 68.4 46.4034 69.1C47.0993 70 47.298 71.2 47.298 72.4C47.298 73.8 46.8009 75 46.105 76C45.4091 76.7 44.415 77.2 43.3214 77.7L43.3214 67.2M36.959 57.5C36.2631 56.6 36.0643 55.4 36.0643 54.2C36.0643 52.8 36.5614 51.6 37.2572 50.4C37.9531 49.7 38.9473 49 39.842 48.7L39.842 59.1C39.842 59.3 39.6432 59.6 39.1461 59.3C38.152 58.9 37.4561 58.2 36.959 57.5"/>
</svg>
