<?xml version="1.0" encoding="utf-8" ?>
<svg xmlns="http://www.w3.org/2000/svg" xmlns:xlink="http://www.w3.org/1999/xlink" width="82" height="100">
	<path fill="white" d="M42.7267 100C24.3344 100 3.65553 95.1 0.474161 81.3C-1.31536 74.1 2.26368 61.2 6.14097 51.6C10.6148 40.6 16.4804 31.1 22.6443 24.7L24.4338 22.9L10.7142 4.7L16.5798 2C18.6676 0.9 22.1472 0.3 24.235 0.3C26.621 0.3 29.007 0.9 30.896 2L32.3872 2.8L33.8785 2C35.668 1 37.7558 0 40.44 0L41.6331 0C44.1185 0.2 47.101 1.8 48.5923 2.7L49.8847 3.5L51.2766 2.9C54.6568 1.4 57.341 0.8 59.9259 0.8C61.7154 0.8 64.3003 1.1 66.5869 2.7L71.0607 6L58.037 22.4L59.9259 24.3C67.5811 32.1 72.7508 43.6 75.7333 51.9C80.0083 63.6 82.096 75.1 82 80C80.8036 95.9 55.7504 100 42.7267 100"/>
	<path fill="#FFD071" d="M42.516 96.7C26.0133 96.7 5.93175 92.4 3.14817 80.3C0.56341 69.6 12.0954 35.7 28.3993 23.1L15.1772 5.5L17.762 4.3C17.9608 4.1 20.8438 2.9 24.1245 2.9C26.7092 2.9 29.294 3.8 30.984 5.5C31.1829 5.7 31.6799 6 31.8787 6C32.3758 6 33.0717 5.5 33.7676 5.1C35.4576 4.2 37.5453 2.7 40.3289 2.7C40.5277 2.7 40.8453 2.7 41.2236 2.7C44.0072 2.9 45.6973 4.1 47.0891 5.1C48.282 5.8 48.7791 6.3 49.475 6.3C50.1709 6.3 51.165 6.1 52.2586 5.4C55.0422 4.2 57.4281 3.5 59.814 3.5C62.8958 3.5 64.4865 4.7 64.7847 4.9L66.6736 6.3L53.6504 22.7C70.849 35.3 79.1003 71.1 78.905 79.7C77.9073 91.9 55.9369 96.7 42.516 96.7"/>
	<path fill="#2D1B0A" d="M42.5281 97.7C25.7265 97.7 5.14693 93.2 2.16439 80.5C-0.5199 69.4 11.112 35.9 27.0189 22.9L13.5975 5.1L17.2759 3.4C18.2701 2.8 21.1532 1.9 24.0363 1.9C27.0189 1.9 29.8026 3 31.5921 4.8C31.5921 4.8 31.791 4.9 31.8904 5C32.0892 4.9 32.4869 4.7 32.7851 4.5C32.984 4.4 33.0834 4.3 33.2822 4.2C33.5805 4 33.8787 3.9 34.177 3.7C35.7677 2.8 37.756 1.7 40.3409 1.7C44.417 1.9 46.306 3.3 47.6978 4.3C47.9961 4.5 48.2943 4.6 48.4932 4.8C48.9903 5.1 49.2885 5.3 49.4874 5.3C49.885 5.3 50.6804 5.2 51.774 4.6C55.0548 3.1 57.5402 2.5 59.8268 2.5C61.3181 2.5 63.5053 2.8 65.2948 4L68.0785 6.1L55.0548 22.5C71.6576 35.6 80.1081 70.3 79.9127 79.7C78.8157 92.9 56.4466 97.7 42.5281 97.7M16.7788 5.9L29.8026 23.3C13.2992 36.1 1.46846 69.2 4.15275 80.1C6.83703 91.6 26.5218 95.7 42.5281 95.7C56.6455 95.7 77.0261 90.7 77.9209 79.6C78.1197 70.4 69.6692 35.6 53.0664 23.5L65.2948 6.5L64.2012 5.7C62.7099 4.7 61.0198 4.5 59.8268 4.5C57.739 4.5 55.6513 5 52.7681 6.3C51.4757 7.1 50.2827 7.3 49.4874 7.3C48.692 7.3 48.0955 6.9 47.3996 6.5C47.2007 6.3 46.9025 6.2 46.6042 6C45.2124 5 43.7211 3.9 41.1362 3.7C38.2531 3.7 36.563 4.6 35.1712 5.5C34.8729 5.7 34.5747 5.8 34.2764 6C34.177 6.1 33.9781 6.1 33.8787 6.2C33.1828 6.6 32.5863 7 31.8904 7C31.1944 7 30.4985 6.4 30.2997 6.2C28.9078 4.8 26.5218 3.9 24.1358 3.9C21.4515 3.9 18.966 4.8 18.3695 5.1L16.7788 5.9"/>
	<path fill="white" d="M30.3976 20.6L42.9238 20.6C43.4208 18.9 44.8126 17.3 46.9003 17.3C48.988 17.3 50.678 18.7 50.8769 20.6L52.2687 20.6C52.9646 20.6 53.6605 21.5 53.6605 22.7C53.6605 23.6 52.9646 24.6 52.2687 24.6L49.6839 24.6L53.2628 30.5C53.9587 31.4 53.4616 32.6 52.5669 33.1C51.6722 33.8 50.4792 33.3 49.9821 32.4L47.8945 28.6L46.9997 32.2C46.8009 33.1 45.6079 33.9 44.6138 33.6C43.7191 33.4 42.9238 32.2 43.222 31.2L45.1109 24.6L30.9941 24.6C30.2982 24.6 29.6023 23.7 29.6023 22.7C28.5088 21.6 29.2047 20.6 30.3976 20.6"/>
	<path fill="#2D1B0A" d="M34.9707 73.7C37.8537 71.9 39.2455 68.9 39.2455 65.1L39.2455 61.6L48.3916 61.6L48.3916 58.1L39.2455 58.1L39.2455 52.4C39.2455 50 39.842 48.1 41.035 47C42.2279 45.8 44.1168 45.2 46.4033 45.2C48.1928 45.2 50.0816 45.6 51.7717 46.2L52.7658 42.9C50.3799 42.1 48.491 41.9 46.5027 41.9C43.0232 41.9 40.4385 42.9 38.152 44.8C35.9649 46.6 34.8713 49.3 34.8713 52.1L34.8713 58.2L27.9124 58.2L27.9124 61.7L34.8713 61.7L34.8713 66C34.8713 69.9 32.6842 72.4 27.9124 73.8L27.5147 77.1L54.8535 77.1L54.8535 73.8L35.0701 73.8"/>
</svg>
