<?xml version="1.0" encoding="utf-8" ?>
<svg xmlns="http://www.w3.org/2000/svg" xmlns:xlink="http://www.w3.org/1999/xlink" width="90" height="100">
	<path fill="white" d="M17.095 99.6976C13.5754 99.6976 10.6592 96.7742 10.6592 93.246L10.6592 91.4315C10.6592 87.9032 13.5754 84.9798 17.095 84.9798L35.3966 84.9798L35.1955 82.7621C35.1955 82.4597 35.1955 82.1573 35.1955 81.8548C35.1955 75.7056 40.1229 70.7661 46.257 70.7661C46.8603 70.7661 47.4637 70.8669 48.067 70.9677L68.6816 53.7298L68.3799 52.5202C68.0782 51.5121 67.9777 50.504 67.9777 49.496C67.9777 47.9839 68.2793 46.5726 68.7821 45.2621L69.2849 44.0524L50.9832 25.2016L52.0894 31.6532C52.3911 33.2661 52.4916 34.9798 52.5922 36.6935C52.5922 43.9516 50.0782 50.9073 45.352 56.3508L42.5363 59.5766L31.2737 48.3871L29.9665 48.9919C28.0559 49.8992 26.0447 50.3024 23.933 50.3024C23.5307 50.3024 23.2291 50.3024 22.8268 50.3024C18.905 50 15.3855 48.1855 12.8715 45.2621C10.3575 42.3387 9.05028 38.5081 9.35196 34.6774C9.45251 33.0645 9.85475 31.4516 10.5587 29.9395L11.0615 28.629L0 17.7419L3.21788 14.9194C8.54749 10.0806 15.486 7.45968 22.7263 7.35887C26.1453 7.35887 29.2626 7.8629 32.3799 8.87097L33.5866 9.27419L39.8212 3.125C41.8324 1.10887 44.648 0 47.4637 0C50.3799 0 53.095 1.10887 55.1061 3.125C58.1229 6.14919 59.2291 9.375 58.8268 12.7016L58.7263 13.7097L84.4693 40.121C87.9888 42.2379 90 45.8669 90 49.6976C90 54.0323 87.486 57.9637 83.5642 59.7782L54.5028 85.2823L74.514 85.2823C78.0335 85.2823 80.9497 88.2056 80.9497 91.7339L80.9497 93.5484C80.9497 97.0766 78.0335 100 74.514 100L17.095 100"/>
	<path fill="white" d="M17.0949 98.6897C14.0781 98.6897 11.6646 96.2702 11.6646 93.246L11.6646 91.4315C11.6646 88.4073 14.0781 85.9879 17.0949 85.9879L36.5027 85.9879L36.201 82.6613C36.201 82.3589 36.201 82.0565 36.201 81.8549C36.201 76.3105 40.7262 71.7742 46.2569 71.7742C46.7597 71.7742 47.3629 71.7742 47.8657 71.875L49.2737 72.0766L69.8881 53.9315L69.3853 52.117C69.1842 51.2097 68.9831 50.3025 68.9831 49.3952C68.9831 48.0847 69.2847 46.7743 69.7875 45.5646L70.592 43.75L49.4748 22.0767L51.1842 31.7542C51.486 33.367 51.5865 34.9799 51.5865 36.5928C51.5865 43.5484 49.173 50.3025 44.648 55.5444L42.5362 57.9637L31.4747 47.0766L29.5641 47.9839C27.8546 48.7904 25.8434 49.1936 23.9328 49.1936C23.6311 49.1936 23.2289 49.1936 22.9272 49.1936C19.3071 48.8912 15.9887 47.2783 13.6758 44.5565C11.2624 41.8347 10.1563 38.3065 10.3574 34.6775C10.458 33.1654 10.8602 31.6534 11.4636 30.2421L12.2681 28.3267L1.50825 17.6413L3.92166 15.5243C9.05015 10.8872 15.7875 8.26621 22.7261 8.26621C26.0445 8.26621 29.0613 8.77025 31.9775 9.77831L33.687 10.3832L40.4244 3.83073C42.3351 2.01621 44.7485 1.00815 47.3629 1.00815C49.9776 1.00815 52.4915 2.01621 54.3016 3.83073C57.1171 6.5525 58.1227 9.5767 57.7206 12.6009L57.5195 14.0121L83.6646 40.9275C86.9831 42.9436 88.7931 46.2702 88.7931 49.6976C88.7931 53.6291 86.4803 57.2581 82.9607 58.871L51.687 86.2905L74.3127 86.2905C77.3294 86.2905 79.7428 88.7097 79.7428 91.7339L79.7428 93.5484C79.7428 96.5726 77.3294 98.9921 74.3127 98.9921L17.0949 98.9921"/>
	<path fill="#FFD071" d="M22.8268 45.9678C16.9944 45.5644 12.6703 40.4233 13.0466 34.5766C13.2737 32.0564 14.3798 29.6371 16.1899 27.8225L31.2736 42.641C29.0614 45.0604 25.944 46.2701 22.8268 45.9678"/>
	<path fill="#2D1B0A" d="M23.6155 46.9757C23.3139 46.9757 23.0122 46.9757 22.7105 46.9757C16.3753 46.4717 11.5485 40.9273 12.0153 34.5765C12.2524 31.7539 13.4591 29.133 15.4703 27.2176L32.6658 42.7418C29.7496 45.766 26.7329 46.9757 23.6155 46.9757M16.1742 29.3346C14.9675 30.8467 14.163 32.762 14.0625 34.6773C13.6602 39.9193 17.6826 44.5564 22.9116 44.9596C25.4256 45.1612 27.839 44.3547 29.7496 42.7418L16.1742 29.3346"/>
	<path fill="#99CC62" d="M41.916 53.4274L32.0722 43.6492L14.8958 26.6129L5.65475 17.5403C10.2753 13.4073 16.2016 11.0887 22.4293 11.0887C26.3467 11.0887 30.1637 11.8952 33.5788 13.508C33.5788 13.508 33.5788 13.508 33.6793 13.508C34.9851 14.1129 36.09 14.8185 37.2953 15.625C37.2953 15.625 37.3959 15.625 37.3959 15.7258C37.5967 15.9274 37.7976 16.0282 38.0989 16.2298C38.1994 16.3306 38.2999 16.4314 38.4002 16.4314C38.6012 16.5322 38.7017 16.7339 38.9025 16.8347C39.1035 16.9355 39.2038 17.1371 39.4048 17.2379C39.5051 17.3387 39.7061 17.4395 39.8065 17.5403C40.1078 17.8427 40.4093 18.0443 40.6101 18.3468C40.9114 18.6492 41.2127 18.9516 41.5142 19.254C41.6146 19.3548 41.6146 19.3548 41.715 19.4556C41.916 19.758 42.2173 19.9597 42.4182 20.2621C42.5186 20.3629 42.5186 20.4637 42.619 20.4637C42.82 20.7661 43.0209 20.9677 43.2218 21.2702C43.2218 21.371 43.3222 21.371 43.3222 21.4718C43.5231 21.7742 43.7239 22.0766 43.9249 22.379C44.8288 23.7903 45.6325 25.3024 46.3356 26.9153C47.541 29.9395 48.1469 33.0645 48.1469 36.2903C48.244 42.7419 46.0343 48.6895 41.916 53.4274"/>
	<path fill="#2D1B0A" d="M42.0163 54.9395L4.148 17.5403C9.773 12.5 16.0007 10.0806 22.4293 10.0806C26.4471 10.0806 30.3645 10.8871 33.9806 12.6008C35.3868 13.3064 36.5922 14.0121 37.7976 14.8185C38.0989 15.1209 38.4002 15.2217 38.6011 15.4233C38.802 15.625 38.9025 15.625 39.0029 15.7258C39.2038 15.8266 39.3042 16.0282 39.5051 16.129C39.706 16.2298 39.8065 16.4314 40.0074 16.5322C40.1078 16.633 40.2083 16.7338 40.4092 16.8346C40.7105 17.1371 41.0118 17.3387 41.3132 17.6411C41.6145 17.9435 41.9159 18.2459 42.2172 18.6492C42.8199 19.254 42.9203 19.4556 43.1212 19.6572C43.1212 19.6572 43.2217 19.758 43.2217 19.758C43.523 20.1612 43.7239 20.3629 43.9248 20.6653C44.3266 21.1693 44.5275 21.4717 44.7284 21.7741C45.7328 23.2862 46.5364 24.7983 47.2395 26.4112C48.5453 29.6371 49.148 32.9637 49.148 36.2903C49.148 42.7419 46.9382 48.9919 42.7194 53.9314L42.0163 54.9395M32.7752 42.9435L41.8154 51.9153C45.2306 47.5806 47.1391 42.1371 47.1391 36.4919C47.1391 33.3669 46.5364 30.3427 45.4315 27.5201C44.7284 25.9072 43.9248 24.3951 43.0208 23.0846C42.7194 22.7822 42.5185 22.4798 42.3176 22.1774C42.0163 21.7741 41.8154 21.4717 41.6145 21.2701C41.6145 21.2701 41.5141 21.1693 41.5141 21.1693C41.3132 20.8669 41.1123 20.6653 40.9114 20.5645C40.3087 19.8588 40.0074 19.5564 39.706 19.254C39.4047 18.9516 39.2038 18.75 38.9025 18.4475C38.802 18.3467 38.7016 18.2459 38.5007 18.1451C38.2998 18.0443 38.1993 17.8427 37.9984 17.7419C37.7976 17.6411 37.6971 17.4395 37.4962 17.3387C36.994 16.9354 36.7931 16.8346 36.5922 16.633C35.3868 15.7258 34.2819 15.1209 33.0766 14.5161C29.6614 12.8024 26.0453 12.0967 22.3288 12.0967C16.7038 12.0967 11.2797 14.1129 6.9605 17.6411L32.7752 42.9435"/>
	<path fill="#99CC62" d="M43.542 21.5726C43.542 21.5726 43.4415 21.4718 43.4415 21.4718C43.2403 21.2702 43.1398 21.0686 42.9387 20.867C42.8381 20.6654 42.7376 20.5646 42.5364 20.363C42.4359 20.1614 42.2348 20.0605 42.1342 19.8589C41.9331 19.6573 41.8325 19.4557 41.6314 19.3549C41.5309 19.2541 41.4303 19.0525 41.2292 18.9517C41.0281 18.7501 40.8269 18.5484 40.6258 18.3468C40.5253 18.246 40.4247 18.1452 40.3242 18.0444C40.0225 17.742 39.7208 17.4396 39.3186 17.1372C38.9163 16.7339 38.5141 16.4315 38.0113 16.1291C37.9107 16.0283 37.8102 15.9275 37.7096 15.9275C37.408 15.6251 37.0057 15.4234 36.6035 15.2218C35.3968 14.4154 34.3912 13.8105 33.3856 13.3065L40.7264 5.94764C42.1342 4.53635 44.0448 3.7299 46.1565 3.7299C48.2683 3.7299 50.0783 4.53635 51.5867 5.94764C54.5029 8.97184 55.0057 12.5001 53.6984 15.3226C53.5979 15.5243 53.4973 15.6251 53.3968 15.8267C53.3968 15.8267 53.3968 15.9275 53.2962 15.9275C53.1957 16.0283 53.0951 16.2299 52.9945 16.3307C52.894 16.4315 52.894 16.5323 52.7934 16.5323C52.6929 16.6331 52.6929 16.7339 52.5923 16.8347C52.4917 17.0364 52.2906 17.1372 52.0895 17.3388L45.151 24.2944C44.8493 23.3872 44.2459 22.4799 43.542 21.5726"/>
	<path fill="#2D1B0A" d="M45.2515 26.0082L44.5476 24.8993C43.9442 23.9921 43.3409 23.0848 42.7375 22.1775C42.4359 21.8751 42.3353 21.6735 42.1342 21.4719C42.0336 21.2703 41.9331 21.1695 41.7319 21.0687C41.6314 20.9679 41.5308 20.7663 41.4303 20.6654C41.2292 20.4638 41.028 20.2622 40.9275 20.0606C40.3241 19.4558 40.123 19.2542 39.9219 19.0525C39.3185 18.4477 39.0169 18.1453 38.7152 17.9437C38.313 17.6413 37.9107 17.238 37.5085 16.9356C36.9051 16.5324 36.5029 16.23 36.2012 16.0284C34.9945 15.2219 34.0895 14.7179 33.0839 14.2138L31.8772 13.609L40.2236 5.24206C41.8325 3.62916 44.0448 2.7219 46.3576 2.7219C48.6705 2.7219 50.8828 3.62916 52.4917 5.24206C55.7096 8.46787 56.313 12.3993 54.8046 15.7259C54.704 15.9275 54.6035 16.1292 54.5029 16.3308C54.4023 16.5324 54.3018 16.6332 54.2012 16.734C54.0001 16.9356 54.0001 17.0364 53.8995 17.1372C53.6984 17.3388 53.6984 17.4396 53.5979 17.5404C53.3968 17.7421 53.2962 17.9437 53.0951 18.1453L45.2515 26.0082M44.3465 20.9679C44.7487 21.5727 45.2515 22.1775 45.6537 22.7824L51.6873 16.734C51.7878 16.6332 51.9889 16.4316 52.0895 16.23C52.0895 16.1292 52.19 16.1292 52.19 16.1292C52.5923 15.6251 52.5923 15.5243 52.6928 15.4235C52.894 15.2219 52.894 15.0203 52.9945 14.9195C54.2012 12.3993 53.6984 9.27432 51.6873 7.25819C49.8772 5.34287 48.1677 4.73803 46.3576 4.73803C44.5476 4.73803 42.9387 5.44367 41.6314 6.65335L35.1956 13.105C35.799 13.4074 36.4023 13.8106 37.0057 14.2138C37.7096 14.7179 38.0113 14.9195 38.4135 15.2219C39.1174 15.7259 39.6202 16.1292 40.0224 16.5324C40.3241 16.8348 40.7264 17.1372 41.028 17.4396C41.5308 17.9437 41.7319 18.1453 41.9331 18.3469C42.1342 18.5485 42.2347 18.6493 42.3353 18.7501C42.5364 18.9517 42.637 19.1534 42.8381 19.355C43.0392 19.5566 43.1398 19.6574 43.2403 19.859C43.3409 20.0606 43.542 20.1614 43.6426 20.363C43.8437 20.5646 43.9442 20.7663 44.1454 20.9679C44.2459 20.8671 44.3465 20.8671 44.3465 20.9679"/>
	<path fill="#89C5E5" d="M77.3297 46.6733L51.8883 20.5645L54.704 17.6411C55.0057 17.3387 55.2068 17.137 55.4079 16.8346C55.5085 16.7338 55.5085 16.633 55.609 16.5322C55.609 16.4314 55.7096 16.4314 55.7096 16.4314L81.2514 42.6411C80.9498 42.8427 80.7486 42.9435 80.4471 43.1451C79.5419 43.7499 78.838 44.4556 78.1341 45.262C77.933 45.5645 77.7319 45.7661 77.5308 46.0685C77.5308 46.0685 77.5308 46.1693 77.4303 46.1693C77.4303 46.3709 77.3297 46.4717 77.3297 46.6733"/>
	<path fill="#2D1B0A" d="M77.5308 48.2863L50.4805 20.5646L54 16.9355C54.2012 16.7339 54.5028 16.4315 54.704 16.1291C54.9051 15.8267 55.0056 15.7259 55.0056 15.7259L82.9609 42.8428L81.8548 43.4476C81.6537 43.5484 81.4526 43.6492 81.2514 43.8509C80.447 44.4557 79.7431 45.0605 79.2403 45.7662C78.9386 46.2702 78.7375 46.4718 78.5364 46.7742C78.3352 47.0767 78.2347 47.0767 78.2347 47.1775L77.5308 48.2863M53.2961 20.5646L77.1285 45.0605C77.1285 45.0605 77.2291 44.9597 77.2291 44.9597C78.1341 43.75 78.9386 43.0444 79.7431 42.4396L55.8101 17.9436C55.7095 18.0444 55.5084 18.246 55.4079 18.3468L53.2961 20.5646"/>
	<path fill="#89C5E5" d="M81.3519 55.6454L53.3966 80.343C53.3966 80.2422 53.296 80.2422 53.296 80.1414C52.2904 78.3269 50.8826 76.8148 49.1731 75.8067L77.3295 50.9075C77.4301 51.2099 77.6312 51.5123 77.7318 51.714C77.9329 52.0164 78.134 52.3188 78.3351 52.722C78.7373 53.3269 79.2401 53.9317 79.8435 54.4357C80.3463 54.9398 80.8491 55.343 81.3519 55.6454"/>
	<path fill="#2D1B0A" d="M53.1955 81.9557L52.4916 80.746C51.3854 78.9315 50.1787 77.621 48.6704 76.613L47.5642 75.9073L77.8324 49.1936L78.4357 50.4033C78.5363 50.7057 78.6368 50.9073 78.8379 51.2097C79.0391 51.5121 79.1396 51.8146 79.3407 52.0162C79.8435 52.8226 80.2458 53.2259 80.7486 53.7299C81.2514 54.2339 81.6536 54.5363 82.1564 54.8388L83.162 55.5444L53.1955 81.9557M50.7821 75.6049C51.8882 76.5121 52.8938 77.5202 53.6983 78.7299L79.8435 55.6452C79.6424 55.4436 79.4413 55.3428 79.2402 55.1412C78.6368 54.5363 78.0335 53.9315 77.6312 53.2259C77.6312 53.2259 77.6312 53.2259 77.6312 53.125C77.3296 52.621 77.229 52.5202 77.1284 52.3186L50.7821 75.6049"/>
	<path fill="#89C5E5" d="M74.2122 95.6653L16.6927 95.6653C15.3854 95.6653 14.2793 94.5564 14.2793 93.246L14.2793 91.4314C14.2793 90.121 15.3854 89.0121 16.6927 89.0121L74.2122 89.0121C75.5194 89.0121 76.6256 90.121 76.6256 91.4314L76.6256 93.246C76.6256 94.5564 75.5194 95.6653 74.2122 95.6653"/>
	<path fill="#2D1B0A" d="M74.2122 96.6734L16.6927 96.6734C14.7821 96.6734 13.2737 95.1613 13.2737 93.246L13.2737 91.4314C13.2737 89.5161 14.7821 88.004 16.6927 88.004L74.2122 88.004C76.1229 88.004 77.6312 89.5161 77.6312 91.4314L77.6312 93.246C77.6312 95.1613 76.1229 96.6734 74.2122 96.6734M16.6927 89.9193C15.8882 89.9193 15.2849 90.5242 15.2849 91.3306L15.2849 93.1451C15.2849 93.9516 15.8882 94.5564 16.6927 94.5564L74.2122 94.5564C75.0167 94.5564 75.6201 93.9516 75.6201 93.1451L75.6201 91.3306C75.6201 90.5242 75.0167 89.9193 74.2122 89.9193L16.6927 89.9193"/>
	<path fill="#99CC62" d="M52.8938 80.5444C52.8938 84.4416 49.7423 87.6009 45.8547 87.6009C41.9671 87.6009 38.8156 84.4416 38.8156 80.5444C38.8156 76.6472 41.9671 73.488 45.8547 73.488C49.7423 73.488 52.8938 76.6472 52.8938 80.5444"/>
	<path fill="#2D1B0A" d="M45.8547 88.6089C41.4301 88.6089 37.81 84.9799 37.81 80.5444C37.81 76.1089 41.4301 72.4799 45.8547 72.4799C50.2793 72.4799 53.8994 76.1089 53.8994 80.5444C53.8994 84.9799 50.2793 88.6089 45.8547 88.6089M45.8547 74.496C42.5363 74.496 39.8212 77.2178 39.8212 80.5444C39.8212 83.871 42.5363 86.5928 45.8547 86.5928C49.1731 86.5928 51.8882 83.871 51.8882 80.5444C51.8882 77.2178 49.1731 74.496 45.8547 74.496"/>
	<path fill="#99CC62" d="M85.1732 48.6895C85.1732 52.5867 82.0217 55.746 78.1341 55.746C74.2465 55.746 71.095 52.5867 71.095 48.6895C71.095 44.7924 74.2465 41.6331 78.1341 41.6331C82.0217 41.6331 85.1732 44.7924 85.1732 48.6895"/>
	<path fill="#2D1B0A" d="M78.1341 56.6532C73.7095 56.6532 70.0894 53.0242 70.0894 48.5887C70.0894 44.1532 73.7095 40.5242 78.1341 40.5242C82.5587 40.5242 86.1788 44.1532 86.1788 48.5887C86.1788 53.0242 82.5587 56.6532 78.1341 56.6532M78.1341 42.6411C74.8157 42.6411 72.1006 45.3629 72.1006 48.6895C72.1006 52.0161 74.8157 54.7379 78.1341 54.7379C81.4525 54.7379 84.1676 52.0161 84.1676 48.6895C84.1676 45.3629 81.4525 42.6411 78.1341 42.6411"/>
</svg>
