<?xml version="1.0" encoding="utf-8" ?>
<svg xmlns="http://www.w3.org/2000/svg" xmlns:xlink="http://www.w3.org/1999/xlink" width="90" height="62">
	<path fill="white" d="M0 62L0 27.2439C0 21.9354 2.9162 17.1276 7.64246 14.6236C13.676 11.4184 24.9385 5.50889 39.0168 2.50404C46.7598 0.901454 55.6089 0 63.6536 0C67.9777 0 72 0.300485 75.6201 0.801292C81.8547 1.70275 86.6816 6.41034 87.7877 12.5202L89.3966 21.5347L83.162 22.7367L83.162 38.8627L33.2849 38.8627L33.2849 44.6721L90 44.6721L90 62L0 62"/>
	<path fill="#E2E2E2" d="M29.162 21.1341L80.1452 17.7286L80.1452 35.7577L26.8492 35.7577"/>
	<path fill="#2D1B0A" d="M81.1508 36.7594L25.6424 36.7594L28.1564 20.1325L81.0502 16.6269L81.0502 36.7594M28.0558 34.7561L79.2402 34.7561L79.2402 18.7303L30.067 22.0356L28.0558 34.7561"/>
	<path fill="#89C5E5" d="M3.0168 48.5784L86.9833 48.5784L86.9833 58.9952L3.0168 58.9952L3.0168 48.5784"/>
	<path fill="#2D1B0A" d="M87.9889 59.9968L2.0112 59.9968L2.0112 47.5768L87.9889 47.5768L87.9889 59.9968M4.02237 57.9936L85.9777 57.9936L85.9777 49.58L4.02237 49.58L4.02237 57.9936"/>
	<path fill="#89C5E5" d="M86.0279 19.9321L84.9217 13.5217C84.0167 8.41351 80.1955 4.5072 75.2682 3.80607C65.0111 2.30365 51.2346 3.0489 39.6705 5.60898C26.7989 8.41351 16.542 13.9224 9.10057 18.029C5.3799 20.0322 3.06705 24.1389 3.06705 28.546L3.06705 47.6768L30.3185 47.6768L30.3185 31.2503L86.0279 19.9321"/>
	<path fill="#2D1B0A" d="M31.2738 48.5784L2.0112 48.5784L2.0112 28.4435C2.0112 23.6352 4.52517 19.3277 8.54751 17.0237C14.4805 13.718 25.6425 7.60738 39.419 4.502C51.3855 1.8737 65.162 1.09609 75.419 2.69887C80.7486 3.50026 84.9721 7.70756 85.8771 13.2171L87.0838 20.5298L31.2738 31.8494L31.2738 48.5784M4.02237 46.575L29.2626 46.575L29.2626 30.3468L84.771 19.0272L83.8659 13.6178C83.0615 8.90964 79.5419 5.40356 75.1173 4.70234C65.162 3.19974 51.5866 3.90095 39.9218 6.50547C27.4525 9.21016 17.6984 14.319 9.65366 18.8268C6.23466 20.7301 4.12293 24.4366 4.12293 28.4435L4.12293 46.575"/>
	<path fill="#2D1B0A" d="M16.0894 28.2456C13.7766 28.2456 11.9665 30.1486 11.9665 32.3522C11.9665 34.5558 13.8771 36.4588 16.0894 36.4588C18.4022 36.4588 20.2123 34.5558 20.2123 32.3522C20.2123 30.1486 18.4022 28.2456 16.0894 28.2456"/>
	<path fill="white" d="M65.2626 28.9467L75.5196 28.9467L75.5196 32.4523L65.2626 32.4523L65.2626 28.9467"/>
</svg>
