<?xml version="1.0" encoding="utf-8" ?>
<svg xmlns="http://www.w3.org/2000/svg" xmlns:xlink="http://www.w3.org/1999/xlink" width="114" height="76">
	<path fill="white" d="M57 76C45.4391 76 34.8374 67.7566 31.3035 55.7937L30.6977 53.7831L24.5386 53.381L23.6298 55.0899C22.2163 57.6032 19.5911 59.2116 16.663 59.2116C13.432 59.2116 10.5039 57.3016 9.29229 54.2857L8.58551 52.4762L5.15258 52.2751C2.22448 51.9735 0 49.2593 0 46.2434C0 43.127 2.62836 40.6138 5.65742 40.5132L31.1015 40.5132L31.8083 38.6032C33.7267 33.6772 37.2606 29.455 41.9052 26.5397L47.6604 22.9206L41.0974 21.0106C39.28 20.5079 37.8664 19.3016 37.0587 17.6931C36.15 15.8836 36.2509 13.672 37.2606 11.963C38.3713 10.254 40.1887 9.14815 42.2081 9.14815L49.3769 9.14815L49.7807 6.13228C50.1846 2.61376 53.1127 0 56.6466 0C60.1805 0 63.2096 2.61376 63.7144 6.03175L64.0173 8.6455L70.8832 8.6455C72.9026 8.6455 74.821 9.65079 75.8307 11.3598C76.8403 13.0688 76.9413 15.2804 76.0326 16.9894C75.2248 18.5979 73.7103 19.8042 71.9939 20.3069L65.2289 22.3175L71.2871 25.836C76.3355 28.7513 80.0713 33.0741 82.1917 38.4021L82.8985 40.3122L108.343 40.3122C111.372 40.4127 114 42.9259 114 46.0423C114 49.1587 111.776 51.7725 108.746 52.0741L106.424 52.2751L105.717 54.0847C104.506 57.1005 101.578 59.1111 98.3467 59.1111C95.4186 59.1111 92.7934 57.5026 91.3798 54.9894L90.4711 53.2804L83.4033 53.6825L82.7975 55.6931C79.2636 67.7566 68.6619 76 57 76"/>
	<path fill="#B4DDEF" d="M98.5486 46.4445C95.8224 46.4445 93.6011 48.6561 93.6011 51.3704C93.6011 54.0847 95.8224 56.2963 98.5486 56.2963C101.275 56.2963 103.496 54.0847 103.496 51.3704C103.496 50.0635 102.991 48.8572 102.083 47.8519C101.174 46.9471 99.8612 46.4445 98.5486 46.4445"/>
	<path fill="#2D1B0A" d="M98.5486 57.3016C95.2166 57.3016 92.5915 54.6879 92.5915 51.3704C92.5915 48.053 95.2166 45.4392 98.5486 45.4392C100.164 45.4392 101.679 46.0424 102.789 47.1482C103.9 48.254 104.506 49.762 104.506 51.3704C104.506 54.6879 101.881 57.3016 98.5486 57.3016M98.5486 47.4498C96.3273 47.4498 94.6108 49.1588 94.6108 51.3704C94.6108 53.5821 96.3273 55.291 98.5486 55.291C100.669 55.291 102.486 53.5821 102.486 51.3704C102.486 50.3651 102.083 49.3598 101.376 48.5556C100.669 47.8519 99.6593 47.4498 98.5486 47.4498"/>
	<path fill="#B4DDEF" d="M16.764 46.4445C14.0378 46.4445 11.8165 48.6561 11.8165 51.3704C11.8165 54.0847 14.0378 56.2963 16.764 56.2963C19.4902 56.2963 21.7115 54.0847 21.7115 51.3704C21.7115 50.0635 21.2066 48.7567 20.2979 47.8519C19.3892 46.9471 18.0766 46.4445 16.764 46.4445"/>
	<path fill="#2D1B0A" d="M16.764 57.3016C13.533 57.3016 10.8069 54.6879 10.8069 51.3704C10.8069 48.1535 13.432 45.4392 16.764 45.4392C18.3795 45.4392 19.894 46.0424 21.0047 47.1482C22.1154 48.254 22.7211 49.762 22.7211 51.3704C22.7211 54.6879 20.096 57.3016 16.764 57.3016M16.764 47.4498C14.6437 47.4498 12.8262 49.2593 12.8262 51.3704C12.8262 53.4815 14.6437 55.291 16.764 55.291C18.8843 55.291 20.7018 53.4815 20.7018 51.3704C20.7018 50.3651 20.2979 49.3598 19.5911 48.5556C18.7834 47.8519 17.8747 47.4498 16.764 47.4498"/>
	<path fill="#B4DDEF" d="M39.8858 16.4868C40.3906 17.4921 41.4003 18.1958 42.511 18.3968L51.4972 19.9048L52.406 12.3651L42.511 12.3651C41.5013 12.3651 40.5926 12.8677 39.9868 13.672C39.4819 14.5767 39.4819 15.582 39.8858 16.4868"/>
	<path fill="#2D1B0A" d="M52.305 21.0106L42.3091 19.3016C40.8955 19 39.6839 18.1958 38.9771 16.8889C38.3713 15.6826 38.3713 14.2752 39.179 13.1693C39.8858 12.0635 41.0974 11.3598 42.511 11.3598L53.5165 11.3598L52.305 21.0106M42.511 13.3704C41.8042 13.3704 41.1984 13.672 40.8955 14.2752C40.5926 14.7778 40.4916 15.4815 40.7945 15.9841C41.1984 16.6879 41.9052 17.1905 42.7129 17.291L50.5884 18.6984L51.2952 13.3704L42.511 13.3704"/>
	<path fill="#B4DDEF" d="M71.0851 17.7936C72.1957 17.5926 73.1044 16.8889 73.6093 15.8836C74.0131 14.9788 74.0131 13.9735 73.5083 13.1693C73.0035 12.365 72.0947 11.8624 71.0851 11.8624L61.594 11.8624L62.5027 19.4021L71.0851 17.7936"/>
	<path fill="#2D1B0A" d="M61.594 20.5079L60.3824 10.8571L71.0851 10.8571C72.3977 10.8571 73.6093 11.5608 74.3161 12.6666C75.0229 13.7724 75.0229 15.1799 74.518 16.3862C73.9122 17.5926 72.7006 18.4973 71.287 18.7989L61.594 20.5079M62.7047 12.8677L63.4115 18.1957L70.9841 16.7883C71.7919 16.6878 72.3977 16.1852 72.8015 15.4815C73.1045 14.8783 73.1045 14.2751 72.7006 13.7724C72.3977 13.2698 71.7919 12.9682 71.1861 12.9682L62.7047 12.9682"/>
	<path fill="#B4DDEF" d="M108.443 43.6297L80.677 43.6297C78.5567 32.7725 68.8637 25.4339 57.2018 25.4339C45.338 25.4339 35.645 32.7725 33.6256 43.6297L5.85922 43.6297C4.34469 43.7302 3.0321 44.9365 3.0321 46.4445C3.0321 47.9524 4.14276 49.2593 5.65729 49.4604L33.5246 51.0687C35.0392 62.9313 45.136 73.0846 57.2018 73.0846C69.3685 73.0846 79.3644 62.9313 80.9799 51.0687L98.1446 50.0635L108.746 49.3597C110.261 49.1588 111.371 47.8519 111.371 46.344C111.169 44.836 109.958 43.6297 108.443 43.6297"/>
	<path fill="#2D1B0A" d="M57.2018 74.0899C45.3382 74.0899 34.7365 64.4391 32.6161 51.9735L5.65747 50.365C3.53713 50.164 2.1188 48.3545 2.1188 46.3439C2.1188 44.3333 3.84003 42.6243 5.85941 42.5238L32.919 42.5238C35.3423 31.7672 45.2372 24.328 57.2018 24.328C69.2677 24.328 79.1627 31.7672 81.5859 42.5238L108.545 42.5238C110.564 42.6243 112.285 44.2328 112.285 46.3439C112.285 48.3545 110.766 50.164 108.747 50.365L98.1448 51.0687L81.7879 51.9735C79.7685 64.4391 69.1668 74.0899 57.2018 74.0899M5.85941 44.6349C4.95069 44.6349 4.14294 45.4391 4.04197 46.4444C4.04197 47.4497 4.74875 48.2539 5.75844 48.3545L34.3326 50.0634C36.049 62.7301 45.944 72.0793 57.2018 72.0793C68.2581 72.0793 78.254 62.8306 79.8695 50.9682L97.9429 49.1587L108.545 48.455C109.453 48.3545 110.261 47.4497 110.16 46.5449C110.16 45.5396 109.353 44.7354 108.343 44.7354L79.7685 44.7354C77.5472 33.6772 68.2581 26.5396 57.0505 26.5396C45.6411 26.5396 36.352 33.6772 34.5345 43.9312L5.85941 44.7354"/>
	<path fill="#1A9DFF" d="M45.664 44.6349L68.8867 44.6349C69.7954 44.6349 70.7041 44.2328 71.3101 43.4286C71.9093 42.7249 72.0167 41.7196 71.8148 40.8148C71.209 38.8042 70.1993 36.8942 68.8867 35.2857C68.2809 34.582 67.4731 34.1799 66.5645 34.1799L47.9862 34.1799C47.0775 34.1799 46.1688 34.582 45.664 35.2857C44.3514 36.8942 43.3417 38.8042 42.7594 40.8148C42.6349 41.7196 42.7594 42.6243 43.3417 43.4286C43.8465 44.2328 44.7552 44.6349 45.664 44.6349"/>
	<path fill="#2D1B0A" d="M45.6411 46.1429C44.2275 46.1429 42.9149 45.4392 42.1072 44.3334C41.2994 43.2276 40.9965 41.8201 41.2994 40.5132C41.9052 38.201 42.9149 36.1905 44.4295 34.3809C45.3382 33.2751 46.6508 32.672 47.9633 32.672L66.5416 32.672C67.9552 32.672 69.1668 33.2751 70.0755 34.2804C71.59 36.0899 72.7007 38.1005 73.3065 40.3122C73.7104 41.619 73.4075 43.127 72.5997 44.2327C71.792 45.3387 70.3784 46.0424 68.9648 46.0424L45.6411 46.0424M45.6411 43.127L68.8639 43.127C69.3687 43.127 69.7726 42.9259 70.0755 42.5238C70.3784 42.1217 70.4794 41.619 70.2774 41.2169C69.7726 39.4074 68.8639 37.6984 67.6522 36.291C67.3493 35.8889 66.9455 35.6878 66.4406 35.6878L47.8624 35.6878C47.3575 35.6878 46.9537 35.8889 46.6508 36.291C45.4391 37.7989 44.6314 39.4074 44.1265 41.3175C44.0256 41.7196 44.1265 42.2222 44.4295 42.6243C44.7323 42.9259 45.1362 43.127 45.6411 43.127"/>
	<path fill="#B4DDEF" d="M56.9495 2.1111C54.9302 2.1111 53.2137 3.82009 53.0117 6.13226L50.8914 26.037C54.9302 24.9312 59.0699 24.9312 63.0076 26.037L60.8873 6.13226C60.6854 3.82009 58.9689 2.1111 56.9495 2.1111"/>
	<path fill="#2D1B0A" d="M64.2193 27.3439L62.8057 26.9418C58.9689 25.9365 55.0311 25.9365 51.1943 26.9418L49.7808 27.3439L52.0021 6.03173C52.305 3.21691 54.4253 1.1058 56.9495 1.1058C59.5747 1.1058 61.695 3.21691 61.8969 6.03173L64.2193 27.3439M56.9495 3.11638C55.435 3.11638 54.2234 4.42326 54.0214 6.23278L52.103 24.7301C55.334 24.0264 58.666 24.0264 61.8969 24.7301L59.9785 6.23278C59.7766 4.42326 58.4641 3.11638 56.9495 3.11638"/>
</svg>
