<?xml version="1.0" encoding="utf-8" ?>
<svg xmlns="http://www.w3.org/2000/svg" xmlns:xlink="http://www.w3.org/1999/xlink" width="84" height="104">
	<path fill="white" d="M18.7983 104C15.8581 104 13.5261 101.7 13.5261 98.8L13.5261 97.8C13.5261 92.3 17.2775 87.4 22.5497 85.8L28.3289 84.1L22.6511 82C19.1025 80.7 15.6553 78.9 12.5122 76.7L11.2956 75.8L10.0789 76.7C8.96361 77.6 7.64555 78 6.22611 78C3.69138 78 1.46082 76.5 0.446933 74.2C-0.465568 71.9 0 69.3 1.76499 67.5L8.45667 60.9L7.54416 59.5C3.69138 53.6 1.6636 46.8 1.6636 39.8C1.6636 23.3 12.9178 8.9 29.0386 4.8C32.0803 4 35.2234 3.6 38.3664 3.6C39.9887 3.6 41.8137 3.7 43.5373 3.9C48.3026 4.6 52.8651 6.1 57.022 8.5L58.3401 9.3L65.9442 1.8C67.1609 0.6 68.6817 0 70.4054 0C70.9123 0 71.5206 0 72.0276 0.2C74.1567 0.8 75.8804 2.4 76.4887 4.6C76.9956 6.7 76.4887 8.9 74.9679 10.4L73.7512 11.6L74.7651 13C84.4984 25.6 86.729 42.5 80.5443 57.2C75.6776 68.7 66.2484 77.7 54.4873 82L48.9109 84L54.5887 85.8C59.9623 87.4 63.5109 92.3 63.5109 97.8L63.5109 98.8C63.5109 101.7 61.179 104 58.2387 104L18.7983 104"/>
	<path fill="#E63B56" d="M34.1135 78.3L42.832 78.3L42.832 89.2L34.1135 89.2L34.1135 78.3"/>
	<path fill="#2D1B0A" d="M43.8459 90.2L33.0998 90.2L33.0998 77.3L43.8459 77.3L43.8459 90.2M35.1273 88.2L41.8183 88.2L41.8183 79.3L35.1273 79.3L35.1273 88.2"/>
	<path fill="#E63B56" d="M8.3718 69.5872C7.6875 68.9872 7.56078 68.1871 7.6875 67.4872C7.96629 66.6871 8.57456 66.0872 9.38558 65.8871C10.1966 65.6871 11.0076 65.8871 11.5145 66.4872C26.4171 81.1871 50.5451 81.1871 65.4476 66.4872C80.3502 51.7872 80.3502 27.9872 65.4476 13.2871C64.5352 12.3871 64.5352 10.9872 65.4476 10.1872C66.36 9.28715 67.7793 9.28715 68.5903 10.1872C80.7557 22.1871 84.4053 40.2871 77.8157 55.9871C71.2262 71.6871 55.7153 81.9872 38.4811 81.8878C27.2281 81.8878 16.3807 77.3871 8.3718 69.5872"/>
	<path fill="#2D1B0A" d="M38.3714 82.9C26.9157 82.9 15.6628 78.3 7.55251 70.3C6.74149 69.5 6.43735 68.3 6.74149 67.2C7.04562 66.1 7.95802 65.2 9.07318 64.9C10.1883 64.6 11.4049 64.9 12.2159 65.7C26.713 80 50.2326 80 64.7297 65.7C71.7248 58.8 75.5771 49.6 75.5771 39.8C75.5771 30 71.7248 20.8 64.7297 13.9C63.4118 12.6 63.4118 10.6 64.7297 9.4C65.9462 8.2 68.0752 8.2 69.2917 9.4C81.8626 21.7 85.5122 40.2 78.8212 56.3C72.0289 72.4 56.214 82.8 38.5742 82.9C38.4728 82.9 38.4728 82.9 38.3714 82.9M9.98558 66.8C9.8842 66.8 9.78283 66.8 9.68145 66.8C9.27594 66.9 8.9718 67.2 8.76905 67.7C8.66767 68.1 8.76905 68.6 9.07318 68.9C16.7779 76.5 27.524 80.9 38.4728 80.9C38.4728 80.9 38.4728 80.9 38.5742 80.9C55.4029 80.9 70.5082 71 76.9964 55.6C83.4846 40.2 79.9364 22.6 67.9738 10.9C67.4669 10.4 66.6559 10.4 66.2504 10.9C65.7435 11.4 65.7435 12.1 66.2504 12.6C73.651 19.9 77.7061 29.6 77.7061 39.9C77.7061 50.2 73.651 59.9 66.2504 67.2C50.9423 82.3 26.1047 82.3 10.898 67.2C10.5939 66.9 10.2897 66.8 9.98558 66.8"/>
	<path fill="#E63B56" d="M5.72768 73.8C4.81528 73.8 4.00426 73.3 3.70012 72.5C3.39599 71.7 3.53847 70.8 4.20702 70.2L14.9531 59.6C15.46 58.925 16.271 58.8 17.0821 58.925C17.8931 59.2 18.4 59.8 18.6027 60.5C18.8055 61.3 18.6027 62 17.9945 62.6L7.24835 73.2C6.84284 73.5 6.33595 73.8 5.72768 73.8"/>
	<path fill="#2D1B0A" d="M5.72029 74.7999C4.40168 74.7999 3.28592 74 2.77877 72.8999C2.27161 71.7 2.53445 70.3999 3.48879 69.5L14.2406 58.9C15.052 58.1 16.1677 57.8 17.2836 58.1C18.3993 58.4 19.3122 59.2 19.5151 60.3C19.8194 61.4 19.5151 62.6 18.7036 63.4L7.95179 74C7.3432 74.3999 6.53175 74.7999 5.72029 74.7999M16.472 59.8C16.1677 59.8 15.8635 59.9 15.6607 60.1L4.90884 70.7C4.60454 71 4.50311 71.5 4.70597 72C5.01027 72.7 6.02459 72.8999 6.63318 72.3999L17.385 61.8C17.6893 61.5 17.7906 61.1 17.6893 60.7C17.5879 60.3 17.2836 60 16.8778 59.9C16.6749 59.9 16.5735 59.8 16.472 59.8"/>
	<path fill="#E63B56" d="M57.6332 17.5C57.3291 16.7 57.4716 15.8 58.1401 15.2L68.8862 4.59996C69.3931 3.92496 70.2041 3.79996 71.0152 3.92496C71.8262 4.19996 72.3331 4.79996 72.5358 5.49996C72.7386 6.29996 72.5358 6.99996 71.9276 7.59996L61.1814 18.2C60.7759 18.6 60.1677 18.8 59.6608 18.8C58.8498 18.8 58.0387 18.3 57.6332 17.5"/>
	<path fill="#2D1B0A" d="M59.6534 19.7999C58.3348 19.7999 57.219 18.9999 56.7119 17.9C56.2047 16.6999 56.4675 15.4 57.4219 14.5L68.1736 3.89996C68.9851 3.09996 70.1008 2.79996 71.2166 3.09996C72.3324 3.39996 73.2452 4.19996 73.4482 5.29996C73.7524 6.39996 73.4482 7.59996 72.6367 8.39996L61.8849 18.9999C61.3777 19.4999 60.5663 19.7999 59.6534 19.7999M70.5066 4.89996C70.2023 4.89996 69.898 4.99996 69.6951 5.19996L58.9434 15.8C58.6391 16.1 58.5376 16.6 58.7405 17.1C58.9434 17.5 59.3491 17.7999 59.8562 17.7999C60.1605 17.7999 60.4648 17.6999 60.6677 17.5L71.4194 6.89996C71.7237 6.59996 71.8252 6.19996 71.7237 5.79996C71.6223 5.39996 71.318 5.09996 70.9123 4.99996C70.608 4.89996 70.5066 4.89996 70.5066 4.89996"/>
	<path fill="#E63B56" d="M18.8111 100L58.2472 100C58.9567 100 59.4636 99.4 59.4636 98.8L59.4636 97.8C59.4636 93.1 55.6113 89.3 50.8465 89.3L26.2117 89.3C21.4469 89.3 17.5835 93.1 17.5835 97.8L17.5835 98.8C17.5835 99.4 18.1014 100 18.8111 100"/>
	<path fill="#2D1B0A" d="M58.2417 101L18.8056 101C17.5891 101 16.5753 100 16.5753 98.8L16.5753 97.8C16.5753 92.5 20.9346 88.3 26.2062 88.3L50.8411 88.3C56.2141 88.3 60.472 92.6 60.472 97.8L60.472 98.8C60.472 99.9 59.4582 101 58.2417 101M26.2062 90.1C21.9483 90.1 18.6029 93.5 18.6029 97.6L18.6029 98.6C18.6029 98.7 18.7042 98.8 18.8056 98.8L58.2417 98.8C58.343 98.8 58.4444 98.7 58.4444 98.6L58.4444 97.6C58.4444 93.4 54.9976 90.1 50.8411 90.1L26.2062 90.1"/>
	<path fill="#89C5E5" d="M71.2179 39.7477C71.2179 57.4977 56.6195 71.8978 38.5742 71.8978C37.2563 71.8978 35.9384 71.7977 34.6205 71.6977L32.9984 71.4977C17.6903 68.8978 5.9305 55.6977 5.9305 39.7477C5.9305 24.7978 16.2711 12.1978 30.3626 8.59775C32.9984 7.89775 35.7356 7.59775 38.6756 7.59775C40.1963 7.59775 41.7169 7.69775 43.2376 7.89775C58.9512 9.99775 71.2179 23.3978 71.2179 39.7477"/>
	<path fill="#2D1B0A" d="M38.4733 72.9001C37.0537 72.9001 35.6344 72.8001 34.3165 72.7001L32.6945 72.5001C16.4739 69.7 4.8153 55.9999 4.8153 39.7477C4.8153 24.6994 15.1559 11.4993 29.9572 7.69923C34.2151 6.5954 38.5744 6.29921 43.1365 6.89921C59.6612 9.19924 72.1313 23.2994 72.1313 39.7477C72.2322 57.9999 57.1267 72.9001 38.4733 72.9001M38.4733 8.49924C35.7358 8.49924 33.1 8.79924 30.4641 9.49925C16.5752 13.0993 6.84288 25.4995 6.84288 39.7477C6.84288 54.8998 17.8932 67.9 32.9986 70.5001L34.6207 70.7001C35.8372 70.9001 37.1551 70.9001 38.4733 70.9001C55.9102 70.9001 70.1032 56.8999 70.1032 39.7477C70.1032 24.1994 58.4447 10.8993 42.8323 8.79924C41.413 8.59924 39.9937 8.49924 38.4733 8.49924"/>
	<path fill="#99CC62" d="M63.618 19.7C63.4154 19.8 63.3139 19.9 63.3139 19.9C60.1712 22.1 57.0285 22.3 54.3927 21C50.4389 19 45.6742 21 44.3562 25.1C42.937 29.3 45.6742 33.7 50.0334 34.3C52.7706 34.7 55.0009 36.7 55.812 39.3C56.4202 41.3 56.7243 43.4 56.7243 45.4C56.7243 50 60.4753 53.7 65.1387 53.7L66.7607 53.7C69.4979 49.6 70.7146 44.7 70.7146 39.6C70.7146 32.2 68.0787 25.3 63.618 19.7"/>
	<path fill="#2D1B0A" d="M67.8733 55.4L66.5557 54.9L65.0354 54.9C59.765 54.9 55.6095 50.7 55.6095 45.6C55.6095 43.6 55.3055 41.6 54.7987 39.7C54.1906 37.4 52.1635 35.7 49.8324 35.4C47.3999 35 45.3728 33.7 44.1566 31.6C42.9688 29.6 42.6363 27.1 43.3457 24.8C44.0552 22.6 45.7782 20.8 48.008 19.9C50.2378 19 52.6703 19.1 54.7987 20.2C57.1298 21.4 59.8664 21.2 61.9948 19.7C62.7043 19.2 62.8056 19.1 63.0083 19L64.4273 19.2C69.1909 25.1 71.7248 32.3 71.7248 39.9C71.7248 45.1 70.5085 50 68.2787 54.6M51.15 21.3C50.3391 21.3 49.5283 21.5 48.8188 21.8C47.1972 22.5 45.8796 23.8 45.2715 25.5C44.6633 27.2 44.866 29.1 45.8796 30.6C46.7918 32.1 48.4134 33.2 50.1364 33.4C53.2784 33.9 55.8122 36.1 56.7244 39.1C57.3468 41.2 57.6366 43.3 57.6366 45.5C57.6366 49.5 60.9813 52.8 65.0354 52.8L66.7584 52.8C68.6841 48.7 69.6977 44.3 69.6977 39.7C69.6977 32.9 67.5693 26.4 63.4138 21C60.4745 23.1 56.9271 23.4 53.8865 21.9C53.0757 21.5 52.0621 21.3 51.15 21.3"/>
	<path fill="#99CC62" d="M7.04555 30.7L7.55244 32.9C8.16071 35.4 10.391 37.2 13.0268 37.2L24.584 41.1L22.1509 34.5C21.8468 33.5 21.6439 32.5 21.6439 31.5C21.6439 28.3 23.4688 25.3 26.4087 23.8L27.828 23.1C33.8093 20.1 38.1685 14.6 39.6893 8.2C39.1824 8.2 38.6754 8.2 38.27 8.2C23.5701 8.2 11.3034 17.7 7.04555 30.7"/>
	<path fill="#2D1B0A" d="M26.3074 42.7L12.9255 38.2C9.88416 38.1 7.34971 36.1 6.64007 33.1L6.0318 30.6C10.5938 16.4 23.4688 7.1 38.27 7.1C38.7769 7.1 39.2838 7.1 39.7907 7.1L41.0072 7.2L40.7031 8.4C39.081 15.1 34.519 20.8 28.2336 24L26.8143 24.7C24.1785 26 22.6578 28.6 22.6578 31.5C22.6578 32.4 22.8605 33.3 23.1647 34.1L26.3074 42.7M8.16074 30.8L8.56625 32.8C9.07314 34.9 10.8979 36.3 13.0269 36.3L22.9619 39.5L21.2385 34.9C20.833 33.8 20.6302 32.7 20.6302 31.6C20.6302 28 22.6578 24.7 25.9019 23L27.3212 22.3C32.6942 19.6 36.648 14.9 38.3714 9.3C24.584 9.2 12.4186 17.8 8.16074 30.8"/>
	<path fill="#99CC62" d="M24.4045 42.9205C22.1742 45.9205 22.6811 50.0205 25.621 52.4204L29.5748 55.6204L29.5748 60.8204L31.6024 66.4204L31.6024 69.4204C31.6024 69.9204 32.2106 70.1205 32.5148 69.8204L38.496 64.1205C40.1181 62.6204 41.2332 60.4204 41.1319 58.2205C41.0305 57.1204 41.943 56.2205 43.0581 56.2205C44.0718 56.2205 44.9843 55.4204 44.9843 54.3204L44.9843 47.9205C44.9843 47.2205 44.5788 46.5205 43.869 46.2205L36.7727 43.0205L33.8326 41.2205C30.7913 39.3205 26.6348 40.0205 24.4045 42.9205"/>
	<path fill="#2D1B0A" d="M32.0861 70.9C31.8833 70.9 31.6806 70.9 31.4778 70.8C30.8696 70.6002 30.5654 70.0007 30.5654 69.4011L30.5654 66.6033L28.5379 61.0076L28.5379 56.1114L24.9896 53.2137C21.6442 50.5157 21.0359 45.8194 23.6717 42.422C26.2062 39.2202 30.8696 38.2253 34.4178 40.4236L37.2564 42.2222L44.2515 45.4197C45.2652 45.9193 45.9749 46.9185 45.9749 48.0177L45.9749 54.4127C45.9749 56.0115 44.657 57.3105 43.0349 57.3105C42.8322 57.3105 42.528 57.4104 42.4267 57.6102C42.2239 57.8101 42.1225 58.0099 42.2239 58.2098C42.3253 60.508 41.3115 63.0061 39.2839 64.9046L33.3026 70.6002C32.8971 70.8 32.4916 70.9 32.0861 70.9M30.5654 60.6079L32.593 66.2036L32.593 68.302L37.8646 63.3058C39.3853 61.807 40.2977 59.9085 40.1963 58.2098C40.1963 57.4104 40.3991 56.7109 41.0074 56.1114C41.5143 55.5119 42.3253 55.2121 43.1363 55.2121C43.6432 55.2121 44.0487 54.8124 44.0487 54.3128L44.0487 47.9177C44.0487 47.618 43.8459 47.3182 43.5418 47.1184L36.344 43.8209L33.404 42.0223C30.7682 40.3236 27.2199 41.0231 25.2938 43.5212C23.3676 46.0192 23.7731 49.6164 26.3076 51.6149L30.5654 55.1122L30.5654 60.6079"/>
</svg>
