<?xml version="1.0" encoding="utf-8" ?>
<svg xmlns="http://www.w3.org/2000/svg" xmlns:xlink="http://www.w3.org/1999/xlink" width="96" height="96">
	<path fill="white" d="M48 96C46.0881 96 42.4654 95.6978 42.0629 95.5971L39.6478 95.1941C16.7044 91.1647 0 71.32 0 48C0 26.0902 14.6918 7.05142 35.8239 1.51102C39.7484 0.503673 43.8742 0 48 0C50.2138 0 52.4277 0.201469 54.7421 0.503673C66.1132 2.11542 76.478 7.75656 84.1258 16.4197C91.7736 25.1836 96 36.3652 96 48C96 74.4428 74.4654 96 48 96"/>
	<path fill="#89C5E5" d="M92.9813 48.2166C92.9813 73.0979 72.8555 93.1441 48 93.1441C46.1888 93.1441 44.2769 93.0434 42.4655 92.8419L40.2517 92.5397C19.1195 88.8125 3.01895 70.3782 3.01895 48.2166C3.01895 27.3645 17.3083 9.73596 36.5284 4.69923C40.1511 3.79262 43.975 3.28895 47.8995 3.28895C50.0126 3.28895 52.1259 3.49042 54.1385 3.69189C76.1762 6.71392 92.9813 25.4506 92.9813 48.2166"/>
	<path fill="#2D1B0A" d="M48 94.1868C46.1384 94.1868 44.2264 94.0861 42.4151 93.8846L40.1006 93.5824C18.0629 89.7548 2.0629 70.7172 2.0629 48.2166C2.0629 27.3034 16.151 9.07159 36.3774 3.733C42.1132 2.2463 48.151 1.81917 54.3899 2.72572C76.9308 5.84829 93.9371 25.4903 93.9371 48.2166C93.9371 73.5376 73.4088 94.1868 48 94.1868M48 4.23664C44.2264 4.23664 40.5032 4.74028 36.8805 5.64683C17.5598 10.6832 4.07548 28.2099 4.07548 48.2166C4.07548 69.6092 19.3711 87.8409 40.4025 91.4671L42.6164 91.7693C44.3271 91.9708 46.1384 92.0715 48 92.0715C72.2013 92.0715 91.9245 72.3288 91.9245 48.2166C91.9245 26.3968 75.7233 7.66139 54.0881 4.63955C52.0755 4.33737 50.0629 4.23664 48 4.23664"/>
	<path fill="#99CC62" d="M83.356 20.7514C83.1548 20.9528 82.9535 21.0536 82.9535 21.0536L81.9472 21.7587C78.6265 24.0756 74.2994 24.3778 70.6768 22.5646C65.3435 19.8447 58.9032 22.5646 56.9913 28.2057C55.0793 33.9476 58.8026 39.9916 64.7397 40.8983C68.463 41.5027 71.4818 44.2225 72.5888 47.849C73.3938 50.5687 73.7963 53.4901 73.7963 56.3106C73.7963 62.657 78.9284 67.7943 85.268 67.7943L87.4818 67.7943C91.3057 62.1533 93.0164 55.404 93.0164 48.3526C93.0164 37.977 89.3938 28.3064 83.356 20.7514"/>
	<path fill="#2D1B0A" d="M88.8572 69.4061L87.3483 68.8017L85.2359 68.8017C78.295 68.8017 72.7624 63.1606 72.7624 56.3106C72.7624 53.4901 72.36 50.7702 71.6559 48.1511C70.7505 44.9276 67.9339 42.4093 64.6144 41.9056C61.496 41.4019 58.78 39.5887 57.07 36.8689C55.5156 34.149 55.0581 30.8248 56.064 27.9035C57.07 24.8815 59.283 22.5646 62.2002 21.3558C65.1173 20.1469 68.3363 20.2477 71.1529 21.7587C74.4725 23.3704 78.295 23.169 81.3128 21.0535L82.3187 20.3484C82.3187 20.3484 82.5199 20.2477 82.7211 20.0462L84.1294 20.2477C90.5673 28.4072 93.9874 38.1784 93.9874 48.5541C93.9874 55.6055 92.3779 62.4554 89.2596 68.701M66.2239 22.4638C65.1173 22.4638 64.0108 22.6653 62.9043 23.169C60.5907 24.1763 58.6794 26.0903 57.8747 28.5079C57.07 30.9255 57.3717 33.6454 58.6794 35.8615C59.9871 38.0777 62.2002 39.5887 64.8156 39.9916C68.9399 40.596 72.2594 43.6181 73.4665 47.6475C74.2713 50.468 74.6736 53.3893 74.6736 56.4114C74.6736 62.254 79.4015 66.8878 85.1353 66.8878L87.5495 66.8878C90.4667 61.1459 91.875 55.0011 91.875 48.5541C91.875 38.8836 88.8572 29.8175 83.0228 22.2624C78.7979 25.1837 74.0701 25.5866 70.147 23.5719C68.9399 22.766 67.6322 22.4638 66.2239 22.4638"/>
	<path fill="#99CC62" d="M5.8363 33.1415L6.5407 36.0628C7.24511 39.387 10.264 41.8047 13.6854 41.8047L28.7797 46.9421L25.5596 38.1782C25.0564 36.8687 24.8552 35.5591 24.8552 34.2496C24.8552 29.918 27.2703 25.9893 31.0942 24.0754L32.9055 23.1688C40.7545 19.1394 46.3898 11.9872 48.503 3.4242C47.8992 3.4242 47.1948 3.4242 46.591 3.4242C27.4715 3.4242 11.3709 15.9159 5.8363 33.1415"/>
	<path fill="#2D1B0A" d="M30.4904 48.5539L13.4841 42.8121C9.66019 42.7113 6.33943 40.0922 5.5344 36.3651L4.83 33.1416C10.7671 14.6064 27.4715 2.3168 46.591 2.3168C47.1948 2.3168 47.8992 2.3168 48.503 2.3168L49.7105 2.41753L49.4086 3.62635C47.2954 12.491 41.4589 19.9453 33.308 24.0755L31.4967 24.9821C27.9747 26.7953 25.8614 30.321 25.8614 34.2496C25.8614 35.4585 26.0627 36.6673 26.4652 37.8761L30.4904 48.5539M6.94321 33.2423L7.54698 35.9621C8.15075 38.8834 10.7671 40.8981 13.6853 40.8981L27.1696 45.4312L24.6539 38.682C24.1508 37.2717 23.8489 35.8614 23.8489 34.3504C23.8489 29.7166 26.4652 25.385 30.591 23.2696L32.4023 22.363C39.6476 18.7365 44.8803 12.1888 47.0942 4.43222C28.8803 4.02929 12.5784 15.7145 6.94321 33.2423"/>
	<path fill="#99CC62" d="M28.0754 57.9223C25.459 61.3473 26.0628 66.1825 29.4842 68.9024L34.0125 72.6295L34.0125 78.6736L36.3269 85.2214L36.3269 88.7471C36.3269 89.3515 37.0313 89.6537 37.4339 89.2507L44.2766 82.6022C46.1886 80.789 47.3961 78.3714 47.2955 75.7523C47.1949 74.5434 48.2011 73.4353 49.5094 73.4353C50.7169 73.4353 51.7232 72.4281 51.7232 71.2193L51.7232 63.7649C51.7232 62.959 51.2201 62.1531 50.415 61.7502L42.2641 58.023L38.9433 55.9076C35.3206 53.6914 30.5911 54.6945 28.0754 57.9223"/>
	<path fill="#2D1B0A" d="M36.8301 90.4596C36.6289 90.4596 36.4276 90.4596 36.2264 90.3589C35.6226 90.0567 35.2201 89.4522 35.2201 88.8478L35.2201 85.5236L32.9056 78.9759L32.9056 73.234L28.7798 69.809C25.0565 66.787 24.3521 61.3473 27.2704 57.4187C30.088 53.5908 35.4213 52.6841 39.4465 55.2025L42.6666 57.3179L50.7169 61.0451C51.8238 61.5488 52.5282 62.6569 52.5282 63.9664L52.5282 71.4208C52.5282 73.1333 51.1194 74.6443 49.3081 74.6443C49.0062 74.6443 48.7043 74.745 48.5031 75.0472C48.3018 75.2487 48.2012 75.5509 48.2012 75.9538C48.3018 78.6736 47.0943 81.3935 44.8804 83.6096L38.0377 90.2581C37.7358 90.2581 37.3333 90.4596 36.8301 90.4596M34.9182 78.5729L37.2327 85.1207L37.2327 87.9412L43.4716 81.8972C45.283 80.0839 46.2893 77.8678 46.1886 75.8531C46.1886 74.9465 46.4905 74.1406 47.0943 73.5362C47.6981 72.9318 48.5031 72.5288 49.4088 72.5288C50.0125 72.5288 50.6163 72.0252 50.6163 71.32L50.6163 63.8657C50.6163 63.4627 50.3144 62.9591 49.9119 62.8583L41.6603 59.0304L38.3396 56.915C35.2201 54.9003 31.0943 55.7062 28.8805 58.6275C26.6666 61.6495 27.1698 65.8804 30.088 68.298L34.9182 72.3274L34.9182 78.5729"/>
</svg>
