<?xml version="1.0" encoding="utf-8" ?>
<svg xmlns="http://www.w3.org/2000/svg" xmlns:xlink="http://www.w3.org/1999/xlink" width="104" height="92">
	<path fill="white" d="M0 41.3848L20.517 0.202867L82.8766 0L104 41.1819L52.1516 92"/>
	<path fill="#FFD071" d="M22.3869 3.1444L81.0069 2.8401L100.311 40.4719L52.1012 87.6383L3.68905 40.5733"/>
	<path fill="#2D1B0A" d="M52.0001 89.0584L2.4258 40.7762L21.73 2.13007L81.6639 1.9272L101.574 40.6747L52.0001 89.0584M4.85146 40.3704L52.0001 86.2183L99.0478 40.269L80.4511 3.95587L23.0439 4.15873L4.85146 40.3704"/>
	<path fill="#FFD071" d="M22.4879 4.76733L34.1107 39.8633L51.8989 84.6968L69.9902 39.8633L81.1078 4.3616"/>
	<path fill="#2D1B0A" d="M51.7979 87.4355L33.1506 40.269L21.5277 5.07163L23.448 4.46303L35.0709 39.559L51.7979 81.9581L69.0301 39.4575L80.1477 4.0573L82.068 4.6659L70.9504 40.1676"/>
	<path fill="#FFD071" d="M34.6665 40.066L50.8375 3.14438C50.9387 2.91615 51.444 2.91615 51.5451 3.14438L68.929 40.1675"/>
	<path fill="#2D1B0A" d="M68.0193 40.6747L51.2418 4.86873L35.5761 40.5733L33.7569 39.7618L49.9279 2.84007C50.1301 2.3329 50.6354 2.0286 51.2418 2.0286C51.8483 2.0286 52.2525 2.3329 52.5557 2.84007L69.9396 39.8632L68.0193 40.6747"/>
	<path fill="#FFD071" d="M3.6878 40.5719L100.312 40.4719"/>
	<path fill="#2D1B0A" d="M3.6878 39.5182L100.312 39.3998L100.312 41.4285L3.6878 41.5468L3.6878 39.5182"/>
</svg>
