<?xml version="1.0" encoding="utf-8" ?>
<svg xmlns="http://www.w3.org/2000/svg" xmlns:xlink="http://www.w3.org/1999/xlink" width="98" height="98">
	<path fill="white" d="M14.0286 98C6.31288 98 0 91.7192 0 84.0427L0 26.6185C0 18.942 6.31288 12.6612 14.0286 12.6612L17.3354 12.6612L17.3354 8.57375C17.3354 4.38657 20.7423 1.09664 24.8507 1.09664L26.1534 1.09664C30.362 1.09664 33.6687 4.48627 33.6687 8.57375L33.6687 12.6612L62.8282 12.6612L62.8282 7.47711C62.8282 3.28993 66.2352 0 70.3436 0L71.6462 0C75.8548 0 79.1616 3.38962 79.1616 7.47711L79.1616 12.6612L83.9714 12.6612C91.6871 12.6612 98 18.942 98 26.6185L98 84.0427C98 91.7192 91.6871 98 83.9714 98L14.0286 98"/>
	<path fill="#F9F7F2" d="M84.1718 94.8098L14.0287 94.8098C7.91617 94.8098 3.00615 89.9247 3.00615 83.8434L3.00615 40.9745L95.1943 40.9745L95.1943 83.8434C95.1943 89.9247 90.2842 94.8098 84.1718 94.8098"/>
	<path fill="#2D1B0A" d="M84.1718 95.8067L14.0286 95.8067C7.41514 95.8067 2.0041 90.4232 2.0041 83.8433L2.0041 39.9776L96.1963 39.9776L96.1963 83.8433C96.1963 90.5229 90.7853 95.8067 84.1718 95.8067M4.00819 41.9715L4.00819 83.8433C4.00819 89.3265 8.51739 93.8128 14.0286 93.8128L84.1718 93.8128C89.683 93.8128 94.1922 89.3265 94.1922 83.8433L94.1922 41.9715L4.00819 41.9715"/>
	<path fill="#3E3938" d="M41.7853 62.9074C42.0859 63.2065 42.4867 63.4059 42.8875 63.4059C43.7894 63.4059 45.4928 62.4089 47.998 60.5147L47.998 73.9735C47.8978 74.5717 48.0982 75.2695 48.499 75.7681C48.8998 76.1669 49.4008 76.3661 50.0021 76.3661C51.405 76.3661 52.0061 75.3692 52.0061 73.3754L52.0061 56.4272C52.0061 55.8291 51.906 55.2309 51.5051 54.7324C51.2045 54.3336 50.7035 54.1343 50.2025 54.1343C49.9018 54.1343 49.6012 54.2339 49.3006 54.4333C48.8998 54.9318 48.5992 55.3306 48.1984 55.8291C46.9959 57.5239 45.2924 58.8199 43.3885 59.7172C42.7873 60.0162 42.2863 60.3153 41.6851 60.6144C41.3845 60.9135 41.1841 61.3123 41.1841 61.8107C41.1841 62.2095 41.4847 62.6083 41.7853 62.9074"/>
	<path fill="#EA5050" d="M95.1943 40.9745L3.00615 40.9745L3.00615 26.4191C3.00615 20.3377 7.91617 15.4527 14.0287 15.4527L84.1718 15.4527C90.2842 15.4527 95.1943 20.3377 95.1943 26.4191L95.1943 40.9745"/>
	<path fill="#2D1B0A" d="M96.1963 41.9715L2.0041 41.9715L2.0041 26.4191C2.0041 19.8392 7.41514 14.4557 14.0286 14.4557L84.1718 14.4557C90.7853 14.4557 96.1963 19.8392 96.1963 26.4191L96.1963 41.9715M4.00819 39.9776L94.1922 39.9776L94.1922 26.4191C94.1922 20.9359 89.683 16.4496 84.1718 16.4496L14.0286 16.4496C8.51739 16.4496 4.00819 20.9359 4.00819 26.4191L4.00819 39.9776"/>
	<path fill="#89C5E5" d="M26.2535 24.525L24.9509 24.525C22.4457 24.525 20.4417 22.531 20.4417 20.0387L20.4417 8.37442C20.4417 5.88205 22.4457 3.88815 24.9509 3.88815L26.2535 3.88815C28.7586 3.88815 30.7628 5.88205 30.7628 8.37442L30.7628 20.0387C30.7628 22.531 28.7586 24.525 26.2535 24.525"/>
	<path fill="#2D1B0A" d="M26.2535 25.5219L24.9508 25.5219C21.8445 25.5219 19.4396 23.0296 19.4396 20.0387L19.4396 8.37441C19.4396 5.28388 21.9447 2.8912 24.9508 2.8912L26.2535 2.8912C29.3598 2.8912 31.7648 5.38357 31.7648 8.37441L31.7648 20.0387C31.7648 23.0296 29.2596 25.5219 26.2535 25.5219M24.9508 4.7854C22.9468 4.7854 21.4437 6.38052 21.4437 8.27472L21.4437 19.939C21.4437 21.9329 23.047 23.4283 24.9508 23.4283L26.2535 23.4283C28.2576 23.4283 29.7607 21.8332 29.7607 19.939L29.7607 8.27472C29.7607 6.28082 28.1574 4.7854 26.2535 4.7854L24.9508 4.7854"/>
	<path fill="#89C5E5" d="M71.8477 23.4283L70.5451 23.4283C68.0399 23.4283 66.0359 21.4344 66.0359 18.9421L66.0359 7.27772C66.0359 4.78535 68.0399 2.79145 70.5451 2.79145L71.8477 2.79145C74.3528 2.79145 76.3604 4.78535 76.3604 7.27772L76.3604 18.9421C76.4572 21.4344 74.3528 23.4283 71.8477 23.4283"/>
	<path fill="#2D1B0A" d="M71.8481 24.4252L70.5452 24.4252C67.4381 24.4252 65.0327 21.9329 65.0327 18.942L65.0327 7.27771C65.0327 4.18718 67.5384 1.7945 70.5452 1.7945L71.8481 1.7945C74.9551 1.7945 77.3635 4.28687 77.3635 7.27771L77.3635 18.942C77.4608 21.9329 74.9551 24.4252 71.8481 24.4252M70.5452 3.6887C68.5406 3.6887 67.0372 5.28382 67.0372 7.17802L67.0372 18.8423C67.0372 20.8362 68.6409 22.3316 70.5452 22.3316L71.8481 22.3316C73.8527 22.3316 75.3561 20.7365 75.3561 18.8423L75.3561 7.17802C75.3561 5.18412 73.7524 3.6887 71.8481 3.6887L70.5452 3.6887"/>
</svg>
