<?xml version="1.0" encoding="utf-8" ?>
<svg xmlns="http://www.w3.org/2000/svg" xmlns:xlink="http://www.w3.org/1999/xlink" width="94" height="110">
	<path fill="white" d="M0.199787 106.908C0.199787 106.809 0.399575 104.615 0.79915 101.324C0.399575 100.426 0.299681 99.2294 0.79915 97.8332C0.998937 97.1351 1.29862 96.6364 1.69819 96.1378C4.39532 81.6772 9.19022 73.3001 15.7832 71.3055C20.678 69.9093 24.5739 69.5104 27.4708 69.1115C28.9692 68.9121 30.2678 68.8123 31.1668 68.6129C32.865 68.5131 33.7641 68.5131 34.5632 68.4134L34.5632 63.2276C29.6684 59.9365 25.7726 54.651 23.5749 48.1686C21.9766 47.4705 20.5781 46.1741 19.5792 44.379C17.7811 41.2874 17.881 37.7969 19.5792 35.8024C17.6812 35.1043 16.3826 33.4089 16.3826 31.4143C16.3826 29.6192 17.4814 27.9238 19.1796 27.126C19.3794 20.4442 21.577 3.88939 36.661 1.09701C40.5569 0.398912 44.0531 0 47.1498 0C55.5409 0 59.7365 2.4932 62.5335 4.18858C68.627 7.87851 71.3241 18.6491 72.3231 24.7325C74.0213 25.4306 75.22 26.9266 75.4198 28.7217C75.5197 30.1179 75.1201 31.3146 74.221 32.3119C73.6217 32.9102 72.9224 33.4089 72.0234 33.7081C73.4219 34.7053 74.221 36.301 74.3209 38.1958C74.4208 39.7915 73.9214 41.5866 73.0223 43.1822C71.8236 45.1768 70.1254 46.6727 68.3273 47.2711C67.2285 50.5621 65.83 53.4542 63.932 56.1469C62.5335 58.2412 60.8353 60.136 58.9373 61.6319L58.9373 68.1142C59.6366 68.1142 60.4357 68.214 61.2349 68.214C66.8289 68.8123 71.8236 69.311 78.2168 71.2058C90.9033 74.796 93.5005 103.518 93.7003 106.809L94 110L0 110L0.199787 106.908"/>
	<path fill="#F4C5AB" d="M27.4284 40.0259C28.7524 42.3154 28.6252 44.8634 27.1441 45.7171C25.663 46.5709 23.389 45.4069 22.0649 43.1174C20.7408 40.8279 20.8681 38.2799 22.3492 37.4262C23.8303 36.5724 26.1043 37.7364 27.4284 40.0259"/>
	<path fill="#2D1B0A" d="M26.0723 47.0717C25.4729 47.0717 24.7737 46.8722 24.0744 46.573C22.9756 45.9746 21.9767 44.9774 21.1775 43.6809C19.5792 40.8885 19.8789 37.7969 21.7769 36.6002C22.7758 36.0018 24.0744 36.1982 25.2732 36.6999C26.372 37.2983 27.3709 38.2956 28.1701 39.592C29.7684 42.3844 29.4687 45.476 27.5707 46.6727C27.1711 46.8722 26.6717 47.0717 26.0723 47.0717M23.4751 38.1959C23.2753 38.1959 23.0755 38.1959 22.8757 38.2956C21.9767 38.7942 21.8768 40.6891 22.9756 42.5839C23.4751 43.4814 24.2742 44.2793 25.0734 44.6782C25.4729 44.8776 26.1722 45.1768 26.6717 44.7779C27.5707 44.2793 27.6706 42.3844 26.5718 40.4896C26.0723 39.592 25.2732 38.7942 24.474 38.3953C24.2742 38.3953 23.8747 38.1959 23.4751 38.1959"/>
	<path fill="#F4C5AB" d="M70.081 36.5141C71.5621 37.3678 71.6894 39.9158 70.3653 42.2053C69.0412 44.4948 66.7672 45.6588 65.2861 44.805C63.805 43.9513 63.6777 41.4033 65.0018 39.1138C66.3259 36.8243 68.5999 35.6603 70.081 36.5141"/>
	<path fill="#2D1B0A" d="M66.4293 45.9747C65.8299 45.9747 65.3305 45.875 64.831 45.5758C62.8331 44.4787 62.5334 41.3872 64.2316 38.4951C65.8299 35.7027 68.6269 34.4062 70.6248 35.5032C72.6227 36.6002 72.9224 39.6918 71.2242 42.5839C70.1254 44.6782 68.2274 45.9747 66.4293 45.9747M65.9298 39.4923C64.831 41.3872 65.0308 43.282 65.8299 43.7806C66.729 44.2793 68.4272 43.4815 69.526 41.5866C70.6248 39.6918 70.425 37.797 69.6259 37.2983C68.8267 36.7997 67.1285 37.5975 65.9298 39.4923"/>
	<path fill="#F4C5AB" d="M37.4602 53.3545L55.9405 53.3545L55.9405 79.5829L37.4602 79.5829L37.4602 53.3545"/>
	<path fill="#2D1B0A" d="M56.9394 80.5802L36.4612 80.5802L36.4612 52.3572L56.9394 52.3572L56.9394 80.5802M38.4591 78.5857L54.9415 78.5857L54.9415 54.3518L38.4591 54.3518L38.4591 78.5857"/>
	<path fill="#7A7C47" d="M77.2678 74.3971C70.9744 72.5022 65.8799 72.0036 60.9851 71.505C59.3868 71.3055 57.9883 71.3055 56.6896 71.3055C56.6896 71.3055 56.6896 71.4052 56.6896 71.4052C56.6896 74.6963 52.2943 77.3889 46.9001 77.3889C41.6057 77.3889 37.3103 74.796 37.2104 71.6047C35.6121 71.7044 33.814 71.7044 31.916 71.7044C29.0191 72.5022 23.9245 72.3028 16.6323 74.3971C5.34427 77.8876 3.2465 107.407 3.2465 107.407L57.0892 107.407L90.7534 107.407C90.6535 107.407 88.356 77.4886 77.2678 74.3971"/>
	<path fill="#2D1B0A" d="M2.1976 108.404L2.1976 107.307C2.39739 106.11 4.59505 77.0897 16.3825 73.4995C21.0775 72.1033 24.8735 71.7044 27.6705 71.4052C29.3687 71.2057 30.6673 71.106 31.6663 70.8068C33.8639 70.8068 35.5621 70.7071 37.1604 70.7071L38.2592 71.7044C38.3591 74.397 42.3549 76.591 46.9999 76.591C51.7449 76.591 55.7406 74.2973 55.7406 71.6046C55.7406 71.6046 55.7406 71.6046 55.7406 71.5049L55.7406 70.4079L56.8395 70.4079C58.1381 70.5076 59.6365 70.5076 61.1349 70.6074C66.5292 71.2057 71.424 71.7044 77.6174 73.5992C89.205 76.8902 91.6025 106.21 91.7024 107.407L91.8023 108.504L2.1976 108.404M32.0658 72.8014C30.967 73.1006 29.5685 73.2003 27.8703 73.3997C24.9734 73.6989 21.3772 74.0978 16.882 75.3943C7.59186 78.2864 4.79484 101.124 4.29537 106.41L89.6046 106.41C89.1051 101.124 86.2082 77.9872 77.018 75.3943C71.0244 73.5992 66.2295 73.1006 61.5345 72.6019C59.7364 72.4025 58.6376 72.4025 57.6386 72.3027C56.9394 75.7932 52.544 78.3861 46.9999 78.3861C41.6556 78.3861 37.2603 75.8929 36.3613 72.6019C35.0626 72.7016 33.6641 72.7016 32.0658 72.8014"/>
	<path fill="#FAD1B6" d="M67.1286 36.301C67.1286 51.2823 57.6918 63.427 46.051 63.427C34.4101 63.427 24.9734 51.2823 24.9734 36.301C24.9734 21.3197 34.4101 9.175 46.051 9.175C57.6918 9.175 67.1286 21.3197 67.1286 36.301"/>
	<path fill="#2D1B0A" d="M46.051 64.4243C33.864 64.4243 23.9745 51.8586 23.9745 36.301C23.9745 20.8432 33.864 8.1777 46.051 8.1777C58.238 8.1777 68.1275 20.7434 68.1275 36.301C68.1275 51.7588 58.238 64.4243 46.051 64.4243M46.051 10.1723C34.9628 10.1723 25.9724 21.9402 25.9724 36.301C25.9724 50.6618 34.9628 62.4297 46.051 62.4297C57.1392 62.4297 66.1297 50.6618 66.1297 36.301C66.1297 21.9402 57.1392 10.1723 46.051 10.1723"/>
	<path fill="#514037" d="M45.8512 60.2357C34.3634 60.2357 24.9734 48.2683 24.7736 33.5086C24.6737 34.6056 24.5738 35.7026 24.5738 36.8993C24.5738 51.8586 33.9638 64.0254 45.6514 64.0254C57.239 64.0254 66.729 51.8586 66.729 36.8993C66.729 36.7996 66.729 36.6999 66.729 36.5004C65.4303 49.864 56.5398 60.2357 45.8512 60.2357"/>
	<path fill="#84844D" d="M22.1521 30.0181C22.1521 30.0181 20.8778 7.37987 37.2603 4.38803C51.7449 1.69537 57.2391 4.88667 61.035 7.18041C67.8279 11.2693 69.7258 28.1233 69.7258 28.1233C69.7258 28.1233 56.34 26.5276 45.9389 26.5276C35.5621 26.5276 22.1521 30.0181 22.1521 30.0181"/>
	<path fill="#2D1B0A" d="M21.1601 31.2149L21.042 30.0182C21.042 29.8187 19.861 6.48235 36.9488 3.29106C52.0381 0.49867 57.734 3.98915 61.4314 6.18317C68.5263 10.4715 70.5249 27.1261 70.6248 27.9239L70.7248 29.2203L69.4257 29.0209C69.3257 29.0209 56.0352 27.4252 45.7426 27.4252C35.5498 27.4252 22.3592 30.9157 22.1594 30.9157M47.1416 4.28834C44.4435 4.28834 41.2458 4.58752 37.4485 5.28562C24.2579 7.67909 23.1587 24.0345 23.1587 28.7217C26.7561 27.8241 37.2486 25.4307 45.9424 25.4307C54.4364 25.4307 65.0288 26.5277 68.6262 26.9266C68.0267 23.0372 65.8282 11.0698 60.532 7.97827C57.9339 6.38262 54.4364 4.28834 47.1416 4.28834"/>
	<path fill="#66602E" d="M19.3794 31.6138C19.3794 30.9157 19.779 30.3173 20.4782 30.0181C23.9745 28.4225 35.1626 24.7306 45.4517 24.7306C55.441 24.8323 67.3284 26.7271 71.1244 27.7244C71.9235 27.9238 72.423 28.5222 72.5287 29.2203C72.6228 30.5168 71.424 31.4143 70.1254 31.1151C64.3316 29.9184 50.4464 28.3227 44.9522 28.4225C37.7598 28.6219 26.9713 31.2149 22.0765 33.1097C20.7779 33.7081 19.3794 32.9102 19.3794 31.6138"/>
	<path fill="#2D1B0A" d="M21.278 34.4062C20.6785 34.4062 20.0791 34.2067 19.4796 33.9075C18.6803 33.4089 18.2806 32.6111 18.2806 31.7135C18.2806 30.7162 18.98 29.719 19.9791 29.2203C23.1764 27.8241 34.5666 23.8332 45.3573 23.8332C55.4487 23.9347 67.4384 25.8295 71.335 26.9266C72.534 27.2257 73.3333 28.223 73.4485 29.32C73.5331 30.2176 73.1335 31.0154 72.534 31.6138C71.8346 32.2122 70.8355 32.5113 69.8363 32.3119C64.341 31.2149 50.353 29.5195 44.9577 29.6192C37.8638 29.8187 27.173 32.4116 22.3771 34.2067C22.0773 34.3064 21.6777 34.4062 21.278 34.4062M45.0576 25.8295C35.4658 25.8295 24.6751 29.32 20.7785 31.0154C20.4787 31.1151 20.2789 31.4143 20.2789 31.6138C20.2789 31.913 20.4787 32.1124 20.5786 32.2122C20.7785 32.4116 21.1781 32.5113 21.5778 32.3119C26.5735 30.417 37.3642 27.8241 44.7579 27.6247C50.453 27.4252 64.341 29.2203 70.1361 30.3173C70.4358 30.417 70.8355 30.3173 71.0353 30.1179C71.1352 30.0181 71.335 29.8187 71.2351 29.6192C71.2351 29.2203 70.9354 28.9211 70.6356 28.8214C66.8389 27.8241 55.1489 25.9293 45.1575 25.8295C45.2574 25.8295 45.1575 25.8295 45.0576 25.8295"/>
	<path fill="#3E3B18" d="M29.3688 15.6573C29.0691 13.8622 31.6663 11.4687 33.5643 11.5685C37.5601 11.7679 41.2561 11.6682 44.6525 11.7679C49.847 11.8676 57.4389 11.1695 59.4368 11.333C60.4357 11.4687 61.3348 13.4633 62.034 16.3554C62.8332 19.3472 62.1339 22.5386 58.9373 22.8378L47.949 22.2394L45.4517 16.854L43.4538 22.2394L31.6663 22.738C30.2678 22.6383 29.0691 21.641 29.0691 20.2448L29.3688 15.6573"/>
	<path fill="#2D1B0A" d="M59.1302 23.3364L47.7449 22.738L45.6476 18.1505L43.9498 22.738L31.8654 23.2366C30.1676 23.1369 28.7694 21.9402 28.7694 20.3445L28.9691 15.6573C28.8693 14.7597 29.2688 13.7625 30.0677 12.8649C31.0664 11.7679 32.4646 11.0698 33.6631 11.0698C36.1599 11.1695 38.5568 11.1695 40.8538 11.1695C42.1521 11.1695 43.5503 11.1695 44.7488 11.1695C47.3454 11.2693 50.6411 11.0698 53.4375 10.8704C56.2339 10.6853 58.6308 10.5712 59.6295 10.6853C60.828 10.8704 61.8267 12.6655 62.6257 16.1559C63.125 18.35 62.8932 20.3445 62.0264 21.641C61.3273 22.6383 60.3286 23.2366 59.1302 23.3364M48.444 21.7407L59.1302 22.3391C60.029 22.2394 60.7281 21.8405 61.2275 21.1424C61.9266 20.0453 62.1263 18.35 61.6269 16.4551C60.6282 12.2665 59.7294 11.8676 59.4298 11.8676C58.4311 11.7679 56.134 11.8676 53.4375 11.9674C50.5413 12.0671 47.3454 12.2665 44.6489 12.2665C43.3506 12.2665 42.0522 12.2665 40.7539 12.2665C38.4569 12.2665 36.06 12.2665 33.5632 12.1668C32.7642 12.1668 31.5658 12.6655 30.7668 13.6627C30.1676 14.3608 29.7681 15.1587 29.868 15.757L29.6682 20.4442C29.7681 21.4415 30.667 22.3391 31.8654 22.3391L43.2507 21.8405L45.5477 15.6573L48.444 21.7407"/>
	<path fill="#3F3E1C" d="M18.4804 84.5694C18.4804 83.2729 20.5781 83.7547 21.0776 84.3699C21.5771 84.9683 22.6759 83.5721 22.9756 84.8685C23.2752 86.165 21.0776 89.0571 18.9798 88.2593C16.882 87.4615 14.4846 88.2593 15.2838 85.8658C16.0829 83.4724 16.5824 86.0653 17.3815 85.5666C18.1807 85.068 18.4804 84.5694 18.4804 84.5694"/>
	<path fill="#93935D" d="M6.89266 97.7335C6.89266 96.437 8.99043 96.9188 9.4899 97.534C9.98937 98.1324 11.0882 96.7362 11.3879 98.0326C11.6876 99.3291 9.4899 102.221 7.39213 101.423C5.29436 100.626 2.89691 101.423 3.69606 99.0299C4.49521 96.6365 4.99468 99.2294 5.79383 98.7307C6.59298 98.2321 6.89266 97.7335 6.89266 97.7335"/>
	<path fill="#727238" d="M24.5739 92.7471C24.5739 91.4506 26.6716 91.9324 27.1711 92.5476C27.6706 93.146 28.7694 91.7498 29.0691 93.0462C29.3688 94.3427 27.1711 97.2348 25.0733 96.437C22.9755 95.6392 20.5781 96.437 21.3773 94.0435C22.1764 91.65 22.6759 94.243 23.475 93.7443C24.2742 93.2457 24.5739 92.7471 24.5739 92.7471"/>
	<path fill="#3F3E1C" d="M78.5164 94.1433C78.5164 92.8468 80.6142 93.3286 81.1137 93.9438C81.6132 94.5422 82.712 93.146 83.0117 94.4424C83.3113 95.7389 81.1137 98.631 79.0159 97.8332C76.9182 97.0354 74.5207 97.8332 75.3199 95.4397C76.119 93.0462 76.6185 95.6392 77.4176 95.1405C78.1169 94.7416 78.5164 94.1433 78.5164 94.1433"/>
	<path fill="#93935D" d="M38.459 94.7417C38.459 93.4452 40.5568 93.927 41.0563 94.5422C41.5558 95.1406 42.6546 93.7444 42.9543 95.0408C43.2539 96.3373 41.0563 99.2294 38.9585 98.4316C36.8607 97.6338 34.4633 98.4316 35.2625 96.0381C36.0616 93.6446 36.5611 96.2376 37.3602 95.7389C38.1594 95.2403 38.459 94.7417 38.459 94.7417"/>
	<path fill="#727238" d="M41.2561 81.8767C41.2561 80.5802 43.3539 81.062 43.8534 81.6772C44.3529 82.2756 45.4517 80.8794 45.7514 82.1758C46.051 83.4723 43.8534 86.3644 41.7556 85.5666C39.6578 84.7688 37.2604 85.5666 38.0596 83.1731C38.8587 80.7796 39.3582 83.3726 40.1573 82.8739C40.8566 82.3753 41.2561 81.8767 41.2561 81.8767"/>
	<path fill="#3F3E1C" d="M53.643 92.4479C53.643 91.1514 55.7407 91.6332 56.2402 92.2484C56.7397 92.8468 57.8385 91.4506 58.1382 92.747C58.4379 94.0435 56.2402 96.9356 54.1424 96.1378C52.0447 95.34 49.6472 96.1378 50.4464 93.7443C51.2455 91.3508 51.745 93.9438 52.5441 93.4451C53.2434 92.9465 53.643 92.4479 53.643 92.4479"/>
	<path fill="#93935D" d="M67.0286 95.8387C67.0286 94.5422 69.1264 95.024 69.6259 95.6392C70.1254 96.2376 71.2242 94.8414 71.5239 96.1378C71.8235 97.4343 69.6259 100.326 67.5281 99.5286C65.4304 98.7308 63.0329 99.5286 63.8321 97.1351C64.6312 94.7416 65.1307 97.3346 65.9298 96.8359C66.729 96.3373 67.0286 95.8387 67.0286 95.8387"/>
	<path fill="#727238" d="M74.221 83.0735C74.221 81.777 76.3188 82.2588 76.8183 82.874C77.3178 83.4724 78.4166 82.0762 78.7163 83.3726C79.0159 84.6691 76.8183 87.5612 74.7205 86.7634C72.6227 85.9656 70.2253 86.7634 71.0245 84.3699C71.8236 81.9764 72.3231 84.5694 73.1222 84.0707C73.8215 83.6718 74.221 83.0735 74.221 83.0735"/>
	<path fill="#3F3E1C" d="M25.2987 107.408L69.1468 107.408L68.6473 73.0997L59.7568 72.5013L59.7568 95.7379L32.6856 95.7379L32.6856 72.9003L25.693 72.9003C25.5931 72.7008 25.0936 107.705 25.2987 107.408"/>
	<path fill="#2D1B0A" d="M25.7011 108.504C24.2915 108.005 24.2915 108.005 24.4025 90.0544C24.5024 81.3781 24.6023 72.8015 24.6023 72.8015L33.5927 71.8042L33.5927 94.6419L58.666 94.6419L58.666 71.4053L69.5545 72.2031L70.1538 108.404L25.9009 108.404M26.3005 106.41L68.0561 106.41L67.5566 73.9982L60.6639 73.4996L60.6639 96.6365L31.5948 96.6365L31.5948 73.7988L26.6002 73.7988C26.4004 85.6664 26.2006 102.421 26.3005 106.41"/>
	<path fill="#351F21" d="M58.6712 38.3878C58.7972 39.1486 57.7963 39.9475 56.4355 40.1722C55.0748 40.3969 53.8695 39.9624 53.7327 39.2016C53.6174 38.4408 54.6183 37.6419 55.9791 37.358C57.3398 37.1925 58.5451 37.627 58.6712 38.3878"/>
	<path fill="#351F21" d="M38.3466 37.3461C39.7647 37.6159 40.8201 38.4085 40.7039 39.1708C40.5878 39.9331 39.344 40.3765 37.926 40.1611C36.5079 39.9457 35.4525 39.1531 35.5599 38.3908C35.6848 37.6285 36.9286 37.1852 38.3466 37.3461"/>
	<path fill="#351F21" d="M52.4442 34.5059C52.7438 33.6083 53.543 33.5086 54.2422 33.4088C55.2412 33.3091 56.2401 33.1497 57.2391 33.1497C58.238 33.1497 59.2369 33.1497 60.2359 33.4088C60.9351 33.6083 61.6344 34.0072 62.3336 34.5059"/>
	<path fill="#351F21" d="M42.3549 34.4062C42.0553 33.5086 41.2561 33.4089 40.5569 33.3091C39.5579 33.2094 38.559 33.05 37.56 33.05C36.5611 33.05 35.5622 33.05 34.5632 33.3091C33.864 33.5086 33.1647 33.9075 32.4655 34.4062"/>
	<path fill="#9B6464" d="M42.2551 50.8613C42.2551 50.8613 42.4548 51.5594 42.2551 51.6591C42.2551 51.6591 43.1541 53.2547 47.5494 53.2547C47.5494 53.2547 51.4453 52.8558 52.3444 51.6591C52.3444 51.6591 52.1445 50.8613 52.1445 50.8613C52.0446 50.8613 47.5494 53.0553 42.2551 50.8613"/>
</svg>
