<?xml version="1.0" encoding="utf-8" ?>
<svg xmlns="http://www.w3.org/2000/svg" xmlns:xlink="http://www.w3.org/1999/xlink" width="94" height="80">
	<path fill="white" d="M8.46398 80C3.18644 80 0 76.5872 0 71.1669L0 8.83312C0 3.31242 3.28602 0 8.46398 0L85.4364 0C89.4195 0 92.3072 2.00753 93.4025 5.42033C93.8008 6.52447 94 7.52823 94 8.53199L93.9004 71.1669C93.9004 76.6876 90.6144 80 85.4364 80L8.46398 80"/>
	<path fill="#7FCCD1" d="M8.51588 4.41665L85.4883 4.41665C88.4756 4.41665 89.9692 6.02267 89.9692 9.23472L89.9692 71.1669C89.9692 74.3791 88.4756 75.985 85.4883 75.985L8.51588 75.985C5.52859 75.985 4.03055 74.3791 4.03055 71.1669L4.03055 9.23472C4.03055 6.02267 5.52859 4.41665 8.51588 4.41665"/>
	<path fill="#2D1B0A" d="M85.4863 76.9888L8.51379 76.9888C4.92905 76.9888 3.0371 74.8809 3.0371 71.167L3.0371 9.23473C3.0371 5.5208 5.02863 3.4129 8.51379 3.4129L85.4863 3.4129C89.071 3.4129 90.9629 5.5208 90.9629 9.23473L90.9629 71.167C90.9629 74.8809 89.071 76.9888 85.4863 76.9888M8.51379 5.42043C6.02439 5.42043 5.02863 6.52457 5.02863 9.23473L5.02863 71.167C5.02863 73.8771 6.12396 74.9813 8.51379 74.9813L85.4863 74.9813C87.9757 74.9813 88.9714 73.8771 88.9714 71.167L88.9714 9.23473C88.9714 6.52457 87.8761 5.42043 85.4863 5.42043L8.51379 5.42043"/>
	<path fill="#7FCCD1" d="M46.9006 30.6399C47.0001 30.6399 47.0997 30.6399 47.1993 30.6399L68.0107 53.1117L88.2247 74.7804C88.4239 75.0816 88.3283 75.5834 88.0256 75.5834L46.9006 75.5834L5.77556 75.5834C5.4728 75.5834 5.4728 74.9812 5.57641 74.7804L25.7904 53.1117L46.9006 30.6399"/>
	<path fill="#2D1B0A" d="M88.2245 76.5873L6.06421 76.5873C5.56627 76.5873 5.16791 76.2861 4.86915 75.7843C4.57038 75.182 4.7253 74.4794 5.16791 74.0779L46.2979 30.0126C46.7958 29.5107 47.5925 29.5107 48.0905 30.0126L89.2204 74.0779C89.6188 74.4794 89.7184 75.182 89.5192 75.7843C89.1208 76.2861 88.7225 76.5873 88.2245 76.5873M7.35886 74.5797L86.8303 74.5797L47.172 32.0201L7.35886 74.5797"/>
	<path fill="#7FCCD1" d="M89.32 12.0452L47.7966 43.8644L4.18225 12.0452L4.18225 7.82936C4.18225 5.5207 6.0742 3.61355 8.36445 3.61355L85.2374 3.61355C87.5275 3.61355 89.4195 5.5207 89.4195 7.82936L89.4195 12.0452"/>
	<path fill="#2D1B0A" d="M47.7966 45.069L3.1864 12.5471L3.1864 7.82937C3.1864 4.91846 5.47665 2.6098 8.36437 2.6098L85.2372 2.6098C88.125 2.6098 90.4152 4.91846 90.4152 7.82937L90.4152 12.5471L47.7966 45.069M5.17793 11.5433L47.7966 42.66L88.3241 11.5433L88.3241 7.82937C88.3241 6.0226 86.93 4.61733 85.1377 4.61733L8.26479 4.61733C6.57199 4.61733 5.07835 6.0226 5.07835 7.82937L5.07835 11.5433"/>
	<path fill="#FFD071" d="M49.3899 36.2359C49.3899 37.511 48.3645 38.5446 47.0996 38.5446C45.8347 38.5446 44.8094 37.511 44.8094 36.2359C44.8094 34.9609 45.8347 33.9273 47.0996 33.9273C48.3645 33.9273 49.3899 34.9609 49.3899 36.2359"/>
	<path fill="#2D1B0A" d="M47.0996 39.6487C45.3072 39.6487 43.8136 38.1431 43.8136 36.3363C43.8136 34.5295 45.3072 33.0239 47.0996 33.0239C48.892 33.0239 50.3856 34.5295 50.3856 36.3363C50.3856 38.1431 48.9916 39.6487 47.0996 39.6487M47.0996 34.931C46.4026 34.931 45.8051 35.5333 45.8051 36.2359C45.8051 36.9386 46.4026 37.5408 47.0996 37.5408C47.7966 37.5408 48.3941 36.9386 48.3941 36.2359C48.3941 35.5333 47.8962 34.931 47.0996 34.931"/>
</svg>
