<?xml version="1.0" encoding="utf-8" ?>
<svg xmlns="http://www.w3.org/2000/svg" xmlns:xlink="http://www.w3.org/1999/xlink" width="94" height="90">
	<path fill="white" d="M20.6561 89.798C14.2696 89.798 9.08068 84.5455 9.08068 78.0808L9.08068 52.1212L7.88323 51.6162C2.99363 49.3939 0 45 0 40.303L6.98514 10.303C8.38217 4.24242 13.9703 0.10101 20.4565 0.10101L73.4437 0C80.0297 0 85.518 4.24242 87.0149 10.202L94 39.798C94 44.3434 91.8047 48.1818 88.1125 50.6061L87.2144 78.2828C87.2144 84.7475 82.0255 90 75.6391 90L20.6561 90"/>
	<path fill="#EA5050" d="M20.5564 86.4646C15.7666 86.4646 11.9747 82.5252 11.9747 77.7778L11.9747 39.1919L84.1212 39.1919L84.1212 77.7778C84.1212 82.6262 80.2295 86.4646 75.5395 86.4646L20.5564 86.4646"/>
	<path fill="#2D1B0A" d="M83.1233 40.202L83.1233 77.7778C83.1233 82.0202 79.7305 85.4545 75.5394 85.4545L20.6562 85.4545C16.4651 85.4545 13.0723 82.0202 13.0723 77.7778L13.0723 40.202L83.1233 40.202M85.1191 38.1818L83.1233 38.1818L12.9725 38.1818L10.9768 38.1818L10.9768 40.202L10.9768 77.7778C10.9768 83.1313 15.2677 87.4747 20.5564 87.4747L75.4396 87.4747C80.7284 87.4747 85.0193 83.1313 85.0193 77.7778L85.0193 40.202L85.0193 38.1818"/>
	<path fill="#89C5E5" d="M21.8535 57.7778C21.8535 57.3737 22.2527 56.9697 22.8514 56.9697L33.9278 56.9697C34.4267 56.9697 34.9257 57.3737 34.9257 57.7778L34.9257 67.0707L21.8535 67.0707L21.8535 57.7778"/>
	<path fill="#2D1B0A" d="M35.8237 68.0808L20.7558 68.0808L20.7558 57.7778C20.7558 56.7677 21.6539 55.9596 22.7516 55.9596L33.828 55.9596C34.9258 55.9596 35.8237 56.7677 35.8237 57.7778L35.8237 68.0808M22.8514 66.0606L33.9278 66.0606L33.9278 57.9798L22.8514 57.9798L22.8514 66.0606"/>
	<path fill="#2D1B0A" d="M37.4203 73.5353C37.4203 74.1414 36.8216 74.6464 36.0233 74.6464L20.0573 74.6464C19.3588 74.6464 18.6602 74.1414 18.6602 73.5353C18.6602 72.7272 19.259 72.2222 20.0573 72.2222L36.0233 72.2222C36.7218 72.2222 37.4203 72.7272 37.4203 73.3333"/>
	<path fill="#FFE7DC" d="M73.3439 85.1515L56.5796 85.1515L56.5796 68.7878C56.5796 65.3535 59.3737 62.5252 62.7665 62.5252L67.1571 62.5252C70.5499 62.5252 73.3439 65.3535 73.3439 68.7878L73.3439 85.1515"/>
	<path fill="#2D1B0A" d="M74.3419 86.1616L55.5817 86.1616L55.5817 68.7878C55.5817 64.7474 58.775 61.5151 62.7665 61.5151L67.1572 61.5151C71.1487 61.5151 74.3419 64.7474 74.3419 68.7878L74.3419 86.1616M57.5775 84.1414L72.346 84.1414L72.346 68.7878C72.346 65.8585 69.9511 63.5353 67.1572 63.5353L62.7665 63.5353C59.8726 63.5353 57.5775 65.9595 57.5775 68.7878L57.5775 84.1414"/>
	<path fill="#FFD071" d="M89.9086 39.7978L83.0232 10.7069C82.0254 6.5655 78.034 3.5352 73.3438 3.5352L20.3566 3.63621C15.7663 3.63621 11.7749 6.66651 10.777 10.8079L3.89165 39.8988C3.89165 44.7473 8.78125 48.6867 14.569 48.6867C20.4564 48.6867 25.2463 44.7473 25.2463 39.8988L27.2419 13.6362L25.346 39.8988C25.346 44.7473 30.2355 48.6867 36.0233 48.6867C41.9108 48.6867 46.7006 44.7473 46.7006 39.8988L46.7006 13.9392L46.8004 39.8988C46.8004 44.7473 51.69 48.6867 57.4776 48.6867C63.3652 48.6867 68.1549 44.7473 68.1549 39.8988L65.5604 13.4342L68.1549 39.8988C68.1549 44.7473 73.0445 48.6867 78.8322 48.6867C85.0191 48.6867 89.9086 44.6463 89.9086 39.7978"/>
	<path fill="#2D1B0A" d="M79.1315 49.697C74.3417 49.697 70.2504 47.2728 68.3544 43.7374C66.5582 47.2728 62.4669 49.697 57.6771 49.697C52.8873 49.697 48.6962 47.1718 46.9001 43.7374C45.1039 47.2728 40.9128 49.697 36.123 49.697C31.3332 49.697 27.1421 47.2728 25.3459 43.7374C23.5498 47.2728 19.3587 49.697 14.5689 49.697C8.18245 49.697 2.8937 45.3536 2.8937 39.899L9.77905 10.6061C10.8767 5.95963 15.2674 2.72731 20.3565 2.72731L73.3438 2.6263C78.3332 2.6263 82.9234 5.95963 84.0211 10.5051L90.9064 39.899C90.9064 45.2526 85.6177 49.697 79.1315 49.697M66.8576 13.3334L69.4521 39.798C69.4521 44.1415 73.8427 47.6768 79.1315 47.6768C84.4202 47.6768 88.8109 44.2425 88.8109 40L81.9255 11.0101C81.0275 7.27276 77.4351 4.6465 73.244 4.6465L20.2568 4.74751C16.1655 4.74751 12.4733 7.47478 11.5752 11.1111L4.68988 40C4.78967 44.2425 9.08054 47.6768 14.3693 47.6768C19.7578 47.6768 24.0487 44.1415 24.0487 39.899L26.0444 13.5354L28.0402 13.7374L26.1442 40C26.1442 44.2425 30.5349 47.6768 35.8236 47.6768C41.2122 47.6768 45.503 44.1415 45.503 39.899L45.503 13.9394L47.4988 13.9394L47.5986 39.899C47.5986 44.1415 51.9892 47.6768 57.278 47.6768C62.6665 47.6768 66.9574 44.1415 66.9574 39.899L64.3629 13.5354L66.8576 13.3334"/>
</svg>
