<?xml version="1.0" encoding="utf-8" ?>
<svg xmlns="http://www.w3.org/2000/svg" xmlns:xlink="http://www.w3.org/1999/xlink" width="84" height="86">
	<path fill="white" d="M62.3076 86L57.9296 79.0188L55.7407 79.8282C51.4622 81.3459 46.9846 82.1553 42.3083 82.1553C37.5322 82.1553 32.7564 81.2447 28.2789 79.5247L25.9904 78.7153L21.4134 86L2.40905 86L14.8464 71.3294L12.9559 69.3059C5.89152 61.7176 1.91156 51.7012 1.91156 41.1788C1.91156 36.9294 2.60805 32.68 3.80204 28.6329L4.29954 27.1153L3.30454 25.8C0.916564 22.7647 -0.277426 18.7176 0.04515 14.7718C0.817065 7.58824 6.68752 1.61882 13.752 1.01176C14.2494 1.01176 14.6474 0.910588 15.1449 0.910588C18.0305 0.910588 20.8165 1.72 23.2044 3.33882L24.5974 4.24941L26.0899 3.54118C31.2639 1.21412 36.7363 0 42.4077 0C48.0792 0 53.4522 1.11294 58.626 3.44L60.0191 4.04706L61.3125 3.23765C63.6011 1.82118 66.2876 1.11294 68.9741 1.11294C69.4715 1.11294 69.8696 1.11294 70.2674 1.21412C77.3319 1.82118 83.2024 7.79059 83.9547 14.9741C84.1973 18.7176 83.3018 22.4612 81.113 25.3953L80.2175 26.6094L80.715 28.1271C82.1079 32.2753 82.8044 36.6259 82.8044 40.9765C82.8044 51.8024 78.725 61.92 71.362 69.6094L69.4715 71.6329L81.5109 85.8988L62.3076 85.8988"/>
	<path fill="#FFD071" d="M69.8762 4.4087C75.5477 4.95761 80.2241 9.7129 80.8211 15.48C81.2191 19.6282 79.5276 23.5741 76.3437 26.2047C73.4582 18.4141 67.6872 11.7364 60.3243 7.9929C62.8118 5.46349 66.2943 4.14819 69.8762 4.4087"/>
	<path fill="#2D1B0A" d="M75.9457 27.808L75.4482 26.4927C72.6622 18.9044 66.9907 12.4291 59.9263 8.78678L58.7323 8.17973L59.7273 7.16796C62.4138 4.4362 66.1947 3.01973 70.0752 3.2828C76.2442 3.82914 81.3186 8.98914 81.9156 15.2621C82.3136 19.7138 80.5226 24.0644 77.1396 26.8974L75.9457 27.808M62.1153 7.77502C68.5827 11.5185 73.8562 17.488 76.8412 24.4691C79.0301 22.1421 80.2241 18.9044 79.9256 15.5454C79.4281 10.3044 75.1497 5.95384 69.8762 5.44796C66.9907 5.24561 64.3043 6.05502 62.1153 7.77502"/>
	<path fill="#FFD071" d="M3.05495 15.1765C3.60983 9.40946 8.38579 4.65416 14.0573 4.10265C17.6392 3.84475 21.1217 5.05887 23.6091 7.68946C16.2463 11.5342 10.4753 18.1107 7.5898 25.9012C4.40582 23.2706 2.71434 19.3248 3.05495 15.1765"/>
	<path fill="#2D1B0A" d="M7.98773 27.5038L6.89324 26.5932C3.51027 23.7602 1.61978 19.4097 2.0385 14.9579C2.71427 8.68495 7.78873 3.62613 13.9577 2.9763C17.8381 2.71554 21.6191 4.03083 24.3056 6.86377L25.3006 7.87554L24.1066 8.4826C17.0422 12.125 11.3707 18.6002 8.58472 26.1885L7.98773 27.5038M15.1517 5.14377C14.8532 5.14377 14.4552 5.14377 14.1567 5.14377C8.98272 5.54848 4.60476 9.89907 4.10726 15.24C3.80876 18.6002 4.90325 21.8379 7.19174 24.1649C10.0772 17.1838 15.3507 11.2144 21.9176 7.47083C19.9276 5.95319 17.5397 5.14377 15.1517 5.14377"/>
	<path fill="#FFD071" d="M26.7931 72.0376L19.7285 83.0659L8.88315 83.0659L20.6241 69.2047C21.022 69.407 21.3205 69.5082 21.7185 69.7105C21.9175 69.8117 22.1166 69.9129 22.4151 70.0141C23.2111 70.4188 24.007 70.7223 24.8031 71.127C25.1015 71.2282 25.3006 71.3294 25.5991 71.4305C25.997 71.6329 26.3951 71.8353 26.7931 72.0376"/>
	<path fill="#2D1B0A" d="M20.3256 84.0776L6.6942 84.0776L20.3256 67.9905L22.7136 69.1035C23.5096 69.5082 24.3056 69.8117 25.1015 70.2164C25.4 70.3176 25.599 70.4188 25.8975 70.52C26.594 70.8235 26.793 70.9247 27.0915 71.127L28.186 71.6329L20.3256 84.0776M11.0722 82.054L19.2311 82.054L25.3005 72.4423C24.9026 72.24 24.7036 72.1388 24.4051 71.9364C23.6091 71.6329 22.8131 71.2282 22.0171 70.8235L11.0722 82.054"/>
	<path fill="#FFD071" d="M56.8417 72.0376C57.2397 71.8353 57.6377 71.6329 58.0357 71.5317C58.3342 71.4305 58.5332 71.3294 58.8317 71.2282C59.6277 70.9247 60.4237 70.52 61.2197 70.1152C61.4187 70.0141 61.6177 69.9129 61.9162 69.8117C62.3142 69.6094 62.6127 69.5082 63.0107 69.3058L74.7516 83.167L63.9061 83.167L56.8417 72.0376"/>
	<path fill="#2D1B0A" d="M76.9406 84.0776L63.3092 84.0776L55.3493 71.5317L56.4438 71.0258C56.7423 70.9247 56.9413 70.8235 57.2398 70.7223C57.9363 70.4188 58.1353 70.3176 58.4338 70.2164C59.2298 69.9129 60.0258 69.5082 60.8218 69.1035L63.2097 67.9905L76.9406 84.0776M64.5032 82.054L72.6622 82.054L62.8117 70.52C61.0208 71.4305 60.2248 71.7341 59.4288 72.1388C59.1303 72.24 58.9313 72.3411 58.6328 72.5435L64.5032 82.054"/>
	<path fill="#FFD071" d="M64.7022 71.5824C64.6027 71.6836 64.6027 71.6836 64.5032 71.7848C64.1052 72.0883 63.6077 72.3918 63.2097 72.6954C63.2097 72.6954 63.1102 72.7965 63.1102 72.7965C57.1403 76.8436 49.9763 79.2718 42.3149 79.2718C35.9469 79.2718 29.8775 77.653 24.604 74.7189C24.5045 74.6177 24.405 74.6177 24.3055 74.5165C23.9075 74.3142 23.5095 74.0107 23.1116 73.8083C23.0121 73.7071 22.9126 73.7071 22.8131 73.6059C22.4151 73.3024 22.0171 73.1001 21.6191 72.7965C21.5196 72.6954 21.4201 72.6954 21.3206 72.5942C20.9226 72.2907 20.5246 71.9871 20.0271 71.6836C19.9276 71.6836 19.9276 71.5824 19.8281 71.5824C10.7737 64.6012 4.9032 53.573 4.9032 41.2801C4.9032 20.2859 21.6191 3.2883 42.216 3.2883C62.8117 3.2883 79.5288 20.2859 79.5288 41.2801C79.6271 53.6742 73.7566 64.7024 64.7022 71.5824"/>
	<path fill="#2D1B0A" d="M42.3149 80.2331C35.9469 80.2331 29.6785 78.6143 24.206 75.579C24.1065 75.4778 24.007 75.4778 23.9075 75.3766C23.5095 75.1743 23.012 74.8707 22.614 74.6684C21.9176 74.1625 21.5196 73.9601 21.1216 73.6566C20.3256 73.1507 19.9276 72.8472 19.5296 72.5437C9.57965 65.0566 4.0077 53.6237 4.0077 41.2801C4.0077 19.7296 21.2211 2.3272 42.3149 2.3272C63.5082 2.3272 80.6221 19.8307 80.6221 41.2801C80.6221 53.6237 75.0501 64.9554 65.2992 72.4425C64.7022 72.9484 64.2047 73.2519 63.8067 73.6566C57.3393 77.906 49.9763 80.2331 42.3149 80.2331M42.3149 4.24955C22.3156 4.24955 5.99768 20.8425 5.99768 41.179C5.99768 52.9154 11.2711 63.6401 20.5246 70.7225C21.1216 71.1272 21.5196 71.4307 21.9176 71.6331C22.5145 72.139 22.9125 72.3413 23.3105 72.6448C24.007 73.0496 24.405 73.3531 24.803 73.5554C24.9025 73.6566 25.002 73.6566 25.1015 73.7578C30.375 76.5907 36.2454 78.1084 42.3149 78.1084C49.5783 78.1084 56.5433 75.9837 62.6127 71.8354C63.2097 71.4307 63.6077 71.1272 64.0057 70.8237C73.4581 63.539 78.7316 52.8143 78.7316 41.0778C78.6321 20.8425 62.3142 4.24955 42.3149 4.24955"/>
	<path fill="#FFE7DC" d="M60.1251 65.3093C60.0256 65.3093 60.0256 65.4105 59.9261 65.4105C59.6276 65.7141 59.2296 65.9164 58.9311 66.1188C58.9311 66.1188 58.8316 66.1188 58.8316 66.2199C54.1552 69.4576 48.3842 71.38 42.3148 71.38C37.2403 71.38 32.4643 70.0647 28.2854 67.7375C28.1859 67.6363 28.0864 67.6363 27.9869 67.6363C27.6884 67.4341 27.3899 67.2317 26.9919 67.0294C26.8924 66.9281 26.7929 66.9281 26.7929 66.827C26.4944 66.6246 26.1959 66.4222 25.7979 66.2199C25.6984 66.2199 25.6984 66.1188 25.5989 66.1188C25.3004 65.9164 24.9024 65.6128 24.6039 65.4105C24.6039 65.4105 24.5044 65.3093 24.5044 65.3093C17.3405 59.8459 12.664 51.0434 12.664 41.2294C12.664 24.6363 25.9969 11.0787 42.3148 11.0787C58.6326 11.0787 71.9655 24.6363 71.9655 41.2294C71.866 51.1446 67.2891 59.8459 60.1251 65.3093"/>
	<path fill="#2D1B0A" d="M42.3148 72.3411C37.2404 72.3411 32.2654 71.0258 27.788 68.5976C27.0915 68.2941 26.793 68.0917 26.4945 67.8894C25.8975 67.4847 25.4995 67.2823 25.201 67.08C24.604 66.6752 24.3055 66.4729 23.9075 66.2705C15.9476 60.2 11.4701 51.1952 11.4701 41.2294C11.4701 24.08 25.201 10.1176 42.1158 10.1176C59.0307 10.1176 72.7616 24.08 72.7616 41.2294C72.7616 51.0941 68.2841 60.2 60.5232 66.1694C60.0257 66.5741 59.6277 66.8776 59.3292 67.08C54.2548 70.52 48.3843 72.3411 42.3148 72.3411M42.3148 12.1411C26.4945 12.1411 13.6591 25.1929 13.6591 41.2294C13.6591 50.487 17.8381 58.9858 25.1015 64.5505C25.599 64.8541 25.8975 65.0564 26.196 65.36C26.6935 65.6635 26.992 65.8658 27.2905 66.0682C27.788 66.3717 28.0865 66.5741 28.385 66.6752C28.4845 66.6752 28.584 66.7764 28.6835 66.8776C32.7629 69.1035 37.4394 70.3176 42.2153 70.3176C47.8868 70.3176 53.4588 68.5976 58.1352 65.36C58.5332 65.0564 58.9312 64.7529 59.2297 64.5505C66.6921 58.8847 70.8711 50.3858 70.8711 41.2294C70.8711 25.1929 58.0357 12.1411 42.3148 12.1411"/>
	<path fill="#2D1B0A" d="M41.3199 14.9741L43.3099 14.9741L43.3099 18.6165L41.3199 18.6165L41.3199 14.9741"/>
	<path fill="#2D1B0A" d="M65.0008 40.2682L69.4782 40.2682L69.4782 42.2918L65.0008 42.2918L65.0008 40.2682"/>
	<path fill="#2D1B0A" d="M15.1517 40.2682L19.6291 40.2682L19.6291 42.2918L15.1517 42.2918L15.1517 40.2682"/>
	<path fill="#2D1B0A" d="M41.3199 64.0448L43.3099 64.0448L43.3099 68.8L41.3199 68.8L41.3199 64.0448"/>
	<path fill="#89C5E5" d="M42.8124 41.5835C41.3199 40.0659 41.3199 38.6494 42.1159 37.7388L54.5533 25.0917C55.3493 24.2823 56.7423 24.2823 57.6378 25.0917C59.1303 26.6094 59.1303 28.0259 58.3343 28.9364L45.8969 41.5835C45.0014 42.4941 43.6084 42.4941 42.8124 41.5835"/>
	<path fill="#2D1B0A" d="M44.3049 43.3035C43.5089 43.3035 42.7129 43 42.1159 42.3929C40.2255 40.4706 40.2255 38.447 41.4194 37.1317L53.8568 24.4847C55.0508 23.2706 57.0408 23.2706 58.3344 24.4847C60.2247 26.407 60.2247 28.4306 59.0307 29.7459L46.5934 42.3929C45.8969 42.8988 45.1009 43.3035 44.3049 43.3035M43.5089 40.8753C44.0064 41.3812 44.7029 41.3812 45.2004 40.8753L57.6378 28.2282C57.8368 28.0259 57.9363 27.7223 57.9363 27.4188C57.9363 27.1153 57.8368 26.8118 57.6378 26.6094C56.5434 25.4965 55.7473 25.4965 55.2498 25.9012L42.8124 38.5482C42.3149 39.0541 42.3149 39.7623 42.8124 40.2682"/>
	<path fill="#EA5050" d="M28.8826 42.2918C28.2856 42.2918 27.6886 41.7859 27.6886 41.0777L27.6886 40.0659C27.6886 39.4589 28.1861 38.8518 28.8826 38.8518L43.0115 38.8518C43.6085 38.8518 44.2055 39.3577 44.2055 40.0659L44.2055 41.0777C44.2055 41.6847 43.708 42.2918 43.0115 42.2918L28.8826 42.2918"/>
	<path fill="#2D1B0A" d="M43.0115 39.8636C43.111 39.8636 43.2105 39.9647 43.2105 40.0659L43.2105 41.0777C43.2105 41.1789 43.111 41.28 43.0115 41.28L28.8826 41.28C28.7831 41.28 28.6836 41.1789 28.6836 41.0777L28.6836 40.0659C28.6836 39.9647 28.7831 39.8636 28.8826 39.8636L43.0115 39.8636M43.0115 37.84L28.8826 37.84C27.6886 37.84 26.6936 38.8518 26.6936 40.0659L26.6936 41.0777C26.6936 42.2918 27.6886 43.3036 28.8826 43.3036L43.0115 43.3036C44.2055 43.3036 45.2004 42.2918 45.2004 41.0777L45.2004 40.0659C45.2004 38.8518 44.2055 37.84 43.0115 37.84"/>
	<path fill="#00435B" d="M46.1954 39.7624C46.1954 41.8299 44.5471 43.5059 42.5139 43.5059C40.4807 43.5059 38.8324 41.8299 38.8324 39.7624C38.8324 37.6949 40.4807 36.0189 42.5139 36.0189C44.5471 36.0189 46.1954 37.6949 46.1954 39.7624"/>
</svg>
