<?xml version="1.0" encoding="utf-8" ?>
<svg xmlns="http://www.w3.org/2000/svg" xmlns:xlink="http://www.w3.org/1999/xlink" width="84" height="96">
	<path fill="white" d="M0 96C0.101362 91.3049 0.405448 71.1259 3.44631 66.1311C5.67627 62.435 8.91985 60.7367 8.91985 60.7367C11.1498 59.4381 25.4419 53.2445 25.4419 53.2445C26.05 52.9448 27.5705 51.3465 27.5705 51.3465C25.6446 48.7492 24.7323 46.8512 24.1241 44.6535C22.5024 43.2549 21.5901 42.0562 21.0833 40.4579C21.0833 40.4579 16.9274 30.768 20.171 28.8699C19.7656 20.5786 20.3738 15.0843 22.1983 11.6878C26.3541 3.99584 33.4494 0 42.7747 0C52.8096 0 60.4117 6.09365 62.6417 11.9875C64.0608 16.0832 65.1757 23.4755 64.5676 29.1696C64.973 30.0687 65.1757 31.1675 65.1757 31.1675C65.1757 31.1675 65.7839 34.7638 62.0335 42.0562C61.6281 42.9553 60.4117 43.8543 59.3981 44.4537C58.4858 46.6514 57.5736 48.6493 56.6613 50.2477L57.1681 51.6462C58.1818 52.0458 70.9534 57.4402 72.4738 58.6389C75.5147 59.9376 80.7855 63.7336 82.2045 70.2268C82.2045 70.2268 84.84 83.8127 83.725 95.8002L0 95.8002"/>
	<path fill="#F9F9E5" d="M80.4143 92.4037C81.0225 78.9177 78.7925 71.026 78.7925 71.026C77.1707 64.233 71.2917 61.8355 71.2917 61.8355C71.2917 61.8355 71.089 61.8355 68.6563 60.7367C66.2237 59.6378 56.0875 55.642 56.0875 55.642C55.2766 53.2445 52.033 52.6451 52.033 52.6451C52.033 52.6451 50.918 58.539 41.8968 58.539C33.0783 58.3392 31.7606 52.6451 31.7606 52.6451C28.0102 54.2434 27.7061 55.642 27.7061 55.642C27.7061 55.642 24.868 57.2403 21.3203 58.539C17.7726 59.6378 9.35959 62.0353 6.52146 67.2299C3.68332 72.6243 3.4806 92.3038 3.4806 92.3038L80.4143 92.4037"/>
	<path fill="#2D1B0A" d="M81.426 93.4027L2.465 93.3028C2.465 91.5047 2.66772 72.3246 5.60722 66.7305C8.54672 61.3361 16.6557 58.8387 20.5074 57.6399C23.751 56.4412 26.0823 55.2424 26.9946 54.8429C27.4 54.1436 28.4137 52.8449 31.3532 51.6462L32.4681 51.1467L32.7722 52.3455C32.7722 52.5452 34.0899 57.2404 42 57.4401C50.0038 57.4401 51.1187 52.5452 51.1187 52.3455L52.3351 51.5463C52.4364 51.5463 55.68 52.2456 56.8964 54.743C58.8222 55.5421 66.9312 58.6389 69.1612 59.6379C70.6816 60.3371 71.2898 60.5369 71.4925 60.6368C71.9993 60.8366 78.1824 63.4339 79.8042 70.6264C79.9055 70.9261 82.0341 78.8179 81.426 92.3038L81.426 93.4027M4.49224 91.3049L79.5001 91.4048C80.0069 78.8179 77.9797 71.3257 77.8783 71.2258C76.4592 65.232 71.4925 62.9344 70.9857 62.7346C70.6816 62.6347 69.9721 62.335 68.2489 61.6358C65.9176 60.5369 55.7814 56.641 55.68 56.641C54.6664 54.9428 53.4501 54.2435 52.6392 53.9438C51.8283 55.8418 49.1929 59.538 41.8948 59.538C34.6981 59.4381 32.0627 55.8418 31.1504 54.0437C29.0218 55.1425 28.7177 55.9417 28.7177 55.9417C28.1096 56.7409 25.1701 58.2393 21.6224 59.538C17.4666 60.8366 9.96578 63.1342 7.43174 67.8293C4.99905 72.2247 4.5936 87.309 4.49224 91.3049"/>
	<path fill="#EAC3AA" d="M32.0305 51.0468C32.0305 51.0468 32.2332 51.846 31.8277 52.7451C31.8277 52.7451 33.7536 63.0343 42.8763 63.0343C42.8763 63.0343 50.5798 60.8366 52.4043 52.7451C52.4043 52.7451 52.2015 51.6462 52.2015 51.0468C52.1002 51.0468 42.8763 60.0375 32.0305 51.0468"/>
	<path fill="#A86B3F" d="M24.3269 30.3683C24.3269 30.3683 21.8942 18.3808 24.9351 12.8865C27.9759 7.39227 33.3481 2.89695 42.6734 2.89695C51.9987 2.89695 57.6749 8.59102 59.2968 12.8865C61.02 17.1821 61.9322 25.5733 60.9185 30.0686C59.6009 34.6638 57.979 39.6586 55.6478 38.7595C53.215 37.9604 55.0396 26.5723 53.4177 23.4755C51.796 20.3787 47.9443 19.4797 44.5993 20.6784C41.0517 21.977 32.4359 22.5765 31.1182 23.6754C29.8004 24.4744 28.4827 26.0728 28.6855 28.8699C28.8882 31.8668 29.4964 37.5608 27.5705 37.361C25.5432 37.1613 24.3269 31.9667 24.3269 30.3683"/>
	<path fill="#2D1B0A" d="M56.0531 39.8585C55.7491 39.8585 55.445 39.8585 55.2422 39.7586C53.3164 39.0593 53.215 35.9625 53.1136 30.8678C53.1136 28.1706 53.0123 25.0739 52.4041 23.975C50.985 21.2778 47.4374 20.6784 44.802 21.5775C43.0788 22.1769 40.2407 22.6764 37.5039 23.0759C35.2739 23.4755 32.1317 23.975 31.6249 24.3746C30.1045 25.3735 29.3949 26.872 29.5977 28.77C29.5977 29.0697 29.5977 29.4693 29.699 29.8689C30.0031 33.7648 30.1045 36.6618 28.8881 37.8605C28.4827 38.2601 27.9759 38.4599 27.4691 38.36C24.8337 37.8605 23.516 31.9667 23.516 30.3683C23.3132 29.1696 21.1846 17.7815 24.3268 12.2872C28.28 5.29446 34.5644 1.7981 42.8761 1.7981C52.2014 1.7981 58.4858 7.29238 60.4117 12.487C62.2362 16.9823 63.0471 25.6732 62.0335 30.2684C60.8172 34.564 59.6008 38.4599 57.4722 39.5588C56.864 39.7586 56.4586 39.8585 56.0531 39.8585M47.2347 19.2799C50.1742 19.2799 52.9109 20.6784 54.1273 23.0759C54.9382 24.6743 54.9382 27.6711 55.0395 30.8678C55.0395 33.1654 55.1409 37.3611 55.8504 37.8605C55.9518 37.8605 56.1545 37.8605 56.2559 37.8605C57.7763 37.0614 59.094 32.1665 59.8035 29.8689C60.7158 25.7731 60.0063 17.5817 58.2831 13.386C56.864 9.58998 51.5932 3.99581 42.6734 3.99581C35.0712 3.99581 29.3949 7.19248 25.8473 13.4859C23.0091 18.4807 25.2391 30.1685 25.3405 30.2684C25.3405 32.1665 26.5568 35.9625 27.4691 36.5619C27.9759 35.6628 27.6718 31.7669 27.5704 30.2684C27.5704 29.8689 27.4691 29.4693 27.4691 29.1696C27.2663 25.7731 28.8881 23.975 30.3072 23.0759C31.2195 22.3767 33.4494 21.9771 37.0985 21.3777C39.6325 20.9781 42.4706 20.4786 43.9911 19.8793C45.1061 19.3798 46.221 19.2799 47.2347 19.2799"/>
	<path fill="#FAD1B6" d="M42.3688 57.1406C42.3688 57.1406 36.3932 56.0417 31.9369 51.0469C27.278 45.9522 26.7716 41.2571 26.7716 41.2571C26.7716 41.2571 24.8472 41.2571 24.1383 38.8596C23.328 36.4621 19.9858 31.8669 23.0242 30.3684C23.0242 30.3684 24.3408 29.869 24.9485 31.4673C25.5562 32.7659 26.2652 35.7628 26.569 36.2623C26.7716 36.4621 27.6831 35.6629 27.1767 29.0698C27.1767 29.0698 26.0626 24.2748 30.5189 22.7764C34.874 21.0781 40.9509 21.178 42.6726 19.7795C44.3944 18.4808 51.0789 20.5786 52.3956 19.1801C52.3956 19.1801 54.8263 20.4788 55.3327 24.5745C55.8391 28.5703 55.8391 35.8627 56.6494 36.562C57.4596 37.1614 57.4596 33.0656 58.2699 31.4673C58.8776 29.869 61.3083 29.2696 61.6121 31.6671C62.1185 34.0646 59.8904 39.0594 59.1814 39.9585C58.5737 40.7576 57.2571 42.1562 56.2443 41.2571C56.2443 41.2571 55.6366 46.6515 51.3828 51.5464C47.5341 56.2415 43.9893 56.9408 42.3688 57.1406"/>
	<path fill="#2D1B0A" d="M42.3688 58.1394C41.9637 58.1394 35.8869 56.9406 31.228 51.746C27.4806 47.6503 26.2652 43.7543 25.9614 42.156C24.9486 41.8563 23.7332 41.0572 23.2268 39.1591C23.1255 38.7596 22.7204 38.0603 22.4165 37.4609C21.2012 34.9635 19.3781 31.1675 22.6191 29.4692C23.6319 29.0696 25.2524 29.2694 25.9614 31.0676C26.0626 31.3673 26.2652 31.6669 26.3665 32.0665C26.3665 31.2674 26.3665 30.3683 26.2652 29.1695C25.8601 27.1716 26.1639 23.1758 30.3164 21.7772C32.5446 20.8782 35.0766 20.4786 37.4061 20.1789C39.4317 19.8792 41.5586 19.5795 42.2676 18.9802C43.4829 18.0811 45.6098 18.2809 47.838 18.4807C49.0534 18.5806 51.3828 18.7804 51.788 18.4807L53.0033 18.2809C53.1046 18.3808 55.9405 19.8792 56.4469 24.4744C56.6494 25.873 56.7507 27.771 56.852 29.4692C56.852 30.3683 56.9533 31.3673 57.0546 32.2663C57.1558 31.7668 57.2571 31.3673 57.4597 31.0676C57.9661 29.7689 59.384 28.9697 60.5994 29.1695C61.7135 29.3693 62.5237 30.2684 62.7263 31.567C63.2327 34.3641 60.8019 39.6586 60.093 40.5577C59.0802 41.8563 58.1686 42.4557 57.2571 42.5556C56.852 44.4536 55.6366 48.4495 52.3956 52.1456C49.3572 55.7419 46.1162 57.7398 42.5714 58.1394M23.4293 31.2674C22.214 31.9666 22.8217 33.565 24.2396 36.5618C24.5434 37.2611 24.9486 37.9604 25.1511 38.5598C25.6575 40.258 26.7716 40.258 26.7716 40.258L27.7844 41.1571C27.7844 41.1571 28.2908 45.6524 32.6459 50.4474C36.4946 54.643 41.4573 55.9417 42.3688 56.1414C45.2047 55.7419 48.0406 53.9437 50.6739 50.847C54.6238 46.2517 55.3328 41.1571 55.3328 41.0572L55.5353 39.0592L57.0546 40.5577C57.1558 40.5577 57.6622 40.3579 58.4725 39.3589C59.0802 38.6597 61.1058 33.8647 60.7007 31.8667C60.7007 31.567 60.5994 31.1675 60.2955 31.0676C59.9917 31.0676 59.4853 31.2674 59.2827 31.8667C58.9789 32.4661 58.8776 33.565 58.675 34.464C58.3712 36.1623 58.2699 37.2611 57.3584 37.5608C56.9533 37.7606 56.5482 37.6607 56.143 37.361C55.3328 36.6617 55.1302 35.0634 54.8264 29.5691C54.7251 27.771 54.6238 25.9729 54.4213 24.6742C54.1174 22.1768 53.1046 20.8782 52.4969 20.3787C51.3828 20.8782 49.5598 20.6784 47.6354 20.5785C46.2175 20.4786 43.9893 20.2788 43.4829 20.6784C42.3688 21.5774 40.3432 21.8771 37.7099 22.2767C35.583 22.5764 33.051 22.976 31.0254 23.7752C27.4806 24.9739 28.1895 28.5702 28.2908 28.9697C28.7972 36.5618 27.5819 37.1612 27.1767 37.361C26.7716 37.5608 26.2652 37.4609 25.9614 37.1612C25.6575 36.6617 25.5562 36.1623 25.2524 35.0634C24.9486 34.0644 24.5434 32.7658 24.2396 32.0665C23.9357 31.2674 23.6319 31.2674 23.4293 31.2674"/>
	<path fill="#F2F2F2" d="M56.0385 55.8418C55.2277 53.4443 51.9841 52.8449 51.9841 52.8449C51.9841 52.8449 50.8691 58.7388 41.8479 58.7388C33.0294 58.539 31.7117 52.8449 31.7117 52.8449C27.6572 54.4432 27.6572 55.8418 27.6572 55.8418C27.6572 55.8418 29.5831 63.4348 42.0506 63.4348C54.7208 63.5338 56.0385 55.8418 56.0385 55.8418"/>
	<path fill="#2D1B0A" d="M42.0506 64.5327C28.9749 64.5327 26.8463 56.541 26.7449 56.1415C26.7449 55.4422 27.049 53.6441 31.4076 51.9458L32.5225 51.5462L32.8266 52.6451C32.8266 52.8449 34.1443 57.54 42.0506 57.7398C50.1595 57.7398 51.1731 52.745 51.1731 52.6451L51.3759 51.5462L52.3895 51.8459C52.5922 51.8459 56.1399 52.6451 57.1535 55.5421C56.9508 56.4412 55.4303 64.5327 42.0506 64.5327M28.7721 55.8418C29.1776 57.0405 31.813 62.4349 42.0506 62.4349C52.4908 62.4349 54.6194 57.1404 54.9235 55.8418C54.4167 54.8428 53.4031 54.2434 52.5922 53.9437C51.7813 55.8418 49.1459 59.5379 41.8478 59.5379C34.6511 59.438 32.0157 55.8418 31.1035 53.9437C29.4817 54.9427 28.9749 55.642 28.7721 55.8418"/>
	<path fill="#303030" d="M43.687 92.903C30.0032 92.903 16.0152 92.903 16.0152 92.903C16.0152 92.903 11.9589 61.7355 11.9589 61.3359C15.5084 59.7376 18.5493 58.9384 20.5765 58.3391C18.9547 56.7407 27.6718 56.1413 27.6718 56.1413C27.6718 56.1413 27.9759 72.4243 43.687 92.903"/>
	<path fill="#2D1B0A" d="M44.7007 93.4027L15.607 93.4027C11.248 61.7356 11.514 61.3361 11.514 61.1363C14.796 59.5379 17.4317 58.7388 19.3577 58.1394C19.5605 58.0395 19.7632 58.0395 19.966 57.9396C19.966 57.8397 19.966 57.6399 20.0673 57.54C20.5742 56.2414 25.1359 55.7419 27.7716 55.5421C28.2785 56.2414 28.7853 72.5244 44.0925 92.6035M16.4179 92.4037L42.6733 92.4037C29.1908 74.4224 27.4675 59.5379 27.2648 56.641C24.0208 56.9406 21.2838 57.54 20.9797 57.9396C20.4728 58.8387 20.1687 58.9386 19.6618 59.1383C17.8372 59.7377 15.3029 60.437 12.5658 61.6357C12.6672 64.0333 14.8974 80.9157 16.4179 92.4037"/>
	<path fill="#303030" d="M71.5615 62.2286C71.5615 62.2286 68.5207 59.6313 65.5812 58.932C62.5403 58.3326 57.3708 55.9351 57.3708 55.9351C56.7627 53.5376 58.4858 74.7156 43.8897 92.8966C56.9654 92.8966 69.8384 92.8966 69.8384 92.8966C71.5615 73.5168 71.5615 62.2286 71.5615 62.2286"/>
	<path fill="#2D1B0A" d="M70.2438 93.4027L42.8761 93.4027C51.1878 83.0136 55.6477 71.0261 56.6613 57.0406C56.7627 55.5422 56.7627 55.2425 57.2695 55.2425C57.4722 55.2425 57.6749 55.3424 57.7763 55.5422C58.6886 55.9418 63.0471 57.9397 65.6825 58.4392C68.622 59.2383 71.7643 61.7357 71.8656 61.8356C72.0683 62.2352 72.0683 73.7232 70.3452 92.9033M44.9033 92.4038L69.3316 92.4038C70.852 75.0219 71.0547 64.1332 71.0547 62.435C70.3452 61.9355 67.8111 59.9376 65.4798 59.3382C62.9458 58.8387 59.094 57.1405 57.6749 56.5411C57.6749 56.7409 57.6749 56.8408 57.6749 57.0406C56.6613 70.9262 52.3028 82.7139 44.9033 92.4038"/>
	<path fill="#4C4C4C" d="M43.9884 92.9032C43.9884 93.2032 43.9884 92.9032 43.9884 92.9032"/>
	<path fill="#AA6363" d="M37.2331 44.5536C37.2331 44.5536 42.6734 44.9531 47.7415 44.5536C47.7415 44.5536 48.6538 49.848 42.9775 49.9479C36.1862 49.848 37.2331 44.5536 37.2331 44.5536"/>
	<path fill="#2D1B0A" d="M42.9661 50.847C40.4321 50.847 38.5062 50.1477 37.3912 48.7492C35.7694 46.8512 36.223 44.4537 36.3776 44.2539L37.4926 43.4547C37.5939 43.4547 42.7634 43.8543 47.8315 43.4547L48.9464 44.2539C48.9464 44.3538 49.4533 47.051 47.7301 48.949C46.5138 50.2476 44.9933 50.847 42.9661 50.847M38.2021 45.5525C38.2021 46.1519 38.4048 46.8512 38.9116 47.4505C39.6212 48.3496 41.0402 48.7492 42.9661 48.7492C44.3852 48.7492 45.3988 48.3496 46.007 47.6503C46.6151 46.951 46.7165 46.052 46.8178 45.4526C43.2702 45.7523 39.8239 45.6524 38.2021 45.5525"/>
	<path fill="#EF7373" d="M38.923 48.1499C39.7339 49.0489 41.2544 49.5484 42.6734 49.5484C44.0925 49.5484 45.7143 49.0489 46.5252 48.1499C45.4102 47.4506 39.8353 47.4506 38.923 48.1499"/>
	<path fill="white" d="M37.7179 44.9531C37.7179 44.9531 41.7611 45.053 43.1802 45.053C44.5992 45.053 47.336 44.9531 47.336 44.9531C47.336 44.9531 47.5387 45.9521 47.336 46.2518C47.2346 46.4516 44.3965 46.5515 42.6734 46.5515C41.0516 46.5515 37.7179 46.5515 37.7179 46.5515C37.7179 46.5515 37.6053 45.3527 37.7179 44.9531"/>
	<path fill="#351F21" d="M48.8565 28.9698C49.566 28.9698 50.1742 29.0697 50.8837 29.1696C52.1001 29.2695 53.3164 29.4693 54.4314 29.8689C54.5328 29.9687 54.7355 30.0686 54.7355 30.1685C54.7355 30.3683 54.5328 30.4682 54.33 30.4682C53.3164 30.5681 52.2014 30.3683 51.1878 30.2684C49.7688 30.1685 48.3497 30.2684 46.9306 30.3683C46.6265 30.3683 45.6129 30.7679 45.6129 30.1685C45.6129 29.5692 46.2211 29.3694 46.5252 29.2695C47.2347 29.0697 48.0456 28.9698 48.8565 28.9698"/>
	<path fill="#351F21" d="M35.1726 29.1696C34.4631 29.1696 33.7536 29.2695 33.1454 29.2695C31.929 29.3694 30.7127 29.5692 29.5977 29.9688C29.4964 30.0687 29.2936 30.1686 29.2936 30.2685C29.2936 30.4683 29.4964 30.5682 29.6991 30.5682C30.8141 30.6681 31.8277 30.4683 32.9427 30.3684C34.3617 30.2685 35.7808 30.3684 37.1999 30.4683C37.6053 30.4683 38.4162 30.8679 38.5176 30.2685C38.5176 29.6691 37.9094 29.4693 37.504 29.3694C36.6931 29.1696 35.9835 29.1696 35.1726 29.1696"/>
	<path fill="#351F21" d="M36.9972 34.8637C36.9972 35.7464 35.9988 36.462 34.7672 36.462C33.5356 36.462 32.5372 35.7464 32.5372 34.8637C32.5372 33.981 33.5356 33.2654 34.7672 33.2654C35.9988 33.2654 36.9972 33.981 36.9972 34.8637"/>
	<path fill="#351F21" d="M51.8973 34.7638C51.8973 35.6465 50.9443 36.3621 49.7687 36.3621C48.5931 36.3621 47.6401 35.6465 47.6401 34.7638C47.6401 33.8811 48.5931 33.1655 49.7687 33.1655C50.9443 33.1655 51.8973 33.8811 51.8973 34.7638"/>
</svg>
