<?xml version="1.0" encoding="utf-8" ?>
<svg xmlns="http://www.w3.org/2000/svg" xmlns:xlink="http://www.w3.org/1999/xlink" width="84" height="74">
	<path fill="white" d="M5.25 73.8982C2.32212 73.8982 0 71.5571 0 68.6052L0 23.5131C0 20.3576 2.32212 18.0165 5.25 18.0165L18.8798 18.0165L18.8798 9.36451C19.2837 6.10729 22.2115 0 29.9856 0L55.9327 0C59.0625 0.203576 65.0192 2.64649 65.0192 9.87345L65.0192 18.1183L78.5481 18.1183C81.5769 18.1183 84 20.5612 84 23.6149L84 68.707C84 71.5571 81.476 74 78.5481 74L5.25 74M32.8125 17.9147L51.2885 17.9147L51.2885 14.1486L32.8125 14.1486L32.8125 17.9147"/>
	<path fill="#E7F5F8" d="M5.19948 21.2738L78.5985 21.2738C79.7091 21.2738 80.8196 22.1899 80.8196 23.5132L80.8196 68.6053C80.8196 69.7251 79.7091 70.6411 78.5985 70.6411L5.19948 70.6411C4.0889 70.6411 3.18025 69.7251 3.18025 68.6053L3.18025 23.5132C3.18025 22.1899 4.0889 21.2738 5.19948 21.2738"/>
	<path fill="#2D1B0A" d="M78.4975 71.6589L5.19945 71.6589C3.58406 71.6589 2.1706 70.3357 2.1706 68.6053L2.1706 23.5131C2.1706 21.6809 3.4831 20.2559 5.19945 20.2559L78.5985 20.2559C80.1129 20.2559 81.8293 21.4774 81.8293 23.5131L81.8293 68.6053C81.7283 70.2339 80.2139 71.6589 78.4975 71.6589M5.19945 22.2917C4.59368 22.2917 4.18983 22.8006 4.18983 23.5131L4.18983 68.6053C4.18983 69.1142 4.59368 69.6232 5.19945 69.6232L78.5985 69.6232C79.2043 69.6232 79.81 69.1142 79.81 68.6053L79.81 23.5131C79.81 22.8006 79.2043 22.2917 78.5985 22.2917L5.19945 22.2917"/>
	<path fill="#69C2FF" d="M22.1106 21.2738L22.1106 9.77169C22.1106 9.77169 23.0193 3.25725 29.8846 3.25725C36.851 3.25725 55.6298 3.25725 55.6298 3.25725C55.6298 3.25725 61.6875 3.6644 61.6875 9.77169C61.6875 15.879 61.6875 21.2738 61.6875 21.2738L54.5193 21.2738L54.5193 12.7235C54.5193 12.7235 54.1154 10.9931 53.4087 10.9931C52.7019 10.9931 31.2981 10.9931 31.2981 10.9931C31.2981 10.9931 29.5817 10.7896 29.5817 12.7235C29.5817 14.9628 29.5817 21.2738 29.5817 21.2738L22.1106 21.2738"/>
	<path fill="#2D1B0A" d="M62.7981 22.2916L53.6106 22.2916L53.6106 12.8253C53.5096 12.52 53.4087 12.1128 53.2067 11.9093L31.1971 11.9093C31.0962 11.9093 30.8942 11.9093 30.6923 12.011C30.5914 12.1128 30.4904 12.4182 30.4904 12.6218L30.4904 22.1899L21 22.1899L21 9.46634C21.3029 6.92163 23.625 2.0358 29.7836 2.0358L55.7308 2.0358C58.2548 2.23938 62.7981 4.07156 62.7981 9.56812L62.7981 22.2916M55.6298 20.2559L60.7788 20.2559L60.7788 9.7717C60.7788 4.68229 55.8317 4.27514 55.6298 4.27514L29.9856 4.27514C24.2308 4.27514 23.3221 9.26276 23.2211 9.87349L23.2211 20.3577L28.6731 20.3577L28.6731 12.8253C28.6731 11.7057 29.1779 10.9932 29.4808 10.6878C30.1875 10.0771 31.0962 10.0771 31.399 10.0771L53.5096 10.0771C54.7212 10.0771 55.3269 11.7057 55.6298 12.6218L55.6298 20.2559"/>
	<path fill="#FF6F64" d="M28.3701 49.5709L28.3701 42.3439L38.1634 42.3439L38.3653 32.2669L45.3316 32.2669L45.3316 42.3439L55.3269 42.3439L55.3269 49.5709L45.3316 49.5709L45.3316 59.6479L38.3653 59.6479L38.3653 49.5709L28.3701 49.5709"/>
	<path fill="#2D1B0A" d="M46.3414 60.6658L37.3558 60.6658L37.3558 50.5888L27.3606 50.5888L27.3606 41.326L37.1539 41.326L37.3558 31.249L46.2404 31.249L46.2404 41.326L56.2356 41.326L56.2356 50.5888L46.2404 50.5888L46.2404 60.6658M39.476 58.63L44.4231 58.63L44.4231 48.553L54.4183 48.553L54.4183 43.3618L44.4231 43.3618L44.4231 33.2848L39.476 33.2848L39.2741 43.3618L29.4808 43.3618L29.4808 48.553L39.476 48.553L39.476 58.63"/>
</svg>
