<?xml version="1.0" encoding="utf-8" ?>
<svg xmlns="http://www.w3.org/2000/svg" xmlns:xlink="http://www.w3.org/1999/xlink" width="58" height="96">
	<path fill="white" d="M9.18417 96C4.09294 96 0 91.9043 0 86.8096L0 9.19043C0 4.09573 4.09294 0 9.18417 0L48.8158 0C53.9071 0 58 4.09573 58 9.19043L58 86.8096C58 91.9043 53.9071 96 48.8158 96L9.18417 96"/>
	<path fill="#353951" d="M48.6162 92.8033L8.98453 92.8033C5.59038 92.8033 2.7952 90.0063 2.7952 86.6098L2.7952 8.99065C2.7952 5.59419 5.59038 2.7971 8.98453 2.7971L48.6162 2.7971C52.0103 2.7971 54.8055 5.59419 54.8055 8.99065L54.8055 86.6098C54.8055 90.1062 52.0103 92.8033 48.6162 92.8033"/>
	<path fill="#2D1B0A" d="M48.6163 93.8023L8.98461 93.8023C4.99149 93.8023 1.797 90.6056 1.797 86.6098L1.797 8.99061C1.797 4.99477 4.99149 1.7981 8.98461 1.7981L48.6163 1.7981C52.6094 1.7981 55.8039 4.99477 55.8039 8.99061L55.8039 86.6098C55.8039 90.6056 52.6094 93.8023 48.6163 93.8023M8.98461 3.89591C6.18943 3.89591 3.79356 6.19352 3.79356 9.0905L3.79356 86.7097C3.79356 89.5067 6.0896 91.9042 8.98461 91.9042L48.6163 91.9042C51.4115 91.9042 53.8073 89.6066 53.8073 86.7097L53.8073 9.0905C53.8073 6.29342 51.5113 3.89591 48.6163 3.89591L8.98461 3.89591"/>
	<path fill="white" d="M31.2461 85.3111C31.2461 86.5249 30.3075 87.5088 29.1497 87.5088C27.9919 87.5088 27.0533 86.5249 27.0533 85.3111C27.0533 84.0973 27.9919 83.1134 29.1497 83.1134C30.3075 83.1134 31.2461 84.0973 31.2461 85.3111"/>
	<path fill="#2D1B0A" d="M29.1497 88.5078C27.4526 88.5078 26.055 87.1092 26.055 85.3111C26.055 83.6129 27.4526 82.1144 29.1497 82.1144C30.8468 82.1144 32.2444 83.513 32.2444 85.3111C32.2444 87.1092 30.8468 88.5078 29.1497 88.5078M29.1497 84.2122C28.5507 84.2122 28.0516 84.7117 28.0516 85.411C28.0516 86.0104 28.5507 86.6098 29.1497 86.6098C29.7487 86.6098 30.2478 86.1103 30.2478 85.411C30.2478 84.7117 29.7487 84.2122 29.1497 84.2122"/>
	<path fill="white" d="M4.54225 9.59005L53.458 9.59005L53.458 77.8189L4.54225 77.8189L4.54225 9.59005"/>
	<path fill="#DDD" d="M37.6351 32.4662L13.3769 32.4662C11.8795 32.4662 10.7814 31.2674 10.7814 29.8689C10.7814 28.3705 11.9793 27.2716 13.3769 27.2716L37.6351 27.2716C39.1325 27.2716 40.2306 28.4704 40.2306 29.8689C40.2306 31.3673 39.0327 32.4662 37.6351 32.4662"/>
	<path fill="#DDD" d="M26.4545 55.7419L14.7746 55.7419C13.2772 55.7419 12.1791 54.5431 12.1791 53.1446C12.1791 51.6462 13.377 50.5473 14.7746 50.5473L26.4545 50.5473C27.9519 50.5473 29.0499 51.7461 29.0499 53.1446C29.0499 54.5431 27.9519 55.7419 26.4545 55.7419"/>
	<path fill="#89C5E5" d="M32.5439 44.0541L14.4751 44.0541C12.9777 44.0541 11.8795 42.8553 11.8795 41.4568C11.8795 39.9584 13.0775 38.8595 14.4751 38.8595L32.5439 38.8595C34.0414 38.8595 35.1395 40.0583 35.1395 41.4568C35.1395 42.8553 33.9416 44.0541 32.5439 44.0541"/>
	<path fill="#89C5E5" d="M23.0603 64.8325L15.2737 64.8325C13.7763 64.8325 12.6782 63.6337 12.6782 62.2352C12.6782 60.7368 13.8761 59.6379 15.2737 59.6379L23.0603 59.6379C24.5577 59.6379 25.6558 60.8367 25.6558 62.2352C25.6558 63.6337 24.4579 64.8325 23.0603 64.8325"/>
</svg>
