<?xml version="1.0" encoding="utf-8" ?>
<svg xmlns="http://www.w3.org/2000/svg" xmlns:xlink="http://www.w3.org/1999/xlink" width="60" height="76">
	<path fill="white" d="M22.5228 76C15.0085 76 11.2514 74.2773 9.9313 73.4667C8.30659 72.4533 2.8232 68.6027 0.995405 63.4347C0.690772 62.2187 -1.44166 54.416 1.70621 48.5387L12.5715 28.1707L23.0305 9.01867C24.3506 7.19467 30 0 38.1606 0C42.9332 0 47.1981 0.912 50.0413 2.53333C50.1428 2.63467 56.7432 6.688 58.9772 12.3627C59.0787 12.8693 61.6174 21.1787 58.2664 27.36L49.3305 44.2827L47.5027 47.728L36.739 67.0827C35.1143 69.312 30 75.2907 22.6243 75.8987"/>
	<path fill="#F5FBFC" d="M15.7193 29.3868L45.0656 46.3095L34.505 65.2588C34.505 65.2588 29.5293 72.6561 22.1166 72.8587C15.11 72.8587 11.7591 70.8321 11.7591 70.8321C11.7591 70.8321 5.76797 67.0827 4.14326 62.4214C4.14326 62.4214 2.11238 55.0241 4.75253 50.0588L15.7193 29.3868"/>
	<path fill="#2D1B0A" d="M22.1166 73.8722C14.907 73.8722 11.3529 71.7442 11.2514 71.7442C10.9468 71.5415 4.95564 67.6908 3.22939 62.8268C3.12785 62.4215 1.09696 54.9228 3.9402 49.6535L15.4147 28.0695L46.5888 46.0055L35.5205 65.8668C35.1143 66.0695 29.9355 73.5682 22.1166 73.8722M16.1255 30.7042L5.66645 50.4642C3.22939 55.0242 5.15873 62.0162 5.15873 62.1175C6.58035 66.2722 12.2668 69.9202 12.3684 69.9202C12.3684 69.9202 15.6178 71.7442 22.2182 71.7442C29.0216 71.5415 33.6927 64.6508 33.7942 64.5495L43.8471 46.5122L16.1255 30.7042"/>
	<path fill="#FFD05A" d="M44.8625 46.512L15.5162 29.5893L25.8737 10.64C25.8737 10.64 31.0525 3.24267 38.4652 3.04C45.4719 3.04 48.6197 5.06667 48.6197 5.06667C48.6197 5.06667 54.6109 8.816 56.4387 13.4773C56.4387 13.4773 58.4695 20.8747 55.8293 25.84L44.8625 46.512"/>
	<path fill="#2D1B0A" d="M45.2687 47.8293L14.0946 29.8933L24.9598 9.93063C25.1629 9.62663 30.5448 2.12797 38.3637 1.9253C45.5733 1.9253 48.9243 4.0533 49.1274 4.15463C49.3305 4.3573 55.4231 8.10663 57.3525 13.072C57.454 13.4773 59.4849 20.976 56.6417 26.2453L45.2687 47.8293M16.8363 29.184L44.4563 45.0933L54.9154 25.3333C57.2509 20.976 55.6262 14.3893 55.4231 13.7813C53.6969 9.5253 48.1119 5.97863 48.0104 5.8773C48.0104 5.8773 44.9641 4.0533 38.3637 4.0533C31.8649 4.25597 27.0923 10.64 26.5845 11.1466L16.8363 29.184"/>
</svg>
