<?xml version="1.0" encoding="utf-8" ?>
<svg xmlns="http://www.w3.org/2000/svg" xmlns:xlink="http://www.w3.org/1999/xlink" width="86" height="90">
	<path fill="white" d="M65.7588 90C62.4356 90 59.1124 88.6016 56.7963 86.2042L0 85.3052L0 74.3174L1.91335 74.3174L1.40984 70.8213C1.30913 70.4218 1.30913 70.1221 1.30913 69.7225L1.30913 57.3363C1.30913 56.0377 1.61124 54.8391 2.31616 53.6404L3.22248 52.1421L2.31616 50.6437C1.61124 49.545 1.30913 48.2464 1.30913 46.9478L1.30913 34.5616C1.30913 33.1632 1.71194 31.7647 2.51756 30.566L3.62529 28.8679L2.51756 27.1698C1.71194 25.9711 1.30913 24.5727 1.30913 23.1743L1.30913 10.788C1.30913 6.79245 4.73302 3.29634 8.76112 3.29634L59.2131 3.29634C59.4145 3.29634 59.6159 3.29634 59.8173 3.29634L63.1405 3.596L63.1405 0L86 0L86 11.2875L74.2178 11.2875L74.2178 67.9245C77.1382 71.121 78.3466 74.1176 78.3466 77.3141C78.2459 84.3063 72.6066 90 65.7588 90"/>
	<path fill="#EFEFEF" d="M82.6263 8.39071L82.6263 2.9967L65.809 2.9967L65.809 8.39071L65.809 77.2142L2.7692 77.2142L2.7692 82.2087L71.1462 82.2087L71.1462 77.2142L70.7434 8.39071"/>
	<path fill="#2D1B0A" d="M72.2038 83.2076L1.712 83.2076L1.712 76.2153L64.8525 76.2153L64.8525 1.9978L83.6839 1.9978L83.6839 9.2897L71.9017 9.2897L71.9017 76.1154L72.3045 83.2076M3.82675 81.2098L70.2905 81.2098L70.2905 78.2131L69.8876 7.39181L81.6698 7.39181L81.6698 4.09547L66.8666 4.09547L66.8666 78.313L3.72605 78.313L3.72605 81.2098"/>
	<path fill="#FFD071" d="M59.0117 74.1176L8.55966 74.1176C6.2435 74.1176 4.12875 72.02 4.12875 69.6226L4.12875 57.2364C4.12875 54.8391 6.2435 52.7414 8.55966 52.7414L59.0117 52.7414C61.3279 52.7414 63.4426 54.8391 63.4426 57.2364L63.4426 69.6226C63.4426 72.4195 61.7306 74.1176 59.0117 74.1176"/>
	<path fill="#2D1B0A" d="M59.0116 75.1165L8.55964 75.1165C5.63926 75.1165 3.1217 72.5194 3.1217 69.6226L3.1217 57.2364C3.1217 54.3396 5.63926 51.7425 8.55964 51.7425L59.0116 51.7425C61.932 51.7425 64.4496 54.3396 64.4496 57.2364L64.4496 69.6226C64.4496 72.919 62.2341 75.1165 59.0116 75.1165M8.55964 53.8402C6.74699 53.8402 5.13575 55.5383 5.13575 57.3363L5.13575 69.7225C5.13575 71.5205 6.74699 73.2186 8.55964 73.2186L59.0116 73.2186C61.2271 73.2186 62.4355 71.9201 62.4355 69.7225L62.4355 57.3363C62.4355 55.5383 60.8243 53.8402 59.0116 53.8402L8.55964 53.8402"/>
	<path fill="#7FCCD1" d="M59.0117 51.4428L8.55966 51.4428C6.2435 51.4428 4.12875 49.3452 4.12875 46.9478L4.12875 34.5616C4.12875 32.1643 6.2435 30.0666 8.55966 30.0666L59.0117 30.0666C61.3279 30.0666 63.4426 32.1643 63.4426 34.5616L63.4426 46.9478C63.4426 49.4451 61.7306 51.4428 59.0117 51.4428"/>
	<path fill="#2D1B0A" d="M59.0116 52.4417L8.55964 52.4417C5.63926 52.4417 3.1217 49.8446 3.1217 46.9478L3.1217 34.5616C3.1217 31.6648 5.63926 29.0677 8.55964 29.0677L59.0116 29.0677C61.932 29.0677 64.4496 31.6648 64.4496 34.5616L64.4496 46.9478C64.4496 50.1443 62.1334 52.4417 59.0116 52.4417M8.55964 31.0655C6.74699 31.0655 5.13575 32.7636 5.13575 34.5616L5.13575 46.9478C5.13575 48.7458 6.74699 50.4439 8.55964 50.4439L59.0116 50.4439C61.0257 50.4439 62.4355 49.0455 62.4355 46.9478L62.4355 34.5616C62.4355 32.7636 60.8243 31.0655 59.0116 31.0655L8.55964 31.0655"/>
	<path fill="#99CC62" d="M59.0117 27.6692L8.55966 27.6692C6.2435 27.6692 4.12875 25.5716 4.12875 23.1742L4.12875 10.788C4.12875 8.39067 6.2435 6.293 8.55966 6.293L59.0117 6.293C61.3279 6.293 63.4426 8.39067 63.4426 10.788L63.4426 23.1742C63.4426 25.5716 61.7306 27.6692 59.0117 27.6692"/>
	<path fill="#2D1B0A" d="M59.0116 28.6681L8.55964 28.6681C5.63926 28.6681 3.1217 26.071 3.1217 23.1742L3.1217 10.788C3.1217 7.89121 5.63926 5.2941 8.55964 5.2941L59.0116 5.2941C61.932 5.2941 64.4496 7.89121 64.4496 10.788L64.4496 23.1742C64.4496 26.2708 62.1334 28.6681 59.0116 28.6681M8.55964 7.29188C6.74699 7.29188 5.13575 8.98999 5.13575 10.788L5.13575 23.1742C5.13575 24.9722 6.74699 26.6703 8.55964 26.6703L59.0116 26.6703C61.3278 26.6703 62.4355 24.9722 62.4355 23.1742L62.4355 10.788C62.4355 8.98999 60.8243 7.29188 59.0116 7.29188L8.55964 7.29188"/>
	<path fill="#132C2D" d="M75.9297 77.6138C75.9297 83.2408 71.376 87.8025 65.7588 87.8025C60.1415 87.8025 55.5878 83.2408 55.5878 77.6138C55.5878 71.9867 60.1415 67.4251 65.7588 67.4251C71.376 67.4251 75.9297 71.9867 75.9297 77.6138"/>
	<path fill="#2D1A0B" d="M65.7588 88.202C59.918 88.202 55.0843 83.4074 55.0843 77.5139C55.0843 71.6205 59.918 66.8258 65.7588 66.8258C71.5995 66.8258 76.4332 71.6205 76.4332 77.5139C76.4332 83.4074 71.7002 88.202 65.7588 88.202M65.7588 67.9246C60.4215 67.9246 56.0913 72.2198 56.0913 77.6138C56.0913 82.9079 60.4215 87.303 65.7588 87.303C71.096 87.303 75.4262 83.0078 75.4262 77.6138C75.4262 72.2198 71.096 67.9246 65.7588 67.9246"/>
	<path fill="#DDD" d="M71.4989 77.3141C71.4989 80.569 68.8388 83.2076 65.5574 83.2076C62.276 83.2076 59.616 80.569 59.616 77.3141C59.616 74.0592 62.276 71.4206 65.5574 71.4206C68.8388 71.4206 71.4989 74.0592 71.4989 77.3141"/>
</svg>
