<?xml version="1.0" encoding="utf-8" ?>
<svg xmlns="http://www.w3.org/2000/svg" xmlns:xlink="http://www.w3.org/1999/xlink" width="108" height="86">
	<path fill="white" d="M85.8532 86C81.2663 86 77.4772 82.1325 77.4772 77.3491C77.4772 76.5349 77.5769 75.8225 77.7764 75.1101L78.4744 72.5657L47.3638 72.5657L47.9621 75.0083C48.0618 75.6189 48.1615 76.2296 48.1615 76.942C48.1615 81.7254 44.3724 85.5929 39.7856 85.5929C35.1988 85.5929 31.4097 81.7254 31.4097 76.942C31.4097 76.2296 31.5094 75.4154 31.7088 74.703L32.3071 72.2604L29.7146 72.1586C29.7146 72.1586 29.1163 70.4284 28.4183 67.884L11.8659 6.10651L0 6.10651L0 0L16.4527 0L20.6407 15.2663L101.708 15.5716C103.702 15.5716 105.497 16.4876 106.693 18.116C107.89 19.7444 108.289 21.7799 107.79 23.7136L97.3202 67.6805C96.9213 69.3089 95.8245 70.7337 94.4285 71.6497L92.9328 72.5657L93.6308 74.1941C94.0296 75.2118 94.2291 76.3314 94.2291 77.4509C94.2291 82.1325 90.5397 86 85.8532 86"/>
	<path fill="#2D1B0A" d="M91.1379 70.7338L34.6005 70.7338C32.6062 70.7338 30.9111 69.4108 30.4125 67.4771L13.2619 4.37645L1.5954 4.37645L1.5954 2.34095L14.8573 2.34095L32.4068 66.9681C32.7059 67.9859 33.6034 68.6983 34.7002 68.6983L91.2377 68.6983C92.3345 68.6983 93.2319 67.9859 93.5311 66.8663L104.001 22.8995C104.2 22.1872 104.001 21.3729 103.602 20.7623C103.103 20.1516 102.505 19.8463 101.707 19.8463L23.4326 19.6427L23.4326 17.6073L101.707 17.8107C103.103 17.8107 104.3 18.4214 105.197 19.541C105.995 20.6604 106.294 22.0854 105.995 23.4084L95.5253 67.3753C94.927 69.309 93.1322 70.7338 91.1379 70.7338"/>
	<path fill="#EFEFEF" d="M23.3328 23.0012L96.7218 23.4083C98.6163 23.4083 100.312 25.0367 99.813 26.7669L91.437 64.5255C91.1378 65.7468 88.5453 66.4592 87.249 66.4592L38.1901 66.4592C36.8938 66.4592 35.6973 65.645 35.3981 64.4237L23.9311 24.6296"/>
	<path fill="#89C5E5" d="M91.2377 68.9017L34.3015 68.6982C33.3043 68.6982 32.4069 67.9858 32.2075 66.968L31.2104 61.065L94.7278 61.065L93.7305 66.8662C93.5312 68.0875 92.4343 68.9017 91.2377 68.9017"/>
	<path fill="#2D1B0A" d="M91.2378 69.9195L34.3015 69.7159C32.8058 69.7159 31.5095 68.5964 31.3101 67.0698L30.1135 59.9455L96.024 59.9455L94.8274 66.968C94.4286 68.6982 92.9329 69.9195 91.2378 69.9195M91.2378 67.884C92.0355 67.884 92.6337 67.3751 92.7335 66.5609L93.5312 61.981L32.4069 61.981L33.2046 66.6627C33.3043 67.1716 33.7032 67.5787 34.3015 67.5787L91.2378 67.884"/>
	<path fill="#2D1B0A" d="M46.0676 77.1456C46.0676 80.743 43.255 83.6592 39.7856 83.6592C36.3162 83.6592 33.5037 80.743 33.5037 77.1456C33.5037 73.5482 36.3162 70.632 39.7856 70.632C43.255 70.632 46.0676 73.5482 46.0676 77.1456"/>
	<path fill="#2D1B0A" d="M92.2348 77.5527C92.2348 81.1501 89.3777 84.0663 85.8532 84.0663C82.3287 84.0663 79.4715 81.1501 79.4715 77.5527C79.4715 73.9553 82.3287 71.0391 85.8532 71.0391C89.3777 71.0391 92.2348 73.9553 92.2348 77.5527"/>
	<path fill="#FFD071" d="M65.9104 49.3609L88.8445 49.3609L88.8445 58.4189L65.9104 58.4189L65.9104 49.3609"/>
	<path fill="#2D1B0A" d="M89.8416 59.5385L64.9133 59.5385L64.9133 48.3432L89.8416 48.3432L89.8416 59.5385M66.9076 57.5029L87.8474 57.5029L87.8474 50.4804L66.9076 50.4804L66.9076 57.5029"/>
	<path fill="#EA5050" d="M36.6945 35.1124L46.1673 35.1124L46.1673 58.2154L36.6945 58.2154L36.6945 35.1124"/>
	<path fill="#2D1B0A" d="M47.2641 59.2332L35.7971 59.2332L35.7971 34.0947L47.2641 34.0947L47.2641 59.2332M37.6917 57.1977L45.1702 57.1977L45.1702 36.1302L37.6917 36.1302L37.6917 57.1977"/>
	<path fill="#99CC62" d="M61.6228 52.6177C61.6228 55.7654 59.1228 58.3171 56.0389 58.3171C52.955 58.3171 50.4549 55.7654 50.4549 52.6177C50.4549 49.47 52.955 46.9183 56.0389 46.9183C59.1228 46.9183 61.6228 49.47 61.6228 52.6177"/>
	<path fill="#2D1B0A" d="M56.0389 59.4366C52.3495 59.4366 49.4578 56.3834 49.4578 52.7195C49.4578 49.0556 52.4492 46.0023 56.0389 46.0023C59.6286 46.0023 62.62 49.0556 62.62 52.7195C62.62 56.3834 59.7283 59.4366 56.0389 59.4366M56.0389 47.9361C53.4463 47.9361 51.4521 50.0734 51.4521 52.6177C51.4521 55.1621 53.5461 57.2994 56.0389 57.2994C58.5317 57.2994 60.6257 55.1621 60.6257 52.6177C60.6257 50.0734 58.6314 47.9361 56.0389 47.9361"/>
</svg>
