<?xml version="1.0" encoding="utf-8" ?>
<svg xmlns="http://www.w3.org/2000/svg" xmlns:xlink="http://www.w3.org/1999/xlink" width="76" height="92">
	<path fill="white" d="M13.682 92C6.19185 92 0 85.833 0 78.1495L0 13.8505C0 6.26813 6.09198 0 13.682 0L62.318 0C69.8081 0 76 6.16703 76 13.8505L76 78.1495C76 85.7319 69.908 92 62.318 92L13.682 92"/>
	<path fill="#353951" d="M62.1184 88.7649L13.4824 88.7649C7.59019 88.7649 2.7965 83.9121 2.7965 77.9473L2.7965 13.6485C2.7965 7.6836 7.59019 2.83085 13.4824 2.83085L62.1184 2.83085C68.0107 2.83085 72.8044 7.6836 72.8044 13.6485L72.8044 77.9473C72.8044 83.9121 68.0107 88.7649 62.1184 88.7649"/>
	<path fill="#2D1B0A" d="M62.1184 89.7758L13.4824 89.7758C7.09084 89.7758 1.7978 84.5187 1.7978 77.9473L1.7978 13.6484C1.7978 7.17804 6.99097 1.8198 13.4824 1.8198L62.1184 1.8198C68.51 1.8198 73.8031 7.07694 73.8031 13.6484L73.8031 77.9473C73.8031 84.5187 68.6099 89.7758 62.1184 89.7758M13.4824 3.94288C8.18939 3.94288 3.79517 8.29013 3.79517 13.7495L3.79517 78.0484C3.79517 83.4066 8.08952 87.855 13.4824 87.855L62.1184 87.855C67.4115 87.855 71.8057 83.5077 71.8057 78.0484L71.8057 13.7495C71.8057 8.39123 67.5113 3.94288 62.1184 3.94288L13.4824 3.94288"/>
	<path fill="#FFD071" d="M23.7687 46.4045L15.979 46.4045C14.3811 46.4045 13.0828 45.0902 13.0828 43.4726L13.0828 35.5868C13.0828 33.9693 14.3811 32.655 15.979 32.655L23.7687 32.655C25.3666 32.655 26.6649 33.9693 26.6649 35.5868L26.6649 43.4726C26.6649 44.9891 25.3666 46.4045 23.7687 46.4045"/>
	<path fill="#2D1B0A" d="M23.7687 47.4154L15.979 47.4154C13.7819 47.4154 12.0841 45.5956 12.0841 43.4726L12.0841 35.5869C12.0841 33.3627 13.8817 31.644 15.979 31.644L23.7687 31.644C25.9658 31.644 27.6636 33.4638 27.6636 35.5869L27.6636 43.4726C27.6636 45.5956 25.9658 47.4154 23.7687 47.4154M15.979 33.5649C14.8804 33.5649 14.0815 34.4748 14.0815 35.4858L14.0815 43.3715C14.0815 44.4836 14.9803 45.2924 15.979 45.2924L23.7687 45.2924C24.8673 45.2924 25.6662 44.3825 25.6662 43.3715L25.6662 35.4858C25.6662 34.3737 24.7674 33.5649 23.7687 33.5649L15.979 33.5649"/>
	<path fill="#FFD071" d="M41.9447 46.4045L34.155 46.4045C32.5571 46.4045 31.2588 45.0902 31.2588 43.4726L31.2588 35.5868C31.2588 33.9693 32.5571 32.655 34.155 32.655L41.9447 32.655C43.5426 32.655 44.8409 33.9693 44.8409 35.5868L44.8409 43.4726C44.8409 44.9891 43.5426 46.4045 41.9447 46.4045"/>
	<path fill="#2D1B0A" d="M41.9448 47.4154L34.155 47.4154C31.9579 47.4154 30.2602 45.5956 30.2602 43.4726L30.2602 35.5869C30.2602 33.3627 32.0578 31.644 34.155 31.644L41.9448 31.644C44.1418 31.644 45.8397 33.4638 45.8397 35.5869L45.8397 43.4726C45.8397 45.5956 44.1418 47.4154 41.9448 47.4154M34.155 33.5649C33.0565 33.5649 32.2575 34.4748 32.2575 35.4858L32.2575 43.3715C32.2575 44.4836 33.1563 45.2924 34.155 45.2924L41.9448 45.2924C43.0434 45.2924 43.8423 44.3825 43.8423 43.3715L43.8423 35.4858C43.8423 34.3737 42.9435 33.5649 41.9448 33.5649L34.155 33.5649"/>
	<path fill="#FFD071" d="M59.6227 46.4045L51.833 46.4045C50.2351 46.4045 48.9368 45.0902 48.9368 43.4726L48.9368 35.5868C48.9368 33.9693 50.2351 32.655 51.833 32.655L59.6227 32.655C61.2206 32.655 62.5243 33.9693 62.5243 35.5868L62.5243 43.4726C62.6188 44.9891 61.3205 46.4045 59.6227 46.4045"/>
	<path fill="#2D1B0A" d="M59.6244 47.4154L51.8327 47.4154C49.6351 47.4154 47.937 45.5956 47.937 43.4726L47.937 35.5869C47.937 33.3627 49.735 31.644 51.8327 31.644L59.6244 31.644C61.822 31.644 63.5241 33.4638 63.5241 35.5869L63.5241 43.4726C63.62 45.5956 61.822 47.4154 59.6244 47.4154M51.8327 33.5649C50.7339 33.5649 49.9348 34.4748 49.9348 35.4858L49.9348 43.3715C49.9348 44.4836 50.8338 45.2924 51.8327 45.2924L59.6244 45.2924C60.7232 45.2924 61.5223 44.3825 61.5223 43.3715L61.5223 35.4858C61.5223 34.3737 60.6233 33.5649 59.6244 33.5649L51.8327 33.5649"/>
	<path fill="#7FCCD1" d="M23.7687 65.6133L15.979 65.6133C14.3811 65.6133 13.0828 64.299 13.0828 62.6814L13.0828 54.7956C13.0828 53.1781 14.3811 51.8638 15.979 51.8638L23.7687 51.8638C25.3666 51.8638 26.6649 53.1781 26.6649 54.7956L26.6649 62.6814C26.6649 64.299 25.3666 65.6133 23.7687 65.6133"/>
	<path fill="#2D1B0A" d="M23.7687 66.6242L15.979 66.6242C13.7819 66.6242 12.0841 64.8044 12.0841 62.6814L12.0841 54.7957C12.0841 52.5715 13.8817 50.8528 15.979 50.8528L23.7687 50.8528C25.9658 50.8528 27.6636 52.6726 27.6636 54.7957L27.6636 62.6814C27.6636 64.8044 25.9658 66.6242 23.7687 66.6242M15.979 52.7737C14.8804 52.7737 14.0815 53.6836 14.0815 54.6946L14.0815 62.5803C14.0815 63.6924 14.9803 64.5012 15.979 64.5012L23.7687 64.5012C24.8673 64.5012 25.6662 63.5913 25.6662 62.5803L25.6662 54.6946C25.6662 53.5825 24.7674 52.7737 23.7687 52.7737L15.979 52.7737"/>
	<path fill="#7FCCD1" d="M41.9447 65.6133L34.155 65.6133C32.5571 65.6133 31.2588 64.299 31.2588 62.6814L31.2588 54.7956C31.2588 53.1781 32.5571 51.8638 34.155 51.8638L41.9447 51.8638C43.5426 51.8638 44.8409 53.1781 44.8409 54.7956L44.8409 62.6814C44.8409 64.299 43.5426 65.6133 41.9447 65.6133"/>
	<path fill="#2D1B0A" d="M41.9448 66.6242L34.155 66.6242C31.9579 66.6242 30.2602 64.8044 30.2602 62.6814L30.2602 54.7957C30.2602 52.5715 32.0578 50.8528 34.155 50.8528L41.9448 50.8528C44.1418 50.8528 45.8397 52.6726 45.8397 54.7957L45.8397 62.6814C45.8397 64.8044 44.1418 66.6242 41.9448 66.6242M34.155 52.7737C33.0565 52.7737 32.2575 53.6836 32.2575 54.6946L32.2575 62.5803C32.2575 63.6924 33.1563 64.5012 34.155 64.5012L41.9448 64.5012C43.0434 64.5012 43.8423 63.5913 43.8423 62.5803L43.8423 54.6946C43.8423 53.5825 42.9435 52.7737 41.9448 52.7737L34.155 52.7737"/>
	<path fill="#7FCCD1" d="M59.6227 65.6133L51.833 65.6133C50.2351 65.6133 48.9368 64.299 48.9368 62.6814L48.9368 54.7956C48.9368 53.1781 50.2351 51.8638 51.833 51.8638L59.6227 51.8638C61.2206 51.8638 62.5243 53.1781 62.5243 54.7956L62.5243 62.6814C62.6188 64.299 61.3205 65.6133 59.6227 65.6133"/>
	<path fill="#2D1B0A" d="M59.6244 66.6242L51.8327 66.6242C49.6351 66.6242 47.937 64.8044 47.937 62.6814L47.937 54.7957C47.937 52.5715 49.735 50.8528 51.8327 50.8528L59.6244 50.8528C61.822 50.8528 63.5241 52.6726 63.5241 54.7957L63.5241 62.6814C63.62 64.8044 61.822 66.6242 59.6244 66.6242M51.8327 52.7737C50.7339 52.7737 49.9348 53.6836 49.9348 54.6946L49.9348 62.5803C49.9348 63.6924 50.8338 64.5012 51.8327 64.5012L59.6244 64.5012C60.7232 64.5012 61.5223 63.5913 61.5223 62.5803L61.5223 54.6946C61.5223 53.5825 60.6233 52.7737 59.6244 52.7737L51.8327 52.7737"/>
	<path fill="#7FCCD1" d="M42.544 83.6089L16.1787 83.6089C14.5808 83.6089 13.2825 82.2946 13.2825 80.677L13.2825 72.7912C13.2825 71.1737 14.5808 69.8594 16.1787 69.8594L42.544 69.8594C44.1419 69.8594 45.4402 71.1737 45.4402 72.7912L45.4402 80.677C45.4402 82.2946 44.1419 83.6089 42.544 83.6089"/>
	<path fill="#2D1B0A" d="M42.544 84.6198L16.1787 84.6198C13.9816 84.6198 12.2838 82.8 12.2838 80.677L12.2838 72.7913C12.2838 70.5671 14.0814 68.8484 16.1787 68.8484L42.544 68.8484C44.7411 68.8484 46.4389 70.6682 46.4389 72.7913L46.4389 80.677C46.4389 82.8 44.6412 84.6198 42.544 84.6198M16.0788 70.7693C14.9803 70.7693 14.1813 71.6792 14.1813 72.6902L14.1813 80.5759C14.1813 81.688 15.0801 82.4968 16.0788 82.4968L42.4441 82.4968C43.5427 82.4968 44.3416 81.5869 44.3416 80.5759L44.3416 72.6902C44.3416 71.5781 43.4428 70.7693 42.4441 70.7693L16.0788 70.7693"/>
	<path fill="#FFD071" d="M59.8212 83.6089L52.0315 83.6089C50.4336 83.6089 49.1353 82.2946 49.1353 80.677L49.1353 72.7912C49.1353 71.1737 50.4336 69.8594 52.0315 69.8594L59.8212 69.8594C61.4191 69.8594 62.7174 71.1737 62.7174 72.7912L62.7174 80.677C62.7174 82.2946 61.4191 83.6089 59.8212 83.6089"/>
	<path fill="#2D1B0A" d="M59.8213 84.6198L52.0315 84.6198C49.8344 84.6198 48.1367 82.8 48.1367 80.677L48.1367 72.7913C48.1367 70.5671 49.9343 68.8484 52.0315 68.8484L59.8213 68.8484C62.0183 68.8484 63.7161 70.6682 63.7161 72.7913L63.7161 80.677C63.7161 82.8 62.0183 84.6198 59.8213 84.6198M52.0315 70.7693C50.933 70.7693 50.134 71.6792 50.134 72.6902L50.134 80.5759C50.134 81.688 51.0328 82.4968 52.0315 82.4968L59.8213 82.4968C60.9198 82.4968 61.7188 81.5869 61.7188 80.5759L61.7188 72.6902C61.7188 71.5781 60.82 70.7693 59.8213 70.7693L52.0315 70.7693"/>
	<path fill="#DEF2D6" d="M57.5243 24.2637L18.0763 24.2637C14.0815 24.2637 10.8857 21.0286 10.8857 16.9846L10.8857 15.266C10.8857 11.222 14.0815 7.98684 18.0763 7.98684L57.5243 7.98684C61.5191 7.98684 64.715 11.222 64.715 15.266L64.715 16.9846C64.715 21.0286 61.5191 24.2637 57.5243 24.2637"/>
	<path fill="#2D1B0A" d="M57.5244 25.2747L18.0763 25.2747C13.5822 25.2747 9.8871 21.534 9.8871 16.9846L9.8871 15.266C9.8871 10.7165 13.5822 6.97585 18.0763 6.97585L57.5244 6.97585C62.0185 6.97585 65.7136 10.7165 65.7136 15.266L65.7136 16.9846C65.7136 21.534 62.0185 25.2747 57.5244 25.2747M18.0763 8.99783C14.6808 8.99783 11.8845 11.8286 11.8845 15.266L11.8845 16.9846C11.8845 20.4221 14.6808 23.2528 18.0763 23.2528L57.5244 23.2528C60.92 23.2528 63.7163 20.4221 63.7163 16.9846L63.7163 15.266C63.7163 11.8286 60.92 8.99783 57.5244 8.99783L18.0763 8.99783"/>
</svg>
