<?xml version="1.0" encoding="utf-8" ?>
<svg xmlns="http://www.w3.org/2000/svg" xmlns:xlink="http://www.w3.org/1999/xlink" width="108" height="92">
	<path fill="white" d="M19.6639 92C15.2269 92 11.5966 88.3604 11.5966 83.9121L11.5966 56.5143L8.36975 59.4462L0 50.1451L54.958 0L105.782 47.2132L108 49.2352L97.1092 61.1648L97.1092 83.9121C97.1092 88.3604 93.479 92 89.042 92L19.6639 92"/>
	<path fill="#F9F7F2" d="M89.2437 88.7648L19.7647 88.7648C17.042 88.7648 14.7227 86.5406 14.7227 83.7098L14.7227 48.9319L54.353 13.345L94.1849 48.9319L94.1849 83.7098C94.1849 86.4395 91.9664 88.7648 89.2437 88.7648"/>
	<path fill="#2D1B0A" d="M89.2437 89.7758L19.7647 89.7758C16.437 89.7758 13.7143 87.0461 13.7143 83.7098L13.7143 48.5274L54.353 12.0307L95.1933 48.5274L95.1933 83.7098C95.1933 87.0461 92.5714 89.7758 89.2437 89.7758M15.7311 49.4373L15.7311 83.7098C15.7311 85.934 17.5462 87.7538 19.7647 87.7538L89.2437 87.7538C91.4622 87.7538 93.2773 85.934 93.2773 83.7098L93.2773 49.4373L54.4538 14.7604L15.7311 49.4373"/>
	<path fill="#E5E0D3" d="M73.2115 88.2594L36.9089 88.2594C35.3963 88.2594 34.2871 87.0463 34.2871 85.6309L34.2871 49.2353C34.2871 47.7188 35.4971 46.6067 36.9089 46.6067L73.2115 46.6067C74.7241 46.6067 75.8392 47.8199 75.8392 49.2353L75.8392 85.6309C75.9342 87.1474 74.7241 88.2594 73.2115 88.2594"/>
	<path fill="#2D1B0A" d="M73.2138 89.2704L36.9079 89.2704C34.8909 89.2704 33.2773 87.6528 33.2773 85.6309L33.2773 49.2353C33.2773 47.2133 34.8909 45.5957 36.9079 45.5957L73.2138 45.5957C75.2308 45.5957 76.8489 47.2133 76.8489 49.2353L76.8489 85.6309C76.9453 87.6528 75.3317 89.2704 73.2138 89.2704M36.9079 47.6177C36.0003 47.6177 35.2943 48.3254 35.2943 49.2353L35.2943 85.6309C35.2943 86.5408 36.0003 87.2484 36.9079 87.2484L73.2138 87.2484C74.1215 87.2484 74.8274 86.5408 74.8274 85.6309L74.8274 49.2353C74.8274 48.3254 74.1215 47.6177 73.2138 47.6177L36.9079 47.6177"/>
	<path fill="#7FCCD1" d="M76.0335 53.9869L34.1848 53.9869L34.1848 49.5385C34.1848 47.8198 35.4957 46.5055 37.21 46.5055L73.0083 46.5055C74.7226 46.5055 76.0335 47.8198 76.0335 49.5385L76.0335 53.9869"/>
	<path fill="#2D1B0A" d="M77.0418 54.9978L33.1763 54.9978L33.1763 49.5385C33.1763 47.3143 34.9914 45.4945 37.2099 45.4945L73.0082 45.4945C75.2267 45.4945 77.0418 47.3143 77.0418 49.5385L77.0418 54.9978M35.1931 52.9759L75.025 52.9759L75.025 49.5385C75.025 48.4264 74.1175 47.5165 73.0082 47.5165L37.2099 47.5165C36.1007 47.5165 35.1931 48.4264 35.1931 49.5385L35.1931 52.9759"/>
	<path fill="#FFD071" d="M44.3697 74.6111L52.2352 74.6111C53.0419 74.6111 53.647 75.1164 53.647 75.9252L53.647 83.8111C53.647 84.4175 53.0419 85.1253 52.2352 85.1253L44.3697 85.1253C43.5629 85.1253 42.9579 84.5186 42.9579 83.8111L42.9579 75.9252C43.1596 75.2176 43.6638 74.6111 44.3697 74.6111M49.9159 62.6813L49.9159 70.567C49.9159 71.3758 50.5209 71.9825 51.3277 71.9825L59.1932 71.9825C59.9999 71.9825 60.605 71.3758 60.605 70.567L60.605 62.6813C60.605 61.8725 59.9999 61.2659 59.1932 61.2659L51.3277 61.2659C50.5209 61.367 49.9159 62.0747 49.9159 62.6813M56.8739 75.8242L56.8739 83.7099C56.8739 84.3165 57.3781 85.0241 58.1848 85.0241L66.0503 85.0241C66.6554 85.0241 67.3613 84.4175 67.3613 83.7099L67.3613 75.8242C67.3613 75.0154 66.7562 74.5099 66.0503 74.5099L58.1848 74.5099C57.3781 74.6111 56.8739 75.2176 56.8739 75.8242"/>
	<path fill="#2D1B0A" d="M66.0504 86.0352L58.1848 86.0352C56.7731 86.0352 55.8655 84.822 55.8655 83.7099L55.8655 75.8242C55.8655 74.7121 56.7731 73.499 58.1848 73.499L66.0504 73.499C67.3613 73.499 68.3697 74.5099 68.3697 75.8242L68.3697 83.7099C68.3697 84.9231 67.2605 86.0352 66.0504 86.0352M58.1848 75.622C57.8823 75.622 57.8823 75.9253 57.8823 75.9253L57.8823 83.811C57.8823 83.811 57.8823 84.1143 58.1848 84.1143L66.0504 84.1143C66.1512 84.1143 66.3529 83.9121 66.3529 83.811L66.3529 75.9253C66.3529 75.8242 66.3529 75.622 66.0504 75.622L58.1848 75.622M52.1344 86.0352L44.2689 86.0352C42.9579 86.0352 41.8487 85.0242 41.8487 83.7099L41.8487 75.622C42.4537 74.2066 43.3613 73.499 44.2689 73.499L52.1344 73.499C53.5462 73.499 54.5546 74.5099 54.5546 75.8242L54.5546 83.7099C54.6554 84.9231 53.4453 86.0352 52.1344 86.0352M43.8655 76.1275L43.8655 83.7099C43.8655 83.811 43.9664 84.0132 44.2689 84.0132L52.1344 84.0132C52.4369 84.0132 52.5378 83.811 52.5378 83.7099L52.5378 75.8242C52.5378 75.7231 52.5378 75.5209 52.1344 75.5209L44.2689 75.5209L44.2689 74.5099L44.2689 75.5209C44.2689 75.622 44.0672 75.7231 43.8655 76.1275M59.1932 72.9935L51.3277 72.9935C49.9159 72.9935 48.9075 71.8814 48.9075 70.5671L48.9075 62.6814C48.9075 61.5693 49.9159 60.4572 51.2269 60.255L59.2941 60.255C60.7058 60.255 61.7142 61.3671 61.7142 62.6814L61.7142 70.5671C61.6134 71.8814 60.5042 72.9935 59.1932 72.9935M50.9243 62.6814L50.9243 70.5671C50.9243 70.8704 51.126 70.9715 51.3277 70.9715L59.1932 70.9715C59.4958 70.9715 59.5966 70.7693 59.5966 70.5671L59.5966 62.6814C59.5966 62.3781 59.3949 62.277 59.1932 62.277L51.4285 62.277C51.126 62.277 50.9243 62.5803 50.9243 62.6814"/>
	<path fill="#7FCCD1" d="M103.765 49.2856L54.6555 4.19555L4.2353 50.1955L8.57143 55.0482L54.4538 13.0922L99.4286 54.0373"/>
	<path fill="#2D1B0A" d="M8.5714 56.4132L2.8235 50.1451L54.6554 2.8308L105.176 49.2352L99.4285 55.5033L54.4538 14.4572L8.5714 56.4132M5.74787 50.2462L8.77308 53.5824L54.6554 11.7275L99.5294 52.6726L102.555 49.3363L54.8571 5.56047L5.74787 50.2462"/>
</svg>
