<?xml version="1.0" encoding="utf-8" ?>
<svg xmlns="http://www.w3.org/2000/svg" xmlns:xlink="http://www.w3.org/1999/xlink" width="108" height="92">
	<path fill="white" d="M19.6639 92C15.2269 92 11.5966 88.3604 11.5966 83.9121L11.5966 56.5143L8.36975 59.4462L0 50.1451L54.958 0L105.782 47.2132L108 49.2352L97.1092 61.1648L97.1092 83.9121C97.1092 88.3604 93.479 92 89.042 92L19.6639 92"/>
	<path fill="#F9F7F2" d="M89.043 88.7647L19.564 88.7647C16.8413 88.7647 14.522 86.5406 14.522 83.7097L14.522 48.9318L54.1523 13.345L93.9875 48.9318L93.9875 83.7097C94.085 86.4394 91.8665 88.7647 89.043 88.7647"/>
	<path fill="#2D1B0A" d="M89.0443 90.2812L19.5633 90.2812C15.933 90.2812 13.0085 87.3494 13.0085 83.7098L13.0085 48.3252L54.1526 11.4241L95.5008 48.3252L95.5008 83.7098C95.5991 87.3494 92.6747 90.2812 89.0443 90.2812M16.1346 49.6395L16.1346 83.7098C16.1346 85.6307 17.7481 87.2483 19.6642 87.2483L89.1452 87.2483C91.0612 87.2483 92.6747 85.6307 92.6747 83.7098L92.6747 49.6395L54.3542 15.4681L16.1346 49.6395"/>
	<path fill="#EA5050" d="M103.815 49.2856L54.7058 4.19555L4.18485 50.1955L8.62182 55.0482L54.5042 13.0922L99.3782 54.0373"/>
	<path fill="#2D1B0A" d="M8.5714 56.4132L2.8235 50.1451L54.6554 2.8308L105.176 49.2352L99.4285 55.5033L54.4538 14.4572L8.5714 56.4132M5.74787 50.2462L8.77308 53.5824L54.6554 11.7275L99.5294 52.6726L102.555 49.3363L54.8571 5.56047L5.74787 50.2462"/>
	<path fill="#2D1B0A" d="M53.5462 73.4989L43.9664 73.4989L43.9664 71.578L53.5462 71.578L53.5462 67.9385L43.9664 67.9385L43.9664 66.0176L52.437 66.0176L40.7396 48.2242L43.9664 48.2242L50.4202 58.4352L54.7564 65.6132C56.7732 62.7824 57.7816 61.0638 59.2942 58.4352L65.748 48.2242L68.9749 48.2242L57.3783 66.0176L65.8488 66.0176L65.8488 67.9385L56.269 67.9385L56.269 71.578L65.8488 71.578L65.8488 73.4989L56.269 73.4989L56.269 81.9912L53.5462 81.9912L53.5462 73.4989"/>
</svg>
