<?xml version="1.0" encoding="utf-8" ?>
<svg xmlns="http://www.w3.org/2000/svg" xmlns:xlink="http://www.w3.org/1999/xlink" width="98" height="88">
	<path fill="white" d="M51.8824 87.7991C31.2508 87.7991 13.3498 74.6393 7.28173 55.1507C7.07946 54.347 6.57379 52.7397 6.57379 52.7397L0 47.2146L11.226 32.5479L11.226 41.4886C11.226 61.9817 26.6997 79.2603 47.2301 81.5708L51.6801 82.0731L49.1517 78.4566C46.6233 74.8402 45.3086 70.621 45.3086 66.3014C45.3086 54.4475 54.9164 44.8037 66.7492 44.8037C73.1207 44.8037 79.0877 47.6164 83.2343 52.5388L86.6729 56.6575L86.8751 48.7215C87.3808 27.9269 72.0083 10.2466 51.1744 7.73516L47.2301 7.23288L47.3313 1.40639C67.7606 1.90868 85.8638 15.8721 91.3251 35.5616L91.6285 36.7671L98 39.8813L87.0774 59.4703C87.8865 62.2831 88.1899 64.3927 88.1899 66.5023C88.1899 78.3562 78.582 88 66.7492 88C62.6027 88 58.5573 86.7945 55.0175 84.484L51.8824 82.3744L51.8824 87.7991M30.7451 42.9954C25.0815 42.9954 19.6202 40.6849 15.5748 36.5662C15.3725 36.3653 15.2714 36.1644 15.0691 36.0639L11.5294 32.0457L11.3271 30.5388C9.91125 27.6256 9.30444 24.6119 9.30444 21.4977C9.30444 9.64384 18.9123 0 30.7451 0C35.5996 0 40.1507 1.60731 43.9938 4.621L47.129 7.13242L49.1517 10.5479C51.1744 13.863 52.1858 17.6804 52.1858 21.5982C52.2869 33.3516 42.5779 42.9954 30.7451 42.9954"/>
	<path fill="#FFD071" d="M13.2487 21.5982C13.2487 11.7533 21.1373 4.11865 30.6441 4.11865C40.1507 4.11865 48.0392 11.9543 48.0392 21.5982C48.0392 31.3424 40.1507 39.0775 30.6441 39.0775C21.1373 39.0775 13.2487 31.1415 13.2487 21.5982"/>
	<path fill="#2D1B0A" d="M30.644 40.1826C20.6316 40.1826 12.2374 31.7443 12.2374 21.6986C12.2374 11.452 20.5305 3.2146 30.644 3.2146C40.7575 3.2146 49.0506 11.5525 49.0506 21.6986C49.0506 31.8447 40.8587 40.1826 30.644 40.1826M30.644 5.12328C21.643 5.12328 14.2601 12.5571 14.2601 21.5982C14.2601 30.5388 21.7441 38.073 30.644 38.073C39.645 38.073 47.0279 30.6393 47.0279 21.5982C47.0279 12.5571 39.7462 5.12328 30.644 5.12328"/>
	<path fill="#2D1B0A" d="M31.453 20.0914C31.453 20.0914 31.453 20.0914 31.453 19.8904L31.453 14.2648C31.453 14.2648 31.453 14.0639 31.6553 14.0639C32.5655 14.0639 34.6893 14.968 34.6893 14.968L34.6893 12.758C33.7791 12.4566 32.6666 12.2557 31.5541 12.2557C31.5541 12.2557 31.3519 12.2557 31.3519 12.0548L31.3519 10.0457C31.3519 10.0457 31.3519 9.84475 31.1496 9.84475L29.8349 9.84475C29.8349 9.84475 29.6326 9.84475 29.6326 10.0457L29.6326 12.0548C29.6326 12.0548 29.6326 12.2557 29.4303 12.2557C26.8008 12.4566 25.3801 14.1644 25.3801 17.2785C25.3801 18.1827 25.7894 22.201 29.6326 22.6028C29.6326 22.6028 29.6326 22.6028 29.6326 22.8036L29.6326 29.5343C29.6326 29.5343 29.6326 29.7351 29.4303 29.7351C28.1156 29.7351 25.3801 27.9269 25.3801 27.9269L25.3801 29.8357C25.3801 29.8357 27.5087 31.041 29.4303 31.1416C29.4303 31.1416 29.6326 31.1416 29.6326 31.3424L29.6326 33.5526C29.6326 33.5526 29.6326 33.7535 29.8349 33.7535L31.3519 33.7535C31.3519 33.7535 31.5541 33.7535 31.5541 33.5526L31.5541 31.041C31.5541 31.041 31.5541 30.8401 31.7564 30.8401C32.3632 30.7397 36.9143 30.137 36.8148 25.8174C36.7121 22.201 34.0825 20.4932 31.453 20.0914M34.7905 25.9179C34.7905 28.8311 31.453 29.4338 31.0485 29.4338L31.1496 22.6028C31.1496 22.6028 34.7905 23.306 34.7905 25.9179M27.4076 17.0776C27.4076 14.7671 28.7224 14.2648 29.6326 14.1644L29.6326 19.6895C29.6326 19.8904 29.5315 20.0914 29.5315 20.0914C27.8121 20.3927 27.4076 17.9817 27.4076 17.0776"/>
	<path fill="#FFD071" d="M49.2528 66.3015C49.2528 56.4567 57.1414 48.822 66.6481 48.822C76.1548 48.822 84.0434 56.6576 84.0434 66.3015C84.0434 75.9453 76.1548 83.7809 66.6481 83.7809C57.1414 83.7809 49.2528 75.7444 49.2528 66.3015"/>
	<path fill="#2D1B0A" d="M66.6481 84.7854C56.6357 84.7854 48.2415 76.3471 48.2415 66.3014C48.2415 56.0548 56.5346 47.8174 66.6481 47.8174C76.7616 47.8174 85.0547 56.1553 85.0547 66.3014C85.0547 76.4475 76.8628 84.7854 66.6481 84.7854M66.6481 49.7261C57.6471 49.7261 50.2642 57.1599 50.2642 66.201C50.2642 75.1416 57.7482 82.6758 66.6481 82.6758C75.6491 82.6758 83.032 75.2421 83.032 66.201C83.032 57.1599 75.7503 49.7261 66.6481 49.7261"/>
	<path fill="#2D1B0A" d="M68.8731 58.064C69.7833 57.9635 70.8958 58.1644 71.806 58.8676L72.514 57.1598C71.4015 56.6576 70.289 56.4566 68.9742 56.4566C67.1538 56.4566 65.6368 57.1598 64.4231 58.4658C63.1084 59.7717 62.4004 61.379 62.1982 63.3882L60.4789 63.5891C60.2766 63.5891 60.2766 63.5891 60.2766 63.79L60.2766 65.2968C60.2766 65.4977 60.2766 65.4977 60.4789 65.4977L61.7936 65.4977C61.9959 65.4977 61.9959 65.4977 61.9959 65.6987C61.9959 65.8996 61.9959 67.7077 61.9959 67.9088L60.4789 67.9088C60.2766 67.9088 60.2766 67.9088 60.2766 68.1096L60.2766 69.6164C60.2766 69.8174 60.2766 69.8174 60.4789 69.8174L61.9959 69.8174C62.1982 69.8174 62.1982 69.8174 62.1982 70.0182C62.7038 72.0275 63.1084 73.8356 64.2209 74.7397C65.5356 76.0457 66.7493 76.548 68.4686 76.548C69.9856 76.548 72.514 75.6439 72.514 75.6439L72.514 73.4339C70.4913 74.6393 69.581 75.2421 68.4686 75.2421C67.1538 75.2421 66.4458 74.7397 65.5356 73.9361C64.8277 73.2329 64.1197 71.5251 63.9175 70.0182C63.9175 69.8174 63.9175 69.8174 64.1197 69.8174L70.7947 69.8174C70.9969 69.8174 70.9969 69.8174 70.9969 69.6164L70.9969 68.1096C70.9969 67.9088 70.9969 67.9088 70.7947 67.9088L63.8163 67.9088C63.8163 67.7077 63.8163 65.7991 63.8163 65.5982C63.8163 65.3973 63.8163 65.3973 64.0186 65.3973L70.7947 65.3973C70.9969 65.3973 70.9969 65.3973 70.9969 65.1964L71.0981 63.8904C71.0981 63.6895 71.0981 63.6895 70.8958 63.6895L64.322 63.6895C64.1197 63.6895 64.1197 63.4886 64.1197 63.4886C64.4231 62.1827 64.9288 58.6667 68.8731 58.064"/>
	<path fill="#2D1B0A" d="M88.3922 52.137L88.4933 48.3196C88.999 25.0138 70.3901 5.52517 46.8256 5.02288L46.8256 3.01375C70.1878 3.51603 89.1001 22 90.4149 44.8037L93.2467 40.1826L94.966 41.1872L88.3922 52.137"/>
	<path fill="#2D1B0A" d="M51.5789 85.4888C27.9133 85.4888 8.49535 67.1051 6.97832 44.0001L3.94426 48.0184L2.3261 46.8129L8.89989 38.1736L8.89989 41.1873C8.89989 64.4932 28.0144 83.4796 51.4778 83.4796L51.4778 85.4888"/>
</svg>
