<?xml version="1.0" encoding="utf-8" ?>
<svg xmlns="http://www.w3.org/2000/svg" xmlns:xlink="http://www.w3.org/1999/xlink" width="90" height="80">
	<path fill="white" d="M17.7778 80C14.9495 80 12.7273 77.659 12.7273 74.9109L12.7273 73.3842C12.7273 70.5344 15.0505 68.2952 17.7778 68.2952L42.6263 68.2952L42.6263 14.0458C40.8081 13.1298 39.4949 11.6031 38.8889 9.77099L22.9293 9.77099L32.6263 30.8397C34.6465 31.2468 36.2626 32.8753 36.5657 35.0127C36.6667 35.9288 36.7677 36.6412 36.7677 37.4555C36.7677 46.7176 28.4848 54.2494 18.3838 54.2494C8.28283 54.2494 0 46.7176 0 37.4555C0 36.6412 0 35.827 0.20202 34.9109C0.505051 32.8753 2.12121 31.2468 4.0404 30.8397L13.1313 9.77099L12.3232 3.66412L39.3939 3.66412C40.7071 1.42494 43.1313 0 45.7576 0C48.3838 0 50.8081 1.42494 52.1212 3.66412L78.1818 3.66412L78.1818 9.77099L75.8586 9.77099L85.8586 31.4504C87.8788 31.8575 89.4949 33.486 89.798 35.6234C89.899 36.5394 90 37.2519 90 38.0662C90 47.3282 81.7172 54.8601 71.6162 54.8601C61.5152 54.8601 53.2323 47.3282 53.2323 38.0662C53.2323 37.2519 53.3333 36.4377 53.4343 35.5216C53.7374 33.486 55.3535 31.8575 57.2727 31.4504L66.6667 9.77099L52.6263 9.77099C51.9192 11.8066 50.5051 13.4351 48.4848 14.2494L48.4848 68.2952L73.0303 68.2952C75.8586 68.2952 78.0808 70.6361 78.0808 73.3842L78.0808 74.9109C78.0808 77.7608 75.7576 80 73.0303 80L17.7778 80M79.2929 31.3486L71.5152 14.4529L64.2424 31.3486L79.2929 31.3486M25.8586 30.7379L18.0808 13.8422L10.8081 30.7379L25.8586 30.7379"/>
	<path fill="#2D1B0A" d="M14.3434 5.59797L76.2626 5.59797L76.2626 7.63359L14.3434 7.63359L14.3434 5.59797"/>
	<path fill="#2D1B0A" d="M44.6465 6.81935L46.6667 6.81935L46.6667 75.5217L44.6465 75.5217L44.6465 6.81935"/>
	<path fill="#FFD071" d="M50.101 7.32824C50.101 9.74536 48.1564 11.7048 45.7576 11.7048C43.3588 11.7048 41.4142 9.74536 41.4142 7.32824C41.4142 4.91112 43.3588 2.95165 45.7576 2.95165C48.1564 2.95165 50.101 4.91112 50.101 7.32824"/>
	<path fill="#2D1B0A" d="M45.7576 12.7226C42.8283 12.7226 40.404 10.2799 40.404 7.32824C40.404 4.37659 42.8283 1.93384 45.7576 1.93384C48.6869 1.93384 51.1111 4.37659 51.1111 7.32824C51.1111 10.2799 48.7879 12.7226 45.7576 12.7226M45.7576 3.96946C43.9394 3.96946 42.4242 5.49618 42.4242 7.32824C42.4242 9.1603 43.9394 10.687 45.7576 10.687C47.5758 10.687 49.0909 9.1603 49.0909 7.32824C49.0909 5.49618 47.6768 3.96946 45.7576 3.96946"/>
	<path fill="#2D1B0A" d="M6.76763 34.6054L4.94945 33.7912L16.4646 7.02278C16.7677 6.41209 17.2726 6.10675 17.8787 6.10675C18.4848 6.10675 19.0909 6.41209 19.2929 7.02278L31.5152 33.5877L29.6969 34.402L17.8787 8.75306L6.76763 34.6054"/>
	<path fill="#89C5E5" d="M18.2828 51.1959C9.79799 51.1959 2.9293 44.9872 2.9293 37.4554C2.9293 36.8447 2.9293 36.2341 3.13132 35.4198C3.33334 34.402 4.14142 33.6895 5.15152 33.6895L31.5152 33.6895C32.5253 33.6895 33.3333 34.402 33.5354 35.4198C33.6364 36.1323 33.7374 36.8447 33.7374 37.4554C33.6364 44.9872 26.7677 51.1959 18.2828 51.1959"/>
	<path fill="#2D1B0A" d="M18.2834 52.2137C9.29327 52.2137 1.9193 45.5979 1.9193 37.4554C1.9193 36.743 1.9193 36.0305 2.12133 35.318C2.32335 33.8931 3.63653 32.7735 5.05071 32.7735L31.4152 32.7735C32.9304 32.7735 34.1425 33.8931 34.3446 35.318C34.4456 36.1323 34.5476 36.743 34.5476 37.4554C34.6476 45.5979 27.3746 52.2137 18.2834 52.2137M5.15172 34.7073C4.64666 34.7073 4.2426 35.1145 4.14159 35.5216C4.04058 36.2341 3.93957 36.743 3.93957 37.3536C3.93957 44.3766 10.4044 50.0763 18.2834 50.0763C26.1625 50.0763 32.6273 44.3766 32.6273 37.3536C32.6273 36.743 32.5263 36.2341 32.4253 35.5216C32.3243 35.0127 31.9202 34.7073 31.4152 34.7073L5.15172 34.7073"/>
	<path fill="#2D1B0A" d="M60.2021 35.2162L58.3839 34.4021L69.8991 7.63358C70.2021 7.02289 70.7072 6.71755 71.3132 6.71755C71.9193 6.71755 72.5254 7.02289 72.7273 7.63358L84.9496 34.1984L83.1314 35.0127L71.3132 9.36386L60.2021 35.2162"/>
	<path fill="#89C5E5" d="M71.717 51.8066C63.2322 51.8066 56.3635 45.5979 56.3635 38.0661C56.3635 37.4555 56.3635 36.8448 56.5655 36.0305C56.7675 35.0127 57.5756 34.3002 58.5857 34.3002L84.9494 34.3002C85.9595 34.3002 86.7675 35.0127 86.9696 36.0305C87.0706 36.743 87.1716 37.4555 87.1716 38.0661C87.0706 45.5979 80.2019 51.8066 71.717 51.8066"/>
	<path fill="#2D1B0A" d="M71.7176 52.8244C62.7275 52.8244 55.3535 46.2086 55.3535 38.0661C55.3535 37.3537 55.3535 36.6412 55.5555 35.9287C55.7576 34.5038 57.0707 33.3842 58.4849 33.3842L84.8494 33.3842C86.3646 33.3842 87.5767 34.5038 87.7788 35.9287C87.8798 36.743 87.9818 37.3537 87.9818 38.0661C88.0818 46.1068 80.8088 52.8244 71.7176 52.8244M58.5859 35.318C58.0809 35.318 57.6768 35.7252 57.5758 36.1323C57.4748 36.8448 57.3738 37.3537 57.3738 37.9644C57.3738 44.9873 63.8386 50.687 71.7176 50.687C79.5967 50.687 86.0615 44.9873 86.0615 37.9644C86.0615 37.3537 85.9605 36.8448 85.8595 36.1323C85.7585 35.6234 85.3544 35.318 84.8494 35.318L58.5859 35.318"/>
	<path fill="#89C5E5" d="M73.2324 76.9466L17.7779 76.9466C16.6667 76.9466 15.7577 76.0305 15.7577 74.9109L15.7577 73.3842C15.7577 72.2646 16.6667 71.3486 17.7779 71.3486L73.2324 71.3486C74.3436 71.3486 75.2525 72.2646 75.2525 73.3842L75.2525 74.9109C75.2525 75.9288 74.3436 76.9466 73.2324 76.9466"/>
	<path fill="#2D1B0A" d="M73.2323 77.9644L17.7778 77.9644C16.0606 77.9644 14.7475 76.5394 14.7475 74.9109L14.7475 73.3842C14.7475 71.654 16.1616 70.3308 17.7778 70.3308L73.2323 70.3308C74.9495 70.3308 76.2627 71.7557 76.2627 73.3842L76.2627 74.9109C76.2627 76.5394 74.9495 77.9644 73.2323 77.9644M17.6768 72.2646C17.0707 72.2646 16.6667 72.7735 16.6667 73.2824L16.6667 74.8092C16.6667 75.4199 17.1717 75.827 17.6768 75.827L73.1313 75.827C73.7374 75.827 74.1414 75.3181 74.1414 74.8092L74.1414 73.2824C74.1414 72.6718 73.6364 72.2646 73.1313 72.2646L17.6768 72.2646"/>
</svg>
