<?xml version="1.0" encoding="utf-8" ?>
<svg xmlns="http://www.w3.org/2000/svg" xmlns:xlink="http://www.w3.org/1999/xlink" width="90" height="82">
	<path fill="white" d="M79.7645 0L10.2339 0C4.51497 0 0 4.7 0 10.5L0 71.5C0 77.3 4.6153 82 10.2339 82L79.7645 82C85.4834 82 90 77.3 90 71.5L90 10.5C90.0987 4.6 85.4834 0 79.7645 0"/>
	<path fill="#FFE7DC" d="M80.1645 78.5L10.0331 78.5C6.52157 78.5 3.7123 75.7 3.7123 72.2L3.7123 11.9C3.7123 8.4 6.6219 5.6 10.0331 5.6L80.1645 5.6C83.676 5.6 86.4853 8.5 86.4853 11.9L86.4853 72.2C86.4853 75.6 83.676 78.5 80.1645 78.5"/>
	<path fill="#2D1B0A" d="M80.1645 79.5L10.0332 79.5C6.01992 79.5 2.709 76.2 2.709 72.2L2.709 11.9C2.709 7.9 6.01992 4.6 10.0332 4.6L80.1645 4.6C84.1777 4.6 87.4886 7.9 87.4886 11.9L87.4886 72.2C87.4886 76.2 84.1777 79.5 80.1645 79.5M10.0332 6.5C7.12356 6.5 4.71562 8.9 4.71562 11.8L4.71562 72.1C4.71562 75 7.12356 77.4 10.0332 77.4L80.1645 77.4C83.0741 77.4 85.482 75 85.482 72.1L85.482 11.8C85.482 8.9 83.0741 6.5 80.1645 6.5L10.0332 6.5"/>
	<path fill="#FFD071" d="M86.686 21.2L3.7123 21.2L3.7123 10.1C3.7123 6.6 6.6219 3.8 10.0331 3.8L80.2648 3.8C83.7764 3.8 86.5856 6.6 86.5856 10.1L86.5856 21.2"/>
	<path fill="#2D1B0A" d="M87.6893 22.2L2.709 22.2L2.709 10.1C2.709 6.1 6.01992 2.8 10.0332 2.8L80.2648 2.8C84.278 2.8 87.589 6.1 87.589 10.1L87.589 22.2M4.71562 20.2L85.6827 20.2L85.6827 10.1C85.6827 7.2 83.2747 4.8 80.3651 4.8L10.1335 4.8C7.22389 4.8 4.81595 7.2 4.81595 10.1L4.81595 20.2"/>
	<path fill="#2D1B0A" d="M72.1637 4.76491L73.8087 3.61965L85.8193 20.7535L84.1743 21.8988L72.1637 4.76491"/>
	<path fill="#2D1B0A" d="M60.8398 4.75431L62.4848 3.60905L74.4954 20.7429L72.8504 21.8882L60.8398 4.75431"/>
	<path fill="#2D1B0A" d="M48.7797 4.74481L50.4247 3.59955L62.4353 20.7334L60.7903 21.8787L48.7797 4.74481"/>
	<path fill="#2D1B0A" d="M36.6499 4.77821L38.2949 3.63295L50.3055 20.7668L48.6605 21.9121L36.6499 4.77821"/>
	<path fill="#2D1B0A" d="M23.6169 4.75621L25.2619 3.61095L37.2725 20.7448L35.6275 21.8901L23.6169 4.75621"/>
	<path fill="#2D1B0A" d="M10.6677 4.79061L12.3127 3.64535L24.3233 20.7792L22.6783 21.9244L10.6677 4.79061"/>
	<path fill="#2D1B0A" d="M2.92622 10.1143L4.61399 9.0326L12.2669 20.8921L10.5791 21.9738L2.92622 10.1143"/>
	<path fill="#EA5050" d="M38.4267 47.2L38.4267 36.7L47.5568 41.9L56.6869 47.2L47.5568 52.4L38.4267 57.7"/>
	<path fill="#2D1B0A" d="M37.4234 59.4L37.4234 35L58.6936 47.2L37.4234 59.4M39.43 38.4L39.43 55.9L54.6803 47.1L39.43 38.4"/>
</svg>
