<?xml version="1.0" encoding="utf-8" ?>
<svg xmlns="http://www.w3.org/2000/svg" xmlns:xlink="http://www.w3.org/1999/xlink" width="116" height="80">
	<path fill="white" d="M60.7525 80C59.8474 80 58.9423 79.697 58.2383 79.1919L44.8623 69.4949L20.4235 66.8687C20.0212 66.8687 19.619 66.6667 19.2167 66.4646C18.5127 66.2626 18.1104 66.0606 17.7081 65.8586L2.22017 56.7677C0.812175 55.9596 0 54.3434 0 52.7273C0 51.1111 1.11389 49.596 2.62245 48.9899L43.3537 31.5152L42.7503 30.5051C41.1412 27.6768 40.3366 25.0505 40.1355 22.0202C39.3309 11.2121 47.276 1.51515 58 0.20202C58.8417 0.10101 59.7468 0 60.652 0C65.5799 0 70.4074 1.81818 74.1285 5.05051C78.5536 8.9899 81.0679 14.5455 81.0679 20.5051C81.0679 26.8687 78.2519 31.3131 75.1342 35.1515L74.0279 36.5657L98.165 39.0909C99.0701 39.1919 99.8747 39.596 100.478 40.202C100.88 40.5051 114.156 50.101 114.156 50.101C115.463 51.0101 116.167 52.5253 116 54.1414C115.765 55.7576 114.759 57.0707 113.351 57.6768L62.764 79.596C61.9594 79.899 61.356 80 60.7525 80"/>
	<path fill="#EDEDED" d="M47.0921 66.3637L60.3647 76.0607C60.5658 76.2281 60.8675 76.2281 61.1691 76.1617L111.746 54.2425C112.177 54.0405 112.349 53.2324 111.847 52.9294L98.3726 43.2324C98.1715 43.0304 97.8699 43.0304 97.6688 43.1314L47.2932 65.0506C46.6899 65.2526 46.5894 66.0607 47.0921 66.3637M70.5203 39.192L55.2367 30.4294C55.0356 30.4294 54.7339 30.4294 54.5328 30.4294L4.0567 52.2223C3.4534 52.4243 3.4534 53.2324 3.95615 53.6365L19.4409 62.7274C19.642 62.8284 19.9436 62.8284 20.1447 62.7274L70.4197 40.7072C71.023 40.4041 71.023 39.5961 70.5203 39.192"/>
	<path fill="#2D1B0A" d="M60.8404 77.2729C60.4382 77.2729 60.1366 77.172 59.8349 76.9701L46.5623 67.2823C46.0596 66.8787 45.7579 66.2732 45.8585 65.6677C45.959 65.0622 46.3612 64.4567 46.9645 64.2549L97.3401 42.3565C97.9434 42.1547 98.5467 42.1547 99.0494 42.5583L112.523 52.2461C113.025 52.6497 113.246 53.2552 113.246 53.8607C113.126 54.4662 112.724 55.0717 112.121 55.2735L61.5443 77.172C61.2426 77.172 61.0415 77.2729 60.8404 77.2729M47.97 65.7686L60.8404 75.1537L110.914 53.4571L97.8428 44.072L47.97 65.7686M19.816 63.7503C19.5144 63.7503 19.2127 63.6494 18.9111 63.5485L3.42635 54.4662C2.82305 54.1635 2.5214 53.4571 2.5214 52.8516C2.5214 52.2461 2.9236 51.5397 3.62745 51.3379L54.1036 29.6413C54.6063 29.5006 55.2096 29.5006 55.7124 29.7422L70.996 38.4208C71.5993 38.7236 71.9009 39.43 71.9009 40.0354C71.9009 40.7418 71.4987 41.3473 70.7949 41.5492L20.5199 63.5485C20.3188 63.6494 20.0171 63.7503 19.816 63.7503M4.83405 52.9525L19.816 61.732L69.5883 39.9345L54.8074 31.5586L4.83405 52.9525"/>
	<path fill="white" d="M20.8783 63.1313L45.9152 65.8586C45.9152 65.8586 46.0158 65.8586 46.0158 65.8586L97.6985 43.3333C98.0001 43.2323 97.8806 42.8283 97.5979 42.8283L71.8571 40.202C71.8571 40.202 71.7566 40.202 71.7566 40.202L20.7777 62.7273C20.4761 62.6262 20.5956 63.0303 20.8783 63.1313"/>
	<path fill="#2D1B0A" d="M45.8627 66.7677C45.8627 66.7677 45.7622 66.7677 45.7622 66.7677L20.7211 64.0404C20.1177 63.9394 19.7154 63.5354 19.5958 62.9293C19.5958 62.3232 19.816 61.8182 20.4194 61.5152L71.4067 38.9899C71.6078 38.8889 71.8089 38.8889 72.0101 38.8889L97.7551 41.5152C98.3585 41.6162 98.7608 42.0202 98.8804 42.6263C98.9619 43.2323 98.6602 43.7374 98.0568 44.0404L46.3656 66.5657C46.265 66.7677 46.0639 66.7677 45.8627 66.7677M23.6375 62.3232L45.8627 64.6465L94.8387 43.3333L72.0101 41.0101L23.6375 62.3232"/>
	<path fill="#7FCCD1" d="M61.5443 53.6363C62.047 37.5758 77.3306 33.6363 77.3306 20.5051C77.3306 10.404 68.6833 2.42422 58.3267 3.73735C49.4783 4.74745 43.0431 12.8283 43.6072 21.7171C44.4508 33.8383 58.93 38.0807 59.4327 53.6363"/>
	<path fill="#2D1B0A" d="M58.4058 53.6363C58.1043 45.6565 53.9817 40.707 50.0602 35.9595C46.4404 31.7171 43.0217 27.5757 42.5704 21.7171C41.9157 12.3231 48.8536 3.73727 58.1043 2.72717C63.3329 2.0201 68.3604 3.53525 72.1813 6.9696C76.0022 10.4039 78.2142 15.2524 78.2142 20.505C78.2142 27.1716 74.5945 31.5151 70.7736 36.0605C66.7515 40.808 62.7296 45.6565 62.4278 53.6363L60.3923 53.5353C60.7186 44.8484 65.2432 39.3938 69.2653 34.6464C72.885 30.4039 76.3037 26.3635 76.3037 20.4039C76.3037 15.7575 74.3933 11.414 70.9747 8.38374C67.556 5.35344 63.0312 4.0403 58.4058 4.64637C50.1608 5.55546 44.0272 13.1312 44.6305 21.5151C45.0327 26.7676 48.2503 30.606 51.5685 34.6464C55.5905 39.3938 60.1152 44.8484 60.3923 53.5353L58.4058 53.6363"/>
	<path fill="white" d="M65.3652 21.2121C65.3652 24.1414 63.153 26.3636 60.2371 26.3636C57.3212 26.3636 55.1091 24.1414 55.1091 21.2121C55.1091 18.2828 57.3212 16.0606 60.2371 16.0606C63.153 16.0606 65.3652 18.4848 65.3652 21.2121"/>
	<path fill="#2D1B0A" d="M60.2371 27.8787C56.5168 27.8787 53.6008 24.9495 53.6008 21.2121C53.6008 17.4747 56.5168 14.5455 60.2371 14.5455C63.8569 14.5455 66.8734 17.4747 66.8734 21.2121C66.8734 24.9495 63.9575 27.8787 60.2371 27.8787M60.2371 17.5758C58.2261 17.5758 56.6173 19.0909 56.6173 21.2121C56.6173 23.2323 58.1255 24.8484 60.2371 24.8484C62.2481 24.8484 63.8569 23.3333 63.8569 21.2121C63.8569 19.1919 62.2481 17.5758 60.2371 17.5758"/>
	<path fill="#E63B56" d="M63.4547 52.0202C63.4547 53.638 62.1491 54.9495 60.5387 54.9495C58.9283 54.9495 57.6227 53.638 57.6227 52.0202C57.6227 50.4024 58.9283 49.0909 60.5387 49.0909C62.1491 49.0909 63.4547 50.4024 63.4547 52.0202"/>
	<path fill="#2D1B0A" d="M60.5387 56.0606C58.3266 56.0606 56.6172 54.2424 56.6172 52.1212C56.6172 49.899 58.4271 48.1818 60.5387 48.1818C62.7508 48.1818 64.4602 50 64.4602 52.1212C64.4602 54.2424 62.6502 56.0606 60.5387 56.0606M60.5387 50.101C59.4326 50.101 58.6283 51.0101 58.6283 52.0202C58.6283 53.1313 59.5332 53.9394 60.5387 53.9394C61.6447 53.9394 62.4492 53.0303 62.4492 52.0202C62.4492 51.0101 61.5442 50.101 60.5387 50.101"/>
</svg>
