<?xml version="1.0" encoding="utf-8" ?>
<svg xmlns="http://www.w3.org/2000/svg" xmlns:xlink="http://www.w3.org/1999/xlink" width="80" height="70">
	<path fill="white" d="M60.8199 70C60.323 70 59.1304 69.7991 58.7329 69.6987L40 62.9699L21.1677 69.6987C20.5714 69.8996 19.9752 70 19.3789 70C18.5839 70 17.8882 69.7991 17.0932 69.4978L3.18012 63.0703C1.29193 62.1664 0 60.2582 0 58.0488L0 6.72884C0 3.81636 2.38509 1.40603 5.46584 1.20516C6.26087 1.20516 7.35404 1.50646 7.85093 1.70732L19.4783 7.03013L38.0621 0.301291C38.6584 0.10043 39.2547 0 39.8509 0C40.1491 0 40.4472 0 40.8447 0.10043C41.0435 0.10043 43.0311 0.803443 59.3292 6.72884L60.4224 7.13056L72.1491 1.70732C72.8447 1.40603 73.6398 1.20516 74.4348 1.20516C77.4161 1.20516 79.9006 3.71593 79.9006 6.72884L80 31.6356L80 58.1492C80 60.3587 78.8075 62.2669 76.9193 63.1707L63.0062 69.5983C62.3106 69.7991 61.5155 70 60.8199 70"/>
	<path fill="#89C5E5" d="M75.2299 60.4591L61.3169 66.8867C60.7206 67.1271 60.1243 67.1271 59.528 66.9871L40.5467 60.1578C40.0499 59.957 39.4535 59.957 38.8573 60.1578L19.8759 66.9871C19.2797 67.1271 18.584 67.1271 18.0871 66.8867L4.17405 60.4591C3.27964 60.0574 2.78275 59.1535 2.78275 58.2497L2.78275 6.92971C2.78275 5.12196 4.67095 3.9168 6.26101 4.72024L18.1865 10.1435C18.7827 10.4448 19.3791 10.4448 19.9753 10.2439L38.9566 3.41465C39.4535 3.264 40.0499 3.264 40.6461 3.41465L59.6274 10.2439C60.2238 10.4448 60.9193 10.4448 61.4162 10.1435L73.3418 4.72024C74.9319 4.01723 76.8201 5.22239 76.8201 6.92971L76.8201 58.2497C76.7206 59.1535 76.1244 60.0574 75.2299 60.4591"/>
	<path fill="#2D1B0A" d="M60.323 68.1056C59.9255 68.1056 59.528 67.9914 59.1305 67.891L40.1491 61.0676C39.851 60.9673 39.4535 60.9673 39.1553 61.0676L20.174 67.891C19.2796 68.1921 18.3852 68.1921 17.5901 67.7907L3.67708 61.3686C2.48453 60.7666 1.6895 59.5624 1.6895 58.1576L1.6895 6.88158C1.6895 5.67744 2.28577 4.57365 3.27956 3.97159C4.27335 3.36952 5.4659 3.26918 6.55907 3.7709L18.4845 9.1895C18.7827 9.39019 19.1802 9.39019 19.5777 9.1895L38.5591 2.36608C39.3541 2.1403 40.1491 2.1403 40.8448 2.36608L59.8261 9.1895C60.2237 9.28984 60.5218 9.28984 60.9193 9.1895L72.8448 3.7709C73.9379 3.26918 75.1305 3.36952 76.1243 3.97159C77.1181 4.57365 77.7143 5.67744 77.7143 6.88158L77.7143 58.1576C77.7143 59.5624 76.9193 60.7666 75.7268 61.3686L61.8137 67.7907C61.3168 67.9914 60.8199 68.1056 60.323 68.1056M39.7019 58.9604C40.1491 58.9604 40.5466 59.0607 40.9442 59.1611L59.9255 65.9845C60.323 66.0848 60.6212 66.0848 61.0187 65.9845L74.9317 59.5624C75.4286 59.3617 75.8261 58.7597 75.8261 58.258L75.8261 6.98192C75.8261 6.4802 75.6274 5.97848 75.1305 5.77779C74.733 5.47675 74.2361 5.47675 73.7392 5.67744L61.8137 11.0961C61.0187 11.4974 60.1243 11.4974 59.2299 11.1964L40.2485 4.37296C39.9504 4.27262 39.5529 4.27262 39.2547 4.37296L20.2734 11.1964C19.3789 11.4974 18.4845 11.4974 17.6895 11.0961L5.76403 5.67744C5.26714 5.47675 4.77025 5.47675 4.37273 5.77779C3.97521 6.07882 3.67708 6.4802 3.67708 6.98192L3.67708 58.258C3.67708 58.86 3.97521 59.3617 4.57149 59.5624L18.4845 65.9845C18.7827 66.1852 19.1802 66.1852 19.5777 65.9845L38.5591 59.1611C38.9566 59.0607 39.3541 58.9604 39.7019 58.9604"/>
	<path fill="#89C5E5" d="M73.4409 5.12198L61.5154 10.4448C61.2173 10.5452 61.3166 10.6456 60.621 10.6456L60.621 66.284C61.3166 66.284 61.3166 66.1837 61.6148 66.0833L75.5278 59.8565C76.4222 59.4548 76.9191 58.5509 76.9191 57.647L76.9191 7.33144C76.8198 5.5237 75.0309 4.41896 73.4409 5.12198M39.1552 3.81638L20.1738 10.5452C19.8757 10.6456 19.975 10.7461 19.18 10.6456L19.18 66.284C19.8757 66.284 19.8757 66.284 20.1738 66.1837L39.0558 59.4548C39.3539 59.3545 39.8508 59.3545 39.8508 59.3545L39.8508 3.71595C39.8508 3.71595 39.3539 3.71595 39.1552 3.81638"/>
	<path fill="#2D1B0A" d="M59.5279 67.439L59.5279 9.79199C60.7204 9.79199 60.8198 9.79199 60.9192 9.79199C60.9192 9.79199 61.0186 9.69156 61.118 9.69156L73.0434 4.36875C74.1366 3.8666 75.3291 3.96703 76.3229 4.56961C77.3167 5.17219 77.8136 6.27693 77.8136 7.48209L77.8136 57.7977C77.8136 59.2038 77.0186 60.4089 75.826 60.9111L61.913 67.1378C61.5155 67.3386 61.2173 67.439 60.5217 67.439M61.5155 11.5997L61.5155 65.0287L75.031 58.9025C75.5279 58.7016 75.826 58.1995 75.826 57.5969L75.826 7.28123C75.826 6.77908 75.6273 6.37736 75.2298 6.07606C74.8322 5.77477 74.3353 5.77477 73.8385 5.97563L61.913 11.2984C61.8136 11.4993 61.7142 11.5997 61.5155 11.5997M19.3788 67.439C19.2794 67.439 19.1801 67.439 19.0807 67.439L18.0869 9.69156C19.2794 9.69156 19.4782 9.69156 19.4782 9.69156L38.6583 2.86229C39.0558 2.76186 39.4534 2.66143 39.6521 2.66143L40.7453 2.561L40.7453 60.2081C39.6521 60.3085 39.354 60.4089 39.354 60.4089L20.3726 67.1378C20.0745 67.3386 19.8757 67.439 19.3788 67.439M20.1739 11.7002L20.1739 65.2296L38.7577 58.6012C38.7577 58.6012 38.8571 58.6012 38.8571 58.6012L38.8571 5.07176L20.3726 11.5997C20.2732 11.5997 20.1739 11.5997 20.1739 11.7002"/>
	<path fill="#99CC62" d="M45.8634 25.5093C52.6212 20.8895 54.6088 14.0602 54.7081 8.23518L41.0932 3.24785C40.5963 3.11323 39.0063 3.41452 38.5094 3.61538L20.5218 10.1434C19.9255 10.3442 19.2299 10.3442 18.733 10.0429L6.70814 4.61969C5.11808 3.91667 3.1305 5.12184 3.1305 6.82915L3.1305 42.8836C9.09323 40.4733 12.969 35.3513 18.2361 32.0372C26.7827 26.8148 34.3355 33.3428 45.8634 25.5093"/>
	<path fill="#2D1B0A" d="M2.087 44.4905L2.087 6.92954C2.087 5.72437 2.68327 4.72007 3.67706 4.01706C4.67085 3.31404 5.96278 3.21361 7.05594 3.71576L19.0808 9.13901C19.4783 9.33987 19.7764 9.33987 20.174 9.13901L38.1615 2.61103C38.6584 2.41017 40.4472 2.00845 41.441 2.30974L55.7516 7.43169C55.5528 15.9683 52.3727 22.195 46.41 26.2122C39.851 30.6311 34.4845 30.6311 29.7143 30.6311C25.8386 30.6311 22.4597 30.6311 18.7827 32.8406C16.6957 34.1462 14.7081 35.8535 12.9193 37.36C10.1367 39.7703 7.15532 42.281 3.57768 43.7875L2.087 44.4905M5.56526 5.42308C5.26712 5.42308 4.96899 5.52351 4.67085 5.72437C4.27334 6.02566 3.9752 6.42739 3.9752 6.92954L3.9752 41.4776C6.75781 40.0716 9.04352 38.1634 11.4286 36.0544C13.3168 34.4475 15.3044 32.7402 17.5901 31.3341C21.6646 28.8234 25.5404 28.8234 29.5156 28.8234C34.1864 28.8234 39.0559 28.8234 45.1181 24.7057C50.2858 21.1907 53.1677 15.8678 53.4659 9.03858L40.5466 4.41878C40.2485 4.31835 39.0559 4.51921 38.6584 4.72007L20.6709 11.248C19.7764 11.5493 18.882 11.5493 18.087 11.1476L6.06216 5.72437C5.96278 5.52351 5.76402 5.42308 5.56526 5.42308"/>
	<path fill="#99CC62" d="M55.4534 56.8239C55.4534 59.7364 55.9503 62.5485 56.8447 65.1597L59.8261 66.1639C60.4223 66.3648 61.118 66.3648 61.7143 66.0635L75.5279 59.636C76.4223 59.2343 76.9192 58.3304 76.9192 57.4265L76.9192 30.9129C64.9938 33.0219 55.4534 43.768 55.4534 56.8239"/>
	<path fill="#2D1B0A" d="M60.6211 67.3888C60.2236 67.3888 59.8261 67.2883 59.4285 67.1879L56.0497 65.9827C54.9565 62.5681 54.4596 59.6556 54.4596 56.8436C54.4596 43.6872 64 32.1377 76.6211 30.0287L77.8136 29.8278L77.8136 57.4462C77.8136 58.8522 77.118 60.0574 75.8261 60.6599L62.0124 67.0875C61.5155 67.2883 61.0186 67.3888 60.6211 67.3888M57.6397 64.3759L60.1242 65.2797C60.5217 65.3802 60.9192 65.3802 61.2174 65.2797L75.031 58.8522C75.5279 58.6513 75.8261 58.1492 75.8261 57.5466L75.8261 32.3386C64.6956 34.8493 56.4472 45.1937 56.4472 56.944C56.4472 59.3543 56.8447 61.8651 57.6397 64.3759"/>
	<path fill="#42A08E" d="M61.2174 43.5868L61.2174 64.6772C61.2174 64.6772 74.4348 58.9526 74.4348 58.9526C75.2298 58.6514 75.3292 57.9483 75.3292 57.1449L75.3292 33.0416C69.5652 33.9455 64.3975 38.264 61.2174 42.8838"/>
	<path fill="#42A08E" d="M20.6708 11.4491L20.8696 29.1248C26.7329 27.518 31.5031 29.2253 38.4596 26.815L38.4596 5.12195L20.6708 11.4491"/>
	<path fill="#E63B56" d="M37.3664 12.2524C32.8944 12.2524 29.3167 15.9684 29.3167 20.4877C29.3167 21.7933 29.6149 22.7976 30.0124 23.9024L30.6087 25.0071L37.4658 37.3601L44.3229 25.0071L44.9192 23.9024C45.3167 22.7976 45.6148 21.7933 45.6148 20.5882C45.4161 16.0688 41.8384 12.2524 37.3664 12.2524M41.4409 20.789C41.4409 21.3916 41.3415 21.8938 41.1428 22.396C40.149 24.1032 38.9565 24.7058 37.6646 24.7058C36.3726 24.7058 35.1801 24.0028 34.4844 22.9986C34.0869 21.7933 33.8882 21.2912 33.8882 20.789C33.8882 20.789 33.8882 20.789 33.8882 20.6886C33.8882 18.4791 35.5776 16.4705 38.0621 16.4705C39.5527 16.571 41.4409 18.2783 41.4409 20.789C41.4409 20.5882 41.4409 20.5882 41.4409 20.789"/>
	<path fill="#2D1B0A" d="M37.4658 39.4691L29.2174 24.4046C28.8198 23.4003 28.323 22.0947 28.323 20.5882C28.323 15.3658 32.3975 11.2482 37.3664 11.2482C42.236 11.2482 46.3106 15.2654 46.6087 20.4878C46.6087 22.1951 46.2112 23.4003 45.8137 24.4046L45.2174 25.5093L37.4658 39.4691M37.3664 13.2568C33.4907 13.2568 30.3105 16.571 30.3105 20.4878C30.3105 21.4921 30.5093 22.396 31.0062 23.5007L31.5031 24.505L37.4658 35.2511L44.0248 23.4003C44.4223 22.4964 44.621 21.5925 44.621 20.5882C44.4223 16.571 41.1428 13.2568 37.3664 13.2568M37.5652 25.7102C36.0745 25.7102 34.5838 24.9067 33.59 23.6011C33.0931 22.5968 32.9938 22.396 32.9938 22.2955C32.8944 21.8938 32.795 21.3917 32.795 20.8895C32.795 17.8766 35.0807 15.5667 37.9627 15.5667C40.1491 15.7676 42.4347 17.8766 42.5341 20.7891C42.5341 21.5925 42.3354 22.2955 42.1367 22.7977C40.646 24.9067 39.1553 25.7102 37.5652 25.7102M35.1801 22.396C35.7764 23.1994 36.6708 23.7016 37.5652 23.7016C38.4595 23.7016 39.354 23.1994 39.9502 22.396C40.2485 21.5925 40.3478 21.1908 40.3478 20.7891C40.3478 18.7805 38.7578 17.5753 37.7639 17.4749C36.0745 17.4749 34.6832 18.8809 34.6832 20.6887C34.6832 21.0904 34.7826 21.3917 34.882 21.693C34.882 21.7934 34.9813 21.8938 34.9813 21.9943"/>
</svg>
