<?xml version="1.0" encoding="utf-8" ?>
<svg xmlns="http://www.w3.org/2000/svg" xmlns:xlink="http://www.w3.org/1999/xlink" width="98" height="98">
	<path fill="white" d="M40.9582 98C18.3812 98 0 79.5624 0 56.9162C0 34.2699 18.3812 15.8323 40.9582 15.8323C49.949 15.8323 58.4404 18.7382 65.5331 24.1493L67.1315 25.3517L67.3313 17.636L85.0133 0L84.5138 13.4274L98 12.9264L80.318 30.5624L72.6259 30.7628L73.8247 32.3661C79.2192 39.5808 82.1162 48.0982 82.1162 57.0164C81.9164 79.5624 63.5352 98 40.9582 98"/>
	<path fill="#7FCCD1" d="M3.1967 56.8161C3.1967 77.8591 20.1794 94.8938 41.158 94.8938C62.1366 94.8938 79.1192 77.8591 79.1192 56.8161C79.1192 35.7731 62.1366 18.7383 41.158 18.7383C20.1794 18.7383 3.1967 35.7731 3.1967 56.8161"/>
	<path fill="#2D1B0A" d="M41.1581 95.8957C19.6801 95.8957 2.1979 78.3599 2.1979 56.816C2.1979 35.272 19.6801 17.7362 41.1581 17.7362C62.6362 17.7362 80.1184 35.272 80.1184 56.816C80.1184 78.3599 62.6362 95.8957 41.1581 95.8957M41.1581 19.7403C20.7789 19.7403 4.19586 36.3742 4.19586 56.816C4.19586 77.2577 20.7789 93.8916 41.1581 93.8916C61.5373 93.8916 78.1204 77.2577 78.1204 56.816C78.1204 36.3742 61.5373 19.7403 41.1581 19.7403"/>
	<path fill="white" d="M12.5873 56.7785C12.5873 67.0369 17.9818 76.4563 26.8727 81.5667C35.6638 86.677 46.5526 86.677 55.4436 81.5667C64.2346 76.4563 69.729 67.0369 69.729 56.7785C69.729 40.9838 56.942 28.1576 41.1581 28.1576C25.3743 28.1576 12.5873 40.9838 12.5873 56.7785"/>
	<path fill="#2D1B0A" d="M41.158 86.4767C36.0632 86.4767 30.9684 85.174 26.3731 82.5687C17.2824 77.2578 11.5882 67.4378 11.5882 56.8662C11.5882 40.583 24.8746 27.2558 41.158 27.2558C57.4414 27.2558 70.7279 40.583 70.7279 56.8662C70.7279 67.4378 65.0337 77.2578 55.9429 82.5687C51.3476 85.174 46.2528 86.4767 41.158 86.4767M41.158 29.1597C25.9735 29.1597 13.5862 41.585 13.5862 56.8662C13.5862 66.6362 18.8808 75.855 27.3721 80.765C35.8634 85.675 46.4526 85.675 54.944 80.765C63.4353 75.855 68.7299 66.6362 68.7299 56.8662C68.7299 41.585 56.3425 29.1597 41.158 29.1597"/>
	<path fill="#7FCCD1" d="M22.7768 56.816C22.7768 63.442 26.2733 69.4543 31.9675 72.761C37.6617 76.0678 44.6545 76.0678 50.3487 72.761C56.043 69.4543 59.5394 63.442 59.5394 56.816C59.5394 46.7079 51.3476 38.3909 41.1581 38.3909C31.0684 38.3909 22.7768 46.7079 22.7768 56.816"/>
	<path fill="#2D1B0A" d="M41.158 76.2557C37.8614 76.2557 34.4649 75.3539 31.4679 73.6504C25.474 70.2435 21.7778 63.7302 21.7778 56.8161C21.7778 46.0942 30.4689 37.3764 41.158 37.3764C51.8471 37.3764 60.5382 46.0942 60.5382 56.8161C60.5382 63.7302 56.842 70.1433 50.8481 73.6504C47.8512 75.3539 44.4547 76.2557 41.158 76.2557M41.158 39.3805C31.5678 39.3805 23.7758 47.1964 23.7758 56.8161C23.7758 63.0288 27.0724 68.7404 32.4669 71.8467C37.8614 74.9531 44.4547 74.9531 49.8492 71.8467C55.2437 68.7404 58.5403 62.9285 58.5403 56.8161C58.5403 47.1964 50.7482 39.3805 41.158 39.3805"/>
	<path fill="#EA5050" d="M32.2671 56.816C32.2671 60.0225 33.9654 62.9285 36.7625 64.5317C39.5597 66.135 42.9562 66.135 45.6534 64.5317C48.4506 62.9285 50.1489 60.0225 50.1489 56.816C50.1489 51.906 46.1529 47.8978 41.2579 47.8978C36.263 47.8978 32.2671 51.906 32.2671 56.816"/>
	<path fill="#2D1B0A" d="M41.158 66.7363C39.4597 66.7363 37.7615 66.3354 36.1631 65.4335C33.0663 63.6299 31.1682 60.3231 31.1682 56.816C31.1682 51.3047 35.6636 46.8957 41.0581 46.8957C46.4526 46.8957 50.948 51.4049 50.948 56.816C50.948 60.3231 49.05 63.6299 45.9531 65.4335C44.5545 66.3354 42.8563 66.7363 41.158 66.7363M41.158 48.8998C36.7625 48.8998 33.2661 52.5072 33.2661 56.816C33.2661 59.6217 34.7645 62.3272 37.262 63.7301C39.6595 65.1329 42.7564 65.1329 45.1539 63.7301C47.5515 62.3272 49.1499 59.7219 49.1499 56.816C49.05 52.407 45.5535 48.8998 41.158 48.8998"/>
	<path fill="#F9F7F2" d="M90.5075 16.0329L79.1191 27.356L70.2282 27.5564L70.428 18.6382L81.8164 7.3151L81.4168 16.3335L90.5075 16.0329"/>
	<path fill="#2D1B0A" d="M69.2293 28.6586L69.4291 18.3375L82.9153 4.9101L82.5157 15.4316L93.005 15.0308L79.5188 28.358L69.2293 28.6586M71.4271 19.1391L71.2273 26.5543L78.6197 26.3539L87.9102 17.135L80.4179 17.4357L80.7176 9.92032L71.4271 19.1391"/>
	<path fill="#2D1B0A" d="M41.5577 57.2168C41.258 57.2168 40.9583 57.1166 40.7585 56.9162C40.259 56.4151 40.259 55.7137 40.7585 55.3129L78.7197 16.9346C79.2193 16.4335 79.9185 16.4335 80.3181 16.9346C80.8176 17.4356 80.8176 18.137 80.3181 18.5378L42.3568 56.9162C42.157 57.0164 41.8573 57.2168 41.5577 57.2168"/>
</svg>
