<?xml version="1.0" encoding="utf-8" ?>
<svg xmlns="http://www.w3.org/2000/svg" xmlns:xlink="http://www.w3.org/1999/xlink" width="76" height="78">
	<path fill="white" d="M76 71.7804L71.2251 71.7804L71.5236 68.4157C71.5236 68.1098 71.5236 67.9059 71.5236 67.6L71.5236 21.8196C71.5236 16.9255 67.9424 12.8471 63.3665 12.5412C63.1675 12.5412 62.9686 12.5412 62.7696 12.5412C62.3717 12.5412 61.8743 12.5412 61.4764 12.6432C61.4764 12.6432 60.5812 12.8471 59.5864 13.153C58.5916 13.4588 56.9005 14.6824 56.9005 14.6824L55.9058 16.0079C54.712 17.5373 54.0157 19.4745 54.0157 21.5138L54.0157 67.702C54.0157 68.0079 54.0157 68.2118 54.0157 68.5177L54.3141 71.8824L45.6597 71.8824L45.9581 68.5177C45.9581 68.2118 45.9581 68.0079 45.9581 67.702L45.9581 35.9922C45.9581 32.8314 45.2618 30.4863 43.6702 28.8549C42.2775 27.4275 40.3874 26.7137 37.801 26.7137C36.9058 26.7137 33.623 26.8157 31.9319 28.3451C30.1414 29.9765 29.445 31.5059 29.445 31.6079C28.8482 32.8314 28.5497 34.1569 28.5497 35.5843L28.5497 67.702C28.5497 68.0079 28.5497 68.2118 28.5497 68.5177L28.8482 71.8824L20.1937 71.8824L20.4921 68.5177C20.4921 68.2118 20.4921 68.0079 20.4921 67.702L20.4921 51.0824C20.4921 47.2079 20.3927 44.0471 18.2042 41.3961C16.911 39.7647 13.9267 39.153 13.9267 39.153C12.0366 38.949 9.84817 38.7451 7.46073 40.2745C5.0733 41.8039 4.47644 43.1294 4.47644 43.1294L3.97906 44.5569C3.68063 45.4745 3.48168 46.3922 3.48168 47.4118L3.48168 67.702C3.48168 68.0079 3.48168 68.2118 3.48168 68.5177L3.7801 71.7804L0 71.8824L0 78L75.6021 78L76 71.7804"/>
	<path fill="white" d="M10.0471 37.4196L31.6335 24.4706L60.4817 7.13725L71.1256 0.713725C71.2251 0.713725 71.2251 0.611765 71.2251 0.611765C71.2251 0.509804 71.2251 0.509804 71.1256 0.509804L52.822 0L52.822 4.6902L0.3979 36.1961L3.18324 41.702L10.0471 37.4196"/>
	<path fill="#FFD071" d="M12.4346 73.4117C9.25137 73.4117 6.76446 70.7607 6.76446 67.6L6.76446 47.3098C6.76446 44.047 9.35085 41.498 12.4346 41.498C15.6179 41.498 18.1048 44.149 18.1048 47.3098L18.1048 67.6C18.1048 70.8627 15.5184 73.4117 12.4346 73.4117"/>
	<path fill="#2D1B0A" d="M12.4346 74.4313C8.75399 74.4313 5.7697 71.3725 5.7697 67.6L5.7697 47.3098C5.7697 43.5372 8.75399 40.4784 12.4346 40.4784C16.1152 40.4784 19.0995 43.5372 19.0995 47.3098L19.0995 67.6C19.0995 71.3725 16.1152 74.4313 12.4346 74.4313M12.4346 42.5176C9.84823 42.5176 7.75923 44.6588 7.75923 47.3098L7.75923 67.6C7.75923 70.2509 9.84823 72.3921 12.4346 72.3921C15.021 72.3921 17.11 70.2509 17.11 67.6L17.11 47.3098C17.11 44.6588 15.021 42.5176 12.4346 42.5176"/>
	<path fill="#89C5E5" d="M37.801 73.4118C34.6178 73.4118 32.1309 70.7608 32.1309 67.6L32.1309 35.4824C32.1309 32.2196 34.7173 29.6706 37.801 29.6706C40.9843 29.6706 43.4712 32.3216 43.4712 35.4824L43.4712 67.6C43.4712 70.8628 40.9843 73.4118 37.801 73.4118"/>
	<path fill="#2D1B0A" d="M37.801 74.4314C34.1204 74.4314 31.1361 71.3726 31.1361 67.6L31.1361 35.4824C31.1361 31.7098 34.1204 28.651 37.801 28.651C41.4816 28.651 44.4659 31.7098 44.4659 35.4824L44.4659 67.6C44.4659 71.3726 41.4816 74.4314 37.801 74.4314M37.801 30.5882C35.2146 30.5882 33.1256 32.7294 33.1256 35.3804L33.1256 67.4981C33.1256 70.149 35.2146 72.2902 37.801 72.2902C40.3874 72.2902 42.4764 70.149 42.4764 67.4981L42.4764 35.3804C42.4764 32.8314 40.3874 30.5882 37.801 30.5882"/>
	<path fill="#EA5050" d="M63.1698 73.4118C59.9852 73.4118 57.4983 70.7608 57.4983 67.6L57.4983 21.4118C57.4983 18.149 60.0847 15.6 63.1698 15.6C66.3517 15.6 68.8414 18.251 68.8414 21.4118L68.8414 67.6C68.9381 70.8627 66.3517 73.4118 63.1698 73.4118"/>
	<path fill="#2D1B0A" d="M63.1698 74.4314C59.4874 74.4314 56.5026 71.3726 56.5026 67.6L56.5026 21.4118C56.5026 17.6392 59.4874 14.5804 63.1698 14.5804C66.8499 14.5804 69.837 17.6392 69.837 21.4118L69.837 67.6C69.9342 71.3726 66.8499 74.4314 63.1698 74.4314M63.1698 16.6196C60.5818 16.6196 58.4925 18.7608 58.4925 21.4118L58.4925 67.6C58.4925 70.251 60.5818 72.3922 63.1698 72.3922C65.7555 72.3922 67.8448 70.251 67.8448 67.6L67.8448 21.4118C67.9443 18.7608 65.7555 16.6196 63.1698 16.6196"/>
	<path fill="#2D1B0A" d="M1.39255 74.0235L73.9109 74.0235L73.9109 76.0627L1.39255 76.0627L1.39255 74.0235"/>
	<path fill="#2D1B0A" d="M4.77491 37.7255L3.78015 35.9922L57.8954 3.46668L53.6179 3.36472L53.6179 1.3255L64.8587 1.63138"/>
</svg>
