<?xml version="1.0" encoding="utf-8" ?>
<svg xmlns="http://www.w3.org/2000/svg" xmlns:xlink="http://www.w3.org/1999/xlink" width="76" height="66">
	<path fill="white" d="M0 65.8985L0 60.2123L4.05874 60.2123L3.85581 56.9631C3.85581 56.76 3.85581 56.6585 3.85581 56.4554L3.85581 35.4369C3.85581 30.5631 7.81308 26.6031 12.6836 26.6031C17.5541 26.6031 21.5113 30.5631 21.5113 35.4369L21.5113 56.4554C21.5113 56.6585 21.5113 56.76 21.5113 56.9631L21.3084 60.2123L28.1068 60.2123L27.9039 56.9631C27.9039 56.76 27.9039 56.5569 27.9039 56.3538L27.9039 8.83385C27.9039 3.96 31.8611 0 36.7316 0C41.6021 0 45.5594 3.96 45.5594 8.83385L45.5594 56.3538C45.5594 56.5569 45.5594 56.76 45.5594 57.0646L45.3565 60.3138L52.6622 60.3138L52.0534 56.76C51.9519 56.2523 51.9519 55.8462 51.9519 55.3385L51.9519 22.1354C51.9519 17.2615 55.9092 13.3015 60.7797 13.3015C65.6502 13.3015 69.6075 17.2615 69.6075 22.1354L69.6075 55.3385C69.6075 55.8462 69.6075 56.2523 69.506 56.76L68.8972 60.3138L76 60.3138L76 66L0 66"/>
	<path fill="#EA5050" d="M12.5844 62.04C15.8314 62.04 18.3681 59.4 18.3681 56.2524L18.3681 35.2339C18.3681 31.9847 15.7299 29.4462 12.5844 29.4462C9.33739 29.4462 6.80067 32.0862 6.80067 35.2339L6.80067 56.2524C6.80067 59.4 9.33739 62.04 12.5844 62.04"/>
	<path fill="#2D1B0A" d="M12.5844 63.0554C8.82822 63.0554 5.78365 60.0093 5.78365 56.2523L5.78365 35.2339C5.78365 31.4769 8.82822 28.4308 12.5844 28.4308C16.3382 28.4308 19.3851 31.4769 19.3851 35.2339L19.3851 56.2523C19.4842 60.0093 16.3382 63.0554 12.5844 63.0554M12.5844 30.36C9.94456 30.36 7.81336 32.4923 7.81336 35.1323L7.81336 56.1508C7.81336 58.7908 9.94456 60.9231 12.5844 60.9231C15.2218 60.9231 17.3531 58.7908 17.3531 56.1508L17.3531 35.1323C17.4545 32.4923 15.2218 30.36 12.5844 30.36"/>
	<path fill="#EA5050" d="M60.7797 60.8216C64.0281 60.8216 66.5649 58.1816 66.5649 55.034L66.5649 21.8308C66.5649 18.5816 63.9266 16.0431 60.7797 16.0431C57.5341 16.0431 54.9946 18.6831 54.9946 21.8308L54.9946 55.034C54.9946 58.1816 57.5341 60.8216 60.7797 60.8216"/>
	<path fill="#2D1B0A" d="M60.7797 61.8369C57.0254 61.8369 53.9813 58.7908 53.9813 55.0339L53.9813 21.8308C53.9813 18.0739 57.0254 15.0277 60.7797 15.0277C64.534 15.0277 67.5781 18.0739 67.5781 21.8308L67.5781 55.0339C67.5781 58.6892 64.534 61.8369 60.7797 61.8369M60.7797 16.9569C58.1415 16.9569 56.0107 19.0892 56.0107 21.7292L56.0107 54.9323C56.0107 57.5723 58.1415 59.7046 60.7797 59.7046C63.4179 59.7046 65.5487 57.5723 65.5487 54.9323L65.5487 21.7292C65.5487 19.0892 63.4179 16.9569 60.7797 16.9569"/>
	<path fill="#EA5050" d="M36.6326 61.8369C39.8796 61.8369 42.4163 59.1969 42.4163 56.0492L42.4163 8.42769C42.4163 5.17846 39.7781 2.64 36.6326 2.64C33.3856 2.64 30.8489 5.28 30.8489 8.42769L30.8489 55.9477C30.8489 59.1969 33.4871 61.8369 36.6326 61.8369"/>
	<path fill="#2D1B0A" d="M36.6326 62.8524C32.8764 62.8524 29.8318 59.8062 29.8318 56.0493L29.8318 8.42778C29.8318 4.67085 32.8764 1.6247 36.6326 1.6247C40.3864 1.6247 43.4334 4.67085 43.4334 8.42778L43.4334 55.9478C43.5324 59.7047 40.4878 62.8524 36.6326 62.8524M36.6326 3.65547C33.9927 3.65547 31.8615 5.78778 31.8615 8.42778L31.8615 55.9478C31.8615 58.5878 33.9927 60.7201 36.6326 60.7201C39.27 60.7201 41.4012 58.5878 41.4012 55.9478L41.4012 8.42778C41.5027 5.78778 39.3715 3.65547 36.6326 3.65547"/>
	<path fill="#EA5050" d="M75.1882 62.9538L1.2176 62.9538"/>
	<path fill="#2D1B0A" d="M1.2176 61.9384L75.1882 61.9384L75.1882 63.9692L1.2176 63.9692L1.2176 61.9384"/>
	<path fill="white" d="M34.6008 28.9384L36.6302 28.9384L36.6302 21.7292L35.1082 21.7292C35.8184 21.12 36.3258 20.9169 36.8331 20.6123L37.4419 28.8369L39.2684 28.8369L34.6008 29.4461"/>
	<path fill="white" d="M58.1415 44.1692C61.1855 41.5292 62.3017 39.7015 62.3017 38.1785C62.3017 37.0616 61.6929 36.2492 60.4753 36.2492C59.6635 36.2492 59.0547 36.7569 58.5474 37.3662C58.8518 36.2492 59.562 35.64 60.6782 35.64C62.2002 35.64 63.1134 36.6554 63.1134 38.1785C63.1134 40.0062 61.6929 41.9354 59.3591 44.0677C59.8665 44.0677 60.3738 43.9662 60.7797 43.9662L63.5193 43.9662L58.1415 44.5754"/>
	<path fill="white" d="M9.63948 47.6215C10.5527 47.6215 11.263 48.2307 12.3791 48.2307C13.4953 48.2307 14.307 47.52 14.307 46.3015C14.307 45.083 13.4953 44.2707 11.3644 44.2707C13.2923 43.6615 14.0026 42.8492 14.0026 41.7323C14.0026 40.8184 13.3938 40.1077 12.2777 40.1077C11.4659 40.1077 10.8571 40.5138 10.3498 41.0215C10.5527 39.9046 11.263 39.4984 12.2777 39.4984C13.5968 39.4984 14.7129 40.3107 14.7129 41.6307C14.7129 42.7477 14.0026 43.4584 13.0894 43.8646C14.2056 44.1692 15.0173 44.9815 15.0173 46.3015C15.0173 47.8246 13.7997 48.84 12.3791 48.84C10.9586 48.84 10.1468 48.2307 9.63948 47.6215"/>
</svg>
