<?xml version="1.0" encoding="utf-8" ?>
<svg xmlns="http://www.w3.org/2000/svg" xmlns:xlink="http://www.w3.org/1999/xlink" width="78" height="78">
	<path fill="white" d="M54.0465 78C44.2839 78 31.2 70.7442 19.1226 58.6512C9.86323 49.4807 0 35.7752 0 25.1938C0 17.7365 9.96387 9.876 15.2981 9.876C17.4116 9.876 19.1226 11.3876 20.3303 12.5969C23.8529 16.2248 28.7845 24.8915 28.7845 28.3179C28.7845 31.0388 27.1742 33.1551 25.8658 34.7675L24.1548 36.9845L25.4632 38.7985C28.2813 42.6279 35.729 50.3876 39.6542 53.5117L41.4658 54.9225L43.3781 53.5117C46.0955 51.3954 48.3097 49.783 51.0271 49.783C53.2413 49.783 57.0658 51.3954 61.4942 54.2171C69.2448 59.1551 69.2448 61.5737 69.2448 62.5814C69.3445 71.1473 60.991 78 54.0465 78"/>
	<path fill="#99CC62" d="M14.9962 12.4962C11.3729 12.4962 2.71745 18.9458 2.71745 24.7908C2.71745 41.9226 34.2193 74.5737 53.7445 74.5737C59.28 74.5737 66.0233 69.0311 66.0233 62.2791C66.0233 59.8605 54.2477 52.504 50.8258 52.504C47.5046 52.504 43.8813 57.5427 40.9627 57.5427C38.1446 57.5427 21.0349 40.0078 21.0349 36.8838C21.0349 33.7598 25.4632 31.2404 25.4632 27.9148C25.5639 25.3954 18.418 12.4962 14.9962 12.4962"/>
	<path fill="#2D1B0A" d="M53.7445 75.5814C44.4852 75.5814 32.0052 68.5272 20.2297 56.8372C8.85681 45.4496 1.711 33.1551 1.711 24.7907C1.711 18.3411 10.9704 11.4884 14.9962 11.4884C16.0026 11.4884 17.2104 12.1938 18.6194 13.6047C22.0413 17.1318 26.5704 25.4962 26.4697 27.9148C26.4697 29.9303 25.262 31.5427 23.9536 33.1551C22.9471 34.4651 22.0413 35.6744 22.0413 36.8837C22.142 39.5039 38.3458 56.1318 40.9626 56.5349C41.9691 56.5349 43.4787 55.4264 44.9884 54.3179C46.9007 52.907 48.8129 51.4962 50.8258 51.4962C54.2478 51.4962 67.0297 58.9535 67.0297 62.2791C67.0297 69.6357 59.7833 75.5814 53.7445 75.5814M14.9962 13.5039C11.7755 13.5039 3.7239 19.6512 3.7239 24.7907C3.7239 32.5504 10.7691 44.5427 21.6387 55.4264C32.911 66.6124 45.1897 73.5659 53.7445 73.5659C58.7768 73.5659 65.0168 68.3256 65.0168 62.2791C64.7149 60.4651 54.0465 53.5117 50.8258 53.5117C49.4168 53.5117 47.8065 54.721 46.1962 55.9303C44.3845 57.2403 42.6736 58.5504 40.9626 58.5504C37.44 58.5504 20.0284 40.5117 20.0284 36.8837C20.0284 34.969 21.2362 33.4574 22.4439 31.9458C23.551 30.5349 24.4568 29.3256 24.4568 27.9148C24.5575 26.4031 20.6323 18.6434 17.1097 15.0155C15.8013 13.6047 15.0968 13.5039 14.9962 13.5039"/>
	<path fill="white" d="M54.7509 35.2714L50.9264 34.566C41.2644 32.6513 34.5212 25.597 34.5212 17.535C34.5212 7.86057 44.2838 0.0001 56.2606 0.0001C68.2373 0.0001 77.9999 7.86057 77.9999 17.535C77.9999 23.1784 74.6786 28.4187 69.0425 31.6435L68.036 32.6513C65.1173 37.2869 60.6889 39.6048 57.7702 40.1086L52.0335 41.1164L54.7509 35.2714"/>
	<path fill="#FFD071" d="M57.9714 34.5659C57.9714 34.5659 58.7766 30.7366 55.3546 31.6436C45.3908 31.4419 37.2385 25.0932 37.2385 17.1318C37.2385 9.17064 45.592 2.62025 55.9585 2.62025C66.325 2.62025 74.6785 9.17064 74.6785 17.1318C74.6785 22.1707 71.4579 26.7056 65.9224 29.3257C62.7017 35.6745 56.965 36.6823 56.965 36.6823L57.9714 34.5659"/>
	<path fill="#2D1B0A" d="M55.1533 37.9922L56.9649 34.2636C57.0654 33.7598 57.0654 32.9536 56.7635 32.6512C56.5622 32.4496 56.1596 32.4496 55.5558 32.6512C44.6861 32.4496 36.2319 25.597 36.2319 17.1318C36.2319 8.56594 45.0887 1.61245 55.9585 1.61245C66.828 1.61245 75.6848 8.56594 75.6848 17.1318C75.6848 22.4729 72.3635 27.3102 66.6267 30.1318C63.2048 36.5815 57.3674 37.6899 57.0654 37.6899L55.1533 37.9922M56.2603 30.535C57.1661 30.535 57.7701 30.8372 58.1725 31.2403C59.3803 32.4496 58.9777 34.5659 58.9777 34.8682C60.6888 34.2636 63.2048 32.4496 65.0164 29.0233C70.6525 26.2015 73.672 21.969 73.672 17.3333C73.672 9.87602 65.7209 3.8295 55.9585 3.8295C46.1958 3.8295 38.2449 9.87602 38.2449 17.3333C38.2449 24.5891 45.8939 30.6357 55.2538 30.8372C55.5558 30.535 55.9585 30.535 56.2603 30.535"/>
	<path fill="#2D1B0A" d="M47.3031 17.8372C47.3031 18.8947 46.447 19.752 45.3908 19.752C44.3347 19.752 43.4786 18.8947 43.4786 17.8372C43.4786 16.7798 44.3347 15.9225 45.3908 15.9225C46.447 15.9225 47.3031 16.7798 47.3031 17.8372"/>
	<path fill="#2D1B0A" d="M58.1728 17.6357C58.1728 18.6932 57.3167 19.5505 56.2606 19.5505C55.2044 19.5505 54.3483 18.6932 54.3483 17.6357C54.3483 16.5783 55.2044 15.721 56.2606 15.721C57.3167 15.721 58.1728 16.5783 58.1728 17.6357"/>
	<path fill="#2D1B0A" d="M68.1366 17.5349C68.1366 18.5924 67.2805 19.4497 66.2243 19.4497C65.1682 19.4497 64.3121 18.5924 64.3121 17.5349C64.3121 16.4775 65.1682 15.6202 66.2243 15.6202C67.2805 15.6202 68.1366 16.4775 68.1366 17.5349"/>
</svg>
