<?xml version="1.0" encoding="utf-8" ?>
<svg xmlns="http://www.w3.org/2000/svg" xmlns:xlink="http://www.w3.org/1999/xlink" width="86" height="88">
	<path fill="white" d="M20.978 88C15.4104 88 10.141 85.7618 6.16416 81.6925C2.18728 77.6231 0 72.2312 0 66.5341C0 60.837 2.18728 55.4451 6.16416 51.3757L50.3075 6.20578C54.2844 2.23815 59.5538 0 65.022 0C70.5896 0 75.859 2.23815 79.8358 6.30751C83.8127 10.3769 86 15.7688 86 21.4659C86 27.163 83.8127 32.5549 79.8358 36.6243L35.7919 81.6925C31.815 85.7618 26.5457 88 20.978 88M20.978 56.0555C18.2936 56.0555 15.7087 57.1746 13.8197 59.1075C11.9306 61.0405 10.837 63.6855 10.837 66.4324C10.837 69.1792 11.9306 71.8243 13.8197 73.7572C15.7087 75.6902 18.2936 76.8092 20.978 76.8092C23.6624 76.8092 26.2474 75.6902 28.1364 73.7572C30.0254 71.8243 31.1191 69.1792 31.1191 66.4324C31.1191 63.6855 30.0254 61.0405 28.1364 59.1075C26.2474 57.1746 23.7618 56.0555 20.978 56.0555M26.8439 45.7803L29.4289 47.0012C31.815 48.1202 33.9029 49.5445 35.6925 51.3757C37.4821 53.2069 38.9734 55.3434 39.9676 57.6832L41.1607 60.3283L56.9688 44.1526L55.9746 42.7283C54.6821 40.7954 54.3838 38.252 55.2786 36.1156C56.2728 33.7757 58.3607 32.148 60.7468 31.8428C61.4428 31.6393 61.5422 31.6393 61.6416 31.5376L63.0335 30.7237L62.6358 29.1977C62.0393 26.8578 59.3549 24.5179 57.6647 23.704L55.1792 22.3815L54.7815 25.2301C54.3838 28.1803 52.5942 30.5202 50.0092 31.4358C49.3133 31.741 48.5179 31.8428 47.822 31.8428C46.4301 31.8428 45.0382 31.4358 43.8451 30.5202L42.4532 29.5029L26.8439 45.7803"/>
	<path fill="#89C5E5" d="M77.7852 8.44394C70.7262 1.22082 59.3921 1.22082 52.3332 8.44394L8.28927 53.5121C1.23031 60.7353 1.23031 72.333 8.28927 79.5561C15.3482 86.7792 26.6824 86.7792 33.7412 79.5561L77.7852 34.4879C84.7448 27.2648 84.7448 15.6671 77.7852 8.44394M30.361 75.8937C25.2905 81.0821 16.9389 81.0821 11.8685 75.8937C6.79794 70.7052 6.79794 62.1595 11.8685 56.9711C16.9389 51.7827 25.2905 51.7827 30.361 56.9711C35.4314 62.1595 35.4314 70.7052 30.361 75.8937M73.9077 31.3341L39.0106 67.0428C39.1101 62.1595 37.4199 57.2763 33.7412 53.5121C30.0627 49.748 25.191 48.0185 20.4188 48.1202L55.4152 12.3098C60.4858 7.1214 68.8372 7.1214 73.9077 12.3098C78.9782 17.6 78.9782 26.0439 73.9077 31.3341"/>
	<path fill="#2D1B0A" d="M20.9779 85.9653C15.9074 85.9653 11.1351 83.9307 7.55593 80.2682C3.97674 76.6058 1.9883 71.7226 1.9883 66.5341C1.9883 61.3457 3.97674 56.4624 7.55593 52.8L51.5999 7.73181C55.1791 4.06938 59.9513 2.0347 65.0218 2.0347C70.0923 2.0347 74.8646 4.06938 78.4438 7.73181C82.023 11.3942 84.0114 16.2775 84.0114 21.4659C84.0114 26.6544 82.023 31.5376 78.4438 35.2L34.3999 80.2682C30.8207 83.9307 26.0484 85.9653 20.9779 85.9653M65.0218 4.06938C60.4484 4.06938 56.1733 5.9006 52.9918 9.15609L8.94784 54.2243C5.76633 57.4798 3.97674 61.8544 3.97674 66.5341C3.97674 71.2139 5.76633 75.5885 8.94784 78.8439C12.1293 82.0994 16.4045 83.9307 20.9779 83.9307C25.5513 83.9307 29.8265 82.0994 33.008 78.8439L77.0519 33.7757C80.2334 30.5202 82.023 26.1457 82.023 21.4659C82.023 16.7861 80.2334 12.4116 77.0519 9.15609C73.771 5.9006 69.4958 4.06938 65.0218 4.06938M20.9779 80.8786C17.3987 80.8786 13.7201 79.4544 11.0357 76.7075C5.56749 71.1122 5.56749 61.9561 11.0357 56.259C16.5039 50.6636 25.4519 50.6636 31.0195 56.259C36.4877 61.8544 36.4877 71.0104 31.0195 76.7075C28.2357 79.4544 24.6565 80.8786 20.9779 80.8786M20.9779 54.0208C17.8958 54.0208 14.8137 55.2416 12.4276 57.6833C7.75477 62.4648 7.75477 70.4 12.4276 75.1815C17.1004 79.963 24.8554 79.963 29.5282 75.1815C34.201 70.4 34.201 62.4648 29.5282 57.6833C27.2415 55.2416 24.1594 54.0208 20.9779 54.0208M37.8796 69.5861L37.9791 67.0428C38.0785 62.2613 36.3883 57.6833 33.008 54.2243C29.6276 50.7653 25.1536 48.9341 20.3814 49.1376L17.8958 49.2393L54.6819 11.5977C57.3663 8.85088 60.8461 7.32487 64.6241 7.32487C68.4022 7.32487 71.8819 8.85088 74.5663 11.5977C77.2507 14.3445 78.7421 17.9052 78.7421 21.7711C78.7421 25.637 77.2507 29.1977 74.5663 31.9445L37.8796 69.5861M22.6681 47.2046C27.0426 47.6116 31.2184 49.6463 34.3999 52.8C37.5814 56.0555 39.4704 60.2266 39.8681 64.7029L73.1744 30.622C75.4611 28.2821 76.7536 25.1283 76.7536 21.8729C76.7536 18.5156 75.4611 15.4636 73.1744 13.1237C70.8877 10.7838 67.8056 9.46129 64.6241 9.46129C61.3432 9.46129 58.3606 10.7838 56.0738 13.1237L22.6681 47.2046"/>
	<path fill="#EA5050" d="M52.1964 8.54579L39.4704 21.5678L45.3363 27.5701C47.7224 30.0117 51.6993 28.6891 52.097 24.4164C53.3895 11.6996 74.7652 30.2152 61.7409 34.895C58.2612 34.895 56.571 39.066 58.9571 41.5076L64.9224 47.6116L77.6484 34.5897C84.7074 27.3666 84.7074 15.6672 77.6484 8.54579C70.6889 1.32267 59.2554 1.32267 52.1964 8.54579M72.8762 18.3123C71.5837 19.6348 69.4958 19.6348 68.1039 18.3123C66.8114 16.9897 66.8114 14.8533 68.1039 13.4291C69.3964 12.1065 71.4843 12.1065 72.8762 13.4291C74.1687 14.7516 74.1687 16.8879 72.8762 18.3123"/>
	<path fill="#2D1B0A" d="M64.9225 49.036L58.2612 42.2198C56.8693 40.7955 56.4716 38.7608 57.267 36.8279C58.0624 34.9966 59.6531 33.7758 61.6416 33.7758C64.2266 32.8602 65.3202 31.2325 64.9225 29.0961C64.2266 25.3319 59.156 20.8556 55.8751 21.0591C55.2786 21.0591 53.5884 21.1608 53.1907 24.518C52.9919 26.9597 51.6994 28.7909 49.7109 29.503C48.0208 30.1134 46.0323 29.7065 44.7399 28.2822L38.178 21.5677L51.6 7.83364C59.0566 0.20359 71.0867 0.20359 78.4439 7.83364C82.0231 11.4961 84.0115 16.3793 84.0115 21.5677C84.0115 26.7562 82.0231 31.6394 78.4439 35.3019L64.9225 49.036M61.741 35.9123C60.2497 35.9123 59.3549 36.8279 59.0566 37.6417C58.6589 38.4556 58.6589 39.7782 59.6531 40.7955L64.8231 46.0857L76.8531 33.7758C80.0346 30.5203 81.8242 26.1458 81.8242 21.466C81.8242 16.7862 80.0346 12.4117 76.8531 9.15619C70.1919 2.34 59.4543 2.34 52.793 9.15619L40.763 21.466L45.9329 26.7562C46.7283 27.5701 47.8219 27.8753 48.9156 27.4683C50.1086 27.0614 50.904 25.8406 51.1029 24.2128C51.6 19.6348 54.4832 18.9227 55.6763 18.9227C59.9514 18.7192 65.9167 23.9076 66.8115 28.6891C67.4081 31.9446 65.7179 34.488 62.1387 35.8105M70.4901 20.2452C69.2971 20.2452 68.2034 19.7365 67.4081 18.9227C65.7179 17.1932 65.7179 14.3446 67.4081 12.6151C68.2034 11.8013 69.2971 11.2926 70.4901 11.2926C71.6832 11.2926 72.7768 11.8013 73.5722 12.6151C75.2624 14.3446 75.2624 17.1932 73.5722 18.9227C72.7768 19.8383 71.6832 20.2452 70.4901 20.2452M70.4901 13.429C69.8936 13.429 69.2971 13.6325 68.8 14.1412C67.9052 15.0568 67.9052 16.5828 68.8 17.4984C69.6948 18.414 71.1861 18.414 72.0809 17.4984C72.9757 16.5828 72.9757 15.0568 72.0809 14.1412C71.6832 13.7342 71.0867 13.429 70.4901 13.429"/>
</svg>
