<?xml version="1.0" encoding="utf-8" ?>
<svg xmlns="http://www.w3.org/2000/svg" xmlns:xlink="http://www.w3.org/1999/xlink" width="98" height="44">
	<path fill="white" d="M14.4411 44C6.47358 44 0 37.3796 0 29.2315L0 14.7685C0 6.62037 6.47358 0 14.4411 0L81.1687 0L81.1687 6.11111L93.9167 6.11111C96.2073 6.11111 98 7.94444 98 10.287L98 34.2222C98 36.5648 96.2073 38.3981 93.9167 38.3981L81.1687 38.3981L81.1687 44L14.4411 44"/>
	<path fill="#89C5E5" d="M14.4411 40.8426C8.26632 40.8426 3.28665 35.75 3.28665 29.3334L3.28665 14.7686C3.28665 8.45369 8.26632 3.25925 14.4411 3.25925L77.7826 3.25925L77.7826 40.6389L14.4411 40.8426"/>
	<path fill="#2D1B0A" d="M14.4411 41.8611C7.76834 41.8611 2.2907 36.2592 2.2907 29.3333L2.2907 14.7685C2.2907 7.84255 7.76834 2.2407 14.4411 2.2407L78.7785 2.2407L78.7785 41.6574L14.4411 41.8611M14.4411 4.27774C8.86387 4.27774 4.28257 8.96292 4.28257 14.7685L4.28257 29.3333C4.28257 35.1388 8.86387 39.824 14.4411 39.824L76.7866 39.6203L76.7866 4.27774L14.4411 4.27774"/>
	<path fill="#2D1B0A" d="M91.2276 18.537L91.2276 13.75L82.2642 13.75L82.2642 18.537L88.937 18.537"/>
	<path fill="#2D1B0A" d="M91.2276 30.4537L91.2276 25.5649L82.2642 25.5649L82.2642 30.4537L88.937 30.4537"/>
	<path fill="#DEF0F9" d="M13.0467 30.1482C9.56094 30.1482 6.87192 27.3982 6.87192 24.0371L6.87192 21.3889C6.87192 18.0278 9.56094 15.2778 12.8475 15.2778C13.6443 15.2778 14.0427 15.6852 14.0427 16.2963L14.0427 29.1297C14.0427 29.6389 13.6443 30.1482 13.0467 30.1482"/>
	<path fill="#2D1B0A" d="M13.0467 31.1667C8.9634 31.1667 5.876 28.0093 5.876 24.0371L5.876 21.3889C5.876 17.4167 8.9634 14.2593 12.8475 14.2593C14.1423 14.2593 15.0386 15.176 15.0386 16.2963L15.0386 29.1297C15.0386 30.25 14.1423 31.1667 13.0467 31.1667M12.8475 16.2963C10.0589 16.2963 7.86787 18.5371 7.86787 21.3889L7.86787 24.0371C7.86787 26.8889 10.0589 29.1297 12.8475 29.1297L13.0467 16.2963"/>
	<path fill="#2D1B0A" d="M93.2196 37.0741L78.6788 37.0741L78.6788 35.037L93.2196 35.037C93.7174 35.037 94.2154 34.6296 94.2154 34.1204L94.2154 10.5926C94.2154 10.0833 93.817 9.67594 93.2196 9.67594L78.6788 9.67594L78.6788 7.6389L93.2196 7.6389C94.813 7.6389 96.2074 8.96297 96.2074 10.5926L96.2074 34.1204C96.2074 35.75 94.9126 37.0741 93.2196 37.0741"/>
</svg>
