<?xml version="1.0" encoding="utf-8" ?>
<svg xmlns="http://www.w3.org/2000/svg" xmlns:xlink="http://www.w3.org/1999/xlink" width="50" height="74">
	<path fill="white" d="M22.7634 74L20.5765 47.3762L0 47.3762L0.298211 44.1368C0.795229 37.5568 4.77137 31.9891 10.5368 29.4583L12.1272 28.7497L14.0159 12.5527L12.326 11.5404C10.4374 10.4268 9.24453 8.40219 9.24453 6.1751C9.24453 2.73324 11.9284 0 15.3082 0L34.6918 0C38.0716 0 40.7555 2.73324 40.7555 6.1751C40.7555 8.50342 39.5626 10.528 37.5746 11.6416L35.7853 12.6539L37.8728 28.7497L39.4632 29.4583C45.2286 31.9891 49.2048 37.658 49.7018 44.1368L50 47.3762L30.5169 47.3762L28.6282 74L22.7634 74"/>
	<path fill="#FFD071" d="M23.3598 44.1368L27.5348 44.1368L25.5467 72.9877"/>
	<path fill="#2D1B0A" d="M24.5527 73.0889L22.2664 43.1245L28.6282 43.1245L26.5407 73.0889L24.5527 73.0889M24.4533 45.1491L25.5467 59.2203L26.5407 45.1491L24.4533 45.1491"/>
	<path fill="#E63B56" d="M3.2803 44.2381C3.77732 37.9618 7.95227 32.6978 14.1153 31.2805L17.3956 9.21213L15.3081 9.21213C13.6183 9.21213 12.2266 7.7949 12.2266 6.07397C12.2266 4.35304 13.6183 2.9358 15.3081 2.9358L34.6918 2.9358C36.3817 2.9358 37.7733 4.35304 37.7733 6.07397C37.7733 7.7949 36.3817 9.21213 34.6918 9.21213L32.3061 9.21213L35.0894 31.0781C41.9483 32.6978 46.1232 37.9618 46.6203 44.2381L3.2803 44.2381"/>
	<path fill="#2D1B0A" d="M47.6143 45.2504L2.0875 45.2504L2.0875 44.1369C2.68392 37.3544 7.35589 31.7867 13.8171 30.2682L16.2028 10.2245C12.9225 10.2245 11.1332 8.4023 11.1332 6.07398C11.1332 3.74566 12.9225 1.9235 15.2088 1.9235L34.5925 1.9235C36.8788 1.9235 38.668 3.74566 38.668 6.07398C38.668 8.4023 36.8788 10.2245 34.5925 10.2245L33.3002 10.2245L35.8847 30.2682C42.3459 31.6855 47.0179 37.2532 47.5149 44.1369L47.6143 45.2504M4.37378 43.2258L45.5269 43.2258C44.7316 37.7593 40.8549 33.5076 35.5865 32.2929L34.1949 31.8879L31.2127 8.19983L34.6919 8.19983C35.7853 8.19983 36.7793 7.18752 36.7793 6.07398C36.7793 4.96044 35.7853 3.94812 34.6919 3.94812L15.3082 3.94812C14.2147 3.94812 13.2207 4.96044 13.2207 6.07398C13.2207 7.18752 14.2147 8.19983 15.3082 8.19983L18.4891 8.19983L15.7058 31.8879L14.4135 32.2929C9.04575 33.5076 5.16901 37.7593 4.37378 43.2258"/>
	<path fill="#2D1B0A" d="M14.3141 30.3694L35.4871 30.3694L35.4871 32.394L14.3141 32.394L14.3141 30.3694"/>
	<path fill="#2D1B0A" d="M17.7435 8.19973L32.2565 8.19973L32.2565 10.2243L17.7435 10.2243L17.7435 8.19973"/>
</svg>
