<?xml version="1.0" encoding="utf-8" ?>
<svg xmlns="http://www.w3.org/2000/svg" xmlns:xlink="http://www.w3.org/1999/xlink" width="72" height="72">
	<path fill="white" d="M36 72C16.1448 72 0 55.8552 0 36C0 16.1448 16.1448 0 36 0C55.8552 0 72 16.1448 72 36C72 55.8552 55.7549 72 36 72"/>
	<path fill="#2D1B0A" d="M36 3.0084C17.8496 3.0084 2.9081 17.7493 2.9081 36.1003C2.9081 54.2507 17.649 69.1922 36 69.1922C54.1504 69.1922 69.0919 54.4513 69.0919 36.1003C68.8914 17.6491 54.1504 3.0084 36 3.0084M5.61562 37.4039L19.5543 37.4039C19.5543 41.7159 20.0557 45.9276 20.9582 50.039L8.82453 50.039C6.91924 46.0279 5.81618 41.8162 5.61562 37.4039M37.3036 17.6491L37.3036 5.71592C41.1142 6.51815 44.3231 11.131 46.6295 17.6491L37.3036 17.6491M47.4318 20.4569C48.6351 24.9694 49.2368 29.7828 49.3371 34.5961L37.2034 34.5961L37.2034 20.4569L47.4318 20.4569M34.4958 5.8162L34.4958 17.7493L25.1699 17.7493C27.3761 11.3315 30.6853 6.81898 34.4958 5.8162M34.4958 20.4569L34.4958 34.5961L22.3621 34.5961C22.3621 29.7828 22.9638 25.0697 24.2674 20.4569L34.4958 20.4569M19.5543 34.5961L5.41506 34.5961C5.51534 29.6825 7.1198 24.7688 9.52648 20.4569L21.1588 20.4569C20.2563 25.0697 19.7549 29.7828 19.5543 34.5961M22.3621 37.4039L34.4958 37.4039L34.4958 50.039L23.9666 50.039C22.9638 45.8273 22.4624 41.6156 22.3621 37.4039M34.4958 52.7466L34.4958 66.1839C30.3844 65.1811 26.975 60.0669 24.6685 52.7466L34.4958 52.7466M34.7967 66.2842L36.9025 66.2842C36.3009 66.3844 35.4986 66.3844 34.7967 66.2842M37.3036 66.2842L37.3036 52.8468L47.1309 52.8468C44.8245 59.9666 41.3148 65.1811 37.3036 66.2842M37.3036 50.039L37.3036 37.4039L49.4373 37.4039C49.4373 41.7159 48.8357 45.9276 47.7326 50.039L37.3036 50.039M52.2451 37.4039L66.1839 37.4039C66.0836 41.8162 64.8802 46.1282 62.7744 50.039L50.6407 50.039C51.5432 45.8273 52.0446 41.6156 52.2451 37.4039M52.2451 34.6964C52.2451 29.8831 51.6435 25.17 50.4401 20.5571L62.0724 20.5571C64.5794 24.8691 65.9833 29.7828 66.1839 34.6964L52.2451 34.6964M60.0669 17.6491L49.5376 17.6491C48.3343 13.5376 46.3287 9.72706 43.4206 6.51815C50.039 8.32316 55.9555 12.3343 60.0669 17.6491M28.2786 6.71871C25.4708 9.92762 23.3649 13.7382 22.1616 17.8496L11.6323 17.8496C15.844 12.3343 21.6602 8.32316 28.2786 6.71871M10.5293 52.7466L21.6602 52.7466C22.8635 57.2591 24.8691 61.7716 28.078 65.3817C21.0585 63.3761 14.8412 58.9638 10.5293 52.7466M43.5209 65.1811C46.6295 61.5711 48.7354 57.2591 49.9387 52.546L61.0697 52.546C56.858 58.9638 50.6407 63.3761 43.5209 65.1811"/>
</svg>
