<?xml version="1.0" encoding="utf-8" ?>
<svg xmlns="http://www.w3.org/2000/svg" xmlns:xlink="http://www.w3.org/1999/xlink" width="62" height="90">
	<path fill="white" d="M6.68921 89.8993C2.99517 89.8993 0 86.8792 0 83.1544L0 25.6711C0 21.9463 2.99517 18.9262 6.68921 18.9262L10.4831 18.9262L11.0821 17.9195C11.4815 17.1141 12.1804 16.4094 12.5797 16.0067C13.3784 15.302 14.6763 14.1946 16.3736 13.7919L17.8712 13.3893L17.8712 11.3758C18.6699 5.33557 23.4622 0.704698 29.5523 0L31 0C37.7391 0 43.3301 5.03356 43.8293 11.3758L43.8293 13.2886L46.0258 14.094C46.9243 14.396 47.9227 15 48.8213 15.604C49.9195 16.6107 50.5185 17.3154 50.9179 18.0201L51.5169 19.0268L55.3108 19.0268C59.0048 19.0268 62 22.047 62 25.7718L62 83.255C62 86.9799 59.0048 90 55.3108 90L6.68921 90"/>
	<path fill="white" d="M31 2.91955C36.1416 2.91955 40.5345 6.74505 41.1335 11.7786L41.1335 15C41.1335 15.4028 41.1335 15.7048 43.6295 16.4095C45.5264 17.2148 46.5248 17.5168 47.5232 18.3223C48.6214 19.329 49.2205 20.6376 49.2205 21.9464L55.3107 21.9464C57.4073 21.9464 59.1045 23.6579 59.1045 25.7719L59.1045 83.2551C59.1045 85.3692 57.4073 87.0807 55.3107 87.0807L6.68913 87.0807C4.59251 87.0807 2.89525 85.3692 2.89525 83.2551L2.89525 25.7719C2.89525 23.6579 4.59251 21.9464 6.68913 21.9464L12.7793 21.9464C12.7793 20.5369 13.1786 19.2283 14.2768 18.3223C15.2752 17.6175 16.3736 16.9128 17.4718 16.6109C17.6714 16.4095 17.871 16.4095 18.1707 16.4095C20.4669 15.8054 20.4669 15.4028 20.4669 15L20.4669 11.7786C21.066 7.14774 24.8598 3.52358 29.6521 2.91955C30.2512 2.91955 30.5506 2.91955 31 2.91955"/>
	<path fill="#2D1B0A" d="M55.2608 87.9866L6.63927 87.9866C4.04346 87.9866 1.847 85.7718 1.847 83.1544L1.847 25.6711C1.847 23.0537 4.04346 20.8389 6.63927 20.8389L11.8309 20.8389C12.0306 19.4295 12.6296 18.3221 13.628 17.4161C14.4267 16.8121 15.7246 16.0067 17.0225 15.604C17.4219 15.4027 17.7214 15.302 18.1208 15.302C18.9195 15.1007 19.3188 14.8993 19.5185 14.7986L19.5185 11.4765C20.1175 6.44294 24.4106 2.31543 29.6022 1.7114L31 1.7114C36.6908 1.7114 41.4831 5.93959 42.1819 11.4765L42.1819 14.698C42.3816 14.7986 42.8808 15 43.979 15.302C46.0757 16.1074 47.0741 16.5101 48.1723 17.3154C49.2705 18.2215 49.8695 19.4295 50.1691 20.7382L55.3607 20.7382C57.9565 20.7382 60.153 22.953 60.153 25.5705L60.153 83.0537C60.0531 85.8725 57.9565 87.9866 55.2608 87.9866M6.63927 22.953C5.14169 22.953 3.84378 24.2617 3.84378 25.7718L3.84378 83.255C3.84378 84.7651 5.14169 86.0738 6.63927 86.0738L55.2608 86.0738C56.7584 86.0738 58.0563 84.7651 58.0563 83.255L58.0563 25.7718C58.0563 24.2617 56.7584 22.953 55.2608 22.953L48.1723 22.953L48.1723 21.9463C48.1723 20.8389 47.6731 19.8322 46.8744 19.0268C46.0757 18.4228 45.277 18.1208 44.2786 17.7181C41.1836 16.8121 40.285 16.4094 40.285 15.1007L40.285 11.8792C39.7858 7.34898 35.7922 3.92617 31.0998 3.92617L29.9018 3.92617C25.6087 4.42952 22.2141 7.75167 21.6151 11.8792L21.6151 15.1007C21.6151 16.4094 20.6167 16.9127 18.6199 17.4161C18.3204 17.4161 18.3204 17.4161 18.3204 17.4161C17.1224 17.9195 16.124 18.4228 15.1256 19.1275C14.4267 19.7315 14.0274 20.7382 14.0274 21.9463L14.0274 22.953L6.63927 22.953"/>
	<path fill="#DDD" d="M47.4235 39.2617L14.9759 39.2617C13.8777 39.2617 13.0789 40.2685 13.0789 41.1745C13.0789 42.1812 14.0773 43.0872 14.9759 43.0872L47.4235 43.0872C48.5217 43.0872 49.3204 42.0805 49.3204 41.1745C49.3204 40.2685 48.3221 39.2617 47.4235 39.2617"/>
	<path fill="#DDD" d="M47.4235 53.1544L14.9759 53.1544C13.8777 53.1544 13.0789 54.1611 13.0789 55.0671C13.0789 56.1745 14.0773 56.9799 14.9759 56.9799L47.4235 56.9799C48.5217 56.9799 49.3204 55.9731 49.3204 55.0671C49.3204 53.9597 48.3221 53.1544 47.4235 53.1544"/>
	<path fill="#DDD" d="M47.4235 67.953L14.9759 67.953C13.8777 67.953 13.0789 68.9598 13.0789 69.8658C13.0789 70.8725 14.0773 71.7785 14.9759 71.7785L47.4235 71.7785C48.5217 71.7785 49.3204 70.7718 49.3204 69.8658C49.3204 68.7584 48.3221 67.953 47.4235 67.953"/>
	<path fill="#E63B56" d="M12.8792 22.5292C13.578 24.2407 15.3751 25.65 17.4717 25.65L44.0289 25.65C46.1255 25.65 48.0225 24.5427 48.6215 22.5292C49.3204 20.8177 48.8212 18.7037 47.2238 17.4956C46.2254 16.791 45.3268 16.3883 44.1288 15.9855C40.9339 15.0795 40.9339 14.6768 40.9339 14.2742L40.9339 11.0527C40.3349 5.71712 35.2431 1.58961 29.5523 2.13485C24.76 2.79766 20.8663 6.42182 20.2672 11.0527L20.2672 14.2742C20.2672 14.6768 20.2672 14.9788 17.9709 15.6835C17.7713 15.6835 17.3719 15.885 17.2721 15.885C16.1738 16.2875 14.9758 16.8916 14.0772 17.5963C12.4798 18.6031 12.0804 20.7171 12.8792 22.5292"/>
	<path fill="#2D1B0A" d="M44.1288 26.6549L17.5716 26.6549C15.1755 26.6549 12.979 25.1449 12.0805 22.9301C10.9822 20.6147 11.6811 17.9972 13.7777 16.6885C14.6763 15.9838 15.8743 15.3798 17.1723 14.8764C17.5716 14.7758 17.5716 14.7758 17.6714 14.7758C17.7713 14.7758 17.971 14.6751 18.1707 14.6751C19.0692 14.3731 19.4685 14.2724 19.5684 14.1717L19.5684 10.9502C20.1674 5.91669 24.4605 1.88985 29.752 1.13C35.942 0.581122 41.6328 5.01065 42.2318 10.9502L42.2318 14.1717C42.4315 14.2724 42.9307 14.4737 43.9291 14.6751C46.0257 15.4805 47.0241 15.9838 48.1223 16.6885C50.0193 18.1986 50.7182 20.7153 49.8196 22.8294C48.9211 25.1449 46.7246 26.6549 44.1288 26.6549M17.6714 16.7892C16.5732 17.1919 15.5748 17.6952 14.7761 18.2992C13.5781 19.1046 13.1787 20.7153 13.7777 22.1247C14.2769 23.3328 15.6747 24.6415 17.4718 24.6415L44.0289 24.6415C45.826 24.6415 47.2238 23.7355 47.6231 22.3261C48.2222 20.9167 47.723 19.306 46.5249 18.3999C45.7262 17.7959 44.9275 17.3932 43.7294 16.9905C40.9339 16.1851 39.8357 15.6818 39.8357 14.3731L39.8357 11.1516C39.3365 6.31938 34.6441 2.69522 29.5523 3.19857C25.2592 3.70193 21.665 7.02407 21.1658 11.1516L21.1658 14.3731C21.1658 15.6818 20.2673 16.0845 18.1707 16.6885C17.8711 16.6885 17.8711 16.6885 17.7713 16.6885C17.971 16.6885 17.7713 16.7892 17.6714 16.7892"/>
	<path fill="#EDEDED" d="M34.6442 12.8859C34.6442 14.8319 33.0797 16.4094 31.1498 16.4094C29.2199 16.4094 27.6554 14.8319 27.6554 12.8859C27.6554 10.9399 29.2199 9.36241 31.1498 9.36241C33.0797 9.36241 34.6442 10.9399 34.6442 12.8859"/>
</svg>
