<?xml version="1.0" encoding="utf-8" ?>
<svg xmlns="http://www.w3.org/2000/svg" xmlns:xlink="http://www.w3.org/1999/xlink" width="74" height="94">
	<path fill="white" d="M34.2 92.4952C28.5 89.8869 1.5 76.143 0 57.8847L0 9.73106C0 4.31377 4.3 0 9.7 0L64.3 0C69.7 0 74 4.31377 74 9.73106L74 14.7471L74 30.397L73.9 32.2028L73.8 57.8847C71.9 78.651 39.1 92.6958 38.8 92.7962L35.9 94L34.2 92.4952"/>
	<path fill="white" d="M36.55 89.2349C35.35 88.7333 4.95 74.9893 3.45 57.634L3.45 9.8816C3.45 6.67135 6.05 4.16335 9.25 4.16335L64.75 4.16335C68.05 4.16335 70.55 6.67135 70.55 9.8816L70.35 57.9349C68.65 75.3907 38.45 88.8335 37.25 89.3352"/>
	<path fill="#2D1B0A" d="M36.55 90.5891C33.25 88.7833 3.95 75.0395 2.45 57.6841L2.45 9.83135C2.45 6.01918 5.45 3.1099 9.25 3.1099L64.75 3.1099C68.55 3.1099 71.55 6.11951 71.55 9.83135L71.35 57.8847C69.55 76.3436 37.95 90.0875 37.65 90.1878L36.55 90.5891M9.25 5.1163C6.55 5.1163 4.45 7.22303 4.45 9.83135L4.45 57.5838C5.95 74.5379 36.55 88.0811 36.85 88.2817C38.75 87.5795 67.65 74.5379 69.35 57.8847L69.55 9.93167C69.55 7.32335 67.45 5.21662 64.75 5.21662L9.25 5.21662"/>
	<path fill="#99CC62" d="M3.5 25.1804L3.5 10.1323C3.5 6.11953 6.5 3.0096 10.5 3.0096L63.5 3.0096C67.4 3.0096 70.5 6.11953 70.5 10.1323L70.5 25.1804L3.5 25.1804"/>
	<path fill="#2D1B0A" d="M71.5 26.1836L2.5 26.1836L2.5 10.1323C2.5 5.61793 6 2.0064 10.5 2.0064L63.5 2.0064C68 2.0064 71.5 5.61793 71.5 10.1323L71.5 26.1836M4.5 24.1772L69.5 24.1772L69.5 10.1323C69.5 6.72145 66.9 4.0128 63.5 4.0128L10.5 4.0128C7.1 4.0128 4.5 6.72145 4.5 10.1323L4.5 24.1772"/>
	<path fill="#2D1B0A" d="M16.4 49.859L21.4 44.3414L36.7 55.477L59 35.7139L63.5 40.6295L36.8 63.9039"/>
	<path fill="white" d="M58.9 37.8205L61.4 40.5292L36.7 61.9977L18.7 49.558L21.6 46.3477L36.9 57.383L58.9 37.8205M59.1 33.7074L56.9 35.6135L36.6 53.5708L23.3 43.9401L21.1 42.3349L19.3 44.3413L16.4 47.5516L14.1 50.0596L16.9 51.9657L34.9 64.4054L36.8 65.7095L38.6 64.2047L63.3 42.7362L65.6 40.7298L63.5 38.4225L61 35.7138L59.1 33.7074"/>
</svg>
