<?xml version="1.0" encoding="utf-8" ?>
<svg xmlns="http://www.w3.org/2000/svg" xmlns:xlink="http://www.w3.org/1999/xlink" width="84" height="78">
	<path fill="white" d="M64.8898 29.4377L65.3157 31.0397C65.3157 31.1399 65.4153 31.24 65.5149 31.3401C66.3116 32.842 67.905 33.7432 69.5979 33.7432C70.295 33.7432 70.8926 33.4428 71.4901 33.2425L80.6519 28.0359C82.8428 26.0333 83.4403 23.43 82.3449 21.4274C81.5482 19.9255 79.9548 19.0243 78.2619 19.0243C77.4652 19.0243 76.8677 19.3247 76.3698 19.525L67.1083 24.8318C65.6145 25.7329 64.7182 27.6354 64.8898 29.4377"/>
	<path fill="white" d="M20.2034 26.9345C19.7055 26.2336 19.1078 25.733 18.7095 25.4326L9.8464 20.326C9.04971 19.8254 8.35261 19.525 7.45633 19.525C5.66379 19.525 4.26958 20.326 3.37331 21.9281C2.64135 23.0295 2.47703 24.4313 2.77579 25.733C3.07455 26.9345 3.87124 27.9358 4.96668 28.5365L13.6306 33.543C14.4274 34.0436 15.1244 34.344 16.0208 34.344C16.7178 34.344 17.5146 34.1437 18.2117 33.7432C19.2074 33.2426 19.9046 32.3414 20.2034 31.24L20.6017 29.8382C20.9004 28.8369 20.8008 27.8356 20.2034 26.9345"/>
	<path fill="white" d="M83.7391 68.7882L78.9582 50.0642C78.1614 46.9602 75.3725 44.8575 72.2848 44.8575L64.7149 44.8575L64.3165 43.3556C64.3165 43.2555 62.4241 36.0462 61.8264 33.4429L61.0296 30.1386L59.6352 24.4313C59.5356 24.0308 59.3364 23.5302 59.1372 23.1297L58.4399 21.6277L59.7348 20.6264C59.934 20.5263 60.0336 20.3261 60.2328 20.2259L67.205 13.2169C68.0018 12.2157 68.6991 11.2144 68.6991 9.91271C68.6991 8.61104 68.201 7.4095 67.205 6.40822C66.4082 5.60719 65.2129 5.10655 63.9181 5.10655C62.6233 5.10655 61.428 5.60719 60.6312 6.40822L53.5594 13.5173C52.6629 14.7189 52.2645 15.9204 52.2645 17.2221L52.3641 19.3248L45.2923 19.3248L46.3879 16.6213C46.5872 16.0205 46.7864 15.4198 46.7864 14.819L46.7864 4.80616C46.7864 2.20282 44.6947 0 42.2046 0C39.4157 0 37.4237 2.1027 37.4237 4.80616L37.4237 14.819C37.4237 15.4198 37.5233 16.0205 37.8221 16.6213L39.0173 19.4249L31.8459 19.4249L31.9455 17.3222C32.0451 15.9204 31.5471 14.5186 30.7502 13.6175L23.6784 6.50834C22.8816 5.70732 21.6864 5.20668 20.3915 5.20668C19.1963 5.20668 18.1006 5.60719 17.3038 6.30809C16.2082 7.10911 15.6106 8.51091 15.6106 10.0128C15.6106 11.8151 16.507 12.7163 17.1046 13.3171L24.1764 20.4262C24.276 20.5263 24.3756 20.6264 24.5749 20.7266L25.8697 21.7279L25.1725 23.2298C24.9733 23.6303 24.8737 24.0308 24.6745 24.4313L23.0808 30.0385L22.0848 33.7433L19.3955 43.2555C19.3955 43.3556 19.2959 43.5558 19.2959 43.656L18.9971 45.258L12.3237 45.258C9.23596 45.258 6.54668 47.3607 5.65025 50.3646L0.27168 69.0886C-0.325939 71.1913 0 73.3941 1.36732 75.1964C2.66216 76.9987 4.75382 78 6.94509 78L38.7185 78C39.7145 78 40.611 77.7997 41.5074 77.3992L43.101 77.3992C43.8979 77.6996 44.7943 77.8999 45.6907 77.8999L77.4641 77.8999C79.6554 77.8999 81.6475 76.8986 82.9423 75.1964C83.8387 73.0937 84.3368 70.8909 83.7391 68.7882"/>
	<path fill="#2D1B0A" d="M69.598 31.6405C68.7018 31.6405 67.7059 31.1399 67.208 30.2388C66.5109 29.0373 67.0088 27.1348 68.1042 26.4339L76.8678 21.4275C77.3658 21.2272 77.7641 20.9268 78.2621 20.9268C79.1583 20.9268 80.1542 21.4275 80.6521 22.3286C81.3492 23.5302 80.8513 25.1322 79.7559 26.1335L70.9922 31.1399C70.4943 31.3402 69.9964 31.6405 69.598 31.6405"/>
	<path fill="#2D1B0A" d="M16.0208 32.1412C15.5229 32.1412 15.1245 31.941 14.6266 31.6406L5.86298 26.6341C4.53215 25.9332 4.17002 24.0308 4.96671 22.8293C5.46464 21.9281 6.16174 21.4275 7.35677 21.4275C7.8547 21.4275 8.25304 21.6277 8.75097 21.9281L17.5145 26.9345C18.2116 27.4352 18.7095 27.8357 18.7095 28.6367C18.9088 29.3376 18.7095 30.0385 18.5105 30.7394C17.9128 31.6406 16.917 32.1412 16.0208 32.1412"/>
	<path fill="#2D1B0A" d="M56.7513 19.3248C56.0542 19.3248 55.3571 19.1246 54.8592 18.6239C53.9629 17.7228 53.9629 15.8204 54.8592 14.6188L61.9298 7.5097C62.4277 7.00906 63.1248 6.8088 63.8219 6.8088C64.519 6.8088 65.2161 7.00906 65.7141 7.5097C66.4112 8.2106 66.6104 8.9115 66.6104 9.61239C66.6104 10.3133 66.1124 11.0142 65.7141 11.5148L58.6435 18.6239C58.2451 19.1246 57.548 19.3248 56.7513 19.3248"/>
	<path fill="#2D1B0A" d="M27.2739 19.3248C26.5768 19.3248 25.8797 19.1246 25.3818 18.6239L18.3112 11.5148C17.8132 11.0142 17.4149 10.6137 17.4149 9.61239C17.4149 8.9115 17.6141 7.91021 18.3112 7.5097C18.8091 7.00906 19.5062 6.8088 20.2033 6.8088C20.9004 6.8088 21.5975 7.00906 22.0954 7.5097L29.166 14.6188C30.0623 15.52 30.0623 17.4224 29.166 18.6239C28.8673 18.9243 28.1702 19.3248 27.2739 19.3248"/>
	<path fill="#2D1B0A" d="M42.0996 17.2221C40.7054 17.2221 39.3112 16.0206 39.3112 14.4185L39.3112 4.40565C39.3112 2.70347 40.5062 1.60206 41.9004 1.60206C43.4938 1.60206 44.6888 2.8036 44.6888 4.40565L44.6888 14.4185C44.6888 15.8203 43.5934 17.2221 42.0996 17.2221"/>
	<path fill="#FFD071" d="M57.5583 47.661L25.4916 47.661C23.4999 47.661 22.1057 45.7586 22.6036 43.8562L27.9813 24.9319C28.3796 23.6302 29.4751 22.7291 30.8693 22.7291L52.7782 22.7291C54.1724 22.7291 55.3674 23.6302 55.6662 24.9319L60.4463 43.8562C60.9443 45.8587 59.4505 47.661 57.5583 47.661"/>
	<path fill="#2D1B0A" d="M57.548 48.6622L25.4813 48.6622C24.1867 48.6622 23.0913 48.0615 22.2946 47.0602C21.4979 46.0589 21.2987 44.7572 21.6971 43.5557L27.0747 24.6314C27.5727 22.9292 29.166 21.7277 30.859 21.7277L52.7679 21.7277C54.5605 21.7277 56.1538 22.9292 56.6518 24.7316L61.4319 43.6558C61.7306 44.8574 61.4319 46.0589 60.7348 47.0602C59.9381 48.0615 58.7431 48.6622 57.548 48.6622M30.7594 23.8304C29.8631 23.8304 29.0664 24.4312 28.8673 25.2322L23.4896 44.1565C23.2904 44.7572 23.39 45.358 23.7884 45.8586C24.1867 46.3593 24.7842 46.6597 25.3818 46.6597L57.4484 46.6597C58.046 46.6597 58.6435 46.3593 59.0418 45.8586C59.4402 45.358 59.5398 44.7572 59.4402 44.1565L54.66 25.2322C54.4609 24.331 53.6642 23.7303 52.7679 23.7303L30.7594 23.7303"/>
	<path fill="#FFD071" d="M38.8305 73.7946L6.26586 73.7946C4.27414 73.7946 2.78034 71.8921 3.37786 69.8896L8.85509 50.6649C9.25343 49.3633 10.4485 48.4621 11.7431 48.4621L33.9507 48.4621C35.345 48.4621 36.54 49.3633 36.8388 50.7651L41.7185 69.9897C42.2164 71.8921 40.8222 73.7946 38.8305 73.7946"/>
	<path fill="#2D1B0A" d="M38.8253 74.7958L6.25591 74.7958C4.9611 74.7958 3.7659 74.195 3.06869 73.1938C2.2396 72.1925 2.07268 70.8908 2.37149 69.6893L7.84952 50.4646C8.34753 48.7624 9.94114 47.5609 11.734 47.5609L33.9449 47.5609C35.7377 47.5609 37.4309 48.7624 37.8293 50.5648L42.7098 69.7894C43.0086 70.9909 42.7098 72.2926 42.0126 73.2939C41.2158 74.195 40.0206 74.7958 38.8253 74.7958M11.734 49.4633C10.8376 49.4633 10.0407 50.0641 9.74194 50.9653L4.2639 70.1899C4.0647 70.7907 4.1643 71.4916 4.5627 71.9922C4.9611 72.4929 5.55871 72.7932 6.15631 72.7932L38.7257 72.7932C39.3233 72.7932 39.9209 72.4929 40.3194 71.9922C40.7178 71.4916 40.8174 70.8908 40.7178 70.1899L35.8373 50.9653C35.6381 50.0641 34.8413 49.4633 33.8453 49.4633L11.734 49.4633"/>
	<path fill="#FFD071" d="M77.4697 73.6944L44.9052 73.6944C42.9134 73.6944 41.4196 71.7919 42.0172 69.7894L47.4944 50.5647C47.8927 49.2631 49.0878 48.3619 50.3824 48.3619L72.59 48.3619C73.9843 48.3619 75.1792 49.2631 75.4781 50.6648L80.3577 69.8895C80.8557 71.7919 79.4614 73.6944 77.4697 73.6944"/>
	<path fill="#2D1B0A" d="M77.4646 74.6956L44.8952 74.6956C43.6004 74.6956 42.4052 74.0948 41.708 73.0936C40.8789 72.0923 40.712 70.7906 41.0108 69.5891L46.4888 50.3644C46.9868 48.6622 48.5804 47.4607 50.3732 47.4607L72.5842 47.4607C74.377 47.4607 76.0702 48.7624 76.4686 50.4646L81.3491 69.6892C81.6479 70.8907 81.3491 72.1924 80.6519 73.1937C79.9547 74.195 78.6599 74.6956 77.4646 74.6956M50.3732 49.3631C49.4768 49.3631 48.68 49.9639 48.3812 50.8651L42.9032 70.0897C42.704 70.6905 42.8036 71.3914 43.202 71.892C43.6004 72.3927 44.198 72.693 44.7956 72.693L77.365 72.693C77.9626 72.693 78.5602 72.3927 78.9587 71.892C79.3571 71.3914 79.4567 70.7906 79.3571 70.0897L74.4766 50.8651C74.2774 49.9639 73.4806 49.3631 72.4846 49.3631L50.3732 49.3631"/>
</svg>
