<?xml version="1.0" encoding="utf-8" ?>
<svg xmlns="http://www.w3.org/2000/svg" xmlns:xlink="http://www.w3.org/1999/xlink" width="96" height="52">
	<path fill="white" d="M0 0L96 0L96 52L0 52L0 0"/>
	<path fill="#2D1B0A" d="M93.7954 49.9617L1.8038 49.9617L1.8038 2.03815L93.7954 2.03815L93.7954 49.9617M3.80798 47.9732L91.7913 47.9732L91.7913 4.02668L3.80798 4.02668L3.80798 47.9732"/>
	<path fill="#FFD071" d="M17.1858 7.95415L78.1128 7.95415C79.3153 11.9312 82.4217 15.2123 86.6305 16.306L86.6305 34.6004C82.6222 35.7935 79.2151 39.0746 78.1128 42.9523L17.1858 42.9523C15.9833 38.9752 12.8769 35.6941 8.8685 34.6004L8.8685 16.4054C12.8769 15.2123 15.9833 12.1301 17.1858 7.95415"/>
	<path fill="#2D1B0A" d="M78.8643 43.9464L16.4342 43.9464C15.0313 39.4723 12.1253 36.4895 8.61796 35.4952L7.9165 15.6099C12.4259 14.3174 15.1315 11.434 16.2338 7.55639L78.8643 6.8604C80.2672 11.3346 83.1733 14.3174 86.881 15.3116L87.5825 35.2963C83.0731 36.5889 80.0668 39.6711 79.0647 43.151M17.8372 41.9579L77.261 41.9579C78.5637 38.2791 81.6702 35.1969 85.4781 33.805L85.4781 17.0019C81.7704 15.8088 78.6639 12.7266 77.261 8.84893L17.8372 8.84893C16.5345 12.7266 13.6284 15.7094 9.82047 17.1013L9.82047 33.805C13.5282 35.0975 16.4342 38.0803 17.8372 41.9579"/>
	<path fill="#FFE7DC" d="M34.9741 25.8508C34.9741 18.891 40.5858 13.1242 47.8008 13.1242C54.8154 13.1242 60.6275 18.6921 60.6275 25.8508C60.6275 32.8106 55.0159 38.5774 47.8008 38.5774C40.5858 38.3785 34.9741 32.7113 34.9741 25.8508"/>
	<path fill="#2D1B0A" d="M47.8008 39.5718C39.9836 39.2735 33.9708 33.3079 33.9708 25.8509C33.9708 18.2945 40.184 12.1301 47.8008 12.1301C55.4164 12.1301 61.6308 18.2945 61.6308 25.8509C61.7298 33.4073 55.5166 39.5718 47.8008 39.5718M47.8008 14.1186C41.2863 14.1186 35.9751 19.3882 35.9751 25.8509C35.9751 32.2142 41.1861 37.3844 47.9004 37.5833C54.4143 37.5833 59.7255 32.3137 59.7255 25.8509C59.7255 19.3882 54.4143 14.1186 47.8008 14.1186"/>
</svg>
