<?xml version="1.0" encoding="utf-8" ?>
<svg xmlns="http://www.w3.org/2000/svg" xmlns:xlink="http://www.w3.org/1999/xlink" width="86" height="82">
	<path fill="white" d="M5.74005 82C2.61827 82 0 79.4816 0 76.258L0 62.86C0 60.9459 0.906323 59.1327 2.51756 58.1253L3.52459 57.5209L11.5808 25.688C12.6885 21.3563 16.5152 18.4349 20.9461 18.4349L40.4824 18.4349L40.3817 15.312C40.3817 15.2113 40.3817 4.73464 40.3817 4.73464C40.3817 2.11548 42.4965 0 45.1148 0L68.5785 0C69.7869 0 71.096 0.503686 72.0023 1.51106C72.9087 2.41769 73.4122 3.62654 73.4122 4.73464L73.4122 15.312C73.4122 16.5209 73.0094 17.629 72.2037 18.4349L70.5925 20.2482L72.103 22.2629C72.9087 23.2703 73.4122 24.3784 73.7143 25.5872L81.9719 57.2187L83.0796 57.8231C84.8923 58.8305 86 60.7445 86 62.86L86 76.258C86 79.3808 83.4824 82 80.26 82L5.74005 82"/>
	<path fill="#7FCCD1" d="M79.7565 60.4926L5.94145 60.4926L14.6019 26.4435C15.3068 23.5221 18.0257 21.4066 21.0469 21.4066L64.4497 21.4066C67.4707 21.4066 70.089 23.4213 70.8947 26.3427L79.7565 60.4926"/>
	<path fill="#2D1B0A" d="M81.0657 61.5L4.6324 61.5L13.5949 26.242C14.5012 22.8169 17.5223 20.5 21.0469 20.5L64.4497 20.5C67.9743 20.5 70.9954 22.8169 71.9017 26.242L81.0657 61.5M7.25067 59.4853L78.5481 59.4853L69.9884 26.645C69.3842 24.1265 67.068 22.414 64.5504 22.414L21.1476 22.414C18.5294 22.414 16.3139 24.1265 15.7097 26.645L7.25067 59.4853"/>
	<path fill="#DEFFFE" d="M68.4777 2.7199L45.014 2.7199C43.9063 2.7199 43.3021 3.5258 43.3021 4.43243L43.3021 15.0098C43.3021 16.1179 44.1077 16.7224 45.014 16.7224L68.4777 16.7224C69.5855 16.7224 70.1897 15.9165 70.1897 15.0098L70.1897 4.43243C70.1897 3.62653 69.3841 2.7199 68.4777 2.7199"/>
	<path fill="#2D1B0A" d="M68.4778 17.7297L45.0141 17.7297C43.5035 17.7297 42.2951 16.5209 42.2951 15.0098L42.2951 4.43243C42.2951 2.92138 43.5035 1.71253 45.0141 1.71253L68.4778 1.71253C69.8876 1.71253 71.1967 3.02211 71.1967 4.43243L71.1967 15.0098C71.1967 16.6216 70.089 17.7297 68.4778 17.7297M45.0141 3.72727C44.3092 3.72727 44.3092 4.33169 44.3092 4.43243L44.3092 15.0098C44.3092 15.715 44.9134 15.715 45.0141 15.715L68.4778 15.715C69.1827 15.715 69.1827 15.1105 69.1827 15.0098L69.1827 4.43243C69.1827 4.13022 68.7799 3.72727 68.4778 3.72727L45.0141 3.72727"/>
	<path fill="#2D1B0A" d="M55.4872 18.0319L58.5082 18.0319L58.5082 21.9607L55.4872 21.9607L55.4872 18.0319"/>
	<path fill="#2D1B0A" d="M55.4872 18.0319L58.5082 18.0319L58.5082 21.9607L55.4872 21.9607L55.4872 18.0319"/>
	<path fill="#DEFFFE" d="M63.7456 38.1793L46.4247 38.1793C45.6191 38.1793 44.9142 37.5749 44.9142 36.6683L44.9142 27.4005C44.9142 26.5946 45.5184 25.8894 46.4247 25.8894L63.7456 25.8894C64.5512 25.8894 65.2657 26.4938 65.2657 27.4005L65.2657 36.6683C65.3568 37.2727 64.6519 38.1793 63.7456 38.1793"/>
	<path fill="#2D1B0A" d="M63.7495 39.1867L46.4246 39.1867C45.0145 39.1867 43.9065 38.0787 43.9065 36.6683L43.9065 27.4005C43.9065 25.9902 45.0145 24.882 46.4246 24.882L63.7495 24.882C65.1597 24.882 66.2736 25.9902 66.2736 27.4005L66.2736 36.6683C66.3684 37.7764 65.1597 39.1867 63.7495 39.1867M46.5254 26.796C46.2232 26.796 46.0217 27.0983 46.0217 27.2997L46.0217 36.5676C46.0217 36.8698 46.3239 37.0713 46.5254 37.0713L63.8503 37.0713C64.0517 37.0713 64.3539 36.6683 64.3539 36.5676L64.3539 27.2997C64.3539 26.9975 64.0517 26.796 63.8503 26.796L46.5254 26.796"/>
	<path fill="#7FCCD1" d="M80.4615 79.1793L5.74017 79.1793C4.22963 79.1793 3.0212 77.9705 3.0212 76.4594L3.0212 63.0614C3.0212 61.5504 4.22963 60.3415 5.74017 60.3415L80.4615 60.3415C81.972 60.3415 83.1805 61.5504 83.1805 63.0614L83.1805 76.4594C83.0797 77.9705 81.972 79.1793 80.4615 79.1793"/>
	<path fill="#2D1B0A" d="M80.4613 80.1867L5.74 80.1867C3.72594 80.1867 2.014 78.5749 2.014 76.4594L2.014 63.0614C2.014 61.0466 3.62524 59.3341 5.74 59.3341L80.4613 59.3341C82.4754 59.3341 84.1873 60.9459 84.1873 63.0614L84.1873 76.4594C84.0866 78.4741 82.4754 80.1867 80.4613 80.1867M5.74 61.3488C4.83367 61.3488 4.02805 62.054 4.02805 63.0614L4.02805 76.4594C4.02805 77.366 4.73297 78.1719 5.74 78.1719L80.4613 78.1719C81.3676 78.1719 82.1733 77.4668 82.1733 76.4594L82.1733 63.0614C82.1733 62.1547 81.4683 61.3488 80.4613 61.3488L5.74 61.3488"/>
	<path fill="#2D1B0A" d="M35.7494 35.0566L22.1546 35.0566C20.8454 35.0566 19.7377 33.9484 19.7377 32.6389L19.7377 30.1204L21.7517 30.1204L21.7517 32.6389C21.7517 32.8403 21.9532 33.0418 22.1546 33.0418L35.7494 33.0418C35.9508 33.0418 36.0515 32.9411 36.0515 32.9411C36.0515 32.9411 36.1522 32.8403 36.1522 32.6389L36.1522 30.1204L38.1663 30.1204L38.1663 32.6389C38.1663 33.344 37.9649 33.9484 37.4614 34.3514C37.0585 34.8551 36.4543 35.0566 35.7494 35.0566"/>
	<path fill="#EA5050" d="M19.5363 47.4472L16.6159 47.4472C15.5082 47.4472 14.7026 46.5406 14.7026 45.5332C14.7026 44.4251 15.6089 43.6192 16.6159 43.6192L19.5363 43.6192C20.644 43.6192 21.4496 44.5258 21.4496 45.5332C21.4496 46.6413 20.5433 47.4472 19.5363 47.4472"/>
	<path fill="#2D1B0A" d="M19.5363 48.4546L16.6159 48.4546C15.0047 48.4546 13.6955 47.145 13.6955 45.5332C13.6955 43.9214 15.0047 42.6118 16.6159 42.6118L19.5363 42.6118C21.1475 42.6118 22.4567 43.9214 22.4567 45.5332C22.4567 47.145 21.1475 48.4546 19.5363 48.4546M16.6159 44.6266C16.1124 44.6266 15.7096 45.0295 15.7096 45.5332C15.7096 46.0369 16.1124 46.4398 16.6159 46.4398L19.5363 46.4398C20.0398 46.4398 20.4426 46.0369 20.4426 45.5332C20.4426 45.0295 20.0398 44.6266 19.5363 44.6266L16.6159 44.6266"/>
	<path fill="#FFD071" d="M31.822 47.5479L28.9016 47.5479C27.7939 47.5479 26.9883 46.6413 26.9883 45.6339C26.9883 44.5258 27.8946 43.7199 28.9016 43.7199L31.822 43.7199C32.9297 43.7199 33.7353 44.6265 33.7353 45.6339C33.7353 46.6413 32.829 47.5479 31.822 47.5479"/>
	<path fill="#2D1B0A" d="M31.822 48.5553L28.9016 48.5553C27.2904 48.5553 25.9812 47.2457 25.9812 45.6339C25.9812 44.0221 27.2904 42.7125 28.9016 42.7125L31.822 42.7125C33.4332 42.7125 34.7424 44.0221 34.7424 45.6339C34.7424 47.2457 33.4332 48.5553 31.822 48.5553M28.9016 44.6265C28.3981 44.6265 27.9953 45.0295 27.9953 45.5332C27.9953 46.0368 28.3981 46.4398 28.9016 46.4398L31.822 46.4398C32.3255 46.4398 32.7283 46.0368 32.7283 45.5332C32.7283 45.0295 32.3255 44.6265 31.822 44.6265L28.9016 44.6265"/>
	<path fill="#FFD071" d="M44.1077 47.5479L41.1873 47.5479C40.0796 47.5479 39.274 46.6413 39.274 45.6339C39.274 44.5258 40.1803 43.7199 41.1873 43.7199L44.1077 43.7199C45.2154 43.7199 46.021 44.6265 46.021 45.6339C46.021 46.742 45.1147 47.5479 44.1077 47.5479"/>
	<path fill="#2D1B0A" d="M44.1077 48.5553L41.1873 48.5553C39.5761 48.5553 38.2669 47.2457 38.2669 45.6339C38.2669 44.0221 39.5761 42.7125 41.1873 42.7125L44.1077 42.7125C45.7189 42.7125 47.0281 44.0221 47.0281 45.6339C47.0281 47.2457 45.7189 48.5553 44.1077 48.5553M41.1873 44.7273C40.6838 44.7273 40.281 45.1302 40.281 45.6339C40.281 46.1376 40.6838 46.5405 41.1873 46.5405L44.1077 46.5405C44.6112 46.5405 45.014 46.1376 45.014 45.6339C45.014 45.1302 44.6112 44.7273 44.1077 44.7273L41.1873 44.7273"/>
	<path fill="#FFD071" d="M56.3935 47.5479L53.4731 47.5479C52.3654 47.5479 51.5598 46.6413 51.5598 45.6339C51.5598 44.5258 52.4661 43.7199 53.4731 43.7199L56.3935 43.7199C57.5012 43.7199 58.3068 44.6265 58.3068 45.6339C58.3068 46.6413 57.4005 47.5479 56.3935 47.5479"/>
	<path fill="#2D1B0A" d="M56.3935 48.5553L53.4731 48.5553C51.8619 48.5553 50.5527 47.2457 50.5527 45.6339C50.5527 44.0221 51.8619 42.7125 53.4731 42.7125L56.3935 42.7125C58.0047 42.7125 59.3139 44.0221 59.3139 45.6339C59.3139 47.2457 58.0047 48.5553 56.3935 48.5553M53.4731 44.6265C52.9696 44.6265 52.5668 45.0295 52.5668 45.5332C52.5668 46.0368 52.9696 46.4398 53.4731 46.4398L56.3935 46.4398C56.897 46.4398 57.2998 46.0368 57.2998 45.5332C57.2998 45.0295 56.897 44.6265 56.3935 44.6265L53.4731 44.6265"/>
	<path fill="#FFD071" d="M68.5785 47.3464L65.6581 47.3464C64.5504 47.3464 63.7448 46.4398 63.7448 45.4324C63.7448 44.3243 64.6511 43.5184 65.6581 43.5184L68.5785 43.5184C69.6862 43.5184 70.4918 44.425 70.4918 45.4324C70.4918 46.5405 69.6862 47.3464 68.5785 47.3464"/>
	<path fill="#2D1B0A" d="M68.5785 48.3538L65.6581 48.3538C64.0469 48.3538 62.7377 47.0442 62.7377 45.4324C62.7377 43.8206 64.0469 42.511 65.6581 42.511L68.5785 42.511C70.1897 42.511 71.4989 43.8206 71.4989 45.4324C71.4989 47.0442 70.1897 48.3538 68.5785 48.3538M65.6581 44.5258C65.1546 44.5258 64.7518 44.9287 64.7518 45.4324C64.7518 45.9361 65.1546 46.339 65.6581 46.339L68.5785 46.339C69.082 46.339 69.4848 45.9361 69.4848 45.4324C69.4848 44.9287 69.082 44.5258 68.5785 44.5258L65.6581 44.5258"/>
	<path fill="#EA5050" d="M19.5363 55.1032L16.6159 55.1032C15.5082 55.1032 14.7026 54.1966 14.7026 53.1892C14.7026 52.0811 15.6089 51.2752 16.6159 51.2752L19.5363 51.2752C20.644 51.2752 21.4496 52.1818 21.4496 53.1892C21.4496 54.1966 20.5433 55.1032 19.5363 55.1032"/>
	<path fill="#2D1B0A" d="M19.5363 56.1106L16.6159 56.1106C15.0047 56.1106 13.6955 54.801 13.6955 53.1892C13.6955 51.5774 15.0047 50.2678 16.6159 50.2678L19.5363 50.2678C21.1475 50.2678 22.4567 51.5774 22.4567 53.1892C22.4567 54.801 21.1475 56.1106 19.5363 56.1106M16.6159 52.2826C16.1124 52.2826 15.7096 52.6855 15.7096 53.1892C15.7096 53.6929 16.1124 54.0958 16.6159 54.0958L19.5363 54.0958C20.0398 54.0958 20.4426 53.6929 20.4426 53.1892C20.4426 52.6855 20.0398 52.2826 19.5363 52.2826L16.6159 52.2826"/>
	<path fill="#FFD071" d="M31.822 55.1032L28.9016 55.1032C27.7939 55.1032 26.9883 54.1966 26.9883 53.1892C26.9883 52.0811 27.8946 51.2752 28.9016 51.2752L31.822 51.2752C32.9297 51.2752 33.7353 52.1818 33.7353 53.1892C33.7353 54.1966 32.829 55.1032 31.822 55.1032"/>
	<path fill="#2D1B0A" d="M31.822 56.1106L28.9016 56.1106C27.2904 56.1106 25.9812 54.801 25.9812 53.1892C25.9812 51.5774 27.2904 50.2678 28.9016 50.2678L31.822 50.2678C33.4332 50.2678 34.7424 51.5774 34.7424 53.1892C34.7424 54.801 33.4332 56.1106 31.822 56.1106M28.9016 52.2826C28.3981 52.2826 27.9953 52.6855 27.9953 53.1892C27.9953 53.6929 28.3981 54.0958 28.9016 54.0958L31.822 54.0958C32.3255 54.0958 32.7283 53.6929 32.7283 53.1892C32.7283 52.6855 32.3255 52.2826 31.822 52.2826L28.9016 52.2826"/>
	<path fill="#FFD071" d="M44.1077 55.2039L41.1873 55.2039C40.0796 55.2039 39.274 54.2973 39.274 53.2899C39.274 52.1818 40.1803 51.3759 41.1873 51.3759L44.1077 51.3759C45.2154 51.3759 46.021 52.2825 46.021 53.2899C46.021 54.2973 45.1147 55.2039 44.1077 55.2039"/>
	<path fill="#2D1B0A" d="M44.1077 56.2113L41.1873 56.2113C39.5761 56.2113 38.2669 54.9017 38.2669 53.2899C38.2669 51.6781 39.5761 50.3685 41.1873 50.3685L44.1077 50.3685C45.7189 50.3685 47.0281 51.6781 47.0281 53.2899C47.0281 54.9017 45.7189 56.2113 44.1077 56.2113M41.1873 52.3833C40.6838 52.3833 40.281 52.7862 40.281 53.2899C40.281 53.7936 40.6838 54.1965 41.1873 54.1965L44.1077 54.1965C44.6112 54.1965 45.014 53.7936 45.014 53.2899C45.014 52.7862 44.6112 52.3833 44.1077 52.3833L41.1873 52.3833"/>
	<path fill="#FFD071" d="M56.3935 55.1032L53.4731 55.1032C52.3654 55.1032 51.5598 54.1966 51.5598 53.1892C51.5598 52.0811 52.4661 51.2752 53.4731 51.2752L56.3935 51.2752C57.5012 51.2752 58.3068 52.1818 58.3068 53.1892C58.3068 54.1966 57.4005 55.1032 56.3935 55.1032"/>
	<path fill="#2D1B0A" d="M56.3935 56.1106L53.4731 56.1106C51.8619 56.1106 50.5527 54.801 50.5527 53.1892C50.5527 51.5774 51.8619 50.2678 53.4731 50.2678L56.3935 50.2678C58.0047 50.2678 59.3139 51.5774 59.3139 53.1892C59.3139 54.801 58.0047 56.1106 56.3935 56.1106M53.4731 52.2826C52.9696 52.2826 52.5668 52.6855 52.5668 53.1892C52.5668 53.6929 52.9696 54.0958 53.4731 54.0958L56.3935 54.0958C56.897 54.0958 57.2998 53.6929 57.2998 53.1892C57.2998 52.6855 56.897 52.2826 56.3935 52.2826L53.4731 52.2826"/>
	<path fill="#FFD071" d="M68.5785 55.0025L65.6581 55.0025C64.5504 55.0025 63.7448 54.0959 63.7448 53.0885C63.7448 51.9804 64.6511 51.1745 65.6581 51.1745L68.5785 51.1745C69.6862 51.1745 70.4918 52.0811 70.4918 53.0885C70.4918 54.0959 69.6862 55.0025 68.5785 55.0025"/>
	<path fill="#2D1B0A" d="M68.5785 56.0099L65.6581 56.0099C64.0469 56.0099 62.7377 54.7003 62.7377 53.0885C62.7377 51.4767 64.0469 50.1671 65.6581 50.1671L68.5785 50.1671C70.1897 50.1671 71.4989 51.4767 71.4989 53.0885C71.4989 54.7003 70.1897 56.0099 68.5785 56.0099M65.6581 52.1819C65.1546 52.1819 64.7518 52.5848 64.7518 53.0885C64.7518 53.5922 65.1546 53.9951 65.6581 53.9951L68.5785 53.9951C69.082 53.9951 69.4848 53.5922 69.4848 53.0885C69.4848 52.5848 69.082 52.1819 68.5785 52.1819L65.6581 52.1819"/>
</svg>
