<?xml version="1.0" encoding="utf-8" ?>
<svg xmlns="http://www.w3.org/2000/svg" xmlns:xlink="http://www.w3.org/1999/xlink" width="64" height="80">
	<path fill="white" d="M0 62.2785C0 55.3924 3.03797 49.0127 8.50633 44.2532L14.0759 40.3038C14.3797 40.1013 15.6962 39.2911 17.6203 38.3797L21.5696 36.557L18.4304 33.519C14.5823 29.7722 12.4557 24.5063 12.4557 19.1392C12.962 8.3038 21.6709 0 32.2025 0C37.3671 0 42.5316 2.22785 46.2785 6.17722C50.0253 10.0253 51.9494 15.1899 51.7468 20.3544C51.5443 25.2152 49.6203 29.7722 46.1772 33.3165L43.2405 36.2532L46.9873 38.0759C47.6962 38.481 50.1266 40 51.5443 40.9114C59.3418 45.9747 64 53.9747 64 62.1772L64 79.5949L0 80L0 62.2785"/>
	<path fill="#7FCCD1" d="M3.03805 62.1771C3.03805 54.9872 6.88615 48.2024 13.8734 43.9493L32.6077 64.6075L49.9242 43.4429C56.9115 47.9999 60.9622 54.9872 60.9622 62.1771L60.9622 76.5568L3.03805 76.9619L3.03805 62.1771"/>
	<path fill="#2D1B0A" d="M1.9747 77.9747L1.9747 62.1772C1.9747 54.3798 6.1266 47.4937 13.3165 43.038L32.557 63.0886L49.6709 42.1266C57.6709 47.2912 62.0253 54.6836 62.0253 62.1772L62.0253 77.5696L1.9747 77.9747M4.00002 62.1772L4.00002 75.9494L59.8988 75.5443L59.8988 62.1772C59.8988 55.595 56.2532 49.1139 50.076 44.7595L32.557 66.1266L13.6203 45.2658C7.44305 49.3165 4.00002 55.3924 4.00002 62.1772"/>
	<path fill="#2D1B0A" d="M29.4684 53.8734C29.4684 49.1139 30.6835 45.2658 32.1013 45.4607C33.519 45.6709 34.5316 49.8228 34.5316 54.5823C34.5316 58.6329 33.6203 62.2785 32.4051 62.9873C32.2025 62.9873 32.2025 62.9873 31.8987 62.9873C31.5949 62.9873 31.6962 62.9873 31.6962 62.9873C30.3797 62.0759 29.4684 58.4304 29.4684 53.8734"/>
	<path fill="#2D1B0A" d="M27.5443 40.9114C27.5443 38.4811 29.6709 36.557 32.1013 36.557C34.5316 36.557 36.4557 38.6836 36.4557 41.114C36.4557 43.2405 34.7342 44.9621 32.6076 45.4684C32.4051 45.4684 32.1013 45.4684 31.8987 45.4684C31.6962 45.4684 31.3924 45.4684 31.1899 45.4684C28.962 45.2659 27.5443 43.3418 27.5443 40.9114"/>
	<path fill="#FFD071" d="M29.6559 35.848C30.0611 35.9493 30.8711 36.1518 31.9851 36.1518C32.7952 36.1518 33.8078 36.1518 34.5168 36.0505C42.4155 34.8354 48.3901 28.1518 48.7088 20.1518C49.099 10.9366 41.2002 2.93665 32.1876 2.93665C23.1749 2.93665 15.9851 10.0253 15.4787 19.0379C15.4787 27.3417 21.4534 34.4304 29.6559 35.848"/>
	<path fill="#2D1B0A" d="M31.8907 37.1644C30.7763 37.1644 29.8646 36.9619 29.3581 36.8606C20.6458 35.3416 14.3649 27.848 14.3649 19.0378C14.8714 9.41757 22.6719 1.9239 32.0933 1.9239C36.7533 1.9239 41.3121 3.94922 44.7565 7.49352C48.0995 11.0378 49.8217 15.5948 49.6351 20.1517C49.3152 28.5568 43.0343 35.6454 34.6259 36.9619C33.8155 37.1644 32.8024 37.1644 31.8907 37.1644M32.1946 3.94922C23.7863 3.94922 16.8975 10.6328 16.4923 19.0378C16.4923 26.8353 22.0641 33.5188 29.8646 34.8353C30.1685 34.9366 30.8776 35.0378 32 35.0378C32.8024 35.0378 33.7142 35.0378 34.4233 34.9366C41.9199 33.7214 47.4917 27.4429 47.6943 20.0505C47.8969 15.9998 46.276 11.9492 43.3382 8.80998C40.299 5.67074 36.2468 3.94922 32.1946 3.94922"/>
</svg>
