<?xml version="1.0" encoding="utf-8" ?>
<svg xmlns="http://www.w3.org/2000/svg" xmlns:xlink="http://www.w3.org/1999/xlink" width="94" height="84">
	<path fill="white" d="M85.6924 84C84.2741 84 83.2609 83.3906 82.7544 83.0859L59.9592 63.6856L58.0343 65.2092C51.6516 70.0846 43.8506 72.8271 36.0496 72.8271C27.3368 72.8271 19.1305 69.7799 12.9505 64.3966C-2.24625 51.497 -4.3738 28.4401 8.18887 12.8996C15.0781 4.67231 25.2093 0 36.0496 0C44.5598 0 52.8674 3.04716 59.3513 8.63362C71.7114 19.0955 75.8652 35.8549 69.8878 50.5828L69.0773 52.6143L92.2777 72.0145C93.4934 73.2334 94 74.3507 94 75.6711C94 77.4994 93.2908 79.3277 91.9738 81.156C89.9475 82.6796 88.0226 84 85.6924 84"/>
	<path fill="#7FCCD1" d="M89.768 74.1984L64.7439 53.2746C72.6462 38.4451 69.3029 21.2795 57.0443 10.9191C51.0668 5.84051 43.3671 2.9965 35.6674 2.9965C25.7388 2.9965 16.4183 7.26252 10.1369 14.7788C-1.41268 28.9989 0.51224 50.2275 14.4932 62.0098C20.268 67.0884 27.9678 69.7293 35.6674 69.7293C44.3802 69.7293 52.4852 66.2758 58.7665 60.2831L83.9932 80.4959C84.4997 80.8006 84.9051 81.0038 85.4116 81.0038C86.6273 81.0038 87.843 80.2928 89.0587 79.277C89.9706 78.0582 90.4771 76.8393 90.4771 75.6204C90.4771 75.1126 90.2746 74.7063 89.768 74.1984M35.6674 63.4318C20.7747 63.4318 9.02244 51.3447 9.02244 36.7184C9.02244 22.092 20.9772 10.005 35.6674 10.005C50.5602 10.005 62.3125 22.092 62.3125 36.7184C62.3125 51.3447 50.3577 63.4318 35.6674 63.4318"/>
	<path fill="#2D1B0A" d="M85.3887 82.0195C84.5782 82.0195 83.9703 81.7148 83.4638 81.4101L59.5542 60.9941C52.9689 67.2916 44.56 70.745 35.7459 70.745C27.6409 70.745 19.6373 67.7994 13.8625 62.8224C-0.52376 50.7353 -2.55 28.8974 9.4048 14.1694C15.8888 6.44997 25.4121 1.9808 35.7459 1.9808C43.6482 1.9808 51.6518 4.92639 57.7305 10.1066C70.3945 20.7716 73.8391 38.3436 66.1394 52.7668L90.4543 73.3859C90.9608 73.8937 91.4674 74.5032 91.4674 75.5189C91.4674 76.9409 90.9608 78.3629 89.8464 79.7849C88.1241 81.3085 86.7057 82.0195 85.3887 82.0195M84.5782 79.5818C84.9834 79.7849 85.1861 79.8865 85.3887 79.8865C86.1992 79.8865 87.111 79.3786 88.3267 78.4645C89.1372 77.4488 89.4412 76.433 89.4412 75.5189C89.4412 75.4173 89.4412 75.2142 89.0359 74.8079L63.404 53.3762L64.3158 51.7511C71.509 38.1404 68.267 21.6858 56.3122 11.6301C50.5374 6.75468 43.0403 3.91067 35.5433 3.91067C25.9186 3.91067 16.9019 8.07512 10.8232 15.2867C-0.42245 29.1005 1.50247 49.618 15.0783 61.0957C20.4478 65.8696 27.9449 68.612 35.6446 68.612C43.8508 68.612 51.8545 65.3617 58.0345 59.4705L59.3515 58.1501L84.5782 79.5818M35.6446 64.4475C20.3465 64.4475 7.98643 52.0558 7.98643 36.7184C7.98643 21.381 20.3465 8.98926 35.6446 8.98926C50.9427 8.98926 63.3027 21.381 63.3027 36.7184C63.3027 52.0558 50.9427 64.4475 35.6446 64.4475M35.6446 11.0207C21.4609 11.0207 10.0127 22.4983 10.0127 36.7184C10.0127 50.9385 21.4609 62.4161 35.6446 62.4161C49.8282 62.4161 61.2765 50.9385 61.2765 36.7184C61.2765 22.4983 49.8282 11.0207 35.6446 11.0207"/>
	<path fill="#2D1B0A" d="M26.8302 30.1669C26.8302 26.104 29.6669 22.4474 33.5168 21.5333L33.5168 17.1657L39.0889 17.1657L39.0889 21.2286C39.2916 21.2286 46.7886 22.3459 46.2821 30.1669L40.7099 30.1669C40.7099 28.0339 38.785 26.5103 36.6659 26.5103C34.5299 26.5103 32.605 28.4402 32.605 30.3701C32.605 31.7921 33.8207 33.0109 34.5299 33.2141C35.2391 33.7219 35.7456 33.7219 39.2916 34.1282C42.9388 34.6361 46.7886 37.9879 46.5016 42.7618C46.2821 46.4184 43.648 50.4813 39.4942 51.7002L39.4942 55.5599L33.922 55.5599L33.922 51.7002C30.0722 50.4813 27.2354 47.1294 27.2354 42.7618L32.8076 42.7618C32.8076 44.8948 34.7325 46.6216 36.8601 46.6216C38.9876 46.6216 40.9125 44.6917 40.9125 42.7618C40.9125 41.543 40.406 40.6288 39.4942 39.9178C38.785 39.2068 37.3666 39.2068 36.3535 39.0037C30.984 37.6832 26.8302 35.0424 26.8302 30.1669"/>
</svg>
