<?xml version="1.0" encoding="utf-8" ?>
<svg xmlns="http://www.w3.org/2000/svg" xmlns:xlink="http://www.w3.org/1999/xlink" width="86" height="80">
	<path fill="white" d="M10.8495 80C4.87731 80 0 75.0125 0 68.9277L0 24.0399C0 21.7456 1.79167 19.9501 4.08102 19.9501L15.8264 19.9501L15.8264 5.08728C15.8264 2.29426 18.1157 0 20.8032 0L65.5949 0C74.2546 0 81.5208 6.88279 82.1181 15.6608L82.2176 17.2569L83.5116 18.0549C85.0046 18.9526 86 20.6484 86 22.4439L86 74.813C86 77.606 83.7106 79.9002 81.0231 79.9002L10.8495 80"/>
	<path fill="#FFD071" d="M11.1482 76.3591L73.6574 76.3591C74.7523 76.3591 75.6482 75.4615 75.6482 74.3642L75.6482 23.8904C75.6482 22.7931 74.7523 21.8954 73.6574 21.8954L4.37969 21.8954C3.28478 21.8954 2.38895 22.7931 2.38895 23.8904L2.38895 67.5811C2.38895 72.4689 6.27089 76.3591 11.1482 76.3591"/>
	<path fill="#2D1B0A" d="M73.6575 77.3067L11.1482 77.3067C5.77319 77.3067 1.4931 72.9177 1.4931 67.6309L1.4931 23.9401C1.4931 22.3441 2.78708 20.9476 4.47921 20.9476L73.757 20.9476C75.3496 20.9476 76.7431 22.2444 76.7431 23.9401L76.7431 74.4139C76.6436 76.0099 75.25 77.3067 73.6575 77.3067M4.37967 22.9426C3.88199 22.9426 3.3843 23.3416 3.3843 23.9401L3.3843 67.6309C3.3843 71.9202 6.8681 75.3117 11.0487 75.3117L73.5579 75.3117C74.0556 75.3117 74.5533 74.9127 74.5533 74.3142L74.5533 23.8404C74.5533 23.3416 74.1551 22.8429 73.5579 22.8429L4.37967 22.8429"/>
	<path fill="#F4F4F4" d="M79.3309 16.7582L79.3309 70.9228C79.3309 72.5188 78.0369 73.8156 76.4444 73.8156L21.0022 73.8156C19.4096 73.8156 18.1157 72.5188 18.1157 70.9228L18.1157 5.38667C18.1157 3.79066 19.4096 2.4939 21.0022 2.4939L65.0972 2.4939C72.8611 2.4939 79.3309 8.87794 79.3309 16.7582"/>
	<path fill="#2D1B0A" d="M76.3483 74.8129L20.903 74.8129C18.713 74.8129 17.0208 73.0174 17.0208 70.9226L17.0208 5.38647C17.0208 3.19196 18.8126 1.4962 20.903 1.4962L65.0004 1.4962C73.362 1.4962 80.2344 8.37899 80.2344 16.758L80.2344 70.9226C80.33 73.1171 78.5382 74.8129 76.3483 74.8129M20.903 3.49121C19.808 3.49121 19.0117 4.38897 19.0117 5.38647L19.0117 70.9226C19.0117 72.0199 19.9075 72.8179 20.903 72.8179L76.3483 72.8179C77.4433 72.8179 78.2396 71.9201 78.2396 70.9226L78.2396 16.758C78.2396 9.47625 72.267 3.49121 65.0004 3.49121L20.903 3.49121"/>
	<path fill="#564E47" d="M59.0752 12.2693L27.0243 12.2693C26.5266 12.2693 25.9294 11.8703 25.9294 11.2718C25.9294 10.7731 26.4271 10.2743 27.0243 10.2743L59.0752 10.2743C59.5729 10.2743 60.0706 10.6733 60.0706 11.2718C60.0706 11.7706 59.5729 12.2693 59.0752 12.2693M40.86 20.7481L26.9248 20.7481C26.4271 20.7481 25.9294 20.3491 25.9294 19.7506C25.9294 19.2519 26.3275 18.7531 26.9248 18.7531L40.86 18.7531C41.3576 18.7531 41.8553 19.1521 41.8553 19.7506C41.8553 20.3491 41.4572 20.7481 40.86 20.7481"/>
	<path fill="#FFD071" d="M68.0834 2.99251C72.7616 2.99251 78.4353 8.17954 78.4353 14.7631C76.2454 13.2668 69.676 13.4663 69.676 11.8703C69.676 9.6758 72.1644 5.78553 68.0834 2.99251"/>
	<path fill="#2D1B0A" d="M79.3311 16.7581L77.7384 15.6608C76.9422 15.0623 75.0509 14.7631 73.4584 14.4638C70.8704 14.0648 68.5811 13.6658 68.5811 11.8703C68.5811 11.1721 68.7801 10.4738 68.9792 9.67581C69.4769 7.48129 69.9746 5.48628 67.4862 3.79052L64.7987 1.99501L68.0834 1.99501C73.2593 1.99501 79.4305 7.58104 79.4305 14.7631L79.4305 16.7581M70.6713 11.7706C71.169 12.0698 72.7616 12.3691 73.8565 12.5686C75.0509 12.7681 76.2455 12.9676 77.2408 13.2668C76.6436 9.27681 73.8565 5.98503 70.8704 4.68828C71.7662 6.58354 71.3681 8.6783 70.97 10.1746C70.7709 10.7731 70.6713 11.3716 70.6713 11.7706"/>
	<path fill="#FFD071" d="M11.1979 28.8777L36.5798 28.8777C39.2673 28.8777 45.3391 19.8004 48.5244 19.8004L80.177 19.8004C81.7696 19.8004 83.0636 21.0972 83.0636 22.6932L83.0636 73.6657C83.0636 75.2617 81.7696 76.5585 80.177 76.5585L11.1979 76.5585C9.60533 76.5585 8.31135 75.2617 8.31135 73.6657L8.31135 31.7705C8.31135 30.1745 9.60533 28.8777 11.1979 28.8777"/>
	<path fill="#2D1B0A" d="M80.1273 77.606L11.1481 77.606C8.95833 77.606 7.2662 75.8105 7.2662 73.7157L7.2662 31.8204C7.2662 30.8229 7.66435 29.8254 8.36111 29.0274C9.05787 28.3292 10.0532 27.8304 11.1481 27.8304L36.5301 27.8304C37.4259 27.8304 39.6157 25.5361 41.3079 23.9401C43.8958 21.2469 46.3843 18.7531 48.5741 18.7531L80.2268 18.7531C82.4167 18.7531 84.1088 20.5486 84.1088 22.6434L84.1088 73.6159C84.0093 75.8105 82.3171 77.606 80.1273 77.606M11.1481 29.9252C10.6505 29.9252 10.1528 30.1247 9.75463 30.5237C9.35648 30.9227 9.1574 31.3217 9.1574 31.8204L9.1574 73.7157C9.1574 74.813 10.0532 75.611 11.0486 75.611L80.0278 75.611C81.1227 75.611 81.919 74.7132 81.919 73.7157L81.919 22.7431C81.919 21.6459 81.0231 20.8479 80.0278 20.8479L48.375 20.8479C47.081 20.8479 44.4931 23.5411 42.5023 25.4364C39.7153 28.2294 37.9236 29.9252 36.331 29.9252L11.1481 29.9252"/>
	<path fill="#2D1B0A" d="M6.86805 38.2045L83.8102 38.2045L83.8102 40.1995L6.86805 40.1995L6.86805 38.2045"/>
</svg>
