<?xml version="1.0" encoding="utf-8" ?>
<svg xmlns="http://www.w3.org/2000/svg" xmlns:xlink="http://www.w3.org/1999/xlink" width="74" height="94">
	<path fill="white" d="M59.3007 94C57.9918 94 56.4816 93.4968 54.9714 92.591L53.3605 91.6852L51.8503 92.6916C50.4408 93.5974 49.0313 94 47.8231 94C46.5143 94 45.1048 93.5974 43.5946 92.6916L41.9837 91.6852L40.3728 92.6916C38.9633 93.5974 37.6544 94 36.4463 94C35.2381 94 33.9293 93.4968 32.419 92.591L30.8082 91.5846L29.1973 92.591C27.7878 93.4968 26.3782 93.8994 25.1701 93.8994C23.8612 93.8994 22.4517 93.3961 20.9415 92.4904L19.3306 91.4839L17.7197 92.4904C16.2095 93.3961 15.0014 93.8994 13.8939 93.8994C12.7864 93.8994 11.4776 93.3961 9.96735 92.4904L8.45714 91.5846L6.94694 92.4904C5.73878 93.1949 4.42993 93.4968 3.22177 93.4968L0 93.4968L0 6.34047C0 2.91863 3.02041 0 6.6449 0L66.6503 0C68.3619 0 70.0735 0.503212 71.3823 1.40899C73.0939 2.6167 74 4.42827 74 6.54176L73.8993 52.1328L73.8993 90.2762C73.8993 91.8865 72.9932 93.1949 71.3823 93.7987L70.3755 94C69.0667 94 67.6571 93.5974 66.3483 92.8929L64.8381 91.9872L63.3279 92.8929C61.8177 93.4968 60.5088 94 59.3007 94"/>
	<path fill="#F4F4F4" d="M66.5496 2.96895L6.54419 2.96895C4.63126 2.96895 2.9197 4.57923 2.9197 6.29015L2.9197 90.226C2.9197 90.4271 2.9197 90.4271 3.12106 90.4271C5.94011 90.4271 8.15507 87.3073 8.15507 87.3073C8.15507 87.3073 12.1823 90.8298 13.8938 90.8298C15.6054 90.8298 19.4313 87.3073 19.4313 87.3073C19.4313 87.3073 22.7537 90.8298 25.17 90.8298C27.5864 90.8298 30.7075 87.3073 30.7075 87.3073C30.7075 87.3073 34.3319 90.8298 36.4462 90.8298C38.5605 90.8298 41.9836 87.3073 41.9836 87.3073C41.9836 87.3073 45.1047 90.8298 47.7224 90.8298C50.1387 90.8298 53.2598 87.3073 53.2598 87.3073C53.2598 87.3073 56.5823 90.8298 59.2 90.8298C61.6163 90.8298 64.7374 87.3073 64.7374 87.3073C64.7374 87.3073 67.3551 90.6284 70.2748 90.6284C70.7782 90.4271 70.7782 90.1253 70.7782 90.0247L70.7782 57.2152L70.7782 51.8811L70.8789 6.29015C70.8789 4.07602 68.6639 2.96895 66.5496 2.96895"/>
	<path fill="#2D1B0A" d="M59.2 91.8864C56.985 91.8864 54.468 89.8736 53.2598 88.7665C52.0517 89.8736 49.8367 91.8864 47.7224 91.8864C45.5075 91.8864 43.0911 89.8736 41.9836 88.7665C40.7755 89.9742 38.3592 91.8864 36.4462 91.8864C34.5333 91.8864 32.0163 89.8736 30.7075 88.7665C29.6 89.8736 27.2843 91.8864 25.17 91.8864C23.0558 91.8864 20.6394 89.8736 19.4313 88.7665C18.0217 89.9742 15.5047 91.8864 13.8939 91.8864C12.283 91.8864 9.76596 89.9742 8.25576 88.7665C7.24895 89.7729 5.43671 91.3832 3.12106 91.3832L1.9129 91.3832L1.9129 6.23972C1.9129 3.92495 4.02719 1.9121 6.54419 1.9121L66.5496 1.9121C69.1673 1.9121 71.8857 3.42174 71.8857 6.34037L71.785 57.2654L71.785 90.0748C71.785 91.0813 71.1809 91.4838 70.5768 91.6851C67.7578 91.7858 65.7442 89.9742 64.6367 88.8671C63.5292 89.9742 61.2136 91.8864 59.2 91.8864M53.2598 85.8479C54.8707 87.5588 57.4884 89.8736 59.3007 89.8736C60.9115 89.8736 63.3279 87.4581 64.0326 86.653L65.5428 86.653C66.1469 87.4581 67.9592 89.2697 69.7714 89.5716L69.7714 51.8307L69.8721 6.23972C69.8721 4.32752 67.6571 3.82431 66.5496 3.82431L6.54419 3.82431C5.23535 3.82431 3.92651 4.93137 3.92651 6.13908L3.92651 89.1691C5.83943 88.6658 7.34963 86.653 7.34963 86.653L8.75916 86.4517C10.5714 88.062 13.0884 89.7729 13.7932 89.7729C14.5986 89.7729 16.9143 88.062 18.6258 86.4517L20.0353 86.4517C21.2435 87.6594 23.5592 89.6723 25.0694 89.6723C26.4789 89.6723 28.7945 87.6594 29.902 86.4517L31.4122 86.3511C32.8217 87.6594 35.2381 89.5716 36.4462 89.5716C37.6544 89.5716 39.97 87.6594 41.2789 86.3511L42.7891 86.3511C43.5945 87.2569 46.0109 89.5716 47.8231 89.5716C49.2326 89.5716 51.5483 87.5588 52.6558 86.3511"/>
	<path fill="#2D1B0A" d="M9.8666 57.1649L64.9387 57.1649L64.9387 64.0085L9.8666 64.0085L9.8666 57.1649"/>
	<path fill="#F4F4F4" d="M63.4286 58.6745L63.4286 62.4989L11.3769 62.4989L11.3769 58.6745L63.4286 58.6745M66.449 55.6552L63.4286 55.6552L11.3769 55.6552L8.3565 55.6552L8.3565 58.6745L8.3565 62.4989L8.3565 65.5182L11.3769 65.5182L63.4286 65.5182L66.449 65.5182L66.449 62.4989L66.449 58.6745L66.449 55.6552"/>
	<path fill="#2D1B0A" d="M9.8666 47.9057L64.9387 47.9057L64.9387 54.8501L9.8666 54.8501L9.8666 47.9057"/>
	<path fill="#F4F4F4" d="M63.4286 49.4154L63.4286 53.3404L11.3769 53.3404L11.3769 49.4154L63.4286 49.4154M66.449 46.3961L63.4286 46.3961L11.3769 46.3961L8.3565 46.3961L8.3565 49.4154L8.3565 53.3404L8.3565 56.3597L11.3769 56.3597L63.4286 56.3597L66.449 56.3597L66.449 53.3404L66.449 49.4154L66.449 46.3961"/>
	<path fill="#2D1B0A" d="M9.8667 38.9486L37.9565 38.9486L37.9565 45.7922L9.8667 45.7922L9.8667 38.9486"/>
	<path fill="#F4F4F4" d="M36.4463 40.4582L36.4463 44.2826L11.3769 44.2826L11.3769 40.4582L36.4463 40.4582M39.4667 37.4389L36.4463 37.4389L11.3769 37.4389L8.3565 37.4389L8.3565 40.4582L8.3565 44.2826L8.3565 47.3019L11.3769 47.3019L36.4463 47.3019L39.4667 47.3019L39.4667 44.2826L39.4667 40.4582L39.4667 37.4389"/>
	<path fill="#2D1B0A" d="M9.8667 29.7902L37.9565 29.7902L37.9565 36.6338L9.8667 36.6338L9.8667 29.7902"/>
	<path fill="#F4F4F4" d="M36.4463 31.2998L36.4463 35.1242L11.3769 35.1242L11.3769 31.2998L36.4463 31.2998M39.4667 28.2805L36.4463 28.2805L11.3769 28.2805L8.3565 28.2805L8.3565 31.2998L8.3565 35.1242L8.3565 38.1435L11.3769 38.1435L36.4463 38.1435L39.4667 38.1435L39.4667 35.1242L39.4667 31.2998L39.4667 28.2805"/>
	<path fill="#2D1B0A" d="M9.8666 20.833L37.151 20.833L37.151 27.6766L9.8666 27.6766L9.8666 20.833"/>
	<path fill="#F4F4F4" d="M35.6408 22.3426L35.6408 26.167L11.3768 26.167L11.3768 22.3426L35.6408 22.3426M38.6612 19.3233L35.6408 19.3233L11.3768 19.3233L8.3564 19.3233L8.3564 22.3426L8.3564 26.167L8.3564 29.1863L11.3768 29.1863L35.6408 29.1863L38.6612 29.1863L38.6612 26.167L38.6612 22.3426L38.6612 19.3233"/>
	<path fill="#EA5050" d="M43.6953 33.7153L43.6953 35.4262L50.1388 35.4262L50.1388 37.8416L43.6953 37.8416L43.6953 39.4519L50.1388 39.4519L50.1388 45.6917L54.9715 45.6917L54.9715 39.4519L61.4149 39.4519L61.4149 37.8416L54.9715 37.8416L54.9715 35.4262L61.4149 35.4262L61.4149 33.7153L54.9715 33.514L62.1198 21.135L56.8843 21.135L52.5551 29.1863L48.2259 21.135L43.1918 21.135L50.1388 33.514"/>
</svg>
