<?xml version="1.0" encoding="utf-8" ?>
<svg xmlns="http://www.w3.org/2000/svg" xmlns:xlink="http://www.w3.org/1999/xlink" width="110" height="112">
	<path fill="white" d="M35.4084 112C34.503 112 33.7989 111.799 33.0947 111.398L25.8521 107.484C24.3432 106.781 23.4379 105.376 23.4379 103.871C23.4379 103.168 23.4379 102.466 23.8403 101.563L27.0592 96.043L24.8462 94.4373C19.1125 90.3226 14.787 85.0036 12.2722 78.9821L11.4675 77.0753L4.42604 77.0753C2.31361 77.0753 0 75.3692 0 73.1613L0 59.1111C0 56.9032 2.01184 55.1971 4.42604 55.1971L12.071 55.3978L12.9764 53.6918C15.0888 49.5771 18.1065 45.8638 22.0296 42.552L24.3432 40.5448L14.6864 29.6057L19.3136 28.3011C20.4202 27.8996 21.8284 27.3978 23.7397 27.3978C26.0533 27.3978 30.6805 28.1004 35.2072 32.6165C35.3078 32.7168 35.4084 32.8172 35.6095 33.0179L36.9172 34.3226L38.6273 33.8208C39.935 33.4194 41.3433 33.1183 42.651 32.8172L49.1894 31.4122L43.7575 27.4982C39.8344 24.5878 37.5208 20.0717 37.5208 15.3548C37.5208 7.02509 44.5622 0 52.9114 0C61.3611 0 68.3019 6.92473 68.3019 15.3548C68.3019 20.0717 66.1895 24.3871 62.4676 27.2975L57.2368 31.3118L63.6747 32.6165C78.8641 35.6272 91.0357 44.9606 95.5623 57.1039L96.2665 58.9104L98.1777 59.1111C103.207 59.6129 106.024 61.8208 107.432 63.5269C109.243 65.7348 110.249 68.7455 110 71.5556C109.846 74.5663 107.835 76.3728 106.024 76.3728L103.006 76.3728L103.006 71.7563L97.1718 71.2545C95.6629 80.7885 90.5327 88.6165 82.2842 94.638L80.0712 96.2437L82.6866 100.659C83.3907 101.663 83.5919 102.867 83.2901 104.072C82.9883 105.376 82.1836 106.38 81.0771 107.082L74.1362 110.996C73.0297 111.699 72.0238 111.699 71.5209 111.699C69.9114 111.699 68.6037 110.896 67.6984 109.491L63.5741 102.566L61.5623 102.867C59.4498 103.168 56.935 103.269 53.6155 103.269C51.0001 103.269 48.2841 103.068 44.9646 102.566L42.9528 102.265L39.0297 109.09C38.7279 110.996 37.3196 112 35.4084 112"/>
	<path fill="#99CC62" d="M35.3963 108.738C35.1951 108.738 34.8935 108.738 34.6924 108.538L27.2511 104.523C26.7483 104.323 26.5472 104.021 26.5472 103.62C26.5472 103.118 26.5472 102.917 26.7483 102.416L31.2734 94.7885C22.2232 89.5699 16.4914 82.6451 14.1786 74.8172L4.62561 73.914C3.9217 73.914 3.2178 73.4122 3.2178 73.0107L3.2178 58.9606C3.2178 58.4588 3.9217 58.0573 4.62561 58.0573L14.3797 58.258C16.9942 51.3333 21.5193 46.1147 27.955 41.7993L29.1617 41.0968L20.3126 31.0609C21.0165 30.8602 22.2232 30.3584 23.9327 30.3584C26.0444 30.3584 29.6645 31.0609 33.2846 34.6738C34.1896 35.577 34.994 36.5806 35.1951 37.0824L36.603 37.5842C42.1336 35.6774 47.8654 34.4731 53.5972 34.4731C73.6082 34.4731 90.6024 45.914 94.122 61.6702L94.3231 63.0752L95.7309 62.3727C96.4348 62.172 96.9376 61.8709 97.4404 61.8709C97.6415 61.8709 97.9432 61.8709 98.1443 61.8709C105.787 62.5735 107.496 68.0932 107.227 71.2043C107.227 72.6093 106.491 73.1111 106.29 73.1111C106.29 73.1111 106.29 72.9104 106.29 72.6093C106.491 71.2043 106.29 68.595 104.58 66.3871C103.675 65.1828 101.764 63.7778 98.1443 63.7778C97.2392 63.7778 96.0326 63.9785 95.3287 64.2795L94.6247 67.2903C94.6247 78.0287 87.9879 87.9641 76.9266 94.4874L80.3456 102.115C80.8483 102.817 80.5467 103.821 79.8428 104.222L72.7032 108.236C72.5021 108.437 71.9993 108.437 71.7981 108.437C71.2954 108.437 70.8931 108.236 70.5915 107.735L65.3625 98.9032C61.6418 99.8064 58.2229 100.007 53.9994 100.007C50.3794 100.007 46.5582 99.5054 42.737 98.8028L36.603 107.634C36.4018 108.538 35.8991 108.738 35.3963 108.738"/>
	<path fill="#2D1B0A" d="M35.4033 109.692C35.2022 109.692 34.5987 109.692 34.0958 109.29L26.7535 105.376C25.6472 104.874 25.446 104.072 25.446 103.57C25.446 102.968 25.446 102.666 25.7477 101.964L29.9721 95.0393C21.624 90.3225 15.6898 83.2974 13.2759 75.068L4.7267 74.8673C3.62033 74.8673 2.3128 74.0644 2.3128 72.9605L2.3128 58.9103C2.3128 57.706 3.51975 57.0035 4.7267 57.0035L13.7788 57.2042C16.2933 50.8816 20.9199 45.3619 27.5582 40.9461L18.7072 30.5088L20.2159 30.1074C20.3165 30.1074 20.417 30.0071 20.6182 30.0071C21.4228 29.8063 22.5292 29.4049 24.1385 29.4049C26.15 29.4049 30.1732 30.0071 34.1964 34.0214C35.001 34.8242 35.9062 35.9282 36.3085 36.6307C42.645 34.6235 48.4786 33.6199 53.9099 33.6199C74.3274 33.6199 91.8282 45.3619 95.449 61.62C95.9519 61.5196 96.1531 61.5196 96.3543 61.4192C96.7566 61.2185 97.2595 61.1182 97.6618 61.1182C101.886 61.4192 104.501 62.7239 106.312 64.8314C107.82 66.6379 108.625 69.2472 108.454 71.5554C108.454 73.4622 107.318 74.3655 106.513 74.3655L105.507 74.3655L105.507 72.7597C105.708 71.3547 105.407 69.1468 103.998 67.3404C103.395 66.5375 101.785 65.1325 98.3658 65.1325C97.5612 65.1325 96.4548 65.3332 95.9519 65.5339L95.8514 67.5411C95.8514 78.5805 89.2131 88.8171 77.6465 95.6415L81.4685 101.864C81.7703 102.366 81.9714 103.068 81.7703 103.67C81.5691 104.373 81.1668 104.975 80.5633 105.276L73.5228 109.29C73.0199 109.692 72.3159 109.692 72.0141 109.692C71.1089 109.692 70.4048 109.29 69.902 108.487L65.0742 100.258C62.2579 100.86 59.0394 101.161 54.2116 101.161C50.8925 101.161 47.2717 100.76 42.7456 99.9569L37.7166 108.186C37.3143 109.09 36.5097 109.692 35.4033 109.692M35.4033 107.685C35.6045 107.685 35.6045 107.685 35.6045 107.685C35.6045 107.685 35.7051 107.584 35.7051 107.383L41.4381 97.4479L43.0473 97.8493C47.3722 98.6522 50.8925 99.0536 54.111 99.0536C58.8383 99.0536 61.8556 98.7526 64.3701 98.1504L65.9794 97.749L71.6118 107.183C71.7124 107.383 71.813 107.383 71.9135 107.383C72.1147 107.383 72.2153 107.383 72.2153 107.383L79.457 103.269C79.5575 103.168 79.6581 103.068 79.6581 102.968C79.6581 102.867 79.6581 102.767 79.5575 102.666L74.6292 94.5375L76.4396 93.5339C87.3021 87.111 93.6386 77.4766 93.6386 67.24L93.6386 64.5303L93.1357 61.7203C89.716 46.4658 73.1205 35.4264 53.6081 35.4264C48.4786 35.4264 42.8462 36.43 36.912 38.4372L35.3027 38.7382L34.297 37.3332C34.1964 37.0321 33.5929 36.2293 32.5871 35.2257C29.0668 31.7131 25.6472 31.2113 23.9373 31.2113C23.2333 31.2113 22.6298 31.3117 22.1269 31.4121L30.7767 41.1468L28.5639 42.4515C22.2275 46.6665 17.9026 51.7848 15.5892 57.706L15.1869 59.111L4.62612 58.9103C4.42496 58.9103 4.32438 58.9103 4.2238 59.0106L4.2238 72.6594C4.32438 72.7597 4.52554 72.7597 4.62612 72.7597L14.7846 72.7597L15.1869 74.4658C17.3997 82.0931 23.0321 88.7167 30.8773 93.0321L32.5871 94.3368L27.6587 102.666C27.5582 102.867 27.5582 102.968 27.5582 103.369C27.5582 103.369 27.5582 103.369 27.6587 103.369L35.4033 107.685"/>
	<path fill="white" d="M41.1281 48.2724C41.1281 48.4731 41.1281 48.7742 41.1281 48.9749C43.5415 48.2724 48.0666 47.0681 52.7928 47.0681C57.519 47.0681 61.6419 48.2724 63.7536 48.9749C63.7536 48.7742 63.7536 48.4731 63.7536 48.2724C63.7536 46.1649 64.4575 43.7563 65.6642 42.0502C63.7536 41.3477 58.7257 39.9427 52.7928 39.9427C46.156 39.9427 40.8264 41.8495 39.4186 42.3513C40.7258 43.957 41.1281 46.1649 41.1281 48.2724"/>
	<path fill="white" d="M26.8489 61.62C28.9606 61.62 30.8712 59.7132 30.8712 57.6057C30.8712 55.4982 28.9606 53.5914 26.8489 53.5914C24.7372 53.5914 22.8266 55.4982 22.8266 57.6057C22.8266 59.7132 24.7372 61.62 26.8489 61.62"/>
	<path fill="#FFD071" d="M53.0944 27.2976C46.4576 27.2976 40.7258 21.7777 40.7258 15.1542C40.7258 8.53048 46.4576 2.81005 53.0944 2.81005C60.033 2.81005 65.4631 8.32976 65.4631 15.1542C65.4631 21.9785 60.033 27.2976 53.0944 27.2976"/>
	<path fill="#2D1B0A" d="M53.0945 28.3011C45.8543 28.3011 39.7203 22.2796 39.7203 15.1542C39.7203 7.92836 45.8543 1.8065 53.0945 1.8065C60.6363 1.8065 66.4686 7.62729 66.4686 15.1542C66.4686 22.4803 60.6363 28.3011 53.0945 28.3011M53.0945 3.81367C47.061 3.81367 41.7314 9.13266 41.7314 15.1542C41.7314 21.1757 46.9604 26.294 53.0945 26.294C59.4296 26.294 64.4575 21.3764 64.4575 15.1542C64.4575 8.83159 59.5302 3.81367 53.0945 3.81367"/>
	<path fill="#2D1B0A" d="M52.8933 16.3584C53.3961 16.3584 54.1001 16.5591 54.6028 16.8602C55.1056 17.362 55.3067 17.5627 55.3067 18.2652C55.3067 19.1684 54.4017 20.172 53.195 20.172C51.9883 20.172 51.0833 19.4695 51.0833 18.2652L48.2677 18.2652C48.2677 20.172 49.6755 21.8781 51.5861 22.5806L51.5861 24.4874L54.4017 24.4874L54.4017 22.5806C56.3123 21.8781 57.7201 20.172 58.0218 18.2652C58.0218 16.1577 56.1112 14.4516 54.4017 13.9498C52.4911 13.7491 52.29 13.7491 51.9883 13.448C51.7872 13.2473 51.2844 12.7455 51.2844 12.043C51.2844 11.1397 52.1894 10.1362 53.3961 10.1362C54.6028 10.1362 55.5079 10.8387 55.5079 12.043L58.3235 12.043C58.3235 10.1362 57.1168 8.43008 55.2062 8.02864C55.2062 8.02864 55.0051 7.82793 54.7034 7.82793L54.7034 5.7204L51.8878 5.7204L51.8878 7.82793C49.9772 8.53044 48.5694 9.93545 48.5694 12.1433C48.2677 14.4516 50.2789 15.8566 52.8933 16.3584"/>
</svg>
