<?xml version="1.0" encoding="utf-8" ?>
<svg xmlns="http://www.w3.org/2000/svg" xmlns:xlink="http://www.w3.org/1999/xlink" width="82" height="74">
	<path fill="white" d="M8.20777 74L8.20777 52L5.50519 51.8C2.30214 51.5 -5e-05 49.2 -5e-05 46.2L-5e-05 23C-5e-05 19.9 2.80262 17.4 6.20586 17.4L19.5186 17.5L51.3489 0L52.7503 0C54.1516 0 55.3526 0.5 56.4538 1.6C57.2545 2.3 57.6549 3.3 57.6549 4.6L57.6549 65.9C57.6549 67.2 57.3545 68.3 56.5539 69.2C55.7531 70.1 54.5519 70.6 53.2507 70.6C52.6502 70.6 51.7492 70.5 50.9485 70L17.3165 51.9L17.3165 74L8.20777 74"/>
	<path fill="white" d="M64.2612 24.3431C63.4604 24.3431 62.6597 24.6431 62.1592 25.2431L61.0582 26.3431C60.5577 26.8431 60.5577 27.7431 61.1582 28.1431L63.5605 30.2431C65.062 32.0431 68.3651 36.3431 64.4614 42.0431L61.1582 45.0431C60.6945 45.4431 60.6945 46.1431 61.0582 46.5431L63.6606 49.3431C64.061 49.7431 64.5615 49.7431 65.062 49.4431C68.8656 47.1431 72.8695 41.5431 72.469 35.4431C72.0686 28.8431 66.2631 24.8431 65.7626 24.6431C65.7626 24.7431 64.7617 24.3431 64.2612 24.3431"/>
	<path fill="white" d="M74.6712 18.9C70.5673 15.5 69.4662 15.5 68.7656 15.5C67.0639 15.5 65.7627 16.8 65.7627 18.5C65.7627 19.6 66.3633 20.7 67.4643 21.2L69.1659 22C69.266 22.1 69.4662 22.2 69.5663 22.3C71.5682 23.5 75.8723 26.4 75.7722 35.9C75.6721 45.6 68.6655 50.3 66.3633 52.2C66.063 52.4 65.9629 52.6 65.9629 52.8C65.9629 54.5 67.2641 55.8 68.9658 55.8C70.267 55.8 72.0687 54.8 73.9705 53L75.2718 51.7C79.7761 47 82.1783 41.1 81.9897 35C81.8781 29 79.2756 23.3 74.6712 18.9"/>
	<path fill="#2D1B0A" d="M68.7655 53.9C68.165 53.9 67.7646 53.5 67.7646 52.9C67.7646 52.4 68.165 51.9 68.6655 51.9C69.266 51.7 71.5682 49.8 72.0687 49.2C79.8761 40.9 79.776 29.5 71.7684 22C70.5673 21 68.9657 19.8 68.4653 19.7C67.9648 19.7 67.5644 19.2 67.5644 18.7C67.5644 18.1 67.9648 17.7 68.5654 17.7C68.8656 17.7 69.6664 17.7 73.0696 20.5C81.7779 28.8 81.9781 41.6 73.5701 50.5C73.0696 51.2 70.1669 53.9 68.7655 53.9"/>
	<path fill="#2D1B0A" d="M64.1611 47.1C63.5605 47.1 63.0601 46.7 63.0601 46.1C63.0601 45.6 63.5605 45.2 63.9609 45.1C64.3613 44.9 65.3623 44.1 65.5624 43.8C69.6664 39.5 69.5663 33.6 65.4624 29.7C64.8618 29.2 64.1611 28.7 63.8608 28.5C63.3604 28.4 63.0601 28 63.0601 27.5C63.0601 26.9 63.4604 26.5 64.061 26.5C64.3613 26.5 64.8618 26.5 66.7636 28.1C71.6683 32.8 71.7684 40 67.0639 45C66.6635 45.6 65.1621 47.1 64.1611 47.1"/>
	<path fill="#E63B56" d="M11.1106 47.7L14.1134 47.7L14.1134 71.1L11.1106 71.1L11.1106 47.7"/>
	<path fill="#2D1B0A" d="M15.1144 72.2L10.1096 72.2L10.1096 46.8L15.1144 46.8L15.1144 72.2M12.1115 70.2L13.1125 70.2L13.1125 48.8L12.1115 48.8L12.1115 70.2"/>
	<path fill="#E63B56" d="M21.6206 48.9L6.0057 48.9C4.10389 48.9 2.80265 47.9 2.80265 46.3L2.80265 23.2C2.80265 21.9 4.20399 20.6 6.0057 20.6L21.6206 20.7L21.6206 48.9"/>
	<path fill="#2D1B0A" d="M22.6215 49.9L6.00571 49.9C3.50332 49.9 1.8017 48.5 1.8017 46.3L1.8017 23.2C1.8017 21.3 3.70351 19.6 6.00571 19.6L22.6215 19.7L22.6215 49.9M6.00571 21.6C4.80456 21.6 3.80361 22.4 3.80361 23.2L3.80361 46.4C3.80361 47.8 5.20494 48 6.00571 48L20.6196 48L20.6196 21.7L6.00571 21.6"/>
	<path fill="#E63B56" d="M54.4647 66.1C54.5615 68 52.4594 67.7 52.2592 67.4L21.5299 50.9L21.5299 19.9L52.0591 3.2C52.1591 3.2 52.4594 3.2 52.6596 3.2C53.2601 3.2 53.7607 3.4 54.2612 4C54.4647 4.2 54.4647 4.6 54.4647 4.8L54.4647 66.1"/>
	<path fill="#2D1B0A" d="M53.0596 68.7C52.559 68.7 52.0584 68.6 51.758 68.4L20.5195 51.6L20.5195 19.4L51.8582 2.3C53.5603 2.3 54.2611 2.6 54.962 3.4C55.4752 3.9 55.4752 4.6 55.4752 4.9L55.4752 66.2C55.5627 67.3 55.0621 68.1 54.161 68.5C53.8606 68.6 53.4601 68.7 53.0596 68.7M52.7593 66.6C52.9595 66.6 53.2599 66.6 53.36 66.5C53.4601 66.5 53.4601 66.3 53.4601 66.1L53.4601 4.6C53.4601 4.6 53.4601 4.5 53.4601 4.5C53.0596 4.1 52.7593 4.1 52.559 4.1L22.4218 20.4L22.4218 50.2L52.7593 66.6"/>
</svg>
