<?xml version="1.0" encoding="utf-8" ?>
<svg xmlns="http://www.w3.org/2000/svg" xmlns:xlink="http://www.w3.org/1999/xlink" width="70" height="90">
	<path fill="white" d="M8.35517 89.9001L8.35517 83.9068L32.0961 83.9068L32.0961 69.4229C24.1485 68.2242 16.8122 62.131 12.0233 52.8413C5.09461 51.7425 0 46.3485 0 39.6559L0 14.5838L6.623 14.5838L6.623 0L63.6827 0L63.5808 14.384L70 14.384L70 39.4562C70 46.0488 64.8035 51.6426 57.9767 52.6415C53.2897 62.0311 46.0553 68.1243 38.2096 69.4229L38.2096 84.0067L63.9884 84.0067L63.9884 90L8.35517 90M6.11354 39.6559C6.11354 41.8535 7.23435 43.8513 9.06841 45.2497C8.96652 45 8.86463 44.5505 8.76274 44.2508C8.45706 43.4517 6.72489 37.8579 6.623 28.4684L6.623 20.5771L6.11354 39.6559M63.4789 28.4684C63.4789 32.8635 62.8675 37.5583 61.7467 42.2531C61.5429 43.2519 61.2373 44.1509 60.9316 45.1498C62.7656 43.7514 63.8865 41.7536 63.8865 39.4562L63.8865 20.3774L63.4789 28.4684"/>
	<path fill="#FFD071" d="M35.2548 66.3763C25.2693 66.3763 15.7933 57.0865 11.9214 43.1021C11.9214 43.1021 9.88355 37.6082 9.88355 28.1188L9.88355 2.64705L60.8297 2.64705L60.626 28.1188C60.626 32.5139 60.0145 36.909 58.9957 41.2043C55.3276 56.2874 45.8515 66.3763 35.2548 66.3763"/>
	<path fill="#2D1B0A" d="M35.2547 67.3252C24.6579 67.3252 14.8762 57.6359 10.9025 43.3518C10.8006 43.152 8.8646 37.6581 8.8646 28.1687L8.8646 1.6981L61.8486 1.6981L61.6448 28.1687C61.6448 32.4639 61.0335 36.9589 60.0145 41.5538C56.2445 56.9367 46.2591 67.3252 35.2547 67.3252M10.9025 3.69588L10.9025 28.1687C10.9025 37.3585 12.8384 42.7525 12.8384 42.8524C16.6084 56.4373 25.5749 65.4273 35.2547 65.4273C45.342 65.4273 54.4105 55.6382 57.9767 41.0544C59.0975 36.6593 59.607 32.2641 59.607 28.1687L59.8107 3.69588L10.9025 3.69588"/>
	<path fill="#E63B56" d="M29.3449 39.2564L35.2547 36.2597L41.1644 39.2564L39.9417 32.7635L44.7307 28.3684L38.3115 27.5693L35.2547 21.576L32.4017 27.5693L25.7787 28.3684L30.5676 32.7635"/>
	<path fill="#2D1B0A" d="M28.0203 41.0543L29.4468 33.0632L23.4352 27.5693L31.7904 26.5704L35.2547 19.1786L39.0247 26.5704L47.0742 27.5693L41.0626 33.0632L42.4891 41.0543L35.2547 37.3584L28.0203 41.0543M35.2547 35.1608L39.738 37.4583L38.8209 32.3639L42.4891 29.0676L37.7001 28.4683L35.3566 23.8734L33.2169 28.4683L28.1222 29.0676L31.6885 32.3639L30.7714 37.4583L35.2547 35.1608"/>
	<path fill="#2D1B0A" d="M56.3465 50.4439L56.3465 48.4461C61.8486 48.2463 66.1281 44.1508 66.1281 39.0565L66.1281 17.9799L59.9127 17.9799L59.9127 16.8812L60.9316 16.8812L68.166 15.9822L68.166 39.0565C68.166 45.2496 63.0713 50.2441 56.3465 50.4439"/>
	<path fill="#2D1B0A" d="M14.163 50.6438C7.43815 50.344 2.24164 45.4496 2.24164 39.2565L2.24164 16.1821L9.88356 16.1821L9.88356 18.1798L4.27949 18.1798L4.27949 39.2565C4.27949 44.2509 8.66085 48.4463 14.2649 48.646L14.163 50.6438"/>
	<path fill="#2D1B0A" d="M34.3377 67.2253L36.3755 67.2253L36.3755 87.2031L34.3377 87.2031L34.3377 67.2253"/>
	<path fill="#2D1B0A" d="M10.5969 85.6049L62.1544 85.6049L62.1544 87.6027L10.5969 87.6027L10.5969 85.6049"/>
</svg>
