<?xml version="1.0" encoding="utf-8" ?>
<svg xmlns="http://www.w3.org/2000/svg" xmlns:xlink="http://www.w3.org/1999/xlink" width="84" height="84">
	<path fill="white" d="M70.4516 61.2837L72.5591 59.4663C73.0609 58.9615 74.2652 57.75 74.2652 55.8317C74.2652 54.8221 73.8638 54.0144 73.6631 53.5096C73.6631 53.4087 73.5627 53.4087 73.5627 53.3077C72.9606 51.6923 71.2545 50.6827 69.3477 50.6827C69.147 50.6827 68.9462 50.6827 68.7455 50.6827C68.3441 49.6731 67.7419 48.6635 67.2401 47.8558L59.1111 38.3654L74.4659 23.4231L79.4839 3.23077L59.4122 7.67308L44.7599 21.8077L42 18.6779L31.5125 6.25962L27.0968 4.84615L11.7419 0L14.853 20.4952L29.0036 37.0529L20.2724 45.5337C19.3692 46.3413 18.6667 47.4519 18.2652 48.5625C17.9642 48.4615 17.5627 48.4615 17.1613 48.4615C16.1577 48.4615 15.3548 48.8654 14.853 49.0673C14.7527 49.0673 14.7527 49.1683 14.6523 49.1683L13.6487 49.774C12.7455 50.6827 12.2437 51.9952 12.2437 53.3077C12.2437 54.6202 12.7455 55.9327 13.6487 56.8413L15.0538 58.3558L0 72.7933L6.82437 79.9615L21.7778 65.625L23.3835 67.3413C23.7849 67.7452 24.9892 68.9567 26.8961 68.9567C27.4982 68.9567 29.2043 68.9567 30.4086 67.3413C30.9104 66.8365 31.8136 65.726 31.8136 64.0096C31.8136 63.9087 31.8136 63.7067 31.8136 63.6058C33.0179 63.2019 34.1219 62.3942 35.0251 61.6875L43.2545 53.7115L50.681 62.3942C51.4839 63.3029 52.3871 64.1106 53.491 64.6154C53.491 64.7163 53.491 64.7163 53.491 64.8173C53.3907 66.0288 53.7921 67.2404 54.4946 68.149C55.2975 69.3606 56.7025 70.1683 58.4086 70.1683C59.7133 70.1683 60.5161 69.6635 61.0179 69.3606L62.8244 67.9471L76.3728 84L84 77.4375L70.4516 61.2837"/>
	<path fill="#89C5E5" d="M62.4384 62.6455L65.4958 60.0289L79.8698 77.0221L76.8123 79.6387L62.4384 62.6455"/>
	<path fill="#2D1B0A" d="M76.6738 80.9711L61.0179 62.3942L65.6344 58.4567L81.2903 77.0336L76.6738 80.9711M63.8279 62.6971L76.8745 78.1442L78.3799 76.8317L65.3333 61.3846L63.8279 62.6971"/>
	<path fill="#89C5E5" d="M58.5101 67.1395C58.0083 67.1395 57.3058 66.9376 57.1051 66.4328C56.4026 65.726 56.4026 64.3126 57.3058 63.6058L68.2449 54.2164C68.4457 54.0145 68.9474 53.7116 69.4492 53.7116C69.951 53.7116 70.6535 53.9135 70.8543 54.4183C71.055 54.9231 71.356 55.327 71.356 55.8318C71.356 56.3366 71.1553 56.7404 70.6535 57.2452L59.7144 66.6347C59.2126 66.9376 59.0119 67.1395 58.5101 67.1395"/>
	<path fill="#2D1B0A" d="M58.5089 68.149C57.7061 68.149 56.7025 67.8462 56.3011 67.0385C55.7993 66.5337 55.5985 65.726 55.5985 64.9183C55.5985 64.1106 56 63.3029 56.7025 62.7981L67.6415 53.4087C67.9426 53.1058 68.7456 52.702 69.4481 52.702C70.2508 52.702 71.3549 53.0048 71.7562 54.0145C71.8567 54.1154 71.8567 54.2164 71.9569 54.4183C72.1576 54.8221 72.3584 55.226 72.3584 55.8318C72.3584 56.8414 71.8567 57.4471 71.3549 57.952L60.0143 67.6442C59.6129 67.8462 59.2114 68.149 58.5089 68.149M58.0071 66.0288C58.0071 66.0288 58.2079 66.1299 58.5089 66.1299C58.6093 66.1299 58.6093 66.1299 58.9104 65.9279L69.9499 56.4375C70.2508 56.0337 70.2508 55.9327 70.2508 55.8318C70.2508 55.7308 70.1506 55.5289 70.0501 55.327C69.9499 55.125 69.8494 55.0241 69.8494 54.8221C69.8494 54.8221 69.6488 54.7212 69.3476 54.7212C69.1469 54.7212 68.9463 54.8221 68.8458 54.9231L57.8064 64.4135C57.5054 64.6154 57.5054 64.9183 57.5054 65.1202C57.5054 65.4231 57.6057 65.6251 57.7061 65.827"/>
	<path fill="#2D1B0A" d="M29.5054 61.9904C28.4015 61.9904 27.4983 61.5866 26.6954 60.7789L20.7742 54.5193C19.7707 53.3077 19.7707 51.9952 19.7707 51.1875C20.0717 49.3702 20.7742 48.0577 21.7778 47.0481L60.5162 9.49042L76.8745 5.8558L72.7598 22.3125L33.9212 59.9712C32.7169 60.9808 31.3119 61.9904 29.5054 61.9904M21.7778 51.2885C21.7778 51.8943 21.7778 52.601 22.2796 53.2068L28.1004 59.3654C28.6022 59.8702 29.104 59.9712 29.5054 59.9712C30.6094 59.9712 31.613 59.2645 32.7169 58.4568L70.9535 21.3029L74.0646 8.4808L61.5198 11.3077L23.1828 48.4616C22.4803 49.2693 21.9785 50.077 21.7778 51.2885"/>
	<path fill="#2D1B0A" d="M56.7025 62.6973C56.5018 62.6973 56.3011 62.6973 56.1004 62.6973C54.2939 62.3943 52.9893 61.5867 52.086 60.4761L16.8602 19.5866L14.0502 3.02895L30.2079 7.97607L65.5341 48.9664C66.4373 50.2789 67.3405 51.7934 67.2478 53.5098C67.1398 54.6203 66.7384 55.5289 65.9355 56.2356L59.4122 61.8895C58.4086 62.5962 57.5054 62.6973 56.7025 62.6973M56.3011 60.6779C56.9032 60.6779 57.6058 60.6779 58.2079 60.2742L64.6308 54.7212C65.1326 54.2164 65.233 53.7117 65.3334 53.4087C65.4337 52.2981 64.7312 51.2886 64.0287 50.1779L29.2043 9.79337L16.6595 5.95683L18.767 18.7789L53.6918 59.2645C54.2939 59.9712 55.1972 60.4761 56.3011 60.6779"/>
	<path fill="#89C5E5" d="M4.4716 73.1226L20.5271 57.731L23.1585 60.5083L7.10295 75.8997L4.4716 73.1226"/>
	<path fill="#2D1B0A" d="M7.02514 77.2356L3.0108 72.9952L20.4732 56.2356L24.4875 60.476L7.02514 77.2356M5.82084 72.9952L7.02514 74.3077L21.6775 60.2741L20.4732 58.9616L5.82084 72.9952"/>
	<path fill="#89C5E5" d="M27.0968 65.9278C26.595 65.9278 26.1935 65.7259 25.6917 65.2211L15.957 54.923C15.2545 54.2163 15.2545 52.8028 15.957 52.0961C16.4587 51.8942 16.8602 51.5913 17.362 51.5913C17.8638 51.5913 18.2652 51.7932 18.767 52.298L28.5018 62.5961C29.0036 63.1009 29.0036 63.5048 29.0036 64.0096C29.0036 64.5144 28.8029 64.9182 28.3011 65.423C28 65.9278 27.5986 65.9278 27.0968 65.9278"/>
	<path fill="#2D1B0A" d="M27.0968 66.9375C26.0932 66.9375 25.491 66.4327 24.9892 65.9279L15.2545 55.6298C14.1505 54.5192 14.1505 52.5 15.2545 51.3894C15.6559 51.0865 15.7563 51.0865 15.957 50.9855C16.3584 50.7836 16.7598 50.5817 17.362 50.5817C18.3656 50.5817 18.9677 51.0865 19.4695 51.5913L29.2043 61.8894C30.0071 62.6971 30.0071 63.4038 30.0071 64.0096C30.0071 64.9182 29.5054 65.625 29.1039 66.0288C28.4014 66.9375 27.5985 66.9375 27.0968 66.9375M16.5591 52.9038C16.3584 53.3077 16.3584 53.9134 16.6595 54.2163L26.3942 64.5144C26.7957 64.9182 26.896 64.9182 27.0968 64.9182C27.1971 64.9182 27.3978 64.9182 27.4982 64.9182C28 64.3125 28 64.1105 28 64.0096C28 63.6057 28 63.5048 27.7993 63.3029L18.0645 53.0048C17.6631 52.6009 17.5627 52.6009 17.362 52.6009C17.2616 52.6009 17.0609 52.7019 16.8602 52.8028C16.6595 52.8028 16.6595 52.9038 16.5591 52.9038"/>
</svg>
