<?xml version="1.0" encoding="utf-8" ?>
<svg xmlns="http://www.w3.org/2000/svg" xmlns:xlink="http://www.w3.org/1999/xlink" width="78" height="78">
	<path fill="white" d="M39 78C17.4897 78 0 60.5103 0 39C0 17.4897 17.4897 0 39 0C49.5541 0 59.4046 4.12113 66.7423 11.5593C74.0799 18.8969 78 28.6469 78 39C78 60.5103 60.5103 78 39 78"/>
	<path fill="#FFD071" d="M39.201 3.01555C59.1031 3.01555 75.1857 19.1986 75.1857 39C75.1857 58.8016 59.0026 74.9846 39.201 74.9846C19.3996 74.9846 3.21655 58.8016 3.21655 39C3.21655 19.1986 19.3996 3.01555 39.201 3.01555"/>
	<path fill="#2D1B0A" d="M39.201 76.0902C18.7964 76.0902 2.2113 59.5051 2.2113 39.1005C2.2113 18.6959 18.7964 2.1108 39.201 2.1108C59.6056 2.1108 76.1907 18.6959 76.1907 39.1005C76.1907 59.5051 59.7061 76.0902 39.201 76.0902M39.201 4.02059C19.902 4.02059 4.22161 19.701 4.22161 39C4.22161 58.2989 19.902 73.9794 39.201 73.9794C58.5 73.9794 74.1804 58.2989 74.1804 39C74.1804 19.701 58.5 4.02059 39.201 4.02059"/>
	<path fill="#2D1B0A" d="M26.6367 56.7914L13.6701 21.7115L18.3944 21.7115L27.1392 47.2423C27.8428 49.3532 28.4459 51.1625 28.9486 52.9717C29.451 51.062 30.2552 49.0517 30.7578 47.2423L39.7037 21.7115L44.2268 21.7115L30.9589 56.7914L26.6367 56.7914"/>
	<path fill="#2D1B0A" d="M34.6778 45.835L38.6984 45.6339C38.8994 47.4432 39.402 48.6494 40.1056 49.9561C40.8092 50.9612 41.8144 52.0668 43.4226 52.5695C44.8299 53.3736 46.5386 53.5746 48.5489 53.5746C50.2577 53.5746 51.6649 53.3736 52.9716 52.7705C54.1778 52.2679 55.0824 51.4638 55.786 50.6597C56.4897 49.6544 56.6907 48.8503 56.6907 47.6441C56.6907 46.6391 56.4897 45.5333 55.786 44.8298C55.2835 44.0257 54.3788 43.3221 52.9716 42.7189C52.067 42.5179 50.1572 41.7138 47.1417 40.9097C44.3273 40.1056 42.0154 39.402 40.8092 38.7989C39.402 37.9948 38.1958 36.688 37.4922 35.3812C36.7886 34.0746 36.286 32.5668 36.286 31.0591C36.286 29.2499 36.7886 27.6416 37.6933 26.1339C38.5979 24.6261 40.1056 23.5205 41.7139 22.7164C43.4226 21.9122 45.5335 21.4097 47.7448 21.4097C50.1572 21.4097 52.3685 21.9122 54.0773 22.7164C55.9871 23.5205 57.3943 24.8272 58.5 26.3349C59.4046 27.8426 59.9072 29.7524 60.2087 31.7628L56.1881 31.9638C55.9871 29.6519 55.2835 28.0437 54.0773 27.0385C52.8711 26.0334 50.9613 25.2292 48.4484 25.2292C45.835 25.2292 43.8247 25.7318 42.6185 26.737C41.4123 27.7421 40.9098 29.0488 40.9098 30.3555C40.9098 31.6623 41.4123 32.6674 42.1159 33.3709C42.8195 34.1752 44.9304 34.8787 48.6494 35.9844C52.268 36.7886 54.4793 37.4921 55.8866 38.2962C57.7964 39.3015 59.2036 40.4071 59.9072 41.9148C60.8118 43.4226 61.3144 44.9303 61.3144 46.84C61.3144 48.7499 60.8118 50.4586 59.9072 51.9664C59.0025 53.4741 57.4948 54.7808 55.4845 55.8865C53.5747 56.8916 51.6649 57.1932 49.152 57.1932C46.3376 57.1932 43.8247 56.6906 41.6134 55.8865C39.7036 54.8812 37.9948 53.5746 36.9897 51.7654C35.3814 50.2576 34.6778 48.1468 34.6778 45.835"/>
</svg>
