<?xml version="1.0" encoding="utf-8" ?>
<svg xmlns="http://www.w3.org/2000/svg" xmlns:xlink="http://www.w3.org/1999/xlink" width="52" height="84">
	<path fill="white" d="M26 84C11.7025 84 0 72.3051 0 57.9661C0 49.1186 4.68102 40.678 12.1096 36L13.4325 35.1864L10.7867 27.1525L10.7867 0L41.1115 0L41.1115 26.8475L38.364 34.8814L39.6869 35.6949C47.2172 40.4746 52 48.9153 52 57.7627C52 64.7797 49.2524 71.2881 44.3679 76.1695C39.5851 81.2542 32.9706 84 26 84"/>
	<path fill="#E63B56" d="M34.7515 35.7966L38.1096 26.0339L38.1096 2.7458L13.8904 2.7458L13.8904 26.2373L17.045 35.8983C19.7925 34.8814 22.8454 34.1695 26.1018 34.1695C29.1546 34.1695 32.0039 34.678 34.7515 35.7966"/>
	<path fill="#2D1B0A" d="M16.4344 37.2204L12.8728 26.2374L12.8728 1.7289L39.1272 1.7289L39.1272 26.2374L35.362 37.2204L34.3444 36.8136C31.6986 35.7967 28.9511 35.2882 26.1018 35.2882C23.1507 35.2882 20.1996 35.7967 17.3503 36.9153M14.908 26.034L17.6556 34.5764C20.4031 33.6611 23.2524 33.1526 26.1018 33.1526C28.9511 33.1526 31.5969 33.5594 34.1409 34.4747L37.092 25.8306L37.092 3.7628L14.908 3.7628L14.908 26.034"/>
	<path fill="#FFD071" d="M26 80.4406C13.2799 80.4406 3.002 70.1693 3.002 57.4576C3.002 44.7457 13.2799 34.4744 26 34.4744C38.7202 34.4744 48.9981 44.7457 48.9981 57.4576C48.9981 70.271 38.7202 80.4406 26 80.4406"/>
	<path fill="#2D1B0A" d="M26.0001 81.4576C12.7711 81.4576 1.9844 70.6779 1.9844 57.4576C1.9844 44.2373 12.7711 33.4576 26.0001 33.4576C39.229 33.4576 50.0157 44.2373 50.0157 57.4576C50.0157 70.6779 39.229 81.4576 26.0001 81.4576M26.0001 35.4915C13.8905 35.4915 4.01963 45.3559 4.01963 57.4576C4.01963 69.5593 13.8905 79.4237 26.0001 79.4237C38.1096 79.4237 47.9805 69.5593 47.9805 57.4576C47.9805 45.3559 38.1096 35.4915 26.0001 35.4915"/>
	<path fill="#FFE7DC" d="M40.2466 57.4576C40.2466 65.3206 33.8681 71.6949 26 71.6949C18.1318 71.6949 11.7534 65.3206 11.7534 57.4576C11.7534 49.5946 18.1318 43.2203 26 43.2203C33.8681 43.2203 40.2466 49.5946 40.2466 57.4576"/>
	<path fill="#2D1B0A" d="M26 72.712C17.5538 72.712 10.7358 65.8984 10.7358 57.4577C10.7358 49.0171 17.5538 42.2035 26 42.2035C34.4462 42.2035 41.2642 49.0171 41.2642 57.4577C41.2642 65.8984 34.4462 72.712 26 72.712M26 44.2374C18.6732 44.2374 12.771 50.1357 12.771 57.4577C12.771 64.7798 18.6732 70.6781 26 70.6781C33.3268 70.6781 39.229 64.7798 39.229 57.4577C39.229 50.1357 33.3268 44.2374 26 44.2374"/>
</svg>
