<?xml version="1.0" encoding="utf-8" ?>
<svg xmlns="http://www.w3.org/2000/svg" xmlns:xlink="http://www.w3.org/1999/xlink" width="78" height="72">
	<path fill="white" d="M10.2445 72C6.49155 72 3.44863 69 3.44863 65.3L3.44863 37.4C1.11573 35.9 0 33.8 0 31.5L0 19.8C0 16.1 3.04291 13.1 6.79584 13.1L18.2575 13.1L17.7503 11.8C17.5475 11.4 17.446 11 17.3446 10.7C16.736 8.2 17.1417 5.7 18.6632 3.7C20.0832 1.7 22.3147 0.4 24.9519 0.1C25.3576 0.1 25.6619 0 26.0676 0C28.2991 0 30.4291 0.7 32.2549 2C34.7906 3.7 36.7178 6.3 38.5436 10.4L39.4564 12.4L40.3693 10.4C42.1951 6.4 44.1222 3.8 46.658 2C48.4837 0.7 50.7152 0 52.8453 0C53.251 0 53.5553 0 53.961 0.1C56.5982 0.4 58.8296 1.6 60.2497 3.7C61.6697 5.7 62.1769 8.2 61.5683 10.7C61.4668 11 61.3654 11.4 61.1625 11.8L60.6554 13.1L71.2042 13.1C74.9571 13.1 78 16.1 78 19.8L78 31.5C78 33.7 76.8843 35.8 74.9571 37.1L74.5514 65.3C74.5514 69 71.5085 72 67.7555 72L10.2445 72"/>
	<path fill="#FFE7DC" d="M54.5695 16.2921C55.0767 16.0921 55.4824 15.7921 55.9895 15.4921C59.641 12.9921 60.7568 8.29209 58.5253 5.09209C56.2938 1.89209 51.4252 1.39209 47.7737 3.89209C44.0208 6.49209 42.2964 10.9921 40.1664 16.2921L54.5695 16.2921"/>
	<path fill="#2D1B0A" d="M54.7723 17.3L38.6449 17.3L39.1521 15.9C41.1807 10.8 43.0064 5.9 47.0636 3.1C51.2223 0.2 56.5981 0.900002 59.2353 4.5C60.4524 6.3 60.8582 8.5 60.351 10.7C59.8439 12.9 58.4238 14.9 56.4967 16.2C55.9895 16.5 55.4824 16.8 54.9752 17.1M41.6878 15.3L54.3666 15.3C54.7723 15.1 55.0766 14.9 55.4824 14.6C57.0038 13.5 58.1195 12 58.5253 10.2C58.931 8.5 58.6267 6.9 57.7138 5.6C55.7866 2.9 51.628 2.5 48.3822 4.7C45.1365 7 43.3107 10.9 41.6878 15.3"/>
	<path fill="#FFE7DC" d="M24.1406 16.3C23.6334 16.1 23.2277 15.8 22.7205 15.5C19.037 13 17.9533 8.30001 20.1848 5.10001C22.4162 1.90001 27.2849 1.40001 30.9364 3.90001C34.6893 6.50001 36.4136 11 38.5437 16.3L24.1406 16.3"/>
	<path fill="#2D1B0A" d="M23.9376 17.3C23.2276 16.9 22.7205 16.6 22.2133 16.3C20.2861 14.9 18.8661 13 18.3589 10.8C17.8518 8.6 18.2575 6.3 19.4747 4.6C22.1119 1 27.4877 0.3 31.6463 3.2C35.7035 6 37.6307 10.9 39.5579 16L40.0651 17.4L23.9376 17.3M25.9662 3.3C24.039 3.3 22.2133 4.1 21.0976 5.6C20.1847 6.9 19.8804 8.5 20.2861 10.2C20.6918 11.9 21.8076 13.5 23.329 14.6C23.6333 14.8 24.039 15.1 24.4448 15.3L37.1236 15.3C35.3993 11 33.6749 7 30.4292 4.8C29.0091 3.8 27.4877 3.3 25.9662 3.3"/>
	<path fill="#FFD071" d="M67.7556 69.3L10.2445 69.3C8.21592 69.3 6.4916 67.6 6.4916 65.6L6.4916 32L71.5085 32L71.5085 65.6C71.4071 67.6 69.7842 69.3 67.7556 69.3"/>
	<path fill="#2D1B0A" d="M67.7556 70.3L10.2445 70.3C7.60734 70.3 5.4773 68.2 5.4773 65.6L5.4773 31L72.5228 31L72.5228 65.6C72.4214 68.2 70.2913 70.3 67.7556 70.3M7.50591 33L7.50591 65.6C7.50591 67.1 8.72307 68.3 10.2445 68.3L67.7556 68.3C69.277 68.3 70.4942 67.1 70.4942 65.6L70.4942 33L7.50591 33"/>
	<path fill="#FFD071" d="M71.2041 35.5L6.79583 35.5C4.76722 35.5 3.0429 33.8 3.0429 31.8L3.0429 20.1C3.0429 18.1 4.76722 16.4 6.79583 16.4L71.2041 16.4C73.2328 16.4 74.9571 18.1 74.9571 20.1L74.9571 31.8C74.9571 33.9 73.2328 35.5 71.2041 35.5"/>
	<path fill="#2D1B0A" d="M71.2042 36.5L6.79583 36.5C4.15864 36.5 2.0286 34.4 2.0286 31.8L2.0286 20.1C2.0286 17.5 4.15864 15.4 6.79583 15.4L71.2042 15.4C73.8413 15.4 75.9714 17.5 75.9714 20.1L75.9714 31.8C75.9714 34.4 73.8413 36.5 71.2042 36.5M6.6944 17.4C5.17294 17.4 3.95578 18.6 3.95578 20.1L3.95578 31.8C3.95578 33.3 5.17294 34.5 6.6944 34.5L71.1027 34.5C72.6242 34.5 73.8413 33.3 73.8413 31.8L73.8413 20.1C73.8413 18.6 72.6242 17.4 71.1027 17.4L6.6944 17.4"/>
	<path fill="#FFE7DC" d="M31.697 33.7L46.303 33.7L46.303 67.9L31.697 67.9L31.697 33.7"/>
	<path fill="#2D1B0A" d="M47.3173 68.9L30.6827 68.9L30.6827 32.7L47.3173 32.7L47.3173 68.9M32.7113 66.9L45.2887 66.9L45.2887 34.7L32.7113 34.7L32.7113 66.9"/>
	<path fill="#FFE7DC" d="M30.3277 17.3L47.6723 17.3L47.6723 34.2L30.3277 34.2L30.3277 17.3"/>
	<path fill="#2D1B0A" d="M48.5852 35.2L29.3134 35.2L29.3134 16.3L48.6866 16.3L48.6866 35.2M31.342 33.2L46.658 33.2L46.658 18.3L31.342 18.3L31.342 33.2"/>
</svg>
