<?xml version="1.0" encoding="utf-8" ?>
<svg xmlns="http://www.w3.org/2000/svg" xmlns:xlink="http://www.w3.org/1999/xlink" width="82" height="88">
	<path fill="white" d="M45.944 87.6009C41.9488 87.6009 38.2533 83.9093 38.2533 79.9184L38.2533 52.381L38.0536 50.0862C36.9549 47.2925 34.2582 45.3968 31.6614 45.3968C29.0646 45.3968 26.1681 47.4921 25.2692 50.1859C24.8697 51.6825 24.3703 52.1814 23.3715 52.1814L21.0743 52.1814C20.0755 52.1814 19.2765 51.6825 18.9769 50.8844C18.078 48.39 16.2801 46.6939 14.1827 46.195C13.6833 46.0952 13.084 45.9955 12.5847 45.9955C9.78806 45.9955 7.29111 47.7914 6.3922 50.3855C5.89281 51.7823 4.99391 52.381 4.09501 52.381L2.2972 52.381C1.09866 52.381 0 51.483 0 50.2857C0 49.1882 0 48.0907 0 47.7914C0 28.9342 13.3837 13.1701 32.6602 9.47846L37.754 8.68027L39.1523 1.89569C39.2521 0.798186 40.2509 0 41.2497 0C42.3484 0 43.2473 0.798186 43.447 1.89569L44.8453 8.48073L49.24 9.27891C68.2168 12.6712 82 28.9342 82 47.7914C82 48.39 81.9001 50.2857 81.9001 50.2857C81.9001 50.9841 81.6005 51.9819 80.0024 51.9819L78.6041 51.9819C77.0061 51.9819 76.7065 50.8844 76.6066 50.585C75.408 47.5918 72.3118 45.4966 69.715 45.4966C66.419 45.4966 63.7223 48.0907 62.7235 50.6848C62.6236 51.2834 62.324 52.2812 61.3252 52.2812L59.2278 52.381C58.1291 52.381 57.43 51.7823 57.2302 50.7846C56.1315 47.7914 53.2351 45.8957 50.5384 45.8957C47.8417 45.8957 45.4446 47.5918 44.3459 50.3855L44.1462 52.78L44.3459 78.322C43.7467 82.4127 46.9428 81.415 47.542 80.7166C48.1413 80.0181 48.1413 77.6236 48.2412 77.0249C48.341 76.4263 48.5408 76.2268 48.8404 76.0272C49.3398 75.7279 50.1389 75.6281 50.6382 75.6281C51.2375 75.6281 51.8368 75.7279 52.1364 75.9274C52.9354 76.4263 53.5347 77.424 53.5347 78.322L53.5347 80.4172C53.5347 84.5079 50.2387 88 46.3435 88"/>
	<path fill="#2D1B0A" d="M46.0439 85.9048C42.4483 85.9048 39.6517 83.1111 39.6517 79.6191L39.6517 49.3878C39.6517 48.4898 40.3508 47.7914 41.2497 47.7914C42.1486 47.7914 42.8478 48.4898 42.8478 49.3878L42.8478 79.6191C42.8478 81.3152 44.2461 82.712 45.944 82.712C47.7418 82.712 49.1401 81.3152 49.1401 79.6191L49.1401 78.0227C49.1401 77.4241 49.4398 76.9252 49.9392 76.6259C50.4385 76.3265 51.0378 76.3265 51.5372 76.6259C52.0366 76.9252 52.3387 77.4241 52.3387 78.0227L52.3387 79.6191C52.4361 83.0114 49.5396 85.9048 46.0439 85.9048"/>
	<path fill="#E63B56" d="M40.5507 11.1746C19.6762 11.4739 2.9965 27.6372 2.9965 47.6916C2.9965 48.1904 2.9965 48.7891 2.9965 49.288C4.79431 45.5963 8.29004 42.9025 12.4849 42.9025C16.5799 42.9025 20.1755 45.4966 21.474 49.288C22.8723 43.2018 26.1682 20.9524 40.5507 11.1746M41.949 11.1746C56.5312 20.9524 59.6274 43.2018 60.3266 49.288C62.3241 45.5963 65.8199 42.9025 70.0148 42.9025C74.1098 42.9025 77.7054 45.4966 79.0038 49.288C79.5032 48.7891 79.5032 48.1904 79.5032 47.6916C79.5032 27.6372 62.9234 11.4739 42.0489 11.0748"/>
	<path fill="#2D1B0A" d="M80.4021 50.2857L78.2048 50.2857C76.8065 46.195 73.6104 43.9003 69.9149 43.9003C66.3193 43.9003 63.0233 46.195 61.8248 49.5873L59.3278 50.2857C58.6287 43.0023 55.4326 21.4513 41.3497 11.9728C27.0671 21.6508 23.871 43.0023 23.2718 49.3878L20.8747 50.2857C19.4764 46.195 16.2803 43.9003 12.5848 43.9003C8.9892 43.9003 5.69322 46.195 4.49468 49.5873L2.0976 50.2857C2.0976 48.7891 2.0976 48.1905 2.0976 47.6916C2.0976 27.3379 19.3765 10.4762 40.6506 10.1769L42.0489 10.1769C63.7224 10.4762 80.6019 27.0386 80.6019 47.7914C80.6019 48.2903 80.6019 48.8889 80.6019 49.3878M45.0452 12.2721C56.3315 21.8504 59.9271 39.0114 60.9259 46.8935C62.8235 43.8005 66.2194 41.9048 69.9149 41.9048C73.3108 41.9048 76.5069 43.6009 78.4045 46.2948C77.7054 28.2359 63.5227 13.9683 45.0452 12.2721M12.5848 41.9048C16.2803 41.9048 19.6762 43.8005 21.5738 46.8935C22.6725 39.0114 26.1682 21.9501 37.4545 12.3719C19.2766 14.1678 4.89419 28.6349 4.09516 46.2948C5.99285 43.6009 9.18895 41.9048 12.5848 41.9048"/>
	<path fill="#FFE7DC" d="M41.8487 11.0748C41.649 11.0748 41.4492 11.0748 41.2495 11.0748L41.2495 49.288C43.1471 45.5963 46.643 42.9025 50.8379 42.9025C54.9328 42.9025 58.5285 45.4966 59.8269 49.288C59.6271 43.2018 56.4309 20.9524 41.8487 11.0748M40.6502 11.0748C26.068 20.8526 22.8719 43.102 22.2726 49.288C23.9706 45.5963 27.4663 42.9025 31.6612 42.9025C35.7562 42.9025 39.3519 45.4966 40.6502 49.288L41.2495 11.0748C41.0498 11.0748 40.8499 11.0748 40.6502 11.0748"/>
	<path fill="#2D1B0A" d="M61.3252 50.2857L59.1278 50.2857C57.7295 46.195 54.5334 43.9002 50.8379 43.9002C47.2423 43.9002 43.9464 46.195 42.7478 49.5873L40.0511 50.2857C38.6528 46.195 35.4567 43.9002 31.7612 43.9002C28.1656 43.9002 24.8696 46.195 23.6711 49.5873L21.274 50.2857L21.274 49.1882C22.073 42.6032 25.369 20.254 40.151 10.2766L42.3483 10.0771C57.33 20.254 60.7259 42.6032 61.3252 49.1882L61.3252 50.2857M42.2484 12.5714L42.2484 46.2948C44.246 43.6009 47.3422 41.9048 50.8379 41.9048C53.9342 41.9048 56.8306 43.3016 58.7283 45.4966C57.4299 36.9161 53.5347 20.8526 42.2484 12.5714M31.7612 41.9048C35.1571 41.9048 38.3532 43.6009 40.3507 46.2948L40.3507 12.5714C29.1644 20.8526 25.1693 36.9161 23.8708 45.4966C25.7685 43.3016 28.665 41.9048 31.7612 41.9048"/>
	<path fill="#2D1B0A" d="M43.447 10.1769L39.2522 10.1769L40.2509 1.89569C40.3508 1.29705 40.7503 0.897955 41.3496 0.897955C41.9489 0.897955 42.4483 1.29705 42.5481 1.89569L43.447 10.1769"/>
</svg>
