<?xml version="1.0" encoding="utf-8" ?>
<svg xmlns="http://www.w3.org/2000/svg" xmlns:xlink="http://www.w3.org/1999/xlink" width="94" height="86">
	<path fill="white" d="M16.9101 86L16.9101 77.0438L42.673 77.0438L42.673 69.0036L16.6116 69.0036C11.6381 69.0036 7.75873 64.9325 7.75873 59.8438L7.75873 14.2485L0 14.2485L0 5.29231L42.673 5.29231L42.673 0L51.4265 0L51.4265 5.29231L94 5.29231L94 14.2485L86.6392 14.2485L86.6392 59.8438C86.6392 64.9325 82.6603 69.0036 77.7862 69.0036L51.4265 69.0036L51.4265 77.0438L78.0847 77.0438L78.0847 86L16.9101 86"/>
	<path fill="#2D1B0A" d="M90.9163 8.14206L48.3428 8.14206L48.3428 2.84975L45.5575 2.84975L45.5575 8.14206L2.88455 8.14206L2.88455 10.9918L10.6433 10.9918L10.6433 59.6403C10.6433 63.1007 13.2296 65.7467 16.5121 65.7467L45.5575 65.7467L45.5575 79.8935L19.7947 79.8935L19.7947 82.7432L75.001 82.7432L75.001 79.8935L48.3428 79.8935L48.3428 65.7467L77.6867 65.7467C80.9693 65.7467 83.5555 62.9989 83.5555 59.6403L83.5555 10.9918L90.9163 10.9918L90.9163 8.14206"/>
	<path fill="#FFFBFA" d="M81.2677 59.6402C81.2677 61.574 79.5767 63.4059 77.6868 63.4059L16.5121 63.4059C14.6222 63.4059 12.9312 61.6757 12.9312 59.6402L12.9312 11.0935L81.2677 11.0935L81.2677 59.6402"/>
	<path fill="#E63B56" d="M23.6739 48.4451L36.2073 35.6214L50.8295 50.5823L74.2052 26.8687C74.9015 25.9528 74.9015 24.7315 74.0062 24.019C73.31 23.3066 72.1162 23.3066 71.42 24.019L51.1279 44.7811L36.5057 29.8202L20.8887 45.7989C20.1924 46.7149 20.1924 47.9362 21.0877 48.6486C22.0824 49.1575 22.9776 49.1575 23.6739 48.4451"/>
	<path fill="#2D1B0A" d="M50.8295 52.1089L36.2073 37.148L24.3702 49.2592C23.7734 49.8699 22.5797 50.6841 20.5903 49.6663C19.6951 49.0557 19.2972 48.3433 19.2972 47.4273C19.2972 46.7149 19.4961 45.9007 19.9935 45.29L36.4062 28.4971L51.0284 43.458L70.6242 23.4083C71.7184 22.2888 73.5088 22.2888 74.603 23.4083C75.1998 23.9172 75.5977 24.6297 75.5977 25.4439C75.5977 26.1563 75.3988 26.9705 74.9014 27.5811L50.8295 52.1089M36.2073 34.1965L50.8295 49.1575L73.4094 26.2581C73.6083 26.0545 73.7078 25.7492 73.7078 25.4439C73.7078 25.2403 73.6083 25.0368 73.4094 24.8332C73.0115 24.4261 72.4147 24.4261 72.1162 24.7314L51.1279 46.206L36.5057 31.245L21.6845 46.4095C21.4856 46.6131 21.3861 46.9184 21.3861 47.2237C21.3861 47.4273 21.4856 47.6308 21.585 47.7326C22.4803 48.1397 22.7787 47.8344 22.8782 47.6308L36.2073 34.1965"/>
</svg>
