<?xml version="1.0" encoding="utf-8" ?>
<svg xmlns="http://www.w3.org/2000/svg" xmlns:xlink="http://www.w3.org/1999/xlink" width="94" height="84">
	<path fill="white" d="M91.5897 5.22488L50.8162 5.22488L50.8162 2.41148L50.7158 0L48.3056 0L45.4936 0L43.0833 0L43.0833 2.41148L43.0833 5.22488L2.41026 5.22488L0 5.22488L0 7.63636L0 10.4498L0 12.8612L2.41026 12.8612L7.63248 12.8612L7.63248 58.6794C7.63248 63.201 11.4487 67.0191 15.9679 67.0191L43.1838 67.0191L43.1838 76.0622L19.3825 76.0622L16.9722 76.0622L16.9722 78.4737L16.9722 81.5885L16.9722 84L19.3825 84L75.1197 84L77.5299 84L77.5299 81.5885L77.5299 78.4737L77.5299 76.0622L75.1197 76.0622L50.8162 76.0622L50.8162 67.0191L78.0321 67.0191C82.5513 67.0191 86.3675 63.201 86.3675 58.6794L86.3675 12.8612L91.5897 12.8612L94 12.8612L94 10.4498L94 7.63636L94 5.22488L91.5897 5.22488"/>
	<path fill="#FFFBFA" d="M82.25 58.4783C82.25 60.3875 80.5427 62.1961 78.6346 62.1961L16.8718 62.1961C14.9637 62.1961 13.2564 60.488 13.2564 58.4783L13.2564 10.5501L82.25 10.5501L82.25 58.4783"/>
	<path fill="#2D1B0A" d="M91.2885 7.63638L48.3056 7.63638L48.3056 2.4115L45.4936 2.4115L45.4936 7.63638L2.4103 7.63638L2.4103 10.4498L10.2436 10.4498L10.2436 58.4785C10.2436 61.8948 12.8547 64.5072 16.1688 64.5072L45.4936 64.5072L45.4936 78.4737L19.4829 78.4737L19.4829 81.2871L75.2201 81.2871L75.2201 78.4737L48.3056 78.4737L48.3056 64.5072L77.9317 64.5072C81.2458 64.5072 83.8569 61.7943 83.8569 58.4785L83.8569 10.4498L91.2885 10.4498L91.2885 7.63638M81.5471 58.4785C81.5471 60.3876 79.8398 62.1962 77.9317 62.1962L16.1688 62.1962C14.2607 62.1962 12.5535 60.4881 12.5535 58.4785L12.5535 10.5503L81.5471 10.5503L81.5471 58.4785"/>
	<path fill="#99CC62" d="M59.1517 37.579L42.9829 28.2345L42.9829 47.1245"/>
	<path fill="#2D1B0A" d="M41.9786 48.9332L41.9786 26.5265L61.1602 37.5791L41.9786 48.9332M43.9871 30.0432L43.9871 45.4165L57.1431 37.6796L43.9871 30.0432"/>
</svg>
