<?xml version="1.0" encoding="utf-8" ?>
<svg xmlns="http://www.w3.org/2000/svg" xmlns:xlink="http://www.w3.org/1999/xlink" width="94" height="84">
	<path fill="white" d="M91.582 5.22488L50.6774 5.22488L50.6774 2.41148L50.6774 0L48.5616 0L45.7406 0L43.3226 0L43.3226 2.41148L43.3226 5.22488L2.41801 5.22488L0 5.22488L0 7.63636L0 10.4498L0 12.8612L2.41801 12.8612L7.65702 12.8612L7.65702 58.6794C7.65702 63.201 11.4855 67.0191 16.0193 67.0191L43.3226 67.0191L43.3226 76.0622L19.4448 76.0622L17.0268 76.0622L17.0268 78.4737L17.0268 81.5885L17.0268 84L19.4448 84L75.3612 84L77.7792 84L77.7792 81.5885L77.7792 78.4737L77.7792 76.0622L75.3612 76.0622L50.9796 76.0622L50.9796 67.0191L77.9807 67.0191C82.5145 67.0191 86.343 63.201 86.343 58.6794L86.343 12.8612L91.582 12.8612L94 12.8612L94 10.4498L94 7.63636L94 5.22488L91.582 5.22488"/>
	<path fill="#FFFBFA" d="M82.3633 58.6794C82.3633 60.5885 80.6506 62.3971 78.6356 62.3971L15.3644 62.3971C13.4502 62.3971 11.6367 60.689 11.6367 58.6794L11.6367 10.3493L82.2626 10.3493L82.2626 58.6794"/>
	<path fill="#2D1B0A" d="M91.8843 7.63638L48.5617 7.63638L48.5617 2.4115L45.7407 2.4115L45.7407 7.63638L2.7203 7.63638L2.7203 10.4498L10.3773 10.4498L10.3773 58.4785C10.3773 61.8948 12.9968 64.5072 16.3216 64.5072L45.7407 64.5072L45.7407 78.4737L19.6463 78.4737L19.6463 81.2871L75.5627 81.2871L75.5627 78.4737L48.5617 78.4737L48.5617 64.5072L77.9808 64.5072C81.3055 64.5072 83.925 61.7943 83.925 58.4785L83.925 10.4498L91.8843 10.4498L91.8843 7.63638M81.8093 58.4785C81.8093 60.3876 80.0965 62.1962 78.1823 62.1962L16.2208 62.1962C14.3066 62.1962 12.5938 60.4881 12.5938 58.4785L12.5938 10.5503L81.8093 10.5503L81.8093 58.4785"/>
	<path fill="#99CC62" d="M47.9571 38.0813L60.1479 38.0813C60.1479 44.7129 54.6066 50.2392 47.9571 50.2392C41.3076 50.2392 35.7663 44.7129 35.7663 38.0813C35.7663 34.5646 37.2775 31.2488 39.8971 28.9378L47.9571 38.0813"/>
	<path fill="#2D1B0A" d="M47.9571 51.244C40.7031 51.244 34.7588 45.3158 34.7588 38.0813C34.7588 34.2631 36.3708 30.6459 39.2926 28.1339L48.4608 36.9761L61.1554 36.9761L61.1554 37.9808C61.1554 45.3158 55.2111 51.244 47.9571 51.244M39.8971 30.3445C37.8821 32.4545 36.7738 35.1674 36.7738 38.0813C36.7738 44.2105 41.8113 49.2344 47.9571 49.2344C53.8006 49.2344 58.5359 44.8134 59.1404 39.0861L47.5541 39.0861L39.8971 30.3445"/>
	<path fill="#DEFFFE" d="M51.1811 32.1531L44.3301 22.8086C46.3451 21.3014 48.7631 20.5981 51.1811 20.5981C57.5284 20.5981 62.7674 25.823 62.7674 32.1531L51.1811 32.1531"/>
	<path fill="#2D1B0A" d="M63.7748 33.1579L50.6773 33.1579L42.9195 22.6077C45.8413 20.3971 48.5615 19.5933 51.181 19.5933C58.1328 19.5933 63.7748 25.2201 63.7748 32.1531L63.7748 33.1579M51.6848 31.1483L61.7598 31.1483C61.256 25.823 56.7223 21.6029 51.181 21.6029C49.2668 21.6029 47.3525 22.1053 45.7405 23.1101L51.6848 31.1483"/>
</svg>
