<?xml version="1.0" encoding="utf-8" ?>
<svg xmlns="http://www.w3.org/2000/svg" xmlns:xlink="http://www.w3.org/1999/xlink" width="112" height="86">
	<path fill="white" d="M10.2725 86C6.0837 86 2.89225 82.6729 2.89225 78.5393L2.89225 22.5838C0.797863 20.2649 0 18.4502 0 16.4338L0 7.46073C0 3.22626 3.29118 0 7.38023 0L104.62 0C108.809 0 112 3.32708 112 7.46073L112 16.4338C112 18.4502 111.202 20.2649 109.906 21.6764L109.008 78.4385C109.008 80.354 108.31 82.2696 107.013 83.6811C105.617 85.0926 103.722 86 101.728 86L10.2725 86"/>
	<path fill="#FFD071" d="M101.432 83.0762L9.97685 83.0762C7.48352 83.0762 5.5886 81.1606 5.5886 78.6401L5.5886 19.0551C5.5886 16.5346 7.58326 14.619 9.97685 14.619L101.332 14.619C103.826 14.619 105.724 16.6354 105.724 19.0551L105.724 78.6401C105.724 81.0598 103.826 83.0762 101.432 83.0762"/>
	<path fill="#2D1B0A" d="M101.428 84.0844L9.97327 84.0844C6.98129 84.0844 4.5877 81.6647 4.5877 78.6401L4.5877 19.0551C4.5877 16.0305 6.98129 13.6108 9.97327 13.6108L101.329 13.6108C104.321 13.6108 106.725 16.0305 106.725 19.0551L106.725 78.6401C106.725 80.0516 106.216 81.3623 105.218 82.4713C104.221 83.4795 102.825 84.0844 101.428 84.0844M9.97327 15.5264C8.07835 15.5264 6.58236 17.0387 6.58236 18.9543L6.58236 78.5393C6.58236 80.4549 8.07835 81.9672 9.97327 81.9672L101.428 81.9672C102.326 81.9672 103.224 81.5639 103.822 80.8582C104.42 80.1524 104.82 79.3459 104.72 78.5393L104.72 18.8535C104.72 16.9379 103.224 15.4256 101.329 15.4256L9.97327 15.4256"/>
	<path fill="#FFD071" d="M104.321 21.0716L7.08105 21.0716C4.58772 21.0716 2.6928 19.055 2.6928 16.6353L2.6928 7.66236C2.6928 5.14184 4.68746 3.22625 7.08105 3.22625L104.321 3.22625C106.814 3.22625 108.709 5.24266 108.709 7.66236L108.709 16.6353C108.709 19.055 106.814 21.0716 104.321 21.0716"/>
	<path fill="#2D1B0A" d="M104.321 22.0798L7.08107 22.0798C4.08909 22.0798 1.6955 19.66 1.6955 16.6355L1.6955 7.66236C1.6955 4.63775 4.08909 2.21805 7.08107 2.21805L104.321 2.21805C107.313 2.21805 109.707 4.63775 109.707 7.66236L109.707 16.6355C109.707 19.66 107.413 22.0798 104.321 22.0798M7.08107 4.13364C5.18615 4.13364 3.69016 5.64595 3.69016 7.56154L3.69016 16.5345C3.69016 18.4501 5.18615 19.9625 7.08107 19.9625L104.321 19.9625C106.215 19.9625 107.712 18.4501 107.712 16.5345L107.712 7.56154C107.712 5.64595 106.215 4.13364 104.321 4.13364L7.08107 4.13364"/>
	<path fill="#F4F4F4" d="M69.0153 47.5873L42.4863 47.5873C39.993 47.5873 38.098 45.5709 38.098 43.1512L38.098 40.2274C38.098 37.7069 40.0927 35.7913 42.4863 35.7913L69.0153 35.7913C71.5085 35.7913 73.4035 37.8077 73.4035 40.2274L73.4035 43.1512C73.4035 45.5709 71.4088 47.5873 69.0153 47.5873"/>
	<path fill="#2D1B0A" d="M69.0153 48.5955L42.4864 48.5955C39.4944 48.5955 37.1008 46.1758 37.1008 43.1512L37.1008 40.2274C37.1008 37.2028 39.4944 34.7831 42.4864 34.7831L69.0153 34.7831C72.0073 34.7831 74.4009 37.2028 74.4009 40.2274L74.4009 43.1512C74.4009 46.1758 72.0073 48.5955 69.0153 48.5955M42.4864 36.6987C40.5914 36.6987 39.0955 38.211 39.0955 40.1266L39.0955 43.0504C39.0955 44.966 40.5914 46.4783 42.4864 46.4783L69.0153 46.4783C70.9102 46.4783 72.4062 44.966 72.4062 43.0504L72.4062 40.1266C72.4062 38.211 70.9102 36.6987 69.0153 36.6987L42.4864 36.6987"/>
</svg>
