<?xml version="1.0" encoding="utf-8" ?>
<svg xmlns="http://www.w3.org/2000/svg" xmlns:xlink="http://www.w3.org/1999/xlink" width="84" height="108">
	<path fill="white" d="M7.71727 108C6.40298 108 4.98758 107.599 3.77439 106.898C0.134799 104.794 -1.0784 100.085 1.0447 96.4787L19.4448 65.0204L17.9283 63.4174C13.6821 58.9091 10.6492 53.3989 9.13266 47.4879C6.50407 37.7699 7.91947 27.551 12.9744 18.8349C18.1305 10.1187 26.3196 3.90724 36.1263 1.30241C39.3614 0.500928 42.5966 0 45.9329 0C63.1199 0 78.2848 11.5213 82.7332 28.0519C88.0915 48.1892 75.9595 68.9276 55.6385 74.2375C52.5044 75.039 49.1681 75.4397 45.9329 75.4397C42.1922 75.4397 38.4516 74.9388 34.9131 73.8367L32.5878 73.1354L13.581 105.195C12.0646 106.998 9.94146 108 7.71727 108"/>
	<path fill="#89C5E5" d="M31.4757 68.9277L11.8624 102.39C10.5481 104.594 7.71734 105.395 5.39205 104.093C3.16786 102.79 2.35906 99.9852 3.67336 97.681L23.2866 64.1188C24.2976 64.9202 26.2185 66.1225 27.2295 66.7236C28.3417 67.4249 30.9702 68.7273 31.4757 68.9277"/>
	<path fill="#2D1B0A" d="M7.69985 105.796C6.68815 105.796 5.77762 105.595 4.8671 104.994C2.0418 103.391 1.22499 99.9851 2.8437 97.2801L23.0776 62.7161C24.9999 64.2189 26.8209 65.4211 27.8326 65.922C28.8443 66.5231 31.4747 67.8256 31.8794 68.0259L32.8911 68.4267L12.3537 103.391C11.2408 104.994 9.5209 105.796 7.69985 105.796M23.5835 65.7217L4.46242 98.282C3.45072 99.9851 4.05774 102.289 5.77762 103.291C7.49751 104.293 9.82441 103.692 10.8361 101.989L29.9572 69.4285C28.9455 68.9276 27.4279 68.1261 26.6186 67.7254C26.0116 67.2244 24.6964 66.423 23.5835 65.7217"/>
	<path fill="#99CC62" d="M79.8013 28.5898C74.8474 10.0555 55.6385 -0.9649 36.9349 3.94419C18.2316 8.85328 7.11061 27.8885 12.0645 46.4229C13.8843 53.3357 17.9283 59.5472 23.4888 64.1557C25.0052 65.4581 26.6228 66.5601 28.3415 67.4618C30.0602 68.4637 31.7789 69.2652 33.6998 69.9664C40.4734 72.4711 47.9548 72.8718 55.0318 70.9683C73.6341 66.1594 84.7551 47.1241 79.8013 28.5898M69.7924 51.0314C62.0076 64.1557 45.3262 68.4637 32.2845 61.0499C19.1415 53.536 14.592 36.9052 22.1744 23.8811C29.757 10.857 46.5394 6.34864 59.6824 13.8626C72.8253 21.5768 77.2738 38.1075 69.7924 51.0314"/>
	<path fill="#2D1B0A" d="M45.9329 73.2357C41.6867 73.2357 37.3394 72.4342 33.2954 70.9314C31.3745 70.2301 29.5547 69.3284 27.836 68.3266C26.1173 67.3247 24.3986 66.2227 22.8821 64.9203C17.1195 60.1114 13.0755 53.7997 11.1546 46.6865C8.7282 37.4694 9.9414 27.8516 14.7942 19.5362C19.647 11.321 27.4316 5.41006 36.7328 2.90543C46.0256 0.50097 55.7395 1.7032 64.1308 6.51211C72.421 11.321 78.3858 19.0353 80.9133 28.2524C85.9683 47.2876 74.544 66.924 55.3351 71.9333C52.0999 72.8349 49.0669 73.2357 45.9329 73.2357M46.0256 3.8071C43.1021 3.8071 40.1702 4.20784 37.2383 4.90914C28.4426 7.2134 21.0624 12.8238 16.5129 20.5381C11.9634 28.3526 10.7502 37.3692 13.0755 46.0854C14.8953 52.898 18.7371 58.809 24.1964 63.3173C25.6118 64.5195 27.2294 65.6216 28.847 66.5232C30.4646 67.5251 32.1833 68.3266 34.0031 68.9277C40.6757 71.3321 47.8538 71.7329 54.6274 69.9295C72.7243 65.1206 83.643 46.6865 78.7902 28.6531C76.4649 19.937 70.8034 12.6234 63.0187 8.11507C57.7615 5.30988 51.8977 3.8071 46.0256 3.8071M45.8318 65.7218C40.979 65.7218 36.1262 64.5195 31.6778 62.0149C18.0294 54.3006 13.3788 36.9685 21.1635 23.4435C25.0052 16.9314 31.0712 12.2227 38.4515 10.219C45.3263 8.41563 52.5043 9.11693 58.7725 12.3229L60.289 13.1244C73.7353 20.9388 78.2847 38.1707 70.6012 51.5956C65.2429 60.7125 55.6384 65.7218 45.8318 65.7218M45.9329 11.321C43.6076 11.321 41.2823 11.6216 38.957 12.2227C32.0822 14.026 26.4206 18.4342 22.8821 24.4453C15.603 36.9685 19.9503 52.9982 32.5877 60.2115C45.1241 67.3247 61.3 63.1169 68.5792 50.7941C75.8583 38.2709 71.7133 22.4416 59.3791 15.0279C55.0318 12.5232 50.5834 11.321 45.9329 11.321"/>
</svg>
