<?xml version="1.0" encoding="utf-8" ?>
<svg xmlns="http://www.w3.org/2000/svg" xmlns:xlink="http://www.w3.org/1999/xlink" width="94" height="94">
	<path fill="white" d="M15.6335 94C7.06992 94 0 86.9626 0 78.216L0 15.784C0 7.13797 6.97034 0 15.6335 0L78.3665 0C86.9301 0 94 7.03743 94 15.784L94 78.216C94 86.862 87.0297 94 78.3665 94L15.6335 94"/>
	<path fill="#99CC62" d="M78.3666 90.8834L15.6336 90.8834C8.6632 90.8834 2.98735 85.1528 2.98735 78.1154L2.98735 15.6834C2.98735 8.64593 8.6632 2.91545 15.6336 2.91545L78.3666 2.91545C85.337 2.91545 91.0127 8.64593 91.0127 15.6834L91.0127 78.1154C91.0127 85.1528 85.337 90.8834 78.3666 90.8834"/>
	<path fill="#2D1B0A" d="M78.3666 91.8888L15.6335 91.8888C8.16533 91.8888 1.9916 85.7562 1.9916 78.1155L1.9916 15.6835C1.9916 8.14336 8.06575 1.9102 15.6335 1.9102L78.3666 1.9102C85.8348 1.9102 92.0085 8.04282 92.0085 15.6835L92.0085 78.1155C92.0085 85.6557 85.8348 91.8888 78.3666 91.8888M15.6335 3.9209C9.26067 3.9209 3.98313 9.1487 3.98313 15.6835L3.98313 78.1155C3.98313 84.5498 9.16109 89.8781 15.6335 89.8781L78.3666 89.8781C84.7395 89.8781 90.017 84.6503 90.017 78.1155L90.017 15.6835C90.017 9.24924 84.8391 3.9209 78.3666 3.9209L15.6335 3.9209"/>
	<path fill="#FFD071" d="M72.4915 3.01605L22.6038 3.01605C22.2055 3.01605 21.7076 3.11658 21.4089 3.31765C21.1102 3.51872 20.911 3.71979 20.911 3.92086L20.911 22.6203C20.911 22.8214 21.1102 23.0224 21.4089 23.2236C21.7076 23.4247 22.1059 23.5252 22.6038 23.5252L72.4915 23.5252C72.8898 23.5252 73.3877 23.4247 73.6864 23.2236C73.9852 23.0224 74.1843 22.8214 74.1843 22.6203L74.1843 3.92086C74.1843 3.71979 73.9852 3.51872 73.6864 3.31765C73.3877 3.11658 72.9894 3.01605 72.4915 3.01605"/>
	<path fill="#2D1B0A" d="M72.4915 24.5305L22.6038 24.5305C22.0063 24.5305 21.4089 24.43 21.0106 24.1283C20.3135 23.8267 20.0148 23.2235 20.0148 22.6203L20.0148 3.92086C20.0148 3.31765 20.4131 2.71444 21.0106 2.41284C21.5084 2.21177 22.0063 2.0107 22.6038 2.0107L72.4915 2.0107C73.089 2.0107 73.6864 2.11123 74.0847 2.41284C74.7817 2.71444 75.0805 3.31765 75.0805 3.92086L75.0805 22.6203C75.0805 23.2235 74.6822 23.8267 74.0847 24.1283C73.6864 24.3294 73.089 24.5305 72.4915 24.5305M21.9068 22.3187C22.1059 22.4193 22.3051 22.4193 22.6038 22.4193L72.4915 22.4193C72.7902 22.4193 72.9894 22.3187 73.1885 22.3187L73.1885 4.12193C72.9894 4.0214 72.7902 4.0214 72.4915 4.0214L22.6038 4.0214C22.3051 4.0214 22.1059 4.12193 21.9068 4.12193L21.9068 22.3187"/>
	<path fill="#E6F9FF" d="M72.7902 49.4633L22.9025 49.4633C22.5041 49.4633 22.0063 49.6643 21.7075 49.9659C21.4088 50.2675 21.2097 50.7702 21.2097 51.1723L21.2097 88.6719C21.2097 89.1745 21.4088 89.5767 21.7075 89.8783C22.0063 90.1799 22.4046 90.3809 22.9025 90.3809L72.7902 90.3809C73.1885 90.3809 73.6863 90.1799 73.985 89.8783C74.2839 89.5767 74.4829 89.074 74.4829 88.6719L74.4829 51.1723C74.4829 50.6697 74.2839 50.2675 73.985 49.9659C73.6863 49.6643 73.1885 49.4633 72.7902 49.4633"/>
	<path fill="#2D1B0A" d="M72.7903 91.4868L22.9026 91.4868C22.2055 91.4868 21.5085 91.1852 21.0106 90.6825C20.5127 90.1798 20.214 89.4761 20.214 88.7723L20.214 51.1723C20.214 50.4686 20.5127 49.7649 21.0106 49.2622C21.5085 48.7595 22.2055 48.4579 22.9026 48.4579L72.7903 48.4579C73.4873 48.4579 74.1843 48.7595 74.6822 49.2622C75.1801 49.7649 75.4788 50.4686 75.4788 51.1723L75.4788 88.6718C75.4788 89.3755 75.1801 90.0793 74.6822 90.582C74.1843 91.1852 73.4873 91.4868 72.7903 91.4868M22.9026 50.4686C22.7034 50.4686 22.6038 50.5691 22.4047 50.6697C22.3051 50.7702 22.2055 50.9713 22.2055 51.1723L22.2055 88.6718C22.2055 88.8729 22.3051 89.0739 22.4047 89.1745C22.5043 89.275 22.7034 89.3755 22.9026 89.3755L72.7903 89.3755C72.9894 89.3755 73.089 89.275 73.2882 89.1745C73.3877 89.0739 73.4873 88.8729 73.4873 88.6718L73.4873 51.1723C73.4873 50.9713 73.3877 50.7702 73.2882 50.6697C73.1886 50.5691 72.9894 50.4686 72.7903 50.4686L22.9026 50.4686"/>
	<path fill="#2D1B0A" d="M59.0487 7.7412L64.3263 7.7412L64.3263 19.4032L59.0487 19.4032L59.0487 7.7412"/>
	<path fill="#2D1B0A" d="M29.2754 63.0353L68.0106 63.0353L68.0106 66.3529L29.2754 66.3529L29.2754 63.0353"/>
	<path fill="#2D1B0A" d="M28.9767 76.2054L67.7119 76.2054L67.7119 79.523L28.9767 79.523L28.9767 76.2054"/>
</svg>
