<?xml version="1.0" encoding="utf-8" ?>
<svg xmlns="http://www.w3.org/2000/svg" xmlns:xlink="http://www.w3.org/1999/xlink" width="104" height="86">
	<path fill="white" d="M26.9962 86C22.9119 86 19.5249 82.5681 19.5249 78.4296L19.5249 51.8826L11.1571 51.8826C4.98084 51.8826 0 46.8357 0 40.5775L0 11.3052C0 5.04695 4.98084 0 11.1571 0L92.8429 0C99.0192 0 104 5.04695 104 11.3052L104 40.5775C104 46.8357 99.0192 51.8826 92.8429 51.8826L84.4751 51.8826L84.4751 78.4296C84.4751 82.5681 81.0881 86 77.0038 86L26.9962 86"/>
	<path fill="#89C5E5" d="M92.8429 48.7537L11.1571 48.7537C6.67432 48.7537 2.9885 45.0189 2.9885 40.4767L2.9885 11.2044C2.9885 6.66214 6.67432 2.9274 11.1571 2.9274L92.8429 2.9274C97.3257 2.9274 101.012 6.66214 101.012 11.2044L101.012 40.4767C100.912 45.1199 97.3257 48.7537 92.8429 48.7537"/>
	<path fill="#2D1B0A" d="M92.8429 49.7631L11.1571 49.7631C6.07659 49.7631 1.9923 45.6246 1.9923 40.4767L1.9923 11.2044C1.9923 6.0565 6.07659 1.918 11.1571 1.918L92.8429 1.918C97.9233 1.918 102.007 6.0565 102.007 11.2044L102.007 40.4767C102.007 45.6246 97.8237 49.7631 92.8429 49.7631M11.1571 4.03772C7.17238 4.03772 3.98464 7.26777 3.98464 11.3053L3.98464 40.5776C3.98464 44.6152 7.17238 47.8452 11.1571 47.8452L92.8429 47.8452C96.8275 47.8452 100.015 44.6152 100.015 40.5776L100.015 11.3053C100.015 7.26777 96.8275 4.03772 92.8429 4.03772L11.1571 4.03772"/>
	<path fill="#FFD071" d="M77.1015 82.9718L26.9943 82.9718C24.5039 82.9718 22.5116 80.953 22.5116 78.4296L22.5116 46.23C22.5116 29.676 35.7606 16.3521 52 16.3521C68.3354 16.3521 81.4883 29.777 81.4883 46.23L81.4883 78.4296C81.5844 80.8521 79.5921 82.9718 77.1015 82.9718"/>
	<path fill="#2D1B0A" d="M77.103 83.9812L26.9935 83.9812C24.0048 83.9812 21.5143 81.4577 21.5143 78.4296L21.5143 46.23C21.5143 29.1713 35.1624 15.3427 51.9999 15.3427C68.8344 15.3427 82.4854 29.1713 82.4854 46.23L82.4854 78.4296C82.5822 81.4577 80.0916 83.9812 77.103 83.9812M52.098 17.3615C36.3579 17.3615 23.6064 30.2817 23.6064 46.23L23.6064 78.4296C23.6064 80.3474 25.2003 81.9624 27.0931 81.9624L77.2026 81.9624C79.0954 81.9624 80.6894 80.3474 80.6894 78.4296L80.6894 46.23C80.5897 30.2817 67.8382 17.3615 52.098 17.3615"/>
	<path fill="#2D1B0A" d="M34.9654 32.5024L33.3716 31.2911C37.9539 25.5376 44.7279 22.2066 52 22.2066C59.2719 22.2066 66.1454 25.5376 70.6283 31.2911L69.0343 32.5024C64.8504 27.1526 58.5747 24.1244 51.9003 24.1244C45.226 24.1244 39.1493 27.1526 34.9654 32.5024"/>
	<path fill="#2D1B0A" d="M72.2721 45.2207C71.5748 44.615 70.7778 43.9084 69.8813 43.2019C63.6054 37.7512 57.5289 32.5023 51.9502 32.5023C46.9695 32.5023 42.2874 36.2371 37.3066 40.1737L36.0116 41.284C34.6169 42.3944 33.2223 43.5047 31.7281 44.615L30.5326 43C31.9273 41.9906 33.3219 40.8803 34.7166 39.77L36.0116 38.7606C41.2913 34.5211 46.1725 30.5845 51.8507 30.5845C58.2262 30.5845 64.6017 36.1361 70.1801 40.9812C71.9733 42.3944 72.7701 43.1009 73.4675 43.7066L72.2721 45.2207"/>
	<path fill="#FFD071" d="M73.3181 57.0305C68.8353 55.7183 66.0461 52.1854 63.3563 48.7535C60.3679 45.0188 57.2798 41.0821 52.2989 41.0821C48.7127 41.0821 46.023 43.3028 42.8353 45.8263C39.7472 48.3498 35.8621 51.4788 29.5863 53.6995"/>
	<path fill="#2D1B0A" d="M73.0193 58.0398C68.3373 56.6268 65.4484 52.993 62.6591 49.4601C59.571 45.5234 56.7817 42.0915 52.299 42.0915C49.0116 42.0915 46.6208 44.0094 43.6323 46.5328C40.3449 49.1573 36.4599 52.3874 30.0844 54.6079L29.4867 52.6902C35.5633 50.5704 39.3488 47.5422 42.4369 45.0188C45.6246 42.3943 48.5135 40.0728 52.4982 40.0728C57.9771 40.0728 61.1649 44.1103 64.253 48.0469C66.9426 51.4789 69.6323 54.9108 73.7166 56.122L73.0193 58.0398"/>
	<path fill="#FFD071" d="M48.4137 79.0351C48.8122 78.7324 57.5786 72.8779 58.8736 63.9952C59.2719 61.5727 58.4751 59.0492 56.9809 57.1314C55.5862 55.4154 53.5938 54.507 51.4023 54.507C48.5134 54.507 45.4253 57.1314 42.7355 59.453C41.7394 60.2605 40.8428 61.068 40.3448 61.3708C35.2643 64.6009 30.6819 66.2159 30.6819 66.3168"/>
	<path fill="#2D1B0A" d="M49.0115 79.8426L47.8161 78.2276C49.41 77.2182 56.7817 71.6666 57.9771 63.8943C58.2759 61.8755 57.6782 59.5539 56.2836 57.8379C55.0882 56.4248 53.3947 55.6173 51.502 55.6173C49.0115 55.6173 46.023 58.1408 43.5326 60.3614C42.5364 61.2699 41.6399 61.9764 41.0422 62.3802C36.9579 65.0046 33.1725 66.6196 31.3794 67.3262L30.4828 65.5093C30.4828 65.5093 30.4828 65.5093 30.682 65.4084C32.4751 64.7018 36.0613 63.0868 40.046 60.6642C40.5441 60.3614 41.4407 59.6548 42.3372 58.8473C45.1265 56.4248 48.3142 53.5985 51.6016 53.5985C54.092 53.5985 56.2836 54.6079 57.8774 56.5257C59.6705 58.6455 60.4675 61.5727 59.9694 64.1971C58.5748 72.7769 50.6054 78.7323 49.0115 79.8426"/>
	<path fill="#FFD071" d="M32.9732 76.4108C33.2721 76.4108 33.5709 76.3099 33.7701 76.2089C43.2337 72.4742 50.0077 64.601 50.3065 64.1972"/>
	<path fill="#2D1B0A" d="M32.9732 77.4202L32.9732 75.4015C33.1724 75.4015 33.2721 75.4015 33.2721 75.3005C42.636 71.5658 49.41 63.6925 49.41 63.5916L50.9042 64.9038C50.8046 65.0047 43.9311 73.2817 33.9694 77.1174C33.8698 77.3193 33.3717 77.4202 32.9732 77.4202"/>
	<path fill="#FFD071" d="M71.9234 77.3192C71.7242 76.9155 69.6322 73.5845 65.7471 73.3743C61.8621 73.1808 59.1724 76.7136 58.8736 77.1174"/>
	<path fill="#2D1B0A" d="M71.0268 77.7181C71.0268 77.7181 69.2337 74.589 65.7471 74.3871C62.9579 74.2862 60.7663 76.4059 59.6705 77.7181L58.0766 76.4059C59.4713 74.7908 62.1609 72.1664 65.7471 72.3573C69.931 72.5702 72.4214 76.0021 72.8199 77.0115L71.0268 77.7181"/>
	<path fill="#FFD071" d="M62.5594 63.6925L73.0192 69.3451C73.318 69.547 73.7165 69.6479 74.115 69.6479"/>
	<path fill="#2D1B0A" d="M74.0153 70.6573C73.318 70.6573 72.8199 70.4554 72.5211 70.2536L62.0613 64.601L62.9579 62.7841L73.4176 68.4367C73.6169 68.5376 73.8161 68.6385 74.0153 68.6385L74.0153 70.6573"/>
</svg>
