<?xml version="1.0" encoding="utf-8" ?>
<svg xmlns="http://www.w3.org/2000/svg" xmlns:xlink="http://www.w3.org/1999/xlink" width="78" height="96">
	<path fill="white" d="M10.7249 95.7987C4.75623 95.7987 0 91.0038 0 85.1102L0.203879 10.5902C0.203879 4.69649 5.05972 0 11.0284 0L67.2751 0.201319C73.2438 0.201319 78.0996 4.99617 78 10.8898L77.7961 85.4098C77.7961 91.3035 72.9403 96.0984 66.9716 96L10.7249 95.7987"/>
	<path fill="#F4F4F4" d="M66.8692 92.5008L10.6235 92.5008C6.3747 92.5008 2.83405 89.1045 2.83405 84.8092L2.83405 10.2903C2.83405 6.09489 6.27354 2.5987 10.6235 2.5987L66.8692 2.5987C71.118 2.5987 74.6586 5.995 74.6586 10.2903L74.6586 84.8092C74.6586 89.0046 71.118 92.5008 66.8692 92.5008"/>
	<path fill="#2D1B0A" d="M66.8691 93.4996L10.6234 93.4996C5.76769 93.4996 1.8224 89.6039 1.8224 84.8091L1.8224 10.2902C1.8224 5.49546 5.76769 1.5997 10.6234 1.5997L66.8691 1.5997C71.7249 1.5997 75.6702 5.49546 75.6702 10.2902L75.6702 84.8091C75.6702 89.6039 71.7249 93.4996 66.8691 93.4996M10.7246 3.59752C6.98163 3.59752 3.94679 6.59426 3.94679 10.2902L3.94679 84.8091C3.94679 88.505 6.98163 91.5018 10.7246 91.5018L66.9703 91.5018C70.7133 91.5018 73.7481 88.505 73.7481 84.8091L73.7481 10.2902C73.7481 6.59426 70.7133 3.59752 66.9703 3.59752L10.7246 3.59752"/>
	<path fill="#E63B56" d="M74.5575 18.5813L2.8341 18.5813L2.8341 10.3902C2.8341 6.19475 6.37475 2.69856 10.6235 2.69856L66.7681 2.69856C71.0168 2.69856 74.5575 6.19475 74.5575 10.3902L74.5575 18.5813"/>
	<path fill="#2D1B0A" d="M75.5691 19.5802L1.8225 19.5802L1.8225 10.3902C1.8225 5.59541 5.76779 1.69965 10.6235 1.69965L66.7681 1.69965C71.6238 1.69965 75.5691 5.59541 75.5691 10.3902L75.5691 19.5802M3.84573 17.5823L73.5459 17.5823L73.5459 10.3902C73.5459 6.69421 70.511 3.69747 66.7681 3.69747L10.6235 3.69747C6.88057 3.69747 3.84573 6.69421 3.84573 10.3902L3.84573 17.5823"/>
	<path fill="#2D1B0A" d="M66.0598 37.3608L26.1011 37.3608C25.4941 37.3608 25.0895 36.9613 25.0895 36.3619C25.0895 35.7626 25.4941 35.363 26.1011 35.363L66.0598 35.363C66.6668 35.363 67.0715 35.7626 67.0715 36.3619C67.0715 36.9613 66.5656 37.3608 66.0598 37.3608"/>
	<path fill="#2D1B0A" d="M66.0598 50.1469L26.1011 50.1469C25.4941 50.1469 25.0895 49.7473 25.0895 49.148C25.0895 48.5487 25.4941 48.1491 26.1011 48.1491L66.0598 48.1491C66.6668 48.1491 67.0715 48.5487 67.0715 49.148C67.0715 49.7473 66.5656 50.1469 66.0598 50.1469"/>
	<path fill="#2D1B0A" d="M66.0598 63.0329L26.1011 63.0329C25.4941 63.0329 25.0895 62.6334 25.0895 62.034C25.0895 61.4347 25.4941 61.0351 26.1011 61.0351L66.0598 61.0351C66.6668 61.0351 67.0715 61.4347 67.0715 62.034C67.0715 62.6334 66.5656 63.0329 66.0598 63.0329"/>
	<path fill="#2D1B0A" d="M66.0598 75.8189L26.1011 75.8189C25.4941 75.8189 25.0895 75.4193 25.0895 74.82C25.0895 74.2207 25.4941 73.8211 26.1011 73.8211L66.0598 73.8211C66.6668 73.8211 67.0715 74.2207 67.0715 74.82C67.0715 75.4193 66.5656 75.8189 66.0598 75.8189"/>
	<path fill="#F55" d="M12.141 32.7659L21.3466 32.7659L21.3466 40.0579L12.141 40.0579L12.141 32.7659"/>
	<path fill="#89C5E5" d="M12.141 45.7517L21.3466 45.7517L21.3466 53.0437L12.141 53.0437L12.141 45.7517"/>
	<path fill="#FFE029" d="M12.141 57.1393L21.3466 57.1393L21.3466 64.4313L12.141 64.4313L12.141 57.1393"/>
	<path fill="#22B5FF" d="M12.141 70.6246L21.3466 70.6246L21.3466 77.9166L12.141 77.9166L12.141 70.6246"/>
	<path fill="#2D1B0A" d="M15.985 39.4585L12.5455 36.1621C12.2421 35.7626 12.2421 35.1632 12.5455 34.7636C12.9502 34.3641 13.5572 34.3641 13.9618 34.7636L15.985 36.7615L19.5257 33.6648C19.9303 33.2653 20.5373 33.4105 20.9419 33.7647C21.3466 34.1643 21.2454 34.7636 20.8408 35.1632L15.985 39.4585"/>
	<path fill="#2D1B0A" d="M15.985 52.9438L12.5455 49.6474C12.2421 49.2479 12.2421 48.6485 12.5455 48.2489C12.9502 47.8494 13.5572 47.8494 13.9618 48.2489L15.985 50.2468L19.5257 47.1501C19.9303 46.7506 20.5373 46.8958 20.9419 47.25C21.3466 47.6496 21.2454 48.2489 20.8408 48.6485L15.985 52.9438"/>
	<path fill="#2D1B0A" d="M15.985 64.3314L12.5455 61.035C12.2421 60.6355 12.2421 60.0361 12.5455 59.6365C12.9502 59.237 13.5572 59.237 13.9618 59.6365L15.985 61.6344L19.5257 58.5377C19.9303 58.1382 20.5373 58.2834 20.9419 58.6376C21.3466 59.0372 21.2454 59.6365 20.8408 60.0361L15.985 64.3314"/>
	<path fill="#2D1B0A" d="M15.985 77.2174L12.5455 73.921C12.2421 73.5215 12.2421 72.9221 12.5455 72.5225C12.9502 72.123 13.5572 72.123 13.9618 72.5225L15.985 74.5204L19.5257 71.4237C19.9303 71.0242 20.5373 71.1694 20.9419 71.5236C21.3466 71.9232 21.2454 72.5225 20.8408 72.9221L15.985 77.2174"/>
	<path fill="white" d="M15.5804 10.6899C15.5804 12.4553 14.131 13.8864 12.3432 13.8864C10.5554 13.8864 9.10604 12.4553 9.10604 10.6899C9.10604 8.92453 10.5554 7.49339 12.3432 7.49339C14.131 7.49339 15.5804 8.92453 15.5804 10.6899"/>
	<path fill="#2D1B0A" d="M12.3432 15.4847C9.713 15.4847 7.58861 13.387 7.58861 10.7898C7.58861 8.19264 9.713 6.09492 12.3432 6.09492C14.9734 6.09492 17.0978 8.19264 17.0978 10.7898C17.0978 13.2871 14.9734 15.4847 12.3432 15.4847M12.3432 8.99176C11.4327 8.99176 10.6235 9.79089 10.6235 10.6899C10.6235 11.5889 11.4327 12.3881 12.3432 12.3881C13.2536 12.3881 14.0629 11.5889 14.0629 10.6899C14.0629 9.79089 13.2536 8.99176 12.3432 8.99176"/>
	<path fill="white" d="M65.8576 10.6899C65.8576 12.4553 64.4082 13.8864 62.6204 13.8864C60.8326 13.8864 59.3832 12.4553 59.3832 10.6899C59.3832 8.92453 60.8326 7.49339 62.6204 7.49339C64.4082 7.49339 65.8576 8.92453 65.8576 10.6899"/>
	<path fill="#2D1B0A" d="M62.6204 15.4847C59.9902 15.4847 57.8658 13.387 57.8658 10.7898C57.8658 8.19264 59.9902 6.09492 62.6204 6.09492C65.2506 6.09492 67.375 8.19264 67.375 10.7898C67.375 13.2871 65.2506 15.4847 62.6204 15.4847M62.6204 8.99176C61.7099 8.99176 60.9007 9.79089 60.9007 10.6899C60.9007 11.5889 61.7099 12.3881 62.6204 12.3881C63.5308 12.3881 64.3401 11.5889 64.3401 10.6899C64.3401 9.79089 63.632 8.99176 62.6204 8.99176"/>
</svg>
