<?xml version="1.0" encoding="utf-8" ?>
<svg xmlns="http://www.w3.org/2000/svg" xmlns:xlink="http://www.w3.org/1999/xlink" width="68" height="106">
	<path fill="white" d="M0.497804 106L0.298682 100.352C0.298682 90.6698 6.67057 81.4919 17.0249 76.55L21.7042 74.3311L17.5227 71.3054C15.7306 69.9943 14.0381 68.4814 12.6442 66.8677C7.16837 63.0352 4.38067 58.7992 3.98243 54.2607L3.88287 53C1.09517 50.7307 0 48.411 0 46.0913C0 43.0657 1.79209 40.2417 4.48023 38.8297L5.77452 38.2245L6.07321 36.8126C7.26794 31.8706 9.65739 27.4329 12.8433 24.0038C14.735 21.8858 17.0249 20.1713 19.6135 18.8601L21.4056 17.9524L21.2064 15.9353C21.2064 15.431 21.1069 15.0276 21.1069 14.5233C21.1069 6.4548 27.5783 0 35.4436 0C43.4085 0 49.7804 6.55566 49.7804 14.5233C49.7804 15.7336 49.5813 16.9439 49.3821 18.0533L48.8843 19.9696L50.4773 21.1798C51.5725 21.9867 52.6676 22.9952 53.5637 24.0038C58.5417 29.3492 61.2299 36.8126 61.2299 45.0828L61.2299 48.6127L59.7365 48.411L59.5373 51.7393C59.1391 59.2027 55.3558 66.1618 49.3821 70.8011L45.3001 73.9277L49.9795 75.9448C60.9312 80.6851 68 90.2664 68 100.352L67.8009 106L0.497804 106"/>
	<path fill="#49362C" d="M24.0937 14.1199C24.0937 20.4739 29.1713 25.6174 35.4436 25.6174C41.716 25.6174 46.7936 20.4739 46.7936 14.1199C46.7936 7.76592 41.716 2.62225 35.4436 2.62225C29.1713 2.62225 24.0937 7.76592 24.0937 14.1199"/>
	<path fill="#2D1B0A" d="M35.4436 27.1303C28.3748 27.1303 22.6003 21.2807 22.6003 14.1199C22.6003 6.95907 28.3748 1.1094 35.4436 1.1094C42.5125 1.1094 48.287 6.95907 48.287 14.1199C48.287 21.2807 42.612 27.1303 35.4436 27.1303M35.4436 4.13509C29.9678 4.13509 25.5871 8.67362 25.5871 14.1199C25.5871 19.5661 30.0674 24.1046 35.4436 24.1046C40.9195 24.1046 45.3002 19.5661 45.3002 14.1199C45.3002 8.67362 40.9195 4.13509 35.4436 4.13509"/>
	<path fill="#49362C" d="M33.7511 20.0704C33.7511 20.0704 33.7511 11.5985 45.1011 9.1779"/>
	<path fill="#2D1B0A" d="M32.2577 20.0704C32.2577 19.9695 32.2577 10.2873 44.8024 7.66505L45.3997 10.5899C35.3441 12.7079 35.2445 19.7679 35.2445 20.0704L32.2577 20.0704"/>
	<path fill="#49362C" d="M37.0366 13.0105C37.0366 13.0105 33.552 5.64799 25.7862 8.67368"/>
	<path fill="#2D1B0A" d="M35.7423 13.7165C35.4436 13.1114 32.6559 7.76597 26.284 10.0857L25.2884 7.26169C32.4568 4.53857 37.0366 9.48053 38.4304 12.4054L35.7423 13.7165"/>
	<path fill="#2D1B0A" d="M0.99561 45.7888C0.99561 49.6214 4.08199 52.8488 7.96486 52.8488C11.8477 52.8488 14.9341 49.7222 14.9341 45.7888C14.9341 41.9563 11.8477 38.7289 7.96486 38.7289C4.08199 38.7289 0.99561 41.8554 0.99561 45.7888"/>
	<path fill="#89C5E5" d="M16.3279 103.479L3.385 103.479L3.385 100.049C3.385 86.5348 17.2239 75.4406 34.2488 75.4406C51.2737 75.4406 65.1127 86.4339 65.1127 100.049L65.0131 103.479L16.3279 103.479"/>
	<path fill="#2D1B0A" d="M66.0087 104.487L2.3894 104.487L2.3894 100.049C2.3894 85.9296 16.7261 74.432 34.2488 74.432C51.8711 74.432 66.1083 85.9296 66.1083 100.049L66.0087 104.487M4.38062 102.47L64.0175 102.47L64.1171 100.049C64.1171 87.1399 50.6764 76.55 34.2488 76.55C17.7218 76.55 4.38062 87.1399 4.38062 100.15L4.38062 102.47"/>
	<path fill="#FFE7DC" d="M37.9327 70.7004L28.1757 70.7004L28.1757 79.9792C28.1757 79.9792 28.1757 88.8545 33.0542 88.8545C37.9327 88.8545 37.9327 79.9792 37.9327 79.9792L37.9327 70.7004"/>
	<path fill="#2D1B0A" d="M33.0542 89.7622C27.1801 89.7622 27.1801 80.2817 27.1801 79.8782L27.1801 69.5909L38.9283 69.5909L38.9283 79.8782C38.9283 80.3825 38.9283 89.7622 33.0542 89.7622M29.1713 71.7089L29.1713 79.9791C29.1713 80.08 29.2709 87.8459 33.0542 87.8459C36.8375 87.8459 36.937 80.08 36.937 79.9791L36.937 71.7089L29.1713 71.7089"/>
	<path fill="#FFFAF8" d="M25.3881 92.5861L23.7951 77.7602L28.6736 76.1465L33.552 87.6441L25.3881 92.5861"/>
	<path fill="#2D1B0A" d="M24.0938 95.1076L22.1026 76.7517L29.4701 74.2303L35.4436 88.2493L24.0938 95.1076M25.3881 78.7688L26.5828 90.0647L31.5608 87.0391L27.7775 77.962L25.3881 78.7688"/>
	<path fill="#FFFAF8" d="M41.6164 92.5861L43.2094 77.7602L38.3309 76.1465L33.4524 87.6441L41.6164 92.5861"/>
	<path fill="#2D1B0A" d="M42.8111 95.1076L31.5607 88.2493L37.5344 74.2303L44.9018 76.7517L42.8111 95.1076M35.3441 87.0391L40.3221 90.0647L41.5168 78.7688L39.1274 77.962L35.3441 87.0391"/>
	<path fill="#FFE7DC" d="M56.6501 39.5861L56.7497 49.9743C56.7497 62.6821 46.1963 72.9695 33.1538 72.9695C20.1113 72.9695 9.5579 62.6821 9.5579 49.9743L9.5579 39.5861C9.5579 39.5861 10.6531 19.4147 33.3529 19.4147C56.0528 19.5156 56.6501 39.5861 56.6501 39.5861"/>
	<path fill="#2D1B0A" d="M33.0542 73.9277C19.5139 73.9277 8.4627 63.1361 8.4627 49.9239L8.4627 39.5357C8.4627 39.334 9.85655 18.4567 33.2533 18.4567C56.7497 18.4567 57.6457 39.334 57.6457 39.5357L57.7453 49.9239C57.7453 63.1361 46.694 73.9277 33.0542 73.9277M33.2533 20.4738C11.7482 20.4738 10.5535 38.8297 10.5535 39.6365L10.4539 49.9239C10.4539 62.0266 20.6091 71.9106 33.0542 71.9106C45.4993 71.9106 55.6545 62.0266 55.6545 49.9239L55.5549 39.5357C55.5549 38.628 54.6589 20.4738 33.2533 20.4738"/>
	<path fill="#49362C" d="M58.3426 44.6794C58.3426 29.3492 48.287 18.255 33.2533 18.255C18.2196 18.255 8.164 29.4501 8.164 44.6794C8.164 44.6794 38.4305 43.6708 44.7028 34.0894C52.0703 43.6708 58.3426 44.6794 58.3426 44.6794"/>
	<path fill="#2D1B0A" d="M59.836 46.4948L58.1435 46.1922C57.8448 46.1922 51.8712 45.0828 44.8024 36.51C36.3397 45.1837 9.4583 46.1922 8.26357 46.1922L6.6706 46.2931L6.6706 44.6794C6.6706 28.2398 17.6223 16.7422 33.2533 16.7422C48.8844 16.7422 59.836 28.2398 59.836 44.6794L59.836 46.4948M33.2533 19.7679C19.9122 19.7679 10.3544 29.2484 9.65742 43.1666C18.817 42.6623 38.9283 40.1409 43.5081 33.2826L44.7028 31.5681L45.9971 33.1818C50.4773 39.0314 54.5593 41.5529 56.8492 42.5614C55.8536 29.0467 46.4949 19.7679 33.2533 19.7679"/>
	<path fill="#2D1B0A" d="M33.6346 67.9771C30.1499 67.9771 27.5614 67.1703 26.0679 65.4557C24.475 63.6403 24.708 61.6232 24.708 61.5223L26.7649 61.8249C26.7649 61.9258 26.6653 63.0352 27.6609 64.1446C28.8556 65.4557 31.2451 66.0609 34.5306 65.96C40.7034 65.7583 41.3008 61.4215 41.3008 61.4215L43.292 61.6232C43.292 61.724 42.4954 67.5737 34.6302 67.9771C34.3315 67.8763 33.9333 67.9771 33.6346 67.9771"/>
	<path fill="#2D1B0A" d="M31.7598 65.96C29.669 65.96 27.8769 66.9686 27.18 68.2797C15.5314 67.2712 6.57092 60.7155 6.57092 52.7479C6.57092 52.2436 6.17268 51.941 5.77444 51.941C5.27663 51.941 4.97795 52.3444 4.97795 52.7479C4.97795 57.3872 7.66609 61.8249 12.445 65.0523C16.4275 67.7754 21.5051 69.3891 26.8814 69.8934C27.18 71.4063 29.1712 70.7003 31.7598 70.7003C34.4479 70.7003 36.6382 71.5071 36.6382 69.49C36.6382 67.5737 34.4479 65.96 31.7598 65.96"/>
	<path fill="#FFE7DC" d="M18.6179 51.6384C18.6179 51.6384 19.713 47.2007 22.1025 47.2007C24.4919 47.2007 24.8902 51.7393 24.8902 51.7393"/>
	<path fill="#2D1B0A" d="M19.6135 51.941L17.7218 51.4367C17.7218 50.9324 19.1157 46.293 22.202 46.293C25.388 46.293 25.8858 51.235 25.8858 51.7393L23.8946 51.941C23.795 50.8316 23.1976 48.3102 22.1025 48.3102C20.9077 48.2093 19.9121 50.7307 19.6135 51.941"/>
	<path fill="#2D1B0A" d="M43.1098 50.9325L41.2181 50.4282C41.2181 49.9239 42.612 45.2845 45.6983 45.2845C48.8843 45.2845 49.3821 50.2265 49.3821 50.7308L47.3909 50.9325C47.2913 49.8231 46.694 47.3017 45.5988 47.3017C44.5036 47.2008 43.4084 49.7222 43.1098 50.9325"/>
</svg>
