<?xml version="1.0" encoding="utf-8" ?>
<svg xmlns="http://www.w3.org/2000/svg" xmlns:xlink="http://www.w3.org/1999/xlink" width="76" height="90">
	<path fill="white" d="M12.6162 90C5.65206 90 0 84.3938 0 77.4861L0 39.0434C0 32.6363 5.04648 27.2303 11.405 26.6296L13.2218 26.4294L13.2218 23.9266C13.2218 10.7119 24.0212 0 37.344 0C50.6667 0 61.4661 10.7119 61.4661 23.9266L61.4661 26.5295L63.4847 26.5295C70.3479 26.6296 76 32.2358 76 39.0434L76 77.4861C76 84.3938 70.3479 90 63.3838 90L12.6162 90M37.344 6.00667C27.3519 6.00667 19.2776 14.0156 19.2776 23.9266L19.2776 26.5295L55.3094 26.5295L55.3094 23.9266C55.3094 14.0156 47.2351 6.00667 37.344 6.00667"/>
	<path fill="#2D1B0A" d="M59.3466 31.8354L57.328 31.8354L57.328 23.6264C57.328 12.614 48.3452 3.70417 37.243 3.70417C26.1407 3.70417 17.158 12.614 17.158 23.6264L17.158 31.8354L15.1394 31.8354L15.1394 23.6264C15.1394 11.5128 25.0305 1.70195 37.243 1.70195C49.4555 1.70195 59.3466 11.5128 59.3466 23.6264L59.3466 31.8354"/>
	<path fill="#3E4D70" d="M63.7875 86.0956L12.0106 86.0956C7.26693 86.0956 3.4316 82.2914 3.4316 77.5862L3.4316 38.2425C3.4316 33.5372 7.26693 29.733 12.0106 29.733L63.7875 29.733C68.5312 29.733 72.3665 33.5372 72.3665 38.2425L72.3665 77.5862C72.3665 82.2914 68.5312 86.0956 63.7875 86.0956"/>
	<path fill="#2D1B0A" d="M63.7876 87.0967L12.0107 87.0967C6.76237 87.0967 2.4224 82.792 2.4224 77.5862L2.4224 38.2425C2.4224 33.0367 6.76237 28.7319 12.0107 28.7319L63.7876 28.7319C69.0359 28.7319 73.3759 33.0367 73.3759 38.2425L73.3759 77.5862C73.3759 82.792 69.1369 87.0967 63.7876 87.0967M12.0107 30.7341C7.8726 30.7341 4.44099 34.1379 4.44099 38.2425L4.44099 77.5862C4.44099 81.6907 7.8726 85.0945 12.0107 85.0945L63.7876 85.0945C67.9257 85.0945 71.3573 81.6907 71.3573 77.5862L71.3573 38.2425C71.3573 34.1379 67.9257 30.7341 63.7876 30.7341L12.0107 30.7341"/>
	<path fill="white" d="M38 71.2792C35.6786 71.2792 33.761 69.3771 33.761 67.0744L33.761 58.6652C31.5405 57.2636 30.2284 54.861 30.2284 52.1579C30.2284 47.8531 33.761 44.4494 38 44.4494C42.34 44.4494 45.7716 47.8531 45.7716 52.0578C45.7716 54.6607 44.4595 57.0634 42.239 58.5651L42.239 67.0744C42.239 69.4771 40.3214 71.2792 38 71.2792"/>
	<path fill="#2D1B0A" d="M38 45.951C41.5326 45.951 44.2577 48.7542 44.2577 52.0578C44.2577 54.3604 43.0465 56.2625 41.1288 57.4638C40.8261 57.6641 40.7251 57.8643 40.7251 58.2647L40.7251 67.0745C40.7251 68.5762 39.514 69.7775 38 69.7775C36.4861 69.7775 35.2749 68.5762 35.2749 67.0745L35.2749 58.3648C35.2749 58.0645 35.0731 57.7642 34.8712 57.5639C32.8526 56.4627 31.7424 54.4605 31.7424 52.1579C31.7424 48.7542 34.4675 45.951 38 45.951M38 42.9477C32.8526 42.9477 28.7145 47.0523 28.7145 52.1579C28.7145 55.0612 30.0266 57.6641 32.247 59.4661L32.247 67.0745C32.247 70.178 34.7703 72.7808 38 72.7808C41.2298 72.7808 43.753 70.2781 43.753 67.0745L43.753 59.3659C45.9735 57.5639 47.2855 54.961 47.2855 52.1579C47.2855 47.0523 43.1474 42.9477 38 42.9477"/>
</svg>
