<?xml version="1.0" encoding="utf-8" ?>
<svg xmlns="http://www.w3.org/2000/svg" xmlns:xlink="http://www.w3.org/1999/xlink" width="96" height="94">
	<path fill="white" d="M32.1802 94C22.4853 94 13.8898 87.7801 10.8914 78.4504L1.09648 48.1537C-1.90195 38.8239 1.39633 28.7919 9.19225 22.9733L34.7789 4.31377C38.6768 1.5048 43.1745 0 48 0C52.7695 0 57.2671 1.5048 61.1651 4.31377L86.7517 22.9733C94.6476 28.6916 97.9458 38.8239 94.8475 48.1537L85.0526 78.4504C82.0541 87.7801 73.4586 94 63.7637 94L32.1802 94"/>
	<path fill="#2D1B0A" d="M63.6637 91.9436L31.9804 91.9436C23.085 91.9436 15.2891 86.2253 12.5904 77.7983L2.79559 47.5016C0.097 39.0747 2.99549 29.8454 10.1917 24.6287L35.8783 5.96914C43.0746 0.75249 52.6696 0.75249 59.8657 5.96914L85.5524 24.6287C92.7486 29.8454 95.7469 39.0747 92.9484 47.5016L83.1535 77.7983C80.355 86.2253 72.5592 91.9436 63.6637 91.9436M36.9777 7.47394L11.2912 26.1334C4.79455 30.8486 2.09596 39.1751 4.59465 46.7994L14.3896 77.0961C16.8883 84.7205 23.8846 89.8367 31.8804 89.8367L63.5639 89.8367C71.5597 89.8367 78.556 84.7205 81.0546 77.0961L90.8495 46.7994C93.3483 39.1751 90.6497 30.8486 84.1531 26.1334L58.4664 7.47394C52.1698 2.75889 43.4743 2.75889 36.9777 7.47394"/>
	<path fill="#99CC62" d="M72.4592 52.0662C71.1599 51.063 69.8605 50.1601 68.4613 49.3575C69.3607 48.9203 70.1604 48.3543 71.0599 47.7524C79.4556 41.9338 83.2535 32.905 79.5555 27.5881C75.8574 22.2711 66.1625 22.5721 57.7668 28.3906C56.1676 29.4941 54.6684 30.7983 53.3691 32.2028C53.1693 30.4973 52.7695 28.7919 52.1698 27.0865C49.0714 17.3554 41.4753 11.1356 35.3786 13.142C29.2817 15.1484 26.7831 24.6788 29.9813 34.3095C30.5811 36.015 31.2807 37.7204 32.1803 39.3255C31.1808 39.2252 30.1813 39.2252 29.1818 39.2252C18.9871 39.3255 10.8905 44.6425 10.8905 51.1633C10.9913 57.6841 19.187 62.8004 29.3816 62.7001C30.5811 62.7001 31.8804 62.5998 33.0798 62.3992C32.9799 62.8004 32.7799 63.302 32.68 63.7033C29.7815 73.4344 32.48 82.8645 38.6768 84.7706C44.8736 86.5763 52.1698 80.1558 55.0682 70.4248C55.2682 69.7225 55.468 69.0203 55.568 68.3181C56.2677 69.0203 56.9673 69.6222 57.6669 70.2241C65.5628 76.6446 75.2577 77.7481 79.3556 72.7321C83.4535 67.7161 80.355 58.4867 72.4592 52.0662"/>
	<path fill="#2D1B0A" d="M40.8756 86.0747C40.076 86.0747 39.1765 85.9744 38.3769 85.6734C31.6804 83.667 28.682 73.8356 31.6804 63.603C30.8808 63.7033 30.1812 63.7033 29.3816 63.7033C24.2843 63.7033 19.4868 62.4994 15.7887 60.1921C11.9907 57.7844 9.8918 54.5741 9.8918 51.0629C9.8918 47.5517 11.8908 44.3415 15.6888 41.8335C19.2869 39.5261 24.0844 38.1216 29.1817 38.1216C29.5815 38.1216 30.0812 38.1216 30.481 38.1216C29.8813 36.9178 29.4816 35.714 29.0818 34.5101C27.4826 29.6947 27.1828 24.6787 28.2822 20.4653C29.3816 16.1515 31.7804 13.1419 35.1786 12.0384C38.4769 10.9349 42.1749 11.9381 45.6731 14.747C48.9714 17.4557 51.67 21.6691 53.2691 26.5848C53.6689 27.6883 53.8688 28.7919 54.1686 29.8954C55.1681 28.9925 56.2675 28.0896 57.367 27.3874C61.5648 24.4781 66.2623 22.7726 70.5601 22.6723C75.0577 22.4717 78.5559 23.9765 80.5548 26.8858C82.5538 29.7951 82.6538 33.6072 80.9546 37.7204C79.2555 41.7332 76.0572 45.445 71.8594 48.3543C71.4596 48.6553 71.0598 48.837 70.66 49.1569C71.5596 49.7588 72.4591 50.3607 73.3586 51.0629C81.6543 57.7844 84.8526 67.8164 80.355 73.2337C78.1561 75.9423 74.558 77.1462 70.0603 76.6446C65.7626 76.143 61.2649 74.1366 57.267 70.826C56.9672 70.5251 56.6673 70.3244 56.3675 70.0234C56.3675 70.2241 56.2675 70.3244 56.2675 70.4247C54.8683 75.3404 52.2696 79.6542 48.9714 82.4632C46.1441 84.9712 43.4742 86.0747 40.8756 86.0747M34.5789 61.1953L34.0792 62.7001C33.8793 63.2017 33.7793 63.603 33.6794 63.9039C30.9808 73.1334 33.3795 81.9615 38.9766 83.667C41.6752 84.4696 44.6736 83.5667 47.4721 81.0587C50.4706 78.4503 52.7694 74.5379 54.1686 70.0234C54.3685 69.3212 54.5684 68.7193 54.6684 68.017L55.0682 66.2113L56.3675 67.5154C56.9672 68.2177 57.6668 68.8196 58.4664 69.4215C62.1645 72.4311 66.2623 74.3372 70.1603 74.7385C73.8584 75.1398 76.9567 74.2369 78.6558 72.0299C82.3965 67.4151 79.3555 58.7876 71.8594 52.6681C70.66 51.6649 69.3607 50.762 67.9614 50.0597L66.3623 49.1569L67.9614 48.254C68.761 47.7524 69.6605 47.2508 70.4601 46.7492C74.3581 44.0405 77.3565 40.5293 78.8557 36.9178C80.355 33.4066 80.255 30.2967 78.6558 27.9893C77.0567 25.6819 74.1582 24.4781 70.3602 24.6787C66.4622 24.7791 62.1645 26.3842 58.2665 29.0928C56.7673 30.1963 55.2681 31.4002 53.9688 32.7043L52.5695 34.2091L52.2696 32.1024C52.0697 30.397 51.67 28.7919 51.1702 27.1867C49.671 22.6723 47.2723 18.8602 44.1739 16.3522C41.2754 13.9445 38.177 13.1419 35.5784 13.9445C32.9797 14.8474 30.9808 17.255 30.0812 20.9669C29.0818 24.7791 29.3816 29.3938 30.8808 33.9082C31.3806 35.6136 32.1801 37.2188 32.9797 38.7236L33.8793 40.429L31.9802 40.2284C30.9808 40.128 30.0812 40.128 29.0818 40.128C24.3842 40.128 19.9865 41.3319 16.6883 43.5389C13.4899 45.5453 11.7908 48.254 11.7908 51.0629C11.7908 53.8719 13.5899 56.4802 16.7882 58.4866C20.0865 60.5934 24.5841 61.6969 29.2817 61.6969C30.481 61.6969 31.6804 61.5966 32.8798 61.3959L34.5789 61.1953"/>
	<path fill="#BAE089" d="M62.8642 59.1891C62.4644 58.0856 61.9647 56.982 61.365 55.8785C62.0646 55.8785 62.8642 55.8785 63.5638 55.8785C71.1599 55.2766 76.9568 50.9628 76.6681 46.1475C76.3572 41.3321 69.8606 37.8209 62.3645 38.4228C60.9652 38.5231 59.466 38.8241 58.0667 39.2254C58.5665 38.0215 58.9663 36.8177 59.2661 35.5135C60.8653 28.0898 58.3666 21.268 53.669 20.1645C48.9715 19.1613 43.8741 24.2777 42.175 31.7013C41.8752 33.0055 41.6753 34.41 41.6753 35.8145C41.0756 35.4132 40.4759 34.9116 39.7763 34.6106C33.1797 30.7985 25.9835 31.0994 23.5848 35.3129C21.186 39.5263 24.5842 45.9468 31.0808 49.759C31.8804 50.2606 32.68 50.6619 33.5795 50.9628C33.2797 51.1635 33.0798 51.3641 32.7799 51.6651C27.2828 56.8817 25.4838 63.9041 28.782 67.4153C32.0803 70.9265 39.1766 69.6224 44.7737 64.4057C45.1735 64.0044 45.5733 63.6032 45.8731 63.3022C46.073 64.0044 46.2729 64.7067 46.4728 65.3086C49.1714 72.4313 54.9683 76.8454 59.466 75.14C64.0636 73.4345 65.5628 66.3118 62.8642 59.1891"/>
	<path fill="#2D1B0A" d="M57.477 76.5443C55.5774 76.5443 53.6779 75.8421 51.7784 74.3373C49.179 72.3309 46.9795 69.3212 45.6798 65.7097C45.5799 65.5091 45.5799 65.4088 45.4799 65.2081C39.5813 70.7257 31.7832 72.0299 28.0841 68.1174C24.485 64.3052 26.1846 56.7812 31.7832 51.2636C31.3833 51.063 30.9834 50.8623 30.5835 50.6617C23.5852 46.6489 19.9861 39.5262 22.6854 34.8111C23.9851 32.5037 26.6845 31.0993 30.0836 30.9989C33.3828 30.8986 36.982 31.8015 40.2811 33.8079C40.4811 33.9082 40.5811 34.0085 40.781 34.1089C40.881 33.3063 40.981 32.4034 41.1809 31.6009C42.8805 23.6756 48.5791 18.158 53.7779 19.2615C58.9766 20.365 61.8759 27.7887 60.0763 35.8143C59.8764 36.5166 59.7764 37.2188 59.4765 37.921C60.3763 37.7204 61.1761 37.6201 62.0759 37.6201C65.8749 37.3191 69.574 38.0214 72.4733 39.6265C75.4726 41.2316 77.2722 43.6393 77.4909 46.3479C77.6721 49.0566 76.2724 51.6649 73.4731 53.6713C70.8737 55.5774 67.2746 56.8815 63.4755 57.0822C63.2756 57.0822 63.0756 57.0822 62.7757 57.0822C63.0756 57.6841 63.3755 58.3863 63.5755 58.9883C64.8752 62.5998 65.2751 66.412 64.5753 69.5219C63.8754 72.9328 62.0759 75.2401 59.5765 76.2433C59.0766 76.3437 58.2768 76.5443 57.477 76.5443M46.4796 61.1953L46.9795 63.0011C47.1795 63.7033 47.3794 64.3052 47.5794 64.9072C48.7791 68.2177 50.7786 70.9264 53.078 72.6318C55.2775 74.2369 57.477 74.8389 59.2765 74.1366C61.1761 73.4344 62.4758 71.6286 62.9756 68.92C63.5755 66.111 63.2756 62.7001 61.9759 59.4899C61.576 58.3863 61.0761 57.3831 60.4762 56.3799L59.5765 54.7748L61.376 54.8751C62.1758 54.8751 62.8757 54.8751 63.4755 54.8751C66.9747 54.5742 70.1739 53.571 72.4733 51.7652C74.6728 50.1601 75.7725 48.1537 75.6726 46.1473C75.5726 44.1409 74.1729 42.3351 71.7735 41.031C69.2741 39.6265 65.9749 39.0246 62.4758 39.3255C61.0761 39.4258 59.7764 39.6265 58.3768 40.0278L56.3772 40.6297L57.177 38.7236C57.6769 37.6201 58.0768 36.4162 58.2768 35.2124C59.7764 28.2903 57.577 21.9701 53.4779 21.0672C49.279 20.1644 44.6801 24.9797 43.1804 31.9018C42.8805 33.206 42.7805 34.5101 42.6806 35.8143L42.6806 37.7204L41.1809 36.6169C40.5811 36.2156 39.9812 35.8143 39.3814 35.413C36.3821 33.7076 33.0829 32.8047 30.2836 32.905C27.5842 33.0053 25.4847 34.0085 24.585 35.714C22.4855 39.4258 25.6847 45.2444 31.7832 48.7556C32.583 49.1569 33.3828 49.5582 34.1826 49.9595L35.6823 50.5614L34.4826 51.6649C34.1826 51.8655 33.9827 52.0662 33.7827 52.2668C28.684 57.0822 26.8844 63.5027 29.7837 66.6126C32.683 69.7225 39.1814 68.318 44.3802 63.5027C44.7801 63.1014 45.08 62.8004 45.4799 62.3992L46.4796 61.1953"/>
</svg>
