<?xml version="1.0" encoding="utf-8" ?>
<svg xmlns="http://www.w3.org/2000/svg" xmlns:xlink="http://www.w3.org/1999/xlink" width="68" height="90">
	<path fill="white" d="M0.204204 90L0 83.5208C0 78.5602 1.73574 73.7008 4.9009 69.4488L5.71772 68.3352L5.41141 67.0191C4.9009 64.5894 4.59459 62.0585 4.59459 59.3251L4.39039 39.0776C4.39039 26.4229 7.04505 16.6029 12.1502 9.71879C16.9489 3.34083 23.7898 0 31.8559 0L36.6547 0C44.7207 0 51.4595 3.34083 56.1562 9.82002C61.1592 16.6029 63.7117 26.5242 63.7117 39.0776L63.9159 59.3251C63.9159 62.1597 63.6096 64.9944 62.997 67.5253L62.6907 68.8414L63.5075 69.955C66.4685 74.1057 68 78.7627 68 83.5208L67.7958 89.8988L0.204204 89.8988"/>
	<path fill="white" d="M26.1381 45.4556L42.2702 45.4556L42.2702 56.0854L26.1381 56.0854L26.1381 45.4556"/>
	<path fill="#6D4225" d="M51.1012 77.8008L17.2033 77.8008C11.894 77.8008 7.5036 69.6006 7.5036 59.4769L7.2994 39.2295C7.2994 13.9202 18.3264 3.18895 31.7018 3.18895L36.5006 3.18895C49.876 3.18895 60.4946 13.9202 60.4946 39.2295L60.7005 59.4769C60.8009 69.6006 56.4105 77.8008 51.1012 77.8008"/>
	<path fill="#2D1B0A" d="M51.1018 78.7626L17.2029 78.7626C11.1787 78.7626 6.48191 70.2587 6.48191 59.4263L6.2777 39.2801C6.2777 16.0967 15.7735 2.2272 31.7018 2.2272L36.5008 2.2272C52.225 2.2272 61.5165 16.0967 61.5165 39.2801L61.7224 59.4263C61.8228 70.2587 57.126 78.7626 51.1018 78.7626M31.7018 4.15071C17.1008 4.15071 8.3198 17.2103 8.3198 39.1788L8.52401 59.3251C8.52401 68.7401 12.5061 76.6366 17.2029 76.6366L51.1018 76.6366C55.7986 76.6366 59.7807 68.7401 59.7807 59.3251L59.5765 39.1788C59.5765 16.9066 51.2039 4.15071 36.6029 4.15071L31.7018 4.15071"/>
	<path fill="#E63B56" d="M15.9279 86.9628L2.8588 86.9628L2.8588 83.622C2.8588 70.2587 16.7447 59.5275 33.8978 59.5275C51.051 59.5275 64.9369 70.3599 64.9369 83.622L64.8348 86.9628L15.9279 86.9628"/>
	<path fill="#2D1B0A" d="M65.7536 87.9751L1.8377 87.9751L1.8377 83.6219C1.8377 69.7524 16.2341 58.4138 33.8978 58.4138C51.5614 58.4138 65.9578 69.6511 65.9578 83.5207L65.7536 87.9751M3.98184 85.9504L63.8137 85.9504L63.9158 83.5207C63.9158 70.7648 50.4383 60.4385 33.8978 60.4385C17.3572 60.4385 3.87974 70.7648 3.87974 83.5207L3.98184 85.9504"/>
	<path fill="#FFE7DC" d="M21.6456 38.1665C21.6456 41.1857 19.1771 43.6333 16.1321 43.6333C13.0871 43.6333 10.6186 41.1857 10.6186 38.1665C10.6186 35.1472 13.0871 32.6997 16.1321 32.6997C19.1771 32.6997 21.6456 35.1472 21.6456 38.1665"/>
	<path fill="#2D1B0A" d="M16.1321 44.6457C12.5585 44.6457 9.59755 41.7098 9.59755 38.1665C9.59755 34.6232 12.5585 31.6873 16.1321 31.6873C19.7057 31.6873 22.6667 34.6232 22.6667 38.1665C22.6667 41.7098 19.8078 44.6457 16.1321 44.6457M16.1321 33.6108C13.6816 33.6108 11.6396 35.6356 11.6396 38.0653C11.6396 40.4949 13.6816 42.5197 16.1321 42.5197C18.5825 42.5197 20.6245 40.4949 20.6245 38.0653C20.6245 35.6356 18.6846 33.6108 16.1321 33.6108"/>
	<path fill="#FFE7DC" d="M56.6667 37.6603C56.6667 40.6795 54.1982 43.1271 51.1532 43.1271C48.1081 43.1271 45.6397 40.6795 45.6397 37.6603C45.6397 34.641 48.1081 32.1935 51.1532 32.1935C54.1982 32.1935 56.6667 34.641 56.6667 37.6603"/>
	<path fill="#2D1B0A" d="M51.1532 44.1395C47.5796 44.1395 44.6186 41.2036 44.6186 37.6603C44.6186 34.117 47.5796 31.1811 51.1532 31.1811C54.7267 31.1811 57.6877 34.117 57.6877 37.6603C57.6877 41.2036 54.7267 44.1395 51.1532 44.1395M51.1532 33.2059C48.7027 33.2059 46.6607 35.2306 46.6607 37.6603C46.6607 40.09 48.7027 42.1147 51.1532 42.1147C53.6036 42.1147 55.6456 40.09 55.6456 37.6603C55.6456 35.2306 53.6036 33.2059 51.1532 33.2059"/>
	<path fill="#FFE7DC" d="M38.0841 60.793L38.1862 55.1237C46.048 53.5039 52.0721 43.9876 52.0721 32.2441C52.0721 25.6637 47.0691 20.2981 40.8408 20.2981L26.5465 20.2981C20.3183 20.2981 15.3153 25.6637 15.3153 32.2441C15.3153 43.1777 20.6246 52.2891 27.7718 54.7188L27.7718 60.4893C21.7477 61.2992 17.5616 65.045 17.5616 67.2722C17.5616 70.2081 24.8108 72.5367 33.6937 72.5367C42.5766 72.5367 49.8258 70.2081 49.8258 67.2722C49.8258 64.8425 44.8228 61.4006 38.0841 60.793"/>
	<path fill="#2D1B0A" d="M33.7958 73.4983C25.3213 73.4983 16.6427 71.3723 16.6427 67.2216C16.6427 64.4882 21.033 60.6411 26.8529 59.6288L26.8529 55.478C19.5015 52.5421 14.3964 43.1271 14.3964 32.2947C14.3964 25.1068 19.9099 19.3363 26.6487 19.3363L40.9429 19.3363C47.6817 19.3363 53.1952 25.2081 53.1952 32.2947C53.1952 44.0382 47.3754 53.8582 39.3093 55.9842L39.2072 59.9325C45.5375 60.7424 50.949 64.0832 50.949 67.3228C50.8469 71.3723 42.2703 73.4983 33.7958 73.4983M26.6487 21.2598C21.033 21.2598 16.4384 26.2204 16.4384 32.1934C16.4384 42.5197 21.2372 51.4285 28.1802 53.757L28.8949 61.3498C22.2583 62.1597 18.6847 65.6018 18.6847 67.2216C18.6847 68.9426 24.6066 71.4735 33.7958 71.4735C42.985 71.4735 48.9069 68.9426 48.9069 67.2216C48.9069 65.703 44.7207 62.3622 38.0841 61.7547L37.3694 54.2632C45.6396 52.5421 51.2553 43.1271 51.2553 32.1934C51.2553 26.1192 46.6607 21.2598 41.045 21.2598L26.6487 21.2598"/>
	<path fill="white" d="M20.6246 62.261L33.2852 72.1822L26.955 75.928L12.1502 66.3104"/>
	<path fill="#2D1B0A" d="M26.9549 77.1429L10.1081 66.2092L20.7267 61.1474L35.1231 72.2834L26.9549 77.1429M14.1922 66.5129L26.9549 74.7132L31.4474 71.9798L20.4204 63.4758L14.1922 66.5129"/>
	<path fill="white" d="M46.1502 62.0585L33.3874 71.8785L39.7178 75.7255L54.5225 66.1079"/>
	<path fill="#2D1B0A" d="M39.8199 76.9404L31.6517 72.0809L46.0481 60.9449L56.6667 66.0067L39.8199 76.9404M35.2253 71.7773L39.7178 74.5107L52.4805 66.3104L46.2523 63.3745L35.2253 71.7773"/>
	<path fill="#2D1B0A" d="M29.916 35.3318C29.916 35.3318 28.4865 37.3565 26.7508 37.3565C25.0151 37.3565 23.5856 35.3318 23.5856 35.3318C23.5856 35.3318 25.0151 33.3071 26.7508 33.3071C28.4865 33.3071 29.916 35.3318 29.916 35.3318"/>
	<path fill="#2D1B0A" d="M45.5376 35.3318C45.5376 35.3318 44.1081 37.3565 42.3724 37.3565C40.6367 37.3565 39.2072 35.3318 39.2072 35.3318C39.2072 35.3318 40.6367 33.3071 42.3724 33.3071C44.1081 33.3071 45.5376 35.3318 45.5376 35.3318"/>
	<path fill="#2D1B0A" d="M34.1021 50.315C30.5285 50.315 29.5075 48.0878 29.5075 47.9865L31.3453 47.1766C31.3453 47.1766 31.958 48.3915 34.4084 48.2903C36.7567 48.189 37.1652 47.1766 37.1652 47.0754L39.1051 47.6828C39.003 47.8853 38.2883 50.1125 34.4084 50.315C34.4084 50.315 34.2042 50.315 34.1021 50.315"/>
	<path fill="#6D4225" d="M42.8966 13.2621C42.8966 13.2621 43.4954 28.3465 36.5526 29.2576C29.6096 30.1688 14.3963 28.8527 14.3963 28.8527C14.3963 28.8527 15.3153 14.8819 24.3003 11.7436C33.1832 8.50396 42.8966 13.2621 42.8966 13.2621"/>
	<path fill="#6D4225" d="M42.6787 12.1486L41.964 27.233C41.964 27.233 49.9279 28.0429 52.8889 29.3589C52.991 29.3589 55.7477 18.9314 42.6787 12.1486"/>
</svg>
