<?xml version="1.0" encoding="utf-8" ?>
<svg xmlns="http://www.w3.org/2000/svg" xmlns:xlink="http://www.w3.org/1999/xlink" width="68" height="88">
	<path fill="white" d="M0.20208 88L0 81.5115C0 71.4747 6.87073 62.2488 17.8841 57.3825L21.2184 55.8618L19.0966 52.8203C18.6924 52.212 18.2883 51.5023 17.8841 50.7926L17.0758 49.2719L15.3581 49.1705C10.9123 48.8664 7.57801 44.4055 7.57801 38.9309C7.57801 36.1935 8.38633 33.659 9.90193 31.7327L10.7103 30.7189L9.49777 20.2765C9.49777 15.2074 12.4279 10.6452 16.6716 9.02304L17.9851 8.00922C20.0059 5.17051 23.1382 3.54839 26.3715 3.54839L36.0713 4.46083L42.74 3.447C43.6493 2.73733 43.9525 2.43318 44.2556 2.23041C45.4681 1.21659 46.8826 0 49.0045 0L50.7221 0.101382L51.5305 1.41935C51.8336 1.92627 60.1189 14.8018 55.5721 28.7926L55.0669 30.212L55.9762 31.4286C57.2897 33.2535 57.997 35.6866 57.997 38.2212C57.997 42.8848 55.5721 46.8387 52.0357 48.0553L50.8232 48.4608L50.318 49.6774C49.8128 50.6912 49.3076 51.7051 48.7013 52.7189L46.7816 55.7604L50.0149 57.1797C61.1293 62.0461 68 71.2719 68 81.4101L67.7979 87.8986L0.20208 87.8986"/>
	<path fill="#FFE7DC" d="M21.2184 38.8295C21.2184 42.8049 18.866 46.0276 15.9643 46.0276C13.0625 46.0276 10.7102 42.8049 10.7102 38.8295C10.7102 34.854 13.0625 31.6313 15.9643 31.6313C18.866 31.6313 21.2184 34.854 21.2184 38.8295"/>
	<path fill="#2D1B0A" d="M15.9643 47.0415C12.5289 47.0415 9.6998 43.3917 9.6998 38.8295C9.6998 34.2673 12.5289 30.6175 15.9643 30.6175C19.3997 30.6175 22.2288 34.2673 22.2288 38.8295C22.2288 43.3917 19.3997 47.0415 15.9643 47.0415M15.9643 32.6451C13.6404 32.6451 11.7206 35.3825 11.7206 38.8295C11.7206 42.2765 13.6404 45.0138 15.9643 45.0138C18.2882 45.0138 20.208 42.2765 20.208 38.8295C20.208 35.4839 18.2882 32.6451 15.9643 32.6451"/>
	<path fill="#FFE7DC" d="M55.269 38.3226C55.269 42.298 52.9166 45.5207 50.0149 45.5207C47.1131 45.5207 44.7608 42.298 44.7608 38.3226C44.7608 34.3471 47.1131 31.1244 50.0149 31.1244C52.9166 31.1244 55.269 34.3471 55.269 38.3226"/>
	<path fill="#2D1B0A" d="M50.0149 46.4332C46.5795 46.4332 43.7504 42.7834 43.7504 38.2212C43.7504 33.659 46.5795 30.0092 50.0149 30.0092C53.4502 30.0092 56.2794 33.659 56.2794 38.2212C56.2794 42.7834 53.4502 46.4332 50.0149 46.4332M50.0149 32.1382C47.691 32.1382 45.7712 34.8756 45.7712 38.3226C45.7712 41.7696 47.691 44.5069 50.0149 44.5069C52.3388 44.5069 54.2586 41.7696 54.2586 38.3226C54.2586 34.8756 52.3388 32.1382 50.0149 32.1382"/>
	<path fill="#99CC62" d="M16.0652 84.8572L3.031 84.8572L3.031 81.4102C3.031 67.9263 16.9745 56.8756 34.1514 56.8756C51.3282 56.8756 65.2717 67.8249 65.2717 81.4102L65.1707 84.8572L16.0652 84.8572"/>
	<path fill="#2D1B0A" d="M66.0801 85.871L2.1217 85.871L2.1217 81.5116C2.1217 67.4194 16.5704 55.9632 34.2525 55.9632C51.9345 55.9632 66.3832 67.4194 66.3832 81.5116L66.0801 85.871M4.1425 83.8434L64.1603 83.8434L64.2614 81.4102C64.2614 68.5346 50.722 57.9908 34.1514 57.9908C17.5808 57.9908 4.04146 68.5346 4.04146 81.5116L4.1425 83.8434"/>
	<path fill="#FFE7DC" d="M34.4042 67.3179C29.9584 67.3179 26.8262 64.2765 26.8262 60.424L26.8262 47.7512L41.1739 47.7512L41.1739 60.424C41.1739 64.2765 38.1427 67.3179 34.4042 67.3179"/>
	<path fill="#2D1B0A" d="M34.4042 68.3319C29.3521 68.3319 25.8158 64.7835 25.8158 60.424L25.8158 46.7374L42.1842 46.7374L42.1842 60.424C42.1842 64.8849 38.6479 68.3319 34.4042 68.3319M27.9376 48.8664L27.9376 60.5254C27.9376 63.7697 30.5646 66.4056 33.7979 66.4056C37.7384 66.4056 40.3656 63.7697 40.3656 60.5254L40.3656 48.8664L27.9376 48.8664"/>
	<path fill="#FFE7DC" d="M17.3217 33.5574C17.3217 33.5574 16.2674 47.5482 23.8454 53.834C31.6255 60.3224 40.9212 56.2671 40.9212 56.2671C40.9212 56.2671 52.4398 51.1979 49.4086 29.8062C46.2763 7.40075 18.2882 24.3316 18.1872 24.6358C18.0862 24.7372 17.3217 33.5574 17.3217 33.5574"/>
	<path fill="#2D1B0A" d="M34.13 58.4686C30.7957 58.4686 26.8552 57.6574 23.1167 54.5146C15.2355 48.0261 16.2522 34.0353 16.2522 33.427C17.0543 24.5054 17.1553 24.3027 17.1553 24.2013C17.5595 22.9847 30.0884 16.3948 38.8789 17.1369C43.4257 17.6114 48.9829 20.146 50.2965 29.5746C53.3277 51.4732 41.7081 56.9479 41.2029 57.1506C41.0008 57.252 38.0706 58.4686 34.13 58.4686M18.3678 33.5285C18.3678 33.7312 17.4584 47.0124 24.4302 52.8925C31.604 58.874 40.0914 55.3257 40.4956 55.2243C40.8997 55.0216 51.2058 50.0538 48.3767 29.7773C47.6694 24.7082 45.5476 21.4639 42.1122 19.9432C34.3321 16.699 21.6011 23.3902 19.0751 25.0123C18.974 26.4317 18.5699 30.7911 18.3678 33.5285"/>
	<path fill="#2D1B0A" d="M34.9598 50.5898C31.5245 50.5898 30.6151 48.4608 30.4366 48.3594C30.312 47.8525 30.4366 47.2442 31.0193 47.0414C31.5245 46.7752 32.1307 47.0414 32.3328 47.5484C32.3328 47.6497 32.939 48.6636 35.263 48.5622C37.4858 48.4608 37.89 47.447 37.89 47.447C38.0921 46.9401 38.5973 46.6359 39.2035 46.7752C39.7087 47.0414 40.0118 47.5484 39.9108 48.0553C39.8098 48.258 39.1025 50.3871 35.465 50.5898C35.263 50.5898 35.1619 50.5898 34.9598 50.5898"/>
	<path fill="#2D1B0A" d="M28.2912 36.1935C28.2912 37.0894 27.5675 37.8156 26.6746 37.8156C25.7818 37.8156 25.058 37.0894 25.058 36.1935C25.058 35.2976 25.7818 34.5714 26.6746 34.5714C27.5675 34.5714 28.2912 35.2976 28.2912 36.1935"/>
	<path fill="#2D1B0A" d="M43.9524 36.2949C43.9524 37.1908 43.2286 37.917 42.3358 37.917C41.443 37.917 40.7192 37.1908 40.7192 36.2949C40.7192 35.399 41.443 34.6728 42.3358 34.6728C43.2286 34.6728 43.9524 35.399 43.9524 36.2949"/>
	<path fill="#6D4225" d="M36.2764 7.60376L26.5765 6.58993C23.5453 6.58993 20.9183 8.61758 19.7058 11.4563C15.7652 11.7604 12.633 15.5116 12.633 20.0738L14.0476 32.2397L17.1798 33.1521C17.1798 33.0508 18.0892 31.0231 18.1902 30.719C18.1902 30.719 19.6048 24.7374 21.2214 24.1291L43.1471 24.1291C45.8752 24.5346 49.1085 31.8342 49.1085 31.8342C49.1085 32.2397 49.5126 32.6452 49.9168 32.6452L51.0282 32.3411C59.0104 18.1464 49.3106 3.1406 49.3106 3.1406C47.1887 3.1406 45.8752 6.28578 42.844 6.58993L36.2764 7.60376"/>
	<path fill="#2D1B0A" d="M18.1872 34.5715L13.1352 33.1522L11.6196 20.1752C11.6196 15.4103 14.8529 11.355 18.9955 10.6453C20.5111 7.60381 23.4413 5.67754 26.5735 5.67754L36.2734 6.69136L42.6389 5.67754C43.8514 5.57616 44.8618 4.66372 45.7712 3.95404C46.7816 3.04159 47.893 2.2228 49.3076 2.2228C50.52 3.24436 60.1189 18.249 51.8336 32.848L50.0148 33.6591C49.0044 33.6591 48.1961 32.9494 47.994 32.1384C46.7816 29.5024 44.3566 25.5485 42.841 25.2444L21.3195 25.2444C20.7132 25.7513 19.7028 28.3872 19.0966 31.0232C18.6924 32.037 18.2882 32.9494 18.1872 33.355L18.1872 34.5715M14.9539 31.5301L16.5706 32.037C16.6716 31.7328 16.8737 31.4287 17.0758 30.9218C17.7831 28.4886 18.9955 23.9264 20.9153 23.3181L43.3462 23.2167C46.4784 23.7236 49.5096 30.2121 50.1159 31.4287C56.7845 19.4656 50.318 6.89413 48.8024 4.1568C48.2972 4.35957 47.792 4.7651 47.1857 5.37339C46.1753 6.28583 44.8618 7.40104 43.0431 7.60381L36.4755 8.61763L26.6746 7.60381C24.1486 7.60381 21.8247 9.32731 20.7132 11.8619C16.4695 12.8757 13.8425 16.1199 13.7414 20.0739L14.9539 31.5301"/>
</svg>
