<?xml version="1.0" encoding="utf-8" ?>
<svg xmlns="http://www.w3.org/2000/svg" xmlns:xlink="http://www.w3.org/1999/xlink" width="96" height="84">
	<path fill="white" d="M89.523 67.4417L86.6906 65.6353L88.6126 63.2268C90.3322 60.718 90.7369 57.607 90.1299 54.5964C89.3207 50.5822 86.4883 47.9731 82.6444 46.6685L80.8236 46.0663L80.8236 40.1455L62.919 40.1455L62.919 34.5257C62.919 29.4076 60.4912 24.4903 56.3438 21.3793L54.1184 19.6733L55.7369 17.3652C57.4566 14.8564 58.0635 11.645 57.3554 8.53408C56.3438 4.31923 52.9045 1.00756 48.5548 0.20473C40.4624 -1.30057 33.5838 5.72418 35.3034 13.7525C35.6069 15.0571 36.2138 16.2613 36.9219 17.4656L38.3381 19.6733L36.0115 21.3793C31.763 24.4903 29.2341 29.508 29.2341 34.7264L29.2341 40.3462L13.9595 40.3462L13.9595 46.4677L12.2399 46.9695C7.78901 48.8762 5.36126 53.5929 5.76589 58.5102C5.9682 60.4169 6.67629 62.2233 7.68785 63.8289L9.10403 65.9363L6.77745 67.6424C2.5289 70.7533 0 75.771 0 80.9894L0 84L96 83.7993L96 80.7887C96.0981 75.4699 93.6704 70.5526 89.523 67.4417M44.0028 46.1667C42.6878 46.3674 41.4739 47.1702 40.3612 48.0734L39.2485 49.1773C36.6184 51.8868 35.8092 55.8006 36.6184 59.6141C36.9219 60.9187 37.5288 62.2233 38.2369 63.4275L39.6531 65.6353L37.0231 67.4417C35.9103 68.2445 34.8988 69.248 33.9884 70.2516L31.9653 72.9611L29.7398 69.9505C28.9306 69.0473 28.0202 68.1441 27.1098 67.4417L24.682 65.9363L26.3005 63.6282C27.5144 61.8219 28.2225 59.6141 28.2225 57.4063C28.2225 54.3957 27.0086 51.4854 24.8844 49.378C24.8844 49.378 23.4682 47.9731 22.3555 47.3709C20.8381 46.5681 18.5115 46.4677 18.5115 46.4677L18.5115 44.1596L19.5231 44.1596L43.8005 44.1596L43.8005 46.1667M70.2022 63.3272L71.6184 65.5349L69.2918 67.2409C67.9768 68.2445 66.7629 69.3484 65.8525 70.7533L63.4248 74.065L60.997 70.7533C60.0866 69.5491 58.9739 68.4452 57.76 67.4417L55.5346 65.7356L57.1531 63.4275C58.367 61.6211 59.0751 59.4134 59.0751 57.2056C59.0751 54.2953 58.367 51.084 55.7369 48.8762C53.7138 46.267 48.7571 45.966 48.7571 45.966L48.7571 44.26L76.6762 44.26L76.6762 46.7688C76.6762 46.7688 73.7427 47.1702 71.6184 49.378C69.393 51.5858 67.8756 55.7003 68.5837 59.5137C68.786 60.8183 69.393 62.1229 70.2022 63.3272"/>
	<path fill="#FFE7DC" d="M37.9323 10.8422C37.9323 15.3581 41.675 19.0712 46.2269 19.0712C50.7787 19.0712 54.5214 15.3581 54.5214 10.8422C54.5214 6.32632 50.7787 2.61324 46.2269 2.61324C41.675 2.61324 37.9323 6.32632 37.9323 10.8422"/>
	<path fill="#2D1B0A" d="M46.1257 19.9744C41.0681 19.9744 36.8196 15.86 36.8196 10.7419C36.8196 5.7242 40.9669 1.50935 46.1257 1.50935C51.2845 1.50935 55.4317 5.62385 55.4317 10.7419C55.4317 15.86 51.2845 19.9744 46.1257 19.9744M46.1257 3.61678C42.1807 3.61678 38.8427 6.82809 38.8427 10.8422C38.8427 14.7561 42.0796 18.0676 46.1257 18.0676C50.1718 18.0676 53.4087 14.8563 53.4087 10.8422C53.4087 6.82809 50.1718 3.61678 46.1257 3.61678"/>
	<path fill="#89C5E5" d="M59.6802 34.3249C59.6802 26.7984 53.5099 20.6768 45.9234 20.6768C38.3369 20.6768 32.1666 26.7984 32.1666 34.3249L59.6802 34.3249"/>
	<path fill="#2D1B0A" d="M60.6917 35.3285L31.1551 35.3285L31.1551 34.3249C31.1551 26.2966 37.73 19.6733 45.9234 19.6733C54.0157 19.6733 60.6917 26.1963 60.6917 34.3249L60.6917 35.3285M33.2793 33.3214L58.6687 33.3214C58.1629 26.7984 52.7007 21.6804 45.9234 21.6804C39.2473 21.6804 33.7851 26.7984 33.2793 33.3214"/>
	<path fill="#FFD071" d="M30.447 80.5879C30.447 73.0614 24.2767 66.9398 16.6902 66.9398C9.10373 66.9398 2.9334 73.0614 2.9334 80.5879L30.447 80.5879"/>
	<path fill="#2D1B0A" d="M31.4585 81.5915L1.9219 81.5915L1.9219 80.5879C1.9219 72.5596 8.49684 65.9363 16.6902 65.9363C24.7825 65.9363 31.4585 72.4593 31.4585 80.5879L31.4585 81.5915M4.04611 79.5844L29.4355 79.5844C28.9297 73.0614 23.4675 67.9434 16.6902 67.9434C10.0141 67.9434 4.55188 73.0614 4.04611 79.5844"/>
	<path fill="#FFD071" d="M60.9952 80.3872C60.9952 72.8607 54.8249 66.7391 47.2384 66.7391C39.6519 66.7391 33.4816 72.8607 33.4816 80.3872L60.9952 80.3872"/>
	<path fill="#2D1B0A" d="M62.0067 81.3908L32.4701 81.3908L32.4701 80.3872C32.4701 72.3589 39.045 65.7356 47.2384 65.7356C55.3307 65.7356 62.0067 72.2586 62.0067 80.3872L62.0067 81.3908M34.5943 79.3837L59.9837 79.3837C59.4779 72.8607 54.0157 67.7427 47.2384 67.7427C40.5623 67.7427 35.1001 72.8607 34.5943 79.3837"/>
	<path fill="#FFD071" d="M92.8584 80.3872C92.8584 72.8607 86.6881 66.7391 79.1016 66.7391C71.5151 66.7391 65.3448 72.8607 65.3448 80.3872L92.8584 80.3872"/>
	<path fill="#2D1B0A" d="M93.8699 81.3908L64.3333 81.3908L64.3333 80.3872C64.3333 72.3589 70.9082 65.7356 79.1016 65.7356C87.1939 65.7356 93.8699 72.2586 93.8699 80.3872L93.8699 81.3908M66.3564 79.3837L91.7457 79.3837C91.24 72.8607 85.7777 67.7427 79.0005 67.7427C72.4255 67.7427 66.8621 72.8607 66.3564 79.3837"/>
	<path fill="#2D1B0A" d="M79.6073 48.1737L77.5842 48.1737L77.5842 42.9553L17.196 42.9553L17.196 47.7723L15.1729 47.7723L15.1729 40.9483L79.6073 40.9483"/>
	<path fill="#2D1B0A" d="M45.2154 34.626L47.2384 34.626L47.2384 48.1737L45.2154 48.1737L45.2154 34.626"/>
	<path fill="#FFE7DC" d="M8.69913 57.1052C8.69913 61.6211 12.4418 65.3342 16.9937 65.3342C21.5455 65.3342 25.2882 61.6211 25.2882 57.1052C25.2882 52.5893 21.5455 48.8762 16.9937 48.8762C12.4418 48.8762 8.69913 52.5893 8.69913 57.1052"/>
	<path fill="#2D1B0A" d="M16.8925 66.3378C11.8349 66.3378 7.58645 62.2233 7.58645 57.1052C7.58645 52.0875 11.7337 47.8727 16.8925 47.8727C21.9501 47.8727 26.1986 51.9872 26.1986 57.1052C26.1986 62.1228 22.0513 66.3378 16.8925 66.3378M16.8925 49.8797C12.9475 49.8797 9.60951 53.091 9.60951 57.1052C9.60951 61.019 12.8464 64.3307 16.8925 64.3307C20.8375 64.3307 24.1756 61.1194 24.1756 57.1052C24.1756 53.1914 20.9387 49.8797 16.8925 49.8797"/>
	<path fill="#FFE7DC" d="M39.2473 56.9045C39.2473 61.4204 42.99 65.1335 47.5419 65.1335C52.0937 65.1335 55.8364 61.4204 55.8364 56.9045C55.8364 52.3886 52.0937 48.6755 47.5419 48.6755C42.8888 48.7758 39.2473 52.3886 39.2473 56.9045"/>
	<path fill="#2D1B0A" d="M47.4407 66.1371C42.3831 66.1371 38.1347 62.0226 38.1347 56.9045C38.1347 51.7865 42.2819 47.672 47.4407 47.672C52.4984 47.672 56.7467 51.7865 56.7467 56.9045C56.7467 62.0226 52.5996 66.1371 47.4407 66.1371M47.4407 49.7794C43.4958 49.7794 40.1577 52.9907 40.1577 57.0048C40.1577 61.019 43.3946 64.2303 47.4407 64.2303C51.3857 64.2303 54.7238 61.019 54.7238 57.0048C54.7238 52.9907 51.4869 49.7794 47.4407 49.7794"/>
	<path fill="#FFE7DC" d="M71.0094 56.9045C71.0094 61.4204 74.752 65.1335 79.3039 65.1335C83.8558 65.1335 87.5985 61.4204 87.5985 56.9045C87.5985 52.3886 83.8558 48.6755 79.3039 48.6755C74.752 48.7758 71.0094 52.3886 71.0094 56.9045"/>
	<path fill="#2D1B0A" d="M79.3039 66.1371C74.2463 66.1371 69.9978 62.0226 69.9978 56.9045C69.9978 51.7865 74.1451 47.672 79.3039 47.672C84.3615 47.672 88.6099 51.7865 88.6099 56.9045C88.6099 62.0226 84.3615 66.1371 79.3039 66.1371M79.3039 49.7794C75.3589 49.7794 72.0209 52.9907 72.0209 57.0048C72.0209 61.019 75.2578 64.2303 79.3039 64.2303C83.2488 64.2303 86.5869 61.019 86.5869 57.0048C86.5869 52.9907 83.2488 49.7794 79.3039 49.7794"/>
</svg>
