<?xml version="1.0" encoding="utf-8" ?>
<svg xmlns="http://www.w3.org/2000/svg" xmlns:xlink="http://www.w3.org/1999/xlink" width="80" height="90">
	<path fill="white" d="M5.38071 90L5.38071 88.2848L4.26396 87.3767C1.52284 85.2578 0 82.0291 0 78.5987C0 73.6547 3.35025 69.2152 8.0203 67.9036L9.74619 67.3991L10.1523 65.6839C10.8629 62.7578 12.7919 60.2354 15.3299 58.722L18.6802 56.704L3.45178 41.5695L3.45178 31.0762L25.1777 31.0762L25.8883 29.0583C27.0051 26.0314 28.934 23.3072 31.5736 21.3901L33.8071 19.6749L32.2843 17.3543C31.066 15.5381 30.4569 13.4193 30.4569 11.1996C30.4569 5.04484 35.533 0 41.7259 0C47.9188 0 52.9949 5.04484 52.9949 11.1996C52.9949 13.4193 52.3858 15.5381 51.1675 17.3543L49.6447 19.6749L51.8782 21.3901C54.5178 23.3072 56.4467 26.0314 57.5635 29.0583L58.2741 31.0762L80 31.0762L80 41.5695L62.9442 58.5202L65.0761 60.639C66.4975 62.1525 67.5127 63.9686 68.0203 65.9865L68.4264 67.6009L70.0508 68.1054C74.6193 69.6188 77.665 73.8565 77.665 78.6996C77.665 82.5336 75.736 86.065 72.4873 88.083L71.066 88.991L5.38071 89.8991"/>
	<path fill="#FFE7DC" d="M33.2994 10.9978C33.2994 15.5382 36.9542 19.1705 41.5228 19.1705C46.0913 19.1705 49.7461 15.5382 49.7461 10.9978C49.7461 6.45745 46.0913 2.82516 41.5228 2.82516C36.9542 2.82516 33.2994 6.45745 33.2994 10.9978"/>
	<path fill="#2D1B0A" d="M41.5228 20.0785C36.4466 20.0785 32.2842 15.9418 32.2842 10.8969C32.2842 5.85207 36.4466 1.7153 41.5228 1.7153C46.5989 1.7153 50.7614 5.85207 50.7614 10.8969C50.7614 16.0427 46.5989 20.0785 41.5228 20.0785M41.5228 3.83413C37.5634 3.83413 34.3147 7.06283 34.3147 10.9978C34.3147 14.9328 37.5634 18.1615 41.5228 18.1615C45.4822 18.1615 48.7309 14.9328 48.7309 10.9978C48.7309 6.96194 45.4822 3.83413 41.5228 3.83413"/>
	<path fill="#89C5E5" d="M55.2284 34.4059C55.2284 26.8386 49.137 20.7848 41.5228 20.7848C33.9086 20.7848 27.8172 26.8386 27.8172 34.4059L55.2284 34.4059"/>
	<path fill="#2D1B0A" d="M56.2436 35.4148L26.802 35.4148L26.802 34.4058C26.802 26.3341 33.401 19.7758 41.5228 19.7758C49.6446 19.7758 56.2436 26.3341 56.2436 34.4058L56.2436 35.4148M28.934 33.3969L54.2132 33.3969C53.7056 26.9395 48.2233 21.7937 41.5228 21.7937C34.9238 21.7937 29.4416 26.9395 28.934 33.3969"/>
	<path fill="#99CC62" d="M41.5229 33.9015L6.2945 33.9015L6.2945 40.0562L22.9442 56.5023L22.9442 64.7758L60.2031 64.7758L60.2031 56.5023L76.7514 40.0562L76.7514 33.9015"/>
	<path fill="#2D1B0A" d="M61.2184 65.7848L21.929 65.7848L21.929 57.0068L5.3808 40.5606L5.3808 32.9933L77.8681 32.9933L77.8681 40.5606L61.3199 57.0068L61.3199 65.7848M23.9595 63.7668L59.1879 63.7668L59.1879 56.0987L75.7361 39.6525L75.7361 34.9103L7.30973 34.9103L7.30973 39.6525L23.858 56.0987L23.858 63.7668"/>
	<path fill="#FFE7DC" d="M12.7919 68.1054C12.7919 72.6458 16.4467 76.2781 21.0152 76.2781C25.5837 76.2781 29.2385 72.6458 29.2385 68.1054C29.2385 63.565 25.5837 59.9328 21.0152 59.9328C16.4467 59.9328 12.7919 63.565 12.7919 68.1054"/>
	<path fill="#2D1B0A" d="M20.9137 77.1861C15.8375 77.1861 11.6751 73.0494 11.6751 68.0045C11.6751 62.9597 15.8375 58.8229 20.9137 58.8229C25.9898 58.8229 30.1523 62.9597 30.1523 68.0045C30.1523 73.1503 26.0913 77.1861 20.9137 77.1861M20.9137 60.9417C16.9543 60.9417 13.7056 64.1704 13.7056 68.1054C13.7056 72.0404 16.9543 75.2691 20.9137 75.2691C24.8731 75.2691 28.1218 72.0404 28.1218 68.1054C28.1218 64.0695 24.9746 60.9417 20.9137 60.9417"/>
	<path fill="#FFE7DC" d="M30.5583 68.509C30.5583 73.0494 34.2132 76.6817 38.7817 76.6817C43.3502 76.6817 47.005 73.0494 47.005 68.509C47.005 63.9687 43.3502 60.3364 38.7817 60.3364C34.3147 60.3364 30.5583 63.9687 30.5583 68.509"/>
	<path fill="#2D1B0A" d="M38.7817 77.6906C33.7055 77.6906 29.5431 73.5539 29.5431 68.509C29.5431 63.4642 33.7055 59.3274 38.7817 59.3274C43.8578 59.3274 48.0203 63.4642 48.0203 68.509C48.0203 73.5539 43.9593 77.6906 38.7817 77.6906M38.7817 61.3453C34.8223 61.3453 31.5736 64.574 31.5736 68.509C31.5736 72.444 34.8223 75.6727 38.7817 75.6727C42.7411 75.6727 45.9898 72.444 45.9898 68.509C45.9898 64.574 42.8426 61.3453 38.7817 61.3453"/>
	<path fill="#FFE7DC" d="M48.6294 68.2063C48.6294 72.7467 52.2842 76.379 56.8528 76.379C61.4213 76.379 65.0761 72.7467 65.0761 68.2063C65.0761 63.666 61.4213 60.0337 56.8528 60.0337C52.2842 60.0337 48.6294 63.666 48.6294 68.2063"/>
	<path fill="#2D1B0A" d="M56.8528 77.3879C51.7766 77.3879 47.6142 73.2512 47.6142 68.2063C47.6142 63.1615 51.7766 59.0247 56.8528 59.0247C61.9289 59.0247 66.0914 63.1615 66.0914 68.2063C66.0914 73.2512 61.9289 77.3879 56.8528 77.3879M56.8528 61.0426C52.8934 61.0426 49.6447 64.2713 49.6447 68.2063C49.6447 72.1413 52.8934 75.37 56.8528 75.37C60.8122 75.37 64.0609 72.1413 64.0609 68.2063C64.0609 64.2713 60.8122 61.0426 56.8528 61.0426"/>
	<path fill="#FFE7DC" d="M2.94413 78.296C2.94413 82.8364 6.59895 86.4687 11.1675 86.4687C15.736 86.4687 19.3908 82.8364 19.3908 78.296C19.3908 73.7556 15.736 70.1234 11.1675 70.1234C6.59895 70.2243 2.94413 73.8565 2.94413 78.296"/>
	<path fill="#2D1B0A" d="M11.1675 87.4776C6.09134 87.4776 1.9289 83.3409 1.9289 78.296C1.9289 73.2512 6.09134 69.1144 11.1675 69.1144C16.2436 69.1144 20.4061 73.2512 20.4061 78.296C20.3045 83.4418 16.2436 87.4776 11.1675 87.4776M11.1675 71.2332C7.20809 71.2332 3.95936 74.4619 3.95936 78.3969C3.95936 82.3319 7.20809 85.5606 11.1675 85.5606C15.1269 85.5606 18.3756 82.3319 18.3756 78.3969C18.2741 74.361 15.1269 71.2332 11.1675 71.2332"/>
	<path fill="#FFE7DC" d="M21.1167 78.296C21.1167 82.8364 24.7715 86.4687 29.3401 86.4687C33.9086 86.4687 37.5634 82.8364 37.5634 78.296C37.5634 73.7556 33.9086 70.1234 29.3401 70.1234C24.7715 70.2243 21.1167 73.8565 21.1167 78.296"/>
	<path fill="#2D1B0A" d="M29.3401 87.4776C24.2639 87.4776 20.1015 83.3409 20.1015 78.296C20.1015 73.2512 24.2639 69.1144 29.3401 69.1144C34.4162 69.1144 38.5787 73.2512 38.5787 78.296C38.5787 83.4418 34.4162 87.4776 29.3401 87.4776M29.3401 71.2332C25.3807 71.2332 22.132 74.4619 22.132 78.3969C22.132 82.3319 25.3807 85.5606 29.3401 85.5606C33.2995 85.5606 36.5482 82.3319 36.5482 78.3969C36.5482 74.361 33.2995 71.2332 29.3401 71.2332"/>
	<path fill="#FFE7DC" d="M39.2893 78.4978C39.2893 83.0382 42.9442 86.6705 47.5127 86.6705C52.0812 86.6705 55.736 83.0382 55.736 78.4978C55.736 73.9574 52.0812 70.3252 47.5127 70.3252C42.9442 70.3252 39.2893 73.9574 39.2893 78.4978"/>
	<path fill="#2D1B0A" d="M47.4112 87.6794C42.335 87.6794 38.1726 83.5427 38.1726 78.4978C38.1726 73.453 42.335 69.3162 47.4112 69.3162C52.4873 69.3162 56.6498 73.453 56.6498 78.4978C56.6498 83.5427 52.5888 87.6794 47.4112 87.6794M47.4112 71.3341C43.4518 71.3341 40.2031 74.5628 40.2031 78.4978C40.2031 82.4328 43.4518 85.6615 47.4112 85.6615C51.3706 85.6615 54.6193 82.4328 54.6193 78.4978C54.6193 74.5628 51.4721 71.3341 47.4112 71.3341"/>
	<path fill="#FFE7DC" d="M57.9695 78.4978C57.9695 83.0382 61.6244 86.6705 66.1929 86.6705C70.7614 86.6705 74.4162 83.0382 74.4162 78.4978C74.4162 73.9574 70.7614 70.3252 66.1929 70.3252C61.6244 70.3252 57.9695 73.9574 57.9695 78.4978"/>
	<path fill="#2D1B0A" d="M66.0914 87.6794C61.0152 87.6794 56.8528 83.5427 56.8528 78.4978C56.8528 73.453 61.0152 69.3162 66.0914 69.3162C71.1675 69.3162 75.33 73.453 75.33 78.4978C75.33 83.5427 71.269 87.6794 66.0914 87.6794M66.0914 71.3341C62.132 71.3341 58.8833 74.5628 58.8833 78.4978C58.8833 82.4328 62.132 85.6615 66.0914 85.6615C70.0508 85.6615 73.2995 82.4328 73.2995 78.4978C73.2995 74.5628 70.1523 71.3341 66.0914 71.3341"/>
	<path fill="#2D1B0A" d="M5.88835 86.6704L71.7766 86.6704L71.7766 88.6884L5.88835 88.6884L5.88835 86.6704"/>
</svg>
