<?xml version="1.0" encoding="utf-8" ?>
<svg xmlns="http://www.w3.org/2000/svg" xmlns:xlink="http://www.w3.org/1999/xlink" width="78" height="86">
	<path fill="white" d="M0 64.0468L10.5594 53.3724L12.751 55.5878L14.9425 53.3724C15.8391 52.466 16.636 51.5597 17.3333 50.9555C19.3257 49.0422 22.4138 46.726 25.9004 46.0211L29.8851 45.3162L27.8927 41.6909C26.9962 39.9789 26.4981 37.9649 26.4981 36.0515L26.4981 33.0304L30.8812 33.0304L28.4904 28.5995C26.9962 25.7799 26.0996 22.5574 26.0996 19.3349C26.0996 12.4871 29.7854 6.04215 35.6628 2.61827C38.5517 0.906323 41.8391 0 45.2261 0C48.613 0 51.9004 0.906323 54.7893 2.61827C60.6667 6.04215 64.3525 12.4871 64.3525 19.3349C64.3525 23.9672 62.659 28.3981 59.6705 31.9227L55.387 36.9578L64.8506 36.9578L64.8506 42.6979L68.4368 41.993C69.1341 41.8923 69.8314 41.7916 70.4291 41.7916C73.2184 41.7916 75.8084 42.8993 77.0038 44.5105L78 45.9204L77.3027 47.4309C76.0077 50.5527 71.1264 56.3934 67.0421 60.8244C55.8851 70.2904 53.1954 72.103 52.5977 72.5059L34.4674 72.9087L21.5172 86L0 64.0468"/>
	<path fill="#FFD071" d="M29.2875 19.0202C29.2875 24.861 32.3756 30.1982 37.3564 33.1186C42.3372 36.039 48.5135 36.039 53.4944 33.1186C58.4752 30.1982 61.5634 24.861 61.5634 19.0202C61.5634 13.1795 58.4752 7.84226 53.4944 4.92188C48.5135 2.00151 42.3372 2.00151 37.3564 4.92188C32.276 7.84226 29.2875 13.2802 29.2875 19.0202"/>
	<path fill="#2D1B0A" d="M45.3257 36.3536C42.3372 36.3536 39.4483 35.5479 36.7587 34.0374C31.479 30.9156 28.1916 25.1756 28.1916 19.0201C28.1916 12.8899 31.479 7.14981 36.7587 4.02803C42.0383 0.906255 48.6131 0.906255 53.8927 4.02803C59.1724 7.14981 62.4598 12.8899 62.4598 19.0201C62.4598 25.1756 59.1724 30.9156 53.8927 34.0374C51.3027 35.5479 48.3142 36.3536 45.3257 36.3536M45.3257 3.82663C42.7357 3.82663 40.1456 4.53155 37.7548 5.84068C33.0728 8.55965 30.1839 13.5948 30.1839 19.0201C30.1839 24.4707 33.0728 29.5058 37.7548 32.2248C42.4368 34.9437 48.2146 34.9437 52.8966 32.2248C57.5786 29.5058 60.4675 24.4707 60.4675 19.0201C60.4675 13.5948 57.5786 8.55965 52.8966 5.84068C50.6054 4.53155 47.9157 3.82663 45.3257 3.82663"/>
	<path fill="#2D1B0A" d="M50.8046 21.349C50.1073 20.6441 49.0115 19.9393 47.4177 19.033C47.318 19.033 47.318 18.9323 47.318 18.9323L47.318 12.4873C47.318 12.3865 47.4177 12.1852 47.6169 12.3865C48.7127 12.4873 49.7088 12.7894 50.3065 12.9908L51.0039 11.0774C49.7088 10.5739 48.8123 10.4732 47.5173 10.3725C47.4177 10.3725 47.4177 10.2718 47.4177 10.2718L47.4177 8.45915C47.4177 8.35845 47.318 8.35845 47.318 8.35845L45.8238 8.35845C45.7242 8.35845 45.7242 8.45915 45.7242 8.45915L45.7242 10.3725C45.7242 10.4732 45.6245 10.4732 45.6245 10.4732C44.4291 10.7753 43.3334 11.3795 42.4368 12.0844C41.4406 12.9908 40.9426 14.0985 40.9426 15.2062C40.9426 16.3139 41.4406 17.1196 42.0383 17.8245C42.7356 18.4287 43.8314 19.2344 45.4253 20.1406C45.5249 20.1406 45.5249 20.2414 45.5249 20.2414L45.5249 26.5856C45.5249 26.6863 45.4253 26.8878 45.2261 26.6863C44.0307 26.5856 42.636 26.1828 41.6399 25.5786L40.9426 27.4919C42.2376 28.1968 43.6322 28.5996 45.1265 28.7003C45.2261 28.7003 45.2261 28.8011 45.2261 28.8011L45.2261 31.1173C45.2261 31.218 45.3257 31.218 45.3257 31.218L46.8199 31.218C46.9196 31.218 46.9196 31.1173 46.9196 31.1173L46.9196 28.8011C46.9196 28.7003 47.0192 28.7003 47.0192 28.7003C48.2146 28.3983 49.3104 27.9954 50.2069 27.0891C51.203 26.1828 51.4024 25.1758 51.4024 23.9674C51.9005 23.0611 51.5019 22.0541 50.8046 21.349M47.4177 21.7519C47.4177 21.6511 47.5173 21.4497 47.8161 21.6511C48.5134 22.0541 48.9119 22.3561 49.2108 22.7589C49.6092 23.2625 49.7088 23.8666 49.7088 24.4708C49.7088 25.1758 49.41 25.7799 49.0115 26.2836C48.6131 26.6863 48.0154 26.8878 47.4177 27.1898L47.4177 21.7519M43.7318 16.8175C43.3334 16.3139 43.2337 15.7097 43.2337 15.1055C43.2337 14.4006 43.5326 13.7964 43.9311 13.1922C44.3295 12.7894 44.9272 12.4873 45.4253 12.2859L45.4253 17.5224C45.4253 17.6231 45.3257 17.8245 45.0268 17.6231C44.4291 17.5224 44.0307 17.1196 43.7318 16.8175"/>
	<path fill="#99CC62" d="M47.0191 36.2529L45.7241 45.4168L45.7241 60.6229"/>
	<path fill="#2D1B0A" d="M46.7203 60.6229L44.7279 60.6229L44.7279 45.3161L46.0229 36.0515L48.0153 36.3536L46.7203 45.5175"/>
	<path fill="#99CC62" d="M54.092 48.0351L48.115 48.0351C48.115 43.4028 51.9004 39.5761 56.4828 39.5761L62.4598 39.5761C62.4598 44.2084 58.6744 48.0351 54.092 48.0351"/>
	<path fill="#2D1B0A" d="M54.092 49.0421L47.1188 49.0421L47.1188 48.0351C47.1188 42.7986 51.3027 38.569 56.4828 38.569L63.456 38.569L63.456 39.5761C63.456 44.8126 59.2721 49.0421 54.092 49.0421M49.1111 47.0281L53.9924 47.0281C57.6782 47.0281 60.8659 44.2084 61.2644 40.5831L56.3832 40.5831C52.6973 40.5831 49.6092 43.4028 49.1111 47.0281"/>
	<path fill="#2D1B0A" d="M44.6283 46.9274L37.954 46.9274C32.3755 46.9274 27.7931 42.3958 27.7931 36.8571L27.7931 35.3466L34.4674 35.3466C40.046 35.3466 44.6283 39.8782 44.6283 45.4169L44.6283 46.9274M30.9808 38.3677C31.6782 41.5902 34.5671 43.9063 37.954 43.9063L41.4406 43.9063C40.7433 40.6838 37.8544 38.3677 34.4674 38.3677L30.9808 38.3677"/>
	<path fill="#DEFFFE" d="M37.954 45.4169L43.134 45.4169C43.134 40.6838 39.249 36.8571 34.4674 36.8571L29.2873 36.8571C29.2873 41.5902 33.1724 45.4169 37.954 45.4169"/>
	<path fill="#FFE7DC" d="M63.7548 48.7399L55.1877 54.2786C54.59 52.6673 53.0958 51.5596 51.3027 51.5596L43.0345 51.5596C41.1417 51.5596 38.2529 48.7399 35.9617 48.7399L27.8927 48.7399C24.6053 48.7399 21.318 51.3582 19.6245 52.9694C17.0345 55.5877 12.0536 60.7235 11.3563 61.3278C15.4406 64.953 23.3103 72.7072 25.203 74.4191C27.6935 71.8008 28.7893 69.6861 30.8812 69.6861L51.4023 69.6861C53.295 68.5784 65.249 58.508 65.249 58.508C65.249 58.508 73.318 49.747 74.9119 45.9203C73.8161 44.6111 67.5402 42.4964 63.7548 48.7399"/>
	<path fill="#2D1B0A" d="M25.1034 75.829C23.6092 74.5199 22.0153 73.0093 20.023 71.096C16.9348 68.0749 13.0498 64.3489 10.5594 62.1335L10.5594 60.5222C11.0574 60.1194 13.7471 57.2997 15.9387 55.0843C16.9348 53.9765 17.931 52.9695 18.7279 52.1639C20.521 50.452 24.0076 47.6323 27.6935 47.6323L35.7624 47.6323C37.2567 47.6323 38.6513 48.4379 40.0459 49.2435C41.0421 49.8477 42.1379 50.452 42.8352 50.452L51.1034 50.452C52.7969 50.452 54.3908 51.3583 55.3869 52.7681L62.8582 47.9344C64.6513 45.1147 67.2413 43.5035 70.1302 43.3958C72.6207 43.3958 74.7126 44.3091 75.3103 45.3161L75.4099 46.3232C73.8161 50.2506 65.9463 58.8103 65.5479 59.2131C64.2528 60.3208 53.3946 69.4847 51.5019 70.5925L30.5823 70.6932C29.5862 70.6932 28.7892 71.4988 27.4942 73.0093C26.9961 73.6135 26.2988 74.3185 25.6015 75.1241M12.7509 61.2271C15.2413 63.4426 18.6283 66.7658 21.4176 69.4847C22.8122 70.8946 24.1072 72.103 25.0038 72.9086C25.4023 72.5058 25.8007 72.0023 26.0996 71.5995C27.4942 69.9883 28.6896 68.5784 30.682 68.5784L50.9042 68.5784C52.8965 67.2693 61.0651 60.4215 64.2528 57.7025C64.8505 57.0983 71.4253 49.8477 73.318 46.1217C72.7203 45.8196 71.6245 45.4168 70.2298 45.4168C68.636 45.5175 66.2452 46.1217 64.4521 49.1428L54.59 55.6885L54.1915 54.4801C53.7931 53.2716 52.5977 52.3653 51.203 52.3653L42.9348 52.3653C41.7394 52.3653 40.544 51.6604 39.249 50.9555C38.0536 50.2506 36.8582 49.5456 35.862 49.5456L27.7931 49.5456C24.8046 49.5456 21.7164 51.9625 20.2222 53.473C19.4253 54.2787 18.4291 55.2857 17.4329 56.2927C15.341 58.7096 13.7471 60.3208 12.7509 61.2271"/>
	<path fill="#89C5E5" d="M4.36825 64.1645L10.7078 57.7567L28.1084 75.3448L21.7689 81.7525L4.36825 64.1645"/>
	<path fill="#2D1B0A" d="M21.7163 82.9789L2.8887 63.9461L10.6588 56.0913L29.4864 75.1241L21.7163 82.9789M5.67797 63.9461L21.6167 80.0585L26.5975 75.0234L10.6588 58.911L5.67797 63.9461"/>
	<path fill="white" d="M10.7586 62.8384C10.7586 63.4502 10.268 63.9461 9.66284 63.9461C9.05764 63.9461 8.56705 63.4502 8.56705 62.8384C8.56705 62.2266 9.05764 61.7307 9.66284 61.7307C10.268 61.7307 10.7586 62.2266 10.7586 62.8384"/>
</svg>
