<?xml version="1.0" encoding="utf-8" ?>
<svg xmlns="http://www.w3.org/2000/svg" xmlns:xlink="http://www.w3.org/1999/xlink" width="110" height="122">
	<path fill="white" d="M31.913 122L31.913 115.318C31.913 111.977 34.3064 109.142 37.5975 108.636L38.6945 108.433L39.8912 105.7C40.2901 104.89 40.4896 103.978 40.7888 103.168L41.4869 100.637L12.9646 100.637C8.37715 100.637 4.68722 96.8913 4.68722 92.234L4.68722 46.3701C1.49592 41.1054 0 35.6382 0 30.0697C0 13.5668 13.2638 0 29.4198 0C29.6192 0 29.6192 0 29.7189 0C32.2121 0 34.0073 1.72116 34.107 4.15104C34.107 4.35353 34.107 4.55602 34.107 4.75851L33.9075 6.58091L32.3119 7.99834C27.7244 11.8456 25.0317 17.5154 25.0317 23.59L25.0317 25.6149L27.0263 25.6149L101.723 25.6149C106.31 25.6149 110 29.361 110 34.0183L110 92.1328C110 94.3602 109.202 96.4863 107.607 98.1062C106.011 99.7261 103.917 100.536 101.723 100.536L73.2004 100.536L73.7987 103.067C73.9982 103.978 74.2974 104.788 74.6963 105.598L75.893 108.332L76.99 108.534C80.2811 109.041 82.6745 111.876 82.6745 115.217L82.6745 122L31.913 122M44.7779 20.9577C43.7806 20.9577 42.7833 20.6539 41.9855 19.9452L40.5893 19.5402C40.3898 19.5402 40.2901 19.5402 40.0907 19.5402C38.3953 19.5402 36.9991 18.7303 36.2013 17.3129C35.6029 16.1992 35.5032 14.883 36.0018 13.5668L36.0018 12.1494C35.7026 11.4407 35.6029 10.6307 35.6029 9.92199L35.8024 7.99834L37.2983 6.88465C38.0961 6.27718 38.9937 5.97344 40.0907 5.97344L41.6863 5.46722C42.5839 4.65726 43.5811 4.25228 44.6782 4.25228C46.2738 4.25228 48.1686 5.16349 48.8667 7.59336L49.7643 8.70705C51.1605 9.61826 51.9583 10.9344 52.058 12.4531C52.058 13.9718 51.3599 15.3892 50.0635 16.3004L49.2656 17.5154C48.3681 20.0465 46.3735 20.9577 44.7779 20.9577"/>
	<path fill="#FFD071" d="M44.7779 48.0913C45.8749 48.0913 46.9719 47.9901 47.9692 47.8888C48.4678 47.7876 48.3078 48.1926 48.3078 48.2938C43.9801 54.0648 36.6002 56.5959 29.5195 56.5959C15.3581 56.5959 3.8894 44.9527 3.8894 30.5703C3.8894 16.1992 15.3581 4.5448 29.5195 4.5448C29.5195 4.5448 30.0181 4.5448 30.1179 4.85978C30.1179 5.06227 29.719 5.46725 29.719 5.46725C24.2339 10.0233 21.0426 16.9079 21.0426 24.0963C20.9429 37.2581 31.6138 48.0913 44.7779 48.0913"/>
	<path fill="#2D1B0A" d="M29.5195 57.5071C14.7598 57.5071 2.7924 45.3578 2.7924 30.4748C2.7924 15.5918 14.7598 3.4424 29.4198 3.4424C29.6192 3.4424 30.1179 3.4424 30.5168 3.74613C30.816 3.94862 30.9157 4.3536 31.0154 4.65734C31.0154 5.36605 30.4171 5.97352 30.2176 6.07477C24.932 10.5295 21.9402 17.0092 21.9402 23.8939C21.9402 30.0698 24.3337 35.8407 28.622 40.1943C32.9103 44.5478 38.5948 46.9777 44.6782 46.9777C45.7752 46.9777 46.7725 46.8764 47.7697 46.7752C48.5676 46.6739 48.9665 47.1802 49.0662 47.3826C49.3654 47.8889 49.1659 48.5976 48.9665 48.8001C44.8776 54.3685 37.7969 57.5071 29.5195 57.5071M27.9239 5.4673C15.0589 6.27725 4.78696 17.2117 4.78696 30.4748C4.78696 44.2441 15.8568 55.4822 29.4198 55.4822C36.4007 55.4822 42.3844 53.1536 46.1741 49.0026C45.6754 49.0026 45.1768 49.0026 44.5784 49.0026C37.9964 49.0026 31.7135 46.3702 27.0263 41.6117C22.3391 36.8532 19.7462 30.576 19.7462 23.7926C19.9456 16.908 22.8377 10.2258 27.9239 5.4673"/>
	<path fill="#FFD071" d="M46.9719 13.3643C45.7752 13.8705 45.1768 14.6805 45.1768 15.9967C45.1768 17.3129 44.7779 17.4141 43.98 16.4017C43.1822 15.3892 42.1849 15.0855 40.8885 15.4905C39.6917 15.8954 39.3926 15.5917 40.0907 14.478C40.7887 13.3643 40.7887 12.2506 39.9909 11.2382C39.1931 10.2257 39.5457 9.82075 40.689 10.1245C41.8858 10.4282 42.9828 10.1245 43.6809 9.01079C44.4787 7.99834 44.8776 8.09958 44.8776 9.41577C44.9773 10.7319 45.5757 11.5419 46.8722 11.9469C48.1686 12.4531 48.1686 12.8581 46.9719 13.3643"/>
	<path fill="#2D1B0A" d="M44.7779 18.1228C43.98 18.1228 43.3817 17.4141 43.1822 17.1104C42.5839 16.4017 42.0852 16.1992 41.1877 16.5029C40.7887 16.6041 39.592 17.0091 38.9936 16.1992C38.3953 15.3892 38.9936 14.3768 39.2928 13.9718C39.7915 13.2631 39.7915 12.6556 39.1931 11.9469C38.8939 11.5419 38.1958 10.5295 38.7942 9.7195C39.3926 8.90954 40.5893 9.21328 40.9882 9.31452C41.8858 9.51701 42.3844 9.31452 42.883 8.60581C43.1822 8.20083 43.8803 7.18838 44.8776 7.43614C45.8749 7.79585 45.9746 9.01079 45.9746 9.51701C45.9746 10.4282 46.3735 10.9344 47.2711 11.1369C47.67 11.2382 48.8667 11.6432 48.8667 12.6556C48.8667 13.6681 47.7697 14.1743 47.3708 14.2755C46.573 14.5793 46.1741 15.0855 46.1741 15.9967C46.1741 16.5029 46.1741 17.7178 45.1768 18.0215C45.0771 18.1228 44.8776 18.1228 44.7779 18.1228M41.8858 14.3768C42.7833 14.3768 43.4814 14.6805 44.1795 15.288C44.379 14.1743 44.9773 13.2631 45.8749 12.7569C44.8776 12.2506 44.2792 11.4407 43.98 10.327C43.1822 11.1369 42.185 11.4407 41.0879 11.3394C41.5866 12.3519 41.5866 13.3643 41.1877 14.478C41.4869 14.3768 41.6863 14.3768 41.8858 14.3768"/>
	<path fill="#424749" d="M69.3111 99.0178L69.3111 96.8917L45.2766 96.8917L45.2766 99.0178C45.2766 101.954 44.6782 104.89 43.4815 107.624L41.1877 112.888L73.2004 112.888L71.0064 107.624C69.9094 104.89 69.3111 101.954 69.3111 99.0178"/>
	<path fill="#2D1B0A" d="M75.5938 114.407L38.9936 114.407L42.1849 107.016C43.2819 104.485 43.7805 101.751 43.7805 99.0178L43.7805 95.373L70.8068 95.373L70.8068 99.0178C70.8068 101.751 71.4052 104.485 72.4025 107.016L75.5938 114.407M43.4814 111.37L71.0063 111.37L69.7098 108.231C68.5131 105.295 67.815 102.258 67.815 99.0178L46.7724 98.4103C46.7724 102.258 46.174 105.295 44.8775 108.231L43.4814 111.37"/>
	<path fill="#89C5E5" d="M101.723 96.8913L12.8648 96.8913C10.4714 96.8913 8.57655 94.9677 8.57655 92.5378L8.57655 34.4233C8.57655 31.9934 10.4714 30.0697 12.8648 30.0697L101.723 30.0697C104.116 30.0697 106.011 31.9934 106.011 34.4233L106.011 92.5378C106.011 94.8664 104.116 96.8913 101.723 96.8913"/>
	<path fill="#2D1B0A" d="M101.723 97.9039L12.8649 97.9039C9.97277 97.9039 7.5793 95.474 7.5793 92.5379L7.5793 34.4234C7.5793 31.4873 9.97277 29.0574 12.8649 29.0574L101.723 29.0574C104.615 29.0574 107.008 31.4873 107.008 34.4234L107.008 92.5379C107.008 93.9553 106.509 95.2715 105.512 96.3852C104.415 97.2964 103.119 97.9039 101.723 97.9039M12.8649 31.0823C11.0698 31.0823 9.57386 32.601 9.57386 34.4234L9.57386 92.5379C9.57386 94.3603 11.0698 95.879 12.8649 95.879L101.723 95.879C102.62 95.879 103.418 95.5752 104.016 94.8665C104.615 94.2591 105.014 93.3479 105.014 92.5379L105.014 34.4234C105.014 32.601 103.518 31.0823 101.723 31.0823L12.8649 31.0823"/>
	<path fill="#F4F4F4" d="M16.156 36.9544L98.332 36.9544L98.332 82.7171L16.156 82.7171L16.156 36.9544"/>
	<path fill="#2D1B0A" d="M99.3291 83.7295L15.1587 83.7295L15.1587 35.9419L99.3291 35.9419L99.3291 83.7295M17.1533 81.7046L97.3346 81.7046L97.3346 37.9668L17.1533 37.9668L17.1533 81.7046"/>
	<path fill="#FFD071" d="M53.9528 90.0067C53.9528 91.8291 55.4487 93.3478 57.2438 93.3478C59.0389 93.3478 60.5349 91.8291 60.5349 90.0067C60.5349 88.7917 59.9365 87.6781 58.8395 87.0706C57.8422 86.4631 56.5457 86.4631 55.5485 87.0706C54.5512 87.6781 53.9528 88.7917 53.9528 90.0067"/>
	<path fill="#2D1B0A" d="M57.2438 94.4615C54.8504 94.4615 52.9555 92.4366 52.9555 90.1079C52.9555 88.5892 53.7534 87.0706 55.1495 86.2606C56.446 85.4507 58.1414 85.4507 59.4378 86.2606C60.7343 87.0706 61.6319 88.488 61.6319 90.1079C61.6319 92.4366 59.6373 94.4615 57.2438 94.4615M57.2438 87.6781C56.8449 87.6781 56.446 87.7793 56.0471 87.9818C55.349 88.3868 54.8504 89.1967 54.8504 90.0067C54.8504 91.3229 55.9474 92.3353 57.1441 92.3353C58.4406 92.3353 59.4378 91.2216 59.4378 90.0067C59.4378 89.1967 59.0389 88.3868 58.2411 87.9818C58.0417 87.7793 57.6427 87.6781 57.2438 87.6781"/>
	<path fill="#FFD071" d="M85.5666 91.424L79.184 91.424C78.4859 91.424 77.8875 90.8166 77.8875 90.1078C77.8875 89.1966 78.4859 88.5892 79.184 88.5892L85.5666 88.5892C86.2647 88.5892 86.863 89.1966 86.863 89.9053C86.7633 90.8166 86.2647 91.424 85.5666 91.424"/>
	<path fill="#2D1B0A" d="M85.5666 92.4365L79.184 92.4365C77.8875 92.4365 76.8903 91.424 76.8903 90.1078C76.8903 88.5892 77.8875 87.5767 79.184 87.5767L85.5666 87.5767C86.8631 87.5767 87.8604 88.5892 87.8604 89.9054C87.7607 91.424 86.7633 92.4365 85.5666 92.4365M79.0843 89.6016C78.8848 89.6016 78.7851 89.7029 78.7851 89.9054C78.7851 90.3103 78.8848 90.4116 79.0843 90.4116L85.4669 90.4116C85.6663 90.4116 85.766 90.3103 85.766 90.1078C85.766 89.7029 85.6663 89.6016 85.4669 89.6016L79.0843 89.6016"/>
	<path fill="#FFD071" d="M97.7335 91.424L91.3509 91.424C90.6528 91.424 90.0544 90.8166 90.0544 90.1078C90.0544 89.1966 90.6528 88.5892 91.3509 88.5892L97.7335 88.5892C98.4316 88.5892 99.0299 89.1966 99.0299 89.9053C99.0299 90.8166 98.4316 91.424 97.7335 91.424"/>
	<path fill="#2D1B0A" d="M97.7335 92.4365L91.3509 92.4365C90.0544 92.4365 89.0572 91.424 89.0572 90.1078C89.0572 88.5892 90.0544 87.5767 91.3509 87.5767L97.7335 87.5767C99.03 87.5767 100.027 88.5892 100.027 89.9054C100.027 91.424 98.9302 92.4365 97.7335 92.4365M91.3509 89.6016C91.1514 89.6016 91.0517 89.7029 91.0517 89.9054C91.0517 90.3103 91.1514 90.4116 91.3509 90.4116L97.7335 90.4116C97.9329 90.4116 98.0327 90.3103 98.0327 90.1078C98.0327 89.7029 97.9329 89.6016 97.7335 89.6016L91.3509 89.6016"/>
	<path fill="#89C5E5" d="M78.5856 118.153L35.902 118.153L35.902 115.521C35.902 114.002 37.0987 112.787 38.5947 112.787L75.9927 112.787C77.4886 112.787 78.6853 114.002 78.6853 115.521L78.6853 118.153"/>
	<path fill="#2D1B0A" d="M79.5831 119.165L34.9049 119.165L34.9049 115.521C34.9049 113.496 36.5005 111.775 38.5948 111.775L75.9928 111.775C77.9874 111.775 79.6828 113.394 79.6828 115.521L79.6828 119.165M36.8995 117.141L77.5885 117.141L77.5885 115.521C77.5885 114.609 76.8904 113.799 75.8931 113.799L38.5948 113.799C37.6973 113.799 36.8995 114.508 36.8995 115.521L36.8995 117.141"/>
	<path fill="#F4F4F4" d="M43.1823 57.912C43.1823 66.5184 50.0635 73.403 58.4407 73.403C66.9175 73.403 73.6991 66.4171 73.6991 57.912C73.6991 49.408 66.8177 42.421 58.4407 42.421C50.0635 42.421 43.1823 49.3067 43.1823 57.912"/>
	<path fill="#2D1B0A" d="M58.4406 74.4149C49.4651 74.4149 42.1849 67.024 42.1849 57.912C42.1849 48.8 49.4651 41.4091 58.4406 41.4091C67.4161 41.4091 74.6962 48.8 74.6962 57.912C74.6962 67.024 67.4161 74.4149 58.4406 74.4149M58.4406 43.3327C50.562 43.3327 44.1795 49.8124 44.1795 57.8108C44.1795 65.8091 50.562 72.2888 58.4406 72.2888C66.3191 72.2888 72.7017 65.8091 72.7017 57.8108C72.7017 49.9137 66.3191 43.3327 58.4406 43.3327"/>
	<path fill="#2D1B0A" d="M58.3409 59.6332L52.2575 59.6332C51.6591 59.6332 51.2602 59.127 51.2602 58.6207C51.2602 58.0133 51.7589 57.6083 52.2575 57.6083L57.3436 57.6083L57.3436 48.4963C57.3436 47.8888 57.8423 47.4838 58.3409 47.4838C58.9393 47.4838 59.3382 47.99 59.3382 48.4963L59.3382 58.6207C59.3382 58.9245 59.2385 59.127 59.039 59.3294C58.9393 59.5319 58.6401 59.6332 58.3409 59.6332"/>
	<path fill="#2D1B0A" d="M67.2167 65.6067C67.0172 65.6067 66.9175 65.6067 66.718 65.4042L57.5431 59.127C57.3436 59.0258 57.1441 58.8233 57.1441 58.5195C57.1441 58.317 57.1441 58.0133 57.1441 57.8108C57.5431 57.4317 58.0417 57.3046 58.4406 57.6083L67.6155 63.8855C68.0145 64.1892 68.1143 64.6955 67.815 65.1004C67.815 65.5054 67.5159 65.6067 67.2167 65.6067"/>
</svg>
