<?xml version="1.0" encoding="utf-8" ?>
<svg xmlns="http://www.w3.org/2000/svg" xmlns:xlink="http://www.w3.org/1999/xlink" width="76" height="98">
	<path fill="white" d="M19.9686 97.8988C17.2863 97.8988 15.0013 95.7727 14.6039 93.0393L5.96078 19.3368L3.57647 19.1343C1.39085 18.9318 0 17.2107 0 14.9835L0 12.0475C0 9.61777 1.68889 7.89669 4.0732 7.89669L5.36471 7.89669L10.7294 2.32851C12.319 0.911157 14.2065 0.10124 16.2928 0L59.7072 0C61.7935 0.10124 63.7804 1.0124 65.3699 2.42975L70.6353 7.89669L71.9268 7.89669C74.3111 7.89669 76 9.61777 76 12.0475L76 14.9835C76 17.1095 74.7085 18.7293 72.7216 19.1343L70.5359 19.5393L61.7935 93.1405C61.3961 95.874 59.1111 97.8988 56.4288 98L19.9686 97.8988"/>
	<path fill="#242933" d="M62.9856 4.55578C61.8928 3.54339 60.6013 3.03719 59.1111 2.93595L16.0942 2.93595C14.7033 3.03719 13.3125 3.64463 12.319 4.55578L7.05365 10.0227C6.75561 10.3265 6.91015 10.8326 7.35169 10.8326L67.8537 10.8326C68.2952 10.8326 68.4498 10.3265 68.1516 10.0227L62.9856 4.55578"/>
	<path fill="#2D1B0A" d="M67.9528 11.7438L7.4411 11.7438C6.84492 11.7438 6.34811 11.3389 6.05002 10.8327C5.75194 10.3265 5.9065 9.61777 6.34811 9.21282L11.6143 3.74587C12.906 2.531 14.3965 1.92356 16.0856 1.82232L59.2089 1.82232C60.8981 1.92356 62.4879 2.63224 63.7796 3.74587L69.0458 9.21282C69.4432 9.61777 69.5426 10.2252 69.3439 10.8327C69.0458 11.4401 68.549 11.7438 67.9528 11.7438M8.63345 9.71901L66.6611 9.71901L62.2891 5.16323C61.3949 4.35331 60.3019 3.84711 59.1095 3.84711L16.185 3.84711C15.092 3.94835 13.8997 4.45455 13.0054 5.26447L8.63345 9.71901"/>
	<path fill="#E5F4F9" d="M65.2706 16.3501L8.3451 16.3501L13.0144 55.6311L17.3856 92.5836C17.5843 93.8997 18.6771 94.8109 19.9686 94.9121L56.1307 94.9121C57.4222 94.9121 58.515 93.8997 58.7137 92.5836L63.085 55.6311L67.7543 16.3501L65.2706 16.3501"/>
	<path fill="#2D1B0A" d="M19.8693 95.8739C18.0811 95.8739 16.5909 94.5578 16.2929 92.7355L7.153 15.3884L68.6484 15.3884L59.5086 92.7355C59.2105 94.5578 57.8197 95.8739 56.0314 95.8739L19.8693 95.8739M9.43797 17.4132L18.2798 92.4318C18.3791 93.2417 19.0746 93.8491 19.8693 93.8491L56.0314 93.8491C56.8262 93.8491 57.5216 93.2417 57.621 92.4318L66.4628 17.4132L9.43797 17.4132"/>
	<path fill="#242933" d="M3.78216 10.7314L71.5365 10.7314C72.3311 10.7314 72.6293 11.1364 72.6293 11.845L72.6293 14.781C72.6293 15.5909 72.2319 15.8946 71.5365 15.8946L3.78216 15.8946C2.98739 15.8946 2.68935 15.4897 2.68935 14.781L2.68935 11.845C2.68935 11.1364 2.98739 10.7314 3.78216 10.7314"/>
	<path fill="#2D1B0A" d="M71.5357 17.1095L3.77536 17.1095C2.48374 17.1095 1.6889 16.2996 1.6889 14.9835L1.6889 12.0475C1.6889 10.7314 2.48374 9.92149 3.77536 9.92149L71.5357 9.92149C72.8273 9.92149 73.6297 10.7314 73.6297 12.0475L73.6297 14.9835C73.7215 16.1983 72.8273 17.1095 71.5357 17.1095M3.67601 15.0847C3.67601 15.0847 3.77536 15.0847 3.77536 15.0847L71.5357 15.0847C71.6351 15.0847 71.6351 15.0847 71.6351 15.0847C71.6351 15.0847 71.6351 14.9835 71.6351 14.9835L71.6351 12.0475C71.6351 11.9463 71.6351 11.9463 71.6351 11.9463C71.6351 11.9463 71.5357 11.9463 71.5357 11.9463L3.77536 11.9463C3.67601 11.9463 3.67601 11.9463 3.67601 11.9463C3.67601 11.9463 3.67601 12.0475 3.67601 12.0475L3.67601 14.9835C3.67601 14.9835 3.67601 14.9835 3.67601 15.0847"/>
	<path fill="#99CC62" d="M10.332 33.004L13.0143 55.6817L13.6104 60.9461L62.0915 60.9461L62.6876 55.6817L65.3699 33.004"/>
	<path fill="#2D1B0A" d="M62.9856 61.9585L12.8157 61.9585L9.2392 31.9916L66.4627 31.9916L62.9856 61.9585M14.5046 59.9337L61.1974 59.9337L64.2771 34.0164L11.4248 34.0164L14.5046 59.9337"/>
	<path fill="white" d="M47.6587 47.1776C47.6587 51.126 45.2743 54.7706 41.6979 56.2892C38.1214 57.8078 33.9488 56.9979 31.1671 54.1632C28.3413 51.3285 27.5907 47.0764 29.0809 43.4318C30.5711 39.7871 34.1475 37.3557 38.0221 37.3557C43.2874 37.3557 47.6587 41.7107 47.6587 47.1776"/>
</svg>
