<?xml version="1.0" encoding="utf-8" ?>
<svg xmlns="http://www.w3.org/2000/svg" xmlns:xlink="http://www.w3.org/1999/xlink" width="94" height="94">
	<path fill="white" d="M0 94L0 84.2312C0 80.842 2.33163 78.2503 5.2715 78.2503L37.0019 78.2503L10.0361 51.6352C7.09625 48.7444 7.09625 44.1591 10.0361 41.2683L14.1925 37.1813C15.6118 35.7858 17.4365 35.088 19.464 35.088C20.0723 35.088 20.6805 35.1877 21.2888 35.2874L22.9108 35.6861L44.0981 14.8526L43.6926 13.2577C43.5913 12.6596 43.4899 12.0615 43.4899 11.4634C43.4899 9.46978 44.3009 7.6755 45.6188 6.27996L49.8765 2.09332C51.2958 0.697773 53.1205 0 55.148 0C57.1755 0 59.0003 0.797455 60.4195 2.09332L82.5193 23.824C83.9385 25.2195 84.7495 27.0138 84.7495 29.0074C84.7495 31.0011 83.9385 32.7953 82.5193 34.1909L78.2615 38.3775C76.8423 39.7731 75.0175 40.4708 72.99 40.4708C72.3818 40.4708 71.7735 40.3712 71.1653 40.2715L69.5433 39.8727L65.9951 43.3616L91.3389 68.2821C94.887 71.7709 94.887 77.3531 91.3389 80.7423L90.021 82.0382C88.2977 83.7328 86.0674 84.6299 83.6344 84.6299C81.2014 84.6299 78.9712 83.7328 77.2478 82.0382L51.904 57.1177L48.2545 60.7063L48.66 62.3012C49.2683 64.7932 48.5586 67.4846 46.7339 69.2789L37.6101 78.2503L50.8903 78.2503C53.8301 78.2503 56.1618 80.842 56.1618 84.2312L56.1618 94L0 94"/>
	<path fill="#242933" d="M54.3624 46.8504L55.6803 45.5546C58.0119 43.2619 61.7628 43.2619 64.0944 45.5546L89.2354 70.2757C91.567 72.5683 91.567 76.2565 89.2354 78.5492L87.9175 79.8452C85.5859 82.1378 81.835 82.1378 79.5034 79.8452L54.3624 55.124C52.1321 52.8313 52.1321 49.1431 54.3624 46.8504"/>
	<path fill="#2D1B0A" d="M83.7358 82.5366C81.9111 82.5366 80.0863 81.8388 78.8698 80.543L53.7288 55.8219C52.4109 54.526 51.7013 52.8314 51.7013 51.0371C51.7013 49.2429 52.4109 47.4486 53.7288 46.2524L55.0467 44.9565C56.3646 43.6607 58.0879 42.9629 59.9127 42.9629C61.7374 42.9629 63.5622 43.6607 64.7787 44.9565L89.9197 69.6776C92.6568 72.3691 92.6568 76.6554 89.9197 79.3468L88.6018 80.6426C87.2839 81.8388 85.5606 82.5366 83.7358 82.5366M59.8113 44.8569C58.4934 44.8569 57.2769 45.3553 56.3646 46.2524L55.0467 47.5483C54.1343 48.4454 53.6274 49.6416 53.6274 50.9374C53.6274 52.2333 54.1343 53.4295 55.0467 54.3266L80.1877 79.0477C81.1001 79.9449 82.3166 80.4433 83.6344 80.4433C84.9523 80.4433 86.1688 79.9449 87.0812 79.0477L88.3991 77.7519C90.3252 75.8579 90.3252 72.7678 88.3991 70.8738L63.2581 46.1527C62.4471 45.3553 61.1292 44.8569 59.8113 44.8569"/>
	<path fill="#E5F4F9" d="M23.1036 39.7368L48.2641 14.9997L69.3413 35.7223L44.1808 60.4594L23.1036 39.7368"/>
	<path fill="#2D1B0A" d="M44.1995 61.9025L21.6942 39.7731L48.3558 13.5568L70.8611 35.6862L44.1995 61.9025M24.5327 39.6734L44.1995 59.0117L67.9212 35.6862L48.2545 16.3479L24.5327 39.6734"/>
	<path fill="#99CC62" d="M44.7062 67.086L40.4486 71.2726C38.7252 72.9672 35.988 72.9672 34.2646 71.2726L12.1649 49.542C10.4415 47.8474 10.4415 45.156 12.1649 43.4614L16.4226 39.3744C18.146 37.6799 20.8832 37.6799 22.6065 39.3744L44.7062 61.1051C46.4296 62.7 46.4296 65.3914 44.7062 67.086"/>
	<path fill="#2D1B0A" d="M37.3059 73.4656C35.8866 73.4656 34.4674 72.8675 33.4536 71.8707L11.3539 50.1401C9.22498 48.0467 9.22498 44.6576 11.3539 42.5642L15.6116 38.4773C17.7405 36.384 21.1872 36.384 23.3161 38.4773L45.4159 60.2079C47.5447 62.3013 47.5447 65.6904 45.4159 67.7838L41.1581 71.9704C40.1444 72.9672 38.8265 73.4656 37.3059 73.4656M19.4639 38.9757C18.5515 38.9757 17.7405 39.2747 17.0309 39.9725L12.7731 44.0595C11.4552 45.3553 11.4552 47.4487 12.7731 48.7445L34.8729 70.4752C36.1907 71.771 38.421 71.771 39.6375 70.4752L43.8952 66.2885C45.2131 64.9927 45.2131 62.8993 43.8952 61.6035L21.7955 39.8728C21.1872 39.2747 20.3762 38.9757 19.4639 38.9757"/>
	<path fill="#99CC62" d="M80.289 31.998L76.1328 36.0849C74.4093 37.7795 71.6722 37.7795 69.9489 36.0849L47.8491 14.3543C46.1257 12.6597 46.1257 9.96829 47.8491 8.2737L52.0055 4.18674C53.7288 2.49215 56.466 2.49215 58.1894 4.18674L80.289 25.9174C82.0125 27.612 82.0125 30.3034 80.289 31.998"/>
	<path fill="#2D1B0A" d="M72.99 38.4772C71.5708 38.4772 70.2529 37.9788 69.1378 36.8823L47.038 15.1517C46.0243 14.1548 45.416 12.859 45.416 11.3638C45.416 9.86853 46.0243 8.57266 47.038 7.57585L51.1944 3.48889C53.3232 1.39557 56.77 1.39557 58.8989 3.48889L80.9986 25.2195C82.0124 26.2164 82.6206 27.5122 82.6206 29.0074C82.6206 30.403 82.0124 31.7985 80.9986 32.7954L76.8423 36.8823C75.7271 37.8791 74.4093 38.4772 72.99 38.4772M55.148 3.88762C54.2356 3.88762 53.4246 4.18666 52.715 4.88444L48.5586 8.97139C47.9504 9.56948 47.5449 10.4666 47.5449 11.3638C47.5449 12.2609 47.849 13.0583 48.5586 13.7561L70.6584 35.4868C71.9763 36.7826 74.1051 36.7826 75.423 35.4868L79.6808 31.3001C80.289 30.702 80.6945 29.8049 80.6945 28.9078C80.6945 28.0106 80.3904 27.2132 79.6808 26.5154L57.581 4.78475C56.8714 4.28634 55.959 3.88762 55.148 3.88762"/>
	<path fill="#FFD071" d="M3.04135 91.0095L3.04135 84.2311C3.04135 82.5365 4.0551 81.2407 5.2716 81.2407L50.8904 81.2407C52.1068 81.2407 53.1207 82.5365 53.1207 84.2311L53.1207 91.0095L3.04135 91.0095"/>
	<path fill="#2D1B0A" d="M54.1343 92.0063L2.0275 92.0063L2.0275 84.2311C2.0275 82.0381 3.44675 80.2439 5.2715 80.2439L50.8903 80.2439C52.715 80.2439 54.1343 82.0381 54.1343 84.2311L54.1343 92.0063M4.055 90.0127L52.1068 90.0127L52.1068 84.2311C52.1068 83.1346 51.4985 82.2375 50.8903 82.2375L5.2715 82.2375C4.66325 82.2375 4.055 83.1346 4.055 84.2311L4.055 90.0127"/>
</svg>
