<?xml version="1.0" encoding="utf-8" ?>
<svg xmlns="http://www.w3.org/2000/svg" xmlns:xlink="http://www.w3.org/1999/xlink" width="116" height="64">
	<path fill="white" d="M7.7 64C3.5 64 0 60.5732 0 56.2394L0 7.76063C0 3.52756 3.4 0 7.7 0L100.6 0C102.7 0 104.8 0.907087 106.3 2.51969C107.9 4.13228 108.7 6.14803 108.7 8.36535L108.7 15.622L116 15.622L116 48.2772L108.7 48.2772L108.7 55.3323C108.7 56.8441 108.3 58.3559 107.5 59.6661C106.1 62.2866 103.5 63.8992 100.6 63.8992L7.7 63.8992"/>
	<path fill="#6D9933" d="M96.7 19.704L112 19.704L112 44.2961L96.7 44.2961L96.7 19.704"/>
	<path fill="#2D1B0A" d="M113 45.3041L95.7 45.3041L95.7 18.6962L113 18.6962L113 45.3041M97.7 43.2883L111 43.2883L111 20.7119L97.7 20.7119L97.7 43.2883"/>
	<path fill="#E5F4F9" d="M7.7 4.1323L100.6 4.1323C102.6 4.1323 104.3 5.7449 104.3 7.86143L104.3 56.3402C104.3 58.3559 102.7 60.0693 100.6 60.0693L7.7 60.0693C5.7 60.0693 4 58.4567 4 56.3402L4 7.86143C4 5.7449 5.7 4.1323 7.7 4.1323"/>
	<path fill="#2D1B0A" d="M100.6 61.4803L7.7 61.4803C4.9 61.4803 2.5 59.1622 2.5 56.2394L2.5 7.76064C2.5 4.9386 4.8 2.5197 7.7 2.5197L100.6 2.5197C103.4 2.5197 105.8 4.83781 105.8 7.76064L105.8 56.2394C105.8 59.1622 103.4 61.4803 100.6 61.4803M7.7 5.64411C6.5 5.64411 5.5 6.65198 5.5 7.86143L5.5 56.3402C5.5 57.5496 6.5 58.5575 7.7 58.5575L100.6 58.5575C101.8 58.5575 102.8 57.5496 102.8 56.3402L102.8 7.86143C102.8 6.65198 101.8 5.64411 100.6 5.64411L7.7 5.64411"/>
	<path fill="#99CC62" d="M72.5 4.33385L100.6 4.33385C102.9 4.33385 104.7 6.14802 104.7 8.46613L104.7 55.4331C104.7 57.6504 102.9 59.5653 100.6 59.5653L72.5 59.5653L72.5 4.33385"/>
	<path fill="#2D1B0A" d="M100.6 60.4724L71.5 60.4724L71.5 3.2252L100.6 3.2252C103.4 3.2252 105.7 5.54331 105.7 8.36536L105.7 55.3323C105.7 58.2551 103.4 60.4724 100.6 60.4724M73.5 58.4567L100.6 58.4567C102.3 58.4567 103.7 57.0457 103.7 55.3323L103.7 8.36536C103.7 6.65197 102.3 5.24095 100.6 5.24095L73.5 5.24095L73.5 58.4567"/>
	<path fill="#FFD071" d="M57.3 17.8393L45 33.3606L53.3 33.3606L48.1 46.7654L62.4 29.9338L53.2 29.6315L57.3 17.8393"/>
	<path fill="#2D1B0A" d="M45.1 51.9055L51.9 34.3685L42.9 34.3685L60.1 12.6992L54.7 28.7244L64.7 29.0268L45.1 51.9055M47 32.3527L54.7 32.3527L51.1 41.6252L60.3 30.8409L51.8 30.6394L54.4 22.9795L47 32.3527"/>
	<path fill="#FFB103" d="M60 31.4456L48.6 31.244L47.6 32.5543L54.7 32.6551L49.9 45.0519L60 31.4456"/>
</svg>
