<?xml version="1.0" encoding="utf-8" ?>
<svg xmlns="http://www.w3.org/2000/svg" xmlns:xlink="http://www.w3.org/1999/xlink" width="104" height="86">
	<path fill="white" d="M8.16077 86C3.6823 86 0 82.4918 0 78.1818L0 7.81818C0 3.50816 3.6823 0 8.16077 0L95.8392 0C100.318 0 104 3.50816 104 7.81818L104 78.1818C104 80.1865 103.204 82.1911 101.711 83.5944C100.218 85.1981 98.0287 86 95.7397 86L8.16077 86"/>
	<path fill="#FFFBF8" d="M7.91187 83.2937C5.02575 83.2937 2.73675 81.0886 2.73675 78.4825L2.73675 8.11894C2.73675 5.41265 5.12527 3.30775 7.91187 3.30775L95.5903 3.30775C98.4764 3.30775 100.765 5.51288 100.765 8.11894L100.765 78.4825C100.765 79.6853 100.268 80.8881 99.3721 81.7902C98.3769 82.7925 96.9837 83.3939 95.4908 83.3939L7.91187 83.3939"/>
	<path fill="#2D1B0A" d="M95.5407 4.20986C97.8297 4.20986 99.7206 5.91382 99.7206 8.01872L99.7206 78.3824C99.7206 80.4873 97.8297 82.1912 95.5407 82.1912L7.86223 82.1912C5.57324 82.1912 3.68233 80.4873 3.68233 78.3824L3.68233 8.01872C3.68233 5.91382 5.57324 4.20986 7.86223 4.20986L95.5407 4.20986M95.5407 2.2052L7.86223 2.2052C4.4785 2.2052 1.6919 4.81126 1.6919 8.01872L1.6919 78.3824C1.6919 81.5898 4.4785 84.1959 7.86223 84.1959L95.5407 84.1959C97.2326 84.1959 98.9244 83.4942 100.119 82.2914C101.213 81.1889 101.811 79.7856 101.811 78.2821L101.811 7.91849C101.811 4.81126 98.9244 2.2052 95.5407 2.2052"/>
	<path fill="#99CC62" d="M6.71972 3.30768L96.7867 3.30768C99.0757 3.30768 100.867 5.21211 100.867 7.41724L100.867 13.331L2.7349 13.331L2.7349 7.41724C2.7349 5.21211 4.43072 3.30768 6.71972 3.30768"/>
	<path fill="#2D1B0A" d="M101.91 14.4336L1.6919 14.4336L1.6919 7.51748C1.6919 4.71095 3.9809 2.40559 6.7675 2.40559L96.8345 2.40559C99.6211 2.40559 101.91 4.71095 101.91 7.51748L101.91 14.4336M3.68233 12.4289L99.8201 12.4289L99.8201 7.51748C99.8201 5.81352 98.4268 4.41025 96.735 4.41025L6.66798 4.41025C4.97611 4.41025 3.58281 5.81352 3.58281 7.51748L3.58281 12.4289"/>
	<path fill="#99CC62" d="M31.2499 33.0769L17.1178 33.0769C15.3264 33.0769 13.8336 31.5734 13.8336 29.7692C13.8336 27.965 15.3264 26.4615 17.1178 26.4615L31.2499 26.4615C33.0413 26.4615 34.5341 27.965 34.5341 29.7692C34.5341 31.6736 33.0413 33.0769 31.2499 33.0769"/>
	<path fill="#2D1B0A" d="M31.2497 34.0792L17.1176 34.0792C14.7291 34.0792 12.8382 32.1748 12.8382 29.7692C12.8382 27.3636 14.7291 25.4592 17.1176 25.4592L31.2497 25.4592C33.6382 25.4592 35.5291 27.3636 35.5291 29.7692C35.5291 32.1748 33.6382 34.0792 31.2497 34.0792M17.1176 27.5641C15.8239 27.5641 14.8286 28.5664 14.8286 29.8694C14.8286 31.1725 15.8239 32.1748 17.1176 32.1748L31.2497 32.1748C32.5435 32.1748 33.5387 31.1725 33.5387 29.8694C33.5387 28.5664 32.5435 27.5641 31.2497 27.5641L17.1176 27.5641"/>
	<path fill="#E63B56" d="M58.8173 42.8998L44.6852 42.8998C42.8938 42.8998 41.401 41.3963 41.401 39.5921C41.401 37.7879 42.8938 36.2844 44.6852 36.2844L58.8173 36.2844C60.6087 36.2844 62.1015 37.7879 62.1015 39.5921C62.1015 41.4965 60.7082 42.8998 58.8173 42.8998"/>
	<path fill="#2D1B0A" d="M58.8171 43.9021L44.685 43.9021C42.2965 43.9021 40.4056 41.9977 40.4056 39.5921C40.4056 37.1865 42.2965 35.2821 44.685 35.2821L58.8171 35.2821C61.2056 35.2821 63.0965 37.1865 63.0965 39.5921C63.0965 41.9977 61.2056 43.9021 58.8171 43.9021M44.7846 37.387C43.4908 37.387 42.4956 38.3893 42.4956 39.6923C42.4956 40.9954 43.4908 41.9977 44.7846 41.9977L58.9166 41.9977C60.2104 41.9977 61.2056 40.9954 61.2056 39.6923C61.2056 38.3893 60.2104 37.387 58.9166 37.387L44.7846 37.387"/>
	<path fill="#89C5E5" d="M38.8135 59.338L24.6814 59.338C22.89 59.338 21.3972 57.8345 21.3972 56.0303C21.3972 54.2261 22.89 52.7226 24.6814 52.7226L38.8135 52.7226C40.6049 52.7226 42.0977 54.2261 42.0977 56.0303C42.0977 57.9347 40.7044 59.338 38.8135 59.338"/>
	<path fill="#2D1B0A" d="M38.8133 60.3403L24.6812 60.3403C22.2927 60.3403 20.4018 58.4359 20.4018 56.0303C20.4018 53.6247 22.2927 51.7203 24.6812 51.7203L38.8133 51.7203C41.2018 51.7203 43.0927 53.6247 43.0927 56.0303C43.0927 58.4359 41.2018 60.3403 38.8133 60.3403M24.6812 53.8252C23.3875 53.8252 22.3922 54.8275 22.3922 56.1305C22.3922 57.4336 23.3875 58.4359 24.6812 58.4359L38.8133 58.4359C40.1071 58.4359 41.1023 57.4336 41.1023 56.1305C41.1023 54.8275 40.1071 53.8252 38.8133 53.8252L24.6812 53.8252"/>
	<path fill="#FFD071" d="M86.6833 52.8228L72.5513 52.8228C70.7599 52.8228 69.2671 51.3193 69.2671 49.5151C69.2671 47.7109 70.7599 46.2074 72.5513 46.2074L86.6833 46.2074C88.4747 46.2074 89.9675 47.7109 89.9675 49.5151C89.9675 51.3193 88.4747 52.8228 86.6833 52.8228M67.0777 69.1608L52.9456 69.1608C51.1542 69.1608 49.6614 67.6573 49.6614 65.8531C49.6614 64.0489 51.1542 62.5454 52.9456 62.5454L67.0777 62.5454C68.869 62.5454 70.3618 64.0489 70.3618 65.8531C70.3618 67.7575 68.869 69.1608 67.0777 69.1608"/>
	<path fill="#2D1B0A" d="M67.0777 70.1631L52.9456 70.1631C50.5571 70.1631 48.6662 68.2587 48.6662 65.8531C48.6662 63.4475 50.5571 61.5431 52.9456 61.5431L67.0777 61.5431C69.4662 61.5431 71.3571 63.4475 71.3571 65.8531C71.3571 68.2587 69.4662 70.1631 67.0777 70.1631M52.9456 63.648C51.6518 63.648 50.6566 64.6503 50.6566 65.9534C50.6566 67.2564 51.6518 68.2587 52.9456 68.2587L67.0777 68.2587C68.3715 68.2587 69.3667 67.2564 69.3667 65.9534C69.3667 64.6503 68.3715 63.648 67.0777 63.648L52.9456 63.648M86.6834 53.8251L72.5514 53.8251C70.1629 53.8251 68.2719 51.9207 68.2719 49.5151C68.2719 47.1095 70.1629 45.2051 72.5514 45.2051L86.6834 45.2051C89.0719 45.2051 90.9629 47.1095 90.9629 49.5151C90.9629 51.9207 88.9724 53.8251 86.6834 53.8251M72.5514 47.2098C71.2576 47.2098 70.2624 48.2121 70.2624 49.5151C70.2624 50.8181 71.2576 51.8205 72.5514 51.8205L86.6834 51.8205C87.9772 51.8205 88.9724 50.8181 88.9724 49.5151C88.9724 48.2121 87.9772 47.2098 86.6834 47.2098L72.5514 47.2098"/>
	<path fill="#2D1B0A" d="M41.5005 40.0933L36.6239 40.0933L36.6239 30.7716L34.5339 30.7716L34.5339 28.767L38.6143 28.767L38.6143 38.0886L41.5005 38.0886"/>
	<path fill="#2D1B0A" d="M69.267 50.2168L64.4899 50.2168L64.4899 40.6947L62.1014 40.6947L62.1014 38.69L66.4804 38.69L66.4804 48.2121L69.267 48.2121"/>
	<path fill="#2D1B0A" d="M49.7608 67.056L44.4861 67.056L44.4861 57.1329L42.0976 57.1329L42.0976 55.1283L46.4766 55.1283L46.4766 65.0513L49.7608 65.0513"/>
</svg>
