<?xml version="1.0" encoding="utf-8" ?>
<svg xmlns="http://www.w3.org/2000/svg" xmlns:xlink="http://www.w3.org/1999/xlink" width="82" height="82">
	<path fill="#FFFBF8" d="M47.6391 79.4723C46.6255 76.7423 43.8888 74.8212 41 74.8212C38.0099 74.8212 35.3745 76.6412 34.2596 79.4723L33.246 82L30.6106 81.2922C26.759 80.2811 23.11 78.7645 19.6638 76.8434L17.3325 75.4279L18.4475 73.0012C19.6638 70.2713 19.0556 67.1369 17.0284 65.0136C15.7108 63.6991 13.8863 62.8903 11.9604 62.8903C10.9468 62.8903 9.93325 63.0925 9.02101 63.4969L6.58838 64.6091L5.16934 62.2836C3.14215 58.8459 1.62176 55.2059 0.709518 51.3637L0 48.7349L2.53399 47.7238C5.2707 46.7127 7.19654 43.9827 7.19654 41C7.19654 38.1184 5.37206 35.4895 2.53399 34.3773L0 33.3662L0.709518 30.7374C1.72311 26.8952 3.24351 23.2552 5.2707 19.8175L6.68974 17.492L9.12237 18.6042C10.0346 19.0086 11.0482 19.2109 12.0618 19.2109C13.9876 19.2109 15.8121 18.5031 17.1298 17.0875C19.2583 14.9642 19.7651 11.8298 18.5488 9.09988L17.4339 6.67324L19.7651 5.25771C23.2114 3.23551 26.8603 1.71887 30.712 0.707768L33.3473 0L34.3609 2.52774C35.3745 5.25771 38.1112 7.17879 41 7.17879C43.9901 7.17879 46.6255 5.35882 47.7404 2.52774L48.754 0L51.3894 0.707768C55.241 1.71887 58.89 3.23551 62.3362 5.1566L64.6675 6.57213L63.5525 8.99877C62.3362 11.7287 62.9444 14.8631 64.9716 16.9864C66.2892 18.3009 68.1137 19.1097 70.0396 19.1097C71.0532 19.1097 72.0667 18.9075 72.979 18.5031L75.4116 17.3909L76.8307 19.7164C78.8578 23.1541 80.3782 26.7941 81.2905 30.6363L82 33.2651L79.466 34.2762C76.7293 35.2873 74.8035 38.0173 74.8035 41C74.8035 43.8816 76.6279 46.6116 79.466 47.6227L82 48.6338L81.2905 51.2626C80.2769 55.1048 78.7565 58.7448 76.7293 62.1825L75.3103 64.508L72.8776 63.3958C71.9654 62.9914 70.9518 62.7891 69.9382 62.7891C68.0124 62.7891 66.1879 63.4969 64.8702 64.9125C62.7417 67.0358 62.2349 70.1702 63.4512 72.9001L64.5661 75.3268L62.2349 76.7423C58.7886 78.7645 55.1397 80.2811 51.288 81.2922L48.6527 82L47.6391 79.4723M41 28.5129C33.9555 28.5129 28.178 34.1751 28.178 41.2528C28.178 48.3305 33.8541 53.9926 41 53.9926C47.9431 53.9926 53.7206 48.3305 53.7206 41.2528C53.7206 34.1751 47.9431 28.5129 41 28.5129"/>
	<path fill="#3E4D70" d="M71.7119 41.1517C71.7119 36.9051 74.3472 33.164 78.3002 31.6474C77.388 28.1085 75.969 24.6708 74.1445 21.5364C70.2928 23.2553 65.7317 22.4464 62.7923 19.4131C59.7514 16.3798 58.9406 11.931 60.6637 8.0888C57.5215 6.26882 54.0754 4.85329 50.5278 3.9433C49.0074 7.78547 45.3583 10.5154 41 10.5154C36.7429 10.5154 32.9925 7.88658 31.4722 3.9433C27.9246 4.85329 24.4783 6.26882 21.3362 8.0888C23.0592 11.931 22.2484 16.4809 19.2076 19.4131C16.1667 22.3453 11.707 23.2553 7.8553 21.5364C6.03082 24.6708 4.61179 28.1085 3.69955 31.6474C7.55122 33.164 10.2879 36.804 10.2879 41.1517C10.2879 45.3983 7.65258 49.1394 3.69955 50.656C4.61179 54.1948 6.03082 57.6326 7.8553 60.767C11.707 59.0481 16.2682 59.857 19.2076 62.8903C22.2484 65.9236 23.0592 70.3724 21.3362 74.2146C24.4783 76.0345 27.9246 77.4501 31.4722 78.3601C32.9925 74.5179 36.6414 71.7879 41 71.7879C45.257 71.7879 49.0074 74.4168 50.5278 78.3601C54.0754 77.4501 57.5215 76.0345 60.6637 74.2146C58.9406 70.3724 59.7514 65.8225 62.7923 62.8903C65.833 59.857 70.2928 59.0481 74.1445 60.767C75.969 57.6326 77.388 54.1948 78.3002 50.656C74.3472 49.2405 71.7119 45.3983 71.7119 41.1517M41 56.9248C32.283 56.9248 25.1879 49.8471 25.1879 41.1517C25.1879 32.4562 32.283 25.3786 41 25.3786C49.7169 25.3786 56.812 32.4562 56.812 41.1517C56.812 49.8471 49.7169 56.9248 41 56.9248"/>
	<path fill="#2D1B0A" d="M49.9196 79.5734C48.2979 75.2257 44.8517 72.9002 41 72.9002C37.1483 72.9002 33.8034 75.2257 32.3844 78.7645L31.1681 79.3712C27.5191 78.4612 24.0729 77.0457 20.8294 75.1246L20.424 73.8101C21.9444 70.3724 21.2348 66.2269 18.4981 63.5981C15.8628 60.9692 11.707 60.1603 8.2608 61.677L6.94313 61.2725C5.01729 58.037 3.59826 54.5993 2.68602 50.9593L3.29418 49.746C6.84177 48.4316 9.17304 44.9939 9.17304 41.1517C9.17304 37.3095 6.84177 33.9729 3.29418 32.5574L2.68602 31.3441C3.59826 27.7041 5.01729 24.2664 6.94313 21.0309L8.2608 20.6264C11.707 22.1431 15.8628 21.4353 18.4981 18.7053C21.1335 16.0765 21.9444 11.931 20.424 8.49326L20.8294 7.17883C24.0729 5.25774 27.5191 3.84221 31.1681 2.93222L32.3844 3.53888C33.7021 7.07772 37.1483 9.40324 41 9.40324C44.8517 9.40324 48.1965 7.07772 49.6156 3.53888L50.8319 2.93222C54.4808 3.84221 57.9271 5.25774 61.1706 7.17883L61.576 8.49326C60.0556 11.931 60.7651 16.0765 63.5018 18.7053C66.1372 21.3342 70.2929 22.1431 73.7392 20.6264L75.0568 21.0309C76.9827 24.2664 78.4017 27.7041 79.314 31.3441L78.7058 32.5574C75.1582 33.8718 72.8269 37.3095 72.8269 41.1517C72.8269 44.8928 75.2596 48.3305 78.7058 49.746L79.314 50.9593C78.4017 54.5993 76.9827 58.037 75.0568 61.2725L73.7392 61.677C70.2929 60.1603 66.1372 60.8681 63.5018 63.5981C60.8665 66.2269 60.0556 70.3724 61.576 73.8101L61.1706 75.1246C57.9271 77.0457 54.4808 78.4612 50.8319 79.3712M22.6539 73.8101C25.2892 75.2257 28.0259 76.439 30.864 77.2479C32.6885 73.3046 36.6415 70.878 41 70.878C45.3585 70.878 49.3115 73.4057 51.136 77.2479C53.974 76.439 56.8121 75.3268 59.3461 73.8101C57.9271 69.7658 58.9407 65.2158 61.9814 62.1825C65.0222 59.1492 69.5834 58.1381 73.6378 59.5537C75.1582 56.9248 76.2732 54.1949 77.084 51.3638C73.2324 49.5438 70.6984 45.6005 70.6984 41.2528C70.6984 36.9051 73.2324 32.9618 77.084 31.1418C76.2732 28.3108 75.1582 25.4797 73.6378 22.9519C69.5834 24.3675 65.0222 23.3564 61.9814 20.3231C58.9407 17.2898 57.9271 12.7399 59.3461 8.69547C56.7107 7.27994 53.974 6.06662 51.136 5.25774C49.3115 9.20102 45.3585 11.6277 41 11.6277C36.6415 11.6277 32.6885 9.09991 30.864 5.25774C28.0259 6.06662 25.1879 7.17883 22.6539 8.69547C24.0729 12.7399 23.0593 17.2898 20.0185 20.3231C16.9777 23.3564 12.4166 24.3675 8.36216 22.9519C6.94313 25.5808 5.72681 28.3108 4.91593 31.1418C8.86896 32.9618 11.3016 36.9051 11.3016 41.2528C11.3016 45.6005 8.7676 49.5438 4.91593 51.3638C5.72681 54.1949 6.84177 57.0259 8.36216 59.5537C12.4166 58.1381 16.9777 59.1492 20.0185 62.1825C23.0593 65.2158 24.0729 69.7658 22.6539 73.8101M41 57.9359C31.7763 57.9359 24.1743 50.4538 24.1743 41.1517C24.1743 31.8496 31.6749 24.3675 41 24.3675C50.2237 24.3675 57.8257 31.8496 57.8257 41.1517C57.8257 50.4538 50.2237 57.9359 41 57.9359M41 26.4908C32.8912 26.4908 26.2015 33.0629 26.2015 41.2528C26.2015 49.3416 32.7899 56.0148 41 56.0148C49.1088 56.0148 55.7985 49.4427 55.7985 41.2528C55.7985 33.0629 49.1088 26.4908 41 26.4908"/>
</svg>
