<?xml version="1.0" encoding="utf-8" ?>
<svg xmlns="http://www.w3.org/2000/svg" xmlns:xlink="http://www.w3.org/1999/xlink" width="78" height="90">
	<path fill="white" d="M16.1695 89.7987C8.94915 89.7987 3.05085 83.9597 3.05085 76.8121L3.05085 23.1544L0 23.1544L0 16.6107C0 11.7785 3.9661 7.95302 8.74576 7.95302L20.339 7.95302L20.339 0L57.2542 0L57.2542 7.95302L68.8475 7.95302C73.8305 7.95302 78 11.9799 78 16.7114L78 23.0537L74.5424 23.0537L74.5424 77.0134C74.5424 84.1611 68.6441 90 61.4237 90L16.1695 90"/>
	<path fill="#99CC62" d="M6.2033 20.7381L6.2033 76.5099C6.2033 82.0468 10.6779 86.577 16.2711 86.577L61.627 86.577C67.2202 86.577 71.6948 82.0468 71.6948 76.5099L71.6948 20.7381L6.2033 20.7381M23.0847 76.5099L14.7457 76.5099L14.7457 30.9059L23.0847 30.9059L23.0847 76.5099M28.0677 76.5099L28.0677 30.9059L36.4067 30.9059L36.4067 76.5099L28.0677 76.5099M41.3897 76.5099L41.3897 30.9059L49.7287 30.9059L49.7287 76.5099L41.3897 76.5099M54.7118 76.5099L54.7118 30.9059L63.0508 30.9059L63.0508 76.5099L54.7118 76.5099"/>
	<path fill="#2D1B0A" d="M61.5265 87.5837L16.1696 87.5837C10.0678 87.5837 5.0846 82.5502 5.0846 76.5099L5.0846 19.7314L72.5113 19.7314L72.5113 76.5099C72.6115 82.6509 67.6283 87.5837 61.5265 87.5837M7.22024 21.7448L7.22024 76.5099C7.22024 81.5435 11.2881 85.5703 16.2713 85.5703L61.6282 85.5703C66.6114 85.5703 70.6793 81.4428 70.6793 76.5099L70.6793 21.7448L7.22024 21.7448M63.9673 77.5166L53.5941 77.5166L53.5941 29.8992L63.9673 29.8992L63.9673 77.5166M55.7298 75.5032L62.035 75.5032L62.035 31.9126L55.7298 31.9126L55.7298 75.5032M50.6449 77.5166L40.2718 77.5166L40.2718 29.8992L50.6449 29.8992L50.6449 77.5166M42.4075 75.5032L48.7127 75.5032L48.7127 31.9126L42.4075 31.9126L42.4075 75.5032M37.4243 77.5166L27.0512 77.5166L27.0512 29.8992L37.4243 29.8992L37.4243 77.5166M29.0851 75.5032L35.3904 75.5032L35.3904 31.9126L29.0851 31.9126L29.0851 75.5032M24.102 77.5166L13.7289 77.5166L13.7289 29.8992L24.102 29.8992L24.102 77.5166M15.7628 75.5032L22.068 75.5032L22.068 31.9126L15.7628 31.9126L15.7628 75.5032"/>
	<path fill="#3E4D70" d="M54.6101 10.6712L54.6101 2.71819L22.8813 2.61752L22.8813 10.5705L10.1695 10.4699C6.10168 10.4699 2.74575 13.8927 2.74575 18.1209L2.74575 20.4363L74.8475 20.4363L74.8475 18.1209C74.8475 13.8927 71.4915 10.4699 67.4238 10.4699L54.6101 10.6712M31.9321 6.94638L45.5593 6.94638L45.5593 10.5705L31.9321 10.5705L31.9321 6.94638"/>
	<path fill="#2D1B0A" d="M75.7627 21.5437L1.6271 21.5437L1.6271 18.2215C1.6271 13.3893 5.38981 9.56383 10.0678 9.56383L21.7627 9.6645L21.7627 1.81215L55.5254 1.91282L55.5254 9.76517L67.322 9.56383C72 9.56383 75.7627 13.4901 75.7627 18.2215L75.7627 21.5437M3.76269 19.5303L73.8305 19.5303L73.8305 18.2215C73.8305 14.4967 70.983 11.5772 67.4237 11.5772L53.5932 11.7786L53.5932 3.82557L23.8983 3.7249L23.8983 11.6779L10.1695 11.5772C6.61015 11.5772 3.76269 14.5974 3.76269 18.2215L3.76269 19.5303M46.5763 11.5772L30.9152 11.5772L30.9152 5.93967L46.5763 5.93967L46.5763 11.5772M32.9491 9.56383L44.5424 9.56383L44.5424 7.95309L32.9491 7.95309L32.9491 9.56383"/>
</svg>
