<?xml version="1.0" encoding="utf-8" ?>
<svg xmlns="http://www.w3.org/2000/svg" xmlns:xlink="http://www.w3.org/1999/xlink" width="88" height="92">
	<path fill="white" d="M18.5661 92C17.7636 92 16.8608 91.8988 16.0583 91.5952C13.8514 90.8867 12.1461 89.4697 11.3436 87.4455C11.2433 87.2431 11.143 86.9395 11.143 86.7371L10.8421 85.725C8.5349 84.8141 7.43147 83.802 6.72929 82.4862L5.42524 81.4741C3.82025 81.0693 2.71682 80.2596 2.11496 79.6524C0.710593 78.1342 0 76.11 0 73.5798C0 69.2277 4.32181 65.2805 13.7511 60.7261C14.9548 60.1188 16.2589 59.5116 17.5629 59.0055L19.4689 58.1958L18.6664 56.374C17.6633 54.1474 17.0614 51.8196 16.6601 49.3905L16.4595 48.2772L21.776 36.2332L0.209035 34.209L28.8982 3.23872L43.343 10.5259L44.3461 9.91859C54.277 3.44114 65.7125 0 77.449 0C78.0508 0 78.6527 0 79.2546 0C84.0695 0.20242 87.8814 4.0484 88 8.90649C88.2826 21.659 84.872 33.9054 78.0508 44.4312L83.0664 61.5358L48.8602 86.1298L49.5623 67.8108L40.2334 72.0616L39.1299 71.8592C37.8259 71.6568 36.5218 71.3531 35.2178 70.9483L33.4122 70.341L27.895 84.5105C27.5941 85.5226 24.7854 92 18.5661 92"/>
	<path fill="#2D1B0A" d="M17.8606 90.1782C17.2588 90.1782 16.6571 90.0769 16.0553 89.8745C14.25 89.3685 13.4477 88.2552 13.0465 87.4455C12.545 86.3322 12.545 85.1177 12.7456 84.0043C11.843 84.2068 10.9403 84.1056 10.138 83.8019C8.63361 83.1947 7.73097 81.7777 7.63067 79.8547C5.92569 80.0571 4.52159 79.7535 3.41837 78.9438C2.21485 77.9317 1.7026 76.4136 1.7026 74.3894C1.81368 67.8107 20.067 60.9284 25.5831 58.9042L32.5034 64.4708L24.7808 84.5104C24.0787 86.6358 21.5714 90.1782 17.8606 90.1782M14.5509 80.1584C14.9521 80.1584 15.4535 80.3608 15.7544 80.6644C16.3562 81.1705 16.5568 82.0813 16.2559 82.7898C15.6541 84.2068 15.4535 85.5225 15.8547 86.231C15.955 86.4334 16.2559 86.8382 16.9579 87.0406C20.1673 87.9515 22.0729 83.5995 22.0729 83.3971L29.0934 65.2805L25.7837 62.143C15.5538 65.8877 4.82247 71.4543 4.72218 74.3894C4.72218 75.0978 4.82247 76.11 5.32393 76.5148C5.8254 76.9196 6.72804 76.9196 7.73097 76.7172C8.43302 76.5148 9.23536 76.7172 9.73683 77.2233C10.3386 77.7293 10.6395 78.4378 10.5392 79.1463C10.5392 79.7535 10.5392 80.6644 11.0406 80.8668C11.843 81.1705 12.9462 80.6644 13.4477 80.3608C13.9491 80.2596 14.25 80.1584 14.5509 80.1584"/>
	<path fill="#F0F5FF" d="M26.1807 60.3212L30.8944 64.8756L23.573 83.9032C23.573 83.9032 21.166 89.7733 16.5526 88.3564C13.2429 87.3443 14.1455 83.9032 14.9479 82.0814C15.0482 81.7776 14.7473 81.4741 14.4464 81.6765C13.5437 82.1826 12.1396 82.7897 10.7355 82.2838C9.33143 81.7776 9.13085 80.1584 9.23114 79.0451C9.23114 78.4378 8.72967 78.033 8.22821 78.1342C6.42293 78.539 3.31155 78.6402 3.31155 74.2882C3.31155 68.418 26.1807 60.3212 26.1807 60.3212"/>
	<path fill="#FFD071" d="M52.4617 78.9439L53.4646 55.7668L70.1133 38.8647L77.6353 60.8273"/>
	<path fill="#2D1B0A" d="M51.4588 80.9681L52.4617 55.3619L70.6148 37.0429L78.8388 61.2321L51.4588 80.9681M54.4676 56.1716L53.6653 76.9197L76.4318 60.5236L69.8124 40.7877L54.4676 56.1716"/>
	<path fill="#FFD071" d="M8.0319 31.6789L30.8987 33.8043L49.6535 19.3312L29.0934 9.0078"/>
	<path fill="#2D1B0A" d="M31.1996 34.8162L5.9257 32.4884L28.8928 7.7931L51.5591 19.1286L31.1996 34.8162M10.138 30.869L30.5978 32.792L47.7479 19.5335L29.294 10.2221L10.138 30.869"/>
	<path fill="#E63B56" d="M78.4968 4.87C55.3291 4.18801 34.0669 17.7502 24.6394 39.0043L19.9256 49.5301C21.3297 59.5499 29.1526 67.3431 38.9813 68.7601L49.5121 64.0032C70.5736 54.4894 83.9126 33.0329 83.3304 9.75457C83.3304 7.1231 81.1044 4.99769 78.4968 4.87"/>
	<path fill="#2D1B0A" d="M39.1283 69.8348C28.5946 68.3161 20.3683 60.0138 18.8635 49.6865L23.6789 38.5493C33.3097 16.7811 54.7784 3.11266 78.4541 3.7951C81.6644 3.92265 84.2728 6.55508 84.3925 9.795C84.975 33.5882 71.532 55.2552 49.963 64.9749L39.1283 69.8348M20.9702 49.6865C22.3747 58.9001 29.6982 66.2911 38.9277 67.8099L49.1604 63.1525C69.9269 53.7364 82.9686 32.8794 82.3667 9.795C82.2663 7.6688 80.5609 5.84635 78.4541 5.84635C55.581 5.23886 34.9149 18.401 25.585 39.4605L20.9702 49.6865"/>
	<path fill="white" d="M58.6798 21.1529C58.6798 25.2013 62.0898 28.4401 66.2018 28.4401C70.3138 28.4401 73.7238 25.2013 73.7238 21.1529C73.7238 17.1045 70.3138 13.8658 66.2018 13.8658C62.0898 13.8658 58.6798 17.1045 58.6798 21.1529"/>
	<path fill="#2D1B0A" d="M66.2018 29.9582C61.1871 29.9582 57.1754 26.011 57.1754 21.1529C57.1754 16.2948 61.1871 12.3476 66.2018 12.3476C71.2164 12.3476 75.2282 16.2948 75.2282 21.1529C75.2282 26.011 71.2164 29.9582 66.2018 29.9582M66.2018 15.3839C62.8921 15.3839 60.1842 18.0154 60.1842 21.1529C60.1842 24.2904 62.8921 26.9219 66.2018 26.9219C69.5115 26.9219 72.2194 24.2904 72.2194 21.1529C72.2194 18.0154 69.5115 15.3839 66.2018 15.3839"/>
	<path fill="#99CC62" d="M40.1256 18.8251L70.013 47.7712C70.013 47.7712 62.8922 55.4632 60.5854 56.7789L31.9016 27.2255C31.9016 27.3267 36.4147 20.8493 40.1256 18.8251"/>
	<path fill="#2D1B0A" d="M60.3847 58.0946L30.5977 27.428C31.2998 26.4159 35.8129 20.0396 39.7244 18.0154L71.417 47.7712C70.0129 49.2894 63.3935 56.2729 60.9865 57.6898M33.2053 27.2256L60.6856 55.4632C62.6915 53.945 66.5026 49.9978 68.6088 47.7712L40.0252 20.0396C37.4176 21.8614 34.4088 25.6062 33.2053 27.2256"/>
</svg>
