<?xml version="1.0" encoding="utf-8" ?>
<svg xmlns="http://www.w3.org/2000/svg" xmlns:xlink="http://www.w3.org/1999/xlink" width="100" height="74">
	<path fill="white" d="M22.8856 74C10.2488 74 0 63.6016 0 50.7804C0 40.382 6.86567 31.1951 16.7164 28.3683L18.209 27.9645L18.1095 26.3492C18.1095 25.9454 18.1095 25.4407 18.1095 25.0368C18.1095 11.206 29.1542 0 42.7861 0C50.7463 0 58.01 3.73533 62.7861 10.2974L63.6816 11.5089L65.0746 11.0041C66.6667 10.3984 68.2587 10.0955 69.9502 10.0955C77.6119 10.0955 84.1791 16.5566 84.1791 24.2292C84.1791 25.0368 84.0796 25.8445 83.8806 26.6521L83.4826 28.3683L85.0746 28.9741C94.0299 32.3056 100 41.0887 100 50.7804C100 63.6016 89.7512 74 77.1144 74L22.8856 74"/>
	<path fill="#2D1B0A" d="M76.9154 71.9809L22.587 71.9809C11.0447 71.9809 1.6915 62.4911 1.6915 50.7804C1.6915 39.8772 9.7512 30.8922 20.2985 29.6808C20 28.1664 19.801 26.6521 19.801 25.0368C19.801 12.3165 29.9502 2.0191 42.4875 2.0191C50.9452 2.0191 58.8059 6.86494 62.6865 14.4366C64.6766 12.9222 67.1641 12.1146 69.6517 12.1146C76.2189 12.1146 81.8905 17.6671 81.8905 24.2292C81.8905 26.0464 81.2935 27.9645 80.199 29.8827C90.2487 31.498 97.8109 40.382 97.8109 50.8813C97.8109 62.4911 88.4577 71.9809 76.9154 71.9809M42.587 4.0382C31.1442 4.0382 21.8905 13.427 21.8905 25.0368C21.8905 26.854 22.0895 28.5703 22.587 30.2865L22.8855 31.498L21.6915 31.5989C11.6417 32.2046 3.88055 40.5839 3.88055 50.7804C3.88055 61.3806 12.3383 69.9618 22.786 69.9618L77.1144 69.9618C87.5621 69.9618 96.0199 61.3806 96.0199 50.7804C96.0199 40.7858 88.3582 32.4065 78.5074 31.6999L76.7164 31.5989L77.8109 30.0846C79.3034 27.9645 80.0995 26.0464 80.0995 24.2292C80.0995 18.7776 75.4228 14.1337 69.8507 14.1337C67.3631 14.1337 64.9751 15.0423 63.184 16.7585L61.592 16.3547C58.1094 8.88404 50.6467 4.0382 42.587 4.0382"/>
	<path fill="#99CC62" d="M79.7017 49.9728L74.1294 40.1802L68.5574 30.4885L62.9852 40.1802L57.5126 49.9728L64.3782 49.9728L64.3782 69.8609L72.836 69.8609L72.836 49.9728"/>
	<path fill="#2D1B0A" d="M73.8309 70.8704L63.3831 70.8704L63.3831 50.9823L55.7214 50.9823L68.5572 28.3684L81.393 50.9823L73.7314 50.9823L73.7314 70.8704M65.3731 68.8513L71.8408 68.8513L71.8408 48.9632L78.01 48.9632L68.6567 32.4066L59.3035 48.9632L65.4726 48.9632L65.4726 68.8513"/>
</svg>
