<?xml version="1.0" encoding="utf-8" ?>
<svg xmlns="http://www.w3.org/2000/svg" xmlns:xlink="http://www.w3.org/1999/xlink" width="104" height="58">
	<path fill="white" d="M52 58C28.5648 58 9.1528 40.8522 1.81044 33.4887C-0.603482 30.967 -0.603482 26.9322 1.81044 24.5113C9.05222 17.1478 28.5648 0 52 0C75.4352 0 94.8472 17.1478 102.19 24.5113C104.603 27.033 104.603 31.0678 102.19 33.4887C94.9478 40.8522 75.4352 58 52 58"/>
	<path fill="#99CC62" d="M100.077 26.6296C101.385 27.9409 101.385 30.0591 100.077 31.3704C93.7408 37.8261 74.6306 54.9739 52 54.9739C29.3695 54.9739 10.3598 37.8261 3.92271 31.3704C2.61516 30.0591 2.61516 27.9409 3.92271 26.6296C10.2593 20.1739 29.3695 3.0261 52 3.0261C74.6306 3.0261 93.7408 20.1739 100.077 26.6296"/>
	<path fill="#2D1B0A" d="M52 55.9826C29.3695 55.9826 10.3598 39.2383 3.2186 32.0765C1.50873 30.3617 1.50873 27.6383 3.2186 25.9235C10.3598 18.7617 29.2689 2.0174 52 2.0174C74.7312 2.0174 93.6403 18.7617 100.782 25.9235C102.491 27.6383 102.491 30.3617 100.782 32.0765C93.6403 39.3391 74.7312 55.9826 52 55.9826M52 4.03479C30.0735 4.03479 11.5668 20.3757 4.62672 27.3357C3.7215 28.2435 3.7215 29.7565 4.62672 30.6644C11.5668 37.6244 30.0735 53.9652 52 53.9652C73.9265 53.9652 92.4333 37.6244 99.3733 30.6644C100.279 29.7565 100.279 28.2435 99.3733 27.3357C92.4333 20.3757 73.9265 4.03479 52 4.03479"/>
	<path fill="white" d="M33.3927 29C33.3927 39.2887 41.7408 47.6608 52.0001 47.6608C62.2592 47.6608 70.6073 39.2887 70.6073 29C70.6073 18.7113 62.2592 10.3391 52.0001 10.3391C41.7408 10.3391 33.3927 18.6104 33.3927 29"/>
	<path fill="#2D1B0A" d="M52 48.6696C41.1367 48.6696 32.386 39.7931 32.386 29.0001C32.386 18.1061 41.2373 9.3305 52 9.3305C62.8625 9.3305 71.614 18.207 71.614 29.0001C71.7137 39.7931 62.8625 48.6696 52 48.6696M52 11.3479C42.2431 11.3479 34.3977 19.3166 34.3977 29.0001C34.3977 38.7844 42.3437 46.6522 52 46.6522C61.7561 46.6522 69.6015 38.6835 69.6015 29.0001C69.7021 19.2157 61.7561 11.3479 52 11.3479"/>
	<path fill="#FFD071" d="M41.8414 29C41.8414 34.6488 46.3675 39.188 52 39.188C57.6325 39.188 62.1586 34.6488 62.1586 29C62.1586 23.3514 57.6325 18.8122 52 18.8122C46.3675 18.8122 41.8414 23.3514 41.8414 29"/>
	<path fill="#2D1B0A" d="M52 40.1965C45.8634 40.1965 40.8341 35.1531 40.8341 29C40.8341 22.847 45.8634 17.8035 52 17.8035C58.135 17.8035 63.1658 22.847 63.1658 29C63.2649 35.1531 58.2356 40.1965 52 40.1965M52 19.8209C46.9699 19.8209 42.8458 23.9565 42.8458 29C42.8458 34.0435 46.9699 38.1792 52 38.1792C57.0286 38.1792 61.1526 34.0435 61.1526 29C61.2532 23.8557 57.1292 19.8209 52 19.8209"/>
</svg>
