<?xml version="1.0" encoding="utf-8" ?>
<svg xmlns="http://www.w3.org/2000/svg" xmlns:xlink="http://www.w3.org/1999/xlink" width="84" height="90">
	<path fill="white" d="M62.2482 90C60.4439 90 58.6396 89.3898 57.136 88.3729L55.3317 87.0508L53.5274 88.3729C52.0239 89.4915 50.3198 90 48.4153 90L35.3842 90C33.58 90 31.7757 89.3898 30.3723 88.3729L28.568 87.0508L26.7637 88.3729C25.2601 89.4915 23.5561 90 21.7518 90L8.72076 90C3.90931 90 0 86.0339 0 81.1525L0 8.84746C0 3.9661 3.90931 0 8.72076 0L21.7518 0C23.5561 0 25.3604 0.610169 26.7637 1.62712L28.568 2.94915L30.3723 1.62712C31.8759 0.508475 33.58 0 35.3842 0L48.4153 0C50.2196 0 52.0239 0.610169 53.5274 1.62712L55.3317 2.94915L57.136 1.62712C58.6396 0.508475 60.3437 0 62.2482 0L75.2792 0C80.0907 0 84 3.9661 84 8.84746L84 81.1525C84 86.0339 80.0907 90 75.2792 90L62.2482 90"/>
	<path fill="#99CC62" d="M21.6515 87.0508L8.6205 87.0508C5.51311 87.0508 2.9069 84.4068 2.9069 81.2542L2.9069 8.94916C2.9069 5.79662 5.51311 3.15255 8.6205 3.15255L21.6515 3.15255C24.7589 3.15255 27.3651 5.79662 27.3651 8.94916L27.3651 81.2542C27.3651 84.4068 24.7589 87.0508 21.6515 87.0508"/>
	<path fill="#2D1B0A" d="M21.6515 88.0678L8.62049 88.0678C4.91166 88.0678 1.9045 85.017 1.9045 81.2542L1.9045 8.94916C1.9045 5.18645 4.91166 2.1356 8.62049 2.1356L21.6515 2.1356C25.3603 2.1356 28.3675 5.18645 28.3675 8.94916L28.3675 81.2542C28.3675 85.017 25.3603 88.0678 21.6515 88.0678M8.62049 4.27119C6.01429 4.27119 3.90927 6.40679 3.90927 9.05085L3.90927 81.3559C3.90927 84 6.01429 86.1356 8.62049 86.1356L21.6515 86.1356C24.2577 86.1356 26.3627 84 26.3627 81.3559L26.3627 9.05085C26.3627 6.40679 24.2577 4.27119 21.6515 4.27119L8.62049 4.27119"/>
	<path fill="#89C5E5" d="M48.315 87.0508L35.284 87.0508C32.1766 87.0508 29.5704 84.4068 29.5704 81.2542L29.5704 8.94916C29.5704 5.79662 32.0764 3.15255 35.284 3.15255L48.315 3.15255C51.4224 3.15255 54.0286 5.79662 54.0286 8.94916L54.0286 81.2542C54.0286 84.4068 51.4224 87.0508 48.315 87.0508"/>
	<path fill="#2D1B0A" d="M48.315 88.0678L35.284 88.0678C31.5752 88.0678 28.568 85.017 28.568 81.2542L28.568 8.94916C28.568 5.18645 31.5752 2.1356 35.284 2.1356L48.315 2.1356C52.0238 2.1356 55.031 5.18645 55.031 8.94916L55.031 81.2542C55.031 85.017 52.0238 88.0678 48.315 88.0678M35.284 4.27119C32.6778 4.27119 30.5728 6.40679 30.5728 9.05085L30.5728 81.3559C30.5728 84 32.6778 86.1356 35.284 86.1356L48.315 86.1356C50.9212 86.1356 53.0262 84 53.0262 81.3559L53.0262 9.05085C53.0262 6.40679 50.9212 4.27119 48.315 4.27119L35.284 4.27119"/>
	<path fill="#FFD071" d="M75.0787 87.0508L62.0477 87.0508C58.9403 87.0508 56.3341 84.4068 56.3341 81.2542L56.3341 8.94916C56.3341 5.79662 58.9403 3.15255 62.0477 3.15255L75.0787 3.15255C78.1861 3.15255 80.7923 5.79662 80.7923 8.94916L80.7923 81.2542C80.6921 84.4068 78.1861 87.0508 75.0787 87.0508"/>
	<path fill="#2D1B0A" d="M75.0787 88.0678L62.0477 88.0678C58.3389 88.0678 55.3317 85.017 55.3317 81.2542L55.3317 8.94916C55.3317 5.18645 58.3389 2.1356 62.0477 2.1356L75.0787 2.1356C78.7875 2.1356 81.7947 5.18645 81.7947 8.94916L81.7947 81.2542C81.6945 85.017 78.7875 88.0678 75.0787 88.0678M62.0477 4.27119C59.4415 4.27119 57.3365 6.40679 57.3365 9.05085L57.3365 81.3559C57.3365 84 59.4415 86.1356 62.0477 86.1356L75.0787 86.1356C77.6849 86.1356 79.7899 84 79.7899 81.3559L79.7899 9.05085C79.7899 6.40679 77.6849 4.27119 75.0787 4.27119L62.0477 4.27119"/>
	<path fill="white" d="M9.22195 13.9322L20.9498 13.9322L20.9498 63.8644L9.22195 63.8644L9.22195 13.9322"/>
	<path fill="white" d="M35.8854 13.9322L47.6133 13.9322L47.6133 63.8644L35.8854 63.8644L35.8854 13.9322"/>
	<path fill="white" d="M62.6492 13.9322L74.3771 13.9322L74.3771 63.8644L62.6492 63.8644L62.6492 13.9322"/>
	<path fill="white" d="M10.8257 75.2542C10.8257 77.6949 12.7303 79.6271 15.136 79.6271C17.5417 79.6271 19.4463 77.6949 19.4463 75.2542C19.4463 72.8135 17.5417 70.8813 15.136 70.8813C12.7303 70.8813 10.8257 72.8135 10.8257 75.2542"/>
	<path fill="#2D1B0A" d="M15.136 81.2542C11.9284 81.2542 9.32215 78.6101 9.32215 75.3559C9.32215 72.1017 11.9284 69.4576 15.136 69.4576C18.3436 69.4576 20.9499 72.1017 20.9499 75.3559C20.9499 78.5085 18.3436 81.2542 15.136 81.2542M15.136 72.4068C13.5322 72.4068 12.3293 73.7288 12.3293 75.2542C12.3293 76.7796 13.6324 78.1017 15.136 78.1017C16.6396 78.1017 17.9427 76.7796 17.9427 75.2542C17.9427 73.7288 16.6396 72.4068 15.136 72.4068"/>
	<path fill="white" d="M38.0907 75.2542C38.0907 77.6949 39.9952 79.6271 42.4009 79.6271C44.8067 79.6271 46.7112 77.6949 46.7112 75.2542C46.7112 72.8135 44.8067 70.8813 42.4009 70.8813C40.0955 70.8813 38.0907 72.8135 38.0907 75.2542"/>
	<path fill="#2D1B0A" d="M42.5012 81.2542C39.2936 81.2542 36.6874 78.6101 36.6874 75.3559C36.6874 72.1017 39.2936 69.4576 42.5012 69.4576C45.7088 69.4576 48.3151 72.1017 48.3151 75.3559C48.3151 78.5085 45.7088 81.2542 42.5012 81.2542M42.5012 72.4068C40.8974 72.4068 39.6945 73.7288 39.6945 75.2542C39.6945 76.7796 40.9976 78.1017 42.5012 78.1017C44.0048 78.1017 45.3079 76.7796 45.3079 75.2542C45.3079 73.7288 44.0048 72.4068 42.5012 72.4068"/>
	<path fill="white" d="M64.3559 75.2542C64.3559 77.6949 66.2605 79.6271 68.6662 79.6271C71.0719 79.6271 72.9765 77.6949 72.9765 75.2542C72.9765 72.8135 71.0719 70.8813 68.6662 70.8813C66.3607 70.8813 64.3559 72.8135 64.3559 75.2542"/>
	<path fill="#2D1B0A" d="M68.6662 81.2542C65.4565 81.2542 62.8497 78.6101 62.8497 75.3559C62.8497 72.1017 65.4565 69.4576 68.6662 69.4576C71.8732 69.4576 74.4827 72.1017 74.4827 75.3559C74.5803 78.5085 71.9734 81.2542 68.6662 81.2542M68.6662 72.4068C67.0606 72.4068 65.8575 73.7288 65.8575 75.2542C65.8575 76.7796 67.1609 78.1017 68.6662 78.1017C70.269 78.1017 71.4721 76.7796 71.4721 75.2542C71.4721 73.7288 70.269 72.4068 68.6662 72.4068"/>
</svg>
