<svg width="40" height="32" viewBox="0 0 40 32" fill="none" xmlns="http://www.w3.org/2000/svg" id="panel-layout-30"><title>扇形放射图</title><path opacity="0.5" fill-rule="evenodd" clip-rule="evenodd" d="M26.279 28.3013C24.4077 29.3011 22.27 29.8678 19.9999 29.8678C17.7316 29.8678 15.5955 29.302 13.7253 28.3038L15.1776 25.7721C16.6194 26.5255 18.2594 26.9515 19.999 26.9515C21.7404 26.9515 23.3821 26.5246 24.825 25.7698L26.279 28.3013ZM27.0016 27.8857C30.6947 25.605 33.1914 21.5741 33.3332 16.9507H30.4125C30.2734 20.4919 28.3656 23.579 25.5476 25.3541L27.0016 27.8857ZM25.5802 7.73629C28.38 9.51425 30.2734 12.5905 30.4125 16.1173H33.3332C33.1916 11.5124 30.7139 7.49534 27.0448 5.21013L25.5802 7.73629ZM26.3238 4.79174C24.4418 3.77706 22.2881 3.20117 19.9999 3.20117C17.7224 3.20117 15.5782 3.77163 13.7026 4.77739L15.1604 7.30652C16.6064 6.54757 18.2525 6.11816 19.999 6.11816C21.7542 6.11816 23.4081 6.55186 24.8592 7.3179L26.3238 4.79174ZM14.4384 7.72322L12.9806 5.19413C9.29737 7.47656 6.80846 11.5017 6.66654 16.1173H9.58558C9.72501 12.5818 11.6274 9.49915 14.4384 7.72322ZM9.58552 16.9507H6.6665C6.80838 21.5759 9.30698 25.6082 13.0025 27.8884L14.4548 25.3568C11.6344 23.5822 9.72468 20.4937 9.58552 16.9507Z" fill="#8F99A8"></path><path fill-rule="evenodd" clip-rule="evenodd" d="M15.7607 24.6666C17.0286 25.3277 18.4705 25.7015 19.9997 25.7015C21.5288 25.7015 22.9706 25.3278 24.2384 24.6668L23.0399 22.5929C22.1255 23.0518 21.0928 23.3102 19.9997 23.3102C18.9065 23.3102 17.8737 23.0518 16.9592 22.5927L15.7607 24.6666ZM13.2296 16.9332C13.3572 19.1323 14.5346 21.05 16.2686 22.1935L15.0701 24.2674C12.6222 22.7065 10.965 20.0172 10.833 16.9332H13.2296ZM16.2689 10.876C14.5348 12.0194 13.3573 13.937 13.2296 16.1361H10.833C10.9651 13.0521 12.6224 10.3629 15.0704 8.80204L16.2689 10.876ZM23.0396 10.4766C22.1252 10.0178 21.0927 9.75947 19.9997 9.75947C18.9066 9.75947 17.8739 10.0178 16.9595 10.4768L15.761 8.40286C17.0288 7.74187 18.4706 7.36816 19.9997 7.36816C21.5287 7.36816 22.9703 7.74182 24.2381 8.40271L23.0396 10.4766ZM26.7698 16.1361C26.642 13.9369 25.4644 12.0192 23.7302 10.8758L24.9287 8.80187C27.3768 10.3627 29.0342 13.052 29.1663 16.1361H26.7698ZM23.7305 22.1937C25.4646 21.0502 26.6422 19.1324 26.7698 16.9332H29.1664C29.0344 20.0173 27.3771 22.7067 24.929 24.2676L23.7305 22.1937Z" fill="#8F99A8"></path><circle cx="19.9998" cy="16.5345" r="5.83333" fill="url(#paint0_linear_38275_258360)"></circle><defs><linearGradient id="paint0_linear_38275_258360" x1="19.9998" y1="10.7012" x2="19.9998" y2="22.3678" gradientUnits="userSpaceOnUse"><stop stop-color="#16C784"></stop><stop offset="1" stop-color="#43D89C"></stop></linearGradient></defs></svg>