<svg width="40" height="32" viewBox="0 0 40 32" fill="none" xmlns="http://www.w3.org/2000/svg" id="panel-layout-31"><title>气泡图</title><g clip-path="url(#clip0_38275_258388)"><rect x="9.61133" y="16.001" width="5.83333" height="0.833333" fill="#667085"></rect><rect x="24.7627" y="16.001" width="5.83333" height="0.833333" fill="#667085"></rect><circle cx="32.0832" cy="16.0007" r="2.91667" fill="#8F99A8"></circle><circle cx="7.91667" cy="16.0007" r="2.91667" fill="#8F99A8"></circle><rect x="14.6523" y="25.167" width="5.83333" height="0.833333" transform="rotate(-60 14.6523 25.167)" fill="#667085"></rect><rect x="22.228" y="11.834" width="5.83333" height="0.833333" transform="rotate(-60 22.228 11.834)" fill="#667085"></rect><circle cx="25.9715" cy="5.76641" r="2.91667" transform="rotate(-60 25.9715 5.76641)" fill="#8F99A8"></circle><circle cx="13.9842" cy="25.7664" r="2.91667" transform="rotate(-60 13.9842 25.7664)" fill="#8F99A8"></circle><rect width="5.83333" height="0.833333" transform="matrix(-0.5 -0.866025 -0.866025 0.5 25.7832 25.167)" fill="#667085"></rect><rect width="5.83333" height="0.833333" transform="matrix(-0.5 -0.866025 -0.866025 0.5 18.207 11.834)" fill="#667085"></rect><circle cx="2.91667" cy="2.91667" r="2.91667" transform="matrix(-0.5 -0.866025 -0.866025 0.5 18.4478 6.83398)" fill="#8F99A8"></circle><circle cx="2.91667" cy="2.91667" r="2.91667" transform="matrix(-0.5 -0.866025 -0.866025 0.5 30 26.834)" fill="#8F99A8"></circle><circle cx="19.9998" cy="16.0003" r="5.83333" fill="url(#paint0_linear_38275_258388)"></circle></g><defs><linearGradient id="paint0_linear_38275_258388" x1="19.9998" y1="10.167" x2="19.9998" y2="21.8337" gradientUnits="userSpaceOnUse"><stop stop-color="#16C784"></stop><stop offset="1" stop-color="#43D89C"></stop></linearGradient><clipPath id="clip0_38275_258388"><rect width="36.6667" height="26.6667" fill="white" transform="translate(1.6665 2.66699)"></rect></clipPath></defs></svg>