<svg width="40" height="32" viewBox="0 0 40 32" fill="none" xmlns="http://www.w3.org/2000/svg" id="panel-layout-41"><title>括号图（右）</title><g clip-path="url(#clip0_41112_456373)"><path fill-rule="evenodd" clip-rule="evenodd" d="M30 4C28.8954 4 28 4.89543 28 6V7C28 8.10457 28.8954 9 30 9H35C36.1046 9 37 8.10457 37 7V6C37 4.89543 36.1046 4 35 4H30ZM19.3625 15.664C18.7607 16.0589 18.7607 16.9411 19.3625 17.336L19.8228 17.6381C20.2453 17.9154 20.4998 18.3868 20.4998 18.8922V23C20.4998 25.4853 22.5145 27.5 24.9998 27.5C25.276 27.5 25.4998 27.2761 25.4998 27C25.4998 26.7239 25.276 26.5 24.9998 26.5C23.0668 26.5 21.4998 24.933 21.4998 23V18.8922C21.4998 18.0499 21.0757 17.2642 20.3715 16.8021L19.9111 16.5L20.3715 16.1979C21.0757 15.7358 21.4998 14.9501 21.4998 14.1078V10C21.4998 8.067 23.0668 6.5 24.9998 6.5C25.276 6.5 25.4998 6.27614 25.4998 6C25.4998 5.72386 25.276 5.5 24.9998 5.5C22.5145 5.5 20.4998 7.51472 20.4998 10V14.1078C20.4998 14.6132 20.2453 15.0846 19.8228 15.3619L19.3625 15.664ZM30 14C28.8954 14 28 14.8954 28 16V17C28 18.1046 28.8954 19 30 19H35C36.1046 19 37 18.1046 37 17V16C37 14.8954 36.1046 14 35 14H30ZM28 26C28 24.8954 28.8954 24 30 24H35C36.1046 24 37 24.8954 37 26V27C37 28.1046 36.1046 29 35 29H30C28.8954 29 28 28.1046 28 27V26Z" fill="#8F99A8"></path><rect x="3" y="11" width="14" height="10" rx="3" fill="url(#paint0_linear_41112_456373)"></rect></g><defs><linearGradient id="paint0_linear_41112_456373" x1="10" y1="11" x2="10" y2="21" gradientUnits="userSpaceOnUse"><stop stop-color="#16C784"></stop><stop offset="1" stop-color="#43D89C"></stop></linearGradient><clipPath id="clip0_41112_456373"><rect width="40" height="32" fill="white"></rect></clipPath></defs></svg>