<svg width="40" height="32" viewBox="0 0 40 32" fill="none" xmlns="http://www.w3.org/2000/svg" id="panel-layout-42"><title>括号图（左）</title><g clip-path="url(#clip0_41112_456381)"><path fill-rule="evenodd" clip-rule="evenodd" d="M10 4C11.1046 4 12 4.89543 12 6V7C12 8.10457 11.1046 9 10 9H5C3.89543 9 3 8.10457 3 7V6C3 4.89543 3.89543 4 5 4H10ZM20.6375 15.664C21.2393 16.0589 21.2393 16.9411 20.6375 17.336L20.1772 17.6381C19.7547 17.9154 19.5002 18.3868 19.5002 18.8922V23C19.5002 25.4853 17.4855 27.5 15.0002 27.5C14.724 27.5 14.5002 27.2761 14.5002 27C14.5002 26.7239 14.724 26.5 15.0002 26.5C16.9332 26.5 18.5002 24.933 18.5002 23V18.8922C18.5002 18.0499 18.9243 17.2642 19.6285 16.8021L20.0889 16.5L19.6285 16.1979C18.9243 15.7358 18.5002 14.9501 18.5002 14.1078V10C18.5002 8.067 16.9332 6.5 15.0002 6.5C14.724 6.5 14.5002 6.27614 14.5002 6C14.5002 5.72386 14.724 5.5 15.0002 5.5C17.4855 5.5 19.5002 7.51472 19.5002 10V14.1078C19.5002 14.6132 19.7547 15.0846 20.1772 15.3619L20.6375 15.664ZM10 14C11.1046 14 12 14.8954 12 16V17C12 18.1046 11.1046 19 10 19H5C3.89543 19 3 18.1046 3 17V16C3 14.8954 3.89543 14 5 14H10ZM12 26C12 24.8954 11.1046 24 10 24H5C3.89543 24 3 24.8954 3 26V27C3 28.1046 3.89543 29 5 29H10C11.1046 29 12 28.1046 12 27V26Z" fill="#8F99A8"></path><rect width="14" height="10" rx="3" transform="matrix(-1 0 0 1 37 11)" fill="url(#paint0_linear_41112_456381)"></rect></g><defs><linearGradient id="paint0_linear_41112_456381" x1="7" y1="0" x2="7" y2="10" gradientUnits="userSpaceOnUse"><stop stop-color="#16C784"></stop><stop offset="1" stop-color="#43D89C"></stop></linearGradient><clipPath id="clip0_41112_456381"><rect width="40" height="32" fill="white"></rect></clipPath></defs></svg>