<svg width="40" height="32" viewBox="0 0 40 32" fill="none" xmlns="http://www.w3.org/2000/svg" id="panel-layout-1"><title>组织结构图（向上）</title><path d="M33.334 6.83301V12.6663C33.334 13.5868 32.5878 14.333 31.6673 14.333L8.33398 14.333C7.41351 14.333 6.66732 13.5868 6.66732 12.6663V6.83301" stroke="#667085" stroke-width="0.833333" stroke-linecap="round"></path><rect width="12.5" height="0.833333" transform="matrix(0 1 1 0 19.3281 6.83301)" fill="#667085"></rect><rect width="8.33333" height="5" rx="1.66667" transform="matrix(1 0 0 -1 2.5 10.166)" fill="#8F99A8"></rect><rect width="8.33333" height="5" rx="1.66667" transform="matrix(1 0 0 -1 15.834 10.166)" fill="#8F99A8"></rect><rect width="8.33333" height="5" rx="1.66667" transform="matrix(1 0 0 -1 29.167 10.166)" fill="#8F99A8"></rect><rect x="12.917" y="17.666" width="14.1667" height="10" rx="2.5" fill="url(#paint0_linear_38275_258297)"></rect><defs><linearGradient id="paint0_linear_38275_258297" x1="20.0003" y1="17.666" x2="20.0003" y2="27.666" gradientUnits="userSpaceOnUse"><stop stop-color="#16C784"></stop><stop offset="1" stop-color="#43D89C"></stop></linearGradient></defs></svg>