<?xml version="1.0" encoding="utf-8" ?>
<svg xmlns="http://www.w3.org/2000/svg" xmlns:xlink="http://www.w3.org/1999/xlink" width="128" height="120">
	<path fill="white" d="M61.9736 120C38.1885 120 16.4022 105.39 7.20797 83.3249C7.20797 83.3249 7.20797 83.3249 7.10804 83.3249C7.0081 83.2242 6.50841 83.0227 5.50904 83.0227C4.80948 83.0227 4.10992 83.1234 3.81011 83.2242C2.01124 83.2242 0.911928 82.5189 0.312304 81.4106C-0.187382 80.3023 0 78.9924 0.612116 77.9849C1.51155 76.7758 1.81136 74.6599 1.9113 73.8539C2.01124 72.6448 2.61086 71.738 3.41036 71.2343C2.7108 67.5063 2.31105 63.7783 2.31105 60C2.31105 26.9018 28.9943 0 61.7737 0C94.5531 0 121.236 26.9018 121.236 60C121.236 62.1662 121.136 64.2821 120.837 66.5995C120.837 66.7003 120.937 66.801 120.937 66.801C121.236 66.7003 121.536 66.7003 121.936 66.7003C123.735 66.7003 125.234 68.1108 125.434 69.9244C125.434 70.4282 126.033 71.5365 127.133 72.7456C128 73.6524 128.232 75.063 127.732 76.272C127.233 77.4811 126.033 78.1864 124.834 78.1864C124.834 78.1864 124.534 78.1864 124.434 78.1864C122.935 78.1864 121.336 78.9924 120.537 79.3955C119.837 79.6977 119.338 79.8992 118.738 79.8992C118.438 79.8992 118.138 79.8992 117.938 79.7985C109.943 103.778 87.4576 120 61.9736 120M44.7844 80.6045C49.5814 84.7355 55.6775 86.9521 62.0735 86.9521C69.9686 86.9521 77.3639 83.4257 82.4607 77.3804C82.3608 76.5743 82.5607 75.7683 83.0604 75.063C83.9598 73.8539 84.2596 71.738 84.3595 70.932C84.5594 69.0176 85.9585 67.7078 87.6575 67.6071C88.357 65.0882 88.7568 62.5693 88.7568 60C88.7568 51.9899 85.259 44.534 79.4626 39.4962L45.0842 39.4962C39.1879 43.8287 35.3903 51.4861 35.3903 60C35.3903 61.9647 35.5902 63.9798 36.0898 65.995C37.2891 66.2972 38.2885 67.3048 38.6882 68.6146C38.6882 68.8161 38.8881 69.2191 39.1879 69.8237C39.4877 69.7229 39.7875 69.7229 40.1873 69.7229C41.9861 69.7229 43.4852 71.1335 43.6851 72.9471C43.6851 73.4509 44.2847 74.5592 45.384 75.7683C46.2834 76.6751 46.4833 78.0856 45.9836 79.2947C45.5839 79.8992 45.1841 80.3023 44.7844 80.6045"/>
	<path fill="#F43B3B" d="M62.0641 3.073C30.8755 3.073 5.5848 28.5642 5.5848 60C5.5848 91.4357 30.8755 116.927 62.0641 116.927C93.2526 116.927 118.544 91.4357 118.544 60C118.544 28.5642 93.2526 3.073 62.0641 3.073M62.0641 89.9244C45.6701 89.9244 32.375 76.5239 32.375 60C32.375 43.476 45.6701 30.0755 62.0641 30.0755C78.4581 30.0755 91.7532 43.476 91.7532 60C91.7532 76.5239 78.558 89.9244 62.0641 89.9244"/>
	<path fill="#2D1A0B" d="M62.0641 117.935C30.3757 117.935 4.5852 91.9396 4.5852 60C4.5852 28.0605 30.3757 2.0655 62.0641 2.0655C93.7525 2.0655 119.543 28.0605 119.543 60C119.543 91.9396 93.7525 117.935 62.0641 117.935M62.0641 4.08061C31.4753 4.08061 6.58447 29.1688 6.58447 60C6.58447 90.8312 31.4753 115.919 62.0641 115.919C92.6529 115.919 117.544 90.8312 117.544 60C117.544 29.1688 92.6529 4.08061 62.0641 4.08061M62.0641 90.932C45.1703 90.932 31.3754 77.0277 31.3754 60C31.3754 42.9723 45.1703 29.068 62.0641 29.068C78.9579 29.068 92.7529 42.9723 92.7529 60C92.7529 77.0277 79.0579 90.932 62.0641 90.932M62.0641 31.0831C46.2699 31.0831 33.3746 44.0806 33.3746 60C33.3746 75.9194 46.2699 88.9169 62.0641 88.9169C77.8583 88.9169 90.7536 75.9194 90.7536 60C90.7536 44.0806 77.9583 31.0831 62.0641 31.0831"/>
	<path fill="#FCD11A" d="M74.9593 36.5744L70.461 28.4132C70.461 28.2118 70.561 21.5618 70.561 21.5618C70.561 17.1286 66.9623 13.6021 62.6639 13.6021C58.2655 13.6021 54.7668 17.2293 54.7668 21.5618C54.7668 21.5618 54.7668 28.111 54.7668 28.3125L50.2684 36.4736L74.9593 36.4736"/>
	<path fill="#2D1A0B" d="M76.6587 37.5819L48.469 37.5819L53.6671 28.1109C53.6671 27.5063 53.6671 25.8942 53.6671 21.5617C53.6671 16.6247 57.6656 12.5945 62.5638 12.5945C67.462 12.5945 71.4606 16.6247 71.4606 21.5617C71.4606 25.8942 71.4606 27.5063 71.4606 28.1109L76.6587 37.5819M51.8678 35.5668L73.2599 35.5668L69.4613 28.6147C69.5613 28.0101 69.5613 24.0806 69.5613 21.6625C69.5613 17.8338 66.4624 14.7104 62.6638 14.7104C58.8652 14.7104 55.7663 17.8338 55.7663 21.6625C55.7663 24.0806 55.7663 28.0101 55.7663 28.3124L51.8678 35.5668"/>
	<path fill="#388E29" d="M63.9634 11.8892C64.4632 12.2922 64.7631 12.8967 64.7631 13.7028C64.7631 14.7103 64.2633 15.4156 63.5636 15.8187C63.2637 16.0202 62.7638 16.1209 62.364 16.1209C61.9641 16.1209 61.5643 16.0202 61.1644 15.8187C60.4647 15.4156 59.9649 14.7103 59.9649 13.7028C59.9649 12.8967 60.2648 12.2922 60.7646 11.8892C61.1644 11.4862 61.7642 11.2847 62.364 11.2847C62.9638 11.2847 63.5636 11.4862 63.9634 11.8892"/>
	<path fill="#2D1A0B" d="M62.364 17.1285C61.7642 17.1285 61.1644 17.0277 60.6646 16.7255C59.565 16.1209 58.9652 15.0126 58.9652 13.7028C58.9652 12.5945 59.3651 11.6877 60.1648 11.0832C61.3644 10.0756 63.3636 10.0756 64.6631 11.0832C65.3629 11.6877 65.7627 12.5945 65.7627 13.7028C65.7627 15.0126 65.163 16.1209 64.0634 16.7255C63.5635 16.927 62.9638 17.1285 62.364 17.1285M62.364 12.2922C61.9641 12.2922 61.6642 12.393 61.4643 12.5945C61.1644 12.796 61.0645 13.199 61.0645 13.7028C61.0645 14.3073 61.2644 14.7104 61.7642 14.9119C62.1641 15.1134 62.7639 15.1134 63.1637 14.9119C63.5635 14.7104 63.8634 14.3073 63.8634 13.7028C63.8634 13.199 63.6635 12.8968 63.4636 12.5945C63.0637 12.393 62.7639 12.2922 62.364 12.2922"/>
	<path fill="#FCD11A" d="M60.0648 13.7027C60.0648 14.7103 60.5646 15.4156 61.2643 15.8186C61.2643 15.8186 55.7664 20.4533 52.1677 20.4533C51.1681 20.4533 50.3684 20.1511 49.7686 19.2443C49.0688 18.2367 48.1622 15.0125 48.1622 12.2921C48.2691 9.97477 49.1688 8.06041 51.6679 8.06041C58.2654 8.06041 60.8645 11.7884 60.8645 11.7884C60.3647 12.2921 60.0648 12.8967 60.0648 13.7027"/>
	<path fill="#2D1A0B" d="M52.0583 21.4609C50.6589 21.4609 49.5593 20.9571 48.8595 19.8489C48.0598 18.6397 46.9602 15.3148 47.1363 12.1914C47.3601 8.86645 48.9595 7.05285 51.6585 7.05285C58.7559 7.05285 61.5549 11.0831 61.6548 11.2846L61.4549 12.6952C61.155 12.8967 61.0551 13.2997 61.0551 13.8035C61.0551 14.408 61.255 14.811 61.7548 15.0126L63.0543 15.7178L61.9547 16.7254C61.6548 16.7254 56.0569 21.4609 52.0583 21.4609M51.6585 9.06796C51.0587 9.06796 49.3593 9.06796 49.1594 12.2921C49.0595 14.9118 49.9591 17.8337 50.5589 18.6397C50.7588 18.9421 51.1587 19.3451 52.1583 19.3451C54.3575 19.3451 57.8562 17.1284 59.7555 15.6171C59.3557 15.0126 59.1558 14.3073 59.1558 13.5012C59.1558 12.7959 59.3557 12.1914 59.6556 11.6876C58.556 10.8816 56.1568 9.06796 51.6585 9.06796"/>
	<path fill="#FCD11A" d="M64.7631 13.7027C64.7631 12.8967 64.4632 12.2922 63.9634 11.8891C63.9634 11.8891 66.5625 8.16117 73.1601 8.16117C75.6592 8.16117 76.5588 10.0755 76.6657 12.3929C76.7588 15.1133 75.7591 18.3375 75.0594 19.3451C74.1597 20.6549 72.5603 20.7557 70.8609 20.2519C67.4622 19.2443 63.5636 15.9194 63.5636 15.9194C64.2633 15.4156 64.7631 14.7103 64.7631 13.7027"/>
	<path fill="#2D1A0B" d="M72.7643 21.4609C72.1643 21.4609 71.4643 21.3602 70.6643 21.1586C67.0643 20.0503 63.1642 16.7254 62.9642 16.6246L61.8642 15.6171L63.1642 14.9118C63.5642 14.7103 63.8642 14.3073 63.8642 13.7027C63.8642 13.1989 63.6642 12.8967 63.4642 12.5944L63.2642 11.1838C63.3642 10.9823 66.1643 6.9521 73.2644 6.9521C75.9644 6.9521 77.5644 8.86646 77.7714 12.0906C77.8644 15.1133 76.8644 18.539 76.0644 19.6473C75.3644 20.6549 74.4644 21.4609 72.7643 21.4609M65.1642 15.7178C66.4643 16.7254 68.9643 18.4382 71.1643 19.1435C73.4644 19.8488 74.0644 18.942 74.2644 18.6398C74.7644 17.8337 75.7644 14.9118 75.6644 12.2922C75.4644 9.06797 73.7644 9.06797 73.1643 9.06797C68.6643 9.06797 66.2643 10.8816 65.2642 11.7884C65.5642 12.2922 65.7643 12.8967 65.7643 13.602C65.7643 14.5088 65.5642 15.2141 65.1642 15.7178"/>
	<path fill="#388E29" d="M20.6793 46.2468C20.3794 47.2544 19.4798 49.6725 17.9803 50.7808C17.6804 50.9824 17.6804 51.3854 17.9803 51.5869C18.68 52.1914 19.6797 53.2997 18.78 54.6096C18.0803 55.8186 17.3805 56.5239 16.9807 56.9269C16.8307 57.1086 16.8307 57.4307 16.9807 57.6322C17.6804 58.4383 19.7796 60.3526 17.5805 62.9723L22.5786 68.1108L27.0769 62.1662C27.0769 62.1662 25.1777 60.1511 26.877 58.136C27.0769 57.8337 26.977 57.5315 26.6771 57.4307C25.8774 57.1086 24.6779 56.4232 24.278 54.5088C23.9781 53.2997 24.8778 52.0907 25.4776 51.3854C25.6775 51.1839 25.6775 50.7808 25.3776 50.6801C24.5779 50.1763 22.1788 48.665 21.0792 46.3476C20.9792 46.1064 20.6793 46.1064 20.6793 46.2468"/>
	<path fill="#2D1A0B" d="M22.6786 69.5214L16.181 62.9723C18.0803 60.6549 17.3805 59.6474 16.3809 58.4383C15.6812 57.6323 15.6812 56.7255 16.2809 56.1209C16.5808 55.8187 17.1806 55.2141 17.8804 54.0051C18.0803 53.8035 18.3802 53.199 17.2806 52.2922C16.8807 51.9899 16.6808 51.5869 16.6808 51.0831C16.6808 50.5794 16.9807 50.1763 17.3805 49.8741C18.78 48.9673 19.4798 46.5491 19.6797 45.8438C19.7796 45.3401 20.2795 45.0378 20.6793 45.0378C21.1791 45.0378 21.6789 45.2393 21.8789 45.7431C22.7785 47.6574 24.7778 48.9673 25.6775 49.5718C26.2773 49.8741 26.4771 50.2771 26.4771 50.6801C26.5772 51.0831 26.3773 51.5869 26.0774 51.8892C25.3776 52.6952 24.9777 53.602 25.0777 54.1058C25.3776 55.6171 26.1773 56.1209 26.8771 56.3224C27.3769 56.5239 27.6768 56.8262 27.8766 57.33C27.9767 57.8338 27.8766 58.3375 27.5767 58.6398C26.4771 59.9496 27.6768 61.2595 27.7767 61.3602L22.6786 69.5214M18.88 62.7708L22.4787 66.398L25.7775 61.9648C25.1777 60.9572 24.7778 59.4459 25.6775 57.9345C24.7778 57.4307 23.6782 56.5239 23.1784 54.5088C22.8785 53.199 23.4783 51.8892 24.278 50.9824C23.4783 50.3778 22.0788 49.4711 20.9792 48.0605C20.4794 49.1688 19.8796 50.2771 18.88 51.1839C20.0795 52.393 20.2795 53.8035 19.4798 55.1134C18.88 56.1209 18.2802 56.8262 17.8804 57.2292C18.78 58.136 20.3794 60.2519 18.88 62.7708"/>
	<path fill="#388E29" d="M3.48564 80.2113C4.58524 80.0098 7.08432 79.7075 8.68373 80.6143C8.98362 80.8159 9.38348 80.6143 9.48344 80.3121C9.68337 79.4053 10.1832 78.0955 11.7826 78.1962C13.1821 78.297 14.0817 78.5992 14.5815 78.8007C14.8814 78.9015 15.0814 78.8007 15.1813 78.4985C15.5813 77.5917 16.381 74.7705 19.5798 75.5765L21.8788 68.7252L14.5815 67.3146C14.5815 67.3146 13.6819 69.9342 11.0828 69.3297C10.783 69.2289 10.4831 69.5312 10.4831 69.8335C10.583 70.6395 10.4831 72.0501 8.98362 73.3599C8.08395 74.166 6.5845 73.8637 5.68483 73.6622C5.38494 73.5614 5.08505 73.7629 5.08505 74.0652C4.98509 75.0728 4.6852 77.7932 3.18575 79.8083C3.18575 80.1106 3.28571 80.3121 3.48564 80.2113"/>
	<path fill="#2D1A0B" d="M8.98748 81.7128C8.68767 81.7128 8.4878 81.6121 8.28793 81.5113C6.88882 80.7053 4.39041 81.0075 3.69086 81.209C3.19118 81.3098 2.6915 81.1083 2.49162 80.6045C2.19182 80.2015 2.3106 79.6977 2.59156 79.2947C3.89073 77.5818 4.19054 75.1637 4.29048 74.1561C4.39041 73.5516 4.59028 73.1486 4.89009 72.9471C5.28984 72.7456 5.68958 72.6448 6.08933 72.7456C7.18863 73.0478 8.08805 72.9471 8.4878 72.6448C9.5871 71.6373 9.78697 70.7305 9.68703 70.0252C9.5871 69.5214 9.78697 69.0176 10.1867 68.7153C10.5865 68.4131 10.9862 68.2116 11.4859 68.4131C13.0849 68.8161 13.6845 67.3048 13.7844 67.1032L14.8837 66.2972L23.2784 68.0101L20.3802 76.7758C17.4821 76.0705 16.8824 77.2796 16.2828 78.6901C15.8831 79.6977 14.9837 80.1007 14.2841 79.7985C13.8844 79.6977 13.0849 79.3954 11.6858 79.2947C11.386 79.2947 10.6864 79.1939 10.4865 80.6045C10.3866 81.1083 10.0868 81.5113 9.68703 81.7128C9.38722 81.7128 9.18735 81.7128 8.98748 81.7128M5.68958 78.9924C6.68895 78.9924 7.68831 79.0932 8.68767 79.4962C9.18735 77.8841 10.3866 77.0781 11.8856 77.1788C13.0849 77.2796 13.8844 77.4811 14.484 77.6826C14.8837 76.5743 16.083 74.1561 18.9811 74.4584L20.5801 69.5214L15.1835 68.5138C14.5839 69.5214 13.3847 70.5289 11.6858 70.4282C11.6858 71.4357 11.286 72.8463 9.78697 74.1561C8.78761 75.0629 7.3885 75.0629 6.18926 74.7607C6.08933 75.7682 5.78952 77.3803 5.08997 78.9924C5.1899 79.0932 5.38977 78.9924 5.68958 78.9924"/>
	<path fill="#388E29" d="M43.0712 77.9849C42.3713 77.1788 40.6721 75.2644 40.5721 73.3501C40.5721 73.0478 40.1721 72.7456 39.8722 72.9471C38.9726 73.2493 37.5732 73.5516 36.8733 72.141C36.1736 70.8312 35.8737 70.0251 35.7738 69.5214C35.6739 69.2191 35.4739 69.1183 35.174 69.1183C34.1743 69.3199 31.4754 70.2267 30.2758 67.0025L23.3783 68.9168L26.2773 75.7682C26.2773 75.7682 28.8763 75.1637 29.876 77.5818C29.9759 77.8841 30.3758 77.9849 30.6757 77.7834C31.2754 77.2796 32.475 76.5743 34.3744 77.0781C35.4739 77.3803 36.1736 78.7909 36.4735 79.6977C36.5735 80 36.8733 80.1007 37.1732 80C38.0729 79.597 40.472 78.1864 42.9711 78.3879C43.0712 78.2871 43.1711 78.0856 43.0712 77.9849"/>
	<path fill="#2D1A0B" d="M36.8741 81.0076C36.6741 81.0076 36.4742 81.0076 36.2743 80.9068C35.8744 80.7052 35.5745 80.403 35.3746 79.9999C34.9747 78.8916 34.4748 78.1863 33.975 78.0855C32.5755 77.6825 31.6757 78.0855 31.1759 78.4886C30.776 78.7908 30.2762 78.9923 29.7764 78.7908C29.2765 78.6901 28.9766 78.2871 28.7767 77.884C28.1769 76.3727 26.6774 76.675 26.3775 76.675L25.2778 76.0704L21.8789 68.1108L30.776 65.6926C31.7757 68.5138 33.0753 68.413 34.5748 68.1108C35.6745 67.8085 36.4742 68.3123 36.6741 69.1183C36.7741 69.5214 36.974 70.3274 37.6738 71.5365C37.7738 71.8388 38.1736 72.3425 39.4732 71.8388C39.8731 71.6372 40.3729 71.738 40.7728 71.9395C41.1727 72.2418 41.4726 72.6448 41.4726 73.1486C41.5726 74.7607 43.272 76.675 43.7718 77.1787C44.0758 77.5818 44.1717 78.0855 43.9718 78.4886C43.7718 78.8916 43.272 79.1939 42.7722 79.1939C40.6728 79.0931 38.5735 80.2014 37.5738 80.6044C37.2739 80.9068 37.074 81.0076 36.8741 81.0076M32.8754 75.7682C33.3752 75.7682 33.975 75.8689 34.5748 76.0704C35.8744 76.4735 36.6741 77.6825 37.074 78.7908C37.9737 78.3878 39.4732 77.6825 41.1727 77.3803C40.4729 76.4735 39.7731 75.2644 39.5732 74.0554C37.9737 74.4584 36.5742 73.9546 35.8744 72.6448C35.2746 71.6372 34.9747 70.7304 34.7747 70.2267C33.6751 70.4282 30.976 70.8312 29.5764 68.2115L24.578 69.5214L26.7773 74.6599C27.9769 74.6599 29.4764 75.0629 30.3762 76.5742C30.976 76.1712 31.7757 75.7682 32.8754 75.7682"/>
	<path fill="#388E29" d="M102.949 43.2242C102.649 44.2318 101.75 46.6499 100.25 47.7582C99.9503 47.9598 99.9503 48.3628 100.25 48.5643C100.95 49.1688 101.95 50.2771 101.05 51.587C100.35 52.796 99.6504 53.5013 99.2506 53.9043C99.1006 54.086 99.1006 54.4081 99.2506 54.6096C99.9503 55.4157 102.05 57.33 99.8503 59.9497L104.849 65.0882L109.347 59.1436C109.347 59.1436 107.448 57.1285 109.147 55.1134C109.347 54.8111 109.247 54.5089 108.947 54.4081C108.147 54.086 106.948 53.4006 106.548 51.4862C106.248 50.2771 107.148 49.0681 107.747 48.3628C107.947 48.1613 107.947 47.7582 107.647 47.6575C106.848 47.1537 104.449 45.6424 103.349 43.325C103.249 43.0838 102.949 43.0838 102.949 43.2242"/>
	<path fill="#2D1A0B" d="M104.948 66.5995L98.4509 60.0504C100.35 57.733 99.6504 56.7255 98.6508 55.5164C97.951 54.7104 97.951 53.8036 98.5508 53.199C98.8507 52.8968 99.4505 52.2922 100.15 51.0831C100.35 50.8816 100.65 50.2771 99.5505 49.3703C99.1506 49.068 98.9507 48.665 98.9507 48.1612C98.9507 47.6575 99.2506 47.2544 99.6504 46.9522C101.05 46.0454 101.75 43.6272 101.95 42.9219C102.05 42.4182 102.549 42.1159 102.949 42.1159C103.449 42.1159 103.949 42.3174 104.149 42.8212C105.048 44.7355 107.048 46.0454 107.947 46.6499C108.547 46.9522 108.747 47.3552 108.747 47.7582C108.847 48.1612 108.647 48.665 108.347 48.9673C107.647 49.7733 107.248 50.6801 107.348 51.1839C107.647 52.6952 108.447 53.199 109.147 53.4005C109.647 53.602 109.947 53.9043 110.147 54.4081C110.247 54.9119 110.147 55.4156 109.847 55.7179C108.747 57.0277 109.947 58.3376 110.047 58.4383L104.948 66.5995M101.15 59.8489L104.749 63.4761L108.047 59.0429C107.448 58.0353 107.048 56.524 107.947 55.0126C107.048 54.5088 105.948 53.602 105.448 51.5869C105.148 50.2771 105.748 48.9673 106.548 48.0605C105.748 47.4559 104.349 46.5491 103.249 45.1386C102.749 46.2469 102.15 47.3552 101.15 48.262C102.349 49.4711 102.549 50.8816 101.75 52.1915C101.15 53.199 100.55 53.9043 100.15 54.3073C101.05 55.1134 102.649 57.2293 101.15 59.8489"/>
	<path fill="#388E29" d="M85.6554 77.2795C86.755 77.078 89.2541 76.7757 90.8535 77.6825C91.1534 77.8841 91.5533 77.6825 91.6532 77.3803C91.8532 76.4735 92.353 75.1637 93.9524 75.2644C95.3519 75.3652 96.2516 75.6674 96.7514 75.8689C97.0513 75.9697 97.2512 75.8689 97.3512 75.5667C97.7511 74.6599 98.5508 71.8387 101.75 72.6448L104.049 65.7934L96.7514 64.3828C96.7514 64.3828 95.8517 67.0025 93.2527 66.3979C92.9528 66.2972 92.6529 66.5994 92.6529 66.9017C92.7528 67.7078 92.6529 69.1183 91.1534 70.4282C90.2538 71.2342 88.7543 70.9319 87.8546 70.7304C87.5547 70.6297 87.2549 70.8312 87.2549 71.1334C87.1549 72.141 86.855 74.8614 85.3556 76.8765C85.3556 77.078 85.4555 77.2795 85.6554 77.2795"/>
	<path fill="#2D1A0B" d="M91.1573 78.7909C90.8575 78.7909 90.6576 78.6901 90.4577 78.5894C89.0586 77.7833 86.5602 78.0856 85.8607 78.2871C85.361 78.3879 84.8613 78.1863 84.6614 77.6826C84.3616 77.2795 84.4804 76.675 84.7614 76.3727C86.0605 74.6599 86.3603 72.2418 86.4603 71.2342C86.5602 70.6297 86.7601 70.2266 87.0599 69.9244C87.4596 69.7229 87.8594 69.6221 88.2591 69.7229C89.3584 70.0251 90.2579 69.9244 90.6576 69.6221C91.7569 68.6146 91.9568 67.7077 91.8568 67.0025C91.7569 66.4987 91.9568 65.9949 92.3565 65.6926C92.7563 65.3904 93.156 65.1889 93.6557 65.3904C95.2547 65.7934 95.8543 64.2821 95.9542 64.0805L97.0535 63.3753L105.448 64.9874L102.55 73.7531C99.6519 73.0478 99.0522 74.2569 98.4526 75.6674C98.0529 76.675 97.1535 77.078 96.4539 76.7758C96.0542 76.675 95.2547 76.3727 93.8556 76.272C93.5557 76.272 92.8562 76.1712 92.6563 77.5818C92.5564 78.0856 92.2566 78.4886 91.8568 78.6901C91.657 78.6901 91.3571 78.7909 91.1573 78.7909M87.8594 76.0705C88.8587 76.0705 89.8581 76.1712 90.8575 76.5742C91.3571 74.9622 92.5564 74.1561 94.0554 74.2569C95.2547 74.3576 96.0542 74.5591 96.6538 74.7606C97.0535 73.6523 98.1528 71.2342 101.151 71.5365L102.75 66.5994L97.3533 65.5919C96.7537 66.5994 95.5545 67.607 93.8556 67.5062C93.8556 68.5138 93.4558 69.9244 91.9568 71.2342C90.9574 72.141 89.5583 72.141 88.3591 71.8387C88.2591 72.8463 87.9593 74.4584 87.2598 76.0705C87.3597 76.0705 87.6595 76.0705 87.8594 76.0705"/>
	<path fill="#388E29" d="M125.341 74.9623C124.641 74.1562 122.942 72.2418 122.842 70.3275C122.842 70.0252 122.442 69.723 122.142 69.9245C121.242 70.2267 119.843 70.529 119.143 69.1184C118.443 67.8086 118.143 67.0025 118.043 66.4988C117.943 66.1965 117.744 66.0957 117.444 66.0957C116.444 66.2973 113.745 67.2041 112.545 63.9799L105.648 65.8942L108.547 72.7456C108.547 72.7456 111.146 72.1411 112.146 74.5592C112.246 74.8615 112.645 74.9623 112.945 74.7608C113.545 74.257 114.745 73.5517 116.644 74.0555C117.744 74.3577 118.443 75.7683 118.743 76.6751C118.843 76.9774 119.143 77.0781 119.443 76.9774C120.343 76.5744 122.742 75.1638 125.241 75.3653C125.341 75.2645 125.441 75.063 125.341 74.9623"/>
	<path fill="#2D1A0B" d="M119.044 77.985C118.844 77.985 118.644 77.985 118.444 77.8842C118.044 77.6826 117.744 77.3804 117.544 76.9773C117.144 75.869 116.644 75.1637 116.145 75.063C114.745 74.66 113.845 75.063 113.345 75.466C112.946 75.7682 112.446 75.9697 111.946 75.7682C111.446 75.6675 111.146 75.2645 110.946 74.8615C110.346 73.3502 108.847 73.6525 108.547 73.6525L107.447 73.0479L104.049 65.0882L112.946 62.6701C113.945 65.4912 115.245 65.3904 116.744 65.0882C117.844 64.7859 118.644 65.2897 118.844 66.0957C118.944 66.5995 119.244 67.4056 119.843 68.5139C119.943 68.8162 120.343 69.3199 121.643 68.8162C122.043 68.6146 122.542 68.7154 122.942 68.9169C123.342 69.2192 123.642 69.6222 123.642 70.126C123.742 71.7381 125.442 73.6525 125.941 74.1562C126.245 74.5592 126.341 75.063 126.141 75.466C125.941 75.869 125.442 76.1713 124.942 76.1713C122.842 76.0705 120.743 77.1788 119.743 77.5818C119.544 77.8842 119.344 77.985 119.044 77.985M115.147 72.8464C115.645 72.8464 116.245 72.9472 116.844 73.1487C118.144 73.5517 118.944 74.7607 119.344 75.869C120.243 75.466 121.743 74.7607 123.442 74.4585C122.743 73.5517 122.043 72.3426 121.843 71.1335C120.243 71.5366 118.844 71.0328 118.144 69.723C117.544 68.7154 117.244 67.9093 117.044 67.3048C115.945 67.5063 113.246 67.9093 111.846 65.2897L106.848 66.5995L109.047 71.7381C110.246 71.7381 111.746 72.1411 112.646 73.6525C113.246 73.1487 114.045 72.8464 115.147 72.8464"/>
	<path fill="white" d="M34.3743 30.8312C34.3743 33.4466 32.2708 35.5667 29.676 35.5667C27.0812 35.5667 24.9777 33.4466 24.9777 30.8312C24.9777 28.2159 27.0812 26.0957 29.676 26.0957C32.2708 26.0957 34.3743 28.2159 34.3743 30.8312"/>
	<path fill="#2D1A0B" d="M29.676 36.5742C26.5772 36.5742 23.9781 33.9547 23.9781 30.8312C23.9781 27.7078 26.5772 25.0882 29.676 25.0882C32.7749 25.0882 35.3739 27.7078 35.3739 30.8312C35.3739 33.9547 32.7749 36.5742 29.676 36.5742M29.676 27.1033C27.6767 27.1033 25.9774 28.8161 25.9774 30.8312C25.9774 32.8463 27.6767 34.5592 29.676 34.5592C31.6753 34.5592 33.3746 32.8463 33.3746 30.8312C33.3746 28.8161 31.6753 27.1033 29.676 27.1033"/>
	<path fill="white" d="M27.3781 68.5083C27.4631 71.1221 25.432 73.3127 22.8388 73.4039C20.2455 73.4896 17.9817 71.4424 17.9817 68.8286C17.9817 66.2148 19.9278 63.933 22.521 63.933C25.1142 63.933 27.2876 65.8945 27.3781 68.5083"/>
	<path fill="#2D1A0B" d="M22.6799 74.5592C19.5803 74.5592 17.0806 72.1411 16.9777 69.0177C16.9777 65.8942 19.3803 63.1738 22.4799 63.0701C25.5795 63.0701 28.2792 65.4912 28.3821 68.6146C28.4791 71.7381 25.9795 74.4585 22.8798 74.5592C22.8798 74.5592 22.7799 74.5592 22.6799 74.5592M22.6799 65.0882C22.6799 65.0882 22.5799 65.0882 22.5799 65.0882C20.5801 65.1889 18.9803 66.9018 18.9803 68.9169C19.0803 70.932 20.7801 72.5441 22.7799 72.5441C24.7796 72.4434 26.3794 70.7305 26.3794 68.7154C26.3794 66.7003 24.6796 65.0882 22.6799 65.0882"/>
	<path fill="white" d="M110.633 65.4845C110.718 68.0983 108.687 70.2889 106.094 70.3801C103.501 70.4658 101.237 68.4186 101.237 65.8048C101.237 63.1911 103.183 60.9093 105.776 60.9093C108.37 60.9093 110.543 62.8708 110.633 65.4845"/>
	<path fill="#2D1A0B" d="M105.956 71.5366C104.451 71.5366 103.151 71.0328 102.05 70.0252C100.95 69.0176 100.247 67.5063 100.247 65.995C100.247 62.8715 102.651 60.1511 105.752 60.0475C108.853 60.0475 111.554 62.4685 111.665 65.5919C111.754 67.1033 111.154 68.6146 110.154 69.7229C109.153 70.8313 107.653 71.5366 106.152 71.5366C106.052 71.5366 105.956 71.5366 105.956 71.5366M105.956 62.0655C105.956 62.0655 105.852 62.0655 105.852 62.0655C103.851 62.1662 102.251 63.8791 102.251 65.8942C102.251 66.9018 102.751 67.8086 103.451 68.5139C104.151 69.2191 105.152 69.5214 106.152 69.5214C107.152 69.5214 108.053 69.0176 108.753 68.3123C109.453 67.607 109.754 66.5995 109.754 65.5919C109.553 63.6776 107.953 62.0655 105.956 62.0655"/>
	<path fill="#FCD11A" d="M73.35 103.989C73.5326 109.606 69.168 114.313 63.5953 114.509C58.0226 114.693 53.3522 110.294 53.1577 104.677C52.975 99.0602 57.3397 94.3528 62.9124 94.1568C68.4851 93.9727 73.1555 98.3719 73.35 103.989"/>
	<path fill="#2D1A0B" d="M63.2665 115.667C60.4669 115.667 57.7672 114.559 55.6674 112.645C53.4676 110.629 52.2678 107.808 52.1615 104.886C52.1615 101.964 53.1677 99.0425 55.1674 96.9267C57.1672 94.71 59.9669 93.501 62.8666 93.3939C65.8663 93.3939 68.666 94.4078 70.7657 96.4229C72.8655 98.438 74.1654 101.259 74.2714 104.181C74.4653 110.327 69.6658 115.566 63.5665 115.768C63.4665 115.667 63.3665 115.667 63.2665 115.667M63.2665 95.3146C63.1666 95.3146 63.0666 95.3146 62.9666 95.3146C60.5668 95.4153 58.2671 96.4229 56.6673 98.2365C54.9675 100.05 54.1675 102.367 54.2675 104.786C54.3675 107.204 55.3674 109.521 57.1672 111.133C58.967 112.846 61.2668 113.652 63.6665 113.551C68.666 113.35 72.5655 109.118 72.4655 104.08C72.1656 99.244 68.166 95.3146 63.2665 95.3146"/>
	<path fill="white" d="M106.636 33.5469C106.721 36.1607 104.69 38.3513 102.097 38.4425C99.5036 38.5282 97.2397 36.481 97.2397 33.8672C97.2397 31.2535 99.1858 28.9717 101.779 28.9717C104.372 28.9717 106.546 30.9332 106.636 33.5469"/>
	<path fill="#2D1A0B" d="M101.954 39.597C100.453 39.597 99.1529 39.0931 98.0524 38.0856C96.952 37.078 96.2409 35.5667 96.2409 34.0554C96.2409 32.544 96.7519 31.0327 97.7523 29.9244C98.7527 28.8161 100.253 28.1078 101.754 28.1078C104.855 28.1078 107.556 30.5289 107.667 33.6523C107.756 35.1637 107.156 36.675 106.156 37.7833C105.155 38.8916 103.655 39.597 102.154 39.597C102.154 39.597 102.054 39.597 101.954 39.597M101.954 30.1259C101.954 30.1259 101.854 30.1259 101.854 30.1259C100.854 30.1259 99.9532 30.6297 99.2529 31.3349C98.5527 32.0402 98.2525 33.0478 98.2525 34.0554C98.2525 35.0629 98.7527 35.9697 99.453 36.675C100.153 37.3803 101.154 37.6826 102.154 37.6826C103.154 37.6826 104.055 37.1788 104.755 36.4735C105.455 35.7682 105.756 34.7606 105.756 33.7531C105.655 31.738 103.955 30.1259 101.954 30.1259"/>
	<path fill="#FCD11A" d="M64.1633 97.4305L65.7628 100.755C65.9627 101.058 66.2626 101.259 66.5625 101.36L70.1612 101.864C71.073 101.965 71.3607 103.073 70.7609 103.677L68.1619 106.196C67.962 106.398 67.762 106.801 67.862 107.103L68.4618 110.73C68.5617 111.637 67.6621 112.242 66.9623 111.839L63.7635 110.126C63.4636 109.924 63.0637 109.924 62.7638 110.126L59.565 111.839C58.7653 112.242 57.8656 111.536 58.0656 110.73L58.6653 107.103C58.7653 106.801 58.5654 106.398 58.3655 106.196L55.7664 103.677C55.1666 103.073 55.4544 101.965 56.3662 101.864L59.9649 101.36C60.2648 101.259 60.5646 101.058 60.7646 100.755L62.364 97.4305C62.6639 96.6245 63.7635 96.6245 64.1633 97.4305"/>
	<path fill="#2D1A0B" d="M67.4602 113.048C67.16 113.048 66.76 112.947 66.4601 112.846L63.2598 111.133L59.9596 112.846C59.2595 113.249 58.4595 113.148 57.7594 112.645C57.1594 112.141 56.7593 111.436 56.9594 110.63L57.5594 107.002L54.9592 104.383C54.3214 103.778 54.1592 102.972 54.4592 102.267C54.6592 101.562 55.3592 100.957 56.1593 100.856L59.7596 100.352L61.4597 97.0275C61.7597 96.3222 62.5598 95.9192 63.2598 95.9192C64.0599 95.9192 64.7599 96.3222 65.06 97.0275L66.66 100.352L70.2604 100.957C71.0603 101.058 71.6604 101.562 71.9604 102.368C72.1604 103.073 71.9604 103.98 71.4604 104.483L68.8603 107.002L69.4603 110.63C69.5602 111.436 69.2603 112.141 68.6602 112.645C68.2601 112.947 67.8602 113.048 67.4602 113.048M63.2598 109.118C63.5598 109.118 63.9599 109.219 64.2599 109.32L67.4602 111.033L66.9601 107.405C66.86 106.7 67.0601 106.095 67.5602 105.592L70.1603 103.073L70.2604 101.965L70.1603 102.972L66.5601 102.468C65.86 102.368 65.3599 101.965 65.06 101.36L63.4598 98.0351L61.7597 101.36C61.4597 101.965 60.8596 102.368 60.2596 102.468L56.6594 102.972L59.2595 105.592C59.7596 106.095 59.9596 106.801 59.8596 107.405L59.2595 111.033L62.5598 109.42C62.5598 109.118 62.8598 109.118 63.2598 109.118"/>
</svg>
