<?xml version="1.0" encoding="utf-8" ?>
<svg xmlns="http://www.w3.org/2000/svg" xmlns:xlink="http://www.w3.org/1999/xlink" width="98" height="116">
	<path fill="white" d="M85.94 90.8349L85.94 61.9602C85.94 45.2169 74.4881 31.0804 58.8811 26.7692C62.2254 23.962 64.3537 19.8513 64.3537 15.1392C64.3537 6.81763 57.4623 0 49 0C40.6391 0 33.7477 6.81763 33.7477 15.1392C33.7477 19.7511 35.8759 23.962 39.2203 26.669C23.6132 30.8799 12.06 45.1167 12.06 61.86L12.06 90.7347C5.37125 91.0354 0 96.5497 0 103.367C0 110.285 5.67528 116 12.7694 116L85.2306 116C92.2234 116 98 110.385 98 103.367C98 96.65 92.6287 91.1357 85.94 90.8349"/>
	<path fill="#FD003A" d="M82.849 95.4468L15.1511 95.4468L15.1511 61.9602C15.1511 43.4122 30.3528 28.4736 49 28.4736C67.7487 28.4736 82.849 43.5125 82.849 61.9602L82.849 95.4468"/>
	<path fill="#2D190C" d="M83.8625 96.4494L14.1376 96.4494L14.1376 61.9602C14.1376 42.9109 29.7446 27.471 49.0001 27.471C68.2555 27.471 83.8625 42.9109 83.8625 61.9602L83.8625 96.4494M16.1645 94.4442L81.937 94.4442L81.937 61.9602C81.937 44.0138 67.242 29.4762 49.1014 29.4762C30.9608 29.4762 16.2658 44.0138 16.2658 61.9602L16.2658 94.4442"/>
	<path fill="#F3FAFF" d="M85.2307 112.992L12.7694 112.992C7.39816 112.992 3.04035 108.681 3.04035 103.367C3.04035 98.0533 7.39816 93.7421 12.7694 93.7421L85.2307 93.7421C90.6019 93.7421 94.9596 98.0533 94.9596 103.367C94.9596 108.681 90.6019 112.992 85.2307 112.992"/>
	<path fill="#2C180C" d="M85.2306 113.994L12.7694 113.994C6.89143 113.994 2.0269 109.282 2.0269 103.367C2.0269 97.5519 6.79009 92.7395 12.7694 92.7395L85.2306 92.7395C91.1086 92.7395 95.9731 97.4517 95.9731 103.367C95.9731 109.282 91.2099 113.994 85.2306 113.994M12.7694 94.845C8.00622 94.845 4.05379 98.6548 4.05379 103.467C4.05379 108.28 7.90487 112.09 12.7694 112.09L85.2306 112.09C89.9938 112.09 93.9462 108.28 93.9462 103.467C93.9462 98.6548 90.0952 94.845 85.2306 94.845L12.7694 94.845"/>
	<path fill="#F3FAFF" d="M61.4146 15.1393C61.4146 21.8392 55.9245 27.2706 49.152 27.2706C42.3794 27.2706 36.8893 21.8392 36.8893 15.1393C36.8893 8.4393 42.3794 3.0079 49.152 3.0079C55.9245 3.0079 61.4146 8.4393 61.4146 15.1393"/>
	<path fill="#2C180C" d="M49.152 28.2732C41.8552 28.2732 35.8759 22.3579 35.8759 15.1393C35.8759 7.9206 41.8552 2.0053 49.152 2.0053C56.4488 2.0053 62.4281 7.9206 62.4281 15.1393C62.4281 22.3579 56.4488 28.2732 49.152 28.2732M49.152 4.01049C42.97 4.01049 37.9028 9.02345 37.9028 15.1393C37.9028 21.2551 42.97 26.268 49.152 26.268C55.334 26.268 60.4012 21.2551 60.4012 15.1393C60.4012 9.02345 55.334 4.01049 49.152 4.01049"/>
	<path fill="#FE9923" d="M15.8604 71.6854L14.3403 70.382L25.8936 58.3509L38.2575 68.0761L49.2028 58.3509L60.6546 68.8782L72.8159 58.3509L83.6598 70.382L82.1396 71.6854L72.6133 61.1582L60.6546 71.5851L49.2028 61.0579L38.3588 70.6828L26.0961 61.0579"/>
</svg>
