<?xml version="1.0" encoding="utf-8" ?>
<svg xmlns="http://www.w3.org/2000/svg" xmlns:xlink="http://www.w3.org/1999/xlink" width="102" height="114">
	<path fill="white" d="M101.645 79.5583C101.042 77.1413 99.4314 75.1272 97.318 73.9187C95.9091 73.1131 94.2988 72.7102 92.6886 72.7102C91.5816 72.7102 90.5752 72.9117 89.5688 73.2138L82.9266 69.3869L88.3611 67.8763C89.7701 67.4735 90.8771 66.5671 91.5816 65.3587C92.2861 64.1502 92.4873 62.6396 92.0848 61.2297C91.4809 58.9134 89.3675 57.3021 86.8516 57.3021C86.3484 57.3021 85.9458 57.4028 85.4426 57.5035L70.6487 61.5318C70.3467 61.6325 70.0448 61.7332 69.7429 61.8339L67.7301 60.6254C67.9314 59.6184 68.032 58.5106 68.032 57.5035C68.032 56.0936 67.8308 54.6837 67.5288 53.2739L68.9378 52.4682C69.2397 52.5689 69.5416 52.7703 69.8435 52.7703L84.6375 56.7986C85.1407 57 85.5432 57 86.0464 57C88.4618 57 90.5752 55.3887 91.2797 52.9717C92.0848 50.1519 90.3739 47.1307 87.4554 46.4258L82.0209 44.9152L87.556 41.6926C88.965 42.4982 90.4746 42.9011 92.0848 42.9011C93.695 42.9011 95.3052 42.4982 96.7142 41.6926C101.142 39.1749 102.652 33.4346 100.136 29.0035C98.5257 26.1837 95.4059 24.371 92.0848 24.371C90.4746 24.371 88.8643 24.7739 87.4554 25.5795C85.04 26.9894 83.5305 29.3057 83.0273 31.924L76.3851 35.7509L77.8947 30.3127C78.6998 27.4929 76.9889 24.4717 74.0704 23.7668C73.5672 23.6661 73.1646 23.5654 72.6614 23.5654C70.2461 23.5654 68.1327 25.1767 67.4282 27.5936L63.4026 42.3975C63.302 42.6996 63.302 43.1025 63.2014 43.4046L61.7924 44.2102C59.679 42.3975 57.163 41.189 54.5464 40.5848L54.5464 37.5636C54.8483 37.3622 55.0496 37.1608 55.3515 36.9594L66.2205 26.083C67.2269 25.076 67.8308 23.7668 67.8308 22.2562C67.8308 20.8463 67.2269 19.4364 66.2205 18.4293C65.2141 17.4223 63.9058 16.818 62.3962 16.818C60.9873 16.818 59.5784 17.4223 58.572 18.4293L54.5464 22.4576L54.5464 17.1201C57.163 15.4081 58.8739 12.4876 58.8739 9.26502C58.8739 4.12898 54.7477 0 49.6151 0C44.4825 0 40.3563 4.12898 40.3563 9.26502C40.3563 12.0848 41.6646 14.7032 43.778 16.5159L43.778 22.0548L39.7524 18.0265C38.7461 17.0194 37.4377 16.4152 35.9282 16.4152C34.5192 16.4152 33.1103 17.0194 32.1039 18.0265C31.0975 19.0336 30.4936 20.3428 30.4936 21.8534C30.4936 23.364 31.0975 24.6731 32.1039 25.6802L42.9729 36.5565C43.1742 36.758 43.4761 37.0601 43.778 37.1608L43.778 41.5919C42.1678 42.2968 40.6582 43.2032 39.3499 44.4117L37.3371 43.2032C37.3371 43.1025 37.3371 43.1025 37.3371 43.0018L33.3115 28.1979C32.7077 25.8816 30.5943 24.2703 28.0783 24.2703C27.5751 24.2703 27.1726 24.371 26.6694 24.4717C25.2604 24.8746 24.1534 25.7809 23.4489 26.9894C22.7444 28.1979 22.5432 29.7085 22.9457 31.1184L24.1534 35.7509L19.6246 33.1325C19.3227 30.212 17.7125 27.4929 14.9952 25.9823C13.5863 25.1767 11.9761 24.7739 10.3658 24.7739C7.04474 24.7739 4.02556 26.5866 2.3147 29.4064C-0.201278 33.8375 1.30831 39.477 5.73643 42.0954C7.14538 42.9011 8.7556 43.3039 10.3658 43.3039C11.6741 43.3039 12.9824 43.0018 14.1901 42.4982L19.4233 45.5194L13.0831 47.2314C11.6741 47.6343 10.5671 48.5406 9.86263 49.7491C9.15816 50.9576 8.95688 52.4682 9.35944 53.8781C9.96327 56.1943 12.0767 57.8057 14.5927 57.8057C15.0959 57.8057 15.4984 57.7049 16.0016 57.6042L30.7956 53.576C31.3994 53.3746 31.9026 53.1731 32.4058 52.871L33.8147 53.6767C33.5128 54.9859 33.3115 56.2951 33.3115 57.7049C33.3115 58.712 33.4122 59.7191 33.6135 60.6254L30.7956 62.2367C30.6949 62.2367 30.6949 62.2367 30.5943 62.136L15.8003 58.1078C15.2971 58.0071 14.8946 57.9064 14.3914 57.9064C11.9761 57.9064 9.86263 59.5177 9.15816 61.9346C8.35305 64.7544 10.0639 67.7756 12.9824 68.4806L17.6118 69.689L13.0831 72.3074C11.8754 71.8039 10.5671 71.5018 9.2588 71.5018C7.64857 71.5018 6.03835 71.9046 4.6294 72.7102C2.51598 73.9187 0.905752 75.9329 0.301917 78.3498C-0.301917 80.7668 0 83.1837 1.20767 85.3993C2.8179 88.2191 5.93771 90.0318 9.2588 90.0318C10.869 90.0318 12.4792 89.629 13.8882 88.8233C16.5048 87.3127 18.2157 84.5936 18.5176 81.6731L23.7508 78.6519L22.04 84.9965C21.6374 86.4064 21.8387 87.8163 22.5432 89.1254C23.2476 90.3339 24.4553 91.2403 25.7636 91.6431C26.2668 91.7438 26.6694 91.8445 27.1726 91.8445C28.7828 91.8445 30.1917 91.1396 31.1981 90.0318C31.3994 90.9382 31.9026 91.9452 32.6071 92.6502C33.6135 93.6572 34.9218 94.2615 36.4314 94.2615C37.8403 94.2615 39.2493 93.6572 40.2556 92.6502L43.778 89.1254L43.778 97.4841C41.6646 99.1961 40.3563 101.814 40.3563 104.735C40.3563 109.871 44.4825 114 49.6151 114C54.7477 114 58.8739 109.871 58.8739 104.735C58.8739 101.412 57.163 98.5919 54.5464 96.8799L54.5464 88.6219L58.9745 93.053C59.9809 94.0601 61.2892 94.6643 62.7988 94.6643C64.2078 94.6643 65.6167 94.0601 66.6231 93.053C67.6295 92.0459 68.2333 90.7367 68.2333 89.2261C68.2333 87.7155 67.6295 86.4064 66.6231 85.3993L55.7541 74.523C55.6534 74.4223 55.6534 74.4223 55.5528 74.3216C58.1694 73.5159 60.6854 72.106 62.6982 70.1926L64.9122 71.4011C64.9122 71.7032 65.0129 72.106 65.1135 72.4081L69.1391 87.212C69.7429 89.5283 71.8563 91.1396 74.3723 91.1396C74.8755 91.1396 75.2781 91.0389 75.7812 90.9382C78.5991 90.1325 80.31 87.212 79.6055 84.3922L78.0959 78.9541L83.6311 82.1767C83.7317 85.3993 85.4426 88.4205 88.2605 90.0318C89.6694 90.8375 91.2797 91.2403 92.8899 91.2403C96.211 91.2403 99.2302 89.4276 100.941 86.6078C102 84.3922 102.35 81.8746 101.645 79.5583M36.4314 72.9117C36.6326 72.3074 36.6326 71.8039 36.6326 71.1996L38.7461 69.9912C40.2556 71.5018 42.0671 72.6095 43.9793 73.5159C43.8787 73.818 43.778 73.9187 43.6774 74.0194L33.5128 84.1908L36.4314 72.9117"/>
	<path fill="#D7E9FF" d="M63.898 20.4434C64.8036 21.3498 64.8036 22.8604 63.898 23.7668L53.0303 34.6431C52.1246 35.5495 50.6152 35.5495 49.7096 34.6431C48.804 33.7368 48.804 32.2262 49.7096 31.3198L60.5773 20.4434C61.483 19.5371 62.9924 19.5371 63.898 20.4434"/>
	<path fill="#2C180C" d="M51.4203 36.3551C50.5146 36.3551 49.7096 36.053 49.0052 35.348C48.4015 34.7438 47.999 33.8374 47.999 32.9311C47.999 32.0247 48.3008 31.2191 49.0052 30.5141L59.873 19.6378C61.1811 18.3286 63.3949 18.3286 64.6023 19.6378C65.2061 20.242 65.6087 21.1484 65.6087 22.0547C65.6087 22.9611 65.3067 23.7668 64.6023 24.4717L53.7347 35.348C53.2315 35.9523 52.3259 36.3551 51.4203 36.3551M62.2879 20.7456C61.8855 20.7456 61.5835 20.8463 61.3824 21.1484L50.5146 32.0247C50.2127 32.3268 50.1121 32.629 50.1121 32.9311C50.1121 33.3339 50.2127 33.636 50.5146 33.8374C51.0177 34.341 51.9234 34.341 52.4265 33.8374L63.2943 22.9611C63.5961 22.659 63.6968 22.3569 63.6968 22.0547C63.6968 21.6519 63.5961 21.3498 63.2943 21.1484C62.9924 20.947 62.5899 20.7456 62.2879 20.7456"/>
	<path fill="#D7E9FF" d="M34.3137 20.0406C33.4081 20.947 33.4081 22.4576 34.3137 23.364L45.1814 34.2403C46.0871 35.1467 47.5965 35.1467 48.5021 34.2403C49.4077 33.334 49.4077 31.8234 48.5021 30.917L37.6344 20.0406C36.6281 19.1343 35.2194 19.1343 34.3137 20.0406"/>
	<path fill="#2C180C" d="M46.7915 35.9523C45.8858 35.9523 45.0807 35.6502 44.3764 34.9452L33.5087 24.0689C32.905 23.4647 32.5024 22.5583 32.5024 21.6519C32.5024 20.7456 32.8043 19.9399 33.5087 19.235C34.8169 17.9258 37.0306 17.9258 38.2382 19.235L49.1059 30.1113C49.7096 30.7156 50.1121 31.6219 50.1121 32.5283C50.1121 33.4346 49.8102 34.2403 49.1059 34.9452C48.502 35.5495 47.697 35.9523 46.7915 35.9523M35.9238 20.3428C35.5212 20.3428 35.2194 20.4435 35.0181 20.7456C34.7162 21.0477 34.6156 21.3498 34.6156 21.6519C34.6156 22.0548 34.7162 22.3569 35.0181 22.5583L45.8858 33.4346C46.389 33.9382 47.2945 33.9382 47.7977 33.4346C48.0995 33.1325 48.2002 32.8304 48.2002 32.5283C48.2002 32.1254 48.0995 31.8233 47.7977 31.6219L36.93 20.7456C36.6282 20.5442 36.3263 20.3428 35.9238 20.3428"/>
	<path fill="#D7E9FF" d="M34.7162 90.1325C33.8106 89.2262 33.8106 87.7156 34.7162 86.8092L45.5839 75.9329C46.4896 75.0265 47.999 75.0265 48.9046 75.9329C49.8102 76.8392 49.8102 78.3499 48.9046 79.2562L38.0369 90.1325C37.1313 91.1396 35.6219 91.1396 34.7162 90.1325"/>
	<path fill="#2C180C" d="M36.3262 91.8445C35.4206 91.8445 34.6156 91.5424 33.9112 90.8374C32.6031 89.5282 32.6031 87.4135 33.9112 86.1042L44.7789 75.2279C46.087 73.9188 48.3008 73.9188 49.5084 75.2279C50.8165 76.5371 50.8165 78.652 49.5084 79.9612L38.6407 90.8374C38.1375 91.5424 37.2319 91.8445 36.3262 91.8445M47.1939 76.3357C46.7914 76.3357 46.4896 76.4364 46.2883 76.7385L35.4206 87.6148C34.9175 88.1183 34.9175 89.0247 35.4206 89.5282C35.9237 90.0318 36.8294 90.0318 37.3325 89.5282L48.2002 78.652C48.7033 78.1484 48.7033 77.2421 48.2002 76.7385C47.8983 76.4364 47.4958 76.3357 47.1939 76.3357"/>
	<path fill="#D7E9FF" d="M64.4011 90.636C65.3067 89.7297 65.3067 88.2191 64.4011 87.3127L53.5334 76.4364C52.6278 75.53 51.1184 75.53 50.2127 76.4364C49.3071 77.3428 49.3071 78.8534 50.2127 79.7597L61.0804 90.636C61.9861 91.5424 63.4955 91.5424 64.4011 90.636"/>
	<path fill="#2C180C" d="M62.6904 92.2473C61.7848 92.2473 60.9798 91.9453 60.2754 91.2402L49.4077 80.364C48.0996 79.0548 48.0996 76.9399 49.4077 75.6307C50.7159 74.3216 52.9296 74.3216 54.1372 75.6307L65.0049 86.507C66.313 87.8163 66.313 89.931 65.0049 91.2402C64.4011 91.9453 63.5961 92.2473 62.6904 92.2473M51.9234 76.7385C51.5209 76.7385 51.219 76.8392 51.0177 77.1413C50.5146 77.6449 50.5146 78.5512 51.0177 79.0548L61.8854 89.931C62.3886 90.4346 63.2942 90.4346 63.7973 89.931C64.3005 89.4276 64.3005 88.5211 63.7973 88.0176L52.9296 77.1413C52.5271 76.8392 52.2253 76.7385 51.9234 76.7385"/>
	<path fill="#D7E9FF" d="M46.7914 11.984L51.5209 11.984L51.5209 97.9875L46.7914 97.9875L46.7914 11.984"/>
	<path fill="#2C180C" d="M52.4265 99.0955L45.6845 99.0955L45.6845 11.0778L52.4265 11.0778L52.4265 99.0955M47.7977 97.0813L50.5146 97.0813L50.5146 13.0919L47.7977 13.0919L47.7977 97.0813"/>
	<path fill="#D7E9FF" d="M55.7472 9.16431C55.7472 12.6127 52.9539 15.4081 49.5083 15.4081C46.0627 15.4081 43.2695 12.6127 43.2695 9.16431C43.2695 5.71594 46.0627 2.92049 49.5083 2.92049C52.9539 2.92049 55.7472 5.71594 55.7472 9.16431"/>
	<path fill="#2C180C" d="M49.5083 16.4152C45.4832 16.4152 42.2632 13.1926 42.2632 9.16431C42.2632 5.13604 45.4832 1.91343 49.5083 1.91343C53.5334 1.91343 56.7534 5.13604 56.7534 9.16431C56.7534 13.1926 53.5334 16.4152 49.5083 16.4152M49.5083 3.92756C46.5901 3.92756 44.2757 6.24382 44.2757 9.16431C44.2757 12.0848 46.5901 14.401 49.5083 14.401C52.4265 14.401 54.7409 12.0848 54.7409 9.16431C54.7409 6.24382 52.4265 3.92756 49.5083 3.92756"/>
	<path fill="#D7E9FF" d="M11.9029 62.5389C12.2741 61.3304 13.5823 60.5248 14.8904 60.9276L29.6825 64.9559C30.8901 65.258 31.6951 66.5672 31.3932 67.8764C31.0913 69.0848 29.7832 69.8905 28.475 69.4877L13.6829 65.4594C12.3748 65.0566 11.6704 63.7474 11.9029 62.5389"/>
	<path fill="#2C180C" d="M29.0797 70.4947C28.7775 70.4947 28.4756 70.4947 28.1735 70.3939L13.3743 66.3618C12.4682 66.1602 11.7635 65.5553 11.3608 64.7489C10.9134 63.9425 10.7567 63.0352 11.0588 62.2288C11.3608 61.4224 11.8642 60.6159 12.6696 60.2127C13.475 59.7647 14.3811 59.6079 15.1865 59.9103L29.9856 63.9425C30.8918 64.1441 31.5965 64.7489 31.9991 65.5553C32.4019 66.3618 32.6032 67.269 32.3013 68.0754C31.9991 68.8819 31.4958 69.6883 30.6904 70.0915C30.187 70.2931 29.6837 70.4947 29.0797 70.4947M14.2804 61.8256C14.079 61.8256 13.777 61.9264 13.5757 62.0272C13.2736 62.2288 13.0723 62.5312 12.9716 62.8336C12.8709 63.136 12.9716 63.5392 13.0723 63.8417C13.1729 64.1441 13.5757 64.3457 13.8777 64.4465L28.6769 68.4786C28.979 68.5794 29.3816 68.4786 29.6837 68.3778C29.9856 68.1762 30.187 67.8738 30.2878 67.5714C30.3884 67.269 30.2878 66.8658 30.187 66.5634C30.0863 66.261 29.6837 66.0593 29.3816 65.9585L14.5824 61.9264C14.4817 61.8256 14.3811 61.8256 14.2804 61.8256"/>
	<path fill="#D7E9FF" d="M26.4649 88.4207C27.6724 88.7227 28.9805 88.0178 29.383 86.8094L33.4081 72.0054C33.71 70.7969 33.0056 69.4878 31.6974 69.0152C30.4899 68.7828 29.1818 69.4878 28.7793 70.6962L24.6849 85.5002C24.4523 86.8094 25.1567 88.1185 26.4649 88.4207"/>
	<path fill="#2C180C" d="M27.0686 89.5285C26.7667 89.5285 26.4649 89.5285 26.163 89.4277C24.3517 88.9239 23.3454 87.1103 23.6598 85.2967L27.773 70.4857C27.9743 69.5789 28.578 68.8736 29.383 68.4706C30.188 68.0228 31.0937 67.8661 31.8987 68.1683C32.8043 68.3698 33.5087 68.9744 33.9112 69.7804C34.3137 70.5865 34.515 71.4933 34.2131 72.2993L30.188 87.1103C29.9868 88.0171 29.383 88.7224 28.578 89.1254C28.2761 89.4277 27.6724 89.5285 27.0686 89.5285M31.0937 70.0827C30.8924 70.0827 30.5905 70.1834 30.3893 70.2842C30.0874 70.4857 29.8862 70.788 29.7855 71.0902L25.7605 85.9013C25.5592 86.6065 25.9617 87.3118 26.6661 87.5133C26.968 87.6141 27.3705 87.5133 27.6724 87.4126C27.9743 87.3118 28.1755 86.9088 28.2761 86.6065L32.3012 71.7955C32.4018 71.4933 32.3012 71.0902 32.2006 70.788C32.1 70.4857 31.6974 70.2842 31.3956 70.1834C31.2949 70.0827 31.1943 70.0827 31.0937 70.0827"/>
	<path fill="#D7E9FF" d="M73.0551 26.5172C71.8476 26.2845 70.5394 26.9894 70.1369 28.2986L66.0425 43.1025C65.81 44.311 66.5144 45.6202 67.8225 46.023C69.03 46.3251 70.3382 45.6202 70.7407 44.4117L74.7658 29.6078C75.0676 28.1979 74.3633 26.8887 73.0551 26.5172"/>
	<path fill="#2C180C" d="M68.5198 47.0301C68.2176 47.0301 67.9155 47.0301 67.6133 46.9294C66.7068 46.728 66.0017 46.1236 65.5988 45.3181C65.1512 44.5124 64.9945 43.606 65.2966 42.8004L69.3256 27.9965C69.8292 26.1838 71.6422 25.1767 73.4553 25.4914C74.3618 25.7809 75.0668 26.3852 75.4698 27.1908C75.8727 27.9965 76.0741 28.9028 75.7719 29.7085L71.743 44.5124C71.5415 45.4188 70.9372 46.1236 70.1314 46.5266C69.6278 46.8287 69.0234 47.0301 68.5198 47.0301M72.448 27.493C71.8437 27.493 71.3401 27.8958 71.1386 28.5L67.1097 43.3038C67.0089 43.606 67.1097 44.0089 67.2104 44.311C67.4118 44.6131 67.714 44.8146 68.0162 44.9153C68.3184 45.0159 68.7212 44.9153 69.0234 44.8146C69.3256 44.6131 69.527 44.311 69.6278 44.0089L73.6567 29.205C73.7574 28.9028 73.6567 28.5 73.556 28.1979C73.4553 27.8958 73.0524 27.6944 72.7502 27.5937C72.6495 27.493 72.5487 27.493 72.448 27.493"/>
	<path fill="#D7E9FF" d="M88.2633 52.0654C87.9614 53.2739 86.6533 54.0795 85.3451 53.7774L70.553 49.7491C69.3455 49.447 68.5405 48.1378 68.7787 46.8286C69.1442 45.6201 70.4524 44.8145 71.7605 45.0529L86.5527 49.1449C87.8608 49.5477 88.5652 50.8569 88.2633 52.0654"/>
	<path fill="#2C180C" d="M85.9335 54.8852C85.6315 54.8852 85.3296 54.8852 85.0275 54.7845L70.2283 50.7562C69.3222 50.5548 68.6175 49.9505 68.2148 49.1449C67.7673 48.3392 67.6107 47.4329 67.9128 46.6272C68.4161 44.8145 70.2283 43.8074 72.0405 44.1221L86.8396 48.2385C88.6518 48.742 89.6585 50.5548 89.2559 52.3675C88.8531 53.8781 87.4437 54.8852 85.9335 54.8852M71.1344 46.1237C70.5303 46.1237 70.0269 46.5265 69.8256 47.1307C69.7249 47.4329 69.8256 47.8357 69.9263 48.1378C70.1276 48.4399 70.4296 48.6413 70.7317 48.742L85.5309 52.7703C86.2356 52.9717 86.9404 52.5689 87.1416 51.864C87.343 51.159 86.9404 50.4541 86.2356 50.2526L71.4364 46.2244C71.4364 46.2244 71.3357 46.1237 71.1344 46.1237"/>
	<path fill="#D7E9FF" d="M85.3266 34.2719L87.6875 38.3732L13.2246 81.3062L10.8637 77.2049L85.3266 34.2719"/>
	<path fill="#2C180C" d="M12.6789 82.4788L9.35825 76.6378L85.6333 32.7297L88.9539 38.5707L12.6789 82.4788M12.0752 77.3428L13.3833 79.659L86.1364 37.765L84.8282 35.4488L12.0752 77.3428"/>
	<path fill="#D7E9FF" d="M97.5617 30.2932C99.2818 33.2812 98.2558 37.0989 95.2702 38.8204C92.2846 40.5418 88.4699 39.5151 86.7498 36.527C85.0298 33.539 86.0557 29.7212 89.0414 27.9998C92.027 26.2784 95.8417 27.3052 97.5617 30.2932"/>
	<path fill="#2C180C" d="M91.9729 40.7863C89.4573 40.7863 87.0422 39.4771 85.7341 37.1608C83.7215 33.7368 84.9291 29.3057 88.3504 27.2916C91.7717 25.2774 96.1993 26.4859 98.2118 29.9099C100.224 33.334 99.0168 37.7651 95.5955 39.7792C94.388 40.4841 93.1805 40.7863 91.9729 40.7863M91.9729 28.3993C91.0673 28.3993 90.1617 28.6008 89.3566 29.1043C86.841 30.5142 86.036 33.7368 87.4447 36.2545C88.8535 38.7721 92.0736 39.5778 94.5892 38.1679C97.1049 36.758 97.9099 33.5354 96.5011 31.0177C95.4949 29.3057 93.7842 28.3993 91.9729 28.3993"/>
	<path fill="#D7E9FF" d="M14.7694 77.3362C16.4895 80.3242 15.4635 84.1419 12.4779 85.8633C9.49223 87.5847 5.67751 86.558 3.95746 83.57C2.2374 80.582 3.26335 76.7642 6.24899 75.0428C9.23462 73.3214 13.0493 74.3482 14.7694 77.3362"/>
	<path fill="#2C180C" d="M9.15712 87.8163C8.55335 87.8163 7.84897 87.7157 7.24521 87.5145C5.3333 87.0111 3.8239 85.8034 2.81763 84.0923C0.8051 80.6704 2.01262 76.2419 5.43393 74.229C7.14458 73.2592 9.05649 73.0212 10.9684 73.5244C12.8804 74.0277 14.3898 75.2354 15.396 76.9464C16.4023 78.6574 16.6034 80.5697 16.1003 82.482C15.5972 84.3943 14.3898 85.904 12.6791 86.9105C11.6728 87.5145 10.3646 87.8163 9.15712 87.8163M9.15712 75.3361C8.25147 75.3361 7.34583 75.5374 6.54082 76.0406C4.02515 77.4497 3.22014 80.6704 4.62891 83.1866C5.3333 84.3943 6.44019 85.3001 7.84897 85.6021C9.15712 86.0046 10.5659 85.8034 11.7734 85.0988C12.981 84.3943 13.8865 83.2872 14.1884 81.8782C14.591 80.5697 14.3898 79.1607 13.6854 77.9529C12.981 76.7451 11.8741 75.8393 10.4653 75.5374C10.0628 75.4367 9.55962 75.3361 9.15712 75.3361"/>
	<path fill="#D7E9FF" d="M27.3704 27.1209C28.5779 26.8886 29.886 27.5936 30.2885 28.802L34.3136 43.6059C34.6155 44.8144 33.9111 46.1236 32.7036 46.5265C31.4961 46.8285 30.1879 46.1236 29.7854 44.9151L25.7603 30.1112C25.3578 28.802 26.1629 27.4928 27.3704 27.1209"/>
	<path fill="#2C180C" d="M31.9992 47.5152C31.3954 47.5152 30.8923 47.3138 30.2885 47.1124C29.4835 46.7096 28.9804 45.9039 28.6785 45.0983L24.6534 30.2944C24.5528 29.388 24.5528 28.4817 24.9553 27.7767C25.3578 26.9711 26.1628 26.4675 26.9679 26.0647C27.8735 25.964 28.7791 26.0647 29.4835 26.4675C30.2885 26.8704 30.7917 27.676 31.0936 28.4817L35.1186 43.2855C35.6217 45.0983 34.5149 46.911 32.7036 47.4145C32.603 47.5152 32.3011 47.5152 31.9992 47.5152M27.9741 28.0788C27.8735 28.0788 27.7729 28.0788 27.5716 28.0788C27.2697 28.1795 26.9679 28.3809 26.7666 28.6831C26.5653 28.9852 26.5653 29.388 26.666 29.6901L30.691 44.494C30.7917 44.7961 30.9929 45.0983 31.2948 45.2997C31.5967 45.5011 31.9992 45.5011 32.3011 45.4004C33.0055 45.199 33.408 44.494 33.2067 43.7891L29.1817 28.9852C29.081 28.6831 28.8798 28.3809 28.5779 28.1795C28.4773 28.0788 28.276 28.0788 27.9741 28.0788"/>
	<path fill="#D7E9FF" d="M12.2765 52.659C12.5784 53.8675 13.8865 54.6732 15.1947 54.2704L29.9868 50.2421C31.1943 49.94 31.9993 48.6308 31.5968 47.3216C31.295 46.1131 29.9868 45.3075 28.6787 45.7103L13.8865 49.7386C12.679 50.1414 11.874 51.4506 12.2765 52.659"/>
	<path fill="#2C180C" d="M14.4903 55.3886C12.9809 55.3886 11.6727 54.3816 11.2702 52.871C10.7671 51.0583 11.874 49.2455 13.6853 48.742L28.4774 44.7137C30.2887 44.2102 32.1 45.318 32.6031 47.1307C33.1062 48.9434 31.9993 50.7561 30.188 51.2597L15.3959 55.2879C15.094 55.3886 14.7922 55.3886 14.4903 55.3886M13.1821 52.4681C13.3834 53.1731 14.0878 53.5759 14.7922 53.3745L29.5843 49.3462C30.2887 49.1448 30.6912 48.4399 30.4899 47.7349C30.2887 47.03 29.5843 46.6271 28.8799 46.8286L14.0878 50.8568C13.484 50.9575 12.9809 51.6625 13.1821 52.4681"/>
	<path fill="#D7E9FF" d="M89.1552 61.9345C88.8534 60.726 87.5452 59.9204 86.2371 60.3232L71.4449 64.3515C70.2374 64.6536 69.4324 65.9628 69.8349 67.272C70.1368 68.4805 71.4449 69.2861 72.7531 68.8833L87.5452 64.855C88.7527 64.4522 89.4571 63.2437 89.1552 61.9345"/>
	<path fill="#2C180C" d="M72.0306 69.8903C71.4268 69.8903 70.9237 69.6889 70.3199 69.4875C69.5149 69.0847 69.0118 68.279 68.6093 67.4734C68.5086 66.567 68.6093 65.6607 69.0118 64.9557C69.4143 64.2508 70.2193 63.6465 71.0243 63.3444L85.8165 59.3161C86.7221 59.2154 87.6277 59.2154 88.3321 59.6183C89.0365 60.0211 89.6403 60.8267 89.9422 61.6324C90.4453 63.4451 89.3383 65.2578 87.5271 65.7614L72.735 69.7896C72.6343 69.8903 72.3324 69.8903 72.0306 69.8903M86.8227 61.2296C86.7221 61.2296 86.6215 61.2296 86.4202 61.2296L71.6281 65.2578C71.3262 65.3586 71.0243 65.56 70.823 65.8621C70.6218 66.1642 70.6218 66.567 70.7224 66.8691C70.823 67.1713 71.0243 67.4734 71.3262 67.6748C71.6281 67.8762 72.0306 67.8762 72.3324 67.7755L87.1246 63.7472C87.8289 63.5458 88.2315 62.8409 88.0303 62.1359C87.9296 61.8338 87.7284 61.5317 87.4265 61.3303C87.3259 61.2296 87.024 61.2296 86.8227 61.2296"/>
	<path fill="#D7E9FF" d="M74.665 87.917C73.4575 88.2191 72.1493 87.5141 71.7468 86.3056L67.652 71.5017C67.4199 70.2932 68.1243 68.9841 69.3318 68.5115C70.5393 68.2791 71.8474 68.9841 72.25 70.1925L76.275 84.9965C76.6775 86.3056 75.9731 87.5141 74.665 87.917"/>
	<path fill="#2C180C" d="M74.0612 89.0246C73.4575 89.0246 72.9543 88.8232 72.3506 88.6218C71.5456 88.219 71.0424 87.4133 70.7405 86.6077L66.7155 71.8038C66.2123 69.9911 67.3192 68.1784 69.1305 67.6748C70.9418 67.1713 72.7531 68.2791 73.2562 70.0918L77.2813 84.8957C77.4826 85.802 77.382 86.7084 76.9794 87.4133C76.5769 88.219 75.7719 88.7225 74.9669 89.0246C74.665 88.9239 74.3631 89.0246 74.0612 89.0246M70.0362 69.4875C69.9355 69.4875 69.8349 69.4875 69.7343 69.4875C69.0299 69.689 68.6274 70.3939 68.8286 71.0989L72.8537 85.9027C72.9543 86.2049 73.1556 86.507 73.4575 86.7084C73.7593 86.9098 74.1618 86.9098 74.4637 86.8091C74.7656 86.7084 75.0675 86.507 75.2688 86.2049C75.47 85.9027 75.47 85.4999 75.3694 85.1978L71.3443 70.3939C71.2437 69.8904 70.6399 69.4875 70.0362 69.4875"/>
	<path fill="#D7E9FF" d="M88.6906 76.0826L86.3329 80.1858L11.8357 37.313L14.1933 33.2098L88.6906 76.0826"/>
	<path fill="#2C180C" d="M86.7402 81.5722L10.4651 37.6641L13.7858 31.8231L90.0608 75.7312L86.7402 81.5722M13.2826 36.9591L86.0358 78.8531L87.3439 76.5369L14.5908 34.6429L13.2826 36.9591"/>
	<path fill="#D7E9FF" d="M95.6866 76.4958C98.6735 78.2149 99.7026 82.0318 97.9849 85.0212C96.2673 88.0106 92.4534 89.0404 89.4664 87.3214C86.4794 85.6024 85.4504 81.7855 87.168 78.7961C88.8857 75.8067 92.6996 74.7768 95.6866 76.4958"/>
	<path fill="#2C180C" d="M92.5765 89.0247C91.369 89.0247 90.0608 88.7225 88.9539 88.0177C85.5326 86.0035 84.3251 81.5724 86.3376 78.1484C88.3502 74.7244 92.7777 73.5159 96.1991 75.53C99.6204 77.5441 100.828 81.9752 98.8154 85.3992C97.8091 87.1113 96.2997 88.3197 94.3878 88.8232C93.784 88.924 93.1803 89.0247 92.5765 89.0247M92.5765 76.5371C90.7652 76.5371 88.9539 77.4434 88.0483 79.1554C87.3439 80.3639 87.1427 81.7738 87.5452 83.083C87.9477 84.3922 88.7527 85.6006 89.9602 86.2049C91.1677 86.9099 92.5765 87.1113 93.8846 86.7085C95.1928 86.3056 96.4004 85.5 97.0041 84.2915C98.4129 81.7738 97.6079 78.5512 95.0922 77.1413C94.2871 76.7385 93.4821 76.5371 92.5765 76.5371"/>
	<path fill="#D7E9FF" d="M13.4633 28.4773C16.4502 30.1964 17.4793 34.0133 15.7616 37.0026C14.044 39.9921 10.2301 41.0219 7.24311 39.3029C4.2561 37.5839 3.22708 33.7669 4.94472 30.7776C6.66236 27.7882 10.4762 26.7583 13.4633 28.4773"/>
	<path fill="#2C180C" d="M10.36 40.9876C9.15174 40.9876 7.84278 40.6854 6.7352 39.9805C5.02348 38.9734 3.81521 37.4628 3.31176 35.5494C2.80831 33.636 3.06923 31.7226 4.01658 30.0105C6.03037 26.5865 10.4607 25.378 13.8841 27.3922C15.5958 28.3993 16.8041 29.9098 17.3076 31.8233C17.811 33.7367 17.5089 35.6501 16.6027 37.3621C15.5958 39.0741 14.0855 40.2826 12.1724 40.7862C11.5683 40.8869 10.9641 40.9876 10.36 40.9876M10.36 28.5C8.54761 28.5 6.7352 29.4063 5.82899 31.1183C4.41934 33.636 5.22486 36.8586 7.74209 38.2685C8.95037 38.9734 10.36 39.1748 11.669 38.772C12.9779 38.3692 14.1862 37.5635 14.7903 36.3551C15.4951 35.1466 15.6965 33.7367 15.2938 32.4275C14.891 31.1183 14.0855 29.9098 12.8772 29.3056C12.1724 28.7014 11.2662 28.5 10.36 28.5"/>
	<path fill="#D7E9FF" d="M55.7472 104.332C55.7472 107.78 52.9539 110.576 49.5083 110.576C46.0627 110.576 43.2695 107.78 43.2695 104.332C43.2695 100.884 46.0627 98.0882 49.5083 98.0882C52.9539 98.0882 55.7472 100.884 55.7472 104.332"/>
	<path fill="#2C180C" d="M49.5083 111.583C45.4832 111.583 42.2632 108.36 42.2632 104.332C42.2632 100.304 45.4832 97.0811 49.5083 97.0811C53.5334 97.0811 56.7534 100.304 56.7534 104.332C56.7534 108.36 53.5334 111.583 49.5083 111.583M49.5083 99.0952C46.5901 99.0952 44.2757 101.411 44.2757 104.332C44.2757 107.253 46.5901 109.569 49.5083 109.569C52.4265 109.569 54.7409 107.253 54.7409 104.332C54.7409 101.411 52.4265 99.0952 49.5083 99.0952"/>
	<path fill="#D7E9FF" d="M65.0048 57.4028C65.0048 65.3562 58.5624 71.8038 50.6152 71.8038C42.6681 71.8038 36.2256 65.3562 36.2256 57.4028C36.2256 49.4493 42.6681 43.0017 50.6152 43.0017C58.5624 43.0017 65.0048 49.4493 65.0048 57.4028"/>
	<path fill="#2C180C" d="M50.6152 72.811C42.1625 72.811 35.2193 65.8622 35.2193 57.4028C35.2193 48.9435 42.1625 41.9947 50.6152 41.9947C59.0678 41.9947 66.0111 48.9435 66.0111 57.4028C66.0111 65.8622 59.0678 72.811 50.6152 72.811M50.6152 44.0088C43.2694 44.0088 37.2318 50.0512 37.2318 57.4028C37.2318 64.7544 43.2694 70.7968 50.6152 70.7968C57.9609 70.7968 63.9985 64.7544 63.9985 57.4028C63.9985 50.0512 57.9609 44.0088 50.6152 44.0088"/>
</svg>
