<?xml version="1.0" encoding="utf-8" ?>
<svg xmlns="http://www.w3.org/2000/svg" xmlns:xlink="http://www.w3.org/1999/xlink" width="110" height="88">
	<path fill="white" d="M108.474 5.77215C106.865 3.94937 104.954 2.93671 102.842 2.93671C99.7237 2.93671 96.9076 4.65823 94.9966 7.6962C94.5943 8.10127 94.5943 8.10127 94.5943 8.3038C93.6891 7.59494 92.4822 7.39241 90.9736 7.39241C88.1575 7.39241 85.4419 9.31646 84.3356 12.4557C84.3356 12.6582 84.1345 12.962 84.1345 13.1646C83.4304 13.1646 82.4247 13.3671 81.7206 13.6709C78.9045 14.5823 77.3959 17.519 76.9936 20.1519C76.2896 20.1519 75.7867 20.3544 75.0826 20.6582C72.2665 22.0759 71.2608 24.7089 70.7579 27.1392C66.936 25.2152 62.209 23.7975 56.4761 23.7975C49.8381 23.7975 44.1053 25.9241 41.1886 27.443C40.6858 24.6076 39.9817 21.4684 36.8639 19.5443C36.1599 19.038 35.1541 18.8354 34.4501 18.6329C33.9472 16 32.7403 13.0633 29.9242 11.9494C29.019 11.443 28.0132 11.2405 26.8063 11.2405C26.8063 10.7342 26.6052 10.5316 26.6052 10.0253C25.7 6.88608 22.9844 4.96203 19.9672 4.96203C18.7603 4.96203 17.3522 5.46835 16.1453 5.87342C16.1453 5.67089 15.9441 5.36709 15.9441 5.16456C13.7315 1.92405 10.6136 0 7.49579 0C5.58485 0 3.87506 0.708861 2.467 1.92405C-0.550268 6.17722 -0.751419 11.443 1.86355 19.1392C4.67967 27.7468 14.7372 37.1646 27.6109 43.6456C26.404 47.4937 25.7 51.5443 25.7 56.1013C26.404 74.1266 41.8927 85.8734 42.6973 86.3797L44.3065 87.0886C44.5076 87.0886 45.7145 87.5949 46.9215 87.5949C48.3295 87.5949 49.7376 87.0886 50.7433 86.6835C52.6543 85.4684 53.5594 83.5443 53.5594 81.4177C53.5594 77.0633 50.2404 74.2278 49.2347 73.519C41.7921 67.5443 40.1829 57.2152 39.8812 55.6962C39.68 49.9241 41.0881 45.3671 43.9042 42.2278C48.4301 37.4684 55.571 37.1646 56.275 37.1646C61.8067 37.1646 66.3326 40.8101 67.5395 41.7215C69.4504 43.443 72.5683 48.7089 71.1602 57.6203C70.255 65.519 64.2205 71.0886 61.6055 73.9241C61.1026 74.4304 60.7003 74.8354 60.1974 75.3418C58.7894 76.7595 56.1744 79.6962 57.7836 83.9494C58.2865 85.1646 59.8957 88 64.7233 88C65.2262 88 65.6285 88 65.6285 88L66.6343 87.7975C70.959 86.3797 82.827 74.8354 85.0396 59.443C85.7437 53.8734 85.5425 48.9114 84.1345 44C95.8012 38.0759 105.155 29.6709 107.971 21.6709C110.586 14.6835 110.586 9.82278 108.474 5.77215"/>
	<path fill="#0CA656" d="M40.4847 37.8734C40.4847 37.8734 37.7691 35.6456 37.2663 32.5065C36.7634 29.5696 37.0651 25.3165 34.7519 24.1013C32.5392 22.8861 31.8353 25.8228 31.8353 26.3291C31.6341 26.5317 31.1312 29.2659 29.8238 28.557C28.6168 27.8481 29.6226 25.1139 29.8238 23.3924C30.0249 21.6709 29.8238 17.2153 27.8122 16.5064C25.8006 15.595 24.5938 17.2153 24.3927 19.2405C23.8898 21.4684 23.8898 22.9874 22.9846 22.6836C22.0794 22.481 21.5765 22.1772 21.7777 19.747C21.9789 17.2153 22.4817 13.7722 21.7777 11.6456C21.0737 9.51906 19.0622 9.41779 17.8552 10.4304C16.6483 11.3418 15.6425 14.5823 15.3409 15.7976C14.8379 17.0128 13.9328 18.5317 13.1281 16.3039C12.223 14.076 12.4241 10.3292 10.9155 7.49374C9.20569 4.65075 6.49015 4.0507 5.18266 5.26589C3.95725 6.98741 2.97 10.1266 5.68554 18.0254C8.40108 25.9241 19.4645 36.557 35.3554 43.0546C35.6571 43.3419 37.5681 39.3924 40.4847 37.8734"/>
	<path fill="#2B170C" d="M35.0536 44.1518C17.8551 36.956 7.29466 25.8075 4.78027 18.409C1.86358 9.89559 3.17106 6.55104 4.37797 4.72674C5.28315 3.8146 6.28891 3.51055 7.49581 3.6516C9.2056 3.91595 10.7142 5.13214 11.8206 7.05779C12.8263 8.88209 13.1281 11.0104 13.4298 12.8347C13.6309 14.0509 13.8321 15.1658 14.1338 16.0779C14.1338 16.0779 14.1338 16.1793 14.1338 16.1793C14.2344 16.0779 14.335 15.8752 14.4355 15.5712C14.6367 14.8617 15.6424 10.9091 17.3522 9.69289C18.2574 8.98344 19.4643 8.67939 20.4701 8.98344C21.5764 9.28749 22.381 10.1996 22.7833 11.4158C23.4873 13.4428 23.1856 16.1793 22.9845 18.6117C22.9845 19.1184 22.8839 19.5238 22.8839 19.9292C22.7833 21.4495 22.9845 21.6522 22.9845 21.6522C23.085 21.3481 23.1856 20.9427 23.1856 20.5373C23.2862 20.1319 23.3868 19.6252 23.4873 19.1184C23.6885 17.4968 24.3925 16.2806 25.3983 15.6725C26.0017 15.3685 27.0075 15.0644 28.315 15.6725C31.0305 16.686 31.1311 21.8549 30.9299 23.5778C30.8294 23.9524 30.7288 24.5913 30.6282 25.0981C30.5276 25.7062 30.2259 27.0237 30.3265 27.5305C30.5276 27.2264 30.7288 26.7197 30.7288 26.517C30.8294 26.3143 30.8294 26.2129 30.9299 26.1116C31.0305 25.4021 31.5334 23.8819 32.6397 23.1724C33.2432 22.8684 34.1484 22.5643 35.3553 23.2738C37.5679 24.49 37.8697 27.5305 38.0708 30.1656C38.1714 30.9764 38.1714 31.6858 38.3725 32.3952C38.7749 35.1317 41.1887 37.1587 41.1887 37.1587L42.3956 38.1722L41.0881 38.8816C39.3783 39.7938 37.9702 41.6181 37.1656 42.8343C36.4616 43.7464 36.1599 44.1518 35.5564 44.2532M5.98718 5.94294C4.98142 7.36184 4.07624 10.1996 6.69121 17.6995C9.10503 24.6927 18.9614 35.1317 35.2547 41.9221C35.3553 41.8208 35.4559 41.6181 35.5564 41.5167C36.2605 40.5032 37.4674 38.8816 38.976 37.7668C38.0708 36.7533 36.7633 34.929 36.361 32.6993C36.2605 31.9899 36.1599 31.1791 36.0593 30.3683C35.8582 28.2399 35.657 25.7062 34.3495 25.0981C33.8466 24.794 33.6455 24.8954 33.6455 24.9967C33.2432 25.1994 32.9415 26.1116 32.9415 26.517C32.8409 27.2264 32.8409 27.2264 32.7403 27.3278C32.4386 28.1386 32.0363 29.3548 31.0305 29.7602C30.7288 29.8615 30.1253 29.9629 29.5219 29.6588C27.9127 28.7467 28.4156 26.6183 28.7173 24.794C28.8179 24.2873 28.9184 23.8819 28.9184 23.4765C29.1196 21.4495 28.7173 18.0036 27.611 17.6995C26.8063 17.3955 26.5046 17.4968 26.404 17.5982C25.9012 17.9022 25.5994 18.6117 25.4989 19.5238C25.3983 20.1319 25.2977 20.5373 25.1971 21.0441C24.8954 22.3616 24.7948 23.2738 23.9902 23.7805C23.6885 23.8819 23.2862 24.0846 22.7833 23.8819C20.8724 23.4765 20.6712 22.0576 20.8724 19.9292C20.8724 19.5238 20.973 19.0171 20.973 18.6117C21.1741 16.4833 21.3753 13.8482 20.8724 12.2266C20.7718 11.8212 20.4701 11.3145 19.8666 11.1118C19.4643 11.0104 18.8609 11.1118 18.4586 11.4158C17.654 12.0239 16.7488 14.355 16.2459 16.2806C15.8436 17.3955 15.1396 18.713 14.0332 18.6117C12.8263 18.6117 12.3235 17.2941 12.2229 16.7874C11.8206 15.7739 11.6194 14.4563 11.4183 13.1388C11.1165 11.4158 10.9154 9.59154 10.1108 8.07129C9.40675 6.75374 8.30042 5.94294 7.29466 5.74024C6.69121 5.63889 6.28891 5.74024 5.98718 5.94294M32.6397 26.9224C32.6397 27.0237 32.6397 27.0237 32.6397 26.9224"/>
	<path fill="#0CA656" d="M70.6572 37.1646C70.6572 37.1646 73.4733 35.0381 73.9762 32.4051C74.6802 29.7722 74.4791 25.7216 76.39 24.7089C78.5021 23.7976 79.005 26.4305 79.2061 26.633C79.4073 26.8355 79.9102 29.2659 80.9159 28.7596C82.1228 28.2532 81.1171 25.6203 80.9159 24.0001C80.7148 22.2786 81.1171 18.2279 82.8269 17.7216C84.5366 17.0127 85.643 18.4305 85.9447 20.3545C86.1459 22.4811 86.4476 23.6963 87.1516 23.6963C87.8556 23.6963 88.5597 23.19 88.3585 21.0634C88.1574 18.9368 87.6545 15.4937 88.3585 13.5697C89.0625 11.4431 90.9735 11.4431 91.9792 12.3545C93.1862 13.2659 93.8902 16.2026 94.0913 17.4178C94.2925 18.633 95.2982 19.8482 96.2034 17.9241C97.1086 15.7976 97.1086 12.3545 98.3155 9.7216C100.025 7.171 102.64 6.58236 103.545 7.79755C104.451 9.51907 105.456 12.3545 102.841 19.5444C100.226 26.7343 89.666 36.3545 74.8814 42.1267C74.0768 41.114 73.2722 38.5824 70.6572 37.1646"/>
	<path fill="#2B170C" d="M74.5791 43.3417C73.7746 42.4303 73.5734 42.0252 73.2718 41.5189C72.5678 40.405 71.7633 38.9873 70.1542 38.0759L68.7463 37.367L69.9531 36.4556C69.9531 36.4556 72.4672 34.5316 72.8695 32.3037C73.0706 31.4936 73.1712 30.5822 73.3723 29.6708C73.674 27.2404 74.0763 24.81 75.8865 23.8987C76.691 23.4936 77.4955 23.4936 78.0989 23.7974C79.2051 24.3037 79.7079 25.5189 79.9091 26.0252C79.9091 26.0252 79.9091 26.1265 79.9091 26.1265C80.0096 26.329 80.1102 26.5316 80.2108 26.8354C80.2108 26.9366 80.3113 27.0379 80.3113 27.1392C80.2108 26.6328 80.1102 26.0252 80.0096 25.7214C79.9091 25.2151 79.8085 24.7088 79.7079 24.3037C79.5068 22.5822 79.7079 17.7214 82.3226 16.9113C83.4289 16.5062 84.334 16.7088 84.8368 17.0126C85.8424 17.6202 86.5464 18.7341 86.7475 20.3543C86.8481 21.6708 87.0441 22.2784 87.1498 22.5822C87.2504 22.3797 87.2504 21.9746 87.2504 21.2657C86.9487 18.0252 86.647 15.1898 87.2504 13.367C87.6526 12.1518 88.4571 11.3417 89.5634 11.0379C90.569 10.7341 91.6752 11.0379 92.4798 11.7467C94.0888 12.9619 94.7928 16.7088 94.8933 17.4176C94.8933 17.6202 94.9939 17.7214 94.9939 17.8227C94.9939 17.7214 95.0945 17.7214 95.0945 17.6202C95.4967 16.81 95.6979 15.5949 95.899 14.2784C96.2007 12.6581 96.5024 10.9366 97.2063 9.41764C98.5137 7.49359 100.223 6.37967 101.832 6.2784C102.838 6.2784 103.643 6.5822 104.145 7.29106C105.342 9.62017 106.257 12.7594 103.643 19.9493C100.626 28.2531 88.8594 37.7721 75.0819 43.1392M72.3667 37.0632C73.7746 38.1771 74.5791 39.5949 75.1825 40.5062C75.2831 40.6075 75.2831 40.7088 75.3836 40.81C90.4684 34.7341 99.7205 25.3164 102.034 19.1392C104.648 12.0506 103.441 9.51891 102.838 8.30372C102.637 8.10118 102.335 8.10118 102.235 8.10118C101.531 8.10118 100.324 8.70878 99.3182 10.1265C98.7148 11.443 98.4131 12.9619 98.212 14.4809C98.0109 15.8986 97.7092 17.2151 97.3069 18.2278C96.6029 19.7468 95.5973 19.9493 95.195 19.848C94.1894 19.7468 93.4854 18.5316 93.2843 17.5189C92.9826 15.7974 92.2786 13.6708 91.5747 13.0632C91.1724 12.7594 90.7701 12.6581 90.4684 12.7594C89.9656 12.8607 89.6639 13.367 89.5634 13.8733C89.0605 15.3923 89.2617 18.0252 89.5634 20.0506C89.7645 22.3797 89.5634 23.3923 88.96 23.9999C88.5577 24.405 88.0549 24.7088 87.4515 24.7088C85.6413 24.7088 85.4402 22.1771 85.239 20.4556C85.1385 19.6455 84.7362 18.8354 84.334 18.6328C84.2334 18.5316 83.9317 18.4303 83.5294 18.6328C82.6243 18.8354 82.0209 21.9746 82.2221 23.7974C82.2221 24.2025 82.3226 24.6075 82.4232 25.0126C82.8255 26.7341 83.2277 28.8607 81.6187 29.5695C81.317 29.7721 80.8142 29.7721 80.4119 29.5695C79.5068 29.1645 79.1045 28.0506 78.8029 27.3417C78.8029 27.2404 78.7023 27.1392 78.7023 27.0379C78.6017 26.9366 78.5012 26.7341 78.5012 26.5316C78.4006 26.2278 78.0989 25.5189 77.7972 25.4176C77.6966 25.3164 77.4955 25.4176 77.1938 25.5189C76.3893 25.924 76.0876 27.9493 75.8865 29.7721C75.7859 30.6835 75.5847 31.6961 75.3836 32.5062C74.6797 34.5316 73.2718 36.1518 72.3667 37.0632"/>
	<path fill="#FD003A" d="M44.9114 82.5316C44.9114 82.5316 30.6296 71.6962 29.8217 55.8988C29.6238 40.3037 38.6757 34.2278 40.7877 32.3038C40.7877 32.3038 47.4257 28.2532 55.8741 28.2532C64.3225 28.2532 69.9547 32.1012 72.8714 34.5316C75.6875 36.962 81.7221 44.6582 79.8111 58.329C77.9002 72.3037 67.1386 82.1266 64.7248 82.8499C64.7248 82.8499 62.3109 83.0379 61.9086 81.924C61.5063 80.8102 61.7075 80 63.3167 78.2785C65.0265 76.3544 74.0783 69.1646 75.4864 58.1265C77.1961 47.2912 73.3743 40.6076 70.2564 37.9747C67.1386 35.3418 61.9086 32.2025 55.9747 32.2025C50.0407 32.2025 33.7474 35.5443 34.7532 56C34.7532 56 36.463 69.4684 46.0177 77.1646C46.0177 77.1646 48.4315 78.886 48.4315 81.2151C48.2303 83.5443 44.9114 82.5316 44.9114 82.5316"/>
	<path fill="#2D190C" d="M64.3279 83.9494C63.3221 83.9494 61.5116 83.7469 61.0087 82.3291C60.4052 80.5064 61.1092 79.2912 62.618 77.6709C62.8192 77.3671 63.2215 76.9621 63.825 76.4557C66.7419 73.7215 73.3803 67.1393 74.5873 58.0253C76.0961 48.2026 72.978 41.519 69.6588 38.7848C67.6471 37.1646 62.4168 33.2152 55.9795 33.2152C51.7551 33.2152 45.2172 34.8355 40.8921 39.3924C37.1706 43.3418 35.4607 48.9114 35.7624 55.8988C35.7624 56 37.5729 68.9621 46.6253 76.3545C46.7259 76.3545 49.4417 78.3798 49.4417 81.2152C49.3411 82.3291 48.8382 82.9367 48.3352 83.2405C46.9271 84.1519 44.8148 83.5443 44.6137 83.5443C43.7084 82.9367 29.6269 72 28.8184 56C28.621 41.2152 36.4665 34.6329 39.3834 32.2026C39.6851 32 39.8863 31.7975 40.0875 31.595C40.5904 31.2912 47.2288 27.3418 55.8789 27.3418C62.4168 27.3418 68.3512 29.5697 73.4809 33.8228C75.0902 35.2405 82.9357 42.9367 80.8235 58.5317C78.8118 73.114 67.5465 83.1393 65.032 83.8481C64.7302 83.8481 64.5291 83.9494 64.3279 83.9494M55.9795 31.1899C63.0203 31.1899 68.7535 35.3418 70.8658 37.1646C74.6879 40.4051 78.1077 47.595 76.3978 58.2279C75.1908 68.0507 68.0495 74.9367 65.032 77.7722C64.5291 78.2785 64.2273 78.5823 63.9256 78.8861C62.4168 80.5064 62.5174 80.9114 62.7186 81.519C62.8192 81.7215 63.7244 81.8228 64.4285 81.8228C66.8425 80.9114 76.9007 71.4937 78.7112 58.2279C80.7229 43.6456 73.5815 36.557 72.0728 35.3418C67.2448 31.2912 61.8133 29.2659 55.7784 29.2659C48.2347 29.2659 41.9985 32.7089 41.2945 33.114C41.0933 33.3165 40.8921 33.4178 40.5904 33.7215C37.8746 36.0507 30.5321 42.2279 30.7333 55.8988C31.4373 70.1772 43.809 80.4051 45.3178 81.6203C45.9213 81.7215 46.8265 81.8228 47.2288 81.6203C47.3294 81.6203 47.43 81.519 47.43 81.2152C47.43 79.4937 45.4183 78.076 45.4183 78.076C35.6618 70.1772 33.8513 56.8102 33.7507 56.2026C33.3484 48.5064 35.2595 42.4304 39.3834 38.076C45.6195 31.595 54.3702 31.1899 55.9795 31.1899"/>
</svg>
