<?xml version="1.0" encoding="utf-8" ?>
<svg xmlns="http://www.w3.org/2000/svg" xmlns:xlink="http://www.w3.org/1999/xlink" width="100" height="96">
	<path fill="white" d="M21.7699 96C14.7796 96 9.18731 90.2461 9.18731 83.2808L9.18731 53.2997L6.49103 53.2997C2.49655 53.2997 0 50.776 0 46.7382L0 26.5489C0 23.3186 1.59779 20.9968 4.29407 20.2902C2.49655 19.6845 1.19834 18.0694 1.09848 16.1514C0.99862 14.2334 2.19696 12.4164 3.99448 11.7098L11.6839 8.68139L15.4786 2.22082C15.6783 1.91798 15.9779 1.5142 16.2775 1.21136C17.0764 0.403785 18.1749 0 19.3732 0C20.5716 0 21.7699 0.504732 22.5688 1.41325C28.8601 8.07571 30.4579 9.08517 30.6576 9.28707C33.6535 11.0032 36.949 12.1136 40.4441 12.6183C42.4414 11.0032 45.0378 10.0946 47.8339 10.0946C50.5302 10.0946 53.0267 10.9022 55.024 12.4164C57.1211 11.9117 61.515 10.7003 70.4027 7.67192C71.4014 7.36909 74.2973 6.05678 82.1864 2.22082C82.6858 1.91798 83.2849 1.81703 83.8841 1.81703C84.4833 1.81703 85.0824 1.91798 85.6816 2.22082C86.7801 2.8265 87.579 3.83596 87.7787 5.04732L88.3779 8.4795L96.5666 9.69085C98.7635 9.99369 100.261 12.0126 100 14.2334C99.7622 15.5457 98.9633 16.7571 97.6651 17.3628C95.3682 18.4732 93.2711 19.3817 91.174 20.2902C93.9702 20.9968 95.568 23.3186 95.568 26.5489L95.568 46.7382C95.568 50.776 93.0714 53.2997 89.0769 53.2997L86.3807 53.2997L86.3807 83.2808C86.3807 90.347 80.6885 96 73.798 96L21.7699 96"/>
	<path fill="#FAE9DC" d="M47.5203 15.6466C41.2309 16.1513 34.9414 14.839 29.3508 11.7097C28.053 11.0031 25.1578 8.27753 20.4657 3.33116C19.8667 2.72548 18.9682 2.72548 18.3692 3.33116C18.2694 3.43211 18.1695 3.53305 18.1695 3.634L13.8767 11.0031L5.19132 14.4353C4.59233 14.6372 4.193 15.2428 4.193 15.9495C4.193 16.5551 4.59233 17.1608 5.29116 17.3627C12.5789 19.6845 18.7685 20.9968 23.7602 21.5015C29.6503 22.1072 37.537 22.1072 47.5203 21.5015L47.6201 19.8864L47.5203 15.6466"/>
	<path fill="#2C180C" d="M33.9431 22.8138C29.9498 22.8138 26.4556 22.7128 23.4607 22.41C18.469 21.9053 12.1796 20.492 4.79198 18.1703C3.79366 17.8674 2.995 16.9589 2.995 15.8485C2.995 14.7381 3.594 13.8296 4.59232 13.4258L12.9782 10.0945L17.1712 3.0283C17.271 2.82641 17.4707 2.62451 17.5705 2.52357C18.5689 1.61505 20.1662 1.61505 21.0647 2.62451C26.7551 8.6813 28.9514 10.3974 29.6503 10.8012C35.0412 13.8296 41.131 15.1419 47.2208 14.6371L48.3189 14.5362L48.3189 19.7854L48.1193 22.41C42.4288 22.7128 37.9364 22.8138 33.9431 22.8138M19.3675 3.83587C19.2677 3.83587 19.1679 3.83587 19.068 3.93682C19.068 3.93682 18.9682 4.03776 18.9682 4.03776L14.4757 11.7097L5.49081 15.2428C5.29115 15.3438 5.19131 15.5457 5.19131 15.7475C5.19131 15.9494 5.29115 16.1513 5.59064 16.2523C12.7786 18.4731 18.9682 19.8863 23.86 20.3911C29.4506 20.9968 37.1377 20.9968 46.522 20.3911L46.6218 16.6561C40.4322 16.9589 34.3424 15.5457 28.9514 12.5173C28.053 12.0125 26.256 10.7002 19.8667 3.93682C19.667 3.93682 19.4674 3.83587 19.3675 3.83587"/>
	<path fill="#FAE9DC" d="M53.1118 15.4448C54.21 15.8486 60.2 14.1325 71.3811 10.3975C72.9785 9.89273 77.0716 7.97475 83.5607 4.7697C83.8602 4.7697 84.1597 4.7697 84.4592 4.7697C84.7587 4.94636 84.9585 5.2492 84.9585 5.55203L85.8569 10.2965C85.9567 10.7003 86.2562 11.0031 86.6555 11.1041L96.2394 12.5173C96.7386 12.6183 97.1379 13.123 97.0535 13.6277C97.0535 13.9306 96.7386 14.2334 96.4391 14.4353C86.955 18.9779 79.0682 21.6025 72.7788 22.4101C66.1899 23.3186 59.601 23.0158 53.1118 21.6025L53.1118 15.4448"/>
	<path fill="#2C180C" d="M65.3926 23.9243C61.1989 23.9243 57.1051 23.4195 52.9114 22.511L52.1126 13.8296L53.4106 14.4353C54.0097 14.5362 56.9054 14.1325 70.8843 9.38798C72.4819 8.88325 76.5757 6.96527 82.9661 3.83593C83.5652 3.6088 84.1643 3.6088 84.7634 3.83593C85.3625 4.13877 85.662 4.6435 85.8617 5.24918L86.7604 10.0946L96.3459 11.5079C97.4443 11.7098 98.1432 12.7192 98.0528 13.8296C97.9435 14.5362 97.5441 15.041 96.945 15.3438C87.4593 19.8864 79.3715 22.612 72.9811 23.3186C70.4849 23.7224 67.9887 23.9243 65.3926 23.9243M54.2094 20.694C60.3003 22.0063 66.5908 22.2082 72.7814 21.4006C78.9721 20.593 86.8602 17.9684 96.1462 13.5268L86.5607 12.1135C85.662 12.0126 85.0629 11.306 84.8632 10.4984L83.9646 5.75391C77.3745 8.98419 73.3805 10.8012 71.6831 11.4069C60.3003 15.2429 56.0067 16.3533 54.2094 16.5552L54.2094 20.694"/>
	<path fill="#F43B3B" d="M73.9759 92.7697L21.8633 92.7697C16.5722 92.7697 12.2794 88.429 12.2794 83.0789L12.2794 47.041L83.5598 47.041L83.5598 83.0789C83.5598 88.429 79.267 92.7697 73.9759 92.7697"/>
	<path fill="#2D1A0B" d="M73.9759 93.7792L21.8633 93.7792C16.0731 93.7792 11.2811 88.9338 11.2811 83.0789L11.2811 46.0316L84.5581 46.0316L84.5581 83.0789C84.5581 89.0348 79.7662 93.7792 73.9759 93.7792M13.2778 48.0505L13.2778 83.0789C13.2778 87.8234 17.1712 91.7603 21.8633 91.7603L73.9759 91.7603C78.668 91.7603 82.5615 87.8234 82.5615 83.0789L82.5615 48.0505L13.2778 48.0505"/>
	<path fill="#F43B3B" d="M6.48919 22.9149L89.2504 22.9149C91.5464 22.9149 92.7444 24.1262 92.7444 26.448L92.7444 46.6373C92.7444 48.9591 91.5464 50.1703 89.2504 50.1703L6.48919 50.1703C4.19304 50.1703 2.99505 48.9591 2.99505 46.6373L2.99505 26.448C2.99505 24.0253 4.19304 22.9149 6.48919 22.9149"/>
	<path fill="#2D1A0B" d="M89.2503 51.0788L6.48916 51.0788C3.59402 51.0788 1.9967 49.4637 1.9967 46.5363L1.9967 26.347C1.9967 23.4195 3.59402 21.8044 6.48916 21.8044L89.2503 21.8044C92.1454 21.8044 93.7428 23.4195 93.7428 26.347L93.7428 46.5363C93.7428 49.4637 92.1454 51.0788 89.2503 51.0788M6.48916 23.9243C4.69218 23.9243 3.99335 24.6309 3.99335 26.4479L3.99335 46.6372C3.99335 48.4542 4.69218 49.1609 6.48916 49.1609L89.2503 49.1609C91.0473 49.1609 91.7461 48.4542 91.7461 46.6372L91.7461 26.4479C91.7461 24.6309 91.0473 23.9243 89.2503 23.9243L6.48916 23.9243"/>
	<path fill="#FAE9DC" d="M41.4305 49.9684L54.4087 49.9684L54.4087 92.7697L41.4305 92.7697L41.4305 49.9684"/>
	<path fill="#2C180C" d="M55.4071 93.7792L40.4322 93.7792L40.4322 48.959L55.4071 48.959L55.4071 93.7792M42.4288 91.7603L53.4104 91.7603L53.4104 50.9779L42.4288 50.9779L42.4288 91.7603"/>
	<path fill="#FAE9DC" d="M41.4305 21.8043L54.4087 21.8043L54.4087 50.8769L41.4305 50.8769L41.4305 21.8043"/>
	<path fill="#2C180C" d="M55.4071 51.8864L40.4322 51.8864L40.4322 20.7949L55.4071 20.7949L55.4071 51.8864M42.4288 49.8675L53.4104 49.8675L53.4104 22.8138L42.4288 22.8138L42.4288 49.8675"/>
	<path fill="#FAE9DC" d="M55.9062 19.3817C55.9062 22.9497 52.3305 25.8422 47.9196 25.8422C43.5087 25.8422 39.933 22.9497 39.933 19.3817C39.933 15.8136 43.5087 12.9211 47.9196 12.9211C52.3305 12.9211 55.9062 15.8136 55.9062 19.3817"/>
	<path fill="#2C180C" d="M47.9196 26.8517C43.0278 26.8517 38.9347 23.5205 38.9347 19.3817C38.9347 15.2429 42.928 11.9116 47.9196 11.9116C52.9112 11.9116 56.9045 15.2429 56.9045 19.3817C56.9045 23.5205 52.8114 26.8517 47.9196 26.8517M47.9196 13.9306C44.126 13.9306 40.9314 16.3533 40.9314 19.3817C40.9314 22.41 44.0262 24.8327 47.9196 24.8327C51.8131 24.8327 54.9079 22.41 54.9079 19.3817C54.9079 16.3533 51.7133 13.9306 47.9196 13.9306"/>
</svg>
