<?xml version="1.0" encoding="utf-8" ?>
<svg xmlns="http://www.w3.org/2000/svg" xmlns:xlink="http://www.w3.org/1999/xlink" width="102" height="108">
	<path fill="white" d="M92.7182 90.1006C92.1194 87.1844 90.5225 84.6704 88.227 82.8603C96.2114 73.7095 100.603 62.2458 100.603 49.9777C100.603 22.4246 78.3464 0 51 0C23.6536 0 1.39726 22.4246 1.39726 49.9777C1.39726 62.2458 5.78865 73.7095 13.773 82.8603C11.4775 84.5698 9.88063 87.1844 9.2818 90.1006C3.99217 91.5084 0 96.4358 0 102.268L0 108L102 108L102 102.268C102 96.4358 98.0078 91.5084 92.7182 90.1006"/>
	<path fill="#CCEFFF" d="M97.6586 50.0781C97.6586 62.7486 92.6684 74.6144 83.5862 83.4636L18.4139 83.4636C9.33177 74.5138 4.34155 62.7486 4.34155 50.0781C4.34155 24.2346 25.2006 3.11725 51 3.11725C76.7995 3.11725 97.6586 24.2346 97.6586 50.0781"/>
	<path fill="#2D190C" d="M84.0353 84.4692L18.0646 84.4692C8.48342 75.1173 3.3934 62.9497 3.3934 50.0782C3.3934 23.6313 24.7515 2.1117 51.0001 2.1117C77.2486 2.1117 98.6067 23.6313 98.6067 50.0782C98.6067 63.0502 93.5167 75.1173 84.2349 84.1676M18.9629 82.4581L83.2368 82.4581C91.9198 73.81 96.7104 62.2458 96.7104 50.0782C96.7104 24.7374 76.2505 4.12287 51.0999 4.12287C25.9492 4.12287 5.48929 24.7374 5.48929 50.0782C5.48929 62.2458 10.2799 73.81 18.9629 82.4581"/>
	<path fill="#4DBBEB" d="M26.3483 32.8827C26.3483 34.2905 27.4461 35.4972 28.9432 35.4972C30.3405 35.4972 31.5381 34.3911 31.5381 32.8827C31.5381 31.4749 30.4403 30.2682 28.9432 30.2682C27.5459 30.3687 26.3483 31.4749 26.3483 32.8827"/>
	<path fill="#4DBBEB" d="M75.6517 45.7542C75.6517 47.162 76.7495 48.3687 78.2466 48.3687C79.6439 48.3687 80.8415 47.2626 80.8415 45.7542C80.8415 44.3464 79.7437 43.1397 78.2466 43.1397C76.8493 43.1397 75.6517 44.3464 75.6517 45.7542"/>
	<path fill="#4DBBEB" d="M14.3718 66.4693C14.3718 67.8771 15.4696 69.0838 16.9667 69.0838C18.364 69.0838 19.5616 67.9777 19.5616 66.4693C19.5616 64.9609 18.4638 63.8548 16.9667 63.8548C15.5694 63.8548 14.3718 65.0615 14.3718 66.4693"/>
	<path fill="#4DBBEB" d="M64.9726 24.9385C64.9726 26.3463 66.0704 27.553 67.5675 27.553C68.9648 27.553 70.1624 26.4469 70.1624 24.9385C70.1624 23.4301 69.0646 22.324 67.5675 22.324C66.1702 22.4245 64.9726 23.5307 64.9726 24.9385"/>
	<path fill="#81C8EE" d="M70.5616 38.0112C70.5616 39.4191 69.4638 40.6258 67.9667 40.6258L65.3718 40.6258L65.3718 43.2402C65.3718 44.648 64.2739 45.8549 62.7769 45.8549C61.2798 45.8549 60.182 44.7486 60.182 43.2402L60.182 40.6258L57.5871 40.6258C56.1898 40.6258 54.9921 39.5196 54.9921 38.0112C54.9921 36.6034 56.09 35.3967 57.5871 35.3967L60.182 35.3967L60.182 32.7822C60.182 31.3743 61.2798 30.1677 62.7769 30.1677C64.2739 30.1677 65.3718 31.2738 65.3718 32.7822L65.3718 35.3967L67.9667 35.3967C69.364 35.4973 70.5616 36.6034 70.5616 38.0112M34.7319 48.2682C34.7319 49.676 33.634 50.8828 32.137 50.8828L29.542 50.8828L29.542 53.4972C29.542 54.9051 28.4442 56.1117 26.9471 56.1117C25.5499 56.1117 24.3522 55.0056 24.3522 53.4972L24.3522 50.8828L21.7573 50.8828C20.3601 50.8828 19.1624 49.7766 19.1624 48.2682C19.1624 46.8604 20.2603 45.6536 21.7573 45.6536L24.3522 45.6536L24.3522 43.0392C24.3522 41.6314 25.4501 40.4247 26.9471 40.4247C28.3444 40.4247 29.542 41.5308 29.542 43.0392L29.542 45.6536L32.137 45.6536C33.5342 45.7542 34.7319 46.8604 34.7319 48.2682"/>
	<path fill="#C15E1B" d="M48.6047 61.1398L53.3953 61.1398L53.3953 84.2683L48.6047 84.2683L48.6047 61.1398"/>
	<path fill="#2D190C" d="M54.3933 85.2739L47.6067 85.2739L47.6067 60.1342L54.3933 60.1342L54.3933 85.2739M49.6027 83.2627L52.3973 83.2627L52.3973 62.1454L49.6027 62.1454L49.6027 83.2627"/>
	<path fill="#388E29" d="M64.2923 66.0671L53.4136 38.9162C53.0144 37.9107 51.9165 37.3073 50.9155 37.3073C49.9204 37.3073 48.8225 37.8101 48.4233 38.9162L37.5447 66.0671C37.1455 66.9721 37.3051 67.8771 37.8441 68.581C38.3431 69.3855 39.1415 69.7877 40.0398 69.7877L61.6973 69.7877C62.5956 69.7877 63.394 69.3855 63.8931 68.581C64.5917 67.8771 64.6915 66.9721 64.2923 66.0671"/>
	<path fill="#2D1A0B" d="M61.7987 70.7933L40.1508 70.7933C38.8539 70.7933 37.7565 70.19 37.0582 69.1844C36.4045 68.1788 36.1604 66.8715 36.7589 65.6648L47.6328 38.514C48.2314 37.2067 49.5282 36.3017 50.9999 36.3017C52.521 36.3017 53.9177 37.2067 54.4165 38.514L65.2904 65.6648C65.7892 66.8715 65.6894 68.1788 64.8913 69.1844C64.193 70.19 63.0956 70.7933 61.7987 70.7933M50.9999 38.3129C50.5258 38.3129 49.7278 38.6146 49.4285 39.3185L38.5546 66.4693C38.3551 67.0726 38.3551 67.5754 38.7541 68.0782C39.0534 68.581 39.5522 68.8827 40.1508 68.8827L61.7987 68.8827C62.3973 68.8827 62.8961 68.581 63.1954 68.1788C63.5944 67.676 63.5944 67.0726 63.3949 66.5699L52.521 39.419C52.3215 38.514 51.5234 38.3129 50.9999 38.3129"/>
	<path fill="#994C0F" d="M89.9735 92.6145L12.0264 92.6145C12.0264 87.5866 16.1183 83.4637 21.1085 83.4637L80.9911 83.4637C85.9814 83.4637 89.9735 87.486 89.9735 92.6145"/>
	<path fill="#2D190C" d="M90.9216 93.6201L10.9784 93.6201L10.9784 92.6145C10.9784 86.9832 15.4696 82.4581 21.0586 82.4581L80.9412 82.4581C86.5303 82.4581 91.0215 86.9832 91.0215 92.6145L91.0215 93.6201M13.0743 91.6089L88.9256 91.6089C88.4265 87.5866 85.0332 84.4693 80.9412 84.4693L21.0586 84.4693C16.9667 84.4693 13.5733 87.5866 13.0743 91.6089"/>
	<path fill="#994C0F" d="M99.0059 104.983L2.99415 104.983L2.99415 102.268C2.99415 97.0391 7.28574 92.7151 12.4756 92.7151L89.5244 92.7151C94.7143 92.7151 99.0059 97.0391 99.0059 102.268L99.0059 104.983"/>
	<path fill="#2D190C" d="M100.004 105.989L1.9961 105.989L1.9961 102.268C1.9961 96.4358 6.6869 91.7095 12.4756 91.7095L89.5245 91.7095C95.3131 91.7095 100.004 96.4358 100.004 102.268L100.004 105.989M3.99219 103.978L98.0078 103.978L98.0078 102.268C98.0078 97.5419 94.2153 93.7207 89.5245 93.7207L12.4756 93.7207C7.78475 93.7207 3.99219 97.5419 3.99219 102.268L3.99219 103.978"/>
</svg>
