<?xml version="1.0" encoding="utf-8" ?>
<svg xmlns="http://www.w3.org/2000/svg" xmlns:xlink="http://www.w3.org/1999/xlink" width="100" height="114">
	<path fill="white" d="M45.0605 114C34.7782 114 22.2782 108.519 18.1452 98.1556C17.1371 95.6643 16.6331 94.3689 16.3306 93.6713C15.9274 92.6748 15.8266 92.4755 15.625 91.6783C15.5242 91.1801 15.3226 90.0839 14.3145 86.3969C13.8105 84.6031 12.0968 81.3147 10.3831 78.0262C7.56048 72.6451 4.83871 67.5629 4.6371 63.9755C4.43548 60.3881 4.53629 57.5979 5.24194 55.2063C2.21774 54.0105 0 51.021 0 47.5332L0 45.7395C0 42.6503 1.71371 39.9598 4.33468 38.5647C5.14113 15.4458 24.7984 0 43.1452 0C49.3952 0 55.6452 1.49476 61.4919 4.18531C75.4032 5.77972 87.9032 16.542 92.2379 30.6923C96.9758 33.0839 100 37.9668 100 43.2483C100 51.021 93.5484 57.3986 85.6855 57.3986C84.7782 57.3986 83.871 57.299 82.9637 57C84.1734 62.8794 82.3589 67.4633 80.3427 71.0507C77.0161 77.0297 74.7984 83.0087 73.3871 89.1871C72.0766 95.465 68.3468 112.605 46.9758 114C46.2702 114 45.6653 114 45.0605 114"/>
	<path fill="#F0FBFF" d="M7.71153 63.4597C8.11476 68.6415 15.9777 80.3006 17.389 85.2831C20.1108 95.0488 17.389 87.3758 21.1187 96.7429C24.647 105.711 36.643 111.292 46.8245 110.738C66.6833 109.498 69.4051 93.6537 70.514 88.3723C72.026 81.3967 74.5462 75.3181 77.772 69.4387C80.0906 65.1537 81.6027 60.3705 78.9817 54.1922C78.3768 52.6974 75.0502 51.6013 74.0422 50.2062C73.2357 49.3093 71.4212 48.2132 70.2115 48.1135C59.6269 47.117 49.5462 47.9142 38.8608 47.7149C33.518 47.6153 28.0744 47.4424 22.7316 47.6153C19.5058 47.6153 15.3728 46.7184 12.7519 49.0104C9.62685 51.8006 7.00588 54.3915 7.71153 63.4597"/>
	<path fill="#2D190C" d="M45.1786 111.808C35.3914 111.808 23.7882 106.625 20.0549 97.1571C19.0459 94.6655 18.5415 93.3699 18.2388 92.6722C17.8352 91.6756 17.8352 91.5759 17.6334 90.9779C17.5325 90.38 17.3307 89.2837 16.2207 85.5961C15.6154 83.6028 13.9001 80.3139 12.0839 76.8257C9.46053 71.8425 6.73627 66.66 6.44165 63.4708C5.92908 54.3018 8.35065 51.4115 11.8821 48.2223C14.2028 46.1294 17.4315 46.3723 20.3576 46.3723C21.1647 46.3723 21.8711 46.528 22.5774 46.528C27.9249 46.3723 33.3736 46.528 38.8221 46.6277C42.757 46.7273 46.6922 46.6277 50.4254 46.6277C56.8829 46.528 63.5423 46.3723 70.3025 47.0263C71.715 47.126 73.8338 48.322 74.742 49.5179C75.1456 49.9166 75.9528 50.4149 76.659 50.9132C77.9707 51.7105 79.2824 52.5078 79.7868 53.7038C82.713 60.6802 80.695 65.9624 78.5761 69.8493C75.2465 76.0284 72.8249 82.1079 71.4124 88.4864C69.9998 94.8648 66.6701 110.412 46.793 111.608C46.2886 111.808 45.6832 111.808 45.1786 111.808M18.0369 48.5213C16.2207 48.5213 14.5055 48.7206 13.2947 49.8169C10.5704 52.2088 8.04795 54.5011 8.65334 63.3712C8.85514 66.1617 11.5794 71.3442 14.001 75.9288C15.9181 79.5166 17.6334 82.8055 18.2388 85.0978C19.2477 88.885 19.5504 90.081 19.6513 90.6789C19.7522 91.0776 19.7522 91.0776 20.1558 91.9746C20.4585 92.6722 20.963 94.0675 21.972 96.5591C25.5035 105.529 37.6113 110.412 46.6922 109.814C65.0556 108.618 68.0826 94.7651 69.3943 88.885C71.0088 81.7092 73.3294 75.4304 76.8608 69.052C78.8789 65.3644 80.594 60.7799 77.9707 54.6008C77.769 54.0028 76.5582 53.3051 75.65 52.7072C74.6411 52.1092 73.7329 51.6109 73.2284 50.9132C72.623 50.1159 71.0088 49.2189 70.1006 49.2189C63.4413 48.621 57.1856 48.7206 50.4254 48.8203C46.5913 48.8203 42.6562 48.9199 38.7211 48.8203C33.3736 48.7206 27.9249 48.621 22.5774 48.7206C21.8711 48.7206 21.0639 48.7206 20.2566 48.621C19.5504 48.5213 18.7433 48.5213 18.0369 48.5213"/>
	<path fill="#F7CCBF" d="M19.6068 52.5158C19.6068 52.5158 16.3809 70.2536 29.9898 75.5473L36.3406 70.5525C36.3406 70.5525 38.9616 75.834 43.8003 75.5473C48.639 75.2361 52.1672 70.7518 52.1672 70.7518C52.1672 70.7518 55.9979 75.834 59.7277 74.9371C63.5584 74.0403 71.1188 61.3847 68.8003 53.5123C68.6995 53.2133 68.4979 52.7151 68.4979 52.7151L19.6068 52.5158"/>
	<path fill="#2D1A0B" d="M30.1915 76.6312C15.4737 70.9511 18.5987 52.5158 18.6995 52.3165L69.2036 51.7186C69.6068 52.3165 69.8083 52.8147 69.9093 53.2134C71.3204 58.2955 69.002 64.8724 66.381 69.3567C64.2641 72.9441 61.8447 75.3357 60.0302 75.834C56.7035 76.6312 53.5785 73.7413 52.1673 72.2466C50.756 73.6417 47.8326 76.2326 43.9011 76.5315C39.7681 76.8305 37.1471 73.7413 36.0382 72.0473L30.1915 76.6312M36.7439 69.0578L37.2479 70.1539C37.2479 70.1539 39.6673 74.8375 43.8004 74.5385C48.135 74.2396 51.3609 70.1539 51.3609 70.1539L52.1673 69.0578L52.9738 70.1539C53.881 71.4494 56.9052 74.6382 59.5261 73.9406C60.5343 73.6417 62.5504 71.848 64.5665 68.3602C66.9859 64.1749 69.2036 58.1959 67.8931 53.7116C67.8931 53.7116 67.8931 53.7116 67.8931 53.612L20.514 53.4127C20.1108 56.8008 19.4052 69.7553 29.889 74.2396L36.7439 69.0578"/>
	<path fill="#F0FBFF" d="M80.2932 52.5158L8.31749 52.5158C5.3941 52.5158 3.07555 50.2238 3.07555 47.334L3.07555 45.5403C3.07555 42.6504 5.3941 40.3585 8.31749 40.3585L80.2932 40.3585C83.2166 40.3585 85.5383 42.6504 85.5383 45.5403L85.5383 47.334C85.636 50.1242 83.2166 52.5158 80.2932 52.5158"/>
	<path fill="#2D190C" d="M80.2947 53.5122L8.31673 53.5122C4.88921 53.5122 2.06655 50.722 2.06655 47.334L2.06655 45.5403C2.06655 42.1522 4.88921 39.3619 8.31673 39.3619L80.2947 39.3619C83.7222 39.3619 86.5475 42.1522 86.5475 45.5403L86.5475 47.334C86.6457 50.722 83.823 53.5122 80.2947 53.5122M8.31673 41.2553C5.99812 41.2553 4.08274 43.1487 4.08274 45.4406L4.08274 47.2343C4.08274 49.5262 5.99812 51.4197 8.31673 51.4197L80.2947 51.4197C82.6133 51.4197 84.5286 49.5262 84.5286 47.2343L84.5286 45.4406C84.5286 43.1487 82.6133 41.2553 80.2947 41.2553L8.31673 41.2553"/>
	<path fill="#994C0F" d="M37.5504 60.3882C37.5504 62.0943 36.1512 63.4774 34.4254 63.4774C32.6995 63.4774 31.3004 62.0943 31.3004 60.3882C31.3004 58.6821 32.6995 57.299 34.4254 57.299C36.1512 57.299 37.5504 58.6821 37.5504 60.3882"/>
	<path fill="#994C0F" d="M54.9899 60.3882C54.9899 62.0943 53.5907 63.4774 51.8649 63.4774C50.139 63.4774 48.7399 62.0943 48.7399 60.3882C48.7399 58.6821 50.139 57.299 51.8649 57.299C53.5907 57.299 54.9899 58.6821 54.9899 60.3882"/>
	<path fill="#F43B3B" d="M75.1512 31.6889C77.9738 34.18 91.6835 44.3444 90.5746 47.6329C90.9778 45.6399 90.8882 43.5472 90.8882 41.4545C90.8882 23.4179 75.9577 6.77625 57.7117 6.77625C54.9899 6.77625 52.369 7.0752 49.8488 7.6731C58.8206 13.5525 65.373 23.0192 75.1512 31.6889"/>
	<path fill="#2D1A0B" d="M91.4818 47.9317L89.5665 47.4335C89.5665 47.3338 89.5665 47.1345 89.6673 47.0349C89.5665 45.4405 85.3326 41.2552 77.0665 34.479C75.9576 33.5821 75.0504 32.8845 74.5462 32.3863C70.6149 28.8985 67.1875 25.3111 63.8609 21.7237C59.123 16.6415 54.5866 11.8583 49.2439 8.47021L47.3286 7.17476L49.5463 6.6765C52.1673 6.0786 54.9898 5.68 57.7117 5.68C75.9576 5.68 91.8851 22.3216 91.8851 41.3548C91.8851 43.9457 91.8851 45.6398 91.5826 47.3338C91.5826 47.5331 91.4818 47.7324 91.4818 47.9317M52.2681 8.17126C56.9052 11.5594 61.0383 15.8443 65.272 20.4283C68.498 23.916 71.9254 27.5034 75.756 30.8915C76.2601 31.2901 77.1673 32.0873 78.2762 32.8845C83.7197 37.2692 87.6512 40.7569 89.8689 43.4475C89.8689 43.0489 89.8689 42.6503 89.8689 42.152C89.8689 23.3181 74.8488 7.57336 57.7117 7.57336C55.7963 7.77266 53.9818 7.87231 52.2681 8.17126"/>
	<path fill="#F43B3B" d="M81.3002 39.8602C61.139 40.6574 18.0947 40.2589 7.30835 39.8602C7.30835 16.6417 26.9657 2.78975 43.1954 2.78975C61.2398 2.78975 81.3002 16.542 81.3002 39.8602"/>
	<path fill="#2D1A0B" d="M47.3285 41.2553C30.1915 41.2553 13.3568 41.056 7.30841 40.757L6.30035 40.757C6.30035 26.507 12.4495 17.7378 17.4898 12.6556C24.5464 5.77976 34.0221 1.6941 43.0947 1.6941C43.1955 1.6941 43.1955 1.6941 43.2963 1.6941C52.7722 1.6941 62.4496 5.38116 69.7076 11.7588C77.873 18.9336 82.3085 28.799 82.3085 39.7605L81.3004 40.757C72.631 41.1556 59.8285 41.2553 47.3285 41.2553M8.41729 38.8637C20.1109 39.2623 60.0302 39.5612 80.2923 38.8637C79.9899 26.1084 73.6391 17.9371 68.3972 13.3532C61.4415 7.27452 52.2681 3.78676 43.2963 3.78676C43.2963 3.78676 43.1955 3.78676 43.1955 3.78676C34.7278 3.78676 25.6551 7.67312 19.0019 14.1504C14.2641 18.7343 8.6189 26.806 8.41729 38.8637"/>
	<path fill="#F9EDED" d="M96.9253 43.0491C96.9253 49.2131 91.8705 54.21 85.635 54.21C79.3995 54.21 74.3447 49.2131 74.3447 43.0491C74.3447 36.8852 79.3995 31.8883 85.635 31.8883C91.8705 31.8883 96.9253 36.8852 96.9253 43.0491"/>
	<path fill="#2D1A0B" d="M85.635 55.306C78.8809 55.306 73.3366 49.8252 73.3366 43.1486C73.3366 36.4721 78.8809 30.9913 85.635 30.9913C92.389 30.9913 97.9334 36.4721 97.9334 43.1486C97.9334 49.8252 92.389 55.306 85.635 55.306M85.635 32.8847C79.9898 32.8847 75.3527 37.4686 75.3527 43.049C75.3527 48.6294 79.9898 53.2133 85.635 53.2133C91.2801 53.2133 95.9172 48.6294 95.9172 43.049C95.9172 37.4686 91.2801 32.8847 85.635 32.8847"/>
	<path fill="#E53D0A" d="M45.2621 91.0804C45.2621 91.0804 45.1613 91.0804 45.1613 91.0804C39.0121 90.9808 36.6935 85.4003 36.5927 85.1014L38.508 84.4038C38.6088 84.6031 40.4234 88.9878 45.1613 89.0874C50.1008 89.1871 52.8225 84.3042 52.9233 84.3042L54.6371 85.3007C54.5362 85.5 51.3104 91.0804 45.2621 91.0804"/>
</svg>
