<?xml version="1.0" encoding="utf-8" ?>
<svg xmlns="http://www.w3.org/2000/svg" xmlns:xlink="http://www.w3.org/1999/xlink" width="104" height="104">
	<path fill="white" d="M53.7066 104C35.5367 104 32.5251 88.9421 32.1236 84.2239C31.8224 81.6139 30.8185 79.2046 29.2124 77.0965C24.9961 71.7761 22.888 65.251 23.0888 58.5251C23.1892 56.417 23.4903 54.4093 23.9923 52.4015L22.5869 52C20.5792 51.3977 18.0695 50.695 15.9614 48.9884C14.6564 47.9846 13.7529 46.6795 13.0502 45.6757C10.6409 42.2625 8.13127 36.9421 9.63707 31.6216C9.93822 30.417 10.6409 29.6139 11.5444 29.112C12.0463 28.8108 12.6486 28.7104 13.251 28.7104C14.4556 28.7104 15.4595 29.3127 15.7606 29.5135L29.4131 38.5483C29.7143 38.749 30.1158 39.0502 30.6178 39.251C30.9189 39.3514 31.1197 39.5521 31.4208 39.7529C33.027 38.1467 34.7336 36.8417 36.5405 35.6371L36.5405 33.3282C36.5405 30.1158 36.5405 27.4054 35.7375 26.6023C35.3359 26.2008 34.1313 25.5985 30.1158 25.5985C29.112 25.5985 28.0077 25.5985 26.7027 25.6988L15.9614 25.6988C4.71815 25.2973 0 21.1815 0 12.1467L0 2.71042L6.02317 2.71042L6.02317 12.1467C6.02317 15.861 6.02317 19.2741 16.0618 19.6757L16.5637 2.9112L22.5869 2.9112L22.5869 11.0425L24.9961 11.0425C26.7027 11.0425 28.0077 9.63707 28.0077 8.03089L28.0077 0L34.0309 0L34.0309 8.03089C34.0309 13.0502 29.9151 17.0656 24.9961 17.0656L22.5869 17.0656L22.5869 19.6757L26.5019 19.6757C27.9073 19.5753 29.0116 19.5753 30.1158 19.5753C35.0347 19.5753 37.9459 20.3784 39.8533 22.1853C42.4633 24.5946 42.5637 28.0077 42.5637 32.6255C45.2741 31.6216 47.9846 31.1197 50.7954 30.9189C51.3977 30.9189 52 30.8185 52.7027 30.8185C55.6139 30.8185 58.5251 31.2201 61.4363 32.0232C61.4363 27.7066 61.6371 24.5946 64.1467 22.2857C66.0541 20.4788 68.9653 19.6757 73.8842 19.6757C74.9884 19.6757 76.1931 19.6757 77.5985 19.7761L81.4131 19.7761L81.4131 17.166L79.0039 17.166C73.9846 17.166 69.9691 13.0502 69.9691 8.13127L69.9691 0L75.9923 0L75.9923 8.13127C75.9923 9.83784 77.3977 11.1429 79.0039 11.1429L81.4131 11.1429L81.4131 3.01158L87.4363 3.01158L87.4363 19.7761C97.9768 19.3745 97.9768 15.861 97.9768 12.2471L97.9768 2.81081L104 2.81081L104 12.2471C104 21.3822 99.2819 25.3977 88.139 25.7992L77.2973 25.7992C75.9923 25.6988 74.888 25.6988 73.8842 25.6988C69.8687 25.6988 68.6641 26.3012 68.2625 26.7027C67.4595 27.4054 67.4595 30.2162 67.4595 33.4286L67.4595 34.6332C69.668 35.8378 71.7761 37.3436 73.583 39.0502C73.8842 39.3514 74.1853 39.6525 74.4865 39.9537C74.888 39.7529 75.1892 39.5521 75.5907 39.3514C76.0927 39.0502 76.4942 38.8494 76.7954 38.6486L90.4479 29.6139C90.749 29.4131 91.6525 28.8108 92.9575 28.8108C93.5598 28.8108 94.1622 28.9112 94.6641 29.2124C95.5676 29.7143 96.2703 30.6178 96.5714 31.722C98.0772 37.0425 95.5676 42.3629 93.1583 45.7761C92.4556 46.8803 91.4517 48.0849 90.2471 49.0888C88.139 50.7954 85.6293 51.4981 83.6216 52L81.7143 52.6023C82.3166 54.9112 82.6178 57.3205 82.6178 59.7297C82.6178 65.9537 80.61 71.8764 76.7954 76.7954C75.0888 79.1042 73.9846 81.8147 73.7838 84.7259C72.8803 96.973 65.5521 104 53.7066 104"/>
	<path fill="#2D190C" d="M40.8572 46.3784L38.8493 46.3784L38.8493 32.7259C38.8493 28.61 38.8493 25.8996 37.444 24.5946C36.0385 23.2896 32.9267 22.888 26.9035 23.1892L16.2626 23.1892C4.61773 22.7876 2.30885 18.2703 2.30885 11.6448L2.30885 4.2162L4.31657 4.2162L4.31657 11.6448C4.31657 16.4633 5.22005 20.7799 16.3629 21.1815L26.9035 21.1815C33.6293 20.7799 36.9421 21.3822 38.8493 23.0888C40.8572 24.9961 40.8572 28.1081 40.8572 32.7259L40.8572 46.3784"/>
	<path fill="#2D190C" d="M18.9729 4.417L20.9807 4.417L20.9807 21.9846L18.9729 21.9846L18.9729 4.417"/>
	<path fill="#2D190C" d="M25.2973 14.556L19.8764 14.556L19.8764 12.5483L25.2973 12.5483C28.1081 12.5483 30.3167 10.2394 30.3167 7.52896L30.3167 1.50579L32.3243 1.50579L32.3243 7.52896C32.3243 11.3436 29.2124 14.556 25.2973 14.556"/>
	<path fill="#2D190C" d="M65.7529 46.5792L63.7452 46.5792L63.7452 32.9267C63.7452 28.3089 63.7452 25.1969 65.7529 23.2896C67.6602 21.4826 70.973 20.9807 77.6989 21.3823L88.2393 21.3823C99.2819 20.9807 100.185 16.5637 100.185 11.8456L100.185 4.417L102.193 4.417L102.193 11.8456C102.193 18.4711 99.7838 22.9884 88.2393 23.39L77.5984 23.39C71.5753 23.0888 68.4633 23.4904 67.0579 24.7954C65.6525 26.1004 65.6525 28.8108 65.6525 32.9267L65.6525 46.5792"/>
	<path fill="#2D190C" d="M83.6216 4.6177L85.6294 4.6177L85.6294 22.1853L83.6216 22.1853L83.6216 4.6177"/>
	<path fill="#2D190C" d="M84.6255 14.7568L79.2046 14.7568C75.2895 14.7568 72.1776 11.5444 72.1776 7.72973L72.1776 1.70656L74.1853 1.70656L74.1853 7.72973C74.1853 10.5405 76.4941 12.7491 79.2046 12.7491L84.6255 12.7491L84.6255 14.7568"/>
	<path fill="#BF6015" d="M14.3551 31.5212C14.054 31.3204 13.6524 31.1933 13.2509 31.1933C12.9497 31.3204 12.8493 31.6216 12.8493 31.9228C11.7451 35.8378 13.552 40.1544 15.8609 43.4671C16.5636 44.4711 17.2663 45.4748 18.2702 46.1776C19.8764 47.4826 21.8841 48.0849 23.7915 48.5868C25.4979 49.0887 27.1041 49.4903 28.8107 49.9922C30.5173 50.4941 32.5251 50.8958 33.8301 49.5908C38.2471 45.3745 30.718 42.1621 28.2085 40.4556C23.4902 37.5444 18.9729 34.5328 14.3551 31.5212"/>
	<path fill="#2C180C" d="M31.4209 51.498C30.417 51.498 29.4132 51.2973 28.4093 50.9961L23.39 49.5907C21.4827 49.0888 19.2742 48.3861 17.4672 46.9807C16.363 46.0772 15.5599 44.9729 14.8572 44.0695C12.7491 40.9575 10.4402 36.3397 11.7452 31.722C11.8456 31.4208 12.0464 30.7181 12.6487 30.417C13.5522 29.915 14.4556 30.5173 14.7568 30.7181L28.4093 39.7529C28.8108 39.9536 29.2124 40.2548 29.7143 40.556C32.1236 41.9614 35.4363 43.9691 35.8379 46.6795C36.0386 47.9845 35.4363 49.2895 34.2317 50.4942C33.529 51.2973 32.5251 51.498 31.4209 51.498M13.7529 32.3243C12.6487 36.139 14.7568 40.2548 16.5637 42.9652C17.166 43.7683 17.8687 44.7722 18.7722 45.4749C20.1776 46.6795 22.085 47.1814 23.9923 47.6834L29.0116 49.0888C30.5174 49.4903 32.1236 49.7915 33.0271 48.9884C33.8301 48.2857 34.1313 47.583 34.0309 46.8803C33.8301 45.1737 30.9189 43.3668 28.9112 42.2625C28.3089 41.9614 27.9074 41.6602 27.5058 41.359L13.7529 32.3243C13.8533 32.3243 13.7529 32.3243 13.7529 32.3243"/>
	<path fill="#BF6015" d="M92.3746 31.5213C92.6758 31.3205 93.0773 31.1935 93.4789 31.1935C93.78 31.3205 93.8804 31.6217 93.8804 31.9229C94.9847 35.8379 93.1777 40.1545 90.8688 43.4673C90.1661 44.4712 89.4634 45.475 88.4596 46.1777C86.8534 47.4827 84.8457 48.0851 82.9383 48.587C81.2318 49.0889 79.6257 49.4905 77.9191 49.9924C76.2125 50.4943 74.2048 50.8959 72.8998 49.5909C68.4828 45.3745 76.0118 42.1623 78.5214 40.4557C83.2395 37.5445 87.8573 34.5329 92.3746 31.5213"/>
	<path fill="#2C180C" d="M75.2765 51.4981C74.1723 51.4981 73.1684 51.197 72.2649 50.3939C71.0603 49.1892 70.458 47.9846 70.6207 46.5792C70.9599 43.8688 74.2726 41.8611 76.7823 40.4557C77.2842 40.1545 77.7862 39.8533 78.0873 39.6526L91.7398 30.6178C92.041 30.417 92.9445 29.8147 93.8479 30.3167C94.5506 30.7182 94.7514 31.4209 94.7514 31.6217C96.0564 36.2394 93.7475 40.8572 91.6394 43.9692C90.9367 44.973 90.1336 46.0773 89.0294 46.8804C87.2225 48.2858 85.1143 48.9885 83.1066 49.4904L78.0873 50.8958C77.3846 51.2974 76.2804 51.4981 75.2765 51.4981M92.9445 32.3244L79.2919 41.4595C78.8904 41.7607 78.3885 41.9614 77.8866 42.363C75.9792 43.4672 72.9676 45.2742 72.7668 46.9808C72.6665 47.6835 73.068 48.2858 73.7707 49.0889C74.6742 49.9923 76.2804 49.5908 77.7862 49.1892L82.8055 47.7838C84.6124 47.2819 86.5198 46.6796 88.0255 45.5753C88.929 44.8726 89.6317 43.8688 90.234 43.0657C91.9406 40.1545 93.9483 36.139 92.9445 32.3244"/>
	<path fill="#BF6015" d="M79.807 59.1554C79.807 44.3987 66.8572 32.4527 51.2974 33.3976C37.7453 34.2597 26.8032 45.1014 26.2875 58.1515C26.1005 64.3755 28.1082 70.1979 31.7221 74.7153C33.7298 77.2249 34.9344 80.2365 35.2356 83.3485C35.9383 89.8736 39.4518 100.414 53.9074 100.414C67.4595 100.414 70.5715 90.4759 71.0734 83.9508C71.2742 80.5376 72.5792 77.2249 74.6873 74.4141C77.8997 70.1979 79.807 64.8774 79.807 59.1554"/>
	<path fill="#2C180C" d="M53.8957 101.49C37.8269 101.49 34.8139 88.9337 34.2114 83.5093C33.9101 80.4957 32.8054 77.683 30.8972 75.3726C26.9804 70.4504 24.9718 64.3228 25.2435 58.0947C25.7752 44.5336 37.2243 33.2829 51.1841 32.3214C59.0176 31.8766 66.7508 34.6893 72.3748 39.9128C77.7981 45.0359 80.7106 51.7662 80.7106 59.0993C80.7106 64.8251 78.8024 70.35 75.2873 74.9708C73.2787 77.5825 72.174 80.6966 71.8727 84.0115C71.5714 90.5409 68.5585 101.49 53.8957 101.49M52.977 34.3879C52.4897 34.3879 51.8871 34.3879 51.3849 34.3879C38.4294 35.1916 27.7838 45.6386 27.2817 58.1952C27.0808 64.0214 28.8886 69.5463 32.5041 74.1672C34.6131 76.7789 35.8183 79.9934 36.22 83.3083C36.8226 89.3355 39.9359 99.4812 53.8957 99.4812C66.2486 99.4812 69.4624 91.0432 69.9645 83.9111C70.2658 80.1943 71.5714 76.7789 73.7809 73.8658C77.0951 69.5463 78.8024 64.5237 78.8024 59.1997C78.8024 52.4694 76.0908 46.1409 71.0693 41.5201C66.2486 36.8992 59.7206 34.3879 52.977 34.3879"/>
	<path fill="#994C0F" d="M66.8571 59.9305C66.8571 61.5383 65.5537 62.8417 63.9459 62.8417C62.3381 62.8417 61.0347 61.5383 61.0347 59.9305C61.0347 58.3227 62.3381 57.0193 63.9459 57.0193C65.5537 57.0193 66.8571 58.3227 66.8571 59.9305"/>
	<path fill="#2D190C" d="M63.9459 63.7452C61.8378 63.7452 60.0308 62.0386 60.0308 59.8301C60.0308 57.6216 61.7374 55.915 63.9459 55.915C66.1544 55.915 67.861 57.6216 67.861 59.8301C67.861 62.0386 66.054 63.7452 63.9459 63.7452M63.9459 58.0231C62.942 58.0231 62.0386 58.8262 62.0386 59.9305C62.0386 61.0347 62.8417 61.8378 63.9459 61.8378C65.0502 61.8378 65.8532 61.0347 65.8532 59.9305C65.8532 58.8262 64.9498 58.0231 63.9459 58.0231"/>
	<path fill="#994C0F" d="M46.3784 59.9305C46.3784 61.5383 45.075 62.8417 43.4672 62.8417C41.8594 62.8417 40.556 61.5383 40.556 59.9305C40.556 58.3227 41.8594 57.0193 43.4672 57.0193C45.075 57.0193 46.3784 58.3227 46.3784 59.9305"/>
	<path fill="#2D190C" d="M43.4672 63.7452C41.3591 63.7452 39.5521 62.0386 39.5521 59.8301C39.5521 57.6216 41.2587 55.915 43.4672 55.915C45.6757 55.915 47.3823 57.6216 47.3823 59.8301C47.3823 62.0386 45.5753 63.7452 43.4672 63.7452M43.4672 58.0231C42.4633 58.0231 41.5599 58.8262 41.5599 59.9305C41.5599 61.0347 42.3629 61.8378 43.4672 61.8378C44.5714 61.8378 45.3745 61.0347 45.3745 59.9305C45.3745 58.8262 44.4711 58.0231 43.4672 58.0231"/>
	<path fill="#994C0F" d="M58.0231 84.3243C60.2317 80.5097 57.9228 76.5946 54.3088 76.5946C49.8919 76.5946 47.583 80.5097 49.3899 83.6217C51.5984 87.5367 56.2162 87.5367 58.0231 84.3243"/>
	<path fill="#2D190C" d="M53.9073 87.7374C51.7992 87.7374 49.9922 86.6332 48.9884 84.9267C47.583 82.417 47.583 80.3089 48.5868 78.502C49.5907 76.695 51.498 75.6911 53.5058 75.6911C56.417 75.6911 58.2239 76.7954 59.2277 78.502C60.2317 80.2085 60.2317 82.417 59.2277 84.224C57.8224 86.6332 56.0154 87.7374 53.9073 87.7374M53.5058 77.5985C52.2007 77.5985 50.9961 78.3012 50.2934 79.4054C49.5907 80.6101 49.5907 81.9151 50.2934 83.1197C51.3977 85.0271 52.6023 85.6294 53.9073 85.6294C55.2123 85.6294 56.417 84.9267 57.1197 83.8224C58.2239 81.9151 58.2239 80.6101 57.5212 79.4054C56.8185 78.2008 55.6139 77.5985 54.3088 77.5985"/>
</svg>
