<?xml version="1.0" encoding="utf-8" ?>
<svg xmlns="http://www.w3.org/2000/svg" xmlns:xlink="http://www.w3.org/1999/xlink" width="76" height="94">
	<path fill="white" d="M12.5661 94C11.4603 94 10.3545 93.6961 9.34921 93.2909C7.53968 92.3793 6.13228 90.8599 5.5291 88.9353C4.8254 87.0108 5.02646 84.9849 5.83069 83.1616L13.3704 67.4612C8.94709 63.6121 5.42857 58.8513 3.1164 53.4828C1.10582 48.6207 0 43.556 0 38.3901C0 36.0603 0.201058 33.7306 0.603175 31.4009C1.00529 29.0711 1.70899 26.8427 2.51323 24.6142L3.1164 23.1961C6.93651 14.0797 13.9735 6.98922 23.0212 3.03879C27.8466 1.01293 32.7725 0 37.8995 0C42.8254 0 47.6508 0.911638 52.0741 2.83621C61.8254 6.98922 68.963 14.181 72.8836 23.2974C74.8942 28.1595 76 33.2241 76 38.3901C76 43.3534 75.0952 48.1142 73.2857 52.6724C69.2646 62.3966 62.2275 69.5884 53.0794 73.5388C52.4762 73.7414 51.873 74.0453 51.3704 74.2478C51.1693 74.3491 50.9683 74.3491 50.7672 74.4504C50.0635 74.7543 49.8624 74.7543 49.6614 74.8556C49.1587 75.0582 48.6561 75.1595 48.1534 75.2608C44.6349 76.1724 41.418 76.6789 38.2011 76.6789C34.1799 76.6789 30.3598 76.0711 26.6402 74.8556L19.5026 89.7457C18.0952 92.278 15.381 94 12.5661 94"/>
	<path fill="#F4EAE4" d="M10.5556 90.4548C8.34395 89.3405 7.33866 86.6057 8.44448 84.3772L23.0212 53.888C24.1271 51.6595 26.8414 50.6466 29.0529 51.7608C31.2646 52.875 32.2698 55.6099 31.1641 57.8384L16.5873 88.3277C15.5821 90.6573 12.8678 91.569 10.5556 90.4548"/>
	<path fill="#2C180C" d="M12.5661 91.9741C11.7619 91.9741 10.9577 91.7715 10.1535 91.4677C7.43916 90.1508 6.23281 86.8082 7.53969 84.0733L22.1164 53.584C23.4233 50.8491 26.7408 49.6336 29.455 50.9504C32.1693 52.2672 33.3757 55.6099 32.0688 58.3448L17.4921 88.834C16.5873 90.7586 14.5767 91.9741 12.5661 91.9741M27.1429 52.3685C25.836 52.3685 24.6296 53.0776 24.0265 54.3944L9.44975 84.8836C9.04763 85.6939 8.9471 86.7069 9.24869 87.6185C9.55028 88.5302 10.1535 89.2392 11.0582 89.6444C12.7672 90.4547 14.8783 89.7457 15.7831 88.0237L30.3598 57.5345C31.164 55.8125 30.4603 53.6853 28.7513 52.7737C28.1482 52.4698 27.6455 52.3685 27.1429 52.3685"/>
	<path fill="#FFE36C" d="M70.0688 24.5129C71.8783 28.7673 72.8835 33.4267 72.8835 38.39C72.8835 43.0495 71.9789 47.5065 70.3703 51.5581C66.9523 60.168 60.2169 67.056 51.7724 70.8039C47.5503 72.6272 42.9259 73.6401 37.9497 73.6401C33.3756 73.6401 28.9524 72.7285 24.9312 71.1077C16.3862 67.6637 9.44971 60.7758 5.83066 52.2673C4.02114 48.0128 3.01585 43.3535 3.01585 38.39C3.01585 33.7305 3.92061 29.2737 5.52908 25.222C5.52908 25.1207 5.52908 25.1207 5.62961 25.1207C9.0476 16.5107 15.6826 9.62281 24.1269 5.97626C28.3491 4.15298 32.9735 3.14005 37.9497 3.14005C42.5238 3.14005 46.947 4.05169 50.9683 5.67238C59.5132 9.31893 66.3492 16.0042 70.0688 24.5129"/>
	<path fill="#2B170C" d="M37.9999 74.653C33.2751 74.653 28.7513 73.7413 24.529 72.0193C15.783 68.4741 8.64545 61.3836 4.82534 52.6724C2.91529 48.1142 1.91 43.2521 1.91 38.39C1.91 33.7305 2.71423 29.2737 4.42323 25.0193C8.34386 15.7004 14.9788 8.81244 23.6243 5.0646C28.1481 3.14003 32.873 2.1271 37.6984 2.1271C42.3227 2.1271 46.8465 3.03874 51.0687 4.76072C60.1163 8.60986 67.0529 15.3965 70.7724 24.209C72.6825 28.7672 73.6878 33.528 73.6878 38.4913C73.6878 43.1508 72.783 47.709 71.074 51.9633C67.3544 60.9784 60.619 67.9676 51.873 71.7155C47.5502 73.64 42.8253 74.653 37.9999 74.653M6.23275 26.1336C4.72481 29.9827 4.02111 34.1357 4.02111 38.39C4.02111 43.0495 4.92587 47.5064 6.7354 51.862C10.2539 60.0668 17.0899 66.7521 25.3333 70.0948C29.3544 71.7155 33.5767 72.6271 37.9999 72.6271C42.5238 72.6271 47.0476 71.7155 51.3703 69.8922C59.6137 66.2456 66.0476 59.6616 69.4656 51.2543C71.1746 47.1012 71.9788 42.8469 71.9788 38.4913C71.9788 33.8318 71.074 29.3749 69.2645 25.0193C65.6454 16.7133 59.1111 10.2305 50.7671 6.78658C46.5449 4.96331 42.3227 4.15296 37.9999 4.15296C33.4761 4.15296 28.9523 5.0646 24.6296 6.88788C16.3862 10.4331 9.95233 17.0172 6.63487 25.4245"/>
	<path fill="#F43B3B" d="M37.8993 38.3902C29.3545 31.9073 17.1903 33.1228 10.1533 41.3277C7.33853 44.4677 5.93112 48.4182 5.73006 52.2673C3.92054 48.0129 2.91525 43.3534 2.91525 38.3902C2.91525 33.7306 3.82001 29.2737 5.42848 25.222C5.42848 25.1207 5.42848 25.1207 5.52901 25.1207C8.34382 22.5884 12.0634 20.9677 16.1851 20.6185C26.9417 19.9548 36.3914 27.653 37.8993 38.3902"/>
	<path fill="#2D1A0B" d="M6.53434 56.7048L4.82534 52.6532C2.91529 48.0949 1.91 43.3342 1.91 38.3708C1.91 33.7113 2.71423 29.2545 4.42323 25.0001C4.82534 24.2911 4.92587 24.1898 5.0264 24.1898C8.1428 21.5562 11.9629 19.9355 16.0846 19.5879C27.4444 18.9226 37.1957 26.9247 38.8042 38.1465L39.1058 40.5993L37.1957 39.0798C29.0529 32.9011 17.492 34.1166 10.8571 41.8148C8.34386 44.7523 6.83593 48.3988 6.63487 52.1467L6.53434 56.7048M6.33328 25.8105C4.72481 29.761 3.92058 34.0153 3.92058 38.3708C3.92058 41.7136 4.42323 45.0562 5.32799 48.1963C6.03169 45.4613 7.4391 42.8278 9.34915 40.5993C16.0846 32.6984 27.5449 30.9764 36.291 36.1423C33.8783 27.1273 25.6349 21.0497 16.1851 21.6575C12.5661 21.9613 9.1481 23.3795 6.33328 25.8105"/>
	<path fill="#F43B3B" d="M70.0686 24.5131C71.8781 28.7674 72.8834 33.4269 72.8834 38.3903C72.8834 43.0497 71.9787 47.5066 70.3702 51.5584C67.5554 54.0907 63.8358 55.8127 59.6136 56.1165C48.857 56.8256 39.5078 49.1273 37.8993 38.3903C46.4443 44.873 58.6083 43.6575 65.6453 35.4528C68.3596 32.3127 69.8676 28.3622 70.0686 24.5131"/>
	<path fill="#2D1A0B" d="M58.2064 57.1295C47.4497 57.1295 38.4021 49.3299 36.8942 38.4915L36.5926 36.0605L38.5026 37.5799C46.6455 43.7588 58.2064 42.5433 64.8413 34.845C67.3545 31.9075 68.8624 28.2609 69.0635 24.5131L69.2646 20.0562L70.9736 24.1079C72.8836 28.6661 73.8889 33.4269 73.8889 38.3903C73.8889 43.0497 72.9841 47.6079 71.2751 51.8622C67.8572 55.1036 63.9365 56.7243 59.6138 57.0282C59.2116 57.1295 58.709 57.1295 58.2064 57.1295M39.4074 40.6187C41.8201 49.6338 50.0635 55.7114 59.5132 55.1036C63.2328 54.7997 66.7513 53.3816 69.4656 50.9506C71.0741 47.0002 71.8783 42.7459 71.8783 38.3903C71.8783 35.0476 71.3757 31.7049 70.4709 28.5648C69.7672 31.2997 68.3598 33.9334 66.4497 36.1618C59.6138 43.9614 48.1534 45.6834 39.4074 40.6187"/>
	<path fill="#F43B3B" d="M37.8994 63.1055C32.4709 55.9137 32.3703 45.7844 37.8994 38.39C27.2433 39.9094 19.7036 49.4309 20.3619 60.168C20.7089 64.4223 22.3174 68.0689 24.9311 71.0064C28.9523 72.6271 33.3755 73.5387 38 73.5387C38.1004 73.5387 38.201 73.5387 38.3015 73.5387C43.0264 73.5387 47.6507 72.5258 51.7724 70.7025C47.9523 70.4999 44.1321 68.9805 40.9153 66.2456C39.8094 65.334 38.8042 64.2197 37.8994 63.1055"/>
	<path fill="#2D1A0B" d="M37.8801 74.653C33.2557 74.653 28.7319 73.7414 24.5097 72.0194C21.2928 68.5755 19.6843 64.625 19.2383 60.2694C18.5785 48.8233 26.4197 38.9979 37.6571 37.3772L40.0918 37.0733L38.5837 38.9979C33.4567 45.8858 33.4567 55.6099 38.5837 62.4979C39.3879 63.6121 40.2927 64.625 41.3986 65.5367C44.3139 68.069 47.9329 69.5884 51.6525 69.791L56.0759 69.9936L52.0546 71.7155C47.6313 73.6401 43.007 74.5517 38.1816 74.653M25.515 70.1961C29.4356 71.8168 33.6579 72.6272 37.9806 72.6272C41.4991 72.6272 44.716 72.1207 47.7319 71.2091C45.0177 70.3987 42.4039 69.0819 40.1922 67.1574C38.9858 66.1444 37.9806 65.0302 37.0759 63.8147C31.8484 56.8255 31.4461 47.4052 35.6684 39.9095C26.7213 42.2393 20.6896 50.6466 21.2928 60.1681C21.5943 63.916 23.1023 67.3599 25.515 70.1961"/>
	<path fill="#F43B3B" d="M37.8776 3.14C33.0522 3.14 28.3273 4.15293 24.1051 5.97621C27.9252 6.17879 31.7453 7.69819 34.9622 10.4331C36.0681 11.3447 37.0734 12.459 37.8776 13.5732C43.3062 20.765 43.4067 30.8943 37.8776 38.2887C48.5337 36.7693 56.0734 27.2478 55.3697 16.5107C55.0681 12.2564 53.4596 8.60983 50.9464 5.77362C46.9252 4.05164 42.5019 3.14 37.8776 3.14"/>
	<path fill="#2D1A0B" d="M35.6659 39.7069L37.1739 37.7824C42.3008 30.8944 42.3008 21.1703 37.1739 14.2824C36.3696 13.1681 35.4649 12.1552 34.359 11.2436C31.4437 8.71125 27.8247 7.19186 24.1051 6.98927L19.6818 6.78668L23.703 5.0647C28.2268 3.14013 32.9516 2.1272 37.777 2.1272C42.4014 2.1272 46.9252 3.03884 51.1474 4.76082C54.3643 8.20479 55.9728 12.1552 56.2744 16.5108C56.9781 27.9569 49.1368 37.7824 37.8776 39.4031L35.6659 39.7069M28.1262 5.57117C30.8405 6.38151 33.4543 7.69832 35.6659 9.62289C36.8723 10.6358 37.8776 11.75 38.7823 12.9656C44.0098 19.9548 44.5125 29.375 40.1897 36.8707C49.1368 34.541 55.1686 26.1337 54.5654 16.6121C54.2638 12.763 52.8564 9.31901 50.4437 6.5841C46.5231 4.96341 42.3008 4.15306 38 4.15306C34.5601 4.15306 31.2426 4.65953 28.1262 5.57117"/>
</svg>
