<?xml version="1.0" encoding="utf-8" ?>
<svg xmlns="http://www.w3.org/2000/svg" xmlns:xlink="http://www.w3.org/1999/xlink" width="64" height="114">
	<path fill="white" d="M54.8571 114C49.7778 114 45.7143 109.954 45.7143 104.896L45.7143 29.3345C45.7143 25.9965 43.7841 22.8607 40.4317 20.7365C37.9937 19.2192 35.0476 18.3088 32 18.3088C29.4603 18.3088 26.9206 18.9157 24.6857 20.0284C20.7238 22.0515 18.2857 25.4907 18.2857 29.2334L18.2857 31.9645C18.2857 37.0222 14.2222 41.0683 9.14286 41.0683C4.06349 41.0683 0 37.0222 0 31.9645L0 29.2334C0 26.8057 0.304762 24.378 1.01587 22.0515C2.53968 16.3869 5.99365 11.3292 10.7683 7.38421C16.6603 2.62999 24.1778 0 32 0C41.0413 0 49.7778 3.54037 55.873 9.71074C60.4444 14.3638 63.2889 20.2307 63.8984 26.4011C64 27.3114 64 28.2218 64 29.1322L64 104.694C64 109.853 59.8349 114 54.8571 114"/>
	<path fill="#D7E9FF" d="M31.8985 15.3753C35.6572 15.3753 39.2128 16.488 41.9556 18.2076L53.5366 12.0373C48.254 6.575 40.5334 3.23693 31.8985 3.23693C24.4826 3.23693 17.6763 5.76577 12.5969 9.91306L23.162 17.3984C25.7017 16.1845 28.7493 15.3753 31.8985 15.3753"/>
	<path fill="#2C180C" d="M41.9555 19.4214C38.7047 17.3985 35.3524 16.3869 31.8984 16.3869C28.9524 16.3869 26.1079 17.0949 23.6698 18.3088L10.9714 10.0142L11.9873 9.20499C17.473 4.75423 24.5841 2.32655 31.8984 2.32655C40.4317 2.32655 48.5587 5.66462 54.3492 11.4304L55.2635 12.4419L41.9555 19.4214M31.8984 14.3638C35.5555 14.3638 39.0095 15.2742 42.0571 17.0949L51.9111 11.835C46.6285 6.97961 39.4158 4.24847 31.8984 4.24847C25.4984 4.24847 19.3016 6.27154 14.3238 9.91306L23.3651 16.2857C25.9047 15.0718 28.8508 14.3638 31.8984 14.3638"/>
	<path fill="#D7E9FF" d="M48.6604 66.1544L60.8509 62.8163L60.8509 29.4357C60.8509 28.6265 60.8509 27.8172 60.7493 27.008L48.6604 31.2565L48.6604 66.1544"/>
	<path fill="#2C180C" d="M47.6445 67.4694L47.6445 30.5483L61.562 25.5918L61.6635 26.9068C61.7651 27.8172 61.7651 28.6264 61.7651 29.4356L61.7651 63.6255L47.6445 67.4694M49.6763 31.9645L49.6763 64.7382L59.835 62.0071L59.835 29.3345C59.835 29.031 59.835 28.7276 59.835 28.3229L49.6763 31.9645"/>
	<path fill="#D7E9FF" d="M48.6604 86.5874L48.6604 104.896C48.6604 108.234 51.4032 110.965 54.7556 110.965C58.108 110.965 60.8509 108.234 60.8509 104.896L60.8509 82.7436L48.6604 86.5874"/>
	<path fill="#2C180C" d="M54.7556 111.977C50.7937 111.977 47.6445 108.841 47.6445 104.896L47.6445 85.8793L61.8667 81.4286L61.8667 104.997C61.8667 108.841 58.6159 111.977 54.7556 111.977M49.6763 87.3967L49.6763 104.997C49.6763 107.83 51.9112 110.055 54.7556 110.055C57.6001 110.055 59.835 107.83 59.835 104.997L59.835 84.2609L49.6763 87.3967"/>
	<path fill="#D7E9FF" d="M2.94603 29.4356L2.94603 32.1668C2.94603 35.5049 5.68889 38.236 9.04127 38.236C12.3937 38.236 15.1365 35.5049 15.1365 32.1668L15.1365 29.7391L3.86032 23.063C3.25079 25.086 2.94603 27.2103 2.94603 29.4356"/>
	<path fill="#2C180C" d="M9.04127 39.2476C5.07937 39.2476 1.93016 36.1118 1.93016 32.1668L1.93016 29.4356C1.93016 27.2103 2.23492 24.9849 2.84445 22.8607L3.14921 21.5457L16.1524 29.1322L16.1524 32.1668C16.1524 36.1118 13.0032 39.2476 9.04127 39.2476M4.46984 24.5803C4.16508 26.1987 3.96191 27.716 3.96191 29.3345L3.96191 32.0657C3.96191 34.8979 6.19683 37.1232 9.04127 37.1232C11.8857 37.1232 14.1207 34.8979 14.1207 32.0657L14.1207 30.1437L4.46984 24.5803"/>
	<path fill="#F43B3B" d="M48.6603 29.4356L48.6603 31.2564L60.7492 27.008C60.1396 21.3434 57.6 16.1845 53.6381 12.1384L42.0571 18.3088C46.019 20.8376 48.6603 24.8837 48.6603 29.4356"/>
	<path fill="#2D1A0B" d="M47.6444 32.6726L47.6444 29.4357C47.6444 25.3896 45.4095 21.6469 41.4476 19.118L40.0254 18.2076L53.8413 10.9246C58.6159 15.78 61.1556 21.1411 61.7651 26.9069L47.6444 32.6726M43.8857 18.41C47.5429 21.2423 49.5746 25.1872 49.5746 29.4357L59.5302 26.2999C58.9206 21.5457 56.6857 17.095 53.3333 13.3523L43.8857 18.41"/>
	<path fill="#F43B3B" d="M60.8509 62.8162L48.6604 66.1543L48.6604 86.5873L60.8509 82.8447"/>
	<path fill="#2D1A0B" d="M47.6445 88.0035L47.6445 65.3451L61.8667 61.5013L61.8667 83.5528L47.6445 88.0035M49.6763 66.8624L49.6763 85.1712L59.835 82.0355L59.835 64.1313L49.6763 66.8624"/>
	<path fill="#F43B3B" d="M23.1619 17.4996L12.5968 10.0142C8.33014 13.4534 5.28252 18.0053 3.8603 23.1642L15.1365 29.8403C15.1365 24.378 18.3873 19.9272 23.1619 17.4996"/>
	<path fill="#2D1A0B" d="M16.1524 31.4588L2.6413 23.4677C4.2667 17.4996 7.4159 12.7454 11.9873 9.10387L25.1937 17.4996L23.6699 18.3088C18.9969 20.7365 16.1524 24.8838 16.1524 29.3346L16.1524 31.4588M4.97781 22.5573L14.1207 27.9184C14.6286 23.67 17.1683 19.8261 21.2318 17.2973L12.5969 11.1269C8.93971 14.3638 6.40003 18.2077 4.97781 22.5573"/>
</svg>
