<?xml version="1.0" encoding="utf-8" ?>
<svg xmlns="http://www.w3.org/2000/svg" xmlns:xlink="http://www.w3.org/1999/xlink" width="78" height="110">
	<path fill="white" d="M21.7792 110C17.5247 110 13.3714 108.804 9.72468 106.612L8.1039 105.516L3.34286 102.228C1.51948 98.5417 0 94.4565 0 90.0725C0 84.9909 1.92468 80.308 5.57143 76.721C5.77403 76.5217 6.07792 76.2228 6.28052 76.0236L7.8 74.7283L10.0286 73.0344C24.413 62.1739 27.6545 56.2953 27.9584 53.3062C28.3636 49.1214 28.5662 43.9402 28.5662 37.8623C27.5532 38.4601 26.439 38.7591 25.2234 38.7591C24.3117 38.7591 23.4 38.5598 22.5896 38.2609C21.6779 38.6594 20.6649 38.7591 19.6519 38.7591C18.2338 38.7591 16.8156 38.3605 15.4987 37.663C12.9662 36.2681 11.3455 33.5779 11.3455 30.6884C11.3455 27.7989 12.9662 25.1087 15.4987 23.7138C16.7143 23.0163 18.1325 22.6178 19.6519 22.6178C20.6649 22.6178 21.5766 22.817 22.4883 23.1159C22.7922 22.3188 23.0961 21.4221 23.4 20.4257C22.0831 18.433 21.4753 15.8424 21.4753 12.8533C21.4753 4.4837 26.1351 0 34.1377 0L65.3377 0C73.4416 0 78 4.58333 78 12.4547C78 18.433 75.6701 22.4185 71.4156 24.212L71.7195 59.683C71.8208 66.0598 69.187 72.337 64.6286 76.8207L37.6831 103.424C33.5299 107.708 27.8571 110 21.7792 110"/>
	<path fill="#F43B3B" d="M10.1298 103.025C10.2311 103.125 10.1298 103.025 10.1298 103.025M9.82593 102.826C9.92723 102.926 9.92723 102.826 9.82593 102.826M9.52203 102.627C9.72463 102.727 9.62333 102.627 9.52203 102.627M9.11684 102.228C9.21814 102.328 9.11684 102.228 9.11684 102.228M8.50905 101.63C8.50905 101.73 8.40775 101.531 8.20515 101.331M10.6363 76.8207C10.4337 77.0199 10.2311 77.1196 10.0285 77.3189M11.2441 76.4221M31.5038 53.7047C32.3143 46.0326 32.3143 35.471 31.5038 21.9203L68.7817 21.9203L69.0889 59.683C69.187 65.2627 66.857 70.7428 62.9065 74.6286L35.9609 101.232C29.0727 108.107 18.2337 108.705 10.535 103.225C16.9168 101.331 21.5765 95.5525 21.5765 88.6775C21.5765 82.5996 17.9298 77.4185 12.7636 75.0272C24.7169 66.2591 30.896 59.0852 31.5038 53.7047"/>
	<path fill="#2D1A0B" d="M22.0838 108.107C17.829 108.107 13.6756 106.812 10.0287 104.221L8.40783 103.025L9.82608 101.531L8.71174 103.025L10.0287 101.83L9.31956 102.926L10.4339 102.129C10.6365 102.427 10.6365 102.427 10.7378 102.328C16.7147 100.435 20.7668 94.9547 20.7668 88.8768C20.7668 83.4963 17.5251 78.4148 12.5613 76.1231L11.9534 74.7282C24.0085 65.6612 30.0867 58.6865 30.5933 53.7047C31.4037 46.1322 31.4037 35.471 30.5933 22.1195L30.492 21.0235L69.899 21.0235L70.2059 59.7826C70.3042 65.6612 67.8729 71.3405 63.7195 75.5253L36.7728 102.129C32.7206 106.014 27.3516 108.107 22.0838 108.107M12.8652 103.623C20.159 107.708 29.2763 106.612 35.2532 100.634L62.1999 74.0307C66.0494 70.2445 68.1768 65.0634 68.0755 59.7826L67.7716 23.0163L32.518 23.0163C33.2271 36.0688 33.2271 46.4311 32.4167 53.9039C31.8089 59.384 26.0346 66.3586 14.5873 75.1268C19.4499 78.0163 22.5903 83.2971 22.5903 88.9764C22.6916 95.2536 18.7408 101.132 12.8652 103.623M8.30653 102.826L9.52217 101.232L8.30653 102.826M8.00262 102.627C7.90131 102.527 7.90131 102.527 7.80001 102.427C7.4961 102.228 7.4961 102.228 7.4961 102.129L8.91435 100.734C9.11695 100.933 9.21826 101.033 9.21826 101.033L8.00262 102.627M10.6365 78.0163L9.42086 76.4221L11.2443 77.5181M11.5482 77.4184L10.3326 75.8242L11.8521 77.2192M12.5613 76.6213L11.3456 75.0271L12.5613 76.6213"/>
	<path fill="white" d="M12.8649 75.3262C18.0312 77.7175 21.6779 82.8986 21.6779 88.9766C21.6779 95.8516 17.0182 101.63 10.6364 103.424C9.82598 102.826 9.01559 102.129 8.3065 101.431C2.02598 95.2537 1.92468 85.1903 8.2052 78.9131C8.81299 78.3153 9.42078 77.8171 10.1299 77.3189C10.9403 76.7211 11.7506 76.1233 12.561 75.5254"/>
	<path fill="#2D1A0B" d="M10.4337 104.52C9.11681 103.623 8.30642 102.926 7.49604 102.129C4.25448 98.9403 2.4311 94.7555 2.4311 90.1722C2.4311 85.6885 4.15318 81.4041 7.39474 78.2157C8.00253 77.6179 8.71162 77.02 9.42071 76.5219C10.2311 75.924 11.0415 75.3262 11.8519 74.7284L13.2701 74.3298C18.9428 77.02 22.6908 82.6994 22.6908 88.8769C22.6908 95.9512 17.8285 102.328 10.9402 104.321M12.9662 76.4222C12.2571 77.02 11.4467 77.5182 10.6363 78.116C10.0285 78.6142 9.42071 79.1124 8.81292 79.6106C5.97655 82.4005 4.35578 86.1867 4.35578 90.1722C4.35578 94.1577 5.97655 97.8443 8.81292 100.734C9.42071 101.332 10.0285 101.83 10.6363 102.328C16.4103 100.435 20.4623 94.9548 20.4623 88.9766C20.6649 83.6958 17.6259 78.9132 12.9662 76.4222"/>
	<path fill="#009042" d="M59.1584 77.7174C59.3584 77.8174 59.2584 77.7174 59.1584 77.7174"/>
	<path fill="#009042" d="M58.8545 77.6177C59.0545 77.6177 58.9545 77.6177 58.8545 77.6177"/>
	<path fill="#009042" d="M58.5506 77.4185C58.7506 77.5185 58.5506 77.5185 58.5506 77.4185"/>
	<path fill="#009042" d="M58.2467 77.3188C58.4467 77.3188 58.3467 77.3188 58.2467 77.3188"/>
	<path fill="#009042" d="M64.5247 48.6232C64.4247 48.6232 64.4247 48.6232 64.5247 48.6232"/>
	<path fill="#009042" d="M64.7273 48.6232C64.6273 48.6232 64.7273 48.6232 64.7273 48.6232"/>
	<path fill="#009042" d=""/>
	<path fill="#009042" d="M65.4364 48.6232C65.3364 48.6232 65.2364 48.6232 65.2364 48.6232"/>
	<path fill="white" d="M68.8831 49.0219C67.8701 48.8226 66.7558 48.6234 65.6415 48.6234C65.135 48.6234 64.6285 48.6234 64.2233 48.723C56.5246 49.4205 50.4467 55.9965 50.4467 63.868C50.4467 69.1488 53.0805 73.7321 57.1324 76.5219C57.9428 77.0201 58.7532 77.5182 59.5636 77.9169L62.8051 74.6288C66.7558 70.6432 68.9844 65.2628 68.9844 59.6832L68.8831 49.0219"/>
	<path fill="#2D1A0B" d="M59.8705 79.0943C58.3493 78.3968 57.4374 77.8987 56.6269 77.4005L55.6138 76.7029C51.7639 73.5145 49.535 68.8316 49.535 63.8496C49.535 55.779 55.4112 49.0037 63.3136 47.808C65.9478 47.5091 67.6701 47.6087 69.2911 48.0073L70.2061 59.6649C70.3042 65.5435 67.974 71.1232 63.7189 75.3081L59.8705 79.0943M58.4506 76.2048C58.7545 76.4041 59.0584 76.5036 59.3624 76.7029L62.0978 73.913C65.9478 70.1268 67.974 65.0453 67.974 59.6649L67.8727 49.8008C66.7583 49.6015 65.6438 49.6015 64.5294 49.7011C57.0322 50.3986 51.4599 56.4765 51.4599 63.8496C51.4599 68.5327 53.7902 73.0163 57.7414 75.6069"/>
	<path fill="#4C3030" d="M27.5532 19.1304C25.7299 24.4112 24.1091 27.3007 21.9818 28.3967C24.7169 27.6993 26.4389 24.4112 27.5532 19.1304"/>
	<path fill="#2D1A0B" d="M22.1844 29.5924L21.374 28.0978C23.7039 26.9022 25.2234 24.0127 26.2363 19.4293L28.161 18.8315C26.9454 24.8098 25.1221 28.0978 22.5896 29.3931"/>
	<path fill="#4C3030" d="M26.8441 19.23C27.8571 23.6141 27.8571 26.8025 26.8441 28.9945C28.5662 27.0018 28.5662 23.5145 27.5532 19.0308"/>
	<path fill="#2D1A0B" d="M27.7558 29.8913L26.135 29.1938C27.2493 26.6032 27.2493 23.4148 26.2363 19.23L27.8571 18.3333C28.9714 23.5145 28.9714 26.9021 27.8571 29.3931"/>
	<path fill="white" d="M21.9818 32.183C21.9818 33.4782 22.6909 34.6739 23.8052 35.3714C24.9195 36.0688 26.3376 36.0688 27.5532 35.3714C28.6675 34.6739 29.3766 33.4782 29.3766 32.183C29.3766 30.8877 28.6675 29.692 27.5532 28.9946C26.4389 28.2971 25.0208 28.2971 23.8052 28.9946C22.6909 29.692 21.9818 30.8877 21.9818 32.183"/>
	<path fill="#2D1A0B" d="M25.7299 36.8659C24.9195 36.8659 24.1091 36.6666 23.4 36.2681C21.9818 35.471 21.0701 33.8768 21.0701 32.2826C21.0701 30.5887 21.9818 29.0942 23.4 28.2971C24.8182 27.5 26.6415 27.5 28.161 28.2971C29.5792 29.0942 30.4909 30.6884 30.4909 32.2826C30.4909 33.9764 29.5792 35.471 28.161 36.2681C27.3506 36.6666 26.5402 36.8659 25.7299 36.8659M25.7299 29.4927C25.2234 29.4927 24.8182 29.5924 24.413 29.8913C23.6026 30.3895 23.0961 31.2862 23.0961 32.183C23.0961 33.0797 23.6026 33.9764 24.413 34.4746C25.2234 34.9728 26.2363 34.9728 27.148 34.4746C27.9584 33.9764 28.4649 33.0797 28.4649 32.183C28.4649 31.2862 27.9584 30.3895 27.148 29.8913C26.6415 29.692 26.135 29.4927 25.7299 29.4927"/>
	<path fill="white" d="M14.9922 30.6884C14.9922 32.4819 16.0052 34.1757 17.626 35.0725C19.2468 35.9692 21.1715 35.9692 22.7922 35.0725C24.413 34.1757 25.426 32.4819 25.426 30.6884C25.426 28.8949 24.413 27.2011 22.7922 26.3044C21.1715 25.4076 19.2468 25.4076 17.626 26.3044C15.9039 27.2011 14.9922 28.8949 14.9922 30.6884"/>
	<path fill="#2D1A0B" d="M20.1585 36.866C19.0442 36.866 18.0312 36.567 17.0182 36.0688C15.0935 34.9728 13.8779 32.9801 13.8779 30.7881C13.8779 28.596 15.0935 26.6033 17.0182 25.5073C18.9429 24.4112 21.2728 24.4112 23.1974 25.5073C25.1222 26.6033 26.3377 28.596 26.3377 30.7881C26.3377 32.9801 25.1222 34.9728 23.1974 36.0688C22.2857 36.567 21.1715 36.866 20.1585 36.866M20.1585 26.6033C19.4494 26.6033 18.7403 26.8025 18.0312 27.2011C16.7143 27.8986 15.9039 29.2935 15.9039 30.7881C15.9039 32.2826 16.7143 33.5779 18.0312 34.375C19.3481 35.0724 20.9689 35.0724 22.1844 34.375C23.5013 33.6776 24.3117 32.2826 24.3117 30.7881C24.3117 29.2935 23.5013 27.9982 22.1844 27.2011C21.5766 26.8025 20.8676 26.6033 20.1585 26.6033"/>
	<path fill="#4C3030" d="M17.5247 70.942C17.5247 71.2409 17.5247 71.4402 17.9299 71.5398C18.1325 71.6395 18.4363 71.6395 18.639 71.5398C18.8415 71.4402 19.0441 71.1413 19.0441 70.942C19.0441 70.7427 18.9428 70.4438 18.639 70.2694C18.4363 70.2694 18.1325 70.2694 17.9299 70.2694C17.7273 70.4438 17.5247 70.6431 17.5247 70.942"/>
	<path fill="white" d="M34.6442 2.9892L65.8443 2.9892C72.3273 2.9892 75.4677 6.17761 75.4677 12.4548C75.4677 19.2301 72.2261 22.3189 65.8443 22.3189L34.6442 22.3189C28.1611 22.3189 25.0209 19.1305 25.0209 12.8533C25.0209 6.17761 28.1611 2.9892 34.6442 2.9892"/>
	<path fill="#2D1A0B" d="M65.8443 23.3154L34.6443 23.3154C27.6546 23.3154 24.0079 19.7284 24.0079 12.8534C24.0079 5.57986 27.6546 1.9929 34.6443 1.9929L65.8443 1.9929C72.8339 1.9929 76.4806 5.57986 76.4806 12.4549C76.4806 19.7284 72.7326 23.3154 65.8443 23.3154M34.6443 3.98565C28.7689 3.98565 26.0339 6.67587 26.0339 12.4549C26.0339 18.6324 28.7689 21.3226 34.6443 21.3226L65.8443 21.3226C71.7196 21.3226 74.4547 18.6324 74.4547 12.8534C74.4547 6.67587 71.7196 3.98565 65.8443 3.98565L34.6443 3.98565"/>
</svg>
