<?xml version="1.0" encoding="utf-8" ?>
<svg xmlns="http://www.w3.org/2000/svg" xmlns:xlink="http://www.w3.org/1999/xlink" width="98" height="118">
	<path fill="white" d="M49.6201 118C41.0192 118 33.329 112.175 31.0017 104.041L13.0917 104.041C6.21095 104.041 0.544494 98.8187 0 92.2911C-0.163814 89.8809 0.443307 87.5711 1.55636 85.4621C2.97298 82.8511 4.18722 80.24 5.40146 77.7294C8.84181 69.8962 10.9667 62.1634 11.7762 54.6315C11.8774 53.9285 11.8774 53.2255 11.9786 52.5226L12.181 49.7106C12.181 43.183 14.0023 36.7557 17.3415 31.1319C16.532 29.5251 16.1273 27.8179 16.1273 26.0102L16.1273 11.1472C16.1273 7.23064 18.151 3.71574 21.4902 1.70723C23.2103 0.602553 25.3353 0 27.359 0C29.0792 0 30.7993 0.401702 32.4183 1.20511L42.7394 6.32681C44.6619 5.32255 46.888 4.82043 49.1141 4.82043C51.3403 4.82043 53.5664 5.32255 55.4889 6.32681L65.81 1.20511C67.3278 0.401702 69.0479 0 70.7681 0C72.893 0 74.9168 0.602553 76.6369 1.60681C79.9761 3.61532 81.8987 7.13021 81.8987 11.0468L81.8987 25.9098C81.8987 27.7174 81.4939 29.4247 80.6844 31.0315C84.0236 36.6553 85.8449 43.0826 85.8449 49.7106L86.0473 52.5226C86.1485 53.2255 86.1485 53.9285 86.2497 54.6315C87.0592 62.1634 89.1841 69.8962 92.6245 77.7294C93.7375 80.3404 95.0529 82.9515 96.4696 85.5626C97.5826 87.6715 98 89.9813 98 92.3915C97.5826 99.0196 91.815 104.141 84.9343 104.141L68.2384 104.141C65.9111 112.175 58.1198 118 49.6201 118"/>
	<path fill="#F43B3B" d="M65.7176 98.7183C65.7176 107.703 58.3805 114.987 49.3297 114.987C40.279 114.987 32.9419 107.703 32.9419 98.7183C32.9419 89.7333 40.279 82.4494 49.3297 82.4494C58.3805 82.4494 65.7176 89.7333 65.7176 98.7183"/>
	<path fill="#2D1A0B" d="M49.3297 115.992C39.7196 115.992 31.9303 108.259 31.9303 98.7183C31.9303 89.1779 39.7196 81.4451 49.3297 81.4451C58.9399 81.4451 66.7292 89.1779 66.7292 98.7183C66.7292 108.259 58.9399 115.992 49.3297 115.992M49.3297 83.4536C40.8323 83.4536 33.9535 90.2825 33.9535 98.7183C33.9535 107.154 40.8323 113.983 49.3297 113.983C57.8271 113.983 64.706 107.154 64.706 98.7183C64.706 90.2825 57.8271 83.4536 49.3297 83.4536"/>
	<path fill="#FCD11A" d="M93.4353 86.8178C92.0191 84.2068 90.704 81.4953 89.4901 78.7838C86.1518 71.1515 83.8252 63.1174 82.9147 54.8825C82.8136 54.1796 82.8136 53.4766 82.7124 52.6732L82.5101 49.7608C82.5101 31.1821 67.3362 16.2187 48.7658 16.2187C30.0083 16.2187 14.9356 31.2825 14.9356 49.7608L14.7332 52.6732C14.6321 53.3761 14.6321 54.0791 14.5309 54.8825C13.6205 63.2178 11.2938 71.1515 7.95555 78.7838C6.74164 81.4953 5.42656 84.2068 4.01033 86.8178C3.20105 88.3242 2.8823 90.1319 2.8823 92.04C3.20105 97.1617 7.75323 100.978 12.9124 100.978L84.6344 100.978C89.7936 100.978 94.3457 97.1617 94.6492 92.04C94.6492 90.1319 94.2446 88.3242 93.4353 86.8178"/>
	<path fill="#2D1A0B" d="M84.5586 102.032L12.8145 102.032C7.04668 102.032 2.18954 97.7141 1.7696 92.0903C1.7696 90.0817 2.08835 88.0732 2.99906 86.366C4.41573 83.7549 5.73121 81.0434 6.8443 78.4324C10.386 70.3983 12.511 62.4647 13.3205 54.732C13.4217 54.029 13.4217 53.326 13.5229 52.623L13.7253 49.7107C13.7253 30.7303 29.3086 15.1643 48.5493 15.1643C67.761 15.1643 83.3443 30.6298 83.3443 49.7107L83.5467 52.5226C83.6479 53.2256 83.6479 53.9286 83.7491 54.6315C84.5586 62.3643 86.7848 70.2979 90.2253 78.2315C91.3384 80.8426 92.6538 83.5541 94.0705 86.1652C94.9812 87.8724 95.4872 89.8809 95.3291 91.8894C95.1836 97.6137 90.3265 102.032 84.5586 102.032M48.5493 17.2732C30.5229 17.2732 15.8503 31.8349 15.8503 49.8111L15.6479 52.8239C15.5467 53.5269 15.5467 54.3303 15.4455 55.0332C14.636 62.9669 12.4098 71.1013 8.76692 79.2358C7.55264 81.9473 6.23716 84.6588 4.82049 87.2698C4.01097 88.6758 3.7074 90.2826 3.80859 91.8894C4.11216 96.4086 8.05859 99.9234 12.8145 99.9234L84.5586 99.9234C89.3146 99.9234 93.261 96.4086 93.5646 91.8894C93.6657 90.2826 93.3622 88.6758 92.5527 87.2698C91.136 84.5583 89.8205 81.8469 88.6062 79.2358C85.0646 71.0009 82.7372 62.8664 81.9276 55.0332C81.8265 54.3303 81.8265 53.5269 81.7253 52.8239L81.5229 49.9115C81.5229 31.8349 66.7491 17.2732 48.5493 17.2732"/>
	<path fill="#C1001F" d="M74.7207 4.31284C72.2929 2.80645 69.3592 2.70603 66.8302 3.91113L52.9714 10.7401L53.7807 26.7078L66.8302 33.1349C69.3592 34.4404 72.394 34.2397 74.7207 32.7332C77.1485 31.2269 78.5647 28.7163 78.5647 25.9044L78.5647 11.0413C78.5647 8.32986 77.1485 5.81922 74.7207 4.31284"/>
	<path fill="#2D1A0B" d="M70.3708 35.0485C68.9546 35.0485 67.5384 34.7473 66.2233 34.0443L52.6679 27.3158L51.7575 10.143L66.2233 3.01279C69.0558 1.60684 72.394 1.70726 75.1253 3.4145C77.8566 5.12173 79.4752 7.93365 79.4752 11.1473L79.4752 26.0102C79.4752 29.2239 77.8566 32.0358 75.1253 33.743C73.8103 34.6468 72.0906 35.0485 70.3708 35.0485M54.6911 26.1107L67.2349 32.3371C69.4604 33.4417 72.0906 33.3413 74.2149 32.0358C76.3393 30.7302 77.6543 28.5209 77.6543 26.0102L77.6543 11.1473C77.6543 8.63662 76.3393 6.42726 74.3161 5.12173C72.1917 3.8162 69.5616 3.71577 67.3361 4.82045L54.0842 11.3481L54.6911 26.1107"/>
	<path fill="#E50027" d="M30.615 3.91661C28.086 2.61108 25.0512 2.81193 22.7246 4.21788C20.2967 5.72427 18.8805 8.23491 18.8805 11.0468L18.8805 25.9097C18.8805 28.7218 20.2967 31.3328 22.7246 32.7388C25.1524 34.2451 28.086 34.3456 30.615 33.0401L43.6646 26.6127L44.4738 10.6451L30.615 3.91661"/>
	<path fill="#2D1A0B" d="M26.9734 35.0485C25.2537 35.0485 23.6352 34.5463 22.1178 33.7429C19.3864 32.0357 17.7679 29.2238 17.7679 26.0102L17.7679 11.1472C17.7679 7.93356 19.3864 5.12165 22.1178 3.41441C24.8491 1.8076 28.1873 1.60675 31.0198 3.01271L45.4856 10.1429L44.5752 27.3157L31.0198 34.0442C29.7047 34.7472 28.2885 35.0485 26.9734 35.0485M26.9734 4.11739C25.6583 4.11739 24.3433 4.51909 23.2305 5.12165C21.1062 6.42718 19.7911 8.63654 19.7911 11.1472L19.7911 26.0102C19.7911 28.5208 21.1062 30.7302 23.1294 32.0357C25.2537 33.3412 27.8838 33.4416 30.1094 32.337L42.6531 26.1106L43.4624 11.348L30.2105 4.82037C29.0978 4.31824 27.985 4.11739 26.9734 4.11739"/>
	<path fill="#FD003A" d="M48.6214 7.83325C42.6523 7.83325 37.7966 12.6537 37.7966 18.5788C37.7966 24.5039 42.6523 29.3244 48.6214 29.3244C54.5891 29.3244 59.4463 24.5039 59.4463 18.5788C59.5459 12.6537 54.6902 7.83325 48.6214 7.83325"/>
	<path fill="#2D1A0B" d="M48.6214 30.3285C42.046 30.3285 36.7857 25.1063 36.7857 18.5787C36.7857 12.051 42.1472 6.8289 48.6214 6.8289C55.0956 6.8289 60.457 12.051 60.457 18.5787C60.457 25.1063 55.1967 30.3285 48.6214 30.3285M48.6214 8.83741C43.1588 8.83741 38.8089 13.2561 38.8089 18.5787C38.8089 23.9012 43.2599 28.32 48.6214 28.32C53.9828 28.32 58.4338 23.9012 58.4338 18.5787C58.535 13.2561 54.084 8.83741 48.6214 8.83741"/>
</svg>
