<?xml version="1.0" encoding="utf-8" ?>
<svg xmlns="http://www.w3.org/2000/svg" xmlns:xlink="http://www.w3.org/1999/xlink" width="76" height="106">
	<path fill="white" d="M71.2938 82.8094L65.5863 74.0507L72.996 74.0507L67.9895 66.6854L62.2819 58.2254L67.2885 58.2254L62.2819 50.8601L57.0751 43.2958L61.7813 43.2958L57.0751 35.9305L47.0619 20.8019C47.7628 19.6075 47.9631 18.2141 47.5626 16.8207L47.3623 15.1286L48.5639 13.9343L49.2648 12.7399C49.7655 11.8441 49.9657 10.8488 49.9657 9.95305C49.9657 7.56432 48.2635 5.27512 44.9592 4.97653L43.7576 4.77746L43.0567 3.38404L42.3557 2.18967C41.054 0.398122 39.6522 0 38.2503 0C35.8472 0 33.7444 1.89108 33.2437 3.98122L31.6416 4.67793C30.7404 4.67793 29.2385 5.17559 28.0369 6.36995L27.336 7.56432C26.4348 9.4554 26.635 11.3465 27.8366 13.0385C28.0369 13.5362 28.3373 13.7352 28.7378 13.9343L29.4387 16.7211C29.4387 18.6122 29.639 19.4085 29.9394 20.1052L19.5257 35.9305L14.5191 43.2958L19.2253 43.2958L14.0184 50.8601L9.01186 58.2254L14.2187 58.2254L8.31094 66.6854L3.30435 74.0507L10.4137 74.0507L4.70619 82.8094L0 90.1746L8.81159 90.1746L30.6403 90.1746L30.6403 101.322L30.6403 106L35.3465 106L40.8538 106L45.5599 106L45.5599 101.322L45.5599 90.1746L67.1884 90.1746L76 90.1746L71.2938 82.8094"/>
	<path fill="#994C0F" d="M35.3465 102.218L40.9539 102.218L40.9539 86.0939L35.3465 86.0939L35.3465 102.218"/>
	<path fill="#2C180C" d="M41.9552 103.213L34.3452 103.213L34.3452 85.0986L41.9552 85.0986L41.9552 103.213M36.3478 101.223L39.9526 101.223L39.9526 87.0892L36.3478 87.0892L36.3478 101.223"/>
	<path fill="#0CA656" d="M67.689 86.4921L57.1753 70.4678L64.3848 70.4678L53.4704 54.4434L58.7774 54.4434L48.3637 39.5137L53.2702 39.5137L38.1502 16.6217L22.8301 39.5137L27.9367 39.5137L17.5231 54.4434L22.8301 54.4434L11.8156 70.4678L19.0251 70.4678L8.31095 86.4921"/>
	<path fill="#2B170C" d="M69.5415 87.4875L6.4585 87.4875L17.1726 71.4631L9.96311 71.4631L20.9776 55.4387L15.6706 55.4387L26.0843 40.5091L20.9776 40.5091L38.2003 14.8302L55.1225 40.5091L50.3162 40.5091L60.7299 55.4387L55.4229 55.4387L66.3373 71.4631L59.1278 71.4631L69.5415 87.4875M10.2635 85.4969L65.8366 85.4969L55.3228 69.4725L62.5323 69.4725L51.6179 53.448L56.9249 53.448L46.5112 38.5185L51.5178 38.5185L38.2003 18.4133L24.7826 38.5185L29.8893 38.5185L19.4756 53.448L24.7826 53.448L13.7681 69.4725L20.9776 69.4725L10.2635 85.4969"/>
	<path fill="#FCD11A" d="M38.8511 5.98287L40.6535 9.86456L44.7589 10.5613C44.7589 10.5613 45.4598 10.5613 45.4598 10.7603C45.4598 10.9594 45.2596 11.4571 45.2596 11.4571L42.3557 14.3434L43.0567 18.8223C43.0567 18.8223 43.2569 19.519 42.8564 19.519C42.6561 19.7181 42.1555 19.3199 42.1555 19.3199L38.4506 17.5284L34.7457 19.3199C34.7457 19.3199 34.245 19.519 34.0448 19.519C33.8445 19.519 33.8445 18.8223 33.8445 18.8223L34.5454 14.3434L31.6416 11.4571C31.6416 11.4571 31.141 11.258 31.3454 10.7603C31.6416 10.5613 32.1423 10.5613 32.1423 10.5613L36.2477 9.86456L38.05 5.98287C38.5507 5.28616 38.8511 5.98287 38.8511 5.98287"/>
	<path fill="#2D1A0B" d="M42.7562 20.6028C42.4558 20.6028 42.0554 20.5032 41.6548 20.2046L38.4506 18.7117L35.1462 20.3042C34.6456 20.5032 34.245 20.6028 34.0448 20.6028C33.7444 20.6028 32.8432 20.5032 32.8432 18.9108L33.444 14.7305L31.0408 12.3417C30.8406 12.2422 30.5402 11.9436 30.3801 11.5455C30.3801 11.1474 30.3801 10.7493 30.6403 10.2516C31.2411 9.65441 31.8419 9.55488 32.1423 9.55488L35.6469 8.9577L37.3491 5.3746C37.8498 4.6452 38.4506 4.6452 38.751 4.6452C39.3518 4.77742 39.7523 5.17554 39.8524 5.57366L41.4546 8.9577L44.9592 9.55488C46.4612 9.55488 46.5612 10.4507 46.5612 10.7493C46.5612 11.0478 46.4612 11.3464 46.2608 11.8441L43.4571 14.7305L44.0579 18.6122C44.1581 18.9108 44.2583 19.5079 43.8577 20.0056C43.6574 20.2046 43.4571 20.4037 43.257 20.4037C43.0566 20.5032 42.8563 20.6028 42.7562 20.6028M33.0435 11.446L35.6469 14.0338L35.0461 18.1145L38.5507 16.4225L42.0554 18.1145L41.4546 14.0338L44.0579 11.446L40.1528 10.7493L38.6508 7.46474L37.1489 10.7493L33.0435 11.446"/>
	<path fill="white" d="M55.7733 75.3446C55.7733 76.2791 55.0112 77.0366 54.0711 77.0366C53.131 77.0366 52.3689 76.2791 52.3689 75.3446C52.3689 74.4101 53.131 73.6526 54.0711 73.6526C55.0112 73.6526 55.7733 74.4101 55.7733 75.3446"/>
	<path fill="white" d="M34.3452 30.4563C34.3452 31.3908 33.5831 32.1483 32.643 32.1483C31.7029 32.1483 30.9408 31.3908 30.9408 30.4563C30.9408 29.5218 31.7029 28.7643 32.643 28.7643C33.5831 28.7643 34.3452 29.5218 34.3452 30.4563"/>
	<path fill="white" d="M43.1567 61.7089C43.1567 62.6434 42.3946 63.4009 41.4545 63.4009C40.5144 63.4009 39.7523 62.6434 39.7523 61.7089C39.7523 60.7744 40.5144 60.0169 41.4545 60.0169C42.3946 60.0169 43.1567 60.7744 43.1567 61.7089"/>
	<path fill="#51B4E5" d="M47.8629 48.8695C47.8629 49.804 47.1008 50.5615 46.1607 50.5615C45.2206 50.5615 44.4585 49.804 44.4585 48.8695C44.4585 47.935 45.2206 47.1775 46.1607 47.1775C47.1008 47.1775 47.8629 47.935 47.8629 48.8695"/>
	<path fill="#51B4E5" d="M31.5415 68.2779C31.5415 69.2124 30.7794 69.9699 29.8393 69.9699C28.8992 69.9699 28.1371 69.2124 28.1371 68.2779C28.1371 67.3434 28.8992 66.5859 29.8393 66.5859C30.7794 66.5859 31.5415 67.3434 31.5415 68.2779"/>
	<path fill="#E87F4B" d="M43.6574 34.5371C43.6574 35.4716 42.8953 36.2291 41.9552 36.2291C41.0151 36.2291 40.253 35.4716 40.253 34.5371C40.253 33.6026 41.0151 32.8451 41.9552 32.8451C42.8953 32.8451 43.6574 33.6026 43.6574 34.5371"/>
	<path fill="#E87F4B" d="M30.8405 48.8695C30.8405 49.804 30.0784 50.5615 29.1383 50.5615C28.1982 50.5615 27.4361 49.804 27.4361 48.8695C27.4361 47.935 28.1982 47.1775 29.1383 47.1775C30.0784 47.1775 30.8405 47.935 30.8405 48.8695"/>
	<path fill="#E87F4B" d="M29.8392 79.8235C29.8392 80.758 29.0771 81.5155 28.137 81.5155C27.1969 81.5155 26.4348 80.758 26.4348 79.8235C26.4348 78.889 27.1969 78.1315 28.137 78.1315C29.0771 78.1315 29.8392 78.889 29.8392 79.8235"/>
</svg>
