<?xml version="1.0" encoding="utf-8" ?>
<svg xmlns="http://www.w3.org/2000/svg" xmlns:xlink="http://www.w3.org/1999/xlink" width="76" height="96">
	<path fill="white" d="M37.745 0C29.9919 0 23.9732 6.23246 23.2591 14.5759C20.8107 15.2796 19.1785 17.6921 19.1785 20.3058L19.1785 28.8503C11.4255 33.3738 5.61074 40.8126 3.16242 49.3571C1.42819 50.5634 0 52.4733 0 54.5843L0 63.1288C0 65.0387 0.918121 66.9487 2.44832 67.8534C6.32483 84.0377 20.8107 95.799 38.255 96C55.4953 96 70.4913 83.8366 74.0617 67.3508C75.2859 66.1445 76 64.7372 76 63.0283L76 54.4838C76 52.5738 75.0819 50.8649 73.5517 49.7592C70.8993 40.2094 64.3705 32.3686 55.3933 27.845L55.3933 20.4063C55.3933 18.2953 54.1691 16.3853 52.5369 15.3801C51.7208 6.63455 45.498 0 37.745 0"/>
	<path fill="#FCD11A" d="M6.4268 59.7109C6.4268 42.3204 20.7087 28.247 38.357 28.247C56.0053 28.247 70.0832 42.3204 70.0832 59.7109C70.0832 77.1015 55.8013 91.1748 38.357 91.1748C20.5047 90.9737 6.4268 76.9005 6.4268 59.7109"/>
	<path fill="#2D1A0B" d="M38.357 92.1801C20.1986 91.9791 5.4067 77.4032 5.4067 59.711C5.4067 41.8178 20.1986 27.2419 38.357 27.2419C56.4134 27.2419 71.1033 41.8178 71.1033 59.711C71.1033 77.6042 56.4134 92.1801 38.357 92.1801M38.357 29.2524C21.3208 29.2524 7.44697 42.9236 7.44697 59.711C7.44697 76.2974 21.3208 89.9686 38.357 90.1696C55.2913 90.1696 69.0631 76.4984 69.0631 59.711C69.0631 42.9236 55.2913 29.2524 38.357 29.2524"/>
	<path fill="#2D1A0B" d="M28.1048 21.7131L27.9007 16.4859C27.9007 9.85133 32.4913 4.6241 38 4.6241C43.5089 4.6241 48.0994 10.0524 48.0994 16.4859L48.0994 21.7131L45.4471 22.0147L45.4471 16.7875C45.549 11.4597 42.0807 6.93614 37.7961 6.93614C33.5115 6.93614 29.941 11.2586 29.941 16.4859L29.941 21.4115L28.1048 21.7131"/>
	<path fill="#FCD11A" d="M49.2725 30.6597L25.2994 30.6597C24.5853 30.6597 24.0752 29.956 24.0752 29.4534L24.0752 20.0042C24.0752 19.3005 24.7893 18.7979 25.2994 18.7979L49.2725 18.7979C49.9866 18.7979 50.4967 19.5016 50.4967 20.0042L50.4967 29.4534C50.4967 30.1571 49.7826 30.6597 49.2725 30.6597"/>
	<path fill="#2D1A0B" d="M49.2724 31.665L25.2993 31.665C23.9731 31.665 23.055 30.4587 23.055 29.4534L23.055 20.0042C23.055 18.6974 24.2792 17.7927 25.2993 17.7927L49.2724 17.7927C50.5986 17.7927 51.5167 18.9989 51.5167 20.0042L51.5167 29.4534C51.5167 30.7602 50.2926 31.665 49.2724 31.665M25.2993 19.8031C25.1973 19.8031 25.0953 19.9036 25.0953 20.0042L25.0953 29.4534C25.0953 29.554 25.1973 29.6544 25.2993 29.6544L49.2724 29.6544C49.3745 29.6544 49.4765 29.554 49.4765 29.4534L49.4765 20.0042C49.4765 19.9036 49.3745 19.8031 49.2724 19.8031L25.2993 19.8031"/>
	<path fill="#994C0F" d="M69.7936 64.5361L6.44329 64.5361C5.72919 64.5361 5.0151 63.8324 5.0151 63.1288L5.0151 54.3832C5.0151 53.6796 5.72919 52.9759 6.44329 52.9759L69.7936 52.9759C70.5077 52.9759 71.2305 53.6796 71.2305 54.3832L71.2305 63.1288C71.3238 63.8324 70.5077 64.5361 69.7936 64.5361"/>
	<path fill="#2C180C" d="M69.7923 65.5414L6.42738 65.5414C5.10091 65.5414 3.9785 64.4355 3.9785 63.1287L3.9785 54.3832C3.9785 53.0764 5.10091 51.9706 6.42738 51.9706L69.7923 51.9706C71.1187 51.9706 72.2671 53.0764 72.2671 54.3832L72.2671 63.0283C72.3432 63.5308 72.1391 64.134 71.731 64.6367C71.2208 65.2397 70.5065 65.5414 69.7923 65.5414M6.42738 53.9811C6.32535 53.9811 6.01924 54.2827 6.01924 54.3832L6.01924 63.1287C6.01924 63.2292 6.32535 63.5308 6.42738 63.5308L69.7923 63.5308C69.8943 63.5308 70.2004 63.3298 70.2004 63.2292L70.2004 54.3832C70.2004 54.2827 69.8943 53.9811 69.7923 53.9811L6.42738 53.9811"/>
	<path fill="white" d="M26.2175 63.3298C22.341 63.3298 21.8309 60.7162 21.4229 58.8062C20.9128 56.8963 20.7088 55.9916 18.9745 55.9916C18.0564 55.9916 17.2403 56.8963 16.5262 58.8062C15.6081 60.7162 14.3839 63.1288 11.7316 63.1288C7.14099 62.9277 5.7128 56.8963 5.7128 56.6952C5.7128 56.1926 5.91683 55.9916 6.22287 55.7905C6.73293 55.7905 6.93696 55.9916 7.14099 56.2932C7.14099 56.2932 8.36515 61.5204 11.7316 61.5204C13.4658 61.5204 14.1799 60.3141 15.098 58.2031C16.0162 56.4942 17.0363 54.4728 18.9745 54.5843C21.6269 54.5843 22.341 56.6952 22.647 58.6052C23.1571 60.5151 23.5651 61.9225 26.0135 61.9225C28.8698 61.9225 29.1759 60.0125 29.686 58.1026C30.196 56.3937 30.4 54.4728 32.5423 54.4728C35.7047 54.2827 36.9289 56.8963 37.847 58.8062C38.5611 60.7162 39.2752 61.6209 40.7034 61.9225C42.1316 61.9225 42.6417 61.0178 43.1517 59.1078C43.8658 57.1979 44.5799 54.7853 47.2323 55.2879C50.0886 55.7905 50.5987 57.9015 50.9047 59.6104C51.4148 61.3193 51.6188 62.023 52.639 62.023C53.8631 62.023 54.3732 61.1183 55.0873 59.4094C55.5974 58.0021 56.3115 56.2932 57.9437 55.7905C59.8819 55.2879 60.8 57.1979 61.8202 58.9013C62.7383 60.8167 63.7584 62.023 64.9826 61.7214C67.839 61.5204 68.349 56.1926 68.349 56.1926C68.349 55.69 68.8591 55.489 69.0631 55.489C69.5732 55.489 69.7772 55.9916 69.7772 56.1926C69.7772 56.3937 69.0631 62.4251 64.9826 62.8272C62.5343 63.0282 61.3101 60.9172 60.392 59.2083C59.4739 57.4994 58.6578 56.5947 57.9437 56.7958C57.0256 56.9968 56.5155 58.2031 56.0054 59.4094C55.2913 61.1183 54.5772 63.2293 52.1289 63.0282C49.9866 62.8272 49.4766 60.9172 49.2725 59.4094C48.7625 57.4994 48.5584 56.5947 46.8242 56.2932C45.396 56.0921 44.886 56.9968 44.1719 59.1078C43.6618 61.0178 42.7437 63.1288 40.2954 62.9277C37.847 62.9277 36.9289 60.8167 36.2148 59.1078C35.2967 56.9968 34.4806 55.489 32.3383 55.489C31.4202 55.489 31.1141 56.1926 30.9101 58.1026C31.1141 60.5151 30.4 63.3298 26.2175 63.3298"/>
</svg>
