<?xml version="1.0" encoding="utf-8" ?>
<svg xmlns="http://www.w3.org/2000/svg" xmlns:xlink="http://www.w3.org/1999/xlink" width="92" height="116">
	<path fill="white" d="M28.8132 116C28.0044 116 27.0945 116 26.2857 115.7L24.9714 115.401C21.9385 114.701 19.411 112.903 17.7934 110.405C16.1758 107.807 15.6703 104.81 16.2769 101.812L18.9055 90.422C18.8044 90.3221 21.3319 80.031 21.3319 80.031L24.9714 64.1447L12.233 64.1447C5.45934 64.1447 0 58.7494 0 52.0551L0 50.4565C0 43.7623 5.45934 38.3669 12.233 38.3669L27.1956 38.3669C23.9604 34.2705 22.0396 29.1748 22.0396 23.6796C22.0396 10.5909 32.756 0 46 0C59.244 0 69.9604 10.5909 69.9604 23.6796C69.9604 29.0749 68.1407 34.1705 64.8044 38.3669L79.767 38.3669C86.5407 38.3669 92 43.7623 92 50.4565L92 52.0551C92 58.7494 86.5407 64.1447 79.767 64.1447L67.0286 64.1447L72.2857 79.8312C72.2857 79.8312 75.7231 89.8226 75.622 89.9225L78.6549 98.9147C79.6659 101.812 79.3626 104.91 78.0484 107.607C76.7341 110.305 74.3077 112.303 71.3758 113.302L70.0615 113.702C68.8484 114.102 67.6352 114.301 66.422 114.301C61.4681 114.301 57.0198 111.204 55.5033 106.508L46.5055 79.5314L40.1363 107.208C38.9231 112.303 34.2725 116 28.8132 116"/>
	<path fill="#DB9652" d="M66.9274 23.7794C66.9274 35.2019 57.5579 44.4615 46 44.4615C34.442 44.4615 25.0725 35.2019 25.0725 23.7794C25.0725 12.357 34.442 3.09725 46 3.09725C57.5579 3.09725 66.9274 12.357 66.9274 23.7794"/>
	<path fill="#2C180C" d="M45.9999 45.4608C33.868 45.4608 24.0614 35.6693 24.0614 23.7795C24.0614 11.8898 33.9691 2.0982 45.9999 2.0982C58.0306 2.0982 67.9383 11.8898 67.9383 23.7795C67.9383 35.6693 58.1317 45.4608 45.9999 45.4608M45.9999 3.99656C34.9801 3.99656 26.0834 12.8889 26.0834 23.6796C26.0834 34.5702 35.0812 43.3626 45.9999 43.3626C57.0196 43.3626 65.9163 34.4703 65.9163 23.6796C66.0174 12.8889 57.0196 3.99656 45.9999 3.99656"/>
	<path fill="#DB9652" d="M79.8673 41.3132L12.2321 41.3132C7.17715 41.3132 3.0321 45.4096 3.0321 50.4053L3.0321 52.004C3.0321 56.9997 7.17715 61.0961 12.2321 61.0961L28.7112 61.0961L19.2079 102.46C18.1969 106.957 21.0277 111.453 25.5772 112.452L26.8914 112.752C31.4409 113.751 35.9903 110.953 37.0013 106.457L45.7969 68.2899L58.2321 105.458C59.7486 109.854 64.5002 112.252 68.9486 110.753L70.2629 110.354C74.7112 108.855 77.1376 104.159 75.6211 99.7628L62.6805 61.0961L79.7662 61.0961C84.8211 61.0961 88.968 56.9997 88.968 52.004L88.968 50.4053C89.0673 45.4096 84.9222 41.3132 79.8673 41.3132"/>
	<path fill="#2C180C" d="M28.8638 114.002C28.1561 114.002 27.4484 113.902 26.7407 113.802L25.4264 113.502C23.0001 112.903 20.877 111.504 19.4616 109.306C18.1473 107.208 17.6418 104.71 18.2484 102.212L27.4484 62.0465L12.1825 62.0465C6.52095 62.0465 1.9715 57.5504 1.9715 51.9552L1.9715 50.3566C1.9715 44.7614 6.52095 40.2653 12.1825 40.2653L79.8177 40.2653C85.4792 40.2653 90.0286 44.7614 90.0286 50.3566L90.0286 51.9552C90.0286 57.5504 85.4792 62.0465 79.8177 62.0465L64.1473 62.0465L76.6836 99.4143C77.4924 101.812 77.2902 104.31 76.1781 106.608C75.066 108.906 73.044 110.505 70.7188 111.304L69.4045 111.704C66.9781 112.503 64.4506 112.303 62.1253 111.204C59.8001 110.105 58.1825 108.107 57.3737 105.809L46.0001 72.0379L38.0638 106.708C37.4572 109.106 36.0418 111.204 33.8177 112.603C32.4023 113.502 30.6836 114.002 28.8638 114.002M12.2836 42.3635C7.83524 42.3635 4.09458 45.9604 4.09458 50.4565L4.09458 52.0551C4.09458 56.4513 7.73414 60.1482 12.2836 60.1482L30.077 60.1482L20.2704 102.712C19.866 104.61 20.1693 106.608 21.2814 108.307C22.3935 110.005 24.0111 111.104 25.9319 111.604L27.2462 111.904C29.1671 112.303 31.1891 112.003 32.9078 110.904C34.6264 109.805 35.7385 108.207 36.244 106.308L45.8484 64.6443L59.3957 105.209C60.0023 107.108 61.3166 108.606 63.1363 109.506C64.9561 110.405 66.9781 110.505 68.7979 109.905L70.1122 109.506C72.033 108.906 73.5495 107.607 74.4594 105.809C75.3693 104.01 75.4704 102.012 74.8638 100.214L61.5188 60.2481L80.0199 60.2481C84.4682 60.2481 88.2089 56.6512 88.2089 52.1551L88.2089 50.5564C88.2089 46.1602 84.5693 42.4634 80.0199 42.4634L12.2836 42.4634"/>
	<path fill="#C40000" d="M55.4021 39.5659C55.6043 42.6632 55.6043 44.4617 55.4021 45.1611C55.2 46.1602 54.6945 46.7597 53.6835 46.5599C53.077 46.46 51.1561 45.7606 48.0219 44.3618C47.5164 44.8613 46.8088 45.1611 46 45.1611C45.2923 45.1611 44.5846 44.8613 44.0791 44.3618C40.945 45.7606 39.1253 46.46 38.5187 46.5599C37.5077 46.7597 37.0022 46.1602 36.8 45.1611C36.6483 44.4617 36.6483 42.6632 36.8 39.5659C37.1033 38.3669 37.5077 37.8566 38.2154 37.8566C38.822 37.9673 40.7429 38.7666 44.1802 40.3652C44.6857 39.8657 45.3934 39.5659 46.1011 39.5659C46.9099 39.5659 47.5164 39.8657 48.0219 40.3652C51.4594 38.7666 53.4813 37.8566 54.088 37.8566C54.6945 37.8566 55.0989 38.3669 55.4021 39.5659"/>
	<path fill="white" d="M24.9715 89.5229C25.7803 90.0224 26.2857 90.1224 27.2967 90.1224C28.8132 90.1224 29.622 90.2223 30.8352 90.9217C31.9473 91.6211 32.5539 92.2205 33.1605 93.3196C33.7671 94.4187 34.0704 94.8183 34.9802 95.3179C35.8901 95.8174 36.9011 96.1172 38.1143 96.2171C37.5077 97.4161 37.4066 97.6159 37.3055 97.8157C36.0923 97.7158 35.0813 97.3162 34.0704 96.8166C32.9583 96.1172 32.3517 95.5177 31.7451 94.4187C31.1385 93.3196 30.8352 92.9199 29.9253 92.4204C29.1165 91.9208 28.611 91.8209 27.6 91.8209C26.0836 91.8209 25.2747 91.721 24.0616 91.0216C22.9495 90.3222 21.9385 89.423 21.0286 88.224L21.8374 86.3256C22.6462 87.7244 23.7583 88.8235 24.9715 89.5229M72.3868 85.926L73.1956 87.9243C72.2857 89.2231 71.2748 90.2223 69.9605 91.0216C68.7473 91.721 68.0396 91.8209 66.7253 91.8209C65.5121 91.8209 65.0066 91.9208 64.1978 92.4204C63.389 92.9199 62.9846 93.3196 62.4791 94.2188C61.6704 95.5177 61.1649 96.1172 59.9517 96.8166C59.0418 97.3162 58.1319 97.6159 57.0198 97.8157C56.9187 97.6159 56.8176 97.4161 56.7165 97.2162C57.222 96.1172 58.233 95.8174 58.9407 95.4178C59.7495 94.9182 60.1539 94.5186 60.6594 93.6193C61.4682 92.3205 61.9737 91.721 63.1868 91.0216C64.4 90.3222 65.1077 90.2223 66.422 90.2223C67.6352 90.2223 68.1407 90.1224 68.9495 89.6228C70.466 88.7236 71.5781 87.6245 72.3868 85.926M68.6462 42.1637L70.6682 42.1637C71.2748 43.4626 71.5781 44.8614 71.5781 46.1603C71.5781 47.4591 71.3759 48.2584 70.6682 49.3575C69.9605 50.4566 69.7583 50.8562 69.7583 51.8554C69.7583 52.8545 69.9605 53.2541 70.466 54.1534C71.3759 55.4522 71.5781 56.2516 71.5781 57.5504C71.5781 58.5496 71.3759 59.6486 70.9715 60.6478L69.0506 60.6478C69.5561 59.6486 69.8594 58.5496 69.8594 57.5504C69.8594 56.5513 69.6572 56.1516 69.1517 55.2524C68.2418 53.9535 68.0396 53.1542 68.0396 51.8554C68.0396 50.5565 68.2418 49.7571 68.9495 48.6581C69.6572 47.5591 69.8594 47.1594 69.8594 46.1603C69.8594 44.8614 69.455 43.5625 68.6462 42.1637M23.5561 46.2602C23.5561 47.2593 23.6572 47.659 24.2638 48.5582C25.0726 49.8571 25.3759 50.5565 25.3759 51.9553C25.3759 53.2541 25.0726 54.0535 24.466 55.1525C23.7583 56.2516 23.6572 56.6512 23.5561 57.6503C23.5561 58.6495 23.8594 59.6486 24.3649 60.7477L22.444 60.7477C22.0396 59.7485 21.8374 58.7494 21.8374 57.6503C21.8374 56.3515 22.1407 55.5522 22.7473 54.4531C23.455 53.3541 23.5561 52.9544 23.6572 51.9553C23.6572 50.9561 23.5561 50.5565 22.9495 49.6572C22.1407 48.3584 21.8374 47.659 21.8374 46.2602C21.8374 44.9613 22.1407 43.5625 22.7473 42.1637L24.7693 42.1637C23.9605 43.5625 23.5561 44.8614 23.5561 46.2602"/>
	<path fill="#FACB62" d="M46 59.9484C47.7187 59.9484 49.1341 61.3471 49.1341 63.0457C49.1341 64.7442 47.7187 66.143 46 66.143C44.2813 66.143 42.8659 64.7442 42.8659 63.0457C42.8659 61.3471 44.2813 59.9484 46 59.9484M46 48.0586C47.7187 48.0586 49.1341 49.4574 49.1341 51.1559C49.1341 52.8545 47.7187 54.2533 46 54.2533C44.2813 54.2533 42.8659 52.8545 42.8659 51.1559C42.8659 49.4574 44.2813 48.0586 46 48.0586"/>
	<path fill="#4C3030" d="M53.967 25.6779C54.2703 25.1783 54.978 25.0784 55.3824 25.3782C55.5846 25.578 55.7868 25.7778 55.7868 26.0775C55.8879 26.3773 55.7868 26.677 55.5846 26.8769C55.1802 27.4763 54.6747 28.0758 54.1692 28.5754C52.0461 30.6736 49.0132 31.8725 45.9802 31.8725C42.9472 31.8725 40.0154 30.6736 37.7912 28.5754C37.2857 28.0758 36.7802 27.4763 36.3758 26.8769C36.1736 26.677 36.1736 26.3773 36.1736 26.0775C36.2747 25.7778 36.3758 25.578 36.578 25.3782C37.0835 25.0784 37.6901 25.1783 37.9934 25.6779C38.2967 26.1775 38.7011 26.677 39.2066 27.0767C41.0263 28.8751 43.3516 29.7744 45.8791 29.7744C48.4066 29.7744 50.8329 28.7752 52.5516 27.0767C53.2593 26.677 53.6637 26.1775 53.967 25.6779M40.8242 15.6865C41.9362 15.6865 42.9472 16.5857 42.9472 17.7847C42.9472 18.9837 42.0373 19.8829 40.8242 19.8829C39.7121 19.8829 38.7011 18.9837 38.7011 17.7847C38.7011 16.5857 39.7121 15.6865 40.8242 15.6865M51.0351 15.6865C52.1472 15.6865 53.1582 16.5857 53.1582 17.7847C53.1582 18.9837 52.2483 19.8829 51.0351 19.8829C49.9231 19.8829 48.9121 18.9837 48.9121 17.7847C48.9121 16.5857 49.822 15.6865 51.0351 15.6865"/>
</svg>
