<?xml version="1.0" encoding="utf-8" ?>
<svg xmlns="http://www.w3.org/2000/svg" xmlns:xlink="http://www.w3.org/1999/xlink" width="86" height="98">
	<path fill="white" d="M86 33.1067L78.4 22.1389L72.2 26.5057C68 21.9358 62.8 18.3813 57 16.0456C56.1 13.2021 51.9 0.609326 42 0C41.8 0 41.5 0 41.3 0C31.8 0 28.8 10.9679 27.7 15.1316C27.7 15.3347 27.6 15.4363 27.6 15.6394C11.5 21.5295 0 37.2705 0 55.5503C0 79.0093 18.8 98 41.8 98C64.9 98 83.6 78.9078 83.6 55.5503C83.6 49 82.2 42.9575 79.6 37.4736L86 33.1067M41.4 6.19482C41.5 6.19482 41.6 6.19482 41.7 6.19482C45.3 6.39793 48.1 10.4601 49.7 14.0145C47.1 13.5067 44.5 13.2021 41.8 13.2021C39.3 13.2021 36.8 13.4052 34.3 13.913C35.8 9.74922 37.8 6.19482 41.4 6.19482"/>
	<path fill="#F43B3B" d="M81 55.4487C81 77.2104 63.6286 94.8519 42.2 94.8519C20.7714 94.8519 3.4 77.2104 3.4 55.4487C3.4 33.687 20.7714 16.0457 42.2 16.0457C63.6286 16.0457 81 33.687 81 55.4487"/>
	<path fill="#2D1A0B" d="M42.2 95.8673C20.3 95.8673 2.4 77.6891 2.4 55.4487C2.4 33.2082 20.3 15.03 42.2 15.03C64.1 15.03 82 33.2082 82 55.4487C82 77.6891 64.1 95.8673 42.2 95.8673M42.2 17.0611C21.4 17.0611 4.4 34.3253 4.4 55.4487C4.4 76.572 21.4 93.8362 42.2 93.8362C63 93.8362 80 76.572 80 55.4487C80 34.3253 63 17.0611 42.2 17.0611"/>
	<path fill="#FACB62" d="M68.1 55.7533C68.1 70.5042 56.3251 82.4622 41.8 82.4622C27.2749 82.4622 15.5 70.5042 15.5 55.7533C15.5 41.0024 27.2749 29.0445 41.8 29.0445C56.3251 29.0445 68.1 41.0024 68.1 55.7533"/>
	<path fill="#2D1A0B" d="M41.8 83.4777C26.8 83.4777 14.5 71.0881 14.5 55.7534C14.5 40.5202 26.7 28.029 41.8 28.029C56.9 28.029 69.1 40.4186 69.1 55.7534C69.1 71.0881 56.8 83.4777 41.8 83.4777M41.8 30.1616C27.9 30.1616 16.5 41.6373 16.5 55.8549C16.5 70.0725 27.8 81.5482 41.8 81.5482C55.8 81.5482 67.1 70.0725 67.1 55.8549C67.1 41.6373 55.7 30.1616 41.8 30.1616"/>
	<path fill="#2D1A0B" d="M31.6 17.4673L29.7 16.858C29.7 16.5533 29.9 16.0456 30.1 15.5378C31.2 11.3741 33.9 1.52332 42.3 1.91734C51.5 2.4373 55.4 16.3502 55.6 16.858L53.7 17.3658C53.7 17.2642 50 4.26528 42.2 3.85907C35.4 3.45285 33.1 11.8819 32 15.944C31.8 16.6549 31.7 17.0611 31.6 17.4673"/>
	<path fill="#DB9652" d="M43.7407 50.2315L77.8444 26.0411L81.9671 32.0354L47.8634 56.2258L43.7407 50.2315"/>
	<path fill="#2C180C" d="M47.8 57.7843L42.5 50.0662L78.2 24.6776L83.5 32.3957L47.8 57.7843M45.3 50.6755L48.3 55.0424L80.8 31.9895L77.8 27.6227L45.3 50.6755"/>
	<path fill="#F43B3B" d="M51.7 55.8549C51.7 61.0709 47.5362 65.2994 42.4 65.2994C37.2637 65.2994 33.1 61.0709 33.1 55.8549C33.1 50.6388 37.2637 46.4103 42.4 46.4103C47.5362 46.4103 51.7 50.6388 51.7 55.8549"/>
	<path fill="#2D1A0B" d="M42.4 66.315C36.7 66.315 32.1 61.6435 32.1 55.8549C32.1 50.0663 36.7 45.3948 42.4 45.3948C48.1 45.3948 52.7 50.0663 52.7 55.8549C52.7 61.6435 48.1 66.315 42.4 66.315M42.4 47.4259C37.8 47.4259 34.1 51.1834 34.1 55.8549C34.1 60.5264 37.8 64.2839 42.4 64.2839C47 64.2839 50.7 60.5264 50.7 55.8549C50.7 51.1834 47 47.4259 42.4 47.4259"/>
</svg>
