<?xml version="1.0" encoding="utf-8" ?>
<svg xmlns="http://www.w3.org/2000/svg" xmlns:xlink="http://www.w3.org/1999/xlink" width="126" height="126">
	<path fill="white" d="M63 126C61.1914 126 59.3828 125.297 58.0766 123.99L2.00957 67.9234C0.703349 66.6172 0 64.9091 0 63C0 61.0909 0.703349 59.3828 2.00957 58.0766L58.0766 2.00957C59.3828 0.703349 61.0909 0 63 0C64.8086 0 66.6172 0.703349 67.9234 2.00957L123.99 58.0766C125.297 59.3828 126 61.0909 126 63C126 64.9091 125.297 66.6172 123.99 67.9234L67.9234 123.99C66.6172 125.297 64.8086 126 63 126"/>
	<path fill="#FCD11A" d="M4.11962 60.2369L60.1866 4.16988C61.6938 2.66271 64.2057 2.66271 65.7129 4.16988L121.78 60.2369C123.287 61.744 123.287 64.256 121.78 65.7632L65.7129 121.83C64.2057 123.337 61.6938 123.337 60.1866 121.83L4.11962 65.7632C2.61244 64.256 2.61244 61.744 4.11962 60.2369"/>
	<path fill="#2D1A0B" d="M62.8995 123.89C61.5932 123.89 60.3875 123.388 59.4832 122.483L3.4162 66.4162C2.51189 65.5119 2.0095 64.3062 2.0095 63C2.0095 61.6937 2.51189 60.488 3.4162 59.5837L59.4832 3.5167C60.3875 2.61239 61.5932 2.11 62.8995 2.11C64.2057 2.11 65.4114 2.61239 66.3157 3.5167L122.382 59.5837C123.287 60.488 123.789 61.6937 123.789 63C123.789 64.3062 123.287 65.5119 122.382 66.4162L66.3157 122.483C65.5119 123.388 64.2057 123.89 62.8995 123.89M62.8995 4.01909C62.0956 4.01909 61.3923 4.32053 60.8899 4.82292L4.8229 60.8899C4.3205 61.3923 4.01907 62.1961 4.01907 63C4.01907 63.6028 4.3205 64.4067 4.8229 64.909L60.8899 120.976C61.9951 122.081 63.8038 122.081 65.0095 120.976L121.076 64.909C121.578 64.4067 121.881 63.6028 121.881 63C121.881 62.1961 121.578 61.3923 121.076 60.8899L65.0095 4.82292C64.4066 4.32053 63.7033 4.01909 62.8995 4.01909"/>
	<path fill="#F43B3B" d="M14.3684 59.9354L59.8851 14.4188C61.5932 12.7106 64.3062 12.7106 66.0143 14.4188L111.531 59.9354C113.239 61.6437 113.239 64.3566 111.531 66.0647L66.0143 111.581C64.3062 113.29 61.5932 113.29 59.8851 111.581L14.3684 66.0647C12.6602 64.3566 12.6602 61.6437 14.3684 59.9354"/>
	<path fill="#2D1A0B" d="M63.0125 113.893C61.5933 113.893 60.287 113.39 59.1818 112.285L13.665 66.768C11.555 64.6579 11.555 61.2417 13.665 59.2321L59.1818 13.7154C60.1866 12.7106 61.4928 12.1077 63.0125 12.1077C64.4067 12.1077 65.8134 12.7106 66.8181 13.7154L112.335 59.2321C113.34 60.2369 113.943 61.5431 113.943 63C113.943 64.5575 113.34 65.8637 112.335 66.8685L66.8181 112.386C65.7129 113.39 64.4067 113.893 63.0125 113.893M63.0125 14.1173C62.0957 14.1173 61.2918 14.4187 60.689 15.1221L15.1722 60.6388C13.866 61.945 13.866 64.0551 15.1722 65.3613L60.689 110.878C61.9952 112.185 64.1052 112.185 65.4114 110.878L110.928 65.3613C111.531 64.7584 111.933 63.8541 111.933 63C111.933 62.2465 111.632 61.3421 110.928 60.7393L65.4114 15.2225C64.7081 14.4187 63.9043 14.1173 63.0125 14.1173"/>
	<path d="M75.6601 44.2105C75.5596 45.9186 75.4592 47.9282 75.4592 49.9378L75.4592 59.9856C76.8658 58.0765 78.373 56.4689 80.0813 54.8612C80.5835 55.7655 81.3875 56.5694 82.1913 57.3732C79.7798 59.3827 77.6698 61.4928 75.9615 63.7033C74.2534 65.9138 72.8467 68.4258 71.8419 71.0383L76.464 71.0383C77.6698 71.0383 79.2774 70.9378 81.1864 70.8373L81.1864 73.7512C79.2774 73.6507 77.7702 73.5502 76.5645 73.5502L67.8229 73.5502C68.1243 72.244 68.7271 70.6363 69.6315 68.7272C70.5358 66.8182 71.44 65.11 72.4449 63.5024L72.4449 61.3923C71.9425 61.7942 71.2392 62.3971 70.4352 63.2009C69.4305 61.6938 68.2247 59.9856 66.8181 58.0765C67.6218 57.6746 68.3252 56.9713 68.9281 56.067C70.1339 57.9761 71.2392 59.4832 72.3444 60.7894L72.3444 50.3397C72.3444 48.0287 72.2439 46.0191 72.1434 44.311L75.6601 44.311M69.9328 76.9665C71.0381 76.2631 71.8419 75.6603 72.4449 74.9569C74.0525 77.2679 75.6601 79.0765 77.1674 80.5837C76.1626 81.2871 75.4592 81.8899 75.0573 82.5933C73.3492 80.8851 71.6411 78.9761 69.9328 76.9665M66.8181 80.0813C65.11 79.9808 63.1003 79.8804 61.0908 79.8804L50.2391 79.8804C48.2295 79.8804 46.4209 79.9808 44.6123 80.0813L44.6123 77.1674C46.3204 77.2679 48.2295 77.3684 50.2391 77.3684L60.8899 77.3684C63.7033 77.3684 65.7128 77.2679 66.8181 77.1674L66.8181 80.0813M44.6123 53.6555C44.6123 49.3349 44.4114 46.421 44.4114 44.6124L47.7271 44.6124L47.7271 46.622L63.5023 46.622L63.5023 44.6124L66.6171 44.6124C66.5166 46.0191 66.4162 49.0335 66.4162 53.4545C66.4162 57.9761 66.5166 60.9904 66.6171 62.6985L44.4114 62.6985C44.4114 60.9904 44.6123 57.9761 44.6123 53.6555M47.0238 69.732C47.0238 68.4258 46.9233 66.9186 46.8228 65.311L64.4065 65.311C64.306 66.9186 64.2057 68.5263 64.2057 69.933C64.2057 71.3397 64.306 72.7464 64.4065 74.0526L46.8228 74.0526C47.0238 72.5454 47.0238 71.1387 47.0238 69.732M57.0717 55.866L57.0717 60.1866L63.5023 60.1866L63.5023 55.866L57.0717 55.866M57.0717 49.0335L57.0717 53.4545L63.5023 53.4545L63.5023 49.0335L57.0717 49.0335M50.0381 67.7225L50.0381 71.5406L61.4927 71.5406L61.4927 67.7225L50.0381 67.7225M47.7271 55.866L47.7271 60.1866L53.9568 60.1866L53.9568 55.866L47.7271 55.866M47.7271 49.0335L47.7271 53.4545L53.9568 53.4545L53.9568 49.0335L47.7271 49.0335"/>
</svg>
