<?xml version="1.0" encoding="utf-8" ?>
<svg xmlns="http://www.w3.org/2000/svg" xmlns:xlink="http://www.w3.org/1999/xlink" width="138" height="96">
	<path fill="white" d="M137.558 28.7395C136.458 23.6975 133.356 19.4622 128.853 16.6387C125.351 14.8235 121.449 14.0168 117.347 14.0168C110.343 14.0168 104.04 16.3361 99.9375 20.1681C94.5345 8.06723 82.4279 0 69 0C55.9133 0 44.2069 7.46218 38.5038 18.8571C33.7011 15.3277 26.6973 13.7143 20.794 13.7143C17.092 13.7143 13.5901 14.3193 10.8886 15.5294C9.98809 15.9328 9.2877 16.2353 8.78743 16.5378C4.68517 19.8655 1.58347 24.5042 0.482863 29.5462C-0.617742 34.2857 0.182698 39.0252 2.68407 42.7563L27.7979 80.7731C26.4972 82.3866 25.6967 84.5042 25.6967 86.7227C25.6967 91.8655 29.799 96 34.9018 96L102.839 96C107.942 96 112.044 91.8655 112.044 86.7227C112.044 84.5042 111.244 82.4874 109.943 80.7731L135.057 42.7563C137.658 38.7227 138.659 33.6807 137.558 28.7395"/>
	<path fill="#FCD11A" d="M100.017 34.4874C100.017 51.7521 86.1303 65.7479 69 65.7479C51.8698 65.7479 37.983 51.7521 37.983 34.4874C37.983 17.2227 51.8698 3.2269 69 3.2269C86.1303 3.2269 100.017 17.2227 100.017 34.4874"/>
	<path fill="#2D1A0B" d="M69 66.7563C51.2903 66.7563 36.9824 52.2353 36.9824 34.4874C36.9824 16.7395 51.3903 2.2185 69 2.2185C86.6097 2.2185 101.018 16.7395 101.018 34.4874C101.018 52.2353 86.7097 66.7563 69 66.7563M69 4.13447C52.3909 4.13447 38.9835 17.7479 38.9835 34.3866C38.9835 51.0252 52.4909 64.6387 69 64.6387C85.5091 64.6387 99.0165 51.0252 99.0165 34.3866C99.0165 17.7479 85.6091 4.13447 69 4.13447"/>
	<path fill="#FCD11A" d="M127.677 19.3183C118.472 14.9822 105.064 17.604 100.162 24.9654C94.3589 33.7385 88.8559 38.3771 77.9499 38.3771L60.3402 38.3771C49.4342 38.3771 45.6321 33.2343 39.8289 24.4612C34.9262 16.999 18.4172 14.5788 10.6129 19.3183L12.3138 18.5116C4.60957 23.2511 0.60737 33.9402 5.51006 41.3015L30.7239 79.52C33.1252 83.0494 36.6272 85.4696 40.6294 86.3771L41.9301 86.6797C43.8311 86.9822 45.7322 86.9822 47.6332 86.6797L90.7569 86.6797C92.6579 86.9822 94.559 86.9822 96.46 86.6797L97.8608 86.6797C101.763 85.3687 105.264 83.0494 107.566 79.52L132.78 41.3015C137.682 33.9402 135.358 24.0578 127.677 19.3183"/>
	<path fill="#2D1A0B" d="M93.4277 87.857C92.427 87.857 91.4263 87.731 90.5256 87.6301L47.4957 87.6301C45.5944 87.9326 43.593 87.9326 41.6917 87.6301L39.4901 87.6301C35.4874 85.9158 31.9849 83.4957 29.7834 79.9663L4.56584 41.7478C2.2619 38.42 1.76389 34.2856 2.66452 30.1511C3.66522 25.6133 6.3671 21.378 10.1697 18.5545C10.57 18.0503 11.1704 17.7478 11.7709 17.5461C20.2768 14.0167 35.6875 16.336 40.691 23.899C46.5951 32.773 50.0975 37.4116 60.4047 37.4116L78.0169 37.4116C88.7244 37.4116 93.928 32.6721 99.4318 24.5041C104.636 16.7394 118.245 13.815 128.152 18.4537C132.255 20.9747 135.057 24.8066 136.057 29.3444C137.058 33.6805 136.157 38.2184 133.656 41.9494L108.438 80.1679C106.237 83.5965 102.834 86.0167 98.8314 87.2268L96.4297 87.731C95.429 87.731 94.4283 87.857 93.4277 87.857M47.3956 85.6133L90.8258 85.6133C92.6271 85.9158 94.4283 85.9158 96.1295 85.6133L97.5305 85.3108C101.333 84.3024 104.535 82.0839 106.637 78.857L131.854 40.6385C134.056 37.3108 134.757 33.378 133.956 29.5461C133.055 25.6133 130.654 22.2856 127.151 20.0671C118.245 15.9317 105.536 18.4537 100.933 25.4116C95.1288 34.1847 89.5249 39.2268 77.9169 39.2268L60.3046 39.2268C48.9967 39.2268 44.994 33.9831 38.9898 24.8066C34.8869 18.5545 20.7771 15.731 12.7715 19.1595C8.76877 21.5797 5.66661 25.815 4.66591 30.4536C3.86536 34.0839 4.46577 37.7142 6.26703 40.5377L31.4846 78.7562C33.586 81.9831 36.8883 84.3024 40.791 85.2099L41.9919 85.4116C43.6931 85.9158 45.4943 85.9158 47.3956 85.6133"/>
	<path fill="#F43B3B" d="M102.969 93.0756L35.0314 93.0756C31.6295 93.0756 28.8279 90.2521 28.8279 86.8235C28.8279 83.3949 31.6295 80.5714 35.0314 80.5714L102.969 80.5714C106.371 80.5714 109.172 83.3949 109.172 86.8235C109.072 90.2521 106.371 93.0756 102.969 93.0756"/>
	<path fill="#2D1A0B" d="M102.969 94.084L35.0314 94.084C31.0292 94.084 27.8274 90.8571 27.8274 86.8235C27.8274 82.7899 31.0292 79.563 35.0314 79.563L102.969 79.563C106.971 79.563 110.173 82.7899 110.173 86.8235C110.173 90.8571 106.871 94.084 102.969 94.084M34.9313 81.5798C32.0297 81.5798 29.7284 83.8991 29.7284 86.8235C29.7284 89.7479 32.0297 92.0672 34.9313 92.0672L102.869 92.0672C105.77 92.0672 108.072 89.7479 108.072 86.8235C108.072 83.8991 105.77 81.5798 102.869 81.5798L34.9313 81.5798"/>
	<path fill="#F43B3B" d="M34.5016 58.7899L40.0046 53.2437C40.2047 53.0924 40.5049 53.0924 40.705 53.2437L46.2081 58.7899C46.4082 58.9916 46.4082 59.2941 46.2081 59.4958L40.705 65.0421C40.5049 65.2438 40.2047 65.2438 40.0046 65.0421L34.5016 59.4958C34.3015 59.395 34.3015 59.0924 34.5016 58.7899"/>
	<path fill="#2D1A0B" d="M40.3048 66.2522C39.9046 66.2522 39.5044 66.0504 39.2042 65.8487L33.7012 60.3025C33.3009 60 33.3009 59.5967 33.3009 59.1933C33.3009 58.7899 33.5011 58.3866 33.7012 58.084L39.2042 52.5378C39.8045 51.9328 40.8051 51.9328 41.4054 52.5378L46.9084 58.084C47.5088 58.6891 47.5088 59.6975 46.9084 60.2017L41.4054 65.7479C41.1052 66.0504 40.705 66.2522 40.3048 66.2522M35.5022 59.1933L40.3048 64.0336L45.1074 59.1933L40.3048 54.353L35.5022 59.1933"/>
	<path fill="#F43B3B" d="M90.5323 58.7899L96.0353 53.2437C96.2355 53.0925 96.5356 53.0925 96.7357 53.2437L102.239 58.7899C102.439 58.9916 102.439 59.2941 102.239 59.4958L96.7357 65.0421C96.5356 65.2438 96.2355 65.2438 96.0353 65.0421L90.5323 59.4958C90.3322 59.395 90.3322 59.0925 90.5323 58.7899"/>
	<path fill="#2D1A0B" d="M96.3355 66.2521C95.9353 66.2521 95.5351 66.1513 95.2349 65.8488L89.7319 60.3025C89.1316 59.6975 89.1316 58.6891 89.7319 58.1849L95.2349 52.6387C95.8352 52.0336 96.8358 52.0336 97.4361 52.6387L102.939 58.1849C103.239 58.4874 103.339 58.8908 103.339 59.2941C103.339 59.6975 103.139 60.1009 102.939 60.4034L97.4361 65.9496C97.136 66.0504 96.7357 66.2521 96.3355 66.2521M91.5329 59.1933L96.3355 64.0336L101.138 59.1933L96.3355 54.353L91.5329 59.1933"/>
	<path fill="#F43B3B" d="M82.8282 59.1933C82.8282 66.7675 76.7359 72.9076 69.2206 72.9076C61.7054 72.9076 55.6132 66.7675 55.6132 59.1933C55.6132 51.6191 61.7054 45.479 69.2206 45.479C76.7359 45.479 82.8282 51.6191 82.8282 59.1933"/>
	<path fill="#2D1A0B" d="M69.2207 73.916C61.2163 73.916 54.6127 67.3614 54.6127 59.1933C54.6127 51.1261 61.1163 44.4706 69.2207 44.4706C77.3252 44.4706 83.8288 51.0252 83.8288 59.1933C83.8288 67.3614 77.3252 73.916 69.2207 73.916M69.2207 46.4874C62.3169 46.4874 56.6138 52.1345 56.6138 59.1933C56.6138 66.2521 62.2169 71.8992 69.2207 71.8992C76.2246 71.8992 81.8277 66.2521 81.8277 59.1933C81.8277 52.1345 76.2246 46.4874 69.2207 46.4874"/>
</svg>
