<?xml version="1.0" encoding="utf-8" ?>
<svg xmlns="http://www.w3.org/2000/svg" xmlns:xlink="http://www.w3.org/1999/xlink" width="130" height="106">
	<path fill="white" d="M27.3946 104.306L31.1801 78.8026L22.5134 78.8026C19.1264 78.8026 16.2375 76.0132 16.2375 72.5263C16.2375 70.4342 16.5364 69.438 17.0345 68.5414C6.67433 62.5639 0 51.406 0 39.0526C0 26.8985 6.4751 15.8402 16.7356 9.76316C16.4368 8.96617 16.2375 8.16917 16.2375 7.27256C16.2375 2.8891 19.0268 0 22.5134 0L107.487 0C110.874 0 113.762 2.78947 113.762 6.27632C113.762 8.16917 113.563 8.96617 113.264 9.76316C123.525 15.8402 130 26.8985 130 39.0526C130 51.3064 123.326 62.5639 112.966 68.5414C113.464 69.438 113.762 70.4342 113.762 71.5301C113.762 75.9135 110.973 78.8026 107.487 78.8026L98.8199 78.8026L102.605 104.306L91.5479 106L90.4521 99.0263L39.3487 99.0263L38.2529 106L27.3946 104.306M88.9579 87.8684L87.5632 78.9023L42.4368 78.9023L41.0421 87.8684L88.9579 87.8684"/>
	<path fill="#FCD11A" d="M94.3371 102.613L99.4176 101.915L95.1341 73.124L89.954 73.921L92.544 90.8571L37.7548 90.8571L40.3448 73.921L35.1647 73.124L30.8812 101.915L36.0613 102.613L37.0574 96.1372L93.341 96.1372"/>
	<path fill="#2D1A0B" d="M93.4406 103.808L92.4444 97.1336L37.8544 97.1336L36.8582 103.808L29.7854 102.713L34.3678 72.0283L41.4406 73.1242L38.9501 89.9606L91.3486 89.9606L88.8582 73.1242L95.931 72.0283L100.513 102.713L93.4406 103.808M36.1609 95.1411L94.1379 95.1411L95.1341 101.517L98.3218 101.019L94.3371 74.22L91.1494 74.7182L93.7394 91.8535L36.659 91.8535L39.249 74.7182L36.0613 74.22L32.0766 101.019L35.2643 101.517L36.1609 95.1411"/>
	<path fill="#F43B3B" d="M96.1302 70.235L34.2681 70.235C17.134 70.235 3.2873 56.3872 3.2873 39.2519C3.2873 22.1165 17.134 8.2688 34.2681 8.2688L96.1302 8.2688C113.264 8.2688 127.111 22.1165 127.111 39.2519C127.111 56.2876 113.264 70.235 96.1302 70.235"/>
	<path fill="#2D1A0B" d="M96.1303 71.2312L34.2682 71.2312C16.636 71.2312 2.2912 56.8854 2.2912 39.2519C2.2912 21.6185 16.636 7.2726 34.2682 7.2726L96.1303 7.2726C113.762 7.2726 128.107 21.6185 128.107 39.2519C128.107 56.8854 113.762 71.2312 96.1303 71.2312M34.1686 9.16546C17.6322 9.16546 4.18392 22.6147 4.18392 39.1523C4.18392 55.6899 17.6322 69.1391 34.1686 69.1391L96.0307 69.1391C112.567 69.1391 126.015 55.6899 126.015 39.1523C126.015 22.6147 112.567 9.16546 96.0307 9.16546L34.1686 9.16546"/>
	<path fill="#FCD11A" d="M82.9026 40.4711L85.7024 36.1128L110.174 51.8361L107.374 56.1944L82.9026 40.4711"/>
	<path fill="#2D1A0B" d="M107.885 57.4829L81.7856 40.6465L85.6707 34.5694L111.77 51.4059L107.885 57.4829M84.4753 40.1483L107.288 54.7931L108.981 52.1032L86.1687 37.4585L84.4753 40.1483"/>
	<path fill="#FCD11A" d="M89.8542 35.765C89.8542 41.5433 85.1722 46.1259 79.4941 46.1259C78.996 46.1259 78.3983 46.1259 77.9002 46.0264C72.9194 45.2293 69.1339 40.9455 69.1339 35.765C69.1339 29.9869 73.8159 25.4042 79.4941 25.4042C85.1722 25.4042 89.8542 29.9869 89.8542 35.765"/>
	<path fill="#2D1A0B" d="M79.3946 47.1223C78.7969 47.1223 78.1992 47.1223 77.7011 47.0227C72.2222 46.2257 68.0383 41.3441 68.0383 35.7651C68.0383 29.4888 73.1188 24.408 79.3946 24.408C85.6705 24.408 90.7509 29.4888 90.7509 35.7651C90.7509 42.0415 85.6705 47.1223 79.3946 47.1223M79.3946 26.3009C74.2145 26.3009 70.0306 30.4851 70.0306 35.6655C70.0306 40.2482 73.4176 44.2332 78 44.9306C78.4981 45.0302 78.8965 45.0302 79.3946 45.0302C84.5747 45.0302 88.7586 40.846 88.7586 35.6655C88.7586 30.4851 84.5747 26.3009 79.3946 26.3009"/>
	<path fill="#FCD11A" d="M82.1839 58.7781L77.7011 44.4322L86.8658 28.4924L100.214 28.4924C101.709 28.4924 102.506 30.186 101.609 31.3815C100.812 32.4774 99.816 33.9717 99.0191 35.765C96.6283 40.9454 100.015 41.5432 97.4252 45.1296C94.8352 48.8157 88.2605 54.0958 88.0613 57.7819C87.862 61.3683 82.1839 58.7781 82.1839 58.7781"/>
	<path fill="#2D1A0B" d="M85.7701 60.671C84.0766 60.671 82.1838 59.874 81.7854 59.6748L76.6053 44.2331L86.2681 27.3966L100.215 27.3966C101.31 27.3966 102.207 27.9943 102.705 28.891C103.203 29.8872 103.103 30.9831 102.406 31.7801C101.509 32.9756 100.613 34.4699 99.9156 35.9643C98.8199 38.3552 99.0191 39.5507 99.3179 40.6466C99.6168 41.9417 99.816 43.3364 98.3218 45.4286C97.4252 46.7237 96.1302 48.1184 94.7356 49.6128C92.2451 52.203 89.2566 55.4906 89.157 57.5827C89.0574 58.9774 88.4597 59.6748 87.862 59.9737C87.1647 60.5714 86.4674 60.671 85.7701 60.671M82.9808 58.0808C84.1762 58.5789 85.9693 58.9774 86.6666 58.5789C86.7662 58.4793 86.9655 58.3797 87.0651 57.7819C87.1647 54.9925 90.2528 51.7049 93.1417 48.5169C94.4367 47.1222 95.7317 45.7274 96.5287 44.5319C97.5248 43.0376 97.4252 42.3402 97.226 41.2443C96.9271 39.9492 96.6283 38.2556 98.0229 35.3665C98.8199 33.6729 99.7164 32.1786 100.713 30.7838C101.011 30.3853 100.812 30.0865 100.812 29.9868C100.713 29.8872 100.513 29.5883 100.115 29.5883L87.3639 29.5883L78.6973 44.6316L82.9808 58.0808"/>
	<path fill="#FCD11A" d="M21.804 57.4989L19.0042 53.1406L43.476 37.4173L46.2759 41.7756L21.804 57.4989"/>
	<path fill="#2D1A0B" d="M21.7167 58.778L17.8316 52.701L43.9312 35.8645L47.8163 41.9416L21.7167 58.778M20.6209 53.2987L22.3144 55.9886L45.1266 41.3438L43.4331 38.654L20.6209 53.2987"/>
	<path fill="#FCD11A" d="M41.1418 36.3628C41.1418 41.7425 45.5249 46.1259 50.9042 46.1259C51.4023 46.1259 51.9004 46.1259 52.3984 46.0264C57.0805 45.3289 60.6666 41.2444 60.6666 36.3628C60.6666 30.9831 56.2836 26.5996 50.9042 26.5996C45.5249 26.5996 41.1418 30.9831 41.1418 36.3628"/>
	<path fill="#2D1A0B" d="M50.9042 47.1222C45.0268 47.1222 40.1456 42.3402 40.1456 36.3628C40.1456 30.3853 44.9272 25.6034 50.9042 25.6034C56.8812 25.6034 61.6628 30.3853 61.6628 36.3628C61.6628 41.6429 57.7778 46.2256 52.4981 47.0226C51.9004 47.0226 51.4023 47.1222 50.9042 47.1222M50.9042 27.5959C46.1226 27.5959 42.1379 31.4812 42.1379 36.3628C42.1379 41.2444 46.023 45.1297 50.9042 45.1297C51.3027 45.1297 51.8008 45.1297 52.1992 45.0301C56.4828 44.4323 59.6705 40.6466 59.6705 36.3628C59.5709 31.5808 55.6858 27.5959 50.9042 27.5959"/>
	<path fill="#FCD11A" d="M47.5172 60.0733L52 45.7274L42.8352 29.7876L29.4865 29.7876C27.9923 29.7876 27.1953 31.4812 28.0919 32.6767C28.8888 33.7726 29.885 35.2669 30.6819 37.0602C33.0727 42.2406 29.6857 42.8384 32.2758 46.4248C34.8658 50.1109 41.4406 55.391 41.6397 59.0771C41.7393 62.6635 47.5172 60.0733 47.5172 60.0733"/>
	<path fill="#2D1A0B" d="M43.833 61.9662C43.1358 61.9662 42.4386 61.8666 41.841 61.4681C41.2434 61.1692 40.6458 60.4718 40.5462 59.0771C40.4466 56.985 37.4586 53.6974 34.9686 51.1072C33.5742 49.6128 32.2794 48.2181 31.383 46.923C29.889 44.7312 30.0882 43.4361 30.387 42.141C30.5862 40.9455 30.885 39.75 29.7894 37.4587C29.0922 35.8647 28.1958 34.47 27.2994 33.2745C26.7184 32.3778 26.5027 31.282 27.0007 30.3854C27.4986 29.4887 28.3951 28.891 29.4906 28.891L43.4346 28.891L53.0958 45.7275L48.315 60.9699C47.4186 61.1692 45.6258 61.9662 43.833 61.9662M29.4906 30.6842C29.0922 30.6842 28.893 30.9831 28.7934 31.0827C28.6938 31.1824 28.5942 31.5809 28.893 31.8797C29.889 33.2745 30.885 34.7688 31.5822 36.4624C32.9766 39.3515 32.5782 41.0451 32.379 42.3402C32.1798 43.5357 31.9806 44.1335 33.0762 45.6278C33.873 46.8233 35.1678 48.1184 36.4626 49.6128C39.351 52.8008 42.4386 55.9887 42.5382 58.8778C42.5382 59.4756 42.837 59.5752 42.9366 59.6748C43.6338 60.0733 45.4266 59.6748 46.6218 59.1767L50.9046 45.6278L42.2394 30.5846L29.4906 30.5846"/>
	<path fill="#FCD11A" d="M107.686 75.9135L22.7127 75.9135C20.9196 75.9135 19.4254 74.4192 19.4254 72.6259C19.4254 69.8364 20.9196 68.3421 22.7127 68.3421L107.686 68.3421C109.479 68.3421 110.973 69.8364 110.973 71.6297C110.874 74.5188 109.479 75.9135 107.686 75.9135"/>
	<path fill="#2D1A0B" d="M107.686 76.9098L22.7126 76.9098C20.4214 76.9098 18.4291 75.0169 18.4291 72.6259C18.4291 69.3383 20.3218 67.3458 22.7126 67.3458L107.686 67.3458C109.977 67.3458 111.969 69.2387 111.969 71.6297C111.87 75.0169 109.977 76.9098 107.686 76.9098M22.7126 69.438C21.5172 69.438 20.4214 70.4342 20.4214 71.7293C20.4214 73.921 21.4176 75.0169 22.7126 75.0169L107.686 75.0169C108.881 75.0169 109.977 74.0207 109.977 72.7255C109.977 70.5338 108.981 69.438 107.686 69.438L22.7126 69.438"/>
	<path fill="#FCD11A" d="M107.686 10.6598L22.7127 10.6598C20.9196 10.6598 19.4254 9.16541 19.4254 7.37217C19.4254 4.5827 20.9196 3.08834 22.7127 3.08834L107.686 3.08834C109.479 3.08834 110.973 4.5827 110.973 6.37593C110.874 9.26503 109.479 10.6598 107.686 10.6598"/>
	<path fill="#2D1A0B" d="M107.686 11.656L22.7126 11.656C20.4214 11.656 18.4291 9.76315 18.4291 7.37218C18.4291 4.08458 20.3218 2.0921 22.7126 2.0921L107.686 2.0921C109.977 2.0921 111.969 3.98496 111.969 6.37593C111.87 9.76315 109.977 11.656 107.686 11.656M22.7126 4.18421C21.5172 4.18421 20.4214 5.18045 20.4214 6.47556C20.4214 8.66729 21.4176 9.76315 22.7126 9.76315L107.686 9.76315C108.881 9.76315 109.977 8.76691 109.977 7.4718C109.977 5.28007 108.981 4.18421 107.686 4.18421L22.7126 4.18421"/>
</svg>
