<?xml version="1.0" encoding="utf-8" ?>
<svg xmlns="http://www.w3.org/2000/svg" xmlns:xlink="http://www.w3.org/1999/xlink" width="116" height="90">
	<path fill="white" d="M60.9752 90C22.4011 90 8.53853 69.7898 5.22357 63.6173C1.10499 55.9513 0.200907 30.4646 0 27.5774L0 24.4912C3.51587 10.5531 27.7251 0 58 0C90.5084 0 116 12.0465 116 27.4779C116 27.677 116 27.8761 116 28.0752C116 31.8584 116.325 49.281 114.316 57.9425C111.805 69.0929 97.3393 90 60.9752 90"/>
	<path fill="#F43B3B" d="M3.1135 27.5277C3.1135 27.5277 3.91699 55.0056 7.83402 62.2733C12.7554 71.4325 27.62 87.0631 60.8645 87.0631C96.419 87.0631 109.174 66.6539 111.284 57.2457C113.393 47.937 112.869 27.4282 112.869 27.4282L3.1135 27.4282"/>
	<path fill="#2D1A0B" d="M60.9951 88.0088C23.5131 88.0088 10.2486 68.5951 7.03303 62.6217C3.0135 55.1549 2.2096 28.573 2.2096 27.4779L114.133 26.4823C114.133 28.2743 114.656 48.1858 112.546 57.5442C110.034 68.0973 96.166 88.0088 60.9951 88.0088M4.11887 28.4734C4.31985 33.4513 5.32473 55.5531 8.74133 61.7257C11.756 67.4004 24.6184 86.0177 60.9951 86.0177C94.8596 86.0177 108.225 67.1018 110.536 57.0465C112.345 49.0819 112.144 32.5553 112.043 28.4734L4.11887 28.4734"/>
	<path fill="#FAE9DC" d="M112.839 27.478C112.839 41.004 88.2864 51.9691 58 51.9691C27.7137 51.9691 3.1617 41.004 3.1617 27.478C3.1617 13.9519 27.7137 2.9868 58 2.9868C88.2864 2.9868 112.839 13.9519 112.839 27.478"/>
	<path fill="#2C180C" d="M58 52.9648C27.166 52.9648 2.1573 41.5156 2.1573 27.478C2.1573 13.4404 27.2664 1.9913 58 1.9913C88.7336 1.9913 113.842 13.4404 113.842 27.478C113.842 41.5156 88.834 52.9648 58 52.9648M58 3.98245C28.2708 3.98245 4.16603 14.5355 4.16603 27.478C4.16603 40.4205 28.3712 50.9736 58 50.9736C87.6288 50.9736 111.834 40.4205 111.834 27.478C111.834 14.5355 87.7292 3.98245 58 3.98245"/>
	<path fill="#FCD11A" d="M38.3669 26.1836C38.3669 33.0017 32.7909 38.5288 25.9126 38.5288C19.0345 38.5288 13.4585 33.0017 13.4585 26.1836C13.4585 19.3656 19.0345 13.8385 25.9126 13.8385C32.7909 13.8385 38.3669 19.3656 38.3669 26.1836"/>
	<path fill="#2D1A0B" d="M25.9126 39.5243C18.4803 39.5243 12.4541 33.5509 12.4541 26.1836C12.4541 18.8164 18.4803 12.8429 25.9126 12.8429C33.3449 12.8429 39.3711 18.8164 39.3711 26.1836C39.3711 33.5509 33.2445 39.5243 25.9126 39.5243M25.9126 14.8341C19.5851 14.8341 14.4628 19.9115 14.4628 26.1836C14.4628 32.4557 19.5851 37.5332 25.9126 37.5332C32.2401 37.5332 37.3624 32.4557 37.3624 26.1836C37.3624 19.9115 32.1397 14.8341 25.9126 14.8341"/>
	<path fill="#FCD11A" d="M83.5633 21.9027C83.5633 28.7208 77.9874 34.2478 71.1091 34.2478C64.2309 34.2478 58.655 28.7208 58.655 21.9027C58.655 15.0847 64.2309 9.55755 71.1091 9.55755C77.9874 9.55755 83.5633 15.0847 83.5633 21.9027"/>
	<path fill="#2D1A0B" d="M71.109 35.2434C63.6767 35.2434 57.6505 29.27 57.6505 21.9027C57.6505 14.5354 63.6767 8.562 71.109 8.562C78.5413 8.562 84.5675 14.5354 84.5675 21.9027C84.5675 29.27 78.5413 35.2434 71.109 35.2434M71.109 10.6527C64.7815 10.6527 59.6592 15.7301 59.6592 22.0023C59.6592 28.2744 64.7815 33.3518 71.109 33.3518C77.4365 33.3518 82.5588 28.2744 82.5588 22.0023C82.5588 15.7301 77.4365 10.6527 71.109 10.6527"/>
	<path fill="#FCD11A" d="M104.554 29.0707C104.554 35.229 99.5181 40.2212 93.3055 40.2212C87.0928 40.2212 82.0565 35.229 82.0565 29.0707C82.0565 22.9126 87.0928 17.9203 93.3055 17.9203C99.5181 17.9203 104.554 22.9126 104.554 29.0707"/>
	<path fill="#2D1A0B" d="M93.3054 41.1172C86.5761 41.1172 81.0521 35.6416 81.0521 28.9712C81.0521 22.3009 86.5761 16.8252 93.3054 16.8252C100.035 16.8252 105.559 22.3009 105.559 28.9712C105.559 35.6416 100.135 41.1172 93.3054 41.1172M93.3054 18.9159C87.6809 18.9159 83.0608 23.4955 83.0608 29.0708C83.0608 34.646 87.6809 39.2256 93.3054 39.2256C98.9298 39.2256 103.55 34.646 103.55 29.0708C103.55 23.4955 98.9298 18.9159 93.3054 18.9159"/>
	<path fill="#FCD11A" d="M58.0522 20.5088C58.0522 26.502 53.1508 31.3605 47.1046 31.3605C41.0584 31.3605 36.157 26.502 36.157 20.5088C36.157 14.5155 41.0584 9.657 47.1046 9.657C53.1508 9.657 58.0522 14.5155 58.0522 20.5088"/>
	<path fill="#2D1A0B" d="M47.1047 32.3563C40.4759 32.3563 35.1528 27.0797 35.1528 20.5089C35.1528 13.9381 40.4759 8.6616 47.1047 8.6616C53.7336 8.6616 59.0567 13.9381 59.0567 20.5089C59.0567 27.0797 53.6331 32.3563 47.1047 32.3563M47.1047 10.6527C41.5807 10.6527 37.1615 15.0333 37.1615 20.5089C37.1615 25.9846 41.5807 30.3651 47.1047 30.3651C52.6288 30.3651 57.048 25.9846 57.048 20.5089C57.048 15.0333 52.5283 10.6527 47.1047 10.6527"/>
	<path fill="#FCD11A" d="M58.6551 37.3342C58.6551 44.1523 53.0791 49.6794 46.2009 49.6794C39.3227 49.6794 33.7467 44.1523 33.7467 37.3342C33.7467 30.5161 39.3227 24.989 46.2009 24.989C53.0791 24.989 58.6551 30.5161 58.6551 37.3342"/>
	<path fill="#2D1A0B" d="M46.2008 50.5752C38.7685 50.5752 32.7423 44.6018 32.7423 37.2345C32.7423 29.8673 38.7685 23.8938 46.2008 23.8938C53.6331 23.8938 59.6593 29.8673 59.6593 37.2345C59.6593 44.6018 53.5327 50.5752 46.2008 50.5752M46.2008 25.9845C39.8733 25.9845 34.751 31.0619 34.751 37.3341C34.751 43.6062 39.8733 48.6836 46.2008 48.6836C52.5283 48.6836 57.6506 43.6062 57.6506 37.3341C57.5501 31.0619 52.4279 25.9845 46.2008 25.9845"/>
	<path fill="#FCD11A" d="M84.166 37.3342C84.166 44.1523 78.59 49.6794 71.7118 49.6794C64.8335 49.6794 59.2577 44.1523 59.2577 37.3342C59.2577 30.5161 64.8335 24.989 71.7118 24.989C78.59 24.989 84.166 30.5161 84.166 37.3342"/>
	<path fill="#2D1A0B" d="M71.7117 50.5752C64.2794 50.5752 58.2532 44.6018 58.2532 37.2345C58.2532 29.8673 64.2794 23.8938 71.7117 23.8938C79.144 23.8938 85.1702 29.8673 85.1702 37.2345C85.1702 44.6018 79.144 50.5752 71.7117 50.5752M71.7117 25.9845C65.3842 25.9845 60.2619 31.0619 60.2619 37.3341C60.2619 43.6062 65.3842 48.6836 71.7117 48.6836C78.0392 48.6836 83.1615 43.6062 83.1615 37.3341C83.1615 31.0619 78.0392 25.9845 71.7117 25.9845"/>
</svg>
