<?xml version="1.0" encoding="utf-8" ?>
<svg xmlns="http://www.w3.org/2000/svg" xmlns:xlink="http://www.w3.org/1999/xlink" width="80" height="90">
	<path fill="white" d="M79.8662 60.8764C79.4619 59.5618 78.5523 58.5506 77.4406 58.1461L55.8124 48.3371L71.1745 48.4382C73.0947 48.4382 74.6107 46.9213 74.6107 45L74.6107 43.0787C74.6107 41.1573 73.0947 39.6404 71.2756 39.6404L59.3498 39.5393L74.0043 31.7528C75.2171 31.1461 76.0257 30.1348 76.4299 29.0225C76.7331 28.0112 76.6321 26.8989 76.0257 25.8876C75.4193 24.6742 74.4086 23.8652 73.2969 23.5618C72.8926 23.4607 72.4884 23.3596 72.0841 23.3596C71.3766 23.3596 70.6692 23.5618 70.0628 23.8652L51.2645 33.7753L59.2487 20.8315C59.754 20.0225 59.8551 19.1124 59.5519 18.2022C59.9562 18.6067 60.3604 18.9101 60.7647 19.1124C61.3711 19.5169 61.6743 19.618 61.8764 19.8202C62.1796 20.2247 62.6849 20.8315 62.8871 21.4382C63.7967 23.1573 65.4137 24.2697 67.334 24.2697C69.5574 24.2697 71.2756 23.1573 71.983 21.236C72.1852 20.8315 72.2862 20.6292 72.3873 20.427C72.4884 20.3258 72.6905 20.2247 72.8926 20.1236C73.3979 19.8202 74.0043 19.5169 74.6107 19.1124C76.2278 18.1011 77.0363 16.2809 77.0363 14.8652C77.0363 13.0449 76.1267 11.427 74.6107 10.5169C73.8022 10.0112 73.2969 9.80899 72.8926 9.60674C72.6905 9.20225 72.3873 8.79775 72.0841 8.08989C71.1745 6.37079 69.5574 5.25843 67.6372 5.25843C65.818 5.25843 64.2009 6.26966 63.2913 7.88764C62.786 8.69663 62.4828 9.20225 62.3817 9.40449C62.2807 9.50562 62.0785 9.60674 61.9775 9.60674C61.5732 9.80899 61.1689 10.1124 60.5626 10.4157C59.0466 11.2247 58.137 12.9438 58.137 14.764C58.137 15.3708 58.238 15.8764 58.4402 16.382C58.3391 16.2809 58.238 16.1798 58.137 16.1798L56.621 15.2697C56.1156 14.9663 55.5092 14.8652 54.9029 14.8652C53.7911 14.8652 52.6794 15.4719 51.9719 16.382L44.1898 28.9213L44.1898 4.34831C44.1898 2.02247 42.2696 0 39.844 0C37.5195 0 35.4982 1.92135 35.4982 4.34831L35.4982 29.0225L28.3225 17.6966C27.615 16.8876 26.9075 16.382 25.998 16.0787C25.5937 15.9775 25.2905 15.8764 24.8862 15.8764C24.0777 15.8764 23.3702 16.0787 22.7638 16.5843C21.2478 17.4944 20.6415 18.4045 20.4393 19.4157C20.2372 20.427 20.4393 21.5393 20.9447 22.3483L28.3225 33.9775L5.98687 23.8652C5.48154 23.5618 4.87515 23.4607 4.26875 23.4607C3.86448 23.4607 3.56129 23.5618 3.15702 23.6629C1.94423 24.0674 0.933568 24.8764 0.428238 25.9888C-0.481357 28.618 0.529304 30.9438 2.44956 31.7528L18.5191 39.0337L10.9391 39.0337C8.91779 39.0337 7.30073 40.6517 7.30073 42.6742L7.30073 44.3933C7.30073 46.4157 8.91779 48.0337 10.838 48.0337L23.3702 48.0337L3.46022 58.4494C2.24743 59.0562 1.4389 60.0674 1.03463 61.1798C0.731436 62.2921 0.832502 63.4045 1.4389 64.4157C2.24743 65.8315 3.76342 66.7416 5.48154 66.7416C5.98687 66.7416 6.39114 66.6404 6.7954 66.5393L8.41246 65.7303C8.00819 66.3371 7.80606 66.7416 7.705 66.9438C7.60393 67.0449 7.50286 67.0449 7.4018 67.1461C7.0986 67.3483 6.69433 67.5506 6.189 67.8539C4.67301 68.6629 3.76342 70.2809 3.76342 72C3.76342 73.7191 4.67301 75.3371 6.29007 76.1461C6.89647 76.5506 7.0986 76.6517 7.19967 76.7528C7.50286 77.0562 7.80606 77.6629 8.10926 78.1685C8.91779 79.8876 10.5348 80.7978 12.354 80.7978C13.3647 80.7978 15.1839 80.4944 16.5988 78.3708C17.0031 77.764 17.1041 77.5618 17.2052 77.3596C17.3063 77.2584 17.4073 77.2584 17.6095 77.1573C18.0137 76.8539 18.6201 76.5506 19.1255 76.2472C20.7425 75.3371 21.45 73.5169 21.45 72.1011C21.45 70.2809 20.5404 68.764 19.0244 67.9551C18.3169 67.5506 17.9127 67.3483 17.6095 67.1461C17.4073 66.8427 17.2052 66.4382 16.902 65.9326C16.1945 64.5169 14.8807 63.5056 13.3647 63.3034L28.2214 55.618L20.5404 68.2584L21.0457 69.6742C21.3489 70.4831 21.8542 71.0899 22.4606 71.5955L23.8756 72.4045C24.3809 72.809 25.0884 72.9101 25.7958 72.9101C26.099 72.9101 26.4022 72.9101 26.6044 72.809C27.5139 72.6067 28.3225 72 28.8278 71.0899L34.8918 61.1798L34.8918 85.6517C34.8918 87.9775 36.812 90 39.2376 90C40.5515 90 41.7643 89.3933 42.5728 88.382C43.2803 87.573 43.5835 86.5618 43.4824 85.5506L43.4824 59.4607L49.6474 69.573C50.557 70.7865 51.8709 71.3933 52.9826 71.3933C53.7911 71.3933 54.4986 71.191 55.105 70.6854C56.5199 69.573 57.1263 68.764 57.3284 67.9551C57.6316 66.8427 57.4295 65.6292 56.8231 64.8202L51.4666 56.1236L73.6001 66.1348C74.1054 66.4382 74.7118 66.5393 75.3182 66.5393C75.7225 66.5393 76.0257 66.4382 76.4299 66.3371C77.6427 66.0337 78.6534 65.1236 79.1587 64.0112C80 63 80.1694 61.9888 79.8662 60.8764M43.2803 51.3708C42.4717 51.8764 41.9664 52.5843 41.6632 53.2921C40.9557 52.8876 40.1472 52.5843 39.3387 52.5843C38.9344 52.5843 38.5301 52.6854 38.1259 52.7865C37.8227 52.2809 37.4184 51.8764 37.0142 51.4719L34.1843 49.6517C33.4768 49.2472 33.3758 48.7416 33.0726 48.236C32.5673 47.2247 31.9609 46.7191 31.3545 46.3146C31.6577 45.809 31.8598 45.1011 31.8598 44.3933L31.8598 42.6742C31.8598 42.3708 31.8598 42.0674 31.7587 41.8652C32.0619 41.5618 32.3651 41.1573 32.5673 40.7528C32.9715 40.0449 33.1736 39.1348 32.9715 38.3258C33.0726 38.3258 33.2747 38.3258 33.3758 38.3258C34.1843 38.3258 34.8918 38.1236 35.4982 37.618C36.6099 36.809 37.0142 36.4045 37.2163 35.8989C37.9238 36.5056 38.8333 36.809 39.844 36.809C41.1579 36.809 42.3707 36.2022 43.2803 35.2921C43.3813 35.191 43.3813 35.0899 43.4824 34.9888C43.6845 35.191 43.8867 35.3933 44.0888 35.5955L45.5037 36.4045C45.908 36.7079 46.4133 36.9101 46.9186 36.9101C46.7165 37.2135 46.6154 37.5169 46.5144 37.8202C46.2112 38.8315 46.3122 39.9438 46.8176 40.8539C47.0197 41.2584 47.2218 41.6629 47.525 41.9663C47.424 42.2697 47.424 42.4719 47.424 42.7753L47.424 44.6966L47.424 48.4382C47.7272 48.5393 47.525 48.7416 47.525 48.9438C47.2218 49.6517 47.2218 49.8539 47.1208 50.1573C47.1208 50.1573 47.0197 50.1573 47.0197 50.0562C46.6154 49.9551 46.3122 49.8539 45.908 49.8539C45.0994 49.8539 44.392 50.0562 43.7856 50.5618"/>
	<path fill="#FCF384" d="M12.8584 77.9663C12.151 77.9663 11.6457 77.5618 11.3425 76.9551C10.9383 76.146 10.3319 75.3371 9.92769 74.8314C9.4224 74.3258 8.71499 73.8202 8.31075 73.7191C7.80546 73.4157 7.30017 72.9101 7.30017 72.2022C7.30017 71.4944 7.60334 70.9887 8.10864 70.6854C9.11922 70.1798 9.72557 69.6741 10.2309 69.4719C10.534 69.1685 11.0393 68.3595 11.6457 67.3483C11.9489 66.8427 12.4541 66.3371 13.1616 66.3371C13.869 66.3371 14.3743 66.7416 14.6774 67.3483C15.1827 68.4607 15.688 69.1685 15.7891 69.4719C16.0923 69.573 16.5975 69.9775 18.0124 70.6854C18.5177 70.9887 18.8209 71.4944 18.8209 72.2022C18.8209 72.7078 18.5177 73.4157 18.0124 73.7191C16.9007 74.4269 15.8901 74.9326 15.4859 75.2359C15.3848 75.3371 15.0817 75.7415 14.4753 76.854C14.0711 77.5618 13.4647 77.9663 12.8584 77.9663"/>
	<path fill="#2D1A0B" d="M12.8584 78.9775C11.8478 78.9775 10.9383 78.3708 10.433 77.4607C10.0287 76.7528 9.52346 75.9438 9.22029 75.5393C8.81605 75.1348 8.2097 74.7303 8.10864 74.7303C6.997 74.1236 6.39065 73.2135 6.39065 72.2022C6.39065 71.191 6.89594 70.2809 7.70441 69.7753C8.2097 69.4719 8.71499 69.2696 9.01817 68.9663C9.22029 68.8652 9.4224 68.6629 9.62452 68.5618C9.72558 68.3595 10.1298 67.955 10.8372 66.7416C11.3425 65.8314 12.252 65.2247 13.2626 65.2247C14.2732 65.2247 15.1827 65.8314 15.688 66.7416C15.9912 67.3483 16.2944 67.8539 16.4964 68.2584C16.5975 68.3595 16.5975 68.4607 16.6987 68.5618C16.7997 68.5618 16.9007 68.6629 17.0018 68.6629C17.305 68.8652 17.8102 69.1685 18.6187 69.573C19.5282 70.0786 20.0336 70.9887 20.0336 72C20.0336 72.809 19.6292 73.9213 18.7197 74.4269C18.2145 74.7303 17.7091 75.0337 17.2038 75.3371C16.9007 75.5393 16.5975 75.7416 16.3955 75.8427C16.2944 75.9438 16.0923 76.3483 15.587 77.1573C14.4753 78.7753 13.4647 78.9775 12.8584 78.9775M8.61393 72.809C9.32134 73.0112 10.0287 73.618 10.534 74.1236C11.0393 74.6292 11.6457 75.5393 12.151 76.4494C12.252 76.7528 12.4541 76.8539 12.7573 76.8539C12.8584 76.8539 13.1616 76.8539 13.5658 76.2472C14.2732 74.9326 14.5764 74.6292 14.6774 74.4269C14.9806 74.1236 15.3848 73.9213 15.8901 73.618C16.2944 73.4157 16.7997 73.1123 17.406 72.7078C17.6082 72.6067 17.7091 72.3034 17.7091 72C17.7091 71.4944 17.507 71.3932 17.406 71.3932C16.5975 70.9887 15.9912 70.6854 15.688 70.382C15.4859 70.2809 15.3848 70.1798 15.3848 70.1798C14.7785 69.4719 14.6774 69.3708 14.5764 69.1685C14.3743 68.764 14.0711 68.2584 13.7679 67.5505C13.5658 67.146 13.2626 67.146 13.1616 67.146C12.8584 67.146 12.5552 67.4494 12.5552 67.6517C11.5446 69.2696 11.2414 69.7753 10.9383 69.9775C10.534 70.2809 10.3319 70.382 10.0287 70.5843C9.62452 70.7865 9.22029 71.0899 8.61393 71.3932C8.51288 71.3932 8.31076 71.5955 8.31076 72C8.2097 72.5056 8.51288 72.7078 8.61393 72.809"/>
	<path fill="#FCF384" d="M67.4299 21.5393C66.6215 21.5393 66.1162 21.0337 65.7119 20.427C65.3077 19.5168 64.6003 18.6067 64.1961 18.1011C63.5897 17.4944 62.8823 16.9888 62.377 16.8876C61.7707 16.5842 61.2654 15.9775 61.2654 15.1685C61.2654 14.3595 61.5686 13.8539 62.1749 13.4494C63.2865 12.8427 63.994 12.3371 64.4992 12.0337C64.8024 11.7303 65.4088 10.8202 66.0151 9.70785C66.3183 9.10111 66.9246 8.59549 67.7331 8.59549C68.5416 8.59549 69.0469 8.99998 69.4511 9.70785C70.0575 10.9213 70.5627 11.7303 70.6638 12.0337C70.967 12.1348 71.5734 12.6404 73.0892 13.4494C73.6956 13.7528 73.9988 14.3595 73.9988 15.1685C73.9988 15.7753 73.6956 16.5842 73.0892 16.8876C71.8765 17.6966 70.7649 18.2022 70.2596 18.6067C70.1585 18.7079 69.8553 19.2135 69.1479 20.427C69.0469 21.3371 68.2384 21.5393 67.4299 21.5393"/>
	<path fill="#2D1A0B" d="M67.4299 22.5505C66.3183 22.5505 65.3077 21.9438 64.8024 20.9326C64.3982 20.1236 63.7918 19.3146 63.3876 18.809C62.8823 18.3034 62.276 17.8989 62.0738 17.8989C60.8611 17.191 60.2548 16.2809 60.2548 15.2696C60.2548 14.1573 60.7601 13.2472 61.6696 12.7416C62.276 12.4382 62.7813 12.1348 63.1855 11.8314C63.4887 11.6292 63.6908 11.5281 63.8929 11.427C64.095 11.2247 64.3982 10.7191 65.2067 9.40448C65.712 8.39324 66.7225 7.7865 67.7331 7.7865C68.8448 7.7865 69.8553 8.39324 70.3606 9.40448C70.6638 10.1123 70.967 10.7191 71.2702 11.0225C71.3712 11.1236 71.3712 11.3258 71.4723 11.427C71.5733 11.5281 71.6744 11.5281 71.7755 11.6292C72.1797 11.8314 72.685 12.2359 73.5945 12.6404C74.504 13.146 75.1104 14.0562 75.1104 15.2696C75.1104 16.0786 74.7062 17.2921 73.6956 17.7977C73.0892 18.2022 72.4829 18.5056 71.9776 18.809C71.5733 19.0112 71.2702 19.2135 71.068 19.4157C70.967 19.5168 70.7649 19.9213 70.2596 20.8314C69.8553 21.9438 68.8448 22.5505 67.4299 22.5505M62.7813 15.9775C63.4887 16.1798 64.2971 16.8876 64.9035 17.3932C65.4088 18 66.1162 18.9101 66.6215 20.0225C66.8236 20.4269 67.0257 20.5281 67.4299 20.5281C68.1374 20.5281 68.2384 20.2247 68.2384 20.1236C69.249 18.3034 69.5522 18 69.6532 17.8989C69.9564 17.5955 70.4617 17.3932 70.967 17.0899C71.4723 16.7865 71.9776 16.4831 72.5839 16.0786C72.786 15.9775 72.9882 15.573 72.9882 15.2696C72.9882 14.764 72.786 14.5618 72.5839 14.4607C71.6744 13.955 71.068 13.6517 70.6638 13.3483C70.4617 13.2472 70.3606 13.146 70.2596 13.146C69.6532 12.4382 69.5522 12.2359 69.3501 12.0337C69.1479 11.6292 68.7437 11.0225 68.4405 10.2135C68.2384 9.9101 68.0363 9.70785 67.6321 9.70785C67.2278 9.70785 66.9247 10.1123 66.8236 10.3146C65.712 12.1348 65.3077 12.6404 65.1056 12.8427C64.7014 13.146 64.4993 13.3483 64.1961 13.4494C63.7918 13.7528 63.2865 14.0562 62.5791 14.3595C62.4781 14.4607 62.1749 14.6629 62.1749 15.1685C62.276 15.573 62.6802 15.8764 62.7813 15.9775"/>
	<path fill="#F43B3B" d="M54.8987 67.0449C54.7976 67.3483 54.5955 67.5506 54.3933 67.7528C53.2817 68.5618 52.7764 68.1573 52.4732 67.8539L44.7928 55.4157C44.5907 55.1123 44.5907 55.0112 44.5907 54.809C44.5907 54.7078 44.5907 54.3033 45.096 54.1011C45.9044 53.4525 46.0055 53.4525 46.3087 53.4525C46.5108 53.5955 46.814 53.7977 47.0161 54L54.6965 66.4382C54.8987 66.5393 54.9997 66.7416 54.8987 67.0449"/>
	<path fill="#2D1A0B" d="M53.3835 69.3708C52.7771 69.3708 52.1707 69.0674 51.6654 68.4607L43.8833 55.8202C43.5422 55.5168 43.5422 55.1123 43.5422 54.6067C43.5422 54.3033 43.7822 53.5955 44.5908 53.0899C45.7025 52.2768 46.2078 52.2768 46.7132 52.382C47.1174 52.4831 47.6228 52.7865 47.926 53.191L55.7081 65.7303C56.0154 66.1348 56.1123 66.6404 55.9102 67.1461C55.8091 67.5506 55.4049 68.0562 55.0006 68.3595C53.9899 69.2697 53.6868 69.3708 53.3835 69.3708M53.0803 67.3483C53.0803 67.4494 53.0803 67.4494 53.0803 67.3483M53.2825 67.1461C53.2825 67.2472 53.2825 67.2472 53.2825 67.1461C53.7878 66.8427 53.7878 66.8427 53.8889 66.7416L46.3089 54.4045C46.3089 54.4045 46.3089 54.4045 46.2078 54.3033L53.2825 67.1461M46.511 54.3033C46.41 54.3033 46.41 54.3033 46.511 54.3033"/>
	<path fill="#F43B3B" d="M45.8441 32.663L54.6966 18.5056C54.7976 18.3034 54.9998 18.2023 55.2019 18.2023C55.3029 18.2023 55.3029 18.2023 55.404 18.2023L56.6167 19.0113C56.8188 19.2135 56.9199 19.5169 56.8188 19.7191L48.0267 33.9776C47.8246 34.281 47.5214 34.281 47.4204 34.1798L46.1066 33.3708C45.8441 33.1686 45.8441 32.8652 45.8441 32.663"/>
	<path fill="#2D1A0B" d="M47.622 35.2922C47.3187 35.2922 47.0155 35.191 46.8134 35.0898L45.6005 34.2805C44.8891 33.7747 44.6909 32.8643 45.0952 32.2573L53.8885 18.0945C54.3938 17.351 55.3035 17.1841 55.9099 17.4876L57.2239 18.2969C57.9353 18.8027 58.1335 19.7131 57.7292 20.3201L48.7338 34.9887C48.3295 35.0898 48.0263 35.2922 47.622 35.2922M47.8241 33.2689C47.9252 33.2689 47.8241 33.2689 47.8241 33.2689M47.0155 32.7631L55.6067 19.612L47.0155 32.7631"/>
	<path fill="#F43B3B" d="M23.7474 20.3416C23.8738 20.0382 23.9748 19.836 24.1769 19.7349C25.0865 19.2293 25.1875 19.1281 25.2886 19.1281C25.3896 19.1281 25.3896 19.1281 25.4907 19.1281C25.7939 19.2293 25.996 19.4315 26.1981 19.6337L35.0912 33.6899C35.1923 33.791 35.2933 33.8921 35.1923 34.1955C35.0912 34.4989 34.8891 34.7011 34.687 34.9034C33.5754 35.7124 32.969 35.3079 32.7669 35.0045L23.8738 20.9483C23.7474 20.7461 23.7474 20.5439 23.7474 20.3416"/>
	<path fill="#2D1A0B" d="M33.6764 36.5057C33.0701 36.5057 32.3627 36.1012 31.9584 35.5956L22.9642 21.4382C22.6784 21.1349 22.56 20.6293 22.6784 20.1236C22.8632 19.618 23.1664 19.1124 23.6716 18.9101C24.6822 18.0971 25.1875 18.0971 25.7939 18.2023C26.1981 18.3034 26.7034 18.6068 27.0066 19.0113L36.0008 33.1686C36.3039 33.472 36.3039 33.9776 36.2029 34.4832C36.1018 34.8877 35.6976 35.3933 35.2934 35.6967C34.2828 36.4046 33.9796 36.5057 33.6764 36.5057M33.5754 34.3821C34.0807 34.0787 34.0807 34.0787 34.1817 33.9776L25.4907 20.2248L33.5754 34.3821M34.1817 34.1798C34.1817 34.281 34.2828 34.281 34.1817 34.1798"/>
	<path fill="#F43B3B" d="M28.9266 44.5955C28.9266 44.8989 28.7245 45.2023 28.3203 45.2023L11.2414 45.2023C10.9382 45.2023 10.7361 44.8989 10.7361 44.5955L10.7361 42.8764C10.7361 42.5731 10.9382 42.2697 11.3424 42.2697L28.3203 42.2697C28.6234 42.2697 28.9266 42.4719 28.9266 42.8764L28.9266 44.5955"/>
	<path fill="#2D1A0B" d="M28.3203 46.3146L11.2415 46.3146C10.433 46.3146 9.7256 45.6068 9.7256 44.6966L9.7256 42.9776C9.7256 42.0674 10.433 41.3596 11.3425 41.3596L28.3203 41.3596C29.2299 41.3596 29.9373 42.0674 29.9373 42.9776L29.9373 44.6966C29.9373 45.5056 29.2299 46.3146 28.3203 46.3146M11.7468 44.2921L27.9161 44.2921L27.9161 43.2809L11.7468 43.2809L11.7468 44.2921"/>
	<path fill="#F43B3B" d="M3.46635 27.5056C3.66201 27.2023 4.06624 26.8989 4.36942 26.7528C4.47047 26.7528 4.77365 26.7528 4.97577 26.7528L29.4319 37.8202C29.7351 37.9213 30.0382 38.3258 30.1394 38.7303C30.1394 38.8315 30.2404 39.1348 30.1394 39.3371C29.9372 39.8427 29.533 40.1461 29.1287 40.2472C29.0277 40.2472 28.7245 40.3483 28.5224 40.2472L4.06624 29.2248C3.46635 28.9214 3.35883 28.1124 3.46635 27.5056"/>
	<path fill="#2D1A0B" d="M28.9266 41.3596C28.6235 41.3596 28.3203 41.2584 28.1182 41.1573L3.76309 30.1349C2.7525 29.7304 2.24721 28.5169 2.65145 27.3034C2.95462 26.5955 3.45991 26.0899 4.16732 25.8213C4.67261 25.8213 5.17791 25.8213 5.48108 25.9888L29.8362 37.0112C30.4425 37.2136 30.9478 37.8203 31.1499 38.5282C31.251 39.0338 31.251 39.5394 31.0489 39.9439C30.6446 40.6517 30.1393 41.1573 29.4319 41.3596C29.2298 41.3596 29.1287 41.3596 28.9266 41.3596M4.4705 27.9102C4.4705 28.1124 4.4705 28.2135 4.4705 28.2135L28.9266 39.236C29.0277 39.236 29.0277 39.1348 29.1287 39.1348C29.2298 38.8315 29.1287 38.8315 29.1287 38.8315L4.67261 27.809C4.57156 27.809 4.4705 27.9102 4.4705 27.9102"/>
	<path fill="#F43B3B" d="M50.3574 50.6629C50.5531 50.3596 50.9573 50.0562 51.2605 49.9101C51.3616 49.9101 51.6647 49.9101 51.8669 49.9101L76.323 60.9775C76.6261 61.0786 76.9294 61.4831 77.0304 61.8876C77.0304 61.9888 77.1314 62.2921 77.0304 62.4944C76.8282 63 76.424 63.3034 76.0199 63.4045C75.9187 63.4045 75.6155 63.5056 75.4135 63.4045L50.9573 52.382C50.3574 52.0787 50.2499 51.2697 50.3574 50.6629"/>
	<path fill="#2D1A0B" d="M75.8177 64.5168C75.5146 64.5168 75.2114 64.4157 75.0093 64.3147L50.6542 53.2922C49.6436 52.8877 49.1383 51.6742 49.5425 50.4607C49.8457 49.7528 50.351 49.2472 51.0584 48.9785C51.5637 48.9785 52.069 48.9785 52.3722 49.1461L76.7273 60.1685C77.3336 60.3708 77.8389 60.9776 78.041 61.6854C78.1421 62.191 78.1421 62.6966 77.94 63.1012C77.5357 63.8091 77.0304 64.3147 76.323 64.4157C76.222 64.4157 76.0198 64.5168 75.8177 64.5168M51.3616 51.0675C51.3616 51.2697 51.3616 51.3708 51.3616 51.3708L75.8177 62.3932C75.9188 62.3932 75.9188 62.2921 76.0198 62.2921C76.1209 62.09 76.0198 62.09 76.0198 62.09L51.5637 51.0675C51.4627 50.9663 51.4627 50.9663 51.3616 51.0675"/>
	<path fill="#F43B3B" d="M49.6018 38.9326C49.7447 38.6292 50.0479 38.2247 50.4521 38.0225L71.5733 26.7977C71.7754 26.5955 71.9776 26.5955 72.1797 26.5955C72.2807 26.5955 72.3818 26.5955 72.4829 26.5955C72.786 26.6966 73.1903 27 73.3924 27.5056C73.5945 27.809 73.5945 28.1124 73.4934 28.3146C73.3924 28.618 73.0892 29.0225 72.685 29.2247L51.6648 40.3483C51.1595 40.4494 50.7553 40.4494 50.3511 40.3483C50.149 40.2472 49.9468 40.0449 49.8458 39.8427C49.6018 39.5393 49.6018 39.2359 49.6018 38.9326"/>
	<path fill="#2D1A0B" d="M50.9574 41.6629C50.5532 41.6629 50.149 41.5618 49.8458 41.4607C49.3405 41.2584 49.0373 40.8539 48.9363 40.4494C48.6737 39.8427 48.6737 39.2359 48.6737 38.7303C48.9363 38.1236 49.4415 37.618 50.0479 37.2135L71.1691 26.0899C71.6744 25.7824 72.1797 25.7824 72.786 25.8876C73.1903 25.9888 73.8977 26.3933 74.3019 27.3034C74.6051 27.809 74.6051 28.3146 74.504 28.9214C74.3019 29.5281 73.7966 30.0337 73.1903 30.4382L51.968 41.6629C51.6648 41.5618 51.3617 41.6629 50.9574 41.6629M50.7553 39.5393C50.8564 39.5393 51.0585 39.5393 51.2606 39.5393L72.2807 28.4157C72.5839 28.3146 72.5839 28.2135 72.5839 28.1124C72.3818 27.7079 72.1797 27.6067 72.1797 27.6067L50.9574 38.8314C50.7553 38.9326 50.6542 39.0337 50.6542 39.1348M49.6437 38.9326L50.6542 39.2359L49.6437 38.9326"/>
	<path fill="#F43B3B" d="M50.6542 45.3034L50.6542 43.1798C50.6542 42.7753 50.9574 42.7753 51.0585 42.7753L71.2701 42.9776C71.5733 42.9776 71.6743 43.2809 71.6743 43.382L71.6743 45.3034C71.6743 45.6068 71.3712 45.7079 71.2701 45.7079L51.968 45.5056C51.6648 45.4045 51.3617 45.4045 51.0585 45.4045C50.9574 45.3034 50.8564 45.3034 50.6542 45.3034C50.6542 45.4045 50.6542 45.3034 50.6542 45.3034"/>
	<path fill="#2D1A0B" d="M71.2702 46.618L51.7659 46.4158C51.4627 46.3146 51.1595 46.3146 50.7553 46.3146L49.5426 46.5169L49.5426 45.2023L49.5426 43.1798C49.5426 42.3708 50.25 41.8652 51.0585 41.8652L71.2702 42.0674C72.0786 42.0674 72.685 42.6742 72.685 43.4832L72.685 45.4045C72.685 46.0113 72.0786 46.618 71.2702 46.618M52.1701 44.3933L70.6638 44.5955L51.7659 43.7865C51.8669 44.3933 52.0691 44.3933 52.1701 44.3933"/>
	<path fill="#F43B3B" d="M38.8304 4.55051C38.8304 3.84264 39.5378 3.2359 40.1442 3.2359C40.8516 3.2359 41.4579 3.94376 41.4579 4.55051L41.4579 32.764C41.4579 33.1685 41.3569 33.3707 41.2558 33.4719C41.0537 33.7752 40.6494 33.9775 40.1442 33.9775C39.4367 33.9775 38.8304 33.2696 38.8304 32.6629L38.8304 4.55051"/>
	<path fill="#2D1A0B" d="M40.1442 34.9888C38.8304 34.9888 37.8198 33.7753 37.8198 32.6629L37.8198 4.44944C37.8198 3.13484 39.0325 2.1236 40.1442 2.1236C41.4579 2.1236 42.4685 3.33708 42.4685 4.44944L42.4685 32.764C42.5696 33.1685 42.3675 33.6742 42.0643 34.1798C41.559 34.6854 40.8516 34.9888 40.1442 34.9888M40.4473 32.9663C40.4473 33.0674 40.4473 33.0674 40.4473 32.9663M40.1442 4.2472C40.0431 4.2472 39.841 4.34832 39.841 4.55057L39.841 32.764C39.841 32.8652 39.9421 33.0674 40.1442 33.0674C40.2452 33.0674 40.3463 33.0674 40.4473 32.9663L40.4473 4.55057C40.3463 4.44944 40.2452 4.2472 40.1442 4.2472"/>
	<path fill="#F43B3B" d="M26.5013 69.7752C26.4002 69.8764 26.2992 69.9775 26.1981 69.9775C26.097 69.9775 25.8949 69.9775 25.8949 69.9775L24.5812 69.1685C24.278 69.0674 24.278 68.8651 24.278 68.6629L33.4743 53.5955C33.5754 53.3932 33.7775 53.2921 33.9796 53.2921L35.3944 54.2022C35.5965 54.3033 35.6976 54.5056 35.6976 54.7078L26.5013 69.7752"/>
	<path fill="#2D1A0B" d="M26.097 70.9887C25.7939 70.9887 25.4907 70.8876 25.2886 70.7865L24.0759 69.9775C23.5706 69.573 23.3685 69.1685 23.3685 68.9663L32.5648 52.9887C32.969 52.4831 33.3732 52.2809 33.5753 52.1797L35.8997 53.191C36.4049 53.5955 36.6071 54 36.6071 54.2022L27.3097 70.2809C27.1076 70.5842 26.8044 70.7865 26.4002 70.8876C26.2992 70.9887 26.1981 70.9887 26.097 70.9887M25.4907 68.4606L34.3839 54.7078L25.4907 68.4606"/>
	<path fill="#F43B3B" d="M40.5475 86.4606C40.2443 86.764 39.8401 86.9662 39.4358 86.9662C38.7284 86.9662 38.1221 86.2584 38.1221 85.6516L38.1221 57.0337C38.1221 56.3258 38.8295 55.7191 39.4358 55.7191C40.1432 55.7191 40.7496 56.4269 40.7496 57.0337L40.7496 85.6516C40.8507 86.1572 40.6485 86.3595 40.5475 86.4606"/>
	<path fill="#2D1A0B" d="M39.4367 87.9776C38.123 87.9776 37.1124 86.7641 37.1124 85.6517L37.1124 57.0337C37.1124 55.7191 38.3251 54.7079 39.4367 54.7079C40.7505 54.7079 41.7611 55.9214 41.7611 57.0337L41.7611 85.7528C41.8621 86.1573 41.66 86.663 41.2558 87.1686C40.8515 87.6742 40.1441 87.9776 39.4367 87.9776M39.7399 85.9551C39.7399 85.9551 39.7399 86.0562 39.7399 85.9551M39.4367 56.8315C39.3357 56.8315 39.1336 56.9326 39.1336 57.1349L39.1336 85.7528C39.1336 85.854 39.2346 86.0562 39.4367 86.0562C39.5378 86.0562 39.6388 86.0562 39.7399 85.9551L39.7399 57.1349C39.7399 57.0337 39.6388 56.8315 39.4367 56.8315"/>
	<path fill="#F43B3B" d="M29.8361 51.5731L6.39064 63.809C5.78429 64.0112 4.97582 63.809 4.57159 63.1011C4.40415 62.7977 4.40415 62.4944 4.40415 62.2921C4.57159 61.9887 4.87476 61.5842 5.279 61.382L28.8256 49.1461C29.0278 48.9438 29.2299 48.9438 29.4319 48.9438C29.5331 48.9438 29.6341 48.9438 29.7351 48.9438C30.0383 49.045 30.4426 49.3483 30.6446 49.854C30.8468 50.1573 30.8468 50.4607 30.7458 50.6629C30.5436 51.0674 30.2404 51.3708 29.8361 51.5731"/>
	<path fill="#2D1A0B" d="M6.00736 64.9213C5.1989 64.9213 4.18831 64.5169 3.68302 63.6068C3.37575 63.1012 3.37575 62.4945 3.4809 61.9888C3.68302 61.382 4.18831 60.8764 4.79466 60.472L28.3412 48.236C28.7456 47.9733 29.3519 47.9733 29.9583 47.9733C30.3624 48.1349 31.0698 48.5393 31.4741 49.4495C31.7773 49.9551 31.7773 50.4607 31.6761 51.0674C31.4741 51.6742 30.9688 52.1798 30.3624 52.5843L6.81583 64.8203C6.51265 64.9213 6.20948 64.9213 6.00736 64.9213M29.3519 49.9551L5.70419 62.2922C5.50207 62.3932 5.40101 62.4945 5.40101 62.5956C5.60313 62.8988 5.9063 62.8988 6.00736 62.8988L29.3519 50.7641C29.5539 50.6629 29.6551 50.5618 29.6551 50.4607C29.5539 50.0562 29.4529 49.9551 29.3519 49.9551"/>
</svg>
