<?xml version="1.0" encoding="utf-8" ?>
<svg xmlns="http://www.w3.org/2000/svg" xmlns:xlink="http://www.w3.org/1999/xlink" width="68" height="134">
	<path fill="white" d="M68 57.1114C68 55.6988 67.4015 54.2861 66.4041 53.2771L38.6755 25.2259C41.568 21.7952 44.5603 17.9608 45.3583 15.5392C46.4554 12.2093 45.7572 7.97139 43.5629 4.84337C41.3685 1.71536 37.9773 0 34 0C30.0975 0 26.7063 1.71536 24.4122 4.84337C22.2178 7.97139 21.4199 12.1084 22.6168 15.5392C23.6142 18.6672 27.0055 22.8042 29.1999 25.2259L1.57096 53.1762C-0.523652 55.2952 -0.523652 58.7259 1.57096 60.9458L28.4019 88.0889C27.3047 89.4006 26.7063 91.0151 26.7063 92.8313C26.7063 94.3449 27.205 95.7575 28.0029 96.9684C26.806 98.2801 26.1078 100.096 26.1078 102.014L26.1078 129.56C26.1078 131.982 28.1027 134 30.5963 134L37.678 134C40.1716 134 42.1665 131.982 42.1665 129.56L42.1665 102.014C42.1665 100.096 41.4683 98.381 40.2714 96.9684C41.0693 95.7575 41.568 94.3449 41.568 92.8313C41.568 91.0151 40.8698 89.2997 39.7726 87.988L66.6036 60.9458C67.4015 59.9367 68 58.5241 68 57.1114M28.3022 13.622C27.8034 12.1084 28.2024 9.98946 29.2996 8.375C30.3968 6.86145 31.9927 6.05422 34 6.05422C35.9824 6.05422 37.5783 6.86145 38.6755 8.375C39.7726 9.98946 40.1716 12.0075 39.6729 13.622C39.3737 14.631 37.2791 17.5572 33.8878 21.4925C31.7932 19.1717 29.0004 15.741 28.3022 13.622"/>
	<path fill="#2D1A0B" d="M34.0873 27.4457L32.6909 26.0331C32.3917 25.7302 26.0081 19.1716 24.512 14.9337C23.6143 12.1083 24.2127 8.67759 26.1079 6.05409C27.9032 3.4306 30.7958 2.01795 34.0873 2.01795C37.3788 2.01795 40.1716 3.4306 42.0667 6.05409C43.962 8.67759 44.5603 12.1083 43.6627 14.9337C42.7649 17.6581 37.678 23.6113 35.5835 25.9321L34.0873 27.4457M33.9876 4.03602C31.3942 4.03602 29.1002 5.14596 27.7037 7.16403C26.2076 9.28301 25.7089 12.0074 26.4071 14.2273C27.604 17.8598 33.2894 23.8132 33.9876 24.5194C37.0797 20.9879 40.9697 16.2453 41.568 14.2273C42.2663 12.0074 41.7675 9.28301 40.2715 7.16403C38.875 5.24687 36.5809 4.03602 33.9876 4.03602"/>
	<path fill="#F43B3B" d="M32.3045 87.7989L3.67817 58.8396C2.78048 57.9314 2.78048 56.3169 3.67817 55.4088L32.3045 26.4494C33.2022 25.5413 34.7981 25.5413 35.6958 26.4494L64.3221 55.4088C65.2198 56.3169 65.2198 57.9314 64.3221 58.8396L35.6958 87.7989C34.7981 88.7069 33.2022 88.7069 32.3045 87.7989"/>
	<path fill="#2D1A0B" d="M34.0001 89.5017C33.09 89.5017 32.1923 89.0981 31.5938 88.4927L2.9675 59.5333C1.67083 58.2216 1.67083 56.0017 2.9675 54.6899L31.5938 25.7306C32.8905 24.4189 35.0848 24.4189 36.3815 25.7306L65.0078 54.6899C65.6063 55.2954 66.0053 56.2035 66.0053 57.1242C66.0053 58.0198 65.6063 58.9279 65.0078 59.5333L36.3815 88.4927C35.783 89.0981 34.8854 89.5017 34.0001 89.5017M34.0001 26.7396C33.5887 26.7396 33.2895 26.8405 32.9902 27.1433L4.3639 56.1026C3.76544 56.708 3.76544 57.5152 4.3639 58.1207L32.9902 87.08C33.4889 87.5845 34.4864 87.5845 34.9851 87.08L63.6114 58.1207C63.9107 57.818 64.0104 57.5152 64.0104 57.1242C64.0104 56.708 63.9107 56.4053 63.6114 56.1026L34.9851 27.1433C34.6859 26.8405 34.3866 26.7396 34.0001 26.7396"/>
	<path fill="#FCD11A" d="M39.081 129.56C39.081 130.267 38.3828 130.973 37.5848 130.973L30.503 130.973C29.7051 130.973 29.0069 130.367 29.0069 129.56L29.0069 102.014C29.0069 99.39 31.301 97.271 33.9941 97.271C36.7869 97.271 38.9812 99.39 38.9812 102.014L38.9812 129.56"/>
	<path fill="#2D1A0B" d="M37.5892 131.982L30.5042 131.982C29.1071 131.982 28.0095 130.872 28.0095 129.56L28.0095 102.014C28.0095 98.7847 30.7038 96.2621 34 96.2621C37.2899 96.2621 39.9906 98.8856 39.9906 102.014L39.9906 129.56C40.084 130.872 38.9864 131.982 37.5892 131.982M34 98.2802C31.8015 98.2802 30.0052 99.9955 30.0052 102.014L30.0052 129.56C30.0052 129.762 30.2048 129.964 30.5042 129.964L37.5892 129.964C37.8886 129.964 38.0882 129.762 38.0882 129.56L38.0882 102.014C38.0882 99.9955 36.292 98.2802 34 98.2802"/>
	<path fill="#FCD11A" d="M29.711 92.8313C29.711 95.253 31.7059 97.2711 34.0997 97.2711C36.4936 97.2711 38.4884 95.253 38.4884 92.8313C38.4884 90.4096 36.4936 88.3915 34.0997 88.3915C31.6061 88.3915 29.711 90.4096 29.711 92.8313"/>
	<path fill="#2D1A0B" d="M34 98.2801C31.0077 98.2801 28.6138 95.8584 28.6138 92.8313C28.6138 89.8042 31.0077 87.3825 34 87.3825C36.9923 87.3825 39.3862 89.8042 39.3862 92.8313C39.3862 95.8584 36.9923 98.2801 34 98.2801M34 89.5015C32.1049 89.5015 30.6087 91.015 30.6087 92.9322C30.6087 94.8494 32.1049 96.3629 34 96.3629C35.8951 96.3629 37.3913 94.8494 37.3913 92.9322C37.3913 91.015 35.8951 89.5015 34 89.5015"/>
	<path fill="#FCD11A" d="M23.1779 57.225C23.1779 61.1602 25.2726 64.7928 28.6638 66.8108C32.0551 68.8289 36.1446 68.8289 39.5359 66.8108C42.9272 64.7928 45.0218 61.1602 45.0218 57.225C45.0218 53.2898 42.9272 49.6572 39.5359 47.6391C36.1446 45.6211 32.0551 45.6211 28.6638 47.6391C25.2726 49.6572 23.1779 53.2898 23.1779 57.225"/>
	<path fill="#2D1A0B" d="M34.0499 69.2199C31.9553 69.2199 29.9604 68.7154 28.0653 67.6055C24.3748 65.4865 22.0807 61.4504 22.0807 57.225C22.0807 52.9744 24.3748 48.9383 28.0653 46.8193C31.7558 44.7004 36.2442 44.7004 39.9348 46.8193C43.6253 48.9383 45.9194 52.9744 45.9194 57.225C45.9194 61.4504 43.6253 65.4865 39.9348 67.6055C38.1394 68.7154 36.1445 69.2199 34.0499 69.2199M34.0499 47.2229C32.3543 47.2229 30.6586 47.6266 29.0627 48.5347C25.9707 50.351 24.0756 53.6808 24.0756 57.225C24.0756 60.744 25.9707 64.0739 29.0627 65.8901C32.1548 67.7064 35.945 67.7064 38.9373 65.8901C42.0294 64.0739 43.9245 60.744 43.9245 57.225C43.9245 53.6808 42.0294 50.351 38.9373 48.5347C37.4412 47.7275 35.7455 47.2229 34.0499 47.2229"/>
</svg>
