<?xml version="1.0" encoding="utf-8" ?>
<svg xmlns="http://www.w3.org/2000/svg" xmlns:xlink="http://www.w3.org/1999/xlink" width="140" height="100">
	<path fill="white" d="M38.0028 100C35.4111 100 33.2182 98.607 31.9223 96.6169C30.4271 97.6119 28.6329 98.209 26.739 98.209C25.3435 98.209 23.9479 97.9104 22.6521 97.3134L5.40749 89.1542C3.11486 88.0597 1.4203 86.1692 0.523184 83.7811C-0.274255 81.393 -0.174575 78.9055 0.921903 76.6169C2.51678 73.3333 5.80621 71.2438 9.39469 71.2438C9.69372 71.2438 10.0924 71.2438 10.3915 71.3433L29.3306 26.6667C33.2182 17.6119 41.6909 11.4428 51.4596 10.6468L51.4596 4.47761C51.4596 1.99005 53.4532 0 55.9451 0L61.6269 0C65.2154 0 68.5048 1.59204 70.6978 4.0796C72.8907 1.59204 76.1801 0 79.7686 0L85.4504 0C87.8427 0 89.8363 1.99005 89.8363 4.37811L89.8363 10.5473C99.6049 11.2438 108.177 17.4129 112.065 26.4677L131.104 71.6418C134.892 71.8408 138.181 74.3284 139.477 77.9104C140.274 80.2985 140.175 82.7861 139.078 85.0746C137.982 87.3632 136.088 89.0547 133.695 89.8507L115.753 96.2189C114.756 96.6169 113.66 96.7164 112.563 96.7164C111.168 96.7164 109.872 96.4179 108.676 95.9204C107.48 98.3085 105.087 100 102.296 100L38.0028 100M35.1121 84.2786C35.2118 84.4776 35.3114 84.6766 35.4111 84.8756L35.4111 83.4826"/>
	<path fill="#F43B3B" d="M130.406 76.5174L109.573 26.9653C105.984 18.408 97.5116 12.7364 88.1417 12.7364L54.0512 12.7364C44.5816 12.7364 36.1088 18.408 32.4207 27.0648L11.4879 76.4179L31.4239 84.8756L38.5011 68.1592L38.5011 90.2487L103.692 90.2487L103.692 68.6567L110.57 84.8756L130.406 76.5174"/>
	<path fill="#2D1A0B" d="M104.589 91.3433L37.4046 91.3433L37.4046 73.1343L31.8226 86.2687L9.9927 77.0149L31.3242 26.7662C35.2117 17.7115 44.0832 11.8408 53.9515 11.8408L88.042 11.8408C97.8106 11.8408 106.582 17.6119 110.371 26.6667L131.602 77.1144L109.772 86.3682L104.389 73.7313L104.389 91.3433M39.3982 89.3532L102.595 89.3532L102.595 63.8806L111.068 83.7811L129.21 76.1194L108.676 27.5622C105.187 19.3035 97.1128 13.9304 88.1417 13.9304L54.0512 13.9304C44.9803 13.9304 36.8066 19.3035 33.3178 27.6617L12.684 76.1194L30.8258 83.7811L39.3982 63.4826L39.3982 89.3532"/>
	<path fill="#F0FBFF" d="M24.0476 94.0299L6.80297 85.8707C3.61322 84.3781 2.2177 80.4975 3.7129 77.3135C5.2081 74.1294 9.09561 72.7363 12.2854 74.2289L29.53 82.3881C32.7197 83.8806 34.1152 87.7612 32.62 90.9453C31.1249 94.1294 27.2374 95.5224 24.0476 94.0299"/>
	<path fill="#2D190C" d="M26.8385 95.6219C25.7421 95.6219 24.6456 95.4229 23.6488 94.9254L6.40418 86.7662C2.71603 84.9752 1.12115 80.5971 2.91539 76.9155C4.70962 73.2339 9.09553 71.6418 12.7837 73.4329L30.0283 81.5921C31.8225 82.4876 33.218 83.9801 33.8161 85.7712C34.5139 87.6617 34.4142 89.6518 33.5171 91.4428C32.3209 94.0299 29.6296 95.6219 26.8385 95.6219M24.5459 93.1344C27.2373 94.4279 30.5267 93.2339 31.8225 90.5473C32.4206 89.2538 32.5203 87.7612 32.0219 86.3682C31.5235 84.9752 30.5267 83.8806 29.2309 83.2836L11.9862 75.1244C9.29489 73.8309 6.00546 75.0249 4.70962 77.7115C3.41379 80.398 4.60994 83.6816 7.3013 84.9752L24.5459 93.1344"/>
	<path fill="#F0FBFF" d="M133.022 86.4879L115.08 92.856C111.69 94.05 108.002 92.259 106.906 88.9754C105.71 85.5923 107.504 81.9108 110.793 80.8163L128.736 74.4481C132.125 73.2541 135.813 75.0451 136.909 78.3287C138.205 81.7118 136.411 85.3933 133.022 86.4879"/>
	<path fill="#2D190C" d="M112.962 94.2289C111.865 94.2289 110.769 94.0299 109.772 93.5324C107.978 92.6369 106.582 91.1443 105.984 89.3533C104.589 85.4727 106.682 81.2936 110.47 79.9006L128.412 73.5324C130.306 72.8359 132.3 72.9354 134.094 73.8309C135.888 74.7264 137.284 76.219 137.882 78.01C139.277 81.8906 137.184 86.0697 133.396 87.4627L115.454 93.8309C114.656 94.1294 113.759 94.2289 112.962 94.2289M130.904 75.0249C130.306 75.0249 129.708 75.1244 129.11 75.3234L111.168 81.6916C108.377 82.6866 106.881 85.7712 107.878 88.6568C108.377 90.0498 109.373 91.1443 110.669 91.7413C111.965 92.3384 113.46 92.4379 114.856 91.9403L132.798 85.5722C135.589 84.5772 137.084 81.4926 136.088 78.607C135.589 77.214 134.592 76.1195 133.297 75.5224C132.499 75.2239 131.702 75.0249 130.904 75.0249"/>
	<path fill="#FCD11A" d="M69.4019 12.8359L56.1445 12.8359C55.3471 12.8359 54.6493 12.1393 54.6493 11.3433L54.6493 3.7811C54.6493 2.98508 55.3471 2.28856 56.1445 2.28856L61.8262 2.28856C66.8102 2.28856 70.8971 6.36816 70.8971 11.3433C70.8971 12.1393 70.1993 12.8359 69.4019 12.8359"/>
	<path fill="#2D1A0B" d="M69.4019 13.8308L56.1445 13.8308C54.749 13.8308 53.6525 12.7363 53.6525 11.3433L53.6525 3.78109C53.6525 2.38806 54.749 1.29353 56.1445 1.29353L61.8262 1.29353C67.3086 1.29353 71.8939 5.77114 71.8939 11.3433C71.8939 12.7363 70.7974 13.8308 69.4019 13.8308M56.1445 3.38308C55.8455 3.38308 55.6461 3.58209 55.6461 3.88059L55.6461 11.4428C55.6461 11.7413 55.8455 11.9403 56.1445 11.9403L69.4019 11.9403C69.7009 11.9403 69.9003 11.7413 69.9003 11.4428C69.9003 7.06467 66.3118 3.38308 61.8262 3.38308L56.1445 3.38308"/>
	<path fill="#FCD11A" d="M72.2926 12.8359L85.7494 12.8359C86.5468 12.8359 87.1449 12.2388 87.1449 11.4428L87.1449 3.78109C87.1449 2.98507 86.5468 2.38806 85.7494 2.38806L80.0676 2.38806C75.0836 2.38806 70.9859 6.46766 70.9859 11.4428C70.9859 12.2388 71.4952 12.8359 72.2926 12.8359"/>
	<path fill="#2D1A0B" d="M85.7542 13.8308L72.2934 13.8308C70.9971 13.8308 69.9003 12.7363 69.9003 11.4428C69.9003 5.87064 74.3873 1.39303 79.971 1.39303L85.6545 1.39303C86.9508 1.39303 88.0539 2.48756 88.0539 3.78109L88.0539 11.4428C88.1473 12.7363 87.0505 13.8308 85.7542 13.8308M79.971 3.38308C75.4841 3.38308 71.8945 6.96517 71.8945 11.4428C71.8945 11.6418 72.0939 11.8408 72.2934 11.8408L85.7542 11.8408C85.9537 11.8408 86.1531 11.6418 86.1531 11.4428L86.1531 3.78109C86.1531 3.58208 85.9537 3.38308 85.7542 3.38308L79.971 3.38308"/>
	<path fill="#FCD11A" d="M67.9067 28.6567L56.0449 28.6567C55.5465 28.6567 55.1477 28.2587 55.1477 27.7612C55.1477 27.2637 55.5465 26.8657 56.0449 26.8657L67.9067 26.8657C68.4051 26.8657 68.8038 27.2637 68.8038 27.7612C68.8038 28.2587 68.4051 28.6567 67.9067 28.6567"/>
	<path fill="#2D1A0B" d="M67.9068 29.6517L56.0449 29.6517C54.9484 29.6517 54.151 28.7562 54.151 27.7612C54.151 26.7662 55.0481 25.8706 56.0449 25.8706L67.9068 25.8706C69.0033 25.8706 69.8007 26.7662 69.8007 27.7612C69.8007 28.7562 68.9035 29.6517 67.9068 29.6517"/>
	<path fill="#FCD11A" d="M87.5436 28.6567L75.6818 28.6567C75.1834 28.6567 74.7846 28.2587 74.7846 27.7612C74.7846 27.2637 75.1834 26.8657 75.6818 26.8657L87.5436 26.8657C88.042 26.8657 88.4407 27.2637 88.4407 27.7612C88.4407 28.2587 88.042 28.6567 87.5436 28.6567"/>
	<path fill="#2D1A0B" d="M87.5436 29.6517L75.6818 29.6517C74.5853 29.6517 73.7878 28.7562 73.7878 27.7612C73.7878 26.7662 74.685 25.8706 75.6818 25.8706L87.5436 25.8706C88.6402 25.8706 89.4375 26.7662 89.4375 27.7612C89.4375 28.7562 88.6402 29.6517 87.5436 29.6517"/>
	<path fill="#FCD11A" d="M75.3827 27.8607C75.3827 30.1138 73.5529 31.9403 71.2958 31.9403C69.0387 31.9403 67.209 30.1138 67.209 27.8607C67.209 25.6076 69.0387 23.7811 71.2958 23.7811C73.5529 23.7811 75.3827 25.6076 75.3827 27.8607"/>
	<path fill="#2D1A0B" d="M71.2958 33.0349C68.5048 33.0349 66.2122 30.7463 66.2122 27.9602C66.2122 25.1741 68.5048 22.8855 71.2958 22.8855C74.0869 22.8855 76.3794 25.1741 76.3794 27.9602C76.3794 30.7463 74.0869 33.0349 71.2958 33.0349M71.2958 24.7761C69.6013 24.7761 68.2057 26.1691 68.2057 27.8607C68.2057 29.5522 69.6013 30.9452 71.2958 30.9452C72.9904 30.9452 74.3859 29.5522 74.3859 27.8607C74.3859 26.1691 72.9904 24.7761 71.2958 24.7761"/>
	<path fill="#FCD11A" d="M67.9067 44.1791L56.0449 44.1791C55.5465 44.1791 55.1477 43.7811 55.1477 43.2836C55.1477 42.7861 55.5465 42.3881 56.0449 42.3881L67.9067 42.3881C68.4051 42.3881 68.8038 42.7861 68.8038 43.2836C68.8038 43.7811 68.4051 44.1791 67.9067 44.1791"/>
	<path fill="#2D1A0B" d="M67.9068 45.1741L56.0449 45.1741C54.9484 45.1741 54.151 44.2786 54.151 43.2836C54.151 42.2886 55.0481 41.3931 56.0449 41.3931L67.9068 41.3931C69.0033 41.3931 69.8007 42.2886 69.8007 43.2836C69.8007 44.2786 68.9035 45.1741 67.9068 45.1741"/>
	<path fill="#FCD11A" d="M87.5436 44.1791L75.6818 44.1791C75.1834 44.1791 74.7846 43.7811 74.7846 43.2836C74.7846 42.7861 75.1834 42.3881 75.6818 42.3881L87.5436 42.3881C88.042 42.3881 88.4407 42.7861 88.4407 43.2836C88.4407 43.7811 88.042 44.1791 87.5436 44.1791"/>
	<path fill="#2D1A0B" d="M87.5436 45.1741L75.6818 45.1741C74.5853 45.1741 73.7878 44.2786 73.7878 43.2836C73.7878 42.2886 74.685 41.3931 75.6818 41.3931L87.5436 41.3931C88.6402 41.3931 89.4375 42.2886 89.4375 43.2836C89.4375 44.2786 88.6402 45.1741 87.5436 45.1741"/>
	<path fill="#FCD11A" d="M75.3827 43.3831C75.3827 45.6362 73.5529 47.4627 71.2958 47.4627C69.0387 47.4627 67.209 45.6362 67.209 43.3831C67.209 41.13 69.0387 39.3035 71.2958 39.3035C73.5529 39.3035 75.3827 41.13 75.3827 43.3831"/>
	<path fill="#2D1A0B" d="M71.2958 48.5573C68.5048 48.5573 66.2122 46.2687 66.2122 43.4826C66.2122 40.6965 68.5048 38.408 71.2958 38.408C74.0869 38.408 76.3794 40.6965 76.3794 43.4826C76.3794 46.2687 74.0869 48.5573 71.2958 48.5573M71.2958 40.2985C69.6013 40.2985 68.2057 41.6915 68.2057 43.3831C68.2057 45.0746 69.6013 46.4677 71.2958 46.4677C72.9904 46.4677 74.3859 45.0746 74.3859 43.3831C74.3859 41.6915 72.9904 40.2985 71.2958 40.2985"/>
	<path fill="#FCD11A" d="M102.695 96.4179L38.1025 96.4179C35.8098 96.4179 34.0156 94.6268 34.0156 92.3383C34.0156 90.0497 35.8098 88.2587 38.1025 88.2587L102.695 88.2587C104.988 88.2587 106.782 90.0497 106.782 92.3383C106.782 94.6268 104.988 96.4179 102.695 96.4179"/>
	<path fill="#2D1A0B" d="M102.695 97.4129L38.1025 97.4129C35.3114 97.4129 33.0188 95.1244 33.0188 92.3383C33.0188 89.5522 35.3114 87.2636 38.1025 87.2636L102.695 87.2636C105.486 87.2636 107.779 89.5522 107.779 92.3383C107.779 95.1244 105.486 97.4129 102.695 97.4129M38.0028 89.2537C36.3082 89.2537 34.9127 90.6467 34.9127 92.3383C34.9127 94.0298 36.3082 95.4229 38.0028 95.4229L102.595 95.4229C104.29 95.4229 105.685 94.0298 105.685 92.3383C105.685 90.6467 104.29 89.2537 102.595 89.2537L38.0028 89.2537"/>
</svg>
