<?xml version="1.0" encoding="utf-8" ?>
<svg xmlns="http://www.w3.org/2000/svg" xmlns:xlink="http://www.w3.org/1999/xlink" width="72" height="148">
	<path fill="white" d="M71.8003 7.23422L52.9265 7.23422L47.2344 0L42.8405 7.33469C40.9431 6.93279 39.0458 6.63136 37.1484 6.53089L27.2621 6.02851L25.3648 42.1996C25.0652 47.6253 26.8627 52.85 30.5576 56.9695C34.2524 61.0889 39.1456 63.3999 44.5381 63.7013L46.0361 63.8018L46.0361 93.3415C43.1401 88.5187 38.846 83.1935 32.6546 80.0788C28.6602 78.0692 23.9667 77.0645 18.7739 77.0645C10.2857 77.0645 3.29542 79.7773 2.49653 80.0788L0 81.0835L0.699029 83.6959C0.898752 84.3992 5.59223 101.279 18.8738 107.91C22.8682 109.92 27.5617 110.925 32.7545 110.925C38.2469 110.925 43.0402 109.819 46.0361 108.915L46.0361 148L52.0277 148L52.0277 64.0027C60.9154 63.5003 68.3051 57.2709 70.6019 48.831C71.5007 46.3191 72 43.6062 72 40.7929L72 7.23422"/>
	<path fill="#F43B3B" d="M38.6463 19.2912L47.434 4.8228L58.5187 18.7889"/>
	<path fill="#2D1A0B" d="M36.8488 20.2959L47.3342 3.01425L60.5159 19.6931L36.8488 20.2959M47.534 6.53088L40.4438 18.1861L56.4216 17.7842L47.534 6.53088"/>
	<path fill="#F43B3B" d="M48.7323 60.3856C37.7475 60.3856 28.76 51.4433 28.76 40.2906L28.76 29.841C28.76 18.7888 37.6477 9.74605 48.7323 9.74605L68.7045 9.74605L68.7045 40.2906C68.7045 51.4433 59.8169 60.3856 48.7323 60.3856"/>
	<path fill="#2D1A0B" d="M48.7323 61.3904C37.1484 61.3904 27.7614 51.9457 27.7614 40.2906L27.7614 29.8412C27.7614 18.1861 37.1484 8.7414 48.7323 8.7414L69.7031 8.7414L69.7031 40.2906C69.7031 51.9457 60.3162 61.3904 48.7323 61.3904M48.7323 10.7509C38.2468 10.7509 29.7586 19.2913 29.7586 29.8412L29.7586 40.2906C29.7586 50.8405 38.2468 59.3809 48.7323 59.3809C59.2177 59.3809 67.7059 50.8405 67.7059 40.2906L67.7059 10.7509L48.7323 10.7509"/>
	<path fill="#F43B3B" d="M44.4736 60.1848L49.7663 60.5106C59.353 60.9886 67.4417 53.6539 67.941 44.0083C68.9397 25.7218 54.9591 10.0477 36.7843 9.1434L29.8939 8.7415L28.0725 41.8983C27.5971 51.4435 34.9868 59.6824 44.4736 60.1848"/>
	<path fill="#2D1A0B" d="M50.7169 61.4909C50.4171 61.4909 50.0173 61.4909 49.7175 61.4909L44.4212 61.1895C34.3282 60.6871 26.5336 51.9458 27.1008 41.7978L28.932 7.6362L36.8265 8.0381C55.5135 9.04285 70.0035 25.2194 68.9042 44.0082C68.4046 53.8548 60.3102 61.4909 50.7169 61.4909M44.5211 59.18L49.8175 59.4814C54.2144 59.6824 58.3116 58.2757 61.6093 55.2615C64.8071 52.3477 66.8057 48.3287 67.0056 43.9078C68.0049 26.2241 54.4143 11.0524 36.7265 10.0476L30.8306 9.74618L29.1318 41.8983C28.6322 50.941 35.5274 58.6776 44.5211 59.18"/>
	<path fill="#2D1A0B" d="M47.7337 60.3857L49.7309 60.3857L49.7309 145.488L47.7337 145.488L47.7337 60.3857"/>
	<path fill="#009042" d="M31.0569 82.1887C43.34 88.3177 47.634 104.494 47.634 104.494C47.634 104.494 32.1554 110.724 19.8725 104.595C7.58959 98.4657 3.29555 82.2892 3.29555 82.2892C3.29555 82.2892 18.774 76.0597 31.0569 82.1887"/>
	<path fill="#2D1A0B" d="M32.5549 108.312C28.3608 108.312 23.7671 107.609 19.573 105.499C7.0903 99.2696 2.59655 83.1935 2.39682 82.4902L2.99599 81.2845C3.59516 80.9831 19.0737 74.9546 31.5563 81.2845C44.039 87.514 48.5327 103.59 48.7325 104.293L48.1333 105.499C47.634 105.7 40.7436 108.312 32.5549 108.312M4.59377 82.8921C5.69225 86.3083 10.3857 98.6667 20.4717 103.69C30.5577 108.714 43.1402 105.097 46.5355 103.891C45.437 100.475 40.7436 88.1168 30.6576 83.093C20.5716 78.0693 7.98906 81.7869 4.59377 82.8921"/>
</svg>
