<?xml version="1.0" encoding="utf-8" ?>
<svg xmlns="http://www.w3.org/2000/svg" xmlns:xlink="http://www.w3.org/1999/xlink" width="104" height="128">
	<path fill="white" d="M96.0332 45.2119C91.3689 40.1884 85.1837 36.7724 78.4916 35.6672L78.4916 22.5055C78.4916 10.0471 67.4393 0 53.7508 0C40.0622 0 29.01 10.1476 29.01 22.5055L29.01 32.9545C22.0136 33.3564 15.4229 36.1695 10.1502 40.7912C-2.52434 52.1444 -3.43691 71.6358 8.02091 84.1947L49.1879 128L93.8025 88.6154C99.8863 83.0895 103.537 75.5542 104 67.416C104.449 59.1774 101.61 51.2402 96.0332 45.2119M53.7508 5.92779C63.9919 5.92779 72.4078 13.3626 72.4078 22.405L72.4078 35.1648C65.4114 35.2653 58.7192 37.7771 53.3452 42.1978C48.4782 37.1743 42.0902 34.0597 35.1952 33.1554L35.1952 22.5055C35.1952 13.3626 43.5097 5.92779 53.7508 5.92779"/>
	<path fill="#2D1A0B" d="M76.4296 48.1256L74.4025 48.1256L74.4025 22.4051C74.4025 12.2575 65.1796 3.91842 53.7269 3.91842C42.274 3.91842 33.0511 12.2575 33.0511 22.4051L33.0511 48.1256L31.024 48.1256L31.024 22.4051C31.024 11.0519 41.1592 1.909 53.7269 1.909C66.2944 1.909 76.4296 11.1523 76.4296 22.4051L76.4296 48.1256"/>
	<path fill="#F43B3B" d="M93.8307 47.2213C83.4928 35.8236 65.8576 35.0643 54.4049 45.3123L53.1887 46.4174L51.8711 44.9104C41.5332 33.5572 23.898 32.7534 12.4453 43.0015C0.99258 53.2495 0.18177 70.7315 10.5196 82.0847L49.6414 123.78L92.0063 86.3045C103.256 76.0564 104.169 58.5745 93.8307 47.2213"/>
	<path fill="#2D1A0B" d="M49.4279 125.187L9.58859 82.7787C4.41861 77.0505 1.78294 69.7145 2.0634 62.077C2.49254 54.4395 5.83782 47.405 11.5147 42.2799C17.1915 37.1547 24.6931 34.5419 32.3973 34.8199C40.1016 35.2453 47.1977 38.5616 52.3677 44.1892L53.5841 44.3902C65.4447 33.7379 83.6917 34.6424 94.4371 46.4001C105.182 58.1578 104.27 76.2466 92.4097 86.8989L49.4279 125.187M31.0795 36.8532C24.5917 36.8532 18.2052 39.1646 13.0352 43.7873C2.0634 53.6356 1.1747 70.5185 11.1092 81.4722L49.5292 122.373L91.1932 85.5925C96.4646 80.7688 99.6071 74.2367 100.013 67.1017C100.317 59.9667 97.8838 53.1331 93.1193 47.9075C83.1848 37.0542 66.1543 36.1498 55.1047 45.9981L53.0773 47.807L51.0498 45.5961C45.6771 39.7675 38.3783 36.8532 31.0795 36.8532"/>
	<path fill="white" d="M64.7703 71.3344C64.7703 64.3015 59.0946 58.6751 52 58.6751C44.9054 58.6751 39.2297 64.3015 39.2297 71.3344C39.2297 76.7599 42.6757 81.482 47.6419 83.19L47.6419 95.0456L56.4595 95.0456L56.4595 83.19C61.3244 81.482 64.7703 76.7599 64.7703 71.3344"/>
	<path fill="#2D1A0B" d="M57.473 96.0501L46.6284 96.0501L46.6284 83.8931C41.5608 81.7832 38.2162 76.7597 38.2162 71.3343C38.2162 63.7989 44.3987 57.6702 52 57.6702C59.6014 57.6702 65.7838 63.7989 65.7838 71.3343C65.7838 76.7597 62.4392 81.7832 57.3717 83.8931L57.3717 96.0501M48.6554 94.0407L55.446 94.0407L55.446 82.4865C60.7163 80.5776 63.8582 76.2573 63.8582 71.3343C63.8582 64.9041 58.5879 59.6796 52.1014 59.6796C45.6149 59.6796 40.3446 64.9041 40.3446 71.3343C40.3446 76.1569 43.4865 80.5776 48.0473 82.2856L48.7568 94.0407"/>
</svg>
