<?xml version="1.0" encoding="utf-8" ?>
<svg xmlns="http://www.w3.org/2000/svg" xmlns:xlink="http://www.w3.org/1999/xlink" width="58" height="100">
	<path fill="white" d="M4.62392 100C2.0104 100 0 98 0 95.4L0 4.6C0 2 2.0104 0 4.62392 0L53.3761 0C55.7886 0 57.8995 2.1 58 4.6L58 95.4C58 98 55.9896 100 53.3761 100L4.62392 100"/>
	<path fill="white" d="M4.62392 98.95C2.513 98.95 1.0052 97.45 1.0052 95.35L1.0052 4.55C1.0052 2.45 2.513 0.95 4.62392 0.95L53.3761 0.95C55.286 0.95 56.8943 2.65 56.9948 4.65L56.9948 95.45C56.9948 97.55 55.487 99.05 53.3761 99.05L4.62392 99.05"/>
	<path fill="#351C0B" d="M53.3761 3.9C53.8787 3.9 54.0797 4.4 54.0797 4.6L54.0797 95.4C54.0797 95.9 53.5771 96.1 53.3761 96.1L4.62394 96.1C4.12134 96.1 3.9203 95.6 3.9203 95.4L3.9203 4.6C3.9203 4.1 4.12134 3.9 4.62394 3.9L53.3761 3.9"/>
	<path fill="#2C180C" d="M53.3761 97.1L4.62394 97.1C3.51822 97.1 2.9151 96.1 2.9151 95.4L2.9151 4.6C2.9151 3.5 3.61874 2.9 4.62394 2.9L53.3761 2.9C54.4818 2.9 55.0849 3.9 55.0849 4.6L55.0849 95.4C55.0849 96.5 54.0797 97.1 53.3761 97.1M4.9255 95.1L53.0745 95.1L53.0745 4.8L4.9255 4.8L4.9255 95.1"/>
	<path fill="#442A17" d="M8.04165 9.4L20.2045 9.4L20.2045 27.4L8.04165 27.4L8.04165 9.4"/>
	<path fill="#442A17" d="M22.6169 9.4L34.7799 9.4L34.7799 27.4L22.6169 27.4L22.6169 9.4"/>
	<path fill="#442A17" d="M36.9913 9.2L49.1542 9.2L49.1542 27.2L36.9913 27.2L36.9913 9.2"/>
	<path fill="#442A17" d="M7.74005 30.5L19.903 30.5L19.903 48.5L7.74005 48.5L7.74005 30.5"/>
	<path fill="#442A17" d="M22.416 30.5L34.5788 30.5L34.5788 48.5L22.416 48.5L22.416 30.5"/>
	<path fill="#442A17" d="M36.7904 30.2L48.9533 30.2L48.9533 48.2L36.7904 48.2L36.7904 30.2"/>
	<path fill="#442A17" d="M8.04165 52L20.2045 52L20.2045 70L8.04165 70L8.04165 52"/>
	<path fill="#5B412A" d="M22.6169 52L34.7799 52L34.7799 70L22.6169 70L22.6169 52"/>
	<path fill="#5B412A" d="M36.9913 51.7L49.1542 51.7L49.1542 69.7L36.9913 69.7L36.9913 51.7"/>
	<path fill="#FFB3D6" d="M54.0797 96.3L4.22186 96.3L3.9203 57.5L54.0797 46"/>
	<path fill="#2D1A0B" d="M55.0849 97.3L3.21666 97.3L2.9151 56.7L55.0849 44.7L55.0849 97.3M5.22706 95.3L53.0745 95.3L53.0745 47.2L4.9255 58.2L5.22706 95.3"/>
	<path fill="#82B1F4" d="M28.4471 70.2C28.4471 66.1 31.3622 64.2 35.182 67C39.3033 64.1 41.9168 66.3 41.9168 70.2C41.9168 74.1 35.5841 77.7999 35.182 77.7999C34.8804 77.6 28.4471 74.3 28.4471 70.2"/>
	<path fill="#FCFCFC" d="M18.4956 73.6C18.4956 69.5 21.4107 67.6 25.2305 70.4C29.3518 67.5 31.9653 69.7 31.9653 73.6C31.9653 77.5 25.6326 81.2 25.2305 81.2C24.8284 81.1 18.4956 77.6 18.4956 73.6"/>
</svg>
