<?xml version="1.0" encoding="utf-8" ?>
<svg xmlns="http://www.w3.org/2000/svg" xmlns:xlink="http://www.w3.org/1999/xlink" width="106" height="66">
	<path fill="white" d="M92.1827 62.9632L78.4662 53.7515L48.9153 53.7515C45.1836 53.7515 41.8554 52.2331 39.6365 49.7025C38.5271 48.4877 37.7203 46.6656 37.216 44.5399L36.8126 43.0215L27.6346 43.0215L13.9182 52.2331L9.58135 55.1687L9.58135 43.1227L8.27022 42.6166C3.2274 40.6933 0 36.0368 0 30.8742L0 12.3497C0 5.56748 5.5471 0 12.3045 0L56.5804 0C62.1275 0 67.0695 3.7454 68.784 9.31288L69.1874 10.7301L93.6955 10.7301C100.453 10.7301 106 16.2975 106 23.0798L106 41.6043C106 46.9693 102.773 51.6258 97.7298 53.3466L96.4186 53.8528L96.4186 66L92.1827 62.9632"/>
	<path fill="#FFB3D6" d="M57.1969 40.2884L26.8392 40.2884L12.5176 49.9049L12.5176 40.2884C7.27307 40.2884 2.93625 35.9356 2.93625 30.6718L2.93625 12.1473C2.93625 6.88346 7.27307 2.5307 12.5176 2.5307L56.7935 2.5307C62.038 2.5307 66.4009 6.88346 66.4009 12.1473L66.4009 30.6718C66.7784 35.9356 62.4414 40.2884 57.1969 40.2884"/>
	<path fill="#2D1A0B" d="M11.5007 51.8282L11.5007 41.3006C6.15363 40.7945 1.9163 36.2393 1.9163 30.6718L1.9163 12.1472C1.9163 6.27607 6.65807 1.5184 12.5096 1.5184L56.7998 1.5184C62.6513 1.5184 67.4207 6.27607 67.4207 12.1472L67.4207 30.6718C67.5949 33.3037 66.6869 35.9356 64.77 37.9601C62.8531 40.0859 60.0282 41.3006 57.2033 41.3006L27.1385 41.3006L11.5007 51.8282M12.5096 3.54294C7.76785 3.54294 3.93408 7.38957 3.93408 12.1472L3.93408 30.6718C3.93408 35.4294 7.76785 39.2761 12.5096 39.2761L13.5185 39.2761L13.5185 47.9816L26.5332 39.2761L57.2033 39.2761C59.5238 39.2761 61.7433 38.2638 63.3576 36.6442C64.8709 35.0245 65.5771 32.8988 65.3753 30.773L65.3753 12.1472C65.3753 7.38957 61.5416 3.54294 56.7998 3.54294L12.5096 3.54294"/>
	<path fill="#FF5777" d="M26.2227 21.3589C26.2227 16.6012 29.8535 14.3742 34.7954 17.5123C40.04 14.3742 43.1665 16.6012 43.1665 21.3589C43.1665 26.1166 35.2997 29.9632 34.7954 29.9632C34.1903 29.9632 26.2227 26.1166 26.2227 21.3589"/>
	<path fill="#D7E9FF" d="M48.4963 51.1197L78.854 51.1197L93.1756 60.7362L93.1756 51.1197C98.4202 51.1197 102.757 46.7669 102.757 41.5031L102.757 22.9786C102.757 17.7148 98.4202 13.362 93.1756 13.362L49.0005 13.362C43.756 13.362 39.3465 17.7148 39.3465 22.9786L39.3465 41.5031C38.7132 46.7669 43.2517 51.1197 48.4963 51.1197"/>
	<path fill="#2C180C" d="M94.1937 62.6595L78.5511 52.1319L48.4768 52.1319C45.4492 52.1319 42.5225 50.816 40.605 48.589C38.8894 46.5644 38.082 44.0337 38.3223 41.4018L38.3223 22.9785C38.3223 17.1074 43.128 12.3497 48.9814 12.3497L93.1845 12.3497C99.0379 12.3497 103.781 17.1074 103.781 22.9785L103.781 41.5031C103.781 47.0706 99.5425 51.5245 94.1937 52.1319L94.1937 62.6595M48.9814 14.3742C44.2381 14.3742 40.4032 18.2209 40.4032 22.9785L40.4032 41.6043C40.1004 43.6288 40.7059 45.6534 42.1188 47.1718C43.6326 48.9939 46.0547 50.0061 48.4768 50.0061L79.1566 50.0061L92.1753 58.7117L92.1753 50.0061L93.1845 50.0061C97.9278 50.0061 101.763 46.1595 101.763 41.4018L101.763 22.8773C101.763 18.1196 97.9278 14.273 93.1845 14.273L48.9814 14.273"/>
	<path fill="#82B1F4" d="M62.6317 32.5951C62.6317 27.8375 66.2626 25.6105 71.2045 28.7485C76.4491 25.6105 79.5756 27.8375 79.5756 32.5951C79.5756 37.3529 71.7088 41.2014 71.2045 41.2014C70.8011 41.3007 62.6317 37.454 62.6317 32.5951"/>
</svg>
