<?xml version="1.0" encoding="utf-8" ?>
<svg xmlns="http://www.w3.org/2000/svg" xmlns:xlink="http://www.w3.org/1999/xlink" width="98" height="106">
	<path fill="white" d="M33.2584 106C30.0624 106 27.2659 105.297 24.2697 103.691C22.6717 102.989 21.6729 102.487 20.0749 102.487C15.7803 101.985 6.29213 100.379 3.49563 97.6686L0 94.1553L1.29838 90.4413C2.99625 84.017 5.89263 73.3769 16.779 52.4981C22.1723 42.1591 31.96 28.4072 34.6567 24.6932C34.357 23.0871 33.6579 19.7746 33.0587 17.0644C31.6604 12.2462 32.1598 7.92992 34.5568 4.41667C36.6542 1.50568 39.7503 0 43.3458 0C45.3433 0 48.6392 1.60606 50.7366 2.81061C53.1336 1.10417 56.03 0 58.7266 0C62.9213 0 68.015 2.71023 68.814 10.0379L68.814 11.2424C68.5143 13.7519 67.3158 18.7708 66.7166 21.0795C66.417 22.4848 66.2172 23.589 66.2172 24.2917C69.2135 28.2064 81.1985 44.4678 87.6904 60.3277C97.7778 84.4186 98.377 89.5379 97.8776 92.9508C97.6779 96.7652 93.9825 103.691 81.598 103.892C81.3982 103.892 81.1985 103.892 80.9987 103.892C79.8002 103.892 78.7016 103.792 77.7029 103.691C77.5031 103.691 77.2035 103.591 76.804 103.591C76.1049 103.491 74.1074 103.29 73.7079 103.29C71.8102 103.29 70.7116 103.591 69.5131 103.992C66.3171 105.097 63.9201 105.598 62.2222 105.598C60.3246 105.598 58.3271 105.297 56.6292 104.795C54.0325 104.294 51.4357 103.792 49.1386 103.792C46.3421 103.792 44.2447 104.193 41.9476 104.795C39.7503 105.498 33.6579 106 33.2584 106"/>
	<path fill="white" d="M33.1811 102.738C30.4846 102.738 28.0876 102.136 25.5907 100.73C23.8927 99.9273 22.3946 99.2245 19.9977 99.2245C19.9977 99.2245 7.91273 97.6186 5.6156 95.2094L3.41835 93.0011L4.11748 90.9936C5.81535 84.7701 8.51198 74.2303 19.3983 53.5522C25.4907 41.8078 37.6755 25.2453 37.6755 25.2453C37.6755 23.5389 35.8778 16.0105 35.8778 16.0105C34.6792 12.0958 35.0788 8.58252 36.8765 5.87229C38.3746 3.76434 40.5719 2.76055 43.1687 2.76055C45.0662 2.76055 50.2598 5.97267 50.7592 6.27381C50.959 6.17343 51.4583 5.67153 51.4583 5.67153C53.3559 3.9651 56.0526 2.76055 58.5494 2.76055C60.0476 2.76055 64.9415 3.36282 65.7404 10.1886C65.4408 12.9991 64.2423 18.0182 63.6431 20.126C63.0438 22.6355 63.0438 24.1412 63.0438 25.0446C63.0438 25.0446 77.5257 43.6147 84.7168 61.2814C94.6043 84.8704 95.1038 89.6886 94.7042 92.4992C94.7042 92.4992 94.5044 100.529 81.321 100.831C80.4221 100.831 79.2235 100.831 77.9252 100.63C77.326 100.529 74.3297 100.128 73.5306 100.128C71.1337 100.128 69.7355 100.529 68.437 101.031C68.1375 101.132 64.3421 102.537 62.0451 102.537C60.4471 102.537 58.6493 102.236 57.251 101.834C54.5545 101.232 51.5582 100.73 49.1072 100.73C45.7654 100.73 43.2686 101.232 41.0713 101.834C39.2736 102.236 33.4808 102.738 33.1811 102.738"/>
	<path fill="#2C180C" d="M33.259 103.791C30.4625 103.791 27.8657 103.09 25.169 101.684C23.4711 100.881 22.1726 100.278 20.0752 100.278C18.6769 100.078 7.49065 98.4717 4.99371 95.9622L2.3969 93.3523L3.2958 90.7425C4.89384 84.519 7.69041 73.9792 18.5771 53.2008C24.1702 42.3599 35.0568 27.3031 36.7548 24.9944C36.6549 23.4887 35.6561 19.072 34.957 16.2614C33.6586 12.1459 34.0581 8.3315 36.1555 5.32014C37.8534 2.91105 40.2505 1.7065 43.2468 1.7065C45.1445 1.7065 49.2394 4.01521 50.7376 5.019C50.8375 4.91862 50.9374 4.91862 50.9374 4.91862C53.0348 3.01142 55.9312 1.90726 58.6279 1.90726C62.1236 1.90726 66.1187 4.01521 66.8179 10.0379C66.5182 13.1497 65.3197 18.1686 64.7205 20.377C64.2211 22.4849 64.1212 23.7898 64.1212 24.6932C65.919 27.1023 79.0029 44.4679 85.6947 60.93C95.8172 84.9205 96.1819 89.6383 95.6825 92.6497C95.5826 93.6535 94.4839 101.583 81.4 101.785C80.1016 101.785 78.9031 101.785 77.9043 101.583C77.8044 101.583 77.4049 101.483 77.0054 101.483C76.0066 101.383 74.2088 101.081 73.7094 101.081C71.5121 101.081 70.2137 101.483 68.9153 101.884C66.8179 102.587 64.1212 103.39 62.2235 103.39C60.5256 103.39 58.6279 103.09 57.1298 102.587C54.533 102.085 51.6365 101.483 49.2394 101.483C46.0434 101.483 43.6463 101.984 41.5489 102.587C39.4514 103.39 33.5587 103.791 33.259 103.791M20.1751 98.3713C22.672 98.3713 24.3699 99.1743 26.0679 99.9773C28.4649 101.282 30.7621 101.884 33.259 101.884C33.8583 101.884 39.2517 101.383 40.7499 100.881C43.047 100.278 45.544 99.6762 49.1071 99.6762C51.7364 99.6762 54.6328 100.178 57.4294 100.78C58.9276 101.282 60.5256 101.483 62.0238 101.483C63.3222 101.483 65.4196 100.981 68.0164 100.078C69.6145 99.5758 71.1126 99.0739 73.6096 99.0739C74.2088 99.0739 75.6071 99.2747 77.2051 99.4754C77.6047 99.5758 77.9043 99.5758 78.104 99.5758C79.1028 99.7766 80.1016 99.7766 81.3001 99.7766C93.1855 99.5758 93.6849 92.7501 93.6849 92.4489C94.0844 89.8391 93.6849 85.2217 83.7971 61.733C76.7058 44.3675 62.4233 25.8978 62.2235 25.697C62.0238 23.9906 62.1236 22.4849 62.7229 19.8751C63.3222 17.6667 64.4208 12.7482 64.7205 10.6402C64.0213 4.41673 60.226 3.81445 58.528 3.81445C56.3307 3.81445 53.8338 4.81824 52.1359 6.32392C52.1359 6.32392 51.5366 6.82582 51.3369 6.9262L50.1383 6.9262C49.2394 6.32392 44.5452 3.6137 43.1469 3.6137C40.7499 3.6137 38.9521 4.51711 37.6537 6.32392C35.9557 8.73302 35.6561 11.9451 36.7548 15.5588C36.9545 16.3618 38.6524 23.2879 38.6524 25.0948C38.3528 25.8978 26.2676 42.3599 20.275 53.9035C9.4882 74.4811 6.79151 84.9205 5.09359 91.144L4.5942 92.6497L6.29212 94.3561C7.89016 96.1629 15.5807 97.6686 20.1751 98.3713"/>
	<path fill="#FFB3D6" d="M50.0375 26.8011C50.0375 26.8011 45.8427 25.195 44.5443 25.5321C43.1461 26.0984 44.0449 27.0018 44.5443 27.2026C44.5443 27.2026 44.0449 27.2026 43.7964 28.106C43.6454 29.0094 44.3446 29.5113 44.3446 29.5113C44.3446 29.5113 43.1461 30.7159 44.5443 31.1174C45.9426 31.6193 50.5368 29.5113 50.5368 29.5113C50.5368 29.5113 55.8302 32.2215 56.7291 31.5189C57.4282 30.8162 55.8302 29.9128 56.2297 29.7121C56.7291 29.5113 56.9288 29.2102 57.1286 28.5075C57.1286 27.8049 56.2297 27.303 56.2297 27.303C56.2297 27.303 57.6279 26.8011 56.7291 25.8977C55.9301 25.195 50.0375 26.8011 50.0375 26.8011"/>
	<path fill="#2D1A0B" d="M56.3295 32.6231C55.4307 32.6231 53.7328 32.2215 50.5368 30.6155C48.839 31.3181 45.6429 32.6231 44.2447 32.1212C43.3458 31.82 43.0462 31.2178 42.8464 30.8162C42.8464 30.3143 42.8464 29.9128 43.1461 29.6117C42.8464 29.2102 42.7466 28.6079 42.8464 28.0056C43.0462 27.7045 43.0462 27.5037 43.1461 27.303C42.8464 27.0018 42.8464 26.6003 42.8464 26.1988C42.8464 25.7973 43.1461 25.0947 44.2447 24.6931C45.7428 24.1912 48.839 25.2954 50.1373 25.7973C56.1298 24.1912 57.1285 25.0947 57.4282 25.2954C58.1273 25.9981 58.1273 26.6003 58.0274 26.9015C58.0274 27.1022 57.9275 27.303 57.8277 27.4034C58.0274 27.7045 58.2272 28.106 58.2272 28.5075C58.1273 29.3106 57.9275 29.7121 57.6279 30.0132C58.0274 30.5151 58.327 31.4185 57.528 32.2215C57.2284 32.4223 56.9288 32.6231 56.3295 32.6231M50.6367 28.4071C52.6342 29.4109 54.332 30.1136 55.4307 30.5151C55.2309 30.214 55.131 29.9128 55.2309 29.6117C55.93 28.7083 56.0299 28.7083 56.1298 28.5075C56.0299 28.4071 55.93 28.3068 55.8302 28.2064L53.9325 27.1022C53.533 26.9015 51.9351 27.303 50.3371 27.7045C48.04 27.0018 46.1423 26.4999 45.3433 26.4999L48.2397 28.2064L44.9438 28.2064C44.9438 28.2064 44.9438 28.3068 44.9438 28.3068C44.9438 28.5075 44.9438 28.6079 45.0437 28.6079L45.1436 30.1136C45.9426 30.1136 48.1398 29.4109 50.2372 28.5075"/>
</svg>
