<?xml version="1.0" encoding="utf-8" ?>
<svg xmlns="http://www.w3.org/2000/svg" xmlns:xlink="http://www.w3.org/1999/xlink" width="104" height="62">
	<path fill="white" d="M104 14.2062C104 10.7561 101.197 7.91489 97.794 7.91489C94.3908 7.91489 91.5881 10.7561 91.5881 14.2062C91.5881 14.5106 91.5881 14.9165 91.6882 15.2209L69.3667 31L56.0539 10.5532C57.0549 9.43699 57.6554 7.91489 57.6554 6.29133C57.6554 2.84124 54.8527 0 51.4495 0C48.0462 0 45.2435 2.84124 45.2435 6.29133C45.2435 8.11784 45.9442 9.74141 47.1453 10.8576L33.5322 31L12.3118 16.743C12.3118 16.4386 12.4119 16.1342 12.4119 15.8298C12.4119 12.3797 9.60924 9.53846 6.20597 9.53846C2.80269 9.53846 0 12.3797 0 15.8298C0 18.874 2.20212 21.4108 5.00481 22.0196C7.30703 31 12.6121 52.563 14.0135 58.2455C14.514 60.4779 16.4158 62 18.718 62L83.9808 61.6956C86.0828 61.6956 87.9846 60.275 88.5852 58.144L98.9952 20.599C98.9952 20.4975 98.9952 20.4975 98.9952 20.3961C101.898 19.7872 104 17.2504 104 14.2062"/>
	<path fill="#F43B3B" d="M16.4402 57.4337C15.139 51.7512 9.83388 30.5434 7.37475 21.1064C7.03119 19.4828 8.83292 18.2651 10.1342 19.1784L32.3556 34.0949C33.1563 34.6023 34.2574 34.3993 34.8579 33.5875L49.7722 11.7708C50.473 10.7561 52.0744 10.7561 52.7751 11.7708L67.089 33.7905C67.6896 34.6023 68.7906 34.9067 69.5913 34.2979L92.9137 17.7577C94.3151 16.743 96.1169 18.0622 95.7731 19.7872L85.3064 57.3322C85.1062 58.144 84.4055 58.6514 83.6049 58.6514L18.3421 58.9558C17.3411 58.8543 16.6404 58.2455 16.4402 57.4337"/>
	<path fill="#2D1A0B" d="M18.173 59.8691C16.871 59.8691 15.7693 58.9558 15.4688 57.6367C14.1669 52.1571 9.25937 32.5729 6.3575 21.3093C6.15463 20.1931 6.55524 18.9755 7.55677 18.2652C8.45814 17.5548 9.76013 17.5548 10.7617 18.1637L32.9956 33.0802C33.3962 33.2832 33.7968 33.1817 34.0973 32.8773L49.0201 11.0606C49.5208 10.2488 50.4222 9.8429 51.3236 9.8429C52.2249 9.8429 53.1263 10.3503 53.6271 11.1621L67.949 33.1817C68.0491 33.3846 68.2494 33.4861 68.4497 33.4861C68.65 33.4861 68.8503 33.4861 69.0506 33.3846L92.3863 16.8445C93.3878 16.1342 94.5896 16.1342 95.5911 16.8445C96.5927 17.5548 96.9933 18.7725 96.6928 19.8887L86.2769 57.4337C85.9765 58.6514 84.8748 59.4632 83.5728 59.4632L18.173 59.8691M9.25937 19.8887C9.05906 19.8887 8.85875 19.9902 8.7586 20.0917C8.65845 20.1931 8.35799 20.4976 8.45814 20.9035C11.2624 32.167 16.1699 51.7512 17.4719 57.2308C17.5721 57.6367 17.8725 57.8396 18.2731 57.8396L83.5728 57.5352C83.9734 57.5352 84.2739 57.3323 84.374 56.9264L94.7899 19.3814C94.8901 18.874 94.5896 18.5696 94.4895 18.4681C94.3893 18.3666 93.9887 18.1637 93.5881 18.4681L70.2525 35.0082C69.6515 35.4141 68.8503 35.617 68.1493 35.5156C67.4482 35.4141 66.7471 34.9067 66.3465 34.2979L52.0246 12.2782C51.8243 11.9738 51.574 11.8724 51.3236 11.8724C51.2234 11.8724 50.923 11.8724 50.6225 12.1768L35.6997 33.9935C34.7983 35.2111 33.0957 35.617 31.8939 34.7038L9.65998 19.7873C9.45967 19.8887 9.35952 19.8887 9.25937 19.8887"/>
	<path fill="#FCD11A" d="M44.0423 41.9089C44.0423 38.1544 47.2454 36.1249 50.8489 38.6617C54.9528 35.8205 57.6554 37.9514 57.6554 41.9089C57.6554 45.6634 51.0491 48.9105 50.8489 48.9105C50.6487 48.9105 44.0423 46.0693 44.0423 41.9089"/>
	<path fill="#2D1A0B" d="M50.8489 49.9248C50.1482 49.9248 43.0414 46.8815 43.0414 41.9111C43.0414 39.6795 44.0423 37.955 45.5438 37.0421C47.0452 36.2306 48.947 36.3442 50.8489 37.4478C53.5515 35.8248 55.3531 36.3442 56.2541 36.8392C57.8556 37.6507 58.7565 39.4766 58.7565 41.9111C58.7565 46.2729 51.7497 49.9248 50.8489 49.9248M47.7459 38.6651C47.3455 38.6651 46.9451 38.7665 46.5447 38.9694C45.6439 39.4766 45.0433 40.5924 45.0433 42.0126C45.0433 44.9543 49.6477 47.3887 50.8489 47.896C52.1501 47.2873 56.7546 44.5485 56.7546 42.0126C56.7546 40.491 56.2541 39.2737 55.3531 38.7665C54.4524 38.2593 53.0509 38.5637 51.4494 39.6795L50.2483 39.6795C49.4475 38.9694 48.5466 38.6651 47.7459 38.6651"/>
	<path fill="#FCD11A" d="M9.00866 15.6268C9.00866 17.4202 7.57459 18.8739 5.80558 18.8739C4.03657 18.8739 2.6025 17.4202 2.6025 15.6268C2.6025 13.8335 4.03657 12.3797 5.80558 12.3797C7.57459 12.3797 9.00866 13.8335 9.00866 15.6268"/>
	<path fill="#2D1A0B" d="M5.80558 19.8887C3.50337 19.8887 1.60154 17.9607 1.60154 15.6268C1.60154 13.2929 3.50337 11.3649 5.80558 11.3649C8.1078 11.3649 10.0096 13.2929 10.0096 15.6268C10.0096 17.9607 8.1078 19.8887 5.80558 19.8887M5.80558 13.4959C4.60443 13.4959 3.60346 14.5106 3.60346 15.7283C3.60346 16.9459 4.60443 17.9607 5.80558 17.9607C7.00674 17.9607 8.0077 16.9459 8.0077 15.7283C8.0077 14.5106 7.00674 13.4959 5.80558 13.4959"/>
	<path fill="#FCD11A" d="M54.1521 6.29134C54.1521 8.08468 52.718 9.53847 50.949 9.53847C49.18 9.53847 47.7459 8.08468 47.7459 6.29134C47.7459 4.49799 49.18 3.0442 50.949 3.0442C52.718 3.0442 54.1521 4.49799 54.1521 6.29134"/>
	<path fill="#2D1A0B" d="M50.949 10.5532C48.6468 10.5532 46.745 8.62521 46.745 6.29134C46.745 3.95746 48.6468 2.02947 50.949 2.02947C53.2512 2.02947 55.153 3.95746 55.153 6.29134C55.153 8.62521 53.2512 10.5532 50.949 10.5532M50.949 4.05893C49.7479 4.05893 48.7469 5.07366 48.7469 6.29134C48.7469 7.50901 49.7479 8.52374 50.949 8.52374C52.1502 8.52374 53.1511 7.50901 53.1511 6.29134C53.1511 5.07366 52.1502 4.05893 50.949 4.05893"/>
	<path fill="#FCD11A" d="M100.597 14.2062C100.597 15.9995 99.1627 17.4533 97.3937 17.4533C95.6247 17.4533 94.1906 15.9995 94.1906 14.2062C94.1906 12.4129 95.6247 10.9591 97.3937 10.9591C99.1627 10.9591 100.597 12.4129 100.597 14.2062"/>
	<path fill="#2D1A0B" d="M97.2936 18.4681C94.9914 18.4681 93.0896 16.5401 93.0896 14.2062C93.0896 11.8723 94.9914 9.94434 97.2936 9.94434C99.5958 9.94434 101.498 11.8723 101.498 14.2062C101.498 16.5401 99.6959 18.4681 97.2936 18.4681M97.2936 11.9738C96.0925 11.9738 95.0915 12.9885 95.0915 14.2062C95.0915 15.4239 96.0925 16.4386 97.2936 16.4386C98.4948 16.4386 99.4957 15.4239 99.4957 14.2062C99.4957 12.9885 98.5948 11.9738 97.2936 11.9738"/>
</svg>
