<?xml version="1.0" encoding="utf-8" ?>
<svg xmlns="http://www.w3.org/2000/svg" xmlns:xlink="http://www.w3.org/1999/xlink" width="82" height="82">
	<path fill="white" d="M47.1843 81.8993C43.5954 81.8993 40.7044 81.1941 38.3118 79.683C36.7167 80.2875 34.8226 80.6904 32.729 80.9926L31.134 80.9926C26.5482 80.9926 22.8596 79.683 19.6694 76.8624C13.2892 76.0565 3.32001 70.2138 0.728032 56.715C-1.06642 48.0516 0.528648 38.2801 4.7157 31.3292C7.40737 24.2776 13.2892 19.14 20.2676 17.8305C23.4577 15.6143 26.9469 14.4054 30.1371 14.4054C30.6355 14.4054 31.3334 14.4054 32.0312 14.5061C34.5235 13.2973 37.7136 12.8943 40.1062 12.6929C41.5019 11.1818 43.2963 9.36855 45.7886 7.65602C50.9726 4.3317 53.8637 3.62654 55.5584 3.22359C55.8575 3.12285 56.1566 3.02211 56.3559 3.02211C56.3559 3.02211 56.3559 3.02211 56.3559 2.92138C57.5522 1.10811 59.3467 0 61.2408 0C63.6334 0 65.727 1.81327 66.4248 4.53317C67.0229 6.44717 67.1226 9.26781 65.6273 11.2826C64.73 12.4914 63.3344 13.1966 61.7393 13.1966C60.9418 13.1966 60.0445 12.9951 59.1473 12.6929C59.1473 12.6929 58.9479 12.5921 58.4495 12.5921C56.7547 12.5921 54.2624 13.398 52.2686 14.5061C52.6674 14.8084 53.0661 15.1106 53.4649 15.5135C53.8637 15.5135 54.1627 15.5135 54.5615 15.5135C55.9572 15.5135 57.2532 15.8157 58.3498 16.0172C58.8482 16.1179 59.247 16.2187 59.6458 16.2187C62.8359 17.226 64.73 18.2334 66.026 19.3415C70.6118 20.8526 76.693 24.7813 79.8832 35.0565C80.4813 36.6683 80.6807 38.0786 80.581 39.2875C83.2727 48.4545 82 58.4275 77.4906 65.9828C73.5029 73.4373 65.2285 77.1646 59.247 78.0713C56.0569 80.4889 52.468 81.7985 48.7794 82L47.1843 82"/>
	<path fill="#FF8931" d="M43.1067 15.2114C47.3944 15.2114 51.1835 15.9166 51.5824 18.032C51.5824 18.2335 51.5824 18.2335 51.5824 18.2335C52.4798 18.032 53.477 18.032 54.3744 18.032C56.0695 18.032 57.665 18.5357 59.0609 18.7372C61.8529 19.6438 63.5481 20.6512 64.2461 21.5578C69.4312 22.9682 74.2175 27.0984 76.81 35.4596C77.3086 36.8699 77.508 38.0787 77.3086 39.0861C79.7018 46.7421 79.4026 56.3121 74.716 63.9682C70.7275 71.4227 62.1521 74.2433 57.8644 74.747C55.2718 76.8625 52.1807 78.3736 48.3915 78.575C47.893 78.575 47.4941 78.575 46.9956 78.575C43.705 78.575 40.8213 77.8699 38.5199 75.9559C36.6253 76.8625 34.5313 77.3662 32.1382 77.6684C31.6396 77.6684 31.4402 77.6684 30.9416 77.6684C26.953 77.6684 23.5628 76.4596 20.7708 73.6389C16.9816 73.6389 6.1128 69.6094 3.52024 55.9092C1.8251 47.548 3.52024 38.4817 7.30937 32.4374C9.70251 25.7888 15.0871 21.4571 21.0699 20.4497C21.2693 20.4497 21.2693 20.4497 21.2693 20.4497C24.0613 18.3342 27.1525 17.1254 30.0442 17.1254C30.7422 17.1254 31.7393 17.1254 32.4373 17.3269C34.631 15.9166 39.1181 15.2114 43.1067 15.2114"/>
	<path fill="#2C180C" d="M46.9955 79.5823C43.4058 79.5823 40.6138 78.7764 38.4201 77.1647C36.7249 77.8698 34.7307 78.3735 32.3375 78.6757L31.0412 78.6757C26.7535 78.6757 23.2635 77.3661 20.4716 74.6462C15.6853 74.344 5.21531 69.6094 2.62275 56.1106C0.92761 47.9509 2.52303 38.4816 6.51159 32.0344C8.90473 25.3858 14.4887 20.5504 20.9701 19.543C23.8618 17.4275 27.1524 16.2187 30.0441 16.2187C30.6424 16.2187 31.5398 16.2187 32.2378 16.3194C34.9301 14.8084 39.7164 14.3047 43.1066 14.3047C48.2918 14.3047 51.3829 15.3121 52.2803 17.2261C52.9783 17.1253 53.6763 17.1253 54.3743 17.1253C55.5709 17.1253 56.7675 17.3268 57.7646 17.629C58.2632 17.7298 58.7617 17.8305 59.1606 17.9312C61.1549 18.5357 63.548 19.543 64.8443 20.8526C69.132 22.1622 74.8157 25.688 77.8071 35.3588C78.3057 36.8698 78.5051 38.1794 78.4054 39.1868C81.0977 47.9509 80.0008 57.4202 75.6134 64.6733C71.5251 72.2285 62.9497 75.2506 58.3629 75.8551C55.3715 78.2728 52.0809 79.5823 48.4912 79.6831L46.9955 79.5823M38.6195 74.747C41.0126 76.7617 43.6052 77.5676 46.9955 77.5676L48.3915 77.5676C51.5823 77.3661 54.474 76.258 57.266 73.9411C61.9526 73.2359 70.1291 70.516 73.8186 63.4644C78.0065 56.6143 78.904 47.6487 76.3114 39.3882C76.5108 38.0787 76.3114 37.0713 75.8128 35.7617C73.6191 28.6094 69.4311 23.9755 63.9469 22.4644C63.1492 21.6585 62.152 20.6511 58.8615 19.6438C58.3629 19.543 57.964 19.4423 57.4655 19.3416C56.4683 19.1401 55.4712 18.9386 54.474 18.9386C53.6763 18.9386 52.6792 18.9386 51.8815 19.1401L50.6849 19.4423L50.6849 18.1327C50.3858 17.2261 48.2918 16.2187 43.2064 16.2187C38.9186 16.2187 34.9301 17.0246 33.0355 18.1327C31.6395 18.032 30.7421 18.032 30.1438 18.032C27.5513 18.032 24.6595 19.1401 21.9673 21.1548C15.4859 22.3637 10.5001 26.6954 8.40616 32.6389C4.51731 38.8846 3.12132 47.8502 4.61703 55.6069C7.20959 69.5086 18.2778 72.5307 20.8704 72.5307C24.0613 75.3514 27.1524 76.5602 31.0412 76.5602L32.1381 76.5602C34.6309 76.258 36.5255 75.7543 38.1209 74.9484"/>
	<path fill="#3F2C20" d="M19.9732 50.4693L26.1555 63.8673L32.3377 52.887L36.3263 64.8747L43.7051 53.3907L47.4943 64.8747L54.0754 52.887L59.0611 62.9607L63.7477 50.7715L59.46 65.8821L53.7763 55.6069L46.896 67.9976L43.3063 56.3121L35.9274 67.5946L31.9389 56.3121L25.7566 66.5872L19.9732 50.4693"/>
	<path fill="#2C180C" d="M46.7962 69.3072L43.2065 57.5209L35.8277 68.8035L31.8391 57.5209L25.6569 67.7962L19.4746 50.6708L26.1554 62.7592L32.4374 51.6782L36.426 63.7666L43.8048 52.2826L47.594 63.6658L54.0754 51.8796L58.9614 61.7519L63.2491 50.6708L59.5596 67.2924L53.6765 56.715L46.7962 69.3072M43.5057 55.204L47.0954 66.7887L43.6054 54.5995L36.2266 66.0835L32.238 54.1966L26.1554 65.0762L24.3606 61.1474L25.956 65.5798L32.1383 55.3047L36.1268 66.5872L43.5057 55.204M53.7762 54.5995L59.2605 64.5725L60.2576 61.2481L59.1608 64.2703L54.0754 53.9951L48.5911 63.968L53.7762 54.5995"/>
	<path fill="#FCB82F" d="M46.3974 39.1867L63.5481 30.7248L61.3545 41.9066L46.3974 39.1867"/>
	<path fill="#734405" d="M62.1522 43.1155L43.2065 39.5896L64.9442 28.9116L62.1522 43.1155M49.4885 38.6831L60.5567 40.6978L62.1522 32.4374L49.4885 38.6831"/>
	<path fill="#734405" d="M58.4626 33.9484L56.6678 40.4963L54.3744 35.8624L58.4626 33.9484"/>
	<path fill="#734405" d="M56.7675 40.8993L54.1749 35.8624L58.6621 33.7469L56.7675 40.8993M54.5738 35.9632L56.6678 40.1941L58.2632 34.1499L54.5738 35.9632"/>
	<path fill="#FCB82F" d="M35.628 39.1867L18.4772 30.7248L20.4715 41.9066L35.628 39.1867"/>
	<path fill="#734405" d="M19.6738 43.1155L17.181 28.9116L38.9187 39.5896L19.6738 43.1155M19.7736 32.5381L21.2693 40.7985L32.4372 38.7838L19.7736 32.5381"/>
	<path fill="#734405" d="M23.7621 33.5455L25.7564 40.6978L28.3489 35.7617L23.7621 33.5455"/>
	<path fill="#734405" d="M25.6567 41.1008L23.4629 33.344L28.4487 35.7617L25.6567 41.1008M23.9615 33.8477L25.7564 40.4963L28.1495 35.9632L23.9615 33.8477"/>
	<path fill="#3F2C20" d="M61.1548 2.6192C62.152 2.6192 63.0494 3.4251 63.4482 4.93615C64.0465 6.9509 63.8471 9.77153 61.6534 9.77153C61.2545 9.77153 60.756 9.6708 60.1577 9.46932C59.6591 9.26785 59.0608 9.16711 58.3628 9.16711C53.9754 9.16711 46.4969 12.6929 45.6992 16.6217C45.1009 19.4423 50.5851 20.9534 50.5851 20.9534L48.9897 21.457C46.1977 21.457 42.7077 22.5651 41.5112 23.371C40.3146 22.2629 33.9329 20.5504 33.9329 20.5504C33.9329 20.5504 36.7249 19.543 38.6195 18.1327C40.514 16.7224 42.7077 13.0959 47.3943 9.77153C55.6706 4.43247 57.1663 6.64868 58.7617 4.23099C59.4597 3.12289 60.3571 2.6192 61.1548 2.6192"/>
	<path fill="#2C180C" d="M41.5112 23.9755C40.4144 22.9681 36.3261 21.6585 33.8332 20.9533L32.2378 20.5504L33.7335 20.0467C33.7335 20.0467 36.5255 19.0393 38.3204 17.7298C39.0183 17.2261 39.7164 16.4202 40.6138 15.4128C42.2092 13.7003 44.1038 11.4841 47.0952 9.36857C51.7817 6.34646 54.474 5.6413 55.9697 5.23835C57.1663 4.93614 57.6649 4.8354 58.2632 3.92877C59.0609 2.82066 60.058 2.1155 61.0552 2.1155C62.3514 2.1155 63.4483 3.12287 63.8471 4.73466C64.246 6.04425 64.3457 8.05899 63.4483 9.26783C62.7503 10.2752 61.454 10.4767 59.8586 9.87226C59.4597 9.67078 58.8614 9.67078 58.2632 9.67078C54.1749 9.67078 46.796 13.0958 46.098 16.7224C45.6992 18.6364 49.1892 20.0467 50.5852 20.4497L52.1806 20.8526L48.89 21.9607C46.1978 21.9607 42.8075 23.0688 41.7106 23.774M35.5284 20.4497C37.3232 20.9533 40.4144 21.9607 41.6109 22.7666C43.0069 21.9607 46.2975 20.9533 48.9898 20.9533C47.3943 20.2482 44.8018 18.8379 45.3003 16.5209C46.098 12.2899 53.9755 8.66341 58.4626 8.66341C59.2603 8.66341 59.9583 8.76415 60.4569 8.96562C61.5537 9.36857 62.4511 9.36857 62.85 8.76415C63.3486 8.05899 63.4483 6.54793 63.0494 5.03688C62.7503 3.82803 62.0523 3.12287 61.1549 3.12287C60.4569 3.12287 59.7589 3.62656 59.1606 4.43245C58.3629 5.6413 57.4654 5.84277 56.2689 6.14498C54.6735 6.54793 52.2803 7.15236 47.6935 10.0737C44.8018 12.0885 42.9072 14.204 41.4115 15.9165C40.4144 17.0246 39.7164 17.8305 38.9186 18.4349C37.8218 19.3415 36.5255 20.0467 35.5284 20.4497"/>
</svg>
