<?xml version="1.0" encoding="utf-8" ?>
<svg xmlns="http://www.w3.org/2000/svg" xmlns:xlink="http://www.w3.org/1999/xlink" width="64" height="82">
	<path fill="white" d="M24.6657 82C22.1606 82 20.0563 81.1941 18.3528 79.683C15.7475 77.5676 13.1422 76.5602 10.3365 76.5602C7.0298 76.5602 4.6249 77.8698 4.32429 78.0713L0.316128 80.3882L0.215924 75.6536C-0.986524 38.3808 2.82123 16.6216 11.9398 7.0516C18.2526 0.70516 26.3692 0 32 0C40.8987 0 47.6124 2.92138 52.6226 8.66339C66.551 24.5799 64.7473 57.5209 62.3424 75.855C60.0377 79.8845 57.4324 81.4963 54.3261 81.4963C51.32 81.4963 48.2136 79.9853 45.6083 78.5749C44.9069 78.172 41.8006 76.4595 40.2975 76.4595C38.9949 76.4595 37.2914 77.2654 34.3855 78.7764L33.3834 79.2801C30.7781 80.5897 27.772 82 24.6657 82"/>
	<path fill="white" d="M32.5557 2.7704C63.2181 2.7704 63.2181 48.2028 59.711 75.7041C58.3081 78.3232 56.4043 79.0284 54.5004 79.0284C49.9912 79.0284 44.48 73.9915 40.4718 73.9915C35.9627 73.9915 30.0506 79.5321 24.7398 79.5321C23.0363 79.5321 21.6335 79.0284 20.2306 77.8195C16.9239 74.6967 13.3166 73.7901 10.5108 73.7901C6.20207 73.7901 3.09575 75.7041 3.09575 75.7041C1.19187 9.51979 14.519 3.07261 32.1549 2.7704C32.3553 2.7704 32.5557 2.7704 32.5557 2.7704"/>
	<path fill="#2C180C" d="M24.7659 80.4891C22.7619 80.4891 21.1586 79.8847 19.5553 78.5751C16.2486 75.4522 12.8417 74.7471 10.537 74.7471C6.52881 74.7471 3.7231 76.4596 3.6229 76.5603L2.11984 77.467L2.11984 75.7544C1.01759 38.5824 4.52473 17.8306 13.4429 8.46205C18.8539 2.82077 25.6678 1.91414 32.181 1.8134C40.1974 1.8134 46.5102 4.5333 51.32 10.0738C65.3486 26.091 62.5428 61.4498 60.7392 75.9559C59.2361 78.8773 57.232 80.1869 54.5265 80.1869C51.9212 80.1869 49.2157 78.7765 46.6104 77.467C44.3057 76.2581 42.2014 75.15 40.498 75.15C38.5941 75.15 36.1892 76.3589 33.6841 77.6684C30.7782 78.978 27.7721 80.4891 24.7659 80.4891M10.537 72.7323C13.2425 72.7323 17.1504 73.4375 20.9582 77.064C22.1606 78.0714 23.2629 78.4743 24.7659 78.4743C27.271 78.4743 30.0767 77.064 32.7823 75.6537C35.4878 74.2434 38.0931 72.9338 40.498 72.9338C42.7025 72.9338 45.0071 74.1426 47.6124 75.4522C50.0173 76.6611 52.5224 77.9706 54.5265 77.9706C56.4304 77.9706 57.733 77.1648 58.7351 75.3515C60.5388 61.0468 63.2443 26.5947 49.8169 11.2827C45.408 6.24583 39.5961 3.7274 32.5818 3.7274C26.0686 3.82814 19.7557 4.63404 14.8457 9.77163C6.62902 18.435 3.12188 38.8847 4.02371 74.0419C5.42657 73.5382 7.73126 72.7323 10.537 72.7323"/>
	<path fill="#2C180C" d="M24.2649 50.1671C24.1647 50.1671 24.0645 50.1671 24.0645 50.1671C23.5635 50.0663 23.1626 49.4619 23.3631 48.9582C24.4653 44.6265 24.1647 41.7052 22.6616 40.8993C20.5573 39.7912 15.1463 42.4103 9.83552 48.656C9.4347 49.059 8.83348 49.1597 8.43266 48.7568C8.0773 48.3538 7.93164 47.7494 8.33246 47.3464C13.9439 40.6978 20.2567 37.3735 23.5635 39.086C25.2669 39.9926 26.9704 42.5111 25.2669 49.4619C25.0665 49.8649 24.6657 50.1671 24.2649 50.1671"/>
	<path fill="#2C180C" d="M38.594 50.167C38.1932 50.167 37.6922 49.8648 37.592 49.3611C35.8885 42.4103 37.592 39.8919 39.2955 38.9852C42.7024 37.2727 48.9151 40.597 54.5265 47.2457C54.9273 47.6486 54.8271 48.3538 54.4263 48.656C54.0255 49.0589 53.324 48.9582 53.0234 48.5552C47.7126 42.3096 42.3016 39.6904 40.1973 40.7985C38.6942 41.6044 38.4938 44.5258 39.4959 48.8574C39.5961 49.3611 39.2955 49.9655 38.7944 50.0663C38.6942 50.167 38.6942 50.167 38.594 50.167"/>
	<path fill="#2C180C" d="M19.0543 25.688C19.0543 22.5651 19.9562 20.1474 21.1586 20.1474C22.361 20.1474 23.2629 22.5651 23.2629 25.688C23.2629 28.8108 22.361 31.2285 21.1586 31.2285C19.9562 31.2285 19.0543 28.8108 19.0543 25.688"/>
	<path fill="#2C180C" d="M40.1973 26.3931C40.1973 23.2702 41.0992 20.8526 42.3016 20.8526C43.504 20.8526 44.4059 23.2702 44.4059 26.3931C44.4059 29.5159 43.504 31.9337 42.3016 31.9337C41.0992 31.9337 40.1973 29.5159 40.1973 26.3931"/>
	<path fill="#2C180C" d="M35.4878 38.3808C34.6861 38.3808 33.9847 38.0786 33.3835 37.5749C32.7822 38.0786 32.0808 38.3808 31.3794 38.3808C30.5778 38.3808 29.7761 38.0786 29.1749 37.5749C28.7741 37.9779 28.2731 38.1794 27.6719 38.2801C26.3692 38.4816 25.0665 37.8772 23.8641 36.5676L25.3672 35.258C26.0686 36.0639 26.8702 36.4668 27.4714 36.3661C27.8723 36.2654 28.1729 35.9632 28.2731 35.6609L28.9745 34.0491L29.9765 35.4595C30.3774 36.0639 30.8784 36.3661 31.3794 36.3661C31.9806 36.3661 32.3814 35.8624 32.5818 35.4595L33.3835 34.1499L34.1851 35.4595C34.5859 36.0639 35.0869 36.3661 35.4878 36.3661C35.8886 36.3661 36.2894 36.0639 36.4898 35.6609L38.1933 36.6683C37.592 37.7764 36.59 38.3808 35.4878 38.3808"/>
</svg>
