<?xml version="1.0" encoding="utf-8" ?>
<svg xmlns="http://www.w3.org/2000/svg" xmlns:xlink="http://www.w3.org/1999/xlink" width="74" height="78">
	<path fill="white" d="M63.7352 77.8986C61.4447 77.8986 55.2704 76.2757 48.2993 61.6697C48.1998 61.5682 47.7018 60.7569 43.2204 59.9454C39.7349 59.2353 35.4527 58.3224 34.0585 54.7724C32.266 55.0766 27.4858 56.2938 23.5024 58.0182C23.4028 58.0182 22.4069 58.5253 21.2119 58.5253C19.7181 58.5253 18.523 57.7138 17.9255 56.1924C17.328 54.7724 17.5272 53.1495 18.4235 52.0337L24.1995 43.4121C21.8094 41.8908 17.7264 38.2393 19.3197 31.1391C19.6185 30.0233 19.7181 29.6176 15.5355 27.6904C12.4483 26.3718 7.17021 24.0389 7.17021 18.2575C7.17021 15.8232 5.17849 11.9688 3.88386 9.53444C3.58511 9.02728 1.19504 3.55004 0.697104 2.43431L0 0.91285C0 0.91285 35.5523 3.14432 35.5523 3.14432C36.6477 3.14432 37.6436 3.65147 38.3407 4.56435L46.4072 11.2587L50.2911 7.50583C50.789 6.99868 51.8844 6.39009 53.0795 6.39009C55.37 6.39009 57.0629 8.21584 57.0629 10.4473L57.4613 17.7503L65.8265 17.9531C67.2207 17.9531 68.7145 19.0688 69.2125 20.1846C69.9096 22.6189 69.312 23.9375 68.7145 24.6475L65.1294 28.299L73.0963 36.7178C74.2914 37.9349 74 40.2678 73.893 40.6735L68.4158 74.7542C68.3162 75.8699 67.3203 77.8986 64.3327 77.9999C64.4323 77.8986 64.1336 77.8986 63.7352 77.8986"/>
	<path fill="#1E1108" d="M36.8453 52.7439C37.2436 55.0768 39.9324 55.7868 43.9156 56.6997C47.1022 57.3083 50.2888 58.2211 51.2847 60.2497C55.8654 70.3929 58.4547 72.8272 62.3383 74.9572C62.3383 74.9572 64.8279 75.9715 65.6245 74.3487L71.3007 39.4565C71.3007 39.4565 71.3007 39.1522 71.201 38.9493L60.9441 28.0963L66.7199 22.5177C66.8195 22.3148 66.8195 22.0106 66.7199 21.6047C66.6204 21.5034 66.3215 21.3005 66.1225 21.3005L54.7701 21.0977L54.1726 10.6503C54.1726 10.0417 53.7743 9.83885 53.3759 9.83885C52.6788 9.73742 46.9031 15.9247 46.9031 15.9247L36.1483 7.10023L6.27368 4.26018C6.27368 4.26018 4.77995 4.15875 4.77995 4.15875C4.77995 4.15875 6.67201 7.70882 6.87117 8.11454C8.3649 10.9546 10.5557 15.1133 10.5557 18.4604C10.5557 21.8076 13.4436 23.3292 17.0285 24.952C20.5139 26.5749 23.8 27.995 22.7047 32.1535C21.3106 38.1379 29.4762 41.9923 29.4762 41.9923L21.2109 54.2654C21.0118 54.5696 21.0118 54.8739 21.1114 55.1782C21.1114 55.1782 21.3106 55.4825 21.6092 55.4825C26.0905 53.6567 31.3684 51.5267 34.555 51.5267C34.3558 51.2225 36.6461 51.4254 36.8453 52.7439"/>
	<path fill="#2C180C" d="M63.7325 76.1742C63.0354 76.1742 62.3383 75.9714 61.8404 75.7685C57.5584 73.4356 54.8697 70.697 50.2889 60.5539C49.4923 58.9311 46.5048 58.1196 43.7165 57.6125C40.1316 56.801 36.447 56.091 35.8495 52.8452C35.8495 52.4395 34.9533 52.1352 34.3558 52.1352C32.0654 52.1352 27.7834 53.4538 22.5056 55.8881C20.8127 56.091 20.3148 55.5839 20.2152 55.381C19.9164 54.5695 20.016 53.8595 20.4143 53.3524L28.0821 42.0936C25.7918 40.775 20.5139 37.0221 21.7089 31.6463C22.6051 28.4005 20.4143 27.2848 16.6302 25.5604C13.6428 24.2419 9.55991 22.5175 9.55991 18.156C9.55991 15.1131 7.3691 11.0559 5.97496 8.31727C5.77579 7.91155 3.88374 4.36149 3.88374 4.36149L2.9875 2.7386L4.77997 2.7386C4.77997 2.7386 6.07454 2.94146 6.17412 2.94146L36.447 5.78151L46.704 14.2002C52.3801 8.31727 52.9776 8.4187 53.4755 8.52013C54.4714 8.723 55.0689 9.43301 55.0689 10.3459L55.6663 19.7789L66.222 19.9818C66.7199 20.0832 67.1183 20.3875 67.3174 20.6918C67.8153 21.909 67.7158 22.5175 67.417 22.9233L62.2387 27.9948L71.7986 38.0364C72.1969 38.4421 72.1969 39.1521 72.1969 39.355L66.5208 74.4499C65.8237 75.8699 64.7283 76.1742 63.7325 76.1742M62.6371 73.9428C62.6371 73.9428 64.0312 74.4499 64.4296 73.8413L70.0061 39.2536L59.2513 27.8933L65.2262 22.0104L53.5751 21.7061L52.878 10.6502C51.7826 11.563 49.2931 13.9974 47.3015 16.1274L35.5508 7.60726L6.2737 4.86864C6.77161 5.88294 7.3691 6.99868 7.46869 7.20154C8.96242 10.0416 11.3524 14.4031 11.3524 18.0546C11.3524 20.5904 13.344 21.909 17.2277 23.5318C20.8127 25.1547 24.7959 26.9805 23.4018 31.9506C22.3064 37.0221 29.5759 40.5722 29.6755 40.5722L30.7709 41.0793L22.3064 53.5552C26.1901 51.8309 31.0696 50.0052 34.2562 50.0052C34.8537 50.0052 37.4428 50.4109 37.5922 52.4395C37.9408 53.961 39.8328 54.671 43.9157 55.4824C47.401 56.1924 50.6872 57.1053 51.9818 59.5396C56.7617 70.1898 59.3509 72.2184 62.6371 73.9428"/>
	<path fill="white" d="M23.8001 0C23.8001 0.1 23.8001 0.1 23.8001 0"/>
	<path fill="#F9B47A" d="M49.7193 22.4055C49.9417 22.6538 49.7924 23.1612 49.386 23.5386C48.9796 23.9161 48.4698 24.0207 48.2475 23.7723C48.0251 23.524 48.1444 23.0166 48.5808 22.6392C48.9872 22.2707 49.497 22.1571 49.7193 22.4055"/>
	<path fill="#F9B47A" d="M56.0204 28.2308C56.2348 28.4863 56.0698 28.9885 55.6518 29.3525C55.2337 29.7165 54.721 29.8045 54.4126 29.549C54.2922 29.2935 54.4126 28.7913 54.8753 28.4273C55.2933 28.0846 55.806 27.9753 56.0204 28.2308"/>
</svg>
