<?xml version="1.0" encoding="utf-8" ?>
<svg xmlns="http://www.w3.org/2000/svg" xmlns:xlink="http://www.w3.org/1999/xlink" width="116" height="96">
	<path fill="white" d="M53.9555 96C52.2333 96 50.6123 95.5941 49.194 94.6808C46.0535 92.8541 44.4326 90.8245 43.8247 88.2875C43.3182 86.2579 43.4195 84.1268 44.23 82.1987C40.4816 82.1987 37.341 82.1987 34.8084 82.0973C32.377 82.0973 30.6547 82.0973 29.8443 82.0973C26.1972 82.0973 22.7528 80.8795 19.7135 79.7632C18.7004 79.3573 17.6874 79.0529 16.7756 78.7484C14.4455 77.4292 13.2298 76.3129 12.2168 74.9937C8.56969 70.3256 7.55661 64.9471 9.38015 59.6702C10.7985 55.611 13.4325 52.6681 15.5599 50.537C17.9913 48.203 20.6253 46.1734 23.158 44.3467C22.5501 44.5497 22.0436 44.6512 21.7397 44.6512C21.5371 44.6512 21.2331 44.6512 21.0305 44.5497C19.207 44.2452 16.9782 43.8393 14.9521 42.1142C13.1285 40.592 12.4194 38.3594 13.0272 35.9239C12.7233 36.1268 12.3181 36.2283 11.9128 36.3298C10.8998 36.6342 9.98799 36.7357 9.07622 36.7357C6.44223 36.7357 4.01084 35.6195 1.98469 33.5899C0.36377 31.8647 -0.345383 29.4292 0.161155 26.9937C0.667693 24.5581 2.28861 22.63 4.41607 21.8182C6.1383 21.1078 8.06315 20.8034 10.2919 20.8034C10.4945 20.8034 11.4063 20.8034 11.4063 20.8034C13.4325 20.8034 15.4586 20.6004 17.3834 20.3975C16.8769 19.4841 16.573 18.2664 16.7756 17.1501C17.1808 14.5116 18.4978 12.482 20.6253 11.1628C23.0567 9.64059 25.5894 9.53911 27.2103 9.53911C28.0207 9.53911 28.9325 9.64059 29.6417 9.64059C30.4521 9.74207 31.1613 9.74207 31.8704 9.74207C33.0861 9.74207 34.3018 9.64059 35.5175 9.43763C37.645 9.13319 39.6711 8.62579 41.8999 7.81395C43.1156 7.40803 43.8247 7.20507 44.3313 6.79915C44.3313 6.79915 44.4326 6.79915 44.4326 6.69767L41.596 0L48.2823 2.43552C49.9032 3.0444 51.4228 3.75476 52.9424 4.46512L54.0568 5.074L54.462 6.39323C54.5633 6.69767 54.5633 6.90063 54.5633 7.10359C55.6777 7.10359 56.6908 7.71247 57.2986 8.62579C58.6156 10.5539 59.1222 12.482 58.717 14.4101C58 17.1501 56.9947 19.5856 55.2725 21.7167C54.5633 22.63 53.7529 23.3404 52.8411 23.9493C53.5503 24.4567 54.1581 25.0655 54.6646 25.8774C57.6026 29.9366 57.2986 35.6195 54.0568 39.2727C50.7137 43.129 46.6613 46.5793 41.7986 50.0296C39.3672 51.6533 37.5437 53.1755 36.1254 55.408C35.1123 57.0317 34.6057 58.351 34.707 59.6702C34.8084 62.8161 36.024 65.3531 38.3541 67.3827C40.5829 69.2093 43.1156 70.1226 46.0535 70.2241C47.1679 70.2241 48.6875 70.2241 50.815 70.3256C52.9424 66.6723 56.083 64.8457 59.5274 64.8457C60.1353 64.8457 60.6418 64.8457 61.2496 64.9471L90.2236 14.7146L98.5308 19.4841L69.3542 70.1226C84.9556 69.7167 97.3151 68.4989 105.116 66.7738C105.217 66.1649 105.015 64.8457 104.913 64.1353C104.609 61.9027 104.103 57.7421 107.851 56.7273C108.358 56.6258 108.763 56.5243 109.269 56.5243C110.89 56.5243 112.41 57.3362 113.423 58.7569C116.969 63.5264 116 76.7188 115.551 77.9366L115.247 79.1543L114.132 79.7632C112.613 80.5751 109.573 82.1987 67.4294 82.4017L62.2627 91.3319C60.5405 94.0719 57.4 96 53.9555 96M38.8607 31.8647C38.1515 31.9662 37.4424 32.0677 36.6319 32.3721C33.1874 33.6913 30.1482 35.7209 27.6155 38.2579C26.5011 39.3742 25.6907 40.389 25.3867 41.6068C25.1841 42.4186 24.8802 43.0275 24.475 43.4334C25.4881 42.723 26.6024 42.0127 27.5142 41.4038C28.2234 40.9979 28.9325 40.4905 29.6417 40.0846C31.8704 38.6638 33.8966 37.3446 35.8214 35.7209C37.1384 34.5032 38.2528 33.3869 38.8607 31.8647C38.7594 31.8647 38.8607 31.8647 38.8607 31.8647"/>
	<path fill="#FCD11A" d="M108.494 59.4674C105.658 60.2792 110.418 68.499 105.86 69.5138C86.3113 74.0804 46.6051 73.1671 45.9974 73.1671C42.4522 73.1671 39.2109 72.0508 36.3747 69.6153C33.4373 67.0783 31.7153 63.831 31.614 59.6704C31.614 57.4378 32.4244 55.5097 33.5386 53.7845C35.2605 51.146 37.4889 49.2178 40.0212 47.5942C44.2754 44.6513 48.2258 41.3025 51.6697 37.3447C54.202 34.5033 53.9994 30.3426 52.0749 27.7041C51.1632 26.3848 49.6439 25.573 48.2258 25.0656C48.0232 24.9641 47.8206 24.9641 47.6181 24.8626C47.1116 24.6597 47.0103 24.2538 47.3142 23.7465C47.7193 23.1376 48.2258 23.036 48.8336 22.7316C50.2516 22.0212 51.6697 21.2094 52.7839 19.8902C54.202 18.1651 55.1136 16.1355 55.6201 13.9029C55.8226 12.7866 55.4175 11.5688 54.7084 10.4525C54.5059 10.1481 54.1007 10.1481 53.8981 10.3511C53.3917 10.757 53.1891 11.2644 52.8852 11.7718C51.5684 14.5117 49.5426 16.5413 47.2129 18.1651C45.2884 19.4842 43.2625 20.702 41.2367 21.8182C40.0212 22.5287 38.7044 23.036 37.2863 23.4419C36.5773 23.6449 35.8683 23.9494 35.0579 24.1523C36.1721 23.7465 37.1851 23.3405 38.198 22.6301C38.8057 22.2242 39.4135 21.9198 39.3122 21.108C39.3122 20.3976 38.6031 20.0931 38.0967 19.6873C37.3876 19.1798 36.476 19.0784 35.6657 18.6724C35.4631 18.5709 35.0579 18.4694 35.1592 18.0636C35.1592 17.6576 35.4631 17.6576 35.767 17.5562C37.1851 17.1502 38.7044 16.8458 40.1225 16.4398C42.5535 15.7295 44.9845 14.9177 47.2129 13.6999C48.4284 12.9895 49.5426 12.1777 50.3529 11.0614C51.1632 9.94515 51.6697 8.82887 51.2645 7.30667C49.8465 6.59631 48.4284 5.88595 46.909 5.37855C47.7193 7.10371 47.2129 8.21999 45.9974 9.13331C44.9845 9.94515 43.769 10.3511 42.5535 10.757C40.3251 11.5688 38.0967 12.0762 35.6657 12.4821C33.5386 12.8881 31.3102 12.8881 29.0818 12.6851C26.6508 12.4821 24.1185 12.3807 21.7888 13.8014C20.3707 14.6132 19.6617 15.9324 19.3578 17.6576C19.2565 18.5709 19.8643 19.4842 20.6746 19.8902C22.0927 20.6005 23.612 21.0065 25.1314 20.702C25.2327 20.702 25.5366 20.4991 25.5366 20.8034C25.5366 21.108 25.334 21.108 25.1314 21.2094C23.2069 22.2242 21.2823 22.7316 19.1552 23.1376C16.2178 23.7465 13.179 23.9494 10.2416 23.9494C8.41835 23.9494 6.6964 24.0508 4.97445 24.7612C2.5154 25.776 1.63184 29.5308 3.65766 31.5604C5.68348 33.59 8.01318 34.1988 10.6468 33.4884C11.761 33.1841 12.47 32.4737 12.7739 31.2559C12.7739 31.0529 12.9765 30.85 13.2803 30.85C17.5346 29.8352 21.6875 28.719 25.8404 27.3996C26.8534 27.0952 27.765 26.7908 28.7779 26.4863C27.1572 27.1967 25.5366 27.907 23.9159 28.719C21.6875 29.8352 19.4591 31.1544 17.6359 33.1841C16.7242 34.1988 15.9139 35.3152 15.5087 36.7359C15.2049 38.055 15.5087 39.1714 16.4204 39.9832C17.7371 41.0995 19.3578 41.4039 20.8772 41.7084C21.4849 41.8099 21.6875 41.7084 21.8901 40.9981C22.3965 39.0699 23.612 37.6492 24.9288 36.33C27.8663 33.2855 31.3102 31.1544 35.0579 29.7337C36.2734 29.3279 37.4889 29.0233 38.8057 29.0233C41.4393 29.0233 41.9457 31.0529 41.2367 33.1841C40.4264 35.3152 38.907 36.7359 37.3876 38.1566C34.6528 40.4907 31.7153 42.2158 28.7779 44.1439C24.7262 46.7824 20.7759 49.4209 17.332 52.8712C15.1036 55.1038 12.9765 57.6408 11.8623 60.8881C10.2416 65.5562 11.3558 69.7169 14.1919 73.37C15.0023 74.4864 16.1165 75.3997 17.2307 76.11C21.0798 77.3279 25.1314 79.256 29.3856 79.256C36.476 79.256 106.569 80.2707 112.343 77.1248C112.765 75.7041 113.862 58.0466 108.494 59.4674"/>
	<path fill="#2D1A0B" d="M58.4638 80.1693C51.1698 80.1693 43.268 80.1693 34.4545 80.0678C32.0232 80.0678 30.4023 80.0678 29.4906 80.0678C26.1475 80.0678 23.0071 78.9515 20.0692 77.9367C19.0562 77.5308 18.0431 77.2263 17.0301 76.9219C15.4092 75.9071 14.3961 74.9938 13.4844 73.8775C10.2427 69.7168 9.33091 65.1502 10.9518 60.3807C12.2687 56.7274 14.7001 53.9874 16.6249 52.0593C20.3731 48.406 24.6279 45.5646 28.2749 43.2306C28.984 42.8246 29.6932 42.3172 30.4023 41.9113C32.5297 40.4906 34.8597 39.0699 36.7845 37.3447C38.3041 36.0255 39.6211 34.7063 40.4315 32.7781C40.8367 31.7633 40.8367 30.9515 40.4315 30.4441C40.2289 30.1397 39.7224 29.9367 39.0132 29.9367C37.8989 29.9367 36.7845 30.2411 35.6702 30.6471C31.9219 32.0678 28.6801 34.1989 25.9449 37.0403C24.6279 38.461 23.6149 39.6788 23.2097 41.201C22.9058 42.4187 22.1966 42.8246 21.0823 42.7232C19.4614 42.4187 17.5366 42.1143 16.017 40.795C14.8014 39.7802 14.2948 38.2581 14.8014 36.5329C15.3079 34.7063 16.3209 33.4885 17.1314 32.4737C17.8405 31.6619 18.651 30.9515 19.5627 30.3426C17.6379 30.85 15.7131 31.3574 13.9909 31.7633C13.5857 33.1841 12.5727 34.0974 11.2557 34.5033C8.21655 35.3151 5.48132 34.6048 3.25262 32.2707C2.03696 31.053 1.63174 29.3278 2.03696 27.5012C2.44218 25.776 3.55653 24.3553 4.9748 23.8479C6.59568 23.239 8.41916 22.9346 10.6479 22.9346C13.5857 22.9346 16.5236 22.7316 19.3601 22.1227C20.3731 21.9198 21.2849 21.7168 22.0953 21.4124C21.5888 21.2094 20.981 21.0065 20.5757 20.8035C19.2588 20.1946 18.4483 18.8754 18.651 17.5561C18.9549 15.5266 19.8666 14.0044 21.4875 12.9896C24.0201 11.4674 26.654 11.5688 29.3893 11.7718C31.618 11.9748 33.7454 11.8733 35.6702 11.5688C37.8989 11.2644 40.0263 10.6555 42.3563 9.94515C43.6733 9.53924 44.585 9.13332 45.3954 8.52444C46.4085 7.7126 46.5098 7.10372 46.0033 5.98744L44.8889 3.6534L47.3202 4.56672C48.8398 5.1756 50.3594 5.78448 51.7776 6.59632C52.7907 8.82888 52.4868 10.3511 51.2711 11.8733C50.4607 12.9896 49.245 14.0044 47.7254 14.8162C45.1928 16.2369 42.6602 17.0487 40.4315 17.6576C39.4184 17.9621 38.5067 18.165 37.4937 18.368C37.3923 18.368 37.291 18.368 37.291 18.4695C37.6963 18.6724 38.3041 18.7739 38.7093 19.0783C39.4184 19.5857 40.3302 20.1946 40.3302 21.3109C40.4315 21.2094 40.5328 21.2094 40.6341 21.1079C42.7615 19.8902 44.6863 18.6724 46.5098 17.4547C49.0424 15.7295 50.7646 13.8014 51.8789 11.4674C52.2842 10.757 52.5881 10.1481 53.1959 9.74219C53.4998 9.43776 53.905 9.33628 54.3103 9.33628C54.7155 9.33628 55.1207 9.64072 55.4246 9.94515C56.4377 11.3659 56.7416 12.7866 56.539 14.1058C56.0324 16.5413 55.0194 18.6724 53.4998 20.4991C52.2842 22.0213 50.6633 22.9346 49.245 23.5435C48.7385 23.7464 48.5359 23.8479 48.4346 23.9494C48.5359 23.9494 48.6372 24.0509 48.7385 24.0509C50.0555 24.5583 51.8789 25.4716 52.9933 27.0953C55.0194 29.9367 55.5259 34.6048 52.5881 38.0551C49.3463 41.8098 45.3954 45.1587 40.7354 48.5075C38.5067 50.0297 36.1767 51.8564 34.5558 54.3934C33.3402 56.3215 32.7323 58.0466 32.8336 59.7718C32.9349 63.5266 34.3532 66.5709 37.1897 69.0065C39.7224 71.1375 42.6602 72.2538 46.2059 72.2538C56.1337 72.4568 88.7539 72.6597 105.874 68.702C107.293 68.3976 107.394 66.9769 106.989 63.831C106.685 61.6999 106.381 59.1629 108.508 58.6555C109.623 58.3511 110.737 58.6555 111.547 59.4674C114.992 62.9177 114.115 76.2115 113.776 77.3278C109.927 79.4589 92.5022 80.1693 58.4638 80.1693M17.8405 74.9938C18.8536 75.2982 19.8666 75.7041 20.7784 76.0086C23.6149 77.0234 26.5527 78.0382 29.4906 78.0382C30.301 78.0382 32.0232 78.0382 34.4545 78.0382C80.9534 78.4441 106.887 77.7337 111.547 76.2115C111.851 73.6745 112.155 63.0192 109.724 60.7866C109.42 60.4822 109.116 60.3807 108.711 60.4822C108.306 60.5836 108.61 62.5118 108.711 63.5266C109.015 66.0635 109.521 69.8183 106.077 70.6301C88.6526 74.6893 55.9311 74.4864 46.3072 74.2834C42.0524 74.2834 38.608 72.9642 35.7715 70.5287C32.5297 67.7887 30.8075 64.1354 30.7062 59.7718C30.7062 57.6407 31.3141 55.6111 32.8336 53.2771C34.6571 50.3342 37.1897 48.406 39.6211 46.7824C44.1798 43.6365 47.9281 40.2876 51.0685 36.7359C53.3985 34.0974 52.9933 30.5456 51.3724 28.313C50.562 27.0953 49.1437 26.4864 47.9281 25.979C47.8267 25.8775 47.7254 25.8775 47.7254 25.8775C47.6241 25.8775 47.4215 25.776 47.3202 25.776C46.8137 25.5731 46.4085 25.1671 46.3072 24.7612C46.2059 24.3553 46.1046 23.8479 46.6111 23.1375C47.1176 22.3257 47.8267 22.1227 48.4346 21.8183C49.6502 21.2094 51.0685 20.3976 52.0816 19.1798C53.3985 17.6576 54.209 15.7295 54.7155 13.6999C54.8168 12.9896 54.6142 12.2792 54.3103 11.5688C54.209 11.6703 54.1076 11.8733 54.1076 11.9748C52.5881 14.9177 50.6633 17.0487 47.8267 18.9769C45.902 20.2961 43.8759 21.5139 41.8498 22.7316C40.4315 23.5435 39.0132 24.0509 37.6963 24.4568C36.9871 24.6597 36.278 24.9642 35.4676 25.1671L34.7584 23.239C36.0754 22.6301 36.8858 22.3257 37.6963 21.8183C38.2028 21.5139 38.4054 21.3109 38.4054 21.2094C38.4054 21.1079 38.1015 20.905 37.8989 20.8035C37.291 20.3976 36.9871 20.2961 36.5819 20.1946C36.1767 20.0931 35.6702 19.8902 35.2649 19.6872C34.4545 19.2813 34.1506 18.7739 34.2519 18.0635C34.3532 17.0487 35.2649 16.7443 35.5689 16.6428C36.0754 16.5413 36.5819 16.3384 37.0884 16.2369C38.0002 16.0339 39.0132 15.831 39.925 15.5266C42.0524 14.9177 44.4837 14.2073 46.8137 12.8881C48.1307 12.1777 49.0424 11.3659 49.6502 10.4525C50.2581 9.53924 50.562 8.82888 50.4607 8.01704C49.7515 7.7126 49.1437 7.40816 48.4346 7.10372C48.4346 8.22 47.8267 9.13332 46.8137 10.0466C45.8007 10.96 44.4837 11.3659 43.4706 11.6703C40.7354 12.5836 38.4054 13.1925 36.1767 13.497C34.0493 13.8014 31.8206 13.9029 29.3893 13.6999C26.958 13.497 24.7292 13.497 22.7031 14.7147C21.5888 15.4251 20.981 16.3384 20.7784 17.8606C20.677 18.2665 21.0823 18.7739 21.5888 18.9769C23.2097 19.7887 24.324 19.9917 25.4384 19.6872C25.5397 19.5857 26.0462 19.4843 26.5527 19.7887C26.8566 19.9917 27.0593 20.2961 27.1606 20.6005C27.1606 20.8035 27.2619 21.6153 26.2488 22.0213C26.2488 22.0213 26.2488 22.0213 26.3501 22.0213C24.4253 23.0361 22.5005 23.6449 20.0692 24.1523C17.0301 24.7612 13.9909 25.0657 10.8505 24.9642C8.92569 24.9642 7.40611 25.1671 5.98785 25.6745C5.0761 25.979 4.46827 26.8923 4.26566 27.9071C4.06305 29.0234 4.26566 30.1397 4.9748 30.85C6.69698 32.5752 8.62177 33.1841 10.9518 32.5752C11.7622 32.3722 12.1674 31.8648 12.3701 31.053C12.4714 30.4441 12.9779 29.9367 13.687 29.8352C17.334 28.9219 21.7914 27.8056 26.0462 26.4864C27.0593 26.1819 27.971 25.8775 28.984 25.5731L29.6932 27.5012C27.971 28.2115 26.4514 28.9219 24.9319 29.7337C22.8045 30.85 20.677 32.0678 18.9549 33.9959C17.9418 35.1122 17.334 36.0255 17.1314 37.1418C16.8275 38.3595 17.334 38.9684 17.7392 39.2729C18.8536 40.2876 20.1705 40.4906 21.6901 40.6936C22.2979 38.5625 23.6149 36.9388 24.9319 35.6196C27.8697 32.6767 31.4154 30.3426 35.4676 28.8204C36.7845 28.313 38.1015 28.0086 39.5198 28.0086C41.3432 28.0086 42.255 28.7189 42.6602 29.3278C43.3693 30.3426 43.4706 31.8648 42.8628 33.4885C41.9511 35.8225 40.3302 37.4462 38.7093 38.8669C36.5819 40.6936 34.2519 42.2158 32.0232 43.6365C31.3141 44.0424 30.6049 44.5498 29.8958 44.9557C26.2488 47.2898 22.0953 50.0297 18.5496 53.5815C16.7262 55.4082 14.4975 57.8437 13.3831 61.1925C11.9648 65.2517 12.674 69.1079 15.6118 72.7612C15.8144 73.4716 16.7262 74.2834 17.8405 74.9938"/>
	<path fill="#2D1A0B" d="M62.6578 68.6004C66.7095 70.9345 67.8237 74.8922 66.0004 78.038L59.3152 89.5053C57.492 92.6512 53.5416 93.7674 50.4016 91.9408C46.3499 89.6068 45.2357 85.649 47.059 82.5032L53.7442 71.0359C55.4662 67.8901 59.5178 66.7738 62.6578 68.6004"/>
	<path fill="#2D1A0B" d="M91.1129 18.5984L94.183 20.3743L63.6437 73.3669L60.5736 71.591L91.1129 18.5984"/>
</svg>
