<?xml version="1.0" encoding="utf-8" ?>
<svg xmlns="http://www.w3.org/2000/svg" xmlns:xlink="http://www.w3.org/1999/xlink" width="100" height="106">
	<path fill="white" d="M5.40145 106C4.89611 106 4.39078 105.799 3.98651 105.699C2.67265 105.397 1.56092 104.493 0.853451 103.187C0 101.68 -0.258281 99.7706 0.247052 98.163C0.550251 97.0578 1.25772 96.254 1.66198 95.7517C2.57158 94.546 3.68331 93.9431 4.49185 93.4408C4.69398 93.3403 4.79505 93.2398 4.89611 93.2398C4.89611 90.527 4.89611 88.1156 4.79505 85.8047C4.59291 75.4559 4.49185 67.9204 12.0718 57.4711C15.306 53 59.1688 17.2815 79.3822 10.3488C82.7173 9.2436 91.1059 4.42085 94.8453 2.21043L98.4837 0L99.3933 4.21991C100.505 9.74597 99.8987 12.8607 99.0901 17.181C98.888 18.0853 98.6859 18.9896 98.4837 20.0948C96.4624 31.0464 77.664 78.872 43.7057 100.072C37.7427 103.79 31.3755 105.699 24.8062 105.699C20.8646 105.699 16.822 104.995 12.8804 103.589C11.0612 104.895 8.93877 105.699 6.41211 106C6.10891 106 5.70464 106 5.40145 106"/>
	<path fill="#419646" d="M12.3448 99.9716C22.7535 104.292 33.1623 102.961 42.1563 97.3593C74.7975 76.9631 93.5939 30.0417 95.6151 19.3915C96.7267 13.3631 97.7373 10.7507 96.5246 4.7223C93.0887 6.83225 84.2968 11.8559 80.4566 13.1621C60.4475 19.9943 17.0943 55.7631 14.568 59.1792C5.67505 71.437 8.30251 79.1735 7.89828 94.6465C6.78666 96.0531 5.06871 96.2541 3.95709 97.6607C3.55287 98.1631 3.2497 98.565 3.04759 99.1678C2.64336 100.474 3.2497 102.483 4.66448 102.961C5.06871 102.961 5.57399 102.961 6.07927 102.961C8.50462 102.584 10.8289 101.579 12.3448 99.9716"/>
	<path fill="#2C180C" d="M5.41988 103.991C5.11674 103.991 4.71255 103.991 4.40941 103.991C3.60104 103.689 2.99475 103.187 2.48952 102.383C1.9198 101.378 1.78219 99.9716 2.08533 98.9669C2.28743 98.2636 2.79266 97.6607 3.19685 97.1584C3.90418 96.2541 4.71255 95.8522 5.41988 95.4503C6.02616 95.1489 6.43035 94.8475 6.83454 94.4456C6.93558 91.3309 6.83454 88.6181 6.83454 85.9053C6.63244 75.9584 6.5314 68.7242 13.7057 58.7773C16.1309 55.3612 59.8842 19.2911 80.0936 12.3584C83.8323 11.0522 92.5224 6.12897 95.958 4.01902L97.1705 3.3157L97.4737 4.72234C98.5852 9.84651 97.9789 12.6598 97.1705 16.8797C96.9684 17.7839 96.7663 18.6882 96.5642 19.7934C94.6443 30.1422 75.6475 77.8674 42.7062 98.364C33.3088 104.192 22.6989 105.197 12.5942 101.278C10.9775 102.684 8.75443 103.689 6.22826 103.991C5.92512 103.991 5.62197 103.991 5.41988 103.991M95.7559 6.43039C91.714 8.84177 84.3376 12.9612 80.8009 14.1669C60.9957 20.8986 17.8487 56.4664 15.4235 59.8825C8.65338 69.3271 8.75443 75.8579 8.95652 85.8048C8.95652 88.4171 9.05757 91.4313 8.95652 94.747C8.0471 96.2541 7.23873 96.656 6.5314 97.0579C5.82407 97.4598 5.31883 97.7612 4.91465 98.2636C4.6115 98.6655 4.30836 99.0674 4.20732 99.4693C4.00522 99.9716 4.10627 100.775 4.40941 101.278C4.51046 101.479 4.71255 101.78 5.01569 101.881C5.31883 101.981 5.62197 101.981 6.02616 101.881C8.45129 101.579 10.4722 100.675 11.7858 99.2683L12.8974 99.0674C22.4968 103.086 32.8036 102.182 41.6957 96.5555C74.1318 76.3602 92.8255 29.4389 94.6443 19.2911C94.8464 18.1858 95.0485 17.1811 95.2506 16.3773C95.8569 12.6598 96.3621 10.2484 95.7559 6.43039"/>
	<path fill="#C8E678" d="M22.7928 95.0484C25.2181 94.2446 27.6435 93.3404 29.8667 92.2351C32.0899 91.1299 34.2121 89.8238 36.2333 88.3167C38.2544 86.8094 40.0734 85.202 41.7913 83.3933L44.4188 80.7811L46.9452 78.1687C50.2801 74.6522 53.6149 70.9346 56.8487 67.3176C63.3163 59.8824 69.4807 52.2465 75.2409 44.2085C76.6557 42.1991 78.1716 40.1896 79.4853 38.1801C80.9001 36.1707 82.3149 34.0606 83.6286 32.0513C84.9423 29.9412 86.3571 27.9317 87.6709 25.8218C88.9846 23.7119 90.2983 21.6019 91.511 19.3915C90.2983 21.6019 88.9846 23.7119 87.6709 25.7213C86.3571 27.8313 85.0434 29.9412 83.6286 31.9507C82.2138 33.9603 80.9001 36.0702 79.4853 38.0797C78.0705 40.0891 76.6557 42.0985 75.1399 44.108C69.2786 52.0455 63.1142 59.6815 56.6466 67.0162C53.4128 70.7337 50.078 74.3507 46.642 77.8673L44.1156 80.4797L41.4882 83.0919C39.7702 84.8 37.9512 86.4077 35.9301 87.9147C33.909 89.4219 31.7868 90.728 29.6646 91.8332C27.4414 92.9385 25.1171 93.8427 22.6917 94.6465C20.2664 95.4502 17.74 95.9527 15.2136 96.5555C14.4051 96.7565 13.6977 96.8568 12.8893 97.0579C13.3946 96.8568 13.8998 96.5555 14.4051 96.3546C16.5273 95.3498 18.6495 94.3451 20.6706 93.1394C24.7128 90.8285 28.4519 88.0152 31.7868 84.9005C33.5047 83.293 35.0206 81.6853 36.6375 80.0778L39.0628 77.6664L41.3871 75.1545L43.7114 72.6426L46.0357 70.1309L48.36 67.6189C49.1684 66.8151 49.8758 65.9109 50.6843 65.1071C56.8487 58.2749 62.811 51.3422 68.5712 44.3091C71.5019 40.7924 74.3314 37.1754 77.161 33.5583C79.9906 29.9412 82.8202 26.3242 85.5487 22.6067C82.8202 26.2237 79.9906 29.8407 77.06 33.4578C74.2304 37.075 71.2998 40.5914 68.3691 44.108C62.5079 51.1413 56.5456 58.074 50.3811 64.8057C49.6232 65.6095 48.8653 66.5137 48.0568 67.3176L45.7325 69.8295L43.4082 72.3412L38.6586 77.2645L36.2333 79.6758C34.6164 81.2835 32.9995 82.9915 31.3826 84.4986C28.0477 87.6133 24.3086 90.326 20.2664 92.6369C18.2452 93.7422 16.1231 94.7469 14.0009 95.7516C13.0914 96.1535 12.2829 96.5555 11.3734 96.9574L91.511 16.3773L85.1445 22.6067C81.5064 25.219 77.9695 28.0322 74.4325 30.745C70.7945 33.5583 67.2575 36.472 63.6195 39.2853C56.5456 45.1129 49.4716 51.0407 42.7008 57.0693C41.8924 57.873 40.9829 58.5763 40.1744 59.3801L37.648 61.691L35.1216 64.002L32.5952 66.3129L30.0688 68.6237L27.6435 71.035C26.0266 72.6426 24.3086 74.2503 22.7928 75.8578C19.66 79.1734 16.8305 82.8911 14.5062 86.91C13.2935 88.9194 12.2829 91.0294 11.2724 93.1394C11.0703 93.6418 10.7671 94.1441 10.565 94.6465C10.7671 93.8427 10.9692 93.1394 11.0703 92.3355C11.6766 89.8238 12.1819 87.3119 12.9903 84.9005C13.6977 82.4892 14.7083 80.1783 15.8199 77.8673C16.9315 75.6569 18.2452 73.547 19.7611 71.5375C21.2769 69.5279 22.8938 67.7195 24.6118 66.0114L27.2392 63.399L29.8667 60.8873C33.4037 57.4712 37.0417 54.1554 40.7808 50.9403C48.1579 44.5099 55.9392 38.2805 63.8216 32.4531C65.8427 31.0464 67.8638 29.5393 69.885 28.1327C71.9061 26.726 73.9272 25.3195 76.0494 23.9128C78.0705 22.5062 80.1927 21.2 82.3149 19.8939C84.4371 18.5877 86.5592 17.2815 88.6814 16.0758C86.4582 17.2815 84.336 18.5877 82.2138 19.8939C80.0916 21.2 77.9695 22.5062 75.9483 23.9128C73.9272 25.3195 71.805 26.6256 69.7839 28.0322C67.7628 29.4389 65.7417 30.8456 63.7205 32.3526C55.7371 38.1801 47.9558 44.3091 40.5787 50.7393C36.8396 53.9546 33.2016 57.2701 29.6646 60.5858L27.0371 63.0976L24.4097 65.71C22.5907 67.4181 20.9738 69.2265 19.4579 71.236C17.9421 73.2456 16.6283 75.3554 15.5167 77.5658C14.4051 79.7764 13.3946 82.1877 12.6872 84.5991C11.8787 87.0105 11.3734 89.5223 10.7671 92.0341C10.565 93.0388 10.2618 94.0436 9.95864 95.0484C10.0597 93.9432 10.0597 92.9385 10.1608 91.8332C10.2618 89.2208 10.2618 86.508 10.4639 83.8958C10.666 81.2835 11.0703 78.7716 11.7777 76.3603C12.384 73.9489 13.3946 71.6379 14.5062 69.5279C15.7188 67.4181 17.1336 65.4085 18.7505 63.7004C19.559 62.7962 20.4685 61.9924 21.2769 61.0882L22.5907 59.7821L23.9044 58.5763C27.4414 55.2607 31.0794 52.0455 34.7174 48.9308C42.1956 42.7015 50.078 36.9744 58.2635 31.7497C62.4068 29.1374 66.6512 26.6256 70.8955 24.3147C73.0177 23.109 75.2409 22.0038 77.4642 20.8986C79.6874 19.7934 81.9107 18.7887 84.235 17.8844C81.9107 18.7887 79.6874 19.7934 77.4642 20.8986C75.2409 22.0038 73.0177 23.109 70.8955 24.2142C66.5501 26.5252 62.3058 29.0369 58.1624 31.5488C49.8758 36.7734 41.9935 42.4 34.5153 48.6294C30.7762 51.744 27.1382 54.9593 23.6012 58.2749L22.2875 59.4806L20.9738 60.7868C20.0643 61.5906 19.2558 62.4949 18.3463 63.2985C16.7294 65.1071 15.2136 67.0162 14.0009 69.2265C12.7882 71.3365 11.8787 73.7478 11.1713 76.1592C10.4639 78.5706 10.0597 81.183 9.85758 83.7952C9.65547 86.4077 9.55441 89.1204 9.55441 91.7327C9.55441 93.0388 9.45336 94.3451 9.25124 95.6513C9.15019 96.2541 9.04913 96.8568 8.84702 97.4598C8.84702 97.5602 8.74596 97.6607 8.74596 97.7612L7.7354 98.7659L9.45336 98.8663C9.65547 98.7659 9.85758 98.6655 10.0597 98.6655C10.666 98.4645 11.2724 98.3641 11.8787 98.2635C13.1924 98.0626 14.5062 98.0626 15.8199 97.9622C18.4474 97.8616 21.1759 97.8616 23.8033 97.6607C26.4308 97.4598 29.0583 97.0579 31.4836 96.3546C33.909 95.6513 36.3343 94.7469 38.4565 93.5413C40.5787 92.3355 42.5998 90.929 44.4188 89.2208C45.3283 88.4171 46.1368 87.5128 46.9452 86.6086L48.2589 85.3024L49.4716 83.9963C52.8065 80.4797 56.0403 76.8625 59.072 73.1451C65.3374 65.71 70.9966 57.7726 76.2515 49.5337C78.879 45.4142 81.3043 41.1944 83.6286 36.8739C84.7402 34.6636 85.9529 32.5536 86.9635 30.3431C88.0751 28.1327 89.0857 25.9223 89.9952 23.6114C89.0857 25.9223 87.974 28.1327 86.9635 30.3431C85.8519 32.5536 84.7402 34.764 83.6286 36.8739C81.3043 41.1944 78.7779 45.4142 76.1505 49.5337C70.8955 57.6721 65.1353 65.509 58.8698 72.944C55.7371 76.6617 52.5033 80.2786 49.1684 83.6949L47.9558 85.001L46.642 86.3072C45.8336 87.111 44.9241 88.0152 44.0146 88.819C42.1956 90.4266 40.2755 91.8332 38.1533 93.0388C36.0311 94.2446 33.7068 95.1488 31.2815 95.7516C28.8561 96.3546 26.3297 96.7565 23.7023 97.0579C21.0748 97.2588 18.4474 97.2588 15.7188 97.3593C14.6072 97.3593 13.4956 97.4598 12.485 97.5602C13.4956 97.2588 14.5062 97.0579 15.5167 96.7565C17.841 96.3546 20.3674 95.7516 22.7928 95.0484M11.8787 93.5413C12.8893 91.4314 13.8998 89.3214 15.0114 87.3119C17.3357 83.293 20.0643 79.6758 23.197 76.2598C24.7128 74.5517 26.4308 73.0445 28.0477 71.437L30.473 69.0257L35.4248 64.3034L37.9512 61.9924L40.4776 59.6815C41.2861 58.8777 42.1956 58.1744 43.004 57.3707C49.7748 51.2418 56.7477 45.3138 63.8216 39.4863C67.3586 36.5725 70.8955 33.6587 74.5336 30.8456C78.0705 28.0322 81.6075 25.3195 85.1445 22.7071L10.7671 95.9527C11.1713 95.0484 11.4745 94.3451 11.8787 93.5413"/>
</svg>
