<?xml version="1.0" encoding="utf-8" ?>
<svg xmlns="http://www.w3.org/2000/svg" xmlns:xlink="http://www.w3.org/1999/xlink" width="84" height="78">
	<path fill="white" d="M19.8499 78C15.4523 78 11.7543 74.961 10.7549 70.6052L4.15843 40.8234C1.26 38.2909 -0.738911 32.7195 0.260547 29.2753C1.4599 25.0208 2.85914 22.2857 4.65816 18.9429C4.958 18.3351 5.35778 17.7273 5.65762 17.0182C8.35616 11.8519 11.6544 8.30649 16.2519 5.87532C19.9499 3.95065 23.0482 2.63377 25.4469 2.12727C32.3432 0.709091 38.0401 0 43.5371 0C47.335 0 50.8331 0.303896 54.4312 0.911688C61.8272 2.22857 67.0243 3.95065 73.121 9.21818C79.0178 14.2831 82.9157 18.2338 83.9152 27.9584C84.315 31.7065 83.3155 38.4935 80.617 42.2416L76.1194 70.0987C75.4198 74.6571 71.5219 78 66.9244 78L19.8499 78"/>
	<path fill="#FCD11A" d="M6.3564 36.673L13.6534 69.896C14.253 72.8336 16.8516 74.8596 19.7501 74.8596L66.9245 74.8596C70.0228 74.8596 72.6214 72.6311 73.1211 69.4909L78.4184 36.8726C78.5182 36.9739 6.05749 36.4674 6.3564 36.673"/>
	<path fill="#2D1A0B" d="M67.0244 75.974L19.85 75.974C16.4518 75.974 13.4535 73.6441 12.7538 70.2L5.55774 37.3792C5.75763 35.7584 5.75763 35.7584 17.7511 35.7584C24.5474 35.7584 33.5426 35.7584 42.4877 35.8597C60.5279 35.961 78.5182 36.0623 78.5182 36.0623L79.7175 36.0623L74.2205 69.7948C73.6208 73.3402 70.6225 75.974 67.0244 75.974M7.6566 37.7844L14.6528 69.7948C15.1525 72.2259 17.3513 73.948 19.85 73.948L67.0244 73.948C69.623 73.948 71.8218 72.0233 72.2216 69.4909L77.3188 38.0883C58.529 37.8857 15.1525 37.5818 7.6566 37.7844"/>
	<path fill="#FFB3D6" d="M80.9839 28.2624C80.0218 19.5506 76.7236 16.2078 71.1266 11.4468C65.6296 6.68574 61.0321 5.16626 53.9359 3.84938C44.4411 2.1273 35.4459 3.03899 26.051 4.96366C23.3525 5.57145 20.0543 7.09093 17.6556 8.40782C13.3579 10.7377 10.5594 13.9792 8.36063 18.3351C6.06188 22.691 4.46274 25.3248 3.16345 30.0858C2.46383 32.5169 4.3628 37.4805 6.5616 38.7975C14.1575 43.5584 16.856 35.1507 18.0554 35.7584C18.4552 35.9611 20.0543 42.8493 24.9516 43.4571C31.9478 44.3689 34.6464 40.0131 36.1456 38.3923C37.5448 40.1143 40.7431 44.0667 44.0413 44.0667C50.038 44.1663 51.3373 39.8105 52.3368 37.7845C53.836 39.304 54.6355 43.8624 60.5323 43.8624C62.7311 43.8624 66.0294 39.8105 66.9289 37.7845C70.0272 40.5196 72.1261 43.0519 76.0239 42.039C79.8219 41.1273 81.3211 32.3144 80.9839 28.2624"/>
	<path fill="#2D1A0B" d="M44.2607 45.1793C44.1608 45.1793 44.0608 45.1793 43.9609 45.1793C41.4622 45.078 38.8636 43.3559 36.0652 40.013C34.3661 42.039 31.1678 45.3819 24.7713 44.5715C20.4736 44.065 18.4747 39.4052 17.5752 37.3793C17.4752 37.4806 17.3753 37.5819 17.3753 37.6832C15.6762 39.6078 12.2781 43.6598 5.98147 39.8104C3.38288 38.1897 1.28402 32.8208 2.18353 29.8832C3.38288 25.8312 4.68217 23.1974 6.4812 19.8546C6.78104 19.2468 7.18082 18.639 7.48066 17.9299C9.9793 13.0676 12.9777 9.82602 17.1754 7.59745C20.6735 5.67277 23.5719 4.55849 25.8707 4.05199C36.8647 1.72212 45.66 1.41823 54.1553 2.93771C61.2515 4.15329 66.1488 5.77407 71.8458 10.7377C77.5427 15.6 81.0408 19.1455 81.9403 28.1611C82.44 32.6182 80.8409 41.8364 76.2434 43.052C72.2455 44.065 69.8468 41.9377 67.3482 39.6078C67.3482 39.6078 67.2482 39.5065 67.2482 39.5065C65.849 41.7351 63.0505 44.9767 60.5519 44.9767C55.5546 44.9767 53.8555 41.9377 52.6562 40.013C52.6562 40.013 52.6562 40.013 52.6562 39.9117C51.4568 42.1403 49.358 45.1793 44.2607 45.1793M36.265 36.8728C40.3628 42.1403 42.6616 43.052 44.0608 43.1533C48.8582 43.2546 50.1575 40.2156 51.157 38.0884C51.2569 37.8858 51.3569 37.6832 51.4568 37.4806L52.0565 36.1637L53.0559 37.1767C53.5557 37.6832 53.8555 38.291 54.2553 38.8987C55.3547 40.8234 56.654 42.9507 60.4519 42.9507C62.0511 42.9507 65.0494 39.5065 65.949 37.4806L66.5486 36.265C67.9479 37.4806 68.2477 37.8858 68.6475 38.1897C71.0462 40.4182 72.8452 42.039 75.7436 41.2286C78.842 40.4182 80.3412 32.3143 79.9414 28.465C79.0419 20.0572 75.9435 17.0182 70.5465 12.3585C65.1494 7.69875 60.6518 6.17926 53.7556 4.96368C45.4601 3.4442 36.9647 3.84939 26.2705 6.07797C24.2716 6.48316 21.4731 7.59745 18.1749 9.42082C14.3769 11.4468 11.6784 14.3845 9.27968 18.8416C8.8799 19.5507 8.58006 20.1585 8.28022 20.7663C6.4812 24.1091 5.28185 26.5403 4.18245 30.3897C3.58277 32.4156 5.3818 36.8728 7.18082 37.9871C11.9782 40.9247 14.277 38.1897 15.9761 36.265C16.7756 35.3533 17.5752 34.4416 18.5746 34.9481C18.9744 35.1507 19.1743 35.5559 19.4742 36.3663C20.2737 38.1897 21.8729 42.1403 25.1711 42.5455C30.768 43.2546 33.3666 40.2156 34.8658 38.4936C35.0657 38.1897 35.2656 37.9871 35.4655 37.7845"/>
	<path fill="#2D1A0B" d="M24.2475 15.9039L23.0482 14.2831C24.1476 13.4727 25.247 12.6623 26.3464 11.8519L27.4458 13.4727C26.3464 14.2831 25.247 15.0935 24.2475 15.9039"/>
	<path fill="#2D1A0B" d="M16.1549 27.9433L16.7147 24.1359L18.6919 24.4345L18.1321 28.2419L16.1549 27.9433"/>
	<path fill="#2D1A0B" d="M28.845 33.4286C28.4452 32.8208 28.3453 32.1117 28.4452 31.4026L30.4442 32.0104C30.4442 32.1117 30.4442 32.213 30.4442 32.3143L28.845 33.4286"/>
	<path fill="#2D1A0B" d="M38.6908 33.805L40.1164 32.3848L41.2374 33.5408L39.8118 34.961L38.6908 33.805"/>
	<path fill="#2D1A0B" d="M52.3323 34.4415C51.3329 33.6311 50.3334 32.922 49.234 32.3143L50.2334 30.4909C51.4328 31.2 52.5322 31.9091 53.6316 32.8207L52.3323 34.4415"/>
	<path fill="#2D1A0B" d="M59.467 29.7218L60.1866 27.8317L61.9582 28.5246L61.2386 30.4147L59.467 29.7218"/>
	<path fill="#2D1A0B" d="M52.1324 16.0052L54.1314 16.0052L54.1314 17.9298L52.1324 17.9298L52.1324 16.0052"/>
	<path fill="#2D1A0B" d="M35.5414 19.1454C35.2041 18.7402 35.2041 18.3351 35.2041 17.8286L36.7407 18.1325L35.5414 19.1454"/>
	<path fill="#2D1A0B" d="M70.8223 23.1974L69.4231 21.7792L71.0222 22.8935"/>
	<path fill="#2D1A0B" d="M41.2738 12.8237L41.7384 11.4859L43.624 12.1585L43.1594 13.4963L41.2738 12.8237"/>
	<path fill="#2D1A0B" d="M62.8537 22.4071L64.6989 21.6281L65.8517 24.4333L64.0065 25.2123L62.8537 22.4071"/>
	<path fill="#FCD11A" d="M26.2464 74.4545L20.4496 45.2805"/>
	<path fill="#2D1A0B" d="M19.4253 45.6781L21.3855 45.2805L27.1281 74.4103L25.1679 74.8079L19.4253 45.6781"/>
	<path fill="#FCD11A" d="M52.932 73.4416L53.932 52.3714"/>
	<path fill="#2D1A0B" d="M51.7214 73.4354L52.7261 52.3906L54.7226 52.3906L53.7179 73.5334L51.7214 73.4354"/>
	<path fill="#FCD11A" d="M37.243 51.8649L38.7422 73.1376"/>
	<path fill="#2D1A0B" d="M36.2444 52.2247L38.2383 52.0803L39.7408 73.4009L37.7469 73.5452L36.2444 52.2247"/>
	<path fill="#FCD11A" d="M63.7261 73.6442L65.9249 50.852"/>
	<path fill="#2D1A0B" d="M62.5222 73.6084L64.7719 50.8294L66.7608 51.0312L64.5111 73.8102L62.5222 73.6084"/>
</svg>
