<?xml version="1.0" encoding="utf-8" ?>
<svg xmlns="http://www.w3.org/2000/svg" xmlns:xlink="http://www.w3.org/1999/xlink" width="106" height="80">
	<path fill="white" d="M5.8723 79.8985C2.58779 79.8985 0 77.2589 0 73.9086C0 71.066 1.89108 68.731 4.47887 68.1218L4.47887 60.4061C3.08545 57.868 2.98592 55.2284 2.98592 54.9239C2.98592 43.9594 8.46009 40 14.9296 38.6802L14.9296 28.934C13.8347 26.7005 13.8347 24.3655 13.8347 24.0609C13.8347 17.665 17.816 11.9797 23.4892 9.84772C23.3897 9.3401 23.3897 8.83249 23.3897 8.32487C23.3897 3.75635 27.0723 0 31.5512 0C34.139 0 36.5277 1.21827 38.0207 3.24873C39.5136 1.3198 41.8028 0 44.4901 0C47.3765 0 49.8648 1.52284 51.3577 3.85787C52.8507 1.52284 55.339 0 58.2254 0C61.0122 0 63.5005 1.52284 64.9934 3.75635C66.4864 1.72589 68.8751 0.406091 71.5624 0.406091C76.0413 0.406091 79.7239 4.16244 79.7239 8.73096C79.7239 9.03553 79.7239 9.44162 79.6244 9.74619C85.1981 11.9797 89.0798 17.5635 89.0798 23.9594L89.0798 38.6802C89.4779 38.7817 89.9756 38.8832 90.3737 38.9848C97.3408 40.4061 102.417 46.7005 102.417 53.9086L102.417 68.5279C104.507 69.4416 106 71.4721 106 74.0102C106 77.3604 103.412 80 100.128 80L5.8723 80"/>
	<path fill="#FEA832" d="M102.218 73.401C102.218 75.0254 100.924 76.3452 99.3315 76.3452L5.37468 76.3452C3.7822 76.3452 2.4883 75.0254 2.4883 73.401C2.4883 71.7766 3.7822 70.4568 5.37468 70.4568L99.3315 70.4568C100.924 70.4568 102.218 71.7766 102.218 73.401"/>
	<path fill="#2B170C" d="M99.3315 77.3604L5.37469 77.3604C3.18502 77.3604 1.493 75.6345 1.493 73.401C1.493 71.1675 3.18502 69.4416 5.37469 69.4416L99.3315 69.4416C101.521 69.4416 103.213 71.1675 103.213 73.401C103.213 75.6345 101.521 77.3604 99.3315 77.3604M5.37469 71.5736C4.27985 71.5736 3.48361 72.3858 3.48361 73.5025C3.48361 74.6193 4.37938 75.4315 5.37469 75.4315L99.3315 75.4315C100.426 75.4315 101.223 74.6193 101.223 73.5025C101.223 72.3858 100.327 71.5736 99.3315 71.5736L5.37469 71.5736"/>
	<path fill="#994C0F" d="M85.397 40.6091L17.4178 40.6091L17.4178 23.4517C17.4178 16.7512 22.7924 11.269 29.3615 11.269L73.4535 11.269C80.0224 11.269 85.397 16.7512 85.397 23.4517L85.397 40.6091"/>
	<path fill="#2C180C" d="M86.3925 41.6244L16.4225 41.6244L16.4225 23.4518C16.4225 16.1421 22.1953 10.2538 29.3615 10.2538L73.4535 10.2538C80.6197 10.2538 86.3925 16.1421 86.3925 23.4518L86.3925 41.6244M18.3136 39.5939L84.3023 39.5939L84.3023 23.4518C84.3023 17.2589 79.4253 12.2843 73.354 12.2843L29.2619 12.2843C23.1906 12.2843 18.3136 17.2589 18.3136 23.4518L18.3136 39.5939"/>
	<path fill="#FFF2E9" d="M16.2234 23.5532C16.2234 16.8528 21.598 11.3705 28.167 11.3705L72.259 11.3705C78.828 11.3705 84.2027 16.8528 84.2027 23.5532C84.2027 23.5532 83.4064 29.2385 78.7285 28.528C75.0459 28.0202 74.2496 25.1777 74.0506 23.3503C74.0506 23.1471 73.6525 23.2487 73.5529 23.3503C72.7567 25.2791 70.4675 28.6294 66.7849 28.3248C63.2018 28.0202 61.4103 25.4823 60.7135 23.4517C60.6139 23.1471 60.1164 23.1471 60.0168 23.4517C59.4196 25.1777 57.8272 27.6143 54.6422 28.3248C51.3577 29.0355 49.0685 26.1928 48.0732 24.5686C47.8741 24.264 47.476 24.3654 47.3764 24.67C47.0779 26.0914 46.2816 28.528 43.6937 29.2385C40.907 29.9668 38.5182 26.7004 37.6225 25.0761C37.4234 24.7715 37.0253 24.873 36.9257 25.1777C36.6272 26.4974 36.1294 29.2385 33.243 29.6446C29.8591 30.1522 27.8685 26.7004 27.2713 25.1777C27.1717 24.873 26.7736 24.873 26.5746 25.1777C25.7783 26.5989 24.2853 29.8477 21.6975 29.9668C16.2234 30.3554 16.2234 23.5532 16.2234 23.5532"/>
	<path fill="#2C180C" d="M21.4985 31.066C19.906 31.066 18.6121 30.5583 17.5173 29.5431C15.2281 27.4111 15.2281 23.7563 15.2281 23.5533C15.2281 16.2436 21.0009 10.3553 28.1671 10.3553L72.2591 10.3553C79.4253 10.3553 85.1981 16.2436 85.1981 23.5533C84.8995 25.9898 83.1079 30.1523 78.629 29.5431C76.8375 29.2385 74.6478 28.3248 73.6525 25.6852C72.3586 27.7157 69.9699 29.7462 66.7849 29.4416C63.9981 29.137 61.7089 27.6142 60.415 25.1776C59.6187 26.7005 57.9267 28.7309 54.9408 29.3401C52.552 29.8477 50.0638 28.7309 48.1727 26.2944C47.675 27.8172 46.4807 29.6446 44.0919 30.2538C41.4046 30.9644 39.1154 28.8325 37.722 26.9035C37.2243 28.4264 36.229 30.3553 33.5417 30.7614C30.3567 31.269 28.1671 28.934 27.0722 26.802C26.0769 28.5279 24.4844 30.8629 21.9962 31.066C21.7971 31.066 21.598 31.066 21.4985 31.066M17.2187 23.5533C17.2187 23.6548 17.2187 26.4974 18.9107 28.0203C19.707 28.7309 20.6027 29.0355 21.8966 28.934C23.7877 28.8325 25.0816 26.3959 25.7783 24.9746C26.276 24.1624 26.7736 23.9594 27.2713 23.9594C27.7689 23.9594 28.2666 24.3655 28.4657 24.8731C28.5652 25.0761 30.1577 29.137 33.3427 28.6294C35.2337 28.3248 35.7314 26.9035 36.1295 25.2792C36.3286 24.3655 36.8262 23.9594 37.4234 23.9594C38.0206 23.8578 38.5182 24.1624 38.8168 24.67C39.414 25.8883 41.6037 28.934 43.6938 28.3248C45.6844 27.8172 46.4807 25.9898 46.6797 24.5685C46.7793 23.9594 47.1774 23.5533 47.7746 23.4517C48.3718 23.3502 48.8694 23.5533 49.168 24.0609C50.0638 25.5837 52.0544 27.9188 54.6422 27.4111C57.7276 26.802 58.922 24.2639 59.2206 23.2487C59.4196 22.6396 59.9173 22.335 60.5145 22.335C61.1117 22.335 61.6093 22.7411 61.8084 23.2487C62.2065 24.3655 63.5004 27.1066 67.0835 27.5127C70.8657 27.9188 72.7567 23.3502 72.8563 23.1472C73.0553 22.6396 73.6525 22.335 74.2497 22.335C74.7473 22.4365 75.1455 22.8426 75.245 23.3502C75.5436 25.8883 76.8375 27.3096 79.0272 27.6142C82.4112 28.1218 83.2074 24.1624 83.307 23.5533C83.307 17.4619 78.3304 12.4873 72.3586 12.4873L28.2666 12.4873C22.1952 12.3858 17.2187 17.3604 17.2187 23.5533"/>
	<path fill="#994C0F" d="M98.7342 70.5582L6.9671 70.5582L6.9671 53.4008C6.9671 46.7004 12.3418 41.2181 18.9108 41.2181L86.7906 41.2181C93.3596 41.2181 98.7342 46.7004 98.7342 53.4008L98.7342 70.5582"/>
	<path fill="#2C180C" d="M99.7295 71.5736L5.9718 71.5736L5.9718 53.401C5.9718 46.0913 11.7446 40.203 18.9108 40.203L86.7906 40.203C93.9568 40.203 99.7295 46.0913 99.7295 53.401L99.7295 71.5736M7.96241 69.5431L97.7389 69.5431L97.7389 53.401C97.7389 47.2081 92.8619 42.2335 86.7906 42.2335L18.9108 42.2335C12.8394 42.2335 7.96241 47.2081 7.96241 53.401L7.96241 69.5431"/>
	<path fill="#FD003A" d="M36.1296 7.81726C36.1296 10.7329 33.8124 13.0965 30.954 13.0965C28.0956 13.0965 25.7784 10.7329 25.7784 7.81726C25.7784 4.90164 28.0956 2.53807 30.954 2.53807C33.8124 2.53807 36.1296 4.90164 36.1296 7.81726"/>
	<path fill="#2D190C" d="M30.954 14.1116C27.57 14.1116 24.7831 11.269 24.7831 7.81726C24.7831 4.36548 27.57 1.52284 30.954 1.52284C34.338 1.52284 37.1249 4.36548 37.1249 7.81726C37.1249 11.269 34.338 14.1116 30.954 14.1116M30.954 3.5533C28.6648 3.5533 26.7737 5.48223 26.7737 7.81726C26.7737 10.1523 28.6648 12.0812 30.954 12.0812C33.2432 12.0812 35.1343 10.1523 35.1343 7.81726C35.1343 5.48223 33.2432 3.5533 30.954 3.5533"/>
	<path fill="#FD003A" d="M48.969 7.81726C48.969 10.7329 46.6518 13.0965 43.7934 13.0965C40.935 13.0965 38.6178 10.7329 38.6178 7.81726C38.6178 4.90164 40.935 2.53807 43.7934 2.53807C46.6518 2.53807 48.969 4.90164 48.969 7.81726"/>
	<path fill="#2D190C" d="M43.7934 14.1116C40.4094 14.1116 37.6225 11.269 37.6225 7.81726C37.6225 4.36548 40.4094 1.52284 43.7934 1.52284C47.1774 1.52284 49.9643 4.36548 49.9643 7.81726C49.9643 11.269 47.1774 14.1116 43.7934 14.1116M43.7934 3.5533C41.5042 3.5533 39.6131 5.48223 39.6131 7.81726C39.6131 10.1523 41.5042 12.0812 43.7934 12.0812C46.0826 12.0812 47.9737 10.1523 47.9737 7.81726C47.9737 5.48223 46.0826 3.5533 43.7934 3.5533"/>
	<path fill="#FD003A" d="M75.9418 8.22335C75.9418 11.139 73.6246 13.5026 70.7662 13.5026C67.9078 13.5026 65.5906 11.139 65.5906 8.22335C65.5906 5.30773 67.9078 2.94416 70.7662 2.94416C73.6246 2.94416 75.9418 5.30773 75.9418 8.22335"/>
	<path fill="#2D190C" d="M70.7662 14.5177C67.3821 14.5177 64.5953 11.6751 64.5953 8.22335C64.5953 4.77157 67.3821 1.92893 70.7662 1.92893C74.1502 1.92893 76.9371 4.77157 76.9371 8.22335C76.9371 11.6751 74.1502 14.5177 70.7662 14.5177M70.7662 3.95939C68.477 3.95939 66.5859 5.88832 66.5859 8.22335C66.5859 10.5584 68.477 12.4873 70.7662 12.4873C73.0554 12.4873 74.9465 10.5584 74.9465 8.22335C74.9465 5.88832 73.0554 3.95939 70.7662 3.95939"/>
	<path fill="#FD003A" d="M62.7042 7.81726C62.7042 10.7329 60.387 13.0965 57.5286 13.0965C54.6702 13.0965 52.353 10.7329 52.353 7.81726C52.353 4.90164 54.6702 2.53807 57.5286 2.53807C60.387 2.53807 62.7042 4.90164 62.7042 7.81726"/>
	<path fill="#2D190C" d="M57.5286 14.1116C54.1446 14.1116 51.3577 11.269 51.3577 7.81726C51.3577 4.36548 54.1446 1.52284 57.5286 1.52284C60.9126 1.52284 63.6995 4.36548 63.6995 7.81726C63.6995 11.269 60.9126 14.1116 57.5286 14.1116M57.5286 3.5533C55.2394 3.5533 53.3483 5.48223 53.3483 7.81726C53.3483 10.1523 55.2394 12.0812 57.5286 12.0812C59.8178 12.0812 61.7089 10.1523 61.7089 7.81726C61.7089 5.48223 59.8178 3.5533 57.5286 3.5533"/>
	<path fill="#FFF2E9" d="M5.474 54.4085C5.474 43.1395 11.6449 40.6014 21.5979 40.6014L81.1172 40.6014C91.3688 40.6014 97.2411 43.0379 97.2411 54.4085C97.2411 54.4085 96.1463 60.8044 89.8759 60.0938C84.8994 59.4846 83.904 56.2359 83.6055 54.307C83.6055 54.1039 83.1078 54.2055 83.0083 54.4085C82.013 56.5405 78.828 60.3984 73.8515 59.9923C69.074 59.5862 66.5857 56.7435 65.5904 54.4085C65.3914 54.0024 64.7942 54.0024 64.5951 54.4085C63.7989 56.439 61.7087 59.1801 57.3294 59.8907C52.9501 60.7029 49.8646 57.4542 48.4712 55.6268C48.2721 55.3222 47.6749 55.4237 47.5754 55.8298C47.2768 57.4542 46.182 60.1953 42.5989 61.0075C38.8167 61.8197 35.5322 58.0633 34.4374 56.2359C34.2383 55.9313 33.6411 55.9313 33.5416 56.3374C33.044 57.8603 32.5463 60.906 28.5651 61.4136C23.9867 62.0227 21.2994 58.1649 20.6026 56.3374C20.4036 56.0329 19.9059 55.9313 19.7069 56.3374C18.612 57.9618 16.6214 61.6166 13.1378 61.7336C5.474 62.1242 5.474 54.4085 5.474 54.4085"/>
	<path fill="#2C180C" d="M12.5407 62.7411C10.2515 62.7411 8.45992 62.0304 7.06649 60.7107C4.57823 58.2741 4.4787 54.5178 4.4787 54.4162C4.4787 41.4213 12.7397 39.5939 21.5979 39.5939L81.1172 39.5939C91.3688 39.5939 98.2364 42.132 98.2364 54.4162C97.8383 57.1574 95.4496 61.8274 89.7764 61.1167C86.2928 60.7107 84.0036 58.9848 83.1078 56.2436C81.4158 58.5787 78.3303 61.4213 73.8515 61.0152C68.6759 60.6091 66.1876 57.5634 65.2918 55.736C64.2965 57.4619 62.2064 60.1015 57.7275 60.9137C53.4477 61.7259 50.2627 59.0863 48.5707 56.9543C47.9735 58.7817 46.5801 61.1167 43.0965 61.9289C39.4139 62.7411 36.1294 59.8985 34.4374 57.5634C33.8402 59.2893 32.7454 61.8274 28.8637 62.335C24.4843 62.8426 21.5979 59.7969 20.2045 57.4619C19.0102 59.3909 16.8205 62.4365 13.2374 62.6396C12.9388 62.7411 12.7397 62.7411 12.5407 62.7411M6.46931 54.4162C6.46931 54.5178 6.56884 57.4619 8.45992 59.2893C9.55476 60.4061 11.1472 60.8122 13.1378 60.7107C15.9247 60.5076 17.7163 57.7665 18.7116 56.0406C19.2092 55.2284 19.7069 55.0254 20.3041 55.0254C20.9012 55.0254 21.2994 55.4315 21.5979 55.8376C21.6975 56.0406 23.8872 60.9137 28.5651 60.3046C31.551 59.8985 32.1482 57.9695 32.6458 56.3452C32.9444 55.4315 33.3425 55.0254 33.9397 54.9238C34.5369 54.8223 35.1341 55.1269 35.4327 55.6345C36.3285 57.0558 39.3144 60.6091 42.4994 59.8985C45.3857 59.2893 46.381 57.1574 46.7792 55.533C46.8787 54.9238 47.2768 54.5178 47.874 54.4162C48.4712 54.3147 49.0684 54.5178 49.4665 55.0254C50.7604 56.7513 53.5472 59.5939 57.3294 58.8832C61.7087 58.0711 63.3012 55.2284 63.7989 54.0101C63.9979 53.5025 64.5951 53.0964 65.1923 53.0964C65.7895 53.0964 66.3867 53.5025 66.5857 54.0101C67.1829 55.3299 68.9745 58.5787 73.951 58.9848C78.3303 59.3909 81.1172 55.9391 82.1125 53.9086C82.4111 53.2995 83.1078 53.0964 83.6055 53.198C84.1031 53.2995 84.5012 53.7056 84.6008 54.2132C84.9989 57.1574 86.7904 58.7817 89.9754 59.1878C94.9519 59.7969 96.0468 55.1269 96.2458 54.4162C96.2458 43.7563 90.6721 41.7259 81.1172 41.7259L21.5979 41.7259C12.2421 41.6244 6.46931 43.7563 6.46931 54.4162"/>
</svg>
