<svg width="40" height="32" viewBox="0 0 40 32" fill="none" xmlns="http://www.w3.org/2000/svg" id="panel-layout-3"><title>树状图（向下对称）</title><g clip-path="url(#clip0_38275_258168)"><path d="M18.0644 6V6C19.1334 6 20 6.86658 20 7.93555V22.2393C20 24.3163 18.3163 26 16.2393 26H10" stroke="#667085" stroke-width="0.833333"></path><path d="M23.9059 6V6C21.7487 6 20 7.74872 20 9.90588V22.2393C20 24.3163 21.6837 26 23.7607 26H30" stroke="#667085" stroke-width="0.833333" stroke-linecap="round"></path><path d="M20 9.33398V13.0733C20 15.1503 18.3163 16.834 16.2393 16.834H10" stroke="#667085" stroke-width="0.833333"></path><path d="M20 8.5V13.0726C20 15.1496 21.6837 16.8333 23.7607 16.8333H30" stroke="#667085" stroke-width="0.833333" stroke-linecap="round"></path><rect x="3.33301" y="14.3623" width="8.33333" height="5" rx="1.66667" fill="#8F99A8"></rect><rect x="28.333" y="14.3623" width="8.33333" height="5" rx="1.66667" fill="#8F99A8"></rect><rect x="3.3335" y="23.5" width="8.33333" height="5" rx="1.66667" fill="#8F99A8"></rect><rect x="28.3335" y="23.5" width="8.33333" height="5" rx="1.66667" fill="#8F99A8"></rect><rect x="12.917" y="2.66699" width="14.1667" height="10" rx="2.5" fill="url(#paint0_linear_38275_258168)"></rect></g><defs><linearGradient id="paint0_linear_38275_258168" x1="20.417" y1="2.66699" x2="20.417" y2="12.667" gradientUnits="userSpaceOnUse"><stop stop-color="#16C784"></stop><stop offset="1" stop-color="#43D89C"></stop></linearGradient><clipPath id="clip0_38275_258168"><rect width="35" height="26.6667" fill="white" transform="translate(2.5 2.66699)"></rect></clipPath></defs></svg>