<svg width="40" height="32" viewBox="0 0 40 32" fill="none" xmlns="http://www.w3.org/2000/svg" id="panel-layout-14"><title>树状图（右上）</title><g clip-path="url(#clip0_38275_258194)"><path d="M23.9059 26.001V26.001C21.7487 26.001 20 24.2523 20 22.0951V9.76166C20 7.68469 21.6837 6.00098 23.7607 6.00098H30" stroke="#667085" stroke-width="0.833333" stroke-linecap="round"></path><path d="M20 23.501V18.9283C20 16.8514 21.6837 15.1676 23.7607 15.1676H30" stroke="#667085" stroke-width="0.833333" stroke-linecap="round"></path><rect width="8.33333" height="5" rx="1.66667" transform="matrix(1 0 0 -1 28.3335 17.6387)" fill="#8F99A8"></rect><rect width="8.33333" height="5" rx="1.66667" transform="matrix(1 0 0 -1 28.3335 8.50098)" fill="#8F99A8"></rect><rect x="12.5" y="19.334" width="14.1667" height="10" rx="2.5" fill="url(#paint0_linear_38275_258194)"></rect></g><defs><linearGradient id="paint0_linear_38275_258194" x1="20" y1="19.334" x2="20" y2="29.334" gradientUnits="userSpaceOnUse"><stop stop-color="#16C784"></stop><stop offset="1" stop-color="#43D89C"></stop></linearGradient><clipPath id="clip0_38275_258194"><rect width="35" height="26.6667" fill="white" transform="matrix(1 0 0 -1 2.5 29.334)"></rect></clipPath></defs></svg>