<svg width="40" height="32" viewBox="0 0 40 32" fill="none" xmlns="http://www.w3.org/2000/svg" id="panel-layout-13"><title>树状图（左上）</title><g clip-path="url(#clip0_38275_258203)"><path d="M18.0644 26.001V26.001C19.1334 26.001 20 25.1344 20 24.0654V9.76166C20 7.68469 18.3163 6.00098 16.2393 6.00098H10" stroke="#667085" stroke-width="0.833333"></path><path d="M20 22.668V18.9287C20 16.8517 18.3163 15.168 16.2393 15.168H10" stroke="#667085" stroke-width="0.833333"></path><rect width="8.33333" height="5" rx="1.66667" transform="matrix(1 0 0 -1 3.3335 17.6387)" fill="#8F99A8"></rect><rect width="8.33333" height="5" rx="1.66667" transform="matrix(1 0 0 -1 3.33301 8.50098)" fill="#8F99A8"></rect><rect x="13.3335" y="19.334" width="14.1667" height="10" rx="2.5" fill="url(#paint0_linear_38275_258203)"></rect></g><defs><linearGradient id="paint0_linear_38275_258203" x1="20.8335" y1="19.334" x2="20.8335" y2="29.334" gradientUnits="userSpaceOnUse"><stop stop-color="#16C784"></stop><stop offset="1" stop-color="#43D89C"></stop></linearGradient><clipPath id="clip0_38275_258203"><rect width="35" height="26.6667" fill="white" transform="matrix(1 0 0 -1 2.5 29.334)"></rect></clipPath></defs></svg>