<?xml version="1.0" encoding="utf-8" ?>
<svg xmlns="http://www.w3.org/2000/svg" xmlns:xlink="http://www.w3.org/1999/xlink" width="88" height="88">
	<path fill="white" d="M44 88C19.79 88 0 68.3105 0 44C0 19.79 19.6895 0 44 0C68.21 0 88 19.6895 88 44C88 68.21 68.21 88 44 88"/>
	<path fill="#E0E0E0" d="M43.8995 84.283C21.5981 84.283 3.5159 66.1004 3.5159 43.8995C3.5159 21.6985 21.6985 3.5159 43.8995 3.5159C66.1004 3.5159 84.283 21.6985 84.283 43.8995C84.283 66.1004 66.2008 84.283 43.8995 84.283"/>
	<path fill="#2D1B0A" d="M43.8996 85.2878C21.096 85.2878 2.5115 66.7033 2.5115 43.8996C2.5115 21.096 21.096 2.5115 43.8996 2.5115C66.7033 2.5115 85.2878 21.096 85.2878 43.8996C85.2878 66.8037 66.7033 85.2878 43.8996 85.2878M43.8996 4.62109C22.201 4.62109 4.52063 22.3015 4.52063 44.0001C4.52063 65.6987 22.201 83.3791 43.8996 83.3791C65.5983 83.3791 83.2786 65.6987 83.2786 44.0001C83.2786 22.201 65.5983 4.62109 43.8996 4.62109"/>
	<path fill="white" d="M75.7443 44C75.7443 61.5874 61.4869 75.8448 43.8996 75.8448C26.3123 75.8448 12.0549 61.5874 12.0549 44C12.0549 26.4128 26.3123 12.1554 43.8996 12.1554C61.4869 12.1554 75.7443 26.4128 75.7443 44"/>
	<path fill="#2D1B0A" d="M43.8995 76.7488C25.8173 76.7488 11.0502 61.9817 11.0502 43.8995C11.0502 25.8173 25.8173 11.0502 43.8995 11.0502C61.9817 11.0502 76.7488 25.8173 76.7488 43.8995C76.7488 62.0822 61.9817 76.7488 43.8995 76.7488M43.8995 13.1598C26.9223 13.1598 13.0593 27.0228 13.0593 44C13.0593 60.9771 26.9223 74.8402 43.8995 74.8402C60.8767 74.8402 74.7397 60.9771 74.7397 44C74.7397 27.0228 60.8767 13.1598 43.8995 13.1598"/>
	<path fill="#FF2312" d="M45.4064 47.9178L44.201 47.9178C43.7991 47.9178 43.1964 47.516 43.1964 47.1141L43.1964 25.3151C43.1964 24.9132 43.5982 24.5114 44.201 24.5114L45.4064 24.5114C45.8083 24.5114 46.411 24.9132 46.411 25.3151L46.411 47.1141C46.1096 47.6164 45.7078 47.9178 45.4064 47.9178"/>
	<path fill="#111C47" d="M42.895 46.7123L42.895 44.9041C42.895 44.5023 43.2968 43.8995 43.6987 43.8995L59.169 43.8995C59.5708 43.8995 59.9726 44.3013 59.9726 44.9041L59.9726 46.7123C59.9726 47.1141 59.5708 47.7169 59.169 47.7169L43.5982 47.7169C43.2968 47.6164 42.895 47.3151 42.895 46.7123"/>
	<path fill="#3F3F3F" d="M48.2192 45.8082C48.2192 47.5281 46.8249 48.9224 45.105 48.9224C43.3851 48.9224 41.9908 47.5281 41.9908 45.8082C41.9908 44.0883 43.3851 42.694 45.105 42.694C46.8249 42.694 48.2192 44.0883 48.2192 45.8082"/>
	<path fill="#3F3F3F" d="M11.7534 43.4977L21.5982 43.4977L21.5982 45.2055L11.7534 45.2055L11.7534 43.4977"/>
	<path fill="#3F3F3F" d="M66.8036 43.5982L76.6484 43.5982L76.6484 45.306L66.8036 45.306L66.8036 43.5982"/>
	<path fill="#3F3F3F" d="M44 66.2009L45.7078 66.2009L45.7078 76.0457L44 76.0457L44 66.2009"/>
	<path fill="#3F3F3F" d="M43.6986 11.452L45.4064 11.452L45.4064 21.2968L43.6986 21.2968L43.6986 11.452"/>
	<path fill="#3F3F3F" d="M15.2943 29.0738L16.1622 27.6031L21.4395 30.7172L20.5716 32.188L15.2943 29.0738"/>
	<path fill="#3F3F3F" d="M66.4321 57.6344L67.2842 56.1544L73.0299 59.4628L72.1778 60.9428L66.4321 57.6344"/>
	<path fill="#3F3F3F" d="M26.8911 16.7321L28.3339 15.8185L31.6123 20.9953L30.1695 21.9089L26.8911 16.7321"/>
	<path fill="#3F3F3F" d="M57.7169 66.3328L59.1853 65.4608L62.468 70.9886L60.9997 71.8606L57.7169 66.3328"/>
	<path fill="#3F3F3F" d="M55.9661 20.0383L58.8322 14.736L60.3345 15.5481L57.4684 20.8504L55.9661 20.0383"/>
	<path fill="#3F3F3F" d="M27.7358 72.2367L30.7577 66.4481L32.2716 67.2385L29.2497 73.0271L27.7358 72.2367"/>
	<path fill="#3F3F3F" d="M66.0795 29.2067L71.467 26.0813L72.3239 27.5585L66.9364 30.6839L66.0795 29.2067"/>
	<path fill="#3F3F3F" d="M15.7156 60.1056L21.2441 56.8235L22.1159 58.292L16.5875 61.5741L15.7156 60.1056"/>
</svg>
