<?xml version="1.0" encoding="utf-8" ?>
<svg xmlns="http://www.w3.org/2000/svg" xmlns:xlink="http://www.w3.org/1999/xlink" width="80" height="70">
	<path fill="white" d="M6.03315 69.7991C3.74193 69.7991 1.84917 68.594 0.753366 66.5854C-0.342439 64.5768 -0.24282 62.066 1.05222 60.2582L7.22858 50.6169C7.42782 50.1148 7.72667 49.7131 7.92591 49.3113L17.0908 35.1506C16.5927 35.1506 16.1943 35.1506 15.8954 35.1506C15.3973 35.1506 14.7 35.1506 13.903 35C13.0065 35 11.9107 35 10.9145 35C9.91828 35 8.9221 34.8494 8.22476 34.8494C7.92591 34.8494 7.62705 34.8494 7.52743 34.8494C3.74193 34.8494 0.952603 32.0373 0.952603 28.2209C0.952603 25.1076 2.94498 22.5968 5.7343 21.7934C7.02934 17.4749 11.0141 14.3615 15.4969 14.3615C19.7805 14.3615 23.4664 16.9727 25.1599 20.99C25.4588 20.99 25.7576 21.0904 25.9569 21.0904L37.1142 3.71593C38.21 1.50646 40.6008 0 43.2905 0C45.5818 0 47.7734 1.20516 49.2676 3.3142L78.954 49.8135C80.3487 52.1234 80.3487 54.9354 78.954 57.3458C78.3563 58.3501 77.4597 59.3544 76.3639 60.1578C75.1685 60.9613 73.8735 61.363 72.4788 61.363L51.1604 61.363C51.9574 63.0703 51.8577 65.0789 50.8615 66.7862C50.3635 67.5897 49.6661 68.3931 48.7696 68.9957C47.7734 69.5983 46.6776 70 45.5818 70L6.03315 70"/>
	<path fill="#3A7C42" d="M46.9764 4.93361L76.4635 51.1316C77.2606 52.5376 77.2606 54.2449 76.4635 55.6509C76.1647 56.2535 75.5669 56.9566 74.7701 57.4587C74.1723 57.8604 73.3754 58.1617 72.5785 58.1617L17.5889 58.1617L14.0027 58.1617C12.4088 58.1617 10.9145 57.3582 10.1175 55.6509C9.32059 54.2449 9.32059 52.3368 10.3168 50.9307L39.8038 5.03405C40.7005 2.87515 44.4859 1.51898 46.9764 4.93361"/>
	<path fill="#2D1B0A" d="M72.5784 59.053L14.0026 59.053C11.9106 59.053 10.2171 57.9482 9.22092 56.0401C8.22473 54.2323 8.32435 51.9224 9.51977 50.3155L38.9073 4.61969C39.505 3.21366 41.0989 2.10893 42.6928 1.9839C43.7886 1.9839 45.8806 1.9839 47.6737 4.41883L77.1608 50.7172C78.157 52.4246 78.157 54.5336 77.1608 56.2409C76.7624 57.0444 75.9654 57.8478 75.1685 58.35C74.4711 58.7517 73.4749 59.053 72.5784 59.053M43.2248 3.81624C43.2248 3.81624 43.0913 3.81624 42.9916 3.81624C41.9955 3.91667 41.0989 4.51926 40.7004 5.3227L11.1137 51.3198C10.3167 52.4246 10.2171 53.8306 10.9144 54.9353C11.6118 56.2409 12.608 56.9439 13.903 56.9439L72.4788 56.9439C73.0765 56.9439 73.5746 56.7431 74.1723 56.4418C74.6704 56.0401 75.1685 55.5379 75.4673 55.0358C76.1646 53.931 76.1646 52.6254 75.4673 51.5207L46.0798 5.3227C45.1832 4.21796 44.0874 3.81624 43.2248 3.81624"/>
	<path fill="#FAFFFD" d="M27.1523 25.1077C27.1523 25.1077 37.1142 24.7061 40.5012 26.1121C44.2867 27.5181 36.7157 30.0289 39.4054 30.8323C42.2943 31.6357 62.1184 29.5266 62.1184 29.5266L48.3711 7.93416C48.3711 7.93416 46.4783 3.1135 43.0913 3.30825C40.5012 3.30825 37.7119 9.54104 37.7119 9.54104L27.1523 25.1077"/>
	<path fill="#2D1B0A" d="M41.9954 32.0374C40.7004 32.0374 39.6046 31.9369 39.1065 31.8365C38.2099 31.5351 37.9111 31.0329 37.8114 30.6311C37.6122 29.6266 38.5088 28.9234 39.4053 28.2203C39.7042 27.9189 40.2023 27.5171 40.5012 27.2158C40.4015 27.2158 40.3019 27.1153 40.2023 27.1153C37.5126 26.0104 29.9416 26.0104 27.2519 26.1108L25.2595 26.2113L36.9149 9.13465C37.5126 7.82879 40.2023 2.3981 43.1909 2.3981C46.9764 2.20356 49.0684 6.82429 49.3672 7.52744L64.0112 30.4302L62.4173 30.6311C60.5245 30.7315 48.1718 32.0374 41.9954 32.0374M40.4015 30.0284C43.4897 30.3297 53.4516 29.4257 60.4249 28.7225L47.4745 8.33105C47.4745 8.33105 45.7809 4.21257 43.1909 4.31302C41.6966 4.31302 39.6046 7.52744 38.6084 9.93826L29.045 24.0013C32.1332 24.0013 38.2099 24.0013 40.8 25.1063C41.7962 25.5081 42.3939 26.0104 42.4935 26.7135C42.6928 27.9189 41.597 28.823 40.6008 29.6266C40.6008 29.8275 40.5012 29.9279 40.4015 30.0284"/>
	<path fill="#DEFDFF" d="M25.0604 32.2382C24.3631 32.2382 22.4704 32.2382 20.6772 32.0374C18.7845 32.0374 16.6924 31.8365 15.7958 31.8365C14.7 31.8365 12.8073 31.6356 10.9146 31.6356C9.42028 31.6356 8.02561 31.4348 7.52752 31.4348C5.43553 31.4348 3.94125 29.9283 3.94125 27.8193C3.94125 25.7102 5.43553 24.2038 7.52752 24.2038C8.82256 19.8853 12.0104 16.9728 15.5967 16.9728C19.1829 16.9728 22.0718 19.4835 22.9685 23.099L23.1677 24.2038L24.2635 23.6012C24.4627 23.6012 24.6619 23.6012 24.8612 23.6012C27.0527 23.6012 28.9497 25.5094 28.9497 28.0201C29.0452 30.5309 27.3517 32.2382 25.0604 32.2382"/>
	<path fill="#2D1B0A" d="M25.0697 33.2425C24.372 33.2425 22.3788 33.2425 20.585 33.0416C19.4887 33.0416 18.2928 32.9412 17.3958 32.9412C16.6982 32.9412 16.1999 32.8408 15.8013 32.8408C15.303 32.8408 14.705 32.8408 13.9077 32.7403C13.0108 32.7403 11.9145 32.6399 10.8183 32.6399C9.82167 32.6399 8.92473 32.5395 8.22711 32.5395C7.82847 32.5395 7.52949 32.5395 7.33017 32.5395C4.739 32.5395 2.7458 30.5309 2.7458 27.9197C2.7458 25.3085 4.63934 23.4003 7.23051 23.2999C7.72881 19.2827 11.3166 16.0689 15.303 16.0689C19.1897 16.0689 22.4785 18.6801 23.5748 22.7977C27.2622 22.6973 29.5694 25.1076 29.5694 28.0201C29.654 29.3257 29.2554 30.5309 28.4581 31.5352C27.7605 32.6399 26.4649 33.2425 25.0697 33.2425M7.42983 25.4089C5.93492 25.4089 4.83866 26.5137 4.83866 28.0201C4.83866 29.5266 5.93492 30.6313 7.42983 30.6313C7.62915 30.6313 8.02779 30.6313 8.42643 30.7317C9.12405 30.7317 9.92133 30.8322 10.8183 30.8322C11.9145 30.8322 13.0108 30.9326 14.0074 30.9326C14.705 30.9326 15.303 31.033 15.8013 31.033C16.1999 31.033 16.7979 31.033 17.4955 31.1335C18.3924 31.1335 19.5884 31.2339 20.6846 31.2339C22.4785 31.4348 24.372 31.4348 25.0697 31.4348C25.8669 31.4348 26.6642 31.1335 27.1625 30.5309C27.6608 30.0287 27.8602 29.3257 27.7605 28.5223C27.7605 26.5137 26.3652 25.0072 24.671 25.0072L22.2792 26.1119L21.9802 23.7016C21.0833 20.4878 18.5918 18.3788 15.602 18.3788C12.5125 18.3788 9.82167 20.8896 9.42303 24.0029L9.12405 25.6098L7.42983 25.6098"/>
	<path fill="#DEFDFF" d="M66.9002 50.1148C66.2028 50.1148 64.3101 50.1148 62.5169 49.914C60.6242 49.914 58.5322 49.7131 57.6356 49.7131C56.5398 49.7131 54.6471 49.5122 52.7543 49.5122C51.26 49.5122 49.8654 49.3114 49.3673 49.3114C47.2753 49.3114 45.781 47.8049 45.781 45.6959C45.781 43.5868 47.2753 42.0804 49.3673 42.0804C50.6623 37.7619 53.8501 34.8494 57.4364 34.8494C61.0227 34.8494 63.9116 37.3601 64.8082 40.9756L65.0074 42.0804L66.1032 41.4778C66.3024 41.4778 66.5017 41.4778 66.7009 41.4778C68.8925 41.4778 70.7892 43.386 70.7892 45.8967C70.8849 48.4075 69.0918 50.1148 66.9002 50.1148"/>
	<path fill="#2D1B0A" d="M66.9095 51.1191C66.2118 51.1191 64.2186 51.1191 62.4248 50.9182C61.3285 50.9182 60.1326 50.8178 59.2356 50.8178C58.538 50.8178 58.0397 50.7174 57.6411 50.7174C57.1428 50.7174 56.5448 50.7174 55.7475 50.6169C54.8506 50.6169 53.7543 50.5165 52.6581 50.5165C51.6615 50.5165 50.7645 50.4161 50.0669 50.4161C49.6683 50.4161 49.3693 50.4161 49.17 50.4161C46.5788 50.4161 44.5856 48.4075 44.5856 45.7963C44.5856 43.1851 46.4791 41.2769 49.0703 41.1765C49.5686 37.1593 53.1564 33.9455 57.1428 33.9455C61.0295 33.9455 64.3183 36.5567 65.4146 40.6743C69.102 40.5739 71.4092 42.9842 71.4092 45.8967C71.4938 47.2023 71.0952 48.4075 70.2979 49.4118C69.6003 50.5165 68.3047 51.1191 66.9095 51.1191M49.2696 43.2855C47.7747 43.2855 46.6785 44.3903 46.6785 45.8967C46.6785 47.4032 47.7747 48.5079 49.2696 48.5079C49.469 48.5079 49.8676 48.5079 50.2662 48.6083C50.9639 48.6083 51.7611 48.7088 52.6581 48.7088C53.7543 48.7088 54.8506 48.8092 55.8472 48.8092C56.5448 48.8092 57.1428 48.9096 57.6411 48.9096C58.0397 48.9096 58.6377 48.9096 59.3353 49.0101C60.2322 49.0101 61.4282 49.1105 62.5244 49.1105C64.3183 49.3114 66.2118 49.3114 66.9095 49.3114C67.7067 49.3114 68.504 49.0101 69.0023 48.4075C69.5006 47.9053 69.7 47.2023 69.6003 46.3989C69.6003 44.3903 68.205 42.8838 66.5108 42.8838L64.119 43.9885L63.82 41.5782C62.9231 38.3644 60.4316 36.2554 57.4418 36.2554C54.3523 36.2554 51.6615 38.7662 51.2628 41.8795L50.9639 43.4864L49.2696 43.4864"/>
	<path fill="#3A7C42" d="M28.2481 30.5354L48.2715 61.9702C48.8692 62.9745 48.8692 64.0792 48.2715 64.9831C48.0722 65.3848 47.6738 65.887 47.1757 66.1882C46.7772 66.4895 46.2791 66.6904 45.6814 66.6904L8.32441 66.6904L5.83394 66.6904C4.73814 66.6904 3.74195 66.0878 3.24386 64.9831C2.64615 63.9788 2.64615 62.7736 3.44309 61.7693L23.4664 30.6359C24.0642 29.1625 26.5546 28.2255 28.2481 30.5354"/>
	<path fill="#2D1B0A" d="M45.6814 67.6899L5.93355 67.6899C4.43927 67.6899 3.14423 66.886 2.4469 65.4791C1.64995 64.1727 1.74957 62.4643 2.74575 61.2584L22.6695 30.2064C23.1676 29.2014 24.2634 28.3975 25.5584 28.1626C26.9531 27.9955 28.2481 28.699 29.2443 30.0054L49.2677 61.5599C50.0646 62.8663 50.0646 64.3737 49.2677 65.6801C48.9688 66.283 48.4707 66.7855 47.873 67.1875C47.0761 67.4889 46.3787 67.6899 45.6814 67.6899M25.8905 30.2064C25.7577 30.2064 25.7577 30.2064 25.658 30.2064C25.0603 30.3069 24.5622 30.7088 24.363 31.0103L4.24004 62.2634C3.74194 62.8663 3.74194 63.7707 4.14042 64.3737C4.53889 65.1776 5.1366 65.5796 5.93355 65.5796L45.6814 65.5796C45.9802 65.5796 46.2791 65.4791 46.6776 65.2781C47.0761 64.9766 47.3749 64.6752 47.4745 64.4742C47.873 63.7707 47.873 63.0673 47.4745 62.4643L27.4512 31.1108C26.9531 30.5078 26.455 30.2064 25.8905 30.2064"/>
	<path fill="#FAFFFD" d="M14.8991 44.2897C14.8991 44.2897 21.5736 43.9885 23.7652 44.9928C26.2556 45.9971 21.2747 47.6039 23.0679 48.2065C24.9606 48.8091 38.3096 47.3027 38.3096 47.3027L29.0449 32.6398C29.0449 32.6398 27.75 29.3256 25.5583 29.5177C23.8648 29.5177 21.9721 33.7445 21.9721 33.7445L14.8991 44.2897"/>
	<path fill="#2D1B0A" d="M24.8611 49.3112C23.8649 49.3112 23.1676 49.3112 22.7691 49.1103C21.9722 48.9093 21.7729 48.407 21.6733 48.0051C21.4741 47.2013 22.1714 46.5985 22.8687 46.0962C22.9684 45.9957 23.068 45.8952 23.2672 45.7948C21.3745 45.1919 16.6924 45.1919 14.9989 45.2924L13.0065 45.3929L21.0756 33.3364C21.6733 32.1308 23.3668 28.6053 25.5584 28.6053C28.2482 28.4134 29.7424 31.6284 29.9417 32.3317L40.0032 48.3065L38.4093 48.5075C36.6161 48.407 28.8459 49.3112 24.8611 49.3112M24.5623 47.3018C27.0527 47.3018 32.3325 46.8999 36.6161 46.4981L28.1485 33.035C27.8497 32.3317 26.8535 30.4228 25.6581 30.5233C24.9607 30.5233 23.6657 32.2313 22.8687 34.1402L16.792 43.283C18.9836 43.283 22.5699 43.3835 24.1638 44.0868C24.9607 44.3882 25.3592 44.8905 25.4588 45.4934C25.6581 46.1966 25.16 46.7995 24.5623 47.3018"/>
</svg>
