<?xml version="1.0" encoding="utf-8" ?>
<svg xmlns="http://www.w3.org/2000/svg" xmlns:xlink="http://www.w3.org/1999/xlink" width="84" height="106">
	<path fill="white" d="M42 106C18.8551 106 0 87.1533 0 64.0188C0.299287 42.7789 15.8622 25.0292 36.5131 22.4365L36.5131 20.3424C35.8147 19.9436 35.1164 19.445 34.5178 18.8467C32.4228 16.8523 31.3254 14.0602 31.3254 10.969C31.6247 4.58702 36.3135 0 42.2993 0C48.3848 0 53.2732 4.78645 53.2732 10.969C53.2732 13.7611 52.1758 16.4534 50.2803 18.5475C49.4822 19.445 48.4846 20.143 47.4869 20.6416L47.4869 22.4365C68.4371 25.1289 84 42.8786 84 64.0188C84 87.1533 65.1449 106 42 106"/>
	<path fill="#E0E2E2" d="M39.4561 17.2512L44.3444 17.2512L44.3444 25.9266L39.4561 25.9266L39.4561 17.2512"/>
	<path fill="#2D1B0A" d="M45.4418 26.8241L38.5582 26.8241L38.5582 16.1543L45.4418 16.1543L45.4418 26.8241M40.4537 24.8298L43.3468 24.8298L43.3468 18.1487L40.4537 18.1487L40.4537 24.8298"/>
	<path fill="#E0E2E2" d="M42 103.008C20.5013 103.008 2.94305 85.5578 2.94305 64.0188C3.14257 43.776 18.3064 27.3226 37.86 25.2285C38.5583 25.0291 43.4467 25.0291 44.145 25.0291C44.8433 25.0291 45.5416 25.1288 46.24 25.2285C65.6936 27.3226 81.057 43.8758 81.057 64.0188C80.9573 85.4581 63.4989 103.008 42 103.008"/>
	<path fill="#2D1B0A" d="M42.0001 104.006C19.9027 104.006 1.9455 86.0564 1.9455 64.0187C2.24479 43.4769 17.6082 26.4251 37.7602 24.2313C38.5583 24.0319 43.4467 24.0319 44.145 24.0319C44.8434 24.0319 45.6415 24.1316 46.3398 24.2313C66.6913 26.4251 82.0548 43.5766 82.0548 64.0187C81.955 86.0564 63.9978 104.006 42.0001 104.006M43.6462 26.126C42.3493 26.126 38.5583 26.2257 37.9598 26.3254C18.8054 28.3198 4.24004 44.5738 3.94075 64.1184C3.94075 85.0592 21.0001 102.111 42.0001 102.111C62.9004 102.111 79.9598 85.0592 79.9598 64.1184C79.9598 44.6735 65.3944 28.4195 46.0405 26.3254C45.3422 26.2257 44.6438 26.2257 43.9455 26.126C43.9455 26.126 43.746 26.126 43.6462 26.126"/>
	<path fill="#2D1B0A" d="M41.8004 95.9285C24.1424 95.9285 9.7766 81.5692 9.7766 63.9191C9.7766 46.2691 24.1424 31.9097 41.8004 31.9097C59.4583 31.9097 73.8241 46.2691 73.8241 63.9191C73.8241 81.5692 59.4583 95.9285 41.8004 95.9285M41.8004 34.9012C25.8384 34.9012 12.7695 47.9643 12.7695 63.9191C12.7695 79.874 25.8384 92.937 41.8004 92.937C57.7623 92.937 70.8312 79.874 70.8312 63.9191C70.8312 47.9643 57.8621 34.9012 41.8004 34.9012"/>
	<path fill="#FAFFFD" d="M72.3278 63.9192C72.3278 80.7715 58.6603 94.4329 41.8004 94.4329C24.9407 94.4329 11.2732 80.7715 11.2732 63.9192C11.2732 47.067 24.9407 33.4056 41.8004 33.4056C58.6603 33.4056 72.3278 47.067 72.3278 63.9192"/>
	<path fill="#E0E2E2" d="M34.4181 10.9689C34.6176 6.38191 38.1093 2.99151 42.3991 2.99151C46.6889 2.99151 50.3801 6.38191 50.3801 10.9689C50.3801 13.063 49.582 15.0574 48.1853 16.4534C47.3872 17.2511 46.3896 17.9492 45.2922 18.348C44.3943 18.6472 43.3967 18.8466 42.3991 18.8466C41.4015 18.8466 40.5036 18.6472 39.6057 18.348C38.5083 17.9492 37.5107 17.3509 36.7126 16.5531C35.2162 15.2568 34.4181 13.2624 34.4181 10.9689"/>
	<path fill="#2D1B0A" d="M42.2993 19.9436C41.2019 19.9436 40.2043 19.744 39.2067 19.445C37.9098 19.046 36.8124 18.348 35.9145 17.4506C34.2186 15.7554 33.3207 13.5616 33.3207 11.0686C33.62 5.88333 37.411 2.09405 42.2993 2.09405C47.2874 2.09405 51.2779 5.98304 51.2779 11.0686C51.2779 13.3622 50.3801 15.556 48.8836 17.2512C47.9858 18.2484 46.8884 18.9464 45.5915 19.445C44.4941 19.744 43.3967 19.9436 42.2993 19.9436M35.4157 10.9689C35.4157 12.9632 36.1141 14.6584 37.411 15.9548C38.1093 16.6528 38.9074 17.1514 39.905 17.4506C41.5012 17.9492 43.297 17.9492 44.8931 17.3508C45.8908 16.952 46.6889 16.4534 47.3872 15.6556C48.5844 14.3594 49.2827 12.6642 49.2827 10.8692C49.2827 6.98022 46.1901 3.88897 42.2993 3.88897C38.6081 3.98869 35.6152 6.98022 35.4157 10.9689"/>
	<path fill="#2E83FF" d="M54.5701 43.3772L37.9098 62.3236L45.5915 66.9106"/>
	<path fill="#FF4848" d="M28.8314 86.4554L37.6105 62.8223L45.2922 67.4093"/>
	<path fill="white" d="M39.1068 42.8787C40.0047 43.1778 40.1045 43.477 40.304 43.6764C40.5035 43.8758 40.703 44.0753 41.1021 44.2747C41.5011 44.4741 41.8004 44.4741 42.2992 44.4741C42.6983 44.4741 42.9976 44.3744 43.2969 44.2747C43.5962 44.175 43.7957 43.9756 43.9952 43.7761C44.095 43.5767 44.1947 43.3773 44.1947 43.1778C44.1947 42.9784 44.095 42.7789 43.9952 42.5795C43.8954 42.3801 43.5962 42.2804 43.2969 42.1806C43.0973 42.0809 42.5985 41.9812 42 41.7818C41.3016 41.5823 40.8028 41.4826 40.5035 41.2832C40.1045 41.0837 39.9049 40.8843 39.7054 40.5852C39.5059 40.286 39.4061 39.9868 39.4061 39.6877C39.4061 39.2888 39.5059 38.9897 39.7054 38.5908C39.9049 38.2916 40.2042 37.9925 40.6033 37.7931C41.0023 37.4939 41.5011 37.4939 42 37.4939C42.5985 37.4939 43.0973 37.4939 43.4964 37.7931C43.8954 37.9925 44.2945 38.1919 44.494 38.5908C44.6935 38.9897 44.8931 39.2888 44.8931 39.7874C43.7957 39.3885 43.6959 39.0894 43.3966 38.7902C43.0973 38.5908 42.6983 38.3914 42.0997 38.3914C41.5011 38.3914 41.1021 38.4911 40.8028 38.6905C40.5035 38.89 40.4038 39.1891 40.4038 39.4883C40.4038 39.7874 40.5035 39.9868 40.703 40.1863C40.9026 40.3857 41.4014 40.5852 42.1995 40.6849C42.9976 40.8843 43.5962 40.984 43.8954 41.1835C44.2945 41.3829 44.6935 41.6821 44.8931 41.9812C45.0926 42.2804 45.1924 42.6792 45.1924 43.0781C45.1924 43.477 45.0926 43.8758 44.8931 44.175C44.6935 44.5739 44.2945 44.7733 43.8954 44.9727C43.4964 45.1722 42.9976 45.2719 42.399 45.2719C41.7007 45.2719 41.1021 45.1722 40.703 44.9727C40.2042 44.7733 39.9049 44.4741 39.6057 44.0753C39.1068 43.7761 39.1068 43.3773 39.1068 42.8787"/>
	<path fill="white" d="M39.5059 92.1393L39.5059 84.5607L44.494 90.4441L44.494 84.5607L45.4917 92.1393L40.5035 86.2559L40.5035 92.1393"/>
	<path fill="#333" d="M60.8551 85.2587C60.3563 85.2587 59.8575 85.0593 59.4584 84.6604L56.266 81.4694C55.4679 80.6717 55.4679 79.3754 56.266 78.5776C57.0641 77.7799 58.3611 77.7799 59.1592 78.5776L62.3516 81.7686C62.7506 82.1674 62.9501 82.666 62.9501 83.1646C62.9501 83.6632 62.7506 84.1618 62.3516 84.5607C61.9525 84.9595 61.4537 85.159 60.8551 85.2587"/>
	<path fill="#333" d="M15.4632 66.6114C14.4656 66.6114 13.5677 65.8137 13.5677 64.7168C13.5677 63.7196 14.3658 62.8222 15.4632 62.8222L19.6532 62.8222C20.6508 62.8222 21.5487 63.6199 21.5487 64.7168C21.5487 65.714 20.7506 66.6114 19.6532 66.6114L15.4632 66.6114"/>
	<path fill="#333" d="M63.5486 66.7112C62.4513 66.7112 61.5534 65.8137 61.5534 64.7168C61.5534 63.6199 62.4513 62.7224 63.5486 62.7224L68.038 62.7224C69.1353 62.7224 70.0332 63.6199 70.0332 64.7168C70.0332 65.8137 69.1353 66.7112 68.038 66.7112L63.5486 66.7112"/>
	<path fill="#333" d="M26.9359 51.5541C26.4371 51.5541 25.9383 51.3547 25.5392 50.9558L22.3468 47.7649C21.5487 46.9671 21.5487 45.7705 22.3468 44.9728C22.7459 44.5739 23.2447 44.3745 23.7435 44.3745C24.2423 44.3745 24.7411 44.5739 25.1402 44.9728L28.3326 48.1637C29.1307 48.9615 29.1307 50.1581 28.3326 50.9558C27.9335 51.3547 27.4347 51.5541 26.9359 51.5541"/>
	<path fill="#333" d="M63.8479 48.4628C63.8479 48.9614 63.6484 49.46 63.2494 49.8588L59.9572 52.9501C59.1591 53.7478 57.8622 53.7478 57.0641 52.8504C56.266 52.0526 56.266 50.7563 57.1639 49.9586L60.456 46.8673C60.8551 46.4684 61.3539 46.3433 61.8527 46.3433C62.3515 46.3433 62.8503 46.5682 63.2494 46.967C63.5487 47.3659 63.7482 47.8645 63.8479 48.4628"/>
	<path fill="#333" d="M29.0309 81.27C29.0309 81.7686 28.8314 82.2672 28.4323 82.6661L25.1401 85.7573C24.342 86.4554 23.0451 86.4554 22.3468 85.6576C21.9477 85.2588 21.8226 84.7602 21.8226 84.2616C21.8226 83.763 22.0475 83.2644 22.4466 82.8655L25.7387 79.7743C26.5368 79.0762 27.8337 79.0762 28.5321 79.874C28.8314 80.1731 29.1306 80.6717 29.0309 81.27"/>
</svg>
