<?xml version="1.0" encoding="utf-8" ?>
<svg xmlns="http://www.w3.org/2000/svg" xmlns:xlink="http://www.w3.org/1999/xlink" width="72" height="94">
	<path fill="white" d="M62.3 0L9.7 0C4.3 0 0 4.34157 0 9.79377L0 84.2062C0 89.6584 4.3 94 9.7 94L62.3 94C67.7 94 72 89.6584 72 84.2062L72 9.79377C71.9 4.34157 67.7 0 62.3 0"/>
	<path fill="#2D1B0A" d="M61.9 4.54352C64.8 4.54352 67.1 6.86575 67.1 9.79379L67.1 84.2063C67.1 87.1342 64.8 89.4566 61.9 89.4566L9.3 89.4566C6.6 89.4566 4.1 87.1342 4.1 84.2063L4.1 9.79379C4.1 6.86575 6.6 4.54352 9.3 4.54352L61.9 4.54352M61.9 2.32225L9.3 2.32225C5.2 2.32225 1.9 5.75512 1.9 9.79379L1.9 84.2063C1.9 88.3458 5.3 91.6777 9.3 91.6777L61.9 91.6777C66.2 91.6777 69.3 88.5479 69.3 84.2063L69.3 9.79379C69.2 5.45222 66.1 2.32225 61.9 2.32225"/>
	<path fill="#7A7A7A" d="M24.7 73.8067L45.8 73.8067L45.8 75.6241L24.7 75.6241L24.7 73.8067"/>
	<path fill="#7A7A7A" d="M16.4 61.0849L54.2 61.0849L54.2 62.9023L16.4 62.9023L16.4 61.0849"/>
	<path fill="#E0536F" d="M54 83.3984C49.7 83.3984 46.1 79.8646 46.1 75.4221C46.1 71.0806 49.6 67.4457 54 67.4457C58.3 67.4457 61.9 70.9796 61.9 75.4221C61.9 79.7636 58.3 83.3984 54 83.3984M54 68.4554C50.2 68.4554 47.1 71.5854 47.1 75.4221C47.1 79.2589 50.2 82.3888 54 82.3888C57.8 82.3888 60.9 79.2589 60.9 75.4221C60.9 71.5854 57.8 68.4554 54 68.4554"/>
	<path fill="#E0536F" d="M48.0892 75.4221C47.9 72.2922 50.5 69.4651 53.8 69.2523C56.9 69.0612 59.7 71.6864 59.9 75.0183C58.8 72.2922 56.5 70.0709 53.9 70.2728C51.1 70.4748 49 72.797 49.1 75.4221L48.0892 75.4221"/>
	<path fill="#E0536F" d="M54.4 74.1096L55.3 76.1289L57.6 76.5328L56 78.1482L56.2 80.5714L54.4 79.2589L52.2 80.5714L52.6 78.1482L51.1 76.5328L53.2 76.1289"/>
	<path fill="#2D1B0A" d="M35.4 12.3179C25.7 12.3179 17.7 20.2943 17.7 30.189C17.7 39.9828 25.6 48.0601 35.4 48.0601C45.1 48.0601 53.1 40.0837 53.1 30.189C53 20.2943 45.1 12.3179 35.4 12.3179M19.2 30.8958L26.7 30.8958C26.7 33.218 27 35.4393 27.5 37.7615L21 37.7615C19.9 35.5402 19.3 33.319 19.2 30.8958M36.1 20.2943L36.1 13.8324C38.1 14.2363 39.9 16.7604 41.1 20.2943L36.1 20.2943M41.5 21.7078C42.1 24.131 42.5 26.7561 42.5 29.2803L36 29.2803L36 21.7078L41.5 21.7078M34.6 13.8324L34.6 20.2943L29.6 20.2943C30.8 16.8614 32.6 14.4382 34.6 13.8324M34.6 21.7078L34.6 29.2803L28.1 29.2803C28.1 26.7561 28.4 24.131 29.1 21.7078L34.6 21.7078M26.6 29.3813L19.1 29.3813C19.2 26.7561 20 24.131 21.3 21.8088L27.5 21.8088C27 24.232 26.7 26.8571 26.6 29.3813M28.1 30.8958L34.6 30.8958L34.6 37.7615L29 37.7615C28.4 35.4393 28.2 33.218 28.1 30.8958M34.6 39.175L34.6 46.4446C32.4 45.9398 30.6 43.2137 29.4 39.175L34.6 39.175M34.8 46.4446L35.9 46.4446C35.5 46.5456 35.1 46.5456 34.8 46.4446M36.1 46.4446L36.1 39.175L41.3 39.175C40.1 43.1127 38.3 45.9398 36.1 46.4446M36.1 37.6605L36.1 30.7948L42.6 30.7948C42.6 33.117 42.3 35.3383 41.7 37.6605L36.1 37.6605M44.1 30.8958L51.6 30.8958C51.5 33.319 50.9 35.6412 49.8 37.7615L43.3 37.7615C43.7 35.4393 44 33.218 44.1 30.8958M44.1 29.4822C44.1 26.9581 43.8 24.3329 43.1 21.9097L49.3 21.9097C50.6 24.232 51.4 26.8571 51.5 29.4822L44.1 29.4822M48.3 20.2943L42.7 20.2943C42.1 18.073 41 16.0537 39.4 14.3372C42.9 15.2459 46.1 17.3662 48.3 20.2943M31.3 14.3372C29.8 16.0537 28.7 18.174 28.1 20.2943L22.5 20.2943C24.6 17.3662 27.7 15.2459 31.3 14.3372M21.8 39.175L27.7 39.175C28.3 41.5982 29.4 44.0214 31.1 46.0408C27.4 44.9301 24.1 42.5069 21.8 39.175M39.4 45.9398C41.1 44.0214 42.2 41.6992 42.8 39.0741L48.7 39.0741C46.6 42.5069 43.3 44.9301 39.4 45.9398"/>
</svg>
