<?xml version="1.0" encoding="utf-8" ?>
<svg xmlns="http://www.w3.org/2000/svg" xmlns:xlink="http://www.w3.org/1999/xlink" width="110" height="82">
	<path fill="white" d="M10.9005 82C4.84467 82 0 77.1407 0 71.0667L0 22.7778C0 16.7037 4.84467 11.8444 10.9005 11.8444L52.7867 11.8444L47.1346 7.69383L53.0895 3.34074C54.7044 2.12593 56.4202 0.809877 58.9435 0.809877C60.2556 0.809877 61.063 1.21481 61.5677 1.41728C61.5677 1.41728 61.6686 1.41728 61.6686 1.51852L84.1761 9.61728C86.1948 8.30123 89.3236 6.27654 92.3515 4.25185C94.572 2.53086 99.5176 0 103.252 0C105.473 0 107.491 0.911111 108.601 2.53086C109.712 3.84691 110.216 5.66914 110 7.59259C109.207 12.3506 103.454 17.2099 102.445 18.0198C103.151 19.437 103.555 21.0568 103.555 22.6765L103.555 70.9654C103.555 74.2049 102.041 76.5333 100.426 78.4568C98.3064 80.7852 95.5813 82 92.5534 82L10.9005 82"/>
	<path fill="white" d="M103.196 2.7838C100.372 2.7838 96.034 4.90973 94.1171 6.42824C90.4853 8.85787 86.4498 11.49 84.533 12.7048L60.6231 4.09985C60.1187 3.89738 59.7151 3.59368 58.908 3.59368C57.4957 3.59368 56.4868 4.30232 54.8726 5.51713L52.2496 7.44059L54.8726 9.36405L62.3382 14.6282L10.8865 14.6282C6.5484 14.6282 3.0174 18.2727 3.0174 22.5245L3.0174 70.8134C3.0174 75.1665 6.64928 78.7097 10.8865 78.7097L92.503 78.7097C94.6216 78.7097 96.5384 78.0011 98.0517 76.2801C99.4641 74.5591 100.473 72.9394 100.473 70.7122L100.473 22.4233C100.473 20.4998 99.7667 18.5764 98.3543 17.1591C99.0605 16.4505 99.7667 15.9443 100.473 15.4381C101.684 14.527 106.425 10.1739 106.982 6.83318C107.131 5.61837 106.727 4.70726 106.223 4.20108C105.819 3.59368 104.912 2.7838 103.196 2.7838"/>
	<path fill="#2D1B0A" d="M92.4606 79.7729L10.8183 79.7729C5.9743 79.7729 1.9376 75.7235 1.9376 70.8642L1.9376 22.5753C1.9376 17.7161 5.9743 13.6667 10.8183 13.6667L59.0569 13.6667L54.2129 10.2247L50.4789 7.49137L54.2129 4.75804C55.7266 3.64446 57.0385 2.63211 58.8551 2.63211C59.6624 2.63211 60.2679 2.93581 60.6716 3.03705C60.7725 3.03705 60.8734 3.13828 60.9743 3.13828L84.3872 11.5407C86.4055 10.2247 90.0386 7.89631 93.5707 5.56791C95.589 3.94816 100.029 1.721 103.259 1.721C105.479 1.721 106.69 2.93581 107.094 3.54322C107.901 4.3531 108.204 5.66915 108.063 6.9852C107.397 10.8321 102.351 15.2864 101.139 16.1975C100.635 16.5012 100.231 16.805 99.8275 17.2099C100.938 18.6272 101.543 20.4494 101.543 22.3729L101.543 70.6617C101.543 73.0914 100.433 74.9136 98.9193 76.837C97.1028 78.8617 94.9835 79.7729 92.4606 79.7729M10.8183 15.6914C7.08439 15.6914 3.95595 18.8296 3.95595 22.5753L3.95595 70.8642C3.95595 74.6099 7.08439 77.7482 10.8183 77.7482L92.4606 77.7482C94.4789 77.7482 95.9927 77.0395 97.3046 75.6222C98.6165 74.0025 99.4239 72.5852 99.4239 70.763L99.4239 22.4741C99.4239 20.7531 98.7175 19.1333 97.6074 17.9185L97.6074 16.5012C98.4147 15.6914 99.1211 15.1852 99.8275 14.679C101.039 13.7679 105.479 9.6173 105.883 6.78273C106.085 5.66915 105.58 5.16298 105.479 5.06174C105.177 4.45433 104.571 3.84693 103.158 3.84693C100.635 3.84693 96.4973 5.87162 94.6808 7.2889C90.8459 9.81977 86.9101 12.4519 84.9927 13.6667L60.167 5.16298C59.9651 5.06174 59.8642 5.06174 59.7633 4.96051C59.4606 4.75804 59.2587 4.6568 58.8551 4.6568C57.8459 4.6568 57.0385 5.16298 55.4239 6.37779L53.9101 7.49137L55.4239 8.60495L65.5156 15.6914L10.8183 15.6914"/>
	<path fill="#FFD071" d="M25.2215 77.5455L9.3824 77.5455C6.55761 77.5455 4.13635 75.0148 4.13635 72.0789L4.13635 21.6641C4.13635 18.7283 6.55761 15.6912 9.68506 15.6912L25.2215 15.6912"/>
	<path fill="#7A7A7A" d="M33.4941 36.5457L55.9916 36.5457L55.9916 38.4691L33.4941 38.4691L33.4941 36.5457"/>
	<path fill="#7A7A7A" d="M33.6958 49.8074L78.489 49.8074L78.489 51.7308L33.6958 51.7308L33.6958 49.8074"/>
	<path fill="#7A7A7A" d="M33.6958 64.3852L78.489 64.3852L78.489 66.3086L33.6958 66.3086L33.6958 64.3852"/>
	<path fill="#A4E7FF" d="M82.0286 36.4056L79.0684 29.6433C77.0596 31.1702 72.8307 34.5513 69.0247 36.0784L69.7647 43.6042C69.7647 43.8224 69.7647 44.5859 69.0247 45.4585L66.2758 47.7489L62.2584 38.9142L56.0206 40.4412L59.5095 35.3148L52.7432 29.0979L56.0206 26.8074C57.1836 26.5893 57.5007 26.5893 57.7122 26.5893C57.9236 26.5893 65.2186 29.6433 65.2186 29.9705C67.4388 27.3528 71.9849 23.9715 73.7822 22.7718L67.756 17.9727L52.2146 6.73833L54.1176 5.42948C55.5977 4.12063 56.6549 3.57527 57.6065 3.57527C58.1351 3.57527 58.558 3.79342 59.0866 4.12063L84.6718 13.7189C86.1519 12.7372 91.2267 9.57417 95.4556 6.52019C97.2529 4.9932 101.693 2.92085 104.231 2.92085C105.182 2.92085 106.028 3.13899 106.451 3.90249C106.662 4.12063 106.979 4.88413 106.979 5.75669C106.768 8.59253 102.433 13.1735 100.953 14.4823C96.9357 17.5364 92.1781 21.0267 90.9095 22.3355L91.8609 50.5849C91.8609 52.1119 91.3324 52.8753 89.1122 54.7295L87.632 55.7111L82.0286 36.4056"/>
	<path fill="#2D1B0A" d="M87.2094 57.4562L81.0773 36.8418L78.6457 31.3883C76.5313 33.0243 73.2538 35.4239 70.1878 36.8418L70.8222 43.7133C70.8222 44.5858 70.505 45.4584 69.8707 46.331L65.9589 49.6031L61.7299 40.3321L53.5891 42.2954L58.1353 35.642L51.0518 29.0978L55.7036 25.8257C57.078 25.6075 57.3952 25.6075 57.7124 25.6075C62.0471 27.2436 63.9501 28.1161 65.1131 28.6615C67.1217 26.4801 70.1878 24.1896 72.0909 22.7717L67.2276 18.9542L50.5232 6.73826L53.6949 4.55684C55.3864 3.13892 56.5494 2.4845 57.8181 2.4845C58.5582 2.4845 59.1925 2.81171 59.7211 3.13892L84.672 12.519C84.9892 12.3009 85.3063 12.0827 85.7292 11.7555C87.9494 10.3376 91.6497 7.93804 94.9272 5.53848C96.6188 4.01149 101.376 1.721 104.337 1.721C105.817 1.721 106.874 2.15728 107.403 3.13892C107.825 3.68428 108.143 4.66591 108.143 5.64755C107.825 9.68317 101.799 15.1367 101.799 15.1367C100.953 15.7911 100.108 16.4456 99.2619 17.1C96.4073 19.2814 93.3412 21.5719 92.1784 22.6626L93.1299 50.3666C93.1299 52.4389 92.284 53.4206 89.9582 55.3839L87.2094 57.4562M79.4915 28.0071L83.0861 36.0783L88.3723 53.9659C90.6982 52.0027 90.9097 51.4573 90.9097 50.4757L89.9582 21.79C91.3326 20.3721 94.61 17.9726 97.9931 15.3549C98.839 14.7004 99.6848 14.046 100.531 13.5007C102.434 11.8646 105.922 7.7199 106.134 5.64755C106.134 5.21127 105.922 4.66591 105.922 4.55684C105.711 4.22963 105.605 3.90242 104.548 3.90242C102.434 3.90242 98.2046 5.75662 96.4073 7.28361C93.0242 9.68317 89.3237 12.0827 86.9978 13.6097C86.3636 14.046 85.8349 14.3732 85.5177 14.5914L58.8753 4.99313C58.3467 4.66591 58.1353 4.55684 57.9238 4.55684C57.2895 4.55684 56.338 5.1022 55.175 6.19291L68.7076 17.1L75.8969 22.8807L74.6282 23.7533C72.8308 24.9531 68.3904 28.2252 66.276 30.7338L64.373 32.9153L64.373 30.6248C63.3158 30.0794 60.567 28.8796 57.9238 27.7889C57.7124 27.7889 57.5009 27.7889 56.6551 28.0071L54.6464 29.3159L61.0956 35.2058L58.6639 38.8051L62.9986 37.7144L66.8046 46.1128L68.3904 44.804C68.8134 44.3677 68.8134 43.9314 68.8134 43.8224L67.9676 35.533C71.9851 33.8969 75.6855 31.0611 77.9057 29.3159L79.4915 28.0071"/>
	<path fill="#2D1B0A" d="M24.0107 15.8938L26.0285 15.8938L26.0285 17.4123L24.0107 17.4123L24.0107 15.8938"/>
	<path fill="#2D1B0A" d="M26.0285 73.1926L24.0107 73.1926L24.0107 70.0543L26.0285 70.0543L26.0285 73.1926M26.0285 66.9161L24.0107 66.9161L24.0107 63.7777L26.0285 63.7777L26.0285 66.9161M26.0285 60.7408L24.0107 60.7408L24.0107 57.6024L26.0285 57.6024L26.0285 60.7408M26.0285 54.5654L24.0107 54.5654L24.0107 51.4272L26.0285 51.4272L26.0285 54.5654M26.0285 48.3901L24.0107 48.3901L24.0107 45.2519L26.0285 45.2519L26.0285 48.3901M26.0285 42.2148L24.0107 42.2148L24.0107 39.0765L26.0285 39.0765L26.0285 42.2148M26.0285 36.0395L24.0107 36.0395L24.0107 32.9012L26.0285 32.9012L26.0285 36.0395M26.0285 29.8642L24.0107 29.8642L24.0107 26.7259L26.0285 26.7259L26.0285 29.8642M26.0285 23.5876L24.0107 23.5876L24.0107 20.4494L26.0285 20.4494L26.0285 23.5876"/>
	<path fill="#2D1B0A" d="M24.0107 76.2296L26.0285 76.2296L26.0285 77.7481L24.0107 77.7481L24.0107 76.2296"/>
</svg>
