<?xml version="1.0" encoding="utf-8" ?>
<svg xmlns="http://www.w3.org/2000/svg" xmlns:xlink="http://www.w3.org/1999/xlink" width="98" height="88">
	<path fill="white" d="M75.7454 88C73.2505 88 71.3544 85.977 71.3544 83.246L71.3544 78.6943L27.5438 78.6943L27.5438 83.246C27.5438 85.7747 25.5479 88 23.1527 88L13.6721 88C11.1772 88 9.28106 85.977 9.28106 83.246L9.28106 78.1885C8.1833 77.7839 7.18534 77.0759 6.38697 76.2667C4.49084 74.3448 3.39308 71.4115 3.49287 68.4782L3.49287 57.1494C3.49287 56.3402 3.49287 55.1264 3.79226 54.0138C3.89206 53.6092 3.99185 53.2046 4.19145 52.9011C1.69654 51.6874 0 49.3609 0 46.731C0 42.9885 3.99185 39.6506 8.48269 39.6506C9.97963 39.6506 11.4766 39.954 12.6741 40.5609L17.9633 22.1517C18.3625 20.2299 19.8595 14.5655 23.7515 13.3517C24.6497 12.9471 26.6456 12.4414 35.5275 11.9356L35.5275 6.77701C35.5275 2.83218 37.9226 0 41.3157 0L55.7862 0C59.1792 0 61.5743 2.83218 61.5743 6.77701L61.5743 11.2276C62.6721 11.2276 63.8697 11.2276 64.9674 11.2276C69.1589 11.2276 71.8534 11.3287 73.3503 11.531C78.9389 12.1379 80.336 19.1172 80.6354 20.6345L85.4257 38.3356C86.6232 37.8299 88.0204 37.4253 89.5173 37.4253C94.1079 37.4253 98 40.7632 98 44.8092C98 47.5402 96.3035 49.9678 93.8086 51.1816C94.5071 52.5977 94.8065 53.9126 94.9063 55.3287L94.9063 68.2759C94.9063 72.5241 92.7108 76.2667 89.6171 77.8851L89.6171 83.246C89.6171 85.7747 87.6212 88 85.2261 88L75.7454 88"/>
	<path fill="#3BA7FF" d="M19.3605 46.731L14.1711 46.731C14.1711 44.6069 11.776 42.685 8.68232 42.685C5.88802 42.685 3.19352 44.6069 3.19352 46.731C3.19352 48.8552 5.58863 50.777 8.68232 50.777C10.778 50.777 12.6742 49.8667 13.3727 48.3494L18.8615 48.3494L19.3605 46.731"/>
	<path fill="#2D1B0A" d="M8.68231 51.7884C5.08964 51.7884 2.19555 49.5632 2.19555 46.731C2.19555 44.1011 5.28924 41.6735 8.68231 41.6735C11.776 41.6735 14.4705 43.3931 15.0693 45.7195L20.7576 45.7195L19.66 49.3609L13.9715 49.3609C12.9735 50.8782 10.9776 51.7884 8.68231 51.7884M8.68231 43.6965C6.48679 43.6965 4.19148 45.2138 4.19148 46.731C4.19148 48.1471 5.98781 49.7655 8.68231 49.7655C10.4787 49.7655 11.9756 49.0575 12.4746 47.9448L13.1732 46.731C13.1732 45.3149 11.3768 43.6965 8.68231 43.6965"/>
	<path fill="#3BA7FF" d="M79.0387 44.5058L84.2281 44.5058C84.2281 42.3816 86.6232 40.4598 89.7169 40.4598C92.5112 40.4598 95.2057 42.3816 95.2057 44.8092C95.2057 47.2368 92.8106 49.1586 89.7169 49.1586C87.6212 49.1586 85.7251 48.2483 85.0265 46.7311L79.5377 46.7311L79.0387 44.5058"/>
	<path fill="#2D1B0A" d="M89.7169 50.1701C87.4216 50.1701 85.4257 49.2598 84.4277 47.7425L78.7393 47.7425L77.7413 43.4943L83.3299 43.4943C83.9287 41.1678 86.5234 39.4483 89.7169 39.4483C93.2097 39.4483 96.2036 41.8759 96.2036 44.8092C96.2036 47.8437 93.3095 50.1701 89.7169 50.1701M80.3361 45.7196L85.6253 45.7196C86.4236 47.4391 87.9205 48.1471 89.7169 48.1471C92.2118 48.1471 94.2077 46.7311 94.2077 44.8092C94.2077 43.0897 92.112 41.4713 89.7169 41.4713C87.0224 41.4713 85.2261 43.0897 85.2261 44.5058L85.2261 45.5173L80.3361 45.5173"/>
	<path fill="#FFD05A" d="M56.0891 19.4208L41.6186 19.4208C39.9221 19.4208 38.8243 17.8024 38.8243 15.6782L38.8243 6.87822C38.8243 4.65293 40.0219 3.13569 41.6186 3.13569L56.0891 3.13569C57.7856 3.13569 58.9024 4.75408 58.9024 6.87822L58.9024 15.6782C59.083 17.6001 57.6858 19.4208 56.0891 19.4208"/>
	<path fill="#2D1B0A" d="M56.0948 20.4322L41.6171 20.4322C39.4204 20.4322 37.8229 18.4093 37.8229 15.6782L37.8229 6.87822C37.8229 4.14719 39.4204 2.1242 41.6171 2.1242L56.0948 2.1242C58.2915 2.1242 59.904 4.14719 59.904 6.87822L59.904 15.6782C59.9889 16.892 59.5895 18.207 58.6909 19.2185C57.9919 20.0276 57.0933 20.4322 56.0948 20.4322M41.6171 4.14719C40.5188 4.14719 39.8198 5.25983 39.8198 6.87822L39.8198 15.6782C39.8198 16.9932 40.4189 18.4093 41.6171 18.4093L56.0948 18.4093C56.4942 18.4093 56.8936 18.207 57.1932 17.8024C57.6924 17.2966 57.8921 16.4874 57.8921 15.7794L57.8921 6.87822C57.8921 5.56328 57.293 4.14719 56.0948 4.14719L41.6171 4.14719"/>
	<path fill="#303E47" d="M24.7395 74.2841L24.7395 83.1853C24.7395 84.0956 24.041 84.9048 23.3424 84.9048L13.8617 84.9048C12.9636 84.9048 12.4646 84.1968 12.4646 83.1853L12.4646 74.2841L24.7395 74.2841"/>
	<path fill="#2D1B0A" d="M23.3424 85.9164L13.8617 85.9164C12.4646 85.9164 11.4666 84.8036 11.4666 83.1853L11.4666 73.2727L25.7375 73.2727L25.7375 83.1853C25.7375 84.7026 24.6397 85.9164 23.3424 85.9164M13.4625 75.2956L13.4625 83.1853C13.4625 83.8933 13.7619 83.8933 13.8617 83.8933L23.3424 83.8933C23.4422 83.8933 23.7415 83.5899 23.7415 83.1853L23.7415 75.2956L13.4625 75.2956"/>
	<path fill="#303E47" d="M86.8128 74.2841L86.8128 83.1853C86.8128 84.0956 86.1143 84.9048 85.4157 84.9048L75.9351 84.9048C75.0369 84.9048 74.5379 84.1968 74.5379 83.1853L74.5379 74.2841L86.8128 74.2841"/>
	<path fill="#2D1B0A" d="M85.4157 85.9164L75.9351 85.9164C74.5379 85.9164 73.5399 84.8036 73.5399 83.1853L73.5399 73.2727L87.8108 73.2727L87.8108 83.1853C87.8108 84.7026 86.7131 85.9164 85.4157 85.9164M75.5359 75.2956L75.5359 83.1853C75.5359 83.8933 75.8353 83.8933 75.9351 83.8933L85.4157 83.8933C85.5155 83.8933 85.8148 83.5899 85.8148 83.1853L85.8148 75.2956L75.5359 75.2956"/>
	<path fill="#3BA7FF" d="M11.9259 75.5587L86.5736 75.5587C89.3679 75.5587 92.0624 72.3219 92.0624 68.1748L92.0624 55.43C91.8628 51.6875 88.0704 47.8438 85.6754 45.922C84.4779 45.2139 83.7793 43.6966 83.5797 42.1794L77.8913 21.1403C77.8913 21.1403 76.993 14.869 73.2009 14.4644C68.7101 13.7564 49.9482 14.4644 49.9482 14.4644C49.9482 14.4644 27.6938 14.7679 25.0991 16.0828C22.3048 16.7909 21.1072 22.7587 21.1072 22.7587L15.4188 42.3816C14.9198 44 14.2212 45.2139 13.0237 46.1243C11.1275 47.7425 8.33322 50.2714 6.83628 54.722C6.63355 55.43 6.63355 56.3402 6.63355 56.9472C6.63355 59.1725 6.63355 64.3311 6.63355 68.276C6.63355 72.1196 8.8322 75.5587 11.9259 75.5587"/>
	<path fill="#2D1B0A" d="M86.6255 76.5701L11.9759 76.5701C10.4789 76.5701 9.0817 75.9632 7.98391 74.7494C6.48693 73.131 5.681 70.8046 5.681 68.377L5.681 57.0483C5.681 56.3402 5.681 55.3288 5.88813 54.5196C7.58472 49.5632 10.7783 46.8322 12.3751 45.5173C13.3731 44.7081 13.9718 43.7977 14.4708 42.2805L20.1594 22.6575C20.2592 22.0506 21.5566 16.1839 24.7501 15.2736C27.8439 13.9586 46.2069 13.6552 49.8995 13.6552C50.5981 13.6552 68.7615 12.9471 73.3522 13.6552C77.6436 14.0598 78.7414 20.3311 78.8412 21.1402L84.5297 42.1793C84.7293 43.5954 85.3281 44.7081 86.1265 45.2138C87.3241 46.1242 92.7132 50.6759 93.0151 55.531L93.0151 68.2759C93.1124 72.7265 90.1185 76.5701 86.6255 76.5701M65.2685 15.3747C58.4822 15.3747 50.1989 15.6782 50.0991 15.6782C41.5164 15.7793 27.4447 16.2851 25.6483 17.1954C23.8519 17.7012 22.5546 21.4437 22.1554 23.1632L16.4668 42.8874C15.868 44.8092 14.9698 46.1242 13.7723 47.1356C11.4769 49.0575 9.1815 51.3839 7.88411 55.2276C7.78431 55.7333 7.78431 56.5425 7.78431 57.1494L7.78431 68.4782C7.68452 70.2989 8.38311 72.2207 9.4809 73.3333C9.97989 73.8391 10.8781 74.5471 12.0757 74.5471L86.7253 74.5471C88.8211 74.5471 91.2163 71.9173 91.2163 68.1747L91.2163 55.4299C91.0167 52.3954 87.9229 48.8552 85.2283 46.731C83.7313 45.8207 82.9329 43.8989 82.7333 42.3816L76.945 21.4437C76.945 21.3425 76.0468 15.8805 73.1526 15.577C71.6557 15.3747 68.6617 15.3747 65.2685 15.3747"/>
	<path fill="#FFE0AE" d="M25.3483 63.1172C25.3483 66.469 22.6674 69.1861 19.3605 69.1861C16.0535 69.1861 13.3727 66.469 13.3727 63.1172C13.3727 59.7654 16.0535 57.0482 19.3605 57.0482C22.6674 57.0482 25.3483 59.7654 25.3483 63.1172"/>
	<path fill="#2D1B0A" d="M19.3605 70.1976C15.4684 70.1976 12.3748 67.062 12.3748 63.1172C12.3748 59.1724 15.4684 56.0368 19.3605 56.0368C23.2526 56.0368 26.3463 59.1724 26.3463 63.1172C26.3463 67.062 23.2526 70.1976 19.3605 70.1976M19.3605 58.0597C16.5662 58.0597 14.3707 60.285 14.3707 63.1172C14.3707 65.9494 16.5662 68.1747 19.3605 68.1747C22.1548 68.1747 24.3503 65.9494 24.3503 63.1172C24.3503 60.285 22.1548 58.0597 19.3605 58.0597"/>
	<path fill="#FFE0AE" d="M85.6253 62.1057C85.6253 65.4575 82.9445 68.1746 79.6375 68.1746C76.3305 68.1746 73.6497 65.4575 73.6497 62.1057C73.6497 58.7539 76.3305 56.0367 79.6375 56.0367C82.9445 56.0367 85.6253 58.7539 85.6253 62.1057"/>
	<path fill="#2D1B0A" d="M79.6375 69.1861C75.7454 69.1861 72.6517 66.0506 72.6517 62.1057C72.6517 58.1609 75.7454 55.0252 79.6375 55.0252C83.5295 55.0252 86.6232 58.1609 86.6232 62.1057C86.6232 66.0506 83.4297 69.1861 79.6375 69.1861M79.6375 57.0482C76.8432 57.0482 74.6477 59.2735 74.6477 62.1057C74.6477 64.9379 76.8432 67.1631 79.6375 67.1631C82.4318 67.1631 84.6273 64.9379 84.6273 62.1057C84.6273 59.2735 82.332 57.0482 79.6375 57.0482"/>
	<path fill="#D7FBFF" d="M24.8621 38.1333L26.5586 28.8275C27.1574 25.3884 29.6523 22.8597 32.4466 22.7586L64.6809 21.9462C67.4752 21.9462 69.9701 24.1747 70.7683 27.5126L73.0638 37.3241C74.1615 42.1793 71.2673 47.1356 67.1758 47.1356L31.0495 47.3395C26.9578 47.439 23.9639 42.8873 24.8621 38.1333"/>
	<path fill="#2D1B0A" d="M30.926 48.4505C29.0298 48.4505 27.2335 47.5401 25.8363 45.9217C24.1398 43.7976 23.3414 40.8643 23.8404 37.9309L25.537 28.6252C26.2355 24.6803 29.0298 21.8482 32.4229 21.747L64.6571 20.935C67.9504 20.935 70.8445 23.4666 71.7427 27.3102L74.038 37.1217C74.7365 40.0551 74.038 43.1907 72.3414 45.416C70.9443 47.1355 69.1479 48.147 67.152 48.147L30.926 48.4505M25.8363 38.2344C25.4372 40.5608 25.9361 42.9884 27.3333 44.6068C28.3313 45.8206 29.5288 46.4275 30.926 46.4275L67.0522 46.2252C68.4494 46.2252 69.7467 45.5171 70.7447 44.3033C72.1418 42.5838 72.6408 40.0551 72.042 37.7286L69.7467 27.9171C69.0481 24.9838 66.9524 23.062 64.6571 23.062L32.4229 23.8711C30.0278 23.9723 28.0319 26.0964 27.4331 29.0298L25.8363 38.2344"/>
	<path fill="#D7FBFF" d="M56.2851 46.731L45.7067 39.6506"/>
	<path fill="#2D1B0A" d="M56.2858 47.7425C56.0863 47.7425 55.8867 47.6414 55.6874 47.5404L45.1157 40.3651C44.6482 40.0619 44.5173 39.4555 44.8165 38.9502C45.1157 38.4765 45.714 38.3439 46.2127 38.647L56.7844 45.8223C57.2831 46.1255 57.3828 46.7319 57.0835 47.2372C56.8842 47.6414 56.585 47.7425 56.2858 47.7425"/>
	<path fill="#D7FBFF" d="M64.3687 46.6299L52.3931 38.5379"/>
	<path fill="#2D1B0A" d="M64.3692 47.6413C64.1697 47.6413 63.9702 47.5402 63.7707 47.4393L51.7023 39.2526C51.2347 38.9494 51.1038 38.343 51.4031 37.8376C51.7023 37.3638 52.3007 37.2312 52.7994 37.5344L64.868 45.721C65.3666 46.0242 65.4663 46.6306 65.1671 47.136C65.0674 47.5402 64.7682 47.6413 64.3692 47.6413"/>
</svg>
