<?xml version="1.0" encoding="utf-8" ?>
<svg xmlns="http://www.w3.org/2000/svg" xmlns:xlink="http://www.w3.org/1999/xlink" width="84" height="82">
	<path fill="white" d="M71.8529 20.8764L58.3183 20.8764C58.1192 20.5753 57.8207 20.2742 57.6216 19.9731C58.0197 19.7724 58.4178 19.5716 58.7164 19.2705L64.4885 14.1518C65.1851 13.5496 65.5832 12.6463 65.6827 11.743C65.7822 10.8397 65.3841 9.93638 64.787 9.23381C64.0904 8.53124 63.1947 8.0294 62.1995 8.0294C61.3039 8.0294 60.5077 8.3305 59.9106 8.9327L54.1385 14.0514C53.6409 14.4529 53.3423 15.0551 53.1433 15.6573C52.4466 15.2558 51.6505 14.9547 50.8543 14.9547L36.1255 14.9547C35.0308 14.9547 33.9361 15.4566 33.0404 16.2595C32.8414 15.7577 32.5428 15.2558 32.0452 14.8544L26.074 9.73564C25.4769 9.23381 24.6808 8.9327 23.7851 8.9327C22.7899 8.9327 21.7947 9.33417 21.0981 10.1371C19.8043 11.6426 20.0034 13.8507 21.4962 15.0551L27.4673 20.1738C27.6663 20.3746 27.8654 20.4749 28.0644 20.5753L12.3404 20.776C5.57308 20.776 0 26.2962 0 33.2216L0 69.5545C0 76.3795 5.57308 82 12.3404 82L71.8529 82C75.3361 82 78.5207 80.6953 80.7101 78.3868C82.8995 76.0784 84.0938 72.8666 84 69.5545L84 33.1212C84.0938 26.1959 78.6202 20.8764 71.8529 20.8764"/>
	<path fill="white" d="M43.4873 13.8507C45.3781 13.8507 46.9703 12.2448 46.9703 10.3378L46.9703 3.51285C46.9703 1.60588 45.3781 0 43.4873 0C41.5965 0 40.0043 1.60588 40.0043 3.51285L40.0043 10.3378C40.0043 12.2448 41.497 13.8507 43.4873 13.8507"/>
	<path fill="#FFD05A" d="M71.8014 78.5876L12.2962 78.5876C7.1218 78.5876 2.9425 74.3721 2.9425 69.153L2.9425 32.8201C2.9425 27.7014 7.2213 23.3856 12.2962 23.3856L30.8045 23.1848C30.8045 22.9841 34.3867 17.5643 35.9789 17.5643L50.5069 17.5643C52.5965 17.765 55.2832 21.7797 56.6763 23.5863L71.7019 23.5863C76.8763 23.5863 81.0574 27.601 81.0574 32.519L81.0574 68.9523C81.1551 74.6731 77.2743 78.5876 71.8014 78.5876"/>
	<path fill="#2D1B0A" d="M71.8509 79.5912L12.3412 79.5912C6.66888 79.5912 1.9917 74.8739 1.9917 69.153L1.9917 32.8201C1.9917 27.0992 6.66888 22.3819 12.3412 22.3819L30.2538 22.1812C31.3485 20.2742 34.2344 16.5606 36.0257 16.5606L50.5548 16.5606C52.8436 16.7613 54.9334 19.4713 57.0232 22.4823L71.6518 22.683C77.3242 22.683 82.0082 27.1995 82.0082 32.6194L82.0082 69.0526C82.1009 71.9633 81.1057 74.5728 79.3144 76.4798C77.5232 78.4872 74.8363 79.5912 71.8509 79.5912M31.846 23.4859L12.4407 24.4896C7.76354 24.4896 4.0815 28.3036 4.0815 32.9205L4.0815 69.2534C4.0815 73.8703 7.86305 77.6842 12.4407 77.6842L71.9504 77.6842C74.3387 77.6842 76.528 76.7809 78.0208 75.2754C79.5135 73.7699 80.2101 71.5618 80.2101 69.2534L80.2101 32.8201C80.2101 28.4039 76.4285 24.8911 71.8509 24.8911L56.3266 24.8911L55.63 23.8874C54.4358 22.2815 52.0475 18.9694 50.6543 18.7687L36.2247 18.7687C35.13 18.7687 32.4431 22.2815 31.846 23.4859"/>
	<path fill="#2D1B0A" d="M4.68955 62.1767L79.1287 61.8834L79.1287 63.8907L4.68955 64.184L4.68955 62.1767"/>
	<path fill="#D7FBFF" d="M46.7684 37.3365C38.0118 37.3365 30.9468 44.3622 30.9468 53.0941C30.9468 61.7257 38.0118 68.8518 46.7684 68.8518C55.525 68.8518 62.5901 61.8261 62.5901 53.0941C62.5901 44.3622 55.525 37.3365 46.7684 37.3365"/>
	<path fill="#2D1B0A" d="M46.7684 70.2569C37.2157 70.2569 29.4542 62.5286 29.4542 52.9938C29.4542 43.4589 37.2157 35.7306 46.7684 35.7306C56.3211 35.7306 64.0827 43.4589 64.0827 52.9938C64.0827 62.5286 56.3211 70.2569 46.7684 70.2569M46.7684 38.842C38.8079 38.842 32.4394 45.2655 32.4394 53.0941C32.4394 60.9228 38.9074 67.3463 46.7684 67.3463C54.729 67.3463 61.0975 60.9228 61.0975 53.0941C61.0975 45.1651 54.729 38.842 46.7684 38.842"/>
	<path fill="white" d="M65.5751 30.4113L72.9386 30.4113C73.8342 30.4113 74.6303 31.6157 74.6303 32.519C74.6303 33.7234 73.9337 34.6267 72.9386 34.6267L65.5751 34.6267C64.6796 34.6267 63.8835 33.4223 63.8835 32.519C63.8835 31.6157 64.6796 30.4113 65.5751 30.4113"/>
	<path fill="white" d="M16.0207 32.5189L16.0207 36.3329C16.0207 36.8347 15.5231 37.2362 14.8266 37.2362C14.3291 37.2362 13.6325 36.7343 13.6325 36.3329L13.6325 32.5189C13.6325 32.0171 14.13 31.6156 14.8266 31.6156C15.3241 31.8164 16.0207 32.3182 16.0207 32.5189"/>
	<path fill="white" d="M12.0404 32.5189L12.0404 36.3329C12.0404 36.8347 11.5428 37.2362 10.8463 37.2362C10.3488 37.2362 9.65222 36.7343 9.65222 36.3329L9.65222 32.5189C9.65222 32.0171 10.1497 31.6156 10.8463 31.6156C11.3438 31.8164 12.0404 32.3182 12.0404 32.5189"/>
	<path fill="#2D1B0A" d="M50.2511 24.6904L37.4147 24.6904C36.8176 24.6904 36.4196 24.2889 36.4196 23.6867C36.4196 23.0845 36.8176 22.683 37.4147 22.683L50.2511 22.683C50.8481 22.683 51.2462 23.0845 51.2462 23.6867C51.2462 24.2889 50.7486 24.6904 50.2511 24.6904"/>
	<path fill="#D7FBFF" d="M29.6531 17.1651L23.6827 12.0463"/>
	<path fill="#2D1B0A" d="M29.6531 18.6683C29.3546 18.6683 28.9566 18.568 28.6581 18.2669L22.6876 13.1481C22.1701 12.6463 21.9911 11.6426 22.4886 11.0404C22.9862 10.5184 23.9812 10.3379 24.5783 10.8397L30.5487 15.9584C31.1457 16.4603 31.2452 17.4639 30.7477 18.0661C30.5487 18.4676 30.1507 18.6683 29.6531 18.6683"/>
	<path fill="#D7FBFF" d="M56.321 16.3598L61.9929 11.2411"/>
	<path fill="#2D1B0A" d="M56.321 17.8653C55.923 17.8653 55.525 17.6646 55.2264 17.3635C54.6294 16.7613 54.8253 15.7576 55.326 15.2558L61.0974 10.1371C61.6944 9.53486 62.6895 9.73247 63.187 10.2374C63.7841 10.8396 63.6846 11.8433 63.0875 12.3451L57.3161 17.4639C57.0176 17.765 56.7191 17.8653 56.321 17.8653"/>
	<path fill="#2D1B0A" d="M43.3851 11.6426C42.589 11.6426 41.8925 10.94 41.8925 10.1371L41.8925 3.31212C41.8925 2.50919 42.589 1.80661 43.3851 1.80661C44.1812 1.80661 44.8777 2.50919 44.8777 3.31212L44.8777 10.1371C44.8777 10.94 44.1812 11.6426 43.3851 11.6426"/>
</svg>
