<?xml version="1.0" encoding="utf-8" ?>
<svg xmlns="http://www.w3.org/2000/svg" xmlns:xlink="http://www.w3.org/1999/xlink" width="80" height="82">
	<path fill="white" d="M37.1109 82C36.514 82 35.917 81.9002 35.32 81.8005L5.57161 81.8005C2.48733 81.8005 0 79.3066 0 76.2141L0 20.1509C0 17.0584 2.48733 14.5645 5.57161 14.5645L28.455 14.5645L28.455 8.67883C28.455 3.99027 32.4347 0 37.1109 0L61.8847 0C66.5609 0 70.5406 3.99027 70.5406 8.67883L70.5406 47.5839C73.5254 49.6788 78.0026 53.3698 79.3955 57.8589C80.5894 61.3504 80 65.4404 77.8036 68.2336C76.7091 69.9294 75.2168 71.2263 73.4259 71.9246L72.8289 81.1022L65.6654 81.1022C64.372 81.7007 63.1781 82 61.9842 82L37.1109 82"/>
	<path fill="#FF9388" d="M36.9111 78.6082C34.1253 78.6082 31.6381 76.2141 31.6381 73.4209L31.6381 8.3795C31.6381 5.58631 34.0258 3.19215 36.9111 3.19215L61.9827 3.19215C64.7686 3.19215 67.2558 5.58631 67.2558 8.3795L67.2558 73.4209C67.2558 76.2141 64.868 78.6082 61.9827 78.6082L36.9111 78.6082"/>
	<path fill="#2D1B0A" d="M61.9828 79.6058L36.9111 79.6058C33.5284 79.6058 30.6432 76.7128 30.6432 73.4209L30.6432 8.37951C30.6432 4.98779 33.5284 2.1946 36.9111 2.1946L61.9828 2.1946C65.3655 2.1946 68.2508 5.08754 68.2508 8.37951L68.2508 73.4209C68.2508 76.8126 65.3655 79.6058 61.9828 79.6058M36.9111 4.18973C34.6228 4.18973 32.633 6.18487 32.633 8.37951L32.633 73.4209C32.633 75.7153 34.6228 77.6107 36.9111 77.6107L61.9828 77.6107C64.2711 77.6107 66.2609 75.6155 66.2609 73.4209L66.2609 8.37951C66.2609 6.08511 64.2711 4.18973 61.9828 4.18973L36.9111 4.18973"/>
	<path fill="#99CC62" d="M69.1462 69.5305C66.3604 69.5305 64.4701 68.1339 63.4752 66.7373C61.7838 64.6424 60.8884 61.2507 61.5849 58.657C62.4803 54.8663 67.2558 51.275 68.9472 50.1777C70.6385 51.3748 75.1156 54.8663 76.3095 58.657C77.2049 61.2507 76.8069 64.3432 75.1156 66.438C74.1207 68.1339 72.2303 69.5305 69.1462 69.5305"/>
	<path fill="#2D1B0A" d="M69.147 70.528C65.366 70.528 63.376 68.2336 62.6795 67.3358C60.789 64.9417 59.8935 61.1509 60.59 58.4575C61.6845 53.8687 67.6545 49.8784 68.351 49.3796L69.545 49.3796C71.4356 50.6765 76.0126 54.2677 77.3062 58.3577C78.3011 61.3504 77.8112 64.7422 76.0126 67.0366C74.6196 69.2312 72.2316 70.528 69.147 70.528M68.948 51.3748C66.6595 52.9709 63.2765 55.9636 62.58 58.8565C61.983 61.0512 62.6795 64.1436 64.2715 66.039C64.769 66.837 66.2615 68.4332 69.147 68.4332C72.132 68.4332 73.5251 67.0366 74.2215 65.8395C75.7141 63.9441 76.1122 61.2507 75.3161 58.9563C74.4205 55.764 70.7391 52.6716 68.948 51.3748"/>
	<path fill="white" d="M37.0106 9.97563L45.0694 9.97563L45.0694 15.163L37.0106 15.163L37.0106 9.97563"/>
	<path fill="#2D1B0A" d="M46.0643 16.1605L36.0157 16.1605L36.0157 8.97806L46.0643 8.97806L46.0643 16.1605M38.0055 14.1654L44.0745 14.1654L44.0745 10.9732L38.0055 10.9732L38.0055 14.1654"/>
	<path fill="white" d="M54.521 9.97563L62.5798 9.97563L62.5798 15.163L54.521 15.163L54.521 9.97563"/>
	<path fill="#2D1B0A" d="M63.5747 16.1605L53.5261 16.1605L53.5261 8.97806L63.5747 8.97806L63.5747 16.1605M55.5159 14.1654L61.5849 14.1654L61.5849 10.9732L55.5159 10.9732L55.5159 14.1654"/>
	<path fill="white" d="M37.0106 27.5328L45.0694 27.5328L45.0694 32.7202L37.0106 32.7202L37.0106 27.5328"/>
	<path fill="#2D1B0A" d="M46.0643 33.7177L36.0157 33.7177L36.0157 26.5353L46.0643 26.5353L46.0643 33.7177M38.0055 31.7226L44.0745 31.7226L44.0745 28.5304L38.0055 28.5304L38.0055 31.7226"/>
	<path fill="white" d="M54.521 27.5328L62.5798 27.5328L62.5798 32.7202L54.521 32.7202L54.521 27.5328"/>
	<path fill="#2D1B0A" d="M63.5747 33.7177L53.5261 33.7177L53.5261 26.5353L63.5747 26.5353L63.5747 33.7177M55.5159 31.7226L61.5849 31.7226L61.5849 28.5304L55.5159 28.5304L55.5159 31.7226"/>
	<path fill="white" d="M37.0106 44.8905L45.0694 44.8905L45.0694 50.0779L37.0106 50.0779L37.0106 44.8905"/>
	<path fill="#2D1B0A" d="M46.0643 51.0754L36.0157 51.0754L36.0157 43.893L46.0643 43.893L46.0643 51.0754M38.0055 49.0803L44.0745 49.0803L44.0745 45.8881L38.0055 45.8881L38.0055 49.0803"/>
	<path fill="white" d="M54.521 44.8905L62.5798 44.8905L62.5798 50.0779L54.521 50.0779L54.521 44.8905"/>
	<path fill="#2D1B0A" d="M63.5747 51.0754L53.5261 51.0754L53.5261 43.893L63.5747 43.893L63.5747 51.0754M55.5159 49.0803L61.5849 49.0803L61.5849 45.8881L55.5159 45.8881L55.5159 49.0803"/>
	<path fill="#2D1B0A" d="M68.1513 63.146L70.539 63.146L70.539 79.0072L68.1513 79.0072L68.1513 63.146"/>
	<path fill="#2D1B0A" d="M70.6385 63.146L68.1513 63.146L68.1513 79.0072L70.6385 79.0072"/>
	<path fill="#7DCAFF" d="M5.37246 78.7081C3.97959 78.7081 2.7857 77.511 2.7857 76.1143L2.7857 20.0511C2.7857 18.6545 3.97959 17.4575 5.37246 17.4575L35.1202 17.4575C36.5131 17.4575 37.707 18.6545 37.707 20.0511L37.707 76.1143C37.707 77.511 36.3141 78.7081 35.1202 78.7081L5.37246 78.7081"/>
	<path fill="#2D1B0A" d="M35.1202 79.7055L5.37237 79.7055C3.38255 79.7055 1.7907 78.1094 1.7907 76.1143L1.7907 20.051C1.7907 18.0559 3.38255 16.4598 5.37237 16.4598L35.1202 16.4598C37.11 16.4598 38.7018 18.0559 38.7018 20.051L38.7018 76.1143C38.7018 78.1094 36.712 79.7055 35.1202 79.7055M5.37237 18.4549C4.47695 18.4549 3.78052 19.1532 3.78052 20.051L3.78052 76.1143C3.78052 77.0121 4.47695 77.7104 5.37237 77.7104L35.1202 77.7104C35.8166 77.7104 36.712 76.9124 36.712 76.1143L36.712 20.051C36.712 19.1532 36.0156 18.4549 35.1202 18.4549L5.37237 18.4549"/>
	<path fill="white" d="M7.26281 23.7421L15.3216 23.7421L15.3216 27.8321L7.26281 27.8321L7.26281 23.7421"/>
	<path fill="#2D1B0A" d="M16.3165 28.8297L6.2679 28.8297L6.2679 22.7445L16.3165 22.7445L16.3165 28.8297M8.25772 26.8345L14.3267 26.8345L14.3267 24.7397L8.25772 24.7397L8.25772 26.8345"/>
	<path fill="white" d="M24.7732 23.7421L32.832 23.7421L32.832 27.8321L24.7732 27.8321L24.7732 23.7421"/>
	<path fill="#2D1B0A" d="M33.8269 28.8297L23.7783 28.8297L23.7783 22.7445L33.8269 22.7445L33.8269 28.8297M25.7681 26.8345L31.8371 26.8345L31.8371 24.7397L25.7681 24.7397L25.7681 26.8345"/>
	<path fill="white" d="M7.26281 37.708L15.3216 37.708L15.3216 41.798L7.26281 41.798L7.26281 37.708"/>
	<path fill="#2D1B0A" d="M16.3165 42.7956L6.2679 42.7956L6.2679 36.7104L16.3165 36.7104L16.3165 42.7956M8.25772 40.8004L14.3267 40.8004L14.3267 38.7055L8.25772 38.7055L8.25772 40.8004"/>
	<path fill="white" d="M24.7732 37.708L32.832 37.708L32.832 41.798L24.7732 41.798L24.7732 37.708"/>
	<path fill="#2D1B0A" d="M33.8269 42.7956L23.7783 42.7956L23.7783 36.7104L33.8269 36.7104L33.8269 42.7956M25.7681 40.8004L31.8371 40.8004L31.8371 38.7055L25.7681 38.7055L25.7681 40.8004"/>
	<path fill="white" d="M26.1661 78.7081L12.9338 78.7081L12.9338 65.4404C12.9338 63.3455 14.6252 61.8492 16.5155 61.8492L22.8829 61.8492C24.9722 61.8492 26.4646 63.545 26.4646 65.4404L26.1661 78.7081"/>
	<path fill="#2D1B0A" d="M27.161 79.7056L11.9389 79.7056L11.9389 65.4404C11.9389 62.9465 14.0282 60.8516 16.5155 60.8516L22.8829 60.8516C25.3702 60.8516 27.4595 62.9465 27.4595 65.4404L27.161 79.7056M13.9287 77.7105L25.1712 77.7105L25.4697 65.4404C25.4697 64.1436 24.4748 62.8467 22.8829 62.8467L16.5155 62.8467C15.2221 62.8467 13.9287 63.8443 13.9287 65.4404L13.9287 77.7105"/>
</svg>
