<?xml version="1.0" encoding="utf-8" ?>
<svg xmlns="http://www.w3.org/2000/svg" xmlns:xlink="http://www.w3.org/1999/xlink" width="78" height="106">
	<path fill="white" d="M65.0502 0C58.1236 0 52.3012 5.95052 52.3012 13.0105C52.3012 14.3216 52.5019 15.5319 52.9035 16.843L0 16.843L0 19.8687C0 24.0038 6.12355 34.7954 12.1467 38.1237L13.7529 38.9305C14.556 39.334 15.2587 39.7374 15.861 40.04C15.861 44.5785 19.0734 50.7307 24.8958 53.9581C25.3977 54.9667 26.1004 56.7821 26.7027 59.5052C29.2124 70.4986 28.9112 88.2493 26.8031 91.1741C26.3012 91.3758 25.2973 91.8801 24.4942 92.1827C22.6873 92.8887 20.6795 93.6955 19.4749 94.4015C14.7568 97.0238 12.3475 99.8478 12.3475 102.974L12.3475 106L55.5135 105.395L55.5135 102.369C55.5135 98.9401 53.0039 95.8135 48.3861 93.6955C46.9807 92.8887 44.8726 92.0818 42.9653 91.275C42.2625 90.9724 41.4595 90.6698 40.9575 90.4681C38.8494 87.5433 38.5483 70.196 41.1583 58.7992C41.6602 56.4795 42.4633 54.5633 43.0656 53.2521C48.888 50.1256 52 43.9734 52 39.5357C52.6023 39.2331 53.7066 38.7288 54.9112 38.0228C60.9344 34.9971 64.0463 29.6518 65.251 26.0209C72.1776 26.0209 78 20.0704 78 12.9096C77.6988 6.05138 71.6757 0 65.0502 0"/>
	<path fill="white" d="M65.0502 22.1884C60.332 22.1884 56.2162 18.1542 56.2162 13.1113C56.2162 8.0685 60.2316 4.03425 65.0502 4.03425C69.5676 4.03425 73.8842 8.37107 73.8842 13.1113C73.7838 18.1542 69.7683 22.1884 65.0502 22.1884"/>
	<path fill="#FFF9DE" d="M65.0502 3.02575C59.7297 3.02575 55.3127 7.66514 55.3127 13.0105C55.3127 18.3559 59.7297 22.9953 65.0502 22.9953C70.3707 22.9953 74.7876 18.3559 74.7876 13.0105C74.6872 7.766 70.1698 3.02575 65.0502 3.02575"/>
	<path fill="#2D1B0A" d="M65.0502 24.0039C59.2278 24.0039 54.3089 18.9611 54.3089 13.0105C54.3089 7.06002 59.2278 2.0172 65.0502 2.0172C70.6718 2.0172 75.6911 7.16087 75.7915 13.0105C75.7915 18.9611 70.8726 24.0039 65.0502 24.0039M65.0502 4.03433C60.3321 4.03433 56.3166 8.16944 56.3166 13.0105C56.3166 17.8516 60.3321 21.9868 65.0502 21.9868C69.7684 21.9868 73.7838 17.8516 73.7838 13.0105C73.6834 8.37115 69.5676 4.03433 65.0502 4.03433"/>
	<path fill="#FFE633" d="M58.2239 9.78307L64.749 12.9096L61.2355 6.45481C61.2355 6.45481 60.3321 6.95909 59.529 7.8668C58.3243 9.07707 58.2239 9.78307 58.2239 9.78307"/>
	<path fill="#FFE633" d="M62.4401 5.74881L65.0502 12.4053L67.1583 5.74881C67.1583 5.74881 66.1544 5.17663 64.9498 5.17663C63.8455 4.94195 62.4401 5.74881 62.4401 5.74881"/>
	<path fill="#FFE633" d="M68.5637 6.45481L65.2509 12.9096L71.6757 9.78307C71.6757 9.78307 71.1737 8.87536 70.471 7.8668C69.2664 6.95909 68.5637 6.45481 68.5637 6.45481"/>
	<path fill="#FFE633" d="M72.3783 10.8925L65.4517 13.4139L72.3783 15.5319C72.3783 15.5319 72.7799 14.6242 72.7799 13.4139C72.4787 11.4976 72.3783 10.8925 72.3783 10.8925"/>
	<path fill="#FFE633" d="M71.7761 16.3387L65.3513 13.7164L68.9652 19.667C68.9652 19.667 69.6679 19.1627 70.6718 18.255C71.3745 17.2464 71.7761 16.3387 71.7761 16.3387"/>
	<path fill="#FFE633" d="M68.1621 20.2721L65.0502 13.9181L62.9421 20.7764C62.9421 20.7764 63.8455 20.9781 65.5521 20.9781C67.2587 20.7764 68.1621 20.2721 68.1621 20.2721"/>
	<path fill="#FFE633" d="M61.2355 20.0704L64.4479 13.8174L58.3243 17.1456C58.3243 17.1456 58.8263 17.9525 59.6293 18.8602C60.2317 19.5662 61.2355 20.0704 61.2355 20.0704"/>
	<path fill="#FFE633" d="M57.9228 15.7336L64.3475 13.313L57.722 11.195C57.722 11.195 57.4209 12.0019 57.4209 13.4139C57.722 15.3301 57.9228 15.7336 57.9228 15.7336"/>
	<path fill="#DCF3FF" d="M2.9289 19.9192C2.9289 22.6423 8.24936 32.6271 13.4694 35.5519C18.6895 38.3759 19.1914 38.3759 18.6895 40.2922C18.6895 43.6204 21.2996 49.1675 26.8208 51.7898C27.7243 53.0001 28.7281 55.4206 29.4308 58.9506C31.8401 69.4397 32.2416 90.3169 28.5274 93.6452C28.0254 94.1495 22.8053 95.9649 20.6972 97.1751C17.5853 98.8897 15.176 101.008 15.176 103.126L52.3189 102.621C52.3189 100.201 49.9096 98.0829 46.7976 96.6709C44.6895 95.4606 39.4694 93.5443 38.9675 93.1409C35.1528 89.8126 35.6548 69.2379 38.064 58.4463C38.7667 55.1181 39.9714 52.6975 40.6741 51.2855C46.3961 48.6633 48.8053 42.9144 48.8053 39.7879C48.6046 37.8716 48.8053 37.8716 54.0254 35.0476C59.2455 32.4254 61.8555 26.6766 62.3575 24.256C62.9598 21.8355 64.3652 19.9192 64.1839 19.9192L2.9289 19.9192"/>
	<path fill="#2D1B0A" d="M14.1564 104.084L14.1564 103.075C14.1564 100.15 17.4697 97.7297 20.1806 96.2168C21.285 95.6117 23.293 94.8049 24.9999 94.0989C26.1043 93.5946 27.6103 93.0903 27.8111 92.8886C31.024 90.0646 30.9236 70.0951 28.4136 59.2026C27.8111 56.3786 27.0079 53.958 26.1043 52.6469C20.5822 49.9238 17.6705 44.2758 17.6705 40.3424C17.8713 39.1322 17.8713 39.1322 14.4576 37.3168L12.9516 36.5099C7.63024 33.4842 1.9073 23.1969 1.9073 19.9695L1.9073 18.9609L64.7593 18.9609C65.3617 19.9695 65.2055 20.4737 64.7593 21.0789C64.3576 21.7849 63.6548 23.096 63.3536 24.508C62.7512 27.5337 59.7391 33.2825 54.5182 36.0056C49.7993 38.6279 49.7993 38.6279 49.8997 39.7373C49.8997 43.0656 47.5904 49.1169 41.4659 52.1426C40.7631 53.5546 39.759 55.7735 39.0562 58.7991C36.5462 69.9942 36.4458 89.762 39.6586 92.4852C39.8594 92.586 41.0643 93.0903 42.0683 93.4937C43.8755 94.1997 46.0844 95.2083 47.3896 95.9143C51.2049 97.6288 53.4138 100.15 53.4138 102.772L53.4138 103.781L14.1564 104.084M19.6785 40.3424C19.7789 43.2673 22.0882 48.4109 27.2087 50.8315C28.6144 52.6469 29.6184 55.37 30.3212 58.6983C32.5301 68.2796 33.5564 90.3672 29.1164 94.3006C28.8152 94.6031 28.0119 94.9057 25.7027 95.9143C23.9958 96.6203 22.1886 97.3263 21.0842 97.9314C18.5741 99.3434 16.9677 100.755 16.3653 101.966L51.0041 101.461C50.5021 100.049 48.7953 98.5365 46.2852 97.4271C45.0804 96.7211 42.8715 95.8134 41.1647 95.1074C39.257 94.3006 38.5542 93.998 38.253 93.7963C33.7349 89.8629 34.7389 67.9771 36.9478 58.0932C37.6506 54.664 38.8554 52.1426 39.6586 50.7306C45.3816 47.9067 47.6908 42.763 47.6908 39.8382C47.49 37.4176 48.1928 37.0142 52.711 34.5936C58.3335 31.7697 60.8436 26.3234 61.3456 24.1046C61.6468 22.8943 62.1488 21.7849 62.5504 20.978L4.11615 20.978C5.01978 24.3063 9.63829 32.2739 13.9556 34.6945L15.4616 35.5013C19.2769 37.4176 20.281 37.9219 19.6785 40.3424"/>
	<path fill="#FFE633" d="M30.8185 49.0162C20.5791 47.8059 20.5791 39.2331 20.3783 36.8126C9.63696 32.98 6.82615 22.6927 6.82615 22.1884L59.5289 22.1884C59.5289 22.6927 56.718 32.98 45.9767 36.8126C45.7759 39.2331 46.4786 48.1085 35.2355 49.0162L30.8185 49.0162"/>
</svg>
