<?xml version="1.0" encoding="utf-8" ?>
<svg xmlns="http://www.w3.org/2000/svg" xmlns:xlink="http://www.w3.org/1999/xlink" width="88" height="100">
	<path fill="white" d="M46.9046 99.502L48.6231 95.3187C56.3057 77.2908 52.6666 56.3745 50.0383 45.9163C49.2296 46.4143 48.2187 46.8127 47.2079 47.012L43.1644 57.2709L39.7274 56.6733L40.8394 59.5618L36.8969 70.7171L33.46 67.0319C27.5969 60.6574 25.2719 52.7888 26.6871 44.1235C25.2719 43.2271 24.3621 41.8327 23.9577 40.1394L22.7447 38.0478C22.6436 38.8446 22.5425 39.3426 22.4414 39.6414C22.3403 41.8327 20.7229 42.4303 14.6577 44.6215L11.9283 45.6175L11.2207 44.0239L10.5131 46.2151L0 49.1036L0.8087 44.4223C3.33589 30.1793 13.5457 23.3068 24.3621 21.0159C23.6545 20.3187 23.048 19.7211 22.8458 19.4223L20.4197 17.1315C18.8023 14.9402 17.7914 13.0478 17.7914 13.0478L16.5784 10.757L18.7012 9.26295C21.7338 7.07171 24.8675 6.0757 28.0012 6.0757C34.0665 6.0757 38.8176 10.0598 41.9513 13.9442C42.1535 12.9482 42.4568 11.9522 42.6589 11.255L43.4676 8.36653C44.9839 7.07171 45.8937 5.07968 48.9264 2.98805L50.6448 1.79283C54.0818 0.498008 56.609 0.199203 56.9123 0.199203L59.5405 0L60.1471 2.58964C61.0569 6.67331 60.3492 10.5578 59.1362 13.745C60.8547 13.4462 62.4721 13.3466 64.1906 13.3466C75.6135 13.3466 84.4081 19.9203 86.8342 22.012C87.8451 22.9084 88.2494 24.3028 87.8451 25.5976C87.4407 26.8924 86.2277 27.7888 84.9135 27.8884C84.307 27.8884 83.4983 27.988 82.4874 28.0876C80.0613 28.2869 76.8265 28.6853 73.5917 28.7849L71.8732 28.8845L63.1797 28.1873L61.9666 27.5896L63.0786 29.0837C64.4938 30.6773 65.808 33.1673 65.9091 33.4661L66.7178 35.0598L67.021 37.0518C67.6275 39.4422 67.2232 43.0279 67.1221 43.7251L65.7069 54.0837L61.4612 44.8207C60.9558 44.3227 59.2373 43.1275 57.8221 42.1315C57.3166 41.8327 56.8112 41.4343 56.3057 41.1355C56.2047 41.2351 56.1036 41.2351 55.9014 41.3347C67.2232 59.8606 67.6275 82.9681 66.7178 95.9163L66.3134 100L63.584 100L46.9046 100"/>
	<path fill="#8E6C3F" d="M50.5437 37.5C51.0491 37.5 62.5731 70.3685 51.4535 96.5637L64.1905 96.5637C63.9883 96.5637 68.7395 61.1056 50.5437 37.5"/>
	<path fill="#2D1B0A" d="M64.1906 97.51L49.9372 97.51L50.5437 96.1156C60.8547 71.7132 51.1502 40.7371 49.8361 38.1474C49.8361 38.1474 49.8361 38.1474 49.8361 38.0478L48.6231 36.4542L51.2513 36.4542C51.5546 36.9522 51.5546 36.9522 51.5546 37.0518C66.5155 56.6733 66.2122 84.6614 65.3025 95.8167C65.3025 95.9164 65.3025 96.1156 65.3025 96.2152L66.7178 97.6096L64.1906 97.51M52.9698 95.5179L63.2808 95.5179C63.9883 85.6574 64.3928 62.5498 53.8796 44.2231C56.7101 55.2789 60.2481 76.7928 52.9698 95.5179"/>
	<path fill="#99CC62" d="M53.1307 18.4263C53.1307 18.4263 59.6003 11.0557 57.6797 2.7888C57.6797 2.7888 55.5568 2.988 53.1307 4.18322L53.6362 6.77286L51.2101 5.07964C48.784 6.77286 48.0764 8.16729 47.3687 9.56171L49.0872 12.6494L45.9535 11.7529C45.2459 14.1434 44.235 18.6255 44.0329 21.7131C44.0329 21.7131 34.6317 1.59358 20.7827 11.3545C20.7827 11.3545 21.6925 13.0478 23.2088 15.1394L26.848 12.749L25.4328 17.231C25.4328 17.231 27.1512 19.3227 28.5665 19.8207L32.9132 15.3386L31.1947 21.2151C31.1947 21.2151 33.3176 22.4103 34.0252 22.9083C34.0252 22.9083 8.14679 21.2151 4.0022 44.6215L8.34896 43.4263L11.1794 35.1593L13.8077 41.5338C13.8077 41.5338 19.5697 39.4422 19.5697 39.1434C19.5697 38.9442 21.2882 28.984 21.2882 28.984L25.3317 36.0557L30.386 32.7689C30.5882 32.3705 34.4295 29.98 37.1589 27.49C34.6317 31.0757 21.9958 49.7012 35.8448 64.8406L37.7654 59.4621L35.1372 52.5896L41.4046 53.7848L44.0329 47.4103L40.697 41.235L46.459 40.3386C48.2785 34.0637 46.8633 28.6852 46.56 27.5896C46.56 27.5896 46.6611 27.5896 46.6611 27.5896C52.0188 35.1593 63.7449 40.8366 64.6547 42.8286C64.6547 42.8286 65.1601 39.243 64.6547 37.3506L62.2286 36.1553L63.6438 34.2629C63.6438 34.2629 62.4308 31.8725 61.2177 30.478L58.5895 30.478L59.0949 27.8884C59.0949 27.8884 55.2536 24.8008 48.5818 24.1035C48.5818 24.1035 48.5818 24.1035 48.6829 24.0039C51.8166 24.0039 61.9253 24.0039 61.9253 24.0039L63.3406 18.3266L65.7667 24.7012L69.4058 24.9004L69.0015 18.0278C69.2036 18.0278 73.9548 25.1992 73.9548 25.1992C78.4026 25 83.2548 24.4023 85.1755 24.3027C85.4828 24.3027 85.5798 23.9043 85.3777 23.7051C82.2439 21.2151 68.7993 11.0557 53.1307 18.4263"/>
	<path fill="#2D1B0A" d="M36.3081 66.733L35.1956 65.5378C24.3735 53.6852 29.0259 39.741 33.375 31.7729C33.2739 31.8725 33.1727 31.9721 33.0716 31.9721C32.3636 32.4701 31.6556 32.9681 31.3522 33.2669L24.9803 37.5498L21.8449 31.9721C21.2381 35.3585 20.6312 38.9442 20.6312 39.243C20.6312 39.9402 20.6312 40.1394 14.2593 42.4303L11.3263 37.9482L9.20229 44.2231L2.8304 46.0159L3.13382 44.4223C6.47148 25.7968 23.2609 22.5099 30.6442 21.9123L30.9476 18.9243L29.0259 20.9163C26.8008 20.1195 25.0814 18.0279 24.8792 17.8287L25.2837 15.1394L23.1598 16.5338C21.0358 13.6454 20.1255 11.9522 20.0244 11.8526L20.3278 10.5577C24.07 7.9681 27.8123 7.17129 31.4533 8.0677C37.2184 9.56173 41.3652 15.0398 43.4891 18.5259C43.8937 15.8366 44.6017 13.0478 45.1074 11.4542L47.1302 10.9562L46.3211 9.56173C47.2313 7.6693 48.0405 6.07567 50.6701 4.18324L52.1873 4.48204L52.693 3.28683C55.2215 1.992 57.5477 1.7928 57.6489 1.7928L58.7614 2.58961C60.0763 8.1673 57.8512 13.247 56.0306 16.235C70.9995 11.255 83.6421 20.9163 86.1707 23.0079C86.6546 23.3067 86.7775 23.9044 86.6546 24.4024C86.373 24.9004 85.9684 25.2988 85.3615 25.2988C84.7547 25.2988 83.9456 25.3984 82.9342 25.498C80.5068 25.6972 77.2703 26.0956 74.1349 26.1952C72.2132 24.2032 71.2018 22.7091 70.2915 21.4143L70.5949 25.8964L65.1333 25.5976L63.6162 21.6135L62.8071 24.9004C61.9979 24.9004 59.166 24.9004 56.1318 24.9004C58.458 25.8964 59.7728 26.8924 59.874 26.992L59.9751 29.3824L61.7957 29.3824C63.4139 31.1753 64.6276 33.5657 64.6276 33.6653L63.8185 35.5577L65.5379 36.4542C66.1447 38.9442 65.639 42.5299 65.639 42.7291L65.1333 46.2151L63.7173 43.0279C63.4139 42.5299 61.29 41.0358 59.4694 39.8406C56.0306 37.5498 51.6816 34.5617 48.2428 30.9761C48.5462 33.4661 48.445 36.753 47.4336 40.4382L42.2754 41.8326L45.2085 47.2111L42.0732 54.7808L36.7127 53.7848L38.8366 59.3625L36.3081 66.733M42.7811 21.4143L38.0275 28.0876C34.5887 32.8685 24.5757 49.3028 35.499 62.8486L36.7127 59.4621L33.5773 51.2948L40.7583 52.6892L42.8823 47.5099L39.1401 40.5378L45.6131 39.5418C47.1302 33.6653 45.8154 28.8844 45.5119 27.8884L44.9051 25.996L47.1302 26.7928C50.6701 31.6733 56.4352 35.5577 60.582 38.4462C61.9979 39.3426 63.0094 40.1394 63.8185 40.737C63.8185 39.8406 63.8185 38.8446 63.7173 38.1474L60.6831 36.6534L62.4025 34.2131C61.9979 33.5657 61.3911 32.4701 60.6831 31.5737L57.3455 31.5737L57.9523 28.3864C56.7386 27.5896 53.401 25.6972 48.445 25.1992L46.5234 25L48.1416 23.1075C51.277 23.1075 58.6603 23.1075 61.0877 23.1075L62.6048 16.9322C59.6717 17.1314 56.6375 17.9283 53.5021 19.4223L49.153 21.4143L52.2884 17.8287C52.3895 17.7291 57.9523 11.255 56.8398 3.98404C56.2329 4.08364 55.2215 4.38244 54.2101 4.78085L55.0192 9.06372L51.1758 6.37447C49.6587 7.56969 49.0519 8.56571 48.445 9.56173L51.0747 14.3426L46.6245 13.0478C46.0177 15.3386 45.2085 19.1235 45.0062 21.8127L44.7425 25.6972L42.9834 22.1115C43.1857 22.1115 42.9834 21.8127 42.7811 21.4143M32.667 23.9044C27.61 23.9044 9.50571 25.1992 5.25779 43.2271L7.48289 42.6295L11.0228 32.3705L14.2593 40.3386C15.9787 39.6414 17.7993 38.9442 18.5073 38.6454C18.6084 37.749 19.013 35.3585 20.1255 28.8844L20.6312 26.0956L25.5871 34.6613L29.6328 32.0717C29.9362 31.7729 30.4419 31.3745 31.7568 30.4781C33.0716 29.482 34.9933 28.1872 36.4092 26.7928L42.5789 21.2151C41.5674 19.3227 38.8366 14.741 34.8921 11.9522L32.3636 20.7171C33.0716 21.1155 34.083 21.7131 34.5887 22.1115L37.5218 24.1036L33.9819 23.9044C33.8807 23.9044 33.375 23.9044 32.667 23.9044M18.6084 38.9442C18.6084 39.0438 18.6084 39.0438 18.6084 39.1434C18.6084 39.1434 18.6084 39.0438 18.6084 38.9442M69.5835 17.231C70.0892 17.5299 70.9995 18.8247 74.5394 24.2032C77.4725 24.1036 80.4056 23.8048 82.6307 23.6056C82.9342 23.6056 83.2376 23.5059 83.4399 23.5059C80.7091 21.4143 75.7531 18.3267 69.5835 17.231M66.5493 23.7052L68.3698 23.8048L67.9653 16.9322C66.6504 16.733 65.3356 16.733 63.9196 16.733L66.5493 23.7052M26.5986 17.0318C27.1043 17.5299 27.8123 18.2271 28.4191 18.6255L34.8921 11.9522C33.6784 11.0557 32.3636 10.4581 30.8465 10.0597C28.0145 9.36252 25.0814 9.86053 22.1484 11.753C22.4518 12.251 22.9575 13.0478 23.4632 13.8446L28.6214 10.4581L26.5986 17.0318"/>
	<path fill="white" d="M47.8144 35.1594C47.8144 34.9601 47.8144 34.6614 47.8144 34.4622C47.8144 33.2669 48.3198 32.3705 49.0274 31.3745C47.8144 30.1793 46.9046 28.9841 45.8937 27.7888C45.8937 28.6853 46.6013 31.0757 46.3992 34.6614C47.1068 34.7609 47.6122 34.9601 47.8144 35.1594"/>
	<path fill="#F6CA5E" d="M48.5827 34.3525C48.5827 31.9621 50.3012 30.0697 52.9295 30.0697C55.3556 30.0697 57.2763 31.7629 57.2763 34.3525C57.2763 36.9422 55.5578 38.6354 52.9295 38.6354C50.5034 38.6354 48.5827 36.743 48.5827 34.3525"/>
	<path fill="#2D1B0A" d="M52.9295 39.6315C49.8969 39.6315 47.5718 37.3406 47.5718 34.3525C47.5718 31.2649 49.7958 29.0737 52.9295 29.0737C56.0632 29.0737 58.2871 31.2649 58.2871 34.3525C58.2871 37.5398 56.1643 39.6315 52.9295 39.6315M52.9295 31.0657C51.0088 31.0657 49.5936 32.4601 49.5936 34.3525C49.5936 36.245 51.0088 37.6394 52.9295 37.6394C54.9512 37.6394 56.2654 36.3446 56.2654 34.3525C56.2654 32.3605 54.8502 31.0657 52.9295 31.0657"/>
	<path fill="#F6CA5E" d="M40.9 39.1334C40.9 36.5438 43.3261 34.1534 45.9544 34.1534C48.5827 34.1534 51.0088 36.5438 51.0088 39.1334C51.0088 41.7231 48.5827 44.1135 45.9544 44.1135C43.3261 44.1135 40.9 41.9223 40.9 39.1334"/>
	<path fill="#2D1B0A" d="M45.9544 45.1096C42.6185 45.1096 39.8892 42.4203 39.8892 39.1334C39.8892 36.0458 42.8207 33.1573 45.9544 33.1573C49.0881 33.1573 52.0197 36.0458 52.0197 39.1334C52.0197 42.2211 49.0881 45.1096 45.9544 45.1096M45.9544 35.1494C43.8316 35.1494 41.9109 37.0418 41.9109 39.1334C41.9109 41.2251 43.8316 43.1175 45.9544 43.1175C48.0772 43.1175 49.998 41.2251 49.998 39.1334C49.998 37.0418 47.9762 35.1494 45.9544 35.1494"/>
	<path fill="#F6CA5E" d="M26.95 38.3366C26.95 36.245 28.6685 34.5517 30.7913 34.5517C32.9141 34.5517 34.6326 36.245 34.6326 38.3366C34.6326 40.4282 32.9141 42.1215 30.7913 42.1215C28.6685 42.1215 26.95 40.5278 26.95 38.3366"/>
	<path fill="#2D1B0A" d="M30.7913 43.1175C28.0619 43.1175 25.9391 41.0258 25.9391 38.3366C25.9391 35.747 28.163 33.5557 30.7913 33.5557C33.4196 33.5557 35.6435 35.747 35.6435 38.3366C35.6435 40.9262 33.4196 43.1175 30.7913 43.1175M30.7913 35.5478C29.275 35.5478 27.9608 36.8426 27.9608 38.3366C27.9608 39.9302 29.1739 41.1254 30.7913 41.1254C32.3076 41.1254 33.6217 39.8306 33.6217 38.3366C33.6217 36.8426 32.3076 35.5478 30.7913 35.5478"/>
	<path fill="#BF8B21" d="M62.9775 96.3147C62.9775 96.3147 58.934 94.6215 57.0133 94.6215C57.0133 94.6215 58.4286 93.725 62.9775 94.4223C62.9775 94.4223 63.1797 92.0318 63.1797 89.243C63.1797 89.243 61.4612 88.3466 57.2155 88.3466C57.2155 88.3466 58.1253 86.9521 63.1797 86.6533C63.1797 86.6533 63.1797 84.2629 62.9775 82.3705C62.9775 82.3705 59.8438 81.474 56.3057 82.5697C56.3057 82.5697 57.0133 81.6732 62.9775 80.478C62.9775 80.478 62.7753 74.6015 62.4721 73.1075C62.4721 73.1075 60.046 72.6095 57.9231 73.3067C57.9231 73.3067 58.1253 72.4103 62.2699 71.4143C62.2699 71.4143 62.0677 67.6294 61.7645 67.1314C61.7645 67.1314 60.046 66.6334 57.7209 67.6294C57.7209 67.6294 58.6307 65.9362 61.5623 65.9362C61.5623 65.9362 60.6525 61.2549 59.8438 59.7609C59.8438 59.7609 58.4286 59.5617 57.0133 60.2589C57.0133 60.2589 57.5188 59.3625 59.8438 58.8645C59.8438 58.8645 57.9231 53.6852 57.4177 52.988C57.4177 52.988 55.6992 53.1872 55.2948 54.3824C55.2948 54.3824 55.497 53.486 57.0133 52.49C57.0133 52.49 55.2948 48.9043 54.8905 48.0079C54.8905 48.0079 54.6883 48.0079 53.9807 48.2071C53.9807 48.2071 54.1829 47.7091 54.6883 47.3107C54.6883 47.3107 59.9449 56.0756 62.1688 66.4342C61.5623 66.733 64.8982 83.5657 62.9775 96.3147"/>
</svg>
