<?xml version="1.0" encoding="utf-8" ?>
<svg xmlns="http://www.w3.org/2000/svg" xmlns:xlink="http://www.w3.org/1999/xlink" width="48" height="92">
	<path fill="white" d="M24.0495 92C20.6845 92 17.9134 89.197 17.9134 85.7933L17.9134 67.4733L8.41237 67.4733C3.85979 67.4733 0 63.5691 0 58.9641L0 19.6213C0 8.60936 8.61031 0 19.5959 0L28.4041 0C39.3897 0 48 8.60936 48 19.6213L47.8021 58.9641C47.8021 63.5691 43.9423 67.4733 39.3897 67.4733L29.9876 67.4733L29.9876 85.7933C30.0866 89.2971 27.4144 92 24.0495 92"/>
	<path fill="#EAB18B" d="M24.0495 89.1968C22.367 89.1968 20.8825 87.6952 20.8825 85.9933L20.8825 47.7518C20.8825 46.9509 21.0804 46.2501 21.4763 45.6495C22.0701 45.0488 22.9608 44.5483 23.9505 44.5483C25.8309 44.5483 27.1175 45.7496 27.1175 47.7518L27.1175 85.9933C27.1175 87.8954 25.8309 89.1968 24.0495 89.1968"/>
	<path fill="#2D1B0A" d="M24.0495 90.198C21.8722 90.198 19.8928 88.1958 19.8928 85.9934L19.8928 47.7519C19.8928 46.6507 20.1897 45.8498 20.6845 45.0489C21.6742 44.0478 22.7629 43.5473 23.9505 43.5473C26.4247 43.5473 28.1072 45.2491 28.1072 47.7519L28.1072 85.9934C28.1072 88.4962 26.3258 90.198 24.0495 90.198M22.268 46.2502C21.9711 46.6507 21.8722 47.1512 21.8722 47.7519L21.8722 85.9934C21.8722 87.0946 22.9608 88.1958 24.0495 88.1958C25.3361 88.1958 26.1278 87.2949 26.1278 85.9934L26.1278 47.7519C26.1278 46.4505 25.3361 45.5495 23.9505 45.5495C23.3567 45.5495 22.6639 45.8498 22.268 46.2502"/>
	<path fill="#FF6C6C" d="M8.41245 64.6703C5.54235 64.6703 2.96915 62.1676 2.96915 59.1643L2.96915 19.8216C2.96915 10.6115 10.1939 3.2035 19.596 3.2035L28.4043 3.2035C37.8063 3.2035 45.0311 10.5114 45.0311 19.8216L44.833 59.1643C44.833 62.0675 42.3589 64.6703 39.3898 64.6703L8.41245 64.6703"/>
	<path fill="#2D1B0A" d="M39.3897 65.6714L8.41239 65.6714C4.94847 65.6714 1.9794 62.6681 1.9794 59.1643L1.9794 19.8216C1.9794 10.0109 9.69899 2.2024 19.5959 2.2024L28.4041 2.2024C38.301 2.2024 46.0206 9.91078 46.0206 19.8216L45.8227 59.1643C45.8227 62.6681 42.8536 65.6714 39.3897 65.6714M19.5959 4.20458C10.7877 4.20458 3.95878 11.012 3.95878 19.8216L3.95878 59.1643C3.95878 61.5669 6.03713 63.6692 8.41239 63.6692L39.3897 63.6692C41.765 63.6692 43.8433 61.5669 43.8433 59.1643L44.0413 19.8216C44.0413 11.1121 37.2124 4.30469 28.4041 4.30469L19.5959 4.30469"/>
	<path fill="#FF8098" d="M22.8618 20.1217L24.8412 20.1217C25.9298 20.1217 27.1175 21.8236 27.1175 23.5254L27.1175 53.2578C27.1175 55.1599 26.1278 56.6614 24.8412 56.6614L22.8618 56.6614C21.7731 56.6614 20.5855 54.9596 20.5855 53.2578L20.5855 23.5254C20.5855 21.7235 21.7731 20.1217 22.8618 20.1217M9.402 23.5254L9.402 53.2578C9.402 55.1599 10.3917 56.6614 11.6783 56.6614L13.6577 56.6614C14.7463 56.6614 15.934 54.9596 15.934 53.2578L15.934 23.5254C15.934 21.6234 14.9443 20.1217 13.6577 20.1217L11.6783 20.1217C10.3917 20.1217 9.402 21.7235 9.402 23.5254M32.0659 23.5254L32.0659 53.2578C32.0659 55.1599 33.0556 56.6614 34.3422 56.6614L36.0247 56.6614C37.1133 56.6614 38.301 54.9596 38.301 53.2578L38.301 23.5254C38.301 21.6234 37.3113 20.1217 36.0247 20.1217L34.3422 20.1217C33.0556 20.1217 32.0659 21.7235 32.0659 23.5254"/>
</svg>
