<?xml version="1.0" encoding="utf-8" ?>
<svg xmlns="http://www.w3.org/2000/svg" xmlns:xlink="http://www.w3.org/1999/xlink" width="68" height="100">
	<path fill="white" d="M65.3572 36.8C64.7474 35.7 63.6293 34.4 63.0194 33.8C63.1211 33.5 63.2227 33.1 63.2227 32.9C63.426 32.2 63.8326 30.5 63.9342 29.9C65.9671 23.8 64.849 17.1 60.7833 11.4C55.4978 4.1 45.9432 0 34.6607 0C22.0568 0 10.9776 4.9 5.18386 13.3C1.72795 18.6 1.21973 24.3 3.55755 29.8C3.35426 29.9 3.15097 30.1 3.04933 30.2C1.62631 31.2 0 32.4 0 34.6C0.71151 37.6 3.25262 39.2 6.50523 39.4C7.21674 40.9 8.53812 42.1 10.2661 42.9C13.0105 56.2 16.4664 69.3 19.8206 78.9C26.2242 97.5 30.6966 100 34.2541 100C37.9133 99.9 42.284 97.2 48.281 78.6C51.3303 69.1 54.4813 56.2 56.9208 43.1C57.5306 42.9 58.2422 42.6 58.852 42.2C59.3602 42.6 59.9701 42.9 60.8849 42.9C62.2063 42.9 63.1211 42.2 63.8326 41.5L68 41.5L65.3572 36.8"/>
	<path fill="#FFE7D4" d="M34.3558 97.2C26.4275 97.2 16.4663 59.7 11.8924 35L55.2944 35C51.2286 59.4 42.0807 96.9 34.3558 97.2"/>
	<path fill="#2D1B0A" d="M34.3557 98.2C22.6666 98.2 10.9775 35.8 10.8759 35.2L10.6726 34L56.5142 34L56.3109 35.2C56.2092 35.8 45.7399 97.8 34.3557 98.2M13.1121 36C18.6008 65.1 28.1554 96.1 34.3557 96.2C40.3527 95.9 49.1958 65 54.0747 36L13.1121 36"/>
	<path fill="#FFEAD9" d="M13.9253 40.9C12.7056 40.9 9.85957 40.2 9.14806 38.1C8.43655 36.7 8.66525 35.7 8.94477 35.5C9.14806 35 9.65628 34.8 9.85957 34.8L56.4126 34.8C57.1241 35 57.8356 35.5 58.3438 36C58.5471 36.5 59.0553 36.9 58.8991 37.9C58.6488 39.3 56.0061 40.7 54.7864 40.7L35.4739 40.7L13.9253 40.9"/>
	<path fill="#2D1B0A" d="M13.9253 41.9C12.4007 41.9 9.14805 41.1 8.23325 38.5C7.4201 36.9 7.52174 35.6 8.13161 34.9C8.53819 34.2 9.35134 33.8 9.85956 33.8L56.5143 33.8C57.734 34.1 58.6488 34.9 58.9537 35.3C59.157 35.7 59.2587 35.8 59.2587 35.8C59.462 36.2 59.8685 36.9 59.6652 38C59.3603 40 56.1077 41.6 54.583 41.6L35.2706 41.6L13.9253 41.9M9.75792 36.2C9.75792 36.4 9.75792 36.9 10.1645 37.6C10.7744 39.2 13.0105 39.8 14.027 39.8L35.5756 39.6L54.888 39.6C55.8028 39.6 57.8356 38.4 57.9373 37.7C58.0389 37.3 57.9373 37.1 57.734 36.8C57.6324 36.7 57.6324 36.6 57.5307 36.5C57.1241 36.1 56.7176 35.8 56.311 35.7L10.0628 35.7C10.0628 35.7 9.96121 35.7 9.96121 35.8"/>
	<path fill="#FF6357" d="M34.6607 3.3C45.0284 3.3 53.6681 7.1 58.3438 13.5C61.698 18.2 62.9178 23.9 60.9865 29.4C60.9865 29.4 60.4783 31.7 60.275 32.4C59.7668 34.3 59.6651 34.8 60.3767 35.8C60.3767 35.8 61.9013 37.4 62.6128 38.6C62.4095 38.6 61.1898 40 60.7831 40C60.5799 40 57.8355 36.1 54.9895 34.9C54.0746 34.4 53.0583 34.2 52.1435 34.2C50.0089 34.2 48.7892 35.4 47.7728 36.1C47.7728 35.9 46.3497 31.1 42.7922 31.1C39.6412 31.1 36.3885 35.3 36.3885 35.3C35.8804 35.3 31.3063 32 29.68 32C27.7488 32 26.0208 32.7 24.5978 34.1C23.6831 35 20.7353 40 19.8205 40C18.6009 40 17.1779 36.7 16.9746 35.5L16.9746 29.8C16.9746 29.8 10.9775 35.9 8.33475 36.4C7.82653 36.4 7.41995 36.6 6.91173 36.6C4.7772 36.6 3.25254 35.7 3.04925 34.9C3.04925 34.2 3.76076 33.7 4.7772 33C5.692 32.3 6.70844 31.6 6.70844 30.2L6.50515 29.2C4.37063 24.5 4.7772 19.7 7.72489 15.2C12.9087 7.8 23.0731 3.3 34.6607 3.3"/>
	<path fill="#2D1B0A" d="M60.8849 41.1C60.3767 41.1 60.1734 40.8 59.4619 40.1C58.5471 39 56.5142 36.7 54.583 35.9C53.5665 35.4 52.7534 35.3 52.1435 35.3C50.7205 35.3 49.8057 36 48.8909 36.6C48.6876 36.7 48.4843 36.9 48.3827 37L46.7564 38.1L46.7564 36.3C46.6547 35.8 45.435 32.2 42.7922 32.2C40.6577 32.2 38.015 34.9 37.2018 36C35.9821 36.4 35.5755 36.2 34.0508 35.3C32.8311 34.6 30.3916 33.1 29.6801 33.1C28.0538 33.1 26.5292 33.7 25.3094 34.9C25.0045 35.2 24.3946 36.1 23.8864 36.9C21.7519 39.9 20.8371 41.1 19.8206 41.1C17.4828 41.1 16.0598 36.4 15.9582 35.8L15.9582 32.3C13.9253 34.2 10.571 37.1 8.53813 37.5C8.2332 37.5 8.02991 37.5 7.82662 37.6C7.62333 37.7 7.21676 37.7 6.91182 37.7C4.47236 37.7 2.43948 36.6 2.0329 35.2C2.0329 33.8 3.04934 33 4.16743 32.3C5.08223 31.5 5.59045 31.1 5.69209 30.4C3.25263 24.6 3.76085 19.5 6.81018 14.8C12.1973 7.1 22.6667 2.4 34.5591 2.4C45.2317 2.4 54.1764 6.3 59.0553 13C62.8162 18.2 63.8326 24.2 61.9014 29.8C61.7997 30.2 61.3931 32.1 61.1899 32.8C60.6816 34.6 60.7833 34.7 61.1899 35.3C61.4948 35.6 62.8162 37.1 63.5277 38.2L64.4425 39.7L63.0194 39.7C62.9178 39.8 62.8162 39.9 62.7145 40C62.003 40.6 61.4948 41.1 60.8849 41.1M17.991 35.4C18.1943 36.5 19.2108 38.4 19.719 38.9C20.3289 38.3 21.447 36.6 22.1585 35.7C22.9716 34.5 23.4798 33.8 23.8864 33.4C25.5127 31.8 27.444 31 29.6801 31C30.8999 31 32.8311 32.1 35.1689 33.5C35.4739 33.7 35.8804 33.9 36.1854 34.1C37.3035 32.8 40.0478 30.1 42.8939 30.1C45.9432 30.1 47.5695 32.7 48.3827 34.5C49.2975 33.9 50.5172 33.2 52.2452 33.2C53.0583 33.2 54.278 33.3 55.4978 34C57.8356 35 59.9701 37.5 60.9866 38.7C61.0882 38.6 61.1899 38.5 61.2915 38.4C60.58 37.4 59.6652 36.5 59.6652 36.5C58.5471 35 58.7504 34.1 59.2586 32.2C59.4619 31.6 59.8685 29.9 59.9701 29.2C61.6981 24.1 60.7833 18.8 57.429 14.1C52.855 7.9 44.5202 4.3 34.5591 4.3C23.2765 4.3 13.5187 8.6 8.43649 15.8C5.69209 20 5.28552 24.4 7.3184 28.8L7.62333 30.2C7.62333 32 6.4036 33 5.38716 33.7C4.87894 34.1 4.26907 34.5 3.96414 34.8C4.26907 35.1 5.28552 35.6 6.70854 35.6C6.81018 35.6 7.01347 35.6 7.21676 35.5C7.42004 35.5 7.72498 35.4 8.02991 35.4C9.75786 35 13.8236 31.3 16.0598 29.1L17.7878 27.3L17.7878 35.4"/>
	<path fill="white" d="M7.00591 18C7.92071 15.9001 10.8684 11.9 15.849 9.00002C26.6232 2.50002 38.8205 3.30002 45.7323 5.90002C52.6441 8.80002 55.4902 10.9 58.4379 15.6C61.284 19.8 62.097 26.1 60.1659 26.3057C58.0313 26.5 56.3033 21.3001 53.9655 20.6C51.5261 20 52.2375 25.6 50.3064 24.8001C48.3751 24 48.1718 18.7001 45.2242 19.1C42.0732 19.3 40.1419 23.1 36.1778 23.3001C31.8071 23.5 27.3347 23.3001 25.4035 22C23.4722 20.7001 22.5574 18 20.8295 19.9C19.1016 22 17.9834 25.4001 15.7473 25.6C13.6128 25.6 12.0881 23.5 13.3078 21.6C14.5276 19.5 13.3078 18.2001 12.0881 18.2001C11.1733 18.4 10.1569 19.7001 8.93715 20.3001C8.22564 20.7001 6.09111 19.6 7.00591 18"/>
	<path fill="#F0909B" d="M50.9644 17.05L52.8957 13.75L50.9644 17.05M43.3411 16.55L42.3246 16.55L42.3246 14.15L43.3411 14.15L43.3411 16.55M26.4682 15.65L26.2649 14.65L29.6192 13.95L29.8225 14.95L26.4682 15.65M38.2589 15.25L34.3965 13.55L38.6655 14.35M51.4726 13.55L48.6266 12.15L51.8792 12.65M25.655 13.25C25.655 13.25 25.655 13.15 25.655 13.15L24.6386 13.15C24.6386 12.75 24.6386 11.75 30.7373 11.25L30.8389 12.25C28.6026 12.45 25.9599 12.85 25.655 13.25M16.4054 12.95L16.1005 11.95L22.6057 10.25L22.9106 11.25L16.4054 12.95M37.9539 10.75L34.5998 9.05L38.4622 9.85M43.0361 8.25L42.0198 8.25L42.0198 6.55L43.0361 6.55L43.0361 8.25M33.38 8.05L33.1767 5.75L33.38 8.05M27.5863 6.75L21.5892 6.75L21.5892 5.75L27.5863 5.75L27.5863 6.75"/>
</svg>
