<?xml version="1.0" encoding="utf-8" ?>
<svg xmlns="http://www.w3.org/2000/svg" xmlns:xlink="http://www.w3.org/1999/xlink" width="68" height="100">
	<path fill="white" d="M34 100C15.1892 100 0 84.6154 0 65.7895L0 34.2105C0 15.4858 15.1892 0.101215 33.7986 0C52.7097 0 68 15.3846 68 34.2105L68 65.7895C68.1001 84.6154 52.8103 100 34 100"/>
	<path fill="#7FCCD1" d="M2.8673 65.7896C2.8673 82.996 16.8493 96.9637 33.8994 96.9637C51.05 96.9637 64.9315 82.996 64.9315 65.7896L64.9315 41.3969L2.8673 41.3969L2.8673 65.7896"/>
	<path fill="#2D1B0A" d="M34 97.9758C16.2458 97.9758 1.962 83.5021 1.962 65.7896L1.962 40.3847L66.038 40.3847L66.038 65.7896C66.038 83.5021 51.6536 97.9758 34 97.9758M3.97381 42.409L3.97381 65.7896C3.97381 82.49 17.4529 95.9515 34 95.9515C50.4465 95.9515 63.9256 82.3887 63.9256 65.7896L63.9256 42.409L3.97381 42.409"/>
	<path fill="#7FCCD1" d="M33.8491 2.93525C16.7488 3.03646 2.9679 16.9028 2.9679 34.1094L2.9679 41.3967L65.0321 41.3967L33.8491 41.0932L33.8491 2.93525"/>
	<path fill="#2D1B0A" d="M66.038 42.4089L1.962 42.4089L1.962 34.1093C1.962 16.3968 16.2458 1.9231 33.8491 1.9231L34.855 1.9231L34.855 40.081L66.038 40.081L66.038 42.4089M3.97381 40.3846L32.8432 40.3846L32.8432 3.94739C16.8494 4.55468 3.97381 17.915 3.97381 34.1093L3.97381 40.3846"/>
	<path fill="#7FCCD1" d="M33.8989 2.93525C33.8989 2.93525 33.8989 2.93525 33.8989 2.93525L33.8989 41.0932L65.0819 41.0932L65.0819 34.1094C65.0819 16.9028 51.2004 2.93525 33.8989 2.93525"/>
	<path fill="#2D1B0A" d="M66.0878 42.1053L32.893 42.1053L32.893 1.9231L33.9995 1.9231C51.7034 1.9231 65.9872 16.3968 65.9872 34.1093L65.9872 42.1053M34.9048 40.081L64.076 40.081L64.076 34.1093C64.076 17.7126 51.0998 4.35225 34.9048 3.94739L34.9048 40.081"/>
	<path fill="#FFFDFA" d="M31.8899 31.7814C29.3752 31.7814 27.3634 29.757 27.3634 27.2268L27.3634 13.8664C27.3634 11.336 29.3752 9.31175 31.8899 9.31175L35.4106 9.31175C37.9254 9.31175 39.9372 11.336 39.9372 13.8664L39.9372 27.2268C39.9372 29.757 37.9254 31.7814 35.4106 31.7814L31.8899 31.7814"/>
	<path fill="#2D1B0A" d="M35.4095 10.2227C37.4216 10.2227 38.9309 11.8421 38.9309 13.7652L38.9309 27.1255C38.9309 29.1498 37.3211 30.668 35.4095 30.668L31.8882 30.668C29.876 30.668 28.3668 29.0486 28.3668 27.1255L28.3668 13.7652C28.3668 11.7409 29.9766 10.2227 31.8882 10.2227L35.4095 10.2227M35.4095 8.1984L31.8882 8.1984C28.7693 8.1984 26.3547 10.7288 26.3547 13.7652L26.3547 27.1255C26.3547 30.2632 28.8699 32.6923 31.8882 32.6923L35.4095 32.6923C38.5284 32.6923 40.9459 30.162 40.9459 27.1255L40.9459 13.7652C41.0435 10.7288 38.5284 8.1984 35.4095 8.1984"/>
</svg>
