<?xml version="1.0" encoding="utf-8" ?>
<svg xmlns="http://www.w3.org/2000/svg" xmlns:xlink="http://www.w3.org/1999/xlink" width="86" height="92">
	<path fill="white" d="M36.8716 92L36.8716 64.0442L8.40754 64.0442L0 53.2685L8.40754 42.3912L23.6019 42.3912L23.6019 25.9227L8.40754 25.9227L0 15.147L8.40754 4.37127L36.8716 4.37127L36.8716 0L49.6349 0L49.6349 4.37127L62.3981 4.37127L62.3981 23.3812L77.6938 23.3812L86 34.1569L77.6938 45.0343L62.3981 45.0343L62.3981 64.0442L49.6349 64.0442L49.6349 92"/>
	<path fill="#FFE7D4" d="M46.6972 2.94795L40.0117 2.94795L40.0117 88.8485L46.6972 88.8485L46.6972 2.94795"/>
	<path fill="#2D1B0A" d="M47.7102 89.8651L38.9988 89.8651L38.9988 1.9314L47.7102 1.9314L47.7102 89.8651M41.0247 87.832L45.6843 87.832L45.6843 3.96455L41.0247 3.96455L41.0247 87.832"/>
	<path fill="#3BA7FF" d="M59.4605 7.21766L9.92694 7.21766L3.9505 14.9436L9.92694 22.6696L59.4605 22.6696L59.4605 7.21766"/>
	<path fill="#2D1B0A" d="M60.4735 23.7878L9.42051 23.7878L2.6337 15.0453L9.42051 6.30275L60.4735 6.30275L60.4735 23.7878M10.4335 21.7547L58.4476 21.7547L58.4476 8.23424L10.4335 8.23424L5.26739 14.9436L10.4335 21.7547"/>
	<path fill="#FFCF48" d="M26.7421 26.2276L76.2757 26.2276L82.2521 33.9536L76.2757 41.6795L26.7421 41.6795L26.7421 26.2276"/>
	<path fill="#2D1B0A" d="M76.7821 42.7978L25.7291 42.7978L25.7291 25.2111L76.7821 25.2111L83.5689 33.9536L76.7821 42.7978M27.755 40.7646L75.7691 40.7646L80.9352 34.0553L75.7691 27.3459L27.755 27.3459L27.755 40.7646"/>
	<path fill="#3A7C42" d="M59.4605 45.3392L9.92694 45.3392L3.9505 53.0652L9.92694 60.7911L59.4605 60.7911L59.4605 45.3392"/>
	<path fill="#2D1B0A" d="M60.4735 61.8078L9.42051 61.8078L2.6337 53.0652L9.42051 44.3227L60.4735 44.3227L60.4735 61.8078M10.4335 59.7746L58.4476 59.7746L58.4476 46.2541L10.4335 46.2541L5.26739 52.9635L10.4335 59.7746"/>
</svg>
