<?xml version="1.0" encoding="utf-8" ?>
<svg xmlns="http://www.w3.org/2000/svg" xmlns:xlink="http://www.w3.org/1999/xlink" width="88" height="88">
	<path fill="white" d="M44 88C19.7696 88 0 68.2304 0 44C0 19.7696 19.7696 0 44 0C68.2304 0 88 19.7696 88 44C88 68.3318 68.2304 88 44 88"/>
	<path fill="#358E8E" d="M43.8987 85.1615C21.4932 85.1615 2.9402 66.6085 2.9402 44.2029C2.9402 21.7974 21.4932 3.2444 43.8987 3.2444C66.3043 3.2444 84.8573 21.7974 84.8573 44.2029C84.8573 66.6085 66.3043 85.1615 43.8987 85.1615"/>
	<path fill="#2D1B0A" d="M43.8986 86.1751C20.7833 86.1751 1.9262 67.318 1.9262 44.2028C1.9262 21.0875 20.7833 2.2304 43.8986 2.2304C67.0138 2.2304 85.8709 21.0875 85.8709 44.2028C85.8709 67.318 67.0138 86.1751 43.8986 86.1751M43.8986 4.25805C21.8986 4.25805 3.95385 22.2028 3.95385 44.2028C3.95385 66.2028 21.8986 84.1475 43.8986 84.1475C65.8986 84.1475 83.8433 66.2028 83.8433 44.2028C83.8433 22.2028 65.8986 4.25805 43.8986 4.25805"/>
	<path fill="white" d="M12.2673 43.4932C12.2673 30.8203 29.1982 27.5761 34.8755 39.3365C41.8709 27.7789 57.4838 31.1245 57.4838 43.4932C57.4838 55.8619 36.3962 71.2725 34.8755 71.2725C33.7603 71.3734 12.2673 55.9632 12.2673 43.4932"/>
	<path fill="white" d="M34.7749 71.7788C33.8625 71.7788 29.1987 68.2305 26.2585 65.6959C20.7837 60.9309 11.659 51.8065 11.659 43.3917C11.659 37.6129 15.2075 33.0507 20.7837 31.7328C25.4474 30.6175 31.5306 32.2397 34.7749 38.2212C38.8303 32.2397 45.0149 30.8203 49.5772 32.0369C54.6465 33.4563 57.7909 37.8157 57.7909 43.3917C57.9922 56.0646 36.8026 71.7788 34.7749 71.7788C34.8763 71.7788 34.7749 71.7788 34.7749 71.7788M23.6225 32.5438C22.71 32.5438 21.8989 32.6452 21.0879 32.848C16.0186 33.9632 12.7742 38.2212 12.7742 43.4931C12.7742 55.3549 32.8486 70.1567 34.8763 70.765C37.0054 70.1567 56.9784 55.2535 56.9784 43.4931C56.9784 38.424 54.1396 34.3687 49.4758 33.1521C45.1163 31.9355 39.0331 33.4563 35.2818 39.6406C32.0375 34.5715 27.6779 32.5438 23.6225 32.5438"/>
	<path fill="#FDB933" d="M26.3594 51.6048C26.3594 47.447 30.212 43.8986 35.1797 43.8986C40.046 43.8986 44 47.447 44 51.6048C44 55.7604 40.1474 59.3109 35.1797 59.3109C30.212 59.4101 26.3594 55.9631 26.3594 51.6048"/>
	<path fill="#FDB933" d="M35.1797 60.424C29.705 60.424 25.3456 56.5715 25.3456 51.7051C25.3456 46.8387 29.705 42.9862 35.1797 42.9862C40.6544 42.9862 45.0138 46.9401 45.0138 51.7051C44.9124 56.4701 40.553 60.424 35.1797 60.424M35.1797 44.9125C30.9216 44.9125 27.3733 47.9539 27.3733 51.6037C27.3733 55.3549 30.8202 58.295 35.1797 58.295C39.4378 58.295 42.9862 55.2535 42.9862 51.6037C42.8848 47.9539 39.4378 44.9125 35.1797 44.9125"/>
	<path fill="#D8B26F" d="M73.6038 41.8709L69.7513 36.1936C69.7513 36.1936 76.1384 33.3548 74.3135 29.1981C72.4886 25.0415 65.4931 21.7972 57.6867 28.894C49.9816 35.8894 56.3687 42.9861 56.3687 42.9861L64.0739 39.1337L68.2305 45.8249L73.6038 41.8709"/>
	<path fill="#514334" d="M69.3456 30.3134C64.7834 31.4286 61.6405 33.2535 58.8018 36.1936C57.788 37.3088 56.9769 38.8296 56.6728 39.9448L55.9631 42.5807C54.9493 41.1614 54.1382 39.3364 53.7931 38.2213C53.5299 34.4701 54.8479 29.7051 60.2211 26.4609C65.5944 23.5208 69.7511 23.2166 73.2995 26.765C73.6036 27.0692 74.6175 28.894 74.6175 29.7051L72.4884 29.7051C71.576 30.0092 70.3594 30.3134 69.3456 30.3134"/>
</svg>
