<?xml version="1.0" encoding="utf-8" ?>
<svg xmlns="http://www.w3.org/2000/svg" xmlns:xlink="http://www.w3.org/1999/xlink" width="84" height="94">
	<path fill="white" d="M80.6763 16.6645C80.1727 15.0679 75.3381 1.49682 61.1367 1.09766C60.9353 1.09766 60.7338 1.09766 60.5324 1.09766C57.1079 1.09766 45.5252 1.99575 42.8058 14.1699C42.6043 14.7686 42.2014 16.6645 42 19.9575C41.8993 15.8662 41.3957 13.7707 41.1942 13.0722C38.4748 0.898089 26.8921 0 23.4676 0C23.2662 0 22.964 0 22.8633 0C8.66187 0.399151 3.82734 14.0701 3.32374 15.5669C3.02158 16.5648 0 25.0467 0 32.5308C0 38.7176 2.21583 48.2972 3.72662 54.6837C4.33094 57.2781 4.83453 59.4735 4.93525 60.3715C5.43885 64.6624 7.35252 78.7325 8.66187 81.7261C8.86331 82.1253 12.2878 89.0106 17.7266 91.5053C19.741 92.4034 22.259 92.9023 24.777 92.9023C32.8345 92.9023 41.5971 88.3121 42 75.4395C41.8993 74.6412 37.9712 52.9873 39.5827 42.9087C41.0935 35.2251 41.7986 29.3376 41.8993 24.8471C42 29.4374 42.6043 35.724 44.3165 43.9066C45.9281 54.0849 42.1007 75.7389 42.1007 75.9384C42.4029 89.4098 51.1655 94 59.223 94C61.8417 94 64.3597 93.5011 66.3741 92.603C71.8129 90.1083 75.2374 83.2229 75.3381 82.9236C76.6475 79.9299 78.5612 65.7601 79.0647 61.569C79.1655 60.6709 79.6691 58.3758 80.2734 55.7813C81.7842 49.3949 84 39.8153 84 33.6285C84 26.0446 80.9784 17.5626 80.6763 16.6645"/>
	<path fill="#5DDEE2" d="M77.8562 18.0616C77.8562 18.0616 73.928 4.88961 61.1367 4.48095C58.1152 4.48095 48.0432 4.88961 45.7266 15.2675C45.7266 15.2675 43.2086 22.9511 47.3381 43.8069C49.0504 54.5839 45.1223 76.8365 45.1223 76.8365C45.5252 92.104 59.6259 92.7028 65.1655 90.3078C69.6978 88.2123 72.7195 82.1253 72.7195 82.1253C73.928 79.3313 76.1439 61.569 76.1439 61.569C76.6474 57.9767 81.0791 42.5095 81.0791 34.0276C80.9785 26.7431 77.8562 18.0616 77.8562 18.0616"/>
	<path fill="#2D1B0A" d="M59.223 92.5032C56.3022 92.5032 53.2806 91.8046 50.6619 90.208C47.741 88.4119 44.2158 84.6199 44.0144 77.0361C44.0144 76.6369 47.9425 54.6836 46.2302 44.1061C42.2015 23.949 44.4173 15.966 44.6187 15.1677C47.1367 4.09126 57.813 3.5838 61.036 3.5838C74.1295 3.99148 78.4605 17.0637 78.7626 17.862C78.9641 18.4607 81.9856 26.9426 81.9856 34.2271C81.9856 40.2144 79.7698 49.6942 78.259 55.8811C77.6547 58.6751 77.1511 60.7707 76.9497 61.8683C76.7482 63.6645 74.6331 79.8301 73.4245 82.6242C73.3238 82.9235 70.2015 89.2102 65.3669 91.4055C63.7554 92.0042 61.5396 92.5032 59.223 92.5032M46.0288 77.0361C46.2302 82.4246 48.1439 86.3163 51.6691 88.5116C55.7986 91.1061 61.4389 90.9066 64.5612 89.5095C68.6907 87.6136 71.5108 81.8259 71.6115 81.7261C72.518 79.6305 74.331 66.4586 75.036 61.4692C75.1367 60.3715 75.741 58.0764 76.3453 55.2823C77.7554 49.0955 79.9712 39.8153 79.9712 34.0276C79.9712 26.9426 76.8489 18.4607 76.8489 18.3609C76.6475 17.7622 73.0216 5.78765 61.036 5.3885C58.2158 5.28872 48.8489 5.78765 46.7338 15.4671C46.7338 15.6666 44.3166 23.3503 48.3453 43.6072C49.9569 54.3843 46.331 75.1401 46.0288 77.0361"/>
	<path fill="#5DDEE2" d="M51.8705 87.2144C58.3165 91.206 65.4677 87.6136 65.4677 87.6136C69.8994 85.5181 71.6115 79.5308 71.6115 79.5308L46.6018 75.4395C46.1295 83.9214 51.8705 87.2144 51.8705 87.2144"/>
	<path fill="#5DDEE2" d="M47.9425 66.1592L73.2231 70.6497L74.4317 59.8726L49.1511 55.8811"/>
	<path fill="#5DDEE2" d="M79.3763 33.4289L46.8345 29.9364C47.1367 34.7262 48.7482 43.8069 48.7482 43.8069L76.8489 47.0999C79.669 39.6158 79.3763 33.4289 79.3763 33.4289"/>
	<path fill="#5DDEE2" d="M72.6187 13.172C71.7122 11.8747 68.3885 7.78345 61.9425 6.78557C61.9425 6.78557 53.3813 5.58812 49.7554 11.1762C49.7554 11.1762 47.5396 14.8684 47.1367 17.5626L76.4461 20.2569C76.3453 20.1571 73.7266 14.4692 72.6187 13.172"/>
	<path fill="#23A5AF" d="M46.7339 75.4394L71.7122 79.5307C72.7195 77.0361 73.3238 70.6496 73.3238 70.6496L47.9425 66.1592L46.7339 75.4394"/>
	<path fill="#23A5AF" d="M49.0504 56.1803L74.3311 60.2716C74.4317 58.4754 76.9498 46.9998 76.9498 46.9998L48.5469 43.7068C49.1512 45.9022 48.849 56.1803 49.0504 56.1803"/>
	<path fill="#23A5AF" d="M79.4676 33.4287C79.3669 26.1443 76.8489 19.6581 76.8489 19.6581L46.8345 17.3629C45.7266 21.2547 46.7338 29.8364 46.7338 29.8364L79.4676 33.4287"/>
	<path fill="#EFC859" d="M75.4643 55.3821C77.5795 52.5881 75.9679 48.9958 74.9608 46.6009C73.7521 44.2059 70.227 39.7155 68.3132 36.9214C66.3996 33.8279 64.2845 29.5372 62.7737 28.8386C61.565 28.3396 59.9536 31.6327 58.4427 34.5266C56.7305 37.3205 53.7089 41.1124 50.2845 45.7028C47.0821 50.1932 52.3996 56.879 52.3996 56.879C52.3996 56.879 57.1334 65.1613 54.5147 66.5583C51.896 68.2548 48.9751 61.0701 48.9751 61.0701C45.8528 52.0891 47.2629 45.2038 48.4715 41.6115C49.6801 38.0191 50.1837 38.8174 54.7161 31.4331C59.2485 24.3482 61.1622 23.1507 61.1622 23.1507L61.1622 19.5583C61.1622 19.5583 61.3635 17.1635 62.5723 17.1635C63.7808 17.1635 63.7808 19.5583 63.7808 19.5583L63.7808 23.1507C64.6873 24.0488 68.1118 27.8408 73.3493 35.0255C78.5867 42.1104 78.8887 48.0976 78.5867 52.9873C78.3851 58.1761 73.8529 64.862 73.8529 64.862C73.8529 64.862 69.1189 70.5499 67.4068 69.1528C65.6945 67.9554 68.8168 62.966 68.8168 62.966C69.7234 61.7685 73.1478 58.2759 75.4643 55.3821"/>
	<path fill="#2D1B0A" d="M67.9927 70.3503C67.4894 70.3503 67.0868 70.2506 66.6841 69.9512C64.4696 68.3546 66.9861 63.8641 67.892 62.4671C68.3953 61.8684 69.2006 60.8705 70.3078 59.7728C71.6164 58.276 73.3276 56.4798 74.6361 54.8832C76.3473 52.5881 75.0388 49.5945 74.1328 47.2994C73.3276 45.603 71.4151 43.0085 69.7039 40.7134C68.8986 39.6157 68.0933 38.5181 67.4894 37.62C66.9861 36.8217 66.4828 35.9236 65.9795 35.1253C64.8723 33.2293 63.3624 30.6348 62.4565 30.0361C61.7519 30.5351 60.4433 33.0297 59.638 34.6263C58.0275 37.4204 56.0143 40.0149 53.6992 43.0085C52.8939 44.1062 51.988 45.3036 51.0821 46.5011C48.465 50.293 53.0952 56.3801 53.1959 56.4798C53.9005 57.6773 57.0209 63.2654 56.2157 66.1593C56.0143 66.8578 55.6117 67.3567 55.0078 67.6561C54.4038 68.0552 53.6992 68.155 52.8939 67.9554C50.3775 67.1571 48.3643 62.5669 48.0623 61.6688C45.0426 52.8875 46.1069 45.8026 47.559 41.5117C48.2636 39.3164 48.7669 38.6179 49.8742 37.121C50.6794 35.9236 51.8873 34.327 53.7999 31.1338C57.2222 25.7452 59.2354 23.6497 60.1413 22.8514L60.1413 19.758C60.242 18.1614 60.9466 16.3652 62.5571 16.3652C64.1677 16.3652 64.7716 18.1614 64.7716 19.758L64.7716 22.9512C66.1808 24.448 69.5026 28.2399 74.1328 34.6263C79.4677 41.8111 79.8704 48.0977 79.5684 53.1869C79.3671 58.5754 74.8374 65.2612 74.6361 65.5605C73.2269 67.0573 70.3078 70.3503 67.9927 70.3503M62.4565 27.741C62.6578 27.741 62.8747 27.741 63.1611 27.8408C64.5703 28.4395 65.7782 30.5351 67.6907 33.9278C68.194 34.7261 68.6973 35.6242 69.0999 36.3227C69.7039 37.2208 70.5091 38.2187 71.3144 39.3164C73.1263 41.8111 74.9381 44.3058 75.844 46.0021C77.0519 48.7962 78.6625 52.6879 76.2467 55.8811C74.9381 57.5775 73.2269 59.3737 71.8177 60.8705C70.8111 61.9682 69.9052 62.966 69.6032 63.3652C68.194 65.5605 67.59 67.8556 67.9927 68.155C68.5966 68.3546 71.0124 66.5584 73.1263 64.0637C73.1263 64.0637 77.4546 57.5775 77.6559 52.7877C77.9579 47.6985 77.5552 42.2102 72.623 35.4246C67.4894 28.4395 64.067 24.5478 63.1611 23.6497L62.8747 19.3588C62.8747 18.8599 62.7584 18.2612 62.6578 18.0616C62.5571 18.2612 62.3558 18.9597 62.2552 19.4586L62.2552 23.5499C61.7519 23.8493 59.8394 25.1465 55.6117 31.8323C53.5985 35.0255 52.3906 36.8217 51.5854 37.9193C50.5788 39.4162 50.1761 39.9151 49.4715 41.8111C48.163 45.8026 47.0557 52.3886 49.9748 60.6709C50.6794 62.4671 52.3906 65.361 53.4979 65.7601C53.6992 65.8599 53.7999 65.7601 54.0012 65.6603C54.1018 65.5605 54.2025 65.5605 54.3031 65.361C54.8064 63.7644 52.8939 59.6731 51.5854 57.3779C50.9814 56.5796 46.1069 49.8939 49.4715 45.1041C50.3775 43.8068 51.2834 42.7091 52.1893 41.5117C54.5045 38.5181 56.417 35.9236 57.6249 33.9278C59.4367 30.4353 60.8459 27.741 62.4565 27.741"/>
	<path fill="#5DDEE2" d="M6.05727 17.0346C6.05727 17.0346 9.98533 3.86271 22.7766 3.45405C25.7983 3.45405 35.8703 3.86271 38.1868 14.2407C38.1868 14.2407 40.7048 21.9242 36.5753 42.78C34.8631 53.557 38.791 75.8096 38.791 75.8096C38.3883 91.0771 24.2874 91.6758 18.7479 89.2809C14.2155 87.1854 11.194 81.0984 11.194 81.0984C9.98533 78.3044 7.7695 60.5422 7.7695 60.5422C7.2659 56.9498 2.83425 41.4827 2.83425 33.0007C2.93497 25.7162 6.05727 17.0346 6.05727 17.0346"/>
	<path fill="#2D1B0A" d="M24.6763 91.4055C22.3598 91.4055 20.1439 91.0063 18.4317 90.208C13.5972 88.0127 10.5756 81.7261 10.3741 81.5265C9.16552 78.6327 7.05041 62.5668 6.84897 60.6709C6.74825 59.5732 6.24465 57.4777 5.53962 54.6836C4.02883 48.397 1.813 39.0169 1.813 33.0297C1.813 25.7452 4.83458 17.2632 5.03602 16.6645C5.33818 15.8662 9.66912 2.79401 22.7626 2.3855C25.9857 2.3855 36.6619 2.79401 39.1799 13.9702C39.3813 14.7685 41.5972 22.7516 37.5684 42.9087C35.8562 53.3864 39.7842 75.3397 39.8849 75.5392C39.6835 83.4225 36.1583 87.1146 33.2375 88.9108C30.6188 90.707 27.4965 91.4055 24.6763 91.4055M23.367 4.39062C23.1655 4.39062 22.9641 4.39062 22.8634 4.39062C10.8777 4.78977 7.05041 17.0637 7.05041 17.2632C7.05041 17.4628 3.92811 25.9448 3.92811 33.0297C3.92811 38.8174 6.14394 48.0976 7.55401 54.2845C8.25904 57.0785 8.76264 59.2738 8.86336 60.4713C9.46768 65.3609 11.3813 78.5329 12.2878 80.7282C12.2878 80.7282 15.108 86.5159 19.3382 88.4118C22.5612 89.8089 28.2015 90.0085 32.2303 87.414C35.8562 85.2186 37.7698 81.3269 37.8706 75.9384C37.5684 74.0424 33.9425 53.2866 35.6547 42.7091C39.6835 22.4522 37.367 14.7685 37.2662 14.6687C35.1511 5.28871 26.6907 4.39062 23.367 4.39062"/>
	<path fill="#5DDEE2" d="M32.0289 86.0169C25.5828 90.1082 18.2302 86.4161 18.2302 86.4161C13.7986 84.3205 11.9857 78.2335 11.9857 78.2335L37.1656 74.1422C37.7699 82.7239 32.0289 86.0169 32.0289 86.0169"/>
	<path fill="#5DDEE2" d="M35.856 64.7621L10.3741 69.3524L9.16545 58.4755L34.7481 54.3842"/>
	<path fill="#5DDEE2" d="M4.2207 31.7325L37.0646 28.1402C36.7625 33.0298 35.151 42.2103 35.151 42.2103L6.7481 45.603C3.92795 37.9193 4.2207 31.7325 4.2207 31.7325"/>
	<path fill="#5DDEE2" d="M11.0792 11.1762C11.9856 9.87898 15.4101 5.6879 21.8561 4.69002C21.8561 4.69002 30.518 3.49257 34.1439 9.08068C34.1439 9.08068 36.3597 12.7728 36.7626 15.5669L7.1511 18.361C7.1511 18.2612 9.87052 12.4735 11.0792 11.1762"/>
	<path fill="#23A5AF" d="M37.1654 74.3418L12.187 78.433C11.1798 75.9384 10.5755 69.5519 10.5755 69.5519L35.9567 65.0615L37.1654 74.3418"/>
	<path fill="#23A5AF" d="M34.2447 55.3821L8.96406 59.4734C8.86334 57.6772 6.34535 46.2016 6.34535 46.2016L34.7483 42.9086C34.144 45.104 34.4461 55.3821 34.2447 55.3821"/>
	<path fill="#23A5AF" d="M4.3309 32.1315C4.3309 24.8471 7.05032 18.5604 7.05032 18.5604L37.0647 16.1656C38.1726 20.0573 37.0647 28.7388 37.0647 28.7388L4.3309 32.1315"/>
	<path fill="#EFC859" d="M8.46049 54.2738C6.34538 51.4798 7.95689 47.8875 8.96409 45.4926C10.1727 43.0976 13.6979 38.6072 15.6116 35.8131C17.5252 32.7197 19.6403 28.4289 21.1511 27.7304C22.3598 27.2313 23.9713 30.5244 25.4821 33.4183C27.1943 36.2122 30.2159 40.0042 33.6403 44.5945C36.7626 49.0849 31.5252 55.7707 31.5252 55.7707C31.5252 55.7707 26.7914 64.053 29.4101 65.4501C32.0288 67.1465 34.9497 59.9618 34.9497 59.9618C38.072 50.9809 36.6619 44.0955 35.4533 40.5032C34.2447 36.9108 33.7411 37.7091 29.2087 30.3248C24.6763 23.2399 22.7626 22.0424 22.7626 22.0424L22.7626 18.4501C22.7626 18.4501 22.5612 16.0552 21.3526 16.0552C20.1439 16.0552 20.1439 18.4501 20.1439 18.4501L20.1439 22.0424C19.2375 22.9405 15.813 26.7325 10.5756 33.9172C5.2573 41.0021 5.03603 46.9893 5.2573 51.879C5.53963 57.0678 10.072 63.7537 10.072 63.7537C10.072 63.7537 14.8058 69.4416 16.518 68.0445C18.2303 66.8471 15.108 61.8577 15.108 61.8577C14.2015 60.6602 10.777 57.1676 8.46049 54.2738"/>
	<path fill="#2D1B0A" d="M15.8912 69.2525C13.6754 69.2525 10.6538 65.9595 9.34447 64.3629C9.14303 63.9638 4.61066 57.278 4.3351 51.8895C4.10706 46.8003 4.50994 40.5137 9.84806 33.3289C14.4812 26.9425 17.8049 23.0508 19.215 21.6538L19.215 18.4606C19.215 16.864 19.8193 15.0678 21.4308 15.0678C23.0423 15.0678 23.7473 16.864 23.8481 18.3608L23.8481 21.554C24.6538 22.2525 26.6682 24.348 30.0927 29.7366C32.1071 32.9298 33.215 34.5264 34.1214 35.7239C35.2294 37.2207 35.733 37.9192 36.438 40.1145C37.8556 44.4054 38.956 51.3905 35.9344 60.1718C35.5315 61.1697 33.6178 65.6602 31.0999 66.4585C30.2941 66.658 29.5891 66.5582 28.884 66.1591C28.3804 65.8597 27.9776 65.3608 27.7761 64.6623C26.9704 61.8682 29.9919 56.1803 30.697 55.0827C30.7977 54.8831 35.5315 48.796 32.9128 45.0041C32.0063 43.8067 31.0999 42.6092 30.2941 41.5115C27.9776 38.5179 25.9632 35.8236 24.7545 33.7281C23.6466 31.5328 22.3373 28.9383 21.5315 28.5391C20.7258 29.1379 19.215 31.7323 18.0063 33.6283C17.5027 34.5264 16.9991 35.3247 16.4955 36.123C15.8912 37.0211 15.0855 38.1188 14.2797 39.3162C12.5675 41.6113 10.7545 44.2058 9.94878 45.8024C8.94159 48.1973 7.63224 51.1909 9.34447 53.4861C10.6538 55.0827 12.2653 56.9786 13.6754 58.3757C14.7833 59.5731 15.5891 60.4712 15.9919 61.0699C16.8984 62.467 19.5171 67.0572 17.2006 68.6538C16.697 69.1527 16.2941 69.2525 15.8912 69.2525M21.3301 17.1633C21.2294 17.4627 21.0954 17.9616 21.0954 18.4606L21.0954 22.4521C19.92 23.6495 16.4955 27.4415 11.3589 34.5264C6.4236 41.2122 6.02073 46.8003 6.32288 51.8895C6.52432 56.7791 10.8553 63.1655 10.8553 63.2653C12.8696 65.7599 15.2869 67.4563 15.8912 67.3565C16.2941 67.0572 15.6898 64.7621 14.2797 62.467C13.9776 62.0678 13.0711 61.0699 12.0639 59.9723C10.6538 58.4754 9.04231 56.5795 7.63224 54.9829C5.21497 51.7897 6.82648 47.9977 7.9344 45.4033C8.94159 43.4075 10.7545 40.9128 12.5675 38.4181C13.3732 37.3205 14.179 36.2228 14.7833 35.3247C15.1862 34.6262 15.6898 33.7281 16.1934 32.9298C18.1071 29.6368 19.4164 27.5413 20.7258 26.9425C22.7402 26.1442 24.2509 29.0381 26.0639 32.5306C27.5747 35.0253 29.4884 37.6198 31.8049 40.6134C32.6107 41.7111 33.5171 42.9086 34.4236 44.106C37.8556 48.9956 32.9128 55.6814 32.3085 56.3799C30.9991 58.675 29.1862 62.7663 29.5891 64.3629C29.6898 64.5625 29.7905 64.6623 29.7905 64.6623C29.9919 64.7621 30.1934 64.8619 30.2941 64.7621C31.5027 64.3629 33.1143 61.5689 33.92 59.6729C36.7402 51.4903 35.733 44.9043 34.4236 40.9128C33.8193 39.0168 33.4164 38.5179 32.3085 37.0211C31.5027 35.9234 30.1934 34.1272 28.2797 30.934C24.0495 24.348 22.1358 22.951 22.1358 22.951L21.733 18.5604C21.6322 17.9616 21.5315 17.3629 21.3301 17.1633"/>
</svg>
