<?xml version="1.0" encoding="utf-8" ?>
<svg xmlns="http://www.w3.org/2000/svg" xmlns:xlink="http://www.w3.org/1999/xlink" width="98" height="102">
	<path fill="white" d="M4.04541 102C3.03406 102 2.0227 101.495 1.41589 100.687C0.404541 99.5762 0 98.5663 0 97.6574L0 38.2752C0 37.9723 0 37.6693 0 37.3663C0.20227 36.0535 0.707946 35.3465 1.31476 34.8416L13.2487 25.2475L13.2487 8.07921C13.2487 3.63564 16.8896 0 21.2384 0L47.129 0C47.8369 0 48.3426 0 48.7472 0C49.1517 0 49.6574 0 50.1631 0L76.3571 0C80.807 0 84.3467 3.73663 84.3467 8.07921L84.3467 25.2475L96.2807 34.8416C96.3818 34.9426 96.483 35.0436 96.5841 35.1446C97.4943 35.9525 98 36.9624 98 37.9723L98 98.1624C98 99.4752 97.2921 100.687 96.0784 101.192C95.1682 101.798 94.4603 102 93.8535 102L4.04541 102"/>
	<path fill="#7FCCD1" d="M43.4523 4.63294C46.284 2.41115 50.9363 2.41115 53.667 4.63294L71.7701 19.1755L94.121 37.1517C94.4244 37.3537 94.2711 37.8587 93.9187 37.8587L48.5315 37.8587L3.09935 37.8587C2.79185 37.8587 2.79185 37.3537 2.89708 37.1517L25.248 19.1755L43.4523 4.63294"/>
	<path fill="#2D1B0A" d="M93.8521 38.8812L3.09138 38.8812C2.48428 38.8812 2.07955 38.4773 1.7978 37.9723C1.67482 37.3664 1.7978 36.7604 2.28192 36.3565L42.7549 3.83766C45.8916 1.31291 51.1531 1.31291 54.2897 3.83766L94.7627 36.3565C95.2652 36.7604 95.3698 37.3664 95.1675 37.9723C94.9651 38.4773 94.4592 38.8812 93.8521 38.8812M4.91266 36.8614L92.132 36.8614L53.0755 5.45351C50.6472 3.53469 46.4987 3.53469 44.0703 5.45351L4.91266 36.8614"/>
	<path fill="#FCFCFC" d="M76.0547 88.6693L21.0371 88.6693C18.3065 88.6693 16.0815 86.4475 16.0815 83.7208L16.0815 8.07921C16.0815 5.35248 18.3065 3.1307 21.0371 3.1307L76.0547 3.1307C78.7853 3.1307 81.0135 5.35248 81.0135 8.07921L81.0135 83.7208C81.1114 86.4475 78.7853 88.6693 76.0547 88.6693"/>
	<path fill="#2D1B0A" d="M76.056 89.6792L21.0363 89.6792C17.6987 89.6792 15.0691 86.9525 15.0691 83.7208L15.0691 8.07922C15.0691 4.74654 17.7999 2.1208 21.0363 2.1208L76.056 2.1208C79.3936 2.1208 82.0259 4.84753 82.0259 8.07922L82.0259 83.7208C82.1243 86.9525 79.3936 89.6792 76.056 89.6792M21.0363 4.03961C18.8113 4.03961 17.0919 5.85743 17.0919 7.97823L17.0919 83.6198C17.0919 85.8416 18.9124 87.5584 21.0363 87.5584L76.056 87.5584C78.281 87.5584 80.0004 85.7406 80.0004 83.6198L80.0004 7.97823C80.0004 5.75644 78.1799 4.03961 76.056 4.03961L21.0363 4.03961"/>
	<path fill="#7FCCD1" d="M47.9382 67.3785C48.3427 67.6815 48.3427 68.2876 47.9382 68.4894L25.6884 83.4361L3.6409 98.1805C3.23636 98.4836 2.62955 98.1805 2.62955 97.5746L2.62955 67.9413L2.62955 38.2934C2.62955 37.7885 3.23636 37.3845 3.6409 37.6875L25.6884 52.432L47.9382 67.3785"/>
	<path fill="#2D1B0A" d="M3.3376 99.3057C3.03419 99.3057 2.83192 99.2047 2.52852 99.1038C2.02284 98.8008 1.6183 98.1948 1.6183 97.5889L1.6183 38.3077C1.6183 37.7018 1.92171 37.0958 2.52852 36.7929C3.03419 36.5769 3.74214 36.5769 4.24781 36.8939L48.545 66.5849C49.0507 66.8879 49.253 67.3929 49.253 67.9413C49.253 68.6047 48.9496 69.1097 48.545 69.4127L4.24781 99.1038C3.94441 99.2047 3.641 99.3057 3.3376 99.3057M3.641 38.9137L3.641 96.983L47.028 67.9413L3.641 38.9137"/>
	<path fill="#7FCCD1" d="M49.0632 67.6591C48.8356 67.8611 48.8356 68.1641 49.0632 68.3661L71.6163 83.5146L94.0683 98.5621C94.3717 98.7641 94.7763 98.5621 94.7763 98.1582L94.7763 68.07L94.7763 37.9681C94.7763 37.6651 94.3717 37.3621 94.0683 37.4987L71.6163 52.6116L49.0632 67.6591"/>
	<path fill="#2D1B0A" d="M94.258 99.5762C93.9545 99.5762 93.6511 99.4753 93.4489 99.3744L48.4437 69.3009C48.0392 68.9982 47.8369 68.5945 47.8369 68.0701C47.8369 67.5853 48.0392 67.1817 48.4437 66.8789L93.4489 36.8055C93.8534 36.5639 94.4602 36.5639 94.9659 36.7046C95.4716 36.9064 95.775 37.411 95.775 38.0165L95.775 98.1634C95.775 98.668 95.4716 99.1725 94.9659 99.4753C94.6625 99.4753 94.4602 99.5762 94.258 99.5762M50.2641 67.989L93.6511 97.0533L93.6511 39.0257L50.2641 67.989"/>
	<path fill="#7FCCD1" d="M48.4027 60.0006C48.5038 60.0006 48.6779 60.0006 48.8072 60.0006L71.6638 79.4791L93.8124 98.2506C94.1158 98.4527 93.9624 98.9576 93.6101 98.9576L48.6779 98.9576L3.7009 98.9576C3.3934 98.9576 3.3934 98.4527 3.49863 98.2506L25.6472 79.4791L48.4027 60.0006"/>
	<path fill="#2D1B0A" d="M93.6499 99.9802L3.7058 99.9802C3.19993 99.9802 2.69406 99.6772 2.394 99.0713C2.28936 98.4653 2.394 97.8594 2.89641 97.4554L47.8179 59.2812C48.3238 58.8772 49.032 58.8772 49.5379 59.2812L94.4593 97.4554C94.9618 97.8594 95.0664 98.4653 94.864 99.0713C94.6617 99.5762 94.1558 99.9802 93.6499 99.9802M5.42577 97.9604L91.93 97.9604L48.6779 61.301L5.42577 97.9604"/>
	<path fill="#E2E2E2" d="M70.2889 24.3386L25.4861 24.3386C24.8792 24.3386 24.4747 23.9346 24.4747 23.3287C24.4747 22.7228 24.8792 22.3188 25.4861 22.3188L70.2889 22.3188C70.8958 22.3188 71.3003 22.7228 71.3003 23.3287C71.3003 23.9346 70.7946 24.3386 70.2889 24.3386"/>
	<path fill="#E2E2E2" d="M70.2889 34.4376L25.4861 34.4376C24.8792 34.4376 24.4747 34.0336 24.4747 33.4277C24.4747 32.8218 24.8792 32.4178 25.4861 32.4178L70.2889 32.4178C70.8958 32.4178 71.3003 32.8218 71.3003 33.4277C71.3003 34.0336 70.7946 34.4376 70.2889 34.4376"/>
	<path fill="#E2E2E2" d="M47.7359 44.6376L26.1941 44.6376C25.5873 44.6376 25.1828 44.2336 25.1828 43.6277C25.1828 43.0218 25.5873 42.6178 26.1941 42.6178L47.7359 42.6178C48.3428 42.6178 48.7473 43.0218 48.7473 43.6277C48.7473 44.2336 48.3428 44.6376 47.7359 44.6376"/>
</svg>
