<?xml version="1.0" encoding="utf-8" ?>
<svg xmlns="http://www.w3.org/2000/svg" xmlns:xlink="http://www.w3.org/1999/xlink" width="78" height="76">
	<path fill="white" d="M64.6684 76L60.8878 71.9215L17.0128 71.9215L13.2321 76L0 76L12.1378 63.6649C10.148 62.1728 8.85459 59.8848 8.85459 57.199L8.85459 11.8377C8.85459 7.46073 12.4362 3.87958 16.8138 3.87958L19.5995 3.87958C19.7985 2.88482 20.2959 1.98953 20.8929 1.39267C21.6888 0.497382 22.6837 0 23.8776 0L53.625 0C55.9133 0 57.8036 1.49215 58.699 3.87958L61.3852 3.87958C65.7628 3.87958 69.3444 7.46073 69.3444 11.8377L69.3444 57.2984C69.3444 59.9843 68.051 62.3717 65.9617 63.7644L78 76L64.6684 76"/>
	<path fill="#BCBCBC" d="M65.912 72.9163L70.6875 72.9163L59.3456 61.377L54.8686 61.377L58.1518 64.8587L19.9477 64.8587L22.9324 61.377L18.4553 61.377L7.1135 72.9163L11.889 72.9163L15.6696 68.8377L62.1314 68.8377"/>
	<path fill="#2D1B0A" d="M73.0255 73.911L65.4643 73.911L61.6837 69.8325L16.1173 69.8325L12.3367 73.911L4.7755 73.911L18.1071 60.3822L25.2704 60.3822L21.9872 63.8639L55.9133 63.8639L52.6301 60.3822L59.7934 60.3822L73.0255 73.911M66.2602 71.9215L68.25 71.9215L58.8979 62.3717L57.1071 62.3717L60.3903 65.8534L17.3112 65.8534L20.5944 62.3717L18.8036 62.3717L9.45152 71.9215L11.4413 71.9215L15.2219 67.8429L62.5791 67.8429L66.2602 71.9215"/>
	<path fill="#ED462F" d="M61.2359 62.0734L16.764 62.0734C13.9783 62.0734 11.7895 59.8848 11.7895 57.0996L11.7895 11.6388C11.7895 8.85343 13.9783 6.66495 16.764 6.66495L61.2359 6.66495C64.0216 6.66495 66.2104 8.85343 66.2104 11.6388L66.2104 57.0996C66.2104 59.8848 63.9222 62.0734 61.2359 62.0734"/>
	<path fill="#2D1B0A" d="M61.2358 63.068L16.7639 63.068C13.4807 63.068 10.7945 60.3821 10.7945 57.0994L10.7945 11.6387C10.7945 8.35596 13.4807 5.6701 16.7639 5.6701L61.2358 5.6701C64.519 5.6701 67.2052 8.35596 67.2052 11.6387L67.2052 57.0994C67.2052 60.4816 64.519 63.068 61.2358 63.068M16.7639 7.75911C14.5751 7.75911 12.7843 9.54968 12.7843 11.7382L12.7843 57.1989C12.7843 59.3874 14.5751 61.178 16.7639 61.178L61.2358 61.178C63.4246 61.178 65.2154 59.3874 65.2154 57.1989L65.2154 11.7382C65.2154 9.54968 63.4246 7.75911 61.2358 7.75911L16.7639 7.75911"/>
	<path fill="#CECECE" d="M23.6642 2.88481L53.4116 2.88481C55.103 2.88481 55.9984 4.97382 55.9984 6.86387L22.2075 6.86387C21.9729 4.47643 22.7688 2.88481 23.6642 2.88481"/>
	<path fill="#2D1B0A" d="M57.0075 7.85864L21.3573 7.85864C21.0586 5.17277 21.3573 3.48167 22.154 2.58639C22.5523 2.089 23.0502 1.89005 23.6477 1.89005L53.4226 1.89005C55.713 1.89005 57.0075 4.47644 57.0075 6.86387M23.2494 5.86911L55.0159 5.86911C54.8167 4.77487 54.2192 3.87958 53.5222 3.87958L23.8469 3.87958C23.5481 3.97906 23.2494 4.67539 23.2494 5.86911"/>
	<path fill="white" d="M17.5103 24.4712L29.5486 24.4712C29.5486 24.4712 32.3343 20.6911 37.6072 19.9948L37.6072 10.0471L23.6787 10.0471C23.3802 10.3456 17.5103 12.2356 17.5103 24.4712"/>
	<path fill="#2D1B0A" d="M30.046 25.466L16.5154 25.466C16.5154 19.1989 17.6098 12.2356 22.9822 9.3508L38.6021 9.15185L38.6021 20.9895C32.9312 21.6859 30.3445 25.1675 30.3445 25.1675M18.5052 23.4764L29.0511 23.4764C29.9465 22.4816 32.4338 19.9948 36.6123 19.1989L36.6123 11.0419L23.9771 11.0419C19.6991 13.3299 18.6047 18.9005 18.5052 23.4764"/>
	<path fill="white" d="M60.4897 24.4713L48.4515 24.4713C48.4515 24.4713 45.6658 20.6912 40.3928 19.9948L40.3928 10.0472L54.1224 10.0472C54.3214 10.3456 60.4897 12.2356 60.4897 24.4713"/>
	<path fill="#2D1B0A" d="M61.4846 25.466L47.954 25.466C47.6555 25.0681 45.0688 21.5864 40.2933 20.9896L39.3979 9.0524L54.6198 9.0524C60.2908 12.3351 61.3851 19.199 61.3851 24.4712M48.9489 23.4765L59.4948 23.4765C59.3953 18.9006 58.2015 13.4294 53.9234 11.0419C53.9234 11.0419 53.8239 11.0419 53.8239 11.0419L41.3877 11.0419L41.3877 19.199C45.4668 19.9948 48.0535 22.4817 48.9489 23.4765"/>
	<path fill="#FFCB64" d="M16.3163 51.9267C16.3163 49.3403 18.4056 47.2513 20.9923 47.2513C23.5791 47.2513 25.6683 49.3403 25.6683 51.9267C25.6683 54.5131 23.5791 56.6021 20.9923 56.6021C18.4056 56.6021 16.3163 54.5131 16.3163 51.9267"/>
	<path fill="#2D1B0A" d="M20.9923 57.5968C17.9081 57.5968 15.3214 55.0105 15.3214 51.9267C15.3214 48.8429 17.9081 46.2565 20.9923 46.2565C24.0765 46.2565 26.6632 48.8429 26.6632 51.9267C26.6632 55.0105 24.0765 57.5968 20.9923 57.5968M20.9923 48.2461C19.0025 48.2461 17.3112 49.9372 17.3112 51.9267C17.3112 53.9162 19.0025 55.6073 20.9923 55.6073C22.9821 55.6073 24.6734 53.9162 24.6734 51.9267C24.6734 49.9372 22.9821 48.2461 20.9923 48.2461"/>
	<path fill="#FFCB64" d="M53.1276 51.9267C53.1276 49.3403 55.2169 47.2513 57.8036 47.2513C60.3904 47.2513 62.4796 49.3403 62.4796 51.9267C62.4796 54.5131 60.3904 56.6021 57.8036 56.6021C55.2169 56.6021 53.1276 54.5131 53.1276 51.9267"/>
	<path fill="#2D1B0A" d="M57.8036 57.5968C54.7194 57.5968 52.1327 55.0105 52.1327 51.9267C52.1327 48.8429 54.7194 46.2565 57.8036 46.2565C60.8878 46.2565 63.4745 48.8429 63.4745 51.9267C63.4745 55.0105 60.8878 57.5968 57.8036 57.5968M57.8036 48.2461C55.8138 48.2461 54.1225 49.9372 54.1225 51.9267C54.1225 53.9162 55.8138 55.6073 57.8036 55.6073C59.7934 55.6073 61.4847 53.9162 61.4847 51.9267C61.4847 49.9372 59.7934 48.2461 57.8036 48.2461"/>
	<path fill="white" d="M30.7307 46.9529L48.4399 46.9529C48.9373 46.9529 48.9373 47.1518 48.9373 47.4503L48.9373 49.3403C48.9373 49.5393 48.7384 49.8377 48.4399 49.8377L30.7307 49.8377C30.5318 49.8377 30.157 49.6387 30.157 49.3403L30.157 47.4503C30.0343 47.4503 30.157 46.9529 30.7307 46.9529"/>
	<path fill="#2D1B0A" d="M48.4515 50.8325L30.7423 50.8325C30.0459 50.8325 29.25 50.2356 29.25 49.3403L29.25 47.8482C29.1505 46.6545 29.7474 45.9581 30.7423 45.9581L48.4515 45.9581C48.949 45.9581 49.9439 45.9581 49.9439 47.4503L49.9439 49.3403C49.9439 50.0367 49.3469 50.8325 48.4515 50.8325M31.2398 48.8429L47.9541 48.8429L31.2398 47.9477"/>
	<path fill="white" d="M30.7423 53.6178L48.4514 53.6178C48.9489 53.6178 48.9489 53.8167 48.9489 54.1152L48.9489 56.0052C48.9489 56.2042 48.7499 56.5026 48.4514 56.5026L30.7423 56.5026C30.5433 56.5026 30.2448 56.3036 30.2448 56.0052L30.2448 54.3141C30.2448 53.9162 30.7423 53.6178 30.7423 53.6178"/>
	<path fill="#2D1B0A" d="M48.4514 57.4974L30.7423 57.4974C30.0458 57.4974 29.2499 56.9005 29.2499 56.0052L29.2499 54.3141C29.2499 53.4188 30.0458 52.822 30.2448 52.7225L48.4514 52.623C48.9489 52.623 49.9438 52.7225 49.9438 54.1152L49.9438 56.0052C49.9438 56.7015 49.3468 57.4974 48.4514 57.4974M31.2397 55.5078L47.954 55.5078L31.2397 54.6125"/>
	<path fill="white" d="M29.5485 43.1728L48.4516 43.1728L48.4516 30.9371C48.4516 30.9371 47.7551 24.0732 39 24.0732C30.5434 24.0732 29.5485 30.9371 29.5485 30.9371L29.5485 43.1728"/>
	<path fill="#2D1B0A" d="M49.4466 44.1675L28.5537 44.1675L28.5537 30.8377C28.5537 30.7382 29.7476 23.0785 39.0001 23.0785C48.5511 23.0785 49.4466 30.7382 49.4466 30.8377L49.4466 44.1675M30.5435 42.178L47.4568 42.178L47.4568 31.0366C47.3573 30.4398 46.4619 25.068 39.0001 25.068C31.8369 25.068 30.643 30.3403 30.5435 31.0366L30.5435 42.178"/>
</svg>
