<?xml version="1.0" encoding="utf-8" ?>
<svg xmlns="http://www.w3.org/2000/svg" xmlns:xlink="http://www.w3.org/1999/xlink" width="82" height="88">
	<path fill="white" d="M45.9878 87.6009C41.8978 87.6009 38.3066 84.0091 38.3066 79.9184L38.3066 52.381L38.1071 49.9864C37.0097 47.1927 34.3163 45.2971 31.7226 45.2971C29.129 45.2971 26.236 47.3923 25.3382 50.0862C24.8394 51.5828 24.3406 52.0816 23.3431 52.0816L21.0487 52.0816C20.0511 52.0816 19.253 51.5828 18.9538 50.7846C18.056 48.2902 16.2603 46.5941 14.1655 46.0952C13.6667 45.9955 13.0681 45.8957 12.5693 45.8957C9.77616 45.8957 7.28224 47.6916 6.38443 50.2857C5.78589 51.8821 5.2871 52.1814 4.68856 52.1814L2.2944 52.1814C1.09732 52.1814 0 51.2834 0 50.0862C0 48.9887 0 47.8912 0 47.5918C0 28.7347 13.3674 12.9705 32.6204 9.27891L37.708 8.5805L39.1046 1.89569C39.3041 0.798186 40.2019 0 41.2993 0C42.3966 0 43.2944 0.798186 43.4939 1.89569L44.8905 8.38095L49.2798 9.17914C68.2336 12.5714 82 28.8345 82 47.6916C82 48.2902 81.9002 50.1859 81.9002 50.1859C81.9002 51.2834 81.2019 51.8821 80.0049 51.8821L78.6083 51.8821C76.9124 51.8821 76.7129 50.6848 76.6131 50.4853C75.4161 47.4921 72.3236 45.3968 69.7299 45.3968C66.438 45.3968 63.7445 47.9909 62.747 50.585C62.6472 51.0839 62.3479 52.1814 61.3504 52.1814L59.2555 52.2812C58.0584 52.2812 57.4599 51.6825 57.2603 50.6848C56.163 47.6916 53.2701 45.7959 50.5766 45.7959C46.6861 45.7959 44.8905 48.8889 44.3917 50.2857L44.1922 52.6803L44.3917 79.5193C44.3917 80.517 45.7883 80.9161 46.2871 80.0181L48.1825 76.8254C48.382 76.5261 48.6813 76.2268 48.9805 76.0272C49.4793 75.7279 50.2774 75.6281 50.7762 75.6281C51.3747 75.6281 51.9732 75.7279 52.2725 75.9274C53.0706 76.4263 53.6691 77.424 53.6691 78.322L53.6691 80.4172C53.6691 84.5079 50.3771 88 46.4866 88"/>
	<path fill="#2D1B0A" d="M46.1874 85.805C42.5961 85.805 39.803 83.0113 39.803 79.5193L39.803 49.288C39.803 48.39 40.5012 47.6916 41.3991 47.6916C42.2969 47.6916 42.9952 48.39 42.9952 49.288L42.9952 79.5193C42.9952 81.2154 44.3918 82.6122 46.0876 82.6122C47.8832 82.6122 49.2798 81.2154 49.2798 79.5193L49.2798 77.9229C49.2798 77.3243 49.5791 76.8254 50.0779 76.5261C50.5767 76.2267 51.1753 76.2267 51.674 76.5261C52.1728 76.8254 52.4721 77.3243 52.4721 77.9229L52.4721 79.5193C52.4721 83.0113 49.6789 85.805 46.1874 85.805"/>
	<path fill="#E63B56" d="M40.7506 11.0748C19.9016 11.3741 3.24215 27.5374 3.24215 47.5918C3.24215 48.0906 3.24215 48.6893 3.24215 49.1882C5.03777 45.4965 8.52925 42.8027 12.719 42.8027C16.809 42.8027 20.4003 45.3968 21.6971 49.1882C23.0938 43.102 26.2859 20.8526 40.7506 11.0748M42.0476 11.0748C56.6119 20.8526 59.7044 43.102 60.4027 49.1882C62.3979 45.4965 65.8894 42.8027 70.0791 42.8027C74.1692 42.8027 77.7604 45.3968 79.0573 49.1882C79.5561 48.6893 79.5561 48.0906 79.5561 47.5918C79.5561 27.5374 62.9964 11.3741 42.1473 10.975"/>
	<path fill="#2D1B0A" d="M80.4038 50.1859L78.2092 50.1859C76.8126 46.0952 73.6204 43.8005 69.9294 43.8005C66.3382 43.8005 63.0462 46.0952 61.8491 49.4875L59.3552 50.1859C58.6569 42.9025 55.4647 21.3515 41.399 11.873C27.1338 21.551 23.9416 42.9025 23.343 49.288L20.9489 50.1859C19.5523 46.0952 16.3601 43.8005 12.6691 43.8005C9.07781 43.8005 5.78584 46.0952 4.58876 49.4875L2.1946 50.1859C2.1946 48.6893 2.1946 48.0907 2.1946 47.5918C2.1946 27.2381 19.4525 10.3764 40.7007 10.0771L42.0973 10.0771C63.7445 10.3764 80.6034 26.9388 80.6034 47.6916C80.6034 48.1905 80.6034 48.7891 80.6034 49.288M45.09 12.1723C56.3625 21.7506 59.9537 38.9116 60.9513 46.7937C62.8467 43.7007 66.2384 41.805 69.9294 41.805C73.3211 41.805 76.5133 43.5011 78.4087 46.195C77.8102 28.2358 63.545 13.8685 45.09 12.1723M12.6691 41.9048C16.3601 41.9048 19.7518 43.8005 21.6472 46.8934C22.7445 39.0113 26.236 21.9501 37.5085 12.3719C19.3528 14.1678 4.98779 28.6349 4.18973 46.2948C6.18487 43.5011 9.27733 41.9048 12.6691 41.9048"/>
	<path fill="#FFE7DC" d="M41.8977 11.0748C41.6982 11.0748 41.4986 11.0748 41.2991 11.0748L41.2991 49.288C43.1945 45.5963 46.686 42.9025 50.8757 42.9025C54.9658 42.9025 58.5571 45.4966 59.8539 49.288C59.6544 43.102 56.4622 20.8526 41.8977 11.0748M40.7006 11.0748C26.1361 20.8526 22.9439 43.102 22.3454 49.288C24.0412 45.5963 27.5327 42.9025 31.7225 42.9025C35.8125 42.9025 39.4037 45.4966 40.7006 49.288L41.2991 11.0748C41.0996 11.0748 40.9001 11.0748 40.7006 11.0748"/>
	<path fill="#2D1B0A" d="M61.3503 50.1859L59.1557 50.1859C57.7591 46.0952 54.5669 43.8004 50.8759 43.8004C47.2846 43.8004 43.9927 46.0952 42.7956 49.4875L40.1022 50.1859C38.7056 46.0952 35.5134 43.8004 31.8224 43.8004C28.2311 43.8004 24.9391 46.0952 23.7421 49.4875L21.3479 50.1859L21.3479 49.0884C22.146 42.5034 25.4379 20.1542 40.2019 10.1768L42.3966 9.9773C57.3601 20.1542 60.7518 42.5034 61.3503 49.0884L61.3503 50.1859M42.2968 12.5714L42.2968 46.2948C44.2919 43.6009 47.3844 41.9047 50.8759 41.9047C53.9683 41.9047 56.8613 43.3016 58.7567 45.4966C57.4598 36.9161 53.5693 20.8526 42.2968 12.5714M31.8224 41.9047C35.2141 41.9047 38.4063 43.6009 40.4014 46.2948L40.4014 12.5714C29.2287 20.8526 25.2384 36.9161 23.9416 45.4966C25.837 43.2018 28.7299 41.9047 31.8224 41.9047"/>
	<path fill="#2D1B0A" d="M43.4939 10.1769L39.3041 10.1769L40.3017 2.39455C40.4014 1.89569 40.8005 1.4966 41.399 1.4966C41.9975 1.4966 42.4963 1.89569 42.5961 2.49433L43.4939 10.1769"/>
</svg>
