<?xml version="1.0" encoding="utf-8" ?>
<svg xmlns="http://www.w3.org/2000/svg" xmlns:xlink="http://www.w3.org/1999/xlink" width="82" height="84">
	<path fill="white" d="M62.1548 84C58.4275 84 55.5061 81.76 54.9017 78.4L54.801 75.04L26.3931 75.04L26.3931 78.2982C24.9828 81.8618 21.9607 83.8982 18.5356 83.8982C14.8084 83.8982 11.887 81.6582 11.2826 78.2982L11.1818 73.3091C7.35381 71.0691 4.93612 66.8945 4.93612 62.4145L4.93612 42.3564C2.01474 41.1345 0 38.1818 0 34.9236L0 28.1018C0 24.8436 2.01474 21.8909 4.93612 20.6691L4.93612 12.8291C4.93612 5.80364 10.5774 0.101818 17.5283 0L64.1695 0C70.6167 0 75.9558 4.78545 76.8624 11.3018L76.8624 19.9564C79.8845 21.1782 82 24.2327 82 27.5927L82 34.1091C82 37.4691 79.9853 40.5236 76.8624 41.7455L76.8624 62.4145C76.8624 67.0982 74.2432 71.4764 70.113 73.6145L70.113 78.2982C68.602 81.9636 65.6806 84 62.1548 84"/>
	<path fill="#FF8E68" d="M7.75675 12.7782L7.75675 62.3636C7.75675 67.6582 11.9877 71.9345 17.226 71.9345L64.1695 71.9345C69.4079 71.9345 73.6389 67.6582 73.6389 62.3636L73.6389 11.6582C72.833 6.2618 68.602 2.9018 63.968 2.9018L17.3268 2.9018C11.9877 2.9018 7.75675 7.3818 7.75675 12.7782"/>
	<path fill="#2D1B0A" d="M64.1695 72.9018L17.2261 72.9018C11.484 72.9018 6.7494 68.1163 6.7494 62.3127L6.7494 12.7272C6.7494 6.82177 11.484 1.9345 17.3268 1.9345L63.9681 1.9345C69.4079 1.9345 73.8403 6.00723 74.6462 11.5054L74.6462 62.3127C74.6462 68.2181 69.9116 72.9018 64.1695 72.9018M17.3268 3.97086C12.5921 4.07268 8.76414 7.94177 8.76414 12.7272L8.76414 62.3127C8.76414 66.9963 12.5921 70.8654 17.2261 70.8654L64.1695 70.8654C68.8035 70.8654 72.6315 66.9963 72.6315 62.3127L72.6315 11.7091C71.9263 7.22905 68.2998 3.97086 63.9681 3.97086L17.3268 3.97086"/>
	<path fill="#161514" d="M14.0528 72.2845L23.3206 72.2845L23.3206 77.6809C21.608 81.9572 14.9594 81.8554 14.0528 77.6809L14.0528 72.2845M57.672 72.2845L66.9398 72.2845L66.9398 77.6809C65.2271 81.9572 58.5785 81.8554 57.7726 77.6809L57.672 72.2845"/>
	<path fill="#2D1B0A" d="M62.054 81.8618C61.8525 81.8618 61.651 81.8618 61.4495 81.8618C59.0319 81.6582 57.2186 80.1309 56.8156 77.8909L56.7149 71.2728L67.9975 71.2728L67.9975 77.8909C66.7886 80.7418 64.2702 81.8618 62.054 81.8618M58.7296 77.5855C59.1326 79.4182 61.0466 79.8255 61.5503 79.8255C63.1621 79.9273 64.9753 79.3164 65.882 77.4837L65.882 73.3091L58.6289 73.3091L58.7296 77.5855M18.3341 81.8618C18.1326 81.8618 17.9311 81.8618 17.7296 81.8618C15.312 81.6582 13.4987 80.1309 12.995 77.8909L12.995 71.2728L24.2776 71.2728L24.2776 77.8909C23.1694 80.7418 20.651 81.8618 18.3341 81.8618M15.1105 77.5855C15.5134 79.4182 17.4274 79.8255 17.9311 79.8255C19.5429 80.0291 21.4569 79.3164 22.2628 77.4837L22.2628 73.3091L15.0097 73.3091L15.1105 77.5855"/>
	<path fill="#FFD05A" d="M16.7223 59.2614C16.7223 57.5272 17.7297 56 19.2408 55.3891C20.8526 54.7781 22.5651 55.0836 23.7739 56.3054C24.9828 57.5272 25.285 59.36 24.6806 60.8872C24.0761 62.4145 22.4643 63.5345 20.8526 63.4391C19.7444 63.4391 18.7371 63.0254 17.9312 62.2109C17.1253 61.4982 16.7223 60.3782 16.7223 59.2614"/>
	<path fill="#2D1B0A" d="M20.9537 64.5527C19.5433 64.5527 18.2336 64.0436 17.3269 63.0253C16.3194 62.007 15.8157 60.6833 15.8157 59.3595C15.8157 57.2212 17.0247 55.2865 19.0396 54.4719C20.9537 53.6572 23.1701 54.0607 24.6813 55.5919C26.1963 57.1194 26.5955 59.3595 25.7895 61.2943C24.8828 63.229 22.9686 64.5527 20.9537 64.5527M20.9537 56.1011C20.5507 56.1011 20.1478 56.2029 19.7448 56.3047C18.5358 56.8139 17.8306 57.934 17.8306 59.2577C17.8306 60.0723 18.1329 60.8869 18.7373 61.4979C19.3418 62.1089 20.1478 62.4143 20.9537 62.4143C22.2634 62.4143 23.3716 61.5997 23.8753 60.4796C24.3791 59.2577 24.0768 57.934 23.1701 57.0175C22.5656 56.4066 21.7597 56.1011 20.9537 56.1011"/>
	<path fill="#FFD05A" d="M58.226 59.6687C58.226 57.9346 59.2334 56.4073 60.7445 55.7964C62.3563 55.1855 64.0688 55.4909 65.2776 56.7127C66.4865 57.9346 66.7887 59.7673 66.1843 61.2946C65.5798 62.8218 63.968 63.9418 62.3563 63.8464C61.2481 63.8464 60.2408 63.4327 59.4349 62.6182C58.629 61.8037 58.226 60.7855 58.226 59.6687"/>
	<path fill="#2D1B0A" d="M62.4574 64.8582C62.4574 64.8582 62.3567 64.8582 62.4574 64.8582C61.047 64.8582 59.7373 64.3491 58.8306 63.3308C57.8231 62.3125 57.3194 60.9888 57.3194 59.665C57.3194 57.5267 58.5284 55.592 60.5433 54.7774C62.4574 53.9627 64.6738 54.3662 66.185 55.8974C67.7 57.4249 68.0992 59.665 67.2932 61.5998C66.3865 63.5345 64.4723 64.8582 62.4574 64.8582M62.4574 56.4066C62.0544 56.4066 61.6515 56.5084 61.2485 56.6102C60.0395 57.1194 59.3343 58.2395 59.3343 59.5632C59.3343 60.3778 59.6366 61.1924 60.241 61.8034C60.8455 62.4144 61.6515 62.7198 62.4574 62.7198C63.7671 62.7198 64.8753 61.9052 65.379 60.7851C65.8828 59.5632 65.5805 58.2395 64.6738 57.323C64.0694 56.7121 63.2634 56.4066 62.4574 56.4066"/>
	<path fill="white" d="M13.9521 48.8728C13.0455 48.7709 12.3403 48.0582 12.3403 47.1419L12.3403 16.0873C12.3403 15.1709 13.1462 14.3564 14.0528 14.3564L67.7457 14.3564C68.6523 14.3564 69.4582 15.1709 69.4582 16.0873L69.4582 47.2437C69.4582 47.7528 69.2568 48.2619 68.8538 48.5673C68.4509 48.8728 67.9472 49.0764 67.5442 49.0011C49.9152 46.2255 31.984 46.2255 14.355 49.0011"/>
	<path fill="#333" d="M67.8465 49.8909C67.7457 49.8909 67.5443 49.8909 67.4435 49.8909C49.9153 47.2437 32.0848 47.2437 14.5566 49.8909C12.5418 49.7891 11.4337 48.5673 11.4337 47.1418L11.4337 16.0873C11.4337 14.56 12.6426 13.3382 14.1536 13.3382L67.8465 13.3382C69.3575 13.3382 70.5664 14.56 70.5664 16.0873L70.5664 47.2437C70.5664 48.0582 70.2642 48.7709 69.6597 49.28C69.0553 49.6873 68.4509 49.8909 67.8465 49.8909M41 45.8182C49.9153 45.8182 58.8809 46.5309 67.7457 47.8546C67.9472 47.8546 68.1487 47.8546 68.2494 47.6509C68.3502 47.5491 68.4509 47.3455 68.4509 47.1418L68.4509 16.0873C68.4509 15.68 68.1487 15.3746 67.7457 15.3746L14.0529 15.3746C13.6499 15.3746 13.3477 15.68 13.3477 16.0873L13.3477 47.1418C13.3477 47.5491 13.6499 47.8546 13.9521 47.8546C23.1192 46.5309 31.9841 45.8182 41 45.8182"/>
	<path fill="#161514" d="M7.75676 39.9127L7.75676 23.1127C5.03686 23.1127 2.82064 25.3527 2.82064 28.1018L2.82064 34.9236C2.82064 37.6727 5.03686 39.9127 7.75676 39.9127"/>
	<path fill="#2D1B0A" d="M8.76413 40.9309L7.75676 40.9309C4.43243 40.9309 1.81327 38.1818 1.81327 34.9236L1.81327 28.1018C1.81327 24.7418 4.53317 22.0945 7.75676 22.0945L8.76413 22.0945L8.76413 40.9309M6.74939 24.2327C5.03686 24.6399 3.82801 26.2691 3.82801 28.1018L3.82801 34.9236C3.82801 36.7563 5.03686 38.3854 6.74939 38.7927L6.74939 24.2327"/>
	<path fill="#161514" d="M78.7764 34.1091L78.7764 27.5927C78.7764 24.7418 76.4594 22.4 73.6388 22.4L73.6388 39.2032C76.4594 39.3018 78.7764 36.96 78.7764 34.1091"/>
	<path fill="#2D1B0A" d="M73.6388 40.32L72.6314 40.32L72.6314 21.4836L73.6388 21.4836C77.0639 21.4836 79.7838 24.2327 79.7838 27.6945L79.7838 34.2109C79.7838 37.4691 76.9631 40.32 73.6388 40.32M74.6462 23.52L74.6462 38.08C76.4594 37.6727 77.769 35.9418 77.769 34.0072L77.769 27.4909C77.769 25.6581 76.3587 24.0291 74.6462 23.52"/>
	<path fill="#333" d="M34.9558 11.9127C34.3514 11.9127 33.747 11.6073 33.4448 11.0982C33.2181 10.5891 33.2181 9.87634 33.4448 9.36724C33.747 8.85816 34.3514 8.5527 34.9558 8.5527L47.6487 8.5527C48.3538 8.5527 49.059 8.95997 49.3612 9.6727C49.7642 10.8945 48.8575 11.9127 47.7494 11.9127L34.9558 11.9127"/>
	<path fill="#DFDFDF" d="M34.452 46.8384L17.5282 40.933"/>
	<path fill="#2D1B0A" d="M34.4353 47.8546C34.3345 47.8546 34.2338 47.8546 34.1331 47.7527L17.2092 41.9491C16.7055 41.7455 16.4033 41.2364 16.5417 40.6255C16.8063 40.1164 17.31 39.8109 17.9144 39.9508L34.8382 45.8182C35.3419 46.0218 35.6441 46.5309 35.4426 47.1418C35.2412 47.5491 34.8382 47.8546 34.4353 47.8546"/>
	<path fill="#DFDFDF" d="M48.8356 47.0297L27.7815 37.6625"/>
	<path fill="#2D1B0A" d="M48.8356 48.0582C48.7349 48.0582 48.5334 48.0582 48.4326 47.9563L27.3786 38.589C26.7977 38.3854 26.6734 37.7745 26.7977 37.2654C27.0764 36.6783 27.6808 36.5527 28.1845 36.6783L49.2385 46.1236C49.7422 46.3272 49.9437 46.9382 49.7422 47.4472C49.5408 47.8545 49.2385 48.0582 48.8356 48.0582"/>
</svg>
