<?xml version="1.0" encoding="utf-8" ?>
<svg xmlns="http://www.w3.org/2000/svg" xmlns:xlink="http://www.w3.org/1999/xlink" width="112" height="44">
	<path fill="white" d="M21.449 44C16.3902 44 11.9386 42.1171 8.70099 38.8468C4.14815 34.0901 2.83288 27.6486 2.52936 23.0901L2.42818 22C0.607046 21.009 0 20.018 0 19.027L0 16.9459C0 15.5586 0.910569 14.8649 1.71996 14.4685L2.83288 13.0811C4.65402 4.55856 13.2538 0 27.8229 0C29.7453 0 31.364 0.198198 32.477 0.198198C33.084 0.198198 33.4887 0.198198 33.6911 0.198198C33.8934 0.198198 36.1192 0.495495 37.131 0.693694L38.4463 0.792793C42.1897 0.990991 48.4625 1.38739 56.1518 1.38739C62.8293 1.38739 68.8997 1.18919 74.262 0.693694C75.9819 0.396396 81.1418 0 83.9747 0C98.4426 0 107.144 4.36036 108.965 12.5856L109.167 13.6757L110.28 14.0721C111.595 14.4685 112 15.7568 112 16.6486L112 18.7297C112 20.4144 110.988 21.009 110.381 21.3063L109.268 21.8018L109.167 22.991C108.358 29.9279 106.334 35.0811 102.995 38.6486C99.8591 42.018 95.1039 43.7027 90.0452 43.7027C84.5818 43.7027 79.1183 41.6216 75.8808 39.5405C58.7823 29.8288 58.0741 15.1622 58.0741 15.1622L53.5212 15.4595C53.5212 15.4595 54.2294 28.2432 36.2204 39.8378C32.7805 41.9189 27.0136 44 21.449 44"/>
	<path fill="#210D08" d="M2.93403 16.8468L2.93403 18.9279C2.93403 19.2251 3.23756 19.4233 3.43991 19.4233L5.56456 19.4233L5.56456 16.3513L3.43991 16.3513C3.43991 16.3513 2.93403 16.6486 2.93403 16.8468"/>
	<path fill="#2D1B0A" d="M6.57632 20.4143L3.43992 20.4143C2.73169 20.4143 1.9223 19.8197 1.9223 18.9279L1.9223 16.6486C2.22582 16.1531 2.52935 15.7567 2.83287 15.5585L6.57632 15.3603L6.57632 20.4143M3.94579 18.4324L4.55283 17.3423L3.94579 18.4324"/>
	<path fill="#210D08" d="M107.968 16.3513L105.844 16.3513C105.742 15.4594 105.742 14.9639 105.742 14.9639C104.63 -0.0991299 78.1222 2.97294 77.6163 3.07204C77.1105 3.07204 76.6046 3.17114 76.0987 3.27024C54.3462 5.25222 34.9208 3.17114 34.9208 3.17114C34.6172 3.17114 34.3137 3.07204 34.0102 3.07204C33.5043 2.97294 7.09781 -0.0991299 5.88371 14.9639C5.88371 14.9639 4.16375 28.8378 11.1448 36.3693C18.1258 43.7027 30.0644 39.9369 34.9208 36.8648C39.7771 33.7928 50.0969 25.072 50.8051 15.2612C50.8051 15.2612 50.8051 15.063 50.8051 14.8648C51.1086 14.3693 51.5133 13.5765 52.0192 13.081C52.7274 12.3874 53.2333 12.3874 53.2333 12.3874L58.4944 12.3874C58.4944 12.3874 59.2026 12.5856 59.7085 13.081C60.012 13.1801 60.5179 13.8738 60.9226 14.3693C60.8214 14.8648 60.8214 15.2612 60.8214 15.2612C61.5296 25.072 71.9506 34.0901 76.7058 36.8648C81.5621 39.9369 93.5007 43.7027 100.482 36.3693C104.933 31.5135 105.844 24.1801 105.945 19.4234L107.968 19.4234C108.474 19.4234 108.474 19.2252 108.474 18.9279L108.474 16.8468C108.474 16.6486 108.474 16.3513 107.968 16.3513M58.7979 11.1982L53.2333 11.1982C51.4122 11.7928 50.8051 13.4774 50.6028 13.8738C50.0969 11.4955 48.1746 6.8378 40.6877 4.36032C56.2685 5.45042 67.0942 4.75672 70.6353 4.45942C64.059 6.6396 61.9343 10.7027 61.2261 13.1801C60.4167 11.0991 58.7979 11.1982 58.7979 11.1982"/>
	<path fill="#2D1B0A" d="M21.9548 41.7581C17.8067 41.7581 13.6585 40.5315 10.4209 37.1621C3.23756 29.3333 4.85635 15.5585 4.85635 14.9639C5.15987 11.3963 6.77866 8.52248 9.71272 6.3423C17.7055 0.39635 32.6793 2.08104 34.0957 2.18014C34.3993 2.18014 34.6016 2.27924 34.804 2.27924C35.2087 2.27924 54.6341 4.26122 75.9819 2.37833C76.3866 2.27924 76.9937 2.27924 77.4995 2.18014C78.916 1.98194 93.9909 0.39635 101.984 6.3423C104.918 8.52248 106.536 11.3963 106.739 14.9639C106.739 14.9639 106.739 15.1621 106.739 15.4594L107.953 15.4594C108.661 15.4594 109.471 15.8558 109.471 16.9459L109.471 19.027C109.471 20.4144 108.459 20.5135 107.953 20.5135L106.941 20.5135C106.739 25.7657 105.525 32.5045 101.275 37.1621C94.0921 44.6936 82.0524 41.5225 76.1843 37.8558C71.2267 34.9819 60.6034 25.5675 59.794 15.4594C59.794 15.3603 59.794 15.1621 59.794 14.7657C59.4905 14.2702 59.2881 14.1711 59.187 14.072C58.7823 13.7747 58.4788 13.6756 58.2764 13.5765L53.2177 13.5765C53.2177 13.5765 53.0153 13.6756 52.7118 13.9729C52.4083 14.2702 52.1048 14.6666 51.8012 15.2612C51.8012 15.3603 51.8012 15.4594 51.8012 15.4594C51.093 25.4684 40.7732 34.4864 35.411 37.8558C32.2746 39.8378 27.1147 41.7581 21.9548 41.7581M27.9241 3.76572C22.7642 3.76572 15.2773 4.45942 10.7245 7.92788C8.39745 9.71167 7.08218 12.09 6.87984 15.063C6.87984 15.2612 5.26105 28.6396 11.8374 35.6756C18.4137 42.5135 29.8464 38.8468 34.2981 35.9729C39.3568 32.8018 49.0695 24.2792 49.6766 15.1621C49.6766 15.1621 49.6766 15.063 49.6766 14.8648C49.0695 11.7928 47.2484 7.53149 40.3685 5.35131L37.4345 4.45942C35.8157 4.36032 34.9051 4.26122 34.804 4.26122C34.3993 4.26122 34.0957 4.16212 33.8934 4.16212C33.7922 4.06302 31.364 3.76572 27.9241 3.76572M61.9187 14.1711C61.8175 14.9639 61.8175 15.2612 61.8175 15.2612C62.5257 24.5765 72.4408 33.2973 77.196 35.9729C81.7489 38.8468 93.1816 42.5135 99.7579 35.6756C103.906 31.2162 104.817 24.3783 104.918 19.4234L107.447 18.4324L107.447 17.3423L104.918 17.3423C104.817 15.6576 104.715 15.1621 104.715 15.1621C104.513 12.1891 103.198 9.81077 100.871 8.02698C93.3839 2.18014 77.9042 4.06302 77.7019 4.16212C77.0948 4.26122 76.589 4.26122 76.1843 4.36032C75.3749 4.45942 74.5655 4.45942 73.8573 4.55851L70.9232 5.54951C64.6504 7.63059 62.7281 11.4955 62.121 13.5765M107.953 17.3423M45.9331 5.7477C48.6648 7.53149 50.1825 9.71167 50.9918 11.5946C51.4977 11.0991 52.1048 10.6036 53.0153 10.4054L58.8834 10.3063C59.3893 10.3063 60.2999 10.4054 61.0081 11.0991C61.8175 9.51347 63.2339 7.53149 65.7633 5.8468C61.1093 6.045 54.4318 6.1441 45.9331 5.7477"/>
</svg>
