<?xml version="1.0" encoding="utf-8" ?>
<svg xmlns="http://www.w3.org/2000/svg" xmlns:xlink="http://www.w3.org/1999/xlink" width="90" height="90">
	<path fill="white" d="M73.6215 16.4462C73.9229 16.4462 74.1239 16.4462 74.4254 16.4462C79.3489 16.4462 84.373 14.9327 88.3923 12.1076L90 10.9978L86.5836 6.05381L84.9759 7.16368C81.861 9.28251 78.1432 10.4933 74.4254 10.4933C74.2244 10.4933 74.0234 10.4933 73.8225 10.4933L72.0138 10.3924C71.3104 8.37444 70.6071 6.76009 69.9037 6.15471L32.826 1.21076L31.2183 0.706278C29.3091 0.302691 27.4 0 25.4908 0C17.8542 0 10.4186 3.53139 5.69593 9.4843C-0.433444 17.0516 -1.7397 27.6457 2.38004 36.4238C4.89208 41.6704 9.11231 46.009 14.3374 48.5314L17.9547 72.343C18.3566 74.5628 19.7634 76.3789 21.572 77.1861C22.8783 77.8924 24.3855 78.296 25.8927 78.3969C25.5913 80.6166 25.8927 83.0381 26.0937 85.3587C26.1942 86.3677 26.2947 87.2758 26.2947 87.9821L26.3951 90L32.424 89.7982L32.3236 87.7803C32.3236 86.8722 32.2231 85.8632 32.1226 84.7534C31.9216 82.4327 31.6202 79.5067 32.2231 77.9933C32.3236 77.8924 32.9264 77.4888 33.2279 77.3879C34.4337 76.7825 36.3428 75.7735 37.1467 73.4529L37.5486 72.343L37.5486 47.8251C41.4674 45.6054 44.7833 42.3767 47.0944 38.4417L70.2051 35.0112L70.9085 33.5987C71.2099 32.9933 73.2196 28.6547 73.722 23.6099L75.1287 23.6099C77.8417 23.6099 80.1528 24.0135 82.2629 24.9215L84.1721 25.7287L86.4831 20.0785L84.574 19.3722C81.7605 18.2623 78.6456 17.657 75.6311 17.657C75.4302 17.657 75.2292 17.657 75.1287 17.657L73.8225 17.657C73.8225 17.2534 73.722 16.8498 73.6215 16.4462"/>
	<path fill="#65DFE5" d="M29.309 88.0829C29.2085 84.9551 28.3042 80.1122 29.309 77.1861C30.1129 74.7646 33.4287 75.0672 34.2327 72.7467C34.2327 72.7467 34.4335 72.1413 34.4335 72.1413L34.4335 45.7063C28.7062 47.3207 22.6772 47.018 17.1508 44.6973L20.8686 72.0403C21.0695 73.2511 21.8734 74.1592 22.8782 74.6637C24.084 75.2691 25.4907 75.6726 26.8974 75.6726C28.0028 75.6726 28.5051 75.6726 28.9072 75.5717"/>
	<path fill="#2D1B0A" d="M28.3041 88.083C28.3041 87.2758 28.2037 86.2668 28.1032 85.2579C27.8017 82.4328 27.6008 79.1032 28.4046 76.7825C28.4046 76.6816 28.4046 76.6816 28.5051 76.5807C28.3041 76.5807 28.0027 76.5807 27.7013 76.5807C25.5911 76.5807 23.9834 76.1772 22.5767 75.4709C21.2704 74.8655 20.2656 73.5538 19.9642 72.1413L15.4425 42.5785L17.6531 43.6884C22.8781 45.8072 28.7061 46.2108 34.2326 44.5964L35.5388 44.1928L35.5388 72.1413C34.735 74.361 33.4287 75.0673 32.3234 75.5718C31.2181 76.0763 30.6152 76.4798 30.3138 77.287C29.6104 79.305 29.9119 82.231 30.1128 84.9552C30.2133 85.9642 30.3138 86.9731 30.3138 87.8812L28.3041 88.083M29.0075 74.4619L29.108 75.4709C29.8114 74.7646 30.6152 74.2601 31.4191 73.9574C32.4239 73.4529 33.1273 73.0494 33.3282 72.3431C33.3282 72.2422 33.4287 72.1413 33.4287 71.9395L33.4287 47.018C28.3041 48.2287 22.8781 47.926 17.9545 46.1099L21.8733 71.9395C21.9738 72.7467 22.5767 73.4529 23.2801 73.8565C24.3854 74.4619 25.6916 74.7646 26.8974 74.7646C28.2037 74.5628 28.6056 74.5628 29.0075 74.4619"/>
	<path fill="#65DFE5" d="M25.2364 48.2658C33.6768 48.2658 41.3134 43.5237 45.1317 36.0573L68.1421 32.5259C68.1421 32.5259 70.9555 26.6739 70.8577 21.2255C70.7545 15.1716 68.6444 9.11783 67.941 8.51245L32.1695 4.27478L30.5619 3.7703C22.222 1.85326 13.4801 4.77926 8.05401 11.5393C2.628 18.1985 1.52271 27.4811 5.14004 35.2501C8.85786 43.1201 16.5949 48.1649 25.2364 48.2658"/>
	<path fill="#2D1B0A" d="M25.1903 49.2377C16.2471 49.1368 8.00733 43.7893 4.28938 35.7176C0.47094 27.6458 1.67676 17.8588 7.30393 10.8969C12.9311 3.93505 22.1757 0.80725 30.8175 2.82519L32.4252 3.32967L68.3989 7.56734C69.7052 8.67721 71.8181 15.3364 71.8181 21.1884C71.9159 26.7377 69.1023 32.6907 69.0018 32.8925L45.7898 36.8274C41.7704 44.4956 33.832 49.2377 25.1903 49.2377M25.1903 47.2198C33.1286 47.2198 40.3636 42.8812 44.0815 35.8185L67.3941 31.5808C67.997 30.0673 69.8057 25.527 69.8057 21.2893C69.7052 15.8409 67.997 10.796 67.3941 9.58528L31.9228 5.34761L30.315 4.84313C22.4772 3.02698 13.936 5.8521 8.81121 12.2086C3.68647 18.5651 2.58113 27.444 5.99763 34.9104C9.51461 42.2759 17.051 47.1189 25.1903 47.2198"/>
	<path fill="#65DFE5" d="M38.3536 25.2243C38.3536 32.3568 32.5952 38.139 25.4919 38.139C18.3886 38.139 12.6303 32.3568 12.6303 25.2243C12.6303 18.0916 18.3886 12.3095 25.4919 12.3095C32.5952 12.3095 38.3536 18.0916 38.3536 25.2243"/>
	<path fill="#2D1B0A" d="M25.4919 39.148C17.8544 39.148 11.6243 32.8924 11.6243 25.2243C11.6243 17.5561 17.8544 11.3005 25.4919 11.3005C33.1283 11.3005 39.3596 17.5561 39.3596 25.2243C39.4589 32.8924 33.2288 39.148 25.4919 39.148M25.4919 13.2175C18.9598 13.2175 13.634 18.5651 13.634 25.1234C13.634 31.6817 18.9598 37.0292 25.4919 37.0292C32.0229 37.0292 37.3487 31.6817 37.3487 25.1234C37.4492 18.5651 32.1234 13.2175 25.4919 13.2175"/>
	<path fill="#2D1B0A" d="M74.5259 14.63C74.3249 14.63 74.0235 14.63 73.8225 14.63L73.8225 12.6121C78.3442 12.713 82.6649 11.5022 86.2822 8.97979L87.3875 10.5941C83.5692 13.2175 79.0475 14.63 74.5259 14.63"/>
	<path fill="#2D1B0A" d="M82.9663 23.2063C80.4543 22.1973 77.7412 21.6928 75.0283 21.7937L75.0283 19.7649C77.9422 19.7649 80.9567 20.2803 83.7701 21.3901L82.9663 23.2063"/>
</svg>
