<?xml version="1.0" encoding="utf-8" ?>
<svg xmlns="http://www.w3.org/2000/svg" xmlns:xlink="http://www.w3.org/1999/xlink" width="52" height="104">
	<path fill="white" d="M13.1365 103.799L13.1365 73.4236C8.94041 66.9865 1.24763 52.8046 0.148666 50.793C-0.151053 49.6867 0 47.9768 0.947916 46.6692C1.74717 45.6634 3.24576 44.4565 6.24295 44.4565C6.54266 44.4565 6.94229 44.4565 7.24201 44.4565C8.34098 44.5571 9.34004 44.7582 10.3391 45.2611L14.5352 47.1721L14.5352 37.5164L12.8368 36.7118C12.1374 36.4101 11.538 36.0077 10.9385 35.706L8.6407 34.1973L6.84238 32.0851C5.64351 30.677 4.64445 29.1683 3.8452 27.4584L2.64632 24.9439L2.2467 22.2282C2.14679 21.323 2.04688 20.3172 2.04688 19.412C2.04688 18.5068 2.14679 17.6015 2.2467 16.6963L2.64632 13.8801L3.74529 11.3656C4.54454 9.65571 5.5436 8.147 6.74248 6.73888L8.54079 4.62669L10.8386 3.11799C12.3372 2.11219 14.0356 1.30754 15.8339 0.804642L18.5314 0L21.2289 0C23.1271 0 24.9254 0.301741 26.7237 0.804642L29.4212 1.60928L31.719 3.11799C33.2176 4.12379 34.6163 5.33075 35.8152 6.73888L37.6135 8.85106L38.8124 11.3656C39.6116 13.0754 40.1112 14.7853 40.311 16.6963L40.7106 19.412L40.311 22.1277C40.0113 23.9381 39.5117 25.7485 38.8124 27.4584L37.7134 29.9729L33.7172 34.7002L39.1121 35.5048C41.0103 35.8066 42.409 36.6112 43.3082 38.1199L44.2073 39.4275L45.8058 39.4275C48.1037 39.528 52 40.4333 52 46.2669C52 58.94 51.7003 67.8917 51.1008 72.8201L50.7012 76.2398L51.0009 104L13.1365 104"/>
	<path fill="#3D2A12" d="M21.4228 37.5165L21.4228 35.5049C23.0217 35.5049 24.5205 35.3037 26.0194 34.8008L26.619 36.7118C24.9202 37.2147 23.2215 37.5165 21.4228 37.5165M16.3267 36.8124C14.6279 36.3095 13.0291 35.6055 11.6302 34.5997L12.7293 32.8898C14.0284 33.6944 15.4273 34.3985 16.9262 34.8008L16.3267 36.8124M31.3155 34.5997L30.2163 32.8898C31.5153 32.0851 32.7144 30.9788 33.7137 29.8724L35.2125 31.1799C34.1134 32.4875 32.8143 33.5938 31.3155 34.5997M7.63314 31.1799C6.53396 29.8724 5.53471 28.3637 4.83523 26.7544L6.63389 25.9497C7.23344 27.3579 8.13277 28.6654 9.13202 29.8724L7.63314 31.1799M38.0105 26.7544L36.2118 25.9497C36.8114 24.5416 37.311 23.0329 37.5108 21.5242L39.5093 21.826C39.2096 23.4352 38.8099 25.1451 38.0105 26.7544M3.33635 21.826C3.1365 20.9207 3.1365 20.0155 3.1365 19.1103C3.1365 18.2051 3.1365 17.4004 3.33635 16.5958L5.33486 16.8975C5.23493 17.6016 5.13501 18.4062 5.13501 19.2109C5.13501 20.0155 5.23493 20.8202 5.33486 21.6248L3.33635 21.826M37.5108 16.7969C37.311 15.2882 36.8114 13.7795 36.2118 12.3714L38.0105 11.5668C38.7099 13.1761 39.2096 14.8859 39.5093 16.5958L37.5108 16.7969M6.63389 12.3714L4.83523 11.5668C5.53471 9.95748 6.53396 8.44878 7.63314 7.14124L9.13202 8.44878C8.03284 9.65574 7.23344 10.9633 6.63389 12.3714M33.7137 8.3482C32.7144 7.14124 31.5153 6.13543 30.2163 5.33079L31.3155 3.62093C32.8143 4.52615 34.1134 5.73311 35.2125 7.04066L33.7137 8.3482M12.5295 5.33079L11.4303 3.62093C12.9292 2.61513 14.528 1.91106 16.1268 1.40816L16.7264 3.31919C15.3274 3.92267 13.8285 4.52615 12.5295 5.33079M26.0194 3.41977C24.5205 3.01745 23.0217 2.71571 21.4228 2.71571L21.3229 0.7041C23.2215 0.7041 24.9202 0.905261 26.519 1.40816L26.0194 3.41977"/>
	<path fill="#FFC5C5" d="M32.9143 19.3114C32.9143 25.7551 27.7247 30.9787 21.3229 30.9787C14.9213 30.9787 9.73165 25.7551 9.73165 19.3114C9.73165 12.8677 14.9213 7.6441 21.3229 7.6441C27.7247 7.6441 32.9143 12.8677 32.9143 19.3114"/>
	<path fill="#2D1B0A" d="M21.3235 31.9845C14.4283 31.9845 8.7323 26.3521 8.7323 19.3114C8.7323 12.3714 14.3284 6.7389 21.3235 6.7389C28.2187 6.7389 33.8161 12.3714 33.8161 19.3114C33.9148 26.2515 28.2187 31.9845 21.3235 31.9845M21.3235 8.75051C15.5276 8.75051 10.7309 13.4778 10.7309 19.3114C10.7309 25.1451 15.4276 29.9729 21.3235 29.9729C27.2194 29.9729 31.8162 25.2457 31.8162 19.3114C31.9162 13.4778 27.1195 8.75051 21.3235 8.75051"/>
	<path fill="#EA5050" d="M27.1185 19.5126C27.1185 22.7344 24.5237 25.3463 21.3229 25.3463C18.122 25.3463 15.5272 22.7344 15.5272 19.5126C15.5272 16.2908 18.122 13.679 21.3229 13.679C24.5237 13.679 27.1185 16.2908 27.1185 19.5126"/>
	<path fill="#2D1B0A" d="M21.3229 26.3521C17.6256 26.3521 14.528 23.3347 14.528 19.5126C14.528 15.6906 17.5257 12.6732 21.3229 12.6732C25.1201 12.6732 28.1179 15.6906 28.1179 19.5126C28.1179 23.3347 25.1201 26.3521 21.3229 26.3521M21.3229 14.7853C18.7248 14.7853 16.5265 16.8975 16.5265 19.6132C16.5265 22.3289 18.6249 24.4411 21.3229 24.4411C24.0209 24.4411 26.1193 22.3289 26.1193 19.6132C26.1193 16.8975 24.0209 14.7853 21.3229 14.7853"/>
	<path fill="#FFE7DC" d="M19.0858 78.855C19.0858 78.855 18.4862 75.6364 16.4878 72.7196C14.1895 70.1045 3.03475 49.8879 3.03475 49.8879C3.03475 49.8879 2.19844 46.971 7.19471 47.2728C12.0911 47.4739 15.0889 54.1122 15.0889 54.1122C15.0889 54.1122 17.6868 60.2476 17.6868 59.9459C17.8867 59.7447 17.6868 22.3289 17.6868 22.3289C17.6868 22.3289 18.2864 19.1103 21.4841 19.1103C24.6817 19.1103 25.2813 22.3289 25.2813 22.3289L25.2813 46.6693L25.8808 37.9188C25.8808 37.9188 26.0991 35.6055 29.2782 35.6055C32.4758 35.6055 33.3752 37.7177 33.3752 37.7177L33.3752 47.0716L34.2745 40.6345C34.2745 40.6345 34.4743 38.0194 38.0716 38.0194C41.4691 38.0194 41.4691 40.6345 41.4691 40.6345L41.4691 47.0716L42.3684 43.853C42.3684 43.853 42.9679 42.1432 45.766 42.1432C48.5639 42.1432 49.1634 43.6519 49.1634 45.9652C49.1634 48.2786 49.1634 71.8144 47.6645 75.0329C46.1656 78.2515 45.566 79.1567 45.566 79.1567L19.0858 78.855"/>
	<path fill="#2D1B0A" d="M46.1784 80.0619L18.2991 79.9613C18.0993 79.1567 17.4998 76.1393 15.7011 73.4236C13.2029 70.5068 2.71082 51.296 2.21119 50.3907C2.02275 50.089 1.71156 48.7815 2.61089 47.5745C3.4103 46.5687 5.0091 46.0658 7.20746 46.267C12.6034 46.5687 15.8011 53.4082 15.9009 53.6093C16.2008 54.2128 16.4006 54.8163 16.7003 55.4198C16.7003 48.178 16.7003 33.0909 16.6004 22.2283C16.9002 20.619 18.1992 18.0039 21.3969 18.0039C24.5944 18.0039 25.8936 20.619 26.1932 22.0271L26.1932 35.4043C26.8927 34.9014 27.8921 34.4991 29.291 34.4991C33.0882 34.4991 34.1874 37.1142 34.2873 37.2147L34.3871 38.2205C35.0867 37.5165 36.2858 36.913 38.0844 36.913C41.5817 36.913 42.4812 39.2263 42.4812 40.5339L42.4812 42.0426C43.1805 41.5397 44.1799 41.0368 45.7787 41.0368C49.7757 41.0368 50.1754 43.7524 50.1754 45.8646C50.1754 53.7099 49.9756 72.2167 48.5765 75.3347C47.0777 78.5532 46.4781 79.4584 46.3783 79.559M19.8979 77.8492L45.0792 77.9497C45.379 77.4468 45.9785 76.3405 46.778 74.4294C47.5774 72.619 48.1768 61.354 48.1768 45.7641C48.1768 43.5513 47.6772 42.9478 45.7787 42.9478C43.7802 42.9478 43.2806 43.9536 43.2806 44.0542L40.4827 54.5145L40.4827 40.4333C40.4827 40.1316 40.2827 38.824 38.0844 38.824C35.4864 38.824 35.2864 40.4333 35.2864 40.5339L34.3871 46.971L32.3886 46.8704L32.3886 37.7176C32.1889 37.3153 31.3895 36.4101 29.291 36.4101C27.1926 36.4101 26.8927 37.6171 26.8927 37.9188L26.2933 46.6693L24.2948 46.5687L24.2948 22.3288C24.1948 21.826 23.5952 20.0155 21.4967 20.0155C19.3983 20.0155 18.7989 21.826 18.6988 22.3288C18.8988 51.1954 18.7989 58.0348 18.5989 59.7447L17.8995 60.7505C17.0001 60.9517 17.0001 60.9517 14.2022 54.3134C14.2022 54.3134 11.4043 48.3791 7.20746 48.178C5.10903 47.9768 4.50947 48.4797 4.30962 48.7815C4.10977 49.0329 4.10977 49.2844 4.10977 49.4855C7.20746 55.2186 15.5013 70.0039 17.2999 72.0155C18.7989 74.3289 19.5983 76.6422 19.8979 77.8492"/>
	<path fill="#FFD071" d="M16.3267 78.855L48.3027 78.855L48.3027 83.2805L16.3267 83.2805L16.3267 78.855"/>
	<path fill="#2D1B0A" d="M49.302 84.3869L15.3274 84.3869L15.3274 77.9497L49.302 77.9497L49.302 84.3869M17.3259 82.3753L47.3035 82.3753L47.3035 79.9613L17.3259 79.9613L17.3259 82.3753"/>
	<path fill="#443C2C" d="M16.2266 85.3927L48.2027 85.3927L48.2027 100.681L16.2266 100.681L16.2266 85.3927"/>
	<path fill="#2D1B0A" d="M49.7018 102.19L14.7279 102.19L14.7279 83.884L49.7018 83.884L49.7018 102.19M17.7257 99.1722L46.704 99.1722L46.704 86.9014L17.7257 86.9014L17.7257 99.1722"/>
</svg>
