<?xml version="1.0" encoding="utf-8" ?>
<svg xmlns="http://www.w3.org/2000/svg" xmlns:xlink="http://www.w3.org/1999/xlink" width="112" height="56">
	<path fill="white" d="M78.5488 56C75.1241 56 71.3973 54.9855 67.1668 53.058C63.1377 51.5362 59.6123 50.7246 56.2883 50.7246C54.2738 50.7246 51.3527 51.4348 48.0287 52.3478C44.5033 53.2609 40.4743 54.2754 37.7546 54.2754C33.0205 54.1739 30.2002 52.4493 27.2791 50.6232C25.5667 49.6087 20.0268 46.8696 16.4006 46.6667C16.1992 46.6667 16.0985 46.6667 15.897 46.6667C14.4868 46.6667 12.4723 46.971 10.2563 47.2754C7.93962 47.5797 5.32073 47.9855 3.50765 47.9855C2.50039 47.9855 2.09748 47.8841 2.09748 47.8841C0.485862 47.1739 -0.622129 44.1304 0.385136 41.2899C0.586588 40.7826 0.888768 40.3768 1.09022 40.0725C1.99676 38.8551 4.21274 37.8406 9.85342 36.0145C14.9905 34.087 21.3362 32.1594 25.0631 31.2464L26.6747 30.8406L26.574 29.1159C26.574 29.0145 25.8689 17.9565 34.1285 9.02899C38.359 4.86957 44.7048 0 55.3818 0C55.6839 0 55.8854 0 56.1876 0C84.8946 0.608696 85.8011 25.8696 85.7004 30.942L85.7004 32.4638L87.2113 32.8696C94.0607 34.8986 109.774 44.3333 109.875 44.4348C111.083 45.2464 112.393 46.5652 112 48.3913C111.285 50.3188 108.968 51.7391 106.45 51.7391C105.745 51.7391 105.141 51.6377 104.436 51.4348C102.925 50.7246 101.212 50.4203 99.3992 50.4203C95.6723 50.4203 92.2476 51.8406 90.3338 52.5507C90.0317 52.6522 89.8302 52.7536 89.6287 52.8551C89.3266 52.9565 88.9237 53.1594 88.42 53.3623C86.1033 54.3768 82.2757 56 78.5488 56"/>
	<path fill="#FF6F64" d="M29.2372 27.7972C28.7717 16.232 37.63 2.73921 55.7493 3.0385C73.8686 3.3479 82.7269 13.1885 82.5288 30.7392C81.3176 40.174 66.0169 36.0146 56.9571 35.8117C47.5956 35.3044 28.2684 39.1595 29.2372 27.7972"/>
	<path fill="#2D1B0A" d="M71.7515 37.8406C68.9314 37.8406 66.0107 37.5362 63.2914 37.2318C60.9749 37.0289 58.7592 36.8259 56.8456 36.7245C54.8313 36.623 52.3134 36.7245 49.6948 36.8259C42.1411 37.1303 33.681 37.4347 29.9546 33.4775C28.5445 31.9555 27.9402 30.0276 28.1039 27.6939C27.8395 21.0985 30.3574 14.6046 35.091 9.83561C38.6161 6.18278 45.1626 1.81969 55.7377 2.0158C74.1686 2.32703 83.7366 12.2708 83.5383 30.7379C82.7294 36.5215 77.6937 37.8406 71.7515 37.8406M54.8313 34.6951C55.5363 34.6951 56.2413 34.6951 56.9463 34.6951C58.8599 34.6951 61.1763 34.9995 63.4928 35.2024C73.4636 36.2171 80.7151 36.5215 81.4201 30.5349C81.6216 13.184 72.96 4.25491 55.637 3.9505C45.7669 3.74757 39.8247 7.80626 36.5011 11.1547C32.271 15.5178 29.9546 21.7073 30.156 27.5924C29.9546 29.6217 30.3574 31.0423 31.3646 32.057C34.4867 35.3039 42.8461 34.9995 49.5941 34.7966C51.5077 34.7966 53.3205 34.6951 54.8313 34.6951"/>
	<path fill="#E52020" d="M28.5703 32.8697C28.5703 32.8697 48.9041 39.5653 83.532 35.0001C89.4711 35.5073 106.684 45.348 106.684 45.348C106.684 45.348 108.798 48.6958 103.865 48.4929C98.8327 47.9855 101.249 45.348 93.397 48.29C85.5453 50.9277 81.2168 56.5074 68.332 50.4203C55.4472 44.6378 47.2935 49.7103 40.3478 51.1306C33.4021 52.5508 30.0802 47.9855 23.6378 45.1451C17.1954 42.3044 10.2497 44.4349 6.42453 45.348C2.59935 46.261 2.39803 43.6233 3.10266 41.6957C3.20333 40.0726 28.5703 32.8697 28.5703 32.8697"/>
	<path fill="#2D1B0A" d="M78.7043 54.1741C75.7854 54.1741 72.2627 53.3625 67.9348 51.3335C58.1718 46.9712 51.3277 49.0002 45.2888 50.8263C43.6784 51.3335 42.1687 51.7393 40.6589 52.1451C35.4252 53.1596 32.1037 51.1306 28.4804 48.8987C26.87 47.8842 25.2596 46.9712 23.3473 46.0581C17.7109 43.6234 11.7726 45.0437 7.84733 46.0581L6.84084 46.261C4.92851 46.6668 3.51942 46.4639 2.71423 45.4495C1.9605 44.5364 1.70774 43.0147 2.31163 41.3915C2.41228 40.4784 4.12331 38.7538 28.4804 31.8552C29.2856 31.9567 49.6167 38.4494 83.6361 33.9857C89.8763 34.4929 106.685 44.0292 107.39 44.435C107.792 44.9422 108.799 46.5654 107.993 47.9857C107.39 49.0002 106.081 49.5074 103.968 49.406C101.954 49.2031 100.948 48.6958 100.243 48.29C99.2367 47.7828 98.5321 47.377 93.9023 49.1016C92.1912 49.7103 90.5808 50.4205 89.0711 51.1306C85.7497 52.7538 82.6296 54.1741 78.7043 54.1741M56.4608 46.6668C60.0842 46.6668 64.1101 47.377 68.74 49.5074C78.3017 54.0726 82.8309 51.9422 88.0646 49.5074C89.675 48.7973 91.2854 47.9857 93.0971 47.377C98.3308 45.4495 99.438 45.7538 101.048 46.6668C101.753 47.0726 102.458 47.377 104.068 47.5799C105.377 47.6813 106.081 47.377 106.182 47.1741C106.283 46.9712 106.182 46.5654 106.081 46.261C103.968 45.0437 89.0711 36.7248 83.7367 36.2176C51.6297 40.4784 31.3992 34.8987 28.7823 34.0871C17.7109 37.2321 5.7337 41.0871 4.22396 42.3045C3.92202 43.2176 3.92202 44.0292 4.22396 44.435C4.52591 44.7393 5.3311 44.8408 6.43824 44.5364L7.44473 44.3335C11.37 43.319 18.0129 41.6958 24.2531 44.435C26.2661 45.348 27.9771 46.3625 29.5875 47.377C33.1102 49.5074 35.9284 51.2321 40.357 50.319C41.7661 50.0147 43.2758 49.6089 44.8862 49.1016C48.0063 47.7828 51.831 46.6668 56.4608 46.6668"/>
	<path fill="#EEF6FF" d="M30.3823 35.2029C30.3823 35.2029 51.7227 43.9276 80.8142 36.9275C81.0155 34.6956 80.6129 31.6522 80.6129 31.6522C80.6129 31.6522 59.9771 36.9275 30.4829 30.029C29.9796 32.971 30.3823 35.2029 30.3823 35.2029"/>
	<path fill="white" d="M61.9903 33.5823C61.9903 32.1594 63.1983 30.7392 64.8089 30.7392C66.2182 30.7392 67.6274 31.9565 67.6274 33.5823C67.6274 35 66.4195 36.4254 64.8089 36.4254C62.8963 36.5218 61.9903 35.1015 61.9903 33.5823"/>
	<path fill="#FED6E5" d="M66.5202 33.8841C66.5202 32.6667 67.4262 31.9566 68.4328 31.9566C69.6407 31.9566 70.3454 32.8696 70.3454 33.8841C70.3454 35.1015 69.4394 35.8116 68.4328 35.8116C67.2248 35.8116 66.5202 34.7971 66.5202 33.8841"/>
</svg>
