<?xml version="1.0" encoding="utf-8" ?>
<svg xmlns="http://www.w3.org/2000/svg" xmlns:xlink="http://www.w3.org/1999/xlink" width="86" height="96">
	<path fill="white" d="M66.7366 96L18.9642 96C17.6676 96 16.3711 95.8004 15.0746 95.501C10.2873 95.4012 6.79666 94.2037 4.30331 91.8087C0.21423 87.9168 0 82.1289 0 77.0395L0.21423 61.6715C0.21423 60.7734 0.21423 58.9771 1.51077 57.58C2.50811 56.3825 4.00411 55.684 5.69958 55.4844L7.19559 24.948C7.39506 17.0644 13.778 10.8773 21.657 10.8773L25.4469 10.8773C25.3471 4.88981 29.7354 0.299376 35.3205 0L50.2806 0C53.2726 0 55.9654 1.2973 57.8603 3.49272C59.5558 5.48857 60.5531 8.08316 60.5531 10.6778L64.343 10.7775C72.222 10.7775 78.6049 16.9647 78.8044 24.8482L80.2007 54.7859C81.8962 54.9854 83.4919 55.684 84.4892 56.8815C85.686 58.2786 85.7858 60.0748 85.7858 60.973L86 76.341C86 81.4304 85.7858 87.3181 81.6967 91.1102C79.4028 93.2058 76.4108 94.4033 72.4215 94.7027C70.726 95.4012 68.9308 95.7006 67.0358 95.7006M50.1808 10.8773C50.1808 10.6778 50.1808 10.4782 50.0811 10.2786L35.8192 10.2786C35.8192 10.2786 35.7194 10.3784 35.7194 10.3784L50.1808 10.7775"/>
	<path fill="#FFCF48" d="M82.3948 58.5781C82.8935 59.1768 82.8935 59.9752 82.8935 60.7735C82.9932 65.8629 82.9932 71.052 83.093 76.1414C83.1927 80.6321 82.9932 85.6217 79.702 88.7152C76.71 91.5094 72.222 91.709 68.1329 91.5094C68.2327 90.5116 69.23 89.9128 70.0279 89.2142C72.1223 87.3181 72.3217 84.1248 72.8204 81.3307C73.5185 77.2392 75.1143 73.3472 76.1116 69.2558C76.5106 67.5593 76.8098 65.7631 76.9095 63.9668C76.9095 62.5697 76.3111 60.4741 76.6103 59.1768C77.2087 57.0812 80.8988 56.8816 82.3948 58.5781"/>
	<path fill="#2D1B0A" d="M70.3293 92.6072C69.5309 92.6072 68.7325 92.6072 68.0339 92.5074L67.1357 91.4097C67.2355 90.2122 68.1337 89.4138 68.8323 88.8151C69.0319 88.7153 69.1317 88.5157 69.2315 88.4159C70.8283 87.0188 71.2275 84.6238 71.5269 82.2288C71.6267 81.8296 71.6267 81.4305 71.7265 81.0313C72.1257 78.5365 72.9241 76.2413 73.6227 73.8463C74.1217 72.2496 74.6208 70.5531 75.02 68.8567C75.5266 66.9606 75.7186 65.2641 75.7186 63.7673C75.7186 63.2683 75.6188 62.6695 75.5266 62.0708C75.3194 60.9731 75.2196 59.7756 75.5266 58.7777C75.8184 57.5802 76.8164 56.7818 78.3135 56.3827C80.1098 55.9835 82.0061 56.5822 83.0041 57.7797C83.8025 58.6779 83.8025 59.7756 83.8025 60.5739L84.0173 75.9419C84.1019 80.6321 83.8025 85.9211 80.3094 89.314C77.7146 92.0084 73.9221 92.6072 70.3293 92.6072M69.9301 90.6113C73.3233 90.7111 76.7166 90.2122 79.1118 88.0167C82.0061 85.2226 82.2057 80.6321 82.2057 76.1415L82.0061 60.7735C82.0061 60.1747 82.0061 59.576 81.7066 59.2766C81.1078 58.6779 79.9102 58.2787 78.9122 58.5781C78.6129 58.6779 77.8143 58.8774 77.6148 59.576C77.4152 60.1747 77.6148 61.0729 77.7146 62.0708C77.8143 62.7693 77.9142 63.4679 77.9142 64.1664C77.8143 65.8629 77.6148 67.6592 77.1158 69.655C76.7166 71.3515 76.2176 73.0479 75.7186 74.7444C75.02 77.0396 74.3214 79.3348 73.9221 81.6301C73.8223 82.0292 73.8223 82.3286 73.7225 82.7278C73.3233 85.2226 72.8243 88.1165 70.7285 90.0126C70.5289 90.1124 70.4291 90.312 70.2295 90.4118C70.0299 90.5116 70.0299 90.5116 69.9301 90.6113"/>
	<path fill="#FFCF48" d="M3.81379 59.0771C3.31512 59.6758 3.31512 60.4742 3.31512 61.2725C3.21539 66.3619 3.21539 71.551 3.09732 76.6404C3.09732 81.1311 3.21539 86.1208 6.5066 89.2142C9.49861 92.0085 13.9866 92.2081 18.0757 92.0085C17.976 91.0105 16.9786 90.4117 16.1808 89.7132C14.0863 87.8171 13.8869 84.6238 13.3882 81.8297C12.6901 77.7381 11.0943 73.8463 10.097 69.7549C9.69808 68.0583 9.39888 66.2621 9.29915 64.4658C9.29915 63.0687 9.89755 60.9731 9.59835 59.6758C8.99994 57.5802 5.3098 57.3806 3.81379 59.0771"/>
	<path fill="#2D1B0A" d="M15.8724 93.1062C12.3818 93.1062 8.49211 92.5074 5.7993 90.0126C2.30862 86.7195 2.10915 81.4305 2.10915 76.6405L2.30862 61.2725C2.30862 60.4742 2.30862 59.3765 3.10649 58.4783C4.20356 57.2808 6.0985 56.6821 7.79397 57.0813C9.19024 57.3806 10.1876 58.2788 10.5865 59.4763C10.8857 60.4742 10.6862 61.6717 10.5865 62.7694C10.4868 63.3681 10.387 64.0667 10.387 64.4659C10.387 65.9628 10.6862 67.6592 11.0852 69.5553C11.4841 71.2517 11.9828 72.9482 12.4815 74.5449C13.1796 76.8401 13.8778 79.2351 14.3764 81.7299C14.4761 82.1291 14.4761 82.5282 14.5758 82.9274C14.9748 85.2226 15.3737 87.6176 16.8698 89.1145C16.9694 89.2143 17.1689 89.4139 17.2687 89.5137C17.9669 90.1124 18.9641 90.9108 18.9641 92.1083L18.0666 93.206C17.3685 93.0064 16.5705 93.1062 15.8724 93.1062M4.60249 59.6758C4.30329 59.9752 4.30329 60.574 4.30329 61.1727L4.10382 76.5407C4.00409 81.0314 4.20356 85.6218 7.19557 88.416C9.48945 90.6114 12.9802 91.0106 16.371 91.0106C16.2714 90.9108 16.1716 90.9108 16.0718 90.811C15.8724 90.7112 15.6729 90.5116 15.5732 90.4118C13.4788 88.5158 13.0799 85.6218 12.5812 83.127C12.4815 82.7278 12.4815 82.3287 12.3818 82.0293C11.9828 79.7341 11.2846 77.339 10.5865 75.1436C10.0879 73.4472 9.58918 71.7507 9.19024 70.0542C8.69158 68.0584 8.39238 66.1623 8.39238 64.5657C8.39238 63.9669 8.49211 63.1686 8.59184 62.47C8.69158 61.5719 8.89104 60.574 8.69158 59.9752C8.49211 59.3765 7.69424 59.0771 7.39504 58.9773C6.29797 58.7777 5.10116 59.0771 4.60249 59.6758"/>
	<path fill="#99CC62" d="M10.1377 24.6934L7.44485 81.4751C7.64432 87.8617 12.9302 92.8513 19.2135 92.6575L66.7864 92.6575C73.0696 92.7515 78.3555 87.7619 78.5549 81.4751L75.8621 24.6934C75.6628 18.3067 70.3768 13.3171 64.0937 13.5109L21.9063 13.5109C15.623 13.3171 10.3371 18.3067 10.1377 24.6934"/>
	<path fill="#2D1B0A" d="M18.9143 93.6051C12.2322 93.6051 6.64707 88.2159 6.4476 81.4297L9.14041 24.6445C9.33988 17.8582 14.925 12.4638 21.6071 12.4638C21.7069 12.4638 21.8066 12.4638 21.9063 12.4638L64.0937 12.4638C70.9753 12.2695 76.6601 17.7584 76.8596 24.6445L79.5524 81.4297C79.353 88.3157 73.7679 93.7048 67.0857 93.7048C66.986 93.7048 66.8862 93.7048 66.7865 93.7048L19.2135 93.7048C19.1138 93.6051 19.0141 93.6051 18.9143 93.6051M21.7069 14.3652C16.022 14.3652 11.3345 18.956 11.1351 24.6445L8.44227 81.4297C8.64174 87.1182 13.429 91.7089 19.2135 91.6091L66.8862 91.6091C72.6708 91.7089 77.458 87.1182 77.6575 81.3299L74.9647 24.6445C74.7652 18.8562 69.978 14.2654 64.1934 14.3652L22.0061 14.3652C21.8066 14.3652 21.8066 14.3652 21.7069 14.3652"/>
	<path fill="#FFE161" d="M22.3551 68.5587L22.3551 92.0098L63.8443 92.0098L63.8443 68.5587C63.8443 65.7645 61.5505 63.5659 58.8576 63.5659L27.3417 63.5659C24.5492 63.5659 22.3551 65.7645 22.3551 68.5587"/>
	<path fill="#2D1B0A" d="M64.8415 93.0062L21.3576 93.0062L21.3576 68.5571C21.3576 65.264 24.0504 62.5696 27.3416 62.5696L58.8575 62.5696C62.1487 62.5696 64.8415 65.264 64.8415 68.5571L64.8415 93.0062M23.3523 91.0103L62.8468 91.0103L62.8468 68.5571C62.8468 66.3617 61.0516 64.5654 58.8575 64.5654L27.3416 64.5654C25.1475 64.5654 23.3523 66.3617 23.3523 68.5571L23.3523 91.0103"/>
	<path fill="#2D1B0A" d="M32.8272 14.1705L32.8272 10.079C32.8272 8.48232 34.024 7.08523 35.6198 6.88565L50.3803 6.88565C51.1782 6.88565 51.8764 7.18503 52.375 7.88357C52.9734 8.58212 53.2727 9.48024 53.2727 10.4782L53.2727 14.2703L57.6609 14.2703L57.6609 10.3784C57.6609 8.38253 56.9627 6.48648 55.6662 5.08939C54.3697 3.49272 52.375 2.59459 50.3803 2.59459L35.6198 2.59459C31.6304 2.79417 28.636 6.08731 28.636 10.079L28.636 14.1705L32.8272 14.1705"/>
	<path fill="#FFE161" d="M50.0811 44.8065L36.4176 44.8065C27.3418 44.8065 19.9615 37.422 19.9615 28.3409L19.9615 13.7713L66.5372 13.7713L66.5372 28.3409C66.5372 37.422 59.2566 44.8065 50.0811 44.8065"/>
	<path fill="#2D1B0A" d="M50.0811 45.8046L36.4176 45.8046C26.8432 45.8046 18.9642 37.921 18.9642 28.341L18.9642 12.7734L67.5345 12.7734L67.5345 28.341C67.5345 38.0208 59.7553 45.8046 50.0811 45.8046M21.0586 14.7692L21.0586 28.341C21.0586 36.8233 28.04 43.8087 36.5173 43.8087L50.1809 43.8087C58.6582 43.8087 65.6396 36.8233 65.6396 28.341L65.6396 14.7692L21.0586 14.7692"/>
	<path fill="#99CC62" d="M45.9921 35.8254L40.7062 35.8254C34.024 35.8254 28.6384 30.4366 28.6384 23.7505L28.6384 13.9709L58.0599 13.9709L58.0599 23.7505C57.9601 30.4366 52.5745 35.8254 45.9921 35.8254"/>
	<path fill="#2D1B0A" d="M45.992 36.8232L40.7061 36.8232C33.5253 36.8232 27.641 30.9355 27.641 23.7504L27.641 12.9729L59.0571 12.9729L59.0571 23.7504C58.9574 30.9355 53.1728 36.8232 45.992 36.8232M29.6357 15.0685L29.6357 23.8502C29.6357 29.9376 34.6224 34.9272 40.7061 34.9272L45.992 34.9272C52.0758 34.9272 57.0625 29.9376 57.0625 23.8502L57.0625 15.0685L29.6357 15.0685"/>
</svg>
