<?xml version="1.0" encoding="utf-8" ?>
<svg xmlns="http://www.w3.org/2000/svg" xmlns:xlink="http://www.w3.org/1999/xlink" width="88" height="88">
	<path fill="white" d="M65.9251 88C64.1271 88 62.0295 87.6997 59.5323 86.9989C53.9387 85.1968 49.244 81.2924 46.4472 76.0865C45.8479 74.8851 45.4484 74.1843 45.2486 73.5836L43.5505 68.1775L41.5528 73.083C39.9546 75.9863 36.4586 79.7907 35.2599 80.4915L32.2633 82.3936C28.9671 84.0956 25.5709 84.9966 22.2747 84.9966C13.9841 84.9966 6.49262 80.5916 2.59705 73.3834C0.898978 70.2799 0 66.6758 0 62.8714C0 54.7622 4.39501 47.2537 11.5868 43.3493C14.8831 41.6473 18.3791 40.7463 21.8751 40.7463C23.8729 40.7463 26.1703 41.1468 28.7673 42.0478L33.6617 43.6496L22.3746 23.4266C20.8763 20.7235 20.1771 17.4198 20.3768 14.5165C20.5766 9.31058 23.5732 4.50512 28.2679 2.00228L31.7639 0L34.0613 3.30375L45.4484 24.1274L58.7333 3.50398L60.731 0.500569L63.8275 2.50284C68.1226 5.30603 70.7196 10.2116 70.7196 15.4175C70.9194 18.521 70.1203 21.5245 68.2225 24.3276L55.5369 44L56.336 45.2514C59.1328 44.1502 62.6288 43.3493 65.9251 43.4494C67.723 43.5495 69.8207 43.7497 72.3178 44.4505C77.9115 46.2526 82.6061 50.157 85.403 55.3629C87.101 58.4664 88 62.0705 88 65.8749C88 67.6769 87.7003 69.7793 87.0011 72.2821C85.2032 77.8885 81.3076 82.5939 76.1135 85.397C72.8173 87.099 69.4211 88 66.1249 88"/>
	<path fill="#DDD" d="M55.437 49.9566L30.1657 4.505C24.2724 7.80875 21.975 15.1171 25.471 21.1239L47.546 61.2695C47.546 61.0693 47.7458 60.4686 47.7458 60.1683C49.3439 55.8634 52.1407 52.4595 55.437 49.9566"/>
	<path fill="#2D1B0A" d="M48.5426 65.1741L46.6443 61.6702L24.5635 21.5245C22.8242 18.5211 22.3654 15.0171 23.2646 11.7134C24.1638 8.30952 26.4618 5.40622 29.6591 3.60417L56.7355 50.1571C52.639 53.2606 50.1412 56.5644 48.7424 60.2686C48.7424 60.4688 48.6425 60.669 48.6425 60.8692C48.6425 60.9694 48.5426 61.0695 48.5426 61.1696L48.5426 65.1741M29.759 5.90679C27.461 7.40849 25.8624 9.71111 25.163 12.3141C24.3637 15.1173 24.7633 18.1207 26.262 20.6235L47.2437 58.7669C48.7424 55.363 51.0404 52.2595 54.1377 49.7566L29.759 5.90679"/>
	<path fill="#DDD" d="M61.6301 5.10595L33.1624 48.355C35.1602 49.7566 36.8582 51.6588 37.8571 54.2618C38.9559 56.264 39.5552 58.1662 39.8549 60.3687L64.9263 22.3256C69.0217 16.5189 67.3237 8.81016 61.6301 5.10595"/>
	<path fill="#2D1B0A" d="M39.3553 63.1719L38.9557 60.669C38.5562 58.4665 38.0568 56.6645 37.0579 54.8624C36.059 52.5598 34.6606 50.7578 32.6629 49.256L61.4302 3.8044C65.2259 6.20713 67.2236 9.21054 67.9228 12.7145C68.622 16.3186 67.9228 19.9227 65.8252 23.0262L39.3553 63.1719M34.5607 48.1548C36.4586 49.7566 37.9569 51.5587 38.8559 53.9614C39.5551 55.2629 40.0545 56.5644 40.454 57.9659L64.227 21.925C66.025 19.322 66.6243 16.2185 66.025 13.115C65.5255 10.512 64.0273 8.20941 62.0295 6.60759L34.5607 48.1548"/>
	<path fill="white" d="M47.8456 43.4494C47.8456 45.4952 46.1909 47.1536 44.1498 47.1536C42.1087 47.1536 40.454 45.4952 40.454 43.4494C40.454 41.4036 42.1087 39.7452 44.1498 39.7452C46.1909 39.7452 47.8456 41.4036 47.8456 43.4494"/>
	<path fill="#89C5E5" d="M82.0972 56.5422C79.8997 51.937 75.8043 48.8334 71.0098 47.4318C66.2152 46.0302 61.121 46.6778 56.726 48.8334C52.331 51.2361 49.0348 55.9415 47.6364 59.8459C47.6364 60.0462 47.4366 60.6469 47.4366 60.9472C46.3378 65.5524 46.8779 70.0575 49.1347 74.062C51.3321 78.6674 55.4275 81.7708 60.2221 83.1724C62.2198 83.7731 63.9179 83.9734 65.9156 83.9734C68.7124 83.9734 71.9088 83.1724 74.4059 81.7708C79.0007 79.5683 82.0972 75.4637 83.4956 70.6582C84.9939 65.8528 84.3946 60.847 82.0972 56.5422"/>
	<path fill="#2D1B0A" d="M65.8248 84.9966C63.7271 84.9966 61.9291 84.6964 59.8315 84.096C54.5374 82.495 50.342 79.093 48.1445 74.4902C45.8433 70.4877 45.2477 65.6848 46.4464 60.7818C46.4464 60.5817 46.5463 60.3816 46.5463 60.0814C46.5463 59.9813 46.6462 59.8813 46.6462 59.7812C48.0446 55.7788 51.3409 50.5756 56.3354 47.974C61.0301 45.6548 66.4241 44.9722 71.4185 46.4731C76.7126 47.974 80.908 51.4761 83.1055 56.0789C85.5028 60.6817 86.0023 66.085 84.504 70.888C83.0056 76.1912 79.5095 80.2937 74.9146 82.5951C72.2177 84.096 68.8214 84.9966 65.8248 84.9966M48.6439 60.0814C48.6439 60.2815 48.544 60.4816 48.544 60.6817C48.544 60.7818 48.4442 60.8819 48.4442 60.9819C47.4453 65.6848 47.9447 69.8874 50.0424 73.5896C52.14 77.8922 55.736 80.794 60.5307 82.1949C62.4286 82.7952 64.0268 82.9953 65.9247 82.9953C68.6217 82.9953 71.6183 82.1949 73.9158 80.8941C78.211 78.7928 81.1077 75.1906 82.5062 70.3877C83.9046 66.085 83.5051 61.1821 81.3075 57.0796C79.3097 52.877 75.6139 49.8752 70.8192 48.4743C66.3242 47.1735 61.5296 47.6738 57.2344 49.7751C52.8393 52.1766 49.8426 56.7794 48.6439 60.0814"/>
	<path fill="white" d="M75.6141 65.2742C75.6141 70.6927 71.2314 75.0854 65.8252 75.0854C60.4189 75.0854 56.0363 70.6927 56.0363 65.2742C56.0363 59.8557 60.4189 55.4631 65.8252 55.4631C71.2314 55.4631 75.6141 59.8557 75.6141 65.2742"/>
	<path fill="#89C5E5" d="M38.4621 53.8612C36.1648 49.256 32.2692 46.2526 27.2749 44.851C22.4803 43.4494 17.3861 44.097 12.9911 46.2526C8.69598 48.5552 5.29983 53.2605 3.90142 57.165C3.90142 57.3652 3.70165 57.9659 3.70165 58.2662C2.6029 62.8715 3.1391 67.2765 5.29983 71.281C7.59722 75.8862 11.4928 78.8897 16.4871 80.2912C18.4849 80.8919 20.1829 81.0922 22.0808 81.0922C24.9775 81.0922 28.074 80.2912 30.5711 78.8897C35.1659 76.6872 38.2624 72.6826 39.6608 67.8771C41.3589 63.0717 40.8594 58.066 38.4621 53.8612"/>
	<path fill="#2D1B0A" d="M22.0709 81.9932C20.0728 81.9932 18.1745 81.6929 16.1764 81.0922C10.8813 79.5905 6.78514 76.2867 4.38738 71.5814C2.1522 67.5768 1.58998 62.8715 2.68896 57.9659C2.68896 57.7657 2.78887 57.5655 2.78887 57.2651C2.78887 57.165 2.88877 57.0649 2.88877 56.9648C4.38738 52.76 7.88412 47.7543 12.5797 45.2515C17.1755 42.8487 22.6704 42.3482 27.5658 43.7498C32.8609 45.2515 36.957 48.5552 39.3548 53.2606C41.8525 57.8658 42.352 63.1718 40.6536 67.9773C39.155 73.0831 35.7582 77.2879 31.0625 79.5905C28.365 81.1923 25.168 81.9932 22.0709 81.9932M4.88691 57.3652C4.88691 57.5655 4.78701 57.7657 4.78701 57.9659C4.78701 58.066 4.6871 58.1661 4.6871 58.2663C3.68803 62.9716 4.18756 67.0763 6.1857 70.7805C8.38366 75.0854 11.9803 77.9887 16.7758 79.2902C18.5742 79.7907 20.2726 80.0911 22.0709 80.0911C24.7684 80.0911 27.6657 79.3903 30.1634 77.9887C34.3595 75.8863 37.4566 72.2822 38.7554 67.5768C40.254 63.2719 39.8543 58.4665 37.5565 54.4619C35.3585 50.157 31.7619 47.3539 26.9664 45.9523C22.5704 44.6508 17.5751 45.1514 13.4789 47.2537C9.28282 49.3561 6.1857 53.8613 4.88691 57.3652"/>
	<path fill="white" d="M31.4643 62.7713C31.4643 68.1898 27.0816 72.5825 21.6754 72.5825C16.2691 72.5825 11.8865 68.1898 11.8865 62.7713C11.8865 57.3528 16.2691 52.9602 21.6754 52.9602C27.0816 52.9602 31.4643 57.3528 31.4643 62.7713"/>
</svg>
