<?xml version="1.0" encoding="utf-8" ?>
<svg xmlns="http://www.w3.org/2000/svg" xmlns:xlink="http://www.w3.org/1999/xlink" width="94" height="88">
	<path fill="white" d="M92.3807 70.9418L92.3807 69.4367C92.3807 66.4265 89.968 64.0182 86.9521 64.0182L86.751 45.5553L71.4705 45.5553L71.4705 25.3865L39.7031 25.3865L39.7031 45.5553L26.0311 45.5553L25.9306 9.83352C25.9306 8.72976 25.4279 7.02395 23.2163 5.51881L7.3326 0.401368C6.42784 0 5.72413 0 5.32201 0C3.21089 0 1.30082 1.40479 0.396058 3.51197C-0.20712 4.91676 -0.10659 6.52223 0.597117 7.82668C1.30082 9.03079 2.40665 9.93387 3.81407 10.2349L15.375 13.8472L15.576 67.5302C12.4596 69.5371 10.5496 73.049 10.5496 76.862C10.5496 82.8826 15.6766 88 21.7083 88C27.7401 88 32.8671 82.8826 32.8671 76.862C32.8671 76.862 32.8671 76.7617 32.8671 76.7617L71.6716 76.6613C71.6716 76.7617 71.6716 76.862 71.6716 76.862C71.6716 82.8826 76.7986 88 82.8304 88C88.8621 88 94 82.8826 94 76.862C94 74.7548 93.4865 72.748 92.3807 70.9418M56.8937 64.1186L55.6874 64.1186L55.6874 49.9704L56.8937 49.9704L56.8937 64.1186"/>
	<path fill="#A0A0A0" d="M5.28333 2.7092C4.37856 2.7092 3.57432 3.41159 3.1722 4.41502C2.66955 5.61912 3.37326 6.82323 4.57962 7.02391L18.4527 11.3386L18.6538 72.5473C19.6591 73.049 20.3628 73.4504 21.0665 73.4504L86.9134 73.2497C88.1198 73.2497 89.3261 72.3466 89.3261 70.8415L89.3261 69.1357C89.3261 67.9315 88.4213 66.7274 86.9134 66.7274L22.9765 66.9281L22.7755 9.53246C22.7755 8.83007 22.0718 8.12767 21.3681 7.62596L6.08756 2.90988C5.78597 2.7092 5.48438 2.7092 5.28333 2.7092"/>
	<path fill="#2D1B0A" d="M21.1165 74.4538C20.3124 74.4538 19.5083 74.1528 18.8047 73.5507L17.6991 73.5507L17.498 12.041L4.43132 7.92701C3.62722 7.72632 2.82311 7.22461 2.42106 6.52222C2.0646 5.71948 1.91849 4.8164 2.32055 4.01367C2.92363 2.60888 4.02927 1.7058 5.33594 1.7058C5.53697 1.7058 6.03954 1.7058 6.5421 2.00683L21.8201 6.7229C22.7247 7.4253 23.7299 8.32838 23.7299 9.53248L23.9309 65.9247L86.8522 65.724C88.9629 65.724 90.2696 67.4299 90.2696 69.1357L90.2696 70.8415C90.2696 72.9487 88.5609 74.2531 86.8522 74.2531L21.1165 74.4538M19.7093 71.6442C20.3124 72.2463 20.7145 72.447 21.1165 72.447L86.9527 72.2463C87.6563 72.2463 88.3599 71.7446 88.3599 70.8415L88.3599 69.1357C88.3599 68.4333 87.8573 67.7309 86.9527 67.7309L22.0211 67.9316L21.8201 9.53248C21.8201 9.43214 21.6191 9.03077 20.9155 8.52906L5.53697 3.71264C5.53697 3.71264 5.43646 3.71264 5.33594 3.71264C4.93389 3.71264 4.43132 4.11401 4.12978 4.8164C4.02927 5.11743 4.02927 5.41846 4.12978 5.61914C4.2303 5.81983 4.43132 6.02051 4.73286 6.02051L19.4078 10.5359L19.7093 71.6442"/>
	<path fill="#210D08" d="M29.9518 76.561C29.9518 80.8757 26.3327 84.6887 21.8089 84.6887C17.4861 84.6887 13.666 81.0764 13.666 76.561C13.666 72.0456 17.2851 68.4333 21.8089 68.4333C26.3327 68.4333 29.9518 72.2463 29.9518 76.561"/>
	<path fill="#2D1B0A" d="M21.8089 85.6921C16.8829 85.6921 12.6607 81.4777 12.6607 76.561C12.6607 71.5439 16.7824 67.4298 21.8089 67.4298C26.7348 67.4298 30.9571 71.6442 30.9571 76.561C30.9571 81.4777 26.7348 85.6921 21.8089 85.6921M21.8089 69.4367C17.8882 69.4367 14.6713 72.6476 14.6713 76.561C14.6713 80.3739 17.9888 83.6852 21.8089 83.6852C25.629 83.6852 28.9465 80.3739 28.9465 76.561C28.9465 72.748 25.629 69.4367 21.8089 69.4367"/>
	<path fill="white" d="M26.3327 76.6613C26.2321 79.0695 24.3221 80.8757 21.9094 80.8757C19.4967 80.8757 17.6871 78.8689 17.6871 76.4607C17.7877 74.0525 19.6977 72.2463 22.1104 72.2463C24.5231 72.3466 26.3327 74.2531 26.3327 76.6613"/>
	<path fill="#210D08" d="M91.0738 76.561C91.0738 80.8757 87.4547 84.6887 82.9309 84.6887C78.6081 84.6887 74.788 81.0764 74.788 76.561C74.788 72.0456 78.4071 68.4333 82.9309 68.4333C87.4547 68.4333 91.0738 72.2463 91.0738 76.561"/>
	<path fill="#2D1B0A" d="M82.9309 85.6921C78.0049 85.6921 73.7827 81.4777 73.7827 76.561C73.7827 71.5439 77.9044 67.4298 82.9309 67.4298C87.8568 67.4298 92.0791 71.6442 92.0791 76.561C92.0791 81.4777 87.8568 85.6921 82.9309 85.6921M82.9309 69.4367C79.0102 69.4367 75.7933 72.6476 75.7933 76.561C75.7933 80.3739 79.1108 83.6852 82.9309 83.6852C86.751 83.6852 90.0685 80.3739 90.0685 76.561C90.0685 72.748 86.8516 69.4367 82.9309 69.4367"/>
	<path fill="white" d="M87.4586 76.6613C87.3542 79.0695 85.4442 80.8757 83.0315 80.8757C80.6188 80.8757 78.8092 78.8689 78.8092 76.4607C78.9098 74.0525 80.8198 72.2463 83.2325 72.2463C85.6452 72.3466 87.5553 74.2531 87.4586 76.6613"/>
	<path fill="#3ACEC3" d="M28.8459 48.2646L52.6714 48.2646L52.6714 65.4231L28.8459 65.4231L28.8459 48.2646"/>
	<path fill="#2D1B0A" d="M53.6766 66.4265L27.8405 66.4265L27.8405 47.2612L53.6766 47.2612L53.6766 66.4265M29.8511 64.4196L51.666 64.4196L51.666 49.268L29.8511 49.268L29.8511 64.4196"/>
	<path fill="#FF6C6C" d="M42.719 28.0957L68.4546 28.0957L68.4546 46.659L42.719 46.659L42.719 28.0957"/>
	<path fill="#2D1B0A" d="M69.4599 47.6624L41.7137 47.6624L41.7137 27.0923L69.4599 27.0923L69.4599 47.6624M43.7243 45.6556L67.4493 45.6556L67.4493 29.0991L43.7243 29.0991L43.7243 45.6556"/>
	<path fill="#FFCF48" d="M59.9097 48.2646L83.7352 48.2646L83.7352 65.4231L59.9097 65.4231L59.9097 48.2646"/>
	<path fill="#2D1B0A" d="M84.7404 66.4265L58.9043 66.4265L58.9043 47.2612L84.7404 47.2612L84.7404 66.4265M60.9149 64.4196L82.7298 64.4196L82.7298 49.268L60.9149 49.268L60.9149 64.4196"/>
</svg>
