<?xml version="1.0" encoding="utf-8" ?>
<svg xmlns="http://www.w3.org/2000/svg" xmlns:xlink="http://www.w3.org/1999/xlink" width="50" height="82">
	<path fill="white" d="M25 82C12.3983 82 2.77959 76.258 2.77959 68.602C2.77959 63.4644 7.38858 58.9312 14.6026 56.715L4.38272 38.8845C-0.627047 32.1351 0 23.8747 0 23.5725C1.07627 11.887 9.59288 5.54054 9.89346 5.33907C14.5024 1.71253 19.5122 0 25.2233 0C29.5317 0 32.738 1.10811 33.3392 1.30958C40.8538 3.82801 49.2702 11.3833 49.8714 22.1622C50.7732 31.3292 46.6651 37.8771 45.8636 38.9853L35.4433 56.9165C42.6573 59.1327 47.0659 63.5651 47.0659 68.8034C47.2663 76.0565 37.4472 82 25 82M12.9995 68.9042C12.9995 69.1057 13.3001 70.4152 15.6046 71.9263C17.9091 73.3366 21.7165 73.8403 24.522 73.8403L19.2116 64.5725C17.8089 64.8747 16.5064 65.3784 15.5044 65.8821C13.1999 67.1916 12.9995 68.8034 12.9995 68.9042M25.6241 73.8403C26.8265 73.8403 31.2351 73.6388 34.7419 71.6241C36.6456 70.4152 37.1466 69.0049 37.2468 68.5012C37.1466 67.9975 36.7458 66.7887 34.8421 65.5799C33.7399 65.0762 32.4374 64.774 31.0347 64.4717L25.6241 73.8403"/>
	<path fill="#210D08" d="M5.87235 68.602C5.87235 62.9607 14.585 58.2261 25.1002 58.2261C35.6154 58.2261 44.328 62.7593 44.328 68.602C44.328 74.2433 35.6154 78.9779 25.1002 78.9779C14.3847 78.9779 5.87235 74.4448 5.87235 68.602M25 60.7445C25 60.7445 18.6909 60.7445 13.9841 63.1622C9.87815 65.5799 9.87815 68.8035 9.87815 68.8035C9.87815 68.8035 9.67786 71.8256 13.9841 74.4448C18.2903 77.0639 25 76.8625 25 76.8625C25 76.8625 31.1088 77.0639 36.2163 74.2433C40.1219 71.8256 40.3223 68.602 40.3223 68.602C40.3223 68.602 40.3223 65.3784 36.2163 62.9607C31.5094 60.7445 25 60.7445 25 60.7445"/>
	<path fill="#2D1B0A" d="M25 79.9853C13.4833 79.9853 4.7707 75.0492 4.7707 68.602C4.7707 62.2556 13.7838 57.2187 25 57.2187C36.3164 57.2187 45.2293 62.2556 45.2293 68.602C45.2293 74.8477 36.1161 79.9853 25 79.9853M25 59.1327C15.2859 59.1327 6.7736 63.5651 6.7736 68.5013C6.7736 73.6388 14.8853 77.8698 25 77.8698C34.7141 77.8698 43.2264 73.4374 43.2264 68.5013C43.2264 63.3637 35.0145 59.1327 25 59.1327M24.4993 77.8698C22.7968 77.8698 17.389 77.6683 13.5835 75.3514C8.7765 72.43 8.97679 68.9042 8.97679 68.8035C8.97679 68.7027 8.97679 64.9755 13.5835 62.3563C18.3904 59.8379 24.7997 59.8379 25.1001 59.8379C25.4006 59.8379 31.8098 59.8379 36.7169 62.0541C41.3236 64.6732 41.4238 68.4005 41.4238 68.602C41.4238 68.8035 41.1233 72.5307 36.8171 75.1499C31.5094 78.172 25.3004 77.9705 25 77.9705C25 77.8698 24.7997 77.8698 24.4993 77.8698M25 61.7519C24.8998 61.7519 18.791 61.7519 14.4848 64.0688C11.0798 66.0836 10.9797 68.7027 10.9797 68.8035C10.9797 68.9042 10.8795 71.3219 14.5849 73.5381C18.5907 75.9558 25 75.7543 25 75.7543C25.1001 75.7543 31.0087 75.9558 35.7155 73.2359C39.0203 71.2212 39.3207 68.5013 39.3207 68.4005C39.3207 68.4005 39.2206 65.7813 35.8156 63.7666C31.3091 61.8526 25.1001 61.7519 25 61.7519"/>
	<path fill="#FF6C6C" d="M6.98404 37.1721C2.47751 31.2285 3.05175 23.774 3.05175 23.774C3.97969 13.3981 11.6909 7.75679 11.6909 7.75679C15.5965 4.73468 19.9028 3.02215 25.3106 3.02215C29.4165 3.02215 32.4209 4.13026 32.4209 4.13026C38.9303 6.24574 46.4412 12.7936 46.9418 22.3636C47.8432 31.2285 43.4369 37.2728 43.4369 37.2728L25.1103 68.9043L6.98404 37.1721"/>
	<path fill="#2D1B0A" d="M25.0576 70.7175L6.09078 37.6757C1.48221 31.5307 2.0176 23.9755 2.0176 23.5725C2.985 12.7936 10.7995 7.05163 11.1001 6.74942C15.4081 3.42509 20.0167 1.8133 25.3266 1.8133C29.5344 1.8133 32.6402 2.92141 32.8405 3.02215C39.7534 5.3391 47.4677 12.29 47.9687 22.0615C48.8703 30.9263 44.7627 36.9705 44.362 37.575L25.0576 70.7175M25.3266 3.82804C20.5176 3.82804 16.3098 5.3391 12.3023 8.36121C12.2021 8.46195 4.88854 13.9018 4.08705 23.6733C4.08705 23.774 3.58612 30.9263 7.79395 36.3661L25.1262 66.5873L42.6588 36.3661C42.6588 36.2654 46.7664 30.5234 45.9649 22.1622C45.464 13.1966 38.451 6.85016 32.1392 4.83541C32.039 4.93615 29.2338 3.82804 25.3266 3.82804"/>
	<path fill="white" d="M18.1255 21.7592C18.1255 17.629 21.3301 14.3047 25.5362 14.3047C29.6422 14.3047 32.9469 17.5282 32.9469 21.7592C32.9469 25.8895 29.4418 29.2137 25.5362 29.2137C21.7307 28.7101 18.1255 25.8895 18.1255 21.7592"/>
	<path fill="#281A0F" d="M25.4361 30.6241C21.23 30.2211 16.8237 26.9975 16.8237 21.9607C16.8237 17.1253 20.6292 13.2973 25.4361 13.2973C30.243 13.2973 34.0485 17.1253 34.0485 21.9607C34.0485 26.5946 30.143 30.6241 25.4361 30.6241M25.4361 15.8157C22.0312 15.8157 19.3273 18.5356 19.3273 21.9607C19.3273 25.3858 22.5319 27.8034 25.5363 28.1057C28.741 28.1057 31.545 25.285 31.545 21.9607C31.545 18.4349 28.9412 15.8157 25.4361 15.8157"/>
</svg>
