<?xml version="1.0" encoding="utf-8" ?>
<svg xmlns="http://www.w3.org/2000/svg" xmlns:xlink="http://www.w3.org/1999/xlink" width="114" height="76">
	<path fill="white" d="M57 76C45.4998 76 34.9074 67.7566 31.3766 55.7937L30.7714 53.7831L24.6177 53.381L23.7098 55.0899C22.2975 57.6032 19.5738 59.2116 16.7491 59.2116C13.521 59.2116 10.5955 57.3016 9.38495 54.2857L8.67879 52.4762L5.24889 52.2751C2.22251 51.873 0 49.2593 0 46.2434C0 43.2275 2.52515 40.7143 5.65241 40.5132L31.1749 40.5132L31.881 38.6032C33.7977 33.6772 37.3285 29.455 41.969 26.5397L47.7191 22.9206L41.1619 21.0106C39.3461 20.5079 37.9338 19.3016 37.1268 17.6931C36.2189 15.8836 36.3197 13.672 37.3285 11.963C38.4382 10.254 40.254 9.14815 42.2716 9.14815L49.434 9.14815L49.8376 6.13228C50.2411 2.61376 53.1666 0 56.6974 0C60.329 0 63.2545 2.51323 63.7589 6.03175L64.0616 8.6455L70.9214 8.6455C72.9389 8.6455 74.8556 9.65079 75.9653 11.3598C76.9741 13.0688 77.075 15.2804 76.1671 16.9894C75.36 18.5979 73.8469 19.8042 72.1319 20.3069L65.373 22.3175L71.4257 25.836C76.4697 28.7513 80.2023 33.0741 82.3207 38.4021L83.0269 40.3122L108.348 40.3122C111.475 40.5132 114 43.0265 114 46.0423C114 49.0582 111.777 51.7725 108.751 52.0741L106.33 52.2751L105.624 54.0847C104.413 57.1005 101.488 59.1111 98.2597 59.1111C95.435 59.1111 92.7113 57.5026 91.299 54.9894L90.3911 53.2804L83.3295 53.6825L82.7242 55.6931C79.1935 67.6561 68.6011 76 57 76"/>
	<path fill="#B4DDEF" d="M98.5623 46.3439C95.8385 46.3439 93.6192 48.5555 93.6192 51.2698C93.6192 53.9841 95.8385 56.1957 98.5623 56.1957C101.286 56.1957 103.505 53.9841 103.505 51.2698C103.505 49.9629 103.001 48.7566 102.093 47.7513C101.084 46.9471 99.8737 46.3439 98.5623 46.3439"/>
	<path fill="#2D1B0A" d="M98.5623 57.201C95.2333 57.201 92.6104 54.5873 92.6104 51.2698C92.6104 47.9524 95.2333 45.3386 98.5623 45.3386C100.176 45.3386 101.69 45.9418 102.799 47.0476C103.909 48.1534 104.514 49.6614 104.514 51.2698C104.514 54.5873 101.79 57.201 98.5623 57.201M98.5623 47.3492C96.3429 47.3492 94.628 49.0582 94.628 51.2698C94.628 53.4815 96.3429 55.1904 98.5623 55.1904C100.681 55.1904 102.497 53.4815 102.497 51.2698C102.497 50.2645 102.093 49.2592 101.387 48.455C100.58 47.8518 99.5711 47.3492 98.5623 47.3492"/>
	<path fill="#B4DDEF" d="M16.7491 46.3439C14.0254 46.3439 11.806 48.5555 11.806 51.2698C11.806 53.9841 14.0254 56.1957 16.7491 56.1957C19.4728 56.1957 21.6922 53.9841 21.6922 51.2698C21.6922 49.9629 21.1878 48.6561 20.2799 47.7513C19.372 46.8465 18.0605 46.3439 16.7491 46.3439"/>
	<path fill="#2D1B0A" d="M16.85 57.201C13.6218 57.201 10.8981 54.5873 10.8981 51.2698C10.8981 48.0529 13.521 45.3386 16.85 45.3386C18.4641 45.3386 19.9772 45.9418 21.0869 47.0476C22.1966 48.1534 22.8019 49.6614 22.8019 51.2698C22.8019 54.5873 20.0781 57.201 16.85 57.201M16.7491 47.3492C14.6306 47.3492 12.8148 49.1587 12.8148 51.2698C12.8148 53.3809 14.6306 55.1904 16.7491 55.1904C18.8676 55.1904 20.6834 53.3809 20.6834 51.2698C20.6834 50.2645 20.2799 49.2592 19.5737 48.455C18.8676 47.7513 17.8588 47.3492 16.7491 47.3492"/>
	<path fill="#B4DDEF" d="M39.8505 16.3863C40.3549 17.3915 41.2628 18.0953 42.3725 18.2963L51.0481 19.8042L51.956 12.2646L42.4734 12.2646C41.4646 12.2646 40.5567 12.7672 40.0523 13.5714C39.447 14.4762 39.447 15.4815 39.8505 16.3863"/>
	<path fill="#2D1B0A" d="M51.8552 21.0106L42.1707 19.3016C40.7584 19 39.5479 18.0953 38.9426 16.8889C38.3373 15.6826 38.4382 14.2752 39.1443 13.1693C39.8505 12.0635 41.0611 11.3598 42.3725 11.3598L53.0657 11.3598L51.8552 21.0106M42.3725 13.2699C41.7672 13.2699 41.1619 13.5714 40.8593 14.0741C40.5567 14.5767 40.4558 15.2804 40.7584 15.7831C41.0611 16.4868 41.7672 16.9894 42.5742 17.09L50.1402 18.4974L50.7455 13.1693L42.3725 13.1693C42.3725 13.2699 42.3725 13.2699 42.3725 13.2699"/>
	<path fill="#B4DDEF" d="M71.0222 17.6931C72.1319 17.492 73.0397 16.7883 73.5441 15.783C73.9477 14.8783 73.9477 13.873 73.4433 13.0687C72.9389 12.2645 72.031 11.7619 71.0222 11.7619L61.5395 11.7619L62.4475 19.3015L71.0222 17.6931"/>
	<path fill="#2D1B0A" d="M61.5395 20.5079L60.329 10.8571L71.0222 10.8571C72.3336 10.8571 73.5442 11.5608 74.2504 12.6666C74.9565 13.7724 74.9565 15.1799 74.4521 16.3862C73.8468 17.5926 72.6363 18.4973 71.224 18.7989L61.5395 20.5079M62.6492 12.7672L63.3554 18.0952L70.9213 16.6878C71.7284 16.5873 72.3336 16.0846 72.7372 15.3809C73.0398 14.7777 73.0398 14.1746 72.6363 13.6719C72.3336 13.1693 71.7284 12.8677 71.1231 12.8677L62.6492 12.8677"/>
	<path fill="#B4DDEF" d="M108.448 43.5291L80.7065 43.5291C78.588 32.6719 68.9036 25.3333 57.1512 25.3333C45.3987 25.3333 35.7143 32.6719 33.6967 43.5291L5.85402 43.5291C4.34083 43.6296 3.0294 44.8358 3.0294 46.3438C3.0294 47.8517 4.13907 49.1586 5.65226 49.3597L33.495 50.9681C35.0082 62.8307 45.0961 72.984 57.1512 72.984C69.3071 72.984 79.2942 62.8307 80.9083 50.9681L98.0577 49.9629L108.65 49.2591C110.163 49.0582 111.273 47.7513 111.273 46.2434C111.071 44.8358 109.86 43.6296 108.448 43.5291"/>
	<path fill="#2D1B0A" d="M57.1512 73.9893C45.298 73.9893 34.7057 64.3385 32.5872 51.8729L5.65244 50.2644C3.53397 50.0634 2.1169 48.2539 2.1169 46.2433C2.1169 44.2327 3.83661 42.5237 5.8542 42.4232L32.8899 42.4232C35.311 31.6665 45.1971 24.2274 57.1512 24.2274C69.2064 24.2274 79.0926 31.6665 81.5137 42.4232L108.449 42.4232C110.466 42.5237 112.186 44.1322 112.186 46.2433C112.186 48.2539 110.668 50.0634 108.65 50.2644L98.0579 50.9681L81.7155 51.8729C79.6979 64.3385 69.1055 73.9893 57.1512 73.9893M5.95508 44.5343C5.04716 44.5343 4.24013 45.3385 4.13925 46.3438C4.13925 47.3491 4.8454 48.1533 5.8542 48.2539L34.4031 49.9628C36.118 62.6295 46.0042 71.9787 57.1512 71.9787C68.2985 71.9787 78.2856 62.73 79.8996 50.8676L97.957 49.0581L108.549 48.3544C109.457 48.2539 110.264 47.3491 110.164 46.4443C110.164 45.439 109.357 44.6348 108.348 44.6348L79.7988 44.6348C77.5794 33.5766 68.2985 26.439 57.1512 26.439C45.7015 26.439 36.4206 33.5766 34.6048 43.8306L5.95508 44.6348"/>
	<path fill="#2D1B0A" d="M45.6006 46.1429C44.1883 46.1429 42.8769 45.4392 42.0699 44.3334C41.2628 43.2276 40.9602 41.8201 41.2628 40.5132C41.8681 38.201 42.8769 36.1905 44.3901 34.3809C45.298 33.2751 46.6094 32.672 47.9209 32.672L66.4827 32.672C67.895 32.672 69.1055 33.2751 70.0134 34.2804C71.5266 36.0899 72.6363 38.1005 73.2416 40.3122C73.6451 41.619 73.3424 43.127 72.5354 44.2327C71.7284 45.3387 70.3161 46.0424 68.9038 46.0424L45.6006 46.0424M45.6006 43.127L68.8029 43.127C69.3073 43.127 69.7108 42.9259 70.0134 42.5238C70.3161 42.1217 70.4169 41.619 70.2152 41.2169C69.7108 39.4074 68.8029 37.6984 67.5923 36.291C67.2897 35.8889 66.8862 35.6878 66.3818 35.6878L47.82 35.6878C47.3156 35.6878 46.9121 35.8889 46.6094 36.291C45.3989 37.7989 44.5918 39.4074 44.0874 41.3175C43.9866 41.7196 44.0874 42.2222 44.3901 42.6243C44.7936 42.9259 45.1971 43.127 45.6006 43.127"/>
	<path fill="#1A9DFF" d="M45.6234 44.6349L68.8257 44.6349C69.7336 44.6349 70.6414 44.2328 71.2467 43.4286C71.8456 42.7249 71.9529 41.7196 71.7512 40.8148C71.1459 38.8042 70.1371 36.8942 68.8257 35.2857C68.2204 34.582 67.4134 34.1799 66.5054 34.1799L47.9436 34.1799C47.0357 34.1799 46.1278 34.582 45.6234 35.2857C44.312 36.8942 43.3032 38.8042 42.7215 40.8148C42.597 41.7196 42.7215 42.6243 43.3032 43.4286C43.8076 44.1323 44.7155 44.6349 45.6234 44.6349"/>
	<path fill="#B4DDEF" d="M56.5965 2.7143C54.5789 2.7143 52.8639 4.32277 52.6622 6.53441L50.5437 25.5344C54.5789 24.5291 58.715 24.5291 62.6492 25.5344L60.5308 6.53441C60.329 4.32277 58.6141 2.7143 56.5965 2.7143"/>
	<path fill="#2D1B0A" d="M63.8598 26.8414L62.4475 26.4393C58.6141 25.434 54.5789 25.434 50.8464 26.4393L49.4341 26.8414L51.7543 6.43397C52.0569 3.71968 54.1754 1.7091 56.6974 1.7091C59.3202 1.7091 61.4387 3.71968 61.6404 6.43397L63.8598 26.8414M56.5965 3.71968C55.0833 3.71968 53.8727 5.02656 53.671 6.63503L51.7543 24.2276C54.9824 23.6244 58.3114 23.6244 61.5396 24.2276L59.6229 6.63503C59.4211 4.92603 58.2106 3.71968 56.5965 3.71968"/>
</svg>
