<?xml version="1.0" encoding="utf-8" ?>
<svg xmlns="http://www.w3.org/2000/svg" xmlns:xlink="http://www.w3.org/1999/xlink" width="106" height="64">
	<path fill="white" d="M26.525 63.7991C20.5194 63.4976 15.3144 59.8807 13.0123 54.5557C10.9103 54.1538 8.80831 53.1491 7.60718 50.7378C7.1067 49.7331 6.80642 48.427 6.60623 46.3171L5.60529 46.3171C2.50236 46.3171 0.200189 43.9058 0.200189 40.8917L0 30.7441C0 27.8305 2.00189 25.5196 4.60434 25.3187C4.80453 25.2182 5.00472 25.2182 5.20491 25.1177L5.20491 20.9984C5.20491 17.7834 7.70727 15.1711 10.8102 15.1711L33.8319 14.7692C35.2332 14.7692 36.5345 15.1711 37.7356 16.0754C39.6374 17.6829 40.5382 19.6923 40.5382 21.9027L40.5382 27.9309C41.0387 32 42.3399 34.763 43.8414 35.8681C45.9433 37.4757 48.6459 38.179 51.6487 38.179C54.6516 38.179 57.4542 37.1743 60.0567 35.1648C64.2606 32 63.7602 17.9843 63.6601 13.4631L62.8593 4.82261C63.3598 1.80848 65.2616 0 67.5637 0C67.5637 0 80.7762 0.301413 80.7762 0.301413C84.0793 0.301413 86.4816 3.41601 86.4816 7.73626L86.4816 13.4631L83.5788 13.4631C83.6789 13.865 83.8791 14.2669 83.9792 14.6688C85.7809 19.9937 88.2833 27.8305 90.6856 33.8587C90.7856 33.8587 90.7856 33.8587 90.8857 33.8587C99.1936 33.8587 106 40.4898 106 48.7284C106 57.2684 99.3938 63.8995 90.8857 63.8995C85.2805 63.5981 80.4759 60.584 77.9736 56.0628C74.17 56.1633 69.3654 56.1633 64.2606 56.1633C56.5534 56.1633 47.9452 55.9623 40.238 55.7614C37.6355 60.7849 32.5307 64 26.7252 64"/>
	<path fill="#FFE161" d="M90.6356 60.2824C85.6309 60.2824 81.3268 57.1678 79.7253 52.6466C75.7215 52.8476 70.016 52.8476 64.0105 52.8476C55.2021 52.8476 45.493 52.6466 37.6855 52.3452C35.9839 56.8664 31.7801 60.1819 26.475 60.1819C21.2701 60.1819 16.7659 56.565 15.2645 51.6419C12.1615 51.441 10.7602 50.7377 10.0595 49.2306C9.55904 48.3264 9.35885 45.9151 9.15867 42.8005L6.65631 42.8005C5.45517 42.8005 4.25404 41.8962 4.25404 40.3892L4.05385 30.1411C4.05385 28.9355 4.9547 27.7298 6.45612 27.7298L8.85838 27.7298C8.85838 26.4237 8.85838 25.3185 8.85838 24.3138L36.2842 24.3138C36.7848 28.3327 38.1861 35.5666 41.9896 38.0783C44.592 39.9873 47.8952 40.8915 51.4986 40.8915C55.1021 40.8915 58.6053 39.6859 61.7083 37.2746C67.914 32.5524 66.4127 15.0705 66.4127 10.8507C66.4127 10.1474 66.4127 9.64505 66.5127 9.1427L67.714 9.1427L78.8243 9.1427C80.3259 13.262 84.7299 27.7298 88.5335 36.8727C89.2342 36.6717 89.9348 36.6717 90.6356 36.6717C97.2417 36.6717 102.547 41.8962 102.547 48.3264C102.547 54.9575 97.3419 60.2824 90.6356 60.2824"/>
	<path fill="#2D1B0A" d="M90.5854 61.2871C85.4806 61.2871 80.9764 58.273 78.9745 53.6513C74.9707 53.8523 69.5656 53.8523 63.9603 53.8523C55.7526 53.8523 46.4438 53.6513 38.3361 53.3499C36.2342 58.0721 31.6298 61.1867 26.4249 61.1867C21.1199 61.1867 16.3154 57.6702 14.5137 52.5462C11.5108 52.2448 10.0094 51.3405 9.10856 49.6325C8.60809 48.7283 8.4079 47.0203 8.20771 43.8052L6.6062 43.8052C4.90459 43.8052 3.20299 42.4991 3.20299 40.3892L3.0028 30.1411C3.0028 28.4331 4.30403 26.7251 6.40601 26.7251L7.80733 26.7251L7.80733 23.3091L37.135 23.3091C38.0359 30.8444 39.9376 35.5666 42.5401 37.2746C44.9424 38.9826 48.0453 39.8868 51.5486 39.8868C54.9518 39.8868 58.2549 38.6812 61.1577 36.4708C66.1624 32.6529 65.762 18.9889 65.5618 13.0611C65.5618 12.1568 65.4617 11.3531 65.4617 10.8507C65.4617 10.1474 65.4617 9.54459 65.5618 8.94177L79.575 8.138C80.2757 10.1474 80.9764 12.2573 81.8772 14.97C83.779 20.7973 86.6817 29.4378 89.1841 35.7675C89.6846 35.667 90.185 35.667 90.6855 35.667C97.7922 35.667 103.598 41.3939 103.598 48.3264C103.598 55.5603 97.7922 61.2871 90.5854 61.2871M80.3758 51.5415C82.0774 56.3641 86.0812 59.1772 90.5854 59.1772C96.6912 59.1772 101.496 54.3546 101.496 48.2259C101.496 42.3986 96.5911 37.576 90.5854 37.576C89.9849 37.576 89.2842 37.576 88.7837 37.7769L87.5826 37.1741C84.88 30.744 81.8772 21.6011 79.8753 15.4724C79.1747 13.1616 78.474 11.3531 78.0736 10.047L67.3635 10.047C67.3635 10.2479 67.3635 10.4488 67.3635 10.7502C67.3635 11.2526 67.3635 12.0564 67.4636 12.9606C67.6638 19.6922 68.1643 33.5572 62.3588 37.9779C59.1558 40.4896 55.4523 41.7958 51.5486 41.7958C47.6449 41.7958 44.1416 40.7911 41.4391 38.7816C37.7356 36.3703 36.1341 30.2416 35.4334 25.2181L9.90932 25.2181L9.90932 28.6341L6.50611 28.6341C5.60526 28.6341 5.10478 29.3374 5.10478 30.0407L5.30497 40.2887C5.30497 41.1929 6.00563 41.6953 6.70629 41.6953L10.1095 41.6953C10.3097 44.5085 10.5099 47.824 11.0104 48.6278C11.5108 49.6325 12.4117 50.3358 15.4145 50.5367C17.7167 55.8617 21.9206 59.0768 26.525 59.0768C31.1293 59.0768 35.1331 56.2636 36.8347 51.8429L37.8357 51.1396C46.0434 51.441 55.6525 51.6419 64.1605 51.6419C70.1662 51.6419 75.8715 51.6419 79.7752 51.441"/>
	<path fill="#2D1B0A" d="M4.70444 28.1318L8.80832 27.9309L9.30878 43.0015L5.20492 43.2025C4.00379 43.2025 2.90274 42.2982 2.90274 40.7912L2.70255 30.5431C2.70255 29.3375 3.6034 28.1318 4.70444 28.1318"/>
	<path fill="#704C28" d="M78.6741 48.3265C78.6741 41.7959 83.9791 36.4709 90.4852 36.4709C97.1917 36.4709 102.597 41.7959 102.597 48.3265C102.597 55.058 97.2917 60.4835 90.4852 60.4835C83.8791 60.0816 78.6741 55.058 78.6741 48.3265"/>
	<path fill="#2D1B0A" d="M90.4853 61.4882C83.1784 61.0863 77.6732 55.3594 77.6732 48.3265C77.6732 41.193 83.3786 35.4662 90.4853 35.4662C97.6921 35.4662 103.598 41.193 103.598 48.3265C103.598 55.7613 97.8923 61.4882 90.4853 61.4882M90.4853 37.4756C84.4796 37.4756 79.6751 42.2982 79.6751 48.3265C79.6751 54.4552 84.2794 59.0769 90.5854 59.4788C96.7912 59.4788 101.596 54.5557 101.596 48.3265C101.596 42.3987 96.591 37.4756 90.4853 37.4756"/>
	<path fill="#704C28" d="M14.4136 48.3264C14.4136 41.6954 19.7186 36.3704 26.3248 36.3704C33.1313 36.3704 38.5364 41.6954 38.5364 48.3264C38.5364 55.1585 33.2314 60.5839 26.3248 60.5839C19.8187 60.2825 14.4136 55.058 14.4136 48.3264"/>
	<path fill="#2D1B0A" d="M26.3249 61.5886C19.018 61.2872 13.4127 55.4599 13.4127 48.3265C13.4127 41.193 19.2182 35.3657 26.3249 35.3657C33.6318 35.3657 39.5373 41.193 39.5373 48.3265C39.5373 55.7613 33.7319 61.5886 26.3249 61.5886M26.3249 37.3751C20.3192 37.3751 15.4146 42.2982 15.4146 48.3265C15.4146 54.3547 20.2191 59.2778 26.3249 59.5792C32.5307 59.5792 37.5355 54.6561 37.5355 48.3265C37.5355 42.1977 32.6308 37.3751 26.3249 37.3751"/>
	<path fill="#2D1B0A" d="M65.5619 10.0471L65.5619 4.62165C65.7621 3.51647 66.3626 2.51177 67.2635 2.51177L80.3759 2.81318C82.0775 2.81318 83.1785 4.72213 83.1785 7.2339L83.1785 9.94662L65.5619 9.94662"/>
	<path fill="#2D1B0A" d="M83.679 10.5494L65.0614 10.5494L65.0614 4.62164C65.3617 3.01411 66.1624 2.0094 67.2635 2.0094L80.3758 2.31081C82.2776 2.31081 83.679 4.32023 83.679 7.23389L83.679 10.5494M66.0623 9.54472L82.678 9.54472L82.678 7.33436C82.678 5.02353 81.7772 3.41599 80.3758 3.41599L67.2635 3.11458C66.6629 3.11458 66.2625 3.91835 66.0623 4.72212L66.0623 9.54472"/>
	<path fill="#2D1B0A" d="M7.9075 20.7975C7.9075 19.19 9.20873 17.9843 10.51 17.9843L33.5317 17.5825C34.3324 17.5825 34.933 17.7834 35.6337 18.2857C36.6346 19.0895 37.1351 20.2952 37.1351 21.6013L37.1351 24.4145C37.1351 24.5149 37.1351 24.5149 37.1351 24.6154L7.9075 24.6154L7.9075 20.7975"/>
	<path fill="#2D1B0A" d="M37.6355 25.1178L7.3069 25.1178L7.3069 20.6971C7.3069 18.6876 8.90841 17.3815 10.4098 17.3815L33.4315 16.9796C34.3324 16.9796 35.0331 17.281 35.8338 17.7834C36.9349 18.6876 37.5354 19.9937 37.5354 21.5008L37.5354 25.1178M8.40794 24.1131L36.7347 24.1131L36.7347 21.6013C36.7347 20.4961 36.2342 19.3909 35.4334 18.6876C34.8329 18.2857 34.3324 18.0848 33.6317 18.0848L10.61 18.4867C9.60907 18.4867 8.50803 19.3909 8.50803 20.7975L8.40794 24.1131"/>
</svg>
