<?xml version="1.0" encoding="utf-8" ?>
<svg xmlns="http://www.w3.org/2000/svg" xmlns:xlink="http://www.w3.org/1999/xlink" width="120" height="56">
	<path fill="white" d="M86.5923 56C81.9978 56 78.1025 53.3096 76.5045 49.2242C67.2157 49.3238 41.6467 49.3238 39.749 49.3238C37.8513 52.8114 34.2556 55.0036 30.0607 55.0036C25.8658 55.0036 22.1703 52.7117 20.3725 49.2242L10.1848 49.1246C4.59157 49.1246 2.29435 47.032 1.39544 45.3381C0.396648 43.4448 -1.40117 35.8719 1.89483 29.4947C3.69266 26.0071 7.58794 21.7224 16.3773 20.5267C18.3749 20.2278 20.0728 19.032 21.0716 17.3381C23.5686 12.9537 26.3652 8.76868 29.3616 4.78292C31.6588 1.79359 35.3543 0 39.2496 0C39.2496 0 65.7175 0 76.105 0.398577C80.2999 0.498221 85.2938 3.28826 87.4912 6.7758C88.6897 8.66904 90.088 10.6619 91.4863 12.7544C92.9845 14.9466 94.4827 17.2384 95.881 19.2313C96.4803 20.1281 102.573 20.6263 102.873 20.6263C104.97 20.8256 107.567 21.2242 110.064 22.6192C114.259 25.0107 117.655 27.3025 119.353 32.484C120.651 36.3701 120 40.4555 117.655 43.7438C115.258 47.032 111.462 49.0249 107.467 49.0249C103.971 49.0249 100.475 49.0249 96.9797 49.1246C95.1819 53.1103 91.1867 56 86.5923 56"/>
	<path fill="#65DFE5" d="M10.3496 45.936C22.1343 46.0356 34.0188 46.1352 45.6037 46.1352C66.2768 46.1352 86.85 45.8363 107.523 45.7367C114.014 45.7367 118.708 39.3594 116.611 33.2811C116.611 33.2811 116.611 33.1815 116.611 33.1815C115.313 29.2954 113.016 27.5018 108.622 24.911C106.824 23.9146 104.727 23.516 102.629 23.3167C99.7332 23.0178 94.9394 22.9182 93.4414 20.5267C90.9446 16.7402 87.7488 12.057 85.1522 8.07118C83.4544 5.48044 79.2599 3.18862 76.1639 3.08898C62.5816 2.6904 52.8942 2.6904 39.4117 2.6904C36.5155 2.6904 33.7192 3.98577 31.9215 6.27759C28.9254 10.1637 26.2289 14.1495 23.832 18.4342C22.4339 21.0249 19.8372 22.7189 16.941 23.1174C-0.83583 25.5089 3.25883 41.8505 4.25753 43.6441C5.15636 45.5374 8.25233 45.936 10.3496 45.936"/>
	<path fill="#2D1B0A" d="M49.0372 47.1317C47.8387 47.1317 46.74 47.1317 45.5415 47.1317C37.3515 47.1317 29.0615 47.032 20.7716 47.032L10.2844 46.9324C7.78742 46.9324 4.49143 46.4342 3.29288 44.242C2.59373 42.847 0.8958 35.8719 3.79228 30.1922C6.08948 25.8078 10.3843 23.1174 16.7765 22.3203C19.3733 22.0213 21.6705 20.427 22.969 18.1352C25.366 13.8505 28.1626 9.76512 31.159 5.879C33.1566 3.3879 36.1529 1.8851 39.4489 1.8851C53.2321 1.8851 62.8205 1.8851 76.2042 2.29181C79.7 2.39145 84.0946 4.88256 85.9923 7.77224C87.1908 9.66548 88.5891 11.6584 89.9874 13.7509C91.4856 15.9431 92.9838 18.2349 94.2822 20.2278C95.4808 22.0213 99.2761 22.3203 101.773 22.5196C102.073 22.5196 102.473 22.6192 102.771 22.6192C104.57 22.8185 106.966 23.1174 109.164 24.3132C113.758 27.0036 116.256 28.8968 117.553 33.0818C118.652 36.3701 118.098 39.758 116.056 42.548C114.059 45.3381 110.863 46.9324 107.466 47.032C98.9765 47.032 90.2871 47.1317 81.8973 47.2313C71.2103 47.032 60.1286 47.1317 49.0372 47.1317M50.7352 3.78647C47.3393 3.78647 43.8436 3.78647 39.9483 3.78647C36.7522 3.78647 34.2552 4.9822 32.6572 7.07473C29.6608 10.8612 26.9641 14.9466 24.6669 19.1317C23.0688 21.9217 20.1724 23.9146 17.0761 24.3132C11.383 25.1103 7.58766 27.4021 5.59009 31.1886C2.89337 36.4697 4.69118 42.7473 5.0907 43.3452C5.68997 44.4413 7.58766 45.0391 10.3843 45.0391L20.8715 45.1388C29.1614 45.2384 37.4513 45.2384 45.6414 45.2384C57.7267 45.2384 70.1116 45.1388 81.9972 45.0391C90.387 44.9395 99.0764 44.9395 107.566 44.8399C110.363 44.8399 112.96 43.5445 114.558 41.2527C116.156 39.0605 116.556 36.2705 115.757 33.6797C114.558 29.9929 112.56 28.3986 108.165 25.9075C106.768 25.1103 105.07 24.6121 102.573 24.4128C102.272 24.4128 101.973 24.3132 101.573 24.3132C98.4771 24.1139 94.2822 23.7153 92.5843 21.1246C91.2859 19.1317 89.7877 16.8399 88.2895 14.6477C86.8912 12.5552 85.4929 10.5623 84.2944 8.66903C82.7962 6.37722 78.9009 4.18505 76.1043 4.18505C66.6159 3.78647 59.0251 3.78647 50.7352 3.78647"/>
	<path fill="#704C28" d="M38.2473 43.9431C38.2473 44.6406 38.1475 45.4377 38.0476 46.1353C37.0489 49.5232 34.0528 51.815 30.3577 51.815C26.6625 51.815 23.6664 49.4235 22.6677 46.1353C22.4679 45.4377 22.4679 44.6406 22.4679 43.9431C22.4679 43.7438 22.4679 43.4449 22.4679 43.2456C22.8674 39.2598 26.5626 36.0712 30.3577 36.0712C34.1527 36.0712 37.748 39.1602 38.2473 43.2456C38.2473 43.4449 38.2473 43.6441 38.2473 43.9431"/>
	<path fill="#2D1B0A" d="M30.2578 52.8114C26.263 52.8114 22.7676 50.2206 21.5691 46.4342C21.2695 45.5373 21.2695 44.7402 21.2695 43.9431C21.669 38.7616 25.7637 35.0747 30.1579 35.0747C34.6521 35.0747 38.547 38.5623 39.0463 43.1459C39.0463 44.7402 38.9465 45.5373 38.7467 46.3345C37.748 50.2206 34.3525 52.8114 30.2578 52.8114M30.2578 36.968C26.8622 36.968 23.6664 39.8577 23.2669 43.2456C23.2669 44.6406 23.2669 45.2384 23.4666 45.8363C24.3655 48.9252 27.062 50.8186 30.1579 50.8186C33.3538 50.8186 35.9504 48.9252 36.8492 45.936C36.9491 45.2384 37.0489 44.5409 37.0489 43.9431C36.7493 39.758 33.6534 36.968 30.2578 36.968"/>
	<path fill="#704C28" d="M94.6738 45.936C94.1745 49.822 90.8788 52.8114 86.7841 52.8114C82.6895 52.8114 79.3938 49.9217 78.8944 45.936C78.8944 45.5374 78.8944 45.3381 78.8944 44.9395C78.8944 44.242 78.8944 43.5445 79.0941 42.9466C79.993 39.5587 82.9891 37.0676 86.6842 37.0676C90.0798 37.0676 93.2757 39.5587 94.2744 42.9466C94.3742 43.5445 94.4741 44.3417 94.4741 44.9395C94.6738 45.2384 94.6738 45.5374 94.6738 45.936"/>
	<path fill="#2D1B0A" d="M86.7841 53.7083C82.29 53.7083 78.4949 50.4199 77.8957 45.936L77.8957 44.8399C77.8957 44.0427 77.8957 43.3452 78.1953 42.6477C79.194 38.6619 82.6895 35.9715 86.7841 35.9715C90.6791 35.9715 94.2744 38.7616 95.3729 42.5481C95.5727 43.5445 95.6725 44.242 95.6725 44.7402L95.6725 45.8363C95.0733 50.4199 91.2783 53.7083 86.7841 53.7083M79.993 45.8363C80.4923 49.2243 83.2887 51.7154 86.884 51.7154C90.4793 51.7154 93.2757 49.2243 93.775 45.8363C93.775 44.541 93.6751 43.9431 93.5753 43.1459C92.7763 40.2562 89.98 38.0641 86.9839 38.0641C83.788 38.0641 81.0915 40.1566 80.3924 43.1459C80.2926 43.6441 80.1927 44.242 80.1927 44.8399"/>
	<path fill="#E6FEFF" d="M38.8465 10.7615L52.8283 10.7615C53.9268 10.7615 54.7258 11.758 54.5261 12.8541L53.028 20.9252C52.8283 21.7224 52.1292 22.3202 51.3302 22.3202L36.5495 22.3202C35.3511 22.3202 34.5521 21.2241 34.7885 20.0284L37.2486 11.9573C37.4483 11.2598 38.1474 10.7615 38.8465 10.7615"/>
	<path fill="#2D1B0A" d="M51.3286 23.3167L36.5418 23.3167C35.6426 23.3167 34.8433 22.9181 34.3438 22.2206C33.8033 21.5231 33.6444 20.6263 33.9441 19.8292L36.342 11.758C36.6417 10.5623 37.7407 9.7651 38.9397 9.7651L52.9271 9.7651C53.7264 9.7651 54.5257 10.1637 55.0253 10.7615C55.5248 11.3594 55.7246 12.2562 55.6247 13.0534L54.1261 21.1245C53.7264 22.4199 52.6274 23.3167 51.3286 23.3167M38.8397 11.758C38.54 11.758 38.2403 11.9573 38.1404 12.2562L35.7425 20.3274C35.6426 20.5267 35.7425 20.8256 35.8424 21.0249C35.9423 21.2242 36.2421 21.3238 36.4419 21.3238L51.2287 21.3238C51.6283 21.3238 51.928 21.0249 51.928 20.726L53.4267 12.6548C53.5266 12.3558 53.3268 12.1566 53.2269 12.0569C53.127 11.9573 52.9271 11.758 52.6274 11.758L38.8397 11.758"/>
	<path fill="#E6FEFF" d="M60.922 13.3587L59.574 20.1345C59.3241 21.4298 60.4227 22.7252 61.721 22.7252L79.398 22.8249C81.0958 22.8249 82.0945 21.0313 81.2955 19.6362L77.3007 12.2626C76.9012 11.5651 76.1023 11.1538 75.3033 11.1538L62.9194 11.5651C62.0206 11.5651 61.1218 12.3622 60.922 13.3587"/>
	<path fill="#2D1B0A" d="M79.4936 23.8149L61.7168 23.7153C60.7181 23.7153 59.9191 23.3167 59.3199 22.5196C58.7207 21.8221 58.5963 20.8256 58.5963 19.9288L59.9191 13.153C60.2187 11.6584 61.4172 10.6619 62.9152 10.5623L75.2991 10.1637C76.4975 10.1637 77.5961 10.7616 78.1953 11.8576L82.1901 19.2313C82.6895 20.2278 82.6895 21.4235 82.0903 22.4199C81.5909 23.3167 80.5922 23.8149 79.4936 23.8149M75.4988 12.1566C75.4988 12.1566 75.399 12.1566 75.4988 12.1566L63.115 12.5552C62.5157 12.5552 62.1163 12.9537 62.0164 13.5516L60.7181 20.3274C60.6182 20.6263 60.7181 21.0249 60.9178 21.3238C61.1176 21.6228 61.517 21.7224 61.8167 21.7224L79.4936 21.8221C80.0929 21.8221 80.3925 21.4235 80.4923 21.2242C80.5922 21.0249 80.7919 20.6263 80.4923 20.0285L76.4975 12.6548C76.2978 12.3559 75.8983 12.1566 75.4988 12.1566"/>
	<path fill="#FFD939" d="M109.055 27.2029C109.055 27.2029 109.055 27.3026 108.955 27.4022C108.556 28.0997 107.157 30.6905 109.454 34.0784C112.151 37.9645 116.545 36.1709 116.545 36.1709C116.545 36.1709 117.045 32.2848 113.549 28.8969C110.054 25.509 109.055 27.2029 109.055 27.2029"/>
	<path fill="#2D1B0A" d="M114.248 37.5548C112.451 37.5548 110.253 36.8573 108.655 34.5655C105.959 30.6793 107.557 27.5904 108.056 26.7932C108.156 26.6936 108.156 26.5939 108.156 26.5939C108.356 26.295 108.855 25.8964 109.554 25.7669C110.853 25.5975 112.351 26.3946 114.148 28.1882C117.943 31.8751 117.444 36.0601 117.444 36.2594C116.246 37.3555 115.347 37.5548 114.248 37.5548M109.854 27.7896C109.454 28.4872 108.356 30.5797 110.353 33.4694C112.051 35.9605 114.548 35.6615 115.646 35.4622C115.646 34.3662 115.247 31.8751 112.95 29.6829C110.952 27.8893 110.054 27.7896 109.854 27.7896"/>
</svg>
