<?xml version="1.0" encoding="utf-8" ?>
<svg xmlns="http://www.w3.org/2000/svg" xmlns:xlink="http://www.w3.org/1999/xlink" width="100" height="58">
	<path fill="white" d="M7.88423 58C3.49301 58 0 54.451 0 50.0909L0 43.8042L0 42.7902L0 4.96853C0 2.23077 2.09581 0.101399 4.69062 0.101399L70.4591 0C71.7565 0 72.9541 0.506993 73.8523 1.41958C90.519 20.1783 100 33.0559 100 37.0105C100 40.5594 100 45.021 96.2076 47.3531L95.7086 50.0909C95.7086 54.451 92.1158 58 87.8244 58L7.88423 58M5.98802 50.0909C5.98802 51.1049 6.88623 51.9161 7.88423 51.9161L87.7246 51.9161C88.7226 51.9161 89.521 51.2063 89.6208 50.2937L89.7206 49.1783L88.6228 49.1783C85.5289 49.2797 79.2415 49.2797 65.4691 49.2797L63.7725 49.2797C51.497 49.2797 36.9261 49.1783 25.1497 49.1783C17.3653 49.1783 11.2774 49.0769 6.98603 49.0769L5.98802 50.0909"/>
	<path fill="#EEFDFF" d="M90.1197 45.6294C88.5229 45.8322 82.9341 45.8322 65.1696 45.8322C64.5708 45.8322 64.0718 45.8322 63.473 45.8322C42.4152 45.8322 15.1696 45.6294 4.49101 45.6294C3.5928 45.6294 2.7944 44.9196 2.7944 43.8042L2.7944 4.56297C2.7944 3.65039 3.493 2.7378 4.49101 2.7378L70.2595 2.6364C70.7585 2.6364 71.1577 2.8392 71.4571 3.14339C87.9241 21.6993 96.7066 34.07 96.7066 36.6049C96.6068 42.6888 96.1078 44.9196 90.1197 45.6294"/>
	<path fill="#2D1B0A" d="M65.1697 46.8462L63.473 46.8462C51.1976 46.8462 36.5269 46.7448 24.8503 46.7448C16.2675 46.7448 8.98203 46.6434 4.49101 46.6434C2.994 46.6434 1.7964 45.4266 1.7964 43.8042L1.7964 4.56296C1.7964 3.04198 2.994 1.7238 4.49101 1.7238L70.2595 1.6224C70.9581 1.6224 71.6567 1.9266 72.1557 2.43359C87.4251 19.6714 97.7046 33.3602 97.7046 36.6049C97.7046 42.8916 97.006 45.7308 90.3194 46.542C88.5229 46.8462 83.1337 46.8462 65.1697 46.8462M70.1597 3.75177L4.39121 3.85317C3.89221 3.85317 3.69261 4.25876 3.69261 4.66436L3.69261 43.9056C3.69261 44.4126 4.09181 44.7168 4.39121 44.7168C8.88223 44.7168 16.1677 44.7168 24.7505 44.8182C36.5269 44.9196 51.0978 44.9196 63.3732 44.9196L65.0699 44.9196C82.4351 44.9196 88.3233 44.9196 89.9202 44.7168C95.1098 44.1084 95.6088 42.7902 95.6088 36.8077C95.6088 35.2867 89.521 25.2483 70.6587 4.05597C70.5589 3.75177 70.3593 3.75177 70.1597 3.75177"/>
	<path fill="#FAFFFF" d="M9.58066 9.63289L26.1476 9.63289C27.0457 9.63289 27.7444 10.1399 27.7444 10.8497L27.7444 24.0315C27.7444 24.7413 27.0457 25.3497 26.1476 25.3497L9.58066 25.3497C8.68245 25.3497 7.98385 24.6399 7.98385 24.0315L7.98385 10.8497C7.98385 10.1399 8.68245 9.63289 9.58066 9.63289"/>
	<path fill="#2D1B0A" d="M26.2473 26.3637L9.68046 26.3637C8.28325 26.3637 7.08565 25.2483 7.08565 24.0315L7.08565 10.7483C7.28525 9.53149 8.38306 8.7203 9.68046 8.7203L26.2473 8.7203C27.7444 8.7203 28.8421 9.63289 28.8421 10.9511L28.8421 24.1329C28.8421 25.3497 27.6446 26.3637 26.2473 26.3637M8.98186 10.9511L8.98186 24.0315C8.98186 24.1329 9.28126 24.3357 9.58066 24.3357L26.1475 24.3357C26.5467 24.3357 26.7463 24.0315 26.7463 24.0315L26.7463 10.8497C26.7463 10.8497 26.4469 10.6469 26.1475 10.6469L9.58066 10.6469C9.18146 10.6469 8.98186 10.8497 8.98186 10.9511"/>
	<path fill="#FAFFFF" d="M33.3334 9.63289L50.3993 9.63289C51.2975 9.63289 51.9961 10.1399 51.9961 10.8497L51.9961 24.0315C51.9961 24.7413 51.2975 25.3497 50.3993 25.3497L33.3334 25.3497C32.4352 25.3497 31.7366 24.6399 31.7366 24.0315L31.7366 10.8497C31.7366 10.0385 32.4352 9.63289 33.3334 9.63289"/>
	<path fill="#2D1B0A" d="M50.3993 26.3637L33.3334 26.3637C31.9361 26.3637 30.7386 25.2483 30.7386 24.0315L30.7386 10.7483C30.9382 9.53149 31.9361 8.7203 33.3334 8.7203L50.3993 8.7203C51.8962 8.7203 52.994 9.63289 52.994 10.9511L52.994 24.1329C52.994 25.3497 51.8962 26.3637 50.3993 26.3637M32.6348 10.9511L32.6348 24.0315C32.6348 24.1329 32.9342 24.3357 33.2336 24.3357L50.2994 24.3357C50.6987 24.3357 50.8983 24.0315 50.8983 24.0315L50.8983 10.8497C50.8983 10.8497 50.5989 10.6469 50.2994 10.6469L33.2336 10.6469C33.1338 10.6469 32.7346 10.7483 32.6348 10.9511"/>
	<path fill="#FAFFFF" d="M70.4588 10.0385L55.5886 9.83569L55.5886 25.3497L82.5347 24.8427"/>
	<path fill="#2D1B0A" d="M54.5906 26.3637L54.5906 8.8217L70.9579 9.0245L84.5307 25.8567L54.5906 26.3637M56.5867 10.8497L56.5867 24.3357L80.4389 23.9301L70.0597 11.0525L56.5867 10.8497"/>
	<path fill="#7A98CC" d="M3.5928 35.2867L95.7086 35.2867L95.7086 39.0385L3.5928 39.0385L3.5928 35.2867"/>
	<path fill="#2D1B0A" d="M87.4251 55.5665L7.58487 55.5665C4.29146 55.5665 1.69665 52.93 1.69665 49.6853L1.69665 45.4265L3.69266 45.4265L3.69266 49.6853C3.69266 51.8147 5.48907 53.5384 7.58487 53.5384L87.4251 53.5384C89.6208 53.5384 91.3174 51.8147 91.3174 49.6853L91.3174 45.021L93.3161 45.021L93.3161 49.6853C93.4132 52.93 90.7187 55.5665 87.4251 55.5665"/>
</svg>
