<?xml version="1.0" encoding="utf-8" ?>
<svg xmlns="http://www.w3.org/2000/svg" xmlns:xlink="http://www.w3.org/1999/xlink" width="102" height="72">
	<path fill="white" d="M27.7148 72C22.6574 72 18.8137 69.0166 17.8022 64.442C15.7792 64.442 12.9471 64.442 10.4183 64.442C8.19306 64.442 6.27123 64.442 5.56319 64.442C2.32642 64.442 0.303447 61.7569 0 59.2707L0 26.7514C0 26.5525 0 26.3536 0 26.1547L0 5.37017C0.91034 1.98895 3.43906 0 6.17008 0L96.1926 0C99.3282 0 101.857 2.58564 101.857 5.8674L101.857 26.3536C102 26.9503 102 27.547 102 28.2431L102 58.9724C101.452 64.6409 95.6869 64.6409 93.765 64.6409L89.3145 64.5414C87.9996 68.6188 84.257 71.5028 79.8065 71.5028C75.3559 71.5028 71.7146 68.7182 70.2985 64.7403L37.6274 64.6409C36.4136 68.8177 32.4688 72 27.7148 72"/>
	<path fill="#65DFE5" d="M3.10595 28.2432L3.10595 5.37033C3.51055 3.77917 4.82548 2.68525 6.24157 2.68525L96.264 2.68525C97.8824 2.68525 98.894 4.17696 98.894 5.56923L98.894 28.3427L3.10595 28.3427"/>
	<path fill="#2D1B0A" d="M99.9559 29.2376L2.0438 29.2376L2.0438 4.97242C2.65069 2.98347 4.47137 1.5912 6.29205 1.5912L96.3146 1.5912C98.5399 1.5912 99.9559 3.58015 99.9559 5.46965L99.9559 29.2376M4.06678 27.2487L97.933 27.2487L97.933 5.46965C97.933 4.57463 97.2249 3.58015 96.3146 3.58015L6.29205 3.58015C5.38171 3.58015 4.37022 4.37573 4.06678 5.46965L4.06678 27.2487"/>
	<path fill="#65DFE5" d="M34.1885 61.1601C33.0758 55.9888 29.8391 54.3978 27.3103 54.3978C24.7816 54.3978 21.5449 55.9888 20.6345 60.4641C20.5334 61.1601 7.88975 61.1601 5.66447 61.1601C3.4392 61.1601 3.0346 58.5745 3.0346 58.5745L3.0346 26.3535C3.0346 25.2596 3.84379 24.5634 4.85528 24.5634L95.8893 24.5634C95.9904 24.5634 98.8226 24.5634 99.0249 27.5469L99.0249 58.3756C98.7215 61.2595 95.7882 61.2595 93.8663 61.2595L86.9882 61.0606C86.887 60.3646 86.4825 57.9778 84.8641 56.1878C83.7514 54.895 82.0319 54.2982 79.7055 54.2982C78.694 54.2982 76.9745 54.3978 75.1538 56.1878C73.3331 58.0773 73.5354 60.3646 73.5354 60.4641L34.1885 61.1601"/>
	<path fill="#2D1B0A" d="M74.5469 62.3535L33.3793 62.1546L33.0759 60.7623C32.1655 56.8839 29.4345 55.4916 27.3104 55.4916C25.1863 55.4916 22.4552 56.8839 21.646 60.7623L21.3426 62.254C20.4323 62.254 7.88979 62.254 5.66451 62.254C3.13579 62.254 2.1243 59.9667 2.1243 58.7734L2.1243 26.4529C2.1243 24.8618 3.33809 23.6684 4.95647 23.6684L95.9905 23.6684C96.4962 23.6684 97.71 23.6684 98.6204 24.5634C99.2273 25.0607 100.036 25.9557 100.138 27.5469L100.138 58.3756C99.733 62.254 95.7882 62.254 93.9675 62.254L86.179 62.0551L85.9767 60.5634C85.9767 60.5634 85.5722 58.475 84.2572 56.8839C83.3469 55.8894 81.9308 55.2927 79.9078 55.2927C79.0986 55.2927 77.6825 55.2927 76.0642 56.8839C74.6481 58.2761 74.7492 60.0662 74.7492 60.3645L74.5469 62.3535M34.9977 60.1656L72.4228 60.3645C72.4228 59.4695 72.4228 57.2817 74.3446 55.4916C76.5699 53.3038 78.5929 53.3038 79.6044 53.3038C82.2342 53.3038 84.2572 53.9999 85.5722 55.4916C87.0894 57.2817 87.6963 59.4695 87.7974 60.0662L93.8664 60.2651C96.4962 60.2651 97.9123 59.9667 98.0135 58.3756L98.0135 27.6463C97.9123 25.8563 96.3951 25.6574 95.9905 25.6574L4.85532 25.6574C4.34958 25.6574 4.04613 25.9557 4.04613 26.4529L4.04613 58.5745C4.14728 58.8728 4.34958 60.1656 5.66451 60.2651C7.58634 60.2651 16.892 60.2651 19.7242 60.2651C20.8368 55.2927 24.5794 53.6021 27.4115 53.6021C30.2437 53.6021 33.8851 55.1933 34.9977 60.1656"/>
	<path fill="#E6FEFF" d="M10.823 10.5415L22.1517 10.5415C22.5563 10.5415 22.7586 10.9393 22.7586 11.1382L22.7586 16.3094C22.7586 16.7072 22.354 16.9061 22.1517 16.9061L10.823 16.9061C10.4184 16.9061 10.2161 16.5083 10.2161 16.3094L10.2161 11.1382C10.2161 10.9393 10.4184 10.5415 10.823 10.5415"/>
	<path fill="#2D1B0A" d="M22.1517 17.9006L10.823 17.9006C9.81149 17.9006 9.2046 17.0056 9.2046 16.3094L9.2046 11.1382C9.2046 10.5415 9.81149 9.54701 10.823 9.54701L22.1517 9.54701C23.1631 9.54701 23.77 10.442 23.77 11.1382L23.77 16.3094C23.6689 17.3039 22.7586 17.9006 22.1517 17.9006M11.2276 15.9116L21.6459 15.9116L21.6459 11.536L11.2276 11.536L11.2276 15.9116"/>
	<path fill="#E6FEFF" d="M28.511 10.5415L39.8397 10.5415C40.2443 10.5415 40.4466 10.9393 40.4466 11.1382L40.4466 16.3094C40.4466 16.7072 40.042 16.9061 39.8397 16.9061L28.511 16.9061C28.1064 16.9061 27.8883 16.5083 27.8883 16.3094L27.8883 11.1382C27.8883 10.9393 28.2076 10.5415 28.511 10.5415"/>
	<path fill="#2D1B0A" d="M39.8528 17.9006L28.524 17.9006C27.5125 17.9006 26.8638 17.0056 26.8638 16.3094L26.8638 11.3371C26.8638 11.1382 26.8638 10.8398 27.0068 10.5415C27.2091 9.9448 27.9171 9.54701 28.524 9.54701L39.8528 9.54701C40.8642 9.54701 41.4711 10.442 41.4711 11.1382L41.4711 16.3094C41.4711 17.3039 40.5607 17.9006 39.8528 17.9006M29.0298 15.9116L39.4482 15.9116L39.4482 11.536L29.0298 11.536L29.0298 15.9116"/>
	<path fill="#E6FEFF" d="M46.1239 10.5415L57.4526 10.5415C57.8572 10.5415 58.0595 10.9393 58.0595 11.1382L58.0595 16.3094C58.0595 16.7072 57.6549 16.9061 57.4526 16.9061L46.1239 16.9061C45.7193 16.9061 45.517 16.5083 45.517 16.3094L45.517 11.1382C45.517 10.9393 45.9216 10.5415 46.1239 10.5415"/>
	<path fill="#2D1B0A" d="M57.4526 17.9006L46.1239 17.9006C45.1124 17.9006 44.5055 17.0056 44.5055 16.3094L44.5055 11.1382C44.5055 10.442 45.2135 9.54701 46.1239 9.54701L57.4526 9.54701C58.464 9.54701 59.0709 10.442 59.0709 11.1382L59.0709 16.3094C59.0709 17.3039 58.1606 17.9006 57.4526 17.9006M46.5285 15.9116L56.9468 15.9116L56.9468 11.536L46.5285 11.536L46.5285 15.9116"/>
	<path fill="#E6FEFF" d="M64.1284 10.5415L75.4571 10.5415C75.8617 10.5415 76.064 10.9393 76.064 11.1382L76.064 16.3094C76.064 16.7072 75.6594 16.9061 75.4571 16.9061L64.1284 16.9061C63.7239 16.9061 63.5216 16.5083 63.5216 16.3094L63.5216 11.1382C63.2181 10.9393 63.5216 10.5415 64.1284 10.5415"/>
	<path fill="#2D1B0A" d="M75.3559 17.9006L64.0273 17.9006C63.0158 17.9006 62.333 17.0056 62.333 16.3094L62.333 11.4365C62.333 11.1382 62.333 10.9393 62.333 10.6409C62.6112 10.0442 63.2181 9.54701 64.0273 9.54701L75.3559 9.54701C76.3674 9.54701 76.9743 10.442 76.9743 11.1382L76.9743 16.3094C76.9743 17.3039 76.064 17.9006 75.3559 17.9006M64.533 15.9116L74.9513 15.9116L74.9513 11.536L64.533 11.536L64.533 15.9116"/>
	<path fill="#E6FEFF" d="M81.4249 10.5415L92.7536 10.5415C93.1582 10.5415 93.3605 10.9393 93.3605 11.1382L93.3605 16.3094C93.3605 16.7072 92.9559 16.9061 92.7536 16.9061L81.4249 16.9061C81.0203 16.9061 80.818 16.5083 80.818 16.3094L80.818 11.1382C81.0203 10.9393 81.2226 10.5415 81.4249 10.5415"/>
	<path fill="#2D1B0A" d="M92.7536 17.9006L81.4249 17.9006C80.4134 17.9006 79.8065 17.0056 79.8065 16.3094L79.8065 10.7404C80.1099 10.442 80.2111 10.3426 80.2111 10.3426C80.4134 10.0442 80.818 9.54701 81.4249 9.54701L92.7536 9.54701C93.765 9.54701 94.3719 10.442 94.3719 11.1382L94.3719 16.3094C94.3719 17.3039 93.3605 17.9006 92.7536 17.9006M81.8295 15.9116L92.2478 15.9116L92.2478 11.536L81.8295 11.536L81.8295 15.9116"/>
	<path fill="#E6FEFF" d="M28.2096 33.116L39.5383 33.116C39.9429 33.116 40.1452 33.5138 40.1452 33.7127L40.1452 38.884C40.1452 39.2817 39.7406 39.4806 39.5383 39.4806L28.2096 39.4806C27.805 39.4806 27.5489 39.0829 27.5489 38.884L27.5489 33.7127C27.4004 33.5138 27.805 33.116 28.2096 33.116"/>
	<path fill="#2D1B0A" d="M39.5492 40.4751L28.2206 40.4751C27.2091 40.4751 26.5264 39.5801 26.5264 38.884L26.5264 33.9116C26.5264 33.6132 26.5264 33.3149 26.5264 33.0166C26.8045 32.4199 27.5126 32.0221 28.2206 32.0221L39.5492 32.0221C40.5607 32.0221 41.1676 32.9171 41.1676 33.6132L41.1676 38.7845C41.1676 39.9779 40.1562 40.4751 39.5492 40.4751M28.6252 38.4862L39.0435 38.4862L39.0435 34.1105L28.6252 34.1105L28.6252 38.4862"/>
	<path fill="#E6FEFF" d="M45.7193 33.116L57.048 33.116C57.4526 33.116 57.6549 33.5138 57.6549 33.7127L57.6549 38.8839C57.6549 39.2817 57.2503 39.4806 57.048 39.4806L45.7193 39.4806C45.3147 39.4806 45.1124 39.0828 45.1124 38.8839L45.1124 33.7127C45.1124 33.5138 45.517 33.116 45.7193 33.116"/>
	<path fill="#2D1B0A" d="M57.048 40.4751L45.7193 40.4751C44.7078 40.4751 44.1009 39.5801 44.1009 38.8839L44.1009 33.7127C44.1009 32.9171 45.0112 32.1215 45.7193 32.1215L57.048 32.1215C58.0594 32.1215 58.6663 33.0165 58.6663 33.7127L58.6663 38.8839C58.6663 39.9779 57.6549 40.4751 57.048 40.4751M46.1239 38.4861L56.5422 38.4861L56.5422 34.1105L46.1239 34.1105L46.1239 38.4861"/>
	<path fill="#E6FEFF" d="M63.6227 33.116L74.9513 33.116C75.3559 33.116 75.5582 33.5138 75.5582 33.7127L75.5582 38.8839C75.5582 39.2817 75.1536 39.4806 74.9513 39.4806L63.6227 39.4806C63.2181 39.4806 62.9816 39.0828 62.9816 38.8839L62.9816 33.7127C62.9816 33.5138 62.9816 33.116 63.6227 33.116"/>
	<path fill="#2D1B0A" d="M74.9514 40.4751L63.6227 40.4751C62.6112 40.4751 61.9379 39.5801 61.9379 38.8839L61.9379 33.9116C61.9379 33.6132 61.9379 33.2154 62.1054 32.9171C62.4089 32.4199 62.9146 32.1215 63.6227 32.1215L74.9514 32.1215C75.9629 32.1215 76.5697 33.0165 76.5697 33.7127L76.5697 38.8839C76.5697 39.9779 75.6593 40.4751 74.9514 40.4751M64.0273 38.4861L74.4456 38.4861L74.4456 34.1105L64.0273 34.1105L64.0273 38.4861"/>
	<path fill="#E6FEFF" d="M81.2226 33.116L92.5513 33.116C92.9559 33.116 93.1582 33.5138 93.1582 33.7127L93.1582 38.8839C93.1582 39.2817 92.7536 39.4806 92.5513 39.4806L81.2226 39.4806C80.818 39.4806 80.6157 39.0828 80.6157 38.8839L80.6157 33.7127C80.6157 33.5138 80.818 33.116 81.2226 33.116"/>
	<path fill="#2D1B0A" d="M92.5513 40.4751L81.2226 40.4751C80.2111 40.4751 79.6042 39.5801 79.6042 38.8839L79.6042 33.7127C79.6042 32.9171 80.2111 32.1215 81.2226 32.1215L92.5513 32.1215C93.5627 32.1215 94.1696 33.0165 94.1696 33.7127L94.1696 38.8839C94.1696 39.9779 93.2593 40.4751 92.5513 40.4751M81.6272 38.4861L92.0455 38.4861L92.0455 34.1105L81.6272 34.1105L81.6272 38.4861"/>
	<path fill="#E6FEFF" d="M10.4183 33.116L21.1401 33.116C21.5447 33.116 21.747 33.5138 21.747 33.5138L21.747 52.011C21.747 52.4088 21.3424 52.4088 21.1401 52.4088L10.4183 52.4088C10.0137 52.4088 9.81143 52.011 9.81143 52.011L9.81143 33.5138C9.81143 33.3149 10.0137 33.116 10.4183 33.116"/>
	<path fill="#2D1B0A" d="M21.1402 53.4033L10.4183 53.4033C9.60914 53.4033 9.1034 52.906 8.79995 52.4088L8.79995 33.5138C8.79995 32.8176 9.30569 32.1215 10.4183 32.1215L21.1402 32.1215C21.9493 32.1215 22.455 32.6187 22.6573 33.116L22.7584 52.011C22.7584 52.6077 22.455 53.4033 21.1402 53.4033M10.9241 51.4143L20.8367 51.4143L20.8367 34.1104L10.9241 34.1104L10.9241 51.4143"/>
	<path fill="#704C28" d="M20.5332 61.558C20.5332 57.6796 23.77 54.3978 27.7148 54.3978C31.5584 54.3978 34.8963 57.4807 34.8963 61.558C34.8963 65.4365 31.6596 68.7182 27.7148 68.7182C22.9608 68.7182 20.5332 65.4365 20.5332 61.558"/>
	<path fill="#2D1B0A" d="M27.7148 69.7127C22.8597 69.7127 19.5217 66.4309 19.5217 61.558C19.5217 57.0829 23.1631 53.4033 27.7148 53.4033C32.2665 53.4033 35.9079 57.0829 35.9079 61.558C35.9079 66.0331 32.2665 69.7127 27.7148 69.7127M27.7148 55.3923C24.2757 55.3923 21.5447 58.1768 21.5447 61.558C21.5447 64.5414 23.1631 67.7237 27.7148 67.7237C31.1539 67.7237 33.8848 64.9392 33.8848 61.558C33.8848 58.1768 31.1539 55.3923 27.7148 55.3923"/>
	<path fill="#704C28" d="M72.7261 60.8619C72.7261 56.9834 75.8617 53.7017 79.7054 53.7017C83.4479 53.7017 86.6846 56.7845 86.6846 60.8619C86.6846 64.7404 83.549 68.0221 79.7054 68.0221C75.6594 68.0221 72.7261 64.7404 72.7261 60.8619"/>
	<path fill="#2D1B0A" d="M79.8065 69.0166C75.356 69.0166 71.8158 65.4365 71.8158 60.8619C71.8158 56.3868 75.4571 52.7072 79.8065 52.7072C84.257 52.7072 87.7972 56.3868 87.7972 60.8619C87.7972 65.337 84.156 69.0166 79.8065 69.0166M79.8065 54.6961C76.4686 54.6961 73.8387 57.4807 73.8387 60.8619C73.8387 64.3426 76.4686 67.0276 79.8065 67.0276C83.1444 67.0276 85.7742 64.2431 85.7742 60.8619C85.7742 57.4807 83.0433 54.6961 79.8065 54.6961"/>
</svg>
