<?xml version="1.0" encoding="utf-8" ?>
<svg xmlns="http://www.w3.org/2000/svg" xmlns:xlink="http://www.w3.org/1999/xlink" width="42" height="84">
	<path fill="white" d="M31.7624 0C31.7624 0 11.6967 0.0998811 11.1848 0.0998811C9.95632 0.0998811 7.29454 0.299643 4.83752 1.49822C2.68762 2.69679 0 5.09394 0 9.78835L0 74.0119C-0.178904 76.8086 0.74248 82.1023 6.06603 83.5006C7.80642 83.7004 10.8777 84 15.7917 84C23.3676 84 32.5814 83.5006 33.8099 83.5006C37.7002 83.5006 42 81.1034 42 74.0119L42 9.4887C41.7952 6.19263 39.3382 0 31.7624 0"/>
	<path fill="#2D1B0A" d="M11.1997 4.79427C11.4044 4.79427 11.7113 4.79427 11.7113 4.79427L31.8696 4.79427C36.4743 4.79427 37.1907 8.78951 37.1907 9.98808L37.1907 74.2116C37.1907 78.2069 35.2465 78.906 34.0186 78.906C33.6092 78.906 23.6835 79.4054 15.9067 79.4054C10.2788 79.4054 8.12992 79.2057 7.20898 78.906C4.54849 78.2069 4.75314 74.4114 4.75314 74.4114L4.75314 9.8882C4.75314 7.7907 5.46943 6.59212 6.902 5.59331C8.8462 5.09391 10.4834 4.79427 11.1997 4.79427M11.1997 2.497C9.25551 2.497 2.48675 2.9964 2.48675 9.8882C2.48675 17.6789 2.48675 74.4114 2.48675 74.4114C2.48675 74.4114 1.99033 80.3044 6.902 81.5029C8.64155 81.7027 12.223 82.0024 16.1114 82.0024C24.0928 82.0024 34.1208 81.5029 34.1208 81.5029C34.1208 81.5029 34.1208 81.5029 34.3256 81.5029C35.2465 81.5029 39.9535 81.0035 39.9535 74.4114C39.9535 66.8204 39.9535 9.8882 39.9535 9.8882C39.9535 9.8882 39.4419 2.497 32.1767 2.497C24.9114 2.497 12.0183 2.497 12.0183 2.497C12.0183 2.497 11.7113 2.497 11.1997 2.497"/>
	<path fill="#ED462F" d="M20.8476 9.68382C25.3499 9.68382 29.0337 13.2795 29.0337 17.6743C29.0337 22.3687 25.4523 25.9738 20.8476 25.9738C18.9034 26.0643 17.0615 25.3651 15.6289 23.9668C13.8894 22.3687 12.9663 20.0714 12.9663 17.6743C12.9663 13.2795 16.4475 9.68382 20.8476 9.68382"/>
	<path fill="#2D1B0A" d="M20.4411 26.9679C18.3945 26.9679 16.4503 26.1689 14.9154 24.6707C13.0735 22.9727 11.9403 20.3758 11.9403 17.679C11.9403 15.2819 12.7666 12.9846 14.5061 11.2866C16.1433 9.58863 18.3945 8.6897 20.8504 8.6897C25.9667 8.6897 30.0597 12.6849 30.0597 17.679C30.0597 22.8728 25.9667 26.9679 20.8504 26.9679C20.748 26.9679 20.5434 26.9679 20.4411 26.9679M20.8504 10.6873C19.0085 10.6873 17.2689 11.3865 15.9387 12.6849C14.6084 13.9834 13.8922 15.7813 13.9945 17.679C13.9945 19.8764 14.8131 21.874 16.348 23.2723C17.5759 24.4709 19.2131 25.0702 20.8504 24.9703C24.9435 24.9703 28.1156 21.874 28.1156 17.679C28.0133 13.8835 24.841 10.6873 20.8504 10.6873"/>
	<path fill="#FFCB64" d="M20.8977 50.3448C19.0558 50.4353 17.1116 49.7361 15.679 48.3378C13.9395 46.7397 13.0185 44.4424 13.0185 42.0453C13.0185 37.6505 16.6 34.0548 21 34.0548C25.5023 34.0548 29.1861 37.6505 29.1861 42.0453C29.0839 46.7397 25.5023 50.3448 20.8977 50.3448"/>
	<path fill="#2D1B0A" d="M20.4884 51.3389C18.4419 51.3389 16.3953 50.5399 14.8604 49.0417C13.0185 47.3437 11.893 44.7468 11.893 42.05C11.893 37.0559 15.8837 33.0607 20.8977 33.0607C26.014 33.0607 30.107 37.0559 30.107 42.05C30.0047 47.3437 26.014 51.3389 20.7954 51.3389C20.7954 51.3389 20.5907 51.3389 20.4884 51.3389M21 35.0583C17.2139 35.0583 14.0418 38.1546 14.0418 42.05C14.0418 44.2474 14.8604 46.245 16.3953 47.6433C17.6232 48.8419 19.2605 49.4412 20.8977 49.3413C25.0931 49.3413 28.1628 46.245 28.2652 42.05C28.1628 38.2545 24.8885 35.0583 21 35.0583"/>
	<path fill="#99CC62" d="M20.8977 74.8109C18.9535 74.8109 17.0093 74.1118 15.5767 72.6135C13.9395 71.0154 12.9162 68.8181 12.9162 66.5208C12.9162 62.126 16.4977 58.5303 20.8977 58.5303C25.4 58.5303 29.0838 62.126 29.0838 66.5208C29.0838 71.2152 25.5024 74.8109 20.8977 74.8109"/>
	<path fill="#2D1B0A" d="M20.8977 75.8097C18.5442 75.8097 16.3953 74.9108 14.8604 73.3127C13.0185 71.5149 11.893 69.0178 11.893 66.5208C11.893 61.5267 15.8837 57.5315 20.8977 57.5315C26.014 57.5315 30.107 61.5267 30.107 66.5208C30.107 71.7146 26.014 75.8097 20.8977 75.8097M20.8977 59.5291C17.1116 59.5291 13.9395 62.6254 13.9395 66.5208C13.9395 68.5184 14.7581 70.4162 16.293 71.9144C17.5209 73.113 19.0558 73.8121 20.8977 73.8121C24.9907 73.8121 28.0606 70.7158 28.0606 66.5208C28.0606 62.7253 24.786 59.5291 20.8977 59.5291"/>
</svg>
