<?xml version="1.0" encoding="utf-8" ?>
<svg xmlns="http://www.w3.org/2000/svg" xmlns:xlink="http://www.w3.org/1999/xlink" width="64" height="88">
	<path fill="white" d="M61.6112 6.42922L48.0747 6.42922C48.2737 2.00913 44.4914 0.200913 41.7045 0L22.2955 0C19.7076 0 15.7263 1.70776 15.4277 6.42922L2.3888 6.42922L0 6.42922L0 8.84018L0 12.8584L0 15.2694L2.3888 15.2694L15.4277 15.2694L15.4277 16.4749C15.4277 17.1781 15.4277 17.8813 15.6267 18.5845L8.26128 18.5845L7.06687 18.5845C5.87247 20.1918 5.47434 20.895 5.87247 64.5936C5.87247 64.7945 6.56921 72.0274 15.3281 75.3425C17.0202 75.8447 19.1104 76.2466 21.4992 76.5479L21.4992 78.4566C21.4992 81.7717 23.888 88 31.8507 88C40.311 88 42.2022 81.0685 42.2022 78.4566L42.2022 76.347C44.79 76.1461 47.8756 75.4429 49.9658 74.6393C57.3313 71.8265 58.028 64.3927 58.028 63.8904L58.028 20.6941L58.028 18.2831L55.6392 18.2831L48.0747 18.2831L48.0747 15.2694L61.6112 15.2694L64 15.2694L64 12.8584L64 8.84018L64 6.42922L61.6112 6.42922"/>
	<path fill="#FFE161" d="M31.3717 73.6348C25.0015 73.6348 19.5272 73.1324 16.7403 71.9269C10.3701 69.516 9.6734 64.4931 9.6734 64.2923C9.5241 49.2237 9.5241 26.8219 9.6734 21.8995L55.0606 21.8995L55.0606 63.8904C55.0606 64.0913 54.563 69.4156 49.1882 71.5251C46.0031 72.9315 38.9362 73.6348 31.3717 73.6348"/>
	<path fill="#2D1B0A" d="M31.3725 74.6394C26.3997 74.6394 19.7362 74.338 16.3547 72.8312C10.0891 70.4202 8.69668 65.3974 8.69668 64.2924C8.5475 49.023 8.5475 26.822 8.69668 21.8997L8.69668 20.8951L56.0374 20.8951L56.0374 63.8905C56.0374 63.991 55.6396 70.0184 49.5728 72.4293C46.4897 73.8357 39.6273 74.6394 31.3725 74.6394M10.6858 64.2924C10.6858 64.2924 11.2825 68.8129 17.1504 71.023C19.6368 72.128 24.709 72.6303 31.3725 72.6303C39.3289 72.6303 45.9924 71.8266 48.7772 70.6211C53.6505 68.7125 54.0483 63.8905 54.0483 63.8905L54.0483 22.9042L10.6858 22.9042C10.4869 29.3335 10.4869 50.2284 10.6858 64.2924"/>
	<path fill="#704C28" d="M32 84.8857C25.4308 84.8857 25.1322 79.1598 25.1322 78.9588L25.1322 59.8721C25.1322 59.3698 25.3312 54.347 32 54.347C38.8678 54.347 38.8678 59.5707 38.8678 59.8721L38.8678 78.9588C38.8678 79.3606 38.6687 84.8857 32 84.8857"/>
	<path fill="#2D1B0A" d="M32 85.8902C25.6299 85.8902 24.1369 80.767 24.1369 78.9587L24.1369 59.872C24.1369 57.461 25.8289 53.3423 32 53.3423C38.1711 53.3423 39.8632 57.461 39.8632 59.872L39.8632 78.9587C39.8632 81.3697 38.2705 85.8902 32 85.8902M32 55.3514C26.3266 55.3514 26.1275 59.3697 26.1275 59.872L26.1275 78.9587C26.1275 79.1597 26.3266 83.8811 32 83.8811C37.6734 83.8811 37.8725 79.461 37.8725 78.9587L37.8725 59.872C37.8725 59.1688 37.5739 55.3514 32 55.3514"/>
	<path fill="#E6FEFF" d="M15.7263 37.169L24.4853 37.169L24.4853 42.1918L15.7263 42.1918L15.7263 37.169"/>
	<path fill="#2D1B0A" d="M25.4806 43.1964L14.731 43.1964L14.731 36.1644L25.4806 36.1644L25.4806 43.1964M16.7217 41.1873L23.4899 41.1873L23.4899 38.1735L16.7217 38.1735L16.7217 41.1873"/>
	<path fill="#E6FEFF" d="M40.1119 37.169L48.8709 37.169L48.8709 42.1918L40.1119 42.1918L40.1119 37.169"/>
	<path fill="#2D1B0A" d="M49.8662 43.1964L39.1166 43.1964L39.1166 36.1644L49.8662 36.1644L49.8662 43.1964M41.1073 41.1873L47.8755 41.1873L47.8755 38.1735L41.1073 38.1735L41.1073 41.1873"/>
	<path fill="#FFE161" d="M21.3996 20.2922C21.3996 20.2922 19.0108 19.7899 19.0108 16.4748L19.0108 6.93149C19.0108 3.81733 21.7978 3.61642 22.2954 3.61642L41.9035 3.61642C42.1026 3.61642 45.1881 3.81733 45.1881 7.43377L45.1881 18.1826C45.1881 18.1826 44.6904 20.5936 41.4058 20.5936L21.3996 20.5936"/>
	<path fill="#2D1B0A" d="M41.4059 21.5982L20.4043 21.5982C19.3094 20.3927 18.0155 19.0868 18.0155 16.4748L18.0155 6.93148C18.0155 3.51596 20.8024 2.61185 22.2954 2.61185L41.9035 2.61185C42.9984 2.61185 46.1835 3.51596 46.1835 7.43377L46.1835 18.3836C45.9844 19.4886 44.6905 21.5982 41.4059 21.5982M22.395 19.5891L41.4059 19.5891C43.4961 19.5891 44.0933 18.3836 44.1928 18.0821L44.1928 7.43377C44.1928 4.8219 42.1026 4.62098 41.9035 4.62098L22.2954 4.62098C21.7978 4.62098 20.0062 4.8219 20.0062 6.93148L20.0062 16.4748C20.0062 18.9862 21.5987 19.2877 21.5987 19.2877"/>
	<path fill="#F5A6A3" d="M3.68275 10.0456L16.7216 10.0456L16.7216 11.7534L3.68275 11.7534L3.68275 10.0456"/>
	<path fill="#4C4C4C" d="M18.1151 8.84017L2.48835 8.84017L2.48835 12.8584L18.1151 12.8584"/>
	<path fill="#F5A6A3" d="M47.378 10.0456L60.4169 10.0456L60.4169 11.7534L47.378 11.7534L47.378 10.0456"/>
	<path fill="#4C4C4C" d="M61.8103 8.84017L46.2831 8.84017L46.2831 12.8584L61.8103 12.8584"/>
</svg>
