<?xml version="1.0" encoding="utf-8" ?>
<svg xmlns="http://www.w3.org/2000/svg" xmlns:xlink="http://www.w3.org/1999/xlink" width="86" height="84">
	<path fill="white" d="M85.8471 29.5574C85.3415 27.2213 83.7235 24.7836 77.9596 24.5804L77.9596 12.2902C77.2517 4.16445 69.9709 0.50786 66.1283 0C66.1283 0 20.3201 0.711004 19.1066 0.711004C17.1853 0.711004 14.5562 0.914148 12.1292 2.64087C10.2079 3.85973 7.78099 6.70375 7.78099 11.7823L7.78099 24.5804C2.21929 24.7836 0.601341 27.2213 0 29.1511C-0.106512 33.6203 -0.106512 37.9879 1.30919 40.9335C2.01705 42.1524 3.23051 43.3712 7.78099 43.7775L7.78099 67.8501C7.78099 71.9129 11.118 75.5695 15.4663 75.5695C17.0842 80.3434 20.9268 84 25.7807 84C30.5334 84 34.376 80.3434 35.185 75.5695L50.0499 75.5695C50.7578 80.3434 54.6004 84 59.4543 84C64.3081 84 68.0496 80.3434 68.8586 75.5695L70.2743 75.5695C74.3192 75.5695 77.9596 72.2177 77.9596 67.8501L77.9596 43.7775C82.51 43.2696 83.9258 41.8476 84.4314 40.9335C86.1504 38.0895 86.1504 33.7219 85.8471 29.5574"/>
	<path fill="#704C28" d="M25.6072 79.8355C21.5642 79.8355 21.5642 76.4836 21.5642 76.2805L21.5642 65.006C21.5642 64.7013 21.5642 61.7557 25.6072 61.7557C29.6501 61.7557 29.6501 64.8029 29.6501 65.006L29.6501 76.2805C29.6501 76.5852 29.5491 79.8355 25.6072 79.8355"/>
	<path fill="#2D1B0A" d="M25.6072 80.8512C21.4632 80.8512 20.5535 77.4994 20.5535 76.2805L20.5535 65.006C20.5535 63.4824 21.6653 60.74 25.6072 60.74C29.6501 60.74 30.6609 63.4824 30.6609 65.006L30.6609 76.2805C30.6609 77.9057 29.6501 80.8512 25.6072 80.8512M25.6072 62.7714C22.676 62.7714 22.575 64.5997 22.575 65.006L22.575 76.2805C22.575 76.4837 22.7771 78.8198 25.6072 78.8198C28.5383 78.8198 28.6394 76.7884 28.6394 76.2805L28.6394 65.006C28.6394 64.4982 28.4372 62.7714 25.6072 62.7714"/>
	<path fill="#704C28" d="M59.9723 79.8355C55.9293 79.8355 55.9293 76.4836 55.9293 76.2805L55.9293 65.006C55.9293 64.7013 55.9293 61.7557 59.9723 61.7557C64.0152 61.7557 64.0152 64.8029 64.0152 65.006L64.0152 76.2805C64.0152 76.5852 63.9142 79.8355 59.9723 79.8355"/>
	<path fill="#2D1B0A" d="M59.9723 80.8512C55.8283 80.8512 54.9186 77.4994 54.9186 76.2805L54.9186 65.006C54.9186 63.4824 56.0304 60.74 59.9723 60.74C64.0152 60.74 65.026 63.4824 65.026 65.006L65.026 76.2805C65.026 77.9057 64.0152 80.8512 59.9723 80.8512M59.9723 62.7714C57.0411 62.7714 56.9401 64.5997 56.9401 65.006L56.9401 76.2805C56.9401 76.4837 57.1422 78.8198 59.9723 78.8198C62.9034 78.8198 63.0045 76.7884 63.0045 76.2805L63.0045 65.006C63.0045 64.4982 62.8023 62.7714 59.9723 62.7714"/>
	<path fill="#65DFE5" d="M74.4305 28.237C75.138 28.237 76.1488 28.0338 77.0584 28.0338C78.7767 28.0338 81.6067 28.237 81.8089 29.9637C82.011 33.1124 82.011 36.9722 80.8992 39.1051C80.3938 39.8161 77.5638 40.324 74.2283 40.5271L74.2283 28.237"/>
	<path fill="#2D1B0A" d="M73.2129 41.6445L73.2129 27.2212L74.4258 27.2212C74.729 27.2212 75.1333 27.2212 75.4365 27.1197C75.9419 27.0181 76.4473 27.0181 77.0537 27.0181C80.6924 27.0181 82.6128 27.9322 82.8149 29.8621C83.1181 34.5344 82.8149 37.6832 81.8042 39.613C81.3999 40.1209 80.6924 41.1366 74.2237 41.5429L73.2129 41.6445M75.2344 29.2527L75.2344 39.5114C78.07 39.3083 79.6816 38.8004 80.0859 38.5973C80.7934 37.0737 81.0967 34.2297 80.7934 30.1668C80.6924 29.7605 79.6816 29.1511 77.0537 29.1511C76.6494 29.1511 76.1441 29.2527 75.7398 29.2527C75.5376 29.2527 75.4365 29.2527 75.2344 29.2527"/>
	<path fill="#65DFE5" d="M15.9122 71.8115C13.7896 71.8115 11.8693 70.0848 11.8693 67.7486L11.8693 11.5793C11.8693 6.50073 13.0821 4.67244 18.2369 4.16458C19.4498 4.063 21.8755 4.26615 21.8755 4.26615L66.4491 3.352C66.4491 3.352 74.1306 4.77401 74.1306 11.9856L74.1306 67.647C74.1306 69.7801 72.4125 71.7099 70.0877 71.7099L15.9122 71.8115"/>
	<path fill="#2D1B0A" d="M15.9121 72.827C13.082 72.827 10.8584 70.5924 10.8584 67.7484L10.8584 11.5791C10.8584 5.78955 12.6777 3.65654 18.1357 3.14868C19.3486 3.0471 21.5722 3.25025 21.8754 3.25025L66.55 2.3361C69.5823 2.84396 75.1413 5.5864 75.1413 11.9854L75.1413 67.6469C75.1413 70.4909 72.9177 72.7255 70.0876 72.7255L15.9121 72.827M19.1465 5.18011C18.8432 5.18011 18.6411 5.18011 18.3379 5.18011C13.8906 5.5864 12.8799 6.80527 12.8799 11.5791L12.8799 67.7484C12.8799 69.4752 14.1938 70.7956 15.9121 70.7956L70.0876 70.694C71.8059 70.694 73.1198 69.3736 73.1198 67.6469L73.1198 11.9854C73.1198 6.09426 67.2576 4.57068 66.3479 4.36754L21.8754 5.28169C21.7744 5.28169 20.2583 5.18011 19.1465 5.18011"/>
	<path fill="#FFE161" d="M55.4239 61.0448C55.4239 58.607 57.1422 56.6772 59.4669 56.6772C61.5894 56.6772 63.5098 58.4039 63.5098 61.0448C63.5098 63.1778 61.7916 65.1076 59.4669 65.1076C57.1422 65.1076 55.4239 63.3809 55.4239 61.0448"/>
	<path fill="#2D1B0A" d="M59.4669 66.1234C56.5358 66.1234 54.4132 63.9903 54.4132 61.0448C54.4132 57.9976 56.6368 55.6614 59.4669 55.6614C62.297 55.6614 64.5206 57.9976 64.5206 61.0448C64.5206 63.8888 62.297 66.1234 59.4669 66.1234M59.4669 57.6929C57.7486 57.6929 56.4347 59.1149 56.4347 61.0448C56.4347 62.7715 57.7486 64.0919 59.4669 64.0919C61.1851 64.0919 62.4991 62.7715 62.4991 61.0448C62.4991 58.9118 60.983 57.6929 59.4669 57.6929"/>
	<path fill="#FFE161" d="M22.0695 61.0448C22.0695 58.607 23.7878 56.6772 26.1125 56.6772C28.235 56.6772 30.1554 58.4039 30.1554 61.0448C30.1554 63.1778 28.4372 65.1076 26.1125 65.1076C23.7878 65.1076 22.0695 63.3809 22.0695 61.0448"/>
	<path fill="#2D1B0A" d="M26.1125 66.1234C23.1814 66.1234 21.0588 63.9903 21.0588 61.0448C21.0588 57.9976 23.2824 55.6614 26.1125 55.6614C28.9426 55.6614 31.1662 57.9976 31.1662 61.0448C31.1662 63.8888 28.9426 66.1234 26.1125 66.1234M26.1125 57.6929C24.3942 57.6929 23.0803 59.1149 23.0803 61.0448C23.0803 62.7715 24.3942 64.0919 26.1125 64.0919C27.8307 64.0919 29.1447 62.7715 29.1447 61.0448C29.1447 58.9118 27.6286 57.6929 26.1125 57.6929"/>
	<path fill="#65DFE5" d="M11.5579 40.2225C8.22249 40.0193 5.29135 39.5115 4.88705 38.8004C3.67417 36.8706 3.99115 33.0109 4.17953 29.3543C4.38168 27.9323 7.31282 27.6276 8.93 27.6276C9.83967 27.6276 10.8504 27.6276 11.5579 27.8307L11.5579 40.2225"/>
	<path fill="#2D1B0A" d="M12.5687 41.3398L11.4569 41.2382C4.88706 40.8319 4.17954 39.7146 3.9774 39.3083C2.66344 37.2769 2.9201 33.7219 3.06773 29.9637C3.37095 26.9165 7.21175 26.7134 8.82894 26.7134C9.83967 26.7134 10.8504 26.7134 11.7601 26.9165L12.4676 41.3398M5.69565 38.2926C6.09995 38.4957 7.61606 39.0036 10.5472 39.2067L10.5472 28.7448C10.0418 28.7448 9.43538 28.7448 8.93002 28.7448C6.60532 28.7448 5.19028 29.3543 5.19028 29.5574C4.98814 33.214 4.78598 36.6674 5.69565 38.2926"/>
	<path fill="#2D1B0A" d="M69.9361 46.6217L16.0638 46.6217L16.0638 10.7668L69.9361 10.7668L69.9361 46.6217M18.9949 43.5745L66.8028 43.5745L66.8028 13.814L18.9949 13.814L18.9949 43.5745"/>
	<path fill="#E6FEFF" d="M17.4787 12.2902L68.3188 12.2902L68.3188 45.0979L17.4787 45.0979L17.4787 12.2902"/>
</svg>
