<?xml version="1.0" encoding="utf-8" ?>
<svg xmlns="http://www.w3.org/2000/svg" xmlns:xlink="http://www.w3.org/1999/xlink" width="108" height="64">
	<path fill="white" d="M8.03052 63.8995L7.43011 61.6892C5.92906 56.3642 1.72614 42.0973 0.125029 37.3752C-0.175179 33.7582 0.825516 31.6484 3.12712 30.2418L4.62816 29.8399L19.0382 29.8399L19.0382 11.4537L30.1459 11.4537L30.1459 7.03297L32.8478 7.03297L31.5469 5.42543C31.3467 5.12402 31.1466 4.92308 31.1466 4.62166C30.8464 3.91837 30.8464 3.01413 31.1466 2.31083C31.6469 1.20565 32.7477 0.502355 33.8485 0.502355C34.2487 0.502355 34.649 0.602826 35.0493 0.803768C36.8506 1.60754 38.3516 2.81319 39.5524 4.42072L40.5531 5.72684L41.2536 4.21978C41.754 3.21507 42.2543 2.31083 42.7547 1.40659C43.3551 0.502355 44.2557 0 45.2564 0C45.8568 0 46.4572 0.200942 46.8575 0.502355C47.558 0.904239 47.9583 1.60754 48.1584 2.4113C48.3586 3.21507 48.1584 4.01884 47.7581 4.72214C47.558 5.02355 47.4579 5.22449 47.2578 5.5259L46.3572 7.03297L52.8617 7.03297L52.8617 11.4537L75.2773 11.4537L79.5802 21.1994L93.7901 21.1994L96.9923 29.8399L103.097 29.8399C104.197 29.8399 108 30.2418 108 35.4662C108 39.4851 100.095 52.1444 92.7894 62.6939L91.8888 64L8.03052 64"/>
	<path fill="#EEFDFF" d="M32.7613 9.54475L49.67 9.54475L49.67 13.6641L32.7613 13.6641L32.7613 9.54475"/>
	<path fill="#2D1B0A" d="M50.6704 14.6688L31.7607 14.6688L31.7607 8.54004L50.6704 8.54004L50.6704 14.6688M33.7618 12.6593L48.6694 12.6593L48.6694 10.5495L33.7618 10.5495L33.7618 12.6593"/>
	<path fill="#EEFDFF" d="M21.5554 13.865L73.0818 13.865L76.6837 22.2041L77.384 23.6107L79.0849 23.6107L91.3913 23.6107L94.4929 31.9498L21.5554 31.9498L21.5554 13.865"/>
	<path fill="#2D1B0A" d="M95.9938 32.9545L20.655 32.9545L20.655 12.8603L73.8824 12.8603L78.1846 22.606L92.2918 22.606L95.9938 32.9545M22.556 30.9451L93.0923 30.9451L90.691 24.6154L76.7839 24.6154L75.7834 22.606L72.3816 14.8697L22.556 14.8697L22.556 30.9451"/>
	<path fill="#EEFDFF" d="M89.9354 60.3832L9.89423 60.3832C8.49351 55.3596 4.19129 40.7913 2.471 35.8682C2.29032 33.256 3.69104 32.5527 4.19129 32.2513L102.042 32.2513C103.642 32.2513 104.643 32.4522 104.643 34.8635C104.643 37.6767 97.2392 49.9342 89.9354 60.3832"/>
	<path fill="#2D1B0A" d="M90.5891 61.3877L9.23645 61.3877C7.53535 55.3595 3.33263 40.9921 1.63153 36.27C1.33134 32.854 3.03244 31.7488 3.63283 31.4474L102.697 31.3469C104.698 31.3469 105.599 32.5526 105.599 34.9639C105.599 38.4803 96.693 52.5463 90.6892 61.0863M10.7374 59.3783L89.4884 59.3783C97.1934 48.226 103.697 37.0737 103.697 34.8634C103.697 33.2559 103.297 33.2559 102.797 33.2559L4.53341 33.2559C4.03309 33.5573 3.4327 34.1601 3.53276 35.6672C5.23386 40.3893 9.13639 53.6515 10.7374 59.3783"/>
	<path fill="white" d="M26.7582 18.3862L34.3621 18.3862L34.3621 26.022L26.7582 26.022L26.7582 18.3862"/>
	<path fill="#2D1B0A" d="M35.3627 27.0267L25.7577 27.0267L25.7577 17.3815L35.3627 17.3815L35.3627 27.0267M27.7588 25.0173L33.3616 25.0173L33.3616 19.3909L27.7588 19.3909L27.7588 25.0173"/>
	<path fill="white" d="M40.7654 18.3862L48.3693 18.3862L48.3693 26.022L40.7654 26.022L40.7654 18.3862"/>
	<path fill="#2D1B0A" d="M49.3699 27.0267L39.7649 27.0267L39.7649 17.3815L49.3699 17.3815L49.3699 27.0267M41.766 25.0173L47.3688 25.0173L47.3688 19.3909L41.766 19.3909L41.766 25.0173"/>
	<path fill="#3B5DBC" d="M94.9933 50.135L8.24866 49.9341L7.24815 47.2214L96.8943 47.2214"/>
	<path fill="#EEFDFF" d="M33.5617 3.01413C35.2626 3.71743 36.6633 5.02355 37.5638 6.63108"/>
	<path fill="#2D1B0A" d="M37.4637 7.63579C37.1636 7.63579 36.7634 7.43485 36.5633 7.13344C35.7629 5.72685 34.5622 4.62166 33.0615 4.01884C32.4845 3.8179 32.3611 3.21507 32.4845 2.71272C32.7613 2.13336 33.3616 2.00942 33.8619 2.13336C35.6628 3.01413 37.2636 4.42072 38.2641 6.2292C38.5643 6.73155 38.3642 7.33438 37.8639 7.63579C37.8639 7.53532 37.6638 7.63579 37.4637 7.63579"/>
	<path fill="#EEFDFF" d="M42.8665 7.13343C43.3668 5.5259 44.1672 4.01883 45.0677 2.61224"/>
	<path fill="#2D1B0A" d="M42.8665 8.14219C42.7665 8.14219 42.6664 8.14219 42.5664 8.04172C42.0661 7.84077 41.766 7.33842 41.9034 6.73559C42.5664 5.02759 43.2667 3.42005 44.2673 1.91299C44.5674 1.44203 45.1677 1.31016 45.668 1.61157C46.1682 1.91299 46.2683 2.51581 45.9681 3.01817C45.0677 4.32429 44.3673 5.83135 43.8671 7.33842C43.6669 7.84077 43.2667 8.14219 42.8665 8.14219"/>
</svg>
