<?xml version="1.0" encoding="utf-8" ?>
<svg xmlns="http://www.w3.org/2000/svg" xmlns:xlink="http://www.w3.org/1999/xlink" width="118" height="48">
	<path fill="white" d="M49.3089 48C32.1362 48 11.3481 47.9002 9.23915 47.6008L7.83319 47.4012L7.13021 46.2037C6.62809 45.3056 0 27.7422 0 25.5468L0 22.553L12.4528 22.553L22.7966 0L24.7047 0C27.9183 0 35.4502 0.0997921 42.5804 0.299376C48.5055 0.399168 54.1294 0.49896 56.0374 0.49896C62.063 0.49896 68.3898 2.29522 73.5115 5.48857C76.4238 7.48441 82.4494 13.1726 91.4877 22.4532L95.7055 22.4532C95.806 22.4532 104.141 22.3534 109.765 22.3534C115.389 22.3534 115.489 22.4532 116.092 22.6528L118 23.4511L118 25.447C118 26.3451 117.699 27.0437 116.996 28.4407C111.874 35.526 92.2911 47.0021 82.5498 47.8004C80.0391 48 63.7702 48 49.3089 48"/>
	<path fill="#EEFDFF" d="M24.7046 2.6944C30.6297 2.6944 51.6187 3.19336 55.937 3.19336C61.4604 3.19336 67.1846 4.88983 71.7038 7.684C75.2187 10.1788 84.3574 19.4595 89.6799 24.948C69.7957 25.1476 32.9395 25.1476 14.3608 25.2474L24.7046 2.6944"/>
	<path fill="#2D1B0A" d="M12.8544 26.2454L24.1021 1.6965C27.9182 1.6965 35.651 1.79629 42.4799 1.99588C48.405 2.09567 53.9284 2.19546 55.937 2.19546C61.5608 2.19546 67.4859 3.89193 72.2059 6.88569C74.9174 8.78174 81.0433 14.6695 90.3829 24.3493L91.9897 26.0458L89.6799 26.0458C77.2272 26.1456 58.0459 26.2454 41.074 26.2454C30.8306 26.2454 21.2901 26.2454 14.3608 26.3451L12.8544 26.2454M25.4076 3.69234L15.9676 24.2495C22.7965 24.2495 31.634 24.1497 41.1744 24.1497C57.0416 24.1497 75.0178 24.0499 87.3701 23.9501C79.1353 15.4678 73.5114 10.1788 71.2016 8.48236C66.7829 5.78798 61.2595 4.1913 56.0374 4.1913C54.0289 4.1913 48.5055 4.09151 42.5804 3.99172C36.0527 3.79213 28.9225 3.69234 25.4076 3.69234"/>
	<path fill="#3BA7FF" d="M113.983 26.7411C109.464 32.9282 90.5838 43.8055 82.0476 44.5041C78.0306 44.7036 13.1557 44.8034 10.0425 44.3045C9.33953 43.107 3.314 26.3419 3.314 25.1444C12.3523 25.1444 41.777 25.1444 66.4817 24.9559L95.5046 24.9559C95.5046 24.9559 114.184 24.845 114.686 24.9559C114.686 25.2442 114.485 25.7431 113.983 26.7411"/>
	<path fill="#2D1B0A" d="M48.1038 45.7048C30.1277 45.7048 11.549 45.605 9.84171 45.3056C8.63661 43.9085 2.3098 26.8441 2.3098 25.1476L3.51491 24.1497C28.9226 24.1497 50.1124 24.1497 66.4817 23.9645L95.5047 23.9645C114.385 23.8503 114.887 23.9645 115.088 24.1497C115.69 25.5468 115.69 25.9459 114.887 27.2432C110.167 33.6299 91.1864 44.8067 82.1481 45.5052C80.3404 45.605 64.5736 45.7048 48.1038 45.7048M10.6451 43.4096C17.3736 43.8087 77.8298 43.7089 81.9472 43.5094C90.383 42.8108 108.761 32.0333 113.079 26.2453C113.079 26.1455 113.18 26.0457 113.18 26.0457C109.866 25.9459 101.129 26.0457 95.4043 26.1455L66.3813 26.1455C50.2128 26.2453 29.4247 26.2453 4.41874 26.2453C5.52342 29.7381 9.54044 40.9148 10.6451 43.4096"/>
	<path fill="white" d="M73.0094 9.7796C73.0094 9.7796 70.9005 7.18501 65.5779 5.78792C63.6698 5.78792 53.6273 5.78792 53.6273 5.78792L53.6273 15.4677L79.8383 15.9667L73.0094 9.7796"/>
	<path fill="#2D1B0A" d="M82.5498 17.0644L52.7234 16.4657L52.7234 4.79L65.9796 4.79C71.1013 6.18709 73.5115 8.5821 73.9132 9.08106L82.5498 17.0644M54.6315 14.5696L77.2272 14.9688L72.3064 10.4781C72.3064 10.3784 70.2979 8.18293 65.4774 6.88563L54.6315 6.88563L54.6315 14.5696"/>
	<path fill="white" d="M37.2579 6.18708L46.7983 6.18708L46.7983 15.6673L37.2579 15.6673L37.2579 6.18708"/>
	<path fill="#2D1B0A" d="M47.8026 16.6652L36.2537 16.6652L36.2537 5.18915L47.8026 5.18915L47.8026 16.6652M38.2622 14.6694L45.7941 14.6694L45.7941 7.18499L38.2622 7.18499L38.2622 14.6694"/>
	<path fill="white" d="M98.5174 36.9231L7.93361 36.7235L6.92935 34.1289L103.237 34.1289"/>
</svg>
