<?xml version="1.0" encoding="utf-8" ?>
<svg xmlns="http://www.w3.org/2000/svg" xmlns:xlink="http://www.w3.org/1999/xlink" width="122" height="60">
	<path fill="white" d="M59.6489 60C53.7441 60 48.6399 54.9823 48.4397 48.9612L35.8294 48.9612L33.4274 48.9612L33.3273 50.1654C32.1263 55.2834 27.6226 59.0968 22.1181 59.0968C16.3134 59.0968 11.4094 54.3802 10.9089 48.5597L6.40525 48.5597C3.60295 48.5597 1.90156 46.9541 1.1009 46.1513L0 45.1477L0 28.7902C0 25.0771 0.600492 22.4679 1.70139 21.1634L7.50615 19.6581L17.8146 0.691321L19.6161 0.691321C20.4167 0.691321 40.9336 0.691321 40.9336 0.691321C42.2346 0.189556 43.4356 0 43.8359 0C43.8359 0 113.893 -0.111503 114.994 0C116.896 0.390262 118.497 0.590968 119.498 1.5945C121.199 2.79874 122 4.70545 122 7.11392L122 47.7569L122 48.8608L114.194 48.8608C113.893 51.3696 112.893 53.6778 111.091 55.4841C108.889 57.6919 105.987 58.9965 102.784 58.9965C97.1797 58.9965 92.2756 54.4806 91.5751 48.8608L71.1583 48.8608C70.8581 55.0827 65.7539 60 59.6489 60"/>
	<path fill="white" d="M19.4159 14.2768L29.8245 14.2768L29.8245 24.3038L14.1116 24.3038L19.4159 14.2768"/>
	<path fill="#558EFF" d="M6.40529 45.6612C4.60381 45.6612 3.70307 44.5583 3.0025 43.9566L3.0025 28.916C3.0025 25.0056 3.70307 23.5014 3.90324 23.3009L9.30767 22.6993L19.516 3.94879C21.5177 3.94879 27.1223 3.74825 31.9262 3.74825C36.53 3.74825 38.5316 3.94879 39.3323 3.94879L39.5324 45.6612L6.40529 45.6612"/>
	<path fill="#2D1B0A" d="M40.7336 46.6639L6.50551 46.6639C4.50387 46.6639 3.30288 45.5609 2.60231 44.8591L2.1019 28.9161C2.1019 25.3064 2.70239 23.3009 3.30288 22.5991L8.8074 21.6966L19.1158 2.84581C20.517 2.84581 21.8181 2.84581 23.4194 2.74554C26.0215 2.64527 29.2241 2.545 32.1265 2.545C35.4292 2.545 37.4309 2.64527 38.6318 2.74554C39.0322 2.74554 39.3324 2.74554 39.5326 2.74554L40.5334 2.74554L40.7336 46.6639M4.10354 43.5555C4.70403 44.0569 5.30453 44.6585 6.50551 44.6585L38.7319 44.6585L38.5318 4.85122C37.4309 4.75095 35.4292 4.65068 32.2266 4.65068C29.3242 4.65068 26.1216 4.75095 23.5195 4.85122C22.2184 4.85122 21.1175 4.95149 20.3168 4.95149L10.1085 23.702L4.70403 24.3036C4.50387 24.805 4.10354 26.2088 4.10354 29.0164L4.10354 43.5555"/>
	<path fill="#DCF3FF" d="M39.0321 46.1627C39.0321 39.7454 39.0321 10.266 39.0321 6.85677C39.0321 3.74839 44.2363 3.24704 44.2363 3.24704C44.2363 3.24704 82.968 3.0465 94.8779 3.0465C109.89 3.0465 114.094 3.0465 114.794 3.24704C118.097 3.74839 118.597 5.35272 118.597 7.25785L118.597 46.0624L39.0321 46.0624"/>
	<path fill="#2D1B0A" d="M119.598 47.0652L39.0321 47.0652L38.0313 46.1627L38.0313 6.85677C38.0313 3.64812 41.8344 2.44488 44.1363 2.24434C44.6367 2.24434 83.0682 2.0438 94.8779 2.0438C110.791 2.0438 114.094 2.0438 114.994 2.24434C119.098 2.84596 119.598 5.25245 119.598 7.25785L119.598 47.0652M40.0329 45.0597L117.596 45.0597L117.596 7.25785C117.596 5.7538 117.396 4.65083 114.694 4.24975C113.893 4.04921 108.789 4.04921 94.978 4.04921C83.1683 4.04921 44.7368 4.24975 44.3365 4.24975C44.3365 4.24975 40.133 4.7511 40.133 6.85677L40.133 45.0597"/>
	<path fill="#4C4C4C" d="M29.324 45.16C29.5242 45.8619 29.7243 46.5637 29.7243 47.2656C30.525 47.2656 31.3256 47.2656 32.0262 47.2656C32.0262 46.5637 31.9261 45.8619 31.726 45.16L29.324 45.16"/>
	<path fill="#704C28" d="M22.3183 56.1897C17.8146 56.1897 14.0115 52.1789 14.0115 47.6667C14.0115 43.1546 18.0148 39.3443 22.3183 39.3443C27.0222 39.3443 30.8253 43.1546 30.8253 47.6667C30.8253 52.3794 27.0222 56.1897 22.3183 56.1897"/>
	<path fill="#2D1B0A" d="M22.3183 57.1924C17.3142 57.1924 13.0107 52.7805 13.0107 47.6667C13.0107 42.6532 17.3142 38.3416 22.3183 38.3416C27.5226 38.3416 31.8261 42.5529 31.8261 47.6667C31.8261 52.9811 27.5226 57.1924 22.3183 57.1924M22.3183 40.347C18.5152 40.347 15.0123 43.8565 15.0123 47.6667C15.0123 51.6775 18.4151 55.187 22.3183 55.187C26.4217 55.187 29.8245 51.7778 29.8245 47.6667C29.8245 43.6559 26.4217 40.347 22.3183 40.347"/>
	<path fill="#704C28" d="M59.9491 57.0922C55.4454 57.0922 51.6423 53.0814 51.6423 48.5692C51.6423 44.0571 55.6456 40.2468 59.9491 40.2468C64.653 40.2468 68.4561 44.0571 68.4561 48.5692C68.4561 53.0814 64.753 57.0922 59.9491 57.0922"/>
	<path fill="#2D1B0A" d="M59.9491 58.0949C54.945 58.0949 50.6415 53.683 50.6415 48.5692C50.6415 43.5557 54.945 39.2441 59.9491 39.2441C65.1534 39.2441 69.4569 43.4554 69.4569 48.5692C69.4569 53.8836 65.1534 58.0949 59.9491 58.0949M59.9491 41.2495C56.146 41.2495 52.6431 44.759 52.6431 48.5692C52.6431 52.58 56.0459 56.0895 59.9491 56.0895C64.0525 56.0895 67.4553 52.6803 67.4553 48.5692C67.4553 44.5584 64.0525 41.2495 59.9491 41.2495"/>
	<path fill="#704C28" d="M103.19 56.1897C98.6862 56.1897 94.8831 52.1789 94.8831 47.6667C94.8831 43.1546 98.8864 39.3443 103.19 39.3443C107.894 39.3443 111.699 43.1546 111.699 47.6667C111.797 52.3794 107.994 56.1897 103.19 56.1897"/>
	<path fill="#2D1B0A" d="M103.187 57.1924C98.1817 57.1924 93.8768 52.7805 93.8768 47.6667C93.8768 42.6532 98.1817 38.3416 103.187 38.3416C108.393 38.3416 112.705 42.5529 112.705 47.6667C112.798 50.1735 111.797 52.58 110.095 54.2846C108.193 56.1897 105.79 57.1924 103.187 57.1924M103.187 40.347C99.3831 40.347 95.8791 43.8565 95.8791 47.6667C95.8791 51.6775 99.283 55.187 103.187 55.187C105.29 55.187 107.192 54.3848 108.594 52.8808C109.995 51.477 110.696 49.5719 110.696 47.6667C110.696 43.6559 107.292 40.347 103.187 40.347"/>
	<path fill="#E3EEFF" d="M22.5001 9.06268C22.5001 9.06268 15.8947 23.6019 16.368 23.6019C16.8955 23.6019 34.3097 23.9027 34.3097 23.9027L34.3097 9.06268L22.5001 9.06268"/>
	<path fill="#2D1B0A" d="M35.2289 24.9053L34.2281 24.9053C28.223 24.8051 16.7136 24.7048 16.3133 24.7048C15.1123 23.6018 14.9122 23.3011 21.6177 8.76187L35.3289 8.16025L35.3289 24.9053M17.7145 22.5991C21.1173 22.5991 30.2248 22.7997 33.3272 22.7997L33.3272 10.0654L23.219 10.0654C20.9171 14.9786 18.6152 20.3932 17.7145 22.5991"/>
	<path fill="#FFF206" d="M5.40444 23.8024L7.40608 23.8024C8.60706 23.8024 9.5078 24.8051 9.30764 26.0084C9.00739 28.0138 8.30682 31.0219 7.00575 33.0273C6.00493 34.6316 3.50288 33.8294 3.50288 31.9243L3.50288 25.7076C3.50288 24.7048 4.30354 23.9027 5.40444 23.8024"/>
	<path fill="#2D1B0A" d="M5.40442 34.8321C5.10417 34.8321 4.80393 34.8321 4.50368 34.7319C3.3027 34.3308 2.40196 33.2278 2.40196 31.9243L2.40196 25.7075C2.40196 24.1032 3.70303 22.7997 5.20426 22.7997L7.2059 22.7997C8.00655 22.7997 8.90729 23.1005 9.4077 23.8024C10.0082 24.404 10.2084 25.3065 10.1083 26.1086C9.80803 28.3146 9.10746 31.4229 7.70631 33.5286C7.2059 34.3308 6.40524 34.8321 5.40442 34.8321M5.40442 24.8051C4.90401 24.8051 4.50368 25.2062 4.50368 25.7075L4.50368 31.9243C4.50368 32.4257 4.80393 32.7265 5.20426 32.8267C5.40442 32.927 5.80475 32.927 6.20508 32.5259C7.10582 31.1221 7.90647 28.7156 8.3068 25.9081C8.40688 25.6073 8.20672 25.3065 8.10664 25.2062C7.90647 25.0056 7.70631 24.9054 7.40606 24.9054L5.40442 24.8051"/>
	<path fill="#558EFF" d="M39.4323 23.2008L118.497 23.2008L118.497 30.5206L39.4323 30.5206L39.4323 23.2008"/>
	<path fill="#2D1B0A" d="M119.498 31.5233L38.4315 31.5233L38.4315 22.1981L119.498 22.1981L119.498 31.5233M40.4331 29.5179L117.496 29.5179L117.496 24.2035L40.4331 24.2035L40.4331 29.5179"/>
</svg>
