<?xml version="1.0" encoding="utf-8" ?>
<svg xmlns="http://www.w3.org/2000/svg" xmlns:xlink="http://www.w3.org/1999/xlink" width="90" height="74">
	<path fill="white" d="M81.6816 36.6505C81.4814 25.4656 81.4814 13.1822 81.4814 8.98785C82.983 8.38866 84.1843 6.99055 84.1843 4.79352C84.0842 1.49798 81.4814 0.19973 79.7795 0L39.736 0C34.5304 0.19973 33.9297 3.29555 33.9297 4.59379C33.9297 6.2915 34.5304 7.39001 35.0309 7.88934C35.5315 8.48853 36.3323 8.98785 37.2333 9.18758L30.9265 27.1633C25.5206 27.363 9.60333 27.6626 7.90148 27.7625C5.19854 28.3617 2.79594 29.4602 2.79594 34.5533C2.79594 35.0526 2.79594 35.8516 2.79594 37C2.79594 40.2456 2.79594 45.6383 2.79594 50.2321C1.49452 51.9298 0.593544 54.1269 0.19311 56.5236C-1.1083 64.5128 4.29757 72.3023 12.5065 73.9001C13.3073 74.0999 26.822 74.9987 30.1256 61.7166C30.1256 61.2173 30.1256 61.1174 30.3258 60.6181C36.8329 60.6181 44.0407 60.6181 50.748 60.6181C53.551 68.6073 61.1593 74 69.5684 74C81.0809 74 90 64.9123 90 53.4278C90.1908 46.5371 87.1876 40.5452 81.6816 36.6505"/>
	<path fill="#FF8E68" d="M25.5181 57.4723C12.5052 57.4723 8.10083 57.4723 6.69944 57.2725C6.19895 54.2766 6.4099 41.4938 6.4099 37.0998L6.4099 34.5033C6.4099 31.5073 7.30004 31.2077 8.90162 30.8083C10.2029 30.6086 26.7193 30.309 33.0255 30.2091L42.8907 3.3454L78.7708 3.3454C78.7708 40.3953 78.971 52.9783 79.3714 57.1727C73.4656 57.2725 45.5379 57.4723 25.5181 57.4723"/>
	<path fill="#2D1B0A" d="M25.5078 58.421C12.4925 58.421 8.08733 58.421 6.48544 58.2213C5.18391 55.0256 5.2946 47.0364 5.2946 41.2442C5.2946 39.5465 5.2946 38.1484 5.2946 37.0499L5.2946 34.4534C5.2946 31.1578 6.38533 30.4088 8.4878 29.8596C9.38886 29.7597 14.9955 29.56 23.3052 29.4601C27.0096 29.3603 30.5137 29.2604 32.7163 29.2604L41.9272 2.3967L79.5715 2.3967C79.5715 38.7476 79.7717 52.7287 80.1722 57.1227L80.2723 58.2213L79.171 58.2213C73.4643 58.2213 45.3312 58.421 25.5078 58.421M7.58674 56.3238C9.68922 56.4237 14.6951 56.4237 25.5078 56.4237C44.2299 56.4237 70.5609 56.224 78.3701 56.1241C77.9696 50.8312 77.8695 36.95 77.8695 4.29414L43.7293 4.29414L34.6186 31.1578L33.1168 31.1578C30.9142 31.2577 27.4101 31.2577 23.7057 31.3576C17.5985 31.4574 9.98957 31.6572 9.18863 31.757C7.98721 32.0566 7.68686 32.1565 7.68686 34.4534L7.68686 37.0499C7.68686 38.0485 7.68686 39.5465 7.68686 41.2442C7.38651 46.1376 7.28639 53.3279 7.58674 56.3238"/>
	<path fill="#704C28" d="M69.9622 70.7043C60.6529 70.7043 53.0454 62.9149 53.0454 53.3278C53.0454 43.8407 60.6529 35.9513 69.9622 35.9513C79.4716 35.9513 87.0791 43.7408 87.0791 53.3278C86.8789 62.9149 79.4716 70.7043 69.9622 70.7043"/>
	<path fill="#2D1B0A" d="M69.9621 71.703C60.0523 71.703 52.0444 63.5141 52.0444 53.3279C52.0444 43.1416 60.0523 34.9527 69.9621 34.9527C79.9721 34.9527 88.0801 43.1416 88.0801 53.3279C87.8799 63.614 79.872 71.703 69.9621 71.703M69.9621 36.95C61.1534 36.95 54.0464 44.2401 54.0464 53.3279C54.0464 62.4156 61.1534 69.7057 69.9621 69.7057C78.871 69.7057 85.8779 62.5155 86.0781 53.3279C86.0781 44.34 78.7709 36.95 69.9621 36.95"/>
	<path fill="#704C28" d="M15.9237 70.205C15.3231 70.205 14.3221 70.205 13.7215 70.0053C7.21511 68.9069 2.81075 62.915 3.91183 56.3238C4.71263 50.6315 9.81769 46.8367 15.4232 46.8367C16.0238 46.8367 17.0248 46.8367 17.6254 47.0364C24.4322 48.1349 28.7364 54.1268 27.6353 60.7178C26.5342 66.1106 21.7295 70.205 15.9237 70.205"/>
	<path fill="#2D1B0A" d="M15.9087 71.2037C15.208 71.2037 14.3071 71.2037 13.5063 71.004C6.39924 69.8056 1.79468 63.3144 2.89577 56.1241C3.79666 50.1322 9.00182 45.838 15.4082 45.838C16.1089 45.838 17.0097 45.838 17.8105 46.0377C21.314 46.6369 24.4171 48.4345 26.4191 51.2307C28.4211 54.0269 29.2218 57.4223 28.6213 60.8178C27.32 66.9095 22.0147 71.2037 15.9087 71.2037M15.4082 47.8353C10.0028 47.8353 5.59845 51.4304 4.89775 56.5236C3.89676 62.5155 7.80063 68.1079 13.9067 69.1066C14.5073 69.2064 15.4082 69.2064 15.9087 69.2064C21.1138 69.2064 25.6183 65.5114 26.6193 60.5182C27.1198 57.6221 26.4191 54.726 24.8175 52.4291C23.1158 50.0323 20.5132 48.5344 17.5102 48.035C16.8096 47.8353 16.0088 47.8353 15.4082 47.8353"/>
	<path fill="#2D1B0A" d="M72.6648 31.1577L41.8343 31.1577L45.6381 10.985L72.6648 10.985L72.6648 31.1577M45.4379 28.1618L69.6619 28.1618L69.6619 13.981L48.1406 13.981L45.4379 28.1618"/>
	<path fill="#DCF3FF" d="M46.8392 12.4831L71.0632 12.4831L71.0632 29.6599L43.5359 29.6599L46.8392 12.4831"/>
	<path fill="#FF8E68" d="M39.4319 6.19163C37.0295 6.19163 37.0295 5.09312 37.0295 4.59379C37.0295 4.09447 37.0295 2.99595 39.6321 2.99595L79.6718 2.99595C79.6718 2.99595 80.9731 3.49528 80.9731 4.59379C80.9731 5.69231 80.4725 5.89204 79.6718 5.89204L40.3328 5.89204C40.2327 6.19163 39.9324 6.19163 39.4319 6.19163"/>
	<path fill="#2D1B0A" d="M39.432 7.19028C36.6292 7.19028 36.0286 5.79217 36.0286 4.59379C36.0286 3.39541 36.6292 1.9973 39.6322 1.9973L79.7719 1.9973C80.6728 2.39676 81.874 3.19568 81.874 4.59379C81.874 6.09177 81.0732 6.89069 79.5717 6.89069L40.6332 6.89069C40.433 7.19028 40.0326 7.19028 39.432 7.19028M39.6322 4.09447C38.0306 4.09447 38.0306 4.49393 38.0306 4.69366C38.0306 4.89339 38.0306 5.19298 39.2318 5.29285L79.5717 4.99325C79.6718 4.99325 79.7719 4.99325 79.872 4.99325C79.872 4.89339 79.872 4.89339 79.872 4.69366C79.872 4.39406 79.5717 4.19433 79.3715 4.09447L39.6322 4.09447"/>
</svg>
