<?xml version="1.0" encoding="utf-8" ?>
<svg xmlns="http://www.w3.org/2000/svg" xmlns:xlink="http://www.w3.org/1999/xlink" width="116" height="76">
	<path fill="white" d="M23.2401 76C10.418 76 0 65.5588 0 52.7081C0 39.8573 10.418 29.4161 23.2401 29.4161C26.6459 29.4161 29.8515 30.1189 32.9568 31.6248C33.7582 32.0264 36.0622 28.111 36.1623 27.9102L36.1623 26.9062C35.361 25.5007 34.6598 24.0951 33.8584 22.6896C32.2556 21.8864 31.2539 21.3844 30.152 20.9828C28.9499 20.4808 27.6477 19.8785 26.4456 19.4769C25.6442 19.1757 25.0432 18.6737 24.7427 17.9709C24.4421 17.2682 24.342 16.465 24.6425 15.6618C25.0432 14.4571 26.2453 13.6539 27.4473 13.6539C27.7478 13.6539 28.1485 13.7543 28.4491 13.8547C29.8515 14.3567 31.2539 14.959 32.5561 15.5614C34.2591 16.2642 35.962 17.0674 37.6649 17.5694C39.1675 17.9709 40.6701 18.2721 42.0725 18.2721C43.475 18.2721 44.7772 18.0713 45.6788 17.5694C46.0794 17.3686 46.5803 17.2682 46.981 17.2682C48.0829 17.2682 49.1848 17.9709 49.6857 18.9749C50.0864 19.6777 50.0864 20.4808 49.7858 21.284C49.4853 22.0872 48.9845 22.6896 48.2832 22.9908C46.7807 23.6935 44.9775 24.1955 43.0743 24.2959L41.4715 24.3963L43.3748 27.9102L78.5354 18.9749L77.9344 16.8666C75.2297 16.3646 73.0259 16.0634 70.9223 15.5614C70.1209 15.3606 69.4197 14.959 69.019 14.2563C68.6183 13.5535 68.418 12.7503 68.6183 11.9472C68.9188 10.5416 70.1209 9.53765 71.5233 9.53765C71.7237 9.53765 71.924 9.53765 72.1244 9.63804C74.3282 10.0396 76.532 10.4412 78.7358 10.8428L82.4421 11.4452L79.5371 9.03567C78.2349 8.0317 76.8325 6.72655 75.0294 5.321C74.4283 4.81902 74.0276 4.11625 74.0276 3.31308C73.9275 2.50991 74.228 1.70674 74.7288 1.10436C75.3299 0.401585 76.1313 0 77.0328 0C77.734 0 78.4352 0.301189 78.9361 0.702774C86.0484 6.82695 88.6528 8.63408 91.2573 10.0396C92.5596 10.7424 93.2608 12.3487 92.8601 13.8547C92.7599 14.3567 92.2591 15.461 90.9568 16.0634C89.6546 16.6658 88.3523 17.2682 86.9499 17.8705C86.2487 18.1717 85.848 18.4729 85.3472 18.7741L84.9465 19.8785C85.6477 22.288 86.6494 25.5007 87.6511 28.9141L88.8532 29.5165C90.1554 29.3157 91.4577 29.2153 92.7599 29.2153C105.582 29.2153 116 39.6565 116 52.5073C116 65.358 105.582 75.7992 92.7599 75.7992C84.0449 75.7992 76.1313 70.9802 72.1244 63.1493L71.323 61.6433L70.3212 63.0489C68.3178 65.7596 66.2142 68.3699 64.0104 70.8798C63.4093 71.5826 62.6079 71.8838 61.7064 71.8838C61.0052 71.8838 60.304 71.5826 59.7029 71.181C59.1019 70.679 58.7012 69.8758 58.7012 69.0727C58.601 68.2695 58.9016 67.5667 59.4024 66.9643L60.2038 65.9604L59.1019 65.358C58.2003 64.9564 57.399 64.4544 56.5976 64.0528C55.9965 63.7517 55.3955 63.3501 54.7945 63.0489C54.494 62.9485 54.2936 62.7477 54.0933 62.5469C50.9879 61.9445 48.3834 61.5429 45.5786 61.1413L44.4767 61.7437C41.0708 70.2774 32.456 76 23.2401 76M67.9171 52.1057C66.3143 54.4148 64.6114 56.8243 62.9085 59.1334L62.2073 60.1374L64.3109 61.1413C65.1123 60.1374 65.4128 59.7358 65.7133 59.4346C66.3143 58.6314 67.2159 58.2299 68.1174 58.2299C68.418 58.2299 68.7185 58.2299 68.9188 58.3303L70.5216 58.8322L70.2211 57.2259C69.9206 55.8203 69.7202 54.3144 69.7202 52.8085L69.7202 49.6962L67.9171 52.1057M46.2798 33.2312L46.8808 34.3355C50.3869 41.0621 53.7927 47.889 56.8981 54.6156L57.5993 56.1215L58.601 54.716C65.1123 45.6803 71.4231 36.3435 77.5337 27.0066L78.9361 24.8983L46.2798 33.2312M46.38 50.9009C46.4801 51.5033 46.4801 52.2061 46.4801 52.8085C46.4801 53.21 46.4801 53.712 46.4801 54.1136L48.9845 55.4188L50.8877 55.7199L50.0864 54.0132C49.4853 52.8085 48.8843 51.6037 48.2832 50.2985L46.38 50.9009"/>
	<path fill="#FFE161" d="M43.3748 52.6077C43.3748 63.8079 34.3153 72.8876 23.1399 72.8876C11.9645 72.8876 2.905 63.8079 2.905 52.6077C2.905 41.4072 11.9645 32.3275 23.1399 32.3275C34.3153 32.3275 43.3748 41.4072 43.3748 52.6077"/>
	<path fill="#2D1B0A" d="M23.1399 73.8917C11.4197 73.8917 1.9033 64.3541 1.9033 52.6077C1.9033 40.8614 11.4197 31.3237 23.1399 31.3237C34.8601 31.3237 44.3765 40.8614 44.3765 52.6077C44.3765 64.3541 34.8601 73.8917 23.1399 73.8917M23.1399 33.432C12.5216 33.432 3.90675 42.0661 3.90675 52.7081C3.90675 63.3501 12.5216 71.9842 23.1399 71.9842C33.7582 71.9842 42.3731 63.3501 42.3731 52.7081C42.3731 42.0661 33.7582 33.432 23.1399 33.432"/>
	<path fill="#3BA7FF" d="M113.095 52.3064C113.095 63.5068 104.035 72.5865 92.8601 72.5865C81.6847 72.5865 72.6252 63.5068 72.6252 52.3064C72.6252 41.106 81.6847 32.0264 92.8601 32.0264C104.035 32.0264 113.095 41.106 113.095 52.3064"/>
	<path fill="#2D1B0A" d="M92.8601 73.4901C81.1399 73.4901 71.6235 63.9525 71.6235 52.2061C71.6235 40.4598 81.1399 31.0225 92.8601 31.0225C104.58 31.0225 114.097 40.5602 114.097 52.3065C114.097 64.0529 104.58 73.4901 92.8601 73.4901M92.8601 33.0304C82.2418 33.0304 73.6269 41.6645 73.6269 52.3065C73.6269 62.9485 82.2418 71.5826 92.8601 71.5826C103.478 71.5826 112.093 62.9485 112.093 52.3065C112.093 41.6645 103.478 33.0304 92.8601 33.0304"/>
	<path fill="#2D1B0A" d="M42.0727 21.9868C39.6685 21.9868 37.5648 21.4848 36.463 21.1837C34.5597 20.5813 32.6564 19.7781 30.9535 19.0753C29.6512 18.5733 28.349 17.971 27.0467 17.469C26.5459 17.2682 26.2454 16.6658 26.3829 16.1638C26.646 15.6619 27.2471 15.3607 27.7479 15.4986C29.1504 16.0634 30.4526 16.6658 31.7549 17.1678C33.558 17.971 35.2609 18.6737 37.064 19.1757C40.6702 20.2801 44.1763 20.1797 46.5805 19.0753C47.0812 18.8745 47.6824 19.0753 47.8827 19.5773C48.083 20.0793 47.8827 20.6817 47.3819 20.8825C45.6788 21.6856 43.7756 21.9868 42.0727 21.9868"/>
	<path fill="#2D1B0A" d="M55.9967 60.6394C55.5961 60.6394 55.2954 60.4386 55.0952 60.037C48.9846 46.9855 42.3732 33.934 35.2609 21.1837C34.9604 20.6817 35.1198 20.0793 35.6616 19.7781C36.1625 19.4769 36.7635 19.6366 37.0641 20.1797C44.1763 32.93 50.7878 45.9815 56.8983 59.1335C57.0985 59.6354 56.8983 60.2378 56.3974 60.4386C56.2972 60.6394 56.0969 60.6394 55.9967 60.6394"/>
	<path fill="#2D1B0A" d="M41.9724 32.0264C41.5717 32.0264 41.0709 31.7252 40.9515 31.2232C40.9515 30.7212 41.171 30.1189 41.6719 30.0185L81.5406 19.8592C82.0415 19.8592 82.6425 20.0792 82.7619 20.5812C82.8429 21.0832 82.5424 21.6856 82.0415 21.786L42.1728 32.0264C42.0726 32.0264 42.0726 32.0264 41.9724 32.0264"/>
	<path fill="#2D1B0A" d="M58.1002 61.4426C57.8999 61.4426 57.6995 61.3422 57.4992 61.2418C57.1241 60.9406 56.9983 60.2379 57.2988 59.8363C65.8135 48.0899 74.1279 35.942 81.9413 23.6936C82.2418 23.223 82.8429 23.0912 83.3437 23.3924C83.8446 23.6936 83.9448 24.296 83.6443 24.798C75.8308 37.0463 67.4163 49.2947 58.9016 61.041C58.7012 61.2418 58.4007 61.4426 58.1002 61.4426"/>
	<path fill="#2D1B0A" d="M91.5578 52.5072C91.1571 52.5072 90.7564 52.2061 90.5561 51.8045C89.6546 48.7926 87.5509 41.6645 85.4473 34.7371C83.3437 27.9101 81.24 20.782 80.3385 17.7701L80.9395 16.5654C81.6407 16.1638 82.3419 15.7622 83.1433 15.2602C83.9447 14.7583 84.7461 14.1559 85.5475 13.6774C86.0483 13.5535 86.6494 13.6774 86.8497 14.2563C87.0501 14.7583 86.8497 15.3606 86.3489 15.5614C85.6476 15.963 84.9464 16.3646 84.1451 16.8666C83.544 17.2682 83.0432 17.5693 82.4421 17.9709C83.4438 21.284 85.4473 27.8097 87.3506 34.1348C89.4542 41.062 91.658 48.1903 92.4593 51.2021C92.6597 51.704 92.3592 52.3064 91.7581 52.4068C91.658 52.5072 91.658 52.5072 91.5578 52.5072"/>
	<path fill="#2D1B0A" d="M83.3437 16.6658C82.943 16.6658 82.5424 16.3646 82.4422 15.963C82.2418 15.4611 82.5424 14.8587 83.0432 14.6579C84.7462 14.0555 86.4491 13.3527 88.152 12.65C85.6477 11.144 82.7427 9.0357 76.3316 3.5139C75.9764 3.11232 75.8308 2.50994 76.2315 2.10836C76.6322 1.75231 77.2332 1.60637 77.6339 2.00796C84.9465 8.23253 87.551 10.0397 90.2557 11.5456C90.7565 11.8468 91.057 12.4492 90.8567 13.0515C90.7565 13.6539 90.2557 13.8547 90.0553 13.9551C87.9517 14.9591 85.8481 15.8626 83.6443 16.5654C83.5441 16.6658 83.4479 16.6658 83.3437 16.6658"/>
	<path fill="#2D1B0A" d="M85.9482 15.6618C85.9482 15.6618 85.848 15.6618 85.848 15.6618C81.0397 15.0594 76.1312 14.2563 71.3229 13.2523C70.8221 13.1519 70.5061 12.6499 70.5061 12.0476C70.6217 11.4452 71.1226 11.2254 71.7236 11.2254C76.4317 12.148 81.3402 12.9511 86.1485 13.5535C86.6494 13.6539 87.0501 14.1559 87.0501 14.6579C86.8497 15.3606 86.449 15.6618 85.9482 15.6618"/>
	<path fill="#2D1B0A" d="M25.3437 54.4148L23.6407 53.4108L37.6649 29.1149C37.9655 28.613 38.5664 27.5086 39.8688 27.4082L40.069 29.4161C40.069 29.4161 39.8688 29.4161 39.468 30.1189L25.3437 54.4148"/>
	<path fill="#2D1B0A" d="M64.3109 65.358C64.2107 65.358 64.0104 65.358 63.9102 65.2576C61.8066 64.4545 59.8031 63.3501 57.6995 62.1454C57.0985 61.8442 56.4974 61.543 55.8964 61.1414C55.3545 60.8402 55.1952 60.2378 55.4957 59.7359C55.7962 59.1928 56.3973 59.0331 56.8981 59.3343C57.4991 59.6355 58.1002 59.9366 58.7012 60.3382C60.8048 61.4426 62.8083 62.5469 64.8118 63.3501C65.3126 63.5509 65.6131 64.1533 65.3126 64.6553C65.0121 65.0569 64.7116 65.358 64.3109 65.358"/>
	<path fill="#2D1B0A" d="M61.9067 69.6751C61.7064 69.6751 61.4058 69.5747 61.2055 69.4743C60.8502 69.0727 60.7046 68.4703 61.1053 68.0688C63.209 65.6592 65.2124 63.0489 67.2159 60.539C67.5164 60.1631 68.2176 60.037 68.6183 60.3382C69.019 60.6394 69.1191 61.3422 68.8186 61.7438C66.8152 64.3541 64.8117 66.9644 62.6079 69.4743C62.4076 69.5747 62.1071 69.6751 61.9067 69.6751"/>
	<path fill="#2D1B0A" d="M56.2971 60.539C56.2971 60.539 56.1968 60.539 56.1968 60.539C45.5786 59.1334 34.8601 57.1255 24.4421 54.6156C23.9413 54.5152 23.5406 53.9128 23.6882 53.4108C23.8411 52.9088 24.4421 52.5073 24.943 52.6552C35.2607 55.2179 45.8792 57.1255 56.4975 58.6314C56.9983 58.7318 57.3989 59.2338 57.3989 59.7358C57.1986 60.1374 56.798 60.539 56.2971 60.539"/>
</svg>
