<?xml version="1.0" encoding="utf-8" ?>
<svg xmlns="http://www.w3.org/2000/svg" xmlns:xlink="http://www.w3.org/1999/xlink" width="74" height="84">
	<path fill="white" d="M20.7648 84C10.5821 84 8.98478 83.4028 7.88664 82.7062C5.19121 80.019 0.898478 73.9479 0 70.763L0 68.7725C2.09645 66.2844 5.29104 65.9858 6.68867 65.9858L35.0407 62.7014L35.0407 46.6777L15.7733 46.6777C14.176 46.6777 12.6785 45.782 11.8799 44.3886C11.0812 42.9953 11.0812 41.3033 11.8799 39.91L34.1422 2.18957C34.9408 0.796209 36.4383 0 37.9357 0C38.6346 0 39.3334 0.199052 40.0322 0.49763L41.1303 0.696682C46.8207 4.5782 60.4975 15.8246 64.5906 27.2701C68.0847 38.4171 67.0864 52.5498 66.687 56.6303L66.4874 59.1185L70.1811 58.7204C71.7784 59.6161 73.0762 60.4123 73.6752 61.9052C74.5737 64.4929 73.3757 66.6825 72.8766 67.4787C69.3825 73.8483 62.3943 83.1043 58.4011 83.1043C58.1016 83.1043 57.6024 83.1043 56.8038 83.2038C55.4062 83.2038 54.308 83.3033 53.0102 83.3033C38.5347 83.8009 27.9527 84 20.7648 84"/>
	<path fill="#3BA7FF" d="M39.7565 58.1234C39.5568 58.1234 39.0576 57.9243 39.0576 57.4267L39.0576 4.77733C39.0576 4.2797 39.2573 4.08065 39.7565 4.08065C45.4468 7.86264 57.9256 18.7109 61.5196 28.6635C64.814 39.0143 63.9167 53.2466 63.4163 57.5261C63.4163 57.7252 63.2167 58.0238 62.7175 58.0238L39.7565 58.1234"/>
	<path fill="#2D1B0A" d="M39.7327 59.1185C39.0339 59.1185 38.0356 58.5213 38.0356 57.4265L38.0356 4.77724C38.0356 3.78198 38.7344 3.0853 39.7327 3.0853C45.0238 6.36966 58.6008 17.5166 62.4942 28.3649C65.5889 38.1185 65.0898 51.7535 64.4908 57.6256C64.4908 58.3223 63.792 59.0189 62.7937 59.0189L39.7327 59.1185M40.0322 5.3744L40.0322 57.128L62.3943 57.0284C62.9933 51.1564 63.3927 38.218 60.4976 28.9621C57.2031 19.8057 45.7226 9.55449 40.0322 5.3744"/>
	<path fill="#FFE161" d="M14.1759 41.8968L36.4382 4.17637C37.2369 2.88253 39.2335 3.4387 39.2335 4.97258L39.2335 42.693C39.2335 43.4892 38.5347 44.1859 37.736 44.1859L15.4737 44.1859C14.2758 44.1859 13.5769 42.892 14.1759 41.8968"/>
	<path fill="#2D1B0A" d="M37.7361 45.1592L15.4738 45.1592C14.5753 45.1592 13.7766 44.6616 13.2775 43.8654C12.8782 43.0692 12.8782 42.1735 13.2775 41.3773L35.5398 3.65691C36.1388 2.66165 37.2369 2.26355 38.3351 2.46515C39.4332 2.8607 40.132 3.85596 40.132 4.95075L40.132 42.6712C40.132 43.965 39.0339 45.1592 37.7361 45.1592M14.9746 42.3725C14.8748 42.5716 14.9746 42.7706 14.9746 42.8701C14.9746 42.9697 15.1743 43.0692 15.3739 43.0692L37.6362 43.0692C37.9357 43.0692 38.1354 42.8701 38.1354 42.5716L38.1354 4.85122C38.1354 4.55265 37.9357 4.45312 37.7361 4.35359C37.6362 4.35359 37.3367 4.25407 37.1371 4.55265L14.9746 42.3725"/>
	<path fill="#2D1B0A" d="M37.5364 4.6777L40.6312 4.6777L40.6312 74.7441L37.5364 74.7441L37.5364 4.6777"/>
	<path fill="#DCF6FF" d="M70.0814 66.2843C67.0864 71.7582 60.3978 80.417 58.2015 80.417C57.6025 80.417 55.6059 80.5165 52.7108 80.616C25.4569 81.7108 10.7818 81.8104 9.18449 80.7156C6.78855 78.3269 3.19463 72.853 2.59565 70.5639C2.59565 70.4644 2.59565 70.3649 2.59565 70.3649C2.99497 69.8672 4.89176 69.4691 6.48906 69.4691L69.1828 62.1042C69.4824 62.3033 70.3809 62.7014 70.6804 63.398C70.9799 64.1943 70.8151 65.09 70.0814 66.2843"/>
	<path fill="#2D1B0A" d="M20.4653 82.5071C11.78 82.5071 9.38408 82.109 8.68526 81.5118C6.18949 79.0236 2.39592 73.3507 1.6971 70.763L1.89676 69.5687C2.69541 68.5734 5.49067 68.2748 6.48898 68.2748L69.4823 60.9099C69.7818 61.109 69.8816 61.2085 69.9814 61.2085C70.4806 61.5071 71.2792 62.0047 71.6786 62.8009C72.1777 64.2938 71.5787 65.6871 71.0796 66.5829C68.6836 70.962 61.4958 81.2132 58.3012 81.2132C58.0017 81.2132 57.2031 81.2132 56.2048 81.3127C55.3063 81.3127 54.2082 81.4123 52.9104 81.4123C37.1371 82.2085 26.9543 82.5071 20.4653 82.5071M9.7834 79.9194C11.0812 80.5165 19.6667 80.9146 52.6109 79.6208C53.9087 79.6208 55.0068 79.5213 55.9053 79.5213C57.0034 79.5213 57.8021 79.4217 58.1016 79.4217C59.599 79.3222 65.7885 71.9573 69.083 65.7867C69.7818 64.5924 69.682 64.0947 69.5821 63.7962C69.4823 63.5971 69.083 63.2985 68.7835 63.199L6.28932 70.5639C5.19118 70.5639 4.09304 70.763 3.49406 70.962C4.69203 73.1516 7.68695 77.7298 9.7834 79.9194"/>
</svg>
