<?xml version="1.0" encoding="utf-8" ?>
<svg xmlns="http://www.w3.org/2000/svg" xmlns:xlink="http://www.w3.org/1999/xlink" width="114" height="92">
	<path fill="white" d="M99.3615 52.1943L99.3615 47.6247C99.4617 47.0155 99.4617 46.4062 99.3615 45.8985C99.3615 45.8985 99.3615 42.7506 99.3615 42.7506C99.3615 37.1656 94.8496 32.596 89.3351 32.596L83.8206 32.596L83.8206 20.7152C83.9208 20.4106 84.0211 20.2075 84.1214 19.9029C84.4222 17.5673 83.5198 13.6071 78.0053 11.6777C75.2982 10.7638 74.3958 9.34216 74.2955 9.03753L72.0897 0L68.6807 8.93598C68.5805 9.34216 67.277 12.6932 68.2797 15.7395C69.1821 18.5828 71.6887 21.5276 73.8945 22.7461L73.8945 32.596L60.5594 32.596L60.5594 22.9492C60.5594 16.6534 55.4459 11.4746 49.2296 11.4746L26.7704 11.4746C20.5541 11.4746 15.4406 16.6534 15.4406 22.9492L15.4406 26.0971C15.1398 25.9956 14.7388 25.9956 14.438 25.9956C10.628 25.9956 7.51979 29.1435 7.51979 33.0022L7.51979 44.6799C7.51979 48.5386 10.628 51.6865 14.438 51.6865C14.8391 51.6865 15.1398 51.6865 15.4406 51.585C6.61741 54.0221 0 62.0442 0 71.6909C0 82.8609 9.02375 92 20.0528 92L93.9472 92C104.976 92 114 82.8609 114 71.6909C113.699 62.4503 107.683 54.6313 99.3615 52.1943"/>
	<path fill="#FFE161" d="M57.1503 54.6313L18.0473 54.6313L18.0473 23.1523C18.0473 18.4812 21.7571 14.7241 26.3693 14.7241L48.8284 14.7241C53.4405 14.7241 57.1503 18.4812 57.1503 23.1523L57.1503 54.6313"/>
	<path fill="#2D1B0A" d="M58.153 55.6468L17.0448 55.6468L17.0448 23.1523C17.0448 17.9735 21.2559 13.7086 26.3693 13.7086L48.8284 13.7086C53.9419 13.7086 58.153 17.9735 58.153 23.1523L58.153 55.6468M19.0501 53.6159L56.1477 53.6159L56.1477 23.1523C56.1477 19.0905 52.839 15.7395 48.8284 15.7395L26.3693 15.7395C22.3588 15.7395 19.0501 19.0905 19.0501 23.1523L19.0501 53.6159"/>
	<path fill="#FFE161" d="M96.0527 54.7328L56.9497 54.7328L56.9497 35.8454L89.0341 35.8454C92.9445 35.8454 96.0527 39.0949 96.0527 42.9536L96.0527 54.7328"/>
	<path fill="#2D1B0A" d="M97.0554 55.7482L55.9472 55.7482L55.9472 34.8299L89.0343 34.8299C93.4459 34.8299 97.0554 38.4855 97.0554 42.9535L97.0554 55.7482M57.9525 53.7173L95.0501 53.7173L95.0501 43.0551C95.0501 39.7041 92.343 36.9623 89.0343 36.9623L57.9525 36.9623L57.9525 53.7173"/>
	<path fill="#2D1B0A" d="M93.4459 89.1567L19.5515 89.1567C10.1266 89.1567 2.5066 81.4392 2.5066 71.894C2.5066 62.3487 10.1266 54.6313 19.5515 54.6313L93.4459 54.6313C102.871 54.6313 110.491 62.3487 110.491 71.894C110.491 81.4392 102.871 89.1567 93.4459 89.1567"/>
	<path fill="white" d="M28.6755 25.894L45.9209 25.894L45.9209 43.3598L28.6755 43.3598L28.6755 25.894"/>
	<path fill="#2D1B0A" d="M46.9235 44.3753L27.6728 44.3753L27.6728 24.8785L46.9235 24.8785L46.9235 44.3753M29.6781 42.3443L44.9183 42.3443L44.9183 26.9095L29.6781 26.9095L29.6781 42.3443"/>
	<path fill="white" d="M12.4327 71.4879C12.4327 67.223 15.8416 63.6689 20.153 63.6689C24.5646 63.6689 27.8733 67.1215 27.8733 71.4879C27.8733 75.9559 24.7652 79.3069 20.153 79.3069C16.1424 79.3069 12.4327 75.7528 12.4327 71.4879"/>
	<path fill="#2D1B0A" d="M20.153 79.8146C18.0474 79.8146 16.0422 78.9007 14.438 77.3775C12.8337 75.7528 11.9313 73.7219 11.9313 71.4879C11.9313 66.9184 15.6411 63.1612 20.153 63.1612C24.7652 63.1612 28.3746 66.8168 28.3746 71.4879C28.2743 76.3621 24.9656 79.8146 20.153 79.8146M20.153 64.1767C16.2427 64.1767 12.934 67.4261 12.934 71.4879C12.934 73.4173 13.7361 75.2451 15.1398 76.6667C16.5435 77.9868 18.3482 78.7992 20.153 78.7992C24.364 78.7992 27.372 75.8544 27.372 71.4879C27.2717 67.3246 24.2639 64.1767 20.153 64.1767"/>
	<path fill="white" d="M30.4802 71.4879C30.4802 67.223 33.8891 63.6689 38.2005 63.6689C42.6121 63.6689 45.9208 67.1215 45.9208 71.4879C45.9208 75.9559 42.8127 79.3069 38.2005 79.3069C34.1899 79.3069 30.4802 75.7528 30.4802 71.4879"/>
	<path fill="#2D1B0A" d="M38.2005 79.8146C36.0949 79.8146 34.0897 78.9007 32.4855 77.3775C30.8812 75.7528 29.9788 73.7219 29.9788 71.4879C29.9788 66.9184 33.6886 63.1612 38.2005 63.1612C42.8126 63.1612 46.4221 66.8168 46.4221 71.4879C46.3218 76.3621 43.0131 79.8146 38.2005 79.8146M38.2005 64.1767C34.2902 64.1767 30.9815 67.4261 30.9815 71.4879C30.9815 73.4173 31.7836 75.2451 33.1873 76.6667C34.591 77.9868 36.3957 78.7992 38.2005 78.7992C42.4115 78.7992 45.4194 75.8544 45.4194 71.4879C45.3192 67.3246 42.211 64.1767 38.2005 64.1767"/>
	<path fill="white" d="M67.9789 71.4879C67.9789 67.223 71.3878 63.6689 75.6992 63.6689C80.1108 63.6689 83.4195 67.1215 83.4195 71.4879C83.4195 75.9559 80.3114 79.3069 75.6992 79.3069C71.6886 79.3069 67.9789 75.7528 67.9789 71.4879"/>
	<path fill="#2D1B0A" d="M75.6992 79.8146C73.5936 79.8146 71.5884 78.9007 69.9841 77.3775C68.3799 75.7528 67.4775 73.7219 67.4775 71.4879C67.4775 66.9184 71.1873 63.1612 75.6992 63.1612C80.3113 63.1612 83.9208 66.8168 83.9208 71.4879C83.8205 76.3621 80.5118 79.8146 75.6992 79.8146M75.6992 64.1767C71.7889 64.1767 68.4802 67.4261 68.4802 71.4879C68.4802 73.4173 69.2823 75.2451 70.686 76.6667C72.0897 77.9868 73.8944 78.7992 75.6992 78.7992C79.9102 78.7992 82.9181 75.8544 82.9181 71.4879C82.8179 67.3246 79.81 64.1767 75.6992 64.1767"/>
	<path fill="white" d="M86.9287 71.4879C86.9287 67.223 90.3377 63.6689 94.649 63.6689C99.0606 63.6689 102.369 67.1215 102.369 71.4879C102.369 75.9559 99.2612 79.3069 94.649 79.3069C90.3377 79.3069 86.9287 75.7528 86.9287 71.4879"/>
	<path fill="#2D1B0A" d="M94.5488 79.8146C92.343 79.8146 90.3377 78.9007 88.7335 77.3775C87.2295 75.8544 86.3271 73.7219 86.3271 71.4879C86.3271 66.9184 90.0369 63.1612 94.5488 63.1612C99.1609 63.1612 102.77 66.8168 102.77 71.4879C102.77 76.3621 99.4617 79.8146 94.5488 79.8146M94.5488 64.1767C90.6385 64.1767 87.3298 67.4261 87.3298 71.4879C87.3298 73.4173 88.0316 75.2451 89.4353 76.6667C90.839 78.0884 92.6438 78.7992 94.5488 78.7992C98.7598 78.7992 101.768 75.8544 101.768 71.4879C101.768 67.3246 98.6597 64.1767 94.5488 64.1767"/>
	<path fill="#FFE161" d="M76.5013 21.7307L80.5119 21.7307L80.5119 35.5409L76.5013 35.5409L76.5013 21.7307"/>
	<path fill="#2D1B0A" d="M81.5145 36.5564L75.4987 36.5564L75.4987 20.7153L81.5145 20.7153L81.5145 36.5564M77.504 34.5255L79.5092 34.5255L79.5092 22.7462L77.504 22.7462L77.504 34.5255"/>
	<path fill="#2D1B0A" d="M80.9129 19.3952C80.9129 19.3952 81.4144 16.3488 76.8022 14.7241C72.19 13.0994 71.1874 10.1545 71.1874 10.1545C71.1874 10.1545 70.1848 12.7947 70.8866 15.0287C71.5885 17.2627 73.8945 19.8013 75.3985 20.6138C76.9024 21.3246 80.2111 21.9338 80.9129 19.3952"/>
	<path fill="#FF8F43" d="M96.088 46.4216C96.2968 48.7676 95.393 50.7674 94.0693 50.8939C92.7456 51.009 91.5033 49.2051 91.2646 46.8591C91.0858 44.5131 91.9896 42.5133 93.3133 42.3868C94.637 42.2717 95.8792 44.0756 96.088 46.4216"/>
	<path fill="#2D1B0A" d="M93.9473 51.7882C93.0449 51.7882 92.1425 51.2804 91.4407 50.2649C90.8391 49.351 90.438 48.1325 90.1944 46.8124C89.9367 43.8676 91.2401 41.4305 93.2454 41.3162C94.248 41.3162 95.2507 41.7351 95.9525 42.8521C96.5541 43.766 96.9552 44.9846 97.1557 46.3047C97.4565 49.2495 96.1531 51.6866 94.1478 51.7882C94.0475 51.7882 93.9473 51.7882 93.9473 51.7882M93.4459 43.4614C92.8444 43.5629 92.0422 44.883 92.2428 46.8124C92.343 47.7263 92.6438 48.6402 93.0449 49.2495C93.3457 49.6557 93.7467 49.9603 93.9473 49.8587C94.5488 49.7572 95.2507 48.4371 95.0502 46.5078C94.9499 45.5938 94.6491 44.6799 94.248 44.0707C94.0475 43.6645 93.6465 43.4614 93.4459 43.4614"/>
	<path fill="#2D1B0A" d="M13.9387 48.9448C11.7309 48.9448 10.0264 47.117 10.0264 44.9846L10.0264 33.3069C10.0264 31.0729 11.8312 29.3466 13.9387 29.3466C16.1425 29.3466 17.851 31.1744 17.851 33.3069L17.851 44.9846C17.9473 47.117 16.1425 48.9448 13.9387 48.9448"/>
</svg>
