<?xml version="1.0" encoding="utf-8" ?>
<svg xmlns="http://www.w3.org/2000/svg" xmlns:xlink="http://www.w3.org/1999/xlink" width="116" height="82">
	<path fill="white" d="M91.7747 82C78.9081 81.7995 68.052 70.9731 68.052 58.4425C68.052 51.3252 71.1681 44.709 76.4957 40.198L73.7816 28.7702L72.5754 29.9731C61.7192 40.599 54.2808 46.8142 50.9636 48.1174C49.9584 48.4181 48.8527 48.6186 47.5459 48.8191L46.3397 49.0196L46.7418 50.1222C47.5459 52.5281 47.948 55.0342 47.948 57.6406C47.948 70.5721 37.0919 81.198 23.8232 81.198C10.7556 80.9976 0 70.3716 0 57.6406C0 45.912 8.34315 36.088 19.9029 34.2836L22.5165 33.3814C23.7227 32.6797 25.0295 32.2787 26.9393 31.978L27.9445 31.978C29.6534 31.978 31.5633 32.4792 33.7747 33.4817L37.3934 30.0733C35.7851 28.4694 33.6742 26.8655 29.6534 24.9609C27.0399 23.7579 24.1248 23.1565 20.5061 23.1565C16.3847 23.1565 12.364 23.9584 10.6551 24.3594L7.13692 25.2616L6.43328 15.7384L9.34835 15.4377C9.75043 15.4377 10.3536 15.3374 10.9567 15.2372C13.4697 14.9364 17.1889 14.4352 20.6066 14.4352C22.5165 14.4352 23.9237 14.4352 25.2305 14.7359C30.0555 15.5379 33.9757 17.7433 36.2877 19.1467L37.7955 20.1491C38.7002 20.7506 39.7054 21.6528 41.0121 22.7555L42.5199 22.7555C45.8371 19.0465 48.4506 16.9413 50.3605 16.5403C52.4714 15.9389 53.5771 15.9389 55.1854 15.9389L70.4645 15.9389L70.4645 14.9364C70.4645 14.6357 70.4645 14.2347 70.4645 13.7335L70.4645 12.7311L55.0849 12.7311L54.4818 3.30807L67.4489 3.50856L68.9567 0L76.7972 0L75.9931 2.80685L76.6967 5.21271C76.8977 5.81418 76.9983 6.61614 76.9983 8.01956L76.9983 9.022L88.4575 9.022L88.4575 23.1565L80.0139 23.357L83.5321 36.3888L84.5373 36.088C86.9497 35.2861 89.3622 34.9853 91.8752 34.9853C105.445 34.9853 116 45.4108 116 58.7433C116 71.4743 105.144 82 91.7747 82M91.8752 49.0196C86.7487 49.0196 82.6274 53.1296 82.5269 58.2421C82.8284 63.555 86.9497 67.5648 91.8752 67.5648C97.0017 67.5648 101.425 63.3545 101.425 58.2421C101.425 53.1296 97.2028 49.0196 91.8752 49.0196M18.1941 50.2225C15.8821 51.9267 14.5754 54.6333 14.5754 57.5403C14.5754 62.6528 18.7972 66.8631 23.9237 66.8631C29.0503 66.8631 33.4731 62.6528 33.4731 57.5403C33.4731 54.7335 32.1664 52.1271 30.0555 50.3227C27.3414 50.1222 25.331 50.2225 23.8232 50.2225L19.8024 50.2225L19.8024 48.9193L18.1941 50.2225"/>
	<path fill="#2D1B0A" d="M71.4697 58.242C71.4697 46.7138 80.7175 37.4913 92.2773 37.4913C104.038 37.4913 113.387 46.7138 113.387 58.242C113.387 69.4693 104.139 78.7921 92.2773 78.7921C80.9186 78.4913 71.4697 69.1686 71.4697 58.242M92.1768 70.2713C99.1127 70.2713 104.742 64.6576 104.742 57.9412C104.742 51.0243 99.1127 45.6111 92.1768 45.6111C85.442 45.6111 79.8129 51.0243 79.8129 57.9412C80.2149 64.858 85.643 70.2713 92.1768 70.2713"/>
	<path fill="#2D1B0A" d="M92.1768 79.1932C80.617 78.9927 70.8666 69.3692 70.8666 58.1418C70.8666 46.2127 80.215 36.89 92.1768 36.89C104.34 36.89 113.789 46.2127 113.789 58.1418C113.789 69.7702 104.139 79.1932 92.1768 79.1932M92.1768 37.9927C80.8181 37.9927 71.8718 46.9144 71.8718 58.2421C71.8718 68.868 81.1196 77.9902 92.1768 78.291C103.536 78.291 112.783 69.269 112.783 58.2421C112.783 46.8142 103.737 37.9927 92.1768 37.9927M92.1768 70.7726C85.3415 70.7726 79.7123 65.1589 79.3103 58.0416C79.3103 50.9242 85.0399 45.2103 92.1768 45.2103C99.5148 45.2103 105.244 50.824 105.244 58.0416C105.244 65.0587 99.4143 70.7726 92.1768 70.7726M92.1768 46.2127C85.643 46.2127 80.3155 51.5257 80.3155 58.0416C80.617 64.6577 85.8441 69.8704 92.1768 69.8704C98.8111 69.8704 104.239 64.5575 104.239 58.0416C104.239 51.3252 98.9117 46.2127 92.1768 46.2127"/>
	<path fill="#2D1B0A" d="M3.4177 57.5403C3.4177 46.0121 12.6655 36.7896 24.2253 36.7896C35.9862 36.7896 45.3345 46.0121 45.3345 57.5403C45.3345 68.7677 36.0867 78.0903 24.2253 78.0903C12.6655 77.7896 3.4177 68.4669 3.4177 57.5403M24.2253 69.5696C31.1612 69.5696 36.7903 63.9559 36.7903 57.2395C36.7903 50.3227 31.1612 44.9095 24.2253 44.9095C17.4905 44.9095 11.8614 50.3227 11.8614 57.2395C11.8614 64.1563 17.4905 69.5696 24.2253 69.5696"/>
	<path fill="#2D1B0A" d="M24.2253 78.4915C12.4645 78.291 2.9151 68.868 2.9151 57.4401C2.9151 45.511 12.2634 36.1883 24.2253 36.1883C36.3882 36.1883 45.8371 45.511 45.8371 57.4401C45.8371 69.0685 36.0867 78.4915 24.2253 78.4915M24.2253 37.291C12.8666 37.291 3.9203 46.2127 3.9203 57.5404C3.9203 68.3668 13.0676 77.2885 24.2253 77.5893C35.5841 77.5893 44.8319 68.5673 44.8319 57.5404C44.8319 46.1125 35.7851 37.291 24.2253 37.291M24.2253 70.0709C17.1889 70.0709 11.3588 64.357 11.3588 57.2396C11.3588 50.1223 17.0884 44.4084 24.2253 44.4084C31.5633 44.4084 37.2929 50.022 37.2929 57.2396C37.2929 64.357 31.4628 70.0709 24.2253 70.0709M24.2253 45.511C17.6915 45.511 12.364 50.824 12.364 57.3399C12.364 63.8558 17.6915 69.1687 24.2253 69.1687C30.8596 69.1687 36.2877 63.8558 36.2877 57.3399C36.2877 50.6235 30.9602 45.511 24.2253 45.511"/>
	<path fill="#FF6C6C" d="M75.5909 22.8559L74.0831 24.3595C68.9566 29.472 54.6828 43.3057 50.2599 45.1101C45.4349 46.6138 29.0502 46.9145 24.0242 46.9145C23.5216 46.9145 23.22 46.9145 23.019 46.9145C23.019 42.3032 23.22 37.692 23.5216 36.0882C23.7226 36.0882 23.7226 35.8876 24.0242 35.8876C24.5268 35.3863 25.532 34.8851 27.6429 34.5844C27.8439 34.5844 27.8439 34.5844 28.1455 34.5844C30.9601 34.5844 34.2772 36.5893 34.5788 36.5893L35.584 37.0905L41.0121 30.1737C41.0121 30.1737 38.5996 26.3644 31.1611 22.2544C28.3465 20.9512 25.0294 19.6481 20.8076 19.6481C16.4852 19.6481 12.2634 20.45 10.1524 20.9512L9.9514 17.9438C11.9618 17.7434 16.6862 16.9415 20.9081 16.9415C22.7174 16.9415 23.9237 16.9415 25.0294 17.1418C29.6533 17.9438 33.3725 20.1493 35.6845 21.4524C38.4991 23.4573 41.6152 26.2642 41.6152 26.2642L42.6204 27.2666L43.4245 26.2642C45.7365 23.4573 49.5563 19.1468 51.5667 18.8461C53.376 18.3449 54.1802 18.3449 55.688 18.3449C55.688 18.3449 72.5753 18.8461 72.2738 17.4426C72.4748 15.9389 72.0727 9.62355 72.0727 9.62355L58.201 9.62355L58.201 5.81426L69.8613 6.01475L71.3691 2.40595L73.1784 2.40595C72.9774 3.20791 72.6758 4.21035 73.1784 4.71157C73.3795 5.2128 73.681 5.51353 74.1836 5.51353C74.3847 6.31549 74.3847 8.32038 74.3847 10.1248L74.4852 11.4279L85.8439 11.4279L85.8439 19.6481L76.4956 19.8484L83.6325 46.5135L82.6273 46.7141L75.5909 22.8559"/>
	<path fill="#2D1B0A" d="M81.9237 48.0172L75.0884 24.7605C70.364 29.472 55.3865 44.1077 50.6621 46.0123C45.6361 47.6163 29.4523 47.917 24.1248 47.917L22.1144 47.917L22.1144 46.9145C22.1144 42.1028 22.3154 37.5918 22.7175 35.8877C23.6222 34.9855 23.7227 34.9855 23.8232 34.9855C24.6274 34.384 25.8336 33.983 27.7435 33.6823C30.8596 33.6823 33.5737 34.9855 34.7799 35.5869C34.8804 35.6872 34.9809 35.6872 35.0815 35.6872L40.0069 30.274C39.0017 29.071 36.3882 26.2642 30.8596 23.1566C28.0451 21.8534 24.9289 20.6505 21.0087 20.6505C16.5858 20.6505 12.4645 21.4524 10.6551 21.9537L9.44888 22.2544L9.0468 17.0417L10.052 16.9414C10.5546 16.9414 11.1577 16.8412 11.7608 16.741C14.1733 16.4402 17.6915 15.939 21.0087 15.939C22.9186 15.939 24.1248 15.939 25.331 16.1395C29.7539 16.8412 33.3726 18.9463 35.6846 20.2495L37.0919 21.0515C39.2028 22.5551 42.1179 25.362 42.3189 25.4622C44.8319 22.8559 48.8527 18.2446 51.2652 17.7434C53.175 17.1419 54.0797 17.1419 55.5875 17.1419C62.1213 17.3424 69.4593 17.2422 71.2686 16.741C71.3692 15.538 71.2686 12.7312 71.0676 10.5258L57.1958 10.5258L57.1958 4.61137L69.2582 4.81186L70.766 1.3033L74.5858 1.3033L74.1837 2.60648C74.0832 2.90721 73.8822 3.60892 73.8822 3.90966C74.0832 4.31063 74.1837 4.41088 74.1837 4.41088L75.1889 5.11259C75.39 5.91455 75.4905 7.6187 75.4905 10.0246L86.9497 10.3253L86.9497 20.5502L77.903 20.7507L84.9393 47.2153L81.9237 48.0172M24.5269 36.9903C24.3258 38.6945 24.1248 42.2031 24.1248 46.0123C30.6586 46.0123 45.6361 45.6114 49.9584 44.2079C53.3761 42.9048 64.7348 32.3791 73.3796 23.7581L75.792 21.3522L75.1889 19.0466L84.8388 18.8461L84.8388 12.6309L73.4801 12.6309L73.3796 10.3253C73.3796 9.02213 73.3796 7.31797 73.279 6.41577C72.9775 6.21528 72.5754 5.91455 72.3744 5.41332C71.9723 5.01235 71.8718 4.41088 71.9723 3.80941L70.565 7.11748L59.2062 6.91699L59.2062 8.72139L72.9775 8.72139C73.078 10.2251 73.4801 15.8388 73.279 17.5429C73.279 17.8436 73.1785 18.0441 72.9775 18.3449C72.6759 18.7458 71.6707 19.9488 55.5875 19.4476C54.1802 19.4476 53.4766 19.4476 51.7678 19.9488C50.461 20.1493 47.3449 23.0564 44.1283 27.0661L42.721 28.8705L40.9116 27.0661C40.9116 27.0661 37.896 24.2593 35.9861 22.8559L34.7799 22.0539C32.5685 20.7507 29.1508 18.8461 25.0295 18.1444C24.0243 17.9439 22.818 17.9439 21.1092 17.9439C17.8926 17.9439 14.3744 18.3449 12.0624 18.6456C11.7608 18.6456 11.4593 18.7458 11.2582 18.7458C13.7712 19.1468 17.3899 18.6456 21.0087 18.6456C25.331 18.6456 28.7487 19.9488 31.7643 21.3522C39.4038 25.6627 41.9168 29.472 42.1179 29.6725L36.1872 38.3938L34.5789 37.4916C34.4783 37.3913 34.2773 37.3913 33.9757 37.1908C32.9705 36.6896 30.5581 35.4867 28.5477 35.4867C26.5373 35.6872 25.5321 36.0881 25.13 36.4891"/>
</svg>
