<?xml version="1.0" encoding="utf-8" ?>
<svg xmlns="http://www.w3.org/2000/svg" xmlns:xlink="http://www.w3.org/1999/xlink" width="122" height="66">
	<path fill="white" d="M54.1916 66C27.9046 66 0 58.8784 0 45.6383C0 36.4103 15.7722 28.5866 38.7227 26.079C39.7338 22.2675 43.0702 19.5593 47.2154 19.5593L49.9452 19.5593L49.9452 9.02736L40.8459 9.02736L40.8459 0L53.6861 0C56.6181 0 58.8424 2.20669 58.8424 5.1155L58.8424 19.5593L62.5832 19.5593C66.5262 19.5593 69.9638 22.3678 71.0759 26.2796C88.6679 28.386 101.913 33.6018 106.563 40.3222L108.788 40.3222C108.889 39.1185 109.192 37.8146 109.596 36.5106C110.911 31.696 113.843 26.8815 117.483 26.8815C117.685 26.8815 117.887 26.8815 118.089 26.8815C121.83 28.0851 122.639 32.1976 121.122 39.2188C120.617 41.2249 119.909 42.9301 119.1 44.4347C120.01 45.9392 120.819 47.845 121.324 49.8511C122.74 57.1733 122 61.1854 118.898 62.2888C118.089 62.3891 117.887 62.3891 117.685 62.3891C114.045 62.3891 111.113 57.5745 109.799 52.6596C109.495 51.4559 109.293 50.3526 109.091 49.1489L107.675 49.1489C103.025 60.2827 78.1532 66 54.1916 66"/>
	<path fill="#2D1B0A" d="M43.8738 2.80845L53.6797 2.80845C54.8928 2.80845 55.8026 3.71119 55.8026 4.91483L55.8026 38.7172C55.8026 39.9209 54.8928 40.8237 53.6797 40.8237C52.972 40.8237 52.972 40.8237 52.972 40.8237L52.972 7.92395C52.972 6.7203 52.0622 5.81757 50.8491 5.81757L43.8738 5.81757L43.8738 2.80845"/>
	<path fill="#2D1B0A" d="M53.6796 41.8267L51.9611 41.8267L51.9611 7.92394C51.9611 7.32212 51.4557 6.8206 50.8491 6.8206L42.8629 6.8206L42.8629 1.8054L53.6796 1.8054C55.3983 1.8054 56.8135 3.20966 56.8135 4.91482L56.8135 38.7173C56.8135 40.4224 55.4994 41.8267 53.6796 41.8267M44.8847 4.81452L50.8491 4.81452C52.5677 4.81452 53.9829 6.21877 53.9829 7.92394L53.9829 39.8206C54.4883 39.7203 54.7916 39.3191 54.7916 38.7173L54.7916 4.91482C54.7916 4.313 54.2863 3.81148 53.6796 3.81148L44.8847 3.81148L44.8847 4.81452"/>
	<path fill="#3BA7FF" d="M54.1852 62.7903C26.0817 62.7903 3.0328 54.9666 3.0328 45.4377C3.0328 37.1125 23.4533 28.0851 54.1852 28.0851C84.9171 28.0851 105.338 37.1125 105.338 45.4377C105.338 55.1672 82.1876 62.7903 54.1852 62.7903"/>
	<path fill="#2D1B0A" d="M54.1852 63.7933C24.9697 63.7933 2.0219 55.769 2.0219 45.4377C2.0219 36.611 21.937 27.0821 54.1852 27.0821C86.4335 27.0821 106.349 36.611 106.349 45.4377C106.349 55.6687 83.4007 63.7933 54.1852 63.7933M54.1852 29.0882C24.6664 29.0882 4.04373 37.7143 4.04373 45.4377C4.04373 54.2645 26.9916 61.7873 54.1852 61.7873C81.2778 61.7873 104.226 54.2645 104.327 45.4377C104.327 37.7143 83.8051 29.0882 54.1852 29.0882"/>
	<path fill="white" d="M23.4533 45.6383C23.4533 42.0273 26.0817 39.4194 29.721 39.4194C33.3603 39.4194 35.9887 42.0273 35.9887 45.6383C35.9887 49.2492 33.3603 51.8571 29.721 51.8571C26.2839 51.8571 23.4533 49.2492 23.4533 45.6383"/>
	<path fill="#2D1B0A" d="M29.721 52.8602C25.6773 52.8602 22.4424 49.6504 22.4424 45.6383C22.4424 41.4255 25.4751 38.4164 29.721 38.4164C33.9669 38.4164 36.9996 41.4255 36.9996 45.6383C36.9996 49.8511 33.9669 52.8602 29.721 52.8602M29.721 40.4225C26.5872 40.4225 24.4642 42.5289 24.4642 45.6383C24.4642 48.6474 26.6882 50.8541 29.721 50.8541C32.8548 50.8541 34.9778 48.7477 34.9778 45.6383C34.9778 42.5289 32.8548 40.4225 29.721 40.4225"/>
	<path fill="white" d="M48.1196 45.6383C48.1196 42.0273 50.748 39.4194 54.3873 39.4194C58.0266 39.4194 60.655 42.0273 60.655 45.6383C60.655 49.2492 58.0266 51.8571 54.3873 51.8571C50.748 51.8571 48.1196 49.2492 48.1196 45.6383"/>
	<path fill="#2D1B0A" d="M54.3873 52.8602C50.1414 52.8602 47.1087 49.8511 47.1087 45.6383C47.1087 41.4255 50.1414 38.4164 54.3873 38.4164C58.6332 38.4164 61.6659 41.4255 61.6659 45.6383C61.6659 49.8511 58.6332 52.8602 54.3873 52.8602M54.3873 40.4225C51.2535 40.4225 49.1305 42.5289 49.1305 45.6383C49.1305 48.7477 51.2535 50.8541 54.3873 50.8541C57.5211 50.8541 59.6441 48.7477 59.6441 45.6383C59.6441 42.5289 57.5211 40.4225 54.3873 40.4225"/>
	<path fill="white" d="M72.5838 45.6383C72.5838 42.0273 75.2122 39.4194 78.8515 39.4194C82.4908 39.4194 85.1192 42.0273 85.1192 45.6383C85.1192 49.2492 82.4908 51.8571 78.8515 51.8571C75.5155 51.8571 72.5838 49.2492 72.5838 45.6383"/>
	<path fill="#2D1B0A" d="M78.8515 52.8602C74.8078 52.8602 71.5729 49.6504 71.5729 45.6383C71.5729 41.4255 74.6057 38.4164 78.8515 38.4164C83.0974 38.4164 86.1301 41.4255 86.1301 45.6383C86.1301 49.8511 83.0974 52.8602 78.8515 52.8602M78.8515 40.4225C75.7177 40.4225 73.5947 42.5289 73.5947 45.6383C73.5947 48.5471 75.9198 50.8541 78.8515 50.8541C81.9853 50.8541 84.1083 48.7477 84.1083 45.6383C84.1083 42.5289 81.9853 40.4225 78.8515 40.4225"/>
	<path fill="#FFE161" d="M62.5758 22.3678L47.2098 22.3678C44.076 22.3678 41.4476 24.7751 41.4476 28.0851C41.4476 30.8936 43.8738 33.8025 47.2098 33.8025L62.5758 33.8025C65.7096 33.8025 68.338 31.1945 68.338 28.0851C68.0347 24.9757 65.7096 22.3678 62.5758 22.3678"/>
	<path fill="#2D1B0A" d="M62.5758 34.8055L47.2099 34.8055C43.1662 34.8055 40.4367 31.2948 40.4367 28.0851C40.4367 24.2736 43.3684 21.3647 47.2099 21.3647L62.5758 21.3647C66.114 21.3647 68.9446 24.1733 69.3489 27.9848C69.3489 31.696 66.3162 34.8055 62.5758 34.8055M47.2099 23.3708C44.5815 23.3708 42.4585 25.4772 42.4585 28.0851C42.4585 30.2918 44.3793 32.7994 47.2099 32.7994L62.5758 32.7994C65.1031 32.7994 67.3271 30.5927 67.3271 28.0851C67.0238 25.4772 65.002 23.3708 62.5758 23.3708L47.2099 23.3708"/>
	<path fill="#2D1B0A" d="M118.176 50.3526C117.469 47.6444 116.357 45.538 115.245 44.234C116.256 42.9301 117.267 40.924 117.974 38.4164C118.884 34.1033 118.884 30.0912 117.469 29.5805C116.053 29.3891 113.627 32.4985 112.414 37.0122C111.808 39.2188 111.504 41.4255 111.707 43.0304L105.136 43.0304L105.136 46.0395L111.909 46.0395C111.808 47.5441 112.111 49.5502 112.616 51.7568C113.829 56.3708 116.256 59.3799 117.671 59.1888C119.086 58.6778 119.086 54.8663 118.176 50.3526"/>
	<path fill="#2D1B0A" d="M117.57 60.1823C115.447 60.1823 112.92 56.6691 111.707 51.9513C111.201 50.2449 110.999 48.5385 110.898 46.9324L104.125 46.9324L104.125 41.9136L110.696 41.9136C110.696 40.3075 110.999 38.5007 111.504 36.5936C112.616 32.2773 115.245 28.0615 117.671 28.4364C120.603 29.4667 119.592 35.7905 118.985 38.4003C118.379 40.6086 117.57 42.5158 116.559 44.0215C117.671 45.5271 118.581 47.6351 119.187 49.9438C119.996 54.1596 120.502 59.1785 118.075 59.9815C117.772 60.1823 117.671 60.1823 117.57 60.1823M106.146 45.0253L113.021 45.0253L113.021 46.029C112.92 47.5347 113.223 49.4419 113.728 51.4494C114.84 55.866 116.862 57.8736 117.57 58.0743C117.974 57.5724 118.277 55.2638 117.368 50.4456C116.761 48.137 115.75 46.029 114.638 44.7241L114.638 43.5196C115.649 42.2147 116.559 40.2071 117.165 37.9988C118.075 33.5822 117.772 30.9724 117.368 30.4705C116.559 30.7716 114.638 32.98 113.526 37.0954C112.92 39.103 112.717 41.2109 112.819 42.817L112.92 43.9211L106.248 43.9211L106.248 45.0253"/>
</svg>
