<?xml version="1.0" encoding="utf-8" ?>
<svg xmlns="http://www.w3.org/2000/svg" xmlns:xlink="http://www.w3.org/1999/xlink" width="106" height="74">
	<path fill="white" d="M105.801 49.1644L105.601 47.3397C105.202 46.2247 104.405 43.8932 103.407 40.3452L104.504 40.3452L104.504 37.1014C104.504 32.6411 101.712 28.789 97.7234 27.4712L91.4412 26.863L70.5005 27.0658C65.2154 27.0658 61.127 31.2219 61.127 36.5945L61.127 40.8521L62.9219 40.8521C62.2239 42.9808 61.127 45.4137 59.2324 46.4274C57.6369 47.137 56.0414 47.5425 54.2465 47.5425C50.5569 47.5425 46.0696 46.1233 44.7733 42.9808C43.0781 38.6219 39.6877 36.189 37.793 35.1753L43.3772 15.611L58.3349 15.611L58.0357 6.58904L44.4741 6.69041C43.2775 4.76438 41.2832 1.82466 40.4854 0.912329L23.8325 0L23.8325 14.6986L32.9069 14.0904L24.6303 32.7425L22.5362 32.7425C20.841 32.7425 18.0489 32.7425 15.3565 33.3507C10.3706 34.6685 5.68391 37.5068 3.98871 39.5342L0.997178 43.1836L3.78928 43.9945C1.39605 47.0356 0 50.8877 0 55.0438C0 64.9781 7.8777 72.9863 17.65 72.9863C25.428 72.9863 32.2088 67.9178 34.6021 60.8219L36.0978 60.8219L70.8993 60.4164C72.794 68.2219 79.8739 74 88.0508 74C97.9229 74 106 65.9918 106 56.0575C106 54.3342 105.701 52.611 105.202 50.989C105.402 50.2795 105.601 49.6712 105.801 49.1644M87.8514 50.4822C90.7432 50.4822 93.1364 53.0164 93.1364 56.0575C93.1364 59.2 90.8429 61.6329 87.8514 61.6329C84.8598 61.6329 82.5663 59.2 82.5663 56.0575C82.5663 53.1178 85.0593 50.4822 87.8514 50.4822M17.5503 60.5178C14.5588 60.5178 12.2653 58.0849 12.2653 54.9425C12.2653 52.0027 14.7582 49.3671 17.5503 49.3671C20.4421 49.3671 22.8354 51.9014 22.8354 54.9425C22.8354 58.0849 20.4421 60.5178 17.5503 60.5178"/>
	<path fill="#65DFE5" d="M32.7073 57.5273C32.5079 54.6889 31.8099 48.0999 26.126 44.2478C22.1372 41.6123 19.046 41.1053 17.3508 41.1053C16.4533 41.1053 15.9547 41.3081 15.4562 41.3081C14.7581 41.3081 11.8663 41.5108 9.27365 41.5108C7.57845 41.5108 6.88042 41.5108 6.1824 41.3081C7.37901 39.8889 11.3677 37.2533 15.855 36.0368C18.2483 35.5301 20.8409 35.5301 22.4364 35.5301C24.331 35.5301 25.5276 35.5301 25.5276 35.5301L37.5935 10.4917L26.7243 11.2013L26.7243 2.78755L38.2915 2.78755C39.189 3.69988 42.2802 8.56563 42.7788 9.47796L55.1438 9.37659L55.2435 12.3163L41.0836 12.3163L34.2031 36.6451L35.3997 37.1519C35.3997 37.1519 40.0864 38.8753 41.9811 43.8423C43.8757 48.404 49.5596 50.33 54.2464 50.33C56.6396 50.33 58.7337 49.8232 60.6283 48.9109C65.315 46.2753 66.5117 39.0779 66.8108 36.4424L99.2191 35.9354C99.9171 38.5712 101.812 45.7683 102.809 48.2012C102.609 49.1135 100.914 51.5464 99.2191 53.9793C97.3245 51.3438 93.0366 45.7683 87.1532 45.7683C85.9566 45.7683 85.0592 45.9712 83.8626 46.2753C76.7826 48.7081 75.3865 54.4862 75.0874 57.1217L32.5079 57.1217"/>
	<path fill="#2D1B0A" d="M33.7045 58.4904L31.411 58.4904L31.411 56.0575C31.2116 53.2191 30.1147 48.1506 25.5277 45.0082C21.6387 42.3725 18.6471 42.0684 17.3508 42.0684C16.9519 42.0684 16.5531 42.1698 16.2539 42.1698C15.9548 42.1698 15.7553 42.2712 15.4562 42.2712C15.2567 42.2712 14.7581 42.2712 14.1598 42.3725C12.9632 42.4739 11.0686 42.4739 9.27367 42.4739C7.57847 42.4739 6.78073 42.4739 5.88327 42.2712L4.3875 41.8657L5.38468 40.6493C6.68101 39.1287 10.7694 36.3917 15.5559 35.0739C18.1486 34.5671 20.7412 34.5671 22.4364 34.5671L25.8268 34.5671L35.998 11.6575L25.7271 12.3671L25.7271 1.8246L38.6904 1.8246C39.887 3.04104 42.38 6.99446 43.3772 8.51501L56.141 8.41364L56.3405 13.3808L41.8814 13.3808L35.4994 36.0876C36.0978 36.3917 40.9839 38.2164 42.9783 43.589C44.6735 47.6438 49.8588 49.4684 54.3461 49.4684C56.5399 49.4684 58.4345 49.063 60.3292 48.1506C64.4176 45.8191 65.6142 39.2301 65.9134 36.4931L100.117 35.0739L100.416 36.0876C101.114 38.7232 102.909 45.7178 103.906 47.9479C103.706 49.5698 102.31 51.5972 100.117 54.7397L99.3188 55.8547L98.5211 54.7397C97.125 52.8136 92.9369 46.9342 87.253 46.9342C86.1561 46.9342 85.3583 47.1369 84.1617 47.441C77.8795 49.5698 76.4835 54.6383 76.1843 57.3753L33.904 58.2876M33.5051 56.0575L74.1899 56.0575C74.7883 52.7123 76.7826 47.5424 83.4637 45.3123C84.76 45.0082 85.7572 44.7041 87.0535 44.7041C92.8372 44.7041 97.0253 49.4684 99.1194 52.2054C100.216 50.6849 101.313 48.9616 101.712 48.1506C100.715 45.6164 99.2191 39.8383 98.4214 36.8986L67.6086 37.4054C67.11 40.852 65.6142 47.2383 61.0272 49.7725C58.8334 50.7862 56.6396 51.2931 54.1965 51.2931C49.4599 51.2931 43.1777 49.4684 40.9839 44.1972C39.2887 39.6356 35.0009 38.115 35.0009 38.115L32.9068 37.2027L40.2859 11.252L54.1965 11.252L42.1805 10.441C41.3828 9.02186 38.8899 5.06844 37.793 3.75063L27.7215 3.75063L27.7215 10.0356L39.189 9.32597L27.0234 36.4931L22.4364 36.4931C20.9407 36.4931 18.348 36.4931 16.0545 36.9999C13.1627 37.8109 10.4703 39.2301 8.67536 40.4465C8.8748 40.4465 9.07424 40.4465 9.27367 40.4465C10.9689 40.4465 12.7638 40.3451 14.0601 40.3451C14.7581 40.3451 15.2567 40.2438 15.4562 40.2438C15.6556 40.2438 15.7553 40.2438 15.9548 40.1424C16.3536 40.041 16.7525 40.041 17.3508 40.041C18.9463 40.041 22.3367 40.4465 26.6246 43.3862C32.0093 47.0356 33.2059 52.915 33.5051 56.0575"/>
	<path fill="#704C28" d="M17.4506 69.6411C9.37342 69.6411 2.79205 62.9507 2.79205 54.7397C2.79205 46.5288 9.37342 40.0411 17.4506 40.0411C25.5278 40.0411 32.4082 46.7315 32.4082 54.7397C32.4082 62.8493 25.7271 69.6411 17.4506 69.6411M17.4506 46.0219C12.9632 46.0219 9.17399 50.0767 9.17399 54.6384C9.17399 59.4027 12.7638 63.2548 17.4506 63.2548C22.1372 63.2548 25.7271 59.4027 25.7271 54.6384C25.7271 49.874 21.9378 46.0219 17.4506 46.0219"/>
	<path fill="#2D1B0A" d="M17.4505 70.6548C8.77504 70.6548 1.7948 63.5589 1.7948 54.7397C1.7948 46.1233 8.77504 39.0274 17.4505 39.0274C26.1259 39.0274 33.4053 46.2247 33.4053 54.7397C33.4053 63.5589 26.2257 70.6548 17.4505 70.6548M17.4505 41.0548C9.87194 41.0548 3.78916 47.2384 3.78916 54.7397C3.78916 62.4438 9.87194 68.6274 17.4505 68.6274C25.1288 68.6274 31.411 62.4438 31.411 54.7397C31.411 47.3397 25.029 41.0548 17.4505 41.0548M17.4505 64.2685C12.2652 64.2685 8.17674 60.011 8.17674 54.6384C8.17674 49.4685 12.4646 45.0082 17.4505 45.0082C22.5361 45.0082 26.7242 49.3671 26.7242 54.6384C26.7242 60.011 22.6358 64.2685 17.4505 64.2685M17.4505 47.0356C13.5615 47.0356 10.1711 50.5836 10.1711 54.6384C10.1711 58.8959 13.3621 62.2411 17.4505 62.2411C21.5389 62.2411 24.7299 58.8959 24.7299 54.6384C24.7299 50.4822 21.4392 47.0356 17.4505 47.0356"/>
	<path fill="#704C28" d="M87.7516 70.6548C79.6745 70.6548 73.0931 63.9644 73.0931 55.7534C73.0931 47.5425 79.6745 41.0548 87.7516 41.0548C95.8288 41.0548 102.709 47.7452 102.709 55.7534C102.709 63.863 96.0282 70.6548 87.7516 70.6548M87.7516 47.0356C83.2643 47.0356 79.4751 51.0904 79.4751 55.6521C79.4751 60.4164 83.0649 64.2685 87.7516 64.2685C92.4383 64.2685 96.0282 60.4164 96.0282 55.6521C96.0282 50.8877 92.2389 47.0356 87.7516 47.0356"/>
	<path fill="#2D1B0A" d="M87.7516 71.6685C79.0761 71.6685 72.0959 64.5726 72.0959 55.7534C72.0959 47.137 79.0761 40.0411 87.7516 40.0411C96.427 40.0411 103.706 47.2384 103.706 55.7534C103.706 64.5726 96.5268 71.6685 87.7516 71.6685M87.7516 42.0685C80.173 42.0685 74.0903 48.2521 74.0903 55.7534C74.0903 63.4575 80.173 69.6411 87.7516 69.6411C95.4299 69.6411 101.712 63.4575 101.712 55.7534C101.712 48.3534 95.3301 42.0685 87.7516 42.0685M87.7516 65.2822C82.5663 65.2822 78.4778 61.0247 78.4778 55.6521C78.4778 50.4822 82.7657 46.0219 87.7516 46.0219C92.8372 46.0219 97.0253 50.3808 97.0253 55.6521C97.0253 61.126 92.9369 65.2822 87.7516 65.2822M87.7516 48.0493C83.8626 48.0493 80.4722 51.5973 80.4722 55.6521C80.4722 59.9096 83.6632 63.2548 87.7516 63.2548C91.84 63.2548 95.031 59.9096 95.031 55.6521C95.031 51.4959 91.7403 48.0493 87.7516 48.0493"/>
	<path fill="#704C28" d="M94.333 29.6L70.4008 29.8027C66.8109 29.8027 64.0188 32.6411 64.0188 36.2904L64.0188 37.5068L101.413 37C101.413 33.0466 98.4214 29.6 94.333 29.6"/>
	<path fill="#2D1B0A" d="M63.0217 38.5205L63.0217 36.2904C63.0217 32.1342 66.3124 28.789 70.4008 28.789L94.3331 28.5863C98.8204 28.5863 102.41 32.2356 102.41 36.7972L102.41 38.0137L63.0217 38.5205M94.3331 30.6137L70.4008 30.8164C67.4093 30.8164 65.0161 33.2493 65.0161 36.2904L100.316 35.9863C100.017 32.9452 97.4243 30.6137 94.3331 30.6137"/>
</svg>
