<?xml version="1.0" encoding="utf-8" ?>
<svg xmlns="http://www.w3.org/2000/svg" xmlns:xlink="http://www.w3.org/1999/xlink" width="56" height="90">
	<path fill="white" d="M5.56753 90C3.28087 90 1.39188 88.0872 1.39188 85.7718L1.39188 10.6711C0.497101 9.56376 0 8.15436 0 6.6443C0 3.02013 2.88319 0 6.56173 0C10.2403 0 13.1235 2.91946 13.1235 6.6443C13.1235 7.85235 12.8252 9.0604 12.1293 10.0671L54.0846 41.8792C55.7747 43.0872 56.3712 45.302 55.7747 47.3154C55.0788 49.3289 53.2892 50.6376 51.2014 50.6376L11.1351 50.6376L11.1351 85.7718C11.1351 88.0872 9.24608 90 6.95941 90L5.56753 90"/>
	<path fill="#2D1B0A" d="M6.76058 87.0805L5.46812 87.0805C4.77218 87.0805 4.27508 86.5771 4.27508 85.8724L4.27508 9.46305C4.27508 8.75836 4.77218 8.255 5.46812 8.255L6.76058 8.255C7.45653 8.255 7.95363 8.75836 7.95363 9.46305L7.95363 85.8724C7.95363 86.5771 7.45653 87.0805 6.76058 87.0805"/>
	<path fill="#2D1B0A" d="M6.76057 88.0871L5.4681 88.0871C4.27506 88.0871 3.28086 87.0804 3.28086 85.8724L3.28086 9.46297C3.28086 8.25491 4.27506 7.2482 5.4681 7.2482L6.76057 7.2482C7.95361 7.2482 8.94781 8.25491 8.94781 9.46297L8.94781 85.8724C8.94781 87.0804 7.95361 88.0871 6.76057 88.0871M5.4681 9.26162C5.36868 9.26162 5.26926 9.36229 5.26926 9.46297L5.26926 85.8724C5.26926 85.973 5.36868 86.0737 5.4681 86.0737L6.76057 86.0737C6.85999 86.0737 6.95941 85.973 6.95941 85.8724L6.95941 9.46297C6.95941 9.36229 6.85999 9.26162 6.76057 9.26162L5.4681 9.26162"/>
	<path fill="#FFE161" d="M10.0414 6.74497C10.0414 8.74654 8.439 10.3691 6.46231 10.3691C4.48561 10.3691 2.88318 8.74654 2.88318 6.74497C2.88318 4.7434 4.48561 3.12081 6.46231 3.12081C8.439 3.12081 10.0414 4.7434 10.0414 6.74497"/>
	<path fill="#2D1B0A" d="M6.46231 11.3758C3.9768 11.3758 1.88898 9.36242 1.88898 6.74497C1.88898 4.12752 3.87738 2.1141 6.46231 2.1141C9.04723 2.1141 11.0356 4.12752 11.0356 6.74497C11.0356 9.36242 8.94781 11.3758 6.46231 11.3758M6.46231 4.12752C5.07043 4.12752 3.87738 5.23491 3.87738 6.74497C3.87738 8.25504 4.97101 9.36242 6.46231 9.36242C7.95361 9.36242 9.04723 8.25504 9.04723 6.74497C9.04723 5.23491 7.85419 4.12752 6.46231 4.12752"/>
	<path fill="#ED462F" d="M6.26355 13.3063L6.26355 45.9238C6.26355 46.9305 7.05891 47.7358 8.05311 47.7358L51.0027 47.7358C52.6927 47.7358 53.4882 45.5211 52.0962 44.5144L9.14674 11.8969C7.95369 10.8902 6.26355 11.7963 6.26355 13.3063"/>
	<path fill="#2D1B0A" d="M51.102 48.7248L8.15247 48.7248C6.66116 48.7248 5.3687 47.417 5.3687 45.9079L5.3687 13.3125C5.3687 12.2058 5.96522 11.3004 6.95942 10.7974C7.95362 10.2944 9.04725 10.483 9.84261 11.0992L52.7921 43.6947C53.7863 44.3989 54.184 45.7067 53.7863 46.8134C53.2892 47.92 52.295 48.7248 51.102 48.7248M8.15247 12.407C7.95362 12.407 7.8542 12.5076 7.75478 12.5076C7.65536 12.6082 7.3571 12.8095 7.3571 13.2119L7.3571 45.8073C7.3571 46.2097 7.75478 46.6122 8.15247 46.6122L51.102 46.6122C51.5991 46.6122 51.7979 46.2097 51.8973 46.0085C51.9968 45.8073 51.9968 45.4049 51.5991 45.1031L8.64957 12.5076C8.45073 12.5076 8.25189 12.407 8.15247 12.407"/>
	<path fill="#FFE161" d="M18.691 27.0806L20.58 30.9061L24.6562 31.5101L21.6736 34.4296L22.3695 38.5571L18.691 36.6443L15.0124 38.5571L15.7084 34.4296L12.7258 31.5101L16.9014 30.9061"/>
	<path fill="#2D1B0A" d="M23.7614 40.4698L18.7904 37.8524L13.8194 40.4698L14.8136 34.8322L10.7374 30.8054L16.3049 30L18.7904 24.8658L21.2759 30L26.8435 30.8054L22.7672 34.8322L23.7614 40.4698M14.913 32.2148L16.802 34.1275L16.3049 36.745L18.691 35.4363L21.077 36.745L20.58 34.1275L22.469 32.2148L19.7846 31.8121L18.5915 29.396L17.3985 31.8121L14.913 32.2148"/>
</svg>
