<?xml version="1.0" encoding="utf-8" ?>
<svg xmlns="http://www.w3.org/2000/svg" xmlns:xlink="http://www.w3.org/1999/xlink" width="102" height="98">
	<path fill="white" d="M21.575 36.0471C21.575 39.5962 18.6727 42.4734 15.0924 42.4734C11.5122 42.4734 8.6098 39.5962 8.6098 36.0471C8.6098 32.498 11.5122 29.6208 15.0924 29.6208C18.6727 29.6208 21.575 32.498 21.575 36.0471"/>
	<path fill="white" d="M93.6941 50.707L91.7696 50.707L91.7696 12.752C91.7696 5.72336 85.996 0 78.9057 0C72.9295 0 67.8649 4.1168 66.4469 9.53893C60.0655 10.8443 55.3049 16.4672 55.3049 23.0943L55.3049 26.1066L56.1152 34.8422L60.0655 34.8422L60.0655 42.7746L66.143 42.7746L66.143 33.4365L69.9921 33.4365L69.9921 31.7295L74.2463 31.7295L74.2463 35.9467L80.3237 35.9467L80.3237 26.0061L83.2612 26.0061L83.2612 22.9939C83.2612 16.5676 78.8044 11.1455 72.8282 9.63934C73.9424 7.43033 76.2721 5.92418 78.9057 5.92418C82.6534 5.92418 85.6922 8.93648 85.6922 12.6516L85.6922 50.6066C83.4638 47.5943 80.5263 45.4857 77.0824 45.4857C74.9553 45.4857 73.1321 46.2889 71.6127 47.4939C70.1946 46.3893 68.4727 45.7869 66.5482 45.7869C64.6236 45.7869 62.9017 46.3893 61.4836 47.4939C59.6604 42.5738 54.8997 39.0594 49.3287 39.0594C47.4042 39.0594 45.5809 39.4611 43.9603 40.2643C44.0616 39.7623 44.1629 39.2602 44.1629 38.6578C44.1629 35.1434 41.2254 32.2316 37.6802 32.2316C34.1351 32.2316 31.1976 35.1434 31.1976 38.6578C31.1976 42.1721 34.1351 45.084 37.6802 45.084C37.9841 45.084 38.1867 45.084 38.4906 45.084C37.9841 45.9877 37.4777 46.8914 37.1738 47.8955C35.6544 46.3893 33.6286 45.4857 31.2989 45.4857C28.9692 45.4857 26.8421 46.4898 25.3227 47.9959C23.8034 46.1885 21.4737 45.084 18.9414 45.084C15.2949 45.084 12.2562 47.3934 11.0407 50.6066L8.00199 50.6066C3.54518 50.6066 0 54.1209 0 58.5389C0 61.752 1.92453 64.5635 4.76068 65.7684C5.571 83.6414 20.4608 98 38.6931 98L63.3069 98C81.5392 98 96.429 83.6414 97.2393 65.7684C100.075 64.5635 102 61.752 102 58.5389C101.797 54.2213 98.1509 50.707 93.6941 50.707"/>
	<path fill="white" d="M63.3068 95.0883L38.6931 95.0883C21.6763 95.0883 7.7994 81.3321 7.7994 64.4633L94.2006 63.7604C94.2006 81.3321 80.425 95.0883 63.3068 95.0883"/>
	<path fill="#2D1B0A" d="M63.3069 96.0924L38.6932 96.0924C21.0685 96.0924 6.7865 81.9346 6.7865 64.4633L6.7865 62.7563L95.2135 62.7563L95.2135 64.4633C95.2135 81.9346 80.9315 96.0924 63.3069 96.0924M8.91361 64.7645C9.0149 80.9305 22.3853 94.0842 38.7944 94.0842L63.4081 94.0842C79.8173 94.0842 93.1877 80.9305 93.289 64.7645L8.91361 64.7645"/>
	<path fill="#AEE8FF" d="M59.4578 52.0124C59.4578 57.4469 55.0136 61.8525 49.5313 61.8525C44.049 61.8525 39.6048 57.4469 39.6048 52.0124C39.6048 46.5778 44.049 42.1722 49.5313 42.1722C55.0136 42.1722 59.4578 46.5778 59.4578 52.0124"/>
	<path fill="#2D1B0A" d="M49.5313 62.8566C43.5552 62.8566 38.5919 58.037 38.5919 52.0124C38.5919 45.9878 43.4539 41.1681 49.5313 41.1681C55.6088 41.1681 60.4707 45.9878 60.4707 52.0124C60.4707 58.037 55.5075 62.8566 49.5313 62.8566M49.5313 43.1763C44.6694 43.1763 40.6177 47.0923 40.6177 52.0124C40.6177 56.9324 44.5681 60.8484 49.5313 60.8484C54.4946 60.8484 58.4449 56.9324 58.4449 52.0124C58.4449 47.0923 54.3933 43.1763 49.5313 43.1763"/>
	<path fill="#AEE8FF" d="M36.7686 53.9201C36.7686 56.8592 34.3651 59.2418 31.4002 59.2418C28.4353 59.2418 26.0318 56.8592 26.0318 53.9201C26.0318 50.981 28.4353 48.5984 31.4002 48.5984C34.3651 48.5984 36.7686 50.981 36.7686 53.9201"/>
	<path fill="#2D1B0A" d="M31.4002 60.2459C27.855 60.2459 25.0189 57.4345 25.0189 53.9201C25.0189 50.4058 27.855 47.5943 31.4002 47.5943C34.9454 47.5943 37.7816 50.4058 37.7816 53.9201C37.7816 57.4345 34.8441 60.2459 31.4002 60.2459M31.4002 49.6025C28.9692 49.6025 27.0447 51.5103 27.0447 53.9201C27.0447 56.33 28.9692 58.2377 31.4002 58.2377C33.8312 58.2377 35.7556 56.33 35.7556 53.9201C35.7556 51.5103 33.7299 49.6025 31.4002 49.6025"/>
	<path fill="#AEE8FF" d="M24.3098 53.5184C24.3098 56.4575 21.9063 58.8401 18.9414 58.8401C15.9765 58.8401 13.573 56.4575 13.573 53.5184C13.573 50.5793 15.9765 48.1967 18.9414 48.1967C21.9063 48.1967 24.3098 50.5793 24.3098 53.5184"/>
	<path fill="#2D1B0A" d="M18.9414 59.8442C15.3962 59.8442 12.5601 57.0328 12.5601 53.5184C12.5601 50.0041 15.3962 47.1926 18.9414 47.1926C22.4866 47.1926 25.3228 50.0041 25.3228 53.5184C25.3228 57.0328 22.4866 59.8442 18.9414 59.8442M18.9414 49.2008C16.5104 49.2008 14.5859 51.1086 14.5859 53.5184C14.5859 55.9283 16.5104 57.836 18.9414 57.836C21.3724 57.836 23.2969 55.9283 23.2969 53.5184C23.2969 51.1086 21.3724 49.2008 18.9414 49.2008"/>
	<path fill="#AEE8FF" d="M72.1191 54.2213C72.1191 57.1604 69.7156 59.543 66.7507 59.543C63.7858 59.543 61.3823 57.1604 61.3823 54.2213C61.3823 51.2822 63.7858 48.8996 66.7507 48.8996C69.7156 48.8996 72.1191 51.2822 72.1191 54.2213"/>
	<path fill="#2D1B0A" d="M66.7507 60.5471C63.2055 60.5471 60.3694 57.7357 60.3694 54.2213C60.3694 50.707 63.2055 47.8955 66.7507 47.8955C70.2959 47.8955 73.132 50.707 73.132 54.2213C73.132 57.7357 70.2959 60.5471 66.7507 60.5471M66.7507 49.9037C64.3197 49.9037 62.3952 51.8115 62.3952 54.2213C62.3952 56.6312 64.3197 58.5389 66.7507 58.5389C69.1817 58.5389 71.1061 56.6312 71.1061 54.2213C71.1061 51.8115 69.1817 49.9037 66.7507 49.9037"/>
	<path fill="#AEE8FF" d="M82.6534 53.9201C82.6534 56.8592 80.2499 59.2418 77.285 59.2418C74.3201 59.2418 71.9166 56.8592 71.9166 53.9201C71.9166 50.981 74.3201 48.5984 77.285 48.5984C80.2499 48.5984 82.6534 50.981 82.6534 53.9201"/>
	<path fill="#2D1B0A" d="M77.285 60.2459C73.7398 60.2459 70.9036 57.4345 70.9036 53.9201C70.9036 50.4058 73.7398 47.5943 77.285 47.5943C80.8302 47.5943 83.6664 50.4058 83.6664 53.9201C83.6664 57.4345 80.8302 60.2459 77.285 60.2459M77.285 49.6025C74.854 49.6025 72.9295 51.5103 72.9295 53.9201C72.9295 56.33 74.854 58.2377 77.285 58.2377C79.716 58.2377 81.6404 56.33 81.6404 53.9201C81.6404 51.5103 79.716 49.6025 77.285 49.6025"/>
	<path fill="#AEE8FF" d="M41.2254 38.7582C41.2254 40.6437 39.6835 42.1721 37.7815 42.1721C35.8795 42.1721 34.3376 40.6437 34.3376 38.7582C34.3376 36.8727 35.8795 35.3443 37.7815 35.3443C39.6835 35.3443 41.2254 36.8727 41.2254 38.7582"/>
	<path fill="#2D1B0A" d="M37.7815 43.1762C35.3505 43.1762 33.3247 41.168 33.3247 38.7582C33.3247 36.3484 35.3505 34.3402 37.7815 34.3402C40.2125 34.3402 42.2383 36.3484 42.2383 38.7582C42.2383 41.168 40.2125 43.1762 37.7815 43.1762M37.7815 36.3484C36.4647 36.3484 35.3505 37.4529 35.3505 38.7582C35.3505 40.0635 36.4647 41.168 37.7815 41.168C39.0983 41.168 40.2125 40.0635 40.2125 38.7582C40.2125 37.4529 39.0983 36.3484 37.7815 36.3484"/>
	<path fill="#AEE8FF" d="M18.8401 36.0471C18.8401 37.9326 17.2982 39.461 15.3962 39.461C13.4942 39.461 11.9523 37.9326 11.9523 36.0471C11.9523 34.1616 13.4942 32.6332 15.3962 32.6332C17.2982 32.6332 18.8401 34.1616 18.8401 36.0471"/>
	<path fill="#2D1B0A" d="M15.3962 40.5655C12.9652 40.5655 10.9394 38.5573 10.9394 36.1475C10.9394 33.7377 12.9652 31.7295 15.3962 31.7295C17.8272 31.7295 19.853 33.7377 19.853 36.1475C19.853 38.5573 17.8272 40.5655 15.3962 40.5655M15.3962 33.6372C14.0794 33.6372 12.9652 34.7418 12.9652 36.0471C12.9652 37.3524 14.0794 38.4569 15.3962 38.4569C16.713 38.4569 17.8272 37.3524 17.8272 36.0471C17.8272 34.7418 16.713 33.6372 15.3962 33.6372"/>
	<path fill="#2D1B0A" d="M89.9464 53.418L87.9204 53.418L87.9204 12.7521C87.9204 7.93238 83.9702 4.0164 79.1082 4.0164C74.2462 4.0164 70.2959 7.93238 70.2959 12.7521L68.2701 12.7521C68.2701 6.82787 73.132 2.0082 79.1082 2.0082C85.0844 2.0082 89.9464 6.82787 89.9464 12.7521L89.9464 53.418"/>
	<path fill="#E2E2E2" d="M69.587 23.1946L58.6476 23.1946C58.6476 17.2704 63.6108 12.3503 69.587 12.3503C75.5632 12.3503 80.5264 17.2704 80.5264 23.1946L69.587 23.1946"/>
	<path fill="#2D1B0A" d="M81.5393 24.1987L57.6346 24.1987L57.6346 23.1946C57.6346 16.668 63.003 11.3462 69.5869 11.3462C76.1708 11.3462 81.5393 16.668 81.5393 23.1946L81.5393 24.1987M59.7617 22.1905L79.5134 22.1905C79.007 17.2704 74.7528 13.3544 69.6882 13.3544C64.6237 13.3544 60.2682 17.17 59.7617 22.1905"/>
	<path fill="#2D1B0A" d="M58.5462 24.5L60.572 24.5L60.572 32.9344L58.5462 32.9344L58.5462 24.5"/>
	<path fill="#2D1B0A" d="M62.3952 24.5L64.421 24.5L64.421 40.8668L62.3952 40.8668L62.3952 24.5"/>
	<path fill="#2D1B0A" d="M66.3456 24.5L68.3714 24.5L68.3714 31.5286L66.3456 31.5286L66.3456 24.5"/>
	<path fill="#2D1B0A" d="M70.9037 24.5L72.9295 24.5L72.9295 29.9222L70.9037 29.9222L70.9037 24.5"/>
	<path fill="#2D1B0A" d="M76.576 24.5L78.6018 24.5L78.6018 34.1394L76.576 34.1394L76.576 24.5"/>
	<path fill="#AEE8FF" d="M93.9474 63.5594L8.05266 63.5594C5.3178 63.5594 3.0894 61.3503 3.0894 58.6393C3.0894 55.9282 5.3178 53.7192 8.05266 53.7192L93.9474 53.7192C96.6823 53.7192 98.9107 55.9282 98.9107 58.6393C98.9107 61.3503 96.6823 63.5594 93.9474 63.5594"/>
	<path fill="#2D1B0A" d="M93.9474 64.5635L8.05267 64.5635C4.71007 64.5635 2.0765 61.8524 2.0765 58.6393C2.0765 55.4262 4.81136 52.7151 8.05267 52.7151L93.9474 52.7151C97.29 52.7151 99.9236 55.4262 99.9236 58.6393C99.9236 61.8524 97.1887 64.5635 93.9474 64.5635M8.05267 54.7233C5.82427 54.7233 4.10232 56.5307 4.10232 58.6393C4.10232 60.7479 5.92556 62.5553 8.05267 62.5553L93.9474 62.5553C96.1758 62.5553 97.8978 60.7479 97.8978 58.6393C97.8978 56.5307 96.0745 54.7233 93.9474 54.7233L8.05267 54.7233"/>
	<path fill="#AEE8FF" d="M87.2115 72.0943C87.2115 73.9798 85.6696 75.5082 83.7676 75.5082C81.8656 75.5082 80.3237 73.9798 80.3237 72.0943C80.3237 70.2088 81.8656 68.6804 83.7676 68.6804C85.6696 68.6804 87.2115 70.2088 87.2115 72.0943"/>
	<path fill="#2D1B0A" d="M83.7676 76.5123C81.3366 76.5123 79.3108 74.5041 79.3108 72.0943C79.3108 69.6845 81.3366 67.6763 83.7676 67.6763C86.1986 67.6763 88.2244 69.6845 88.2244 72.0943C88.2244 74.5041 86.1986 76.5123 83.7676 76.5123M83.7676 69.584C82.4508 69.584 81.3366 70.6886 81.3366 71.9939C81.3366 73.2992 82.4508 74.4037 83.7676 74.4037C85.0844 74.4037 86.1986 73.2992 86.1986 71.9939C86.1986 70.6886 85.0844 69.584 83.7676 69.584"/>
</svg>
