<?xml version="1.0" encoding="utf-8" ?>
<svg xmlns="http://www.w3.org/2000/svg" xmlns:xlink="http://www.w3.org/1999/xlink" width="90" height="98">
	<path fill="white" d="M85.1786 98C83.7723 98 82.4665 97.4024 81.5625 96.5061L69.4085 84.4553L20.9933 84.4553L8.83929 96.5061C7.93527 97.4024 6.62946 98 5.22321 98C3.81696 98 2.51116 97.502 1.5067 96.5061C0.502232 95.6098 0 94.2154 0 92.9207C0 91.5264 0.602679 90.2317 1.5067 89.3354L11.5513 79.376L1.5067 69.4167C0.502232 68.5203 0 67.2256 0 65.8313C0 64.437 0.602679 63.1423 1.5067 62.2459C2.41071 61.25 3.71652 60.752 5.12277 60.752C5.22321 60.752 5.32366 60.752 5.52455 60.752C5.72545 60.0549 6.22768 59.3577 6.72991 58.7602C7.63393 57.8638 8.93973 57.3659 10.2455 57.3659C11.5513 57.3659 12.8571 57.8638 13.7612 58.7602L23.1027 68.0224C23.404 68.3211 23.7054 68.6199 23.9062 69.0183C24.2076 69.0183 24.4085 68.9187 24.7098 68.9187L38.7723 68.9187L38.7723 44.8171C38.5714 45.315 38.471 45.813 38.471 46.311C38.471 47.3069 38.0692 48.2033 37.3661 48.9004C36.6629 49.5976 35.7589 49.9959 34.7545 49.9959C33.4487 49.9959 32.2433 49.2988 31.5402 48.2033C31.2388 47.6057 31.0379 46.9085 31.0379 46.2114C31.0379 45.315 30.6362 44.3191 29.8326 43.622C29.1295 42.9248 28.125 42.5264 27.1205 42.5264C26.0156 42.5264 25.0112 42.9248 24.308 43.7215C23.6049 44.4187 23.2031 45.4146 23.2031 46.5102C23.2031 48.502 21.596 50.1951 19.4866 50.1951C18.1808 50.1951 16.9754 49.498 16.2723 48.4024C15.971 47.8049 15.7701 47.1077 15.7701 46.4106C15.7701 45.5142 15.3683 44.5183 14.5647 43.7215C13.8616 43.0244 12.8571 42.626 11.8527 42.626C10.7478 42.626 9.84375 43.0244 9.04018 43.8211C8.33705 44.5183 7.93527 45.5142 7.93527 46.6098C7.93527 47.6057 7.53348 48.502 6.83036 49.1992C6.12723 49.8963 5.22321 50.2947 4.21875 50.2947C3.21429 50.2947 2.31027 49.8963 1.60714 49.1992C0.904018 48.502 0.502232 47.6057 0.502232 46.6098C0.401786 35.5549 4.72098 25.0976 12.5558 17.2297C19.1853 10.5569 28.0246 6.27439 37.3661 5.17886L38.7723 0L45.8036 0L47.2098 5.17886C56.4509 6.27439 64.8884 10.2581 71.6183 16.8313C79.4531 24.5 83.8728 34.6585 84.0737 45.6138C84.0737 47.5061 83.3705 48.7012 82.2656 49.3984C81.6629 49.6972 81.0603 49.8963 80.4576 49.8963C78.3482 49.8963 76.7411 48.2033 76.7411 46.2114C76.7411 45.2154 76.3393 44.2195 75.5357 43.5224C74.8326 42.8252 73.8281 42.4268 72.8237 42.4268C71.7187 42.4268 70.8147 42.8252 70.0112 43.622C69.308 44.3191 68.9062 45.315 68.9062 46.4106C68.9062 47.4065 68.5045 48.3028 67.8013 49C67.0982 49.6972 66.1942 50.0955 65.1897 50.0955C63.8839 50.0955 62.6786 49.3984 61.9754 48.3028C61.6741 47.7053 61.4732 47.0081 61.4732 46.4106C61.4732 45.4146 61.0714 44.5183 60.2679 43.8211C59.5647 43.124 58.5603 42.7256 57.5558 42.7256C56.4509 42.7256 55.4464 43.124 54.7433 43.9207C54.0402 44.6179 53.6384 45.6138 53.6384 46.7093C53.6384 48.7012 52.0313 50.3943 49.9219 50.3943C48.6161 50.3943 47.4107 49.6972 46.7076 48.6016C46.4063 48.0041 46.2054 47.3069 46.2054 46.6098C46.2054 45.7134 45.8036 44.7175 45 44.0203C44.8996 43.9207 44.7991 43.8211 44.5982 43.7215L44.5982 69.4167L69.0067 69.4167C71.7187 69.4167 74.029 71.6077 74.029 74.3963C74.029 74.7947 74.029 75.1931 73.9286 75.4919C74.2299 75.6911 74.6317 75.9898 74.8326 76.189L88.4933 89.7337C89.4978 90.6301 90 92.0244 90 93.3191C90 94.7134 89.3973 96.0081 88.4933 96.9045C87.9911 97.502 86.5848 98 85.1786 98"/>
	<path fill="#704C28" d="M19.9387 81.1686L70.3628 81.1686C70.5637 81.1686 70.7645 81.2682 70.8651 81.3678L83.7222 94.1158C84.1239 94.5142 84.7266 94.7134 85.2289 94.7134C85.8316 94.7134 86.3337 94.5142 86.7355 94.1158C87.1374 93.7174 87.3382 93.1199 87.3382 92.6219C87.3382 92.0243 87.1374 91.5264 86.7355 91.128L73.0749 77.5833C72.5726 77.0853 71.9699 76.8861 71.2668 76.9857C71.1664 76.9857 71.1664 76.9857 71.0659 76.9857C70.9654 76.9857 70.8651 76.9857 70.7645 76.9857L20.0392 76.9857C19.8382 76.9857 19.6374 76.8861 19.5369 76.7865L6.67977 64.0386C6.27798 63.6402 5.6753 63.441 5.17307 63.441C4.57039 63.441 4.06816 63.6402 3.66638 64.0386C3.26459 64.4369 2.96325 65.0345 2.96325 65.5325C2.96325 66.13 3.26459 66.628 3.66638 67.0264L15.2178 78.4796C15.5191 78.7784 15.5191 79.1768 15.2178 79.4756L3.56593 91.0284C3.16414 91.4268 2.96325 92.0243 2.96325 92.5223C2.96325 93.1199 3.16414 93.6178 3.56593 94.0162C3.96771 94.4146 4.57039 94.6138 5.07262 94.6138C5.6753 94.6138 6.17754 94.4146 6.57932 94.0162L19.4365 81.2682C19.5369 81.1686 19.7379 81.1686 19.9387 81.1686"/>
	<path fill="#2D1B0A" d="M85.1285 95.7093C84.3249 95.7093 83.5213 95.4105 82.9187 94.813L70.162 82.1646L20.0392 82.1646L7.28251 94.813C6.1776 96.0081 3.96777 96.0081 2.76242 94.813C2.15974 94.2154 1.8584 93.4187 1.8584 92.6219C1.8584 91.8252 2.15974 91.0284 2.76242 90.4309L14.2133 79.0772L2.76242 67.7236C2.15974 67.126 1.8584 66.3292 1.8584 65.5325C1.8584 64.7357 2.15974 63.939 2.76242 63.3414C3.3651 62.7439 4.16867 62.4451 4.97224 62.4451C5.77581 62.4451 6.57938 62.7439 7.18206 63.3414L19.9388 75.9898L70.5638 75.9898C70.6642 75.9898 70.7646 75.9898 70.9655 75.9898C71.97 75.8902 72.9745 76.189 73.5771 76.8862L87.2379 90.4309C87.8405 91.0284 88.1419 91.8252 88.1419 92.6219C88.1419 93.4187 87.8405 94.2154 87.2379 94.813C86.8361 95.4105 86.0325 95.7093 85.1285 95.7093M19.9388 80.1727L70.3629 80.1727C70.8651 80.1727 71.2669 80.3719 71.5682 80.6707L84.4254 93.3191C84.8271 93.7175 85.6307 93.7175 86.0325 93.3191C86.2334 93.1199 86.4343 92.8211 86.4343 92.5223C86.4343 92.2236 86.3338 91.9248 86.133 91.7256L72.4722 78.1809C72.1709 77.8821 71.8696 77.7825 71.4678 77.8821C71.3673 77.8821 71.1664 77.8821 70.9655 77.8821C70.9655 77.8821 70.8651 77.8821 70.8651 77.8821L20.1396 77.8821C19.6374 77.8821 19.2356 77.6829 18.9343 77.3841L6.1776 64.7357C5.77581 64.3374 4.97224 64.3374 4.57045 64.7357C4.36956 64.9349 4.16867 65.2337 4.16867 65.5325C4.16867 65.8313 4.26911 66.1301 4.47001 66.3292L16.1218 77.8821C16.8249 78.5792 16.8249 79.5752 16.1218 80.2723L4.47001 91.8252C4.26911 92.0244 4.16867 92.3231 4.16867 92.6219C4.16867 92.9207 4.26911 93.2195 4.47001 93.4187C4.97224 93.9166 5.67536 93.8171 6.07715 93.4187L18.9343 80.6707C19.0347 80.3719 19.4365 80.1727 19.9388 80.1727M20.1396 75.8902C20.1396 75.9898 20.1396 75.8902 20.1396 75.8902M71.066 75.8902C71.1664 75.8902 71.1664 75.8902 71.066 75.8902"/>
	<path fill="#FFE161" d="M69.3081 75.4919L24.7099 75.4919C23.605 75.4919 22.701 74.5955 22.701 73.5C22.701 72.4045 23.605 71.5081 24.7099 71.5081L69.3081 71.5081C70.4131 71.5081 71.317 72.4045 71.317 73.5C71.317 74.5955 70.4131 75.4919 69.3081 75.4919"/>
	<path fill="#2D1B0A" d="M69.308 76.4878L24.7098 76.4878C23.1026 76.4878 21.6964 75.1931 21.6964 73.5C21.6964 71.8069 23.0022 70.5122 24.7098 70.5122L69.308 70.5122C70.9151 70.5122 72.3214 71.8069 72.3214 73.5C72.3214 75.1931 71.0156 76.4878 69.308 76.4878M24.8102 72.5041C24.308 72.5041 23.8058 72.9024 23.8058 73.5C23.8058 74.0976 24.2076 74.4959 24.8102 74.4959L69.4085 74.4959C69.9107 74.4959 70.4129 74.0976 70.4129 73.5C70.4129 72.9024 70.0111 72.5041 69.4085 72.5041L24.8102 72.5041"/>
	<path fill="#FFE161" d="M11.6518 60.4533L20.9933 69.7155C21.7969 70.5122 21.7969 71.7073 20.9933 72.5041C20.1897 73.3008 18.9844 73.3008 18.1808 72.5041L8.83929 63.2419C8.03572 62.4452 8.03572 61.25 8.83929 60.4533C9.64286 59.6565 10.8482 59.6565 11.6518 60.4533"/>
	<path fill="#2D1B0A" d="M19.5871 74.0976C18.7835 74.0976 18.0803 73.7988 17.4776 73.2013L8.13617 63.9391C6.93081 62.7439 6.93081 60.8517 8.13617 59.7561C9.34152 58.561 11.25 58.561 12.3549 59.7561L21.6964 69.0183C22.2992 69.6159 22.6005 70.3131 22.6005 71.1098C22.6005 71.9065 22.2992 72.6037 21.6964 73.2013C21.1943 73.7988 20.3906 74.0976 19.5871 74.0976M10.2455 60.8517C9.9442 60.8517 9.74331 60.9513 9.54242 61.1504C9.14063 61.5488 9.14063 62.1464 9.54242 62.5448L18.8839 71.807C19.2858 72.2053 19.8885 72.2053 20.2901 71.807C20.6919 71.4086 20.6919 70.811 20.2901 70.4126L10.9487 61.1504C10.7478 60.9513 10.5469 60.8517 10.2455 60.8517"/>
	<path fill="#2D1B0A" d="M40.8817 37.9451L42.8907 37.9451L42.8907 75.5914L40.8817 75.5914L40.8817 37.9451"/>
	<path fill="#ED462F" d="M80.9598 46.2113C80.8594 46.311 80.7589 46.311 80.6585 46.311C80.2567 46.311 79.9554 46.0121 79.9554 45.6138C79.9554 41.8293 76.8415 38.7419 73.0246 38.8414C69.2076 38.8414 66.0938 41.9289 66.0938 45.7134C66.0938 46.1118 65.7924 46.4105 65.3905 46.4105C65.0892 46.4105 64.8884 46.311 64.7879 46.1118C64.6875 46.0121 64.6875 45.9126 64.6875 45.813C64.6875 42.0285 61.5737 38.9411 57.7566 39.0406C55.9487 39.0406 54.1405 39.7378 52.8347 41.0325C51.5289 42.3273 50.8258 44.0203 50.8258 45.9126C50.8258 46.311 50.5245 46.6098 50.1227 46.6098C49.8214 46.6098 49.6205 46.5102 49.5201 46.311C49.4197 46.2113 49.4197 46.1118 49.4197 46.0121C49.4197 42.2276 46.3057 39.1403 42.4879 39.2398C40.6807 39.2398 38.8727 39.937 37.5669 41.2317C36.2612 42.5264 35.558 44.2195 35.558 46.1118C35.558 46.5102 35.2566 46.809 34.8549 46.809C34.5536 46.809 34.3526 46.7094 34.2523 46.5102C34.1517 46.4105 34.1517 46.311 34.1517 46.2113C34.1517 42.4268 31.0379 39.3395 27.221 39.4389C23.4039 39.4389 20.2901 42.5264 20.3905 46.311C20.3905 46.7094 20.0892 47.0082 19.6875 47.0082C19.3862 47.0082 19.1852 46.9086 19.0848 46.7094C18.9844 46.6098 18.9844 46.5102 18.9844 46.4105C18.9844 44.6179 18.2813 42.8251 16.9755 41.5305C15.6697 40.2358 13.9621 39.5386 12.0535 39.5386C10.2455 39.5386 8.43747 40.2358 7.13167 41.5305C5.82586 42.8251 5.12274 44.5182 5.12274 46.4105C5.12274 46.809 4.8214 47.1077 4.41961 47.1077C4.01783 47.1077 3.71465 46.809 3.71465 46.4105C3.71465 36.1525 7.6339 26.4919 14.866 19.122C22.0981 11.8516 31.8414 7.76827 42.1875 7.66685C52.5335 7.66685 62.2767 11.5528 69.7098 18.7235C77.0424 25.8942 81.1607 35.5549 81.2612 45.813C81.2612 45.9126 81.1607 46.1118 80.9598 46.2113"/>
	<path fill="#2D1B0A" d="M4.41958 47.8048C4.0178 47.8048 3.51557 47.6056 3.21423 47.3068C2.91289 47.008 2.7102 46.6097 2.7102 46.1117C2.7102 35.5548 6.72985 25.5954 14.1629 18.1259C21.5959 10.6564 31.5401 6.47347 42.1874 6.3721C52.8348 6.3721 62.779 10.3576 70.4129 17.7275C77.9464 25.0975 82.0647 34.8576 82.2656 45.3149C82.2656 46.2113 81.9642 46.8088 81.462 47.1076C81.1607 47.3068 80.8593 47.3068 80.558 47.3068C79.654 47.3068 78.8504 46.5101 78.8504 45.6137C78.8504 44.0202 78.2477 42.6259 77.1428 41.5304C76.0379 40.4349 74.5312 39.8373 72.924 39.8373C71.3169 39.8373 69.9107 40.4349 68.8057 41.5304C67.7008 42.6259 67.0982 44.1198 67.0982 45.7133C67.0982 46.2113 66.8973 46.6097 66.5959 46.9084C66.2946 47.2072 65.7924 47.4064 65.3906 47.4064C64.7879 47.4064 64.2857 47.1076 63.9843 46.6097C63.7834 46.3109 63.7834 46.0121 63.7834 45.7133C63.7834 44.2194 63.1807 42.7255 62.0758 41.63C60.9709 40.5344 59.4642 39.9369 57.8571 39.9369C56.2499 39.9369 54.8437 40.5344 53.6383 41.7296C52.5334 42.8251 51.9307 44.319 51.9307 45.9125C51.9307 46.8088 51.1272 47.6056 50.2232 47.6056C49.6205 47.6056 49.0178 47.3068 48.7165 46.8088C48.5156 46.5101 48.5156 46.2113 48.5156 45.9125C48.5156 44.4186 47.9129 42.9247 46.808 41.8292C45.7031 40.7336 44.1964 40.1361 42.5892 40.1361C40.9821 40.1361 39.5758 40.7336 38.3705 41.9288C37.2656 43.0243 36.6629 44.5182 36.6629 46.1117C36.6629 46.6097 36.462 47.008 36.1607 47.3068C35.8593 47.6056 35.3571 47.8048 34.9553 47.8048C34.3526 47.8048 33.8504 47.506 33.549 47.008C33.3482 46.7092 33.3482 46.4105 33.3482 46.1117C33.3482 44.6178 32.7455 43.1239 31.6406 42.0284C30.5357 40.9328 29.029 40.3353 27.4218 40.3353C25.8147 40.3353 24.4084 40.9328 23.3035 42.0284C22.1986 43.1239 21.5959 44.6178 21.5959 46.2113C21.5959 47.1076 20.7924 47.9044 19.8883 47.9044C19.2857 47.9044 18.683 47.6056 18.3816 47.1076C18.1807 46.8088 18.1807 46.5101 18.1807 46.2113C18.1807 44.7174 17.5781 43.2235 16.3727 42.1279C15.2678 41.0324 13.7611 40.4349 12.154 40.4349C10.5468 40.4349 9.14057 41.0324 7.93521 42.2275C6.8303 43.3231 6.22762 44.817 6.22762 46.4105C6.22762 46.9084 6.02673 47.3068 5.72539 47.6056C5.3236 47.6056 4.92182 47.8048 4.41958 47.8048M12.0535 38.2438C14.1629 38.2438 16.1718 39.0405 17.5781 40.5344C18.5825 41.5304 19.1852 42.6259 19.587 43.9206C19.9888 42.6259 20.5915 41.5304 21.5959 40.5344C23.1026 39.0405 25.1115 38.2438 27.2209 38.2438C29.3303 38.2438 31.3392 39.0405 32.8459 40.5344C33.8504 41.4308 34.4531 42.6259 34.8549 43.821C35.2566 42.5263 35.8593 41.4308 36.8638 40.4349C38.3705 38.941 40.3794 38.1442 42.4879 38.1442C44.5982 38.1442 46.6071 38.941 48.1138 40.4349C49.1182 41.3312 49.7209 42.5263 50.1227 43.7214C50.5245 42.4267 51.1272 41.3312 52.1316 40.3353C53.6383 38.8414 55.6473 38.0446 57.7566 38.0446C59.866 38.0446 61.8749 38.8414 63.3816 40.3353C64.3861 41.2316 64.9888 42.4267 65.3906 43.6218C65.7924 42.3271 66.395 41.2316 67.3995 40.2357C68.9062 38.7418 70.9151 37.945 73.0245 37.945C75.1339 37.945 77.1428 38.7418 78.6495 40.2357C79.2522 40.8332 79.8549 41.5304 80.1562 42.3271C79.3526 33.6625 75.4352 25.5954 69.1071 19.321C61.9754 12.2499 52.433 8.46534 42.3883 8.56494C32.3437 8.66453 22.8013 12.5487 15.77 19.7194C9.54235 25.9938 5.72539 34.1605 5.02226 42.8251C5.42405 42.0284 5.92628 41.3312 6.52896 40.7336C7.93521 39.0405 9.94414 38.2438 12.0535 38.2438"/>
	<path fill="#ED462F" d="M45.1004 7.56911L39.8772 7.56911L41.2834 2.48984L43.6941 2.48984"/>
	<path fill="#2D1B0A" d="M46.4062 8.56504L38.5714 8.56504L40.5803 1.4939L44.4977 1.4939L46.4062 8.56504M41.183 6.57317L43.6942 6.57317L42.8906 3.48577L41.183 6.57317"/>
</svg>
