<?xml version="1.0" encoding="utf-8" ?>
<svg xmlns="http://www.w3.org/2000/svg" xmlns:xlink="http://www.w3.org/1999/xlink" width="62" height="80">
	<path fill="white" d="M6.76726 79.9002C2.88604 79.9002 0 77.0075 0 73.1172C0 70.7232 1.39326 68.2294 3.58266 67.0324L4.57785 60.5486C4.97592 52.6683 8.75762 45.6858 15.4254 40.4988L17.5152 38.9027L15.3258 37.3067C8.95666 32.818 4.97592 25.6359 4.67737 18.2544L4.47833 12.9676L3.38363 12.4688C1.29374 11.3716 0 9.17706 0 6.78304C0 2.89277 2.88604 0 6.76726 0L54.2376 0C56.7255 0 58.8154 0.698254 60.1091 1.99501C61.2039 3.09227 61.801 4.68828 61.801 6.48379C61.801 8.6783 60.6067 10.7731 58.9149 11.8703L57.8202 17.9551C57.4222 25.1372 53.4414 32.2195 46.8732 37.5062L44.7833 39.202L46.9727 40.6983C57.7207 48.1796 58.0193 61.6459 57.8202 65.6359L57.7207 66.8329L58.8154 67.4314C60.2087 68.2294 61.9005 69.2269 62 73.217C62 74.9127 61.4029 76.6085 60.1091 77.9052C58.8154 79.202 57.0241 80 55.2327 80L6.76726 80"/>
	<path fill="#E6FAFF" d="M7.46382 6.783C7.46382 6.783 7.06575 6.783 7.46382 6.783L7.26479 16.2593L7.26479 17.3566C7.76238 27.5311 14.7287 36.0099 24.2824 38.9027C24.4815 38.9027 24.382 39.0025 24.183 39.0025C14.6292 41.7955 7.56334 50.4738 7.06575 60.6483C7.06575 60.6483 7.06575 61.5461 7.06575 61.7456L7.06575 71.2219C7.06575 71.2219 7.06575 71.4214 7.26479 71.4214L54.536 71.4214C54.536 71.4214 54.7351 71.4214 54.7351 71.2219L54.7351 60.5486C54.2374 50.374 47.2713 41.8952 37.7174 39.0025C37.5183 39.0025 37.5183 38.803 37.7174 38.803C47.2713 36.0099 54.4366 27.4314 54.9342 17.2568L54.9342 6.5835C54.9342 6.5835 54.9342 6.384 54.7351 6.384L7.46382 6.384"/>
	<path fill="#2D1B0A" d="M54.536 72.4189L7.26472 72.4189C6.46857 72.4189 6.0705 71.8204 6.0705 71.2219L6.0705 60.6483C6.56809 50.9725 12.6387 42.5935 21.3963 38.9027C12.6387 35.2119 6.76713 26.8329 6.26954 17.3566L6.26954 16.2593L6.46857 5.3865L54.735 5.3865C55.5312 5.3865 55.9292 5.985 55.9292 6.58351L55.9292 17.2568C55.4317 26.9326 49.361 35.3117 40.4044 38.9027C49.162 42.5935 55.2326 50.9725 55.7302 60.4488L55.7302 71.1222C55.7302 72.0199 55.1331 72.4189 54.536 72.4189M8.06087 70.4239L53.7398 70.4239L53.7398 60.5486C53.2422 51.0723 46.7735 42.793 37.5183 40C37.0207 39.9002 36.6227 39.5012 36.6227 38.9027C36.6227 38.3042 37.0207 37.9052 37.6179 37.8055C46.9726 35.0124 53.5408 26.7331 54.0384 17.1571L54.0384 7.28176L8.45894 7.28176L8.25991 16.1596L8.25991 17.2568C8.7575 26.7331 15.2262 34.9127 24.3819 37.8055C25.2776 39.3017 24.8795 39.8005 24.2824 39.9002C15.0272 42.6932 8.45894 50.9725 7.96135 60.6483L8.06087 70.4239"/>
	<path fill="#FFD071" d="M55.9791 9.0773L6.02084 9.0773C4.2295 9.0773 3.1348 7.58104 3.1348 5.58603C3.1348 3.49127 4.32902 2.09476 6.02084 2.09476L55.9791 2.09476C57.7704 2.09476 58.8651 3.59102 58.8651 5.58603C58.8651 7.58104 57.3724 9.0773 55.9791 9.0773"/>
	<path fill="#2D1B0A" d="M55.9792 10.0748L6.02092 10.0748C3.732 10.0748 2.1397 8.17954 2.1397 5.58603C2.1397 2.99251 3.732 1.09725 6.02092 1.09725L55.9792 1.09725C58.2681 1.09725 59.8604 2.99251 59.8604 5.58603C59.8604 7.98004 58.0691 10.0748 55.9792 10.0748M5.9214 3.09226C4.8267 3.09226 4.03055 4.08977 4.03055 5.58603C4.03055 6.78304 4.62766 8.07979 5.9214 8.07979L55.8797 8.07979C56.7753 8.07979 57.7705 6.98254 57.7705 5.58603C57.7705 4.38902 57.1734 3.09226 55.8797 3.09226L5.9214 3.09226"/>
	<path fill="#7FCCD1" d="M53.2424 61.9452C48.5649 59.8504 40.504 59.1522 31.3483 59.1522C21.5954 59.1522 12.9373 60.0499 8.45902 62.4439C7.96142 62.6434 7.56335 63.1422 7.56335 63.6409L7.56335 71.4215L54.8769 71.4215L54.8769 64.838C55.0336 63.6409 54.536 62.4439 53.2424 61.9452"/>
	<path fill="#2D1B0A" d="M55.6307 72.419L6.4686 72.419L6.4686 63.6409C6.4686 62.7432 7.06571 61.9452 7.96138 61.5462C12.2407 59.2519 20.1026 58.1547 31.3482 58.1547C41.9967 58.1547 49.2615 59.0524 53.6403 61.0474C55.3322 61.6459 56.2278 63.3417 55.7302 65.0374L55.7302 72.419M8.45897 70.424L53.7399 70.424L53.7399 64.6384C54.0384 63.6409 53.7399 63.0424 52.9437 62.8429C48.7639 61.0474 41.6981 60.1497 31.3482 60.1497C20.6002 60.1497 12.8378 61.2469 8.85704 63.3417C8.55849 63.4414 8.45897 63.5412 8.45897 63.6409L8.45897 70.424"/>
	<path fill="#FFD071" d="M55.8298 76.7082L5.67249 76.7082C3.88115 76.7082 2.78645 75.3117 2.78645 73.3167C2.78645 71.3217 3.98067 69.9252 5.67249 69.9252L55.8298 69.9252C57.6212 69.9252 58.7159 71.3217 58.7159 73.3167C58.7159 75.3117 57.223 76.7082 55.8298 76.7082"/>
	<path fill="#2D1B0A" d="M55.8297 77.7057L5.67242 77.7057C3.3835 77.7057 1.7912 75.9102 1.7912 73.3167C1.7912 70.7232 3.3835 68.9277 5.67242 68.9277L55.8297 68.9277C58.1186 68.9277 59.7109 70.7232 59.7109 73.3167C59.7109 75.7107 57.9196 77.7057 55.8297 77.7057M5.67242 71.0224C4.4782 71.0224 3.78157 71.9202 3.78157 73.4165C3.78157 74.5137 4.27916 75.8105 5.67242 75.8105L55.8297 75.8105C56.7254 75.8105 57.7206 74.813 57.7206 73.4165C57.7206 72.3192 57.223 71.0224 55.8297 71.0224L5.67242 71.0224"/>
	<path fill="#7FCCD1" d="M45.9775 31.1222C45.9775 34.414 42.3949 37.0075 37.2199 38.5037C35.329 39.0025 31.5473 46.783 31.5473 46.783C31.5473 46.783 27.9647 39.0025 26.5714 38.7032C20.4013 37.8055 16.2215 34.7132 16.2215 31.1222C16.2215 26.6334 22.7897 23.0424 31.1493 23.0424C39.5088 23.0424 45.9775 26.8329 45.9775 31.1222"/>
	<path fill="#2D1B0A" d="M31.4478 49.1771L30.5522 47.2818C29.0594 43.99 26.9695 40.2993 26.1733 39.7008C19.6051 38.7033 15.1268 35.3117 15.1268 31.1222C15.1268 26.0349 22.0931 22.0449 31.0498 22.0449C39.8074 22.0449 46.8732 26.1347 46.8732 31.1222C46.8732 34.7132 43.39 37.7057 37.4189 39.5013C36.6228 39.8005 34.2343 43.2918 32.3435 47.2818L31.4478 49.1771M31.1493 24.0399C23.4864 24.0399 17.2167 27.2319 17.2167 31.1222C17.2167 34.2145 21.0979 36.9077 26.6709 37.7057C27.8652 37.9052 29.4575 40.1995 31.5473 44.4888C33.0401 41.6958 35.2295 37.9052 36.9213 37.5062C41.8973 36.01 44.9823 33.616 44.9823 31.1222C44.9823 27.7307 39.4093 24.0399 31.1493 24.0399"/>
	<path fill="#00435B" d="M33.0401 56.4588C33.0401 57.6558 32.5425 58.5536 31.8459 58.5536C31.1493 58.5536 30.6517 57.6558 30.6517 56.4588C30.6517 55.2618 31.8459 52.4688 31.8459 52.4688C31.8459 52.4688 33.0401 55.2618 33.0401 56.4588"/>
</svg>
