<?xml version="1.0" encoding="utf-8" ?>
<svg xmlns="http://www.w3.org/2000/svg" xmlns:xlink="http://www.w3.org/1999/xlink" width="112" height="88">
	<path fill="white" d="M105.873 75.6579L104.768 75.6579C104.165 71.7446 100.85 68.8347 96.8323 68.8347C95.3256 68.8347 93.8188 69.236 92.6135 70.0388C79.6556 54.8871 70.0126 36.9259 63.2825 15.252C65.5928 13.8472 67.2 11.3387 67.2 8.32839C67.2 3.61231 63.6843 0 59.1641 0C54.6439 0 51.1283 3.61231 51.1283 8.32839C51.1283 10.8369 52.2332 13.0445 53.9408 14.5496C45.2018 37.0262 33.9516 55.9909 20.2906 71.0422C19.0852 70.3398 17.7794 70.0388 16.4735 70.0388C12.8574 70.0388 9.94439 72.3466 8.83946 75.6579L6.12735 75.6579C2.71211 75.6579 0 78.4675 0 81.8791C0 85.2908 2.71211 88 6.12735 88L105.873 88C109.288 88 112 85.1904 112 81.7788C112 78.3672 109.187 75.6579 105.873 75.6579M62.8807 75.6579L51.53 75.6579C53.8404 70.9418 55.7489 66.1254 57.4565 61.2087C58.8628 66.1254 60.6709 70.9418 62.8807 75.6579"/>
	<path fill="#99CC62" d="M17.2772 79.6717C34.4539 62.9145 48.3158 40.5383 58.5615 13.4459C65.7938 37.9294 77.3454 61.1084 97.8368 81.2771L70.4144 81.2771C63.7848 69.6375 59.4655 56.6933 57.8584 43.3478C55.4476 56.292 50.827 68.8347 44.2978 80.3741L17.2772 79.6717"/>
	<path fill="#2D1B0A" d="M100.248 82.2805L69.8117 82.2805C63.6843 71.5439 59.7668 60.6066 57.6574 49.0673C55.0458 60.2053 50.8269 70.9419 45.2018 80.8757L14.8664 80.5747L16.574 78.8689C33.6503 62.2121 47.4117 40.0365 57.557 13.0445L58.5615 10.2349L59.3651 13.1448C67.6018 41.0399 80.0574 62.4128 98.339 80.4744L100.248 82.2805M71.0171 80.2737L95.426 80.2737C78.3498 62.9145 66.5973 42.545 58.461 16.5564C48.6171 41.7423 35.6592 62.6135 19.6879 78.6682L43.7955 79.2702C50.1238 68.0319 54.5435 55.7902 56.9543 43.1471L58.1597 36.7252L58.9633 43.1471C60.47 56.2919 64.4879 68.7343 71.0171 80.2737"/>
	<path fill="#99CC62" d="M105.873 83.6853L6.12732 83.6853C5.02238 83.6853 4.0179 82.7822 4.0179 81.5781C4.0179 80.374 4.92194 79.3706 6.12732 79.3706L105.873 79.3706C106.978 79.3706 107.982 80.2736 107.982 81.4777C107.982 82.6818 106.978 83.6853 105.873 83.6853"/>
	<path fill="#2D1B0A" d="M105.872 84.6887L6.1274 84.6887C4.41978 84.6887 3.0135 83.2839 3.0135 81.5781C3.0135 79.7719 4.41978 78.3671 6.1274 78.3671L105.872 78.3671C107.58 78.3671 108.986 79.7719 108.986 81.4777C108.986 83.2839 107.58 84.6887 105.872 84.6887M6.02695 80.374C5.42426 80.374 4.92202 80.8757 4.92202 81.4777C4.92202 82.1801 5.42426 82.6818 6.02695 82.6818L105.772 82.6818C106.374 82.6818 106.877 82.1801 106.877 81.5781C106.877 80.8757 106.374 80.374 105.772 80.374L6.02695 80.374"/>
	<path fill="#2D1B0A" d="M74.131 70.3398C69.5103 64.0183 66.0951 56.894 63.9856 49.3683L65.8942 48.8666C68.0036 56.1916 71.3184 63.0148 75.7382 69.236L74.131 70.3398"/>
	<path fill="#2D1B0A" d="M38.6726 68.1323L36.965 67.0285C41.0834 60.9076 45.0009 54.4857 48.5166 47.9635L50.3246 48.9669C46.809 55.4892 42.8915 62.0114 38.6726 68.1323"/>
	<path fill="#ED462F" d="M55.0458 8.1277C55.0458 5.71949 56.7534 3.81299 59.0637 3.81299C61.1731 3.81299 63.0816 5.51882 63.0816 8.1277C63.0816 10.2349 61.374 12.1414 59.0637 12.1414C56.7534 12.1414 55.0458 10.4356 55.0458 8.1277"/>
	<path fill="#2D1B0A" d="M59.0637 13.1448C56.1507 13.1448 54.0413 11.0376 54.0413 8.1277C54.0413 5.11744 56.2512 2.80957 59.0637 2.80957C61.8763 2.80957 64.0861 5.11744 64.0861 8.1277C64.0861 10.8369 61.8763 13.1448 59.0637 13.1448M59.0637 4.81641C57.3561 4.81641 56.0503 6.2212 56.0503 8.1277C56.0503 9.83352 57.3561 11.138 59.0637 11.138C60.7713 11.138 62.0772 9.83352 62.0772 8.1277C62.0772 5.92017 60.5704 4.81641 59.0637 4.81641"/>
	<path fill="#FFE161" d="M92.7139 76.862C92.7139 74.4538 94.4215 72.5473 96.7318 72.5473C98.8412 72.5473 100.75 74.2531 100.75 76.862C100.75 78.9692 99.0421 80.8757 96.7318 80.8757C94.4215 80.8757 92.7139 79.1699 92.7139 76.862"/>
	<path fill="#2D1B0A" d="M96.7318 81.8791C93.8188 81.8791 91.7094 79.7719 91.7094 76.862C91.7094 73.8518 93.9193 71.5439 96.7318 71.5439C99.5444 71.5439 101.754 73.8518 101.754 76.862C101.754 79.5713 99.5444 81.8791 96.7318 81.8791M96.7318 73.5507C95.0242 73.5507 93.7184 74.9555 93.7184 76.862C93.7184 78.5678 95.0242 79.8723 96.7318 79.8723C98.4394 79.8723 99.7453 78.5678 99.7453 76.862C99.7453 74.6545 98.2385 73.5507 96.7318 73.5507"/>
	<path fill="#FFE161" d="M12.3552 78.0661C12.3552 75.6579 14.0628 73.7514 16.3731 73.7514C18.4825 73.7514 20.391 75.4572 20.391 78.0661C20.391 80.1733 18.6834 82.0798 16.3731 82.0798C14.0628 82.0798 12.3552 80.374 12.3552 78.0661"/>
	<path fill="#2D1B0A" d="M16.3731 83.0832C13.4601 83.0832 11.3507 80.9761 11.3507 78.0661C11.3507 75.0559 13.5606 72.748 16.3731 72.748C19.1857 72.748 21.3955 75.0559 21.3955 78.0661C21.3955 80.8757 19.1857 83.0832 16.3731 83.0832M16.3731 74.7548C14.6655 74.7548 13.3597 76.1596 13.3597 78.0661C13.3597 79.7719 14.6655 81.0764 16.3731 81.0764C18.0807 81.0764 19.3866 79.7719 19.3866 78.0661C19.3866 75.959 17.8799 74.7548 16.3731 74.7548"/>
</svg>
