<?xml version="1.0" encoding="utf-8" ?>
<svg xmlns="http://www.w3.org/2000/svg" xmlns:xlink="http://www.w3.org/1999/xlink" width="94" height="104">
	<path fill="white" d="M19.841 104C15.2856 101.058 6.57991 85.4322 6.57991 79.6488L6.57991 52.2537C6.57991 48.601 9.51556 45.6585 13.1598 45.6585L19.7397 45.6585L41.0991 20.5971L1.61967 31.8595L0 25.9746L90.7015 0L92.3212 5.88488L55.6761 16.3356L78.4527 45.5571L87.2597 45.5571C90.904 45.5571 93.8396 48.4995 93.8396 52.1522C94 58.7473 94.1433 74.0683 93.8396 80.562C93.5359 86.6498 87.7658 100.449 84.4253 103.087L19.841 103.696M27.6356 45.76L70.5569 45.76L50.0073 19.3795L27.6356 45.76"/>
	<path fill="#2675AA" d="M90.3809 80.6127C90.7858 72.8 90.3809 52.5074 90.3809 52.3045C90.3809 50.2752 88.7616 48.7533 86.8386 48.7533L12.8538 48.7533C10.9308 48.7533 9.3114 50.3767 9.3114 52.3045L9.3114 79.6996C9.3114 84.2654 17.5094 99.0791 20.4445 100.905L82.1829 100.905C84.5107 98.9776 90.1785 86.0918 90.3809 80.6127"/>
	<path fill="#2D1B0A" d="M82.5021 101.971L20.1433 101.971C16.7014 99.7385 8.4004 84.6205 8.4004 79.6488L8.4004 52.2537C8.4004 49.7171 10.425 47.6878 12.9558 47.6878L86.9563 47.6878C89.4871 47.6878 91.5117 49.7171 91.5117 52.2537C91.6721 58.9502 91.8154 74.1698 91.5117 80.6634C91.208 86.4468 85.539 99.6371 82.907 101.666M20.7507 99.9415L81.7934 99.9415C84.0205 97.7093 89.1834 85.838 89.3858 80.6634C89.6895 74.1698 89.4871 58.9502 89.3858 52.761C89.3858 50.9346 88.2723 49.8185 86.855 49.8185L12.8546 49.8185C11.4374 49.8185 10.3238 50.9346 10.3238 52.3551L10.3238 79.7502C10.425 83.7073 17.9162 97.6078 20.7507 99.9415"/>
	<path fill="#E6FEFF" d="M32.3874 70.1113L23.9869 70.1113C22.7724 70.1113 21.7603 69.0966 21.7603 67.8791L21.7603 59.4576C21.7603 58.24 22.7724 57.2254 23.9869 57.2254L32.3874 57.2254C33.6019 57.2254 34.6139 58.24 34.6139 59.4576L34.6139 67.8791C34.6139 69.0966 33.6019 70.1113 32.3874 70.1113"/>
	<path fill="#2D1B0A" d="M32.3874 71.1259L23.9869 71.1259C22.1651 71.1259 20.7481 69.7054 20.7481 67.8791L20.7481 59.4576C20.7481 57.6312 22.1651 56.2108 23.9869 56.2108L32.3874 56.2108C34.2092 56.2108 35.626 57.6312 35.626 59.4576L35.626 67.8791C35.626 69.604 34.1079 71.1259 32.3874 71.1259M23.9869 58.24C23.3796 58.24 22.7724 58.7473 22.7724 59.4576L22.7724 67.8791C22.7724 68.4879 23.2784 69.0966 23.9869 69.0966L32.3874 69.0966C32.9947 69.0966 33.6018 68.5892 33.6018 67.8791L33.6018 59.4576C33.6018 58.8488 33.0958 58.24 32.3874 58.24L23.9869 58.24"/>
	<path fill="#E6FEFF" d="M53.7428 70.1113L45.3423 70.1113C44.1278 70.1113 43.1157 69.0966 43.1157 67.8791L43.1157 59.4576C43.1157 58.24 44.1278 57.2254 45.3423 57.2254L53.7428 57.2254C54.9573 57.2254 55.9694 58.24 55.9694 59.4576L55.9694 67.8791C55.9694 69.0966 54.9573 70.1113 53.7428 70.1113"/>
	<path fill="#2D1B0A" d="M53.7428 71.1259L45.3423 71.1259C43.5205 71.1259 42.1036 69.7054 42.1036 67.8791L42.1036 59.4576C42.1036 57.6312 43.5205 56.2108 45.3423 56.2108L53.7428 56.2108C55.5646 56.2108 56.9815 57.6312 56.9815 59.4576L56.9815 67.8791C56.9815 69.604 55.5646 71.1259 53.7428 71.1259M45.3423 58.24C44.7351 58.24 44.1278 58.7473 44.1278 59.4576L44.1278 67.8791C44.1278 68.4879 44.6339 69.0966 45.3423 69.0966L53.7428 69.0966C54.3501 69.0966 54.9573 68.5892 54.9573 67.8791L54.9573 59.4576C54.9573 58.8488 54.4513 58.24 53.7428 58.24L45.3423 58.24"/>
	<path fill="#E6FEFF" d="M75.0981 70.1113L66.6976 70.1113C65.4831 70.1113 64.471 69.0966 64.471 67.8791L64.471 59.4576C64.471 58.24 65.4831 57.2254 66.6976 57.2254L75.0981 57.2254C76.3126 57.2254 77.3247 58.24 77.3247 59.4576L77.3247 67.8791C77.3247 69.0966 76.3126 70.1113 75.0981 70.1113"/>
	<path fill="#2D1B0A" d="M75.0981 71.1259L66.6976 71.1259C64.8758 71.1259 63.4589 69.7054 63.4589 67.8791L63.4589 59.4576C63.4589 57.6312 64.8758 56.2108 66.6976 56.2108L75.0981 56.2108C76.9199 56.2108 78.3368 57.6312 78.3368 59.4576L78.3368 67.8791C78.3368 69.604 76.9199 71.1259 75.0981 71.1259M66.6976 58.24C66.0904 58.24 65.4831 58.7473 65.4831 59.4576L65.4831 67.8791C65.4831 68.4879 65.9892 69.0966 66.6976 69.0966L75.0981 69.0966C75.7054 69.0966 76.3126 68.5892 76.3126 67.8791L76.3126 59.4576C76.3126 58.8488 75.8066 58.24 75.0981 58.24L66.6976 58.24"/>
	<path fill="#2D1B0A" d="M23.3797 78.9386L75.3006 78.9386L75.3006 80.9678L23.3797 80.9678L23.3797 78.9386"/>
	<path fill="#3BA7FF" d="M89.1868 3.6526L2.44955 28.5111"/>
	<path fill="#2D1B0A" d="M2.138 27.4738L88.9419 2.5939L89.4984 4.54504L2.69446 29.425L2.138 27.4738"/>
	<path fill="#2D1B0A" d="M21.3554 49.6156L19.8372 48.398L49.9979 12.8858L77.5271 48.398L76.009 49.6156L49.8968 16.1326"/>
</svg>
