<?xml version="1.0" encoding="utf-8" ?>
<svg xmlns="http://www.w3.org/2000/svg" xmlns:xlink="http://www.w3.org/1999/xlink" width="118" height="100">
	<path fill="white" d="M101.727 100C101.128 100 52.8086 100 52.8086 100C50.2129 100 48.0166 97.7114 48.0166 95.1244C48.0166 92.5373 50.2129 90.3483 52.8086 90.3483L64.0898 90.3483L64.0898 85.7711C57.9001 85.5721 38.9317 83.4826 31.4442 66.7662C31.3443 66.5672 31.1447 65.8706 31.1447 65.8706C30.346 63.0846 29.9467 62.2886 29.2478 61.99C26.752 60.995 11.1779 55.3234 11.1779 55.3234C8.18291 54.2289 5.88674 51.7413 5.08807 48.5572L0.296051 27.4627C0 26.6667 -0.80212 21.791 1.99322 19.602C3.6904 18.209 5.68707 17.9104 7.28441 17.8109L13.9733 18.01C16.3693 19.204 17.6671 21.194 18.4658 22.3881L24.8551 32.0398L42.2262 32.0398C43.524 30.2488 44.9217 28.4577 45.9201 27.1642C47.7171 24.7761 50.6122 23.2836 53.6073 23.0846L53.6073 12.9353C20.6621 12.5373 20.6621 8.75622 20.6621 6.46766C20.6621 2.98507 24.7553 1.89055 33.4408 0.995025C40.0299 0.298507 48.8152 0 58.1996 0C67.4841 0 76.2695 0.39801 82.9584 0.995025C91.6439 1.89055 95.7371 2.88557 95.7371 6.46766C95.7371 8.75622 95.7371 12.5373 63.1913 12.9353L63.1913 23.1841C65.8868 23.4826 68.3826 24.7761 70.0798 26.8657L74.173 31.9403C74.173 31.9403 74.173 31.9403 74.2728 31.9403C77.9667 31.9403 90.8452 32.6368 103.424 41.8905C103.424 41.8905 110.413 46.9652 112.709 50.1493C114.905 53.1343 117.401 56.2189 118 62.1891C118 62.1891 118 66.0697 117.8 66.8657C117.301 72.2388 114.506 77.0149 109.614 80.796C105.321 83.8806 100.928 85.2736 95.2379 85.5721L95.2379 90.1493C95.2379 90.1493 101.527 90.2488 101.627 90.2488C102.825 90.2488 106.12 89.7512 109.015 85.2736C109.913 83.8806 111.411 83.0846 113.008 83.0846C113.907 83.0846 114.805 83.3831 115.604 83.8806C116.702 84.5771 117.401 85.6716 117.7 86.8657C118 88.1592 117.7 89.3532 117.002 90.4478C111.71 99.1045 104.522 100 101.727 100M85.7537 90.3483L85.7537 85.8706L73.574 85.8706L73.574 90.3483L85.7537 90.3483"/>
	<path fill="#99CC62" d="M114.108 86.2688C113.309 85.7713 112.112 85.9703 111.613 86.7663C106.922 93.9305 101.234 93.035 100.934 93.035C100.835 93.035 100.735 93.035 100.635 93.035L92.3516 93.035L92.3516 82.5872C99.3376 82.5872 103.629 81.3932 107.621 78.6071C112.012 75.3235 114.407 71.2439 114.906 66.6668C114.906 65.9703 114.906 65.2738 114.906 64.5772C114.906 64.2787 114.906 63.9802 114.906 63.7812C114.906 63.2837 114.707 62.9852 114.707 62.6867C114.108 58.6071 112.212 55.025 110.116 52.3384C110.116 52.2389 110.016 52.2389 110.016 52.1394C109.916 51.9404 109.816 51.8409 109.617 51.6419C109.417 51.4429 109.218 51.2439 109.118 51.0449C108.619 50.5474 108.12 50.0499 107.621 49.5524C106.922 48.8559 106.124 48.0598 105.325 47.4628C105.126 47.2638 104.926 47.0648 104.627 46.8658C104.327 46.5673 104.028 46.3683 103.729 46.0698C103.529 45.8708 103.329 45.7713 103.13 45.5723C102.731 45.2738 102.232 44.8758 101.833 44.5772C101.733 44.5772 101.733 44.4777 101.633 44.4777C88.1601 34.627 74.4876 35.025 73.29 35.1245L67.7012 28.8559C66.304 27.1643 64.308 26.1693 62.1125 26.1693L60.2163 26.1693L60.2163 8.55734C60.2163 7.56232 59.4179 6.7663 58.4199 6.7663C57.4219 6.7663 56.6235 7.56232 56.6235 8.55734L56.6235 26.1693L54.1285 26.1693C51.8331 26.1693 49.7373 27.2638 48.3402 29.0549C47.1426 30.6469 45.3462 33.035 43.7494 35.1245L24.8873 35.1245C23.8893 35.1245 22.8914 34.627 22.2926 33.7315L16.0052 24.1792C15.3066 23.1842 14.3086 21.5922 13.2108 20.9952L7.42247 20.7962C6.02528 20.8957 4.72789 21.0947 3.7299 21.8907C2.73191 22.6867 2.9251 25.5723 3.13111 26.7663L7.92147 47.7613C8.52027 49.9504 10.0173 51.6419 12.113 52.4379C15.7058 53.7315 27.5819 58.1096 30.1767 59.2041C32.2725 60.0001 32.9711 61.9902 33.8693 64.9753C33.9691 65.3733 34.0689 65.4728 34.0689 65.4728C41.454 82.0897 61.9129 82.7862 65.2062 82.7862C65.4058 82.7862 65.6054 82.7862 65.6054 82.7862L66.9028 82.7862L66.9028 93.234L52.6315 93.234C51.6335 93.234 50.8351 94.03 50.8351 95.025C50.8351 96.02 51.6335 96.8161 52.6315 96.8161L100.336 96.8161C100.535 96.8161 101.034 96.9156 101.533 96.9156C104.128 96.9156 109.916 96.02 114.407 88.9554C115.206 87.9603 114.906 86.8658 114.108 86.2688M48.2404 34.9255C49.3382 33.5325 50.3361 32.1394 51.2343 31.0449C51.9329 30.1494 53.0307 29.6519 54.1285 29.6519L62.2123 29.6519C63.31 29.6519 64.308 30.1494 65.0066 30.9454L68.2002 34.9255L48.2404 34.9255M88.7589 93.035L70.5954 93.035L70.5954 82.5872L88.7589 82.5872L88.7589 93.035"/>
	<path fill="#2D1B0A" d="M101.774 97.7115C101.175 97.7115 100.776 97.7115 100.477 97.612L52.8637 97.612C51.3665 97.612 50.0688 96.3185 50.0688 94.8259C50.0688 93.3334 51.3665 92.0399 52.8637 92.0399L66.1394 92.0399L66.1394 83.5822C65.8399 83.5822 65.7401 83.5822 65.4407 83.5822C61.448 83.5822 40.9855 82.6866 33.3994 65.6717C33.2996 65.5722 33.2996 65.4727 33.2996 65.2737C32.4012 61.9901 31.8023 60.3981 30.1054 59.8011C27.61 58.806 16.73 54.8259 12.6375 53.3334C9.64295 52.2389 7.84624 50.2488 7.14752 47.7613L2.3563 26.7662C2.1118 25.6717 1.7574 22.0896 3.25465 20.8956C4.55228 19.9006 6.04953 19.7016 7.44697 19.6021L13.5358 19.8011C15.0331 20.5971 16.1311 22.1891 16.9296 23.3831L23.3179 33.0349C23.7171 33.6319 24.3161 33.9304 25.0148 33.9304L43.3811 33.9304C44.8784 31.9404 46.5753 29.7513 47.6732 28.2588C49.1705 26.2687 51.6659 24.9752 54.2612 24.9752L55.7584 24.9752L55.7584 8.35827C55.7584 6.86573 57.056 5.5722 58.5533 5.5722C60.0506 5.5722 61.3482 6.86573 61.3482 8.35827L61.3482 24.9752C64.742 24.9752 67.0377 26.0697 68.6348 28.0598L73.426 33.9304C74.9233 33.8309 88.698 33.4329 102.373 43.4826C102.473 43.5822 102.473 43.5822 102.573 43.5822C103.072 43.8807 103.471 44.2787 103.97 44.5772C104.07 44.6767 104.17 44.7762 104.27 44.8757C104.769 45.3732 105.068 45.5722 105.468 45.8707C105.667 45.9702 105.767 46.1692 105.967 46.2687C106.965 47.1642 107.763 47.8608 108.462 48.6568C108.961 49.1543 109.46 49.6518 109.959 50.2488C110.159 50.4478 110.359 50.6468 110.558 50.9453C110.658 51.1443 110.858 51.2438 110.957 51.4428C110.957 51.4428 110.957 51.5423 111.057 51.5423C112.555 53.4329 115.15 57.3135 115.848 62.2886C115.948 62.6866 115.948 62.9851 115.948 63.2836C115.948 63.7812 115.948 64.0797 116.126 64.3782C116.126 65.1742 116.126 65.9702 115.948 66.5672C115.449 71.4428 112.954 75.7215 108.462 79.204C104.17 82.1891 99.6779 83.4826 93.4893 83.4826L93.4893 91.9404L100.776 91.9404C100.976 91.9404 101.075 91.9404 101.275 91.9404C101.475 91.9404 106.665 92.7364 110.957 86.1692C111.357 85.5722 111.956 85.0747 112.754 84.9752C113.453 84.7762 114.251 84.9752 114.85 85.3732C115.449 85.7712 115.948 86.3682 116.126 87.1642C116.248 87.8608 116.126 88.6568 115.649 89.2538C110.558 96.9155 104.27 97.7115 101.774 97.7115M52.7639 94.0299C52.3646 94.0299 51.9654 94.4279 51.9654 94.8259C51.9654 95.2239 52.3646 95.622 52.7639 95.622L100.576 95.622C100.776 95.622 101.175 95.7215 101.674 95.7215C104.37 95.7215 109.56 94.7264 113.752 88.2588C113.852 88.0598 113.952 87.8608 113.852 87.6618C113.852 87.4627 113.653 87.2637 113.553 87.1642C113.353 87.0647 113.153 86.9652 112.954 87.0647C112.754 87.0647 112.555 87.2637 112.455 87.3632C107.564 94.9254 101.475 94.1294 100.776 94.0299C100.676 94.0299 100.676 94.0299 100.576 94.0299L91.2933 94.0299L91.2933 81.5921L93.1898 81.5921C99.079 81.5921 103.172 80.4976 106.965 77.811C111.057 74.6269 113.353 70.8458 113.752 66.5672C113.852 65.9702 113.852 65.2737 113.852 64.6767C113.852 64.3782 113.852 64.0797 113.752 63.8807C113.752 63.3831 113.653 63.1841 113.653 62.8856C112.954 58.3085 110.558 54.7264 109.261 53.0349C108.961 52.7364 108.861 52.6369 108.761 52.4379C108.562 52.2389 108.362 52.0399 108.262 51.8409C107.863 51.3433 107.364 50.8458 106.865 50.3483C106.166 49.6518 105.368 48.9553 104.669 48.2588C104.37 47.9603 104.17 47.7613 104.07 47.6618C103.771 47.3632 103.471 47.1642 103.172 46.8657C102.772 46.5672 102.673 46.4677 102.573 46.4677C102.174 46.1692 101.674 45.7712 101.275 45.4727C101.175 45.3732 101.075 45.3732 101.075 45.2737C88.0991 35.7215 74.9233 36.02 73.426 36.1195L72.3281 36.1195L66.9379 29.5523C65.7401 28.0598 63.9434 27.2637 62.1467 27.2637L59.252 27.2637L59.252 8.65678C59.252 8.25877 58.8527 7.86076 58.4535 7.86076C58.0542 7.86076 57.6549 8.25877 57.6549 8.65678L57.6549 27.2637L54.1613 27.2637C52.2648 27.2637 50.3683 28.1593 49.1705 29.7513C47.9727 31.3433 46.176 33.7314 44.5789 35.821L24.915 36.219C23.5175 36.219 22.3197 35.5224 21.5212 34.4279L15.2327 24.8757C14.6338 23.9802 13.7354 22.6866 12.9369 22.0896L7.44697 21.8906C6.04953 21.9901 5.15118 22.1891 4.45246 22.7861C3.95337 23.1841 3.85356 25.3732 4.15301 26.6667L8.94423 47.6618C9.44331 49.4528 10.7409 50.9453 12.5376 51.6419C17.229 53.3334 28.2089 57.413 30.6045 58.3085C33.1 59.3035 33.8985 61.4926 34.8967 64.7762C34.9965 65.0747 34.9965 65.1742 34.9965 65.1742C42.0835 81.0946 61.448 81.8906 65.241 81.8906C65.4407 81.8906 65.5405 81.8906 65.5405 81.8906L67.9361 81.8906L67.9361 94.3284L52.7639 94.3284M89.796 94.0299L69.633 94.0299L69.633 81.5921L89.796 81.5921L89.796 94.0299M71.6293 92.0399L87.7997 92.0399L87.7997 83.5822L71.6293 83.5822L71.6293 92.0399M70.3317 35.9205L46.2758 35.9205L48.372 33.1344C49.1705 32.1394 49.8692 31.2438 50.4681 30.4478C51.3665 29.3533 52.6641 28.6568 54.1613 28.6568L62.2465 28.6568C63.644 28.6568 64.9416 29.2538 65.8399 30.3483L70.3317 35.9205M50.2685 33.9304L66.1394 33.9304L64.2429 31.5423C63.7438 30.9453 63.0451 30.5473 62.2465 30.5473L54.1613 30.5473C53.3628 30.5473 52.5643 30.9453 52.0652 31.5423C51.5661 32.2389 50.9672 33.0349 50.2685 33.9304"/>
	<path fill="#AEE8FF" d="M73.3897 38.4081C73.3897 38.4081 73.4895 38.4081 73.4895 38.4081C73.4895 38.4081 73.6891 38.4081 73.9885 38.4081C74.7869 38.4081 76.683 38.4081 79.178 38.9056C85.7647 39.9006 96.8425 42.9852 106.323 53.3335C106.523 53.5325 106.723 53.831 106.922 54.1295C107.022 54.229 107.022 54.229 107.122 54.3284C107.321 54.627 107.521 54.826 107.721 55.1245C107.82 55.224 107.82 55.3234 107.92 55.3234C108.12 55.5225 108.22 55.821 108.319 56.02C108.419 56.1194 108.519 56.3185 108.519 56.4181C108.818 56.8161 109.018 57.3136 109.218 57.7115C109.317 57.9106 109.417 58.1096 109.517 58.3085C109.617 58.5076 109.717 58.607 109.717 58.8061C109.816 59.1046 110.016 59.5025 110.116 59.801C110.315 60.4977 110.415 60.7962 110.515 60.9951C110.515 61.0947 110.615 61.1942 110.615 61.3932C110.715 61.7912 110.814 62.1891 110.914 62.5872C110.914 62.5872 110.914 62.6867 110.914 62.6867L94.3475 62.6867C89.5571 62.6867 83.9684 62.4876 78.2798 60.1991C67.7011 55.9204 65.9047 44.5772 65.7051 38.4081L73.3897 38.4081"/>
	<path fill="#2D1B0A" d="M112.311 63.7812L94.5472 63.7812C89.657 63.7812 83.9685 63.5822 78.0803 61.1941C67.1024 56.7165 65.1064 45.0747 64.9068 38.5075L73.3897 37.5125C73.5893 37.5125 73.7889 37.5125 74.1881 37.5125C75.0863 37.5125 76.9825 37.612 79.3777 37.9105C85.4654 38.806 97.2418 41.8906 107.122 52.6369C107.322 52.9354 107.521 53.1344 107.82 53.4329C107.92 53.5324 108.02 53.6319 108.02 53.7314C108.22 53.9304 108.419 54.2289 108.619 54.5274C108.619 54.6269 108.719 54.7264 108.818 54.8259C109.018 55.0249 109.118 55.3234 109.318 55.5225C109.816 56.418 110.016 56.816 110.315 57.3135C110.415 57.5125 110.515 57.7115 110.615 57.9105C110.715 58.1095 110.814 58.209 110.814 58.408C110.914 58.7065 111.114 59.1045 111.214 59.403C111.513 60.0996 111.613 60.3981 111.713 60.6966C111.713 60.7961 111.812 60.9951 111.812 61.0946C111.912 61.4926 112.012 61.8906 112.112 62.3881L112.311 63.7812M67.0026 39.5026C67.4018 45.6717 69.4976 55.5225 78.8787 59.403C84.4675 61.5921 89.8566 61.7911 94.5472 61.7911L109.816 61.7911C109.816 61.7911 109.816 61.7911 109.816 61.6916C109.816 61.5921 109.717 61.4926 109.717 61.3931C109.617 61.0946 109.517 60.8956 109.417 60.5971C109.218 59.9006 109.118 59.6021 108.918 59.3035C108.818 59.1045 108.818 59.005 108.719 58.806C108.619 58.607 108.519 58.408 108.419 58.209C108.22 57.811 108.02 57.3135 107.721 56.9155C107.421 56.3185 107.222 56.02 107.122 55.821C107.022 55.7215 107.022 55.7215 107.022 55.622C106.822 55.3234 106.623 55.0249 106.423 54.8259C106.324 54.7264 106.324 54.7264 106.224 54.6269C106.024 54.3284 105.825 54.1294 105.625 53.9304C96.144 43.5821 84.9664 40.6966 79.0783 39.8011C76.6831 39.5026 74.8867 39.403 74.0883 39.403C73.8887 39.403 73.6891 39.403 73.6891 39.403C73.5893 39.403 73.5893 39.403 73.4895 39.403L67.0026 39.403"/>
	<path fill="#FFE161" d="M23.6898 6.46766C23.6898 8.3582 39.1587 9.95024 58.2203 9.95024C77.282 9.95024 92.7509 8.3582 92.7509 6.46766C92.7509 4.57712 77.282 2.98507 58.2203 2.98507C39.1587 2.98507 23.6898 4.47761 23.6898 6.46766"/>
	<path fill="#2D1B0A" d="M58.2204 10.9453C48.9391 10.9453 40.2566 10.5473 33.6698 9.95025C23.4903 8.95522 22.6919 7.66169 22.6919 6.46766C22.6919 5.27363 23.5901 4.0796 33.6698 2.98507C40.2566 2.28856 48.9391 1.99005 58.2204 1.99005C67.5018 1.99005 76.1843 2.38806 82.771 2.98507C92.9506 3.9801 93.749 5.27363 93.749 6.46766C93.749 7.66169 92.8508 8.85572 82.771 9.95025C76.1843 10.5473 67.5018 10.9453 58.2204 10.9453M25.2867 6.46766C28.2807 7.56219 40.1568 8.95522 58.3202 8.95522C76.4837 8.95522 88.3598 7.56219 91.3538 6.46766C88.3598 5.37313 76.4837 3.9801 58.3202 3.9801C40.1568 3.9801 28.1809 5.27363 25.2867 6.46766"/>
</svg>
