<?xml version="1.0" encoding="utf-8" ?>
<svg xmlns="http://www.w3.org/2000/svg" xmlns:xlink="http://www.w3.org/1999/xlink" width="96" height="96">
	<path fill="white" d="M47.8994 96C46.2893 96 43.1698 95.6978 42.0629 95.5971L39.6478 95.1941C16.7044 91.1647 0 71.32 0 48C0 26.0902 14.6918 7.05142 35.8239 1.51102C39.7484 0.503673 43.8742 0 48 0C50.2138 0 52.4277 0.201469 54.7421 0.503673C66.1132 2.11542 76.478 7.75656 84.1258 16.4197C91.7736 25.1836 96 36.3652 96 48C95.8994 74.5435 74.3648 96 47.8994 96"/>
	<path fill="#9AD4ED" d="M92.7297 47.7129C92.7297 72.5942 72.6039 92.6404 47.7484 92.6404C45.9371 92.6404 44.0252 92.5397 42.2138 92.3382L40 92.036C18.8679 88.3088 2.76735 69.8745 2.76735 47.7129C2.76735 26.8608 17.0567 9.23226 36.2767 4.19553C39.8994 3.28892 43.7234 2.78525 47.6479 2.78525C49.761 2.78525 51.8742 2.98672 53.8868 3.18819C75.9246 6.21022 92.7297 24.9468 92.7297 47.7129"/>
	<path fill="#2D1B0A" d="M47.7484 93.6831C45.8868 93.6831 43.9748 93.5824 42.1635 93.3809L39.849 93.0787C17.8113 89.2511 1.8113 70.2135 1.8113 47.7129C1.8113 26.7997 15.8994 8.56789 36.1258 3.2293C41.8616 1.7426 47.8994 1.31547 54.1383 2.22202C76.6792 5.34459 93.6855 24.9866 93.6855 47.7129C93.6855 73.0339 73.1572 93.6831 47.7484 93.6831M47.7484 3.73294C43.9748 3.73294 40.2516 4.23658 36.6289 5.14313C17.3082 10.1795 3.82388 27.7062 3.82388 47.7129C3.82388 69.1055 19.1195 87.3372 40.1509 90.9634L42.3648 91.2656C44.0755 91.4671 45.8868 91.5678 47.7484 91.5678C71.9497 91.5678 91.6729 71.8251 91.6729 47.7129C91.6729 25.8931 75.4717 7.15769 53.8365 4.13585C51.8239 3.83367 49.8113 3.73294 47.7484 3.73294"/>
	<path fill="#99CC62" d="M82.9183 20.6505C82.717 20.852 82.5157 20.9528 82.5157 20.9528L81.5095 21.6579C78.1888 23.9748 73.8616 24.277 70.2391 22.4638C64.9057 19.7439 58.4655 22.4638 56.5535 28.1049C54.6416 33.8467 58.3648 39.8908 64.3019 40.7974C68.0253 41.4018 71.0441 44.1217 72.151 47.7481C72.9561 50.4679 73.3586 53.3893 73.3586 56.2098C73.3586 62.5562 78.4906 67.6936 84.8303 67.6936L87.0441 67.6936C90.868 62.0525 92.5807 55.3032 92.5807 48.2518C92.6794 37.8761 89.0567 28.3064 82.9183 20.6505"/>
	<path fill="#2D1B0A" d="M88.5553 69.4061L87.0464 68.8017L84.934 68.8017C77.9931 68.8017 72.4605 63.1606 72.4605 56.3106C72.4605 53.4901 72.0581 50.7702 71.354 48.1511C70.4486 44.9276 67.632 42.4093 64.3125 41.9056C61.1941 41.4019 58.4781 39.5887 56.7681 36.8689C55.2137 34.149 54.7562 30.8248 55.7621 27.9035C56.7681 24.8815 58.9811 22.5646 61.8983 21.3558C64.8155 20.1469 68.0344 20.2477 70.851 21.7587C74.1706 23.3704 77.9931 23.169 81.0109 21.0535L82.0168 20.3484C82.0168 20.3484 82.218 20.2477 82.4192 20.0462L83.8275 20.2477C90.2654 28.4072 93.6855 38.1784 93.6855 48.5541C93.6855 55.6055 92.076 62.4554 88.9577 68.701M65.922 22.4638C64.8155 22.4638 63.7089 22.6653 62.6024 23.169C60.2888 24.1763 58.3775 26.0903 57.5728 28.5079C56.7681 30.9255 57.0698 33.6454 58.3775 35.8615C59.6852 38.0777 61.8983 39.5887 64.5137 39.9916C68.638 40.596 71.9575 43.6181 73.1646 47.6475C73.9694 50.468 74.3717 53.3893 74.3717 56.4114C74.3717 62.254 79.0996 66.8878 84.8334 66.8878L87.2476 66.8878C90.1648 61.1459 91.5731 55.0011 91.5731 48.5541C91.5731 38.8836 88.5553 29.8175 82.7209 22.2624C78.496 25.1837 73.7682 25.5866 69.8451 23.5719C68.638 22.766 67.3303 22.4638 65.922 22.4638"/>
	<path fill="#99CC62" d="M6.1382 32.8393L6.8426 35.7606C7.54701 39.0848 10.5659 41.5025 13.9873 41.5025L29.0816 46.6399L25.8615 37.876C25.3583 36.5665 25.1571 35.2569 25.1571 33.9474C25.1571 29.6158 27.5722 25.6871 31.3961 23.7732L33.2074 22.8666C41.0564 18.8372 46.6917 11.685 48.8049 3.122C48.2011 3.122 47.4967 3.122 46.8929 3.122C27.7734 3.122 11.6728 15.6137 6.1382 32.8393"/>
	<path fill="#2D1B0A" d="M30.7923 48.2517L13.786 42.5099C9.96209 42.4091 6.64133 39.79 5.8363 36.0629L5.1319 32.8394C11.069 14.3042 27.7734 2.0146 46.8929 2.0146C47.4967 2.0146 48.2011 2.0146 48.8049 2.0146L50.0124 2.11533L49.7105 3.32415C47.5973 12.1888 41.7608 19.6431 33.6099 23.7733L31.7986 24.6799C28.2766 26.4931 26.1633 30.0188 26.1633 33.9474C26.1633 35.1563 26.3646 36.3651 26.7671 37.5739L30.7923 48.2517M7.24511 32.9401L7.84888 35.6599C8.45265 38.5812 11.069 40.5959 13.9872 40.5959L27.4715 45.129L24.9558 38.3798C24.4527 36.9695 24.1508 35.5592 24.1508 34.0482C24.1508 29.4144 26.7671 25.0828 30.8929 22.9674L32.7042 22.0608C39.9495 18.4343 45.1822 11.8866 47.3961 4.13002C47.1948 4.13002 46.9935 4.13002 46.7923 4.13002C28.6791 4.02929 12.7797 15.6138 7.24511 32.9401"/>
	<path fill="#99CC62" d="M27.8742 57.4186C25.2578 60.8436 25.8616 65.6788 29.283 68.3987L33.8113 72.1259L33.8113 78.1698L36.1257 84.7177L36.1257 88.2433C36.1257 88.8477 36.8302 89.1499 37.2327 88.7471L44.0755 82.0985C45.9874 80.2854 47.195 77.8677 47.0943 75.2486C46.9937 74.0397 48 72.9316 49.3082 72.9316C50.5157 72.9316 51.5219 71.9243 51.5219 70.7155L51.5219 63.2612C51.5219 62.4553 51.0189 61.6494 50.2138 61.2465L42.0629 57.5193L38.7421 55.4039C35.1194 53.1877 30.3899 54.1908 27.8742 57.4186"/>
	<path fill="#2D1B0A" d="M36.6289 89.9559C36.4277 89.9559 36.2264 89.9559 36.0252 89.8552C35.4214 89.553 35.0189 88.9485 35.0189 88.3441L35.0189 85.0199L32.7044 78.4722L32.7044 72.7303L28.5786 69.3053C24.8553 66.2833 24.1509 60.8436 27.0692 56.915C29.8868 53.0871 35.2201 52.1804 39.2453 54.6988L42.4654 56.8142L50.5157 60.5414C51.6226 61.0451 52.327 62.1532 52.327 63.4627L52.327 70.9171C52.327 72.6296 50.9182 74.1406 49.1069 74.1406C48.805 74.1406 48.5031 74.2413 48.3019 74.5435C48.1006 74.745 48 75.0472 48 75.4501C48.1006 78.1699 46.8931 80.8898 44.6792 83.1059L37.8365 89.7544C37.5346 89.7544 37.1321 89.9559 36.6289 89.9559M34.717 78.0692L37.0315 84.617L37.0315 87.4375L43.2704 81.3935C45.0818 79.5802 46.0881 77.3641 45.9874 75.3494C45.9874 74.4428 46.2893 73.6369 46.8931 73.0325C47.4969 72.4281 48.3019 72.0251 49.2076 72.0251C49.8113 72.0251 50.4151 71.5215 50.4151 70.8163L50.4151 63.362C50.4151 62.959 50.1132 62.4554 49.7107 62.3546L41.4591 58.5267L38.1384 56.4113C35.0189 54.3966 30.8931 55.2025 28.6792 58.1238C26.4654 61.1458 26.9686 65.3767 29.8868 67.7943L34.717 71.8237L34.717 78.0692"/>
</svg>
