<?xml version="1.0" encoding="utf-8" ?>
<svg xmlns="http://www.w3.org/2000/svg" xmlns:xlink="http://www.w3.org/1999/xlink" width="58" height="100">
	<path fill="white" d="M52.8839 42.8141C54.0048 42.3116 55.3294 41.5075 56.2465 40.3015C57.2655 38.995 58.3863 36.6834 57.673 32.9648C57.0617 30.1508 55.2275 28.3417 52.6801 27.4372C53.5972 26.9347 54.5143 26.2312 55.2275 25.3266C56.2465 24.0201 57.3674 21.7085 56.6541 17.9899C55.8389 14.2714 52.8839 12.1608 48.7062 11.9598C49.4195 10.7538 49.8271 9.44724 49.8271 8.0402C49.8271 3.71859 46.4645 0.40201 42.1849 0.40201C40.3508 0.40201 37.9053 0.301508 35.0522 0.201005C31.1801 0.100503 26.7986 0 22.8247 0C18.7488 0 15.7939 0.100503 13.8578 0.40201C9.98579 0.904523 7.3365 3.61809 7.13271 7.43719C6.92892 10.6533 8.66115 14.5729 12.2275 15.3769C14.4692 15.8794 20.0735 15.9799 27.2062 16.0804L10.2915 19.6985C9.27252 19.8995 3.66825 20.9045 1.22275 24.6231C0 26.5327 -0.305688 28.7437 0.305688 31.0553C1.12085 33.9698 3.05688 35.9799 5.70617 36.8844C3.05688 38.2915 0.611375 41.005 0.815167 45.3266C0.917063 48.6432 2.75119 51.0553 5.60427 52.1608C2.95498 53.5678 0.611375 56.1809 0.815167 60.603C0.917063 64.2211 2.95498 66.7337 6.21565 67.6382C6.41944 70.8543 7.3365 76.3819 11.4123 79.2965C11.718 79.598 12.0237 79.6985 12.2275 79.799L12.2275 86.4322C12.2275 88.4422 13.654 90.2513 15.5901 90.7538C16.7109 94.3719 20.2773 100 29.6517 100C37.9053 100 41.6754 94.8744 42.8981 90.8543C45.038 90.5528 46.6683 88.6432 46.6683 86.4322L46.6683 79.799C47.5854 79.397 48.4005 78.995 48.91 78.4925C54.82 73.5678 53.3934 64.4221 53.2915 64.0201L52.8839 61.5075L37.8034 61.809L49.8271 58.995C50.9479 58.8945 54.2086 58.2915 56.3484 55.6784C57.3674 54.3719 58.4882 52.0603 57.7749 48.3417C57.1636 45.5276 55.4313 43.7186 52.8839 42.8141"/>
	<path fill="#FAFDFF" d="M41.9738 3.01507C36.1656 3.01507 20.2699 2.11055 14.258 3.01507C8.44997 3.71859 9.77462 11.3568 12.9334 12.0603C16.2959 12.7639 30.7652 12.7639 39.9358 12.7639C49.3102 12.7639 47.9855 2.81406 41.9738 3.01507"/>
	<path fill="#2D1B0A" d="M39.9396 13.7619C30.4591 13.7619 16.1875 13.7619 12.7215 13.0584C10.3769 12.5559 9.05166 9.6413 9.235 7.22924C9.35748 4.41517 11.2944 2.40512 14.1487 2.00311C18.5321 1.29959 27.7067 1.56239 35.0465 1.80211C37.9008 1.90261 40.3474 2.00311 41.9784 2.00311C44.0172 1.90261 45.8521 2.90764 46.8715 4.61618C47.9929 6.42522 47.9929 8.63628 46.9735 10.4453C46.2599 11.6514 44.425 13.7619 39.9396 13.7619M22.8136 3.61115C19.4496 3.61115 16.2894 3.71166 14.3526 4.01316C11.7021 4.31467 11.2944 6.22422 11.1924 7.32975C11.0905 9.03829 12.0079 10.8473 13.1293 11.1488C16.3914 11.8524 31.0708 11.8524 39.9396 11.8524C42.4881 11.8524 44.425 11.0483 45.2405 9.5408C45.8521 8.43527 45.8521 6.92774 45.1386 5.72171C44.7308 5.11869 43.8133 4.01316 41.9784 4.11367C40.3474 4.11367 37.7988 4.01316 34.9445 3.91266C31.2747 3.81216 26.7893 3.61115 22.8136 3.61115"/>
	<path fill="#FAFDFF" d="M10.7999 22.3115L42.4895 15.6784C42.4895 15.6784 52.2715 11.9598 53.698 18.2914C55.0226 24.9246 48.2975 25.3266 48.2975 25.3266L13.4491 33.2663C13.4491 33.2663 4.99179 36.583 3.15767 29.9497C1.42544 23.6181 10.7999 22.3115 10.7999 22.3115"/>
	<path fill="#2D1B0A" d="M8.97442 35.0754C7.75187 35.0754 6.52932 34.8743 5.40865 34.3718C3.77859 33.5678 2.65791 32.1608 2.14852 30.2512C1.63912 28.4422 1.8801 26.8341 2.86167 25.4271C5.00114 22.211 10.0951 21.407 10.6045 21.3065L42.187 14.6733C42.9002 14.3718 48.4017 12.4623 51.9674 14.3718C53.3937 15.0753 54.3107 16.3819 54.7182 18.0904C55.2276 20.402 54.82 22.3115 53.6994 23.7186C51.9674 25.9296 49.0129 26.2311 48.5035 26.3316L13.7627 34.2713C13.3552 34.3718 11.3176 35.0754 8.97442 35.0754M48.1979 15.5779C46.0584 15.5779 43.8171 16.1809 42.9002 16.5829L10.9101 23.2161C10.9101 23.2161 6.22369 23.9196 4.49174 26.4321C3.88046 27.3367 3.77859 28.3417 4.08422 29.5477C4.49174 30.9548 5.20489 31.8593 6.32556 32.3618C8.97442 33.6683 13.0496 32.1608 13.0496 32.1608L48.1979 24.2211C48.1979 24.2211 50.7449 24.0201 52.0693 22.412C52.7825 21.407 53.0881 20.1005 52.6806 18.3919C52.4768 17.2864 51.8656 16.5829 50.9486 16.0804C50.2355 15.7789 49.2167 15.5779 48.1979 15.5779"/>
	<path fill="#FAFDFF" d="M10.7176 38.1097L43.5281 30.6725C43.5281 30.6725 53.3101 26.9539 54.7366 33.2855C56.0613 39.9188 49.3361 40.3208 49.3361 40.3208L12.0422 49.165C12.0422 49.165 3.99248 51.1749 3.7844 44.9439C3.58489 38.8132 10.7176 38.1097 10.7176 38.1097"/>
	<path fill="#2D1B0A" d="M9.26773 50.4523C7.84104 50.4523 6.10863 50.1508 4.78385 49.2462C3.45907 48.3417 2.84763 46.8342 2.7399 45.0251C2.54191 39.4975 7.73913 37.4874 10.4906 37.1859L43.2026 29.7487C43.9159 29.4472 49.4188 27.5377 52.9856 29.4472C54.4123 30.1508 55.3294 31.4573 55.737 33.1658C56.2466 35.4774 55.8389 37.3869 54.718 38.794C52.9856 41.005 50.1322 41.3065 49.5207 41.407L12.3249 50.2513C12.223 50.1508 10.8982 50.4523 9.26773 50.4523M10.7963 39.0955C10.4906 39.0955 4.58004 39.799 4.78385 44.9246C4.78385 46.1307 5.19147 47.0352 6.00673 47.6382C7.63723 48.8442 10.6944 48.4422 11.8154 48.2412L49.3169 39.397C49.3169 39.397 51.8646 39.196 53.1894 37.5879C53.9027 36.5829 54.2084 35.2764 53.8008 33.5678C53.597 32.4623 52.9856 31.7588 52.0684 31.2563C49.6227 29.9498 45.3426 31.1558 43.9159 31.6583L10.7963 39.0955"/>
	<path fill="#FAFDFF" d="M10.7176 53.3861L43.5281 45.9489C43.5281 45.9489 53.3101 42.2303 54.7366 48.5619C56.0613 55.1951 49.3361 55.5971 49.3361 55.5971L12.0422 64.4413C12.0422 64.4413 3.99248 66.4513 3.7844 60.2202C3.58489 53.9891 10.7176 53.3861 10.7176 53.3861"/>
	<path fill="#2D1B0A" d="M9.26773 65.7287C7.84104 65.7287 6.10863 65.4272 4.78385 64.5226C3.45907 63.6181 2.84763 62.1106 2.7399 60.3015C2.54191 54.6734 7.73913 52.6633 10.4906 52.4623L43.2026 45.0251C43.9159 44.7236 49.4188 42.8141 52.9856 44.7236C54.4123 45.4272 55.3294 46.7337 55.737 48.4422C56.2466 50.7538 55.8389 52.6633 54.718 54.0704C52.9856 56.2814 50.1322 56.5829 49.5207 56.6834L12.3249 65.5277C12.223 65.4272 10.8982 65.7287 9.26773 65.7287M10.7963 54.3719C10.5925 54.3719 4.58004 54.9749 4.78385 60.201C4.78385 61.4071 5.19147 62.3116 6.00673 62.9146C7.63723 64.1206 10.6944 63.7186 11.8154 63.5176L49.3169 54.6734C49.3169 54.6734 51.8646 54.4724 53.1894 52.8643C53.9027 51.8593 54.2084 50.5528 53.8008 48.8442C53.597 47.7387 52.9856 47.0352 52.0684 46.5327C49.6227 45.2262 45.3426 46.4322 43.9159 46.9347L10.7963 54.3719"/>
	<path fill="#89C5E5" d="M9.16325 64.9151L50.2448 64.2116C50.2448 64.2116 51.5694 71.9503 46.8821 75.8699C42.195 79.7895 17.8419 79.7895 13.1547 76.5734C8.67124 73.2568 9.16325 64.9151 9.16325 64.9151"/>
	<path fill="#2D1B0A" d="M29.0332 79.8995C21.8982 79.8995 14.8652 78.995 12.5208 77.387C7.62821 73.7689 8.1227 65.2262 8.1227 64.8241L51.1518 63.2161C51.3556 64.3216 52.5788 72.3618 47.5843 76.5829C44.9341 78.8945 36.8817 79.8995 29.0332 79.8995M10.1764 65.9297C10.1764 68.1407 10.5841 73.4674 13.7439 75.7789C17.923 78.6935 41.7743 78.8945 46.2592 75.0754C49.6228 72.2613 49.5209 67.2362 49.419 65.2262L10.1764 65.9297"/>
	<path fill="#89C5E5" d="M15.1825 78.392L43.5095 78.392L43.5095 86.2312C43.5095 87.0352 42.8982 87.6382 42.083 87.6382L16.7109 87.6382C15.8958 87.6382 15.2844 87.0352 15.2844 86.2312L15.2844 78.392"/>
	<path fill="#2D1B0A" d="M42.083 88.6432L16.7109 88.6432C15.3862 88.6432 14.2654 87.5378 14.2654 86.2312L14.2654 77.3869L44.6304 77.3869L44.6304 86.2312C44.5285 87.5378 43.4076 88.6432 42.083 88.6432M16.2014 79.397L16.2014 86.2312C16.2014 86.4322 16.4052 86.6332 16.609 86.6332L41.9811 86.6332C42.1849 86.6332 42.3887 86.4322 42.3887 86.2312L42.3887 79.397L16.2014 79.397"/>
	<path fill="#325D70" d="M18.1376 88.0402L40.3509 88.0402C40.3509 88.0402 39.3319 96.6834 29.6518 96.6834C19.4622 96.6834 18.1376 89.1457 18.1376 88.0402"/>
	<path fill="#2D1B0A" d="M29.5499 97.6884C19.2584 97.6884 17.1186 90.0502 17.1186 88.0402L17.1186 87.0351L41.4717 87.0351L41.3698 88.1407C41.2679 88.1407 40.0452 97.6884 29.5499 97.6884M19.2584 89.0452C19.7679 91.1557 21.9077 95.6784 29.448 95.6784C36.275 95.6784 38.3129 91.1557 38.9243 89.0452L19.2584 89.0452"/>
</svg>
