<?xml version="1.0" encoding="utf-8" ?>
<svg xmlns="http://www.w3.org/2000/svg" xmlns:xlink="http://www.w3.org/1999/xlink" width="104" height="84">
	<path fill="white" d="M29.5592 83.9004L29.5592 74.5338L45.1396 71.1459L45.1396 69.452L13.5793 69.452C12.181 69.3523 6.0887 68.4555 2.49321 63.0747C0 59.3879 -0.602896 54.7046 0.595599 49.1246C2.49321 39.1601 9.08493 11.9573 9.08493 11.6584C9.58431 9.96441 13.4794 0 23.7665 0L80.8947 0C84.5901 0 92.4802 2.39146 95.1768 11.2598L103.566 49.0249C103.766 50.0214 105.164 57.0961 101.569 62.7758C99.2716 66.363 95.5763 68.6548 90.7823 69.3523L59.0222 69.452L59.0222 71.1459L75.4016 74.6335L75.4016 84L29.5592 84"/>
	<path fill="#2D1B0A" d="M100.577 49.4733L92.2873 12.1067C90.09 4.63339 83.8978 2.74015 80.9015 2.74015L23.7728 2.74015C15.2834 2.74015 12.1873 11.4092 11.9876 11.8078C11.7878 12.306 5.29591 39.4091 3.39828 49.3736C2.29965 54.0569 2.8318 58.0427 4.89641 61.032C7.99254 65.6155 13.3858 66.1138 13.5856 66.1138L90.09 66.1138C94.1849 65.5159 97.0813 63.8221 98.8791 60.9324C102.075 56.0498 100.677 49.6726 100.577 49.4733"/>
	<path fill="#2D1B0A" d="M90.1909 67.1601L13.4931 67.1601C12.4944 67.0604 7.20149 66.2633 4.10561 61.6797C1.9453 58.4911 1.4092 54.306 2.50774 49.2241C4.40521 39.3594 10.9964 12.0569 10.9964 11.758C11.4958 10.4626 14.8912 1.6939 23.7794 1.6939L80.9033 1.6939C84.0991 1.6939 90.89 3.78643 93.2868 11.5587L101.676 49.1245C101.775 49.7224 103.173 56.1992 99.878 61.3807C97.8807 64.5693 94.685 66.4626 90.3907 67.0604M23.6795 3.68678C16.0896 3.68678 13.1935 11.2597 12.8939 12.0569C12.794 12.4555 6.20282 39.6583 4.30535 49.5231C3.30668 54.0071 3.70614 57.6939 5.60362 60.3843C8.30002 64.3701 12.9938 64.9679 13.593 65.0676L89.8913 65.0676C93.5864 64.5693 96.2828 62.975 97.9806 60.2846C100.877 55.701 99.4786 49.6227 99.4786 49.5231L91.1896 12.0569C89.1923 5.48038 83.4999 3.68678 80.8034 3.68678L23.6795 3.68678"/>
	<path fill="#EDF5F9" d="M12.8795 59.8861C12.2802 59.7865 9.48373 59.1886 8.08548 57.0961C7.0784 55.5018 6.7871 53.0107 7.48622 49.9217C9.38385 40.2562 15.4762 14.7473 16.0755 11.9573C16.475 10.9608 18.4725 6.5765 22.9669 6.5765L81.4938 6.5765C81.3939 6.5765 86.188 6.67614 87.8858 11.758L96.2754 49.8221C96.52 51.0178 96.8746 54.605 95.3765 56.9964C94.977 57.5943 93.9782 59.2882 90.3827 59.7865L12.8795 59.8861"/>
	<path fill="#7C8D96" d="M18.2728 13.3524L16.2752 26.0071L18.2728 29.7936L35.5511 29.7936L38.2478 26.8043L38.2478 13.7509L35.2515 10.363L21.3689 10.363"/>
	<path fill="#2D1B0A" d="M35.9507 30.7902L17.6735 30.7902L15.1766 26.2066L17.274 12.9539L20.7696 9.46634L35.5512 9.3667L39.1467 13.3525L39.1467 27.203L35.9507 30.7902M18.872 28.7973L35.0518 28.7973L37.249 26.4058L37.249 14.1496L34.7522 11.3596L21.6685 11.4592L19.1716 13.8507L17.274 25.808L18.872 28.7973"/>
	<path fill="#7C8D96" d="M82.3927 10.2633L68.51 10.2633L65.5138 13.6512L65.5138 26.7046L68.2104 29.6939L85.4889 29.6939L87.4864 25.9074L85.4889 13.2527"/>
	<path fill="#2D1B0A" d="M67.8109 30.6905L64.515 27.1033L64.515 13.2528L68.1105 9.267L82.8921 9.36664L86.3877 12.8542L88.4851 26.1069L85.9882 30.6905L67.8109 30.6905M66.5125 26.3061L68.7098 28.6976L84.8896 28.6976L86.4876 25.7083L84.5899 13.751L82.0931 11.3595L69.0094 11.2599L66.5125 14.0499L66.5125 26.3061"/>
	<path fill="#7C8D96" d="M14.078 36.7686L11.681 52.1138L14.078 56.3985L34.3526 56.4982L37.2491 52.6121L37.2491 36.7686L34.6523 32.4839L17.6735 32.3843"/>
	<path fill="#2D1B0A" d="M34.852 57.4947L13.4787 57.3951L10.6822 52.3132L13.1791 36.3702L17.274 31.4876L35.2515 31.4876L38.2478 36.6691L38.2478 53.1104L34.852 57.4947M14.6772 55.4022L33.8533 55.5018L36.2503 52.3132L36.2503 37.0677L34.053 33.4805L18.1729 33.3808L15.0767 37.1673L12.7796 51.9146L14.6772 55.4022"/>
	<path fill="#7C8D96" d="M85.8884 32.9823L69.4089 33.2812L66.3128 37.2669L66.3128 53.0107L69.2091 56.7971L89.4839 56.6975L91.781 52.4128L89.4839 37.2669"/>
	<path fill="#2D1B0A" d="M68.7098 57.7936L65.314 53.3096L65.314 36.968L68.9095 32.2847L86.3877 31.9858L90.4826 36.8684L92.9795 52.7118L90.1829 57.7936L68.7098 57.7936M67.3115 52.6121L69.7085 55.8007L88.8846 55.7011L90.7822 52.2136L88.4851 37.5659L85.3889 33.879L69.9083 34.178L67.3115 37.5659L67.3115 52.6121"/>
	<path fill="#2D1B0A" d="M55.8259 73.2385L55.8259 65.9644L47.9357 65.9644L47.9357 73.2385L32.3552 76.726L32.3552 80.7117L72.2054 80.7117L72.2054 76.726"/>
	<path fill="#7C8D96" d="M59.4212 29.5942L44.2401 29.5942L41.144 26.7047L41.144 12.9537L44.2401 10.064L59.4212 10.064L62.5173 12.9537L62.5173 26.7047"/>
	<path fill="#2D1B0A" d="M59.8209 30.5908L43.9407 30.5908L40.2453 27.2029L40.2453 12.5552L43.9407 9.1673L59.8209 9.1673L63.5162 12.5552L63.5162 27.2029L59.8209 30.5908M44.6398 28.5979L59.0219 28.5979L61.5187 26.3061L61.5187 13.3523L59.0219 11.0605L44.6398 11.0605L42.1429 13.3523L42.1429 26.3061L44.6398 28.5979"/>
	<path fill="#7C8D96" d="M60.1204 56.7972L43.2414 56.7972L39.7458 53.4093L39.7458 36.7687L43.2414 33.3808L60.1204 33.3808L63.5161 36.7687L63.5161 53.4093"/>
	<path fill="#2D1B0A" d="M60.5198 57.7938L42.8419 57.7938L38.747 53.808L38.747 36.3703L42.8419 32.3845L60.5198 32.3845L64.6147 36.3703L64.6147 53.808L60.5198 57.7938M43.6409 55.8009L59.6209 55.8009L62.5173 52.9112L62.5173 37.1674L59.6209 34.2777L43.6409 34.2777L40.7445 37.1674L40.7445 52.9112L43.6409 55.8009"/>
</svg>
