<?xml version="1.0" encoding="utf-8" ?>
<svg xmlns="http://www.w3.org/2000/svg" xmlns:xlink="http://www.w3.org/1999/xlink" width="78" height="92">
	<path fill="white" d="M17.3672 92C14.9297 92 12.8984 90.1842 12.5937 87.7632L5.99219 38.3333L4.875 38.3333C2.23438 38.3333 0 36.2149 0 33.4912L0 26.3289C0 23.7061 2.13281 21.4868 4.875 21.4868L6.19531 21.4868L9.14062 4.03509C9.54688 1.71491 11.5781 0 13.9141 0L64.0859 0C66.4219 0 68.4531 1.71491 68.8594 4.03509L71.8047 21.4868L73.125 21.4868C75.7656 21.4868 78 23.6053 78 26.3289L78 33.4912C78 36.114 75.8672 38.3333 73.125 38.3333L72.0078 38.3333L65.4063 87.7632C65.1016 90.1842 62.9688 91.8991 60.6328 91.8991L17.3672 91.8991"/>
	<path fill="#5FACF9" d="M69.3671 25.7236L65.8123 4.23676C65.7107 3.32886 64.8982 2.7236 64.0857 2.7236L13.9139 2.7236C12.9999 2.7236 12.2889 3.32886 12.1874 4.23676L8.60625 25.7236C8.60625 26.228 8.73423 26.7324 9.03892 27.1359C9.34361 27.5394 9.85142 27.7411 10.4608 27.7411L67.8437 27.7411C68.3514 27.7411 68.8592 27.5394 69.1639 27.1359C69.2654 26.7324 69.3671 26.228 69.3671 25.7236"/>
	<path fill="#2D1B0A" d="M67.5537 28.8508L10.1568 28.8508C9.34406 28.8508 8.53136 28.4473 8.02342 27.842C7.51548 27.2368 7.3885 26.4297 7.3885 25.6227L10.9695 4.13588C11.1726 2.82447 12.3917 1.8157 13.7123 1.8157L63.8966 1.8157C65.3188 1.8157 66.4363 2.82447 66.6395 4.13588L70.2204 25.6227C70.2966 26.4297 70.0934 27.2368 69.5855 27.842C69.1792 28.4473 68.3664 28.8508 67.5537 28.8508M13.7123 3.83324C13.306 3.83324 13.0012 4.13588 12.8996 4.43851L9.34406 25.9253C9.34406 26.1271 9.34406 26.4297 9.54724 26.5306C9.64882 26.7324 9.852 26.8332 10.1568 26.8332L67.5537 26.8332C67.7569 26.8332 67.9601 26.7324 68.1633 26.5306C68.3664 26.3289 68.3664 26.1271 68.3664 25.9253L64.8109 4.43851C64.7093 4.035 64.4045 3.83324 63.9982 3.83324L13.7123 3.83324"/>
	<path fill="#5FACF9" d="M68.8726 31.978C68.5679 31.5745 68.0601 31.3728 67.5523 31.3728L10.1695 31.3728C9.66167 31.3728 9.15386 31.5745 8.84917 31.978C8.54448 32.3815 8.4165 32.8859 8.4165 33.3903L15.6539 87.057C15.7554 87.9649 16.5679 88.5702 17.482 88.5702L60.5445 88.5702C61.4585 88.5702 62.1695 87.864 62.3726 87.057L69.5835 33.3903C69.3804 32.8859 69.2789 32.3815 68.8726 31.978"/>
	<path fill="#2D1B0A" d="M60.4877 89.5789L17.4162 89.5789C15.994 89.5789 14.775 88.5701 14.6734 87.1579L7.436 33.4912C7.436 32.6842 7.56253 31.8772 8.17203 31.2719C8.67995 30.6666 9.49262 30.364 10.3053 30.364L67.7002 30.364C68.5129 30.364 69.224 30.6666 69.8335 31.2719C70.3414 31.8772 70.6461 32.6842 70.564 33.4912L63.3321 87.1579C63.0273 88.5701 61.8083 89.5789 60.4877 89.5789M10.2037 32.3815C10.0005 32.3815 9.79737 32.4824 9.59421 32.6842C9.49262 32.8859 9.39104 33.0877 9.39104 33.2894L16.6035 86.9561C16.6035 87.3596 17.0098 87.6622 17.4162 87.6622L60.4877 87.6622C60.8941 87.6622 61.1988 87.3596 61.3004 86.9561L68.5129 33.2894C68.5129 33.0877 68.5129 32.8859 68.3097 32.6842C68.1065 32.4824 67.9034 32.3815 67.7002 32.3815L10.2037 32.3815"/>
	<path fill="#B3E0FF" d="M72.9221 24.2106L4.77362 24.2106C3.758 24.2106 2.9455 25.0176 2.9455 26.0264L2.9455 33.1886C2.9455 34.1974 3.758 35.0045 4.77362 35.0045L72.9221 35.0045C73.9377 35.0045 74.7502 34.1974 74.7502 33.1886L74.7502 26.0264C74.7502 25.0176 73.9377 24.2106 72.9221 24.2106"/>
	<path fill="#2D1B0A" d="M72.9219 36.0132L4.77345 36.0132C3.25001 36.0132 1.9297 34.8027 1.9297 33.1886L1.9297 26.0264C1.9297 24.5132 3.14845 23.2018 4.77345 23.2018L72.9219 23.2018C74.4453 23.2018 75.7656 24.4123 75.7656 26.0264L75.7656 33.1886C75.7656 34.7018 74.4453 36.0132 72.9219 36.0132M4.77345 25.2193C4.3672 25.2193 3.96095 25.522 3.96095 26.0264L3.96095 33.1886C3.96095 33.5922 4.26564 33.9957 4.77345 33.9957L72.9219 33.9957C73.3281 33.9957 73.7344 33.693 73.7344 33.1886L73.7344 26.0264C73.7344 25.6228 73.4297 25.2193 72.9219 25.2193L4.77345 25.2193"/>
	<path fill="#FEBF55" d="M22.75 4.03509L55.047 4.03509L55.047 12.5088C55.047 13.7193 54.0313 14.7281 52.8125 14.7281L25.086 14.7281C23.8672 14.7281 22.75 13.7193 22.75 12.5088L22.75 4.03509"/>
	<path fill="white" d="M28.6914 52.7992L34.9883 56.8343L39.7617 49.1676C39.7617 49.1676 38.4414 46.4439 36.1054 45.536C34.0742 44.8299 32.6523 45.9396 32.2461 46.6457C31.8398 47.5536 28.6914 52.7992 28.6914 52.7992"/>
	<path fill="#2D1B0A" d="M35.2929 58.1457L27.2695 53.0009C28.6914 50.7817 31.0273 46.8474 31.332 46.1413C32.0429 44.9308 33.8711 43.6194 36.4101 44.5273C39.0507 45.6369 40.5742 48.4615 40.5742 48.6632L35.2929 58.1457M30.0117 52.3957L34.582 55.3212L38.4414 49.0667C38.0351 48.3606 37.0195 46.9483 35.5976 46.4439C33.8711 45.8387 33.0586 47.1501 33.0586 47.1501C32.8554 47.7553 30.9258 50.8825 30.0117 52.3957"/>
	<path fill="white" d="M37.7304 45.4953C40.9804 48.4691 43.2148 54.32 43.2148 54.32L41.5898 55.2279L48.0898 55.8332C48.3945 55.8332 48.6992 55.6314 48.9023 55.3288L51.3398 49.5788L50.0195 50.184C50.0195 50.184 48.496 46.7542 47.1757 46.1489C45.6523 45.2411 38.8476 45.4953 37.7304 45.4953"/>
	<path fill="#2D1B0A" d="M48.1914 56.8342L38.4414 55.9264L41.996 53.808C41.2851 52.1939 39.457 48.2597 37.121 46.2422L35.1914 44.4941L37.832 44.4941C38.0351 44.4941 38.2382 44.4941 38.5429 44.4941C43.1132 44.4941 46.3633 44.4941 47.6836 45.2334C48.9023 45.8387 49.918 47.6545 50.5273 48.865L53.2695 47.6545L49.8164 55.8255C49.5117 56.4307 48.9023 56.8342 48.1914 56.8342M44.332 54.5141L48.0898 54.8167L49.5117 51.4878C48.3945 49.0667 47.2773 47.3518 46.668 47.0492C46.1601 46.6457 44.6367 46.4439 39.9648 46.4439C42.4023 49.5711 44.0273 53.7071 44.1289 53.9089"/>
	<path fill="white" d="M31.332 56.0273L24.1211 56.6325L25.2383 57.6413C25.2383 57.6413 23.207 60.8694 23.207 62.3825C23.207 63.6939 26.8633 69.8475 27.5742 70.5536C28.2851 66.2159 32.3476 61.4746 32.3476 61.4746L33.6679 61.979L31.332 56.0273"/>
	<path fill="#2D1B0A" d="M28.2851 72.5711L26.8633 71.1588C26.0508 70.3518 22.1914 64.0974 22.1914 62.2816C22.1914 60.9702 23.3086 58.8518 23.9179 57.7422L21.582 55.7246L31.9414 54.9176L35.3945 63.7948L32.5507 62.5843C31.5351 63.8957 28.9961 67.4264 28.4883 70.5536L28.2851 72.5711M26.6601 57.4395C25.4414 59.3562 24.3242 61.4746 24.3242 62.3825C24.3242 63.0887 26.0508 66.2158 27.2695 68.1325C28.5898 64.4001 31.5351 60.9702 31.6367 60.7685L30.7226 57.1369L26.6601 57.4395"/>
	<path fill="white" d="M38.8477 65.9133L38.4414 73.3782L31.6368 73.3782C31.6368 73.3782 28.9961 73.3782 28.3681 70.6545C28.1836 68.4352 29.7071 65.7115 29.7071 65.7115L38.8477 65.9133"/>
	<path fill="#2D1B0A" d="M39.4496 74.387L31.6294 74.387C30.4106 74.387 27.9731 73.6808 27.4477 70.8563C27.2622 68.2335 28.8872 65.308 28.8872 65.2071L39.9575 64.9045L39.4496 74.387M30.4106 66.7203C30.0044 67.5273 29.2934 69.1413 29.4966 70.5536C29.8012 72.2685 31.6294 72.2685 31.7309 72.2685L37.6215 72.2685L37.9262 66.8212L30.4106 66.7203"/>
	<path fill="white" d="M43.8242 65.0053L39.8633 69.6457L44.0274 74.7904L44.1289 73.7817C44.1289 73.7817 47.7852 74.1852 49.1055 73.3781C50.2227 72.672 53.168 67.5273 54.2852 65.7115C50.2227 67.0229 43.8242 65.9132 43.8242 65.9132"/>
	<path fill="#2D1B0A" d="M44.8399 77.4133L38.6446 69.6457L44.8399 62.2817L44.8399 65.1062C46.668 65.308 51.0351 65.8123 53.9804 64.8036L56.7226 63.8957L55.1992 66.3167C54.8946 66.7203 54.5899 67.3255 54.0821 68.1325C52.1524 71.3606 50.7304 73.6807 49.7149 74.286C48.5977 74.9921 46.4649 74.9921 45.1446 74.8913L44.8399 77.4133M43.7227 72.6721C45.6524 72.8737 47.8867 72.9746 48.5977 72.4703C49.2071 72.0667 51.1367 68.9395 52.1524 67.2246C48.293 67.729 43.8242 67.0229 43.6211 66.922L41.1836 69.6457L43.7227 72.6721"/>
	<path fill="white" d="M52.8633 54.1106L46.0586 57.5404L50.4258 65.5209C50.4258 65.5209 53.2695 65.7115 55.1992 64.4001C57.4336 62.5843 56.1133 60.365 56.1133 60.365L52.8633 54.1106"/>
	<path fill="#2D1B0A" d="M50.832 66.5185C50.5273 66.5185 50.4258 66.5185 50.3242 66.5185L44.7383 57.1369L53.3711 52.7992L57.0274 59.8606C57.6367 60.7685 58.1446 63.1896 55.8086 65.1062C54.082 66.3167 51.7461 66.5185 50.832 66.5185M47.4804 57.9439L51.0351 64.4001C51.8476 64.4001 53.4726 64.1983 54.5898 63.4922C56.1133 62.2817 55.3008 60.8694 55.3008 60.8694L52.5586 55.5229L47.4804 57.9439"/>
</svg>
