<?xml version="1.0" encoding="utf-8" ?>
<svg xmlns="http://www.w3.org/2000/svg" xmlns:xlink="http://www.w3.org/1999/xlink" width="116" height="76">
	<path fill="white" d="M91.8417 75.8984C80.9604 75.8984 71.5766 68.5829 68.5818 58.016L63.8898 58.016C63.79 58.016 63.6902 58.016 63.5904 58.016C62.1928 58.016 58.7986 57.7112 55.8038 55.2727L47.8176 46.2299C48.117 47.8556 48.3167 49.4813 48.3167 51.107C48.3167 64.8235 37.4355 76 24.1583 76C10.5818 76 0 65.1283 0 51.107C0 37.2888 10.8812 26.0107 24.1583 26.0107C24.6575 26.0107 25.1566 26.0107 25.7556 26.1123L30.747 9.34759C31.8451 5.89305 35.2392 0 41.1291 0L52.1102 0L52.1102 10.3636L43.0258 10.3636C42.8262 10.3636 42.7263 10.3636 42.7263 10.3636C41.8279 10.3636 41.2289 10.6684 40.9294 11.1765L40.5301 12.9037L67.284 12.9037C65.4871 12.3957 65.0878 11.9893 64.6885 11.5829C63.0912 9.85561 63.2909 8.22995 63.5904 7.41711C63.8898 6.29947 64.8881 4.97861 67.4836 4.47059L87.9484 4.47059L87.9484 14.5294L82.358 14.5294L82.0585 15.6471L86.8503 26.7219C88.4475 26.4171 90.1446 26.2139 91.8417 26.2139C105.219 26.2139 116 37.492 116 51.3102C116 64.7219 105.119 75.8984 91.8417 75.8984M79.9621 58.016C80.5611 59.0321 81.1601 59.9465 81.9587 60.7594C85.6523 64.8235 90.3442 65.0267 91.3425 65.0267C92.9398 65.0267 97.6317 64.8235 101.824 60.5561C105.219 57.1016 105.318 51.107 105.318 51.0053C105.318 51.0053 105.219 45.0107 101.325 41.1497C97.5318 36.984 92.4406 36.8824 91.9415 36.8824C91.642 36.8824 91.5422 36.8824 91.4423 36.8824L97.2324 50.1925C97.5318 51.107 98.2306 53.9519 96.7332 56.1872C95.8348 57.4064 94.537 58.016 92.9398 58.016L79.9621 58.016M22.3614 36.8824C20.3649 37.1872 16.9707 38.1016 14.475 40.9465C10.4819 45.2139 10.5818 50.8021 10.5818 50.9037C10.5818 51.5134 10.3821 56.492 14.3752 60.861C18.0688 64.9251 22.7608 65.1283 23.759 65.1283C25.3563 65.1283 30.0482 64.9251 34.241 60.6578C37.6351 57.2032 37.7349 51.2086 37.7349 51.2086C37.7349 51.2086 37.6351 45.2139 33.7418 41.3529C33.3425 40.8449 32.9432 40.5401 32.6437 40.2353L29.1497 51.5134C28.7504 53.5455 27.3528 55.6791 25.1566 56.1872C24.7573 56.3904 24.2582 56.492 23.759 56.492C22.4613 56.492 21.0637 55.8824 20.1652 54.7647C19.3666 53.8503 18.568 52.3262 18.8675 49.7861L22.3614 36.8824M84.1549 47.1444L81.6592 41.3529C80.062 43.2834 79.1635 45.3155 78.6644 47.1444L84.1549 47.1444M60.5955 44.2995L67.883 23.6738L42.4269 23.6738L60.5955 44.2995M76.4682 31.5989C76.6678 31.3957 76.8675 31.1925 77.167 31.0909"/>
	<path fill="#2D1B0A" d="M2.895 51.0052C2.895 38.9144 12.2788 28.9571 24.0585 28.9571C35.8382 28.9571 45.222 38.9144 45.222 51.0052C45.222 63.0961 35.8382 72.8502 24.0585 72.8502C12.2788 72.8502 2.895 63.1978 2.895 51.0052M24.1583 33.7326C24.1583 33.7326 17.0706 33.5293 12.2788 38.9144C7.38725 44.0961 7.58691 51.0052 7.58691 51.0052C7.58691 51.0052 7.1876 57.4063 12.2788 62.8929C17.37 68.5829 24.1583 68.0748 24.1583 68.0748C24.1583 68.0748 30.747 68.4812 36.3373 62.6898C40.6299 58.3207 40.6299 51.1068 40.6299 51.1068C40.6299 51.1068 40.6299 43.8929 35.7384 39.0159C30.9466 33.5293 24.1583 33.7326 24.1583 33.7326"/>
	<path fill="#2D1B0A" d="M24.1583 73.8662C11.6798 73.8662 1.9965 63.8074 1.9965 51.0053C1.9965 38.3047 11.9793 27.9411 24.1583 27.9411C36.3373 27.9411 46.3201 38.3047 46.3201 51.0053C46.3201 63.6042 36.3373 73.8662 24.1583 73.8662M24.1583 29.9732C12.9776 29.9732 3.99306 39.4224 3.99306 51.0053C3.99306 62.6898 12.8777 71.8341 24.1583 71.8341C35.339 71.8341 44.3235 62.4866 44.3235 51.0053C44.3235 39.4224 35.2392 29.9732 24.1583 29.9732M23.759 69.0908C22.0619 69.0908 16.1721 68.6844 11.58 63.6042C6.38893 58.1176 6.58858 51.7165 6.68841 51.0053C6.68841 50.294 6.68841 43.4866 11.58 38.2031C16.4715 32.6149 23.5593 32.7165 24.1583 32.7165C24.7573 32.7165 31.5456 32.7165 36.5369 38.2031C41.6282 43.2833 41.728 50.7005 41.728 51.0053C41.728 51.3101 41.6282 58.7272 37.1359 63.401C31.4457 69.294 24.9569 69.1924 24.2581 69.0908C24.0585 69.0908 23.9586 69.0908 23.759 69.0908M24.0585 34.7486C23.3597 34.7486 17.1703 34.8502 12.9776 39.6256C8.38548 44.5026 8.58514 50.9037 8.58514 51.0053C8.58514 51.3101 8.28566 57.3047 12.9776 62.2833C17.6695 67.4652 23.9586 67.1604 24.0585 67.1604C24.3579 67.1604 30.4474 67.4652 35.6385 62.0801C39.6316 58.016 39.6316 51.2085 39.6316 51.2085C39.6316 51.1069 39.5318 44.2994 35.0395 39.8288C30.5473 34.7486 24.1583 34.9518 24.1583 34.9518"/>
	<path fill="#2D1B0A" d="M70.5784 51.0052C70.5784 38.9144 79.9622 28.9571 91.7419 28.9571C103.522 28.9571 112.905 38.9144 112.905 51.0052C112.905 63.0961 103.522 72.8502 91.7419 72.8502C80.062 72.8502 70.5784 63.1978 70.5784 51.0052M91.7419 33.7326C91.7419 33.7326 84.6541 33.5293 79.8624 38.9144C74.9708 44.0961 75.1705 51.0052 75.1705 51.0052C75.1705 51.0052 74.7712 57.4063 79.8624 62.8929C84.9536 68.5829 91.7419 68.0748 91.7419 68.0748C91.7419 68.0748 98.3306 68.4812 103.921 62.6898C108.214 58.3207 108.214 51.1068 108.214 51.1068C108.214 51.1068 108.214 43.8929 103.322 39.0159C98.4304 33.5293 91.7419 33.7326 91.7419 33.7326"/>
	<path fill="#2D1B0A" d="M91.8417 73.8662C79.3632 73.8662 69.6799 63.8074 69.6799 51.0053C69.6799 38.3047 79.6627 27.9411 91.8417 27.9411C104.021 27.9411 114.004 38.3047 114.004 51.0053C114.004 63.6042 104.021 73.8662 91.8417 73.8662M91.8417 29.9732C80.661 29.9732 71.6765 39.4224 71.6765 51.0053C71.6765 62.6898 80.5611 71.8341 91.8417 71.8341C103.022 71.8341 112.007 62.4866 112.007 51.0053C112.007 39.4224 102.923 29.9732 91.8417 29.9732M91.3426 69.0908C89.6455 69.0908 83.7556 68.6844 79.1636 63.6042C73.9725 58.1176 74.1721 51.7165 74.272 51.0053C74.272 50.294 74.272 43.4866 79.1636 38.2031C84.0551 32.6149 91.1429 32.7165 91.7419 32.7165C92.3408 32.7165 99.1291 32.7165 104.12 38.2031C109.212 43.2833 109.312 50.7005 109.312 51.0053C109.312 51.3101 109.212 58.7272 104.719 63.401C99.0293 69.294 92.5405 69.1924 91.8417 69.0908C91.642 69.0908 91.5422 69.0908 91.3426 69.0908M91.642 34.7486C90.9432 34.7486 84.7539 34.8502 80.5611 39.6256C75.9691 44.5026 76.1687 50.9037 76.1687 51.0053C76.1687 51.3101 75.8692 57.3047 80.5611 62.2833C85.253 67.4652 91.5422 67.1604 91.642 67.1604C91.9415 67.1604 98.031 67.4652 103.222 62.0801C107.215 58.016 107.215 51.2085 107.215 51.2085C107.215 51.1069 107.115 44.2994 102.623 39.8288C98.1308 34.7486 91.7419 34.9518 91.7419 34.9518"/>
	<path fill="#65DFE5" d="M21.6247 49.7836L33.5421 10.1579C33.5421 10.1579 35.7383 2.94405 41.129 2.94405C46.7194 2.94405 49.1152 2.94405 49.1152 2.94405L49.1152 7.21143L43.2254 7.21143C43.2254 7.21143 39.3321 6.80501 38.1342 10.1579L36.9362 15.8477L72.8743 15.8477L75.2701 11.4788C75.2701 11.4788 67.4836 10.0563 67.0843 9.44672C66.2856 8.63389 66.086 7.71945 68.0825 7.41464L85.0533 7.41464L85.0533 11.3772L80.1617 11.3772L78.9638 15.7462L94.2374 51.3077C94.2374 51.3077 95.4354 55.0718 92.8398 55.0718L63.8898 55.0718C63.8898 55.0718 60.4956 55.2702 57.8003 53.035L33.9414 25.6019L26.1548 50.5965C26.1548 50.5965 25.7555 53.035 23.9586 53.035C24.1583 53.2382 21.2633 53.2382 21.6247 49.7836M35.7383 20.6231L61.6935 50.0885L72.0756 20.6231L35.7383 20.6231M76.5679 22.5536L66.3855 50.19L88.8467 50.19L76.5679 22.5536"/>
	<path fill="#2D1B0A" d="M63.5775 55.9839C62.5788 55.9839 59.5828 55.7807 57.0861 53.7486L34.3162 27.5347L27.1257 50.7005C26.926 51.8181 26.1271 53.647 24.4293 53.9518C23.93 54.2566 23.2309 54.155 22.6317 53.8502C21.9326 53.5454 20.4346 52.5293 20.6951 49.6844L32.6185 9.85553C32.7184 9.55072 35.1152 1.9304 41.1073 1.9304L50.0954 1.9304L50.0954 8.22987L43.1046 8.22987C43.0047 8.22987 40.0087 7.92505 39.1099 10.4652L38.2111 14.8341L72.3659 14.8341L73.8639 12.1924C67.3725 10.9732 66.6734 10.3636 66.4737 10.0587C65.5749 9.1443 65.5749 8.33147 65.7746 7.82345C66.1741 6.6042 67.5722 6.40099 68.0716 6.29938L86.2475 6.29938L86.2475 12.294L81.1543 12.294L80.2555 15.647L95.4354 50.9037C95.5352 51.2085 96.2343 53.5454 95.2356 55.0694C94.936 55.5775 94.237 56.0855 93.0385 56.0855L64.0769 56.0855C63.8771 55.9839 63.6774 55.9839 63.5775 55.9839M58.3844 52.2245C60.6814 54.155 63.6774 53.9518 63.7773 53.9518L92.8388 53.9518C93.2383 53.9518 93.3382 53.8502 93.438 53.7486C93.7376 53.3422 93.5379 52.2245 93.3382 51.5133L77.8586 15.647L79.3567 10.1603L83.9506 10.1603L83.9506 8.22987L68.0716 8.22987C67.8718 8.22987 67.6721 8.33147 67.5722 8.33147C67.5722 8.33147 67.6721 8.43307 67.6721 8.43307C68.3712 8.73789 72.1662 9.65233 75.4618 10.2619L76.86 10.5668L73.4644 16.7646L35.7144 16.7646L37.2124 9.75393C38.4108 6.50259 41.7065 5.99457 43.3043 6.19778L48.098 6.19778L48.098 3.96249L41.1073 3.96249C36.6132 3.96249 34.516 10.3636 34.516 10.4652L22.6317 49.9892C22.5318 50.8021 22.6317 51.4117 22.9313 51.7165C23.0312 51.8181 23.0312 51.8181 23.131 51.9197C24.7289 51.9197 25.0285 50.294 25.0285 50.294L33.3176 23.5721L58.3844 52.2245M62.0795 52.0213L33.5173 19.6095L73.5643 19.6095L62.0795 52.0213M38.0114 21.6416L61.3804 48.1603L70.768 21.6416L38.0114 21.6416M90.3421 51.2085L64.9757 51.2085L76.5604 19.8128L90.3421 51.2085M67.8718 49.1764L87.3461 49.1764L76.7601 25.1978L67.8718 49.1764"/>
</svg>
