<?xml version="1.0" encoding="utf-8" ?>
<svg xmlns="http://www.w3.org/2000/svg" xmlns:xlink="http://www.w3.org/1999/xlink" width="90" height="90">
	<path fill="white" d="M42.1875 84.148C40.9821 81.5247 38.6719 79.6076 35.8594 78.8004C35.0558 78.5987 34.1518 78.4978 33.3482 78.4978C31.3393 78.4978 29.4308 79.1031 27.7232 80.3139L22.3996 84.0471L23.0022 77.5897C23.3036 74.6637 22.1987 71.8386 20.1897 69.8206C18.3817 68.0045 15.8705 66.9955 13.3594 66.9955C13.058 66.9955 12.7567 66.9955 12.4554 66.9955L6.02679 67.6009L9.7433 62.2534C11.3504 59.8318 11.9531 56.9058 11.1496 54.0807C10.4464 51.2556 8.4375 48.935 5.82589 47.7242L0 45L5.92634 42.2758C8.53795 41.065 10.4464 38.7444 11.25 35.9193C11.9531 33.0942 11.4509 30.1682 9.84375 27.7466L6.12723 22.3991L12.5558 23.0045C12.8571 23.0045 13.1585 23.0045 13.3594 23.0045C15.971 23.0045 18.4821 21.9955 20.2902 20.1794C22.2991 18.1614 23.404 15.3363 23.1027 12.4103L22.5 5.95291L27.8237 9.6861C29.4308 10.796 31.4397 11.5022 33.4487 11.5022C34.2522 11.5022 35.1563 11.4013 35.9598 11.1996C38.7723 10.4933 41.0826 8.47534 42.2879 5.85202L45 0L47.7121 5.85202C48.9174 8.47534 51.2277 10.3924 54.0402 11.1996C54.8437 11.4013 55.7478 11.5022 56.5513 11.5022C58.5603 11.5022 60.4688 10.8969 62.1763 9.6861L67.5 5.95291L66.8973 12.4103C66.596 15.3363 67.7009 18.1614 69.7098 20.1794C71.5179 21.9955 74.029 23.0045 76.6406 23.0045C76.942 23.0045 77.2433 23.0045 77.5446 23.0045L83.9732 22.3991L80.2567 27.7466C78.6496 30.1682 78.0469 33.0942 78.8504 35.9193C79.5536 38.7444 81.5625 41.065 84.1741 42.2758L90 45L84.1741 47.7242C81.5625 48.935 79.654 51.2556 78.8504 54.0807C78.1473 56.9058 78.6496 59.8318 80.2567 62.2534L83.9732 67.6009L77.5446 66.9955C77.2433 66.9955 76.942 66.9955 76.6406 66.9955C74.029 66.9955 71.6183 68.0045 69.7098 69.8206C67.7009 71.8386 66.596 74.6637 66.8973 77.5897L67.5 84.0471L62.1763 80.3139C60.5692 79.1031 58.5603 78.4978 56.5513 78.4978C55.7478 78.4978 54.8437 78.5987 54.0402 78.8004C51.2277 79.5067 48.9174 81.5247 47.7121 84.148L45 90L42.1875 84.148"/>
	<path fill="#FF8E68" d="M82.6674 45C79.2522 43.3857 76.7411 40.3588 75.7366 36.7265C74.7321 33.0942 75.4353 29.1592 77.6451 26.0314C73.9286 26.3341 70.2121 25.0224 67.5 22.2982C64.7879 19.574 63.4821 15.8408 63.7835 12.1076C60.6696 14.3274 56.8527 14.9328 53.1362 14.0247C49.5201 13.0157 46.5067 10.4933 44.8996 7.0628C43.2924 10.4933 40.279 13.0157 36.6629 14.0247C33.0469 15.0336 29.1295 14.3274 26.0156 12.1076C26.317 15.8408 25.0112 19.574 22.2991 22.2982C19.5871 25.0224 15.971 26.3341 12.154 26.0314C14.3638 29.1592 14.9665 32.9933 14.0625 36.7265C13.058 40.3588 10.5469 43.3857 7.1317 45C10.5469 46.6144 13.058 49.6413 14.0625 53.2736C15.067 56.9058 14.3638 60.8408 12.154 63.9686C15.8705 63.6659 19.5871 64.9776 22.2991 67.7018C25.0112 70.426 26.317 74.0583 26.0156 77.8924C29.1295 75.6727 32.9464 75.0673 36.6629 75.9754C40.279 76.9843 43.2924 79.5067 44.8996 82.9372C46.5067 79.5067 49.5201 76.9843 53.1362 75.9754C56.7522 74.9664 60.6696 75.6727 63.7835 77.8924C63.4821 74.1592 64.7879 70.426 67.5 67.7018C70.2121 64.9776 73.9286 63.6659 77.6451 63.9686C75.4353 60.8408 74.8326 57.0067 75.7366 53.2736C76.6406 49.6413 79.2522 46.6144 82.6674 45"/>
	<path fill="#2D1B0A" d="M44.8996 85.3083L43.9956 83.3913C42.4889 80.2634 39.7768 77.8419 36.3616 77.0347C33.0469 76.1267 29.4308 76.7321 26.6183 78.75L24.8103 79.9608L25.0112 77.8419C25.3125 74.3105 24.1072 70.9809 21.596 68.4585C19.1853 65.9361 15.7701 64.7253 12.2545 65.028L10.1451 65.2298L11.3505 63.4137C13.3594 60.5886 13.9621 56.9563 13.0581 53.6267C12.154 50.2971 9.84377 47.472 6.62948 45.9585L4.721 45L6.72993 44.1424C9.84377 42.6289 12.2545 39.9047 13.1585 36.4742C14.0625 33.0437 13.4598 29.5123 11.4509 26.6872L10.2456 24.8711L12.3549 25.0729C15.8706 25.3756 19.1853 24.1648 21.6964 21.6424C24.1072 19.12 25.413 15.7904 25.1116 12.259L24.9107 10.1401L26.7188 11.3509C29.5313 13.3688 33.1473 13.9742 36.4621 13.0661C39.8772 12.1581 42.5893 9.83744 44.096 6.60874L45 4.6917L45.904 6.60874C47.4107 9.73654 50.1228 12.1581 53.538 12.9652C56.8527 13.8733 60.4688 13.2679 63.2813 11.25L65.0893 10.0392L64.8884 12.1581C64.5871 15.6895 65.7924 19.0191 68.3036 21.5415C70.8147 24.0639 74.1295 25.2747 77.6451 24.972L79.7545 24.7702L78.5491 26.5863C76.5402 29.4114 75.9375 33.0437 76.8415 36.3733C77.7456 39.7029 80.0558 42.528 83.1697 44.0415L85.0781 45L83.1697 45.8576C80.0558 47.3711 77.6451 50.0953 76.7411 53.5258C75.8371 56.8554 76.4397 60.4877 78.4487 63.3128L79.654 65.1289L77.5447 64.9271C74.029 64.6244 70.7143 65.8352 68.2031 68.3576C65.692 70.88 64.4866 74.2096 64.788 77.741L64.9889 79.8599L63.1808 78.6491C60.3683 76.6312 56.7522 76.0258 53.4375 76.9339C50.1228 77.8419 47.3103 80.1626 45.8036 83.3913L44.8996 85.3083M33.3482 74.5123C34.5536 74.5123 35.7589 74.7141 36.8639 75.0168C40.1786 75.9249 42.9911 78.0437 44.8996 80.8688C46.7076 78.0437 49.6206 75.9249 52.9353 75.0168C56.25 74.1087 59.7656 74.5123 62.779 76.0258C62.9799 72.5953 64.3862 69.3666 66.7969 66.9451C69.2076 64.5235 72.4219 63.111 75.8371 62.9092C74.3304 59.8823 73.9286 56.3509 74.8326 53.0213C75.7366 49.6917 77.846 46.8666 80.6585 45C77.846 43.1334 75.7366 40.2074 74.8326 36.8778C73.9286 33.5482 74.3304 30.0168 75.8371 26.9899C72.4219 26.7881 69.2076 25.3756 66.7969 22.954C64.3862 20.5325 62.9799 17.3038 62.779 13.8733C59.7656 15.3868 56.25 15.7904 52.9353 14.8823C49.6206 13.9742 46.8081 11.8554 44.8996 9.03027C43.0915 11.8554 40.279 13.9742 36.8639 14.8823C33.5491 15.7904 30.0335 15.3868 27.0201 13.8733C26.8192 17.3038 25.413 20.5325 23.0022 22.954C20.5915 25.3756 17.3772 26.7881 13.9621 26.9899C15.4688 30.0168 15.8706 33.5482 14.9665 36.8778C14.0625 40.2074 11.9531 43.0325 9.14064 45C11.9531 46.7657 14.0625 49.5908 14.9665 53.0213C15.8706 56.3509 15.4688 59.8823 13.9621 62.9092C17.3772 63.111 20.5915 64.5235 23.0022 66.9451C25.413 69.3666 26.8192 72.5953 27.0201 76.0258C29.029 75.0168 31.1384 74.5123 33.3482 74.5123"/>
	<path fill="#FFE161" d="M21.2947 45.101C21.2947 58.2176 31.8416 68.8117 44.8996 68.8117C57.9576 68.8117 68.5045 58.2176 68.5045 45.101C68.5045 31.9844 57.9576 21.3902 44.8996 21.3902C31.8416 21.3902 21.2947 31.9844 21.2947 45.101"/>
	<path fill="#2D1B0A" d="M44.8996 69.8208C31.3393 69.8208 20.2902 58.7221 20.2902 45.101C20.2902 31.48 31.3393 20.3813 44.8996 20.3813C58.4598 20.3813 69.509 31.48 69.509 45.101C69.509 58.7221 58.4598 69.8208 44.8996 69.8208M44.8996 22.3992C32.4442 22.3992 22.2991 32.5898 22.2991 45.101C22.2991 57.6122 32.4442 67.8028 44.8996 67.8028C57.3549 67.8028 67.5 57.6122 67.5 45.101C67.5 32.5898 57.3549 22.3992 44.8996 22.3992"/>
</svg>
