<?xml version="1.0" encoding="utf-8" ?>
<svg xmlns="http://www.w3.org/2000/svg" xmlns:xlink="http://www.w3.org/1999/xlink" width="72" height="114">
	<path fill="white" d="M67.0276 114L0 114L0 29.7085L12.8287 29.7085L12.8287 20.4435C12.8287 20.242 13.5249 10.7756 20.5856 5.03534C26.453 0.30212 33.6133 0 35.6022 0C38.4862 0 45.8453 0.402827 51.5138 5.13604C58.4751 11.1784 59.1713 20.242 59.1713 20.3428L59.1713 29.8092L72 29.8092L72 114L67.0276 114M46.1436 29.7085L46.1436 22.1555C46.1436 22.1555 46.0442 18.2279 43.1602 15.811C40.5746 13.2933 37.3923 13.0919 36.4972 13.0919L35.4033 13.0919C34.5083 13.0919 31.4254 13.2933 28.7403 15.5088C25.9558 17.7244 25.7569 22.3569 25.7569 22.4576L25.7569 29.8092L46.1436 29.8092"/>
	<path fill="#FFCF48" d="M3.0331 110.979L3.0331 32.7297L5.02205 32.7297L15.8618 32.7297L15.8618 20.5442C15.8618 20.1413 16.6574 12.0848 22.4254 7.35159C27.4972 3.32332 33.7624 3.0212 35.5524 3.0212C35.6519 3.0212 35.7513 3.0212 35.8508 3.0212C36 3.0212 36.1491 3.0212 36.348 3.0212C38.2375 3.0212 44.8011 3.32332 49.5745 7.4523C55.4419 12.5883 56.1381 20.1413 56.1381 20.5442L56.1381 32.8304L68.9668 32.8304L68.9668 110.979L66.9779 110.979L3.0331 110.979M49.1767 32.7297L49.1767 22.1555C49.1767 22.1555 49.0773 17.0194 45.2983 13.4947C42.0165 10.2721 37.8397 10.0707 36.5469 10.0707C36.348 10.0707 36.1491 10.0707 36.1491 10.0707C35.8508 10.0707 35.7513 10.0707 35.5524 10.0707C34.3591 10.0707 30.3812 10.2721 27.0994 13.0919C23.3204 16.2138 23.0221 22.1555 23.0221 22.1555L23.0221 32.629L49.1767 32.7297"/>
	<path fill="#2D1B0A" d="M69.9615 111.986L2.0388 111.986L2.0388 31.7226L14.8675 31.7226L14.8675 20.5441C14.8675 20.3427 15.4642 11.7826 21.8289 6.5459C27.199 2.31622 33.6631 2.0141 35.5526 2.0141C38.3371 2.0141 45.199 2.31622 50.1714 6.64661C56.536 12.2862 57.1327 20.4434 57.1327 20.5441L57.1327 31.8233L69.9615 31.8233L69.9615 111.986M4.02775 109.972L67.9725 109.972L67.9725 33.8374L55.1438 33.8374L55.1438 20.5441C55.1438 20.4434 54.5471 13.1925 48.8786 8.25792C44.4034 4.33035 38.1382 4.02823 36.3482 4.02823C33.862 4.02823 27.8952 4.33035 23.0222 8.15721C17.5526 12.5883 16.8565 20.4434 16.8565 20.4434L16.8565 33.7367L4.02775 33.7367L4.02775 109.972M50.1714 33.7367L22.0278 33.636L22.0278 22.1554C22.0278 21.8533 22.4255 15.7102 26.5029 12.2862C29.8841 9.36569 33.9615 9.06357 35.5526 9.06357C38.2377 9.06357 42.6134 9.4664 45.9946 12.7897C49.9725 16.5159 50.1714 21.954 50.1714 22.1554L50.1714 33.7367M24.0167 31.6219L48.1824 31.7226L48.1824 22.1554C48.1824 22.1554 47.9836 17.4222 44.6023 14.1996C41.7184 11.3798 37.9394 11.0777 36.5471 11.0777C34.4587 11.0777 30.7791 11.2791 27.6963 13.8975C24.315 16.7173 24.0167 22.1554 24.0167 22.2561L24.0167 31.6219"/>
	<path fill="#FDFEFF" d="M22.0973 60.3938L29.0586 65.0263C29.4564 65.2277 29.9537 65.1311 30.1525 64.8249L35.821 55.7613C36.0199 55.4592 36.0199 55.1571 35.821 54.855C35.2243 53.8479 33.5337 51.5316 31.3459 50.6253C28.7603 49.5175 26.9702 51.0281 26.3736 52.1359C25.7769 52.8408 22.9923 57.4733 21.8984 59.1854C21.7949 59.6889 21.7949 60.1924 22.0973 60.3938"/>
	<path fill="#2D1B0A" d="M29.4545 66.2348C29.0566 66.2348 28.7582 66.1342 28.4597 65.9326L21.4966 61.3002C20.6842 60.7966 20.4024 59.6889 20.9992 58.8832C22.3919 56.567 24.8787 52.6394 25.4755 51.7331C26.3708 50.2224 28.6587 48.5104 31.6429 49.8196C34.0303 50.8267 35.9202 53.3444 36.6166 54.3514C37.0145 54.9557 37.0145 55.6606 36.6166 56.2649L30.9466 65.3285C30.6482 65.7312 30.2503 66.0334 29.8524 66.1342C29.7529 66.2348 29.6534 66.2348 29.4545 66.2348M22.7898 59.6889L29.355 64.1199L34.826 55.3585C34.3287 54.5528 32.7371 52.438 30.8472 51.6323C28.7582 50.726 27.465 51.9345 27.0671 52.6394C26.7687 53.3444 25.1771 55.862 22.7898 59.6889"/>
	<path fill="#FDFEFF" d="M34.7271 51.9345C37.6111 55.1571 39.5006 59.8903 40.0973 61.6023C40.1968 62.0052 40.0973 62.408 39.6995 62.6094L46.9592 64.4221C47.2575 64.4221 47.5559 64.3214 47.6553 64.0193L50.3404 56.4663C49.7437 56.7684 49.2465 56.6677 49.0476 56.2649C48.3514 54.9557 46.8597 52.2366 45.6664 51.3302C45.5669 51.3302 45.5669 51.2295 45.4675 51.2295C43.6774 50.5246 38.3073 50.5246 35.2244 50.5246C34.546 50.6253 34.3294 51.4309 34.7271 51.9345"/>
	<path fill="#2D1B0A" d="M47.0607 65.5299L37.6173 63.6164L39.1084 61.8037C38.4126 59.8903 36.6233 55.5599 33.9394 52.5387C33.4734 52.0352 33.3429 51.2295 33.6411 50.6253C33.9394 49.9203 34.5358 49.5175 35.2316 49.5175C40.8977 49.5175 44.3768 49.7189 45.7685 50.2225C45.9673 50.3232 46.0667 50.3232 46.1661 50.4239C47.4583 51.3302 48.85 53.6465 49.7446 55.4592L51.8321 54.9557L48.4524 64.3214C48.353 65.127 47.7565 65.5299 47.0607 65.5299M41.1959 62.3073L46.9613 63.5157L49.0488 57.6747C48.6512 57.4733 48.4524 57.2719 48.2536 56.8691C47.0607 54.5528 45.8679 52.8408 45.172 52.3373C44.3768 52.0352 42.1899 51.7331 35.828 51.7331C38.6114 55.0564 40.4006 59.5882 41.0965 61.4009C41.1959 61.6023 41.1959 61.9044 41.1959 62.3073"/>
	<path fill="#FDFEFF" d="M23.8873 64.2206L16.7271 64.5228C15.9315 64.5228 15.6332 65.6305 16.4288 66.0334C16.8265 66.2348 16.926 66.7383 16.7271 67.1411C15.9315 68.4503 14.5345 71.2701 14.5345 72.8814C14.5345 74.4928 17.4232 79.4274 19.0144 82.0457C19.4122 82.6499 20.2078 82.5492 20.4067 81.8443C21.6995 77.6146 24.7823 73.4857 25.8763 71.9751C26.0751 71.673 26.5724 71.5722 26.8707 71.7737L24.484 64.4221C24.484 64.4221 24.1857 64.2206 23.8873 64.2206"/>
	<path fill="#2D1B0A" d="M19.8017 83.5563C19.205 83.5563 18.6083 83.2542 18.3099 82.6499C13.6155 74.9963 13.6155 73.4856 13.6155 72.9821C13.437 71.2701 14.7298 68.7524 15.8238 66.9397C15.2271 66.5369 14.9287 65.7312 15.0282 65.0263C15.2271 64.2206 15.9232 63.6164 16.7188 63.6164L23.879 63.3143C24.5751 63.3143 25.1718 63.6164 25.4702 64.2206L28.9508 72.7807L26.8624 73.0828C25.5696 74.5935 22.7851 78.521 21.5917 82.4485C21.3928 83.1535 20.7961 83.5563 20.1 83.6571C19.9011 83.5563 19.8017 83.5563 19.8017 83.5563M17.3155 65.5298C17.5144 65.7312 17.7133 66.0333 17.8127 66.3354C17.9121 66.839 17.9121 67.3425 17.6138 67.7454C16.321 69.9609 15.5254 71.8743 15.6249 72.8814C15.6249 73.687 16.7188 76.2048 19.7022 81.2401C21.0945 77.1111 23.9785 73.0828 25.1718 71.4715C25.3707 71.1694 25.6691 70.968 25.9674 70.8672L23.6801 65.2277L17.3155 65.5298"/>
	<path fill="#FDFEFF" d="M34.4332 80.0317L34.1348 88.3903C34.1348 88.7932 33.737 89.196 33.3393 89.196L25.1845 89.196C25.1845 89.196 21.7039 89.196 20.9637 85.4698C20.7094 83.2543 22.0022 80.5352 22.5989 79.4274C22.6984 79.1253 22.9967 79.0246 23.295 79.0246L33.737 79.226C34.1348 79.226 34.5326 79.6289 34.4332 80.0317"/>
	<path fill="#2D1B0A" d="M33.3348 90.2031L25.1802 90.2031C23.6885 90.2031 20.705 89.2967 19.9387 85.6713C19.6111 83.0529 21.0034 80.1324 21.6995 79.0246C21.9979 78.4204 22.5945 78.1183 23.2907 78.1183L33.7326 78.3197C34.2299 78.3197 34.6277 78.5211 35.0255 78.9239C35.3238 79.3267 35.5227 79.7296 35.5227 80.2331L35.2243 88.5918C35.1249 89.3975 34.3293 90.2031 33.3348 90.2031M23.3901 80.0317C22.8929 80.938 21.6995 83.4557 21.9979 85.2684C22.4951 88.0882 25.0807 88.0882 25.1802 88.0882L33.1359 88.0882L33.4343 80.1324L23.3901 80.0317"/>
	<path fill="#FDFEFF" d="M41.6885 77.514L36.7161 83.5564C36.5669 83.8585 36.5669 84.1606 36.7161 84.362L40.4951 90.5052C40.8929 91.2101 41.9868 90.9003 41.9868 90.1023C41.9868 89.5988 42.3846 89.2967 42.7824 89.2967C44.2741 89.3974 47.357 89.3974 48.7492 88.5917C50.042 87.7861 52.926 83.1535 54.7161 80.0316C55.0145 79.4274 54.5173 78.7224 53.821 78.8232C49.5448 79.6288 44.5725 79.0246 42.683 78.7224C42.2852 78.6217 41.9868 78.3196 41.9868 77.9168"/>
	<path fill="#2D1B0A" d="M41.1912 92.0157C40.5945 92.0157 39.9978 91.7136 39.6995 91.1093L35.9205 84.9663C35.5227 84.362 35.5227 83.6571 35.9205 83.0528L41.7879 75.8019L42.9813 77.7154C44.9702 78.2189 49.6442 78.8232 53.5228 78.0175C54.2188 77.9168 54.915 78.1182 55.3128 78.7224C55.7105 79.3267 55.81 80.0316 55.4123 80.6359C54.2188 82.7507 50.8377 88.491 49.147 89.5987C47.7547 90.5051 44.9702 90.6059 42.8818 90.5051C42.7824 91.2101 42.2851 91.8143 41.589 92.0157C41.4896 92.0157 41.2907 92.0157 41.1912 92.0157M37.7105 84.0599L41.0918 89.6994C41.1912 89.3973 41.3901 89.1959 41.589 88.9946C41.9868 88.6925 42.3846 88.491 42.8818 88.491C45.4674 88.5918 47.4565 88.3903 48.2519 87.8867C49.0476 87.3832 51.6331 83.7578 53.6222 80.1323C49.346 80.938 44.473 80.233 42.5835 79.9309C42.1857 79.8302 41.8873 79.7295 41.589 79.4274L37.7105 84.0599"/>
	<path fill="#FDFEFF" d="M52.6276 63.5331L45.0696 67.3426C44.5938 67.5441 44.4729 68.0476 44.5938 68.4504L49.7437 77.8162C49.8431 78.1183 50.1414 78.219 50.4398 78.219C51.5337 78.219 54.4177 78.0176 56.3072 76.4063C58.8928 74.3921 57.7989 71.4716 57.6 71.0688C57.6 71.0688 57.6 71.0688 57.6 70.9681L53.6221 63.8179C53.4232 63.5331 53.0254 63.4151 52.6276 63.5331"/>
	<path fill="#2D1B0A" d="M50.5392 79.3267C49.8431 79.3267 49.2464 78.9235 48.9481 78.4195L43.8763 69.0453C43.6684 68.6421 43.6684 68.1381 43.7768 67.6341C43.9757 67.1301 44.2741 66.727 44.6718 66.5254L52.2299 62.7958C53.1249 62.3926 54.1194 62.618 54.6166 63.5014L58.6939 70.8597C59.4895 72.674 59.4895 75.3956 57.1028 77.4116C54.8155 79.0243 51.7326 79.3267 50.5392 79.3267M45.7658 68.1381L50.6387 77.3108C51.7326 77.3108 54.1194 77.0084 55.81 75.698C57.7989 74.0852 57.0033 71.9685 56.8044 71.5653L52.926 64.6102L45.7658 68.1381"/>
</svg>
