<?xml version="1.0" encoding="utf-8" ?>
<svg xmlns="http://www.w3.org/2000/svg" xmlns:xlink="http://www.w3.org/1999/xlink" width="98" height="98">
	<path fill="white" d="M98 85.0736L89.2375 76.2557C97.7013 63.229 97.6017 50.503 97.5022 48.8998C97.5022 46.9959 97.6017 28.6585 82.8648 14.3293C68.9245 0.701431 52.3953 0 49.2089 0C49 0 48.7111 0 48.6115 0C46.5205 0 28.2985 0.400818 14.2586 14.7301C0 29.4601 0 47.2966 0 49.3006C0 51.1043 -0.279083 67.0368 12.7651 81.867C25.9088 97.2986 44.6286 98 48.2133 98C48.6115 98 48.8107 98 48.8107 98L51.6983 97.8998L51.6983 81.5665L51.6983 78.4601L48.512 78.5603C47.317 78.5603 36.9614 78.3599 28.2985 70.3435C19.3369 61.8261 19.3369 48.8998 19.3369 48.7996C19.3369 48.5992 19.0382 37.2761 27.9002 28.0573C33.7751 21.9447 41.1435 20.1411 45.3256 19.5399C44.2302 20.8425 43.6328 21.7443 42.9359 22.546C42.4379 23.2475 41.8405 23.9488 41.4422 24.4499C32.5802 34.8711 35.7666 42.6871 38.6541 45.593C39.1521 46.0941 39.7495 46.5951 40.4465 47.0962L39.3512 48.499C38.8533 49.2004 38.1563 50.1022 37.5589 50.9038C37.061 51.5051 36.6627 52.1063 36.364 52.6074C29.2943 61.0245 31.9828 67.8384 34.5717 70.2434C36.4635 72.2475 39.4508 73.5501 42.2388 73.5501C45.1265 73.5501 47.7153 72.3476 49.4081 70.043C50.8021 68.3395 52.2957 65.6339 51.7979 61.8261C52.1962 62.4274 52.5944 62.9284 52.8931 63.3293C54.6855 65.3334 57.4736 66.5358 60.3612 66.5358C62.5518 66.5358 64.5433 65.8343 66.3356 64.5317L66.3356 85.274L98 85.0736M57.4736 42.1861C59.5646 37.0757 58.1705 30.9632 53.2915 25.1513C52.2957 23.9488 49.5076 20.3415 49.5076 20.2413C48.8107 19.3395 49 19.3395 49 19.3395C50.8021 19.3395 60.9586 19.7402 69.2233 27.957C78.2845 36.9755 77.8862 48.3988 77.8862 48.499C77.8862 49 78.2845 55.9141 74.5007 63.0286L70.1194 58.6197C70.8165 55.4131 70.219 51.1043 65.8378 45.6933C64.9416 44.591 62.6514 41.5848 62.5518 41.5848L60.2617 38.5788L57.8718 41.4847C57.8718 41.7852 57.6727 41.9856 57.4736 42.1861M50.4039 57.1166C49.7069 55.7137 48.7111 54.2107 47.4166 52.6074C46.7196 51.7055 45.0269 49.6012 44.4295 48.7996C45.4252 49 46.4209 49.2004 47.4166 49.2004C49.8064 49.2004 51.997 48.499 53.7894 47.1963C51.0013 51.0041 50.2047 54.4111 50.4039 57.1166"/>
	<path fill="#FFCF48" d="M48.8017 94.7454L48.8017 81.3112C48.8017 81.3112 36.5555 81.7122 26.2995 72.2929C16.2426 62.6732 16.4417 48.5444 16.4417 48.5444C16.4417 48.5444 16.0434 36.0188 25.8016 25.6978C35.3607 15.7775 48.5043 16.0781 48.5043 16.0781C48.5043 16.0781 61.1501 15.3767 71.4061 25.4974C81.6621 35.618 80.9651 48.344 80.9651 48.344C80.9651 48.344 81.6621 58.4647 75.0903 67.4831L69.4146 61.7713L69.4146 82.0126L90.8229 81.8124L85.3463 76.301C95.2044 62.6732 94.5177 48.6446 94.5177 48.6446C94.5177 48.6446 95.2044 30.2071 80.766 16.1784C66.1287 1.94933 48.7034 2.74275 48.7034 2.74275C48.7034 2.74275 30.382 2.35015 16.4417 16.5793C2.30237 31.1089 3.0857 49.0454 3.0857 49.0454C3.0857 49.0454 2.2028 64.8777 15.1473 79.6078C28.7888 95.5404 48.8017 94.7454 48.8017 94.7454"/>
	<path fill="#2D1B0A" d="M48.2151 95.7955C44.63 95.7955 27.0035 94.9939 14.3562 80.2629C1.50981 65.6322 2.078 50.1998 2.078 48.9974C2.078 47.6946 1.70898 30.258 15.7505 15.8277C29.7919 1.49769 48.0159 1.6926 48.8017 1.6926C49.4101 1.6926 66.6383 0.996635 81.4764 15.4269C96.1151 29.5566 95.5254 47.8951 95.5254 48.7441C95.5254 49.1977 96.1151 62.7262 86.6548 76.2545L93.2274 82.8684L68.4308 83.0689L68.4308 59.4192L75.0034 66.0331C80.5802 57.6154 79.9827 48.5965 79.9827 48.4963C79.9827 48.1956 80.4806 35.8698 70.7213 26.2496C60.8624 16.5292 48.8017 17.1305 48.6134 17.1305C48.4143 17.1305 35.6674 16.93 26.6051 26.45C17.2442 36.3708 17.543 48.4963 17.543 48.5965C17.543 48.7441 17.4434 62.4255 27.1031 71.6449C36.8624 80.6638 48.8017 80.3631 48.9122 80.3631L49.908 95.7955C48.8017 95.7955 48.5139 95.7955 48.2151 95.7955M48.8017 3.80252C47.3188 3.80252 30.1903 4.10315 17.2442 17.3309C3.60109 31.3603 4.1986 48.8972 4.1986 49.0975C4.1986 49.3982 3.5015 64.8306 16.0492 79.0605C27.601 92.4886 43.8334 93.7913 48.0159 93.8915L48.0159 82.3673C44.8293 82.2671 34.6715 81.1649 25.8085 73.0478C15.5512 63.2272 15.6509 49.0975 15.6509 48.4963C15.6509 47.9953 15.3521 35.469 25.3106 24.9468C35.0699 14.8256 48.2151 15.026 48.8017 15.026C49.2109 15.026 61.8582 14.4248 72.3147 24.7465C82.4723 34.7675 82.1736 47.1935 82.1736 48.2959C82.2731 49.298 82.5718 59.1185 76.0988 68.0373L70.6217 64.129L70.6217 80.9644L88.6466 80.764L84.2648 76.3547C94.3228 62.5257 93.7253 48.7441 93.7253 48.5965C93.7253 48.2959 94.2233 30.3582 80.2814 16.8298C65.9412 3.20126 48.9122 3.80252 48.8017 3.80252"/>
	<path fill="#2D1B0A" d="M47.4168 47.4969C44.5292 47.4969 41.542 46.2945 39.7497 44.3906C39.7497 44.3906 32.4808 37.276 42.1394 25.9529C43.0356 24.8507 43.633 24.049 44.2305 23.3476C44.8279 22.5459 45.5249 21.7443 46.1224 20.9427L47.3172 19.4396L48.5121 20.9427C48.5121 20.9427 51.3002 24.6502 52.2959 25.8527C54.2874 28.2576 60.3613 36.775 54.4865 44.1902C52.7938 46.1942 50.404 47.2965 47.7155 47.3967C47.616 47.3967 47.5164 47.4969 47.4168 47.4969M44.33 27.8568C36.6629 36.8752 41.6416 41.9856 41.8407 42.2863C43.1352 43.6891 45.5249 44.591 47.616 44.4908C48.9104 44.4908 50.7027 44.0899 52.0968 42.3865C56.478 36.8752 51.9972 30.4621 49.9061 27.8568C49.2091 27.0552 48.0143 25.5521 47.1181 24.3496C46.919 24.6502 46.7198 24.9509 46.4211 25.1512C45.4254 26.4539 44.8279 27.3558 44.33 27.8568"/>
	<path fill="#D4EDF9" d="M47.2287 21.8444C47.2287 21.8444 50.0167 25.552 51.112 26.8547C53.1035 29.2596 58.4804 36.7749 53.3026 43.2882C49.8176 47.4969 43.4449 46.094 40.856 43.2882C40.856 43.2882 34.4833 37.1758 43.2457 26.8547C43.2457 26.9549 45.6355 23.8485 47.2287 21.8444"/>
	<path fill="#2D1B0A" d="M42.2391 71.8466C39.7497 71.8466 37.1608 70.7444 35.5677 68.9407C34.8707 68.2392 29.892 62.3272 37.4595 53.409C37.7583 53.0081 38.1566 52.5071 38.754 51.7055C39.3514 50.9038 40.148 50.002 40.6459 49.3006L41.8408 47.6973L43.0356 49.3006C43.0356 49.3006 45.4254 52.4069 46.3215 53.5092C52.3955 61.0245 50.8025 66.0347 48.313 69.0409C47.0186 70.7444 45.0271 71.8466 42.7369 71.9468C42.5378 71.8466 42.4382 71.8466 42.2391 71.8466M41.6416 52.8077L39.7497 55.3129C33.4766 62.728 37.5591 66.8364 37.6587 66.8364C38.8536 68.139 40.7455 68.9407 42.5378 68.8405C43.5336 68.8405 44.9276 68.4397 45.9232 67.0368C48.5121 63.9304 47.8152 60.0225 43.9319 55.3129C43.434 54.7116 42.5378 53.6094 41.8408 52.6073C41.7412 52.6073 41.7412 52.7075 41.6416 52.8077"/>
	<path fill="#D4EDF9" d="M41.8408 50.1022C41.8408 50.1022 44.2305 53.2085 45.1267 54.3108C46.919 56.5153 51.4993 62.6278 47.1181 67.9386C44.3301 71.6462 39.0527 70.5439 36.663 67.9386C36.663 67.9386 31.3856 62.9284 38.6544 54.3108C38.5549 54.3108 40.7455 51.6053 41.8408 50.1022"/>
	<path fill="#2D1B0A" d="M60.4609 64.8322C60.4609 64.8322 60.3614 64.8322 60.3614 64.8322C57.872 64.8322 55.4823 63.73 53.9887 62.0265C53.1921 61.2248 48.5122 55.413 55.8806 46.595C56.2789 45.8935 57.2746 44.5909 59.1665 42.2862L60.3614 40.7831L61.5562 42.2862C61.5562 42.2862 63.9459 45.3925 64.8421 46.4948C70.916 54.0101 69.3228 59.0203 66.8335 62.0265C65.1409 63.8301 62.9502 64.8322 60.4609 64.8322M60.1622 45.8935L58.3699 48.3987C52.1964 55.7136 56.0797 59.822 56.2789 59.9222C57.2746 61.1246 58.8677 61.8261 60.4609 61.8261C61.5562 61.8261 63.249 61.5255 64.5434 60.0224C67.0328 57.0162 66.3357 53.1083 62.5519 48.2984C62.0541 47.6972 61.1579 46.4948 60.3614 45.5929C60.2618 45.6931 60.1622 45.7933 60.1622 45.8935"/>
	<path fill="#D4EDF9" d="M60.3761 43.1881C60.3761 43.1881 62.7659 46.2944 63.662 47.3967C65.4543 49.6012 70.0347 55.7137 65.6535 61.0245C62.5667 64.5316 57.3889 63.6297 55.1983 61.0245C55.1983 61.0245 49.921 56.0143 57.1898 47.3967C57.0902 47.3967 59.0817 44.7914 60.3761 43.1881"/>
</svg>
