<?xml version="1.0" encoding="utf-8" ?>
<svg xmlns="http://www.w3.org/2000/svg" xmlns:xlink="http://www.w3.org/1999/xlink" width="74" height="106">
	<path fill="white" d="M38.0835 106C27.1203 106 16.2568 101.3 9.67893 93.8C8.78194 92.9 2.60269 86.2 0.609387 74.6C-1.28425 63.5 0.310392 45.6 18.9478 23.3C19.6455 22.5 29.014 10.6 34.5952 3.1L36.8875 0L39.2795 3.1C39.3792 3.3 51.4387 18.5 55.226 23.5C82.2352 57.9 75.159 80.7 64.4948 93.8C58.0166 101.6 48.5484 106 38.0835 106"/>
	<path fill="#3BA7FF" d="M36.8224 4.4C36.8224 4.4 48.882 19.7 52.7688 24.8C60.8418 35.1 83.3661 65.3 62.1375 91.4C47.686 108.9 22.371 103.7 11.7068 91.4C11.7068 91.4 -13.6082 66.4 21.0753 24.8C21.1749 24.7 30.9422 12.3 36.8224 4.4"/>
	<path fill="#2D1B0A" d="M38.0185 103.6C27.753 103.6 17.1885 99.1 11.0092 92C10.8099 91.8 4.53101 85.4 2.43804 73.8C0.5444 63.1 2.13904 45.9 20.3778 24.1C20.7764 23.6 30.3443 11.5 36.1249 3.7L36.9222 2.7L37.7195 3.7C37.8192 3.9 49.779 19.1 53.666 24.1C74.6954 50.9 77.785 73.7 63.0345 91.9C56.9549 99.3 48.1844 103.4 38.5169 103.6C38.3175 103.6 38.1182 103.6 38.0185 103.6M36.9222 6C31.2413 13.5 22.0721 25.2 21.8728 25.5C8.01929 42.2 1.93971 58.7 4.43134 73.4C6.32498 84.4 12.4046 90.6 12.5042 90.7C18.3845 97.5 28.5503 101.8 38.4172 101.7C44.8954 101.6 54.1643 99.7 61.4399 90.8C75.5923 73.4 72.4031 51.4 52.0713 25.5C48.7824 21.1 39.6132 9.5 36.9222 6"/>
	<path fill="white" d="M22.8746 54.2799L30.4492 59.3799L36.1301 49.9799C36.1301 49.9799 34.4358 46.7799 31.9442 45.7799C29.4525 44.7799 27.7582 46.2799 27.0606 47.1799C26.5622 48.0799 22.8746 54.2799 22.8746 54.2799"/>
	<path fill="#2D1B0A" d="M30.7482 60.7799L21.4793 54.5798C23.4726 51.2799 25.7649 47.3799 26.0639 46.6799C26.9609 45.5799 29.0539 43.5799 32.2431 44.7799C35.0338 45.8799 36.9274 49.2799 36.9274 49.4799L30.7482 60.7799M24.2699 53.9799L30.1502 57.9799L34.9341 49.9799C34.4358 49.0799 33.1401 47.3799 31.5455 46.6799C29.8512 45.9799 28.5555 46.7799 27.8579 47.6799C27.3596 48.5799 25.2666 52.2799 24.2699 53.9799"/>
	<path fill="white" d="M33.6384 45.6319C37.4257 49.1799 40.017 56.2799 40.017 56.2799L37.027 57.7799L46.5949 58.2799L51.2792 49.6799L48.2892 51.3799C48.2892 51.3799 46.2959 47.1799 44.8009 46.2799C43.0069 45.3799 35.0337 45.6319 33.6384 45.6319"/>
	<path fill="#2D1B0A" d="M47.0933 59.3799L33.2398 58.5799L38.7214 55.7799C37.924 53.8799 35.8311 49.0799 32.9408 46.3799L31.0471 44.6609L34.3361 44.6609C40.7147 44.6609 44.0037 44.8799 45.1996 45.4799C46.4953 46.1799 47.8905 48.5799 48.688 50.0799L53.7709 47.1799L47.0933 59.3799M40.7147 56.9799L45.9969 57.2799L48.688 52.2799L47.2925 51.7799C46.4953 50.1799 45.0999 47.6799 44.2029 47.1799C43.7047 46.8799 41.811 46.5799 35.8311 46.5799C38.9207 50.3799 40.8144 55.5799 40.8144 55.8799L40.7147 56.9799"/>
	<path fill="white" d="M25.4659 57.9799L15.898 58.2799L18.888 59.9799C18.888 59.9799 16.3963 63.7799 16.3963 65.6798C16.5957 67.4799 20.7816 74.5798 21.5789 75.5798C22.3762 70.3799 27.2598 64.6798 27.2598 64.6798L30.0505 66.4799L25.4659 57.9799"/>
	<path fill="#2D1B0A" d="M22.2766 77.8799L20.8813 76.1799C19.9843 75.1799 15.599 67.8799 15.3997 65.6798C15.3997 64.0798 16.6953 61.6799 17.4926 60.2799L12.3101 57.3799L26.0639 56.9799L32.841 69.4799L27.4592 65.9799C26.1636 67.5798 23.1735 71.8799 22.5756 75.6799L22.2766 77.8799M19.5856 59.1799L19.785 60.5798C18.7883 62.0798 17.393 64.6798 17.393 65.6798C17.4926 66.7799 19.6853 70.7799 21.1803 73.1799C22.775 68.4799 26.3629 64.2799 26.4626 64.0798L24.9676 59.0798L19.5856 59.1799"/>
	<path fill="white" d="M34.7226 71.5798L34.4236 80.6799L26.1515 80.6799C26.1515 80.6799 22.9622 80.6799 22.4302 77.2799C22.1648 74.5798 23.9588 71.3799 23.9588 71.3799L34.7226 71.5798"/>
	<path fill="#2D1B0A" d="M35.3198 81.6798L26.1506 81.6798C24.7553 81.6798 21.9647 80.7799 21.4344 77.4799C21.1674 74.4799 23.061 71.0798 23.1607 70.9799L35.7185 70.7799L35.3198 81.6798M24.6556 72.3799C24.1573 73.3799 23.36 75.3799 23.5593 77.1798C23.8583 79.6798 26.1506 79.6798 26.2503 79.6798L33.4262 79.6798L33.6255 72.5798L24.6556 72.3799"/>
	<path fill="white" d="M41.512 67.7798L36.4291 75.9798L41.3127 84.1798L41.512 80.7798C41.512 80.7798 45.8973 81.0798 47.5916 80.0798C49.0866 79.2798 52.4752 73.1798 53.6712 70.7798C48.7876 72.4798 41.4123 70.9798 41.4123 70.9798L41.512 67.7798"/>
	<path fill="#2D1B0A" d="M42.2096 87.5798L35.3327 75.9799L42.708 63.9799L42.409 70.1798C44.4023 70.4799 49.6845 71.1798 53.2724 69.8799L55.5648 69.0798L54.5681 71.2799C54.5681 71.3799 50.3822 79.7799 48.09 80.9799C46.6945 81.7798 44.0036 81.8799 42.5086 81.8799L42.2096 87.5798M37.625 75.9799L40.5153 80.7798L40.5153 79.6798C43.1066 79.8799 45.9969 79.8799 46.9935 79.1798C47.8905 78.6798 50.0832 75.1798 51.6778 72.2799C46.8939 73.0798 41.4123 71.9799 41.1133 71.8799L37.625 75.9799"/>
	<path fill="white" d="M51.7775 57.1798L43.7046 61.2798L48.7875 70.8871C48.7875 70.8871 52.4752 71.0798 54.6678 69.3798C57.1594 67.2798 55.6644 64.4799 55.6644 64.4799L51.7775 57.1798"/>
	<path fill="#2D1B0A" d="M48.9869 71.8799C48.7875 71.8799 48.6879 71.8799 48.6879 71.8799L42.3093 60.8798L52.0765 55.8798L56.4618 63.9799C57.1594 65.1798 57.7574 67.9799 55.2658 70.1798C53.1728 71.6798 49.9835 71.8799 48.9869 71.8799M45.0999 61.6798L49.3855 69.8799C50.3822 69.8799 52.6745 69.6798 54.0698 68.5798C55.8638 67.0798 54.8671 65.1798 54.7675 64.9799L51.2792 58.5798L45.0999 61.6798"/>
</svg>
