<?xml version="1.0" encoding="utf-8" ?>
<svg xmlns="http://www.w3.org/2000/svg" xmlns:xlink="http://www.w3.org/1999/xlink" width="58" height="90">
	<path fill="white" d="M5.88112 89.9004C2.63636 89.9004 0 87.4115 0 84.3252L0 25.2876C0 24.7898 0.304196 22.5996 1.21678 20.9071C1.92657 19.5133 3.24476 18.5177 3.95455 18.0199L22.8147 2.28982C23.4231 1.79204 25.5524 0 28.7972 0C32.1434 0 34.7797 1.89159 35.0839 2.09071L57.2902 20.6084C57.8986 22.4004 58 24.0929 58 25.2876L58 84.4248C58 87.5111 55.3636 90 52.1189 90L5.88112 90M26.972 15.4314C27.5804 15.9292 28.2902 16.0288 28.5944 16.0288C29.4056 15.9292 30.2168 15.9292 30.8252 15.3319C31.6364 14.5354 31.7378 13.3407 31.7378 13.2412C31.7378 13.2412 31.6364 12.146 31.028 11.6482C30.3182 10.9513 29.4056 10.6527 29 10.6527C28.5944 10.6527 27.6818 10.8518 26.972 11.5487C26.5664 11.9469 26.3636 12.9425 26.3636 13.3407C26.2622 13.5398 26.1608 14.5354 26.972 15.4314"/>
	<path fill="#5D985B" d="M54.5525 22.5994C54.9581 23.2963 54.9581 25.1879 54.9581 25.1879L54.9581 84.3251C54.9581 85.8184 53.6399 86.9135 52.1189 86.9135L5.88116 86.9135C4.36018 86.9135 3.042 85.8184 3.042 84.3251L3.042 25.387C3.042 25.387 3.2448 23.3958 3.95459 22.1016C4.36018 21.2056 5.77976 20.3096 5.77976 20.3096L24.8427 4.38036C24.8427 4.38036 26.3637 2.887 28.7972 2.887C31.2308 2.887 33.2588 4.38036 33.2588 4.38036L52.8287 20.7078C52.7273 20.8074 53.8427 21.7034 54.5525 22.5994M29 7.5662C29 7.5662 26.5665 7.5662 24.7413 9.35824C23.2203 10.8516 23.2203 13.241 23.2203 13.241C23.2203 13.241 23.0175 15.4312 24.7413 17.4224C26.5665 19.2144 29 18.9158 29 18.9158C29 18.9158 31.2308 19.1149 32.9546 17.4224C34.7798 15.6304 34.7798 13.241 34.7798 13.241C34.7798 13.241 34.7798 10.8516 32.9546 9.35824C31.4336 7.76532 29 7.5662 29 7.5662"/>
	<path fill="#2D1B0A" d="M52.1188 87.9093L5.88105 87.9093C3.75168 87.9093 2.0279 86.3164 2.0279 84.3252L2.0279 25.3872C2.0279 25.1881 2.2307 23.0974 3.04189 21.604C3.44748 20.6084 4.76566 19.7124 5.17126 19.5133L24.2342 3.58408C24.2342 3.58408 26.0594 1.8916 28.7971 1.8916C31.5349 1.8916 33.7657 3.48452 33.8671 3.58408L54.3496 20.6084C54.5524 21.0066 55.0594 21.5044 55.3636 21.9027C55.972 22.8982 55.972 24.5907 55.972 25.0885L55.972 84.2257C55.972 86.3164 54.2482 87.9093 52.1188 87.9093M28.7971 3.88275C26.8706 3.88275 25.5524 5.07744 25.5524 5.07744L6.28664 21.1062C5.77965 21.4049 5.06986 22.0022 4.86706 22.5C4.36007 23.4956 4.05587 24.9889 4.05587 25.4867L4.05587 84.3252C4.05587 85.3208 4.96846 85.9181 5.88105 85.9181L52.1188 85.9181C53.0314 85.9181 53.944 85.3208 53.944 84.3252L53.944 25.1881C53.944 24.3916 53.8426 23.396 53.7412 23.0974C53.437 22.6991 53.0314 22.3009 52.7272 22.0022C52.423 21.7035 52.2202 21.5044 52.0174 21.2058L32.6503 5.07744C32.5489 5.177 30.8251 3.88275 28.7971 3.88275M28.5943 19.9115C27.6817 19.9115 25.6538 19.7124 24.0314 18.1195C22.0034 15.7301 22.2062 13.2412 22.2062 13.1416C22.2062 13.1416 22.2062 10.4535 24.0314 8.66151C26.1608 6.5708 28.8985 6.5708 28.9999 6.5708C29.2027 6.5708 31.9405 6.76992 33.6643 8.66151C35.7936 10.4535 35.7936 13.1416 35.7936 13.2412C35.7936 13.3407 35.7936 16.0288 33.6643 18.1195C31.8391 19.9115 29.5069 19.9115 28.9999 19.9115C28.8985 19.9115 28.7971 19.9115 28.5943 19.9115M28.8985 8.56195C28.5943 8.56195 26.7692 8.76107 25.3496 10.0553C24.1328 11.25 24.1328 13.2412 24.1328 13.2412C24.1328 13.4403 24.0314 15.1328 25.451 16.7257C26.8706 18.1195 28.7971 17.9204 28.7971 17.9204C29.1013 17.9204 30.8251 18.0199 32.1433 16.7257C33.6643 15.2323 33.6643 13.2412 33.6643 13.2412C33.6643 13.2412 33.6643 11.25 32.2447 10.1549C31.0279 8.86063 29.2027 8.66151 28.8985 8.56195"/>
	<path fill="white" d="M17.0654 44.5918L23.9605 48.9724L29.0304 40.9082C29.0304 40.9082 27.5095 37.8219 25.0759 37.0254C23.048 36.1294 21.527 37.4236 20.8172 38.3197C20.4116 39.1161 17.0654 44.5918 17.0654 44.5918"/>
	<path fill="#2D1B0A" d="M24.2647 50.3661L15.6458 44.8905C17.0654 42.6006 19.499 38.5188 19.9046 37.9214C21.4256 35.8307 23.4535 35.2334 25.4815 36.1294C28.2192 37.0254 29.9431 40.4104 29.9431 40.5099L24.2647 50.3661M18.3836 44.2931L23.5549 47.5785L27.8136 40.9082C27.3066 40.1117 26.1913 38.5188 24.6703 38.021C23.2507 37.4236 22.2368 38.2201 21.6284 38.917C21.2228 39.7135 19.2962 42.7998 18.3836 44.2931"/>
	<path fill="white" d="M26.7997 36.9026C30.3486 40.011 32.5794 46.2831 32.5794 46.2831L29.9431 47.5774L38.5619 47.7765L42.5165 40.4092L39.8801 41.9026C39.8801 41.9026 38.0549 38.2189 36.7368 37.522C35.2158 36.7256 28.1179 36.9026 26.7997 36.9026"/>
	<path fill="#2D1B0A" d="M39.1703 48.7732L25.8871 48.4745L31.3626 45.7865C30.6529 43.9944 28.7263 39.9126 26.1913 37.6228L24.1633 35.9058L27.5095 35.9058C33.2892 35.9058 36.1283 36.0298 37.2438 36.6272C38.3591 37.2245 39.6773 39.2157 40.2858 40.5099L45.0514 37.8219L39.1703 48.7732M33.7962 46.6825L37.9535 46.782L39.9815 42.9989L38.9675 42.302C38.1563 40.709 36.9395 38.7179 36.2297 38.3197C35.8242 38.1205 34.1004 37.8219 29.1319 37.8219C31.8696 41.2068 33.492 45.6869 33.5934 45.886"/>
	<path fill="white" d="M19.499 47.7777L10.8801 47.9768L13.5165 49.4701C13.5165 49.4701 11.2857 52.9547 11.2857 54.448C11.2857 56.2401 15.2403 62.3131 15.9501 63.2091C16.8627 58.6295 21.0201 53.6516 21.0201 53.6516L23.6563 55.1449L19.499 47.7777"/>
	<path fill="#2D1B0A" d="M16.457 65.5984L15.1388 63.9059C14.8347 63.5078 10.2717 56.8374 10.2717 54.5476C10.2717 53.2533 11.3871 51.1626 12.0969 49.9679L7.22975 47.1803L20.1073 46.8816L26.2927 57.9325L21.2227 55.0454C20.1073 56.5387 17.5725 60.1228 16.8626 63.5078L16.457 65.5984M14.5305 48.8728L14.3277 49.9679C13.5165 51.2622 12.2997 53.552 12.2997 54.448C12.2997 55.344 14.2262 58.729 15.5444 60.9193C17.0654 56.937 20.1073 53.2533 20.2087 53.0542L18.7892 48.7732L14.5305 48.8728"/>
	<path fill="white" d="M27.8136 59.8241L27.408 67.6891L20.1073 67.6891C20.1073 67.6891 17.2682 67.6891 16.6994 64.9015C16.3556 62.5121 18.0794 59.625 18.0794 59.625L27.8136 59.8241"/>
	<path fill="#2D1B0A" d="M28.3206 68.6847L20.006 68.6847C18.6878 68.6847 16.1528 67.8883 15.557 65.1006C15.1388 62.4126 16.964 59.2267 17.0654 59.1272L28.7262 58.8285L28.3206 68.6847M18.6878 60.6206C18.2822 61.5166 17.471 63.3086 17.7752 64.7024C18.0794 66.594 20.006 66.6936 20.1073 66.6936L26.394 66.6936L26.6982 60.8197L18.6878 60.6206"/>
	<path fill="white" d="M33.999 56.3394L29.3347 63.5076L33.7962 70.6758L33.7962 67.8881C33.7962 67.8881 37.7508 68.0872 39.3732 67.1912C40.6913 66.4943 43.8347 61.1182 44.9501 59.1271C40.4885 60.4213 33.7962 59.3262 33.7962 59.3262L33.999 56.3394"/>
	<path fill="#2D1B0A" d="M34.8102 74.2598L28.1179 63.5076L35.2158 52.5563L34.8102 58.5297C36.7368 58.7288 41.4011 59.1271 44.6459 58.231L46.978 57.5341L45.7613 59.6248C44.1389 62.4124 41.2997 67.2907 39.7787 68.0872C38.4606 68.7841 36.1284 68.8837 34.7088 68.8837L34.7088 74.2598M30.4501 63.5076L32.6808 67.0917L33.7962 66.8925C35.2158 66.9921 37.8522 66.8925 38.8662 66.2952C39.3731 65.9966 40.9955 63.8063 42.9221 60.5209C38.6634 61.1182 33.7962 60.3217 33.5934 60.3217L30.4501 63.5076"/>
	<path fill="white" d="M43.2263 47.0807L35.9256 50.5653L40.5899 59.0364C40.5899 59.0364 43.7333 59.2267 45.6599 57.7335C48.0934 55.7422 46.7753 53.3529 46.7753 53.3529L43.2263 47.0807"/>
	<path fill="#2D1B0A" d="M40.8941 60.0232C40.6913 60.0232 40.4885 60.0232 40.4885 60.0232L34.4046 50.167L43.5305 45.7865L47.5864 52.8551C48.1948 53.9502 48.7018 56.5387 46.2682 58.5299C44.4431 59.9237 41.9081 60.0232 40.8941 60.0232M37.2438 51.063L41.0969 58.1316C42.0095 58.1316 43.7333 57.9325 44.9501 57.0365C46.6738 55.6427 45.8626 53.9502 45.7612 53.9502L42.7193 48.4745L37.2438 51.063"/>
</svg>
