<?xml version="1.0" encoding="utf-8" ?>
<svg xmlns="http://www.w3.org/2000/svg" xmlns:xlink="http://www.w3.org/1999/xlink" width="62" height="92">
	<path fill="white" d="M34.9495 92C34.7509 92 34.453 91.8011 34.3537 91.5027L33.9566 88.32L31.9708 88.2205C31.8715 89.1157 31.5737 89.2151 31.3751 89.2151C31.2758 89.2151 31.1765 89.2151 31.1765 89.1157L21.9427 82.9492C21.6448 82.6508 21.0491 82.5514 20.5527 82.5514C20.1555 82.5514 19.7584 82.6508 19.4605 82.8497C9.63096 87.2259 9.53167 87.2259 8.63808 87.2259L7.24804 87.2259C7.04947 87.2259 6.85089 87.1265 6.7516 87.027L5.85801 85.8335C4.96441 84.5405 4.86512 84.2422 6.7516 78.6724C7.14875 77.4789 7.54591 76.1859 8.04235 74.6941C8.63808 73.0032 9.23381 71.1135 9.82954 69.2238C10.326 67.7319 10.8224 66.24 11.3189 64.7481C12.1132 62.4605 12.8082 60.3719 13.4039 58.5816C13.8011 57.6865 13.4039 56.6919 12.9075 55.9957C12.2125 55.2 11.8153 54.3049 11.6167 53.3103C11.4181 52.3157 10.6238 51.4205 9.53167 51.2216C7.84377 51.0227 6.65231 50.4259 5.85801 49.4314C4.66655 47.84 4.66655 46.3481 4.96441 44.9557C5.16299 43.9611 4.66655 42.867 3.77295 42.3697C2.87936 41.773 1.6879 40.8778 1.19146 39.3859C0.397153 37.0984 1.19146 35.4076 1.98577 34.3135L2.08505 33.2195C1.98577 33.0205 1.98577 32.9211 1.88648 32.8216C1.88648 32.8216 1.78719 32.7222 1.78719 32.6227C0.794306 30.9319 0 29.7384 0 28.4454C0.297865 25.76 1.6879 24.3676 2.58149 23.4724C3.17722 22.3784 3.17722 22.08 2.97865 21.7816C2.58149 20.0908 2.48221 18.3005 3.27651 16.6097C4.2694 15.0184 5.56014 14.1232 7.44662 13.6259C8.24093 12.6314 8.24093 12.6314 8.24093 12.5319C8.24093 12.4324 8.34021 12.2335 8.34021 12.0346C8.53879 10.5427 8.83665 9.05081 9.82954 7.95676C11.2196 6.76324 12.5103 6.26595 14.0989 6.26595C14.4961 6.26595 14.794 6.26595 15.0918 6.36541L16.2833 5.86811C16.2833 5.76865 16.3826 5.76865 16.3826 5.76865C16.4819 5.66919 16.4819 5.56973 16.5811 5.37081C17.2762 3.87892 17.8719 2.88432 18.8648 2.18811C20.1555 1.79027 20.8505 1.59135 21.5456 1.59135C23.0349 1.59135 24.127 2.18811 24.9214 2.58595L26.1128 2.28757C27.4036 1.19351 28.7936 0 30.6801 0C32.2687 0 33.6587 0.596757 35.0488 1.79027L37.4317 2.38703C38.7224 1.88973 39.616 1.69081 40.4103 1.69081C40.9068 1.69081 41.4032 1.79027 41.8996 1.88973C43.6868 2.28757 44.4811 3.68 45.0769 4.97297C45.7719 5.66919 45.9705 5.76865 46.169 5.96757C46.4669 6.16649 46.6655 6.26595 46.9633 6.46486C48.9491 6.56432 50.4384 6.66378 51.6299 7.75784C53.4171 9.44865 53.4171 11.4378 53.4171 12.8303L54.3107 13.9243C55.7007 14.4216 57.8851 15.1178 58.8779 17.3059C59.573 18.7978 59.3744 20.1903 58.9772 21.4832C58.6794 22.3784 58.8779 23.4724 59.6722 24.1686C61.0623 25.2627 61.7573 26.4562 62 27.8486C62 30.0368 61.0623 31.2303 59.8708 32.7222C59.3744 33.5178 59.3744 33.6173 59.3744 33.8162C60.268 35.4076 61.5587 37.1978 60.8637 39.8832C60.3673 41.5741 59.2751 42.3697 58.2822 43.0659C57.3886 43.5632 56.8922 44.5578 57.0907 45.5524C57.2893 46.9449 57.0907 48.0389 56.495 49.0335C55.4028 50.6249 53.9135 51.4205 51.9278 51.7189C50.8356 51.9178 49.942 52.813 49.8427 53.8076C49.7434 54.4043 49.6441 54.9016 49.4456 55.2995C49.247 55.9957 49.0484 56.6919 49.4456 57.3881L62 86.8281C62 87.1265 62 87.3254 62 87.4249C62 87.5243 61.7573 87.6238 61.5587 87.6238C61.4594 87.6238 61.4594 87.6238 61.3601 87.6238L48.4527 82.8497C48.1548 82.7503 47.8569 82.6508 47.5591 82.6508C47.0626 82.6508 46.4669 82.8497 46.0698 83.1481L35.6445 91.9005C35.2473 92 35.148 92 34.9495 92"/>
	<path fill="#325D70" d="M18.6663 54.0065C18.6663 54.0065 8.43953 84.3416 8.63525 84.0433C8.83668 84.0433 21.0492 78.573 21.0492 78.573L29.2901 84.0433L32.2687 60.7697L36.9352 86.4303L46.3676 78.573L56.3958 82.3524L44.3819 54.0065L18.6663 54.0065"/>
	<path fill="#2D1B0A" d="M36.2402 88.4195L32.368 67.3341L29.9851 85.8335L20.8505 79.7665C12.6096 83.4465 10.0281 84.5405 9.13454 84.9384L8.04237 84.9384C7.34735 84.5405 7.34735 84.5405 9.13454 79.0703C10.0281 76.2854 11.3189 72.506 12.6096 68.7265C15.0918 61.1676 17.6733 53.7081 17.6733 53.7081L44.9776 53.2108L58.0836 84.2422L46.3676 79.866L36.2402 88.4195M32.1694 55.1006L37.6303 84.64L46.1691 77.5784L54.6086 80.7611L43.7861 55.2L32.1694 55.1006M21.1484 77.5784L28.4957 82.4519L31.9708 55.2L19.3612 55.1006C16.184 64.5492 11.8153 77.5784 10.2267 82.4519C12.8082 81.3578 17.4748 79.2692 20.652 77.8768"/>
	<path fill="#99CC62" d="M5.92959 33.7168C5.92959 32.7221 3.3481 29.7383 3.3481 29.0422C3.54668 26.8541 5.92959 26.2572 6.62461 24.3675C7.02177 22.975 5.63173 20.1903 6.42604 18.6984C7.41892 17.107 9.70255 17.5049 10.894 16.1124C11.8869 14.9188 11.6883 11.6367 12.4826 10.7416C14.0712 9.34914 16.2556 10.9405 17.8442 9.9459C19.0356 9.15022 20.0285 5.96752 20.8228 5.47022C23.0072 4.67455 24.0993 6.86265 26.4823 6.66373C27.6737 6.46481 29.7588 3.67995 30.9502 3.67995C33.1346 3.67995 33.9289 6.2659 35.9146 6.66373C37.3047 6.86265 39.6876 5.07238 41.0776 5.47022C42.6662 5.86806 42.2691 9.05076 43.8577 9.9459C45.2477 10.9405 48.5243 9.74698 49.7157 10.7416C50.9072 11.9351 49.7157 14.7199 50.9072 16.1124C51.9001 17.5049 55.3751 17.5049 56.0702 19.0961C56.8645 20.4886 54.4816 22.8757 54.8787 24.467C55.2759 25.8595 58.6517 27.0529 58.8502 28.6443C58.8502 29.6389 55.8716 32.4237 55.8716 33.3189C55.8716 36.1038 58.4531 36.6011 57.7581 38.9881C57.3609 40.5795 54.1837 40.5795 53.2901 41.9719C52.8929 43.1654 54.4816 46.1492 53.6872 47.3427C52.2972 49.2323 49.2193 47.7405 47.3328 49.5308C46.3399 50.3265 46.9356 54.0065 45.9428 54.7027C44.3541 55.6973 41.9712 53.907 40.0848 54.7027C38.6947 55.1005 37.5033 58.2831 36.1132 58.521C34.5246 58.88 32.3403 56.0951 30.7517 56.0951C28.8652 56.0951 27.1773 58.88 25.5887 58.521C23.4043 58.0843 23.2058 55.4984 21.6171 54.7027C20.0285 53.907 16.9506 55.1005 15.5606 54.3049C14.1705 53.3102 15.5606 50.5254 14.3691 49.3319C13.1776 48.1384 9.40468 48.9341 8.51109 47.7405C7.31963 46.1492 9.50397 43.9611 8.51109 42.0714C8.11394 40.8778 4.53956 39.8832 4.34098 38.7892C3.54668 36.6011 5.92959 36.3027 5.92959 33.7168"/>
	<path fill="#2D1B0A" d="M25.9858 59.3773C25.7872 59.3773 25.5887 59.3773 25.3901 59.2778C23.8015 58.9794 23.1064 57.7859 22.4114 56.7913C22.0143 56.1945 21.7164 55.6973 21.22 55.4983C20.7235 55.2 19.6314 55.2994 18.6385 55.3989C17.3477 55.4983 15.9577 55.5978 14.9648 55.001C13.7733 54.2054 13.7733 52.7135 13.8726 51.6194C13.8726 50.9232 13.8726 50.227 13.6741 49.9286C13.3762 49.6302 12.1847 49.5308 11.2911 49.4313C9.90111 49.3318 8.51107 49.1329 7.71677 48.2378C6.82317 46.9448 7.12104 45.6518 7.4189 44.5578C7.61748 43.6627 7.81605 42.9664 7.51819 42.3697C7.4189 41.9718 6.42602 41.4745 5.92958 41.1762C4.73812 40.48 3.64595 39.8832 3.34808 38.8886C2.75235 37.2973 3.44737 36.4021 4.0431 35.6064C4.44025 35.0097 4.83741 34.5124 4.83741 33.7167C4.73812 33.3189 4.0431 32.2248 3.64595 31.6281C2.75235 30.2356 2.3552 29.6389 2.3552 28.9427C2.55378 27.2518 3.54666 26.3567 4.34097 25.561C4.93669 25.0637 5.43314 24.5664 5.731 23.8702C5.83029 23.5718 5.63171 22.6767 5.53242 21.9805C5.33385 20.6875 5.03598 19.2951 5.53242 18.201C6.22744 16.9081 7.51819 16.6097 8.41178 16.3113C9.1068 16.1124 9.80182 15.9135 10.0997 15.4162C10.3975 15.0183 10.5961 13.9243 10.6954 13.0291C10.894 11.7362 11.0926 10.6421 11.6883 9.9459C12.979 8.85185 14.2698 9.05076 15.362 9.15022C16.057 9.24968 16.752 9.34914 17.1492 9.05076C17.5463 8.85185 18.142 7.65833 18.5392 6.86266C19.1349 5.7686 19.5321 4.87347 20.1278 4.57509C21.8157 3.97833 23.0072 4.47563 24 4.97293C24.7943 5.37076 25.3901 5.66914 26.1844 5.56968C26.383 5.47022 27.1773 4.77401 27.6737 4.37617C28.7659 3.48103 29.7588 2.5859 30.7516 2.5859C32.3403 2.5859 33.3331 3.5805 34.2267 4.37617C34.8225 4.97293 35.3189 5.47022 35.9146 5.56968C36.2125 5.56968 37.1061 5.27131 37.7018 4.97293C38.8933 4.47563 39.9854 4.07779 41.0776 4.37617C42.3684 4.77401 42.7655 6.06698 43.1627 7.16104C43.3612 7.95671 43.6591 8.65293 44.0563 8.95131C44.5527 9.24968 45.6449 9.24968 46.5385 9.15022C47.8292 9.05076 49.2193 9.05076 50.1129 9.74698C51.1057 10.7416 51.1057 11.9351 51.1057 13.1286C51.1057 13.9243 51.1057 14.8194 51.5029 15.2173C51.8008 15.7145 52.6943 16.0129 53.4887 16.3113C54.7794 16.7091 56.1694 17.2064 56.7652 18.4994C57.3609 19.6929 56.7652 20.8864 56.2687 22.08C55.9709 22.7762 55.5737 23.5718 55.673 24.0691C55.7723 24.3675 56.5666 24.9643 57.1623 25.3621C58.3538 26.1578 59.4459 27.0529 59.6445 28.3459C59.6445 29.241 59.0488 30.0367 57.9566 31.4291C57.4602 32.0259 56.7652 32.921 56.6659 33.2194C56.6659 34.1145 57.1623 34.7113 57.6588 35.507C58.2545 36.4021 59.0488 37.3967 58.5524 39.0875C58.1552 40.48 56.8645 40.9773 55.673 41.4745C55.0773 41.6735 54.3822 41.9718 53.9851 42.2702C53.9851 42.6681 54.1837 43.4637 54.283 43.961C54.5808 45.3535 54.978 46.6464 54.283 47.7405C53.2901 49.1329 51.7015 49.2324 50.4107 49.3318C49.3185 49.4313 48.425 49.4313 47.8292 50.0281C47.6306 50.3264 47.5314 51.321 47.4321 52.0173C47.3328 53.4097 47.1342 54.7027 46.3399 55.2994C45.1484 55.9956 43.8577 55.7967 42.6662 55.4983C41.7726 55.2994 40.879 55.1005 40.2833 55.3989C39.8862 55.4983 39.2904 56.294 38.794 56.8908C37.9997 57.8854 37.2054 58.9794 36.1132 59.1783C34.8225 59.4767 33.5317 58.5816 32.4395 57.8854C31.7445 57.4875 30.9999 56.8908 30.5531 56.8908C29.9573 56.8908 29.2623 57.4875 28.5673 57.9848C27.9716 58.681 27.078 59.3773 25.9858 59.3773M30.8509 55.001C31.9431 55.001 32.936 55.6973 33.8296 56.3935C34.5246 56.8908 35.5175 57.587 35.9146 57.3881C36.3118 57.3881 37.0068 56.3935 37.404 55.8962C38.099 55.001 38.794 54.0064 39.7869 53.7081C40.879 53.3102 42.1698 53.5091 43.262 53.7081C44.1556 53.907 44.8506 54.0064 45.347 53.8075C45.5456 53.5091 45.5456 52.5145 45.6449 52.0173C45.7442 50.6248 45.9427 49.3318 46.7371 48.7351C47.8292 47.7405 49.2193 47.641 50.51 47.5416C51.7015 47.4421 52.4958 47.3427 52.8929 46.7459C52.9922 46.547 52.6943 45.254 52.5951 44.5578C52.2972 43.4637 52.0986 42.3697 52.3965 41.574C53.0915 40.48 54.1837 40.0821 55.1766 39.6843C55.9709 39.3859 56.7652 39.0875 56.8645 38.6897C57.063 37.9935 56.8645 37.5956 56.2687 36.8C55.673 36.0043 54.978 35.0097 54.978 33.3189C54.978 32.5232 55.5737 31.7275 56.6659 30.3351C57.063 29.8378 57.758 28.9427 57.9566 28.6443C57.758 28.2464 56.8645 27.5502 56.2687 27.1524C55.2758 26.4562 54.3822 25.76 54.0844 24.7654C53.7865 23.5718 54.283 22.4778 54.7794 21.3837C55.0773 20.787 55.4744 19.7924 55.3751 19.5935C55.1766 19.0962 54.1837 18.6983 53.2901 18.4C52.0986 18.0021 51.0064 17.6043 50.3114 16.7091C49.5171 15.814 49.5171 14.521 49.5171 13.427C49.5171 12.6313 49.5171 11.8356 49.2193 11.5373C49.0207 11.3383 47.8292 11.4378 47.1342 11.4378C45.8435 11.5373 44.4534 11.5373 43.4605 10.841C42.3684 10.2443 42.0705 8.95131 41.6733 7.95671C41.4748 7.26049 41.2762 6.56428 40.9783 6.46482C40.5812 6.36536 39.5883 6.7632 38.8933 6.96212C37.9004 7.35995 36.9075 7.75779 36.0139 7.65833C34.8225 7.35995 34.0282 6.56428 33.3331 5.96752C32.5388 5.17185 32.0424 4.67455 31.2481 4.67455C30.9999 4.77401 30.0566 5.47022 29.5602 5.96752C28.6666 6.7632 27.773 7.45941 26.9787 7.65833C25.4894 7.75779 24.4965 7.26049 23.6029 6.86266C22.7093 6.46482 22.2129 6.16644 21.6171 6.36536C21.4185 6.56428 21.0214 7.35995 20.7235 7.85725C20.1278 9.05076 19.5321 10.2443 18.6385 10.841C17.5463 11.4378 16.4541 11.3383 15.5605 11.2389C14.5677 11.1394 13.9719 11.04 13.4755 11.5373C13.3762 11.7362 13.1776 12.8302 13.0783 13.427C12.8798 14.6205 12.6812 15.9135 11.9862 16.7091C11.1918 17.6043 10.199 17.9027 9.30538 18.201C8.41178 18.4994 7.81605 18.6983 7.51819 19.1956C7.31961 19.6929 7.51819 20.6875 7.71677 21.6821C7.91534 22.7762 8.11392 23.7708 7.81605 24.6659C7.4189 25.76 6.6246 26.5556 5.92958 27.1524C5.13527 27.8486 4.63883 28.3459 4.53954 29.0421C4.63883 29.3405 5.13527 30.1362 5.53242 30.6335C6.52531 32.1254 7.12104 33.0205 7.12104 33.8162C7.12104 35.4075 6.42602 36.3027 5.92958 36.9989C5.43314 37.6951 5.33385 37.894 5.53242 38.3913C5.731 38.7891 6.72388 39.2864 7.22032 39.5848C8.3125 40.1816 9.40467 40.7783 9.70253 41.6735C10.2983 42.9664 10.0004 44.2594 9.70253 45.254C9.40467 46.1491 9.30538 46.7459 9.60324 47.1437C9.80182 47.3427 11.0926 47.4421 11.7876 47.5416C13.1776 47.641 14.5677 47.7405 15.362 48.6356C16.2556 49.5308 16.1563 50.8237 16.1563 51.8183C16.1563 52.5145 16.1563 53.3102 16.3548 53.5091C16.752 53.7081 17.8442 53.7081 18.7378 53.6086C19.9292 53.5091 21.22 53.4097 22.3121 53.907C23.305 54.4043 23.8015 55.2 24.2979 55.9956C24.8936 56.8908 25.2908 57.4875 25.9858 57.587C26.383 57.6864 27.078 57.1891 27.6737 56.6918C28.468 55.7967 29.5602 55.001 30.8509 55.001"/>
	<path fill="#FFE161" d="M15.5111 31.3297C15.5111 22.8756 22.4613 15.9135 31.0994 15.9135C39.5389 15.9135 46.489 22.8756 46.489 31.3297C46.489 40.0821 39.5389 46.9449 31.0994 46.9449C22.4613 46.9449 15.5111 40.0821 15.5111 31.3297"/>
	<path fill="#2D1B0A" d="M31.0993 47.9393C21.7662 47.9393 14.5182 40.6788 14.5182 31.3296C14.5182 22.2788 21.9648 14.9188 31.0993 14.9188C40.1346 14.9188 47.4819 22.2788 47.4819 31.3296C47.4819 40.4799 40.1346 47.9393 31.0993 47.9393M31.0993 16.908C23.057 16.908 16.504 23.3729 16.504 31.3296C16.504 39.4853 22.8584 45.9502 31.0993 45.9502C39.0424 45.9502 45.4961 39.3858 45.4961 31.3296C45.4961 23.3729 38.9431 16.908 31.0993 16.908"/>
</svg>
