<?xml version="1.0" encoding="utf-8" ?>
<svg xmlns="http://www.w3.org/2000/svg" xmlns:xlink="http://www.w3.org/1999/xlink" width="98" height="88">
	<path fill="white" d="M93.922 87.899C93.8208 87.899 93.6184 87.7979 93.5172 87.5959C93.416 87.4948 91.898 84.6659 87.4451 84.4638C87.3439 84.4638 87.1415 84.4638 87.0403 84.4638C86.6355 84.4638 86.3319 84.4638 86.0283 84.5649L84.409 84.7669C80.7658 85.1711 75.908 85.6762 71.1515 85.6762C63.7638 85.6762 58.6025 84.4638 55.5664 81.837C52.6315 79.4122 50.0003 76.8863 48.381 73.5522C48.0774 72.845 47.369 72.5419 46.863 72.5419C46.6606 72.5419 46.1546 72.5419 45.7498 72.946C42.9161 75.775 38.868 78.5029 33.4031 81.3318C33.0995 81.5339 24.8009 85.5752 13.6687 85.5752C10.0254 85.5752 6.38211 85.07 2.73883 84.1607C1.01839 83.6556 0 82.039 0 80.2204C0.208774 78.907 1.01839 77.7956 2.33402 77.2905C3.44725 76.8863 5.57249 75.876 7.09053 72.744L7.69774 71.4305C11.2398 63.3479 16.8059 50.6177 24.8009 47.5867C28.343 46.2732 31.1767 45.465 34.2127 45.465C34.6175 45.465 35.1235 45.465 35.4272 45.566C36.1356 45.566 36.6416 45.2629 36.844 45.0608C37.2488 44.4546 37.2488 44.1515 37.2488 44C36.1356 39.8071 35.7308 34.8565 36.0344 29.0976C36.0344 28.8955 36.9452 12.8312 49 1.01033C49.7979 0.3031 50.6075 0 51.6195 0C52.4291 0 53.2387 0.202067 53.846 0.707233C54.9592 1.5155 55.4652 2.82893 55.1616 4.14237C54.9592 5.65786 55.0604 7.8806 56.6796 10.5075C57.1856 11.2147 57.7928 12.124 58.4001 13.0333C63.4602 20.3077 70.6455 30.6131 69.5323 38.4937C69.0263 42.1309 68.2167 45.8691 65.889 49.1022C65.5854 49.7084 65.5854 50.1125 65.5854 50.2135C65.5854 50.7187 65.889 51.3249 66.6986 51.527C70.7467 52.6383 75.1996 54.76 79.9561 57.791C81.373 58.7003 93.922 67.4902 97.8689 83.1504C98.3749 84.868 97.3629 86.6866 95.7437 87.3938L94.3269 87.899C94.1244 87.899 94.0232 87.899 93.922 87.899"/>
	<path fill="#99CC62" d="M50.0306 52.5879C49.9294 52.5879 49.8282 52.5879 49.6258 52.5879C48.0065 52.5879 37.6839 51.3755 38.9995 28.946C38.9995 28.946 39.9103 15.1045 49.727 4.19288C50.5366 3.28358 51.9534 3.88978 51.9534 5.00115C51.9534 6.81975 52.4594 9.24455 54.1799 11.8714C58.1267 17.6304 67.741 29.7543 66.6277 37.5339C65.7169 43.697 64.3001 48.1424 58.0255 51.3755C57.0135 51.8806 55.7991 50.8703 56.2039 49.7589C57.2159 47.2331 57.7219 43.2928 55.3943 37.5339C55.6979 37.5339 57.4183 51.6786 50.0306 52.5879"/>
	<path fill="#2D1B0A" d="M49.727 53.5981C49.727 53.5981 49.6258 53.5981 49.727 53.5981C48.715 53.5981 45.6789 53.2951 42.8453 50.2636C39.1008 46.1208 37.4815 38.9464 37.8972 28.9427C37.8972 28.3365 39.1008 14.594 49.0186 3.57995C49.6258 2.83725 50.6378 2.67052 51.5487 2.97366C52.4595 3.2768 53.0667 4.18623 53.0667 5.09565C53.0667 7.21764 53.7751 9.33962 55.1919 11.3606C55.6979 12.0679 56.3052 12.9773 57.0136 13.8868C61.7701 20.5558 68.8542 30.5595 67.8422 37.7338C66.9314 43.5946 65.6158 48.8489 58.734 52.3857C57.8232 52.7898 56.8112 52.6888 56.1028 52.0825C55.3943 51.4762 55.1919 50.4658 55.4955 49.5564C55.5967 49.2532 55.6979 48.9501 55.7992 48.5458C55.3943 49.5564 54.9895 50.4658 54.3823 51.2742C53.2691 52.6888 51.8523 53.4972 50.233 53.6992C50.0306 53.5981 49.8282 53.5981 49.727 53.5981M50.739 4.79251C50.6378 4.79251 50.6378 4.79251 50.5366 4.89356C41.0236 15.4024 40.0116 28.8417 40.0116 29.0437C39.3032 40.8662 41.9344 46.3228 44.2621 48.8489C46.4885 51.2742 48.9174 51.5773 49.6258 51.5773C49.727 51.5773 49.727 51.5773 49.8282 51.5773C50.9414 51.4762 51.9535 50.8699 52.6619 49.9605C55.5967 46.2217 54.5847 37.7338 54.5847 37.6328L53.5727 29.65L56.5076 37.1275C58.9364 43.2915 58.228 47.6364 57.3172 50.1627C57.3172 50.1627 57.216 50.3647 57.4184 50.4658C57.5196 50.5667 57.6208 50.5667 57.722 50.4658C63.1869 47.6364 64.7049 43.7966 65.717 37.3297C66.6278 30.9636 59.5436 20.9601 55.1919 14.8973C54.4835 13.9878 53.8763 13.0784 53.3703 12.371C51.7511 10.047 50.9414 7.52078 50.9414 4.9946C50.9414 4.89356 50.8402 4.79251 50.739 4.79251C50.8402 4.79251 50.8402 4.79251 50.739 4.79251"/>
	<path fill="#99CC62" d="M47.0655 57.321C47.1667 57.4221 47.1667 57.5231 47.2679 57.6241C48.0776 59.0386 52.1257 68.5357 31.8852 78.639C31.8852 78.639 19.6397 84.701 5.37023 81.7711C4.349 81.569 3.95339 79.9525 4.96542 79.4473C6.58465 78.538 8.40629 76.9215 9.72192 74.0925C12.5556 67.6264 18.3241 53.2797 25.7119 50.4508C31.5816 48.228 36.0345 47.2177 42.0054 51.057C43.0175 51.6632 42.7138 53.2797 41.4994 53.3807C38.767 53.7849 35.0225 55.3004 30.9744 60.0489C31.0756 59.8469 42.6126 51.3601 47.0655 57.321"/>
	<path fill="#2D1B0A" d="M13.4742 83.605C10.8413 83.605 8.00588 83.4032 5.17044 82.7974C4.25905 82.5956 3.55019 81.8888 3.303 80.8793C3.14513 79.9707 3.65146 79.0621 4.46158 78.5574C6.38563 77.4469 7.80335 75.8316 8.81601 73.6106L9.4236 72.1973C12.4616 65.2316 18.1325 52.2085 25.4236 49.4828C30.9932 47.4438 36.0565 45.9494 42.6388 50.1895C43.4489 50.6942 43.8539 51.7038 43.6514 52.6124C43.4489 53.42 42.9426 54.0257 42.1324 54.3286C45.1704 54.2276 46.8919 55.54 47.9046 56.8524C48.0058 56.9534 48.1071 57.1553 48.2084 57.2562C48.6134 58.0638 49.9299 60.8905 48.6134 64.7267C46.8919 70.0773 41.4236 75.024 32.3097 79.6679C31.9046 79.7688 24.0059 83.605 13.4742 83.605M34.1324 49.3818C31.7021 49.3818 29.1704 50.0885 26.0312 51.3C19.5502 53.8238 14.0818 66.241 11.2464 73.0049L10.6388 74.4184C9.4236 77.0432 7.70208 78.9613 5.47424 80.2737C5.37297 80.3745 5.37297 80.3745 5.37297 80.5764C5.37297 80.6774 5.47424 80.7784 5.57551 80.7784C19.3476 83.605 31.297 77.8507 31.3983 77.7497C42.1324 72.3992 45.5755 67.3515 46.6894 64.0201C47.702 60.8905 46.6894 58.6695 46.3856 58.0638C46.3856 57.9628 46.2843 57.9628 46.2843 57.8619C45.5755 56.8524 44.5628 56.3476 43.2463 56.2467C38.8919 55.7419 32.7147 59.881 31.8033 60.6886L30.0818 62.7077L30.0818 59.9819C30.0818 59.78 30.1831 59.5781 30.3856 59.3762C34.5375 54.2276 38.6894 52.7133 41.4236 52.3095C41.4236 52.3095 41.6261 52.3095 41.6261 52.1076C41.6261 52.0066 41.6261 51.9057 41.5248 51.8047C38.7907 50.1895 36.5628 49.3818 34.1324 49.3818"/>
	<path fill="#99CC62" d="M52.5607 57.4375C52.5607 57.3365 52.5607 57.3365 52.6619 57.2354C53.2691 56.2251 59.2401 47.1321 78.5697 59.7612C78.5697 59.7612 90.3091 67.4398 94.6608 81.3824C95.0657 82.4938 93.75 83.5041 92.738 82.8979C91.1188 81.9885 88.7911 81.1804 85.6538 81.4835C78.7721 82.1907 63.2881 84.3123 57.3172 79.4628C52.4595 75.3204 49.3222 72.0873 49.5154 65.1161C49.5154 63.9037 51.0427 63.3985 51.8523 64.3078C53.5727 66.4295 56.8112 68.8542 62.8833 69.9657C62.7821 69.9657 49.6258 64.2067 52.5607 57.4375"/>
	<path fill="#2D1B0A" d="M93.3444 84.1103C92.9394 84.1103 92.5345 84.0092 92.1295 83.8072C90.206 82.6958 88.08 82.2916 85.6503 82.4938L83.9293 82.6958C75.8303 83.6051 62.3657 85.0195 56.4939 80.271C51.5333 76.1286 48.0912 72.5925 48.3763 65.1161C48.3763 64.1057 49.0023 63.2975 50.0147 62.9944C50.9259 62.6912 51.9382 62.9944 52.5457 63.7015C52.5457 63.8026 52.6469 63.8026 52.6469 63.9036C52.5457 63.8026 52.4444 63.6006 52.3432 63.4995C50.9259 61.3778 50.6222 59.1551 51.5333 57.1344C51.5333 57.0334 51.6345 56.9323 51.6345 56.8313C51.9382 56.3261 53.6593 53.5982 57.9113 52.5879C63.3781 51.2745 70.4647 53.3962 78.9687 58.953C79.4749 59.2561 91.0159 66.9346 95.4704 81.1804C95.7741 82.0897 95.4704 83.1 94.7617 83.6051C94.3568 83.9082 93.8506 84.1103 93.3444 84.1103M87.0677 80.3721C89.2949 80.3721 91.4209 80.8773 93.2432 81.9885C93.4456 82.0897 93.5469 81.9885 93.6481 81.9885C93.7493 81.8876 93.7493 81.7866 93.7493 81.6854C89.4974 68.1608 78.1588 60.6706 78.0575 60.5695C68.035 54.1034 61.9608 53.6993 58.5187 54.4065C55.1778 55.2148 53.7605 57.2354 53.558 57.6396C53.0518 58.852 53.0518 59.9633 53.558 61.1757C55.2791 65.217 62.062 68.5511 63.1756 68.9552L62.8719 70.875C62.8719 70.875 62.7707 70.875 62.6694 70.875C56.089 69.7635 52.7481 66.9346 51.0271 64.813C51.0271 64.813 50.9259 64.7119 50.7234 64.7119C50.6222 64.7119 50.5209 64.813 50.5209 65.015C50.3184 71.6832 53.3556 74.7141 57.9113 78.5535C63.0744 82.7969 76.539 81.2813 83.8281 80.4731L85.5491 80.271C86.0553 80.4731 86.5615 80.3721 87.0677 80.3721"/>
</svg>
