<?xml version="1.0" encoding="utf-8" ?>
<svg xmlns="http://www.w3.org/2000/svg" xmlns:xlink="http://www.w3.org/1999/xlink" width="84" height="78">
	<path fill="white" d="M62.7815 77.5019C62.5825 77.4023 57.9062 75.8084 50.2451 69.931C47.6582 68.3372 45.6683 66.5441 43.8774 64.5517C43.3799 64.5517 42.8824 64.5517 42.4845 64.5517C40.8925 64.5517 39.4001 64.4521 37.9077 64.3525C37.5097 69.5326 34.6243 73.0192 34.4254 73.2184C31.6395 76.4061 27.9582 78 23.7794 78C19.6006 78 16.2177 76.3065 15.9192 76.1073C10.3475 73.4176 6.2682 67.5402 3.97981 58.6743C2.68637 54.092 0.497476 46.2222 0.497476 46.2222L0 44.4291L1.39293 43.2337C1.59192 43.1341 5.27325 39.8467 14.1283 35.9617C17.3122 34.4674 19.899 33.5709 22.2869 33.0728C23.3814 31.1801 24.4758 29.4866 25.5703 27.9923C21.292 24.9042 19.899 20.5211 19.7996 20.2222C17.0137 11.8544 23.0829 5.37931 26.6647 3.08812C29.6496 1.09579 33.4304 0 37.9077 0C40.8925 0 44.1759 0.498084 47.5587 1.39464C52.1355 2.68966 60.0951 4.88123 60.1946 4.88123L62.085 5.37931L62.3835 7.27203C62.3835 7.47126 63.08 12.1533 62.1845 21.8161L61.886 23.5096C61.3886 26.0996 61.0901 28.2912 60.3936 30.2835C61.2891 31.8774 62.085 33.3716 62.682 35.0651C65.2689 33.7701 67.8558 33.4713 69.7462 33.4713C71.2386 33.4713 72.2335 33.6705 72.4325 33.6705C81.1881 35.6628 83.775 44.0307 84 48.2146C84.4715 57.1801 77.7058 64.5517 74.8204 67.341C71.4376 70.728 65.8658 76.5057 65.7664 76.6054L64.4729 78L62.7815 77.5019M39.3006 40.7433C40.3951 42.4368 41.191 44.2299 41.6885 46.023C42.4845 44.2299 43.5789 42.636 44.7729 41.341C44.4744 41.341 44.0764 41.341 43.7779 41.341C42.2855 41.341 40.793 41.1418 39.3006 40.7433"/>
	<path fill="#5D985B" d="M45.3571 61.1646C41.4779 61.3638 37.9966 61.1646 34.9132 60.4674C36.0072 66.5439 32.327 70.927 32.327 70.927C26.2595 77.701 17.5063 73.1186 17.5063 73.1186C11.1404 70.0305 8.35529 62.4597 7.06221 57.5784C5.76913 52.9961 3.58085 45.1264 3.58085 45.1264C3.58085 45.1264 7.06221 42.0382 15.6164 38.3524C19.2968 36.5592 21.9824 35.7624 24.3696 35.563C26.3589 32.0765 28.2488 29.1877 30.2382 26.7969C24.5685 24.6052 22.8776 19.1264 22.8776 19.1264C20.0925 10.6589 28.5471 5.37919 28.5471 5.37919C34.2169 1.49413 42.2738 2.78915 47.0481 4.08417C51.6236 5.37919 59.6805 7.57076 59.6805 7.57076C59.6805 7.57076 60.3767 11.9539 59.4815 21.3179C58.7853 25.2029 58.3874 28.0919 57.2932 30.2835C59.2826 33.5708 60.5757 36.6589 61.4709 39.4482C66.2454 35.0651 72.1139 36.3601 72.1139 36.3601C80.8671 38.3524 81.2867 48.1148 81.2867 48.1148C81.6628 55.2873 76.4905 61.6628 73.0091 64.9501C69.5277 68.4366 63.8582 74.314 63.8582 74.314C63.8582 74.314 59.4815 72.8198 52.1209 67.1416C48.8386 65.0497 46.8492 63.0574 45.3571 61.1646M55.6023 32.5746C54.3092 34.0688 52.5188 35.3638 50.3305 36.4597C44.2631 39.5477 37.4992 37.5555 34.4157 34.0688C31.6307 31.2796 31.1334 28.1915 31.1334 27.2948C28.5471 30.9808 27.652 34.2681 27.2542 35.7624C29.2435 35.9616 30.9345 36.8582 33.1227 38.1531C38.5934 41.839 40.2843 48.6129 38.9912 53.1953C38.0961 56.6819 35.9077 58.6743 35.112 59.2719C39.2896 59.6703 42.4338 58.8735 44.0641 58.3754C43.3678 56.5822 43.1689 54.4902 43.3678 51.8007C43.7657 45.0266 48.8386 40.245 53.2151 39.1493C56.4975 38.2528 58.8848 38.9501 59.979 39.3485C58.6858 36.2604 56.8955 33.8696 55.6023 32.5746"/>
	<path fill="#2D1B0A" d="M23.9784 75.6092C20.098 75.6092 17.0135 74.0153 17.0135 74.0153C11.9391 71.5249 8.2577 66.1456 6.06873 57.8774C4.77526 53.295 2.5863 45.4253 2.5863 45.4253C2.98429 44.3295 6.56623 41.2414 15.2226 37.4559C18.6055 35.862 21.292 34.9655 23.7794 34.6666C25.5704 31.6781 27.0629 29.2873 28.6548 27.1954C23.5804 24.6053 21.9884 19.6245 21.889 19.4253C18.904 10.3601 27.8588 4.58236 27.9583 4.58236C33.7292 0.6973 41.5896 1.69347 47.261 3.18772C51.8379 4.48274 59.7978 6.67431 59.8973 6.67431C60.5938 7.67048 61.2902 12.0536 60.3948 21.5172L60.0963 23.1111C59.5988 26.0996 59.2008 28.3908 58.3053 30.3831C59.6983 32.7739 60.8923 35.2643 61.8872 37.954C66.7627 34.3678 72.0361 35.5632 72.2351 35.5632C81.5879 37.6552 82.2124 48.1149 82.2124 48.2145C82.6824 56.3831 76.3145 63.2567 73.628 65.8467C70.2451 69.2337 64.5737 75.1111 64.4742 75.2107C63.2802 75.4099 58.9023 73.9157 51.4399 68.1379C48.7535 66.4444 46.664 64.5517 44.873 62.3601C41.5896 62.4597 38.6047 62.3601 36.0177 61.862C36.4157 67.5402 33.1323 71.5249 33.0328 71.7241C30.2468 74.7126 26.8639 75.6092 23.9784 75.6092M4.67576 45.5249C5.17325 47.5172 6.86472 53.4942 7.9592 57.3793C9.94916 65.0498 13.3321 70.1302 17.909 72.3218C18.307 72.5211 26.0679 76.5057 31.5403 70.3295C31.5403 70.3295 34.9232 66.2452 33.9282 60.6666L32.4358 60.0689L34.5252 58.4751C34.9232 58.1762 37.2117 56.3831 38.0077 52.9961C39.2016 48.8122 37.7092 42.4368 32.5353 39.0498C30.6448 37.954 28.9533 36.9578 27.1624 36.8582L25.9684 36.7586L26.2669 35.6628C26.4659 35.0651 26.6649 34.1686 27.0629 33.1724C26.4659 34.1686 25.8689 35.1647 25.2719 36.2605C22.0879 36.9578 19.501 37.7548 16.1181 39.4483C9.45167 42.1379 5.86974 44.5287 4.67576 45.5249M45.7685 60.1686C47.1615 61.9617 49.052 64.0536 52.6339 66.3448C58.3053 70.7279 62.1857 72.6207 63.5787 73.2184C64.9717 71.7241 69.4491 67.2414 72.2351 64.3525C74.822 61.9617 80.5929 55.5862 80.1949 48.3142C80.1949 47.9157 79.6974 39.249 71.8371 37.4559C71.6381 37.4559 66.3647 36.3601 62.0862 40.3448L60.9918 41.341L59.5988 40.4444C57.7083 39.7471 55.6188 39.6475 53.4299 40.2452C49.251 41.2414 44.674 45.7241 44.2761 52C44.0771 54.59 44.2761 56.5824 44.873 58.1762L44.2761 59.4712C42.9826 59.8697 41.6891 60.1686 40.2961 60.3678C41.7886 60.4674 43.4801 60.4674 45.271 60.3678M28.4558 34.9655C30.2468 35.364 31.7393 36.2605 33.5302 37.2567C39.5001 41.2414 41.1916 48.613 39.8981 53.3946C39.3011 55.5862 38.3062 57.1801 37.4107 58.2758C39.2016 58.2758 41.0921 58.0766 42.7836 57.5785C42.2999 55.885 42.1866 53.9923 42.3856 51.6015C42.7836 44.4291 48.1565 39.249 53.0319 38.0536C54.8229 37.5555 56.5143 37.4559 58.2058 37.7548C57.3103 35.9617 56.3153 34.7663 55.6188 33.9693C54.3254 35.1647 52.7334 36.3601 50.8429 37.2567C44.475 40.544 37.1122 38.4521 33.7292 34.6666C32.0378 32.9732 31.1423 31.2797 30.7443 29.885C29.4508 31.977 28.8538 33.7701 28.4558 34.9655M32.1373 24.1073L32.1373 27.295C32.1373 28.1916 32.6348 30.8812 35.1222 33.3716C38.1072 36.659 44.3756 38.3525 49.848 35.5632C51.9374 34.4674 53.6289 33.272 54.8229 31.8774L56.3153 31.8774C56.7133 32.2758 57.5093 33.0728 58.4048 34.4674C57.8078 33.272 57.1113 31.977 56.4148 30.7816C57.2108 27.9923 57.6088 25.6015 58.1063 22.613L58.4048 21.1188C59.1013 14.046 58.8028 9.86205 58.7033 8.3678C56.7133 7.77009 50.4449 6.07661 46.664 5.08044C42.3856 3.88504 34.4257 2.4904 28.9533 6.27584C28.5553 6.47508 21.1925 11.2567 23.6799 18.9272C23.6799 19.0268 25.3714 24.0076 30.4458 26L32.1373 24.1073"/>
</svg>
