<?xml version="1.0" encoding="utf-8" ?>
<svg xmlns="http://www.w3.org/2000/svg" xmlns:xlink="http://www.w3.org/1999/xlink" width="50" height="86">
	<path fill="white" d="M5.4326 86C2.41449 86 0 83.5603 0 80.5106L0 16.3664C0 13.3168 2.41449 10.8771 5.4326 10.8771L8.85312 10.8771L8.85312 5.48936C8.85312 2.43972 11.2676 0 14.2857 0L35.7143 0C38.7324 0 41.1469 2.43972 41.1469 5.48936L41.1469 10.8771L44.5674 10.8771C47.5855 10.8771 50 13.3168 50 16.3664L50 80.5106C50 83.5603 47.5855 86 44.5674 86L5.4326 86"/>
	<path fill="#99CC62" d="M11.7707 11.6903L11.7707 5.69267C11.7707 4.37115 12.8773 3.25295 14.1852 3.25295L35.6138 3.25295C36.9216 3.25295 38.0282 4.37115 38.0282 5.69267L38.0282 11.6903C38.0282 13.0118 39.1348 14.13 40.4427 14.13L44.4669 14.13C45.7747 14.13 46.8813 15.2483 46.8813 16.5697L46.8813 80.8156C46.8813 82.1372 45.7747 83.2554 44.4669 83.2554L5.33204 83.2554C4.02419 83.2554 2.91755 82.1372 2.91755 80.8156L2.91755 16.5697C2.91755 15.2483 4.02419 14.13 5.33204 14.13L9.35618 14.13C10.664 14.13 11.7707 13.0118 11.7707 11.6903"/>
	<path fill="#2D1B0A" d="M44.4669 84.2719L5.33212 84.2719C3.42065 84.2719 1.9116 82.747 1.9116 80.8156L1.9116 16.5697C1.9116 14.6383 3.42065 13.1135 5.33212 13.1135L9.35627 13.1135C10.1611 13.1135 10.7647 12.5035 10.7647 11.6903L10.7647 5.69266C10.7647 3.76122 12.2738 2.2364 14.1852 2.2364L35.6138 2.2364C37.5253 2.2364 39.0343 3.76122 39.0343 5.69266L39.0343 11.6903C39.0343 12.5035 39.638 13.1135 40.4428 13.1135L44.4669 13.1135C46.3784 13.1135 47.8875 14.6383 47.8875 16.5697L47.8875 80.8156C47.8875 82.6454 46.2778 84.2719 44.4669 84.2719M5.33212 15.1466C4.52729 15.1466 3.92367 15.7565 3.92367 16.5697L3.92367 80.8156C3.92367 81.6288 4.52729 82.2388 5.33212 82.2388L44.4669 82.2388C45.2718 82.2388 45.8754 81.6288 45.8754 80.8156L45.8754 16.5697C45.8754 15.7565 45.2718 15.1466 44.4669 15.1466L40.4428 15.1466C38.5313 15.1466 37.0223 13.6217 37.0223 11.6903L37.0223 5.69266C37.0223 4.87943 36.4186 4.2695 35.6138 4.2695L14.1852 4.2695C13.3804 4.2695 12.7768 4.87943 12.7768 5.69266L12.7768 11.6903C12.7768 13.6217 11.2677 15.1466 9.35627 15.1466L5.33212 15.1466"/>
	<path fill="#5D985B" d="M10.9659 65.669L38.9337 65.669L38.9337 75.2246L10.9659 75.2246L10.9659 65.669"/>
	<path fill="#353535" d="M39.9398 76.2411L9.9599 76.2411L9.9599 64.6525L39.9398 64.6525L39.9398 76.2411M11.972 74.208L37.9277 74.208L37.9277 66.6855L11.972 66.6855L11.972 74.208"/>
	<path fill="#5D985B" d="M10.9659 54.487L38.9337 54.487L38.9337 64.0426L10.9659 64.0426L10.9659 54.487"/>
	<path fill="#353535" d="M39.9398 65.0592L9.9599 65.0592L9.9599 53.4705L39.9398 53.4705L39.9398 65.0592M11.972 63.026L37.9277 63.026L37.9277 55.5036L11.972 55.5036L11.972 63.026"/>
	<path fill="#5D985B" d="M10.9659 43.4066L38.9337 43.4066L38.9337 52.9622L10.9659 52.9622L10.9659 43.4066"/>
	<path fill="#353535" d="M39.9398 53.9787L9.9599 53.9787L9.9599 42.39L39.9398 42.39L39.9398 53.9787M11.972 51.9456L37.9277 51.9456L37.9277 44.4231L11.972 44.4231L11.972 51.9456"/>
	<path fill="white" d="M10.9659 32.2246L38.9337 32.2246L38.9337 41.7802L10.9659 41.7802L10.9659 32.2246"/>
	<path fill="#353535" d="M39.9398 42.7967L9.9599 42.7967L9.9599 31.208L39.9398 31.208L39.9398 42.7967M11.972 40.7636L37.9277 40.7636L37.9277 33.2411L11.972 33.2411L11.972 40.7636"/>
	<path fill="white" d="M10.9659 20.9409L38.9337 20.9409L38.9337 30.4965L10.9659 30.4965L10.9659 20.9409"/>
	<path fill="#353535" d="M39.9398 31.5131L9.9599 31.5131L9.9599 19.9244L39.9398 19.9244L39.9398 31.5131M11.972 29.4799L37.9277 29.4799L37.9277 21.9575L11.972 21.9575L11.972 29.4799"/>
</svg>
