<?xml version="1.0" encoding="utf-8" ?>
<svg xmlns="http://www.w3.org/2000/svg" xmlns:xlink="http://www.w3.org/1999/xlink" width="60" height="80">
	<path fill="white" d="M0 0L60 0L60 80L0 80L0 0"/>
	<path fill="#E6F5FF" d="M3.0612 3.03795L56.9388 3.03795L56.9388 76.9621L3.0612 76.9621L3.0612 3.03795"/>
	<path fill="#2D1B0A" d="M57.9592 77.9747L2.0408 77.9747L2.0408 2.0253L57.9592 2.0253L57.9592 77.9747M4.08162 75.9494L55.9184 75.9494L55.9184 4.05062L4.08162 4.05062L4.08162 75.9494"/>
	<path fill="#2D1B0A" d="M9.47955 14.6127L24.8878 14.6127L24.8878 22.1064L9.47955 22.1064L9.47955 14.6127M34.3776 59.676L49.7856 59.676L49.7856 66.9671L34.3776 66.9671L34.3776 59.676"/>
	<path fill="#2D1B0A" d="M50.806 67.9797L33.3571 67.9797L33.3571 58.6632L50.806 58.6632L50.806 67.9797M35.3979 65.9544L48.7651 65.9544L48.7651 60.6885L35.3979 60.6885L35.3979 65.9544M25.9081 23.1189L8.45905 23.1189L8.45905 13.5999L25.9081 13.5999L25.9081 23.1189M10.4999 21.0936L23.8673 21.0936L23.8673 15.6253L10.4999 15.6253L10.4999 21.0936"/>
	<path fill="#2D1B0A" d="M9.47955 14.6127L24.8878 14.6127L24.8878 22.1064L9.47955 22.1064L9.47955 14.6127M31.4184 18.8659L49.7856 18.8659M34.3776 59.676L49.7856 59.676L49.7856 66.9671L34.3776 66.9671L34.3776 59.676M10.1938 33.4481L49.7856 33.4481M10.1938 48.1317L49.7856 48.1317M10.1938 63.0178L28.5611 63.0178"/>
	<path fill="#2D1B0A" d="M50.806 67.9797L33.3571 67.9797L33.3571 58.6632L50.806 58.6632L50.806 67.9797M35.3979 65.9544L48.7651 65.9544L48.7651 60.6885L35.3979 60.6885L35.3979 65.9544M28.5611 64.0303L10.1937 64.0303L10.1937 62.0051L28.5611 62.0051L28.5611 64.0303M49.7855 49.1442L10.1937 49.1442L10.1937 47.1189L49.7855 47.1189L49.7855 49.1442M49.7855 34.4608L10.1937 34.4608L10.1937 32.4353L49.7855 32.4353L49.7855 34.4608M25.9081 23.1189L8.45905 23.1189L8.45905 13.5999L25.9081 13.5999L25.9081 23.1189M10.4999 21.0936L23.8673 21.0936L23.8673 15.6253L10.4999 15.6253L10.4999 21.0936M49.7855 19.8784L31.4183 19.8784L31.4183 17.8531L49.7855 17.8531L49.7855 19.8784"/>
</svg>
