<?xml version="1.0" encoding="utf-8" ?>
<svg xmlns="http://www.w3.org/2000/svg" xmlns:xlink="http://www.w3.org/1999/xlink" width="58" height="116">
	<path fill="white" d="M30.2237 116C23.0524 116 22.4464 110.548 21.2343 101.462C21.1333 100.15 19.7193 73.9008 19.7193 65.6223C19.7193 64.5117 19.4163 62.6945 17.2952 62.4926C17.0932 62.4926 16.7901 62.4926 16.4871 62.4926C12.649 62.4926 3.55854 61.6849 1.43745 54.3151C-0.68365 47.248 -0.380636 33.7198 1.84146 29.2776C2.34649 28.47 5.17461 24.5326 9.61882 24.5326C11.3359 24.5326 13.962 25.2393 16.4871 28.369C17.1942 29.2776 18.7092 32.1044 18.8102 40.5849C18.8102 39.8782 18.8102 38.8686 18.7092 37.5561C18.7092 36.8494 18.6082 35.9408 18.6082 34.8303C17.6992 18.7781 18.0022 3.53351 26.0826 0.504787C26.2846 0.403829 27.4966 0 29 0C31.2338 0 36.688 0.908616 38.5061 9.38903C38.6071 11.0044 39.3142 18.7781 39.6172 25.0374C39.9202 20.7972 40.8292 15.3455 43.4553 12.5187C44.7684 11.1053 46.3845 10.3986 48.2026 10.3986C49.4146 10.3986 58 10.8024 58 25.3403C58 36.8494 57.394 46.6423 50.4247 50.3777C49.4146 50.8825 48.5056 51.2863 47.5965 51.6902C43.3543 53.5074 41.4353 54.3151 41.4353 59.0601C41.4353 66.7328 39.9202 96.5152 39.2132 101.664C39.1121 102.068 39.1121 102.472 39.0111 102.876C38.3041 107.721 37.0921 116 30.2237 116"/>
	<path fill="#5D985B" d="M15.7682 41.6673C15.7682 41.6673 17.0812 45.2008 19.1013 45.2008C20.9194 45.2008 22.2324 43.1817 21.7274 37.0233C21.5254 31.0668 19.1013 6.02936 27.0807 3.00064C27.0807 3.00064 33.545 0.57766 35.464 9.66382C35.464 9.66382 36.9791 26.9275 36.5751 31.3697C36.5751 31.3697 36.3731 35.1051 39.2012 34.7012C42.0293 34.4993 42.5344 30.2591 42.5344 30.2591C42.5344 30.2591 41.6253 12.9954 48.2916 12.9954C48.2916 12.9954 54.9579 12.5916 54.9579 24.9084C54.9579 37.1242 54.0489 44.5951 48.9987 47.22C43.6454 49.8449 38.3932 50.5516 38.3932 58.5272C38.3932 66.3009 36.8781 95.8814 36.1711 100.727C35.464 105.371 34.858 112.64 30.2118 112.64C25.7676 112.64 25.3636 109.51 24.2525 100.727C24.2525 100.727 22.7375 73.5698 22.7375 65.2913C22.7375 65.2913 22.9395 59.5368 17.3842 59.1329C17.3842 59.1329 6.27373 59.8396 4.35464 53.1764C2.33455 46.3113 2.83957 33.6917 4.55665 30.3601C4.55665 30.3601 9.20286 23.6969 14.0511 29.9563C14.0511 29.9563 15.7682 32.1773 15.7682 41.6673"/>
	<path fill="#2D1B0A" d="M30.1942 113.678C24.8409 113.678 24.3359 109.64 23.2249 100.856C23.2249 100.553 21.7098 73.4969 21.7098 65.3194C21.7098 64.8146 21.7098 60.5744 17.3666 60.1706C16.2555 60.2715 5.44806 60.5744 3.32696 53.5074C1.20587 46.4404 1.71089 33.6188 3.62998 29.9843C3.83199 29.7824 6.15509 26.4508 9.48824 26.3499C11.4073 26.2489 13.2254 27.3594 14.8415 29.3786C15.0435 29.6814 16.7606 32.1044 16.7606 41.4935C17.2656 42.604 18.2756 44.2193 19.0837 44.2193C19.3867 44.2193 19.6897 44.1184 19.8917 43.9164C20.3967 43.4116 21.1038 41.7963 20.6997 37.1523C20.6997 36.4456 20.5987 35.537 20.5987 34.4264C19.7907 19.8886 19.8917 4.64402 26.76 2.01913C26.861 2.01913 29.5881 1.00956 32.2143 2.42296C34.3354 3.63445 35.7494 5.95647 36.5575 9.38902C36.6585 10.1967 38.0725 26.8546 37.6685 31.3977C37.6685 31.7006 37.7695 33.013 38.2745 33.4169C38.3755 33.5178 38.6786 33.7197 39.1836 33.6188C41.0017 33.5178 41.6077 30.5901 41.6077 30.0853C41.5067 28.7728 41.1027 17.4656 44.9408 13.4273C45.8499 12.4177 47.0619 11.913 48.375 11.913C48.375 11.913 50.5971 11.812 52.6172 13.7302C54.9403 15.8503 56.0513 19.5857 56.0513 24.8355C56.0513 37.6571 55.0413 45.2289 49.5871 48.0557C48.678 48.4595 47.769 48.8633 46.9609 49.2672C42.7187 51.0844 39.5876 52.4978 39.5876 58.4543C39.5876 66.1271 38.0725 95.7076 37.3655 100.755C37.2645 101.159 37.2645 101.563 37.1635 101.967C36.2545 107.015 35.3454 113.678 30.1942 113.678M17.3666 58.1514C22.6188 58.5553 23.8309 62.9974 23.7299 65.3194C23.7299 73.396 25.245 100.352 25.245 100.655C26.356 109.539 26.76 111.659 30.1942 111.659C33.5273 111.659 34.3354 106.005 34.9414 101.866C35.0424 101.462 35.0424 101.058 35.1434 100.655C35.8504 96.1114 37.3655 66.6318 37.3655 58.6562C37.3655 51.2863 41.5067 49.4691 45.9509 47.5509C46.7589 47.1471 47.668 46.8442 48.476 46.4404C53.0212 44.1184 53.8292 36.8494 53.8292 25.0374C53.8292 19.2828 52.3142 16.557 51.0011 15.3455C49.5871 14.0331 48.274 14.134 48.173 14.134C47.365 14.134 46.7589 14.4369 46.1529 15.0426C43.3248 17.9704 43.2238 27.0566 43.3248 30.3881C43.3248 30.792 42.7187 35.6379 39.0826 35.9408C37.8705 36.1427 37.0625 35.6379 36.6585 35.2341C35.3454 34.0226 35.4464 31.8016 35.4464 31.5996C35.8504 27.3594 34.4364 11.2063 34.3354 10.0957C33.7293 7.26892 32.6183 5.45168 31.1032 4.54307C29.2851 3.53349 27.366 4.2402 27.366 4.2402C21.0028 6.66317 22.1138 26.9556 22.5178 34.6284C22.6188 35.7389 22.6188 36.6475 22.6188 37.3542C22.9218 41.4935 22.5178 44.2193 21.2048 45.5318C20.5987 46.1375 19.7907 46.5413 18.9827 46.5413C16.3566 46.5413 14.8415 42.8059 14.7405 42.3011C14.6395 33.114 13.1244 30.792 13.1244 30.792C11.9123 29.2776 10.7003 28.47 9.38724 28.47C7.26614 28.5709 5.54906 30.691 5.24605 31.0949C3.73098 34.1236 3.12495 46.2385 5.14505 53.1036C6.96313 58.7572 17.1646 58.1514 17.3666 58.1514"/>
	<path fill="#5D985B" d="M10.6218 39.9791L9.92179 44.2193"/>
	<path fill="#2D1B0A" d="M8.90075 44.0819L9.57102 39.8951L11.5656 40.2141L10.8954 44.4009L8.90075 44.0819"/>
	<path fill="#5D985B" d="M29.1127 20.8981L29.4127 25.3402"/>
	<path fill="#2D1B0A" d="M28.0549 21.0349L30.0693 20.8828L30.4039 25.3125L28.3895 25.4646L28.0549 21.0349"/>
	<path fill="#5D985B" d="M49.5157 30.893L49.6157 33.7198"/>
	<path fill="#2D1B0A" d="M48.5442 30.8085L50.5633 30.8085L50.6492 33.6338L48.5442 33.6951L48.5442 30.8085"/>
	<path fill="#5D985B" d="M31.0317 41.7964L31.7317 45.8347"/>
	<path fill="#2D1B0A" d="M30.0998 42.041L32.0854 41.6689L32.8486 45.7374L30.863 46.1095L30.0998 42.041"/>
	<path fill="#5D985B" d="M29.6177 69.1557L30.1177 73.194"/>
	<path fill="#2D1B0A" d="M28.5554 69.2999L30.5542 69.0086L31.1372 73.0045L29.1384 73.2958L28.5554 69.2999"/>
	<path fill="#5D985B" d="M31.1299 87.4291C30.6299 87.4291 30.8406 93.9913 30.8406 93.9913"/>
	<path fill="#2D1B0A" d="M30.0217 93.9913C29.7187 87.4291 30.1227 87.0252 30.4257 86.7224L31.2338 88.4387C31.7388 88.4387 32.0418 88.0348 32.0418 87.9339C31.8398 88.4387 31.9408 91.4674 32.0418 93.9913L30.0217 93.9913"/>
</svg>
