<?xml version="1.0" encoding="utf-8" ?>
<svg xmlns="http://www.w3.org/2000/svg" xmlns:xlink="http://www.w3.org/1999/xlink" width="110" height="56">
	<path fill="white" d="M35.4237 55.8995C34.2232 55.8995 24.5196 55.5978 19.2175 46.3483C19.0175 46.3483 18.8174 46.3483 18.5173 46.3483C7.91325 46.3483 0.910586 40.5171 0 30.7648C0 30.4632 -0.389908 24.632 3.81169 19.9066C6.71279 16.5889 11.0144 14.6786 16.5165 14.1759C18.3172 10.3555 23.4191 2.31239 35.8239 0.402154C37.4245 0.100539 39.1251 0 40.8258 0C52.13 0 60.2331 6.53501 63.1342 11.5619C65.5351 11.5619 69.7367 11.9641 73.2381 13.8743C74.8387 13.2711 77.3396 12.4668 80.2407 12.4668C84.4423 12.4668 88.3438 14.0754 91.3449 17.1921C91.545 17.3932 94.046 20.1077 95.0464 24.2298C96.0467 24.0287 97.1472 23.8276 98.4476 23.8276C101.249 23.8276 105.15 24.7325 108.351 29.1562C108.551 29.4578 110.552 32.3734 109.852 36.1939C109.352 38.9084 107.651 41.2208 104.85 43.0305C104.25 43.3321 102.649 44.0359 100.749 44.4381C99.1479 47.2531 95.0464 52.5817 87.1433 52.5817C84.8425 52.5817 82.3415 52.079 79.8406 51.1741C77.9399 53.1849 74.3385 55.8995 69.0365 55.8995C67.2358 55.8995 65.3351 55.5978 63.4343 54.8941C62.9342 54.693 59.5329 53.2855 56.9319 50.4704C55.8315 50.3698 54.2308 50.0682 52.5302 49.465C49.329 52.5817 43.9269 56 36.0239 56C35.9239 55.8995 35.4237 55.8995 35.4237 55.8995"/>
	<path fill="#D4EDF9" d="M55.5447 28.0502C55.5447 28.0502 59.7459 15.885 74.2502 18.1974C74.2502 18.1974 82.2525 19.7055 84.9533 26.3411C84.9533 26.3411 89.3546 25.3357 93.1557 28.0502C93.1557 28.0502 100.658 23.7271 105.659 30.8653C105.659 30.8653 109.46 36.1938 102.959 40.517C102.959 40.517 100.658 41.5224 98.5573 41.824C98.5573 41.824 93.5559 54.5924 78.8515 47.6552C78.8515 47.6552 73.8501 55.4973 64.3473 52.1795C64.3473 52.1795 60.5462 50.6714 58.3455 47.6552C58.3455 47.6552 45.1169 47.1526 45.1169 36.1938C44.9416 36.1938 45.7418 27.7486 55.5447 28.0502"/>
	<path fill="#2D1B0A" d="M68.84 53.8887C67.3395 53.8887 65.7391 53.5871 63.9385 52.9839C63.7385 52.8833 60.1374 51.4758 57.7367 48.4596C55.236 48.2586 44.0327 46.6499 44.0327 36.1939C44.0327 35.7918 44.0327 35.2891 44.3328 34.3842C44.933 32.1724 47.3337 27.0449 54.8359 27.0449C56.0362 24.4309 61.2377 15.1814 74.3416 17.1921C74.7417 17.2927 82.3439 18.8007 85.5449 25.1347C87.0453 24.9336 90.2462 24.8331 93.2471 26.8438C95.2477 25.939 101.85 23.6266 106.551 30.1616C106.651 30.2621 108.252 32.6751 107.751 35.5907C107.351 37.702 105.951 39.6122 103.55 41.1203C103.35 41.2209 101.35 42.1257 99.2489 42.5279C98.5487 43.9354 96.348 47.7559 91.8467 49.5656C88.1456 51.0736 83.8444 50.772 79.143 48.6607C77.8426 50.2693 74.3416 53.8887 68.84 53.8887M46.0333 35.8923C46.0333 46.0467 57.8367 46.5494 58.3369 46.5494C61.2377 49.6661 64.7388 51.1742 64.7388 51.1742C73.2413 54.1903 77.8426 47.3537 78.0427 47.0521L79.343 46.7505C83.8444 48.8618 87.8455 49.2639 91.2465 47.9569C95.8479 46.1472 97.7484 41.5225 97.7484 41.5225C100.349 40.6176 102.25 39.8133 102.65 39.6122C104.45 38.4058 105.551 36.9982 105.851 35.3986C106.251 33.2783 105.051 31.4686 105.051 31.4686C100.649 25.2352 94.0474 28.8546 93.8473 28.9551L92.747 28.8546C89.346 26.3411 85.3448 27.246 85.3448 27.246L84.2445 26.6427C81.7438 20.6104 74.3416 19.2029 74.2416 19.1024C60.8376 16.9085 56.8365 27.8492 56.6364 28.2514C52.2351 28.8546 49.5343 29.86 47.8338 32.0718C46.4334 33.6805 46.1333 35.3986 46.0333 35.8923"/>
	<path fill="#D4EDF9" d="M2.7119 30.4144C4.22096 45.5958 20.7258 43.1828 20.7258 43.1828C25.1271 53.1362 35.23 52.8424 35.23 52.8424C43.3324 53.0356 48.3339 49.3157 51.0347 46.4001C47.9338 44.892 45.333 41.9764 45.5331 37.1505C45.5331 37.1505 46.2333 28.6047 56.0361 28.8057C56.0361 28.8057 60.4374 16.4396 75.3418 18.8524C75.3418 18.8524 82.1438 19.7573 85.6448 26.0912C85.6448 26.0912 89.1458 26.2923 92.2555 27.3983C92.4468 22.7734 89.1458 19.2547 89.1458 19.2547C81.9437 12.0158 72.9411 17.2439 72.9411 17.2439C68.3397 13.9261 61.1376 14.6299 61.1376 14.6299C60.0373 10.4072 50.4345 0.9566 36.1303 3.36953C21.6261 5.58137 18.4251 17.0427 18.4251 17.0427C1.82025 17.646 2.7119 30.4144 2.7119 30.4144"/>
	<path fill="#2D1B0A" d="M35.8295 53.8406C35.6294 53.8406 35.4294 53.8406 35.1292 53.8406C35.1292 53.8406 24.8247 54.0414 20.0226 44.289C17.8216 44.4901 11.5188 44.5907 6.81672 40.9713C3.8154 38.5583 2.0146 35.14 1.6083 30.6157C1.6083 30.4146 1.31429 25.4882 4.91588 21.3661C7.71712 18.2494 11.919 16.5402 17.5215 16.2386C18.5219 13.6246 22.7237 4.57606 35.8295 2.56528C50.2359 0.15234 59.7401 9.10033 61.6409 13.7251C63.6418 13.6246 68.8441 13.7251 72.8459 16.2386C75.0469 15.2332 83.1504 12.1165 89.6533 18.6516C89.8534 18.8526 93.2549 22.5726 93.0633 27.5995L92.9548 29.0071L91.6542 28.5044C88.7529 27.499 85.3514 27.2979 85.3514 27.2979C81.3496 20.964 75.0469 20.0591 74.9468 20.0591C61.0407 17.8472 56.8388 28.9066 56.7388 29.3087C47.0345 29.8114 46.3342 37.1508 46.3342 37.4524C46.1341 42.1777 48.9353 44.5907 51.2363 45.6966L52.4369 46.2998L51.5365 47.3052C48.9353 50.2209 43.8331 53.8406 35.8295 53.8406M35.2293 51.8295C42.0323 52.0306 46.6343 49.316 49.4355 46.6015C46.1341 44.4901 44.4333 41.1723 44.5334 37.0502C44.5334 36.9497 45.4338 27.9012 55.3382 27.7001C56.4386 25.2871 60.9406 17.4451 71.5453 17.4451C67.3435 15.0321 61.3408 15.5348 61.2408 15.5348L60.2403 14.8311C59.3399 11.5133 50.536 1.96204 36.3298 4.27444C22.6237 6.38577 19.4223 17.1435 19.4223 17.244C13.1195 18.1489 9.11774 19.6569 6.61663 22.472C3.61531 25.7898 3.71535 30.0125 3.71535 30.2136C4.11553 34.1346 5.61619 37.1508 8.21734 39.1616C13.2196 43.0826 20.5228 42.0772 20.6228 42.0772L21.6233 42.6804C25.7251 51.93 34.8291 51.8295 35.2293 51.8295M86.2518 25.0861C87.1522 25.1866 89.1531 25.3877 91.254 25.9909C90.8538 22.472 88.4528 19.9586 88.4528 19.9586C83.0504 14.5294 76.6476 16.6408 74.3465 17.7467C74.7467 17.7467 75.1469 17.8472 75.5471 17.9478C75.7472 17.8472 82.4501 18.8526 86.2518 25.0861"/>
</svg>
