<?xml version="1.0" encoding="utf-8" ?>
<svg xmlns="http://www.w3.org/2000/svg" xmlns:xlink="http://www.w3.org/1999/xlink" width="52" height="102">
	<path fill="white" d="M31.2074 101.495C29.2113 100.484 26.217 97.3499 26.5164 91.6888C26.3168 91.3855 26.1172 91.0823 26 90.779C25.2189 88.8583 25.5183 86.6343 27.1153 84.2081C27.0155 83.7027 26.5164 82.6918 26.3168 82.2874C25.3187 80.1645 24.121 77.334 24.3206 73.6947C21.8254 72.886 19.7294 70.4599 18.931 66.9217C18.4319 64.6977 18.3321 61.8672 19.3302 59.3399C17.2342 59.0367 16.0365 57.8236 15.5375 57.116C14.9386 56.3072 14.0404 54.4876 14.9386 51.8593C15.4377 50.6462 16.6354 48.7255 18.2323 47.4113C18.7314 46.8048 19.5298 44.9851 19.5298 44.1764C19.43 44.1764 19.3302 44.0753 19.1306 44.0753C18.3321 44.2775 17.334 44.4797 16.1363 44.4797C14.4396 44.4797 12.9425 44.0753 11.645 43.2666C10.6469 44.1764 9.14975 44.9851 7.3532 44.9851C5.55664 44.9851 2.26297 44.0753 0.965455 38.2121C0.865647 37.6056 0.466413 34.5728 2.46258 32.1467C2.76201 31.7423 3.06143 31.439 3.46067 31.1358C3.36086 29.7205 3.76009 28.3053 4.55856 26.9911C3.16124 26.1824 1.36469 24.666 0.466413 22.2398C-0.431864 19.6115 0 16.781 1.66411 13.7483C1.76392 13.5461 4.65837 8.39049 10.2476 8.39049C10.4473 8.39049 10.7467 8.39049 10.9463 8.39049C11.5452 5.05451 14.24 0 21.027 0C22.4243 0 23.8216 0.20218 25.4185 0.606541C27.4147 1.21308 30.908 2.22398 31.9061 5.05451C32.5049 5.1556 33.3034 5.25669 34.4013 5.45887C44.0827 6.67195 51.3687 14.7592 52 21.1278C52.267 24.5649 50.4705 27.3954 47.4762 28.3053C47.2766 28.4063 47.077 28.4063 46.8774 28.5074C46.2785 29.9227 45.0808 30.8325 43.2842 31.338C42.4858 31.6412 42.0865 32.0456 41.8869 32.3489C41.8869 32.45 41.7871 32.551 41.9867 33.0565C42.1864 33.663 42.4858 34.3707 42.885 34.9772C43.8831 37.1001 45.2804 39.9306 44.1825 42.9633C43.9829 43.4688 43.7833 43.9742 43.4839 44.4797C44.3821 45.3895 45.1806 46.5015 45.5798 47.6135C46.2785 49.2309 46.6777 51.9604 44.8812 55.1952C44.1825 56.2061 42.386 58.2279 39.3917 58.5312C39.5913 59.5421 39.5913 60.4519 39.3917 61.3617C40.4896 61.8672 41.4877 62.777 41.9867 64.0912C42.9848 66.3152 42.5856 69.0446 40.9887 71.1675C42.386 72.5828 43.9829 75.0089 43.2842 77.6373C43.0846 78.3449 42.5856 79.4569 41.3879 80.2656C41.3879 80.5689 41.2881 80.9732 41.1883 81.2765C41.2881 81.4787 41.3879 81.782 41.4877 81.9841C41.7871 83.2983 41.6873 84.8147 40.9887 86.1288C40.789 88.3528 39.791 89.5659 38.7929 90.1724C38.7929 90.4757 38.6931 90.6779 38.5932 90.9812C38.2938 91.7899 37.8946 92.4975 37.2957 93.1041C37.2957 93.4073 37.2957 93.6095 37.2957 93.7106C37.7948 95.0248 38.0942 96.9455 37.2957 98.7651C36.6969 100.18 35.599 101.191 34.1019 101.596L32.6047 102L31.2074 101.495"/>
	<path fill="#2D1B0A" d="M31.9869 99.5738C31.7875 99.4728 27.6968 97.3499 28.3952 90.8801C28.0958 90.5768 27.8964 90.2735 27.6968 89.8692C27.0982 88.555 27.4973 86.8365 28.6945 85.0169C29.1933 84.3092 28.8941 83.6016 27.8964 81.3776C26.8986 79.1536 25.6016 76.3231 26.2002 72.6839C26.2999 72.1784 26.0007 72.0773 25.5018 71.9762C23.3068 71.774 21.4111 69.6511 20.6129 66.5173C19.9144 63.5857 20.2138 59.8454 22.5086 57.8236C22.5086 57.7225 22.5086 57.7225 22.5086 57.6214C22.4088 57.5203 22.1095 57.4192 21.6107 57.4192C21.3113 57.4192 20.9123 57.5203 20.4134 57.5203C18.4179 57.5203 17.4202 56.7116 16.9212 56.004C16.4225 55.3974 16.0233 54.1843 16.622 52.4658C16.9212 51.8593 18.1186 50.0396 19.5154 48.8266C20.2138 48.1189 21.91 44.884 21.3113 43.2666C21.1117 42.6601 20.3136 42.1546 19.0166 42.0535C18.4179 42.2557 17.3204 42.4579 16.1231 42.4579C14.1276 42.4579 12.6311 41.7503 11.5336 40.5372C11.1345 41.1437 9.5381 43.0644 7.3431 43.0644C5.8465 43.0644 3.75127 42.1546 2.75354 37.8077C2.65377 37.5045 2.35445 35.2805 3.85105 33.4609C4.15036 33.0565 4.749 32.551 5.44741 32.2478C5.34764 31.9445 5.34764 31.6412 5.34764 31.2369C5.24787 29.5183 5.94628 27.7998 7.54264 26.1824C7.44287 26.1824 7.24332 26.0813 7.04378 26.0813C6.44514 25.9802 3.35218 24.7671 2.25468 21.6333C1.55627 19.6115 1.89615 17.2864 3.35218 14.8603C3.45195 14.7592 5.8465 10.4123 10.3363 10.4123C11.1345 10.4123 11.9326 10.5134 12.7308 10.8167C12.8306 10.8167 12.9303 10.8167 13.0301 10.8167C13.0301 10.7156 12.9303 10.6145 12.9303 10.5134C12.9303 6.97523 14.9258 2.1229 21.012 2.1229C22.2093 2.1229 23.5064 2.32508 24.9032 2.72944C27.597 3.53816 30.1911 4.44797 30.1911 6.87414C30.7898 7.07632 31.8873 7.2785 34.0822 7.58177C43.2613 8.79485 49.5471 16.4777 49.9676 21.5322C50.1456 24.0595 48.9483 26.0813 46.7533 26.6878C45.8554 26.9911 45.3565 27.1933 45.157 27.2944C44.8576 28.6085 44.0595 29.3162 42.563 29.7205C41.3657 30.1249 40.4676 30.9336 40.0686 31.7423C39.7692 32.3489 39.7692 33.1576 40.0686 33.9663C40.2682 34.6739 40.6672 35.3816 40.9665 36.0892C41.8645 38.0099 42.962 40.2339 42.1638 42.559C41.8645 43.4688 41.2659 44.2775 40.4676 44.9851C41.6649 45.6928 42.962 46.9059 43.5606 48.5233C44.0595 49.8375 44.3588 51.8593 42.962 54.4876C42.563 54.9931 41.0663 56.8127 38.572 56.8127C38.1729 56.8127 37.674 56.7116 37.2749 56.6105C37.1751 57.0149 37.0754 57.5203 37.0754 58.4301C37.3747 59.1378 37.7738 60.3508 37.0754 61.4628C36.9756 61.5639 36.9756 61.665 36.8758 61.8672C37.0754 62.1705 37.1751 62.5748 37.3747 62.9792C38.572 63.0803 39.5697 63.7879 40.0686 64.8999C40.8667 66.6184 40.368 68.8424 38.8713 70.561C38.4722 70.9653 38.2726 71.2686 38.1729 71.4708C38.4722 71.6729 42.064 74.4024 41.2659 77.1318C41.0663 77.7384 40.6672 78.6482 39.2704 79.1536C39.3701 79.8613 39.2704 80.7711 38.7715 81.4787C39.0709 81.782 39.1707 82.1863 39.2704 82.5907C39.5697 83.7027 39.2704 84.8147 38.7715 85.6234C38.572 87.9485 37.5742 88.7572 36.6763 88.9594C36.6763 89.4648 36.6763 89.8692 36.4767 90.3746C36.2772 91.0823 35.7783 91.6888 35.0799 92.0932C34.9801 92.8008 34.9801 93.6095 34.9801 94.115C35.3792 95.0248 35.7783 96.6422 35.1797 97.9564C34.7806 98.7651 34.0822 99.4728 33.1842 99.6749L31.9869 99.5738"/>
	<path fill="#EEE" d="M33.8825 9.40376C22.6082 7.8874 33.1841 7.07868 24.4041 4.55143C15.3248 2.02417 14.7262 9.70703 14.7262 9.70703C16.0232 12.9419 12.4314 12.7397 12.4314 12.7397C7.74205 10.9201 5.04818 15.7724 5.04818 15.7724C1.35659 21.9389 7.54251 24.0618 7.54251 24.0618C11.4337 24.8706 9.63774 26.7913 9.63774 26.7913C5.24773 30.936 8.54024 33.4632 8.54024 33.4632C4.15023 33.4632 4.74887 37.3046 4.74887 37.3046C6.24546 44.1788 10.0368 39.4275 10.0368 39.4275C12.1321 36.3948 12.3316 37.709 12.3316 37.709C13.4291 42.0559 18.8168 40.0341 18.8168 40.0341C26.8984 40.6406 22.0096 49.2333 20.7125 50.3453C19.4155 51.3562 18.4178 53.0747 18.4178 53.0747C17.3202 56.3096 21.6105 55.3998 21.6105 55.3998C26.0005 55.8042 24.1048 59.039 24.1048 59.039C20.7125 61.3641 22.3089 69.6535 25.8009 70.0579C29.1932 70.5633 28.0957 73.0906 28.0957 73.0906C26.9982 79.156 32.4857 82.7952 30.1909 86.2323C27.8962 89.6694 30.3905 90.0737 30.3905 90.0737C29.0934 96.2402 32.6853 97.9588 32.6853 97.9588C33.9823 97.5544 33.7828 96.038 33.1841 94.7239C32.9846 93.4097 33.3837 90.8824 33.3837 90.8824C34.6807 90.377 35.2794 89.5683 34.2816 87.8497C33.9823 87.3443 33.8825 87.1421 33.9823 86.9399C34.2816 86.9399 34.4812 87.041 34.4812 87.041C34.98 87.1421 35.2794 87.1421 35.5787 87.1421C37.3746 87.4454 36.776 85.4236 37.0753 84.817C37.5741 84.2105 37.9732 82.8963 36.8757 82.492C35.9778 82.1887 36.0775 81.5821 36.1773 81.4811C36.1773 81.4811 36.1773 81.4811 36.1773 81.38C37.8735 80.5712 37.1751 78.8527 37.1751 78.8527C36.0775 77.5385 37.3746 77.5385 37.3746 77.5385C41.3655 77.3364 38.2726 73.8993 36.9755 72.9895C35.6785 72.1808 35.6785 71.1699 37.3746 69.1481C39.0707 67.2273 38.4721 64.8012 37.1751 64.8012C35.6785 64.599 35.4789 63.6892 35.4789 63.6892C35.2794 61.5663 33.1841 61.7685 33.1841 61.7685C31.8871 61.5663 32.9846 60.8587 32.9846 60.8587C36.8757 61.4652 35.0798 58.7358 35.0798 58.7358C35.0798 53.5802 36.776 54.1867 36.776 54.1867C39.4698 55.5009 41.166 53.2769 41.166 53.2769C44.1592 47.7169 37.5741 45.493 37.5741 45.493C36.2771 45.0886 37.3746 44.1788 37.3746 44.1788C42.8621 41.5504 39.2703 37.9112 38.073 34.2719C36.776 30.6327 39.3701 28.3076 41.8644 27.3978C44.658 26.6902 41.2657 25.7804 46.0548 24.3651C51.3428 23.152 45.2567 10.9201 33.8825 9.40376"/>
</svg>
