<?xml version="1.0" encoding="utf-8" ?>
<svg xmlns="http://www.w3.org/2000/svg" xmlns:xlink="http://www.w3.org/1999/xlink" width="82" height="98">
	<path fill="white" d="M69.0794 63.2875L67.2481 20.2238L65.9256 20.2238C65.8238 19.3183 65.6203 18.5133 65.4169 17.9097C65.1117 16.9035 65.1117 16.8029 65.2134 16.501C65.3151 15.9979 65.6203 15.5955 65.9256 15.193C67.0447 13.6838 68.7742 11.1684 67.3499 7.34497C66.6377 3.92402 64.3995 0 60.4318 0C60.33 0 60.1266 0 60.0248 0C58.1935 0.100616 56.6675 0.905544 55.7519 2.31417C54.1241 4.93018 55.2432 8.35113 55.6501 9.25667C56.2605 10.2628 56.6675 10.9671 56.6675 11.6715C56.6675 12.4764 56.6675 12.577 56.5658 13.1807C56.3623 14.0862 55.9553 15.3943 56.2605 17.809C56.3623 18.7146 56.6675 19.6201 56.9727 20.4251L55.8536 20.4251L54.2258 60.8727L28.4864 47.5914L27.3672 20.4251L26.1464 20.4251C26.0447 19.7207 25.8412 19.0164 25.6377 18.5133C25.3325 17.6078 25.3325 17.4066 25.4342 17.1047C25.6377 16.8029 25.9429 16.4004 26.2481 15.9979C27.2655 14.6899 29.1985 12.1745 27.6725 8.55236C26.9603 5.23203 24.7221 1.50924 20.7543 1.50924C20.6526 1.50924 20.4491 1.50924 20.3474 1.50924C17.804 1.71047 16.5831 3.1191 15.9727 3.92402C14.3449 6.54004 15.6675 10.0616 15.9727 10.6653C16.5831 11.4702 16.9901 11.9733 16.9901 12.577C16.9901 13.0801 16.8883 13.2813 16.8883 13.3819C16.6849 14.2875 16.2779 15.6961 16.4814 18.0103C16.5831 18.9158 16.7866 19.6201 17.0918 20.3244L15.871 20.3244L14.5484 54.6345L0 47.0883L0 98L82 98L82 63.3881L69.0794 63.3881"/>
	<path fill="#325D70" d="M16.9901 71.88L26.4516 71.88L24.4169 23.1818L18.9231 23.1818L16.9901 71.88"/>
	<path fill="#2D1B0A" d="M27.5707 72.8862L15.9727 72.8862L18.0074 22.1757L25.4342 22.1757L27.5707 72.8862M18.1092 70.8739L25.4342 70.8739L23.5012 24.1881L19.9404 24.1881L18.1092 70.8739"/>
	<path fill="#325D70" d="M3.15395 51.958L30.8265 66.2455L30.8265 94.8204L3.15395 94.8204L3.15395 51.958"/>
	<path fill="#2D1B0A" d="M31.8437 95.9272L2.1365 95.9272L2.1365 50.2475L31.8437 65.6418L31.8437 95.9272M4.17124 93.9149L29.809 93.9149L29.809 66.9498L4.17124 53.6684L4.17124 93.9149"/>
	<path fill="#99CC62" d="M56.8506 71.88L66.3122 71.88L64.2774 23.1818L58.7836 23.1818L56.8506 71.88"/>
	<path fill="#2D1B0A" d="M67.4313 72.8862L55.8333 72.8862L57.868 22.1757L65.2948 22.1757L67.4313 72.8862M57.9697 70.8739L65.2948 70.8739L63.3618 24.1881L59.801 24.1881L57.9697 70.8739"/>
	<path fill="#99CC62" d="M30.8058 51.958L58.4783 66.2455L79.0292 66.2455L79.0292 94.8204L58.4783 94.8204L30.8058 94.8204L30.8058 51.958"/>
	<path fill="#2D1B0A" d="M80.0465 95.9272L29.7885 95.9272L29.7885 50.2475L58.7835 65.2393L80.0465 65.2393L80.0465 95.9272M31.8232 93.9149L78.0117 93.9149L78.0117 67.3521L58.2748 67.3521L31.8232 53.6684L31.8232 93.9149"/>
	<path fill="#DCDCDD" d="M64.3995 8.04929C64.3995 8.04929 63.3821 2.61602 60.2282 2.8118C56.464 3.01849 58.4987 8.04929 58.4987 8.04929C58.4987 8.04929 59.7196 9.55853 59.7196 11.5709C59.923 13.5832 58.9057 14.0862 59.3126 17.2053C59.5161 18.9158 60.33 20.7269 61.5508 21.3306C61.5508 21.3306 63.0769 22.1355 62.7717 20.5257C62.7717 18.8152 61.2456 17.4066 62.3647 15.0924C63.1786 13.0801 65.9255 11.5709 64.3995 8.04929"/>
	<path fill="#2D1B0A" d="M62.263 22.538C61.6526 22.538 61.2456 22.3366 61.0421 22.236C59.3126 21.3299 58.4987 19.1151 58.1935 17.3031C57.99 15.3903 58.2952 14.2829 58.4987 13.4775C58.7022 12.8735 58.8039 12.3702 58.7022 11.6655C58.7022 9.95405 57.6848 8.74599 57.6848 8.74599C57.3796 8.14196 56.1588 5.22249 57.3796 3.30973C57.7866 2.70571 58.4987 2.00101 60.0248 1.888C63.789 1.59832 65.1116 6.93391 65.3151 7.83995C66.5359 10.7594 65.2133 12.5715 64.196 13.9809C63.789 14.4843 63.4838 15.0883 63.2804 15.5916C62.7717 16.699 62.9751 17.5044 63.3821 18.5111C63.5856 19.1151 63.789 19.8198 63.789 20.5245C63.8908 21.5313 63.4838 22.0346 63.1786 22.3366C62.8734 22.538 62.5682 22.538 62.263 22.538M60.7369 11.4641C60.8387 12.4708 60.6352 13.2762 60.5335 13.8802C60.33 14.6856 60.1265 15.491 60.33 17.001C60.5335 18.4104 61.1439 19.6185 61.856 20.2225C61.856 19.8198 61.6526 19.4172 61.5508 19.0145C61.1439 17.9071 60.7369 16.4977 61.5508 14.6856C61.856 13.9809 62.263 13.3769 62.6699 12.6722C63.5856 11.3634 64.3995 10.2561 63.5856 8.3433C63.2804 6.93391 62.1612 3.61175 60.33 3.81309C59.6178 3.81309 59.3126 4.11511 59.2109 4.31645C58.7022 5.02115 59.1091 6.73256 59.4143 7.53793C59.7196 8.04129 60.7369 9.55136 60.7369 11.4641"/>
	<path fill="#DCDCDD" d="M24.8239 9.15607C24.8239 9.15607 23.8065 3.92404 20.6526 4.21331C16.8884 4.42712 18.9231 9.15607 18.9231 9.15607C18.9231 9.15607 20.144 10.3635 20.144 12.2752C20.3474 13.7844 19.3301 14.2875 19.737 17.5072C19.9405 19.0164 20.7544 20.4251 21.9752 21.23C21.9752 21.23 23.5013 22.2361 23.1961 20.8275C23.1961 19.3183 21.67 17.9097 22.7891 15.5955C23.5013 13.5832 26.2482 12.3758 24.8239 9.15607"/>
	<path fill="#2D1B0A" d="M22.7891 22.6386C22.1787 22.6386 21.5683 22.3366 21.3648 22.1353C19.9405 21.2291 18.9231 19.6183 18.6179 17.7053C18.4144 15.5912 18.7196 14.5843 18.9231 13.7789C19.0249 13.2755 19.1266 12.967 19.1266 12.5708C19.1266 10.9599 18.211 9.95316 18.211 9.95316C17.9057 9.34909 16.6849 6.5301 17.9057 4.71789C18.3127 4.11382 19.0249 3.40907 20.6526 3.29535C24.4169 3.00636 25.7395 8.04027 25.943 8.94638C27.1638 11.6647 25.8412 13.2755 24.8239 14.5843C24.4169 15.0878 24.01 15.5912 23.8065 16.0946C23.2978 17.202 23.603 18.1081 23.9082 19.0142C24.1117 19.6183 24.3152 20.2224 24.3152 20.8265C24.4169 21.8331 24.01 22.236 23.7048 22.5379C23.2978 22.5379 23.0943 22.6386 22.7891 22.6386M21.1613 12.2688C21.2631 13.0742 21.0596 13.6783 20.9579 14.2824C20.7544 14.9871 20.5509 15.7924 20.7544 17.5041C20.9579 18.5108 21.4665 19.5176 22.077 20.1217C22.077 20.021 21.9752 19.8196 21.8735 19.6183C21.4665 18.5108 20.9579 17.1013 21.7718 15.2892C22.077 14.5843 22.5857 13.9803 22.9926 13.3763C23.9082 12.1681 24.6204 11.3626 23.8065 9.7518C23.7048 9.55045 22.7891 5.22128 20.5509 5.42264C19.737 5.52332 19.5335 5.82535 19.4318 5.92603C19.0249 6.63078 19.3301 8.14095 19.6353 8.8457C20.144 9.14773 21.0596 10.4566 21.1613 12.2688"/>
	<path fill="white" d="M8.27124 65.2595L13.2563 65.2595L13.2563 69.3848L8.27124 69.3848L8.27124 65.2595"/>
	<path fill="white" d="M8.27124 77.4341L13.2563 77.4341L13.2563 81.5593L8.27124 81.5593L8.27124 77.4341"/>
	<path fill="white" d="M34.8958 65.2595L39.8809 65.2595L39.8809 69.3848L34.8958 69.3848L34.8958 65.2595"/>
	<path fill="white" d="M34.8958 77.4341L39.8809 77.4341L39.8809 81.5593L34.8958 81.5593L34.8958 77.4341"/>
</svg>
