<?xml version="1.0" encoding="utf-8" ?>
<svg xmlns="http://www.w3.org/2000/svg" xmlns:xlink="http://www.w3.org/1999/xlink" width="80" height="70">
	<path fill="white" d="M0 70L0 65.3868C0 61.4756 0 53.3524 3.65947 47.0344C7.92884 40.2149 17.0775 39.0115 23.1766 38.3095C23.3799 38.3095 23.6849 38.3095 23.8882 38.2092C23.9898 38.2092 24.1931 38.2092 24.3964 38.2092L25.413 38.2092L25.413 30.1862L30.8005 30.1862L30.8005 20.9599L33.8501 20.9599L33.8501 16.447L37.6112 16.447L37.6112 14.1404L25.0064 14.1404C22.5667 14.1404 20.6353 12.3352 20.6353 10.0287L20.6353 4.31232C20.6353 1.90544 22.5667 0 25.0064 0L62.6175 0C65.0572 0 66.9886 1.90544 66.9886 4.31232L66.9886 10.0287C66.9886 12.3352 65.0572 14.1404 62.6175 14.1404L49.8094 14.1404L49.8094 16.447L53.6722 16.447L53.6722 20.9599L56.7217 20.9599L56.7217 30.1862L62.7192 30.1862L60.9911 37.3066L68.615 37.3066L68.615 34.4986L80 34.4986L80 62.3782L68.615 62.3782L68.615 59.9713L62.6175 59.9713C60.6861 59.9713 58.4498 60.8739 57.0267 61.5759C53.0623 64.0831 48.6912 65.3868 44.2186 65.3868C41.5756 65.3868 39.136 65.086 36.798 64.384C35.1715 63.8825 33.4435 63.1805 31.1055 62.0774C27.8526 60.5731 25.6163 59.4699 23.6849 59.4699C23.2783 59.4699 22.9733 59.4699 22.4651 59.6705C19.9238 60.3725 20.2287 66.1891 20.2287 66.3897L20.5337 70L0 70"/>
	<path fill="#89C5E5" d="M3.34725 66.3195L16.8811 66.3195C16.8811 66.3195 16.0679 57.695 21.4554 56.0903C26.7412 54.4857 33.0436 59.7007 37.618 60.9041C41.8874 62.1076 48.6981 62.8095 55.0005 58.4971C55.0005 58.4971 58.66 56.2908 62.5227 56.2908L71.8746 56.2908L71.8746 58.6978L76.449 58.6978L76.449 37.5373L71.8746 37.5373L71.8746 40.3454L63.1327 40.3454C63.1327 40.3454 57.8467 40.546 57.0334 38.139L58.2533 33.1247L53.1708 33.1247L53.1708 23.8983L50.1211 23.8983L50.1211 19.3855L37.008 19.3855L37.008 23.8983L33.9585 23.8983L33.9585 33.1247L28.5709 33.1247L28.5709 38.139C30.1975 38.139 31.2139 40.546 25.7248 40.9471C20.4389 41.7494 10.2737 42.1505 6.51253 48.3682C2.95472 54.5861 3.34725 63.2106 3.34725 66.3195"/>
	<path fill="#2D1B0A" d="M17.9924 67.3223L2.3377 67.3223L2.3377 65.4169C2.3377 61.606 2.3377 53.7836 5.69252 47.967C9.35199 42.1504 17.8907 41.0473 23.5832 40.3453C24.3965 40.245 25.108 40.1447 25.7179 40.0444C27.751 39.8438 28.5642 39.4427 28.8691 39.2421C28.8691 39.2421 28.7675 39.2421 28.6658 39.2421L27.6493 39.2421L27.6493 32.222L33.0369 32.222L33.0369 22.9957L36.0864 22.9957L36.0864 18.3825L51.2325 18.3825L51.2325 22.8954L54.2821 22.8954L54.2821 32.1218L59.568 32.1218L58.1449 38.0387C58.7548 39.0415 61.3977 39.3424 63.1258 39.3424L70.8514 39.3424L70.8514 36.5344L77.4587 36.5344L77.4587 59.7006L70.8514 59.7006L70.8514 57.2937L62.5159 57.2937C58.9581 57.2937 55.6036 59.2994 55.6036 59.2994C49.1995 63.712 42.1855 63.1103 37.4079 61.8066C35.7815 61.4054 33.9517 60.5028 32.122 59.6003C28.5642 57.8954 24.9047 56.0902 21.8552 56.9928C17.2808 58.3968 17.8907 66.1189 17.9924 66.1189L17.9924 67.3223M4.37105 65.3166L15.8577 65.3166C15.8577 62.8094 16.366 56.5917 21.2453 55.1877C25.108 53.9842 29.3774 56.0902 33.0369 57.8954C34.8666 58.798 36.493 59.6003 37.9162 60.0014C42.2872 61.2048 48.5896 61.8066 54.4854 57.7951C54.6887 57.6948 58.4498 55.4885 62.5159 55.4885L72.8844 55.4885L72.8844 57.8954L75.4257 57.8954L75.4257 38.7407L72.8844 38.7407L72.8844 41.5487L63.1258 41.5487C62.5159 41.5487 57.1284 41.7493 56.1118 38.6404L57.0267 34.3281L52.2491 34.3281L52.2491 25.1017L49.1995 25.1017L49.1995 20.3882L38.1195 20.3882L38.1195 24.9011L35.0699 24.9011L35.0699 34.1275L29.6824 34.1275L29.6824 37.3367C30.3939 37.6375 30.9022 38.3395 31.0038 39.0415C31.0038 39.9441 30.3939 41.5487 25.9212 41.9498C25.3113 42.0501 24.5998 42.1504 23.7866 42.2507C18.5007 42.8524 10.5718 43.8553 7.42061 48.8696C4.2694 54.2851 4.37105 61.7063 4.37105 65.3166"/>
	<path fill="#89C5E5" d="M40.8641 10.3596L46.3533 10.3596L46.3533 19.3854L40.8641 19.3854L40.8641 10.3596"/>
	<path fill="#2D1B0A" d="M47.3698 20.2879L39.8476 20.2879L39.8476 9.25645L47.3698 9.25645L47.3698 20.2879M41.8806 18.2822L45.3368 18.2822L45.3368 11.2622L41.8806 11.2622L41.8806 18.2822"/>
	<path fill="#89C5E5" d="M24.9048 2.93836L62.516 2.93836C62.9226 2.93836 63.5324 3.33951 63.5324 3.94124L63.5324 9.65757C63.5324 10.0587 63.1258 10.4599 62.516 10.4599L24.9048 10.4599C24.4982 10.4599 23.8883 10.2593 23.8883 9.65757L23.8883 3.94124C23.8883 3.33951 24.3965 2.93836 24.9048 2.93836"/>
	<path fill="#2D1B0A" d="M62.516 11.4627L24.9048 11.4627C23.7867 11.4627 22.8718 10.6604 22.8718 9.65756L22.8718 3.94123C22.8718 2.83808 23.7867 1.9355 24.9048 1.9355L62.516 1.9355C63.4309 1.9355 64.5491 2.73779 64.5491 3.94123L64.5491 9.65756C64.5491 10.6604 63.7358 11.4627 62.516 11.4627M24.9048 9.45699L62.516 9.45699L62.516 3.94123L24.9048 3.94123L24.9048 9.45699M24.9048 2.93837L24.9048 3.94123L24.9048 2.93837"/>
</svg>
