<?xml version="1.0" encoding="utf-8" ?>
<svg xmlns="http://www.w3.org/2000/svg" xmlns:xlink="http://www.w3.org/1999/xlink" width="70" height="102">
	<path fill="white" d="M30.3698 102L30.3698 53.6683L25.889 53.2655L25.889 61.6229L0 44.5054L14.936 34.6377L14.3385 32.8253L7.46799 33.4294L7.16927 10.3712L30.4694 11.9822L30.4694 0L44.111 0L44.111 4.63179L70 21.7493L51.3798 34.0336L62.9303 33.228L62.6316 56.2863L44.2105 54.6752L44.2105 102L30.3698 102M25.889 31.9191L25.889 35.846L30.3698 35.4432L30.3698 31.5163L25.889 31.9191"/>
	<path fill="#99CC62" d="M41.074 27.4886L47.0483 26.9852L47.0483 33.1273L64.4737 21.6485L47.0483 10.1697L47.0483 16.1105L41.074 15.7078L41.074 2.91995L33.4068 2.91995L33.4068 15.1035L10.2062 13.4925L10.4054 30.1066L33.4068 28.0928L33.4068 38.1618L22.9516 38.9674L22.9516 33.0266L5.5263 44.5053L22.9516 55.9841L22.9516 49.8419L33.4068 50.7481L33.4068 98.8785L41.074 98.8785L41.074 51.3523L59.5946 52.9633L59.7937 36.3493L41.074 37.6583"/>
	<path fill="#2D1B0A" d="M42.0697 99.8855L32.4111 99.8855L32.4111 51.6545L23.9474 51L23.9474 57.8973L3.734 44.6061L23.9474 31.3149L23.9474 38.0612L32.4111 37.457L32.4111 29.4018L9.40968 31.4156L9.21053 12.5864L32.4111 14.1974L32.4111 2.1145L42.0697 2.1145L42.0697 15.003L46.0526 15.305L46.0526 8.55873L66.266 21.8499L46.0526 35.1412L46.0526 28.1935L42.0697 28.4955L42.0697 36.6515L60.7895 35.3425L60.5903 54.1718L42.0697 52.5607L42.0697 99.8855M34.4026 97.8717L40.0782 97.8717L40.0782 50.2448L58.5989 51.8559L58.798 37.457L40.0782 38.766L40.0782 26.5824L48.0441 25.8776L48.0441 31.2142L62.6814 21.5479L48.0441 11.8815L48.0441 17.0168L40.0782 16.5133L40.0782 3.92694L34.4026 3.92694L34.4026 16.2112L11.202 14.6002L11.4011 28.999L34.4026 26.9852L34.4026 39.0681L21.9559 40.075L21.9559 34.9398L7.31864 44.6061L21.9559 54.2724L21.9559 48.9358L34.4026 50.0434L34.4026 97.8717"/>
</svg>
