<?xml version="1.0" encoding="utf-8" ?>
<svg xmlns="http://www.w3.org/2000/svg" xmlns:xlink="http://www.w3.org/1999/xlink" width="108" height="74">
	<path fill="white" d="M11.4975 74C10.6865 74 9.97694 73.7967 9.36873 73.3901L7.74684 72.272L8.05095 70.4423C8.05095 70.4423 8.05095 70.0357 8.05095 70.0357C8.05095 55.7033 8.05095 41.3709 8.05095 27.1401C7.5441 26.5302 6.73316 25.717 6.32769 25.1071C4.80716 23.2775 3.79348 22.1593 2.88117 21.0412C2.67843 20.7363 2.37433 20.4313 2.17159 20.1264C1.76612 19.6181 1.36064 19.1099 0.955171 18.7033C0 17.5852 0 16.467 0 15.8571C0.144225 15.1456 0.549698 14.1291 1.76612 13.3159C2.67843 12.706 3.59074 12.706 3.89485 12.706C6.42905 12.706 11.4975 12.706 18.0864 12.706L24.6753 12.706L27.0068 11.1813C27.7164 10.1648 29.3383 8.13187 33.8998 2.74451C34.4067 2.23626 34.7108 1.82967 34.8122 1.62637C35.4204 0.914835 36.2313 0.406593 37.0423 0.203297C37.6505 0 38.36 0 39.0696 0C39.0696 0 86.5099 0 102.729 0C102.932 0 103.033 0 103.236 0C104.655 0 105.871 0.813187 106.378 2.03297C106.682 2.84615 107.088 4.37088 105.77 5.99725C105.162 6.81044 101.614 11.0797 99.5864 13.5192L108 26.1236L98.9782 32.4258L98.9782 35.0687C98.9782 42.1841 98.9782 49.4011 98.9782 56.5165C98.9782 58.4478 98.0659 60.0742 96.444 61.1923C95.1262 62.0055 81.0361 71.8654 79.3128 73.0852C78.6032 73.5934 77.7923 73.8984 76.9813 73.8984C76.4745 73.8984 76.2718 73.8984 75.9676 73.8984L12.207 73.8984C11.8016 74 11.5988 74 11.4975 74"/>
	<path fill="#FCAF27" d="M10.7879 25.6535C10.7879 25.6535 10.7879 25.5519 10.7879 25.5519C10.7879 25.4502 11.0921 25.4502 11.2948 25.4502C15.1468 25.3486 19.1001 25.3486 22.9521 25.3486C39.5765 25.3486 56.2009 25.3486 72.724 25.3486C73.5349 25.3486 74.2445 25.3486 75.0554 25.3486C75.5622 25.5519 76.1704 25.3486 76.576 25.6535C76.6772 26.1618 76.576 26.67 76.576 27.2799C76.6772 35.5134 76.6772 43.8486 76.7786 52.0821C76.8883 57.8761 76.7786 63.67 76.8883 69.464C76.8883 69.9722 76.9813 70.4805 76.4745 70.8108C76.1704 70.8108 75.8663 70.8108 75.5622 70.8108C54.2749 70.8108 33.089 70.8108 11.8016 70.8108C11.4975 70.8108 11.1934 70.8871 10.7879 70.6838C10.7879 70.3788 10.7879 70.1755 10.7879 69.8706C10.7879 55.4365 10.7879 41.0024 10.7879 26.5684C10.9907 26.2634 11.0921 25.9585 10.7879 25.6535"/>
	<path fill="#2D1B0A" d="M11.4976 71.7638C11.1934 71.7638 10.7879 71.7638 10.4838 71.4588L10.0783 70.4424C10.0783 70.3407 10.0783 70.1374 10.0783 70.0358C10.0783 55.3984 10.0783 40.9643 10.0783 26.5303C10.0783 26.4286 10.0783 26.327 10.0783 26.2253C10.0783 26.2253 10.0783 26.1237 10.0783 26.1237C9.8756 26.022 9.8756 25.8187 9.8756 25.7171C10.6866 24.294 11.1934 24.294 11.3962 24.294C15.3497 24.294 19.3032 24.294 23.054 24.294C34.509 24.294 45.8627 24.294 57.3177 24.294L72.929 24.294C73.74 24.294 74.4496 24.294 75.2606 24.294C75.6661 24.294 75.8688 24.294 75.9702 24.294C76.3757 24.294 77.0853 24.294 77.5921 25.0055C77.9976 26.022 77.9976 26.4286 77.9976 26.8352C77.9976 26.9369 77.9976 27.1402 77.9976 27.2418C77.9976 30.3929 77.9976 33.6457 78.099 36.7967C78.099 41.8792 78.2004 46.9616 78.2004 52.044C78.2004 55.0935 78.2004 58.0413 78.3046 61.0907C78.3046 63.9369 78.3046 66.6814 78.3046 69.5275C78.3046 70.2391 78.4031 71.1539 77.3894 71.7638C76.4771 71.8654 76.2743 71.8654 75.9702 71.8654C54.6821 71.8654 33.4953 71.8654 12.2072 71.8654C12.1058 71.8654 12.1058 71.8654 12.0044 71.8654C11.7003 71.7638 11.5989 71.7638 11.4976 71.7638M12.0044 69.7308C33.1912 69.7308 54.4793 69.7308 75.6661 69.7308C75.7675 69.7308 75.8688 69.7308 75.9702 69.7308C75.9702 69.7308 75.9702 69.7308 75.9702 69.6292C75.9702 66.5797 75.9702 63.8352 75.9702 60.9891C75.9702 58.0413 75.9702 54.9918 75.8688 52.044C75.7675 46.9616 75.7675 41.8792 75.7675 36.7967C75.7675 33.6457 75.7675 30.3929 75.6661 27.2418C75.6661 27.0385 75.6661 26.9369 75.6661 26.7336C75.6661 26.6319 75.6661 26.5303 75.6661 26.4286C75.4633 26.4286 75.2606 26.4286 74.9565 26.327C74.2469 26.327 73.5373 26.327 72.8277 26.327L57.2164 26.327C45.7613 26.327 34.4076 26.327 22.9526 26.327C19.4046 26.327 15.6538 26.327 12.0044 26.4286C12.0044 40.8627 12.0044 55.2967 12.0044 69.7308"/>
	<path fill="#D7AC56" d="M76.5759 70.6456C76.7786 70.4423 76.7786 70.1373 76.7786 69.8324C76.7786 64.445 76.5759 25.8186 76.6773 25.5136C79.4142 23.5824 94.1126 13.5191 95.0249 13.0109C95.2277 12.8672 95.5318 12.8672 95.7345 12.8672C95.7345 13.2142 95.7345 13.6208 95.7345 13.9257C95.7345 28.0549 95.7345 42.1839 95.7345 56.3131C95.7345 57.228 95.4304 57.8378 94.6194 58.4478C93.2003 59.3625 78.9074 69.3241 77.3868 70.3406C77.1841 70.5439 76.88 70.6456 76.5759 70.6456"/>
	<path fill="#2D1B0A" d="M74.5485 71.7638L75.7649 70.1382C75.7649 70.0366 75.7649 70.0366 75.7649 69.935C75.7649 68.3094 75.7649 64.1439 75.6636 58.8607C75.4608 25.4348 75.4608 25.3332 75.8663 24.9268C78.2991 23.0981 93.403 12.735 94.518 12.1254C95.1262 11.9065 95.5317 11.9065 96.0386 12.0238L96.7481 13.9542L96.7481 23.1997C96.7481 34.1723 96.7481 45.2465 96.7481 56.2192C96.7481 57.54 96.2413 58.4544 95.1262 59.1655C93.8085 60.0799 79.6169 69.8334 77.8936 71.0526C77.4882 71.3574 77.0827 71.459 76.5759 71.5606L74.5485 71.7638M77.5896 26.146C77.4882 29.194 77.5896 47.5833 77.6909 58.8607C77.6909 63.2295 77.7923 66.887 77.7923 68.8174C81.4415 66.2774 92.7948 58.3528 94.0112 57.54C94.518 57.2352 94.7208 56.9304 94.7208 56.3208C94.7208 45.2465 94.7208 34.2739 94.7208 23.3013L94.7208 14.4622C91.6797 16.4942 80.732 23.9108 77.5896 26.146"/>
	<path fill="#FFCD2E" d="M95.7186 13.011C95.5157 13.2143 95.2116 13.316 95.0089 13.316C94.5022 13.6209 37.3304 13.5193 30.9442 13.6209C30.6401 13.6209 30.336 13.6209 29.9306 13.6209C29.6265 13.5193 29.3224 13.5193 29.3224 13.1127C29.5251 12.4011 36.4181 4.37088 37.0263 3.55769C37.2291 3.3544 37.4318 3.1511 37.7359 3.1511C38.1414 3.04945 38.5469 2.89698 38.9523 2.89698C60.2397 2.89698 81.4257 2.89698 102.713 2.89698C103.017 2.89698 103.321 2.74451 103.591 3.1511C103.727 3.55769 103.423 3.76099 103.22 4.06594C102.51 4.87912 96.0227 12.6044 95.7186 13.011"/>
	<path fill="#2D1B0A" d="M30.4533 14.5357C30.2506 14.5357 29.9465 14.5357 29.7437 14.4341C28.426 14.2308 28.3246 13.4176 28.3246 12.9094C28.3246 12.1978 28.9328 11.3846 35.319 3.86264C35.8259 3.25275 36.13 2.84615 36.2313 2.7445C36.5354 2.33791 36.9409 2.13461 37.4477 1.93132C37.9546 1.82967 38.4614 1.71487 38.9683 1.71487L54.8831 1.71487C70.7979 1.71487 86.7127 1.71487 102.729 1.71487C103.844 1.71487 104.249 2.13461 104.452 2.54121C104.858 3.45604 104.249 4.16758 104.047 4.47253C103.236 5.48901 96.7481 13.2143 96.444 13.5193C95.9372 13.9259 95.4304 14.2308 94.8221 14.2308C93.3016 14.3324 86.1045 14.4341 47.7873 14.4341C39.4751 14.4341 32.7848 14.4341 30.7574 14.4341C30.6561 14.5357 30.5547 14.5357 30.4533 14.5357M38.9683 3.86264C38.5628 3.86264 38.2587 3.86264 37.9546 3.96428C37.8532 3.96428 37.8532 3.96428 37.7518 4.06593C37.6505 4.26923 37.245 4.67582 36.7382 5.18407C35.5217 6.70879 32.1766 10.6731 30.7574 12.5028C32.6834 12.5028 39.3737 12.5028 47.7873 12.5028C64.5131 12.5028 92.2879 12.5028 94.6194 12.2995C94.9235 12.2995 94.9235 12.2995 95.0249 12.2995C95.7345 11.4863 100.397 5.8956 102.019 3.96428C86.3072 3.96428 70.5951 3.96428 54.8831 3.96428L38.9683 3.86264"/>
	<path fill="#B58033" d="M29.2752 13.3159L91.9209 13.3159C92.7487 13.3159 93.0359 14.3324 92.4277 14.8407L77.121 25.2088C77.0197 25.3104 76.8169 25.3104 76.6143 25.3104L13.6646 25.3104C12.8614 25.3104 12.5495 24.2939 13.2591 23.7857L28.9711 13.3159C28.8698 13.3159 29.0726 13.3159 29.2752 13.3159"/>
	<path fill="#2D1B0A" d="M76.5955 26.327L13.594 26.327C12.7824 26.327 12.0722 25.8186 11.8067 25.0055C11.6664 24.1924 11.9708 23.3792 12.5795 22.9725L28.3045 12.6044C28.6088 12.2994 28.9132 12.2994 29.319 12.2994L92.0162 12.2994C92.8278 12.2994 93.5379 12.8077 93.8034 13.6209C93.9437 14.4341 93.6394 15.2472 93.0307 15.6538L77.7115 26.0219C77.3057 26.2253 76.8999 26.327 76.5955 26.327M14.2027 24.2939L76.494 24.2939L91.306 14.3324L29.319 14.3324L14.2027 24.2939"/>
	<path fill="#FFCD2E" d="M74.3943 25.5137C59.7972 25.5137 10.8364 25.5137 10.8364 25.5137C10.8364 25.5137 9.31588 23.7857 8.50493 22.8709C7.38988 21.5495 6.27483 20.228 5.15978 18.9066C4.4502 18.0934 3.842 17.2802 3.13242 16.467C2.82831 16.1621 2.9488 16.0605 3.23379 15.8572C3.43652 15.6539 3.63926 15.6539 3.842 15.6539C6.78167 15.6539 57.4658 15.6539 67.704 15.6539C68.6163 15.6539 69.2245 15.8572 69.7313 16.5687C71.7587 19.1099 73.7861 21.6511 75.9148 24.1923C76.0162 24.3956 76.1175 24.4973 76.3203 24.7006C76.4216 24.9039 76.7257 25.1072 76.6448 25.4121C76.4216 25.6154 74.6984 25.5137 74.3943 25.5137"/>
	<path fill="#2D1B0A" d="M10.3815 26.5303C10.0774 26.2253 8.55709 24.4973 7.74623 23.5824C6.32723 21.8544 5.31366 20.7363 4.40144 19.6181C4.19873 19.3132 3.89465 19.0083 3.69194 18.7033C3.28651 18.1951 2.88108 17.6868 2.37429 17.1786C2.07022 16.772 1.9425 16.467 1.9425 16.0605C2.07022 15.4506 2.57701 15.1456 2.77972 15.044C3.18515 14.6938 3.59058 14.6938 3.89465 14.6938C4.80687 14.6938 10.4829 14.6938 18.186 14.6938C35.1127 14.6938 60.7561 14.6938 67.7498 14.6938C68.966 14.6938 69.8783 15.1456 70.5878 16.0605C71.5 17.0769 72.3108 18.1951 73.1217 19.2115C74.338 20.7363 75.5543 22.1594 76.7706 23.6841C76.8719 23.8874 77.0746 24.0907 77.176 24.294C77.6511 25.0056 77.7841 25.5137 77.4801 26.1236C77.0746 26.7335 76.3651 26.8351 74.5407 26.8351C59.8439 26.8351 10.8883 26.8351 10.8883 26.8351M4.70551 16.6703C4.90823 16.8736 5.11094 17.0769 5.2123 17.3819C5.41501 17.6868 5.71909 17.9918 5.9218 18.1951C6.83402 19.3132 7.84759 20.4313 8.7598 21.5495C9.77338 22.7692 10.787 23.8874 11.2937 24.4973C16.2602 24.4973 60.6547 24.4973 74.338 24.4973C74.5407 24.4973 74.7434 24.4973 74.8448 24.4973C73.7298 23.0742 72.6149 21.7528 71.5 20.3297C70.6891 19.3132 69.7769 18.1951 68.966 17.1786C68.662 16.772 68.2565 16.6703 67.6484 16.5687C60.6547 16.5687 35.0113 16.5687 18.0847 16.5687C11.6992 16.6703 6.73266 16.6703 4.70551 16.6703"/>
	<path fill="#F5A61E" d="M76.5759 25.3104L84.1785 38.728L103.641 25.1071L95.5318 12.9093"/>
	<path fill="#2D1B0A" d="M83.773 40.2528L75.2581 25.0055L95.8358 11.4863L105.06 25.4121L83.773 40.2528M77.8937 25.7171L84.3812 37.305L102.121 24.9039L95.1263 14.3324L77.8937 25.7171"/>
	<path fill="white" d="M33.8796 42.306L39.2521 46.0669L43.5096 39.3582C43.5096 39.3582 42.1918 36.9186 40.3672 36.2071C38.5425 35.4955 37.5289 36.4104 37.022 37.3252C36.5152 38.0367 33.8796 42.306 33.8796 42.306"/>
	<path fill="white" d="M41.5835 36.2438C44.4219 38.7483 46.2465 43.8307 46.2465 43.8307L50.9094 45.1521L54.2545 39.1549C52.0244 40.273 50.7067 37.3252 49.5916 36.7153C48.2738 36.0038 42.6986 36.2438 41.5835 36.2438"/>
	<path fill="white" d="M35.8056 45.1521L28.9125 45.3554C31.1427 46.6769 29.1153 49.3197 29.318 50.7428C29.318 52.0642 32.4604 57.2483 32.8659 57.8582C33.5755 54.0972 37.1234 50.0313 37.1234 50.0313L35.8056 45.1521"/>
	<path fill="white" d="M42.4959 54.8088L42.0904 61.5175L36.3124 61.5175C36.3124 61.5175 34.0823 61.5175 33.6557 59.078C33.4741 57.045 34.7919 54.8088 34.7919 54.8088L42.4959 54.8088"/>
	<path fill="white" d="M47.4629 52.1658L43.7123 58.1631L47.2602 63.957L47.2602 61.5175C47.2602 61.5175 50.6053 61.7208 51.7204 61.1109C52.8354 60.3994 55.2683 56.2318 56.1806 54.4021C52.6327 55.7235 47.2602 54.6054 47.2602 54.6054L47.4629 52.1658"/>
	<path fill="white" d="M54.66 44.5422L48.882 47.3883L52.4299 54.3004C52.4299 54.3004 55.0655 54.5037 56.6874 53.1823C58.7148 51.6576 57.5997 49.6246 57.5997 49.6246L54.66 44.5422"/>
</svg>
