<?xml version="1.0" encoding="utf-8" ?>
<svg xmlns="http://www.w3.org/2000/svg" xmlns:xlink="http://www.w3.org/1999/xlink" width="82" height="102">
	<path fill="white" d="M42.4876 102C41.0847 102 39.9824 102 39.1808 101.798L38.0785 101.595C36.9762 100.28 26.4545 88.0357 25.5527 75.3869C25.1519 68.9107 25.7531 62.9405 27.2562 57.9821C22.7469 53.3274 17.937 48.5714 16.5341 47.4583C16.2335 47.1548 16.0331 47.0536 15.8326 46.8512C14.2293 45.5357 11.4236 43.3095 10.2211 39.869C9.41942 39.9702 8.61777 39.9702 7.71591 39.9702C7.21488 39.9702 6.61364 39.9702 6.0124 39.869C1.60331 39.5655 0 35.9226 0 33.494C0 32.4821 0.901859 27.3214 4.30888 24.7917C5.61157 23.7798 7.01446 23.2738 8.31715 23.2738C10.4215 23.2738 11.9246 24.4881 12.7262 25.6012L13.6281 26.7143C13.6281 26.7143 13.6281 26.7143 13.6281 26.6131C12.0248 23.1726 9.82025 17.506 9.82025 11.7381C9.82025 0.809524 16.0331 0 17.937 0C19.0393 0 20.2417 0.202381 21.5444 0.708333C26.2541 2.83333 28.3585 7.89286 27.4566 14.6726C26.9556 17.506 26.4545 21.3512 26.0537 23.9821C27.4566 24.5893 28.4587 25.3988 28.8595 25.7024C29.8616 26.4107 35.9742 31.2679 37.5775 39.869C37.6777 40.2738 37.9783 42.3988 38.1787 44.625C40.0826 44.0179 42.187 43.7143 44.4917 43.7143C46.2954 43.7143 48.0992 43.9167 49.8027 44.3214C50.2035 41.7917 51.3058 38.6548 54.0114 36.0238C55.8151 34.2024 58.3202 32.0774 61.4266 30.9643C61.2262 29.6488 61.0258 27.9286 61.0258 25.8036C61.0258 16.5952 66.938 15.5833 69.4432 15.5833C69.7438 15.5833 70.0444 15.5833 70.345 15.5833C72.1488 15.6845 77.5599 16.0893 80.3657 19.9345C82 22.0595 82.3698 24.7917 81.6684 27.9286C80.4659 32.6845 78.2614 35.5179 76.5578 37.2381C79.9649 42.9048 79.4638 49.4821 74.9545 54.0357C71.7479 57.2738 69.2428 59.3988 64.1322 59.5C64.2324 60.2083 64.3326 60.9167 64.3326 61.625C65.0341 77.4107 55.6147 98.5595 55.314 99.4702L54.6126 101.089L52.9091 101.292C52.7087 101.393 46.6963 102 42.4876 102"/>
	<path fill="#5D985B" d="M72.3678 36.7537C72.3678 36.7537 76.7765 34.6287 78.6803 27.4442C80.2835 20.1585 73.8708 19.0454 70.0632 18.7418C66.2557 18.4382 63.9511 20.3609 63.9511 25.9263C63.9511 30.6823 64.8529 32.9085 65.0533 33.3131C61.8469 33.6167 58.6406 35.7417 56.0354 38.3727C52.2278 42.1167 52.4282 47.6823 52.5284 48.5929C47.2179 46.2656 41.0056 46.5691 37.3984 48.3906C36.697 48.7953 36.0958 49.3013 35.3944 49.7061C35.5948 46.9739 34.4926 40.4977 34.4926 40.4977C33.0898 32.5037 26.9777 28.2537 26.9777 28.2537C26.9777 28.2537 25.1741 26.7359 22.6692 26.2299C22.8696 24.9144 23.7714 18.5394 24.3726 14.3906C24.9737 9.73582 24.072 5.28344 20.3646 3.5632C16.3566 2.04534 12.8497 3.76558 12.8497 11.7596C12.8497 19.0454 16.7574 26.2299 17.3586 27.343C16.3566 28.0513 15.3547 29.0632 14.4529 30.5811C13.9519 31.2894 13.6513 31.8966 13.3507 32.6049C13.4509 32.3013 13.6513 31.9978 13.7515 31.6942L10.2445 27.4442C10.2445 27.4442 8.84173 25.1168 6.03616 27.2418C3.53119 29.1644 2.8298 33.6167 2.8298 33.6167C2.8298 33.6167 2.8298 36.8549 6.03616 36.9561C9.14233 37.1585 12.0481 36.6525 12.4489 36.5513C12.5491 41.1049 16.4568 43.6347 18.1602 45.0513C20.6652 46.9739 30.3845 56.9917 30.4847 57.0929C28.6811 62.1525 27.9797 68.5275 28.3805 75.1048C29.2823 86.9441 39.5026 98.7834 39.5026 98.7834C42.7089 99.2893 52.5284 98.3786 52.5284 98.3786C52.5284 98.3786 62.0473 77.2298 61.3459 61.9501C61.2457 59.9263 60.8449 58.1049 60.2437 56.4859C66.9571 57.1941 68.7606 56.0811 72.7686 52.0335C76.9769 47.7835 76.7765 41.2061 71.5662 35.8429C70.965 35.2359 70.464 34.7299 69.7626 34.4263C71.3658 35.5394 72.3678 36.7537 72.3678 36.7537M31.1861 55.4739C30.9857 55.9799 30.7853 56.4859 30.5849 56.8906C30.7853 56.3847 30.9857 55.8787 31.1861 55.4739"/>
	<path fill="#2D1B0A" d="M42.3843 100.031C41.1819 100.031 40.0798 100.031 39.3783 99.8282C38.3764 98.9175 28.3564 87.1794 27.4547 75.1377C27.0538 68.5603 27.7552 62.1853 29.3585 57.3282C26.9537 54.8996 19.6391 47.4115 17.535 45.7925C17.3345 45.5901 17.034 45.3877 16.8335 45.1853C15.03 43.7687 12.1243 41.4413 11.523 37.596C10.2205 37.7984 8.11628 38.0008 5.9119 37.7984C2.70554 37.596 1.80375 34.8639 1.80375 33.4472C1.80375 33.0425 2.60534 28.3877 5.31071 26.2627C6.5131 25.352 7.61528 25.0484 8.71747 25.2508C10.0201 25.4532 10.7214 26.3639 10.9218 26.6675L13.5271 29.8044C14.3287 28.4889 15.1301 27.5782 15.9318 26.971C14.4289 24.0365 11.7234 17.8639 11.7234 11.6913C11.7234 7.23889 12.7254 4.30437 14.8295 2.8877C16.3326 1.77461 18.4367 1.67342 20.6412 2.58413C24.4487 4.30437 26.0518 8.55437 25.2503 14.5246C24.6491 17.9651 24.0479 22.9234 23.647 25.352C25.8515 26.1615 27.4547 27.3758 27.4547 27.477C27.655 27.5782 33.8673 32.0306 35.3703 40.3282C35.3703 40.5306 36.0718 44.6794 36.2721 47.8163C36.4725 47.7151 36.5728 47.6139 36.7731 47.5127C40.6809 45.4889 46.4925 45.3877 51.4021 47.1079C51.5023 44.8818 52.1035 40.7329 55.3099 37.596C57.3139 35.5722 60.2197 33.2448 63.6264 32.4353C63.3258 31.221 62.925 29.096 62.925 25.8579C62.925 22.721 63.6264 20.4948 65.1294 19.1794C66.3318 18.0663 68.0351 17.5603 70.1394 17.7627C71.7425 17.8639 76.4519 18.2687 78.7564 21.3044C79.9588 22.9234 80.2595 25.1496 79.6582 27.6794C78.1553 33.2448 75.2495 35.977 73.7466 36.9889C77.7544 42.2508 77.6543 48.4234 73.4459 52.7746C69.438 56.8222 67.3337 58.0365 61.6224 57.6318C62.0233 59.0484 62.2236 60.4651 62.3238 61.9829C63.0252 77.3639 53.8069 98.0068 53.4062 98.9175C52.3039 99.5246 46.4925 100.031 42.3843 100.031M40.0798 97.9056C42.8853 98.2091 49.799 97.7032 51.9031 97.5008C53.306 94.1615 61.0212 75.5425 60.42 62.0841C60.3199 60.2627 60.0192 58.5425 59.418 56.8222L58.917 55.3044L60.5202 55.5068C66.8327 56.1139 68.3357 55.3044 72.2435 51.3579C76.2514 47.3103 75.7505 41.4413 71.0411 36.6853C70.6404 36.2806 70.2395 35.977 69.8388 35.6734C69.7385 35.5722 69.5381 35.471 69.438 35.3698L70.4399 33.6496C70.6404 33.7508 70.7405 33.852 70.9409 33.9532C71.7425 34.4591 72.3438 35.0663 72.7446 35.471C73.947 34.6615 76.552 32.3341 77.9548 27.1734C78.3557 25.2508 78.1553 23.6318 77.3536 22.5187C76.2514 21.0008 73.8467 20.0901 70.2395 19.7865C68.6364 19.6853 67.5341 19.9889 66.7326 20.6972C65.7307 21.6079 65.2297 23.4294 65.2297 25.9591C65.2297 30.9175 66.1314 32.8401 66.1314 32.8401L66.8327 34.1556L65.3298 34.2568C62.0233 34.5603 58.917 36.9889 56.9132 39.0127C53.1055 42.7568 53.6065 48.4234 53.7067 48.4234L53.9072 50.1437L52.3039 49.4353C47.1938 47.2091 41.1819 47.6139 38.0757 49.2329C37.4745 49.5365 36.8733 50.0425 36.1719 50.5484L34.4685 51.7627L34.5687 49.6377C34.7691 47.1079 33.7672 40.7329 33.7672 40.7329C32.4646 33.2448 26.653 29.1972 26.653 29.096C26.5528 28.9948 24.9496 27.6794 22.7453 27.2746L22.1441 25.0484C22.4448 22.6198 23.1461 17.6615 23.7472 14.221C24.148 11.3877 24.148 6.22699 20.3405 4.50675C19.2383 4.10199 17.6352 3.79842 16.4328 4.60794C14.9298 5.61985 14.2284 8.14961 14.2284 11.7925C14.2284 18.0663 17.3345 24.4413 18.6371 26.8698L18.3366 28.1853C17.3345 28.8937 16.4328 29.9056 15.7313 31.0187C15.4307 31.4234 15.3306 31.727 15.1301 32.0306C15.03 32.2329 15.03 32.3341 14.9298 32.5365C14.9298 32.5365 14.9298 32.5365 14.9298 32.6377C14.9298 32.7389 14.8295 32.8401 14.8295 32.9413L12.9258 32.2329C12.9258 32.1318 13.026 31.9294 13.1263 31.8282L9.91986 27.9829C9.91986 27.9829 9.61926 27.477 9.01807 27.3758C8.51707 27.2746 7.91588 27.477 7.21449 28.0841C5.51111 29.3996 4.60932 32.5365 4.40892 33.7508C4.40892 34.2568 4.60932 35.977 6.61329 36.0782C9.51906 36.2806 12.4249 35.7746 12.7254 35.6734L13.9278 35.3698L13.9278 36.5841C14.0281 40.1258 16.7333 42.2508 18.6371 43.7687C18.9378 43.971 19.1381 44.1734 19.3386 44.3758C21.3425 45.8937 27.5549 52.2687 30.661 55.4056L32.665 55.7091L32.0638 57.1258C30.2603 62.2865 29.5588 68.4591 29.9596 75.1377C30.16 85.4591 38.5767 95.9829 40.0798 97.9056"/>
	<path fill="#5D985B" d="M36.0712 58.1377L35.8712 62.0842"/>
	<path fill="#2D1B0A" d="M34.7965 61.9662L35.0483 58.028L37.048 58.1584L36.7962 62.0966L34.7965 61.9662"/>
	<path fill="#5D985B" d="M47.5937 61.0722L47.1937 64.3103"/>
	<path fill="#2D1B0A" d="M46.2758 64.2824L46.6544 60.9651L48.6451 61.1968L48.2665 64.5141L46.2758 64.2824"/>
	<path fill="#5D985B" d="M39.4778 67.4473L39.1778 70.2806"/>
	<path fill="#2D1B0A" d="M38.2315 70.1381L38.4856 67.3164L40.4814 67.4997L40.2273 70.3214L38.2315 70.1381"/>
	<path fill="#5D985B" d="M51.9031 69.471L51.9031 72.7091"/>
	<path fill="#2D1B0A" d="M50.882 72.5857L51.0064 69.4513L53.0087 69.4513L52.8843 72.6667L50.882 72.5857"/>
	<path fill="#5D985B" d="M44.5885 75.5425L44.5885 78.7806"/>
	<path fill="#2D1B0A" d="M43.6219 75.5012L45.6243 75.5012L45.7484 78.6356L43.746 78.7165L43.6219 75.5012"/>
	<path fill="#5D985B" d="M38.0756 80.3996L39.0756 83.0306"/>
	<path fill="#2D1B0A" d="M37.1756 80.7651L39.0483 80.0446L40.0471 82.6923L38.1744 83.4128L37.1756 80.7651"/>
	<path fill="#5D985B" d="M51.7013 81.9174L51.0013 85.8639"/>
	<path fill="#2D1B0A" d="M49.963 85.5968L50.705 81.7222L52.6725 82.1066L51.9305 85.9812L49.963 85.5968"/>
	<path fill="#5D985B" d="M57.9132 43.5663L57.0132 46.0961"/>
	<path fill="#2D1B0A" d="M56.0889 45.6802L56.9494 43.1969L58.841 43.8654L57.9805 46.3487L56.0889 45.6802"/>
	<path fill="#5D985B" d="M63.1254 41.1377L63.1254 43.5662"/>
	<path fill="#2D1B0A" d="M62.098 43.5521L62.2243 41.1269L64.2254 41.2331L64.0992 43.6583L62.098 43.5521"/>
	<path fill="#5D985B" d="M68.0331 48.4234L67.0331 50.1437"/>
	<path fill="#2D1B0A" d="M66.0011 49.6543L66.9953 47.8973L68.7352 48.9013L67.741 50.6583L66.0011 49.6543"/>
	<path fill="#5D985B" d="M25.3504 37.09L26.5528 39.4174"/>
	<path fill="#2D1B0A" d="M24.492 37.7798L26.2439 36.797L27.5089 39.097L25.7571 40.0798L24.492 37.7798"/>
	<path fill="#5D985B" d="M18.0359 34.4591L18.8359 36.3817"/>
	<path fill="#2D1B0A" d="M17.1763 34.8193L19.0369 34.0676L19.7812 35.9467L17.9205 36.6984L17.1763 34.8193"/>
	<path fill="#5D985B" d="M24.148 42.4531L26.3523 44.6793"/>
	<path fill="#2D1B0A" d="M23.4306 43.1924L24.8874 41.8029L27.0201 44.0834L25.5632 45.4729L23.4306 43.1924"/>
</svg>
