<?xml version="1.0" encoding="utf-8" ?>
<svg xmlns="http://www.w3.org/2000/svg" xmlns:xlink="http://www.w3.org/1999/xlink" width="102" height="108">
	<path fill="white" d="M64.1923 108C62.9792 108 61.8672 108 60.7552 107.798C60.1487 107.696 59.5421 107.696 59.1378 107.696L54.9931 107.595L56.3072 103.648C58.4301 97.1696 58.8345 91.299 57.4192 84.7198C57.0149 82.6954 55.9029 79.3552 54.4876 76.015C53.2745 75.9138 52.0614 75.8126 51.4549 75.8126C46.5015 75.3065 40.9415 74.0918 34.9772 72.2699C30.7314 70.9541 26.1824 69.3346 22.1388 66.6017C20.6224 68.0187 18.7017 69.0309 16.6799 69.537C15.2646 69.8407 13.6472 70.0431 12.1308 70.0431C7.48067 70.0431 3.74034 68.5248 3.63925 68.5248L0 67.0066L2.32507 63.8688C2.52725 63.6664 6.77304 57.8969 13.1417 55.7713C14.2537 55.4677 15.3657 55.2652 16.4777 55.164C16.4777 54.9616 16.4777 54.7591 16.4777 54.5567C16.8821 49.597 19.9148 45.9531 20.3191 45.5483C20.1169 44.7385 19.3082 44.5361 18.6006 44.3336C9.90684 41.1959 4.75124 33.8069 4.54906 33.5033L2.32507 30.2643L5.96432 28.9485C6.1665 28.8472 11.3221 27.0253 17.4886 27.0253C19.8137 27.0253 22.1388 27.329 24.1606 27.8351C25.1715 28.1387 26.1824 28.5436 27.1933 28.9485C27.5976 24.8997 28.9118 20.1425 32.45 15.7901C41.447 4.85848 54.7909 1.1134 55.2963 1.01218L59.0367 0L59.1378 3.8463C59.1378 4.45361 59.3399 19.5351 51.4549 30.9728C48.6244 35.0216 44.9851 37.6532 41.5481 39.3739C51.3538 47.5726 57.0149 54.6579 62.9792 65.7919C63.889 67.5127 64.7988 69.3346 65.6075 71.1565C66.4163 68.8285 67.6293 65.0834 68.1348 62.6542C66.4163 61.2371 65.3043 59.4152 64.7988 57.2896C63.5857 52.1275 65.4054 47.5726 65.6075 47.0665L67.1239 43.4227L70.2577 45.7507C70.7631 46.0544 74.9078 49.2933 76.5253 54.1518C78.2438 53.4433 80.1645 52.9372 82.3885 52.9372C82.894 52.9372 83.5005 52.9372 84.0059 53.0384C92.5986 54 98.8662 59.5164 99.0684 59.8201L102 62.4517L98.7651 64.5773C98.4618 64.7798 91.1833 69.6382 82.995 69.6382C82.995 69.6382 82.6918 69.6382 82.4896 69.6382C80.1645 69.537 78.0416 69.0309 76.3231 68.2212C76.1209 68.9297 75.9187 69.7395 75.7166 70.448C75.3122 71.865 73.998 75.4077 73.4926 76.926L72.886 78.5455C71.9762 80.8735 71.1675 82.6954 70.1566 84.7198C70.662 86.8454 71.0664 88.8697 71.3697 90.7929C71.4708 91.299 71.5719 91.9063 71.6729 92.6148C72.5828 97.4733 73.1893 101.623 71.6729 104.559C70.3588 106.887 67.8315 108 64.1923 108M26.9911 59.9213C27.2944 60.1237 27.5976 60.3261 27.7998 60.4274C33.9663 63.4639 40.335 64.2737 47.0069 65.2858C47.6135 65.3871 48.22 65.4883 48.7255 65.4883C45.3895 60.2249 40.6383 53.2409 38.5154 51.0141C36.5946 48.9897 34.8761 47.269 32.8543 45.2446C32.3489 44.7385 31.8434 44.2324 31.2369 43.6251C29.5183 44.4349 27.1933 45.2446 24.4638 45.3458C25.0704 46.358 27.9009 50.508 27.9009 55.3664C28.1031 57.0872 27.6987 58.6054 26.9911 59.9213"/>
	<path fill="#362B12" d="M37.0494 39.4751C48.1693 48.3823 54.0326 55.3663 60.4012 67.209C64.3438 74.6991 67.0732 82.7966 68.3874 91.1976C68.7917 94.0318 70.5103 100.409 69.095 103.04C67.5787 105.874 61.9177 104.558 59.3904 104.558C61.7155 97.5744 62.1198 91.2989 60.6035 84.1124C59.7948 80.1649 56.6609 72.371 54.7402 68.8284C52.5163 64.6785 44.3279 52.2285 41.093 48.7872C37.1505 44.536 34.1178 41.8031 27.4459 34.9202C28.2546 33.8068 35.6342 38.4629 37.0494 39.4751"/>
	<path fill="#362B12" d="M65.3547 86.9465C67.983 82.6953 68.7917 80.266 70.7124 75.7112C71.2179 74.3954 72.5321 70.8527 72.8353 69.6381C73.9473 65.3869 74.655 62.3504 73.4419 58.6053C73.1386 57.7956 71.9255 57.7956 71.8244 58.7065L71.319 62.2492C70.9146 65.0833 69.2972 70.1442 68.2863 72.7759C66.7699 76.8246 64.9503 78.2417 64.7481 82.5941C64.7481 84.1123 65.6579 85.4282 65.3547 86.9465"/>
	<path fill="#362B12" d="M59.4914 73.1808C57.9752 73.1808 53.325 72.8772 51.9098 72.7759C46.4509 72.1686 40.8909 70.8528 35.9375 69.3345C31.4895 68.0187 27.1426 66.3992 23.4023 63.6663C22.2903 62.8565 21.0772 61.0346 20.7739 59.7188C20.7739 59.6175 20.7739 59.5163 20.6518 59.5163C20.4707 58.5028 21.7848 58.0993 22.1892 59.0102C22.4925 59.6175 22.7957 60.3261 23.099 60.7309C23.9077 61.5407 25.5252 62.6541 26.5361 63.1602C34.7243 67.2089 43.216 67.6138 51.4043 68.9296C53.0218 69.2333 55.549 69.4358 57.4697 69.8406C57.9752 69.7393 59.3904 73.1808 59.4914 73.1808"/>
	<path fill="#99CC62" d="M25.2219 55.2651C25.2219 51.2164 22.5936 47.4713 22.5936 47.4713C22.5936 47.4713 19.8641 50.6091 19.5609 54.759C19.4598 56.3785 19.8641 57.6944 20.4707 58.6053C18.7521 58.0992 16.5282 57.6944 14.102 58.5041C8.64313 60.326 4.8017 65.4882 4.8017 65.4882C4.8017 65.4882 10.2606 67.715 16.0227 66.3991C19.9652 65.4882 21.8859 62.4516 22.5936 60.7309C23.2001 60.326 25.2219 58.3017 25.2219 55.2651"/>
	<path fill="#2D1B0A" d="M12.1812 67.9174C7.93539 67.9174 4.59941 66.6016 4.39723 66.5003L3.18415 65.9943L3.99287 64.9821C4.19505 64.7796 8.03648 59.5163 13.7987 57.6943C15.315 57.1883 17.0336 57.087 18.8531 57.2895C18.6509 56.4797 18.5499 55.5688 18.6509 54.759C19.0553 50.3054 21.8859 47.0664 21.9869 46.864L22.7957 45.8518L23.5033 46.864C23.6044 47.0664 26.3339 50.9127 26.3339 55.2651C26.3339 58.4029 24.312 60.6297 23.5033 61.4394C22.5935 63.3626 20.4706 66.5003 16.3258 67.4113C14.8095 67.8162 13.4953 67.9174 12.1812 67.9174M6.52013 65.0833C8.44084 65.5894 12.0801 66.3991 15.8204 65.4882C19.2575 64.6784 20.9761 61.9455 21.6837 60.4272L20.1674 59.6175C18.1455 59.0102 16.2248 58.909 14.4051 59.5163C10.7659 60.7309 7.93539 63.4638 6.52013 65.0833M22.5935 49.2932C21.7847 50.5078 20.7739 52.5322 20.5717 54.8602C20.4706 55.9736 20.7739 57.087 21.3804 58.2004L22.2902 59.8199C22.9979 59.1114 24.211 57.4919 24.312 55.3663C24.211 52.9371 23.3011 50.6091 22.5935 49.2932"/>
	<path fill="#99CC62" d="M83.7532 55.9737C79.103 55.4676 75.5648 57.7956 73.7452 59.5164C74.0485 58.3017 74.2507 56.7835 73.7452 55.164C72.431 51.014 68.5896 48.1799 68.5896 48.1799C68.5896 48.1799 66.8711 52.3298 67.882 56.581C68.6907 60.3261 72.1278 61.5407 72.7343 61.7432C74.0485 63.059 77.5867 66.3992 82.6412 66.5067C90.2229 66.7029 97.1982 61.9456 97.1982 61.9456C97.1982 61.9456 91.436 56.8847 83.7532 55.9737"/>
	<path fill="#2D1B0A" d="M83.0456 67.6138C82.9445 67.6138 82.7423 67.6138 82.6412 67.6138C77.3845 67.5126 73.6441 64.2736 72.1278 62.7553C72.0267 62.7553 72.0267 62.6541 71.9256 62.6541C70.6114 62.0468 67.6798 60.4273 66.8711 56.7835C65.8602 52.2286 67.4776 47.9775 67.5787 47.775L68.0842 46.5604L69.0951 47.3701C69.2973 47.4714 73.2398 50.5079 74.655 54.8603C74.8572 55.67 75.0594 56.4798 75.0594 57.2895C77.0812 55.8725 80.1139 54.6579 83.8543 55.0627C91.7393 55.9737 97.6026 61.1358 97.8047 61.3383L98.8156 62.2492L97.7036 62.9578C97.4004 63.059 90.6273 67.6138 83.0456 67.6138M73.442 61.1358C74.655 62.4517 77.9911 65.387 82.6412 65.4882C87.999 65.5895 93.1546 63.1602 95.3786 61.8444C93.4579 60.4273 89.0099 57.5932 83.6521 56.9859C79.5074 56.4798 76.3736 58.5042 74.4529 60.2249L73.442 61.1358M68.994 50.0018C68.5896 51.5201 68.1853 53.9493 68.7918 56.3786C69.3983 58.909 71.3191 60.1237 72.431 60.6298L72.7343 59.3139C73.1387 57.9981 73.0376 56.6822 72.7343 55.4676C71.9256 53.0384 70.2071 51.014 68.994 50.0018"/>
	<path fill="#99CC62" d="M34.8255 17.6119C29.771 23.7862 29.771 30.7703 30.3775 35.1227C28.7601 33.402 26.5361 31.4788 23.4023 30.6691C15.5173 28.5435 7.0257 31.6813 7.0257 31.6813C7.0257 31.6813 11.7769 38.5641 19.5609 41.3982C26.2328 43.8275 31.6917 39.8799 32.7026 39.0702C35.9375 38.4629 43.9236 36.3373 48.877 29.252C56.2566 18.5229 55.9551 3.8462 55.9551 3.8462C55.9551 3.8462 43.3171 7.28762 34.8255 17.6119"/>
	<path fill="#2D1B0A" d="M24.0089 43.2202C22.4925 43.2202 20.9762 43.0177 19.3587 42.4104C11.2715 39.4751 6.52017 32.5922 6.31799 32.2886L5.61035 31.1752L6.82344 30.7703C7.22781 30.6691 15.7194 27.5313 23.8067 29.6569C25.8286 30.163 27.6483 31.1752 29.2656 32.491C29.0635 27.9362 29.8722 22.1667 34.118 17.0046C42.7108 6.4779 55.4484 3.03647 55.9538 2.93525L57.1674 2.6316L57.1674 3.94744C57.1674 4.55475 57.3691 19.029 49.8884 29.9606C44.8338 37.2483 36.8475 39.5763 33.3093 40.1836C32.1973 40.8921 28.6591 43.2202 24.0089 43.2202M8.74418 32.1874C10.3616 34.2117 14.4053 38.3617 19.9653 40.4873C26.1318 42.7141 31.1864 39.0702 32.1973 38.2605C35.7355 37.5519 43.4185 35.4264 48.0687 28.6447C53.8309 20.1424 54.8418 9.00836 54.9429 5.26328C51.5058 6.4779 42.1043 10.223 35.4323 18.3204C30.782 24.0899 30.5798 30.5679 31.2875 35.0215L31.7929 38.3617L29.5689 35.8312C27.6483 33.7056 25.5254 32.2886 23.0991 31.6813C17.5392 30.0618 11.4736 31.4788 8.74418 32.1874"/>
</svg>
