<?xml version="1.0" encoding="utf-8" ?>
<svg xmlns="http://www.w3.org/2000/svg" xmlns:xlink="http://www.w3.org/1999/xlink" width="104" height="100">
	<path fill="white" d="M101.6 56.6733C101.4 56.5737 97.2 55.1793 93.1 55.1793C90.7 55.1793 88.7 55.6773 87.1 56.5737C87 56.5737 86.9 56.6733 86.9 56.7729C90.9 47.4104 92.8 37.251 92.1 27.2908C92.1 27.2908 91.8 25.1992 91.9 25C95 18.7251 92.4 8.76494 92.1 7.66932L91.3 5.07968L88.6 5.57769C87.4 5.77689 76.6 8.16733 73.1 14.3426C71.4 17.3307 70.6 20.7171 70.9 23.9044C71.3 27.2908 73 30.1793 75.6 31.5737C76.9 32.3705 78.5 32.7689 80.1 32.7689C81.3 32.7689 82.4 32.5697 83.6 32.1713C82.6 34.2629 81.5 36.255 80.2 38.0478C77.5 41.8327 73.7 44.9203 69.2 47.2112C67.7 37.8486 63.7 28.3865 58 21.0159C59.4 17.1315 58.6 12.1514 55.6 7.96813C51.6 2.19124 41.1 0.59761 39.9 0.398406L37.2 0L36.6 2.58964C36.3 3.78486 33.8 14.4422 37.9 20.2191C40.8 24.3028 45.2 26.8924 49.4 26.8924C50.2 26.8924 51 26.7928 51.8 26.5936C52.6 29.6813 53.4 32.5697 53.7 35.5578C54.1 38.9442 54.1 43.6255 52.2 47.4104C49.2 46.8127 46.3 45.8167 43.3 44.8207C41 44.1235 38.7 43.3267 36.3 42.7291C34.7 42.3307 33 42.0319 31.3 41.7331C31.9 40.4382 32.2 38.8446 32.1 37.1514C31.9 34.4622 30.8 31.5737 29 28.9841C25.3 23.8048 16.7 21.6135 15.8 21.4143L12.6 20.6175L12.1 23.8048C11.9 24.8008 10.7 33.8645 14.4 39.1434C15.1 40.1394 15.8 40.9363 16.6 41.7331C14.8 41.9323 6.5 43.0279 0 45.5179L0.4 47.3108C6.6 47.51 23.3 50.8964 28.9 54.1833C28 54.0837 27.2 53.9841 26.2 53.9841C24.9 53.9841 23.6 54.0837 22.3 54.3825C15.1 55.6773 8.5 63.745 7.8 64.6414L5.8 67.2311L8.5 69.0239C8.8 69.2231 16.6 74.3028 23.5 74.3028C24.3 74.3028 25.1 74.2032 25.8 74.1036C29.4 73.4064 32.7 72.012 35 69.9203C37.7 67.5299 39 64.5418 38.4 61.6534C38.3 61.255 38.2 60.8566 38.1 60.4582C40.4 62.1514 42.7 64.0438 45.1 65.9363C45.1 65.9363 45.2 66.0359 45.2 66.0359C45.1 66.2351 45 66.4343 44.9 66.5339C38.9 77.0916 36.7 86.753 38.3 95.3187C38.9 98.2072 41.6 100 45.5 100C54.5 100 63.4 100 72.4 100C74.1 100 77.6 100 79.7 97.3108C80.9 95.9163 81.4 94.1235 81.3 91.8327C81.1 88.247 79.8 85.0598 78.5 81.9721C77.8 80.3785 77.1 78.8845 76.7 77.2908C76.3 75.996 76.2 75 76.4 74.3028C76.6 73.506 77.3 72.6096 78 71.6135C79.1 70.1195 79.9 68.9243 80.7 67.7291C80.9 68.6255 81.1 69.4223 81.6 70.1195C83.1 72.7092 85.9 74.1036 89.3 74.1036C91.6 74.1036 93.9 73.4064 96.1 72.2112C101.1 69.3227 103.2 61.0558 103.4 60.0598L104 57.3705L101.6 56.6733"/>
	<path fill="#704C28" d="M41.3999 94.4224C39.6 85.2591 43 75.7969 47.6 67.6296C48.1 66.7332 48.6 65.7371 48.2999 64.7411C48.1 64.1435 47.4999 63.6455 46.9999 63.2471C36.5 54.781 24.9 45.8168 11.4 45.4184C19.5 43.8248 27.6 43.3268 35.6 45.4184C41.7 47.012 47.4999 49.6017 53.7999 50.4981C56.7999 46.1156 57.2999 40.3387 56.7 34.9602C56.1 29.6814 54.3999 24.5021 52.9999 19.4224C60.7 27.6893 65.7999 40.0399 66.7 51.2949C72.8999 49.0041 78.7999 44.9204 82.7 39.5419C85.3999 35.7571 87.2 31.5738 89.0999 27.2909C89.9999 42.1316 84.9999 57.5698 75.9999 69.3228C75.1 70.518 73.9999 71.8128 73.6 73.3069C73.2 74.8009 73.4999 76.3945 73.8999 77.9881C75.2999 82.6694 78.2 86.8527 78.3999 91.7332C78.4999 92.9284 78.2999 94.3228 77.4999 95.2192C76.2999 96.6136 74.2999 96.7132 72.4999 96.7132C63.4999 96.7132 54.6 96.8128 45.6 96.8128C43.8999 96.6136 41.7 96.1156 41.3999 94.4224"/>
	<path fill="#2D1B0A" d="M45.5999 97.6096C43.3999 97.6096 40.7999 96.8128 40.3999 94.5219C38.8999 86.4542 40.9999 77.2908 46.7999 67.1314C47.1999 66.3346 47.5999 65.6375 47.3999 65.0398C47.2999 64.6414 46.7999 64.243 46.3535 63.9443C37.3999 56.6236 25.1999 46.7132 11.3999 46.3148L2.4999 46.0159L11.1999 44.3228C20.7999 42.4303 28.6999 42.4303 35.7999 44.3228C38.0999 44.9203 40.3999 45.7172 42.5999 46.4143C45.9999 47.5099 49.5999 48.7052 53.1999 49.3027C55.9999 44.8208 56.0999 39.0438 55.5999 34.9602C55.1999 30.9761 54.0999 27.0917 52.9999 23.2072C52.6999 22.0119 52.2999 20.7171 51.9999 19.5219L50.9999 15.6375L53.6999 18.5259C61.0999 26.494 66.3999 38.3466 67.4999 49.6016C73.3999 47.2112 78.4999 43.3266 81.7999 38.6455C84.3999 34.9602 86.2999 30.6772 88.0999 26.5937L89.7999 22.8088L90.0999 26.8925C90.9999 41.7331 86.1999 57.3706 76.7999 69.6216C75.6999 71.016 74.8999 72.1115 74.5999 73.3067C74.2999 74.4024 74.3999 75.6973 74.8999 77.3904C75.3999 78.984 76.0999 80.6773 76.7999 82.271C78.0999 85.1593 79.2999 88.1475 79.4999 91.4342C79.5999 93.2271 79.1999 94.6216 78.3999 95.6176C76.9999 97.3108 74.6999 97.5099 72.5999 97.5099C63.5999 97.6096 54.5999 97.6096 45.5999 97.6096M42.3999 94.2232C42.5999 95.3187 44.4999 95.6176 45.6999 95.6176C54.6999 95.6176 63.5999 95.6176 72.5999 95.518C74.1999 95.518 75.9999 95.4184 76.8999 94.3228C77.3999 93.7251 77.5999 92.8287 77.5999 91.5339C77.4999 88.6455 76.2999 85.9562 75.0999 83.1674C74.3999 81.4742 73.5999 79.7809 73.0999 78.0876C72.6999 76.7928 72.2999 74.8008 72.7999 72.9083C73.1999 71.3148 74.1999 70.02 75.0999 68.8248C83.4999 57.8685 88.0999 44.5219 88.2999 31.5737C86.9999 34.4622 85.4999 37.3506 83.5999 39.9403C79.7999 45.2192 73.9999 49.6016 67.0999 52.0917L65.8999 52.5897L65.7999 51.2948C65.0999 41.5339 61.0999 31.3745 55.2999 23.6056C56.2999 27.2909 57.2999 31.0756 57.7999 34.8605C58.2999 39.4422 58.1999 45.9164 54.6999 50.9961L53.6999 51.3945C49.6999 50.7969 45.8999 49.6016 42.0999 48.3068C39.8999 47.6096 37.5999 46.8128 35.3999 46.2151C30.2999 44.9203 24.7999 44.5219 18.3999 45.2192C29.8999 48.0079 39.9999 56.1753 47.6999 62.3506C48.1999 62.7491 48.9999 63.4463 49.2999 64.3427C49.7999 65.7371 48.9999 67.231 48.4999 68.0278C42.9999 77.8885 40.8999 86.6534 42.3999 94.2232"/>
	<path fill="#99CC62" d="M53.2 9.263C56.6 14.1435 56.5 20.02 53 22.51C49.5 25.0001 43.8 23.008 40.4 18.2271C37 13.3467 39.5 2.9881 39.5 2.9881C39.5 2.9881 49.8 4.38252 53.2 9.263"/>
	<path fill="#2D1B0A" d="M49.4 24.5021C48.4 24.5021 47.4 24.3029 46.3 23.9045C43.7 23.0079 41.3 21.1156 39.6 18.6256C36 13.4462 38.5 2.98807 38.6 2.58966L39.7 1.79285C40.1 1.89245 50.4 3.38648 54 8.56576C55.8 11.0558 56.7 13.9443 56.7 16.6334C56.7 19.4223 55.5 21.8127 53.6 23.2072C52.4 24.1037 51 24.5021 49.4 24.5021M40.3 4.08369C39.8 6.67333 38.7 13.9443 41.2 17.6296C42.7 19.8208 44.8 21.4144 47 22.2112C49.1 22.9083 51 22.8088 52.4 21.7132C53.8 20.7171 54.6 18.9244 54.7 16.8326C54.7 14.5419 53.9 12.0518 52.4 9.86058C49.8 6.17532 42.8 4.48209 40.3 4.08369"/>
	<path fill="#5D985B" d="M89.3125 23.1076C86.4125 28.2869 80.9125 30.6774 77.2125 28.5857C73.5125 26.4941 72.8125 20.6176 75.8125 15.4383C78.8125 10.259 89.3125 8.1674 89.3125 8.1674C89.3125 8.1674 92.2125 18.028 89.3125 23.1076"/>
	<path fill="#2D1B0A" d="M80.1 30.3786C78.9 30.3786 77.7 30.0798 76.7 29.4822C72.5 27.0916 71.7 20.6175 74.9 14.9403C78 9.46219 88.6 7.27096 89 7.17135L90.2 7.86856C90.2999 8.26697 93.2999 18.1276 90.2 23.6056C87.7 27.7888 83.7 30.3786 80.1 30.3786M88.5 9.36259C86 9.9602 78.8 12.1514 76.6 15.9363C73.9 20.6175 74.4 25.8965 77.7 27.7888C81 29.6814 85.7999 27.2909 88.3999 22.7092C90.6 18.8247 89.1 11.8526 88.5 9.36259"/>
	<path fill="#5D985B" d="M94.7 69.3228C90.7 71.7132 86 71.2152 84.3 68.3268C82.6 65.4383 84.5 61.1554 88.5 58.765C92.5 56.3746 100.5 59.0638 100.5 59.0638C100.5 59.0638 98.7999 67.0319 94.7 69.3228"/>
	<path fill="#2D1B0A" d="M89.5 71.8128C86.9 71.8128 84.6 70.8168 83.5 68.8248C82.5 67.1315 82.5 65.0399 83.4 62.9483C84.3 60.9562 85.9 59.1634 88.1 57.9682C92.5 55.3785 100.6 58.0678 101 58.1674L101.7 59.3626C101.6 59.6614 99.7 67.6296 95.4 70.2192C93.4 71.3148 91.3 71.8128 89.5 71.8128M93 58.8646C91.5 58.8646 90.1 59.0638 89.1 59.6614C87.3 60.6574 86 62.1515 85.2 63.7451C84.5 65.2391 84.5 66.7331 85.2 67.8288C86.6 70.2192 90.7 70.518 94.2 68.526C97.1 66.8327 98.8 61.8527 99.4 59.8606C97.8 59.3626 95.3 58.8646 93 58.8646"/>
	<path fill="#5D985B" d="M26.6 30.478C29.7 34.8605 30.1 39.9402 27.4 41.8326C24.6999 43.725 20 41.6334 16.9 37.2509C13.7999 32.8684 15.1 24.1035 15.1 24.1035C15.1 24.1035 23.4 25.9959 26.6 30.478"/>
	<path fill="#2D1B0A" d="M25 43.5257C22.1 43.5257 18.6 41.4342 16.1 37.8484C12.8 33.1673 14.1 24.3027 14.1 24.0039L14.3 22.9083L15.4 23.2071C15.8 23.3067 24.2 25.2987 27.5 29.98C31 34.9601 31.2 40.5378 28 42.729C27.1 43.227 26.1 43.5257 25 43.5257M15.9 25.2987C15.7 27.6891 15.4 33.466 17.6 36.6533C20.3 40.5378 24.5 42.5298 26.7 41.0358C28.9 39.5417 28.4 34.9601 25.7 31.0756C23.5 27.8883 18.2 25.9959 15.9 25.2987"/>
	<path fill="#5D985B" d="M22.8 56.8726C29.1 55.7769 34.8 57.8686 35.5 61.6534C36.2 65.4383 31.6 69.522 25.3 70.6176C19 71.7132 10.1 65.9363 10.1 65.9363C10.1 65.9363 16.5 58.0678 22.8 56.8726"/>
	<path fill="#2D1B0A" d="M23.6 71.9123C17.3 71.9123 10 67.1315 9.6 66.9324L9.4 65.4383C9.7 65.1395 16 57.0718 22.6935 55.8765C29.7 54.5817 35.8 57.0718 36.6 61.5538C37.4 65.9363 32.6 70.4184 25.6 71.7132C24.9 71.8127 24.2 71.9123 23.6 71.9123M11.7 65.8367C14.1 67.2311 20.5 70.6175 25.2 69.7211C30.9 68.7252 35.2 65.1395 34.6 61.9522C34 58.765 28.7 56.8726 23 57.9682C18.3 58.765 13.5 63.7451 11.7 65.8367"/>
	<path fill="#2D1B0A" d="M59.9 62.749C55 60.6574 50.4 57.9682 46.1 54.6813L47.3 53.0877C51.4 56.2749 55.9 58.8646 60.6 60.8566L59.9 62.749"/>
	<path fill="#2D1B0A" d="M51.9 85.9562C51.9 81.2749 52.9 76.5936 55 72.4104L56.8 73.3068C54.9 77.1912 53.9 81.5737 53.9 85.9562L51.9 85.9562"/>
	<path fill="#2D1B0A" d="M60.2 83.3666L58.4 82.4702C58.7 81.8726 58.8 81.0757 58.7 80.3785L60.7 79.9801C60.8 81.1753 60.7 82.271 60.2 83.3666"/>
</svg>
