<?xml version="1.0" encoding="utf-8" ?>
<svg xmlns="http://www.w3.org/2000/svg" xmlns:xlink="http://www.w3.org/1999/xlink" width="106" height="96">
	<path fill="white" d="M97.9335 83.1867C94.8464 82.0855 91.9584 79.7831 89.4687 76.5798C87.0787 73.4765 85.1866 69.8728 83.4936 66.3691L79.6097 58.7612C79.5102 58.6611 79.5102 58.4609 79.4106 58.2607C79.5102 57.8603 79.5102 57.4599 79.5102 57.0594L79.5102 53.9562C79.5102 50.0521 76.423 46.9489 72.5391 46.9489L61.7839 46.9489L61.7839 0.70073L53.817 0.70073L53.817 46.9489L41.4683 46.9489C37.8833 46.9489 34.8957 49.7518 34.4973 53.3556C32.904 53.0553 31.1114 52.9552 29.2193 52.8551L29.2193 0.300313L25.3354 0.200209C24.3396 0.200209 18.8624 0 14.381 0C10.1984 0 9.00335 0 8.30625 0.300313L5.41826 0.900938L6.41412 5.80605L7.01163 8.70907L9.89962 8.10845C9.99921 8.10845 10.6963 8.00834 14.2814 8.00834C16.1735 8.00834 18.6632 8.00834 21.1528 8.10845L21.1528 54.0563C11.7918 57.0594 4.22323 65.3681 0.638135 76.8801C-0.656481 80.9844 0 85.3889 2.53027 88.8926C5.01991 92.3962 8.90376 94.3983 13.186 94.4984L26.7296 91.9958L39.875 90.3942C41.3688 90.3942 42.9621 90.0938 44.3563 89.4932C45.4518 90.9948 46.5472 92.4964 47.6427 93.7977L48.6385 95.0991L49.8336 95.2993C49.8336 95.2993 51.0286 95.4995 51.4269 95.4995C53 95.6997 54.8129 96 56.5058 96C57.9 96 59.095 95.8999 60.1905 95.5996C61.2859 95.2993 62.2818 94.999 63.2777 94.5985C64.4727 94.098 65.5681 93.7977 66.3648 93.7977C66.4644 93.7977 66.4644 93.7977 66.564 93.7977C67.0619 93.7977 67.759 94.098 68.5557 94.2982C69.8503 94.6986 71.2445 95.0991 72.8379 95.0991C73.6346 95.0991 74.3317 94.999 75.1284 94.7987C75.7259 94.5985 76.2238 94.3983 76.6222 94.1981C76.8213 94.098 76.9209 93.9979 77.1201 93.9979C77.1201 93.9979 77.2197 93.9979 77.4189 93.9979C77.7176 93.9979 78.116 93.9979 78.6139 94.098C79.8089 94.1981 80.7052 94.1981 81.701 94.1981C87.477 94.1981 94.3485 92.5965 98.4315 90.2941L106 86.0897L97.9335 83.1867"/>
	<path fill="#5D985B" d="M26.5373 87.8914L13.6918 90.2939C7.41838 90.1938 3.03698 83.9874 4.92895 77.881C8.91205 65.4681 18.3719 56.6589 29.3254 56.6589C40.3786 56.6589 45.2579 61.2637 49.1413 73.9769C51.0333 80.0833 46.4528 86.2898 40.0798 86.2898L26.5373 87.8914"/>
	<path fill="#2D1B0A" d="M13.7783 91.2949C10.3914 91.1948 7.30343 89.5931 5.41078 86.8903C3.4401 84.1875 2.92045 80.784 3.91658 77.5806C8.10033 64.2668 18.0616 55.6578 29.2183 55.6578C40.4746 55.6578 45.9533 60.3627 49.9378 73.6766C50.934 76.8799 50.3363 80.2835 48.344 83.0864C46.3518 85.7892 43.3634 87.2908 39.9765 87.2908L26.5288 88.8924L13.7783 91.2949M29.3179 57.6599C19.1574 57.6599 9.79375 65.9685 5.90884 78.1813C5.11194 80.784 5.51039 83.4868 7.1042 85.6891C8.5984 87.8914 11.0887 89.1927 13.6787 89.1927L26.4291 86.7902L40.0761 85.1886C42.7657 85.1886 45.256 83.8872 46.8498 81.785C48.4436 79.5827 48.9417 76.7798 48.1448 74.1771C44.2599 61.6641 39.7773 57.6599 29.3179 57.6599"/>
	<path fill="#BF793E" d="M96.9384 86.6902C92.7562 85.1887 89.3705 82.1855 86.6819 78.782C84.0929 75.3784 82.1014 71.6746 80.2094 67.8707C78.9149 65.368 77.6204 62.7653 76.3259 60.2627C75.6288 58.9613 75.4297 57.5599 75.6288 55.9925C63.58 55.9925 51.4315 55.9925 39.3826 56.1584C38.9843 57.3597 38.6856 57.4598 38.6856 58.661C38.5722 61.9645 38.3869 65.2679 38.9843 68.5714C40.3784 76.98 45.8552 84.1877 51.1328 91.0948C53.921 91.4953 57.0079 92.0958 59.6964 91.3951C62.2855 90.7944 64.6753 89.293 67.2643 89.4931C69.7538 89.6934 72.044 91.2951 74.4339 90.6944C75.1309 90.4941 75.7284 90.0938 76.4255 89.8936C77.5208 89.5932 78.6162 89.7934 79.7115 89.8936C84.8895 90.3941 92.557 89.0928 96.9384 86.6902"/>
	<path fill="#2D1B0A" d="M56.9996 92.7967C55.406 92.7967 53.8125 92.5965 52.3185 92.3962C51.9201 92.2961 51.5217 92.2961 51.1233 92.196C45.3467 85.1887 39.4705 77.6809 38.0761 68.8717C37.5781 65.4682 37.696 62.0647 37.696 58.7612C37.696 57.7602 37.9765 57.2596 38.1757 56.8592C38.2753 56.659 38.3749 56.3587 38.4745 55.9583C51.4221 55.0917 63.6726 55.0917 75.6242 55.0917L76.7198 55.0917L76.5206 56.2586C76.3214 57.56 76.5206 58.7612 77.1182 59.8624L81.0025 67.4703C82.8948 71.074 84.7872 74.878 87.3767 78.1814C90.265 81.8853 93.5517 84.3879 97.1372 85.6893L99.1292 86.4901L97.2368 87.5912C92.9542 89.9937 84.9864 91.4953 79.6081 90.9948C78.3134 90.8947 77.417 90.7946 76.6202 90.9948C76.3214 91.0949 76.0226 91.195 75.7238 91.2951C75.3255 91.4953 75.0267 91.5954 74.6283 91.6955C72.9351 92.196 71.3416 91.6955 69.748 91.195C68.8516 90.8947 67.9553 90.5944 67.1585 90.5944C65.6645 90.4943 64.1706 90.9948 62.577 91.5954C61.6806 91.8957 60.7843 92.2961 59.8879 92.4963C58.9915 92.6966 57.9955 92.7967 56.9996 92.7967M51.7209 90.2941C52.0197 90.2941 52.2189 90.3942 52.5177 90.3942C54.908 90.6945 57.2984 91.0949 59.4895 90.4943C60.2863 90.2941 61.0831 89.9937 61.9794 89.6934C63.6726 89.0928 65.4653 88.3921 67.3577 88.5923C68.4126 88.6924 69.4492 88.9927 70.4452 89.293C71.74 89.6934 73.0347 90.0938 74.2299 89.7935C74.5287 89.6934 74.8275 89.5933 75.1263 89.4932C75.5246 89.293 75.8234 89.1929 76.2218 89.0928C77.3174 88.7925 78.5126 88.8926 79.5085 88.9927C84.2892 89.3931 90.265 88.4922 94.4481 86.7904C91.261 85.1887 88.3727 82.7862 85.8828 79.4828C83.1936 76.0792 81.2017 72.1752 79.3093 68.4713L75.4251 60.8634C74.8275 59.7623 74.5287 58.561 74.6283 57.2596C63.1746 57.1595 51.6213 57.1595 40.1676 57.3598C40.0681 57.4599 40.0681 57.6601 39.9685 57.7602C39.7693 58.1606 39.6697 58.3608 39.6697 58.9614C39.5701 62.1648 39.3709 65.4682 39.9685 68.6715C41.3628 76.6799 46.8407 83.8874 51.7209 90.2941"/>
	<path fill="white" d="M72.9403 50.7528L41.8721 50.7528C40.1793 50.7528 38.8848 52.0542 38.8848 53.756L38.8848 56.8592C38.8848 58.561 40.1793 59.8623 41.8721 59.8623L72.9403 59.8623C74.6331 59.8623 75.9276 58.561 75.9276 56.8592L75.9276 53.756C75.9276 52.0542 74.6331 50.7528 72.9403 50.7528"/>
	<path fill="#2D1B0A" d="M72.9403 60.8634L41.8721 60.8634C39.6814 60.8634 37.889 59.0615 37.889 56.8592L37.889 53.756C37.889 51.5537 39.6814 49.7518 41.8721 49.7518L72.9403 49.7518C75.131 49.7518 76.9234 51.5537 76.9234 53.756L76.9234 56.8592C76.9234 59.0615 75.131 60.8634 72.9403 60.8634M41.8721 51.7539C40.7767 51.7539 39.8806 52.6548 39.8806 53.756L39.8806 56.8592C39.8806 57.9604 40.7767 58.8613 41.8721 58.8613L72.9403 58.8613C74.0356 58.8613 74.9318 57.9604 74.9318 56.8592L74.9318 53.756C74.9318 52.6548 74.0356 51.7539 72.9403 51.7539L41.8721 51.7539"/>
	<path fill="#2D1B0A" d="M26.6367 57.1596L24.6451 57.1596L24.6451 5.00525C19.0689 4.80504 11.2022 4.70494 9.80816 5.00525L9.40985 3.00316C11.6005 2.60275 24.2468 2.90306 25.6409 3.00316L26.6367 57.1596"/>
	<path fill="white" d="M35.7979 76.0793C35.7979 78.7883 33.6134 80.9844 30.9186 80.9844C28.2239 80.9844 26.0393 78.7883 26.0393 76.0793C26.0393 73.3703 28.2239 71.1742 30.9186 71.1742C33.6134 71.1742 35.7979 73.3703 35.7979 76.0793"/>
	<path fill="#2D1B0A" d="M30.9186 82.0855C27.6326 82.0855 25.0436 79.3827 25.0436 76.1794C25.0436 72.9761 27.7321 70.2732 30.9186 70.2732C34.1051 70.2732 36.7937 72.9761 36.7937 76.1794C36.7937 79.3827 34.1051 82.0855 30.9186 82.0855M30.9186 72.1752C28.7279 72.1752 27.0351 73.9771 27.0351 76.0793C27.0351 78.1815 28.8275 79.9834 30.9186 79.9834C33.1093 79.9834 34.8021 78.1815 34.8021 76.0793C34.8021 73.9771 33.0098 72.1752 30.9186 72.1752"/>
	<path fill="white" d="M14.9862 71.4745C14.8867 71.4745 14.7871 71.4745 14.6875 71.4745C14.4883 71.4745 14.2892 71.6747 14.2892 71.8749C13.393 74.3775 13.5921 77.2805 15.0858 79.4828C14.7871 79.7831 14.3888 79.8832 14.09 80.1836C13.393 80.7842 13.393 81.7852 13.393 82.6862C13.393 83.2868 13.4926 83.9875 13.9905 84.2878C14.2892 84.4881 14.5879 84.4881 14.8867 84.4881C16.1812 84.5882 17.4757 84.4881 18.7702 84.388C19.0689 84.388 19.3676 84.2878 19.5668 84.1877C20.0647 83.7873 19.8655 83.1867 19.8655 82.6862C19.8655 81.8853 19.9651 81.3848 20.3634 80.584C20.8613 79.5829 21.5583 78.4818 21.2596 77.2805C20.5626 74.878 16.8782 72.8759 14.9862 71.4745"/>
	<path fill="#2D1B0A" d="M15.982 85.5891C15.5837 85.5891 15.1854 85.5891 14.7871 85.5891C14.3888 85.5891 13.8909 85.4891 13.393 85.1888C12.3949 84.5882 12.3949 83.2868 12.3949 82.7862C12.3949 81.9855 12.3949 80.3838 13.393 79.4828C13.4926 79.3827 13.5921 79.2826 13.6917 79.2826C12.4968 76.8801 12.3949 74.0772 13.2934 71.5746C13.6917 70.4734 14.3888 70.4734 14.6875 70.4734C15.0858 70.4734 15.3845 70.6737 15.5837 70.7738C15.8824 70.974 16.2807 71.1742 16.6791 71.4745C18.7702 72.7758 21.5583 74.6778 22.1558 76.9802C22.4546 78.3817 21.8571 79.4828 21.4588 80.4838C21.3592 80.6841 21.2596 80.7841 21.2596 80.9844C20.9609 81.5851 20.8613 81.9855 20.8613 82.6861C20.8613 82.7862 20.8613 82.8864 20.8613 82.9865C20.8613 83.4871 20.9609 84.3879 20.1643 84.9885C19.7659 85.3889 19.1685 85.3889 18.8698 85.4891C17.874 85.4891 16.9778 85.5891 15.982 85.5891M14.9862 72.7758C14.3888 74.878 14.6875 77.1804 15.8824 78.9823L15.7829 80.2837C15.4841 80.584 15.1854 80.7841 14.9862 80.8842C14.8867 80.9844 14.7871 80.9844 14.6875 81.0845C14.3888 81.3848 14.2892 82.0855 14.3888 82.7862C14.3888 83.3869 14.4883 83.4871 14.4883 83.5872C14.5879 83.5872 14.7871 83.5872 14.8867 83.5872C16.1812 83.6872 17.3761 83.5872 18.6706 83.4871C18.6706 83.4871 18.7702 83.4871 18.8698 83.4871C18.8698 83.3869 18.8698 83.2868 18.8698 83.1866C18.8698 83.0865 18.8698 82.8864 18.8698 82.7862C18.8698 81.7852 19.0689 81.0845 19.4672 80.2837C19.5668 80.0835 19.6664 79.8832 19.7659 79.7831C20.1643 78.9823 20.463 78.3817 20.3634 77.681C19.9651 76.0793 17.3761 74.4776 15.7829 73.3765C15.3845 72.9761 15.1854 72.8759 14.9862 72.7758"/>
	<path fill="#2D1B0A" d="M57.207 3.50365L59.1986 3.50365L59.1986 50.2523L57.207 50.2523L57.207 3.50365"/>
</svg>
