<?xml version="1.0" encoding="utf-8" ?>
<svg xmlns="http://www.w3.org/2000/svg" xmlns:xlink="http://www.w3.org/1999/xlink" width="90" height="104">
	<path fill="white" d="M76.9936 12.1467C68.9819 4.01544 58.4349 0 45.4539 0C44.744 0 44.2369 0 43.527 0C30.2418 0.702703 19.1876 5.72201 11.2774 14.7568C1.4402 26 -0.79091 40.3552 0.22323 49.39C2.35292 72.8803 27.9093 104 44.744 104C61.3759 104 88.0478 75.7915 90 50.3938C90.3803 34.6332 85.9181 20.9807 76.9936 12.1467"/>
	<path fill="#69C2FF" d="M4.1687 48.9161C2.44509 32.8544 12.2798 5.14781 43.7103 3.71695C75.1408 2.83893 86.6991 26.1285 86.02 50.2211C84.2658 74.3139 58.2089 100.515 44.6228 100.515C30.9353 100.515 6.39925 72.1053 4.1687 48.9161"/>
	<path fill="#2D1B0A" d="M44.6716 101.418C30.5729 101.418 5.51995 72.8005 3.18708 48.9023C2.27422 40.4677 4.40423 26.912 13.5329 16.3687C20.8357 7.93401 31.2829 3.21462 43.6573 2.582C56.6402 2.2105 67.0874 5.82535 74.5932 13.2559C83.0118 21.5901 87.4747 34.7441 87.0065 50.1073C86.1561 61.253 80.1718 74.0054 70.4346 84.9504C61.8131 94.9916 51.6702 101.418 44.6716 101.418M45.5844 4.6204C44.9999 4.6204 44.3673 4.6204 43.7587 4.6204C31.7901 5.12246 22.1543 9.54061 15.0543 17.674C6.33139 27.7153 4.3028 40.6685 5.11424 48.7015C7.24425 71.0935 31.2829 99.4098 44.5702 99.4098C44.5702 99.4098 44.5702 99.4098 44.6716 99.4098C57.5531 99.4098 83.2146 74.0054 85.0404 50.0068C85.4461 35.2462 81.2875 22.6946 73.2746 14.7621C66.4788 8.03442 57.1474 4.6204 45.5844 4.6204"/>
	<path fill="#FFCF48" d="M12.9983 41.0879C15.9385 37.6747 23.0358 38.5782 30.2344 44.3002C37.6357 50.1226 39.8663 62.3697 36.8246 65.3813C33.8844 68.5937 24.4552 69.4971 17.8649 61.2655C11.5105 53.335 9.95661 44.3002 12.9983 41.0879"/>
	<path fill="#2D1B0A" d="M30.2344 68.6641C30.133 68.6641 29.9302 68.6641 29.8288 68.6641C27.0913 68.5637 21.7177 67.5599 17.0538 61.9383C10.7677 53.9074 8.53716 44.3707 12.1872 40.4556C15.6344 36.4402 23.4413 37.7452 30.7413 43.4672C36.0135 47.6834 38.6496 54.7105 38.9538 59.8302C39.1566 62.641 38.5482 64.8495 37.433 66.0541C36.0135 67.6603 33.276 68.6641 30.2344 68.6641M18.0677 40.0541C16.1413 40.0541 14.6205 40.6564 13.8094 41.6603C11.2747 44.3707 12.5927 52.8031 18.7774 60.5329C22.833 65.5522 27.5982 66.4556 30.0316 66.556C32.6677 66.6564 34.9996 65.8533 36.2163 64.5483C37.0274 63.7452 37.3316 61.9383 37.2302 59.8302C36.926 55.3128 34.4927 48.6873 29.7274 44.973C25.1649 41.5599 21.1094 40.0541 18.0677 40.0541"/>
	<path fill="#FFCF48" d="M77.3596 40.857C74.4193 37.4439 67.3221 38.3474 60.1235 44.0694C52.7221 49.8918 50.4915 62.1388 53.5332 65.1505C56.4735 68.3629 65.9026 69.2663 72.4929 61.0346C78.8803 53.1041 80.2999 44.0694 77.3596 40.857"/>
	<path fill="#2D1B0A" d="M60.1256 68.4633C57.0811 68.4633 54.3411 67.4594 52.8188 65.8532C51.7025 64.6486 51.0936 62.4401 51.2579 59.6293C51.601 54.5096 54.3411 47.4826 59.5167 43.2663C66.8235 37.444 74.6377 36.2393 78.0881 40.2548C81.64 44.1698 79.4074 54.0077 73.2169 61.7374C68.5487 67.4594 63.2716 68.4633 60.43 68.5636C60.43 68.4633 60.2271 68.4633 60.1256 68.4633M72.3035 39.8532C69.2591 39.8532 65.1997 41.2586 60.836 44.7721C56.0663 48.5868 53.6307 55.1119 53.3262 59.6293C53.2248 61.8378 53.5292 63.6447 54.3411 64.3474C55.5589 65.6524 57.893 66.4555 60.5315 66.3552C62.9671 66.2548 67.6353 65.4517 71.7961 60.332C77.6821 52.9034 79.2044 44.1698 76.6673 41.4594C75.754 40.4555 74.2317 39.8532 72.3035 39.8532"/>
	<path fill="#FFCF48" d="M38.5481 81.0116C38.5481 79.6062 41.4884 78.3012 44.9356 78.3012C48.3828 78.3012 51.0189 79.5058 51.0189 81.0116C51.0189 82.7182 48.2814 83.9228 44.9356 83.9228C41.4884 83.9228 38.5481 82.7182 38.5481 81.0116"/>
	<path fill="#2D1B0A" d="M45.037 84.9267C41.387 84.9267 37.6356 83.6217 37.6356 81.0116C37.6356 78.6024 41.4884 77.2973 45.037 77.2973C49.0925 77.2973 52.1342 78.9035 52.1342 81.0116C52.1342 83.3205 49.2953 84.9267 45.037 84.9267M45.037 79.4054C41.4884 79.4054 39.6634 80.6101 39.6634 81.112C39.6634 81.8147 41.7925 83.0193 45.037 83.0193C48.0786 83.0193 50.1064 82.0155 50.1064 81.112C50.1064 80.6101 48.2814 79.4054 45.037 79.4054"/>
</svg>
