<?xml version="1.0" encoding="utf-8" ?>
<svg xmlns="http://www.w3.org/2000/svg" xmlns:xlink="http://www.w3.org/1999/xlink" width="102" height="120">
	<path fill="white" d="M0 120L0 103.773L6.91871 103.773L34.2927 67.3122C14.1382 46.9783 9.42548 18.8314 23.7643 4.40735L26.5718 1.60267C28.2765 0.601002 30.2819 0 32.6884 0C37.4011 0 43.4174 2.20367 50.7372 6.71119L85.0299 6.71119C86.0326 6.31052 87.1356 6.01002 88.1383 6.01002C90.1437 6.01002 92.0489 6.81135 93.5529 8.21369C95.8592 10.5175 96.3605 13.9232 95.057 16.7279L95.5584 51.586C96.16 52.5876 96.7616 53.6895 97.263 54.591C103.38 65.9098 102.577 72.02 100.371 75.3255L97.6641 78.2304C92.1491 83.7396 84.6288 86.6444 75.7047 86.6444C70.1898 86.6444 64.2738 85.4424 58.4581 83.2387L75.2033 103.773L95.1573 103.773L95.1573 120L0 120M63.3713 103.372L40.0082 74.7245L18.4499 103.372L63.3713 103.372M83.4256 34.9583C84.8294 36.5609 86.1329 38.1636 87.4364 39.7663L87.2359 25.9432L83.4256 34.9583M73.2982 24.3406C74.1003 25.0417 74.8022 25.8431 75.5041 26.5442C76.206 27.2454 76.8077 27.8464 77.4093 28.5476L80.5177 21.0351L73.2982 24.3406M62.1681 14.6244C63.6722 15.8264 65.2765 17.1285 66.7806 18.4307L75.2033 14.6244L62.1681 14.6244"/>
	<path fill="#325D70" d="M53.946 48.0799C38.5042 32.6543 28.4771 16.5274 28.4771 8.11339L27.0733 6.71105C14.1383 19.6325 18.9513 45.2754 37.8022 64.1068C56.6533 82.938 82.423 87.7462 95.2576 74.8246L93.8539 73.4222C85.5313 73.4222 69.3876 63.5058 53.946 48.0799"/>
	<path fill="#2D1B0A" d="M76.3064 83.0383C63.7725 83.0383 49.133 76.6277 37.2007 64.808C17.9486 45.5759 13.1356 19.232 26.4717 6.00997L29.5801 7.71281C29.5801 16.4273 39.908 32.5542 54.7481 47.3789C69.5883 62.2036 85.6316 72.4207 94.0544 72.4207L96.862 74.8247C91.0463 80.6343 84.0273 83.0383 76.3064 83.0383M27.1736 8.11347C15.5421 20.8347 20.5557 45.3756 38.6045 63.4056C56.6533 81.4357 81.2197 86.444 93.9541 74.8247C84.5287 74.1235 68.385 63.9065 53.2441 48.7813C38.1031 33.656 27.8755 17.5292 27.5747 8.51414"/>
	<path fill="#FFCF48" d="M97.1626 73.1281C91.5473 78.7375 71.6938 68.0195 52.8428 49.1881C33.9918 30.3568 23.2628 10.5237 28.878 4.9144C34.4931 -0.69495 54.3469 10.0229 73.1978 28.8542C92.0488 47.6856 102.778 67.5188 97.1626 73.1281"/>
	<path fill="#2D1B0A" d="M92.7507 75.6261C83.2249 75.6261 66.0786 63.9066 52.0406 49.8832C34.8943 32.7546 21.2574 11.0184 28.0758 4.20707C34.8943 -2.60429 56.6531 11.0184 73.7995 28.147C83.0244 37.3623 90.5447 46.9784 95.1572 55.4925C99.8699 64.3072 100.873 70.8181 97.7642 73.8231C96.561 75.0251 94.8564 75.6261 92.7507 75.6261M33.1897 4.4074C31.5853 4.4074 30.3821 4.80807 29.5799 5.6094C24.9674 10.2171 33.4905 28.5476 53.5447 48.4809C73.4986 68.4141 91.8483 76.9283 96.4607 72.4208C98.767 70.1169 97.7642 64.2071 93.5529 56.394C89.0407 48.0802 81.6206 38.5643 72.5962 29.5493C56.0515 13.1219 40.71 4.4074 33.1897 4.4074"/>
	<path fill="white" d="M40.2652 49.7733L43.1013 46.9402L54.8 58.6268L51.964 61.4599L40.2652 49.7733"/>
	<path fill="#D4EDF9" d="M85.7318 10.1169L50.0353 10.1169"/>
	<path fill="#2D1B0A" d="M50.0353 9.11523L85.7318 9.11523L85.7318 11.1186L50.0353 11.1186L50.0353 9.11523"/>
	<path fill="#D4EDF9" d="M91.6478 15.9265L92.1478 51.6861"/>
	<path fill="#2D1B0A" d="M90.5817 15.963L92.5869 15.963L93.1365 51.6497L91.1313 51.6497L90.5817 15.963"/>
	<path fill="#D4EDF9" d="M87.5143 13.2222L39.6849 34.8583"/>
	<path fill="#2D1B0A" d="M39.2651 34.0936L87.1046 12.3848L87.9341 14.2088L40.0945 35.9177L39.2651 34.0936"/>
	<path fill="#D4EDF9" d="M87.5366 15.626L67.7832 62.5042"/>
	<path fill="#2D1B0A" d="M66.8356 62.1384L86.5656 15.3353L88.4138 16.1128L68.6838 62.9159L66.8356 62.1384"/>
	<path fill="#206BAB" d="M91.9486 16.3272C90.1437 18.1302 87.2359 18.1302 85.431 16.3272C83.6261 14.5242 83.6261 11.6194 85.431 9.81637C87.2359 8.01337 90.1437 8.01337 91.9486 9.81637C93.7535 11.6194 93.7535 14.5242 91.9486 16.3272"/>
	<path fill="#2D1B0A" d="M76.5067 108.881L6.91865 108.881L40.309 64.4073L76.5067 108.881M12.9349 105.876L70.1898 105.876L40.4092 69.3155L12.9349 105.876"/>
	<path fill="#B3E0FF" d="M4.5122 107.179L91.6478 107.179L91.6478 115.393L4.5122 115.393L4.5122 107.179"/>
	<path fill="#2D1B0A" d="M92.6505 116.494L3.5095 116.494L3.5095 106.277L92.6505 106.277L92.6505 116.494M5.51492 114.491L90.6451 114.491L90.6451 108.281L5.51492 108.281L5.51492 114.491"/>
</svg>
