<?xml version="1.0" encoding="utf-8" ?>
<svg xmlns="http://www.w3.org/2000/svg" xmlns:xlink="http://www.w3.org/1999/xlink" width="100" height="110">
	<path fill="white" d="M18.9621 109.701L18.4631 107.607C17.6647 104.914 16.8663 97.4343 23.1537 94.243C25.4491 92.9465 27.5449 92.3481 28.9421 92.049L30.4391 91.65L30.4391 87.5612L29.1417 87.0626C27.9441 86.6636 25.8483 84.8685 25.3493 84.1704L24.9501 83.0734L0 83.0734L0 80.3808C0 79.184 0.199601 74.9955 2.29541 71.8042C3.69261 69.7099 5.58882 68.5131 6.58683 68.0145L7.78443 67.4161L7.68463 66.1197C7.38523 61.9311 6.68663 47.8694 11.1776 41.3871C16.1677 34.3064 26.2475 33.5086 27.4451 33.5086L29.3413 33.4089L29.2415 31.5141C28.8423 19.7461 30.4391 11.4687 34.0319 6.7815C37.1257 2.59293 43.1138 0 49.7006 0C57.6846 0 64.2715 3.59021 66.9661 9.37443C70.3593 15.5576 70.7585 24.932 70.6587 31.7135L70.5589 33.8078L72.6547 33.8078C75.6487 33.8078 84.4311 35.204 89.022 41.6863C93.4132 48.1686 92.8144 62.2303 92.4152 66.4189L92.3154 67.815L93.513 68.4134C95.3094 69.2112 96.7066 70.6074 97.6048 72.1034C100 75.4941 100 79.9819 100 80.7797L100 83.4723L75.2495 83.4723C73.8523 85.9655 72.4551 86.8631 70.7585 87.262L69.2615 87.6609L69.2615 92.1487L70.9581 92.3481C72.6547 92.5476 74.6507 93.2457 77.2455 94.5422C83.2335 97.4343 82.9341 104.515 81.9361 107.806L81.4371 110L18.9621 109.701M76.3473 52.4569C76.3473 54.651 76.2475 57.1442 76.2475 59.5376C76.2475 61.9311 76.1477 64.4243 76.1477 66.6183L76.1477 68.6129L78.1437 68.6129C79.3413 68.6129 80.2395 67.7153 80.3393 66.6183C80.8383 62.2303 81.0379 56.0471 80.3393 52.1578L76.3473 52.4569M19.0619 53.3545C18.5629 57.0444 18.5629 62.5295 19.0619 66.6183L23.0539 66.4189L23.0539 53.6537L19.0619 53.3545"/>
	<path fill="#B7B7B7" d="M96.8563 80.5996C96.8563 80.5996 96.8563 76.3113 94.9601 73.5189C93.3633 70.7266 89.0718 69.5298 89.0718 69.5298C89.0718 69.5298 91.4671 50.382 86.477 43.3014C81.6866 36.4201 71.3074 36.4201 71.3074 36.4201C71.3074 36.4201 69.2116 35.722 67.515 35.5226C67.8144 29.5389 67.9142 17.3721 64.5209 10.5906C60.0299 1.31586 42.4651 0.41831 36.0778 8.69573C31.1876 14.9786 31.487 29.0402 31.986 35.5226C30.3892 35.722 28.1936 36.4201 28.1936 36.4201C28.1936 36.4201 17.8144 36.4201 13.0239 43.3014C8.03392 50.382 10.4291 69.5298 10.4291 69.5298C10.4291 69.5298 6.13771 70.7266 4.54091 73.5189C2.6447 76.3113 2.6447 80.5996 2.6447 80.5996L8.83232 80.5996C8.83232 80.5996 6.93612 74.217 13.1237 74.217C19.012 74.217 17.8144 80.5996 17.8144 80.5996L24.002 80.5996C24.002 80.5996 24.2016 77.3086 22.6048 74.4165C20.7086 71.6241 16.7166 69.9287 16.7166 69.9287C16.7166 69.9287 14.8203 54.9695 17.4152 49.0856C18.9122 45.4954 22.8044 44.7973 25.5988 44.7973C25.5988 49.5842 26.2974 78.1064 26.2974 78.1064C26.2974 78.1064 25.5988 85.1871 31.986 85.1871C32.2854 85.1871 32.7844 85.1871 33.1836 85.1871L33.1836 94.6613C31.487 94.6613 27.994 95.0602 24.2016 97.0548C18.7126 99.6477 20.9082 107.228 20.9082 107.228L47.1557 106.529L47.1557 94.6613L46.6567 85.0874C48.6527 85.0874 50.6487 85.0874 52.6447 85.0874L52.6447 94.6613L52.6447 98.1518L52.6447 106.529L78.8922 107.228C78.8922 107.228 81.0878 99.6477 75.5988 97.0548C71.4072 94.8607 67.6148 94.6613 66.1178 94.6613L66.1178 84.9877C67.1158 84.9877 67.9142 84.9877 68.2136 84.9877C70.8084 84.9877 73.4032 83.5915 73.4032 77.907C73.4032 72.5217 74.002 52.4763 73.6028 44.7973C76.497 44.6975 80.5888 45.2959 82.0858 49.0856C84.6806 54.9695 82.7844 69.9287 82.7844 69.9287C82.7844 69.9287 78.7924 71.6241 76.8962 74.4165C75.2994 77.3086 75.499 80.5996 75.499 80.5996L81.6866 80.5996C81.6866 80.5996 80.489 74.217 86.3772 74.217C92.5649 74.217 90.6687 80.5996 90.6687 80.5996L96.8563 80.5996"/>
	<path fill="#2D1B0A" d="M79.5409 108.205L51.5968 107.507L51.5968 86.0652L47.6048 86.0652L47.6048 93.6445L48.1038 107.507L20.1597 108.205C19.1617 104.615 18.8623 98.5312 23.7525 96.1377C27.1457 94.3426 30.2395 93.844 32.1357 93.6445L32.1357 86.1649C29.8403 86.1649 28.2435 85.4668 27.0459 84.2701C25.0499 82.0761 25.1497 78.6853 25.2495 78.0869C25.2495 76.7905 24.6507 52.5566 24.5509 45.8748C22.1557 46.0743 19.3613 46.8721 18.2635 49.465C16.0679 54.4514 17.2655 66.5185 17.5649 69.3109C18.7625 69.9092 21.7565 71.5049 23.3533 73.8984C25.1497 77.0897 24.9501 80.5801 24.9501 80.6799L16.5669 81.5774L16.7665 80.3807C16.7665 80.3807 17.2655 77.7878 15.9681 76.2918C15.3693 75.5937 14.3713 75.1948 13.0738 75.1948C11.6766 75.1948 10.6786 75.5937 10.0798 76.2918C8.98203 77.7878 9.68063 80.281 9.68063 80.281L10.0798 81.5774L1.5968 81.5774C1.5968 80.3807 1.5968 75.9927 3.69261 72.9011C4.99001 70.6073 7.88423 69.3109 9.28143 68.8122C8.88223 65.0226 7.48502 49.2655 12.1756 42.6835C16.9661 35.8023 26.6467 35.4034 28.0439 35.4034C28.4431 35.3036 29.7405 34.9047 30.9381 34.7053C30.4391 27.0262 30.5389 14.1613 35.3293 8.07788C38.6227 3.78957 45.2096 1.3961 52.0958 2.19393C58.3832 2.79229 63.3732 5.88386 65.4691 10.1722C68.7625 16.7542 68.9621 28.0235 68.6627 34.7053C69.9601 34.9047 71.1577 35.3036 71.5569 35.5031C73.0539 35.5031 82.6347 36.0017 87.3253 42.7832C91.9162 49.3653 90.6188 65.1223 90.2196 68.912C91.6168 69.4106 94.511 70.7071 95.9082 73.1005C97.9042 76.0924 97.9042 80.4804 97.9042 80.6799L89.4212 81.6772L89.8204 80.3807C90.02 79.6826 90.3194 77.5883 89.4212 76.3916C88.8223 75.6935 87.8243 75.2946 86.4271 75.2946C85.1297 75.2946 84.1317 75.6935 83.5329 76.3916C82.3353 77.8875 82.7345 80.4804 82.7345 80.4804L82.9341 81.6772L74.4511 81.6772C74.3513 80.6799 74.1517 77.1894 75.8483 74.0978C77.5449 71.6046 80.4391 70.009 81.6367 69.4106C81.9361 66.718 83.1337 54.5511 80.9381 49.6645C79.8403 46.8721 76.9461 46.0743 74.3513 45.9745C74.5509 51.7587 74.3513 62.4296 74.2515 70.3082C74.1517 73.5992 74.1517 76.4913 74.1517 78.0869C74.1517 85.0679 70.2595 86.1649 67.9641 86.1649C67.7645 86.1649 67.3653 86.1649 66.8663 86.1649L66.8663 93.844C68.7625 93.9437 72.1557 94.4423 75.8483 96.3372C80.7385 98.6309 80.4391 104.814 79.6407 107.706M53.5928 105.512L78.0439 106.211C78.4431 104.415 78.8423 99.7279 75.1497 97.9328C71.0579 95.7388 67.4651 95.5393 66.0679 95.6391L65.0699 83.9709C67.0659 83.9709 67.8643 83.9709 68.1637 83.9709C69.1617 83.9709 72.3553 83.9709 72.3553 77.8875C72.3553 76.2918 72.4551 73.4995 72.4551 70.1087C72.5549 61.7316 72.7545 50.2628 72.5549 44.8775C78.2435 43.7805 81.6367 45.4759 82.9341 48.7669C85.6287 54.8503 83.7325 69.5103 83.7325 70.1087C83.1337 70.9065 79.3413 72.5022 77.6447 74.9954C76.7465 76.6908 76.4471 78.4859 76.4471 79.5829L80.5389 79.5829C80.5389 78.3861 80.6387 76.4913 81.8363 74.9954C82.8343 73.7986 84.3313 73.2003 86.3273 73.2003C88.4231 73.2003 89.9202 73.7986 90.9182 75.0951C92.016 76.4913 92.016 78.3861 91.8164 79.5829L95.7086 79.5829C95.6088 78.1867 95.2096 75.7932 94.012 74.0978C92.6148 71.6046 88.7225 70.5076 88.7225 70.5076L88.0239 69.4106C88.0239 69.2112 90.3194 50.562 85.6287 43.8802C81.1377 37.4976 71.3573 37.3979 71.2575 37.3979C70.8583 37.2982 68.8623 36.6001 67.3653 36.5004C66.7665 30.417 66.9661 17.8512 63.5728 11.0697C61.7764 7.28005 57.3852 4.68713 51.7964 4.18849C45.6088 3.59012 39.7206 5.58468 36.8263 9.37434C32.0359 15.4578 32.5349 29.7189 32.9341 35.5031C30.6387 36.6998 28.5429 37.2982 28.5429 37.2982C28.1437 37.2982 18.3633 37.3979 13.8722 43.7805C9.18163 50.4623 11.3772 69.1114 11.477 69.3109L10.7784 70.4079C10.7784 70.4079 6.88622 71.5049 5.48902 73.8984C4.29141 75.6935 3.89221 78.0869 3.79241 79.4831L7.68462 79.4831C7.58482 78.2864 7.58482 76.3916 8.58283 74.9954C9.58083 73.6989 11.0778 73.1005 13.1736 73.1005C15.1697 73.1005 16.6667 73.6989 17.6647 74.8956C18.8623 76.2918 19.0619 78.1867 18.9621 79.4831L23.0539 79.4831C22.9541 78.3861 22.7545 76.4913 21.7565 74.7959C20.0599 72.4024 16.3673 70.8068 16.3673 70.7071C15.6687 69.3109 13.8722 54.6509 16.5669 48.5675C17.8643 45.3762 20.9581 43.6808 25.6487 43.6808C26.6467 49.3653 27.3453 77.688 27.3453 77.9872C27.3453 78.1867 27.0459 81.1785 28.6427 82.8739C29.4411 83.7714 30.5389 84.1704 32.0359 84.1704L34.2315 84.1704L34.2315 95.6391C31.6367 95.6391 28.3433 96.038 24.6507 97.9328C20.8583 99.7279 21.3573 104.415 21.6567 106.211L46.1078 105.512L46.1078 95.6391L45.6088 84.0706L53.5928 84.0706L53.5928 105.512"/>
	<path fill="#3BA7FF" d="M40.9181 19.8459L58.6826 19.8459C59.3812 19.8459 59.8802 20.3445 59.8802 21.0426L59.8802 28.622C59.8802 29.32 59.3812 30.0182 58.6826 30.0182L40.9181 30.0182C40.2195 30.0182 39.7205 29.32 39.7205 28.622L39.7205 21.0426C39.7205 20.2448 40.2195 19.8459 40.9181 19.8459"/>
	<path fill="#2D1B0A" d="M58.6826 31.0154L40.9181 31.0154C39.7205 31.0154 38.7225 29.9184 38.7225 28.622L38.7225 21.0426C38.7225 19.7462 39.6207 18.8486 40.9181 18.8486L58.6826 18.8486C59.98 18.8486 60.8782 19.7462 60.8782 21.0426L60.8782 28.622C60.8782 29.9184 59.8802 31.0154 58.6826 31.0154M40.7185 20.8432C40.7185 20.8432 40.7185 20.8432 40.7185 21.0426L40.7185 28.622C40.7185 28.8214 40.9181 29.0209 40.9181 29.0209L58.6826 29.0209C58.6826 29.0209 58.8822 28.8214 58.8822 28.622L58.8822 21.0426C58.8822 20.9429 58.7824 20.8432 58.6826 20.8432L40.9181 20.8432C40.8183 20.8432 40.7185 20.8432 40.7185 20.8432"/>
</svg>
