<?xml version="1.0" encoding="utf-8" ?>
<svg xmlns="http://www.w3.org/2000/svg" xmlns:xlink="http://www.w3.org/1999/xlink" width="138" height="98">
	<path fill="white" d="M136.723 22.6538C131.772 12.9735 106.712 13.1731 106.712 13.1731L101.862 13.2729L100.043 11.8758C91.4546 4.19145 80.4407 0 68.8205 0C62.7578 0 57.0993 0.997963 52.1481 2.89409C39.7196 7.58452 29.9182 16.5662 24.5628 28.442C22.5419 32.4338 21.4304 37.0244 20.6221 40.9165L20.42 42.0143L16.7824 45.0081C2.13086 55.8859 -1.50676 66.8635 0.514136 74.2485C2.63608 81.833 10.4165 85.7251 25.5733 85.7251C28.6046 85.7251 31.0297 85.9246 34.3642 85.6253L36.183 85.4257L37.1935 86.6232C46.0854 94.4073 57.8066 98 69.4268 98C75.4895 98 82.6637 96.6029 87.5139 94.7067C103.782 88.6191 114.291 74.1487 117.12 57.9817L117.726 54.888C134.601 43.0122 140.967 30.9369 136.723 22.6538M23.0472 72.7515C16.8834 72.053 15.5698 70.4562 15.1657 69.3585C14.9636 67.7617 15.2667 65.2668 19.0054 61.4745L22.3399 58.1813L23.1482 62.8717C23.3503 63.7699 23.7545 64.8676 24.1587 65.9654C24.4618 66.5642 24.6639 67.1629 24.866 67.7617C25.0681 68.3605 25.2702 68.8595 25.5733 69.4582L27.19 73.2505L23.0472 72.7515M116.817 41.0163C116.817 41.0163 115.099 30.6375 111.664 27.2444C111.664 27.2444 120.859 27.5438 122.071 31.5356C123.082 35.0285 116.817 41.0163 116.817 41.0163"/>
	<path fill="#5DDEE2" d="M26.258 64.3742C17.5681 41.1217 29.7946 15.3742 53.4391 6.79172C77.0836 -1.79076 103.052 10.2846 111.742 33.6369C120.432 56.8895 108.206 82.6369 84.561 91.2194C60.9164 99.8019 34.6447 87.6268 26.258 64.3742"/>
	<path fill="#2D1B0A" d="M68.9999 95.0027C62.1794 95.0027 55.4094 93.5058 49.1446 90.6117C37.9286 85.4223 29.4408 76.1412 25.298 64.6646C21.0541 53.188 21.5593 40.8133 26.7126 29.7359C31.967 18.5587 41.3641 9.97623 53.0854 5.78479C77.1341 -2.89749 103.911 9.37746 112.702 33.2288C116.946 44.7054 116.441 57.0801 111.287 68.1575C106.033 79.3347 96.6357 87.9172 84.9145 92.1086C79.7612 94.1045 74.3048 95.0027 68.9999 95.0027M68.9999 4.98642C63.8972 4.98642 58.7439 5.88459 53.7927 7.68092C42.4756 11.7726 33.5837 19.9559 28.5314 30.6341C23.5802 41.2125 23.075 53.0883 27.2178 63.9661C31.1586 74.9436 39.2422 83.7257 49.953 88.7155C60.8658 93.8052 72.9912 94.3041 84.2072 90.2125C95.5242 86.1208 104.416 77.9375 109.469 67.2593C114.42 56.6809 114.925 44.8052 110.782 33.9274C104.214 16.1636 87.1375 4.98642 68.9999 4.98642"/>
	<path fill="#D4EDF9" d="M4.3544 73.2229C2.03036 66.6363 9.3056 53.8624 23.755 45.2799L23.654 51.3675C15.0652 57.9541 9.81083 66.4367 11.5286 71.0274C14.9641 80.3084 42.8525 78.9113 74.0754 67.6343C105.399 56.5569 127.831 40.0905 124.295 30.7097C122.88 26.7178 117.525 24.4225 108.33 24.7219L101.964 17.337C116.817 16.5386 130.256 19.9317 132.884 26.7178C137.229 38.6934 111.967 59.7504 76.7026 72.5243C41.4379 85.0987 8.59829 85.0987 4.3544 73.2229"/>
	<path fill="#2D1B0A" d="M28.2004 83.1305C20.7231 83.1305 14.4583 82.1325 9.9113 80.0368C6.47578 78.4401 4.25279 76.2445 3.34338 73.55C0.9183 66.6641 7.78936 53.5908 23.1482 44.4095L24.6639 43.5113L24.5628 51.7944C15.974 58.381 10.8207 66.4645 12.3364 70.5562C12.8416 71.9533 14.0541 73.1509 16.075 74.049C25.5733 78.4401 49.3188 75.3464 73.6707 66.6641C98.5277 57.882 118.231 45.6071 122.778 36.1264C123.688 34.2303 123.89 32.434 123.385 31.0368C122.071 27.3443 116.716 25.4482 108.43 25.6478L99.9424 16.3667L101.963 16.2669C115.604 15.4686 130.761 18.2629 133.893 26.2466C138.541 38.9207 112.472 60.4767 77.1062 73.3505C59.4233 79.7374 41.8415 83.1305 28.2004 83.1305M5.26324 72.8515C6.0716 75.047 7.89041 76.8433 10.8207 78.1407C22.8451 83.7293 49.8241 81.0348 76.3989 71.3545C110.249 59.0796 136.217 38.3219 131.974 26.8454C129.751 21.157 118.434 17.5643 104.085 18.0633L108.733 23.5521C117.726 23.4523 123.587 25.7476 125.204 30.2384C125.911 32.2344 125.709 34.4299 124.597 36.825C119.949 46.7048 99.7403 59.379 74.378 68.4604C49.1168 77.5419 25.3712 80.5358 15.2667 75.8454C12.8416 74.7476 11.2249 73.1509 10.5176 71.2547C8.69877 66.3647 13.8521 57.5826 22.643 50.7965L22.643 47.0042C9.70921 55.3871 3.24234 66.9635 5.26324 72.8515"/>
	<path fill="white" d="M30.8 44.4094C30.8 44.4094 31.1308 37.2241 34.3642 31.0367C37.9008 25.1487 44.2666 19.7597 48.6115 19.7597C52.7544 19.7597 53.1586 23.8514 50.7335 25.3483C48.6115 27.1446 43.7614 32.2342 41.7405 36.3259C39.6185 40.4175 40.2248 40.2179 38.7091 45.8065C36.8903 51.2953 30.3224 50.5968 30.8 44.4094"/>
	<path fill="white" d="M30.8276 60.1772C29.9182 57.7821 31.1307 55.1874 33.859 54.2892C36.284 53.3911 39.3154 54.5886 40.2248 56.884C41.1342 59.2791 39.6185 62.4725 37.1934 63.3707C34.4652 64.2689 31.737 62.8717 30.8276 60.1772"/>
</svg>
