<?xml version="1.0" encoding="utf-8" ?>
<svg xmlns="http://www.w3.org/2000/svg" xmlns:xlink="http://www.w3.org/1999/xlink" width="108" height="104">
	<path fill="white" d="M54.4704 104C51.2746 104 49.5768 101.675 48.4782 100.058C48.0788 99.4519 47.6793 98.9466 47.2798 98.5423C46.1813 97.1273 43.9842 93.5899 40.6885 87.93C38.3915 83.9883 35.1957 78.6317 34.2969 77.5199L33.4979 76.3071C32.5991 73.7804 32.4993 71.3547 33.1983 69.4344L24.7095 74.3868C24.8094 74.8921 24.8094 75.4985 24.7095 76.206C24.5098 77.3178 24.0104 78.8338 22.2128 80.0466C21.314 80.6531 20.3153 81.0573 19.2167 81.0573C16.1208 81.0573 14.3232 78.1263 13.8238 77.1156C12.6254 75.1953 5.2351 63.6735 4.03667 61.0457C3.33759 59.3275 3.43746 57.7104 4.13654 56.2954C5.43484 53.8698 8.23116 53.2634 8.83037 53.1623L10.3284 53.3644C10.628 53.4655 10.9276 53.5666 11.1274 53.6676L19.9158 48.4121C17.7187 47.8056 16.5203 45.9864 15.6214 44.6725C15.222 44.0661 14.8225 43.5607 14.423 43.1565C13.3245 41.7415 11.1274 38.2041 7.83168 32.5442C5.5347 28.6025 2.33891 23.2459 1.44009 22.1341L0.641137 20.9213C-1.55597 13.7454 2.43877 10.7133 4.43615 9.70262C5.5347 8.99514 16.5203 2.52672 18.6175 1.3139C20.2154 0.404276 21.7134 0 23.1116 0C25.3087 0 27.2062 0.909621 28.904 2.82993C31.0012 5.45773 41.088 22.7405 42.6859 25.5705C43.4848 26.5811 45.5821 29.7143 45.0827 33.1506C45.0827 33.3528 44.9828 33.4538 44.9828 33.656L56.7674 26.6822C57.3666 19.3042 61.6609 12.1283 68.8515 7.88338L71.8475 5.96307L78.6386 17.9903C79.0381 17.8892 79.5374 17.8892 79.9369 17.8892C81.6347 17.8892 83.2326 18.3946 84.6307 19.2031L105.004 8.99514L108 14.2507L88.9251 26.8844C89.0249 29.2089 88.3259 31.2303 86.9277 32.7464L93.1196 43.7629L91.5217 45.38C91.0223 45.8853 90.4231 46.1885 89.9238 46.2896C86.2286 48.4121 82.134 49.5238 78.0394 49.5238C74.8436 49.5238 71.7477 48.8163 68.9513 47.6035L57.1668 55.4869C58.8646 55.7901 60.3626 56.6997 61.6609 58.2157C63.7582 60.8435 73.8449 78.1263 75.4428 80.9563C76.2418 81.967 78.339 85.1001 77.8396 88.5364C77.54 90.3557 76.5414 91.9728 74.8436 92.9835C70.6491 96.3188 61.6609 101.574 57.3666 103.394C56.5676 103.697 55.4691 104 54.4704 104"/>
	<path fill="#FFE7DC" d="M26.8067 39.619C28.0051 41.3372 43.6845 69.3333 43.6845 69.3333L49.377 66.2001L32.9986 36.8902L26.8067 39.619"/>
	<path fill="#2D1B0A" d="M43.285 70.6472C37.3927 60.035 26.9065 41.4383 26.0077 40.1244L25.3086 39.1137L33.4978 35.4752L50.7751 66.5034L43.285 70.6472M28.2048 40.0233C31.101 44.8746 41.5872 63.5724 43.984 67.9183L47.8789 65.7959L32.3993 38.2041L28.2048 40.0233"/>
	<path fill="#3BA7FF" d="M6.10846 12.2294C6.10846 12.2294 18.1926 5.05345 20.2898 3.84063C22.8864 2.42566 24.9836 2.6278 26.8811 4.75025C28.7786 7.1759 40.3634 27.0865 40.3634 27.0865C40.3634 27.0865 44.6577 32.3421 40.5631 34.9699C36.5685 38.103 27.7799 43.3586 23.6853 45.0768C19.6906 46.795 18.9916 43.3586 16.7944 41.034C14.8969 38.6084 4.91003 20.9213 3.71161 19.9106C3.20345 17.9903 2.31345 14.1497 6.10846 12.2294"/>
	<path fill="#2D1B0A" d="M21.7136 46.5928C19.5165 46.5928 18.4179 44.8746 17.4192 43.4596C17.0198 42.8532 16.6203 42.2468 16.1209 41.7414C15.1223 40.5286 12.5257 36.0816 9.72935 31.4324C7.13276 27.1875 3.73723 21.3255 3.03815 20.618C1.04077 14.5539 3.73723 12.1282 5.63473 11.2186C6.33381 10.8143 17.7188 4.04271 19.8161 2.82988C22.912 1.1117 25.5086 1.51598 27.6058 3.94164C29.5034 6.36729 40.2892 24.964 41.188 26.379C41.5875 26.8843 43.6847 29.7142 43.2852 32.5442C43.0855 33.8581 42.3864 34.9698 41.0881 35.7784C37.0934 38.9115 28.3049 44.1671 24.0106 45.9863C23.2116 46.3906 22.4127 46.5928 21.7136 46.5928M4.63604 19.4052C5.53486 20.4159 7.53224 23.7512 11.4271 30.4217C14.0237 34.7677 16.7202 39.3158 17.619 40.4275C18.1183 41.034 18.6177 41.6404 19.117 42.3479C20.5152 44.3692 21.2143 45.1778 23.4114 44.1671C27.4061 42.4489 36.1946 37.2944 40.0894 34.1613C40.8884 33.6559 41.2879 33.0495 41.4876 32.342C41.7872 30.6239 40.389 28.4003 39.7898 27.7939C35.6952 20.8202 27.7057 7.37798 26.3076 5.45767C24.8095 3.7395 23.2116 3.53736 21.0145 4.85126C19.0171 6.06409 7.03289 13.1389 6.83316 13.24C4.33644 14.2507 3.73723 16.2721 4.63604 19.4052"/>
	<path fill="#3BA7FF" d="M38.8908 67.6152C38.8908 67.6152 50.9748 60.4393 53.0722 59.2264C55.6688 57.8115 57.7659 58.0136 59.6635 60.1361C61.561 62.5617 73.1458 82.4723 73.1458 82.4723C73.1458 82.4723 77.4402 87.7279 73.3455 90.3557C69.3508 93.4888 60.5622 98.7444 56.4677 100.463C52.4729 102.181 51.7738 98.7444 49.5768 96.4198C47.6792 93.9942 37.6923 76.3071 36.4939 75.2964C35.8843 73.3761 34.896 69.5355 38.8908 67.6152"/>
	<path fill="#2D1B0A" d="M54.4703 101.979C52.2732 101.979 51.1746 100.26 50.1759 98.8454C49.7765 98.239 49.377 97.6326 48.8776 97.1272C47.879 95.9144 45.2824 91.4674 42.486 86.8182C39.9893 82.5733 36.4939 76.7113 35.7948 76.0038C33.9972 71.3546 34.9959 68.2215 38.3914 66.6044C39.0905 66.2001 50.4755 59.4285 52.5728 58.2157C55.6687 56.4975 58.2653 56.9018 60.3625 59.3274C62.26 61.7531 73.0459 80.3498 73.9447 81.7648C74.3442 82.2701 76.4414 85.1 76.0419 87.93C75.8422 89.2439 75.1431 90.3556 73.8448 91.1642C69.8501 94.2973 61.0616 99.5529 56.7673 101.372C55.9683 101.776 55.1694 101.979 54.4703 101.979M37.3927 74.791C38.2916 75.8017 40.2889 79.137 44.2837 85.8075C46.8803 90.1535 49.5767 94.7016 50.4755 95.8133C50.9749 96.4198 51.4742 97.0262 51.9736 97.7337C53.3717 99.755 54.0708 100.564 56.2679 99.5529C60.2627 97.8347 69.0511 92.6802 72.946 89.5471C73.745 89.0417 74.1444 88.4353 74.3442 87.7278C74.6438 86.0097 73.2456 83.7861 72.6464 83.1797C68.5518 76.206 60.5623 62.7638 59.1641 60.8435C57.6661 59.1253 56.0682 58.9232 53.8711 60.2371C51.8737 61.4499 39.8895 68.5247 39.6897 68.6258C38.3914 68.929 35.7948 70.2429 37.3927 74.791"/>
	<path fill="white" d="M58.0657 37.6988L66.8541 32.4432L68.9514 37.4967L59.6636 42.7522L58.0657 37.6988"/>
	<path fill="#E7F5F8" d="M55.9184 30.624L10.6779 57.5084L19.9656 73.7805L65.5058 47.1993L55.9184 30.624"/>
	<path fill="#2D1B0A" d="M19.6162 75.0943L9.3297 57.104L56.268 29.209L66.8541 47.5025L19.6162 75.0943M12.0262 57.8115L20.3153 72.3655L64.1576 46.795L55.5689 31.9379L12.0262 57.8115"/>
	<path fill="#3BA7FF" d="M9.5294 56.0932C9.5294 56.0932 5.73439 56.8007 6.93281 59.7317C8.13123 62.3595 16.6201 75.5995 16.6201 75.5995C16.6201 75.5995 18.3178 79.238 20.6148 77.5198C23.2114 75.8017 21.1141 73.1739 21.1141 73.1739L12.3257 58.3167C12.126 58.3167 11.8264 56.9018 9.5294 56.0932"/>
	<path fill="#2D1B0A" d="M19.4133 78.9349C19.1135 78.9349 18.9136 78.9349 18.7136 78.8338C17.0145 78.4295 16.0149 76.5092 15.7151 76.0039C15.0154 74.9932 7.21908 62.6627 6.01965 60.035C5.41993 58.7211 5.6734 57.7104 6.01965 57.104C6.91922 55.4868 9.11818 54.9815 9.31809 54.9815C11.7169 55.689 12.5166 56.6997 12.9164 57.205L22.112 72.4664C22.4119 72.7696 23.3115 74.1846 23.0116 75.7006C22.9117 76.4081 22.5119 77.4188 21.3124 78.2274C20.5128 78.8338 19.9131 78.9349 19.4133 78.9349M9.41804 57.104C8.91828 57.205 8.0187 57.6093 7.71884 58.1146C7.61889 58.2157 7.51894 58.5189 7.71884 59.2264C8.81832 61.7531 17.2144 74.791 17.3143 74.8921C17.6142 75.3974 18.3138 76.6103 19.1135 76.8124C19.3134 76.8124 19.5133 76.9135 19.9131 76.6103C20.4128 76.206 20.7127 75.9028 20.8127 75.4985C20.9126 74.69 20.2129 73.7803 20.2129 73.7803L11.4171 59.0243C11.3171 58.9232 11.2172 58.7211 11.1172 58.62C11.0173 58.2157 10.6175 57.6093 9.41804 57.104"/>
	<path fill="#E7F5F8" d="M70.4494 10.3091C70.4494 10.3091 70.6491 10.3091 70.9489 10.1069L89.5244 43.1565C89.3246 43.3587 89.025 43.3587 89.025 43.3587C79.2379 49.2206 67.3535 46.424 62.2602 37.2945C56.9672 28.1983 60.5625 16.1711 70.4494 10.3091"/>
	<path fill="#2D1B0A" d="M78.2392 47.5024C76.4416 47.5024 74.644 47.3003 72.9462 46.7949C67.9527 45.481 63.8581 42.2468 61.3614 37.7998C55.8686 28.2993 59.6636 15.5646 69.9501 9.50048C70.3495 9.39941 70.3495 9.39941 70.4494 9.39941L90.8226 43.4597C90.0237 44.2682 89.7241 44.3693 89.4245 44.4704C85.8293 46.3907 82.0341 47.5024 78.2392 47.5024M70.6491 11.4208C61.4612 17.0807 58.1656 28.1982 63.159 36.7891C65.3561 40.7308 69.0513 43.6618 73.5453 44.8746C78.4389 46.1885 83.632 45.481 88.2261 42.7522L70.6491 11.4208"/>
	<path fill="#E7F5F8" d="M79.5375 25.0651L106.502 11.6229L81.2353 28.4004L79.5375 25.0651"/>
	<path fill="#2D1B0A" d="M80.8359 29.8153L78.1395 24.5597L106.003 10.6123L107.002 12.3304L80.8359 29.8153M80.9358 25.5704L81.6348 26.9855L92.3208 19.9106L80.9358 25.5704"/>
	<path fill="#E7F5F8" d="M77.8397 21.2245C77.615 21.5277 77.615 21.5277 77.8397 21.2245L83.6321 31.6345C83.6321 31.6345 83.6321 31.6345 83.8318 31.4324C86.3285 30.1185 86.8279 26.379 85.1301 23.549C83.5322 21.0223 80.3364 20.0116 77.8397 21.2245"/>
	<path fill="#2D1B0A" d="M83.4323 33.2516L76.9408 21.7298L78.1393 19.6073C81.0355 19.2031 84.3311 20.4159 86.0289 22.9426C87.1274 24.8629 87.5269 27.1875 86.9277 29.1078C86.5283 30.5229 85.6294 31.6345 84.5309 32.241L83.4323 33.2516M79.3377 21.8309L83.9317 30.1185C84.5309 29.6131 84.7306 29.0068 84.9304 28.5014C85.3298 27.0865 85.0302 25.3683 84.2313 23.9533C83.2326 22.3362 81.1353 21.4266 79.3377 21.8309"/>
</svg>
