<?xml version="1.0" encoding="utf-8" ?>
<svg xmlns="http://www.w3.org/2000/svg" xmlns:xlink="http://www.w3.org/1999/xlink" width="76" height="106">
	<path fill="white" d="M75.2732 28.6705C71.7337 9.79238 54.4406 0 39.3723 0C22.0792 0 10.5505 6.66286 3.87598 20.5943C-4.51774 36.8476 1.95453 56.7352 11.5618 68.2438C19.0454 76.8248 18.742 82.8819 18.742 83.0838L18.0341 88.3333L19.4499 88.3333L19.4499 94.2895L21.877 94.2895C23.5962 99.8419 28.147 106 38 106C47.5638 106 52.6202 99.741 54.0361 93.7848L55.4519 93.7848L56.1598 88.3333L57.2722 83.7905C57.2722 83.7905 57.7778 74.7048 62.3286 68.9505C66.6772 63.9029 79.1161 49.2648 75.2732 28.6705"/>
	<path fill="#E7F5F8" d="M23.1803 83.4371C23.1803 83.4371 24.0905 75.5629 14.9889 64.9629C6.08951 54.1609 0.8308 36.4944 8.01097 22.361C14.9889 8.02574 26.7199 4.39145 39.2599 4.39145C51.6988 4.39145 67.3738 12.5686 70.7111 29.3266C73.8461 46.3876 64.7444 58.8047 58.6767 65.7705C52.9123 72.9381 52.4067 83.5381 52.4067 83.5381L23.1803 83.4371"/>
	<path fill="#2D1B0A" d="M53.8043 85.1029L21.4429 85.0019L21.6452 83.2857C21.6452 83.0838 22.252 75.8153 13.8582 65.9219C4.95888 55.221 -1.00774 36.7467 6.67807 21.6038C12.9481 8.78289 23.2633 2.8267 39.2417 2.8267C52.9952 2.8267 68.7714 11.8115 72.2098 28.9734C75.7493 48.3562 63.8161 62.1867 59.872 66.7296C54.5122 73.3924 54.0065 83.4877 54.0065 83.5886L53.8043 85.1029M24.6791 81.9734L50.9727 82.0743C51.3772 78.8438 52.6918 70.8686 57.4449 64.9124C63.9172 57.4419 72.1087 45.8324 69.1759 29.68C66.0409 14.1334 51.7817 5.95622 39.2417 5.95622C24.5779 5.95622 15.0718 11.4076 9.30743 23.1181C2.22839 37.0496 7.89162 54.1105 16.0831 64.1048C23.1621 72.2819 24.4768 78.9448 24.6791 81.9734"/>
	<path fill="#325D70" d="M24.1018 83.2857L51.9123 83.4876L51.2044 89.2419L24.1018 89.4438L24.1018 83.2857"/>
	<path fill="#2D1B0A" d="M22.5849 90.9581L22.5849 81.7715L53.6316 81.9734L52.5191 90.7562L22.5849 90.9581M25.6188 84.8L25.6188 87.9296L49.8898 87.7276L50.1932 85.0019L25.6188 84.8"/>
	<path fill="#325D70" d="M25.821 89.2419L49.7887 89.2419C49.7887 89.2419 49.7887 101.255 37.7543 101.255C25.821 101.255 25.821 89.2419 25.821 89.2419"/>
	<path fill="#2D1B0A" d="M37.7544 102.77C33.8103 102.77 30.5742 101.558 28.2482 99.2363C24.3042 95.2991 24.3042 89.5448 24.3042 89.2419L24.3042 87.7277L51.3057 87.7277L51.3057 89.2419C51.3057 93.8858 48.4741 102.77 37.7544 102.77M27.4392 90.7562C27.6415 92.3715 28.3494 95.0972 30.3719 97.1162C32.0911 98.8325 34.6194 99.741 37.7544 99.741C45.7436 99.741 47.665 93.6838 48.1707 90.7562L27.4392 90.7562"/>
	<path fill="#3BA7FF" d="M36.3385 14.5371C35.4283 14.5371 24.3041 49.9714 24.3041 49.9714L41.5972 43.3084L32.1922 76.6227L42.5074 76.6227L48.2717 34.4247L33.9114 40.3809L36.3385 14.5371"/>
</svg>
