<?xml version="1.0" encoding="utf-8" ?>
<svg xmlns="http://www.w3.org/2000/svg" xmlns:xlink="http://www.w3.org/1999/xlink" width="68" height="102">
	<path fill="white" d="M0 102L0 84.7169L24.7365 84.7169L24.7365 74.7267L15.5487 74.7267L15.5487 64.3369L46.545 64.3369C50.8865 59.9412 52.6029 55.2459 51.9971 49.5514C51.1894 41.0598 46.646 37.3634 43.1122 35.665L41.6987 34.9657L41.6987 45.6552C41.6987 47.7531 40.4871 49.6514 38.6697 50.5505L38.0639 61.5397L19.1834 61.5397L19.1834 50.3507C17.2651 49.0519 16.3564 47.3536 16.3564 45.6552L16.3564 15.385L14.9429 15.385C11.611 13.7865 9.08691 10.8893 9.38978 7.09305C10.3994 2.59745 13.6303 0.399608 16.3564 0L40.9919 0C44.6266 0.899119 47.7566 3.59647 47.7566 7.79236C47.7566 11.289 45.0305 14.1861 42.2035 15.1851L41.5977 17.9824C47.1508 19.381 55.7328 22.3781 61.185 29.571C68.8582 39.8609 70.1706 54.8462 64.5168 67.9334C61.9927 73.5279 57.1463 78.6229 50.1797 82.8188L47.1508 84.7169L60.882 84.7169L60.882 102L0 102"/>
	<path fill="#2D1B0A" d="M35.5397 59.142L21.7075 59.142L21.7075 40.7601L35.5397 40.7601L35.5397 59.142M24.7365 56.145L32.5108 56.145L32.5108 43.7571L24.7365 43.7571L24.7365 56.145"/>
	<path fill="#325D70" d="M23.222 42.2586L34.0253 42.2586L34.0253 57.6435L23.222 57.6435L23.222 42.2586"/>
	<path fill="#325D70" d="M19.5873 68.3331L45.4344 68.3331L45.4344 70.7307L19.5873 70.7307L19.5873 68.3331"/>
	<path fill="#2D1B0A" d="M18.0729 66.8345L46.949 66.8345L46.949 72.2292L18.0729 72.2292L18.0729 66.8345"/>
	<path fill="#2D1B0A" d="M38.6697 85.4163L34.934 73.7278L36.3475 73.3282C37.1552 73.1284 56.2377 67.0343 54.4203 49.3517C52.7039 31.9687 37.3572 31.7689 36.7514 31.7689L35.1359 31.7689L35.8427 19.8806L37.4581 20.0804C38.0639 20.1803 51.7952 21.6788 59.0647 31.3693C66.2333 40.9599 67.3437 55.0461 62.0936 67.2342C56.6415 79.3223 40.79 84.9168 40.0832 85.1166L38.6697 85.4163M38.6697 75.6259L40.5881 81.5202C44.5257 79.9217 55.329 74.6269 59.3676 65.8356C64.2139 54.6465 63.2042 41.6592 56.7425 32.9678C51.5933 26.1744 42.4054 23.7768 38.7707 23.0775L38.4678 28.7719C43.0112 29.3713 55.9347 32.3684 57.5502 48.9521C59.2666 66.1352 43.617 73.6279 38.6697 75.6259"/>
	<path fill="#325D70" d="M36.8524 30.1704C36.8524 30.1704 54.1175 30.1704 56.0358 49.1517C57.9541 68.333 36.8524 74.7267 36.8524 74.7267L39.6795 83.5181C39.6795 83.5181 55.5309 78.0235 60.7811 66.4348C65.8293 54.8462 64.8199 41.2595 57.9541 32.0685C50.9875 22.7776 37.3573 21.379 37.3573 21.379L36.8524 30.1704"/>
	<path fill="#2D1B0A" d="M36.4484 48.6524L21.8085 48.6524C20.294 48.6524 18.8805 47.2537 18.8805 45.7552L18.8805 11.8884C18.8805 10.3898 20.1931 9.191 21.8085 9.191L36.4484 9.191C37.9629 9.191 39.1745 10.3898 39.1745 11.8884L39.1745 45.7552C39.1745 47.3536 37.9629 48.6524 36.4484 48.6524M21.9095 45.6553L36.1455 45.6553L36.1455 12.1881L21.9095 12.1881L21.9095 45.6553"/>
	<path fill="#325D70" d="M21.8085 10.6896L36.4485 10.6896C37.1552 10.6896 37.66 11.1891 37.66 11.8884L37.66 45.7552C37.66 46.4546 37.1552 47.1538 36.4485 47.1538L21.8085 47.1538C21.1018 47.1538 20.395 46.4546 20.395 45.7552L20.395 11.8884C20.395 11.1891 21.1018 10.6896 21.8085 10.6896"/>
	<path fill="#2D1B0A" d="M40.4855 13.0872C40.1825 13.0872 39.9805 12.9873 39.7785 12.8874L15.5387 12.8874C13.9227 12.188 11.7007 10.3898 11.8898 7.29285C12.8117 3.09698 16.5486 2.59747 16.6496 2.59747L40.5865 2.59747C42.4045 3.09698 45.2325 4.79531 45.2325 7.89226C45.2325 10.7894 42.5055 12.5876 41.1925 12.9873C40.9905 13.0872 40.7885 13.0872 40.4855 13.0872M16.2457 9.9902L40.7885 9.9902C41.3945 9.69049 42.3035 8.89128 42.3035 7.89226C42.3035 6.49364 40.7885 5.79433 40.2835 5.59452L17.1546 5.59452C16.7507 5.69442 15.4377 6.09403 14.9327 7.69245C14.8317 8.89128 15.7406 9.69049 16.2457 9.9902"/>
	<path fill="#325D70" d="M16.9622 4.09599L40.487 4.09599C40.487 4.09599 43.819 4.99511 43.819 7.89226C43.819 10.6895 39.9823 12.188 40.487 11.4887L15.8516 11.4887C15.8516 11.4887 13.2265 10.2899 13.4173 7.49264C14.1352 4.4956 16.9622 4.09599 16.9622 4.09599"/>
	<path fill="#2D1B0A" d="M45.4343 90.7111L27.2607 90.7111L27.2607 73.2281L45.4343 73.2281L45.4343 90.7111M30.2896 87.714L42.4054 87.714L42.4054 76.2252L30.2896 76.2252L30.2896 87.714"/>
	<path fill="#325D70" d="M28.7751 74.7267L43.9199 74.7267L43.9199 89.2125L28.7751 89.2125L28.7751 74.7267"/>
	<path fill="#2D1B0A" d="M58.257 99.5024L2.5242 99.5024L2.5242 87.2145L58.257 87.2145L58.257 99.5024M5.55316 96.5054L55.228 96.5054L55.228 90.2116L5.55316 90.2116L5.55316 96.5054"/>
	<path fill="#325D70" d="M4.0387 88.7131L56.7425 88.7131L56.7425 98.004L4.0387 98.004L4.0387 88.7131"/>
</svg>
