<?xml version="1.0" encoding="utf-8" ?>
<svg xmlns="http://www.w3.org/2000/svg" xmlns:xlink="http://www.w3.org/1999/xlink" width="66" height="86">
	<path fill="white" d="M0 86L0 69.8L11.6111 69.8L16.7037 58L15.2778 57.1C6.00926 51.4 0.509259 41.6 0.509259 31C0.509259 13.9 14.6667 0 32.0833 0C49.5 0 63.6574 13.8 63.7593 30.8C63.7593 41.2 58.6667 50.6 49.7037 56.6L48.2778 57.6L54.1852 69.8L66 69.8L66 86L0 86"/>
	<path fill="#325D70" d="M20.8796 55.5L12.2221 75.9L53.7777 75.9L44.1017 55.5L20.8796 55.5"/>
	<path fill="#2D1B0A" d="M55.3055 76.9L10.6944 76.9L20.1666 54.5L44.7129 54.5L55.3055 76.9M13.75 74.9L52.1481 74.9L43.3888 56.5L21.4907 56.5L13.75 74.9"/>
	<path fill="#3BA7FF" d="M3.25925 31.1C3.25925 15.4 16.0926 2.9 31.9815 2.9C47.8703 2.9 60.7037 15.5 60.7037 31.1C60.7037 46.8 47.8703 59.3 31.9815 59.3C16.0926 59.3 3.25925 46.8 3.25925 31.1"/>
	<path fill="#2D1B0A" d="M31.9814 60.3C24.037 60.3 16.5 57.3 10.8981 51.8C5.29626 46.3 2.2407 39 2.2407 31.1C2.2407 15 15.5833 1.9 31.9814 1.9C48.3796 1.9 61.7222 15 61.7222 31.1C61.7222 47.2 48.3796 60.3 31.9814 60.3M31.9814 3.9C16.7037 3.9 4.27774 16.1 4.27774 31.1C4.27774 38.4 7.12959 45.3 12.4259 50.4C17.6203 55.5 24.6481 58.3 31.9814 58.3C47.2592 58.3 59.6851 46.1 59.6851 31.1C59.6851 16.1 47.2592 3.9 31.9814 3.9"/>
	<path fill="white" d="M19.6574 33C19.6574 26.1 25.2593 20.7 32.1852 20.7C38.9074 20.7 44.713 26.2 44.713 33C44.713 39.6 38.9074 45.3 32.1852 45.3C25.2593 45.3 19.6574 39.6 19.6574 33"/>
	<path fill="#2D1B0A" d="M32.1852 46.3C24.8519 46.3 18.6389 40.2 18.6389 33C18.6389 25.5 24.5463 19.7 32.1852 19.7C39.5185 19.7 45.7315 25.8 45.7315 33C45.7315 40.2 39.5185 46.3 32.1852 46.3M32.1852 21.7C25.7685 21.7 20.6759 26.7 20.6759 33C20.6759 39.1 25.9722 44.3 32.1852 44.3C38.2963 44.3 43.6945 39 43.6945 33C43.6945 26.8 38.3982 21.7 32.1852 21.7"/>
	<path fill="#E7F5F8" d="M2.80085 72L63.199 72L63.199 83.1L2.80085 83.1L2.80085 72"/>
	<path fill="#2D1B0A" d="M64.2176 84.1L1.7824 84.1L1.7824 71L64.2176 71L64.2176 84.1M3.81944 82.1L62.1805 82.1L62.1805 73L3.81944 73L3.81944 82.1"/>
</svg>
