<?xml version="1.0" encoding="utf-8" ?>
<svg xmlns="http://www.w3.org/2000/svg" xmlns:xlink="http://www.w3.org/1999/xlink" width="64" height="88">
	<path fill="white" d="M55.4109 0.39819L9.3033 0L8.28096 0.298643C0.920107 1.99095 0.306702 7.76471 0 9.65611L0 76.3529C0 84.2172 5.72511 88 10.7346 88C10.7346 88 16.153 88 21.8781 88C50.8103 88 55.1042 87.6018 56.5355 86.905C56.5355 86.905 56.5355 86.905 56.7399 86.905C58.4779 86.5068 64 85.1131 64 76.3529L64 11.2489C64.1008 3.9819 58.7846 0.79638 55.4109 0.39819"/>
	<path fill="#FFCF48" d="M8.63982 3.52755L55.2575 3.92574C55.2575 3.92574 60.2669 4.32393 60.2669 10.695C60.2669 17.066 60.2669 69.7266 60.2669 76.5955C60.2669 83.3646 56.5866 82.867 55.2575 83.4642C54.0308 84.2606 10.3778 84.0836 10.3778 84.0836C10.3778 84.0836 3.426 84.4596 3.426 76.4958C3.426 68.2335 3.426 10.9936 3.426 9.40085C3.7327 7.50945 4.14162 4.62257 8.63982 3.52755"/>
	<path fill="#2D1B0A" d="M22.5434 85.1223C18.4541 85.1223 14.3649 85.1223 10.4801 85.1223C10.3778 85.1223 7.31086 85.3167 5.06176 83.1265C3.42605 81.6332 2.6082 79.443 2.6082 76.556L2.6082 9.25829C2.9149 7.26724 3.42605 3.68333 8.53765 2.4887L55.3598 2.88691C55.4621 2.88691 61.3915 3.48423 61.3915 10.652L61.3915 76.556C61.3915 82.9274 58.2223 83.7238 56.4844 84.122C56.1777 84.2216 55.9732 84.2216 55.7688 84.3211C53.9286 84.9184 38.5938 85.1223 22.5434 85.1223M10.3778 83.0269C27.2461 83.1265 52.804 83.0269 54.8487 82.5292C55.1554 82.4296 55.4621 82.3301 55.871 82.2305C57.4045 81.8323 59.2446 81.3345 59.2446 76.556L59.2446 10.652C59.2446 5.47529 55.5643 4.97752 55.1554 4.87797L8.74211 4.47976C5.06176 5.37573 4.75507 7.56589 4.44837 9.4574L4.44837 76.556C4.44837 78.8457 5.06176 80.5381 6.28855 81.6332C8.02649 83.226 10.2756 83.0269 10.3778 83.0269"/>
	<path fill="#E7F5F8" d="M13.0857 16.9231L51.8316 16.9231L51.8316 34.7421L13.0857 34.7421L13.0857 16.9231"/>
	<path fill="#2D1B0A" d="M52.8539 35.8372L12.0634 35.8372L12.0634 15.9277L52.8539 15.9277L52.8539 35.8372M14.108 33.8463L50.8093 33.8463L50.8093 17.9186L14.108 17.9186L14.108 33.8463"/>
	<path fill="#E7F5F8" d="M14.3125 57.2398C14.3125 47.285 22.2866 39.4208 32.4075 39.4208C42.324 39.4208 50.2981 47.3846 50.2981 57.2398C50.2981 67.1946 42.324 75.0588 32.4075 75.0588C22.3888 75.0588 14.3125 67.095 14.3125 57.2398"/>
	<path fill="#2D1B0A" d="M32.4076 76.1539C21.8777 76.0543 13.2902 67.5928 13.2902 57.3394C13.2902 46.9864 21.8777 38.5249 32.4076 38.5249C42.8352 38.5249 51.3204 46.9864 51.3204 57.3394C51.3204 67.6923 42.8352 76.1539 32.4076 76.1539M32.4076 40.4163C22.7978 40.4163 15.3348 47.7828 15.3348 57.2398C15.3348 66.5973 22.7978 74.0634 32.4076 74.0634C41.7107 74.0634 49.2758 66.4978 49.2758 57.2398C49.2758 47.9819 41.7107 40.4163 32.4076 40.4163"/>
</svg>
