<?xml version="1.0" encoding="utf-8" ?>
<svg xmlns="http://www.w3.org/2000/svg" xmlns:xlink="http://www.w3.org/1999/xlink" width="70" height="96">
	<path fill="white" d="M59.8922 96C57.9996 96 15.5654 96 8.69231 95.4921C4.60827 94.9841 2.51644 92.546 1.91878 91.5302C-1.06954 87.0603 0.325008 81.473 0.325008 81.3714L13.7725 44.3937L13.7725 14.2222C13.374 13.9175 9.68842 11.1746 9.98725 7.00952C10.2861 3.25079 14.0713 0.203175 18.6534 0.203175C18.8526 0.203175 51.7241 0 53.1187 0C55.4097 0 60.6891 0.609524 60.8883 5.89206C60.9879 10.5651 59.3942 11.581 57.5016 12.9016L56.7047 46.6286C57.4019 48.3556 58.7965 52.2159 60.2907 56.6857C63.1794 64.9143 66.7654 75.073 68.8572 80.254C70.8494 85.1302 69.8533 88.6857 68.7576 90.7175C66.2673 95.0857 60.4899 95.8984 59.8922 96"/>
	<path fill="#E7F5F8" d="M17.5849 10.6666L17.5849 44.6983L3.83857 82.2857C3.83857 82.2857 1.94597 90.5143 9.01833 91.2253C16.0906 91.7334 59.8198 91.7334 59.8198 91.7334C59.8198 91.7334 69.2829 90.819 65.4977 81.3715C61.7125 72.2286 53.2455 47.1364 53.2455 47.1364L53.2455 10.7682C53.2455 10.7682 14.6961 10.7682 16.0906 10.7682C17.5849 10.6666 17.5849 12.1905 17.5849 10.6666"/>
	<path fill="#2D1B0A" d="M58.8318 92.7492C51.7595 92.7492 15.5012 92.7492 9.02648 92.2413C6.83505 92.0381 5.14166 91.1238 4.04595 89.6C1.95412 86.5524 2.95023 82.2857 2.95023 82.0826L16.5969 44.5969L16.5969 11.9873C16.4973 11.9873 16.4973 11.8857 16.2981 11.8857L15.9992 9.854C16.0988 9.854 16.2981 9.854 16.3977 9.854L54.1501 9.854L54.1501 47.035C54.8474 49.1683 62.7167 72.4318 66.3026 81.0667C67.5976 84.2159 67.5976 86.9588 66.4023 88.9905C64.41 92.3429 60.0272 92.7492 59.8279 92.7492C59.8279 92.7492 59.4295 92.7492 58.8318 92.7492M4.84283 82.5905C4.74322 83.0984 4.14556 86.3492 5.63972 88.381C6.4366 89.3969 7.53232 90.0064 9.12609 90.2096C16.0988 90.7175 59.3299 90.7175 59.8279 90.7175C59.8279 90.7175 63.3143 90.3111 64.8085 87.873C65.705 86.3492 65.6054 84.3175 64.6093 81.7778C60.8241 72.7365 52.4568 47.7461 52.3571 47.4413L52.2575 11.6826L18.5891 11.6826L18.5891 44.8L4.84283 82.5905"/>
	<path fill="#41A2F9" d="M19.253 3.96192L53.7183 3.75874C53.7183 3.75874 56.8063 3.75874 57.5035 6.90796C57.5035 9.75239 54.2164 10.7683 54.2164 10.7683L17.8585 10.7683C17.8585 10.7683 13.5752 11.2762 13.8591 7.41588C13.9736 3.45398 19.253 3.96192 19.253 3.96192"/>
	<path fill="#2D1B0A" d="M17.3584 11.7841C16.5615 11.7841 14.9678 11.5809 13.9717 10.5651C13.374 10.0571 12.865 9.04127 12.865 7.31429C12.865 6.09524 13.374 5.07937 14.1709 4.26667C15.9639 2.64127 18.8526 2.84444 19.251 2.84444L53.7163 2.64127C55.1109 2.64127 57.8004 3.45397 58.4976 6.60317C58.4976 10.3619 54.7124 11.5809 54.5132 11.6825L17.9561 11.6825C17.8565 11.7841 17.6573 11.7841 17.3584 11.7841M18.753 4.97778C17.8565 4.97778 16.4619 5.18095 15.5654 5.89206C15.167 6.29841 14.9678 6.80635 14.8682 7.51746C14.7685 8.33016 14.9678 8.8381 15.3662 9.24444C16.0635 9.85397 17.3584 9.95556 17.7569 9.85397L54.0152 9.85397C54.5132 9.65079 56.4058 8.8381 56.5054 7.11111C55.9078 4.87619 53.8159 4.87619 53.7163 4.87619L19.251 5.07937C19.0518 4.97778 18.9522 4.97778 18.753 4.97778"/>
	<path fill="white" d="M40.767 65.4222C40.767 63.6952 41.9623 62.5778 43.5561 62.5778C45.1499 62.5778 46.3452 63.7968 46.3452 65.4222C46.3452 67.0476 45.1499 68.2666 43.5561 68.2666C41.9623 68.2666 40.767 67.1492 40.767 65.4222"/>
	<path fill="white" d="M26.8215 69.9936C26.8215 69.0793 27.5188 68.2666 28.5149 68.2666C29.4114 68.2666 30.4075 68.9777 30.4075 69.9936C30.4075 70.9079 29.511 71.9238 28.5149 71.9238C27.5188 71.9238 26.8215 71.0095 26.8215 69.9936"/>
	<path fill="white" d="M33.595 57.7016C33.595 56.7873 34.2923 55.9746 35.2884 55.9746C36.1849 55.9746 37.181 56.6857 37.181 57.7016C37.181 58.6159 36.2845 59.6318 35.2884 59.6318C34.2923 59.6318 33.595 58.7175 33.595 57.7016"/>
</svg>
