<?xml version="1.0" encoding="utf-8" ?>
<svg xmlns="http://www.w3.org/2000/svg" xmlns:xlink="http://www.w3.org/1999/xlink" width="110" height="90">
	<path fill="white" d="M83.1959 89.6993L83.2957 84.7884L28.4097 85.3898L28.3099 89.8998L13.0417 89.8998L13.0417 84.9889L11.3452 84.7884C10.0479 84.588 9.34932 84.588 9.04995 84.588C6.15596 84.0869 1.96467 83.1849 0.467778 77.9733C0 76.2695 -0.130978 70.4566 0.1684 60.6347C0.1684 59.833 0.1684 59.3318 0.1684 59.0312C0.667363 52.216 7.25368 50.2116 9.54891 50.1114L81.5992 49.6102L81.5992 0L94.3727 0L94.4725 49.1091L100.66 49.1091C103.554 49.3096 109.142 51.4143 109.741 58.1292C110 61.637 110 69.3541 110 73.0624C110 73.8641 110 74.4655 110 74.8664C110 81.4811 104.352 83.9866 100.959 83.9866L98.9631 83.9866L98.9631 90L83.1959 89.6993"/>
	<path fill="#2D1B0A" d="M86.3875 76.2694L95.7687 76.2694L95.7687 87.0935L86.3875 87.0935L86.3875 76.2694"/>
	<path fill="#2D1B0A" d="M96.1679 87.6949L85.7887 87.6949L85.7887 75.8686L96.1679 75.8686L96.1679 87.6949M86.8865 86.6926L95.2697 86.6926L95.2697 76.8708L86.8865 76.8708L86.8865 86.6926"/>
	<path fill="#2D1B0A" d="M15.6294 76.2694L25.0106 76.2694L25.0106 87.0935L15.6294 87.0935L15.6294 76.2694"/>
	<path fill="#2D1B0A" d="M25.4098 87.6949L15.0306 87.6949L15.0306 75.8686L25.4098 75.8686L25.4098 87.6949M16.1284 86.6926L24.5116 86.6926L24.5116 76.8708L16.1284 76.8708L16.1284 86.6926"/>
	<path fill="#325D70" d="M3.08249 59.3619C3.58149 53.549 9.86888 53.0479 9.86888 53.0479L100.188 52.5467C100.188 52.5467 106.275 53.0479 106.774 58.8608C107.273 64.9743 106.774 69.4843 106.774 75.2973C106.774 81.4109 100.687 81.4109 100.687 81.4109C100.687 81.4109 12.3639 82.4131 9.27009 81.912C6.47569 81.4109 3.98069 80.9098 2.98269 77.3018C2.08449 73.7939 2.78309 65.4754 3.08249 59.3619"/>
	<path fill="#2D1B0A" d="M18.6215 82.9844C13.2314 82.9844 9.73782 82.9844 9.13892 82.8842C6.24422 82.3831 3.14989 81.7817 2.0519 77.5724C1.25336 74.6659 1.5395 69.0535 1.85227 63.7416C1.95208 62.2383 1.95208 60.8352 2.0519 59.4321C2.55099 54.0201 7.34221 52.3163 9.73782 52.1158L100.172 51.6147C102.667 51.8151 107.259 53.6192 107.758 58.8307C108.157 62.9399 107.997 66.2472 107.858 69.8552C107.758 71.6592 107.758 73.4633 107.758 75.3675C107.758 80.98 103.166 82.4833 100.671 82.4833C97.7765 82.2829 41.5795 82.9844 18.6215 82.9844M4.04824 59.4321C4.04824 60.735 3.94843 62.2383 3.84861 63.7416C3.54916 68.7528 3.34952 74.4655 4.04824 76.971C4.84678 79.8775 6.7433 80.2784 9.33855 80.7795C11.9338 81.0802 76.216 80.4788 100.771 80.2784C101.27 80.2784 105.861 80.078 105.861 75.167C105.861 73.1626 105.961 71.3586 105.961 69.5546C106.062 66.0468 106.161 62.7394 105.861 58.8307C105.462 54.0201 100.372 53.5189 100.172 53.4187L9.93745 53.9198C9.638 54.1203 4.44751 54.5212 4.04824 59.4321"/>
	<path fill="white" d="M12.6354 66.7483C12.6354 65.245 13.9328 63.9421 15.4298 63.9421C16.9268 63.9421 18.2242 65.245 18.2242 66.7483C18.2242 68.2517 16.9268 69.5546 15.4298 69.5546C13.9328 69.4543 12.6354 68.1514 12.6354 66.7483"/>
	<path fill="#2D1B0A" d="M15.4298 70.9577C13.1344 70.9577 11.1384 68.9532 11.1384 66.6481C11.1384 64.343 13.1344 62.3385 15.4298 62.3385C17.7252 62.3385 19.7212 64.343 19.7212 66.6481C19.7212 68.9532 17.7252 70.9577 15.4298 70.9577M15.4298 65.4454C14.7312 65.4454 14.1324 66.0468 14.1324 66.7483C14.1324 67.4499 14.7312 68.0512 15.4298 68.0512C16.1284 68.0512 16.7272 67.4499 16.7272 66.7483C16.7272 66.0468 16.0286 65.4454 15.4298 65.4454"/>
	<path fill="#FFCF48" d="M25.2102 66.7483C25.2102 65.245 26.5076 63.9421 28.0046 63.9421C29.5016 63.9421 30.799 65.245 30.799 66.7483C30.799 68.2517 29.5016 69.5546 28.0046 69.5546C26.5076 69.5546 25.2102 68.1514 25.2102 66.7483"/>
	<path fill="#2D1B0A" d="M27.9048 70.4566C25.9088 70.4566 24.1124 68.7528 24.1124 66.6481C24.1124 64.5434 25.809 62.8396 27.9048 62.8396C30.0006 62.8396 31.6972 64.5434 31.6972 66.6481C31.6972 68.7528 30.0006 70.4566 27.9048 70.4566M27.9048 64.9443C27.0066 64.9443 26.1084 65.7461 26.1084 66.7483C26.1084 67.7505 26.9068 68.5523 27.9048 68.5523C28.9028 68.5523 29.7012 67.7505 29.7012 66.7483C29.7012 65.7461 28.9028 64.9443 27.9048 64.9443"/>
	<path fill="white" d="M37.785 66.7483C37.785 65.245 39.0824 63.9421 40.5794 63.9421C42.0764 63.9421 43.3738 65.245 43.3738 66.7483C43.3738 68.2517 42.0764 69.5546 40.5794 69.5546C39.0824 69.5546 37.785 68.1514 37.785 66.7483"/>
	<path fill="#2D1B0A" d="M40.5794 70.9577C38.284 70.9577 36.288 68.9532 36.288 66.6481C36.288 64.343 38.284 62.3385 40.5794 62.3385C42.8748 62.3385 44.8708 64.343 44.8708 66.6481C44.8708 68.9532 42.8748 70.9577 40.5794 70.9577M40.5794 65.4454C39.8808 65.4454 39.282 66.0468 39.282 66.7483C39.282 67.4499 39.8808 68.0512 40.5794 68.0512C41.278 68.0512 41.8768 67.4499 41.8768 66.7483C41.8768 66.0468 41.1782 65.4454 40.5794 65.4454"/>
	<path fill="white" d="M64.9305 61.0357L95.1699 61.0357L95.1699 71.6593L64.9305 71.6593L64.9305 61.0357"/>
	<path fill="#2D1B0A" d="M96.1679 72.7617L63.9325 72.7617L63.9325 60.1337L96.1679 60.1337L96.1679 72.7617M65.9285 70.7572L94.1719 70.7572L94.1719 62.1381L65.9285 62.1381L65.9285 70.7572"/>
	<path fill="#5DDEE2" d="M84.7907 2.80615L91.5771 2.80615L91.5771 52.216L84.7907 52.216L84.7907 2.80615"/>
	<path fill="#2D1B0A" d="M92.5751 53.2182L83.7927 53.2182L83.7927 1.8039L92.5751 1.8039L92.5751 53.2182M85.7887 51.2137L90.5791 51.2137L90.5791 3.80835L85.7887 3.80835L85.7887 51.2137"/>
</svg>
