<?xml version="1.0" encoding="utf-8" ?>
<svg xmlns="http://www.w3.org/2000/svg" xmlns:xlink="http://www.w3.org/1999/xlink" width="114" height="114">
	<path fill="white" d="M92.5796 71.7145L87.5748 66.6925L114 40.2767L92.6797 18.7824L66.1543 45.3991L61.9503 41.1806L59.548 43.5912C62.8512 38.067 66.5547 29.1278 62.1505 19.5859C61.8502 18.9833 61.4498 18.2802 61.0495 17.778L59.3478 15.5683C59.3478 15.5683 51.0399 24.0053 51.0399 24.0053C51.0399 16.874 48.1371 11.7515 43.0323 6.82996C38.9284 2.51101 32.8225 0 26.3163 0C19.2095 0 12.2028 2.51101 7.49836 7.83436C-2.81148 19.1841 -2.311 35.8573 7.89874 45.4996C12.6032 49.9189 19.1094 52.6308 25.8158 52.6308C24.3144 54.2379 17.9083 60.7665 17.9083 60.7665L22.6128 62.6749C25.5156 63.8802 30.0199 63.7797 30.0199 63.7797C37.2267 63.7797 42.6319 59.7621 46.0351 57.2511L41.0304 62.2731L45.2344 66.4916L18.9092 92.807L40.2296 114L66.4546 87.785L71.4594 92.7066L76.264 87.9859L76.0638 101.445L99.0858 77.8414L86.3736 77.8414L92.5796 71.7145"/>
	<path fill="#2D1B0A" d="M25.8158 2.51105C31.4212 2.51105 37.3268 4.6203 41.8311 8.8388C46.7358 13.5596 49.1381 19.6863 49.1381 25.9136C49.1381 27.5208 47.9369 28.726 46.7358 28.726C45.7348 28.726 44.6338 28.1234 44.3335 26.3154C43.7329 23.9049 45.1342 19.7868 38.7281 12.4547C36.9264 10.245 31.6214 7.43264 25.5155 7.43264C21.2114 7.43264 16.607 8.93924 12.5031 13.0574C3.89489 21.9965 7.59843 34.7525 13.3039 39.5737C17.7081 43.5913 22.6128 44.4952 26.1161 44.4952C26.5165 44.4952 26.9169 44.4952 27.3172 44.4952C31.1209 45.4995 29.7195 49.2159 27.1171 49.4168C26.9169 49.4168 26.5165 49.4168 26.3163 49.4168C20.4107 49.4168 14.505 47.3076 9.90062 42.8882C0.59174 34.1498 0.09126 19.2846 8.89967 9.94365C13.2038 5.02206 19.5098 2.51105 25.8158 2.51105"/>
	<path fill="#2D1B0A" d="M25.8158 11.852C29.0188 11.852 32.322 13.0573 34.9245 15.4678C37.9273 18.5815 39.3287 22.6996 39.1285 26.5163C39.1285 27.2194 37.9273 28.2237 36.7262 28.2237C36.0255 28.2237 35.0246 27.7215 34.3239 26.8176C35.0246 25.1101 34.1237 21.4943 31.7214 19.2846C29.6194 17.3762 27.8177 16.6731 25.9147 16.6731C22.913 16.6731 20.5107 18.3806 19.6099 19.4855C17.9082 21.3939 14.7052 26.014 19.8101 31.9401C22.2124 34.0494 24.0141 34.3507 25.4154 34.3507C26.1161 34.3507 26.6166 34.3507 26.8167 34.3507C30.5203 35.7569 28.2181 38.8704 27.5174 38.8704C26.8167 38.8704 26.3163 39.0714 25.6156 39.0714C22.4125 39.0714 19.1094 37.8661 16.8072 35.2547C11.402 30.1322 11.2018 21.193 16.1065 15.97C18.6089 13.2581 22.0122 11.852 25.8158 11.852M25.8158 9.34095C21.4116 9.34095 17.4078 11.0484 14.4049 14.4634C11.6022 17.5771 10.0007 21.6952 10.1841 26.014C10.4011 30.333 12.1027 34.451 15.1056 37.3638C17.9082 40.1761 21.6118 41.8837 25.6156 41.8837C26.3163 41.8837 27.0169 41.8837 27.7176 41.6828C29.4192 41.4819 30.9207 39.5735 31.2209 37.8661C31.4211 35.9576 30.7205 33.5471 28.0179 32.5427C27.4173 32.5427 27.117 32.5427 26.9168 32.5427C26.7166 32.5427 26.4164 32.5427 26.2162 32.5427C26.016 32.5427 25.7157 32.5427 25.5155 32.5427C24.8148 32.5427 23.4135 32.3419 21.6118 30.8353C18.8091 27.5207 18.8091 24.5075 21.4116 21.3939C21.9121 20.6908 23.8139 19.4855 26.016 19.4855C27.4173 19.4855 29.0188 20.1885 30.4202 21.3939C32.322 23.1013 32.5222 25.7127 32.322 26.215L32.6223 28.0229C33.5231 29.7304 35.2248 30.6343 37.0265 30.6343C39.629 30.6343 41.6453 28.726 41.6453 26.6168C41.8311 21.7956 39.9293 17.1753 36.7262 13.8608C33.5231 10.7471 29.8196 9.34095 25.8158 9.34095"/>
	<path fill="#3BA7FF" d="M109.696 40.2264L40.1294 109.731L23.1133 92.8573L92.6796 23.0511L109.696 40.2264"/>
	<path fill="#2D1B0A" d="M40.2296 111.188L21.812 92.807L92.7797 21.5947L111.197 40.1762L40.2296 111.188M24.6147 92.807L40.2296 108.275L108.294 40.1762L92.6796 24.407L24.6147 92.807"/>
	<path fill="white" d="M103.991 35.9576L36.0257 104.257L34.1239 102.349L102.089 34.0493L103.991 35.9576"/>
	<path fill="white" d="M98.2852 30.1322L30.1201 98.5322L28.2183 96.6238L96.3833 28.2238L98.2852 30.1322"/>
	<path fill="white" d="M91.0781 57.0502L89.1763 58.9586L73.7617 43.4908L75.6635 41.5824L91.0781 57.0502"/>
	<path fill="white" d="M58.7473 89.5929L56.8455 91.5013L41.4308 76.0335L43.3326 74.1251L58.7473 89.5929"/>
	<path fill="white" d="M51.0399 97.126L49.1381 99.0344L33.7234 83.5666L35.6253 81.6582L51.0399 97.126"/>
	<path fill="#B7B7B7" d="M23.3133 59.1595C36.3257 63.5789 44.4335 53.0326 47.7366 52.2291C51.1399 51.4257 51.7405 56.548 51.7405 56.548L56.7452 51.526C56.7452 51.526 52.7414 51.1244 53.0417 48.111C53.4421 44.7965 66.0541 34.2502 59.1475 20.9921C59.1475 20.9921 45.1342 36.4599 43.4325 38.067C41.9311 39.5736 41.3305 38.268 39.729 36.5604C37.9273 34.7525 30.1198 27.8221 30.1198 27.8221C30.1198 27.8221 31.1208 24.0054 28.0178 22.2979C24.9149 20.4899 21.3114 22.6996 21.104 26.1146C20.911 29.5296 24.9149 32.2414 27.4172 30.534C27.4172 30.534 36.7261 38.5693 37.627 39.4733C38.8281 40.6785 38.6279 41.6828 38.0274 42.7878C37.5269 43.8925 23.3133 59.1595 23.3133 59.1595"/>
	<path fill="#2D1B0A" d="M29.7194 61.2687C27.6174 61.2687 25.4153 60.9674 23.013 60.0634L21.5116 59.5612L22.6126 58.4564C28.0178 52.6308 36.8262 43.089 37.4267 42.185C37.8271 41.4819 37.9272 40.9797 37.1265 40.1762C36.5259 39.4731 31.2208 34.9533 27.5173 31.7392C26.216 32.2414 24.7146 32.141 23.3133 31.3374C21.4115 30.2326 20.3046 28.1234 20.3046 26.0141C20.5106 23.9049 21.6117 22.0969 23.4134 21.193C25.115 20.289 27.0168 20.3894 28.7184 21.2934C31.3209 22.6996 31.6212 25.5119 31.3209 27.3198C33.0225 28.8264 38.9282 34.1498 40.5297 35.7568C40.83 36.0581 41.1303 36.3595 41.3305 36.5604C41.7309 36.9621 42.1312 37.4643 42.3314 37.5648C42.3314 37.5648 42.4315 37.5648 42.7318 37.2634C44.3333 35.6564 58.2466 20.3894 58.3467 20.1886L59.3477 19.0837L60.0483 20.3894C65.5536 30.9357 59.3477 39.9753 56.0445 44.7965C55.1437 46.1022 54.1427 47.5084 54.0426 48.111C53.9425 48.6132 54.0426 48.9145 54.3429 49.3163C54.9435 50.1198 56.3448 50.4211 56.8453 50.4211L58.9473 50.622L50.9396 58.6573L50.7394 56.6485C50.6394 55.9454 50.239 54.1374 49.238 53.4344C48.8376 53.133 48.4373 53.133 47.9368 53.2335C47.3362 53.4344 46.2352 54.2379 45.034 55.1418C41.6308 57.5524 36.5259 61.2687 29.7194 61.2687M25.2151 58.6573C33.7232 60.867 39.829 56.4476 43.8329 53.4344C45.3343 52.3295 46.5354 51.526 47.5364 51.2247C48.6374 51.0238 49.6384 51.1242 50.4392 51.7269C51.4401 52.43 51.9406 53.5348 52.341 54.5392L54.9435 51.9278C54.2428 51.6264 53.442 51.2247 52.9416 50.5216C52.341 49.8185 52.1408 48.8141 52.2409 47.8097C52.341 46.7048 53.2418 45.3991 54.5431 43.5912C57.646 38.9709 62.851 31.4379 59.0474 22.5991C55.7442 26.215 45.7347 37.2634 44.3333 38.6696C43.7328 39.2722 43.0321 39.5736 42.4315 39.5736C41.4306 39.5736 40.7299 38.77 39.9291 37.9665C39.7289 37.7656 39.4287 37.4643 39.2285 37.163C37.4267 35.3551 29.7194 28.5251 29.7194 28.4247L29.4191 27.4203C29.4191 27.3198 30.2199 24.3066 27.8176 23.1013C26.7165 22.4987 25.4153 22.3982 24.4143 23.0009C23.2132 23.6035 22.5125 24.8088 22.4124 26.215C22.3123 27.822 23.4134 29.0273 24.4143 29.63C25.4153 30.2326 26.4162 30.2326 27.217 29.7304L28.4181 29.8308C29.4191 30.6344 37.8271 37.8661 38.728 38.8705C40.0292 40.1762 40.2294 41.6828 39.3286 43.2899C38.4277 44.2943 28.9186 54.6396 25.2151 58.6573"/>
	<path fill="#B7B7B7" d="M91.8788 80.9551L79.0666 94.0124L79.2668 86.0775L84.2716 80.9551"/>
	<path fill="#2D1B0A" d="M78.0657 96.5234L78.2658 85.6758L83.9713 79.9507L94.2812 79.9507L78.0657 96.5234M80.2678 86.4793L80.1677 91.5014L89.4765 81.9595L84.772 81.9595L80.2678 86.4793"/>
	<path fill="#E7F5F8" d="M88.3755 71.614L71.5594 88.3876L45.2343 62.273L62.1504 45.2986"/>
	<path fill="#2D1B0A" d="M71.5596 89.7937L43.8331 62.273L62.1506 43.8924L89.877 71.614L71.5596 89.7937M46.7359 62.273L71.5596 86.9814L86.9743 71.614L62.1506 46.7047L46.7359 62.273"/>
	<path fill="white" d="M98.9856 49.1154L97.0838 51.0238L81.6692 35.556L83.571 33.6476L98.9856 49.1154"/>
</svg>
