<?xml version="1.0" encoding="utf-8" ?>
<svg xmlns="http://www.w3.org/2000/svg" xmlns:xlink="http://www.w3.org/1999/xlink" width="92" height="116">
	<path fill="white" d="M37.4424 116L37.4424 99.5153L44.7102 99.5153L47.0995 74.1308C43.8141 76.0523 40.0309 77.6704 35.8495 77.6704C32.4646 77.6704 30.7721 76.6591 28.5818 75.4455L22.4093 70.49L25.2964 67.2537C19.8208 65.8378 14.6438 63.0061 10.5619 58.9608C3.9911 52.4882 0.207912 43.993 0 34.9922C-0.190318 25.789 2.99552 17.1927 9.06854 10.7201C15.2411 3.9442 24.2013 0 33.6593 0C42.0221 0 50.3849 3.3374 56.6571 9.20314C60.938 13.3496 64.0243 18.5074 65.8164 24.0697L69.2013 20.3278L72.9845 25.9913C79.4557 38.633 72.2876 49.7576 68.3053 55.4211C72.8849 56.9381 76.0708 61.2868 76.0708 66.5458C76.0708 66.6469 76.0708 66.748 76.0708 66.8492L81.4469 66.8492L84.4336 99.4141L92 99.4141L92 116L37.4424 116M50.4845 41.0602C50.9823 40.5545 51.4801 39.9477 51.9779 39.442C51.9779 39.442 51.9779 39.3409 51.8783 39.3409C51.7787 39.5432 51.5796 39.7454 51.3805 39.9477C51.0818 40.3522 50.6836 40.6556 50.2854 40.959C50.4845 41.0602 50.4845 41.0602 50.4845 41.0602"/>
	<path fill="#5DDEE2" d="M32.7641 65.2311C24.9992 65.2311 17.6326 62.096 12.257 56.837C6.38361 51.0724 2.79985 43.3863 2.5914 34.9922C2.40166 26.5981 5.38812 18.7097 10.8633 12.9451C16.5376 6.67487 24.8001 3.1352 33.2571 3.1352C41.0266 3.1352 48.5923 6.27034 54.2666 11.5293C60.4386 17.4961 63.9229 25.6879 63.9229 34.2843C63.9229 37.9251 61.3346 40.2512 58.4477 40.2512C56.5562 40.2512 53.968 39.0376 53.2711 35.4979C53.072 34.79 53.072 33.7786 53.072 32.8684C52.8729 30.0367 52.5743 25.8902 47.1986 19.4177C45.3072 17.2939 39.6329 14.1587 33.0627 14.1587C27.5875 14.1587 22.9087 16.2825 18.9268 20.6313C14.248 25.6879 13.2525 31.4525 13.4516 35.4979C13.6507 41.0602 16.2389 46.5214 19.6236 49.6566C24.8001 54.2076 29.7776 55.2189 32.8636 55.2189C33.5604 55.2189 34.2573 55.2189 34.755 55.2189C39.3343 56.6348 40.4293 59.2642 40.0311 61.1858C39.832 63.613 37.4429 65.7368 34.8546 65.939C34.1577 65.2311 33.4609 65.2311 32.7641 65.2311"/>
	<path fill="#2D1B0A" d="M34.4565 66.9503C33.7596 66.2424 33.4609 66.2424 32.7639 66.2424C24.8985 66.2424 17.2322 63.1072 11.5572 57.5449C5.28475 51.4769 1.80007 43.3862 1.5916 34.9922C1.40182 26.2947 4.38869 18.204 10.1633 12.2371C15.9379 5.7646 24.4007 2.1238 33.2571 2.1238C41.1272 2.1238 48.9926 5.25894 54.9663 10.8213C61.3383 16.9904 64.9225 25.4856 64.9225 34.3854C64.9225 38.3296 62.1348 41.3636 58.451 41.3636C55.9619 41.3636 53.0746 39.6443 52.2781 35.8012C52.079 34.9922 52.079 33.9808 52.079 32.9695C51.8799 30.2389 51.5812 26.3958 46.404 20.1255C44.6118 18.204 39.1359 15.2711 33.0626 15.2711C27.7858 15.2711 23.4051 17.2938 19.6217 21.4403C14.7432 26.6992 14.2454 32.565 14.4445 35.599C14.6436 40.6556 16.9335 45.9146 20.3186 49.0497C25.5954 53.7018 30.474 54.3086 32.8635 54.3086L35.4521 54.3086C40.1315 55.9268 41.5254 59.0619 41.0276 61.4891C40.7289 64.3208 38.0407 66.8492 34.9543 67.1526M33.2571 4.04533C24.8985 4.04533 17.0331 7.48387 11.5572 13.5519C6.18081 19.2153 3.39307 26.8003 3.59219 34.891C3.79132 42.7794 7.07687 50.2633 12.951 56.0279C18.2278 61.1857 25.4959 64.1186 32.7639 64.1186C33.4609 64.1186 34.2574 64.1186 35.1534 64.8265C37.1447 64.5231 38.8372 62.8038 39.0363 61.0846C39.335 59.3653 38.3394 57.3426 35.4521 56.4324L32.8635 56.3313C30.1753 56.3313 24.6994 55.6234 18.9248 50.5667C15.1414 47.027 12.6524 41.2624 12.4532 35.7001C12.2541 32.3627 12.8515 25.8901 18.2278 20.1255C22.3099 15.5745 27.3876 13.3496 33.0626 13.3496C39.9324 13.3496 45.9061 16.5859 47.8974 18.9119C53.4729 25.6879 53.8711 30.0366 54.0702 32.9695C54.0702 33.8797 54.0702 34.7899 54.2694 35.3967C54.8667 38.4307 56.9576 39.442 58.451 39.442C60.6414 39.442 62.9313 37.7228 62.9313 34.4865C62.9313 26.1935 59.5462 18.204 53.5724 12.4394C47.997 7.07934 40.6293 4.04533 33.2571 4.04533"/>
	<path fill="#5DDEE2" d="M33.3659 50.8701C29.1847 50.8701 25.1033 49.252 22.2163 46.5215C15.7457 40.0489 15.447 29.9355 21.7186 23.2607C24.705 19.9233 28.8862 18.1029 33.4456 18.1029C37.6465 18.1029 41.5289 19.7211 44.6149 22.7551C48.0991 26.0925 49.891 30.5423 49.7067 35.599C49.7067 36.4081 49.4928 37.2171 48.8955 37.824C48.0991 38.9364 46.5062 39.6443 44.9135 39.6443C43.1216 39.6443 41.4293 38.8353 40.6329 37.0148L40.6329 35.3968C40.8319 34.7899 40.4338 31.857 38.4427 30.0366C36.8501 28.4185 35.4564 27.8118 33.8635 27.8118C30.9767 27.8118 28.7866 30.0366 28.5875 30.2389C26.7956 32.1604 25.3023 35.7001 29.0853 40.2511C31.2752 42.1726 32.7686 42.1726 33.2663 42.1726C33.764 42.1726 34.0627 42.1726 34.3613 42.1726C34.8591 42.1726 34.9585 42.1726 35.1576 42.1726C39.0401 43.6897 39.4382 45.9146 39.1396 47.735C38.6418 49.5555 37.3477 51.477 35.6554 51.477C34.7595 50.8701 34.0627 50.8701 33.3659 50.8701"/>
	<path fill="#2D1B0A" d="M35.5628 52.4884C34.3678 51.8816 33.9695 51.8816 33.2724 51.8816C28.8907 51.8816 24.4094 50.1623 21.4218 47.2295C18.0359 43.892 16.1438 39.5433 16.0401 34.9923C16.0401 30.3402 17.6376 25.9914 20.9239 22.5529C24.1106 19.0132 28.4923 17.0917 33.372 17.0917C37.8533 17.0917 42.0358 18.811 45.2225 22.0472C48.9071 25.5869 50.7992 30.3402 50.6143 35.7002C50.6143 36.4082 50.5005 37.5206 49.5046 38.532C48.5088 39.8467 46.7163 40.6558 44.8242 40.6558C42.5337 40.6558 40.542 39.4422 39.6458 37.4195L38.9487 36.1048L39.6458 34.8912C39.6458 34.3855 39.347 32.1606 37.7537 30.6436C36.3595 29.2277 35.1645 28.6209 33.7703 28.6209C31.3803 28.6209 29.4882 30.5424 29.289 30.7447C27.6956 32.464 26.5006 35.3968 29.7869 39.341C31.0815 40.4535 32.1769 40.9592 33.1728 40.9592L35.762 40.9592C39.1479 42.5773 40.4425 44.9034 40.0441 47.634C39.4466 50.1623 37.8533 52.4884 35.5628 52.4884M33.5711 19.1144C29.1894 19.1144 25.4052 20.7325 22.5172 23.8676C16.6418 30.0368 16.8409 39.6444 22.9156 45.7124C25.5048 48.2408 29.3886 49.8589 33.372 49.8589C34.069 49.8589 34.8657 49.8589 35.8616 50.3646C36.8574 50.1623 37.7537 48.7465 38.152 47.4317C38.4508 45.5102 37.5545 44.0943 35.6624 43.2852L33.2724 43.1841C32.6749 43.1841 30.9819 43.1841 28.4923 40.9592C23.8118 35.3968 26.5006 31.1492 27.9944 29.5311C28.4923 29.0254 30.8823 26.8005 33.9695 26.8005C35.8616 26.8005 37.5545 27.6096 39.2474 29.3288C41.4383 31.2504 42.0358 34.4866 41.737 35.5991C42.235 37.7229 43.5296 38.532 45.1229 38.532C46.4175 38.532 47.6125 38.0263 48.3096 37.1161C48.8075 36.6104 48.9071 36.2059 48.9071 35.498C49.1063 30.6436 47.5129 26.5982 44.1271 23.362C41.2391 20.7325 37.5545 19.1144 33.5711 19.1144"/>
	<path fill="#B7B7B7" d="M68.4069 25.2832L66.2169 27.7104C61.4385 33.0705 52.28 43.4873 50.2891 45.4087C50.09 45.2066 42.4247 37.6215 40.2346 35.5989C40.4337 33.3739 39.7369 30.441 36.7504 28.7218C35.6554 28.115 34.3612 27.6093 33.2662 27.6093C29.5829 27.6093 26.4969 30.5422 26.2674 34.4864C26.0987 36.4079 26.8951 38.5317 28.1892 39.8465C29.4834 41.1611 31.1757 42.0714 32.9676 42.0714C33.4653 42.0714 34.0626 42.0714 34.5603 41.8691C38.2436 45.2066 43.9179 50.7688 43.9179 50.7688C43.9179 50.7688 34.1621 61.7924 28.4879 67.7592L26.2674 70.1864L29.3838 72.7148C31.5739 73.9285 32.7685 74.6364 35.4563 74.6364C42.6238 74.6364 49.194 68.5683 52.6782 66.1411C53.7733 65.332 55.0674 64.3207 55.5651 64.3207C55.7642 64.9276 55.7642 65.9389 55.7642 66.5457C55.7642 67.6581 55.9633 68.7706 56.3615 69.883L52.0809 69.883L50.1895 69.883L49.9904 71.8046L47.1035 102.347L42.3251 102.347L40.1351 102.347L40.1351 104.572L40.1351 110.539L40.1351 112.764L42.3251 112.764L86.3257 112.764L88.5158 112.764L88.5158 110.539L88.5158 104.572L88.5158 102.347L86.3257 102.347L81.2488 102.347L78.3618 71.8046L78.1627 69.883L76.2713 69.883L71.9907 69.883C72.4885 68.7706 72.588 67.6581 72.588 66.5457C72.588 61.6912 68.9047 57.8482 64.0268 57.8482C63.5291 57.8482 63.2304 57.8482 62.7327 58.0504C62.9318 57.3425 63.8277 56.0278 64.5245 54.9153C68.2079 49.5552 75.9727 39.3407 69.9997 27.5082L68.4069 25.2832"/>
	<path fill="#2D1B0A" d="M89.5113 113.977L39.1395 113.977L39.1395 101.538L46.2075 101.538L49.0944 70.0854C45.4111 72.7149 40.6328 75.6478 35.4562 75.6478C32.6689 75.6478 31.2752 74.8387 29.1847 73.7262L24.8045 70.2877L27.6914 67.0514C32.4698 61.9948 40.2346 53.3984 42.4246 50.7689C40.8319 49.2519 37.049 45.6111 34.1621 42.9817C33.6644 43.0828 33.2662 43.0828 32.868 43.0828C30.9765 43.0828 28.9855 42.1726 27.3928 40.5545C25.8 38.9363 25.0036 36.6103 25.2027 34.3853C25.4018 29.9355 28.7865 26.5981 33.1666 26.5981C34.7594 26.5981 36.3522 27.4071 37.1486 27.8117C39.8364 29.3287 41.2301 32.0593 41.1305 35.1944C43.1215 37.2171 48.1985 42.0715 50.0899 43.993C51.8818 42.0715 55.5651 37.8239 59.2484 33.7785C61.4385 31.2502 63.6286 28.823 65.2213 27.0026L68.3074 23.6652L70.6965 27.2049C76.6695 39.0375 69.5019 49.3531 65.6195 54.9154C64.9227 56.0279 64.624 56.5336 64.3254 56.9381C69.4024 57.1404 73.3843 61.388 73.3843 66.6469C73.3843 67.456 73.2848 68.265 73.0857 68.973L78.8595 68.973L81.846 101.538L89.2126 101.538L89.2126 113.977M41.1305 111.955L87.5203 111.955L87.5203 103.561L80.3528 103.561L77.3663 70.9956L70.4974 70.9956L71.0947 69.5798C71.4929 68.6696 71.692 67.6582 71.692 66.6469C71.692 62.2982 68.4069 58.9608 64.1263 58.9608C63.7281 58.9608 63.529 58.9608 63.2304 59.0619L61.8367 59.5676L61.8367 57.646C62.0358 57.1404 62.3344 56.6347 62.8322 55.8256C63.1308 55.32 63.4295 54.8143 63.7281 54.4098C68.1083 48.1395 74.5789 38.8352 69.2033 28.1151L68.3074 26.8003L66.9137 28.3173C65.3209 30.1377 63.1308 32.5649 60.9407 34.9921C56.6601 39.7454 52.28 44.7009 50.9859 46.0157L49.5922 46.0157C49.3931 45.8134 41.8274 38.4307 39.6373 36.2057C39.4382 33.8797 39.2391 31.1491 36.3522 29.4298C35.3567 28.823 34.1621 28.4185 33.3657 28.4185C30.0806 28.4185 27.4923 30.9468 27.3928 34.3853C27.1937 36.0035 27.8905 37.8239 28.9855 38.9363C30.1801 40.1499 31.6734 40.8579 33.0671 40.8579C33.3657 40.8579 33.963 40.8579 34.2616 40.7567L35.3567 40.959C39.04 44.2964 44.7143 49.7576 44.7143 49.8587L44.8138 51.2746C44.7143 51.3757 34.9585 62.3993 29.3838 68.265L27.8905 69.8832L30.1801 71.7036C32.1711 72.816 33.2662 73.4228 35.5558 73.4228C41.2301 73.4228 46.6057 69.3775 50.1895 66.6469C50.9859 66.0401 51.5831 65.5344 52.1804 65.1299C54.3705 63.5118 55.0674 63.2084 55.5651 63.2084L57.2574 63.2084L56.8592 64.5231C56.7597 65.0288 56.7597 65.939 56.7597 66.4446C56.7597 67.5571 56.9588 68.4673 57.357 69.3775L57.9543 70.7934L50.9859 70.7934L47.9994 103.358L41.1305 103.358L41.1305 111.955M50.5877 68.8213L54.9678 68.8213C54.7687 68.1639 54.6692 67.3548 54.6692 66.5458C54.6692 66.3435 54.6692 66.0401 54.6692 65.8378C54.3705 66.0401 53.8728 66.4446 53.2755 66.8492C52.6782 67.2537 51.9813 67.7594 51.2845 68.3662C51.0854 68.5684 50.8863 68.8213 50.5877 68.8213"/>
</svg>
