<?xml version="1.0" encoding="utf-8" ?>
<svg xmlns="http://www.w3.org/2000/svg" xmlns:xlink="http://www.w3.org/1999/xlink" width="102" height="84">
	<path fill="white" d="M81.1754 0.597056L79.4569 -0.0001L78.2438 0.895635L73.1893 4.87668L70.3588 7.2653L73.6947 8.95725C84.2081 14.1326 90.9812 24.7819 90.9812 36.6255C90.9812 48.6681 84.0059 59.3174 72.9871 64.2937C82.3885 56.6302 87.2408 47.1753 87.2408 37.0236C87.2408 26.6729 81.9841 16.7203 72.886 10.052L71.3697 8.75819L69.9544 9.95251L65.4053 13.5354L62.777 15.4264L65.4053 17.3174C72.3806 22.2937 76.4242 29.3601 76.4242 37.1231C76.4242 44.6871 72.5827 51.5544 65.9108 56.5307L63.0803 58.6208L65.9108 60.5117L70.9653 63.7961L72.2795 64.5923L68.9435 66.1847L72.7849 68.5734L78.7492 72.1563L79.9623 72.853L81.1754 72.1563C94.115 64.7914 102 51.3554 102 36.526C102 21.5971 94.115 7.96199 81.1754 0.597056"/>
	<path fill="white" d="M72.1784 37.5212C72.1784 30.4548 68.8424 23.3885 62.5748 18.1136L60.553 16.5212L58.8345 18.4122L55.4985 22.3932L54.2854 24.0852L55.7007 25.4785C59.0366 29.0615 60.9574 33.2416 60.9574 37.3221C60.9574 40.9051 59.7443 44.3885 57.3181 47.4738L56.4083 48.8672L57.3181 50.2605L60.4519 54.9383L62.1704 57.5259L64.2933 55.4359C69.3478 50.2605 72.1784 43.8909 72.1784 37.5212"/>
	<path fill="#2D1B0A" d="M79.76 2.7867C91.4865 9.35542 99.4726 22.1943 99.4726 36.526C99.4726 50.9573 91.5876 63.4976 79.76 70.0663L73.7957 66.4834C85.32 61.308 93.205 49.9621 93.205 36.7251C93.205 23.6872 85.5222 12.4407 74.7055 6.96679L79.76 2.7867"/>
	<path fill="#2D1B0A" d="M72.0772 61.3578L67.0227 58.0734C74.2001 52.898 78.5469 45.3341 78.5469 36.7748C78.5469 28.3151 73.9979 20.2535 66.5172 15.0781L71.0663 11.4952C79.4567 17.3672 84.5175 26.6232 84.5175 36.5758C84.7134 46.4288 79.9622 54.9881 72.0772 61.3578"/>
	<path fill="#2D1B0A" d="M59.3399 49.1658C61.9682 45.5828 63.3835 41.8009 63.3835 37.6208C63.3835 32.6445 61.2606 27.9668 57.4192 24.1848L60.7551 20.2037C66.3151 24.8815 69.3477 31.052 69.3477 37.9193C69.3477 43.7915 66.7195 49.4644 62.1704 54.2416L59.3399 49.1658"/>
	<path fill="white" d="M48.4222 80.3175L20.218 62.6019L0 62.6019L0 24.5829L21.1278 24.5829L48.5233 5.87204L54.2854 1.891L54.2854 84"/>
	<path fill="#3BA7FF" d="M22.442 27.9667L3.2349 27.9667L3.2349 59.417L21.229 59.7156L50.9495 77.3317L50.9495 8.3601"/>
	<path fill="#2D1B0A" d="M51.9604 79.1232L20.9257 60.6113L2.224 60.4123L2.224 26.872L22.0377 26.872L51.9604 6.3696L51.9604 79.1232M4.2458 58.4217L21.5322 58.6208L49.9386 75.5402L49.9386 10.2511L22.6442 28.8625L4.2458 28.8625L4.2458 58.4217"/>
</svg>
