<?xml version="1.0" encoding="utf-8" ?>
<svg xmlns="http://www.w3.org/2000/svg" xmlns:xlink="http://www.w3.org/1999/xlink" width="90" height="120">
	<path fill="white" d="M41.6184 72.1207L35.8086 72.1207L35.8086 58.6421L44.8238 58.6421L44.8238 53.6127L24.4896 60L23.0872 56.7309L16.5762 58.6421C17.1772 61.1567 16.3759 63.9732 13.6713 65.1802C13.0703 65.482 12.4693 65.5826 11.9684 65.5826C8.5627 65.5826 6.96 62.062 6.65949 61.1567L0.449019 46.7728C0.248682 46.1693 -0.4525 44.057 0.449019 42.0453C0.949864 40.9388 1.85138 40.0335 3.05341 39.6312C3.75459 39.3294 4.45577 39.1282 5.25713 39.1282C7.46084 39.1282 9.06354 40.5365 9.86489 42.1459L15.7749 38.6253L13.9718 34.3001L61.0512 8.75105C60.8509 7.54401 60.7507 5.93462 61.3517 4.42582C61.9527 2.71584 63.2549 1.40821 65.0579 0.704107C66.0596 0.30176 67.0613 0 68.1632 0C71.9696 0 74.3737 3.21878 75.175 5.02934L77.6792 11.0645C78.4806 10.964 79.2819 10.8634 80.0833 10.8634C85.4924 10.8634 90 16.6974 90 23.6379C90 26.5549 88.5976 29.1702 86.0934 31.1819L87.2954 34.0989C88.8981 38.1224 88.5976 43.4535 84.09 45.6664C83.1885 46.0687 82.287 46.2699 81.4856 46.2699C80.0833 46.2699 78.1801 45.767 76.377 43.7552L55.4417 50.2934L55.4417 58.6421L65.4586 58.6421L65.4586 72.1207L60.0495 72.1207L77.4789 119.095L66.5605 119.095L55.4417 89.2205L55.4417 119.095L45 119.095L45 92.8416L35.0073 118.391L22.987 120L41.6184 72.1207"/>
	<path fill="#CAD2CF" d="M21.5847 38.4241L6.1587 47.477L10.1655 57.2338L27.2943 52.2045L21.5847 38.4241"/>
	<path fill="#2D1B0A" d="M9.56444 58.4409L4.8565 47.0746L21.9854 37.0159L28.5965 52.9086L9.56444 58.4409M7.36072 47.8793L10.6663 56.0268L25.892 51.601L21.0839 39.9329L7.36072 47.8793"/>
	<path fill="#3BA7FF" d="M47.7287 43.1516L52.2363 43.1516L52.2363 115.976L47.7287 115.976L47.7287 43.1516"/>
	<path fill="#2D1B0A" d="M53.238 116.982L46.727 116.982L46.727 42.1458L53.238 42.1458L53.238 116.982M48.7304 114.971L51.2346 114.971L51.2346 44.1575L48.7304 44.1575L48.7304 114.971"/>
	<path fill="#CAD2CF" d="M17.628 35.5071L26.1423 56.228L77.7293 40.0335L65.1081 9.7569L17.628 35.5071"/>
	<path fill="#2D1B0A" d="M25.4913 57.435L16.2758 35.0042L65.5589 8.2481L79.0817 40.5364L25.4913 57.435M18.78 35.9095L26.5932 54.9204L76.277 39.3294L64.5572 11.0645L18.78 35.9095"/>
	<path fill="#CAD2CF" d="M73.6725 14.9874L79.883 30.9806C79.883 30.9806 86.7946 28.8684 86.7946 23.5373C86.7946 18.2062 83.4891 13.7803 79.883 13.7803C76.4772 13.7803 73.6725 14.9874 73.6725 14.9874"/>
	<path fill="#2D1B0A" d="M79.282 32.1877L72.3703 14.3839C73.372 13.8809 76.2769 12.6739 79.883 12.6739C84.1902 12.6739 87.7963 17.6026 87.7963 23.4367C87.7963 29.4719 80.484 31.7854 80.1835 31.886M74.9747 15.5909L80.484 29.6731C82.1869 28.969 85.7929 26.9572 85.7929 23.5373C85.7929 18.9103 82.9882 14.7862 79.883 14.7862C77.7794 14.7862 75.9764 15.1886 74.9747 15.5909"/>
	<path fill="white" d="M72.2665 6.17073C72.2665 6.17073 70.1629 1.44315 66.056 3.3543C62.0493 5.06427 64.3531 9.99303 64.3531 9.99303L76.2732 38.1573C76.2732 38.1573 78.6773 44.5949 82.684 42.8849C86.6908 40.9737 84.3869 35.2403 84.3869 35.2403L72.2665 6.17073"/>
	<path fill="#2D1B0A" d="M81.2855 44.1576C80.6844 44.1576 80.1836 44.057 79.6828 43.856C76.878 42.6496 75.3755 38.7291 75.3755 38.528L63.4554 10.3802C63.4554 10.2797 62.1532 7.46488 63.0547 5.05221C63.5556 3.84588 64.3569 2.94112 65.6591 2.43848C66.9613 1.9156 68.3637 1.73479 69.5657 2.23743C71.9697 3.14218 73.0716 5.65538 73.1718 5.75591L85.2922 34.8085C86.1937 37.1206 86.8949 41.9459 83.0885 43.7555C82.4875 43.9565 81.8865 44.1576 81.2855 44.1576M67.963 3.84588C67.4622 3.84588 66.9613 3.9464 66.4605 4.24799C65.6591 4.54957 65.1583 5.05221 64.8578 5.75591C64.2568 7.36435 65.1583 9.47544 65.2584 9.57597L77.1785 37.7238C77.5792 38.7291 78.7812 41.2423 80.4841 41.9459C81.0851 42.2475 81.6861 42.147 82.2871 41.9459C85.3924 40.438 83.4892 35.6127 83.4892 35.6127L71.3687 6.56013C71.2686 6.4596 70.4672 4.6501 68.8645 4.04693C68.564 3.9464 68.2635 3.84588 67.963 3.84588"/>
	<path fill="#3BA7FF" d="M46.1261 68.4995L27.3945 116.278L32.6032 115.574L50.9342 68.4995L46.1261 68.4995"/>
	<path fill="#2D1B0A" d="M25.7917 117.485L45.4248 67.4937L52.3365 67.4937L33.3044 116.479L25.7917 117.485M46.8272 69.5054L28.9971 115.071L31.902 114.669L49.5317 69.5054L46.8272 69.5054"/>
	<path fill="#3BA7FF" d="M50.6337 68.1979L68.4638 115.977L72.9714 115.977L54.6404 66.5885L50.6337 68.1979"/>
	<path fill="#2D1B0A" d="M74.3736 116.982L67.7625 116.982L49.3314 67.5943L55.2414 65.2808L74.3736 116.982M69.1648 114.971L71.5689 114.971L54.1395 67.8961L52.036 68.8013L69.1648 114.971"/>
	<path fill="#3BA7FF" d="M38.7135 61.5591L62.2532 61.5591L62.2532 69.0025L38.7135 69.0025L38.7135 61.5591"/>
	<path fill="#2D1B0A" d="M63.2549 70.0084L37.7118 70.0084L37.7118 60.5532L63.2549 60.5532L63.2549 70.0084M39.7152 67.9966L61.2515 67.9966L61.2515 62.565L39.7152 62.565L39.7152 67.9966"/>
	<path fill="white" d="M7.06016 43.6658C7.06016 43.6658 6.15864 41.2518 3.95493 42.2576C2.05172 42.9617 3.05341 45.577 3.05341 45.577L9.26388 59.8603C9.26388 59.8603 10.4659 62.9785 12.3691 62.2744C14.4727 61.3691 13.2707 58.4521 13.2707 58.4521L7.06016 43.6658"/>
	<path fill="#2D1B0A" d="M11.7681 63.3697C9.96506 63.3697 8.76304 61.4581 8.26219 60.2508L2.05172 45.9644C1.95155 45.7632 1.35054 44.0528 1.95155 42.7449C2.25206 42.0407 2.7529 41.6382 3.45409 41.3364C4.45577 40.8334 5.35729 41.0207 5.95831 41.2358C7.2605 41.7389 7.76135 43.0468 7.86152 43.3486L14.072 58.1381C14.5728 59.446 15.0737 62.263 12.6696 63.2691C12.3691 63.2691 12.0686 63.3697 11.7681 63.3697M4.95662 42.9462C4.85645 42.9462 4.55594 42.9462 4.35561 43.1474C4.0551 43.248 3.95493 43.4492 3.85476 43.5498C3.65442 44.0528 3.85476 44.8577 3.95493 45.1595L10.1654 59.446C10.3657 59.949 11.1671 61.6594 11.9684 61.3575C13.0703 60.8545 12.2689 58.8423 12.2689 58.8423L6.05848 44.0528C5.95831 43.8516 5.6578 43.248 5.25713 43.1474C5.25713 43.0468 5.15696 42.9462 4.95662 42.9462"/>
</svg>
