<?xml version="1.0" encoding="utf-8" ?>
<svg xmlns="http://www.w3.org/2000/svg" xmlns:xlink="http://www.w3.org/1999/xlink" width="86" height="100">
	<path fill="white" d="M29.2282 99.8993L28.8254 97.8852C27.5164 92.5478 24.7977 84.0886 22.7838 81.8731C19.3602 79.859 12.6137 78.2477 11.2039 77.9456C8.78727 77.5428 6.97478 76.5358 5.96783 75.0252C5.16228 73.8167 4.35672 71.8026 5.26297 68.7815C5.66575 68.0765 5.76644 67.8751 5.86714 67.7744L7.17616 66.4653L5.56505 65.0554C4.55811 64.149 4.05464 63.2427 4.05464 62.3364C4.05464 61.9335 4.05464 61.43 4.25603 60.9265L4.15533 59.6173C4.05464 59.3152 3.95394 58.8117 3.95394 58.4089C3.95394 57.8046 3.95394 57.5025 4.05464 57.0997L4.6588 55.3877L3.0477 54.6828C2.24214 54.3807 1.2352 53.6757 0.631031 52.6687C0 51.7623 -0.577301 49.8489 1.03381 47.0292C1.33589 46.7271 1.43659 46.6264 1.63797 46.425C4.05464 43.8066 6.4713 41.0876 9.08936 38.57C11.7074 36.4552 12.4123 34.6425 11.9088 32.6284C11.8081 31.7221 12.6137 9.76838 31.8463 3.22256C37.9886 1.10775 43.8289 0 49.4678 0C60.2421 0 74.9435 4.0282 84.1066 23.4642C86.8254 30.9164 88.2351 46.6264 75.749 56.6969C70.815 63.2427 68.0962 69.3857 67.3914 74.8238C66.3844 82.1752 69.6067 91.138 71.6205 95.8711L73.5337 100L29.2282 100"/>
	<path fill="#B7B7B7" d="M14.1322 32.1248C14.1322 32.1248 15.0382 11.581 32.4565 5.63943C47.861 0.20136 69.6084 -0.50358 81.5897 24.572C81.5897 24.572 88.3355 43.5045 73.4344 54.9848C73.4344 54.9848 65.9838 64.0483 64.5743 74.4209C63.1647 84.6928 69.3064 97.2809 69.3064 97.2809L31.651 97.2809C31.651 97.2809 27.8251 81.3695 23.8983 79.2547C20.0725 77.442 11.7157 75.4279 11.7157 75.4279C11.7157 75.4279 6.27883 74.9244 7.88976 69.5871C7.88976 69.5871 10.4068 65.7603 8.39317 63.7462C8.39317 63.7462 4.96995 62.3363 7.88976 60.725C7.88976 60.725 5.37268 58.6102 7.18498 56.6968C7.18498 56.6968 9.70205 54.8841 7.18498 52.87C7.18498 52.87 0.43921 53.0714 3.15766 48.1369C3.15766 48.1369 6.17815 44.7129 10.6082 40.1812C10.7089 40.584 15.3404 37.5629 14.1322 32.1248"/>
	<path fill="#2D1B0A" d="M69.2058 98.3886L30.8455 98.3886C29.2346 91.6414 26.0127 81.5709 23.395 80.161C19.9718 78.4491 12.3198 76.6364 11.5144 76.435C11.011 76.3343 8.69526 76.0321 7.38638 74.1188C6.48023 72.8096 6.37955 71.1983 6.98365 69.2849C7.08433 68.9828 8.99731 65.9617 7.78911 64.5518C7.18501 64.2497 5.77545 63.444 5.67477 62.2356C5.67477 61.6313 5.87613 61.1278 6.37955 60.6243C5.97682 60.1208 5.57408 59.3151 5.57408 58.5095C5.4734 57.6031 5.87613 56.7975 6.48023 56.0926C6.78228 55.8912 7.2857 55.3876 7.2857 54.8841C7.2857 54.582 7.08433 54.2799 6.78228 54.0785C5.67477 54.0785 2.95632 53.7764 1.84881 52.0644C1.14403 50.9566 1.24471 49.5467 2.25154 47.9355C2.35223 47.7341 5.37272 44.2094 9.90345 39.7784L11.6151 38.0664C12.6219 37.16 13.6287 35.1459 13.0246 32.5276C13.0246 32.1248 14.1321 10.9768 31.953 4.93446C42.5248 1.20838 68.6017 -4.33039 82.2946 24.4712C82.3953 24.7733 89.141 44.3101 73.9379 55.9919C73.2331 56.8982 66.588 65.4581 65.3798 74.8237C64.0709 84.5921 69.9106 96.9788 70.0112 97.1802L70.716 98.5901L69.2058 98.3886M32.4565 96.3745L67.6955 96.3745C66.0846 92.7492 62.3593 82.8801 63.5675 74.3202C64.9771 63.8468 72.327 54.7834 72.629 54.3806C86.7246 43.6052 80.9857 25.9818 80.6836 24.9747C68.0983 -1.20854 45.3439 2.21543 32.8592 6.54574C16.9513 11.8831 15.3403 30.3121 15.2397 32.0241C16.2465 37.0593 12.7226 40.0805 12.0178 40.6847C11.8164 40.8861 11.5144 41.0875 11.313 41.1882C7.38638 45.1157 4.56725 48.2376 4.16452 48.8418C3.76179 49.446 3.45974 50.3524 3.86247 50.8559C4.36589 51.7623 6.48023 51.9637 7.38638 51.9637C9.40004 53.1721 9.60141 54.1792 9.60141 54.8841C9.60141 56.294 8.49389 57.301 8.19184 57.5024C7.88979 57.9053 7.78911 58.2074 7.88979 58.4088C7.88979 59.1137 8.69526 59.9194 8.89662 60.0201L10.1048 60.9264L8.79594 61.6313C8.39321 61.8327 8.19184 62.0342 8.09116 62.1349C8.19184 62.3363 8.69526 62.6384 9.09799 62.8398C11.8164 65.4581 9.60141 69.2849 9.19867 69.9898C8.79594 71.299 8.89662 72.3061 9.40004 73.011C10.2055 74.2195 12.1185 74.4209 12.1185 74.4209C12.5212 74.5216 20.7772 76.435 24.6032 78.2477C28.2278 80.5639 31.5503 92.8499 32.4565 96.3745"/>
	<path fill="#FF6F64" d="M38.2961 34.441C35.0742 35.3474 34.2688 33.9375 31.5503 34.6424C28.5298 35.3474 26.1135 35.7503 23.7977 33.5348C21.6834 31.017 21.6834 23.9678 24.5025 19.5368C27.523 15.005 29.6374 12.7895 31.5503 11.3796C33.6647 9.96975 35.779 9.96975 36.9872 9.26481C37.4906 9.0634 38.7995 8.15706 41.518 8.15706C44.2364 8.35847 44.5385 7.95565 46.4514 7.95565C48.2637 7.95565 51.5863 7.95565 53.4992 8.66059C55.1102 9.36552 57.7279 9.36552 61.4532 11.6817C65.4805 13.998 65.9839 13.0916 68.501 15.7099C71.0181 18.2276 71.9242 18.0261 73.4345 21.1479C74.8441 24.1691 76.6564 25.8812 76.6564 27.6938C76.6564 29.5065 78.0659 32.4269 78.0659 34.9445C78.0659 37.6637 77.3611 41.289 75.5488 42.6988C73.9379 44.1087 72.1256 42.4975 69.4072 42.4975C67.0915 42.2961 63.5676 43.9073 61.4532 43.4038C59.6409 42.6988 58.2314 43.2024 56.3184 44.1087C54.5061 45.015 53.5999 43.4038 51.5863 44.6123C49.4719 46.0222 48.5658 43.9073 45.948 45.3172C43.6323 46.4249 38.9002 44.2094 37.7927 42.2961C36.2824 39.8792 35.8797 36.5559 38.2961 34.441M8.5946 61.6314C8.5946 61.8328 19.0656 55.7905 27.3216 59.8186C32.7585 62.3363 32.2551 86.304 38.7995 96.9789C34.7722 86.7069 34.0674 61.6314 29.2346 58.4089C21.482 53.4743 8.89665 59.5166 8.89665 59.5166C8.89665 59.5166 9.60143 60.9264 8.5946 61.6314"/>
	<path fill="#2D1B0A" d="M37.994 97.4824C34.6714 92.0444 33.1612 83.4845 31.7516 75.9316C30.5434 68.9829 29.2345 61.8329 26.9188 60.7251C22.4888 58.6103 16.6492 59.1139 9.60134 62.3364C8.89656 62.6385 8.49383 62.8399 7.99042 62.5378L7.487 61.128C8.0911 60.6244 7.99042 60.0202 7.88973 59.9195L8.39315 58.6103C8.89656 58.3082 21.6833 52.3666 29.738 57.5026C32.8591 59.6174 34.2687 68.278 35.7789 78.3485C36.8865 85.1964 37.994 92.2458 39.6049 96.5761L37.994 97.4824M23.1936 57.5026C24.9052 57.704 26.4154 58.2075 27.9257 58.9125C29.1339 59.5167 30.04 60.8258 30.8455 62.6385C30.2414 60.9266 29.6373 59.7181 28.9325 59.3153C27.1202 58.2075 25.1065 57.704 23.1936 57.5026M44.2363 46.3243C41.4172 46.3243 37.8933 44.4109 36.6851 42.5983C35.4769 40.6849 34.9735 37.9658 35.9803 35.851C35.3762 35.851 34.8728 35.7503 34.3694 35.6496C33.5639 35.5489 32.8591 35.4482 31.7516 35.6496C28.8318 36.3546 25.912 36.9588 23.0929 34.2397C20.4751 31.1179 20.7772 23.565 23.5963 18.9326C26.3147 14.8037 28.6304 12.1854 30.8455 10.4734C32.255 9.56704 33.6646 9.16422 34.7721 8.8621C35.4769 8.66069 35.9803 8.55999 36.383 8.35858C37.1885 7.85505 38.7994 7.04942 41.4172 7.04942C43.0281 7.15012 43.7329 7.04942 44.4377 6.94871C44.9411 6.7473 45.5452 6.7473 46.3507 6.7473C48.3643 6.7473 51.6869 6.7473 53.7005 7.45224C54.2039 7.65364 54.7074 7.75435 55.4121 7.95576C57.0231 8.35858 59.1374 8.8621 61.8559 10.5741C63.3661 11.4804 64.3729 11.7826 65.1784 12.1854C66.4873 12.6889 67.3934 13.0917 69.105 14.8037C69.9105 15.6093 70.5146 16.1129 71.1187 16.6164C72.3269 17.5227 73.1324 18.2277 74.2399 20.5439C74.7433 21.6516 75.3474 22.6587 75.8508 23.4643C76.7569 24.8742 77.4617 26.0826 77.4617 27.4925C77.4617 28.1975 77.7638 29.2045 78.0658 30.3123C78.4686 31.7221 78.8713 33.2327 78.8713 34.7433C78.8713 37.7644 78.0658 41.5912 75.9515 43.3032C74.6426 44.4109 73.0317 44.0081 71.7228 43.706C70.9173 43.5046 70.1119 43.3032 69.3064 43.3032C68.2996 43.2025 66.9907 43.5046 65.6818 43.8067C64.0709 44.1088 62.46 44.5117 61.1511 44.2095C59.6408 43.706 58.5333 44.0081 56.6203 44.9145C55.4121 45.5187 54.506 45.3173 53.8012 45.1159C53.0964 45.0152 52.6937 44.9145 51.9889 45.3173C50.68 46.2236 49.5725 45.9215 48.6664 45.8208C47.8609 45.6194 47.2568 45.5187 46.25 46.0222C45.6459 46.2236 45.0418 46.3243 44.2363 46.3243M42.424 32.2256L38.9001 35.2468C36.8865 36.9588 37.2892 39.6778 38.3967 41.4905C39.3028 43.0011 43.5315 45.0152 45.2431 44.1088C46.8541 43.2025 48.0623 43.5046 48.9684 43.706C49.6732 43.9074 50.0759 43.9074 50.7807 43.5046C52.1903 42.699 53.2978 42.9004 54.0026 43.1018C54.6067 43.2025 55.0094 43.3032 55.6135 43.0011C57.5265 42.0947 59.2381 41.3898 61.5538 42.1954C62.46 42.3968 63.8695 42.0947 65.1784 41.7926C66.588 41.4905 68.0982 41.1884 69.3064 41.2891C70.3132 41.2891 71.3201 41.5912 72.2262 41.7926C73.5351 42.1954 74.1392 42.1954 74.6426 41.7926C76.1528 40.6849 76.8576 37.4623 76.8576 34.844C76.8576 33.6355 76.4549 32.2256 76.1528 30.9165C75.8508 29.708 75.5488 28.6003 75.5488 27.5932C75.5488 26.7876 74.9447 25.7805 74.2399 24.5721C73.6358 23.6657 73.0317 22.6587 72.4276 21.4502C71.5214 19.6375 70.9173 19.134 69.9105 18.2277C69.3064 17.7241 68.6016 17.2206 67.6955 16.3143C66.2859 14.9044 65.6818 14.6023 64.4736 14.1995C63.5675 13.8974 62.5606 13.3938 60.849 12.4875C58.4326 10.9769 56.5197 10.4734 55.0094 10.1713C54.3046 9.96986 53.5998 9.86915 52.9957 9.56704C51.3848 8.96281 48.163 8.96281 46.3507 8.96281C45.6459 8.96281 45.1425 9.06351 44.7397 9.06351C43.9343 9.16422 43.1791 9.26492 41.3165 9.16422C39.3028 9.16422 38.0947 9.76845 37.5912 10.0706C36.8865 10.4734 36.1817 10.6748 35.3762 10.8762C34.3694 11.1783 33.1612 11.4804 32.1544 12.1854C30.1407 13.6959 28.0263 16.2136 25.4086 20.0404C22.8915 24.1693 22.8915 30.7151 24.7038 32.8299C26.5161 34.6426 28.4291 34.3405 31.4496 33.6355C32.9598 33.2327 33.9666 33.4341 34.8728 33.5348C35.8796 33.6355 36.6851 33.8369 38.1953 33.4341L42.424 32.2256"/>
</svg>
