<?xml version="1.0" encoding="utf-8" ?>
<svg xmlns="http://www.w3.org/2000/svg" xmlns:xlink="http://www.w3.org/1999/xlink" width="96" height="96">
	<path fill="white" d="M20.1999 96C18.7938 96 17.4882 95.3969 16.6848 94.2911C15.58 92.9843 15.7809 91.0743 16.0822 89.667L16.3835 88.5613L7.04337 79.5141L5.8382 79.9162C5.23561 80.1173 4.63302 80.2178 3.93001 80.2178C2.92569 80.2178 1.62009 79.9162 0.816639 78.7099C-0.388535 77.001 0 74.7895 0.314483 74.0859C5.03475 67.1497 12.8684 63.3298 24.0162 61.822L25.7236 61.6209L25.7236 59.912C25.7236 59.3089 25.824 58.6052 25.9244 57.9016C25.9244 55.8911 25.7236 44.6325 34.1598 35.5853C40.2861 29.1518 49.124 25.6335 60.4728 25.2314L62.1801 25.1309L62.381 23.422C63.8874 8.14241 72.2232 1.60838 72.8258 1.10576C74.2318 0.201047 75.2361 0 76.14 0C77.3452 0 78.3495 0.502618 79.0525 1.20628C80.3581 2.71414 80.2577 4.82513 80.2577 5.32775L89.6982 15.7822L91.506 15.7822C92.6107 15.7822 94.0168 16.0838 95.0211 17.3906C95.6237 18.1948 96.4271 19.7026 95.7241 22.5173C95.2219 23.5225 89.9995 31.2628 72.7254 33.7759L71.1185 33.977L71.018 35.5853C70.1142 48.3518 64.9922 56.7958 64.8917 56.8963C57.259 68.2555 42.1943 70.0649 36.068 70.3665L34.3607 70.467L34.1598 72.1759C33.2559 79.112 30.6447 88.6618 23.7149 94.9948C22.9115 95.4974 22.9115 95.4974 22.8111 95.5979C22.108 95.6984 21.2042 96 20.1999 96"/>
	<path fill="#5DDEE2" d="M90.1323 18.6401C89.831 18.9417 89.5297 19.3438 89.2285 19.5448C89.2285 19.3438 89.2285 19.0422 89.2285 19.0422L76.4744 6.2757C76.7757 5.97413 77.1774 5.57203 77.6795 5.27046C77.6795 5.27046 78.1816 1.149 74.6667 3.15947C74.6667 3.15947 65.2267 10.0956 64.9254 27.5867C64.7246 27.5867 64.4233 27.7877 64.4233 27.7877C26.864 27.0841 28.7721 57.2411 28.7721 57.2411C28.5713 59.5532 28.5713 61.7647 28.27 63.8757C21.6419 64.3783 8.98823 66.1877 3.06311 74.5312C3.06311 74.5312 1.858 78.15 5.3729 76.8432C5.3729 76.8432 5.87503 76.1396 6.97972 75.2349L20.3364 88.2024C19.4325 89.1071 18.83 89.5092 18.83 89.5092C17.424 94.3343 21.6419 92.5249 21.6419 92.5249C29.2742 85.5888 31.0819 73.727 31.584 67.5951C32.4879 67.5951 33.4921 67.5951 34.396 67.394C34.396 67.394 53.6777 67.8966 62.2139 55.2307C62.2139 55.2307 68.139 45.4799 68.139 31.2055C87.2199 29.5972 92.8438 21.4548 92.8438 21.4548C94.2498 17.2328 90.1323 18.6401 90.1323 18.6401M26.5628 74.9333L21.0393 69.505C23.0478 69.0024 25.2572 68.7008 27.6674 68.2987C27.3662 70.9123 27.0649 73.0233 26.5628 74.9333M10.9967 73.0233C12.3023 72.3197 13.9091 71.7165 15.9176 71.0129L25.0564 80.261C24.3534 82.171 23.6504 83.6788 22.9474 84.7846L10.9967 73.0233M73.6625 9.99507L86.0148 21.9574C84.5085 22.8621 82.9016 23.5657 81.1944 24.2694L71.4531 14.5186C72.1561 12.9103 72.8591 11.4024 73.6625 9.99507M63.0173 31.8087C63.5195 31.8087 64.2224 31.8087 64.6241 31.8087C64.6241 32.6129 64.5237 33.4171 64.5237 34.2212L61.5109 31.8087C62.5152 31.8087 63.0173 31.8087 63.0173 31.8087M64.122 39.549C63.9212 41.4589 63.419 43.2684 62.9169 45.0778L51.0667 33.4171C52.9747 32.8139 54.7824 32.5123 56.4896 32.2108L64.122 39.549M38.5134 40.9563L55.0837 57.5427C54.0794 58.3469 52.8743 59.1511 51.4684 59.8548L36.0028 44.3741C36.7058 43.1678 37.5092 41.9616 38.5134 40.9563M31.8853 63.9762C31.8853 62.971 31.8853 61.8652 31.9857 60.86L34.9985 63.8757C33.9943 63.8757 32.8896 63.9762 31.8853 63.9762M40.7228 63.172L32.8896 55.3312C33.3917 53.0192 33.7934 51.0087 34.2955 49.4003L47.0496 61.9657C45.8445 62.2673 44.7398 62.6694 43.4343 62.8705C43.4343 62.6694 42.2292 62.971 40.7228 63.172M58.4982 54.1249L41.9279 37.7396C43.3339 36.7343 44.8403 35.8296 46.3466 35.0254L61.1092 49.8024C60.3058 51.3103 59.5024 52.8181 58.4982 54.1249M69.9467 19.6453L76.2735 25.9783C73.4616 26.682 70.6497 27.2851 68.5407 27.4862C68.7416 25.3752 69.2437 22.5605 69.9467 19.6453"/>
	<path fill="#2D1B0A" d="M20.1634 94.1333C19.5606 94.1333 18.8574 94.0327 18.3551 93.5301C17.4509 92.7259 17.3505 91.4191 17.8528 89.5092C18.2546 88.906 18.4556 88.8055 18.8574 88.5039L6.90253 76.9437C6.40023 77.4464 6.09884 77.7479 6.09884 77.7479C4.19008 78.6526 3.08501 78.5521 2.38178 77.949C1.27671 76.8432 1.6904 74.9333 1.97994 74.6317C7.70622 66.5898 18.6565 64.0767 27.1957 63.3731C27.2961 62.5689 27.2961 61.7647 27.3966 60.9605C27.4971 59.8547 27.4971 58.749 27.5975 57.6432C27.4971 56.4369 27.1957 45.3793 35.4335 36.8348C41.7625 30.3008 51.2059 26.9835 63.7635 27.1846C64.2658 9.89452 73.5082 2.9584 73.9101 2.65683C75.417 1.75212 76.5221 1.65159 77.4262 2.25473C78.8327 3.15945 78.6318 5.27044 78.6318 5.67253C78.2299 6.47672 78.1294 6.57725 78.029 6.67777L89.582 18.238C90.1848 17.8359 92.2945 17.1322 93.6005 18.3385C94.4041 19.1427 94.5046 20.4495 94.0023 22.1584C93.7009 22.7615 87.9746 30.7029 69.3893 32.5123C69.1884 46.3846 63.5626 55.7333 63.2612 56.1354C54.8225 68.7008 36.5386 68.8013 34.6298 68.8013C33.9266 69.0024 33.3238 69.0024 32.6206 69.0024C32.0178 75.7375 29.8077 86.8956 22.474 93.6306C21.8712 93.7312 21.0675 94.1333 20.1634 94.1333M19.7616 90.3134C19.4602 91.4191 19.6611 91.8212 19.7616 91.9217C19.9625 92.1228 20.6657 92.0223 21.168 91.8212C28.3007 85.1867 30.2095 73.928 30.6113 67.6956L31.616 66.7909C32.5201 66.7909 33.3238 66.7909 34.2279 66.5898C34.6298 66.5898 53.3156 66.8914 61.4529 54.8286C61.4529 54.728 67.2796 45.1783 67.2796 31.4066L68.1838 30.4013C85.2622 28.8935 91.2898 22.1584 91.9931 21.2537C92.2945 20.2485 92.194 19.7458 92.0935 19.6453C91.8926 19.4443 91.2898 19.4443 90.7875 19.6453C90.7875 19.6453 90.6871 19.7458 90.6871 19.7458C90.4862 19.9469 90.1848 20.2485 89.8834 20.4495L88.276 21.4547L88.276 19.5448L75.1156 6.3762C76.1202 5.37096 76.4216 5.06939 76.723 4.86835C76.723 4.36573 76.6225 3.86311 76.4216 3.76259C76.3211 3.76259 76.0198 3.66206 75.2161 4.16468C74.6133 4.6673 66.1746 11.6034 65.9737 27.7877L65.9737 28.793L64.969 28.994C52.3109 28.793 43.169 31.8087 37.2418 38.0411C29.4058 46.2841 29.9081 57.3416 29.9081 57.4422C29.8077 58.749 29.7072 59.8547 29.7072 60.9605C29.6067 62.1668 29.6067 63.2725 29.5063 64.3783C21.8712 65.7856 9.8159 67.6956 4.19008 75.3354C4.08962 75.838 4.08962 76.3406 4.19008 76.4411C4.19008 76.4411 4.391 76.5416 4.99377 76.3406C5.29515 76.039 5.79746 75.4359 6.60115 74.7322L21.9717 88.4034C20.4648 89.7102 20.0629 90.1123 19.7616 90.3134M23.1772 86.393L9.41406 72.7217L10.6196 72.1186C12.026 71.3144 13.8343 70.7113 15.6426 70.1081L26.2915 80.06C25.3874 82.5731 24.6841 84.1814 23.8805 85.3877L23.1772 86.393M12.7293 73.3249L22.6749 83.1762C23.0768 82.372 23.4786 81.4673 23.8805 80.4621L15.6426 72.1186C14.638 72.5207 13.6334 72.9228 12.7293 73.3249M27.1957 76.9437L19.1588 69.0024L20.9671 68.6003C23.0768 68.0977 25.4878 67.6956 27.698 67.394L29.004 67.193L28.803 68.4998C28.4012 71.3144 27.9994 73.3249 27.5975 75.1343L27.1957 76.9437M23.0768 70.2087L25.8897 73.0233C26.0906 72.0181 26.2915 70.9123 26.4924 69.6055C25.3874 69.8066 24.2823 70.0076 23.0768 70.2087M31.9173 64.9814L30.9127 64.9814L30.9127 63.9762C30.9127 62.8704 30.9127 61.7647 31.0132 60.6589L31.2141 58.5479L37.4427 64.7804L35.0316 64.7804C34.5293 64.7804 33.9266 64.7804 33.4243 64.8809C32.922 64.9814 32.4196 64.9814 31.9173 64.9814M40.3561 64.2778L31.8169 55.7333C32.4196 52.9186 32.8215 50.8076 33.3238 49.1992L33.8261 47.5909L48.9957 62.4683L47.3884 62.971C46.1828 63.3731 44.9773 63.6746 43.6713 63.9762L42.4658 64.1772C42.3653 64.0767 42.1644 64.0767 42.0639 64.1772C41.7625 64.2778 41.3607 64.2778 40.9588 64.3783M34.027 55.0296L41.1598 62.1668C41.3607 62.1668 41.5616 62.0663 41.7625 62.0663C42.6667 61.8652 43.169 61.8652 43.5708 61.8652C44.1736 61.7647 44.6759 61.6642 45.1782 61.4631L34.9312 51.3102C34.5293 52.416 34.2279 53.6223 34.027 55.0296M51.3063 61.061L34.8307 44.5752C35.9358 42.5647 36.8399 41.2579 37.8445 40.1521L56.7312 57.5427C54.4206 59.3521 53.3156 60.0558 52.0096 60.6589M37.3422 44.2736L51.7082 58.6485C52.3109 58.3469 52.9137 57.9448 53.6169 57.4422L38.6482 42.4642C38.1459 42.9668 37.7441 43.5699 37.3422 44.2736M58.64 55.6327L40.4565 37.639C42.8676 35.8296 44.3745 35.0254 45.9819 34.1207L62.4575 49.5008C61.252 52.0139 60.4483 53.5217 59.4437 54.6275L58.64 55.6327M43.4704 37.9406L58.4391 52.7176C58.9414 52.0139 59.4437 51.1092 59.946 50.1039L46.2833 36.4327C45.2787 36.8348 44.3745 37.3375 43.4704 37.9406M63.4621 46.9877L49.1967 32.9144L50.804 32.4118C52.4114 31.9092 54.2197 31.5071 56.3294 31.2055L65.17 39.1469C64.8686 41.66 64.3663 43.5699 63.864 45.2788L63.4621 46.9877M53.1146 33.8191L62.4575 43.0673C62.6584 42.0621 62.9598 40.9563 63.0603 39.8505L56.1285 33.216C55.0234 33.417 54.0188 33.6181 53.1146 33.8191M65.5718 36.3322L58.64 30.8034L65.6723 30.8034L65.6723 31.8087C65.6723 32.2108 65.6723 32.7134 65.5718 33.1155C65.5718 33.5176 65.4713 33.9197 65.4713 34.3217L65.4713 36.3322M67.4806 28.5919L67.581 27.3856C67.782 25.9783 68.0833 23.0631 68.9875 19.4443L69.3893 17.7354L78.2299 26.5814L76.5221 26.9835C74.3119 27.4861 71.1976 28.2903 68.6861 28.4914L67.4806 28.5919M70.5949 21.6558C70.2935 23.2642 69.9921 24.8725 69.7912 26.2799C71.0972 26.0788 72.6041 25.7772 74.4124 25.3752L70.5949 21.6558M81.1433 25.4757L70.4944 14.8202C71.2981 12.5081 72.0013 10.8998 72.9055 9.49243L73.5082 8.38667L87.7737 22.1584L86.6686 22.8621C85.0613 23.8673 83.3534 24.571 81.746 25.2746M72.805 14.3176L81.5451 23.0631C82.5497 22.661 83.5543 22.1584 84.4585 21.7563L74.0105 11.7039C73.5082 12.5081 73.1064 13.4128 72.805 14.3176"/>
</svg>
