<?xml version="1.0" encoding="utf-8" ?>
<svg xmlns="http://www.w3.org/2000/svg" xmlns:xlink="http://www.w3.org/1999/xlink" width="90" height="80">
	<path fill="white" d="M12.1676 75.5834C12.5698 71.468 15.5866 68.4567 19.6089 68.4567L35.7989 68.4567L35.7989 65.2447L6.63687 65.2447C3.01676 65.2447 0 62.133 0 58.4191L0 6.52447C0 3.01129 3.01676 0 6.63687 0L83.162 0C86.8827 0 90 3.01129 90 6.52447L90 58.4191C90 62.2334 86.9832 65.2447 83.162 65.2447L54.3017 65.2447L54.3017 68.4567L70.4916 68.4567C74.7151 68.4567 78.0335 71.8695 78.0335 76.1857L78.0335 79.4981L12.2682 80L12.2682 75.5834"/>
	<path fill="#325D70" d="M83.1117 3.31245L6.58658 3.31245C4.87708 3.31245 3.3687 4.8181 3.3687 6.62487L3.3687 58.5195C3.3687 60.4267 4.87708 62.0326 6.58658 62.0326L39.067 62.0326L39.067 71.8695L19.5586 71.8695C17.1452 71.8695 15.3352 73.7766 15.3352 76.6876L74.5642 76.2861C74.5642 73.877 72.8547 71.8695 70.3408 71.8695L50.8324 71.8695L50.8324 62.0326L83.1117 62.0326C85.0223 62.0326 86.6313 60.5271 86.6313 58.5195L86.6313 6.5245C86.6313 4.8181 85.1229 3.31245 83.1117 3.31245"/>
	<path fill="#2D1B0A" d="M14.3799 77.6914L14.3799 76.6876C14.3799 73.2748 16.5922 70.8658 19.6089 70.8658L38.1117 70.8658L38.1117 63.0364L6.63686 63.0364C4.32401 63.0364 2.4134 60.9285 2.4134 58.5195L2.4134 6.62489C2.4134 4.31623 4.32401 2.3087 6.63686 2.3087L83.162 2.3087C85.5754 2.3087 87.5866 4.21585 87.5866 6.52451L87.5866 58.5195C87.5866 61.0289 85.5754 63.0364 83.0614 63.0364L51.7877 63.0364L51.7877 70.8658L70.2905 70.8658C73.2067 70.8658 75.5195 73.2748 75.5195 76.2861L75.5195 77.2899L14.3799 77.6914M19.6089 72.8733C18 72.8733 16.7933 73.9775 16.4916 75.6839L73.4078 75.2824C73.0056 73.8771 71.7989 72.8733 70.2905 72.8733L49.7765 72.8733L49.7765 61.0289L83.0614 61.0289C84.4693 61.0289 85.5754 59.9248 85.5754 58.5195L85.5754 6.52451C85.5754 5.31999 84.4693 4.31623 83.162 4.31623L6.63686 4.31623C5.43016 4.31623 4.42457 5.42037 4.42457 6.62489L4.42457 58.5195C4.42457 59.9248 5.43016 61.0289 6.63686 61.0289L40.1229 61.0289L40.1229 72.8733L19.6089 72.8733"/>
	<path fill="#E7F5F8" d="M8.34645 7.32735L81.6537 7.32735L81.6537 53.7013L8.34645 53.7013L8.34645 7.32735"/>
	<path fill="#2D1B0A" d="M82.6592 54.7051L7.3408 54.7051L7.3408 6.3237L82.6592 6.3237L82.6592 54.7051M9.35197 52.6976L80.6481 52.6976L80.6481 8.33123L9.35197 8.33123L9.35197 52.6976"/>
	<path fill="#FF6F64" d="M37.4078 47.2771L35.4972 24.8932L34.4916 36.4366L33.486 36.5368L32.1788 31.4177L31.5754 33.5257L25.743 33.5257L24.7374 36.5368L23.0279 33.1241L21.7207 47.1768L20.7151 47.1768L18.905 25.7966L17.4972 36.2357L15.8883 32.02L15.3855 33.5257L8.2458 33.5257L14.581 32.6222L15.486 29.611L16.4916 29.7113L16.9944 32.5219L18.5028 20.8782L19.5084 20.8782L21.2179 41.5557L22.324 29.7113L23.3296 29.611L24.3352 34.4289L24.9385 32.6222L30.7709 32.6222L31.676 29.4101L32.6816 29.4101L33.7877 33.5257L34.8938 18.8706L35.8994 18.8706L37.81 40.7527L38.6145 29.5105L39.7207 29.4101L40.9274 34.7301L41.7318 32.6222L48.3687 32.6222L49.0726 34.4289L49.7765 29.5105L50.8827 29.5105L51.8883 39.4478L52.8938 19.774L53.8994 19.774L55.2067 33.1241L56.0112 29.611L57.0167 29.611L57.9218 32.6222L62.4469 32.6222L64.9609 28.4064L66.067 33.4252L67.5754 22.2834L68.581 22.3838L70.3911 40.2508L71.2961 29.7113L72.3017 29.611L73.7095 35.1316L75.2179 32.6222L82.1564 32.6222L75.8212 33.5257L73.3073 37.7414L72.1005 32.9233L70.9944 45.8719L69.9888 45.8719L67.9776 26.5996L66.6704 36.4366L65.6648 36.5368L64.5586 31.1166L63.0503 33.5257L57.1173 33.5257L56.6145 31.7188L55.5084 36.5368L53.5978 26.3989L52.4916 46.0726L51.486 46.0726L50.2793 33.6259L49.7765 36.4366L48.7709 36.5368L47.6648 33.5257L42.4357 33.5257L40.7262 38.0425L39.5195 32.9233L38.4134 47.2771"/>
	<path fill="#FFCF48" d="M42.8883 60.1255C42.8883 58.8206 43.7933 58.0176 45 58.0176C46.1062 58.0176 47.1117 58.921 47.1117 60.1255C47.1117 61.2296 46.0056 62.2334 45 62.2334C43.7933 62.2334 42.8883 61.2296 42.8883 60.1255M45.1006 61.2296C45.7039 61.2296 46.2067 60.8281 46.2067 60.1255C46.2067 59.4229 45.8045 59.0214 45.1006 59.0214C44.4972 59.0214 43.9944 59.4229 43.9944 60.1255C43.9944 60.8281 44.3967 61.2296 45.1006 61.2296"/>
</svg>
