<?xml version="1.0" encoding="utf-8" ?>
<svg xmlns="http://www.w3.org/2000/svg" xmlns:xlink="http://www.w3.org/1999/xlink" width="86" height="82">
	<path fill="white" d="M71.2282 82C62.9318 82 56.2541 75.3676 56.2541 67.3284C56.2541 66.5245 56.3553 65.8211 56.4565 64.9167L54.3318 61.6005C51.2965 62.9069 48.8682 63.4093 46.3388 63.4093C41.6847 63.4093 37.4353 61.8015 34.0965 58.7868L24.7882 63.5098C25.0918 65.2181 25.2941 66.223 25.2941 67.2279C25.2941 74.2623 19.8306 79.6887 12.7482 79.6887C5.66588 79.6887 0 74.0613 0 67.2279C0 60.3946 5.86824 54.5662 12.7482 54.5662C14.5694 54.5662 16.4918 54.9681 18.4141 55.8725L28.6329 50.1446C28.1271 48.0343 27.9247 46.6275 27.9247 45.3211C27.9247 42.1054 28.8353 38.8897 30.4541 35.9755L25.8 29.3431C24.4847 29.5441 23.9788 29.5441 23.1694 29.5441C14.8729 29.5441 8.19529 22.9118 8.19529 14.8725C8.19529 6.63235 14.9741 0 23.1694 0C31.3647 0 37.9412 6.73284 37.9412 14.8725C37.9412 17.9877 36.9294 21.0025 34.9059 23.7157L38.1435 28.7402C41.1788 27.4338 43.7082 26.9314 46.2376 26.9314C49.5765 26.9314 52.8141 27.8358 55.6471 29.5441L57.1647 30.4485L57.1647 27.7353C57.1647 22.1078 61.8188 17.3848 67.3835 17.3848C73.1506 17.3848 77.8047 22.0074 77.8047 27.7353C77.8047 33.4632 73.1506 38.0858 67.3835 38.0858C66.7765 38.0858 66.0682 37.9853 65.5624 37.8848L63.5388 38.9902C64.2471 41.7034 64.5506 43.5123 64.5506 45.2206C64.5506 47.9338 64.0447 50.4461 62.9318 52.6569L61.6165 55.3701L64.3482 53.9632C66.4729 52.8578 68.9012 52.2549 71.2282 52.2549C79.4235 52.2549 86 58.9877 86 67.1275C86 75.4681 79.4235 82 71.2282 82"/>
	<path fill="#6D6D6D" d="M29.1389 23.1129L25.9012 24.4193L42.8989 44.9193L14.0636 62.4046L16.7954 64.1129L45.0236 47.2305L62.8307 66.2232L65.5624 64.5149L47.9577 45.3212L65.5624 33.2624L64.0448 31.1521L45.833 43.2109L29.1389 23.1129"/>
	<path fill="#2D1B0A" d="M62.7294 67.4291L44.9224 48.4364L16.8965 65.2183L12.1412 62.3041L41.3812 44.5173L24.2824 23.9168L29.4424 21.907L46.1365 41.8041L64.4494 29.6447L67.08 33.3629L49.5765 45.4217L67.2824 64.7158L62.7294 67.4291M45.2259 45.9242L63.033 64.9168L64.0447 64.3139L46.44 45.1202L64.1459 32.9609L45.6306 44.5173L28.7341 24.3188L27.52 24.8212L44.3153 45.1202L15.8847 62.4045L45.2259 45.9242"/>
	<path fill="#FFCF48" d="M31.2636 45.2206C31.2636 36.8799 37.9412 30.1471 46.4401 30.1471C54.6354 30.1471 61.4142 36.7794 61.4142 45.2206C61.4142 53.3603 54.7365 60.0932 46.4401 60.0932C37.9412 60.0932 31.2636 53.3603 31.2636 45.2206"/>
	<path fill="#2D1B0A" d="M46.44 61.0981C37.5365 61.0981 30.2518 53.9633 30.2518 45.2206C30.2518 36.1765 37.3342 29.1422 46.44 29.1422C55.2424 29.1422 62.4259 36.3775 62.4259 45.2206C62.3247 53.9633 55.2424 61.0981 46.44 61.0981M46.44 31.152C38.5483 31.152 32.2753 37.2819 32.2753 45.2206C32.2753 52.8579 38.6495 59.0883 46.44 59.0883C54.1294 59.0883 60.4024 52.8579 60.4024 45.2206C60.3012 37.4829 54.1294 31.152 46.44 31.152"/>
	<path fill="#FFCF48" d="M59.3905 67.027C59.3905 60.5956 64.6517 55.3701 71.127 55.3701C77.3999 55.3701 82.6611 60.5956 82.6611 67.027C82.6611 73.2574 77.3999 78.4828 71.127 78.4828C64.5506 78.4828 59.3905 73.2574 59.3905 67.027"/>
	<path fill="#2D1B0A" d="M71.127 79.4877C64.0447 79.4877 58.3788 73.8603 58.3788 67.027C58.3788 59.9926 64.1459 54.3652 71.127 54.3652C78.007 54.3652 83.6729 60.0931 83.6729 67.027C83.6729 73.8603 78.007 79.4877 71.127 79.4877M71.127 56.375C65.1576 56.375 60.4023 61.1985 60.4023 67.027C60.4023 72.7549 65.2588 77.4779 71.127 77.4779C76.7929 77.4779 81.6494 72.6544 81.6494 67.027C81.6494 61.098 76.8941 56.375 71.127 56.375"/>
	<path fill="#FFCF48" d="M2.833 67.027C2.833 61.8015 7.18359 57.5809 12.3436 57.5809C17.5036 57.5809 21.6518 61.902 21.6518 67.027C21.6518 72.152 17.5036 76.2721 12.3436 76.2721C7.28476 76.2721 2.833 72.152 2.833 67.027"/>
	<path fill="#2D1B0A" d="M12.3436 77.277C6.57649 77.277 1.8212 72.6544 1.8212 67.027C1.8212 61.3995 6.67767 56.576 12.3436 56.576C17.9083 56.576 22.6636 61.3995 22.6636 67.027C22.6636 72.6544 18.1106 77.277 12.3436 77.277M12.3436 58.5858C7.79061 58.5858 3.84473 62.4044 3.84473 67.027C3.84473 71.549 7.68944 75.2672 12.3436 75.2672C16.8965 75.2672 20.64 71.549 20.64 67.027C20.64 62.4044 16.8965 58.5858 12.3436 58.5858"/>
	<path fill="#FFCF48" d="M11.3319 14.571C11.3319 8.13959 16.593 2.9141 23.0683 2.9141C29.3412 2.9141 34.6024 8.13959 34.6024 14.571C34.6024 20.8014 29.3412 26.0268 23.0683 26.0268C16.593 26.0268 11.3319 20.9018 11.3319 14.571"/>
	<path fill="#2D1B0A" d="M23.0683 27.0317C15.986 27.0317 10.3201 21.4043 10.3201 14.571C10.3201 7.53665 16.0872 1.9092 23.0683 1.9092C29.9483 1.9092 35.6142 7.63714 35.6142 14.571C35.6142 21.5048 29.9483 27.0317 23.0683 27.0317M23.0683 3.919C17.0989 3.919 12.3436 8.74253 12.3436 14.571C12.3436 20.2989 17.2001 25.0219 23.0683 25.0219C28.7342 25.0219 33.5907 20.1984 33.5907 14.571C33.5907 8.74253 28.8354 3.919 23.0683 3.919"/>
	<path fill="#FFCF48" d="M59.7953 27.5343C59.7953 23.6152 63.0329 20.3995 66.7765 20.3995C70.7224 20.3995 73.96 23.6152 73.96 27.5343C73.96 31.4534 70.7224 34.6691 66.7765 34.6691C63.0329 34.6691 59.7953 31.4534 59.7953 27.5343"/>
	<path fill="#2D1B0A" d="M66.7764 35.674C62.4258 35.674 58.7835 31.9559 58.7835 27.5343C58.7835 23.1127 62.4258 19.3946 66.7764 19.3946C71.3294 19.3946 74.9717 23.0122 74.9717 27.5343C74.9717 32.0564 71.2282 35.674 66.7764 35.674M66.7764 21.4044C63.5388 21.4044 60.807 24.2181 60.807 27.5343C60.807 30.8505 63.5388 33.6642 66.7764 33.6642C70.1153 33.6642 72.9482 30.951 72.9482 27.5343C72.9482 24.1176 70.1153 21.4044 66.7764 21.4044"/>
</svg>
