<?xml version="1.0" encoding="utf-8" ?>
<svg xmlns="http://www.w3.org/2000/svg" xmlns:xlink="http://www.w3.org/1999/xlink" width="82" height="90">
	<path fill="white" d="M23.0063 90C21.4814 90 20.0581 89.6953 19.0414 89.0858L18.0248 88.9842C17.1098 89.3905 15.8898 90 14.1616 90C10.2983 90 7.85839 87.6637 7.24841 85.4289L7.04508 62.7765L5.92678 62.7765C2.36854 62.7765 0.335263 60.237 0.233599 57.6975C-0.274721 52.009 0.131935 46.0158 0.640254 42.0542C1.65689 32.6072 6.53676 29.2551 8.6717 28.3409L9.18002 27.0203C8.57004 25.6998 8.26505 24.3792 8.26505 22.8555C8.26505 17.3702 12.7383 12.9007 18.2281 12.9007C23.718 12.9007 28.3945 17.4718 28.3945 22.8555C28.3945 24.3792 28.0895 25.6998 27.4795 27.0203L27.9879 28.3409C28.5978 28.6456 29.6145 29.3567 30.6311 30.1693L32.0544 29.9661C33.376 28.0361 35.206 26.8172 37.2393 26.2077L39.3742 25.5982L37.5443 24.3792C35.6126 23.0587 31.7494 20.1129 29.0045 17.0655C26.3612 13.6117 25.4463 9.95485 26.2596 6.80587C26.6662 5.18059 27.9879 2.23476 32.4611 0.507901C32.9694 0.30474 33.1727 0.30474 33.2744 0.20316C33.7827 0 34.596 0 35.511 0C37.1376 0 38.5609 0.406321 39.8825 1.11738L40.8992 1.11738C42.2208 0.406321 43.6441 0 45.0674 0C46.084 0 46.999 0 47.8123 0.406321C51.4722 1.62528 54.0138 3.96163 54.7255 7.11061C55.6404 10.4628 54.4205 14.0181 51.3706 17.2686C48.219 20.9255 45.0674 23.3634 42.9324 24.684L41.2042 25.8014L43.1358 26.5124C45.5757 27.4266 47.609 29.1535 48.6256 31.4898L49.2356 32.8104L50.2523 31.7946C50.8622 31.1851 51.5739 30.6772 52.2855 30.1693L52.6922 28.7472C51.8789 27.4266 51.4722 25.8014 51.4722 24.1761C51.4722 18.7923 55.8438 14.4244 61.232 14.4244C66.6201 14.4244 70.9917 18.7923 70.9917 24.1761C70.9917 25.8014 70.585 27.4266 69.6701 28.8488L69.9751 30.1693C72.8216 31.8962 76.5832 35.3499 78.9215 41.9526C82 50.6885 82 54.8533 82 55.8691C81.8697 57.5959 80.9548 59.3228 79.5315 60.237L80.5481 64.7065L71.0934 64.7065L71.0934 83.6005C70.4834 86.14 68.4501 88.4763 64.9935 88.5779C63.3669 88.5779 62.3503 88.2731 61.5369 87.8668L60.5203 87.7652C59.707 88.1716 58.5887 88.3747 57.4704 88.3747C54.7255 88.3747 52.4889 87.1558 51.5739 85.0226L50.7606 83.1941L49.7439 84.921C48.7273 86.851 46.4907 87.9684 43.9491 87.9684C42.7291 87.9684 41.6108 87.7652 40.6958 87.3589L39.6792 87.4605C38.6626 88.07 37.4426 88.2731 36.121 88.2731C33.8844 88.2731 31.8511 87.3589 30.7328 85.7336L29.7161 84.3115L29.0045 85.9368C28.6995 87.9684 26.5646 90 23.0063 90"/>
	<path fill="#FF6F64" d="M40.7609 6.29797C40.7609 6.29797 42.4892 2.23476 47.369 3.65688C52.2489 5.18059 53.9772 10.0564 49.3006 14.9323C44.8274 20.0112 40.6592 22.4492 40.6592 22.4492C40.6592 22.4492 35.0677 18.6908 31.8144 14.9323C28.7645 10.8691 28.2562 5.89165 33.9494 3.65688C34.1527 3.55531 38.9309 2.23476 40.7609 6.29797"/>
	<path fill="#2D1B0A" d="M40.7609 23.6682C40.0492 23.0585 34.5594 19.2987 31.3061 15.6406C29.1712 12.7953 28.3579 9.95009 29.0695 7.5113C29.4762 6.08868 30.5945 4.05636 33.8477 2.73536C34.0511 2.63374 34.356 2.53212 34.4577 2.53212C36.491 2.12566 39.1343 2.3764 40.8625 4.46283C42.0825 3.04021 44.4208 1.7192 47.7757 2.73536C50.5206 3.54828 52.4522 5.37737 52.9605 7.71454C53.6722 10.2549 52.6556 13.1002 50.114 15.7422C45.6407 20.9246 41.4725 23.3634 41.2692 23.465M34.661 4.56444C32.5261 5.47899 31.4078 6.59676 30.8995 8.121C30.3912 9.95009 31.1028 12.1856 32.7294 14.4212C35.271 17.2664 39.3376 20.3149 40.7609 21.3311C41.9808 20.5181 45.2341 18.2826 48.589 14.4212C50.6223 12.2872 51.4356 10.1533 50.9273 8.32423C50.5206 6.69838 49.0973 5.37737 47.064 4.76767C43.0991 3.6499 41.6758 6.69838 41.6758 6.79999L40.7609 8.93393L39.8459 6.90161C38.5243 3.75152 35.271 4.36121 34.661 4.56444"/>
	<path fill="#41A2F9" d="M11.8232 22.8555C11.8232 19.3002 14.6698 16.2528 18.4314 16.2528C22.193 16.2528 25.2429 19.3002 25.2429 22.8555C25.2429 26.614 22.193 29.6614 18.4314 29.6614C14.6698 29.6614 11.8232 26.614 11.8232 22.8555M3.99513 42.5621C2.87682 52.009 3.58847 57.5959 3.58847 57.5959C3.58847 57.5959 3.58847 59.5259 6.02841 59.5259C8.67167 59.5259 8.46834 57.5959 8.46834 57.5959C8.46834 57.5959 8.06169 50.79 8.46834 46.1174C8.875 41.4447 10.4 38.6004 10.4 38.6004L10.4 84.5147C10.4 84.5147 11.0099 86.6478 14.1615 86.6478C17.0081 86.6478 17.7198 84.5147 17.7198 84.5147L17.7198 56.0722L19.2447 84.5147C19.2447 84.5147 19.8547 86.6478 23.0063 86.6478C25.8529 86.6478 26.5645 84.5147 26.5645 84.5147L26.5645 38.2957C26.5645 38.2957 28.4961 41.5463 28.4961 49.3679C28.4961 49.3679 30.6311 45.3047 32.9693 44.4921C32.766 33.4198 26.5645 31.1851 26.5645 31.1851L10.5016 31.1851C10.4 31.2867 5.11343 33.0135 3.99513 42.5621"/>
	<path fill="#2D1B0A" d="M23.0063 87.6636C20.058 87.6636 18.8381 86.0384 18.4314 85.2257C18.0248 86.0384 16.8048 87.6636 14.0599 87.6636C10.1966 87.6636 9.28166 84.921 9.28166 84.7178L9.28166 58.2054C9.18 58.6117 8.97667 59.018 8.67168 59.4244C8.0617 60.1354 7.14672 60.4402 5.92675 60.4402C3.48682 60.4402 2.57185 58.7133 2.47018 57.4943C2.36852 56.8849 1.8602 51.4503 2.87684 42.3589C4.0968 32.404 9.58666 30.1693 10.4 30.1693L15.5848 30.1693C12.7382 29.0519 10.705 26.2077 10.705 22.8555C10.705 18.5891 14.0599 15.237 18.3298 15.237C22.7013 15.237 26.1579 18.6907 26.1579 22.8555C26.1579 26.2077 24.0229 29.0519 21.0747 30.1693L26.5645 30.1693C27.0729 30.3724 33.681 32.8104 33.8843 44.4921L33.1727 45.5079C31.5461 46.1174 29.8178 48.86 29.2078 49.9774L27.3778 53.3296L27.3778 84.7178C27.4795 84.921 26.4629 87.6636 23.0063 87.6636M20.1597 84.3115C20.2614 84.6162 20.973 85.632 23.0063 85.632C24.7346 85.632 25.3446 84.6162 25.5479 84.3115L25.5479 34.6388L27.4795 37.7878C27.5812 37.8894 29.0045 40.4289 29.5128 46.2189C30.2244 45.3047 31.1394 44.3905 32.0544 43.8826C31.6477 35.0451 27.3778 32.7088 26.4629 32.3025L10.705 32.3025C10.095 32.6072 6.02842 34.5372 5.01178 42.6636C3.99514 51.9074 4.60512 57.3928 4.60512 57.3928C4.60512 57.7991 4.80845 58.4086 6.02842 58.4086C6.6384 58.4086 7.04506 58.307 7.24839 58.1038C7.45171 57.9007 7.45171 57.5959 7.45171 57.5959C7.45171 57.2912 7.04506 50.5869 7.45171 45.9142C7.85837 41.1399 9.48499 38.1941 9.48499 37.991L11.4166 34.4356L11.4166 84.2099C11.6199 84.5147 12.2299 85.5305 14.1615 85.5305C15.8898 85.5305 16.4998 84.5147 16.7031 84.2099L16.7031 55.9706L18.7364 55.8691L20.1597 84.3115M9.28166 47.0316C9.07834 50.1806 9.18 54.0406 9.28166 56.0722L9.28166 47.0316M18.4314 17.2686C15.2798 17.2686 12.8399 19.7065 12.8399 22.8555C12.8399 26.1061 15.2798 28.6456 18.4314 28.6456C21.6847 28.6456 24.2263 26.1061 24.2263 22.8555C24.2263 19.8081 21.6847 17.2686 18.4314 17.2686"/>
	<path fill="#FFCF48" d="M33.7827 35.6548C33.7827 32.0994 36.6293 29.2552 40.1807 29.2552C43.7458 29.2552 46.5923 32.0994 46.5923 35.6548C46.5923 39.21 43.7458 41.8511 40.1807 41.8511C36.6293 41.8511 33.7827 39.1085 33.7827 35.6548M27.9878 52.8218C26.8695 60.9482 27.3779 65.824 27.3779 65.824C27.3779 65.824 27.5812 67.5509 29.8178 67.5509C32.0544 67.5509 31.7494 65.824 31.7494 65.824C31.7494 65.824 31.3428 59.8308 31.7494 55.9708C31.9527 51.9076 33.4777 49.5712 33.4777 49.5712L33.4777 64.6051L33.4777 83.1943C33.4777 83.1943 33.8844 85.1243 36.5276 85.1243C39.1709 85.1243 39.5775 83.1943 39.5775 83.1943L39.5775 67.1446L40.8992 83.1943C40.8992 83.1943 41.5092 84.9211 44.1524 84.9211C46.5923 84.9211 47.2023 83.1943 47.2023 83.1943L47.2023 64.6051L47.2023 49.3681C47.2023 49.3681 48.524 51.0949 48.9306 55.9708C49.3373 60.8466 48.9306 65.824 48.9306 65.824C48.9306 65.824 48.9306 67.5509 50.8622 67.5509C52.7938 67.5509 52.9972 65.824 52.9972 65.824C52.9972 65.824 53.4038 56.7834 52.5905 52.8218C51.2689 44.1875 46.1857 43.1717 46.1857 43.1717L33.986 43.1717C34.3927 43.0701 29.0045 44.5938 27.9878 52.8218"/>
	<path fill="#2D1B0A" d="M36.5027 86.0384C33.7577 86.0384 32.6394 84.2099 32.4361 83.2957L32.4361 67.1445C32.3344 67.3476 32.2328 67.4492 32.1311 67.6524C31.7245 68.0587 31.0128 68.5666 29.7928 68.5666C27.3529 68.5666 26.5396 66.8397 26.3576 65.9255C26.3576 65.7223 26.0313 60.7449 27.0479 52.6185C27.6579 47.8442 29.8945 44.0858 33.4527 42.2573L36.9093 41.9526C34.4694 40.8352 32.7411 38.3973 32.7411 35.4515C32.7411 31.2867 35.9943 28.0361 40.1626 28.0361C44.3308 28.0361 47.584 31.2867 47.584 35.4515C47.584 38.3973 45.9574 40.7336 43.5175 41.9526L46.3641 41.9526C46.5674 41.9526 52.1589 43.2731 53.5822 52.4153C54.4972 56.4785 54.0905 65.316 53.9889 65.6208C53.8872 66.6366 53.0739 68.3634 50.8373 68.3634C49.414 68.3634 48.6007 67.6524 48.194 66.8397L48.194 83.0925C48.0923 83.3973 47.1774 85.7336 44.1275 85.7336C41.8908 85.7336 40.7725 84.6162 40.2622 83.9052C39.6542 85.0226 38.5359 86.0384 36.5027 86.0384M34.4694 82.991C34.571 83.2957 34.9777 84.1083 36.5027 84.1083C38.0276 84.1083 38.4343 83.2957 38.5359 82.991L38.5359 67.0429L40.5692 66.9413L41.8908 82.7878C42.0942 83.0925 42.6025 83.8036 44.1275 83.8036C45.4491 83.8036 45.9574 83.0925 46.1607 82.8894L46.1607 46.3205L47.9907 48.7584C48.0923 48.9616 49.5156 50.8916 49.9223 55.8691C50.329 60.5417 50.024 65.2144 49.9223 65.8239C50.024 66.535 50.6339 66.535 50.8373 66.535C51.8539 66.535 51.9556 65.8239 51.9556 65.7223C51.9556 65.7223 52.3622 56.8849 51.5489 53.0248C50.4306 45.711 46.5674 44.2889 45.9574 44.1873L34.2661 44.1873C31.3178 45.711 29.4878 48.7584 28.9795 52.9232C27.9629 60.8465 28.3695 65.7223 28.3695 65.7223C28.3695 65.9255 28.6745 66.535 29.7928 66.535C30.1995 66.535 30.5045 66.4334 30.6062 66.3318C30.7078 66.2302 30.7078 65.9255 30.7078 65.9255C30.7078 65.6208 30.3012 59.7291 30.7078 55.7675C30.9111 51.6027 32.5378 49.0632 32.6394 48.9616L34.4694 46.0158L34.4694 82.991M40.1626 30.1693C37.1126 30.1693 34.7744 32.5056 34.7744 35.553C34.7744 38.4989 37.1126 40.7336 40.1626 40.7336C43.2125 40.7336 45.5507 38.4989 45.5507 35.553C45.5507 32.6072 43.2125 30.1693 40.1626 30.1693"/>
	<path fill="#FF6F64" d="M55.3355 24.1691C55.3355 20.6138 58.1821 17.7696 61.7402 17.7696C65.2986 17.7696 68.1451 20.6138 68.1451 24.1691C68.1451 27.7244 65.2986 30.3655 61.7402 30.3655C58.1821 30.3655 55.3355 27.826 55.3355 24.1691M66.2134 31.6861L57.1655 31.6861C57.1655 31.6861 49.6423 34.5303 46.8974 43.1646C49.5406 44.0789 50.4556 45.6026 50.4556 45.6026C51.9805 42.352 54.9288 38.4919 54.9288 38.4919L54.9288 52.2053C54.0138 53.9321 54.7255 57.0811 54.9288 61.0427L54.9288 67.4423L54.9288 82.8825C54.9288 82.8825 54.9288 85.0293 57.9788 85.0293C60.6219 85.0293 60.6219 82.8825 60.6219 82.8825L60.6219 61.2459L62.1469 83.0856C62.1469 83.0856 62.5536 85.2188 65.1969 85.0293C67.6367 85.0293 68.0434 83.0856 68.0434 83.0856L68.0434 61.2459L75.77 61.2459C73.1266 55.0495 68.4501 52.2053 68.4501 52.2053L68.4501 38.4919C68.4501 38.4919 72.0083 42.2504 73.1266 46.6184C74.6516 52.4084 75.0583 56.0653 75.0583 56.0653C75.0583 56.0653 75.6683 57.589 77.4982 57.3859C79.0395 57.1827 79.0395 55.659 79.0395 55.659C79.0395 55.659 79.4299 52.1037 76.1766 43.0631C73.0249 33.8193 66.2134 31.6861 66.2134 31.6861"/>
	<path fill="#2D1B0A" d="M64.7902 86.0383C62.9322 86.0383 61.842 84.9209 61.4353 84.0066C61.0287 85.0225 60.012 86.0383 58.0804 86.0383C54.8271 86.0383 54.0138 83.9051 54.0138 82.8893L54.0138 61.0495C53.9122 60.0337 53.9122 59.1195 53.8105 58.2053C53.6072 55.6658 53.4039 53.5326 54.0138 52.0089L54.0138 41.7493C53.2005 43.0699 52.1839 44.5936 51.4722 46.0157L50.6589 47.641L49.6423 46.1173C49.6423 46.1173 48.829 44.8983 46.5924 44.1872L45.9824 42.9683C48.829 33.9276 56.4538 30.8802 56.8604 30.7787L58.4871 30.6771C56.0471 29.5597 54.4205 27.1218 54.4205 24.176C54.4205 20.0112 57.6737 16.7606 61.842 16.7606C66.0102 16.7606 69.2634 20.0112 69.2634 24.176C69.2634 27.1218 67.6368 29.4581 65.1969 30.6771L66.6202 30.6771C66.9252 30.7787 74.0416 33.115 77.2949 42.7651C80.4465 51.2978 80.2431 55.1579 80.1415 55.7674C80.1415 56.58 79.6332 58.2053 77.7015 58.4085C76.5832 58.51 75.6683 58.2053 75.1599 57.6974C75.7699 58.6116 76.2782 59.729 76.7866 60.8464L77.3965 62.2685L69.1618 62.2685L69.1618 83.2956C68.9584 84.2098 67.8401 86.0383 65.2985 86.0383C64.9935 86.0383 64.8919 86.0383 64.7902 86.0383M63.1636 82.8893C63.2653 83.194 63.6719 84.1082 65.0952 84.0066C66.5185 84.0066 66.9252 83.194 67.0268 82.8893L67.0268 60.2369L74.1433 60.2369C71.6017 55.3611 67.9418 53.1263 67.9418 53.1263L67.4335 35.9592L69.1618 37.7877C69.3651 37.9908 72.9233 41.8509 74.0416 46.422C75.3633 51.501 75.8716 54.9547 75.9733 55.7674C76.0749 55.9705 76.4816 56.4784 77.2949 56.3769C77.9049 56.2753 77.9049 55.7674 77.9049 55.6658C77.9049 55.5642 78.2099 52.0089 75.1599 43.4762C72.415 35.5529 66.8235 33.115 65.9085 32.7087L57.2671 32.7087C56.2504 33.115 50.6589 35.8577 48.1173 42.6635C49.0323 43.0699 49.6423 43.4762 50.1506 43.8825C51.7772 40.9367 53.9122 38.0924 54.1155 37.8893L55.9455 35.5529L55.9455 52.4152C55.3355 53.6342 55.5388 55.6658 55.7421 57.9006C55.8438 58.8148 55.9455 59.8306 55.9455 60.8464L55.9455 82.7877C55.9455 83.0924 56.1488 83.9051 57.9787 83.9051C59.5037 83.9051 59.6054 82.9908 59.6054 82.7877L59.6054 61.2527L61.6386 61.1511L63.1636 82.8893M69.4668 51.7042C70.3817 52.3136 72.2117 53.8373 74.0416 56.2753C74.0416 56.2753 73.635 52.6184 72.11 46.9299C71.6017 44.7967 70.4834 42.8667 69.4668 41.4446L69.4668 51.7042M61.7403 18.7922C58.6904 18.7922 56.3521 21.1286 56.3521 24.176C56.3521 27.1218 58.6904 29.3565 61.7403 29.3565C64.7902 29.3565 67.1285 27.1218 67.1285 24.176C67.1285 21.1286 64.6886 18.7922 61.7403 18.7922"/>
</svg>
