<?xml version="1.0" encoding="utf-8" ?>
<svg xmlns="http://www.w3.org/2000/svg" xmlns:xlink="http://www.w3.org/1999/xlink" width="66" height="96">
	<path fill="white" d="M8.78669 96C3.99395 96 0 92.0589 0 87.1074L0 17.3811C0 12.3284 3.8941 8.28632 8.78669 8.28632L16.475 8.28632L16.475 7.17474C16.475 3.13263 19.5703 0 23.6641 0L42.4357 0C46.4297 0 49.525 3.03158 49.525 7.17474L49.525 8.28632L57.2133 8.28632C62.0061 8.28632 66 12.3284 66 17.3811L66 87.1074C66 91.9579 62.1059 96 57.2133 96L8.78669 96"/>
	<path fill="#FFCF48" d="M8.68682 12.2274L19.9697 12.2274L19.9697 7.47789C19.9697 5.65894 21.3676 3.94105 23.4644 3.94105L42.236 3.94105C44.3329 3.94105 45.7306 5.55789 45.7306 7.47789L45.7306 12.2274L57.0136 12.2274C59.8093 12.2274 62.2057 14.5515 62.2057 17.6842L62.2057 87.4105C62.2057 90.2399 59.9092 92.6652 57.0136 92.6652L8.88652 92.6652C6.09076 92.6652 3.69125 90.341 3.69125 87.4105L3.69125 17.6842C3.69125 14.5515 5.89106 12.2274 8.68682 12.2274M26.6595 7.8821C25.761 7.8821 24.8624 8.79158 24.8624 9.70105C24.8624 10.6105 25.761 11.3179 26.6595 11.3179L38.8411 11.3179C39.7397 11.3179 40.6385 10.6105 40.6385 9.70105C40.6385 8.79158 39.7397 7.8821 38.8411 7.8821L26.6595 7.8821"/>
	<path fill="#2D1B0A" d="M56.8139 93.6759L8.68682 93.6759C5.39181 93.6759 2.4962 90.8464 2.4962 87.4106L2.4962 17.6843C2.4962 14.0464 5.29196 11.2169 8.68682 11.2169L18.9712 11.2169L18.9712 7.47797C18.9712 4.95165 20.9682 2.9306 23.4644 2.9306L42.236 2.9306C44.7322 2.9306 46.7292 4.95165 46.7292 7.47797L46.7292 11.2169L57.0136 11.2169C60.4085 11.2169 63.2042 14.1474 63.2042 17.6843L63.2042 87.4106C63.0045 90.7453 60.2088 93.6759 56.8139 93.6759M8.68682 13.238C6.3903 13.238 4.59302 15.158 4.49317 17.6843L4.49317 87.4106C4.49317 89.7348 6.3903 91.6548 8.68682 91.6548L56.8139 91.6548C59.1104 91.6548 61.0075 89.7348 61.0075 87.4106L61.0075 17.6843C61.0075 15.259 59.1104 13.238 56.8139 13.238L44.5325 13.238L44.5325 7.47797C44.5325 6.26534 43.6339 4.95165 42.0363 4.95165L23.3646 4.95165C21.767 4.95165 20.8684 6.26534 20.8684 7.47797L20.8684 13.238L8.68682 13.238M38.8411 12.4296L26.6596 12.4296C25.1619 12.4296 23.8638 11.2169 23.8638 9.80218C23.8638 8.28639 25.2617 6.97271 26.6596 6.97271L38.8411 6.97271C40.3389 6.97271 41.6369 8.38744 41.6369 9.80218C41.6369 11.2169 40.3389 12.4296 38.8411 12.4296M26.6596 8.89271C26.2602 8.89271 25.8608 9.39797 25.8608 9.70113C25.8608 10.0043 26.2602 10.3074 26.6596 10.3074L38.8411 10.3074C39.2405 10.3074 39.6399 10.0043 39.6399 9.70113C39.6399 9.29692 39.1407 8.89271 38.8411 8.89271L26.6596 8.89271"/>
	<path fill="#FDFFFF" d="M54.3191 86.2989L11.3842 86.2989C9.78658 86.2989 8.5884 84.9853 8.5884 83.4695L8.5884 22.4336C8.5884 20.8168 9.88643 19.6042 11.3842 19.6042L54.3191 19.6042C55.9167 19.6042 57.1203 20.9178 57.1203 22.4336L57.1203 83.3683C57.2147 84.9853 55.9167 86.2989 54.3191 86.2989"/>
	<path fill="#2D1B0A" d="M54.3214 87.3095L11.3831 87.3095C9.28616 87.3095 7.5886 85.5916 7.5886 83.4695L7.5886 22.4337C7.5886 20.3116 9.28616 18.5937 11.3831 18.5937L54.3214 18.5937C56.4183 18.5937 58.1201 20.3116 58.1201 22.4337L58.1201 83.3684C58.2158 85.5916 56.5182 87.3095 54.3214 87.3095M11.3831 20.6147C10.3846 20.6147 9.58573 21.4232 9.58573 22.4337L9.58573 83.3684C9.58573 84.379 10.3846 85.1874 11.3831 85.1874L54.3214 85.1874C55.3199 85.1874 56.1188 84.379 56.1188 83.3684L56.1188 22.4337C56.1188 21.4232 55.3199 20.6147 54.3214 20.6147L11.3831 20.6147"/>
	<path fill="#2D1B0A" d="M13.4796 69.7263L51.9214 69.7263L51.9214 72.5558L13.4796 72.5558L13.4796 69.7263M13.4796 60.6316L51.9214 60.6316L51.9214 58.1054L13.4796 58.1054L13.4796 60.6316M13.4796 49.1116L51.9214 49.1116L51.9214 46.2822L13.4796 46.2822L13.4796 49.1116M13.4796 37.2885L51.9214 37.2885L51.9214 34.7621L13.4796 34.7621L13.4796 37.2885"/>
</svg>
