<?xml version="1.0" encoding="utf-8" ?>
<svg xmlns="http://www.w3.org/2000/svg" xmlns:xlink="http://www.w3.org/1999/xlink" width="52" height="100">
	<path fill="white" d="M19.5765 100L19.5765 96.3819C14.0706 93.8693 9.17647 89.3467 7.03529 85.1256C4.89412 81.005 2.03922 74.0704 0.917647 64.2211C0.815686 63.1156 0.815686 62.3116 0.815686 61.809C0.815686 61.608 0.815686 61.5075 0.815686 61.3065C0.815686 52.6633 2.65098 44.9246 6.21961 38.4925L6.93333 37.1859L5.40392 37.4874C2.75294 37.6884 0 35.3769 0 32.9648L0 5.32663C0 2.81407 1.83529 0.100503 5.09804 0C6.83137 0 9.17647 1.00503 10.0941 2.51256C14.3765 3.71859 17.6392 5.82915 19.8824 8.84422L20.902 9.24623C21.4118 9.14573 21.8196 9.04523 22.2275 9.04523L30.4863 9.04523C33.3412 9.04523 35.5843 11.2563 35.5843 14.0704L35.5843 23.5176C35.5843 24.3216 35.4824 24.9246 35.2784 25.4271L35.6863 26.6332C39.2549 28.6432 42.5176 31.8593 45.1686 35.8794C45.2706 35.9799 45.2706 36.0804 45.3725 36.1809C45.4745 36.2814 45.4745 36.3819 45.4745 36.3819C49.6549 43.2161 52 51.7588 52 60.804C52 61.9095 52 62.6131 51.898 63.0151C51.0824 72.1608 49.1451 79.196 45.7804 84.7236C45.5765 85.1256 45.2706 85.7286 44.7608 86.3317C41.8039 90.9548 37.9294 94.2714 33.6471 96.0804L33.0353 100L19.5765 100"/>
	<path fill="#E7F5F8" d="M6.72936 31.2562L6.72936 5.62815C14.0705 5.62815 20.0863 11.3568 20.0863 18.4925C20.0863 25.5276 14.0705 31.2562 6.72936 31.2562"/>
	<path fill="#2D1B0A" d="M6.72936 32.7638L5.19995 32.7638L5.19995 4.1206L6.72936 4.1206C14.9882 4.1206 21.6157 10.5528 21.6157 18.4925C21.6157 26.4322 14.9882 32.7638 6.72936 32.7638M8.25877 7.23618L8.25877 29.6482C14.0705 28.9447 18.5569 24.2211 18.5569 18.4925C18.5569 12.7638 14.0705 7.9397 8.25877 7.23618"/>
	<path fill="#E7F5F8" d="M5.30196 3.0151C4.48628 3.0151 3.56863 3.81912 3.56863 4.62314L3.56863 32.1608C3.56863 32.9648 4.38432 33.7689 5.30196 33.7689C6.11765 33.7689 7.0353 32.9648 7.0353 32.1608L7.0353 4.62314C6.93334 3.81912 6.11765 3.0151 5.30196 3.0151"/>
	<path fill="#2D1B0A" d="M5.30195 35.2764C3.56861 35.2764 2.0392 33.7689 2.0392 32.1609L2.0392 4.62318C2.0392 3.01514 3.56861 1.5076 5.30195 1.5076C7.03528 1.5076 8.56469 3.01514 8.56469 4.62318L8.56469 32.1609C8.46273 33.7689 6.93332 35.2764 5.30195 35.2764M5.09802 32.1609C5.09802 32.1609 5.19998 32.2614 5.30195 32.2614C5.30195 32.2614 5.40391 32.1609 5.50587 32.0604L5.50587 4.62318C5.50587 4.62318 5.40391 4.52268 5.30195 4.52268C5.19998 4.52268 5.09802 4.62318 5.09802 4.72368L5.09802 32.1609"/>
	<path fill="#495F6F" d="M22.6353 25.1256L30.0785 25.1256L30.0785 28.6432L22.6353 28.6432L22.6353 25.1256"/>
	<path fill="#495F6F" d="M22.6353 93.5678L30.0785 93.5678L30.0785 97.0854L22.6353 97.0854L22.6353 93.5678"/>
	<path fill="#FF6F64" d="M32.6275 14.1644L32.6275 23.6117C32.6275 24.8177 31.8118 25.6217 30.5882 25.6217L22.3294 25.6217C21.1059 25.6217 20.2902 24.8177 20.2902 23.6117L20.2902 14.1644C20.2902 13.1594 21.1059 12.148 22.3294 12.148L30.5882 12.148C31.8118 12.148 32.6275 13.1594 32.6275 14.1644M48.9412 60.8981C48.9412 42.3051 38.7451 27.2298 26.3059 27.2298C13.8667 27.2298 3.6706 42.3051 3.6706 60.8981C3.6706 79.4911 13.8667 94.5664 26.3059 94.5664C38.7451 94.5664 48.9412 79.4911 48.9412 60.8981"/>
	<path fill="#2D1B0A" d="M26.3059 95.5779C13.2549 95.5779 2.651 80 2.651 60.9045C2.651 43.6181 11.3177 29.1457 22.7373 26.6331C20.4941 26.6331 19.2706 25.4271 19.2706 23.6181L19.2706 14.1708C19.2706 12.4623 20.5961 11.1365 22.3294 11.1365L30.5883 11.1365C31.302 11.1365 32.0157 11.3568 32.6275 11.8593C33.2392 12.4623 33.6471 13.2663 33.6471 14.1708L33.6471 23.6181C33.6471 25.4271 32.4235 26.6331 30.5883 26.6331C41.1922 29.1457 49.9608 43.6181 49.9608 60.9045C49.9608 80 39.3569 95.5779 26.3059 95.5779M26.3059 28.2412C14.3765 28.2412 4.69022 42.9146 4.69022 60.9045C4.69022 78.8944 14.3765 93.5678 26.3059 93.5678C38.2353 93.5678 47.9216 78.8944 47.9216 60.9045C47.9216 42.9146 38.2353 28.2412 26.3059 28.2412M30.7922 13.1658L22.3294 13.1658C21.7177 13.1658 21.3098 13.6683 21.3098 14.1708L21.3098 23.6181C21.3098 24.2211 21.7177 24.6231 22.3294 24.6231L30.5883 24.6231C31.2 24.6231 31.6079 24.2211 31.6079 23.6181L31.6079 14.1708C31.6079 13.8693 31.5059 13.5678 31.2 13.3668C31.0981 13.2663 30.9961 13.1658 30.7922 13.1658"/>
	<path fill="white" d="M27.3255 85.4272C22.6353 85.4272 16.9255 84.7236 10.6039 82.9146L11.2157 81.1055C29.2627 86.4322 41.7019 81.2061 41.8039 81.1055L42.6196 82.8141C42.2117 83.1156 36.6039 85.4272 27.3255 85.4272M26.6117 66.4322C20.3921 66.4322 13.051 65.6282 4.8941 63.1156L5.50587 61.3066C29.4666 68.5427 47.0039 61.005 47.2078 60.9045L48.0235 62.6131C47.5137 63.0151 39.4588 66.4322 26.6117 66.4322M26.3059 43.4171C21.6157 43.4171 16.2117 42.7136 10.5019 41.0051L11.1137 39.196C27.0196 44.4221 41.6 39.2965 41.8039 39.196L42.5176 41.0051C42.0078 41.1055 35.4823 43.4171 26.3059 43.4171"/>
</svg>
