<?xml version="1.0" encoding="utf-8" ?>
<svg xmlns="http://www.w3.org/2000/svg" xmlns:xlink="http://www.w3.org/1999/xlink" width="70" height="70">
	<path fill="white" d="M35 70C15.7349 70 0 54.3447 0 35C0 15.6553 15.7349 0 35 0C54.2651 0 70 15.6553 70 35C70 54.3447 54.366 70 35 70"/>
	<path fill="#FCFCFC" d="M3.02605 35C3.02605 17.3006 17.3489 2.94155 35.0001 2.94155L35.0001 67.0583C17.3489 67.0583 3.02605 52.5997 3.02605 35"/>
	<path fill="#2D1B0A" d="M36.0087 68.0554L35 68.0554C16.8444 68.0554 2.0173 53.1979 2.0173 34.9999C2.0173 16.7021 16.8444 1.9443 35 1.9443L36.0087 1.9443L36.0087 68.0554M33.9914 3.9386C17.3487 4.43718 4.03459 18.1979 4.03459 34.9999C4.03459 51.8018 17.3487 65.4628 33.9914 66.0611L33.9914 3.9386"/>
	<path fill="#3BA7FF" d="M66.9742 35C66.9742 17.3006 52.6514 2.94155 35 2.94155L35 67.0583C52.6514 67.0583 66.9742 52.5997 66.9742 35"/>
	<path fill="#2D1B0A" d="M35 68.0554L33.9913 68.0554L33.9913 1.9443L35 1.9443C53.1556 1.9443 67.9827 16.7021 67.9827 34.9999C67.9827 53.1979 53.2564 68.0554 35 68.0554M36.0086 3.9386L36.0086 66.0611C52.6512 65.5625 65.9654 51.8018 65.9654 34.9999C65.9654 18.1979 52.6512 4.53689 36.0086 3.9386"/>
</svg>
