<?xml version="1.0" encoding="utf-8" ?>
<svg xmlns="http://www.w3.org/2000/svg" xmlns:xlink="http://www.w3.org/1999/xlink" width="22" height="114">
	<path fill="white" d="M10.6972 114C7.66972 114 6.3578 111.984 6.3578 110.472L6.3578 104.122C6.15596 101.3 5.34862 87.6923 4.54128 82.8541C4.23853 80.2334 3.43119 76.8064 2.62385 73.5809C2.42202 72.8753 2.22018 72.1698 2.11927 71.3634C1.91743 70.4562 1.7156 69.5491 1.51376 68.7427C1.00917 66.9284 0.605505 65.2149 0.504587 64.0053C0.201835 60.2759 0 32.6578 0 7.76127C0.807339 4.7374 3.93578 0.201592 10.7982 0C17.7615 0 21.0917 4.33422 21.8991 6.65252C22 40.0159 21.7982 60.4775 21.2936 63.4005C21.0917 65.4164 20.4862 68.0371 19.6789 70.9602L19.1743 72.9761C18.9725 73.8833 18.7706 74.7905 18.4679 75.7984C17.8624 78.1167 17.3578 80.435 16.8532 82.7533C15.7431 89.4058 15.2385 103.82 15.1376 105.13L15.0367 107.448L15.0367 110.17C14.8349 112.186 13.422 114 10.6972 114"/>
	<path fill="#3BA7FF" d="M10.5963 2.2679C17.2568 2.2679 18.9724 7.30769 18.9724 7.30769C18.9724 7.30769 18.9724 58.8143 18.266 63.2493C17.7614 67.5835 15.4403 75.1432 13.9266 82.5013C12.7156 89.6578 12.3119 105.18 12.3119 105.18L9.28436 105.18C9.28436 105.18 8.3761 88.0451 7.36693 82.5013C6.6605 76.8568 3.83482 67.7851 3.02748 63.4509C2.52289 58.9151 2.52289 7.81167 2.52289 7.81167C2.52289 7.81167 3.83482 2.46949 10.5963 2.2679"/>
	<path fill="#2D1B0A" d="M13.2201 106.138L8.27519 106.138C8.17427 105.029 7.26601 88.0954 6.25684 82.6525C5.85317 79.2254 4.64216 74.5888 3.53207 70.4562C2.82564 67.8355 2.22014 65.4164 1.91739 63.6021C1.4128 58.9655 1.4128 9.77714 1.4128 7.76123C1.4128 7.35805 3.1284 1.51189 10.4954 1.3103C17.8623 1.3103 19.6789 6.75327 19.7798 7.05566C19.7798 9.47476 19.7798 59.0663 19.0734 63.4005C18.7706 65.9204 17.8623 69.549 16.8532 73.6817C16.1467 76.6047 15.3394 79.6286 14.7339 82.6525C13.6238 89.6074 13.1192 105.029 13.1192 105.13L13.2201 106.138M10.0917 104.122L11.2018 104.122C11.3027 100.594 11.8073 88.4986 12.8165 82.2493C13.422 79.1246 14.2293 76.1008 14.9357 73.0769C15.9449 69.1458 16.8532 65.5172 17.1559 62.9973C17.6605 59.5702 17.8623 25.1989 17.8623 7.35805C17.5596 6.65248 15.844 3.22542 10.4954 3.22542C5.14674 3.42701 3.63298 7.05566 3.43115 7.76123C3.43115 10.8859 3.43115 58.8647 3.93574 63.1989C4.23849 64.8116 4.84399 67.2307 5.55041 69.7506C6.66051 73.8832 7.87152 78.7214 8.27519 82.1485C9.08252 87.1883 9.88986 100.493 10.0917 104.122"/>
	<path fill="#FFD05A" d="M9.18344 104.928L12.211 104.928L12.211 110.371C12.211 110.371 12.211 111.682 10.7981 111.682C9.18344 111.682 9.18344 110.371 9.18344 110.371L9.18344 104.928"/>
	<path fill="#2D1B0A" d="M10.7981 112.69C8.88068 112.69 8.17426 111.278 8.17426 110.371L8.17426 103.92L13.2201 103.92L13.2201 110.371C13.2201 111.278 12.6146 112.69 10.7981 112.69M10.1926 105.936L10.1926 110.371C10.1926 110.371 10.1926 110.674 10.7981 110.674C10.899 110.674 11.2018 110.674 11.2018 110.371L11.2018 105.936L10.1926 105.936"/>
	<path fill="#D7FBFF" d="M8.47708 47.0716L13.3211 47.0716L13.3211 54.4297L8.47708 54.4297L8.47708 47.0716"/>
	<path fill="#2D1B0A" d="M14.3303 55.4377L7.46791 55.4377L7.46791 46.0637L14.3303 46.0637L14.3303 55.4377M9.48626 53.4218L12.3119 53.4218L12.3119 48.0796L9.48626 48.0796L9.48626 53.4218"/>
	<path fill="#D7FBFF" d="M7.06417 31.9523L7.06417 41.4272C7.06417 42.0319 7.56876 42.5359 8.27518 42.5359L13.1192 42.5359C13.8256 42.5359 14.3302 42.1327 14.3302 41.4272L14.3302 31.9523C14.3302 31.3475 13.8256 30.8436 13.1192 30.8436L8.27518 30.8436C7.56876 30.8436 7.06417 31.3475 7.06417 31.9523"/>
	<path fill="#2D1B0A" d="M13.1192 43.5438L8.27518 43.5438C6.96326 43.5438 6.055 42.6367 6.055 41.4271L6.055 31.9523C6.055 30.7428 6.96326 29.8356 8.27518 29.8356L13.1192 29.8356C14.4312 29.8356 15.3394 30.7428 15.3394 31.9523L15.3394 41.4271C15.2385 42.6367 14.3302 43.5438 13.1192 43.5438M8.27518 31.9523C8.17427 31.9523 8.07335 31.9523 8.07335 31.9523L8.07335 41.4271C8.07335 41.4271 8.17427 41.5279 8.27518 41.5279L13.1192 41.5279C13.2201 41.5279 13.3211 41.5279 13.3211 41.5279L13.3211 32.0531C13.3211 32.0531 13.2201 31.9523 13.1192 31.9523L8.27518 31.9523"/>
</svg>
