<?xml version="1.0" encoding="utf-8" ?>
<svg xmlns="http://www.w3.org/2000/svg" xmlns:xlink="http://www.w3.org/1999/xlink" width="114" height="90">
	<path fill="white" d="M107.947 42.717L101.188 39.5716C100.784 39.3687 100.481 39.1657 100.179 38.7599L86.0549 14.9154C83.7345 11.77 80.3044 9.94363 76.5717 9.63923L72.3345 0L59.3204 0L55.1841 9.53777L9.68496 9.53777C4.33805 9.53777 0 13.9008 0 19.2785L0 67.5761C0 72.8523 4.33805 77.2153 9.58407 77.2153L11.9044 77.2153C12.5097 84.3179 18.4619 89.8985 25.7257 89.8985C32.9894 89.8985 38.9416 84.3179 39.5469 77.2153L71.7292 77.2153C72.3345 84.4194 78.2867 90 85.5504 90C92.8142 90 98.7664 84.3179 99.3717 77.2153L106.434 77.2153C110.57 77.2153 114 73.867 114 69.6054L114 55.1973C114 52.0519 114 45.5581 107.947 42.717"/>
	<path fill="#F4F8F9" d="M3.0265 18.9755L3.0265 67.2731C3.0265 70.9259 5.95216 73.8684 9.58402 73.8684L106.433 73.8684C108.955 73.8684 110.973 71.8391 110.973 69.3024L110.973 54.8943C110.973 50.7342 110.468 46.8785 106.635 45.1536L99.8761 42.0082C98.9681 41.6023 98.161 40.9935 97.6566 40.1818L83.5327 16.3374C81.6159 13.8007 78.6902 12.2763 75.4619 12.2763L9.78579 12.2763C5.95216 12.2763 3.0265 15.2213 3.0265 18.9755"/>
	<path fill="#2D1B0A" d="M106.434 74.8816L9.58407 74.8816C5.44779 74.8816 2.0177 71.4318 2.0177 67.2717L2.0177 18.9741C2.0177 14.7125 5.44779 11.2627 9.68496 11.2627L75.3611 11.2627C78.7912 11.2627 82.1204 12.8862 84.2389 15.7272L98.4637 39.6731C98.8673 40.2819 99.4726 40.7892 100.28 41.0936L107.039 44.239C111.377 46.2683 111.983 50.5299 111.983 54.8929L111.983 69.301C111.983 72.345 109.46 74.8816 106.434 74.8816M9.78584 13.1905C6.65841 13.1905 4.13628 15.7272 4.13628 18.8726L4.13628 67.1703C4.13628 70.2142 6.65841 72.7509 9.68496 72.7509L106.535 72.7509C108.452 72.7509 110.066 71.1274 110.066 69.1996L110.066 54.7914C110.066 50.5299 109.46 47.3845 106.333 45.9639L99.5735 42.8185C98.5646 42.3112 97.6566 41.6009 96.9504 40.6877L82.8265 16.7418C81.1115 14.5096 78.3876 13.0891 75.5628 13.0891L9.78584 13.0891"/>
	<path fill="#FF6F64" d="M3.9345 56.2119L110.873 56.2119L110.873 61.1837L3.9345 61.1837L3.9345 56.2119"/>
	<path fill="#2D1B0A" d="M111.882 62.2999L2.9256 62.2999L2.9256 55.2987L111.882 55.2987L111.882 62.2999M4.9433 60.2706L109.864 60.2706L109.864 57.328L4.9433 57.328L4.9433 60.2706"/>
	<path fill="#704C28" d="M14.931 75.6933C14.931 81.6798 19.7734 86.5501 25.7257 86.5501C31.6779 86.5501 36.5203 81.6798 36.5203 75.6933C36.5203 69.7068 31.6779 64.8365 25.7257 64.8365C19.7734 64.8365 14.931 69.7068 14.931 75.6933"/>
	<path fill="#2D1B0A" d="M25.8264 87.5648C19.2689 87.5648 14.0229 82.1871 14.0229 75.6933C14.0229 69.1995 19.3698 63.8218 25.8264 63.8218C32.384 63.8218 37.63 69.1995 37.63 75.6933C37.63 82.1871 32.2831 87.5648 25.8264 87.5648M25.8264 65.8511C20.3787 65.8511 16.0406 70.3156 16.0406 75.6933C16.0406 81.071 20.4795 85.5354 25.8264 85.5354C31.1733 85.5354 35.6123 81.071 35.6123 75.6933C35.6123 70.3156 31.1733 65.8511 25.8264 65.8511"/>
	<path fill="#704C28" d="M74.7557 75.7821C74.7557 81.7813 79.5982 86.6516 85.5504 86.6516C91.5026 86.6516 96.3451 81.7813 96.3451 75.7821C96.3451 71.9391 94.3274 68.2863 90.8973 66.3585C87.5681 64.4306 83.4318 64.4306 80.1026 66.3585C76.8743 68.2863 74.7557 71.8376 74.7557 75.7821"/>
	<path fill="#2D1B0A" d="M85.5504 87.6663C78.9929 87.6663 73.7469 82.2886 73.7469 75.8075C73.7469 71.5332 75.9664 67.5761 79.6991 65.5468C83.331 63.416 87.8708 63.416 91.5027 65.5468C95.1345 67.6776 97.4549 71.6347 97.4549 75.8075C97.4549 82.2886 92.108 87.6663 85.5504 87.6663M85.5504 65.9527C83.8354 65.9527 82.1204 66.3585 80.6071 67.2717C77.5805 68.9966 75.6637 72.345 75.6637 75.8075C75.6637 81.274 80.1027 85.637 85.4496 85.637C90.7965 85.637 95.2354 81.1725 95.2354 75.8075C95.2354 72.2435 93.3186 68.9966 90.292 67.2717C88.9805 66.3585 87.2655 65.9527 85.5504 65.9527"/>
	<path fill="#FFCF48" d="M74.2513 11.4656L57.6053 11.4656L61.4389 2.63811L70.4177 2.63811L74.2513 11.4656"/>
	<path fill="#2D1B0A" d="M75.7646 12.4803L55.9911 12.4803L60.7327 1.62345L71.023 1.62345L75.7646 12.4803M59.1186 10.451L72.7381 10.451L69.8123 3.65276L62.1451 3.65276L59.1186 10.451"/>
	<path fill="#3BA7FF" d="M83.0282 43.0214L67.1893 43.0214C66.4831 43.0214 65.8778 42.4126 65.8778 41.7023L65.8778 21.5106C65.8778 20.8003 66.4831 20.1916 67.1893 20.1916L72.0318 20.1916C73.0406 20.1916 74.1504 20.4959 74.8566 21.0033C74.9575 21.1047 75.0583 21.2062 75.1592 21.4091L85.9539 38.7598C87.1645 40.7891 86.2566 43.0214 83.0282 43.0214"/>
	<path fill="#2D1B0A" d="M83.0282 44.0361L67.1892 44.0361C65.8777 44.0361 64.8689 43.0214 64.8689 41.7024L64.8689 21.5107C64.8689 20.1917 65.8777 19.177 67.1892 19.177L72.0317 19.177C73.3432 19.177 74.5539 19.5829 75.4618 20.1917C75.6636 20.3946 75.8654 20.5975 76.0671 20.8004L86.8618 38.2525C87.6689 39.5716 87.7698 40.9921 87.0636 42.1082C86.6601 42.8185 85.5503 44.0361 83.0282 44.0361M67.1892 21.2063C66.9875 21.2063 66.8866 21.3078 66.8866 21.5107L66.8866 41.7024C66.8866 41.9053 66.9875 42.0068 67.1892 42.0068L83.0282 42.0068C84.2388 42.0068 85.0459 41.7024 85.3485 41.0936C85.6512 40.5862 85.5503 39.9775 85.1468 39.2672L74.3521 21.9166C74.3521 21.9166 74.3521 21.8151 74.2512 21.8151C73.7468 21.4092 72.9397 21.2063 72.0317 21.2063L67.1892 21.2063"/>
	<path fill="#FF6F64" d="M42.2708 29.4251L34.2 29.4251L34.2 21.3078L26.1292 21.3078L26.1292 29.4251L18.0583 29.4251L18.0583 37.5423L26.1292 37.5423L26.1292 45.6595L34.2 45.6595L34.2 37.5423L42.2708 37.5423L42.2708 29.4251"/>
	<path fill="#2D1B0A" d="M35.2089 46.7756L25.1204 46.7756L25.1204 38.6583L17.0496 38.6583L17.0496 28.5118L25.1204 28.5118L25.1204 20.3945L35.2089 20.3945L35.2089 28.5118L43.2797 28.5118L43.2797 38.6583L35.2089 38.6583L35.2089 46.7756M27.1381 44.7462L33.1912 44.7462L33.1912 36.629L41.262 36.629L41.262 30.5411L33.1912 30.5411L33.1912 22.4238L27.1381 22.4238L27.1381 30.5411L19.0673 30.5411L19.0673 36.629L27.1381 36.629L27.1381 44.7462"/>
</svg>
