<?xml version="1.0" encoding="utf-8" ?>
<svg xmlns="http://www.w3.org/2000/svg" xmlns:xlink="http://www.w3.org/1999/xlink" width="102" height="82">
	<path fill="white" d="M56.8445 82C55.8439 81.6948 54.2429 81.2878 52.6418 79.9653L51.341 78.8462L50.0402 79.9653C49.0396 80.8809 47.9389 81.3896 46.4379 81.5931L7.21329 81.7965C6.1126 81.5931 2.81052 80.8809 1.00939 77.6253C0.208887 76.3027 -0.791742 73.3524 1.00939 69.0794L14.1176 40.1861L14.1176 14.7519C12.9169 12.4119 11.516 8.64764 12.9169 5.29032C13.8174 2.84864 15.9188 1.11911 18.7205 0.305211L33.0295 0C35.5311 0.508685 37.3322 1.83127 38.4329 3.866C39.8338 6.6129 39.7337 9.97022 37.9326 13.938L37.7325 40.0844L51 68.5707L64.049 39.9826L64.049 14.7519C62.1478 10.7841 61.7476 7.83375 62.6481 5.18859C63.2485 3.45906 64.8495 1.22084 68.6519 0L82.5607 0C85.2624 0.508685 87.0635 1.72953 88.1642 3.866C89.5651 6.51117 89.3649 9.97022 87.5638 13.938L87.3637 40.0844L101.272 69.995C101.673 71.5211 102.773 74.9801 101.072 77.9305C99.9716 79.8635 98.0704 81.1861 95.769 81.5931L56.8445 81.6948"/>
	<path fill="#F4F8F9" d="M67.5331 40.9999L67.5331 13.8871C67.5331 13.8871 62.2298 5.84983 69.4342 3.71335L82.1423 3.71335C82.1423 3.71335 88.5462 4.42551 83.8434 13.4801L83.8434 40.9999L98.1524 71.7753C98.1524 71.7753 100.054 77.1674 95.0504 78.2865L56.8264 78.2865C56.8264 78.2865 51.1228 77.2691 54.2247 70.5546L67.5331 40.9999"/>
	<path fill="#2D1B0A" d="M95.1687 79.3039L56.6444 79.3039C56.5444 79.3039 54.0428 78.7953 52.842 76.557C51.9415 74.8275 52.1416 72.691 53.2423 70.0459L66.5507 40.8474L66.5507 14.1923C65.9503 13.1749 63.949 9.41064 65.0497 6.25679C65.6501 4.52727 67.051 3.30642 69.2524 2.696L82.3606 2.696C82.4607 2.696 84.9622 3.00121 86.0629 5.23942C87.1636 7.27416 86.7634 10.1228 84.8622 13.6836L84.8622 40.6439L99.0711 71.2667C99.1712 71.4702 100.172 74.3188 98.871 76.6588C98.1705 77.9814 96.9698 78.7953 95.2687 79.2022M56.9446 77.2692L94.9685 77.2692C96.0692 76.964 96.7697 76.557 97.1699 75.7431C97.9704 74.2171 97.27 72.0806 97.27 72.0806L82.8609 41.1526L82.8609 13.2766C84.562 10.0211 84.9622 7.68111 84.2618 6.25679C83.6614 5.03595 82.3606 4.83248 82.1605 4.73074L69.7527 4.73074C68.2517 5.13769 67.3512 5.95158 67.051 6.96895C66.2505 9.10543 67.8515 12.2593 68.5519 13.2766L68.752 41.2543L55.3436 70.8598C54.443 72.7928 54.2429 74.4206 54.8433 75.5397C55.2436 76.7605 56.6444 77.1675 56.9446 77.2692"/>
	<path fill="#F4F8F9" d="M4.31138 70.7581C1.70974 77.5745 7.41333 78.4901 7.41333 78.4901L45.6374 78.4901C50.6405 77.4727 48.7393 71.9789 48.7393 71.9789L34.4303 41.2035L34.4303 13.6837C38.733 4.52732 32.7292 3.9169 32.7292 3.9169L19.8211 3.9169C12.8167 5.8499 17.9199 14.0906 17.9199 14.0906L17.9199 41.2035L4.31138 70.7581"/>
	<path fill="#2D1B0A" d="M45.6375 79.4566L7.11326 79.4566C7.0132 79.4566 4.41157 78.9479 3.21081 76.7097C2.31025 74.9802 2.31025 72.8437 3.31087 70.3003L16.7193 41L16.7193 14.3449C16.1189 13.3276 14.1177 9.35983 15.3184 6.30772C15.9188 4.67993 17.3197 3.56082 19.3209 2.9504L32.5292 2.9504C32.7294 2.9504 34.9308 3.15387 36.1315 5.29035C37.2322 7.32509 36.932 10.1737 35.2309 13.938L35.2309 40.8983L49.4399 71.5211C49.5399 71.7246 50.5406 74.7767 49.2397 77.0149C48.6394 78.3375 47.4386 79.1514 45.6375 79.4566M7.41345 77.4219L45.4374 77.4219C46.438 77.2184 47.1384 76.7097 47.5387 75.9975C48.3392 74.4715 47.6387 72.2333 47.6387 72.2333L33.2297 41.3052L33.2297 13.4293C35.2309 9.25809 34.9308 7.22335 34.4304 6.20598C33.8301 5.08688 32.5292 4.8834 32.5292 4.8834L19.8213 4.8834C18.4204 5.29035 17.6199 6.00251 17.2196 7.01988C16.4191 9.15636 17.9201 12.5137 18.5204 13.531L18.7206 41.407L5.11201 71.0124C4.41157 72.9454 4.3115 74.4715 4.91188 75.5906C5.71238 77.0149 7.11326 77.4219 7.41345 77.4219"/>
	<path fill="#3BA7FF" d="M3.89712 72.3351L18.106 41.2036L18.106 24.2134L33.8159 24.2134L33.7159 40.8983L48.225 72.4368C48.225 72.4368 50.4264 77.6254 46.0237 77.6254L5.39807 77.6254C5.298 77.5237 2.29612 75.7941 3.89712 72.3351"/>
	<path fill="#2D1B0A" d="M45.9377 78.541L5.01197 78.541C3.51103 77.7271 1.4097 75.3871 3.01071 72.0298L17.1196 41.1018L17.1196 23.2978L34.8307 23.2978L34.7307 40.6948L49.1397 72.0298C49.2398 72.335 50.4405 75.2854 49.2398 77.1167C48.7395 77.7271 47.8389 78.541 45.9377 78.541M5.61235 76.5062L45.9377 76.5062C46.7382 76.5062 47.2385 76.3028 47.4386 75.9976C47.939 75.1837 47.4386 73.3524 47.2385 72.8437L32.7294 41.2035L32.8295 25.4343L19.1208 25.3325L19.1208 41.5087L4.81184 72.8437C3.81121 74.8784 5.01197 76.0993 5.61235 76.5062"/>
	<path fill="#FFD05A" d="M55.5436 78.134L95.9689 78.134C100.572 78.134 98.1703 72.742 98.1703 72.742L84.6618 43.1365L67.0508 43.2382L53.9426 72.6402C52.4416 76.3028 55.5436 78.134 55.5436 78.134"/>
	<path fill="#2D1B0A" d="M96.0691 79.1514L55.3435 79.1514C53.7425 78.2358 51.6412 75.8958 53.1421 72.335L66.4505 42.3226L85.3624 42.2209L99.171 72.335C99.3712 72.6403 100.572 75.6924 99.2711 77.7271C98.8708 78.3375 97.9703 79.1514 96.0691 79.1514M55.8438 77.1167L95.969 77.1167C96.7695 77.1167 97.2698 76.9132 97.57 76.5063C98.0703 75.6924 97.57 73.8611 97.2698 73.1489L84.0615 44.1539L67.7513 44.2556L54.9432 73.0472C53.9426 75.3872 55.3435 76.7097 55.8438 77.1167"/>
</svg>
