<?xml version="1.0" encoding="utf-8" ?>
<svg xmlns="http://www.w3.org/2000/svg" xmlns:xlink="http://www.w3.org/1999/xlink" width="64" height="92">
	<path fill="white" d="M0 92L5.01567 80.0965L5.01567 65.7719L23.8746 65.7719L23.5737 0.201754L64 0L64 15.5351L39.2226 15.5351L37.7179 15.5351L37.7179 65.6711L56.8777 65.6711L56.8777 79.9956L61.8934 91.8991L0 91.8991M40.4263 86.1491L43.0345 79.5921L37.5172 79.5921L40.4263 86.1491M21.3668 85.8465L24.0752 79.5921L18.6583 79.5921L21.3668 85.8465"/>
	<path fill="#B7B7B7" d="M27.7867 4.84205L44.4388 4.84205L44.4388 11.2982L34.2067 11.2982L34.2067 69.6052L53.3666 69.6052L53.3666 81.206L46.9465 81.206L46.9465 76.1622L34.307 76.1622L34.307 81.206L27.887 81.206L28.0877 76.1622L15.4481 76.1622L15.4481 81.206L9.02805 81.206L9.02805 69.6052L27.887 69.6052L27.7867 4.84205"/>
	<path fill="#2D1B0A" d="M54.3697 82.2149L45.9434 82.2149L45.9434 77.171L35.3102 77.171L35.3102 82.2149L26.7835 82.2149L26.9842 77.171L16.3509 77.171L16.3509 82.2149L7.9246 82.2149L7.9246 68.5965L26.7835 68.5965L26.7835 3.83325L45.4418 3.83325L45.4418 12.3069L35.2099 12.3069L35.2099 68.5965L54.3697 68.5965L54.3697 82.2149M47.8494 80.1973L52.2632 80.1973L52.2632 70.614L33.1033 70.614L33.1033 10.2894L43.3353 10.2894L43.3353 5.85079L28.6895 5.85079L28.6895 70.614L9.83056 70.614L9.83056 80.1973L14.2444 80.1973L14.2444 75.1535L28.9904 75.1535L28.7898 80.1973L33.2036 80.1973L33.2036 75.1535L47.8494 75.1535L47.8494 80.1973"/>
	<path fill="#5DDEE2" d="M8.62693 81.0043L14.9467 81.0043L18.3573 88.4692L5.4169 88.4692"/>
	<path fill="#2D1B0A" d="M19.862 89.478L3.9122 89.478L7.92474 79.9955L15.5486 79.9955L19.862 89.478M6.9216 87.4604L16.7523 87.4604L14.2445 82.0131L9.22881 82.0131L6.9216 87.4604"/>
	<path fill="#5DDEE2" d="M24.3762 88.3683L37.3166 88.3683L34.1066 81.0043L27.6865 81.0043"/>
	<path fill="#2D1B0A" d="M38.8213 89.3771L22.8715 89.3771L27.0847 79.8946L34.8088 79.8946L38.8213 89.3771M25.8809 87.3595L35.7116 87.3595L33.4044 81.9122L28.2884 81.9122L25.8809 87.3595"/>
	<path fill="#5DDEE2" d="M43.4357 88.3683L56.1755 88.3683L53.0658 81.0043L46.6458 81.0043"/>
	<path fill="#2D1B0A" d="M57.5799 89.3771L41.931 89.3771L45.9436 79.8946L53.7681 79.8946L57.5799 89.3771M44.9404 87.3595L54.5705 87.3595L52.3636 81.9122L47.2477 81.9122L44.9404 87.3595"/>
	<path fill="#5DDEE2" d="M43.2351 3.93409L59.6865 3.93409L59.6865 12.1051L43.2351 12.1051L43.2351 3.93409"/>
	<path fill="#2D1B0A" d="M60.6897 13.0131L42.232 13.0131L42.232 2.82445L60.6897 2.82445L60.6897 13.0131M44.2382 10.9955L58.6834 10.9955L58.6834 4.84199L44.2382 4.84199L44.2382 10.9955"/>
</svg>
