<?xml version="1.0" encoding="utf-8" ?>
<svg xmlns="http://www.w3.org/2000/svg" xmlns:xlink="http://www.w3.org/1999/xlink" width="74" height="110">
	<path fill="white" d="M10.1231 110L10.1231 99.01L11.5403 87.3206L9.00953 87.3206L8.6046 65.8401C7.99721 58.247 6.57998 45.3588 4.0492 38.8647C1.51842 30.5722 2.1258 16.2852 2.53073 10.4905L2.63196 9.39146C0.607337 7.89282 -5e-05 6.39419 -5e-05 4.79564C-5e-05 2.198 2.22704 0 4.85905 0L30.673 0C33.305 0 35.5321 2.198 35.5321 4.79564C35.5321 6.39419 34.8235 7.79292 33.7099 8.6921L33.0014 10.3906C33.305 16.1853 33.5075 27.6748 30.9767 38.5649C30.5718 40.1635 30.1669 41.762 29.7619 43.1608L29.1546 45.5586C26.9275 54.4505 25.8139 58.7466 25.8139 65.5404L25.8139 81.7257L24.5991 83.1244C24.3967 83.5241 23.9918 83.9237 23.5869 84.3233L22.9795 97.6113L25.7127 110L10.1231 110M14.4761 26.8756L20.0438 26.8756L20.0438 16.7847L14.4761 16.7847L14.4761 26.8756"/>
	<path fill="#B7B7B7" d="M5.98566 6.4941L29.1676 6.4941C29.1676 6.4941 30.9897 23.4787 27.548 38.1653C24.106 52.5522 22.3852 56.9482 22.3852 65.7402C22.3852 71.7348 22.3852 78.4287 22.3852 80.7266C22.2839 80.8265 19.753 84.0236 19.753 84.0236L19.753 98.1108L21.5752 106.903L13.2743 106.903L13.2743 99.2098L15.0965 84.0236L12.1608 84.0236L11.8571 65.7402C11.8571 65.7402 10.5411 46.6576 6.99797 37.8656C4.06227 28.2743 5.98566 6.4941 5.98566 6.4941M11.3509 13.188L11.3509 30.772L23.2962 30.772L23.2962 13.188L11.3509 13.188M13.1731 41.9619C14.4891 46.258 15.4002 57.0481 15.4002 57.0481L18.9432 57.0481C18.9432 57.0481 19.753 46.9573 21.474 41.9619L13.1731 41.9619"/>
	<path fill="#2D1B0A" d="M22.8784 107.902L12.2491 107.902L12.2491 99.1099L13.9701 85.0227L11.2368 85.0227L10.9331 65.7402C10.9331 65.6403 9.61712 46.7575 6.07403 38.2652C3.13832 28.574 4.85925 7.29337 4.96048 6.39418L30.0658 5.495C30.1671 6.594 31.9892 23.7784 28.5474 38.3651C27.8387 41.4623 27.1301 44.1599 26.5227 46.4578C24.3969 54.8501 23.3846 58.9464 23.3846 65.7402L23.3846 81.2262C22.9796 81.6258 21.6636 83.3242 20.7526 84.4232L20.7526 98.1108L22.8784 107.902M14.2738 105.904L20.3476 105.904L18.7279 98.1108L18.7279 83.624C20.3476 81.5259 21.0562 80.7266 21.3599 80.327L21.3599 65.6403C21.3599 58.6467 22.4735 54.3506 24.5993 45.8583C25.2067 43.5604 25.8141 40.8628 26.624 37.7657C29.5597 25.3769 28.5474 10.99 28.2437 7.39327L6.88388 7.39327C6.58018 11.5895 5.46664 29.3733 7.99742 37.4659C11.5405 46.158 12.8565 64.7411 12.9578 65.5404L13.2614 82.9246L16.2984 82.9246L14.2738 99.1099L14.2738 105.904M19.7402 58.0472L14.375 58.0472C14.2738 57.0481 13.4639 46.4578 12.1479 42.2616L11.743 40.9628L22.7772 40.9628L22.3722 42.2616C20.7526 47.0572 19.8415 56.9482 19.8415 57.0481M16.2984 56.049L17.9181 56.049C18.1205 53.6512 18.8292 47.257 20.0439 42.9609L14.4762 42.9609C15.3873 46.9573 16.0959 53.6512 16.2984 56.049M24.2956 31.7711L10.3257 31.7711L10.3257 12.1889L24.2956 12.1889L24.2956 31.7711M12.3504 29.7729L22.271 29.7729L22.271 14.1871L12.3504 14.1871L12.3504 29.7729"/>
	<path fill="#FFCF48" d="M4.4542 3.09718L30.2682 3.09718C31.078 3.09718 31.8879 4.19618 31.8879 5.29518C31.8879 6.79382 31.078 7.89282 30.2682 7.89282L4.4542 7.89282C3.64435 7.89282 2.8345 6.79382 2.8345 5.29518C2.8345 4.396 3.74558 3.09718 4.4542 3.09718"/>
	<path fill="#2D1B0A" d="M30.3694 8.89191L4.55541 8.89191C3.13817 8.89191 1.9234 7.29337 1.9234 5.29518C1.9234 3.99636 2.93571 2.09809 4.55541 2.09809L30.3694 2.09809C31.8878 2.09809 33.0014 3.79655 33.0014 5.29518C32.9001 7.29337 31.7866 8.89191 30.3694 8.89191M4.55541 4.09627C4.35295 4.19618 3.94802 4.89555 3.94802 5.29518C3.94802 6.29428 4.35295 6.79382 4.55541 6.89373L30.3694 6.89373C30.4706 6.79382 30.9768 6.29428 30.9768 5.29518C30.9768 4.69573 30.5718 4.09627 30.3694 4.09627L4.55541 4.09627"/>
	<path fill="white" d="M48.5909 110L48.5909 99.01L50.0081 87.3206L47.4773 87.3206L47.0724 65.8401C46.465 58.247 45.0478 45.3588 42.517 38.8647C39.9862 30.5722 40.5936 16.2852 40.9985 10.4905L41.0998 9.39146C39.0751 7.89282 38.4678 6.39419 38.4678 4.79564C38.4678 2.198 40.6948 0 43.3269 0L69.1409 0C71.7729 0 73.9998 2.198 73.9998 4.79564C73.9998 6.39419 73.2913 7.79292 72.1777 8.6921L71.4691 10.3906C71.7729 16.1853 71.9753 27.6748 69.4445 38.5649C69.0396 40.1635 68.6347 41.762 68.2298 43.1608L67.6224 45.5586C65.3952 54.4505 64.2818 58.7466 64.2818 65.5404L64.2818 81.7257L63.0669 83.1244C62.8644 83.5241 62.4595 83.9237 62.0546 84.3233L61.4473 97.6113L64.1805 110L48.5909 110M52.7413 27.5749L59.0177 27.5749L59.0177 16.2852L52.7413 16.2852L52.7413 27.5749"/>
	<path fill="#B7B7B7" d="M44.4535 6.4941L67.6354 6.4941C67.6354 6.4941 69.4576 23.4787 66.0157 38.1653C62.5738 52.5522 60.8529 56.9482 60.8529 65.7402C60.8529 71.7348 60.8529 78.4287 60.8529 80.7266C60.7516 80.8265 58.2208 84.0236 58.2208 84.0236L58.2208 98.1108L60.043 106.903L51.7421 106.903L51.7421 99.2098L53.5643 84.0236L50.6286 84.0236L50.3249 65.7402C50.3249 65.7402 49.0089 46.6576 45.4658 37.8656C42.5301 28.2743 44.4535 6.4941 44.4535 6.4941M49.8187 13.188L49.8187 30.772L61.7639 30.772L61.7639 13.188L49.8187 13.188M51.6409 41.9619C52.9569 46.258 53.8679 57.0481 53.8679 57.0481L57.411 57.0481C57.411 57.0481 58.2208 46.9573 59.9418 41.9619L51.6409 41.9619"/>
	<path fill="#2D1B0A" d="M61.3462 107.902L50.7169 107.902L50.7169 99.1099L52.4379 85.0227L49.7046 85.0227L49.4009 65.7402C49.4009 65.6403 48.0849 46.7575 44.5418 38.2652C41.6061 28.574 43.3271 7.29337 43.4283 6.39418L68.5336 5.495C68.6349 6.594 70.457 23.7784 67.0152 38.3651C66.3065 41.4623 65.5979 44.1599 64.9905 46.4578C62.8647 54.8501 61.8524 58.9464 61.8524 65.7402L61.8524 81.2262C61.4474 81.6258 60.1314 83.3242 59.2204 84.4232L59.2204 98.1108L61.3462 107.902M52.7415 105.904L58.8154 105.904L57.1957 98.1108L57.1957 83.624C58.8154 81.5259 59.524 80.7266 59.8277 80.327L59.8277 65.6403C59.8277 58.6467 60.9413 54.3506 63.0671 45.8583C63.6745 43.5604 64.2819 40.8628 65.0918 37.7657C68.0275 25.3769 67.0152 10.99 66.7115 7.39327L45.3517 7.39327C45.048 11.5895 43.9344 29.3733 46.4652 37.4659C50.0083 46.158 51.3243 64.7411 51.4255 65.5404L51.7292 82.9246L54.7662 82.9246L52.7415 99.1099L52.7415 105.904M58.208 58.0472L52.8428 58.0472C52.7415 57.0481 51.9317 46.4578 50.6157 42.2616L50.2108 40.9628L61.245 40.9628L60.84 42.2616C59.2204 47.0572 58.3093 56.9482 58.3093 57.0481M54.7662 56.049L56.3859 56.049C56.5883 53.6512 57.297 47.257 58.5117 42.9609L52.944 42.9609C53.8551 46.9573 54.5637 53.6512 54.7662 56.049M62.7634 31.7711L48.7935 31.7711L48.7935 12.1889L62.7634 12.1889L62.7634 31.7711M50.8182 29.7729L60.7388 29.7729L60.7388 14.1871L50.8182 14.1871L50.8182 29.7729"/>
	<path fill="#FFCF48" d="M42.922 3.09718L68.736 3.09718C69.5458 3.09718 70.3557 4.19618 70.3557 5.29518C70.3557 6.79382 69.5458 7.89282 68.736 7.89282L42.922 7.89282C42.1121 7.89282 41.3023 6.79382 41.3023 5.29518C41.3023 4.396 42.2134 3.09718 42.922 3.09718"/>
	<path fill="#2D1B0A" d="M68.8372 8.89191L43.0232 8.89191C41.606 8.89191 40.3912 7.29337 40.3912 5.29518C40.3912 3.99636 41.4035 2.09809 43.0232 2.09809L68.8372 2.09809C70.3556 2.09809 71.4692 3.79655 71.4692 5.29518C71.3679 7.29337 70.2544 8.89191 68.8372 8.89191M43.0232 4.09627C42.8208 4.19618 42.4158 4.89555 42.4158 5.29518C42.4158 6.29428 42.8208 6.79382 43.0232 6.89373L68.8372 6.89373C68.9384 6.79382 69.4446 6.29428 69.4446 5.29518C69.4446 4.69573 69.0396 4.09627 68.8372 4.09627L43.0232 4.09627"/>
</svg>
