<?xml version="1.0" encoding="utf-8" ?>
<svg xmlns="http://www.w3.org/2000/svg" xmlns:xlink="http://www.w3.org/1999/xlink" width="66" height="92">
	<path fill="white" d="M66 19.9134C66 17.9221 65.1827 16.0303 63.7523 14.6364C62.322 13.2424 60.2787 12.4459 58.3375 12.4459C57.3158 12.4459 56.3963 12.645 55.4768 12.9438C55.4768 12.7446 55.4768 12.5455 55.4768 12.4459C55.4768 10.2554 54.5573 8.06493 52.9226 6.57143C51.2879 4.97836 49.0402 4.08225 46.7925 4.08225C44.5449 4.08225 42.2972 4.97836 40.6625 6.47186C40.356 6.77057 40.0495 7.06926 39.8452 7.46753C39.4365 5.97403 38.517 4.58008 37.3932 3.48485C35.5542 1.79221 33.1022 0.796537 30.6501 0.796537C28.096 0.796537 25.644 1.79221 23.9071 3.48485C23.0898 4.28139 22.3746 5.27706 21.8638 6.3723C21.2507 5.17749 20.5356 4.08225 19.514 3.18614C17.3684 1.1948 14.4056 0 11.4428 0C8.37771 0 5.41486 1.1948 3.37152 3.18614C1.22601 5.27706 0 8.06493 0 11.052C0 13.9394 1.22601 16.8268 3.37152 18.9178C5.10836 20.6104 7.4582 21.7057 9.91023 22.0043C6.02787 25.0909 3.67802 29.7706 3.67802 34.749C3.67802 40.026 6.13003 44.8052 10.5232 47.9913L12.3623 49.1861C12.4644 49.1861 17.6749 52.9697 10.8297 69L9.70589 73.1819C9.60373 73.8788 9.60373 74.6753 9.60373 75.3723C9.60373 84.5325 17.4706 92 27.0743 92C29.1176 92 31.2631 91.6017 33.2043 90.9047L38.2105 88.2164C53.7399 75.9697 62.8328 58.0476 63.1393 38.9307C63.1393 38.632 63.1393 38.4329 63.1393 38.2337C63.1393 34.3507 62.0154 30.6666 59.87 27.4805C61.5047 27.2814 62.935 26.4849 64.161 25.3896C65.1827 23.8961 66 21.9047 66 19.9134M40.1517 18.0216L35.452 18.0216C36.065 17.6233 36.678 17.2251 37.291 16.6277C37.8018 16.2294 38.2105 15.7316 38.517 15.2337C38.9257 16.2294 39.4365 17.2251 40.1517 18.0216M23.7028 16.6277C24.2136 17.1255 24.8266 17.6233 25.5418 18.0216L21.4551 18.0216C21.2507 18.0216 21.0464 18.0216 20.9442 18.0216C20.8421 18.0216 20.6377 18.0216 20.5356 18.0216C21.0464 17.026 21.7616 15.8312 22.1703 14.6364C22.5789 15.3334 23.0898 16.0303 23.7028 16.6277"/>
	<path fill="#FFD071" d="M53.6378 19.9134C53.6378 18.7186 54.1486 17.6234 54.966 16.7272C55.7833 15.9307 57.0093 15.4329 58.2353 15.4329C59.4613 15.4329 60.6874 15.9307 61.5047 16.7272C62.4242 17.5238 62.8329 18.7186 62.8329 19.9134C62.8329 21.1082 62.322 22.2035 61.5047 23.0996C60.6874 23.8961 59.4613 24.3939 58.2353 24.3939C57.0093 24.3939 55.7833 23.8961 54.966 23.0996C54.1486 22.303 53.6378 21.1082 53.6378 19.9134"/>
	<path fill="#2D1B0A" d="M58.3375 25.3896C56.805 25.3896 55.3747 24.7922 54.353 23.7965C53.3313 22.8009 52.7183 21.3074 52.7183 19.9134C52.7183 18.4199 53.3313 17.026 54.353 16.0303C55.3747 15.0346 56.9072 14.4372 58.3375 14.4372C59.87 14.4372 61.3004 15.0346 62.322 16.0303C63.3437 17.026 63.9567 18.4199 63.9567 19.9134C63.9567 21.4069 63.3437 22.8009 62.322 23.7965C61.3004 24.7922 59.87 25.3896 58.3375 25.3896M58.3375 16.4285C57.418 16.4285 56.3963 16.8268 55.7833 17.4242C55.0681 18.0216 54.7617 19.0173 54.7617 19.9134C54.7617 20.8095 55.1703 21.7056 55.7833 22.4026C56.4985 23 57.418 23.3983 58.3375 23.3983C59.257 23.3983 60.2787 23 60.8917 22.4026C61.6069 21.8052 61.9134 20.8095 61.9134 19.9134C61.9134 19.0173 61.5047 18.1212 60.8917 17.4242C60.2787 16.8268 59.3592 16.4285 58.3375 16.4285"/>
	<path fill="#FFD071" d="M41.1733 12.4459C41.1733 11.0519 41.7863 9.65801 42.808 8.66234C43.8297 7.66667 45.3621 7.06927 46.7925 7.06927C48.2228 7.06927 49.7553 7.66667 50.777 8.66234C51.7987 9.65801 52.4117 11.0519 52.4117 12.4459C52.4117 13.8398 51.7987 15.2338 50.777 16.2294C49.7553 17.2251 48.2228 17.8225 46.7925 17.8225C45.3621 17.8225 43.8297 17.2251 42.808 16.2294C41.7863 15.3333 41.1733 13.9394 41.1733 12.4459"/>
	<path fill="#2D1B0A" d="M46.7925 18.8182C45.0557 18.8182 43.3188 18.1212 42.0928 16.9264C40.8668 15.7316 40.1516 14.039 40.1516 12.4459C40.1516 10.7532 40.8668 9.16018 42.0928 7.96537C43.3188 6.77057 45.0557 6.0736 46.7925 6.0736C48.5293 6.0736 50.2662 6.77057 51.4921 7.96537C52.7181 9.16018 53.4333 10.7532 53.4333 12.4459C53.4333 14.1385 52.7181 15.7316 51.4921 16.9264C50.2662 18.2208 48.5293 18.8182 46.7925 18.8182M46.7925 8.16451C45.5665 8.16451 44.3405 8.66234 43.5232 9.45888C42.7058 10.2554 42.195 11.4502 42.195 12.5455C42.195 13.6407 42.7058 14.8355 43.5232 15.632C44.3405 16.4286 45.5665 16.9264 46.7925 16.9264C48.0185 16.9264 49.2445 16.4286 50.0619 15.632C50.8792 14.8355 51.39 13.6407 51.39 12.5455C51.39 11.4502 50.8792 10.2554 50.0619 9.45888C49.2445 8.56278 48.0185 8.16451 46.7925 8.16451"/>
	<path fill="#FFD071" d="M24.1114 10.1558C24.1114 8.46314 24.8266 6.87006 26.0526 5.77482C27.2786 4.58001 29.0154 3.98261 30.6501 3.98261C32.3869 3.98261 34.1238 4.67958 35.2476 5.77482C36.4736 6.96962 37.1888 8.56271 37.1888 10.1558C37.1888 11.7489 36.4736 13.4415 35.2476 14.5367C34.0216 15.7315 32.2848 16.3289 30.6501 16.3289C28.9133 16.3289 27.1764 15.632 26.0526 14.5367C24.7244 13.3419 24.1114 11.7489 24.1114 10.1558"/>
	<path fill="#2D1B0A" d="M30.6501 17.3246C28.709 17.3246 26.6656 16.5281 25.3374 15.2337C23.9071 13.8398 23.0898 12.0476 23.0898 10.0562C23.0898 8.06487 23.9071 6.27266 25.3374 4.87872C26.7678 3.48477 28.709 2.7878 30.6501 2.7878C32.5913 2.7878 34.6347 3.58434 35.9629 4.87872C37.3932 6.27266 38.2104 8.06487 38.2104 10.0562C38.2104 11.948 37.3932 13.8398 35.9629 15.2337C34.6347 16.6277 32.5913 17.3246 30.6501 17.3246M30.6501 4.87872C29.2198 4.87872 27.7894 5.47612 26.7678 6.4718C25.7461 7.46747 25.1331 8.76184 25.1331 10.1558C25.1331 11.5497 25.7461 12.9437 26.7678 13.8398C27.7894 14.8354 29.2198 15.4328 30.6501 15.4328C32.0805 15.4328 33.5107 14.8354 34.5325 13.8398C35.5541 12.8441 36.1672 11.4501 36.1672 10.1558C36.1672 8.76184 35.5541 7.36789 34.5325 6.4718C33.5107 5.37655 32.0805 4.87872 30.6501 4.87872"/>
	<path fill="#FFD071" d="M2.96288 10.9524C2.96288 8.86152 3.88238 6.77062 5.41489 5.27711C6.9474 3.78361 9.19508 2.88751 11.3406 2.88751C13.5883 2.88751 15.7338 3.78361 17.2663 5.27711C18.7988 6.77062 19.7183 8.86152 19.7183 10.9524C19.7183 13.0433 18.7988 15.1342 17.2663 16.6277C15.7338 18.1212 13.4861 19.0173 11.3406 19.0173C9.09292 19.0173 6.9474 18.1212 5.41489 16.6277C3.88238 15.2338 2.96288 13.1429 2.96288 10.9524"/>
	<path fill="#2D1B0A" d="M11.3406 20.013C8.88857 20.013 6.43655 19.0173 4.69971 17.3247C2.96287 15.6321 1.9412 13.342 1.9412 10.9524C1.9412 8.56282 2.96287 6.27277 4.69971 4.58013C6.43655 2.8875 8.88857 1.9914 11.3406 1.9914C13.7926 1.9914 16.2446 2.98707 17.9815 4.6797C19.7183 6.37234 20.74 8.66239 20.74 11.052C20.74 13.4416 19.7183 15.7316 17.9815 17.4243C16.2446 19.1169 13.8948 20.013 11.3406 20.013M11.3406 3.98273C9.39941 3.98273 7.45823 4.77927 6.13006 6.07364C4.69971 7.36802 3.98455 9.16021 3.98455 11.052C3.98455 12.8442 4.80189 14.736 6.13006 16.0303C7.45823 17.3247 9.39941 18.1212 11.3406 18.1212C13.2818 18.1212 15.223 17.3247 16.5511 16.0303C17.9815 14.736 18.6966 12.9438 18.6966 11.052C18.6966 9.16021 17.8793 7.36802 16.5511 6.07364C15.223 4.6797 13.2818 3.98273 11.3406 3.98273"/>
	<path fill="#FFD071" d="M42.2464 21.0585C42.042 21.0585 41.9398 21.0585 41.7355 21.0585C41.5312 21.0585 41.429 21.0585 41.2247 21.0585L21.5064 21.0585C21.3021 21.0585 21.1999 21.0585 20.9955 21.0585C20.7913 21.0585 20.6891 21.0585 20.4847 21.0585C12.5157 21.4567 6.59 27.4307 6.59 34.6992C6.59 39.5779 9.34851 43.8594 13.4352 46.3484C13.7417 46.5477 21.8129 50.6299 13.4352 70.1451C12.72 71.7381 12.4135 73.4307 12.4135 75.3225C12.4135 82.8896 18.85 88.9632 26.8191 88.9632C30.2928 88.9632 33.4599 87.7684 36.0141 85.777C50.3175 74.5259 59.5126 57.5995 59.8191 38.5823C59.8191 38.3831 59.8191 38.2836 59.8191 38.0844C59.7169 28.8247 51.9522 21.3572 42.2464 21.0585"/>
	<path fill="#2D1B0A" d="M26.7169 89.909C18.237 89.909 11.2896 83.3376 11.2896 75.2727C11.2896 73.8787 11.494 72.4848 11.9026 71.0908L12.4135 69.6969C20.3825 51.277 13.2308 47.3939 13.1287 47.3939C8.02028 44.1082 5.4661 39.6277 5.4661 34.7488C5.4661 27.2813 11.2896 21.1082 18.9522 20.2121L20.3825 20.1125C20.4847 20.1125 20.4847 20.1125 20.5869 20.1125C20.7912 20.1125 20.9955 20.1125 21.1998 20.1125C21.302 20.1125 21.302 20.1125 21.4042 20.1125L41.1224 20.1125C41.2246 20.1125 41.2246 20.1125 41.3268 20.1125C41.5311 20.1125 41.7354 20.1125 41.9398 20.1125C42.0419 20.1125 42.0419 20.1125 42.1441 20.1125C52.463 20.4112 60.5342 28.3766 60.5342 38.2337C60.5342 38.3333 60.5342 38.5324 60.5342 38.632C60.2277 57.4502 51.4413 74.8744 36.3206 86.7229L34.6859 88.0173C32.4382 89.1125 29.5776 89.909 26.7169 89.909M14.9677 68.9999L14.3546 70.3939C13.7416 71.987 13.333 73.5801 13.333 75.1731C13.333 82.1428 19.3608 87.8181 26.7169 87.8181C29.7819 87.8181 32.8469 86.8224 35.1968 84.9307L36.3206 84.0346C50.2153 72.5843 58.2865 56.1558 58.593 38.5324C58.593 38.2337 58.593 38.1342 58.593 38.0346C58.593 29.2727 51.3391 22.2034 42.1441 21.9047C42.0419 21.9047 41.9398 21.9047 41.8376 21.9047C41.7354 21.9047 41.5311 21.9047 41.4289 21.9047C41.3268 21.9047 41.2246 21.9047 41.1224 21.9047L21.4042 21.9047C21.302 21.9047 21.1998 21.9047 21.0977 21.9047C20.9955 21.9047 20.7912 21.9047 20.689 21.9047C20.5869 21.9047 20.4847 21.9047 20.3825 21.9047C13.0265 22.303 7.61161 27.8788 7.61161 34.5497C7.61161 38.9307 9.96146 43.013 13.946 45.303C15.785 46.5974 21.915 51.7749 14.9677 68.9999"/>
</svg>
