<?xml version="1.0" encoding="utf-8" ?>
<svg xmlns="http://www.w3.org/2000/svg" xmlns:xlink="http://www.w3.org/1999/xlink" width="38" height="82">
	<path fill="white" d="M35.0235 82C33.3368 82 32.047 80.7063 32.047 79.0146L32.047 77.1238L5.953 77.1238L5.953 78.716C5.953 80.4078 4.66319 81.7015 2.9765 81.7015C1.28982 81.7015 0 80.4078 0 78.716L0 2.98544C0 1.29369 1.28982 0 2.9765 0C4.66319 0 5.953 1.29369 5.953 2.98544L5.953 6.66748L32.047 6.66748L32.047 2.98544C32.047 1.29369 33.3368 0 35.0235 0C36.7102 0 38 1.29369 38 2.98544L38 78.915C38 80.7063 36.7102 82 35.0235 82"/>
	<path fill="#FFCF48" d="M2.87735 74.1879L2.87735 9.7025L34.6266 9.7025L34.6266 74.1879L2.87735 74.1879"/>
	<path fill="#2D1B0A" d="M35.6189 75.1831L1.88515 75.1831L1.88515 8.70735L35.6189 8.70735L35.6189 75.1831M3.86948 73.1927L33.6344 73.1927L33.6344 10.6976L3.86948 10.6976L3.86948 73.1927"/>
	<path fill="#2D1B0A" d="M2.77812 79.7609C2.18282 79.7609 1.78595 79.3628 1.78595 78.7657L1.78595 3.03515C1.78595 2.43806 2.18282 2.04 2.77812 2.04C3.37342 2.04 3.77028 2.43806 3.77028 3.03515L3.77028 78.7657C3.77028 79.2633 3.37342 79.7609 2.77812 79.7609"/>
	<path fill="#2D1B0A" d="M34.8252 79.9598C34.2299 79.9598 33.833 79.5617 33.833 78.9647L33.833 3.03505C33.833 2.43796 34.2299 2.0399 34.8252 2.0399C35.4205 2.0399 35.8173 2.43796 35.8173 3.03505L35.8173 78.9647C35.8173 79.5617 35.3212 79.9598 34.8252 79.9598"/>
	<path fill="#2D1B0A" d="M34.2297 22.739L2.97652 22.739C2.38122 22.739 1.98435 22.3409 1.98435 21.7439C1.98435 21.1468 2.38122 20.7487 2.97652 20.7487L34.2297 20.7487C34.825 20.7487 35.2219 21.1468 35.2219 21.7439C35.2219 22.3409 34.825 22.739 34.2297 22.739"/>
	<path fill="#2D1B0A" d="M33.833 44.2341L2.87737 44.2341C2.28207 44.2341 1.8852 43.836 1.8852 43.239C1.8852 42.6419 2.28207 42.2438 2.87737 42.2438L33.833 42.2438C34.4283 42.2438 34.8251 42.6419 34.8251 43.239C34.8251 43.836 34.4283 44.2341 33.833 44.2341"/>
	<path fill="#2D1B0A" d="M34.726 63.8385L3.27422 63.8385C2.67892 63.8385 2.28205 63.4404 2.28205 62.8434C2.28205 62.2463 2.67892 61.8482 3.27422 61.8482L34.726 61.8482C35.3213 61.8482 35.7181 62.2463 35.7181 62.8434C35.7181 63.4404 35.222 63.8385 34.726 63.8385"/>
</svg>
