<?xml version="1.0" encoding="utf-8" ?>
<svg xmlns="http://www.w3.org/2000/svg" xmlns:xlink="http://www.w3.org/1999/xlink" width="70" height="70">
	<path fill="white" d="M3.84393 70C1.71965 70 0 68.1792 0 65.9538L0 3.84393C0 1.71965 1.71965 0 3.84393 0L65.9538 0C68.1792 0 70 1.71965 70 3.84393L70 65.9538C70 68.1792 68.1792 70 65.9538 70L3.84393 70"/>
	<path fill="#7DD8DB" d="M3.39519 2.4783L66.4155 2.4783C67.0224 2.4783 67.427 2.88292 67.427 3.28755L67.427 66.3078C67.427 66.9147 67.0224 67.3193 66.4155 67.3193L3.39519 67.3193C2.99056 67.3193 2.57285 66.9147 2.57285 66.3078L2.57285 3.28755C2.57285 2.88292 2.99056 2.4783 3.39519 2.4783"/>
	<path fill="#2D1B0A" d="M66.4089 68.4321L3.38871 68.4321C2.37715 68.4321 1.5679 67.5217 1.5679 66.4089L1.5679 3.38871C1.5679 2.37715 2.37715 1.5679 3.38871 1.5679L66.4089 1.5679C67.5217 1.5679 68.4321 2.37715 68.4321 3.38871L68.4321 66.4089C68.4321 67.5217 67.5217 68.4321 66.4089 68.4321M3.48987 66.4089L66.3078 66.4089L66.3078 3.59102L3.48987 3.59102L3.48987 66.4089"/>
	<path fill="white" d="M13.0492 43.1937C14.0607 46.7341 13.8584 50.9827 13.8584 50.9827C13.4538 53.6127 13.8584 58.5694 13.8584 58.5694C14.6677 64.133 20.2312 62.5145 20.2312 62.5145C24.581 59.6821 23.5694 55.1301 22.4567 51.185C21.344 47.2399 24.4798 44.0029 24.4798 44.0029C24.4798 44.0029 27.3122 40.4624 27.3122 37.6301C27.3122 34.7977 25.6937 32.4711 19.3208 32.981C12.948 33.4827 12.7295 38.8439 12.7295 38.8439C12.7295 40.8671 13.0492 43.1937 13.0492 43.1937"/>
	<path fill="#2D1B0A" d="M18.5116 63.1968C17.6012 63.1968 16.4885 62.9945 15.5781 62.3875C14.3642 61.5783 13.6561 60.3643 13.3526 58.5435C13.3526 58.3413 12.948 53.4858 13.3526 50.8557C13.3526 50.8557 13.5549 46.7083 12.5434 43.269C12.5434 43.0667 12.2237 40.7401 12.2237 38.717C12.2237 38.6158 12.5434 32.8499 19.3208 32.3497C22.659 32.1418 25.0868 32.5464 26.4018 33.8615C27.3122 34.6707 27.818 35.9858 27.818 37.5031C27.818 40.4366 24.9856 44.0783 24.8844 44.1794C24.7833 44.2806 21.9509 47.3153 22.9625 50.9569C24.1764 55.4078 25.0868 59.8586 20.5347 62.8932C20.3324 62.9945 19.5232 63.1968 18.5116 63.1968M13.5549 43.0667C14.5665 46.6072 14.3642 50.8557 14.3642 50.9569C13.9596 53.587 14.3642 58.4424 14.3642 58.4424C14.5665 59.8586 15.1734 60.8702 16.0839 61.4771C17.6012 62.4887 19.6243 61.9828 20.0208 61.8818C23.8729 59.3529 23.1648 55.3065 21.9509 51.1591C20.737 47.0117 23.974 43.6737 24.0752 43.4714C24.0752 43.4714 26.8064 40.032 26.8064 37.4019C26.8064 36.0869 26.4018 35.1765 25.6937 34.4684C24.581 33.4569 22.4567 33.0522 19.3208 33.3557C13.4538 33.7603 13.2515 38.4135 13.2515 38.6158C13.1503 40.7401 13.4538 42.8643 13.5549 43.0667"/>
	<path fill="white" d="M27.4133 33.4826C28.6272 33.4826 29.4364 32.0664 29.4364 30.448C29.4364 28.8294 28.6272 27.6156 27.4133 27.6156C26.1994 27.6156 25.1879 28.8294 25.1879 30.448C25.1879 32.0664 26.1994 33.4826 27.4133 33.4826"/>
	<path fill="#2D1B0A" d="M27.4133 33.9884C25.896 33.9884 24.6821 32.3699 24.6821 30.448C24.6821 28.526 25.896 27.1098 27.4133 27.1098C28.8295 27.1098 29.9422 28.526 29.9422 30.448C29.9422 32.4711 28.8295 33.9884 27.4133 33.9884M27.4133 28.1214C26.5029 28.1214 25.6937 29.1329 25.6937 30.448C25.6937 31.763 26.5029 32.9769 27.4133 32.9769C28.2226 32.9769 28.9306 31.8642 28.9306 30.448C28.9306 29.1329 28.3237 28.1214 27.4133 28.1214"/>
	<path fill="white" d="M23.0637 31.6618C23.8729 31.6618 24.4798 30.8526 24.4798 29.6387C24.4798 28.6271 23.8729 27.6156 23.0637 27.6156C22.2544 27.6156 21.6475 28.6271 21.6475 29.6387C21.6475 30.8526 22.2544 31.6618 23.0637 31.6618"/>
	<path fill="#2D1B0A" d="M23.0637 32.1676C21.9509 32.1676 21.1417 31.0549 21.1417 29.6387C21.1417 28.4248 21.9509 27.1098 23.0637 27.1098C24.1764 27.1098 24.9856 28.4248 24.9856 29.6387C24.9856 31.156 24.1764 32.1676 23.0637 32.1676M23.0637 28.1214C22.5579 28.1214 22.1532 28.8295 22.1532 29.6387C22.1532 30.5491 22.5579 31.156 23.0637 31.156C23.5694 31.156 23.9741 30.5491 23.9741 29.6387C23.9741 28.9306 23.5694 28.1214 23.0637 28.1214"/>
	<path fill="white" d="M19.6243 32.0665C20.2312 32.0665 20.8382 31.2572 20.8382 30.448C20.8382 29.4364 20.2312 28.6271 19.6243 28.6271C18.815 28.6271 18.4104 29.4364 18.4104 30.448C18.4104 31.2572 18.815 32.0665 19.6243 32.0665"/>
	<path fill="#2D1B0A" d="M19.6243 32.5722C18.6127 32.5722 17.9046 31.6618 17.9046 30.448C17.9046 29.0318 18.6127 28.1214 19.6243 28.1214C20.5347 28.1214 21.344 29.2341 21.344 30.448C21.344 31.5607 20.5347 32.5722 19.6243 32.5722M19.6243 29.1329C18.9162 29.1329 18.9162 30.2457 18.9162 30.448C18.9162 30.8526 19.0174 31.5607 19.6243 31.5607C19.9278 31.5607 20.3324 31.0549 20.3324 30.448C20.3324 29.6387 19.8266 29.1329 19.6243 29.1329"/>
	<path fill="white" d="M13.8584 34.6965C14.4653 34.6965 15.0723 33.8873 15.0723 32.8757C15.0723 32.0665 14.4653 31.2572 13.8584 31.2572C13.2515 31.2572 12.6445 32.0665 12.6445 32.8757C12.6445 33.8873 13.2515 34.6965 13.8584 34.6965"/>
	<path fill="#2D1B0A" d="M13.8584 35.2023C13.3526 35.2023 12.948 34.8988 12.6445 34.4942C12.3411 34.0896 12.1387 33.4826 12.1387 32.8757C12.1387 31.763 12.948 30.7514 13.8584 30.7514C14.7688 30.7514 15.5781 31.763 15.5781 32.8757C15.5781 34.1907 14.7688 35.2023 13.8584 35.2023M13.8584 31.763C13.5549 31.763 13.1503 32.2688 13.1503 32.8757C13.1503 33.2803 13.2515 33.5838 13.4538 33.8873C13.6561 34.0896 13.7572 34.1907 13.8584 34.1907C14.0607 34.1907 14.5665 33.685 14.5665 32.8757C14.5665 32.2688 14.1619 31.763 13.8584 31.763"/>
	<path fill="white" d="M16.6908 33.078C17.2977 33.078 17.9046 32.2688 17.9046 31.4595C17.9046 30.4479 17.2977 29.841 16.6908 29.841C16.0838 29.841 15.4769 30.4479 15.4769 31.4595C15.4769 32.2688 16.0838 33.078 16.6908 33.078"/>
	<path fill="#2D1B0A" d="M16.6908 33.5838C15.7804 33.5838 14.9711 32.5722 14.9711 31.4595C14.9711 30.1445 15.8815 29.3352 16.6908 29.3352C17.5 29.3352 18.4104 30.1445 18.4104 31.4595C18.4104 32.5722 17.6012 33.5838 16.6908 33.5838M16.6908 30.3468C16.3873 30.3468 15.9827 30.7514 15.9827 31.4595C15.9827 32.0664 16.3873 32.5722 16.6908 32.5722C16.9942 32.5722 17.3989 32.0664 17.3989 31.4595C17.3989 30.7514 16.9942 30.3468 16.6908 30.3468"/>
	<path fill="white" d="M56.6474 42.9914C55.6358 46.5318 56.0405 50.7803 56.0405 50.7803C56.4451 53.4104 56.0405 58.3671 56.0405 58.3671C55.2312 63.9307 49.6676 62.3122 49.6676 62.3122C45.1156 59.4798 46.1272 54.9277 47.4422 50.9827C48.4538 47.0376 45.2168 43.8006 45.2168 43.8006C45.2168 43.8006 42.3844 40.2601 42.3844 37.4277C42.3844 34.5954 44.0029 32.2688 50.3757 32.7787C56.7486 33.2803 56.9509 38.6416 56.9509 38.6416C57.2543 40.5636 56.6474 42.9914 56.6474 42.9914"/>
	<path fill="#2D1B0A" d="M51.3873 62.9958C50.3757 62.9958 49.5665 62.7935 49.4653 62.7935C44.711 59.7588 45.4191 55.2068 46.9364 50.7559C47.8468 47.2154 44.9133 44.0796 44.8122 44.0796C44.6098 43.8773 41.8786 40.3368 41.8786 37.3021C41.8786 35.6836 42.3844 34.4698 43.2948 33.6605C44.711 32.4466 47.0376 31.9409 50.3757 32.1583C57.1532 32.649 57.4566 38.4149 57.4566 38.516C57.7601 40.5391 57.1532 42.8657 57.1532 42.9669C56.1416 46.4062 56.5462 50.5536 56.5462 50.5536C56.9509 53.1836 56.5462 58.0391 56.5462 58.2414C56.2428 60.0622 55.5347 61.2761 54.3208 62.0854C53.4104 62.7935 52.2977 62.9958 51.3873 62.9958M49.87 61.7819C50.2746 61.8831 52.2977 62.2877 53.815 61.3773C54.7254 60.7703 55.3324 59.7588 55.5347 58.2414C55.5347 58.2414 55.9393 53.3859 55.5347 50.7559C55.5347 50.5536 55.13 46.305 56.1416 42.7646C56.1416 42.6634 56.7485 40.438 56.4451 38.6172C56.4451 38.3137 56.1416 33.6605 50.3757 33.2559C47.3411 32.9524 45.1156 33.3571 44.0029 34.3686C43.2948 35.0767 42.8902 35.9871 42.8902 37.3021C42.8902 39.9322 45.6214 43.3715 45.6214 43.3715C45.7226 43.4727 49.0607 46.8108 47.948 50.9582C46.7341 54.8021 45.7226 59.1518 49.87 61.7819"/>
	<path fill="white" d="M44.5087 30.1445C44.5087 28.526 43.4971 27.3121 42.4856 27.3121C41.2717 27.3121 40.2601 28.526 40.2601 30.1445C40.2601 31.763 41.2717 33.1792 42.4856 33.1792C43.4971 33.1792 44.5087 31.8642 44.5087 30.1445"/>
	<path fill="#2D1B0A" d="M42.4856 33.685C40.9682 33.685 39.7543 32.0665 39.7543 30.1445C39.7543 28.2225 40.9682 26.8064 42.4856 26.8064C43.9017 26.8064 45.0145 28.3237 45.0145 30.1445C45.0145 32.0665 43.9017 33.685 42.4856 33.685M42.4856 27.9191C41.5752 27.9191 40.7659 28.9306 40.7659 30.2457C40.7659 31.5607 41.5752 32.7746 42.4856 32.7746C43.1937 32.7746 44.0029 31.5607 44.0029 30.2457C44.0029 28.8295 43.1937 27.9191 42.4856 27.9191"/>
	<path fill="white" d="M47.948 29.4364C47.948 28.4249 47.341 27.4133 46.5318 27.4133C45.7226 27.4133 45.1156 28.4249 45.1156 29.4364C45.1156 30.6503 45.7226 31.4595 46.5318 31.4595C47.341 31.4595 47.948 30.6503 47.948 29.4364"/>
	<path fill="#2D1B0A" d="M46.5318 31.9653C45.4191 31.9653 44.6098 30.8526 44.6098 29.4364C44.6098 28.2225 45.4191 26.9075 46.5318 26.9075C47.6445 26.9075 48.4538 28.2225 48.4538 29.4364C48.4538 30.8526 47.6445 31.9653 46.5318 31.9653M46.5318 27.9191C46.026 27.9191 45.6214 28.6272 45.6214 29.4364C45.6214 30.3468 46.026 30.9538 46.5318 30.9538C47.0376 30.9538 47.4422 30.3468 47.4422 29.4364C47.4422 28.6272 47.0376 27.9191 46.5318 27.9191"/>
	<path fill="white" d="M51.4884 30.1445C51.4884 29.1329 50.8815 28.3237 50.2745 28.3237C49.6676 28.3237 49.0607 29.1329 49.0607 30.1445C49.0607 30.9538 49.6676 31.763 50.2745 31.763C50.8815 31.8642 51.4884 30.9538 51.4884 30.1445"/>
	<path fill="#2D1B0A" d="M50.2745 32.3699C49.3641 32.3699 48.5549 31.3584 48.5549 30.2457C48.5549 29.0318 49.3641 27.9191 50.2745 27.9191C51.1849 27.9191 51.9942 29.0318 51.9942 30.2457C51.9942 31.2572 51.1849 32.3699 50.2745 32.3699M50.2745 28.9306C50.0722 28.9306 49.5664 29.4364 49.5664 30.2457C49.5664 30.8526 49.9711 31.3584 50.2745 31.3584C50.578 31.3584 50.9826 30.8526 50.9826 30.2457C50.9826 29.4364 50.578 28.9306 50.2745 28.9306"/>
	<path fill="white" d="M57.0521 32.6734C57.0521 31.8642 56.6474 31.0549 56.0405 31.0549C55.2313 31.0549 54.8266 31.8642 54.8266 32.6734C54.8266 33.685 55.2313 34.4942 56.0405 34.4942C56.6474 34.4942 57.0521 33.685 57.0521 32.6734"/>
	<path fill="#2D1B0A" d="M56.0405 35C55.0289 35 54.3209 34.0896 54.3209 32.6734C54.3209 31.4595 55.0289 30.5491 56.0405 30.5491C56.9509 30.5491 57.5578 31.6619 57.5578 32.6734C57.5578 33.9884 56.9509 35 56.0405 35M56.0405 31.4595C55.4336 31.4595 55.3324 32.1676 55.3324 32.5723C55.3324 32.7746 55.3324 33.8873 56.0405 33.8873C56.2428 33.8873 56.5463 33.3815 56.5463 32.5723C56.5463 31.9653 56.2428 31.4595 56.0405 31.4595"/>
	<path fill="white" d="M54.1185 31.1561C54.1185 30.1445 53.5116 29.5376 52.9046 29.5376C52.2977 29.5376 51.6908 30.1445 51.6908 31.1561C51.6908 31.9653 52.2977 32.7746 52.9046 32.7746C53.5116 32.8757 54.1185 31.9653 54.1185 31.1561"/>
	<path fill="#2D1B0A" d="M52.9046 33.3815C51.9942 33.3815 51.185 32.3699 51.185 31.2572C51.185 29.9422 52.0954 29.1329 52.9046 29.1329C53.7139 29.1329 54.6243 29.9422 54.6243 31.2572C54.6243 32.2688 53.815 33.3815 52.9046 33.3815M52.9046 30.1445C52.6012 30.1445 52.1965 30.5491 52.1965 31.2572C52.1965 31.8642 52.6012 32.3699 52.9046 32.3699C53.2081 32.3699 53.6127 31.8642 53.6127 31.2572C53.6127 30.5491 53.3093 30.1445 52.9046 30.1445"/>
	<path fill="#FFCF48" d="M25.2906 16.5896C25.2906 11.2283 29.7414 6.97975 34.9004 6.97975C40.0593 6.97975 44.5103 11.4306 44.5103 16.5896C44.5103 21.9508 40.0593 26.1994 34.9004 26.1994C29.7414 26.1994 25.2906 21.9508 25.2906 16.5896"/>
	<path fill="#2D1B0A" d="M34.9004 27.211C29.0322 27.211 24.2775 22.4566 24.2775 16.5896C24.2775 10.7225 29.0322 5.9682 34.9004 5.9682C40.6659 5.9682 45.5233 10.8237 45.5233 16.5896C45.6229 22.4566 40.7671 27.211 34.9004 27.211M34.9004 7.89017C30.145 7.89017 26.3008 11.7341 26.3008 16.4884C26.3008 21.2428 30.145 25.0867 34.9004 25.0867C39.6543 25.0867 43.4985 21.2428 43.4985 16.4884C43.5997 11.9364 39.6543 7.89017 34.9004 7.89017"/>
	<path fill="white" d="M34.5954 15.9827C35.607 15.8815 33.685 10.1156 33.685 10.1156L34.5954 15.9827"/>
	<path fill="#2D1B0A" d="M33.685 17.0954L32.5723 10.318L34.4943 9.81218C36.3151 15.1734 35.7081 16.185 35.5058 16.4885C35.3035 16.792 34.8989 16.9943 34.5954 17.0954"/>
	<path fill="white" d="M37.0231 16.5896C37.0231 17.7628 36.072 18.7139 34.8988 18.7139C33.7256 18.7139 32.7745 17.7628 32.7745 16.5896C32.7745 15.4164 33.7256 14.4653 34.8988 14.4653C36.072 14.4653 37.0231 15.4164 37.0231 16.5896"/>
	<path fill="#2D1B0A" d="M34.8988 19.7254C33.1791 19.7254 31.763 18.3092 31.763 16.5896C31.763 14.8699 33.1791 13.4538 34.8988 13.4538C36.6185 13.4538 38.0346 14.8699 38.0346 16.5896C38.0346 18.3092 36.6185 19.7254 34.8988 19.7254M34.8988 15.4769C34.2919 15.4769 33.7861 15.9827 33.7861 16.5896C33.7861 17.1965 34.2919 17.7023 34.8988 17.7023C35.5057 17.7023 36.0115 17.1965 36.0115 16.5896C36.0115 15.9827 35.5057 15.4769 34.8988 15.4769"/>
</svg>
