<?xml version="1.0" encoding="utf-8" ?>
<svg xmlns="http://www.w3.org/2000/svg" xmlns:xlink="http://www.w3.org/1999/xlink" width="94" height="50">
	<path fill="white" d="M7.5678 50C1.99153 50 0 46.6327 0 43.7755L0 6.22449C0 2.85714 2.78814 0 6.07415 0C8.86229 0 10.9534 0.714286 12.3475 2.2449L38.0381 14.5918L85.3369 14.5918C86.2331 14.3878 87.0297 14.2857 87.9258 14.2857C91.2119 14.2857 94 17.1429 94 20.5102L94 42.9592C94 45.8163 92.0085 49.1837 86.4322 49.1837C83.1462 49.1837 80.3581 46.3265 80.3581 42.9592L80.3581 36.3265L13.8411 36.3265L13.8411 43.7755C13.8411 47.2449 10.9534 50 7.5678 50"/>
	<path fill="#7DD8DB" d="M7.36866 46.7347C3.48518 46.7347 2.9873 44.7959 2.9873 43.7755L2.9873 6.22448C2.9873 4.59183 4.38137 3.2653 5.87501 3.2653C8.46399 3.2653 9.75849 3.97959 10.1568 4.99999L37.142 17.8571L85.6356 17.8571C86.2331 17.6531 86.9301 17.551 87.8263 17.551C89.4195 17.551 90.714 18.9796 90.714 20.5102L90.714 42.9592C90.714 44.0816 90.1165 45.9184 86.3326 45.9184C84.7394 45.9184 83.4449 44.4898 83.4449 42.9592L83.4449 33.0612L10.6547 33.0612L10.6547 43.6735C10.5551 45.3061 9.16103 46.7347 7.36866 46.7347M26.786 25.5102L16.1314 20.6122L15.6335 25.5102L26.786 25.5102M10.5551 25.3061L11.2521 18.3673L10.5551 25.3061"/>
	<path fill="#2D1B0A" d="M7.36862 47.7551C2.38981 47.7551 1.9915 44.6939 1.9915 43.7755L1.9915 6.22449C1.9915 4.08163 3.78387 2.2449 5.87497 2.2449C8.96184 2.2449 10.2563 3.26531 10.8538 4.18368L37.2415 16.8367L85.3368 16.8367C86.0339 16.6327 86.7309 16.5306 87.6271 16.5306C89.7182 16.5306 91.5106 18.3673 91.5106 20.5102L91.5106 42.9592C91.5106 43.8776 91.1123 46.9388 86.1334 46.9388C84.0423 46.9388 82.25 45.102 82.25 42.9592L82.25 34.0816L11.4513 34.0816L11.4513 43.6735C11.5508 45.9184 9.65887 47.7551 7.36862 47.7551M5.87497 4.28572C4.87921 4.28572 3.98303 5.20408 3.98303 6.22449L3.98303 43.7755C3.98303 45.102 5.07836 45.7143 7.36862 45.7143C8.56353 45.7143 9.5593 44.7959 9.5593 43.7755L9.5593 32.1429L84.3411 32.1429L84.3411 43.0612C84.3411 44.0816 85.2373 45 86.233 45C88.4237 45 89.6186 44.3878 89.6186 43.0612L89.6186 20.6122C89.6186 19.5918 88.7224 18.6735 87.7267 18.6735C86.9301 18.6735 86.4322 18.7755 85.8347 18.9796L36.7436 19.0816L9.26057 5.91837C8.96184 4.69388 7.66735 4.28572 5.87497 4.28572M31.4661 26.5306L14.6377 26.5306L15.4343 19.0816L31.4661 26.5306M16.8284 24.4898L22.2055 24.4898L17.0275 22.1429L16.8284 24.4898M11.5508 25.4082L9.5593 25.3061L9.5593 16.5306L12.3474 17.7551L11.5508 25.4082"/>
	<path fill="#6CD5DD" d="M5.87499 5.4082C7.96609 5.4082 8.3644 5.81636 8.3644 6.22453L8.3644 27.6531L85.3369 27.6531L85.3369 30.8164L8.3644 30.8164L8.3644 43.5715C8.3644 43.9796 7.96609 44.3878 7.36864 44.3878C5.47669 44.3878 5.0655 43.9796 5.0655 43.5715L5.0655 6.02044C5.0655 5.81636 5.47669 5.4082 5.87499 5.4082"/>
	<path fill="#6CD5DD" d="M85.3369 20.5102L85.3369 42.9592C85.3369 43.3674 85.7352 43.7755 86.1335 43.7755C88.0254 43.7755 88.4237 43.3674 88.4237 42.9592L88.4237 20.5102C88.4237 20.1021 88.0254 19.6939 87.6271 19.6939C85.7352 19.6939 85.3369 20.1021 85.3369 20.5102"/>
	<path fill="#6CD5DD" d="M12.4456 27.7426L13.7181 15.5675L13.4357 27.8513"/>
	<path fill="white" d="M84.6897 18.8776L84.6897 25.8163C84.6897 26.2244 84.2914 26.6327 83.8931 26.6327L37.5901 26.6327L11.7999 14.6939C11.6007 14.6939 11.0033 14.4898 11.0033 13.8776L11.0033 6.12245L37.5901 18.8776L84.6897 18.8776"/>
	<path fill="#2D1B0A" d="M83.9429 27.7551L37.4408 27.7551L11.5509 15.8163C10.8539 15.7142 9.9577 15.102 9.9577 13.9796L9.9577 4.5918L37.8391 17.9591L85.7352 17.9591L85.7352 25.9183C85.7352 26.8367 84.8391 27.7551 83.9429 27.7551M37.8391 25.7142L83.7437 25.7142L83.7437 20L37.4408 20L12.0488 7.75507L12.0488 13.7755L37.8391 25.7142"/>
</svg>
