<?xml version="1.0" encoding="utf-8" ?>
<svg xmlns="http://www.w3.org/2000/svg" xmlns:xlink="http://www.w3.org/1999/xlink" width="104" height="76">
	<path fill="white" d="M102.944 17.4061C101.537 14.8762 98.8226 13.3582 96.0077 13.3582L24.8313 13.3582L13.8734 2.42876C12.3654 0.910786 10.3548 0 8.14306 0C5.93137 0 4.02127 0.809587 2.41276 2.32756C0.904785 3.84554 0 5.86951 0 8.09587C0 10.221 0.804253 12.3462 2.31223 13.8642L17.6936 29.5499L28.3499 29.5499L47.652 39.3662L28.0483 48.7776C26.842 48.3728 25.535 48.1704 24.1276 48.1704C16.5877 48.1704 10.3548 54.3435 10.3548 62.0346C10.3548 69.7257 16.4872 75.8988 24.1276 76C31.768 76 37.9004 69.7257 38.001 62.1358C38.001 58.4927 36.5935 55.1531 34.1808 52.6232L54.4882 42.9081L73.8908 52.7244C71.6791 55.1531 70.2716 58.4927 70.2716 62.0346C70.2716 69.7257 76.4041 75.8988 84.0445 76C91.6849 76 97.8173 69.7257 97.9178 62.1358C97.9178 54.4447 91.7854 48.2716 84.145 48.2716C82.637 48.2716 81.2296 48.474 79.8221 48.98L61.4248 39.6698L82.2349 29.7523L96.0077 29.7523C98.8226 29.7523 101.537 28.2344 102.944 25.7044C104.352 22.972 104.352 19.8349 102.944 17.4061M68.261 29.4487L54.6892 35.9254L41.9217 29.4487L68.261 29.4487M24.1276 61.9334C24.1276 61.8322 24.2281 61.731 24.3287 61.731C24.4292 61.731 24.5297 61.8322 24.5297 61.9334C24.5297 62.0346 24.4292 62.1358 24.3287 62.1358C24.1276 62.1358 24.1276 62.0346 24.1276 61.9334M84.3461 61.9334C84.3461 62.0346 84.2455 62.1358 84.145 62.1358C84.0445 62.1358 83.9439 62.0346 83.9439 61.9334C83.9439 61.8322 84.0445 61.731 84.145 61.731C84.2455 61.731 84.3461 61.8322 84.3461 61.9334"/>
	<path fill="#3BA7FF" d="M27.1435 25.0971L81.5311 52.7243"/>
	<path fill="#2D1B0A" d="M26.6186 25.8916L27.5242 24.0847L81.9156 51.7059L81.0099 53.513L26.6186 25.8916"/>
	<path fill="#3BA7FF" d="M27.1434 52.2183L82.8379 25.6031"/>
	<path fill="#2D1B0A" d="M26.5633 51.4174L82.2115 24.7673L83.0753 26.5949L27.427 53.2449L26.5633 51.4174"/>
	<path fill="#5288F5" d="M4.66193 11.3343C2.75183 9.3103 2.75183 6.17315 4.66193 4.14918C6.67256 2.22641 9.78904 2.22641 11.7997 4.14918L23.6624 15.9894L96.0452 15.9894C97.8547 15.9894 99.4632 16.9002 100.368 18.5194C101.273 20.0373 101.273 21.9601 100.368 23.5793C99.4632 25.0972 97.8547 26.1092 96.0452 26.1092L19.1385 26.1092L4.66193 11.3343"/>
	<path fill="#2D1B0A" d="M96.0075 27.2224L18.6987 27.2224L3.92059 12.1438C2.81474 11.0306 2.21155 9.41143 2.21155 7.79226C2.21155 6.17308 2.81474 4.65511 4.02112 3.54192C5.12697 2.42874 6.73547 1.82155 8.34398 1.82155C9.95249 1.82155 11.4605 2.42874 12.5663 3.64312L24.1274 15.1798L96.0075 15.1798C98.1188 15.1798 100.129 16.2929 101.235 18.2157C102.342 20.0373 102.342 22.3649 101.235 24.2875C100.129 26.0079 98.2192 27.2224 96.0075 27.2224M19.503 25.1984L96.0075 25.1984C97.415 25.1984 98.7219 24.3888 99.4257 23.1744C100.129 21.9601 100.129 20.4421 99.4257 19.1264C98.7219 17.9121 97.415 17.1026 96.0075 17.1026L23.1222 17.1026L10.9578 4.9587C10.1536 4.14911 9.14823 3.74432 8.14292 3.74432C7.03707 3.74432 6.03175 4.14911 5.32803 4.9587C4.52378 5.76829 4.12165 6.78027 4.12165 7.79226C4.12165 8.90544 4.52378 9.91742 5.32803 10.6258L19.503 25.1984"/>
	<path fill="#FFCF48" d="M24.3286 50.8017C18.3973 50.8017 13.5717 55.6592 13.4712 61.6299C13.4712 67.6006 18.1962 72.4582 24.2281 72.5594C30.1595 72.5594 35.0855 67.7018 35.0855 61.7311C35.0855 55.6592 30.26 50.8017 24.3286 50.8017M24.2281 64.8683C22.5191 64.8683 21.0111 63.4515 21.0111 61.6299C21.0111 59.9096 22.4185 58.3916 24.1276 58.3916C25.9371 58.3916 27.3446 59.8084 27.3446 61.6299C27.4451 63.4515 26.0377 64.8683 24.2281 64.8683"/>
	<path fill="#2D1B0A" d="M24.2295 73.5713C17.6938 73.5713 12.4658 68.2077 12.4658 61.6299C12.4658 55.1532 17.7943 49.7896 24.2295 49.7896C30.7636 49.7896 35.993 55.1532 35.993 61.6299C36.0922 68.2077 30.7636 73.5713 24.2295 73.5713M24.3293 51.8136C19.0008 51.8136 14.5771 56.1651 14.5771 61.6299C14.5771 67.0946 18.9002 71.4462 24.3293 71.5473C29.6577 71.5473 34.1819 67.0946 34.1819 61.731C34.0815 56.2663 29.7583 51.8136 24.3293 51.8136M24.2295 65.8801C21.9164 65.8801 20.0062 63.9575 20.0062 61.731C20.0062 59.4035 21.8158 57.4807 24.1282 57.4807C26.4405 57.4807 28.3507 59.4035 28.3507 61.731C28.4514 64.0586 26.541 65.8801 24.2295 65.8801M24.2295 59.5047C23.0223 59.5047 22.0169 60.5167 22.0169 61.731C22.0169 62.9454 23.0223 63.9575 24.2295 63.9575C25.4352 63.9575 26.4405 62.9454 26.4405 61.731C26.4405 60.5167 25.4352 59.5047 24.2295 59.5047"/>
	<path fill="#FFCF48" d="M84.2455 50.8017C78.3141 50.8017 73.4886 55.6592 73.3881 61.6299C73.3881 67.6006 78.1131 72.4582 84.145 72.5594C90.0764 72.5594 95.0024 67.7018 95.0024 61.7311C95.0024 55.6592 90.1769 50.8017 84.2455 50.8017M84.145 64.8683C82.4359 64.8683 80.928 63.4515 80.928 61.6299C80.928 59.9096 82.3354 58.3916 84.0445 58.3916C85.854 58.3916 87.2615 59.8084 87.2615 61.6299C87.362 63.4515 85.9546 64.8683 84.145 64.8683"/>
	<path fill="#2D1B0A" d="M84.1449 73.5713C77.6104 73.5713 72.3827 68.2077 72.3827 61.6299C72.3827 55.1532 77.7109 49.7896 84.1449 49.7896C90.6795 49.7896 95.9071 55.1532 95.9071 61.6299C95.9071 68.2077 90.6795 73.5713 84.1449 73.5713M84.2454 51.8136C78.9173 51.8136 74.4939 56.1651 74.4939 61.6299C74.4939 67.0946 78.8168 71.4462 84.2454 71.5473C89.6741 71.5473 93.997 67.0946 94.0975 61.731C93.997 56.2663 89.5736 51.8136 84.2454 51.8136M84.1449 65.8801C81.8327 65.8801 79.9226 63.9575 79.9226 61.731C79.9226 59.4035 81.7322 57.4807 84.0444 57.4807C86.3566 57.4807 88.2667 59.4035 88.2667 61.731C88.3672 64.0586 86.4571 65.8801 84.1449 65.8801M84.1449 59.5047C82.9385 59.5047 81.9333 60.5167 81.9333 61.731C81.9333 62.9454 82.9385 63.9575 84.1449 63.9575C85.3513 63.9575 86.3566 62.9454 86.3566 61.731C86.3566 60.5167 85.3513 59.5047 84.1449 59.5047"/>
</svg>
