<?xml version="1.0" encoding="utf-8" ?>
<svg xmlns="http://www.w3.org/2000/svg" xmlns:xlink="http://www.w3.org/1999/xlink" width="128" height="48">
	<path fill="white" d="M92.7173 48C81.5293 48 72.6389 42.0766 68.2436 32.0681C68.2436 32.0681 64.0481 20.9362 67.3446 14.2979L66.4455 9.6L64.0481 0L72.1394 5.51489L73.438 6.43404C76.5347 4.18723 79.8312 3.06383 83.1276 3.06383L84.9257 3.06383C95.1148 4.18723 98.8108 13.1745 99.7098 16.034C99.8097 16.6468 100.01 17.2596 100.209 17.8723C100.409 18.4851 100.509 18.9957 100.609 19.6085C101.308 22.6723 102.107 25.3277 105.304 27.7787L106.902 29.0043L106.902 26.9617C106.902 24.817 107.502 22.9787 108.6 21.5489C109.999 19.9149 111.897 19.0979 113.995 19.0979C115.593 19.0979 117.89 20.017 119.688 21.9574C123.085 22.2638 125.782 24 127.28 26.7574C127.68 27.6766 128.779 30.6383 127.18 33.9064C126.082 36.0511 124.184 37.583 121.486 38.5021C120.887 38.5021 120.188 38.6043 119.089 38.8085C118.29 38.9106 117.391 39.1149 116.592 39.217C114.194 40.8511 107.402 45.7532 98.7109 47.183C97.0127 47.6936 94.915 48 92.7173 48"/>
	<path fill="white" d="M43.6488 7.0468C49.1347 7.0468 53.1244 11.1319 53.1244 11.1319L56.4159 8.68084L55.7177 14.5021C59.0092 19.8128 55.7177 30.2298 55.7177 30.2298C51.4287 40.1362 42.4519 44.017 34.1733 44.017C32.2781 44.017 30.5825 43.8128 28.9866 43.5064C19.3116 41.7702 11.9306 35.5404 11.9306 35.5404C11.7311 35.5404 11.7311 35.5404 11.4319 35.5404C10.0355 35.5404 6.94348 34.8255 6.94348 34.8255C1.75686 33.0894 3.15326 28.8 3.15326 28.8C4.05094 26.6553 5.54708 26.1447 6.94348 26.1447C8.33988 26.1447 9.33731 26.8596 9.33731 26.8596C10.235 24.2042 11.9306 22.9787 13.327 22.9787C15.2221 22.9787 16.9178 24.7149 16.419 27.5745C15.5214 32.3745 12.4293 35.1319 12.4293 35.1319C12.9281 35.1319 13.1275 35.1319 13.8257 35.1319C15.9203 35.1319 19.3116 34.417 23.8 31.2511C29.4853 27.1659 29.4853 22.2638 30.8817 17.4638C32.2781 12.6638 36.0684 7.76169 42.4519 7.0468C42.9506 7.0468 43.4493 7.0468 43.6488 7.0468"/>
	<path fill="white" d="M35.071 47.8979C32.777 47.8979 30.8818 47.6937 29.1862 47.183C20.5085 45.6511 13.6263 40.8511 11.7312 39.4213C9.43715 39.2171 7.74152 38.8086 6.94358 38.5022C2.45516 37.1744 1.1585 34.9277 0.859272 34.0086C-0.736612 30.9446 0.360558 27.7787 0.460301 27.7787C2.05618 24.5106 4.54975 22.7745 7.54204 22.7745C9.83612 20.6297 11.9307 19.6085 13.9255 19.6085C16.2197 19.6085 18.2146 20.5276 19.3116 22.0595C20.8078 23.6936 21.0073 26.0425 21.0073 27.3702L21.0073 29.4128L22.6031 28.2893C25.795 25.9404 26.5929 23.2851 27.291 19.7106C27.3909 19.0978 27.5903 18.2808 27.7899 17.668C27.8895 17.2596 27.9893 16.9531 27.9893 16.5446C28.8869 13.8893 32.4777 4.69787 42.7513 3.57447L44.5466 3.57447C48.4366 3.57447 51.4288 5.00426 53.5234 6.33192L55.0196 6.12766L62.1013 0.91915L61.2037 9.39575L60.7049 14.0937C63.2982 20.3235 60.2062 32.2724 60.2062 32.2724C55.5182 41.9745 46.2422 47.8979 35.071 47.8979"/>
	<path fill="#FFB3D6" d="M93.0216 45.1404C82.6484 45.1404 74.5692 39.8298 70.5795 30.6383C70.38 30.1277 67.288 20.017 70.38 14.1958L68.2854 5.71916L73.472 9.39575C74.8684 8.17022 78.1599 5.5149 82.9476 5.5149C83.4463 5.5149 83.8453 5.5149 84.344 5.5149C90.2288 6.22979 95.0165 10.3149 96.9116 16.9532C97.4103 18.1787 97.6098 19.4043 97.8093 20.3234C98.7069 24 99.5049 27.0638 103.495 30.0255C106.587 32.1702 109.18 33.3958 111.773 33.7021C110.876 32.2723 109.679 30.3319 109.18 27.6766C108.98 25.9404 109.18 24.5106 110.078 23.2851C110.776 22.366 112.172 21.5489 113.369 21.5489C115.264 21.5489 117.159 22.7745 118.057 24.9192C118.556 24.7149 119.254 24.7149 119.952 24.7149C121.348 24.7149 123.244 25.2255 124.64 27.8809C124.64 28.0851 125.338 30.3319 124.441 32.4766C123.742 33.9064 122.346 35.1319 120.152 35.8468C119.653 35.8468 116.86 36.5617 115.464 36.5617C113.768 37.9915 106.986 42.8936 98.2082 44.5277C96.8118 44.834 94.9167 45.1404 93.0216 45.1404"/>
	<path fill="#2D1A0B" d="M93.0216 46.1617C82.3491 46.1617 73.871 40.6468 69.6818 31.0468C69.582 30.9447 66.1908 20.5276 69.3826 14.0936L66.6895 3.3702L73.472 8.1702C76.4643 5.71914 79.6561 4.59573 83.0473 4.59573L84.5435 4.59573C90.927 5.41275 96.0139 9.90637 97.909 16.7489C98.308 17.8723 98.6072 18.8936 98.7069 19.7106C99.7043 23.6936 100.303 26.5532 104.093 29.3106C106.188 30.8425 108.083 31.7617 109.778 32.2723C109.18 31.0468 108.582 29.617 108.282 27.983C107.983 25.7362 108.382 24.1021 109.379 22.7745C110.177 21.6511 111.873 20.6298 113.469 20.6298C115.563 20.6298 117.558 21.8553 118.656 23.8979C119.054 23.7957 119.553 23.7957 120.052 23.7957C122.446 23.7957 124.341 25.1234 125.638 27.4723C125.837 28.6979 126.336 30.8425 125.438 32.9872C124.54 34.8255 122.845 36.1532 120.551 36.9702C120.152 36.9702 119.553 37.0723 119.154 37.1745C118.157 37.3787 116.96 37.583 115.962 37.6851C114.566 38.8085 107.684 43.9149 98.5074 45.6511C97.0113 45.8553 95.0164 46.1617 93.0216 46.1617M69.8813 8.06807L71.3774 14.2979C68.4849 19.6085 70.8787 28.6979 71.4772 30.2298C75.2674 39.0128 83.1471 44.1191 93.0216 44.1191C94.9167 44.1191 96.8118 43.8128 98.0087 43.5064C107.684 41.6681 114.566 35.9489 114.865 35.7447C116.361 35.5404 117.758 35.234 118.755 35.0298C119.453 34.9276 119.852 34.8255 120.052 34.8255C121.748 34.2128 123.044 33.2936 123.643 31.9659C124.241 30.5362 123.942 28.9021 123.842 28.2893C123.842 28.2893 123.842 28.1872 123.842 28.1872C122.944 26.5532 121.748 25.7362 120.152 25.7362C119.553 25.7362 118.955 25.7362 118.656 25.8383L117.359 25.3276C116.661 23.6936 115.165 22.5702 113.569 22.5702C112.771 22.5702 111.674 23.183 111.075 23.8979C110.377 24.817 110.177 25.9404 110.377 27.5745C110.876 30.0255 111.973 31.8638 112.771 33.1915L113.868 35.0298L111.773 34.8255C109.08 34.5191 106.387 33.2936 103.096 30.9447C98.7069 27.6766 97.909 24.3064 97.0113 20.6298C96.7121 19.3021 96.5126 18.383 96.2134 17.4638C94.5177 11.3362 90.129 7.35318 84.5435 6.63829L83.2468 6.63829C80.055 6.63829 77.1625 7.86382 74.4694 10.3149L69.8813 8.06807"/>
	<path fill="#FF5777" d="M84.6432 25.1234C84.6432 25.1234 84.4437 24.2043 82.7481 24.9192C81.3517 25.6341 78.9578 30.5362 82.7481 33.9064C86.5383 37.583 92.7223 35.8468 92.7223 35.8468C92.7223 35.8468 85.6406 33.3958 84.9424 26.349C84.9424 26.349 84.9424 25.5319 84.6432 25.1234"/>
	<path fill="#3E3938" d="M76.564 15.4212C76.564 15.4212 76.3645 16.851 77.9604 18.0766C79.3568 19.3021 81.7506 18.5872 81.7506 18.5872C81.7506 18.5872 81.7506 18.7914 81.0524 19.3021C81.0524 19.3021 80.5537 20.017 81.2519 21.4468C81.2519 21.4468 80.3542 20.7319 80.055 19.7106C80.055 19.7106 79.3568 20.6297 79.3568 21.1404C79.3568 21.1404 78.8581 20.6297 78.8581 19.7106C78.8581 19.7106 77.9604 19.5063 77.4617 20.9361C77.4617 20.9361 77.2622 20.2212 77.2622 19.2C77.2622 19.2 76.7635 18.9957 76.564 18.2808C76.564 18.2808 75.8658 18.9957 74.8684 18.9957C74.8684 18.9957 75.7661 18.0766 76.0653 17.5659C76.165 17.3617 76.165 16.3404 76.564 15.4212"/>
	<path fill="#D7E9FF" d="M34.8715 45.0382C32.9765 45.0382 31.0814 44.8339 29.3856 44.5275C20.6083 43.0978 13.726 37.9914 12.1302 36.5616C10.4346 36.5616 7.64178 35.8466 7.4423 35.8466C5.3477 35.1318 3.85156 34.1105 3.15336 32.4765C2.25567 30.3317 2.60175 28.3913 2.95387 28.0849C4.35027 25.2253 6.24538 24.7148 7.64178 24.7148C8.33998 24.7148 9.03818 24.9191 9.53689 24.9191C10.7338 22.4679 12.629 21.5487 14.2248 21.5487C15.4217 21.5487 16.8181 22.0595 17.5163 23.285C18.4139 24.5105 18.7132 25.9403 18.4139 27.6764C17.9153 30.3317 16.7183 32.2722 15.8207 33.702C18.2146 33.4977 21.0073 32.2722 23.8998 30.0253C28.1887 26.8594 28.8869 23.6934 29.7846 19.8127C29.9841 18.8934 30.2833 17.8722 30.4828 16.9531C32.3779 10.6211 37.0658 6.33177 43.0504 5.51475C43.5491 5.51475 43.9482 5.51475 44.4468 5.51475C48.9352 5.51475 52.5261 8.17007 53.9225 9.3956L58.6103 6.02539L57.7127 14.2977C61.0042 20.119 57.7127 30.3317 57.7127 30.7402C53.6231 39.7276 45.0453 45.0382 34.8715 45.0382"/>
	<path fill="#2C180C" d="M34.8848 46.0594C33.0904 46.0594 31.0966 45.8552 29.2025 45.5488C20.031 44.0169 13.2521 38.8084 11.7567 37.5828C10.4607 37.4807 8.76599 37.1743 7.86878 36.9701C7.6694 36.9701 7.47002 36.8679 7.37033 36.8679C4.579 35.9488 3.08364 34.7233 2.28612 32.9871C1.38891 30.7403 1.6749 28.4935 2.18643 27.6764C3.48241 25.1233 5.27683 23.7956 7.76909 23.7956C8.26754 23.7956 8.6663 23.8977 9.06506 23.8977C9.06506 23.8977 9.16475 23.8977 9.16475 23.8977C10.361 21.8552 12.3548 20.6296 14.4483 20.6296C15.844 20.6296 17.6384 21.2424 18.5356 22.7743C19.6322 24.2041 19.9313 25.9403 19.6322 27.8807C19.3332 29.6169 18.735 31.0467 18.0372 32.2722C19.7319 31.7616 21.626 30.7403 23.5201 29.2084C27.5078 26.2467 28.1059 23.4892 29.0031 19.7105C29.1028 19.1998 29.2025 18.6892 29.4019 18.1786C29.5016 17.6679 29.6013 17.2594 29.7009 16.7488C31.6947 9.90623 36.779 5.41261 43.0594 4.49347L44.5548 4.49347C48.8415 4.49347 52.3306 6.74027 54.0254 8.06793L59.9071 3.8807L58.8105 14.0935C60.7046 17.6679 60.7046 23.1828 58.9102 30.4339C58.8105 30.6381 58.8105 30.7403 58.8105 30.8424C54.3244 40.5445 45.452 46.0594 34.8848 46.0594M7.6694 34.8254C7.76909 34.8254 7.96847 34.9275 8.26754 34.9275C9.16475 35.1318 10.9592 35.5403 12.1555 35.5403C14.7474 37.4807 21.4267 42.1786 29.6013 43.5062C31.3957 43.8126 33.2898 44.0169 34.8848 44.0169C44.6545 44.0169 52.8291 38.9105 56.717 30.4339C56.717 30.3318 56.8167 30.1275 56.8167 29.9233C58.5114 23.0807 58.5114 17.9743 56.8167 14.9105L57.3151 8.27219L53.826 10.8254C52.0316 9.19134 48.6421 6.63815 44.4551 6.63815L43.1591 6.63815C37.5765 7.45517 33.2898 11.4381 31.4954 17.3616C31.3957 17.7701 31.296 18.2807 31.1963 18.7913C31.0966 19.302 30.9593 19.7105 30.8972 20.2211C30 24.3062 29.2025 27.6764 24.6167 31.0467C21.626 33.3956 18.735 34.7233 16.0434 34.9275L14.0496 35.1318L15.1462 33.3956C15.9437 32.0679 17.14 30.2296 17.6384 27.7786C17.8378 26.3488 17.6384 25.2254 16.9406 24.2041C16.3424 23.1828 15.2459 22.8764 14.4483 22.8764C13.7505 22.8764 11.8564 23.1828 10.6601 25.6339C9.46382 26.2467 9.16475 26.2467 8.86568 26.1445C8.56661 26.1445 8.16785 26.0424 7.86878 26.0424C6.87187 26.0424 5.27683 26.3488 4.08055 28.7998C3.88117 29.4126 3.68179 30.7403 4.27993 32.3743C4.579 33.2935 5.67559 34.2126 7.6694 34.8254"/>
	<path fill="#82B1F4" d="M38.6618 23.0808C38.6618 23.0808 38.8613 22.1617 40.5569 22.8766C41.9533 23.5915 44.3471 28.4936 40.5569 31.8638C36.7667 35.5405 30.5826 33.8042 30.5826 33.8042C30.5826 33.8042 37.6643 31.3532 38.3625 24.3064C38.2628 24.3064 38.2628 23.5915 38.6618 23.0808"/>
	<path fill="#3E3938" d="M40.3573 15.8298C40.3573 15.8298 42.2524 17.7702 44.6463 16.5447C47.0401 15.3191 47.0401 14.0936 47.0401 14.0936C47.0401 14.0936 47.5388 16.7489 44.6463 17.4638C41.7537 17.9744 40.3573 15.8298 40.3573 15.8298"/>
</svg>
