<?xml version="1.0" encoding="utf-8" ?>
<svg xmlns="http://www.w3.org/2000/svg" xmlns:xlink="http://www.w3.org/1999/xlink" width="96" height="84">
	<path fill="white" d="M8.45141 84C5.31611 84 2.6865 82.6891 1.16942 80.3697C-0.246526 78.0504 -0.347665 75.4286 0.764862 72.5042L1.16942 71.4958L40.5124 3.93277C43.2431 0.605042 45.9739 0 47.7944 0C50.5251 0 53.0536 1.31092 55.1775 3.83193L95.4307 72.4034C95.633 73.0084 97.049 77.5462 94.3182 80.9748C93.7114 81.8824 91.5875 84 87.8453 84L8.45141 84"/>
	<path fill="#FF6F64" d="M8.18582 80.9747C7.17443 80.9747 4.7471 80.773 3.43229 78.7562C2.52205 77.2436 2.52205 75.4285 3.53343 73.1091L42.6741 5.74784C44.4946 3.42851 46.3151 3.02515 47.5287 3.02515C50.563 3.02515 52.4846 5.647 52.788 5.94952L92.3333 73.6133C92.5356 74.2184 93.2435 77.0419 91.6253 79.0587C91.0184 79.8654 89.7037 80.9747 87.4787 80.9747L8.48923 80.9747C8.48923 80.9747 8.38809 80.9747 8.18582 80.9747"/>
	<path fill="#2D1B0A" d="M87.4406 81.9326L8.14782 81.9326C7.03529 81.9326 4.10227 81.6301 2.58519 79.21C1.47266 77.3948 1.47266 75.2772 2.48405 72.857L41.827 5.09231C43.4453 3.0755 45.3669 2.0671 47.4908 2.0671C49.6147 2.0671 51.5364 3.0755 53.3568 5.19315L93.3067 73.2604C93.4078 73.6637 94.5203 77.1932 92.3964 79.7142C91.8907 80.3192 90.2725 81.9326 87.4406 81.9326M4.40569 73.2604C3.49544 75.4789 3.49544 76.8906 4.20341 78.2016C5.2148 79.7142 7.03529 79.9158 8.04668 79.9158L87.3395 79.9158C89.3623 79.9158 90.3736 78.9074 90.6771 78.4032C92.093 76.6889 91.385 74.1679 91.385 74.1679L51.9409 6.60492C51.9409 6.60492 51.8398 6.50407 51.7386 6.40323C51.2329 5.79819 49.6147 3.98307 47.3897 3.98307C45.8726 3.98307 44.5578 4.68895 43.4453 6.20155L4.40569 73.2604"/>
	<path fill="#FCFCFC" d="M40.0067 52.3256C39.6022 52.3256 32.6236 43.1491 36.2646 35.4852C40.0067 28.1239 56.3912 29.7373 59.1219 35.4852C61.5493 41.2331 59.3242 48.1911 54.5707 52.3256C54.5707 52.3256 55.9866 60.0903 48.6035 62.0206C48.6035 62.0206 40.0067 62.813 40.0067 52.3256M40.0067 44.9642C40.0067 44.9642 40.6135 46.376 42.434 46.376C44.4568 46.376 47.7944 41.4348 43.4454 41.4348C38.9953 41.4348 40.0067 44.9642 40.0067 44.9642M54.9753 44.9642C54.9753 44.9642 55.7844 41.4348 51.4354 41.4348C47.0864 41.4348 50.424 46.376 52.4468 46.376C54.3684 46.376 54.9753 44.9642 54.9753 44.9642M44.4568 50.7121C44.4568 52.9306 47.7944 50.7121 47.7944 50.7121C50.424 52.3256 50.424 50.7121 50.424 50.7121C50.424 50.7121 49.6149 47.3844 47.7944 47.3844C45.9739 47.3844 44.4568 50.7121 44.4568 50.7121M44.4568 55.0483C44.6591 55.4516 44.6591 57.4684 47.7944 57.4684C50.6263 57.4684 50.8286 55.0483 50.8286 55.0483C47.9967 55.0483 44.4568 55.0483 44.4568 55.0483"/>
	<path fill="#2D1B0A" d="M48.1989 63.0252C47.0864 63.0252 44.3556 62.8235 42.1306 60.8067C40.209 58.9916 39.0964 56.3697 38.9953 52.8403C38.6919 52.5378 38.1862 51.9328 37.5793 50.9244C36.2645 48.8067 32.219 41.5462 35.2532 35.0924C37.0737 31.563 41.6249 29.5462 47.3898 29.5462C52.2445 29.5462 58.2117 31.3613 59.931 35.0924C62.3583 40.9412 60.5378 48.1008 55.582 52.7395C55.9866 55.8655 54.9752 61.4117 48.8057 63.0252C48.7046 63.0252 48.5023 63.0252 48.1989 63.0252M40.4112 51.3277L41.0181 52.3361C41.0181 55.4622 41.8272 57.7815 43.4454 59.2941C45.367 61.1092 47.9966 61.0084 48.5023 61.0084C54.7729 59.2941 53.6604 52.7395 53.6604 52.5378L53.9638 51.5294C58.6162 47.4958 60.4367 40.9412 58.2117 35.7983C57.0991 33.3781 52.5479 31.563 47.4909 31.4622C42.5351 31.3613 38.5907 33.0756 37.1748 35.7983C34.1498 42.2521 39.1976 49.9159 40.4112 51.3277M47.7944 58.4874C44.3556 58.4874 43.7488 56.2689 43.5465 55.563L42.8386 54.0504L44.4568 54.1512L51.941 54.1512L51.8399 55.2605C51.7388 56.2689 50.7274 58.4874 47.7944 58.4874M46.075 56.0672C46.3784 56.2689 46.8841 56.4706 47.7944 56.4706C48.5023 56.4706 48.9069 56.2689 49.2103 56.0672L46.075 56.0672M45.367 52.7395C45.0636 52.7395 44.7602 52.6386 44.4568 52.5378C44.1534 52.3361 43.5465 51.8319 43.5465 50.7227C43.9511 49.7143 45.5693 46.3865 47.8955 46.3865C50.424 46.3865 51.4354 50.0168 51.5365 50.521C51.5365 51.2269 51.3342 51.8319 50.6262 52.2353C49.9183 52.6386 49.008 52.5378 47.8955 51.9328C47.1875 52.2353 46.1761 52.7395 45.367 52.7395M47.7944 48.4033C47.1875 48.4033 46.1761 49.6134 45.6704 50.6218C46.075 50.521 46.783 50.2185 47.2887 49.8151L48.3001 49.7143C48.7046 50.0168 49.008 50.1176 49.2103 50.2185C48.9069 49.4117 48.3001 48.4033 47.7944 48.4033M52.4467 47.3949C50.6262 47.3949 48.3001 44.8739 48.3001 42.8571C48.3001 42.1512 48.6035 41.4454 49.2103 41.042C49.716 40.6386 50.5251 40.437 51.4354 40.437C53.1547 40.437 54.4695 40.9412 55.2786 41.9496C56.3912 43.3613 55.9866 45.0756 55.9866 45.1765C55.582 46.084 54.4695 47.3949 52.4467 47.3949M51.4354 42.4538C50.7274 42.4538 50.424 42.6554 50.424 42.6554C50.424 42.6554 50.3228 42.7563 50.3228 42.8571C50.3228 43.7647 51.7388 45.3781 52.4467 45.3781C53.4581 45.3781 53.8627 44.8739 53.9638 44.6723C53.9638 44.3697 54.065 43.6638 53.6604 43.1596C53.1547 42.5546 52.1433 42.4538 51.4354 42.4538M42.434 47.3949C40.5124 47.3949 39.3998 46.084 39.0964 45.3781C38.9953 45.0756 38.5907 43.3613 39.6021 41.9496C40.4112 40.9412 41.6249 40.437 43.4454 40.437C44.4568 40.437 45.1648 40.6386 45.6704 41.042C46.2773 41.4454 46.5807 42.1512 46.5807 42.8571C46.5807 44.8739 44.2545 47.3949 42.434 47.3949M40.9169 44.6723C41.0181 44.8739 41.4226 45.3781 42.434 45.3781C43.142 45.3781 44.5579 43.8655 44.5579 42.8571C44.5579 42.6554 44.5579 42.6554 44.4568 42.6554C44.3556 42.6554 44.1534 42.4538 43.4454 42.4538C42.6363 42.4538 41.6249 42.5546 41.2203 43.1596C40.8158 43.6638 40.9169 44.3697 40.9169 44.6723"/>
	<path fill="#FCFCFC" d="M53.2509 60.6049L61.4431 65.5461C61.4431 65.5461 67.4103 62.0167 69.4331 65.9495C71.2536 69.6806 66.3989 70.2856 66.3989 70.2856C66.3989 70.2856 65.5898 76.6385 61.4431 74.4201C61.4431 74.4201 59.4204 72.4033 60.0272 69.0755L50.5201 62.9243L53.2509 60.6049M55.8805 57.2772C56.2851 57.2772 62.05 54.4537 63.2636 53.5461C64.6796 52.9411 68.4217 52.9411 68.4217 52.9411C72.3661 51.1259 70.849 47.7982 69.0285 47.3949C67.0058 46.9915 65.9944 46.5881 65.9944 46.5881C61.8477 40.2352 60.4317 49.21 60.4317 49.21L56.6896 52.9411C56.6896 54.857 55.4759 57.2772 55.8805 57.2772M38.6869 52.9411L34.9448 49.21C34.9448 49.21 33.5288 40.2352 29.3821 46.5881C29.3821 46.5881 28.3708 46.9915 26.348 47.3949C24.5071 47.7982 23.0104 51.1259 27.1571 52.9411C27.1571 52.9411 30.6969 52.9411 32.1129 53.5461C33.3266 54.3528 39.0915 57.2772 39.496 57.2772C39.9006 57.2772 38.6869 54.857 38.6869 52.9411M41.3165 60.6049L33.1243 65.5461C33.1243 65.5461 27.1571 62.0167 25.1343 65.9495C23.3138 69.6806 28.1685 70.2856 28.1685 70.2856C28.1685 70.2856 28.9776 76.6385 33.1243 74.4201C33.1243 74.4201 34.9448 72.4033 34.5402 69.0755L44.0473 62.9243L41.3165 60.6049"/>
	<path fill="#2D1B0A" d="M63.0798 75.9118C62.4727 75.9118 61.7645 75.7101 60.9551 75.3068C60.6516 75.0042 58.6282 72.9874 58.9317 69.5589L48.8144 63.0042L53.1648 59.374L61.461 64.416C62.5739 63.811 65.4068 62.6009 67.6326 63.3068C68.8466 63.6093 69.656 64.416 70.2631 65.5252C71.0725 67.1387 70.7689 68.3488 70.3642 69.0547C69.656 70.3656 68.1384 70.9706 67.1267 71.1723C66.8232 72.3824 66.115 74.7017 64.395 75.6093C64.1927 75.7101 63.6868 75.9118 63.0798 75.9118M62.068 73.5925C62.9786 74.0967 63.4845 73.7942 63.6868 73.6933C64.7997 73.0883 65.3056 70.8698 65.4068 70.0631C66.8232 69.0547 68.3408 68.7521 68.7455 67.9454C68.9478 67.5421 68.9478 66.937 68.5431 66.332C68.2396 65.7269 67.7337 65.3236 67.1267 65.1219C65.4068 64.6177 62.7763 65.8278 61.9669 66.332L53.3672 61.7942L52.2542 62.8026L61.1575 68.5505C60.6516 71.5757 61.7645 73.1891 62.068 73.5925M31.5137 75.9118C30.9067 75.9118 30.4008 75.7101 29.9962 75.5084C28.2762 74.6009 27.568 72.2816 27.2645 71.0715C26.3539 70.8698 24.7351 70.2647 24.0269 68.9538C23.6222 68.2479 23.3187 67.1387 24.1281 65.4244C24.7351 64.3152 25.6457 63.5084 26.7586 63.2059C29.0856 62.5 31.8173 63.7101 32.9302 64.3152L41.2264 59.2731L45.5768 62.9034L35.4595 69.458C35.6619 72.7858 33.8407 74.9034 33.7396 75.0042C32.829 75.7101 32.1208 75.9118 31.5137 75.9118M28.3774 65.1219C28.0739 65.1219 27.7703 65.1219 27.4668 65.2227C26.8598 65.4244 26.3539 65.8278 26.0504 66.4328C25.7469 67.1387 25.6457 67.6429 25.8481 68.0463C26.2527 68.853 27.7703 69.2563 28.2762 69.2563C29.2879 70.8698 29.7938 73.1891 30.9067 73.7942C31.1091 73.895 31.5137 74.0967 32.4243 73.6933C32.7278 73.29 33.7396 71.6765 33.5372 69.2563L42.3393 62.9034L41.2264 61.895L33.1325 66.7353C31.9184 65.9286 29.9962 65.1219 28.3774 65.1219M55.8965 58.2647C54.5812 57.3572 54.7836 56.7521 55.0871 55.7437C55.2894 54.937 55.6941 53.8278 55.6941 52.9202L59.5387 48.6849C59.7411 47.374 60.6516 43.7437 62.8774 43.3404C64.6985 42.937 66.115 44.7521 66.722 45.7605C67.1267 45.8614 68.0373 46.1639 69.2513 46.3656C70.6678 46.6681 71.7807 47.979 71.905 49.4916C71.983 50.2984 71.905 52.416 68.8466 53.8278C67.1267 53.9286 64.6985 54.0295 63.788 54.4328C62.4727 55.2395 56.807 58.2647 55.8965 58.2647M57.7176 53.3236C57.6164 54.1303 57.5153 54.8362 57.3129 55.5421C59.134 54.7353 61.9669 53.2227 62.6751 52.7185C64.2939 52.0126 67.329 51.9118 68.2396 51.9118C69.4537 51.3068 70.0607 50.5 69.9595 49.6933C69.8584 48.9874 69.3525 48.4832 68.8466 48.3824C66.8232 47.979 65.7103 47.5757 65.6091 47.5757C64.0915 45.6597 63.3833 45.3572 63.1809 45.3572C62.4727 45.458 61.6634 47.5757 61.3598 49.3908L57.7176 53.3236M39.5064 58.2647C38.5959 58.2647 32.6267 55.0379 31.6149 54.4328C30.7044 54.0295 28.3774 53.9286 27.1633 53.9286C23.6222 52.416 23.5022 50.2984 23.5022 49.4916C23.6222 47.979 24.7351 46.6681 26.1516 46.3656C27.4668 46.0631 28.3774 45.8614 28.7821 45.6597C29.3891 44.7521 30.8055 42.8362 32.6267 43.1845C34.8525 43.7437 35.6619 47.2732 35.9654 48.5841L39.81 52.416C39.81 53.7269 40.1135 54.8362 40.417 55.6429C40.7205 56.6513 40.9229 57.2563 40.5182 57.7605L39.5064 58.2647M27.3657 51.9118C28.2762 51.9118 31.1091 52.0126 32.5255 52.6177C33.5372 53.2227 36.3701 54.7353 38.1912 55.6429C37.9888 54.937 37.7865 54.2311 37.7865 53.4244L34.0431 49.6933C33.6384 47.5757 32.829 45.458 32.1208 45.3572C31.9184 45.2563 31.2102 45.6597 30.1985 47.1723C29.6926 47.5757 28.5797 47.979 26.4551 48.4832C26.0504 48.5841 25.5445 49.0883 25.4434 49.7942C25.4434 50.5 26.1516 51.3068 27.3657 51.9118"/>
</svg>
