<?xml version="1.0" encoding="utf-8" ?>
<svg xmlns="http://www.w3.org/2000/svg" xmlns:xlink="http://www.w3.org/1999/xlink" width="64" height="96">
	<path fill="white" d="M40.349 96C38.4278 96 36.7088 95.2978 35.4954 93.8934C33.7765 92.0878 33.0686 89.4796 33.372 85.8683C33.6753 80.1505 34.1809 70.8213 33.8776 64.6019L31.8552 64.5016C30.9452 69.4169 30.743 76.4389 31.0463 85.6677C31.1474 89.0784 30.2374 91.8871 28.3162 93.5925C26.9005 95.0972 25.0804 95.7994 22.957 95.7994C17.4967 95.7994 12.7442 90.2821 8.80071 79.4483C4.85717 68.5141 6.17169 58.4828 7.38508 53.4671C5.56499 49.8558 0 39.6238 0 28.2884C0 20.8652 1.9248 10.1317 7.89066 4.21317C10.6208 1.5047 13.7554 0 17.2945 0C18.7101 0 20.2269 0.401254 21.9458 1.00313C25.4849 2.2069 28.5184 2.70846 31.1474 2.70846C33.8776 2.70846 35.6977 2.10658 37.72 1.5047C40.349 0.601881 42.3713 0 44.7981 0C45.2026 0 45.6071 0 46.0115 0C54.1008 1.30408 65.6281 10.9342 63.808 31.3981C62.6957 42.7335 59.5611 49.3542 57.1343 52.8652C58.3477 57.7806 60.1678 65.8056 57.741 75.2351C55.3142 83.7618 47.7305 96 40.349 96"/>
	<path fill="white" d="M46.0062 2.9091C45.6018 2.9091 45.1973 2.9091 44.8941 2.9091C42.8717 2.9091 41.0515 3.51098 39.1303 4.11286C36.9058 4.81506 34.5802 5.61756 31.2432 5.61756C28.2099 5.61756 24.8729 5.01568 21.0306 3.71161C19.8172 3.31035 18.6038 3.10973 17.3904 3.10973C14.6602 3.10973 12.2334 4.21318 10.11 6.31976C4.85193 11.5361 3.13295 21.4671 3.13295 28.2884C3.13295 39.5235 8.9977 49.7555 10.9189 52.6646C9.90775 55.8746 7.48095 66.5078 11.829 78.5455C15.1657 87.7743 19.1094 92.79 23.1539 92.79C24.3673 92.79 25.4797 92.2884 26.2885 91.4859C27.5019 90.1818 28.2099 88.1756 28.1087 85.6677C27.0975 59.3856 31.3444 56.0752 33.2657 55.9749C33.3668 55.9749 33.4678 55.9749 33.569 55.9749C34.0746 55.9749 34.479 56.1756 34.8834 56.5768C37.917 59.7868 37.2091 72.8276 36.4002 85.4671C36.1981 88.8778 36.6025 90.7837 37.7147 91.9875C38.4226 92.6897 39.3326 93.0909 40.3438 93.0909C45.5008 93.0909 52.3766 82.9593 54.7023 74.5329C57.3313 64.3009 54.6012 55.8746 53.2867 52.7649C55.3089 50.3574 59.4548 44.1379 60.6681 31.1975C62.3871 12.5392 52.5788 4.01255 46.0062 2.9091"/>
	<path fill="#2D1B0A" d="M40.2868 94.1442C39.0734 94.1442 37.86 93.6426 36.9499 92.7398C35.6354 91.3354 35.1298 89.1285 35.3321 86.1191C35.9388 75.4859 36.9499 60.3386 34.1187 57.3292C33.8153 57.0282 33.7142 57.0282 33.512 57.0282C33.0064 57.0282 27.9506 57.6301 29.0629 85.7179C29.164 88.326 28.4562 90.7335 26.9394 92.2382C25.8271 93.3417 24.5126 93.8433 23.097 93.8433C18.5468 93.8433 14.2999 88.7273 10.8619 78.8966C6.41279 66.558 8.9407 55.8245 9.85074 52.815C8.334 50.4075 2.1659 39.9749 2.1659 28.2382C2.1659 20.7147 4.08711 10.884 9.44628 5.5674C11.7719 3.26019 14.5021 2.05643 17.4345 2.05643C18.749 2.05643 20.0635 2.25705 21.378 2.75862C25.0182 3.96238 28.2539 4.56426 31.2874 4.56426C34.3209 4.56426 36.4443 3.86207 38.4667 3.26019C40.8935 2.45768 42.8147 1.8558 44.837 1.8558C45.0392 1.8558 45.2415 1.8558 45.4437 1.8558C45.6459 1.8558 45.7471 1.8558 45.9493 1.8558C53.1285 3.05956 63.4424 11.8871 61.6223 31.2476C60.51 43.3856 56.7687 49.906 54.4431 52.9154C55.8587 56.4263 58.2855 64.652 55.6565 74.7837C53.533 82.7085 46.4549 94.1442 40.2868 94.1442M33.512 55.0219C34.3209 55.0219 34.9276 55.3229 35.5343 55.9248C38.77 59.3354 38.2644 70.8715 37.3544 85.6176C37.1522 88.7273 37.5566 90.4326 38.3656 91.3354C38.8711 91.837 39.579 92.1379 40.2868 92.1379C44.4325 92.1379 51.2073 83.1097 53.6341 74.2821C56.2632 63.9498 53.2297 55.5235 52.2185 53.2163L52.4207 52.1129C54.6453 49.5047 58.3866 43.3856 59.6 31.047C61.2179 13.1912 52.1174 4.96552 45.8482 3.96238C45.6459 3.96238 45.3426 3.96238 45.1404 3.86207C45.0392 3.86207 44.9381 3.86207 44.837 3.86207C43.0169 3.86207 41.399 4.36364 39.6801 4.96552C36.9499 5.86834 34.5231 6.57053 31.2874 6.57053C28.0517 6.57053 24.6137 5.96865 20.7713 4.56426C19.659 4.16301 18.5468 4.0627 17.4345 4.0627C15.0077 4.0627 12.7831 5.06583 10.8619 6.97179C5.90721 11.8871 4.18823 21.5172 4.18823 28.2382C4.18823 40.1755 11.0641 50.9091 11.7719 52.1129C11.3675 55.0219 8.334 65.7555 12.8842 78.2947C16.0188 87.0219 19.7601 91.837 23.2992 91.837C24.2093 91.837 25.0182 91.4357 25.726 90.8339C26.7372 89.7304 27.3439 87.9248 27.2428 85.7179C26.2316 60.6395 30.074 55.1223 33.3097 55.0219"/>
	<path fill="#EEE" d="M17.2945 14.1442C28.0128 22.0689 43.5848 15.1473 44.1915 13.5423C44.1915 13.5423 29.8329 20.0627 17.2945 14.1442"/>
	<path fill="#EBEBEB" d="M29.5295 18.8589C25.4848 18.8589 20.8335 17.9561 16.7888 14.9467L17.8 13.2413C29.7317 18.8589 43.6858 12.7398 43.888 12.6395L46.1125 11.6363L45.3036 13.9435C44.6969 15.4482 40.45 17.0532 38.3266 17.6551C36.3043 18.0564 33.1697 18.8589 29.5295 18.8589"/>
</svg>
