<?xml version="1.0" encoding="utf-8" ?>
<svg xmlns="http://www.w3.org/2000/svg" xmlns:xlink="http://www.w3.org/1999/xlink" width="86" height="98">
	<path fill="white" d="M47.7792 98C37.9971 98 30.0302 90.0021 30.0302 80.1818L30.0302 74.9174C30.0302 70.7665 26.6014 67.3244 22.4667 67.3244C18.0295 67.3244 14.6007 70.7665 14.6007 74.9174L14.6007 80.0806C17.3236 81.8017 19.1388 84.9401 19.1388 88.281C19.1388 92.2293 16.8193 95.6715 13.1889 97.1901C11.9787 97.6963 10.7686 97.8988 9.5584 97.8988C7.03724 97.8988 4.61693 96.8864 2.80169 95.064C0 92.3306 -0.727935 88.1798 0.683915 84.5351C1.49069 82.7128 2.80169 81.093 4.41523 80.0806L4.41523 74.9174C4.41523 65.0971 12.3821 57.0992 22.1642 57.0992C32.2488 57.0992 40.2157 65.0971 40.2157 74.9174L40.2157 80.1818C40.2157 84.3326 43.6445 87.7748 47.7792 87.7748C51.9139 87.7748 55.3427 84.3326 55.3427 80.1818L55.3427 60.5413C43.6445 58.1116 34.9717 47.6839 34.9717 35.5351L34.9717 14.781C34.9717 11.0351 37.2912 7.69421 40.6191 6.27686C42.1318 2.73347 45.6614 0.303719 49.4936 0.303719C54.8385 0.303719 59.1748 4.65702 59.1748 10.0227C59.1748 15.3884 54.8385 19.7417 49.4936 19.7417C47.9809 19.7417 46.569 19.3368 45.258 18.7293L45.258 35.6364C45.258 44.0393 52.1156 50.9236 60.4859 50.9236C68.8561 50.9236 75.7137 44.0393 75.7137 35.6364L75.7137 18.6281C74.5035 19.1343 73.0917 19.438 71.7807 19.438C66.4358 19.438 62.0994 15.0847 62.0994 9.71901C62.0994 4.35331 66.4358 0 71.7807 0C75.8145 0 79.445 2.63223 80.8568 6.47934C83.9831 7.99793 86 11.2376 86 14.781L86 35.5351C86 47.6839 77.3272 58.1116 65.629 60.5413L65.629 80.1818C65.5282 90.0021 57.5613 98 47.7792 98"/>
	<path fill="#2D1B0A" d="M60.2892 58.0103C47.8877 58.0103 37.9058 47.8863 37.9058 35.5351L37.9058 14.781C37.9058 11.3388 40.729 8.5041 44.1571 8.5041L48.1901 8.5041C49.2992 8.5041 50.3074 9.41526 50.3074 10.6301C50.3074 11.845 49.4 12.7562 48.1901 12.7562L44.1571 12.7562C43.048 12.7562 42.1406 13.6673 42.1406 14.781L42.1406 35.5351C42.1406 45.6591 50.3074 53.8595 60.3902 53.8595C70.4727 53.8595 78.6396 45.6591 78.6396 35.5351L78.6396 14.781C78.6396 13.6673 77.7323 12.7562 76.6232 12.7562L72.4893 12.7562C71.3801 12.7562 70.3719 11.845 70.3719 10.6301C70.3719 9.41526 71.2794 8.5041 72.4893 8.5041L76.6232 8.5041C80.0513 8.5041 82.8743 11.3388 82.8743 14.781L82.8743 35.5351C82.6727 47.8863 72.6909 58.0103 60.2892 58.0103M44.0563 10.5289C41.7373 10.5289 39.8215 12.4524 39.8215 14.781L39.8215 35.5351C39.8215 46.8739 48.9967 55.9855 60.1884 55.9855C71.481 55.9855 80.5554 46.7727 80.5554 35.5351L80.5554 14.781C80.5554 12.4524 78.6396 10.5289 76.3206 10.5289L72.1868 10.5289C72.1868 10.5289 72.086 10.5289 72.086 10.6301C72.086 10.7314 72.086 10.7314 72.1868 10.7314L76.3206 10.7314C78.5388 10.7314 80.3537 12.5537 80.3537 14.781L80.3537 35.5351C80.3537 46.7727 71.2794 55.8843 60.0877 55.8843C48.896 55.8843 39.8215 46.7727 39.8215 35.5351L39.8215 14.781C39.8215 12.5537 41.6364 10.7314 43.8546 10.7314L47.8877 10.7314C47.8877 10.7314 47.9884 10.7314 47.9884 10.6301C47.9884 10.5289 47.9884 10.5289 47.8877 10.5289L44.0563 10.5289"/>
	<path fill="#2D1B0A" d="M47.5853 94.9628C39.4183 94.9628 32.8645 88.281 32.8645 80.1819L32.8645 74.9174C32.8645 69.0454 28.1258 64.2872 22.2778 64.2872C16.1274 64.2872 11.3886 69.0454 11.3886 74.9174L11.3886 82.5104C11.3886 83.6239 10.4811 84.6364 9.2712 84.6364C8.16211 84.6364 7.15385 83.7252 7.15385 82.5104L7.15385 74.9174C7.15385 66.7169 13.8084 60.1364 21.8745 60.1364C30.344 60.1364 36.8976 66.8182 36.8976 74.9174L36.8976 80.1819C36.8976 86.0538 41.6365 90.812 47.4844 90.812C53.3324 90.812 58.0712 86.0538 58.0712 80.1819L58.0712 55.8843C58.0712 54.7707 58.9785 53.7583 60.1885 53.7583C61.2976 53.7583 62.3069 54.6694 62.3069 55.8843L62.3069 80.1819C62.4067 88.281 55.7522 94.9628 47.5853 94.9628M21.9753 62.2624C29.2348 62.2624 34.8811 67.9319 34.8811 74.9174L34.8811 80.1819C34.8811 87.2686 40.6282 92.938 47.5853 92.938C54.6431 92.938 60.2894 87.1674 60.2894 80.1819L60.2894 55.8843C60.2894 55.783 60.0877 55.783 60.0877 55.8843L60.0877 80.1819C60.0877 87.1674 54.4415 92.8367 47.4844 92.8367C40.5274 92.8367 34.8811 87.1674 34.8811 80.1819L34.8811 74.9174C34.8811 67.8306 29.134 62.1611 22.177 62.1611C14.8167 62.1611 9.17038 67.9319 9.17038 74.9174L9.17038 82.5104C9.17038 82.6115 9.37203 82.6115 9.37203 82.5104L9.37203 74.9174C9.37203 67.9319 15.0183 62.2624 21.9753 62.2624"/>
	<path fill="#5DDEE2" d="M9.26882 82.6116C7.05064 82.6116 4.93329 83.9277 4.12668 86.0537C3.32007 88.1797 3.72337 90.5083 5.33659 92.1281C6.94981 93.748 9.36965 94.2542 11.3862 93.343C13.5035 92.4318 14.8143 90.407 14.8143 88.1797C14.8143 85.1426 12.3944 82.6116 9.26882 82.6116"/>
	<path fill="#2D1B0A" d="M9.26882 94.8616C7.55656 94.8616 5.8424 94.1529 4.6324 92.938C2.71278 91.0145 2.21241 88.1797 3.22074 85.75C4.22907 83.3202 6.64906 81.7004 9.26882 81.7004C12.9007 81.7004 15.8249 84.6364 15.8249 88.281C15.8249 91.0145 14.2116 93.343 11.7915 94.3554C10.9849 94.6591 10.0774 94.8616 9.26882 94.8616M9.26882 83.624C7.45573 83.624 5.74157 84.7376 5.03574 86.4587C4.32991 88.1797 4.73324 90.1033 6.04407 91.4194C7.35489 92.7355 9.26882 93.1405 10.9849 92.4318C12.699 91.7231 13.8082 90.1033 13.8082 88.1797C13.8082 85.75 11.7915 83.624 9.26882 83.624"/>
	<path fill="#5DDEE2" d="M55.0463 9.92149C55.0463 13.0526 52.5183 15.5909 49.4 15.5909C46.2816 15.5909 43.7537 13.0526 43.7537 9.92149C43.7537 6.79036 46.2816 4.25207 49.4 4.25207C52.5183 4.25207 55.0463 6.79036 55.0463 9.92149"/>
	<path fill="#2D1B0A" d="M49.4 16.6033C45.7702 16.6033 42.7454 13.6674 42.7454 9.92149C42.7454 6.27686 45.6694 3.23967 49.4 3.23967C53.0297 3.23967 56.0546 6.17562 56.0546 9.92149C55.9538 13.5661 53.0297 16.6033 49.4 16.6033M49.4 5.3657C46.8793 5.3657 44.762 7.3905 44.762 10.0227C44.762 12.5537 46.7785 14.6798 49.4 14.6798C52.0215 14.6798 54.038 12.655 54.038 10.0227C53.9371 7.3905 51.9207 5.3657 49.4 5.3657"/>
	<path fill="#5DDEE2" d="M77.1273 9.71901C77.1273 12.8502 74.5993 15.3884 71.481 15.3884C68.3626 15.3884 65.8347 12.8502 65.8347 9.71901C65.8347 6.58788 68.3626 4.04959 71.481 4.04959C74.5993 4.04959 77.1273 6.58788 77.1273 9.71901"/>
	<path fill="#2D1B0A" d="M71.481 16.2995C67.8512 16.2995 64.8264 13.3637 64.8264 9.61777C64.8264 5.97314 67.7504 2.93595 71.481 2.93595C75.1107 2.93595 78.1355 5.8719 78.1355 9.61777C78.1355 13.3637 75.1107 16.2995 71.481 16.2995M71.481 5.06198C68.9603 5.06198 66.843 7.08678 66.843 9.71901C66.843 12.25 68.8595 14.376 71.481 14.376C74.1025 14.376 76.119 12.3512 76.119 9.71901C76.119 7.18802 74.0016 5.06198 71.481 5.06198"/>
</svg>
