<?xml version="1.0" encoding="utf-8" ?>
<svg xmlns="http://www.w3.org/2000/svg" xmlns:xlink="http://www.w3.org/1999/xlink" width="98" height="74">
	<path fill="white" d="M50.2974 74C47.5031 74 33.5316 66.9905 33.5316 57.1773C33.5316 52.9716 35.1283 49.3667 37.9226 47.1637L39.8187 45.6617L37.4236 45.3613C15.7678 42.8579 0 33.4452 0 23.0311C0 10.3139 21.9552 0 49 0C76.0448 0 98 10.3139 98 23.0311C98 33.2449 83.2301 42.4574 62.0733 45.161L59.5784 45.4614L61.6741 46.9635C64.668 49.0663 66.3646 52.7713 66.3646 57.0771C66.664 60.5819 65.4664 63.5859 62.8717 66.3897C59.0794 70.4953 52.4929 74 50.2974 74M44.0102 47.7645C39.3198 47.7645 36.1263 51.4696 36.1263 57.0771C36.1263 65.3884 49.0998 71.1962 50.1976 71.1962C51.1955 71.1962 56.9837 68.3924 60.5764 64.4871C62.7719 62.0839 63.7699 59.6806 63.4705 57.2774C63.4705 51.77 60.4766 48.065 55.8859 48.065C54.5886 48.065 53.391 48.2652 52.1935 48.7659L52.1935 46.0622C50.4969 46.0622 49.7984 46.0622 49 46.0622L47.5031 46.0622L47.5031 48.4655C46.3055 47.9648 45.1079 47.7645 44.0102 47.7645M49.2994 10.7145C31.2363 10.7145 12.5743 15.3207 12.5743 22.931C12.5743 29.9405 28.3422 35.1475 49.2994 35.1475C70.2566 35.1475 86.0244 29.9405 86.0244 22.931C86.0244 15.9215 70.2566 10.7145 49.2994 10.7145"/>
	<path fill="white" d="M50.1976 72.6982C48.3015 72.6982 34.829 66.2895 34.829 57.2774C34.829 51.069 38.6213 46.5629 44.1101 46.5629C44.3097 46.5629 44.6091 46.5629 44.8087 46.5629C44.3097 45.8619 44.3097 44.8606 44.3097 44.1596C44.3097 41.3559 46.9044 38.6522 49.7985 38.6522C52.6926 38.6522 55.2872 41.2557 55.2872 44.1596C55.2872 44.8606 55.0877 45.8619 54.5887 46.7632C55.0877 46.7632 55.4868 46.7632 55.9858 46.7632C61.1752 46.7632 64.9943 51.2693 64.9943 57.4776C65.1671 60.0812 64.269 62.9851 61.6742 65.5886C58.2812 69.3937 51.8942 72.6982 50.1976 72.6982"/>
	<path fill="#FFE088" d="M53.2912 38.6523C51.894 38.6523 50.1975 38.6523 48.8003 38.6523L48.1018 41.9567C50.3971 41.9567 52.0936 41.9567 53.4908 41.9567L54.1893 38.6523"/>
	<path fill="#2C180C" d="M55.4867 42.9581L47.2036 42.9581L46.9042 37.6509L55.1873 37.6509L55.4867 42.9581M49.0997 40.9554L53.391 40.9554L53.2912 39.6536L48.9999 39.6536L49.0997 40.9554"/>
	<path fill="#FFE088" d="M39.8187 38.5521L38.721 41.8566C41.0163 41.8566 42.4134 42.0569 44.11 42.0569L45.2077 38.7524C42.613 38.7524 41.2159 38.7524 39.8187 38.5521"/>
	<path fill="#2C180C" d="M46.0061 43.0582L44.2098 43.0582C43.3116 43.0582 42.5132 42.9581 41.7149 42.9581C41.0163 42.9581 40.4175 42.8579 39.7189 42.8579L37.723 42.8579L38.0224 37.5508L40.0183 37.5508C41.3157 37.751 42.7128 37.751 44.4094 37.751L46.4053 37.751L46.0061 43.0582M39.8187 40.8552C40.4175 40.8552 41.1161 40.8552 41.7149 40.9554C42.4134 41.0555 43.2118 41.0555 44.11 41.0555L44.2098 39.7538C42.613 39.7538 41.3157 39.7538 39.9185 39.5535L39.8187 40.8552"/>
	<path fill="#FFE088" d="M56.5845 38.6522L57.0835 42.0568L63.4704 41.5562L62.9714 38.2517"/>
	<path fill="#2C180C" d="M56.2851 43.0582L55.4867 37.6509L63.8696 37.1502L64.668 42.4574L56.2851 43.0582M57.782 39.5535L57.9816 40.9553L62.3727 40.6549L62.1731 39.3532L57.782 39.5535"/>
	<path fill="#FFE088" d="M29.8391 40.5548L36.0265 41.5562L36.5254 38.2517L30.5377 37.2504"/>
	<path fill="#2C180C" d="M36.9246 42.6577L28.7413 41.3559L29.8391 36.0487L37.723 37.3505L36.9246 42.6577M31.0366 39.6536L35.2281 40.3545L35.4277 39.0528L31.336 38.3518L31.0366 39.6536"/>
	<path fill="#FFE088" d="M70.6558 36.5494C69.2586 37.0501 65.666 37.751 65.666 37.751L66.1649 41.0555C66.1649 41.0555 69.9572 40.3545 71.3544 39.8539L71.3544 36.3491"/>
	<path fill="#2C180C" d="M65.3666 42.157L64.5682 36.8498C65.4664 36.6495 68.9592 35.9486 70.3564 35.4479L72.1527 34.9472L73.2505 40.2544L71.6537 40.7551C70.2566 41.2558 66.5641 41.9567 66.3645 41.9567M66.8635 38.5521L67.0631 39.8539C68.2607 39.6536 70.057 39.253 70.9552 38.9526L70.6558 37.6509C69.558 37.9513 67.8615 38.2517 66.8635 38.5521"/>
	<path fill="#FFE088" d="M20.8574 38.0515C22.9531 38.6523 26.3462 39.8539 26.7454 39.9541L27.4439 36.6496L21.7555 34.9473L20.8574 38.0515"/>
	<path fill="#2C180C" d="M27.5437 41.1557C26.446 40.8553 25.947 40.655 25.2484 40.4547C24.0508 40.0542 22.2545 39.4534 21.3564 39.153L19.6598 38.6523L21.1568 33.6455L28.6415 35.9486L27.5437 41.1557M22.1547 37.3505C23.1527 37.6509 24.7494 38.2518 25.947 38.5522C26.0468 38.5522 26.0468 38.5522 26.1466 38.6523L26.446 37.3505L22.5539 36.2491L22.1547 37.3505"/>
	<path fill="#FFE088" d="M78.8391 33.7457C77.6415 34.2463 76.2444 34.6469 74.8473 35.1475L75.0469 38.7524C77.2424 38.0515 78.6395 37.3505 80.0367 36.8498L79.5377 33.5454"/>
	<path fill="#2C180C" d="M74.3483 39.954L72.9511 34.6469L74.5479 34.1462C75.0468 33.9459 75.5458 33.8458 76.0448 33.6455C76.8432 33.3451 77.6415 33.1448 78.4399 32.8444L80.1365 32.3438L82.0326 37.3505L80.2362 37.8512C79.6375 38.0515 79.0387 38.3519 78.4399 38.5522C77.6415 38.8526 76.8432 39.2531 75.945 39.5535L74.3483 39.954M75.446 35.9486L75.8452 37.4507C76.5438 37.2504 77.1426 36.95 77.8411 36.6496C78.4399 36.4493 78.9389 36.1489 79.5377 35.9486L79.0387 34.747C78.3401 35.0474 77.6415 35.2477 76.8432 35.5481C76.3442 35.6482 75.8452 35.8485 75.446 35.9486"/>
	<path fill="#FFE088" d="M14.4704 31.6428L12.0753 33.9459C14.2708 35.1475 15.6679 35.8485 17.0651 36.5494L18.9612 33.7456C16.8655 32.8444 15.6679 32.3437 14.4704 31.6428"/>
	<path fill="#2C180C" d="M18.3624 38.1516L16.6659 37.4506C15.2688 36.7497 13.8716 36.0487 12.3747 35.3478L10.6781 34.2463L13.3726 29.7402L14.8696 30.8417C15.5681 31.2422 16.3665 31.6428 17.1649 32.0433C17.5641 32.2436 18.0631 32.4439 18.4622 32.6441L20.1588 33.1448L18.3624 38.1516M13.4724 33.6455C14.7698 34.2463 16.0671 34.8471 17.2647 35.5481L17.6639 34.4466C17.2647 34.2463 16.8655 34.046 16.4663 33.8458C15.6679 33.4452 14.8696 33.0447 14.0712 32.6441L13.4724 33.6455"/>
	<path fill="#FFE088" d="M82.9307 32.2436L84.0285 34.9473L86.4236 34.0461C86.9225 33.8458 87.6211 33.6455 88.1201 33.1448L90.0162 31.7429L88.1201 29.1394L82.9307 32.2436"/>
	<path fill="#2C180C" d="M83.5295 36.1489L81.7331 31.7429L88.4195 27.7375L91.4134 31.8431L88.8187 33.8458C88.2199 34.3464 87.6211 34.6469 87.1221 34.8471L83.5295 36.1489M84.228 32.6441L84.6272 33.6455L86.4236 32.9445C86.8227 32.8444 87.2219 32.6441 87.5213 32.3437L88.7189 31.4425L87.9205 30.341L84.228 32.6441"/>
	<path fill="#FFE088" d="M8.48265 26.5359L5.18937 27.5373C6.38693 29.6401 7.58449 30.8417 8.98164 32.0434L11.7759 29.8404C9.8798 28.4385 9.18122 27.4371 8.48265 26.5359"/>
	<path fill="#2C180C" d="M9.9796 33.7457L8.38286 32.8445C7.08551 31.743 5.68836 30.4412 4.88999 28.839L3.79223 27.337L8.28307 24.6334L9.58042 26.3356C10.1792 27.1367 10.778 27.9378 11.7759 28.6388L13.2729 29.7402L9.9796 33.7457M6.68632 27.8377C7.2851 29.0393 8.48266 30.2409 9.58042 31.1422L10.4786 30.0407C9.38082 29.1394 8.68225 28.2382 8.08347 27.4371L6.68632 27.8377"/>
	<path fill="#FFE088" d="M94.5071 22.0297L91.2138 22.5304C91.2138 24.433 91.0143 25.3342 90.3157 26.5358L92.3116 29.1393C93.8085 27.2368 94.5071 25.5345 94.7067 24.1326C95.0061 23.4316 94.7067 22.7307 94.5071 22.0297"/>
	<path fill="#2C180C" d="M92.611 30.5413L88.5193 27.437L89.6171 25.935C90.1161 25.0338 90.3157 24.3328 90.3157 23.2313L90.3157 21.9296L94.5071 19.8267L95.6049 21.7293C95.9043 22.7307 96.1039 23.5318 95.8045 24.433C95.5051 26.0351 94.7067 27.8376 93.7088 29.1393L92.611 30.5413M91.2139 27.0365C92.9104 26.7361 93.5092 25.2341 93.7088 24.0324C93.9083 23.4316 93.8086 23.1312 93.7088 22.6305L92.3116 23.1312C92.2118 24.6332 92.0122 25.7347 91.2139 27.0365"/>
	<path fill="#FFE088" d="M7.3849 23.0311C7.3849 21.8295 7.5845 20.9282 8.28308 19.7266L5.98776 17.3234C4.59061 19.7266 4.09163 21.3288 4.09163 23.0311L7.3849 23.732"/>
	<path fill="#2C180C" d="M3.09365 24.9337L3.09365 22.931C3.09365 21.1285 3.59263 19.4262 4.5906 17.4235L5.68835 15.8214L10.1792 18.525L9.08143 20.1272C8.58245 21.0284 8.38286 21.7293 8.38286 22.8308L8.38286 24.433L3.09365 24.9337M6.28713 18.6251C5.48876 20.1272 5.08958 21.5291 5.08958 22.8308L6.38693 22.7307C6.38693 21.4289 6.68632 20.4276 7.38489 19.226L6.28713 18.6251"/>
	<path fill="#FFE088" d="M88.8187 19.4262L92.1119 18.3248C90.9144 16.4222 89.7168 15.2206 88.3197 14.0189L85.5254 16.1218C87.4215 17.5237 88.1201 18.525 88.8187 19.4262"/>
	<path fill="#2C180C" d="M89.1181 21.6292L87.9205 19.7267C87.3217 18.9256 86.7229 18.1245 85.725 17.4235L84.228 16.322L87.6211 12.1164L89.1181 13.1177C90.9144 14.6197 92.0121 15.9215 92.7107 17.023L93.7087 18.525L89.1181 21.6292M87.0223 15.9215C88.1201 16.8227 88.8187 17.7239 89.4174 18.525L90.7148 18.0243C90.116 17.023 89.2179 16.0216 87.8207 14.82L87.0223 15.9215"/>
	<path fill="#FFE088" d="M11.0774 16.8227C12.0753 15.8214 13.2729 15.1204 14.67 14.4195L13.6721 11.115C11.3767 12.3166 10.1792 13.318 8.98163 14.2192L10.3788 17.3234"/>
	<path fill="#2C180C" d="M10.279 18.6252L6.88591 14.4195L8.88184 12.9174C9.9796 12.1164 11.0774 11.3153 12.4745 10.6143L13.9714 9.51285L16.666 14.0189L15.0692 15.1204C13.6721 15.8214 12.6741 16.4222 11.7759 17.3234L10.279 18.6252M9.78 14.9202L10.5784 15.9215C11.6761 14.9202 12.8737 14.2192 14.0712 13.6184L13.3727 12.5169C12.0753 13.1177 11.0774 13.8187 10.0794 14.6198"/>
	<path fill="#FFE088" d="M85.0264 11.816C82.8309 10.6144 81.4338 9.91341 80.0366 9.21246L78.1405 12.1164C80.2362 13.0176 81.4338 13.5183 82.6313 14.2192L85.0264 11.816"/>
	<path fill="#2C180C" d="M83.7291 15.9215L82.2321 15.0203C81.4338 14.6198 80.7352 14.2192 79.9368 13.8187C79.5376 13.6184 79.0387 13.4181 78.6395 13.2179L76.9429 12.7172L78.8391 7.71043L80.6354 8.21111C82.0325 8.91205 83.4297 9.613 84.9266 10.3139L86.6232 11.4154L83.7291 15.9215M79.5376 11.5156C79.9368 11.7158 80.336 11.9161 80.7352 12.1164C81.5336 12.5169 82.3319 12.8173 83.0305 13.318L83.7291 12.2165C82.4317 11.6157 81.2342 11.0149 79.9368 10.4141L79.5376 11.5156"/>
	<path fill="#FFE088" d="M18.2627 12.0162C19.4603 11.5156 20.8574 11.115 22.2545 10.6144L22.055 7.30988C19.8594 8.01083 18.4623 8.71177 17.0651 9.21245L17.5641 12.2165"/>
	<path fill="#2C180C" d="M17.0651 13.4181L15.0692 8.71178L16.8655 8.21111C17.4643 8.01084 18.0631 7.71043 18.6619 7.51016C19.4603 7.20975 20.2586 6.80921 21.1568 6.50881L22.8533 6.00813L24.3503 11.0149L22.6537 11.5156C22.1548 11.7158 21.6558 11.816 21.1568 12.0163C20.3584 12.3167 19.5601 12.5169 18.7617 12.8173L17.0651 13.4181M17.7637 10.0135L18.1629 11.0149C18.8615 10.7145 19.6598 10.5142 20.4582 10.2138C20.8574 10.1137 21.3564 9.91341 21.7556 9.71314L21.4562 8.51151C20.7576 8.71178 20.059 9.01219 19.4603 9.3126C18.8615 9.613 18.2627 9.81327 17.7637 10.0135"/>
	<path fill="#FFE088" d="M74.6476 10.9148L76.2443 7.81056C74.1486 7.10961 72.4521 6.90934 71.0549 6.40867L69.6578 9.51287C71.8533 10.2138 73.2504 10.4141 74.6476 10.9148"/>
	<path fill="#2C180C" d="M76.1445 11.9161L74.5478 11.9161C73.6496 11.6157 72.951 11.4154 72.2525 11.2152C71.5539 11.0149 70.8553 10.9148 70.0569 10.6143L68.4602 10.2138L69.558 4.90664L71.2545 5.40732C71.9531 5.60759 72.6517 5.80786 73.45 6.00813C74.2484 6.2084 75.0468 6.40867 75.8451 6.60894L77.4419 7.10962L76.1445 11.9161M70.8553 8.81192C71.4541 9.01219 72.1527 9.21246 72.7514 9.31259C73.3502 9.51286 74.0488 9.613 74.6476 9.81327L75.0468 8.41138C74.448 8.21111 73.7494 8.11097 73.1506 7.9107C72.4521 7.81056 71.8533 7.61029 71.1547 7.41002L70.8553 8.81192"/>
	<path fill="#FFE088" d="M31.7352 8.31124L31.0367 4.90664L25.1487 6.40867L26.0468 9.71314"/>
	<path fill="#2C180C" d="M25.3483 10.9148L23.9511 5.70773L31.835 3.70502L32.9328 9.11233L25.3483 10.9148M26.446 7.10962L26.8452 8.51152L30.6375 7.6103L30.3381 6.2084L26.446 7.10962"/>
	<path fill="#FFE088" d="M66.0652 8.31124L67.4623 5.20705C65.3666 4.80651 63.9695 4.5061 62.2729 4.30583L60.8758 7.6103C63.2709 7.81057 64.668 8.11097 66.0652 8.31124"/>
	<path fill="#2C180C" d="M67.5621 9.71314L65.8656 9.21246C65.2668 9.11232 64.5682 9.01219 63.9695 8.91205C63.2709 8.81192 62.4725 8.61165 61.6741 8.51151L59.6782 8.51151L60.4766 3.20434L62.3727 3.20434C63.3707 3.30448 64.3686 3.50475 65.2668 3.60488C65.8656 3.70502 66.3646 3.80515 66.9633 3.90529L68.6599 4.40596L67.5621 9.71314M62.0733 6.60894C62.8717 6.70908 63.5703 6.80921 64.3686 7.00948C64.9674 7.10962 65.4664 7.20975 66.0652 7.30989L66.3646 6.00813C65.8656 5.90799 65.4664 5.90799 64.9674 5.80786C64.1691 5.70772 63.2709 5.50745 62.2729 5.40732L62.0733 6.60894"/>
	<path fill="#FFE088" d="M40.7168 7.30989L40.5172 4.00542L34.1303 4.5061L34.3299 7.81056"/>
	<path fill="#2C180C" d="M33.4317 8.81192L33.1323 3.50475L41.5152 2.8038L41.8146 8.11097L33.4317 8.81192M35.228 5.40732L35.3278 6.70908L39.7189 6.40867L39.6191 5.10691L35.228 5.40732"/>
	<path fill="#FFE088" d="M57.3829 7.51016L58.4806 4.20569C56.1853 4.20569 54.7882 4.00542 53.0916 4.00542L51.9939 7.30989C54.5886 7.30989 55.9857 7.30989 57.3829 7.51016"/>
	<path fill="#2C180C" d="M59.279 8.51151L57.2831 8.51151C55.9857 8.31124 54.5886 8.31124 52.892 8.31124L50.8961 8.31124L51.1955 3.00407L52.9918 3.00407C53.89 3.00407 54.6884 3.10421 55.4867 3.10421C56.1853 3.10421 56.7841 3.20434 57.4827 3.20434L59.4786 3.20434L59.279 8.51151M53.0916 6.30854C54.6884 6.30854 55.9857 6.30854 57.3829 6.50881L57.4827 5.20705C56.8839 5.20705 56.1853 5.20705 55.5865 5.10691C54.888 5.00678 54.0896 5.00678 53.1914 5.00678L53.0916 6.30854"/>
	<path fill="#FFE088" d="M48.501 7.3099L49.3991 4.00543C47.1038 4.00543 45.4073 4.00543 44.0101 4.00543L43.112 7.3099C45.4073 7.3099 47.1038 7.3099 48.501 7.3099"/>
	<path fill="#2C180C" d="M50.3971 8.31125L42.114 8.31125L42.114 3.00408L50.3971 3.00408L50.3971 8.31125M44.1099 6.30855L48.4012 6.30855L48.4012 5.00679L44.1099 5.00679L44.1099 6.30855"/>
	<path fill="#EF374D" d="M50.2885 70.295C49.3903 70.295 37.1154 64.5872 37.1154 57.0771C37.1154 52.0704 39.9097 48.6657 44.0013 48.6657C45.3985 48.6657 47.095 49.1664 48.4922 49.8673L48.4922 46.7631C47.2946 46.2625 46.596 45.0608 46.596 43.9593C46.596 42.257 47.9932 40.8552 49.6897 40.8552C51.3863 40.8552 52.7834 42.257 52.7834 43.9593C52.7834 45.161 52.0849 46.0622 51.0869 46.7631L51.0869 50.0676C52.7834 49.1664 54.3801 48.866 55.7773 48.866C59.7691 48.866 62.3639 52.1705 62.3639 57.2774C63.4616 64.4871 51.2865 70.295 50.2885 70.295"/>
	<path fill="#2C180C" d="M50.2974 71.2963C49.0998 71.2963 36.1263 65.4884 36.1263 57.0771C36.1263 51.4695 39.3198 47.6644 44.0102 47.6644C45.0082 47.6644 46.3055 47.9648 47.5031 48.3653L47.5031 47.364C46.3055 46.663 45.6069 45.3612 45.6069 43.9594C45.6069 41.6562 47.4033 39.8538 49.6986 39.8538C51.9939 39.8538 53.7903 41.7564 53.7903 43.9594C53.7903 45.2611 53.1915 46.3626 52.0937 47.2638L52.0937 48.5656C53.2913 48.165 54.5886 47.8646 55.7862 47.8646C60.3768 47.8646 63.3707 51.5696 63.3707 57.1772C63.6701 59.5805 62.6721 62.0838 60.5764 64.4871C57.2831 68.4925 51.3951 71.2963 50.2974 71.2963M44.11 49.6671C40.5173 49.6671 38.222 52.571 38.222 57.0771C38.222 63.4857 48.7006 68.7929 50.3972 69.2936C52.0937 68.893 62.3727 63.5859 61.6742 57.3775C61.6742 52.7713 59.4786 49.8673 56.0856 49.8673C54.5886 49.8673 53.1915 50.2679 51.7943 50.9688L50.2974 51.7699L50.2974 46.2625C51.8941 45.161 51.9939 44.46 51.9939 43.9594C51.9939 42.7577 50.996 41.8565 49.8982 41.8565C48.8004 41.8565 47.8025 42.8579 47.8025 43.9594C47.8025 44.6603 48.2017 45.4614 49.0998 45.8619L49.6986 51.5696L48.3015 50.8687C46.8045 50.0676 45.2078 49.6671 44.11 49.6671"/>
</svg>
