<?xml version="1.0" encoding="utf-8" ?>
<svg xmlns="http://www.w3.org/2000/svg" xmlns:xlink="http://www.w3.org/1999/xlink" width="104" height="48">
	<path fill="white" d="M91.2156 48C89.5922 48 88.1717 47.071 87.4615 46.5548C85.7366 45.6258 71.5317 38.2968 52.9639 38.2968C30.8449 38.2968 16.7415 46.7613 16.64 46.8645C15.321 47.6903 14.2049 48 13.0888 48C10.8566 48 9.33463 46.4516 8.82732 45.0065L0 19.2L3.65268 18.6839C11.7698 17.5484 20.2927 14.3484 24.3512 12.5935C26.482 8.98065 33.6859 0 52.1522 0C70.1112 0 77.3151 8.56774 79.6488 12.5935C94.0566 18.4774 99.9415 18.6839 99.9415 18.6839L104 18.7871L102.782 22.7097C102.174 24.671 96.7961 41.9097 95.0712 45.4194C94.4624 46.9677 92.9405 48 91.2156 48"/>
	<path fill="#F4F8F9" d="M26.6849 15.0709C26.6849 15.0709 31.6566 2.89033 52.4566 2.89033C73.2566 2.89033 78.0254 15.2774 78.0254 15.2774C78.0254 15.2774 68.4877 10.0129 52.2537 10.0129C36.0195 10.0129 26.8878 15.0709 26.6849 15.0709"/>
	<path fill="#2D1B0A" d="M79.9531 17.5484L77.518 16.2065C77.4166 16.2065 67.9805 11.0452 52.2536 11.0452C43.0205 11.0452 34.1931 12.8 27.3951 15.8968C26.9892 16.1033 26.8878 16.1033 26.6849 16.1033L25.1629 16.1033L25.7717 14.6581C25.9746 14.142 31.2507 1.85807 52.4566 1.85807C73.6624 1.85807 78.7356 14.3484 78.9385 14.8646L79.9531 17.5484M52.2536 8.98065C63.4146 8.98065 71.4302 11.4581 75.4888 13.0065C72.8507 9.49678 66.4585 3.92259 52.4566 3.92259C38.4546 3.92259 31.961 9.49678 29.2214 12.9033C35.8166 10.3226 43.8322 8.98065 52.2536 8.98065"/>
	<path fill="#F4F8F9" d="M100.195 21.5742C100.195 21.5742 93.3971 21.5742 75.4381 13.8323C75.4381 13.8323 66.2049 10.0129 52.1015 10.0129C38.3025 10.0129 28.9678 13.8323 28.9678 13.8323C28.9678 13.8323 16.4879 19.9226 4.31225 21.5742L11.922 43.8711C11.922 43.8711 12.5308 45.729 15.2703 44.0774C17.9083 42.4258 32.4176 35.0969 53.2177 35.0969C74.0176 35.0969 89.3385 43.8711 89.3385 43.8711C89.3385 43.8711 91.7738 45.9356 92.6869 43.8711C94.3102 40.4646 100.195 21.5742 100.195 21.5742"/>
	<path fill="#2D1B0A" d="M91.4186 45.8721C90.201 45.8721 89.1864 45.0126 88.7805 44.7029C87.6645 44.0835 72.7493 36.1337 53.2684 36.1337C30.5405 36.1337 16.0313 44.9094 15.8284 45.0126C14.5093 45.8721 13.2918 46.0451 12.3786 45.7353C11.364 45.3224 10.9581 44.3932 10.9581 44.2899L2.9425 20.8537L4.16006 20.6472C16.0313 18.9953 28.4098 13.0072 28.5113 13.0072C28.9171 12.8008 38.2518 9.084 52.0508 9.084C66.1542 9.084 75.3874 12.8008 75.7932 13.0072C93.2449 20.544 100.145 20.6472 100.145 20.6472L101.565 20.6472L101.159 21.9894C100.956 22.8154 95.2742 40.9862 93.5493 44.3932C93.1435 45.3224 92.4332 45.7353 91.9259 45.8721C91.8245 45.8721 91.6215 45.8721 91.4186 45.8721M53.2684 34.0689C74.0684 34.0689 89.2879 42.6381 89.8966 42.9478C90.404 43.3608 91.1142 43.7737 91.5201 43.6705C91.5201 43.6705 91.6215 43.6705 91.723 43.3608C93.042 40.5732 97.5064 26.6353 98.8254 22.4024C96.0859 22.0926 88.7805 20.6472 74.9815 14.6591C74.8801 14.6591 65.7484 10.9424 52.0508 10.9424C38.6576 10.9424 29.4245 14.6591 29.323 14.6591C28.9171 14.8656 17.4518 20.4408 5.68201 22.2991L12.8859 43.464C12.8859 43.464 12.9874 43.5672 13.0888 43.6705C13.1903 43.6705 13.6976 43.7737 14.7123 43.1543C18.8723 40.6764 33.6859 34.0689 53.2684 34.0689"/>
	<path fill="#FF6F64" d="M43.4263 20.6452L50.6302 20.6452L50.6302 13.3162C50.6302 12.9033 50.8331 12.4903 51.4419 12.4903C53.6741 12.4903 54.08 12.9033 54.08 13.3162L54.08 20.6452L61.2839 20.6452C61.6897 20.6452 62.0956 21.0581 62.0956 21.6775C62.0956 23.9485 61.6897 24.3614 61.2839 24.3614L54.08 24.3614L54.08 31.8969C54.08 32.3097 53.6741 32.7226 53.2683 32.7226C50.8331 32.7226 50.6302 32.3097 50.6302 31.8969L50.6302 24.3614L43.4263 24.3614C43.0205 24.3614 42.6146 23.9485 42.6146 23.5355C42.6146 21.0581 43.0205 20.6452 43.4263 20.6452"/>
</svg>
