<?xml version="1.0" encoding="utf-8" ?>
<svg xmlns="http://www.w3.org/2000/svg" xmlns:xlink="http://www.w3.org/1999/xlink" width="98" height="84">
	<path fill="white" d="M21.4874 84C18.5481 84 16.2169 82.6843 13.4803 79.9518C9.62881 76.106 6.28406 70.3373 3.85152 62.241C1.31763 53.7398 0 43.6193 0 32.8916C0 32.0819 0 24.7952 3.34474 17.306C5.37186 12.7518 7.90576 8.60241 11.5546 5.86988C16.1156 2.42892 21.8929 0.506024 28.6837 0.20241C30.5081 0 32.4339 0 34.461 0C34.461 0 35.0691 0 35.1705 0C36.6908 0 38.1098 0.20241 39.4274 0.708434C39.4274 0.708434 68.7193 1.01205 72.5708 1.21446C89.2945 2.1253 96.1867 3.94699 97.5043 8.09639C99.2274 13.359 96.2881 19.6337 91.3216 26.212C86.6593 32.3855 80.5779 38.6602 74.3952 42.4048C65.5772 47.5663 57.8742 48.5783 53.6172 48.6795C53.5159 48.7807 53.5159 48.9831 53.5159 49.0843C51.8942 54.5494 46.5223 57.8892 43.4817 59.5084C38.7179 62.0386 36.5895 67.9084 34.2583 72.8675C32.8393 76.0048 31.2176 78.7373 29.3932 80.9639C27.3661 83.494 24.7308 84 21.8929 84"/>
	<path fill="#E04C4C" d="M50.6426 47.2627C50.744 46.8578 50.9467 46.453 51.2935 46.0482C51.2935 45.2386 51.5548 37.9518 50.5412 29.7543C49.325 18.4193 46.487 10.3229 42.4328 6.37596C40.3043 4.25065 37.9731 3.43345 35.1352 3.43345C35.0338 3.43345 34.9324 3.43345 34.9324 3.43345C32.9053 3.54222 31.0809 3.64342 29.3579 3.64342C23.2765 3.94704 18.1074 5.56632 14.0531 8.60246C10.8097 11.0314 8.27585 14.3712 6.45145 18.4193C3.4104 25.5037 3.4104 32.4868 3.4104 32.5881C3.4104 42.7085 4.62704 52.2217 6.95823 60.2169C9.0867 67.6049 12.1274 73.2723 15.5735 76.8146C17.8033 79.041 20.1345 80.1543 22.3643 80.1543C24.4928 80.1543 26.1145 79.2434 27.7362 77.3205C29.2565 75.3977 30.5741 72.6651 31.8918 69.7301C34.223 64.67 36.8582 58.9012 42.0274 56.1687C44.6626 54.8531 49.325 51.8169 50.6426 47.2627"/>
	<path fill="#2D1B0A" d="M22.4118 81.2676C19.8764 81.2676 17.341 80.0531 14.9069 77.6242C11.3573 74.082 8.21339 68.2122 6.08363 60.6218C3.75103 52.5254 2.4326 42.911 2.4326 32.6893C2.4326 31.8796 2.4326 25.0989 5.57654 18.1158C7.50347 13.8652 10.1403 10.4242 13.4871 7.89409C17.7466 4.75674 23.0203 2.93505 29.3082 2.73264C31.0323 2.63144 32.8578 2.5239 34.7847 2.5239C34.9876 2.5239 35.089 2.5239 35.089 2.5239C38.1315 2.5239 40.8698 3.54228 43.101 5.76879C47.3605 9.91818 50.2002 18.217 51.5186 29.7543C52.5328 38.4579 52.2713 45.9471 52.2713 46.2507C51.9243 47.0604 51.8229 47.364 51.7215 47.6676C50.3016 52.5254 45.3322 55.6628 42.4925 57.1808C37.6244 59.711 35.089 65.3784 32.7564 70.2363C31.438 73.1712 30.1195 76.0049 28.4969 78.029C26.7728 80.1543 24.7444 81.2676 22.4118 81.2676M35.4947 4.45312C35.3933 4.45312 35.2918 4.45312 35.1904 4.45312C35.089 4.45312 34.9876 4.45312 34.9876 4.45312C32.9592 4.55433 31.1337 4.65553 29.4096 4.65553C23.5274 4.95915 18.558 6.57843 14.7041 9.41216C11.5602 11.7399 9.12615 14.8772 7.40205 18.8242C4.35953 25.5037 4.46095 32.2844 4.46095 32.5881C4.46095 42.6073 5.67796 52.1206 8.01056 60.0146C10.1403 67.2001 12.98 72.7664 16.3268 76.1061C18.3551 78.1302 20.3835 79.1423 22.4118 79.1423C24.2373 79.1423 25.5558 78.4338 26.9756 76.6122C28.4969 74.7905 29.7139 72.0579 30.9309 69.2242C33.3649 63.9616 36.1032 57.9905 41.5797 55.1567C44.1152 53.8411 48.5775 51.0073 49.7945 46.8579C49.8959 46.4531 50.0988 46.0483 50.3016 45.6435C50.3016 44.2266 50.5044 37.4459 49.5917 29.7543C48.3747 18.6218 45.6364 10.829 41.7826 6.98324C39.957 5.26276 37.9287 4.45312 35.4947 4.45312"/>
	<path fill="#E04C4C" d="M87.6728 25.4024C91.9297 19.6336 94.1596 14.1686 93.7541 10.424C93.6528 9.31079 91.6257 5.76862 71.1518 4.65537C67.3003 4.45296 63.0433 4.25055 58.7864 4.25055C58.2796 4.25055 56.0498 4.75657 53.8199 6.37585C50.5765 8.70356 48.8535 12.3469 48.8535 17.306C48.8535 17.5084 48.8535 17.7108 48.8535 17.812C49.9684 21.5565 50.7793 25.8072 51.286 30.7663C51.9955 36.9398 51.9955 42.506 51.9955 45.4409C52.0969 45.4409 52.1982 45.4409 52.1982 45.4409C55.9484 45.4409 63.4487 44.6312 71.7599 39.6722C77.5372 36.3325 83.3145 31.1711 87.6728 25.4024"/>
	<path fill="#2D1B0A" d="M51.9989 46.5542L50.9846 46.5542L50.9846 45.5421C50.9846 42.8096 50.9846 37.2433 50.2745 30.9686C49.7673 26.1108 48.9558 21.759 47.84 18.1156C47.84 17.4072 47.84 17.4072 47.84 17.306C47.84 12.0433 49.6659 8.09633 53.2162 5.56621C55.6506 3.84572 58.1866 3.3397 58.5923 3.3397C63.2584 3.3397 67.4173 3.54211 71.1704 3.74452C90.139 4.85777 94.5008 7.99512 94.7507 10.424C95.1094 14.4722 92.8778 20.1397 88.4146 26.1108C84.0528 31.9807 78.1695 37.2433 72.2862 40.7855C63.7656 45.8457 56.0564 46.6554 52.2018 46.6554C52.2018 46.5542 52.1004 46.5542 51.9989 46.5542M49.8688 17.812C50.8831 21.4554 51.7961 25.8072 52.3032 30.665C52.9119 36.3325 53.0133 41.3927 53.0133 44.4289C56.8679 44.3277 63.6641 43.3156 71.2446 38.8626C76.9523 35.5228 82.5313 30.3614 86.7916 24.7951C90.9505 19.2289 93.0807 14.0674 92.6749 10.5252C92.6749 10.5252 91.9649 6.78066 70.9675 5.56621C67.3158 5.3638 63.1569 5.26259 58.7952 5.16139C58.3894 5.26259 56.3607 5.66741 54.332 7.08428C51.3903 9.20958 49.8688 12.6505 49.8688 17.2048C49.9702 17.5084 49.9702 17.6096 49.8688 17.812"/>
	<path fill="#603813" d="M58.7864 3.94702C54.124 5.76871 49.0562 7.6916 48.6508 17.9133C48.7522 16.294 44.5966 8.80485 42.2654 6.07232C41.7586 5.5663 40.441 4.55425 39.9342 4.04822C44.5966 3.84582 50.0698 3.74461 54.9349 3.74461L58.7864 3.94702"/>
	<path fill="#2D1B0A" d="M50.0698 18.0145L47.0291 17.9132C46.9278 16.6989 43.3803 9.91811 41.0491 7.18558C40.8464 6.98317 40.2383 6.47714 39.8329 6.17353C39.4274 5.86991 39.022 5.46509 38.8193 5.26268L36.2854 2.83377L39.8329 2.73256C44.3939 2.53016 49.7657 2.42895 54.9349 2.42895L65.78 3.03618L59.2932 5.5663C54.5295 7.28678 50.4752 8.90606 50.0698 18.0145M43.6844 5.46509C44.9007 6.98317 46.6237 9.61449 47.9413 12.2458C48.9549 8.80485 50.6779 6.78076 52.705 5.26268C49.6644 5.36389 46.5223 5.36389 43.6844 5.46509"/>
</svg>
