<?xml version="1.0" encoding="utf-8" ?>
<svg xmlns="http://www.w3.org/2000/svg" xmlns:xlink="http://www.w3.org/1999/xlink" width="92" height="90">
	<path fill="white" d="M8.69055 90C3.89577 90 0 86.0738 0 81.2416L0 8.75839C0 3.92617 3.89577 0 8.69055 0L83.3094 0C88.1042 0 92 3.92617 92 8.75839L92 81.2416C92 86.0738 88.1042 90 83.3094 90L8.69055 90"/>
	<path fill="#FFBBCB" d="M9.09012 3.4228L82.9099 3.4228C86.0065 3.4228 88.5038 5.93958 88.5038 9.06038L88.5038 80.8389C88.5038 83.9597 86.0065 86.4765 82.9099 86.4765L9.09012 86.4765C5.99349 86.4765 3.4962 83.9597 3.4962 80.8389L3.4962 9.06038C3.4962 5.93958 5.99349 3.4228 9.09012 3.4228"/>
	<path fill="#2D1A0B" d="M82.9099 87.3824L9.09013 87.3824C5.49404 87.3824 2.4973 84.3623 2.4973 80.7381L2.4973 8.9596C2.4973 5.33543 5.49404 2.3153 9.09013 2.3153L82.9099 2.3153C86.506 2.3153 89.5027 5.33543 89.5027 8.9596L89.5027 80.7381C89.4028 84.3623 86.506 87.3824 82.9099 87.3824M9.09013 4.42939C6.59285 4.42939 4.49513 6.54349 4.49513 9.06027L4.49513 80.8388C4.49513 83.3556 6.59285 85.4697 9.09013 85.4697L82.9099 85.4697C85.4072 85.4697 87.5049 83.3556 87.5049 80.8388L87.5049 9.06027C87.5049 6.54349 85.4072 4.42939 82.9099 4.42939L9.09013 4.42939"/>
	<path fill="white" d="M11.1379 19.027L80.8621 19.027L80.8621 67.7518L11.1379 67.7518L11.1379 19.027"/>
	<path fill="#2D1A0B" d="M81.861 68.7586L10.139 68.7586L10.139 18.0203L81.861 18.0203L81.861 68.7586M12.1368 66.7451L79.8632 66.7451L79.8632 20.0337L12.1368 20.0337L12.1368 66.7451"/>
	<path fill="#82B1F4" d="M47.9479 66.745L24.6732 66.745C23.8741 66.745 23.5744 66.4429 23.5744 65.7382L23.5744 60.4027C23.5744 53.7584 29.3681 48.1208 36.3605 48.1208C43.253 48.1208 49.1466 53.7584 49.1466 60.4027L49.1466 65.7382C49.0467 66.4429 48.4474 66.745 47.9479 66.745"/>
	<path fill="#2C180C" d="M47.9479 67.7517L24.6732 67.7517C23.3746 67.7517 22.5755 67.047 22.5755 65.7383L22.5755 60.4027C22.5755 53.255 28.8687 47.1141 36.3605 47.1141C43.8524 47.1141 50.1455 53.1544 50.1455 60.4027L50.1455 65.7383C50.0456 67.047 48.9468 67.7517 47.9479 67.7517M24.5733 65.7383L47.9479 65.7383C47.9479 65.7383 48.0478 65.7383 48.0478 65.7383L48.0478 60.4027C48.0478 54.2617 42.6537 49.1275 36.2606 49.1275C29.8676 49.1275 24.4734 54.2617 24.4734 60.4027L24.4734 65.7383C24.5733 65.7383 24.5733 65.7383 24.5733 65.7383"/>
	<path fill="#FFE088" d="M70.1238 66.8457L46.7492 66.8457C45.9501 66.8457 45.6504 66.5436 45.6504 65.8389L45.6504 60.5034C45.6504 53.8591 51.4441 48.2215 58.4365 48.2215C65.329 48.2215 71.2226 53.8591 71.2226 60.5034L71.2226 65.8389C71.2226 66.6443 70.9229 66.8457 70.1238 66.8457"/>
	<path fill="#2C180C" d="M70.1238 67.8524L46.7492 67.8524C45.4506 67.8524 44.6515 67.1477 44.6515 65.839L44.6515 60.5034C44.6515 53.3557 50.9447 47.2148 58.4365 47.2148C65.9284 47.2148 72.2215 53.2551 72.2215 60.5034L72.2215 65.839C72.2215 67.1477 71.4224 67.8524 70.1238 67.8524M46.6493 65.839C46.7492 65.839 46.7492 65.839 46.6493 65.839L70.0239 65.839C70.0239 65.839 70.1238 65.839 70.1238 65.839L70.1238 60.5034C70.1238 54.3624 64.7297 49.2282 58.3366 49.2282C51.9436 49.2282 46.5494 54.3624 46.5494 60.5034L46.5494 65.839C46.6493 65.839 46.6493 65.839 46.6493 65.839"/>
	<path fill="#FCF2DE" d="M39.059 30.1008C39.059 29.9101 38.6595 29.7987 38.6595 30.1008C37.0612 34.4296 31.8669 37.6511 25.8734 37.6511L25.5737 40.5705C25.5737 46.1074 29.869 50.7383 35.6627 50.7383C41.1568 50.7383 45.7518 46.4094 45.7518 40.5705L45.7518 37.3491C42.2556 35.9397 39.7583 33.3222 39.059 30.1008"/>
	<path fill="#2C180C" d="M35.6627 51.745C29.3684 51.745 24.5733 46.8121 24.5733 40.5705L24.5733 36.6443L25.872 36.6443C31.2665 36.6443 36.2614 33.7248 37.6599 29.7987C37.8597 29.2953 38.3592 28.9933 38.8587 28.9933C39.4581 28.9933 39.8577 29.396 39.9576 30C40.557 32.8188 42.7547 35.1342 46.1513 36.443L46.7522 40.5705C46.8506 46.8121 41.9555 51.745 35.6627 51.745M26.5713 38.5571L26.5713 40.4698C26.5713 45.604 30.5672 49.6309 35.6627 49.6309C40.7568 49.6309 44.7527 45.604 44.7527 40.4698L44.7527 37.8524C41.8557 36.5436 39.6579 34.5302 38.6589 32.1141C36.4612 35.9396 31.766 38.3557 26.5713 38.5571"/>
	<path fill="#2D1A0B" d="M39.0575 27.0805C39.0575 27.3826 39.0575 27.8859 39.0575 27.8859C39.0575 28.1879 39.0575 28.9933 39.0575 29.2953C39.3572 33.0201 42.0542 35.9396 46.2497 37.349L46.2497 36.2416C45.8501 32.2148 42.8534 28.4899 39.0575 27.0805"/>
	<path fill="#2D1A0B" d="M39.0575 27.2819C37.9588 26.4765 36.7601 26.4765 35.6613 26.4765C29.8675 26.4765 24.9729 30.8054 24.9729 36.6443L24.9729 38.0537C32.165 38.0537 37.8588 34.3288 38.9576 29.4966C38.9576 29.1946 38.9576 28.3892 38.9576 28.0872C39.0575 27.5839 39.0575 27.5839 39.0575 27.2819"/>
	<path fill="#2D1A0B" d="M31.8654 40.5705C31.8654 41.1821 31.2393 41.6779 30.4669 41.6779C29.6945 41.6779 29.0684 41.1821 29.0684 40.5705C29.0684 39.9589 29.6945 39.4631 30.4669 39.4631C31.2393 39.4631 31.8654 39.9589 31.8654 40.5705"/>
	<path fill="#2D1A0B" d="M64.43 27.6846C64.43 29.9086 62.641 31.7114 60.4343 31.7114C58.2276 31.7114 56.4386 29.9086 56.4386 27.6846C56.4386 25.4606 58.2276 23.6578 60.4343 23.6578C62.641 23.6578 64.43 25.4606 64.43 27.6846"/>
	<path fill="#2D1A0B" d="M42.4539 40.0671C42.4539 40.6787 41.8278 41.1745 41.0554 41.1745C40.283 41.1745 39.6569 40.6787 39.6569 40.0671C39.6569 39.4555 40.283 38.9597 41.0554 38.9597C41.8278 38.9597 42.4539 39.4555 42.4539 40.0671"/>
	<path fill="#FCF2DE" d="M49.0466 38.3557L49.0466 42.0805C49.0466 47.2148 54.7404 51.6443 58.836 51.6443C63.7306 51.6443 68.6253 47.3154 68.6253 42.0805L68.6253 38.3557L62.6318 34.8322L49.0466 38.3557"/>
	<path fill="#2C180C" d="M58.8359 52.651C54.141 52.651 48.0476 47.6174 48.0476 42.0805L48.0476 37.5503L62.7316 33.7248L69.6241 37.4496L69.6241 42.0805C69.5243 47.6174 64.4298 52.651 58.8359 52.651M50.0454 39.161L50.0454 42.0805C50.0454 46.7114 55.4396 50.6376 58.8359 50.6376C62.9314 50.6376 67.6263 47.0134 67.6263 42.0805L67.6263 38.6577L62.5319 35.8389L50.0454 39.161"/>
	<path fill="#2D1A0B" d="M58.836 28.2885C51.2443 28.2885 48.8469 33.4228 48.5472 39.765L61.633 39.765L63.1313 36.5436L63.431 39.765L69.2247 39.765C68.8252 33.6241 67.3269 28.2885 58.836 28.2885"/>
	<path fill="#2D1A0B" d="M55.9392 42.3826C55.9392 43.161 55.3131 43.792 54.5407 43.792C53.7683 43.792 53.1422 43.161 53.1422 42.3826C53.1422 41.6042 53.7683 40.9732 54.5407 40.9732C55.3131 40.9732 55.9392 41.6042 55.9392 42.3826"/>
	<path fill="#2D1A0B" d="M65.8285 42.3826C65.8285 43.161 65.2024 43.792 64.43 43.792C63.6576 43.792 63.0315 43.161 63.0315 42.3826C63.0315 41.6042 63.6576 40.9732 64.43 40.9732C65.2024 40.9732 65.8285 41.6042 65.8285 42.3826"/>
	<path fill="#FF8278" d="M35.5614 49.2281C32.9642 49.2281 31.6656 46.7114 31.5657 46.6107L33.3637 45.7047C33.3637 45.7047 34.1629 47.2147 35.5614 47.2147C36.9598 47.2147 38.0586 45.7047 38.0586 45.7047L39.6569 46.812C39.6569 46.9127 38.0586 49.2281 35.5614 49.2281"/>
	<path fill="#FF8278" d="M59.2357 49.9328C56.6385 49.9328 55.3399 47.4161 55.24 47.3154L57.038 46.4094C57.038 46.4094 57.8372 47.9194 59.2357 47.9194C60.6341 47.9194 61.7329 46.4094 61.7329 46.4094L63.3312 47.5167C63.3312 47.7181 61.7329 49.9328 59.2357 49.9328"/>
</svg>
