<?xml version="1.0" encoding="utf-8" ?>
<svg xmlns="http://www.w3.org/2000/svg" xmlns:xlink="http://www.w3.org/1999/xlink" width="96" height="104">
	<path fill="white" d="M87.2807 104C85.9778 104 84.5747 103.698 82.5703 102.992C75.5548 100.271 71.3455 99.4651 69.9424 99.3643C69.8421 99.3643 69.6417 99.4651 69.6417 99.4651C66.2342 100.977 62.1251 102.791 58.3167 102.791C54.2076 102.791 52.1029 100.574 51.2009 99.2636C49.2967 95.8372 49.4971 92.1085 49.5974 88.7829C49.5974 88.0775 49.5974 87.7752 49.5974 87.4729C49.5974 86.969 49.6976 86.062 49.5974 85.7597C49.2967 84.8527 48.6954 83.1395 48 80.8217C47.5929 82.7364 46.9916 84.4496 46.4905 85.6589C46.4905 86.969 46.5907 87.4729 46.5907 87.7752C46.8914 91.8062 46.8914 95.8372 44.7867 99.062C44.1854 100.07 42.0807 102.589 37.7712 102.589C34.3637 102.589 30.3548 100.977 26.5464 99.3643C26.5464 99.3643 26.3459 99.2636 26.2457 99.2636C25.2435 99.3643 21.0342 99.8682 13.8182 102.791C11.6134 103.496 10.3105 103.798 9.00759 103.798C6.50205 103.798 4.09673 102.69 2.49318 100.876C-1.1148 96.5426 -0.313028 89.9922 1.79163 76.7907C2.29274 72.4574 3.4954 66.4109 5.29939 58.9535L5.49983 57.7442C5.90072 56.3333 6.40182 55.0233 7.00315 53.9147C7.00315 53.9147 7.00315 53.814 7.00315 53.814C7.00315 53.7132 7.10338 53.5116 7.2036 53.3101C10.4107 44.3411 15.8227 35.5736 23.8404 26.6047C26.9473 23.1783 29.8537 21.5659 33.161 21.5659C36.1677 21.5659 38.2723 22.876 39.7756 24.4884L39.7756 20.7597C39.5752 20.2558 39.3748 19.8527 39.2745 19.2481C39.2745 19.1473 39.1743 19.0465 39.1743 18.9457C38.7734 18.1395 38.573 17.5349 38.4728 16.8295C37.5708 14.7132 35.867 9.87597 37.4705 5.74419C38.6732 1.71318 41.9805 0.705426 44.3858 0.302326C44.6865 0.302326 44.6865 0.302326 44.7867 0.302326C44.9872 0.302326 45.2878 0.20155 45.4883 0.20155C46.3903 0.20155 47.0918 0.302326 47.7934 0.604651C48.6954 0.20155 49.5974 0 50.5996 0C50.9002 0 51.4014 0 51.8022 0C59.2186 2.31783 60.4213 7.65891 59.4191 11.7907C59.1184 12.8992 58.8178 13.7054 58.6173 14.4109C58.2164 16.2248 57.6151 18.2403 56.4124 20.155L56.4124 24.3876C57.9158 22.7752 60.0204 21.4651 62.9268 21.4651C66.0337 21.4651 68.8399 22.9767 71.9468 26.4031C88.4834 44.845 91.9911 60.7674 94.3965 76.8915C96.2004 90.1938 97.1024 96.6434 93.5947 100.876C92.0914 102.791 89.8865 104 87.2807 104"/>
	<path fill="#E04C4C" d="M87.1453 100.674C86.0429 100.674 84.9404 100.473 83.6376 99.969C76.5218 97.1473 71.611 96.0387 69.6065 96.0387C69.4061 96.0387 69.2056 96.0387 69.1054 96.0387C68.905 96.1395 68.5041 96.2403 68.003 96.5426C64.6957 97.9535 61.0877 99.4651 58.081 99.4651C55.5755 99.4651 54.3728 98.3566 53.7715 97.4496C52.3684 95.1318 52.4686 91.7054 52.5688 88.5814C52.5688 87.2713 52.6691 85.6589 52.5688 85.0542C52.168 83.8449 47.8291 71.7519 50.2637 64.1938C50.7649 62.5815 50.4642 61.2714 50.0633 59.155C49.5622 57.0387 49.1613 54.5194 49.3618 51.0931C48.4598 50.6899 47.9586 50.5891 47.8291 50.5891C47.658 50.6899 47.2571 50.7907 46.6558 51.2946C46.8562 54.721 46.2549 57.1395 45.9542 59.155C45.4531 61.1706 45.2527 62.5815 45.7538 64.1938C45.854 64.5969 45.854 64.7984 45.854 65.1007C47.658 72.2558 43.9498 82.6356 43.148 84.8527C43.0478 85.3566 43.148 86.969 43.148 88.1783C43.2482 91.4031 43.5489 94.9302 41.9453 97.248C41.4442 98.0542 40.1414 99.2635 37.736 99.2635C34.8296 99.2635 31.2216 97.7519 28.0145 96.3411C27.5134 96.1395 27.2128 95.938 26.9121 95.8372C26.8119 95.8372 26.7117 95.8372 26.5112 95.8372C24.5068 95.8372 19.6961 96.9457 12.5804 99.5659C11.1773 100.07 9.97463 100.372 8.97242 100.372C6.96798 100.372 5.6651 99.4651 4.96355 98.5581C2.35779 95.5349 3.05934 89.4883 4.96355 77.1938C5.56488 72.2558 6.96798 65.5038 8.47131 59.2559C8.47131 59.155 8.47131 59.0542 8.57153 59.0542C9.07264 57.2403 9.47353 56.1319 10.0749 55.1241C10.0749 54.9225 10.1751 54.6202 10.2753 54.4187C13.282 45.8527 18.5937 37.4883 26.2105 28.8218C28.7161 26.1007 30.8207 24.7908 33.0256 24.7908C37.6358 24.7908 39.7405 29.9303 42.246 36.4807L42.9476 38.2946L42.9476 19.7519C42.5467 19.3489 42.3462 18.9457 42.3462 18.5427C42.246 18.3412 42.1458 17.8372 41.8451 17.3333C41.6447 16.7288 41.344 16.0233 41.1436 15.3179C41.0434 15.1163 40.9431 14.9148 40.7427 14.7132C40.5422 14.5117 38.8385 9.87599 40.1414 6.65118C40.7427 4.63568 41.9453 3.82948 44.3507 3.42638C44.5511 3.42638 44.8518 3.42638 45.0522 3.42638C46.1547 3.42638 46.9564 3.82948 47.5578 4.33335C48.3595 3.52715 49.3618 3.12405 50.2637 3.12405C50.4642 3.12405 50.7649 3.12405 50.8651 3.12405C56.4775 4.63568 56.3773 8.46514 55.7759 10.5814C55.5755 11.4884 55.2748 12.2946 55.0744 13.2016C54.5733 15.1163 53.9719 16.9303 52.8695 18.6434L52.7693 37.3876C53.1702 36.5815 53.4708 35.8759 53.6713 35.1706C56.277 29.3256 58.2815 24.5891 62.591 24.5891C64.6957 24.5891 66.8003 25.7985 69.3059 28.3179C85.1409 45.9535 88.5484 61.4729 90.8535 77.093C92.3959 88.8837 93.3591 95.3333 90.7533 98.4573C90.2522 99.7674 89.1498 100.674 87.1453 100.674"/>
	<path fill="#2D1B0A" d="M87.1803 101.682C85.9777 101.682 84.6748 101.38 83.2717 100.876C76.5569 98.2559 71.5458 97.0466 69.5413 97.0466C69.1404 97.0466 69.1404 97.1474 69.0402 97.1474C68.8398 97.2482 68.6393 97.3489 68.4389 97.4497C65.2318 98.8606 61.3232 100.473 58.0158 100.473C54.909 100.473 53.5059 99.0621 52.9045 98.0544C51.301 95.3334 51.4012 91.7055 51.5014 88.5815C51.5014 88.1784 51.5014 87.6745 51.5014 87.1706C51.5014 86.4652 51.5014 85.5582 51.5014 85.2559C51.5014 85.2559 51.5014 85.1551 51.4012 84.9536C48.4948 75.9846 47.693 68.7288 49.1963 63.8916C49.5972 62.5815 49.3968 61.473 48.8957 59.3567C48.4948 57.3412 47.9937 54.9226 48.0939 51.7985C47.829 51.6978 47.829 51.6978 47.693 51.6978C47.5928 51.6978 47.5928 51.7985 47.4926 51.7985C47.5928 54.6202 47.1919 56.8373 46.8912 58.5505C46.2899 61.473 46.1897 62.5815 46.4903 63.9923C46.5906 64.3954 46.6908 64.6978 46.6908 65.1009C48.3946 72.2559 45.0872 82.2327 43.9848 85.2559C43.9848 85.5582 43.9848 86.3644 43.9848 86.9691C43.9848 87.473 43.9848 87.8761 43.9848 88.2792C44.085 91.9071 44.2855 95.4342 42.5817 97.8528C42.281 98.3567 40.8779 100.271 37.5706 100.271C34.4637 100.271 30.8558 98.7598 27.4482 97.2482C27.1476 97.1474 26.9471 97.0466 26.7467 96.9458C26.6465 96.9458 26.6465 96.8451 26.5462 96.8451C24.642 96.8451 20.0318 97.8528 12.8159 100.574C11.3125 101.078 10.1099 101.481 8.807 101.481C6.20124 101.481 4.69791 100.171 4.09658 99.3644C1.19015 95.9381 1.99193 89.3877 3.89614 77.1939C4.39725 72.8606 5.70013 66.4109 7.4039 59.2559C7.4039 58.9536 7.50412 58.752 7.60434 58.6513C8.10545 56.9381 8.60656 55.8296 9.10766 54.9226C9.20789 54.6202 9.30811 54.3179 9.40833 54.1164C12.415 45.5505 17.7267 37.0854 25.544 28.2171C28.25 25.1939 30.5551 23.8838 33.0606 23.8838C37.5706 23.8838 39.8757 27.9148 41.9804 33.1551L41.9804 20.5582C41.6797 20.1551 41.4793 19.6513 41.379 19.2482C41.379 19.1474 41.2788 19.0466 41.2788 18.9458C41.1786 18.7443 41.1786 18.5427 40.9782 18.2404C40.6775 17.535 40.477 16.9303 40.2766 16.2249C40.2766 16.2249 40.1764 16.1241 40.1764 16.1241C40.0762 16.0234 39.9759 15.9226 39.9759 15.721C39.9759 15.721 37.8713 10.6823 39.3746 6.95358C40.0762 4.63575 41.4793 3.52723 44.3857 3.12413C46.0895 3.12413 46.8912 3.32568 47.5928 3.72878C48.3946 3.12413 49.2966 2.8218 50.2988 2.8218L51.4012 2.8218C57.9156 4.63575 57.2141 9.67451 56.8132 11.3877L56.1116 14.2094C55.6105 16.0234 55.0092 18.0389 53.8065 19.8528L53.8065 33.2559C56.0114 28.2171 58.3165 24.2869 62.626 24.2869C65.0314 24.2869 67.4367 25.597 70.0424 28.4187C86.0779 46.3567 89.4854 61.9768 91.8908 77.7985C93.6948 90.3954 94.3963 96.5427 91.5901 99.9691C91.089 100.372 89.6859 101.682 87.1803 101.682M68.8398 95.0311C71.5458 95.0311 76.5569 96.0389 83.9733 98.9613C85.0757 99.3644 86.1781 99.566 87.0801 99.566C88.6837 99.566 89.5857 98.8606 90.0868 98.2559C92.3919 95.535 91.5901 89.3877 89.9866 77.6978C87.6815 62.2792 84.2739 46.8606 68.6393 29.4265C66.4345 27.1086 64.5303 26.0001 62.7263 26.0001C59.1183 26.0001 57.2141 30.3334 54.8087 35.7753C54.6083 36.4807 54.3076 37.0854 54.1072 37.5892C54.007 37.7908 53.9068 38.0931 53.8065 38.2947L51.9023 42.8296L51.9023 18.8451C53.4056 17.0311 53.9068 15.2171 54.3076 13.504L55.0092 10.8838C55.6105 8.76754 55.4101 6.04661 51.1005 4.73653C49.6974 4.73653 48.9959 5.03885 48.3946 5.64351L46.9915 5.64351C46.5906 5.2404 45.9892 5.03885 45.2877 5.03885C42.3813 5.34118 41.7799 6.14738 41.379 7.45746C40.3768 10.0776 41.6797 14.1086 41.9804 14.814C41.9804 14.9148 42.0806 14.9148 42.0806 15.0156C42.1808 15.1164 42.281 15.2171 42.281 15.4187C42.5817 16.2249 42.8824 16.9303 43.0828 17.4342C43.183 17.6358 43.2833 18.0389 43.3835 18.2404C43.3835 18.3412 43.4837 18.442 43.4837 18.5427C43.5839 19.0466 43.6841 19.2482 43.8846 19.4497L44.1853 43.9381L41.5795 37.2869C38.8735 30.4342 36.9693 26.2016 33.2611 26.2016C31.3569 26.2016 29.5529 27.3102 27.2478 29.9303C19.6309 38.4962 14.5196 46.7598 11.513 55.1241C11.513 55.3257 11.4128 55.4265 11.4128 55.5272C10.8114 56.8373 10.4106 57.8451 10.0097 59.0544L9.70899 60.3644C7.905 67.3179 6.70234 73.3644 6.20124 77.597C4.29702 89.8916 3.69569 95.535 6.00079 98.1551C6.40168 98.659 7.50412 99.566 9.20789 99.566C10.1099 99.566 11.3125 99.2637 12.5152 98.7598C19.9316 95.9381 24.7422 94.9303 26.7467 94.9303C27.6487 95.0311 27.7489 95.1319 27.8491 95.1319C28.0496 95.2327 28.3502 95.3334 28.6509 95.4342C31.6575 96.8451 35.2655 98.2559 37.9715 98.2559C40.3768 98.2559 41.1786 97.0466 41.2788 96.7443C42.5817 94.7288 42.4815 91.7055 42.3813 88.783C42.3813 87.8761 42.3813 87.3722 42.3813 86.9691C42.3813 85.7598 42.3813 85.1551 42.4815 84.6513C43.4837 81.7288 46.791 71.9536 45.1875 65.3024C45.1875 64.7985 45.1875 64.6978 45.0872 64.4962C44.4859 62.4807 44.7866 60.8683 45.2877 58.8528C45.6886 56.2327 46.0895 54.1164 45.889 51.2947C46.6908 50.1861 47.0917 49.9846 47.1919 49.8838C48.1941 49.6823 48.595 49.783 49.8979 50.1861L50.4992 51.1939C50.2988 54.4187 50.6997 56.8373 51.2008 58.9536C51.7019 61.1706 51.9023 62.6823 51.4012 64.4962C50.399 67.5195 50.0983 73.4652 53.6061 84.3489C53.7063 84.5505 53.7063 84.752 53.7063 84.8528C53.8065 85.4575 53.8065 86.1629 53.8065 87.2714C53.8065 87.7753 53.8065 88.1784 53.8065 88.6823C53.7063 91.6047 53.6061 94.7288 54.7085 96.7443C55.3099 97.5505 56.2119 98.4575 58.4167 98.4575C61.3232 98.4575 65.0314 96.8451 67.9378 95.6358C68.1382 95.535 68.4389 95.4342 68.6393 95.3334C68.7396 95.3334 68.8398 95.2327 68.94 95.2327"/>
	<path fill="#FBB03B" d="M37.4705 45.2481C40.9783 43.4342 43.7845 41.721 44.0851 41.0155L44.0851 19.3489C43.6842 19.1474 43.4838 18.8451 43.3836 18.4419C43.2834 18.2404 43.0829 17.6357 42.8825 17.1318C42.5818 16.4263 42.2811 15.6201 42.0807 15.0156C41.9805 14.9148 41.8802 14.7132 41.78 14.6124C41.78 14.6124 39.8758 10.0776 41.0785 7.45741C41.4794 6.14733 42.0807 5.4419 44.486 5.13958C44.5862 5.13958 44.7867 5.13958 44.9871 5.13958C46.3902 5.13958 47.2922 6.04655 47.7933 7.0543C48.3947 5.64345 49.2967 4.83725 50.5995 4.83725C50.6998 4.83725 50.9002 4.83725 51.0004 4.83725C54.7086 5.74423 56.1117 7.75973 55.31 10.6822C55.0093 11.5892 54.7086 12.4962 54.5082 13.3024C54.0071 15.1164 53.506 16.8295 52.3033 18.3412C52.2031 18.5427 52.0026 18.6434 51.9024 18.7442L51.9024 41.4187C52.2031 42.0233 55.5104 43.8372 59.0182 45.1474L59.0182 53.7132L57.6151 53.1086C54.1073 51.6978 48.6953 49.5815 47.4927 49.5815C46.5907 49.5815 43.584 52 41.5796 54.1163L40.1765 55.5271L37.4705 45.2481"/>
	<path fill="#FFD092" d="M45.3942 24.1861C47.1982 24.8915 50.0044 24.3876 50.6058 24.1861C50.6058 25.6977 48.4009 26.4031 45.3942 24.1861M45.3942 35.4729C48.3007 36.1784 50.6058 35.4729 50.6058 35.4729C49.9042 34.062 47.1982 34.5659 45.3942 35.4729M45.3942 22.0698C48.3007 22.7752 50.6058 22.0698 50.6058 22.0698C49.9042 20.8605 47.1982 21.3398 45.3942 22.0698M45.3942 32.0466C48.3007 32.7519 50.6058 32.0466 50.6058 32.0466C49.9042 30.8372 47.1982 31.3412 45.3942 32.0466M45.3942 29.0233C48.3007 29.7287 50.6058 29.0233 50.6058 29.0233C49.9042 27.6124 47.1982 28.0155 45.3942 29.0233M45.3942 38.4962C48.3007 39.2015 50.6058 38.4962 50.6058 38.4962C49.9042 37.3876 47.1982 37.7907 45.3942 38.4962"/>
</svg>
