<?xml version="1.0" encoding="utf-8" ?>
<svg xmlns="http://www.w3.org/2000/svg" xmlns:xlink="http://www.w3.org/1999/xlink" width="70" height="94">
	<path fill="white" d="M22.9059 94L19.7406 93.4968C18.1068 92.8929 5.64958 87.5589 1.56523 73.8715C-3.13176 57.97 3.5053 48.0064 11.3677 43.9807C14.3288 42.4711 17.1878 41.7666 20.0469 41.7666C23.7228 41.7666 26.7861 42.9743 29.3388 44.0814C30.2577 44.4839 31.5852 44.9872 32.2999 45.0878L33.321 44.6852C34.6484 43.1756 34.1379 41.4647 28.0114 35.4261L25.9692 33.4133C20.3532 28.2805 15.0436 23.4497 17.3921 4.22698C18.311 1.20771 20.8638 0 24.4376 0C28.4198 0 29.8493 2.11349 29.8493 4.0257C29.8493 4.83084 29.543 7.64882 29.3388 9.66167L29.2367 10.8694C28.9303 16.606 30.1556 18.5182 30.7683 19.1221C31.0746 19.424 31.6873 19.8266 33.1168 19.8266C34.24 19.8266 35.7716 19.5246 37.6096 18.9208C42.5108 17.2099 46.3909 16.5054 49.8626 16.5054C58.8481 16.5054 65.0768 21.5375 68.4464 31.5011C74.1644 47.7045 63.5451 68.4368 45.6761 75.8844C43.0213 76.8908 40.5707 77.394 38.2222 77.394C36.6906 77.394 35.2611 77.1927 33.7294 76.7901L29.9514 75.6831L32.8105 78.5011C34.4442 80.8158 34.4442 84.0364 32.8105 87.0557C31.0746 90.3769 27.2966 93.6981 22.9059 93.6981M19.3321 67.4304C19.4342 68.1349 19.7406 68.8394 20.0469 69.8458C20.8638 72.2612 25.3565 74.8779 26.2755 75.3812L27.3987 73.7709C24.9481 71.758 23.1101 69.3426 21.4764 67.2291L19.3321 67.4304"/>
	<path fill="#FFB19C" d="M20.3995 4.76782C17.9489 24.4937 23.7691 26.9091 29.9977 33.149C35.6137 38.6843 38.9833 42.6094 35.6137 47C30.6103 52.9755 24.5859 40.8984 12.435 47.1383C4.98109 50.9627 0.48832 60.0205 4.36844 73.104C8.24857 85.9862 20.2974 90.4145 20.2974 90.4145C20.2974 90.4145 24.9944 84.7785 27.6492 81.558C28.1597 80.8535 27.9555 79.847 27.0365 79.6458C24.0754 78.6393 18.1531 76.1233 16.4173 70.8899C14.0688 63.8449 15.4983 60.4231 19.0721 60.2218C22.9522 60.0205 27.8534 79.5451 43.8845 73.104C59.405 66.6629 70.2285 48.2453 64.8167 32.9477C60.5282 20.2667 51.951 17.65 38.2685 22.4809C29.7935 25.2989 24.7902 22.8835 25.4028 10.907C25.4028 10.907 26.1176 5.37167 26.1176 4.26461C26.1176 3.15754 20.8079 3.45947 20.3995 4.76782"/>
	<path fill="#2D1B0A" d="M20.7616 91.5854C19.5363 91.082 7.48745 86.4504 3.50522 73.2604C-0.78334 58.6608 5.13895 49.6997 12.0823 46.0749C19.0257 42.4502 24.2333 44.6653 28.0113 46.1756C31.3809 47.5852 33.1167 48.1894 34.8525 46.0749C37.5074 42.7523 35.3631 39.631 29.2366 33.6904C28.5218 32.9856 27.8071 32.2808 27.0923 31.6767C21.4763 26.5417 17.0857 22.4135 19.332 4.49124C19.9447 2.4146 23.8248 2.27613 25.2543 2.4146C26.8881 2.77956 27.0923 3.58506 27.0923 4.0885C27.0923 5.19605 26.4796 10.3311 26.3775 10.8345C26.0712 16.2716 26.9902 19.7957 29.0324 21.306C30.8703 22.7156 33.7294 22.7156 37.8137 21.306C45.6761 18.5874 51.8026 18.2854 56.4996 20.5005C60.5839 22.5142 63.6472 26.3403 65.6893 32.3815C70.999 47.4846 60.9923 66.8164 44.1444 73.7638C32.1977 78.4961 25.9691 69.8371 22.2932 64.6013C21.17 63.091 19.7405 60.9766 19.0257 60.9766C18.0046 61.0773 17.2899 61.3793 16.8814 62.0842C15.8604 63.4938 16.0646 66.5144 17.2899 70.3405C18.8215 75.0728 24.2333 77.4893 27.2965 78.4961C28.0113 78.6975 28.5218 79.3016 28.726 80.0064C28.9303 80.7112 28.726 81.5167 28.3176 82.0202C25.6628 85.2421 20.9658 90.8806 20.9658 90.8806M19.6384 46.2763C17.6983 46.2763 15.4519 46.7797 13.0013 47.988C6.77269 51.21 1.46304 59.4663 5.44528 72.757C8.61064 83.3291 17.5962 88.0614 20.1489 89.1689C21.3742 87.6586 24.8459 83.5305 26.9902 80.9126C27.0923 80.8119 27.0923 80.7112 26.9902 80.7112C26.9902 80.6106 26.8881 80.6106 26.8881 80.6106C23.4164 79.503 17.392 76.7844 15.6561 71.146C14.1245 66.5144 14.1245 63.091 15.4519 61.0773C16.2688 59.869 17.5962 59.2649 19.2299 59.1642C20.9658 59.0636 22.3953 60.9766 24.2333 63.5945C28.0113 68.9309 33.3209 76.281 43.6339 72.0522C59.4607 65.5075 68.9568 47.2832 63.9535 33.187C62.1155 27.6492 59.3586 24.1252 55.7848 22.4135C51.7005 20.3998 46.0845 20.7018 38.6306 23.3197C33.8315 24.9307 30.2577 24.83 27.9092 23.0176C25.2543 21.0039 24.1311 16.9764 24.4375 10.7338C24.6417 9.32421 24.948 5.90086 25.0501 4.59193C24.1311 4.39056 21.8848 4.69262 21.2721 5.09536C19.2299 21.8094 23.1101 25.4341 28.4197 30.3678C29.1345 31.0726 29.8492 31.6767 30.6661 32.4822C36.4863 38.2214 40.2643 42.6516 36.3842 47.5852C33.6272 50.9079 30.4619 49.6997 27.1944 48.2901C24.948 47.2832 22.4974 46.2763 19.6384 46.2763"/>
	<path fill="#FF928D" d="M20.5574 90.2762C25.5608 92.6916 32.5042 84.7409 29.543 80.5139C26.7861 76.3876 15.3499 83.2313 20.5574 90.2762"/>
	<path fill="#2D1B0A" d="M22.4975 92.2891C21.5785 92.2891 20.7617 92.0878 19.8427 91.6852C17.4942 88.6659 17.1879 85.9486 18.5153 83.3319C19.9448 80.3126 23.4165 77.9978 26.5819 77.7871C28.5219 77.7871 30.0535 78.4004 30.8704 79.8094C32.6063 82.1242 31.9936 85.6467 29.4409 88.6659C27.6029 90.6788 25.0502 92.2891 22.4975 92.2891M21.4764 89.0685C23.3144 89.6724 25.5608 88.364 26.8882 86.7537C28.2156 85.2441 29.1346 82.9293 28.1135 81.4197C27.8072 80.9165 27.2966 80.7152 26.4797 80.7152C24.7439 80.8158 22.0891 82.3255 20.9659 84.5396C20.4553 86.1499 20.5574 87.6595 21.4764 89.0685"/>
</svg>
