<?xml version="1.0" encoding="utf-8" ?>
<svg xmlns="http://www.w3.org/2000/svg" xmlns:xlink="http://www.w3.org/1999/xlink" width="56" height="96">
	<path fill="white" d="M26.5145 85.2926C26.5145 85.2926 18.648 79.2649 14.9637 75.4473C7.69461 67.9126 2.11835 54.0488 0.226406 38.2762C-0.669778 29.7369 1.12259 20.6953 5.10563 13.6629C7.2963 9.74486 9.58655 7.33376 10.7815 6.22867C12.5738 4.72173 17.2539 0.502312 24.4234 0C24.8217 0 25.1204 0 25.4191 0C25.6183 0 25.8174 0 26.0166 0C29.9996 0 33.8831 1.10509 37.2687 3.31526C41.2517 5.52543 44.1394 8.84069 46.0314 12.9597C47.0271 15.3708 47.525 17.9828 47.7242 20.7957C48.4212 25.6179 48.1225 29.536 48.0229 30.641C48.4212 31.5452 48.5208 31.6457 48.6204 31.6457C50.5123 33.3535 53.5992 36.1665 54.9932 39.8836C56.9847 44.3039 55.5907 47.8201 54.4953 50.7335C54.097 51.7382 53.6987 52.6423 53.4996 53.446C53.4 54.1492 53.4996 55.0534 53.8979 56.5603C54.3958 58.871 54.9932 61.6839 54.4953 66.2047C53.9975 70.1228 51.2093 76.1505 51.2093 76.1505C54.097 78.2602 53.5992 91.3203 46.4297 94.3342C31.6924 100.764 27.7094 86.5986 26.5145 85.2926"/>
	<path fill="#FFC7B6" d="M44.9716 32.1435C44.9716 32.1435 46.4652 18.782 41.4864 11.5487C38.3996 6.72654 32.0267 2.60758 24.7576 2.9823C8.92506 4.7173 1.25771 22.8005 2.9505 37.9704C4.84244 53.1402 10.2196 66.5017 16.9907 73.5341C23.5627 80.265 28.2428 80.265 30.2343 85.3886C31.0309 90.9141 39.1962 96.8413 47.5606 89.809C52.3402 83.7812 48.6559 76.1461 48.6559 76.1461C48.6559 76.1461 50.6474 73.5341 51.5436 66.2003C52.3402 58.6656 49.8508 56.4554 50.5478 53.0397C51.5436 49.3226 54.4313 46.1078 52.2406 41.3861C50.5478 36.6643 45.0712 33.3491 44.9716 32.1435"/>
	<path fill="#2D1B0A" d="M39.694 93.9563C38.1008 93.9563 36.7067 93.5542 35.8105 93.2527C32.425 91.9461 29.7364 88.8304 29.2385 85.6141C28.2428 83.202 26.55 82.0964 24.0606 80.4883C21.9695 79.0811 19.2809 77.3725 16.2936 74.2568C9.32332 67.0202 3.84664 53.2507 2.05427 38.1745C0.958935 28.3248 3.74706 17.872 9.22374 10.937C13.3064 5.81107 18.5839 2.79584 24.658 2.0437C33.122 1.48924 39.4949 6.61513 42.3826 11.0375C47.1622 17.9725 46.266 30.0334 46.0669 32.0436C46.266 32.3451 46.9631 33.0486 47.5605 33.5512C49.3529 35.2598 52.141 37.873 53.3359 40.9887C55.0287 44.7075 53.8338 47.7228 52.7385 50.336C52.3402 51.341 51.9419 52.2456 51.6431 53.2507C51.3444 54.5573 51.6431 55.6629 51.9419 57.1705C52.4397 59.2811 53.0372 61.8943 52.5393 66.3167C51.7427 72.1461 50.3486 75.1613 49.7512 76.2669C50.5478 78.1766 52.6389 84.9106 48.2575 90.539C44.9715 93.1522 42.0838 93.9563 39.694 93.9563M25.8529 3.90143C25.4546 3.90143 25.1559 3.90143 24.7576 3.90143C19.2809 4.50447 14.4017 7.31869 10.6178 11.942C5.43986 18.475 2.85088 28.4253 3.84664 37.672C5.63901 52.3461 10.9165 65.7136 17.5881 72.6487C20.4758 75.6639 22.9652 77.272 25.0563 78.5786C27.7449 80.2872 29.836 81.6943 31.0309 84.8101C31.5288 87.6243 33.7194 90.137 36.5076 91.2426C39.7936 92.5492 43.4779 91.7451 46.7639 88.9309C50.9461 83.403 47.7597 76.4679 47.6601 76.3674L47.7597 75.2619C47.7597 75.2619 49.552 72.7492 50.4482 65.8141C50.8465 61.7938 50.2491 59.3816 49.8508 57.3715C49.4525 55.6629 49.1537 54.2558 49.552 52.5471C49.8508 51.4415 50.2491 50.336 50.7469 49.3309C51.8423 46.7177 52.7385 44.5065 51.3444 41.4913C50.2491 38.6771 47.6601 36.2649 46.0669 34.6568C44.7724 33.4507 44.0754 32.7471 43.8762 32.0436C43.8762 31.742 45.2703 18.7766 40.5902 11.942C38.0012 7.92173 32.425 3.90143 25.8529 3.90143"/>
	<path fill="#2D1B0A" d="M34.3809 75.3468C33.6839 75.3468 33.0865 75.0455 32.7877 74.7441C30.9954 73.3376 30.1987 70.3237 29.3026 66.908C28.506 63.8941 27.6098 60.5789 25.917 57.565C20.6395 48.3224 22.1331 37.372 23.1289 30.842C23.4276 28.6318 23.8259 25.9193 23.5272 25.3165C23.328 25.3165 22.9297 25.417 21.9339 26.0198C11.9763 32.4494 17.7517 48.5234 20.4403 56.259C21.7348 59.9761 22.2327 61.0812 21.4361 61.8849C20.739 62.5881 20.042 62.5881 19.5441 62.5881C18.4488 62.3872 17.7517 61.3826 17.5526 60.9807C16.9551 60.2775 13.8683 56.259 11.7772 46.715C9.68609 36.1665 12.6734 27.9286 15.0632 22.6041C17.5526 17.0786 22.3322 14.0624 27.6762 14.0624C30.6966 14.2657 33.2856 15.5717 34.9784 17.6814C36.3725 19.3893 36.9699 21.3985 36.6712 23.5082C36.3725 25.6179 35.9742 27.0244 35.4763 28.6318C34.8788 30.4401 34.2814 32.4494 33.5843 35.9656C32.7877 39.6827 30.8958 42.5961 29.5017 44.8063C28.8047 45.8109 27.9085 47.2174 28.0081 47.6192C28.4064 47.6192 30.1987 46.6146 33.7835 42.3952C34.3809 41.6919 34.9784 40.8882 35.6754 40.0845C38.1648 36.8697 39.6585 35.0614 41.1521 34.8605C41.9487 34.6596 42.8449 34.9609 43.4424 35.6642C44.3385 36.6688 44.5377 38.3767 43.9402 39.7831C43.2432 41.491 41.65 42.797 40.1564 44.2035C37.5674 46.4137 35.9742 47.9206 36.7708 50.0303C37.0695 50.9345 37.0695 51.7382 37.0695 52.5419C37.1691 54.1493 37.1691 55.7567 39.6585 58.4692C40.2559 59.1724 40.4551 59.1724 40.6542 59.1724C42.1479 58.9715 42.347 60.3779 42.5462 61.483C43.0441 64.7983 39.4593 72.7348 36.0737 74.7441C35.3767 75.1459 34.8788 75.3468 34.3809 75.3468M34.0822 73.1367C34.1818 73.2371 34.4805 73.4381 35.078 73.0362C37.667 71.5293 40.8534 64.3964 40.5547 61.7844C40.5547 61.5835 40.4551 61.3826 40.4551 61.2821C39.758 61.2821 39.061 60.9807 38.1648 59.9761C35.2771 56.6608 35.1776 54.6516 35.078 52.8433C35.078 52.14 34.9784 51.5372 34.8788 50.834C33.6839 47.3178 36.472 44.9067 38.8619 42.797C40.2559 41.5915 41.65 40.4864 42.1479 39.1804C42.5462 38.2762 42.347 37.4725 42.0483 37.0707C41.9487 36.9702 41.7496 36.8697 41.65 36.8697C40.8534 36.9702 38.7623 39.5822 37.3682 41.3905C36.7708 42.1942 36.1733 42.9979 35.4763 43.7012C29.6013 50.7335 27.9085 49.7289 27.311 49.4275C26.614 49.0257 26.4149 48.5234 26.3153 48.1215C26.0166 46.916 26.9127 45.5095 28.1077 43.7012C29.5017 41.5915 31.1945 38.879 31.9911 35.5637C32.6882 31.9471 33.3852 29.7369 33.8831 28.029C34.3809 26.4216 34.7792 25.1156 35.078 23.2068C35.2771 21.6999 34.8788 20.193 33.8831 18.9874C32.5886 17.38 30.3979 16.2749 28.0081 16.1745C23.5272 15.9735 19.4445 18.7865 17.3534 23.5082C15.0632 28.5313 12.2751 36.3674 14.167 46.4137C16.2581 56.1585 19.4445 59.7752 19.5441 59.7752C19.8428 60.177 20.042 60.3779 20.1416 60.5789C19.9424 59.8756 19.4445 58.3687 18.9467 57.0627C15.9594 48.8248 9.88524 31.7461 21.2369 24.4124C22.4318 23.7092 23.8259 22.9054 24.9212 23.6087C26.3153 24.5129 26.0166 26.9239 25.4191 31.1434C24.4233 37.7739 23.0293 47.8201 28.0081 56.5604C29.8004 59.7752 30.7962 63.2913 31.5928 66.4057C32.0907 69.52 32.7877 72.132 34.0822 73.1367"/>
</svg>
