<?xml version="1.0" encoding="utf-8" ?>
<svg xmlns="http://www.w3.org/2000/svg" xmlns:xlink="http://www.w3.org/1999/xlink" width="68" height="84">
	<path fill="white" d="M67.4039 34.9578C67.5057 34.6538 67.6076 34.3498 67.7094 34.0458C68.1166 32.5259 68 30.9047 67.5057 29.5875C67.6076 29.2835 67.7094 28.9795 67.7094 28.6755C67.913 27.4596 67.8112 26.1423 67.4039 25.0277C68 23.6092 68.3203 21.5826 67.5057 19.5561C67.6076 19.3534 67.6076 19.0495 67.7094 18.8468C67.913 17.7322 67.8112 16.5163 67.4039 15.3004C68.1166 13.5778 67.913 11.6526 67.7094 10.4367C67.7094 10.0314 67.6076 9.4234 67.6076 9.22075C67.6076 9.22075 67.6076 9.32207 67.5057 9.4234C68.1166 7.49819 67.913 5.16767 66.793 3.44511C65.8766 2.02654 64.553 1.21592 62.9239 1.21592C61.7021 1.21592 60.6839 0.911942 59.2584 0.405308C58.6475 0 58.0366 0 57.4257 0C55.6948 0 54.473 0.911942 53.6584 2.12786C52.6402 2.53317 51.622 3.14113 50.9093 4.1544C50.502 4.76236 50.1966 5.47165 49.9929 6.18094C49.5857 6.48492 49.2802 6.89023 48.8729 7.29554C47.2438 7.49819 45.7166 8.41013 44.6984 9.72738C43.0693 10.0314 41.6438 10.842 40.7274 12.0579C39.6074 12.2606 38.5892 12.6659 37.5711 13.2738C37.3674 13.2738 37.1638 13.2738 36.9602 13.2738C36.0438 13.2738 35.1274 13.4765 34.3129 13.6791C33.4983 13.2738 32.4801 12.9698 31.3601 12.9698C31.2583 12.9698 31.1565 12.9698 30.9529 12.9698C30.0365 12.4632 28.8147 12.2606 27.2874 12.2606C27.1856 12.2606 27.1856 12.2606 27.0837 12.2606C25.7601 11.3486 23.9274 11.0446 22.8074 10.9433C22.0946 10.538 20.9746 10.0314 19.651 9.82871C18.0219 9.01809 16.4946 8.61279 14.9673 8.61279C14.2546 8.61279 13.6437 8.71411 13.2364 8.81544C12.7273 8.81544 12.6255 8.81544 12.5237 8.81544C12.1164 8.71411 11.4037 8.61279 10.4873 8.61279C9.67277 8.61279 8.85822 8.71411 8.04367 8.81544C6.31275 9.22075 5.39639 9.93004 4.88729 10.4367C4.58184 10.7407 4.58184 10.7407 4.27638 10.7407C2.44365 11.146 1.12 12.4632 0.610912 14.2871C0.407274 14.9964 0.305456 15.807 0.305456 16.6176L0.509093 17.9349C0.610912 18.6441 0.916367 19.2521 1.22182 19.8601C1.22182 19.9614 1.22182 20.1641 1.22182 20.2654C1.22182 21.38 1.42546 22.2919 1.73092 23.0012C1.32364 24.8251 1.6291 26.2437 2.13819 27.2569C1.6291 28.5742 1.52728 29.9928 1.83273 31.31C1.83273 31.5127 1.93455 31.8166 2.03637 32.0193C1.32364 33.3366 1.01819 34.9578 1.22182 36.3764C1.32364 36.9843 1.42546 37.491 1.73092 37.9976C1.42546 39.0109 1.42546 40.1255 1.6291 41.24C1.73092 41.544 1.73092 41.848 1.83273 42.152C1.32364 43.6719 1.22182 45.3945 1.73092 47.0157C1.73092 47.117 1.83273 47.3197 1.83273 47.421C1.6291 48.3329 1.73092 49.3462 2.03637 50.4608C2.34183 51.4741 2.95274 52.4873 3.76729 53.3993C3.76729 56.2364 6.0073 59.5802 8.96004 61.1001C10.08 61.6068 11.4037 61.9107 12.7273 61.9107C13.3382 61.9107 13.9491 61.8094 14.4582 61.7081C14.5601 61.9107 14.5601 62.2147 14.6619 62.4174C14.6619 62.5187 14.6619 62.5187 14.7637 62.62C14.4582 63.6333 14.2546 65.5585 15.171 66.8758L16.1892 68.193L17.7164 68.193C19.9564 68.193 20.771 66.2678 21.0765 65.4572C22.0946 63.1267 21.5855 61.4041 21.3819 60.4922C21.3819 60.4922 21.3819 60.4922 21.3819 60.3908C21.4837 60.2895 21.4837 60.0869 21.5855 59.9855C22.1965 58.7696 23.3165 56.4391 21.9928 54.0072C21.9928 51.3727 22.5019 47.8263 20.4655 45.6984C20.4655 45.6984 20.4655 45.6984 20.4655 45.5971C20.3637 44.7865 20.1601 44.1785 19.7528 43.5706C19.7528 42.3546 19.3455 41.1387 18.7346 40.2268C18.6328 39.0109 18.4292 38.0989 18.3273 37.491C19.0401 35.4644 19.1419 33.1339 18.1237 31.31C18.3273 30.0941 18.3273 29.0808 18.1237 28.1689C18.4292 27.3583 18.6328 26.5476 18.6328 25.737C18.8364 25.737 19.1419 25.8384 19.3455 25.8384C20.1601 26.5476 21.5855 27.1556 23.9274 27.1556C24.4365 27.1556 25.0474 27.1556 25.4547 27.0543C27.0837 27.9662 29.2219 28.1689 30.1383 28.1689C30.6474 28.1689 31.0547 28.0676 31.3601 28.0676C32.8874 28.7768 34.3129 29.0808 35.7383 29.0808C36.8583 29.0808 37.8765 28.8782 38.6911 28.4729C39.4038 28.5742 40.3202 28.5742 41.3384 28.5742C43.8838 28.5742 45.5129 28.0676 46.5311 27.3583C48.8729 27.2569 50.9093 26.4463 52.2329 24.9264C52.3348 24.9264 52.3348 24.8251 52.4366 24.8251C52.3348 25.0277 52.3348 25.3317 52.2329 25.5344C52.0293 26.345 51.8257 28.2702 52.5384 29.8914C52.0293 31.1074 51.7238 32.5259 52.0293 33.8432C51.5202 35.1604 51.1129 37.0856 51.4184 38.8082C51.3166 39.0109 51.2148 39.1122 51.2148 39.3148C50.7057 40.6321 50.6038 42.2533 51.0111 43.6719C50.7057 44.7865 50.8075 46.0024 50.9093 47.421C50.9093 47.8263 50.9093 48.1303 50.9093 48.4343C50.9093 48.7382 50.9093 49.1435 51.1129 49.6502C50.9093 50.1568 50.7057 50.6634 50.502 51.1701C49.8911 51.1701 49.4838 51.0688 49.382 50.9674C48.7711 50.5621 47.4475 49.7515 42.5602 49.7515C42.0511 49.5489 41.542 49.4475 40.9311 49.4475C37.4692 49.4475 29.5274 54.7165 29.4256 54.7165C27.491 56.6417 26.9819 61.5054 27.3892 63.8359C27.5928 64.6466 27.3892 65.6598 27.2874 66.3691C27.0837 67.7877 26.7783 69.5103 28.2038 70.9288C28.2038 70.9288 28.3056 71.0302 28.3056 71.0302C28.9165 79.339 31.4619 83.696 36.0438 84C37.6729 84 39.7093 83.4934 41.542 80.8589C43.5784 78.0217 44.5965 73.766 44.2911 70.3209C44.2911 70.3209 44.2911 70.3209 44.2911 70.2195C45.4111 68.2943 45.2075 65.4572 44.8002 63.532C45.9202 64.5452 47.7529 65.5585 50.6038 65.5585C50.7057 65.5585 50.8075 65.5585 50.9093 65.5585C51.5202 65.7612 52.1311 65.8625 52.8439 65.8625C56.102 65.8625 58.7493 63.4306 60.6839 61.3028C61.2948 60.6948 61.2948 60.6948 61.3966 60.5935C62.0075 60.0869 63.3312 58.8709 63.7384 56.8444C65.0621 55.3245 65.9785 53.1966 65.673 51.0688C66.0803 50.4608 66.4875 49.6502 66.5894 48.8396C66.793 47.9276 66.793 47.0157 66.5894 46.1037C66.6912 46.0024 66.6912 45.9011 66.793 45.9011C67.7094 44.3812 67.913 42.456 67.3021 39.8215C67.6076 38.9095 68 37.0856 67.4039 34.9578"/>
	<path fill="#FF6F64" d="M42.665 58.5784C42.4613 60.4021 41.2394 61.0101 41.6468 62.53C42.0541 63.9487 42.665 67.2924 41.8503 68.5083C41.2394 69.7243 31.0569 69.1163 30.4459 68.5083C29.8349 67.9004 31.0569 65.1646 30.4459 62.9353C30.0385 60.7062 30.8533 57.3624 31.2605 56.9571C31.8715 56.5518 40.8321 50.9787 41.6468 52.3974C41.8503 53.0053 40.0176 51.384 40.8321 54.8293C41.4431 57.3624 42.665 58.5784 42.665 58.5784M51.6256 62.3274C47.0434 62.7327 46.2289 59.8955 45.618 59.2875C45.2107 58.8822 44.1923 60.3008 43.1741 58.8822C41.5448 57.0584 39.2029 52.9039 41.7486 52.4986C42.3595 52.4986 46.7379 52.4986 47.9599 53.3093C49.1819 54.1199 51.9311 53.9172 51.9311 53.9172C51.9311 53.9172 50.9128 54.7278 50.5056 58.0716C49.7928 61.2128 51.6256 62.3274 51.6256 62.3274M60.6881 55.2346C61.0955 57.4637 59.2626 58.0716 58.8553 58.7809C58.2443 59.389 54.6804 63.9487 51.6256 62.3274C48.5709 60.7062 51.0146 54.3225 51.8293 53.9172C52.2365 53.7146 53.4585 54.5252 55.5969 55.1331C57.8369 55.4371 60.8918 55.2346 60.6881 55.2346M62.2155 50.1681C63.8447 52.8027 60.79 55.3358 60.79 55.3358C60.79 55.3358 53.153 55.3358 53.153 53.9172C53.153 52.296 54.5785 49.3575 55.1895 49.1549C55.3932 48.9522 56.2077 49.7628 58.0406 49.9655C59.6698 50.3708 62.2155 50.1681 62.2155 50.1681M62.8265 45.0005C64.6594 47.0271 63.4375 50.3708 61.1973 50.3708C59.5681 50.1681 54.1712 49.5602 54.1712 48.1416C54.1712 46.723 53.764 43.5819 54.5785 43.5819C54.7822 43.5819 54.375 44.5951 57.4296 45.0005C60.6881 45.6084 62.8265 45.0005 62.8265 45.0005M64.0484 39.4275C64.8718 42.2646 64.8718 44.5951 62.8265 45.0005C60.9935 45.6084 55.5969 45.4058 54.5785 43.5819C53.764 42.3659 53.764 39.4275 55.3932 39.0222C55.5969 39.0222 57.2261 39.4275 57.6334 39.4275C61.299 39.8328 64.4557 39.2248 64.0484 39.4275M63.8447 34.0572C65.474 36.8943 64.0484 39.4275 64.0484 39.4275C64.0484 39.4275 55.1895 40.2381 54.7822 38.4142C54.1712 36.793 55.5969 33.4492 55.5969 33.4492C55.5969 33.4492 56.2077 34.2598 58.0406 34.4626C60.0771 34.6651 63.8447 34.0572 63.8447 34.0572M63.8447 29.0922C65.6776 30.916 64.6594 33.8545 63.8447 34.0572C63.2337 34.2598 56.6151 35.0704 55.5969 33.4492C54.375 31.828 56.6151 29.0922 56.6151 29.0922C56.6151 29.0922 57.2261 29.4975 59.6698 29.7001C62.0118 29.9027 63.8447 29.0922 63.8447 29.0922M63.8447 24.3298C64.8718 25.5457 65.0667 28.2816 63.8447 29.0922C62.8265 29.9027 57.2261 29.9027 55.8004 28.6869C54.7822 27.6735 55.3932 23.9245 57.0224 23.3166C57.0224 23.3166 57.4296 23.9245 59.2626 24.1272C61.0955 24.5325 63.8447 24.3298 63.8447 24.3298M64.0484 19.0608C65.8812 21.6954 64.0484 24.2285 63.8447 24.4311C63.641 24.8364 57.4296 24.4311 57.0224 23.4179C56.6151 22.6073 54.5785 19.6688 54.9859 18.6555C54.9859 18.2501 53.764 19.6688 58.0406 20.0741C61.0955 20.2767 64.0484 19.2635 64.0484 19.0608M63.641 14.7037C65.0667 15.5143 64.8718 18.8582 63.8447 19.0608C60.0771 20.682 54.9859 19.8714 54.9859 18.6555C54.9859 17.6423 55.5969 18.4529 56.4114 17.6423C57.6334 16.629 58.0406 15.6157 58.2443 15.8183C62.0118 16.325 63.641 14.7037 63.641 14.7037M7.94244 51.5868C5.70228 51.9921 7.53514 56.3491 10.3862 57.7677C13.0337 58.9837 16.5977 57.9703 17.0049 56.1465C17.2085 54.1199 18.4305 56.1465 17.8195 57.565C16.8013 59.5915 18.2269 61.3141 18.0231 62.3274C17.6159 63.5434 17.6159 65.8738 18.4305 63.7459C19.4487 61.5168 18.2269 60.7062 18.4305 59.389C18.8377 57.9703 20.2633 56.3491 19.4487 54.8293C18.4305 53.6133 18.4305 53.8159 18.8377 52.1947C19.0415 50.7761 19.4487 47.8377 18.2269 47.0271C17.0049 46.0137 15.1721 49.7628 7.94244 51.5868M5.3968 46.8243C3.69455 48.0403 6.2114 51.9921 7.84061 51.5868C9.46982 51.384 12.2191 50.3708 17.4123 46.8243C18.0231 46.419 17.6159 43.4805 16.1903 44.1898C14.9685 44.7978 10.9972 47.2296 5.3968 46.8243M5.3968 41.6246C3.69455 43.6833 4.78585 46.6217 5.3968 46.8243C6.00775 47.2296 10.3862 47.2296 16.8013 44.1898C16.8013 44.1898 17.4123 41.9606 15.9867 41.15C15.3757 41.0487 9.368 44.7978 5.3968 41.6246M5.3968 37.097C3.97124 39.1236 4.78585 41.2514 5.3968 41.6246C6.2114 42.062 8.75704 44.4939 15.9867 41.0487C15.9867 41.0487 15.5793 36.6917 15.1721 36.6917C14.5611 36.6917 11.6082 38.6169 5.3968 37.097M5.90593 31.828C4.48037 33.0439 3.46211 36.3877 5.49862 37.1983C7.73879 38.0089 12.1173 38.0089 15.2738 36.793C15.2738 36.793 17.1068 33.2466 15.0702 31.828C14.9685 31.828 9.7753 33.6519 5.90593 31.828M6.10958 26.6604C4.27672 28.4842 4.88767 31.4226 5.90593 31.828C6.72053 32.2333 9.87713 33.4492 14.9685 31.828C14.9685 31.828 15.7831 28.4842 14.9685 27.6735C14.1539 27.6735 11.6082 28.0789 6.10958 26.6604M5.3968 21.8979C3.97124 25.647 6.00775 26.6604 6.00775 26.6604C6.00775 26.6604 12.0155 28.0789 14.8666 27.6735C16.4958 25.2417 15.2738 23.3166 15.2738 23.3166C15.2738 23.3166 14.052 23.1138 10.8954 22.7085C9.57165 22.506 7.73879 22.1007 5.3968 21.8979M4.37854 18.3516C4.78585 19.3647 4.17489 21.8979 5.3968 21.8979C6.41505 21.8979 15.3757 23.5191 15.3757 23.3166C15.5793 23.1138 15.5793 19.5675 15.1721 19.5675C14.7647 19.4661 5.19315 17.541 4.37854 18.3516M4.37854 18.3516C3.36029 17.3382 3.36029 13.7919 5.19315 13.3865C7.43331 12.9811 7.22966 11.7653 8.9607 11.36C11.2009 10.9547 12.5246 11.36 12.5246 11.36C12.5246 11.36 9.87713 11.5626 8.55339 12.9811C7.53514 14.6025 7.12783 15.8183 7.73879 17.1357C8.14609 18.1488 8.75704 18.3516 8.75704 18.3516C7.94244 18.3516 5.70228 17.9463 4.37854 18.3516M13.9501 11.36C12.3209 11.36 10.1826 11.1573 8.55339 12.9811C7.53514 14.1972 6.51688 18.1488 9.16435 18.5541C11.8118 18.7569 11.4045 18.7569 11.4045 18.7569C11.4045 18.7569 10.9972 15.9197 12.4228 14.3997C15.4776 11.5626 19.2451 12.3732 18.8377 12.1706C15.7831 10.5493 13.9501 11.36 13.9501 11.36M11.4045 18.8582C10.5899 15.8183 12.4228 12.4746 18.8377 12.2719C20.4669 12.2719 22.198 13.4879 22.198 13.4879C22.198 13.4879 16.8013 14.2984 15.7831 17.4395C14.7647 20.2767 15.1721 19.6688 15.1721 19.6688C15.1721 19.6688 12.5246 19.0608 11.4045 18.8582M15.5793 20.8847C13.7465 15.9197 20.7724 13.4879 22.198 13.4879C24.0308 13.4879 27.1875 14.2984 25.2528 15.3117C23.42 16.1223 19.6523 18.1488 21.0779 22.506C21.3834 22.506 17.2085 22.506 15.5793 20.8847M26.5765 14.9065C26.5765 14.9065 19.1432 17.1357 21.1798 22.506C21.1798 24.3298 26.3729 23.5191 26.3729 23.5191C26.3729 23.5191 25.7619 19.3647 30.1404 16.325C31.3624 14.5012 26.5765 14.9065 26.5765 14.9065M30.2423 15.9197C31.4641 15.109 33.8062 15.717 33.8062 16.7303C33.8062 16.7303 33.1952 17.9463 32.3806 19.5675C31.9732 20.5807 31.3624 22.4047 31.566 24.3298C31.1586 25.343 26.9839 24.5325 26.3729 23.5191C25.7619 19.0608 30.4459 15.9197 30.2423 15.9197M38.7957 16.5276C37.7774 14.9065 33.8062 16.7303 33.8062 16.7303C33.8062 16.7303 30.7514 21.4926 31.566 24.3298C36.1482 26.9644 38.3882 24.9378 38.3882 24.9378C38.3882 24.9378 37.7774 19.8714 38.7957 16.5276M38.7957 16.5276C38.7957 14.9065 42.3595 14.2984 42.7668 14.7037C42.9705 14.9065 45.4142 21.6954 45.4142 23.9245C45.2107 25.951 38.1847 25.1404 38.3882 24.9378C38.3882 24.7351 37.5737 21.2901 38.7957 16.5276M42.665 14.7037C43.6833 11.8666 46.8399 12.2719 46.8399 12.2719C46.8399 12.2719 52.033 19.2635 50.6073 21.9992C49.1819 24.6338 45.4142 24.0258 45.4142 24.0258C45.4142 24.0258 45.618 21.6954 42.665 14.7037M46.8399 12.1706C48.0617 9.13078 50.8111 9.94139 50.8111 9.94139C50.8111 9.94139 56.0042 15.9197 55.3932 17.9463C54.5785 19.7701 50.6073 22.7085 50.6073 21.8979C50.6073 21.0873 52.4403 20.2767 46.8399 12.1706M50.8111 9.94139C52.033 7.30689 53.2548 7.7122 53.2548 7.7122C53.2548 7.7122 55.495 8.92812 58.0406 12.8799C58.4479 13.6904 58.2443 14.9065 58.0406 15.5143C57.0224 17.7435 55.3932 17.9463 55.3932 17.9463C55.3932 17.9463 56.2077 16.325 50.8111 9.94139M53.2548 7.7122C52.4403 5.0777 55.495 4.16576 55.9024 4.36841C56.1059 4.77372 62.1137 8.92812 61.5028 11.36C61.299 12.7786 57.9389 15.5143 57.9389 15.5143C57.9389 15.5143 58.7534 14.9065 57.9389 12.8799C57.0224 10.9547 54.884 9.13078 53.2548 7.7122M56.0042 4.36841C56.0042 4.36841 56.4114 1.93657 58.2443 2.74718C59.8736 3.35514 61.299 3.76045 63.03 3.76045C64.6594 3.76045 65.474 7.10424 64.0484 8.92812C62.4192 10.752 61.6045 11.36 61.6045 11.36C61.6045 11.36 62.0118 9.73874 59.7716 7.61087C57.2261 5.58433 56.0042 4.36841 56.0042 4.36841M64.6594 7.91485C64.0484 9.53608 65.8812 13.0826 63.641 14.7037C61.6045 16.325 58.0406 15.5143 58.0406 15.5143C58.0406 15.5143 60.4845 13.4879 61.6045 11.36C63.4375 9.73874 64.2521 8.72547 64.6594 7.91485M31.3624 68.9137C31.566 74.892 32.7878 80.465 36.3517 80.6675C39.9156 80.6675 42.3595 72.4601 41.1376 68.9137C41.1376 68.9137 39.3047 69.3189 36.5555 69.3189C33.8062 69.3189 31.3624 68.9137 31.3624 68.9137"/>
	<path fill="#2D1B0A" d="M36.3502 81.6695C32.6846 81.4668 30.75 77.4132 30.3427 69.5088C30.0373 69.4074 29.8336 69.3061 29.7318 69.2048C29.1209 68.5967 29.2227 67.5833 29.4264 66.3672C29.5282 65.3539 29.7318 64.1378 29.5282 63.1244C29.1209 60.7936 29.8336 56.9427 30.6482 56.132C30.9537 55.9293 39.303 50.5583 41.7467 51.1663C41.9503 51.2677 42.1539 51.2677 42.3576 51.4704C44.6995 51.4704 47.5504 51.673 48.6705 52.4837C49.2814 52.8891 50.9105 52.9904 51.7251 52.8891C51.9287 52.7878 52.1324 52.7878 52.336 52.8891C52.6415 51.7744 53.2524 50.3556 53.8633 49.3422C53.5579 49.0382 53.3542 48.6328 53.3542 48.1261C53.3542 47.8221 53.3542 47.4168 53.3542 47.0114C53.2524 45.2886 53.2524 44.1739 53.5579 43.3632C53.1506 42.2485 53.1506 40.8297 53.5579 39.715C53.6597 39.411 53.8633 39.1069 54.067 38.8029C54.067 38.8029 54.067 38.7016 54.067 38.7016C53.456 37.0802 54.2706 34.648 54.6779 33.5333C53.9651 32.1145 54.6779 30.4931 55.3906 29.4797C54.4742 28.5676 54.4742 26.8449 54.6779 25.5275C54.8815 24.5141 55.2888 23.602 55.8997 23.0953C55.3906 22.2846 54.9833 21.4739 54.6779 20.7645C53.6597 21.7779 52.4378 22.69 51.5214 22.994C50.096 25.0208 47.4486 25.2234 46.2268 25.1221C45.8195 25.5275 45.2086 25.9328 44.1904 26.1355C43.6812 26.2368 40.6266 26.5409 38.8957 26.1355C37.9793 26.6422 35.6374 27.4529 31.9719 25.6288C31.6664 25.7301 31.3609 25.8315 30.9537 25.8315C29.63 25.9328 27.3899 25.5275 26.2699 24.6154C24.9462 24.8181 22.2989 24.9194 21.0771 23.906C20.9752 23.8047 20.7716 23.602 20.6698 23.5007C19.5497 23.3993 18.0224 23.1967 16.6988 22.69C16.6988 22.8926 16.5969 23.1967 16.5969 23.3993C16.9024 24.21 17.2079 25.8315 16.2915 27.6556C16.6988 28.669 16.4951 30.2904 16.2915 31.4051C17.717 32.9252 17.2079 35.3574 16.5969 36.8775C16.8006 37.5868 17.0042 38.8029 17.2079 40.627C18.1243 41.4377 18.2261 42.6538 18.1243 43.6672C18.2261 43.7686 18.3279 43.9712 18.4297 44.0726C18.7352 44.5793 18.9388 45.39 18.9388 46.0994C18.9388 46.0994 19.0406 46.2007 19.0406 46.2007C20.568 47.2141 20.4661 49.7476 20.0589 52.2811C19.8552 52.9904 19.7534 53.2945 19.7534 53.3958C19.7534 53.3958 19.957 53.5985 20.1607 53.8012C21.3825 55.8279 20.6698 57.2467 20.1607 58.4628C19.957 58.8681 19.7534 59.1721 19.6516 59.5775C19.6516 59.7802 19.6516 60.0842 19.8552 60.4896C20.0589 61.3003 20.4661 62.415 19.6516 64.1378C19.4479 64.5431 18.9388 65.9619 17.8188 65.5565C16.4951 65.0498 17.1061 62.6177 17.3097 62.111C17.3097 61.9083 17.2079 61.6043 17.1061 61.3003C16.9024 60.5909 16.5969 59.5775 16.8006 58.3614C16.5969 58.4628 16.4951 58.5641 16.2915 58.6654C14.5605 59.5775 12.1168 59.5775 10.2841 58.6654C7.94219 57.4494 6.0076 54.5105 6.31306 52.4837C6.31306 52.3824 6.31306 52.1797 6.41488 52.0784C5.70214 51.5717 5.09121 50.761 4.68393 49.9503C4.17483 48.7342 4.07301 47.7208 4.48029 46.8087C4.27665 46.5047 4.17483 46.2007 4.17483 45.8967C3.97119 45.2886 3.5639 43.3632 4.58211 41.6247C4.37847 41.2351 4.17483 40.8297 4.07301 40.323C3.97119 39.715 3.86936 38.6002 4.48029 37.2828C4.17483 36.8775 3.86936 36.3708 3.76754 35.8641C3.5639 34.4453 4.07301 32.9252 4.88757 31.8105C4.68393 31.5065 4.48029 30.9998 4.37847 30.4931C4.17483 29.4797 4.27665 27.9596 5.09121 26.7435C4.48029 26.0342 3.86936 24.6154 4.58211 22.2846C3.97119 21.5752 3.97119 20.4605 3.97119 19.7511C3.97119 19.4471 3.97119 18.9404 3.86936 18.7377C3.0548 17.623 2.85116 15.7989 3.25844 14.4815C3.5639 13.2654 4.37847 12.556 5.39668 12.252C6.31306 12.0493 6.72034 11.7453 7.12763 11.3399C7.53491 10.9346 8.14583 10.4279 9.16404 10.2252C11.2004 9.81985 12.6259 10.1239 13.0332 10.2252C13.3387 10.2252 13.6441 10.2252 13.9496 10.2252C14.9678 10.0225 16.9024 9.61717 19.7534 11.1373C21.1789 11.3399 22.4007 11.948 22.9098 12.3533C23.8262 12.3533 26.1681 12.6574 26.9827 13.7721C28.2045 13.6707 30.2409 13.6707 31.1573 14.4815C32.1755 14.2788 33.1937 14.4815 34.0083 14.8868C34.2119 14.9882 34.4156 15.1908 34.6139 15.3935C35.7392 14.9882 37.4702 14.4815 38.7939 14.9882C39.0993 14.6841 39.6084 14.2788 40.2193 14.0761C40.2193 14.0761 41.3394 13.5694 42.4594 13.5694C43.4776 11.8466 45.2086 11.3399 46.5322 11.2386C47.5504 9.21181 49.3832 8.80645 50.6051 8.80645C51.216 7.69172 51.9287 7.18502 52.4378 6.881C52.4378 5.86761 52.8451 4.95556 53.6597 4.24618C54.1688 3.84082 54.8815 3.43546 55.5943 3.33412C55.7979 2.82743 56.2052 2.11805 56.9179 1.81403C57.3252 1.58 58.1398 1.40868 59.0562 1.81403C60.5835 2.42207 61.9071 2.72609 63.4345 2.72609C64.3508 2.72609 65.1654 3.33412 65.6745 4.34752C66.173 5.36091 66.3873 6.881 65.8782 8.19842C65.8782 8.60377 65.98 9.41449 65.98 10.1239C66.173 11.5426 66.3873 13.3667 65.3691 14.6841C65.98 15.5962 66.0818 16.9136 65.8782 17.927C65.7763 18.3324 65.6745 18.7377 65.4709 19.0417C66.5909 21.1699 65.8782 23.298 65.2672 24.3114C65.7763 25.2234 65.98 26.5409 65.7763 27.6556C65.6745 28.1623 65.5727 28.669 65.2672 29.0743C66.0818 30.3918 66.0818 31.9118 65.7763 32.9252C65.6745 33.2293 65.4709 33.736 65.1654 34.2426C66.173 36.4721 65.5727 38.4989 65.1654 39.411C65.7763 42.0458 65.6745 43.5659 65.0636 44.5793C64.8599 44.8833 64.6563 45.1873 64.3508 45.39C64.8599 46.6061 64.9618 47.9235 64.3508 49.1395C64.1472 49.6462 63.8417 50.0516 63.4345 50.3556C64.249 52.5851 62.8235 54.6119 61.7035 55.7266C61.7035 57.4494 60.6853 58.3614 60.0744 58.8681C59.9726 58.9695 59.7689 59.1721 59.6671 59.1721C59.3616 59.4762 59.3616 59.5775 59.2598 59.6788C58.1398 60.9963 54.6779 64.7458 51.3178 63.2257C47.1432 63.5297 45.7177 61.3003 45.0049 60.1855C44.5976 60.3882 43.8849 60.4896 43.0703 60.0842C42.9685 60.2869 42.8667 60.4896 42.7649 60.6922C42.4594 61.3003 42.3576 61.6043 42.4594 62.0097C42.5612 62.2123 43.7831 66.7726 42.5612 68.7994C42.4594 69.0021 42.3576 69.1034 42.1539 69.2048C42.663 72.1436 41.6448 76.6025 39.8121 79.136C38.692 81.2641 37.2665 81.6695 36.3502 81.6695M32.481 70.0155C32.8883 75.9945 34.3137 79.44 36.452 79.5414C37.1647 79.5414 37.8775 78.7307 38.3866 78.1226C39.9139 75.9945 40.7284 72.2449 40.423 69.9141C39.6084 70.0155 38.2848 70.2181 36.6556 70.2181C34.9247 70.3195 33.4992 70.1168 32.481 70.0155M31.3609 67.6847C32.7864 67.9887 37.0629 68.2927 39.6084 68.09C40.5248 67.9887 41.0339 67.8873 41.0339 67.8873C41.0339 67.8873 41.1357 67.8873 41.1357 67.8873C41.543 67.0766 41.2376 64.5431 40.7284 62.8204C40.423 61.6043 40.8303 60.6922 41.1357 59.9829C41.3394 59.5775 41.543 59.2735 41.6448 58.8681C41.2376 58.3614 40.6266 57.348 40.1175 55.8279C39.8121 55.1186 39.6084 54.3079 39.7102 53.6998C37.572 54.6119 33.9065 56.6387 32.0737 57.8547C31.7682 58.5641 31.1573 61.1989 31.5646 62.9217C31.9719 64.2391 31.6664 65.6579 31.5646 66.8739C31.3609 66.9753 31.3609 67.3806 31.3609 67.6847M52.1324 61.4016C54.1688 62.415 56.9179 59.3748 57.8343 58.3614C57.9361 58.2601 58.038 58.1588 58.038 58.0574C58.2416 57.7534 58.5471 57.5507 58.7507 57.348C59.158 56.9427 59.4635 56.6387 59.6671 56.2333C59.4635 56.2333 59.3616 56.2333 59.158 56.2333C57.427 56.2333 55.4924 56.0306 55.3906 56.0306C54.8815 55.9293 54.3724 55.7266 54.067 55.6253C53.6597 55.5239 53.3542 55.4226 53.1506 55.3212C53.0487 55.3212 52.9469 55.2199 52.8451 55.2199C52.6415 55.1186 52.5396 55.1186 52.336 55.0172C52.1324 55.4226 51.7251 56.436 51.5214 58.1588C51.0123 60.3882 52.0305 61.3003 52.1324 61.4016M45.514 58.1588C45.8195 58.1588 46.1249 58.2601 46.4304 58.5641C46.634 58.7668 46.7359 58.9695 46.9395 59.2735C47.3468 59.9829 47.9577 60.8949 49.5868 61.3003C49.3832 60.6922 49.2814 59.9829 49.2814 59.1721C49.2814 57.8547 49.6887 56.2333 50.1978 55.0172C49.2814 54.9159 48.2632 54.7132 47.5504 54.3079C47.1432 54.0038 45.2086 53.6998 42.0521 53.6998C41.9503 53.6998 41.9503 53.6998 41.8485 53.6998C41.8485 53.6998 41.8485 53.6998 41.8485 53.8012C41.8485 53.8012 41.8485 53.8012 41.8485 53.9025C41.8485 54.1052 41.9503 54.4092 42.0521 54.8146C42.0521 55.0172 42.1539 55.1186 42.1539 55.2199C42.5612 56.2333 43.274 57.4494 44.1904 58.3614C44.394 58.6654 44.4958 58.6654 44.4958 58.6654C44.5976 58.6654 44.8013 58.5641 44.9031 58.5641C44.8013 58.2601 45.1067 58.1588 45.514 58.1588M8.34947 52.4837C8.24765 52.4837 8.24765 52.4837 8.34947 52.4837C8.04401 52.4837 8.04401 52.4837 7.94219 52.6864C7.84037 53.6998 9.06222 55.9293 10.7932 56.74C12.2187 57.4494 14.0514 57.2467 15.0696 56.74C15.5787 56.5373 15.8842 56.2333 15.986 55.9293C15.986 55.5239 16.1897 54.6119 17.0042 54.3079C17.3097 54.2065 17.5133 54.2065 17.8188 54.3079C17.5133 53.6998 17.5133 53.1931 17.8188 52.0784C18.2261 48.8355 17.9206 48.0248 17.717 47.9235C17.6152 47.9235 17.5133 48.0248 17.3097 48.1261C17.2079 48.2275 17.1061 48.2275 17.0042 48.3288C16.8006 48.4302 16.6988 48.5315 16.5969 48.6328C15.4769 49.4436 13.8478 50.5583 11.3023 51.5717C10.1823 52.0784 9.16404 52.3824 8.34947 52.4837M54.8815 53.8012C55.7979 54.0038 57.427 54.2065 59.158 54.3079C59.2598 54.3079 59.4635 54.3079 59.5653 54.3079L60.5835 54.2065C61.0926 53.6998 62.009 52.4837 61.7035 51.369C61.6017 51.369 61.398 51.369 61.2962 51.369C60.5835 51.369 60.278 51.2677 59.8707 51.2677C59.2598 51.2677 58.5471 51.1663 57.9361 51.065C57.0198 50.9637 56.4088 50.761 55.8997 50.5583C55.7979 50.5583 55.6961 50.457 55.5943 50.457C55.2888 50.9637 54.7797 51.977 54.4742 52.8891C54.2706 53.5985 54.2706 53.5985 54.2706 53.6998C54.3724 53.5985 54.5761 53.6998 54.8815 53.8012M5.90578 47.9235C5.90578 48.1261 5.90578 48.4302 6.10942 48.7342C6.5167 49.8489 7.33127 50.5583 7.63673 50.5583C7.73855 50.5583 7.84037 50.5583 7.84037 50.5583C8.85858 50.3556 9.67314 50.0516 10.4877 49.7476C12.015 49.0382 13.746 48.0248 15.8842 46.7074C15.8842 46.7074 15.986 46.6061 15.986 46.6061C16.1897 46.5047 16.3933 46.302 16.5969 46.2007C16.5969 45.998 16.5969 45.694 16.4951 45.4913C11.8114 47.5181 7.84037 48.1261 5.90578 47.9235M59.9726 49.1395C60.6853 49.1395 61.398 49.1395 61.8053 49.1395C62.2126 48.9369 62.4163 48.5315 62.5181 48.3288C62.8235 47.7208 62.8235 46.9101 62.4163 46.0994C60.9908 46.4034 58.4452 46.4034 56.5107 45.7953C56.0015 45.694 55.4924 45.5927 55.0852 45.39C55.0852 45.8967 55.0852 46.5047 55.187 46.8087C55.187 47.2141 55.187 47.6195 55.187 47.9235C55.187 47.9235 55.2888 48.0248 55.3906 48.0248C55.6961 48.0248 56.0015 48.2275 56.2052 48.3288C56.307 48.3288 56.4088 48.4302 56.6125 48.5315C57.3252 48.7342 58.3434 48.9369 59.9726 49.1395M16.9024 45.8967C16.9024 45.8967 16.8006 45.8967 16.9024 45.8967C16.8006 45.8967 16.9024 45.8967 16.9024 45.8967M5.90578 45.7953C10.4877 45.998 13.8478 44.2753 15.3751 43.4645C15.5787 43.3632 15.6806 43.2619 15.7824 43.2619C15.8842 43.2619 15.8842 43.1605 15.986 43.1605C15.986 42.8565 15.986 42.4511 15.7824 42.2485C14.7642 42.6538 13.8478 43.0592 12.9314 43.2619C10.7932 43.8699 8.14583 44.2753 5.70214 43.0592C5.39668 44.1739 5.60032 45.2886 5.90578 45.7953M57.1216 43.8699C57.2234 43.8699 57.427 43.8699 57.5289 43.9712C60.3798 44.4779 62.3144 44.0726 62.5181 43.9712C63.129 43.7686 63.2308 43.6672 63.3326 43.5659C63.5363 43.2619 63.7399 42.4511 63.3326 40.5257C59.6671 40.8297 57.0198 40.7284 55.4924 40.1203C55.3906 40.2217 55.2888 40.323 55.2888 40.5257C54.9833 41.2351 55.0852 42.3498 55.3906 42.9578C55.4924 43.0592 55.4924 43.1605 55.5943 43.2619C55.8997 43.4645 56.4088 43.6672 57.1216 43.8699M6.0076 40.7284C6.10942 40.7284 6.21124 40.8297 6.31306 40.9311C7.02581 41.3364 8.75676 42.4511 12.5241 41.3364C13.3387 41.0324 14.0514 40.8297 14.6624 40.5257C14.7642 40.4244 14.866 40.4244 15.0696 40.4244C14.9678 39.6136 14.866 38.7016 14.7642 38.0935C11.8114 39.0056 8.24765 38.9043 6.0076 38.3976C5.39668 39.5123 5.80396 40.5257 6.0076 40.7284M55.7979 37.9922C55.8997 37.9922 56.2052 38.0935 56.5107 38.0935C56.9179 38.1949 57.5289 38.2962 57.7325 38.2962C60.1762 38.6002 62.4163 38.3976 63.4345 38.2962C63.4345 38.2962 63.4345 38.2962 63.5363 38.2962C63.7399 37.6882 63.9436 36.4721 63.4345 35.0534C63.129 35.0534 62.8235 35.1547 62.4163 35.1547C61.0926 35.3574 59.3616 35.4587 58.1398 35.3574C57.3252 35.256 56.8161 35.0534 56.307 34.8507C55.7979 36.0668 55.4924 37.3842 55.7979 37.9922M5.70214 36.0668C10.3859 37.1815 13.135 36.2694 14.2551 35.8641C14.3569 35.7627 14.5605 35.7627 14.6624 35.7627C14.9678 35.0534 15.3751 33.736 14.866 32.9252C14.5605 33.0266 14.2551 33.1279 13.8478 33.1279C10.0804 34.04 7.53491 33.4319 6.21124 32.9252C5.70214 33.6346 5.29485 34.648 5.39668 35.4587C5.4985 35.7627 5.60032 35.9654 5.70214 36.0668M56.8161 33.0266C57.6307 33.3306 59.4635 33.4319 60.9908 33.3306C62.1108 33.2293 63.129 33.1279 63.5363 33.0266C63.6381 32.8239 63.8417 32.3172 63.9436 31.7092C63.9436 31.3038 63.9436 30.7971 63.6381 30.2904C63.2308 30.3918 62.7217 30.4931 62.2126 30.5944C61.4999 30.6958 60.5835 30.7971 59.6671 30.6958C58.4452 30.5944 57.6307 30.4931 57.1216 30.2904C56.6125 31.1011 56.1034 32.2159 56.5107 32.8239C56.4088 32.8239 56.5107 32.9252 56.8161 33.0266M9.57132 31.6078C10.895 31.7092 12.2187 31.5065 13.3387 31.2025C13.6441 31.1011 13.9496 31.1011 14.1533 30.9998C14.3569 30.0877 14.3569 29.277 14.3569 28.669C13.8478 28.669 13.3387 28.669 12.8296 28.669C11.5059 28.669 9.4695 28.4663 6.82216 27.7569C6.72034 27.7569 6.61852 27.7569 6.61852 27.7569C6.10942 28.5676 6.10942 29.3784 6.10942 29.6824C6.10942 30.3918 6.41488 30.6958 6.5167 30.7971C6.72034 30.8984 7.02581 30.9998 7.22945 31.1011C7.63673 31.3038 8.4513 31.5065 9.57132 31.6078M58.2416 28.4663C59.3616 28.669 60.8889 28.669 62.009 28.5676C62.7217 28.4663 63.2308 28.2636 63.4345 28.1623C63.6381 27.9596 63.7399 27.7569 63.7399 27.3516C63.8417 26.7435 63.7399 26.0342 63.5363 25.5275C63.129 25.5275 62.7217 25.5275 62.1108 25.5275C60.3798 25.4261 58.2416 25.2234 57.1216 24.6154C56.9179 24.9194 56.7143 25.3248 56.6125 25.9328C56.4088 26.7435 56.5107 27.4529 56.6125 27.7569C57.2234 28.1623 57.427 28.2636 58.2416 28.4663M12.8296 26.6422C13.4405 26.6422 13.9496 26.6422 14.3569 26.6422C14.866 25.6288 14.866 24.7167 14.6624 24.21C13.9496 24.1087 12.8296 23.906 10.9968 23.7033C10.9968 23.7033 10.895 23.7033 10.895 23.7033C10.5895 23.7033 10.2841 23.602 10.0804 23.602C8.75676 23.3993 7.22945 23.0953 6.31306 22.994C5.80396 24.7167 6.31306 25.4261 6.61852 25.7301C6.92399 25.8315 7.12763 25.8315 7.43309 25.9328C8.65494 26.1355 10.895 26.5409 12.8296 26.6422M32.5828 23.7033C35.1283 25.0208 36.6556 24.7167 37.3684 24.4127C37.0629 22.1833 37.1647 20.0551 37.4702 18.4337C37.572 17.927 37.6738 17.4203 37.7756 16.9136C37.1647 16.8123 35.8411 17.0149 34.721 17.5216L33.4992 20.0551C32.7864 21.2712 32.5828 22.4873 32.5828 23.7033M39.4048 24.1087C40.8303 24.3114 43.8849 24.3114 44.4958 23.8047C44.4958 22.8926 43.9867 21.0685 43.4776 19.3458C43.1721 18.3324 42.663 17.1163 42.0521 15.5962C41.543 15.6975 40.6266 15.9002 40.1175 16.3056C40.1175 16.3056 40.0157 16.4069 40.0157 16.4069C39.8121 17.319 39.6084 18.0283 39.5066 18.7377C39.0993 20.7645 39.303 22.994 39.4048 24.1087M27.3899 22.994C27.899 23.3993 29.63 23.7033 30.4446 23.7033C30.2409 21.1699 31.87 17.927 32.5828 16.7109C32.2773 16.6096 31.5646 16.4069 31.1573 16.6096C31.1573 16.7109 31.0555 16.8123 30.9537 16.9136C27.5936 19.3458 27.3899 22.1833 27.3899 22.994M57.8343 22.5886C57.9361 22.69 58.3434 22.8926 59.3616 22.994C60.6853 23.298 62.5181 23.1967 63.3326 23.1967C63.6381 22.5886 64.0454 21.4739 63.5363 20.2578C62.2126 20.6632 59.9726 21.0685 57.9361 20.9672C57.5289 20.9672 57.1216 20.8658 56.7143 20.7645C57.0198 21.2712 57.2234 21.6766 57.427 21.9806M45.4122 19.1431C46.0231 20.9672 46.2268 22.2846 46.3286 22.994C47.245 22.994 48.7723 22.7913 49.5868 21.5752C49.5868 21.3725 49.6887 21.1699 49.6887 21.0685C49.6887 20.9672 49.7905 20.8658 49.7905 20.6632C49.6887 18.8391 47.8559 15.4949 46.2268 13.164C45.6158 13.164 44.394 13.3667 43.7831 14.4815C44.2922 15.4949 44.9031 17.319 45.4122 19.1431M22.1971 22.3859C22.6044 22.5886 23.928 22.69 25.2517 22.5886C25.2517 20.6632 26.0663 18.7377 27.6954 16.9136L28.3063 15.9002C27.7972 15.9002 27.1863 15.9002 26.6772 15.9002C26.0663 16.1029 23.1135 17.2176 22.0953 19.2444C21.7898 19.9538 21.688 20.6632 21.8916 21.4739C22.0953 22.0819 22.0953 22.0819 22.0953 22.1833M11.2004 21.6766C12.7278 21.8792 13.8478 21.9806 14.4587 22.0819C14.4587 21.5752 14.4587 21.0685 14.4587 20.5618C14.4587 20.5618 14.4587 20.4605 14.4587 20.4605C13.6441 20.2578 12.015 19.9538 11.3023 19.7511C10.895 19.6498 10.895 19.6498 10.7932 19.6498C10.3859 19.6498 10.0804 19.5484 9.87678 19.5484C9.67314 19.5484 9.4695 19.5484 9.16404 19.4471C8.9604 19.4471 8.75676 19.3458 8.55312 19.3458C7.73855 19.2444 7.02581 19.1431 6.41488 19.1431C6.10942 19.1431 5.80396 19.1431 5.4985 19.1431C5.4985 19.3458 5.4985 19.5484 5.4985 19.7511C5.4985 20.0551 5.4985 20.5618 5.60032 20.8658C5.80396 20.8658 6.0076 20.8658 6.21124 20.9672C7.63673 21.0685 8.75676 21.3725 9.77496 21.4739C9.87678 21.4739 10.0804 21.4739 10.1823 21.5752C10.2841 21.5752 10.3859 21.5752 10.4877 21.5752C10.7932 21.5752 10.9968 21.6766 11.2004 21.6766M16.4951 20.2578C17.2079 20.8658 18.5315 21.1699 19.8552 21.3725C19.6516 19.3458 20.2625 16.7109 24.1317 14.6841C23.6226 14.5828 22.9098 14.4815 22.2989 14.4815C21.8916 14.5828 21.2807 14.6841 20.568 14.8868C19.3461 15.3935 17.717 16.2042 16.9024 17.4203C16.9024 17.5216 16.8006 17.5216 16.8006 17.623C16.8006 17.623 16.8006 17.7243 16.8006 17.7243C16.5969 18.231 16.4951 18.6364 16.3933 18.8391C16.3933 19.7511 16.3933 19.9538 16.4951 20.0551C16.4951 20.1565 16.4951 20.1565 16.4951 20.2578M48.0595 12.0493C51.0123 16.4069 51.8269 18.7377 51.9287 20.2578C52.5396 19.7511 53.3542 19.0417 53.8633 18.4337C53.8633 18.3324 53.9651 18.1297 54.067 18.0283C54.1688 17.8257 54.2706 17.623 54.3724 17.4203C54.2706 16.8123 53.6597 14.8868 50.1978 10.8332C49.7905 10.7319 48.7723 10.8332 48.0595 12.0493M56.7143 18.6364C58.038 18.9404 60.6853 19.1431 63.0272 18.231L63.0272 16.2042C62.1108 16.6096 60.5835 17.0149 58.5471 16.8123C58.2416 17.2176 57.8343 17.7243 57.1216 18.3324C57.0198 18.4337 56.9179 18.535 56.7143 18.6364M12.4223 17.927C13.2369 18.0283 13.8478 18.231 14.3569 18.3324C14.4587 17.8257 14.6624 17.2176 14.9678 16.7109C15.6806 14.9882 17.5133 13.8734 19.1425 13.2654C19.0406 13.2654 18.9388 13.2654 18.837 13.2654C15.986 13.3667 13.9496 14.0761 12.9314 15.4949C12.8296 15.5962 12.8296 15.6975 12.7278 15.6975C12.4223 16.4069 12.4223 17.2176 12.4223 17.927M9.26586 17.4203C9.57132 17.4203 9.87678 17.5216 10.1823 17.5216C10.1823 16.5082 10.3859 15.4949 10.9968 14.5828C11.2004 14.2788 11.4041 13.8734 11.7096 13.5694C12.3205 13.0627 12.9314 12.556 13.5423 12.252C13.2369 12.252 12.9314 12.252 12.6259 12.252C12.015 12.3533 10.2841 12.6574 9.36768 13.4681C9.16404 13.8734 8.9604 14.1774 8.85858 14.4815C8.65494 14.9882 8.55312 15.5962 8.55312 16.1029C8.55312 16.3056 8.65494 16.4069 8.75676 16.6096C8.9604 17.2176 9.26586 17.319 9.26586 17.319M6.92399 13.8734C6.5167 14.0761 6.0076 14.2788 5.39668 14.3801C5.09121 14.4815 4.88757 14.8868 4.88757 15.1908C4.68393 15.9002 4.78575 16.7109 4.88757 17.2176C5.39668 17.1163 6.0076 17.1163 6.5167 17.2176C6.41488 16.9136 6.41488 16.7109 6.41488 16.4069C6.41488 15.4949 6.61852 14.5828 6.92399 13.8734M63.3326 16.1029C63.6381 16.6096 63.6381 16.5082 63.6381 16.5082C63.6381 16.3056 63.5363 16.2042 63.5363 16.1029C63.4345 16.0016 63.3326 16.1029 63.3326 16.1029M56.2052 16.1029C56.2052 16.2042 56.307 16.3056 56.307 16.3056C56.4088 16.2042 56.4088 16.2042 56.5107 16.1029M52.0305 9.71851C53.2524 11.2386 55.187 13.6707 56.0015 15.7989L57.1216 14.8868C57.2234 14.6841 57.2234 14.3801 57.2234 14.0761C57.2234 13.8734 57.1216 13.5694 56.9179 13.164C56.8161 12.86 56.6125 12.6574 56.5107 12.3533C56.4088 12.1507 56.307 12.0493 56.1034 11.8466C55.187 10.7319 53.9651 9.61717 52.8451 8.60377C52.7433 8.80645 52.4378 9.11047 52.0305 9.71851M60.4817 14.5828C60.3798 14.5828 60.3798 14.5828 60.4817 14.5828C61.2962 14.5828 62.3144 14.3801 63.0272 13.8734C63.8417 12.9614 63.8417 12.0493 63.6381 10.7319C63.0272 11.3399 62.6199 11.7453 62.3144 11.948C62.3144 12.0493 62.2126 12.1507 62.2126 12.1507C61.9071 12.9614 61.1944 13.8734 60.4817 14.5828M54.1688 6.98234C54.9833 7.48904 56.9179 9.00913 58.9543 12.252C59.158 12.556 59.2598 12.7587 59.2598 12.9614C59.7689 12.4547 60.1762 11.8466 60.5835 11.2386C60.5835 11.2386 60.5835 11.2386 60.5835 11.1373C60.6853 10.4279 60.0744 9.11047 56.2052 5.86761C55.8997 5.66493 55.7979 5.46225 55.5943 5.36091C55.2888 5.46225 54.7797 5.66493 54.4742 6.07029C54.2706 6.27297 54.067 6.57699 54.1688 6.98234M57.2234 4.0435C57.7325 4.5502 58.8525 5.46225 60.4817 6.77967C61.4999 7.69172 62.009 8.60377 62.3144 9.31315C62.9254 8.70511 63.3326 8.19842 63.5363 7.79306C63.8417 6.98234 63.8417 5.86761 63.4345 5.25957C63.2308 4.95556 63.129 4.75288 63.0272 4.75288C61.1944 4.75288 59.6671 4.34752 57.8343 3.63814C57.7325 3.5368 57.5289 3.5368 57.427 3.5368C57.427 3.63814 57.2234 3.84082 57.2234 4.0435"/>
</svg>
