<?xml version="1.0" encoding="utf-8" ?>
<svg xmlns="http://www.w3.org/2000/svg" xmlns:xlink="http://www.w3.org/1999/xlink" width="60" height="72">
	<path fill="white" d="M30.3917 71.899C21.2209 71.899 13.7633 68.9705 8.22044 63.1136C2.3753 56.9537 -0.446499 47.6634 0 36.2525C2.87919 14.2384 17.6936 0.302945 29.787 0C43.7952 0 57.5011 16.359 59.9198 35.7475C60.5244 47.7644 57.7026 57.1557 51.7567 63.3156C46.3147 69.0715 39.361 72 31.1979 72"/>
	<path fill="#425ACE" d="M30.4028 69.0715C22.1453 69.0715 15.3983 66.547 10.3632 61.2959C5.12674 55.8429 2.60921 47.2595 3.0496 36.6564C5.63025 16.8639 18.9228 3.53434 29.8993 3.2314C42.2856 3.2314 54.6719 18.5806 56.8873 36.3534C57.3908 47.3604 54.8733 55.9439 49.6368 61.3969C45.1052 66.143 39.0631 69.0715 31.2084 69.0715"/>
	<path fill="#2C180C" d="M31.2095 70.0813C21.8362 70.0813 14.781 67.3548 9.64082 61.9018C4.19827 56.1459 1.57778 47.4614 2.0206 36.5554C4.70221 15.7532 18.611 2.52454 29.8992 2.2216C42.9009 2.2216 55.6002 17.7728 57.9183 36.1515C58.4222 47.3604 55.8017 56.3478 50.3592 62.0028C45.219 67.3548 38.7686 70.0813 31.2095 70.0813M29.8992 4.24124C19.4173 4.54418 6.51639 17.6718 4.09748 36.7574C3.59354 46.9565 6.01245 55.237 11.1526 60.5891C15.8897 65.5372 22.4409 68.0617 30.5039 68.0617C38.3654 68.0617 44.3119 65.5372 48.9482 60.69C53.9876 55.338 56.4065 46.9565 55.9025 36.3534C53.786 19.2875 41.6914 4.24124 30.1008 4.24124"/>
	<path fill="#FFBDCA" d="M13.7985 13.5316C13.7985 13.5316 15.9132 12.0168 17.8265 17.4698C19.4377 23.0238 19.9412 28.7798 24.4729 29.2847C29.0044 29.7896 35.3485 26.1543 38.0676 20.7013C40.7865 15.2482 39.9809 7.87658 43.1026 9.9972C43.1026 9.9972 38.8731 5.554 31.4213 4.4432C31.4213 4.4432 29.3064 4.4432 29.8099 6.76578C30.3134 9.08836 32.5289 17.7728 27.091 20.7013C21.4518 23.3268 21.8546 7.57363 18.33 8.8864C17.5244 9.39131 16.2153 10.7041 13.7985 13.5316"/>
	<path fill="#B2DAF7" d="M14.302 13.2286C14.302 13.2286 13.4964 14.0364 11.583 16.8639C11.583 16.8639 12.8922 30.1936 18.7329 35.5456C24.5736 40.8975 39.6787 39.9888 48.5405 31.1024C48.5405 31.1024 50.8567 29.5877 54.3811 31.1024C54.3811 31.1024 52.77 21.1052 45.8215 13.0266C45.8215 13.0266 41.7934 7.47261 40.9879 10.4011C39.9809 12.7237 39.3766 17.6718 36.9599 21.4081C34.845 25.0434 23.3652 35.0406 20.1427 22.9229C17.7258 10.906 16.0139 11.5119 14.302 13.2286"/>
	<path fill="#FFE088" d="M11.1803 17.268C11.1803 17.268 10.5761 18.0758 9.06555 21.2062C9.06555 21.2062 10.9789 31.5064 14.7048 38.5751C18.2294 45.8458 26.3862 49.5821 36.0536 48.2693C45.9222 46.9566 53.475 44.3311 53.475 52.7125C53.475 52.7125 57.4023 45.3409 55.791 36.4545C55.791 36.4545 55.1869 33.324 54.784 31.3044C54.784 31.3044 52.8707 28.174 45.2173 32.1123C37.564 35.9496 36.4564 38.1712 27.8967 37.6663C24.1707 37.6663 19.6392 36.1515 17.8266 32.5162C14.6041 26.6593 13.4964 12.2189 11.1803 17.268"/>
	<path fill="#30C9F7" d="M9.16631 20.8022C9.16631 20.8022 6.85017 24.7405 5.33965 30.4965C5.33965 30.4965 5.84316 46.0477 14.1007 50.8949C22.3582 55.54 36.5572 55.742 41.0886 61.195C41.0886 61.195 42.8006 63.8204 41.0886 65.6382C41.0886 65.6382 49.044 63.0126 52.9715 53.9243C52.9715 53.9243 54.8848 45.7448 47.8356 45.7448C40.7865 45.7448 39.5781 48.7742 28.9038 47.2595C18.3302 45.7448 14.6042 39.282 12.8923 33.4249C10.6768 27.0631 10.6768 19.4895 9.16631 20.8022"/>
</svg>
