<?xml version="1.0" encoding="utf-8" ?>
<svg xmlns="http://www.w3.org/2000/svg" xmlns:xlink="http://www.w3.org/1999/xlink" width="72" height="96">
	<path fill="#FFCF48" d="M11.52 85.9534L7.7462 83.3149C7.7462 83.3149 7.7462 83.2135 7.7462 83.112L12.5131 71.8477C12.5131 71.8477 12.7117 71.8477 12.7117 71.8477L19.5641 76.7188C19.6634 76.8203 19.6634 76.9217 19.5641 76.9217L11.6193 85.7505C11.6193 85.9534 11.52 85.9534 11.52 85.9534"/>
	<path fill="white" d="M0 91.8393L4.7669 84.8372L8.93793 72.6596C6.85241 71.1374 5.95862 69.6152 5.76 67.9915C5.66069 66.6723 6.05793 65.2516 6.95172 63.9323L19.1669 46.0719L35.6524 21.9197C35.851 21.6152 35.851 21.3108 35.851 21.0063C35.7517 20.7019 35.6524 20.3975 35.3545 20.1945L29.9917 16.4397L36 7.61099L45.9807 14.7146C46.7752 14.7146 47.0731 14.5116 47.371 14.2072L49.7545 10.7569C50.1517 10.2495 49.9531 9.43763 49.4566 9.13319L47.0731 7.40803L52.1379 0L72 14.1057L66.9352 21.5137L64.2538 19.5856C63.4593 19.5856 63.1614 19.7886 62.8634 20.093L60.48 23.5433C60.0828 24.0507 60.2814 24.8626 60.7779 25.167L70.411 32.0677L64.3531 40.8964L58.7917 36.9387C57.9972 36.9387 57.6993 37.1416 57.4014 37.4461L40.9159 61.5983L28.3034 79.9662C27.3103 81.3869 25.6221 82.3002 23.9338 82.3002C22.8414 82.3002 21.749 81.9958 20.9545 81.2854L11.8179 90.0127L10.5269 89.4038C10.1297 89.4038 9.83172 89.6068 9.53379 89.9112L5.36276 96L0 91.8393"/>
	<path fill="#2D1B0A" d="M12.1158 86.8668C11.9172 86.8668 11.6193 86.7653 11.52 86.6638L7.051 83.518C6.55785 83.2135 6.45514 82.6046 6.55785 82.0972L11.6193 70.7315C11.7186 70.4271 12.0165 70.2241 12.3144 70.0828C12.6124 70.0828 13.0096 70.0828 13.3076 70.3256L21.0537 75.8055C21.3517 76.0085 21.5504 76.3129 21.5504 76.6173C21.5504 76.9218 21.451 77.3277 21.2523 77.5306L13.0096 86.5624C12.7117 86.6638 12.4138 86.8668 12.1158 86.8668M8.63997 82.1987L11.9172 84.5328L18.9683 76.7188L12.9103 72.4566L8.63997 82.1987"/>
	<path fill="#E7F5F8" d="M47.1905 19.1564L54.6242 8.24748L62.8551 14.104L55.4214 25.013L47.1905 19.1564"/>
	<path fill="#2D1B0A" d="M55.9118 26.4862L46.0801 19.4841L54.7201 6.9006L64.5518 13.9027L55.9118 26.4862M48.7614 18.8752L55.3159 23.5433L61.6718 14.3086L55.1173 9.64056L48.7614 18.8752"/>
	<path fill="#E7F5F8" d="M33.8936 15.5632L36.5607 11.6493L66.0615 32.6401L63.3945 36.5539L33.8936 15.5632"/>
	<path fill="#2D1B0A" d="M63.8566 37.9535L32.7725 15.8309L36.5463 10.2495L67.6304 32.3721L63.8566 37.9535M35.5532 15.222L63.4594 35.0106L64.9491 32.778L37.0428 12.9895L35.5532 15.222"/>
	<path fill="#FFCF48" d="M22.743 78.7485L9.83273 69.5138C8.69415 68.702 8.34308 66.9768 9.13756 65.759L21.452 47.5941C21.5513 47.426 21.8493 47.426 22.048 47.426L38.3349 59.0614C38.5335 59.1628 38.5335 59.4673 38.4342 59.6702L25.9211 78.0381C25.2258 79.1306 23.7361 79.4588 22.743 78.7485"/>
	<path fill="#2D1B0A" d="M24.0117 80.1692C23.3165 80.1692 22.7206 79.9662 22.1248 79.5602L9.21449 70.325C8.42 69.7161 7.92345 68.9042 7.65035 67.9908C7.52621 66.976 7.65035 66.0626 8.32069 65.2507L20.6352 47.0847C21.1317 46.4676 21.9263 46.2729 22.6213 46.6788L38.9082 58.2482C39.2062 58.4512 39.4049 58.7556 39.5042 59.1616C39.6035 59.5675 39.5042 59.872 39.3055 60.2779L26.7924 78.6469C26.0972 79.6617 25.1041 80.1692 24.0117 80.1692M23.2173 77.835C23.8131 78.2409 24.707 78.1394 25.1041 77.5305L37.2201 59.669L21.827 48.7085L9.81035 66.3671C9.51242 66.773 9.51242 67.179 9.51242 67.5849C9.61173 67.9908 9.81035 68.3968 10.2076 68.7013L23.2173 77.835"/>
	<path fill="#E7F5F8" d="M21.4801 47.4899L40.2063 20.0093L57.157 32.0703L38.4309 59.5509L21.4801 47.4899"/>
	<path fill="#2D1B0A" d="M38.8304 60.9894L20.2594 47.797L40.1215 18.5708L58.6925 31.7632L38.8304 60.9894M23.0401 47.1881L38.3339 58.148L55.9118 32.2706L40.618 21.3108L23.0401 47.1881"/>
	<path fill="#2D1B0A" d="M3.7738 92.1438L9.13657 84.2284"/>
	<path fill="#2D1B0A" d="M2.5723 91.5041L7.96411 83.593L10.4089 85.3329L5.01712 93.244L2.5723 91.5041"/>
	<path fill="#000207" d="M50.2361 6.74667L52.6762 3.16587L68.5675 14.4731L66.1274 18.0539L50.2361 6.74667"/>
	<path fill="#2D1B0A" d="M66.5379 18.7738L49.7545 6.90064L52.7338 2.537L69.5173 14.4102L66.5379 18.7738M51.1448 6.5962L66.24 17.3531L68.1269 14.6131L53.0317 3.85624L51.1448 6.5962"/>
</svg>
