<?xml version="1.0" encoding="utf-8" ?>
<svg xmlns="http://www.w3.org/2000/svg" xmlns:xlink="http://www.w3.org/1999/xlink" width="90" height="88">
	<path fill="white" d="M45 88C39.7209 88 35.4752 85.4857 35.0708 81.9657L34.9697 80.7589L33.8578 81.0606C33.2512 81.2617 32.6447 81.3623 31.836 81.3623C30.5218 81.3623 29.0055 81.0606 27.4891 80.3566C25.2652 79.4514 23.4456 77.7417 22.6369 75.8309C22.6369 75.6297 22.5358 75.5291 22.5358 75.328C22.5358 75.1269 22.4347 75.0263 22.4347 74.8251L22.0303 73.4171L20.8173 74.3223C19.8064 75.0263 18.6944 75.4286 17.4813 75.4286C14.7519 75.4286 11.8203 73.7189 9.49528 70.8023C6.36151 66.4777 5.85607 61.8514 8.18112 59.2366L7.97894 57.728C6.26042 56.8229 4.84518 54.7109 4.13755 51.7943C3.63211 49.5817 3.83429 47.3691 4.74409 45.5589L5.35062 44.4526L4.13755 44C3.02557 43.7486 2.01468 42.8434 1.40815 41.7371C0 39.6251 -0.310368 36.608 0.296167 33.1886C1.30706 28.0594 4.44082 24.64 7.97894 24.64C8.18112 24.64 8.3833 24.64 8.58547 24.64L10.304 25.2434L9.89963 23.5337C9.39419 21.5223 10.0007 19.1086 11.6181 16.6949C13.5388 14.1806 15.8639 12.9737 18.0879 12.9737L19.6042 12.9737L18.9977 11.5657C18.4922 10.3589 18.3911 9.05143 18.7955 7.744C19.5031 5.22971 21.8281 2.91657 25.063 1.408C26.8826 0.502857 29.0055 0 30.8251 0C33.3523 0 35.3741 0.905143 36.5872 2.41371L38.1035 2.51429C39.6198 1.10629 41.9449 0.301714 44.371 0.301714C47.4037 0.301714 50.032 1.408 51.3462 3.41943L52.3571 4.928L53.0647 3.31886C53.9745 1.30743 56.2995 0.100571 59.13 0.100571C60.8485 0.100571 62.8703 0.603429 64.791 1.408C69.8455 3.72114 72.5749 8.04571 71.0585 11.6663L70.452 12.9737L71.8673 13.0743C73.889 13.1749 76.2141 14.4823 77.8315 16.4937C79.55 18.9074 80.3587 21.5223 79.8533 23.6343L79.55 25.2434L81.1675 24.8411C81.4707 24.7406 81.6729 24.7406 81.9762 24.7406C85.4132 24.7406 88.547 28.16 89.6589 33.2891C90.3666 36.4069 90 39.5246 88.547 41.6366C87.8393 42.7429 86.9295 43.4469 85.9186 43.8491L84.9078 44.2514L85.4132 45.2571C86.5252 47.3691 86.2219 50.0846 86.1208 51.1909C85.3121 54.3086 83.7958 56.5211 82.0773 57.4263L80.8642 58.0297C82.886 60.0411 83.3914 61.4491 83.3914 63.2594C83.3914 65.6731 82.2794 68.3886 80.4598 70.7017C78.337 73.5177 75.2032 75.328 72.4738 75.328C71.2607 75.328 70.0477 74.9257 69.2389 74.3223L68.127 73.4171L67.6215 74.8251C67.5204 75.0263 67.5204 75.2274 67.4193 75.328C67.4193 75.5291 67.3182 75.6297 67.3182 75.8309C66.6106 77.6411 64.6899 79.4514 62.3649 80.3566C61.0507 80.96 59.5344 81.2617 58.1191 81.2617C57.4115 81.2617 56.7039 81.1611 56.0974 80.96L54.8843 80.6583L54.7832 81.8651C54.2778 85.3851 50.2342 88 45 88"/>
	<path fill="#FF6F64" d="M12.8563 42.3406C12.8563 41.1337 13.0585 39.7257 13.2606 38.4183L14.2714 33.6915C15.0801 30.3726 16.2931 27.3555 18.2136 24.7406L21.0439 21.0195C23.2677 18.6057 25.7948 16.4937 28.625 14.8846L32.9715 12.8732C35.5997 11.6663 38.7332 10.8617 41.9678 10.6606L46.7187 10.6606C50.2565 10.6606 53.4911 11.4652 56.8268 12.672L58.4441 10.0572C56.0182 8.44803 54.7041 6.13489 55.6138 4.72689C56.4225 2.71546 59.9604 2.51432 63.3971 4.12346C66.935 5.7326 68.9566 8.64918 68.148 10.4595C67.3393 12.0686 64.8123 12.4709 61.982 11.6663L60.9712 14.9852C63.8015 16.5943 66.3285 18.7063 68.5523 21.12L71.1804 24.8412C73.2021 27.456 74.5161 30.5737 75.5269 33.792L76.3356 38.5189C76.5378 39.7257 76.7399 41.1337 76.7399 42.4412C76.7399 44.4526 76.5378 46.5646 76.1334 48.3749L75.7291 50.5875C74.7183 54.1075 73.101 57.5269 70.9783 60.6446L68.148 64.1646C65.9242 66.7795 62.9928 69.0926 59.9604 70.7017L56.0182 72.3109C53.39 73.5177 50.2565 74.1212 47.2241 74.3223L42.4732 74.3223C39.4408 74.1212 36.5094 73.5177 33.8813 72.512L29.5348 70.5006C26.5023 68.8915 23.7731 66.7795 21.5493 64.3657L18.719 60.6446C16.8996 58.0297 15.3833 55.1132 14.3725 51.8949L13.3617 47.3692C13.0585 45.5589 12.8563 44.0168 12.8563 42.3406M13.2606 38.4183C13.4628 36.8092 13.665 35.0995 14.0693 33.6915L10.7336 33.2892C10.7336 33.4903 10.7336 33.4903 10.7336 33.6915C10.9357 30.3726 9.92493 28.16 8.30762 27.7577C6.28599 27.3555 3.96111 29.9703 3.15246 33.8926C2.3438 37.6137 3.35462 40.832 5.37625 41.2343C6.99356 41.6366 8.91411 40.0275 9.92493 37.1109C9.92493 36.9097 9.92493 37.1109 9.92493 37.1109L13.2606 38.4183M18.2136 24.7406C19.2244 23.3326 20.0331 22.1257 21.0439 21.0195C19.2244 20.2149 19.2244 20.2149 19.0223 20.2149C20.0331 18.4046 19.8309 16.896 19.0223 16.2926C18.0115 15.488 15.6866 16.2926 14.0693 18.304C12.6541 20.5166 12.2498 22.8297 13.2606 23.8355C14.0693 24.4389 15.4844 24.0366 17.0006 23.0309C17.0006 22.8297 17.0006 23.0309 18.2136 24.7406M28.7261 14.8846C30.1413 14.08 31.3542 13.2755 32.8705 12.672L31.2532 10.0572C33.6791 8.44803 34.9932 6.13489 34.2856 4.72689C33.2748 2.71546 29.7369 2.51432 26.3002 4.12346C22.9645 5.7326 20.7407 8.64918 21.7515 10.4595C22.358 12.0686 24.7839 12.4709 27.7153 11.6663L28.7261 14.8846M42.0689 10.56C42.8776 10.3589 43.8884 10.3589 44.8992 10.3589C45.5057 10.3589 46.1122 10.3589 46.7187 10.3589C47.9316 7.94518 48.9425 7.04003 48.9425 6.03432C48.9425 4.62632 46.9208 3.41946 44.1916 3.41946C41.7657 3.41946 39.4408 4.62632 39.4408 6.03432C39.4408 7.04003 40.6538 7.8446 42.2711 8.24689L42.0689 10.56M68.5523 21.0195C69.5631 22.0252 70.3718 23.232 71.3826 24.5395C73.8085 24.1372 75.3248 24.5395 76.1334 23.936C77.3464 22.9303 76.9421 20.6172 75.3248 18.4046C73.7075 16.3932 71.5847 15.5886 70.3718 16.3932C69.5631 16.896 69.5631 18.4046 68.5523 21.0195M75.5269 33.6915C75.9313 35.0995 76.1334 36.7086 76.3356 38.4183L79.6713 37.2115C80.6821 40.0275 82.5016 41.7372 84.22 41.3349C86.2416 40.9326 87.2524 37.6137 86.4438 33.9932C85.6351 30.0709 83.4113 27.456 81.2886 27.8583C79.6713 28.2606 78.6605 30.4732 78.8626 33.3897L75.5269 33.6915M76.1334 48.2743C75.9313 49.0789 75.9313 49.6823 75.7291 50.4869C77.6496 50.9897 77.8518 51.0903 77.8518 51.4926C77.7507 53.9063 78.3572 54.8115 79.1659 55.0126C80.581 55.4149 82.1983 53.6046 82.9059 50.8892C83.3102 48.4755 82.7037 45.9612 81.2886 45.76C80.2778 45.5589 79.267 46.3635 78.6605 47.9726C78.6605 48.1737 78.1551 48.4755 78.054 48.4755L76.1334 48.2743M71.0793 60.544C70.2707 61.7509 69.2599 62.9577 68.2491 64.2652L71.0793 65.8743C71.4837 65.472 71.888 64.8686 72.2923 64.2652C72.6966 63.8629 73.101 63.2595 73.5053 62.8572L71.0793 60.544M60.2636 70.9029C59.0506 71.5063 57.8376 72.1097 56.3214 72.512C56.9279 73.216 57.1301 73.216 57.3322 73.4172C57.5344 73.6183 57.5344 73.92 57.3322 74.0206C55.816 75.0263 55.5128 76.4343 55.9171 77.2389C56.5236 78.6469 58.9495 78.6469 61.2744 77.6412C63.7004 76.6355 65.2166 74.624 64.6101 73.3166C64.2058 72.3109 62.7906 71.9086 61.0723 72.3109C60.8701 72.3109 60.8701 72.3109 61.0723 72.3109L60.2636 70.9029M47.2241 74.2217C46.4154 74.2217 45.6068 74.2217 45.0003 74.2217C44.1916 74.2217 43.383 74.2217 42.5743 74.2217L42.9786 77.5406C40.1483 78.144 38.0256 79.3509 38.0256 81.2617C38.0256 83.2732 41.0581 84.9829 45.0003 84.9829C48.7403 84.9829 51.7727 83.3737 51.7727 81.2617C51.7727 79.4515 49.7511 77.9429 46.8197 77.5406L47.2241 74.2217M33.8813 72.3109C32.264 71.7075 31.051 71.104 29.5348 70.2995C29.5348 72.3109 30.1413 72.7132 30.7478 73.1155C31.5564 73.4172 31.9607 73.6183 33.8813 72.3109M21.5493 64.1646C20.5385 62.9577 19.5277 61.7509 18.719 60.4435L16.4952 62.5555C16.3942 62.656 16.2931 62.7566 16.2931 62.7566C14.0693 60.7452 11.7444 60.1417 10.5314 61.1475C8.91411 62.3543 9.5206 65.8743 11.7444 68.8915C14.1704 71.9086 17.3039 73.216 18.9212 71.9086C20.3363 70.9029 20.1342 68.3886 18.719 65.7737L21.5493 64.1646M13.766 51.392C13.3617 49.984 13.5639 48.8777 13.3617 47.168C11.7444 48.3749 11.7444 49.1795 11.9466 49.7829C12.1487 50.3863 12.3509 50.9897 12.3509 51.5932M38.3289 49.8835C38.3289 52.6995 40.5527 55.0126 43.484 55.0126C46.4154 55.0126 48.8414 52.8 48.8414 49.8835C48.8414 46.8663 46.4154 44.5532 43.484 44.5532C40.5527 44.5532 38.3289 46.7657 38.3289 49.8835M57.2312 55.0126C57.2312 57.2252 59.2528 59.3372 61.5777 59.3372C64.0036 59.3372 65.9242 57.3257 65.9242 55.0126C65.9242 52.5989 64.1047 50.688 61.5777 50.688C59.3539 50.688 57.2312 52.4983 57.2312 55.0126M54.8052 37.6137C54.8052 39.8263 56.6247 41.7372 58.9495 41.7372C61.3755 41.7372 63.2961 39.9269 63.2961 37.6137C63.2961 35.2 61.4766 33.2892 58.9495 33.2892C56.6247 33.2892 54.8052 35.0995 54.8052 37.6137M18.618 45.76C18.618 47.7715 20.4374 49.6823 22.5601 49.6823C24.7839 49.6823 26.5023 47.872 26.5023 45.76C26.5023 43.5475 24.885 41.8377 22.5601 41.8377C20.4374 41.9383 18.618 43.5475 18.618 45.76M46.0111 24.3383C46.0111 26.3497 47.6284 28.0595 49.7511 28.0595C51.7727 28.0595 53.4911 26.4503 53.4911 24.3383C53.4911 22.2263 51.8738 20.6172 49.7511 20.6172C47.6284 20.6172 46.0111 22.2263 46.0111 24.3383M37.5202 37.6137C37.5202 39.2229 38.9354 40.4297 40.5527 40.4297C42.17 40.4297 43.383 39.2229 43.383 37.6137C43.383 35.8035 42.17 34.5966 40.5527 34.5966C38.9354 34.5966 37.5202 35.8035 37.5202 37.6137M46.0111 62.5555C46.0111 64.1646 47.4262 65.3715 49.0435 65.3715C50.6608 65.3715 51.8738 64.1646 51.8738 62.5555C51.8738 60.7452 50.6608 59.5383 49.0435 59.5383C47.4262 59.5383 46.0111 60.7452 46.0111 62.5555M34.6899 19.8126C34.6899 21.4217 36.1051 22.6286 37.7224 22.6286C39.1375 22.6286 40.5527 21.4217 40.5527 19.8126C40.5527 18.2035 39.1375 16.7955 37.7224 16.7955C36.1051 16.6949 34.6899 18.2035 34.6899 19.8126M32.5672 60.0412C32.5672 61.4492 33.578 62.4549 34.9932 62.4549C36.4083 62.4549 37.6213 61.4492 37.6213 60.0412C37.6213 58.6332 36.4083 57.4263 34.9932 57.4263C33.6791 57.4263 32.5672 58.6332 32.5672 60.0412M62.7906 26.9532C62.7906 28.3612 63.8015 29.568 65.2166 29.568C66.6317 29.568 67.8447 28.3612 67.8447 26.9532C67.8447 25.5452 66.6317 24.5395 65.2166 24.5395C63.8015 24.5395 62.7906 25.5452 62.7906 26.9532M24.5818 27.7577C24.5818 28.7635 25.5926 29.7692 26.6034 29.7692C27.6142 29.7692 28.4229 28.7635 28.4229 27.7577C28.4229 26.752 27.6142 25.9475 26.6034 25.9475C25.5926 25.9475 24.5818 26.752 24.5818 27.7577M70.8772 71.9086C72.4945 73.1155 75.8302 71.9086 78.054 68.8915C80.4799 65.8743 80.8843 62.3543 79.4691 61.1475C78.054 60.1417 75.5269 60.9463 73.5053 62.7566C73.101 63.1589 72.6966 63.7623 72.2923 64.1646C71.888 64.768 71.4837 65.3715 71.0793 65.7737C69.5631 68.4892 69.5631 70.9029 70.8772 71.9086M70.8772 71.9086C72.4945 73.1155 75.8302 71.9086 78.054 68.8915C80.4799 65.8743 80.8843 62.3543 79.4691 61.1475C78.054 60.1417 75.5269 60.9463 73.5053 62.7566L71.2815 65.8743C68.9566 68.0869 69.5631 70.9029 70.8772 71.9086M28.9283 72.3109C27.311 71.9086 25.8958 72.3109 25.3904 73.3166C24.7839 74.5235 26.1991 76.6355 28.7261 77.6412C30.9499 78.6469 33.477 78.6469 34.0834 77.2389C34.4878 76.4343 33.8813 75.0263 32.6683 73.92L28.9283 72.3109M11.4412 48.0732C10.6325 46.464 9.62168 45.6595 8.61087 45.8606C7.19572 46.0617 6.38707 48.4755 6.99356 50.9897C7.60005 53.6046 9.01519 55.5155 10.5314 55.1132C11.5422 54.912 12.1487 53.7052 12.3509 51.7943L11.4412 48.0732M17.2028 22.8297L19.0223 20.2149C18.618 20.6172 18.0115 20.8183 17.6071 21.2206C17.2028 21.824 17.405 22.4275 17.2028 22.8297M10.026 37.0103L10.8347 33.6915C10.6325 34.2949 10.026 34.6972 10.026 35.3006C9.82385 36.0046 10.2282 36.4069 10.026 37.0103"/>
	<path fill="#2D1B0A" d="M44.9778 85.9886C40.5306 85.9886 36.9931 83.8766 36.9931 81.2617C36.9931 80.0549 37.5996 77.9429 41.8446 76.736L41.6424 75.2274C38.8124 75.0263 36.1845 74.4229 33.7588 73.5177C35.0728 74.9257 35.5781 76.5349 34.9717 77.6412C34.6685 78.2446 34.1631 78.7474 33.4556 79.0492C32.1417 79.552 30.1202 79.3509 28.3009 78.5463C26.4816 77.8423 24.9656 76.4343 24.4602 75.0263C24.157 74.2217 24.157 73.5177 24.4602 72.8137C25.0666 71.5063 26.6838 70.9029 28.5031 71.2046C28.5031 71.2046 28.5031 71.104 28.5031 71.104C25.7741 69.5954 23.2474 67.6846 21.1248 65.472L20.0131 66.0754C21.327 68.8914 21.1248 71.4057 19.5077 72.6126C18.9013 73.1154 17.8905 73.4172 16.8798 73.3166C14.9595 73.1154 12.7359 71.7074 10.9166 69.3943C8.28872 65.7737 7.78336 61.7509 9.90587 60.2423C11.4219 59.0354 13.8477 59.4377 16.2734 61.3486L17.2841 60.3429C15.5659 57.728 14.252 55.0126 13.3423 52.1966C12.938 55.1132 11.6241 55.9177 10.6134 56.1189C10.0069 56.32 9.29943 56.2194 8.59193 55.8172C7.37907 55.1132 6.36835 53.4034 5.86299 51.2914C5.35763 49.3806 5.66085 47.3692 6.46942 46.1623C6.97478 45.4583 7.58121 45.056 8.28872 44.9554C8.99622 44.8549 10.5123 44.8549 11.8262 47.0674C11.9273 46.9669 12.0284 46.8663 12.1294 46.8663C11.9273 45.4583 11.7252 44.1236 11.7252 42.5417C11.7252 41.536 11.8262 40.3292 12.0284 39.2229L10.4112 38.6194C9.19836 41.3349 7.07585 42.944 5.05442 42.4412C4.24584 42.24 3.43727 41.7372 2.83084 40.832C1.7601 39.2229 1.5169 36.608 2.02226 33.8926C2.93191 29.4674 5.66085 26.4503 8.38979 26.9532C10.3102 27.456 11.523 29.568 11.6241 32.5852L13.3423 32.7863C14.1509 29.6686 15.3637 27.1543 16.7788 24.9417C16.6777 24.8412 16.5766 24.64 16.5766 24.5394C14.8584 25.4446 13.4434 25.5452 12.5337 24.8412C11.1187 23.4332 11.3209 20.7177 13.1402 18.0023C14.1509 16.7954 15.2627 15.9909 16.3745 15.488C17.6884 14.9852 18.8002 15.0857 19.6088 15.6892C20.5184 16.3932 21.0238 17.9017 20.3163 19.8126C20.4173 19.9132 20.6195 19.9132 20.7206 20.0137C22.8431 17.8012 25.0666 15.9909 27.3913 14.5829L26.8859 13.0743C23.8538 13.6777 21.4281 12.9737 20.7206 11.0629C20.3163 10.3589 20.3163 9.45373 20.6195 8.54859C21.2259 6.63773 23.2474 4.72687 25.7741 3.41944C29.817 1.50859 33.8599 2.01144 35.0728 4.52573C35.9824 6.23544 34.8706 8.64916 32.4449 10.56L33.2535 11.8674C35.6792 10.8617 38.3071 10.2583 41.036 9.95659C39.4188 8.64916 38.4081 7.54287 38.4081 6.33602C38.4081 4.12344 41.3392 2.71544 44.1692 2.71544C47.4035 2.71544 49.9303 4.22402 49.9303 6.33602C49.9303 7.24116 49.526 7.94516 48.9196 8.8503C48.7175 9.15202 48.5153 9.5543 48.2121 9.95659C50.7389 10.1577 53.3668 10.6606 56.3989 11.6663L57.1064 10.56C54.6807 8.64916 53.67 6.23544 54.6807 4.52573C55.085 3.72116 55.6914 3.11773 56.7021 2.71544C58.5214 2.01144 61.2504 2.2586 63.7772 3.52002C67.719 5.3303 70.1447 8.74973 69.0329 11.1634C68.1233 13.0743 65.5965 13.7783 62.6654 13.1749L62.16 14.784C64.2825 16.0914 66.2029 17.6 68.1233 19.5109C68.2243 19.1086 68.3254 18.8069 68.4265 18.5052C68.7297 17.2983 69.0329 16.3932 69.8415 15.8903C71.5597 14.784 74.1876 15.6892 76.1079 18.1029C78.1294 20.9189 78.4326 23.6343 76.8154 25.0423C76.1079 25.6457 75.1983 25.6457 74.0865 25.6457C73.6822 25.6457 73.2779 25.6457 72.8736 25.7463C74.1876 27.6572 75.2994 30.0709 76.3101 32.9874L77.9272 32.8869C78.0283 29.9703 79.2412 27.7577 81.1615 27.2549C83.9915 26.752 86.6194 29.6686 87.5291 34.1943C88.1355 36.8092 87.8361 39.5246 86.7205 41.1337C86.114 42.0389 85.4065 42.5417 84.4969 42.7429C82.4755 43.2457 80.454 41.7372 79.1401 38.9212L77.5229 39.5246C77.7251 40.5303 77.8262 41.7372 77.8262 42.8434C77.8262 44.5532 77.7251 46.2629 77.4219 47.7714C78.7358 45.4583 80.353 44.8549 81.5658 45.1566C82.1722 45.2572 82.7787 45.5589 83.183 46.1623C83.9915 47.3692 84.3958 49.28 83.9915 51.392C83.3851 53.6046 82.3744 55.3143 81.0605 56.0183C80.353 56.4206 79.6454 56.5212 78.9379 56.32C76.9165 55.9177 76.8154 53.4034 76.8154 52.1966C76.7144 52.1966 76.6133 52.096 76.4111 52.096C75.4004 55.1132 74.0865 58.0297 72.3683 60.7452L73.4801 61.8514C75.8047 60.1417 78.3315 59.6389 79.9487 60.6446C80.7572 61.3486 81.1615 62.4549 81.1615 63.7623C81.1615 65.6732 80.353 67.8857 78.7358 69.8972C77.2197 72.0092 75.0972 73.4172 73.0758 73.7189C71.964 73.92 70.9533 73.7189 70.1447 73.1154C70.1447 73.1154 70.1447 73.1154 70.0436 73.1154C69.134 72.4114 68.6286 71.2046 68.5275 69.9977C68.4265 68.8914 68.8308 67.6846 69.4372 66.6789L68.1233 65.9749C66.2029 68.0869 63.7772 69.9977 61.2504 71.5063C63.2718 71.5063 64.7879 72.1097 65.2932 73.4172C65.5965 74.0206 65.5965 74.8252 65.2932 75.5292C64.7879 76.9372 63.2718 78.2446 61.4525 79.0492C59.5321 79.8537 57.6118 80.0549 56.2978 79.552C55.5903 79.2503 55.085 78.7474 54.7818 78.144C54.2764 77.1383 54.4786 75.5292 55.8936 74.2217C55.7925 74.1212 55.7925 74.1212 55.6914 74.0206C53.5689 74.9257 50.84 75.5292 48.01 75.8309L47.8078 77.3394C50.7389 78.0434 52.6593 79.7532 52.6593 81.8652C52.7603 83.9772 49.425 85.9886 44.9778 85.9886M43.7649 75.328L44.1692 78.3452C42.0467 78.848 39.1156 79.6526 39.1156 81.2617C39.1156 82.5692 41.6424 83.9772 45.0789 83.9772C48.5153 83.9772 50.84 82.5692 50.84 81.2617C50.84 80.0549 49.1217 78.848 46.7971 78.5463L45.7864 78.4457L46.1907 75.328L43.7649 75.328M58.2182 73.0149C58.4204 73.3166 58.5214 73.6183 58.5214 73.92C58.5214 74.3223 58.2182 74.7246 57.915 75.0263C56.9043 75.7303 56.7021 76.5349 56.8032 76.9372C56.8032 77.0377 56.9043 77.2389 57.2075 77.3394C58.0161 77.6412 59.4311 77.44 60.8461 76.8366C62.3622 76.2332 63.3729 75.2274 63.575 74.5234C63.6761 74.3223 63.6761 74.1212 63.575 73.92C63.474 73.6183 63.0697 73.4172 62.5643 73.3166L60.8461 73.4172L59.8354 72.3109C59.33 72.512 58.7236 72.7132 58.2182 73.0149M27.7956 73.216C27.0881 73.216 26.5827 73.4172 26.3806 73.8194C26.2795 73.92 26.3806 74.1212 26.4816 74.4229C26.7849 75.1269 27.6945 76.2332 29.2106 76.8366C30.5245 77.44 32.0406 77.6412 32.8492 77.3394C33.1524 77.2389 33.2535 77.0377 33.2535 76.9372C33.3545 76.736 33.1524 75.8309 32.2427 74.8252L30.8277 74.2217C30.7267 74.2217 30.6256 74.1212 30.6256 74.1212L28.8063 73.3166C28.3009 73.216 27.9977 73.216 27.7956 73.216M35.9824 72.2103C37.7006 72.7132 39.5199 73.1154 41.5414 73.3166L48.5153 73.3166C51.2443 73.0149 53.7711 72.4114 55.7925 71.5063L59.7343 69.8972C62.6654 68.288 65.4954 66.0754 67.6179 63.6617L70.4479 60.1417C72.3683 57.3257 73.8844 54.208 74.8951 50.9897C75.1983 49.984 75.1983 49.6823 75.2994 49.3806C75.4004 48.9783 75.4004 48.576 75.5015 48.1737C75.9058 46.0617 76.1079 44.352 76.1079 42.5417C76.1079 41.6366 76.0069 40.7314 75.9058 39.9269C75.8047 38.9212 75.8047 38.8206 75.8047 38.8206L74.9961 34.1943C73.8844 30.4732 72.4693 27.7577 70.8522 25.6457L68.2243 21.9246C66.0007 19.5109 63.474 17.4994 60.9472 15.9909L61.7557 10.56C65.0911 11.5657 67.1125 11.264 67.6179 10.1577C68.0222 9.15202 66.6072 6.63773 63.3729 5.22973C61.3514 4.22402 59.1279 4.02287 57.8139 4.52573C57.3086 4.72687 57.0054 4.92802 56.9043 5.3303C56.2978 6.23544 57.2075 8.04573 59.33 9.45373L57.6118 14.08C53.0635 12.4709 50.0314 11.8674 46.9992 11.8674L42.2489 11.8674C42.1478 11.8674 42.0467 11.8674 42.0467 11.8674C38.6103 12.2697 35.9824 12.9737 33.6578 13.9794L29.9181 15.6892C29.817 15.7897 29.6149 15.7897 29.5138 15.8903L28.402 16.4937C26.1784 17.9017 24.0559 19.712 22.0345 21.824L19.0023 25.8469C17.4863 28.0594 16.2734 30.7749 15.4648 34.0937L14.4541 38.72L14.252 39.9269C14.1509 40.832 14.0498 41.6366 14.0498 42.4412C14.0498 44.1236 14.252 45.8606 14.5552 47.2686L15.5659 51.6937C16.3745 54.208 17.4863 56.6217 19.0023 59.0354C20.5184 61.1474 21.4281 62.3543 22.4388 63.5612C24.7634 66.0754 26.5827 67.4834 28.6042 68.6903L30.1202 69.3943C31.6363 70.1989 32.8492 70.8023 34.3653 71.3052L36.1845 72.0092M71.5597 71.104C71.964 71.4057 72.5704 71.4057 72.9747 71.3052C74.0865 71.104 75.9058 70.1989 77.3208 68.288C78.7358 66.4777 79.3422 64.6674 79.3422 63.36C79.3422 62.656 79.1401 62.1532 78.8369 61.952C78.0283 61.4492 76.4111 61.8514 74.794 63.0583C74.1876 63.6617 74.0865 63.7623 73.9854 63.9634L72.0651 66.5783C71.964 66.6789 71.8629 66.7794 71.7618 66.88C70.6501 68.992 70.8522 70.6012 71.5597 71.104M12.0284 61.6503C11.7252 61.6503 11.4219 61.7509 11.2198 61.8514C10.2091 62.656 10.6134 65.472 12.6348 68.1874C14.0498 69.8972 15.768 71.104 17.183 71.3052C17.6884 71.4057 18.0927 71.3052 18.3959 71.0034C19.3055 70.2994 19.1034 68.288 17.8905 66.176L19.912 63.8629L18.497 61.952L16.8798 63.36L15.5659 63.2594C14.1509 62.1532 12.8369 61.6503 12.0284 61.6503M69.7404 63.9634L70.7511 64.5669C70.9533 64.2652 71.1554 63.9634 71.3576 63.6617C71.6608 63.2594 71.7618 63.0583 71.964 62.8572C70.7511 62.656 70.2458 63.1589 69.8415 63.7623C69.8415 63.8629 69.8415 63.9634 69.7404 63.9634M8.89515 46.8663C8.59193 46.8663 8.38979 47.168 8.28872 47.2686C7.88443 47.872 7.58121 49.28 7.9855 50.7886C8.38979 52.3977 8.99622 53.6046 9.70372 54.1074C9.90587 54.208 10.108 54.208 10.2091 54.208C10.6134 54.1074 11.1187 53.504 11.2198 51.8949C11.1187 51.5932 11.1187 51.4926 11.1187 51.4926L10.8155 50.1852C10.8155 50.1852 10.8155 50.0846 10.8155 50.0846C10.7144 49.8834 10.7144 49.6823 10.7144 49.4812L10.4112 48.3749C10.0069 47.4697 9.40051 46.8663 8.89515 46.8663M76.9165 49.7829C78.2304 50.1852 78.9379 50.4869 78.8369 51.4926C78.7358 53.2023 79.039 53.9063 79.3422 54.0069C79.4433 54.0069 79.6454 54.1074 79.9487 53.9063C80.5551 53.6046 81.3637 52.4983 81.869 50.5874C82.1722 48.9783 81.869 47.5703 81.3637 46.9669C81.2626 46.8663 81.1615 46.7657 81.0605 46.7657C80.454 46.6652 79.8476 47.2686 79.5444 48.2743C79.3422 48.8777 78.5337 49.5817 77.8262 49.4812M80.353 36.0046C81.4647 39.2229 82.8797 40.6309 83.9915 40.4297C84.3958 40.3292 84.699 40.128 85.0023 39.7257C85.8108 38.5189 86.013 36.4069 85.5076 34.2949C84.8001 30.6743 82.8797 28.6629 81.5658 28.9646C80.6562 29.1657 79.7465 30.7749 79.9487 33.3897L80.0497 34.3954L76.9165 34.6972C77.1187 35.5017 77.2197 36.3063 77.3208 37.1109L80.353 36.0046M7.88443 28.7634C6.67157 28.7634 4.85227 30.8754 4.14477 34.1943C3.63941 36.4069 3.84155 38.4183 4.65013 39.6252C4.95334 40.0274 5.25656 40.3292 5.55978 40.3292C6.57049 40.5303 8.08657 39.3234 8.99622 36.9097C8.99622 36.8092 8.99622 36.7086 8.99622 36.5074C8.89515 36.2057 8.89515 35.8034 8.99622 35.3006C8.99622 34.6972 9.40051 34.2949 9.60265 33.8926C9.60265 33.792 9.70372 33.792 9.70372 33.792L9.70372 32.2834C9.60265 30.1714 8.79407 29.0652 8.08657 28.864C7.9855 28.7634 7.9855 28.7634 7.88443 28.7634M11.2198 36.608L12.4327 37.1109C12.5337 36.3063 12.6348 35.4012 12.8369 34.6972L11.7252 34.5966L11.2198 36.608M69.7404 20.8183C70.3468 21.5223 70.8522 22.2263 71.4586 22.9303C71.5597 23.1314 71.7618 23.3326 71.8629 23.4332C72.6715 23.3326 73.4801 23.3326 74.0865 23.3326C74.794 23.3326 75.4004 23.3326 75.6026 23.1314C76.209 22.6286 76.0069 20.9189 74.5919 19.008C73.2779 17.3989 71.6608 16.7954 71.0543 17.1977C70.8522 17.2983 70.6501 18.1029 70.4479 18.7063C70.2458 19.3097 70.0436 20.0137 69.7404 20.8183M13.9487 23.1314C14.252 23.232 14.9595 23.1314 15.9702 22.528C16.2734 21.824 16.3745 21.3212 16.7788 20.7177C17.183 20.2149 17.4863 20.0137 17.7895 19.8126C17.9916 19.712 18.0927 19.6114 18.1938 19.5109C18.9013 18.2034 18.6991 17.2983 18.3959 16.9966C17.9916 16.6949 16.2734 17.0972 14.8584 18.8069C13.7466 20.8183 13.5445 22.528 13.9487 23.1314M28.402 10.4594L29.3117 13.376C30.0192 12.9737 30.7267 12.5714 31.4342 12.2697L29.9181 9.85602C32.8492 7.94516 33.8599 6.13487 33.4556 5.3303C32.7481 3.9223 29.7159 3.82173 26.7849 5.22973C24.7634 6.23544 23.0452 7.74402 22.6409 9.15202C22.5398 9.5543 22.5398 9.95659 22.6409 10.1577C23.1463 11.264 25.0666 11.4652 27.4924 10.8617M44.1692 4.42516C42.0467 4.42516 40.4296 5.53144 40.4296 6.0343C40.4296 6.33602 41.036 6.93944 42.451 7.24116L43.0574 9.35316C43.6639 9.35316 44.1692 9.35316 44.7981 9.35316L45.9885 9.35316C46.3928 8.54859 46.7971 8.04573 47.1003 7.54287C47.5046 6.83887 47.8078 6.33602 47.8078 6.0343C47.9089 5.43087 46.4939 4.42516 44.1692 4.42516M49.0207 66.3772C46.7971 66.3772 44.9778 64.6674 44.9778 62.5554C44.9778 60.3429 46.7971 58.5326 49.0207 58.5326C51.2443 58.5326 52.8614 60.2423 52.8614 62.5554C52.8614 64.768 51.2443 66.3772 49.0207 66.3772M49.0207 60.544C48.01 60.544 46.9992 61.248 46.9992 62.5554C46.9992 63.5612 47.9089 64.3657 49.0207 64.3657C50.0314 64.3657 50.84 63.5612 50.84 62.5554C50.84 61.3486 50.1325 60.544 49.0207 60.544M34.9717 63.4606C33.0513 63.4606 31.5352 61.952 31.5352 60.0412C31.5352 58.0297 33.1524 56.4206 34.9717 56.4206C36.9931 56.4206 38.6103 58.0297 38.6103 60.0412C38.6103 61.952 37.0942 63.4606 34.9717 63.4606M34.9717 58.432C34.2642 58.432 33.5567 59.136 33.5567 60.0412C33.5567 60.9463 34.062 61.4492 34.9717 61.4492C35.7803 61.4492 36.5888 60.9463 36.5888 60.0412C36.5888 59.2366 35.8813 58.432 34.9717 58.432M61.5536 60.3429C58.7236 60.3429 56.1968 57.8286 56.1968 55.0126C56.1968 52.096 58.6225 49.6823 61.5536 49.6823C64.5857 49.6823 66.9104 51.9954 66.9104 55.0126C66.9104 58.0297 64.5857 60.3429 61.5536 60.3429M61.5536 51.6937C59.9364 51.6937 58.2182 53.0012 58.2182 55.0126C58.2182 56.7223 59.8354 58.3314 61.5536 58.3314C63.3729 58.3314 64.889 56.8229 64.889 55.0126C64.889 53.1017 63.575 51.6937 61.5536 51.6937M43.4617 56.0183C40.0253 56.0183 37.2963 53.3029 37.2963 49.8834C37.2963 46.2629 39.9242 43.5474 43.4617 43.5474C46.9992 43.5474 49.8292 46.3634 49.8292 49.8834C49.8292 53.4034 47.1003 56.0183 43.4617 56.0183M43.4617 45.5589C41.036 45.5589 39.3178 47.3692 39.3178 49.8834C39.3178 52.1966 41.1371 54.0069 43.4617 54.0069C45.8874 54.0069 47.8078 52.1966 47.8078 49.8834C47.8078 47.4697 45.9885 45.5589 43.4617 45.5589M22.5398 50.688C19.912 50.688 17.5873 48.3749 17.5873 45.76C17.5873 43.1452 19.7098 40.9326 22.5398 40.832C25.3699 40.832 27.4924 42.944 27.4924 45.76C27.4924 48.4754 25.3699 50.688 22.5398 50.688M22.5398 42.8434C20.9227 42.944 19.6088 44.1236 19.6088 45.76C19.6088 47.2686 21.0238 48.6766 22.5398 48.6766C24.157 48.6766 25.4709 47.3692 25.4709 45.76C25.4709 44.1236 24.3591 42.8434 22.5398 42.8434M58.9257 42.7429C56.0957 42.7429 53.7711 40.4297 53.7711 37.6137C53.7711 34.5966 55.9946 32.2834 58.9257 32.2834C61.9579 32.2834 64.2825 34.5966 64.2825 37.6137C64.2825 40.5303 61.9579 42.7429 58.9257 42.7429M58.9257 34.2949C57.1064 34.2949 55.7925 35.7029 55.7925 37.6137C55.7925 39.3234 57.2075 40.7314 58.9257 40.7314C60.8461 40.7314 62.2611 39.3234 62.2611 37.6137C62.2611 35.7029 60.9472 34.2949 58.9257 34.2949M40.5306 41.4354C38.3071 41.4354 36.4878 39.7257 36.4878 37.6137C36.4878 35.4012 38.3071 33.5909 40.5306 33.5909C42.7542 33.5909 44.3714 35.3006 44.3714 37.6137C44.3714 39.8263 42.7542 41.4354 40.5306 41.4354M40.5306 35.6023C39.5199 35.6023 38.5092 36.3063 38.5092 37.6137C38.5092 38.6194 39.4188 39.424 40.5306 39.424C41.5414 39.424 42.3499 38.6194 42.3499 37.6137C42.3499 36.4069 41.6424 35.6023 40.5306 35.6023M26.5827 30.7749C25.0666 30.7749 23.5506 29.2663 23.5506 27.7577C23.5506 26.2492 24.9656 24.9417 26.5827 24.9417C28.0988 24.9417 29.4127 26.2492 29.4127 27.7577C29.5138 29.3669 28.0988 30.7749 26.5827 30.7749M26.5827 26.9532C26.0774 26.9532 25.572 27.3554 25.572 27.7577C25.572 28.16 26.1784 28.7634 26.5827 28.7634C26.987 28.7634 27.3913 28.2606 27.3913 27.7577C27.4924 27.3554 27.0881 26.9532 26.5827 26.9532M65.1922 30.5737C63.2718 30.5737 61.7557 28.9646 61.7557 26.9532C61.7557 25.0423 63.2718 23.5337 65.1922 23.5337C67.2136 23.5337 68.8308 25.0423 68.8308 26.9532C68.8308 28.9646 67.2136 30.5737 65.1922 30.5737M65.1922 25.5452C64.2825 25.5452 63.7772 26.048 63.7772 26.9532C63.7772 27.7577 64.2825 28.5623 65.1922 28.5623C66.1018 28.5623 66.8093 27.8583 66.8093 26.9532C66.8093 26.1486 66.0007 25.5452 65.1922 25.5452M49.7282 29.0652C47.1003 29.0652 44.9778 26.9532 44.9778 24.3383C44.9778 21.7234 47.1003 19.6114 49.7282 19.6114C52.356 19.6114 54.4786 21.7234 54.4786 24.3383C54.4786 26.9532 52.356 29.0652 49.7282 29.0652M49.7282 21.6229C48.2121 21.6229 46.9992 22.8297 46.9992 24.3383C46.9992 25.8469 48.2121 27.0537 49.7282 27.0537C51.2443 27.0537 52.4571 25.8469 52.4571 24.3383C52.4571 22.8297 51.3453 21.6229 49.7282 21.6229M37.7006 23.6343C35.477 23.6343 33.6578 21.9246 33.6578 19.8126C33.6578 18.7063 34.1631 17.6 34.9717 16.7954C35.7803 16.0914 36.791 15.6892 37.8017 15.7897C39.7221 15.7897 41.5414 17.7006 41.5414 19.8126C41.6424 21.9246 39.8231 23.6343 37.7006 23.6343M37.5996 17.8012C37.0942 17.8012 36.6899 18.0023 36.3867 18.304C35.9824 18.7063 35.6792 19.3097 35.6792 19.8126C35.6792 20.8183 36.5888 21.6229 37.7006 21.6229C38.5092 21.6229 39.5199 20.8183 39.5199 19.8126C39.5199 18.7063 38.5092 17.8012 37.7006 17.8012C37.7006 17.8012 37.7006 17.8012 37.5996 17.8012"/>
</svg>
