<?xml version="1.0" encoding="utf-8" ?>
<svg xmlns="http://www.w3.org/2000/svg" xmlns:xlink="http://www.w3.org/1999/xlink" width="100" height="74">
	<path fill="white" d="M48.8325 73.0864C48.6294 72.9849 28.5279 59.4842 17.5635 45.3745C15.533 42.8368 13.8071 40.1975 12.4873 37.4568L0 36.8477L0 30.7572L9.84772 30.7572L9.54315 29.5391C8.52792 25.2757 8.62944 21.2154 9.54315 17.561C11.5736 10.1509 17.3604 4.46639 26.4975 1.01509C28.4264 0.406036 30.9645 0 33.9086 0C38.4772 0 44.9746 1.1166 49.7462 6.49657L51.269 6.49657C54.0102 3.55281 58.8832 0 66.802 0C69.0355 0 71.4721 0.304527 73.9086 0.812071C82.8426 3.95885 88.8325 9.74486 91.066 17.155C92.1827 21.0123 92.2843 25.0727 91.3706 29.3361L91.066 30.5542L100 31.0617L99.6954 37.1523L88.934 36.5432C87.3096 39.893 85.5838 42.6337 83.4518 45.273C67.3096 63.2401 52.2843 72.8834 52.0812 72.9849L50.4569 74L48.8325 73.0864"/>
	<path fill="#FF6F64" d="M50.3553 13.2352C50.3553 13.2352 54.7207 -0.36701 73.0964 3.69335C89.6446 9.47936 94.5177 25.8223 80.9136 43.2818C64.9746 61.0459 50.3553 70.2832 50.3553 70.2832C50.3553 70.2832 30.5583 57.087 19.7969 43.2818C8.83242 29.6796 6.80197 11.5095 27.4111 3.69335C27.5126 3.69335 44.1624 -1.07757 50.3553 13.2352"/>
	<path fill="#2D1B0A" d="M50.3224 71.4623C49.6446 70.9547 29.7461 57.657 19.0862 43.8518C12.0811 35.2236 9.33999 25.6817 11.472 17.8655C13.2994 11.1659 18.6801 5.88749 27.208 2.6392C30.4567 1.7509 44.0608 -0.71059 50.4567 10.7599C52.5887 6.90258 58.8831 -0.71059 73.4009 2.5377C81.5227 5.37995 87.005 10.6584 89.0354 17.4595C91.3704 25.3772 88.8324 34.716 81.7258 43.7503C65.7867 61.5144 51.0659 70.8532 50.8628 70.9547M27.7156 4.66938C19.7968 7.71465 15.0253 12.2826 13.2994 18.4746C11.3704 25.6817 14.01 34.513 20.609 42.6337C30.1522 54.9163 47.1065 66.7928 50.3224 69.026C53.1979 67.1989 66.1928 58.0631 80.1014 42.5322C86.7004 34.107 89.1369 25.4787 87.005 18.1701C85.1776 11.978 80.1014 7.20711 72.7918 4.56787C55.5329 0.812045 51.472 12.8916 51.2689 13.3992L50.4567 15.9369L49.34 13.5007C44.1623 1.31959 30.4567 3.95882 27.7156 4.66938"/>
	<path fill="#2D1B0A" d="M55.1269 46.0849L52.3858 20.8093L50.1524 40.7051L47.4113 31.5692L46.193 34.4114L40.7107 34.6144L37.6651 40.096L35.736 32.8889L34.4162 45.9834L32.4874 45.9834L30.3554 24.0575L28.4265 40.5019L25.3808 30.9601L23.3503 34.716L1.82745 34.6144L1.82745 32.5843L22.132 32.6858L25.8883 25.7831L27.5128 30.8587L29.0355 18.17L31.8783 18.373L33.5026 35.3251L34.0102 29.1329L36.7514 28.93L38.3756 34.716L39.3909 32.6858L44.8731 32.4827L47.7158 25.3771L49.2387 30.5541L51.0661 15.0232L53.8071 15.0232L55.9391 35.3251L56.5482 28.5239L59.1879 28.3209L61.1167 34.3099L62.4366 32.1782L69.2387 32.1782L70.4569 37.0506L73.8072 24.3621L76.5483 32.1782L86.193 32.1782L97.7666 32.7873L97.6651 34.8175L86.4976 34.2085L75.0255 34.2085L74.1118 31.3661L70.4569 45.0699L67.7158 34.2085L63.5533 34.2085L60.4062 39.0808L58.2742 32.2798L57.0559 46.0849"/>
</svg>
