<?xml version="1.0" encoding="utf-8" ?>
<svg xmlns="http://www.w3.org/2000/svg" xmlns:xlink="http://www.w3.org/1999/xlink" width="78" height="102">
	<path fill="#2D1B0A" d="M6.27182 100.59C3.64174 100.59 1.51745 98.4758 1.51745 95.8578L1.51745 5.73938C1.51745 3.12141 3.64174 1.0069 6.27182 1.0069L72.3271 1.0069C74.9572 1.0069 77.0816 3.12141 77.0816 5.73938L77.0816 95.8578C77.0816 98.4758 74.9572 100.59 72.3271 100.59L6.27182 100.59"/>
	<path fill="white" d="M72.0285 0L5.96866 0C2.63026 0 0 2.61797 0 5.94077L0 96.0592C0 99.382 2.63026 102 5.96866 102L72.0285 102C75.3669 102 78 99.382 78 96.0592L78 5.94077C78.0983 2.61797 75.4681 0 72.0285 0M75.6704 96.1599C75.6704 98.0731 73.9506 99.7848 72.0285 99.7848L5.96866 99.7848C4.04655 99.7848 2.32676 98.0731 2.32676 96.1599L2.32676 6.04146C2.32676 4.12833 4.04655 2.41658 5.96866 2.41658L72.0285 2.41658C73.9506 2.41658 75.6704 4.12833 75.6704 6.04146L75.6704 96.1599"/>
	<path fill="white" d="M7.4858 11.2774L71.1156 11.2774L71.1156 86.5944L7.4858 86.5944L7.4858 11.2774"/>
	<path fill="white" d="M42.3383 92.7364C42.3383 94.5715 40.8437 96.0592 39 96.0592C37.1563 96.0592 35.6617 94.5715 35.6617 92.7364C35.6617 90.9013 37.1563 89.4136 39 89.4136C40.8437 89.4136 42.3383 90.9013 42.3383 92.7364"/>
	<path fill="white" d="M28.1225 8.35735L49.265 8.35735C49.9731 8.35735 50.6813 7.65252 50.6813 6.94768C50.6813 5.73939 49.9731 5.03455 49.265 5.03455L28.1225 5.03455C27.4144 5.03455 26.7063 5.73939 26.7063 6.44422C26.7063 7.65252 27.4144 8.35735 28.1225 8.35735"/>
	<path fill="#FF6F64" d="M55.2316 63.2338L60.694 41.3839L27.9192 41.3839L27.9192 43.3978L33.584 43.3978L34.3933 50.6475L25.7949 50.6475L21.5464 33.53L13.0492 33.53L13.0492 35.5439L19.9279 35.5439L26.7054 62.6297C25.6938 63.3345 24.9857 64.4421 24.9857 65.8519C24.9857 67.9663 26.7054 69.6781 28.8296 69.6781C30.9539 69.6781 32.6736 67.9663 32.6736 65.8519C32.6736 64.9456 32.3701 64.1402 31.7632 63.4352L49.7691 63.4352C49.1622 64.1402 48.7575 65.0463 48.7575 66.0533C48.7575 68.1677 50.4772 69.8795 52.6015 69.8795C54.7258 69.8795 56.4454 68.1677 56.4454 66.0533C56.5466 64.9456 56.0408 63.9388 55.2316 63.2338M47.2402 52.6613L55.9397 52.6613L53.7142 61.4214L46.3298 61.4214L47.2402 52.6613M44.2055 61.4214L37.8326 61.4214L36.821 52.6613L45.217 52.6613L44.2055 61.4214M56.3443 50.6475L47.4425 50.6475L48.2517 43.3978L58.1651 43.3978L56.3443 50.6475M35.7083 43.3978L46.2286 43.3978L45.4194 50.6475L36.6187 50.6475L35.7083 43.3978M34.6967 52.6613L35.7083 61.4214L28.6273 61.4214L26.4019 52.6613L34.6967 52.6613M28.9308 67.6644C27.9192 67.6644 27.11 66.8587 27.11 65.8519C27.11 64.8449 27.9192 64.0394 28.9308 64.0394C29.9424 64.0394 30.7516 64.8449 30.7516 65.8519C30.7516 66.8587 29.9424 67.6644 28.9308 67.6644M52.7026 67.8656C51.6911 67.8656 50.8818 67.0602 50.8818 66.0533C50.8818 65.0463 51.6911 64.2408 52.7026 64.2408C53.7142 64.2408 54.5235 65.0463 54.5235 66.0533C54.5235 67.0602 53.7142 67.8656 52.7026 67.8656"/>
</svg>
