<?xml version="1.0" encoding="utf-8" ?>
<svg xmlns="http://www.w3.org/2000/svg" xmlns:xlink="http://www.w3.org/1999/xlink" width="108" height="90">
	<path fill="#FFFDFD" d="M70.3256 90L70.3256 87.297C70.3256 83.0923 63.293 78.3871 54 78.3871C44.6065 78.3871 37.574 82.9922 37.574 87.297L37.574 90L29.7377 90L29.7377 87.297C29.7377 83.4928 31.4456 79.8888 34.4595 77.0857L9.14233 77.0857C4.11907 77.0857 0 72.881 0 67.5751L0 9.51057C0 4.20467 4.0186 0 9.14233 0L98.8577 0C103.881 0 108 4.20467 108 9.51057L108 67.5751C108 72.881 103.981 77.0857 98.8577 77.0857L73.5405 77.0857C76.5544 79.9889 78.2623 83.4928 78.2623 87.297L78.2623 90L70.3256 90"/>
	<path fill="#2D1B0A" d="M98.8577 74.5828L9.14233 74.5828C5.52559 74.5828 2.6121 71.5795 2.6121 67.7753L2.6121 9.71076C2.6121 5.90654 5.42512 2.9032 9.14233 2.9032L98.8577 2.9032C102.474 2.9032 105.388 5.90654 105.388 9.71076L105.388 67.7753C105.388 71.5795 102.474 74.5828 98.8577 74.5828"/>
	<path fill="#FFFDFD" d="M99.0562 70.7786L8.93893 70.7786C7.13056 70.7786 5.72405 69.2769 5.72405 67.3748L5.72405 10.1112C5.72405 8.20907 7.13056 6.7074 8.93893 6.7074L99.0562 6.7074C100.865 6.7074 102.276 8.20907 102.276 10.1112L102.276 67.3748C102.276 69.2769 100.865 70.7786 99.0562 70.7786"/>
	<path fill="#2D1B0A" d="M75.6 87.4973L72.9879 87.4973C72.9879 81.1902 64.2474 75.8844 54 75.8844C43.7526 75.8844 35.0121 81.1902 35.0121 87.4973L32.4 87.4973C32.4 79.5885 42.0447 73.1814 54 73.1814C65.9553 73.2815 75.6 79.6886 75.6 87.4973"/>
	<path fill="#FFD05A" d="M68.3163 24.0265L62.389 40.7451L56.6624 24.0265L52.7442 24.0265L49.3284 24.0265L32.3498 24.0265L32.3498 31.1344L39.1815 31.1344L39.1815 54.3602L45.9127 54.3602L45.9127 31.1344L51.6392 31.1344L59.7768 54.3602L64.6996 54.3602L75.9518 24.0265"/>
	<path fill="#2D1B0A" d="M65.4027 55.3614L59.0734 55.3614L51.0362 32.1356L47.0176 32.1356L47.0176 55.3614L38.2772 55.3614L38.2772 32.1356L31.546 32.1356L31.546 23.0255L57.466 23.0255L62.4893 37.6417L67.7134 23.0255L77.4586 23.0255L65.4027 55.3614M60.48 53.3592L63.9962 53.3592L74.4446 25.0277L69.0195 25.0277L62.2883 43.7485L55.8586 25.0277L33.3544 25.0277L33.3544 30.1334L40.0855 30.1334L40.0855 53.3592L44.8074 53.3592L44.8074 30.1334L52.2418 30.1334L60.48 53.3592"/>
</svg>
