<?xml version="1.0" encoding="utf-8" ?>
<svg xmlns="http://www.w3.org/2000/svg" xmlns:xlink="http://www.w3.org/1999/xlink" width="106" height="76">
	<path fill="white" d="M9.56391 76C4.28383 76 0 71.6943 0 66.3874L0 63.3834L8.66729 63.3834L8.66729 8.01054C8.66729 3.50461 11.7556 0 15.7406 0L88.8647 0C92.8496 0 95.938 3.50461 95.938 8.01054L95.938 63.3834L106 63.3834L106 66.3874C106 71.6943 101.716 76 96.4361 76L9.56391 76"/>
	<path fill="white" d="M92.9492 61.3808C92.9492 64.1845 91.1561 66.3874 88.8647 66.3874L15.7406 66.3874C13.4493 66.3874 11.656 64.1845 11.656 61.3808L11.656 8.01059C11.656 5.2069 13.4493 3.004 15.7406 3.004L88.8647 3.004C91.1561 3.004 92.9492 5.2069 92.9492 8.01059L92.9492 61.3808"/>
	<path fill="#2D1B0A" d="M88.8647 67.3887L15.7406 67.3887C12.8515 67.3887 10.6598 64.7853 10.6598 61.3808L10.6598 8.01061C10.6598 4.60613 12.8515 2.0027 15.7406 2.0027L88.8647 2.0027C91.7538 2.0027 93.9455 4.60613 93.9455 8.01061L93.9455 61.3808C93.9455 64.7853 91.7538 67.3887 88.8647 67.3887M15.7406 4.00534C13.9474 4.00534 12.6523 5.70757 12.6523 8.01061L12.6523 61.3808C12.6523 63.6839 13.9474 65.3861 15.7406 65.3861L88.8647 65.3861C90.6579 65.3861 91.953 63.6839 91.953 61.3808L91.953 8.01061C91.953 5.70757 90.6579 4.00534 88.8647 4.00534L15.7406 4.00534"/>
	<path fill="#EFEFEF" d="M14.8441 6.80905L89.1636 6.80905L89.1636 60.68L14.8441 60.68L14.8441 6.80905"/>
	<path fill="#2D1B0A" d="M96.3863 72.996L9.61374 72.996C5.92765 72.996 3.03855 69.9921 3.03855 66.3874L102.961 66.3874C102.961 70.0922 100.072 72.996 96.3863 72.996"/>
	<path fill="#2D1B0A" d="M96.3863 73.9974L9.61373 73.9974C5.42952 73.9974 2.0423 70.5929 2.0423 66.3874L2.0423 65.386L103.957 65.386L103.957 66.3874C103.957 70.5929 100.57 73.9974 96.3863 73.9974M4.13441 67.3887C4.63253 69.9921 6.92388 71.9947 9.61373 71.9947L96.3863 71.9947C99.1758 71.9947 101.467 69.9921 101.866 67.3887L4.13441 67.3887"/>
	<path fill="#E63B56" d="M60.0734 26.3347C55.8892 26.3347 52.7012 31.0408 52.7012 31.0408C52.7012 31.0408 49.6129 26.3347 45.329 26.3347C41.1448 26.3347 37.658 29.8393 37.4493 34.0448C37.4493 36.448 38.0565 38.2504 39.1523 39.9525C41.3441 43.257 50.8084 51.1674 52.8008 51.1674C54.7933 51.1674 64.158 43.257 66.3497 39.9525C67.4456 38.2504 68.2426 36.448 68.0739 34.0448C67.7445 29.8393 64.2576 26.3347 60.0734 26.3347"/>
	<path fill="#2D1B0A" d="M52.7105 52.1686C50.1188 52.1686 40.4498 43.7576 38.2568 40.4532C36.8612 38.2503 36.3522 36.2477 36.3522 33.9447C36.6619 29.0382 40.5494 25.2332 45.2345 25.2332C48.7233 25.2332 51.4147 27.7365 52.7105 29.2385C54.0064 27.7365 56.7975 25.2332 60.0869 25.2332C64.772 25.2332 68.7592 29.0382 68.9822 33.9447C69.1579 36.8485 68.0614 38.9513 67.0646 40.4532C64.9713 43.7576 55.3022 52.1686 52.7105 52.1686M45.2345 27.336C41.6459 27.336 38.5558 30.3399 38.3565 34.1449C38.2568 35.9473 38.7552 37.6495 39.9514 39.4519C42.0447 42.6561 51.1156 50.0659 52.7105 50.2661C54.3054 50.166 63.2767 42.8564 65.4697 39.4519C66.6659 37.6495 67.1643 36.0474 67.0646 34.1449C66.8653 30.4401 63.7751 27.336 60.1866 27.336C56.5981 27.336 53.6077 31.5415 53.6077 31.5415L52.8102 32.7431L52.0128 31.5415C51.8134 31.4414 49.0223 27.336 45.2345 27.336"/>
	<path fill="#2D1B0A" d="M71.6297 29.3386L69.8365 28.4374C70.6335 26.9355 70.235 25.5336 68.8403 24.332C67.3459 23.1305 65.1542 24.2319 65.0546 24.2319L64.0583 22.4295C64.0583 22.3294 67.4455 20.6272 70.0358 22.7299C72.2351 24.5323 72.8252 27.0356 71.6297 29.3386"/>
	<path fill="#2D1B0A" d="M75.5151 29.639L73.7218 28.7378C75.2161 25.6337 74.5189 22.6298 71.829 20.3267C68.9399 17.8235 65.0545 20.0264 64.8553 20.1265L63.8591 18.4242C64.0583 18.3241 69.1391 15.4203 73.1241 18.8248C76.5114 21.8287 77.408 25.7339 75.5151 29.639"/>
</svg>
