<?xml version="1.0" encoding="utf-8" ?>
<svg xmlns="http://www.w3.org/2000/svg" xmlns:xlink="http://www.w3.org/1999/xlink" width="60" height="98">
	<path fill="white" d="M10.183 98C4.59235 98 0 93.4047 0 87.8104L0 10.1896C0 4.59531 4.59235 0 10.183 0L49.817 0C55.4077 0 60 4.59531 60 10.1896L60 87.8104C60 93.4047 55.4077 98 49.817 98L10.183 98"/>
	<path fill="#353951" d="M49.6172 93.9043L9.98328 93.9043C6.58894 93.9043 3.7936 91.107 3.7936 87.7105L3.7936 10.0897C3.7936 6.6932 6.58894 3.89605 9.98328 3.89605L49.6172 3.89605C53.0116 3.89605 55.8069 6.6932 55.8069 10.0897L55.8069 87.7105C55.8069 91.107 53.0116 93.9043 49.6172 93.9043"/>
	<path fill="#2D1B0A" d="M49.6171 95.4027L9.98319 95.4027C5.79018 95.4027 2.296 92.0062 2.296 87.7105L2.296 10.0898C2.296 5.89403 5.69034 2.3976 9.98319 2.3976L49.6171 2.3976C53.8101 2.3976 57.3043 5.79413 57.3043 10.0898L57.3043 87.7105C57.3043 91.9063 53.8101 95.4027 49.6171 95.4027M9.98319 5.49444C7.38751 5.49444 5.29101 7.5923 5.29101 10.1896L5.29101 87.8104C5.29101 90.4078 7.38751 92.5057 9.98319 92.5057L49.6171 92.5057C52.2128 92.5057 54.3093 90.4078 54.3093 87.8104L54.3093 10.1896C54.3093 7.5923 52.2128 5.49444 49.6171 5.49444L9.98319 5.49444"/>
	<path fill="white" d="M32.2463 86.4118C32.2463 87.6256 31.3077 88.6095 30.1498 88.6095C28.9919 88.6095 28.0533 87.6256 28.0533 86.4118C28.0533 85.198 28.9919 84.214 30.1498 84.214C31.3077 84.214 32.2463 85.198 32.2463 86.4118"/>
	<path fill="#2D1B0A" d="M30.1498 89.5086C28.4526 89.5086 27.055 88.1101 27.055 86.3119C27.055 84.6136 28.4526 83.1152 30.1498 83.1152C31.847 83.1152 33.2446 84.5137 33.2446 86.3119C33.2446 88.1101 31.847 89.5086 30.1498 89.5086M30.1498 85.213C29.5508 85.213 29.0516 85.7125 29.0516 86.4118C29.0516 87.0112 29.5508 87.6106 30.1498 87.6106C30.7488 87.6106 31.248 87.1111 31.248 86.4118C31.248 85.7125 30.7488 85.213 30.1498 85.213"/>
	<path fill="white" d="M5.54085 10.6891L54.4594 10.6891L54.4594 78.9195L5.54085 78.9195L5.54085 10.6891"/>
	<path fill="#DDD" d="M38.6354 33.5658L14.3759 33.5658C12.8784 33.5658 11.7802 32.367 11.7802 30.9684C11.7802 29.4699 12.9782 28.371 14.3759 28.371L38.6354 28.371C40.1329 28.371 41.2311 29.5698 41.2311 30.9684C41.2311 32.367 40.0331 33.5658 38.6354 33.5658"/>
	<path fill="#DDD" d="M27.4543 56.7421L15.7737 56.7421C14.2762 56.7421 13.1781 55.5434 13.1781 54.1448C13.1781 52.6463 14.376 51.5475 15.7737 51.5475L27.4543 51.5475C28.9517 51.5475 30.0499 52.7462 30.0499 54.1448C30.0499 55.6433 28.9517 56.7421 27.4543 56.7421"/>
	<path fill="#89C5E5" d="M33.5442 45.054L15.4743 45.054C13.9768 45.054 12.8786 43.8553 12.8786 42.4567C12.8786 40.9582 14.0766 39.8593 15.4743 39.8593L33.5442 39.8593C35.0417 39.8593 36.1398 41.0581 36.1398 42.4567C36.1398 43.8553 34.9418 45.054 33.5442 45.054"/>
	<path fill="#89C5E5" d="M24.0599 65.9327L16.2729 65.9327C14.7754 65.9327 13.6772 64.734 13.6772 63.3354C13.6772 61.8369 14.8752 60.738 16.2729 60.738L24.0599 60.738C25.5574 60.738 26.6556 61.9368 26.6556 63.3354C26.6556 64.734 25.4576 65.9327 24.0599 65.9327"/>
</svg>
