<?xml version="1.0" encoding="utf-8" ?>
<svg xmlns="http://www.w3.org/2000/svg" xmlns:xlink="http://www.w3.org/1999/xlink" width="72" height="88">
	<path fill="white" d="M14.6979 87.8999L13.2083 72.182C12.3145 71.3811 11.4207 70.5802 10.5269 69.7793C7.24966 66.4755 4.66759 62.5711 2.78069 58.2662C0.893793 53.7611 0 49.0557 0 44.1502C0 39.2446 0.993103 34.5392 2.78069 30.0341C4.56828 25.7292 7.15034 21.8248 10.5269 18.521C11.52 17.5199 12.6124 16.6189 13.7048 15.7179L15.1945 0L57.2028 0L58.6924 16.0182C59.6855 16.8191 60.5793 17.62 61.4731 18.521C64.7503 21.8248 67.3324 25.7292 69.2193 30.0341C71.1062 34.5392 72 39.2446 72 44.1502C72 49.0557 71.0069 53.7611 69.2193 58.2662C67.4317 62.5711 64.8497 66.4755 61.4731 69.7793C60.3807 70.8805 59.2883 71.7816 58.0966 72.7827L56.7062 88L14.6979 88"/>
	<path fill="#F3F4F2" d="M5.46207 56.9146C3.77379 52.8099 2.88 48.5051 2.88 44C2.88 39.4949 3.77379 35.1899 5.46207 31.0852C7.15034 27.0807 9.53379 23.5767 12.5131 20.4732C15.4924 17.4698 19.0676 15.067 23.04 13.3651C27.1117 11.6632 31.3821 10.7621 35.851 10.7621C40.32 10.7621 44.5903 11.6632 48.6621 13.3651C52.6345 15.067 56.1103 17.4698 59.189 20.4732C62.1683 23.4766 64.5517 27.0807 66.24 31.0852C67.9283 35.1899 68.8221 39.4949 68.8221 44C68.8221 48.5051 67.9283 52.8099 66.24 56.9146C64.5517 60.9192 62.1683 64.4231 59.189 67.5266C56.2097 70.53 52.6345 72.9328 48.6621 74.6348C44.5903 76.3367 40.32 77.2377 35.851 77.2377C31.3821 77.2377 27.1117 76.3367 23.04 74.6348C19.0676 72.9328 15.5917 70.53 12.5131 67.5266C9.53379 64.4231 7.15034 60.819 5.46207 56.9146"/>
	<path fill="#2D1B0A" d="M35.8509 78.2389C31.2827 78.2389 26.8137 77.3379 22.6427 75.5358C18.5709 73.8339 14.9958 71.3311 11.8178 68.2275C8.73921 65.124 6.25646 61.4198 4.56818 57.3151C2.78059 53.1104 1.8868 48.6052 1.8868 44C1.8868 39.3948 2.78059 34.8897 4.56818 30.6849C6.25646 26.5802 8.73921 22.9761 11.8178 19.7725C14.8965 16.6689 18.5709 14.1661 22.6427 12.4642C26.8137 10.6621 31.2827 9.7611 35.8509 9.7611C40.4192 9.7611 44.8882 10.6621 49.0592 12.4642C53.1309 14.1661 56.7061 16.6689 59.884 19.7725C62.9627 22.876 65.4454 26.5802 67.1337 30.6849C68.9213 34.8897 69.8151 39.3948 69.8151 44C69.8151 48.6052 68.9213 53.1104 67.1337 57.3151C65.4454 61.4198 62.9627 65.0239 59.884 68.2275C56.8054 71.3311 53.1309 73.8339 49.0592 75.5358C44.8882 77.3379 40.4192 78.2389 35.8509 78.2389M6.35577 56.5142C7.94473 60.3186 10.3282 63.8225 13.2082 66.7258C16.1875 69.7292 19.564 72.0319 23.3378 73.6337C27.3102 75.3356 31.4813 76.1365 35.7516 76.1365C40.022 76.1365 44.2923 75.2355 48.1654 73.6337C51.9392 72.0319 55.4151 69.6291 58.2951 66.7258C61.2744 63.7224 63.5585 60.3186 65.1475 56.5142C66.8358 52.5097 67.6302 48.3049 67.6302 44C67.6302 39.6951 66.7365 35.3902 65.1475 31.4858C63.5585 27.6815 61.1751 24.1775 58.2951 21.2742C55.3158 18.2708 51.9392 15.9681 48.1654 14.3663C44.193 12.6644 40.022 11.8635 35.7516 11.8635C31.382 11.8635 27.2109 12.7645 23.3378 14.3663C19.564 15.9681 16.0882 18.3709 13.2082 21.2742C10.2289 24.2776 7.94473 27.6815 6.35577 31.4858C4.66749 35.4903 3.87301 39.6951 3.87301 44C3.87301 48.3049 4.7668 52.5097 6.35577 56.5142"/>
	<path fill="#704C28" d="M35.8014 19.8727C35.2552 19.8727 34.6593 19.3721 34.6593 18.6713L34.6593 12.8647C34.6593 12.264 35.1559 11.6634 35.8014 11.6634C36.4469 11.6634 37.0428 12.1639 37.0428 12.8647L37.0428 18.6713C36.9435 19.272 36.4469 19.8727 35.8014 19.8727M35.8014 76.3369C35.2552 76.3369 34.6593 75.8363 34.6593 75.1355L34.6593 69.3288C34.6593 68.7281 35.1559 68.1275 35.8014 68.1275C36.4469 68.1275 37.0428 68.6281 37.0428 69.3288L37.0428 75.1355C36.9435 75.7362 36.4469 76.3369 35.8014 76.3369M66.7366 45.2015L60.8773 45.2015C60.2814 45.2015 59.6855 44.7008 59.6855 44C59.6855 43.2993 60.1821 42.7988 60.8773 42.7988L66.7366 42.7988C67.3324 42.7988 67.9283 43.2993 67.9283 44C67.9283 44.7008 67.3324 45.2015 66.7366 45.2015M10.7255 45.2015L4.86622 45.2015C4.27036 45.2015 3.6745 44.7008 3.6745 44C3.6745 43.2993 4.17105 42.7988 4.86622 42.7988L10.7255 42.7988C11.3214 42.7988 11.9173 43.2993 11.9173 44C11.9173 44.7008 11.3214 45.2015 10.7255 45.2015M35.5531 45.2015C35.3545 45.2015 35.1559 45.1013 34.9573 45.0012L26.4166 39.6953C25.92 39.3949 25.7214 38.5939 26.0193 38.0933C26.3173 37.5928 27.1117 37.3926 27.6083 37.693L35.1559 42.3983L43.2993 29.0831C43.5973 28.5826 44.3917 28.3824 44.8883 28.6827C45.3848 28.9831 45.5835 29.784 45.2855 30.2845L36.5462 44.5006C36.3476 44.801 36.149 45.0012 35.8014 45.0012C35.8014 45.2015 35.6524 45.2015 35.5531 45.2015"/>
	<path fill="#704C28" d="M17.7767 2.90325L54.3229 2.90325L55.614 16.5188C49.9533 13.0147 43.2001 11.0125 36.0498 11.0125C28.8995 11.0125 22.2457 13.0147 16.4857 16.5188L17.7767 2.90325"/>
	<path fill="#2D1B0A" d="M15.2938 18.3208L16.8828 1.802L55.2166 1.802L56.7062 18.3208L55.0179 17.3196C49.2579 13.8157 42.7035 12.0136 35.9504 12.0136C29.1972 12.0136 22.6428 13.8157 16.8828 17.3196L15.2938 18.3208M36.0497 10.0113C42.5048 10.0113 48.8607 11.6131 54.4221 14.6166L53.429 3.80428L18.6704 3.80428L17.6772 14.6166C23.2386 11.6131 29.5945 10.0113 36.0497 10.0113"/>
	<path fill="#704C28" d="M53.8264 84.7964L17.2802 84.7964L15.9892 71.281C21.6498 74.785 27.7078 77.2878 35.2553 77.6883C42.4058 78.0888 49.3575 74.785 55.1175 71.281L53.8264 84.7964"/>
	<path fill="#2D1B0A" d="M54.72 85.7976L16.3863 85.7976L14.8966 69.3789L16.5849 70.38C23.1394 74.3845 28.8994 76.2867 35.3545 76.587C41.0152 76.8874 47.2718 74.785 54.6207 70.38L56.309 69.3789L54.72 85.7976M18.1738 83.7952L52.9325 83.7952L53.9256 73.0831C46.9738 77.0876 40.8166 78.8897 35.2552 78.5893C28.9987 78.289 23.338 76.587 17.1807 73.0831L18.1738 83.7952"/>
</svg>
