<?xml version="1.0" encoding="utf-8" ?>
<svg xmlns="http://www.w3.org/2000/svg" xmlns:xlink="http://www.w3.org/1999/xlink" width="66" height="116">
	<path fill="white" d="M17.4167 116C14.463 116 12.2222 114.307 11.5093 111.32C11.3056 110.822 11.2037 110.225 10.8981 104.052C10.7963 102.16 10.6944 100.069 10.5926 98.376L10.4907 96.6833C10.4907 95.9863 10.3889 95.4884 10.287 95.0901C3.87037 93.2979 0 88.618 0 83.0421L0 32.9579C0.101852 27.4815 4.07407 22.7021 9.47222 21.6069C10.3889 20.6112 10.3889 20.412 10.3889 20.1133C10.3889 19.9142 10.3889 19.715 10.4907 19.5159L10.5926 18.2215C10.6944 16.5288 10.8981 14.1391 10.8981 11.9485L11 10.7536C11.2037 5.57597 11.3056 5.17768 11.5093 4.58026C12.3241 1.59313 14.463 0 17.5185 0L46.75 0C49.1944 0 51.8426 1.59313 52.1481 5.17768C52.3519 7.26867 53.4722 19.2172 53.4722 19.2172L53.8796 21.5073C59.8889 22.8017 63.6574 27.4815 63.6574 32.9579L63.6574 37.7373C65.287 38.733 66 40.0275 66 41.4215L66 50.582C66 51.8764 65.287 53.1708 64.1667 53.9674L63.6574 83.0421C63.6574 88.5185 59.8889 93.1983 54.4907 94.3931C53.6759 95.588 53.5741 96.0858 53.4722 96.6833C53.2685 98.0773 52.1481 110.524 52.1481 110.822C51.7407 114.506 48.9907 116 46.75 116L17.4167 116"/>
	<path fill="white" d="M58.463 39.928L61.7223 39.928C62.3334 39.928 62.7408 40.4258 62.7408 40.9237L62.7408 50.0842C62.7408 50.6816 62.2315 51.0799 61.7223 51.0799L58.463 51.0799L58.463 39.928"/>
	<path fill="#FF6F64" d="M51.5372 23.7974C50.5187 22.7021 50.1113 19.018 50.1113 19.018C50.1113 19.018 48.9909 7.06946 48.7872 4.97847C48.5835 2.88748 47.2594 2.4892 46.4446 2.4892C45.6298 2.4892 19.5557 2.4892 17.2131 2.4892C14.8705 2.4892 14.3613 4.28147 14.1576 4.97847C13.9539 5.5759 13.6483 15.1347 13.3427 19.018C13.0372 22.8016 11.7131 23.7974 11.7131 23.7974C6.82422 23.7974 2.95385 27.6806 2.852 32.46L2.852 82.5441C2.852 87.3235 6.82422 91.2068 11.7131 91.2068C11.7131 91.2068 13.0372 92.2025 13.3427 95.9862C13.6483 99.8695 13.9539 109.428 14.1576 110.025C14.3613 110.722 14.8705 112.515 17.2131 112.515C19.5557 112.515 45.6298 112.515 46.4446 112.515C47.2594 112.515 48.5835 112.116 48.7872 110.025C48.9909 107.934 50.1113 95.9862 50.1113 95.9862C50.1113 95.9862 50.5187 92.3021 51.7409 91.2068C56.4261 91.2068 60.3983 87.3235 60.3983 82.5441L60.3983 32.46C60.3983 27.6806 56.4261 23.7974 51.5372 23.7974"/>
	<path fill="#2D1B0A" d="M46.4445 113.51L17.213 113.51C15.176 113.51 13.8519 112.415 13.139 110.325C13.0371 109.926 12.9353 108.83 12.7315 103.454C12.6297 100.666 12.426 97.7785 12.3241 96.0858C12.1204 93.7956 11.5093 92.6008 11.2038 92.2025C6.00933 92.0034 1.8334 87.7218 1.8334 82.5441L1.8334 32.46C1.93525 27.1828 6.00933 23.0008 11.2038 22.8017C11.5093 22.4034 12.1204 21.3081 12.3241 18.9184C12.426 17.1261 12.6297 14.3381 12.7315 11.5502C13.0371 6.17333 13.0371 5.07805 13.2408 4.67977C13.8519 2.58878 15.176 1.4935 17.213 1.4935L46.4445 1.4935C47.8704 1.4935 49.6019 2.38964 49.8056 4.87891C50.0093 6.96989 51.1297 18.9184 51.1297 18.9184C51.2315 20.1132 51.639 22.0051 52.2501 22.8017C57.3427 23.1004 61.4167 27.3819 61.4167 32.46L61.4167 82.5441C61.4167 87.6223 57.3427 91.8042 52.2501 92.2025C51.7408 92.9991 51.2315 94.8909 51.1297 96.0858C51.1297 96.0858 50.0093 108.035 49.8056 110.126C49.5001 112.615 47.8704 113.51 46.4445 113.51M11.713 24.7931C7.43525 24.7931 3.97229 28.1785 3.87044 32.46L3.87044 82.5441C3.87044 86.7261 7.43525 90.2111 11.713 90.2111C12.6297 90.6094 14.0556 91.9038 14.3612 95.8866C14.463 97.6789 14.6667 100.566 14.7686 103.354C14.8704 106.043 15.0741 109.328 15.176 109.727C15.4815 110.623 15.7871 111.52 17.213 111.52L46.4445 111.52C47.2593 111.52 47.6667 111.021 47.7686 109.926C47.9723 107.836 49.0927 95.8866 49.0927 95.8866C49.1945 95.1896 49.6019 91.7047 51.0278 90.5098C55.8149 90.2111 59.3797 86.7261 59.3797 82.5441L59.3797 32.46C59.3797 28.278 55.8149 24.7931 51.5371 24.7931C49.6019 23.1999 49.1945 19.8145 49.0927 19.1175C49.0927 19.1175 47.9723 7.16904 47.7686 5.07805C47.6667 3.98277 47.2593 3.48492 46.4445 3.48492L17.213 3.48492C15.7871 3.48492 15.3797 4.38105 15.176 5.27719C15.0741 5.67547 14.9723 9.06088 14.7686 11.6497C14.6667 14.4377 14.463 17.3253 14.3612 19.1175C14.0556 23.1004 12.6297 24.3948 12.3241 24.5939"/>
	<path fill="#2D1B0A" d="M13.8519 26.6849L49.1945 26.6849C53.5742 26.6849 56.9352 30.2694 56.9352 34.6505L56.9352 81.0506C56.9352 85.4316 53.4722 89.0162 49.1945 89.0162L13.8519 89.0162C9.47226 89.0162 6.11115 85.3321 6.11115 81.0506L6.11115 34.6505C6.11115 30.1698 9.57411 26.6849 13.8519 26.6849"/>
	<path fill="#50BEC1" d="M27.0926 38.8326C27.0926 36.4429 29.0278 34.5511 31.4722 34.5511C33.9166 34.5511 35.8518 36.4429 35.8518 38.8326C35.8518 41.2223 33.9166 43.1141 31.4722 43.1141C29.0278 43.1141 27.0926 41.3219 27.0926 38.8326"/>
	<path fill="#50BEC1" d="M31.4722 44.1099C28.4166 44.1099 26.0741 41.8197 26.0741 38.8326C26.0741 35.8455 28.4166 33.5554 31.4722 33.5554C34.5278 33.5554 36.8703 35.8455 36.8703 38.8326C36.8703 41.8197 34.4259 44.1099 31.4722 44.1099M31.4722 35.5468C29.537 35.5468 28.1111 36.9408 28.1111 38.8326C28.1111 40.7244 29.537 42.1184 31.4722 42.1184C33.4074 42.1184 34.8333 40.7244 34.8333 38.8326C34.8333 36.9408 33.3055 35.5468 31.4722 35.5468"/>
	<path fill="#FDB933" d="M21.6945 48.491C21.6945 46.1013 23.6297 44.2095 26.0741 44.2095C28.5185 44.2095 30.4537 46.1013 30.4537 48.491C30.4537 50.8807 28.5185 52.7725 26.0741 52.7725C23.6297 52.7725 21.6945 50.8807 21.6945 48.491"/>
	<path fill="#FDB933" d="M26.0741 53.7682C23.0185 53.7682 20.6759 51.4781 20.6759 48.491C20.6759 45.5039 23.0185 43.2137 26.0741 43.2137C29.1297 43.2137 31.4722 45.5039 31.4722 48.491C31.4722 51.4781 29.0278 53.7682 26.0741 53.7682M26.0741 45.2052C24.1389 45.2052 22.713 46.5992 22.713 48.491C22.713 50.3829 24.1389 51.7768 26.0741 51.7768C28.0093 51.7768 29.4352 50.3829 29.4352 48.491C29.4352 46.5992 27.9074 45.2052 26.0741 45.2052"/>
	<path fill="#99540E" d="M15.4815 57.6515C15.4815 55.1622 17.5186 53.2704 19.963 53.2704C22.5093 53.2704 24.4445 55.2618 24.4445 57.6515C24.4445 60.0412 22.4075 62.0326 19.963 62.0326C17.4167 62.0326 15.4815 60.0412 15.4815 57.6515"/>
	<path fill="#99540E" d="M19.963 62.5305C18.6389 62.5305 17.3148 62.0326 16.3982 61.1365C15.4815 60.2403 14.9723 59.0455 14.9723 57.6515C14.9723 54.9631 17.213 52.7725 19.963 52.7725C22.713 52.7725 24.9537 54.9631 24.9537 57.6515C24.9537 60.3399 22.6112 62.5305 19.963 62.5305M19.963 53.7682C17.7223 53.7682 15.9908 55.4609 15.9908 57.6515C15.9908 58.6472 16.3982 59.6429 17.1112 60.3399C17.8241 61.0369 18.8426 61.5348 19.963 61.5348C22.1019 61.5348 23.9352 59.7425 23.9352 57.6515C23.9352 55.5605 22.1019 53.7682 19.963 53.7682"/>
	<path fill="#F0667D" d="M33 48.491C33 46.1013 34.9352 44.2095 37.3796 44.2095C39.824 44.2095 41.7592 46.1013 41.7592 48.491C41.7592 50.8807 39.824 52.7725 37.3796 52.7725C34.9352 52.7725 33 50.8807 33 48.491"/>
	<path fill="#F0667D" d="M37.3796 53.7682C34.324 53.7682 31.9814 51.4781 31.9814 48.491C31.9814 45.5039 34.324 43.2137 37.3796 43.2137C40.4352 43.2137 42.7777 45.5039 42.7777 48.491C42.7777 51.4781 40.3333 53.7682 37.3796 53.7682M37.3796 45.2052C35.4444 45.2052 34.0185 46.5992 34.0185 48.491C34.0185 50.3829 35.4444 51.7768 37.3796 51.7768C39.3148 51.7768 40.7407 50.3829 40.7407 48.491C40.7407 46.5992 39.2129 45.2052 37.3796 45.2052"/>
	<path fill="#008CCC" d="M25.7686 58C25.7686 55.0129 28.213 52.7228 31.1667 52.7228C34.1204 52.7228 36.5649 55.1125 36.5649 58C36.5649 60.8876 34.1204 63.2773 31.1667 63.2773C28.213 63.2773 25.7686 60.8876 25.7686 58"/>
	<path fill="#008CCC" d="M31.1667 63.7751C27.9074 63.7751 25.2593 61.1863 25.2593 58C25.2593 54.7142 27.8056 52.2249 31.1667 52.2249C34.426 52.2249 37.0741 54.8137 37.0741 58C37.0741 61.1863 34.426 63.7751 31.1667 63.7751M31.1667 53.2206C28.4167 53.2206 26.2778 55.3116 26.2778 58C26.2778 60.5888 28.5186 62.7794 31.1667 62.7794C33.8149 62.7794 36.0556 60.5888 36.0556 58C36.0556 55.4112 33.8149 53.2206 31.1667 53.2206"/>
	<path fill="#3A526B" d="M21.2871 67.6086C21.2871 65.1193 23.3241 63.1279 25.8704 63.1279C28.4167 63.1279 30.4537 65.1193 30.4537 67.6086C30.4537 70.0979 28.4167 72.0893 25.8704 72.0893C23.3241 72.0893 21.2871 70.0979 21.2871 67.6086"/>
	<path fill="#3A526B" d="M25.8704 72.5871C23.0185 72.5871 20.7778 70.3966 20.7778 67.6086C20.7778 64.8206 23.0185 62.6301 25.8704 62.6301C28.7222 62.6301 30.963 64.8206 30.963 67.6086C30.963 70.3966 28.6204 72.5871 25.8704 72.5871M25.8704 63.6258C23.6297 63.6258 21.7963 65.418 21.7963 67.6086C21.7963 69.7992 23.6297 71.5914 25.8704 71.5914C28.1111 71.5914 29.9445 69.7992 29.9445 67.6086C29.9445 65.418 28.1111 63.6258 25.8704 63.6258"/>
	<path fill="#50BEC1" d="M17.4166 75.6738C17.4166 73.782 18.9444 72.2884 20.8796 72.2884C22.8148 72.2884 24.3426 73.782 24.3426 75.6738C24.3426 77.5657 22.8148 79.0592 20.8796 79.0592C18.9444 79.0592 17.4166 77.5657 17.4166 75.6738"/>
	<path fill="#50BEC1" d="M20.8796 80.0549C18.3333 80.0549 16.3981 78.1631 16.3981 75.6738C16.3981 73.1845 18.3333 71.2927 20.8796 71.2927C23.4259 71.2927 25.3611 73.1845 25.3611 75.6738C25.3611 78.1631 23.3241 80.0549 20.8796 80.0549M20.8796 73.2841C19.5555 73.2841 18.4352 74.3794 18.4352 75.6738C18.4352 76.9682 19.5555 78.0635 20.8796 78.0635C22.2037 78.0635 23.3241 76.9682 23.3241 75.6738C23.3241 74.3794 22.2037 73.2841 20.8796 73.2841"/>
	<path fill="#F0667D" d="M27.2963 77.1674C27.2963 74.9768 29.1297 73.1846 31.3704 73.1846C33.6111 73.1846 35.4445 74.9768 35.4445 77.1674C35.4445 79.358 33.6111 81.1502 31.3704 81.1502C29.1297 81.1502 27.2963 79.358 27.2963 77.1674"/>
	<path fill="#F0667D" d="M31.3704 82.1459C28.5185 82.1459 26.2778 79.9554 26.2778 77.1674C26.2778 74.3794 28.5185 72.1889 31.3704 72.1889C34.2222 72.1889 36.463 74.3794 36.463 77.1674C36.463 79.9554 34.1204 82.1459 31.3704 82.1459M31.3704 74.1803C29.6389 74.1803 28.3148 75.4747 28.3148 77.1674C28.3148 78.8601 29.6389 80.1545 31.3704 80.1545C33.1019 80.1545 34.4259 78.8601 34.4259 77.1674C34.4259 75.4747 33 74.1803 31.3704 74.1803"/>
	<path fill="#99540E" d="M33 67.8077C33 65.418 34.9352 63.5262 37.3796 63.5262C39.824 63.5262 41.7592 65.418 41.7592 67.8077C41.7592 70.1974 39.824 72.0892 37.3796 72.0892C34.9352 72.0892 33 70.1974 33 67.8077"/>
	<path fill="#99540E" d="M37.3796 72.5871C34.6296 72.5871 32.4907 70.4961 32.4907 67.8077C32.4907 65.1193 34.6296 63.0283 37.3796 63.0283C40.1296 63.0283 42.2685 65.1193 42.2685 67.8077C42.2685 70.4961 40.0278 72.5871 37.3796 72.5871M37.3796 64.024C35.2407 64.024 33.5092 65.7167 33.5092 67.8077C33.5092 69.8987 35.2407 71.5914 37.3796 71.5914C39.5185 71.5914 41.25 69.8987 41.25 67.8077C41.25 65.7167 39.5185 64.024 37.3796 64.024"/>
	<path fill="#3A526B" d="M38.3982 57.7511C38.3982 55.2618 40.4352 53.2704 42.9815 53.2704C45.5278 53.2704 47.5648 55.2618 47.5648 57.7511C47.5648 60.2404 45.5278 62.3313 42.9815 62.3313C40.4352 62.3313 38.3982 60.2404 38.3982 57.7511"/>
	<path fill="#3A526B" d="M42.9815 62.8292C40.1296 62.8292 37.8889 60.5391 37.8889 57.7511C37.8889 54.9631 40.1296 52.7725 42.9815 52.7725C45.8333 52.7725 48.0741 54.9631 48.0741 57.7511C48.0741 60.6386 45.7315 62.8292 42.9815 62.8292M42.9815 53.7683C40.7407 53.7683 38.9074 55.5605 38.9074 57.7511C38.9074 60.0412 40.7407 61.8335 42.9815 61.8335C45.2222 61.8335 47.0556 60.0412 47.0556 57.7511C47.0556 55.5605 45.2222 53.7683 42.9815 53.7683"/>
	<path fill="#008CCC" d="M43.4908 48.7897C43.4908 46.7983 45.1204 45.2051 47.1574 45.2051C49.1945 45.2051 50.7222 46.7983 50.7222 48.7897C50.7222 50.7811 49.0926 52.3742 47.1574 52.3742C45.1204 52.3742 43.4908 50.7811 43.4908 48.7897"/>
	<path fill="#008CCC" d="M47.1574 52.8721C44.8148 52.8721 42.9815 51.0798 42.9815 48.7897C42.9815 46.4996 44.8148 44.7073 47.1574 44.7073C49.3982 44.7073 51.2315 46.4996 51.2315 48.7897C51.2315 51.0798 49.3982 52.8721 47.1574 52.8721M47.1574 45.703C45.4259 45.703 44 47.097 44 48.7897C44 50.4824 45.4259 51.8764 47.1574 51.8764C48.8889 51.8764 50.213 50.4824 50.213 48.7897C50.213 47.097 48.7871 45.703 47.1574 45.703"/>
	<path fill="#008CCC" d="M17.213 40.0253C17.213 37.9343 18.8426 36.3411 20.8797 36.3411C22.9167 36.3411 24.6482 37.9343 24.6482 40.0253C24.6482 42.0167 22.9167 43.6142 20.8797 43.6142C18.8426 43.7094 17.213 42.1163 17.213 40.0253"/>
	<path fill="#008CCC" d="M20.676 44.1099C19.6575 44.1099 18.7408 43.7116 18.0278 43.0146C17.213 42.218 16.7038 41.1228 16.7038 40.0275C16.7038 37.6378 18.5371 35.8455 20.8797 35.8455C23.2223 35.8455 25.1575 37.7374 25.1575 40.0275C25.1575 42.3176 23.2223 44.1099 20.8797 44.1099C20.7778 44.1099 20.676 44.1099 20.676 44.1099M20.8797 36.8412C19.1482 36.8412 17.7223 38.2352 17.7223 40.0275C17.7223 40.9236 18.0278 41.7202 18.7408 42.3176C19.3519 42.8155 20.0649 43.1142 20.8797 43.1142C22.713 43.1142 24.1389 41.7202 24.1389 40.0275C24.1389 38.3348 22.6112 36.8412 20.8797 36.8412"/>
	<path fill="#50BEC1" d="M12.8333 49.0884C12.8333 47.1966 14.4629 45.6034 16.3981 45.6034C18.3333 45.6034 19.9629 47.1966 19.9629 49.0884C19.9629 50.9802 18.3333 52.5734 16.3981 52.5734C14.4629 52.5734 12.8333 50.9802 12.8333 49.0884"/>
	<path fill="#50BEC1" d="M16.3981 53.5691C13.9537 53.5691 11.8148 51.4781 11.8148 49.0884C11.8148 46.6987 13.9537 44.6077 16.3981 44.6077C18.8425 44.6077 20.9814 46.6987 20.9814 49.0884C20.9814 51.4781 18.8425 53.5691 16.3981 53.5691M16.3981 46.5991C14.9722 46.5991 13.8518 47.6944 13.8518 49.0884C13.8518 50.4824 14.9722 51.5777 16.3981 51.5777C17.824 51.5777 18.9444 50.4824 18.9444 49.0884C18.9444 47.6944 17.7222 46.5991 16.3981 46.5991"/>
	<path fill="#FED372" d="M38.5 75.873C38.5 73.8816 40.1297 72.2885 42.1667 72.2885C44.2037 72.2885 45.8334 73.8816 45.8334 75.873C45.8334 77.8644 44.2037 79.4576 42.1667 79.4576C40.1297 79.4576 38.5 77.8644 38.5 75.873"/>
	<path fill="#FED372" d="M42.1667 80.4533C39.6204 80.4533 37.4815 78.3623 37.4815 75.873C37.4815 73.3837 39.6204 71.2927 42.1667 71.2927C44.713 71.2927 46.8519 73.3837 46.8519 75.873C46.8519 78.3623 44.713 80.4533 42.1667 80.4533M42.1667 73.2842C40.6389 73.2842 39.5186 74.3794 39.5186 75.873C39.5186 77.3666 40.6389 78.4618 42.1667 78.4618C43.6945 78.4618 44.8148 77.3666 44.8148 75.873C44.8148 74.3794 43.5926 73.2842 42.1667 73.2842"/>
	<path fill="#50BEC1" d="M43.1852 66.812C43.1852 64.8206 44.8149 63.2274 46.8519 63.2274C48.8889 63.2274 50.5186 64.8206 50.5186 66.812C50.5186 68.8034 48.8889 70.3965 46.8519 70.3965C44.8149 70.3965 43.1852 68.8034 43.1852 66.812"/>
	<path fill="#50BEC1" d="M46.8519 71.3923C44.3056 71.3923 42.1667 69.3013 42.1667 66.812C42.1667 64.3227 44.3056 62.2317 46.8519 62.2317C49.3982 62.2317 51.5371 64.3227 51.5371 66.812C51.5371 69.3013 49.3982 71.3923 46.8519 71.3923M46.8519 64.2232C45.3241 64.2232 44.2038 65.3184 44.2038 66.812C44.2038 68.3056 45.3241 69.4008 46.8519 69.4008C48.3797 69.4008 49.5 68.3056 49.5 66.812C49.5 65.3184 48.2778 64.2232 46.8519 64.2232"/>
	<path fill="#F0667D" d="M12.3241 67.0112C12.3241 64.9202 13.9537 63.3271 15.9908 63.3271C18.0278 63.3271 19.7593 64.9202 19.7593 67.0112C19.7593 69.0026 18.0278 70.5957 15.9908 70.5957C13.9537 70.5957 12.3241 69.0026 12.3241 67.0112"/>
	<path fill="#F0667D" d="M15.9908 71.5914C13.4445 71.5914 11.3056 69.5005 11.3056 67.0112C11.3056 64.4223 13.3426 62.3314 15.9908 62.3314C18.6389 62.3314 20.7778 64.4223 20.7778 67.0112C20.7778 69.6 18.5371 71.5914 15.9908 71.5914M15.9908 64.3228C14.463 64.3228 13.3426 65.5176 13.3426 67.0112C13.3426 68.5047 14.463 69.6 15.9908 69.6C17.5185 69.6 18.7408 68.4052 18.7408 67.0112C18.7408 65.6172 17.4167 64.3228 15.9908 64.3228"/>
	<path fill="#FDB933" d="M38.7037 40.0275C38.7037 38.1357 40.2315 36.6421 42.1667 36.6421C44.1019 36.6421 45.6297 38.1357 45.6297 40.0275C45.6297 41.9193 44.1019 43.4129 42.1667 43.4129C40.2315 43.4129 38.7037 41.9193 38.7037 40.0275"/>
	<path fill="#FDB933" d="M42.1667 44.4086C39.6204 44.4086 37.6852 42.5168 37.6852 40.0275C37.6852 37.5382 39.6204 35.6464 42.1667 35.6464C44.713 35.6464 46.6482 37.5382 46.6482 40.0275C46.6482 42.5168 44.6111 44.4086 42.1667 44.4086M42.1667 37.6378C40.8426 37.6378 39.7223 38.7331 39.7223 40.0275C39.7223 41.3219 40.8426 42.4172 42.1667 42.4172C43.4908 42.4172 44.6111 41.3219 44.6111 40.0275C44.6111 38.7331 43.4908 37.6378 42.1667 37.6378"/>
</svg>
