<?xml version="1.0" encoding="utf-8" ?>
<svg xmlns="http://www.w3.org/2000/svg" xmlns:xlink="http://www.w3.org/1999/xlink" width="38" height="130">
	<path fill="white" d="M7.3 130C4.5 130 2.2 127.691 2.1 124.78C2.1 124.68 1.8 120.463 1.4 113.737L1.2 112.031C0.6 100.988 0 84.0232 0 65.1506C0 42.2625 0.9 24.2934 1.3 17.5676L1.5 14.4556C1.8 8.93436 2.1 5.52124 2.1 5.11969C2.2 2.30888 4.5 0 7.3 0L30.7 0C33.5 0 35.8 2.30888 35.9 5.22008C36 6.12355 36.2 9.13514 36.5 13.9537L36.8 17.5676C37.3 26.6023 38 44.8726 38 65.1506C38 79.9073 37.5 96.0695 36.8 111.931L36.6 115.544C36.2 120.865 35.9 124.178 35.9 124.88C35.8 127.691 33.5 130 30.7 130L7.3 130"/>
	<path fill="#FFD05A" d="M7 4.0155L30.7 4.0155C31.6 4.0155 32.1 4.7182 32.1 5.42091C32.1 5.42091 34.1 33.0271 34.1 65.3514C34.1 97.6757 32.1 124.881 32.1 124.881C32.1 125.784 31.4 126.285 30.7 126.285L7 126.285C6.2 126.285 5.6 125.584 5.6 124.881C5.6 124.881 3.6 97.7761 3.6 65.3514C3.6 33.0271 5.6 5.42091 5.6 5.42091C5.6 4.61782 6.3 4.0155 7 4.0155"/>
	<path fill="#2D1B0A" d="M30.7 127.29L7 127.29C5.7 127.29 4.6 126.186 4.6 124.881C4.6 124.68 2.6 97.4749 2.6 65.3514C2.6 33.3282 4.6 5.62164 4.6 5.42087C4.6 4.21623 5.7 3.0116 7 3.0116L30.7 3.0116C32.1 3.0116 33.1 4.11585 33.1 5.42087C33.1 5.62164 35.1 33.4286 35.1 65.3514C35.1 97.3745 33.1 124.68 33.1 124.981C33.2 126.186 32.1 127.29 30.7 127.29M7 5.01932C6.8 5.01932 6.6 5.22009 6.6 5.42087C6.6 5.72202 4.6 33.4286 4.6 65.3514C4.6 97.3745 6.6 124.479 6.6 124.78C6.6 125.081 6.8 125.282 7 125.282L30.7 125.282C30.9 125.282 31.1 125.182 31.1 124.881C31.1 124.58 33.1 97.2741 33.1 65.3514C33.1 33.529 31.1 5.82241 31.1 5.52125C31.1 5.32048 31 5.01932 30.7 5.01932L7 5.01932"/>
	<path fill="#2D1B0A" d="M33 17.8687C33.6 29.0116 34.2 46.3784 34.2 65.2509C34.2 83.8224 33.5 100.687 33 111.83C33 111.83 4.9 111.83 4.7 111.83C4.1 100.788 3.5 83.9228 3.5 65.2509C3.5 46.278 4.2 29.0116 4.8 17.8687L33 17.8687"/>
	<path fill="white" d="M21.5 70.7722L21.5 72.7799C21.5 74.1853 20.3 75.5907 18.7 75.5907C17.3 75.5907 15.9 74.3861 15.9 72.7799L15.9 70.7722L15.4 72.7799C15.4 74.3861 16.7 75.8919 18.4 75.9923L18.4 77.7992L16.8 77.7992L20.5 78.3012L18.9 77.7992L18.9 75.9923C20.6 75.8919 22 74.5869 22 72.7799L22 70.7722M18.6 74.6872C19.7 74.6872 20.5 73.7838 20.5 72.8803L20.5 68.9652C20.5 67.861 19.6 67.1583 18.6 67.1583C17.6 67.1583 16.8 67.9614 16.8 68.9652L16.8 72.8803C16.8 73.8841 17.6 74.6872 18.6 74.6872"/>
	<path fill="white" d="M20.4 78.803L16.7 78.3011L16.8 77.2972L17.9 77.2972C16.2 76.0926 14.9 74.4865 14.9 72.7799L15.4 70.6718L16.2 68.9652C16.2 67.6602 17.2 66.6563 18.5 66.6563C19.9 66.6563 20.9 67.6602 20.9 68.9652L20.9 70.7722L22.3 70.7722L22.3 72.7799C22.3 74.5869 21 76.0926 19.2 76.3938L19.2 77.3977L20.5 77.7992L20.4 78.803M18.6 67.6602C18 67.6602 17.3 68.1621 17.3 68.9652L17.3 72.8803C17.3 73.583 17.9 74.1853 18.6 74.1853C19.4 74.1853 20 73.583 20 72.8803L20 68.9652C20 68.2625 19.4 67.6602 18.6 67.6602"/>
	<path fill="white" d="M10.1 72.8803C10.1 68.2625 13.9 64.5482 18.6 64.5482C23.3 64.5482 27.1 68.2625 27.1 72.8803C27.1 77.498 23.3 81.2123 18.6 81.2123C13.9 81.2123 10.1 77.498 10.1 72.8803M10.6 72.8803C10.6 77.2972 14.2 80.8107 18.7 80.8107C23.2 80.8107 26.8 77.2972 26.8 72.8803C26.8 68.5637 23.2 65.0502 18.7 65.0502C14.1 65.0502 10.6 68.5637 10.6 72.8803"/>
	<path fill="white" d="M18.6 81.7143C13.6 81.7143 9.6 77.6988 9.6 72.8803C9.6 67.9614 13.6 64.0463 18.6 64.0463C23.6 64.0463 27.6 68.0617 27.6 72.8803C27.6 77.7992 23.6 81.7143 18.6 81.7143M18.7 65.5521C14.4 65.5521 11.1 68.7645 11.1 72.8803C11.1 76.9961 14.5 80.3088 18.7 80.3088C22.9 80.3088 26.3 76.9961 26.3 72.8803C26.3 68.8648 22.9 65.5521 18.7 65.5521"/>
	<path fill="white" d="M9.9 54.5096L11 54.4092C11.1 54.8108 11.2 55.1119 11.4 55.3127C11.6 55.5135 11.9 55.6139 12.2 55.6139C12.5 55.6139 12.7 55.5135 13 55.4131C13.2 55.3127 13.4 55.1119 13.5 54.9112C13.6 54.7104 13.7 54.4092 13.9 54.0077C14 53.6062 14 53.305 14 52.9035C14 52.9035 14 52.8031 14 52.7027C13.8 53.0038 13.6 53.2046 13.2 53.4054C12.9 53.6062 12.5 53.7065 12.1 53.7065C11.5 53.7065 11 53.5058 10.6 53.0038C10.2 52.5019 9.9 51.8996 9.9 51.2973C9.9 50.4942 10.1 49.9923 10.6 49.5907C11 49.0888 11.6 48.888 12.2 48.888C12.7 48.888 13.2 48.9884 13.5 49.2896C13.9 49.4903 14.2 49.8919 14.5 50.3938C14.7 50.8957 14.8 51.498 14.8 52.4015C14.8 53.4054 14.7 54.0077 14.5 54.61C14.3 55.2123 14 55.6139 13.5 55.8147C13.1 56.1158 12.5 56.3166 12.1 56.3166C11.5 56.3166 11 56.1158 10.7 55.8147C10.3 55.5135 10.1 55.0116 9.9 54.5096M13.6 51.2973C13.6 50.7953 13.5 50.2934 13.2 50.0926C12.9 49.6911 12.5 49.5907 12.2 49.5907C11.8 49.5907 11.4 49.7915 11.1 50.0926C10.8 50.4942 10.6 50.8957 10.6 51.2973C10.6 51.7992 10.8 52.2008 11.1 52.4015C11.4 52.7027 11.8 52.8031 12.2 52.8031C12.7 52.8031 13 52.7027 13.3 52.4015C13.5 52.3011 13.6 51.8996 13.6 51.2973M16 52L17.1 52L17.1 50.8957L16 50.8957L16 52M16 56.2162L17.1 56.2162L17.1 55.1119L16 55.1119L16 56.2162M23.2 55.3127L19.6 55.3127C19.7 55.1119 19.8 54.9112 20 54.8108C20.2 54.7104 20.5 54.3089 21.1 53.8069C21.8 53.305 22.2 52.8031 22.4 52.6023C22.7 52.3011 22.9 52 23.1 51.6988C23.2 51.3977 23.3 51.0965 23.3 50.7953C23.3 50.193 23.1 49.6911 22.6 49.3899C22.2 48.9884 21.6 48.7876 21 48.7876C20.2 48.7876 19.8 48.9884 19.3 49.2896C18.9 49.6911 18.6 50.2934 18.6 50.7953L19.6 50.8957C19.6 50.3938 19.7 50.0926 20 49.7915C20.3 49.4903 20.7 49.3899 21.1 49.3899C21.6 49.3899 21.9 49.4903 22.2 49.7915C22.4 49.9923 22.6 50.3938 22.6 50.7953C22.6 51.1969 22.4 51.498 22.1 51.8996C21.8 52.3011 21.3 52.9035 20.5 53.4054C20 53.8069 19.5 54.2085 19.3 54.5096C19 54.9112 18.8 55.2123 18.7 55.5135C18.6 55.7143 18.6 55.915 18.6 56.2162L23.5 56.2162M24.1 54.3089C24.2 54.9112 24.4 55.4131 24.8 55.7143C25.3 56.1158 25.8 56.3166 26.4 56.3166C27.2 56.3166 27.8 56.0154 28.3 55.3127C28.7 54.8108 28.9 54.2085 28.9 53.7065C28.9 53.0038 28.7 52.5019 28.2 52C27.7 51.5984 27.1 51.2973 26.6 51.2973C26.1 51.2973 25.6 51.498 25.3 51.7992L25.7 49.8919L28.6 49.8919L25 48.9884L24.2 52.7027C25.3 52.6023 25.5 52.4015 25.7 52.3011C25.9 52.2008 26.2 52.1004 26.5 52.1004C27 52.1004 27.4 52.2008 27.6 52.5019C27.9 52.8031 28 53.2046 28 53.7065C28 54.2085 27.9 54.7104 27.6 55.0116C27.2 55.3127 26.9 55.5135 26.5 55.5135C26.1 55.5135 25.8 55.4131 25.5 55.1119C25.2 54.9112 25 54.5096 25 54.0077"/>
	<path fill="white" d="M16.2 110.625L18.7 108.617L21.6 110.625L20.5 110.625L18.8 109.42L17.5 110.625L16.2 110.625"/>
	<path fill="white" d="M23.1 111.127L20.2 111.127L18.7 110.023L17.5 111.127L14.8 111.127L18.7 108.015"/>
	<path fill="white" d="M8.5 105.406L29 105.406L29 106.912L8.5 106.912L8.5 105.406"/>
	<path fill="white" d="M29.4 107.514L7.9 107.514L7.9 105.004L29.4 105.004L29.4 107.514M9 106.51L28.5 106.51L9 106.008"/>
	<path fill="white" d="M15.1 19.4749L22.1 19.4749C22.4 19.4749 22.7 19.6756 22.7 20.0772C22.7 20.4787 22.4 20.6795 22.1 20.6795L15.1 20.6795C14.8 20.6795 14.5 20.4787 14.5 20.0772C14.5 19.6756 14.8 19.4749 15.1 19.4749"/>
	<path fill="white" d="M22 21.081L15 21.081C14.4 21.081 13.9 20.5791 13.9 19.9768C13.9 19.3745 14.4 18.8725 15 18.8725L22 18.8725C22.6 18.8725 23.1 19.3745 23.1 19.9768C23.1 20.5791 22.6 21.081 22 21.081M15.1 19.9768C15 19.9768 15 19.9768 15.1 19.9768C15 20.0772 15 20.0772 15.1 20.0772L22.1 20.0772C22.2 20.0772 22.2 20.0772 22.2 19.9768C22.2 19.8764 22.2 19.8764 22.1 19.8764L15.1 19.8764"/>
</svg>
