<?xml version="1.0" encoding="utf-8" ?>
<svg xmlns="http://www.w3.org/2000/svg" xmlns:xlink="http://www.w3.org/1999/xlink" width="120" height="70">
	<path fill="white" d="M75.0664 70C74.4686 70 73.9705 69.5918 73.7712 68.9796L68.9889 51.2245C68.5904 49.7959 67.2952 48.7755 65.8007 48.7755L54.2435 48.7755C52.7491 48.7755 51.4539 49.7959 51.0554 51.2245L46.2731 68.9796C46.0738 69.5918 45.5756 70 44.9779 70L10.7048 70C10.107 70 9.60886 69.5918 9.40959 68.9796L0 30.4082C0 30.2041 0 30 0 29.7959L5.52399 1.32653C5.62362 0.714286 6.2214 0.204082 6.81919 0.204082C6.91882 0.204082 7.01845 0.204082 7.01845 0.204082L10.3063 0.816327C10.6052 0.918367 11.0037 1.12245 11.203 1.42857C11.4022 1.73469 11.5018 2.04082 11.4022 2.44898L7.51661 23.5714C7.31734 24.5918 7.61624 25.6122 8.21402 26.3265C8.81181 27.0408 9.80812 27.551 10.8044 27.551L109.439 27.551C110.435 27.551 111.332 27.1429 112.03 26.3265C112.727 25.5102 112.926 24.4898 112.727 23.5714L108.941 2.14286C108.841 1.42857 109.339 0.714286 110.037 0.612245L113.325 0C113.424 0 113.524 0 113.524 0C114.122 0 114.72 0.510204 114.819 1.12245L120 29.7959C120 30 120 30.2041 120 30.4082L110.734 68.9796C110.635 69.5918 110.037 70 109.439 70L75.0664 70"/>
	<path fill="#1C4BFF" d="M107.646 66.6327L76.0627 66.6327L71.0812 48.1633C70.6827 46.5306 69.1882 45.4082 67.5941 45.4082L52.1513 45.4082C50.5572 45.4082 49.0627 46.5306 48.6642 48.1633L43.6827 66.6327L12.0996 66.6327L3.3321 30.4082L116.413 30.4082L107.646 66.6327"/>
	<path fill="#2D1B0A" d="M108.443 67.6531L75.3653 67.6531L70.1845 48.4694C69.8856 47.2449 68.7897 46.4286 67.5941 46.4286L52.1513 46.4286C50.9557 46.4286 49.9594 47.2449 49.5609 48.4694L44.3801 67.6531L11.3026 67.6531L2.0369 29.3878L117.709 29.3878L108.443 67.6531M76.8598 65.6123L106.849 65.6123L115.118 31.4286L4.62731 31.4286L12.8967 65.6123L42.8856 65.6123L47.6679 47.8572C48.2657 45.8164 50.059 44.3878 52.1513 44.3878L67.5941 44.3878C69.6863 44.3878 71.4797 45.8164 72.0775 47.8572L76.8598 65.6123"/>
	<path fill="#1C4BFF" d="M8.21403 2.3469L3.03322 30.4081"/>
	<path fill="#2D1B0A" d="M2.03839 30.3173L7.17417 2.2344L9.13271 2.61011L3.99694 30.693L2.03839 30.3173"/>
	<path fill="#1C4BFF" d="M111.83 2.04085L116.812 30.4081"/>
	<path fill="#2D1B0A" d="M110.888 2.20795L112.849 1.8455L117.838 30.1635L115.877 30.5259L110.888 2.20795"/>
</svg>
