<?xml version="1.0" encoding="utf-8" ?>
<svg xmlns="http://www.w3.org/2000/svg" xmlns:xlink="http://www.w3.org/1999/xlink" width="100" height="72">
	<path fill="white" d="M5.52209 72C2.51004 72 0 69.6133 0 66.7293L0 57.5801C0 57.0829 0 56.4862 0.301205 55.989L0.301205 54.7956C0 54.2983 0 53.7017 0 53.2044L0 44.0552C0 43.558 0 42.9613 0.301205 42.4641L0.301205 41.2707C0 40.7735 0 40.2762 0 39.6796L0 30.5304C0 29.337 0.401606 28.2431 1.10442 27.3481L5.92369 9.64641L6.82731 6.36464C8.13253 5.07182 8.93574 4.37569 9.93976 3.58011C11.3454 1.09392 13.253 0 15.261 0L81.8273 0C83.8353 0 85.743 1.19337 86.747 2.98343C88.755 4.57459 89.5582 5.27072 89.5582 5.27072L96.988 25.7569C99.0964 27.1492 100 28.7403 100 30.5304L100 39.6796C100 40.1768 99.8996 40.7735 99.6988 41.2707L99.6988 42.4641C99.8996 42.9613 100 43.4586 100 44.0552L100 53.2044C100 53.7017 99.8996 54.2983 99.6988 54.7956L99.6988 55.989C99.8996 56.4862 100 57.0829 100 57.5801L100 66.7293C100 69.6133 97.5904 72 94.4779 72L5.52209 72"/>
	<path fill="#473C32" d="M5.42169 28.2431C4.11647 28.2431 2.91165 29.2376 2.91165 30.5304L2.91165 39.6796C2.91165 40.9724 4.01607 41.9669 5.42169 41.9669L94.3775 41.9669C95.6828 41.9669 96.8876 40.9724 96.8876 39.6796L96.8876 30.5304C96.8876 29.2376 95.7831 28.2431 94.3775 28.2431L5.42169 28.2431"/>
	<path fill="#2D1B0A" d="M94.3777 42.8619L5.42181 42.8619C3.51418 42.8619 1.90775 41.3702 1.90775 39.5801L1.90775 30.431C1.90775 28.6409 3.51418 27.1492 5.42181 27.1492L94.3777 27.1492C96.2853 27.1492 97.8917 28.6409 97.8917 30.431L97.8917 39.5801C97.8917 41.4696 96.3857 42.8619 94.3777 42.8619M5.42181 29.2376C4.61859 29.2376 3.91578 29.8343 3.91578 30.5304L3.91578 39.6796C3.91578 40.3757 4.61859 40.9724 5.42181 40.9724L94.3777 40.9724C95.1809 40.9724 95.8837 40.3757 95.8837 39.6796L95.8837 30.5304C95.8837 29.8343 95.1809 29.2376 94.3777 29.2376L5.42181 29.2376"/>
	<path fill="#473C32" d="M5.42169 41.7679C4.11647 41.7679 2.91165 42.7624 2.91165 44.0552L2.91165 53.2044C2.91165 54.4972 4.01607 55.4917 5.42169 55.4917L94.3775 55.4917C95.6828 55.4917 96.8876 54.4972 96.8876 53.2044L96.8876 44.0552C96.8876 42.7624 95.7831 41.7679 94.3775 41.7679L5.42169 41.7679"/>
	<path fill="#2D1B0A" d="M94.3777 56.3867L5.42181 56.3867C3.51418 56.3867 1.90775 54.895 1.90775 53.1049L1.90775 43.9558C1.90775 42.1657 3.51418 40.674 5.42181 40.674L94.3777 40.674C96.2853 40.674 97.8917 42.1657 97.8917 43.9558L97.8917 53.1049C97.8917 54.9944 96.3857 56.3867 94.3777 56.3867M5.42181 42.7624C4.61859 42.7624 3.91578 43.3591 3.91578 44.0552L3.91578 53.2044C3.91578 53.9005 4.61859 54.4972 5.42181 54.4972L94.3777 54.4972C95.1809 54.4972 95.8837 53.9005 95.8837 53.2044L95.8837 44.0552C95.8837 43.3591 95.1809 42.7624 94.3777 42.7624L5.42181 42.7624"/>
	<path fill="#473C32" d="M5.42169 55.2928C4.11647 55.2928 2.91165 56.2872 2.91165 57.5801L2.91165 66.7293C2.91165 68.0221 4.01607 69.0166 5.42169 69.0166L94.3775 69.0166C95.6828 69.0166 96.8876 68.0221 96.8876 66.7293L96.8876 57.5801C96.8876 56.2872 95.7831 55.2928 94.3775 55.2928L5.42169 55.2928"/>
	<path fill="#2D1B0A" d="M94.3777 70.011L5.42181 70.011C3.51418 70.011 1.90775 68.5193 1.90775 66.7292L1.90775 57.5801C1.90775 55.79 3.51418 54.2983 5.42181 54.2983L94.3777 54.2983C96.2853 54.2983 97.8917 55.79 97.8917 57.5801L97.8917 66.7292C97.8917 68.5193 96.3857 70.011 94.3777 70.011M5.42181 56.2872C4.61859 56.2872 3.91578 56.8839 3.91578 57.5801L3.91578 66.7292C3.91578 67.4254 4.61859 68.0221 5.42181 68.0221L94.3777 68.0221C95.1809 68.0221 95.8837 67.4254 95.8837 66.7292L95.8837 57.5801C95.8837 56.8839 95.1809 56.2872 94.3777 56.2872L5.42181 56.2872"/>
	<path fill="#827B73" d="M94.5784 28.2431L87.4499 7.55799C87.4499 7.55799 86.4458 6.76241 84.8394 5.76793L83.9359 4.57456C83.6347 3.58008 82.6306 2.9834 81.6265 2.9834L15.0604 2.9834C13.9559 2.9834 13.0523 3.67953 12.7511 4.57456C11.0443 6.26517 10.0402 7.06075 9.23704 7.85633L8.53422 10.3425L3.91575 28.2431L94.5784 28.2431"/>
	<path fill="#2D1B0A" d="M95.9841 29.2376L2.81145 29.2376L8.43394 7.35912C9.33755 6.46409 10.2412 5.66851 11.3456 4.77348C12.3496 2.88398 13.5545 1.98895 15.0604 1.98895L81.6267 1.98895C83.1327 1.98895 84.438 2.98343 84.8395 4.27624C86.9479 5.96685 87.952 6.76243 87.952 6.86188L95.9841 29.2376M5.42189 27.2487L93.1728 27.2487L86.6467 8.1547C86.2451 7.85635 85.4419 7.25967 84.3375 6.66298L83.3335 5.8674C82.8316 4.37569 82.3295 3.9779 81.7271 3.9779L15.1608 3.9779C14.2572 3.9779 13.956 4.47514 13.8556 4.97238L12.6508 6.46409C11.6468 7.25967 10.944 7.85635 10.3416 8.45304L9.73916 10.6409L5.42189 27.2487"/>
	<path fill="white" d="M44.9799 35.0055L47.49 35.0055L47.49 37.2928L44.9799 37.2928L44.9799 35.0055"/>
	<path fill="white" d="M15.6626 35.0055L18.1727 35.0055L18.1727 37.2928L15.6626 37.2928L15.6626 35.0055"/>
	<path fill="white" d="M67.0683 47.6354L69.5784 47.6354L69.5784 49.9227L67.0683 49.9227L67.0683 47.6354"/>
	<path fill="white" d="M44.9799 47.6354L47.49 47.6354L47.49 49.9227L44.9799 49.9227L44.9799 47.6354"/>
	<path fill="white" d="M15.6626 47.6354L18.1727 47.6354L18.1727 49.9227L15.6626 49.9227L15.6626 47.6354"/>
	<path fill="white" d="M67.0683 61.3591L69.5784 61.3591L69.5784 63.6464L67.0683 63.6464L67.0683 61.3591"/>
	<path fill="white" d="M44.9799 61.3591L47.49 61.3591L47.49 63.6464L44.9799 63.6464L44.9799 61.3591"/>
	<path fill="white" d="M15.6626 61.3591L18.1727 61.3591L18.1727 63.6464L15.6626 63.6464L15.6626 61.3591"/>
	<path fill="white" d="M52.4096 35.0055L54.9197 35.0055L54.9197 37.2928L52.4096 37.2928L52.4096 35.0055"/>
	<path fill="white" d="M74.498 47.6354L77.0081 47.6354L77.0081 49.9227L74.498 49.9227L74.498 47.6354"/>
	<path fill="white" d="M52.4096 47.6354L54.9197 47.6354L54.9197 49.9227L52.4096 49.9227L52.4096 47.6354"/>
	<path fill="white" d="M74.498 61.3591L77.0081 61.3591L77.0081 63.6464L74.498 63.6464L74.498 61.3591"/>
	<path fill="white" d="M52.4096 61.3591L54.9197 61.3591L54.9197 63.6464L52.4096 63.6464L52.4096 61.3591"/>
	<path fill="white" d="M61.4458 35.0055L83.0322 35.0055C83.735 35.0055 84.1366 35.5028 84.1366 36.0994C84.1366 36.7956 83.6346 37.1934 83.0322 37.1934L61.4458 37.1934C60.743 37.1934 60.3414 36.6961 60.3414 36.0994C60.3414 35.5028 60.9438 35.0055 61.4458 35.0055"/>
	<path fill="white" d="M81.9277 47.6354L84.4378 47.6354L84.4378 49.9227L81.9277 49.9227L81.9277 47.6354"/>
	<path fill="white" d="M59.8393 47.6354L62.3494 47.6354L62.3494 49.9227L59.8393 49.9227L59.8393 47.6354"/>
	<path fill="white" d="M81.9277 61.3591L84.4378 61.3591L84.4378 63.6464L81.9277 63.6464L81.9277 61.3591"/>
	<path fill="white" d="M59.8393 61.3591L62.3494 61.3591L62.3494 63.6464L59.8393 63.6464L59.8393 61.3591"/>
</svg>
