<?xml version="1.0" encoding="utf-8" ?>
<svg xmlns="http://www.w3.org/2000/svg" xmlns:xlink="http://www.w3.org/1999/xlink" width="110" height="92">
	<path fill="white" d="M54.4434 92C39.1628 92 25.0966 84.636 16.4949 72.1272L14.6734 72.1272C11.7387 72.1272 9.10764 71.0175 6.98252 69C4.9586 66.9825 3.84545 64.2588 3.84545 61.3333L3.84545 53.7675C3.03588 53.4649 2.22631 53.0614 1.61914 52.3553C0.50598 51.2456 0 49.8333 0 48.4211L0 30.2632C0 27.7412 1.61914 25.6228 3.84545 24.9167L3.84545 19.8728C3.84545 16.9474 4.9586 14.3246 6.98252 12.2061C9.00644 10.1886 11.7387 9.07895 14.6734 9.07895L27.0193 9.07895C35.0138 3.12719 44.425 0 54.4434 0C64.4618 0 73.873 3.12719 81.8675 9.07895L96.5409 9.07895C101.803 9.07895 106.053 13.3158 106.053 18.5614L106.053 24.9167C108.28 25.6228 110 27.7412 110 30.2632L110 48.4211C110 50.943 108.381 53.0614 106.053 53.7675L106.053 61.3333C106.053 64.2588 104.94 66.8816 102.916 69C100.892 71.0175 98.1601 72.1272 95.2254 72.1272L92.3919 72.1272C83.7902 84.636 69.724 92 54.4434 92"/>
	<path fill="#FFE9E5" d="M97.2494 45.6975C97.2494 69.4311 77.9485 88.6712 54.1399 88.6712C30.3312 88.6712 11.0303 69.4311 11.0303 45.6975C11.0303 21.9637 30.3312 2.72375 54.1399 2.72375C77.9485 2.72375 97.2494 21.9637 97.2494 45.6975"/>
	<path fill="#2D1B0A" d="M54.1399 89.6799C29.8529 89.6799 10.0185 70.0089 10.0185 45.6975C10.0185 21.3861 29.7517 1.715 54.1399 1.715C78.5282 1.715 98.2614 21.3861 98.2614 45.6975C98.2614 70.0089 78.427 89.6799 54.1399 89.6799M54.1399 3.73254C30.9661 3.73254 12.0424 22.4957 12.0424 45.6975C12.0424 68.7983 30.8649 87.6624 54.1399 87.6624C77.3138 87.6624 96.2375 68.8992 96.2375 45.6975C96.1363 22.5966 77.3138 3.73254 54.1399 3.73254"/>
	<path fill="#FF4D78" d="M10.4738 50.6403L5.31279 50.6403C4.60442 50.6403 3.99725 50.3377 3.49127 49.8333C2.98529 49.3289 2.6817 48.7236 2.6817 48.0175L2.6817 29.8596C2.6817 28.4473 3.79486 27.2368 5.31279 27.2368L10.4738 27.2368C11.8905 27.2368 13.1049 28.3464 13.1049 29.8596L13.1049 48.0175C13.1049 48.7236 12.8013 49.3289 12.2953 49.8333C11.8905 50.3377 11.1822 50.6403 10.4738 50.6403M103.979 50.6403L98.8179 50.6403C97.4011 50.6403 96.1868 49.5307 96.1868 48.0175L96.1868 29.8596C96.1868 28.4473 97.2999 27.2368 98.8179 27.2368L103.979 27.2368C105.396 27.2368 106.61 28.3464 106.61 29.8596L106.61 48.0175C106.61 49.4298 105.497 50.6403 103.979 50.6403"/>
	<path fill="#2D1B0A" d="M103.928 51.6492L98.7672 51.6492C96.7433 51.6492 95.1242 50.0351 95.1242 48.0176L95.1242 29.8597C95.1242 27.8421 96.7433 26.2281 98.7672 26.2281L103.928 26.2281C105.952 26.2281 107.571 27.8421 107.571 29.8597L107.571 48.0176C107.571 50.0351 105.952 51.6492 103.928 51.6492M98.7672 28.3465C97.8565 28.3465 97.1481 29.0527 97.1481 29.9606L97.1481 48.1185C97.1481 49.0263 97.8565 49.7325 98.7672 49.7325L103.928 49.7325C104.839 49.7325 105.547 49.0263 105.547 48.1185L105.547 29.9606C105.547 29.0527 104.839 28.3465 103.928 28.3465L98.7672 28.3465M10.4232 51.6492L5.26216 51.6492C4.2502 51.6492 3.44063 51.2456 2.73226 50.6404C2.02389 50.0351 1.7203 49.0263 1.7203 48.1185L1.7203 29.9606C1.7203 27.943 3.33944 26.2281 5.36335 26.2281L10.5244 26.2281C12.5483 26.2281 14.1674 27.943 14.1674 29.9606L14.1674 48.1185C14.1674 49.1272 13.7626 49.9342 13.1554 50.6404C12.3459 51.2456 11.4351 51.6492 10.4232 51.6492M5.26216 28.3465C4.35139 28.3465 3.64302 29.0527 3.64302 29.9606L3.64302 48.1185C3.64302 48.522 3.84541 48.9255 4.149 49.2281C4.45259 49.5307 4.85737 49.7325 5.26216 49.7325L10.4232 49.7325C10.8279 49.7325 11.2327 49.5307 11.5363 49.2281C11.8399 48.9255 12.0423 48.522 12.0423 48.1185L12.0423 29.9606C12.0423 29.0527 11.3339 28.3465 10.4232 28.3465L5.26216 28.3465"/>
	<path fill="#3BA7FF" d="M94.8206 68.7982L74.885 68.7982C68.206 68.7982 62.2355 64.5614 60.1105 58.2061L59.5033 56.3903C58.7948 54.2719 56.771 52.8596 54.5447 52.8596C52.3184 52.8596 50.2943 54.2719 49.5861 56.3903L48.9789 58.2061C46.8538 64.5614 40.8832 68.7982 34.2043 68.7982L14.2686 68.7982C12.2447 68.7982 10.2208 67.9912 8.80406 66.478C7.38731 65.0658 6.47655 63.0482 6.47655 61.0307L6.47655 19.5701C6.47655 17.5526 7.28612 15.5351 8.80406 14.1228C10.2208 12.7105 12.2447 11.8026 14.2686 11.8026L96.1361 11.8026C99.678 11.8026 102.613 14.728 102.613 18.2587L102.613 60.9298C102.613 62.9473 101.803 64.9649 100.285 66.3772C98.7673 67.7894 96.9457 68.7982 94.8206 68.7982"/>
	<path fill="#2D1B0A" d="M34.3055 69.807L14.3699 69.807C12.0423 69.807 9.81603 68.8991 8.0957 67.285C6.47656 65.671 5.5658 63.4517 5.5658 61.0306L5.5658 19.5701C5.5658 17.2499 6.47656 15.0306 8.0957 13.3157C9.71483 11.7017 11.9411 10.7938 14.3699 10.7938L96.2374 10.7938C100.386 10.7938 103.726 14.1228 103.726 18.2587L103.726 61.0306C103.726 63.3508 102.815 65.5701 101.196 67.285C99.5768 68.8991 97.3505 69.807 94.9218 69.807L74.9862 69.807C67.8013 69.807 61.5272 65.2675 59.1997 58.5087L58.5925 56.6929C57.9853 54.978 56.4674 53.8684 54.6458 53.8684C52.8243 53.8684 51.2052 54.978 50.6992 56.6929L50.092 58.5087C47.7645 65.1666 41.4904 69.807 34.3055 69.807M14.3699 12.8113C12.5483 12.8113 10.828 13.5175 9.61364 14.8289C8.29809 16.1403 7.58972 17.7543 7.58972 19.5701L7.58972 61.0306C7.58972 62.8464 8.29809 64.5613 9.61364 65.7719C10.9292 67.0833 12.5483 67.7894 14.3699 67.7894L34.3055 67.7894C40.5796 67.7894 46.1454 63.7543 48.1693 57.8026L48.7765 55.9868C49.586 53.4649 52.0147 51.7499 54.6458 51.7499C57.2769 51.7499 59.7056 53.4649 60.5152 55.9868L61.1224 57.8026C63.1463 63.7543 68.6109 67.6885 74.9862 67.7894L94.9218 67.7894C96.7434 67.7894 98.4637 67.0833 99.678 65.7719C100.994 64.4605 101.702 62.8464 101.702 61.0306L101.702 18.2587C101.702 15.2324 99.2733 12.8113 96.2374 12.8113L14.3699 12.8113"/>
	<path fill="#C7DDFF" d="M46.8186 38.9461C46.8186 44.1917 43.6815 48.9328 38.8242 50.9505C33.9668 52.9679 28.401 51.8584 24.6567 48.1259C20.8263 44.3933 19.7993 38.8451 21.8232 34.0031C23.8472 29.1609 28.6034 26.0338 33.8656 26.0338C40.9492 26.0338 46.8186 31.8846 46.8186 38.9461M88.3089 38.9461C88.3089 44.1917 85.172 48.9328 80.3146 50.9505C75.4572 52.9679 69.8913 51.8584 66.147 48.1259C62.4028 44.3933 61.2896 38.8451 63.3136 34.0031C65.3375 29.1609 70.0938 26.0338 75.3559 26.0338C82.5408 26.0338 88.3089 31.8846 88.3089 38.9461"/>
	<path fill="#2D1B0A" d="M33.7914 52.9605C30.1479 52.9605 26.6055 51.5482 23.8728 48.8245C19.7794 44.7894 18.7111 38.8377 20.8365 33.5921C22.9619 28.3465 28.1236 25.0175 33.7914 25.0175C41.4834 25.0175 47.7585 31.2719 47.7585 38.9386C47.7585 44.5877 44.3173 49.6315 39.1556 51.8508C37.435 52.557 35.6132 52.9605 33.7914 52.9605M33.7914 27.035C28.9333 27.035 24.5813 29.9605 22.7595 34.3991C20.9377 38.8377 21.9498 43.9824 25.391 47.4122C28.8321 50.8421 33.9939 51.8508 38.4471 50.035C42.9004 48.2193 45.8355 43.8815 45.8355 39.0394C45.8355 32.3815 40.4713 27.035 33.7914 27.035M75.389 52.9605C71.7454 52.9605 68.203 51.5482 65.4703 48.8245C61.4219 44.7894 60.3086 38.8377 62.434 33.5921C64.5595 28.3465 69.7212 25.0175 75.389 25.0175C83.081 25.0175 89.356 31.2719 89.356 38.9386C89.356 44.5877 85.9149 49.6315 80.7531 51.8508C79.0326 52.557 77.2108 52.9605 75.389 52.9605M75.389 27.035C70.5309 27.035 66.1788 29.9605 64.357 34.3991C62.5352 38.8377 63.5473 43.9824 66.9885 47.4122C70.4297 50.8421 75.5914 51.8508 80.0447 50.035C84.4979 48.2193 87.433 43.8815 87.433 39.0394C87.3318 32.3815 81.9677 27.035 75.389 27.035"/>
</svg>
