<?xml version="1.0" encoding="utf-8" ?>
<svg xmlns="http://www.w3.org/2000/svg" xmlns:xlink="http://www.w3.org/1999/xlink" width="92" height="86">
	<path fill="white" d="M19.9387 86C19.0356 86 18.0321 85.9002 17.1289 85.8005C11.9107 85.0023 7.19424 82.3086 4.08337 78.0186C0.872161 73.8283 -0.432394 68.6404 0.270058 63.3527C1.07286 58.1647 3.78232 53.4756 8.09739 50.3828C11.5093 47.7889 15.724 46.3921 20.0391 46.3921C22.7485 46.3921 25.458 46.9907 27.9668 47.9884C28.6692 46.0928 29.0706 43.9977 29.0706 41.9026C29.0706 40.5058 28.8699 39.0093 28.5689 37.6125C25.8594 38.9095 22.9493 39.6079 19.9387 39.6079C15.5233 39.6079 11.3086 38.2111 7.79634 35.5174C3.58162 32.2251 0.872161 27.536 0.169708 22.2483C-0.532745 17.0603 0.972511 11.8724 4.18372 7.7819C7.49529 3.59165 12.2118 0.897912 17.5303 0.199536C18.3331 0 19.2363 0 20.0391 0C24.4545 0 28.6692 1.39675 32.0811 4.19026C38.3029 8.87935 41.1127 16.9606 39.3064 24.5429C41.213 25.2413 43.22 25.5406 45.227 25.5406C47.7358 25.5406 50.3449 24.942 52.653 23.8445C50.8467 15.6636 54.5596 7.18329 61.8852 2.7935C64.8957 0.99768 68.408 0 72.0206 0C79.0451 0 85.5679 3.69142 89.1805 9.67749C91.89 14.1671 92.6928 19.5545 91.3882 24.6427C90.0837 29.7309 86.8725 34.0209 82.2563 36.7146C79.1455 38.5104 75.6332 39.5081 72.1209 39.5081C68.5083 39.5081 64.8957 38.5104 61.7849 36.6148C61.2831 38.3109 60.9821 40.007 60.9821 41.8028C60.9821 44.1972 61.4838 46.4919 62.387 48.6868C65.2971 47.0905 68.709 46.1926 72.0206 46.1926C76.6367 46.1926 81.1525 47.7889 84.7651 50.7819C93.1945 57.7657 94.2984 70.2367 87.3742 78.6172C83.5609 83.1067 78.0416 85.7007 72.1209 85.7007C67.5048 85.7007 62.9891 84.1044 59.4768 81.1114C53.1547 75.9234 50.7463 67.2436 53.3554 59.5615C50.646 57.8654 47.4347 56.9675 44.2235 56.9675C41.8151 56.9675 39.6074 57.5661 38.1022 58.1647L38.8046 59.4617C41.5141 67.6427 38.8046 76.522 31.9808 81.8097C28.3682 84.6032 24.2538 86 19.9387 86M20.0391 56.3689C17.9317 56.3689 15.8244 57.0673 14.1184 58.3643C12.0111 59.9606 10.6062 62.2552 10.2047 64.7494C9.80335 67.3434 10.5058 69.9374 12.1114 72.0325C13.717 74.1276 16.0251 75.5244 18.6342 75.9234C19.1359 76.0232 19.5373 76.0232 20.0391 76.0232C22.1464 76.0232 24.1535 75.3248 25.8594 74.1276C28.6692 72.0325 30.0741 68.6404 29.7731 65.2483C29.0706 66.3457 28.3682 67.4432 27.8664 68.2413L17.9317 69.239L17.9317 58.5638C19.437 57.5661 20.2398 57.0673 21.0426 56.4687C20.7415 56.3689 20.3401 56.3689 20.0391 56.3689M62.7884 69.1392C63.3905 70.8353 64.394 72.4316 65.7989 73.6288C67.5048 75.1253 69.8129 75.9234 72.0206 75.9234C74.9308 75.9234 77.7406 74.6265 79.5469 72.4316C83.0591 68.3411 82.457 62.1555 78.2423 58.6636C76.436 57.1671 74.429 56.4687 71.8199 56.3689C70.716 56.3689 69.9132 56.5684 69.1104 56.768C69.9132 57.2668 70.6157 57.7657 71.2178 58.065L72.2213 58.6636L72.2213 69.1392L62.7884 69.1392M19.9387 10.1763C19.5373 10.1763 19.1359 10.1763 18.7345 10.2761C16.1254 10.5754 13.717 11.9722 12.1114 14.0673C10.5058 16.0626 9.80335 18.6566 10.1044 21.1508C10.4054 23.7448 11.8104 26.1392 13.9177 27.7355C15.6237 29.0325 17.731 29.7309 19.9387 29.7309C21.0426 29.7309 22.1464 29.5313 23.15 29.232C21.745 28.1346 20.0391 26.9374 18.8349 26.1392L17.9317 14.8654L28.3682 14.8654C27.7661 13.8677 26.9633 12.9698 25.9598 12.1717C24.1535 10.8747 22.1464 10.1763 19.9387 10.1763M67.6052 28.6334C69.0101 29.3318 70.5153 29.7309 72.1209 29.7309C73.9273 29.7309 75.6332 29.232 77.1385 28.3341C79.3462 27.0371 81.0521 24.8422 81.6542 22.2483C82.3567 19.7541 81.9553 17.0603 80.6507 14.8654C78.8444 11.8724 75.5329 10.0766 72.1209 10.0766C70.415 10.0766 68.709 10.5754 67.2038 11.4733C65.7989 12.3712 64.5947 13.5684 63.7919 14.8654L72.6227 14.8654L72.6227 25.3411C70.5153 26.6381 68.8094 27.7355 67.6052 28.6334"/>
	<path fill="#3BA7FF" d="M19.9077 36.4153C16.1947 36.4153 12.5822 35.2181 9.67202 32.9235C6.0594 30.13 3.75134 26.1392 3.24959 21.6497C2.64749 17.2599 3.95204 12.8701 6.66151 9.37822C9.47132 5.78657 13.4853 3.49191 18.0012 2.8933C18.7036 2.8933 19.406 2.8933 20.1084 2.8933C23.8214 2.8933 27.434 4.09052 30.3442 6.38518C35.9638 10.6752 38.2719 18.058 36.0642 24.8423L31.9499 24.6427C33.8564 18.4571 32.1506 12.7703 27.8354 9.47799C25.6278 7.68216 22.9182 6.78425 19.9986 6.78425C19.5063 6.78425 18.9043 6.78425 18.4025 6.88402C14.9906 7.28309 11.8797 9.07891 9.77237 11.7726C7.66501 14.4664 6.76186 17.7587 7.16326 21.1508C7.56466 24.543 9.37097 27.6358 12.0804 29.7309C14.3884 31.4269 16.9976 32.3249 19.9077 32.3249C22.5168 32.3249 25.0257 31.5267 27.2334 30.13L30.3442 32.8237C26.6313 35.4177 23.3197 36.4153 19.9077 36.4153"/>
	<path fill="#2D1B0A" d="M19.9387 37.413C15.9247 37.413 12.1114 36.116 9.10084 33.7216C5.28752 30.7285 2.87911 26.5383 2.27701 21.7494C1.67491 17.1601 2.97946 12.5708 5.88963 8.77959C8.90014 4.98841 13.1149 2.49421 17.9317 1.8956C18.6341 1.8956 19.4369 1.8956 20.1394 1.8956C24.1534 1.8956 27.9667 3.19258 30.9772 5.58702C36.8979 10.0766 39.3063 17.9582 36.9983 25.1415L36.3961 27.1369L30.6762 25.3411L31.2783 23.4455C32.7835 18.6566 31.1779 13.3689 27.1639 10.3759C25.1569 8.77959 22.6481 7.88168 19.9387 7.88168C19.5373 7.88168 18.9352 7.88168 18.5338 7.98145C15.3226 8.38052 12.4124 9.97681 10.5057 12.471C8.59909 14.9652 7.69593 17.9582 8.09733 21.1508C8.49874 24.2436 10.1043 27.1369 12.6131 29.0325C14.7205 30.6288 17.2292 31.4269 19.8383 31.4269C22.1464 31.4269 24.5548 30.7285 26.6622 29.4316L28.2678 28.2343L31.6797 33.123L30.0741 34.3202C27.0636 36.3156 23.5513 37.413 19.9387 37.413M20.1394 3.89096C19.4369 3.89096 18.8348 3.89096 18.1324 3.99073C13.9177 4.48957 10.1043 6.5847 7.39488 9.97681C4.78577 13.3689 3.58157 17.4594 4.18367 21.5499C4.68542 25.7401 6.79278 29.5313 10.2047 32.1253C12.9142 34.2204 16.3261 35.4176 19.8383 35.4176C23.0495 35.4176 26.2608 34.42 28.8699 32.6241L27.6657 30.9281C25.1569 32.5244 22.4474 33.3225 19.738 33.3225C16.6271 33.3225 13.8173 32.4246 11.3085 30.529C8.39839 28.2343 6.39138 24.8422 5.98998 21.2506C5.58857 17.5592 6.59208 13.9675 8.79979 11.174C11.1079 8.28075 14.5198 6.28539 18.1324 5.88632C18.6341 5.78655 19.3366 5.78655 19.8383 5.78655C23.0495 5.78655 25.9597 6.78423 28.2678 8.67982C32.7835 12.1717 34.7905 18.2575 32.9842 23.9443L34.8909 24.5429C36.9983 18.1578 34.7905 11.174 29.472 7.1833C27.0636 5.08818 23.6516 3.89096 20.1394 3.89096"/>
	<path fill="#3BA7FF" d="M20.0622 82.7077C19.2593 82.7077 18.4565 82.6079 17.6537 82.5082C13.2382 81.9096 9.22426 79.5151 6.5148 75.9235C3.80534 72.3318 2.70148 67.942 3.30359 63.5523C3.90569 59.1625 6.3141 55.1717 9.92671 52.478C12.8369 50.2831 16.4495 49.0859 20.0622 49.0859C23.3736 49.0859 26.5849 50.0836 29.3946 51.8794L27.9897 55.7703C25.0797 53.775 22.5709 52.9768 20.0622 52.9768C17.2523 52.9768 14.6432 53.8748 12.3351 55.5708C9.52531 57.5662 7.81935 60.5592 7.3176 63.9513C6.81585 67.3434 7.719 70.6358 9.72601 73.4293C11.733 76.2228 14.7436 77.9188 18.1554 78.4177C18.7575 78.5175 19.3596 78.5175 19.9618 78.5175C22.7715 78.5175 25.3806 77.6195 27.5884 75.9235C32.0039 72.5314 33.8102 66.7448 32.0039 61.4571L35.516 59.2622C38.1251 67.0441 35.8172 74.6265 29.9967 79.0163C27.187 81.5105 23.6747 82.7077 20.0622 82.7077"/>
	<path fill="#2D1B0A" d="M20.0391 83.7054C19.1359 83.7054 18.3331 83.6056 17.5303 83.5058C12.9142 82.9072 8.59914 80.3133 5.68898 76.5221C2.87917 72.7309 1.67497 68.1416 2.27707 63.4525C2.87917 58.8631 5.48828 54.5731 9.3016 51.6798C12.4125 49.3852 16.2258 48.0882 20.0391 48.0882C23.451 48.0882 26.8629 49.0859 29.8734 51.0812L31.479 52.2785L28.1675 57.2668L26.5619 56.0696C24.6552 54.7727 22.3471 54.0743 20.0391 54.0743C17.43 54.0743 15.1219 54.8724 12.9142 56.4687C10.4054 58.2645 8.79984 60.9583 8.29809 64.1508C7.79634 67.2437 8.59914 70.2367 10.5058 72.9304C12.3121 75.4246 15.0216 77.0209 18.2328 77.5198C18.7345 77.6195 19.3366 77.6195 19.9222 77.6195C22.4475 77.6195 24.9563 76.8214 26.9633 75.2251C31.0776 72.0325 32.6832 66.7448 31.0776 61.8562L30.4755 60.0604L36.1955 58.1648L36.7976 60.0604C39.206 67.3434 36.7976 75.4246 30.6762 80.014C27.6657 82.4084 24.0531 83.7054 20.0391 83.7054M20.0391 50.0836C16.6272 50.0836 13.2153 51.181 10.5058 53.2761C7.09389 55.7703 4.78583 59.5615 4.28408 63.652C3.68197 67.8423 4.78583 71.9327 7.29459 75.3249C9.80335 78.717 13.6167 81.0116 17.731 81.5105C18.5338 81.6102 19.2363 81.71 20.0391 81.71C23.5514 81.71 26.7626 80.5128 29.2713 78.3179C34.7906 74.1276 36.9983 67.0441 34.7906 60.5592L32.8839 61.2576C34.7906 66.8446 32.8839 73.13 28.0671 76.8214C25.6587 78.6172 22.8489 79.6149 19.8384 79.6149C19.2363 79.6149 18.5338 79.6149 17.8314 79.5151C14.1184 79.0163 10.8068 77.0209 8.79984 74.1276C6.59214 71.0348 5.68898 67.543 6.19073 63.9513C6.79284 60.1601 8.69949 56.9675 11.6097 54.8724C14.1184 53.0766 16.9282 52.0789 19.9222 52.0789C22.5478 52.0789 25.3577 52.8771 27.6657 54.4734L28.7696 52.8771C26.0601 51.0812 23.0496 50.0836 20.0391 50.0836"/>
	<path fill="#3BA7FF" d="M72.1211 82.6079C68.2075 82.6079 64.3941 81.2113 61.3836 78.717C55.9647 74.2274 53.8573 66.6451 56.2658 59.9606L60.3801 60.3596C58.2728 66.3457 59.778 72.1323 63.9927 75.5244C66.3008 77.4201 69.2109 78.5174 72.2538 78.5174C76.0347 78.5174 79.6474 76.8214 82.1561 73.9281C86.672 68.5406 85.9695 60.4594 80.4502 55.9699C78.1422 54.0743 75.1316 52.9769 72.2538 52.9769C69.813 52.9769 67.4046 53.6752 65.3976 54.9722L62.4875 52.079C65.9997 49.8841 69.1106 48.9861 72.3218 48.9861C76.2354 48.9861 80.1491 50.3829 83.1596 52.8771C90.2845 58.7634 91.288 69.3389 85.3673 76.5221C81.8551 80.413 77.1386 82.6079 72.1211 82.6079"/>
	<path fill="#2D1B0A" d="M72.121 83.6056C68.0066 83.6056 63.9926 82.1091 60.7814 79.5152C54.9611 74.7263 52.8537 66.7448 55.3625 59.6613L55.9646 57.8655L61.6845 59.7611L61.0825 61.5569C59.3765 66.3458 60.7814 71.6335 64.6951 74.7263C66.9028 76.5221 69.6122 77.5198 72.3217 77.5198C75.834 77.5198 79.1455 75.9235 81.4536 73.2298C83.4606 70.8353 84.4641 67.7425 84.163 64.6497C83.862 61.5569 82.3567 58.6636 79.9483 56.768C77.841 54.9722 75.0312 53.9745 72.3217 53.9745C70.114 53.9745 67.9063 54.6729 65.9996 55.7704L64.2937 56.768L61.0825 51.6799L62.6881 50.6822C65.5982 48.8864 68.9098 47.8887 72.204 47.8887C76.3357 47.8887 80.5504 49.3852 83.6613 51.9792C91.1876 58.1648 92.2914 69.4386 85.9694 77.021C82.3567 81.311 77.3392 83.6056 72.121 83.6056M57.1688 60.2599C54.9611 66.5453 56.8677 73.6288 61.9856 77.9189C64.7954 80.3133 68.408 81.6103 72.121 81.6103C76.8375 81.6103 81.2529 79.6149 84.6648 75.8237C90.1841 69.1393 89.2809 59.1625 82.5574 53.5755C79.7476 51.2808 76.0347 49.8841 72.3217 49.8841C69.3112 49.8841 66.401 50.6822 63.8923 52.2785L64.8958 53.9745C67.0031 52.5778 69.6122 51.8794 72.204 51.8794C75.3322 51.8794 78.6438 53.0766 81.0522 55.072C83.862 57.3667 85.6683 60.659 86.0697 64.3504C86.4711 68.0418 85.2669 71.6335 82.9588 74.427C80.2494 77.6196 76.3357 79.4154 72.204 79.4154C69.0101 79.4154 65.8993 78.3179 63.3905 76.2228C58.8747 72.6312 57.1688 66.4455 59.1758 60.9583L57.1688 60.2599"/>
	<path fill="#3BA7FF" d="M72.1209 36.4154C68.2073 36.4154 64.2936 35.0186 61.2831 32.5244L63.0894 28.833C66.2002 31.3272 69.1105 32.4247 72.1209 32.4247C74.429 32.4247 76.6367 31.8261 78.6438 30.6288C81.5538 28.833 83.6613 26.0395 84.5645 22.7472C85.4676 19.4548 84.9659 15.9629 83.1595 13.0697C80.8514 9.17872 76.5363 6.78429 72.0015 6.78429C69.7125 6.78429 67.5049 7.3829 65.4978 8.58011C60.681 11.4734 58.2726 17.0604 59.4768 22.3481L55.7638 24.2437C53.9575 16.2622 57.0684 8.97918 63.3905 5.08823C65.9995 3.59171 68.9098 2.6938 71.9202 2.6938C77.841 2.6938 83.4605 5.88638 86.4711 10.8748C88.7792 14.666 89.4816 19.2553 88.2774 23.5453C87.1736 27.8353 84.3638 31.5267 80.5504 33.8214C78.0416 35.5175 75.1315 36.4154 72.1209 36.4154"/>
	<path fill="#2D1B0A" d="M72.1205 37.413C68.0066 37.413 63.7918 35.9165 60.681 33.3225L59.0754 32.1253L62.989 27.536L64.5946 28.7332C66.8023 30.529 69.5118 31.5267 72.2213 31.5267C74.3286 31.5267 76.436 30.9281 78.2423 29.8307C80.9518 28.1346 82.8584 25.5406 83.6612 22.5476C84.464 19.5546 84.0626 16.2622 82.3567 13.6683C80.2493 10.0766 76.3356 7.88171 72.0206 7.88171C69.9132 7.88171 67.8059 8.48032 65.9995 9.57777C61.5841 12.2715 59.2761 17.3597 60.4803 22.2483L60.8817 24.2437L55.0614 25.6404L54.66 23.6451C52.954 16.2622 56.2656 8.58009 62.989 4.4896C65.8992 2.79354 69.0101 1.9954 72.0206 1.9954C78.3426 1.9954 84.163 5.28774 87.4745 10.6752C89.9833 14.7657 90.6857 19.6543 89.3812 24.1439C88.2773 28.6335 85.2668 32.5244 81.2528 35.0186C78.3426 36.5151 75.3321 37.413 72.1205 37.413M61.8852 31.826C64.695 34.1207 68.408 35.5174 72.1205 35.5174C74.9307 35.5174 77.6402 34.7193 79.9483 33.123C83.5609 30.9281 86.2703 27.4362 87.2738 23.4455C88.3777 19.4548 87.7756 15.1648 85.5679 11.5731C82.6577 6.78426 77.4395 3.89099 71.9202 3.89099C69.2108 3.89099 66.5013 4.68914 63.8922 6.18566C57.9715 9.7773 55.0614 16.6613 56.5666 23.246L58.5736 22.8469C57.2691 17.0604 59.8782 11.174 65.0964 7.98148C67.3041 6.6845 69.6122 6.08589 72.1205 6.08589C77.0381 6.08589 81.6542 8.67985 84.163 12.8701C86.0696 15.9629 86.6717 19.7541 85.6682 23.3457C84.6647 26.8376 82.457 29.8307 79.3461 31.826C77.1384 33.123 74.8304 33.8214 72.3216 33.8214C69.1104 33.8214 65.9995 32.7239 63.4908 30.6288L61.8852 31.826"/>
	<path fill="#3BA7FF" d="M62.7883 65.8469C59.1757 58.3643 51.9505 53.8747 44.1231 53.8747C36.2958 53.8747 29.2713 58.2645 25.759 65.2483L20.9422 65.8469L20.9422 59.8608C27.9667 55.8701 32.0811 49.0859 32.0811 41.7031C32.0811 34.2205 27.9667 27.3365 21.444 23.8446L20.9422 17.5592L27.1639 17.5592C31.1779 24.4432 37.8011 28.3341 45.227 28.3341C52.5526 28.3341 59.3764 24.4432 62.989 18.058L69.5118 17.5592L69.5118 23.3457C62.1862 27.2367 57.9715 34.1207 57.9715 41.7031C57.9715 49.2854 62.0859 56.1694 68.8093 59.7611L69.3111 65.8469L62.7883 65.8469"/>
	<path fill="#2D1B0A" d="M70.3146 66.8446L62.1862 66.8446L61.5841 65.6473C58.3729 59.0627 51.5491 54.8724 44.1231 54.8724C36.6972 54.8724 29.9737 59.0627 26.6622 65.6473L26.0601 66.8446L19.9387 66.8446L19.9387 59.2622L20.9422 58.6636C27.1639 55.0719 31.0776 48.587 31.0776 41.703C31.0776 34.5197 27.1639 28.0348 20.9422 24.7425L19.9387 24.1439L19.9387 16.5615L27.766 16.5615C31.9807 23.7448 38.2025 27.3364 45.227 27.3364C52.2515 27.3364 58.674 23.5453 62.0859 17.5592L70.5153 16.5615L70.5153 23.9443L69.5118 24.5429C62.989 27.935 58.975 34.5197 58.975 41.703C58.975 48.8863 62.8887 55.471 69.3111 58.8631L70.3146 59.4617L70.3146 66.8446M63.3904 64.8492L68.3076 64.8492L68.3076 60.6589C61.3834 56.9675 56.968 49.6845 56.968 41.703C56.968 33.8214 61.3834 26.5383 68.5083 22.7471L68.5083 18.5569L63.8922 18.5569C60.1792 25.1416 52.954 29.3318 45.227 29.3318C37.5 29.3318 30.4755 25.3411 26.5618 18.5569L21.9457 18.5569L21.9457 22.9467C28.7695 26.6381 33.0846 33.8214 33.0846 41.703C33.0846 49.3852 28.7695 56.5685 21.9457 60.4594L21.9457 64.8492L24.8559 64.8492C28.5688 57.4664 35.8944 52.877 44.1231 52.877C52.2515 52.877 59.8782 57.5661 63.3904 64.8492"/>
</svg>
