<?xml version="1.0" encoding="utf-8" ?>
<svg xmlns="http://www.w3.org/2000/svg" xmlns:xlink="http://www.w3.org/1999/xlink" width="96" height="80">
	<path fill="white" d="M48 80C25.167 80 6.59619 61.6311 6.59619 39.0464L6.59619 19.1719L2.63848 19.1719C1.21776 19.1719 0 17.9674 0 16.5621L0 8.9335C0 7.52823 1.21776 6.32371 2.63848 6.32371L15.019 6.32371L15.019 0L22.833 0L22.833 6.32371L73.37 6.32371L73.37 0L81.1839 0L81.1839 6.32371L93.3615 6.32371C94.7822 6.32371 96 7.52823 96 8.9335L96 16.9636C95.4926 18.4693 94.4778 19.1719 93.3615 19.1719L89.5053 19.1719L89.5053 39.0464C89.4038 61.6311 70.7315 80 48 80"/>
	<path fill="#2D1B0A" d="M93.3615 8.33116L79.1543 8.33116L79.1543 2.00745L75.3996 2.00745L75.3996 8.33116L20.8034 8.33116L20.8034 2.00745L17.0486 2.00745L17.0486 8.33116L2.63848 8.33116C2.33404 8.33116 2.0296 8.63229 2.0296 8.93342L2.0296 16.562C2.0296 16.8631 2.33404 17.1642 2.63848 17.1642L8.62579 17.1642L8.62579 39.0463C8.62579 60.4266 26.2833 77.9924 48 77.9924C69.6152 77.9924 87.3742 60.4266 87.4757 39.0463L87.4757 17.1642L93.3615 17.1642C93.666 17.1642 93.8689 16.8631 93.9704 16.562L93.9704 8.93342C93.9704 8.63229 93.666 8.33116 93.3615 8.33116"/>
	<path fill="#6D6D6D" d="M69.8182 46.675C69.8182 58.5938 60.0498 68.2561 48 68.2561C35.9501 68.2561 26.1818 58.5938 26.1818 46.675C26.1818 34.7563 35.9501 25.0942 48 25.0942C60.0498 25.0942 69.8182 34.7563 69.8182 46.675"/>
	<path fill="#2D1B0A" d="M48 69.2597C35.4165 69.2597 25.167 59.1217 25.167 46.675C25.167 34.2283 35.4165 24.0903 48 24.0903C60.5835 24.0903 70.833 34.2283 70.833 46.675C70.833 59.1217 60.5835 69.2597 48 69.2597M48 26.0978C36.5328 26.0978 27.1966 35.3325 27.1966 46.675C27.1966 58.0175 36.5328 67.2522 48 67.2522C59.4672 67.2522 68.8034 58.0175 68.8034 46.675C68.8034 35.3325 59.4672 26.0978 48 26.0978"/>
	<path fill="#FFFDFD" d="M58.3508 48.4818C58.3508 54.1363 53.7165 58.7202 47.9999 58.7202C42.2832 58.7202 37.6489 54.1363 37.6489 48.4818C37.6489 42.8273 42.2832 38.2434 47.9999 38.2434C53.7165 38.2434 58.3508 42.8273 58.3508 48.4818"/>
</svg>
