<?xml version="1.0" encoding="utf-8" ?>
<svg xmlns="http://www.w3.org/2000/svg" xmlns:xlink="http://www.w3.org/1999/xlink" width="50" height="80">
	<path fill="white" d="M18.4023 80C9.50289 80 7.00307 79.9 6.20313 79.8C6.00315 79.8 5.90315 79.8 5.80316 79.8C1.90344 79.3 0 76 0 72.8L0 5.7C0.503538 3.5 2.30341 0 6.80309 0L42.8005 0C47.8002 0 49.8 3.4 50 5.7L50 74.6C50 75.1 49.9 76.5 48.7001 77.8C47.5002 79 45.7003 79.7 43.2005 79.7C41.0006 79.9 28.5015 80 18.4023 80"/>
	<path fill="#5ADCE0" d="M3.00295 5.8989L3.00295 72.8989C3.00295 72.8989 3.00295 76.3989 6.20305 76.7989C9.40282 77.1989 39.3006 76.8989 43.2004 76.7989C47.1001 76.7989 47.0003 74.6989 47.0003 74.6989L47.0003 5.8989C47.0003 5.8989 46.8001 2.9989 42.8004 2.9989C38.8007 2.9989 10.1028 2.9989 6.803 2.9989C3.50324 2.9989 3.00295 5.8989 3.00295 5.8989"/>
	<path fill="#2D1B0A" d="M18.3021 78C12.3026 78 7.30291 77.9 6.00301 77.8C2.70324 77.4 1.9033 74.4 1.9033 72.9L1.9033 5.8C2.10329 4.4 3.40319 2 6.70296 2L42.7004 2C46.6001 2 47.8 4.5 47.9 5.8L47.9 74.7C47.9 74.8 47.9 75.7 47.1001 76.5C46.3001 77.4 44.9002 77.8 43.1004 77.8C41.2005 77.9 28.4014 78 18.3021 78M4.00315 6.1L4.00315 73C4.00315 73.3 4.00315 75.6 6.30299 75.9C9.40276 76.3 39.0006 76 43.2003 75.9C45.4002 75.9 46.0001 75.2 46.0001 74.8L46.0001 6C46.0001 5.9 45.7002 4.1 42.8004 4.1L6.80295 4.1C4.60311 4 4.10314 5.6 4.00315 6.1"/>
	<path fill="#EBF9FF" d="M10.353 8.43L10.353 30.93C10.353 30.93 10.8529 31.53 11.6529 31.53C12.3528 31.53 38.2509 31.53 39.0508 31.53C39.7509 31.53 39.9509 30.93 39.9509 30.93L39.9509 8.63C39.9509 8.63 39.9509 7.73 38.7509 7.73C37.651 7.73 12.2528 7.73 11.5529 7.73C10.7529 7.73 10.353 8.43 10.353 8.43"/>
	<path fill="#2D1B0A" d="M39.0508 32.53L11.6528 32.53C10.4529 32.53 9.65293 31.63 9.55294 31.53L9.35295 8.13C9.55294 7.83 10.1529 6.73 11.5528 6.73L38.7509 6.73C40.3507 6.73 40.9506 7.83 40.9506 8.63L40.9506 31.13C40.7508 31.73 40.1507 32.53 39.0508 32.53M11.3528 30.53C11.4528 30.53 11.5528 30.63 11.6528 30.63L38.9509 30.63L38.9509 8.83C38.9509 8.83 38.8508 8.83 38.7509 8.83L11.5528 8.83C11.4528 8.83 11.4528 8.83 11.3528 8.93L11.3528 30.53"/>
	<path fill="#EBF9FF" d="M10.053 53.03C10.053 44.73 16.8525 37.93 25.3519 37.93C33.7513 37.93 40.5508 44.73 40.5508 53.03C40.5508 61.43 33.7513 68.23 25.3519 68.23C16.8525 68.23 10.053 61.43 10.053 53.03M20.1523 53.13C20.1523 55.83 22.3521 57.93 25.1519 57.93C27.8517 57.93 30.1516 55.83 30.1516 53.13C30.1516 50.53 27.8517 48.33 25.1519 48.33C22.3521 48.33 20.1523 50.53 20.1523 53.13"/>
	<path fill="#2D1B0A" d="M25.3519 69.23C16.3526 69.23 9.05315 61.93 9.05315 53.03C9.05315 44.13 16.3526 36.93 25.3519 36.93C34.2514 36.93 41.5508 44.13 41.5508 53.03C41.5508 62.03 34.2514 69.23 25.3519 69.23M25.3519 38.93C17.4525 38.93 11.053 45.23 11.053 53.03C11.053 60.83 17.4525 67.23 25.3519 67.23C33.1515 67.23 39.5509 60.83 39.5509 53.03C39.5509 45.33 33.1515 38.93 25.3519 38.93M25.152 58.93C21.7523 58.93 19.1525 56.43 19.1525 53.13C19.1525 49.93 21.8522 47.33 25.152 47.33C28.4517 47.33 31.1516 50.03 31.1516 53.13C31.1516 56.33 28.4517 58.93 25.152 58.93M25.152 49.33C22.9522 49.33 21.1523 51.03 21.1523 53.13C21.1523 55.23 22.9522 56.93 25.152 56.93C27.3519 56.93 29.1518 55.23 29.1518 53.13C29.1518 51.13 27.3519 49.33 25.152 49.33"/>
</svg>
