<?xml version="1.0" encoding="utf-8" ?>
<svg xmlns="http://www.w3.org/2000/svg" xmlns:xlink="http://www.w3.org/1999/xlink" width="114" height="80">
	<path fill="white" d="M10.1555 80C4.57991 80 0 75.4 0 69.8L0 10.2C0 4.6 4.57991 0 10.1555 0L103.845 0C109.42 0 114 4.6 114 10.2L114 69.8C114 75.3 109.321 80 103.845 80L10.1555 80"/>
	<path fill="#2D1B0A" d="M103.845 77L10.1555 77C6.17293 77 2.9869 73.8 2.9869 69.8L2.9869 10.2C2.9869 6.2 6.17293 3 10.1555 3L103.845 3C107.827 3 111.013 6.2 111.013 10.2L111.013 69.8C111.013 73.7 107.728 77 103.845 77"/>
	<path fill="#2D1B0A" d="M103.844 78L10.1555 78C5.67514 78 1.9913 74.3 1.9913 69.8L1.9913 10.2C1.9913 5.7 5.67514 2 10.1555 2L103.844 2C108.325 2 112.008 5.7 112.008 10.2L112.008 69.8C112.008 74.3 108.225 78 103.844 78M10.1555 4C6.67078 4 3.98257 6.7 3.98257 10.2L3.98257 69.8C3.98257 73.2 6.77034 76 10.1555 76L103.844 76C107.229 76 110.017 73.2 110.017 69.8L110.017 10.2C110.017 6.7 107.329 4 103.844 4L10.1555 4"/>
	<path fill="#FFFDFD" d="M104.542 72.1L32.9555 72.1C32.0594 72.1 31.1633 69.9 31.1633 67.6L31.1633 12.8C31.1633 10.6 32.0594 8.3 32.9555 8.3L104.542 8.3C105.438 8.3 106.334 10.5 106.334 12.8L106.334 67.6C106.334 69.9 105.438 72.1 104.542 72.1"/>
	<path fill="#2D1B0A" d="M104.542 73.1L32.9555 73.1C31.0638 73.1 30.1677 69.8 30.1677 67.6L30.1677 12.8C30.1677 10.6 31.0638 7.3 32.9555 7.3L104.542 7.3C106.433 7.3 107.329 10.6 107.329 12.8L107.329 67.6C107.329 69.9 106.533 73.1 104.542 73.1M33.1546 71.1L104.542 71.1C104.84 70.8 105.438 69.4 105.438 67.6L105.438 12.8C105.438 11 104.84 9.6 104.542 9.3L33.2542 9.3C32.9555 9.6 32.3581 11.1 32.3581 12.8L32.3581 67.6C32.159 69.4 32.7564 70.8 33.1546 71.1"/>
	<path fill="white" d="M21.207 35.9C21.207 38.3301 19.2456 40.3 16.8262 40.3C14.4068 40.3 12.4454 38.3301 12.4454 35.9C12.4454 33.47 14.4068 31.5 16.8262 31.5C19.2456 31.5 21.207 33.47 21.207 35.9"/>
	<path fill="white" d="M25.9861 11.9L7.76597 11.9C7.26815 11.9 6.8699 12.3 6.8699 12.8C6.8699 13.3 7.26815 13.7 7.76597 13.7L25.9861 13.7C26.4839 13.7 26.8821 13.3 26.8821 12.8C26.8821 12.3 26.4839 11.9 25.9861 11.9"/>
	<path fill="white" d="M25.9861 17.1L7.76597 17.1C7.26815 17.1 6.8699 17.5 6.8699 18C6.8699 18.5 7.26815 18.9 7.76597 18.9L25.9861 18.9C26.4839 18.9 26.8821 18.5 26.8821 18C26.8821 17.5 26.4839 17.1 25.9861 17.1"/>
	<path fill="white" d="M25.9861 61.5L7.76597 61.5C7.26815 61.5 6.8699 61.9 6.8699 62.4C6.8699 62.9 7.26815 63.3 7.76597 63.3L25.9861 63.3C26.4839 63.3 26.8821 62.9 26.8821 62.4C26.8821 61.9 26.4839 61.5 25.9861 61.5"/>
	<path fill="white" d="M25.9861 66.7L7.76597 66.7C7.26815 66.7 6.8699 67.1 6.8699 67.6C6.8699 68.1 7.26815 68.5 7.76597 68.5L25.9861 68.5C26.4839 68.5 26.8821 68.1 26.8821 67.6C26.8821 67.2 26.4839 66.7 25.9861 66.7"/>
	<path fill="#304352" d="M58.8469 26.33L62.9539 32.63L65.9408 29.33L59.4692 25.6049C59.4692 25.6049 59.1705 25.6049 58.9714 25.7299C58.8469 25.93 58.8469 26.33 58.8469 26.33"/>
	<path fill="#304352" d="M63.153 32.4299C63.153 32.4299 62.6552 32.5299 63.2526 33.6299C63.85 34.5299 103.974 74.3299 103.974 74.3299C103.974 74.3299 105.069 74.9299 105.965 74.0299C106.861 73.1299 106.065 71.9299 106.065 71.9299L67.036 29.8299C67.036 29.8299 66.1399 29.1299 65.9408 29.3552C65.7417 29.6299 63.153 32.4299 63.153 32.4299"/>
	<path fill="#304352" d="M87.546 58.03L103.974 74.33C103.974 74.33 105.069 74.93 105.965 74.03C106.861 73.13 106.065 71.93 106.065 71.93L90.4333 55.03L87.546 58.03"/>
</svg>
