<?xml version="1.0" encoding="utf-8" ?>
<svg xmlns="http://www.w3.org/2000/svg" xmlns:xlink="http://www.w3.org/1999/xlink" width="110" height="48">
	<path fill="white" d="M14.8591 48C13.7621 47.7019 12.9643 46.6087 12.9643 45.5155L12.9643 41.7391L11.269 41.441C4.88656 40.4472 0 34.882 0 28.4224L0 13.2174C0 5.96273 5.98354 0 13.2635 0L96.7339 0C104.014 0 110 5.96273 110 13.2174L110 28.4224C110 33.2919 107.305 37.8634 103.017 40.0497L101.92 40.646L101.92 45.4161C101.421 46.9068 100.424 47.6025 99.3268 47.6025L96.0358 47.6025C94.6397 47.6025 93.443 46.4099 93.443 45.0186L93.443 41.5404L21.441 41.5404L21.441 45.4161C21.441 46.9068 20.344 48 18.8482 48L14.8591 48"/>
	<path fill="#2D1B0A" d="M96.7342 1.9876L13.2638 1.9876C7.08081 1.9876 1.9948 7.05592 1.9948 13.2174L1.9948 28.4224C1.9948 34.5839 7.08081 39.6522 13.2638 39.6522L14.9591 39.6522L14.9591 45.5156C14.9591 45.8137 15.2583 46.1118 15.5575 46.1118L18.8484 46.1118C19.2473 46.1118 19.4468 45.8137 19.4468 45.5156L19.4468 39.6522L95.4378 39.6522L95.4378 45.118C95.4378 45.4162 95.7369 45.7143 96.0361 45.7143L99.3271 45.7143C99.6262 45.7143 99.8257 45.4162 99.9254 45.118L99.9254 39.1553C104.613 37.764 108.005 33.4907 108.005 28.4224L108.005 13.2174C108.005 7.05592 102.917 1.9876 96.7342 1.9876"/>
	<path fill="#FFFDFD" d="M25.8289 20.472C25.8289 25.1921 21.9891 29.0186 17.2525 29.0186C12.5159 29.0186 8.6761 25.1921 8.6761 20.472C8.6761 15.7518 12.5159 11.9254 17.2525 11.9254C21.9891 11.9254 25.8289 15.7518 25.8289 20.472"/>
</svg>
