<?xml version="1.0" encoding="utf-8" ?>
<svg xmlns="http://www.w3.org/2000/svg" xmlns:xlink="http://www.w3.org/1999/xlink" width="94" height="94">
	<path fill="white" d="M15.6335 94C7.06992 94 0 86.9626 0 78.216L0 15.784C0 7.13797 6.97034 0 15.6335 0L78.3665 0C86.9301 0 94 7.03743 94 15.784L94 78.216C94 86.862 87.0297 94 78.3665 94L15.6335 94"/>
	<path fill="#5ADCE0" d="M78.3666 90.7828L15.6336 90.7828C8.6632 90.7828 2.98735 85.0522 2.98735 78.0148L2.98735 15.5828C2.98735 8.54533 8.6632 2.81485 15.6336 2.81485L78.3666 2.81485C85.337 2.81485 91.0127 8.54533 91.0127 15.5828L91.0127 78.0148C90.9131 85.1528 85.2374 90.7828 78.3666 90.7828"/>
	<path fill="#2D1B0A" d="M78.3666 91.7882L15.6335 91.7882C8.16533 91.7882 1.9916 85.6556 1.9916 78.0149L1.9916 15.5829C1.9916 8.04276 8.06575 1.8096 15.6335 1.8096L78.3666 1.8096C85.8348 1.8096 92.0085 7.94222 92.0085 15.5829L92.0085 78.0149C91.909 85.6556 85.8348 91.7882 78.3666 91.7882M15.6335 3.92083C9.26067 3.92083 3.98313 9.14864 3.98313 15.6834L3.98313 78.1155C3.98313 84.5497 9.16109 89.878 15.6335 89.878L78.3666 89.878C84.7395 89.878 90.017 84.6502 90.017 78.1155L90.017 15.6834C90.017 9.24917 84.8391 3.92083 78.3666 3.92083L15.6335 3.92083"/>
	<path fill="#FFD071" d="M72.4915 3.01605L22.6038 3.01605C22.2055 3.01605 21.7076 3.11658 21.4089 3.31765C21.1102 3.51872 20.911 3.71979 20.911 3.92086L20.911 22.6203C20.911 22.8214 21.1102 23.0224 21.4089 23.2236C21.7076 23.4247 22.1059 23.5252 22.6038 23.5252L72.4915 23.5252C72.8898 23.5252 73.3877 23.4247 73.6864 23.2236C73.9852 23.0224 74.1843 22.8214 74.1843 22.6203L74.1843 3.92086C74.1843 3.71979 73.9852 3.51872 73.6864 3.31765C73.3877 3.11658 72.8898 3.01605 72.4915 3.01605"/>
	<path fill="#2D1B0A" d="M72.4915 24.5305L22.6038 24.5305C22.0063 24.5305 21.4089 24.43 21.0106 24.1283C20.3135 23.8267 20.0148 23.2235 20.0148 22.6203L20.0148 3.92086C20.0148 3.31765 20.4131 2.71444 21.0106 2.41284C21.5084 2.21177 22.0063 2.0107 22.6038 2.0107L72.4915 2.0107C73.089 2.0107 73.6864 2.11123 74.0847 2.41284C74.7817 2.71444 75.0805 3.31765 75.0805 3.92086L75.0805 22.6203C75.0805 23.2235 74.6822 23.8267 74.0847 24.1283C73.6864 24.3294 73.089 24.5305 72.4915 24.5305M21.9068 22.3187C22.1059 22.4193 22.3051 22.4193 22.6038 22.4193L72.4915 22.4193C72.7902 22.4193 72.9894 22.3187 73.1885 22.3187L73.1885 4.12193C72.9894 4.0214 72.7902 4.0214 72.4915 4.0214L22.6038 4.0214C22.3051 4.0214 22.1059 4.12193 21.9068 4.12193L21.9068 22.3187"/>
	<path fill="#E6F9FF" d="M72.7902 49.4631L22.9025 49.4631C22.5041 49.4631 22.0063 49.6641 21.7075 49.9657C21.4088 50.2673 21.2097 50.77 21.2097 51.1721L21.2097 88.6716C21.2097 89.1743 21.4088 89.5764 21.7075 89.8781C22.0063 90.1796 22.4046 90.3806 22.9025 90.3806L72.7902 90.3806C73.1885 90.3806 73.6863 90.1796 73.985 89.8781C74.2839 89.5764 74.4829 89.0737 74.4829 88.6716L74.4829 51.1721C74.4829 50.6695 74.2839 50.2673 73.985 49.9657C73.5868 49.6641 73.1885 49.4631 72.7902 49.4631"/>
	<path fill="#2D1B0A" d="M72.7903 91.4866L22.9026 91.4866C22.2055 91.4866 21.5085 91.185 21.0106 90.6824C20.5127 90.1797 20.214 89.4759 20.214 88.7722L20.214 51.2727C20.214 50.569 20.5127 49.8652 21.0106 49.3626C21.5085 48.8599 22.2055 48.5583 22.9026 48.5583L72.7903 48.5583C73.4873 48.5583 74.1843 48.8599 74.6822 49.3626C75.1801 49.8652 75.4788 50.569 75.4788 51.2727L75.4788 88.7722C75.4788 89.4759 75.1801 90.1797 74.6822 90.6824C74.1843 91.185 73.4873 91.4866 72.7903 91.4866M22.9026 50.4685C22.7034 50.4685 22.6038 50.569 22.4047 50.6695C22.3051 50.7701 22.2055 50.9711 22.2055 51.1722L22.2055 88.6717C22.2055 88.8727 22.3051 89.0738 22.4047 89.1743C22.5043 89.2749 22.7034 89.3754 22.9026 89.3754L72.7903 89.3754C72.9894 89.3754 73.089 89.2749 73.2882 89.1743C73.3877 89.0738 73.4873 88.8727 73.4873 88.6717L73.4873 51.1722C73.4873 50.9711 73.3877 50.7701 73.2882 50.6695C73.1886 50.569 72.9894 50.4685 72.7903 50.4685L22.9026 50.4685"/>
	<path fill="#2D1B0A" d="M59.0487 7.7412L64.3263 7.7412L64.3263 19.4032L59.0487 19.4032L59.0487 7.7412"/>
	<path fill="#2D1B0A" d="M29.2754 63.0353L68.0106 63.0353L68.0106 66.3529L29.2754 66.3529L29.2754 63.0353"/>
	<path fill="#2D1B0A" d="M28.9767 76.2054L67.7119 76.2054L67.7119 79.523L28.9767 79.523L28.9767 76.2054"/>
</svg>
