<?xml version="1.0" encoding="utf-8" ?>
<svg xmlns="http://www.w3.org/2000/svg" xmlns:xlink="http://www.w3.org/1999/xlink" width="52" height="106">
	<path fill="white" d="M9.31883 105.899C4.17031 105.899 0.0515 101.857 0.0515 96.8047L0.0515 37.8933C0.0515 32.841 4.17031 28.799 9.31883 28.799L10.7604 28.799L11.0693 26.1717C11.6871 21.2203 14.4673 16.5721 18.5862 13.5406C21.8812 10.9134 26 9.59975 30.4277 9.59975C31.2515 9.59975 32.1782 9.7008 33.002 9.80184L36.4 10.206L45.9763 9.39765L45.9763 29.4053C49.7862 31.1231 51.9485 34.4577 51.9485 37.9944L51.9485 96.9058C51.9485 101.857 47.7267 106 42.6812 106L9.31883 106M32.2812 24.858C30.8396 24.858 29.501 25.3633 28.2654 26.1717C27.8535 26.576 27.5446 26.879 27.2357 27.2832L25.897 28.9L36.4 28.9L36.4 25.4643L33.2079 24.9591C33.002 24.858 32.6931 24.858 32.2812 24.858M30.4277 15.6627C27.4416 15.6627 24.5584 16.5721 22.2931 18.391C19.4099 20.513 17.5565 23.6455 17.1446 27.0812L16.9386 28.9L19.7188 28.9C20.6456 25.5655 22.1901 23.3424 24.2495 21.5234C26.7208 19.7047 29.398 18.7952 32.1782 18.7952C32.7961 18.7952 33.5168 18.7952 34.1347 18.8962L36.297 19.1994L36.297 15.5616L34.2376 15.4606L32.0753 15.7637C31.6634 15.6627 31.0456 15.6627 30.4277 15.6627"/>
	<path fill="white" d="M8.64955 24.7569C9.98817 15.1573 18.4317 7.98284 28.3168 7.98284C29.1406 7.98284 29.9644 8.08389 30.7881 8.18494L33.8773 8.58913L34.9069 0.606292L31.8179 0.202097C30.6852 0 29.4495 0 28.3168 0C14.3129 0 2.36837 10.2059 0.411931 23.7464L5e-05 26.7779L8.1347 27.8894L8.64955 24.7569"/>
	<path fill="white" d="M1.2356 25.7674L1.54451 23.7464C3.39798 10.7112 14.9306 0.8084 28.4198 0.8084C29.5524 0.8084 30.6851 0.8084 31.8178 1.0105L33.8772 1.31364L33.0534 7.37656L30.994 7.07341C30.1703 6.97237 29.2435 6.87132 28.4198 6.87132C18.0198 6.87132 9.16431 14.45 7.72273 24.5548L7.41382 26.5758L1.2356 25.7674"/>
	<path fill="#353951" d="M42.9901 31.5272L42.9901 12.0248L39.5921 12.0248L39.5921 31.5272L9.31882 31.5272C5.9208 31.5272 3.1406 34.2556 3.1406 37.5901L3.1406 96.5014C3.1406 99.8361 5.9208 102.564 9.31882 102.564L42.6812 102.564C45.9762 102.564 48.8594 99.8361 48.8594 96.5014L48.8594 37.5901C48.8594 34.1544 46.2852 31.5272 42.9901 31.5272"/>
	<path fill="#2D1B0A" d="M42.6812 103.575L9.31882 103.575C5.30298 103.575 2.1109 100.442 2.1109 96.5015L2.1109 37.5902C2.1109 33.6493 5.30298 30.5168 9.31882 30.5168L38.5624 30.5168L38.5624 11.0144L44.0198 11.0144L44.0198 30.6178C47.4178 31.1231 49.8891 34.0535 49.8891 37.5902L49.8891 96.5015C49.8891 100.341 46.5941 103.575 42.6812 103.575M9.31882 32.5378C6.43565 32.5378 4.17031 34.7608 4.17031 37.5902L4.17031 96.5015C4.17031 99.3309 6.43565 101.554 9.31882 101.554L42.6812 101.554C45.4614 101.554 47.8297 99.2298 47.8297 96.5015L47.8297 37.5902C47.8297 34.7608 45.6673 32.5378 42.9901 32.5378L41.9604 32.5378L41.9604 13.0354L40.6218 13.0354L40.6218 32.5378L9.31882 32.5378"/>
	<path fill="#2D1B0A" d="M5.45741 23.9485L3.398 23.6454C5.25147 10.408 17.8138 1.01048 31.303 2.7283L30.994 4.74928C18.6376 3.1325 7.2079 11.8227 5.45741 23.9485"/>
	<path fill="#2D1B0A" d="M15.0337 26.3737L12.9742 26.0705C13.5921 21.6244 15.9604 17.4814 19.6673 14.7531C23.2712 11.9237 27.8019 10.7111 32.6415 11.3174L32.4356 13.3384C28.2139 12.8331 24.0951 13.8436 21.0059 16.3699C17.7109 18.795 15.5485 22.4328 15.0337 26.3737"/>
	<path fill="#2D1B0A" d="M23.5802 30.0114L21.5208 29.7083C21.9326 26.9799 23.3742 24.4537 25.5366 22.6349C28.0079 20.816 30.8911 20.1086 33.7743 20.5128L33.4654 22.5338C31.2 22.1296 28.8316 22.7359 26.8752 24.2516C25.1247 25.6663 23.992 27.7883 23.5802 30.0114"/>
	<path fill="#5DDEE2" d="M14.1069 71.2393L8.64948 71.2393C8.2376 71.2393 7.82572 70.8351 7.82572 70.4309L7.82572 65.0753C7.82572 64.6711 8.2376 64.2669 8.64948 64.2669L14.1069 64.2669C14.5188 64.2669 14.9307 64.6711 14.9307 65.0753L14.9307 70.4309C14.9307 70.8351 14.5188 71.2393 14.1069 71.2393"/>
	<path fill="#2D1B0A" d="M14.1069 72.2498L8.64949 72.2498C7.61978 72.2498 6.79602 71.4414 6.79602 70.4309L6.79602 65.0753C6.79602 64.0648 7.61978 63.2564 8.64949 63.2564L14.1069 63.2564C15.1366 63.2564 15.9604 64.0648 15.9604 65.0753L15.9604 70.4309C15.9604 71.4414 15.0336 72.2498 14.1069 72.2498M8.75246 70.2288L13.798 70.2288L13.798 65.2774L8.75246 65.2774L8.75246 70.2288"/>
	<path fill="#5DDEE2" d="M14.1069 82.7588L8.64948 82.7588C8.2376 82.7588 7.82572 82.3546 7.82572 81.9504L7.82572 76.5948C7.82572 76.1906 8.2376 75.7864 8.64948 75.7864L14.1069 75.7864C14.5188 75.7864 14.9307 76.1906 14.9307 76.5948L14.9307 81.9504C14.9307 82.3546 14.5188 82.7588 14.1069 82.7588"/>
	<path fill="#2D1B0A" d="M14.1069 83.7693L8.64949 83.7693C7.61978 83.7693 6.79602 82.9609 6.79602 81.9504L6.79602 76.5948C6.79602 75.5843 7.61978 74.7759 8.64949 74.7759L14.1069 74.7759C15.1366 74.7759 15.9604 75.5843 15.9604 76.5948L15.9604 81.9504C15.9604 82.8598 15.0336 83.7693 14.1069 83.7693M8.75246 81.7483L13.798 81.7483L13.798 76.7969L8.75246 76.7969L8.75246 81.7483"/>
	<path fill="#5DDEE2" d="M14.1069 94.1773L8.64948 94.1773C8.2376 94.1773 7.82572 93.7731 7.82572 93.3689L7.82572 88.0133C7.82572 87.6091 8.2376 87.2049 8.64948 87.2049L14.1069 87.2049C14.5188 87.2049 14.9307 87.6091 14.9307 88.0133L14.9307 93.3689C14.9307 93.7731 14.5188 94.1773 14.1069 94.1773"/>
	<path fill="#2D1B0A" d="M14.1069 95.1878L8.64949 95.1878C7.61978 95.1878 6.79602 94.3794 6.79602 93.3689L6.79602 88.0133C6.79602 87.0028 7.61978 86.1944 8.64949 86.1944L14.1069 86.1944C15.1366 86.1944 15.9604 87.0028 15.9604 88.0133L15.9604 93.3689C15.9604 94.3794 15.0336 95.1878 14.1069 95.1878M8.75246 93.1668L13.798 93.1668L13.798 88.2154L8.75246 88.2154L8.75246 93.1668"/>
	<path fill="#5DDEE2" d="M29.0376 71.2393L23.5802 71.2393C23.1683 71.2393 22.7564 70.8351 22.7564 70.4309L22.7564 65.0753C22.7564 64.6711 23.1683 64.2669 23.5802 64.2669L29.0376 64.2669C29.4495 64.2669 29.8614 64.6711 29.8614 65.0753L29.8614 70.4309C29.8614 70.8351 29.5525 71.2393 29.0376 71.2393"/>
	<path fill="#2D1B0A" d="M29.0376 72.2498L23.5802 72.2498C22.5505 72.2498 21.7267 71.4414 21.7267 70.4309L21.7267 65.0753C21.7267 64.0648 22.5505 63.2564 23.5802 63.2564L29.0376 63.2564C30.0673 63.2564 30.8911 64.0648 30.8911 65.0753L30.8911 70.4309C30.8911 70.9361 30.6851 71.4414 30.3762 71.7445C29.9643 72.0477 29.5525 72.2498 29.0376 72.2498M29.0376 70.2288L29.0376 71.2393L29.0376 70.2288M23.7861 70.2288L28.8317 70.2288L28.8317 65.2774L23.7861 65.2774L23.7861 70.2288"/>
	<path fill="#5DDEE2" d="M29.0376 82.7588L23.5802 82.7588C23.1683 82.7588 22.7564 82.3546 22.7564 81.9504L22.7564 76.5948C22.7564 76.1906 23.1683 75.7864 23.5802 75.7864L29.0376 75.7864C29.4495 75.7864 29.8614 76.1906 29.8614 76.5948L29.8614 81.9504C29.8614 82.3546 29.5525 82.7588 29.0376 82.7588"/>
	<path fill="#2D1B0A" d="M29.0376 83.7693L23.5802 83.7693C22.5505 83.7693 21.7267 82.9609 21.7267 81.9504L21.7267 76.5948C21.7267 75.5843 22.5505 74.7759 23.5802 74.7759L29.0376 74.7759C30.0673 74.7759 30.8911 75.5843 30.8911 76.5948L30.8911 81.9504C30.8911 82.4556 30.6851 82.9609 30.3762 83.264C29.9643 83.5672 29.5525 83.7693 29.0376 83.7693M29.0376 81.7483L29.0376 82.7588L29.0376 81.7483M23.7861 81.7483L28.8317 81.7483L28.8317 76.7969L23.7861 76.7969L23.7861 81.7483"/>
	<path fill="#5DDEE2" d="M29.0376 94.1773L23.5802 94.1773C23.1683 94.1773 22.7564 93.7731 22.7564 93.3689L22.7564 88.0133C22.7564 87.6091 23.1683 87.2049 23.5802 87.2049L29.0376 87.2049C29.4495 87.2049 29.8614 87.6091 29.8614 88.0133L29.8614 93.3689C29.8614 93.7731 29.5525 94.1773 29.0376 94.1773"/>
	<path fill="#2D1B0A" d="M29.0376 95.1878L23.5802 95.1878C22.5505 95.1878 21.7267 94.3794 21.7267 93.3689L21.7267 88.0133C21.7267 87.0028 22.5505 86.1944 23.5802 86.1944L29.0376 86.1944C30.0673 86.1944 30.8911 87.0028 30.8911 88.0133L30.8911 93.3689C30.8911 93.8741 30.6851 94.3794 30.3762 94.6825C29.9643 94.9857 29.5525 95.1878 29.0376 95.1878M29.0376 93.1668L29.0376 94.1773L29.0376 93.1668M23.7861 93.1668L28.8317 93.1668L28.8317 88.2154L23.7861 88.2154L23.7861 93.1668"/>
	<path fill="#5DDEE2" d="M43.0416 71.2393L37.5842 71.2393C37.1723 71.2393 36.7604 70.8351 36.7604 70.4309L36.7604 65.0753C36.7604 64.6711 37.1723 64.2669 37.5842 64.2669L43.0416 64.2669C43.4535 64.2669 43.8654 64.6711 43.8654 65.0753L43.8654 70.4309C43.8654 70.8351 43.4535 71.2393 43.0416 71.2393"/>
	<path fill="#2D1B0A" d="M43.0416 72.2498L37.5842 72.2498C36.5545 72.2498 35.7307 71.4414 35.7307 70.4309L35.7307 65.0753C35.7307 64.0648 36.5545 63.2564 37.5842 63.2564L43.0416 63.2564C44.0713 63.2564 44.8951 64.0648 44.8951 65.0753L44.8951 70.4309C44.8951 71.4414 44.0713 72.2498 43.0416 72.2498M37.7901 70.2288L42.8357 70.2288L42.8357 65.2774L37.7901 65.2774L37.7901 70.2288"/>
	<path fill="#5DDEE2" d="M43.0416 82.7588L37.5842 82.7588C37.1723 82.7588 36.7604 82.3546 36.7604 81.9504L36.7604 76.5948C36.7604 76.1906 37.1723 75.7864 37.5842 75.7864L43.0416 75.7864C43.4535 75.7864 43.8654 76.1906 43.8654 76.5948L43.8654 81.9504C43.8654 82.3546 43.4535 82.7588 43.0416 82.7588"/>
	<path fill="#2D1B0A" d="M43.0416 83.7693L37.5842 83.7693C36.5545 83.7693 35.7307 82.9609 35.7307 81.9504L35.7307 76.5948C35.7307 75.5843 36.5545 74.7759 37.5842 74.7759L43.0416 74.7759C44.0713 74.7759 44.8951 75.5843 44.8951 76.5948L44.8951 81.9504C44.8951 82.8598 44.0713 83.7693 43.0416 83.7693M37.7901 81.7483L42.8357 81.7483L42.8357 76.7969L37.7901 76.7969L37.7901 81.7483"/>
	<path fill="#5DDEE2" d="M43.0416 94.1773L37.5842 94.1773C37.1723 94.1773 36.7604 93.7731 36.7604 93.3689L36.7604 88.0133C36.7604 87.6091 37.1723 87.2049 37.5842 87.2049L43.0416 87.2049C43.4535 87.2049 43.8654 87.6091 43.8654 88.0133L43.8654 93.3689C43.8654 93.7731 43.4535 94.1773 43.0416 94.1773"/>
	<path fill="#2D1B0A" d="M43.0416 95.1878L37.5842 95.1878C36.5545 95.1878 35.7307 94.3794 35.7307 93.3689L35.7307 88.0133C35.7307 87.0028 36.5545 86.1944 37.5842 86.1944L43.0416 86.1944C44.0713 86.1944 44.8951 87.0028 44.8951 88.0133L44.8951 93.3689C44.8951 94.3794 44.0713 95.1878 43.0416 95.1878M37.7901 93.1668L42.8357 93.1668L42.8357 88.2154L37.7901 88.2154L37.7901 93.1668"/>
	<path fill="white" d="M7.5168 43.653L44.3802 43.653L44.3802 59.3155L7.5168 59.3155L7.5168 43.653"/>
	<path fill="#2D1B0A" d="M45.3069 60.225L6.3841 60.225L6.3841 42.5415L45.3069 42.5415L45.3069 60.225M8.54648 58.2039L43.3504 58.2039L43.3504 44.5624L8.54648 44.5624L8.54648 58.2039"/>
</svg>
