<?xml version="1.0" encoding="utf-8" ?>
<svg xmlns="http://www.w3.org/2000/svg" xmlns:xlink="http://www.w3.org/1999/xlink" width="82" height="82">
	<path fill="white" d="M68.97 25.5743C61.3738 18.3688 51.4482 14.3094 40.9149 14.3094C30.3816 14.3094 20.3547 18.2673 12.7585 25.6757C10.429 28.0099 10.2265 31.7648 12.4547 34.302C13.8726 35.7228 15.3919 36.3317 17.1137 36.3317C18.6329 36.3317 20.0508 35.8243 21.2662 34.8094C26.7354 29.6337 33.7239 26.8936 41 26.8936C48.4098 26.8936 55.3982 29.7351 60.6649 34.7079C61.6777 35.7228 63.2982 36.4332 64.8174 36.4332C66.5392 36.4332 68.1597 35.7228 69.3751 34.6064C70.5905 33.3886 71.1982 31.8663 71.1078 30.1411C70.8943 28.3144 70.1854 26.6906 68.97 25.5743"/>
	<path fill="white" d="M79.9633 15.5272C69.3275 5.48015 55.4504 -5e-05 41 -5e-05C26.4807 -5e-05 12.6036 5.48015 1.86652 15.6287C-0.46321 17.9629 -0.665795 21.7178 1.56265 24.2549C2.98074 25.6756 4.70272 26.3861 6.32341 26.3861C7.94409 26.3861 9.46348 25.7772 10.5777 24.6609C18.7824 16.8465 29.6207 12.4827 41 12.4827C52.3103 12.4827 63.1487 16.745 71.3534 24.5594C72.4676 25.6756 73.8857 26.2847 75.709 26.2847C77.4309 26.2847 79.0516 25.5743 80.2671 24.4578C81.4826 23.2401 82.0904 21.7178 82 19.9925C81.8878 18.2673 81.1788 16.6436 79.9633 15.5272"/>
	<path fill="white" d="M27.9001 46.1757C29.4193 46.1757 30.8373 45.6683 32.0527 44.552C34.5848 42.2178 37.6231 41.1015 41 41.1015C44.2065 41.1015 47.2449 42.3193 49.777 44.552C50.9923 45.6683 52.5116 46.2772 54.0308 46.2772C55.7527 46.2772 57.3731 45.5668 58.5886 44.4505C59.8038 43.2327 60.4115 41.7104 60.3212 39.9851C60.209 38.2599 59.5 36.7376 58.2846 35.6213C53.4231 31.1559 47.2449 28.6188 40.8642 28.6188C34.4835 28.6188 28.4065 31.0544 23.6463 35.4183C21.2155 37.854 21.0129 41.6089 23.2411 44.146C24.6591 45.5668 26.2796 46.1757 27.9001 46.1757"/>
	<path fill="white" d="M64.2559 52.7723C62.2303 50.7426 58.7867 48.4084 53.6213 48.4084C46.5316 48.4084 40.9611 52.5693 38.6316 58.8614L38.6316 48.9158L17.8688 48.9158L16.9573 66.6757L19.388 68.198L14.0201 75.6064L15.8432 77.4332C18.8816 80.4777 22.7303 82 27.1867 82C33.0611 82 37.7201 78.5495 39.2393 73.4752C41.7713 78.7525 46.9367 82 53.7226 82C57.8752 82 62.0277 80.4777 64.6611 77.9406L65.5726 60.2822L61.5213 60.2822L66.1803 54.7005L64.2559 52.7723M23.8444 69.8218C25.6675 68.6039 25.8701 68.6039 26.5791 68.6039C27.0855 68.6039 27.3893 68.6039 27.3893 69.6188C27.3893 70.5322 27.288 70.7351 26.2752 70.7351C25.5662 70.8366 24.756 70.4307 23.8444 69.8218M37.7201 62.5148C37.1124 61.6015 36.4034 60.8911 35.4919 60.2822L38.1252 60.2822C38.0239 60.9926 37.8213 61.703 37.7201 62.5148M55.3431 60.2822L52.3047 60.2822C52.7098 60.0792 53.2162 59.9777 53.8239 59.9777C54.4316 59.9777 54.938 60.0792 55.3431 60.2822"/>
	<path d="M25.1585 42.2179C24.0445 41 24.0445 39.0718 25.361 37.7525C29.5131 33.9976 34.8805 31.7649 40.5517 31.7649C46.2228 31.7649 51.5902 33.9976 55.8436 37.9555C57.0588 39.0718 57.2614 41.1015 56.0461 42.4208C55.4385 43.0297 54.4258 43.3342 53.7169 43.3342C52.9067 43.3342 52.0966 43.0297 51.4889 42.4208C48.4508 39.7822 44.7038 38.1585 40.5517 38.1585C36.3995 38.1585 32.6525 39.7822 29.6144 42.4208C28.2979 43.4357 26.3737 43.4357 25.1585 42.2179M66.477 27.807C59.3881 21.0075 50.1724 17.354 40.3927 17.354C30.6271 17.354 21.5127 21.0075 14.4237 27.807C13.2085 29.0248 13.2085 30.953 14.2212 32.2723C15.4364 33.4901 17.3606 33.4901 18.6771 32.4753C24.6521 26.7921 32.45 23.7476 40.3927 23.7476C48.4508 23.7476 56.2487 26.7921 62.2237 32.4753C62.73 32.9827 63.4389 33.2872 64.2491 33.2872C65.0592 33.2872 65.9707 32.9827 66.5783 32.3738C67.8948 31.0545 67.6923 28.9233 66.477 27.807M77.313 17.7599C67.1859 8.22034 54.122 3.0446 40.3927 3.0446C26.5763 3.0446 13.5123 8.22034 3.38519 17.7599C2.16993 18.9778 2.16993 20.906 3.18264 22.2253C4.3979 23.4431 6.52459 23.6461 7.73984 22.4283C16.5504 14.005 28.0953 9.43816 40.2478 9.43816C52.4004 9.43816 63.9453 14.005 72.7558 22.4283C73.3635 23.0372 74.1736 23.2401 74.9838 23.2401C75.794 23.2401 76.7054 22.9357 77.313 22.3268C78.7308 20.906 78.6296 18.8763 77.313 17.7599M27.994 61.1956C26.9813 61.1956 26.1712 61.2971 25.2597 61.703L25.6648 57.2377L35.083 57.2377L35.083 51.9604L20.1962 51.9604L19.4873 65.052L22.2216 66.8788C23.7407 65.8639 24.4496 65.5595 25.9686 65.5595C28.1966 65.5595 29.8169 66.9802 29.8169 69.6189C29.8169 72.359 28.1966 73.7797 25.6648 73.7797C23.5381 73.7797 21.7152 72.6634 20.1962 71.2426L17.3606 75.2005C19.4873 77.2302 22.4241 78.854 26.5763 78.854C31.6398 78.854 36.0957 75.4035 36.0957 69.4159C36.2983 63.8342 32.5512 61.1956 27.994 61.1956M52.1978 68.5025L56.3499 68.5025L56.3499 72.7649C55.7423 73.1708 54.8309 73.4753 53.8182 73.4753C48.9571 73.4753 46.5266 70.4307 46.5266 65.1535C46.5266 59.9778 49.3622 56.9332 53.2105 56.9332C55.4385 56.9332 56.755 57.8466 58.0715 58.9629L61.4135 54.9035C59.5906 53.0768 56.8563 51.453 52.9067 51.453C45.8177 51.453 39.8428 56.5273 39.8428 65.3565C39.8428 74.2872 45.6152 78.9555 53.008 78.9555C56.755 78.9555 59.9957 77.5347 61.8186 75.708L61.8186 63.3268L51.9953 63.3268L51.9953 68.5025"/>
	<path fill="white" d="M53.2104 79.4629C44.9062 79.4629 39.5388 73.8813 39.5388 65.3565C39.5388 56.8318 45.1087 50.9456 53.1091 50.9456C57.4638 50.9456 60.2994 52.8738 61.9197 54.5991L58.1727 59.7748C56.5523 58.2525 55.2358 57.4407 53.2104 57.4407C49.4634 57.4407 47.0329 60.4852 47.0329 65.1535C47.0329 70.3293 49.2608 72.9679 53.818 72.9679C54.5269 72.9679 55.3371 72.7649 55.8434 72.562L55.8434 69.1115L51.6913 69.1115L51.6913 62.9209L62.5273 62.9209L62.5273 76.0124C60.1981 78.1436 56.7549 79.4629 53.2104 79.4629M53.1091 51.9605C45.7163 51.9605 40.493 57.4407 40.493 65.3565C40.493 73.4753 45.4125 78.4481 53.2104 78.4481C56.9574 78.4481 59.8943 76.9258 61.5146 75.505L61.5146 63.8342L52.704 63.8342L52.704 67.9951L56.8561 67.9951L56.8561 73.0694C56.046 73.6783 54.932 73.9827 53.818 73.9827C48.8557 73.9827 46.0201 70.8367 46.0201 65.1535C46.0201 59.8763 48.957 56.4258 53.2104 56.4258C55.4384 56.4258 56.8561 57.2377 58.0714 58.2525L60.8057 55.005C59.2867 53.4827 56.7549 51.9605 53.1091 51.9605M26.6774 79.4629C22.8291 79.4629 19.6897 78.1436 17.0566 75.6065L20.196 70.5322C22.2215 72.562 23.9431 73.3738 25.6647 73.3738C27.285 73.3738 29.3104 72.7649 29.3104 69.7204C29.3104 67.4877 28.0952 66.1684 25.9685 66.1684C24.652 66.1684 24.0443 66.3714 22.5253 67.3862L18.9808 65.458L19.6897 51.5545L35.5892 51.5545L35.5892 57.8466L26.171 57.8466L25.8672 61.0941C26.5761 60.8912 27.1837 60.7897 27.9939 60.7897C32.2473 60.7897 36.7032 63.1238 36.7032 69.7204C36.8045 76.1139 31.7409 79.4629 26.6774 79.4629M18.1706 75.2006C20.4998 77.3318 23.3354 78.4481 26.7787 78.4481C31.1333 78.4481 35.7918 75.708 35.7918 69.5174C35.7918 63.7327 31.8422 61.6016 28.0952 61.6016C27.1837 61.6016 26.4748 61.703 25.5634 62.109L25.2596 56.6288L34.6778 56.6288L34.6778 52.3664L20.8037 52.3664L20.196 64.7476L22.424 66.2699C23.8418 65.3565 24.652 65.0521 26.171 65.0521C28.9053 65.0521 30.5257 66.7773 30.5257 69.6189C30.5257 72.562 28.8041 74.2872 25.8672 74.2872C24.0443 74.2872 22.2215 73.4753 20.4998 72.0545L18.1706 75.2006M53.5142 43.8417C52.6028 43.8417 51.6913 43.4357 50.9824 42.7253C47.9443 39.9852 44.2985 38.5644 40.493 38.5644C36.6019 38.5644 32.9562 39.9852 29.9181 42.7253C28.399 44.0446 26.171 43.9431 24.7532 42.5223C23.4367 41.0001 23.538 38.8689 24.9558 37.4481C29.2092 33.4902 34.7791 31.2575 40.493 31.2575C46.1214 31.2575 51.6913 33.4902 56.1473 37.5496C56.8561 38.1585 57.2612 39.0719 57.3625 40.0867C57.3625 41.1016 57.0587 42.0149 56.3498 42.7253C55.5396 43.3342 54.5269 43.8417 53.5142 43.8417M40.493 37.5496C44.6024 37.5496 48.4507 39.0719 51.6913 41.9134C52.1977 42.4209 52.9066 42.7253 53.5142 42.7253C54.2231 42.7253 55.0333 42.4209 55.5396 41.9134C56.046 41.406 56.2485 40.7971 56.2485 40.0867C56.2485 39.3763 55.9447 38.6659 55.4384 38.26C51.185 34.4035 45.9189 32.1709 40.493 32.1709C34.9816 32.1709 29.7155 34.3021 25.6647 38.057C24.652 39.0719 24.5507 40.6956 25.5634 41.812C26.5761 42.8268 28.1964 42.9283 29.3104 41.9134C32.4498 39.0719 36.2981 37.5496 40.493 37.5496M16.5503 33.7946C15.6388 33.7946 14.6261 33.3887 13.9172 32.6783C12.6007 31.156 12.702 28.9233 14.1198 27.5025C21.2087 20.703 30.627 16.9481 40.493 16.9481C50.4761 16.9481 59.793 20.703 66.9833 27.5025C67.6921 28.1115 68.0972 29.0248 68.1985 30.0397C68.1985 31.0545 67.8947 31.9679 67.1858 32.6783C66.4769 33.3887 65.4642 33.7946 64.4515 33.7946C63.54 33.7946 62.6286 33.3887 62.021 32.8813C56.2485 27.4011 48.6532 24.3565 40.493 24.3565C32.5511 24.3565 24.9558 27.4011 19.0821 32.8813C18.2719 33.4902 17.3604 33.7946 16.5503 33.7946M40.493 17.9629C30.8295 17.9629 21.7151 21.6164 14.7274 28.2129C13.7147 29.2278 13.6134 30.8516 14.6261 31.9679C15.6388 32.9827 17.2592 33.0842 18.3732 32.0694C24.3481 26.3862 32.2473 23.2402 40.493 23.2402C48.7545 23.2402 56.5523 26.3862 62.6286 32.0694C63.0337 32.4753 63.7426 32.6783 64.3502 32.6783C65.0591 32.6783 65.8693 32.3738 66.3756 31.8664C66.882 31.359 67.0845 30.7501 67.0845 30.0397C67.0845 29.3293 66.7807 28.6189 66.2744 28.2129C59.1854 21.6164 50.071 17.9629 40.493 17.9629M5.81555 23.7476C4.80284 23.7476 3.79013 23.3417 2.97996 22.5298C1.66344 21.0075 1.76471 18.7748 3.1825 17.354C13.4109 7.81443 26.5761 2.5372 40.493 2.5372C54.3244 2.5372 67.4896 7.81443 77.718 17.354C78.4269 17.9629 78.832 18.9778 78.9332 19.8912C78.9332 20.906 78.6294 21.8194 77.9205 22.5298C77.2116 23.2402 76.1989 23.6461 75.1862 23.6461C74.4773 23.6461 73.4646 23.5446 72.6544 22.7327C63.9451 14.5124 52.5015 9.94562 40.493 9.94562C28.399 9.94562 17.0566 14.5124 8.24605 22.7327C7.53716 23.4431 6.72699 23.7476 5.81555 23.7476M40.493 3.55205C26.8799 3.55205 13.9172 8.72779 3.8914 18.1659C2.87869 19.1808 2.77742 20.8045 3.79013 21.9209C4.90411 23.0372 6.62572 23.0372 7.63843 22.0223C16.5503 13.5991 28.1964 8.93076 40.493 8.93076C52.8053 8.93076 64.4515 13.5991 73.3633 22.0223C73.7684 22.4283 74.376 22.6313 75.1862 22.6313C75.8951 22.6313 76.7053 22.3268 77.2116 21.8194C77.718 21.312 77.9205 20.703 77.9205 19.9926C77.9205 19.2822 77.6167 18.5719 77.1104 18.1659C66.9833 8.72779 54.0206 3.55205 40.493 3.55205"/>
</svg>
